<svg version="1.1" style="font-family:&quot;lucida grande&quot;, &quot;lucida sans unicode&quot;, arial, helvetica, sans-serif;font-size:12px;" xmlns="http://www.w3.org/2000/svg" width="584" height="400" viewBox="0 0 584 400"><desc>Created with Highcharts 4.1.4</desc><defs><clipPath id="highcharts-1"><rect x="0" y="0" width="508" height="266"></rect></clipPath><clipPath id="highcharts-2"><rect x="-99" y="-61" width="607" height="400"></rect></clipPath><clipPath id="highcharts-3"><rect x="0" y="0" width="508" height="266"></rect></clipPath></defs><rect x="0" y="0" width="584" height="400" strokeWidth="0" fill="#FFFFFF" class=" highcharts-background" stroke="transparent"></rect><g class="highcharts-grid" ></g><g class="highcharts-grid" ><path fill="none" d="M 66 327.5 L 574 327.5" stroke="#D8D8D8" stroke-width="1"  opacity="1"></path><path fill="none" d="M 66 274.5 L 574 274.5" stroke="#D8D8D8" stroke-width="1"  opacity="1"></path><path fill="none" d="M 66 221.5 L 574 221.5" stroke="#D8D8D8" stroke-width="1"  opacity="1"></path><path fill="none" d="M 66 167.5 L 574 167.5" stroke="#D8D8D8" stroke-width="1"  opacity="1"></path><path fill="none" d="M 66 114.5 L 574 114.5" stroke="#D8D8D8" stroke-width="1"  opacity="1"></path><path fill="none" d="M 66 60.5 L 574 60.5" stroke="#D8D8D8" stroke-width="1"  opacity="1"></path></g><g class="highcharts-axis" ><path fill="none" d="M 70.5 327 L 70.5 337" stroke="#C0D0E0" stroke-width="1" opacity="1"></path><path fill="none" d="M 145.5 327 L 145.5 337" stroke="#C0D0E0" stroke-width="1" opacity="1"></path><path fill="none" d="M 221.5 327 L 221.5 337" stroke="#C0D0E0" stroke-width="1" opacity="1"></path><path fill="none" d="M 296.5 327 L 296.5 337" stroke="#C0D0E0" stroke-width="1" opacity="1"></path><path fill="none" d="M 372.5 327 L 372.5 337" stroke="#C0D0E0" stroke-width="1" opacity="1"></path><path fill="none" d="M 447.5 327 L 447.5 337" stroke="#C0D0E0" stroke-width="1" opacity="1"></path><path fill="none" d="M 523.5 327 L 523.5 337" stroke="#C0D0E0" stroke-width="1" opacity="1"></path><path fill="none" d="M 66 327.5 L 574 327.5" stroke="#C0D0E0" stroke-width="1"  visibility="visible"></path></g><g class="highcharts-axis" ><text x="24"  text-anchor="middle" transform="translate(0,0) rotate(270 24 194)" class=" highcharts-yaxis-title" style="color:#707070;fill:#707070;" visibility="visible" y="194"><tspan>Nuclear weapon states</tspan></text></g><g class="highcharts-series-group" ><g class="highcharts-series" visibility="visible"  transform="translate(66,61) scale(1 1)" clip-path="url(#highcharts-3)"><path fill="rgb(124,181,236)" fill-opacity="0.7" d="M 42.7 265.9 L 50.2 265.9 L 57.8 265.8 L 65.3 265.4 L 72.8 264.7 L 80.4 264.0 L 87.9 262.5 L 95.5 260.6 L 103.0 258.3 L 110.6 255.0 L 118.1 249.7 L 125.7 241.4 L 133.2 231.7 L 140.8 213.7 L 148.3 183.7 L 155.9 157.2 L 163.4 137.6 L 170.9 120.3 L 178.5 109.2 L 186.0 100.7 L 193.6 95.8 L 201.1 95.5 L 208.7 99.8 L 216.2 110.5 L 223.8 120.5 L 231.3 124.1 L 238.9 122.5 L 246.4 117.5 L 254 111.7 L 261.5 111.9 L 269.0 117.9 L 276.6 129.9 L 284.1 129.1 L 291.7 133.9 L 299.2 135.1 L 306.8 136.7 L 314.3 141.1 L 321.9 139.8 L 329.4 137.7 L 337.0 136.4 L 344.5 137.0 L 352.0 136.1 L 359.6 136.4 L 367.1 140.5 L 374.7 146.9 L 382.2 154.2 L 389.8 174.0 L 397.3 187.5 L 404.9 196.4 L 412.4 199.2 L 420.0 201.3 L 427.5 207.4 L 435.1 207.7 L 442.6 208.1 L 450.1 208.4 L 457.7 209.7 L 465.2 209.9 L 472.8 210.2 L 480.3 210.5 L 487.9 210.8 L 495.4 211.2 L 503.0 212.2 L 503.0 266 L 42.7 266" ></path><path fill="none" d="M 42.7 265.9 L 50.2 265.9 L 57.8 265.8 L 65.3 265.4 L 72.8 264.7 L 80.4 264.0 L 87.9 262.5 L 95.5 260.6 L 103.0 258.3 L 110.6 255.0 L 118.1 249.7 L 125.7 241.4 L 133.2 231.7 L 140.8 213.7 L 148.3 183.7 L 155.9 157.2 L 163.4 137.6 L 170.9 120.3 L 178.5 109.2 L 186.0 100.7 L 193.6 95.8 L 201.1 95.5 L 208.7 99.8 L 216.2 110.5 L 223.8 120.5 L 231.3 124.1 L 238.9 122.5 L 246.4 117.5 L 254 111.7 L 261.5 111.9 L 269.0 117.9 L 276.6 129.9 L 284.1 129.1 L 291.7 133.9 L 299.2 135.1 L 306.8 136.7 L 314.3 141.1 L 321.9 139.8 L 329.4 137.7 L 337.0 136.4 L 344.5 137.0 L 352.0 136.1 L 359.6 136.4 L 367.1 140.5 L 374.7 146.9 L 382.2 154.2 L 389.8 174.0 L 397.3 187.5 L 404.9 196.4 L 412.4 199.2 L 420.0 201.3 L 427.5 207.4 L 435.1 207.7 L 442.6 208.1 L 450.1 208.4 L 457.7 209.7 L 465.2 209.9 L 472.8 210.2 L 480.3 210.5 L 487.9 210.8 L 495.4 211.2 L 503.0 212.2" stroke="#7cb5ec" stroke-width="2"  stroke-linejoin="round" stroke-linecap="round"></path><path fill="none" d="M 32.7 265.9 L 42.7 265.9 L 50.2 265.9 L 57.8 265.8 L 65.3 265.4 L 72.8 264.7 L 80.4 264.0 L 87.9 262.5 L 95.5 260.6 L 103.0 258.3 L 110.6 255.0 L 118.1 249.7 L 125.7 241.4 L 133.2 231.7 L 140.8 213.7 L 148.3 183.7 L 155.9 157.2 L 163.4 137.6 L 170.9 120.3 L 178.5 109.2 L 186.0 100.7 L 193.6 95.8 L 201.1 95.5 L 208.7 99.8 L 216.2 110.5 L 223.8 120.5 L 231.3 124.1 L 238.9 122.5 L 246.4 117.5 L 254 111.7 L 261.5 111.9 L 269.0 117.9 L 276.6 129.9 L 284.1 129.1 L 291.7 133.9 L 299.2 135.1 L 306.8 136.7 L 314.3 141.1 L 321.9 139.8 L 329.4 137.7 L 337.0 136.4 L 344.5 137.0 L 352.0 136.1 L 359.6 136.4 L 367.1 140.5 L 374.7 146.9 L 382.2 154.2 L 389.8 174.0 L 397.3 187.5 L 404.9 196.4 L 412.4 199.2 L 420.0 201.3 L 427.5 207.4 L 435.1 207.7 L 442.6 208.1 L 450.1 208.4 L 457.7 209.7 L 465.2 209.9 L 472.8 210.2 L 480.3 210.5 L 487.9 210.8 L 495.4 211.2 L 503.0 212.2 L 513.0 212.2" stroke-linejoin="round" visibility="visible" stroke="rgb(192,192,192)" stroke-opacity="0.0" stroke-width="22"  class=" highcharts-tracker" style=""></path></g><g class="highcharts-markers highcharts-tracker" visibility="visible"  transform="translate(66,61) scale(1 1)" clip-path="url(#highcharts-2)" style=""></g><g class="highcharts-series" visibility="visible"  transform="translate(66,61) scale(1 1)" clip-path="url(#highcharts-3)"><path fill="rgb(67,67,72)" fill-opacity="0.7" d="M 80.4 265.9 L 87.9 265.8 L 95.5 265.7 L 103.0 265.3 L 110.6 265.2 L 118.1 264.9 L 125.7 263.7 L 133.2 262.4 L 140.8 261.3 L 148.3 260.3 L 155.9 257.4 L 163.4 252.8 L 170.9 248.3 L 178.5 243.4 L 186.0 238.2 L 193.6 233.3 L 201.1 228.2 L 208.7 221.6 L 216.2 215.9 L 223.8 209.9 L 231.3 204.0 L 238.9 196.3 L 246.4 188.9 L 254 181.3 L 261.5 173.5 L 269.0 164.6 L 276.6 153.1 L 284.1 143.4 L 291.7 130.9 L 299.2 117.3 L 306.8 106.0 L 314.3 95.4 L 321.9 85.3 L 329.4 75.5 L 337.0 66.8 L 344.5 57.4 L 352.0 26.5 L 359.6 37.2 L 367.1 47.8 L 374.7 58.5 L 382.2 69.1 L 389.8 79.8 L 397.3 90.4 L 404.9 101.0 L 412.4 111.7 L 420.0 122.3 L 427.5 133 L 435.1 138.3 L 442.6 143.6 L 450.1 148.9 L 457.7 154.2 L 465.2 159.6 L 472.8 164.9 L 480.3 170.2 L 487.9 170.2 L 495.4 175.5 L 503.0 180.8 L 503.0 266 L 80.4 266" ></path><path fill="none" d="M 80.4 265.9 L 87.9 265.8 L 95.5 265.7 L 103.0 265.3 L 110.6 265.2 L 118.1 264.9 L 125.7 263.7 L 133.2 262.4 L 140.8 261.3 L 148.3 260.3 L 155.9 257.4 L 163.4 252.8 L 170.9 248.3 L 178.5 243.4 L 186.0 238.2 L 193.6 233.3 L 201.1 228.2 L 208.7 221.6 L 216.2 215.9 L 223.8 209.9 L 231.3 204.0 L 238.9 196.3 L 246.4 188.9 L 254 181.3 L 261.5 173.5 L 269.0 164.6 L 276.6 153.1 L 284.1 143.4 L 291.7 130.9 L 299.2 117.3 L 306.8 106.0 L 314.3 95.4 L 321.9 85.3 L 329.4 75.5 L 337.0 66.8 L 344.5 57.4 L 352.0 26.5 L 359.6 37.2 L 367.1 47.8 L 374.7 58.5 L 382.2 69.1 L 389.8 79.8 L 397.3 90.4 L 404.9 101.0 L 412.4 111.7 L 420.0 122.3 L 427.5 133 L 435.1 138.3 L 442.6 143.6 L 450.1 148.9 L 457.7 154.2 L 465.2 159.6 L 472.8 164.9 L 480.3 170.2 L 487.9 170.2 L 495.4 175.5 L 503.0 180.8" stroke="#434348" stroke-width="2"  stroke-linejoin="round" stroke-linecap="round"></path><path fill="none" d="M 70.4 265.9 L 80.4 265.9 L 87.9 265.8 L 95.5 265.7 L 103.0 265.3 L 110.6 265.2 L 118.1 264.9 L 125.7 263.7 L 133.2 262.4 L 140.8 261.3 L 148.3 260.3 L 155.9 257.4 L 163.4 252.8 L 170.9 248.3 L 178.5 243.4 L 186.0 238.2 L 193.6 233.3 L 201.1 228.2 L 208.7 221.6 L 216.2 215.9 L 223.8 209.9 L 231.3 204.0 L 238.9 196.3 L 246.4 188.9 L 254 181.3 L 261.5 173.5 L 269.0 164.6 L 276.6 153.1 L 284.1 143.4 L 291.7 130.9 L 299.2 117.3 L 306.8 106.0 L 314.3 95.4 L 321.9 85.3 L 329.4 75.5 L 337.0 66.8 L 344.5 57.4 L 352.0 26.5 L 359.6 37.2 L 367.1 47.8 L 374.7 58.5 L 382.2 69.1 L 389.8 79.8 L 397.3 90.4 L 404.9 101.0 L 412.4 111.7 L 420.0 122.3 L 427.5 133 L 435.1 138.3 L 442.6 143.6 L 450.1 148.9 L 457.7 154.2 L 465.2 159.6 L 472.8 164.9 L 480.3 170.2 L 487.9 170.2 L 495.4 175.5 L 503.0 180.8 L 513.0 180.8" stroke-linejoin="round" visibility="visible" stroke="rgb(192,192,192)" stroke-opacity="0.0" stroke-width="22"  class=" highcharts-tracker" style=""></path></g><g class="highcharts-markers highcharts-tracker" visibility="visible"  transform="translate(66,61) scale(1 1)" clip-path="url(#highcharts-2)" style=""></g></g><text x="292" text-anchor="middle" class="highcharts-title"  style="color:#333333;font-size:18px;fill:#333333;width:520px;" y="24"><tspan>US and USSR nuclear stockpiles</tspan></text><text x="292" text-anchor="middle" class="highcharts-subtitle"  style="color:#555555;fill:#555555;width:520px;" y="46"><tspan>Source: </tspan><tspan onclick="location.href=&quot;http://thebulletin.metapress.com/content/c4120650912x74k7/fulltext.pdf&quot;" style="cursor: pointer; " dx="0">thebulletin.metapress.com</tspan></text><g class="highcharts-legend"  transform="translate(201,360)"><g ><g><g class="highcharts-legend-item"  transform="translate(8,3)"><text x="21" style="color:#333333;font-size:12px;font-weight:bold;cursor:pointer;fill:#333333;" text-anchor="start"  y="15">USA</text><rect x="0" y="4" width="16" height="12"  fill="#7cb5ec"></rect></g><g class="highcharts-legend-item"  transform="translate(74,3)"><text x="21" y="15" style="color:#333333;font-size:12px;font-weight:bold;cursor:pointer;fill:#333333;" text-anchor="start" >USSR/Russia</text><rect x="0" y="4" width="16" height="12"  fill="#434348"></rect></g></g></g></g><g class="highcharts-axis-labels highcharts-xaxis-labels" ><text x="70.9" style="color:#606060;cursor:default;font-size:11px;fill:#606060;width:71px;text-overflow:clip;" text-anchor="middle" transform="translate(0,0)" y="346" opacity="1">1940</text><text x="146.4" style="color:#606060;cursor:default;font-size:11px;fill:#606060;width:71px;text-overflow:clip;" text-anchor="middle" transform="translate(0,0)" y="346" opacity="1">1950</text><text x="221.9" style="color:#606060;cursor:default;font-size:11px;fill:#606060;width:71px;text-overflow:clip;" text-anchor="middle" transform="translate(0,0)" y="346" opacity="1">1960</text><text x="297.3" style="color:#606060;cursor:default;font-size:11px;fill:#606060;width:71px;text-overflow:clip;" text-anchor="middle" transform="translate(0,0)" y="346" opacity="1">1970</text><text x="372.8" style="color:#606060;cursor:default;font-size:11px;fill:#606060;width:71px;text-overflow:clip;" text-anchor="middle" transform="translate(0,0)" y="346" opacity="1">1980</text><text x="448.2" style="color:#606060;cursor:default;font-size:11px;fill:#606060;width:71px;text-overflow:clip;" text-anchor="middle" transform="translate(0,0)" y="346" opacity="1">1990</text><text x="523.7" style="color:#606060;cursor:default;font-size:11px;fill:#606060;width:71px;text-overflow:clip;" text-anchor="middle" transform="translate(0,0)" y="346" opacity="1">2000</text></g><g class="highcharts-axis-labels highcharts-yaxis-labels" ><text x="51" style="color:#606060;cursor:default;font-size:11px;fill:#606060;width:183px;text-overflow:clip;" text-anchor="end" transform="translate(0,0)" y="332" opacity="1">0k</text><text x="51" style="color:#606060;cursor:default;font-size:11px;fill:#606060;width:183px;text-overflow:clip;" text-anchor="end" transform="translate(0,0)" y="278" opacity="1">10k</text><text x="51" style="color:#606060;cursor:default;font-size:11px;fill:#606060;width:183px;text-overflow:clip;" text-anchor="end" transform="translate(0,0)" y="225" opacity="1">20k</text><text x="51" style="color:#606060;cursor:default;font-size:11px;fill:#606060;width:183px;text-overflow:clip;" text-anchor="end" transform="translate(0,0)" y="172" opacity="1">30k</text><text x="51" style="color:#606060;cursor:default;font-size:11px;fill:#606060;width:183px;text-overflow:clip;" text-anchor="end" transform="translate(0,0)" y="119" opacity="1">40k</text><text x="51" style="color:#606060;cursor:default;font-size:11px;fill:#606060;width:183px;text-overflow:clip;" text-anchor="end" transform="translate(0,0)" y="66" opacity="1">50k</text></g><g class="highcharts-tooltip"  style="cursor:default;padding:0;white-space:nowrap;" transform="translate(0,-9999)"><path fill="none" d="M 3 0 L 13 0 C 16 0 16 0 16 3 L 16 13 C 16 16 16 16 13 16 L 3 16 C 0 16 0 16 0 13 L 0 3 C 0 0 0 0 3 0"  stroke="black" stroke-opacity="0.0" stroke-width="5" transform="translate(1, 1)"></path><path fill="none" d="M 3 0 L 13 0 C 16 0 16 0 16 3 L 16 13 C 16 16 16 16 13 16 L 3 16 C 0 16 0 16 0 13 L 0 3 C 0 0 0 0 3 0"  stroke="black" stroke-opacity="0.0" stroke-width="3" transform="translate(1, 1)"></path><path fill="none" d="M 3 0 L 13 0 C 16 0 16 0 16 3 L 16 13 C 16 16 16 16 13 16 L 3 16 C 0 16 0 16 0 13 L 0 3 C 0 0 0 0 3 0"  stroke="black" stroke-opacity="0.1" stroke-width="1" transform="translate(1, 1)"></path><path fill="rgb(249, 249, 249)" fill-opacity=" .85" d="M 3 0 L 13 0 C 16 0 16 0 16 3 L 16 13 C 16 16 16 16 13 16 L 3 16 C 0 16 0 16 0 13 L 0 3 C 0 0 0 0 3 0"></path><text x="8"  style="font-size:12px;color:#333333;fill:#333333;" transform="translate(0,20)"></text></g></svg>