<svg version="1.1" style="font-family:&quot;lucida grande&quot;, &quot;lucida sans unicode&quot;, arial, helvetica, sans-serif;font-size:12px;" xmlns="http://www.w3.org/2000/svg" width="584" height="400" viewBox="0 0 584 400"><desc>Created with Highcharts 4.1.4</desc><defs><clipPath id="highcharts-1"><rect x="0" y="0" width="298" height="492"></rect></clipPath><clipPath id="highcharts-2"><rect x="-99" y="-82" width="397" height="584"></rect></clipPath><clipPath id="highcharts-3"><rect x="0" y="0" width="298" height="492"></rect></clipPath></defs><rect x="0" y="0" width="584" height="400" strokeWidth="0" fill="#FFFFFF" class=" highcharts-background" stroke="transparent"></rect><g class="highcharts-grid" ></g><g class="highcharts-grid" ><path fill="none" d="M 81.5 47 L 81.5 345" stroke="#D8D8D8" stroke-width="1"  opacity="1"></path><path fill="none" d="M 151.5 47 L 151.5 345" stroke="#D8D8D8" stroke-width="1"  opacity="1"></path><path fill="none" d="M 222.5 47 L 222.5 345" stroke="#D8D8D8" stroke-width="1"  opacity="1"></path><path fill="none" d="M 292.5 47 L 292.5 345" stroke="#D8D8D8" stroke-width="1"  opacity="1"></path><path fill="none" d="M 362.5 47 L 362.5 345" stroke="#D8D8D8" stroke-width="1"  opacity="1"></path><path fill="none" d="M 432.5 47 L 432.5 345" stroke="#D8D8D8" stroke-width="1"  opacity="1"></path><path fill="none" d="M 503.5 47 L 503.5 345" stroke="#D8D8D8" stroke-width="1"  opacity="1"></path><path fill="none" d="M 574.5 47 L 574.5 345" stroke="#D8D8D8" stroke-width="1"  opacity="1"></path></g><g class="highcharts-axis" ><path fill="none" d="M 82 90.5 L 72 90.5" stroke="#C0D0E0" stroke-width="1" opacity="1"></path><path fill="none" d="M 82 132.5 L 72 132.5" stroke="#C0D0E0" stroke-width="1" opacity="1"></path><path fill="none" d="M 82 175.5 L 72 175.5" stroke="#C0D0E0" stroke-width="1" opacity="1"></path><path fill="none" d="M 82 217.5 L 72 217.5" stroke="#C0D0E0" stroke-width="1" opacity="1"></path><path fill="none" d="M 82 260.5 L 72 260.5" stroke="#C0D0E0" stroke-width="1" opacity="1"></path><path fill="none" d="M 82 302.5 L 72 302.5" stroke="#C0D0E0" stroke-width="1" opacity="1"></path><path fill="none" d="M 82 345.5 L 72 345.5" stroke="#C0D0E0" stroke-width="1" opacity="1"></path><path fill="none" d="M 82 46.5 L 72 46.5" stroke="#C0D0E0" stroke-width="1" opacity="1"></path><path fill="none" d="M 81.5 47 L 81.5 345" stroke="#C0D0E0" stroke-width="1"  visibility="visible"></path></g><g class="highcharts-axis" ><text x="328"  text-anchor="middle" transform="translate(0,0)" class=" highcharts-yaxis-title" style="color:#707070;fill:#707070;" visibility="visible" y="383"><tspan>Number of units</tspan></text></g><g class="highcharts-series-group" ><g class="highcharts-series" visibility="visible"  transform="translate(574,345) rotate(90) scale(-1,1) scale(1 1)" clip-path="url(#highcharts-3)" width="492" height="298"><path fill="rgb(124,181,236)" fill-opacity="0.5" d="M 276.7 386.5 L 234.1 351.4 L 191.5 386.5 L 149 316.2 L 106.4 351.4 L 63.8 140.5 L 21.2 70.2 L 21.2 492 L 276.7 492" ></path><path fill="none" d="M 276.7 386.5 L 234.1 351.4 L 191.5 386.5 L 149 316.2 L 106.4 351.4 L 63.8 140.5 L 21.2 70.2" stroke="#7cb5ec" stroke-width="2"  stroke-linejoin="round" stroke-linecap="round"></path><path fill="none" d="M 266.7 386.5 L 276.7 386.5 L 234.1 351.4 L 191.5 386.5 L 149 316.2 L 106.4 351.4 L 63.8 140.5 L 21.2 70.2 L 31.2 70.2" stroke-linejoin="round" visibility="visible" stroke="rgb(192,192,192)" stroke-opacity="0.0" stroke-width="22"  class=" highcharts-tracker" style=""></path></g><g class="highcharts-markers highcharts-tracker" visibility="visible"  transform="translate(574,345) rotate(90) scale(-1,1) scale(1 1)" clip-path="url(#highcharts-2)" style="" width="492" height="298"><path fill="#7cb5ec" d="M 21 66.2 C 26.3 66.2 26.3 74.2 21 74.2 C 15.6 74.2 15.6 66.2 21 66.2 Z"></path><path fill="#7cb5ec" d="M 63 136.5 C 68.3 136.5 68.3 144.5 63 144.5 C 57.6 144.5 57.6 136.5 63 136.5 Z"></path><path fill="#7cb5ec" d="M 106 347.4 C 111.3 347.4 111.3 355.4 106 355.4 C 100.6 355.4 100.6 347.4 106 347.4 Z"></path><path fill="#7cb5ec" d="M 149 312.2 C 154.3 312.2 154.3 320.2 149 320.2 C 143.6 320.2 143.6 312.2 149 312.2 Z"></path><path fill="#7cb5ec" d="M 191 382.5 C 196.3 382.5 196.3 390.5 191 390.5 C 185.6 390.5 185.6 382.5 191 382.5 Z"></path><path fill="#7cb5ec" d="M 234 347.4 C 239.3 347.4 239.3 355.4 234 355.4 C 228.6 355.4 228.6 347.4 234 347.4 Z"></path><path fill="#7cb5ec" d="M 276 382.5 C 281.3 382.5 281.3 390.5 276 390.5 C 270.6 390.5 270.6 382.5 276 382.5 Z"></path></g><g class="highcharts-series" visibility="visible"  transform="translate(574,345) rotate(90) scale(-1,1) scale(1 1)" clip-path="url(#highcharts-3)" width="492" height="298"><path fill="rgb(67,67,72)" fill-opacity="0.5" d="M 276.7 456.8 L 234.1 386.5 L 191.5 351.4 L 149 386.5 L 106.4 386.5 L 63.8 316.2 L 21.2 351.4 L 21.2 492 L 276.7 492" ></path><path fill="none" d="M 276.7 456.8 L 234.1 386.5 L 191.5 351.4 L 149 386.5 L 106.4 386.5 L 63.8 316.2 L 21.2 351.4" stroke="#434348" stroke-width="2"  stroke-linejoin="round" stroke-linecap="round"></path><path fill="none" d="M 266.7 456.8 L 276.7 456.8 L 234.1 386.5 L 191.5 351.4 L 149 386.5 L 106.4 386.5 L 63.8 316.2 L 21.2 351.4 L 31.2 351.4" stroke-linejoin="round" visibility="visible" stroke="rgb(192,192,192)" stroke-opacity="0.0" stroke-width="22"  class=" highcharts-tracker" style=""></path></g><g class="highcharts-markers highcharts-tracker" visibility="visible"  transform="translate(574,345) rotate(90) scale(-1,1) scale(1 1)" clip-path="url(#highcharts-2)" style="" width="492" height="298"><path fill="#434348" d="M 21 347.4 L 25 351.4 21 355.4 17 351.4 Z"></path><path fill="#434348" d="M 63 312.2 L 67 316.2 63 320.2 59 316.2 Z"></path><path fill="#434348" d="M 106 382.5 L 110 386.5 106 390.5 102 386.5 Z"></path><path fill="#434348" d="M 149 382.5 L 153 386.5 149 390.5 145 386.5 Z"></path><path fill="#434348" d="M 191 347.4 L 195 351.4 191 355.4 187 351.4 Z"></path><path fill="#434348" d="M 234 382.5 L 238 386.5 234 390.5 230 386.5 Z"></path><path fill="#434348" d="M 276 452.8 L 280 456.8 276 460.8 272 456.8 Z"></path></g></g><text x="292" text-anchor="middle" class="highcharts-title"  style="color:#333333;font-size:18px;fill:#333333;width:520px;" y="24"><tspan>Average fruit consumption during one week</tspan></text><g class="highcharts-legend"  transform="translate(357,110)"><rect x="0.5" y="0.5" width="66" height="38" strokeWidth="1" stroke="#909090" stroke-width="1" fill="#FFFFFF" visibility="visible"></rect><g ><g><g class="highcharts-legend-item"  transform="translate(8,3)"><text x="21" style="color:#333333;font-size:12px;font-weight:bold;cursor:pointer;fill:#333333;" text-anchor="start"  y="15">John</text><rect x="0" y="4" width="16" height="12"  fill="#7cb5ec"></rect></g><g class="highcharts-legend-item"  transform="translate(8,17)"><text x="21" y="15" style="color:#333333;font-size:12px;font-weight:bold;cursor:pointer;fill:#333333;" text-anchor="start" >Jane</text><rect x="0" y="4" width="16" height="12"  fill="#434348"></rect></g></g></g></g><g class="highcharts-axis-labels highcharts-xaxis-labels" ><text x="67" style="color:#606060;cursor:default;font-size:11px;fill:#606060;width:183px;text-overflow:clip;" text-anchor="end" transform="translate(0,0)" y="73" opacity="1">Monday</text><text x="67" style="color:#606060;cursor:default;font-size:11px;fill:#606060;width:183px;text-overflow:clip;" text-anchor="end" transform="translate(0,0)" y="115" opacity="1">Tuesday</text><text x="67" style="color:#606060;cursor:default;font-size:11px;fill:#606060;width:183px;text-overflow:clip;" text-anchor="end" transform="translate(0,0)" y="158" opacity="1">Wednesday</text><text x="67" style="color:#606060;cursor:default;font-size:11px;fill:#606060;width:183px;text-overflow:clip;" text-anchor="end" transform="translate(0,0)" y="201" opacity="1">Thursday</text><text x="67" style="color:#606060;cursor:default;font-size:11px;fill:#606060;width:183px;text-overflow:clip;" text-anchor="end" transform="translate(0,0)" y="243" opacity="1">Friday</text><text x="67" style="color:#606060;cursor:default;font-size:11px;fill:#606060;width:183px;text-overflow:clip;" text-anchor="end" transform="translate(0,0)" y="286" opacity="1">Saturday</text><text x="67" style="color:#606060;cursor:default;font-size:11px;fill:#606060;width:183px;text-overflow:clip;" text-anchor="end" transform="translate(0,0)" y="328" opacity="1">Sunday</text></g><g class="highcharts-axis-labels highcharts-yaxis-labels" ><text x="82" style="color:#606060;cursor:default;font-size:11px;fill:#606060;width:61px;text-overflow:clip;" text-anchor="middle" transform="translate(0,0)" y="364" opacity="1">0</text><text x="152.2" style="color:#606060;cursor:default;font-size:11px;fill:#606060;width:61px;text-overflow:clip;" text-anchor="middle" transform="translate(0,0)" y="364" opacity="1">2</text><text x="222.5" style="color:#606060;cursor:default;font-size:11px;fill:#606060;width:61px;text-overflow:clip;" text-anchor="middle" transform="translate(0,0)" y="364" opacity="1">4</text><text x="292.8" style="color:#606060;cursor:default;font-size:11px;fill:#606060;width:61px;text-overflow:clip;" text-anchor="middle" transform="translate(0,0)" y="364" opacity="1">6</text><text x="363.1" style="color:#606060;cursor:default;font-size:11px;fill:#606060;width:61px;text-overflow:clip;" text-anchor="middle" transform="translate(0,0)" y="364" opacity="1">8</text><text x="433.4" style="color:#606060;cursor:default;font-size:11px;fill:#606060;width:61px;text-overflow:clip;" text-anchor="middle" transform="translate(0,0)" y="364" opacity="1">10</text><text x="503.7" style="color:#606060;cursor:default;font-size:11px;fill:#606060;width:61px;text-overflow:clip;" text-anchor="middle" transform="translate(0,0)" y="364" opacity="1">12</text><text x="574" style="color:#606060;cursor:default;font-size:11px;fill:#606060;width:61px;text-overflow:clip;" text-anchor="end" transform="translate(0,0)" y="364" opacity="1">14</text></g><g class="highcharts-tooltip"  style="cursor:default;padding:0;white-space:nowrap;" transform="translate(0,-9999)"><path fill="none" d="M 3 0 L 13 0 C 16 0 16 0 16 3 L 16 13 C 16 16 16 16 13 16 L 3 16 C 0 16 0 16 0 13 L 0 3 C 0 0 0 0 3 0"  stroke="black" stroke-opacity="0.0" stroke-width="5" transform="translate(1, 1)"></path><path fill="none" d="M 3 0 L 13 0 C 16 0 16 0 16 3 L 16 13 C 16 16 16 16 13 16 L 3 16 C 0 16 0 16 0 13 L 0 3 C 0 0 0 0 3 0"  stroke="black" stroke-opacity="0.0" stroke-width="3" transform="translate(1, 1)"></path><path fill="none" d="M 3 0 L 13 0 C 16 0 16 0 16 3 L 16 13 C 16 16 16 16 13 16 L 3 16 C 0 16 0 16 0 13 L 0 3 C 0 0 0 0 3 0"  stroke="black" stroke-opacity="0.1" stroke-width="1" transform="translate(1, 1)"></path><path fill="rgb(249, 249, 249)" fill-opacity=" .85" d="M 3 0 L 13 0 C 16 0 16 0 16 3 L 16 13 C 16 16 16 16 13 16 L 3 16 C 0 16 0 16 0 13 L 0 3 C 0 0 0 0 3 0"></path><text x="8"  style="font-size:12px;color:#333333;fill:#333333;" transform="translate(0,20)"></text></g></svg>