<svg version="1.1" style="font-family:&quot;lucida grande&quot;, &quot;lucida sans unicode&quot;, arial, helvetica, sans-serif;font-size:12px;" xmlns="http://www.w3.org/2000/svg" width="584" height="400" viewBox="0 0 584 400"><desc>Created with Highcharts 4.1.4</desc><defs><clipPath id="highcharts-1"><rect x="0" y="0" width="503" height="317"></rect></clipPath><clipPath id="highcharts-2"><rect x="-99" y="-47" width="602" height="400"></rect></clipPath><clipPath id="highcharts-3"><rect x="0" y="0" width="503" height="317"></rect></clipPath></defs><rect x="0" y="0" width="584" height="400" strokeWidth="0" fill="#FFFFFF" class=" highcharts-background" stroke="transparent"></rect><path fill="rgb(68, 170, 213)" fill-opacity=" .2" d="M 429.5 47 L 429.5 364 573.5 364 573.5 47"></path><g class="highcharts-grid" ></g><g class="highcharts-grid" ><path fill="none" d="M 71 364.5 L 574 364.5" stroke="#D8D8D8" stroke-width="1"  opacity="1"></path><path fill="none" d="M 71 311.5 L 574 311.5" stroke="#D8D8D8" stroke-width="1"  opacity="1"></path><path fill="none" d="M 71 258.5 L 574 258.5" stroke="#D8D8D8" stroke-width="1"  opacity="1"></path><path fill="none" d="M 71 206.5 L 574 206.5" stroke="#D8D8D8" stroke-width="1"  opacity="1"></path><path fill="none" d="M 71 153.5 L 574 153.5" stroke="#D8D8D8" stroke-width="1"  opacity="1"></path><path fill="none" d="M 71 100.5 L 574 100.5" stroke="#D8D8D8" stroke-width="1"  opacity="1"></path><path fill="none" d="M 71 46.5 L 574 46.5" stroke="#D8D8D8" stroke-width="1"  opacity="1"></path></g><g class="highcharts-axis" ><path fill="none" d="M 142.5 364 L 142.5 374" stroke="#C0D0E0" stroke-width="1" opacity="1"></path><path fill="none" d="M 214.5 364 L 214.5 374" stroke="#C0D0E0" stroke-width="1" opacity="1"></path><path fill="none" d="M 286.5 364 L 286.5 374" stroke="#C0D0E0" stroke-width="1" opacity="1"></path><path fill="none" d="M 357.5 364 L 357.5 374" stroke="#C0D0E0" stroke-width="1" opacity="1"></path><path fill="none" d="M 429.5 364 L 429.5 374" stroke="#C0D0E0" stroke-width="1" opacity="1"></path><path fill="none" d="M 501.5 364 L 501.5 374" stroke="#C0D0E0" stroke-width="1" opacity="1"></path><path fill="none" d="M 574.5 364 L 574.5 374" stroke="#C0D0E0" stroke-width="1" opacity="1"></path><path fill="none" d="M 70.5 364 L 70.5 374" stroke="#C0D0E0" stroke-width="1" opacity="1"></path><path fill="none" d="M 71 364.5 L 574 364.5" stroke="#C0D0E0" stroke-width="1"  visibility="visible"></path></g><g class="highcharts-axis" ><text x="24"  text-anchor="middle" transform="translate(0,0) rotate(270 24 205.5)" class=" highcharts-yaxis-title" style="color:#707070;fill:#707070;" visibility="visible" y="205.5"><tspan>Fruit units</tspan></text></g><g class="highcharts-series-group" ><g class="highcharts-series" visibility="visible"  transform="translate(71,47) scale(1 1)" clip-path="url(#highcharts-3)"><path fill="rgb(124,181,236)" fill-opacity="0.5" d="M 35.9 253.6 C 35.9 253.6 79.0 232.4 107.7 232.4 C 136.5 232.4 150.9 253.6 179.6 253.6 C 208.3 253.6 222.7 211.3 251.5 211.3 C 280.2 211.3 294.6 232.4 323.3 232.4 C 352.1 232.4 366.4 139.4 395.2 105.6 C 423.9 71.8 467.0 63.4 467.0 63.4 L 467.0 317 L 35.9 317" ></path><path fill="none" d="M 35.9 253.6 C 35.9 253.6 79.0 232.4 107.7 232.4 C 136.5 232.4 150.9 253.6 179.6 253.6 C 208.3 253.6 222.7 211.3 251.5 211.3 C 280.2 211.3 294.6 232.4 323.3 232.4 C 352.1 232.4 366.4 139.4 395.2 105.6 C 423.9 71.8 467.0 63.4 467.0 63.4" stroke="#7cb5ec" stroke-width="2"  stroke-linejoin="round" stroke-linecap="round"></path><path fill="none" d="M 25.9 253.6 L 35.9 253.6 C 35.9 253.6 79.0 232.4 107.7 232.4 C 136.5 232.4 150.9 253.6 179.6 253.6 C 208.3 253.6 222.7 211.3 251.5 211.3 C 280.2 211.3 294.6 232.4 323.3 232.4 C 352.1 232.4 366.4 139.4 395.2 105.6 C 423.9 71.8 467.0 63.4 467.0 63.4 L 477.0 63.4" stroke-linejoin="round" visibility="visible" stroke="rgb(192,192,192)" stroke-opacity="0.0" stroke-width="22"  class=" highcharts-tracker" style=""></path></g><g class="highcharts-markers highcharts-tracker" visibility="visible"  transform="translate(71,47) scale(1 1)" clip-path="url(#highcharts-2)" style=""><path fill="#7cb5ec" d="M 467 59.4 C 472.3 59.4 472.3 67.4 467 67.4 C 461.6 67.4 461.6 59.4 467 59.4 Z"></path><path fill="#7cb5ec" d="M 395 101.6 C 400.3 101.6 400.3 109.6 395 109.6 C 389.6 109.6 389.6 101.6 395 101.6 Z"></path><path fill="#7cb5ec" d="M 323 228.4 C 328.3 228.4 328.3 236.4 323 236.4 C 317.6 236.4 317.6 228.4 323 228.4 Z"></path><path fill="#7cb5ec" d="M 251 207.3 C 256.3 207.3 256.3 215.3 251 215.3 C 245.6 215.3 245.6 207.3 251 207.3 Z"></path><path fill="#7cb5ec" d="M 179 249.6 C 184.3 249.6 184.3 257.6 179 257.6 C 173.6 257.6 173.6 249.6 179 249.6 Z"></path><path fill="#7cb5ec" d="M 107 228.4 C 112.3 228.4 112.3 236.4 107 236.4 C 101.6 236.4 101.6 228.4 107 228.4 Z"></path><path fill="#7cb5ec" d="M 35 249.6 C 40.3 249.6 40.3 257.6 35 257.6 C 29.6 257.6 29.6 249.6 35 249.6 Z"></path></g><g class="highcharts-series" visibility="visible"  transform="translate(71,47) scale(1 1)" clip-path="url(#highcharts-3)"><path fill="rgb(67,67,72)" fill-opacity="0.5" d="M 35.9 295.8 C 35.9 295.8 79.0 266.2 107.7 253.6 C 136.5 240.9 150.9 232.4 179.6 232.4 C 208.3 232.4 222.7 253.6 251.5 253.6 C 280.2 253.6 294.6 253.6 323.3 253.6 C 352.1 253.6 366.4 211.3 395.2 211.3 C 423.9 211.3 467.0 232.4 467.0 232.4 L 467.0 317 L 35.9 317" ></path><path fill="none" d="M 35.9 295.8 C 35.9 295.8 79.0 266.2 107.7 253.6 C 136.5 240.9 150.9 232.4 179.6 232.4 C 208.3 232.4 222.7 253.6 251.5 253.6 C 280.2 253.6 294.6 253.6 323.3 253.6 C 352.1 253.6 366.4 211.3 395.2 211.3 C 423.9 211.3 467.0 232.4 467.0 232.4" stroke="#434348" stroke-width="2"  stroke-linejoin="round" stroke-linecap="round"></path><path fill="none" d="M 25.9 295.8 L 35.9 295.8 C 35.9 295.8 79.0 266.2 107.7 253.6 C 136.5 240.9 150.9 232.4 179.6 232.4 C 208.3 232.4 222.7 253.6 251.5 253.6 C 280.2 253.6 294.6 253.6 323.3 253.6 C 352.1 253.6 366.4 211.3 395.2 211.3 C 423.9 211.3 467.0 232.4 467.0 232.4 L 477.0 232.4" stroke-linejoin="round" visibility="visible" stroke="rgb(192,192,192)" stroke-opacity="0.0" stroke-width="22"  class=" highcharts-tracker" style=""></path></g><g class="highcharts-markers highcharts-tracker" visibility="visible"  transform="translate(71,47) scale(1 1)" clip-path="url(#highcharts-2)" style=""><path fill="#434348" d="M 467 228.4 L 471 232.4 467 236.4 463 232.4 Z"></path><path fill="#434348" d="M 395 207.3 L 399 211.3 395 215.3 391 211.3 Z"></path><path fill="#434348" d="M 323 249.6 L 327 253.6 323 257.6 319 253.6 Z"></path><path fill="#434348" d="M 251 249.6 L 255 253.6 251 257.6 247 253.6 Z"></path><path fill="#434348" d="M 179 228.4 L 183 232.4 179 236.4 175 232.4 Z"></path><path fill="#434348" d="M 107 249.6 L 111 253.6 107 257.6 103 253.6 Z"></path><path fill="#434348" d="M 35 291.8 L 39 295.8 35 299.8 31 295.8 Z"></path></g></g><text x="292" text-anchor="middle" class="highcharts-title"  style="color:#333333;font-size:18px;fill:#333333;width:520px;" y="24"><tspan>Average fruit consumption during one week</tspan></text><g class="highcharts-legend"  transform="translate(160,110)"><rect x="0.5" y="0.5" width="66" height="38" strokeWidth="1" stroke="#909090" stroke-width="1" fill="#FFFFFF" visibility="visible"></rect><g ><g><g class="highcharts-legend-item"  transform="translate(8,3)"><text x="21" style="color:#333333;font-size:12px;font-weight:bold;cursor:pointer;fill:#333333;" text-anchor="start"  y="15">John</text><rect x="0" y="4" width="16" height="12"  fill="#7cb5ec"></rect></g><g class="highcharts-legend-item"  transform="translate(8,17)"><text x="21" y="15" style="color:#333333;font-size:12px;font-weight:bold;cursor:pointer;fill:#333333;" text-anchor="start" >Jane</text><rect x="0" y="4" width="16" height="12"  fill="#434348"></rect></g></g></g></g><g class="highcharts-axis-labels highcharts-xaxis-labels" ><text x="106.9" style="color:#606060;cursor:default;font-size:11px;fill:#606060;width:71px;text-overflow:clip;" text-anchor="middle" transform="translate(0,0)" y="383" opacity="1">Monday</text><text x="178.7" style="color:#606060;cursor:default;font-size:11px;fill:#606060;width:71px;text-overflow:clip;" text-anchor="middle" transform="translate(0,0)" y="383" opacity="1">Tuesday</text><text x="250.6" style="color:#606060;cursor:default;font-size:11px;fill:#606060;width:71px;text-overflow:clip;" text-anchor="middle" transform="translate(0,0)" y="383" opacity="1">Wednesday</text><text x="322.5" style="color:#606060;cursor:default;font-size:11px;fill:#606060;width:71px;text-overflow:clip;" text-anchor="middle" transform="translate(0,0)" y="383" opacity="1">Thursday</text><text x="394.3" style="color:#606060;cursor:default;font-size:11px;fill:#606060;width:71px;text-overflow:clip;" text-anchor="middle" transform="translate(0,0)" y="383" opacity="1">Friday</text><text x="466.2" style="color:#606060;cursor:default;font-size:11px;fill:#606060;width:71px;text-overflow:clip;" text-anchor="middle" transform="translate(0,0)" y="383" opacity="1">Saturday</text><text x="538.0" style="color:#606060;cursor:default;font-size:11px;fill:#606060;width:71px;text-overflow:clip;" text-anchor="middle" transform="translate(0,0)" y="383" opacity="1">Sunday</text></g><g class="highcharts-axis-labels highcharts-yaxis-labels" ><text x="56" style="color:#606060;cursor:default;font-size:11px;fill:#606060;width:183px;text-overflow:clip;" text-anchor="end" transform="translate(0,0)" y="369" opacity="1">0</text><text x="56" style="color:#606060;cursor:default;font-size:11px;fill:#606060;width:183px;text-overflow:clip;" text-anchor="end" transform="translate(0,0)" y="316" opacity="1">2.5</text><text x="56" style="color:#606060;cursor:default;font-size:11px;fill:#606060;width:183px;text-overflow:clip;" text-anchor="end" transform="translate(0,0)" y="263" opacity="1">5</text><text x="56" style="color:#606060;cursor:default;font-size:11px;fill:#606060;width:183px;text-overflow:clip;" text-anchor="end" transform="translate(0,0)" y="210" opacity="1">7.5</text><text x="56" style="color:#606060;cursor:default;font-size:11px;fill:#606060;width:183px;text-overflow:clip;" text-anchor="end" transform="translate(0,0)" y="157" opacity="1">10</text><text x="56" style="color:#606060;cursor:default;font-size:11px;fill:#606060;width:183px;text-overflow:clip;" text-anchor="end" transform="translate(0,0)" y="104" opacity="1">12.5</text><text x="56" style="color:#606060;cursor:default;font-size:11px;fill:#606060;width:183px;text-overflow:clip;" text-anchor="end" transform="translate(0,0)" y="52" opacity="1">15</text></g><g class="highcharts-tooltip"  style="cursor:default;padding:0;white-space:nowrap;" transform="translate(0,-9999)"><path fill="none" d="M 3 0 L 13 0 C 16 0 16 0 16 3 L 16 13 C 16 16 16 16 13 16 L 3 16 C 0 16 0 16 0 13 L 0 3 C 0 0 0 0 3 0"  stroke="black" stroke-opacity="0.0" stroke-width="5" transform="translate(1, 1)"></path><path fill="none" d="M 3 0 L 13 0 C 16 0 16 0 16 3 L 16 13 C 16 16 16 16 13 16 L 3 16 C 0 16 0 16 0 13 L 0 3 C 0 0 0 0 3 0"  stroke="black" stroke-opacity="0.0" stroke-width="3" transform="translate(1, 1)"></path><path fill="none" d="M 3 0 L 13 0 C 16 0 16 0 16 3 L 16 13 C 16 16 16 16 13 16 L 3 16 C 0 16 0 16 0 13 L 0 3 C 0 0 0 0 3 0"  stroke="black" stroke-opacity="0.1" stroke-width="1" transform="translate(1, 1)"></path><path fill="rgb(249, 249, 249)" fill-opacity=" .85" d="M 3 0 L 13 0 C 16 0 16 0 16 3 L 16 13 C 16 16 16 16 13 16 L 3 16 C 0 16 0 16 0 13 L 0 3 C 0 0 0 0 3 0"></path><text x="8"  style="font-size:12px;color:#333333;fill:#333333;" transform="translate(0,20)"></text></g></svg>