<svg version="1.1" style="font-family:&quot;lucida grande&quot;, &quot;lucida sans unicode&quot;, arial, helvetica, sans-serif;font-size:12px;" xmlns="http://www.w3.org/2000/svg" width="584" height="400" viewBox="0 0 584 400"><desc>Created with Highcharts 4.1.4</desc><defs><clipPath id="highcharts-1"><rect x="0" y="0" width="537" height="280"></rect></clipPath><clipPath id="highcharts-2"><rect x="-99" y="-47" width="636" height="400"></rect></clipPath><clipPath id="highcharts-3"><rect x="0" y="0" width="537" height="280"></rect></clipPath></defs><rect x="0" y="0" width="584" height="400" strokeWidth="0" fill="#FFFFFF" class=" highcharts-background" stroke="transparent"></rect><g class="highcharts-grid" ></g><g class="highcharts-grid" ><path fill="none" d="M 37 327.5 L 574 327.5" stroke="#D8D8D8" stroke-width="1"  opacity="1"></path><path fill="none" d="M 37 280.5 L 574 280.5" stroke="#D8D8D8" stroke-width="1"  opacity="1"></path><path fill="none" d="M 37 234.5 L 574 234.5" stroke="#D8D8D8" stroke-width="1"  opacity="1"></path><path fill="none" d="M 37 187.5 L 574 187.5" stroke="#D8D8D8" stroke-width="1"  opacity="1"></path><path fill="none" d="M 37 140.5 L 574 140.5" stroke="#D8D8D8" stroke-width="1"  opacity="1"></path><path fill="none" d="M 37 94.5 L 574 94.5" stroke="#D8D8D8" stroke-width="1"  opacity="1"></path><path fill="none" d="M 37 46.5 L 574 46.5" stroke="#D8D8D8" stroke-width="1"  opacity="1"></path></g><g class="highcharts-axis" ><path fill="none" d="M 129.5 327 L 129.5 337" stroke="#C0D0E0" stroke-width="1" opacity="1"></path><path fill="none" d="M 252.5 327 L 252.5 337" stroke="#C0D0E0" stroke-width="1" opacity="1"></path><path fill="none" d="M 375.5 327 L 375.5 337" stroke="#C0D0E0" stroke-width="1" opacity="1"></path><path fill="none" d="M 498.5 327 L 498.5 337" stroke="#C0D0E0" stroke-width="1" opacity="1"></path><path fill="none" d="M 37 327.5 L 574 327.5" stroke="#C0D0E0" stroke-width="1"  visibility="visible"></path></g><g class="highcharts-axis" ></g><g class="highcharts-series-group" ><g class="highcharts-series" visibility="visible"  transform="translate(37,47) scale(1 1)" clip-path="url(#highcharts-3)"><path fill="rgb(124,181,236)" fill-opacity="0.3" d="M 5.2 193.2 L 22.8 191.3 L 40.3 182 L 57.9 170.8 L 75.4 172.6 L 93.0 160.5 L 110.5 200.6 L 128.1 228.6 L 145.6 240.8 L 163.2 218.4 L 180.7 226.8 L 198.3 224 L 215.8 218.4 L 233.4 216.5 L 250.9 209.0 L 268.5 199.7 L 286.0 220.2 L 303.5 203.4 L 321.1 194.1 L 338.6 204.3 L 356.2 212.8 L 373.7 214.6 L 391.3 214.6 L 408.8 208.1 L 426.4 210.9 L 443.9 209.0 L 461.5 215.6 L 479.0 224 L 496.6 225.8 L 514.1 216.5 L 531.7 225.8 L 531.7 176.3 L 514.1 154 L 496.6 160.5 L 479.0 146.5 L 461.5 138.1 L 443.9 140.9 L 426.4 145.6 L 408.8 155.8 L 391.3 167.0 L 373.7 132.5 L 356.2 182 L 338.6 167.0 L 321.1 125.0 L 303.5 93.3 L 286.0 115.7 L 268.5 143.7 L 250.9 117.6 L 233.4 133.4 L 215.8 105.4 L 198.3 109.1 L 180.7 105.4 L 163.2 123.1 L 145.6 104.5 L 128.1 126.9 L 110.5 95.1 L 93.0 86.7 L 75.4 93.3 L 57.9 40.1 L 40.3 50.3 L 22.8 67.1 L 5.2 68.1" ></path><path fill="none" d="M 5.2 193.2 L 22.8 191.3 L 40.3 182 L 57.9 170.8 L 75.4 172.6 L 93.0 160.5 L 110.5 200.6 L 128.1 228.6 L 145.6 240.8 L 163.2 218.4 L 180.7 226.8 L 198.3 224 L 215.8 218.4 L 233.4 216.5 L 250.9 209.0 L 268.5 199.7 L 286.0 220.2 L 303.5 203.4 L 321.1 194.1 L 338.6 204.3 L 356.2 212.8 L 373.7 214.6 L 391.3 214.6 L 408.8 208.1 L 426.4 210.9 L 443.9 209.0 L 461.5 215.6 L 479.0 224 L 496.6 225.8 L 514.1 216.5 L 531.7 225.8 M 531.7 176.3 L 514.1 154 L 496.6 160.5 L 479.0 146.5 L 461.5 138.1 L 443.9 140.9 L 426.4 145.6 L 408.8 155.8 L 391.3 167.0 L 373.7 132.5 L 356.2 182 L 338.6 167.0 L 321.1 125.0 L 303.5 93.3 L 286.0 115.7 L 268.5 143.7 L 250.9 117.6 L 233.4 133.4 L 215.8 105.4 L 198.3 109.1 L 180.7 105.4 L 163.2 123.1 L 145.6 104.5 L 128.1 126.9 L 110.5 95.1 L 93.0 86.7 L 75.4 93.3 L 57.9 40.1 L 40.3 50.3 L 22.8 67.1 L 5.2 68.1"  stroke-linejoin="round" stroke-linecap="round"></path><path fill="rgb(192,192,192)" fill-opacity="0.0" d="M 5.2 193.2 L 22.8 191.3 L 40.3 182 L 57.9 170.8 L 75.4 172.6 L 93.0 160.5 L 110.5 200.6 L 128.1 228.6 L 145.6 240.8 L 163.2 218.4 L 180.7 226.8 L 198.3 224 L 215.8 218.4 L 233.4 216.5 L 250.9 209.0 L 268.5 199.7 L 286.0 220.2 L 303.5 203.4 L 321.1 194.1 L 338.6 204.3 L 356.2 212.8 L 373.7 214.6 L 391.3 214.6 L 408.8 208.1 L 426.4 210.9 L 443.9 209.0 L 461.5 215.6 L 479.0 224 L 496.6 225.8 L 514.1 216.5 L 531.7 225.8 L 531.7 176.3 L 514.1 154 L 496.6 160.5 L 479.0 146.5 L 461.5 138.1 L 443.9 140.9 L 426.4 145.6 L 408.8 155.8 L 391.3 167.0 L 373.7 132.5 L 356.2 182 L 338.6 167.0 L 321.1 125.0 L 303.5 93.3 L 286.0 115.7 L 268.5 143.7 L 250.9 117.6 L 233.4 133.4 L 215.8 105.4 L 198.3 109.1 L 180.7 105.4 L 163.2 123.1 L 145.6 104.5 L 128.1 126.9 L 110.5 95.1 L 93.0 86.7 L 75.4 93.3 L 57.9 40.1 L 40.3 50.3 L 22.8 67.1 L 5.2 68.1" stroke-linejoin="round" visibility="visible"  class=" highcharts-tracker" style=""></path></g><g class="highcharts-markers highcharts-tracker" visibility="visible"  transform="translate(37,47) scale(1 1)" clip-path="url(#highcharts-2)" style=""></g><g class="highcharts-series" visibility="visible"  transform="translate(37,47) scale(1 1)" clip-path="url(#highcharts-3)"><path fill="none" d="M 5.2 126 L 22.8 120.3 L 40.3 112 L 57.9 104.5 L 75.4 126.9 L 93.0 127.8 L 110.5 155.8 L 128.1 182.9 L 145.6 173.6 L 163.2 161.4 L 180.7 163.3 L 198.3 162.3 L 215.8 161.4 L 233.4 169.8 L 250.9 161.4 L 268.5 174.5 L 286.0 160.5 L 303.5 157.7 L 321.1 166.1 L 338.6 192.2 L 356.2 198.8 L 373.7 180.1 L 391.3 190.3 L 408.8 183.8 L 426.4 183.8 L 443.9 179.2 L 461.5 184.8 L 479.0 188.5 L 496.6 192.2 L 514.1 186.6 L 531.7 199.7" stroke="#7cb5ec" stroke-width="2"  stroke-linejoin="round" stroke-linecap="round"></path><path fill="none" d="M -4.7 126 L 5.2 126 L 22.8 120.3 L 40.3 112 L 57.9 104.5 L 75.4 126.9 L 93.0 127.8 L 110.5 155.8 L 128.1 182.9 L 145.6 173.6 L 163.2 161.4 L 180.7 163.3 L 198.3 162.3 L 215.8 161.4 L 233.4 169.8 L 250.9 161.4 L 268.5 174.5 L 286.0 160.5 L 303.5 157.7 L 321.1 166.1 L 338.6 192.2 L 356.2 198.8 L 373.7 180.1 L 391.3 190.3 L 408.8 183.8 L 426.4 183.8 L 443.9 179.2 L 461.5 184.8 L 479.0 188.5 L 496.6 192.2 L 514.1 186.6 L 531.7 199.7 L 541.7 199.7" stroke-linejoin="round" visibility="visible" stroke="rgb(192,192,192)" stroke-opacity="0.0" stroke-width="22"  class=" highcharts-tracker" style=""></path></g><g class="highcharts-markers highcharts-tracker" visibility="visible"  transform="translate(37,47) scale(1 1)" clip-path="url(#highcharts-2)" style=""><path fill="white" d="M 531 195.7 C 536.3 195.7 536.3 203.7 531 203.7 C 525.6 203.7 525.6 195.7 531 195.7 Z" stroke="#7cb5ec" stroke-width="2"></path><path fill="white" d="M 514 182.6 C 519.3 182.6 519.3 190.6 514 190.6 C 508.6 190.6 508.6 182.6 514 182.6 Z" stroke="#7cb5ec" stroke-width="2"></path><path fill="white" d="M 496 188.2 C 501.3 188.2 501.3 196.2 496 196.2 C 490.6 196.2 490.6 188.2 496 188.2 Z" stroke="#7cb5ec" stroke-width="2"></path><path fill="white" d="M 479 184.5 C 484.3 184.5 484.3 192.5 479 192.5 C 473.6 192.5 473.6 184.5 479 184.5 Z" stroke="#7cb5ec" stroke-width="2"></path><path fill="white" d="M 461 180.8 C 466.3 180.8 466.3 188.8 461 188.8 C 455.6 188.8 455.6 180.8 461 180.8 Z" stroke="#7cb5ec" stroke-width="2"></path><path fill="white" d="M 443 175.2 C 448.3 175.2 448.3 183.2 443 183.2 C 437.6 183.2 437.6 175.2 443 175.2 Z" stroke="#7cb5ec" stroke-width="2"></path><path fill="white" d="M 426 179.8 C 431.3 179.8 431.3 187.8 426 187.8 C 420.6 187.8 420.6 179.8 426 179.8 Z" stroke="#7cb5ec" stroke-width="2"></path><path fill="white" d="M 408 179.8 C 413.3 179.8 413.3 187.8 408 187.8 C 402.6 187.8 402.6 179.8 408 179.8 Z" stroke="#7cb5ec" stroke-width="2"></path><path fill="white" d="M 391 186.3 C 396.3 186.3 396.3 194.3 391 194.3 C 385.6 194.3 385.6 186.3 391 186.3 Z" stroke="#7cb5ec" stroke-width="2"></path><path fill="white" d="M 373 176.1 C 378.3 176.1 378.3 184.1 373 184.1 C 367.6 184.1 367.6 176.1 373 176.1 Z" stroke="#7cb5ec" stroke-width="2"></path><path fill="white" d="M 356 194.8 C 361.3 194.8 361.3 202.8 356 202.8 C 350.6 202.8 350.6 194.8 356 194.8 Z" stroke="#7cb5ec" stroke-width="2"></path><path fill="white" d="M 338 188.2 C 343.3 188.2 343.3 196.2 338 196.2 C 332.6 196.2 332.6 188.2 338 188.2 Z" stroke="#7cb5ec" stroke-width="2"></path><path fill="white" d="M 321 162.1 C 326.3 162.1 326.3 170.1 321 170.1 C 315.6 170.1 315.6 162.1 321 162.1 Z" stroke="#7cb5ec" stroke-width="2"></path><path fill="white" d="M 303 153.7 C 308.3 153.7 308.3 161.7 303 161.7 C 297.6 161.7 297.6 153.7 303 153.7 Z" stroke="#7cb5ec" stroke-width="2"></path><path fill="white" d="M 286 156.5 C 291.3 156.5 291.3 164.5 286 164.5 C 280.6 164.5 280.6 156.5 286 156.5 Z" stroke="#7cb5ec" stroke-width="2"></path><path fill="white" d="M 268 170.5 C 273.3 170.5 273.3 178.5 268 178.5 C 262.6 178.5 262.6 170.5 268 170.5 Z" stroke="#7cb5ec" stroke-width="2"></path><path fill="white" d="M 250 157.4 C 255.3 157.4 255.3 165.4 250 165.4 C 244.6 165.4 244.6 157.4 250 157.4 Z" stroke="#7cb5ec" stroke-width="2"></path><path fill="white" d="M 233 165.8 C 238.3 165.8 238.3 173.8 233 173.8 C 227.6 173.8 227.6 165.8 233 165.8 Z" stroke="#7cb5ec" stroke-width="2"></path><path fill="white" d="M 215 157.4 C 220.3 157.4 220.3 165.4 215 165.4 C 209.6 165.4 209.6 157.4 215 157.4 Z" stroke="#7cb5ec" stroke-width="2"></path><path fill="white" d="M 198 158.3 C 203.3 158.3 203.3 166.3 198 166.3 C 192.6 166.3 192.6 158.3 198 158.3 Z" stroke="#7cb5ec" stroke-width="2"></path><path fill="white" d="M 180 159.3 C 185.3 159.3 185.3 167.3 180 167.3 C 174.6 167.3 174.6 159.3 180 159.3 Z" stroke="#7cb5ec" stroke-width="2"></path><path fill="white" d="M 163 157.4 C 168.3 157.4 168.3 165.4 163 165.4 C 157.6 165.4 157.6 157.4 163 157.4 Z" stroke="#7cb5ec" stroke-width="2"></path><path fill="white" d="M 145 169.6 C 150.3 169.6 150.3 177.6 145 177.6 C 139.6 177.6 139.6 169.6 145 169.6 Z" stroke="#7cb5ec" stroke-width="2"></path><path fill="white" d="M 128 178.9 C 133.3 178.9 133.3 186.9 128 186.9 C 122.6 186.9 122.6 178.9 128 178.9 Z" stroke="#7cb5ec" stroke-width="2"></path><path fill="white" d="M 110 151.8 C 115.3 151.8 115.3 159.8 110 159.8 C 104.6 159.8 104.6 151.8 110 151.8 Z" stroke="#7cb5ec" stroke-width="2"></path><path fill="white" d="M 93 123.8 C 98.3 123.8 98.3 131.8 93 131.8 C 87.6 131.8 87.6 123.8 93 123.8 Z" stroke="#7cb5ec" stroke-width="2"></path><path fill="white" d="M 75 122.9 C 80.3 122.9 80.3 130.9 75 130.9 C 69.6 130.9 69.6 122.9 75 122.9 Z" stroke="#7cb5ec" stroke-width="2"></path><path fill="white" d="M 57 100.5 C 62.3 100.5 62.3 108.5 57 108.5 C 51.6 108.5 51.6 100.5 57 100.5 Z" stroke="#7cb5ec" stroke-width="2"></path><path fill="white" d="M 40 108 C 45.3 108 45.3 116 40 116 C 34.6 116 34.6 108 40 108 Z" stroke="#7cb5ec" stroke-width="2"></path><path fill="white" d="M 22 116.3 C 27.3 116.3 27.3 124.3 22 124.3 C 16.6 124.3 16.6 116.3 22 116.3 Z" stroke="#7cb5ec" stroke-width="2"></path><path fill="white" d="M 5 122 C 10.3 122 10.3 130 5 130 C -0.3 130 -0.3 122 5 122 Z" stroke="#7cb5ec" stroke-width="2"></path></g></g><text x="292" text-anchor="middle" class="highcharts-title"  style="color:#333333;font-size:18px;fill:#333333;width:520px;" y="24"><tspan>July temperatures</tspan></text><g class="highcharts-legend"  transform="translate(235,360)"><g ><g><g class="highcharts-legend-item"  transform="translate(8,3)"><path fill="none" d="M 0 11 L 16 11" stroke="#7cb5ec" stroke-width="2"></path><path fill="white" d="M 8 7 C 13.3 7 13.3 15 8 15 C 2.6 15 2.6 7 8 7 Z" stroke="#7cb5ec" stroke-width="2"></path><text x="21" style="color:#333333;font-size:12px;font-weight:bold;cursor:pointer;fill:#333333;" text-anchor="start"  y="15">Temperature</text></g></g></g></g><g class="highcharts-axis-labels highcharts-xaxis-labels" ><text x="130.0" style="color:#606060;cursor:default;font-size:11px;fill:#606060;width:131px;text-overflow:clip;" text-anchor="middle" transform="translate(0,0)" y="346" opacity="1"><tspan>6. Jul</tspan></text><text x="252.8" style="color:#606060;cursor:default;font-size:11px;fill:#606060;width:131px;text-overflow:clip;" text-anchor="middle" transform="translate(0,0)" y="346" opacity="1"><tspan>13. Jul</tspan></text><text x="375.6" style="color:#606060;cursor:default;font-size:11px;fill:#606060;width:131px;text-overflow:clip;" text-anchor="middle" transform="translate(0,0)" y="346" opacity="1"><tspan>20. Jul</tspan></text><text x="498.5" style="color:#606060;cursor:default;font-size:11px;fill:#606060;width:131px;text-overflow:clip;" text-anchor="middle" transform="translate(0,0)" y="346" opacity="1"><tspan>27. Jul</tspan></text></g><g class="highcharts-axis-labels highcharts-yaxis-labels" ><text x="22" style="color:#606060;cursor:default;font-size:11px;fill:#606060;width:183px;text-overflow:clip;" text-anchor="end" transform="translate(0,0)" y="332" opacity="1">5</text><text x="22" style="color:#606060;cursor:default;font-size:11px;fill:#606060;width:183px;text-overflow:clip;" text-anchor="end" transform="translate(0,0)" y="285" opacity="1">10</text><text x="22" style="color:#606060;cursor:default;font-size:11px;fill:#606060;width:183px;text-overflow:clip;" text-anchor="end" transform="translate(0,0)" y="238" opacity="1">15</text><text x="22" style="color:#606060;cursor:default;font-size:11px;fill:#606060;width:183px;text-overflow:clip;" text-anchor="end" transform="translate(0,0)" y="192" opacity="1">20</text><text x="22" style="color:#606060;cursor:default;font-size:11px;fill:#606060;width:183px;text-overflow:clip;" text-anchor="end" transform="translate(0,0)" y="145" opacity="1">25</text><text x="22" style="color:#606060;cursor:default;font-size:11px;fill:#606060;width:183px;text-overflow:clip;" text-anchor="end" transform="translate(0,0)" y="98" opacity="1">30</text><text x="22" style="color:#606060;cursor:default;font-size:11px;fill:#606060;width:183px;text-overflow:clip;" text-anchor="end" transform="translate(0,0)" y="52" opacity="1">35</text></g><g class="highcharts-tooltip"  style="cursor:default;padding:0;white-space:nowrap;" transform="translate(0,-9999)"><path fill="none" d="M 3 0 L 13 0 C 16 0 16 0 16 3 L 16 13 C 16 16 16 16 13 16 L 3 16 C 0 16 0 16 0 13 L 0 3 C 0 0 0 0 3 0"  stroke="black" stroke-opacity="0.0" stroke-width="5" transform="translate(1, 1)"></path><path fill="none" d="M 3 0 L 13 0 C 16 0 16 0 16 3 L 16 13 C 16 16 16 16 13 16 L 3 16 C 0 16 0 16 0 13 L 0 3 C 0 0 0 0 3 0"  stroke="black" stroke-opacity="0.0" stroke-width="3" transform="translate(1, 1)"></path><path fill="none" d="M 3 0 L 13 0 C 16 0 16 0 16 3 L 16 13 C 16 16 16 16 13 16 L 3 16 C 0 16 0 16 0 13 L 0 3 C 0 0 0 0 3 0"  stroke="black" stroke-opacity="0.1" stroke-width="1" transform="translate(1, 1)"></path><path fill="rgb(249, 249, 249)" fill-opacity=" .85" d="M 3 0 L 13 0 C 16 0 16 0 16 3 L 16 13 C 16 16 16 16 13 16 L 3 16 C 0 16 0 16 0 13 L 0 3 C 0 0 0 0 3 0"></path><text x="8"  style="font-size:12px;color:#333333;fill:#333333;" transform="translate(0,20)"></text></g></svg>