<svg version="1.1" style="font-family:&quot;lucida grande&quot;, &quot;lucida sans unicode&quot;, arial, helvetica, sans-serif;font-size:12px;" xmlns="http://www.w3.org/2000/svg" width="584" height="400" viewBox="0 0 584 400"><desc>Created with Highcharts 4.1.4</desc><defs><clipPath id="highcharts-1"><rect x="0" y="0" width="509" height="266"></rect></clipPath><clipPath id="highcharts-2"><rect x="-99" y="-61" width="608" height="400"></rect></clipPath><clipPath id="highcharts-3"><rect x="0" y="0" width="509" height="266"></rect></clipPath></defs><rect x="0" y="0" width="584" height="400" strokeWidth="0" fill="#FFFFFF" class=" highcharts-background" stroke="transparent"></rect><g class="highcharts-grid" ></g><g class="highcharts-grid" ><path fill="none" d="M 65 327.5 L 574 327.5" stroke="#D8D8D8" stroke-width="1"  opacity="1"></path><path fill="none" d="M 65 261.5 L 574 261.5" stroke="#D8D8D8" stroke-width="1"  opacity="1"></path><path fill="none" d="M 65 194.5 L 574 194.5" stroke="#D8D8D8" stroke-width="1"  opacity="1"></path><path fill="none" d="M 65 128.5 L 574 128.5" stroke="#D8D8D8" stroke-width="1"  opacity="1"></path><path fill="none" d="M 65 60.5 L 574 60.5" stroke="#D8D8D8" stroke-width="1"  opacity="1"></path></g><g class="highcharts-axis" ><path fill="none" d="M 100.5 327 L 100.5 337" stroke="#C0D0E0" stroke-width="1" opacity="1"></path><path fill="none" d="M 173.5 327 L 173.5 337" stroke="#C0D0E0" stroke-width="1" opacity="1"></path><path fill="none" d="M 246.5 327 L 246.5 337" stroke="#C0D0E0" stroke-width="1" opacity="1"></path><path fill="none" d="M 319.5 327 L 319.5 337" stroke="#C0D0E0" stroke-width="1" opacity="1"></path><path fill="none" d="M 391.5 327 L 391.5 337" stroke="#C0D0E0" stroke-width="1" opacity="1"></path><path fill="none" d="M 464.5 327 L 464.5 337" stroke="#C0D0E0" stroke-width="1" opacity="1"></path><path fill="none" d="M 537.5 327 L 537.5 337" stroke="#C0D0E0" stroke-width="1" opacity="1"></path><path fill="none" d="M 65 327.5 L 574 327.5" stroke="#C0D0E0" stroke-width="1"  visibility="visible"></path></g><g class="highcharts-axis" ><text x="24"  text-anchor="middle" transform="translate(0,0) rotate(270 24 194)" class=" highcharts-yaxis-title" style="color:#707070;fill:#707070;" visibility="visible" y="194">Billions</text></g><g class="highcharts-series-group" ><g class="highcharts-series" visibility="visible"  transform="translate(65,61) scale(1 1)" clip-path="url(#highcharts-3)"><path fill="rgb(124,181,236)" fill-opacity="0.7" d="M 36.3 244.9 L 109.0 239.9 L 181.7 232.6 L 254.4 222.1 L 327.2 198.9 L 399.9 106.9 L 472.6 29.0 472.6 169.1 399.9 203.6 327.2 236.2 254.4 247.3 181.7 254.2 109.0 256.8 36.3 258.3" ></path><path fill="none" d="M 36.3 244.9 L 109.0 239.9 L 181.7 232.6 L 254.4 222.1 L 327.2 198.9 L 399.9 106.9 L 472.6 29.0" stroke="#666666" stroke-width="1"  stroke-linejoin="round" stroke-linecap="round"></path><path fill="none" d="M 26.3 244.9 L 36.3 244.9 L 109.0 239.9 L 181.7 232.6 L 254.4 222.1 L 327.2 198.9 L 399.9 106.9 L 472.6 29.0 L 482.6 29.0" stroke-linejoin="round" visibility="visible" stroke="rgb(192,192,192)" stroke-opacity="0.0" stroke-width="21"  class=" highcharts-tracker" style=""></path></g><g class="highcharts-markers highcharts-tracker" visibility="visible"  transform="translate(65,61) scale(1 1)" clip-path="url(#highcharts-2)" style=""><path fill="#7cb5ec" d="M 472 25.0 C 477.3 25.0 477.3 33.0 472 33.0 C 466.6 33.0 466.6 25.0 472 25.0 Z" stroke="#666666" stroke-width="1"></path><path fill="#7cb5ec" d="M 399 102.9 C 404.3 102.9 404.3 110.9 399 110.9 C 393.6 110.9 393.6 102.9 399 102.9 Z" stroke="#666666" stroke-width="1"></path><path fill="#7cb5ec" d="M 327 194.9 C 332.3 194.9 332.3 202.9 327 202.9 C 321.6 202.9 321.6 194.9 327 194.9 Z" stroke="#666666" stroke-width="1"></path><path fill="#7cb5ec" d="M 254 218.1 C 259.3 218.1 259.3 226.1 254 226.1 C 248.6 226.1 248.6 218.1 254 218.1 Z" stroke="#666666" stroke-width="1"></path><path fill="#7cb5ec" d="M 181 228.6 C 186.3 228.6 186.3 236.6 181 236.6 C 175.6 236.6 175.6 228.6 181 228.6 Z" stroke="#666666" stroke-width="1"></path><path fill="#7cb5ec" d="M 109 235.9 C 114.3 235.9 114.3 243.9 109 243.9 C 103.6 243.9 103.6 235.9 109 235.9 Z" stroke="#666666" stroke-width="1"></path><path fill="#7cb5ec" d="M 36 240.9 C 41.3 240.9 41.3 248.9 36 248.9 C 30.6 248.9 30.6 240.9 36 240.9 Z" stroke="#666666" stroke-width="1"></path></g><g class="highcharts-series" visibility="visible"  transform="translate(65,61) scale(1 1)" clip-path="url(#highcharts-3)"><path fill="rgb(67,67,72)" fill-opacity="0.7" d="M 36.3 258.3 L 109.0 256.8 L 181.7 254.2 L 254.4 247.3 L 327.2 236.2 L 399.9 203.6 L 472.6 169.1 472.6 216.1 399.9 224.0 327.2 242.0 254.4 250.8 181.7 257.1 109.0 259.7 36.3 261.1" ></path><path fill="none" d="M 36.3 258.3 L 109.0 256.8 L 181.7 254.2 L 254.4 247.3 L 327.2 236.2 L 399.9 203.6 L 472.6 169.1" stroke="#666666" stroke-width="1"  stroke-linejoin="round" stroke-linecap="round"></path><path fill="none" d="M 26.3 258.3 L 36.3 258.3 L 109.0 256.8 L 181.7 254.2 L 254.4 247.3 L 327.2 236.2 L 399.9 203.6 L 472.6 169.1 L 482.6 169.1" stroke-linejoin="round" visibility="visible" stroke="rgb(192,192,192)" stroke-opacity="0.0" stroke-width="21"  class=" highcharts-tracker" style=""></path></g><g class="highcharts-markers highcharts-tracker" visibility="visible"  transform="translate(65,61) scale(1 1)" clip-path="url(#highcharts-2)" style=""><path fill="#434348" d="M 472 165.1 L 476 169.1 472 173.1 468 169.1 Z" stroke="#666666" stroke-width="1"></path><path fill="#434348" d="M 399 199.6 L 403 203.6 399 207.6 395 203.6 Z" stroke="#666666" stroke-width="1"></path><path fill="#434348" d="M 327 232.2 L 331 236.2 327 240.2 323 236.2 Z" stroke="#666666" stroke-width="1"></path><path fill="#434348" d="M 254 243.3 L 258 247.3 254 251.3 250 247.3 Z" stroke="#666666" stroke-width="1"></path><path fill="#434348" d="M 181 250.2 L 185 254.2 181 258.2 177 254.2 Z" stroke="#666666" stroke-width="1"></path><path fill="#434348" d="M 109 252.8 L 113 256.8 109 260.8 105 256.8 Z" stroke="#666666" stroke-width="1"></path><path fill="#434348" d="M 36 254.3 L 40 258.3 36 262.3 32 258.3 Z" stroke="#666666" stroke-width="1"></path></g><g class="highcharts-series" visibility="visible"  transform="translate(65,61) scale(1 1)" clip-path="url(#highcharts-3)"><path fill="rgb(144,237,125)" fill-opacity="0.7" d="M 36.3 261.1 L 109.0 259.7 L 181.7 257.1 L 254.4 250.8 L 327.2 242.0 L 399.9 224.0 L 472.6 216.1 472.6 232.8 399.9 243.4 327.2 256.6 254.4 261.6 181.7 264.5 109.0 265.1 36.3 265.4" ></path><path fill="none" d="M 36.3 261.1 L 109.0 259.7 L 181.7 257.1 L 254.4 250.8 L 327.2 242.0 L 399.9 224.0 L 472.6 216.1" stroke="#666666" stroke-width="1"  stroke-linejoin="round" stroke-linecap="round"></path><path fill="none" d="M 26.3 261.1 L 36.3 261.1 L 109.0 259.7 L 181.7 257.1 L 254.4 250.8 L 327.2 242.0 L 399.9 224.0 L 472.6 216.1 L 482.6 216.1" stroke-linejoin="round" visibility="visible" stroke="rgb(192,192,192)" stroke-opacity="0.0" stroke-width="21"  class=" highcharts-tracker" style=""></path></g><g class="highcharts-markers highcharts-tracker" visibility="visible"  transform="translate(65,61) scale(1 1)" clip-path="url(#highcharts-2)" style=""><path fill="#90ed7d" d="M 468 212.1 L 476 212.1 476 220.1 468 220.1 Z" stroke="#666666" stroke-width="1"></path><path fill="#90ed7d" d="M 395 220.0 L 403 220.0 403 228.0 395 228.0 Z" stroke="#666666" stroke-width="1"></path><path fill="#90ed7d" d="M 323 238.0 L 331 238.0 331 246.0 323 246.0 Z" stroke="#666666" stroke-width="1"></path><path fill="#90ed7d" d="M 250 246.8 L 258 246.8 258 254.8 250 254.8 Z" stroke="#666666" stroke-width="1"></path><path fill="#90ed7d" d="M 177 253.1 L 185 253.1 185 261.1 177 261.1 Z" stroke="#666666" stroke-width="1"></path><path fill="#90ed7d" d="M 105 255.7 L 113 255.7 113 263.7 105 263.7 Z" stroke="#666666" stroke-width="1"></path><path fill="#90ed7d" d="M 32 257.1 L 40 257.1 40 265.1 32 265.1 Z" stroke="#666666" stroke-width="1"></path></g><g class="highcharts-series" visibility="visible"  transform="translate(65,61) scale(1 1)" clip-path="url(#highcharts-3)"><path fill="rgb(247,163,92)" fill-opacity="0.7" d="M 36.3 265.4 L 109.0 265.1 L 181.7 264.5 L 254.4 261.6 L 327.2 256.6 L 399.9 243.4 L 472.6 232.8 472.6 264.7 399.9 265.2 327.2 265.6 254.4 265.8 181.7 265.9 109.0 265.9 36.3 265.9" ></path><path fill="none" d="M 36.3 265.4 L 109.0 265.1 L 181.7 264.5 L 254.4 261.6 L 327.2 256.6 L 399.9 243.4 L 472.6 232.8" stroke="#666666" stroke-width="1"  stroke-linejoin="round" stroke-linecap="round"></path><path fill="none" d="M 26.3 265.4 L 36.3 265.4 L 109.0 265.1 L 181.7 264.5 L 254.4 261.6 L 327.2 256.6 L 399.9 243.4 L 472.6 232.8 L 482.6 232.8" stroke-linejoin="round" visibility="visible" stroke="rgb(192,192,192)" stroke-opacity="0.0" stroke-width="21"  class=" highcharts-tracker" style=""></path></g><g class="highcharts-markers highcharts-tracker" visibility="visible"  transform="translate(65,61) scale(1 1)" clip-path="url(#highcharts-2)" style=""><path fill="#f7a35c" d="M 472 228.8 L 476 236.8 468 236.8 Z" stroke="#666666" stroke-width="1"></path><path fill="#f7a35c" d="M 399 239.4 L 403 247.4 395 247.4 Z" stroke="#666666" stroke-width="1"></path><path fill="#f7a35c" d="M 327 252.6 L 331 260.6 323 260.6 Z" stroke="#666666" stroke-width="1"></path><path fill="#f7a35c" d="M 254 257.6 L 258 265.6 250 265.6 Z" stroke="#666666" stroke-width="1"></path><path fill="#f7a35c" d="M 181 260.5 L 185 268.5 177 268.5 Z" stroke="#666666" stroke-width="1"></path><path fill="#f7a35c" d="M 109 261.1 L 113 269.1 105 269.1 Z" stroke="#666666" stroke-width="1"></path><path fill="#f7a35c" d="M 36 261.4 L 40 269.4 32 269.4 Z" stroke="#666666" stroke-width="1"></path></g><g class="highcharts-series" visibility="visible"  transform="translate(65,61) scale(1 1)" clip-path="url(#highcharts-3)"><path fill="rgb(128,133,233)" fill-opacity="0.7" d="M 36.3 265.9 L 109.0 265.9 L 181.7 265.9 L 254.4 265.8 L 327.2 265.6 L 399.9 265.2 L 472.6 264.7 472.6 266 399.9 266 327.2 266 254.4 266 181.7 266 109.0 266 36.3 266" ></path><path fill="none" d="M 36.3 265.9 L 109.0 265.9 L 181.7 265.9 L 254.4 265.8 L 327.2 265.6 L 399.9 265.2 L 472.6 264.7" stroke="#666666" stroke-width="1"  stroke-linejoin="round" stroke-linecap="round"></path><path fill="none" d="M 26.3 265.9 L 36.3 265.9 L 109.0 265.9 L 181.7 265.9 L 254.4 265.8 L 327.2 265.6 L 399.9 265.2 L 472.6 264.7 L 482.6 264.7" stroke-linejoin="round" visibility="visible" stroke="rgb(192,192,192)" stroke-opacity="0.0" stroke-width="21"  class=" highcharts-tracker" style=""></path></g><g class="highcharts-markers highcharts-tracker" visibility="visible"  transform="translate(65,61) scale(1 1)" clip-path="url(#highcharts-2)" style=""><path fill="#8085e9" d="M 468 260.7 L 476 260.7 472 268.7 Z" stroke="#666666" stroke-width="1"></path><path fill="#8085e9" d="M 395 261.2 L 403 261.2 399 269.2 Z" stroke="#666666" stroke-width="1"></path><path fill="#8085e9" d="M 323 261.6 L 331 261.6 327 269.6 Z" stroke="#666666" stroke-width="1"></path><path fill="#8085e9" d="M 250 261.8 L 258 261.8 254 269.8 Z" stroke="#666666" stroke-width="1"></path><path fill="#8085e9" d="M 177 261.9 L 185 261.9 181 269.9 Z" stroke="#666666" stroke-width="1"></path><path fill="#8085e9" d="M 105 261.9 L 113 261.9 109 269.9 Z" stroke="#666666" stroke-width="1"></path><path fill="#8085e9" d="M 32 261.9 L 40 261.9 36 269.9 Z" stroke="#666666" stroke-width="1"></path></g></g><text x="292" text-anchor="middle" class="highcharts-title"  style="color:#333333;font-size:18px;fill:#333333;width:520px;" y="24"><tspan>Historic and Estimated Worldwide Population Growth by Region</tspan></text><text x="292" text-anchor="middle" class="highcharts-subtitle"  style="color:#555555;fill:#555555;width:520px;" y="46"><tspan>Source: Wikipedia.org</tspan></text><g class="highcharts-legend"  transform="translate(93,360)"><g ><g><g class="highcharts-legend-item"  transform="translate(8,3)"><text x="21" style="color:#333333;font-size:12px;font-weight:bold;cursor:pointer;fill:#333333;" text-anchor="start"  y="15">Asia</text><rect x="0" y="4" width="16" height="12"  fill="#7cb5ec"></rect></g><g class="highcharts-legend-item"  transform="translate(74,3)"><text x="21" y="15" style="color:#333333;font-size:12px;font-weight:bold;cursor:pointer;fill:#333333;" text-anchor="start" >Africa</text><rect x="0" y="4" width="16" height="12"  fill="#434348"></rect></g><g class="highcharts-legend-item"  transform="translate(150,3)"><text x="21" y="15" style="color:#333333;font-size:12px;font-weight:bold;cursor:pointer;fill:#333333;" text-anchor="start" >Europe</text><rect x="0" y="4" width="16" height="12"  fill="#90ed7d"></rect></g><g class="highcharts-legend-item"  transform="translate(234,3)"><text x="21" y="15" style="color:#333333;font-size:12px;font-weight:bold;cursor:pointer;fill:#333333;" text-anchor="start" >America</text><rect x="0" y="4" width="16" height="12"  fill="#f7a35c"></rect></g><g class="highcharts-legend-item"  transform="translate(323,3)"><text x="21" y="15" style="color:#333333;font-size:12px;font-weight:bold;cursor:pointer;fill:#333333;" text-anchor="start" >Oceania</text><rect x="0" y="4" width="16" height="12"  fill="#8085e9"></rect></g></g></g></g><g class="highcharts-axis-labels highcharts-xaxis-labels" ><text x="101.3" style="color:#606060;cursor:default;font-size:11px;fill:#606060;width:71px;text-overflow:clip;" text-anchor="middle" transform="translate(0,0)" y="346" opacity="1">1750</text><text x="174.0" style="color:#606060;cursor:default;font-size:11px;fill:#606060;width:71px;text-overflow:clip;" text-anchor="middle" transform="translate(0,0)" y="346" opacity="1">1800</text><text x="246.7" style="color:#606060;cursor:default;font-size:11px;fill:#606060;width:71px;text-overflow:clip;" text-anchor="middle" transform="translate(0,0)" y="346" opacity="1">1850</text><text x="319.5" style="color:#606060;cursor:default;font-size:11px;fill:#606060;width:71px;text-overflow:clip;" text-anchor="middle" transform="translate(0,0)" y="346" opacity="1">1900</text><text x="392.2" style="color:#606060;cursor:default;font-size:11px;fill:#606060;width:71px;text-overflow:clip;" text-anchor="middle" transform="translate(0,0)" y="346" opacity="1">1950</text><text x="464.9" style="color:#606060;cursor:default;font-size:11px;fill:#606060;width:71px;text-overflow:clip;" text-anchor="middle" transform="translate(0,0)" y="346" opacity="1">1999</text><text x="537.6" style="color:#606060;cursor:default;font-size:11px;fill:#606060;width:71px;text-overflow:clip;" text-anchor="middle" transform="translate(0,0)" y="346" opacity="1">2050</text></g><g class="highcharts-axis-labels highcharts-yaxis-labels" ><text x="50" style="color:#606060;cursor:default;font-size:11px;fill:#606060;width:183px;text-overflow:clip;" text-anchor="end" transform="translate(0,0)" y="332" opacity="1">0</text><text x="50" style="color:#606060;cursor:default;font-size:11px;fill:#606060;width:183px;text-overflow:clip;" text-anchor="end" transform="translate(0,0)" y="265" opacity="1">2.5</text><text x="50" style="color:#606060;cursor:default;font-size:11px;fill:#606060;width:183px;text-overflow:clip;" text-anchor="end" transform="translate(0,0)" y="199" opacity="1">5</text><text x="50" style="color:#606060;cursor:default;font-size:11px;fill:#606060;width:183px;text-overflow:clip;" text-anchor="end" transform="translate(0,0)" y="132" opacity="1">7.5</text><text x="50" style="color:#606060;cursor:default;font-size:11px;fill:#606060;width:183px;text-overflow:clip;" text-anchor="end" transform="translate(0,0)" y="66" opacity="1">10</text></g><g class="highcharts-tooltip"  style="cursor:default;padding:0;white-space:nowrap;" transform="translate(0,-9999)"><path fill="none" d="M 3 0 L 13 0 C 16 0 16 0 16 3 L 16 13 C 16 16 16 16 13 16 L 3 16 C 0 16 0 16 0 13 L 0 3 C 0 0 0 0 3 0"  stroke="black" stroke-opacity="0.0" stroke-width="5" transform="translate(1, 1)"></path><path fill="none" d="M 3 0 L 13 0 C 16 0 16 0 16 3 L 16 13 C 16 16 16 16 13 16 L 3 16 C 0 16 0 16 0 13 L 0 3 C 0 0 0 0 3 0"  stroke="black" stroke-opacity="0.0" stroke-width="3" transform="translate(1, 1)"></path><path fill="none" d="M 3 0 L 13 0 C 16 0 16 0 16 3 L 16 13 C 16 16 16 16 13 16 L 3 16 C 0 16 0 16 0 13 L 0 3 C 0 0 0 0 3 0"  stroke="black" stroke-opacity="0.1" stroke-width="1" transform="translate(1, 1)"></path><path fill="rgb(249, 249, 249)" fill-opacity=" .85" d="M 3 0 L 13 0 C 16 0 16 0 16 3 L 16 13 C 16 16 16 16 13 16 L 3 16 C 0 16 0 16 0 13 L 0 3 C 0 0 0 0 3 0"></path><text x="8"  style="font-size:12px;color:#333333;fill:#333333;" transform="translate(0,20)"></text></g></svg>