<svg version="1.1" style="font-family:&quot;lucida grande&quot;, &quot;lucida sans unicode&quot;, arial, helvetica, sans-serif;font-size:12px;" xmlns="http://www.w3.org/2000/svg" width="584" height="400" viewBox="0 0 584 400"><desc>Created with Highcharts 4.1.4</desc><defs><clipPath id="highcharts-1"><rect x="0" y="0" width="519" height="302"></rect></clipPath><clipPath id="highcharts-2"><rect x="-99" y="-47" width="618" height="400"></rect></clipPath><clipPath id="highcharts-3"><rect x="0" y="0" width="519" height="302"></rect></clipPath></defs><rect x="0" y="0" width="584" height="400" strokeWidth="0" fill="#FFFFFF" class=" highcharts-background" stroke="transparent"></rect><g class="highcharts-grid" ></g><g class="highcharts-grid" ><path fill="none" d="M 55 349.5 L 574 349.5" stroke="#D8D8D8" stroke-width="1"  opacity="1"></path><path fill="none" d="M 55 274.5 L 574 274.5" stroke="#D8D8D8" stroke-width="1"  opacity="1"></path><path fill="none" d="M 55 198.5 L 574 198.5" stroke="#D8D8D8" stroke-width="1"  opacity="1"></path><path fill="none" d="M 55 123.5 L 574 123.5" stroke="#D8D8D8" stroke-width="1"  opacity="1"></path><path fill="none" d="M 55 46.5 L 574 46.5" stroke="#D8D8D8" stroke-width="1"  opacity="1"></path></g><g class="highcharts-axis" ><path fill="none" d="M 119.5 349 L 119.5 359" stroke="#C0D0E0" stroke-width="1" opacity="1"></path><path fill="none" d="M 184.5 349 L 184.5 359" stroke="#C0D0E0" stroke-width="1" opacity="1"></path><path fill="none" d="M 249.5 349 L 249.5 359" stroke="#C0D0E0" stroke-width="1" opacity="1"></path><path fill="none" d="M 314.5 349 L 314.5 359" stroke="#C0D0E0" stroke-width="1" opacity="1"></path><path fill="none" d="M 378.5 349 L 378.5 359" stroke="#C0D0E0" stroke-width="1" opacity="1"></path><path fill="none" d="M 443.5 349 L 443.5 359" stroke="#C0D0E0" stroke-width="1" opacity="1"></path><path fill="none" d="M 508.5 349 L 508.5 359" stroke="#C0D0E0" stroke-width="1" opacity="1"></path><path fill="none" d="M 574.5 349 L 574.5 359" stroke="#C0D0E0" stroke-width="1" opacity="1"></path><path fill="none" d="M 54.5 349 L 54.5 359" stroke="#C0D0E0" stroke-width="1" opacity="1"></path><path fill="none" d="M 55 349.5 L 574 349.5" stroke="#C0D0E0" stroke-width="1"  visibility="visible"></path></g><g class="highcharts-axis" ><text x="24"  text-anchor="middle" transform="translate(0,0) rotate(270 24 198)" class=" highcharts-yaxis-title" style="color:#707070;fill:#707070;" visibility="visible" y="198">Y-Axis</text></g><g class="highcharts-series-group" ><g class="highcharts-series" visibility="visible"  transform="translate(55,47) scale(1 1)" clip-path="url(#highcharts-3)"><path fill="rgb(124,181,236)" fill-opacity="0.5" d="M 32.4 302 L 97.3 264.2 L 162.1 151 L 227.0 151 L 291.9 113.2 L 356.8 226.5 L 421.6 188.7 L 486.5 37.7 L 486.5 302 L 32.4 302" ></path><path fill="none" d="M 32.4 302 L 97.3 264.2 L 162.1 151 L 227.0 151 L 291.9 113.2 L 356.8 226.5 L 421.6 188.7 L 486.5 37.7" stroke="#7cb5ec" stroke-width="2"  stroke-linejoin="round" stroke-linecap="round"></path><path fill="none" d="M 22.4 302 L 32.4 302 L 97.3 264.2 L 162.1 151 L 227.0 151 L 291.9 113.2 L 356.8 226.5 L 421.6 188.7 L 486.5 37.7 L 496.5 37.7" stroke-linejoin="round" visibility="visible" stroke="rgb(192,192,192)" stroke-opacity="0.0" stroke-width="22"  class=" highcharts-tracker" style=""></path></g><g class="highcharts-markers highcharts-tracker" visibility="visible"  transform="translate(55,47) scale(1 1)" clip-path="url(#highcharts-2)" style=""><path fill="#7cb5ec" d="M 486 33.7 C 491.3 33.7 491.3 41.7 486 41.7 C 480.6 41.7 480.6 33.7 486 33.7 Z"></path><path fill="#7cb5ec" d="M 421 184.7 C 426.3 184.7 426.3 192.7 421 192.7 C 415.6 192.7 415.6 184.7 421 184.7 Z"></path><path fill="#7cb5ec" d="M 356 222.5 C 361.3 222.5 361.3 230.5 356 230.5 C 350.6 230.5 350.6 222.5 356 222.5 Z"></path><path fill="#7cb5ec" d="M 291 109.2 C 296.3 109.2 296.3 117.2 291 117.2 C 285.6 117.2 285.6 109.2 291 109.2 Z"></path><path fill="#7cb5ec" d="M 227 147 C 232.3 147 232.3 155 227 155 C 221.6 155 221.6 147 227 147 Z"></path><path fill="#7cb5ec" d="M 162 147 C 167.3 147 167.3 155 162 155 C 156.6 155 156.6 147 162 147 Z"></path><path fill="#7cb5ec" d="M 97 260.2 C 102.3 260.2 102.3 268.2 97 268.2 C 91.6 268.2 91.6 260.2 97 260.2 Z"></path><path fill="#7cb5ec" d="M 32 298 C 37.3 298 37.3 306 32 306 C 26.6 306 26.6 298 32 298 Z"></path></g><g class="highcharts-series" visibility="visible"  transform="translate(55,47) scale(1 1)" clip-path="url(#highcharts-3)"><path fill="rgb(67,67,72)" fill-opacity="0.5" d="M 32.4 264.2 L 97.3 302 L 162.1 188.7 L 162.1 302 L 32.4 302 M 291.9 188.7 L 356.8 264.2 L 421.6 226.5 L 486.5 264.2 L 486.5 302 L 291.9 302" ></path><path fill="none" d="M 32.4 264.2 L 97.3 302 L 162.1 188.7 M 291.9 188.7 L 356.8 264.2 L 421.6 226.5 L 486.5 264.2" stroke="#434348" stroke-width="2"  stroke-linejoin="round" stroke-linecap="round"></path><path fill="none" d="M 22.4 264.2 L 32.4 264.2 L 97.3 302 L 162.1 188.7 L 172.1 188.7 M 281.9 188.7 L 291.9 188.7 L 356.8 264.2 L 421.6 226.5 L 486.5 264.2 L 496.5 264.2" stroke-linejoin="round" visibility="visible" stroke="rgb(192,192,192)" stroke-opacity="0.0" stroke-width="22"  class=" highcharts-tracker" style=""></path></g><g class="highcharts-markers highcharts-tracker" visibility="visible"  transform="translate(55,47) scale(1 1)" clip-path="url(#highcharts-2)" style=""><path fill="#434348" d="M 486 260.2 L 490 264.2 486 268.2 482 264.2 Z"></path><path fill="#434348" d="M 421 222.5 L 425 226.5 421 230.5 417 226.5 Z"></path><path fill="#434348" d="M 356 260.2 L 360 264.2 356 268.2 352 264.2 Z"></path><path fill="#434348" d="M 291 184.7 L 295 188.7 291 192.7 287 188.7 Z"></path><path fill="#434348" d="M 162 184.7 L 166 188.7 162 192.7 158 188.7 Z"></path><path fill="#434348" d="M 97 298 L 101 302 97 306 93 302 Z"></path><path fill="#434348" d="M 32 260.2 L 36 264.2 32 268.2 28 264.2 Z"></path></g></g><text x="292" text-anchor="middle" class="highcharts-title"  style="color:#333333;font-size:18px;fill:#333333;width:520px;" y="24"><tspan>Fruit consumption *</tspan></text><text x="574" text-anchor="end" class="highcharts-subtitle"  style="color:#555555;fill:#555555;width:520px;" y="385"><tspan>* Jane's banana consumption is unknown</tspan></text><g class="highcharts-legend"  transform="translate(160,110)"><rect x="0.5" y="0.5" width="66" height="38" strokeWidth="1" stroke="#909090" stroke-width="1" fill="#FFFFFF" visibility="visible"></rect><g ><g><g class="highcharts-legend-item"  transform="translate(8,3)"><text x="21" style="color:#333333;font-size:12px;font-weight:bold;cursor:pointer;fill:#333333;" text-anchor="start"  y="15">John</text><rect x="0" y="4" width="16" height="12"  fill="#7cb5ec"></rect></g><g class="highcharts-legend-item"  transform="translate(8,17)"><text x="21" y="15" style="color:#333333;font-size:12px;font-weight:bold;cursor:pointer;fill:#333333;" text-anchor="start" >Jane</text><rect x="0" y="4" width="16" height="12"  fill="#434348"></rect></g></g></g></g><g class="highcharts-axis-labels highcharts-xaxis-labels" ><text x="87.4" style="color:#606060;cursor:default;font-size:11px;fill:#606060;" text-anchor="middle" transform="translate(0,0)" y="368" opacity="1">Apples</text><text x="152.3" style="color:#606060;cursor:default;font-size:11px;fill:#606060;" text-anchor="middle" transform="translate(0,0)" y="368" opacity="1">Pears</text><text x="217.1" style="color:#606060;cursor:default;font-size:11px;fill:#606060;" text-anchor="middle" transform="translate(0,0)" y="368" opacity="1">Oranges</text><text x="282.0" style="color:#606060;cursor:default;font-size:11px;fill:#606060;" text-anchor="middle" transform="translate(0,0)" y="368" opacity="1">Bananas</text><text x="346.9" style="color:#606060;cursor:default;font-size:11px;fill:#606060;" text-anchor="middle" transform="translate(0,0)" y="368" opacity="1">Grapes</text><text x="411.8" style="color:#606060;cursor:default;font-size:11px;fill:#606060;" text-anchor="middle" transform="translate(0,0)" y="368" opacity="1">Plums</text><text x="476.6" style="color:#606060;cursor:default;font-size:11px;fill:#606060;" text-anchor="middle" transform="translate(0,0)" y="368" opacity="1">Strawberries</text><text x="541.5" style="color:#606060;cursor:default;font-size:11px;fill:#606060;" text-anchor="middle" transform="translate(0,0)" y="368" opacity="1">Raspberries</text></g><g class="highcharts-axis-labels highcharts-yaxis-labels" ><text x="40" style="color:#606060;cursor:default;font-size:11px;fill:#606060;width:183px;text-overflow:clip;" text-anchor="end" transform="translate(0,0)" y="354" opacity="1">0</text><text x="40" style="color:#606060;cursor:default;font-size:11px;fill:#606060;width:183px;text-overflow:clip;" text-anchor="end" transform="translate(0,0)" y="278" opacity="1">2</text><text x="40" style="color:#606060;cursor:default;font-size:11px;fill:#606060;width:183px;text-overflow:clip;" text-anchor="end" transform="translate(0,0)" y="203" opacity="1">4</text><text x="40" style="color:#606060;cursor:default;font-size:11px;fill:#606060;width:183px;text-overflow:clip;" text-anchor="end" transform="translate(0,0)" y="127" opacity="1">6</text><text x="40" style="color:#606060;cursor:default;font-size:11px;fill:#606060;width:183px;text-overflow:clip;" text-anchor="end" transform="translate(0,0)" y="52" opacity="1">8</text></g><g class="highcharts-tooltip"  style="cursor:default;padding:0;white-space:nowrap;" transform="translate(0,-9999)"><path fill="none" d="M 3 0 L 13 0 C 16 0 16 0 16 3 L 16 13 C 16 16 16 16 13 16 L 3 16 C 0 16 0 16 0 13 L 0 3 C 0 0 0 0 3 0"  stroke="black" stroke-opacity="0.0" stroke-width="5" transform="translate(1, 1)"></path><path fill="none" d="M 3 0 L 13 0 C 16 0 16 0 16 3 L 16 13 C 16 16 16 16 13 16 L 3 16 C 0 16 0 16 0 13 L 0 3 C 0 0 0 0 3 0"  stroke="black" stroke-opacity="0.0" stroke-width="3" transform="translate(1, 1)"></path><path fill="none" d="M 3 0 L 13 0 C 16 0 16 0 16 3 L 16 13 C 16 16 16 16 13 16 L 3 16 C 0 16 0 16 0 13 L 0 3 C 0 0 0 0 3 0"  stroke="black" stroke-opacity="0.1" stroke-width="1" transform="translate(1, 1)"></path><path fill="rgb(249, 249, 249)" fill-opacity=" .85" d="M 3 0 L 13 0 C 16 0 16 0 16 3 L 16 13 C 16 16 16 16 13 16 L 3 16 C 0 16 0 16 0 13 L 0 3 C 0 0 0 0 3 0"></path><text x="8"  style="font-size:12px;color:#333333;fill:#333333;" transform="translate(0,20)"></text></g></svg>