<svg version="1.1" style="font-family:&quot;lucida grande&quot;, &quot;lucida sans unicode&quot;, arial, helvetica, sans-serif;font-size:12px;" xmlns="http://www.w3.org/2000/svg" width="300" height="300" viewBox="0 0 300 300"><desc>Created with Highcharts 4.1.4</desc><defs><clipPath id="highcharts-1"><rect x="0" y="0" width="280" height="238"></rect></clipPath><linearGradient x1="0" y1="0" x2="0" y2="1" id="highcharts-2"><stop offset="0" stop-color="#FFF" stop-opacity="1"></stop><stop offset="1" stop-color="#DDD" stop-opacity="1"></stop></linearGradient><radialGradient cx="0.5" cy="-0.4" r="1.9" id="highcharts-3"><stop offset="0.5" stop-color="rgb(255,255,255)" stop-opacity="0.2"></stop><stop offset="0.5" stop-color="rgb(200,200,200)" stop-opacity="0.2"></stop></radialGradient></defs><rect x="0" y="0" width="300" height="300" strokeWidth="0" fill="#FFFFFF" class=" highcharts-background" stroke="transparent"></rect><path fill="url(#highcharts-2)" d="M 150 59.7 A 106.2 106.2 0 1 1 149.8 59.7 M 150 166 A 0 0 0 1 0 150 166 " stroke="silver" stroke-width="1"></path><path fill="url(#highcharts-3)" d="M 150 59.7 A 106.2 106.2 0 1 1 149.8 59.7 M 150 166 A 0 0 0 1 0 150 166 " stroke="silver" stroke-width="1"></path><g class="highcharts-grid" ></g><g class="highcharts-axis" ><path fill="none" d="M 150 64.8 L 150 69.8" stroke="#666" stroke-width="1" opacity="1"></path><path fill="none" d="M 160.5 65.4 L 160.0 70.3" stroke="#666" stroke-width="1" opacity="1"></path><path fill="none" d="M 171.0 67.0 L 169.9 71.9" stroke="#666" stroke-width="1" opacity="1"></path><path fill="none" d="M 181.2 69.8 L 179.7 74.5" stroke="#666" stroke-width="1" opacity="1"></path><path fill="none" d="M 191.1 73.5 L 189.1 78.1" stroke="#666" stroke-width="1" opacity="1"></path><path fill="none" d="M 200.5 78.4 L 198.0 82.7" stroke="#666" stroke-width="1" opacity="1"></path><path fill="none" d="M 209.4 84.1 L 206.5 88.2" stroke="#666" stroke-width="1" opacity="1"></path><path fill="none" d="M 217.6 90.8 L 214.3 94.5" stroke="#666" stroke-width="1" opacity="1"></path><path fill="none" d="M 225.1 98.3 L 221.4 101.6" stroke="#666" stroke-width="1" opacity="1"></path><path fill="none" d="M 231.8 106.5 L 227.7 109.4" stroke="#666" stroke-width="1" opacity="1"></path><path fill="none" d="M 237.5 115.4 L 233.2 117.9" stroke="#666" stroke-width="1" opacity="1"></path><path fill="none" d="M 242.4 124.8 L 237.8 126.8" stroke="#666" stroke-width="1" opacity="1"></path><path fill="none" d="M 246.1 134.7 L 241.4 136.2" stroke="#666" stroke-width="1" opacity="1"></path><path fill="none" d="M 248.9 144.9 L 244.0 146.0" stroke="#666" stroke-width="1" opacity="1"></path><path fill="none" d="M 250.5 155.4 L 245.6 155.9" stroke="#666" stroke-width="1" opacity="1"></path><path fill="none" d="M 251.1 166.0 L 246.1 166.0" stroke="#666" stroke-width="1" opacity="1"></path><path fill="none" d="M 250.5 176.5 L 245.6 176.0" stroke="#666" stroke-width="1" opacity="1"></path><path fill="none" d="M 248.9 187.0 L 244.0 185.9" stroke="#666" stroke-width="1" opacity="1"></path><path fill="none" d="M 246.1 197.2 L 241.4 195.7" stroke="#666" stroke-width="1" opacity="1"></path><path fill="none" d="M 242.4 207.1 L 237.8 205.1" stroke="#666" stroke-width="1" opacity="1"></path><path fill="none" d="M 237.5 216.5 L 233.2 214.0" stroke="#666" stroke-width="1" opacity="1"></path><path fill="none" d="M 231.8 225.4 L 227.7 222.5" stroke="#666" stroke-width="1" opacity="1"></path><path fill="none" d="M 225.1 233.6 L 221.4 230.3" stroke="#666" stroke-width="1" opacity="1"></path><path fill="none" d="M 217.6 241.1 L 214.3 237.4" stroke="#666" stroke-width="1" opacity="1"></path><path fill="none" d="M 209.4 247.8 L 206.5 243.7" stroke="#666" stroke-width="1" opacity="1"></path><path fill="none" d="M 200.5 253.5 L 198.0 249.2" stroke="#666" stroke-width="1" opacity="1"></path><path fill="none" d="M 191.1 258.4 L 189.1 253.8" stroke="#666" stroke-width="1" opacity="1"></path><path fill="none" d="M 181.2 262.1 L 179.7 257.4" stroke="#666" stroke-width="1" opacity="1"></path><path fill="none" d="M 171.0 264.9 L 169.9 260.0" stroke="#666" stroke-width="1" opacity="1"></path><path fill="none" d="M 160.5 266.5 L 160.0 261.6" stroke="#666" stroke-width="1" opacity="1"></path><path fill="none" d="M 149.9 267.1 L 149.9 262.1" stroke="#666" stroke-width="1" opacity="1"></path><path fill="none" d="M 139.4 266.5 L 139.9 261.6" stroke="#666" stroke-width="1" opacity="1"></path><path fill="none" d="M 128.9 264.9 L 130.0 260.0" stroke="#666" stroke-width="1" opacity="1"></path><path fill="none" d="M 118.7 262.1 L 120.2 257.4" stroke="#666" stroke-width="1" opacity="1"></path><path fill="none" d="M 108.8 258.4 L 110.8 253.8" stroke="#666" stroke-width="1" opacity="1"></path><path fill="none" d="M 99.4 253.5 L 101.9 249.2" stroke="#666" stroke-width="1" opacity="1"></path><path fill="none" d="M 90.5 247.8 L 93.4 243.7" stroke="#666" stroke-width="1" opacity="1"></path><path fill="none" d="M 82.3 241.1 L 85.6 237.4" stroke="#666" stroke-width="1" opacity="1"></path><path fill="none" d="M 74.8 233.6 L 78.5 230.3" stroke="#666" stroke-width="1" opacity="1"></path><path fill="none" d="M 68.1 225.4 L 72.2 222.5" stroke="#666" stroke-width="1" opacity="1"></path><path fill="none" d="M 62.4 216.5 L 66.7 214.0" stroke="#666" stroke-width="1" opacity="1"></path><path fill="none" d="M 57.5 207.1 L 62.1 205.1" stroke="#666" stroke-width="1" opacity="1"></path><path fill="none" d="M 53.8 197.2 L 58.5 195.7" stroke="#666" stroke-width="1" opacity="1"></path><path fill="none" d="M 51.0 187.0 L 55.9 185.9" stroke="#666" stroke-width="1" opacity="1"></path><path fill="none" d="M 49.4 176.5 L 54.3 176.0" stroke="#666" stroke-width="1" opacity="1"></path><path fill="none" d="M 48.8 166 L 53.8 166" stroke="#666" stroke-width="1" opacity="1"></path><path fill="none" d="M 49.4 155.4 L 54.3 155.9" stroke="#666" stroke-width="1" opacity="1"></path><path fill="none" d="M 51.0 144.9 L 55.9 146.0" stroke="#666" stroke-width="1" opacity="1"></path><path fill="none" d="M 53.8 134.7 L 58.5 136.2" stroke="#666" stroke-width="1" opacity="1"></path><path fill="none" d="M 57.5 124.8 L 62.1 126.8" stroke="#666" stroke-width="1" opacity="1"></path><path fill="none" d="M 62.4 115.4 L 66.7 117.9" stroke="#666" stroke-width="1" opacity="1"></path><path fill="none" d="M 68.1 106.5 L 72.2 109.4" stroke="#666" stroke-width="1" opacity="1"></path><path fill="none" d="M 74.8 98.3 L 78.5 101.6" stroke="#666" stroke-width="1" opacity="1"></path><path fill="none" d="M 82.3 90.8 L 85.6 94.5" stroke="#666" stroke-width="1" opacity="1"></path><path fill="none" d="M 90.5 84.1 L 93.4 88.2" stroke="#666" stroke-width="1" opacity="1"></path><path fill="none" d="M 99.4 78.4 L 101.9 82.7" stroke="#666" stroke-width="1" opacity="1"></path><path fill="none" d="M 108.8 73.5 L 110.8 78.1" stroke="#666" stroke-width="1" opacity="1"></path><path fill="none" d="M 118.7 69.8 L 120.2 74.5" stroke="#666" stroke-width="1" opacity="1"></path><path fill="none" d="M 128.9 67.0 L 130.0 71.9" stroke="#666" stroke-width="1" opacity="1"></path><path fill="none" d="M 139.4 65.4 L 139.9 70.3" stroke="#666" stroke-width="1" opacity="1"></path><path fill="none" d="M 149.9 64.8 L 149.9 69.8" stroke="#666" stroke-width="1" opacity="1"></path><path fill="none" d="M 150 64.8 L 150 74.8" stroke="#666" stroke-width="2" opacity="1"></path><path fill="none" d="M 200.5 78.4 L 195.5 87.0" stroke="#666" stroke-width="2" opacity="1"></path><path fill="none" d="M 237.5 115.4 L 228.9 120.4" stroke="#666" stroke-width="2" opacity="1"></path><path fill="none" d="M 251.1 166 L 241.1 166" stroke="#666" stroke-width="2" opacity="1"></path><path fill="none" d="M 237.5 216.5 L 228.9 211.5" stroke="#666" stroke-width="2" opacity="1"></path><path fill="none" d="M 200.5 253.5 L 195.5 244.9" stroke="#666" stroke-width="2" opacity="1"></path><path fill="none" d="M 150 267.1 L 150 257.1" stroke="#666" stroke-width="2" opacity="1"></path><path fill="none" d="M 99.4 253.5 L 104.4 244.9" stroke="#666" stroke-width="2" opacity="1"></path><path fill="none" d="M 62.4 216.5 L 71.0 211.5" stroke="#666" stroke-width="2" opacity="1"></path><path fill="none" d="M 48.8 166 L 58.8 166" stroke="#666" stroke-width="2" opacity="1"></path><path fill="none" d="M 62.4 115.4 L 71.0 120.4" stroke="#666" stroke-width="2" opacity="1"></path><path fill="none" d="M 99.4 78.4 L 104.4 87.0" stroke="#666" stroke-width="2" opacity="1"></path><path fill="none" d="M 149.9 64.8 L 149.9 74.8" stroke="#666" stroke-width="2" opacity="1"></path><text x="150"  text-anchor="middle" transform="translate(0,0)" class=" highcharts-yaxis-title" style="color:#bbb;font-weight:normal;font-size:8px;line-height:10px;fill:#bbb;" visibility="visible" y="125.4"><tspan>Powered by</tspan><tspan x="150" dy="10">Highcharts</tspan></text></g><g class="highcharts-series-group" ><g class="highcharts-series highcharts-tracker" visibility="visible"  transform="translate(10,47) scale(1 1)" style="" clip-path="url(#highcharts-1)"><path fill="black" d="M 0 -2 L 57.6 -2 60.6 -0.5 60.6 0.5 57.6 2 0 2 z" transform="translate(140,119) rotate(324 0 0)"></path><path fill="black" d="M 0 -1.5 L 76.8 -1.5 80.9 -0.5 80.9 0.5 76.8 1.5 0 1.5 z" transform="translate(140,119) rotate(202.9 0 0)"></path><path fill="black" d="M -20.2 -0.5 L 70.8 -0.5 101.1 -0.5 101.1 0.5 70.8 0.5 -20.2 0.5 z" transform="translate(140,119) rotate(209.9 0 0)"></path><circle cx="0" cy="0" r="5" fill="black" transform="translate(140,119)"></circle></g><g class="highcharts-markers" visibility="visible"  transform="translate(10,47) scale(1 1)" clip-path="none"></g></g><text x="150" text-anchor="middle" class="highcharts-title"  style="color:#333333;font-size:18px;fill:#333333;width:236px;" y="24"><tspan>The Highcharts clock</tspan></text><g class="highcharts-legend" ><g ><g></g></g></g><g class="highcharts-axis-labels highcharts-yaxis-labels" ><text x="0" style="color:#606060;cursor:default;font-size:11px;fill:#606060;width:89px;text-overflow:clip;" text-anchor="middle" transform="translate(0,0)" y="-9999">0</text><text x="190.5" style="color:#606060;cursor:default;font-size:11px;fill:#606060;width:89px;text-overflow:clip;" text-anchor="middle" transform="translate(0,0)" y="99.7" opacity="1">1</text><text x="220.2" style="color:#606060;cursor:default;font-size:11px;fill:#606060;width:89px;text-overflow:clip;" text-anchor="middle" transform="translate(0,0)" y="129.4" opacity="1">2</text><text x="231.1" style="color:#606060;cursor:default;font-size:11px;fill:#606060;width:89px;text-overflow:clip;" text-anchor="middle" transform="translate(0,0)" y="170" opacity="1">3</text><text x="220.2" style="color:#606060;cursor:default;font-size:11px;fill:#606060;width:89px;text-overflow:clip;" text-anchor="middle" transform="translate(0,0)" y="210.5" opacity="1">4</text><text x="190.5" style="color:#606060;cursor:default;font-size:11px;fill:#606060;width:89px;text-overflow:clip;" text-anchor="middle" transform="translate(0,0)" y="240.2" opacity="1">5</text><text x="150" style="color:#606060;cursor:default;font-size:11px;fill:#606060;width:89px;text-overflow:clip;" text-anchor="middle" transform="translate(0,0)" y="251.1" opacity="1">6</text><text x="109.4" style="color:#606060;cursor:default;font-size:11px;fill:#606060;width:89px;text-overflow:clip;" text-anchor="middle" transform="translate(0,0)" y="240.2" opacity="1">7</text><text x="79.7" style="color:#606060;cursor:default;font-size:11px;fill:#606060;width:89px;text-overflow:clip;" text-anchor="middle" transform="translate(0,0)" y="210.5" opacity="1">8</text><text x="68.8" style="color:#606060;cursor:default;font-size:11px;fill:#606060;width:89px;text-overflow:clip;" text-anchor="middle" transform="translate(0,0)" y="170" opacity="1">9</text><text x="79.7" style="color:#606060;cursor:default;font-size:11px;fill:#606060;width:89px;text-overflow:clip;" text-anchor="middle" transform="translate(0,0)" y="129.4" opacity="1">10</text><text x="109.4" style="color:#606060;cursor:default;font-size:11px;fill:#606060;width:89px;text-overflow:clip;" text-anchor="middle" transform="translate(0,0)" y="99.7" opacity="1">11</text><text x="149.9" style="color:#606060;cursor:default;font-size:11px;fill:#606060;width:89px;text-overflow:clip;" text-anchor="middle" transform="translate(0,0)" y="88.8" opacity="1">12</text></g><g class="highcharts-tooltip"  style="cursor:default;padding:0;white-space:nowrap;" transform="translate(0,-9999)"><path fill="none" d="M 3 0 L 13 0 C 16 0 16 0 16 3 L 16 13 C 16 16 16 16 13 16 L 3 16 C 0 16 0 16 0 13 L 0 3 C 0 0 0 0 3 0"  stroke="black" stroke-opacity="0.0" stroke-width="5" transform="translate(1, 1)"></path><path fill="none" d="M 3 0 L 13 0 C 16 0 16 0 16 3 L 16 13 C 16 16 16 16 13 16 L 3 16 C 0 16 0 16 0 13 L 0 3 C 0 0 0 0 3 0"  stroke="black" stroke-opacity="0.0" stroke-width="3" transform="translate(1, 1)"></path><path fill="none" d="M 3 0 L 13 0 C 16 0 16 0 16 3 L 16 13 C 16 16 16 16 13 16 L 3 16 C 0 16 0 16 0 13 L 0 3 C 0 0 0 0 3 0"  stroke="black" stroke-opacity="0.1" stroke-width="1" transform="translate(1, 1)"></path><path fill="rgb(249, 249, 249)" fill-opacity=" .85" d="M 3 0 L 13 0 C 16 0 16 0 16 3 L 16 13 C 16 16 16 16 13 16 L 3 16 C 0 16 0 16 0 13 L 0 3 C 0 0 0 0 3 0"></path><text x="8"  style="font-size:12px;color:#333333;fill:#333333;" transform="translate(0,20)"></text></g></svg>