<svg version="1.1" style="font-family:&quot;lucida grande&quot;, &quot;lucida sans unicode&quot;, arial, helvetica, sans-serif;font-size:12px;" xmlns="http://www.w3.org/2000/svg" width="400" height="300" viewBox="0 0 400 300"><desc>Created with Highcharts 4.1.4</desc><defs><clipPath id="highcharts-1"><rect x="0" y="0" width="380" height="238"></rect></clipPath><linearGradient x1="0" y1="0" x2="0" y2="1" id="highcharts-2"><stop offset="0" stop-color="#FFF" stop-opacity="1"></stop><stop offset="1" stop-color="#333" stop-opacity="1"></stop></linearGradient><linearGradient x1="0" y1="0" x2="0" y2="1" id="highcharts-3"><stop offset="0" stop-color="#333" stop-opacity="1"></stop><stop offset="1" stop-color="#FFF" stop-opacity="1"></stop></linearGradient><linearGradient x1="0" y1="0" x2="0" y2="1" id="highcharts-4"><stop offset="0" stop-color="#FFF" stop-opacity="1"></stop><stop offset="1" stop-color="#DDD" stop-opacity="1"></stop></linearGradient></defs><rect x="0" y="0" width="400" height="300" strokeWidth="0" fill="#FFFFFF" class=" highcharts-background" stroke="transparent"></rect><path fill="url(#highcharts-2)" d="M 200 55.7 A 110.2 110.2 0 1 1 199.8 55.7 M 200 166 A 0 0 0 1 0 200 166 "></path><path fill="url(#highcharts-2)" d="M 200 55.7 A 110.2 110.2 0 1 1 199.8 55.7 M 200 166 A 0 0 0 1 0 200 166 "></path><path fill="url(#highcharts-3)" d="M 200 57.7 A 108.2 108.2 0 1 1 199.8 57.7 M 200 166 A 0 0 0 1 0 200 166 " stroke="silver" stroke-width="1"></path><path fill="url(#highcharts-3)" d="M 200 57.7 A 108.2 108.2 0 1 1 199.8 57.7 M 200 166 A 0 0 0 1 0 200 166 " stroke="silver" stroke-width="1"></path><path fill="url(#highcharts-4)" d="M 200 59.7 A 106.2 106.2 0 1 1 199.8 59.7 M 200 166 A 0 0 0 1 0 200 166 " stroke="silver" stroke-width="1"></path><path fill="url(#highcharts-4)" d="M 200 59.7 A 106.2 106.2 0 1 1 199.8 59.7 M 200 166 A 0 0 0 1 0 200 166 " stroke="silver" stroke-width="1"></path><path fill="#DDD" d="M 200 59.7 A 106.2 106.2 0 1 1 199.8 59.7 M 199.8 61.8 A 104.1 104.1 0 1 0 200 61.8 "></path><path fill="#DDD" d="M 200 59.7 A 106.2 106.2 0 1 1 199.8 59.7 M 199.8 61.8 A 104.1 104.1 0 1 0 200 61.8 "></path><path fill="#55BF3B" d="M 149.4 253.5 A 101.1 101.1 0 0 1 250.4 78.3 L 245.4 87.0 A 91.1 91.1 0 0 0 154.4 244.9 Z"></path><path fill="#DDDF0D" d="M 250.5 78.4 A 101.1 101.1 0 0 1 301.1 165.8 L 291.1 165.9 A 91.1 91.1 0 0 0 245.5 87.0 Z"></path><path fill="#DF5353" d="M 301.1 165.9 A 101.1 101.1 0 0 1 250.6 253.5 L 245.6 244.8 A 91.1 91.1 0 0 0 291.1 165.9 Z"></path><g class="highcharts-grid" ></g><g class="highcharts-axis" ><path fill="none" d="M 149.4 253.5 L 154.4 244.9" stroke="#666" stroke-width="1" opacity="1"></path><path fill="none" d="M 144.9 250.8 L 150.3 242.4" stroke="#666" stroke-width="1" opacity="1"></path><path fill="none" d="M 140.5 247.8 L 146.4 239.7" stroke="#666" stroke-width="1" opacity="1"></path><path fill="none" d="M 136.3 244.6 L 142.6 236.8" stroke="#666" stroke-width="1" opacity="1"></path><path fill="none" d="M 132.3 241.1 L 139.0 233.7" stroke="#666" stroke-width="1" opacity="1"></path><path fill="none" d="M 128.4 237.5 L 135.5 230.4" stroke="#666" stroke-width="1" opacity="1"></path><path fill="none" d="M 124.8 233.6 L 132.2 226.9" stroke="#666" stroke-width="1" opacity="1"></path><path fill="none" d="M 121.3 229.6 L 129.1 223.3" stroke="#666" stroke-width="1" opacity="1"></path><path fill="none" d="M 118.1 225.4 L 126.2 219.5" stroke="#666" stroke-width="1" opacity="1"></path><path fill="none" d="M 115.1 221.0 L 123.5 215.6" stroke="#666" stroke-width="1" opacity="1"></path><path fill="none" d="M 112.4 216.5 L 121.0 211.5" stroke="#666" stroke-width="1" opacity="1"></path><path fill="none" d="M 109.8 211.9 L 118.7 207.3" stroke="#666" stroke-width="1" opacity="1"></path><path fill="none" d="M 107.5 207.1 L 116.7 203.0" stroke="#666" stroke-width="1" opacity="1"></path><path fill="none" d="M 105.5 202.2 L 114.9 198.6" stroke="#666" stroke-width="1" opacity="1"></path><path fill="none" d="M 103.8 197.2 L 113.3 194.1" stroke="#666" stroke-width="1" opacity="1"></path><path fill="none" d="M 102.2 192.1 L 111.9 189.5" stroke="#666" stroke-width="1" opacity="1"></path><path fill="none" d="M 101.0 187.0 L 110.8 184.9" stroke="#666" stroke-width="1" opacity="1"></path><path fill="none" d="M 100.0 181.8 L 109.9 180.2" stroke="#666" stroke-width="1" opacity="1"></path><path fill="none" d="M 99.4 176.5 L 109.3 175.5" stroke="#666" stroke-width="1" opacity="1"></path><path fill="none" d="M 98.9 171.2 L 108.9 170.7" stroke="#666" stroke-width="1" opacity="1"></path><path fill="none" d="M 98.8 166 L 108.8 166" stroke="#666" stroke-width="1" opacity="1"></path><path fill="none" d="M 98.9 160.7 L 108.9 161.2" stroke="#666" stroke-width="1" opacity="1"></path><path fill="none" d="M 99.4 155.4 L 109.3 156.4" stroke="#666" stroke-width="1" opacity="1"></path><path fill="none" d="M 100.0 150.1 L 109.9 151.7" stroke="#666" stroke-width="1" opacity="1"></path><path fill="none" d="M 101.0 144.9 L 110.8 147.0" stroke="#666" stroke-width="1" opacity="1"></path><path fill="none" d="M 102.2 139.8 L 111.9 142.4" stroke="#666" stroke-width="1" opacity="1"></path><path fill="none" d="M 103.8 134.7 L 113.3 137.8" stroke="#666" stroke-width="1" opacity="1"></path><path fill="none" d="M 105.5 129.7 L 114.9 133.3" stroke="#666" stroke-width="1" opacity="1"></path><path fill="none" d="M 107.5 124.8 L 116.7 128.9" stroke="#666" stroke-width="1" opacity="1"></path><path fill="none" d="M 109.8 120.0 L 118.7 124.6" stroke="#666" stroke-width="1" opacity="1"></path><path fill="none" d="M 112.4 115.4 L 121.0 120.4" stroke="#666" stroke-width="1" opacity="1"></path><path fill="none" d="M 115.1 110.9 L 123.5 116.3" stroke="#666" stroke-width="1" opacity="1"></path><path fill="none" d="M 118.1 106.5 L 126.2 112.4" stroke="#666" stroke-width="1" opacity="1"></path><path fill="none" d="M 121.3 102.3 L 129.1 108.6" stroke="#666" stroke-width="1" opacity="1"></path><path fill="none" d="M 124.8 98.3 L 132.2 105.0" stroke="#666" stroke-width="1" opacity="1"></path><path fill="none" d="M 128.4 94.4 L 135.5 101.5" stroke="#666" stroke-width="1" opacity="1"></path><path fill="none" d="M 132.3 90.8 L 139.0 98.2" stroke="#666" stroke-width="1" opacity="1"></path><path fill="none" d="M 136.3 87.3 L 142.6 95.1" stroke="#666" stroke-width="1" opacity="1"></path><path fill="none" d="M 140.5 84.1 L 146.4 92.2" stroke="#666" stroke-width="1" opacity="1"></path><path fill="none" d="M 144.9 81.1 L 150.3 89.5" stroke="#666" stroke-width="1" opacity="1"></path><path fill="none" d="M 149.4 78.4 L 154.4 87.0" stroke="#666" stroke-width="1" opacity="1"></path><path fill="none" d="M 154.0 75.8 L 158.6 84.7" stroke="#666" stroke-width="1" opacity="1"></path><path fill="none" d="M 158.8 73.5 L 162.9 82.7" stroke="#666" stroke-width="1" opacity="1"></path><path fill="none" d="M 163.7 71.5 L 167.3 80.9" stroke="#666" stroke-width="1" opacity="1"></path><path fill="none" d="M 168.7 69.8 L 171.8 79.3" stroke="#666" stroke-width="1" opacity="1"></path><path fill="none" d="M 173.8 68.2 L 176.4 77.9" stroke="#666" stroke-width="1" opacity="1"></path><path fill="none" d="M 178.9 67.0 L 181.0 76.8" stroke="#666" stroke-width="1" opacity="1"></path><path fill="none" d="M 184.1 66.0 L 185.7 75.9" stroke="#666" stroke-width="1" opacity="1"></path><path fill="none" d="M 189.4 65.4 L 190.4 75.3" stroke="#666" stroke-width="1" opacity="1"></path><path fill="none" d="M 194.7 64.9 L 195.2 74.9" stroke="#666" stroke-width="1" opacity="1"></path><path fill="none" d="M 200 64.8 L 200 74.8" stroke="#666" stroke-width="1" opacity="1"></path><path fill="none" d="M 205.2 64.9 L 204.7 74.9" stroke="#666" stroke-width="1" opacity="1"></path><path fill="none" d="M 210.5 65.4 L 209.5 75.3" stroke="#666" stroke-width="1" opacity="1"></path><path fill="none" d="M 215.8 66.0 L 214.2 75.9" stroke="#666" stroke-width="1" opacity="1"></path><path fill="none" d="M 221.0 67.0 L 218.9 76.8" stroke="#666" stroke-width="1" opacity="1"></path><path fill="none" d="M 226.1 68.2 L 223.5 77.9" stroke="#666" stroke-width="1" opacity="1"></path><path fill="none" d="M 231.2 69.8 L 228.1 79.3" stroke="#666" stroke-width="1" opacity="1"></path><path fill="none" d="M 236.2 71.5 L 232.6 80.9" stroke="#666" stroke-width="1" opacity="1"></path><path fill="none" d="M 241.1 73.5 L 237.0 82.7" stroke="#666" stroke-width="1" opacity="1"></path><path fill="none" d="M 245.9 75.8 L 241.3 84.7" stroke="#666" stroke-width="1" opacity="1"></path><path fill="none" d="M 250.5 78.4 L 245.5 87.0" stroke="#666" stroke-width="1" opacity="1"></path><path fill="none" d="M 255.0 81.1 L 249.6 89.5" stroke="#666" stroke-width="1" opacity="1"></path><path fill="none" d="M 259.4 84.1 L 253.5 92.2" stroke="#666" stroke-width="1" opacity="1"></path><path fill="none" d="M 263.6 87.3 L 257.3 95.1" stroke="#666" stroke-width="1" opacity="1"></path><path fill="none" d="M 267.6 90.8 L 260.9 98.2" stroke="#666" stroke-width="1" opacity="1"></path><path fill="none" d="M 271.5 94.4 L 264.4 101.5" stroke="#666" stroke-width="1" opacity="1"></path><path fill="none" d="M 275.1 98.3 L 267.7 105.0" stroke="#666" stroke-width="1" opacity="1"></path><path fill="none" d="M 278.6 102.3 L 270.8 108.6" stroke="#666" stroke-width="1" opacity="1"></path><path fill="none" d="M 281.8 106.5 L 273.7 112.4" stroke="#666" stroke-width="1" opacity="1"></path><path fill="none" d="M 284.8 110.9 L 276.4 116.3" stroke="#666" stroke-width="1" opacity="1"></path><path fill="none" d="M 287.5 115.4 L 278.9 120.4" stroke="#666" stroke-width="1" opacity="1"></path><path fill="none" d="M 290.1 120.0 L 281.2 124.6" stroke="#666" stroke-width="1" opacity="1"></path><path fill="none" d="M 292.4 124.8 L 283.2 128.9" stroke="#666" stroke-width="1" opacity="1"></path><path fill="none" d="M 294.4 129.7 L 285.0 133.3" stroke="#666" stroke-width="1" opacity="1"></path><path fill="none" d="M 296.1 134.7 L 286.6 137.8" stroke="#666" stroke-width="1" opacity="1"></path><path fill="none" d="M 297.7 139.8 L 288.0 142.4" stroke="#666" stroke-width="1" opacity="1"></path><path fill="none" d="M 298.9 144.9 L 289.1 147.0" stroke="#666" stroke-width="1" opacity="1"></path><path fill="none" d="M 299.9 150.1 L 290.0 151.7" stroke="#666" stroke-width="1" opacity="1"></path><path fill="none" d="M 300.5 155.4 L 290.6 156.4" stroke="#666" stroke-width="1" opacity="1"></path><path fill="none" d="M 301.0 160.7 L 291.0 161.2" stroke="#666" stroke-width="1" opacity="1"></path><path fill="none" d="M 301.1 165.9 L 291.1 165.9" stroke="#666" stroke-width="1" opacity="1"></path><path fill="none" d="M 301.0 171.2 L 291.0 170.7" stroke="#666" stroke-width="1" opacity="1"></path><path fill="none" d="M 300.5 176.5 L 290.6 175.5" stroke="#666" stroke-width="1" opacity="1"></path><path fill="none" d="M 299.9 181.8 L 290.0 180.2" stroke="#666" stroke-width="1" opacity="1"></path><path fill="none" d="M 298.9 187.0 L 289.1 184.9" stroke="#666" stroke-width="1" opacity="1"></path><path fill="none" d="M 297.7 192.1 L 288.0 189.5" stroke="#666" stroke-width="1" opacity="1"></path><path fill="none" d="M 296.1 197.2 L 286.6 194.1" stroke="#666" stroke-width="1" opacity="1"></path><path fill="none" d="M 294.4 202.2 L 285.0 198.6" stroke="#666" stroke-width="1" opacity="1"></path><path fill="none" d="M 292.4 207.1 L 283.2 203.0" stroke="#666" stroke-width="1" opacity="1"></path><path fill="none" d="M 290.1 211.9 L 281.2 207.3" stroke="#666" stroke-width="1" opacity="1"></path><path fill="none" d="M 287.5 216.5 L 278.9 211.5" stroke="#666" stroke-width="1" opacity="1"></path><path fill="none" d="M 284.8 221.0 L 276.4 215.6" stroke="#666" stroke-width="1" opacity="1"></path><path fill="none" d="M 281.8 225.4 L 273.7 219.5" stroke="#666" stroke-width="1" opacity="1"></path><path fill="none" d="M 278.6 229.6 L 270.8 223.3" stroke="#666" stroke-width="1" opacity="1"></path><path fill="none" d="M 275.1 233.6 L 267.7 226.9" stroke="#666" stroke-width="1" opacity="1"></path><path fill="none" d="M 271.5 237.5 L 264.4 230.4" stroke="#666" stroke-width="1" opacity="1"></path><path fill="none" d="M 267.6 241.1 L 260.9 233.7" stroke="#666" stroke-width="1" opacity="1"></path><path fill="none" d="M 263.6 244.6 L 257.3 236.8" stroke="#666" stroke-width="1" opacity="1"></path><path fill="none" d="M 259.4 247.8 L 253.5 239.7" stroke="#666" stroke-width="1" opacity="1"></path><path fill="none" d="M 255.0 250.8 L 249.6 242.4" stroke="#666" stroke-width="1" opacity="1"></path><path fill="none" d="M 250.5 253.5 L 245.5 244.9" stroke="#666" stroke-width="1" opacity="1"></path><path fill="none" d="M 149.4 253.5 L 154.4 244.9" stroke="#666" stroke-width="2" opacity="1"></path><path fill="none" d="M 128.4 237.5 L 135.5 230.4" stroke="#666" stroke-width="2" opacity="1"></path><path fill="none" d="M 112.4 216.5 L 121.0 211.5" stroke="#666" stroke-width="2" opacity="1"></path><path fill="none" d="M 102.2 192.1 L 111.9 189.5" stroke="#666" stroke-width="2" opacity="1"></path><path fill="none" d="M 98.8 166 L 108.8 166" stroke="#666" stroke-width="2" opacity="1"></path><path fill="none" d="M 102.2 139.8 L 111.9 142.4" stroke="#666" stroke-width="2" opacity="1"></path><path fill="none" d="M 112.4 115.4 L 121.0 120.4" stroke="#666" stroke-width="2" opacity="1"></path><path fill="none" d="M 128.4 94.4 L 135.5 101.5" stroke="#666" stroke-width="2" opacity="1"></path><path fill="none" d="M 149.4 78.4 L 154.4 87.0" stroke="#666" stroke-width="2" opacity="1"></path><path fill="none" d="M 173.8 68.2 L 176.4 77.9" stroke="#666" stroke-width="2" opacity="1"></path><path fill="none" d="M 200 64.8 L 200 74.8" stroke="#666" stroke-width="2" opacity="1"></path><path fill="none" d="M 226.1 68.2 L 223.5 77.9" stroke="#666" stroke-width="2" opacity="1"></path><path fill="none" d="M 250.5 78.4 L 245.5 87.0" stroke="#666" stroke-width="2" opacity="1"></path><path fill="none" d="M 271.5 94.4 L 264.4 101.5" stroke="#666" stroke-width="2" opacity="1"></path><path fill="none" d="M 287.5 115.4 L 278.9 120.4" stroke="#666" stroke-width="2" opacity="1"></path><path fill="none" d="M 297.7 139.8 L 288.0 142.4" stroke="#666" stroke-width="2" opacity="1"></path><path fill="none" d="M 301.1 165.9 L 291.1 165.9" stroke="#666" stroke-width="2" opacity="1"></path><path fill="none" d="M 297.7 192.1 L 288.0 189.5" stroke="#666" stroke-width="2" opacity="1"></path><path fill="none" d="M 287.5 216.5 L 278.9 211.5" stroke="#666" stroke-width="2" opacity="1"></path><path fill="none" d="M 271.5 237.5 L 264.4 230.4" stroke="#666" stroke-width="2" opacity="1"></path><path fill="none" d="M 250.5 253.5 L 245.5 244.9" stroke="#666" stroke-width="2" opacity="1"></path><text x="200"  text-anchor="middle" transform="translate(0,0)" class=" highcharts-yaxis-title" style="color:#707070;fill:#707070;" visibility="visible" y="115.4">km/h</text><path fill="none" d="M 149.4 253.5 A 101.1 101.1 0 1 1 250.6 253.5 M 200 166 A 0 0 0 1 0 200 166 " stroke="#C0D0E0" stroke-width="1"  visibility="visible"></path></g><g class="highcharts-data-labels highcharts-tracker" visibility="visible"  transform="translate(10,47) scale(1 1)" style=""><g  style="" transform="translate(179,134)"><rect x="0.5" y="0.5" width="22" height="23" strokeWidth="1" fill="none" stroke="silver" stroke-width="1" rx="3" ry="3"></rect><text x="5"  style="font-size: 11px; font-weight: bold; color: rgb(0, 0, 0); fill: #000000; text-shadow: rgb(255, 255, 255) 0px 0px 6px, rgb(255, 255, 255) 0px 0px 3px; " transform="translate(0,16)"><tspan>80</tspan></text></g></g><g class="highcharts-series-group" ><g class="highcharts-series highcharts-tracker" visibility="visible"  transform="translate(10,47) scale(1 1)" style="" clip-path="url(#highcharts-1)"><path fill="black" d="M -8.0 -1.5 L 56.6 -1.5 80.9 -0.5 80.9 0.5 56.6 1.5 -8.0 1.5 z" transform="translate(190,119) rotate(-120.0 0 0)"></path><circle cx="0" cy="0" r="5" fill="black" transform="translate(190,119)"></circle></g><g class="highcharts-markers" visibility="visible"  transform="translate(10,47) scale(1 1)"></g></g><text x="200" text-anchor="middle" class="highcharts-title"  style="color:#333333;font-size:18px;fill:#333333;width:336px;" y="24">Speedometer</text><g class="highcharts-legend" ><g ><g></g></g></g><g class="highcharts-axis-labels highcharts-yaxis-labels" ><text x="161.9" style="color:#606060;cursor:default;font-size:11px;fill:#606060;width:122px;text-overflow:clip;" text-anchor="middle" transform="translate(0,0) rotate(-150 161.9 231.9)" y="231.9" opacity="1">0</text><text x="0" style="color:#606060;cursor:default;font-size:11px;fill:#606060;width:122px;text-overflow:clip;" text-anchor="middle" transform="translate(0,0) rotate(-135 0 -9999)" y="-9999">10</text><text x="134.0" style="color:#606060;cursor:default;font-size:11px;fill:#606060;width:122px;text-overflow:clip;" text-anchor="middle" transform="translate(0,0) rotate(-120 134.0 204.0)" y="204.0" opacity="1">20</text><text x="0" style="color:#606060;cursor:default;font-size:11px;fill:#606060;width:122px;text-overflow:clip;" text-anchor="middle" transform="translate(0,0) rotate(-104.9 0 -9999)" y="-9999">30</text><text x="123.8" style="color:#606060;cursor:default;font-size:11px;fill:#606060;width:122px;text-overflow:clip;" text-anchor="middle" transform="translate(0,0) rotate(-90 123.8 166)" y="166" opacity="1">40</text><text x="0" style="color:#606060;cursor:default;font-size:11px;fill:#606060;width:122px;text-overflow:clip;" text-anchor="middle" transform="translate(0,0) rotate(-75 0 -9999)" y="-9999">50</text><text x="134.0" style="color:#606060;cursor:default;font-size:11px;fill:#606060;width:122px;text-overflow:clip;" text-anchor="middle" transform="translate(0,0) rotate(-59.9 134.0 127.9)" y="127.9" opacity="1">60</text><text x="0" style="color:#606060;cursor:default;font-size:11px;fill:#606060;width:122px;text-overflow:clip;" text-anchor="middle" transform="translate(0,0) rotate(-45 0 -9999)" y="-9999">70</text><text x="161.9" style="color:#606060;cursor:default;font-size:11px;fill:#606060;width:122px;text-overflow:clip;" text-anchor="middle" transform="translate(0,0) rotate(-30.0 161.9 100.0)" y="100.0" opacity="1">80</text><text x="0" style="color:#606060;cursor:default;font-size:11px;fill:#606060;width:122px;text-overflow:clip;" text-anchor="middle" transform="translate(0,0) rotate(-15.0 0 -9999)" y="-9999">90</text><text x="200" style="color:#606060;cursor:default;font-size:11px;fill:#606060;width:122px;text-overflow:clip;" text-anchor="middle" transform="translate(0,0)" y="89.8" opacity="1">100</text><text x="0" style="color:#606060;cursor:default;font-size:11px;fill:#606060;width:122px;text-overflow:clip;" text-anchor="middle" transform="translate(0,0) rotate(14.9 0 -9999)" y="-9999">110</text><text x="238.0" style="color:#606060;cursor:default;font-size:11px;fill:#606060;width:122px;text-overflow:clip;" text-anchor="middle" transform="translate(0,0) rotate(29.9 238.0 100.0)" y="100.0" opacity="1">120</text><text x="0" style="color:#606060;cursor:default;font-size:11px;fill:#606060;width:122px;text-overflow:clip;" text-anchor="middle" transform="translate(0,0) rotate(44.9 0 -9999)" y="-9999">130</text><text x="265.9" style="color:#606060;cursor:default;font-size:11px;fill:#606060;width:122px;text-overflow:clip;" text-anchor="middle" transform="translate(0,0) rotate(59.9 265.9 127.9)" y="127.9" opacity="1">140</text><text x="0" style="color:#606060;cursor:default;font-size:11px;fill:#606060;width:122px;text-overflow:clip;" text-anchor="middle" transform="translate(0,0) rotate(74.9 0 -9999)" y="-9999">150</text><text x="276.1" style="color:#606060;cursor:default;font-size:11px;fill:#606060;width:122px;text-overflow:clip;" text-anchor="middle" transform="translate(0,0) rotate(89.9 276.1 165.9)" y="165.9" opacity="1">160</text><text x="0" style="color:#606060;cursor:default;font-size:11px;fill:#606060;width:122px;text-overflow:clip;" text-anchor="middle" transform="translate(0,0) rotate(104.9 0 -9999)" y="-9999">170</text><text x="265.9" style="color:#606060;cursor:default;font-size:11px;fill:#606060;width:122px;text-overflow:clip;" text-anchor="middle" transform="translate(0,0) rotate(119.9 265.9 204.0)" y="204.0" opacity="1">180</text><text x="0" style="color:#606060;cursor:default;font-size:11px;fill:#606060;width:122px;text-overflow:clip;" text-anchor="middle" transform="translate(0,0) rotate(134.9 0 -9999)" y="-9999">190</text><text x="238.0" style="color:#606060;cursor:default;font-size:11px;fill:#606060;width:122px;text-overflow:clip;" text-anchor="middle" transform="translate(0,0) rotate(150 238.0 231.9)" y="231.9" opacity="1">200</text></g><g class="highcharts-tooltip"  style="cursor:default;padding:0;white-space:nowrap;" transform="translate(0,-9999)"><path fill="none" d="M 3 0 L 13 0 C 16 0 16 0 16 3 L 16 13 C 16 16 16 16 13 16 L 3 16 C 0 16 0 16 0 13 L 0 3 C 0 0 0 0 3 0"  stroke="black" stroke-opacity="0.0" stroke-width="5" transform="translate(1, 1)"></path><path fill="none" d="M 3 0 L 13 0 C 16 0 16 0 16 3 L 16 13 C 16 16 16 16 13 16 L 3 16 C 0 16 0 16 0 13 L 0 3 C 0 0 0 0 3 0"  stroke="black" stroke-opacity="0.0" stroke-width="3" transform="translate(1, 1)"></path><path fill="none" d="M 3 0 L 13 0 C 16 0 16 0 16 3 L 16 13 C 16 16 16 16 13 16 L 3 16 C 0 16 0 16 0 13 L 0 3 C 0 0 0 0 3 0"  stroke="black" stroke-opacity="0.1" stroke-width="1" transform="translate(1, 1)"></path><path fill="rgb(249, 249, 249)" fill-opacity=" .85" d="M 3 0 L 13 0 C 16 0 16 0 16 3 L 16 13 C 16 16 16 16 13 16 L 3 16 C 0 16 0 16 0 13 L 0 3 C 0 0 0 0 3 0"></path><text x="8"  style="font-size:12px;color:#333333;fill:#333333;" transform="translate(0,20)"></text></g></svg>