<svg version="1.1" style="font-family:&quot;lucida grande&quot;, &quot;lucida sans unicode&quot;, arial, helvetica, sans-serif;font-size:12px;" xmlns="http://www.w3.org/2000/svg" width="584" height="400" viewBox="0 0 584 400"><desc>Created with Highstock 2.1.4</desc><defs><clipPath id="highcharts-1"><rect x="0" y="0" width="564" height="206"></rect></clipPath><clipPath id="highcharts-2"><rect x="-99" y="-79" width="663" height="400"></rect></clipPath><clipPath id="highcharts-3"><rect x="0" y="0" width="564" height="206"></rect></clipPath><clipPath id="highcharts-4"><rect x="-99" y="-79" width="663" height="400"></rect></clipPath><clipPath id="highcharts-5"><rect x="0" y="0" width="564" height="40"></rect></clipPath></defs><rect x="0" y="0" width="584" height="400" strokeWidth="0" fill="#FFFFFF" class=" highcharts-background" stroke="transparent"></rect><g class="highcharts-scrollbar" transform="translate(10,372)"><rect x="0" y="-0.5" fill="#eeeeee" stroke="#eeeeee" stroke-width="1" rx="0" ry="0" height="14" width="564"></rect><rect y="-0.5" height="14" fill="#bfc8d1" stroke="#bfc8d1" stroke-width="1" rx="0" ry="0" x="517.5" width="32"></rect><path fill="none" stroke="#666" stroke-width="1" visibility="visible" d="M 530 3.5 L 530 9.3 M 533 3.5 L 533 9.3 M 536 3.5 L 536 9.3"></path><g><rect x="-0.5" y="-0.5" width="14" height="14" strokeWidth="1" stroke="#bbb" stroke-width="1" fill="#ebe7e8"></rect><path fill="#666" d="M 8 4 L 8 10 5 7"></path></g><g transform="translate(550,0)"><rect x="-0.5" y="-0.5" width="14" height="14" strokeWidth="1" stroke="#bbb" stroke-width="1" fill="#ebe7e8"></rect><path fill="#666" d="M 6 4 L 6 10 9 7"></path></g></g><g class="highcharts-range-selector-buttons"><text x="10" y="59" style="color:#666;fill:#666;">Zoom</text><g class="highcharts-button"  states="[object Object]" style="cursor:pointer;text-align:center;" transform="translate(46,44)"><rect x="0" y="0" width="32" height="22" strokeWidth="0" fill="#e7f0f9" rx="0" ry="0"></rect><text x="8"  style="font-weight:bold;color:black;fill:black;" transform="translate(0,14)">1M</text></g><g class="highcharts-button"  states="[object Object]" style="cursor:pointer;text-align:center;" transform="translate(83,44)"><rect x="0" y="0" width="32" height="22" strokeWidth="0" fill="#f7f7f7" rx="0" ry="0"></rect><text x="8"  style="font-weight:normal;color:#444;fill:#444;" transform="translate(0,14)">5M</text></g><g class="highcharts-button"  states="[object Object]" style="cursor:pointer;text-align:center;" transform="translate(120,44)"><rect x="0" y="0" width="32" height="22" strokeWidth="0" fill="#f7f7f7" rx="0" ry="0"></rect><text x="10"  style="font-weight:normal;color:#444;fill:#444;" transform="translate(0,14)">All</text></g></g><g class="highcharts-grid" ></g><g class="highcharts-grid" ><path fill="none" d="M 76.5 331 L 76.5 371" stroke="#EEE" stroke-width="1"  opacity="1"></path><path fill="none" d="M 236.5 331 L 236.5 371" stroke="#EEE" stroke-width="1"  opacity="1"></path><path fill="none" d="M 397.5 331 L 397.5 371" stroke="#EEE" stroke-width="1"  opacity="1"></path><path fill="none" d="M 559.5 331 L 559.5 371" stroke="#EEE" stroke-width="1"  opacity="1"></path></g><g class="highcharts-grid" ><path fill="none" d="M 10 285.5 L 574 285.5" stroke="#D8D8D8" stroke-width="1"  opacity="1"></path><path fill="none" d="M 10 251.5 L 574 251.5" stroke="#D8D8D8" stroke-width="1"  opacity="1"></path><path fill="none" d="M 10 216.5 L 574 216.5" stroke="#D8D8D8" stroke-width="1"  opacity="1"></path><path fill="none" d="M 10 182.5 L 574 182.5" stroke="#D8D8D8" stroke-width="1"  opacity="1"></path><path fill="none" d="M 10 148.5 L 574 148.5" stroke="#D8D8D8" stroke-width="1"  opacity="1"></path><path fill="none" d="M 10 113.5 L 574 113.5" stroke="#D8D8D8" stroke-width="1"  opacity="1"></path><path fill="none" d="M 10 78.5 L 574 78.5" stroke="#D8D8D8" stroke-width="1"  opacity="1"></path></g><g class="highcharts-grid" ></g><g class="highcharts-axis" ><path fill="none" d="M 99.5 285 L 99.5 295" stroke="#C0D0E0" stroke-width="1" opacity="1"></path><path fill="none" d="M 193.5 285 L 193.5 295" stroke="#C0D0E0" stroke-width="1" opacity="1"></path><path fill="none" d="M 287.5 285 L 287.5 295" stroke="#C0D0E0" stroke-width="1" opacity="1"></path><path fill="none" d="M 381.5 285 L 381.5 295" stroke="#C0D0E0" stroke-width="1" opacity="1"></path><path fill="none" d="M 475.5 285 L 475.5 295" stroke="#C0D0E0" stroke-width="1" opacity="1"></path><path fill="none" d="M 569.5 285 L 569.5 295" stroke="#C0D0E0" stroke-width="1" opacity="1"></path><path fill="none" d="M 10 285.5 L 574 285.5" stroke="#C0D0E0" stroke-width="1"  visibility="visible"></path></g><g class="highcharts-axis" ></g><g class="highcharts-axis" ></g><g class="highcharts-axis" ></g><g class="highcharts-series-group" ><g class="highcharts-series" visibility="visible"  transform="translate(10,79) scale(1 1)" clip-path="url(#highcharts-3)"><path fill="none" d="M -9.4 35.7 L 0 105.7 L 9.4 78.2 L 18.8 133.2 L 28.2 159.3 L 37.6 85.1 L 47 119.4 L 56.4 71.4 L 65.8 86.5 L 75.2 152.4 L 84.6 86.5 L 94 94.7 L 103.4 71.4 L 112.8 152.4 L 122.2 52.1 L 131.6 148.3 L 141 103 L 150.4 48.0 L 159.8 86.5 L 169.2 38.4 L 178.6 72.7 L 188 86.5 L 197.4 34.3 L 206.8 78.2 L 216.2 144.2 L 225.6 119.4 L 235 92.0 L 244.4 111.2 L 253.8 105.7 L 263.2 57.6 L 272.6 96.1 L 282 144.2 L 291.4 38.4 L 300.8 35.7 L 310.2 141.4 L 319.6 148.3 L 329 170.2 L 338.4 163.4 L 347.8 159.3 L 357.2 126.3 L 366.6 43.9 L 376 86.5 L 385.4 152.4 L 394.8 148.3 L 404.2 41.2 L 413.6 87.8 L 423 116.7 L 432.4 167.5 L 441.8 82.4 L 451.2 126.3 L 460.6 76.9 L 470 103 L 479.4 46.6 L 488.8 157.9 L 498.2 120.8 L 507.6 53.5 L 517 167.5 L 526.4 49.4 L 535.8 155.1 L 545.2 86.5 L 554.6 122.2 L 564 140.0" stroke="#7cb5ec" stroke-width="2"  stroke-linejoin="round" stroke-linecap="round"></path><path fill="none" d="M -19.4 35.7 L -9.4 35.7 L 0 105.7 L 9.4 78.2 L 18.8 133.2 L 28.2 159.3 L 37.6 85.1 L 47 119.4 L 56.4 71.4 L 65.8 86.5 L 75.2 152.4 L 84.6 86.5 L 94 94.7 L 103.4 71.4 L 112.8 152.4 L 122.2 52.1 L 131.6 148.3 L 141 103 L 150.4 48.0 L 159.8 86.5 L 169.2 38.4 L 178.6 72.7 L 188 86.5 L 197.4 34.3 L 206.8 78.2 L 216.2 144.2 L 225.6 119.4 L 235 92.0 L 244.4 111.2 L 253.8 105.7 L 263.2 57.6 L 272.6 96.1 L 282 144.2 L 291.4 38.4 L 300.8 35.7 L 310.2 141.4 L 319.6 148.3 L 329 170.2 L 338.4 163.4 L 347.8 159.3 L 357.2 126.3 L 366.6 43.9 L 376 86.5 L 385.4 152.4 L 394.8 148.3 L 404.2 41.2 L 413.6 87.8 L 423 116.7 L 432.4 167.5 L 441.8 82.4 L 451.2 126.3 L 460.6 76.9 L 470 103 L 479.4 46.6 L 488.8 157.9 L 498.2 120.8 L 507.6 53.5 L 517 167.5 L 526.4 49.4 L 535.8 155.1 L 545.2 86.5 L 554.6 122.2 L 564 140.0 L 574 140.0" stroke-linejoin="round" visibility="visible" stroke="rgb(192,192,192)" stroke-opacity="0.0" stroke-width="22"  class=" highcharts-tracker" style=""></path></g><g class="highcharts-markers highcharts-tracker" visibility="visible"  transform="translate(10,79) scale(1 1)" clip-path="url(#highcharts-2)" style=""></g><g class="highcharts-series" visibility="visible"  transform="translate(24,331) scale(1 1)" clip-path="url(#highcharts-5)"><path fill="rgb(69,114,167)" fill-opacity="0.0" d="M 0 19.0 C 0 19.0 1.6 18.5 2.6 18.5 C 3.7 18.5 4.2 24.9 5.3 24.9 C 6.4 24.9 6.9 17.3 8.0 17.3 C 9.1 17.3 9.6 36.6 10.7 36.6 C 11.7 36.6 12.3 17.3 13.4 17.3 C 14.4 17.3 15.0 20.0 16.0 20.0 C 17.1 20.0 17.6 17.6 18.7 17.6 C 19.8 17.6 20.3 23.6 21.4 24.0 C 22.5 24.3 23.0 24.0 24.1 24.3 C 25.1 24.7 25.7 26.1 26.8 26.1 C 27.8 26.1 28.4 24.3 29.4 22.0 C 30.5 19.6 31.0 14.5 32.1 14.5 C 33.2 14.5 33.7 14.5 34.8 15.5 C 35.9 16.4 36.4 24.1 37.5 24.1 C 38.5 24.1 39.1 9.8 40.2 9.8 C 41.2 9.8 41.8 28.1 42.8 28.1 C 43.9 28.1 44.4 12.0 45.5 12.0 C 46.6 12.0 47.1 14.3 48.2 16.8 C 49.3 19.3 49.8 24.7 50.9 24.7 C 51.9 24.7 52.5 16.1 53.6 16.1 C 54.6 16.1 55.2 22 56.2 23.8 C 57.3 25.6 57.8 25.6 58.9 25.6 C 60.0 25.6 60.5 14.0 61.6 14.0 C 62.7 14.0 63.2 14.0 64.3 14.3 C 65.3 14.6 65.9 16.0 67 16.7 C 68.0 17.4 68.6 16.7 69.6 17.7 C 70.7 18.6 71.2 32.1 72.3 32.1 C 73.4 32.1 73.9 10.2 75.0 10.2 C 76.1 10.2 76.6 16.8 77.7 16.8 C 78.7 16.8 79.3 11.0 80.4 11.0 C 81.4 11.0 82.0 18.5 83.0 21.1 C 84.1 23.7 84.6 23.5 85.7 24.1 C 86.8 24.8 87.3 24.8 88.4 24.8 C 89.5 24.8 90.0 19.8 91.1 19.8 C 92.1 19.8 92.7 23.2 93.8 23.2 C 94.8 23.2 95.4 17.7 96.4 15.5 C 97.5 13.3 98.0 12.1 99.1 12.1 C 100.2 12.1 100.7 18.7 101.8 18.7 C 102.9 18.7 103.4 14.3 104.5 14.3 C 105.5 14.3 106.1 19.7 107.2 21.4 C 108.2 23.1 108.8 22.6 109.8 23.1 C 110.9 23.6 111.4 23.7 112.5 23.7 C 113.6 23.7 114.1 13.0 115.2 13.0 C 116.3 13.0 116.8 15.8 117.9 17.1 C 118.9 18.4 119.5 19.1 120.6 19.4 C 121.6 19.7 122.2 19.6 123.2 19.7 C 124.3 19.7 124.8 19.7 125.9 19.8 C 127.0 19.8 127.5 19.9 128.6 19.9 C 129.7 19.9 130.2 12.3 131.3 12.3 C 132.3 12.3 132.9 29.2 134 29.2 C 135.0 29.2 135.6 21.2 136.6 21.0 C 137.7 20.8 138.2 21.0 139.3 20.8 C 140.4 20.6 140.9 10.3 142.0 10.3 C 143.1 10.3 143.6 16.5 144.7 19.7 C 145.7 22.8 146.3 26.0 147.4 26.0 C 148.4 26.0 149.0 19.0 150.0 19.0 C 151.1 19.0 151.6 19.5 152.7 19.5 C 153.8 19.5 154.3 5.6 155.4 5.6 C 156.5 5.6 157.0 20.4 158.1 23.3 C 159.1 26.1 159.7 26.1 160.8 26.1 C 161.8 26.1 162.4 10.8 163.4 10.8 C 164.5 10.8 165.0 22.8 166.1 22.8 C 167.2 22.8 167.7 20.1 168.8 20.1 C 169.9 20.1 170.4 24.0 171.5 24.0 C 172.5 24.0 173.1 23.8 174.2 23.0 C 175.2 22.2 175.8 20.0 176.8 20.0 C 177.9 20.0 178.4 26.9 179.5 26.9 C 180.6 26.9 181.1 23.4 182.2 23.4 C 183.3 23.4 183.8 24.8 184.9 26.8 C 185.9 28.8 186.5 33.4 187.6 33.4 C 188.6 33.4 189.2 17.4 190.2 17.4 C 191.3 17.4 191.8 27.1 192.9 27.1 C 194.0 27.1 194.5 18.7 195.6 17.8 C 196.7 16.8 197.2 17.8 198.3 16.8 C 199.3 15.9 199.9 12.1 201 12.1 C 202.0 12.1 202.6 12.2 203.6 14.5 C 204.7 16.8 205.2 20.9 206.3 23.8 C 207.4 26.6 207.9 28.7 209.0 28.7 C 210.1 28.7 210.6 24.1 211.7 24.1 C 212.7 24.1 213.3 25.6 214.4 25.6 C 215.4 25.6 216.0 18.7 217.0 18.7 C 218.1 18.7 218.6 32.0 219.7 32.0 C 220.8 32.0 221.3 25.5 222.4 22.5 C 223.5 19.5 224.0 18.3 225.1 17.1 C 226.1 15.9 226.7 17.1 227.8 15.9 C 228.8 14.6 229.4 3.3 230.4 3.3 C 231.5 3.3 232.0 17.8 233.1 20.7 C 234.2 23.7 234.7 23.7 235.8 23.7 C 236.9 23.7 237.4 8.4 238.5 8.4 C 239.5 8.4 240.1 9.6 241.2 12.0 C 242.2 14.3 242.8 18.0 243.8 20.1 C 244.9 22.3 245.4 21.1 246.5 22.5 C 247.6 23.9 248.1 25.4 249.2 27.2 C 250.3 28.9 250.8 31.3 251.9 31.3 C 252.9 31.3 253.5 22.0 254.6 22.0 C 255.6 22.0 256.2 31.2 257.2 31.2 C 258.3 31.2 258.8 19.1 259.9 19.1 C 261.0 19.1 261.5 20.8 262.6 23.2 C 263.7 25.6 264.2 30.9 265.3 30.9 C 266.3 30.9 266.9 17.8 268 16.5 C 269.0 15.3 269.6 15.3 270.6 15.3 C 271.7 15.3 272.2 18.2 273.3 18.2 C 274.4 18.2 274.9 11.1 276.0 11.1 C 277.1 11.1 277.6 14.2 278.7 16.6 C 279.7 19.1 280.3 23.3 281.4 23.3 C 282.4 23.3 283.0 13.5 284.0 12.4 C 285.1 11.4 285.6 11.4 286.7 11.4 C 287.8 11.4 288.3 19.6 289.4 19.6 C 290.5 19.6 291.0 3.3 292.1 3.3 C 293.1 3.3 293.7 20.0 294.8 21.3 C 295.8 22.5 296.4 22.5 297.4 22.5 C 298.5 22.5 299.0 11.9 300.1 11.2 C 301.2 10.5 301.7 10.5 302.8 10.5 C 303.9 10.5 304.4 18.5 305.5 22.5 C 306.5 26.6 307.1 30.8 308.2 30.8 C 309.2 30.8 309.8 6.4 310.8 6.4 C 311.9 6.4 312.4 10.5 313.5 15.6 C 314.6 20.6 315.1 31.7 316.2 31.7 C 317.3 31.7 317.8 13.9 318.9 13.3 C 319.9 12.7 320.5 12.7 321.6 12.7 C 322.6 12.7 323.2 14.4 324.2 16.7 C 325.3 19.0 325.8 24.0 326.9 24.0 C 328.0 24.0 328.5 24.0 329.6 23.5 C 330.7 22.9 331.2 12.0 332.3 12.0 C 333.3 12.0 333.9 22.9 335 22.9 C 336.0 22.9 336.6 15.9 337.6 15.9 C 338.7 15.9 339.2 16.7 340.3 17.7 C 341.4 18.7 341.9 20.8 343.0 20.8 C 344.1 20.8 344.6 12.5 345.7 12.5 C 346.7 12.5 347.3 27.2 348.4 27.2 C 349.4 27.2 350.0 24.3 351.0 22.6 C 352.1 20.9 352.6 18.7 353.7 18.7 C 354.8 18.7 355.3 35.8 356.4 35.8 C 357.5 35.8 358.0 14.8 359.1 14.8 C 360.1 14.8 360.7 18.4 361.8 20.5 C 362.8 22.6 363.4 25.3 364.4 25.3 C 365.5 25.3 366.0 14.5 367.1 12.0 C 368.2 9.4 368.7 9.4 369.8 9.4 C 370.9 9.4 371.4 13.5 372.5 16.5 C 373.5 19.5 374.1 24.4 375.2 24.4 C 376.2 24.4 376.8 20.1 377.8 20.1 C 378.9 20.1 379.4 21.1 380.5 21.1 C 381.6 21.1 382.1 9.7 383.2 9.7 C 384.3 9.7 384.8 27.3 385.9 27.3 C 386.9 27.3 387.5 12.0 388.6 12.0 C 389.6 12.0 390.2 14.6 391.2 16.7 C 392.3 18.9 392.8 22.8 393.9 22.8 C 395.0 22.8 395.5 21.5 396.6 21.0 C 397.7 20.5 398.2 21.0 399.3 20.4 C 400.3 19.9 400.9 17.5 402 17.5 C 403.0 17.5 403.6 24.1 404.6 27.5 C 405.7 30.8 406.2 34.1 407.3 34.1 C 408.4 34.1 408.9 25.8 410.0 22.0 C 411.1 18.3 411.6 15.2 412.7 15.2 C 413.7 15.2 414.3 22.9 415.4 22.9 C 416.4 22.9 417.0 22.9 418.0 22.4 C 419.1 22 419.6 21.7 420.7 19.1 C 421.8 16.5 422.3 9.5 423.4 9.5 C 424.5 9.5 425.0 26.9 426.1 26.9 C 427.1 26.9 427.7 15.6 428.8 15.6 C 429.8 15.6 430.4 16.1 431.4 16.1 C 432.5 16.1 433.0 8 434.1 8 C 435.2 8 435.7 24.1 436.8 24.1 C 437.9 24.1 438.4 19.0 439.5 19.0 C 440.5 19.0 441.1 24.6 442.2 24.6 C 443.2 24.6 443.8 21.5 444.8 21.5 C 445.9 21.5 446.4 24.8 447.5 24.8 C 448.6 24.8 449.1 16.4 450.2 16.4 C 451.3 16.4 451.8 24.3 452.9 24.3 C 453.9 24.3 454.5 12.2 455.6 12.2 C 456.6 12.2 457.2 18.1 458.2 21.9 C 459.3 25.6 459.8 30.8 460.9 30.8 C 462.0 30.8 462.5 23.8 463.6 21.2 C 464.7 18.6 465.2 17.7 466.3 17.7 C 467.3 17.7 467.9 31.6 469 31.6 C 470.0 31.6 470.6 29.6 471.6 24.7 C 472.7 19.8 473.2 7.1 474.3 7.1 C 475.4 7.1 475.9 21.6 477.0 21.6 C 478.1 21.6 478.6 21.1 479.7 19.0 C 480.7 16.9 481.3 13.3 482.4 11.3 C 483.4 9.2 484.0 8.8 485.0 8.8 C 486.1 8.8 486.6 17.8 487.7 18.9 C 488.8 20.0 489.3 20.0 490.4 20.0 C 491.5 20.0 492.0 14.3 493.1 14.3 C 494.1 14.3 494.7 14.3 495.8 15.0 C 496.8 15.7 497.4 18 498.4 18 C 499.5 18 500.0 8.6 501.1 8.6 C 502.2 8.6 502.7 22.8 503.8 22.8 C 504.9 22.8 505.4 19.7 506.5 19.7 C 507.5 19.7 508.1 19.9 509.2 19.9 C 510.2 19.9 510.8 8.0 511.8 8.0 C 512.9 8.0 513.4 16 514.5 16 C 515.6 16 516.1 16 517.2 16 C 518.3 16 518.8 16.3 519.9 19.1 C 520.9 21.9 521.5 29.9 522.6 29.9 C 523.6 29.9 524.2 19.7 525.2 19.7 C 526.3 19.7 526.8 23.4 527.9 23.4 C 529.0 23.4 529.5 17.3 530.6 17.3 C 531.7 17.3 532.2 21.1 533.3 24.1 C 534.3 27.2 536 32.4 536 32.4 L 536 40 L 0 40" ></path><path fill="none" d="M 0 19.0 C 0 19.0 1.6 18.5 2.6 18.5 C 3.7 18.5 4.2 24.9 5.3 24.9 C 6.4 24.9 6.9 17.3 8.0 17.3 C 9.1 17.3 9.6 36.6 10.7 36.6 C 11.7 36.6 12.3 17.3 13.4 17.3 C 14.4 17.3 15.0 20.0 16.0 20.0 C 17.1 20.0 17.6 17.6 18.7 17.6 C 19.8 17.6 20.3 23.6 21.4 24.0 C 22.5 24.3 23.0 24.0 24.1 24.3 C 25.1 24.7 25.7 26.1 26.8 26.1 C 27.8 26.1 28.4 24.3 29.4 22.0 C 30.5 19.6 31.0 14.5 32.1 14.5 C 33.2 14.5 33.7 14.5 34.8 15.5 C 35.9 16.4 36.4 24.1 37.5 24.1 C 38.5 24.1 39.1 9.8 40.2 9.8 C 41.2 9.8 41.8 28.1 42.8 28.1 C 43.9 28.1 44.4 12.0 45.5 12.0 C 46.6 12.0 47.1 14.3 48.2 16.8 C 49.3 19.3 49.8 24.7 50.9 24.7 C 51.9 24.7 52.5 16.1 53.6 16.1 C 54.6 16.1 55.2 22 56.2 23.8 C 57.3 25.6 57.8 25.6 58.9 25.6 C 60.0 25.6 60.5 14.0 61.6 14.0 C 62.7 14.0 63.2 14.0 64.3 14.3 C 65.3 14.6 65.9 16.0 67 16.7 C 68.0 17.4 68.6 16.7 69.6 17.7 C 70.7 18.6 71.2 32.1 72.3 32.1 C 73.4 32.1 73.9 10.2 75.0 10.2 C 76.1 10.2 76.6 16.8 77.7 16.8 C 78.7 16.8 79.3 11.0 80.4 11.0 C 81.4 11.0 82.0 18.5 83.0 21.1 C 84.1 23.7 84.6 23.5 85.7 24.1 C 86.8 24.8 87.3 24.8 88.4 24.8 C 89.5 24.8 90.0 19.8 91.1 19.8 C 92.1 19.8 92.7 23.2 93.8 23.2 C 94.8 23.2 95.4 17.7 96.4 15.5 C 97.5 13.3 98.0 12.1 99.1 12.1 C 100.2 12.1 100.7 18.7 101.8 18.7 C 102.9 18.7 103.4 14.3 104.5 14.3 C 105.5 14.3 106.1 19.7 107.2 21.4 C 108.2 23.1 108.8 22.6 109.8 23.1 C 110.9 23.6 111.4 23.7 112.5 23.7 C 113.6 23.7 114.1 13.0 115.2 13.0 C 116.3 13.0 116.8 15.8 117.9 17.1 C 118.9 18.4 119.5 19.1 120.6 19.4 C 121.6 19.7 122.2 19.6 123.2 19.7 C 124.3 19.7 124.8 19.7 125.9 19.8 C 127.0 19.8 127.5 19.9 128.6 19.9 C 129.7 19.9 130.2 12.3 131.3 12.3 C 132.3 12.3 132.9 29.2 134 29.2 C 135.0 29.2 135.6 21.2 136.6 21.0 C 137.7 20.8 138.2 21.0 139.3 20.8 C 140.4 20.6 140.9 10.3 142.0 10.3 C 143.1 10.3 143.6 16.5 144.7 19.7 C 145.7 22.8 146.3 26.0 147.4 26.0 C 148.4 26.0 149.0 19.0 150.0 19.0 C 151.1 19.0 151.6 19.5 152.7 19.5 C 153.8 19.5 154.3 5.6 155.4 5.6 C 156.5 5.6 157.0 20.4 158.1 23.3 C 159.1 26.1 159.7 26.1 160.8 26.1 C 161.8 26.1 162.4 10.8 163.4 10.8 C 164.5 10.8 165.0 22.8 166.1 22.8 C 167.2 22.8 167.7 20.1 168.8 20.1 C 169.9 20.1 170.4 24.0 171.5 24.0 C 172.5 24.0 173.1 23.8 174.2 23.0 C 175.2 22.2 175.8 20.0 176.8 20.0 C 177.9 20.0 178.4 26.9 179.5 26.9 C 180.6 26.9 181.1 23.4 182.2 23.4 C 183.3 23.4 183.8 24.8 184.9 26.8 C 185.9 28.8 186.5 33.4 187.6 33.4 C 188.6 33.4 189.2 17.4 190.2 17.4 C 191.3 17.4 191.8 27.1 192.9 27.1 C 194.0 27.1 194.5 18.7 195.6 17.8 C 196.7 16.8 197.2 17.8 198.3 16.8 C 199.3 15.9 199.9 12.1 201 12.1 C 202.0 12.1 202.6 12.2 203.6 14.5 C 204.7 16.8 205.2 20.9 206.3 23.8 C 207.4 26.6 207.9 28.7 209.0 28.7 C 210.1 28.7 210.6 24.1 211.7 24.1 C 212.7 24.1 213.3 25.6 214.4 25.6 C 215.4 25.6 216.0 18.7 217.0 18.7 C 218.1 18.7 218.6 32.0 219.7 32.0 C 220.8 32.0 221.3 25.5 222.4 22.5 C 223.5 19.5 224.0 18.3 225.1 17.1 C 226.1 15.9 226.7 17.1 227.8 15.9 C 228.8 14.6 229.4 3.3 230.4 3.3 C 231.5 3.3 232.0 17.8 233.1 20.7 C 234.2 23.7 234.7 23.7 235.8 23.7 C 236.9 23.7 237.4 8.4 238.5 8.4 C 239.5 8.4 240.1 9.6 241.2 12.0 C 242.2 14.3 242.8 18.0 243.8 20.1 C 244.9 22.3 245.4 21.1 246.5 22.5 C 247.6 23.9 248.1 25.4 249.2 27.2 C 250.3 28.9 250.8 31.3 251.9 31.3 C 252.9 31.3 253.5 22.0 254.6 22.0 C 255.6 22.0 256.2 31.2 257.2 31.2 C 258.3 31.2 258.8 19.1 259.9 19.1 C 261.0 19.1 261.5 20.8 262.6 23.2 C 263.7 25.6 264.2 30.9 265.3 30.9 C 266.3 30.9 266.9 17.8 268 16.5 C 269.0 15.3 269.6 15.3 270.6 15.3 C 271.7 15.3 272.2 18.2 273.3 18.2 C 274.4 18.2 274.9 11.1 276.0 11.1 C 277.1 11.1 277.6 14.2 278.7 16.6 C 279.7 19.1 280.3 23.3 281.4 23.3 C 282.4 23.3 283.0 13.5 284.0 12.4 C 285.1 11.4 285.6 11.4 286.7 11.4 C 287.8 11.4 288.3 19.6 289.4 19.6 C 290.5 19.6 291.0 3.3 292.1 3.3 C 293.1 3.3 293.7 20.0 294.8 21.3 C 295.8 22.5 296.4 22.5 297.4 22.5 C 298.5 22.5 299.0 11.9 300.1 11.2 C 301.2 10.5 301.7 10.5 302.8 10.5 C 303.9 10.5 304.4 18.5 305.5 22.5 C 306.5 26.6 307.1 30.8 308.2 30.8 C 309.2 30.8 309.8 6.4 310.8 6.4 C 311.9 6.4 312.4 10.5 313.5 15.6 C 314.6 20.6 315.1 31.7 316.2 31.7 C 317.3 31.7 317.8 13.9 318.9 13.3 C 319.9 12.7 320.5 12.7 321.6 12.7 C 322.6 12.7 323.2 14.4 324.2 16.7 C 325.3 19.0 325.8 24.0 326.9 24.0 C 328.0 24.0 328.5 24.0 329.6 23.5 C 330.7 22.9 331.2 12.0 332.3 12.0 C 333.3 12.0 333.9 22.9 335 22.9 C 336.0 22.9 336.6 15.9 337.6 15.9 C 338.7 15.9 339.2 16.7 340.3 17.7 C 341.4 18.7 341.9 20.8 343.0 20.8 C 344.1 20.8 344.6 12.5 345.7 12.5 C 346.7 12.5 347.3 27.2 348.4 27.2 C 349.4 27.2 350.0 24.3 351.0 22.6 C 352.1 20.9 352.6 18.7 353.7 18.7 C 354.8 18.7 355.3 35.8 356.4 35.8 C 357.5 35.8 358.0 14.8 359.1 14.8 C 360.1 14.8 360.7 18.4 361.8 20.5 C 362.8 22.6 363.4 25.3 364.4 25.3 C 365.5 25.3 366.0 14.5 367.1 12.0 C 368.2 9.4 368.7 9.4 369.8 9.4 C 370.9 9.4 371.4 13.5 372.5 16.5 C 373.5 19.5 374.1 24.4 375.2 24.4 C 376.2 24.4 376.8 20.1 377.8 20.1 C 378.9 20.1 379.4 21.1 380.5 21.1 C 381.6 21.1 382.1 9.7 383.2 9.7 C 384.3 9.7 384.8 27.3 385.9 27.3 C 386.9 27.3 387.5 12.0 388.6 12.0 C 389.6 12.0 390.2 14.6 391.2 16.7 C 392.3 18.9 392.8 22.8 393.9 22.8 C 395.0 22.8 395.5 21.5 396.6 21.0 C 397.7 20.5 398.2 21.0 399.3 20.4 C 400.3 19.9 400.9 17.5 402 17.5 C 403.0 17.5 403.6 24.1 404.6 27.5 C 405.7 30.8 406.2 34.1 407.3 34.1 C 408.4 34.1 408.9 25.8 410.0 22.0 C 411.1 18.3 411.6 15.2 412.7 15.2 C 413.7 15.2 414.3 22.9 415.4 22.9 C 416.4 22.9 417.0 22.9 418.0 22.4 C 419.1 22 419.6 21.7 420.7 19.1 C 421.8 16.5 422.3 9.5 423.4 9.5 C 424.5 9.5 425.0 26.9 426.1 26.9 C 427.1 26.9 427.7 15.6 428.8 15.6 C 429.8 15.6 430.4 16.1 431.4 16.1 C 432.5 16.1 433.0 8 434.1 8 C 435.2 8 435.7 24.1 436.8 24.1 C 437.9 24.1 438.4 19.0 439.5 19.0 C 440.5 19.0 441.1 24.6 442.2 24.6 C 443.2 24.6 443.8 21.5 444.8 21.5 C 445.9 21.5 446.4 24.8 447.5 24.8 C 448.6 24.8 449.1 16.4 450.2 16.4 C 451.3 16.4 451.8 24.3 452.9 24.3 C 453.9 24.3 454.5 12.2 455.6 12.2 C 456.6 12.2 457.2 18.1 458.2 21.9 C 459.3 25.6 459.8 30.8 460.9 30.8 C 462.0 30.8 462.5 23.8 463.6 21.2 C 464.7 18.6 465.2 17.7 466.3 17.7 C 467.3 17.7 467.9 31.6 469 31.6 C 470.0 31.6 470.6 29.6 471.6 24.7 C 472.7 19.8 473.2 7.1 474.3 7.1 C 475.4 7.1 475.9 21.6 477.0 21.6 C 478.1 21.6 478.6 21.1 479.7 19.0 C 480.7 16.9 481.3 13.3 482.4 11.3 C 483.4 9.2 484.0 8.8 485.0 8.8 C 486.1 8.8 486.6 17.8 487.7 18.9 C 488.8 20.0 489.3 20.0 490.4 20.0 C 491.5 20.0 492.0 14.3 493.1 14.3 C 494.1 14.3 494.7 14.3 495.8 15.0 C 496.8 15.7 497.4 18 498.4 18 C 499.5 18 500.0 8.6 501.1 8.6 C 502.2 8.6 502.7 22.8 503.8 22.8 C 504.9 22.8 505.4 19.7 506.5 19.7 C 507.5 19.7 508.1 19.9 509.2 19.9 C 510.2 19.9 510.8 8.0 511.8 8.0 C 512.9 8.0 513.4 16 514.5 16 C 515.6 16 516.1 16 517.2 16 C 518.3 16 518.8 16.3 519.9 19.1 C 520.9 21.9 521.5 29.9 522.6 29.9 C 523.6 29.9 524.2 19.7 525.2 19.7 C 526.3 19.7 526.8 23.4 527.9 23.4 C 529.0 23.4 529.5 17.3 530.6 17.3 C 531.7 17.3 532.2 21.1 533.3 24.1 C 534.3 27.2 536 32.4 536 32.4" stroke="#4572A7" stroke-width="1"  stroke-linejoin="round" stroke-linecap="round"></path></g><g class="highcharts-markers" visibility="visible"  transform="translate(24,331) scale(1 1)" clip-path="url(#highcharts-4)"></g></g><g class="highcharts-navigator" ><rect fill="rgb(128,179,236)" fill-opacity="0.3" style="cursor:ew-resize ;" x="527" y="331" width="33" height="40"></rect><path fill="none" stroke="#b2b1b6" stroke-width="1" d="M 10 331.5 L 526.5 331.5 526.5 385.5 L 559.5 385.5 L 559.5 331.5 574 331.5 M 527.5 331.5 L 559.5 331.5"></path></g><g class="highcharts-navigator-handle-right" style="cursor:ew-resize;"  transform="translate(560,343)"><rect x="-4.5" y="0.5" width="8" height="15" strokeWidth="1" fill="#ebe7e8" stroke="#b2b1b6" stroke-width="1"></rect><path fill="#ebe7e8" d="M -1.5 4 L -1.5 12 M 0.5 4 L 0.5 12" stroke="#b2b1b6" stroke-width="1"></path></g><text x="292" text-anchor="middle" class="highcharts-title"  style="color:#333333;font-size:16px;fill:#333333;width:520px;" y="22"><tspan>Live random data</tspan></text><g class="highcharts-navigator-handle-left" style="cursor:ew-resize;"  transform="translate(527,343)"><rect x="-4.5" y="0.5" width="8" height="15" strokeWidth="1" fill="#ebe7e8" stroke="#b2b1b6" stroke-width="1"></rect><path fill="#ebe7e8" d="M -1.5 4 L -1.5 12 M 0.5 4 L 0.5 12" stroke="#b2b1b6" stroke-width="1"></path></g><g class="highcharts-axis-labels highcharts-xaxis-labels" ><text x="99.8" style="color:#606060;cursor:default;font-size:11px;fill:#606060;width:84px;text-overflow:clip;" text-anchor="middle" transform="translate(0,0)" y="304" opacity="1">13:49:10</text><text x="193.8" style="color:#606060;cursor:default;font-size:11px;fill:#606060;width:84px;text-overflow:clip;" text-anchor="middle" transform="translate(0,0)" y="304" opacity="1">13:49:20</text><text x="287.8" style="color:#606060;cursor:default;font-size:11px;fill:#606060;width:84px;text-overflow:clip;" text-anchor="middle" transform="translate(0,0)" y="304" opacity="1">13:49:30</text><text x="381.8" style="color:#606060;cursor:default;font-size:11px;fill:#606060;width:84px;text-overflow:clip;" text-anchor="middle" transform="translate(0,0)" y="304" opacity="1">13:49:40</text><text x="475.8" style="color:#606060;cursor:default;font-size:11px;fill:#606060;width:84px;text-overflow:clip;" text-anchor="middle" transform="translate(0,0)" y="304" opacity="1">13:49:50</text><text x="574" style="color:#606060;cursor:default;font-size:11px;fill:#606060;width:84px;text-overflow:clip;" text-anchor="end" transform="translate(0,0)" y="304" opacity="1">13:50:00</text></g><g class="highcharts-axis-labels highcharts-xaxis-labels" ><text x="79.6" style="color:#888;cursor:default;font-size:11px;fill:#888;width:131px;text-overflow:clip;" text-anchor="start" transform="translate(0,0)" y="367" opacity="1">13:35</text><text x="240.4" style="color:#888;cursor:default;font-size:11px;fill:#888;width:131px;text-overflow:clip;" text-anchor="start" transform="translate(0,0)" y="367" opacity="1">13:40</text><text x="401.2" style="color:#888;cursor:default;font-size:11px;fill:#888;width:131px;text-overflow:clip;" text-anchor="start" transform="translate(0,0)" y="367" opacity="1">13:45</text><text x="562.6" style="color:#888;cursor:default;font-size:11px;fill:#888;width:131px;text-overflow:clip;" text-anchor="start" transform="translate(0,0)" y="367" opacity="1">13:50</text></g><g class="highcharts-axis-labels highcharts-yaxis-labels" ><text x="574" style="color:#606060;cursor:default;font-size:11px;fill:#606060;width:183px;text-overflow:clip;" text-anchor="end" transform="translate(0,0)" y="283" opacity="1">-25</text><text x="574" style="color:#606060;cursor:default;font-size:11px;fill:#606060;width:183px;text-overflow:clip;" text-anchor="end" transform="translate(0,0)" y="249" opacity="1">0</text><text x="574" style="color:#606060;cursor:default;font-size:11px;fill:#606060;width:183px;text-overflow:clip;" text-anchor="end" transform="translate(0,0)" y="214" opacity="1">25</text><text x="574" style="color:#606060;cursor:default;font-size:11px;fill:#606060;width:183px;text-overflow:clip;" text-anchor="end" transform="translate(0,0)" y="180" opacity="1">50</text><text x="574" style="color:#606060;cursor:default;font-size:11px;fill:#606060;width:183px;text-overflow:clip;" text-anchor="end" transform="translate(0,0)" y="146" opacity="1">75</text><text x="574" style="color:#606060;cursor:default;font-size:11px;fill:#606060;width:183px;text-overflow:clip;" text-anchor="end" transform="translate(0,0)" y="111" opacity="1">100</text><text x="0" style="color:#606060;cursor:default;font-size:11px;fill:#606060;width:183px;text-overflow:clip;" text-anchor="end" transform="translate(0,0)" y="-9999">125</text></g><g class="highcharts-axis-labels highcharts-yaxis-labels" ></g><g class="highcharts-tooltip"  style="cursor:default;padding:0;white-space:nowrap;" transform="translate(0,-9999)"><path fill="none" d="M 3 0 L 13 0 C 16 0 16 0 16 3 L 16 13 C 16 16 16 16 13 16 L 3 16 C 0 16 0 16 0 13 L 0 3 C 0 0 0 0 3 0"  stroke="black" stroke-opacity="0.0" stroke-width="5" transform="translate(1, 1)"></path><path fill="none" d="M 3 0 L 13 0 C 16 0 16 0 16 3 L 16 13 C 16 16 16 16 13 16 L 3 16 C 0 16 0 16 0 13 L 0 3 C 0 0 0 0 3 0"  stroke="black" stroke-opacity="0.0" stroke-width="3" transform="translate(1, 1)"></path><path fill="none" d="M 3 0 L 13 0 C 16 0 16 0 16 3 L 16 13 C 16 16 16 16 13 16 L 3 16 C 0 16 0 16 0 13 L 0 3 C 0 0 0 0 3 0"  stroke="black" stroke-opacity="0.1" stroke-width="1" transform="translate(1, 1)"></path><path fill="rgb(249, 249, 249)" fill-opacity=" .85" d="M 3 0 L 13 0 C 16 0 16 0 16 3 L 16 13 C 16 16 16 16 13 16 L 3 16 C 0 16 0 16 0 13 L 0 3 C 0 0 0 0 3 0"></path><text x="8"  style="font-size:12px;color:#333333;fill:#333333;" transform="translate(0,20)"></text></g></svg>