<svg version="1.1" style="font-family:&quot;lucida grande&quot;, &quot;lucida sans unicode&quot;, arial, helvetica, sans-serif;font-size:12px;" xmlns="http://www.w3.org/2000/svg" width="584" height="400" viewBox="0 0 584 400"><desc>Created with Highstock 2.1.4</desc><defs><clipPath id="highcharts-1"><rect x="0" y="0" width="540" height="206"></rect></clipPath><clipPath id="highcharts-2"><rect x="-99" y="-79" width="639" height="400"></rect></clipPath><clipPath id="highcharts-3"><rect x="0" y="0" width="540" height="206"></rect></clipPath><clipPath id="highcharts-4"><rect x="-99" y="-79" width="639" height="400"></rect></clipPath><clipPath id="highcharts-5"><rect x="0" y="0" width="540" height="40"></rect></clipPath></defs><rect x="0" y="0" width="584" height="400" strokeWidth="0" fill="#FFFFFF" class=" highcharts-background"></rect><g class="highcharts-scrollbar" transform="translate(10,372)"><rect x="0" y="-0.5" fill="#eeeeee" stroke="#eeeeee" stroke-width="1" rx="0" ry="0" height="14" width="540"></rect><rect y="-0.5" height="14" fill="#bfc8d1" stroke="#bfc8d1" stroke-width="1" rx="0" ry="0" x="509.5" width="16"></rect><path fill="none" stroke="#666" stroke-width="1" visibility="visible" d="M 514 3.5 L 514 9.3 M 517 3.5 L 517 9.3 M 520 3.5 L 520 9.3"></path><g><rect x="-0.5" y="-0.5" width="14" height="14" strokeWidth="1" stroke="#bbb" stroke-width="1" fill="#ebe7e8"></rect><path fill="#666" d="M 8 4 L 8 10 5 7"></path></g><g transform="translate(526,0)"><rect x="-0.5" y="-0.5" width="14" height="14" strokeWidth="1" stroke="#bbb" stroke-width="1" fill="#ebe7e8"></rect><path fill="#666" d="M 6 4 L 6 10 9 7"></path></g></g><g class="highcharts-range-selector-buttons"><text x="10" y="59" style="color:#666;fill:#666;">Zoom</text><g class="highcharts-button"  states="[object Object]" style="cursor:pointer;text-align:center;" transform="translate(46,44)"><rect x="0" y="0" width="32" height="22" strokeWidth="0" fill="#f7f7f7" rx="0" ry="0"></rect><text x="7.5"  style="font-weight:normal;color:#444;fill:#444;" transform="translate(0,14)">1m</text></g><g class="highcharts-button"  states="[object Object]" style="cursor:pointer;text-align:center;" transform="translate(83,44)"><rect x="0" y="0" width="32" height="22" strokeWidth="0" fill="#e7f0f9" rx="0" ry="0"></rect><text x="7.5"  style="font-weight:bold;color:black;fill:black;" transform="translate(0,14)">3m</text></g><g class="highcharts-button"  states="[object Object]" style="cursor:pointer;text-align:center;" transform="translate(120,44)"><rect x="0" y="0" width="32" height="22" strokeWidth="0" fill="#f7f7f7" rx="0" ry="0"></rect><text x="7.5"  style="font-weight:normal;color:#444;fill:#444;" transform="translate(0,14)">6m</text></g><g class="highcharts-button"  states="[object Object]" style="cursor:pointer;text-align:center;" transform="translate(157,44)"><rect x="0" y="0" width="32" height="22" strokeWidth="0" fill="#f7f7f7" rx="0" ry="0"></rect><text x="4"  style="font-weight:normal;color:#444;fill:#444;" transform="translate(0,14)">YTD</text></g><g class="highcharts-button"  states="[object Object]" style="cursor:pointer;text-align:center;" transform="translate(194,44)"><rect x="0" y="0" width="32" height="22" strokeWidth="0" fill="#f7f7f7" rx="0" ry="0"></rect><text x="9.5"  style="font-weight:normal;color:#444;fill:#444;" transform="translate(0,14)">1y</text></g><g class="highcharts-button"  states="[object Object]" style="cursor:pointer;text-align:center;" transform="translate(231,44)"><rect x="0" y="0" width="32" height="22" strokeWidth="0" fill="#f7f7f7" rx="0" ry="0"></rect><text x="10"  style="font-weight:normal;color:#444;fill:#444;" transform="translate(0,14)">All</text></g></g><g class="highcharts-input-group" transform="translate(316,44)" visibility="visible"><g style="fill:#666;" transform="translate(0,0)"><text x="2"  style="font-size:12px;font-family:&quot;lucida grande&quot;, &quot;lucida sans unicode&quot;, arial, helvetica, sans-serif;color:#666;fill:#666;" transform="translate(0,14)">From</text></g><g style="text-align:center;" transform="translate(36,0)"><rect x="0.5" y="0.5" width="94" height="21" strokeWidth="1" fill="none" stroke="silver" stroke-width="1"></rect><text x="13.5"  style="font-size:12px;font-family:&quot;lucida grande&quot;, &quot;lucida sans unicode&quot;, arial, helvetica, sans-serif;color:#444;fill:#444;" transform="translate(0,14)"><tspan>Feb 9, 2011</tspan></text></g><g style="fill:#666;" transform="translate(140,0)"><text x="2"  style="font-size:12px;font-family:&quot;lucida grande&quot;, &quot;lucida sans unicode&quot;, arial, helvetica, sans-serif;color:#666;fill:#666;" transform="translate(0,14)">To</text></g><g style="text-align:center;" transform="translate(164,0)"><rect x="0.5" y="0.5" width="94" height="21" strokeWidth="1" fill="none" stroke="silver" stroke-width="1"></rect><text x="9.5"  style="font-size:12px;font-family:&quot;lucida grande&quot;, &quot;lucida sans unicode&quot;, arial, helvetica, sans-serif;color:#444;fill:#444;" transform="translate(0,14)"><tspan>May 10, 2011</tspan></text></g></g><g class="highcharts-grid" ></g><g class="highcharts-grid" ><path fill="none" d="M 41.5 331 L 41.5 371" stroke="#EEE" stroke-width="1"  opacity="1"></path><path fill="none" d="M 175.5 331 L 175.5 371" stroke="#EEE" stroke-width="1"  opacity="1"></path><path fill="none" d="M 309.5 331 L 309.5 371" stroke="#EEE" stroke-width="1"  opacity="1"></path><path fill="none" d="M 444.5 331 L 444.5 371" stroke="#EEE" stroke-width="1"  opacity="1"></path></g><g class="highcharts-grid" ><path fill="none" d="M 10 285.5 L 550 285.5" stroke="#D8D8D8" stroke-width="1"  opacity="1"></path><path fill="none" d="M 10 233.5 L 550 233.5" stroke="#D8D8D8" stroke-width="1"  opacity="1"></path><path fill="none" d="M 10 182.5 L 550 182.5" stroke="#D8D8D8" stroke-width="1"  opacity="1"></path><path fill="none" d="M 10 131.5 L 550 131.5" stroke="#D8D8D8" stroke-width="1"  opacity="1"></path><path fill="none" d="M 10 78.5 L 550 78.5" stroke="#D8D8D8" stroke-width="1"  opacity="1"></path></g><g class="highcharts-grid" ></g><g class="highcharts-axis" ><path fill="none" d="M 77.5 285 L 77.5 295" stroke="#C0D0E0" stroke-width="1" opacity="1"></path><path fill="none" d="M 161.5 285 L 161.5 295" stroke="#C0D0E0" stroke-width="1" opacity="1"></path><path fill="none" d="M 245.5 285 L 245.5 295" stroke="#C0D0E0" stroke-width="1" opacity="1"></path><path fill="none" d="M 330.5 285 L 330.5 295" stroke="#C0D0E0" stroke-width="1" opacity="1"></path><path fill="none" d="M 414.5 285 L 414.5 295" stroke="#C0D0E0" stroke-width="1" opacity="1"></path><path fill="none" d="M 498.5 285 L 498.5 295" stroke="#C0D0E0" stroke-width="1" opacity="1"></path><path fill="none" d="M 10 285.5 L 550 285.5" stroke="#C0D0E0" stroke-width="1"  visibility="visible"></path></g><g class="highcharts-axis" ></g><g class="highcharts-axis" ><text x="560"  text-anchor="middle" transform="translate(0,0) rotate(90 560 182)" class=" highcharts-yaxis-title" style="color:#707070;fill:#707070;" visibility="visible" y="182"><tspan>Exchange rate</tspan></text></g><g class="highcharts-axis" ></g><g class="highcharts-series-group" ><g class="highcharts-series" visibility="visible"  transform="translate(10,79) scale(1 1)" clip-path="url(#highcharts-3)"><path fill="none" d="M -8.4 32.9 L 0 43.4 L 8.4 30.6 L 16.8 25.3 L 25.3 16.6 L 33.7 18.7 L 42.1 27.3 L 50.6 32.7 L 59.0 40.3 L 67.5 39.1 L 75.9 38.1 L 84.3 47.7 L 92.8 54.3 L 101.2 47.1 L 109.6 54.5 L 118.1 48.8 L 126.5 59.1 L 135 69.0 L 143.4 72.1 L 151.8 69.6 L 160.3 62.2 L 168.7 63.4 L 177.1 52.3 L 185.6 63.0 L 194.0 72.5 L 202.5 72.1 L 210.9 61.1 L 219.3 76.6 L 227.8 92.2 L 236.2 95.5 L 244.6 91.0 L 253.1 84.2 L 261.5 91.0 L 270 82.4 L 278.4 80.9 L 286.8 86.1 L 295.3 86.7 L 303.7 89.8 L 312.1 97.6 L 320.6 94.7 L 329.0 97.6 L 337.5 106.7 L 345.9 103.8 L 354.3 122.1 L 362.8 116.5 L 371.2 122.3 L 379.6 119.4 L 388.1 124.4 L 396.5 117.2 L 405 98.0 L 413.4 111.0 L 421.8 126.0 L 430.3 129.9 L 438.7 129.9 L 447.1 128.9 L 455.6 143.9 L 464.0 151.8 L 472.4 156.9 L 480.9 153.8 L 489.3 152.6 L 497.8 156.5 L 506.2 155.7 L 514.6 129.7 L 523.1 106.5 L 531.5 111.2 L 540 114.3" stroke="#7cb5ec" stroke-width="2"  stroke-linejoin="round" stroke-linecap="round"></path><path fill="none" d="M -18.4 32.9 L -8.4 32.9 L 0 43.4 L 8.4 30.6 L 16.8 25.3 L 25.3 16.6 L 33.7 18.7 L 42.1 27.3 L 50.6 32.7 L 59.0 40.3 L 67.5 39.1 L 75.9 38.1 L 84.3 47.7 L 92.8 54.3 L 101.2 47.1 L 109.6 54.5 L 118.1 48.8 L 126.5 59.1 L 135 69.0 L 143.4 72.1 L 151.8 69.6 L 160.3 62.2 L 168.7 63.4 L 177.1 52.3 L 185.6 63.0 L 194.0 72.5 L 202.5 72.1 L 210.9 61.1 L 219.3 76.6 L 227.8 92.2 L 236.2 95.5 L 244.6 91.0 L 253.1 84.2 L 261.5 91.0 L 270 82.4 L 278.4 80.9 L 286.8 86.1 L 295.3 86.7 L 303.7 89.8 L 312.1 97.6 L 320.6 94.7 L 329.0 97.6 L 337.5 106.7 L 345.9 103.8 L 354.3 122.1 L 362.8 116.5 L 371.2 122.3 L 379.6 119.4 L 388.1 124.4 L 396.5 117.2 L 405 98.0 L 413.4 111.0 L 421.8 126.0 L 430.3 129.9 L 438.7 129.9 L 447.1 128.9 L 455.6 143.9 L 464.0 151.8 L 472.4 156.9 L 480.9 153.8 L 489.3 152.6 L 497.8 156.5 L 506.2 155.7 L 514.6 129.7 L 523.1 106.5 L 531.5 111.2 L 540 114.3 L 550 114.3" stroke-linejoin="round" visibility="visible" stroke="rgb(192,192,192)" stroke-opacity="0.0" stroke-width="22"  class=" highcharts-tracker" style=""></path></g><g class="highcharts-markers highcharts-tracker" visibility="visible"  transform="translate(10,79) scale(1 1)" clip-path="url(#highcharts-2)" style=""></g><g class="highcharts-series" visibility="visible"  transform="translate(10,79) scale(1 1)" clip-path="url(#highcharts-1)"></g><g class="highcharts-markers highcharts-tracker" visibility="visible"  transform="translate(10,79) scale(1 1)" style=""><g style="text-align:center;" transform="translate(462,127)"><path fill="white" d="M -1 0 L 21 0 21 19 -1 19 Z M 11.4 19 L 11.4 29.9" stroke="#434348" stroke-width="1"></path><text x="5.5"  style="font-size:11px;font-weight:bold;" transform="translate(0,14)">A</text></g><g style="text-align:center;" transform="translate(66,9)"><path fill="white" d="M -1 0 L 21 0 21 19 -1 19 Z M 10.9 19 L 10.9 29.1" stroke="#434348" stroke-width="1"></path><text x="5.5"  style="font-size:11px;font-weight:bold;" transform="translate(0,14)">A</text></g></g><g class="highcharts-series" visibility="visible"  transform="translate(10,79) scale(1 1)" clip-path="url(#highcharts-1)"></g><g class="highcharts-markers highcharts-tracker" visibility="visible"  transform="translate(10,79) scale(1 1)" style=""><g style="text-align:center;" transform="translate(302,177)"><path fill="white" d="M 10 0 C 24.6 0 24.6 19 10 19 C -4.6 19 -4.6 0 10 0 Z M 11.1 19 L 11.1 29" stroke="#90ed7d" stroke-width="1"></path><text x="6"  style="font-size:11px;font-weight:bold;" transform="translate(0,14)">B</text></g><g style="text-align:center;" transform="translate(108,177)"><path fill="white" d="M 10 0 C 24.6 0 24.6 19 10 19 C -4.6 19 -4.6 0 10 0 Z M 11.1 19 L 11.1 29" stroke="#90ed7d" stroke-width="1"></path><text x="6"  style="font-size:11px;font-weight:bold;" transform="translate(0,14)">B</text></g></g><g class="highcharts-series" visibility="visible"  transform="translate(10,79) scale(1 1)" clip-path="url(#highcharts-1)"></g><g class="highcharts-markers highcharts-tracker" visibility="visible"  transform="translate(10,79) scale(1 1)" style=""><g style="text-align:center;" transform="translate(362,87)"><path fill="#7cb5ec" d="M 1.8 29.5 L 0 19 0 0 22 0 22 19 0 19 M 1.8 29.5 Z" stroke="#7cb5ec" stroke-width="1"></path><text x="7.5"  style="font-size:11px;font-weight:bold;color:white;fill:white;" transform="translate(0,14)">C</text></g><g style="text-align:center;" transform="translate(177,23)"><path fill="#7cb5ec" d="M 1.1 29.3 L 0 19 0 0 22 0 22 19 0 19 M 1.1 29.3 Z" stroke="#7cb5ec" stroke-width="1"></path><text x="7.5"  style="font-size:11px;font-weight:bold;color:white;fill:white;" transform="translate(0,14)">C</text></g></g><g class="highcharts-series" visibility="visible"  transform="translate(24,331) scale(1 1)" clip-path="url(#highcharts-5)"><path fill="rgb(69,114,167)" fill-opacity="0.0" d="M 0 3.5 C 0 3.5 0.7 4.6 1.2 5.2 C 1.8 5.8 2.0 6.5 2.5 6.5 C 3.0 6.5 3.3 5.3 3.8 5.3 C 4.3 5.3 4.6 6.2 5.1 6.2 C 5.6 6.2 5.9 5.9 6.4 5.3 C 6.9 4.7 7.2 3.3 7.7 3.3 C 8.2 3.3 8.4 4.1 9.0 5.0 C 9.5 5.8 9.7 7.6 10.2 7.6 C 10.8 7.6 11.0 7.5 11.5 7.5 C 12.0 7.5 12.3 8.8 12.8 9.5 C 13.3 10.1 13.6 10.3 14.1 10.8 C 14.6 11.4 14.9 11.7 15.4 12.1 C 15.9 12.4 16.2 12.3 16.7 12.6 C 17.2 12.9 17.4 13.2 18.0 13.8 C 18.5 14.3 18.7 15.2 19.2 15.2 C 19.8 15.2 20.0 14.7 20.5 14.4 C 21.0 14.2 21.3 14.2 21.8 13.9 C 22.3 13.7 22.6 13.2 23.1 13.2 C 23.6 13.2 23.9 13.3 24.4 13.8 C 24.9 14.2 25.2 15.4 25.7 15.4 C 26.2 15.4 26.5 15.4 27.0 15.2 C 27.5 15.0 27.7 14.4 28.3 13.6 C 28.8 12.8 29.0 11.3 29.5 11.3 C 30.1 11.3 30.3 11.5 30.8 11.5 C 31.3 11.5 31.6 11.5 32.1 11.3 C 32.6 11.2 32.9 10.7 33.4 10.7 C 33.9 10.7 34.2 10.8 34.7 10.8 C 35.2 10.8 35.5 10.0 36.0 9.6 C 36.5 9.1 36.7 8.9 37.3 8.5 C 37.8 8.1 38.0 7.5 38.5 7.5 C 39.1 7.5 39.3 7.5 39.8 7.8 C 40.3 8.1 40.6 9.0 41.1 9.0 C 41.6 9.0 41.9 7.4 42.4 7.4 C 42.9 7.4 43.2 8.0 43.7 8.5 C 44.2 9.0 44.5 9.6 45.0 10.0 C 45.5 10.5 45.7 10.8 46.3 10.8 C 46.8 10.8 47.0 10.3 47.5 10.0 C 48.1 9.8 48.3 9.4 48.8 9.4 C 49.3 9.4 49.6 9.7 50.1 9.9 C 50.6 10.1 50.9 10.1 51.4 10.5 C 51.9 10.9 52.2 11.8 52.7 12.0 C 53.2 12.2 53.5 12.2 54.0 12.2 C 54.5 12.2 54.8 11.8 55.3 11.2 C 55.8 10.6 56.0 9.2 56.6 9.2 C 57.1 9.2 57.3 9.2 57.8 9.6 C 58.4 10.0 58.6 10.7 59.1 11.2 C 59.6 11.7 59.9 11.9 60.4 11.9 C 60.9 11.9 61.2 9.5 61.7 9.5 C 62.2 9.5 62.5 9.7 63.0 9.9 C 63.5 10.1 63.8 10.1 64.3 10.3 C 64.8 10.4 65.0 10.5 65.6 10.6 C 66.1 10.8 66.3 10.9 66.8 11.2 C 67.4 11.4 67.6 12.0 68.1 12.0 C 68.6 12.0 68.9 11.7 69.4 11.7 C 69.9 11.7 70.2 11.8 70.7 12.2 C 71.2 12.7 71.5 13.3 72.0 13.9 C 72.5 14.6 72.8 15.0 73.3 15.5 C 73.8 15.9 74.0 15.8 74.6 16.0 C 75.1 16.3 75.3 16.5 75.8 16.8 C 76.4 17.0 76.6 16.9 77.1 17.3 C 77.7 17.8 77.9 18.3 78.4 18.9 C 78.9 19.4 79.2 19.9 79.7 20.1 C 80.2 20.2 80.5 20.2 81.0 20.2 C 81.5 20.2 81.8 20.0 82.3 20.0 C 82.8 20.0 83.1 20.5 83.6 21.0 C 84.1 21.4 84.3 22.2 84.9 22.2 C 85.4 22.2 85.6 20.2 86.1 19.5 C 86.7 18.8 86.9 19.2 87.4 18.8 C 87.9 18.4 88.2 17.6 88.7 17.6 C 89.2 17.6 89.5 17.8 90.0 17.8 C 90.5 17.8 90.8 17.6 91.3 17.3 C 91.8 16.9 92.1 16.0 92.6 16.0 C 93.1 16.0 93.3 17.1 93.9 17.8 C 94.4 18.4 94.6 19.0 95.1 19.0 C 95.7 19.0 95.9 18.9 96.4 18.9 C 96.9 18.9 97.2 20.4 97.7 20.4 C 98.2 20.4 98.5 20.4 99.0 20.3 C 99.5 20.3 99.8 18.4 100.3 17.7 C 100.8 17.0 101.1 17.1 101.6 16.9 C 102.1 16.6 102.4 16.5 102.9 16.5 C 103.4 16.5 103.6 16.5 104.2 16.8 C 104.7 17.0 104.9 17.9 105.4 17.9 C 106.0 17.9 106.2 17.2 106.7 17.0 C 107.2 16.7 107.5 16.9 108.0 16.6 C 108.5 16.3 108.8 15.9 109.3 15.4 C 109.8 14.9 110.1 14.6 110.6 14.3 C 111.1 14.0 111.4 14.3 111.9 13.9 C 112.4 13.4 112.6 12.1 113.2 11.5 C 113.7 10.8 113.9 11.1 114.4 10.8 C 115.0 10.5 115.2 10.0 115.7 9.9 C 116.2 9.7 116.5 9.8 117.0 9.7 C 117.5 9.7 117.8 9.7 118.3 9.4 C 118.8 9.1 119.1 8.1 119.6 8.1 C 120.1 8.1 120.4 9.6 120.9 9.6 C 121.4 9.6 121.6 9.6 122.2 9.5 C 122.7 9.5 122.9 9.4 123.4 9.4 C 124.0 9.4 124.2 10.8 124.7 11.4 C 125.2 12.0 125.5 12.4 126.0 12.4 C 126.5 12.4 126.8 11.2 127.3 11.1 C 127.8 11.1 128.1 11.1 128.6 11.1 C 129.1 11.1 129.4 11.6 129.9 12.0 C 130.4 12.3 130.7 12.8 131.2 12.8 C 131.7 12.8 131.9 11.7 132.5 11.2 C 133.0 10.6 133.2 10.4 133.7 10.0 C 134.3 9.6 134.5 9.1 135.0 9.1 C 135.5 9.1 135.8 9.1 136.3 9.1 C 136.8 9.1 137.1 9.1 137.6 8.9 C 138.1 8.8 138.4 8.5 138.9 8.5 C 139.4 8.5 139.7 9.3 140.2 9.3 C 140.7 9.3 140.9 9.0 141.5 8.4 C 142.0 7.8 142.2 6.5 142.7 6.2 C 143.3 6.0 143.5 6.0 144.0 6.0 C 144.5 6.0 144.8 6.5 145.3 6.5 C 145.8 6.5 146.1 6.5 146.6 6.5 C 147.1 6.5 147.4 6.5 147.9 6.6 C 148.4 6.7 148.7 8.4 149.2 8.4 C 149.7 8.4 149.9 7.9 150.5 7.6 C 151.0 7.4 151.2 7.2 151.7 7.2 C 152.3 7.2 152.5 8.1 153.0 8.5 C 153.6 9.0 153.8 9.4 154.3 9.6 C 154.8 9.7 155.1 9.6 155.6 9.7 C 156.1 9.9 156.4 10.8 156.9 10.8 C 157.4 10.8 157.7 9.9 158.2 9.4 C 158.7 9.0 159.0 8.8 159.5 8.5 C 160.0 8.1 160.2 7.8 160.8 7.8 C 161.3 7.8 161.5 7.8 162.0 7.8 C 162.6 7.9 162.8 8.2 163.3 8.2 C 163.8 8.2 164.1 8.0 164.6 8.0 C 165.1 8.0 165.4 9.5 165.9 9.5 C 166.4 9.5 166.7 9.4 167.2 9.3 C 167.7 9.3 168.0 9.3 168.5 9.3 C 169.0 9.3 169.2 10.5 169.8 10.5 C 170.3 10.5 170.5 9.8 171.0 9.8 C 171.6 9.8 171.8 11.0 172.3 11.7 C 172.8 12.4 173.1 12.6 173.6 13.1 C 174.1 13.7 174.4 14.0 174.9 14.5 C 175.4 15.1 175.7 15.8 176.2 15.8 C 176.7 15.9 177.0 15.9 177.5 15.9 C 178.0 15.9 178.2 15.8 178.8 15.8 C 179.3 15.8 179.5 16.1 180.1 16.1 C 180.6 16.1 180.8 15.9 181.3 15.5 C 181.9 15.1 182.1 14.4 182.6 14.2 C 183.1 14.0 183.4 14.0 183.9 14.0 C 184.4 14.0 184.7 14.1 185.2 14.4 C 185.7 14.8 186.0 15.7 186.5 15.7 C 187.0 15.7 187.3 15.4 187.8 15.1 C 188.3 14.8 188.5 14.1 189.1 14.1 C 189.6 14.1 189.8 14.4 190.3 14.8 C 190.9 15.1 191.1 15.9 191.6 15.9 C 192.1 15.9 192.4 15.9 192.9 15.9 C 193.4 15.9 193.7 15.9 194.2 15.9 C 194.7 15.9 195.0 15.8 195.5 15.8 C 196.0 15.8 196.3 16.0 196.8 16.0 C 197.3 16.0 197.5 15.9 198.1 15.7 C 198.6 15.5 198.8 14.9 199.3 14.9 C 199.9 14.9 200.1 15.2 200.6 15.2 C 201.1 15.2 201.4 15.1 201.9 15.1 C 202.4 15.0 202.7 15.1 203.2 15.0 C 203.7 14.9 204.0 13.7 204.5 13.7 C 205.0 13.7 205.3 13.8 205.8 13.9 C 206.3 14.0 206.6 14.1 207.1 14.4 C 207.6 14.7 207.8 15.1 208.4 15.4 C 208.9 15.7 209.1 15.6 209.6 15.8 C 210.2 15.9 210.4 15.8 210.9 16.0 C 211.4 16.2 211.7 16.3 212.2 16.9 C 212.7 17.6 213.0 18.6 213.5 19.2 C 214.0 19.8 214.3 19.8 214.8 19.8 C 215.3 19.8 215.6 19.3 216.1 19.1 C 216.6 18.9 216.8 18.9 217.4 18.8 C 217.9 18.7 218.1 18.6 218.6 18.6 C 219.2 18.6 219.4 18.7 219.9 18.7 C 220.4 18.7 220.7 17.3 221.2 17.2 C 221.7 17.0 222.0 17.0 222.5 17.0 C 223.0 17.0 223.3 17.1 223.8 17.2 C 224.3 17.2 224.6 17.3 225.1 17.4 C 225.6 17.5 225.8 17.4 226.4 17.5 C 226.9 17.6 227.1 17.9 227.6 18.2 C 228.2 18.4 228.4 18.5 228.9 18.7 C 229.4 18.9 229.7 19.1 230.2 19.1 C 230.7 19.1 231.0 18.6 231.5 18.6 C 232.0 18.6 232.3 19.1 232.8 19.4 C 233.3 19.8 233.6 20.2 234.1 20.2 C 234.6 20.2 234.9 20.1 235.4 20.1 C 235.9 20.1 236.1 20.3 236.7 20.5 C 237.2 20.7 237.4 20.7 237.9 21.0 C 238.5 21.3 238.7 21.8 239.2 22.1 C 239.7 22.3 240.0 22.3 240.5 22.3 C 241.0 22.3 241.3 22.3 241.8 22.2 C 242.3 22.0 242.6 21.7 243.1 21.7 C 243.6 21.7 243.9 21.7 244.4 21.7 C 244.9 21.7 245.1 21.0 245.7 21.0 C 246.2 21.0 246.4 21.0 246.9 21.0 C 247.5 21.0 247.7 21.1 248.2 21.1 C 248.7 21.1 249.0 20.1 249.5 20.1 C 250.0 20.1 250.3 20.6 250.8 20.8 C 251.3 21.0 251.6 20.9 252.1 21.2 C 252.6 21.5 252.9 21.9 253.4 22.3 C 253.9 22.7 254.1 22.9 254.7 23.2 C 255.2 23.5 255.4 23.7 256 23.7 C 256.5 23.7 256.7 23.4 257.2 23.3 C 257.8 23.1 258.0 23.0 258.5 23.0 C 259.0 23.0 259.3 23.2 259.8 23.2 C 260.3 23.2 260.6 21.4 261.1 21.4 C 261.6 21.4 261.9 21.6 262.4 21.8 C 262.9 22.0 263.2 22.3 263.7 22.4 C 264.2 22.6 264.4 22.4 265.0 22.7 C 265.5 22.9 265.7 23.6 266.2 24.0 C 266.8 24.5 267.0 24.6 267.5 25.0 C 268.0 25.5 268.3 26.1 268.8 26.1 C 269.3 26.1 269.6 26.1 270.1 26.1 C 270.6 26.1 270.9 26.0 271.4 26.0 C 271.9 26.0 272.2 26.5 272.7 26.7 C 273.2 26.9 273.4 26.7 274.0 27.0 C 274.5 27.3 274.7 27.7 275.2 28.1 C 275.8 28.5 276.0 29.0 276.5 29.1 C 277.0 29.2 277.3 29.1 277.8 29.2 C 278.3 29.3 278.6 30.4 279.1 30.4 C 279.6 30.4 279.9 30.4 280.4 30.3 C 280.9 30.2 281.2 29.7 281.7 29.5 C 282.2 29.3 282.5 29.5 283.0 29.3 C 283.5 29.0 283.7 27.7 284.3 27.7 C 284.8 27.7 285.0 28.2 285.5 28.6 C 286.1 29.0 286.3 29.4 286.8 29.6 C 287.3 29.9 287.6 29.9 288.1 29.9 C 288.6 29.9 288.9 29.8 289.4 29.7 C 289.9 29.6 290.2 29.3 290.7 29.3 C 291.2 29.3 291.5 30.4 292.0 30.4 C 292.5 30.4 292.7 29.1 293.3 29.1 C 293.8 29.1 294.0 29.1 294.5 29.1 C 295.1 29.2 295.3 29.5 295.8 30.1 C 296.3 30.7 296.6 31.5 297.1 32.1 C 297.6 32.8 297.9 32.9 298.4 33.4 C 298.9 33.9 299.2 34.5 299.7 34.8 C 300.2 35.0 300.5 34.8 301.0 35.0 C 301.5 35.2 301.7 35.7 302.3 35.7 C 302.8 35.7 303.0 35.6 303.5 35.6 C 304.1 35.6 304.3 35.8 304.8 36.0 C 305.3 36.2 305.6 36.6 306.1 36.6 C 306.6 36.6 306.9 36.6 307.4 36.3 C 307.9 36.1 308.2 35.3 308.7 34.9 C 309.2 34.5 309.5 34.3 310.0 34.3 C 310.5 34.3 310.8 34.3 311.3 34.6 C 311.8 34.8 312.0 35.6 312.6 35.6 C 313.1 35.6 313.3 35.5 313.8 35.4 C 314.4 35.2 314.6 35.1 315.1 34.9 C 315.6 34.8 315.9 34.6 316.4 34.6 C 316.9 34.6 317.2 34.6 317.7 34.7 C 318.2 34.9 318.5 35.2 319.0 35.5 C 319.5 35.7 319.8 36.0 320.3 36.1 C 320.8 36.1 321.0 36.1 321.6 36.1 C 322.1 36.1 322.3 36.6 322.8 36.6 C 323.4 36.6 323.6 36.3 324.1 36.0 C 324.6 35.7 324.9 35.7 325.4 35.2 C 325.9 34.8 326.2 34.6 326.7 33.7 C 327.2 32.8 327.5 30.9 328.0 30.6 C 328.5 30.3 328.8 30.4 329.3 30.3 C 329.8 30.1 330.0 30.2 330.6 29.7 C 331.1 29.3 331.3 28.7 331.8 27.9 C 332.4 27.1 332.6 25.6 333.1 25.6 C 333.7 25.6 333.9 26.3 334.4 27.1 C 334.9 27.9 335.2 29.6 335.7 29.6 C 336.2 29.6 336.5 26.7 337.0 25.1 C 337.5 23.5 337.8 21.8 338.3 21.7 C 338.8 21.5 339.1 21.7 339.6 21.5 C 340.1 21.4 340.3 18.1 340.9 16.9 C 341.4 15.7 341.6 15.6 342.1 15.6 C 342.7 15.6 342.9 15.7 343.4 15.7 C 343.9 15.7 344.2 14.7 344.7 14.3 C 345.2 14.0 345.5 13.8 346.0 13.8 C 346.5 13.8 346.8 16.6 347.3 16.6 C 347.8 16.6 348.1 15.0 348.6 15.0 C 349.1 15.0 349.3 16.3 349.9 18.4 C 350.4 20.5 350.6 25.6 351.1 25.6 C 351.7 25.6 351.9 25.0 352.4 25.0 C 352.9 25.0 353.2 25.2 353.7 25.2 C 354.2 25.2 354.5 23.2 355.0 22.1 C 355.5 20.9 355.8 20.3 356.3 19.4 C 356.8 18.5 357.1 17.4 357.6 17.4 C 358.1 17.4 358.4 18.0 358.9 18.0 C 359.4 18.0 359.6 16.5 360.2 16.5 C 360.7 16.5 360.9 16.7 361.4 16.7 C 362.0 16.7 362.2 14.9 362.7 14.9 C 363.2 14.9 363.5 15.2 364.0 15.2 C 364.5 15.2 364.8 14.0 365.3 14.0 C 365.8 14.0 366.1 14.6 366.6 15.8 C 367.1 17.0 367.4 19.1 367.9 20.2 C 368.4 21.3 368.6 21.4 369.2 21.4 C 369.7 21.4 369.9 20.5 370.4 20.1 C 371.0 19.7 371.2 19.4 371.7 19.3 C 372.2 19.3 372.5 19.3 373.0 19.3 C 373.5 19.2 373.8 17.9 374.3 17.9 C 374.8 17.9 375.1 18.4 375.6 19.0 C 376.1 19.6 376.4 20.1 376.9 20.7 C 377.4 21.3 377.6 21.5 378.2 22.1 C 378.7 22.6 378.9 22.9 379.4 23.5 C 380.0 24.1 380.2 24.5 380.7 25.0 C 381.2 25.5 381.5 26.1 382.0 26.1 C 382.5 26.1 382.8 25.5 383.3 25.2 C 383.8 24.8 384.1 24.3 384.6 24.3 C 385.1 24.3 385.4 24.7 385.9 24.9 C 386.4 25.1 386.7 25.4 387.2 25.4 C 387.7 25.4 387.9 24.6 388.5 24.6 C 389.0 24.6 389.2 25.1 389.7 25.5 C 390.3 25.8 390.5 26.4 391.0 26.4 C 391.5 26.4 391.8 26.1 392.3 26.1 C 392.8 26.1 393.1 27.5 393.6 27.5 C 394.1 27.5 394.4 26.4 394.9 26.4 C 395.4 26.4 395.7 26.5 396.2 26.7 C 396.7 26.8 396.9 27.1 397.5 27.1 C 398.0 27.1 398.2 26.9 398.7 26.9 C 399.3 26.9 399.5 27.9 400.0 28.5 C 400.5 29.0 400.8 29.6 401.3 29.7 C 401.8 29.8 402.1 29.8 402.6 29.8 C 403.1 29.8 403.4 29.0 403.9 29.0 C 404.4 29.0 404.7 29.5 405.2 29.9 C 405.7 30.2 405.9 30.6 406.5 30.9 C 407.0 31.3 407.2 31.6 407.7 31.6 C 408.3 31.6 408.5 30.3 409.0 30.3 C 409.6 30.3 409.8 30.3 410.3 30.5 C 410.8 30.7 411.1 31.3 411.6 31.3 C 412.1 31.3 412.4 31.1 412.9 31.1 C 413.4 31.1 413.7 31.5 414.2 31.6 C 414.7 31.7 415.0 31.7 415.5 31.7 C 416.0 31.7 416.2 30.6 416.8 29.9 C 417.3 29.2 417.5 28.8 418.0 28.3 C 418.6 27.8 418.8 27.3 419.3 27.3 C 419.8 27.3 420.1 27.3 420.6 27.4 C 421.1 27.5 421.4 27.5 421.9 27.7 C 422.4 27.9 422.7 28.3 423.2 28.3 C 423.7 28.3 424.0 27.1 424.5 26.5 C 425.0 25.9 425.2 25.7 425.8 25.2 C 426.3 24.7 426.5 24.4 427.0 23.9 C 427.6 23.5 427.8 23.3 428.3 22.9 C 428.8 22.6 429.1 22.4 429.6 22.2 C 430.1 22.0 430.4 21.9 430.9 21.9 C 431.4 21.9 431.7 22.2 432.2 22.3 C 432.7 22.4 433.0 22.6 433.5 22.6 C 434.0 22.6 434.2 22.6 434.8 22.6 C 435.3 22.6 435.5 20.8 436.1 20.8 C 436.6 20.8 436.8 21.5 437.3 21.5 C 437.9 21.5 438.1 20.8 438.6 20.8 C 439.1 20.8 439.4 22.1 439.9 22.1 C 440.4 22.1 440.7 21.0 441.2 20.5 C 441.7 20.0 442.0 20.4 442.5 19.6 C 443.0 18.8 443.3 17.6 443.8 16.5 C 444.3 15.4 444.5 14.8 445.1 14.0 C 445.6 13.2 445.8 12.9 446.3 12.4 C 446.9 11.9 447.1 11.9 447.6 11.5 C 448.1 11.1 448.4 10.9 448.9 10.4 C 449.4 9.9 449.7 8.9 450.2 8.9 C 450.7 8.9 451.0 11.7 451.5 11.7 C 452.0 11.7 452.3 11.7 452.8 11.7 C 453.3 11.7 453.5 11.7 454.1 12.0 C 454.6 12.2 454.8 13.6 455.3 14.3 C 455.9 15.1 456.1 15.2 456.6 15.7 C 457.1 16.1 457.4 16.2 457.9 16.6 C 458.4 16.9 458.7 17.1 459.2 17.7 C 459.7 18.2 460.0 19.1 460.5 19.1 C 461.0 19.1 461.3 17.3 461.8 16.7 C 462.3 16.0 462.6 16.2 463.1 15.8 C 463.6 15.5 463.8 14.9 464.4 14.9 C 464.9 14.9 465.1 15.6 465.6 15.6 C 466.2 15.6 466.4 15.2 466.9 15.2 C 467.4 15.2 467.7 16.5 468.2 17.5 C 468.7 18.4 469.0 19.0 469.5 19.9 C 470.0 20.9 470.3 21.4 470.8 22.2 C 471.3 23.1 471.6 23.5 472.1 24.0 C 472.6 24.5 472.8 24.7 473.4 24.7 C 473.9 24.7 474.1 24.4 474.6 24.4 C 475.2 24.3 475.4 24.3 475.9 24.3 C 476.4 24.3 476.7 25.5 477.2 25.5 C 477.7 25.5 478.0 23.9 478.5 23.2 C 479.0 22.5 479.3 22.6 479.8 22.1 C 480.3 21.6 480.6 21.2 481.1 20.5 C 481.6 19.9 481.8 18.9 482.4 18.9 C 482.9 18.9 483.1 19.3 483.6 19.5 C 484.2 19.7 484.4 19.7 484.9 19.7 C 485.4 19.7 485.7 18.4 486.2 18.4 C 486.7 18.4 487.0 19.4 487.5 19.4 C 488.0 19.4 488.3 18.6 488.8 18.6 C 489.3 18.6 489.6 18.6 490.1 18.7 C 490.6 18.8 490.9 20.2 491.4 21.0 C 491.9 21.8 492.1 22.4 492.7 22.7 C 493.2 23.0 493.4 23.0 493.9 23.0 C 494.5 23.0 494.7 22.5 495.2 22.3 C 495.7 22.1 496.0 22.0 496.5 22.0 C 497.0 22.0 497.3 22.7 497.8 23.2 C 498.3 23.6 498.6 24.1 499.1 24.2 C 499.6 24.3 499.9 24.2 500.4 24.3 C 500.9 24.4 501.1 24.8 501.7 25.2 C 502.2 25.5 502.4 26.1 502.9 26.1 C 503.5 26.1 503.7 26.1 504.2 26.1 C 504.7 26.1 505.0 26.7 505.5 27.2 C 506.0 27.6 506.3 28.2 506.8 28.2 C 507.3 28.2 507.6 28.1 508.1 28.1 C 508.6 28.1 508.9 30.0 509.4 30.0 C 509.9 30.0 510.1 29.6 510.7 29.2 C 511.2 28.8 512 27.8 512 27.8 L 512 40 L 0 40" ></path><path fill="none" d="M 0 3.5 C 0 3.5 0.7 4.6 1.2 5.2 C 1.8 5.8 2.0 6.5 2.5 6.5 C 3.0 6.5 3.3 5.3 3.8 5.3 C 4.3 5.3 4.6 6.2 5.1 6.2 C 5.6 6.2 5.9 5.9 6.4 5.3 C 6.9 4.7 7.2 3.3 7.7 3.3 C 8.2 3.3 8.4 4.1 9.0 5.0 C 9.5 5.8 9.7 7.6 10.2 7.6 C 10.8 7.6 11.0 7.5 11.5 7.5 C 12.0 7.5 12.3 8.8 12.8 9.5 C 13.3 10.1 13.6 10.3 14.1 10.8 C 14.6 11.4 14.9 11.7 15.4 12.1 C 15.9 12.4 16.2 12.3 16.7 12.6 C 17.2 12.9 17.4 13.2 18.0 13.8 C 18.5 14.3 18.7 15.2 19.2 15.2 C 19.8 15.2 20.0 14.7 20.5 14.4 C 21.0 14.2 21.3 14.2 21.8 13.9 C 22.3 13.7 22.6 13.2 23.1 13.2 C 23.6 13.2 23.9 13.3 24.4 13.8 C 24.9 14.2 25.2 15.4 25.7 15.4 C 26.2 15.4 26.5 15.4 27.0 15.2 C 27.5 15.0 27.7 14.4 28.3 13.6 C 28.8 12.8 29.0 11.3 29.5 11.3 C 30.1 11.3 30.3 11.5 30.8 11.5 C 31.3 11.5 31.6 11.5 32.1 11.3 C 32.6 11.2 32.9 10.7 33.4 10.7 C 33.9 10.7 34.2 10.8 34.7 10.8 C 35.2 10.8 35.5 10.0 36.0 9.6 C 36.5 9.1 36.7 8.9 37.3 8.5 C 37.8 8.1 38.0 7.5 38.5 7.5 C 39.1 7.5 39.3 7.5 39.8 7.8 C 40.3 8.1 40.6 9.0 41.1 9.0 C 41.6 9.0 41.9 7.4 42.4 7.4 C 42.9 7.4 43.2 8.0 43.7 8.5 C 44.2 9.0 44.5 9.6 45.0 10.0 C 45.5 10.5 45.7 10.8 46.3 10.8 C 46.8 10.8 47.0 10.3 47.5 10.0 C 48.1 9.8 48.3 9.4 48.8 9.4 C 49.3 9.4 49.6 9.7 50.1 9.9 C 50.6 10.1 50.9 10.1 51.4 10.5 C 51.9 10.9 52.2 11.8 52.7 12.0 C 53.2 12.2 53.5 12.2 54.0 12.2 C 54.5 12.2 54.8 11.8 55.3 11.2 C 55.8 10.6 56.0 9.2 56.6 9.2 C 57.1 9.2 57.3 9.2 57.8 9.6 C 58.4 10.0 58.6 10.7 59.1 11.2 C 59.6 11.7 59.9 11.9 60.4 11.9 C 60.9 11.9 61.2 9.5 61.7 9.5 C 62.2 9.5 62.5 9.7 63.0 9.9 C 63.5 10.1 63.8 10.1 64.3 10.3 C 64.8 10.4 65.0 10.5 65.6 10.6 C 66.1 10.8 66.3 10.9 66.8 11.2 C 67.4 11.4 67.6 12.0 68.1 12.0 C 68.6 12.0 68.9 11.7 69.4 11.7 C 69.9 11.7 70.2 11.8 70.7 12.2 C 71.2 12.7 71.5 13.3 72.0 13.9 C 72.5 14.6 72.8 15.0 73.3 15.5 C 73.8 15.9 74.0 15.8 74.6 16.0 C 75.1 16.3 75.3 16.5 75.8 16.8 C 76.4 17.0 76.6 16.9 77.1 17.3 C 77.7 17.8 77.9 18.3 78.4 18.9 C 78.9 19.4 79.2 19.9 79.7 20.1 C 80.2 20.2 80.5 20.2 81.0 20.2 C 81.5 20.2 81.8 20.0 82.3 20.0 C 82.8 20.0 83.1 20.5 83.6 21.0 C 84.1 21.4 84.3 22.2 84.9 22.2 C 85.4 22.2 85.6 20.2 86.1 19.5 C 86.7 18.8 86.9 19.2 87.4 18.8 C 87.9 18.4 88.2 17.6 88.7 17.6 C 89.2 17.6 89.5 17.8 90.0 17.8 C 90.5 17.8 90.8 17.6 91.3 17.3 C 91.8 16.9 92.1 16.0 92.6 16.0 C 93.1 16.0 93.3 17.1 93.9 17.8 C 94.4 18.4 94.6 19.0 95.1 19.0 C 95.7 19.0 95.9 18.9 96.4 18.9 C 96.9 18.9 97.2 20.4 97.7 20.4 C 98.2 20.4 98.5 20.4 99.0 20.3 C 99.5 20.3 99.8 18.4 100.3 17.7 C 100.8 17.0 101.1 17.1 101.6 16.9 C 102.1 16.6 102.4 16.5 102.9 16.5 C 103.4 16.5 103.6 16.5 104.2 16.8 C 104.7 17.0 104.9 17.9 105.4 17.9 C 106.0 17.9 106.2 17.2 106.7 17.0 C 107.2 16.7 107.5 16.9 108.0 16.6 C 108.5 16.3 108.8 15.9 109.3 15.4 C 109.8 14.9 110.1 14.6 110.6 14.3 C 111.1 14.0 111.4 14.3 111.9 13.9 C 112.4 13.4 112.6 12.1 113.2 11.5 C 113.7 10.8 113.9 11.1 114.4 10.8 C 115.0 10.5 115.2 10.0 115.7 9.9 C 116.2 9.7 116.5 9.8 117.0 9.7 C 117.5 9.7 117.8 9.7 118.3 9.4 C 118.8 9.1 119.1 8.1 119.6 8.1 C 120.1 8.1 120.4 9.6 120.9 9.6 C 121.4 9.6 121.6 9.6 122.2 9.5 C 122.7 9.5 122.9 9.4 123.4 9.4 C 124.0 9.4 124.2 10.8 124.7 11.4 C 125.2 12.0 125.5 12.4 126.0 12.4 C 126.5 12.4 126.8 11.2 127.3 11.1 C 127.8 11.1 128.1 11.1 128.6 11.1 C 129.1 11.1 129.4 11.6 129.9 12.0 C 130.4 12.3 130.7 12.8 131.2 12.8 C 131.7 12.8 131.9 11.7 132.5 11.2 C 133.0 10.6 133.2 10.4 133.7 10.0 C 134.3 9.6 134.5 9.1 135.0 9.1 C 135.5 9.1 135.8 9.1 136.3 9.1 C 136.8 9.1 137.1 9.1 137.6 8.9 C 138.1 8.8 138.4 8.5 138.9 8.5 C 139.4 8.5 139.7 9.3 140.2 9.3 C 140.7 9.3 140.9 9.0 141.5 8.4 C 142.0 7.8 142.2 6.5 142.7 6.2 C 143.3 6.0 143.5 6.0 144.0 6.0 C 144.5 6.0 144.8 6.5 145.3 6.5 C 145.8 6.5 146.1 6.5 146.6 6.5 C 147.1 6.5 147.4 6.5 147.9 6.6 C 148.4 6.7 148.7 8.4 149.2 8.4 C 149.7 8.4 149.9 7.9 150.5 7.6 C 151.0 7.4 151.2 7.2 151.7 7.2 C 152.3 7.2 152.5 8.1 153.0 8.5 C 153.6 9.0 153.8 9.4 154.3 9.6 C 154.8 9.7 155.1 9.6 155.6 9.7 C 156.1 9.9 156.4 10.8 156.9 10.8 C 157.4 10.8 157.7 9.9 158.2 9.4 C 158.7 9.0 159.0 8.8 159.5 8.5 C 160.0 8.1 160.2 7.8 160.8 7.8 C 161.3 7.8 161.5 7.8 162.0 7.8 C 162.6 7.9 162.8 8.2 163.3 8.2 C 163.8 8.2 164.1 8.0 164.6 8.0 C 165.1 8.0 165.4 9.5 165.9 9.5 C 166.4 9.5 166.7 9.4 167.2 9.3 C 167.7 9.3 168.0 9.3 168.5 9.3 C 169.0 9.3 169.2 10.5 169.8 10.5 C 170.3 10.5 170.5 9.8 171.0 9.8 C 171.6 9.8 171.8 11.0 172.3 11.7 C 172.8 12.4 173.1 12.6 173.6 13.1 C 174.1 13.7 174.4 14.0 174.9 14.5 C 175.4 15.1 175.7 15.8 176.2 15.8 C 176.7 15.9 177.0 15.9 177.5 15.9 C 178.0 15.9 178.2 15.8 178.8 15.8 C 179.3 15.8 179.5 16.1 180.1 16.1 C 180.6 16.1 180.8 15.9 181.3 15.5 C 181.9 15.1 182.1 14.4 182.6 14.2 C 183.1 14.0 183.4 14.0 183.9 14.0 C 184.4 14.0 184.7 14.1 185.2 14.4 C 185.7 14.8 186.0 15.7 186.5 15.7 C 187.0 15.7 187.3 15.4 187.8 15.1 C 188.3 14.8 188.5 14.1 189.1 14.1 C 189.6 14.1 189.8 14.4 190.3 14.8 C 190.9 15.1 191.1 15.9 191.6 15.9 C 192.1 15.9 192.4 15.9 192.9 15.9 C 193.4 15.9 193.7 15.9 194.2 15.9 C 194.7 15.9 195.0 15.8 195.5 15.8 C 196.0 15.8 196.3 16.0 196.8 16.0 C 197.3 16.0 197.5 15.9 198.1 15.7 C 198.6 15.5 198.8 14.9 199.3 14.9 C 199.9 14.9 200.1 15.2 200.6 15.2 C 201.1 15.2 201.4 15.1 201.9 15.1 C 202.4 15.0 202.7 15.1 203.2 15.0 C 203.7 14.9 204.0 13.7 204.5 13.7 C 205.0 13.7 205.3 13.8 205.8 13.9 C 206.3 14.0 206.6 14.1 207.1 14.4 C 207.6 14.7 207.8 15.1 208.4 15.4 C 208.9 15.7 209.1 15.6 209.6 15.8 C 210.2 15.9 210.4 15.8 210.9 16.0 C 211.4 16.2 211.7 16.3 212.2 16.9 C 212.7 17.6 213.0 18.6 213.5 19.2 C 214.0 19.8 214.3 19.8 214.8 19.8 C 215.3 19.8 215.6 19.3 216.1 19.1 C 216.6 18.9 216.8 18.9 217.4 18.8 C 217.9 18.7 218.1 18.6 218.6 18.6 C 219.2 18.6 219.4 18.7 219.9 18.7 C 220.4 18.7 220.7 17.3 221.2 17.2 C 221.7 17.0 222.0 17.0 222.5 17.0 C 223.0 17.0 223.3 17.1 223.8 17.2 C 224.3 17.2 224.6 17.3 225.1 17.4 C 225.6 17.5 225.8 17.4 226.4 17.5 C 226.9 17.6 227.1 17.9 227.6 18.2 C 228.2 18.4 228.4 18.5 228.9 18.7 C 229.4 18.9 229.7 19.1 230.2 19.1 C 230.7 19.1 231.0 18.6 231.5 18.6 C 232.0 18.6 232.3 19.1 232.8 19.4 C 233.3 19.8 233.6 20.2 234.1 20.2 C 234.6 20.2 234.9 20.1 235.4 20.1 C 235.9 20.1 236.1 20.3 236.7 20.5 C 237.2 20.7 237.4 20.7 237.9 21.0 C 238.5 21.3 238.7 21.8 239.2 22.1 C 239.7 22.3 240.0 22.3 240.5 22.3 C 241.0 22.3 241.3 22.3 241.8 22.2 C 242.3 22.0 242.6 21.7 243.1 21.7 C 243.6 21.7 243.9 21.7 244.4 21.7 C 244.9 21.7 245.1 21.0 245.7 21.0 C 246.2 21.0 246.4 21.0 246.9 21.0 C 247.5 21.0 247.7 21.1 248.2 21.1 C 248.7 21.1 249.0 20.1 249.5 20.1 C 250.0 20.1 250.3 20.6 250.8 20.8 C 251.3 21.0 251.6 20.9 252.1 21.2 C 252.6 21.5 252.9 21.9 253.4 22.3 C 253.9 22.7 254.1 22.9 254.7 23.2 C 255.2 23.5 255.4 23.7 256 23.7 C 256.5 23.7 256.7 23.4 257.2 23.3 C 257.8 23.1 258.0 23.0 258.5 23.0 C 259.0 23.0 259.3 23.2 259.8 23.2 C 260.3 23.2 260.6 21.4 261.1 21.4 C 261.6 21.4 261.9 21.6 262.4 21.8 C 262.9 22.0 263.2 22.3 263.7 22.4 C 264.2 22.6 264.4 22.4 265.0 22.7 C 265.5 22.9 265.7 23.6 266.2 24.0 C 266.8 24.5 267.0 24.6 267.5 25.0 C 268.0 25.5 268.3 26.1 268.8 26.1 C 269.3 26.1 269.6 26.1 270.1 26.1 C 270.6 26.1 270.9 26.0 271.4 26.0 C 271.9 26.0 272.2 26.5 272.7 26.7 C 273.2 26.9 273.4 26.7 274.0 27.0 C 274.5 27.3 274.7 27.7 275.2 28.1 C 275.8 28.5 276.0 29.0 276.5 29.1 C 277.0 29.2 277.3 29.1 277.8 29.2 C 278.3 29.3 278.6 30.4 279.1 30.4 C 279.6 30.4 279.9 30.4 280.4 30.3 C 280.9 30.2 281.2 29.7 281.7 29.5 C 282.2 29.3 282.5 29.5 283.0 29.3 C 283.5 29.0 283.7 27.7 284.3 27.7 C 284.8 27.7 285.0 28.2 285.5 28.6 C 286.1 29.0 286.3 29.4 286.8 29.6 C 287.3 29.9 287.6 29.9 288.1 29.9 C 288.6 29.9 288.9 29.8 289.4 29.7 C 289.9 29.6 290.2 29.3 290.7 29.3 C 291.2 29.3 291.5 30.4 292.0 30.4 C 292.5 30.4 292.7 29.1 293.3 29.1 C 293.8 29.1 294.0 29.1 294.5 29.1 C 295.1 29.2 295.3 29.5 295.8 30.1 C 296.3 30.7 296.6 31.5 297.1 32.1 C 297.6 32.8 297.9 32.9 298.4 33.4 C 298.9 33.9 299.2 34.5 299.7 34.8 C 300.2 35.0 300.5 34.8 301.0 35.0 C 301.5 35.2 301.7 35.7 302.3 35.7 C 302.8 35.7 303.0 35.6 303.5 35.6 C 304.1 35.6 304.3 35.8 304.8 36.0 C 305.3 36.2 305.6 36.6 306.1 36.6 C 306.6 36.6 306.9 36.6 307.4 36.3 C 307.9 36.1 308.2 35.3 308.7 34.9 C 309.2 34.5 309.5 34.3 310.0 34.3 C 310.5 34.3 310.8 34.3 311.3 34.6 C 311.8 34.8 312.0 35.6 312.6 35.6 C 313.1 35.6 313.3 35.5 313.8 35.4 C 314.4 35.2 314.6 35.1 315.1 34.9 C 315.6 34.8 315.9 34.6 316.4 34.6 C 316.9 34.6 317.2 34.6 317.7 34.7 C 318.2 34.9 318.5 35.2 319.0 35.5 C 319.5 35.7 319.8 36.0 320.3 36.1 C 320.8 36.1 321.0 36.1 321.6 36.1 C 322.1 36.1 322.3 36.6 322.8 36.6 C 323.4 36.6 323.6 36.3 324.1 36.0 C 324.6 35.7 324.9 35.7 325.4 35.2 C 325.9 34.8 326.2 34.6 326.7 33.7 C 327.2 32.8 327.5 30.9 328.0 30.6 C 328.5 30.3 328.8 30.4 329.3 30.3 C 329.8 30.1 330.0 30.2 330.6 29.7 C 331.1 29.3 331.3 28.7 331.8 27.9 C 332.4 27.1 332.6 25.6 333.1 25.6 C 333.7 25.6 333.9 26.3 334.4 27.1 C 334.9 27.9 335.2 29.6 335.7 29.6 C 336.2 29.6 336.5 26.7 337.0 25.1 C 337.5 23.5 337.8 21.8 338.3 21.7 C 338.8 21.5 339.1 21.7 339.6 21.5 C 340.1 21.4 340.3 18.1 340.9 16.9 C 341.4 15.7 341.6 15.6 342.1 15.6 C 342.7 15.6 342.9 15.7 343.4 15.7 C 343.9 15.7 344.2 14.7 344.7 14.3 C 345.2 14.0 345.5 13.8 346.0 13.8 C 346.5 13.8 346.8 16.6 347.3 16.6 C 347.8 16.6 348.1 15.0 348.6 15.0 C 349.1 15.0 349.3 16.3 349.9 18.4 C 350.4 20.5 350.6 25.6 351.1 25.6 C 351.7 25.6 351.9 25.0 352.4 25.0 C 352.9 25.0 353.2 25.2 353.7 25.2 C 354.2 25.2 354.5 23.2 355.0 22.1 C 355.5 20.9 355.8 20.3 356.3 19.4 C 356.8 18.5 357.1 17.4 357.6 17.4 C 358.1 17.4 358.4 18.0 358.9 18.0 C 359.4 18.0 359.6 16.5 360.2 16.5 C 360.7 16.5 360.9 16.7 361.4 16.7 C 362.0 16.7 362.2 14.9 362.7 14.9 C 363.2 14.9 363.5 15.2 364.0 15.2 C 364.5 15.2 364.8 14.0 365.3 14.0 C 365.8 14.0 366.1 14.6 366.6 15.8 C 367.1 17.0 367.4 19.1 367.9 20.2 C 368.4 21.3 368.6 21.4 369.2 21.4 C 369.7 21.4 369.9 20.5 370.4 20.1 C 371.0 19.7 371.2 19.4 371.7 19.3 C 372.2 19.3 372.5 19.3 373.0 19.3 C 373.5 19.2 373.8 17.9 374.3 17.9 C 374.8 17.9 375.1 18.4 375.6 19.0 C 376.1 19.6 376.4 20.1 376.9 20.7 C 377.4 21.3 377.6 21.5 378.2 22.1 C 378.7 22.6 378.9 22.9 379.4 23.5 C 380.0 24.1 380.2 24.5 380.7 25.0 C 381.2 25.5 381.5 26.1 382.0 26.1 C 382.5 26.1 382.8 25.5 383.3 25.2 C 383.8 24.8 384.1 24.3 384.6 24.3 C 385.1 24.3 385.4 24.7 385.9 24.9 C 386.4 25.1 386.7 25.4 387.2 25.4 C 387.7 25.4 387.9 24.6 388.5 24.6 C 389.0 24.6 389.2 25.1 389.7 25.5 C 390.3 25.8 390.5 26.4 391.0 26.4 C 391.5 26.4 391.8 26.1 392.3 26.1 C 392.8 26.1 393.1 27.5 393.6 27.5 C 394.1 27.5 394.4 26.4 394.9 26.4 C 395.4 26.4 395.7 26.5 396.2 26.7 C 396.7 26.8 396.9 27.1 397.5 27.1 C 398.0 27.1 398.2 26.9 398.7 26.9 C 399.3 26.9 399.5 27.9 400.0 28.5 C 400.5 29.0 400.8 29.6 401.3 29.7 C 401.8 29.8 402.1 29.8 402.6 29.8 C 403.1 29.8 403.4 29.0 403.9 29.0 C 404.4 29.0 404.7 29.5 405.2 29.9 C 405.7 30.2 405.9 30.6 406.5 30.9 C 407.0 31.3 407.2 31.6 407.7 31.6 C 408.3 31.6 408.5 30.3 409.0 30.3 C 409.6 30.3 409.8 30.3 410.3 30.5 C 410.8 30.7 411.1 31.3 411.6 31.3 C 412.1 31.3 412.4 31.1 412.9 31.1 C 413.4 31.1 413.7 31.5 414.2 31.6 C 414.7 31.7 415.0 31.7 415.5 31.7 C 416.0 31.7 416.2 30.6 416.8 29.9 C 417.3 29.2 417.5 28.8 418.0 28.3 C 418.6 27.8 418.8 27.3 419.3 27.3 C 419.8 27.3 420.1 27.3 420.6 27.4 C 421.1 27.5 421.4 27.5 421.9 27.7 C 422.4 27.9 422.7 28.3 423.2 28.3 C 423.7 28.3 424.0 27.1 424.5 26.5 C 425.0 25.9 425.2 25.7 425.8 25.2 C 426.3 24.7 426.5 24.4 427.0 23.9 C 427.6 23.5 427.8 23.3 428.3 22.9 C 428.8 22.6 429.1 22.4 429.6 22.2 C 430.1 22.0 430.4 21.9 430.9 21.9 C 431.4 21.9 431.7 22.2 432.2 22.3 C 432.7 22.4 433.0 22.6 433.5 22.6 C 434.0 22.6 434.2 22.6 434.8 22.6 C 435.3 22.6 435.5 20.8 436.1 20.8 C 436.6 20.8 436.8 21.5 437.3 21.5 C 437.9 21.5 438.1 20.8 438.6 20.8 C 439.1 20.8 439.4 22.1 439.9 22.1 C 440.4 22.1 440.7 21.0 441.2 20.5 C 441.7 20.0 442.0 20.4 442.5 19.6 C 443.0 18.8 443.3 17.6 443.8 16.5 C 444.3 15.4 444.5 14.8 445.1 14.0 C 445.6 13.2 445.8 12.9 446.3 12.4 C 446.9 11.9 447.1 11.9 447.6 11.5 C 448.1 11.1 448.4 10.9 448.9 10.4 C 449.4 9.9 449.7 8.9 450.2 8.9 C 450.7 8.9 451.0 11.7 451.5 11.7 C 452.0 11.7 452.3 11.7 452.8 11.7 C 453.3 11.7 453.5 11.7 454.1 12.0 C 454.6 12.2 454.8 13.6 455.3 14.3 C 455.9 15.1 456.1 15.2 456.6 15.7 C 457.1 16.1 457.4 16.2 457.9 16.6 C 458.4 16.9 458.7 17.1 459.2 17.7 C 459.7 18.2 460.0 19.1 460.5 19.1 C 461.0 19.1 461.3 17.3 461.8 16.7 C 462.3 16.0 462.6 16.2 463.1 15.8 C 463.6 15.5 463.8 14.9 464.4 14.9 C 464.9 14.9 465.1 15.6 465.6 15.6 C 466.2 15.6 466.4 15.2 466.9 15.2 C 467.4 15.2 467.7 16.5 468.2 17.5 C 468.7 18.4 469.0 19.0 469.5 19.9 C 470.0 20.9 470.3 21.4 470.8 22.2 C 471.3 23.1 471.6 23.5 472.1 24.0 C 472.6 24.5 472.8 24.7 473.4 24.7 C 473.9 24.7 474.1 24.4 474.6 24.4 C 475.2 24.3 475.4 24.3 475.9 24.3 C 476.4 24.3 476.7 25.5 477.2 25.5 C 477.7 25.5 478.0 23.9 478.5 23.2 C 479.0 22.5 479.3 22.6 479.8 22.1 C 480.3 21.6 480.6 21.2 481.1 20.5 C 481.6 19.9 481.8 18.9 482.4 18.9 C 482.9 18.9 483.1 19.3 483.6 19.5 C 484.2 19.7 484.4 19.7 484.9 19.7 C 485.4 19.7 485.7 18.4 486.2 18.4 C 486.7 18.4 487.0 19.4 487.5 19.4 C 488.0 19.4 488.3 18.6 488.8 18.6 C 489.3 18.6 489.6 18.6 490.1 18.7 C 490.6 18.8 490.9 20.2 491.4 21.0 C 491.9 21.8 492.1 22.4 492.7 22.7 C 493.2 23.0 493.4 23.0 493.9 23.0 C 494.5 23.0 494.7 22.5 495.2 22.3 C 495.7 22.1 496.0 22.0 496.5 22.0 C 497.0 22.0 497.3 22.7 497.8 23.2 C 498.3 23.6 498.6 24.1 499.1 24.2 C 499.6 24.3 499.9 24.2 500.4 24.3 C 500.9 24.4 501.1 24.8 501.7 25.2 C 502.2 25.5 502.4 26.1 502.9 26.1 C 503.5 26.1 503.7 26.1 504.2 26.1 C 504.7 26.1 505.0 26.7 505.5 27.2 C 506.0 27.6 506.3 28.2 506.8 28.2 C 507.3 28.2 507.6 28.1 508.1 28.1 C 508.6 28.1 508.9 30.0 509.4 30.0 C 509.9 30.0 510.1 29.6 510.7 29.2 C 511.2 28.8 512 27.8 512 27.8" stroke="#4572A7" stroke-width="1"  stroke-linejoin="round" stroke-linecap="round"></path></g><g class="highcharts-markers" visibility="visible"  transform="translate(24,331) scale(1 1)" clip-path="url(#highcharts-4)"></g></g><g class="highcharts-navigator" ><rect fill="rgb(128,179,236)" fill-opacity="0.3" style="cursor:ew-resize ;" x="519" y="331" width="17" height="40"></rect><path fill="none" stroke="#b2b1b6" stroke-width="1" d="M 10 331.5 L 518.5 331.5 518.5 385.5 L 535.5 385.5 L 535.5 331.5 550 331.5 M 519.5 331.5 L 535.5 331.5"></path></g><g class="highcharts-navigator-handle-right" style="cursor:ew-resize;"  transform="translate(536,343)"><rect x="-4.5" y="0.5" width="8" height="15" strokeWidth="1" fill="#ebe7e8" stroke="#b2b1b6" stroke-width="1"></rect><path fill="#ebe7e8" d="M -1.5 4 L -1.5 12 M 0.5 4 L 0.5 12" stroke="#b2b1b6" stroke-width="1"></path></g><text x="292" text-anchor="middle" class="highcharts-title"  style="color:#333333;font-size:16px;fill:#333333;width:520px;" y="22"><tspan>USD to EUR exchange rate</tspan></text><g class="highcharts-navigator-handle-left" style="cursor:ew-resize;"  transform="translate(519,343)"><rect x="-4.5" y="0.5" width="8" height="15" strokeWidth="1" fill="#ebe7e8" stroke="#b2b1b6" stroke-width="1"></rect><path fill="#ebe7e8" d="M -1.5 4 L -1.5 12 M 0.5 4 L 0.5 12" stroke="#b2b1b6" stroke-width="1"></path></g><g class="highcharts-axis-labels highcharts-xaxis-labels" ><text x="77.5" style="color:#606060;cursor:default;font-size:11px;fill:#606060;" text-anchor="middle" transform="translate(0,0)" y="304" opacity="1"><tspan>21. Feb</tspan></text><text x="161.8" style="color:#606060;cursor:default;font-size:11px;fill:#606060;" text-anchor="middle" transform="translate(0,0)" y="304" opacity="1"><tspan>7. Mar</tspan></text><text x="246.2" style="color:#606060;cursor:default;font-size:11px;fill:#606060;" text-anchor="middle" transform="translate(0,0)" y="304" opacity="1"><tspan>21. Mar</tspan></text><text x="330.6" style="color:#606060;cursor:default;font-size:11px;fill:#606060;" text-anchor="middle" transform="translate(0,0)" y="304" opacity="1"><tspan>4. Apr</tspan></text><text x="415" style="color:#606060;cursor:default;font-size:11px;fill:#606060;" text-anchor="middle" transform="translate(0,0)" y="304" opacity="1"><tspan>18. Apr</tspan></text><text x="499.3" style="color:#606060;cursor:default;font-size:11px;fill:#606060;" text-anchor="middle" transform="translate(0,0)" y="304" opacity="1"><tspan>2. May</tspan></text></g><g class="highcharts-axis-labels highcharts-xaxis-labels" ><text x="44.9" style="color:#888;cursor:default;font-size:11px;fill:#888;width:131px;text-overflow:clip;" text-anchor="start" transform="translate(0,0)" y="367" opacity="1">2004</text><text x="179.2" style="color:#888;cursor:default;font-size:11px;fill:#888;width:131px;text-overflow:clip;" text-anchor="start" transform="translate(0,0)" y="367" opacity="1">2006</text><text x="313.4" style="color:#888;cursor:default;font-size:11px;fill:#888;width:131px;text-overflow:clip;" text-anchor="start" transform="translate(0,0)" y="367" opacity="1">2008</text><text x="447.7" style="color:#888;cursor:default;font-size:11px;fill:#888;width:131px;text-overflow:clip;" text-anchor="start" transform="translate(0,0)" y="367" opacity="1">2010</text></g><g class="highcharts-axis-labels highcharts-yaxis-labels" ><text x="550" style="color:#606060;cursor:default;font-size:11px;fill:#606060;width:183px;text-overflow:clip;" text-anchor="end" transform="translate(0,0)" y="283" opacity="1">0.6</text><text x="550" style="color:#606060;cursor:default;font-size:11px;fill:#606060;width:183px;text-overflow:clip;" text-anchor="end" transform="translate(0,0)" y="231" opacity="1">0.6</text><text x="550" style="color:#606060;cursor:default;font-size:11px;fill:#606060;width:183px;text-overflow:clip;" text-anchor="end" transform="translate(0,0)" y="180" opacity="1">0.7</text><text x="550" style="color:#606060;cursor:default;font-size:11px;fill:#606060;width:183px;text-overflow:clip;" text-anchor="end" transform="translate(0,0)" y="129" opacity="1">0.7</text><text x="0" style="color:#606060;cursor:default;font-size:11px;fill:#606060;width:183px;text-overflow:clip;" text-anchor="end" transform="translate(0,0)" y="-9999">0.7</text></g><g class="highcharts-axis-labels highcharts-yaxis-labels" ></g><g class="highcharts-tooltip"  style="cursor:default;padding:0;white-space:nowrap;" transform="translate(0,-9999)"><path fill="none" d="M 3 0 L 13 0 C 16 0 16 0 16 3 L 16 13 C 16 16 16 16 13 16 L 3 16 C 0 16 0 16 0 13 L 0 3 C 0 0 0 0 3 0"  stroke="black" stroke-opacity="0.0" stroke-width="5" transform="translate(1, 1)"></path><path fill="none" d="M 3 0 L 13 0 C 16 0 16 0 16 3 L 16 13 C 16 16 16 16 13 16 L 3 16 C 0 16 0 16 0 13 L 0 3 C 0 0 0 0 3 0"  stroke="black" stroke-opacity="0.0" stroke-width="3" transform="translate(1, 1)"></path><path fill="none" d="M 3 0 L 13 0 C 16 0 16 0 16 3 L 16 13 C 16 16 16 16 13 16 L 3 16 C 0 16 0 16 0 13 L 0 3 C 0 0 0 0 3 0"  stroke="black" stroke-opacity="0.1" stroke-width="1" transform="translate(1, 1)"></path><path fill="rgb(249, 249, 249)" fill-opacity=" .85" d="M 3 0 L 13 0 C 16 0 16 0 16 3 L 16 13 C 16 16 16 16 13 16 L 3 16 C 0 16 0 16 0 13 L 0 3 C 0 0 0 0 3 0"></path><text x="8"  style="font-size:12px;color:#333333;fill:#333333;" transform="translate(0,20)"></text></g></svg>