<svg version="1.1" style="font-family:&quot;lucida grande&quot;, &quot;lucida sans unicode&quot;, arial, helvetica, sans-serif;font-size:12px;" xmlns="http://www.w3.org/2000/svg" width="584" height="400" viewBox="0 0 584 400"><desc>Created with Highstock 2.1.4</desc><defs><clipPath id="highcharts-1"><rect x="0" y="0" width="564" height="206"></rect></clipPath><clipPath id="highcharts-3"><rect x="-99" y="-79" width="663" height="400"></rect></clipPath><clipPath id="highcharts-4"><rect x="0" y="0" width="564" height="40"></rect></clipPath></defs><rect x="0" y="0" width="584" height="400" strokeWidth="0" fill="#FFFFFF" class=" highcharts-background"></rect><g class="highcharts-scrollbar" transform="translate(10,372)"><rect x="0" y="-0.5" fill="#eeeeee" stroke="#eeeeee" stroke-width="1" rx="0" ry="0" height="14" width="564"></rect><rect y="-0.5" height="14" fill="#bfc8d1" stroke="#bfc8d1" stroke-width="1" rx="0" ry="0" x="473.5" width="76"></rect><path fill="none" stroke="#666" stroke-width="1" visibility="visible" d="M 508 3.5 L 508 9.3 M 511 3.5 L 511 9.3 M 514 3.5 L 514 9.3"></path><g><rect x="-0.5" y="-0.5" width="14" height="14" strokeWidth="1" stroke="#bbb" stroke-width="1" fill="#ebe7e8"></rect><path fill="#666" d="M 8 4 L 8 10 5 7"></path></g><g transform="translate(550,0)"><rect x="-0.5" y="-0.5" width="14" height="14" strokeWidth="1" stroke="#bbb" stroke-width="1" fill="#ebe7e8"></rect><path fill="#666" d="M 6 4 L 6 10 9 7"></path></g></g><g class="highcharts-range-selector-buttons"><text x="10" y="59" style="color:#666;fill:#666;">Zoom</text><g class="highcharts-button"  states="[object Object]" style="cursor:pointer;text-align:center;" transform="translate(46,44)"><rect x="0" y="0" width="32" height="22" strokeWidth="0" fill="#f7f7f7" rx="0" ry="0"></rect><text x="9"  style="font-weight:normal;color:#444;fill:#444;" transform="translate(0,14)">1h</text></g><g class="highcharts-button"  states="[object Object]" style="cursor:pointer;text-align:center;" transform="translate(83,44)"><rect x="0" y="0" width="32" height="22" strokeWidth="0" fill="#e7f0f9" rx="0" ry="0"></rect><text x="8.5"  style="font-weight:bold;color:black;fill:black;" transform="translate(0,14)">1D</text></g><g class="highcharts-button"  states="[object Object]" style="cursor:pointer;text-align:center;" transform="translate(120,44)"><rect x="0" y="0" width="32" height="22" strokeWidth="0" fill="#f7f7f7" rx="0" ry="0"></rect><text x="10"  style="font-weight:normal;color:#444;fill:#444;" transform="translate(0,14)">All</text></g></g><g class="highcharts-grid" ></g><g class="highcharts-grid" ><path fill="none" d="M 253.5 331 L 253.5 371" stroke="#EEE" stroke-width="1"  opacity="1"></path><path fill="none" d="M 483.5 331 L 483.5 371" stroke="#EEE" stroke-width="1"  opacity="1"></path></g><g class="highcharts-grid" ><path fill="none" d="M 10 285.5 L 574 285.5" stroke="#D8D8D8" stroke-width="1"  opacity="1"></path><path fill="none" d="M 10 234.5 L 574 234.5" stroke="#D8D8D8" stroke-width="1"  opacity="1"></path><path fill="none" d="M 10 182.5 L 574 182.5" stroke="#D8D8D8" stroke-width="1"  opacity="1"></path><path fill="none" d="M 10 131.5 L 574 131.5" stroke="#D8D8D8" stroke-width="1"  opacity="1"></path><path fill="none" d="M 10 78.5 L 574 78.5" stroke="#D8D8D8" stroke-width="1"  opacity="1"></path></g><g class="highcharts-grid" ></g><g class="highcharts-axis" ><path fill="none" d="M 26.5 285 L 26.5 295" stroke="#C0D0E0" stroke-width="1" opacity="1"></path><path fill="none" d="M 95.5 285 L 95.5 295" stroke="#C0D0E0" stroke-width="1" opacity="1"></path><path fill="none" d="M 164.5 285 L 164.5 295" stroke="#C0D0E0" stroke-width="1" opacity="1"></path><path fill="none" d="M 233.5 285 L 233.5 295" stroke="#C0D0E0" stroke-width="1" opacity="1"></path><path fill="none" d="M 302.5 285 L 302.5 295" stroke="#C0D0E0" stroke-width="1" opacity="1"></path><path fill="none" d="M 372.5 285 L 372.5 295" stroke="#C0D0E0" stroke-width="1" opacity="1"></path><path fill="none" d="M 441.5 285 L 441.5 295" stroke="#C0D0E0" stroke-width="1" opacity="1"></path><path fill="none" d="M 510.5 285 L 510.5 295" stroke="#C0D0E0" stroke-width="1" opacity="1"></path><path fill="none" d="M 579.5 285 L 579.5 295" stroke="#C0D0E0" stroke-width="1" opacity="1"></path><path fill="none" d="M 10 285.5 L 574 285.5" stroke="#C0D0E0" stroke-width="1"  visibility="visible"></path></g><g class="highcharts-axis" ></g><g class="highcharts-axis" ></g><g class="highcharts-axis" ></g><g class="highcharts-series-group" ><g class="highcharts-series highcharts-tracker" visibility="visible"  transform="translate(10,79) scale(1 1)" style="" clip-path="url(#highcharts-1)"><path fill="white" d="M 2.5 173.5 L 2.5 171.5 L 8.5 171.5 L 8.5 173.5 Z M 5.5 171.5 L 5.5 171.5 M 5.5 173.5 L 5.5 174" stroke="black" stroke-width="1"></path><path fill="white" d="M 13.5 94.5 L 13.5 80.5 L 19.5 80.5 L 19.5 94.5 Z M 16.5 80.5 L 16.5 72 M 16.5 94.5 L 16.5 103" stroke="black" stroke-width="1"></path><path fill="#7cb5ec" d="M 25.5 80.5 L 25.5 78.5 L 31.5 78.5 L 31.5 80.5 Z M 28.5 78.5 L 28.5 72 M 28.5 80.5 L 28.5 82" stroke="black" stroke-width="1"></path><path fill="#7cb5ec" d="M 36.5 82.5 L 36.5 80.5 L 42.5 80.5 L 42.5 82.5 Z M 39.5 80.5 L 39.5 78 M 39.5 82.5 L 39.5 86" stroke="black" stroke-width="1"></path><path fill="white" d="M 48.5 82.5 L 48.5 76.5 L 54.5 76.5 L 54.5 82.5 Z M 51.5 76.5 L 51.5 76.5 M 51.5 82.5 L 51.5 87" stroke="black" stroke-width="1"></path><path fill="#7cb5ec" d="M 59.5 81.5 L 59.5 76.5 L 65.5 76.5 L 65.5 81.5 Z M 62.5 76.5 L 62.5 75 M 62.5 81.5 L 62.5 84" stroke="black" stroke-width="1"></path><path fill="white" d="M 71.5 81.5 L 71.5 72.5 L 77.5 72.5 L 77.5 81.5 Z M 74.5 72.5 L 74.5 67 M 74.5 81.5 L 74.5 81" stroke="black" stroke-width="1"></path><path fill="white" d="M 82.5 72.5 L 82.5 72.5 L 88.5 72.5 L 88.5 72.5 Z M 85.5 72.5 L 85.5 70 M 85.5 72.5 L 85.5 74" stroke="black" stroke-width="1"></path><path fill="#7cb5ec" d="M 94.5 73.5 L 94.5 72.5 L 100.5 72.5 L 100.5 73.5 Z M 97.5 72.5 L 97.5 70 M 97.5 73.5 L 97.5 76" stroke="black" stroke-width="1"></path><path fill="#7cb5ec" d="M 105.5 83.5 L 105.5 72.5 L 111.5 72.5 L 111.5 83.5 Z M 108.5 72.5 L 108.5 71 M 108.5 83.5 L 108.5 87" stroke="black" stroke-width="1"></path><path fill="white" d="M 117.5 84.5 L 117.5 77.5 L 123.5 77.5 L 123.5 84.5 Z M 120.5 77.5 L 120.5 63 M 120.5 84.5 L 120.5 91" stroke="black" stroke-width="1"></path><path fill="#7cb5ec" d="M 128.5 84.5 L 128.5 78.5 L 134.5 78.5 L 134.5 84.5 Z M 131.5 78.5 L 131.5 76 M 131.5 84.5 L 131.5 98" stroke="black" stroke-width="1"></path><path fill="#7cb5ec" d="M 140.5 90.5 L 140.5 85.5 L 146.5 85.5 L 146.5 90.5 Z M 143.5 85.5 L 143.5 83 M 143.5 90.5 L 143.5 95" stroke="black" stroke-width="1"></path><path fill="white" d="M 151.5 90.5 L 151.5 85.5 L 157.5 85.5 L 157.5 90.5 Z M 154.5 85.5 L 154.5 83 M 154.5 90.5 L 154.5 100" stroke="black" stroke-width="1"></path><path fill="white" d="M 163.5 85.5 L 163.5 81.5 L 169.5 81.5 L 169.5 85.5 Z M 166.5 81.5 L 166.5 79 M 166.5 85.5 L 166.5 89" stroke="black" stroke-width="1"></path><path fill="#7cb5ec" d="M 174.5 89.5 L 174.5 81.5 L 180.5 81.5 L 180.5 89.5 Z M 177.5 81.5 L 177.5 80 M 177.5 89.5 L 177.5 92" stroke="black" stroke-width="1"></path><path fill="white" d="M 186.5 89.5 L 186.5 86.5 L 192.5 86.5 L 192.5 89.5 Z M 189.5 86.5 L 189.5 83 M 189.5 89.5 L 189.5 89" stroke="black" stroke-width="1"></path><path fill="white" d="M 197.5 87.5 L 197.5 84.5 L 203.5 84.5 L 203.5 87.5 Z M 200.5 84.5 L 200.5 80 M 200.5 87.5 L 200.5 89" stroke="black" stroke-width="1"></path><path fill="#7cb5ec" d="M 209.5 84.5 L 209.5 83.5 L 215.5 83.5 L 215.5 84.5 Z M 212.5 83.5 L 212.5 81 M 212.5 84.5 L 212.5 86" stroke="black" stroke-width="1"></path><path fill="white" d="M 220.5 84.5 L 220.5 82.5 L 226.5 82.5 L 226.5 84.5 Z M 223.5 82.5 L 223.5 81 M 223.5 84.5 L 223.5 87" stroke="black" stroke-width="1"></path><path fill="#7cb5ec" d="M 232.5 84.5 L 232.5 82.5 L 238.5 82.5 L 238.5 84.5 Z M 235.5 82.5 L 235.5 80 M 235.5 84.5 L 235.5 89" stroke="black" stroke-width="1"></path><path fill="#7cb5ec" d="M 243.5 94.5 L 243.5 84.5 L 249.5 84.5 L 249.5 94.5 Z M 246.5 84.5 L 246.5 84.5 M 246.5 94.5 L 246.5 96" stroke="black" stroke-width="1"></path><path fill="#7cb5ec" d="M 255.5 96.5 L 255.5 94.5 L 261.5 94.5 L 261.5 96.5 Z M 258.5 94.5 L 258.5 90 M 258.5 96.5 L 258.5 97" stroke="black" stroke-width="1"></path><path fill="white" d="M 266.5 95.5 L 266.5 92.5 L 272.5 92.5 L 272.5 95.5 Z M 269.5 92.5 L 269.5 89 M 269.5 95.5 L 269.5 97" stroke="black" stroke-width="1"></path><path fill="white" d="M 278.5 92.5 L 278.5 90.5 L 284.5 90.5 L 284.5 92.5 Z M 281.5 90.5 L 281.5 88 M 281.5 92.5 L 281.5 92" stroke="black" stroke-width="1"></path><path fill="white" d="M 289.5 91.5 L 289.5 91.5 L 295.5 91.5 L 295.5 91.5 Z M 292.5 91.5 L 292.5 90 M 292.5 91.5 L 292.5 94" stroke="black" stroke-width="1"></path><path fill="#7cb5ec" d="M 301.5 90.5 L 301.5 90.5 L 307.5 90.5 L 307.5 90.5 Z M 304.5 90.5 L 304.5 88 M 304.5 90.5 L 304.5 92" stroke="black" stroke-width="1"></path><path fill="white" d="M 312.5 90.5 L 312.5 87.5 L 318.5 87.5 L 318.5 90.5 Z M 315.5 87.5 L 315.5 84 M 315.5 90.5 L 315.5 91" stroke="black" stroke-width="1"></path><path fill="white" d="M 324.5 87.5 L 324.5 79.5 L 330.5 79.5 L 330.5 87.5 Z M 327.5 79.5 L 327.5 78 M 327.5 87.5 L 327.5 88" stroke="black" stroke-width="1"></path><path fill="#7cb5ec" d="M 336.5 80.5 L 336.5 79.5 L 342.5 79.5 L 342.5 80.5 Z M 339.5 79.5 L 339.5 77 M 339.5 80.5 L 339.5 81" stroke="black" stroke-width="1"></path><path fill="#7cb5ec" d="M 347.5 82.5 L 347.5 80.5 L 353.5 80.5 L 353.5 82.5 Z M 350.5 80.5 L 350.5 78 M 350.5 82.5 L 350.5 84" stroke="black" stroke-width="1"></path><path fill="white" d="M 359.5 81.5 L 359.5 73.5 L 365.5 73.5 L 365.5 81.5 Z M 362.5 73.5 L 362.5 73.5 M 362.5 81.5 L 362.5 82" stroke="black" stroke-width="1"></path><path fill="white" d="M 370.5 74.5 L 370.5 71.5 L 376.5 71.5 L 376.5 74.5 Z M 373.5 71.5 L 373.5 70 M 373.5 74.5 L 373.5 75" stroke="black" stroke-width="1"></path><path fill="#7cb5ec" d="M 382.5 75.5 L 382.5 72.5 L 388.5 72.5 L 388.5 75.5 Z M 385.5 72.5 L 385.5 71 M 385.5 75.5 L 385.5 76" stroke="black" stroke-width="1"></path><path fill="white" d="M 393.5 76.5 L 393.5 75.5 L 399.5 75.5 L 399.5 76.5 Z M 396.5 75.5 L 396.5 72 M 396.5 76.5 L 396.5 76" stroke="black" stroke-width="1"></path><path fill="white" d="M 405.5 74.5 L 405.5 69.5 L 411.5 69.5 L 411.5 74.5 Z M 408.5 69.5 L 408.5 67 M 408.5 74.5 L 408.5 75" stroke="black" stroke-width="1"></path><path fill="white" d="M 416.5 69.5 L 416.5 61.5 L 422.5 61.5 L 422.5 69.5 Z M 419.5 61.5 L 419.5 59 M 419.5 69.5 L 419.5 70" stroke="black" stroke-width="1"></path><path fill="white" d="M 428.5 61.5 L 428.5 57.5 L 434.5 57.5 L 434.5 61.5 Z M 431.5 57.5 L 431.5 56 M 431.5 61.5 L 431.5 63" stroke="black" stroke-width="1"></path><path fill="white" d="M 439.5 57.5 L 439.5 57.5 L 445.5 57.5 L 445.5 57.5 Z M 442.5 57.5 L 442.5 57.5 M 442.5 57.5 L 442.5 64" stroke="black" stroke-width="1"></path><path fill="white" d="M 451.5 57.5 L 451.5 56.5 L 457.5 56.5 L 457.5 57.5 Z M 454.5 56.5 L 454.5 54 M 454.5 57.5 L 454.5 59" stroke="black" stroke-width="1"></path><path fill="white" d="M 462.5 56.5 L 462.5 56.5 L 468.5 56.5 L 468.5 56.5 Z M 465.5 56.5 L 465.5 55 M 465.5 56.5 L 465.5 59" stroke="black" stroke-width="1"></path><path fill="white" d="M 474.5 55.5 L 474.5 53.5 L 480.5 53.5 L 480.5 55.5 Z M 477.5 53.5 L 477.5 52 M 477.5 55.5 L 477.5 56" stroke="black" stroke-width="1"></path><path fill="white" d="M 485.5 53.5 L 485.5 49.5 L 491.5 49.5 L 491.5 53.5 Z M 488.5 49.5 L 488.5 49.5 M 488.5 53.5 L 488.5 54" stroke="black" stroke-width="1"></path><path fill="#7cb5ec" d="M 497.5 58.5 L 497.5 49.5 L 503.5 49.5 L 503.5 58.5 Z M 500.5 49.5 L 500.5 49.5 M 500.5 58.5 L 500.5 60" stroke="black" stroke-width="1"></path><path fill="#7cb5ec" d="M 508.5 59.5 L 508.5 58.5 L 514.5 58.5 L 514.5 59.5 Z M 511.5 58.5 L 511.5 56 M 511.5 59.5 L 511.5 66" stroke="black" stroke-width="1"></path><path fill="white" d="M 520.5 59.5 L 520.5 47.5 L 526.5 47.5 L 526.5 59.5 Z M 523.5 47.5 L 523.5 46 M 523.5 59.5 L 523.5 60" stroke="black" stroke-width="1"></path><path fill="#7cb5ec" d="M 531.5 51.5 L 531.5 47.5 L 537.5 47.5 L 537.5 51.5 Z M 534.5 47.5 L 534.5 44 M 534.5 51.5 L 534.5 52" stroke="black" stroke-width="1"></path><path fill="white" d="M 543.5 51.5 L 543.5 50.5 L 549.5 50.5 L 549.5 51.5 Z M 546.5 50.5 L 546.5 47 M 546.5 51.5 L 546.5 53" stroke="black" stroke-width="1"></path><path fill="white" d="M 554.5 50.5 L 554.5 31.5 L 560.5 31.5 L 560.5 50.5 Z M 557.5 31.5 L 557.5 31.5 M 557.5 50.5 L 557.5 52" stroke="black" stroke-width="1"></path></g><g class="highcharts-markers" visibility="visible"  transform="translate(10,79) scale(1 1)" clip-path="none"></g><g class="highcharts-series" visibility="visible"  transform="translate(24,331) scale(1 1)" clip-path="url(#highcharts-4)"><path fill="rgb(69,114,167)" fill-opacity="0.0" d="M 0 35.0 C 0 35.0 0.9 33.6 1.6 33.5 C 2.2 33.4 2.5 33.4 3.1 33.4 C 3.8 33.4 4.1 33.4 4.8 33.3 C 5.4 33.1 5.7 32.2 6.4 32.2 C 7.0 32.2 7.3 32.5 7.9 32.5 C 8.6 32.5 8.9 32.3 9.6 32.3 C 10.2 32.3 10.5 32.9 11.1 33.1 C 11.8 33.3 12.1 33.3 12.7 33.3 C 13.4 33.3 13.7 33.0 14.4 32.7 C 15.0 32.5 15.3 32.1 15.9 32.1 C 16.6 32.1 16.9 32.6 17.5 32.6 C 18.2 32.6 18.5 32.2 19.2 31.8 C 19.8 31.5 20.1 31.4 20.7 30.8 C 21.4 30.3 21.7 29.7 22.4 29.1 C 23.0 28.4 23.3 27.7 24.0 27.7 C 24.6 27.7 24.9 27.7 25.5 27.7 C 26.2 27.7 26.5 28.3 27.2 28.5 C 27.8 28.7 28.1 28.8 28.8 28.8 C 29.4 28.8 29.7 27.8 30.3 27.8 C 31.0 27.8 31.3 28.5 32.0 28.5 C 32.6 28.5 32.9 28.1 33.5 28.1 C 34.2 28.1 34.5 28.1 35.1 28.2 C 35.8 28.4 36.1 28.8 36.8 28.8 C 37.4 28.8 37.7 28.8 38.3 28.8 C 39.0 28.8 39.3 28.8 39.9 28.7 C 40.6 28.6 40.9 28.3 41.6 28.3 C 42.2 28.3 42.5 28.3 43.1 28.4 C 43.8 28.6 44.1 29.2 44.8 29.8 C 45.4 30.4 45.7 30.9 46.4 31.4 C 47.0 31.8 47.3 32.0 47.9 32.0 C 48.6 32.0 48.9 31.6 49.6 31.6 C 50.2 31.6 50.5 32.0 51.2 32.4 C 51.8 32.8 52.1 33.0 52.7 33.5 C 53.4 33.9 53.7 34.6 54.4 34.6 C 55.0 34.6 55.3 33.9 55.9 33.5 C 56.6 33.2 56.9 33.3 57.5 33.0 C 58.2 32.7 58.5 32.1 59.2 32.0 C 59.8 32.0 60.1 32.0 60.7 32.0 C 61.4 32.0 61.7 32.5 62.3 32.8 C 63.0 33.1 63.3 33.4 64.0 33.4 C 64.6 33.4 64.9 33.4 65.5 33.3 C 66.2 33.1 66.5 32.5 67.2 32.5 C 67.8 32.5 68.1 32.5 68.8 32.5 C 69.4 32.5 69.7 33.2 70.3 33.2 C 71.0 33.2 71.3 33.0 72.0 32.8 C 72.6 32.5 72.9 32.2 73.6 32.1 C 74.2 32.0 74.5 32.0 75.1 32.0 C 75.8 32.0 76.1 32.6 76.8 32.6 C 77.4 32.6 77.7 32.6 78.3 32.6 C 79.0 32.6 79.3 32.6 79.9 32.4 C 80.6 32.3 80.9 31.6 81.6 31.3 C 82.2 31.0 82.5 30.9 83.1 30.9 C 83.8 30.9 84.1 31.1 84.7 31.2 C 85.4 31.3 85.7 31.4 86.4 31.5 C 87.0 31.6 87.3 31.7 87.9 31.8 C 88.6 32.0 88.9 31.9 89.6 32.1 C 90.2 32.4 90.5 32.8 91.2 33.0 C 91.8 33.2 92.1 33.2 92.7 33.2 C 93.4 33.2 93.7 32.1 94.4 32.1 C 95.0 32.1 95.3 32.6 96.0 32.6 C 96.6 32.6 96.9 32.6 97.5 32.6 C 98.2 32.6 98.5 32.7 99.2 32.7 C 99.8 32.8 100.1 32.8 100.7 33.0 C 101.4 33.2 101.7 33.5 102.3 33.8 C 103.0 34.1 103.3 34.1 104.0 34.3 C 104.6 34.5 104.9 34.5 105.5 34.8 C 106.2 35.0 106.5 35.4 107.1 35.6 C 107.8 35.9 108.1 35.8 108.8 36.0 C 109.4 36.2 109.7 36.5 110.3 36.5 C 111.0 36.5 111.3 36.5 112.0 36.5 C 112.6 36.4 112.9 36.4 113.6 36.4 C 114.2 36.4 114.5 36.4 115.1 36.4 C 115.8 36.4 116.1 36.0 116.8 36.0 C 117.4 36.0 117.7 36.6 118.3 36.6 C 119.0 36.6 119.3 36.1 119.9 36.1 C 120.6 36.1 120.9 36.3 121.6 36.3 C 122.2 36.4 122.5 36.3 123.1 36.4 C 123.8 36.4 124.1 36.4 124.7 36.4 C 125.4 36.4 125.7 36.3 126.4 36.2 C 127.0 36.2 127.3 36.0 127.9 36.0 C 128.6 36.0 128.9 36.1 129.6 36.2 C 130.2 36.2 130.5 36.4 131.2 36.4 C 131.8 36.4 132.1 36.2 132.7 35.9 C 133.4 35.6 133.7 35.1 134.4 35.1 C 135.0 35.1 135.3 35.4 136.0 35.4 C 136.6 35.4 136.9 34.9 137.5 34.9 C 138.2 34.9 138.5 35.4 139.2 35.6 C 139.8 35.8 140.1 35.9 140.7 35.9 C 141.4 35.9 141.7 35.9 142.3 35.8 C 143.0 35.8 143.3 35.7 144.0 35.6 C 144.6 35.5 144.9 35.6 145.5 35.4 C 146.2 35.2 146.5 35.0 147.1 34.8 C 147.8 34.6 148.1 34.6 148.8 34.6 C 149.4 34.6 149.7 34.7 150.3 35.1 C 151.0 35.4 151.3 36.4 152.0 36.4 C 152.6 36.4 152.9 33.3 153.6 33.3 C 154.2 33.3 154.5 33.7 155.1 33.7 C 155.8 33.7 156.1 33.7 156.8 33.5 C 157.4 33.3 157.7 32.6 158.4 32.2 C 159.0 31.8 159.3 31.9 159.9 31.6 C 160.6 31.3 160.9 31.0 161.6 30.9 C 162.2 30.7 162.5 30.7 163.1 30.7 C 163.8 30.6 164.1 30.6 164.7 30.6 C 165.4 30.6 165.7 30.6 166.4 30.5 C 167.0 30.4 167.3 30.3 167.9 30.3 C 168.6 30.3 168.9 30.4 169.5 30.4 C 170.2 30.4 170.5 30.3 171.2 29.9 C 171.8 29.5 172.1 29.0 172.7 28.5 C 173.4 28.0 173.7 27.5 174.4 27.5 C 175.0 27.5 175.3 27.5 176.0 27.5 C 176.6 27.6 176.9 27.6 177.5 27.6 C 178.2 27.7 178.5 27.8 179.2 27.9 C 179.8 28.0 180.1 28.2 180.8 28.2 C 181.4 28.2 181.7 28.2 182.3 28.2 C 183.0 28.2 183.3 28.3 184.0 28.3 C 184.6 28.3 184.9 28.1 185.5 28.0 C 186.2 27.8 186.5 27.7 187.1 27.6 C 187.8 27.5 188.1 27.4 188.8 27.3 C 189.4 27.3 189.7 27.3 190.3 27.2 C 191.0 27.2 191.3 26.9 191.9 26.9 C 192.6 26.9 192.9 27.0 193.6 27.1 C 194.2 27.1 194.5 27.1 195.1 27.1 C 195.8 27.1 196.1 27.0 196.8 27.0 C 197.4 27.0 197.7 27.0 198.4 27.0 C 199.0 27.1 199.3 27.2 199.9 27.3 C 200.6 27.4 200.9 27.4 201.6 27.4 C 202.2 27.4 202.5 27.4 203.2 27.4 C 203.8 27.4 204.1 27.0 204.7 27.0 C 205.4 27.0 205.7 27.1 206.4 27.1 C 207.0 27.1 207.3 27.1 207.9 27.1 C 208.6 27.1 208.9 27.1 209.5 27.1 C 210.2 27.2 210.5 27.1 211.2 27.2 C 211.8 27.2 212.1 27.4 212.7 27.4 C 213.4 27.4 213.7 27.3 214.3 27.1 C 215.0 26.9 215.3 26.4 216.0 26.4 C 216.6 26.4 216.9 26.5 217.5 26.6 C 218.2 26.6 218.5 26.6 219.2 26.7 C 219.8 26.7 220.1 27.1 220.8 27.1 C 221.4 27.1 221.7 27.0 222.3 27.0 C 223.0 27.0 223.3 27.1 224.0 27.1 C 224.6 27.1 224.9 27.1 225.5 26.8 C 226.2 26.6 226.5 26.5 227.1 26.1 C 227.8 25.7 228.1 25.5 228.8 24.9 C 229.4 24.3 229.7 23.7 230.3 23.1 C 231.0 22.5 231.3 22.1 231.9 22.0 C 232.6 21.9 232.9 21.9 233.6 21.9 C 234.2 21.9 234.5 22.0 235.1 22.1 C 235.8 22.3 236.1 22.4 236.8 22.5 C 237.4 22.5 237.7 22.5 238.4 22.5 C 239.0 22.5 239.3 22.5 239.9 22.6 C 240.6 22.6 240.9 22.6 241.6 22.6 C 242.2 22.6 242.5 22.6 243.2 22.5 C 243.8 22.5 244.1 21.9 244.7 21.2 C 245.4 20.6 245.7 19.9 246.4 19.4 C 247.0 18.8 247.3 18.6 247.9 18.6 C 248.6 18.6 248.9 19.0 249.5 19.0 C 250.2 19.0 250.5 18.2 251.2 17.9 C 251.8 17.6 252.1 17.5 252.7 17.4 C 253.4 17.3 253.7 17.4 254.3 17.2 C 255.0 17.1 255.3 16.7 256.0 16.7 C 256.6 16.7 256.9 17.1 257.5 17.2 C 258.2 17.3 258.5 17.3 259.2 17.4 C 259.8 17.5 260.1 17.5 260.8 17.6 C 261.4 17.7 261.7 17.8 262.3 17.8 C 263.0 17.8 263.3 17.4 264.0 17.3 C 264.6 17.2 264.9 17.1 265.6 17.0 C 266.2 16.9 266.5 16.8 267.1 16.8 C 267.8 16.8 268.1 17.0 268.8 17.0 C 269.4 17.0 269.7 16.7 270.3 16.7 C 271.0 16.7 271.3 16.8 271.9 16.8 C 272.6 16.9 272.9 16.9 273.6 17.1 C 274.2 17.3 274.5 17.7 275.1 17.9 C 275.8 18.1 276.1 18.2 276.7 18.2 C 277.4 18.2 277.7 18.1 278.4 18.1 C 279.0 18.1 279.3 18.3 279.9 18.3 C 280.6 18.3 280.9 18.3 281.6 18.1 C 282.2 17.9 282.5 17.5 283.2 17.5 C 283.8 17.5 284.1 17.5 284.7 17.5 C 285.4 17.5 285.7 17.4 286.4 17.3 C 287.0 17.1 287.3 16.9 288.0 16.9 C 288.6 16.9 288.9 16.9 289.5 16.9 C 290.2 16.9 290.5 17.1 291.2 17.1 C 291.8 17.1 292.1 17.0 292.7 17.0 C 293.4 17.0 293.7 17.2 294.3 17.2 C 295.0 17.2 295.3 16.9 296.0 16.6 C 296.6 16.3 296.9 15.8 297.5 15.6 C 298.2 15.3 298.5 15.1 299.1 15.1 C 299.8 15.1 300.1 16.0 300.8 16.3 C 301.4 16.7 301.7 16.8 302.3 16.8 C 303.0 16.8 303.3 16.6 304.0 16.5 C 304.6 16.5 304.9 16.5 305.6 16.5 C 306.2 16.5 306.5 14.9 307.1 14.6 C 307.8 14.2 308.1 14.3 308.8 14.2 C 309.4 14.1 309.7 14.0 310.4 13.9 C 311.0 13.8 311.3 13.9 311.9 13.8 C 312.6 13.7 312.9 13.5 313.6 13.3 C 314.2 13.0 314.5 12.7 315.1 12.4 C 315.8 12.2 316.1 12.2 316.7 12.0 C 317.4 11.9 317.7 11.7 318.4 11.7 C 319.0 11.7 319.3 12.1 319.9 12.1 C 320.6 12.1 320.9 11.4 321.5 11.4 C 322.2 11.4 322.5 11.5 323.2 11.5 C 323.8 11.5 324.1 11.5 324.7 11.6 C 325.4 11.7 325.7 11.8 326.4 11.8 C 327.0 11.8 327.3 11.7 328.0 11.7 C 328.6 11.7 328.9 12.9 329.5 12.9 C 330.2 12.9 330.5 12.6 331.2 12.5 C 331.8 12.3 332.1 12.3 332.7 12.3 C 333.4 12.3 333.7 12.3 334.3 12.4 C 335.0 12.4 335.3 12.5 336.0 12.5 C 336.6 12.5 336.9 12.1 337.5 12.0 C 338.2 11.9 338.5 12.0 339.1 11.9 C 339.8 11.8 340.1 11.6 340.8 11.6 C 341.4 11.6 341.7 11.6 342.3 11.7 C 343.0 11.8 343.3 11.8 344.0 12.0 C 344.6 12.1 344.9 12.2 345.6 12.4 C 346.2 12.6 346.5 12.9 347.1 12.9 C 347.8 12.9 348.1 12.6 348.8 12.6 C 349.4 12.6 349.7 12.6 350.4 12.7 C 351.0 12.8 351.3 13.0 351.9 13.0 C 352.6 13.0 352.9 12.9 353.6 12.7 C 354.2 12.6 354.5 12.4 355.1 12.4 C 355.8 12.4 356.1 12.5 356.7 12.5 C 357.4 12.5 357.7 12.2 358.4 12.2 C 359.0 12.2 359.3 12.2 359.9 12.2 C 360.6 12.2 360.9 12.2 361.5 12.2 C 362.2 12.3 362.5 12.8 363.2 12.8 C 363.8 12.8 364.1 12.7 364.7 12.7 C 365.4 12.7 365.7 12.8 366.4 13.0 C 367.0 13.2 367.3 13.7 368.0 13.7 C 368.6 13.7 368.9 13.6 369.5 13.6 C 370.2 13.6 370.5 14.2 371.2 14.6 C 371.8 15.0 372.1 15.3 372.8 15.6 C 373.4 15.9 373.7 16.0 374.3 16.0 C 375.0 16.0 375.3 15.6 376.0 15.4 C 376.6 15.2 376.9 15.1 377.5 14.9 C 378.2 14.8 378.5 14.5 379.1 14.5 C 379.8 14.5 380.1 14.8 380.8 14.9 C 381.4 15.1 381.7 15.1 382.3 15.3 C 383.0 15.5 383.3 16.0 383.9 16.0 C 384.6 16.1 384.9 16.1 385.6 16.1 C 386.2 16.1 386.5 15.3 387.1 14.9 C 387.8 14.5 388.1 14.3 388.8 14.1 C 389.4 13.8 389.7 13.5 390.4 13.5 C 391.0 13.5 391.3 13.6 391.9 13.6 C 392.6 13.6 392.9 13.6 393.6 13.5 C 394.2 13.5 394.5 13.4 395.2 13.4 C 395.8 13.4 396.1 13.5 396.7 13.6 C 397.4 13.8 397.7 14.0 398.4 14.1 C 399.0 14.2 399.3 14.2 399.9 14.2 C 400.6 14.2 400.9 14.2 401.5 14.1 C 402.2 14.1 402.5 13.8 403.2 13.6 C 403.8 13.4 404.1 13.2 404.7 13.1 C 405.4 12.9 405.7 13.0 406.3 12.9 C 407.0 12.9 407.3 12.7 408.0 12.7 C 408.6 12.7 408.9 12.9 409.5 13.1 C 410.2 13.3 410.5 13.6 411.2 13.6 C 411.8 13.6 412.1 13.6 412.8 13.6 C 413.4 13.6 413.7 13.3 414.3 13.2 C 415.0 13.1 415.3 13.2 416.0 13.1 C 416.6 13.0 416.9 12.8 417.6 12.7 C 418.2 12.5 418.5 12.6 419.1 12.5 C 419.8 12.4 420.1 12.2 420.8 12.2 C 421.4 12.2 421.7 12.3 422.3 12.3 C 423.0 12.4 423.3 12.4 423.9 12.5 C 424.6 12.6 424.9 12.7 425.6 12.8 C 426.2 12.8 426.5 12.8 427.1 12.8 C 427.8 12.8 428.1 12.6 428.7 12.6 C 429.4 12.6 429.7 12.6 430.4 12.6 C 431.0 12.6 431.3 13.1 431.9 13.1 C 432.6 13.1 432.9 13.0 433.6 13.0 C 434.2 13.0 434.5 13.5 435.2 13.5 C 435.8 13.5 436.1 13.2 436.7 13.1 C 437.4 13.1 437.7 13.1 438.4 13.1 C 439.0 13.1 439.3 13.1 439.9 13.2 C 440.6 13.2 440.9 13.3 441.5 13.4 C 442.2 13.4 442.5 13.5 443.2 13.5 C 443.8 13.5 444.1 13.4 444.7 13.3 C 445.4 13.3 445.7 13.3 446.3 13.2 C 447.0 13.1 447.3 13.2 448.0 13.0 C 448.6 12.9 448.9 12.6 449.5 12.4 C 450.2 12.2 450.5 12.2 451.2 12.1 C 451.8 11.9 452.1 11.8 452.8 11.8 C 453.4 11.8 453.7 11.9 454.3 12.0 C 455.0 12.1 455.3 12.4 456.0 12.4 C 456.6 12.4 456.9 12.3 457.6 12.2 C 458.2 12.1 458.5 12.2 459.1 11.8 C 459.8 11.5 460.1 6.2 460.8 5.9 C 461.4 5.6 461.7 5.6 462.3 5.6 C 463.0 5.6 463.3 5.7 463.9 5.7 C 464.6 5.7 464.9 5.7 465.6 5.6 C 466.2 5.6 466.5 5.6 467.1 5.5 C 467.8 5.5 468.1 5.3 468.7 5.2 C 469.4 5.1 469.7 5.1 470.4 5.1 C 471.0 5.1 471.3 5.1 471.9 5.2 C 472.6 5.2 472.9 5.3 473.6 5.3 C 474.2 5.3 474.5 5.3 475.2 5.3 C 475.8 5.3 476.1 5.8 476.7 6.0 C 477.4 6.1 477.7 6.0 478.4 6.1 C 479.0 6.2 479.3 6.3 480.0 6.3 C 480.6 6.3 480.9 5.9 481.5 5.9 C 482.2 5.9 482.5 6.0 483.2 6.0 C 483.8 6.0 484.1 6.0 484.7 6.0 C 485.4 5.9 485.7 6.0 486.3 5.9 C 487.0 5.9 487.3 5.8 488.0 5.8 C 488.6 5.8 488.9 5.8 489.5 5.8 C 490.2 5.9 490.5 5.8 491.1 5.9 C 491.8 5.9 492.1 6.1 492.8 6.2 C 493.4 6.3 493.7 6.5 494.3 6.5 C 495.0 6.5 495.3 6.5 496.0 6.4 C 496.6 6.4 496.9 6.3 497.6 6.3 C 498.2 6.3 498.5 6.4 499.1 6.4 C 499.8 6.4 500.1 6.3 500.8 6.2 C 501.4 6.2 501.7 6.2 502.4 6.1 C 503.0 6.0 503.3 5.9 503.9 5.8 C 504.6 5.7 504.9 5.5 505.6 5.5 C 506.2 5.5 506.5 5.7 507.1 5.7 C 507.8 5.7 508.1 5.6 508.7 5.5 C 509.4 5.4 509.7 5.2 510.4 5.2 C 511.0 5.2 511.3 5.2 511.9 5.2 C 512.6 5.2 512.9 5.2 513.5 5.2 C 514.2 5.2 514.5 5.2 515.2 5.0 C 515.8 4.9 516.1 4.8 516.7 4.7 C 517.4 4.5 517.7 4.3 518.4 4.3 C 519.0 4.3 519.3 4.3 520.0 4.3 C 520.6 4.3 520.9 4.1 521.5 4.1 C 522.2 4.1 522.5 4.1 523.2 4.1 C 523.8 4.1 524.1 4.0 524.8 4.0 C 525.4 3.9 525.7 3.8 526.3 3.8 C 527.0 3.8 527.3 3.9 528.0 4.0 C 528.6 4.1 528.9 4.3 529.5 4.3 C 530.2 4.3 530.5 4.2 531.1 4.1 C 531.8 3.9 532.1 3.5 532.8 3.5 C 533.4 3.5 533.7 3.7 534.3 3.7 C 535.0 3.7 536 3.3 536 3.3 L 536 40 L 0 40" ></path><path fill="none" d="M 0 35.0 C 0 35.0 0.9 33.6 1.6 33.5 C 2.2 33.4 2.5 33.4 3.1 33.4 C 3.8 33.4 4.1 33.4 4.8 33.3 C 5.4 33.1 5.7 32.2 6.4 32.2 C 7.0 32.2 7.3 32.5 7.9 32.5 C 8.6 32.5 8.9 32.3 9.6 32.3 C 10.2 32.3 10.5 32.9 11.1 33.1 C 11.8 33.3 12.1 33.3 12.7 33.3 C 13.4 33.3 13.7 33.0 14.4 32.7 C 15.0 32.5 15.3 32.1 15.9 32.1 C 16.6 32.1 16.9 32.6 17.5 32.6 C 18.2 32.6 18.5 32.2 19.2 31.8 C 19.8 31.5 20.1 31.4 20.7 30.8 C 21.4 30.3 21.7 29.7 22.4 29.1 C 23.0 28.4 23.3 27.7 24.0 27.7 C 24.6 27.7 24.9 27.7 25.5 27.7 C 26.2 27.7 26.5 28.3 27.2 28.5 C 27.8 28.7 28.1 28.8 28.8 28.8 C 29.4 28.8 29.7 27.8 30.3 27.8 C 31.0 27.8 31.3 28.5 32.0 28.5 C 32.6 28.5 32.9 28.1 33.5 28.1 C 34.2 28.1 34.5 28.1 35.1 28.2 C 35.8 28.4 36.1 28.8 36.8 28.8 C 37.4 28.8 37.7 28.8 38.3 28.8 C 39.0 28.8 39.3 28.8 39.9 28.7 C 40.6 28.6 40.9 28.3 41.6 28.3 C 42.2 28.3 42.5 28.3 43.1 28.4 C 43.8 28.6 44.1 29.2 44.8 29.8 C 45.4 30.4 45.7 30.9 46.4 31.4 C 47.0 31.8 47.3 32.0 47.9 32.0 C 48.6 32.0 48.9 31.6 49.6 31.6 C 50.2 31.6 50.5 32.0 51.2 32.4 C 51.8 32.8 52.1 33.0 52.7 33.5 C 53.4 33.9 53.7 34.6 54.4 34.6 C 55.0 34.6 55.3 33.9 55.9 33.5 C 56.6 33.2 56.9 33.3 57.5 33.0 C 58.2 32.7 58.5 32.1 59.2 32.0 C 59.8 32.0 60.1 32.0 60.7 32.0 C 61.4 32.0 61.7 32.5 62.3 32.8 C 63.0 33.1 63.3 33.4 64.0 33.4 C 64.6 33.4 64.9 33.4 65.5 33.3 C 66.2 33.1 66.5 32.5 67.2 32.5 C 67.8 32.5 68.1 32.5 68.8 32.5 C 69.4 32.5 69.7 33.2 70.3 33.2 C 71.0 33.2 71.3 33.0 72.0 32.8 C 72.6 32.5 72.9 32.2 73.6 32.1 C 74.2 32.0 74.5 32.0 75.1 32.0 C 75.8 32.0 76.1 32.6 76.8 32.6 C 77.4 32.6 77.7 32.6 78.3 32.6 C 79.0 32.6 79.3 32.6 79.9 32.4 C 80.6 32.3 80.9 31.6 81.6 31.3 C 82.2 31.0 82.5 30.9 83.1 30.9 C 83.8 30.9 84.1 31.1 84.7 31.2 C 85.4 31.3 85.7 31.4 86.4 31.5 C 87.0 31.6 87.3 31.7 87.9 31.8 C 88.6 32.0 88.9 31.9 89.6 32.1 C 90.2 32.4 90.5 32.8 91.2 33.0 C 91.8 33.2 92.1 33.2 92.7 33.2 C 93.4 33.2 93.7 32.1 94.4 32.1 C 95.0 32.1 95.3 32.6 96.0 32.6 C 96.6 32.6 96.9 32.6 97.5 32.6 C 98.2 32.6 98.5 32.7 99.2 32.7 C 99.8 32.8 100.1 32.8 100.7 33.0 C 101.4 33.2 101.7 33.5 102.3 33.8 C 103.0 34.1 103.3 34.1 104.0 34.3 C 104.6 34.5 104.9 34.5 105.5 34.8 C 106.2 35.0 106.5 35.4 107.1 35.6 C 107.8 35.9 108.1 35.8 108.8 36.0 C 109.4 36.2 109.7 36.5 110.3 36.5 C 111.0 36.5 111.3 36.5 112.0 36.5 C 112.6 36.4 112.9 36.4 113.6 36.4 C 114.2 36.4 114.5 36.4 115.1 36.4 C 115.8 36.4 116.1 36.0 116.8 36.0 C 117.4 36.0 117.7 36.6 118.3 36.6 C 119.0 36.6 119.3 36.1 119.9 36.1 C 120.6 36.1 120.9 36.3 121.6 36.3 C 122.2 36.4 122.5 36.3 123.1 36.4 C 123.8 36.4 124.1 36.4 124.7 36.4 C 125.4 36.4 125.7 36.3 126.4 36.2 C 127.0 36.2 127.3 36.0 127.9 36.0 C 128.6 36.0 128.9 36.1 129.6 36.2 C 130.2 36.2 130.5 36.4 131.2 36.4 C 131.8 36.4 132.1 36.2 132.7 35.9 C 133.4 35.6 133.7 35.1 134.4 35.1 C 135.0 35.1 135.3 35.4 136.0 35.4 C 136.6 35.4 136.9 34.9 137.5 34.9 C 138.2 34.9 138.5 35.4 139.2 35.6 C 139.8 35.8 140.1 35.9 140.7 35.9 C 141.4 35.9 141.7 35.9 142.3 35.8 C 143.0 35.8 143.3 35.7 144.0 35.6 C 144.6 35.5 144.9 35.6 145.5 35.4 C 146.2 35.2 146.5 35.0 147.1 34.8 C 147.8 34.6 148.1 34.6 148.8 34.6 C 149.4 34.6 149.7 34.7 150.3 35.1 C 151.0 35.4 151.3 36.4 152.0 36.4 C 152.6 36.4 152.9 33.3 153.6 33.3 C 154.2 33.3 154.5 33.7 155.1 33.7 C 155.8 33.7 156.1 33.7 156.8 33.5 C 157.4 33.3 157.7 32.6 158.4 32.2 C 159.0 31.8 159.3 31.9 159.9 31.6 C 160.6 31.3 160.9 31.0 161.6 30.9 C 162.2 30.7 162.5 30.7 163.1 30.7 C 163.8 30.6 164.1 30.6 164.7 30.6 C 165.4 30.6 165.7 30.6 166.4 30.5 C 167.0 30.4 167.3 30.3 167.9 30.3 C 168.6 30.3 168.9 30.4 169.5 30.4 C 170.2 30.4 170.5 30.3 171.2 29.9 C 171.8 29.5 172.1 29.0 172.7 28.5 C 173.4 28.0 173.7 27.5 174.4 27.5 C 175.0 27.5 175.3 27.5 176.0 27.5 C 176.6 27.6 176.9 27.6 177.5 27.6 C 178.2 27.7 178.5 27.8 179.2 27.9 C 179.8 28.0 180.1 28.2 180.8 28.2 C 181.4 28.2 181.7 28.2 182.3 28.2 C 183.0 28.2 183.3 28.3 184.0 28.3 C 184.6 28.3 184.9 28.1 185.5 28.0 C 186.2 27.8 186.5 27.7 187.1 27.6 C 187.8 27.5 188.1 27.4 188.8 27.3 C 189.4 27.3 189.7 27.3 190.3 27.2 C 191.0 27.2 191.3 26.9 191.9 26.9 C 192.6 26.9 192.9 27.0 193.6 27.1 C 194.2 27.1 194.5 27.1 195.1 27.1 C 195.8 27.1 196.1 27.0 196.8 27.0 C 197.4 27.0 197.7 27.0 198.4 27.0 C 199.0 27.1 199.3 27.2 199.9 27.3 C 200.6 27.4 200.9 27.4 201.6 27.4 C 202.2 27.4 202.5 27.4 203.2 27.4 C 203.8 27.4 204.1 27.0 204.7 27.0 C 205.4 27.0 205.7 27.1 206.4 27.1 C 207.0 27.1 207.3 27.1 207.9 27.1 C 208.6 27.1 208.9 27.1 209.5 27.1 C 210.2 27.2 210.5 27.1 211.2 27.2 C 211.8 27.2 212.1 27.4 212.7 27.4 C 213.4 27.4 213.7 27.3 214.3 27.1 C 215.0 26.9 215.3 26.4 216.0 26.4 C 216.6 26.4 216.9 26.5 217.5 26.6 C 218.2 26.6 218.5 26.6 219.2 26.7 C 219.8 26.7 220.1 27.1 220.8 27.1 C 221.4 27.1 221.7 27.0 222.3 27.0 C 223.0 27.0 223.3 27.1 224.0 27.1 C 224.6 27.1 224.9 27.1 225.5 26.8 C 226.2 26.6 226.5 26.5 227.1 26.1 C 227.8 25.7 228.1 25.5 228.8 24.9 C 229.4 24.3 229.7 23.7 230.3 23.1 C 231.0 22.5 231.3 22.1 231.9 22.0 C 232.6 21.9 232.9 21.9 233.6 21.9 C 234.2 21.9 234.5 22.0 235.1 22.1 C 235.8 22.3 236.1 22.4 236.8 22.5 C 237.4 22.5 237.7 22.5 238.4 22.5 C 239.0 22.5 239.3 22.5 239.9 22.6 C 240.6 22.6 240.9 22.6 241.6 22.6 C 242.2 22.6 242.5 22.6 243.2 22.5 C 243.8 22.5 244.1 21.9 244.7 21.2 C 245.4 20.6 245.7 19.9 246.4 19.4 C 247.0 18.8 247.3 18.6 247.9 18.6 C 248.6 18.6 248.9 19.0 249.5 19.0 C 250.2 19.0 250.5 18.2 251.2 17.9 C 251.8 17.6 252.1 17.5 252.7 17.4 C 253.4 17.3 253.7 17.4 254.3 17.2 C 255.0 17.1 255.3 16.7 256.0 16.7 C 256.6 16.7 256.9 17.1 257.5 17.2 C 258.2 17.3 258.5 17.3 259.2 17.4 C 259.8 17.5 260.1 17.5 260.8 17.6 C 261.4 17.7 261.7 17.8 262.3 17.8 C 263.0 17.8 263.3 17.4 264.0 17.3 C 264.6 17.2 264.9 17.1 265.6 17.0 C 266.2 16.9 266.5 16.8 267.1 16.8 C 267.8 16.8 268.1 17.0 268.8 17.0 C 269.4 17.0 269.7 16.7 270.3 16.7 C 271.0 16.7 271.3 16.8 271.9 16.8 C 272.6 16.9 272.9 16.9 273.6 17.1 C 274.2 17.3 274.5 17.7 275.1 17.9 C 275.8 18.1 276.1 18.2 276.7 18.2 C 277.4 18.2 277.7 18.1 278.4 18.1 C 279.0 18.1 279.3 18.3 279.9 18.3 C 280.6 18.3 280.9 18.3 281.6 18.1 C 282.2 17.9 282.5 17.5 283.2 17.5 C 283.8 17.5 284.1 17.5 284.7 17.5 C 285.4 17.5 285.7 17.4 286.4 17.3 C 287.0 17.1 287.3 16.9 288.0 16.9 C 288.6 16.9 288.9 16.9 289.5 16.9 C 290.2 16.9 290.5 17.1 291.2 17.1 C 291.8 17.1 292.1 17.0 292.7 17.0 C 293.4 17.0 293.7 17.2 294.3 17.2 C 295.0 17.2 295.3 16.9 296.0 16.6 C 296.6 16.3 296.9 15.8 297.5 15.6 C 298.2 15.3 298.5 15.1 299.1 15.1 C 299.8 15.1 300.1 16.0 300.8 16.3 C 301.4 16.7 301.7 16.8 302.3 16.8 C 303.0 16.8 303.3 16.6 304.0 16.5 C 304.6 16.5 304.9 16.5 305.6 16.5 C 306.2 16.5 306.5 14.9 307.1 14.6 C 307.8 14.2 308.1 14.3 308.8 14.2 C 309.4 14.1 309.7 14.0 310.4 13.9 C 311.0 13.8 311.3 13.9 311.9 13.8 C 312.6 13.7 312.9 13.5 313.6 13.3 C 314.2 13.0 314.5 12.7 315.1 12.4 C 315.8 12.2 316.1 12.2 316.7 12.0 C 317.4 11.9 317.7 11.7 318.4 11.7 C 319.0 11.7 319.3 12.1 319.9 12.1 C 320.6 12.1 320.9 11.4 321.5 11.4 C 322.2 11.4 322.5 11.5 323.2 11.5 C 323.8 11.5 324.1 11.5 324.7 11.6 C 325.4 11.7 325.7 11.8 326.4 11.8 C 327.0 11.8 327.3 11.7 328.0 11.7 C 328.6 11.7 328.9 12.9 329.5 12.9 C 330.2 12.9 330.5 12.6 331.2 12.5 C 331.8 12.3 332.1 12.3 332.7 12.3 C 333.4 12.3 333.7 12.3 334.3 12.4 C 335.0 12.4 335.3 12.5 336.0 12.5 C 336.6 12.5 336.9 12.1 337.5 12.0 C 338.2 11.9 338.5 12.0 339.1 11.9 C 339.8 11.8 340.1 11.6 340.8 11.6 C 341.4 11.6 341.7 11.6 342.3 11.7 C 343.0 11.8 343.3 11.8 344.0 12.0 C 344.6 12.1 344.9 12.2 345.6 12.4 C 346.2 12.6 346.5 12.9 347.1 12.9 C 347.8 12.9 348.1 12.6 348.8 12.6 C 349.4 12.6 349.7 12.6 350.4 12.7 C 351.0 12.8 351.3 13.0 351.9 13.0 C 352.6 13.0 352.9 12.9 353.6 12.7 C 354.2 12.6 354.5 12.4 355.1 12.4 C 355.8 12.4 356.1 12.5 356.7 12.5 C 357.4 12.5 357.7 12.2 358.4 12.2 C 359.0 12.2 359.3 12.2 359.9 12.2 C 360.6 12.2 360.9 12.2 361.5 12.2 C 362.2 12.3 362.5 12.8 363.2 12.8 C 363.8 12.8 364.1 12.7 364.7 12.7 C 365.4 12.7 365.7 12.8 366.4 13.0 C 367.0 13.2 367.3 13.7 368.0 13.7 C 368.6 13.7 368.9 13.6 369.5 13.6 C 370.2 13.6 370.5 14.2 371.2 14.6 C 371.8 15.0 372.1 15.3 372.8 15.6 C 373.4 15.9 373.7 16.0 374.3 16.0 C 375.0 16.0 375.3 15.6 376.0 15.4 C 376.6 15.2 376.9 15.1 377.5 14.9 C 378.2 14.8 378.5 14.5 379.1 14.5 C 379.8 14.5 380.1 14.8 380.8 14.9 C 381.4 15.1 381.7 15.1 382.3 15.3 C 383.0 15.5 383.3 16.0 383.9 16.0 C 384.6 16.1 384.9 16.1 385.6 16.1 C 386.2 16.1 386.5 15.3 387.1 14.9 C 387.8 14.5 388.1 14.3 388.8 14.1 C 389.4 13.8 389.7 13.5 390.4 13.5 C 391.0 13.5 391.3 13.6 391.9 13.6 C 392.6 13.6 392.9 13.6 393.6 13.5 C 394.2 13.5 394.5 13.4 395.2 13.4 C 395.8 13.4 396.1 13.5 396.7 13.6 C 397.4 13.8 397.7 14.0 398.4 14.1 C 399.0 14.2 399.3 14.2 399.9 14.2 C 400.6 14.2 400.9 14.2 401.5 14.1 C 402.2 14.1 402.5 13.8 403.2 13.6 C 403.8 13.4 404.1 13.2 404.7 13.1 C 405.4 12.9 405.7 13.0 406.3 12.9 C 407.0 12.9 407.3 12.7 408.0 12.7 C 408.6 12.7 408.9 12.9 409.5 13.1 C 410.2 13.3 410.5 13.6 411.2 13.6 C 411.8 13.6 412.1 13.6 412.8 13.6 C 413.4 13.6 413.7 13.3 414.3 13.2 C 415.0 13.1 415.3 13.2 416.0 13.1 C 416.6 13.0 416.9 12.8 417.6 12.7 C 418.2 12.5 418.5 12.6 419.1 12.5 C 419.8 12.4 420.1 12.2 420.8 12.2 C 421.4 12.2 421.7 12.3 422.3 12.3 C 423.0 12.4 423.3 12.4 423.9 12.5 C 424.6 12.6 424.9 12.7 425.6 12.8 C 426.2 12.8 426.5 12.8 427.1 12.8 C 427.8 12.8 428.1 12.6 428.7 12.6 C 429.4 12.6 429.7 12.6 430.4 12.6 C 431.0 12.6 431.3 13.1 431.9 13.1 C 432.6 13.1 432.9 13.0 433.6 13.0 C 434.2 13.0 434.5 13.5 435.2 13.5 C 435.8 13.5 436.1 13.2 436.7 13.1 C 437.4 13.1 437.7 13.1 438.4 13.1 C 439.0 13.1 439.3 13.1 439.9 13.2 C 440.6 13.2 440.9 13.3 441.5 13.4 C 442.2 13.4 442.5 13.5 443.2 13.5 C 443.8 13.5 444.1 13.4 444.7 13.3 C 445.4 13.3 445.7 13.3 446.3 13.2 C 447.0 13.1 447.3 13.2 448.0 13.0 C 448.6 12.9 448.9 12.6 449.5 12.4 C 450.2 12.2 450.5 12.2 451.2 12.1 C 451.8 11.9 452.1 11.8 452.8 11.8 C 453.4 11.8 453.7 11.9 454.3 12.0 C 455.0 12.1 455.3 12.4 456.0 12.4 C 456.6 12.4 456.9 12.3 457.6 12.2 C 458.2 12.1 458.5 12.2 459.1 11.8 C 459.8 11.5 460.1 6.2 460.8 5.9 C 461.4 5.6 461.7 5.6 462.3 5.6 C 463.0 5.6 463.3 5.7 463.9 5.7 C 464.6 5.7 464.9 5.7 465.6 5.6 C 466.2 5.6 466.5 5.6 467.1 5.5 C 467.8 5.5 468.1 5.3 468.7 5.2 C 469.4 5.1 469.7 5.1 470.4 5.1 C 471.0 5.1 471.3 5.1 471.9 5.2 C 472.6 5.2 472.9 5.3 473.6 5.3 C 474.2 5.3 474.5 5.3 475.2 5.3 C 475.8 5.3 476.1 5.8 476.7 6.0 C 477.4 6.1 477.7 6.0 478.4 6.1 C 479.0 6.2 479.3 6.3 480.0 6.3 C 480.6 6.3 480.9 5.9 481.5 5.9 C 482.2 5.9 482.5 6.0 483.2 6.0 C 483.8 6.0 484.1 6.0 484.7 6.0 C 485.4 5.9 485.7 6.0 486.3 5.9 C 487.0 5.9 487.3 5.8 488.0 5.8 C 488.6 5.8 488.9 5.8 489.5 5.8 C 490.2 5.9 490.5 5.8 491.1 5.9 C 491.8 5.9 492.1 6.1 492.8 6.2 C 493.4 6.3 493.7 6.5 494.3 6.5 C 495.0 6.5 495.3 6.5 496.0 6.4 C 496.6 6.4 496.9 6.3 497.6 6.3 C 498.2 6.3 498.5 6.4 499.1 6.4 C 499.8 6.4 500.1 6.3 500.8 6.2 C 501.4 6.2 501.7 6.2 502.4 6.1 C 503.0 6.0 503.3 5.9 503.9 5.8 C 504.6 5.7 504.9 5.5 505.6 5.5 C 506.2 5.5 506.5 5.7 507.1 5.7 C 507.8 5.7 508.1 5.6 508.7 5.5 C 509.4 5.4 509.7 5.2 510.4 5.2 C 511.0 5.2 511.3 5.2 511.9 5.2 C 512.6 5.2 512.9 5.2 513.5 5.2 C 514.2 5.2 514.5 5.2 515.2 5.0 C 515.8 4.9 516.1 4.8 516.7 4.7 C 517.4 4.5 517.7 4.3 518.4 4.3 C 519.0 4.3 519.3 4.3 520.0 4.3 C 520.6 4.3 520.9 4.1 521.5 4.1 C 522.2 4.1 522.5 4.1 523.2 4.1 C 523.8 4.1 524.1 4.0 524.8 4.0 C 525.4 3.9 525.7 3.8 526.3 3.8 C 527.0 3.8 527.3 3.9 528.0 4.0 C 528.6 4.1 528.9 4.3 529.5 4.3 C 530.2 4.3 530.5 4.2 531.1 4.1 C 531.8 3.9 532.1 3.5 532.8 3.5 C 533.4 3.5 533.7 3.7 534.3 3.7 C 535.0 3.7 536 3.3 536 3.3" stroke="#4572A7" stroke-width="1"  stroke-linejoin="round" stroke-linecap="round"></path></g><g class="highcharts-markers" visibility="visible"  transform="translate(24,331) scale(1 1)" clip-path="url(#highcharts-3)"></g></g><g class="highcharts-navigator" ><rect fill="rgb(128,179,236)" fill-opacity="0.3" style="cursor:ew-resize ;" x="483" y="331" width="77" height="40"></rect><path fill="none" stroke="#b2b1b6" stroke-width="1" d="M 10 331.5 L 482.5 331.5 482.5 385.5 L 559.5 385.5 L 559.5 331.5 574 331.5 M 483.5 331.5 L 559.5 331.5"></path></g><g class="highcharts-navigator-handle-right" style="cursor:ew-resize;"  transform="translate(560,343)"><rect x="-4.5" y="0.5" width="8" height="15" strokeWidth="1" fill="#ebe7e8" stroke="#b2b1b6" stroke-width="1"></rect><path fill="#ebe7e8" d="M -1.5 4 L -1.5 12 M 0.5 4 L 0.5 12" stroke="#b2b1b6" stroke-width="1"></path></g><text x="292" text-anchor="middle" class="highcharts-title"  style="color:#333333;font-size:16px;fill:#333333;width:520px;" y="22"><tspan>AAPL stock price by minute</tspan></text><g class="highcharts-navigator-handle-left" style="cursor:ew-resize;"  transform="translate(483,343)"><rect x="-4.5" y="0.5" width="8" height="15" strokeWidth="1" fill="#ebe7e8" stroke="#b2b1b6" stroke-width="1"></rect><path fill="#ebe7e8" d="M -1.5 4 L -1.5 12 M 0.5 4 L 0.5 12" stroke="#b2b1b6" stroke-width="1"></path></g><g class="highcharts-axis-labels highcharts-xaxis-labels" ><text x="10" style="color:#606060;cursor:default;font-size:11px;fill:#606060;" text-anchor="start" transform="translate(0,0)" y="304" opacity="1"><tspan>14. Oct</tspan></text><text x="96.2" style="color:#606060;cursor:default;font-size:11px;fill:#606060;" text-anchor="middle" transform="translate(0,0)" y="304" opacity="1">09:00</text><text x="165.3" style="color:#606060;cursor:default;font-size:11px;fill:#606060;" text-anchor="middle" transform="translate(0,0)" y="304" opacity="1">10:00</text><text x="234.3" style="color:#606060;cursor:default;font-size:11px;fill:#606060;" text-anchor="middle" transform="translate(0,0)" y="304" opacity="1">11:00</text><text x="303.4" style="color:#606060;cursor:default;font-size:11px;fill:#606060;" text-anchor="middle" transform="translate(0,0)" y="304" opacity="1">12:00</text><text x="372.5" style="color:#606060;cursor:default;font-size:11px;fill:#606060;" text-anchor="middle" transform="translate(0,0)" y="304" opacity="1">13:00</text><text x="441.6" style="color:#606060;cursor:default;font-size:11px;fill:#606060;" text-anchor="middle" transform="translate(0,0)" y="304" opacity="1">14:00</text><text x="510.6" style="color:#606060;cursor:default;font-size:11px;fill:#606060;" text-anchor="middle" transform="translate(0,0)" y="304" opacity="1">15:00</text><text x="574" style="color:#606060;cursor:default;font-size:11px;fill:#606060;" text-anchor="end" transform="translate(0,0)" y="304" opacity="1">16:00</text></g><g class="highcharts-axis-labels highcharts-xaxis-labels" ><text x="256.5" style="color:#888;cursor:default;font-size:11px;fill:#888;" text-anchor="start" transform="translate(0,0)" y="367" opacity="1"><tspan>11. Oct</tspan></text><text x="486.9" style="color:#888;cursor:default;font-size:11px;fill:#888;" text-anchor="start" transform="translate(0,0)" y="367" opacity="1"><tspan>14. Oct</tspan></text></g><g class="highcharts-axis-labels highcharts-yaxis-labels" ><text x="574" style="color:#606060;cursor:default;font-size:11px;fill:#606060;width:183px;text-overflow:clip;" text-anchor="end" transform="translate(0,0)" y="283" opacity="1">405</text><text x="574" style="color:#606060;cursor:default;font-size:11px;fill:#606060;width:183px;text-overflow:clip;" text-anchor="end" transform="translate(0,0)" y="232" opacity="1">410</text><text x="574" style="color:#606060;cursor:default;font-size:11px;fill:#606060;width:183px;text-overflow:clip;" text-anchor="end" transform="translate(0,0)" y="180" opacity="1">415</text><text x="574" style="color:#606060;cursor:default;font-size:11px;fill:#606060;width:183px;text-overflow:clip;" text-anchor="end" transform="translate(0,0)" y="129" opacity="1">420</text><text x="0" style="color:#606060;cursor:default;font-size:11px;fill:#606060;width:183px;text-overflow:clip;" text-anchor="end" transform="translate(0,0)" y="-9999">425</text></g><g class="highcharts-axis-labels highcharts-yaxis-labels" ></g><g class="highcharts-tooltip"  style="cursor:default;padding:0;white-space:nowrap;" transform="translate(0,-9999)"><path fill="none" d="M 3 0 L 13 0 C 16 0 16 0 16 3 L 16 13 C 16 16 16 16 13 16 L 3 16 C 0 16 0 16 0 13 L 0 3 C 0 0 0 0 3 0"  stroke="black" stroke-opacity="0.0" stroke-width="5" transform="translate(1, 1)"></path><path fill="none" d="M 3 0 L 13 0 C 16 0 16 0 16 3 L 16 13 C 16 16 16 16 13 16 L 3 16 C 0 16 0 16 0 13 L 0 3 C 0 0 0 0 3 0"  stroke="black" stroke-opacity="0.0" stroke-width="3" transform="translate(1, 1)"></path><path fill="none" d="M 3 0 L 13 0 C 16 0 16 0 16 3 L 16 13 C 16 16 16 16 13 16 L 3 16 C 0 16 0 16 0 13 L 0 3 C 0 0 0 0 3 0"  stroke="black" stroke-opacity="0.1" stroke-width="1" transform="translate(1, 1)"></path><path fill="rgb(249, 249, 249)" fill-opacity=" .85" d="M 3 0 L 13 0 C 16 0 16 0 16 3 L 16 13 C 16 16 16 16 13 16 L 3 16 C 0 16 0 16 0 13 L 0 3 C 0 0 0 0 3 0"></path><text x="8"  style="font-size:12px;color:#333333;fill:#333333;" transform="translate(0,20)"></text></g></svg>