<svg version="1.1" style="font-family:&quot;lucida grande&quot;, &quot;lucida sans unicode&quot;, arial, helvetica, sans-serif;font-size:12px;" xmlns="http://www.w3.org/2000/svg" width="584" height="400" viewBox="0 0 584 400"><desc>Created with Highstock 2.1.4</desc><defs><clipPath id="highcharts-1"><rect x="0" y="0" width="564" height="246"></rect></clipPath><clipPath id="highcharts-2"><rect x="-99" y="-79" width="663" height="400"></rect></clipPath><clipPath id="highcharts-3"><rect x="0" y="0" width="564" height="246"></rect></clipPath></defs><rect x="0" y="0" width="584" height="400" strokeWidth="0" fill="#FFFFFF" class=" highcharts-background"></rect><g class="highcharts-scrollbar" transform="translate(10,372)"><rect x="0" y="-0.5" fill="#eeeeee" stroke="#eeeeee" stroke-width="1" rx="0" ry="0" height="14" width="564"></rect><rect y="-0.5" height="14" fill="#bfc8d1" stroke="#bfc8d1" stroke-width="1" rx="0" ry="0" x="531.5" width="18"></rect><path fill="none" stroke="#666" stroke-width="1" visibility="visible" d="M 537 3.5 L 537 9.3 M 540 3.5 L 540 9.3 M 543 3.5 L 543 9.3"></path><g><rect x="-0.5" y="-0.5" width="14" height="14" strokeWidth="1" stroke="#bbb" stroke-width="1" fill="#ebe7e8"></rect><path fill="#666" d="M 8 4 L 8 10 5 7"></path></g><g transform="translate(550,0)"><rect x="-0.5" y="-0.5" width="14" height="14" strokeWidth="1" stroke="#bbb" stroke-width="1" fill="#ebe7e8"></rect><path fill="#666" d="M 6 4 L 6 10 9 7"></path></g></g><g class="highcharts-range-selector-buttons"><text x="10" y="59" style="color:#666;fill:#666;">Zoom</text><g class="highcharts-button"  states="[object Object]" style="cursor:pointer;text-align:center;" transform="translate(46,44)"><rect x="0" y="0" width="32" height="22" strokeWidth="0" fill="#f7f7f7" rx="0" ry="0"></rect><text x="7.5"  style="font-weight:normal;color:#444;fill:#444;" transform="translate(0,14)">1m</text></g><g class="highcharts-button"  states="[object Object]" style="cursor:pointer;text-align:center;" transform="translate(83,44)"><rect x="0" y="0" width="32" height="22" strokeWidth="0" fill="#e7f0f9" rx="0" ry="0"></rect><text x="7.5"  style="font-weight:bold;color:black;fill:black;" transform="translate(0,14)">3m</text></g><g class="highcharts-button"  states="[object Object]" style="cursor:pointer;text-align:center;" transform="translate(120,44)"><rect x="0" y="0" width="32" height="22" strokeWidth="0" fill="#f7f7f7" rx="0" ry="0"></rect><text x="7.5"  style="font-weight:normal;color:#444;fill:#444;" transform="translate(0,14)">6m</text></g><g class="highcharts-button"  states="[object Object]" style="cursor:pointer;text-align:center;" transform="translate(157,44)"><rect x="0" y="0" width="32" height="22" strokeWidth="0" fill="#f7f7f7" rx="0" ry="0"></rect><text x="4"  style="font-weight:normal;color:#444;fill:#444;" transform="translate(0,14)">YTD</text></g><g class="highcharts-button"  states="[object Object]" style="cursor:pointer;text-align:center;" transform="translate(194,44)"><rect x="0" y="0" width="32" height="22" strokeWidth="0" fill="#f7f7f7" rx="0" ry="0"></rect><text x="9.5"  style="font-weight:normal;color:#444;fill:#444;" transform="translate(0,14)">1y</text></g><g class="highcharts-button"  states="[object Object]" style="cursor:pointer;text-align:center;" transform="translate(231,44)"><rect x="0" y="0" width="32" height="22" strokeWidth="0" fill="#f7f7f7" rx="0" ry="0"></rect><text x="10"  style="font-weight:normal;color:#444;fill:#444;" transform="translate(0,14)">All</text></g></g><g class="highcharts-input-group" transform="translate(316,44)" visibility="visible"><g style="fill:#666;" transform="translate(0,0)"><text x="2"  style="font-size:12px;font-family:&quot;lucida grande&quot;, &quot;lucida sans unicode&quot;, arial, helvetica, sans-serif;color:#666;fill:#666;" transform="translate(0,14)">From</text></g><g style="text-align:center;" transform="translate(36,0)"><rect x="0.5" y="0.5" width="94" height="21" strokeWidth="1" fill="none" stroke="silver" stroke-width="1"></rect><text x="13.5"  style="font-size:12px;font-family:&quot;lucida grande&quot;, &quot;lucida sans unicode&quot;, arial, helvetica, sans-serif;color:#444;fill:#444;" transform="translate(0,14)"><tspan>Feb 9, 2013</tspan></text></g><g style="fill:#666;" transform="translate(140,0)"><text x="2"  style="font-size:12px;font-family:&quot;lucida grande&quot;, &quot;lucida sans unicode&quot;, arial, helvetica, sans-serif;color:#666;fill:#666;" transform="translate(0,14)">To</text></g><g style="text-align:center;" transform="translate(164,0)"><rect x="0.5" y="0.5" width="94" height="21" strokeWidth="1" fill="none" stroke="silver" stroke-width="1"></rect><text x="9.5"  style="font-size:12px;font-family:&quot;lucida grande&quot;, &quot;lucida sans unicode&quot;, arial, helvetica, sans-serif;color:#444;fill:#444;" transform="translate(0,14)"><tspan>May 10, 2013</tspan></text></g></g><g class="highcharts-grid" ></g><g class="highcharts-grid" ><path fill="none" d="M 10 325.5 L 574 325.5" stroke="#D8D8D8" stroke-width="1"  opacity="1"></path><path fill="none" d="M 10 276.5 L 574 276.5" stroke="#D8D8D8" stroke-width="1"  opacity="1"></path><path fill="none" d="M 10 227.5 L 574 227.5" stroke="#D8D8D8" stroke-width="1"  opacity="1"></path><path fill="none" d="M 10 177.5 L 574 177.5" stroke="#D8D8D8" stroke-width="1"  opacity="1"></path><path fill="none" d="M 10 128.5 L 574 128.5" stroke="#D8D8D8" stroke-width="1"  opacity="1"></path><path fill="none" d="M 10 78.5 L 574 78.5" stroke="#D8D8D8" stroke-width="1"  opacity="1"></path></g><g class="highcharts-axis" ><path fill="none" d="M 58.5 325 L 58.5 335" stroke="#C0D0E0" stroke-width="1" opacity="1"></path><path fill="none" d="M 141.5 325 L 141.5 335" stroke="#C0D0E0" stroke-width="1" opacity="1"></path><path fill="none" d="M 231.5 325 L 231.5 335" stroke="#C0D0E0" stroke-width="1" opacity="1"></path><path fill="none" d="M 312.5 325 L 312.5 335" stroke="#C0D0E0" stroke-width="1" opacity="1"></path><path fill="none" d="M 402.5 325 L 402.5 335" stroke="#C0D0E0" stroke-width="1" opacity="1"></path><path fill="none" d="M 492.5 325 L 492.5 335" stroke="#C0D0E0" stroke-width="1" opacity="1"></path><path fill="none" d="M 10 325.5 L 574 325.5" stroke="#C0D0E0" stroke-width="1"  visibility="visible"></path></g><g class="highcharts-axis" ></g><g class="highcharts-series-group" ><g class="highcharts-series" visibility="visible"  transform="translate(10,79) scale(1 1)" clip-path="url(#highcharts-3)"><path fill="none" d="M -3.0 49.2 L 6.0 39.4 L 14.9 63.1 L 23.9 64.9 L 33.0 65.7 L 41.9 78.4 L 50.9 78.7 L 60.0 100.6 L 68.9 106.1 L 77.9 96.8 L 87.0 112.5 L 95.9 100.4 L 104.9 109.0 L 114.0 115.3 L 123.0 136.8 L 131.9 157.3 L 141 135.5 L 150.0 146.3 L 158.9 136.6 L 167.9 134.3 L 177.0 122.2 L 185.9 140.8 L 194.9 141.0 L 204.0 132.8 L 212.9 110.8 L 221.9 87.1 L 231.0 89.5 L 239.9 94.3 L 248.9 93.0 L 258.0 74.9 L 266.9 71.6 L 275.9 76.4 L 285.0 94.3 L 293.9 112.8 L 302.9 139.9 L 312.0 138.1 L 321.0 133.8 L 329.9 142.2 L 339.0 151.1 L 348.0 145.2 L 356.9 143.7 L 365.9 126.5 L 375.0 129.2 L 383.9 138.1 L 392.9 157.7 L 402.0 145.1 L 410.9 191.2 L 419.9 212.4 L 429.0 215.4 L 437.9 199.4 L 446.9 184.7 L 456.0 186.0 L 464.9 180.3 L 473.9 162.9 L 483.0 137.5 L 491.9 112.6 L 500.9 119.4 L 510.0 107.2 L 518.9 98.4 L 527.9 77.3 L 537.0 81.3 L 546.0 71.1 L 554.9 85.0 L 564 92.5" stroke="#7cb5ec" stroke-width="2"  stroke-linejoin="round" stroke-linecap="round"></path><path fill="none" d="M -13.0 49.2 L -3.0 49.2 L 6.0 39.4 L 14.9 63.1 L 23.9 64.9 L 33.0 65.7 L 41.9 78.4 L 50.9 78.7 L 60.0 100.6 L 68.9 106.1 L 77.9 96.8 L 87.0 112.5 L 95.9 100.4 L 104.9 109.0 L 114.0 115.3 L 123.0 136.8 L 131.9 157.3 L 141 135.5 L 150.0 146.3 L 158.9 136.6 L 167.9 134.3 L 177.0 122.2 L 185.9 140.8 L 194.9 141.0 L 204.0 132.8 L 212.9 110.8 L 221.9 87.1 L 231.0 89.5 L 239.9 94.3 L 248.9 93.0 L 258.0 74.9 L 266.9 71.6 L 275.9 76.4 L 285.0 94.3 L 293.9 112.8 L 302.9 139.9 L 312.0 138.1 L 321.0 133.8 L 329.9 142.2 L 339.0 151.1 L 348.0 145.2 L 356.9 143.7 L 365.9 126.5 L 375.0 129.2 L 383.9 138.1 L 392.9 157.7 L 402.0 145.1 L 410.9 191.2 L 419.9 212.4 L 429.0 215.4 L 437.9 199.4 L 446.9 184.7 L 456.0 186.0 L 464.9 180.3 L 473.9 162.9 L 483.0 137.5 L 491.9 112.6 L 500.9 119.4 L 510.0 107.2 L 518.9 98.4 L 527.9 77.3 L 537.0 81.3 L 546.0 71.1 L 554.9 85.0 L 564 92.5 L 574 92.5" stroke-linejoin="round" visibility="visible" stroke="rgb(192,192,192)" stroke-opacity="0.0" stroke-width="22"  class=" highcharts-tracker" style=""></path></g><g class="highcharts-markers highcharts-tracker" visibility="visible"  transform="translate(10,79) scale(1 1)" clip-path="url(#highcharts-2)" style=""></g></g><text x="292" text-anchor="middle" class="highcharts-title"  style="color:#333333;font-size:16px;fill:#333333;width:520px;" y="22"><tspan>AAPL Stock Price</tspan></text><g class="highcharts-axis-labels highcharts-xaxis-labels" ><text x="58.7" style="color:#606060;cursor:default;font-size:11px;fill:#606060;" text-anchor="middle" transform="translate(0,0)" y="344" opacity="1"><tspan>18. Feb</tspan></text><text x="141.9" style="color:#606060;cursor:default;font-size:11px;fill:#606060;" text-anchor="middle" transform="translate(0,0)" y="344" opacity="1"><tspan>4. Mar</tspan></text><text x="231.9" style="color:#606060;cursor:default;font-size:11px;fill:#606060;" text-anchor="middle" transform="translate(0,0)" y="344" opacity="1"><tspan>18. Mar</tspan></text><text x="312.9" style="color:#606060;cursor:default;font-size:11px;fill:#606060;" text-anchor="middle" transform="translate(0,0)" y="344" opacity="1"><tspan>1. Apr</tspan></text><text x="402.9" style="color:#606060;cursor:default;font-size:11px;fill:#606060;" text-anchor="middle" transform="translate(0,0)" y="344" opacity="1"><tspan>15. Apr</tspan></text><text x="493.0" style="color:#606060;cursor:default;font-size:11px;fill:#606060;" text-anchor="middle" transform="translate(0,0)" y="344" opacity="1"><tspan>29. Apr</tspan></text></g><g class="highcharts-axis-labels highcharts-yaxis-labels" ><text x="574" style="color:#606060;cursor:default;font-size:11px;fill:#606060;width:183px;text-overflow:clip;" text-anchor="end" transform="translate(0,0)" y="323" opacity="1">375</text><text x="574" style="color:#606060;cursor:default;font-size:11px;fill:#606060;width:183px;text-overflow:clip;" text-anchor="end" transform="translate(0,0)" y="274" opacity="1">400</text><text x="574" style="color:#606060;cursor:default;font-size:11px;fill:#606060;width:183px;text-overflow:clip;" text-anchor="end" transform="translate(0,0)" y="225" opacity="1">425</text><text x="574" style="color:#606060;cursor:default;font-size:11px;fill:#606060;width:183px;text-overflow:clip;" text-anchor="end" transform="translate(0,0)" y="175" opacity="1">450</text><text x="574" style="color:#606060;cursor:default;font-size:11px;fill:#606060;width:183px;text-overflow:clip;" text-anchor="end" transform="translate(0,0)" y="126" opacity="1">475</text><text x="0" style="color:#606060;cursor:default;font-size:11px;fill:#606060;width:183px;text-overflow:clip;" text-anchor="end" transform="translate(0,0)" y="-9999">500</text></g><g class="highcharts-tooltip"  style="cursor:default;padding:0;white-space:nowrap;" transform="translate(0,-9999)"><path fill="none" d="M 3 0 L 13 0 C 16 0 16 0 16 3 L 16 13 C 16 16 16 16 13 16 L 3 16 C 0 16 0 16 0 13 L 0 3 C 0 0 0 0 3 0"  stroke="black" stroke-opacity="0.0" stroke-width="5" transform="translate(1, 1)"></path><path fill="none" d="M 3 0 L 13 0 C 16 0 16 0 16 3 L 16 13 C 16 16 16 16 13 16 L 3 16 C 0 16 0 16 0 13 L 0 3 C 0 0 0 0 3 0"  stroke="black" stroke-opacity="0.0" stroke-width="3" transform="translate(1, 1)"></path><path fill="none" d="M 3 0 L 13 0 C 16 0 16 0 16 3 L 16 13 C 16 16 16 16 13 16 L 3 16 C 0 16 0 16 0 13 L 0 3 C 0 0 0 0 3 0"  stroke="black" stroke-opacity="0.1" stroke-width="1" transform="translate(1, 1)"></path><path fill="rgb(249, 249, 249)" fill-opacity=" .85" d="M 3 0 L 13 0 C 16 0 16 0 16 3 L 16 13 C 16 16 16 16 13 16 L 3 16 C 0 16 0 16 0 13 L 0 3 C 0 0 0 0 3 0"></path><text x="8"  style="font-size:12px;color:#333333;fill:#333333;" transform="translate(0,20)"></text></g></svg>