<svg version="1.1" style="font-family: signika, serif; font-size: 12px; background-image: url(http://www.highcharts.com/samples/graphics/sand.png); background-attachment: initial; background-origin: initial; background-clip: initial; background-color: initial; background-position: initial initial; background-repeat: initial initial; " xmlns="http://www.w3.org/2000/svg" width="584" height="400" viewBox="0 0 584 400" xmlns:xlink="http://www.w3.org/1999/xlink"><style type="text/css"><![CDATA[@import url(http://fonts.googleapis.com/css?family=Signika:700);]]></style><desc>Created with Highcharts 4.1.4</desc><defs><clipPath id="highcharts-1"><rect x="-75" y="-75" width="734" height="550"></rect></clipPath></defs><g  style="stroke:rgba(255,255,255,0);"><path fill="rgb(230,230,230)" fill-opacity="0" d="M 514.9 83.8 L 503.6 326.9 L 503.7 326.6 L 515.0 83.6 Z"  stroke-linejoin="round"></path><path fill="rgb(255,255,255)" fill-opacity="0" d="M 514.9 83.8 L 515.0 83.6 L 100.4 65.7 L 100.0 65.8 Z"  stroke-linejoin="round"></path><path fill="rgb(255,255,255)" fill-opacity="0" d="M 109.0 290.7 L 503.6 326.9 L 514.9 83.8 L 100.0 65.8 Z"  stroke-linejoin="round"></path></g><g  style="stroke:rgba(255,255,255,0);"><path fill="rgb(255,255,255)" fill-opacity="0" d="M 79.9 73.3 L 100.0 65.8 L 99.1 65.8 L 79.0 73.3 Z"  stroke-linejoin="round"></path><path fill="rgb(255,255,255)" fill-opacity="0" d="M 89.3 305.8 L 90.2 305.9 L 79.9 73.3 L 79.0 73.3 Z"  stroke-linejoin="round"></path><path fill="rgb(230,230,230)" fill-opacity="0" d="M 79.9 73.3 L 90.2 305.9 L 109.0 290.7 L 100.0 65.8 Z"  stroke-linejoin="round"></path></g><g  style="stroke:rgba(255,255,255,0);"><path fill="rgb(230,230,230)" fill-opacity="0" d="M 498.4 343.8 L 498.4 344.8 L 503.5 327.2 L 503.6 326.3 Z"  stroke-linejoin="round"></path><path fill="rgb(255,255,255)" fill-opacity="0" d="M 90.2 305.9 L 498.4 344.8 L 498.4 343.8 L 90.1 305.0 Z"  stroke-linejoin="round"></path><path fill="rgb(255,255,255)" fill-opacity="0" d="M 498.4 343.8 L 503.6 326.3 L 108.6 290.2 L 90.1 305.0 Z"  stroke-linejoin="round"></path></g><g class="highcharts-grid" ><path fill="none" d="M 118.6 66.8 L 118.6 66.8 L 126.7 291.8 L 108.8 306.8" stroke="#D8D8D8" stroke-width="1"  opacity="1"></path><path fill="none" d="M 197.8 70.2 L 197.8 70.2 L 202.3 298.7 L 186.8 314.2" stroke="#D8D8D8" stroke-width="1"  opacity="1"></path><path fill="none" d="M 280.7 73.8 L 280.7 73.8 L 281.3 306.0 L 268.3 321.9" stroke="#D8D8D8" stroke-width="1"  opacity="1"></path><path fill="none" d="M 366.6 77.5 L 366.6 77.5 L 362.9 313.4 L 352.8 330.0" stroke="#D8D8D8" stroke-width="1"  opacity="1"></path><path fill="none" d="M 455.6 81.4 L 455.6 81.4 L 447.4 321.2 L 440.2 338.3" stroke="#D8D8D8" stroke-width="1"  opacity="1"></path></g><g class="highcharts-grid" ><path fill="none" d="M 90.1 305.4 L 108.6 290.6 L 503.5 326.8 L 503.5 326.8" stroke="#D8D8D8" stroke-width="1"  opacity="1"></path><path fill="none" d="M 88.2 260.9 L 106.9 247.5 L 505.7 280.3 L 505.7 280.3" stroke="#D8D8D8" stroke-width="1"  opacity="1"></path><path fill="none" d="M 86.2 215.5 L 105.1 203.5 L 507.9 232.8 L 507.9 232.8" stroke="#D8D8D8" stroke-width="1"  opacity="1"></path><path fill="none" d="M 84.1 169.2 L 103.3 158.7 L 510.2 184.4 L 510.2 184.4" stroke="#D8D8D8" stroke-width="1"  opacity="1"></path><path fill="none" d="M 82.0 122.0 L 101.5 113.0 L 512.5 135.0 L 512.5 135.0" stroke="#D8D8D8" stroke-width="1"  opacity="1"></path><path fill="none" d="M 79.9 72.8 L 99.6 65.5 L 514.9 83.4 L 514.9 83.4" stroke="#D8D8D8" stroke-width="1"  opacity="1"></path></g><g class="highcharts-axis" ><path fill="none" d="M 75 325.5 L 509 325.5" stroke="#C0D0E0" stroke-width="1"  visibility="hidden"></path></g><g class="highcharts-axis" ><text x="32"  text-anchor="middle" transform="translate(0,0) rotate(270 32 200)" class=" highcharts-yaxis-title" style="color:#707070;fill:#707070;" visibility="visible" y="200">Values</text></g><g class="highcharts-series-group" ><g class="highcharts-series highcharts-tracker" visibility="visible"  transform="translate(75,75) scale(1 1)" style="" clip-path="url(#highcharts-1)"><g  stroke="black" stroke-width="5" r="0"  stroke-opacity="0.0" transform="translate(1, 1)" fill="none"></g><g  stroke="black" stroke-width="3" r="0"  stroke-opacity="0.0" transform="translate(1, 1)" fill="none"></g><g  stroke="black" stroke-width="1" r="0"  stroke-opacity="0.1" transform="translate(1, 1)" fill="none"></g><g  stroke="#f45b5b" stroke-width="1" r="0"><path fill="#f45b5b" d="M 26.4 231.2 L 42.0 232.6 L 41.0 205.9 L 25.2 204.5 Z"  stroke-linejoin="round"></path><path fill="rgb(255,116,116)" fill-opacity="1" d="M 41.0 205.9 L 50.1 198.7 L 34.5 197.4 L 25.2 204.5 Z"  stroke-linejoin="round"></path><path fill="rgb(219,66,66)" fill-opacity="1" d="M 41.0 205.9 L 42.0 232.6 L 51.0 225.0 L 50.1 198.7 Z"  stroke-linejoin="round"></path></g><g  stroke="black" stroke-width="5" r="0"  stroke-opacity="0.0" transform="translate(1, 1)" fill="none"></g><g  stroke="black" stroke-width="3" r="0"  stroke-opacity="0.0" transform="translate(1, 1)" fill="none"></g><g  stroke="black" stroke-width="1" r="0"  stroke-opacity="0.1" transform="translate(1, 1)" fill="none"></g><g  stroke="#f45b5b" stroke-width="1" r="0"><path fill="#f45b5b" d="M 57.8 234.1 L 73.7 235.7 L 71.7 171.5 L 55.6 170.2 Z"  stroke-linejoin="round"></path><path fill="rgb(255,116,116)" fill-opacity="1" d="M 71.7 171.5 L 80.3 164.8 L 64.5 163.5 L 55.6 170.2 Z"  stroke-linejoin="round"></path><path fill="rgb(219,66,66)" fill-opacity="1" d="M 71.7 171.5 L 73.7 235.7 L 82.2 227.9 L 80.3 164.8 Z"  stroke-linejoin="round"></path></g><g  stroke="black" stroke-width="5" r="0"  stroke-opacity="0.0" transform="translate(1, 1)" fill="none"></g><g  stroke="black" stroke-width="3" r="0"  stroke-opacity="0.0" transform="translate(1, 1)" fill="none"></g><g  stroke="black" stroke-width="1" r="0"  stroke-opacity="0.1" transform="translate(1, 1)" fill="none"></g><g  stroke="#f45b5b" stroke-width="1" r="0"><path fill="rgb(255,116,116)" fill-opacity="1" d="M 102.5 141.6 L 110.7 135.3 L 94.6 134.1 L 86.1 140.3 Z"  stroke-linejoin="round"></path><path fill="#f45b5b" d="M 88.8 237.1 L 104.9 238.6 L 102.5 141.6 L 86.1 140.3 Z"  stroke-linejoin="round"></path><path fill="rgb(219,66,66)" fill-opacity="1" d="M 102.5 141.6 L 104.9 238.6 L 112.9 230.8 L 110.7 135.3 Z"  stroke-linejoin="round"></path></g><g  stroke="black" stroke-width="5" r="0"  stroke-opacity="0.0" transform="translate(1, 1)" fill="none"></g><g  stroke="black" stroke-width="3" r="0"  stroke-opacity="0.0" transform="translate(1, 1)" fill="none"></g><g  stroke="black" stroke-width="1" r="0"  stroke-opacity="0.1" transform="translate(1, 1)" fill="none"></g><g  stroke="#f45b5b" stroke-width="1" r="0"><path fill="rgb(255,116,116)" fill-opacity="1" d="M 135.4 122.3 L 143.1 116.3 L 126.6 115.2 L 118.6 121.1 Z"  stroke-linejoin="round"></path><path fill="#f45b5b" d="M 121.1 240.2 L 137.4 241.7 L 135.4 122.3 L 118.6 121.1 Z"  stroke-linejoin="round"></path><path fill="rgb(219,66,66)" fill-opacity="1" d="M 135.4 122.3 L 137.4 241.7 L 144.9 233.8 L 143.1 116.3 Z"  stroke-linejoin="round"></path></g><g  stroke="black" stroke-width="5" r="0"  stroke-opacity="0.0" transform="translate(1, 1)" fill="none"></g><g  stroke="black" stroke-width="3" r="0"  stroke-opacity="0.0" transform="translate(1, 1)" fill="none"></g><g  stroke="black" stroke-width="1" r="0"  stroke-opacity="0.1" transform="translate(1, 1)" fill="none"></g><g  stroke="#f45b5b" stroke-width="1" r="0"><path fill="rgb(255,116,116)" fill-opacity="1" d="M 168.1 110.2 L 175.3 104.4 L 158.6 103.3 L 151.1 109.1 Z"  stroke-linejoin="round"></path><path fill="#f45b5b" d="M 153.0 243.2 L 169.5 244.8 L 168.1 110.2 L 151.1 109.1 Z"  stroke-linejoin="round"></path><path fill="rgb(219,66,66)" fill-opacity="1" d="M 168.1 110.2 L 169.5 244.8 L 176.5 236.7 L 175.3 104.4 Z"  stroke-linejoin="round"></path></g><g  stroke="black" stroke-width="5" r="0"  stroke-opacity="0.0" transform="translate(1, 1)" fill="none"></g><g  stroke="black" stroke-width="3" r="0"  stroke-opacity="0.0" transform="translate(1, 1)" fill="none"></g><g  stroke="black" stroke-width="1" r="0"  stroke-opacity="0.1" transform="translate(1, 1)" fill="none"></g><g  stroke="#f45b5b" stroke-width="1" r="0"><path fill="rgb(255,116,116)" fill-opacity="1" d="M 202.4 81.3 L 209.1 75.9 L 192.0 74.9 L 185.0 80.3 Z"  stroke-linejoin="round"></path><path fill="#f45b5b" d="M 186.2 246.3 L 202.9 247.9 L 202.4 81.3 L 185.0 80.3 Z"  stroke-linejoin="round"></path><path fill="rgb(219,66,66)" fill-opacity="1" d="M 202.4 81.3 L 202.9 247.9 L 209.4 239.8 L 209.1 75.9 Z"  stroke-linejoin="round"></path></g><g  stroke="black" stroke-width="5" r="0"  stroke-opacity="0.0" transform="translate(1, 1)" fill="none"></g><g  stroke="black" stroke-width="3" r="0"  stroke-opacity="0.0" transform="translate(1, 1)" fill="none"></g><g  stroke="black" stroke-width="1" r="0"  stroke-opacity="0.1" transform="translate(1, 1)" fill="none"></g><g  stroke="#f45b5b" stroke-width="1" r="0"><path fill="rgb(255,116,116)" fill-opacity="1" d="M 236.4 122.6 L 242.5 116.4 L 225.3 115.3 L 219.0 121.4 Z"  stroke-linejoin="round"></path><path fill="#f45b5b" d="M 218.9 249.5 L 235.9 251.1 L 236.4 122.6 L 219.0 121.4 Z"  stroke-linejoin="round"></path><path fill="rgb(219,66,66)" fill-opacity="1" d="M 236.4 122.6 L 235.9 251.1 L 241.8 242.8 L 242.5 116.4 Z"  stroke-linejoin="round"></path></g><g  stroke="black" stroke-width="5" r="0"  stroke-opacity="0.0" transform="translate(1, 1)" fill="none"></g><g  stroke="black" stroke-width="3" r="0"  stroke-opacity="0.0" transform="translate(1, 1)" fill="none"></g><g  stroke="black" stroke-width="1" r="0"  stroke-opacity="0.1" transform="translate(1, 1)" fill="none"></g><g  stroke="#f45b5b" stroke-width="1" r="0"><path fill="rgb(255,116,116)" fill-opacity="1" d="M 271.9 113.2 L 277.4 107.2 L 259.9 106.1 L 254.1 112.0 Z"  stroke-linejoin="round"></path><path fill="#f45b5b" d="M 253.0 252.7 L 270.3 254.3 L 271.9 113.2 L 254.1 112.0 Z"  stroke-linejoin="round"></path><path fill="rgb(219,66,66)" fill-opacity="1" d="M 271.9 113.2 L 270.3 254.3 L 275.6 246.0 L 277.4 107.2 Z"  stroke-linejoin="round"></path></g><g  stroke="black" stroke-width="5" r="0"  stroke-opacity="0.0" transform="translate(1, 1)" fill="none"></g><g  stroke="black" stroke-width="3" r="0"  stroke-opacity="0.0" transform="translate(1, 1)" fill="none"></g><g  stroke="black" stroke-width="1" r="0"  stroke-opacity="0.1" transform="translate(1, 1)" fill="none"></g><g  stroke="#f45b5b" stroke-width="1" r="0"><path fill="rgb(255,116,116)" fill-opacity="1" d="M 308.2 47.3 L 313.1 42.4 L 295.1 41.4 L 289.9 46.3 Z"  stroke-linejoin="round"></path><path fill="#f45b5b" d="M 286.7 255.9 L 304.2 257.6 L 308.2 47.3 L 289.9 46.3 Z"  stroke-linejoin="round"></path><path fill="rgb(219,66,66)" fill-opacity="1" d="M 308.2 47.3 L 304.2 257.6 L 308.9 249.1 L 313.1 42.4 Z"  stroke-linejoin="round"></path></g><g  stroke="black" stroke-width="5" r="0"  stroke-opacity="0.0" transform="translate(1, 1)" fill="none"></g><g  stroke="black" stroke-width="3" r="0"  stroke-opacity="0.0" transform="translate(1, 1)" fill="none"></g><g  stroke="black" stroke-width="1" r="0"  stroke-opacity="0.1" transform="translate(1, 1)" fill="none"></g><g  stroke="#f45b5b" stroke-width="1" r="0"><path fill="rgb(255,116,116)" fill-opacity="1" d="M 344.6 71.7 L 348.8 66.3 L 330.7 65.3 L 326.1 70.6 Z"  stroke-linejoin="round"></path><path fill="#f45b5b" d="M 321.8 259.2 L 339.5 260.9 L 344.6 71.7 L 326.1 70.6 Z"  stroke-linejoin="round"></path><path fill="rgb(219,66,66)" fill-opacity="1" d="M 344.6 71.7 L 339.5 260.9 L 343.6 252.3 L 348.8 66.3 Z"  stroke-linejoin="round"></path></g><g  stroke="black" stroke-width="5" r="0"  stroke-opacity="0.0" transform="translate(1, 1)" fill="none"></g><g  stroke="black" stroke-width="3" r="0"  stroke-opacity="0.0" transform="translate(1, 1)" fill="none"></g><g  stroke="black" stroke-width="1" r="0"  stroke-opacity="0.1" transform="translate(1, 1)" fill="none"></g><g  stroke="#f45b5b" stroke-width="1" r="0"><path fill="rgb(255,116,116)" fill-opacity="1" d="M 377.6 171.9 L 381.1 164.8 L 363.1 163.4 L 359.2 170.5 Z"  stroke-linejoin="round"></path><path fill="#f45b5b" d="M 356.4 262.5 L 374.4 264.2 L 377.6 171.9 L 359.2 170.5 Z"  stroke-linejoin="round"></path><path fill="rgb(219,66,66)" fill-opacity="1" d="M 377.6 171.9 L 374.4 264.2 L 377.9 255.5 L 381.1 164.8 Z"  stroke-linejoin="round"></path></g><g  stroke="black" stroke-width="5" r="0"  stroke-opacity="0.0" transform="translate(1, 1)" fill="none"></g><g  stroke="black" stroke-width="3" r="0"  stroke-opacity="0.0" transform="translate(1, 1)" fill="none"></g><g  stroke="black" stroke-width="1" r="0"  stroke-opacity="0.1" transform="translate(1, 1)" fill="none"></g><g  stroke="#f45b5b" stroke-width="1" r="0"><path fill="#f45b5b" d="M 392.5 266.0 L 410.8 267.7 L 413.0 215.9 L 394.5 214.3 Z"  stroke-linejoin="round"></path><path fill="rgb(255,116,116)" fill-opacity="1" d="M 413.0 215.9 L 415.8 207.9 L 397.7 206.4 L 394.5 214.3 Z"  stroke-linejoin="round"></path><path fill="rgb(219,66,66)" fill-opacity="1" d="M 413.0 215.9 L 410.8 267.7 L 413.6 258.8 L 415.8 207.9 Z"  stroke-linejoin="round"></path></g></g><g class="highcharts-markers" visibility="visible"  transform="translate(75,75) scale(1 1)"></g></g><text x="292" text-anchor="middle" class="highcharts-title"  style="color:black;font-size:16px;font-weight:bold;fill:black;width:520px;" y="22"><tspan>Chart rotation demo</tspan></text><text x="292" text-anchor="middle" class="highcharts-subtitle"  style="color:black;fill:black;width:520px;" y="43"><tspan>Test options by dragging the sliders below</tspan></text><g class="highcharts-legend"  transform="translate(248,358)"><g ><g><g class="highcharts-legend-item"  transform="translate(8,3)"><text x="21" style="color:#333333;font-size:13px;font-weight:bold;cursor:pointer;fill:#333333;" text-anchor="start"  y="16"><tspan>Series 1</tspan></text><rect x="0" y="5" width="16" height="12"  fill="#f45b5b"></rect></g></g></g></g><g class="highcharts-axis-labels highcharts-xaxis-labels" ><text x="109.6" style="color:#6e6e70;cursor:default;font-size:11px;fill:#6e6e70;width:77px;text-overflow:clip;" text-anchor="middle" transform="translate(0,0)" y="323.5" z="87.7" opacity="1">0</text><text x="188.0" style="color:#6e6e70;cursor:default;font-size:11px;fill:#6e6e70;width:77px;text-overflow:clip;" text-anchor="middle" transform="translate(0,0)" y="331.3" z="65.5" opacity="1">2.5</text><text x="269.1" style="color:#6e6e70;cursor:default;font-size:11px;fill:#6e6e70;width:77px;text-overflow:clip;" text-anchor="middle" transform="translate(0,0)" y="339.3" z="43.3" opacity="1">5</text><text x="353.1" style="color:#6e6e70;cursor:default;font-size:11px;fill:#6e6e70;width:77px;text-overflow:clip;" text-anchor="middle" transform="translate(0,0)" y="347.5" z="21.1" opacity="1">7.5</text><text x="440.0" style="color:#6e6e70;cursor:default;font-size:11px;fill:#6e6e70;width:77px;text-overflow:clip;" text-anchor="middle" transform="translate(0,0)" y="356.1" z="-1.0" opacity="1">10</text></g><g class="highcharts-axis-labels highcharts-yaxis-labels" ><text x="77.4" style="color:#6e6e70;cursor:default;font-size:11px;fill:#6e6e70;width:55px;text-overflow:clip;" text-anchor="end" transform="translate(0,0)" y="308.2" z="93.3" opacity="1">0</text><text x="75.3" style="color:#6e6e70;cursor:default;font-size:11px;fill:#6e6e70;width:55px;text-overflow:clip;" text-anchor="end" transform="translate(0,0)" y="263.8" z="80.3" opacity="1">50</text><text x="73.2" style="color:#6e6e70;cursor:default;font-size:11px;fill:#6e6e70;width:55px;text-overflow:clip;" text-anchor="end" transform="translate(0,0)" y="218.6" z="67.4" opacity="1">100</text><text x="71.0" style="color:#6e6e70;cursor:default;font-size:11px;fill:#6e6e70;width:55px;text-overflow:clip;" text-anchor="end" transform="translate(0,0)" y="172.5" z="54.4" opacity="1">150</text><text x="68.8" style="color:#6e6e70;cursor:default;font-size:11px;fill:#6e6e70;width:55px;text-overflow:clip;" text-anchor="end" transform="translate(0,0)" y="125.5" z="41.5" opacity="1">200</text><text x="66.5" style="color:#6e6e70;cursor:default;font-size:11px;fill:#6e6e70;width:55px;text-overflow:clip;" text-anchor="end" transform="translate(0,0)" y="77.5" z="28.6" opacity="1">250</text></g><g class="highcharts-tooltip"  style="cursor:default;padding:0;white-space:nowrap;" transform="translate(0,-9999)"><path fill="none" d="M 3 0 L 13 0 C 16 0 16 0 16 3 L 16 13 C 16 16 16 16 13 16 L 3 16 C 0 16 0 16 0 13 L 0 3 C 0 0 0 0 3 0"  stroke="black" stroke-opacity="0.0" stroke-width="5" transform="translate(1, 1)"></path><path fill="none" d="M 3 0 L 13 0 C 16 0 16 0 16 3 L 16 13 C 16 16 16 16 13 16 L 3 16 C 0 16 0 16 0 13 L 0 3 C 0 0 0 0 3 0"  stroke="black" stroke-opacity="0.0" stroke-width="3" transform="translate(1, 1)"></path><path fill="none" d="M 3 0 L 13 0 C 16 0 16 0 16 3 L 16 13 C 16 16 16 16 13 16 L 3 16 C 0 16 0 16 0 13 L 0 3 C 0 0 0 0 3 0"  stroke="black" stroke-opacity="0.1" stroke-width="1" transform="translate(1, 1)"></path><path fill="rgb(249, 249, 249)" fill-opacity=" .85" d="M 3 0 L 13 0 C 16 0 16 0 16 3 L 16 13 C 16 16 16 16 13 16 L 3 16 C 0 16 0 16 0 13 L 0 3 C 0 0 0 0 3 0"></path><text x="8"  style="font-size:12px;color:#333333;fill:#333333;" transform="translate(0,20)"></text></g></svg>