<svg version="1.1" style="font-family: signika, serif; font-size: 12px; background-image: url(http://www.highcharts.com/samples/graphics/sand.png); background-attachment: initial; background-origin: initial; background-clip: initial; background-color: initial; background-position: initial initial; background-repeat: initial initial; " xmlns="http://www.w3.org/2000/svg" width="584" height="400" viewBox="0 0 584 400" xmlns:xlink="http://www.w3.org/1999/xlink"><style type="text/css"><![CDATA[@import url(http://fonts.googleapis.com/css?family=Signika:700);]]></style><desc>Created with Highcharts 4.1.4</desc><defs><clipPath id="highcharts-1"><rect x="-75" y="-75" width="734" height="550"></rect></clipPath></defs><g  style="stroke:rgba(255,255,255,0);"><path fill="rgb(230,230,230)" fill-opacity="0" d="M 509.4 84.1 L 504.0 334.4 L 504.3 334.2 L 509.7 84.0 Z"  stroke-linejoin="round"></path><path fill="rgb(255,255,255)" fill-opacity="0" d="M 509.4 84.1 L 509.7 84.0 L 124.0 65.6 L 123.6 65.7 Z"  stroke-linejoin="round"></path><path fill="rgb(255,255,255)" fill-opacity="0" d="M 127.4 292.9 L 504.0 334.4 L 509.4 84.1 L 123.6 65.7 Z"  stroke-linejoin="round"></path></g><g  style="stroke:rgba(255,255,255,0);"><path fill="rgb(255,255,255)" fill-opacity="0" d="M 92.8 306.5 L 93.6 306.6 L 88.9 71.7 L 88.1 71.7 Z"  stroke-linejoin="round"></path><path fill="rgb(255,255,255)" fill-opacity="0" d="M 88.9 71.7 L 123.6 65.7 L 122.8 65.6 L 88.1 71.7 Z"  stroke-linejoin="round"></path><path fill="rgb(230,230,230)" fill-opacity="0" d="M 88.9 71.7 L 93.6 306.6 L 127.4 292.9 L 123.6 65.7 Z"  stroke-linejoin="round"></path></g><g  style="stroke:rgba(255,255,255,0);"><path fill="rgb(230,230,230)" fill-opacity="0" d="M 480.8 350.0 L 480.8 351.1 L 503.7 334.6 L 503.7 333.6 Z"  stroke-linejoin="round"></path><path fill="rgb(255,255,255)" fill-opacity="0" d="M 93.6 306.6 L 480.8 351.1 L 480.8 350.0 L 93.6 305.6 Z"  stroke-linejoin="round"></path><path fill="rgb(255,255,255)" fill-opacity="0" d="M 480.8 350.0 L 503.7 333.6 L 126.9 292.2 L 93.6 305.6 Z"  stroke-linejoin="round"></path></g><g class="highcharts-grid" ><path fill="none" d="M 157.6 67.4 L 157.6 67.4 L 160.6 295.9 L 128.2 309.6" stroke="#D8D8D8" stroke-width="1"  opacity="1"></path><path fill="none" d="M 194.0 69.2 L 194.0 69.2 L 196.2 299.8 L 164.7 313.8" stroke="#D8D8D8" stroke-width="1"  opacity="1"></path><path fill="none" d="M 230.3 70.9 L 230.3 70.9 L 231.7 303.7 L 201.1 318.0" stroke="#D8D8D8" stroke-width="1"  opacity="1"></path><path fill="none" d="M 268.2 72.7 L 268.2 72.7 L 268.7 307.8 L 239.1 322.3" stroke="#D8D8D8" stroke-width="1"  opacity="1"></path><path fill="none" d="M 305.9 74.5 L 305.9 74.5 L 305.6 311.9 L 276.9 326.7" stroke="#D8D8D8" stroke-width="1"  opacity="1"></path><path fill="none" d="M 344.5 76.4 L 344.5 76.4 L 343.2 316.0 L 315.6 331.1" stroke="#D8D8D8" stroke-width="1"  opacity="1"></path><path fill="none" d="M 384.7 78.3 L 384.7 78.3 L 382.5 320.3 L 355.9 335.7" stroke="#D8D8D8" stroke-width="1"  opacity="1"></path><path fill="none" d="M 424.8 80.2 L 424.8 80.2 L 421.6 324.6 L 396.2 340.3" stroke="#D8D8D8" stroke-width="1"  opacity="1"></path><path fill="none" d="M 466.8 82.2 L 466.8 82.2 L 462.5 329.1 L 438.3 345.2" stroke="#D8D8D8" stroke-width="1"  opacity="1"></path><path fill="none" d="M 509.6 84.3 L 509.6 84.3 L 504.2 333.7 L 481.3 350.1" stroke="#D8D8D8" stroke-width="1"  opacity="1"></path><path fill="none" d="M 122.7 65.7 L 122.7 65.7 L 126.5 292.2 L 93.2 305.6" stroke="#D8D8D8" stroke-width="1"  opacity="1"></path></g><g class="highcharts-grid" ><path fill="none" d="M 93.6 306.1 L 126.9 292.7 L 503.7 334.1 L 503.7 334.1" stroke="#D8D8D8" stroke-width="1"  opacity="1"></path><path fill="none" d="M 92.5 249.1 L 126.0 237.5 L 505.0 273.5 L 505.0 273.5" stroke="#D8D8D8" stroke-width="1"  opacity="1"></path><path fill="none" d="M 91.3 190.5 L 125.0 180.7 L 506.3 211.0 L 506.3 211.0" stroke="#D8D8D8" stroke-width="1"  opacity="1"></path><path fill="none" d="M 90.1 132.2 L 124.1 124.3 L 507.7 148.8 L 507.7 148.8" stroke="#D8D8D8" stroke-width="1"  opacity="1"></path><path fill="none" d="M 88.9 71.3 L 123.1 65.3 L 509.1 83.7 L 509.1 83.7" stroke="#D8D8D8" stroke-width="1"  opacity="1"></path></g><g class="highcharts-axis" ><path fill="none" d="M 75 325.5 L 509 325.5" stroke="#C0D0E0" stroke-width="1"  visibility="hidden"></path></g><g class="highcharts-axis" ></g><g class="highcharts-series-group" ><g class="highcharts-series highcharts-tracker" visibility="visible"  transform="translate(75,75) scale(1 1)" style="" clip-path="url(#highcharts-1)"><g  stroke="black" stroke-width="5" r="0"  stroke-opacity="0.0" transform="translate(1, 1)" fill="none"></g><g  stroke="black" stroke-width="3" r="0"  stroke-opacity="0.0" transform="translate(1, 1)" fill="none"></g><g  stroke="black" stroke-width="1" r="0"  stroke-opacity="0.1" transform="translate(1, 1)" fill="none"></g><g  stroke="#f45b5b" stroke-width="1" r="0"><path fill="#f45b5b" d="M 27.6 231.9 L 44.7 233.8 L 43.7 176.5 L 26.5 174.8 Z"  stroke-linejoin="round"></path><path fill="rgb(255,116,116)" fill-opacity="1" d="M 43.7 176.5 L 55.6 172.2 L 38.6 170.5 L 26.5 174.8 Z"  stroke-linejoin="round"></path><path fill="rgb(219,66,66)" fill-opacity="1" d="M 43.7 176.5 L 44.7 233.8 L 56.6 228.9 L 55.6 172.2 Z"  stroke-linejoin="round"></path></g><g  stroke="black" stroke-width="5" r="0"  stroke-opacity="0.0" transform="translate(1, 1)" fill="none"></g><g  stroke="black" stroke-width="3" r="0"  stroke-opacity="0.0" transform="translate(1, 1)" fill="none"></g><g  stroke="black" stroke-width="1" r="0"  stroke-opacity="0.1" transform="translate(1, 1)" fill="none"></g><g  stroke="#f45b5b" stroke-width="1" r="0"><path fill="#f45b5b" d="M 63.6 236.0 L 81.0 238.0 L 79.7 150.0 L 62.2 148.4 Z"  stroke-linejoin="round"></path><path fill="rgb(255,116,116)" fill-opacity="1" d="M 79.7 150.0 L 91.5 145.9 L 74.0 144.4 L 62.2 148.4 Z"  stroke-linejoin="round"></path><path fill="rgb(219,66,66)" fill-opacity="1" d="M 79.7 150.0 L 81.0 238.0 L 92.6 232.9 L 91.5 145.9 Z"  stroke-linejoin="round"></path></g><g  stroke="black" stroke-width="5" r="0"  stroke-opacity="0.0" transform="translate(1, 1)" fill="none"></g><g  stroke="black" stroke-width="3" r="0"  stroke-opacity="0.0" transform="translate(1, 1)" fill="none"></g><g  stroke="black" stroke-width="1" r="0"  stroke-opacity="0.1" transform="translate(1, 1)" fill="none"></g><g  stroke="#f45b5b" stroke-width="1" r="0"><path fill="#f45b5b" d="M 135.9 244.3 L 154.1 246.4 L 153.3 126.7 L 135.0 125.2 Z"  stroke-linejoin="round"></path><path fill="rgb(255,116,116)" fill-opacity="1" d="M 153.3 126.7 L 164.4 122.8 L 146.2 121.4 L 135.0 125.2 Z"  stroke-linejoin="round"></path><path fill="rgb(219,66,66)" fill-opacity="1" d="M 153.3 126.7 L 154.1 246.4 L 165.0 241.1 L 164.4 122.8 Z"  stroke-linejoin="round"></path></g><g  stroke="black" stroke-width="5" r="0"  stroke-opacity="0.0" transform="translate(1, 1)" fill="none"></g><g  stroke="black" stroke-width="3" r="0"  stroke-opacity="0.0" transform="translate(1, 1)" fill="none"></g><g  stroke="black" stroke-width="1" r="0"  stroke-opacity="0.1" transform="translate(1, 1)" fill="none"></g><g  stroke="#f45b5b" stroke-width="1" r="0"><path fill="#f45b5b" d="M 0 0"  stroke-linejoin="round"></path><path fill="rgb(219,66,66)" fill-opacity="1" d="M 0 0"  stroke-linejoin="round"></path><path fill="rgb(255,116,116)" fill-opacity="1" d="M 192.6 250.8 L 203.1 245.4 L 184.8 243.4 L 174.1 248.7 Z"  stroke-linejoin="round"></path></g><g  stroke="black" stroke-width="5" r="0"  stroke-opacity="0.0" transform="translate(1, 1)" fill="none"></g><g  stroke="black" stroke-width="3" r="0"  stroke-opacity="0.0" transform="translate(1, 1)" fill="none"></g><g  stroke="black" stroke-width="1" r="0"  stroke-opacity="0.1" transform="translate(1, 1)" fill="none"></g><g  stroke="#f45b5b" stroke-width="1" r="0"><path fill="rgb(255,116,116)" fill-opacity="1" d="M 231.2 102.4 L 241.6 98.8 L 222.6 97.4 L 212.1 101.0 Z"  stroke-linejoin="round"></path><path fill="#f45b5b" d="M 212.2 253.0 L 231.0 255.2 L 231.2 102.4 L 212.1 101.0 Z"  stroke-linejoin="round"></path><path fill="rgb(219,66,66)" fill-opacity="1" d="M 231.2 102.4 L 231.0 255.2 L 241.2 249.7 L 241.6 98.8 Z"  stroke-linejoin="round"></path></g><g  stroke="black" stroke-width="5" r="0"  stroke-opacity="0.0" transform="translate(1, 1)" fill="none"></g><g  stroke="black" stroke-width="3" r="0"  stroke-opacity="0.0" transform="translate(1, 1)" fill="none"></g><g  stroke="black" stroke-width="1" r="0"  stroke-opacity="0.1" transform="translate(1, 1)" fill="none"></g><g  stroke="#f45b5b" stroke-width="1" r="0"><path fill="#f45b5b" d="M 251.9 257.6 L 271.2 259.8 L 271.3 229.5 L 252.0 227.5 Z"  stroke-linejoin="round"></path><path fill="rgb(219,66,66)" fill-opacity="1" d="M 271.3 229.5 L 271.2 259.8 L 280.9 254.2 L 281.1 224.3 Z"  stroke-linejoin="round"></path><path fill="rgb(255,116,116)" fill-opacity="1" d="M 271.3 229.5 L 281.1 224.3 L 262.0 222.3 L 252.0 227.5 Z"  stroke-linejoin="round"></path></g><g  stroke="black" stroke-width="5" r="0"  stroke-opacity="0.0" transform="translate(1, 1)" fill="none"></g><g  stroke="black" stroke-width="3" r="0"  stroke-opacity="0.0" transform="translate(1, 1)" fill="none"></g><g  stroke="black" stroke-width="1" r="0"  stroke-opacity="0.1" transform="translate(1, 1)" fill="none"></g><g  stroke="#f45b5b" stroke-width="1" r="0"><path fill="rgb(255,116,116)" fill-opacity="1" d="M 312.4 139.9 L 321.9 135.7 L 302.2 134.1 L 292.5 138.2 Z"  stroke-linejoin="round"></path><path fill="#f45b5b" d="M 291.5 262.2 L 311.2 264.4 L 312.4 139.9 L 292.5 138.2 Z"  stroke-linejoin="round"></path><path fill="rgb(219,66,66)" fill-opacity="1" d="M 312.4 139.9 L 311.2 264.4 L 320.6 258.7 L 321.9 135.7 Z"  stroke-linejoin="round"></path></g><g  stroke="black" stroke-width="5" r="0"  stroke-opacity="0.0" transform="translate(1, 1)" fill="none"></g><g  stroke="black" stroke-width="3" r="0"  stroke-opacity="0.0" transform="translate(1, 1)" fill="none"></g><g  stroke="black" stroke-width="1" r="0"  stroke-opacity="0.1" transform="translate(1, 1)" fill="none"></g><g  stroke="#f45b5b" stroke-width="1" r="0"><path fill="rgb(255,116,116)" fill-opacity="1" d="M 354.7 79.7 L 363.8 76.2 L 343.5 74.9 L 334.2 78.3 Z"  stroke-linejoin="round"></path><path fill="#f45b5b" d="M 332.0 266.8 L 352.1 269.1 L 354.7 79.7 L 334.2 78.3 Z"  stroke-linejoin="round"></path><path fill="rgb(219,66,66)" fill-opacity="1" d="M 354.7 79.7 L 352.1 269.1 L 361.0 263.3 L 363.8 76.2 Z"  stroke-linejoin="round"></path></g><g  stroke="black" stroke-width="5" r="0"  stroke-opacity="0.0" transform="translate(1, 1)" fill="none"></g><g  stroke="black" stroke-width="3" r="0"  stroke-opacity="0.0" transform="translate(1, 1)" fill="none"></g><g  stroke="black" stroke-width="1" r="0"  stroke-opacity="0.1" transform="translate(1, 1)" fill="none"></g><g  stroke="#f45b5b" stroke-width="1" r="0"><path fill="#f45b5b" d="M 374.3 271.7 L 394.8 274.0 L 396.6 178.7 L 375.8 176.8 Z"  stroke-linejoin="round"></path><path fill="rgb(255,116,116)" fill-opacity="1" d="M 396.6 178.7 L 405.1 174.0 L 384.6 172.1 L 375.8 176.8 Z"  stroke-linejoin="round"></path><path fill="rgb(219,66,66)" fill-opacity="1" d="M 396.6 178.7 L 394.8 274.0 L 403.3 268.0 L 405.1 174.0 Z"  stroke-linejoin="round"></path></g></g><g class="highcharts-markers" visibility="visible"  transform="translate(75,75) scale(1 1)"></g></g><text x="292" text-anchor="middle" class="highcharts-title"  style="color:black;font-size:16px;font-weight:bold;fill:black;width:520px;" y="22"><tspan>3D chart with null values</tspan></text><text x="292" text-anchor="middle" class="highcharts-subtitle"  style="color:black;fill:black;width:520px;" y="43"><tspan>Notice the difference between a 0 value and a null point</tspan></text><g class="highcharts-legend"  transform="translate(257,358)"><g ><g><g class="highcharts-legend-item"  transform="translate(8,3)"><text x="21" style="color:#333333;font-size:13px;font-weight:bold;cursor:pointer;fill:#333333;" text-anchor="start"  y="16">Sales</text><rect x="0" y="5" width="16" height="12"  fill="#f45b5b"></rect></g></g></g></g><g class="highcharts-axis-labels highcharts-xaxis-labels" ><text x="111.5" style="color:#6e6e70;cursor:default;font-size:11px;fill:#6e6e70;" text-anchor="middle" transform="translate(0,0)" y="325.1" z="110.0" opacity="1">Jan</text><text x="147.1" style="color:#6e6e70;cursor:default;font-size:11px;fill:#6e6e70;" text-anchor="middle" transform="translate(0,0)" y="329.3" z="91.9" opacity="1">Feb</text><text x="183.4" style="color:#6e6e70;cursor:default;font-size:11px;fill:#6e6e70;" text-anchor="middle" transform="translate(0,0)" y="333.7" z="73.9" opacity="1">Mar</text><text x="220.4" style="color:#6e6e70;cursor:default;font-size:11px;fill:#6e6e70;" text-anchor="middle" transform="translate(0,0)" y="338.1" z="55.8" opacity="1">Apr</text><text x="258.2" style="color:#6e6e70;cursor:default;font-size:11px;fill:#6e6e70;" text-anchor="middle" transform="translate(0,0)" y="342.6" z="37.7" opacity="1">May</text><text x="296.8" style="color:#6e6e70;cursor:default;font-size:11px;fill:#6e6e70;" text-anchor="middle" transform="translate(0,0)" y="347.2" z="19.7" opacity="1">Jun</text><text x="336.1" style="color:#6e6e70;cursor:default;font-size:11px;fill:#6e6e70;" text-anchor="middle" transform="translate(0,0)" y="351.9" z="1.6" opacity="1">Jul</text><text x="376.3" style="color:#6e6e70;cursor:default;font-size:11px;fill:#6e6e70;" text-anchor="middle" transform="translate(0,0)" y="356.7" z="-16.3" opacity="1">Aug</text><text x="417.3" style="color:#6e6e70;cursor:default;font-size:11px;fill:#6e6e70;" text-anchor="middle" transform="translate(0,0)" y="361.6" z="-34.4" opacity="1">Sep</text><text x="459.2" style="color:#6e6e70;cursor:default;font-size:11px;fill:#6e6e70;" text-anchor="middle" transform="translate(0,0)" y="366.6" z="-52.5" opacity="1">Oct</text></g><g class="highcharts-axis-labels highcharts-yaxis-labels" ><text x="81.7" style="color:#6e6e70;cursor:default;font-size:11px;fill:#6e6e70;width:55px;text-overflow:clip;" text-anchor="end" transform="translate(0,0)" y="308.8" z="122.8" opacity="1">0</text><text x="80.4" style="color:#6e6e70;cursor:default;font-size:11px;fill:#6e6e70;width:55px;text-overflow:clip;" text-anchor="end" transform="translate(0,0)" y="251.1" z="111.9" opacity="1">2</text><text x="79.2" style="color:#6e6e70;cursor:default;font-size:11px;fill:#6e6e70;width:55px;text-overflow:clip;" text-anchor="end" transform="translate(0,0)" y="193.7" z="101.1" opacity="1">4</text><text x="77.9" style="color:#6e6e70;cursor:default;font-size:11px;fill:#6e6e70;width:55px;text-overflow:clip;" text-anchor="end" transform="translate(0,0)" y="134.7" z="90.2" opacity="1">6</text><text x="76.7" style="color:#6e6e70;cursor:default;font-size:11px;fill:#6e6e70;width:55px;text-overflow:clip;" text-anchor="end" transform="translate(0,0)" y="75.9" z="79.4" opacity="1">8</text></g><g class="highcharts-tooltip"  style="cursor:default;padding:0;white-space:nowrap;" transform="translate(0,-9999)"><path fill="none" d="M 3 0 L 13 0 C 16 0 16 0 16 3 L 16 13 C 16 16 16 16 13 16 L 3 16 C 0 16 0 16 0 13 L 0 3 C 0 0 0 0 3 0"  stroke="black" stroke-opacity="0.0" stroke-width="5" transform="translate(1, 1)"></path><path fill="none" d="M 3 0 L 13 0 C 16 0 16 0 16 3 L 16 13 C 16 16 16 16 13 16 L 3 16 C 0 16 0 16 0 13 L 0 3 C 0 0 0 0 3 0"  stroke="black" stroke-opacity="0.0" stroke-width="3" transform="translate(1, 1)"></path><path fill="none" d="M 3 0 L 13 0 C 16 0 16 0 16 3 L 16 13 C 16 16 16 16 13 16 L 3 16 C 0 16 0 16 0 13 L 0 3 C 0 0 0 0 3 0"  stroke="black" stroke-opacity="0.1" stroke-width="1" transform="translate(1, 1)"></path><path fill="rgb(249, 249, 249)" fill-opacity=" .85" d="M 3 0 L 13 0 C 16 0 16 0 16 3 L 16 13 C 16 16 16 16 13 16 L 3 16 C 0 16 0 16 0 13 L 0 3 C 0 0 0 0 3 0"></path><text x="8"  style="font-size:12px;color:#333333;fill:#333333;" transform="translate(0,20)"></text></g></svg>