<svg version="1.1" style="font-family: signika, serif; font-size: 12px; background-image: url(http://www.highcharts.com/samples/graphics/sand.png); background-attachment: initial; background-origin: initial; background-clip: initial; background-color: initial; background-position: initial initial; background-repeat: initial initial; " xmlns="http://www.w3.org/2000/svg" width="584" height="400" viewBox="0 0 584 400" xmlns:xlink="http://www.w3.org/1999/xlink"><style type="text/css"><![CDATA[@import url(http://fonts.googleapis.com/css?family=Signika:700);]]></style><desc>Created with Highcharts 4.1.4</desc><defs><clipPath id="highcharts-1"><rect x="0" y="-80" width="624" height="480"></rect></clipPath></defs><g  style="stroke:rgba(255,255,255,0);"><path fill="rgb(230,230,230)" fill-opacity="0" d="M 554.4 89.1 L 538.5 331.2 L 538.6 330.9 L 554.4 89.0 Z"  stroke-linejoin="round"></path><path fill="rgb(255,255,255)" fill-opacity="0" d="M 554.4 89.1 L 554.4 89.0 L 89.6 71.5 L 89.2 71.6 Z"  stroke-linejoin="round"></path><path fill="rgb(255,255,255)" fill-opacity="0" d="M 101.2 288.9 L 538.5 331.2 L 554.4 89.1 L 89.2 71.6 Z"  stroke-linejoin="round"></path></g><g  style="stroke:rgba(255,255,255,0);"><path fill="rgb(255,255,255)" fill-opacity="0" d="M 70.9 76.7 L 89.2 71.6 L 88.3 71.6 L 70.1 76.7 Z"  stroke-linejoin="round"></path><path fill="rgb(255,255,255)" fill-opacity="0" d="M 83.6 301.2 L 84.4 301.3 L 70.9 76.7 L 70.1 76.7 Z"  stroke-linejoin="round"></path><path fill="rgb(230,230,230)" fill-opacity="0" d="M 70.9 76.7 L 84.4 301.3 L 101.2 288.9 L 89.2 71.6 Z"  stroke-linejoin="round"></path></g><g  style="stroke:rgba(255,255,255,0);"><path fill="rgb(230,230,230)" fill-opacity="0" d="M 537.0 345.9 L 536.9 346.8 L 538.5 331.6 L 538.5 330.7 Z"  stroke-linejoin="round"></path><path fill="rgb(255,255,255)" fill-opacity="0" d="M 84.4 301.3 L 536.9 346.8 L 537.0 345.9 L 84.4 300.4 Z"  stroke-linejoin="round"></path><path fill="rgb(255,255,255)" fill-opacity="0" d="M 537.0 345.9 L 538.5 330.7 L 100.7 288.4 L 84.4 300.4 Z"  stroke-linejoin="round"></path></g><g class="highcharts-grid" ><path fill="none" d="M 173.2 74.9 L 173.2 74.9 L 180.6 296.1 L 166.6 308.7" stroke="#D8D8D8" stroke-width="1"  opacity="1"></path><path fill="none" d="M 261.1 78.2 L 261.1 78.2 L 263.5 304.1 L 252.2 317.3" stroke="#D8D8D8" stroke-width="1"  opacity="1"></path><path fill="none" d="M 354.3 81.7 L 354.3 81.7 L 351.1 312.6 L 342.8 326.4" stroke="#D8D8D8" stroke-width="1"  opacity="1"></path><path fill="none" d="M 451.0 85.4 L 451.0 85.4 L 441.9 321.3 L 436.8 335.8" stroke="#D8D8D8" stroke-width="1"  opacity="1"></path><path fill="none" d="M 554.9 89.3 L 554.9 89.3 L 539.0 330.7 L 537.5 345.9" stroke="#D8D8D8" stroke-width="1"  opacity="1"></path><path fill="none" d="M 88.3 71.7 L 88.3 71.7 L 100.3 288.3 L 84.0 300.4" stroke="#D8D8D8" stroke-width="1"  opacity="1"></path></g><g class="highcharts-grid" ><path fill="none" d="M 84.4 300.9 L 100.8 288.8 L 538.5 331.1 L 538.5 331.1" stroke="#D8D8D8" stroke-width="1"  opacity="1"></path><path fill="none" d="M 82.3 265.3 L 98.8 254.2 L 541.0 292.9 L 541.0 292.9" stroke="#D8D8D8" stroke-width="1"  opacity="1"></path><path fill="none" d="M 80.1 229.0 L 96.9 219.1 L 543.6 253.8 L 543.6 253.8" stroke="#D8D8D8" stroke-width="1"  opacity="1"></path><path fill="none" d="M 77.9 192.8 L 95.0 184.1 L 546.1 214.9 L 546.1 214.9" stroke="#D8D8D8" stroke-width="1"  opacity="1"></path><path fill="none" d="M 75.7 155.1 L 92.9 147.5 L 548.8 174.1 L 548.8 174.1" stroke="#D8D8D8" stroke-width="1"  opacity="1"></path><path fill="none" d="M 73.3 116.5 L 90.9 110.2 L 551.5 132.4 L 551.5 132.4" stroke="#D8D8D8" stroke-width="1"  opacity="1"></path><path fill="none" d="M 70.9 76.2 L 88.7 71.3 L 554.4 88.7 L 554.4 88.7" stroke="#D8D8D8" stroke-width="1"  opacity="1"></path></g><g class="highcharts-axis" ><path fill="none" d="M 61 325.5 L 544 325.5" stroke="#C0D0E0" stroke-width="1"  visibility="hidden"></path></g><g class="highcharts-axis" ><text x="24"  text-anchor="middle" transform="translate(0,0) rotate(270 24 202.5)" class=" highcharts-yaxis-title" style="color:#707070;fill:#707070;" visibility="visible" y="202.5"><tspan>Number of fruits</tspan></text></g><g class="highcharts-series-group" ><g class="highcharts-series highcharts-tracker" visibility="visible"  transform="translate(61,80) scale(1 1)" style="" clip-path="url(#highcharts-1)"><g  stroke="black" stroke-width="5" r="0"  stroke-opacity="0.0" transform="translate(1, 1)" fill="none" height="0"></g><g  stroke="black" stroke-width="3" r="0"  stroke-opacity="0.0" transform="translate(1, 1)" fill="none" height="0"></g><g  stroke="black" stroke-width="1" r="0"  stroke-opacity="0.1" transform="translate(1, 1)" fill="none" height="0"></g><g  stroke="#8085e9" stroke-width="1" r="0"><path fill="#8085e9" d="M 41.8 222.4 L 62.1 224.4 L 59.5 170.7 L 38.9 168.9 Z"  stroke-linejoin="round"></path><path fill="rgb(153,158,255)" fill-opacity="1" d="M 59.5 170.7 L 75.0 160.0 L 55.0 158.4 L 38.9 168.9 Z"  stroke-linejoin="round"></path><path fill="rgb(103,108,208)" fill-opacity="1" d="M 59.5 170.7 L 62.1 224.4 L 77.3 212.1 L 75.0 160.0 Z"  stroke-linejoin="round"></path></g><g  stroke="black" stroke-width="5" r="0"  stroke-opacity="0.0" transform="translate(1, 1)" fill="none" height="0"></g><g  stroke="black" stroke-width="3" r="0"  stroke-opacity="0.0" transform="translate(1, 1)" fill="none" height="0"></g><g  stroke="black" stroke-width="1" r="0"  stroke-opacity="0.1" transform="translate(1, 1)" fill="none" height="0"></g><g  stroke="#8085e9" stroke-width="1" r="0"><path fill="#8085e9" d="M 125.3 230.7 L 146.5 232.9 L 144.6 158.8 L 122.9 157.1 Z"  stroke-linejoin="round"></path><path fill="rgb(153,158,255)" fill-opacity="1" d="M 144.6 158.8 L 157.5 148.2 L 136.6 146.6 L 122.9 157.1 Z"  stroke-linejoin="round"></path><path fill="rgb(103,108,208)" fill-opacity="1" d="M 144.6 158.8 L 146.5 232.9 L 159.2 220.0 L 157.5 148.2 Z"  stroke-linejoin="round"></path></g><g  stroke="black" stroke-width="5" r="0"  stroke-opacity="0.0" transform="translate(1, 1)" fill="none" height="0"></g><g  stroke="black" stroke-width="3" r="0"  stroke-opacity="0.0" transform="translate(1, 1)" fill="none" height="0"></g><g  stroke="black" stroke-width="1" r="0"  stroke-opacity="0.1" transform="translate(1, 1)" fill="none" height="0"></g><g  stroke="#8085e9" stroke-width="1" r="0"><path fill="#8085e9" d="M 211.7 239.4 L 233.9 241.7 L 233.7 166.0 L 211.0 164.2 Z"  stroke-linejoin="round"></path><path fill="rgb(153,158,255)" fill-opacity="1" d="M 233.7 166.0 L 243.9 154.9 L 221.9 153.2 L 211.0 164.2 Z"  stroke-linejoin="round"></path><path fill="rgb(103,108,208)" fill-opacity="1" d="M 233.7 166.0 L 233.9 241.7 L 243.8 228.2 L 243.9 154.9 Z"  stroke-linejoin="round"></path></g><g  stroke="black" stroke-width="5" r="0"  stroke-opacity="0.0" transform="translate(1, 1)" fill="none" height="0"></g><g  stroke="black" stroke-width="3" r="0"  stroke-opacity="0.0" transform="translate(1, 1)" fill="none" height="0"></g><g  stroke="black" stroke-width="1" r="0"  stroke-opacity="0.1" transform="translate(1, 1)" fill="none" height="0"></g><g  stroke="#8085e9" stroke-width="1" r="0"><path fill="#8085e9" d="M 303.1 248.6 L 326.4 250.9 L 327.3 212.7 L 303.8 210.6 Z"  stroke-linejoin="round"></path><path fill="rgb(153,158,255)" fill-opacity="1" d="M 327.3 212.7 L 334.2 199.8 L 311.5 197.8 L 303.8 210.6 Z"  stroke-linejoin="round"></path><path fill="rgb(103,108,208)" fill-opacity="1" d="M 327.3 212.7 L 326.4 250.9 L 333.3 236.8 L 334.2 199.8 Z"  stroke-linejoin="round"></path></g><g  stroke="black" stroke-width="5" r="0"  stroke-opacity="0.0" transform="translate(1, 1)" fill="none" height="0"></g><g  stroke="black" stroke-width="3" r="0"  stroke-opacity="0.0" transform="translate(1, 1)" fill="none" height="0"></g><g  stroke="black" stroke-width="1" r="0"  stroke-opacity="0.1" transform="translate(1, 1)" fill="none" height="0"></g><g  stroke="#8085e9" stroke-width="1" r="0"><path fill="#8085e9" d="M 399.0 258.2 L 423.5 260.7 L 428.5 161.9 L 403.4 159.9 Z"  stroke-linejoin="round"></path><path fill="rgb(153,158,255)" fill-opacity="1" d="M 428.5 161.9 L 431.9 150.4 L 407.6 148.6 L 403.4 159.9 Z"  stroke-linejoin="round"></path><path fill="rgb(103,108,208)" fill-opacity="1" d="M 428.5 161.9 L 423.5 260.7 L 427.0 245.9 L 431.9 150.4 Z"  stroke-linejoin="round"></path></g></g><g class="highcharts-markers" visibility="visible"  transform="translate(61,80) scale(1 1)"></g><g class="highcharts-series highcharts-tracker" visibility="visible"  transform="translate(61,80) scale(1 1)" style="" clip-path="url(#highcharts-1)"><g  stroke="black" stroke-width="5" r="0"  stroke-opacity="0.0" transform="translate(1, 1)" fill="none" height="0"></g><g  stroke="black" stroke-width="3" r="0"  stroke-opacity="0.0" transform="translate(1, 1)" fill="none" height="0"></g><g  stroke="black" stroke-width="1" r="0"  stroke-opacity="0.1" transform="translate(1, 1)" fill="none" height="0"></g><g  stroke="#f45b5b" stroke-width="1" r="0"><path fill="#f45b5b" d="M 38.9 168.9 L 59.5 170.7 L 54.8 77.3 L 33.8 76.0 Z"  stroke-linejoin="round"></path><path fill="rgb(255,116,116)" fill-opacity="1" d="M 54.8 77.3 L 70.9 69.6 L 50.5 68.4 L 33.8 76.0 Z"  stroke-linejoin="round"></path><path fill="rgb(219,66,66)" fill-opacity="1" d="M 54.8 77.3 L 59.5 170.7 L 75.0 160.0 L 70.9 69.6 Z"  stroke-linejoin="round"></path></g><g  stroke="black" stroke-width="5" r="0"  stroke-opacity="0.0" transform="translate(1, 1)" fill="none" height="0"></g><g  stroke="black" stroke-width="3" r="0"  stroke-opacity="0.0" transform="translate(1, 1)" fill="none" height="0"></g><g  stroke="black" stroke-width="1" r="0"  stroke-opacity="0.1" transform="translate(1, 1)" fill="none" height="0"></g><g  stroke="#f45b5b" stroke-width="1" r="0"><path fill="#f45b5b" d="M 122.9 157.1 L 144.6 158.8 L 143.1 101.7 L 121.1 100.3 Z"  stroke-linejoin="round"></path><path fill="rgb(255,116,116)" fill-opacity="1" d="M 143.1 101.7 L 156.3 93.0 L 135.0 91.6 L 121.1 100.3 Z"  stroke-linejoin="round"></path><path fill="rgb(219,66,66)" fill-opacity="1" d="M 143.1 101.7 L 144.6 158.8 L 157.5 148.2 L 156.3 93.0 Z"  stroke-linejoin="round"></path></g><g  stroke="black" stroke-width="5" r="0"  stroke-opacity="0.0" transform="translate(1, 1)" fill="none" height="0"></g><g  stroke="black" stroke-width="3" r="0"  stroke-opacity="0.0" transform="translate(1, 1)" fill="none" height="0"></g><g  stroke="black" stroke-width="1" r="0"  stroke-opacity="0.1" transform="translate(1, 1)" fill="none" height="0"></g><g  stroke="#f45b5b" stroke-width="1" r="0"><path fill="#f45b5b" d="M 211.0 164.2 L 233.7 166.0 L 233.6 88.1 L 210.4 86.7 Z"  stroke-linejoin="round"></path><path fill="rgb(255,116,116)" fill-opacity="1" d="M 233.6 88.1 L 243.9 79.6 L 221.5 78.3 L 210.4 86.7 Z"  stroke-linejoin="round"></path><path fill="rgb(219,66,66)" fill-opacity="1" d="M 233.6 88.1 L 233.7 166.0 L 243.9 154.9 L 243.9 79.6 Z"  stroke-linejoin="round"></path></g><g  stroke="black" stroke-width="5" r="0"  stroke-opacity="0.0" transform="translate(1, 1)" fill="none" height="0"></g><g  stroke="black" stroke-width="3" r="0"  stroke-opacity="0.0" transform="translate(1, 1)" fill="none" height="0"></g><g  stroke="black" stroke-width="1" r="0"  stroke-opacity="0.1" transform="translate(1, 1)" fill="none" height="0"></g><g  stroke="#f45b5b" stroke-width="1" r="0"><path fill="rgb(255,116,116)" fill-opacity="1" d="M 330.6 72.7 L 337.7 64.6 L 314.0 63.3 L 306.2 71.4 Z"  stroke-linejoin="round"></path><path fill="#f45b5b" d="M 303.8 210.6 L 327.3 212.7 L 330.6 72.7 L 306.2 71.4 Z"  stroke-linejoin="round"></path><path fill="rgb(219,66,66)" fill-opacity="1" d="M 330.6 72.7 L 327.3 212.7 L 334.2 199.8 L 337.7 64.6 Z"  stroke-linejoin="round"></path></g><g  stroke="black" stroke-width="5" r="0"  stroke-opacity="0.0" transform="translate(1, 1)" fill="none" height="0"></g><g  stroke="black" stroke-width="3" r="0"  stroke-opacity="0.0" transform="translate(1, 1)" fill="none" height="0"></g><g  stroke="black" stroke-width="1" r="0"  stroke-opacity="0.1" transform="translate(1, 1)" fill="none" height="0"></g><g  stroke="#f45b5b" stroke-width="1" r="0"><path fill="#f45b5b" d="M 403.4 159.9 L 428.5 161.9 L 430.6 120.6 L 405.2 118.9 Z"  stroke-linejoin="round"></path><path fill="rgb(255,116,116)" fill-opacity="1" d="M 430.6 120.6 L 433.9 110.5 L 409.4 109.0 L 405.2 118.9 Z"  stroke-linejoin="round"></path><path fill="rgb(219,66,66)" fill-opacity="1" d="M 430.6 120.6 L 428.5 161.9 L 431.9 150.4 L 433.9 110.5 Z"  stroke-linejoin="round"></path></g></g><g class="highcharts-markers" visibility="visible"  transform="translate(61,80) scale(1 1)"></g><g class="highcharts-series highcharts-tracker" visibility="visible"  transform="translate(61,80) scale(1 1)" style="" clip-path="url(#highcharts-1)"><g  stroke="black" stroke-width="5" r="0"  stroke-opacity="0.0" transform="translate(1, 1)" fill="none" height="0"></g><g  stroke="black" stroke-width="3" r="0"  stroke-opacity="0.0" transform="translate(1, 1)" fill="none" height="0"></g><g  stroke="black" stroke-width="1" r="0"  stroke-opacity="0.1" transform="translate(1, 1)" fill="none" height="0"></g><g  stroke="#7798BF" stroke-width="1" r="0"><path fill="#7798BF" d="M 66.4 224.8 L 86.9 226.9 L 84.6 172.9 L 63.8 171.1 Z"  stroke-linejoin="round"></path><path fill="rgb(144,177,216)" fill-opacity="1" d="M 84.6 172.9 L 99.4 162.0 L 79.2 160.4 L 63.8 171.1 Z"  stroke-linejoin="round"></path><path fill="rgb(94,127,166)" fill-opacity="1" d="M 84.6 172.9 L 86.9 226.9 L 101.4 214.4 L 99.4 162.0 Z"  stroke-linejoin="round"></path></g><g  stroke="black" stroke-width="5" r="0"  stroke-opacity="0.0" transform="translate(1, 1)" fill="none" height="0"></g><g  stroke="black" stroke-width="3" r="0"  stroke-opacity="0.0" transform="translate(1, 1)" fill="none" height="0"></g><g  stroke="black" stroke-width="1" r="0"  stroke-opacity="0.1" transform="translate(1, 1)" fill="none" height="0"></g><g  stroke="#7798BF" stroke-width="1" r="0"><path fill="#7798BF" d="M 0 0"  stroke-linejoin="round"></path><path fill="rgb(94,127,166)" fill-opacity="1" d="M 0 0"  stroke-linejoin="round"></path><path fill="rgb(144,177,216)" fill-opacity="1" d="M 172.5 235.5 L 184.3 222.4 L 163.5 220.4 L 150.9 233.3 Z"  stroke-linejoin="round"></path></g><g  stroke="black" stroke-width="5" r="0"  stroke-opacity="0.0" transform="translate(1, 1)" fill="none" height="0"></g><g  stroke="black" stroke-width="3" r="0"  stroke-opacity="0.0" transform="translate(1, 1)" fill="none" height="0"></g><g  stroke="black" stroke-width="1" r="0"  stroke-opacity="0.1" transform="translate(1, 1)" fill="none" height="0"></g><g  stroke="#7798BF" stroke-width="1" r="0"><path fill="#7798BF" d="M 238.6 242.1 L 261.1 244.4 L 261.5 168.3 L 238.5 166.4 Z"  stroke-linejoin="round"></path><path fill="rgb(144,177,216)" fill-opacity="1" d="M 261.5 168.3 L 270.7 157.0 L 248.5 155.3 L 238.5 166.4 Z"  stroke-linejoin="round"></path><path fill="rgb(94,127,166)" fill-opacity="1" d="M 261.5 168.3 L 261.1 244.4 L 270.1 230.7 L 270.7 157.0 Z"  stroke-linejoin="round"></path></g><g  stroke="black" stroke-width="5" r="0"  stroke-opacity="0.0" transform="translate(1, 1)" fill="none" height="0"></g><g  stroke="black" stroke-width="3" r="0"  stroke-opacity="0.0" transform="translate(1, 1)" fill="none" height="0"></g><g  stroke="black" stroke-width="1" r="0"  stroke-opacity="0.1" transform="translate(1, 1)" fill="none" height="0"></g><g  stroke="#7798BF" stroke-width="1" r="0"><path fill="#7798BF" d="M 331.3 251.4 L 355.0 253.8 L 357.4 176.0 L 333.2 174.0 Z"  stroke-linejoin="round"></path><path fill="rgb(144,177,216)" fill-opacity="1" d="M 357.4 176.0 L 363.3 164.2 L 340.0 162.4 L 333.2 174.0 Z"  stroke-linejoin="round"></path><path fill="rgb(94,127,166)" fill-opacity="1" d="M 357.4 176.0 L 355.0 253.8 L 360.8 239.5 L 363.3 164.2 Z"  stroke-linejoin="round"></path></g><g  stroke="black" stroke-width="5" r="0"  stroke-opacity="0.0" transform="translate(1, 1)" fill="none" height="0"></g><g  stroke="black" stroke-width="3" r="0"  stroke-opacity="0.0" transform="translate(1, 1)" fill="none" height="0"></g><g  stroke="black" stroke-width="1" r="0"  stroke-opacity="0.1" transform="translate(1, 1)" fill="none" height="0"></g><g  stroke="#7798BF" stroke-width="1" r="0"><path fill="#7798BF" d="M 428.6 261.2 L 453.5 263.7 L 456.9 204.8 L 431.7 202.7 Z"  stroke-linejoin="round"></path><path fill="rgb(144,177,216)" fill-opacity="1" d="M 456.9 204.8 L 459.2 191.8 L 434.9 189.8 L 431.7 202.7 Z"  stroke-linejoin="round"></path><path fill="rgb(94,127,166)" fill-opacity="1" d="M 456.9 204.8 L 453.5 263.7 L 455.9 248.7 L 459.2 191.8 Z"  stroke-linejoin="round"></path></g></g><g class="highcharts-markers" visibility="visible"  transform="translate(61,80) scale(1 1)"></g><g class="highcharts-series highcharts-tracker" visibility="visible"  transform="translate(61,80) scale(1 1)" style="" clip-path="url(#highcharts-1)"><g  stroke="black" stroke-width="5" r="0"  stroke-opacity="0.0" transform="translate(1, 1)" fill="none" height="0"></g><g  stroke="black" stroke-width="3" r="0"  stroke-opacity="0.0" transform="translate(1, 1)" fill="none" height="0"></g><g  stroke="black" stroke-width="1" r="0"  stroke-opacity="0.1" transform="translate(1, 1)" fill="none" height="0"></g><g  stroke="#8d4654" stroke-width="1" r="0"><path fill="#8d4654" d="M 63.8 171.1 L 84.6 172.9 L 83.1 135.6 L 62.0 134.0 Z"  stroke-linejoin="round"></path><path fill="rgb(166,95,109)" fill-opacity="1" d="M 83.1 135.6 L 98.0 126.0 L 77.6 124.5 L 62.0 134.0 Z"  stroke-linejoin="round"></path><path fill="rgb(116,45,59)" fill-opacity="1" d="M 83.1 135.6 L 84.6 172.9 L 99.4 162.0 L 98.0 126.0 Z"  stroke-linejoin="round"></path></g><g  stroke="black" stroke-width="5" r="0"  stroke-opacity="0.0" transform="translate(1, 1)" fill="none" height="0"></g><g  stroke="black" stroke-width="3" r="0"  stroke-opacity="0.0" transform="translate(1, 1)" fill="none" height="0"></g><g  stroke="black" stroke-width="1" r="0"  stroke-opacity="0.1" transform="translate(1, 1)" fill="none" height="0"></g><g  stroke="#8d4654" stroke-width="1" r="0"><path fill="#8d4654" d="M 150.9 233.3 L 172.5 235.5 L 170.7 142.3 L 148.6 140.6 Z"  stroke-linejoin="round"></path><path fill="rgb(166,95,109)" fill-opacity="1" d="M 170.7 142.3 L 182.9 132.2 L 161.6 130.6 L 148.6 140.6 Z"  stroke-linejoin="round"></path><path fill="rgb(116,45,59)" fill-opacity="1" d="M 170.7 142.3 L 172.5 235.5 L 184.3 222.4 L 182.9 132.2 Z"  stroke-linejoin="round"></path></g><g  stroke="black" stroke-width="5" r="0"  stroke-opacity="0.0" transform="translate(1, 1)" fill="none" height="0"></g><g  stroke="black" stroke-width="3" r="0"  stroke-opacity="0.0" transform="translate(1, 1)" fill="none" height="0"></g><g  stroke="black" stroke-width="1" r="0"  stroke-opacity="0.1" transform="translate(1, 1)" fill="none" height="0"></g><g  stroke="#8d4654" stroke-width="1" r="0"><path fill="#8d4654" d="M 238.5 166.4 L 261.5 168.3 L 262.2 48.8 L 238.4 47.7 Z"  stroke-linejoin="round"></path><path fill="rgb(166,95,109)" fill-opacity="1" d="M 262.2 48.8 L 271.6 41.7 L 248.7 40.6 L 238.4 47.7 Z"  stroke-linejoin="round"></path><path fill="rgb(116,45,59)" fill-opacity="1" d="M 262.2 48.8 L 261.5 168.3 L 270.7 157.0 L 271.6 41.7 Z"  stroke-linejoin="round"></path></g><g  stroke="black" stroke-width="5" r="0"  stroke-opacity="0.0" transform="translate(1, 1)" fill="none" height="0"></g><g  stroke="black" stroke-width="3" r="0"  stroke-opacity="0.0" transform="translate(1, 1)" fill="none" height="0"></g><g  stroke="black" stroke-width="1" r="0"  stroke-opacity="0.1" transform="translate(1, 1)" fill="none" height="0"></g><g  stroke="#8d4654" stroke-width="1" r="0"><path fill="#8d4654" d="M 333.2 174.0 L 357.4 176.0 L 358.6 136.8 L 334.2 135.1 Z"  stroke-linejoin="round"></path><path fill="rgb(166,95,109)" fill-opacity="1" d="M 358.6 136.8 L 364.6 126.4 L 341.0 124.8 L 334.2 135.1 Z"  stroke-linejoin="round"></path><path fill="rgb(116,45,59)" fill-opacity="1" d="M 358.6 136.8 L 357.4 176.0 L 363.3 164.2 L 364.6 126.4 Z"  stroke-linejoin="round"></path></g><g  stroke="black" stroke-width="5" r="0"  stroke-opacity="0.0" transform="translate(1, 1)" fill="none" height="0"></g><g  stroke="black" stroke-width="3" r="0"  stroke-opacity="0.0" transform="translate(1, 1)" fill="none" height="0"></g><g  stroke="black" stroke-width="1" r="0"  stroke-opacity="0.1" transform="translate(1, 1)" fill="none" height="0"></g><g  stroke="#8d4654" stroke-width="1" r="0"><path fill="#8d4654" d="M 431.7 202.7 L 456.9 204.8 L 458.2 184.1 L 432.8 182.1 Z"  stroke-linejoin="round"></path><path fill="rgb(116,45,59)" fill-opacity="1" d="M 458.2 184.1 L 456.9 204.8 L 459.2 191.8 L 460.4 171.8 Z"  stroke-linejoin="round"></path><path fill="rgb(166,95,109)" fill-opacity="1" d="M 458.2 184.1 L 460.4 171.8 L 436.0 169.9 L 432.8 182.1 Z"  stroke-linejoin="round"></path></g></g><g class="highcharts-markers" visibility="visible"  transform="translate(61,80) scale(1 1)"></g></g><text x="292" text-anchor="middle" class="highcharts-title"  style="color:black;font-size:16px;font-weight:bold;fill:black;width:520px;" y="22"><tspan>Total fruit consumption, grouped by gender</tspan></text><g class="highcharts-legend"  transform="translate(153,358)"><g ><g><g class="highcharts-legend-item"  transform="translate(8,3)"><text x="21" style="color:#333333;font-size:13px;font-weight:bold;cursor:pointer;fill:#333333;" text-anchor="start"  y="16">John</text><rect x="0" y="5" width="16" height="12"  fill="#f45b5b"></rect></g><g class="highcharts-legend-item"  transform="translate(79,3)"><text x="21" y="16" style="color:#333333;font-size:13px;font-weight:bold;cursor:pointer;fill:#333333;" text-anchor="start" >Joe</text><rect x="0" y="5" width="16" height="12"  fill="#8085e9"></rect></g><g class="highcharts-legend-item"  transform="translate(142,3)"><text x="21" y="16" style="color:#333333;font-size:13px;font-weight:bold;cursor:pointer;fill:#333333;" text-anchor="start" >Jane</text><rect x="0" y="5" width="16" height="12"  fill="#8d4654"></rect></g><g class="highcharts-legend-item"  transform="translate(213,3)"><text x="21" y="16" style="color:#333333;font-size:13px;font-weight:bold;cursor:pointer;fill:#333333;" text-anchor="start" >Janet</text><rect x="0" y="5" width="16" height="12"  fill="#7798BF"></rect></g></g></g></g><g class="highcharts-axis-labels highcharts-xaxis-labels" ><text x="125.9" style="color:#6e6e70;cursor:default;font-size:11px;fill:#6e6e70;width:97px;text-overflow:clip;" text-anchor="middle" transform="translate(0,0)" y="321.0" z="86.2" opacity="1">Apples</text><text x="209.7" style="color:#6e6e70;cursor:default;font-size:11px;fill:#6e6e70;width:97px;text-overflow:clip;" text-anchor="middle" transform="translate(0,0)" y="329.8" z="62.1" opacity="1">Oranges</text><text x="297.5" style="color:#6e6e70;cursor:default;font-size:11px;fill:#6e6e70;width:97px;text-overflow:clip;" text-anchor="middle" transform="translate(0,0)" y="338.9" z="37.9" opacity="1">Pears</text><text x="389.4" style="color:#6e6e70;cursor:default;font-size:11px;fill:#6e6e70;width:97px;text-overflow:clip;" text-anchor="middle" transform="translate(0,0)" y="348.6" z="13.8" opacity="1">Grapes</text><text x="485.8" style="color:#6e6e70;cursor:default;font-size:11px;fill:#6e6e70;width:97px;text-overflow:clip;" text-anchor="middle" transform="translate(0,0)" y="358.7" z="-10.3" opacity="1">Bananas</text></g><g class="highcharts-axis-labels highcharts-yaxis-labels" ><text x="72.2" style="color:#6e6e70;cursor:default;font-size:11px;fill:#6e6e70;width:183px;text-overflow:clip;" text-anchor="end" transform="translate(0,0)" y="303.5" z="98.4" opacity="1">0</text><text x="69.9" style="color:#6e6e70;cursor:default;font-size:11px;fill:#6e6e70;width:183px;text-overflow:clip;" text-anchor="end" transform="translate(0,0)" y="268.1" z="87.8" opacity="1">2</text><text x="67.6" style="color:#6e6e70;cursor:default;font-size:11px;fill:#6e6e70;width:183px;text-overflow:clip;" text-anchor="end" transform="translate(0,0)" y="231.9" z="77.2" opacity="1">4</text><text x="65.3" style="color:#6e6e70;cursor:default;font-size:11px;fill:#6e6e70;width:183px;text-overflow:clip;" text-anchor="end" transform="translate(0,0)" y="195.1" z="66.6" opacity="1">6</text><text x="62.9" style="color:#6e6e70;cursor:default;font-size:11px;fill:#6e6e70;width:183px;text-overflow:clip;" text-anchor="end" transform="translate(0,0)" y="157.5" z="56.0" opacity="1">8</text><text x="60.5" style="color:#6e6e70;cursor:default;font-size:11px;fill:#6e6e70;width:183px;text-overflow:clip;" text-anchor="end" transform="translate(0,0)" y="119.2" z="45.4" opacity="1">10</text><text x="58.1" style="color:#6e6e70;cursor:default;font-size:11px;fill:#6e6e70;width:183px;text-overflow:clip;" text-anchor="end" transform="translate(0,0)" y="81.0" z="35.0" opacity="1">12</text></g><g class="highcharts-tooltip"  style="cursor:default;padding:0;white-space:nowrap;" transform="translate(0,-9999)"><path fill="none" d="M 3 0 L 13 0 C 16 0 16 0 16 3 L 16 13 C 16 16 16 16 13 16 L 3 16 C 0 16 0 16 0 13 L 0 3 C 0 0 0 0 3 0"  stroke="black" stroke-opacity="0.0" stroke-width="5" transform="translate(1, 1)"></path><path fill="none" d="M 3 0 L 13 0 C 16 0 16 0 16 3 L 16 13 C 16 16 16 16 13 16 L 3 16 C 0 16 0 16 0 13 L 0 3 C 0 0 0 0 3 0"  stroke="black" stroke-opacity="0.0" stroke-width="3" transform="translate(1, 1)"></path><path fill="none" d="M 3 0 L 13 0 C 16 0 16 0 16 3 L 16 13 C 16 16 16 16 13 16 L 3 16 C 0 16 0 16 0 13 L 0 3 C 0 0 0 0 3 0"  stroke="black" stroke-opacity="0.1" stroke-width="1" transform="translate(1, 1)"></path><path fill="rgb(249, 249, 249)" fill-opacity=" .85" d="M 3 0 L 13 0 C 16 0 16 0 16 3 L 16 13 C 16 16 16 16 13 16 L 3 16 C 0 16 0 16 0 13 L 0 3 C 0 0 0 0 3 0"></path><text x="8"  style="font-size:12px;color:#333333;fill:#333333;" transform="translate(0,20)"></text></g></svg>