<svg version="1.1" style="font-family: signika, serif; font-size: 12px; background-image: url(http://www.highcharts.com/samples/graphics/sand.png); background-attachment: initial; background-origin: initial; background-clip: initial; background-color: initial; background-position: initial initial; background-repeat: initial initial; " xmlns="http://www.w3.org/2000/svg" width="584" height="400" viewBox="0 0 584 400" xmlns:xlink="http://www.w3.org/1999/xlink"><style type="text/css"><![CDATA[@import url(http://fonts.googleapis.com/css?family=Signika:700);]]></style><desc>Created with Highcharts 4.1.4</desc><defs><clipPath id="highcharts-1"><rect x="0" y="0" width="584" height="400"></rect></clipPath></defs><g class="highcharts-series-group" ><g class="highcharts-series highcharts-tracker" visibility="visible"  transform="translate(10,58) scale(1 1)" style=""><g class="highcharts-shadow"><g class="highcharts-shadow" transform="translate(0,0)"><g  stroke="black" stroke-width="5" stroke-linejoin="round"  stroke-opacity="0.0" transform="translate(1, 1)" fill="none"></g><g  stroke="black" stroke-width="3" stroke-linejoin="round"  stroke-opacity="0.0" transform="translate(1, 1)" fill="none"></g><g  stroke="black" stroke-width="1" stroke-linejoin="round"  stroke-opacity="0.1" transform="translate(1, 1)" fill="none"></g></g><g class="highcharts-shadow" transform="translate(0,0)"><g  stroke="black" stroke-width="5" stroke-linejoin="round"  stroke-opacity="0.0" transform="translate(1, 1)" fill="none"></g><g  stroke="black" stroke-width="3" stroke-linejoin="round"  stroke-opacity="0.0" transform="translate(1, 1)" fill="none"></g><g  stroke="black" stroke-width="1" stroke-linejoin="round"  stroke-opacity="0.1" transform="translate(1, 1)" fill="none"></g></g><g class="highcharts-shadow" transform="translate(0,0)"><g  stroke="black" stroke-width="5" stroke-linejoin="round"  stroke-opacity="0.0" transform="translate(1, 1)" fill="none"></g><g  stroke="black" stroke-width="3" stroke-linejoin="round"  stroke-opacity="0.0" transform="translate(1, 1)" fill="none"></g><g  stroke="black" stroke-width="1" stroke-linejoin="round"  stroke-opacity="0.1" transform="translate(1, 1)" fill="none"></g></g><g class="highcharts-shadow" transform="translate(0,0)"><g  stroke="black" stroke-width="5" stroke-linejoin="round"  stroke-opacity="0.0" transform="translate(1, 1)" fill="none"></g><g  stroke="black" stroke-width="3" stroke-linejoin="round"  stroke-opacity="0.0" transform="translate(1, 1)" fill="none"></g><g  stroke="black" stroke-width="1" stroke-linejoin="round"  stroke-opacity="0.1" transform="translate(1, 1)" fill="none"></g></g><g class="highcharts-shadow" transform="translate(0,0)"><g  stroke="black" stroke-width="5" stroke-linejoin="round"  stroke-opacity="0.0" transform="translate(1, 1)" fill="none"></g><g  stroke="black" stroke-width="3" stroke-linejoin="round"  stroke-opacity="0.0" transform="translate(1, 1)" fill="none"></g><g  stroke="black" stroke-width="1" stroke-linejoin="round"  stroke-opacity="0.1" transform="translate(1, 1)" fill="none"></g></g><g class="highcharts-shadow" transform="translate(0,0)"><g  stroke="black" stroke-width="5" stroke-linejoin="round"  stroke-opacity="0.0" transform="translate(1, 1)" fill="none"></g><g  stroke="black" stroke-width="3" stroke-linejoin="round"  stroke-opacity="0.0" transform="translate(1, 1)" fill="none"></g><g  stroke="black" stroke-width="1" stroke-linejoin="round"  stroke-opacity="0.1" transform="translate(1, 1)" fill="none"></g></g><g class="highcharts-shadow" transform="translate(0,0)"><g  stroke="black" stroke-width="5" stroke-linejoin="round"  stroke-opacity="0.0" transform="translate(1, 1)" fill="none"></g><g  stroke="black" stroke-width="3" stroke-linejoin="round"  stroke-opacity="0.0" transform="translate(1, 1)" fill="none"></g><g  stroke="black" stroke-width="1" stroke-linejoin="round"  stroke-opacity="0.1" transform="translate(1, 1)" fill="none"></g></g><g class="highcharts-shadow" transform="translate(0,0)"><g  stroke="black" stroke-width="5" stroke-linejoin="round"  stroke-opacity="0.0" transform="translate(1, 1)" fill="none"></g><g  stroke="black" stroke-width="3" stroke-linejoin="round"  stroke-opacity="0.0" transform="translate(1, 1)" fill="none"></g><g  stroke="black" stroke-width="1" stroke-linejoin="round"  stroke-opacity="0.1" transform="translate(1, 1)" fill="none"></g></g><g class="highcharts-shadow" transform="translate(0,0)"><g  stroke="black" stroke-width="5" stroke-linejoin="round"  stroke-opacity="0.0" transform="translate(1, 1)" fill="none"></g><g  stroke="black" stroke-width="3" stroke-linejoin="round"  stroke-opacity="0.0" transform="translate(1, 1)" fill="none"></g><g  stroke="black" stroke-width="1" stroke-linejoin="round"  stroke-opacity="0.1" transform="translate(1, 1)" fill="none"></g></g></g><path fill="rgb(198,58,58)" fill-opacity="1" d="M 255.3 56.6 L 255.3 80.4 L 273.3 152.5 L 273.3 128.6 Z"  transform="translate(0,0)" visibility="visible"></path><path fill="rgb(198,58,58)" fill-opacity="1" d="M 273.3 128.6 C 276.3 128.3 278.9 128.1 281.9 128.1 L 281.9 152.0 C 278.9 152.0 276.3 152.1 273.3 152.5 Z"  transform="translate(0,0)" visibility="visible"></path><path fill="rgb(198,58,58)" fill-opacity="1" d="M 255.3 56.6 C 264.6 55.4 272.5 54.9 281.9 54.9 L 281.9 78.8 C 272.5 78.8 264.6 79.3 255.3 80.4 Z"  transform="translate(0,0)" visibility="visible"></path><path fill="rgb(219,66,66)" fill-opacity="1" d="M 433.1 144.6 L 433.1 168.4 L 331.2 181.2 L 331.2 157.3 Z"  transform="translate(0,0)" visibility="visible"></path><path fill="rgb(198,58,58)" fill-opacity="1" d="M 281.9 54.9 L 281.9 78.8 L 281.9 152.0 L 281.9 128.1 Z"  transform="translate(0,0)" visibility="visible"></path><path fill="rgb(60,166,34)" fill-opacity="1" d="M 229.4 61.5 L 229.4 85.3 L 264.8 154.1 L 264.8 130.2 Z"  transform="translate(0,0)" visibility="visible"></path><path fill="rgb(60,166,34)" fill-opacity="1" d="M 264.8 130.2 C 267.7 129.5 270.2 129.0 273.3 128.6 L 273.3 152.5 C 270.2 152.9 267.7 153.4 264.8 154.1 Z"  transform="translate(0,0)" visibility="visible"></path><path fill="rgb(60,166,34)" fill-opacity="1" d="M 229.4 61.5 C 238.3 59.2 246.0 57.7 255.3 56.6 L 255.3 80.4 C 246.0 81.6 238.3 83.0 229.4 85.3 Z"  transform="translate(0,0)" visibility="visible"></path><path fill="rgb(60,166,34)" fill-opacity="1" d="M 255.3 56.6 L 255.3 80.4 L 273.3 152.5 L 273.3 128.6 Z"  transform="translate(0,0)" visibility="visible"></path><path fill="rgb(213,145,213)" fill-opacity="1" d="M 149.0 109.2 L 149.0 133.1 L 238.6 169.6 L 238.6 145.8 Z"  transform="translate(0,0)" visibility="visible"></path><path fill="rgb(213,145,213)" fill-opacity="1" d="M 238.6 145.8 C 244.8 138.3 253.3 133.2 264.8 130.2 L 264.8 154.1 C 253.3 157.1 244.8 162.1 238.6 169.6 Z"  transform="translate(0,0)" visibility="visible"></path><path fill="rgb(213,145,213)" fill-opacity="1" d="M 149.0 109.2 C 167.8 86.1 194.0 70.6 229.4 61.5 L 229.4 85.3 C 194.0 94.5 167.8 110.0 149.0 133.1 Z"  transform="translate(0,0)" visibility="visible"></path><path fill="rgb(213,145,213)" fill-opacity="1" d="M 229.4 61.5 L 229.4 85.3 L 264.8 154.1 L 264.8 130.2 Z"  transform="translate(0,0)" visibility="visible"></path><path fill="rgb(230,0,77)" fill-opacity="1" d="M 130.8 182.3 L 130.8 206.2 L 232.7 193.5 L 232.7 169.6 Z"  transform="translate(0,0)" visibility="visible"></path><path fill="rgb(103,108,208)" fill-opacity="1" d="M 426.2 200.6 L 426.2 224.4 L 328.9 199.4 L 328.9 175.5 Z"  transform="translate(0,0)" visibility="visible"></path><path fill="rgb(219,66,66)" fill-opacity="1" d="M 281.9 54.9 L 281.9 78.8 L 281.9 152.0 L 281.9 128.1 Z"  transform="translate(0,0)" visibility="visible"></path><path fill="rgb(219,66,66)" fill-opacity="1" d="M 281.9 128.1 C 306.5 128.1 326.9 140.2 331.2 157.3 L 331.2 181.2 C 326.9 164.1 306.5 152.0 281.9 152.0 Z"  transform="translate(0,0)" visibility="visible"></path><path fill="rgb(219,66,66)" fill-opacity="1" d="M 281.9 54.9 C 357.3 54.9 420.0 92.1 433.1 144.6 L 433.1 168.4 C 420.0 116.0 357.3 78.8 281.9 78.8 Z"  transform="translate(0,0)" visibility="visible"></path><path fill="rgb(145,213,213)" fill-opacity="1" d="M 281.9 272.0 L 281.9 295.9 L 281.9 222.7 L 281.9 198.8 Z"  transform="translate(0,0)" visibility="visible"></path><path fill="rgb(230,0,77)" fill-opacity="1" d="M 130.8 182.3 C 129.1 175.7 128.5 170.1 128.5 163.5 L 128.5 187.3 C 128.5 194.0 129.1 199.6 130.8 206.2 Z"  transform="translate(0,0)" visibility="visible"></path><path fill="rgb(230,0,77)" fill-opacity="1" d="M 232.7 169.6 C 230.6 161.0 232.5 153.3 238.6 145.8 L 238.6 169.6 C 232.5 177.2 230.6 184.9 232.7 193.5 Z"  transform="translate(0,0)" visibility="visible"></path><path fill="rgb(230,0,77)" fill-opacity="1" d="M 149.0 109.2 L 149.0 133.1 L 238.6 169.6 L 238.6 145.8 Z"  transform="translate(0,0)" visibility="visible"></path><path fill="rgb(103,108,208)" fill-opacity="1" d="M 433.1 144.6 L 433.1 168.4 L 331.2 181.2 L 331.2 157.3 Z"  transform="translate(0,0)" visibility="visible"></path><path fill="rgb(116,45,59)" fill-opacity="1" d="M 414.9 217.8 L 414.9 241.6 L 325.2 205.0 L 325.2 181.1 Z"  transform="translate(0,0)" visibility="visible"></path><path fill="rgb(103,108,208)" fill-opacity="1" d="M 435.5 163.5 C 435.5 176.8 432.6 188.0 426.2 200.6 L 426.2 224.4 C 432.6 211.9 435.5 200.6 435.5 187.3 Z"  transform="translate(0,0)" visibility="visible"></path><path fill="rgb(103,108,208)" fill-opacity="1" d="M 331.2 157.3 C 332.8 163.7 332.1 169.4 328.9 175.5 L 328.9 199.4 C 332.1 193.3 332.8 187.6 331.2 181.2 Z"  transform="translate(0,0)" visibility="visible"></path><path fill="rgb(116,45,59)" fill-opacity="1" d="M 426.2 200.6 C 423.0 206.8 419.6 212.0 414.9 217.8 L 414.9 241.6 C 419.6 235.8 423.0 230.7 426.2 224.4 Z"  transform="translate(0,0)" visibility="visible"></path><path fill="rgb(116,45,59)" fill-opacity="1" d="M 328.9 175.5 C 327.9 177.6 326.8 179.3 325.2 181.1 L 325.2 205.0 C 326.8 203.1 327.9 201.4 328.9 199.4 Z"  transform="translate(0,0)" visibility="visible"></path><path fill="rgb(116,45,59)" fill-opacity="1" d="M 426.2 200.6 L 426.2 224.4 L 328.9 199.4 L 328.9 175.5 Z"  transform="translate(0,0)" visibility="visible"></path><path fill="rgb(94,127,166)" fill-opacity="1" d="M 281.9 272.0 L 281.9 295.9 L 281.9 222.7 L 281.9 198.8 Z"  transform="translate(0,0)" visibility="visible"></path><path fill="rgb(94,127,166)" fill-opacity="1" d="M 414.9 217.8 L 414.9 241.6 L 325.2 205.0 L 325.2 181.1 Z"  transform="translate(0,0)" visibility="visible"></path><path fill="rgb(145,213,213)" fill-opacity="1" d="M 130.8 182.3 L 130.8 206.2 L 232.7 193.5 L 232.7 169.6 Z"  transform="translate(0,0)" visibility="visible"></path><path fill="rgb(94,127,166)" fill-opacity="1" d="M 414.9 217.8 C 386.6 252.4 338.4 272.0 281.9 272.0 L 281.9 295.9 C 338.4 295.9 386.6 276.2 414.9 241.6 Z"  transform="translate(0,0)" visibility="visible"></path><path fill="rgb(94,127,166)" fill-opacity="1" d="M 325.2 181.1 C 316.0 192.4 300.3 198.8 281.9 198.8 L 281.9 222.7 C 300.3 222.7 316.0 216.3 325.2 205.0 Z"  transform="translate(0,0)" visibility="visible"></path><path fill="rgb(145,213,213)" fill-opacity="1" d="M 281.9 272.0 C 206.6 272.0 143.9 234.8 130.8 182.3 L 130.8 206.2 C 143.9 258.6 206.6 295.8 281.9 295.9 Z"  transform="translate(0,0)" visibility="visible"></path><path fill="rgb(145,213,213)" fill-opacity="1" d="M 281.9 198.8 C 257.4 198.8 237.0 186.7 232.7 169.6 L 232.7 193.5 C 237.0 210.5 257.4 222.7 281.9 222.7 Z"  transform="translate(0,0)" visibility="visible"></path><g  stroke="#f45b5b" stroke-width="1" stroke-linejoin="round"><path fill="#f45b5b" d="M 281.9 54.9 C 357.3 54.9 420.0 92.1 433.1 144.6 L 331.2 157.3 C 326.9 140.2 306.5 128.1 281.9 128.1 Z"  transform="translate(0,0)" visibility="visible"></path></g><g  stroke="#8085e9" stroke-width="1" stroke-linejoin="round"><path fill="#8085e9" d="M 433.1 144.6 C 438.0 164.2 435.9 181.8 426.2 200.6 L 328.9 175.5 C 332.1 169.4 332.8 163.7 331.2 157.3 Z"  transform="translate(0,0)" visibility="visible"></path></g><g  stroke="#8d4654" stroke-width="1" stroke-linejoin="round"><path fill="#8d4654" d="M 426.2 200.6 C 423.0 206.8 419.6 212.0 414.9 217.8 L 325.2 181.1 C 326.8 179.3 327.9 177.6 328.9 175.5 Z"  transform="translate(0,0)" visibility="visible"></path></g><g  stroke="#7798BF" stroke-width="1" stroke-linejoin="round"><path fill="#7798BF" d="M 414.9 217.8 C 386.6 252.4 338.4 272.0 281.9 272.0 L 281.9 198.8 C 300.3 198.8 316.0 192.4 325.2 181.1 Z"  transform="translate(0,0)" visibility="visible"></path></g><g  stroke="#aaeeee" stroke-width="1" stroke-linejoin="round"><path fill="#aaeeee" d="M 281.9 272.0 C 206.6 272.0 143.9 234.8 130.8 182.3 L 232.7 169.6 C 237.0 186.7 257.4 198.8 281.9 198.8 Z"  transform="translate(0,0)" visibility="visible"></path></g><g  stroke="#ff0066" stroke-width="1" stroke-linejoin="round"><path fill="#ff0066" d="M 130.8 182.3 C 124.2 156.1 130.2 132.3 149.0 109.2 L 238.6 145.8 C 232.5 153.3 230.6 161.0 232.7 169.6 Z"  transform="translate(0,0)" visibility="visible"></path></g><g  stroke="#eeaaee" stroke-width="1" stroke-linejoin="round"><path fill="#eeaaee" d="M 149.0 109.2 C 167.8 86.1 194.0 70.6 229.4 61.5 L 264.8 130.2 C 253.3 133.2 244.8 138.3 238.6 145.8 Z"  transform="translate(0,0)" visibility="visible"></path></g><g  stroke="#55BF3B" stroke-width="1" stroke-linejoin="round"><path fill="#55BF3B" d="M 229.4 61.5 C 238.3 59.2 246.0 57.7 255.3 56.6 L 273.3 128.6 C 270.2 129.0 267.7 129.5 264.8 130.2 Z"  transform="translate(0,0)" visibility="visible"></path></g><g  stroke="#DF5353" stroke-width="1" stroke-linejoin="round"><path fill="#DF5353" d="M 255.3 56.6 C 264.6 55.4 272.5 54.9 281.9 54.9 L 281.9 128.1 C 278.9 128.1 276.3 128.3 273.3 128.6 Z"  transform="translate(0,0)" visibility="visible"></path></g></g><g class="highcharts-markers" visibility="visible"  transform="translate(10,58) scale(1 1)"></g></g><text x="292" text-anchor="middle" class="highcharts-title"  style="color:black;font-size:16px;font-weight:bold;fill:black;width:520px;" y="22"><tspan>Contents of Highsoft's weekly fruit delivery</tspan></text><text x="292" text-anchor="middle" class="highcharts-subtitle"  style="color:black;fill:black;width:520px;" y="43"><tspan>3D donut in Highcharts</tspan></text><g class="highcharts-data-labels highcharts-tracker" visibility="visible"  transform="translate(10,58) scale(1 1)" style=""><path fill="none" d="M 436.7 57.3 C 431.7 57.3 394.8 63.5 387.7 71.9 L 380.6 80.3" stroke="#f45b5b" stroke-width="1"></path><path fill="none" d="M 466.9 199.4 C 461.9 199.4 456.8 198.7 445.8 197.7 L 434.9 196.8" stroke="#8085e9" stroke-width="1"></path><path fill="none" d="M 450.9 245.9 C 445.9 245.9 441.0 242.5 431.0 237.8 L 421.1 233.2" stroke="#8d4654" stroke-width="1"></path><path fill="none" d="M 400.9 307.3 C 395.9 307.3 369.7 300.4 364.2 290.8 L 358.7 281.3" stroke="#7798BF" stroke-width="1"></path><path fill="none" d="M 147.4 293.4 C 152.4 293.4 169.1 287.3 176.2 278.9 L 183.3 270.5" stroke="#aaeeee" stroke-width="1"></path><path fill="none" d="M 95.0 139.4 C 100.0 139.4 109.1 140.8 119.9 142.7 L 130.8 144.6" stroke="#ff0066" stroke-width="1"></path><path fill="none" d="M 119.7 69 C 124.7 69 169.1 63.4 176.2 71.9 L 183.3 80.3" stroke="#eeaaee" stroke-width="1"></path><path fill="none" d="M 136.0 46 C 141.0 46 236.5 37.4 239.4 48.0 L 242.2 58.6" stroke="#55BF3B" stroke-width="1"></path><path fill="none" d="M 158.9 23 C 163.9 23 266.7 33.4 267.6 44.4 L 268.6 55.3" stroke="#DF5353" stroke-width="1"></path><g  style="" transform="translate(442,47)"><text x="5"  style="font-size: 11px; font-weight: bold; color: rgb(0, 0, 0); fill: #000000; text-shadow: rgb(255, 255, 255) 0px 0px 6px, rgb(255, 255, 255) 0px 0px 3px; " transform="translate(0,16)"><tspan>Bananas</tspan></text></g><g  style="" transform="translate(472,189)"><text x="5"  style="font-size: 11px; font-weight: bold; color: rgb(0, 0, 0); fill: #000000; text-shadow: rgb(255, 255, 255) 0px 0px 6px, rgb(255, 255, 255) 0px 0px 3px; " transform="translate(0,16)"><tspan>Kiwi</tspan></text></g><g  style="" transform="translate(456,236)"><text x="5"  style="font-size: 11px; font-weight: bold; color: rgb(0, 0, 0); fill: #000000; text-shadow: rgb(255, 255, 255) 0px 0px 6px, rgb(255, 255, 255) 0px 0px 3px; " transform="translate(0,16)"><tspan>Mixed nuts</tspan></text></g><g  style="" transform="translate(406,297)"><text x="5"  style="font-size: 11px; font-weight: bold; color: rgb(0, 0, 0); fill: #000000; text-shadow: rgb(255, 255, 255) 0px 0px 6px, rgb(255, 255, 255) 0px 0px 3px; " transform="translate(0,16)"><tspan>Oranges</tspan></text></g><g  style="" transform="translate(99,283)"><text x="5"  style="font-size: 11px; font-weight: bold; color: rgb(0, 0, 0); fill: #000000; text-shadow: rgb(255, 255, 255) 0px 0px 6px, rgb(255, 255, 255) 0px 0px 3px; " transform="translate(0,16)"><tspan>Apples</tspan></text></g><g  style="" transform="translate(53,129)"><text x="5"  style="font-size: 11px; font-weight: bold; color: rgb(0, 0, 0); fill: #000000; text-shadow: rgb(255, 255, 255) 0px 0px 6px, rgb(255, 255, 255) 0px 0px 3px; " transform="translate(0,16)"><tspan>Pears</tspan></text></g><g  style="" transform="translate(40,59)"><text x="5"  style="font-size: 11px; font-weight: bold; color: rgb(0, 0, 0); fill: #000000; text-shadow: rgb(255, 255, 255) 0px 0px 6px, rgb(255, 255, 255) 0px 0px 3px; " transform="translate(0,16)"><tspan>Clementines</tspan></text></g><g  style="" transform="translate(47,36)"><text x="5"  style="font-size: 11px; font-weight: bold; color: rgb(0, 0, 0); fill: #000000; text-shadow: rgb(255, 255, 255) 0px 0px 6px, rgb(255, 255, 255) 0px 0px 3px; " transform="translate(0,16)"><tspan>Reddish (bag)</tspan></text></g><g  style="" transform="translate(62,13)"><text x="5"  style="font-size: 11px; font-weight: bold; color: rgb(0, 0, 0); fill: #000000; text-shadow: rgb(255, 255, 255) 0px 0px 6px, rgb(255, 255, 255) 0px 0px 3px; " transform="translate(0,16)"><tspan>Grapes (bunch)</tspan></text></g></g><g class="highcharts-legend" ><g ><g></g></g></g><g class="highcharts-tooltip"  style="cursor:default;padding:0;white-space:nowrap;" transform="translate(0,-9999)"><path fill="none" d="M 3 0 L 13 0 C 16 0 16 0 16 3 L 16 13 C 16 16 16 16 13 16 L 3 16 C 0 16 0 16 0 13 L 0 3 C 0 0 0 0 3 0"  stroke="black" stroke-opacity="0.0" stroke-width="5" transform="translate(1, 1)"></path><path fill="none" d="M 3 0 L 13 0 C 16 0 16 0 16 3 L 16 13 C 16 16 16 16 13 16 L 3 16 C 0 16 0 16 0 13 L 0 3 C 0 0 0 0 3 0"  stroke="black" stroke-opacity="0.0" stroke-width="3" transform="translate(1, 1)"></path><path fill="none" d="M 3 0 L 13 0 C 16 0 16 0 16 3 L 16 13 C 16 16 16 16 13 16 L 3 16 C 0 16 0 16 0 13 L 0 3 C 0 0 0 0 3 0"  stroke="black" stroke-opacity="0.1" stroke-width="1" transform="translate(1, 1)"></path><path fill="rgb(249, 249, 249)" fill-opacity=" .85" d="M 3 0 L 13 0 C 16 0 16 0 16 3 L 16 13 C 16 16 16 16 13 16 L 3 16 C 0 16 0 16 0 13 L 0 3 C 0 0 0 0 3 0"></path><text x="8"  style="font-size:12px;color:#333333;fill:#333333;" transform="translate(0,20)"></text></g></svg>