<svg version="1.1" style="font-family: signika, serif; font-size: 12px; background-image: url(http://www.highcharts.com/samples/graphics/sand.png); background-attachment: initial; background-origin: initial; background-clip: initial; background-color: initial; background-position: initial initial; background-repeat: initial initial; " xmlns="http://www.w3.org/2000/svg" width="584" height="400" viewBox="0 0 584 400" xmlns:xlink="http://www.w3.org/1999/xlink"><style type="text/css"><![CDATA[@import url(http://fonts.googleapis.com/css?family=Signika:700);]]></style><desc>Created with Highcharts 4.1.4</desc><defs><clipPath id="highcharts-1"><rect x="0" y="0" width="584" height="400"></rect></clipPath></defs><g class="highcharts-series-group" ><g class="highcharts-series highcharts-tracker" visibility="visible"  transform="translate(10,44) scale(1 1)" style="cursor:pointer;"><g class="highcharts-shadow"><g class="highcharts-shadow" transform="translate(0,0)"><g  stroke="black" stroke-width="5" stroke-linejoin="round"  stroke-opacity="0.0" transform="translate(1, 1)" fill="none"></g><g  stroke="black" stroke-width="3" stroke-linejoin="round"  stroke-opacity="0.0" transform="translate(1, 1)" fill="none"></g><g  stroke="black" stroke-width="1" stroke-linejoin="round"  stroke-opacity="0.1" transform="translate(1, 1)" fill="none"></g></g><g class="highcharts-shadow" transform="translate(0,0)"><g  stroke="black" stroke-width="5" stroke-linejoin="round"  stroke-opacity="0.0" transform="translate(1, 1)" fill="none"></g><g  stroke="black" stroke-width="3" stroke-linejoin="round"  stroke-opacity="0.0" transform="translate(1, 1)" fill="none"></g><g  stroke="black" stroke-width="1" stroke-linejoin="round"  stroke-opacity="0.1" transform="translate(1, 1)" fill="none"></g></g><g class="highcharts-shadow" transform="translate(-7,-1)"><g  stroke-linejoin="round"  stroke="black" stroke-opacity="0.0" stroke-width="5" transform="translate(1, 1)" fill="none"></g><g  stroke-linejoin="round"  stroke="black" stroke-opacity="0.0" stroke-width="3" transform="translate(1, 1)" fill="none"></g><g  stroke-linejoin="round"  stroke="black" stroke-opacity="0.1" stroke-width="1" transform="translate(1, 1)" fill="none"></g></g><g class="highcharts-shadow" transform="translate(0,0)"><g  stroke="black" stroke-width="5" stroke-linejoin="round"  stroke-opacity="0.0" transform="translate(1, 1)" fill="none"></g><g  stroke="black" stroke-width="3" stroke-linejoin="round"  stroke-opacity="0.0" transform="translate(1, 1)" fill="none"></g><g  stroke="black" stroke-width="1" stroke-linejoin="round"  stroke-opacity="0.1" transform="translate(1, 1)" fill="none"></g></g><g class="highcharts-shadow" transform="translate(0,0)"><g  stroke="black" stroke-width="5" stroke-linejoin="round"  stroke-opacity="0.0" transform="translate(1, 1)" fill="none"></g><g  stroke="black" stroke-width="3" stroke-linejoin="round"  stroke-opacity="0.0" transform="translate(1, 1)" fill="none"></g><g  stroke="black" stroke-width="1" stroke-linejoin="round"  stroke-opacity="0.1" transform="translate(1, 1)" fill="none"></g></g><g class="highcharts-shadow" transform="translate(0,0)"><g  stroke="black" stroke-width="5" stroke-linejoin="round"  stroke-opacity="0.0" transform="translate(1, 1)" fill="none"></g><g  stroke="black" stroke-width="3" stroke-linejoin="round"  stroke-opacity="0.0" transform="translate(1, 1)" fill="none"></g><g  stroke="black" stroke-width="1" stroke-linejoin="round"  stroke-opacity="0.1" transform="translate(1, 1)" fill="none"></g></g></g><path fill="rgb(230,0,77)" fill-opacity="1" d="M 282 170.5 C 282 170.5 282 170.5 282 170.5 L 282 189.0 C 282 189.0 282 189.0 282 189.0 Z"  transform="translate(0,0)" visibility="visible"></path><path fill="rgb(230,0,77)" fill-opacity="1" d="M 274.8 57.1 C 277.3 57.0 279.4 57.0 281.9 57.0 L 281.9 75.5 C 279.4 75.5 277.3 75.6 274.8 75.6 Z"  transform="translate(0,0)" visibility="visible"></path><path fill="rgb(230,0,77)" fill-opacity="1" d="M 274.8 57.1 L 274.8 75.6 L 282 189.0 L 282 170.5 Z"  transform="translate(0,0)" visibility="visible"></path><path fill="rgb(230,0,77)" fill-opacity="1" d="M 281.9 57.0 L 281.9 75.5 L 282 189.0 L 282 170.5 Z"  transform="translate(0,0)" visibility="visible"></path><path fill="rgb(145,213,213)" fill-opacity="1" d="M 214.5 67.5 L 214.5 86.0 L 282 189.0 L 282 170.5 Z"  transform="translate(0,0)" visibility="visible"></path><path fill="rgb(219,66,66)" fill-opacity="1" d="M 331.5 278.4 L 331.5 297.0 L 282 189.0 L 282 170.5 Z"  transform="translate(0,0)" visibility="visible"></path><path fill="rgb(145,213,213)" fill-opacity="1" d="M 282 170.5 C 282 170.5 282 170.5 282 170.5 L 282 189.0 C 282 189.0 282 189.0 282 189.0 Z"  transform="translate(0,0)" visibility="visible"></path><path fill="rgb(145,213,213)" fill-opacity="1" d="M 214.5 67.5 C 234.5 60.9 252.9 57.8 274.8 57.1 L 274.8 75.6 C 252.9 76.3 234.5 79.5 214.5 86.0 Z"  transform="translate(0,0)" visibility="visible"></path><path fill="rgb(145,213,213)" fill-opacity="1" d="M 274.8 57.1 L 274.8 75.6 L 282 189.0 L 282 170.5 Z"  transform="translate(0,0)" visibility="visible"></path><path fill="rgb(94,127,166)" fill-opacity="1" d="M 149.8 106.0 L 149.8 124.6 L 282 189.0 L 282 170.5 Z"  transform="translate(0,0)" visibility="visible"></path><path fill="rgb(94,127,166)" fill-opacity="1" d="M 282 170.5 C 282 170.5 282 170.5 282 170.5 L 282 189.0 C 282 189.0 282 189.0 282 189.0 Z"  transform="translate(0,0)" visibility="visible"></path><path fill="rgb(94,127,166)" fill-opacity="1" d="M 149.8 106.0 C 166.9 88.5 187.2 76.4 214.5 67.5 L 214.5 86.0 C 187.2 95.0 166.9 107.1 149.8 124.6 Z"  transform="translate(0,0)" visibility="visible"></path><path fill="rgb(94,127,166)" fill-opacity="1" d="M 214.5 67.5 L 214.5 86.0 L 282 189.0 L 282 170.5 Z"  transform="translate(0,0)" visibility="visible"></path><path fill="rgb(116,45,59)" fill-opacity="1" d="M 124.7 193.1 L 124.7 211.6 L 282 189.0 L 282 170.5 Z"  transform="translate(-7,-1)" visibility="visible"></path><path fill="rgb(103,108,208)" fill-opacity="1" d="M 331.5 278.4 L 331.5 297.0 L 282 189.0 L 282 170.5 Z"  transform="translate(0,0)" visibility="visible"></path><path fill="rgb(116,45,59)" fill-opacity="1" d="M 124.7 193.1 C 122.4 185.2 121.5 178.5 121.5 170.5 L 121.5 189.0 C 121.5 197.0 122.4 203.8 124.7 211.6 Z"  transform="translate(-7,-1)" visibility="visible"></path><path fill="rgb(116,45,59)" fill-opacity="1" d="M 282 170.5 C 282 170.5 282 170.5 282 170.5 L 282 189.0 C 282 189.0 282 189.0 282 189.0 Z"  transform="translate(-7,-1)" visibility="visible"></path><path fill="rgb(116,45,59)" fill-opacity="1" d="M 149.8 106.1 L 149.8 124.6 L 282 189.0 L 282 170.5 Z"  transform="translate(-7,-1)" visibility="visible"></path><path fill="rgb(219,66,66)" fill-opacity="1" d="M 281.9 57.0 L 281.9 75.5 L 282 189.0 L 282 170.5 Z"  transform="translate(0,0)" visibility="visible"></path><path fill="rgb(103,108,208)" fill-opacity="1" d="M 124.7 193.1 L 124.7 211.6 L 282 189.0 L 282 170.5 Z"  transform="translate(0,0)" visibility="visible"></path><path fill="rgb(219,66,66)" fill-opacity="1" d="M 442.5 170.5 C 442.5 220.6 399.0 262.9 331.5 278.4 L 331.5 297.0 C 399.0 281.5 442.5 239.2 442.5 189.0 Z"  transform="translate(0,0)" visibility="visible"></path><path fill="rgb(219,66,66)" fill-opacity="1" d="M 282 170.5 C 282 170.5 282 170.5 282 170.5 C 282 170.5 282 170.5 282 170.5 L 282 189.0 C 282 189.0 282 189.0 282 189.0 C 282 189.0 282 189.0 282 189.0 Z"  transform="translate(0,0)" visibility="visible"></path><path fill="rgb(103,108,208)" fill-opacity="1" d="M 331.5 278.4 C 247.2 297.7 156.6 265.1 129.3 205.5 C 127.3 201.2 125.9 197.5 124.7 193.1 L 124.7 211.6 C 142.3 273.0 227.1 312.7 313.9 300.2 C 320.2 299.3 325.4 298.4 331.5 297.0 Z"  transform="translate(0,0)" visibility="visible"></path><path fill="rgb(103,108,208)" fill-opacity="1" d="M 282 170.5 C 282 170.5 282 170.5 282 170.5 C 282 170.5 282 170.5 282 170.5 L 282 189.0 C 282 189.0 282 189.0 282 189.0 C 282 189.0 282 189.0 282 189.0 Z"  transform="translate(0,0)" visibility="visible"></path><g  stroke="#f45b5b" stroke-width="1" stroke-linejoin="round"><path fill="#f45b5b" d="M 281.9 57.0 C 370.6 56.9 442.4 107.7 442.4 170.4 C 442.5 220.6 399.0 262.9 331.5 278.4 L 282 170.5 C 282 170.5 282 170.5 282 170.5 C 282 170.5 282 170.5 282 170.5 Z"  transform="translate(0,0)" visibility="visible"></path></g><g  stroke="#8085e9" stroke-width="1" stroke-linejoin="round"><path fill="#8085e9" d="M 331.5 278.4 C 247.2 297.7 156.6 265.1 129.3 205.5 C 127.3 201.2 125.9 197.5 124.7 193.1 L 282 170.5 C 282 170.5 282 170.5 282 170.5 C 282 170.5 282 170.5 282 170.5 Z"  transform="translate(0,0)" visibility="visible"></path></g><g  stroke-linejoin="round"><path fill="#8d4654" d="M 124.7 193.1 C 115.6 161.6 124.0 132.5 149.8 106.1 L 282 170.5 C 282 170.5 282 170.5 282 170.5 Z"  transform="translate(-7,-1)" visibility="visible"></path></g><g  stroke="#7798BF" stroke-width="1" stroke-linejoin="round"><path fill="#7798BF" d="M 149.8 106.0 C 166.9 88.5 187.2 76.4 214.5 67.5 L 282 170.5 C 282 170.5 282 170.5 282 170.5 Z"  transform="translate(0,0)" visibility="visible"></path></g><g  stroke="#aaeeee" stroke-width="1" stroke-linejoin="round"><path fill="#aaeeee" d="M 214.5 67.5 C 234.5 60.9 252.9 57.8 274.8 57.1 L 282 170.5 C 282 170.5 282 170.5 282 170.5 Z"  transform="translate(0,0)" visibility="visible"></path></g><g  stroke="#ff0066" stroke-width="1" stroke-linejoin="round"><path fill="#ff0066" d="M 274.8 57.1 C 277.3 57.0 279.4 57.0 281.9 57.0 L 282 170.5 C 282 170.5 282 170.5 282 170.5 Z"  transform="translate(0,0)" visibility="visible"></path></g></g><g class="highcharts-markers" visibility="visible"  transform="translate(10,44) scale(1 1)"></g></g><text x="292" text-anchor="middle" class="highcharts-title"  style="color:black;font-size:16px;font-weight:bold;fill:black;width:520px;" y="22"><tspan>Browser market shares at a specific website, 2014</tspan></text><g class="highcharts-data-labels highcharts-tracker" visibility="visible"  transform="translate(10,44) scale(1 1)" style="cursor:pointer;"><path fill="none" d="M 476.1 148.0 C 471.1 148.0 462.2 149.3 451.3 151.0 L 440.5 152.7" stroke="#f45b5b" stroke-width="1"></path><path fill="none" d="M 150.6 313.0 C 155.6 313.0 190.0 306.1 195.6 296.6 L 201.1 287.1" stroke="#8085e9" stroke-width="1"></path><path fill="none" d="M 88.6 141.8 C 93.6 141.8 103.1 143.4 113.9 145.6 L 124.7 147.8" stroke="#8d4654" stroke-width="1"></path><path fill="none" d="M 115.7 69 C 120.7 69 164.3 66.9 171.4 75.3 L 178.5 83.7" stroke="#7798BF" stroke-width="1"></path><path fill="none" d="M 132.8 46 C 137.8 46 238.8 38.8 241.4 49.5 L 244.0 60.2" stroke="#aaeeee" stroke-width="1"></path><path fill="none" d="M 156.4 23 C 161.4 23 277.9 35.0 278.2 46.0 L 278.4 57.0" stroke="#ff0066" stroke-width="1"></path><g  style="cursor:pointer;" transform="translate(481,138)"><text x="5"  style="font-size: 11px; font-weight: bold; color: rgb(0, 0, 0); fill: #000000; text-shadow: rgb(255, 255, 255) 0px 0px 6px, rgb(255, 255, 255) 0px 0px 3px; " transform="translate(0,16)"><tspan>Firefox</tspan></text></g><g  style="cursor:pointer;" transform="translate(130,303)"><text x="5"  style="font-size: 11px; font-weight: bold; color: rgb(0, 0, 0); fill: #000000; text-shadow: rgb(255, 255, 255) 0px 0px 6px, rgb(255, 255, 255) 0px 0px 3px; " transform="translate(0,16)"><tspan>IE</tspan></text></g><g  style="cursor:pointer;" transform="translate(35,132)"><text x="5"  style="font-size: 11px; font-weight: bold; color: rgb(0, 0, 0); fill: #000000; text-shadow: rgb(255, 255, 255) 0px 0px 6px, rgb(255, 255, 255) 0px 0px 3px; " transform="translate(0,16)"><tspan>Chrome</tspan></text></g><g  style="cursor:pointer;" transform="translate(73,59)"><text x="5"  style="font-size: 11px; font-weight: bold; color: rgb(0, 0, 0); fill: #000000; text-shadow: rgb(255, 255, 255) 0px 0px 6px, rgb(255, 255, 255) 0px 0px 3px; " transform="translate(0,16)"><tspan>Safari</tspan></text></g><g  style="cursor:pointer;" transform="translate(89,36)"><text x="5"  style="font-size: 11px; font-weight: bold; color: rgb(0, 0, 0); fill: #000000; text-shadow: rgb(255, 255, 255) 0px 0px 6px, rgb(255, 255, 255) 0px 0px 3px; " transform="translate(0,16)"><tspan>Opera</tspan></text></g><g  style="cursor:pointer;" transform="translate(108,13)"><text x="5"  style="font-size: 11px; font-weight: bold; color: rgb(0, 0, 0); fill: #000000; text-shadow: rgb(255, 255, 255) 0px 0px 6px, rgb(255, 255, 255) 0px 0px 3px; " transform="translate(0,16)"><tspan>Others</tspan></text></g></g><g class="highcharts-legend" ><g ><g></g></g></g><g class="highcharts-tooltip"  style="cursor:default;padding:0;white-space:nowrap;" transform="translate(0,-9999)"><path fill="none" d="M 3 0 L 13 0 C 16 0 16 0 16 3 L 16 13 C 16 16 16 16 13 16 L 3 16 C 0 16 0 16 0 13 L 0 3 C 0 0 0 0 3 0"  stroke="black" stroke-opacity="0.0" stroke-width="5" transform="translate(1, 1)"></path><path fill="none" d="M 3 0 L 13 0 C 16 0 16 0 16 3 L 16 13 C 16 16 16 16 13 16 L 3 16 C 0 16 0 16 0 13 L 0 3 C 0 0 0 0 3 0"  stroke="black" stroke-opacity="0.0" stroke-width="3" transform="translate(1, 1)"></path><path fill="none" d="M 3 0 L 13 0 C 16 0 16 0 16 3 L 16 13 C 16 16 16 16 13 16 L 3 16 C 0 16 0 16 0 13 L 0 3 C 0 0 0 0 3 0"  stroke="black" stroke-opacity="0.1" stroke-width="1" transform="translate(1, 1)"></path><path fill="rgb(249, 249, 249)" fill-opacity=" .85" d="M 3 0 L 13 0 C 16 0 16 0 16 3 L 16 13 C 16 16 16 16 13 16 L 3 16 C 0 16 0 16 0 13 L 0 3 C 0 0 0 0 3 0"></path><text x="8"  style="font-size:12px;color:#333333;fill:#333333;" transform="translate(0,20)"></text></g></svg>