<svg version="1.1" style="font-family: signika, serif; font-size: 12px; background-image: url(http://www.highcharts.com/samples/graphics/sand.png); background-attachment: initial; background-origin: initial; background-clip: initial; background-color: initial; background-position: initial initial; background-repeat: initial initial; " xmlns="http://www.w3.org/2000/svg" width="584" height="400" viewBox="0 0 584 400" xmlns:xlink="http://www.w3.org/1999/xlink"><style type="text/css"><![CDATA[@import url(http://fonts.googleapis.com/css?family=Signika:700);]]></style><desc>Created with Highcharts 4.1.4</desc><defs><clipPath id="highcharts-1"><rect x="0" y="0" width="509" height="267"></rect></clipPath><clipPath id="highcharts-2"><rect x="-99" y="-58" width="608" height="400"></rect></clipPath><clipPath id="highcharts-3"><rect x="0" y="0" width="509" height="267"></rect></clipPath></defs><g class="highcharts-grid" ></g><g class="highcharts-grid" ><path fill="none" d="M 65 325.5 L 574 325.5" stroke="#D8D8D8" stroke-width="1"  opacity="1"></path><path fill="none" d="M 65 258.5 L 574 258.5" stroke="#D8D8D8" stroke-width="1"  opacity="1"></path><path fill="none" d="M 65 192.5 L 574 192.5" stroke="#D8D8D8" stroke-width="1"  opacity="1"></path><path fill="none" d="M 65 125.5 L 574 125.5" stroke="#D8D8D8" stroke-width="1"  opacity="1"></path><path fill="none" d="M 65 57.5 L 574 57.5" stroke="#D8D8D8" stroke-width="1"  opacity="1"></path></g><g class="highcharts-axis" ><path fill="none" d="M 100.5 325 L 100.5 335" stroke="#C0D0E0" stroke-width="1" opacity="1"></path><path fill="none" d="M 173.5 325 L 173.5 335" stroke="#C0D0E0" stroke-width="1" opacity="1"></path><path fill="none" d="M 246.5 325 L 246.5 335" stroke="#C0D0E0" stroke-width="1" opacity="1"></path><path fill="none" d="M 319.5 325 L 319.5 335" stroke="#C0D0E0" stroke-width="1" opacity="1"></path><path fill="none" d="M 391.5 325 L 391.5 335" stroke="#C0D0E0" stroke-width="1" opacity="1"></path><path fill="none" d="M 464.5 325 L 464.5 335" stroke="#C0D0E0" stroke-width="1" opacity="1"></path><path fill="none" d="M 537.5 325 L 537.5 335" stroke="#C0D0E0" stroke-width="1" opacity="1"></path><path fill="none" d="M 65 325.5 L 574 325.5" stroke="#C0D0E0" stroke-width="1"  visibility="visible"></path></g><g class="highcharts-axis" ><text x="24"  text-anchor="middle" transform="translate(0,0) rotate(270 24 191.5)" class=" highcharts-yaxis-title" style="color:#707070;fill:#707070;" visibility="visible" y="191.5">Billions</text></g><g class="highcharts-series-group" ><g class="highcharts-series" visibility="visible"  transform="translate(65,58) scale(1 1)" clip-path="url(#highcharts-3)"><path fill="rgb(244,91,91)" fill-opacity="0.7" d="M 36.3 245.8 L 109.0 240.8 L 181.7 233.5 L 254.4 222.9 L 327.2 199.6 L 399.9 107.3 L 472.6 29.1 472.6 169.7 399.9 204.4 327.2 237.0 254.4 248.2 181.7 255.1 109.0 257.8 36.3 259.2" ></path><path fill="none" d="M 36.3 245.8 L 109.0 240.8 L 181.7 233.5 L 254.4 222.9 L 327.2 199.6 L 399.9 107.3 L 472.6 29.1" stroke="black" stroke-width="5"  stroke-linejoin="round" stroke-linecap="round"  stroke-opacity="0.0" transform="translate(1, 1)"></path><path fill="none" d="M 36.3 245.8 L 109.0 240.8 L 181.7 233.5 L 254.4 222.9 L 327.2 199.6 L 399.9 107.3 L 472.6 29.1" stroke="black" stroke-width="3"  stroke-linejoin="round" stroke-linecap="round"  stroke-opacity="0.0" transform="translate(1, 1)"></path><path fill="none" d="M 36.3 245.8 L 109.0 240.8 L 181.7 233.5 L 254.4 222.9 L 327.2 199.6 L 399.9 107.3 L 472.6 29.1" stroke="black" stroke-width="1"  stroke-linejoin="round" stroke-linecap="round"  stroke-opacity="0.1" transform="translate(1, 1)"></path><path fill="none" d="M 36.3 245.8 L 109.0 240.8 L 181.7 233.5 L 254.4 222.9 L 327.2 199.6 L 399.9 107.3 L 472.6 29.1" stroke="#666666" stroke-width="1"  stroke-linejoin="round" stroke-linecap="round"></path><path fill="none" d="M 26.3 245.8 L 36.3 245.8 L 109.0 240.8 L 181.7 233.5 L 254.4 222.9 L 327.2 199.6 L 399.9 107.3 L 472.6 29.1 L 482.6 29.1" stroke-linejoin="round" visibility="visible" stroke="rgb(192,192,192)" stroke-opacity="0.0" stroke-width="21"  class=" highcharts-tracker" style=""></path></g><g class="highcharts-markers highcharts-tracker" visibility="visible"  transform="translate(65,58) scale(1 1)" clip-path="url(#highcharts-2)" style=""><path fill="#f45b5b" d="M 472 25.1 C 477.3 25.1 477.3 33.1 472 33.1 C 466.6 33.1 466.6 25.1 472 25.1 Z" stroke="#666666" stroke-width="1"></path><path fill="#f45b5b" d="M 399 103.3 C 404.3 103.3 404.3 111.3 399 111.3 C 393.6 111.3 393.6 103.3 399 103.3 Z" stroke="#666666" stroke-width="1"></path><path fill="#f45b5b" d="M 327 195.6 C 332.3 195.6 332.3 203.6 327 203.6 C 321.6 203.6 321.6 195.6 327 195.6 Z" stroke="#666666" stroke-width="1"></path><path fill="#f45b5b" d="M 254 218.9 C 259.3 218.9 259.3 226.9 254 226.9 C 248.6 226.9 248.6 218.9 254 218.9 Z" stroke="#666666" stroke-width="1"></path><path fill="#f45b5b" d="M 181 229.5 C 186.3 229.5 186.3 237.5 181 237.5 C 175.6 237.5 175.6 229.5 181 229.5 Z" stroke="#666666" stroke-width="1"></path><path fill="#f45b5b" d="M 109 236.8 C 114.3 236.8 114.3 244.8 109 244.8 C 103.6 244.8 103.6 236.8 109 236.8 Z" stroke="#666666" stroke-width="1"></path><path fill="#f45b5b" d="M 36 241.8 C 41.3 241.8 41.3 249.8 36 249.8 C 30.6 249.8 30.6 241.8 36 241.8 Z" stroke="#666666" stroke-width="1"></path></g><g class="highcharts-series" visibility="visible"  transform="translate(65,58) scale(1 1)" clip-path="url(#highcharts-3)"><path fill="rgb(128,133,233)" fill-opacity="0.7" d="M 36.3 259.2 L 109.0 257.8 L 181.7 255.1 L 254.4 248.2 L 327.2 237.0 L 399.9 204.4 L 472.6 169.7 472.6 216.9 399.9 224.8 327.2 242.9 254.4 251.7 181.7 258.1 109.0 260.6 36.3 262.1" ></path><path fill="none" d="M 36.3 259.2 L 109.0 257.8 L 181.7 255.1 L 254.4 248.2 L 327.2 237.0 L 399.9 204.4 L 472.6 169.7" stroke="black" stroke-width="5"  stroke-linejoin="round" stroke-linecap="round"  stroke-opacity="0.0" transform="translate(1, 1)"></path><path fill="none" d="M 36.3 259.2 L 109.0 257.8 L 181.7 255.1 L 254.4 248.2 L 327.2 237.0 L 399.9 204.4 L 472.6 169.7" stroke="black" stroke-width="3"  stroke-linejoin="round" stroke-linecap="round"  stroke-opacity="0.0" transform="translate(1, 1)"></path><path fill="none" d="M 36.3 259.2 L 109.0 257.8 L 181.7 255.1 L 254.4 248.2 L 327.2 237.0 L 399.9 204.4 L 472.6 169.7" stroke="black" stroke-width="1"  stroke-linejoin="round" stroke-linecap="round"  stroke-opacity="0.1" transform="translate(1, 1)"></path><path fill="none" d="M 36.3 259.2 L 109.0 257.8 L 181.7 255.1 L 254.4 248.2 L 327.2 237.0 L 399.9 204.4 L 472.6 169.7" stroke="#666666" stroke-width="1"  stroke-linejoin="round" stroke-linecap="round"></path><path fill="none" d="M 26.3 259.2 L 36.3 259.2 L 109.0 257.8 L 181.7 255.1 L 254.4 248.2 L 327.2 237.0 L 399.9 204.4 L 472.6 169.7 L 482.6 169.7" stroke-linejoin="round" visibility="visible" stroke="rgb(192,192,192)" stroke-opacity="0.0" stroke-width="21"  class=" highcharts-tracker" style=""></path></g><g class="highcharts-markers highcharts-tracker" visibility="visible"  transform="translate(65,58) scale(1 1)" clip-path="url(#highcharts-2)" style=""><path fill="#8085e9" d="M 472 165.7 L 476 169.7 472 173.7 468 169.7 Z" stroke="#666666" stroke-width="1"></path><path fill="#8085e9" d="M 399 200.4 L 403 204.4 399 208.4 395 204.4 Z" stroke="#666666" stroke-width="1"></path><path fill="#8085e9" d="M 327 233.0 L 331 237.0 327 241.0 323 237.0 Z" stroke="#666666" stroke-width="1"></path><path fill="#8085e9" d="M 254 244.2 L 258 248.2 254 252.2 250 248.2 Z" stroke="#666666" stroke-width="1"></path><path fill="#8085e9" d="M 181 251.1 L 185 255.1 181 259.1 177 255.1 Z" stroke="#666666" stroke-width="1"></path><path fill="#8085e9" d="M 109 253.8 L 113 257.8 109 261.8 105 257.8 Z" stroke="#666666" stroke-width="1"></path><path fill="#8085e9" d="M 36 255.2 L 40 259.2 36 263.2 32 259.2 Z" stroke="#666666" stroke-width="1"></path></g><g class="highcharts-series" visibility="visible"  transform="translate(65,58) scale(1 1)" clip-path="url(#highcharts-3)"><path fill="rgb(141,70,84)" fill-opacity="0.7" d="M 36.3 262.1 L 109.0 260.6 L 181.7 258.1 L 254.4 251.7 L 327.2 242.9 L 399.9 224.8 L 472.6 216.9 472.6 233.7 399.9 244.3 327.2 257.6 254.4 262.6 181.7 265.5 109.0 266.1 36.3 266.4" ></path><path fill="none" d="M 36.3 262.1 L 109.0 260.6 L 181.7 258.1 L 254.4 251.7 L 327.2 242.9 L 399.9 224.8 L 472.6 216.9" stroke="black" stroke-width="5"  stroke-linejoin="round" stroke-linecap="round"  stroke-opacity="0.0" transform="translate(1, 1)"></path><path fill="none" d="M 36.3 262.1 L 109.0 260.6 L 181.7 258.1 L 254.4 251.7 L 327.2 242.9 L 399.9 224.8 L 472.6 216.9" stroke="black" stroke-width="3"  stroke-linejoin="round" stroke-linecap="round"  stroke-opacity="0.0" transform="translate(1, 1)"></path><path fill="none" d="M 36.3 262.1 L 109.0 260.6 L 181.7 258.1 L 254.4 251.7 L 327.2 242.9 L 399.9 224.8 L 472.6 216.9" stroke="black" stroke-width="1"  stroke-linejoin="round" stroke-linecap="round"  stroke-opacity="0.1" transform="translate(1, 1)"></path><path fill="none" d="M 36.3 262.1 L 109.0 260.6 L 181.7 258.1 L 254.4 251.7 L 327.2 242.9 L 399.9 224.8 L 472.6 216.9" stroke="#666666" stroke-width="1"  stroke-linejoin="round" stroke-linecap="round"></path><path fill="none" d="M 26.3 262.1 L 36.3 262.1 L 109.0 260.6 L 181.7 258.1 L 254.4 251.7 L 327.2 242.9 L 399.9 224.8 L 472.6 216.9 L 482.6 216.9" stroke-linejoin="round" visibility="visible" stroke="rgb(192,192,192)" stroke-opacity="0.0" stroke-width="21"  class=" highcharts-tracker" style=""></path></g><g class="highcharts-markers highcharts-tracker" visibility="visible"  transform="translate(65,58) scale(1 1)" clip-path="url(#highcharts-2)" style=""><path fill="#8d4654" d="M 468 212.9 L 476 212.9 476 220.9 468 220.9 Z" stroke="#666666" stroke-width="1"></path><path fill="#8d4654" d="M 395 220.8 L 403 220.8 403 228.8 395 228.8 Z" stroke="#666666" stroke-width="1"></path><path fill="#8d4654" d="M 323 238.9 L 331 238.9 331 246.9 323 246.9 Z" stroke="#666666" stroke-width="1"></path><path fill="#8d4654" d="M 250 247.7 L 258 247.7 258 255.7 250 255.7 Z" stroke="#666666" stroke-width="1"></path><path fill="#8d4654" d="M 177 254.1 L 185 254.1 185 262.1 177 262.1 Z" stroke="#666666" stroke-width="1"></path><path fill="#8d4654" d="M 105 256.6 L 113 256.6 113 264.6 105 264.6 Z" stroke="#666666" stroke-width="1"></path><path fill="#8d4654" d="M 32 258.1 L 40 258.1 40 266.1 32 266.1 Z" stroke="#666666" stroke-width="1"></path></g><g class="highcharts-series" visibility="visible"  transform="translate(65,58) scale(1 1)" clip-path="url(#highcharts-3)"><path fill="rgb(119,152,191)" fill-opacity="0.7" d="M 36.3 266.4 L 109.0 266.1 L 181.7 265.5 L 254.4 262.6 L 327.2 257.6 L 399.9 244.3 L 472.6 233.7 472.6 265.7 399.9 266.1 327.2 266.6 254.4 266.8 181.7 266.9 109.0 266.9 36.3 266.9" ></path><path fill="none" d="M 36.3 266.4 L 109.0 266.1 L 181.7 265.5 L 254.4 262.6 L 327.2 257.6 L 399.9 244.3 L 472.6 233.7" stroke="black" stroke-width="5"  stroke-linejoin="round" stroke-linecap="round"  stroke-opacity="0.0" transform="translate(1, 1)"></path><path fill="none" d="M 36.3 266.4 L 109.0 266.1 L 181.7 265.5 L 254.4 262.6 L 327.2 257.6 L 399.9 244.3 L 472.6 233.7" stroke="black" stroke-width="3"  stroke-linejoin="round" stroke-linecap="round"  stroke-opacity="0.0" transform="translate(1, 1)"></path><path fill="none" d="M 36.3 266.4 L 109.0 266.1 L 181.7 265.5 L 254.4 262.6 L 327.2 257.6 L 399.9 244.3 L 472.6 233.7" stroke="black" stroke-width="1"  stroke-linejoin="round" stroke-linecap="round"  stroke-opacity="0.1" transform="translate(1, 1)"></path><path fill="none" d="M 36.3 266.4 L 109.0 266.1 L 181.7 265.5 L 254.4 262.6 L 327.2 257.6 L 399.9 244.3 L 472.6 233.7" stroke="#666666" stroke-width="1"  stroke-linejoin="round" stroke-linecap="round"></path><path fill="none" d="M 26.3 266.4 L 36.3 266.4 L 109.0 266.1 L 181.7 265.5 L 254.4 262.6 L 327.2 257.6 L 399.9 244.3 L 472.6 233.7 L 482.6 233.7" stroke-linejoin="round" visibility="visible" stroke="rgb(192,192,192)" stroke-opacity="0.0" stroke-width="21"  class=" highcharts-tracker" style=""></path></g><g class="highcharts-markers highcharts-tracker" visibility="visible"  transform="translate(65,58) scale(1 1)" clip-path="url(#highcharts-2)" style=""><path fill="#7798BF" d="M 472 229.7 L 476 237.7 468 237.7 Z" stroke="#666666" stroke-width="1"></path><path fill="#7798BF" d="M 399 240.3 L 403 248.3 395 248.3 Z" stroke="#666666" stroke-width="1"></path><path fill="#7798BF" d="M 327 253.6 L 331 261.6 323 261.6 Z" stroke="#666666" stroke-width="1"></path><path fill="#7798BF" d="M 254 258.6 L 258 266.6 250 266.6 Z" stroke="#666666" stroke-width="1"></path><path fill="#7798BF" d="M 181 261.5 L 185 269.5 177 269.5 Z" stroke="#666666" stroke-width="1"></path><path fill="#7798BF" d="M 109 262.1 L 113 270.1 105 270.1 Z" stroke="#666666" stroke-width="1"></path><path fill="#7798BF" d="M 36 262.4 L 40 270.4 32 270.4 Z" stroke="#666666" stroke-width="1"></path></g><g class="highcharts-series" visibility="visible"  transform="translate(65,58) scale(1 1)" clip-path="url(#highcharts-3)"><path fill="rgb(170,238,238)" fill-opacity="0.7" d="M 36.3 266.9 L 109.0 266.9 L 181.7 266.9 L 254.4 266.8 L 327.2 266.6 L 399.9 266.1 L 472.6 265.7 472.6 267 399.9 267 327.2 267 254.4 267 181.7 267 109.0 267 36.3 267" ></path><path fill="none" d="M 36.3 266.9 L 109.0 266.9 L 181.7 266.9 L 254.4 266.8 L 327.2 266.6 L 399.9 266.1 L 472.6 265.7" stroke="black" stroke-width="5"  stroke-linejoin="round" stroke-linecap="round"  stroke-opacity="0.0" transform="translate(1, 1)"></path><path fill="none" d="M 36.3 266.9 L 109.0 266.9 L 181.7 266.9 L 254.4 266.8 L 327.2 266.6 L 399.9 266.1 L 472.6 265.7" stroke="black" stroke-width="3"  stroke-linejoin="round" stroke-linecap="round"  stroke-opacity="0.0" transform="translate(1, 1)"></path><path fill="none" d="M 36.3 266.9 L 109.0 266.9 L 181.7 266.9 L 254.4 266.8 L 327.2 266.6 L 399.9 266.1 L 472.6 265.7" stroke="black" stroke-width="1"  stroke-linejoin="round" stroke-linecap="round"  stroke-opacity="0.1" transform="translate(1, 1)"></path><path fill="none" d="M 36.3 266.9 L 109.0 266.9 L 181.7 266.9 L 254.4 266.8 L 327.2 266.6 L 399.9 266.1 L 472.6 265.7" stroke="#666666" stroke-width="1"  stroke-linejoin="round" stroke-linecap="round"></path><path fill="none" d="M 26.3 266.9 L 36.3 266.9 L 109.0 266.9 L 181.7 266.9 L 254.4 266.8 L 327.2 266.6 L 399.9 266.1 L 472.6 265.7 L 482.6 265.7" stroke-linejoin="round" visibility="visible" stroke="rgb(192,192,192)" stroke-opacity="0.0" stroke-width="21"  class=" highcharts-tracker" style=""></path></g><g class="highcharts-markers highcharts-tracker" visibility="visible"  transform="translate(65,58) scale(1 1)" clip-path="url(#highcharts-2)" style=""><path fill="#aaeeee" d="M 468 261.7 L 476 261.7 472 269.7 Z" stroke="#666666" stroke-width="1"></path><path fill="#aaeeee" d="M 395 262.1 L 403 262.1 399 270.1 Z" stroke="#666666" stroke-width="1"></path><path fill="#aaeeee" d="M 323 262.6 L 331 262.6 327 270.6 Z" stroke="#666666" stroke-width="1"></path><path fill="#aaeeee" d="M 250 262.8 L 258 262.8 254 270.8 Z" stroke="#666666" stroke-width="1"></path><path fill="#aaeeee" d="M 177 262.9 L 185 262.9 181 270.9 Z" stroke="#666666" stroke-width="1"></path><path fill="#aaeeee" d="M 105 262.9 L 113 262.9 109 270.9 Z" stroke="#666666" stroke-width="1"></path><path fill="#aaeeee" d="M 32 262.9 L 40 262.9 36 270.9 Z" stroke="#666666" stroke-width="1"></path></g></g><text x="292" text-anchor="middle" class="highcharts-title"  style="color:black;font-size:16px;font-weight:bold;fill:black;width:520px;" y="22"><tspan>Historic and Estimated Worldwide Population Growth by Region</tspan></text><text x="292" text-anchor="middle" class="highcharts-subtitle"  style="color:black;fill:black;width:520px;" y="43"><tspan>Source: Wikipedia.org</tspan></text><g class="highcharts-legend"  transform="translate(84,358)"><g ><g><g class="highcharts-legend-item"  transform="translate(8,3)"><text x="21" style="color:#333333;font-size:13px;font-weight:bold;cursor:pointer;fill:#333333;" text-anchor="start"  y="16">Asia</text><rect x="0" y="5" width="16" height="12"  fill="#f45b5b"></rect></g><g class="highcharts-legend-item"  transform="translate(77,3)"><text x="21" y="16" style="color:#333333;font-size:13px;font-weight:bold;cursor:pointer;fill:#333333;" text-anchor="start" >Africa</text><rect x="0" y="5" width="16" height="12"  fill="#8085e9"></rect></g><g class="highcharts-legend-item"  transform="translate(157,3)"><text x="21" y="16" style="color:#333333;font-size:13px;font-weight:bold;cursor:pointer;fill:#333333;" text-anchor="start" >Europe</text><rect x="0" y="5" width="16" height="12"  fill="#8d4654"></rect></g><g class="highcharts-legend-item"  transform="translate(243,3)"><text x="21" y="16" style="color:#333333;font-size:13px;font-weight:bold;cursor:pointer;fill:#333333;" text-anchor="start" >America</text><rect x="0" y="5" width="16" height="12"  fill="#7798BF"></rect></g><g class="highcharts-legend-item"  transform="translate(337,3)"><text x="21" y="16" style="color:#333333;font-size:13px;font-weight:bold;cursor:pointer;fill:#333333;" text-anchor="start" >Oceania</text><rect x="0" y="5" width="16" height="12"  fill="#aaeeee"></rect></g></g></g></g><g class="highcharts-axis-labels highcharts-xaxis-labels" ><text x="101.3" style="color:#6e6e70;cursor:default;font-size:11px;fill:#6e6e70;width:71px;text-overflow:clip;" text-anchor="middle" transform="translate(0,0)" y="344" opacity="1">1750</text><text x="174.0" style="color:#6e6e70;cursor:default;font-size:11px;fill:#6e6e70;width:71px;text-overflow:clip;" text-anchor="middle" transform="translate(0,0)" y="344" opacity="1">1800</text><text x="246.7" style="color:#6e6e70;cursor:default;font-size:11px;fill:#6e6e70;width:71px;text-overflow:clip;" text-anchor="middle" transform="translate(0,0)" y="344" opacity="1">1850</text><text x="319.5" style="color:#6e6e70;cursor:default;font-size:11px;fill:#6e6e70;width:71px;text-overflow:clip;" text-anchor="middle" transform="translate(0,0)" y="344" opacity="1">1900</text><text x="392.2" style="color:#6e6e70;cursor:default;font-size:11px;fill:#6e6e70;width:71px;text-overflow:clip;" text-anchor="middle" transform="translate(0,0)" y="344" opacity="1">1950</text><text x="464.9" style="color:#6e6e70;cursor:default;font-size:11px;fill:#6e6e70;width:71px;text-overflow:clip;" text-anchor="middle" transform="translate(0,0)" y="344" opacity="1">1999</text><text x="537.6" style="color:#6e6e70;cursor:default;font-size:11px;fill:#6e6e70;width:71px;text-overflow:clip;" text-anchor="middle" transform="translate(0,0)" y="344" opacity="1">2050</text></g><g class="highcharts-axis-labels highcharts-yaxis-labels" ><text x="50" style="color:#6e6e70;cursor:default;font-size:11px;fill:#6e6e70;width:183px;text-overflow:clip;" text-anchor="end" transform="translate(0,0)" y="330" opacity="1">0</text><text x="50" style="color:#6e6e70;cursor:default;font-size:11px;fill:#6e6e70;width:183px;text-overflow:clip;" text-anchor="end" transform="translate(0,0)" y="263" opacity="1">2.5</text><text x="50" style="color:#6e6e70;cursor:default;font-size:11px;fill:#6e6e70;width:183px;text-overflow:clip;" text-anchor="end" transform="translate(0,0)" y="196" opacity="1">5</text><text x="50" style="color:#6e6e70;cursor:default;font-size:11px;fill:#6e6e70;width:183px;text-overflow:clip;" text-anchor="end" transform="translate(0,0)" y="129" opacity="1">7.5</text><text x="50" style="color:#6e6e70;cursor:default;font-size:11px;fill:#6e6e70;width:183px;text-overflow:clip;" text-anchor="end" transform="translate(0,0)" y="63" opacity="1">10</text></g><g class="highcharts-tooltip"  style="cursor:default;padding:0;white-space:nowrap;" transform="translate(0,-9999)"><path fill="none" d="M 3 0 L 13 0 C 16 0 16 0 16 3 L 16 13 C 16 16 16 16 13 16 L 3 16 C 0 16 0 16 0 13 L 0 3 C 0 0 0 0 3 0"  stroke="black" stroke-opacity="0.0" stroke-width="5" transform="translate(1, 1)"></path><path fill="none" d="M 3 0 L 13 0 C 16 0 16 0 16 3 L 16 13 C 16 16 16 16 13 16 L 3 16 C 0 16 0 16 0 13 L 0 3 C 0 0 0 0 3 0"  stroke="black" stroke-opacity="0.0" stroke-width="3" transform="translate(1, 1)"></path><path fill="none" d="M 3 0 L 13 0 C 16 0 16 0 16 3 L 16 13 C 16 16 16 16 13 16 L 3 16 C 0 16 0 16 0 13 L 0 3 C 0 0 0 0 3 0"  stroke="black" stroke-opacity="0.1" stroke-width="1" transform="translate(1, 1)"></path><path fill="rgb(249, 249, 249)" fill-opacity=" .85" d="M 3 0 L 13 0 C 16 0 16 0 16 3 L 16 13 C 16 16 16 16 13 16 L 3 16 C 0 16 0 16 0 13 L 0 3 C 0 0 0 0 3 0"></path><text x="8"  style="font-size:12px;color:#333333;fill:#333333;" transform="translate(0,20)"></text></g></svg>