<svg version="1.1" style="font-family: signika, serif; font-size: 12px; background-image: url(http://www.highcharts.com/samples/graphics/sand.png); background-attachment: initial; background-origin: initial; background-clip: initial; background-color: initial; background-position: initial initial; background-repeat: initial initial; " xmlns="http://www.w3.org/2000/svg" width="584" height="400" viewBox="0 0 584 400" xmlns:xlink="http://www.w3.org/1999/xlink"><style type="text/css"><![CDATA[@import url(http://fonts.googleapis.com/css?family=Signika:700);]]></style><desc>Created with Highcharts 4.1.4</desc><defs><clipPath id="highcharts-1"><rect x="0" y="0" width="519" height="305"></rect></clipPath><clipPath id="highcharts-2"><rect x="-99" y="-44" width="618" height="400"></rect></clipPath><clipPath id="highcharts-3"><rect x="0" y="0" width="519" height="305"></rect></clipPath></defs><g class="highcharts-grid" ></g><g class="highcharts-grid" ><path fill="none" d="M 55 349.5 L 574 349.5" stroke="#D8D8D8" stroke-width="1"  opacity="1"></path><path fill="none" d="M 55 273.5 L 574 273.5" stroke="#D8D8D8" stroke-width="1"  opacity="1"></path><path fill="none" d="M 55 197.5 L 574 197.5" stroke="#D8D8D8" stroke-width="1"  opacity="1"></path><path fill="none" d="M 55 120.5 L 574 120.5" stroke="#D8D8D8" stroke-width="1"  opacity="1"></path><path fill="none" d="M 55 43.5 L 574 43.5" stroke="#D8D8D8" stroke-width="1"  opacity="1"></path></g><g class="highcharts-axis" ><path fill="none" d="M 119.5 349 L 119.5 359" stroke="#C0D0E0" stroke-width="1" opacity="1"></path><path fill="none" d="M 184.5 349 L 184.5 359" stroke="#C0D0E0" stroke-width="1" opacity="1"></path><path fill="none" d="M 249.5 349 L 249.5 359" stroke="#C0D0E0" stroke-width="1" opacity="1"></path><path fill="none" d="M 314.5 349 L 314.5 359" stroke="#C0D0E0" stroke-width="1" opacity="1"></path><path fill="none" d="M 378.5 349 L 378.5 359" stroke="#C0D0E0" stroke-width="1" opacity="1"></path><path fill="none" d="M 443.5 349 L 443.5 359" stroke="#C0D0E0" stroke-width="1" opacity="1"></path><path fill="none" d="M 508.5 349 L 508.5 359" stroke="#C0D0E0" stroke-width="1" opacity="1"></path><path fill="none" d="M 574.5 349 L 574.5 359" stroke="#C0D0E0" stroke-width="1" opacity="1"></path><path fill="none" d="M 54.5 349 L 54.5 359" stroke="#C0D0E0" stroke-width="1" opacity="1"></path><path fill="none" d="M 55 349.5 L 574 349.5" stroke="#C0D0E0" stroke-width="1"  visibility="visible"></path></g><g class="highcharts-axis" ><text x="24"  text-anchor="middle" transform="translate(0,0) rotate(270 24 196.5)" class=" highcharts-yaxis-title" style="color:#707070;fill:#707070;" visibility="visible" y="196.5">Y-Axis</text></g><g class="highcharts-series-group" ><g class="highcharts-series" visibility="visible"  transform="translate(55,44) scale(1 1)" clip-path="url(#highcharts-3)"><path fill="rgb(244,91,91)" fill-opacity="0.5" d="M 32.4 305 L 97.3 266.8 L 162.1 152.5 L 227.0 152.5 L 291.9 114.3 L 356.8 228.7 L 421.6 190.6 L 486.5 38.1 L 486.5 305 L 32.4 305" ></path><path fill="none" d="M 32.4 305 L 97.3 266.8 L 162.1 152.5 L 227.0 152.5 L 291.9 114.3 L 356.8 228.7 L 421.6 190.6 L 486.5 38.1" stroke="black" stroke-width="5"  stroke-linejoin="round" stroke-linecap="round"  stroke-opacity="0.0" transform="translate(1, 1)"></path><path fill="none" d="M 32.4 305 L 97.3 266.8 L 162.1 152.5 L 227.0 152.5 L 291.9 114.3 L 356.8 228.7 L 421.6 190.6 L 486.5 38.1" stroke="black" stroke-width="3"  stroke-linejoin="round" stroke-linecap="round"  stroke-opacity="0.0" transform="translate(1, 1)"></path><path fill="none" d="M 32.4 305 L 97.3 266.8 L 162.1 152.5 L 227.0 152.5 L 291.9 114.3 L 356.8 228.7 L 421.6 190.6 L 486.5 38.1" stroke="black" stroke-width="1"  stroke-linejoin="round" stroke-linecap="round"  stroke-opacity="0.1" transform="translate(1, 1)"></path><path fill="none" d="M 32.4 305 L 97.3 266.8 L 162.1 152.5 L 227.0 152.5 L 291.9 114.3 L 356.8 228.7 L 421.6 190.6 L 486.5 38.1" stroke="#f45b5b" stroke-width="2"  stroke-linejoin="round" stroke-linecap="round"></path><path fill="none" d="M 22.4 305 L 32.4 305 L 97.3 266.8 L 162.1 152.5 L 227.0 152.5 L 291.9 114.3 L 356.8 228.7 L 421.6 190.6 L 486.5 38.1 L 496.5 38.1" stroke-linejoin="round" visibility="visible" stroke="rgb(192,192,192)" stroke-opacity="0.0" stroke-width="22"  class=" highcharts-tracker" style=""></path></g><g class="highcharts-markers highcharts-tracker" visibility="visible"  transform="translate(55,44) scale(1 1)" clip-path="url(#highcharts-2)" style=""><path fill="#f45b5b" d="M 486 34.1 C 491.3 34.1 491.3 42.1 486 42.1 C 480.6 42.1 480.6 34.1 486 34.1 Z"></path><path fill="#f45b5b" d="M 421 186.6 C 426.3 186.6 426.3 194.6 421 194.6 C 415.6 194.6 415.6 186.6 421 186.6 Z"></path><path fill="#f45b5b" d="M 356 224.7 C 361.3 224.7 361.3 232.7 356 232.7 C 350.6 232.7 350.6 224.7 356 224.7 Z"></path><path fill="#f45b5b" d="M 291 110.3 C 296.3 110.3 296.3 118.3 291 118.3 C 285.6 118.3 285.6 110.3 291 110.3 Z"></path><path fill="#f45b5b" d="M 227 148.5 C 232.3 148.5 232.3 156.5 227 156.5 C 221.6 156.5 221.6 148.5 227 148.5 Z"></path><path fill="#f45b5b" d="M 162 148.5 C 167.3 148.5 167.3 156.5 162 156.5 C 156.6 156.5 156.6 148.5 162 148.5 Z"></path><path fill="#f45b5b" d="M 97 262.8 C 102.3 262.8 102.3 270.8 97 270.8 C 91.6 270.8 91.6 262.8 97 262.8 Z"></path><path fill="#f45b5b" d="M 32 301 C 37.3 301 37.3 309 32 309 C 26.6 309 26.6 301 32 301 Z"></path></g><g class="highcharts-series" visibility="visible"  transform="translate(55,44) scale(1 1)" clip-path="url(#highcharts-3)"><path fill="rgb(128,133,233)" fill-opacity="0.5" d="M 32.4 266.8 L 97.3 305 L 162.1 190.6 L 162.1 305 L 32.4 305 M 291.9 190.6 L 356.8 266.8 L 421.6 228.7 L 486.5 266.8 L 486.5 305 L 291.9 305" ></path><path fill="none" d="M 32.4 266.8 L 97.3 305 L 162.1 190.6 M 291.9 190.6 L 356.8 266.8 L 421.6 228.7 L 486.5 266.8" stroke="black" stroke-width="5"  stroke-linejoin="round" stroke-linecap="round"  stroke-opacity="0.0" transform="translate(1, 1)"></path><path fill="none" d="M 32.4 266.8 L 97.3 305 L 162.1 190.6 M 291.9 190.6 L 356.8 266.8 L 421.6 228.7 L 486.5 266.8" stroke="black" stroke-width="3"  stroke-linejoin="round" stroke-linecap="round"  stroke-opacity="0.0" transform="translate(1, 1)"></path><path fill="none" d="M 32.4 266.8 L 97.3 305 L 162.1 190.6 M 291.9 190.6 L 356.8 266.8 L 421.6 228.7 L 486.5 266.8" stroke="black" stroke-width="1"  stroke-linejoin="round" stroke-linecap="round"  stroke-opacity="0.1" transform="translate(1, 1)"></path><path fill="none" d="M 32.4 266.8 L 97.3 305 L 162.1 190.6 M 291.9 190.6 L 356.8 266.8 L 421.6 228.7 L 486.5 266.8" stroke="#8085e9" stroke-width="2"  stroke-linejoin="round" stroke-linecap="round"></path><path fill="none" d="M 22.4 266.8 L 32.4 266.8 L 97.3 305 L 162.1 190.6 L 172.1 190.6 M 281.9 190.6 L 291.9 190.6 L 356.8 266.8 L 421.6 228.7 L 486.5 266.8 L 496.5 266.8" stroke-linejoin="round" visibility="visible" stroke="rgb(192,192,192)" stroke-opacity="0.0" stroke-width="22"  class=" highcharts-tracker" style=""></path></g><g class="highcharts-markers highcharts-tracker" visibility="visible"  transform="translate(55,44) scale(1 1)" clip-path="url(#highcharts-2)" style=""><path fill="#8085e9" d="M 486 262.8 L 490 266.8 486 270.8 482 266.8 Z"></path><path fill="#8085e9" d="M 421 224.7 L 425 228.7 421 232.7 417 228.7 Z"></path><path fill="#8085e9" d="M 356 262.8 L 360 266.8 356 270.8 352 266.8 Z"></path><path fill="#8085e9" d="M 291 186.6 L 295 190.6 291 194.6 287 190.6 Z"></path><path fill="#8085e9" d="M 162 186.6 L 166 190.6 162 194.6 158 190.6 Z"></path><path fill="#8085e9" d="M 97 301 L 101 305 97 309 93 305 Z"></path><path fill="#8085e9" d="M 32 262.8 L 36 266.8 32 270.8 28 266.8 Z"></path></g></g><text x="292" text-anchor="middle" class="highcharts-title"  style="color:black;font-size:16px;font-weight:bold;fill:black;width:520px;" y="22"><tspan>Fruit consumption *</tspan></text><text x="574" text-anchor="end" class="highcharts-subtitle"  style="color:black;fill:black;width:520px;" y="385"><tspan>* Jane's banana consumption is unknown</tspan></text><g class="highcharts-legend"  transform="translate(160,110)"><rect x="0.5" y="0.5" width="66" height="42" strokeWidth="1" stroke="#909090" stroke-width="1" fill="#FFFFFF" visibility="visible"></rect><g ><g><g class="highcharts-legend-item"  transform="translate(8,3)"><text x="21" style="color:#333333;font-size:13px;font-weight:bold;cursor:pointer;fill:#333333;" text-anchor="start"  y="16">John</text><rect x="0" y="5" width="16" height="12"  fill="#f45b5b"></rect></g><g class="highcharts-legend-item"  transform="translate(8,19)"><text x="21" y="16" style="color:#333333;font-size:13px;font-weight:bold;cursor:pointer;fill:#333333;" text-anchor="start" >Jane</text><rect x="0" y="5" width="16" height="12"  fill="#8085e9"></rect></g></g></g></g><g class="highcharts-axis-labels highcharts-xaxis-labels" ><text x="87.4" style="color:#6e6e70;cursor:default;font-size:11px;fill:#6e6e70;" text-anchor="middle" transform="translate(0,0)" y="368" opacity="1">Apples</text><text x="152.3" style="color:#6e6e70;cursor:default;font-size:11px;fill:#6e6e70;" text-anchor="middle" transform="translate(0,0)" y="368" opacity="1">Pears</text><text x="217.1" style="color:#6e6e70;cursor:default;font-size:11px;fill:#6e6e70;" text-anchor="middle" transform="translate(0,0)" y="368" opacity="1">Oranges</text><text x="282.0" style="color:#6e6e70;cursor:default;font-size:11px;fill:#6e6e70;" text-anchor="middle" transform="translate(0,0)" y="368" opacity="1">Bananas</text><text x="346.9" style="color:#6e6e70;cursor:default;font-size:11px;fill:#6e6e70;" text-anchor="middle" transform="translate(0,0)" y="368" opacity="1">Grapes</text><text x="411.8" style="color:#6e6e70;cursor:default;font-size:11px;fill:#6e6e70;" text-anchor="middle" transform="translate(0,0)" y="368" opacity="1">Plums</text><text x="476.6" style="color:#6e6e70;cursor:default;font-size:11px;fill:#6e6e70;" text-anchor="middle" transform="translate(0,0)" y="368" opacity="1">Strawberries</text><text x="541.5" style="color:#6e6e70;cursor:default;font-size:11px;fill:#6e6e70;" text-anchor="middle" transform="translate(0,0)" y="368" opacity="1">Raspberries</text></g><g class="highcharts-axis-labels highcharts-yaxis-labels" ><text x="40" style="color:#6e6e70;cursor:default;font-size:11px;fill:#6e6e70;width:183px;text-overflow:clip;" text-anchor="end" transform="translate(0,0)" y="354" opacity="1">0</text><text x="40" style="color:#6e6e70;cursor:default;font-size:11px;fill:#6e6e70;width:183px;text-overflow:clip;" text-anchor="end" transform="translate(0,0)" y="277" opacity="1">2</text><text x="40" style="color:#6e6e70;cursor:default;font-size:11px;fill:#6e6e70;width:183px;text-overflow:clip;" text-anchor="end" transform="translate(0,0)" y="201" opacity="1">4</text><text x="40" style="color:#6e6e70;cursor:default;font-size:11px;fill:#6e6e70;width:183px;text-overflow:clip;" text-anchor="end" transform="translate(0,0)" y="125" opacity="1">6</text><text x="40" style="color:#6e6e70;cursor:default;font-size:11px;fill:#6e6e70;width:183px;text-overflow:clip;" text-anchor="end" transform="translate(0,0)" y="49" opacity="1">8</text></g><g class="highcharts-tooltip"  style="cursor:default;padding:0;white-space:nowrap;" transform="translate(0,-9999)"><path fill="none" d="M 3 0 L 13 0 C 16 0 16 0 16 3 L 16 13 C 16 16 16 16 13 16 L 3 16 C 0 16 0 16 0 13 L 0 3 C 0 0 0 0 3 0"  stroke="black" stroke-opacity="0.0" stroke-width="5" transform="translate(1, 1)"></path><path fill="none" d="M 3 0 L 13 0 C 16 0 16 0 16 3 L 16 13 C 16 16 16 16 13 16 L 3 16 C 0 16 0 16 0 13 L 0 3 C 0 0 0 0 3 0"  stroke="black" stroke-opacity="0.0" stroke-width="3" transform="translate(1, 1)"></path><path fill="none" d="M 3 0 L 13 0 C 16 0 16 0 16 3 L 16 13 C 16 16 16 16 13 16 L 3 16 C 0 16 0 16 0 13 L 0 3 C 0 0 0 0 3 0"  stroke="black" stroke-opacity="0.1" stroke-width="1" transform="translate(1, 1)"></path><path fill="rgb(249, 249, 249)" fill-opacity=" .85" d="M 3 0 L 13 0 C 16 0 16 0 16 3 L 16 13 C 16 16 16 16 13 16 L 3 16 C 0 16 0 16 0 13 L 0 3 C 0 0 0 0 3 0"></path><text x="8"  style="font-size:12px;color:#333333;fill:#333333;" transform="translate(0,20)"></text></g></svg>