<svg version="1.1" style="font-family: signika, serif; font-size: 12px; background-image: url(http://www.highcharts.com/samples/graphics/sand.png); background-attachment: initial; background-origin: initial; background-clip: initial; background-color: initial; background-position: initial initial; background-repeat: initial initial; " xmlns="http://www.w3.org/2000/svg" width="584" height="400" viewBox="0 0 584 400" xmlns:xlink="http://www.w3.org/1999/xlink"><style type="text/css"><![CDATA[@import url(http://fonts.googleapis.com/css?family=Signika:700);]]></style><desc>Created with Highcharts 4.1.4</desc><defs><clipPath id="highcharts-1"><rect x="0" y="0" width="537" height="281"></rect></clipPath><clipPath id="highcharts-2"><rect x="-99" y="-44" width="636" height="400"></rect></clipPath><clipPath id="highcharts-3"><rect x="0" y="0" width="537" height="281"></rect></clipPath></defs><g class="highcharts-grid" ></g><g class="highcharts-grid" ><path fill="none" d="M 37 325.5 L 574 325.5" stroke="#D8D8D8" stroke-width="1"  opacity="1"></path><path fill="none" d="M 37 278.5 L 574 278.5" stroke="#D8D8D8" stroke-width="1"  opacity="1"></path><path fill="none" d="M 37 231.5 L 574 231.5" stroke="#D8D8D8" stroke-width="1"  opacity="1"></path><path fill="none" d="M 37 185.5 L 574 185.5" stroke="#D8D8D8" stroke-width="1"  opacity="1"></path><path fill="none" d="M 37 138.5 L 574 138.5" stroke="#D8D8D8" stroke-width="1"  opacity="1"></path><path fill="none" d="M 37 91.5 L 574 91.5" stroke="#D8D8D8" stroke-width="1"  opacity="1"></path><path fill="none" d="M 37 43.5 L 574 43.5" stroke="#D8D8D8" stroke-width="1"  opacity="1"></path></g><g class="highcharts-axis" ><path fill="none" d="M 129.5 325 L 129.5 335" stroke="#C0D0E0" stroke-width="1" opacity="1"></path><path fill="none" d="M 252.5 325 L 252.5 335" stroke="#C0D0E0" stroke-width="1" opacity="1"></path><path fill="none" d="M 375.5 325 L 375.5 335" stroke="#C0D0E0" stroke-width="1" opacity="1"></path><path fill="none" d="M 498.5 325 L 498.5 335" stroke="#C0D0E0" stroke-width="1" opacity="1"></path><path fill="none" d="M 37 325.5 L 574 325.5" stroke="#C0D0E0" stroke-width="1"  visibility="visible"></path></g><g class="highcharts-axis" ></g><g class="highcharts-series-group" ><g class="highcharts-series" visibility="visible"  transform="translate(37,44) scale(1 1)" clip-path="url(#highcharts-3)"><path fill="rgb(244,91,91)" fill-opacity="0.3" d="M 5.2 193.8 L 22.8 192.0 L 40.3 182.6 L 57.9 171.4 L 75.4 173.2 L 93.0 161.1 L 110.5 201.3 L 128.1 229.4 L 145.6 241.6 L 163.2 219.1 L 180.7 227.6 L 198.3 224.8 L 215.8 219.1 L 233.4 217.3 L 250.9 209.8 L 268.5 200.4 L 286.0 221.0 L 303.5 204.1 L 321.1 194.8 L 338.6 205.1 L 356.2 213.5 L 373.7 215.4 L 391.3 215.4 L 408.8 208.8 L 426.4 211.6 L 443.9 209.8 L 461.5 216.3 L 479.0 224.8 L 496.6 226.6 L 514.1 217.3 L 531.7 226.6 L 531.7 177.0 L 514.1 154.5 L 496.6 161.1 L 479.0 147.0 L 461.5 138.6 L 443.9 141.4 L 426.4 146.1 L 408.8 156.4 L 391.3 167.6 L 373.7 133.0 L 356.2 182.6 L 338.6 167.6 L 321.1 125.5 L 303.5 93.6 L 286.0 116.1 L 268.5 144.2 L 250.9 118.0 L 233.4 133.9 L 215.8 105.8 L 198.3 109.5 L 180.7 105.8 L 163.2 123.6 L 145.6 104.9 L 128.1 127.3 L 110.5 95.5 L 93.0 87.1 L 75.4 93.6 L 57.9 40.2 L 40.3 50.5 L 22.8 67.4 L 5.2 68.3" ></path><path fill="none" d="M 5.2 193.8 L 22.8 192.0 L 40.3 182.6 L 57.9 171.4 L 75.4 173.2 L 93.0 161.1 L 110.5 201.3 L 128.1 229.4 L 145.6 241.6 L 163.2 219.1 L 180.7 227.6 L 198.3 224.8 L 215.8 219.1 L 233.4 217.3 L 250.9 209.8 L 268.5 200.4 L 286.0 221.0 L 303.5 204.1 L 321.1 194.8 L 338.6 205.1 L 356.2 213.5 L 373.7 215.4 L 391.3 215.4 L 408.8 208.8 L 426.4 211.6 L 443.9 209.8 L 461.5 216.3 L 479.0 224.8 L 496.6 226.6 L 514.1 217.3 L 531.7 226.6 M 531.7 177.0 L 514.1 154.5 L 496.6 161.1 L 479.0 147.0 L 461.5 138.6 L 443.9 141.4 L 426.4 146.1 L 408.8 156.4 L 391.3 167.6 L 373.7 133.0 L 356.2 182.6 L 338.6 167.6 L 321.1 125.5 L 303.5 93.6 L 286.0 116.1 L 268.5 144.2 L 250.9 118.0 L 233.4 133.9 L 215.8 105.8 L 198.3 109.5 L 180.7 105.8 L 163.2 123.6 L 145.6 104.9 L 128.1 127.3 L 110.5 95.5 L 93.0 87.1 L 75.4 93.6 L 57.9 40.2 L 40.3 50.5 L 22.8 67.4 L 5.2 68.3"  stroke-linejoin="round" stroke-linecap="round"  stroke="black" stroke-opacity="0.0" stroke-width="5" transform="translate(1, 1)"></path><path fill="none" d="M 5.2 193.8 L 22.8 192.0 L 40.3 182.6 L 57.9 171.4 L 75.4 173.2 L 93.0 161.1 L 110.5 201.3 L 128.1 229.4 L 145.6 241.6 L 163.2 219.1 L 180.7 227.6 L 198.3 224.8 L 215.8 219.1 L 233.4 217.3 L 250.9 209.8 L 268.5 200.4 L 286.0 221.0 L 303.5 204.1 L 321.1 194.8 L 338.6 205.1 L 356.2 213.5 L 373.7 215.4 L 391.3 215.4 L 408.8 208.8 L 426.4 211.6 L 443.9 209.8 L 461.5 216.3 L 479.0 224.8 L 496.6 226.6 L 514.1 217.3 L 531.7 226.6 M 531.7 177.0 L 514.1 154.5 L 496.6 161.1 L 479.0 147.0 L 461.5 138.6 L 443.9 141.4 L 426.4 146.1 L 408.8 156.4 L 391.3 167.6 L 373.7 133.0 L 356.2 182.6 L 338.6 167.6 L 321.1 125.5 L 303.5 93.6 L 286.0 116.1 L 268.5 144.2 L 250.9 118.0 L 233.4 133.9 L 215.8 105.8 L 198.3 109.5 L 180.7 105.8 L 163.2 123.6 L 145.6 104.9 L 128.1 127.3 L 110.5 95.5 L 93.0 87.1 L 75.4 93.6 L 57.9 40.2 L 40.3 50.5 L 22.8 67.4 L 5.2 68.3"  stroke-linejoin="round" stroke-linecap="round"  stroke="black" stroke-opacity="0.0" stroke-width="3" transform="translate(1, 1)"></path><path fill="none" d="M 5.2 193.8 L 22.8 192.0 L 40.3 182.6 L 57.9 171.4 L 75.4 173.2 L 93.0 161.1 L 110.5 201.3 L 128.1 229.4 L 145.6 241.6 L 163.2 219.1 L 180.7 227.6 L 198.3 224.8 L 215.8 219.1 L 233.4 217.3 L 250.9 209.8 L 268.5 200.4 L 286.0 221.0 L 303.5 204.1 L 321.1 194.8 L 338.6 205.1 L 356.2 213.5 L 373.7 215.4 L 391.3 215.4 L 408.8 208.8 L 426.4 211.6 L 443.9 209.8 L 461.5 216.3 L 479.0 224.8 L 496.6 226.6 L 514.1 217.3 L 531.7 226.6 M 531.7 177.0 L 514.1 154.5 L 496.6 161.1 L 479.0 147.0 L 461.5 138.6 L 443.9 141.4 L 426.4 146.1 L 408.8 156.4 L 391.3 167.6 L 373.7 133.0 L 356.2 182.6 L 338.6 167.6 L 321.1 125.5 L 303.5 93.6 L 286.0 116.1 L 268.5 144.2 L 250.9 118.0 L 233.4 133.9 L 215.8 105.8 L 198.3 109.5 L 180.7 105.8 L 163.2 123.6 L 145.6 104.9 L 128.1 127.3 L 110.5 95.5 L 93.0 87.1 L 75.4 93.6 L 57.9 40.2 L 40.3 50.5 L 22.8 67.4 L 5.2 68.3"  stroke-linejoin="round" stroke-linecap="round"  stroke="black" stroke-opacity="0.1" stroke-width="1" transform="translate(1, 1)"></path><path fill="none" d="M 5.2 193.8 L 22.8 192.0 L 40.3 182.6 L 57.9 171.4 L 75.4 173.2 L 93.0 161.1 L 110.5 201.3 L 128.1 229.4 L 145.6 241.6 L 163.2 219.1 L 180.7 227.6 L 198.3 224.8 L 215.8 219.1 L 233.4 217.3 L 250.9 209.8 L 268.5 200.4 L 286.0 221.0 L 303.5 204.1 L 321.1 194.8 L 338.6 205.1 L 356.2 213.5 L 373.7 215.4 L 391.3 215.4 L 408.8 208.8 L 426.4 211.6 L 443.9 209.8 L 461.5 216.3 L 479.0 224.8 L 496.6 226.6 L 514.1 217.3 L 531.7 226.6 M 531.7 177.0 L 514.1 154.5 L 496.6 161.1 L 479.0 147.0 L 461.5 138.6 L 443.9 141.4 L 426.4 146.1 L 408.8 156.4 L 391.3 167.6 L 373.7 133.0 L 356.2 182.6 L 338.6 167.6 L 321.1 125.5 L 303.5 93.6 L 286.0 116.1 L 268.5 144.2 L 250.9 118.0 L 233.4 133.9 L 215.8 105.8 L 198.3 109.5 L 180.7 105.8 L 163.2 123.6 L 145.6 104.9 L 128.1 127.3 L 110.5 95.5 L 93.0 87.1 L 75.4 93.6 L 57.9 40.2 L 40.3 50.5 L 22.8 67.4 L 5.2 68.3"  stroke-linejoin="round" stroke-linecap="round"></path><path fill="rgb(192,192,192)" fill-opacity="0.0" d="M 5.2 193.8 L 22.8 192.0 L 40.3 182.6 L 57.9 171.4 L 75.4 173.2 L 93.0 161.1 L 110.5 201.3 L 128.1 229.4 L 145.6 241.6 L 163.2 219.1 L 180.7 227.6 L 198.3 224.8 L 215.8 219.1 L 233.4 217.3 L 250.9 209.8 L 268.5 200.4 L 286.0 221.0 L 303.5 204.1 L 321.1 194.8 L 338.6 205.1 L 356.2 213.5 L 373.7 215.4 L 391.3 215.4 L 408.8 208.8 L 426.4 211.6 L 443.9 209.8 L 461.5 216.3 L 479.0 224.8 L 496.6 226.6 L 514.1 217.3 L 531.7 226.6 L 531.7 177.0 L 514.1 154.5 L 496.6 161.1 L 479.0 147.0 L 461.5 138.6 L 443.9 141.4 L 426.4 146.1 L 408.8 156.4 L 391.3 167.6 L 373.7 133.0 L 356.2 182.6 L 338.6 167.6 L 321.1 125.5 L 303.5 93.6 L 286.0 116.1 L 268.5 144.2 L 250.9 118.0 L 233.4 133.9 L 215.8 105.8 L 198.3 109.5 L 180.7 105.8 L 163.2 123.6 L 145.6 104.9 L 128.1 127.3 L 110.5 95.5 L 93.0 87.1 L 75.4 93.6 L 57.9 40.2 L 40.3 50.5 L 22.8 67.4 L 5.2 68.3" stroke-linejoin="round" visibility="visible"  class=" highcharts-tracker" style=""></path></g><g class="highcharts-markers highcharts-tracker" visibility="visible"  transform="translate(37,44) scale(1 1)" clip-path="url(#highcharts-2)" style=""></g><g class="highcharts-series" visibility="visible"  transform="translate(37,44) scale(1 1)" clip-path="url(#highcharts-3)"><path fill="none" d="M 5.2 126.4 L 22.8 120.8 L 40.3 112.3 L 57.9 104.9 L 75.4 127.3 L 93.0 128.3 L 110.5 156.4 L 128.1 183.5 L 145.6 174.2 L 163.2 162.0 L 180.7 163.9 L 198.3 162.9 L 215.8 162.0 L 233.4 170.4 L 250.9 162.0 L 268.5 175.1 L 286.0 161.1 L 303.5 158.2 L 321.1 166.7 L 338.6 192.9 L 356.2 199.5 L 373.7 180.7 L 391.3 191.0 L 408.8 184.5 L 426.4 184.5 L 443.9 179.8 L 461.5 185.4 L 479.0 189.2 L 496.6 192.9 L 514.1 187.3 L 531.7 200.4" stroke="black" stroke-width="5"  stroke-linejoin="round" stroke-linecap="round"  stroke-opacity="0.0" transform="translate(1, 1)"></path><path fill="none" d="M 5.2 126.4 L 22.8 120.8 L 40.3 112.3 L 57.9 104.9 L 75.4 127.3 L 93.0 128.3 L 110.5 156.4 L 128.1 183.5 L 145.6 174.2 L 163.2 162.0 L 180.7 163.9 L 198.3 162.9 L 215.8 162.0 L 233.4 170.4 L 250.9 162.0 L 268.5 175.1 L 286.0 161.1 L 303.5 158.2 L 321.1 166.7 L 338.6 192.9 L 356.2 199.5 L 373.7 180.7 L 391.3 191.0 L 408.8 184.5 L 426.4 184.5 L 443.9 179.8 L 461.5 185.4 L 479.0 189.2 L 496.6 192.9 L 514.1 187.3 L 531.7 200.4" stroke="black" stroke-width="3"  stroke-linejoin="round" stroke-linecap="round"  stroke-opacity="0.0" transform="translate(1, 1)"></path><path fill="none" d="M 5.2 126.4 L 22.8 120.8 L 40.3 112.3 L 57.9 104.9 L 75.4 127.3 L 93.0 128.3 L 110.5 156.4 L 128.1 183.5 L 145.6 174.2 L 163.2 162.0 L 180.7 163.9 L 198.3 162.9 L 215.8 162.0 L 233.4 170.4 L 250.9 162.0 L 268.5 175.1 L 286.0 161.1 L 303.5 158.2 L 321.1 166.7 L 338.6 192.9 L 356.2 199.5 L 373.7 180.7 L 391.3 191.0 L 408.8 184.5 L 426.4 184.5 L 443.9 179.8 L 461.5 185.4 L 479.0 189.2 L 496.6 192.9 L 514.1 187.3 L 531.7 200.4" stroke="black" stroke-width="1"  stroke-linejoin="round" stroke-linecap="round"  stroke-opacity="0.1" transform="translate(1, 1)"></path><path fill="none" d="M 5.2 126.4 L 22.8 120.8 L 40.3 112.3 L 57.9 104.9 L 75.4 127.3 L 93.0 128.3 L 110.5 156.4 L 128.1 183.5 L 145.6 174.2 L 163.2 162.0 L 180.7 163.9 L 198.3 162.9 L 215.8 162.0 L 233.4 170.4 L 250.9 162.0 L 268.5 175.1 L 286.0 161.1 L 303.5 158.2 L 321.1 166.7 L 338.6 192.9 L 356.2 199.5 L 373.7 180.7 L 391.3 191.0 L 408.8 184.5 L 426.4 184.5 L 443.9 179.8 L 461.5 185.4 L 479.0 189.2 L 496.6 192.9 L 514.1 187.3 L 531.7 200.4" stroke="#f45b5b" stroke-width="2"  stroke-linejoin="round" stroke-linecap="round"></path><path fill="none" d="M -4.7 126.4 L 5.2 126.4 L 22.8 120.8 L 40.3 112.3 L 57.9 104.9 L 75.4 127.3 L 93.0 128.3 L 110.5 156.4 L 128.1 183.5 L 145.6 174.2 L 163.2 162.0 L 180.7 163.9 L 198.3 162.9 L 215.8 162.0 L 233.4 170.4 L 250.9 162.0 L 268.5 175.1 L 286.0 161.1 L 303.5 158.2 L 321.1 166.7 L 338.6 192.9 L 356.2 199.5 L 373.7 180.7 L 391.3 191.0 L 408.8 184.5 L 426.4 184.5 L 443.9 179.8 L 461.5 185.4 L 479.0 189.2 L 496.6 192.9 L 514.1 187.3 L 531.7 200.4 L 541.7 200.4" stroke-linejoin="round" visibility="visible" stroke="rgb(192,192,192)" stroke-opacity="0.0" stroke-width="22"  class=" highcharts-tracker" style=""></path></g><g class="highcharts-markers highcharts-tracker" visibility="visible"  transform="translate(37,44) scale(1 1)" clip-path="url(#highcharts-2)" style=""><path fill="white" d="M 531 196.4 C 536.3 196.4 536.3 204.4 531 204.4 C 525.6 204.4 525.6 196.4 531 196.4 Z" stroke="#f45b5b" stroke-width="2"></path><path fill="white" d="M 514 183.3 C 519.3 183.3 519.3 191.3 514 191.3 C 508.6 191.3 508.6 183.3 514 183.3 Z" stroke="#f45b5b" stroke-width="2"></path><path fill="white" d="M 496 188.9 C 501.3 188.9 501.3 196.9 496 196.9 C 490.6 196.9 490.6 188.9 496 188.9 Z" stroke="#f45b5b" stroke-width="2"></path><path fill="white" d="M 479 185.2 C 484.3 185.2 484.3 193.2 479 193.2 C 473.6 193.2 473.6 185.2 479 185.2 Z" stroke="#f45b5b" stroke-width="2"></path><path fill="white" d="M 461 181.4 C 466.3 181.4 466.3 189.4 461 189.4 C 455.6 189.4 455.6 181.4 461 181.4 Z" stroke="#f45b5b" stroke-width="2"></path><path fill="white" d="M 443 175.8 C 448.3 175.8 448.3 183.8 443 183.8 C 437.6 183.8 437.6 175.8 443 175.8 Z" stroke="#f45b5b" stroke-width="2"></path><path fill="white" d="M 426 180.5 C 431.3 180.5 431.3 188.5 426 188.5 C 420.6 188.5 420.6 180.5 426 180.5 Z" stroke="#f45b5b" stroke-width="2"></path><path fill="white" d="M 408 180.5 C 413.3 180.5 413.3 188.5 408 188.5 C 402.6 188.5 402.6 180.5 408 180.5 Z" stroke="#f45b5b" stroke-width="2"></path><path fill="white" d="M 391 187.0 C 396.3 187.0 396.3 195.0 391 195.0 C 385.6 195.0 385.6 187.0 391 187.0 Z" stroke="#f45b5b" stroke-width="2"></path><path fill="white" d="M 373 176.7 C 378.3 176.7 378.3 184.7 373 184.7 C 367.6 184.7 367.6 176.7 373 176.7 Z" stroke="#f45b5b" stroke-width="2"></path><path fill="white" d="M 356 195.5 C 361.3 195.5 361.3 203.5 356 203.5 C 350.6 203.5 350.6 195.5 356 195.5 Z" stroke="#f45b5b" stroke-width="2"></path><path fill="white" d="M 338 188.9 C 343.3 188.9 343.3 196.9 338 196.9 C 332.6 196.9 332.6 188.9 338 188.9 Z" stroke="#f45b5b" stroke-width="2"></path><path fill="white" d="M 321 162.7 C 326.3 162.7 326.3 170.7 321 170.7 C 315.6 170.7 315.6 162.7 321 162.7 Z" stroke="#f45b5b" stroke-width="2"></path><path fill="white" d="M 303 154.2 C 308.3 154.2 308.3 162.2 303 162.2 C 297.6 162.2 297.6 154.2 303 154.2 Z" stroke="#f45b5b" stroke-width="2"></path><path fill="white" d="M 286 157.1 C 291.3 157.1 291.3 165.1 286 165.1 C 280.6 165.1 280.6 157.1 286 157.1 Z" stroke="#f45b5b" stroke-width="2"></path><path fill="white" d="M 268 171.1 C 273.3 171.1 273.3 179.1 268 179.1 C 262.6 179.1 262.6 171.1 268 171.1 Z" stroke="#f45b5b" stroke-width="2"></path><path fill="white" d="M 250 158.0 C 255.3 158.0 255.3 166.0 250 166.0 C 244.6 166.0 244.6 158.0 250 158.0 Z" stroke="#f45b5b" stroke-width="2"></path><path fill="white" d="M 233 166.4 C 238.3 166.4 238.3 174.4 233 174.4 C 227.6 174.4 227.6 166.4 233 166.4 Z" stroke="#f45b5b" stroke-width="2"></path><path fill="white" d="M 215 158.0 C 220.3 158.0 220.3 166.0 215 166.0 C 209.6 166.0 209.6 158.0 215 158.0 Z" stroke="#f45b5b" stroke-width="2"></path><path fill="white" d="M 198 158.9 C 203.3 158.9 203.3 166.9 198 166.9 C 192.6 166.9 192.6 158.9 198 158.9 Z" stroke="#f45b5b" stroke-width="2"></path><path fill="white" d="M 180 159.9 C 185.3 159.9 185.3 167.9 180 167.9 C 174.6 167.9 174.6 159.9 180 159.9 Z" stroke="#f45b5b" stroke-width="2"></path><path fill="white" d="M 163 158.0 C 168.3 158.0 168.3 166.0 163 166.0 C 157.6 166.0 157.6 158.0 163 158.0 Z" stroke="#f45b5b" stroke-width="2"></path><path fill="white" d="M 145 170.2 C 150.3 170.2 150.3 178.2 145 178.2 C 139.6 178.2 139.6 170.2 145 170.2 Z" stroke="#f45b5b" stroke-width="2"></path><path fill="white" d="M 128 179.5 C 133.3 179.5 133.3 187.5 128 187.5 C 122.6 187.5 122.6 179.5 128 179.5 Z" stroke="#f45b5b" stroke-width="2"></path><path fill="white" d="M 110 152.4 C 115.3 152.4 115.3 160.4 110 160.4 C 104.6 160.4 104.6 152.4 110 152.4 Z" stroke="#f45b5b" stroke-width="2"></path><path fill="white" d="M 93 124.3 C 98.3 124.3 98.3 132.3 93 132.3 C 87.6 132.3 87.6 124.3 93 124.3 Z" stroke="#f45b5b" stroke-width="2"></path><path fill="white" d="M 75 123.3 C 80.3 123.3 80.3 131.3 75 131.3 C 69.6 131.3 69.6 123.3 75 123.3 Z" stroke="#f45b5b" stroke-width="2"></path><path fill="white" d="M 57 100.9 C 62.3 100.9 62.3 108.9 57 108.9 C 51.6 108.9 51.6 100.9 57 100.9 Z" stroke="#f45b5b" stroke-width="2"></path><path fill="white" d="M 40 108.3 C 45.3 108.3 45.3 116.3 40 116.3 C 34.6 116.3 34.6 108.3 40 108.3 Z" stroke="#f45b5b" stroke-width="2"></path><path fill="white" d="M 22 116.8 C 27.3 116.8 27.3 124.8 22 124.8 C 16.6 124.8 16.6 116.8 22 116.8 Z" stroke="#f45b5b" stroke-width="2"></path><path fill="white" d="M 5 122.4 C 10.3 122.4 10.3 130.4 5 130.4 C -0.3 130.4 -0.3 122.4 5 122.4 Z" stroke="#f45b5b" stroke-width="2"></path></g></g><text x="292" text-anchor="middle" class="highcharts-title"  style="color:black;font-size:16px;font-weight:bold;fill:black;width:520px;" y="22"><tspan>July temperatures</tspan></text><g class="highcharts-legend"  transform="translate(232,358)"><g ><g><g class="highcharts-legend-item"  transform="translate(8,3)"><path fill="none" d="M 0 12 L 16 12" stroke="#f45b5b" stroke-width="2"></path><path fill="white" d="M 8 8 C 13.3 8 13.3 16 8 16 C 2.6 16 2.6 8 8 8 Z" stroke="#f45b5b" stroke-width="2"></path><text x="21" style="color:#333333;font-size:13px;font-weight:bold;cursor:pointer;fill:#333333;" text-anchor="start"  y="16">Temperature</text></g></g></g></g><g class="highcharts-axis-labels highcharts-xaxis-labels" ><text x="130.0" style="color:#6e6e70;cursor:default;font-size:11px;fill:#6e6e70;width:131px;text-overflow:clip;" text-anchor="middle" transform="translate(0,0)" y="344" opacity="1"><tspan>6. Jul</tspan></text><text x="252.8" style="color:#6e6e70;cursor:default;font-size:11px;fill:#6e6e70;width:131px;text-overflow:clip;" text-anchor="middle" transform="translate(0,0)" y="344" opacity="1"><tspan>13. Jul</tspan></text><text x="375.6" style="color:#6e6e70;cursor:default;font-size:11px;fill:#6e6e70;width:131px;text-overflow:clip;" text-anchor="middle" transform="translate(0,0)" y="344" opacity="1"><tspan>20. Jul</tspan></text><text x="498.5" style="color:#6e6e70;cursor:default;font-size:11px;fill:#6e6e70;width:131px;text-overflow:clip;" text-anchor="middle" transform="translate(0,0)" y="344" opacity="1"><tspan>27. Jul</tspan></text></g><g class="highcharts-axis-labels highcharts-yaxis-labels" ><text x="22" style="color:#6e6e70;cursor:default;font-size:11px;fill:#6e6e70;width:183px;text-overflow:clip;" text-anchor="end" transform="translate(0,0)" y="330" opacity="1">5</text><text x="22" style="color:#6e6e70;cursor:default;font-size:11px;fill:#6e6e70;width:183px;text-overflow:clip;" text-anchor="end" transform="translate(0,0)" y="283" opacity="1">10</text><text x="22" style="color:#6e6e70;cursor:default;font-size:11px;fill:#6e6e70;width:183px;text-overflow:clip;" text-anchor="end" transform="translate(0,0)" y="236" opacity="1">15</text><text x="22" style="color:#6e6e70;cursor:default;font-size:11px;fill:#6e6e70;width:183px;text-overflow:clip;" text-anchor="end" transform="translate(0,0)" y="189" opacity="1">20</text><text x="22" style="color:#6e6e70;cursor:default;font-size:11px;fill:#6e6e70;width:183px;text-overflow:clip;" text-anchor="end" transform="translate(0,0)" y="142" opacity="1">25</text><text x="22" style="color:#6e6e70;cursor:default;font-size:11px;fill:#6e6e70;width:183px;text-overflow:clip;" text-anchor="end" transform="translate(0,0)" y="95" opacity="1">30</text><text x="22" style="color:#6e6e70;cursor:default;font-size:11px;fill:#6e6e70;width:183px;text-overflow:clip;" text-anchor="end" transform="translate(0,0)" y="49" opacity="1">35</text></g><g class="highcharts-tooltip"  style="cursor:default;padding:0;white-space:nowrap;" transform="translate(0,-9999)"><path fill="none" d="M 3 0 L 13 0 C 16 0 16 0 16 3 L 16 13 C 16 16 16 16 13 16 L 3 16 C 0 16 0 16 0 13 L 0 3 C 0 0 0 0 3 0"  stroke="black" stroke-opacity="0.0" stroke-width="5" transform="translate(1, 1)"></path><path fill="none" d="M 3 0 L 13 0 C 16 0 16 0 16 3 L 16 13 C 16 16 16 16 13 16 L 3 16 C 0 16 0 16 0 13 L 0 3 C 0 0 0 0 3 0"  stroke="black" stroke-opacity="0.0" stroke-width="3" transform="translate(1, 1)"></path><path fill="none" d="M 3 0 L 13 0 C 16 0 16 0 16 3 L 16 13 C 16 16 16 16 13 16 L 3 16 C 0 16 0 16 0 13 L 0 3 C 0 0 0 0 3 0"  stroke="black" stroke-opacity="0.1" stroke-width="1" transform="translate(1, 1)"></path><path fill="rgb(249, 249, 249)" fill-opacity=" .85" d="M 3 0 L 13 0 C 16 0 16 0 16 3 L 16 13 C 16 16 16 16 13 16 L 3 16 C 0 16 0 16 0 13 L 0 3 C 0 0 0 0 3 0"></path><text x="8"  style="font-size:12px;color:#333333;fill:#333333;" transform="translate(0,20)"></text></g></svg>