<svg version="1.1" style="font-family: signika, serif; font-size: 12px; background-image: url(http://www.highcharts.com/samples/graphics/sand.png); background-attachment: initial; background-origin: initial; background-clip: initial; background-color: initial; background-position: initial initial; background-repeat: initial initial; " xmlns="http://www.w3.org/2000/svg" width="584" height="400" viewBox="0 0 584 400" xmlns:xlink="http://www.w3.org/1999/xlink"><style type="text/css"><![CDATA[@import url(http://fonts.googleapis.com/css?family=Signika:700);]]></style><desc>Created with Highcharts 4.1.4</desc><defs><clipPath id="highcharts-1"><rect x="0" y="0" width="505" height="281"></rect></clipPath><clipPath id="highcharts-2"><rect x="-99" y="-44" width="604" height="400"></rect></clipPath><clipPath id="highcharts-3"><rect x="0" y="0" width="505" height="281"></rect></clipPath></defs><g class="highcharts-grid" ></g><g class="highcharts-grid" ><path fill="none" d="M 69 325.5 L 574 325.5" stroke="#D8D8D8" stroke-width="1"  opacity="1"></path><path fill="none" d="M 69 269.5 L 574 269.5" stroke="#D8D8D8" stroke-width="1"  opacity="1"></path><path fill="none" d="M 69 213.5 L 574 213.5" stroke="#D8D8D8" stroke-width="1"  opacity="1"></path><path fill="none" d="M 69 156.5 L 574 156.5" stroke="#D8D8D8" stroke-width="1"  opacity="1"></path><path fill="none" d="M 69 100.5 L 574 100.5" stroke="#D8D8D8" stroke-width="1"  opacity="1"></path><path fill="none" d="M 69 43.5 L 574 43.5" stroke="#D8D8D8" stroke-width="1"  opacity="1"></path></g><g class="highcharts-axis" ><path fill="none" d="M 169.5 325 L 169.5 335" stroke="#C0D0E0" stroke-width="1" opacity="1"></path><path fill="none" d="M 270.5 325 L 270.5 335" stroke="#C0D0E0" stroke-width="1" opacity="1"></path><path fill="none" d="M 371.5 325 L 371.5 335" stroke="#C0D0E0" stroke-width="1" opacity="1"></path><path fill="none" d="M 472.5 325 L 472.5 335" stroke="#C0D0E0" stroke-width="1" opacity="1"></path><path fill="none" d="M 574.5 325 L 574.5 335" stroke="#C0D0E0" stroke-width="1" opacity="1"></path><path fill="none" d="M 68.5 325 L 68.5 335" stroke="#C0D0E0" stroke-width="1" opacity="1"></path><path fill="none" d="M 69 325.5 L 574 325.5" stroke="#C0D0E0" stroke-width="1"  visibility="visible"></path></g><g class="highcharts-axis" ><text x="24"  text-anchor="middle" transform="translate(0,0) rotate(270 24 184.5)" class=" highcharts-yaxis-title" style="color:#707070;fill:#707070;" visibility="visible" y="184.5">Values</text></g><g class="highcharts-series-group" ><g class="highcharts-series" visibility="visible"  transform="translate(69,44) scale(1 1)" clip-path="url(#highcharts-3)"><path fill="rgb(244,91,91)" fill-opacity="0.7" d="M 50.5 56.1 L 151.5 101.1 L 252.5 78.6 L 353.5 11.2 L 454.5 123.6 L 454.5 168.6 L 50.5 168.6" ></path><path fill="none" d="M 50.5 56.1 L 151.5 101.1 L 252.5 78.6 L 353.5 11.2 L 454.5 123.6" stroke="black" stroke-width="5"  stroke-linejoin="round" stroke-linecap="round"  stroke-opacity="0.0" transform="translate(1, 1)"></path><path fill="none" d="M 50.5 56.1 L 151.5 101.1 L 252.5 78.6 L 353.5 11.2 L 454.5 123.6" stroke="black" stroke-width="3"  stroke-linejoin="round" stroke-linecap="round"  stroke-opacity="0.0" transform="translate(1, 1)"></path><path fill="none" d="M 50.5 56.1 L 151.5 101.1 L 252.5 78.6 L 353.5 11.2 L 454.5 123.6" stroke="black" stroke-width="1"  stroke-linejoin="round" stroke-linecap="round"  stroke-opacity="0.1" transform="translate(1, 1)"></path><path fill="none" d="M 50.5 56.1 L 151.5 101.1 L 252.5 78.6 L 353.5 11.2 L 454.5 123.6" stroke="#f45b5b" stroke-width="2"  stroke-linejoin="round" stroke-linecap="round"></path><path fill="none" d="M 40.5 56.1 L 50.5 56.1 L 151.5 101.1 L 252.5 78.6 L 353.5 11.2 L 454.5 123.6 L 464.5 123.6" stroke-linejoin="round" visibility="visible" stroke="rgb(192,192,192)" stroke-opacity="0.0" stroke-width="22"  class=" highcharts-tracker" style=""></path></g><g class="highcharts-markers highcharts-tracker" visibility="visible"  transform="translate(69,44) scale(1 1)" clip-path="url(#highcharts-2)" style=""><path fill="#f45b5b" d="M 454 119.6 C 459.3 119.6 459.3 127.6 454 127.6 C 448.6 127.6 448.6 119.6 454 119.6 Z"></path><path fill="#f45b5b" d="M 353 7.2 C 358.3 7.2 358.3 15.2 353 15.2 C 347.6 15.2 347.6 7.2 353 7.2 Z"></path><path fill="#f45b5b" d="M 252 74.6 C 257.3 74.6 257.3 82.6 252 82.6 C 246.6 82.6 246.6 74.6 252 74.6 Z"></path><path fill="#f45b5b" d="M 151 97.1 C 156.3 97.1 156.3 105.1 151 105.1 C 145.6 105.1 145.6 97.1 151 97.1 Z"></path><path fill="#f45b5b" d="M 50 52.1 C 55.3 52.1 55.3 60.1 50 60.1 C 44.6 60.1 44.6 52.1 50 52.1 Z"></path></g><g class="highcharts-series" visibility="visible"  transform="translate(69,44) scale(1 1)" clip-path="url(#highcharts-3)"><path fill="rgb(128,133,233)" fill-opacity="0.7" d="M 50.5 123.6 L 151.5 213.5 L 252.5 236.0 L 353.5 123.6 L 454.5 146.1 L 454.5 168.6 L 50.5 168.6" ></path><path fill="none" d="M 50.5 123.6 L 151.5 213.5 L 252.5 236.0 L 353.5 123.6 L 454.5 146.1" stroke="black" stroke-width="5"  stroke-linejoin="round" stroke-linecap="round"  stroke-opacity="0.0" transform="translate(1, 1)"></path><path fill="none" d="M 50.5 123.6 L 151.5 213.5 L 252.5 236.0 L 353.5 123.6 L 454.5 146.1" stroke="black" stroke-width="3"  stroke-linejoin="round" stroke-linecap="round"  stroke-opacity="0.0" transform="translate(1, 1)"></path><path fill="none" d="M 50.5 123.6 L 151.5 213.5 L 252.5 236.0 L 353.5 123.6 L 454.5 146.1" stroke="black" stroke-width="1"  stroke-linejoin="round" stroke-linecap="round"  stroke-opacity="0.1" transform="translate(1, 1)"></path><path fill="none" d="M 50.5 123.6 L 151.5 213.5 L 252.5 236.0 L 353.5 123.6 L 454.5 146.1" stroke="#8085e9" stroke-width="2"  stroke-linejoin="round" stroke-linecap="round"></path><path fill="none" d="M 40.5 123.6 L 50.5 123.6 L 151.5 213.5 L 252.5 236.0 L 353.5 123.6 L 454.5 146.1 L 464.5 146.1" stroke-linejoin="round" visibility="visible" stroke="rgb(192,192,192)" stroke-opacity="0.0" stroke-width="22"  class=" highcharts-tracker" style=""></path></g><g class="highcharts-markers highcharts-tracker" visibility="visible"  transform="translate(69,44) scale(1 1)" clip-path="url(#highcharts-2)" style=""><path fill="#8085e9" d="M 454 142.1 L 458 146.1 454 150.1 450 146.1 Z"></path><path fill="#8085e9" d="M 353 119.6 L 357 123.6 353 127.6 349 123.6 Z"></path><path fill="#8085e9" d="M 252 232.0 L 256 236.0 252 240.0 248 236.0 Z"></path><path fill="#8085e9" d="M 151 209.5 L 155 213.5 151 217.5 147 213.5 Z"></path><path fill="#8085e9" d="M 50 119.6 L 54 123.6 50 127.6 46 123.6 Z"></path></g><g class="highcharts-series" visibility="visible"  transform="translate(69,44) scale(1 1)" clip-path="url(#highcharts-3)"><path fill="rgb(141,70,84)" fill-opacity="0.7" d="M 50.5 101.1 L 151.5 78.6 L 252.5 78.6 L 353.5 213.5 L 454.5 56.1 L 454.5 168.6 L 50.5 168.6" ></path><path fill="none" d="M 50.5 101.1 L 151.5 78.6 L 252.5 78.6 L 353.5 213.5 L 454.5 56.1" stroke="black" stroke-width="5"  stroke-linejoin="round" stroke-linecap="round"  stroke-opacity="0.0" transform="translate(1, 1)"></path><path fill="none" d="M 50.5 101.1 L 151.5 78.6 L 252.5 78.6 L 353.5 213.5 L 454.5 56.1" stroke="black" stroke-width="3"  stroke-linejoin="round" stroke-linecap="round"  stroke-opacity="0.0" transform="translate(1, 1)"></path><path fill="none" d="M 50.5 101.1 L 151.5 78.6 L 252.5 78.6 L 353.5 213.5 L 454.5 56.1" stroke="black" stroke-width="1"  stroke-linejoin="round" stroke-linecap="round"  stroke-opacity="0.1" transform="translate(1, 1)"></path><path fill="none" d="M 50.5 101.1 L 151.5 78.6 L 252.5 78.6 L 353.5 213.5 L 454.5 56.1" stroke="#8d4654" stroke-width="2"  stroke-linejoin="round" stroke-linecap="round"></path><path fill="none" d="M 40.5 101.1 L 50.5 101.1 L 151.5 78.6 L 252.5 78.6 L 353.5 213.5 L 454.5 56.1 L 464.5 56.1" stroke-linejoin="round" visibility="visible" stroke="rgb(192,192,192)" stroke-opacity="0.0" stroke-width="22"  class=" highcharts-tracker" style=""></path></g><g class="highcharts-markers highcharts-tracker" visibility="visible"  transform="translate(69,44) scale(1 1)" clip-path="url(#highcharts-2)" style=""><path fill="#8d4654" d="M 450 52.1 L 458 52.1 458 60.1 450 60.1 Z"></path><path fill="#8d4654" d="M 349 209.5 L 357 209.5 357 217.5 349 217.5 Z"></path><path fill="#8d4654" d="M 248 74.6 L 256 74.6 256 82.6 248 82.6 Z"></path><path fill="#8d4654" d="M 147 74.6 L 155 74.6 155 82.6 147 82.6 Z"></path><path fill="#8d4654" d="M 46 97.1 L 54 97.1 54 105.1 46 105.1 Z"></path></g></g><text x="292" text-anchor="middle" class="highcharts-title"  style="color:black;font-size:16px;font-weight:bold;fill:black;width:520px;" y="22"><tspan>Area chart with negative values</tspan></text><g class="highcharts-legend"  transform="translate(192,358)"><g ><g><g class="highcharts-legend-item"  transform="translate(8,3)"><text x="21" style="color:#333333;font-size:13px;font-weight:bold;cursor:pointer;fill:#333333;" text-anchor="start"  y="16">John</text><rect x="0" y="5" width="16" height="12"  fill="#f45b5b"></rect></g><g class="highcharts-legend-item"  transform="translate(79,3)"><text x="21" y="16" style="color:#333333;font-size:13px;font-weight:bold;cursor:pointer;fill:#333333;" text-anchor="start" >Jane</text><rect x="0" y="5" width="16" height="12"  fill="#8085e9"></rect></g><g class="highcharts-legend-item"  transform="translate(150,3)"><text x="21" y="16" style="color:#333333;font-size:13px;font-weight:bold;cursor:pointer;fill:#333333;" text-anchor="start" >Joe</text><rect x="0" y="5" width="16" height="12"  fill="#8d4654"></rect></g></g></g></g><g class="highcharts-axis-labels highcharts-xaxis-labels" ><text x="119.5" style="color:#6e6e70;cursor:default;font-size:11px;fill:#6e6e70;width:103px;text-overflow:clip;" text-anchor="middle" transform="translate(0,0)" y="344" opacity="1">Apples</text><text x="220.5" style="color:#6e6e70;cursor:default;font-size:11px;fill:#6e6e70;width:103px;text-overflow:clip;" text-anchor="middle" transform="translate(0,0)" y="344" opacity="1">Oranges</text><text x="321.5" style="color:#6e6e70;cursor:default;font-size:11px;fill:#6e6e70;width:103px;text-overflow:clip;" text-anchor="middle" transform="translate(0,0)" y="344" opacity="1">Pears</text><text x="422.5" style="color:#6e6e70;cursor:default;font-size:11px;fill:#6e6e70;width:103px;text-overflow:clip;" text-anchor="middle" transform="translate(0,0)" y="344" opacity="1">Grapes</text><text x="523.5" style="color:#6e6e70;cursor:default;font-size:11px;fill:#6e6e70;width:103px;text-overflow:clip;" text-anchor="middle" transform="translate(0,0)" y="344" opacity="1">Bananas</text></g><g class="highcharts-axis-labels highcharts-yaxis-labels" ><text x="54" style="color:#6e6e70;cursor:default;font-size:11px;fill:#6e6e70;width:183px;text-overflow:clip;" text-anchor="end" transform="translate(0,0)" y="330" opacity="1">-5</text><text x="54" style="color:#6e6e70;cursor:default;font-size:11px;fill:#6e6e70;width:183px;text-overflow:clip;" text-anchor="end" transform="translate(0,0)" y="273" opacity="1">-2.5</text><text x="54" style="color:#6e6e70;cursor:default;font-size:11px;fill:#6e6e70;width:183px;text-overflow:clip;" text-anchor="end" transform="translate(0,0)" y="217" opacity="1">0</text><text x="54" style="color:#6e6e70;cursor:default;font-size:11px;fill:#6e6e70;width:183px;text-overflow:clip;" text-anchor="end" transform="translate(0,0)" y="161" opacity="1">2.5</text><text x="54" style="color:#6e6e70;cursor:default;font-size:11px;fill:#6e6e70;width:183px;text-overflow:clip;" text-anchor="end" transform="translate(0,0)" y="105" opacity="1">5</text><text x="54" style="color:#6e6e70;cursor:default;font-size:11px;fill:#6e6e70;width:183px;text-overflow:clip;" text-anchor="end" transform="translate(0,0)" y="49" opacity="1">7.5</text></g><g class="highcharts-tooltip"  style="cursor:default;padding:0;white-space:nowrap;" transform="translate(0,-9999)"><path fill="none" d="M 3 0 L 13 0 C 16 0 16 0 16 3 L 16 13 C 16 16 16 16 13 16 L 3 16 C 0 16 0 16 0 13 L 0 3 C 0 0 0 0 3 0"  stroke="black" stroke-opacity="0.0" stroke-width="5" transform="translate(1, 1)"></path><path fill="none" d="M 3 0 L 13 0 C 16 0 16 0 16 3 L 16 13 C 16 16 16 16 13 16 L 3 16 C 0 16 0 16 0 13 L 0 3 C 0 0 0 0 3 0"  stroke="black" stroke-opacity="0.0" stroke-width="3" transform="translate(1, 1)"></path><path fill="none" d="M 3 0 L 13 0 C 16 0 16 0 16 3 L 16 13 C 16 16 16 16 13 16 L 3 16 C 0 16 0 16 0 13 L 0 3 C 0 0 0 0 3 0"  stroke="black" stroke-opacity="0.1" stroke-width="1" transform="translate(1, 1)"></path><path fill="rgb(249, 249, 249)" fill-opacity=" .85" d="M 3 0 L 13 0 C 16 0 16 0 16 3 L 16 13 C 16 16 16 16 13 16 L 3 16 C 0 16 0 16 0 13 L 0 3 C 0 0 0 0 3 0"></path><text x="8"  style="font-size:12px;color:#333333;fill:#333333;" transform="translate(0,20)"></text></g></svg>