<svg version="1.1" style="font-family: signika, serif; font-size: 12px; background-image: url(http://www.highcharts.com/samples/graphics/sand.png); background-attachment: initial; background-origin: initial; background-clip: initial; background-color: initial; background-position: initial initial; background-repeat: initial initial; " xmlns="http://www.w3.org/2000/svg" width="584" height="400" viewBox="0 0 584 400" xmlns:xlink="http://www.w3.org/1999/xlink"><style type="text/css"><![CDATA[@import url(http://fonts.googleapis.com/css?family=Signika:700);]]></style><desc>Created with Highcharts 4.1.4</desc><defs><clipPath id="highcharts-1"><rect x="0" y="0" width="508" height="267"></rect></clipPath><clipPath id="highcharts-2"><rect x="-99" y="-58" width="607" height="400"></rect></clipPath><clipPath id="highcharts-3"><rect x="0" y="0" width="508" height="267"></rect></clipPath></defs><g class="highcharts-grid" ></g><g class="highcharts-grid" ><path fill="none" d="M 66 325.5 L 574 325.5" stroke="#D8D8D8" stroke-width="1"  opacity="1"></path><path fill="none" d="M 66 272.5 L 574 272.5" stroke="#D8D8D8" stroke-width="1"  opacity="1"></path><path fill="none" d="M 66 218.5 L 574 218.5" stroke="#D8D8D8" stroke-width="1"  opacity="1"></path><path fill="none" d="M 66 165.5 L 574 165.5" stroke="#D8D8D8" stroke-width="1"  opacity="1"></path><path fill="none" d="M 66 111.5 L 574 111.5" stroke="#D8D8D8" stroke-width="1"  opacity="1"></path><path fill="none" d="M 66 57.5 L 574 57.5" stroke="#D8D8D8" stroke-width="1"  opacity="1"></path></g><g class="highcharts-axis" ><path fill="none" d="M 70.5 325 L 70.5 335" stroke="#C0D0E0" stroke-width="1" opacity="1"></path><path fill="none" d="M 145.5 325 L 145.5 335" stroke="#C0D0E0" stroke-width="1" opacity="1"></path><path fill="none" d="M 221.5 325 L 221.5 335" stroke="#C0D0E0" stroke-width="1" opacity="1"></path><path fill="none" d="M 296.5 325 L 296.5 335" stroke="#C0D0E0" stroke-width="1" opacity="1"></path><path fill="none" d="M 372.5 325 L 372.5 335" stroke="#C0D0E0" stroke-width="1" opacity="1"></path><path fill="none" d="M 447.5 325 L 447.5 335" stroke="#C0D0E0" stroke-width="1" opacity="1"></path><path fill="none" d="M 523.5 325 L 523.5 335" stroke="#C0D0E0" stroke-width="1" opacity="1"></path><path fill="none" d="M 66 325.5 L 574 325.5" stroke="#C0D0E0" stroke-width="1"  visibility="visible"></path></g><g class="highcharts-axis" ><text x="24"  text-anchor="middle" transform="translate(0,0) rotate(270 24 191.5)" class=" highcharts-yaxis-title" style="color:#707070;fill:#707070;" visibility="visible" y="191.5"><tspan>Nuclear weapon states</tspan></text></g><g class="highcharts-series-group" ><g class="highcharts-series" visibility="visible"  transform="translate(66,58) scale(1 1)" clip-path="url(#highcharts-3)"><path fill="rgb(244,91,91)" fill-opacity="0.7" d="M 42.7 266.9 L 50.2 266.9 L 57.8 266.8 L 65.3 266.4 L 72.8 265.7 L 80.4 265.0 L 87.9 263.5 L 95.5 261.6 L 103.0 259.3 L 110.6 255.9 L 118.1 250.6 L 125.7 242.3 L 133.2 232.5 L 140.8 214.5 L 148.3 184.4 L 155.9 157.8 L 163.4 138.1 L 170.9 120.7 L 178.5 109.6 L 186.0 101.1 L 193.6 96.2 L 201.1 95.9 L 208.7 100.2 L 216.2 110.9 L 223.8 120.9 L 231.3 124.6 L 238.9 123.0 L 246.4 117.9 L 254 112.1 L 261.5 112.3 L 269.0 118.4 L 276.6 130.4 L 284.1 129.6 L 291.7 134.4 L 299.2 135.6 L 306.8 137.2 L 314.3 141.7 L 321.9 140.3 L 329.4 138.3 L 337.0 136.9 L 344.5 137.5 L 352.0 136.6 L 359.6 137.0 L 367.1 141.0 L 374.7 147.4 L 382.2 154.8 L 389.8 174.6 L 397.3 188.2 L 404.9 197.1 L 412.4 199.9 L 420.0 202.1 L 427.5 208.2 L 435.1 208.5 L 442.6 208.9 L 450.1 209.1 L 457.7 210.5 L 465.2 210.7 L 472.8 211.0 L 480.3 211.3 L 487.9 211.6 L 495.4 212.0 L 503.0 213.0 L 503.0 267 L 42.7 267" ></path><path fill="none" d="M 42.7 266.9 L 50.2 266.9 L 57.8 266.8 L 65.3 266.4 L 72.8 265.7 L 80.4 265.0 L 87.9 263.5 L 95.5 261.6 L 103.0 259.3 L 110.6 255.9 L 118.1 250.6 L 125.7 242.3 L 133.2 232.5 L 140.8 214.5 L 148.3 184.4 L 155.9 157.8 L 163.4 138.1 L 170.9 120.7 L 178.5 109.6 L 186.0 101.1 L 193.6 96.2 L 201.1 95.9 L 208.7 100.2 L 216.2 110.9 L 223.8 120.9 L 231.3 124.6 L 238.9 123.0 L 246.4 117.9 L 254 112.1 L 261.5 112.3 L 269.0 118.4 L 276.6 130.4 L 284.1 129.6 L 291.7 134.4 L 299.2 135.6 L 306.8 137.2 L 314.3 141.7 L 321.9 140.3 L 329.4 138.3 L 337.0 136.9 L 344.5 137.5 L 352.0 136.6 L 359.6 137.0 L 367.1 141.0 L 374.7 147.4 L 382.2 154.8 L 389.8 174.6 L 397.3 188.2 L 404.9 197.1 L 412.4 199.9 L 420.0 202.1 L 427.5 208.2 L 435.1 208.5 L 442.6 208.9 L 450.1 209.1 L 457.7 210.5 L 465.2 210.7 L 472.8 211.0 L 480.3 211.3 L 487.9 211.6 L 495.4 212.0 L 503.0 213.0" stroke="black" stroke-width="5"  stroke-linejoin="round" stroke-linecap="round"  stroke-opacity="0.0" transform="translate(1, 1)"></path><path fill="none" d="M 42.7 266.9 L 50.2 266.9 L 57.8 266.8 L 65.3 266.4 L 72.8 265.7 L 80.4 265.0 L 87.9 263.5 L 95.5 261.6 L 103.0 259.3 L 110.6 255.9 L 118.1 250.6 L 125.7 242.3 L 133.2 232.5 L 140.8 214.5 L 148.3 184.4 L 155.9 157.8 L 163.4 138.1 L 170.9 120.7 L 178.5 109.6 L 186.0 101.1 L 193.6 96.2 L 201.1 95.9 L 208.7 100.2 L 216.2 110.9 L 223.8 120.9 L 231.3 124.6 L 238.9 123.0 L 246.4 117.9 L 254 112.1 L 261.5 112.3 L 269.0 118.4 L 276.6 130.4 L 284.1 129.6 L 291.7 134.4 L 299.2 135.6 L 306.8 137.2 L 314.3 141.7 L 321.9 140.3 L 329.4 138.3 L 337.0 136.9 L 344.5 137.5 L 352.0 136.6 L 359.6 137.0 L 367.1 141.0 L 374.7 147.4 L 382.2 154.8 L 389.8 174.6 L 397.3 188.2 L 404.9 197.1 L 412.4 199.9 L 420.0 202.1 L 427.5 208.2 L 435.1 208.5 L 442.6 208.9 L 450.1 209.1 L 457.7 210.5 L 465.2 210.7 L 472.8 211.0 L 480.3 211.3 L 487.9 211.6 L 495.4 212.0 L 503.0 213.0" stroke="black" stroke-width="3"  stroke-linejoin="round" stroke-linecap="round"  stroke-opacity="0.0" transform="translate(1, 1)"></path><path fill="none" d="M 42.7 266.9 L 50.2 266.9 L 57.8 266.8 L 65.3 266.4 L 72.8 265.7 L 80.4 265.0 L 87.9 263.5 L 95.5 261.6 L 103.0 259.3 L 110.6 255.9 L 118.1 250.6 L 125.7 242.3 L 133.2 232.5 L 140.8 214.5 L 148.3 184.4 L 155.9 157.8 L 163.4 138.1 L 170.9 120.7 L 178.5 109.6 L 186.0 101.1 L 193.6 96.2 L 201.1 95.9 L 208.7 100.2 L 216.2 110.9 L 223.8 120.9 L 231.3 124.6 L 238.9 123.0 L 246.4 117.9 L 254 112.1 L 261.5 112.3 L 269.0 118.4 L 276.6 130.4 L 284.1 129.6 L 291.7 134.4 L 299.2 135.6 L 306.8 137.2 L 314.3 141.7 L 321.9 140.3 L 329.4 138.3 L 337.0 136.9 L 344.5 137.5 L 352.0 136.6 L 359.6 137.0 L 367.1 141.0 L 374.7 147.4 L 382.2 154.8 L 389.8 174.6 L 397.3 188.2 L 404.9 197.1 L 412.4 199.9 L 420.0 202.1 L 427.5 208.2 L 435.1 208.5 L 442.6 208.9 L 450.1 209.1 L 457.7 210.5 L 465.2 210.7 L 472.8 211.0 L 480.3 211.3 L 487.9 211.6 L 495.4 212.0 L 503.0 213.0" stroke="black" stroke-width="1"  stroke-linejoin="round" stroke-linecap="round"  stroke-opacity="0.1" transform="translate(1, 1)"></path><path fill="none" d="M 42.7 266.9 L 50.2 266.9 L 57.8 266.8 L 65.3 266.4 L 72.8 265.7 L 80.4 265.0 L 87.9 263.5 L 95.5 261.6 L 103.0 259.3 L 110.6 255.9 L 118.1 250.6 L 125.7 242.3 L 133.2 232.5 L 140.8 214.5 L 148.3 184.4 L 155.9 157.8 L 163.4 138.1 L 170.9 120.7 L 178.5 109.6 L 186.0 101.1 L 193.6 96.2 L 201.1 95.9 L 208.7 100.2 L 216.2 110.9 L 223.8 120.9 L 231.3 124.6 L 238.9 123.0 L 246.4 117.9 L 254 112.1 L 261.5 112.3 L 269.0 118.4 L 276.6 130.4 L 284.1 129.6 L 291.7 134.4 L 299.2 135.6 L 306.8 137.2 L 314.3 141.7 L 321.9 140.3 L 329.4 138.3 L 337.0 136.9 L 344.5 137.5 L 352.0 136.6 L 359.6 137.0 L 367.1 141.0 L 374.7 147.4 L 382.2 154.8 L 389.8 174.6 L 397.3 188.2 L 404.9 197.1 L 412.4 199.9 L 420.0 202.1 L 427.5 208.2 L 435.1 208.5 L 442.6 208.9 L 450.1 209.1 L 457.7 210.5 L 465.2 210.7 L 472.8 211.0 L 480.3 211.3 L 487.9 211.6 L 495.4 212.0 L 503.0 213.0" stroke="#f45b5b" stroke-width="2"  stroke-linejoin="round" stroke-linecap="round"></path><path fill="none" d="M 32.7 266.9 L 42.7 266.9 L 50.2 266.9 L 57.8 266.8 L 65.3 266.4 L 72.8 265.7 L 80.4 265.0 L 87.9 263.5 L 95.5 261.6 L 103.0 259.3 L 110.6 255.9 L 118.1 250.6 L 125.7 242.3 L 133.2 232.5 L 140.8 214.5 L 148.3 184.4 L 155.9 157.8 L 163.4 138.1 L 170.9 120.7 L 178.5 109.6 L 186.0 101.1 L 193.6 96.2 L 201.1 95.9 L 208.7 100.2 L 216.2 110.9 L 223.8 120.9 L 231.3 124.6 L 238.9 123.0 L 246.4 117.9 L 254 112.1 L 261.5 112.3 L 269.0 118.4 L 276.6 130.4 L 284.1 129.6 L 291.7 134.4 L 299.2 135.6 L 306.8 137.2 L 314.3 141.7 L 321.9 140.3 L 329.4 138.3 L 337.0 136.9 L 344.5 137.5 L 352.0 136.6 L 359.6 137.0 L 367.1 141.0 L 374.7 147.4 L 382.2 154.8 L 389.8 174.6 L 397.3 188.2 L 404.9 197.1 L 412.4 199.9 L 420.0 202.1 L 427.5 208.2 L 435.1 208.5 L 442.6 208.9 L 450.1 209.1 L 457.7 210.5 L 465.2 210.7 L 472.8 211.0 L 480.3 211.3 L 487.9 211.6 L 495.4 212.0 L 503.0 213.0 L 513.0 213.0" stroke-linejoin="round" visibility="visible" stroke="rgb(192,192,192)" stroke-opacity="0.0" stroke-width="22"  class=" highcharts-tracker" style=""></path></g><g class="highcharts-markers highcharts-tracker" visibility="visible"  transform="translate(66,58) scale(1 1)" clip-path="url(#highcharts-2)" style=""></g><g class="highcharts-series" visibility="visible"  transform="translate(66,58) scale(1 1)" clip-path="url(#highcharts-3)"><path fill="rgb(128,133,233)" fill-opacity="0.7" d="M 80.4 266.9 L 87.9 266.8 L 95.5 266.7 L 103.0 266.3 L 110.6 266.1 L 118.1 265.9 L 125.7 264.7 L 133.2 263.4 L 140.8 262.3 L 148.3 261.3 L 155.9 258.4 L 163.4 253.8 L 170.9 249.2 L 178.5 244.3 L 186.0 239.1 L 193.6 234.2 L 201.1 229.1 L 208.7 222.4 L 216.2 216.8 L 223.8 210.7 L 231.3 204.8 L 238.9 197.0 L 246.4 189.6 L 254 182.0 L 261.5 174.1 L 269.0 165.2 L 276.6 153.7 L 284.1 143.9 L 291.7 131.4 L 299.2 117.8 L 306.8 106.4 L 314.3 95.8 L 321.9 85.6 L 329.4 75.8 L 337.0 67.1 L 344.5 57.6 L 352.0 26.6 L 359.6 37.3 L 367.1 48.0 L 374.7 58.7 L 382.2 69.4 L 389.8 80.1 L 397.3 90.7 L 404.9 101.4 L 412.4 112.1 L 420.0 122.8 L 427.5 133.5 L 435.1 138.8 L 442.6 144.1 L 450.1 149.5 L 457.7 154.8 L 465.2 160.2 L 472.8 165.5 L 480.3 170.8 L 487.9 170.8 L 495.4 176.2 L 503.0 181.5 L 503.0 267 L 80.4 267" ></path><path fill="none" d="M 80.4 266.9 L 87.9 266.8 L 95.5 266.7 L 103.0 266.3 L 110.6 266.1 L 118.1 265.9 L 125.7 264.7 L 133.2 263.4 L 140.8 262.3 L 148.3 261.3 L 155.9 258.4 L 163.4 253.8 L 170.9 249.2 L 178.5 244.3 L 186.0 239.1 L 193.6 234.2 L 201.1 229.1 L 208.7 222.4 L 216.2 216.8 L 223.8 210.7 L 231.3 204.8 L 238.9 197.0 L 246.4 189.6 L 254 182.0 L 261.5 174.1 L 269.0 165.2 L 276.6 153.7 L 284.1 143.9 L 291.7 131.4 L 299.2 117.8 L 306.8 106.4 L 314.3 95.8 L 321.9 85.6 L 329.4 75.8 L 337.0 67.1 L 344.5 57.6 L 352.0 26.6 L 359.6 37.3 L 367.1 48.0 L 374.7 58.7 L 382.2 69.4 L 389.8 80.1 L 397.3 90.7 L 404.9 101.4 L 412.4 112.1 L 420.0 122.8 L 427.5 133.5 L 435.1 138.8 L 442.6 144.1 L 450.1 149.5 L 457.7 154.8 L 465.2 160.2 L 472.8 165.5 L 480.3 170.8 L 487.9 170.8 L 495.4 176.2 L 503.0 181.5" stroke="black" stroke-width="5"  stroke-linejoin="round" stroke-linecap="round"  stroke-opacity="0.0" transform="translate(1, 1)"></path><path fill="none" d="M 80.4 266.9 L 87.9 266.8 L 95.5 266.7 L 103.0 266.3 L 110.6 266.1 L 118.1 265.9 L 125.7 264.7 L 133.2 263.4 L 140.8 262.3 L 148.3 261.3 L 155.9 258.4 L 163.4 253.8 L 170.9 249.2 L 178.5 244.3 L 186.0 239.1 L 193.6 234.2 L 201.1 229.1 L 208.7 222.4 L 216.2 216.8 L 223.8 210.7 L 231.3 204.8 L 238.9 197.0 L 246.4 189.6 L 254 182.0 L 261.5 174.1 L 269.0 165.2 L 276.6 153.7 L 284.1 143.9 L 291.7 131.4 L 299.2 117.8 L 306.8 106.4 L 314.3 95.8 L 321.9 85.6 L 329.4 75.8 L 337.0 67.1 L 344.5 57.6 L 352.0 26.6 L 359.6 37.3 L 367.1 48.0 L 374.7 58.7 L 382.2 69.4 L 389.8 80.1 L 397.3 90.7 L 404.9 101.4 L 412.4 112.1 L 420.0 122.8 L 427.5 133.5 L 435.1 138.8 L 442.6 144.1 L 450.1 149.5 L 457.7 154.8 L 465.2 160.2 L 472.8 165.5 L 480.3 170.8 L 487.9 170.8 L 495.4 176.2 L 503.0 181.5" stroke="black" stroke-width="3"  stroke-linejoin="round" stroke-linecap="round"  stroke-opacity="0.0" transform="translate(1, 1)"></path><path fill="none" d="M 80.4 266.9 L 87.9 266.8 L 95.5 266.7 L 103.0 266.3 L 110.6 266.1 L 118.1 265.9 L 125.7 264.7 L 133.2 263.4 L 140.8 262.3 L 148.3 261.3 L 155.9 258.4 L 163.4 253.8 L 170.9 249.2 L 178.5 244.3 L 186.0 239.1 L 193.6 234.2 L 201.1 229.1 L 208.7 222.4 L 216.2 216.8 L 223.8 210.7 L 231.3 204.8 L 238.9 197.0 L 246.4 189.6 L 254 182.0 L 261.5 174.1 L 269.0 165.2 L 276.6 153.7 L 284.1 143.9 L 291.7 131.4 L 299.2 117.8 L 306.8 106.4 L 314.3 95.8 L 321.9 85.6 L 329.4 75.8 L 337.0 67.1 L 344.5 57.6 L 352.0 26.6 L 359.6 37.3 L 367.1 48.0 L 374.7 58.7 L 382.2 69.4 L 389.8 80.1 L 397.3 90.7 L 404.9 101.4 L 412.4 112.1 L 420.0 122.8 L 427.5 133.5 L 435.1 138.8 L 442.6 144.1 L 450.1 149.5 L 457.7 154.8 L 465.2 160.2 L 472.8 165.5 L 480.3 170.8 L 487.9 170.8 L 495.4 176.2 L 503.0 181.5" stroke="black" stroke-width="1"  stroke-linejoin="round" stroke-linecap="round"  stroke-opacity="0.1" transform="translate(1, 1)"></path><path fill="none" d="M 80.4 266.9 L 87.9 266.8 L 95.5 266.7 L 103.0 266.3 L 110.6 266.1 L 118.1 265.9 L 125.7 264.7 L 133.2 263.4 L 140.8 262.3 L 148.3 261.3 L 155.9 258.4 L 163.4 253.8 L 170.9 249.2 L 178.5 244.3 L 186.0 239.1 L 193.6 234.2 L 201.1 229.1 L 208.7 222.4 L 216.2 216.8 L 223.8 210.7 L 231.3 204.8 L 238.9 197.0 L 246.4 189.6 L 254 182.0 L 261.5 174.1 L 269.0 165.2 L 276.6 153.7 L 284.1 143.9 L 291.7 131.4 L 299.2 117.8 L 306.8 106.4 L 314.3 95.8 L 321.9 85.6 L 329.4 75.8 L 337.0 67.1 L 344.5 57.6 L 352.0 26.6 L 359.6 37.3 L 367.1 48.0 L 374.7 58.7 L 382.2 69.4 L 389.8 80.1 L 397.3 90.7 L 404.9 101.4 L 412.4 112.1 L 420.0 122.8 L 427.5 133.5 L 435.1 138.8 L 442.6 144.1 L 450.1 149.5 L 457.7 154.8 L 465.2 160.2 L 472.8 165.5 L 480.3 170.8 L 487.9 170.8 L 495.4 176.2 L 503.0 181.5" stroke="#8085e9" stroke-width="2"  stroke-linejoin="round" stroke-linecap="round"></path><path fill="none" d="M 70.4 266.9 L 80.4 266.9 L 87.9 266.8 L 95.5 266.7 L 103.0 266.3 L 110.6 266.1 L 118.1 265.9 L 125.7 264.7 L 133.2 263.4 L 140.8 262.3 L 148.3 261.3 L 155.9 258.4 L 163.4 253.8 L 170.9 249.2 L 178.5 244.3 L 186.0 239.1 L 193.6 234.2 L 201.1 229.1 L 208.7 222.4 L 216.2 216.8 L 223.8 210.7 L 231.3 204.8 L 238.9 197.0 L 246.4 189.6 L 254 182.0 L 261.5 174.1 L 269.0 165.2 L 276.6 153.7 L 284.1 143.9 L 291.7 131.4 L 299.2 117.8 L 306.8 106.4 L 314.3 95.8 L 321.9 85.6 L 329.4 75.8 L 337.0 67.1 L 344.5 57.6 L 352.0 26.6 L 359.6 37.3 L 367.1 48.0 L 374.7 58.7 L 382.2 69.4 L 389.8 80.1 L 397.3 90.7 L 404.9 101.4 L 412.4 112.1 L 420.0 122.8 L 427.5 133.5 L 435.1 138.8 L 442.6 144.1 L 450.1 149.5 L 457.7 154.8 L 465.2 160.2 L 472.8 165.5 L 480.3 170.8 L 487.9 170.8 L 495.4 176.2 L 503.0 181.5 L 513.0 181.5" stroke-linejoin="round" visibility="visible" stroke="rgb(192,192,192)" stroke-opacity="0.0" stroke-width="22"  class=" highcharts-tracker" style=""></path></g><g class="highcharts-markers highcharts-tracker" visibility="visible"  transform="translate(66,58) scale(1 1)" clip-path="url(#highcharts-2)" style=""></g></g><text x="292" text-anchor="middle" class="highcharts-title"  style="color:black;font-size:16px;font-weight:bold;fill:black;width:520px;" y="22"><tspan>US and USSR nuclear stockpiles</tspan></text><text x="292" text-anchor="middle" class="highcharts-subtitle"  style="color:black;fill:black;width:520px;" y="43"><tspan>Source: </tspan><tspan onclick="location.href=&quot;http://thebulletin.metapress.com/content/c4120650912x74k7/fulltext.pdf&quot;" style="cursor: pointer; " dx="0">thebulletin.metapress.com</tspan></text><g class="highcharts-legend"  transform="translate(199,358)"><g ><g><g class="highcharts-legend-item"  transform="translate(8,3)"><text x="21" style="color:#333333;font-size:13px;font-weight:bold;cursor:pointer;fill:#333333;" text-anchor="start"  y="16">USA</text><rect x="0" y="5" width="16" height="12"  fill="#f45b5b"></rect></g><g class="highcharts-legend-item"  transform="translate(75,3)"><text x="21" y="16" style="color:#333333;font-size:13px;font-weight:bold;cursor:pointer;fill:#333333;" text-anchor="start" >USSR/Russia</text><rect x="0" y="5" width="16" height="12"  fill="#8085e9"></rect></g></g></g></g><g class="highcharts-axis-labels highcharts-xaxis-labels" ><text x="70.9" style="color:#6e6e70;cursor:default;font-size:11px;fill:#6e6e70;width:71px;text-overflow:clip;" text-anchor="middle" transform="translate(0,0)" y="344" opacity="1">1940</text><text x="146.4" style="color:#6e6e70;cursor:default;font-size:11px;fill:#6e6e70;width:71px;text-overflow:clip;" text-anchor="middle" transform="translate(0,0)" y="344" opacity="1">1950</text><text x="221.9" style="color:#6e6e70;cursor:default;font-size:11px;fill:#6e6e70;width:71px;text-overflow:clip;" text-anchor="middle" transform="translate(0,0)" y="344" opacity="1">1960</text><text x="297.3" style="color:#6e6e70;cursor:default;font-size:11px;fill:#6e6e70;width:71px;text-overflow:clip;" text-anchor="middle" transform="translate(0,0)" y="344" opacity="1">1970</text><text x="372.8" style="color:#6e6e70;cursor:default;font-size:11px;fill:#6e6e70;width:71px;text-overflow:clip;" text-anchor="middle" transform="translate(0,0)" y="344" opacity="1">1980</text><text x="448.2" style="color:#6e6e70;cursor:default;font-size:11px;fill:#6e6e70;width:71px;text-overflow:clip;" text-anchor="middle" transform="translate(0,0)" y="344" opacity="1">1990</text><text x="523.7" style="color:#6e6e70;cursor:default;font-size:11px;fill:#6e6e70;width:71px;text-overflow:clip;" text-anchor="middle" transform="translate(0,0)" y="344" opacity="1">2000</text></g><g class="highcharts-axis-labels highcharts-yaxis-labels" ><text x="51" style="color:#6e6e70;cursor:default;font-size:11px;fill:#6e6e70;width:183px;text-overflow:clip;" text-anchor="end" transform="translate(0,0)" y="330" opacity="1">0k</text><text x="51" style="color:#6e6e70;cursor:default;font-size:11px;fill:#6e6e70;width:183px;text-overflow:clip;" text-anchor="end" transform="translate(0,0)" y="276" opacity="1">10k</text><text x="51" style="color:#6e6e70;cursor:default;font-size:11px;fill:#6e6e70;width:183px;text-overflow:clip;" text-anchor="end" transform="translate(0,0)" y="223" opacity="1">20k</text><text x="51" style="color:#6e6e70;cursor:default;font-size:11px;fill:#6e6e70;width:183px;text-overflow:clip;" text-anchor="end" transform="translate(0,0)" y="169" opacity="1">30k</text><text x="51" style="color:#6e6e70;cursor:default;font-size:11px;fill:#6e6e70;width:183px;text-overflow:clip;" text-anchor="end" transform="translate(0,0)" y="116" opacity="1">40k</text><text x="51" style="color:#6e6e70;cursor:default;font-size:11px;fill:#6e6e70;width:183px;text-overflow:clip;" text-anchor="end" transform="translate(0,0)" y="63" opacity="1">50k</text></g><g class="highcharts-tooltip"  style="cursor:default;padding:0;white-space:nowrap;" transform="translate(0,-9999)"><path fill="none" d="M 3 0 L 13 0 C 16 0 16 0 16 3 L 16 13 C 16 16 16 16 13 16 L 3 16 C 0 16 0 16 0 13 L 0 3 C 0 0 0 0 3 0"  stroke="black" stroke-opacity="0.0" stroke-width="5" transform="translate(1, 1)"></path><path fill="none" d="M 3 0 L 13 0 C 16 0 16 0 16 3 L 16 13 C 16 16 16 16 13 16 L 3 16 C 0 16 0 16 0 13 L 0 3 C 0 0 0 0 3 0"  stroke="black" stroke-opacity="0.0" stroke-width="3" transform="translate(1, 1)"></path><path fill="none" d="M 3 0 L 13 0 C 16 0 16 0 16 3 L 16 13 C 16 16 16 16 13 16 L 3 16 C 0 16 0 16 0 13 L 0 3 C 0 0 0 0 3 0"  stroke="black" stroke-opacity="0.1" stroke-width="1" transform="translate(1, 1)"></path><path fill="rgb(249, 249, 249)" fill-opacity=" .85" d="M 3 0 L 13 0 C 16 0 16 0 16 3 L 16 13 C 16 16 16 16 13 16 L 3 16 C 0 16 0 16 0 13 L 0 3 C 0 0 0 0 3 0"></path><text x="8"  style="font-size:12px;color:#333333;fill:#333333;" transform="translate(0,20)"></text></g></svg>