<svg version="1.1" style="font-family: signika, serif; font-size: 12px; background-image: url(http://www.highcharts.com/samples/graphics/sand.png); background-attachment: initial; background-origin: initial; background-clip: initial; background-color: initial; background-position: initial initial; background-repeat: initial initial; " xmlns="http://www.w3.org/2000/svg" width="584" height="400" viewBox="0 0 584 400" xmlns:xlink="http://www.w3.org/1999/xlink"><style type="text/css"><![CDATA[@import url(http://fonts.googleapis.com/css?family=Signika:700);]]></style><desc>Created with Highcharts 4.1.4</desc><defs><clipPath id="highcharts-1"><rect x="0" y="0" width="503" height="320"></rect></clipPath><clipPath id="highcharts-2"><rect x="-99" y="-44" width="602" height="400"></rect></clipPath><clipPath id="highcharts-3"><rect x="0" y="0" width="503" height="320"></rect></clipPath></defs><path fill="rgb(68, 170, 213)" fill-opacity=" .2" d="M 429.5 44 L 429.5 364 573.5 364 573.5 44"></path><g class="highcharts-grid" ></g><g class="highcharts-grid" ><path fill="none" d="M 71 364.5 L 574 364.5" stroke="#D8D8D8" stroke-width="1"  opacity="1"></path><path fill="none" d="M 71 311.5 L 574 311.5" stroke="#D8D8D8" stroke-width="1"  opacity="1"></path><path fill="none" d="M 71 257.5 L 574 257.5" stroke="#D8D8D8" stroke-width="1"  opacity="1"></path><path fill="none" d="M 71 204.5 L 574 204.5" stroke="#D8D8D8" stroke-width="1"  opacity="1"></path><path fill="none" d="M 71 151.5 L 574 151.5" stroke="#D8D8D8" stroke-width="1"  opacity="1"></path><path fill="none" d="M 71 97.5 L 574 97.5" stroke="#D8D8D8" stroke-width="1"  opacity="1"></path><path fill="none" d="M 71 43.5 L 574 43.5" stroke="#D8D8D8" stroke-width="1"  opacity="1"></path></g><g class="highcharts-axis" ><path fill="none" d="M 142.5 364 L 142.5 374" stroke="#C0D0E0" stroke-width="1" opacity="1"></path><path fill="none" d="M 214.5 364 L 214.5 374" stroke="#C0D0E0" stroke-width="1" opacity="1"></path><path fill="none" d="M 286.5 364 L 286.5 374" stroke="#C0D0E0" stroke-width="1" opacity="1"></path><path fill="none" d="M 357.5 364 L 357.5 374" stroke="#C0D0E0" stroke-width="1" opacity="1"></path><path fill="none" d="M 429.5 364 L 429.5 374" stroke="#C0D0E0" stroke-width="1" opacity="1"></path><path fill="none" d="M 501.5 364 L 501.5 374" stroke="#C0D0E0" stroke-width="1" opacity="1"></path><path fill="none" d="M 574.5 364 L 574.5 374" stroke="#C0D0E0" stroke-width="1" opacity="1"></path><path fill="none" d="M 70.5 364 L 70.5 374" stroke="#C0D0E0" stroke-width="1" opacity="1"></path><path fill="none" d="M 71 364.5 L 574 364.5" stroke="#C0D0E0" stroke-width="1"  visibility="visible"></path></g><g class="highcharts-axis" ><text x="24"  text-anchor="middle" transform="translate(0,0) rotate(270 24 204)" class=" highcharts-yaxis-title" style="color:#707070;fill:#707070;" visibility="visible" y="204"><tspan>Fruit units</tspan></text></g><g class="highcharts-series-group" ><g class="highcharts-series" visibility="visible"  transform="translate(71,44) scale(1 1)" clip-path="url(#highcharts-3)"><path fill="rgb(244,91,91)" fill-opacity="0.5" d="M 35.9 256 C 35.9 256 79.0 234.6 107.7 234.6 C 136.5 234.6 150.9 256 179.6 256 C 208.3 256 222.7 213.3 251.5 213.3 C 280.2 213.3 294.6 234.6 323.3 234.6 C 352.1 234.6 366.4 140.8 395.2 106.6 C 423.9 72.5 467.0 64 467.0 64 L 467.0 320 L 35.9 320" ></path><path fill="none" d="M 35.9 256 C 35.9 256 79.0 234.6 107.7 234.6 C 136.5 234.6 150.9 256 179.6 256 C 208.3 256 222.7 213.3 251.5 213.3 C 280.2 213.3 294.6 234.6 323.3 234.6 C 352.1 234.6 366.4 140.8 395.2 106.6 C 423.9 72.5 467.0 64 467.0 64" stroke="black" stroke-width="5"  stroke-linejoin="round" stroke-linecap="round"  stroke-opacity="0.0" transform="translate(1, 1)"></path><path fill="none" d="M 35.9 256 C 35.9 256 79.0 234.6 107.7 234.6 C 136.5 234.6 150.9 256 179.6 256 C 208.3 256 222.7 213.3 251.5 213.3 C 280.2 213.3 294.6 234.6 323.3 234.6 C 352.1 234.6 366.4 140.8 395.2 106.6 C 423.9 72.5 467.0 64 467.0 64" stroke="black" stroke-width="3"  stroke-linejoin="round" stroke-linecap="round"  stroke-opacity="0.0" transform="translate(1, 1)"></path><path fill="none" d="M 35.9 256 C 35.9 256 79.0 234.6 107.7 234.6 C 136.5 234.6 150.9 256 179.6 256 C 208.3 256 222.7 213.3 251.5 213.3 C 280.2 213.3 294.6 234.6 323.3 234.6 C 352.1 234.6 366.4 140.8 395.2 106.6 C 423.9 72.5 467.0 64 467.0 64" stroke="black" stroke-width="1"  stroke-linejoin="round" stroke-linecap="round"  stroke-opacity="0.1" transform="translate(1, 1)"></path><path fill="none" d="M 35.9 256 C 35.9 256 79.0 234.6 107.7 234.6 C 136.5 234.6 150.9 256 179.6 256 C 208.3 256 222.7 213.3 251.5 213.3 C 280.2 213.3 294.6 234.6 323.3 234.6 C 352.1 234.6 366.4 140.8 395.2 106.6 C 423.9 72.5 467.0 64 467.0 64" stroke="#f45b5b" stroke-width="2"  stroke-linejoin="round" stroke-linecap="round"></path><path fill="none" d="M 25.9 256 L 35.9 256 C 35.9 256 79.0 234.6 107.7 234.6 C 136.5 234.6 150.9 256 179.6 256 C 208.3 256 222.7 213.3 251.5 213.3 C 280.2 213.3 294.6 234.6 323.3 234.6 C 352.1 234.6 366.4 140.8 395.2 106.6 C 423.9 72.5 467.0 64 467.0 64 L 477.0 64" stroke-linejoin="round" visibility="visible" stroke="rgb(192,192,192)" stroke-opacity="0.0" stroke-width="22"  class=" highcharts-tracker" style=""></path></g><g class="highcharts-markers highcharts-tracker" visibility="visible"  transform="translate(71,44) scale(1 1)" clip-path="url(#highcharts-2)" style=""><path fill="#f45b5b" d="M 467 60 C 472.3 60 472.3 68 467 68 C 461.6 68 461.6 60 467 60 Z"></path><path fill="#f45b5b" d="M 395 102.6 C 400.3 102.6 400.3 110.6 395 110.6 C 389.6 110.6 389.6 102.6 395 102.6 Z"></path><path fill="#f45b5b" d="M 323 230.6 C 328.3 230.6 328.3 238.6 323 238.6 C 317.6 238.6 317.6 230.6 323 230.6 Z"></path><path fill="#f45b5b" d="M 251 209.3 C 256.3 209.3 256.3 217.3 251 217.3 C 245.6 217.3 245.6 209.3 251 209.3 Z"></path><path fill="#f45b5b" d="M 179 252 C 184.3 252 184.3 260 179 260 C 173.6 260 173.6 252 179 252 Z"></path><path fill="#f45b5b" d="M 107 230.6 C 112.3 230.6 112.3 238.6 107 238.6 C 101.6 238.6 101.6 230.6 107 230.6 Z"></path><path fill="#f45b5b" d="M 35 252 C 40.3 252 40.3 260 35 260 C 29.6 260 29.6 252 35 252 Z"></path></g><g class="highcharts-series" visibility="visible"  transform="translate(71,44) scale(1 1)" clip-path="url(#highcharts-3)"><path fill="rgb(128,133,233)" fill-opacity="0.5" d="M 35.9 298.6 C 35.9 298.6 79.0 268.8 107.7 256 C 136.5 243.2 150.9 234.6 179.6 234.6 C 208.3 234.6 222.7 256 251.5 256 C 280.2 256 294.6 256 323.3 256 C 352.1 256 366.4 213.3 395.2 213.3 C 423.9 213.3 467.0 234.6 467.0 234.6 L 467.0 320 L 35.9 320" ></path><path fill="none" d="M 35.9 298.6 C 35.9 298.6 79.0 268.8 107.7 256 C 136.5 243.2 150.9 234.6 179.6 234.6 C 208.3 234.6 222.7 256 251.5 256 C 280.2 256 294.6 256 323.3 256 C 352.1 256 366.4 213.3 395.2 213.3 C 423.9 213.3 467.0 234.6 467.0 234.6" stroke="black" stroke-width="5"  stroke-linejoin="round" stroke-linecap="round"  stroke-opacity="0.0" transform="translate(1, 1)"></path><path fill="none" d="M 35.9 298.6 C 35.9 298.6 79.0 268.8 107.7 256 C 136.5 243.2 150.9 234.6 179.6 234.6 C 208.3 234.6 222.7 256 251.5 256 C 280.2 256 294.6 256 323.3 256 C 352.1 256 366.4 213.3 395.2 213.3 C 423.9 213.3 467.0 234.6 467.0 234.6" stroke="black" stroke-width="3"  stroke-linejoin="round" stroke-linecap="round"  stroke-opacity="0.0" transform="translate(1, 1)"></path><path fill="none" d="M 35.9 298.6 C 35.9 298.6 79.0 268.8 107.7 256 C 136.5 243.2 150.9 234.6 179.6 234.6 C 208.3 234.6 222.7 256 251.5 256 C 280.2 256 294.6 256 323.3 256 C 352.1 256 366.4 213.3 395.2 213.3 C 423.9 213.3 467.0 234.6 467.0 234.6" stroke="black" stroke-width="1"  stroke-linejoin="round" stroke-linecap="round"  stroke-opacity="0.1" transform="translate(1, 1)"></path><path fill="none" d="M 35.9 298.6 C 35.9 298.6 79.0 268.8 107.7 256 C 136.5 243.2 150.9 234.6 179.6 234.6 C 208.3 234.6 222.7 256 251.5 256 C 280.2 256 294.6 256 323.3 256 C 352.1 256 366.4 213.3 395.2 213.3 C 423.9 213.3 467.0 234.6 467.0 234.6" stroke="#8085e9" stroke-width="2"  stroke-linejoin="round" stroke-linecap="round"></path><path fill="none" d="M 25.9 298.6 L 35.9 298.6 C 35.9 298.6 79.0 268.8 107.7 256 C 136.5 243.2 150.9 234.6 179.6 234.6 C 208.3 234.6 222.7 256 251.5 256 C 280.2 256 294.6 256 323.3 256 C 352.1 256 366.4 213.3 395.2 213.3 C 423.9 213.3 467.0 234.6 467.0 234.6 L 477.0 234.6" stroke-linejoin="round" visibility="visible" stroke="rgb(192,192,192)" stroke-opacity="0.0" stroke-width="22"  class=" highcharts-tracker" style=""></path></g><g class="highcharts-markers highcharts-tracker" visibility="visible"  transform="translate(71,44) scale(1 1)" clip-path="url(#highcharts-2)" style=""><path fill="#8085e9" d="M 467 230.6 L 471 234.6 467 238.6 463 234.6 Z"></path><path fill="#8085e9" d="M 395 209.3 L 399 213.3 395 217.3 391 213.3 Z"></path><path fill="#8085e9" d="M 323 252 L 327 256 323 260 319 256 Z"></path><path fill="#8085e9" d="M 251 252 L 255 256 251 260 247 256 Z"></path><path fill="#8085e9" d="M 179 230.6 L 183 234.6 179 238.6 175 234.6 Z"></path><path fill="#8085e9" d="M 107 252 L 111 256 107 260 103 256 Z"></path><path fill="#8085e9" d="M 35 294.6 L 39 298.6 35 302.6 31 298.6 Z"></path></g></g><text x="292" text-anchor="middle" class="highcharts-title"  style="color:black;font-size:16px;font-weight:bold;fill:black;width:520px;" y="22"><tspan>Average fruit consumption during one week</tspan></text><g class="highcharts-legend"  transform="translate(160,110)"><rect x="0.5" y="0.5" width="66" height="42" strokeWidth="1" stroke="#909090" stroke-width="1" fill="#FFFFFF" visibility="visible"></rect><g ><g><g class="highcharts-legend-item"  transform="translate(8,3)"><text x="21" style="color:#333333;font-size:13px;font-weight:bold;cursor:pointer;fill:#333333;" text-anchor="start"  y="16">John</text><rect x="0" y="5" width="16" height="12"  fill="#f45b5b"></rect></g><g class="highcharts-legend-item"  transform="translate(8,19)"><text x="21" y="16" style="color:#333333;font-size:13px;font-weight:bold;cursor:pointer;fill:#333333;" text-anchor="start" >Jane</text><rect x="0" y="5" width="16" height="12"  fill="#8085e9"></rect></g></g></g></g><g class="highcharts-axis-labels highcharts-xaxis-labels" ><text x="106.9" style="color:#6e6e70;cursor:default;font-size:11px;fill:#6e6e70;width:71px;text-overflow:clip;" text-anchor="middle" transform="translate(0,0)" y="383" opacity="1">Monday</text><text x="178.7" style="color:#6e6e70;cursor:default;font-size:11px;fill:#6e6e70;width:71px;text-overflow:clip;" text-anchor="middle" transform="translate(0,0)" y="383" opacity="1">Tuesday</text><text x="250.6" style="color:#6e6e70;cursor:default;font-size:11px;fill:#6e6e70;width:71px;text-overflow:clip;" text-anchor="middle" transform="translate(0,0)" y="383" opacity="1">Wednesday</text><text x="322.5" style="color:#6e6e70;cursor:default;font-size:11px;fill:#6e6e70;width:71px;text-overflow:clip;" text-anchor="middle" transform="translate(0,0)" y="383" opacity="1">Thursday</text><text x="394.3" style="color:#6e6e70;cursor:default;font-size:11px;fill:#6e6e70;width:71px;text-overflow:clip;" text-anchor="middle" transform="translate(0,0)" y="383" opacity="1">Friday</text><text x="466.2" style="color:#6e6e70;cursor:default;font-size:11px;fill:#6e6e70;width:71px;text-overflow:clip;" text-anchor="middle" transform="translate(0,0)" y="383" opacity="1">Saturday</text><text x="538.0" style="color:#6e6e70;cursor:default;font-size:11px;fill:#6e6e70;width:71px;text-overflow:clip;" text-anchor="middle" transform="translate(0,0)" y="383" opacity="1">Sunday</text></g><g class="highcharts-axis-labels highcharts-yaxis-labels" ><text x="56" style="color:#6e6e70;cursor:default;font-size:11px;fill:#6e6e70;width:183px;text-overflow:clip;" text-anchor="end" transform="translate(0,0)" y="369" opacity="1">0</text><text x="56" style="color:#6e6e70;cursor:default;font-size:11px;fill:#6e6e70;width:183px;text-overflow:clip;" text-anchor="end" transform="translate(0,0)" y="315" opacity="1">2.5</text><text x="56" style="color:#6e6e70;cursor:default;font-size:11px;fill:#6e6e70;width:183px;text-overflow:clip;" text-anchor="end" transform="translate(0,0)" y="262" opacity="1">5</text><text x="56" style="color:#6e6e70;cursor:default;font-size:11px;fill:#6e6e70;width:183px;text-overflow:clip;" text-anchor="end" transform="translate(0,0)" y="209" opacity="1">7.5</text><text x="56" style="color:#6e6e70;cursor:default;font-size:11px;fill:#6e6e70;width:183px;text-overflow:clip;" text-anchor="end" transform="translate(0,0)" y="155" opacity="1">10</text><text x="56" style="color:#6e6e70;cursor:default;font-size:11px;fill:#6e6e70;width:183px;text-overflow:clip;" text-anchor="end" transform="translate(0,0)" y="102" opacity="1">12.5</text><text x="56" style="color:#6e6e70;cursor:default;font-size:11px;fill:#6e6e70;width:183px;text-overflow:clip;" text-anchor="end" transform="translate(0,0)" y="49" opacity="1">15</text></g><g class="highcharts-tooltip"  style="cursor:default;padding:0;white-space:nowrap;" transform="translate(0,-9999)"><path fill="none" d="M 3 0 L 13 0 C 16 0 16 0 16 3 L 16 13 C 16 16 16 16 13 16 L 3 16 C 0 16 0 16 0 13 L 0 3 C 0 0 0 0 3 0"  stroke="black" stroke-opacity="0.0" stroke-width="5" transform="translate(1, 1)"></path><path fill="none" d="M 3 0 L 13 0 C 16 0 16 0 16 3 L 16 13 C 16 16 16 16 13 16 L 3 16 C 0 16 0 16 0 13 L 0 3 C 0 0 0 0 3 0"  stroke="black" stroke-opacity="0.0" stroke-width="3" transform="translate(1, 1)"></path><path fill="none" d="M 3 0 L 13 0 C 16 0 16 0 16 3 L 16 13 C 16 16 16 16 13 16 L 3 16 C 0 16 0 16 0 13 L 0 3 C 0 0 0 0 3 0"  stroke="black" stroke-opacity="0.1" stroke-width="1" transform="translate(1, 1)"></path><path fill="rgb(249, 249, 249)" fill-opacity=" .85" d="M 3 0 L 13 0 C 16 0 16 0 16 3 L 16 13 C 16 16 16 16 13 16 L 3 16 C 0 16 0 16 0 13 L 0 3 C 0 0 0 0 3 0"></path><text x="8"  style="font-size:12px;color:#333333;fill:#333333;" transform="translate(0,20)"></text></g></svg>