<svg version="1.1" style="font-family: signika, serif; font-size: 12px; background-image: url(http://www.highcharts.com/samples/graphics/sand.png); background-attachment: initial; background-origin: initial; background-clip: initial; background-color: initial; background-position: initial initial; background-repeat: initial initial; " xmlns="http://www.w3.org/2000/svg" width="584" height="400" viewBox="0 0 584 400" xmlns:xlink="http://www.w3.org/1999/xlink"><style type="text/css"><![CDATA[@import url(http://fonts.googleapis.com/css?family=Signika:700);]]></style><desc>Created with Highcharts 4.1.4</desc><defs><clipPath id="highcharts-1"><rect x="0" y="0" width="507" height="248"></rect></clipPath><clipPath id="highcharts-2"><rect x="-99" y="-77" width="606" height="400"></rect></clipPath><clipPath id="highcharts-3"><rect x="0" y="0" width="507" height="248"></rect></clipPath></defs><g class="highcharts-grid" ></g><g class="highcharts-grid" ><path fill="none" d="M 67 325.5 L 574 325.5" stroke="#D8D8D8" stroke-width="1"  opacity="1"></path><path fill="none" d="M 67 263.5 L 574 263.5" stroke="#D8D8D8" stroke-width="1"  opacity="1"></path><path fill="none" d="M 67 201.5 L 574 201.5" stroke="#D8D8D8" stroke-width="1"  opacity="1"></path><path fill="none" d="M 67 139.5 L 574 139.5" stroke="#D8D8D8" stroke-width="1"  opacity="1"></path><path fill="none" d="M 67 76.5 L 574 76.5" stroke="#D8D8D8" stroke-width="1"  opacity="1"></path></g><g class="highcharts-axis" ><path fill="none" d="M 102.5 325 L 102.5 335" stroke="#C0D0E0" stroke-width="1" opacity="1"></path><path fill="none" d="M 175.5 325 L 175.5 335" stroke="#C0D0E0" stroke-width="1" opacity="1"></path><path fill="none" d="M 247.5 325 L 247.5 335" stroke="#C0D0E0" stroke-width="1" opacity="1"></path><path fill="none" d="M 320.5 325 L 320.5 335" stroke="#C0D0E0" stroke-width="1" opacity="1"></path><path fill="none" d="M 392.5 325 L 392.5 335" stroke="#C0D0E0" stroke-width="1" opacity="1"></path><path fill="none" d="M 464.5 325 L 464.5 335" stroke="#C0D0E0" stroke-width="1" opacity="1"></path><path fill="none" d="M 537.5 325 L 537.5 335" stroke="#C0D0E0" stroke-width="1" opacity="1"></path><path fill="none" d="M 67 325.5 L 574 325.5" stroke="#C0D0E0" stroke-width="1"  visibility="visible"></path></g><g class="highcharts-axis" ><text x="24"  text-anchor="middle" transform="translate(0,0) rotate(270 24 201)" class=" highcharts-yaxis-title" style="color:#707070;fill:#707070;" visibility="visible" y="201">Percent</text></g><g class="highcharts-series-group" ><g class="highcharts-series" visibility="visible"  transform="translate(67,77) scale(1 1)" clip-path="url(#highcharts-3)"><path fill="rgb(244,91,91)" fill-opacity="0.7" d="M 36.2 0 L 108.6 0 L 181.0 0 L 253.5 0 L 325.9 0 L 398.3 0 L 470.7 0 470.7 146.6 398.3 150.7 325.9 137.8 253.5 142.3 181.0 160.2 108.6 161.0 36.2 157.3" ></path><path fill="none" d="M 36.2 0 L 108.6 0 L 181.0 0 L 253.5 0 L 325.9 0 L 398.3 0 L 470.7 0" stroke="black" stroke-width="5"  stroke-linejoin="round" stroke-linecap="round"  stroke-opacity="0.0" transform="translate(1, 1)"></path><path fill="none" d="M 36.2 0 L 108.6 0 L 181.0 0 L 253.5 0 L 325.9 0 L 398.3 0 L 470.7 0" stroke="black" stroke-width="3"  stroke-linejoin="round" stroke-linecap="round"  stroke-opacity="0.0" transform="translate(1, 1)"></path><path fill="none" d="M 36.2 0 L 108.6 0 L 181.0 0 L 253.5 0 L 325.9 0 L 398.3 0 L 470.7 0" stroke="black" stroke-width="1"  stroke-linejoin="round" stroke-linecap="round"  stroke-opacity="0.1" transform="translate(1, 1)"></path><path fill="none" d="M 36.2 0 L 108.6 0 L 181.0 0 L 253.5 0 L 325.9 0 L 398.3 0 L 470.7 0" stroke="#ffffff" stroke-width="1"  stroke-linejoin="round" stroke-linecap="round"></path><path fill="none" d="M 26.2 0 L 36.2 0 L 108.6 0 L 181.0 0 L 253.5 0 L 325.9 0 L 398.3 0 L 470.7 0 L 480.7 0" stroke-linejoin="round" visibility="visible" stroke="rgb(192,192,192)" stroke-opacity="0.0" stroke-width="21"  class=" highcharts-tracker" style=""></path></g><g class="highcharts-markers highcharts-tracker" visibility="visible"  transform="translate(67,77) scale(1 1)" clip-path="url(#highcharts-2)" style=""><path fill="#f45b5b" d="M 470 -4 C 475.3 -4 475.3 4 470 4 C 464.6 4 464.6 -4 470 -4 Z" stroke="#ffffff" stroke-width="1"></path><path fill="#f45b5b" d="M 398 -4 C 403.3 -4 403.3 4 398 4 C 392.6 4 392.6 -4 398 -4 Z" stroke="#ffffff" stroke-width="1"></path><path fill="#f45b5b" d="M 325 -4 C 330.3 -4 330.3 4 325 4 C 319.6 4 319.6 -4 325 -4 Z" stroke="#ffffff" stroke-width="1"></path><path fill="#f45b5b" d="M 253 -4 C 258.3 -4 258.3 4 253 4 C 247.6 4 247.6 -4 253 -4 Z" stroke="#ffffff" stroke-width="1"></path><path fill="#f45b5b" d="M 181 -4 C 186.3 -4 186.3 4 181 4 C 175.6 4 175.6 -4 181 -4 Z" stroke="#ffffff" stroke-width="1"></path><path fill="#f45b5b" d="M 108 -4 C 113.3 -4 113.3 4 108 4 C 102.6 4 102.6 -4 108 -4 Z" stroke="#ffffff" stroke-width="1"></path><path fill="#f45b5b" d="M 36 -4 C 41.3 -4 41.3 4 36 4 C 30.6 4 30.6 -4 36 -4 Z" stroke="#ffffff" stroke-width="1"></path></g><g class="highcharts-series" visibility="visible"  transform="translate(67,77) scale(1 1)" clip-path="url(#highcharts-3)"><path fill="rgb(128,133,233)" fill-opacity="0.7" d="M 36.2 157.3 L 108.6 161.0 L 181.0 160.2 L 253.5 142.3 L 325.9 137.8 L 398.3 150.7 L 470.7 146.6 470.7 195.8 398.3 182.5 325.9 159.5 253.5 162.3 181.0 182.2 108.6 188.1 36.2 190.6" ></path><path fill="none" d="M 36.2 157.3 L 108.6 161.0 L 181.0 160.2 L 253.5 142.3 L 325.9 137.8 L 398.3 150.7 L 470.7 146.6" stroke="black" stroke-width="5"  stroke-linejoin="round" stroke-linecap="round"  stroke-opacity="0.0" transform="translate(1, 1)"></path><path fill="none" d="M 36.2 157.3 L 108.6 161.0 L 181.0 160.2 L 253.5 142.3 L 325.9 137.8 L 398.3 150.7 L 470.7 146.6" stroke="black" stroke-width="3"  stroke-linejoin="round" stroke-linecap="round"  stroke-opacity="0.0" transform="translate(1, 1)"></path><path fill="none" d="M 36.2 157.3 L 108.6 161.0 L 181.0 160.2 L 253.5 142.3 L 325.9 137.8 L 398.3 150.7 L 470.7 146.6" stroke="black" stroke-width="1"  stroke-linejoin="round" stroke-linecap="round"  stroke-opacity="0.1" transform="translate(1, 1)"></path><path fill="none" d="M 36.2 157.3 L 108.6 161.0 L 181.0 160.2 L 253.5 142.3 L 325.9 137.8 L 398.3 150.7 L 470.7 146.6" stroke="#ffffff" stroke-width="1"  stroke-linejoin="round" stroke-linecap="round"></path><path fill="none" d="M 26.2 157.3 L 36.2 157.3 L 108.6 161.0 L 181.0 160.2 L 253.5 142.3 L 325.9 137.8 L 398.3 150.7 L 470.7 146.6 L 480.7 146.6" stroke-linejoin="round" visibility="visible" stroke="rgb(192,192,192)" stroke-opacity="0.0" stroke-width="21"  class=" highcharts-tracker" style=""></path></g><g class="highcharts-markers highcharts-tracker" visibility="visible"  transform="translate(67,77) scale(1 1)" clip-path="url(#highcharts-2)" style=""><path fill="#8085e9" d="M 470 142.6 L 474 146.6 470 150.6 466 146.6 Z" stroke="#ffffff" stroke-width="1"></path><path fill="#8085e9" d="M 398 146.7 L 402 150.7 398 154.7 394 150.7 Z" stroke="#ffffff" stroke-width="1"></path><path fill="#8085e9" d="M 325 133.8 L 329 137.8 325 141.8 321 137.8 Z" stroke="#ffffff" stroke-width="1"></path><path fill="#8085e9" d="M 253 138.3 L 257 142.3 253 146.3 249 142.3 Z" stroke="#ffffff" stroke-width="1"></path><path fill="#8085e9" d="M 181 156.2 L 185 160.2 181 164.2 177 160.2 Z" stroke="#ffffff" stroke-width="1"></path><path fill="#8085e9" d="M 108 157.0 L 112 161.0 108 165.0 104 161.0 Z" stroke="#ffffff" stroke-width="1"></path><path fill="#8085e9" d="M 36 153.3 L 40 157.3 36 161.3 32 157.3 Z" stroke="#ffffff" stroke-width="1"></path></g><g class="highcharts-series" visibility="visible"  transform="translate(67,77) scale(1 1)" clip-path="url(#highcharts-3)"><path fill="rgb(141,70,84)" fill-opacity="0.7" d="M 36.2 190.6 L 108.6 188.1 L 181.0 182.2 L 253.5 162.3 L 325.9 159.5 L 398.3 182.5 L 470.7 195.8 470.7 213.2 398.3 212.8 325.9 213.3 253.5 223.6 181.0 236.9 108.6 239.6 36.2 241.7" ></path><path fill="none" d="M 36.2 190.6 L 108.6 188.1 L 181.0 182.2 L 253.5 162.3 L 325.9 159.5 L 398.3 182.5 L 470.7 195.8" stroke="black" stroke-width="5"  stroke-linejoin="round" stroke-linecap="round"  stroke-opacity="0.0" transform="translate(1, 1)"></path><path fill="none" d="M 36.2 190.6 L 108.6 188.1 L 181.0 182.2 L 253.5 162.3 L 325.9 159.5 L 398.3 182.5 L 470.7 195.8" stroke="black" stroke-width="3"  stroke-linejoin="round" stroke-linecap="round"  stroke-opacity="0.0" transform="translate(1, 1)"></path><path fill="none" d="M 36.2 190.6 L 108.6 188.1 L 181.0 182.2 L 253.5 162.3 L 325.9 159.5 L 398.3 182.5 L 470.7 195.8" stroke="black" stroke-width="1"  stroke-linejoin="round" stroke-linecap="round"  stroke-opacity="0.1" transform="translate(1, 1)"></path><path fill="none" d="M 36.2 190.6 L 108.6 188.1 L 181.0 182.2 L 253.5 162.3 L 325.9 159.5 L 398.3 182.5 L 470.7 195.8" stroke="#ffffff" stroke-width="1"  stroke-linejoin="round" stroke-linecap="round"></path><path fill="none" d="M 26.2 190.6 L 36.2 190.6 L 108.6 188.1 L 181.0 182.2 L 253.5 162.3 L 325.9 159.5 L 398.3 182.5 L 470.7 195.8 L 480.7 195.8" stroke-linejoin="round" visibility="visible" stroke="rgb(192,192,192)" stroke-opacity="0.0" stroke-width="21"  class=" highcharts-tracker" style=""></path></g><g class="highcharts-markers highcharts-tracker" visibility="visible"  transform="translate(67,77) scale(1 1)" clip-path="url(#highcharts-2)" style=""><path fill="#8d4654" d="M 466 191.8 L 474 191.8 474 199.8 466 199.8 Z" stroke="#ffffff" stroke-width="1"></path><path fill="#8d4654" d="M 394 178.5 L 402 178.5 402 186.5 394 186.5 Z" stroke="#ffffff" stroke-width="1"></path><path fill="#8d4654" d="M 321 155.5 L 329 155.5 329 163.5 321 163.5 Z" stroke="#ffffff" stroke-width="1"></path><path fill="#8d4654" d="M 249 158.3 L 257 158.3 257 166.3 249 166.3 Z" stroke="#ffffff" stroke-width="1"></path><path fill="#8d4654" d="M 177 178.2 L 185 178.2 185 186.2 177 186.2 Z" stroke="#ffffff" stroke-width="1"></path><path fill="#8d4654" d="M 104 184.1 L 112 184.1 112 192.1 104 192.1 Z" stroke="#ffffff" stroke-width="1"></path><path fill="#8d4654" d="M 32 186.6 L 40 186.6 40 194.6 32 194.6 Z" stroke="#ffffff" stroke-width="1"></path></g><g class="highcharts-series" visibility="visible"  transform="translate(67,77) scale(1 1)" clip-path="url(#highcharts-3)"><path fill="rgb(119,152,191)" fill-opacity="0.7" d="M 36.2 241.7 L 108.6 239.6 L 181.0 236.9 L 253.5 223.6 L 325.9 213.3 L 398.3 212.8 L 470.7 213.2 470.7 246.7 398.3 246.7 325.9 246.7 253.5 247.0 181.0 247.6 108.6 247.4 36.2 247.3" ></path><path fill="none" d="M 36.2 241.7 L 108.6 239.6 L 181.0 236.9 L 253.5 223.6 L 325.9 213.3 L 398.3 212.8 L 470.7 213.2" stroke="black" stroke-width="5"  stroke-linejoin="round" stroke-linecap="round"  stroke-opacity="0.0" transform="translate(1, 1)"></path><path fill="none" d="M 36.2 241.7 L 108.6 239.6 L 181.0 236.9 L 253.5 223.6 L 325.9 213.3 L 398.3 212.8 L 470.7 213.2" stroke="black" stroke-width="3"  stroke-linejoin="round" stroke-linecap="round"  stroke-opacity="0.0" transform="translate(1, 1)"></path><path fill="none" d="M 36.2 241.7 L 108.6 239.6 L 181.0 236.9 L 253.5 223.6 L 325.9 213.3 L 398.3 212.8 L 470.7 213.2" stroke="black" stroke-width="1"  stroke-linejoin="round" stroke-linecap="round"  stroke-opacity="0.1" transform="translate(1, 1)"></path><path fill="none" d="M 36.2 241.7 L 108.6 239.6 L 181.0 236.9 L 253.5 223.6 L 325.9 213.3 L 398.3 212.8 L 470.7 213.2" stroke="#ffffff" stroke-width="1"  stroke-linejoin="round" stroke-linecap="round"></path><path fill="none" d="M 26.2 241.7 L 36.2 241.7 L 108.6 239.6 L 181.0 236.9 L 253.5 223.6 L 325.9 213.3 L 398.3 212.8 L 470.7 213.2 L 480.7 213.2" stroke-linejoin="round" visibility="visible" stroke="rgb(192,192,192)" stroke-opacity="0.0" stroke-width="21"  class=" highcharts-tracker" style=""></path></g><g class="highcharts-markers highcharts-tracker" visibility="visible"  transform="translate(67,77) scale(1 1)" clip-path="url(#highcharts-2)" style=""><path fill="#7798BF" d="M 470 209.2 L 474 217.2 466 217.2 Z" stroke="#ffffff" stroke-width="1"></path><path fill="#7798BF" d="M 398 208.8 L 402 216.8 394 216.8 Z" stroke="#ffffff" stroke-width="1"></path><path fill="#7798BF" d="M 325 209.3 L 329 217.3 321 217.3 Z" stroke="#ffffff" stroke-width="1"></path><path fill="#7798BF" d="M 253 219.6 L 257 227.6 249 227.6 Z" stroke="#ffffff" stroke-width="1"></path><path fill="#7798BF" d="M 181 232.9 L 185 240.9 177 240.9 Z" stroke="#ffffff" stroke-width="1"></path><path fill="#7798BF" d="M 108 235.6 L 112 243.6 104 243.6 Z" stroke="#ffffff" stroke-width="1"></path><path fill="#7798BF" d="M 36 237.7 L 40 245.7 32 245.7 Z" stroke="#ffffff" stroke-width="1"></path></g><g class="highcharts-series" visibility="visible"  transform="translate(67,77) scale(1 1)" clip-path="url(#highcharts-3)"><path fill="rgb(170,238,238)" fill-opacity="0.7" d="M 36.2 247.3 L 108.6 247.4 L 181.0 247.6 L 253.5 247.0 L 325.9 246.7 L 398.3 246.7 L 470.7 246.7 470.7 248 398.3 248 325.9 248 253.5 248 181.0 248 108.6 248 36.2 248" ></path><path fill="none" d="M 36.2 247.3 L 108.6 247.4 L 181.0 247.6 L 253.5 247.0 L 325.9 246.7 L 398.3 246.7 L 470.7 246.7" stroke="black" stroke-width="5"  stroke-linejoin="round" stroke-linecap="round"  stroke-opacity="0.0" transform="translate(1, 1)"></path><path fill="none" d="M 36.2 247.3 L 108.6 247.4 L 181.0 247.6 L 253.5 247.0 L 325.9 246.7 L 398.3 246.7 L 470.7 246.7" stroke="black" stroke-width="3"  stroke-linejoin="round" stroke-linecap="round"  stroke-opacity="0.0" transform="translate(1, 1)"></path><path fill="none" d="M 36.2 247.3 L 108.6 247.4 L 181.0 247.6 L 253.5 247.0 L 325.9 246.7 L 398.3 246.7 L 470.7 246.7" stroke="black" stroke-width="1"  stroke-linejoin="round" stroke-linecap="round"  stroke-opacity="0.1" transform="translate(1, 1)"></path><path fill="none" d="M 36.2 247.3 L 108.6 247.4 L 181.0 247.6 L 253.5 247.0 L 325.9 246.7 L 398.3 246.7 L 470.7 246.7" stroke="#ffffff" stroke-width="1"  stroke-linejoin="round" stroke-linecap="round"></path><path fill="none" d="M 26.2 247.3 L 36.2 247.3 L 108.6 247.4 L 181.0 247.6 L 253.5 247.0 L 325.9 246.7 L 398.3 246.7 L 470.7 246.7 L 480.7 246.7" stroke-linejoin="round" visibility="visible" stroke="rgb(192,192,192)" stroke-opacity="0.0" stroke-width="21"  class=" highcharts-tracker" style=""></path></g><g class="highcharts-markers highcharts-tracker" visibility="visible"  transform="translate(67,77) scale(1 1)" clip-path="url(#highcharts-2)" style=""><path fill="#aaeeee" d="M 466 242.7 L 474 242.7 470 250.7 Z" stroke="#ffffff" stroke-width="1"></path><path fill="#aaeeee" d="M 394 242.7 L 402 242.7 398 250.7 Z" stroke="#ffffff" stroke-width="1"></path><path fill="#aaeeee" d="M 321 242.7 L 329 242.7 325 250.7 Z" stroke="#ffffff" stroke-width="1"></path><path fill="#aaeeee" d="M 249 243.0 L 257 243.0 253 251.0 Z" stroke="#ffffff" stroke-width="1"></path><path fill="#aaeeee" d="M 177 243.6 L 185 243.6 181 251.6 Z" stroke="#ffffff" stroke-width="1"></path><path fill="#aaeeee" d="M 104 243.4 L 112 243.4 108 251.4 Z" stroke="#ffffff" stroke-width="1"></path><path fill="#aaeeee" d="M 32 243.3 L 40 243.3 36 251.3 Z" stroke="#ffffff" stroke-width="1"></path></g></g><text x="292" text-anchor="middle" class="highcharts-title"  style="color:black;font-size:16px;font-weight:bold;fill:black;width:520px;" y="22"><tspan>Historic and Estimated Worldwide Population Distribution by</tspan><tspan dy="19" x="292">Region</tspan><title>Historic and Estimated Worldwide Population Distribution by Region</title></text><text x="292" text-anchor="middle" class="highcharts-subtitle"  style="color:black;fill:black;width:520px;" y="62"><tspan>Source: Wikipedia.org</tspan></text><g class="highcharts-legend"  transform="translate(84,358)"><g ><g><g class="highcharts-legend-item"  transform="translate(8,3)"><text x="21" style="color:#333333;font-size:13px;font-weight:bold;cursor:pointer;fill:#333333;" text-anchor="start"  y="16">Asia</text><rect x="0" y="5" width="16" height="12"  fill="#f45b5b"></rect></g><g class="highcharts-legend-item"  transform="translate(77,3)"><text x="21" y="16" style="color:#333333;font-size:13px;font-weight:bold;cursor:pointer;fill:#333333;" text-anchor="start" >Africa</text><rect x="0" y="5" width="16" height="12"  fill="#8085e9"></rect></g><g class="highcharts-legend-item"  transform="translate(157,3)"><text x="21" y="16" style="color:#333333;font-size:13px;font-weight:bold;cursor:pointer;fill:#333333;" text-anchor="start" >Europe</text><rect x="0" y="5" width="16" height="12"  fill="#8d4654"></rect></g><g class="highcharts-legend-item"  transform="translate(243,3)"><text x="21" y="16" style="color:#333333;font-size:13px;font-weight:bold;cursor:pointer;fill:#333333;" text-anchor="start" >America</text><rect x="0" y="5" width="16" height="12"  fill="#7798BF"></rect></g><g class="highcharts-legend-item"  transform="translate(337,3)"><text x="21" y="16" style="color:#333333;font-size:13px;font-weight:bold;cursor:pointer;fill:#333333;" text-anchor="start" >Oceania</text><rect x="0" y="5" width="16" height="12"  fill="#aaeeee"></rect></g></g></g></g><g class="highcharts-axis-labels highcharts-xaxis-labels" ><text x="103.2" style="color:#6e6e70;cursor:default;font-size:11px;fill:#6e6e70;width:71px;text-overflow:clip;" text-anchor="middle" transform="translate(0,0)" y="344" opacity="1">1750</text><text x="175.6" style="color:#6e6e70;cursor:default;font-size:11px;fill:#6e6e70;width:71px;text-overflow:clip;" text-anchor="middle" transform="translate(0,0)" y="344" opacity="1">1800</text><text x="248.0" style="color:#6e6e70;cursor:default;font-size:11px;fill:#6e6e70;width:71px;text-overflow:clip;" text-anchor="middle" transform="translate(0,0)" y="344" opacity="1">1850</text><text x="320.5" style="color:#6e6e70;cursor:default;font-size:11px;fill:#6e6e70;width:71px;text-overflow:clip;" text-anchor="middle" transform="translate(0,0)" y="344" opacity="1">1900</text><text x="392.9" style="color:#6e6e70;cursor:default;font-size:11px;fill:#6e6e70;width:71px;text-overflow:clip;" text-anchor="middle" transform="translate(0,0)" y="344" opacity="1">1950</text><text x="465.3" style="color:#6e6e70;cursor:default;font-size:11px;fill:#6e6e70;width:71px;text-overflow:clip;" text-anchor="middle" transform="translate(0,0)" y="344" opacity="1">1999</text><text x="537.7" style="color:#6e6e70;cursor:default;font-size:11px;fill:#6e6e70;width:71px;text-overflow:clip;" text-anchor="middle" transform="translate(0,0)" y="344" opacity="1">2050</text></g><g class="highcharts-axis-labels highcharts-yaxis-labels" ><text x="52" style="color:#6e6e70;cursor:default;font-size:11px;fill:#6e6e70;width:183px;text-overflow:clip;" text-anchor="end" transform="translate(0,0)" y="330" opacity="1">0</text><text x="52" style="color:#6e6e70;cursor:default;font-size:11px;fill:#6e6e70;width:183px;text-overflow:clip;" text-anchor="end" transform="translate(0,0)" y="268" opacity="1">25</text><text x="52" style="color:#6e6e70;cursor:default;font-size:11px;fill:#6e6e70;width:183px;text-overflow:clip;" text-anchor="end" transform="translate(0,0)" y="206" opacity="1">50</text><text x="52" style="color:#6e6e70;cursor:default;font-size:11px;fill:#6e6e70;width:183px;text-overflow:clip;" text-anchor="end" transform="translate(0,0)" y="144" opacity="1">75</text><text x="52" style="color:#6e6e70;cursor:default;font-size:11px;fill:#6e6e70;width:183px;text-overflow:clip;" text-anchor="end" transform="translate(0,0)" y="82" opacity="1">100</text></g><g class="highcharts-tooltip"  style="cursor:default;padding:0;white-space:nowrap;" transform="translate(0,-9999)"><path fill="none" d="M 3 0 L 13 0 C 16 0 16 0 16 3 L 16 13 C 16 16 16 16 13 16 L 3 16 C 0 16 0 16 0 13 L 0 3 C 0 0 0 0 3 0"  stroke="black" stroke-opacity="0.0" stroke-width="5" transform="translate(1, 1)"></path><path fill="none" d="M 3 0 L 13 0 C 16 0 16 0 16 3 L 16 13 C 16 16 16 16 13 16 L 3 16 C 0 16 0 16 0 13 L 0 3 C 0 0 0 0 3 0"  stroke="black" stroke-opacity="0.0" stroke-width="3" transform="translate(1, 1)"></path><path fill="none" d="M 3 0 L 13 0 C 16 0 16 0 16 3 L 16 13 C 16 16 16 16 13 16 L 3 16 C 0 16 0 16 0 13 L 0 3 C 0 0 0 0 3 0"  stroke="black" stroke-opacity="0.1" stroke-width="1" transform="translate(1, 1)"></path><path fill="rgb(249, 249, 249)" fill-opacity=" .85" d="M 3 0 L 13 0 C 16 0 16 0 16 3 L 16 13 C 16 16 16 16 13 16 L 3 16 C 0 16 0 16 0 13 L 0 3 C 0 0 0 0 3 0"></path><text x="8"  style="font-size:12px;color:#333333;fill:#333333;" transform="translate(0,20)"></text></g></svg>