<svg version="1.1" style="font-family: signika, serif; font-size: 12px; background-image: url(http://www.highcharts.com/samples/graphics/sand.png); background-attachment: initial; background-origin: initial; background-clip: initial; background-color: initial; background-position: initial initial; background-repeat: initial initial; " xmlns="http://www.w3.org/2000/svg" width="584" height="400" viewBox="0 0 584 400" xmlns:xlink="http://www.w3.org/1999/xlink"><style type="text/css"><![CDATA[@import url(http://fonts.googleapis.com/css?family=Signika:700);]]></style><desc>Created with Highcharts 4.1.4</desc><defs><clipPath id="highcharts-1"><rect x="0" y="0" width="533" height="320"></rect></clipPath><clipPath id="highcharts-2"><rect x="-99" y="-44" width="632" height="400"></rect></clipPath><clipPath id="highcharts-3"><rect x="0" y="0" width="533" height="320"></rect></clipPath></defs><g class="highcharts-grid" ></g><g class="highcharts-grid" ><path fill="none" d="M 41 364.5 L 574 364.5" stroke="#D8D8D8" stroke-width="1"  opacity="1"></path><path fill="none" d="M 41 311.5 L 574 311.5" stroke="#D8D8D8" stroke-width="1"  opacity="1"></path><path fill="none" d="M 41 257.5 L 574 257.5" stroke="#D8D8D8" stroke-width="1"  opacity="1"></path><path fill="none" d="M 41 204.5 L 574 204.5" stroke="#D8D8D8" stroke-width="1"  opacity="1"></path><path fill="none" d="M 41 151.5 L 574 151.5" stroke="#D8D8D8" stroke-width="1"  opacity="1"></path><path fill="none" d="M 41 97.5 L 574 97.5" stroke="#D8D8D8" stroke-width="1"  opacity="1"></path><path fill="none" d="M 41 43.5 L 574 43.5" stroke="#D8D8D8" stroke-width="1"  opacity="1"></path></g><g class="highcharts-axis" ><path fill="none" d="M 45.5 364 L 45.5 374" stroke="#C0D0E0" stroke-width="1" opacity="1"></path><path fill="none" d="M 130.5 364 L 130.5 374" stroke="#C0D0E0" stroke-width="1" opacity="1"></path><path fill="none" d="M 217.5 364 L 217.5 374" stroke="#C0D0E0" stroke-width="1" opacity="1"></path><path fill="none" d="M 305.5 364 L 305.5 374" stroke="#C0D0E0" stroke-width="1" opacity="1"></path><path fill="none" d="M 394.5 364 L 394.5 374" stroke="#C0D0E0" stroke-width="1" opacity="1"></path><path fill="none" d="M 482.5 364 L 482.5 374" stroke="#C0D0E0" stroke-width="1" opacity="1"></path><path fill="none" d="M 569.5 364 L 569.5 374" stroke="#C0D0E0" stroke-width="1" opacity="1"></path><path fill="none" d="M 41 364.5 L 574 364.5" stroke="#C0D0E0" stroke-width="1"  visibility="visible"></path></g><g class="highcharts-axis" ></g><g class="highcharts-series-group" ><g class="highcharts-series" visibility="visible"  transform="translate(41,44) scale(1 1)" clip-path="url(#highcharts-3)"><path fill="rgb(244,91,91)" fill-opacity="0.7" d="M 5.2 244.2 L 6.6 235.2 L 8.0 216 L 9.5 260.8 L 10.9 265.0 L 12.4 231.4 L 13.8 234.1 L 15.2 226.1 L 16.7 193.0 L 18.1 196.8 L 19.5 213.3 L 21.0 183.4 L 22.4 194.1 L 23.8 232.5 L 25.3 245.3 L 26.7 233.6 L 28.1 205.3 L 29.6 213.3 L 31.0 219.2 L 32.5 210.6 L 33.9 213.3 L 35.3 216.5 L 36.8 209.0 L 38.2 210.1 L 39.6 234.1 L 41.1 236.2 L 42.5 245.8 L 43.9 214.9 L 45.4 228.8 L 46.8 234.6 L 48.2 236.8 L 49.7 240 L 51.1 241.0 L 52.5 246.9 L 54.0 242.1 L 55.4 224.5 L 56.9 237.8 L 58.3 242.1 L 59.7 259.7 L 61.2 241.0 L 62.6 259.2 L 64.0 258.6 L 65.5 238.9 L 66.9 257.6 L 68.3 259.2 L 69.8 230.4 L 71.2 217.0 L 72.6 212.2 L 74.1 213.3 L 75.5 206.9 L 77.0 206.4 L 78.4 208 L 79.8 207.4 L 81.3 208 L 82.7 208.5 L 84.1 205.3 L 85.6 210.6 L 87.0 239.4 L 88.4 242.1 L 89.9 223.4 L 91.3 208.5 L 92.7 204.2 L 94.2 213.3 L 95.6 200 L 97.1 202.1 L 98.5 205.3 L 99.9 210.1 L 101.4 203.2 L 102.8 203.7 L 104.2 212.2 L 105.7 214.9 L 107.1 204.8 L 108.5 215.4 L 110.0 224 L 111.4 201.6 L 112.8 213.3 L 114.3 209.0 L 115.7 222.4 L 117.2 224 L 118.6 214.9 L 120.0 204.2 L 121.5 217.6 L 122.9 232 L 124.3 227.2 L 125.8 217.0 L 127.2 228.2 L 128.6 228.8 L 130.1 211.7 L 131.4 210.6 L 132.9 204.8 L 134.3 220.8 L 135.8 198.4 L 137.2 195.2 L 138.6 210.1 L 140.1 184 L 141.5 195.7 L 142.9 210.1 L 144.4 197.3 L 145.8 178.1 L 147.2 183.4 L 148.7 183.4 L 150.1 191.4 L 151.5 211.2 L 153.0 210.6 L 154.4 193.0 L 155.9 181.3 L 157.3 192.5 L 158.7 209.0 L 160.2 197.8 L 161.6 175.4 L 163.0 200.5 L 164.5 188.2 L 165.9 202.6 L 167.3 162.6 L 168.8 195.2 L 170.2 177.6 L 171.6 187.2 L 173.1 168.5 L 174.5 191.4 L 175.9 178.1 L 177.4 166.9 L 178.8 164.2 L 180.3 180.2 L 181.7 213.3 L 183.1 189.3 L 184.6 196.2 L 186.0 196.8 L 187.4 179.2 L 188.9 186.6 L 190.3 187.7 L 191.7 194.6 L 193.2 189.3 L 194.6 202.6 L 196.0 190.4 L 197.5 189.3 L 198.9 170.6 L 200.4 173.8 L 201.8 168.5 L 203.2 169.0 L 204.7 169.0 L 206.1 177.6 L 207.5 172.8 L 209.0 178.1 L 210.4 166.9 L 211.8 165.8 L 213.3 168.5 L 214.7 181.8 L 216.1 186.1 L 217.6 169.0 L 219.0 180.2 L 220.5 171.7 L 221.9 174.4 L 223.3 166.9 L 224.8 174.4 L 226.2 192.5 L 227.6 179.2 L 229.1 197.8 L 230.5 192.5 L 231.9 178.6 L 233.4 170.6 L 234.8 171.7 L 236.2 167.4 L 237.7 169.6 L 239.1 162.6 L 240.5 182.9 L 242.0 176 L 243.4 190.4 L 244.9 194.1 L 246.3 155.7 L 247.7 167.4 L 249.2 156.2 L 250.6 161.6 L 252.0 161.0 L 253.5 145.0 L 254.9 167.4 L 256.3 155.2 L 257.8 141.3 L 259.2 146.6 L 260.6 138.6 L 262.1 133.8 L 263.5 123.2 L 265.0 137.0 L 266.4 136 L 267.8 130.6 L 269.3 124.2 L 270.7 125.3 L 272.1 118.4 L 273.6 141.3 L 275.0 157.3 L 276.4 164.2 L 277.9 151.4 L 279.3 156.2 L 280.7 154.6 L 282.2 151.4 L 283.6 150.4 L 285.1 146.1 L 286.5 140.8 L 287.9 152.5 L 289.4 142.9 L 290.8 137.6 L 292.2 143.4 L 293.7 148.2 L 295.1 149.3 L 296.5 149.3 L 298.0 145.6 L 299.4 147.2 L 300.8 146.1 L 302.3 149.8 L 303.7 154.6 L 305.2 155.7 L 306.6 150.4 L 308.0 155.7 L 309.5 165.3 L 310.9 154.6 L 312.3 146.1 L 313.8 136 L 315.2 149.8 L 316.6 128 L 318.1 139.7 L 319.5 140.2 L 320.9 140.8 L 322.4 157.3 L 323.8 145.0 L 325.2 149.8 L 326.7 155.2 L 328.1 166.4 L 329.6 174.4 L 331.0 156.2 L 332.4 147.7 L 333.9 160.5 L 335.3 172.2 L 336.7 145.6 L 338.2 145.0 L 339.6 156.8 L 341.0 153.0 L 342.5 153.0 L 342.5 139.7 L 341.0 114.6 L 339.6 118.9 L 338.2 105.0 L 336.7 72 L 335.3 128 L 333.9 115.2 L 332.4 120 L 331.0 138.6 L 329.6 140.8 L 328.1 123.7 L 326.7 125.8 L 325.2 115.2 L 323.8 115.2 L 322.4 94.4 L 320.9 95.4 L 319.5 98.6 L 318.1 81.0 L 316.6 98.6 L 315.2 85.3 L 313.8 92.2 L 312.3 93.3 L 310.9 105.6 L 309.5 107.2 L 308.0 127.4 L 306.6 114.6 L 305.2 118.4 L 303.7 110.4 L 302.3 105.6 L 300.8 107.2 L 299.4 109.8 L 298.0 115.7 L 296.5 122.1 L 295.1 102.4 L 293.7 130.6 L 292.2 122.1 L 290.8 98.1 L 289.4 80 L 287.9 92.8 L 286.5 108.8 L 285.1 93.8 L 283.6 102.9 L 282.2 86.9 L 280.7 89.0 L 279.3 86.9 L 277.9 97.0 L 276.4 86.4 L 275.0 99.2 L 273.6 81.0 L 272.1 76.2 L 270.7 80 L 269.3 49.6 L 267.8 55.4 L 266.4 65.0 L 265.0 65.6 L 263.5 93.3 L 262.1 56 L 260.6 63.4 L 259.2 89.6 L 257.8 64 L 256.3 71.4 L 254.9 84.8 L 253.5 109.3 L 252.0 103.4 L 250.6 112.5 L 249.2 122.6 L 247.7 126.4 L 246.3 133.3 L 244.9 111.4 L 243.4 129.0 L 242.0 123.2 L 240.5 113.6 L 239.1 122.6 L 237.7 116.2 L 236.2 131.7 L 234.8 126.9 L 233.4 137.6 L 231.9 123.7 L 230.5 117.8 L 229.1 117.8 L 227.6 121.0 L 226.2 130.6 L 224.8 139.2 L 223.3 126.9 L 221.9 97.6 L 220.5 92.8 L 219.0 92.8 L 217.6 128 L 216.1 123.2 L 214.7 137.6 L 213.3 152 L 211.8 118.9 L 210.4 118.9 L 209.0 121.0 L 207.5 120 L 206.1 122.6 L 204.7 117.8 L 203.2 132.2 L 201.8 118.9 L 200.4 102.9 L 198.9 102.9 L 197.5 113.0 L 196.0 115.7 L 194.6 122.6 L 193.2 133.3 L 191.7 144 L 190.3 152 L 188.9 141.3 L 187.4 135.4 L 186.0 140.2 L 184.6 137.0 L 183.1 153.6 L 181.7 141.8 L 180.3 144.5 L 178.8 125.8 L 177.4 99.2 L 175.9 107.2 L 174.5 114.1 L 173.1 131.7 L 171.6 129.0 L 170.2 111.4 L 168.8 124.2 L 167.3 120.5 L 165.9 126.4 L 164.5 144.5 L 163.0 144.5 L 161.6 148.2 L 160.2 121.0 L 158.7 137.0 L 157.3 139.2 L 155.9 151.4 L 154.4 130.1 L 153.0 140.8 L 151.5 150.4 L 150.1 160 L 148.7 132.2 L 147.2 158.4 L 145.8 132.2 L 144.4 140.2 L 142.9 141.3 L 141.5 169.0 L 140.1 169.0 L 138.6 141.3 L 137.2 149.3 L 135.8 177.0 L 134.3 174.4 L 132.9 188.2 L 131.4 173.3 L 130.1 176 L 128.6 180.8 L 127.2 181.3 L 125.8 170.6 L 124.3 186.6 L 122.9 182.9 L 121.5 182.9 L 120.0 181.8 L 118.6 182.9 L 117.2 179.7 L 115.7 173.3 L 114.3 163.7 L 112.8 174.9 L 111.4 177.6 L 110.0 184.5 L 108.5 166.4 L 107.1 169.0 L 105.7 181.8 L 104.2 167.4 L 102.8 176 L 101.4 163.2 L 99.9 171.2 L 98.5 176.5 L 97.1 183.4 L 95.6 172.2 L 94.2 164.8 L 92.7 170.1 L 91.3 170.1 L 89.9 192 L 88.4 205.8 L 87.0 193.0 L 85.6 184.5 L 84.1 190.4 L 82.7 193.6 L 81.3 178.6 L 79.8 184 L 78.4 201.0 L 77.0 182.9 L 75.5 189.3 L 74.1 192.5 L 72.6 196.2 L 71.2 191.4 L 69.8 205.3 L 68.3 207.4 L 66.9 205.8 L 65.5 204.2 L 64.0 212.8 L 62.6 225.0 L 61.2 206.4 L 59.7 227.2 L 58.3 210.1 L 56.9 205.3 L 55.4 205.8 L 54.0 216.5 L 52.5 216.5 L 51.1 225.6 L 49.7 227.7 L 48.2 223.4 L 46.8 218.6 L 45.4 198.9 L 43.9 203.2 L 42.5 215.4 L 41.1 202.6 L 39.6 205.8 L 38.2 189.8 L 36.8 188.2 L 35.3 202.1 L 33.9 200 L 32.5 186.1 L 31.0 194.1 L 29.6 189.3 L 28.1 190.9 L 26.7 200.5 L 25.3 221.3 L 23.8 193.0 L 22.4 178.6 L 21.0 163.2 L 19.5 172.8 L 18.1 177.0 L 16.7 176.5 L 15.2 177.6 L 13.8 214.4 L 12.4 196.2 L 10.9 233.0 L 9.5 217.0 L 8.0 191.4 L 6.6 205.8 L 5.2 212.8 M 345.3 160 L 346.8 162.1 L 348.2 145.6 L 349.7 154.1 L 351.1 149.8 L 352.5 155.7 L 354.0 152 L 355.4 160 L 356.8 163.7 L 358.3 154.1 L 359.7 157.8 L 359.7 150.4 L 358.3 117.3 L 356.8 123.7 L 355.4 140.2 L 354.0 134.4 L 352.5 146.1 L 351.1 131.7 L 349.7 122.1 L 348.2 139.7 L 346.8 125.3 L 345.3 132.8 M 362.6 155.7 L 364.0 165.3 L 365.4 152.5 L 366.9 161.6 L 368.3 157.8 L 369.8 160 L 371.2 169.0 L 372.6 180.8 L 374.1 184 L 375.5 168 L 376.9 166.4 L 378.4 163.2 L 379.8 177.6 L 381.2 163.7 L 382.7 168.5 L 384.1 162.6 L 385.5 172.2 L 387.0 175.4 L 388.4 160 L 389.8 139.2 L 391.3 170.6 L 392.7 189.8 L 394.2 188.2 L 394.2 176.5 L 392.7 165.8 L 391.3 132.8 L 389.8 128 L 388.4 129.0 L 387.0 149.8 L 385.5 154.1 L 384.1 132.2 L 382.7 133.3 L 381.2 133.8 L 379.8 122.1 L 378.4 130.1 L 376.9 145.0 L 375.5 140.8 L 374.1 136.5 L 372.6 129.6 L 371.2 120 L 369.8 140.8 L 368.3 138.6 L 366.9 130.1 L 365.4 124.8 L 364.0 143.4 L 362.6 134.9 M 398.5 194.1 L 399.9 197.3 L 401.3 198.4 L 402.8 205.3 L 404.2 210.6 L 405.6 195.7 L 407.1 195.2 L 408.5 209.6 L 409.9 226.6 L 411.4 211.2 L 412.8 212.2 L 414.3 226.6 L 415.7 229.8 L 417.1 201.0 L 418.6 189.8 L 420.0 212.2 L 421.4 219.7 L 422.9 198.4 L 424.3 217.6 L 425.7 208 L 427.2 206.4 L 428.6 197.8 L 430.0 188.2 L 431.5 195.7 L 433.0 213.3 L 434.4 213.3 L 435.8 219.2 L 437.3 220.2 L 438.7 211.7 L 440.2 217.0 L 441.6 189.3 L 443.0 213.3 L 444.5 213.3 L 445.9 213.3 L 447.3 225.0 L 448.8 227.2 L 450.2 222.4 L 451.6 213.3 L 453.1 223.4 L 454.5 227.2 L 455.9 227.2 L 457.4 236.8 L 458.8 241.0 L 458.8 212.2 L 457.4 222.4 L 455.9 206.9 L 454.5 214.4 L 453.1 209.0 L 451.6 185.6 L 450.2 158.4 L 448.8 204.2 L 447.3 185.6 L 445.9 177.6 L 444.5 213.3 L 443.0 189.8 L 441.6 174.4 L 440.2 187.2 L 438.7 190.4 L 437.3 189.3 L 435.8 184.5 L 434.4 202.6 L 433.0 175.4 L 431.5 155.7 L 430.0 165.3 L 428.6 152.5 L 427.2 190.9 L 425.7 161.6 L 424.3 174.9 L 422.9 179.2 L 421.4 174.9 L 420.0 171.7 L 418.6 155.7 L 417.1 168 L 415.7 184.5 L 414.3 185.0 L 412.8 162.1 L 411.4 168 L 409.9 180.2 L 408.5 177.6 L 407.1 185.0 L 405.6 164.8 L 404.2 182.4 L 402.8 173.3 L 401.3 165.3 L 399.9 177.0 L 398.5 194.1 M 461.7 206.4 L 463.1 213.8 L 464.6 204.2 L 466.0 189.3 L 467.4 187.7 L 468.9 187.2 L 470.3 200.5 L 471.7 200.5 L 473.2 203.2 L 474.6 197.8 L 476.0 197.8 L 477.5 192.5 L 478.9 209.0 L 480.4 213.3 L 481.8 205.3 L 483.2 233.6 L 484.7 230.9 L 486.1 228.2 L 487.5 227.7 L 489.0 217.0 L 490.4 211.7 L 491.8 197.8 L 493.3 213.3 L 494.7 210.1 L 496.1 212.8 L 497.6 198.4 L 499.0 219.7 L 500.4 234.6 L 501.9 217.0 L 503.3 210.6 L 504.8 218.6 L 506.2 254.9 L 507.6 276.8 L 509.1 285.3 L 510.5 254.9 L 511.9 273.0 L 513.4 283.2 L 514.8 283.7 L 516.2 271.4 L 517.7 258.1 L 519.1 245.8 L 520.5 227.2 L 522.0 228.8 L 523.4 227.7 L 524.9 270.9 L 526.3 272.5 L 527.7 278.4 L 527.7 248 L 526.3 256 L 524.9 220.2 L 523.4 209.6 L 522.0 209.6 L 520.5 219.7 L 519.1 219.7 L 517.7 221.3 L 516.2 254.4 L 514.8 241.0 L 513.4 251.7 L 511.9 216.5 L 510.5 222.4 L 509.1 255.4 L 507.6 255.4 L 506.2 218.6 L 504.8 205.3 L 503.3 204.8 L 501.9 209.6 L 500.4 215.4 L 499.0 201.6 L 497.6 192.5 L 496.1 186.1 L 494.7 198.4 L 493.3 177.0 L 491.8 161.0 L 490.4 180.8 L 489.0 190.9 L 487.5 193.0 L 486.1 217.0 L 484.7 204.2 L 483.2 205.3 L 481.8 195.2 L 480.4 187.7 L 478.9 182.9 L 477.5 172.8 L 476.0 187.2 L 474.6 182.9 L 473.2 185.6 L 471.7 188.8 L 470.3 167.4 L 468.9 157.8 L 467.4 181.8 L 466.0 179.7 L 464.6 181.8 L 463.1 192.5 L 461.7 165.8" ></path><path fill="none" d="M 5.2 244.2 L 6.6 235.2 L 8.0 216 L 9.5 260.8 L 10.9 265.0 L 12.4 231.4 L 13.8 234.1 L 15.2 226.1 L 16.7 193.0 L 18.1 196.8 L 19.5 213.3 L 21.0 183.4 L 22.4 194.1 L 23.8 232.5 L 25.3 245.3 L 26.7 233.6 L 28.1 205.3 L 29.6 213.3 L 31.0 219.2 L 32.5 210.6 L 33.9 213.3 L 35.3 216.5 L 36.8 209.0 L 38.2 210.1 L 39.6 234.1 L 41.1 236.2 L 42.5 245.8 L 43.9 214.9 L 45.4 228.8 L 46.8 234.6 L 48.2 236.8 L 49.7 240 L 51.1 241.0 L 52.5 246.9 L 54.0 242.1 L 55.4 224.5 L 56.9 237.8 L 58.3 242.1 L 59.7 259.7 L 61.2 241.0 L 62.6 259.2 L 64.0 258.6 L 65.5 238.9 L 66.9 257.6 L 68.3 259.2 L 69.8 230.4 L 71.2 217.0 L 72.6 212.2 L 74.1 213.3 L 75.5 206.9 L 77.0 206.4 L 78.4 208 L 79.8 207.4 L 81.3 208 L 82.7 208.5 L 84.1 205.3 L 85.6 210.6 L 87.0 239.4 L 88.4 242.1 L 89.9 223.4 L 91.3 208.5 L 92.7 204.2 L 94.2 213.3 L 95.6 200 L 97.1 202.1 L 98.5 205.3 L 99.9 210.1 L 101.4 203.2 L 102.8 203.7 L 104.2 212.2 L 105.7 214.9 L 107.1 204.8 L 108.5 215.4 L 110.0 224 L 111.4 201.6 L 112.8 213.3 L 114.3 209.0 L 115.7 222.4 L 117.2 224 L 118.6 214.9 L 120.0 204.2 L 121.5 217.6 L 122.9 232 L 124.3 227.2 L 125.8 217.0 L 127.2 228.2 L 128.6 228.8 L 130.1 211.7 L 131.4 210.6 L 132.9 204.8 L 134.3 220.8 L 135.8 198.4 L 137.2 195.2 L 138.6 210.1 L 140.1 184 L 141.5 195.7 L 142.9 210.1 L 144.4 197.3 L 145.8 178.1 L 147.2 183.4 L 148.7 183.4 L 150.1 191.4 L 151.5 211.2 L 153.0 210.6 L 154.4 193.0 L 155.9 181.3 L 157.3 192.5 L 158.7 209.0 L 160.2 197.8 L 161.6 175.4 L 163.0 200.5 L 164.5 188.2 L 165.9 202.6 L 167.3 162.6 L 168.8 195.2 L 170.2 177.6 L 171.6 187.2 L 173.1 168.5 L 174.5 191.4 L 175.9 178.1 L 177.4 166.9 L 178.8 164.2 L 180.3 180.2 L 181.7 213.3 L 183.1 189.3 L 184.6 196.2 L 186.0 196.8 L 187.4 179.2 L 188.9 186.6 L 190.3 187.7 L 191.7 194.6 L 193.2 189.3 L 194.6 202.6 L 196.0 190.4 L 197.5 189.3 L 198.9 170.6 L 200.4 173.8 L 201.8 168.5 L 203.2 169.0 L 204.7 169.0 L 206.1 177.6 L 207.5 172.8 L 209.0 178.1 L 210.4 166.9 L 211.8 165.8 L 213.3 168.5 L 214.7 181.8 L 216.1 186.1 L 217.6 169.0 L 219.0 180.2 L 220.5 171.7 L 221.9 174.4 L 223.3 166.9 L 224.8 174.4 L 226.2 192.5 L 227.6 179.2 L 229.1 197.8 L 230.5 192.5 L 231.9 178.6 L 233.4 170.6 L 234.8 171.7 L 236.2 167.4 L 237.7 169.6 L 239.1 162.6 L 240.5 182.9 L 242.0 176 L 243.4 190.4 L 244.9 194.1 L 246.3 155.7 L 247.7 167.4 L 249.2 156.2 L 250.6 161.6 L 252.0 161.0 L 253.5 145.0 L 254.9 167.4 L 256.3 155.2 L 257.8 141.3 L 259.2 146.6 L 260.6 138.6 L 262.1 133.8 L 263.5 123.2 L 265.0 137.0 L 266.4 136 L 267.8 130.6 L 269.3 124.2 L 270.7 125.3 L 272.1 118.4 L 273.6 141.3 L 275.0 157.3 L 276.4 164.2 L 277.9 151.4 L 279.3 156.2 L 280.7 154.6 L 282.2 151.4 L 283.6 150.4 L 285.1 146.1 L 286.5 140.8 L 287.9 152.5 L 289.4 142.9 L 290.8 137.6 L 292.2 143.4 L 293.7 148.2 L 295.1 149.3 L 296.5 149.3 L 298.0 145.6 L 299.4 147.2 L 300.8 146.1 L 302.3 149.8 L 303.7 154.6 L 305.2 155.7 L 306.6 150.4 L 308.0 155.7 L 309.5 165.3 L 310.9 154.6 L 312.3 146.1 L 313.8 136 L 315.2 149.8 L 316.6 128 L 318.1 139.7 L 319.5 140.2 L 320.9 140.8 L 322.4 157.3 L 323.8 145.0 L 325.2 149.8 L 326.7 155.2 L 328.1 166.4 L 329.6 174.4 L 331.0 156.2 L 332.4 147.7 L 333.9 160.5 L 335.3 172.2 L 336.7 145.6 L 338.2 145.0 L 339.6 156.8 L 341.0 153.0 L 342.5 153.0 M 342.5 139.7 L 341.0 114.6 L 339.6 118.9 L 338.2 105.0 L 336.7 72 L 335.3 128 L 333.9 115.2 L 332.4 120 L 331.0 138.6 L 329.6 140.8 L 328.1 123.7 L 326.7 125.8 L 325.2 115.2 L 323.8 115.2 L 322.4 94.4 L 320.9 95.4 L 319.5 98.6 L 318.1 81.0 L 316.6 98.6 L 315.2 85.3 L 313.8 92.2 L 312.3 93.3 L 310.9 105.6 L 309.5 107.2 L 308.0 127.4 L 306.6 114.6 L 305.2 118.4 L 303.7 110.4 L 302.3 105.6 L 300.8 107.2 L 299.4 109.8 L 298.0 115.7 L 296.5 122.1 L 295.1 102.4 L 293.7 130.6 L 292.2 122.1 L 290.8 98.1 L 289.4 80 L 287.9 92.8 L 286.5 108.8 L 285.1 93.8 L 283.6 102.9 L 282.2 86.9 L 280.7 89.0 L 279.3 86.9 L 277.9 97.0 L 276.4 86.4 L 275.0 99.2 L 273.6 81.0 L 272.1 76.2 L 270.7 80 L 269.3 49.6 L 267.8 55.4 L 266.4 65.0 L 265.0 65.6 L 263.5 93.3 L 262.1 56 L 260.6 63.4 L 259.2 89.6 L 257.8 64 L 256.3 71.4 L 254.9 84.8 L 253.5 109.3 L 252.0 103.4 L 250.6 112.5 L 249.2 122.6 L 247.7 126.4 L 246.3 133.3 L 244.9 111.4 L 243.4 129.0 L 242.0 123.2 L 240.5 113.6 L 239.1 122.6 L 237.7 116.2 L 236.2 131.7 L 234.8 126.9 L 233.4 137.6 L 231.9 123.7 L 230.5 117.8 L 229.1 117.8 L 227.6 121.0 L 226.2 130.6 L 224.8 139.2 L 223.3 126.9 L 221.9 97.6 L 220.5 92.8 L 219.0 92.8 L 217.6 128 L 216.1 123.2 L 214.7 137.6 L 213.3 152 L 211.8 118.9 L 210.4 118.9 L 209.0 121.0 L 207.5 120 L 206.1 122.6 L 204.7 117.8 L 203.2 132.2 L 201.8 118.9 L 200.4 102.9 L 198.9 102.9 L 197.5 113.0 L 196.0 115.7 L 194.6 122.6 L 193.2 133.3 L 191.7 144 L 190.3 152 L 188.9 141.3 L 187.4 135.4 L 186.0 140.2 L 184.6 137.0 L 183.1 153.6 L 181.7 141.8 L 180.3 144.5 L 178.8 125.8 L 177.4 99.2 L 175.9 107.2 L 174.5 114.1 L 173.1 131.7 L 171.6 129.0 L 170.2 111.4 L 168.8 124.2 L 167.3 120.5 L 165.9 126.4 L 164.5 144.5 L 163.0 144.5 L 161.6 148.2 L 160.2 121.0 L 158.7 137.0 L 157.3 139.2 L 155.9 151.4 L 154.4 130.1 L 153.0 140.8 L 151.5 150.4 L 150.1 160 L 148.7 132.2 L 147.2 158.4 L 145.8 132.2 L 144.4 140.2 L 142.9 141.3 L 141.5 169.0 L 140.1 169.0 L 138.6 141.3 L 137.2 149.3 L 135.8 177.0 L 134.3 174.4 L 132.9 188.2 L 131.4 173.3 L 130.1 176 L 128.6 180.8 L 127.2 181.3 L 125.8 170.6 L 124.3 186.6 L 122.9 182.9 L 121.5 182.9 L 120.0 181.8 L 118.6 182.9 L 117.2 179.7 L 115.7 173.3 L 114.3 163.7 L 112.8 174.9 L 111.4 177.6 L 110.0 184.5 L 108.5 166.4 L 107.1 169.0 L 105.7 181.8 L 104.2 167.4 L 102.8 176 L 101.4 163.2 L 99.9 171.2 L 98.5 176.5 L 97.1 183.4 L 95.6 172.2 L 94.2 164.8 L 92.7 170.1 L 91.3 170.1 L 89.9 192 L 88.4 205.8 L 87.0 193.0 L 85.6 184.5 L 84.1 190.4 L 82.7 193.6 L 81.3 178.6 L 79.8 184 L 78.4 201.0 L 77.0 182.9 L 75.5 189.3 L 74.1 192.5 L 72.6 196.2 L 71.2 191.4 L 69.8 205.3 L 68.3 207.4 L 66.9 205.8 L 65.5 204.2 L 64.0 212.8 L 62.6 225.0 L 61.2 206.4 L 59.7 227.2 L 58.3 210.1 L 56.9 205.3 L 55.4 205.8 L 54.0 216.5 L 52.5 216.5 L 51.1 225.6 L 49.7 227.7 L 48.2 223.4 L 46.8 218.6 L 45.4 198.9 L 43.9 203.2 L 42.5 215.4 L 41.1 202.6 L 39.6 205.8 L 38.2 189.8 L 36.8 188.2 L 35.3 202.1 L 33.9 200 L 32.5 186.1 L 31.0 194.1 L 29.6 189.3 L 28.1 190.9 L 26.7 200.5 L 25.3 221.3 L 23.8 193.0 L 22.4 178.6 L 21.0 163.2 L 19.5 172.8 L 18.1 177.0 L 16.7 176.5 L 15.2 177.6 L 13.8 214.4 L 12.4 196.2 L 10.9 233.0 L 9.5 217.0 L 8.0 191.4 L 6.6 205.8 L 5.2 212.8 M 345.3 160 L 346.8 162.1 L 348.2 145.6 L 349.7 154.1 L 351.1 149.8 L 352.5 155.7 L 354.0 152 L 355.4 160 L 356.8 163.7 L 358.3 154.1 L 359.7 157.8 M 359.7 150.4 L 358.3 117.3 L 356.8 123.7 L 355.4 140.2 L 354.0 134.4 L 352.5 146.1 L 351.1 131.7 L 349.7 122.1 L 348.2 139.7 L 346.8 125.3 L 345.3 132.8 M 362.6 155.7 L 364.0 165.3 L 365.4 152.5 L 366.9 161.6 L 368.3 157.8 L 369.8 160 L 371.2 169.0 L 372.6 180.8 L 374.1 184 L 375.5 168 L 376.9 166.4 L 378.4 163.2 L 379.8 177.6 L 381.2 163.7 L 382.7 168.5 L 384.1 162.6 L 385.5 172.2 L 387.0 175.4 L 388.4 160 L 389.8 139.2 L 391.3 170.6 L 392.7 189.8 L 394.2 188.2 M 394.2 176.5 L 392.7 165.8 L 391.3 132.8 L 389.8 128 L 388.4 129.0 L 387.0 149.8 L 385.5 154.1 L 384.1 132.2 L 382.7 133.3 L 381.2 133.8 L 379.8 122.1 L 378.4 130.1 L 376.9 145.0 L 375.5 140.8 L 374.1 136.5 L 372.6 129.6 L 371.2 120 L 369.8 140.8 L 368.3 138.6 L 366.9 130.1 L 365.4 124.8 L 364.0 143.4 L 362.6 134.9 M 398.5 194.1 L 399.9 197.3 L 401.3 198.4 L 402.8 205.3 L 404.2 210.6 L 405.6 195.7 L 407.1 195.2 L 408.5 209.6 L 409.9 226.6 L 411.4 211.2 L 412.8 212.2 L 414.3 226.6 L 415.7 229.8 L 417.1 201.0 L 418.6 189.8 L 420.0 212.2 L 421.4 219.7 L 422.9 198.4 L 424.3 217.6 L 425.7 208 L 427.2 206.4 L 428.6 197.8 L 430.0 188.2 L 431.5 195.7 L 433.0 213.3 L 434.4 213.3 L 435.8 219.2 L 437.3 220.2 L 438.7 211.7 L 440.2 217.0 L 441.6 189.3 L 443.0 213.3 L 444.5 213.3 L 445.9 213.3 L 447.3 225.0 L 448.8 227.2 L 450.2 222.4 L 451.6 213.3 L 453.1 223.4 L 454.5 227.2 L 455.9 227.2 L 457.4 236.8 L 458.8 241.0 M 458.8 212.2 L 457.4 222.4 L 455.9 206.9 L 454.5 214.4 L 453.1 209.0 L 451.6 185.6 L 450.2 158.4 L 448.8 204.2 L 447.3 185.6 L 445.9 177.6 L 444.5 213.3 L 443.0 189.8 L 441.6 174.4 L 440.2 187.2 L 438.7 190.4 L 437.3 189.3 L 435.8 184.5 L 434.4 202.6 L 433.0 175.4 L 431.5 155.7 L 430.0 165.3 L 428.6 152.5 L 427.2 190.9 L 425.7 161.6 L 424.3 174.9 L 422.9 179.2 L 421.4 174.9 L 420.0 171.7 L 418.6 155.7 L 417.1 168 L 415.7 184.5 L 414.3 185.0 L 412.8 162.1 L 411.4 168 L 409.9 180.2 L 408.5 177.6 L 407.1 185.0 L 405.6 164.8 L 404.2 182.4 L 402.8 173.3 L 401.3 165.3 L 399.9 177.0 L 398.5 194.1 M 461.7 206.4 L 463.1 213.8 L 464.6 204.2 L 466.0 189.3 L 467.4 187.7 L 468.9 187.2 L 470.3 200.5 L 471.7 200.5 L 473.2 203.2 L 474.6 197.8 L 476.0 197.8 L 477.5 192.5 L 478.9 209.0 L 480.4 213.3 L 481.8 205.3 L 483.2 233.6 L 484.7 230.9 L 486.1 228.2 L 487.5 227.7 L 489.0 217.0 L 490.4 211.7 L 491.8 197.8 L 493.3 213.3 L 494.7 210.1 L 496.1 212.8 L 497.6 198.4 L 499.0 219.7 L 500.4 234.6 L 501.9 217.0 L 503.3 210.6 L 504.8 218.6 L 506.2 254.9 L 507.6 276.8 L 509.1 285.3 L 510.5 254.9 L 511.9 273.0 L 513.4 283.2 L 514.8 283.7 L 516.2 271.4 L 517.7 258.1 L 519.1 245.8 L 520.5 227.2 L 522.0 228.8 L 523.4 227.7 L 524.9 270.9 L 526.3 272.5 L 527.7 278.4 M 527.7 248 L 526.3 256 L 524.9 220.2 L 523.4 209.6 L 522.0 209.6 L 520.5 219.7 L 519.1 219.7 L 517.7 221.3 L 516.2 254.4 L 514.8 241.0 L 513.4 251.7 L 511.9 216.5 L 510.5 222.4 L 509.1 255.4 L 507.6 255.4 L 506.2 218.6 L 504.8 205.3 L 503.3 204.8 L 501.9 209.6 L 500.4 215.4 L 499.0 201.6 L 497.6 192.5 L 496.1 186.1 L 494.7 198.4 L 493.3 177.0 L 491.8 161.0 L 490.4 180.8 L 489.0 190.9 L 487.5 193.0 L 486.1 217.0 L 484.7 204.2 L 483.2 205.3 L 481.8 195.2 L 480.4 187.7 L 478.9 182.9 L 477.5 172.8 L 476.0 187.2 L 474.6 182.9 L 473.2 185.6 L 471.7 188.8 L 470.3 167.4 L 468.9 157.8 L 467.4 181.8 L 466.0 179.7 L 464.6 181.8 L 463.1 192.5 L 461.7 165.8" stroke="black" stroke-width="5"  stroke-linejoin="round" stroke-linecap="round"  stroke-opacity="0.0" transform="translate(1, 1)"></path><path fill="none" d="M 5.2 244.2 L 6.6 235.2 L 8.0 216 L 9.5 260.8 L 10.9 265.0 L 12.4 231.4 L 13.8 234.1 L 15.2 226.1 L 16.7 193.0 L 18.1 196.8 L 19.5 213.3 L 21.0 183.4 L 22.4 194.1 L 23.8 232.5 L 25.3 245.3 L 26.7 233.6 L 28.1 205.3 L 29.6 213.3 L 31.0 219.2 L 32.5 210.6 L 33.9 213.3 L 35.3 216.5 L 36.8 209.0 L 38.2 210.1 L 39.6 234.1 L 41.1 236.2 L 42.5 245.8 L 43.9 214.9 L 45.4 228.8 L 46.8 234.6 L 48.2 236.8 L 49.7 240 L 51.1 241.0 L 52.5 246.9 L 54.0 242.1 L 55.4 224.5 L 56.9 237.8 L 58.3 242.1 L 59.7 259.7 L 61.2 241.0 L 62.6 259.2 L 64.0 258.6 L 65.5 238.9 L 66.9 257.6 L 68.3 259.2 L 69.8 230.4 L 71.2 217.0 L 72.6 212.2 L 74.1 213.3 L 75.5 206.9 L 77.0 206.4 L 78.4 208 L 79.8 207.4 L 81.3 208 L 82.7 208.5 L 84.1 205.3 L 85.6 210.6 L 87.0 239.4 L 88.4 242.1 L 89.9 223.4 L 91.3 208.5 L 92.7 204.2 L 94.2 213.3 L 95.6 200 L 97.1 202.1 L 98.5 205.3 L 99.9 210.1 L 101.4 203.2 L 102.8 203.7 L 104.2 212.2 L 105.7 214.9 L 107.1 204.8 L 108.5 215.4 L 110.0 224 L 111.4 201.6 L 112.8 213.3 L 114.3 209.0 L 115.7 222.4 L 117.2 224 L 118.6 214.9 L 120.0 204.2 L 121.5 217.6 L 122.9 232 L 124.3 227.2 L 125.8 217.0 L 127.2 228.2 L 128.6 228.8 L 130.1 211.7 L 131.4 210.6 L 132.9 204.8 L 134.3 220.8 L 135.8 198.4 L 137.2 195.2 L 138.6 210.1 L 140.1 184 L 141.5 195.7 L 142.9 210.1 L 144.4 197.3 L 145.8 178.1 L 147.2 183.4 L 148.7 183.4 L 150.1 191.4 L 151.5 211.2 L 153.0 210.6 L 154.4 193.0 L 155.9 181.3 L 157.3 192.5 L 158.7 209.0 L 160.2 197.8 L 161.6 175.4 L 163.0 200.5 L 164.5 188.2 L 165.9 202.6 L 167.3 162.6 L 168.8 195.2 L 170.2 177.6 L 171.6 187.2 L 173.1 168.5 L 174.5 191.4 L 175.9 178.1 L 177.4 166.9 L 178.8 164.2 L 180.3 180.2 L 181.7 213.3 L 183.1 189.3 L 184.6 196.2 L 186.0 196.8 L 187.4 179.2 L 188.9 186.6 L 190.3 187.7 L 191.7 194.6 L 193.2 189.3 L 194.6 202.6 L 196.0 190.4 L 197.5 189.3 L 198.9 170.6 L 200.4 173.8 L 201.8 168.5 L 203.2 169.0 L 204.7 169.0 L 206.1 177.6 L 207.5 172.8 L 209.0 178.1 L 210.4 166.9 L 211.8 165.8 L 213.3 168.5 L 214.7 181.8 L 216.1 186.1 L 217.6 169.0 L 219.0 180.2 L 220.5 171.7 L 221.9 174.4 L 223.3 166.9 L 224.8 174.4 L 226.2 192.5 L 227.6 179.2 L 229.1 197.8 L 230.5 192.5 L 231.9 178.6 L 233.4 170.6 L 234.8 171.7 L 236.2 167.4 L 237.7 169.6 L 239.1 162.6 L 240.5 182.9 L 242.0 176 L 243.4 190.4 L 244.9 194.1 L 246.3 155.7 L 247.7 167.4 L 249.2 156.2 L 250.6 161.6 L 252.0 161.0 L 253.5 145.0 L 254.9 167.4 L 256.3 155.2 L 257.8 141.3 L 259.2 146.6 L 260.6 138.6 L 262.1 133.8 L 263.5 123.2 L 265.0 137.0 L 266.4 136 L 267.8 130.6 L 269.3 124.2 L 270.7 125.3 L 272.1 118.4 L 273.6 141.3 L 275.0 157.3 L 276.4 164.2 L 277.9 151.4 L 279.3 156.2 L 280.7 154.6 L 282.2 151.4 L 283.6 150.4 L 285.1 146.1 L 286.5 140.8 L 287.9 152.5 L 289.4 142.9 L 290.8 137.6 L 292.2 143.4 L 293.7 148.2 L 295.1 149.3 L 296.5 149.3 L 298.0 145.6 L 299.4 147.2 L 300.8 146.1 L 302.3 149.8 L 303.7 154.6 L 305.2 155.7 L 306.6 150.4 L 308.0 155.7 L 309.5 165.3 L 310.9 154.6 L 312.3 146.1 L 313.8 136 L 315.2 149.8 L 316.6 128 L 318.1 139.7 L 319.5 140.2 L 320.9 140.8 L 322.4 157.3 L 323.8 145.0 L 325.2 149.8 L 326.7 155.2 L 328.1 166.4 L 329.6 174.4 L 331.0 156.2 L 332.4 147.7 L 333.9 160.5 L 335.3 172.2 L 336.7 145.6 L 338.2 145.0 L 339.6 156.8 L 341.0 153.0 L 342.5 153.0 M 342.5 139.7 L 341.0 114.6 L 339.6 118.9 L 338.2 105.0 L 336.7 72 L 335.3 128 L 333.9 115.2 L 332.4 120 L 331.0 138.6 L 329.6 140.8 L 328.1 123.7 L 326.7 125.8 L 325.2 115.2 L 323.8 115.2 L 322.4 94.4 L 320.9 95.4 L 319.5 98.6 L 318.1 81.0 L 316.6 98.6 L 315.2 85.3 L 313.8 92.2 L 312.3 93.3 L 310.9 105.6 L 309.5 107.2 L 308.0 127.4 L 306.6 114.6 L 305.2 118.4 L 303.7 110.4 L 302.3 105.6 L 300.8 107.2 L 299.4 109.8 L 298.0 115.7 L 296.5 122.1 L 295.1 102.4 L 293.7 130.6 L 292.2 122.1 L 290.8 98.1 L 289.4 80 L 287.9 92.8 L 286.5 108.8 L 285.1 93.8 L 283.6 102.9 L 282.2 86.9 L 280.7 89.0 L 279.3 86.9 L 277.9 97.0 L 276.4 86.4 L 275.0 99.2 L 273.6 81.0 L 272.1 76.2 L 270.7 80 L 269.3 49.6 L 267.8 55.4 L 266.4 65.0 L 265.0 65.6 L 263.5 93.3 L 262.1 56 L 260.6 63.4 L 259.2 89.6 L 257.8 64 L 256.3 71.4 L 254.9 84.8 L 253.5 109.3 L 252.0 103.4 L 250.6 112.5 L 249.2 122.6 L 247.7 126.4 L 246.3 133.3 L 244.9 111.4 L 243.4 129.0 L 242.0 123.2 L 240.5 113.6 L 239.1 122.6 L 237.7 116.2 L 236.2 131.7 L 234.8 126.9 L 233.4 137.6 L 231.9 123.7 L 230.5 117.8 L 229.1 117.8 L 227.6 121.0 L 226.2 130.6 L 224.8 139.2 L 223.3 126.9 L 221.9 97.6 L 220.5 92.8 L 219.0 92.8 L 217.6 128 L 216.1 123.2 L 214.7 137.6 L 213.3 152 L 211.8 118.9 L 210.4 118.9 L 209.0 121.0 L 207.5 120 L 206.1 122.6 L 204.7 117.8 L 203.2 132.2 L 201.8 118.9 L 200.4 102.9 L 198.9 102.9 L 197.5 113.0 L 196.0 115.7 L 194.6 122.6 L 193.2 133.3 L 191.7 144 L 190.3 152 L 188.9 141.3 L 187.4 135.4 L 186.0 140.2 L 184.6 137.0 L 183.1 153.6 L 181.7 141.8 L 180.3 144.5 L 178.8 125.8 L 177.4 99.2 L 175.9 107.2 L 174.5 114.1 L 173.1 131.7 L 171.6 129.0 L 170.2 111.4 L 168.8 124.2 L 167.3 120.5 L 165.9 126.4 L 164.5 144.5 L 163.0 144.5 L 161.6 148.2 L 160.2 121.0 L 158.7 137.0 L 157.3 139.2 L 155.9 151.4 L 154.4 130.1 L 153.0 140.8 L 151.5 150.4 L 150.1 160 L 148.7 132.2 L 147.2 158.4 L 145.8 132.2 L 144.4 140.2 L 142.9 141.3 L 141.5 169.0 L 140.1 169.0 L 138.6 141.3 L 137.2 149.3 L 135.8 177.0 L 134.3 174.4 L 132.9 188.2 L 131.4 173.3 L 130.1 176 L 128.6 180.8 L 127.2 181.3 L 125.8 170.6 L 124.3 186.6 L 122.9 182.9 L 121.5 182.9 L 120.0 181.8 L 118.6 182.9 L 117.2 179.7 L 115.7 173.3 L 114.3 163.7 L 112.8 174.9 L 111.4 177.6 L 110.0 184.5 L 108.5 166.4 L 107.1 169.0 L 105.7 181.8 L 104.2 167.4 L 102.8 176 L 101.4 163.2 L 99.9 171.2 L 98.5 176.5 L 97.1 183.4 L 95.6 172.2 L 94.2 164.8 L 92.7 170.1 L 91.3 170.1 L 89.9 192 L 88.4 205.8 L 87.0 193.0 L 85.6 184.5 L 84.1 190.4 L 82.7 193.6 L 81.3 178.6 L 79.8 184 L 78.4 201.0 L 77.0 182.9 L 75.5 189.3 L 74.1 192.5 L 72.6 196.2 L 71.2 191.4 L 69.8 205.3 L 68.3 207.4 L 66.9 205.8 L 65.5 204.2 L 64.0 212.8 L 62.6 225.0 L 61.2 206.4 L 59.7 227.2 L 58.3 210.1 L 56.9 205.3 L 55.4 205.8 L 54.0 216.5 L 52.5 216.5 L 51.1 225.6 L 49.7 227.7 L 48.2 223.4 L 46.8 218.6 L 45.4 198.9 L 43.9 203.2 L 42.5 215.4 L 41.1 202.6 L 39.6 205.8 L 38.2 189.8 L 36.8 188.2 L 35.3 202.1 L 33.9 200 L 32.5 186.1 L 31.0 194.1 L 29.6 189.3 L 28.1 190.9 L 26.7 200.5 L 25.3 221.3 L 23.8 193.0 L 22.4 178.6 L 21.0 163.2 L 19.5 172.8 L 18.1 177.0 L 16.7 176.5 L 15.2 177.6 L 13.8 214.4 L 12.4 196.2 L 10.9 233.0 L 9.5 217.0 L 8.0 191.4 L 6.6 205.8 L 5.2 212.8 M 345.3 160 L 346.8 162.1 L 348.2 145.6 L 349.7 154.1 L 351.1 149.8 L 352.5 155.7 L 354.0 152 L 355.4 160 L 356.8 163.7 L 358.3 154.1 L 359.7 157.8 M 359.7 150.4 L 358.3 117.3 L 356.8 123.7 L 355.4 140.2 L 354.0 134.4 L 352.5 146.1 L 351.1 131.7 L 349.7 122.1 L 348.2 139.7 L 346.8 125.3 L 345.3 132.8 M 362.6 155.7 L 364.0 165.3 L 365.4 152.5 L 366.9 161.6 L 368.3 157.8 L 369.8 160 L 371.2 169.0 L 372.6 180.8 L 374.1 184 L 375.5 168 L 376.9 166.4 L 378.4 163.2 L 379.8 177.6 L 381.2 163.7 L 382.7 168.5 L 384.1 162.6 L 385.5 172.2 L 387.0 175.4 L 388.4 160 L 389.8 139.2 L 391.3 170.6 L 392.7 189.8 L 394.2 188.2 M 394.2 176.5 L 392.7 165.8 L 391.3 132.8 L 389.8 128 L 388.4 129.0 L 387.0 149.8 L 385.5 154.1 L 384.1 132.2 L 382.7 133.3 L 381.2 133.8 L 379.8 122.1 L 378.4 130.1 L 376.9 145.0 L 375.5 140.8 L 374.1 136.5 L 372.6 129.6 L 371.2 120 L 369.8 140.8 L 368.3 138.6 L 366.9 130.1 L 365.4 124.8 L 364.0 143.4 L 362.6 134.9 M 398.5 194.1 L 399.9 197.3 L 401.3 198.4 L 402.8 205.3 L 404.2 210.6 L 405.6 195.7 L 407.1 195.2 L 408.5 209.6 L 409.9 226.6 L 411.4 211.2 L 412.8 212.2 L 414.3 226.6 L 415.7 229.8 L 417.1 201.0 L 418.6 189.8 L 420.0 212.2 L 421.4 219.7 L 422.9 198.4 L 424.3 217.6 L 425.7 208 L 427.2 206.4 L 428.6 197.8 L 430.0 188.2 L 431.5 195.7 L 433.0 213.3 L 434.4 213.3 L 435.8 219.2 L 437.3 220.2 L 438.7 211.7 L 440.2 217.0 L 441.6 189.3 L 443.0 213.3 L 444.5 213.3 L 445.9 213.3 L 447.3 225.0 L 448.8 227.2 L 450.2 222.4 L 451.6 213.3 L 453.1 223.4 L 454.5 227.2 L 455.9 227.2 L 457.4 236.8 L 458.8 241.0 M 458.8 212.2 L 457.4 222.4 L 455.9 206.9 L 454.5 214.4 L 453.1 209.0 L 451.6 185.6 L 450.2 158.4 L 448.8 204.2 L 447.3 185.6 L 445.9 177.6 L 444.5 213.3 L 443.0 189.8 L 441.6 174.4 L 440.2 187.2 L 438.7 190.4 L 437.3 189.3 L 435.8 184.5 L 434.4 202.6 L 433.0 175.4 L 431.5 155.7 L 430.0 165.3 L 428.6 152.5 L 427.2 190.9 L 425.7 161.6 L 424.3 174.9 L 422.9 179.2 L 421.4 174.9 L 420.0 171.7 L 418.6 155.7 L 417.1 168 L 415.7 184.5 L 414.3 185.0 L 412.8 162.1 L 411.4 168 L 409.9 180.2 L 408.5 177.6 L 407.1 185.0 L 405.6 164.8 L 404.2 182.4 L 402.8 173.3 L 401.3 165.3 L 399.9 177.0 L 398.5 194.1 M 461.7 206.4 L 463.1 213.8 L 464.6 204.2 L 466.0 189.3 L 467.4 187.7 L 468.9 187.2 L 470.3 200.5 L 471.7 200.5 L 473.2 203.2 L 474.6 197.8 L 476.0 197.8 L 477.5 192.5 L 478.9 209.0 L 480.4 213.3 L 481.8 205.3 L 483.2 233.6 L 484.7 230.9 L 486.1 228.2 L 487.5 227.7 L 489.0 217.0 L 490.4 211.7 L 491.8 197.8 L 493.3 213.3 L 494.7 210.1 L 496.1 212.8 L 497.6 198.4 L 499.0 219.7 L 500.4 234.6 L 501.9 217.0 L 503.3 210.6 L 504.8 218.6 L 506.2 254.9 L 507.6 276.8 L 509.1 285.3 L 510.5 254.9 L 511.9 273.0 L 513.4 283.2 L 514.8 283.7 L 516.2 271.4 L 517.7 258.1 L 519.1 245.8 L 520.5 227.2 L 522.0 228.8 L 523.4 227.7 L 524.9 270.9 L 526.3 272.5 L 527.7 278.4 M 527.7 248 L 526.3 256 L 524.9 220.2 L 523.4 209.6 L 522.0 209.6 L 520.5 219.7 L 519.1 219.7 L 517.7 221.3 L 516.2 254.4 L 514.8 241.0 L 513.4 251.7 L 511.9 216.5 L 510.5 222.4 L 509.1 255.4 L 507.6 255.4 L 506.2 218.6 L 504.8 205.3 L 503.3 204.8 L 501.9 209.6 L 500.4 215.4 L 499.0 201.6 L 497.6 192.5 L 496.1 186.1 L 494.7 198.4 L 493.3 177.0 L 491.8 161.0 L 490.4 180.8 L 489.0 190.9 L 487.5 193.0 L 486.1 217.0 L 484.7 204.2 L 483.2 205.3 L 481.8 195.2 L 480.4 187.7 L 478.9 182.9 L 477.5 172.8 L 476.0 187.2 L 474.6 182.9 L 473.2 185.6 L 471.7 188.8 L 470.3 167.4 L 468.9 157.8 L 467.4 181.8 L 466.0 179.7 L 464.6 181.8 L 463.1 192.5 L 461.7 165.8" stroke="black" stroke-width="3"  stroke-linejoin="round" stroke-linecap="round"  stroke-opacity="0.0" transform="translate(1, 1)"></path><path fill="none" d="M 5.2 244.2 L 6.6 235.2 L 8.0 216 L 9.5 260.8 L 10.9 265.0 L 12.4 231.4 L 13.8 234.1 L 15.2 226.1 L 16.7 193.0 L 18.1 196.8 L 19.5 213.3 L 21.0 183.4 L 22.4 194.1 L 23.8 232.5 L 25.3 245.3 L 26.7 233.6 L 28.1 205.3 L 29.6 213.3 L 31.0 219.2 L 32.5 210.6 L 33.9 213.3 L 35.3 216.5 L 36.8 209.0 L 38.2 210.1 L 39.6 234.1 L 41.1 236.2 L 42.5 245.8 L 43.9 214.9 L 45.4 228.8 L 46.8 234.6 L 48.2 236.8 L 49.7 240 L 51.1 241.0 L 52.5 246.9 L 54.0 242.1 L 55.4 224.5 L 56.9 237.8 L 58.3 242.1 L 59.7 259.7 L 61.2 241.0 L 62.6 259.2 L 64.0 258.6 L 65.5 238.9 L 66.9 257.6 L 68.3 259.2 L 69.8 230.4 L 71.2 217.0 L 72.6 212.2 L 74.1 213.3 L 75.5 206.9 L 77.0 206.4 L 78.4 208 L 79.8 207.4 L 81.3 208 L 82.7 208.5 L 84.1 205.3 L 85.6 210.6 L 87.0 239.4 L 88.4 242.1 L 89.9 223.4 L 91.3 208.5 L 92.7 204.2 L 94.2 213.3 L 95.6 200 L 97.1 202.1 L 98.5 205.3 L 99.9 210.1 L 101.4 203.2 L 102.8 203.7 L 104.2 212.2 L 105.7 214.9 L 107.1 204.8 L 108.5 215.4 L 110.0 224 L 111.4 201.6 L 112.8 213.3 L 114.3 209.0 L 115.7 222.4 L 117.2 224 L 118.6 214.9 L 120.0 204.2 L 121.5 217.6 L 122.9 232 L 124.3 227.2 L 125.8 217.0 L 127.2 228.2 L 128.6 228.8 L 130.1 211.7 L 131.4 210.6 L 132.9 204.8 L 134.3 220.8 L 135.8 198.4 L 137.2 195.2 L 138.6 210.1 L 140.1 184 L 141.5 195.7 L 142.9 210.1 L 144.4 197.3 L 145.8 178.1 L 147.2 183.4 L 148.7 183.4 L 150.1 191.4 L 151.5 211.2 L 153.0 210.6 L 154.4 193.0 L 155.9 181.3 L 157.3 192.5 L 158.7 209.0 L 160.2 197.8 L 161.6 175.4 L 163.0 200.5 L 164.5 188.2 L 165.9 202.6 L 167.3 162.6 L 168.8 195.2 L 170.2 177.6 L 171.6 187.2 L 173.1 168.5 L 174.5 191.4 L 175.9 178.1 L 177.4 166.9 L 178.8 164.2 L 180.3 180.2 L 181.7 213.3 L 183.1 189.3 L 184.6 196.2 L 186.0 196.8 L 187.4 179.2 L 188.9 186.6 L 190.3 187.7 L 191.7 194.6 L 193.2 189.3 L 194.6 202.6 L 196.0 190.4 L 197.5 189.3 L 198.9 170.6 L 200.4 173.8 L 201.8 168.5 L 203.2 169.0 L 204.7 169.0 L 206.1 177.6 L 207.5 172.8 L 209.0 178.1 L 210.4 166.9 L 211.8 165.8 L 213.3 168.5 L 214.7 181.8 L 216.1 186.1 L 217.6 169.0 L 219.0 180.2 L 220.5 171.7 L 221.9 174.4 L 223.3 166.9 L 224.8 174.4 L 226.2 192.5 L 227.6 179.2 L 229.1 197.8 L 230.5 192.5 L 231.9 178.6 L 233.4 170.6 L 234.8 171.7 L 236.2 167.4 L 237.7 169.6 L 239.1 162.6 L 240.5 182.9 L 242.0 176 L 243.4 190.4 L 244.9 194.1 L 246.3 155.7 L 247.7 167.4 L 249.2 156.2 L 250.6 161.6 L 252.0 161.0 L 253.5 145.0 L 254.9 167.4 L 256.3 155.2 L 257.8 141.3 L 259.2 146.6 L 260.6 138.6 L 262.1 133.8 L 263.5 123.2 L 265.0 137.0 L 266.4 136 L 267.8 130.6 L 269.3 124.2 L 270.7 125.3 L 272.1 118.4 L 273.6 141.3 L 275.0 157.3 L 276.4 164.2 L 277.9 151.4 L 279.3 156.2 L 280.7 154.6 L 282.2 151.4 L 283.6 150.4 L 285.1 146.1 L 286.5 140.8 L 287.9 152.5 L 289.4 142.9 L 290.8 137.6 L 292.2 143.4 L 293.7 148.2 L 295.1 149.3 L 296.5 149.3 L 298.0 145.6 L 299.4 147.2 L 300.8 146.1 L 302.3 149.8 L 303.7 154.6 L 305.2 155.7 L 306.6 150.4 L 308.0 155.7 L 309.5 165.3 L 310.9 154.6 L 312.3 146.1 L 313.8 136 L 315.2 149.8 L 316.6 128 L 318.1 139.7 L 319.5 140.2 L 320.9 140.8 L 322.4 157.3 L 323.8 145.0 L 325.2 149.8 L 326.7 155.2 L 328.1 166.4 L 329.6 174.4 L 331.0 156.2 L 332.4 147.7 L 333.9 160.5 L 335.3 172.2 L 336.7 145.6 L 338.2 145.0 L 339.6 156.8 L 341.0 153.0 L 342.5 153.0 M 342.5 139.7 L 341.0 114.6 L 339.6 118.9 L 338.2 105.0 L 336.7 72 L 335.3 128 L 333.9 115.2 L 332.4 120 L 331.0 138.6 L 329.6 140.8 L 328.1 123.7 L 326.7 125.8 L 325.2 115.2 L 323.8 115.2 L 322.4 94.4 L 320.9 95.4 L 319.5 98.6 L 318.1 81.0 L 316.6 98.6 L 315.2 85.3 L 313.8 92.2 L 312.3 93.3 L 310.9 105.6 L 309.5 107.2 L 308.0 127.4 L 306.6 114.6 L 305.2 118.4 L 303.7 110.4 L 302.3 105.6 L 300.8 107.2 L 299.4 109.8 L 298.0 115.7 L 296.5 122.1 L 295.1 102.4 L 293.7 130.6 L 292.2 122.1 L 290.8 98.1 L 289.4 80 L 287.9 92.8 L 286.5 108.8 L 285.1 93.8 L 283.6 102.9 L 282.2 86.9 L 280.7 89.0 L 279.3 86.9 L 277.9 97.0 L 276.4 86.4 L 275.0 99.2 L 273.6 81.0 L 272.1 76.2 L 270.7 80 L 269.3 49.6 L 267.8 55.4 L 266.4 65.0 L 265.0 65.6 L 263.5 93.3 L 262.1 56 L 260.6 63.4 L 259.2 89.6 L 257.8 64 L 256.3 71.4 L 254.9 84.8 L 253.5 109.3 L 252.0 103.4 L 250.6 112.5 L 249.2 122.6 L 247.7 126.4 L 246.3 133.3 L 244.9 111.4 L 243.4 129.0 L 242.0 123.2 L 240.5 113.6 L 239.1 122.6 L 237.7 116.2 L 236.2 131.7 L 234.8 126.9 L 233.4 137.6 L 231.9 123.7 L 230.5 117.8 L 229.1 117.8 L 227.6 121.0 L 226.2 130.6 L 224.8 139.2 L 223.3 126.9 L 221.9 97.6 L 220.5 92.8 L 219.0 92.8 L 217.6 128 L 216.1 123.2 L 214.7 137.6 L 213.3 152 L 211.8 118.9 L 210.4 118.9 L 209.0 121.0 L 207.5 120 L 206.1 122.6 L 204.7 117.8 L 203.2 132.2 L 201.8 118.9 L 200.4 102.9 L 198.9 102.9 L 197.5 113.0 L 196.0 115.7 L 194.6 122.6 L 193.2 133.3 L 191.7 144 L 190.3 152 L 188.9 141.3 L 187.4 135.4 L 186.0 140.2 L 184.6 137.0 L 183.1 153.6 L 181.7 141.8 L 180.3 144.5 L 178.8 125.8 L 177.4 99.2 L 175.9 107.2 L 174.5 114.1 L 173.1 131.7 L 171.6 129.0 L 170.2 111.4 L 168.8 124.2 L 167.3 120.5 L 165.9 126.4 L 164.5 144.5 L 163.0 144.5 L 161.6 148.2 L 160.2 121.0 L 158.7 137.0 L 157.3 139.2 L 155.9 151.4 L 154.4 130.1 L 153.0 140.8 L 151.5 150.4 L 150.1 160 L 148.7 132.2 L 147.2 158.4 L 145.8 132.2 L 144.4 140.2 L 142.9 141.3 L 141.5 169.0 L 140.1 169.0 L 138.6 141.3 L 137.2 149.3 L 135.8 177.0 L 134.3 174.4 L 132.9 188.2 L 131.4 173.3 L 130.1 176 L 128.6 180.8 L 127.2 181.3 L 125.8 170.6 L 124.3 186.6 L 122.9 182.9 L 121.5 182.9 L 120.0 181.8 L 118.6 182.9 L 117.2 179.7 L 115.7 173.3 L 114.3 163.7 L 112.8 174.9 L 111.4 177.6 L 110.0 184.5 L 108.5 166.4 L 107.1 169.0 L 105.7 181.8 L 104.2 167.4 L 102.8 176 L 101.4 163.2 L 99.9 171.2 L 98.5 176.5 L 97.1 183.4 L 95.6 172.2 L 94.2 164.8 L 92.7 170.1 L 91.3 170.1 L 89.9 192 L 88.4 205.8 L 87.0 193.0 L 85.6 184.5 L 84.1 190.4 L 82.7 193.6 L 81.3 178.6 L 79.8 184 L 78.4 201.0 L 77.0 182.9 L 75.5 189.3 L 74.1 192.5 L 72.6 196.2 L 71.2 191.4 L 69.8 205.3 L 68.3 207.4 L 66.9 205.8 L 65.5 204.2 L 64.0 212.8 L 62.6 225.0 L 61.2 206.4 L 59.7 227.2 L 58.3 210.1 L 56.9 205.3 L 55.4 205.8 L 54.0 216.5 L 52.5 216.5 L 51.1 225.6 L 49.7 227.7 L 48.2 223.4 L 46.8 218.6 L 45.4 198.9 L 43.9 203.2 L 42.5 215.4 L 41.1 202.6 L 39.6 205.8 L 38.2 189.8 L 36.8 188.2 L 35.3 202.1 L 33.9 200 L 32.5 186.1 L 31.0 194.1 L 29.6 189.3 L 28.1 190.9 L 26.7 200.5 L 25.3 221.3 L 23.8 193.0 L 22.4 178.6 L 21.0 163.2 L 19.5 172.8 L 18.1 177.0 L 16.7 176.5 L 15.2 177.6 L 13.8 214.4 L 12.4 196.2 L 10.9 233.0 L 9.5 217.0 L 8.0 191.4 L 6.6 205.8 L 5.2 212.8 M 345.3 160 L 346.8 162.1 L 348.2 145.6 L 349.7 154.1 L 351.1 149.8 L 352.5 155.7 L 354.0 152 L 355.4 160 L 356.8 163.7 L 358.3 154.1 L 359.7 157.8 M 359.7 150.4 L 358.3 117.3 L 356.8 123.7 L 355.4 140.2 L 354.0 134.4 L 352.5 146.1 L 351.1 131.7 L 349.7 122.1 L 348.2 139.7 L 346.8 125.3 L 345.3 132.8 M 362.6 155.7 L 364.0 165.3 L 365.4 152.5 L 366.9 161.6 L 368.3 157.8 L 369.8 160 L 371.2 169.0 L 372.6 180.8 L 374.1 184 L 375.5 168 L 376.9 166.4 L 378.4 163.2 L 379.8 177.6 L 381.2 163.7 L 382.7 168.5 L 384.1 162.6 L 385.5 172.2 L 387.0 175.4 L 388.4 160 L 389.8 139.2 L 391.3 170.6 L 392.7 189.8 L 394.2 188.2 M 394.2 176.5 L 392.7 165.8 L 391.3 132.8 L 389.8 128 L 388.4 129.0 L 387.0 149.8 L 385.5 154.1 L 384.1 132.2 L 382.7 133.3 L 381.2 133.8 L 379.8 122.1 L 378.4 130.1 L 376.9 145.0 L 375.5 140.8 L 374.1 136.5 L 372.6 129.6 L 371.2 120 L 369.8 140.8 L 368.3 138.6 L 366.9 130.1 L 365.4 124.8 L 364.0 143.4 L 362.6 134.9 M 398.5 194.1 L 399.9 197.3 L 401.3 198.4 L 402.8 205.3 L 404.2 210.6 L 405.6 195.7 L 407.1 195.2 L 408.5 209.6 L 409.9 226.6 L 411.4 211.2 L 412.8 212.2 L 414.3 226.6 L 415.7 229.8 L 417.1 201.0 L 418.6 189.8 L 420.0 212.2 L 421.4 219.7 L 422.9 198.4 L 424.3 217.6 L 425.7 208 L 427.2 206.4 L 428.6 197.8 L 430.0 188.2 L 431.5 195.7 L 433.0 213.3 L 434.4 213.3 L 435.8 219.2 L 437.3 220.2 L 438.7 211.7 L 440.2 217.0 L 441.6 189.3 L 443.0 213.3 L 444.5 213.3 L 445.9 213.3 L 447.3 225.0 L 448.8 227.2 L 450.2 222.4 L 451.6 213.3 L 453.1 223.4 L 454.5 227.2 L 455.9 227.2 L 457.4 236.8 L 458.8 241.0 M 458.8 212.2 L 457.4 222.4 L 455.9 206.9 L 454.5 214.4 L 453.1 209.0 L 451.6 185.6 L 450.2 158.4 L 448.8 204.2 L 447.3 185.6 L 445.9 177.6 L 444.5 213.3 L 443.0 189.8 L 441.6 174.4 L 440.2 187.2 L 438.7 190.4 L 437.3 189.3 L 435.8 184.5 L 434.4 202.6 L 433.0 175.4 L 431.5 155.7 L 430.0 165.3 L 428.6 152.5 L 427.2 190.9 L 425.7 161.6 L 424.3 174.9 L 422.9 179.2 L 421.4 174.9 L 420.0 171.7 L 418.6 155.7 L 417.1 168 L 415.7 184.5 L 414.3 185.0 L 412.8 162.1 L 411.4 168 L 409.9 180.2 L 408.5 177.6 L 407.1 185.0 L 405.6 164.8 L 404.2 182.4 L 402.8 173.3 L 401.3 165.3 L 399.9 177.0 L 398.5 194.1 M 461.7 206.4 L 463.1 213.8 L 464.6 204.2 L 466.0 189.3 L 467.4 187.7 L 468.9 187.2 L 470.3 200.5 L 471.7 200.5 L 473.2 203.2 L 474.6 197.8 L 476.0 197.8 L 477.5 192.5 L 478.9 209.0 L 480.4 213.3 L 481.8 205.3 L 483.2 233.6 L 484.7 230.9 L 486.1 228.2 L 487.5 227.7 L 489.0 217.0 L 490.4 211.7 L 491.8 197.8 L 493.3 213.3 L 494.7 210.1 L 496.1 212.8 L 497.6 198.4 L 499.0 219.7 L 500.4 234.6 L 501.9 217.0 L 503.3 210.6 L 504.8 218.6 L 506.2 254.9 L 507.6 276.8 L 509.1 285.3 L 510.5 254.9 L 511.9 273.0 L 513.4 283.2 L 514.8 283.7 L 516.2 271.4 L 517.7 258.1 L 519.1 245.8 L 520.5 227.2 L 522.0 228.8 L 523.4 227.7 L 524.9 270.9 L 526.3 272.5 L 527.7 278.4 M 527.7 248 L 526.3 256 L 524.9 220.2 L 523.4 209.6 L 522.0 209.6 L 520.5 219.7 L 519.1 219.7 L 517.7 221.3 L 516.2 254.4 L 514.8 241.0 L 513.4 251.7 L 511.9 216.5 L 510.5 222.4 L 509.1 255.4 L 507.6 255.4 L 506.2 218.6 L 504.8 205.3 L 503.3 204.8 L 501.9 209.6 L 500.4 215.4 L 499.0 201.6 L 497.6 192.5 L 496.1 186.1 L 494.7 198.4 L 493.3 177.0 L 491.8 161.0 L 490.4 180.8 L 489.0 190.9 L 487.5 193.0 L 486.1 217.0 L 484.7 204.2 L 483.2 205.3 L 481.8 195.2 L 480.4 187.7 L 478.9 182.9 L 477.5 172.8 L 476.0 187.2 L 474.6 182.9 L 473.2 185.6 L 471.7 188.8 L 470.3 167.4 L 468.9 157.8 L 467.4 181.8 L 466.0 179.7 L 464.6 181.8 L 463.1 192.5 L 461.7 165.8" stroke="black" stroke-width="1"  stroke-linejoin="round" stroke-linecap="round"  stroke-opacity="0.1" transform="translate(1, 1)"></path><path fill="none" d="M 5.2 244.2 L 6.6 235.2 L 8.0 216 L 9.5 260.8 L 10.9 265.0 L 12.4 231.4 L 13.8 234.1 L 15.2 226.1 L 16.7 193.0 L 18.1 196.8 L 19.5 213.3 L 21.0 183.4 L 22.4 194.1 L 23.8 232.5 L 25.3 245.3 L 26.7 233.6 L 28.1 205.3 L 29.6 213.3 L 31.0 219.2 L 32.5 210.6 L 33.9 213.3 L 35.3 216.5 L 36.8 209.0 L 38.2 210.1 L 39.6 234.1 L 41.1 236.2 L 42.5 245.8 L 43.9 214.9 L 45.4 228.8 L 46.8 234.6 L 48.2 236.8 L 49.7 240 L 51.1 241.0 L 52.5 246.9 L 54.0 242.1 L 55.4 224.5 L 56.9 237.8 L 58.3 242.1 L 59.7 259.7 L 61.2 241.0 L 62.6 259.2 L 64.0 258.6 L 65.5 238.9 L 66.9 257.6 L 68.3 259.2 L 69.8 230.4 L 71.2 217.0 L 72.6 212.2 L 74.1 213.3 L 75.5 206.9 L 77.0 206.4 L 78.4 208 L 79.8 207.4 L 81.3 208 L 82.7 208.5 L 84.1 205.3 L 85.6 210.6 L 87.0 239.4 L 88.4 242.1 L 89.9 223.4 L 91.3 208.5 L 92.7 204.2 L 94.2 213.3 L 95.6 200 L 97.1 202.1 L 98.5 205.3 L 99.9 210.1 L 101.4 203.2 L 102.8 203.7 L 104.2 212.2 L 105.7 214.9 L 107.1 204.8 L 108.5 215.4 L 110.0 224 L 111.4 201.6 L 112.8 213.3 L 114.3 209.0 L 115.7 222.4 L 117.2 224 L 118.6 214.9 L 120.0 204.2 L 121.5 217.6 L 122.9 232 L 124.3 227.2 L 125.8 217.0 L 127.2 228.2 L 128.6 228.8 L 130.1 211.7 L 131.4 210.6 L 132.9 204.8 L 134.3 220.8 L 135.8 198.4 L 137.2 195.2 L 138.6 210.1 L 140.1 184 L 141.5 195.7 L 142.9 210.1 L 144.4 197.3 L 145.8 178.1 L 147.2 183.4 L 148.7 183.4 L 150.1 191.4 L 151.5 211.2 L 153.0 210.6 L 154.4 193.0 L 155.9 181.3 L 157.3 192.5 L 158.7 209.0 L 160.2 197.8 L 161.6 175.4 L 163.0 200.5 L 164.5 188.2 L 165.9 202.6 L 167.3 162.6 L 168.8 195.2 L 170.2 177.6 L 171.6 187.2 L 173.1 168.5 L 174.5 191.4 L 175.9 178.1 L 177.4 166.9 L 178.8 164.2 L 180.3 180.2 L 181.7 213.3 L 183.1 189.3 L 184.6 196.2 L 186.0 196.8 L 187.4 179.2 L 188.9 186.6 L 190.3 187.7 L 191.7 194.6 L 193.2 189.3 L 194.6 202.6 L 196.0 190.4 L 197.5 189.3 L 198.9 170.6 L 200.4 173.8 L 201.8 168.5 L 203.2 169.0 L 204.7 169.0 L 206.1 177.6 L 207.5 172.8 L 209.0 178.1 L 210.4 166.9 L 211.8 165.8 L 213.3 168.5 L 214.7 181.8 L 216.1 186.1 L 217.6 169.0 L 219.0 180.2 L 220.5 171.7 L 221.9 174.4 L 223.3 166.9 L 224.8 174.4 L 226.2 192.5 L 227.6 179.2 L 229.1 197.8 L 230.5 192.5 L 231.9 178.6 L 233.4 170.6 L 234.8 171.7 L 236.2 167.4 L 237.7 169.6 L 239.1 162.6 L 240.5 182.9 L 242.0 176 L 243.4 190.4 L 244.9 194.1 L 246.3 155.7 L 247.7 167.4 L 249.2 156.2 L 250.6 161.6 L 252.0 161.0 L 253.5 145.0 L 254.9 167.4 L 256.3 155.2 L 257.8 141.3 L 259.2 146.6 L 260.6 138.6 L 262.1 133.8 L 263.5 123.2 L 265.0 137.0 L 266.4 136 L 267.8 130.6 L 269.3 124.2 L 270.7 125.3 L 272.1 118.4 L 273.6 141.3 L 275.0 157.3 L 276.4 164.2 L 277.9 151.4 L 279.3 156.2 L 280.7 154.6 L 282.2 151.4 L 283.6 150.4 L 285.1 146.1 L 286.5 140.8 L 287.9 152.5 L 289.4 142.9 L 290.8 137.6 L 292.2 143.4 L 293.7 148.2 L 295.1 149.3 L 296.5 149.3 L 298.0 145.6 L 299.4 147.2 L 300.8 146.1 L 302.3 149.8 L 303.7 154.6 L 305.2 155.7 L 306.6 150.4 L 308.0 155.7 L 309.5 165.3 L 310.9 154.6 L 312.3 146.1 L 313.8 136 L 315.2 149.8 L 316.6 128 L 318.1 139.7 L 319.5 140.2 L 320.9 140.8 L 322.4 157.3 L 323.8 145.0 L 325.2 149.8 L 326.7 155.2 L 328.1 166.4 L 329.6 174.4 L 331.0 156.2 L 332.4 147.7 L 333.9 160.5 L 335.3 172.2 L 336.7 145.6 L 338.2 145.0 L 339.6 156.8 L 341.0 153.0 L 342.5 153.0 M 342.5 139.7 L 341.0 114.6 L 339.6 118.9 L 338.2 105.0 L 336.7 72 L 335.3 128 L 333.9 115.2 L 332.4 120 L 331.0 138.6 L 329.6 140.8 L 328.1 123.7 L 326.7 125.8 L 325.2 115.2 L 323.8 115.2 L 322.4 94.4 L 320.9 95.4 L 319.5 98.6 L 318.1 81.0 L 316.6 98.6 L 315.2 85.3 L 313.8 92.2 L 312.3 93.3 L 310.9 105.6 L 309.5 107.2 L 308.0 127.4 L 306.6 114.6 L 305.2 118.4 L 303.7 110.4 L 302.3 105.6 L 300.8 107.2 L 299.4 109.8 L 298.0 115.7 L 296.5 122.1 L 295.1 102.4 L 293.7 130.6 L 292.2 122.1 L 290.8 98.1 L 289.4 80 L 287.9 92.8 L 286.5 108.8 L 285.1 93.8 L 283.6 102.9 L 282.2 86.9 L 280.7 89.0 L 279.3 86.9 L 277.9 97.0 L 276.4 86.4 L 275.0 99.2 L 273.6 81.0 L 272.1 76.2 L 270.7 80 L 269.3 49.6 L 267.8 55.4 L 266.4 65.0 L 265.0 65.6 L 263.5 93.3 L 262.1 56 L 260.6 63.4 L 259.2 89.6 L 257.8 64 L 256.3 71.4 L 254.9 84.8 L 253.5 109.3 L 252.0 103.4 L 250.6 112.5 L 249.2 122.6 L 247.7 126.4 L 246.3 133.3 L 244.9 111.4 L 243.4 129.0 L 242.0 123.2 L 240.5 113.6 L 239.1 122.6 L 237.7 116.2 L 236.2 131.7 L 234.8 126.9 L 233.4 137.6 L 231.9 123.7 L 230.5 117.8 L 229.1 117.8 L 227.6 121.0 L 226.2 130.6 L 224.8 139.2 L 223.3 126.9 L 221.9 97.6 L 220.5 92.8 L 219.0 92.8 L 217.6 128 L 216.1 123.2 L 214.7 137.6 L 213.3 152 L 211.8 118.9 L 210.4 118.9 L 209.0 121.0 L 207.5 120 L 206.1 122.6 L 204.7 117.8 L 203.2 132.2 L 201.8 118.9 L 200.4 102.9 L 198.9 102.9 L 197.5 113.0 L 196.0 115.7 L 194.6 122.6 L 193.2 133.3 L 191.7 144 L 190.3 152 L 188.9 141.3 L 187.4 135.4 L 186.0 140.2 L 184.6 137.0 L 183.1 153.6 L 181.7 141.8 L 180.3 144.5 L 178.8 125.8 L 177.4 99.2 L 175.9 107.2 L 174.5 114.1 L 173.1 131.7 L 171.6 129.0 L 170.2 111.4 L 168.8 124.2 L 167.3 120.5 L 165.9 126.4 L 164.5 144.5 L 163.0 144.5 L 161.6 148.2 L 160.2 121.0 L 158.7 137.0 L 157.3 139.2 L 155.9 151.4 L 154.4 130.1 L 153.0 140.8 L 151.5 150.4 L 150.1 160 L 148.7 132.2 L 147.2 158.4 L 145.8 132.2 L 144.4 140.2 L 142.9 141.3 L 141.5 169.0 L 140.1 169.0 L 138.6 141.3 L 137.2 149.3 L 135.8 177.0 L 134.3 174.4 L 132.9 188.2 L 131.4 173.3 L 130.1 176 L 128.6 180.8 L 127.2 181.3 L 125.8 170.6 L 124.3 186.6 L 122.9 182.9 L 121.5 182.9 L 120.0 181.8 L 118.6 182.9 L 117.2 179.7 L 115.7 173.3 L 114.3 163.7 L 112.8 174.9 L 111.4 177.6 L 110.0 184.5 L 108.5 166.4 L 107.1 169.0 L 105.7 181.8 L 104.2 167.4 L 102.8 176 L 101.4 163.2 L 99.9 171.2 L 98.5 176.5 L 97.1 183.4 L 95.6 172.2 L 94.2 164.8 L 92.7 170.1 L 91.3 170.1 L 89.9 192 L 88.4 205.8 L 87.0 193.0 L 85.6 184.5 L 84.1 190.4 L 82.7 193.6 L 81.3 178.6 L 79.8 184 L 78.4 201.0 L 77.0 182.9 L 75.5 189.3 L 74.1 192.5 L 72.6 196.2 L 71.2 191.4 L 69.8 205.3 L 68.3 207.4 L 66.9 205.8 L 65.5 204.2 L 64.0 212.8 L 62.6 225.0 L 61.2 206.4 L 59.7 227.2 L 58.3 210.1 L 56.9 205.3 L 55.4 205.8 L 54.0 216.5 L 52.5 216.5 L 51.1 225.6 L 49.7 227.7 L 48.2 223.4 L 46.8 218.6 L 45.4 198.9 L 43.9 203.2 L 42.5 215.4 L 41.1 202.6 L 39.6 205.8 L 38.2 189.8 L 36.8 188.2 L 35.3 202.1 L 33.9 200 L 32.5 186.1 L 31.0 194.1 L 29.6 189.3 L 28.1 190.9 L 26.7 200.5 L 25.3 221.3 L 23.8 193.0 L 22.4 178.6 L 21.0 163.2 L 19.5 172.8 L 18.1 177.0 L 16.7 176.5 L 15.2 177.6 L 13.8 214.4 L 12.4 196.2 L 10.9 233.0 L 9.5 217.0 L 8.0 191.4 L 6.6 205.8 L 5.2 212.8 M 345.3 160 L 346.8 162.1 L 348.2 145.6 L 349.7 154.1 L 351.1 149.8 L 352.5 155.7 L 354.0 152 L 355.4 160 L 356.8 163.7 L 358.3 154.1 L 359.7 157.8 M 359.7 150.4 L 358.3 117.3 L 356.8 123.7 L 355.4 140.2 L 354.0 134.4 L 352.5 146.1 L 351.1 131.7 L 349.7 122.1 L 348.2 139.7 L 346.8 125.3 L 345.3 132.8 M 362.6 155.7 L 364.0 165.3 L 365.4 152.5 L 366.9 161.6 L 368.3 157.8 L 369.8 160 L 371.2 169.0 L 372.6 180.8 L 374.1 184 L 375.5 168 L 376.9 166.4 L 378.4 163.2 L 379.8 177.6 L 381.2 163.7 L 382.7 168.5 L 384.1 162.6 L 385.5 172.2 L 387.0 175.4 L 388.4 160 L 389.8 139.2 L 391.3 170.6 L 392.7 189.8 L 394.2 188.2 M 394.2 176.5 L 392.7 165.8 L 391.3 132.8 L 389.8 128 L 388.4 129.0 L 387.0 149.8 L 385.5 154.1 L 384.1 132.2 L 382.7 133.3 L 381.2 133.8 L 379.8 122.1 L 378.4 130.1 L 376.9 145.0 L 375.5 140.8 L 374.1 136.5 L 372.6 129.6 L 371.2 120 L 369.8 140.8 L 368.3 138.6 L 366.9 130.1 L 365.4 124.8 L 364.0 143.4 L 362.6 134.9 M 398.5 194.1 L 399.9 197.3 L 401.3 198.4 L 402.8 205.3 L 404.2 210.6 L 405.6 195.7 L 407.1 195.2 L 408.5 209.6 L 409.9 226.6 L 411.4 211.2 L 412.8 212.2 L 414.3 226.6 L 415.7 229.8 L 417.1 201.0 L 418.6 189.8 L 420.0 212.2 L 421.4 219.7 L 422.9 198.4 L 424.3 217.6 L 425.7 208 L 427.2 206.4 L 428.6 197.8 L 430.0 188.2 L 431.5 195.7 L 433.0 213.3 L 434.4 213.3 L 435.8 219.2 L 437.3 220.2 L 438.7 211.7 L 440.2 217.0 L 441.6 189.3 L 443.0 213.3 L 444.5 213.3 L 445.9 213.3 L 447.3 225.0 L 448.8 227.2 L 450.2 222.4 L 451.6 213.3 L 453.1 223.4 L 454.5 227.2 L 455.9 227.2 L 457.4 236.8 L 458.8 241.0 M 458.8 212.2 L 457.4 222.4 L 455.9 206.9 L 454.5 214.4 L 453.1 209.0 L 451.6 185.6 L 450.2 158.4 L 448.8 204.2 L 447.3 185.6 L 445.9 177.6 L 444.5 213.3 L 443.0 189.8 L 441.6 174.4 L 440.2 187.2 L 438.7 190.4 L 437.3 189.3 L 435.8 184.5 L 434.4 202.6 L 433.0 175.4 L 431.5 155.7 L 430.0 165.3 L 428.6 152.5 L 427.2 190.9 L 425.7 161.6 L 424.3 174.9 L 422.9 179.2 L 421.4 174.9 L 420.0 171.7 L 418.6 155.7 L 417.1 168 L 415.7 184.5 L 414.3 185.0 L 412.8 162.1 L 411.4 168 L 409.9 180.2 L 408.5 177.6 L 407.1 185.0 L 405.6 164.8 L 404.2 182.4 L 402.8 173.3 L 401.3 165.3 L 399.9 177.0 L 398.5 194.1 M 461.7 206.4 L 463.1 213.8 L 464.6 204.2 L 466.0 189.3 L 467.4 187.7 L 468.9 187.2 L 470.3 200.5 L 471.7 200.5 L 473.2 203.2 L 474.6 197.8 L 476.0 197.8 L 477.5 192.5 L 478.9 209.0 L 480.4 213.3 L 481.8 205.3 L 483.2 233.6 L 484.7 230.9 L 486.1 228.2 L 487.5 227.7 L 489.0 217.0 L 490.4 211.7 L 491.8 197.8 L 493.3 213.3 L 494.7 210.1 L 496.1 212.8 L 497.6 198.4 L 499.0 219.7 L 500.4 234.6 L 501.9 217.0 L 503.3 210.6 L 504.8 218.6 L 506.2 254.9 L 507.6 276.8 L 509.1 285.3 L 510.5 254.9 L 511.9 273.0 L 513.4 283.2 L 514.8 283.7 L 516.2 271.4 L 517.7 258.1 L 519.1 245.8 L 520.5 227.2 L 522.0 228.8 L 523.4 227.7 L 524.9 270.9 L 526.3 272.5 L 527.7 278.4 M 527.7 248 L 526.3 256 L 524.9 220.2 L 523.4 209.6 L 522.0 209.6 L 520.5 219.7 L 519.1 219.7 L 517.7 221.3 L 516.2 254.4 L 514.8 241.0 L 513.4 251.7 L 511.9 216.5 L 510.5 222.4 L 509.1 255.4 L 507.6 255.4 L 506.2 218.6 L 504.8 205.3 L 503.3 204.8 L 501.9 209.6 L 500.4 215.4 L 499.0 201.6 L 497.6 192.5 L 496.1 186.1 L 494.7 198.4 L 493.3 177.0 L 491.8 161.0 L 490.4 180.8 L 489.0 190.9 L 487.5 193.0 L 486.1 217.0 L 484.7 204.2 L 483.2 205.3 L 481.8 195.2 L 480.4 187.7 L 478.9 182.9 L 477.5 172.8 L 476.0 187.2 L 474.6 182.9 L 473.2 185.6 L 471.7 188.8 L 470.3 167.4 L 468.9 157.8 L 467.4 181.8 L 466.0 179.7 L 464.6 181.8 L 463.1 192.5 L 461.7 165.8" stroke="#f45b5b" stroke-width="1"  stroke-linejoin="round" stroke-linecap="round"></path><path fill="rgb(192,192,192)" fill-opacity="0.0" d="M 5.2 244.2 L 6.6 235.2 L 8.0 216 L 9.5 260.8 L 10.9 265.0 L 12.4 231.4 L 13.8 234.1 L 15.2 226.1 L 16.7 193.0 L 18.1 196.8 L 19.5 213.3 L 21.0 183.4 L 22.4 194.1 L 23.8 232.5 L 25.3 245.3 L 26.7 233.6 L 28.1 205.3 L 29.6 213.3 L 31.0 219.2 L 32.5 210.6 L 33.9 213.3 L 35.3 216.5 L 36.8 209.0 L 38.2 210.1 L 39.6 234.1 L 41.1 236.2 L 42.5 245.8 L 43.9 214.9 L 45.4 228.8 L 46.8 234.6 L 48.2 236.8 L 49.7 240 L 51.1 241.0 L 52.5 246.9 L 54.0 242.1 L 55.4 224.5 L 56.9 237.8 L 58.3 242.1 L 59.7 259.7 L 61.2 241.0 L 62.6 259.2 L 64.0 258.6 L 65.5 238.9 L 66.9 257.6 L 68.3 259.2 L 69.8 230.4 L 71.2 217.0 L 72.6 212.2 L 74.1 213.3 L 75.5 206.9 L 77.0 206.4 L 78.4 208 L 79.8 207.4 L 81.3 208 L 82.7 208.5 L 84.1 205.3 L 85.6 210.6 L 87.0 239.4 L 88.4 242.1 L 89.9 223.4 L 91.3 208.5 L 92.7 204.2 L 94.2 213.3 L 95.6 200 L 97.1 202.1 L 98.5 205.3 L 99.9 210.1 L 101.4 203.2 L 102.8 203.7 L 104.2 212.2 L 105.7 214.9 L 107.1 204.8 L 108.5 215.4 L 110.0 224 L 111.4 201.6 L 112.8 213.3 L 114.3 209.0 L 115.7 222.4 L 117.2 224 L 118.6 214.9 L 120.0 204.2 L 121.5 217.6 L 122.9 232 L 124.3 227.2 L 125.8 217.0 L 127.2 228.2 L 128.6 228.8 L 130.1 211.7 L 131.4 210.6 L 132.9 204.8 L 134.3 220.8 L 135.8 198.4 L 137.2 195.2 L 138.6 210.1 L 140.1 184 L 141.5 195.7 L 142.9 210.1 L 144.4 197.3 L 145.8 178.1 L 147.2 183.4 L 148.7 183.4 L 150.1 191.4 L 151.5 211.2 L 153.0 210.6 L 154.4 193.0 L 155.9 181.3 L 157.3 192.5 L 158.7 209.0 L 160.2 197.8 L 161.6 175.4 L 163.0 200.5 L 164.5 188.2 L 165.9 202.6 L 167.3 162.6 L 168.8 195.2 L 170.2 177.6 L 171.6 187.2 L 173.1 168.5 L 174.5 191.4 L 175.9 178.1 L 177.4 166.9 L 178.8 164.2 L 180.3 180.2 L 181.7 213.3 L 183.1 189.3 L 184.6 196.2 L 186.0 196.8 L 187.4 179.2 L 188.9 186.6 L 190.3 187.7 L 191.7 194.6 L 193.2 189.3 L 194.6 202.6 L 196.0 190.4 L 197.5 189.3 L 198.9 170.6 L 200.4 173.8 L 201.8 168.5 L 203.2 169.0 L 204.7 169.0 L 206.1 177.6 L 207.5 172.8 L 209.0 178.1 L 210.4 166.9 L 211.8 165.8 L 213.3 168.5 L 214.7 181.8 L 216.1 186.1 L 217.6 169.0 L 219.0 180.2 L 220.5 171.7 L 221.9 174.4 L 223.3 166.9 L 224.8 174.4 L 226.2 192.5 L 227.6 179.2 L 229.1 197.8 L 230.5 192.5 L 231.9 178.6 L 233.4 170.6 L 234.8 171.7 L 236.2 167.4 L 237.7 169.6 L 239.1 162.6 L 240.5 182.9 L 242.0 176 L 243.4 190.4 L 244.9 194.1 L 246.3 155.7 L 247.7 167.4 L 249.2 156.2 L 250.6 161.6 L 252.0 161.0 L 253.5 145.0 L 254.9 167.4 L 256.3 155.2 L 257.8 141.3 L 259.2 146.6 L 260.6 138.6 L 262.1 133.8 L 263.5 123.2 L 265.0 137.0 L 266.4 136 L 267.8 130.6 L 269.3 124.2 L 270.7 125.3 L 272.1 118.4 L 273.6 141.3 L 275.0 157.3 L 276.4 164.2 L 277.9 151.4 L 279.3 156.2 L 280.7 154.6 L 282.2 151.4 L 283.6 150.4 L 285.1 146.1 L 286.5 140.8 L 287.9 152.5 L 289.4 142.9 L 290.8 137.6 L 292.2 143.4 L 293.7 148.2 L 295.1 149.3 L 296.5 149.3 L 298.0 145.6 L 299.4 147.2 L 300.8 146.1 L 302.3 149.8 L 303.7 154.6 L 305.2 155.7 L 306.6 150.4 L 308.0 155.7 L 309.5 165.3 L 310.9 154.6 L 312.3 146.1 L 313.8 136 L 315.2 149.8 L 316.6 128 L 318.1 139.7 L 319.5 140.2 L 320.9 140.8 L 322.4 157.3 L 323.8 145.0 L 325.2 149.8 L 326.7 155.2 L 328.1 166.4 L 329.6 174.4 L 331.0 156.2 L 332.4 147.7 L 333.9 160.5 L 335.3 172.2 L 336.7 145.6 L 338.2 145.0 L 339.6 156.8 L 341.0 153.0 L 342.5 153.0 L 342.5 139.7 L 341.0 114.6 L 339.6 118.9 L 338.2 105.0 L 336.7 72 L 335.3 128 L 333.9 115.2 L 332.4 120 L 331.0 138.6 L 329.6 140.8 L 328.1 123.7 L 326.7 125.8 L 325.2 115.2 L 323.8 115.2 L 322.4 94.4 L 320.9 95.4 L 319.5 98.6 L 318.1 81.0 L 316.6 98.6 L 315.2 85.3 L 313.8 92.2 L 312.3 93.3 L 310.9 105.6 L 309.5 107.2 L 308.0 127.4 L 306.6 114.6 L 305.2 118.4 L 303.7 110.4 L 302.3 105.6 L 300.8 107.2 L 299.4 109.8 L 298.0 115.7 L 296.5 122.1 L 295.1 102.4 L 293.7 130.6 L 292.2 122.1 L 290.8 98.1 L 289.4 80 L 287.9 92.8 L 286.5 108.8 L 285.1 93.8 L 283.6 102.9 L 282.2 86.9 L 280.7 89.0 L 279.3 86.9 L 277.9 97.0 L 276.4 86.4 L 275.0 99.2 L 273.6 81.0 L 272.1 76.2 L 270.7 80 L 269.3 49.6 L 267.8 55.4 L 266.4 65.0 L 265.0 65.6 L 263.5 93.3 L 262.1 56 L 260.6 63.4 L 259.2 89.6 L 257.8 64 L 256.3 71.4 L 254.9 84.8 L 253.5 109.3 L 252.0 103.4 L 250.6 112.5 L 249.2 122.6 L 247.7 126.4 L 246.3 133.3 L 244.9 111.4 L 243.4 129.0 L 242.0 123.2 L 240.5 113.6 L 239.1 122.6 L 237.7 116.2 L 236.2 131.7 L 234.8 126.9 L 233.4 137.6 L 231.9 123.7 L 230.5 117.8 L 229.1 117.8 L 227.6 121.0 L 226.2 130.6 L 224.8 139.2 L 223.3 126.9 L 221.9 97.6 L 220.5 92.8 L 219.0 92.8 L 217.6 128 L 216.1 123.2 L 214.7 137.6 L 213.3 152 L 211.8 118.9 L 210.4 118.9 L 209.0 121.0 L 207.5 120 L 206.1 122.6 L 204.7 117.8 L 203.2 132.2 L 201.8 118.9 L 200.4 102.9 L 198.9 102.9 L 197.5 113.0 L 196.0 115.7 L 194.6 122.6 L 193.2 133.3 L 191.7 144 L 190.3 152 L 188.9 141.3 L 187.4 135.4 L 186.0 140.2 L 184.6 137.0 L 183.1 153.6 L 181.7 141.8 L 180.3 144.5 L 178.8 125.8 L 177.4 99.2 L 175.9 107.2 L 174.5 114.1 L 173.1 131.7 L 171.6 129.0 L 170.2 111.4 L 168.8 124.2 L 167.3 120.5 L 165.9 126.4 L 164.5 144.5 L 163.0 144.5 L 161.6 148.2 L 160.2 121.0 L 158.7 137.0 L 157.3 139.2 L 155.9 151.4 L 154.4 130.1 L 153.0 140.8 L 151.5 150.4 L 150.1 160 L 148.7 132.2 L 147.2 158.4 L 145.8 132.2 L 144.4 140.2 L 142.9 141.3 L 141.5 169.0 L 140.1 169.0 L 138.6 141.3 L 137.2 149.3 L 135.8 177.0 L 134.3 174.4 L 132.9 188.2 L 131.4 173.3 L 130.1 176 L 128.6 180.8 L 127.2 181.3 L 125.8 170.6 L 124.3 186.6 L 122.9 182.9 L 121.5 182.9 L 120.0 181.8 L 118.6 182.9 L 117.2 179.7 L 115.7 173.3 L 114.3 163.7 L 112.8 174.9 L 111.4 177.6 L 110.0 184.5 L 108.5 166.4 L 107.1 169.0 L 105.7 181.8 L 104.2 167.4 L 102.8 176 L 101.4 163.2 L 99.9 171.2 L 98.5 176.5 L 97.1 183.4 L 95.6 172.2 L 94.2 164.8 L 92.7 170.1 L 91.3 170.1 L 89.9 192 L 88.4 205.8 L 87.0 193.0 L 85.6 184.5 L 84.1 190.4 L 82.7 193.6 L 81.3 178.6 L 79.8 184 L 78.4 201.0 L 77.0 182.9 L 75.5 189.3 L 74.1 192.5 L 72.6 196.2 L 71.2 191.4 L 69.8 205.3 L 68.3 207.4 L 66.9 205.8 L 65.5 204.2 L 64.0 212.8 L 62.6 225.0 L 61.2 206.4 L 59.7 227.2 L 58.3 210.1 L 56.9 205.3 L 55.4 205.8 L 54.0 216.5 L 52.5 216.5 L 51.1 225.6 L 49.7 227.7 L 48.2 223.4 L 46.8 218.6 L 45.4 198.9 L 43.9 203.2 L 42.5 215.4 L 41.1 202.6 L 39.6 205.8 L 38.2 189.8 L 36.8 188.2 L 35.3 202.1 L 33.9 200 L 32.5 186.1 L 31.0 194.1 L 29.6 189.3 L 28.1 190.9 L 26.7 200.5 L 25.3 221.3 L 23.8 193.0 L 22.4 178.6 L 21.0 163.2 L 19.5 172.8 L 18.1 177.0 L 16.7 176.5 L 15.2 177.6 L 13.8 214.4 L 12.4 196.2 L 10.9 233.0 L 9.5 217.0 L 8.0 191.4 L 6.6 205.8 L 5.2 212.8 M 345.3 160 L 346.8 162.1 L 348.2 145.6 L 349.7 154.1 L 351.1 149.8 L 352.5 155.7 L 354.0 152 L 355.4 160 L 356.8 163.7 L 358.3 154.1 L 359.7 157.8 L 359.7 150.4 L 358.3 117.3 L 356.8 123.7 L 355.4 140.2 L 354.0 134.4 L 352.5 146.1 L 351.1 131.7 L 349.7 122.1 L 348.2 139.7 L 346.8 125.3 L 345.3 132.8 M 362.6 155.7 L 364.0 165.3 L 365.4 152.5 L 366.9 161.6 L 368.3 157.8 L 369.8 160 L 371.2 169.0 L 372.6 180.8 L 374.1 184 L 375.5 168 L 376.9 166.4 L 378.4 163.2 L 379.8 177.6 L 381.2 163.7 L 382.7 168.5 L 384.1 162.6 L 385.5 172.2 L 387.0 175.4 L 388.4 160 L 389.8 139.2 L 391.3 170.6 L 392.7 189.8 L 394.2 188.2 L 394.2 176.5 L 392.7 165.8 L 391.3 132.8 L 389.8 128 L 388.4 129.0 L 387.0 149.8 L 385.5 154.1 L 384.1 132.2 L 382.7 133.3 L 381.2 133.8 L 379.8 122.1 L 378.4 130.1 L 376.9 145.0 L 375.5 140.8 L 374.1 136.5 L 372.6 129.6 L 371.2 120 L 369.8 140.8 L 368.3 138.6 L 366.9 130.1 L 365.4 124.8 L 364.0 143.4 L 362.6 134.9 M 398.5 194.1 L 399.9 197.3 L 401.3 198.4 L 402.8 205.3 L 404.2 210.6 L 405.6 195.7 L 407.1 195.2 L 408.5 209.6 L 409.9 226.6 L 411.4 211.2 L 412.8 212.2 L 414.3 226.6 L 415.7 229.8 L 417.1 201.0 L 418.6 189.8 L 420.0 212.2 L 421.4 219.7 L 422.9 198.4 L 424.3 217.6 L 425.7 208 L 427.2 206.4 L 428.6 197.8 L 430.0 188.2 L 431.5 195.7 L 433.0 213.3 L 434.4 213.3 L 435.8 219.2 L 437.3 220.2 L 438.7 211.7 L 440.2 217.0 L 441.6 189.3 L 443.0 213.3 L 444.5 213.3 L 445.9 213.3 L 447.3 225.0 L 448.8 227.2 L 450.2 222.4 L 451.6 213.3 L 453.1 223.4 L 454.5 227.2 L 455.9 227.2 L 457.4 236.8 L 458.8 241.0 L 458.8 212.2 L 457.4 222.4 L 455.9 206.9 L 454.5 214.4 L 453.1 209.0 L 451.6 185.6 L 450.2 158.4 L 448.8 204.2 L 447.3 185.6 L 445.9 177.6 L 444.5 213.3 L 443.0 189.8 L 441.6 174.4 L 440.2 187.2 L 438.7 190.4 L 437.3 189.3 L 435.8 184.5 L 434.4 202.6 L 433.0 175.4 L 431.5 155.7 L 430.0 165.3 L 428.6 152.5 L 427.2 190.9 L 425.7 161.6 L 424.3 174.9 L 422.9 179.2 L 421.4 174.9 L 420.0 171.7 L 418.6 155.7 L 417.1 168 L 415.7 184.5 L 414.3 185.0 L 412.8 162.1 L 411.4 168 L 409.9 180.2 L 408.5 177.6 L 407.1 185.0 L 405.6 164.8 L 404.2 182.4 L 402.8 173.3 L 401.3 165.3 L 399.9 177.0 L 398.5 194.1 M 461.7 206.4 L 463.1 213.8 L 464.6 204.2 L 466.0 189.3 L 467.4 187.7 L 468.9 187.2 L 470.3 200.5 L 471.7 200.5 L 473.2 203.2 L 474.6 197.8 L 476.0 197.8 L 477.5 192.5 L 478.9 209.0 L 480.4 213.3 L 481.8 205.3 L 483.2 233.6 L 484.7 230.9 L 486.1 228.2 L 487.5 227.7 L 489.0 217.0 L 490.4 211.7 L 491.8 197.8 L 493.3 213.3 L 494.7 210.1 L 496.1 212.8 L 497.6 198.4 L 499.0 219.7 L 500.4 234.6 L 501.9 217.0 L 503.3 210.6 L 504.8 218.6 L 506.2 254.9 L 507.6 276.8 L 509.1 285.3 L 510.5 254.9 L 511.9 273.0 L 513.4 283.2 L 514.8 283.7 L 516.2 271.4 L 517.7 258.1 L 519.1 245.8 L 520.5 227.2 L 522.0 228.8 L 523.4 227.7 L 524.9 270.9 L 526.3 272.5 L 527.7 278.4 L 527.7 248 L 526.3 256 L 524.9 220.2 L 523.4 209.6 L 522.0 209.6 L 520.5 219.7 L 519.1 219.7 L 517.7 221.3 L 516.2 254.4 L 514.8 241.0 L 513.4 251.7 L 511.9 216.5 L 510.5 222.4 L 509.1 255.4 L 507.6 255.4 L 506.2 218.6 L 504.8 205.3 L 503.3 204.8 L 501.9 209.6 L 500.4 215.4 L 499.0 201.6 L 497.6 192.5 L 496.1 186.1 L 494.7 198.4 L 493.3 177.0 L 491.8 161.0 L 490.4 180.8 L 489.0 190.9 L 487.5 193.0 L 486.1 217.0 L 484.7 204.2 L 483.2 205.3 L 481.8 195.2 L 480.4 187.7 L 478.9 182.9 L 477.5 172.8 L 476.0 187.2 L 474.6 182.9 L 473.2 185.6 L 471.7 188.8 L 470.3 167.4 L 468.9 157.8 L 467.4 181.8 L 466.0 179.7 L 464.6 181.8 L 463.1 192.5 L 461.7 165.8" stroke-linejoin="round" visibility="visible" stroke="rgb(192,192,192)" stroke-opacity="0.0" stroke-width="1"  class=" highcharts-tracker" style=""></path></g><g class="highcharts-markers highcharts-tracker" visibility="visible"  transform="translate(41,44) scale(1 1)" clip-path="url(#highcharts-2)" style=""></g></g><text x="292" text-anchor="middle" class="highcharts-title"  style="color:black;font-size:16px;font-weight:bold;fill:black;width:520px;" y="22"><tspan>Temperature variation by day</tspan></text><g class="highcharts-axis-labels highcharts-xaxis-labels" ><text x="46.1" style="color:#6e6e70;cursor:default;font-size:11px;fill:#6e6e70;width:71px;text-overflow:clip;" text-anchor="middle" transform="translate(0,0)" y="383" opacity="1"><tspan>Jan '09</tspan></text><text x="130.8" style="color:#6e6e70;cursor:default;font-size:11px;fill:#6e6e70;width:71px;text-overflow:clip;" text-anchor="middle" transform="translate(0,0)" y="383" opacity="1"><tspan>Mar '09</tspan></text><text x="218.4" style="color:#6e6e70;cursor:default;font-size:11px;fill:#6e6e70;width:71px;text-overflow:clip;" text-anchor="middle" transform="translate(0,0)" y="383" opacity="1"><tspan>May '09</tspan></text><text x="306.0" style="color:#6e6e70;cursor:default;font-size:11px;fill:#6e6e70;width:71px;text-overflow:clip;" text-anchor="middle" transform="translate(0,0)" y="383" opacity="1"><tspan>Jul '09</tspan></text><text x="395.0" style="color:#6e6e70;cursor:default;font-size:11px;fill:#6e6e70;width:71px;text-overflow:clip;" text-anchor="middle" transform="translate(0,0)" y="383" opacity="1"><tspan>Sep '09</tspan></text><text x="482.5" style="color:#6e6e70;cursor:default;font-size:11px;fill:#6e6e70;width:71px;text-overflow:clip;" text-anchor="middle" transform="translate(0,0)" y="383" opacity="1"><tspan>Nov '09</tspan></text><text x="574" style="color:#6e6e70;cursor:default;font-size:11px;fill:#6e6e70;width:71px;text-overflow:clip;" text-anchor="end" transform="translate(0,0)" y="383" opacity="1"><tspan>Jan '10</tspan></text></g><g class="highcharts-axis-labels highcharts-yaxis-labels" ><text x="26" style="color:#6e6e70;cursor:default;font-size:11px;fill:#6e6e70;width:183px;text-overflow:clip;" text-anchor="end" transform="translate(0,0)" y="369" opacity="1">-20</text><text x="26" style="color:#6e6e70;cursor:default;font-size:11px;fill:#6e6e70;width:183px;text-overflow:clip;" text-anchor="end" transform="translate(0,0)" y="315" opacity="1">-10</text><text x="26" style="color:#6e6e70;cursor:default;font-size:11px;fill:#6e6e70;width:183px;text-overflow:clip;" text-anchor="end" transform="translate(0,0)" y="262" opacity="1">0</text><text x="26" style="color:#6e6e70;cursor:default;font-size:11px;fill:#6e6e70;width:183px;text-overflow:clip;" text-anchor="end" transform="translate(0,0)" y="209" opacity="1">10</text><text x="26" style="color:#6e6e70;cursor:default;font-size:11px;fill:#6e6e70;width:183px;text-overflow:clip;" text-anchor="end" transform="translate(0,0)" y="155" opacity="1">20</text><text x="26" style="color:#6e6e70;cursor:default;font-size:11px;fill:#6e6e70;width:183px;text-overflow:clip;" text-anchor="end" transform="translate(0,0)" y="102" opacity="1">30</text><text x="26" style="color:#6e6e70;cursor:default;font-size:11px;fill:#6e6e70;width:183px;text-overflow:clip;" text-anchor="end" transform="translate(0,0)" y="49" opacity="1">40</text></g><g class="highcharts-tooltip"  style="cursor:default;padding:0;white-space:nowrap;" transform="translate(0,-9999)"><path fill="none" d="M 3 0 L 13 0 C 16 0 16 0 16 3 L 16 13 C 16 16 16 16 13 16 L 3 16 C 0 16 0 16 0 13 L 0 3 C 0 0 0 0 3 0"  stroke="black" stroke-opacity="0.0" stroke-width="5" transform="translate(1, 1)"></path><path fill="none" d="M 3 0 L 13 0 C 16 0 16 0 16 3 L 16 13 C 16 16 16 16 13 16 L 3 16 C 0 16 0 16 0 13 L 0 3 C 0 0 0 0 3 0"  stroke="black" stroke-opacity="0.0" stroke-width="3" transform="translate(1, 1)"></path><path fill="none" d="M 3 0 L 13 0 C 16 0 16 0 16 3 L 16 13 C 16 16 16 16 13 16 L 3 16 C 0 16 0 16 0 13 L 0 3 C 0 0 0 0 3 0"  stroke="black" stroke-opacity="0.1" stroke-width="1" transform="translate(1, 1)"></path><path fill="rgb(249, 249, 249)" fill-opacity=" .85" d="M 3 0 L 13 0 C 16 0 16 0 16 3 L 16 13 C 16 16 16 16 13 16 L 3 16 C 0 16 0 16 0 13 L 0 3 C 0 0 0 0 3 0"></path><text x="8"  style="font-size:12px;color:#333333;fill:#333333;" transform="translate(0,20)"></text></g></svg>