<svg version="1.1" style="font-family: signika, serif; font-size: 12px; background-image: url(http://www.highcharts.com/samples/graphics/sand.png); background-attachment: initial; background-origin: initial; background-clip: initial; background-color: initial; background-position: initial initial; background-repeat: initial initial; " xmlns="http://www.w3.org/2000/svg" width="584" height="400" viewBox="0 0 584 400" xmlns:xlink="http://www.w3.org/1999/xlink"><style type="text/css"><![CDATA[@import url(http://fonts.googleapis.com/css?family=Signika:700);]]></style><desc>Created with Highcharts 4.1.4</desc><defs><clipPath id="highcharts-1"><rect x="0" y="0" width="301" height="492"></rect></clipPath><clipPath id="highcharts-2"><rect x="-99" y="-82" width="400" height="584"></rect></clipPath><clipPath id="highcharts-3"><rect x="0" y="0" width="301" height="492"></rect></clipPath></defs><g class="highcharts-grid" ></g><g class="highcharts-grid" ><path fill="none" d="M 81.5 44 L 81.5 345" stroke="#D8D8D8" stroke-width="1"  opacity="1"></path><path fill="none" d="M 151.5 44 L 151.5 345" stroke="#D8D8D8" stroke-width="1"  opacity="1"></path><path fill="none" d="M 222.5 44 L 222.5 345" stroke="#D8D8D8" stroke-width="1"  opacity="1"></path><path fill="none" d="M 292.5 44 L 292.5 345" stroke="#D8D8D8" stroke-width="1"  opacity="1"></path><path fill="none" d="M 362.5 44 L 362.5 345" stroke="#D8D8D8" stroke-width="1"  opacity="1"></path><path fill="none" d="M 432.5 44 L 432.5 345" stroke="#D8D8D8" stroke-width="1"  opacity="1"></path><path fill="none" d="M 503.5 44 L 503.5 345" stroke="#D8D8D8" stroke-width="1"  opacity="1"></path><path fill="none" d="M 574.5 44 L 574.5 345" stroke="#D8D8D8" stroke-width="1"  opacity="1"></path></g><g class="highcharts-axis" ><path fill="none" d="M 82 87.5 L 72 87.5" stroke="#C0D0E0" stroke-width="1" opacity="1"></path><path fill="none" d="M 82 130.5 L 72 130.5" stroke="#C0D0E0" stroke-width="1" opacity="1"></path><path fill="none" d="M 82 173.5 L 72 173.5" stroke="#C0D0E0" stroke-width="1" opacity="1"></path><path fill="none" d="M 82 216.5 L 72 216.5" stroke="#C0D0E0" stroke-width="1" opacity="1"></path><path fill="none" d="M 82 259.5 L 72 259.5" stroke="#C0D0E0" stroke-width="1" opacity="1"></path><path fill="none" d="M 82 302.5 L 72 302.5" stroke="#C0D0E0" stroke-width="1" opacity="1"></path><path fill="none" d="M 82 345.5 L 72 345.5" stroke="#C0D0E0" stroke-width="1" opacity="1"></path><path fill="none" d="M 82 43.5 L 72 43.5" stroke="#C0D0E0" stroke-width="1" opacity="1"></path><path fill="none" d="M 81.5 44 L 81.5 345" stroke="#C0D0E0" stroke-width="1"  visibility="visible"></path></g><g class="highcharts-axis" ><text x="328"  text-anchor="middle" transform="translate(0,0)" class=" highcharts-yaxis-title" style="color:#707070;fill:#707070;" visibility="visible" y="383"><tspan>Number of units</tspan></text></g><g class="highcharts-series-group" ><g class="highcharts-series" visibility="visible"  transform="translate(574,345) rotate(90) scale(-1,1) scale(1 1)" clip-path="url(#highcharts-3)" width="492" height="301"><path fill="rgb(244,91,91)" fill-opacity="0.5" d="M 279.5 386.5 L 236.5 351.4 L 193.5 386.5 L 150.5 316.2 L 107.5 351.4 L 64.5 140.5 L 21.5 70.2 L 21.5 492 L 279.5 492" ></path><path fill="none" d="M 279.5 386.5 L 236.5 351.4 L 193.5 386.5 L 150.5 316.2 L 107.5 351.4 L 64.5 140.5 L 21.5 70.2" stroke="black" stroke-width="5"  stroke-linejoin="round" stroke-linecap="round"  stroke-opacity="0.0" transform="translate(-1,-1)"></path><path fill="none" d="M 279.5 386.5 L 236.5 351.4 L 193.5 386.5 L 150.5 316.2 L 107.5 351.4 L 64.5 140.5 L 21.5 70.2" stroke="black" stroke-width="3"  stroke-linejoin="round" stroke-linecap="round"  stroke-opacity="0.0" transform="translate(-1,-1)"></path><path fill="none" d="M 279.5 386.5 L 236.5 351.4 L 193.5 386.5 L 150.5 316.2 L 107.5 351.4 L 64.5 140.5 L 21.5 70.2" stroke="black" stroke-width="1"  stroke-linejoin="round" stroke-linecap="round"  stroke-opacity="0.1" transform="translate(-1,-1)"></path><path fill="none" d="M 279.5 386.5 L 236.5 351.4 L 193.5 386.5 L 150.5 316.2 L 107.5 351.4 L 64.5 140.5 L 21.5 70.2" stroke="#f45b5b" stroke-width="2"  stroke-linejoin="round" stroke-linecap="round"></path><path fill="none" d="M 269.5 386.5 L 279.5 386.5 L 236.5 351.4 L 193.5 386.5 L 150.5 316.2 L 107.5 351.4 L 64.5 140.5 L 21.5 70.2 L 31.5 70.2" stroke-linejoin="round" visibility="visible" stroke="rgb(192,192,192)" stroke-opacity="0.0" stroke-width="22"  class=" highcharts-tracker" style=""></path></g><g class="highcharts-markers highcharts-tracker" visibility="visible"  transform="translate(574,345) rotate(90) scale(-1,1) scale(1 1)" clip-path="url(#highcharts-2)" style="" width="492" height="301"><path fill="#f45b5b" d="M 21 66.2 C 26.3 66.2 26.3 74.2 21 74.2 C 15.6 74.2 15.6 66.2 21 66.2 Z"></path><path fill="#f45b5b" d="M 64 136.5 C 69.3 136.5 69.3 144.5 64 144.5 C 58.6 144.5 58.6 136.5 64 136.5 Z"></path><path fill="#f45b5b" d="M 107 347.4 C 112.3 347.4 112.3 355.4 107 355.4 C 101.6 355.4 101.6 347.4 107 347.4 Z"></path><path fill="#f45b5b" d="M 150 312.2 C 155.3 312.2 155.3 320.2 150 320.2 C 144.6 320.2 144.6 312.2 150 312.2 Z"></path><path fill="#f45b5b" d="M 193 382.5 C 198.3 382.5 198.3 390.5 193 390.5 C 187.6 390.5 187.6 382.5 193 382.5 Z"></path><path fill="#f45b5b" d="M 236 347.4 C 241.3 347.4 241.3 355.4 236 355.4 C 230.6 355.4 230.6 347.4 236 347.4 Z"></path><path fill="#f45b5b" d="M 279 382.5 C 284.3 382.5 284.3 390.5 279 390.5 C 273.6 390.5 273.6 382.5 279 382.5 Z"></path></g><g class="highcharts-series" visibility="visible"  transform="translate(574,345) rotate(90) scale(-1,1) scale(1 1)" clip-path="url(#highcharts-3)" width="492" height="301"><path fill="rgb(128,133,233)" fill-opacity="0.5" d="M 279.5 456.8 L 236.5 386.5 L 193.5 351.4 L 150.5 386.5 L 107.5 386.5 L 64.5 316.2 L 21.5 351.4 L 21.5 492 L 279.5 492" ></path><path fill="none" d="M 279.5 456.8 L 236.5 386.5 L 193.5 351.4 L 150.5 386.5 L 107.5 386.5 L 64.5 316.2 L 21.5 351.4" stroke="black" stroke-width="5"  stroke-linejoin="round" stroke-linecap="round"  stroke-opacity="0.0" transform="translate(-1,-1)"></path><path fill="none" d="M 279.5 456.8 L 236.5 386.5 L 193.5 351.4 L 150.5 386.5 L 107.5 386.5 L 64.5 316.2 L 21.5 351.4" stroke="black" stroke-width="3"  stroke-linejoin="round" stroke-linecap="round"  stroke-opacity="0.0" transform="translate(-1,-1)"></path><path fill="none" d="M 279.5 456.8 L 236.5 386.5 L 193.5 351.4 L 150.5 386.5 L 107.5 386.5 L 64.5 316.2 L 21.5 351.4" stroke="black" stroke-width="1"  stroke-linejoin="round" stroke-linecap="round"  stroke-opacity="0.1" transform="translate(-1,-1)"></path><path fill="none" d="M 279.5 456.8 L 236.5 386.5 L 193.5 351.4 L 150.5 386.5 L 107.5 386.5 L 64.5 316.2 L 21.5 351.4" stroke="#8085e9" stroke-width="2"  stroke-linejoin="round" stroke-linecap="round"></path><path fill="none" d="M 269.5 456.8 L 279.5 456.8 L 236.5 386.5 L 193.5 351.4 L 150.5 386.5 L 107.5 386.5 L 64.5 316.2 L 21.5 351.4 L 31.5 351.4" stroke-linejoin="round" visibility="visible" stroke="rgb(192,192,192)" stroke-opacity="0.0" stroke-width="22"  class=" highcharts-tracker" style=""></path></g><g class="highcharts-markers highcharts-tracker" visibility="visible"  transform="translate(574,345) rotate(90) scale(-1,1) scale(1 1)" clip-path="url(#highcharts-2)" style="" width="492" height="301"><path fill="#8085e9" d="M 21 347.4 L 25 351.4 21 355.4 17 351.4 Z"></path><path fill="#8085e9" d="M 64 312.2 L 68 316.2 64 320.2 60 316.2 Z"></path><path fill="#8085e9" d="M 107 382.5 L 111 386.5 107 390.5 103 386.5 Z"></path><path fill="#8085e9" d="M 150 382.5 L 154 386.5 150 390.5 146 386.5 Z"></path><path fill="#8085e9" d="M 193 347.4 L 197 351.4 193 355.4 189 351.4 Z"></path><path fill="#8085e9" d="M 236 382.5 L 240 386.5 236 390.5 232 386.5 Z"></path><path fill="#8085e9" d="M 279 452.8 L 283 456.8 279 460.8 275 456.8 Z"></path></g></g><text x="292" text-anchor="middle" class="highcharts-title"  style="color:black;font-size:16px;font-weight:bold;fill:black;width:520px;" y="22"><tspan>Average fruit consumption during one week</tspan></text><g class="highcharts-legend"  transform="translate(357,110)"><rect x="0.5" y="0.5" width="66" height="42" strokeWidth="1" stroke="#909090" stroke-width="1" fill="#FFFFFF" visibility="visible"></rect><g ><g><g class="highcharts-legend-item"  transform="translate(8,3)"><text x="21" style="color:#333333;font-size:13px;font-weight:bold;cursor:pointer;fill:#333333;" text-anchor="start"  y="16">John</text><rect x="0" y="5" width="16" height="12"  fill="#f45b5b"></rect></g><g class="highcharts-legend-item"  transform="translate(8,19)"><text x="21" y="16" style="color:#333333;font-size:13px;font-weight:bold;cursor:pointer;fill:#333333;" text-anchor="start" >Jane</text><rect x="0" y="5" width="16" height="12"  fill="#8085e9"></rect></g></g></g></g><g class="highcharts-axis-labels highcharts-xaxis-labels" ><text x="67" style="color:#6e6e70;cursor:default;font-size:11px;fill:#6e6e70;width:183px;text-overflow:clip;" text-anchor="end" transform="translate(0,0)" y="70" opacity="1">Monday</text><text x="67" style="color:#6e6e70;cursor:default;font-size:11px;fill:#6e6e70;width:183px;text-overflow:clip;" text-anchor="end" transform="translate(0,0)" y="113" opacity="1">Tuesday</text><text x="67" style="color:#6e6e70;cursor:default;font-size:11px;fill:#6e6e70;width:183px;text-overflow:clip;" text-anchor="end" transform="translate(0,0)" y="156" opacity="1">Wednesday</text><text x="67" style="color:#6e6e70;cursor:default;font-size:11px;fill:#6e6e70;width:183px;text-overflow:clip;" text-anchor="end" transform="translate(0,0)" y="199" opacity="1">Thursday</text><text x="67" style="color:#6e6e70;cursor:default;font-size:11px;fill:#6e6e70;width:183px;text-overflow:clip;" text-anchor="end" transform="translate(0,0)" y="242" opacity="1">Friday</text><text x="67" style="color:#6e6e70;cursor:default;font-size:11px;fill:#6e6e70;width:183px;text-overflow:clip;" text-anchor="end" transform="translate(0,0)" y="285" opacity="1">Saturday</text><text x="67" style="color:#6e6e70;cursor:default;font-size:11px;fill:#6e6e70;width:183px;text-overflow:clip;" text-anchor="end" transform="translate(0,0)" y="328" opacity="1">Sunday</text></g><g class="highcharts-axis-labels highcharts-yaxis-labels" ><text x="82" style="color:#6e6e70;cursor:default;font-size:11px;fill:#6e6e70;width:61px;text-overflow:clip;" text-anchor="middle" transform="translate(0,0)" y="364" opacity="1">0</text><text x="152.2" style="color:#6e6e70;cursor:default;font-size:11px;fill:#6e6e70;width:61px;text-overflow:clip;" text-anchor="middle" transform="translate(0,0)" y="364" opacity="1">2</text><text x="222.5" style="color:#6e6e70;cursor:default;font-size:11px;fill:#6e6e70;width:61px;text-overflow:clip;" text-anchor="middle" transform="translate(0,0)" y="364" opacity="1">4</text><text x="292.8" style="color:#6e6e70;cursor:default;font-size:11px;fill:#6e6e70;width:61px;text-overflow:clip;" text-anchor="middle" transform="translate(0,0)" y="364" opacity="1">6</text><text x="363.1" style="color:#6e6e70;cursor:default;font-size:11px;fill:#6e6e70;width:61px;text-overflow:clip;" text-anchor="middle" transform="translate(0,0)" y="364" opacity="1">8</text><text x="433.4" style="color:#6e6e70;cursor:default;font-size:11px;fill:#6e6e70;width:61px;text-overflow:clip;" text-anchor="middle" transform="translate(0,0)" y="364" opacity="1">10</text><text x="503.7" style="color:#6e6e70;cursor:default;font-size:11px;fill:#6e6e70;width:61px;text-overflow:clip;" text-anchor="middle" transform="translate(0,0)" y="364" opacity="1">12</text><text x="574" style="color:#6e6e70;cursor:default;font-size:11px;fill:#6e6e70;width:61px;text-overflow:clip;" text-anchor="end" transform="translate(0,0)" y="364" opacity="1">14</text></g><g class="highcharts-tooltip"  style="cursor:default;padding:0;white-space:nowrap;" transform="translate(0,-9999)"><path fill="none" d="M 3 0 L 13 0 C 16 0 16 0 16 3 L 16 13 C 16 16 16 16 13 16 L 3 16 C 0 16 0 16 0 13 L 0 3 C 0 0 0 0 3 0"  stroke="black" stroke-opacity="0.0" stroke-width="5" transform="translate(1, 1)"></path><path fill="none" d="M 3 0 L 13 0 C 16 0 16 0 16 3 L 16 13 C 16 16 16 16 13 16 L 3 16 C 0 16 0 16 0 13 L 0 3 C 0 0 0 0 3 0"  stroke="black" stroke-opacity="0.0" stroke-width="3" transform="translate(1, 1)"></path><path fill="none" d="M 3 0 L 13 0 C 16 0 16 0 16 3 L 16 13 C 16 16 16 16 13 16 L 3 16 C 0 16 0 16 0 13 L 0 3 C 0 0 0 0 3 0"  stroke="black" stroke-opacity="0.1" stroke-width="1" transform="translate(1, 1)"></path><path fill="rgb(249, 249, 249)" fill-opacity=" .85" d="M 3 0 L 13 0 C 16 0 16 0 16 3 L 16 13 C 16 16 16 16 13 16 L 3 16 C 0 16 0 16 0 13 L 0 3 C 0 0 0 0 3 0"></path><text x="8"  style="font-size:12px;color:#333333;fill:#333333;" transform="translate(0,20)"></text></g></svg>