<svg version="1.1" style="font-family: signika, serif; font-size: 12px; background-image: url(http://www.highcharts.com/samples/graphics/sand.png); background-attachment: initial; background-origin: initial; background-clip: initial; background-color: initial; background-position: initial initial; background-repeat: initial initial; " xmlns="http://www.w3.org/2000/svg" width="584" height="400" viewBox="0 0 584 400" xmlns:xlink="http://www.w3.org/1999/xlink"><style type="text/css"><![CDATA[@import url(http://fonts.googleapis.com/css?family=Signika:700);]]></style><desc>Created with Highcharts 4.1.4</desc><defs><clipPath id="highcharts-1"><rect x="0" y="0" width="262" height="508"></rect></clipPath></defs><g class="highcharts-grid" ></g><g class="highcharts-grid" ><path fill="none" d="M 65.5 44 L 65.5 306" stroke="#D8D8D8" stroke-width="1"  opacity="1"></path><path fill="none" d="M 107.5 44 L 107.5 306" stroke="#D8D8D8" stroke-width="1"  opacity="1"></path><path fill="none" d="M 150.5 44 L 150.5 306" stroke="#D8D8D8" stroke-width="1"  opacity="1"></path><path fill="none" d="M 192.5 44 L 192.5 306" stroke="#D8D8D8" stroke-width="1"  opacity="1"></path><path fill="none" d="M 234.5 44 L 234.5 306" stroke="#D8D8D8" stroke-width="1"  opacity="1"></path><path fill="none" d="M 277.5 44 L 277.5 306" stroke="#D8D8D8" stroke-width="1"  opacity="1"></path><path fill="none" d="M 319.5 44 L 319.5 306" stroke="#D8D8D8" stroke-width="1"  opacity="1"></path><path fill="none" d="M 361.5 44 L 361.5 306" stroke="#D8D8D8" stroke-width="1"  opacity="1"></path><path fill="none" d="M 404.5 44 L 404.5 306" stroke="#D8D8D8" stroke-width="1"  opacity="1"></path><path fill="none" d="M 446.5 44 L 446.5 306" stroke="#D8D8D8" stroke-width="1"  opacity="1"></path><path fill="none" d="M 488.5 44 L 488.5 306" stroke="#D8D8D8" stroke-width="1"  opacity="1"></path><path fill="none" d="M 531.5 44 L 531.5 306" stroke="#D8D8D8" stroke-width="1"  opacity="1"></path><path fill="none" d="M 574.5 44 L 574.5 306" stroke="#D8D8D8" stroke-width="1"  opacity="1"></path></g><g class="highcharts-axis" ><path fill="none" d="M 66 96.5 L 56 96.5" stroke="#C0D0E0" stroke-width="1" opacity="1"></path><path fill="none" d="M 66 149.5 L 56 149.5" stroke="#C0D0E0" stroke-width="1" opacity="1"></path><path fill="none" d="M 66 201.5 L 56 201.5" stroke="#C0D0E0" stroke-width="1" opacity="1"></path><path fill="none" d="M 66 254.5 L 56 254.5" stroke="#C0D0E0" stroke-width="1" opacity="1"></path><path fill="none" d="M 66 306.5 L 56 306.5" stroke="#C0D0E0" stroke-width="1" opacity="1"></path><path fill="none" d="M 66 43.5 L 56 43.5" stroke="#C0D0E0" stroke-width="1" opacity="1"></path><path fill="none" d="M 65.5 44 L 65.5 306" stroke="#C0D0E0" stroke-width="1"  visibility="visible"></path></g><g class="highcharts-axis" ><text x="320"  text-anchor="middle" transform="translate(0,0)" class=" highcharts-yaxis-title" style="color:#707070;fill:#707070;" visibility="visible" y="344"><tspan>Total fruit consumption</tspan></text></g><g class="highcharts-series-group" ><g class="highcharts-series highcharts-tracker" visibility="visible"  transform="translate(574,306) rotate(90) scale(-1,1) scale(1 1)" style="" width="508" height="262" clip-path="url(#highcharts-1)"><rect x="222.5" y="85.5" width="26" height="206" stroke="black" stroke-width="5" fill="none" rx="0" ry="0"  stroke-opacity="0.0" transform="translate(-1,-1)"></rect><rect x="222.5" y="85.5" width="26" height="208" stroke="black" stroke-width="3" fill="none" rx="0" ry="0"  stroke-opacity="0.0" transform="translate(-1,-1)"></rect><rect x="222.5" y="85.5" width="26" height="210" stroke="black" stroke-width="1" fill="none" rx="0" ry="0"  stroke-opacity="0.1" transform="translate(-1,-1)"></rect><rect x="222.5" y="85.5" width="26" height="211" stroke="#FFFFFF" stroke-width="1" fill="#f45b5b" rx="0" ry="0"></rect><rect x="170.5" y="127.5" width="26" height="122" stroke="black" stroke-width="5" fill="none" rx="0" ry="0"  stroke-opacity="0.0" transform="translate(-1,-1)"></rect><rect x="170.5" y="127.5" width="26" height="124" stroke="black" stroke-width="3" fill="none" rx="0" ry="0"  stroke-opacity="0.0" transform="translate(-1,-1)"></rect><rect x="170.5" y="127.5" width="26" height="126" stroke="black" stroke-width="1" fill="none" rx="0" ry="0"  stroke-opacity="0.1" transform="translate(-1,-1)"></rect><rect x="170.5" y="127.5" width="26" height="127" stroke="#FFFFFF" stroke-width="1" fill="#f45b5b" rx="0" ry="0"></rect><rect x="117.5" y="42.5" width="26" height="165" stroke="black" stroke-width="5" fill="none" rx="0" ry="0"  stroke-opacity="0.0" transform="translate(-1,-1)"></rect><rect x="117.5" y="42.5" width="26" height="167" stroke="black" stroke-width="3" fill="none" rx="0" ry="0"  stroke-opacity="0.0" transform="translate(-1,-1)"></rect><rect x="117.5" y="42.5" width="26" height="169" stroke="black" stroke-width="1" fill="none" rx="0" ry="0"  stroke-opacity="0.1" transform="translate(-1,-1)"></rect><rect x="117.5" y="42.5" width="26" height="170" stroke="#FFFFFF" stroke-width="1" fill="#f45b5b" rx="0" ry="0"></rect><rect x="65.5" y="42.5" width="26" height="292" stroke="black" stroke-width="5" fill="none" rx="0" ry="0"  stroke-opacity="0.0" transform="translate(-1,-1)"></rect><rect x="65.5" y="42.5" width="26" height="294" stroke="black" stroke-width="3" fill="none" rx="0" ry="0"  stroke-opacity="0.0" transform="translate(-1,-1)"></rect><rect x="65.5" y="42.5" width="26" height="296" stroke="black" stroke-width="1" fill="none" rx="0" ry="0"  stroke-opacity="0.1" transform="translate(-1,-1)"></rect><rect x="65.5" y="42.5" width="26" height="297" stroke="#FFFFFF" stroke-width="1" fill="#f45b5b" rx="0" ry="0"></rect><rect x="13.5" y="169.5" width="26" height="80" stroke="black" stroke-width="5" fill="none" rx="0" ry="0"  stroke-opacity="0.0" transform="translate(-1,-1)"></rect><rect x="13.5" y="169.5" width="26" height="82" stroke="black" stroke-width="3" fill="none" rx="0" ry="0"  stroke-opacity="0.0" transform="translate(-1,-1)"></rect><rect x="13.5" y="169.5" width="26" height="84" stroke="black" stroke-width="1" fill="none" rx="0" ry="0"  stroke-opacity="0.1" transform="translate(-1,-1)"></rect><rect x="13.5" y="169.5" width="26" height="85" stroke="#FFFFFF" stroke-width="1" fill="#f45b5b" rx="0" ry="0"></rect></g><g class="highcharts-markers" visibility="visible"  transform="translate(574,306) rotate(90) scale(-1,1) scale(1 1)" width="508" height="262"></g><g class="highcharts-series highcharts-tracker" visibility="visible"  transform="translate(574,306) rotate(90) scale(-1,1) scale(1 1)" style="" width="508" height="262" clip-path="url(#highcharts-1)"><rect x="222.5" y="296.5" width="26" height="80" stroke="black" stroke-width="5" fill="none" rx="0" ry="0"  stroke-opacity="0.0" transform="translate(-1,-1)"></rect><rect x="222.5" y="296.5" width="26" height="82" stroke="black" stroke-width="3" fill="none" rx="0" ry="0"  stroke-opacity="0.0" transform="translate(-1,-1)"></rect><rect x="222.5" y="296.5" width="26" height="84" stroke="black" stroke-width="1" fill="none" rx="0" ry="0"  stroke-opacity="0.1" transform="translate(-1,-1)"></rect><rect x="222.5" y="296.5" width="26" height="85" stroke="#FFFFFF" stroke-width="1" fill="#8085e9" rx="0" ry="0"></rect><rect x="170.5" y="254.5" width="26" height="80" stroke="black" stroke-width="5" fill="none" rx="0" ry="0"  stroke-opacity="0.0" transform="translate(-1,-1)"></rect><rect x="170.5" y="254.5" width="26" height="82" stroke="black" stroke-width="3" fill="none" rx="0" ry="0"  stroke-opacity="0.0" transform="translate(-1,-1)"></rect><rect x="170.5" y="254.5" width="26" height="84" stroke="black" stroke-width="1" fill="none" rx="0" ry="0"  stroke-opacity="0.1" transform="translate(-1,-1)"></rect><rect x="170.5" y="254.5" width="26" height="85" stroke="#FFFFFF" stroke-width="1" fill="#8085e9" rx="0" ry="0"></rect><rect x="117.5" y="212.5" width="26" height="122" stroke="black" stroke-width="5" fill="none" rx="0" ry="0"  stroke-opacity="0.0" transform="translate(-1,-1)"></rect><rect x="117.5" y="212.5" width="26" height="124" stroke="black" stroke-width="3" fill="none" rx="0" ry="0"  stroke-opacity="0.0" transform="translate(-1,-1)"></rect><rect x="117.5" y="212.5" width="26" height="126" stroke="black" stroke-width="1" fill="none" rx="0" ry="0"  stroke-opacity="0.1" transform="translate(-1,-1)"></rect><rect x="117.5" y="212.5" width="26" height="127" stroke="#FFFFFF" stroke-width="1" fill="#8085e9" rx="0" ry="0"></rect><rect x="65.5" y="339.5" width="26" height="79" stroke="black" stroke-width="5" fill="none" rx="0" ry="0"  stroke-opacity="0.0" transform="translate(-1,-1)"></rect><rect x="65.5" y="339.5" width="26" height="81" stroke="black" stroke-width="3" fill="none" rx="0" ry="0"  stroke-opacity="0.0" transform="translate(-1,-1)"></rect><rect x="65.5" y="339.5" width="26" height="83" stroke="black" stroke-width="1" fill="none" rx="0" ry="0"  stroke-opacity="0.1" transform="translate(-1,-1)"></rect><rect x="65.5" y="339.5" width="26" height="84" stroke="#FFFFFF" stroke-width="1" fill="#8085e9" rx="0" ry="0"></rect><rect x="13.5" y="254.5" width="26" height="37" stroke="black" stroke-width="5" fill="none" rx="0" ry="0"  stroke-opacity="0.0" transform="translate(-1,-1)"></rect><rect x="13.5" y="254.5" width="26" height="39" stroke="black" stroke-width="3" fill="none" rx="0" ry="0"  stroke-opacity="0.0" transform="translate(-1,-1)"></rect><rect x="13.5" y="254.5" width="26" height="41" stroke="black" stroke-width="1" fill="none" rx="0" ry="0"  stroke-opacity="0.1" transform="translate(-1,-1)"></rect><rect x="13.5" y="254.5" width="26" height="42" stroke="#FFFFFF" stroke-width="1" fill="#8085e9" rx="0" ry="0"></rect></g><g class="highcharts-markers" visibility="visible"  transform="translate(574,306) rotate(90) scale(-1,1) scale(1 1)" width="508" height="262"></g><g class="highcharts-series highcharts-tracker" visibility="visible"  transform="translate(574,306) rotate(90) scale(-1,1) scale(1 1)" style="" width="508" height="262" clip-path="url(#highcharts-1)"><rect x="222.5" y="381.5" width="26" height="122" stroke="black" stroke-width="5" fill="none" rx="0" ry="0"  stroke-opacity="0.0" transform="translate(-1,-1)"></rect><rect x="222.5" y="381.5" width="26" height="124" stroke="black" stroke-width="3" fill="none" rx="0" ry="0"  stroke-opacity="0.0" transform="translate(-1,-1)"></rect><rect x="222.5" y="381.5" width="26" height="126" stroke="black" stroke-width="1" fill="none" rx="0" ry="0"  stroke-opacity="0.1" transform="translate(-1,-1)"></rect><rect x="222.5" y="381.5" width="26" height="127" stroke="#FFFFFF" stroke-width="1" fill="#8d4654" rx="0" ry="0"></rect><rect x="170.5" y="339.5" width="26" height="164" stroke="black" stroke-width="5" fill="none" rx="0" ry="0"  stroke-opacity="0.0" transform="translate(-1,-1)"></rect><rect x="170.5" y="339.5" width="26" height="166" stroke="black" stroke-width="3" fill="none" rx="0" ry="0"  stroke-opacity="0.0" transform="translate(-1,-1)"></rect><rect x="170.5" y="339.5" width="26" height="168" stroke="black" stroke-width="1" fill="none" rx="0" ry="0"  stroke-opacity="0.1" transform="translate(-1,-1)"></rect><rect x="170.5" y="339.5" width="26" height="169" stroke="#FFFFFF" stroke-width="1" fill="#8d4654" rx="0" ry="0"></rect><rect x="117.5" y="339.5" width="26" height="164" stroke="black" stroke-width="5" fill="none" rx="0" ry="0"  stroke-opacity="0.0" transform="translate(-1,-1)"></rect><rect x="117.5" y="339.5" width="26" height="166" stroke="black" stroke-width="3" fill="none" rx="0" ry="0"  stroke-opacity="0.0" transform="translate(-1,-1)"></rect><rect x="117.5" y="339.5" width="26" height="168" stroke="black" stroke-width="1" fill="none" rx="0" ry="0"  stroke-opacity="0.1" transform="translate(-1,-1)"></rect><rect x="117.5" y="339.5" width="26" height="169" stroke="#FFFFFF" stroke-width="1" fill="#8d4654" rx="0" ry="0"></rect><rect x="65.5" y="423.5" width="26" height="80" stroke="black" stroke-width="5" fill="none" rx="0" ry="0"  stroke-opacity="0.0" transform="translate(-1,-1)"></rect><rect x="65.5" y="423.5" width="26" height="82" stroke="black" stroke-width="3" fill="none" rx="0" ry="0"  stroke-opacity="0.0" transform="translate(-1,-1)"></rect><rect x="65.5" y="423.5" width="26" height="84" stroke="black" stroke-width="1" fill="none" rx="0" ry="0"  stroke-opacity="0.1" transform="translate(-1,-1)"></rect><rect x="65.5" y="423.5" width="26" height="85" stroke="#FFFFFF" stroke-width="1" fill="#8d4654" rx="0" ry="0"></rect><rect x="13.5" y="296.5" width="26" height="207" stroke="black" stroke-width="5" fill="none" rx="0" ry="0"  stroke-opacity="0.0" transform="translate(-1,-1)"></rect><rect x="13.5" y="296.5" width="26" height="209" stroke="black" stroke-width="3" fill="none" rx="0" ry="0"  stroke-opacity="0.0" transform="translate(-1,-1)"></rect><rect x="13.5" y="296.5" width="26" height="211" stroke="black" stroke-width="1" fill="none" rx="0" ry="0"  stroke-opacity="0.1" transform="translate(-1,-1)"></rect><rect x="13.5" y="296.5" width="26" height="212" stroke="#FFFFFF" stroke-width="1" fill="#8d4654" rx="0" ry="0"></rect></g><g class="highcharts-markers" visibility="visible"  transform="translate(574,306) rotate(90) scale(-1,1) scale(1 1)" width="508" height="262"></g></g><text x="292" text-anchor="middle" class="highcharts-title"  style="color:black;font-size:16px;font-weight:bold;fill:black;width:520px;" y="22"><tspan>Stacked bar chart</tspan></text><g class="highcharts-legend"  transform="translate(192,358)"><g ><g><g class="highcharts-legend-item"  transform="translate(8,3)"><text x="21" style="color:#333333;font-size:13px;font-weight:bold;cursor:pointer;fill:#333333;" text-anchor="start"  y="16">Joe</text><rect x="0" y="5" width="16" height="12"  fill="#8d4654"></rect></g><g class="highcharts-legend-item"  transform="translate(71,3)"><text x="21" y="16" style="color:#333333;font-size:13px;font-weight:bold;cursor:pointer;fill:#333333;" text-anchor="start" >Jane</text><rect x="0" y="5" width="16" height="12"  fill="#8085e9"></rect></g><g class="highcharts-legend-item"  transform="translate(142,3)"><text x="21" y="16" style="color:#333333;font-size:13px;font-weight:bold;cursor:pointer;fill:#333333;" text-anchor="start" >John</text><rect x="0" y="5" width="16" height="12"  fill="#f45b5b"></rect></g></g></g></g><g class="highcharts-axis-labels highcharts-xaxis-labels" ><text x="51" style="color:#6e6e70;cursor:default;font-size:11px;fill:#6e6e70;width:183px;text-overflow:clip;" text-anchor="end" transform="translate(0,0)" y="75" opacity="1">Apples</text><text x="51" style="color:#6e6e70;cursor:default;font-size:11px;fill:#6e6e70;width:183px;text-overflow:clip;" text-anchor="end" transform="translate(0,0)" y="127" opacity="1">Oranges</text><text x="51" style="color:#6e6e70;cursor:default;font-size:11px;fill:#6e6e70;width:183px;text-overflow:clip;" text-anchor="end" transform="translate(0,0)" y="180" opacity="1">Pears</text><text x="51" style="color:#6e6e70;cursor:default;font-size:11px;fill:#6e6e70;width:183px;text-overflow:clip;" text-anchor="end" transform="translate(0,0)" y="232" opacity="1">Grapes</text><text x="51" style="color:#6e6e70;cursor:default;font-size:11px;fill:#6e6e70;width:183px;text-overflow:clip;" text-anchor="end" transform="translate(0,0)" y="284" opacity="1">Bananas</text></g><g class="highcharts-axis-labels highcharts-yaxis-labels" ><text x="66" style="color:#6e6e70;cursor:default;font-size:11px;fill:#6e6e70;" text-anchor="middle" transform="translate(0,0)" y="325" opacity="1">0</text><text x="108.3" style="color:#6e6e70;cursor:default;font-size:11px;fill:#6e6e70;" text-anchor="middle" transform="translate(0,0)" y="325" opacity="1">1</text><text x="150.6" style="color:#6e6e70;cursor:default;font-size:11px;fill:#6e6e70;" text-anchor="middle" transform="translate(0,0)" y="325" opacity="1">2</text><text x="193" style="color:#6e6e70;cursor:default;font-size:11px;fill:#6e6e70;" text-anchor="middle" transform="translate(0,0)" y="325" opacity="1">3</text><text x="235.3" style="color:#6e6e70;cursor:default;font-size:11px;fill:#6e6e70;" text-anchor="middle" transform="translate(0,0)" y="325" opacity="1">4</text><text x="277.6" style="color:#6e6e70;cursor:default;font-size:11px;fill:#6e6e70;" text-anchor="middle" transform="translate(0,0)" y="325" opacity="1">5</text><text x="320" style="color:#6e6e70;cursor:default;font-size:11px;fill:#6e6e70;" text-anchor="middle" transform="translate(0,0)" y="325" opacity="1">6</text><text x="362.3" style="color:#6e6e70;cursor:default;font-size:11px;fill:#6e6e70;" text-anchor="middle" transform="translate(0,0)" y="325" opacity="1">7</text><text x="404.6" style="color:#6e6e70;cursor:default;font-size:11px;fill:#6e6e70;" text-anchor="middle" transform="translate(0,0)" y="325" opacity="1">8</text><text x="447" style="color:#6e6e70;cursor:default;font-size:11px;fill:#6e6e70;" text-anchor="middle" transform="translate(0,0)" y="325" opacity="1">9</text><text x="489.3" style="color:#6e6e70;cursor:default;font-size:11px;fill:#6e6e70;" text-anchor="middle" transform="translate(0,0)" y="325" opacity="1">10</text><text x="531.6" style="color:#6e6e70;cursor:default;font-size:11px;fill:#6e6e70;" text-anchor="middle" transform="translate(0,0)" y="325" opacity="1">11</text><text x="574" style="color:#6e6e70;cursor:default;font-size:11px;fill:#6e6e70;" text-anchor="end" transform="translate(0,0)" y="325" opacity="1">12</text></g><g class="highcharts-tooltip"  style="cursor:default;padding:0;white-space:nowrap;" transform="translate(0,-9999)"><path fill="none" d="M 3 0 L 13 0 C 16 0 16 0 16 3 L 16 13 C 16 16 16 16 13 16 L 3 16 C 0 16 0 16 0 13 L 0 3 C 0 0 0 0 3 0"  stroke="black" stroke-opacity="0.0" stroke-width="5" transform="translate(1, 1)"></path><path fill="none" d="M 3 0 L 13 0 C 16 0 16 0 16 3 L 16 13 C 16 16 16 16 13 16 L 3 16 C 0 16 0 16 0 13 L 0 3 C 0 0 0 0 3 0"  stroke="black" stroke-opacity="0.0" stroke-width="3" transform="translate(1, 1)"></path><path fill="none" d="M 3 0 L 13 0 C 16 0 16 0 16 3 L 16 13 C 16 16 16 16 13 16 L 3 16 C 0 16 0 16 0 13 L 0 3 C 0 0 0 0 3 0"  stroke="black" stroke-opacity="0.1" stroke-width="1" transform="translate(1, 1)"></path><path fill="rgb(249, 249, 249)" fill-opacity=" .85" d="M 3 0 L 13 0 C 16 0 16 0 16 3 L 16 13 C 16 16 16 16 13 16 L 3 16 C 0 16 0 16 0 13 L 0 3 C 0 0 0 0 3 0"></path><text x="8"  style="font-size:12px;color:#333333;fill:#333333;" transform="translate(0,20)"></text></g></svg>