<svg version="1.1" style="font-family: signika, serif; font-size: 12px; background-image: url(http://www.highcharts.com/samples/graphics/sand.png); background-attachment: initial; background-origin: initial; background-clip: initial; background-color: initial; background-position: initial initial; background-repeat: initial initial; " xmlns="http://www.w3.org/2000/svg" width="584" height="400" viewBox="0 0 584 400" xmlns:xlink="http://www.w3.org/1999/xlink"><style type="text/css"><![CDATA[@import url(http://fonts.googleapis.com/css?family=Signika:700);]]></style><desc>Created with Highcharts 4.1.4</desc><defs><clipPath id="highcharts-1"><rect x="0" y="0" width="267" height="476"></rect></clipPath></defs><g class="highcharts-grid" ></g><g class="highcharts-grid" ></g><g class="highcharts-grid" ><path fill="none" d="M 53.5 58 L 53.5 325" stroke="#D8D8D8" stroke-width="1"  opacity="1"></path><path fill="none" d="M 113.5 58 L 113.5 325" stroke="#D8D8D8" stroke-width="1"  opacity="1"></path><path fill="none" d="M 172.5 58 L 172.5 325" stroke="#D8D8D8" stroke-width="1"  opacity="1"></path><path fill="none" d="M 232.5 58 L 232.5 325" stroke="#D8D8D8" stroke-width="1"  opacity="1"></path><path fill="none" d="M 291.5 58 L 291.5 325" stroke="#D8D8D8" stroke-width="1"  opacity="1"></path><path fill="none" d="M 351.5 58 L 351.5 325" stroke="#D8D8D8" stroke-width="1"  opacity="1"></path><path fill="none" d="M 410.5 58 L 410.5 325" stroke="#D8D8D8" stroke-width="1"  opacity="1"></path><path fill="none" d="M 470.5 58 L 470.5 325" stroke="#D8D8D8" stroke-width="1"  opacity="1"></path><path fill="none" d="M 530.5 58 L 530.5 325" stroke="#D8D8D8" stroke-width="1"  opacity="1"></path></g><g class="highcharts-axis" ><path fill="none" d="M 54 319.5 L 44 319.5" stroke="#C0D0E0" stroke-width="1" opacity="1"></path><path fill="none" d="M 54 293.5 L 44 293.5" stroke="#C0D0E0" stroke-width="1" opacity="1"></path><path fill="none" d="M 54 268.5 L 44 268.5" stroke="#C0D0E0" stroke-width="1" opacity="1"></path><path fill="none" d="M 54 242.5 L 44 242.5" stroke="#C0D0E0" stroke-width="1" opacity="1"></path><path fill="none" d="M 54 217.5 L 44 217.5" stroke="#C0D0E0" stroke-width="1" opacity="1"></path><path fill="none" d="M 54 192.5 L 44 192.5" stroke="#C0D0E0" stroke-width="1" opacity="1"></path><path fill="none" d="M 54 166.5 L 44 166.5" stroke="#C0D0E0" stroke-width="1" opacity="1"></path><path fill="none" d="M 54 141.5 L 44 141.5" stroke="#C0D0E0" stroke-width="1" opacity="1"></path><path fill="none" d="M 54 115.5 L 44 115.5" stroke="#C0D0E0" stroke-width="1" opacity="1"></path><path fill="none" d="M 54 90.5 L 44 90.5" stroke="#C0D0E0" stroke-width="1" opacity="1"></path><path fill="none" d="M 54 64.5 L 44 64.5" stroke="#C0D0E0" stroke-width="1" opacity="1"></path><path fill="none" d="M 53.5 58 L 53.5 325" stroke="#C0D0E0" stroke-width="1"  visibility="visible"></path></g><g class="highcharts-axis" ><path fill="none" d="M 530 319.5 L 540 319.5" stroke="#C0D0E0" stroke-width="1" opacity="1"></path><path fill="none" d="M 530 293.5 L 540 293.5" stroke="#C0D0E0" stroke-width="1" opacity="1"></path><path fill="none" d="M 530 268.5 L 540 268.5" stroke="#C0D0E0" stroke-width="1" opacity="1"></path><path fill="none" d="M 530 242.5 L 540 242.5" stroke="#C0D0E0" stroke-width="1" opacity="1"></path><path fill="none" d="M 530 217.5 L 540 217.5" stroke="#C0D0E0" stroke-width="1" opacity="1"></path><path fill="none" d="M 530 192.5 L 540 192.5" stroke="#C0D0E0" stroke-width="1" opacity="1"></path><path fill="none" d="M 530 166.5 L 540 166.5" stroke="#C0D0E0" stroke-width="1" opacity="1"></path><path fill="none" d="M 530 141.5 L 540 141.5" stroke="#C0D0E0" stroke-width="1" opacity="1"></path><path fill="none" d="M 530 115.5 L 540 115.5" stroke="#C0D0E0" stroke-width="1" opacity="1"></path><path fill="none" d="M 530 90.5 L 540 90.5" stroke="#C0D0E0" stroke-width="1" opacity="1"></path><path fill="none" d="M 530 64.5 L 540 64.5" stroke="#C0D0E0" stroke-width="1" opacity="1"></path><path fill="none" d="M 530.5 58 L 530.5 325" stroke="#C0D0E0" stroke-width="1"  visibility="visible"></path></g><g class="highcharts-axis" ></g><g class="highcharts-series-group" ><g class="highcharts-series highcharts-tracker" visibility="visible"  transform="translate(530,325) rotate(90) scale(-1,1) scale(1 1)" style="" width="476" height="267" clip-path="url(#highcharts-1)"><rect x="2.5" y="238.5" width="7" height="99" stroke="black" stroke-width="5" fill="none" rx="0" ry="0"  stroke-opacity="0.0" transform="translate(-1,-1)"></rect><rect x="2.5" y="238.5" width="7" height="101" stroke="black" stroke-width="3" fill="none" rx="0" ry="0"  stroke-opacity="0.0" transform="translate(-1,-1)"></rect><rect x="2.5" y="238.5" width="7" height="103" stroke="black" stroke-width="1" fill="none" rx="0" ry="0"  stroke-opacity="0.1" transform="translate(-1,-1)"></rect><rect x="2.5" y="238.5" width="7" height="104" stroke="#FFFFFF" stroke-width="1" fill="#f45b5b" rx="0" ry="0"></rect><rect x="15.5" y="238.5" width="7" height="107" stroke="black" stroke-width="5" fill="none" rx="0" ry="0"  stroke-opacity="0.0" transform="translate(-1,-1)"></rect><rect x="15.5" y="238.5" width="7" height="109" stroke="black" stroke-width="3" fill="none" rx="0" ry="0"  stroke-opacity="0.0" transform="translate(-1,-1)"></rect><rect x="15.5" y="238.5" width="7" height="111" stroke="black" stroke-width="1" fill="none" rx="0" ry="0"  stroke-opacity="0.1" transform="translate(-1,-1)"></rect><rect x="15.5" y="238.5" width="7" height="112" stroke="#FFFFFF" stroke-width="1" fill="#f45b5b" rx="0" ry="0"></rect><rect x="28.5" y="238.5" width="7" height="119" stroke="black" stroke-width="5" fill="none" rx="0" ry="0"  stroke-opacity="0.0" transform="translate(-1,-1)"></rect><rect x="28.5" y="238.5" width="7" height="121" stroke="black" stroke-width="3" fill="none" rx="0" ry="0"  stroke-opacity="0.0" transform="translate(-1,-1)"></rect><rect x="28.5" y="238.5" width="7" height="123" stroke="black" stroke-width="1" fill="none" rx="0" ry="0"  stroke-opacity="0.1" transform="translate(-1,-1)"></rect><rect x="28.5" y="238.5" width="7" height="124" stroke="#FFFFFF" stroke-width="1" fill="#f45b5b" rx="0" ry="0"></rect><rect x="40.5" y="238.5" width="7" height="127" stroke="black" stroke-width="5" fill="none" rx="0" ry="0"  stroke-opacity="0.0" transform="translate(-1,-1)"></rect><rect x="40.5" y="238.5" width="7" height="129" stroke="black" stroke-width="3" fill="none" rx="0" ry="0"  stroke-opacity="0.0" transform="translate(-1,-1)"></rect><rect x="40.5" y="238.5" width="7" height="131" stroke="black" stroke-width="1" fill="none" rx="0" ry="0"  stroke-opacity="0.1" transform="translate(-1,-1)"></rect><rect x="40.5" y="238.5" width="7" height="132" stroke="#FFFFFF" stroke-width="1" fill="#f45b5b" rx="0" ry="0"></rect><rect x="53.5" y="238.5" width="7" height="146" stroke="black" stroke-width="5" fill="none" rx="0" ry="0"  stroke-opacity="0.0" transform="translate(-1,-1)"></rect><rect x="53.5" y="238.5" width="7" height="148" stroke="black" stroke-width="3" fill="none" rx="0" ry="0"  stroke-opacity="0.0" transform="translate(-1,-1)"></rect><rect x="53.5" y="238.5" width="7" height="150" stroke="black" stroke-width="1" fill="none" rx="0" ry="0"  stroke-opacity="0.1" transform="translate(-1,-1)"></rect><rect x="53.5" y="238.5" width="7" height="151" stroke="#FFFFFF" stroke-width="1" fill="#f45b5b" rx="0" ry="0"></rect><rect x="66.5" y="238.5" width="7" height="144" stroke="black" stroke-width="5" fill="none" rx="0" ry="0"  stroke-opacity="0.0" transform="translate(-1,-1)"></rect><rect x="66.5" y="238.5" width="7" height="146" stroke="black" stroke-width="3" fill="none" rx="0" ry="0"  stroke-opacity="0.0" transform="translate(-1,-1)"></rect><rect x="66.5" y="238.5" width="7" height="148" stroke="black" stroke-width="1" fill="none" rx="0" ry="0"  stroke-opacity="0.1" transform="translate(-1,-1)"></rect><rect x="66.5" y="238.5" width="7" height="149" stroke="#FFFFFF" stroke-width="1" fill="#f45b5b" rx="0" ry="0"></rect><rect x="79.5" y="238.5" width="7" height="140" stroke="black" stroke-width="5" fill="none" rx="0" ry="0"  stroke-opacity="0.0" transform="translate(-1,-1)"></rect><rect x="79.5" y="238.5" width="7" height="142" stroke="black" stroke-width="3" fill="none" rx="0" ry="0"  stroke-opacity="0.0" transform="translate(-1,-1)"></rect><rect x="79.5" y="238.5" width="7" height="144" stroke="black" stroke-width="1" fill="none" rx="0" ry="0"  stroke-opacity="0.1" transform="translate(-1,-1)"></rect><rect x="79.5" y="238.5" width="7" height="145" stroke="#FFFFFF" stroke-width="1" fill="#f45b5b" rx="0" ry="0"></rect><rect x="91.5" y="238.5" width="7" height="154" stroke="black" stroke-width="5" fill="none" rx="0" ry="0"  stroke-opacity="0.0" transform="translate(-1,-1)"></rect><rect x="91.5" y="238.5" width="7" height="156" stroke="black" stroke-width="3" fill="none" rx="0" ry="0"  stroke-opacity="0.0" transform="translate(-1,-1)"></rect><rect x="91.5" y="238.5" width="7" height="158" stroke="black" stroke-width="1" fill="none" rx="0" ry="0"  stroke-opacity="0.1" transform="translate(-1,-1)"></rect><rect x="91.5" y="238.5" width="7" height="159" stroke="#FFFFFF" stroke-width="1" fill="#f45b5b" rx="0" ry="0"></rect><rect x="104.5" y="238.5" width="7" height="207" stroke="black" stroke-width="5" fill="none" rx="0" ry="0"  stroke-opacity="0.0" transform="translate(-1,-1)"></rect><rect x="104.5" y="238.5" width="7" height="209" stroke="black" stroke-width="3" fill="none" rx="0" ry="0"  stroke-opacity="0.0" transform="translate(-1,-1)"></rect><rect x="104.5" y="238.5" width="7" height="211" stroke="black" stroke-width="1" fill="none" rx="0" ry="0"  stroke-opacity="0.1" transform="translate(-1,-1)"></rect><rect x="104.5" y="238.5" width="7" height="212" stroke="#FFFFFF" stroke-width="1" fill="#f45b5b" rx="0" ry="0"></rect><rect x="117.5" y="238.5" width="7" height="214" stroke="black" stroke-width="5" fill="none" rx="0" ry="0"  stroke-opacity="0.0" transform="translate(-1,-1)"></rect><rect x="117.5" y="238.5" width="7" height="216" stroke="black" stroke-width="3" fill="none" rx="0" ry="0"  stroke-opacity="0.0" transform="translate(-1,-1)"></rect><rect x="117.5" y="238.5" width="7" height="218" stroke="black" stroke-width="1" fill="none" rx="0" ry="0"  stroke-opacity="0.1" transform="translate(-1,-1)"></rect><rect x="117.5" y="238.5" width="7" height="219" stroke="#FFFFFF" stroke-width="1" fill="#f45b5b" rx="0" ry="0"></rect><rect x="129.5" y="238.5" width="7" height="182" stroke="black" stroke-width="5" fill="none" rx="0" ry="0"  stroke-opacity="0.0" transform="translate(-1,-1)"></rect><rect x="129.5" y="238.5" width="7" height="184" stroke="black" stroke-width="3" fill="none" rx="0" ry="0"  stroke-opacity="0.0" transform="translate(-1,-1)"></rect><rect x="129.5" y="238.5" width="7" height="186" stroke="black" stroke-width="1" fill="none" rx="0" ry="0"  stroke-opacity="0.1" transform="translate(-1,-1)"></rect><rect x="129.5" y="238.5" width="7" height="187" stroke="#FFFFFF" stroke-width="1" fill="#f45b5b" rx="0" ry="0"></rect><rect x="142.5" y="238.5" width="7" height="157" stroke="black" stroke-width="5" fill="none" rx="0" ry="0"  stroke-opacity="0.0" transform="translate(-1,-1)"></rect><rect x="142.5" y="238.5" width="7" height="159" stroke="black" stroke-width="3" fill="none" rx="0" ry="0"  stroke-opacity="0.0" transform="translate(-1,-1)"></rect><rect x="142.5" y="238.5" width="7" height="161" stroke="black" stroke-width="1" fill="none" rx="0" ry="0"  stroke-opacity="0.1" transform="translate(-1,-1)"></rect><rect x="142.5" y="238.5" width="7" height="162" stroke="#FFFFFF" stroke-width="1" fill="#f45b5b" rx="0" ry="0"></rect><rect x="155.5" y="238.5" width="7" height="128" stroke="black" stroke-width="5" fill="none" rx="0" ry="0"  stroke-opacity="0.0" transform="translate(-1,-1)"></rect><rect x="155.5" y="238.5" width="7" height="130" stroke="black" stroke-width="3" fill="none" rx="0" ry="0"  stroke-opacity="0.0" transform="translate(-1,-1)"></rect><rect x="155.5" y="238.5" width="7" height="132" stroke="black" stroke-width="1" fill="none" rx="0" ry="0"  stroke-opacity="0.1" transform="translate(-1,-1)"></rect><rect x="155.5" y="238.5" width="7" height="133" stroke="#FFFFFF" stroke-width="1" fill="#f45b5b" rx="0" ry="0"></rect><rect x="168.5" y="238.5" width="7" height="128" stroke="black" stroke-width="5" fill="none" rx="0" ry="0"  stroke-opacity="0.0" transform="translate(-1,-1)"></rect><rect x="168.5" y="238.5" width="7" height="130" stroke="black" stroke-width="3" fill="none" rx="0" ry="0"  stroke-opacity="0.0" transform="translate(-1,-1)"></rect><rect x="168.5" y="238.5" width="7" height="132" stroke="black" stroke-width="1" fill="none" rx="0" ry="0"  stroke-opacity="0.1" transform="translate(-1,-1)"></rect><rect x="168.5" y="238.5" width="7" height="133" stroke="#FFFFFF" stroke-width="1" fill="#f45b5b" rx="0" ry="0"></rect><rect x="180.5" y="238.5" width="7" height="124" stroke="black" stroke-width="5" fill="none" rx="0" ry="0"  stroke-opacity="0.0" transform="translate(-1,-1)"></rect><rect x="180.5" y="238.5" width="7" height="126" stroke="black" stroke-width="3" fill="none" rx="0" ry="0"  stroke-opacity="0.0" transform="translate(-1,-1)"></rect><rect x="180.5" y="238.5" width="7" height="128" stroke="black" stroke-width="1" fill="none" rx="0" ry="0"  stroke-opacity="0.1" transform="translate(-1,-1)"></rect><rect x="180.5" y="238.5" width="7" height="129" stroke="#FFFFFF" stroke-width="1" fill="#f45b5b" rx="0" ry="0"></rect><rect x="193.5" y="238.5" width="7" height="74" stroke="black" stroke-width="5" fill="none" rx="0" ry="0"  stroke-opacity="0.0" transform="translate(-1,-1)"></rect><rect x="193.5" y="238.5" width="7" height="76" stroke="black" stroke-width="3" fill="none" rx="0" ry="0"  stroke-opacity="0.0" transform="translate(-1,-1)"></rect><rect x="193.5" y="238.5" width="7" height="78" stroke="black" stroke-width="1" fill="none" rx="0" ry="0"  stroke-opacity="0.1" transform="translate(-1,-1)"></rect><rect x="193.5" y="238.5" width="7" height="79" stroke="#FFFFFF" stroke-width="1" fill="#f45b5b" rx="0" ry="0"></rect><rect x="206.5" y="238.5" width="7" height="45" stroke="black" stroke-width="5" fill="none" rx="0" ry="0"  stroke-opacity="0.0" transform="translate(-1,-1)"></rect><rect x="206.5" y="238.5" width="7" height="47" stroke="black" stroke-width="3" fill="none" rx="0" ry="0"  stroke-opacity="0.0" transform="translate(-1,-1)"></rect><rect x="206.5" y="238.5" width="7" height="49" stroke="black" stroke-width="1" fill="none" rx="0" ry="0"  stroke-opacity="0.1" transform="translate(-1,-1)"></rect><rect x="206.5" y="238.5" width="7" height="50" stroke="#FFFFFF" stroke-width="1" fill="#f45b5b" rx="0" ry="0"></rect><rect x="218.5" y="238.5" width="7" height="16" stroke="black" stroke-width="5" fill="none" rx="0" ry="0"  stroke-opacity="0.0" transform="translate(-1,-1)"></rect><rect x="218.5" y="238.5" width="7" height="18" stroke="black" stroke-width="3" fill="none" rx="0" ry="0"  stroke-opacity="0.0" transform="translate(-1,-1)"></rect><rect x="218.5" y="238.5" width="7" height="20" stroke="black" stroke-width="1" fill="none" rx="0" ry="0"  stroke-opacity="0.1" transform="translate(-1,-1)"></rect><rect x="218.5" y="238.5" width="7" height="21" stroke="#FFFFFF" stroke-width="1" fill="#f45b5b" rx="0" ry="0"></rect><rect x="231.5" y="238.5" width="7" height="0" stroke="black" stroke-width="5" fill="none" rx="0" ry="0"  stroke-opacity="0.0" transform="translate(-1,-1)"></rect><rect x="231.5" y="238.5" width="7" height="2" stroke="black" stroke-width="3" fill="none" rx="0" ry="0"  stroke-opacity="0.0" transform="translate(-1,-1)"></rect><rect x="231.5" y="238.5" width="7" height="4" stroke="black" stroke-width="1" fill="none" rx="0" ry="0"  stroke-opacity="0.1" transform="translate(-1,-1)"></rect><rect x="231.5" y="238.5" width="7" height="5" stroke="#FFFFFF" stroke-width="1" fill="#f45b5b" rx="0" ry="0"></rect><rect x="244.5" y="238.5" width="7" height="0" stroke="black" stroke-width="5" fill="none" rx="0" ry="0"  stroke-opacity="0.0" transform="translate(-1,-1)"></rect><rect x="244.5" y="238.5" width="7" height="0" stroke="black" stroke-width="3" fill="none" rx="0" ry="0"  stroke-opacity="0.0" transform="translate(-1,-1)"></rect><rect x="244.5" y="238.5" width="7" height="1" stroke="black" stroke-width="1" fill="none" rx="0" ry="0"  stroke-opacity="0.1" transform="translate(-1,-1)"></rect><rect x="244.5" y="238.5" width="7" height="2" stroke="#FFFFFF" stroke-width="1" fill="#f45b5b" rx="0" ry="0"></rect><rect x="257.5" y="238.5" width="7" height="0" stroke="black" stroke-width="5" fill="none" rx="0" ry="0"  stroke-opacity="0.0" transform="translate(-1,-1)"></rect><rect x="257.5" y="238.5" width="7" height="0" stroke="black" stroke-width="3" fill="none" rx="0" ry="0"  stroke-opacity="0.0" transform="translate(-1,-1)"></rect><rect x="257.5" y="238.5" width="7" height="0" stroke="black" stroke-width="1" fill="none" rx="0" ry="0"  stroke-opacity="0.1" transform="translate(-1,-1)"></rect><rect x="257.5" y="238.5" width="7" height="0" stroke="#FFFFFF" stroke-width="1" fill="#f45b5b" rx="0" ry="0"></rect></g><g class="highcharts-markers" visibility="visible"  transform="translate(530,325) rotate(90) scale(-1,1) scale(1 1)" width="476" height="267"></g><g class="highcharts-series highcharts-tracker" visibility="visible"  transform="translate(530,325) rotate(90) scale(-1,1) scale(1 1)" style="" width="476" height="267" clip-path="url(#highcharts-1)"><rect x="2.5" y="139.5" width="7" height="94" stroke="black" stroke-width="5" fill="none" rx="0" ry="0"  stroke-opacity="0.0" transform="translate(-1,-1)"></rect><rect x="2.5" y="139.5" width="7" height="96" stroke="black" stroke-width="3" fill="none" rx="0" ry="0"  stroke-opacity="0.0" transform="translate(-1,-1)"></rect><rect x="2.5" y="139.5" width="7" height="98" stroke="black" stroke-width="1" fill="none" rx="0" ry="0"  stroke-opacity="0.1" transform="translate(-1,-1)"></rect><rect x="2.5" y="139.5" width="7" height="99" stroke="#FFFFFF" stroke-width="1" fill="#8085e9" rx="0" ry="0"></rect><rect x="15.5" y="132.5" width="7" height="101" stroke="black" stroke-width="5" fill="none" rx="0" ry="0"  stroke-opacity="0.0" transform="translate(-1,-1)"></rect><rect x="15.5" y="132.5" width="7" height="103" stroke="black" stroke-width="3" fill="none" rx="0" ry="0"  stroke-opacity="0.0" transform="translate(-1,-1)"></rect><rect x="15.5" y="132.5" width="7" height="105" stroke="black" stroke-width="1" fill="none" rx="0" ry="0"  stroke-opacity="0.1" transform="translate(-1,-1)"></rect><rect x="15.5" y="132.5" width="7" height="106" stroke="#FFFFFF" stroke-width="1" fill="#8085e9" rx="0" ry="0"></rect><rect x="28.5" y="120.5" width="7" height="113" stroke="black" stroke-width="5" fill="none" rx="0" ry="0"  stroke-opacity="0.0" transform="translate(-1,-1)"></rect><rect x="28.5" y="120.5" width="7" height="115" stroke="black" stroke-width="3" fill="none" rx="0" ry="0"  stroke-opacity="0.0" transform="translate(-1,-1)"></rect><rect x="28.5" y="120.5" width="7" height="117" stroke="black" stroke-width="1" fill="none" rx="0" ry="0"  stroke-opacity="0.1" transform="translate(-1,-1)"></rect><rect x="28.5" y="120.5" width="7" height="118" stroke="#FFFFFF" stroke-width="1" fill="#8085e9" rx="0" ry="0"></rect><rect x="40.5" y="113.5" width="7" height="120" stroke="black" stroke-width="5" fill="none" rx="0" ry="0"  stroke-opacity="0.0" transform="translate(-1,-1)"></rect><rect x="40.5" y="113.5" width="7" height="122" stroke="black" stroke-width="3" fill="none" rx="0" ry="0"  stroke-opacity="0.0" transform="translate(-1,-1)"></rect><rect x="40.5" y="113.5" width="7" height="124" stroke="black" stroke-width="1" fill="none" rx="0" ry="0"  stroke-opacity="0.1" transform="translate(-1,-1)"></rect><rect x="40.5" y="113.5" width="7" height="125" stroke="#FFFFFF" stroke-width="1" fill="#8085e9" rx="0" ry="0"></rect><rect x="53.5" y="95.5" width="7" height="138" stroke="black" stroke-width="5" fill="none" rx="0" ry="0"  stroke-opacity="0.0" transform="translate(-1,-1)"></rect><rect x="53.5" y="95.5" width="7" height="140" stroke="black" stroke-width="3" fill="none" rx="0" ry="0"  stroke-opacity="0.0" transform="translate(-1,-1)"></rect><rect x="53.5" y="95.5" width="7" height="142" stroke="black" stroke-width="1" fill="none" rx="0" ry="0"  stroke-opacity="0.1" transform="translate(-1,-1)"></rect><rect x="53.5" y="95.5" width="7" height="143" stroke="#FFFFFF" stroke-width="1" fill="#8085e9" rx="0" ry="0"></rect><rect x="66.5" y="97.5" width="7" height="136" stroke="black" stroke-width="5" fill="none" rx="0" ry="0"  stroke-opacity="0.0" transform="translate(-1,-1)"></rect><rect x="66.5" y="97.5" width="7" height="138" stroke="black" stroke-width="3" fill="none" rx="0" ry="0"  stroke-opacity="0.0" transform="translate(-1,-1)"></rect><rect x="66.5" y="97.5" width="7" height="140" stroke="black" stroke-width="1" fill="none" rx="0" ry="0"  stroke-opacity="0.1" transform="translate(-1,-1)"></rect><rect x="66.5" y="97.5" width="7" height="141" stroke="#FFFFFF" stroke-width="1" fill="#8085e9" rx="0" ry="0"></rect><rect x="79.5" y="101.5" width="7" height="132" stroke="black" stroke-width="5" fill="none" rx="0" ry="0"  stroke-opacity="0.0" transform="translate(-1,-1)"></rect><rect x="79.5" y="101.5" width="7" height="134" stroke="black" stroke-width="3" fill="none" rx="0" ry="0"  stroke-opacity="0.0" transform="translate(-1,-1)"></rect><rect x="79.5" y="101.5" width="7" height="136" stroke="black" stroke-width="1" fill="none" rx="0" ry="0"  stroke-opacity="0.1" transform="translate(-1,-1)"></rect><rect x="79.5" y="101.5" width="7" height="137" stroke="#FFFFFF" stroke-width="1" fill="#8085e9" rx="0" ry="0"></rect><rect x="91.5" y="88.5" width="7" height="145" stroke="black" stroke-width="5" fill="none" rx="0" ry="0"  stroke-opacity="0.0" transform="translate(-1,-1)"></rect><rect x="91.5" y="88.5" width="7" height="147" stroke="black" stroke-width="3" fill="none" rx="0" ry="0"  stroke-opacity="0.0" transform="translate(-1,-1)"></rect><rect x="91.5" y="88.5" width="7" height="149" stroke="black" stroke-width="1" fill="none" rx="0" ry="0"  stroke-opacity="0.1" transform="translate(-1,-1)"></rect><rect x="91.5" y="88.5" width="7" height="150" stroke="#FFFFFF" stroke-width="1" fill="#8085e9" rx="0" ry="0"></rect><rect x="104.5" y="38.5" width="7" height="195" stroke="black" stroke-width="5" fill="none" rx="0" ry="0"  stroke-opacity="0.0" transform="translate(-1,-1)"></rect><rect x="104.5" y="38.5" width="7" height="197" stroke="black" stroke-width="3" fill="none" rx="0" ry="0"  stroke-opacity="0.0" transform="translate(-1,-1)"></rect><rect x="104.5" y="38.5" width="7" height="199" stroke="black" stroke-width="1" fill="none" rx="0" ry="0"  stroke-opacity="0.1" transform="translate(-1,-1)"></rect><rect x="104.5" y="38.5" width="7" height="200" stroke="#FFFFFF" stroke-width="1" fill="#8085e9" rx="0" ry="0"></rect><rect x="117.5" y="30.5" width="7" height="203" stroke="black" stroke-width="5" fill="none" rx="0" ry="0"  stroke-opacity="0.0" transform="translate(-1,-1)"></rect><rect x="117.5" y="30.5" width="7" height="205" stroke="black" stroke-width="3" fill="none" rx="0" ry="0"  stroke-opacity="0.0" transform="translate(-1,-1)"></rect><rect x="117.5" y="30.5" width="7" height="207" stroke="black" stroke-width="1" fill="none" rx="0" ry="0"  stroke-opacity="0.1" transform="translate(-1,-1)"></rect><rect x="117.5" y="30.5" width="7" height="208" stroke="#FFFFFF" stroke-width="1" fill="#8085e9" rx="0" ry="0"></rect><rect x="129.5" y="56.5" width="7" height="177" stroke="black" stroke-width="5" fill="none" rx="0" ry="0"  stroke-opacity="0.0" transform="translate(-1,-1)"></rect><rect x="129.5" y="56.5" width="7" height="179" stroke="black" stroke-width="3" fill="none" rx="0" ry="0"  stroke-opacity="0.0" transform="translate(-1,-1)"></rect><rect x="129.5" y="56.5" width="7" height="181" stroke="black" stroke-width="1" fill="none" rx="0" ry="0"  stroke-opacity="0.1" transform="translate(-1,-1)"></rect><rect x="129.5" y="56.5" width="7" height="182" stroke="#FFFFFF" stroke-width="1" fill="#8085e9" rx="0" ry="0"></rect><rect x="142.5" y="74.5" width="7" height="159" stroke="black" stroke-width="5" fill="none" rx="0" ry="0"  stroke-opacity="0.0" transform="translate(-1,-1)"></rect><rect x="142.5" y="74.5" width="7" height="161" stroke="black" stroke-width="3" fill="none" rx="0" ry="0"  stroke-opacity="0.0" transform="translate(-1,-1)"></rect><rect x="142.5" y="74.5" width="7" height="163" stroke="black" stroke-width="1" fill="none" rx="0" ry="0"  stroke-opacity="0.1" transform="translate(-1,-1)"></rect><rect x="142.5" y="74.5" width="7" height="164" stroke="#FFFFFF" stroke-width="1" fill="#8085e9" rx="0" ry="0"></rect><rect x="155.5" y="101.5" width="7" height="132" stroke="black" stroke-width="5" fill="none" rx="0" ry="0"  stroke-opacity="0.0" transform="translate(-1,-1)"></rect><rect x="155.5" y="101.5" width="7" height="134" stroke="black" stroke-width="3" fill="none" rx="0" ry="0"  stroke-opacity="0.0" transform="translate(-1,-1)"></rect><rect x="155.5" y="101.5" width="7" height="136" stroke="black" stroke-width="1" fill="none" rx="0" ry="0"  stroke-opacity="0.1" transform="translate(-1,-1)"></rect><rect x="155.5" y="101.5" width="7" height="137" stroke="#FFFFFF" stroke-width="1" fill="#8085e9" rx="0" ry="0"></rect><rect x="168.5" y="94.5" width="7" height="139" stroke="black" stroke-width="5" fill="none" rx="0" ry="0"  stroke-opacity="0.0" transform="translate(-1,-1)"></rect><rect x="168.5" y="94.5" width="7" height="141" stroke="black" stroke-width="3" fill="none" rx="0" ry="0"  stroke-opacity="0.0" transform="translate(-1,-1)"></rect><rect x="168.5" y="94.5" width="7" height="143" stroke="black" stroke-width="1" fill="none" rx="0" ry="0"  stroke-opacity="0.1" transform="translate(-1,-1)"></rect><rect x="168.5" y="94.5" width="7" height="144" stroke="#FFFFFF" stroke-width="1" fill="#8085e9" rx="0" ry="0"></rect><rect x="180.5" y="85.5" width="7" height="148" stroke="black" stroke-width="5" fill="none" rx="0" ry="0"  stroke-opacity="0.0" transform="translate(-1,-1)"></rect><rect x="180.5" y="85.5" width="7" height="150" stroke="black" stroke-width="3" fill="none" rx="0" ry="0"  stroke-opacity="0.0" transform="translate(-1,-1)"></rect><rect x="180.5" y="85.5" width="7" height="152" stroke="black" stroke-width="1" fill="none" rx="0" ry="0"  stroke-opacity="0.1" transform="translate(-1,-1)"></rect><rect x="180.5" y="85.5" width="7" height="153" stroke="#FFFFFF" stroke-width="1" fill="#8085e9" rx="0" ry="0"></rect><rect x="193.5" y="132.5" width="7" height="101" stroke="black" stroke-width="5" fill="none" rx="0" ry="0"  stroke-opacity="0.0" transform="translate(-1,-1)"></rect><rect x="193.5" y="132.5" width="7" height="103" stroke="black" stroke-width="3" fill="none" rx="0" ry="0"  stroke-opacity="0.0" transform="translate(-1,-1)"></rect><rect x="193.5" y="132.5" width="7" height="105" stroke="black" stroke-width="1" fill="none" rx="0" ry="0"  stroke-opacity="0.1" transform="translate(-1,-1)"></rect><rect x="193.5" y="132.5" width="7" height="106" stroke="#FFFFFF" stroke-width="1" fill="#8085e9" rx="0" ry="0"></rect><rect x="206.5" y="152.5" width="7" height="81" stroke="black" stroke-width="5" fill="none" rx="0" ry="0"  stroke-opacity="0.0" transform="translate(-1,-1)"></rect><rect x="206.5" y="152.5" width="7" height="83" stroke="black" stroke-width="3" fill="none" rx="0" ry="0"  stroke-opacity="0.0" transform="translate(-1,-1)"></rect><rect x="206.5" y="152.5" width="7" height="85" stroke="black" stroke-width="1" fill="none" rx="0" ry="0"  stroke-opacity="0.1" transform="translate(-1,-1)"></rect><rect x="206.5" y="152.5" width="7" height="86" stroke="#FFFFFF" stroke-width="1" fill="#8085e9" rx="0" ry="0"></rect><rect x="218.5" y="178.5" width="7" height="55" stroke="black" stroke-width="5" fill="none" rx="0" ry="0"  stroke-opacity="0.0" transform="translate(-1,-1)"></rect><rect x="218.5" y="178.5" width="7" height="57" stroke="black" stroke-width="3" fill="none" rx="0" ry="0"  stroke-opacity="0.0" transform="translate(-1,-1)"></rect><rect x="218.5" y="178.5" width="7" height="59" stroke="black" stroke-width="1" fill="none" rx="0" ry="0"  stroke-opacity="0.1" transform="translate(-1,-1)"></rect><rect x="218.5" y="178.5" width="7" height="60" stroke="#FFFFFF" stroke-width="1" fill="#8085e9" rx="0" ry="0"></rect><rect x="231.5" y="218.5" width="7" height="15" stroke="black" stroke-width="5" fill="none" rx="0" ry="0"  stroke-opacity="0.0" transform="translate(-1,-1)"></rect><rect x="231.5" y="218.5" width="7" height="17" stroke="black" stroke-width="3" fill="none" rx="0" ry="0"  stroke-opacity="0.0" transform="translate(-1,-1)"></rect><rect x="231.5" y="218.5" width="7" height="19" stroke="black" stroke-width="1" fill="none" rx="0" ry="0"  stroke-opacity="0.1" transform="translate(-1,-1)"></rect><rect x="231.5" y="218.5" width="7" height="20" stroke="#FFFFFF" stroke-width="1" fill="#8085e9" rx="0" ry="0"></rect><rect x="244.5" y="230.5" width="7" height="3" stroke="black" stroke-width="5" fill="none" rx="0" ry="0"  stroke-opacity="0.0" transform="translate(-1,-1)"></rect><rect x="244.5" y="230.5" width="7" height="5" stroke="black" stroke-width="3" fill="none" rx="0" ry="0"  stroke-opacity="0.0" transform="translate(-1,-1)"></rect><rect x="244.5" y="230.5" width="7" height="7" stroke="black" stroke-width="1" fill="none" rx="0" ry="0"  stroke-opacity="0.1" transform="translate(-1,-1)"></rect><rect x="244.5" y="230.5" width="7" height="8" stroke="#FFFFFF" stroke-width="1" fill="#8085e9" rx="0" ry="0"></rect><rect x="257.5" y="237.5" width="7" height="0" stroke="black" stroke-width="5" fill="none" rx="0" ry="0"  stroke-opacity="0.0" transform="translate(-1,-1)"></rect><rect x="257.5" y="237.5" width="7" height="0" stroke="black" stroke-width="3" fill="none" rx="0" ry="0"  stroke-opacity="0.0" transform="translate(-1,-1)"></rect><rect x="257.5" y="237.5" width="7" height="0" stroke="black" stroke-width="1" fill="none" rx="0" ry="0"  stroke-opacity="0.1" transform="translate(-1,-1)"></rect><rect x="257.5" y="237.5" width="7" height="1" stroke="#FFFFFF" stroke-width="1" fill="#8085e9" rx="0" ry="0"></rect></g><g class="highcharts-markers" visibility="visible"  transform="translate(530,325) rotate(90) scale(-1,1) scale(1 1)" width="476" height="267"></g></g><text x="292" text-anchor="middle" class="highcharts-title"  style="color:black;font-size:16px;font-weight:bold;fill:black;width:520px;" y="22"><tspan>Population pyramid for Germany, midyear 2010</tspan></text><text x="292" text-anchor="middle" class="highcharts-subtitle"  style="color:black;fill:black;width:520px;" y="43"><tspan>Source: www.census.gov</tspan></text><g class="highcharts-legend"  transform="translate(216,358)"><g ><g><g class="highcharts-legend-item"  transform="translate(8,3)"><text x="21" style="color:#333333;font-size:13px;font-weight:bold;cursor:pointer;fill:#333333;" text-anchor="start"  y="16">Male</text><rect x="0" y="5" width="16" height="12"  fill="#f45b5b"></rect></g><g class="highcharts-legend-item"  transform="translate(79,3)"><text x="21" y="16" style="color:#333333;font-size:13px;font-weight:bold;cursor:pointer;fill:#333333;" text-anchor="start" >Female</text><rect x="0" y="5" width="16" height="12"  fill="#8085e9"></rect></g></g></g></g><g class="highcharts-axis-labels highcharts-xaxis-labels" ><text x="39" style="color:#6e6e70;cursor:default;font-size:11px;fill:#6e6e70;width:183px;text-overflow:clip;" text-anchor="end" transform="translate(0,0)" y="323" opacity="1">0-4</text><text x="39" style="color:#6e6e70;cursor:default;font-size:11px;fill:#6e6e70;width:183px;text-overflow:clip;" text-anchor="end" transform="translate(0,0)" y="298" opacity="1">10-14</text><text x="39" style="color:#6e6e70;cursor:default;font-size:11px;fill:#6e6e70;width:183px;text-overflow:clip;" text-anchor="end" transform="translate(0,0)" y="272" opacity="1">20-24</text><text x="39" style="color:#6e6e70;cursor:default;font-size:11px;fill:#6e6e70;width:183px;text-overflow:clip;" text-anchor="end" transform="translate(0,0)" y="247" opacity="1">30-34</text><text x="39" style="color:#6e6e70;cursor:default;font-size:11px;fill:#6e6e70;width:183px;text-overflow:clip;" text-anchor="end" transform="translate(0,0)" y="221" opacity="1">40-44</text><text x="39" style="color:#6e6e70;cursor:default;font-size:11px;fill:#6e6e70;width:183px;text-overflow:clip;" text-anchor="end" transform="translate(0,0)" y="196" opacity="1">50-54</text><text x="39" style="color:#6e6e70;cursor:default;font-size:11px;fill:#6e6e70;width:183px;text-overflow:clip;" text-anchor="end" transform="translate(0,0)" y="171" opacity="1">60-64</text><text x="39" style="color:#6e6e70;cursor:default;font-size:11px;fill:#6e6e70;width:183px;text-overflow:clip;" text-anchor="end" transform="translate(0,0)" y="145" opacity="1">70-74</text><text x="39" style="color:#6e6e70;cursor:default;font-size:11px;fill:#6e6e70;width:183px;text-overflow:clip;" text-anchor="end" transform="translate(0,0)" y="120" opacity="1">80-84</text><text x="39" style="color:#6e6e70;cursor:default;font-size:11px;fill:#6e6e70;width:183px;text-overflow:clip;" text-anchor="end" transform="translate(0,0)" y="94" opacity="1">90-94</text><text x="39" style="color:#6e6e70;cursor:default;font-size:11px;fill:#6e6e70;width:183px;text-overflow:clip;" text-anchor="end" transform="translate(0,0)" y="69" opacity="1"><tspan>100 + </tspan></text></g><g class="highcharts-axis-labels highcharts-xaxis-labels" ><text x="545" style="color:#6e6e70;cursor:default;font-size:11px;fill:#6e6e70;width:183px;text-overflow:clip;" text-anchor="start" transform="translate(0,0)" y="323" opacity="1">0-4</text><text x="545" style="color:#6e6e70;cursor:default;font-size:11px;fill:#6e6e70;width:183px;text-overflow:clip;" text-anchor="start" transform="translate(0,0)" y="298" opacity="1">10-14</text><text x="545" style="color:#6e6e70;cursor:default;font-size:11px;fill:#6e6e70;width:183px;text-overflow:clip;" text-anchor="start" transform="translate(0,0)" y="272" opacity="1">20-24</text><text x="545" style="color:#6e6e70;cursor:default;font-size:11px;fill:#6e6e70;width:183px;text-overflow:clip;" text-anchor="start" transform="translate(0,0)" y="247" opacity="1">30-34</text><text x="545" style="color:#6e6e70;cursor:default;font-size:11px;fill:#6e6e70;width:183px;text-overflow:clip;" text-anchor="start" transform="translate(0,0)" y="221" opacity="1">40-44</text><text x="545" style="color:#6e6e70;cursor:default;font-size:11px;fill:#6e6e70;width:183px;text-overflow:clip;" text-anchor="start" transform="translate(0,0)" y="196" opacity="1">50-54</text><text x="545" style="color:#6e6e70;cursor:default;font-size:11px;fill:#6e6e70;width:183px;text-overflow:clip;" text-anchor="start" transform="translate(0,0)" y="171" opacity="1">60-64</text><text x="545" style="color:#6e6e70;cursor:default;font-size:11px;fill:#6e6e70;width:183px;text-overflow:clip;" text-anchor="start" transform="translate(0,0)" y="145" opacity="1">70-74</text><text x="545" style="color:#6e6e70;cursor:default;font-size:11px;fill:#6e6e70;width:183px;text-overflow:clip;" text-anchor="start" transform="translate(0,0)" y="120" opacity="1">80-84</text><text x="545" style="color:#6e6e70;cursor:default;font-size:11px;fill:#6e6e70;width:183px;text-overflow:clip;" text-anchor="start" transform="translate(0,0)" y="94" opacity="1">90-94</text><text x="545" style="color:#6e6e70;cursor:default;font-size:11px;fill:#6e6e70;width:183px;text-overflow:clip;" text-anchor="start" transform="translate(0,0)" y="69" opacity="1"><tspan>100 + </tspan></text></g><g class="highcharts-axis-labels highcharts-yaxis-labels" ><text x="54" style="color:#6e6e70;cursor:default;font-size:11px;fill:#6e6e70;" text-anchor="middle" transform="translate(0,0)" y="344" opacity="1">4M</text><text x="113.5" style="color:#6e6e70;cursor:default;font-size:11px;fill:#6e6e70;" text-anchor="middle" transform="translate(0,0)" y="344" opacity="1">3M</text><text x="173" style="color:#6e6e70;cursor:default;font-size:11px;fill:#6e6e70;" text-anchor="middle" transform="translate(0,0)" y="344" opacity="1">2M</text><text x="232.5" style="color:#6e6e70;cursor:default;font-size:11px;fill:#6e6e70;" text-anchor="middle" transform="translate(0,0)" y="344" opacity="1">1M</text><text x="292" style="color:#6e6e70;cursor:default;font-size:11px;fill:#6e6e70;" text-anchor="middle" transform="translate(0,0)" y="344" opacity="1">0M</text><text x="351.5" style="color:#6e6e70;cursor:default;font-size:11px;fill:#6e6e70;" text-anchor="middle" transform="translate(0,0)" y="344" opacity="1">1M</text><text x="411" style="color:#6e6e70;cursor:default;font-size:11px;fill:#6e6e70;" text-anchor="middle" transform="translate(0,0)" y="344" opacity="1">2M</text><text x="470.5" style="color:#6e6e70;cursor:default;font-size:11px;fill:#6e6e70;" text-anchor="middle" transform="translate(0,0)" y="344" opacity="1">3M</text><text x="530" style="color:#6e6e70;cursor:default;font-size:11px;fill:#6e6e70;" text-anchor="middle" transform="translate(0,0)" y="344" opacity="1">4M</text></g><g class="highcharts-tooltip"  style="cursor:default;padding:0;white-space:nowrap;" transform="translate(0,-9999)"><path fill="none" d="M 3 0 L 13 0 C 16 0 16 0 16 3 L 16 13 C 16 16 16 16 13 16 L 3 16 C 0 16 0 16 0 13 L 0 3 C 0 0 0 0 3 0"  stroke="black" stroke-opacity="0.0" stroke-width="5" transform="translate(1, 1)"></path><path fill="none" d="M 3 0 L 13 0 C 16 0 16 0 16 3 L 16 13 C 16 16 16 16 13 16 L 3 16 C 0 16 0 16 0 13 L 0 3 C 0 0 0 0 3 0"  stroke="black" stroke-opacity="0.0" stroke-width="3" transform="translate(1, 1)"></path><path fill="none" d="M 3 0 L 13 0 C 16 0 16 0 16 3 L 16 13 C 16 16 16 16 13 16 L 3 16 C 0 16 0 16 0 13 L 0 3 C 0 0 0 0 3 0"  stroke="black" stroke-opacity="0.1" stroke-width="1" transform="translate(1, 1)"></path><path fill="rgb(249, 249, 249)" fill-opacity=" .85" d="M 3 0 L 13 0 C 16 0 16 0 16 3 L 16 13 C 16 16 16 16 13 16 L 3 16 C 0 16 0 16 0 13 L 0 3 C 0 0 0 0 3 0"></path><text x="8"  style="font-size:12px;color:#333333;fill:#333333;" transform="translate(0,20)"></text></g></svg>