<svg version="1.1" style="font-family: signika, serif; font-size: 12px; background-image: url(http://www.highcharts.com/samples/graphics/sand.png); background-attachment: initial; background-origin: initial; background-clip: initial; background-color: initial; background-position: initial initial; background-repeat: initial initial; " xmlns="http://www.w3.org/2000/svg" width="584" height="400" viewBox="0 0 584 400" xmlns:xlink="http://www.w3.org/1999/xlink"><style type="text/css"><![CDATA[@import url(http://fonts.googleapis.com/css?family=Signika:700);]]></style><desc>Created with Highcharts 4.1.4</desc><defs><clipPath id="highcharts-1"><rect x="0" y="0" width="501" height="301"></rect></clipPath><clipPath id="highcharts-2"><rect x="-99" y="-44" width="600" height="400"></rect></clipPath><clipPath id="highcharts-3"><rect x="0" y="0" width="501" height="301"></rect></clipPath></defs><path fill="none" d="M 73 178.5 L 574 178.5" stroke="red" stroke-width="1"></path><text x="334" text-anchor="middle" transform="translate(0,0)" style="color:gray;fill:gray;" y="175" visibility="visible"><tspan>Theoretical mean: 932</tspan></text><g class="highcharts-grid" ></g><g class="highcharts-grid" ><path fill="none" d="M 73 345.5 L 574 345.5" stroke="#D8D8D8" stroke-width="1"  opacity="1"></path><path fill="none" d="M 73 295.5 L 574 295.5" stroke="#D8D8D8" stroke-width="1"  opacity="1"></path><path fill="none" d="M 73 245.5 L 574 245.5" stroke="#D8D8D8" stroke-width="1"  opacity="1"></path><path fill="none" d="M 73 195.5 L 574 195.5" stroke="#D8D8D8" stroke-width="1"  opacity="1"></path><path fill="none" d="M 73 144.5 L 574 144.5" stroke="#D8D8D8" stroke-width="1"  opacity="1"></path><path fill="none" d="M 73 94.5 L 574 94.5" stroke="#D8D8D8" stroke-width="1"  opacity="1"></path><path fill="none" d="M 73 43.5 L 574 43.5" stroke="#D8D8D8" stroke-width="1"  opacity="1"></path></g><g class="highcharts-axis" ><path fill="none" d="M 172.5 345 L 172.5 355" stroke="#C0D0E0" stroke-width="1" opacity="1"></path><path fill="none" d="M 272.5 345 L 272.5 355" stroke="#C0D0E0" stroke-width="1" opacity="1"></path><path fill="none" d="M 373.5 345 L 373.5 355" stroke="#C0D0E0" stroke-width="1" opacity="1"></path><path fill="none" d="M 473.5 345 L 473.5 355" stroke="#C0D0E0" stroke-width="1" opacity="1"></path><path fill="none" d="M 574.5 345 L 574.5 355" stroke="#C0D0E0" stroke-width="1" opacity="1"></path><path fill="none" d="M 72.5 345 L 72.5 355" stroke="#C0D0E0" stroke-width="1" opacity="1"></path><text x="323.5"  text-anchor="middle" transform="translate(0,0)" class=" highcharts-xaxis-title" style="color:#707070;fill:#707070;" visibility="visible" y="383"><tspan>Experiment No.</tspan></text><path fill="none" d="M 73 345.5 L 574 345.5" stroke="#C0D0E0" stroke-width="1"  visibility="visible"></path></g><g class="highcharts-axis" ><text x="24"  text-anchor="middle" transform="translate(0,0) rotate(270 24 194.5)" class=" highcharts-yaxis-title" style="color:#707070;fill:#707070;" visibility="visible" y="194.5">Observations</text></g><g class="highcharts-series-group" ><g class="highcharts-series highcharts-tracker" visibility="visible"  transform="translate(73,44) scale(1 1)" style="" clip-path="url(#highcharts-1)"><g><path fill="none" d="M 50.5 153 L 50.5 117 M 50.5 200 L 50.5 220" stroke="#f45b5b" stroke-width="1"></path><path fill="none" d="M 38 117 L 63 117 M 38 220 L 63 220" stroke="#f45b5b" stroke-width="2"></path><path fill="#FFFFFF" d="M 25.5 153.5 L 25.5 200.5 L 74.5 200.5 L 74.5 153.5 L 25.5 153.5 z" stroke="#f45b5b" stroke-width="1"></path><path fill="none" d="M 25.5 177 L 74.5 177" stroke="#f45b5b" stroke-width="2"></path></g><g><path fill="none" d="M 150.5 110 L 150.5 60 M 150.5 174 L 150.5 234" stroke="#f45b5b" stroke-width="1"></path><path fill="none" d="M 138 60 L 163 60 M 138 234 L 163 234" stroke="#f45b5b" stroke-width="2"></path><path fill="#FFFFFF" d="M 125.5 110.5 L 125.5 174.5 L 174.5 174.5 L 174.5 110.5 L 125.5 110.5 z" stroke="#f45b5b" stroke-width="1"></path><path fill="none" d="M 125.5 131 L 174.5 131" stroke="#f45b5b" stroke-width="2"></path></g><g><path fill="none" d="M 250.5 165 L 250.5 141 M 250.5 219 L 250.5 243" stroke="#f45b5b" stroke-width="1"></path><path fill="none" d="M 238 141 L 263 141 M 238 243 L 263 243" stroke="#f45b5b" stroke-width="2"></path><path fill="#FFFFFF" d="M 225.5 165.5 L 225.5 219.5 L 274.5 219.5 L 274.5 165.5 L 225.5 165.5 z" stroke="#f45b5b" stroke-width="1"></path><path fill="none" d="M 225.5 192 L 274.5 192" stroke="#f45b5b" stroke-width="2"></path></g><g><path fill="none" d="M 351.5 165 L 351.5 125 M 351.5 199 L 351.5 238" stroke="#f45b5b" stroke-width="1"></path><path fill="none" d="M 339 125 L 364 125 M 339 238 L 364 238" stroke="#f45b5b" stroke-width="2"></path><path fill="#FFFFFF" d="M 326.5 165.5 L 326.5 199.5 L 375.5 199.5 L 375.5 165.5 L 326.5 165.5 z" stroke="#f45b5b" stroke-width="1"></path><path fill="none" d="M 326.5 198 L 375.5 198" stroke="#f45b5b" stroke-width="2"></path></g><g><path fill="none" d="M 451.5 159 L 451.5 145 M 451.5 182 L 451.5 183" stroke="#f45b5b" stroke-width="1"></path><path fill="none" d="M 439 145 L 464 145 M 439 183 L 464 183" stroke="#f45b5b" stroke-width="2"></path><path fill="#FFFFFF" d="M 426.5 159.5 L 426.5 182.5 L 475.5 182.5 L 475.5 159.5 L 426.5 159.5 z" stroke="#f45b5b" stroke-width="1"></path><path fill="none" d="M 426.5 169 L 475.5 169" stroke="#f45b5b" stroke-width="2"></path></g></g><g class="highcharts-markers" visibility="visible"  transform="translate(73,44) scale(1 1)"></g><g class="highcharts-series highcharts-tracker" visibility="visible"  transform="translate(73,44) scale(1 1)" clip-path="url(#highcharts-3)" style=""></g><g class="highcharts-markers highcharts-tracker" visibility="visible"  transform="translate(73,44) scale(1 1)" clip-path="url(#highcharts-2)" style=""><path fill="white" d="M 450 111.8 C 455.3 111.8 455.3 119.8 450 119.8 C 444.6 119.8 444.6 111.8 450 111.8 Z" stroke="#f45b5b" stroke-width="1"></path><path fill="white" d="M 450 120.9 C 455.3 120.9 455.3 128.9 450 128.9 C 444.6 128.9 444.6 120.9 450 120.9 Z" stroke="#f45b5b" stroke-width="1"></path><path fill="white" d="M 450 237.8 C 455.3 237.8 455.3 245.8 450 245.8 C 444.6 245.8 444.6 237.8 450 237.8 Z" stroke="#f45b5b" stroke-width="1"></path><path fill="white" d="M 50 274.9 C 55.3 274.9 55.3 282.9 50 282.9 C 44.6 282.9 44.6 274.9 50 274.9 Z" stroke="#f45b5b" stroke-width="1"></path></g></g><text x="292" text-anchor="middle" class="highcharts-title"  style="color:black;font-size:16px;font-weight:bold;fill:black;width:520px;" y="22"><tspan>Highcharts Box Plot Example</tspan></text><g class="highcharts-axis-labels highcharts-xaxis-labels" ><text x="123.1" style="color:#6e6e70;cursor:default;font-size:11px;fill:#6e6e70;width:103px;text-overflow:clip;" text-anchor="middle" transform="translate(0,0)" y="364" opacity="1">1</text><text x="223.2" style="color:#6e6e70;cursor:default;font-size:11px;fill:#6e6e70;width:103px;text-overflow:clip;" text-anchor="middle" transform="translate(0,0)" y="364" opacity="1">2</text><text x="323.5" style="color:#6e6e70;cursor:default;font-size:11px;fill:#6e6e70;width:103px;text-overflow:clip;" text-anchor="middle" transform="translate(0,0)" y="364" opacity="1">3</text><text x="423.7" style="color:#6e6e70;cursor:default;font-size:11px;fill:#6e6e70;width:103px;text-overflow:clip;" text-anchor="middle" transform="translate(0,0)" y="364" opacity="1">4</text><text x="523.9" style="color:#6e6e70;cursor:default;font-size:11px;fill:#6e6e70;width:103px;text-overflow:clip;" text-anchor="middle" transform="translate(0,0)" y="364" opacity="1">5</text></g><g class="highcharts-axis-labels highcharts-yaxis-labels" ><text x="58" style="color:#6e6e70;cursor:default;font-size:11px;fill:#6e6e70;width:183px;text-overflow:clip;" text-anchor="end" transform="translate(0,0)" y="350" opacity="1">600</text><text x="58" style="color:#6e6e70;cursor:default;font-size:11px;fill:#6e6e70;width:183px;text-overflow:clip;" text-anchor="end" transform="translate(0,0)" y="299" opacity="1">700</text><text x="58" style="color:#6e6e70;cursor:default;font-size:11px;fill:#6e6e70;width:183px;text-overflow:clip;" text-anchor="end" transform="translate(0,0)" y="249" opacity="1">800</text><text x="58" style="color:#6e6e70;cursor:default;font-size:11px;fill:#6e6e70;width:183px;text-overflow:clip;" text-anchor="end" transform="translate(0,0)" y="199" opacity="1">900</text><text x="58" style="color:#6e6e70;cursor:default;font-size:11px;fill:#6e6e70;width:183px;text-overflow:clip;" text-anchor="end" transform="translate(0,0)" y="149" opacity="1">1000</text><text x="58" style="color:#6e6e70;cursor:default;font-size:11px;fill:#6e6e70;width:183px;text-overflow:clip;" text-anchor="end" transform="translate(0,0)" y="99" opacity="1">1100</text><text x="58" style="color:#6e6e70;cursor:default;font-size:11px;fill:#6e6e70;width:183px;text-overflow:clip;" text-anchor="end" transform="translate(0,0)" y="49" opacity="1">1200</text></g><g class="highcharts-tooltip"  style="cursor:default;padding:0;white-space:nowrap;" transform="translate(0,-9999)"><path fill="none" d="M 3 0 L 13 0 C 16 0 16 0 16 3 L 16 13 C 16 16 16 16 13 16 L 3 16 C 0 16 0 16 0 13 L 0 3 C 0 0 0 0 3 0"  stroke="black" stroke-opacity="0.0" stroke-width="5" transform="translate(1, 1)"></path><path fill="none" d="M 3 0 L 13 0 C 16 0 16 0 16 3 L 16 13 C 16 16 16 16 13 16 L 3 16 C 0 16 0 16 0 13 L 0 3 C 0 0 0 0 3 0"  stroke="black" stroke-opacity="0.0" stroke-width="3" transform="translate(1, 1)"></path><path fill="none" d="M 3 0 L 13 0 C 16 0 16 0 16 3 L 16 13 C 16 16 16 16 13 16 L 3 16 C 0 16 0 16 0 13 L 0 3 C 0 0 0 0 3 0"  stroke="black" stroke-opacity="0.1" stroke-width="1" transform="translate(1, 1)"></path><path fill="rgb(249, 249, 249)" fill-opacity=" .85" d="M 3 0 L 13 0 C 16 0 16 0 16 3 L 16 13 C 16 16 16 16 13 16 L 3 16 C 0 16 0 16 0 13 L 0 3 C 0 0 0 0 3 0"></path><text x="8"  style="font-size:12px;color:#333333;fill:#333333;" transform="translate(0,20)"></text></g></svg>