<svg version="1.1" style="font-family: signika, serif; font-size: 12px; background-image: url(http://www.highcharts.com/samples/graphics/sand.png); background-attachment: initial; background-origin: initial; background-clip: initial; background-color: initial; background-position: initial initial; background-repeat: initial initial; " xmlns="http://www.w3.org/2000/svg" width="584" height="400" viewBox="0 0 584 400" xmlns:xlink="http://www.w3.org/1999/xlink"><style type="text/css"><![CDATA[@import url(http://fonts.googleapis.com/css?family=Signika:700);]]></style><desc>Created with Highcharts 4.1.4</desc><defs><radialGradient cx="0.4" cy="0.3" r="0.7" id="highcharts-1"><stop offset="0" stop-color="rgb(255,255,255)" stop-opacity="0.5"></stop><stop offset="1" stop-color="rgb(244,91,91)" stop-opacity="0.5"></stop></radialGradient><radialGradient cx="0.4" cy="0.3" r="0.7" id="highcharts-2"><stop offset="0" stop-color="rgb(255,255,255)" stop-opacity="0.5"></stop><stop offset="1" stop-color="rgb(128,133,233)" stop-opacity="0.5"></stop></radialGradient><clipPath id="highcharts-3"><rect x="0" y="0" width="507" height="281"></rect></clipPath></defs><g class="highcharts-grid" ><path fill="none" d="M 87.5 44 L 87.5 325" stroke="#D8D8D8" stroke-width="1"  opacity="1"></path><path fill="none" d="M 180.5 44 L 180.5 325" stroke="#D8D8D8" stroke-width="1"  opacity="1"></path><path fill="none" d="M 273.5 44 L 273.5 325" stroke="#D8D8D8" stroke-width="1"  opacity="1"></path><path fill="none" d="M 366.5 44 L 366.5 325" stroke="#D8D8D8" stroke-width="1"  opacity="1"></path><path fill="none" d="M 459.5 44 L 459.5 325" stroke="#D8D8D8" stroke-width="1"  opacity="1"></path><path fill="none" d="M 553.5 44 L 553.5 325" stroke="#D8D8D8" stroke-width="1"  opacity="1"></path></g><g class="highcharts-grid" ><path fill="none" d="M 67 292.5 L 574 292.5" stroke="#D8D8D8" stroke-width="1"  opacity="1"></path><path fill="none" d="M 67 234.5 L 574 234.5" stroke="#D8D8D8" stroke-width="1"  opacity="1"></path><path fill="none" d="M 67 177.5 L 574 177.5" stroke="#D8D8D8" stroke-width="1"  opacity="1"></path><path fill="none" d="M 67 119.5 L 574 119.5" stroke="#D8D8D8" stroke-width="1"  opacity="1"></path><path fill="none" d="M 67 61.5 L 574 61.5" stroke="#D8D8D8" stroke-width="1"  opacity="1"></path></g><rect x="66.5" y="43.5" width="508" height="282" strokeWidth="-1" stroke="#C0C0C0" stroke-width="1" fill="none" ></rect><g class="highcharts-axis" ><path fill="none" d="M 87.5 325 L 87.5 335" stroke="#C0D0E0" stroke-width="1" opacity="1"></path><path fill="none" d="M 180.5 325 L 180.5 335" stroke="#C0D0E0" stroke-width="1" opacity="1"></path><path fill="none" d="M 273.5 325 L 273.5 335" stroke="#C0D0E0" stroke-width="1" opacity="1"></path><path fill="none" d="M 366.5 325 L 366.5 335" stroke="#C0D0E0" stroke-width="1" opacity="1"></path><path fill="none" d="M 459.5 325 L 459.5 335" stroke="#C0D0E0" stroke-width="1" opacity="1"></path><path fill="none" d="M 553.5 325 L 553.5 335" stroke="#C0D0E0" stroke-width="1" opacity="1"></path><path fill="none" d="M 67 325.5 L 574 325.5" stroke="#C0D0E0" stroke-width="1"  visibility="visible"></path></g><g class="highcharts-axis" ><text x="24"  text-anchor="middle" transform="translate(0,0) rotate(270 24 184.5)" class=" highcharts-yaxis-title" style="color:#707070;fill:#707070;" visibility="visible" y="184.5">Values</text></g><g class="highcharts-series-group" ><g class="highcharts-series highcharts-tracker" visibility="visible"  transform="translate(67,44) scale(1 1)" style="" clip-path="url(#highcharts-3)"><circle cx="62.5" cy="60.8" r="24" stroke="black" stroke-width="5" fill="none"  stroke-opacity="0.0" transform="translate(1, 1)"></circle><circle cx="62.5" cy="60.8" r="24" stroke="black" stroke-width="3" fill="none"  stroke-opacity="0.0" transform="translate(1, 1)"></circle><circle cx="62.5" cy="60.8" r="24" stroke="black" stroke-width="1" fill="none"  stroke-opacity="0.1" transform="translate(1, 1)"></circle><circle cx="62.5" cy="60.8" r="24" stroke="#f45b5b" stroke-width="1" fill="url(#highcharts-1)"></circle><circle cx="477.3" cy="236.5" r="28" stroke="black" stroke-width="5" fill="none"  stroke-opacity="0.0" transform="translate(1, 1)"></circle><circle cx="477.3" cy="236.5" r="28" stroke="black" stroke-width="3" fill="none"  stroke-opacity="0.0" transform="translate(1, 1)"></circle><circle cx="477.3" cy="236.5" r="28" stroke="black" stroke-width="1" fill="none"  stroke-opacity="0.1" transform="translate(1, 1)"></circle><circle cx="477.3" cy="236.5" r="28" stroke="#f45b5b" stroke-width="1" fill="url(#highcharts-1)"></circle><circle cx="258.2" cy="132.5" r="25.5" stroke="black" stroke-width="5" fill="none"  stroke-opacity="0.0" transform="translate(1, 1)"></circle><circle cx="258.2" cy="132.5" r="25.5" stroke="black" stroke-width="3" fill="none"  stroke-opacity="0.0" transform="translate(1, 1)"></circle><circle cx="258.2" cy="132.5" r="25.5" stroke="black" stroke-width="1" fill="none"  stroke-opacity="0.1" transform="translate(1, 1)"></circle><circle cx="258.2" cy="132.5" r="25.5" stroke="#f45b5b" stroke-width="1" fill="url(#highcharts-1)"></circle><circle cx="211.6" cy="197.2" r="13.5" stroke="black" stroke-width="5" fill="none"  stroke-opacity="0.0" transform="translate(1, 1)"></circle><circle cx="211.6" cy="197.2" r="13.5" stroke="black" stroke-width="3" fill="none"  stroke-opacity="0.0" transform="translate(1, 1)"></circle><circle cx="211.6" cy="197.2" r="13.5" stroke="black" stroke-width="1" fill="none"  stroke-opacity="0.1" transform="translate(1, 1)"></circle><circle cx="211.6" cy="197.2" r="13.5" stroke="#f45b5b" stroke-width="1" fill="url(#highcharts-1)"></circle><circle cx="290.9" cy="192.6" r="15.5" stroke="black" stroke-width="5" fill="none"  stroke-opacity="0.0" transform="translate(1, 1)"></circle><circle cx="290.9" cy="192.6" r="15.5" stroke="black" stroke-width="3" fill="none"  stroke-opacity="0.0" transform="translate(1, 1)"></circle><circle cx="290.9" cy="192.6" r="15.5" stroke="black" stroke-width="1" fill="none"  stroke-opacity="0.1" transform="translate(1, 1)"></circle><circle cx="290.9" cy="192.6" r="15.5" stroke="#f45b5b" stroke-width="1" fill="url(#highcharts-1)"></circle><circle cx="384.1" cy="162.5" r="19" stroke="black" stroke-width="5" fill="none"  stroke-opacity="0.0" transform="translate(1, 1)"></circle><circle cx="384.1" cy="162.5" r="19" stroke="black" stroke-width="3" fill="none"  stroke-opacity="0.0" transform="translate(1, 1)"></circle><circle cx="384.1" cy="162.5" r="19" stroke="black" stroke-width="1" fill="none"  stroke-opacity="0.1" transform="translate(1, 1)"></circle><circle cx="384.1" cy="162.5" r="19" stroke="#f45b5b" stroke-width="1" fill="url(#highcharts-1)"></circle><circle cx="276.9" cy="118.6" r="22.5" stroke="black" stroke-width="5" fill="none"  stroke-opacity="0.0" transform="translate(1, 1)"></circle><circle cx="276.9" cy="118.6" r="22.5" stroke="black" stroke-width="3" fill="none"  stroke-opacity="0.0" transform="translate(1, 1)"></circle><circle cx="276.9" cy="118.6" r="22.5" stroke="black" stroke-width="1" fill="none"  stroke-opacity="0.1" transform="translate(1, 1)"></circle><circle cx="276.9" cy="118.6" r="22.5" stroke="#f45b5b" stroke-width="1" fill="url(#highcharts-1)"></circle><circle cx="104.4" cy="144.0" r="25.5" stroke="black" stroke-width="5" fill="none"  stroke-opacity="0.0" transform="translate(1, 1)"></circle><circle cx="104.4" cy="144.0" r="25.5" stroke="black" stroke-width="3" fill="none"  stroke-opacity="0.0" transform="translate(1, 1)"></circle><circle cx="104.4" cy="144.0" r="25.5" stroke="black" stroke-width="1" fill="none"  stroke-opacity="0.1" transform="translate(1, 1)"></circle><circle cx="104.4" cy="144.0" r="25.5" stroke="#f45b5b" stroke-width="1" fill="url(#highcharts-1)"></circle><circle cx="216.3" cy="146.3" r="17.5" stroke="black" stroke-width="5" fill="none"  stroke-opacity="0.0" transform="translate(1, 1)"></circle><circle cx="216.3" cy="146.3" r="17.5" stroke="black" stroke-width="3" fill="none"  stroke-opacity="0.0" transform="translate(1, 1)"></circle><circle cx="216.3" cy="146.3" r="17.5" stroke="black" stroke-width="1" fill="none"  stroke-opacity="0.1" transform="translate(1, 1)"></circle><circle cx="216.3" cy="146.3" r="17.5" stroke="#f45b5b" stroke-width="1" fill="url(#highcharts-1)"></circle><circle cx="34.5" cy="127.8" r="23.5" stroke="black" stroke-width="5" fill="none"  stroke-opacity="0.0" transform="translate(1, 1)"></circle><circle cx="34.5" cy="127.8" r="23.5" stroke="black" stroke-width="3" fill="none"  stroke-opacity="0.0" transform="translate(1, 1)"></circle><circle cx="34.5" cy="127.8" r="23.5" stroke="black" stroke-width="1" fill="none"  stroke-opacity="0.1" transform="translate(1, 1)"></circle><circle cx="34.5" cy="127.8" r="23.5" stroke="#f45b5b" stroke-width="1" fill="url(#highcharts-1)"></circle><circle cx="165.0" cy="206.4" r="29" stroke="black" stroke-width="5" fill="none"  stroke-opacity="0.0" transform="translate(1, 1)"></circle><circle cx="165.0" cy="206.4" r="29" stroke="black" stroke-width="3" fill="none"  stroke-opacity="0.0" transform="translate(1, 1)"></circle><circle cx="165.0" cy="206.4" r="29" stroke="black" stroke-width="1" fill="none"  stroke-opacity="0.1" transform="translate(1, 1)"></circle><circle cx="165.0" cy="206.4" r="29" stroke="#f45b5b" stroke-width="1" fill="url(#highcharts-1)"></circle><circle cx="388.7" cy="37.7" r="24" stroke="black" stroke-width="5" fill="none"  stroke-opacity="0.0" transform="translate(1, 1)"></circle><circle cx="388.7" cy="37.7" r="24" stroke="black" stroke-width="3" fill="none"  stroke-opacity="0.0" transform="translate(1, 1)"></circle><circle cx="388.7" cy="37.7" r="24" stroke="black" stroke-width="1" fill="none"  stroke-opacity="0.1" transform="translate(1, 1)"></circle><circle cx="388.7" cy="37.7" r="24" stroke="#f45b5b" stroke-width="1" fill="url(#highcharts-1)"></circle><circle cx="454.0" cy="194.9" r="16" stroke="black" stroke-width="5" fill="none"  stroke-opacity="0.0" transform="translate(1, 1)"></circle><circle cx="454.0" cy="194.9" r="16" stroke="black" stroke-width="3" fill="none"  stroke-opacity="0.0" transform="translate(1, 1)"></circle><circle cx="454.0" cy="194.9" r="16" stroke="black" stroke-width="1" fill="none"  stroke-opacity="0.1" transform="translate(1, 1)"></circle><circle cx="454.0" cy="194.9" r="16" stroke="#f45b5b" stroke-width="1" fill="url(#highcharts-1)"></circle><circle cx="225.6" cy="56.2" r="16" stroke="black" stroke-width="5" fill="none"  stroke-opacity="0.0" transform="translate(1, 1)"></circle><circle cx="225.6" cy="56.2" r="16" stroke="black" stroke-width="3" fill="none"  stroke-opacity="0.0" transform="translate(1, 1)"></circle><circle cx="225.6" cy="56.2" r="16" stroke="black" stroke-width="1" fill="none"  stroke-opacity="0.1" transform="translate(1, 1)"></circle><circle cx="225.6" cy="56.2" r="16" stroke="#f45b5b" stroke-width="1" fill="url(#highcharts-1)"></circle></g><g class="highcharts-markers" visibility="visible"  transform="translate(67,44) scale(1 1)"></g><g class="highcharts-series highcharts-tracker" visibility="visible"  transform="translate(67,44) scale(1 1)" style="" clip-path="url(#highcharts-3)"><circle cx="216.3" cy="160.2" r="15.5" stroke="black" stroke-width="5" fill="none"  stroke-opacity="0.0" transform="translate(1, 1)"></circle><circle cx="216.3" cy="160.2" r="15.5" stroke="black" stroke-width="3" fill="none"  stroke-opacity="0.0" transform="translate(1, 1)"></circle><circle cx="216.3" cy="160.2" r="15.5" stroke="black" stroke-width="1" fill="none"  stroke-opacity="0.1" transform="translate(1, 1)"></circle><circle cx="216.3" cy="160.2" r="15.5" stroke="#8085e9" stroke-width="1" fill="url(#highcharts-2)"></circle><circle cx="48.5" cy="206.4" r="4" stroke="black" stroke-width="5" fill="none"  stroke-opacity="0.0" transform="translate(1, 1)"></circle><circle cx="48.5" cy="206.4" r="4" stroke="black" stroke-width="3" fill="none"  stroke-opacity="0.0" transform="translate(1, 1)"></circle><circle cx="48.5" cy="206.4" r="4" stroke="black" stroke-width="1" fill="none"  stroke-opacity="0.1" transform="translate(1, 1)"></circle><circle cx="48.5" cy="206.4" r="4" stroke="#8085e9" stroke-width="1" fill="url(#highcharts-2)"></circle><circle cx="25.2" cy="33.1" r="23" stroke="black" stroke-width="5" fill="none"  stroke-opacity="0.0" transform="translate(1, 1)"></circle><circle cx="25.2" cy="33.1" r="23" stroke="black" stroke-width="3" fill="none"  stroke-opacity="0.0" transform="translate(1, 1)"></circle><circle cx="25.2" cy="33.1" r="23" stroke="black" stroke-width="1" fill="none"  stroke-opacity="0.1" transform="translate(1, 1)"></circle><circle cx="25.2" cy="33.1" r="23" stroke="#8085e9" stroke-width="1" fill="url(#highcharts-2)"></circle><circle cx="286.2" cy="243.4" r="28" stroke="black" stroke-width="5" fill="none"  stroke-opacity="0.0" transform="translate(1, 1)"></circle><circle cx="286.2" cy="243.4" r="28" stroke="black" stroke-width="3" fill="none"  stroke-opacity="0.0" transform="translate(1, 1)"></circle><circle cx="286.2" cy="243.4" r="28" stroke="black" stroke-width="1" fill="none"  stroke-opacity="0.1" transform="translate(1, 1)"></circle><circle cx="286.2" cy="243.4" r="28" stroke="#8085e9" stroke-width="1" fill="url(#highcharts-2)"></circle><circle cx="393.4" cy="72.4" r="16" stroke="black" stroke-width="5" fill="none"  stroke-opacity="0.0" transform="translate(1, 1)"></circle><circle cx="393.4" cy="72.4" r="16" stroke="black" stroke-width="3" fill="none"  stroke-opacity="0.0" transform="translate(1, 1)"></circle><circle cx="393.4" cy="72.4" r="16" stroke="black" stroke-width="1" fill="none"  stroke-opacity="0.1" transform="translate(1, 1)"></circle><circle cx="393.4" cy="72.4" r="16" stroke="#8085e9" stroke-width="1" fill="url(#highcharts-2)"></circle><circle cx="71.8" cy="77.0" r="29" stroke="black" stroke-width="5" fill="none"  stroke-opacity="0.0" transform="translate(1, 1)"></circle><circle cx="71.8" cy="77.0" r="29" stroke="black" stroke-width="3" fill="none"  stroke-opacity="0.0" transform="translate(1, 1)"></circle><circle cx="71.8" cy="77.0" r="29" stroke="black" stroke-width="1" fill="none"  stroke-opacity="0.1" transform="translate(1, 1)"></circle><circle cx="71.8" cy="77.0" r="29" stroke="#8085e9" stroke-width="1" fill="url(#highcharts-2)"></circle><circle cx="430.7" cy="118.6" r="12" stroke="black" stroke-width="5" fill="none"  stroke-opacity="0.0" transform="translate(1, 1)"></circle><circle cx="430.7" cy="118.6" r="12" stroke="black" stroke-width="3" fill="none"  stroke-opacity="0.0" transform="translate(1, 1)"></circle><circle cx="430.7" cy="118.6" r="12" stroke="black" stroke-width="1" fill="none"  stroke-opacity="0.1" transform="translate(1, 1)"></circle><circle cx="430.7" cy="118.6" r="12" stroke="#8085e9" stroke-width="1" fill="url(#highcharts-2)"></circle><circle cx="160.4" cy="139.4" r="22" stroke="black" stroke-width="5" fill="none"  stroke-opacity="0.0" transform="translate(1, 1)"></circle><circle cx="160.4" cy="139.4" r="22" stroke="black" stroke-width="3" fill="none"  stroke-opacity="0.0" transform="translate(1, 1)"></circle><circle cx="160.4" cy="139.4" r="22" stroke="black" stroke-width="1" fill="none"  stroke-opacity="0.1" transform="translate(1, 1)"></circle><circle cx="160.4" cy="139.4" r="22" stroke="#8085e9" stroke-width="1" fill="url(#highcharts-2)"></circle><circle cx="286.2" cy="104.7" r="29" stroke="black" stroke-width="5" fill="none"  stroke-opacity="0.0" transform="translate(1, 1)"></circle><circle cx="286.2" cy="104.7" r="29" stroke="black" stroke-width="3" fill="none"  stroke-opacity="0.0" transform="translate(1, 1)"></circle><circle cx="286.2" cy="104.7" r="29" stroke="black" stroke-width="1" fill="none"  stroke-opacity="0.1" transform="translate(1, 1)"></circle><circle cx="286.2" cy="104.7" r="29" stroke="#8085e9" stroke-width="1" fill="url(#highcharts-2)"></circle><circle cx="39.2" cy="211.1" r="14" stroke="black" stroke-width="5" fill="none"  stroke-opacity="0.0" transform="translate(1, 1)"></circle><circle cx="39.2" cy="211.1" r="14" stroke="black" stroke-width="3" fill="none"  stroke-opacity="0.0" transform="translate(1, 1)"></circle><circle cx="39.2" cy="211.1" r="14" stroke="black" stroke-width="1" fill="none"  stroke-opacity="0.1" transform="translate(1, 1)"></circle><circle cx="39.2" cy="211.1" r="14" stroke="#8085e9" stroke-width="1" fill="url(#highcharts-2)"></circle><circle cx="234.9" cy="224.9" r="12" stroke="black" stroke-width="5" fill="none"  stroke-opacity="0.0" transform="translate(1, 1)"></circle><circle cx="234.9" cy="224.9" r="12" stroke="black" stroke-width="3" fill="none"  stroke-opacity="0.0" transform="translate(1, 1)"></circle><circle cx="234.9" cy="224.9" r="12" stroke="black" stroke-width="1" fill="none"  stroke-opacity="0.1" transform="translate(1, 1)"></circle><circle cx="234.9" cy="224.9" r="12" stroke="#8085e9" stroke-width="1" fill="url(#highcharts-2)"></circle><circle cx="123.1" cy="46.9" r="28" stroke="black" stroke-width="5" fill="none"  stroke-opacity="0.0" transform="translate(1, 1)"></circle><circle cx="123.1" cy="46.9" r="28" stroke="black" stroke-width="3" fill="none"  stroke-opacity="0.0" transform="translate(1, 1)"></circle><circle cx="123.1" cy="46.9" r="28" stroke="black" stroke-width="1" fill="none"  stroke-opacity="0.1" transform="translate(1, 1)"></circle><circle cx="123.1" cy="46.9" r="28" stroke="#8085e9" stroke-width="1" fill="url(#highcharts-2)"></circle><circle cx="286.2" cy="37.7" r="27" stroke="black" stroke-width="5" fill="none"  stroke-opacity="0.0" transform="translate(1, 1)"></circle><circle cx="286.2" cy="37.7" r="27" stroke="black" stroke-width="3" fill="none"  stroke-opacity="0.0" transform="translate(1, 1)"></circle><circle cx="286.2" cy="37.7" r="27" stroke="black" stroke-width="1" fill="none"  stroke-opacity="0.1" transform="translate(1, 1)"></circle><circle cx="286.2" cy="37.7" r="27" stroke="#8085e9" stroke-width="1" fill="url(#highcharts-2)"></circle><circle cx="230.3" cy="213.4" r="29" stroke="black" stroke-width="5" fill="none"  stroke-opacity="0.0" transform="translate(1, 1)"></circle><circle cx="230.3" cy="213.4" r="29" stroke="black" stroke-width="3" fill="none"  stroke-opacity="0.0" transform="translate(1, 1)"></circle><circle cx="230.3" cy="213.4" r="29" stroke="black" stroke-width="1" fill="none"  stroke-opacity="0.1" transform="translate(1, 1)"></circle><circle cx="230.3" cy="213.4" r="29" stroke="#8085e9" stroke-width="1" fill="url(#highcharts-2)"></circle></g><g class="highcharts-markers" visibility="visible"  transform="translate(67,44) scale(1 1)"></g></g><text x="292" text-anchor="middle" class="highcharts-title"  style="color:black;font-size:16px;font-weight:bold;fill:black;width:520px;" y="22"><tspan>Highcharts bubbles with radial gradient fill</tspan></text><g class="highcharts-legend"  transform="translate(201,358)"><g ><g><g class="highcharts-legend-item"  transform="translate(8,3)"><text x="21" style="color:#333333;font-size:13px;font-weight:bold;cursor:pointer;fill:#333333;" text-anchor="start"  y="16"><tspan>Series 1</tspan></text><circle cx="6.5" cy="9.5" r="6.5"  fill="url(#highcharts-1)" stroke="#f45b5b" stroke-width="1"></circle></g><g class="highcharts-legend-item"  transform="translate(101,3)"><text x="21" y="16" style="color:#333333;font-size:13px;font-weight:bold;cursor:pointer;fill:#333333;" text-anchor="start" ><tspan>Series 2</tspan></text><circle cx="6.5" cy="9.5" r="6.5"  fill="url(#highcharts-2)" stroke="#8085e9" stroke-width="1"></circle></g></g></g></g><g class="highcharts-axis-labels highcharts-xaxis-labels" ><text x="87.5" style="color:#6e6e70;cursor:default;font-size:11px;fill:#6e6e70;width:84px;text-overflow:clip;" text-anchor="middle" transform="translate(0,0)" y="344" opacity="1">0</text><text x="180.7" style="color:#6e6e70;cursor:default;font-size:11px;fill:#6e6e70;width:84px;text-overflow:clip;" text-anchor="middle" transform="translate(0,0)" y="344" opacity="1">20</text><text x="274.0" style="color:#6e6e70;cursor:default;font-size:11px;fill:#6e6e70;width:84px;text-overflow:clip;" text-anchor="middle" transform="translate(0,0)" y="344" opacity="1">40</text><text x="367.2" style="color:#6e6e70;cursor:default;font-size:11px;fill:#6e6e70;width:84px;text-overflow:clip;" text-anchor="middle" transform="translate(0,0)" y="344" opacity="1">60</text><text x="460.4" style="color:#6e6e70;cursor:default;font-size:11px;fill:#6e6e70;width:84px;text-overflow:clip;" text-anchor="middle" transform="translate(0,0)" y="344" opacity="1">80</text><text x="553.6" style="color:#6e6e70;cursor:default;font-size:11px;fill:#6e6e70;width:84px;text-overflow:clip;" text-anchor="middle" transform="translate(0,0)" y="344" opacity="1">100</text></g><g class="highcharts-axis-labels highcharts-yaxis-labels" ><text x="52" style="color:#6e6e70;cursor:default;font-size:11px;fill:#6e6e70;width:183px;text-overflow:clip;" text-anchor="end" transform="translate(0,0)" y="297" opacity="1">0</text><text x="52" style="color:#6e6e70;cursor:default;font-size:11px;fill:#6e6e70;width:183px;text-overflow:clip;" text-anchor="end" transform="translate(0,0)" y="239" opacity="1">25</text><text x="52" style="color:#6e6e70;cursor:default;font-size:11px;fill:#6e6e70;width:183px;text-overflow:clip;" text-anchor="end" transform="translate(0,0)" y="181" opacity="1">50</text><text x="52" style="color:#6e6e70;cursor:default;font-size:11px;fill:#6e6e70;width:183px;text-overflow:clip;" text-anchor="end" transform="translate(0,0)" y="123" opacity="1">75</text><text x="52" style="color:#6e6e70;cursor:default;font-size:11px;fill:#6e6e70;width:183px;text-overflow:clip;" text-anchor="end" transform="translate(0,0)" y="65" opacity="1">100</text></g><g class="highcharts-tooltip"  style="cursor:default;padding:0;white-space:nowrap;" transform="translate(0,-9999)"><path fill="none" d="M 3 0 L 13 0 C 16 0 16 0 16 3 L 16 13 C 16 16 16 16 13 16 L 3 16 C 0 16 0 16 0 13 L 0 3 C 0 0 0 0 3 0"  stroke="black" stroke-opacity="0.0" stroke-width="5" transform="translate(1, 1)"></path><path fill="none" d="M 3 0 L 13 0 C 16 0 16 0 16 3 L 16 13 C 16 16 16 16 13 16 L 3 16 C 0 16 0 16 0 13 L 0 3 C 0 0 0 0 3 0"  stroke="black" stroke-opacity="0.0" stroke-width="3" transform="translate(1, 1)"></path><path fill="none" d="M 3 0 L 13 0 C 16 0 16 0 16 3 L 16 13 C 16 16 16 16 13 16 L 3 16 C 0 16 0 16 0 13 L 0 3 C 0 0 0 0 3 0"  stroke="black" stroke-opacity="0.1" stroke-width="1" transform="translate(1, 1)"></path><path fill="rgb(249, 249, 249)" fill-opacity=" .85" d="M 3 0 L 13 0 C 16 0 16 0 16 3 L 16 13 C 16 16 16 16 13 16 L 3 16 C 0 16 0 16 0 13 L 0 3 C 0 0 0 0 3 0"></path><text x="8"  style="font-size:12px;color:#333333;fill:#333333;" transform="translate(0,20)"></text></g></svg>