<svg version="1.1" style="font-family: signika, serif; font-size: 12px; background-image: url(http://www.highcharts.com/samples/graphics/sand.png); background-attachment: initial; background-origin: initial; background-clip: initial; background-color: initial; background-position: initial initial; background-repeat: initial initial; " xmlns="http://www.w3.org/2000/svg" width="584" height="400" viewBox="0 0 584 400" xmlns:xlink="http://www.w3.org/1999/xlink"><style type="text/css"><![CDATA[@import url(http://fonts.googleapis.com/css?family=Signika:700);]]></style><desc>Created with Highcharts 4.1.4</desc><defs><clipPath id="highcharts-1"><rect x="0" y="0" width="507" height="281"></rect></clipPath></defs><g class="highcharts-grid" ></g><g class="highcharts-grid" ><path fill="none" d="M 67 325.5 L 574 325.5" stroke="#D8D8D8" stroke-width="1"  opacity="1"></path><path fill="none" d="M 67 278.5 L 574 278.5" stroke="#D8D8D8" stroke-width="1"  opacity="1"></path><path fill="none" d="M 67 231.5 L 574 231.5" stroke="#D8D8D8" stroke-width="1"  opacity="1"></path><path fill="none" d="M 67 185.5 L 574 185.5" stroke="#D8D8D8" stroke-width="1"  opacity="1"></path><path fill="none" d="M 67 138.5 L 574 138.5" stroke="#D8D8D8" stroke-width="1"  opacity="1"></path><path fill="none" d="M 67 91.5 L 574 91.5" stroke="#D8D8D8" stroke-width="1"  opacity="1"></path><path fill="none" d="M 67 43.5 L 574 43.5" stroke="#D8D8D8" stroke-width="1"  opacity="1"></path></g><g class="highcharts-axis" ><path fill="none" d="M 83.5 325 L 83.5 335" stroke="#C0D0E0" stroke-width="1" opacity="1"></path><path fill="none" d="M 178.5 325 L 178.5 335" stroke="#C0D0E0" stroke-width="1" opacity="1"></path><path fill="none" d="M 273.5 325 L 273.5 335" stroke="#C0D0E0" stroke-width="1" opacity="1"></path><path fill="none" d="M 368.5 325 L 368.5 335" stroke="#C0D0E0" stroke-width="1" opacity="1"></path><path fill="none" d="M 463.5 325 L 463.5 335" stroke="#C0D0E0" stroke-width="1" opacity="1"></path><path fill="none" d="M 559.5 325 L 559.5 335" stroke="#C0D0E0" stroke-width="1" opacity="1"></path><path fill="none" d="M 67 325.5 L 574 325.5" stroke="#C0D0E0" stroke-width="1"  visibility="visible"></path></g><g class="highcharts-axis" ><text x="24"  text-anchor="middle" transform="translate(0,0) rotate(270 24 184.5)" class=" highcharts-yaxis-title" style="color:#707070;fill:#707070;" visibility="visible" y="184.5">Values</text></g><g class="highcharts-series-group" ><g class="highcharts-series highcharts-tracker" visibility="visible"  transform="translate(67,44) scale(1 1)" style="" clip-path="url(#highcharts-1)"><circle cx="478.2" cy="166.7" r="27" stroke="black" stroke-width="5" fill="none"  stroke-opacity="0.0" transform="translate(1, 1)"></circle><circle cx="478.2" cy="166.7" r="27" stroke="black" stroke-width="3" fill="none"  stroke-opacity="0.0" transform="translate(1, 1)"></circle><circle cx="478.2" cy="166.7" r="27" stroke="black" stroke-width="1" fill="none"  stroke-opacity="0.1" transform="translate(1, 1)"></circle><circle cx="478.2" cy="166.7" r="27" stroke="#f45b5b" stroke-width="1" fill="rgb(244,91,91)" fill-opacity="0.5"></circle><circle cx="463.9" cy="95.5" r="24" stroke="black" stroke-width="5" fill="none"  stroke-opacity="0.0" transform="translate(1, 1)"></circle><circle cx="463.9" cy="95.5" r="24" stroke="black" stroke-width="3" fill="none"  stroke-opacity="0.0" transform="translate(1, 1)"></circle><circle cx="463.9" cy="95.5" r="24" stroke="black" stroke-width="1" fill="none"  stroke-opacity="0.1" transform="translate(1, 1)"></circle><circle cx="463.9" cy="95.5" r="24" stroke="#f45b5b" stroke-width="1" fill="rgb(244,91,91)" fill-opacity="0.5"></circle><circle cx="340.2" cy="91.7" r="23.5" stroke="black" stroke-width="5" fill="none"  stroke-opacity="0.0" transform="translate(1, 1)"></circle><circle cx="340.2" cy="91.7" r="23.5" stroke="black" stroke-width="3" fill="none"  stroke-opacity="0.0" transform="translate(1, 1)"></circle><circle cx="340.2" cy="91.7" r="23.5" stroke="black" stroke-width="1" fill="none"  stroke-opacity="0.1" transform="translate(1, 1)"></circle><circle cx="340.2" cy="91.7" r="23.5" stroke="#f45b5b" stroke-width="1" fill="rgb(244,91,91)" fill-opacity="0.5"></circle><circle cx="321.1" cy="71.1" r="23.5" stroke="black" stroke-width="5" fill="none"  stroke-opacity="0.0" transform="translate(1, 1)"></circle><circle cx="321.1" cy="71.1" r="23.5" stroke="black" stroke-width="3" fill="none"  stroke-opacity="0.0" transform="translate(1, 1)"></circle><circle cx="321.1" cy="71.1" r="23.5" stroke="black" stroke-width="1" fill="none"  stroke-opacity="0.1" transform="translate(1, 1)"></circle><circle cx="321.1" cy="71.1" r="23.5" stroke="#f45b5b" stroke-width="1" fill="rgb(244,91,91)" fill-opacity="0.5"></circle><circle cx="340.2" cy="183.5" r="26" stroke="black" stroke-width="5" fill="none"  stroke-opacity="0.0" transform="translate(1, 1)"></circle><circle cx="340.2" cy="183.5" r="26" stroke="black" stroke-width="3" fill="none"  stroke-opacity="0.0" transform="translate(1, 1)"></circle><circle cx="340.2" cy="183.5" r="26" stroke="black" stroke-width="1" fill="none"  stroke-opacity="0.1" transform="translate(1, 1)"></circle><circle cx="340.2" cy="183.5" r="26" stroke="#f45b5b" stroke-width="1" fill="rgb(244,91,91)" fill-opacity="0.5"></circle><circle cx="368.7" cy="48.7" r="20.5" stroke="black" stroke-width="5" fill="none"  stroke-opacity="0.0" transform="translate(1, 1)"></circle><circle cx="368.7" cy="48.7" r="20.5" stroke="black" stroke-width="3" fill="none"  stroke-opacity="0.0" transform="translate(1, 1)"></circle><circle cx="368.7" cy="48.7" r="20.5" stroke="black" stroke-width="1" fill="none"  stroke-opacity="0.1" transform="translate(1, 1)"></circle><circle cx="368.7" cy="48.7" r="20.5" stroke="#f45b5b" stroke-width="1" fill="rgb(244,91,91)" fill-opacity="0.5"></circle><circle cx="49.9" cy="59.9" r="28.5" stroke="black" stroke-width="5" fill="none"  stroke-opacity="0.0" transform="translate(1, 1)"></circle><circle cx="49.9" cy="59.9" r="28.5" stroke="black" stroke-width="3" fill="none"  stroke-opacity="0.0" transform="translate(1, 1)"></circle><circle cx="49.9" cy="59.9" r="28.5" stroke="black" stroke-width="1" fill="none"  stroke-opacity="0.1" transform="translate(1, 1)"></circle><circle cx="49.9" cy="59.9" r="28.5" stroke="#f45b5b" stroke-width="1" fill="rgb(244,91,91)" fill-opacity="0.5"></circle><circle cx="259.3" cy="104.9" r="20" stroke="black" stroke-width="5" fill="none"  stroke-opacity="0.0" transform="translate(1, 1)"></circle><circle cx="259.3" cy="104.9" r="20" stroke="black" stroke-width="3" fill="none"  stroke-opacity="0.0" transform="translate(1, 1)"></circle><circle cx="259.3" cy="104.9" r="20" stroke="black" stroke-width="1" fill="none"  stroke-opacity="0.1" transform="translate(1, 1)"></circle><circle cx="259.3" cy="104.9" r="20" stroke="#f45b5b" stroke-width="1" fill="rgb(244,91,91)" fill-opacity="0.5"></circle><circle cx="197.4" cy="191.0" r="18.5" stroke="black" stroke-width="5" fill="none"  stroke-opacity="0.0" transform="translate(1, 1)"></circle><circle cx="197.4" cy="191.0" r="18.5" stroke="black" stroke-width="3" fill="none"  stroke-opacity="0.0" transform="translate(1, 1)"></circle><circle cx="197.4" cy="191.0" r="18.5" stroke="black" stroke-width="1" fill="none"  stroke-opacity="0.1" transform="translate(1, 1)"></circle><circle cx="197.4" cy="191.0" r="18.5" stroke="#f45b5b" stroke-width="1" fill="rgb(244,91,91)" fill-opacity="0.5"></circle><circle cx="287.8" cy="73.0" r="18" stroke="black" stroke-width="5" fill="none"  stroke-opacity="0.0" transform="translate(1, 1)"></circle><circle cx="287.8" cy="73.0" r="18" stroke="black" stroke-width="3" fill="none"  stroke-opacity="0.0" transform="translate(1, 1)"></circle><circle cx="287.8" cy="73.0" r="18" stroke="black" stroke-width="1" fill="none"  stroke-opacity="0.1" transform="translate(1, 1)"></circle><circle cx="287.8" cy="73.0" r="18" stroke="#f45b5b" stroke-width="1" fill="rgb(244,91,91)" fill-opacity="0.5"></circle></g><g class="highcharts-markers" visibility="visible"  transform="translate(67,44) scale(1 1)"></g><g class="highcharts-series highcharts-tracker" visibility="visible"  transform="translate(67,44) scale(1 1)" style="" clip-path="url(#highcharts-1)"><circle cx="135.5" cy="215.4" r="28.5" stroke="black" stroke-width="5" fill="none"  stroke-opacity="0.0" transform="translate(1, 1)"></circle><circle cx="135.5" cy="215.4" r="28.5" stroke="black" stroke-width="3" fill="none"  stroke-opacity="0.0" transform="translate(1, 1)"></circle><circle cx="135.5" cy="215.4" r="28.5" stroke="black" stroke-width="1" fill="none"  stroke-opacity="0.1" transform="translate(1, 1)"></circle><circle cx="135.5" cy="215.4" r="28.5" stroke="#8085e9" stroke-width="1" fill="rgb(128,133,233)" fill-opacity="0.5"></circle><circle cx="26.1" cy="93.6" r="24" stroke="black" stroke-width="5" fill="none"  stroke-opacity="0.0" transform="translate(1, 1)"></circle><circle cx="26.1" cy="93.6" r="24" stroke="black" stroke-width="3" fill="none"  stroke-opacity="0.0" transform="translate(1, 1)"></circle><circle cx="26.1" cy="93.6" r="24" stroke="black" stroke-width="1" fill="none"  stroke-opacity="0.1" transform="translate(1, 1)"></circle><circle cx="26.1" cy="93.6" r="24" stroke="#8085e9" stroke-width="1" fill="rgb(128,133,233)" fill-opacity="0.5"></circle><circle cx="68.9" cy="133.0" r="9.5" stroke="black" stroke-width="5" fill="none"  stroke-opacity="0.0" transform="translate(1, 1)"></circle><circle cx="68.9" cy="133.0" r="9.5" stroke="black" stroke-width="3" fill="none"  stroke-opacity="0.0" transform="translate(1, 1)"></circle><circle cx="68.9" cy="133.0" r="9.5" stroke="black" stroke-width="1" fill="none"  stroke-opacity="0.1" transform="translate(1, 1)"></circle><circle cx="68.9" cy="133.0" r="9.5" stroke="#8085e9" stroke-width="1" fill="rgb(128,133,233)" fill-opacity="0.5"></circle><circle cx="425.8" cy="131.1" r="29" stroke="black" stroke-width="5" fill="none"  stroke-opacity="0.0" transform="translate(1, 1)"></circle><circle cx="425.8" cy="131.1" r="29" stroke="black" stroke-width="3" fill="none"  stroke-opacity="0.0" transform="translate(1, 1)"></circle><circle cx="425.8" cy="131.1" r="29" stroke="black" stroke-width="1" fill="none"  stroke-opacity="0.1" transform="translate(1, 1)"></circle><circle cx="425.8" cy="131.1" r="29" stroke="#8085e9" stroke-width="1" fill="rgb(128,133,233)" fill-opacity="0.5"></circle><circle cx="40.3" cy="228.5" r="23.5" stroke="black" stroke-width="5" fill="none"  stroke-opacity="0.0" transform="translate(1, 1)"></circle><circle cx="40.3" cy="228.5" r="23.5" stroke="black" stroke-width="3" fill="none"  stroke-opacity="0.0" transform="translate(1, 1)"></circle><circle cx="40.3" cy="228.5" r="23.5" stroke="black" stroke-width="1" fill="none"  stroke-opacity="0.1" transform="translate(1, 1)"></circle><circle cx="40.3" cy="228.5" r="23.5" stroke="#8085e9" stroke-width="1" fill="rgb(128,133,233)" fill-opacity="0.5"></circle><circle cx="444.9" cy="116.1" r="21" stroke="black" stroke-width="5" fill="none"  stroke-opacity="0.0" transform="translate(1, 1)"></circle><circle cx="444.9" cy="116.1" r="21" stroke="black" stroke-width="3" fill="none"  stroke-opacity="0.0" transform="translate(1, 1)"></circle><circle cx="444.9" cy="116.1" r="21" stroke="black" stroke-width="1" fill="none"  stroke-opacity="0.1" transform="translate(1, 1)"></circle><circle cx="444.9" cy="116.1" r="21" stroke="#8085e9" stroke-width="1" fill="rgb(128,133,233)" fill-opacity="0.5"></circle><circle cx="449.6" cy="172.3" r="14" stroke="black" stroke-width="5" fill="none"  stroke-opacity="0.0" transform="translate(1, 1)"></circle><circle cx="449.6" cy="172.3" r="14" stroke="black" stroke-width="3" fill="none"  stroke-opacity="0.0" transform="translate(1, 1)"></circle><circle cx="449.6" cy="172.3" r="14" stroke="black" stroke-width="1" fill="none"  stroke-opacity="0.1" transform="translate(1, 1)"></circle><circle cx="449.6" cy="172.3" r="14" stroke="#8085e9" stroke-width="1" fill="rgb(128,133,233)" fill-opacity="0.5"></circle><circle cx="478.2" cy="228.5" r="23.5" stroke="black" stroke-width="5" fill="none"  stroke-opacity="0.0" transform="translate(1, 1)"></circle><circle cx="478.2" cy="228.5" r="23.5" stroke="black" stroke-width="3" fill="none"  stroke-opacity="0.0" transform="translate(1, 1)"></circle><circle cx="478.2" cy="228.5" r="23.5" stroke="black" stroke-width="1" fill="none"  stroke-opacity="0.1" transform="translate(1, 1)"></circle><circle cx="478.2" cy="228.5" r="23.5" stroke="#8085e9" stroke-width="1" fill="rgb(128,133,233)" fill-opacity="0.5"></circle><circle cx="87.9" cy="108.6" r="22" stroke="black" stroke-width="5" fill="none"  stroke-opacity="0.0" transform="translate(1, 1)"></circle><circle cx="87.9" cy="108.6" r="22" stroke="black" stroke-width="3" fill="none"  stroke-opacity="0.0" transform="translate(1, 1)"></circle><circle cx="87.9" cy="108.6" r="22" stroke="black" stroke-width="1" fill="none"  stroke-opacity="0.1" transform="translate(1, 1)"></circle><circle cx="87.9" cy="108.6" r="22" stroke="#8085e9" stroke-width="1" fill="rgb(128,133,233)" fill-opacity="0.5"></circle><circle cx="273.5" cy="187.3" r="27.5" stroke="black" stroke-width="5" fill="none"  stroke-opacity="0.0" transform="translate(1, 1)"></circle><circle cx="273.5" cy="187.3" r="27.5" stroke="black" stroke-width="3" fill="none"  stroke-opacity="0.0" transform="translate(1, 1)"></circle><circle cx="273.5" cy="187.3" r="27.5" stroke="black" stroke-width="1" fill="none"  stroke-opacity="0.1" transform="translate(1, 1)"></circle><circle cx="273.5" cy="187.3" r="27.5" stroke="#8085e9" stroke-width="1" fill="rgb(128,133,233)" fill-opacity="0.5"></circle></g><g class="highcharts-markers" visibility="visible"  transform="translate(67,44) scale(1 1)"></g><g class="highcharts-series highcharts-tracker" visibility="visible"  transform="translate(67,44) scale(1 1)" style="" clip-path="url(#highcharts-1)"><circle cx="240.2" cy="146.1" r="15" stroke="black" stroke-width="5" fill="none"  stroke-opacity="0.0" transform="translate(1, 1)"></circle><circle cx="240.2" cy="146.1" r="15" stroke="black" stroke-width="3" fill="none"  stroke-opacity="0.0" transform="translate(1, 1)"></circle><circle cx="240.2" cy="146.1" r="15" stroke="black" stroke-width="1" fill="none"  stroke-opacity="0.1" transform="translate(1, 1)"></circle><circle cx="240.2" cy="146.1" r="15" stroke="#8d4654" stroke-width="1" fill="rgb(141,70,84)" fill-opacity="0.5"></circle><circle cx="111.7" cy="211.6" r="4" stroke="black" stroke-width="5" fill="none"  stroke-opacity="0.0" transform="translate(1, 1)"></circle><circle cx="111.7" cy="211.6" r="4" stroke="black" stroke-width="3" fill="none"  stroke-opacity="0.0" transform="translate(1, 1)"></circle><circle cx="111.7" cy="211.6" r="4" stroke="black" stroke-width="1" fill="none"  stroke-opacity="0.1" transform="translate(1, 1)"></circle><circle cx="111.7" cy="211.6" r="4" stroke="#8d4654" stroke-width="1" fill="rgb(141,70,84)" fill-opacity="0.5"></circle><circle cx="45.1" cy="91.7" r="29" stroke="black" stroke-width="5" fill="none"  stroke-opacity="0.0" transform="translate(1, 1)"></circle><circle cx="45.1" cy="91.7" r="29" stroke="black" stroke-width="3" fill="none"  stroke-opacity="0.0" transform="translate(1, 1)"></circle><circle cx="45.1" cy="91.7" r="29" stroke="black" stroke-width="1" fill="none"  stroke-opacity="0.1" transform="translate(1, 1)"></circle><circle cx="45.1" cy="91.7" r="29" stroke="#8d4654" stroke-width="1" fill="rgb(141,70,84)" fill-opacity="0.5"></circle><circle cx="197.4" cy="177.9" r="24" stroke="black" stroke-width="5" fill="none"  stroke-opacity="0.0" transform="translate(1, 1)"></circle><circle cx="197.4" cy="177.9" r="24" stroke="black" stroke-width="3" fill="none"  stroke-opacity="0.0" transform="translate(1, 1)"></circle><circle cx="197.4" cy="177.9" r="24" stroke="black" stroke-width="1" fill="none"  stroke-opacity="0.1" transform="translate(1, 1)"></circle><circle cx="197.4" cy="177.9" r="24" stroke="#8d4654" stroke-width="1" fill="rgb(141,70,84)" fill-opacity="0.5"></circle><circle cx="287.8" cy="50.5" r="24.5" stroke="black" stroke-width="5" fill="none"  stroke-opacity="0.0" transform="translate(1, 1)"></circle><circle cx="287.8" cy="50.5" r="24.5" stroke="black" stroke-width="3" fill="none"  stroke-opacity="0.0" transform="translate(1, 1)"></circle><circle cx="287.8" cy="50.5" r="24.5" stroke="black" stroke-width="1" fill="none"  stroke-opacity="0.1" transform="translate(1, 1)"></circle><circle cx="287.8" cy="50.5" r="24.5" stroke="#8d4654" stroke-width="1" fill="rgb(141,70,84)" fill-opacity="0.5"></circle><circle cx="306.9" cy="202.3" r="27.5" stroke="black" stroke-width="5" fill="none"  stroke-opacity="0.0" transform="translate(1, 1)"></circle><circle cx="306.9" cy="202.3" r="27.5" stroke="black" stroke-width="3" fill="none"  stroke-opacity="0.0" transform="translate(1, 1)"></circle><circle cx="306.9" cy="202.3" r="27.5" stroke="black" stroke-width="1" fill="none"  stroke-opacity="0.1" transform="translate(1, 1)"></circle><circle cx="306.9" cy="202.3" r="27.5" stroke="#8d4654" stroke-width="1" fill="rgb(141,70,84)" fill-opacity="0.5"></circle><circle cx="411.6" cy="121.7" r="12" stroke="black" stroke-width="5" fill="none"  stroke-opacity="0.0" transform="translate(1, 1)"></circle><circle cx="411.6" cy="121.7" r="12" stroke="black" stroke-width="3" fill="none"  stroke-opacity="0.0" transform="translate(1, 1)"></circle><circle cx="411.6" cy="121.7" r="12" stroke="black" stroke-width="1" fill="none"  stroke-opacity="0.1" transform="translate(1, 1)"></circle><circle cx="411.6" cy="121.7" r="12" stroke="#8d4654" stroke-width="1" fill="rgb(141,70,84)" fill-opacity="0.5"></circle><circle cx="335.4" cy="88.0" r="26.5" stroke="black" stroke-width="5" fill="none"  stroke-opacity="0.0" transform="translate(1, 1)"></circle><circle cx="335.4" cy="88.0" r="26.5" stroke="black" stroke-width="3" fill="none"  stroke-opacity="0.0" transform="translate(1, 1)"></circle><circle cx="335.4" cy="88.0" r="26.5" stroke="black" stroke-width="1" fill="none"  stroke-opacity="0.1" transform="translate(1, 1)"></circle><circle cx="335.4" cy="88.0" r="26.5" stroke="#8d4654" stroke-width="1" fill="rgb(141,70,84)" fill-opacity="0.5"></circle><circle cx="321.1" cy="211.6" r="10.5" stroke="black" stroke-width="5" fill="none"  stroke-opacity="0.0" transform="translate(1, 1)"></circle><circle cx="321.1" cy="211.6" r="10.5" stroke="black" stroke-width="3" fill="none"  stroke-opacity="0.0" transform="translate(1, 1)"></circle><circle cx="321.1" cy="211.6" r="10.5" stroke="black" stroke-width="1" fill="none"  stroke-opacity="0.1" transform="translate(1, 1)"></circle><circle cx="321.1" cy="211.6" r="10.5" stroke="#8d4654" stroke-width="1" fill="rgb(141,70,84)" fill-opacity="0.5"></circle><circle cx="159.3" cy="89.9" r="27.5" stroke="black" stroke-width="5" fill="none"  stroke-opacity="0.0" transform="translate(1, 1)"></circle><circle cx="159.3" cy="89.9" r="27.5" stroke="black" stroke-width="3" fill="none"  stroke-opacity="0.0" transform="translate(1, 1)"></circle><circle cx="159.3" cy="89.9" r="27.5" stroke="black" stroke-width="1" fill="none"  stroke-opacity="0.1" transform="translate(1, 1)"></circle><circle cx="159.3" cy="89.9" r="27.5" stroke="#8d4654" stroke-width="1" fill="rgb(141,70,84)" fill-opacity="0.5"></circle></g><g class="highcharts-markers" visibility="visible"  transform="translate(67,44) scale(1 1)"></g></g><text x="292" text-anchor="middle" class="highcharts-title"  style="color:black;font-size:16px;font-weight:bold;fill:black;width:520px;" y="22"><tspan>Highcharts Bubbles</tspan></text><g class="highcharts-legend"  transform="translate(155,358)"><g ><g><g class="highcharts-legend-item"  transform="translate(8,3)"><text x="21" style="color:#333333;font-size:13px;font-weight:bold;cursor:pointer;fill:#333333;" text-anchor="start"  y="16"><tspan>Series 1</tspan></text><circle cx="6.5" cy="9.5" r="6.5"  fill="rgb(244,91,91)" fill-opacity="0.5" stroke="#f45b5b" stroke-width="1"></circle></g><g class="highcharts-legend-item"  transform="translate(101,3)"><text x="21" y="16" style="color:#333333;font-size:13px;font-weight:bold;cursor:pointer;fill:#333333;" text-anchor="start" ><tspan>Series 2</tspan></text><circle cx="6.5" cy="9.5" r="6.5"  fill="rgb(128,133,233)" fill-opacity="0.5" stroke="#8085e9" stroke-width="1"></circle></g><g class="highcharts-legend-item"  transform="translate(194,3)"><text x="21" y="16" style="color:#333333;font-size:13px;font-weight:bold;cursor:pointer;fill:#333333;" text-anchor="start" ><tspan>Series 3</tspan></text><circle cx="6.5" cy="9.5" r="6.5"  fill="rgb(141,70,84)" fill-opacity="0.5" stroke="#8d4654" stroke-width="1"></circle></g></g></g></g><g class="highcharts-axis-labels highcharts-xaxis-labels" ><text x="83.6" style="color:#6e6e70;cursor:default;font-size:11px;fill:#6e6e70;width:84px;text-overflow:clip;" text-anchor="middle" transform="translate(0,0)" y="344" opacity="1">0</text><text x="178.7" style="color:#6e6e70;cursor:default;font-size:11px;fill:#6e6e70;width:84px;text-overflow:clip;" text-anchor="middle" transform="translate(0,0)" y="344" opacity="1">20</text><text x="273.9" style="color:#6e6e70;cursor:default;font-size:11px;fill:#6e6e70;width:84px;text-overflow:clip;" text-anchor="middle" transform="translate(0,0)" y="344" opacity="1">40</text><text x="369.1" style="color:#6e6e70;cursor:default;font-size:11px;fill:#6e6e70;width:84px;text-overflow:clip;" text-anchor="middle" transform="translate(0,0)" y="344" opacity="1">60</text><text x="464.3" style="color:#6e6e70;cursor:default;font-size:11px;fill:#6e6e70;width:84px;text-overflow:clip;" text-anchor="middle" transform="translate(0,0)" y="344" opacity="1">80</text><text x="559.5" style="color:#6e6e70;cursor:default;font-size:11px;fill:#6e6e70;width:84px;text-overflow:clip;" text-anchor="middle" transform="translate(0,0)" y="344" opacity="1">100</text></g><g class="highcharts-axis-labels highcharts-yaxis-labels" ><text x="52" style="color:#6e6e70;cursor:default;font-size:11px;fill:#6e6e70;width:183px;text-overflow:clip;" text-anchor="end" transform="translate(0,0)" y="330" opacity="1">-25</text><text x="52" style="color:#6e6e70;cursor:default;font-size:11px;fill:#6e6e70;width:183px;text-overflow:clip;" text-anchor="end" transform="translate(0,0)" y="283" opacity="1">0</text><text x="52" style="color:#6e6e70;cursor:default;font-size:11px;fill:#6e6e70;width:183px;text-overflow:clip;" text-anchor="end" transform="translate(0,0)" y="236" opacity="1">25</text><text x="52" style="color:#6e6e70;cursor:default;font-size:11px;fill:#6e6e70;width:183px;text-overflow:clip;" text-anchor="end" transform="translate(0,0)" y="189" opacity="1">50</text><text x="52" style="color:#6e6e70;cursor:default;font-size:11px;fill:#6e6e70;width:183px;text-overflow:clip;" text-anchor="end" transform="translate(0,0)" y="142" opacity="1">75</text><text x="52" style="color:#6e6e70;cursor:default;font-size:11px;fill:#6e6e70;width:183px;text-overflow:clip;" text-anchor="end" transform="translate(0,0)" y="95" opacity="1">100</text><text x="52" style="color:#6e6e70;cursor:default;font-size:11px;fill:#6e6e70;width:183px;text-overflow:clip;" text-anchor="end" transform="translate(0,0)" y="49" opacity="1">125</text></g><g class="highcharts-tooltip"  style="cursor:default;padding:0;white-space:nowrap;" transform="translate(0,-9999)"><path fill="none" d="M 3 0 L 13 0 C 16 0 16 0 16 3 L 16 13 C 16 16 16 16 13 16 L 3 16 C 0 16 0 16 0 13 L 0 3 C 0 0 0 0 3 0"  stroke="black" stroke-opacity="0.0" stroke-width="5" transform="translate(1, 1)"></path><path fill="none" d="M 3 0 L 13 0 C 16 0 16 0 16 3 L 16 13 C 16 16 16 16 13 16 L 3 16 C 0 16 0 16 0 13 L 0 3 C 0 0 0 0 3 0"  stroke="black" stroke-opacity="0.0" stroke-width="3" transform="translate(1, 1)"></path><path fill="none" d="M 3 0 L 13 0 C 16 0 16 0 16 3 L 16 13 C 16 16 16 16 13 16 L 3 16 C 0 16 0 16 0 13 L 0 3 C 0 0 0 0 3 0"  stroke="black" stroke-opacity="0.1" stroke-width="1" transform="translate(1, 1)"></path><path fill="rgb(249, 249, 249)" fill-opacity=" .85" d="M 3 0 L 13 0 C 16 0 16 0 16 3 L 16 13 C 16 16 16 16 13 16 L 3 16 C 0 16 0 16 0 13 L 0 3 C 0 0 0 0 3 0"></path><text x="8"  style="font-size:12px;color:#333333;fill:#333333;" transform="translate(0,20)"></text></g></svg>