<svg version="1.1" style="font-family: signika, serif; font-size: 12px; background-image: url(http://www.highcharts.com/samples/graphics/sand.png); background-attachment: initial; background-origin: initial; background-clip: initial; background-color: initial; background-position: initial initial; background-repeat: initial initial; " xmlns="http://www.w3.org/2000/svg" width="584" height="400" viewBox="0 0 584 400" xmlns:xlink="http://www.w3.org/1999/xlink"><style type="text/css"><![CDATA[@import url(http://fonts.googleapis.com/css?family=Signika:700);]]></style><desc>Created with Highcharts 4.1.4</desc><defs><clipPath id="highcharts-1"><rect x="0" y="0" width="503" height="320"></rect></clipPath></defs><g class="highcharts-grid" ></g><g class="highcharts-grid" ><path fill="none" d="M 71 364.5 L 574 364.5" stroke="#D8D8D8" stroke-width="1"  opacity="1"></path><path fill="none" d="M 71 300.5 L 574 300.5" stroke="#D8D8D8" stroke-width="1"  opacity="1"></path><path fill="none" d="M 71 236.5 L 574 236.5" stroke="#D8D8D8" stroke-width="1"  opacity="1"></path><path fill="none" d="M 71 172.5 L 574 172.5" stroke="#D8D8D8" stroke-width="1"  opacity="1"></path><path fill="none" d="M 71 108.5 L 574 108.5" stroke="#D8D8D8" stroke-width="1"  opacity="1"></path><path fill="none" d="M 71 43.5 L 574 43.5" stroke="#D8D8D8" stroke-width="1"  opacity="1"></path></g><g class="highcharts-axis" ><path fill="none" d="M 171.5 364 L 171.5 374" stroke="#C0D0E0" stroke-width="1" opacity="1"></path><path fill="none" d="M 271.5 364 L 271.5 374" stroke="#C0D0E0" stroke-width="1" opacity="1"></path><path fill="none" d="M 372.5 364 L 372.5 374" stroke="#C0D0E0" stroke-width="1" opacity="1"></path><path fill="none" d="M 472.5 364 L 472.5 374" stroke="#C0D0E0" stroke-width="1" opacity="1"></path><path fill="none" d="M 574.5 364 L 574.5 374" stroke="#C0D0E0" stroke-width="1" opacity="1"></path><path fill="none" d="M 70.5 364 L 70.5 374" stroke="#C0D0E0" stroke-width="1" opacity="1"></path><path fill="none" d="M 71 364.5 L 574 364.5" stroke="#C0D0E0" stroke-width="1"  visibility="visible"></path></g><g class="highcharts-axis" ><text x="24"  text-anchor="middle" transform="translate(0,0) rotate(270 24 204)" class=" highcharts-yaxis-title" style="color:#707070;fill:#707070;" visibility="visible" y="204"><tspan>Total fruit consumption</tspan></text></g><g class="highcharts-series-group" ><g class="highcharts-series highcharts-tracker" visibility="visible"  transform="translate(71,44) scale(1 1)" style="" clip-path="url(#highcharts-1)"><rect x="25.5" y="64.5" width="49" height="123" stroke="black" stroke-width="5" fill="none" rx="0" ry="0"  stroke-opacity="0.0" transform="translate(1, 1)"></rect><rect x="25.5" y="64.5" width="49" height="125" stroke="black" stroke-width="3" fill="none" rx="0" ry="0"  stroke-opacity="0.0" transform="translate(1, 1)"></rect><rect x="25.5" y="64.5" width="49" height="127" stroke="black" stroke-width="1" fill="none" rx="0" ry="0"  stroke-opacity="0.1" transform="translate(1, 1)"></rect><rect x="25.5" y="64.5" width="49" height="128" stroke="#FFFFFF" stroke-width="1" fill="#f45b5b" rx="0" ry="0"></rect><rect x="126.5" y="90.5" width="49" height="71" stroke="black" stroke-width="5" fill="none" rx="0" ry="0"  stroke-opacity="0.0" transform="translate(1, 1)"></rect><rect x="126.5" y="90.5" width="49" height="73" stroke="black" stroke-width="3" fill="none" rx="0" ry="0"  stroke-opacity="0.0" transform="translate(1, 1)"></rect><rect x="126.5" y="90.5" width="49" height="75" stroke="black" stroke-width="1" fill="none" rx="0" ry="0"  stroke-opacity="0.1" transform="translate(1, 1)"></rect><rect x="126.5" y="90.5" width="49" height="76" stroke="#FFFFFF" stroke-width="1" fill="#f45b5b" rx="0" ry="0"></rect><rect x="226.5" y="38.5" width="49" height="98" stroke="black" stroke-width="5" fill="none" rx="0" ry="0"  stroke-opacity="0.0" transform="translate(1, 1)"></rect><rect x="226.5" y="38.5" width="49" height="100" stroke="black" stroke-width="3" fill="none" rx="0" ry="0"  stroke-opacity="0.0" transform="translate(1, 1)"></rect><rect x="226.5" y="38.5" width="49" height="102" stroke="black" stroke-width="1" fill="none" rx="0" ry="0"  stroke-opacity="0.1" transform="translate(1, 1)"></rect><rect x="226.5" y="38.5" width="49" height="103" stroke="#FFFFFF" stroke-width="1" fill="#f45b5b" rx="0" ry="0"></rect><rect x="327.5" y="38.5" width="49" height="175" stroke="black" stroke-width="5" fill="none" rx="0" ry="0"  stroke-opacity="0.0" transform="translate(1, 1)"></rect><rect x="327.5" y="38.5" width="49" height="177" stroke="black" stroke-width="3" fill="none" rx="0" ry="0"  stroke-opacity="0.0" transform="translate(1, 1)"></rect><rect x="327.5" y="38.5" width="49" height="179" stroke="black" stroke-width="1" fill="none" rx="0" ry="0"  stroke-opacity="0.1" transform="translate(1, 1)"></rect><rect x="327.5" y="38.5" width="49" height="180" stroke="#FFFFFF" stroke-width="1" fill="#f45b5b" rx="0" ry="0"></rect><rect x="428.5" y="115.5" width="49" height="46" stroke="black" stroke-width="5" fill="none" rx="0" ry="0"  stroke-opacity="0.0" transform="translate(1, 1)"></rect><rect x="428.5" y="115.5" width="49" height="48" stroke="black" stroke-width="3" fill="none" rx="0" ry="0"  stroke-opacity="0.0" transform="translate(1, 1)"></rect><rect x="428.5" y="115.5" width="49" height="50" stroke="black" stroke-width="1" fill="none" rx="0" ry="0"  stroke-opacity="0.1" transform="translate(1, 1)"></rect><rect x="428.5" y="115.5" width="49" height="51" stroke="#FFFFFF" stroke-width="1" fill="#f45b5b" rx="0" ry="0"></rect></g><g class="highcharts-markers" visibility="visible"  transform="translate(71,44) scale(1 1)"></g><g class="highcharts-series highcharts-tracker" visibility="visible"  transform="translate(71,44) scale(1 1)" style="" clip-path="url(#highcharts-1)"><rect x="25.5" y="192.5" width="49" height="46" stroke="black" stroke-width="5" fill="none" rx="0" ry="0"  stroke-opacity="0.0" transform="translate(1, 1)"></rect><rect x="25.5" y="192.5" width="49" height="48" stroke="black" stroke-width="3" fill="none" rx="0" ry="0"  stroke-opacity="0.0" transform="translate(1, 1)"></rect><rect x="25.5" y="192.5" width="49" height="50" stroke="black" stroke-width="1" fill="none" rx="0" ry="0"  stroke-opacity="0.1" transform="translate(1, 1)"></rect><rect x="25.5" y="192.5" width="49" height="51" stroke="#FFFFFF" stroke-width="1" fill="#8085e9" rx="0" ry="0"></rect><rect x="126.5" y="166.5" width="49" height="47" stroke="black" stroke-width="5" fill="none" rx="0" ry="0"  stroke-opacity="0.0" transform="translate(1, 1)"></rect><rect x="126.5" y="166.5" width="49" height="49" stroke="black" stroke-width="3" fill="none" rx="0" ry="0"  stroke-opacity="0.0" transform="translate(1, 1)"></rect><rect x="126.5" y="166.5" width="49" height="51" stroke="black" stroke-width="1" fill="none" rx="0" ry="0"  stroke-opacity="0.1" transform="translate(1, 1)"></rect><rect x="126.5" y="166.5" width="49" height="52" stroke="#FFFFFF" stroke-width="1" fill="#8085e9" rx="0" ry="0"></rect><rect x="226.5" y="141.5" width="49" height="72" stroke="black" stroke-width="5" fill="none" rx="0" ry="0"  stroke-opacity="0.0" transform="translate(1, 1)"></rect><rect x="226.5" y="141.5" width="49" height="74" stroke="black" stroke-width="3" fill="none" rx="0" ry="0"  stroke-opacity="0.0" transform="translate(1, 1)"></rect><rect x="226.5" y="141.5" width="49" height="76" stroke="black" stroke-width="1" fill="none" rx="0" ry="0"  stroke-opacity="0.1" transform="translate(1, 1)"></rect><rect x="226.5" y="141.5" width="49" height="77" stroke="#FFFFFF" stroke-width="1" fill="#8085e9" rx="0" ry="0"></rect><rect x="327.5" y="218.5" width="49" height="46" stroke="black" stroke-width="5" fill="none" rx="0" ry="0"  stroke-opacity="0.0" transform="translate(1, 1)"></rect><rect x="327.5" y="218.5" width="49" height="48" stroke="black" stroke-width="3" fill="none" rx="0" ry="0"  stroke-opacity="0.0" transform="translate(1, 1)"></rect><rect x="327.5" y="218.5" width="49" height="50" stroke="black" stroke-width="1" fill="none" rx="0" ry="0"  stroke-opacity="0.1" transform="translate(1, 1)"></rect><rect x="327.5" y="218.5" width="49" height="51" stroke="#FFFFFF" stroke-width="1" fill="#8085e9" rx="0" ry="0"></rect><rect x="428.5" y="166.5" width="49" height="21" stroke="black" stroke-width="5" fill="none" rx="0" ry="0"  stroke-opacity="0.0" transform="translate(1, 1)"></rect><rect x="428.5" y="166.5" width="49" height="23" stroke="black" stroke-width="3" fill="none" rx="0" ry="0"  stroke-opacity="0.0" transform="translate(1, 1)"></rect><rect x="428.5" y="166.5" width="49" height="25" stroke="black" stroke-width="1" fill="none" rx="0" ry="0"  stroke-opacity="0.1" transform="translate(1, 1)"></rect><rect x="428.5" y="166.5" width="49" height="26" stroke="#FFFFFF" stroke-width="1" fill="#8085e9" rx="0" ry="0"></rect></g><g class="highcharts-markers" visibility="visible"  transform="translate(71,44) scale(1 1)"></g><g class="highcharts-series highcharts-tracker" visibility="visible"  transform="translate(71,44) scale(1 1)" style="" clip-path="url(#highcharts-1)"><rect x="25.5" y="243.5" width="49" height="72" stroke="black" stroke-width="5" fill="none" rx="0" ry="0"  stroke-opacity="0.0" transform="translate(1, 1)"></rect><rect x="25.5" y="243.5" width="49" height="74" stroke="black" stroke-width="3" fill="none" rx="0" ry="0"  stroke-opacity="0.0" transform="translate(1, 1)"></rect><rect x="25.5" y="243.5" width="49" height="76" stroke="black" stroke-width="1" fill="none" rx="0" ry="0"  stroke-opacity="0.1" transform="translate(1, 1)"></rect><rect x="25.5" y="243.5" width="49" height="77" stroke="#FFFFFF" stroke-width="1" fill="#8d4654" rx="0" ry="0"></rect><rect x="126.5" y="218.5" width="49" height="97" stroke="black" stroke-width="5" fill="none" rx="0" ry="0"  stroke-opacity="0.0" transform="translate(1, 1)"></rect><rect x="126.5" y="218.5" width="49" height="99" stroke="black" stroke-width="3" fill="none" rx="0" ry="0"  stroke-opacity="0.0" transform="translate(1, 1)"></rect><rect x="126.5" y="218.5" width="49" height="101" stroke="black" stroke-width="1" fill="none" rx="0" ry="0"  stroke-opacity="0.1" transform="translate(1, 1)"></rect><rect x="126.5" y="218.5" width="49" height="102" stroke="#FFFFFF" stroke-width="1" fill="#8d4654" rx="0" ry="0"></rect><rect x="226.5" y="218.5" width="49" height="97" stroke="black" stroke-width="5" fill="none" rx="0" ry="0"  stroke-opacity="0.0" transform="translate(1, 1)"></rect><rect x="226.5" y="218.5" width="49" height="99" stroke="black" stroke-width="3" fill="none" rx="0" ry="0"  stroke-opacity="0.0" transform="translate(1, 1)"></rect><rect x="226.5" y="218.5" width="49" height="101" stroke="black" stroke-width="1" fill="none" rx="0" ry="0"  stroke-opacity="0.1" transform="translate(1, 1)"></rect><rect x="226.5" y="218.5" width="49" height="102" stroke="#FFFFFF" stroke-width="1" fill="#8d4654" rx="0" ry="0"></rect><rect x="327.5" y="269.5" width="49" height="46" stroke="black" stroke-width="5" fill="none" rx="0" ry="0"  stroke-opacity="0.0" transform="translate(1, 1)"></rect><rect x="327.5" y="269.5" width="49" height="48" stroke="black" stroke-width="3" fill="none" rx="0" ry="0"  stroke-opacity="0.0" transform="translate(1, 1)"></rect><rect x="327.5" y="269.5" width="49" height="50" stroke="black" stroke-width="1" fill="none" rx="0" ry="0"  stroke-opacity="0.1" transform="translate(1, 1)"></rect><rect x="327.5" y="269.5" width="49" height="51" stroke="#FFFFFF" stroke-width="1" fill="#8d4654" rx="0" ry="0"></rect><rect x="428.5" y="192.5" width="49" height="123" stroke="black" stroke-width="5" fill="none" rx="0" ry="0"  stroke-opacity="0.0" transform="translate(1, 1)"></rect><rect x="428.5" y="192.5" width="49" height="125" stroke="black" stroke-width="3" fill="none" rx="0" ry="0"  stroke-opacity="0.0" transform="translate(1, 1)"></rect><rect x="428.5" y="192.5" width="49" height="127" stroke="black" stroke-width="1" fill="none" rx="0" ry="0"  stroke-opacity="0.1" transform="translate(1, 1)"></rect><rect x="428.5" y="192.5" width="49" height="128" stroke="#FFFFFF" stroke-width="1" fill="#8d4654" rx="0" ry="0"></rect></g><g class="highcharts-markers" visibility="visible"  transform="translate(71,44) scale(1 1)"></g></g><text x="292" text-anchor="middle" class="highcharts-title"  style="color:black;font-size:16px;font-weight:bold;fill:black;width:520px;" y="22"><tspan>Stacked column chart</tspan></text><g class="highcharts-stack-labels" visibility="visible"  transform="translate(71,44)"><text x="50" style="color: gray; font-size: 11px; font-weight: bold; fill: #808080; text-shadow: rgb(255, 255, 255) 0px 0px 6px, rgb(255, 255, 255) 0px 0px 3px; " text-anchor="middle" transform="translate(0,0)" y="58"><tspan>10</tspan></text><text x="151" style="color: gray; font-size: 11px; font-weight: bold; fill: #808080; text-shadow: rgb(255, 255, 255) 0px 0px 6px, rgb(255, 255, 255) 0px 0px 3px; " text-anchor="middle" transform="translate(0,0)" y="84"><tspan>9</tspan></text><text x="252" style="color: gray; font-size: 11px; font-weight: bold; fill: #808080; text-shadow: rgb(255, 255, 255) 0px 0px 6px, rgb(255, 255, 255) 0px 0px 3px; " text-anchor="middle" transform="translate(0,0)" y="32"><tspan>11</tspan></text><text x="352" style="color: gray; font-size: 11px; font-weight: bold; fill: #808080; text-shadow: rgb(255, 255, 255) 0px 0px 6px, rgb(255, 255, 255) 0px 0px 3px; " text-anchor="middle" transform="translate(0,0)" y="32"><tspan>11</tspan></text><text x="453" style="color: gray; font-size: 11px; font-weight: bold; fill: #808080; text-shadow: rgb(255, 255, 255) 0px 0px 6px, rgb(255, 255, 255) 0px 0px 3px; " text-anchor="middle" transform="translate(0,0)" y="109"><tspan>8</tspan></text></g><g class="highcharts-data-labels highcharts-tracker" visibility="visible"  transform="translate(71,44) scale(1 1)" style=""><g  style="" transform="translate(42,117)"><text x="5"  style="font-size:11px;font-weight:bold;color:white;text-shadow:0 0 3px black;fill:white;" transform="translate(0,16)"><tspan>5</tspan></text></g><g  style="" transform="translate(143,117)"><text x="5"  style="font-size:11px;font-weight:bold;color:white;text-shadow:0 0 3px black;fill:white;" transform="translate(0,16)"><tspan>3</tspan></text></g><g  style="" transform="translate(243,79)"><text x="5"  style="font-size:11px;font-weight:bold;color:white;text-shadow:0 0 3px black;fill:white;" transform="translate(0,16)"><tspan>4</tspan></text></g><g  style="" transform="translate(344,117)"><text x="5"  style="font-size:11px;font-weight:bold;color:white;text-shadow:0 0 3px black;fill:white;" transform="translate(0,16)"><tspan>7</tspan></text></g><g  style="" transform="translate(445,130)"><text x="5"  style="font-size:11px;font-weight:bold;color:white;text-shadow:0 0 3px black;fill:white;" transform="translate(0,16)"><tspan>2</tspan></text></g></g><g class="highcharts-data-labels highcharts-tracker" visibility="visible"  transform="translate(71,44) scale(1 1)" style=""><g  style="" transform="translate(42,207)"><text x="5"  style="font-size:11px;font-weight:bold;color:white;text-shadow:0 0 3px black;fill:white;" transform="translate(0,16)"><tspan>2</tspan></text></g><g  style="" transform="translate(143,181)"><text x="5"  style="font-size:11px;font-weight:bold;color:white;text-shadow:0 0 3px black;fill:white;" transform="translate(0,16)"><tspan>2</tspan></text></g><g  style="" transform="translate(243,169)"><text x="5"  style="font-size:11px;font-weight:bold;color:white;text-shadow:0 0 3px black;fill:white;" transform="translate(0,16)"><tspan>3</tspan></text></g><g  style="" transform="translate(344,233)"><text x="5"  style="font-size:11px;font-weight:bold;color:white;text-shadow:0 0 3px black;fill:white;" transform="translate(0,16)"><tspan>2</tspan></text></g><g  style="" transform="translate(445,168)"><text x="5"  style="font-size:11px;font-weight:bold;color:white;text-shadow:0 0 3px black;fill:white;" transform="translate(0,16)"><tspan>1</tspan></text></g></g><g class="highcharts-data-labels highcharts-tracker" visibility="visible"  transform="translate(71,44) scale(1 1)" style=""><g  style="" transform="translate(42,271)"><text x="5"  style="font-size:11px;font-weight:bold;color:white;text-shadow:0 0 3px black;fill:white;" transform="translate(0,16)"><tspan>3</tspan></text></g><g  style="" transform="translate(143,258)"><text x="5"  style="font-size:11px;font-weight:bold;color:white;text-shadow:0 0 3px black;fill:white;" transform="translate(0,16)"><tspan>4</tspan></text></g><g  style="" transform="translate(243,258)"><text x="5"  style="font-size:11px;font-weight:bold;color:white;text-shadow:0 0 3px black;fill:white;" transform="translate(0,16)"><tspan>4</tspan></text></g><g  style="" transform="translate(344,284)"><text x="5"  style="font-size:11px;font-weight:bold;color:white;text-shadow:0 0 3px black;fill:white;" transform="translate(0,16)"><tspan>2</tspan></text></g><g  style="" transform="translate(445,245)"><text x="5"  style="font-size:11px;font-weight:bold;color:white;text-shadow:0 0 3px black;fill:white;" transform="translate(0,16)"><tspan>5</tspan></text></g></g><g class="highcharts-legend"  transform="translate(343,35)"><rect x="0.5" y="0.5" width="200" height="26" strokeWidth="1" stroke="#CCC" stroke-width="1" fill="#E0E0E8" visibility="visible"></rect><g ><g><g class="highcharts-legend-item"  transform="translate(8,3)"><text x="21" style="color:#333333;font-size:13px;font-weight:bold;cursor:pointer;fill:#333333;" text-anchor="start"  y="16">John</text><rect x="0" y="5" width="16" height="12"  fill="#f45b5b"></rect></g><g class="highcharts-legend-item"  transform="translate(79,3)"><text x="21" y="16" style="color:#333333;font-size:13px;font-weight:bold;cursor:pointer;fill:#333333;" text-anchor="start" >Jane</text><rect x="0" y="5" width="16" height="12"  fill="#8085e9"></rect></g><g class="highcharts-legend-item"  transform="translate(150,3)"><text x="21" y="16" style="color:#333333;font-size:13px;font-weight:bold;cursor:pointer;fill:#333333;" text-anchor="start" >Joe</text><rect x="0" y="5" width="16" height="12"  fill="#8d4654"></rect></g></g></g></g><g class="highcharts-axis-labels highcharts-xaxis-labels" ><text x="121.3" style="color:#6e6e70;cursor:default;font-size:11px;fill:#6e6e70;width:103px;text-overflow:clip;" text-anchor="middle" transform="translate(0,0)" y="383" opacity="1">Apples</text><text x="221.8" style="color:#6e6e70;cursor:default;font-size:11px;fill:#6e6e70;width:103px;text-overflow:clip;" text-anchor="middle" transform="translate(0,0)" y="383" opacity="1">Oranges</text><text x="322.5" style="color:#6e6e70;cursor:default;font-size:11px;fill:#6e6e70;width:103px;text-overflow:clip;" text-anchor="middle" transform="translate(0,0)" y="383" opacity="1">Pears</text><text x="423.0" style="color:#6e6e70;cursor:default;font-size:11px;fill:#6e6e70;width:103px;text-overflow:clip;" text-anchor="middle" transform="translate(0,0)" y="383" opacity="1">Grapes</text><text x="523.7" style="color:#6e6e70;cursor:default;font-size:11px;fill:#6e6e70;width:103px;text-overflow:clip;" text-anchor="middle" transform="translate(0,0)" y="383" opacity="1">Bananas</text></g><g class="highcharts-axis-labels highcharts-yaxis-labels" ><text x="56" style="color:#6e6e70;cursor:default;font-size:11px;fill:#6e6e70;width:183px;text-overflow:clip;" text-anchor="end" transform="translate(0,0)" y="369" opacity="1">0</text><text x="56" style="color:#6e6e70;cursor:default;font-size:11px;fill:#6e6e70;width:183px;text-overflow:clip;" text-anchor="end" transform="translate(0,0)" y="305" opacity="1">2.5</text><text x="56" style="color:#6e6e70;cursor:default;font-size:11px;fill:#6e6e70;width:183px;text-overflow:clip;" text-anchor="end" transform="translate(0,0)" y="241" opacity="1">5</text><text x="56" style="color:#6e6e70;cursor:default;font-size:11px;fill:#6e6e70;width:183px;text-overflow:clip;" text-anchor="end" transform="translate(0,0)" y="177" opacity="1">7.5</text><text x="56" style="color:#6e6e70;cursor:default;font-size:11px;fill:#6e6e70;width:183px;text-overflow:clip;" text-anchor="end" transform="translate(0,0)" y="113" opacity="1">10</text><text x="56" style="color:#6e6e70;cursor:default;font-size:11px;fill:#6e6e70;width:183px;text-overflow:clip;" text-anchor="end" transform="translate(0,0)" y="49" opacity="1">12.5</text></g><g class="highcharts-tooltip"  style="cursor:default;padding:0;white-space:nowrap;" transform="translate(0,-9999)"><path fill="none" d="M 3 0 L 13 0 C 16 0 16 0 16 3 L 16 13 C 16 16 16 16 13 16 L 3 16 C 0 16 0 16 0 13 L 0 3 C 0 0 0 0 3 0"  stroke="black" stroke-opacity="0.0" stroke-width="5" transform="translate(1, 1)"></path><path fill="none" d="M 3 0 L 13 0 C 16 0 16 0 16 3 L 16 13 C 16 16 16 16 13 16 L 3 16 C 0 16 0 16 0 13 L 0 3 C 0 0 0 0 3 0"  stroke="black" stroke-opacity="0.0" stroke-width="3" transform="translate(1, 1)"></path><path fill="none" d="M 3 0 L 13 0 C 16 0 16 0 16 3 L 16 13 C 16 16 16 16 13 16 L 3 16 C 0 16 0 16 0 13 L 0 3 C 0 0 0 0 3 0"  stroke="black" stroke-opacity="0.1" stroke-width="1" transform="translate(1, 1)"></path><path fill="rgb(249, 249, 249)" fill-opacity=" .85" d="M 3 0 L 13 0 C 16 0 16 0 16 3 L 16 13 C 16 16 16 16 13 16 L 3 16 C 0 16 0 16 0 13 L 0 3 C 0 0 0 0 3 0"></path><text x="8"  style="font-size:12px;color:#333333;fill:#333333;" transform="translate(0,20)"></text></g></svg>