<svg version="1.1" style="font-family: signika, serif; font-size: 12px; background-image: url(http://www.highcharts.com/samples/graphics/sand.png); background-attachment: initial; background-origin: initial; background-clip: initial; background-color: initial; background-position: initial initial; background-repeat: initial initial; " xmlns="http://www.w3.org/2000/svg" width="584" height="400" viewBox="0 0 584 400" xmlns:xlink="http://www.w3.org/1999/xlink"><style type="text/css"><![CDATA[@import url(http://fonts.googleapis.com/css?family=Signika:700);]]></style><desc>Created with Highcharts 4.1.4</desc><defs><clipPath id="highcharts-1"><rect x="0" y="0" width="507" height="267"></rect></clipPath></defs><g class="highcharts-grid" ></g><g class="highcharts-grid" ><path fill="none" d="M 67 325.5 L 574 325.5" stroke="#D8D8D8" stroke-width="1"  opacity="1"></path><path fill="none" d="M 67 272.5 L 574 272.5" stroke="#D8D8D8" stroke-width="1"  opacity="1"></path><path fill="none" d="M 67 218.5 L 574 218.5" stroke="#D8D8D8" stroke-width="1"  opacity="1"></path><path fill="none" d="M 67 165.5 L 574 165.5" stroke="#D8D8D8" stroke-width="1"  opacity="1"></path><path fill="none" d="M 67 111.5 L 574 111.5" stroke="#D8D8D8" stroke-width="1"  opacity="1"></path><path fill="none" d="M 67 57.5 L 574 57.5" stroke="#D8D8D8" stroke-width="1"  opacity="1"></path></g><g class="highcharts-axis" ><path fill="none" d="M 108.5 325 L 108.5 335" stroke="#C0D0E0" stroke-width="1" opacity="1"></path><path fill="none" d="M 151.5 325 L 151.5 335" stroke="#C0D0E0" stroke-width="1" opacity="1"></path><path fill="none" d="M 193.5 325 L 193.5 335" stroke="#C0D0E0" stroke-width="1" opacity="1"></path><path fill="none" d="M 235.5 325 L 235.5 335" stroke="#C0D0E0" stroke-width="1" opacity="1"></path><path fill="none" d="M 277.5 325 L 277.5 335" stroke="#C0D0E0" stroke-width="1" opacity="1"></path><path fill="none" d="M 320.5 325 L 320.5 335" stroke="#C0D0E0" stroke-width="1" opacity="1"></path><path fill="none" d="M 362.5 325 L 362.5 335" stroke="#C0D0E0" stroke-width="1" opacity="1"></path><path fill="none" d="M 404.5 325 L 404.5 335" stroke="#C0D0E0" stroke-width="1" opacity="1"></path><path fill="none" d="M 446.5 325 L 446.5 335" stroke="#C0D0E0" stroke-width="1" opacity="1"></path><path fill="none" d="M 489.5 325 L 489.5 335" stroke="#C0D0E0" stroke-width="1" opacity="1"></path><path fill="none" d="M 531.5 325 L 531.5 335" stroke="#C0D0E0" stroke-width="1" opacity="1"></path><path fill="none" d="M 574.5 325 L 574.5 335" stroke="#C0D0E0" stroke-width="1" opacity="1"></path><path fill="none" d="M 66.5 325 L 66.5 335" stroke="#C0D0E0" stroke-width="1" opacity="1"></path><path fill="none" d="M 67 325.5 L 574 325.5" stroke="#C0D0E0" stroke-width="1"  visibility="visible"></path></g><g class="highcharts-axis" ><text x="24"  text-anchor="middle" transform="translate(0,0) rotate(270 24 191.5)" class=" highcharts-yaxis-title" style="color:#707070;fill:#707070;" visibility="visible" y="191.5"><tspan>Rainfall (mm)</tspan></text></g><g class="highcharts-series-group" ><g class="highcharts-series highcharts-tracker" visibility="visible"  transform="translate(67,58) scale(1 1)" style="" clip-path="url(#highcharts-1)"><rect x="10" y="215" width="4" height="53" fill="none" rx="0" ry="0"  stroke="black" stroke-opacity="0.0" stroke-width="5" transform="translate(1, 1)"></rect><rect x="10" y="215" width="4" height="53" fill="none" rx="0" ry="0"  stroke="black" stroke-opacity="0.0" stroke-width="3" transform="translate(1, 1)"></rect><rect x="10" y="215" width="4" height="53" fill="none" rx="0" ry="0"  stroke="black" stroke-opacity="0.1" stroke-width="1" transform="translate(1, 1)"></rect><rect x="10" y="215" width="4" height="53" fill="#f45b5b" rx="0" ry="0"></rect><rect x="52" y="192" width="4" height="76" fill="none" rx="0" ry="0"  stroke="black" stroke-opacity="0.0" stroke-width="5" transform="translate(1, 1)"></rect><rect x="52" y="192" width="4" height="76" fill="none" rx="0" ry="0"  stroke="black" stroke-opacity="0.0" stroke-width="3" transform="translate(1, 1)"></rect><rect x="52" y="192" width="4" height="76" fill="none" rx="0" ry="0"  stroke="black" stroke-opacity="0.1" stroke-width="1" transform="translate(1, 1)"></rect><rect x="52" y="192" width="4" height="76" fill="#f45b5b" rx="0" ry="0"></rect><rect x="94" y="154" width="4" height="114" fill="none" rx="0" ry="0"  stroke="black" stroke-opacity="0.0" stroke-width="5" transform="translate(1, 1)"></rect><rect x="94" y="154" width="4" height="114" fill="none" rx="0" ry="0"  stroke="black" stroke-opacity="0.0" stroke-width="3" transform="translate(1, 1)"></rect><rect x="94" y="154" width="4" height="114" fill="none" rx="0" ry="0"  stroke="black" stroke-opacity="0.1" stroke-width="1" transform="translate(1, 1)"></rect><rect x="94" y="154" width="4" height="114" fill="#f45b5b" rx="0" ry="0"></rect><rect x="136" y="130" width="4" height="138" fill="none" rx="0" ry="0"  stroke="black" stroke-opacity="0.0" stroke-width="5" transform="translate(1, 1)"></rect><rect x="136" y="130" width="4" height="138" fill="none" rx="0" ry="0"  stroke="black" stroke-opacity="0.0" stroke-width="3" transform="translate(1, 1)"></rect><rect x="136" y="130" width="4" height="138" fill="none" rx="0" ry="0"  stroke="black" stroke-opacity="0.1" stroke-width="1" transform="translate(1, 1)"></rect><rect x="136" y="130" width="4" height="138" fill="#f45b5b" rx="0" ry="0"></rect><rect x="179" y="114" width="4" height="154" fill="none" rx="0" ry="0"  stroke="black" stroke-opacity="0.0" stroke-width="5" transform="translate(1, 1)"></rect><rect x="179" y="114" width="4" height="154" fill="none" rx="0" ry="0"  stroke="black" stroke-opacity="0.0" stroke-width="3" transform="translate(1, 1)"></rect><rect x="179" y="114" width="4" height="154" fill="none" rx="0" ry="0"  stroke="black" stroke-opacity="0.1" stroke-width="1" transform="translate(1, 1)"></rect><rect x="179" y="114" width="4" height="154" fill="#f45b5b" rx="0" ry="0"></rect><rect x="221" y="80" width="4" height="188" fill="none" rx="0" ry="0"  stroke="black" stroke-opacity="0.0" stroke-width="5" transform="translate(1, 1)"></rect><rect x="221" y="80" width="4" height="188" fill="none" rx="0" ry="0"  stroke="black" stroke-opacity="0.0" stroke-width="3" transform="translate(1, 1)"></rect><rect x="221" y="80" width="4" height="188" fill="none" rx="0" ry="0"  stroke="black" stroke-opacity="0.1" stroke-width="1" transform="translate(1, 1)"></rect><rect x="221" y="80" width="4" height="188" fill="#f45b5b" rx="0" ry="0"></rect><rect x="263" y="123" width="4" height="145" fill="none" rx="0" ry="0"  stroke="black" stroke-opacity="0.0" stroke-width="5" transform="translate(1, 1)"></rect><rect x="263" y="123" width="4" height="145" fill="none" rx="0" ry="0"  stroke="black" stroke-opacity="0.0" stroke-width="3" transform="translate(1, 1)"></rect><rect x="263" y="123" width="4" height="145" fill="none" rx="0" ry="0"  stroke="black" stroke-opacity="0.1" stroke-width="1" transform="translate(1, 1)"></rect><rect x="263" y="123" width="4" height="145" fill="#f45b5b" rx="0" ry="0"></rect><rect x="305" y="109" width="4" height="159" fill="none" rx="0" ry="0"  stroke="black" stroke-opacity="0.0" stroke-width="5" transform="translate(1, 1)"></rect><rect x="305" y="109" width="4" height="159" fill="none" rx="0" ry="0"  stroke="black" stroke-opacity="0.0" stroke-width="3" transform="translate(1, 1)"></rect><rect x="305" y="109" width="4" height="159" fill="none" rx="0" ry="0"  stroke="black" stroke-opacity="0.1" stroke-width="1" transform="translate(1, 1)"></rect><rect x="305" y="109" width="4" height="159" fill="#f45b5b" rx="0" ry="0"></rect><rect x="348" y="37" width="4" height="231" fill="none" rx="0" ry="0"  stroke="black" stroke-opacity="0.0" stroke-width="5" transform="translate(1, 1)"></rect><rect x="348" y="37" width="4" height="231" fill="none" rx="0" ry="0"  stroke="black" stroke-opacity="0.0" stroke-width="3" transform="translate(1, 1)"></rect><rect x="348" y="37" width="4" height="231" fill="none" rx="0" ry="0"  stroke="black" stroke-opacity="0.1" stroke-width="1" transform="translate(1, 1)"></rect><rect x="348" y="37" width="4" height="231" fill="#f45b5b" rx="0" ry="0"></rect><rect x="390" y="61" width="4" height="207" fill="none" rx="0" ry="0"  stroke="black" stroke-opacity="0.0" stroke-width="5" transform="translate(1, 1)"></rect><rect x="390" y="61" width="4" height="207" fill="none" rx="0" ry="0"  stroke="black" stroke-opacity="0.0" stroke-width="3" transform="translate(1, 1)"></rect><rect x="390" y="61" width="4" height="207" fill="none" rx="0" ry="0"  stroke="black" stroke-opacity="0.1" stroke-width="1" transform="translate(1, 1)"></rect><rect x="390" y="61" width="4" height="207" fill="#f45b5b" rx="0" ry="0"></rect><rect x="432" y="166" width="4" height="102" fill="none" rx="0" ry="0"  stroke="black" stroke-opacity="0.0" stroke-width="5" transform="translate(1, 1)"></rect><rect x="432" y="166" width="4" height="102" fill="none" rx="0" ry="0"  stroke="black" stroke-opacity="0.0" stroke-width="3" transform="translate(1, 1)"></rect><rect x="432" y="166" width="4" height="102" fill="none" rx="0" ry="0"  stroke="black" stroke-opacity="0.1" stroke-width="1" transform="translate(1, 1)"></rect><rect x="432" y="166" width="4" height="102" fill="#f45b5b" rx="0" ry="0"></rect><rect x="474" y="210" width="4" height="58" fill="none" rx="0" ry="0"  stroke="black" stroke-opacity="0.0" stroke-width="5" transform="translate(1, 1)"></rect><rect x="474" y="210" width="4" height="58" fill="none" rx="0" ry="0"  stroke="black" stroke-opacity="0.0" stroke-width="3" transform="translate(1, 1)"></rect><rect x="474" y="210" width="4" height="58" fill="none" rx="0" ry="0"  stroke="black" stroke-opacity="0.1" stroke-width="1" transform="translate(1, 1)"></rect><rect x="474" y="210" width="4" height="58" fill="#f45b5b" rx="0" ry="0"></rect></g><g class="highcharts-markers" visibility="visible"  transform="translate(67,58) scale(1 1)"></g><g class="highcharts-series highcharts-tracker" visibility="visible"  transform="translate(67,58) scale(1 1)" style="" clip-path="url(#highcharts-1)"><rect x="16" y="179" width="4" height="89" fill="none" rx="0" ry="0"  stroke="black" stroke-opacity="0.0" stroke-width="5" transform="translate(1, 1)"></rect><rect x="16" y="179" width="4" height="89" fill="none" rx="0" ry="0"  stroke="black" stroke-opacity="0.0" stroke-width="3" transform="translate(1, 1)"></rect><rect x="16" y="179" width="4" height="89" fill="none" rx="0" ry="0"  stroke="black" stroke-opacity="0.1" stroke-width="1" transform="translate(1, 1)"></rect><rect x="16" y="179" width="4" height="89" fill="#8085e9" rx="0" ry="0"></rect><rect x="58" y="184" width="4" height="84" fill="none" rx="0" ry="0"  stroke="black" stroke-opacity="0.0" stroke-width="5" transform="translate(1, 1)"></rect><rect x="58" y="184" width="4" height="84" fill="none" rx="0" ry="0"  stroke="black" stroke-opacity="0.0" stroke-width="3" transform="translate(1, 1)"></rect><rect x="58" y="184" width="4" height="84" fill="none" rx="0" ry="0"  stroke="black" stroke-opacity="0.1" stroke-width="1" transform="translate(1, 1)"></rect><rect x="58" y="184" width="4" height="84" fill="#8085e9" rx="0" ry="0"></rect><rect x="101" y="163" width="4" height="105" fill="none" rx="0" ry="0"  stroke="black" stroke-opacity="0.0" stroke-width="5" transform="translate(1, 1)"></rect><rect x="101" y="163" width="4" height="105" fill="none" rx="0" ry="0"  stroke="black" stroke-opacity="0.0" stroke-width="3" transform="translate(1, 1)"></rect><rect x="101" y="163" width="4" height="105" fill="none" rx="0" ry="0"  stroke="black" stroke-opacity="0.1" stroke-width="1" transform="translate(1, 1)"></rect><rect x="101" y="163" width="4" height="105" fill="#8085e9" rx="0" ry="0"></rect><rect x="143" y="168" width="4" height="100" fill="none" rx="0" ry="0"  stroke="black" stroke-opacity="0.0" stroke-width="5" transform="translate(1, 1)"></rect><rect x="143" y="168" width="4" height="100" fill="none" rx="0" ry="0"  stroke="black" stroke-opacity="0.0" stroke-width="3" transform="translate(1, 1)"></rect><rect x="143" y="168" width="4" height="100" fill="none" rx="0" ry="0"  stroke="black" stroke-opacity="0.1" stroke-width="1" transform="translate(1, 1)"></rect><rect x="143" y="168" width="4" height="100" fill="#8085e9" rx="0" ry="0"></rect><rect x="185" y="155" width="4" height="113" fill="none" rx="0" ry="0"  stroke="black" stroke-opacity="0.0" stroke-width="5" transform="translate(1, 1)"></rect><rect x="185" y="155" width="4" height="113" fill="none" rx="0" ry="0"  stroke="black" stroke-opacity="0.0" stroke-width="3" transform="translate(1, 1)"></rect><rect x="185" y="155" width="4" height="113" fill="none" rx="0" ry="0"  stroke="black" stroke-opacity="0.1" stroke-width="1" transform="translate(1, 1)"></rect><rect x="185" y="155" width="4" height="113" fill="#8085e9" rx="0" ry="0"></rect><rect x="227" y="178" width="4" height="90" fill="none" rx="0" ry="0"  stroke="black" stroke-opacity="0.0" stroke-width="5" transform="translate(1, 1)"></rect><rect x="227" y="178" width="4" height="90" fill="none" rx="0" ry="0"  stroke="black" stroke-opacity="0.0" stroke-width="3" transform="translate(1, 1)"></rect><rect x="227" y="178" width="4" height="90" fill="none" rx="0" ry="0"  stroke="black" stroke-opacity="0.1" stroke-width="1" transform="translate(1, 1)"></rect><rect x="227" y="178" width="4" height="90" fill="#8085e9" rx="0" ry="0"></rect><rect x="270" y="156" width="4" height="112" fill="none" rx="0" ry="0"  stroke="black" stroke-opacity="0.0" stroke-width="5" transform="translate(1, 1)"></rect><rect x="270" y="156" width="4" height="112" fill="none" rx="0" ry="0"  stroke="black" stroke-opacity="0.0" stroke-width="3" transform="translate(1, 1)"></rect><rect x="270" y="156" width="4" height="112" fill="none" rx="0" ry="0"  stroke="black" stroke-opacity="0.1" stroke-width="1" transform="translate(1, 1)"></rect><rect x="270" y="156" width="4" height="112" fill="#8085e9" rx="0" ry="0"></rect><rect x="312" y="157" width="4" height="111" fill="none" rx="0" ry="0"  stroke="black" stroke-opacity="0.0" stroke-width="5" transform="translate(1, 1)"></rect><rect x="312" y="157" width="4" height="111" fill="none" rx="0" ry="0"  stroke="black" stroke-opacity="0.0" stroke-width="3" transform="translate(1, 1)"></rect><rect x="312" y="157" width="4" height="111" fill="none" rx="0" ry="0"  stroke="black" stroke-opacity="0.1" stroke-width="1" transform="translate(1, 1)"></rect><rect x="312" y="157" width="4" height="111" fill="#8085e9" rx="0" ry="0"></rect><rect x="354" y="171" width="4" height="97" fill="none" rx="0" ry="0"  stroke="black" stroke-opacity="0.0" stroke-width="5" transform="translate(1, 1)"></rect><rect x="354" y="171" width="4" height="97" fill="none" rx="0" ry="0"  stroke="black" stroke-opacity="0.0" stroke-width="3" transform="translate(1, 1)"></rect><rect x="354" y="171" width="4" height="97" fill="none" rx="0" ry="0"  stroke="black" stroke-opacity="0.1" stroke-width="1" transform="translate(1, 1)"></rect><rect x="354" y="171" width="4" height="97" fill="#8085e9" rx="0" ry="0"></rect><rect x="396" y="179" width="4" height="89" fill="none" rx="0" ry="0"  stroke="black" stroke-opacity="0.0" stroke-width="5" transform="translate(1, 1)"></rect><rect x="396" y="179" width="4" height="89" fill="none" rx="0" ry="0"  stroke="black" stroke-opacity="0.0" stroke-width="3" transform="translate(1, 1)"></rect><rect x="396" y="179" width="4" height="89" fill="none" rx="0" ry="0"  stroke="black" stroke-opacity="0.1" stroke-width="1" transform="translate(1, 1)"></rect><rect x="396" y="179" width="4" height="89" fill="#8085e9" rx="0" ry="0"></rect><rect x="439" y="154" width="4" height="114" fill="none" rx="0" ry="0"  stroke="black" stroke-opacity="0.0" stroke-width="5" transform="translate(1, 1)"></rect><rect x="439" y="154" width="4" height="114" fill="none" rx="0" ry="0"  stroke="black" stroke-opacity="0.0" stroke-width="3" transform="translate(1, 1)"></rect><rect x="439" y="154" width="4" height="114" fill="none" rx="0" ry="0"  stroke="black" stroke-opacity="0.1" stroke-width="1" transform="translate(1, 1)"></rect><rect x="439" y="154" width="4" height="114" fill="#8085e9" rx="0" ry="0"></rect><rect x="481" y="169" width="4" height="99" fill="none" rx="0" ry="0"  stroke="black" stroke-opacity="0.0" stroke-width="5" transform="translate(1, 1)"></rect><rect x="481" y="169" width="4" height="99" fill="none" rx="0" ry="0"  stroke="black" stroke-opacity="0.0" stroke-width="3" transform="translate(1, 1)"></rect><rect x="481" y="169" width="4" height="99" fill="none" rx="0" ry="0"  stroke="black" stroke-opacity="0.1" stroke-width="1" transform="translate(1, 1)"></rect><rect x="481" y="169" width="4" height="99" fill="#8085e9" rx="0" ry="0"></rect></g><g class="highcharts-markers" visibility="visible"  transform="translate(67,58) scale(1 1)"></g><g class="highcharts-series highcharts-tracker" visibility="visible"  transform="translate(67,58) scale(1 1)" style="" clip-path="url(#highcharts-1)"><rect x="22" y="216" width="4" height="52" fill="none" rx="0" ry="0"  stroke="black" stroke-opacity="0.0" stroke-width="5" transform="translate(1, 1)"></rect><rect x="22" y="216" width="4" height="52" fill="none" rx="0" ry="0"  stroke="black" stroke-opacity="0.0" stroke-width="3" transform="translate(1, 1)"></rect><rect x="22" y="216" width="4" height="52" fill="none" rx="0" ry="0"  stroke="black" stroke-opacity="0.1" stroke-width="1" transform="translate(1, 1)"></rect><rect x="22" y="216" width="4" height="52" fill="#8d4654" rx="0" ry="0"></rect><rect x="65" y="227" width="4" height="41" fill="none" rx="0" ry="0"  stroke="black" stroke-opacity="0.0" stroke-width="5" transform="translate(1, 1)"></rect><rect x="65" y="227" width="4" height="41" fill="none" rx="0" ry="0"  stroke="black" stroke-opacity="0.0" stroke-width="3" transform="translate(1, 1)"></rect><rect x="65" y="227" width="4" height="41" fill="none" rx="0" ry="0"  stroke="black" stroke-opacity="0.1" stroke-width="1" transform="translate(1, 1)"></rect><rect x="65" y="227" width="4" height="41" fill="#8d4654" rx="0" ry="0"></rect><rect x="107" y="226" width="4" height="42" fill="none" rx="0" ry="0"  stroke="black" stroke-opacity="0.0" stroke-width="5" transform="translate(1, 1)"></rect><rect x="107" y="226" width="4" height="42" fill="none" rx="0" ry="0"  stroke="black" stroke-opacity="0.0" stroke-width="3" transform="translate(1, 1)"></rect><rect x="107" y="226" width="4" height="42" fill="none" rx="0" ry="0"  stroke="black" stroke-opacity="0.1" stroke-width="1" transform="translate(1, 1)"></rect><rect x="107" y="226" width="4" height="42" fill="#8d4654" rx="0" ry="0"></rect><rect x="149" y="224" width="4" height="44" fill="none" rx="0" ry="0"  stroke="black" stroke-opacity="0.0" stroke-width="5" transform="translate(1, 1)"></rect><rect x="149" y="224" width="4" height="44" fill="none" rx="0" ry="0"  stroke="black" stroke-opacity="0.0" stroke-width="3" transform="translate(1, 1)"></rect><rect x="149" y="224" width="4" height="44" fill="none" rx="0" ry="0"  stroke="black" stroke-opacity="0.1" stroke-width="1" transform="translate(1, 1)"></rect><rect x="149" y="224" width="4" height="44" fill="#8d4654" rx="0" ry="0"></rect><rect x="191" y="218" width="4" height="50" fill="none" rx="0" ry="0"  stroke="black" stroke-opacity="0.0" stroke-width="5" transform="translate(1, 1)"></rect><rect x="191" y="218" width="4" height="50" fill="none" rx="0" ry="0"  stroke="black" stroke-opacity="0.0" stroke-width="3" transform="translate(1, 1)"></rect><rect x="191" y="218" width="4" height="50" fill="none" rx="0" ry="0"  stroke="black" stroke-opacity="0.1" stroke-width="1" transform="translate(1, 1)"></rect><rect x="191" y="218" width="4" height="50" fill="#8d4654" rx="0" ry="0"></rect><rect x="234" y="216" width="4" height="52" fill="none" rx="0" ry="0"  stroke="black" stroke-opacity="0.0" stroke-width="5" transform="translate(1, 1)"></rect><rect x="234" y="216" width="4" height="52" fill="none" rx="0" ry="0"  stroke="black" stroke-opacity="0.0" stroke-width="3" transform="translate(1, 1)"></rect><rect x="234" y="216" width="4" height="52" fill="none" rx="0" ry="0"  stroke="black" stroke-opacity="0.1" stroke-width="1" transform="translate(1, 1)"></rect><rect x="234" y="216" width="4" height="52" fill="#8d4654" rx="0" ry="0"></rect><rect x="276" y="205" width="4" height="63" fill="none" rx="0" ry="0"  stroke="black" stroke-opacity="0.0" stroke-width="5" transform="translate(1, 1)"></rect><rect x="276" y="205" width="4" height="63" fill="none" rx="0" ry="0"  stroke="black" stroke-opacity="0.0" stroke-width="3" transform="translate(1, 1)"></rect><rect x="276" y="205" width="4" height="63" fill="none" rx="0" ry="0"  stroke="black" stroke-opacity="0.1" stroke-width="1" transform="translate(1, 1)"></rect><rect x="276" y="205" width="4" height="63" fill="#8d4654" rx="0" ry="0"></rect><rect x="318" y="204" width="4" height="64" fill="none" rx="0" ry="0"  stroke="black" stroke-opacity="0.0" stroke-width="5" transform="translate(1, 1)"></rect><rect x="318" y="204" width="4" height="64" fill="none" rx="0" ry="0"  stroke="black" stroke-opacity="0.0" stroke-width="3" transform="translate(1, 1)"></rect><rect x="318" y="204" width="4" height="64" fill="none" rx="0" ry="0"  stroke="black" stroke-opacity="0.1" stroke-width="1" transform="translate(1, 1)"></rect><rect x="318" y="204" width="4" height="64" fill="#8d4654" rx="0" ry="0"></rect><rect x="360" y="212" width="4" height="56" fill="none" rx="0" ry="0"  stroke="black" stroke-opacity="0.0" stroke-width="5" transform="translate(1, 1)"></rect><rect x="360" y="212" width="4" height="56" fill="none" rx="0" ry="0"  stroke="black" stroke-opacity="0.0" stroke-width="3" transform="translate(1, 1)"></rect><rect x="360" y="212" width="4" height="56" fill="none" rx="0" ry="0"  stroke="black" stroke-opacity="0.1" stroke-width="1" transform="translate(1, 1)"></rect><rect x="360" y="212" width="4" height="56" fill="#8d4654" rx="0" ry="0"></rect><rect x="403" y="198" width="4" height="70" fill="none" rx="0" ry="0"  stroke="black" stroke-opacity="0.0" stroke-width="5" transform="translate(1, 1)"></rect><rect x="403" y="198" width="4" height="70" fill="none" rx="0" ry="0"  stroke="black" stroke-opacity="0.0" stroke-width="3" transform="translate(1, 1)"></rect><rect x="403" y="198" width="4" height="70" fill="none" rx="0" ry="0"  stroke="black" stroke-opacity="0.1" stroke-width="1" transform="translate(1, 1)"></rect><rect x="403" y="198" width="4" height="70" fill="#8d4654" rx="0" ry="0"></rect><rect x="445" y="205" width="4" height="63" fill="none" rx="0" ry="0"  stroke="black" stroke-opacity="0.0" stroke-width="5" transform="translate(1, 1)"></rect><rect x="445" y="205" width="4" height="63" fill="none" rx="0" ry="0"  stroke="black" stroke-opacity="0.0" stroke-width="3" transform="translate(1, 1)"></rect><rect x="445" y="205" width="4" height="63" fill="none" rx="0" ry="0"  stroke="black" stroke-opacity="0.1" stroke-width="1" transform="translate(1, 1)"></rect><rect x="445" y="205" width="4" height="63" fill="#8d4654" rx="0" ry="0"></rect><rect x="487" y="213" width="4" height="55" fill="none" rx="0" ry="0"  stroke="black" stroke-opacity="0.0" stroke-width="5" transform="translate(1, 1)"></rect><rect x="487" y="213" width="4" height="55" fill="none" rx="0" ry="0"  stroke="black" stroke-opacity="0.0" stroke-width="3" transform="translate(1, 1)"></rect><rect x="487" y="213" width="4" height="55" fill="none" rx="0" ry="0"  stroke="black" stroke-opacity="0.1" stroke-width="1" transform="translate(1, 1)"></rect><rect x="487" y="213" width="4" height="55" fill="#8d4654" rx="0" ry="0"></rect></g><g class="highcharts-markers" visibility="visible"  transform="translate(67,58) scale(1 1)"></g><g class="highcharts-series highcharts-tracker" visibility="visible"  transform="translate(67,58) scale(1 1)" style="" clip-path="url(#highcharts-1)"><rect x="29" y="223" width="4" height="45" fill="none" rx="0" ry="0"  stroke="black" stroke-opacity="0.0" stroke-width="5" transform="translate(1, 1)"></rect><rect x="29" y="223" width="4" height="45" fill="none" rx="0" ry="0"  stroke="black" stroke-opacity="0.0" stroke-width="3" transform="translate(1, 1)"></rect><rect x="29" y="223" width="4" height="45" fill="none" rx="0" ry="0"  stroke="black" stroke-opacity="0.1" stroke-width="1" transform="translate(1, 1)"></rect><rect x="29" y="223" width="4" height="45" fill="#7798BF" rx="0" ry="0"></rect><rect x="71" y="233" width="4" height="35" fill="none" rx="0" ry="0"  stroke="black" stroke-opacity="0.0" stroke-width="5" transform="translate(1, 1)"></rect><rect x="71" y="233" width="4" height="35" fill="none" rx="0" ry="0"  stroke="black" stroke-opacity="0.0" stroke-width="3" transform="translate(1, 1)"></rect><rect x="71" y="233" width="4" height="35" fill="none" rx="0" ry="0"  stroke="black" stroke-opacity="0.1" stroke-width="1" transform="translate(1, 1)"></rect><rect x="71" y="233" width="4" height="35" fill="#7798BF" rx="0" ry="0"></rect><rect x="113" y="231" width="4" height="37" fill="none" rx="0" ry="0"  stroke="black" stroke-opacity="0.0" stroke-width="5" transform="translate(1, 1)"></rect><rect x="113" y="231" width="4" height="37" fill="none" rx="0" ry="0"  stroke="black" stroke-opacity="0.0" stroke-width="3" transform="translate(1, 1)"></rect><rect x="113" y="231" width="4" height="37" fill="none" rx="0" ry="0"  stroke="black" stroke-opacity="0.1" stroke-width="1" transform="translate(1, 1)"></rect><rect x="113" y="231" width="4" height="37" fill="#7798BF" rx="0" ry="0"></rect><rect x="155" y="226" width="4" height="42" fill="none" rx="0" ry="0"  stroke="black" stroke-opacity="0.0" stroke-width="5" transform="translate(1, 1)"></rect><rect x="155" y="226" width="4" height="42" fill="none" rx="0" ry="0"  stroke="black" stroke-opacity="0.0" stroke-width="3" transform="translate(1, 1)"></rect><rect x="155" y="226" width="4" height="42" fill="none" rx="0" ry="0"  stroke="black" stroke-opacity="0.1" stroke-width="1" transform="translate(1, 1)"></rect><rect x="155" y="226" width="4" height="42" fill="#7798BF" rx="0" ry="0"></rect><rect x="198" y="212" width="4" height="56" fill="none" rx="0" ry="0"  stroke="black" stroke-opacity="0.0" stroke-width="5" transform="translate(1, 1)"></rect><rect x="198" y="212" width="4" height="56" fill="none" rx="0" ry="0"  stroke="black" stroke-opacity="0.0" stroke-width="3" transform="translate(1, 1)"></rect><rect x="198" y="212" width="4" height="56" fill="none" rx="0" ry="0"  stroke="black" stroke-opacity="0.1" stroke-width="1" transform="translate(1, 1)"></rect><rect x="198" y="212" width="4" height="56" fill="#7798BF" rx="0" ry="0"></rect><rect x="240" y="187" width="4" height="81" fill="none" rx="0" ry="0"  stroke="black" stroke-opacity="0.0" stroke-width="5" transform="translate(1, 1)"></rect><rect x="240" y="187" width="4" height="81" fill="none" rx="0" ry="0"  stroke="black" stroke-opacity="0.0" stroke-width="3" transform="translate(1, 1)"></rect><rect x="240" y="187" width="4" height="81" fill="none" rx="0" ry="0"  stroke="black" stroke-opacity="0.1" stroke-width="1" transform="translate(1, 1)"></rect><rect x="240" y="187" width="4" height="81" fill="#7798BF" rx="0" ry="0"></rect><rect x="282" y="207" width="4" height="61" fill="none" rx="0" ry="0"  stroke="black" stroke-opacity="0.0" stroke-width="5" transform="translate(1, 1)"></rect><rect x="282" y="207" width="4" height="61" fill="none" rx="0" ry="0"  stroke="black" stroke-opacity="0.0" stroke-width="3" transform="translate(1, 1)"></rect><rect x="282" y="207" width="4" height="61" fill="none" rx="0" ry="0"  stroke="black" stroke-opacity="0.1" stroke-width="1" transform="translate(1, 1)"></rect><rect x="282" y="207" width="4" height="61" fill="#7798BF" rx="0" ry="0"></rect><rect x="324" y="203" width="4" height="65" fill="none" rx="0" ry="0"  stroke="black" stroke-opacity="0.0" stroke-width="5" transform="translate(1, 1)"></rect><rect x="324" y="203" width="4" height="65" fill="none" rx="0" ry="0"  stroke="black" stroke-opacity="0.0" stroke-width="3" transform="translate(1, 1)"></rect><rect x="324" y="203" width="4" height="65" fill="none" rx="0" ry="0"  stroke="black" stroke-opacity="0.1" stroke-width="1" transform="translate(1, 1)"></rect><rect x="324" y="203" width="4" height="65" fill="#7798BF" rx="0" ry="0"></rect><rect x="367" y="217" width="4" height="51" fill="none" rx="0" ry="0"  stroke="black" stroke-opacity="0.0" stroke-width="5" transform="translate(1, 1)"></rect><rect x="367" y="217" width="4" height="51" fill="none" rx="0" ry="0"  stroke="black" stroke-opacity="0.0" stroke-width="3" transform="translate(1, 1)"></rect><rect x="367" y="217" width="4" height="51" fill="none" rx="0" ry="0"  stroke="black" stroke-opacity="0.1" stroke-width="1" transform="translate(1, 1)"></rect><rect x="367" y="217" width="4" height="51" fill="#7798BF" rx="0" ry="0"></rect><rect x="409" y="226" width="4" height="42" fill="none" rx="0" ry="0"  stroke="black" stroke-opacity="0.0" stroke-width="5" transform="translate(1, 1)"></rect><rect x="409" y="226" width="4" height="42" fill="none" rx="0" ry="0"  stroke="black" stroke-opacity="0.0" stroke-width="3" transform="translate(1, 1)"></rect><rect x="409" y="226" width="4" height="42" fill="none" rx="0" ry="0"  stroke="black" stroke-opacity="0.1" stroke-width="1" transform="translate(1, 1)"></rect><rect x="409" y="226" width="4" height="42" fill="#7798BF" rx="0" ry="0"></rect><rect x="451" y="218" width="4" height="50" fill="none" rx="0" ry="0"  stroke="black" stroke-opacity="0.0" stroke-width="5" transform="translate(1, 1)"></rect><rect x="451" y="218" width="4" height="50" fill="none" rx="0" ry="0"  stroke="black" stroke-opacity="0.0" stroke-width="3" transform="translate(1, 1)"></rect><rect x="451" y="218" width="4" height="50" fill="none" rx="0" ry="0"  stroke="black" stroke-opacity="0.1" stroke-width="1" transform="translate(1, 1)"></rect><rect x="451" y="218" width="4" height="50" fill="#7798BF" rx="0" ry="0"></rect><rect x="493" y="213" width="4" height="55" fill="none" rx="0" ry="0"  stroke="black" stroke-opacity="0.0" stroke-width="5" transform="translate(1, 1)"></rect><rect x="493" y="213" width="4" height="55" fill="none" rx="0" ry="0"  stroke="black" stroke-opacity="0.0" stroke-width="3" transform="translate(1, 1)"></rect><rect x="493" y="213" width="4" height="55" fill="none" rx="0" ry="0"  stroke="black" stroke-opacity="0.1" stroke-width="1" transform="translate(1, 1)"></rect><rect x="493" y="213" width="4" height="55" fill="#7798BF" rx="0" ry="0"></rect></g><g class="highcharts-markers" visibility="visible"  transform="translate(67,58) scale(1 1)"></g></g><text x="292" text-anchor="middle" class="highcharts-title"  style="color:black;font-size:16px;font-weight:bold;fill:black;width:520px;" y="22"><tspan>Monthly Average Rainfall</tspan></text><text x="292" text-anchor="middle" class="highcharts-subtitle"  style="color:black;fill:black;width:520px;" y="43"><tspan>Source: WorldClimate.com</tspan></text><g class="highcharts-legend"  transform="translate(121,358)"><g ><g><g class="highcharts-legend-item"  transform="translate(8,3)"><text x="21" style="color:#333333;font-size:13px;font-weight:bold;cursor:pointer;fill:#333333;" text-anchor="start"  y="16">Tokyo</text><rect x="0" y="5" width="16" height="12"  fill="#f45b5b"></rect></g><g class="highcharts-legend-item"  transform="translate(87,3)"><text x="21" y="16" style="color:#333333;font-size:13px;font-weight:bold;cursor:pointer;fill:#333333;" text-anchor="start" ><tspan>New York</tspan></text><rect x="0" y="5" width="16" height="12"  fill="#8085e9"></rect></g><g class="highcharts-legend-item"  transform="translate(189,3)"><text x="21" y="16" style="color:#333333;font-size:13px;font-weight:bold;cursor:pointer;fill:#333333;" text-anchor="start" >London</text><rect x="0" y="5" width="16" height="12"  fill="#8d4654"></rect></g><g class="highcharts-legend-item"  transform="translate(277,3)"><text x="21" y="16" style="color:#333333;font-size:13px;font-weight:bold;cursor:pointer;fill:#333333;" text-anchor="start" >Berlin</text><rect x="0" y="5" width="16" height="12"  fill="#7798BF"></rect></g></g></g></g><g class="highcharts-axis-labels highcharts-xaxis-labels" ><text x="88.1" style="color:#6e6e70;cursor:default;font-size:11px;fill:#6e6e70;" text-anchor="middle" transform="translate(0,0)" y="344" opacity="1">Jan</text><text x="130.3" style="color:#6e6e70;cursor:default;font-size:11px;fill:#6e6e70;" text-anchor="middle" transform="translate(0,0)" y="344" opacity="1">Feb</text><text x="172.6" style="color:#6e6e70;cursor:default;font-size:11px;fill:#6e6e70;" text-anchor="middle" transform="translate(0,0)" y="344" opacity="1">Mar</text><text x="214.8" style="color:#6e6e70;cursor:default;font-size:11px;fill:#6e6e70;" text-anchor="middle" transform="translate(0,0)" y="344" opacity="1">Apr</text><text x="257.1" style="color:#6e6e70;cursor:default;font-size:11px;fill:#6e6e70;" text-anchor="middle" transform="translate(0,0)" y="344" opacity="1">May</text><text x="299.3" style="color:#6e6e70;cursor:default;font-size:11px;fill:#6e6e70;" text-anchor="middle" transform="translate(0,0)" y="344" opacity="1">Jun</text><text x="341.6" style="color:#6e6e70;cursor:default;font-size:11px;fill:#6e6e70;" text-anchor="middle" transform="translate(0,0)" y="344" opacity="1">Jul</text><text x="383.8" style="color:#6e6e70;cursor:default;font-size:11px;fill:#6e6e70;" text-anchor="middle" transform="translate(0,0)" y="344" opacity="1">Aug</text><text x="426.1" style="color:#6e6e70;cursor:default;font-size:11px;fill:#6e6e70;" text-anchor="middle" transform="translate(0,0)" y="344" opacity="1">Sep</text><text x="468.3" style="color:#6e6e70;cursor:default;font-size:11px;fill:#6e6e70;" text-anchor="middle" transform="translate(0,0)" y="344" opacity="1">Oct</text><text x="510.6" style="color:#6e6e70;cursor:default;font-size:11px;fill:#6e6e70;" text-anchor="middle" transform="translate(0,0)" y="344" opacity="1">Nov</text><text x="552.8" style="color:#6e6e70;cursor:default;font-size:11px;fill:#6e6e70;" text-anchor="middle" transform="translate(0,0)" y="344" opacity="1">Dec</text></g><g class="highcharts-axis-labels highcharts-yaxis-labels" ><text x="52" style="color:#6e6e70;cursor:default;font-size:11px;fill:#6e6e70;width:183px;text-overflow:clip;" text-anchor="end" transform="translate(0,0)" y="330" opacity="1">0</text><text x="52" style="color:#6e6e70;cursor:default;font-size:11px;fill:#6e6e70;width:183px;text-overflow:clip;" text-anchor="end" transform="translate(0,0)" y="276" opacity="1">50</text><text x="52" style="color:#6e6e70;cursor:default;font-size:11px;fill:#6e6e70;width:183px;text-overflow:clip;" text-anchor="end" transform="translate(0,0)" y="223" opacity="1">100</text><text x="52" style="color:#6e6e70;cursor:default;font-size:11px;fill:#6e6e70;width:183px;text-overflow:clip;" text-anchor="end" transform="translate(0,0)" y="169" opacity="1">150</text><text x="52" style="color:#6e6e70;cursor:default;font-size:11px;fill:#6e6e70;width:183px;text-overflow:clip;" text-anchor="end" transform="translate(0,0)" y="116" opacity="1">200</text><text x="52" style="color:#6e6e70;cursor:default;font-size:11px;fill:#6e6e70;width:183px;text-overflow:clip;" text-anchor="end" transform="translate(0,0)" y="63" opacity="1">250</text></g><g class="highcharts-tooltip"  style="cursor:default;padding:0;white-space:nowrap;" transform="translate(0,-9999)"><path fill="none" d="M 3 0 L 13 0 C 16 0 16 0 16 3 L 16 13 C 16 16 16 16 13 16 L 3 16 C 0 16 0 16 0 13 L 0 3 C 0 0 0 0 3 0"  stroke="black" stroke-opacity="0.0" stroke-width="5" transform="translate(1, 1)"></path><path fill="none" d="M 3 0 L 13 0 C 16 0 16 0 16 3 L 16 13 C 16 16 16 16 13 16 L 3 16 C 0 16 0 16 0 13 L 0 3 C 0 0 0 0 3 0"  stroke="black" stroke-opacity="0.0" stroke-width="3" transform="translate(1, 1)"></path><path fill="none" d="M 3 0 L 13 0 C 16 0 16 0 16 3 L 16 13 C 16 16 16 16 13 16 L 3 16 C 0 16 0 16 0 13 L 0 3 C 0 0 0 0 3 0"  stroke="black" stroke-opacity="0.1" stroke-width="1" transform="translate(1, 1)"></path><path fill="rgb(249, 249, 249)" fill-opacity=" .85" d="M 3 0 L 13 0 C 16 0 16 0 16 3 L 16 13 C 16 16 16 16 13 16 L 3 16 C 0 16 0 16 0 13 L 0 3 C 0 0 0 0 3 0"></path></g></svg>