<svg version="1.1" style="font-family: signika, serif; font-size: 12px; background-image: url(http://www.highcharts.com/samples/graphics/sand.png); background-attachment: initial; background-origin: initial; background-clip: initial; background-color: initial; background-position: initial initial; background-repeat: initial initial; " xmlns="http://www.w3.org/2000/svg" width="584" height="400" viewBox="0 0 584 400" xmlns:xlink="http://www.w3.org/1999/xlink"><style type="text/css"><![CDATA[@import url(http://fonts.googleapis.com/css?family=Signika:700);]]></style><desc>Created with Highcharts 4.1.4</desc><defs><clipPath id="highcharts-1"><rect x="0" y="0" width="450" height="281"></rect></clipPath></defs><g class="highcharts-grid" ></g><g class="highcharts-grid" ><path fill="none" d="M 67 325.5 L 517 325.5" stroke="#D8D8D8" stroke-width="1"  opacity="1"></path><path fill="none" d="M 67 269.5 L 517 269.5" stroke="#D8D8D8" stroke-width="1"  opacity="1"></path><path fill="none" d="M 67 213.5 L 517 213.5" stroke="#D8D8D8" stroke-width="1"  opacity="1"></path><path fill="none" d="M 67 156.5 L 517 156.5" stroke="#D8D8D8" stroke-width="1"  opacity="1"></path><path fill="none" d="M 67 100.5 L 517 100.5" stroke="#D8D8D8" stroke-width="1"  opacity="1"></path><path fill="none" d="M 67 43.5 L 517 43.5" stroke="#D8D8D8" stroke-width="1"  opacity="1"></path></g><g class="highcharts-grid" ><path fill="none" d="M 67 325.5 L 517 325.5" stroke="#D8D8D8" stroke-width="1"  opacity="1"></path><path fill="none" d="M 67 269.5 L 517 269.5" stroke="#D8D8D8" stroke-width="1"  opacity="1"></path><path fill="none" d="M 67 213.5 L 517 213.5" stroke="#D8D8D8" stroke-width="1"  opacity="1"></path><path fill="none" d="M 67 156.5 L 517 156.5" stroke="#D8D8D8" stroke-width="1"  opacity="1"></path><path fill="none" d="M 67 100.5 L 517 100.5" stroke="#D8D8D8" stroke-width="1"  opacity="1"></path><path fill="none" d="M 67 43.5 L 517 43.5" stroke="#D8D8D8" stroke-width="1"  opacity="1"></path></g><g class="highcharts-axis" ><path fill="none" d="M 216.5 325 L 216.5 335" stroke="#C0D0E0" stroke-width="1" opacity="1"></path><path fill="none" d="M 366.5 325 L 366.5 335" stroke="#C0D0E0" stroke-width="1" opacity="1"></path><path fill="none" d="M 517.5 325 L 517.5 335" stroke="#C0D0E0" stroke-width="1" opacity="1"></path><path fill="none" d="M 66.5 325 L 66.5 335" stroke="#C0D0E0" stroke-width="1" opacity="1"></path><path fill="none" d="M 67 325.5 L 517 325.5" stroke="#C0D0E0" stroke-width="1"  visibility="visible"></path></g><g class="highcharts-axis" ><text x="24"  text-anchor="middle" transform="translate(0,0) rotate(270 24 184.5)" class=" highcharts-yaxis-title" style="color:#707070;fill:#707070;" visibility="visible" y="184.5">Employees</text></g><g class="highcharts-axis" ><text x="560"  text-anchor="middle" transform="translate(0,0) rotate(90 560 184.5)" class=" highcharts-yaxis-title" style="color:#707070;fill:#707070;" visibility="visible" y="184.5"><tspan>Profit (millions)</tspan></text></g><g class="highcharts-series-group" ><g class="highcharts-series highcharts-tracker" visibility="visible"  transform="translate(67,44) scale(1 1)" style="" clip-path="url(#highcharts-1)"><rect x="27" y="113" width="36" height="169" fill="none" rx="0" ry="0"  stroke="black" stroke-opacity="0.0" stroke-width="5" transform="translate(1, 1)"></rect><rect x="27" y="113" width="36" height="169" fill="none" rx="0" ry="0"  stroke="black" stroke-opacity="0.0" stroke-width="3" transform="translate(1, 1)"></rect><rect x="27" y="113" width="36" height="169" fill="none" rx="0" ry="0"  stroke="black" stroke-opacity="0.1" stroke-width="1" transform="translate(1, 1)"></rect><rect x="27" y="113" width="36" height="169" fill="rgb(165,170,217)" fill-opacity="1" rx="0" ry="0"></rect><rect x="177" y="200" width="36" height="82" fill="none" rx="0" ry="0"  stroke="black" stroke-opacity="0.0" stroke-width="5" transform="translate(1, 1)"></rect><rect x="177" y="200" width="36" height="82" fill="none" rx="0" ry="0"  stroke="black" stroke-opacity="0.0" stroke-width="3" transform="translate(1, 1)"></rect><rect x="177" y="200" width="36" height="82" fill="none" rx="0" ry="0"  stroke="black" stroke-opacity="0.1" stroke-width="1" transform="translate(1, 1)"></rect><rect x="177" y="200" width="36" height="82" fill="rgb(165,170,217)" fill-opacity="1" rx="0" ry="0"></rect><rect x="327" y="260" width="36" height="22" fill="none" rx="0" ry="0"  stroke="black" stroke-opacity="0.0" stroke-width="5" transform="translate(1, 1)"></rect><rect x="327" y="260" width="36" height="22" fill="none" rx="0" ry="0"  stroke="black" stroke-opacity="0.0" stroke-width="3" transform="translate(1, 1)"></rect><rect x="327" y="260" width="36" height="22" fill="none" rx="0" ry="0"  stroke="black" stroke-opacity="0.1" stroke-width="1" transform="translate(1, 1)"></rect><rect x="327" y="260" width="36" height="22" fill="rgb(165,170,217)" fill-opacity="1" rx="0" ry="0"></rect></g><g class="highcharts-markers" visibility="visible"  transform="translate(67,44) scale(1 1)"></g><g class="highcharts-series highcharts-tracker" visibility="visible"  transform="translate(67,44) scale(1 1)" style="" clip-path="url(#highcharts-1)"><rect x="36" y="125" width="18" height="157" fill="none" rx="0" ry="0"  stroke="black" stroke-opacity="0.0" stroke-width="5" transform="translate(1, 1)"></rect><rect x="36" y="125" width="18" height="157" fill="none" rx="0" ry="0"  stroke="black" stroke-opacity="0.0" stroke-width="3" transform="translate(1, 1)"></rect><rect x="36" y="125" width="18" height="157" fill="none" rx="0" ry="0"  stroke="black" stroke-opacity="0.1" stroke-width="1" transform="translate(1, 1)"></rect><rect x="36" y="125" width="18" height="157" fill="rgb(126,86,134)" fill-opacity=".9" rx="0" ry="0"></rect><rect x="186" y="181" width="18" height="101" fill="none" rx="0" ry="0"  stroke="black" stroke-opacity="0.0" stroke-width="5" transform="translate(1, 1)"></rect><rect x="186" y="181" width="18" height="101" fill="none" rx="0" ry="0"  stroke="black" stroke-opacity="0.0" stroke-width="3" transform="translate(1, 1)"></rect><rect x="186" y="181" width="18" height="101" fill="none" rx="0" ry="0"  stroke="black" stroke-opacity="0.1" stroke-width="1" transform="translate(1, 1)"></rect><rect x="186" y="181" width="18" height="101" fill="rgb(126,86,134)" fill-opacity=".9" rx="0" ry="0"></rect><rect x="336" y="237" width="18" height="45" fill="none" rx="0" ry="0"  stroke="black" stroke-opacity="0.0" stroke-width="5" transform="translate(1, 1)"></rect><rect x="336" y="237" width="18" height="45" fill="none" rx="0" ry="0"  stroke="black" stroke-opacity="0.0" stroke-width="3" transform="translate(1, 1)"></rect><rect x="336" y="237" width="18" height="45" fill="none" rx="0" ry="0"  stroke="black" stroke-opacity="0.1" stroke-width="1" transform="translate(1, 1)"></rect><rect x="336" y="237" width="18" height="45" fill="rgb(126,86,134)" fill-opacity=".9" rx="0" ry="0"></rect></g><g class="highcharts-markers" visibility="visible"  transform="translate(67,44) scale(1 1)"></g><g class="highcharts-series highcharts-tracker" visibility="visible"  transform="translate(67,44) scale(1 1)" style="" clip-path="url(#highcharts-1)"><rect x="87" y="76" width="36" height="206" fill="none" rx="0" ry="0"  stroke="black" stroke-opacity="0.0" stroke-width="5" transform="translate(1, 1)"></rect><rect x="87" y="76" width="36" height="206" fill="none" rx="0" ry="0"  stroke="black" stroke-opacity="0.0" stroke-width="3" transform="translate(1, 1)"></rect><rect x="87" y="76" width="36" height="206" fill="none" rx="0" ry="0"  stroke="black" stroke-opacity="0.1" stroke-width="1" transform="translate(1, 1)"></rect><rect x="87" y="76" width="36" height="206" fill="rgb(248,161,63)" fill-opacity="1" rx="0" ry="0"></rect><rect x="237" y="81" width="36" height="201" fill="none" rx="0" ry="0"  stroke="black" stroke-opacity="0.0" stroke-width="5" transform="translate(1, 1)"></rect><rect x="237" y="81" width="36" height="201" fill="none" rx="0" ry="0"  stroke="black" stroke-opacity="0.0" stroke-width="3" transform="translate(1, 1)"></rect><rect x="237" y="81" width="36" height="201" fill="none" rx="0" ry="0"  stroke="black" stroke-opacity="0.1" stroke-width="1" transform="translate(1, 1)"></rect><rect x="237" y="81" width="36" height="201" fill="rgb(248,161,63)" fill-opacity="1" rx="0" ry="0"></rect><rect x="387" y="59" width="36" height="223" fill="none" rx="0" ry="0"  stroke="black" stroke-opacity="0.0" stroke-width="5" transform="translate(1, 1)"></rect><rect x="387" y="59" width="36" height="223" fill="none" rx="0" ry="0"  stroke="black" stroke-opacity="0.0" stroke-width="3" transform="translate(1, 1)"></rect><rect x="387" y="59" width="36" height="223" fill="none" rx="0" ry="0"  stroke="black" stroke-opacity="0.1" stroke-width="1" transform="translate(1, 1)"></rect><rect x="387" y="59" width="36" height="223" fill="rgb(248,161,63)" fill-opacity="1" rx="0" ry="0"></rect></g><g class="highcharts-markers" visibility="visible"  transform="translate(67,44) scale(1 1)"></g><g class="highcharts-series highcharts-tracker" visibility="visible"  transform="translate(67,44) scale(1 1)" style="" clip-path="url(#highcharts-1)"><rect x="96" y="53" width="18" height="229" fill="none" rx="0" ry="0"  stroke="black" stroke-opacity="0.0" stroke-width="5" transform="translate(1, 1)"></rect><rect x="96" y="53" width="18" height="229" fill="none" rx="0" ry="0"  stroke="black" stroke-opacity="0.0" stroke-width="3" transform="translate(1, 1)"></rect><rect x="96" y="53" width="18" height="229" fill="none" rx="0" ry="0"  stroke="black" stroke-opacity="0.1" stroke-width="1" transform="translate(1, 1)"></rect><rect x="96" y="53" width="18" height="229" fill="rgb(186,60,61)" fill-opacity=".9" rx="0" ry="0"></rect><rect x="246" y="59" width="18" height="223" fill="none" rx="0" ry="0"  stroke="black" stroke-opacity="0.0" stroke-width="5" transform="translate(1, 1)"></rect><rect x="246" y="59" width="18" height="223" fill="none" rx="0" ry="0"  stroke="black" stroke-opacity="0.0" stroke-width="3" transform="translate(1, 1)"></rect><rect x="246" y="59" width="18" height="223" fill="none" rx="0" ry="0"  stroke="black" stroke-opacity="0.1" stroke-width="1" transform="translate(1, 1)"></rect><rect x="246" y="59" width="18" height="223" fill="rgb(186,60,61)" fill-opacity=".9" rx="0" ry="0"></rect><rect x="396" y="48" width="18" height="234" fill="none" rx="0" ry="0"  stroke="black" stroke-opacity="0.0" stroke-width="5" transform="translate(1, 1)"></rect><rect x="396" y="48" width="18" height="234" fill="none" rx="0" ry="0"  stroke="black" stroke-opacity="0.0" stroke-width="3" transform="translate(1, 1)"></rect><rect x="396" y="48" width="18" height="234" fill="none" rx="0" ry="0"  stroke="black" stroke-opacity="0.1" stroke-width="1" transform="translate(1, 1)"></rect><rect x="396" y="48" width="18" height="234" fill="rgb(186,60,61)" fill-opacity=".9" rx="0" ry="0"></rect></g><g class="highcharts-markers" visibility="visible"  transform="translate(67,44) scale(1 1)"></g></g><text x="292" text-anchor="middle" class="highcharts-title"  style="color:black;font-size:16px;font-weight:bold;fill:black;width:520px;" y="22"><tspan>Efficiency Optimization by Branch</tspan></text><g class="highcharts-legend"  transform="translate(41,358)"><g ><g><g class="highcharts-legend-item"  transform="translate(8,3)"><text x="21" style="color:#333333;font-size:13px;font-weight:bold;cursor:pointer;fill:#333333;" text-anchor="start"  y="16">Employees</text><rect x="0" y="5" width="16" height="12"  fill="rgb(165,170,217)" fill-opacity="1"></rect></g><g class="highcharts-legend-item"  transform="translate(117,3)"><text x="21" y="16" style="color:#333333;font-size:13px;font-weight:bold;cursor:pointer;fill:#333333;" text-anchor="start" ><tspan>Employees Optimized</tspan></text><rect x="0" y="5" width="16" height="12"  fill="rgb(126,86,134)" fill-opacity=".9"></rect></g><g class="highcharts-legend-item"  transform="translate(293,3)"><text x="21" y="16" style="color:#333333;font-size:13px;font-weight:bold;cursor:pointer;fill:#333333;" text-anchor="start" >Profit</text><rect x="0" y="5" width="16" height="12"  fill="rgb(248,161,63)" fill-opacity="1"></rect></g><g class="highcharts-legend-item"  transform="translate(370,3)"><text x="21" y="16" style="color:#333333;font-size:13px;font-weight:bold;cursor:pointer;fill:#333333;" text-anchor="start" ><tspan>Profit Optimized</tspan></text><rect x="0" y="5" width="16" height="12"  fill="rgb(186,60,61)" fill-opacity=".9"></rect></g></g></g></g><g class="highcharts-axis-labels highcharts-xaxis-labels" ><text x="142" style="color:#6e6e70;cursor:default;font-size:11px;fill:#6e6e70;width:140px;text-overflow:clip;" text-anchor="middle" transform="translate(0,0)" y="344" opacity="1"><tspan>Seattle HQ</tspan></text><text x="292" style="color:#6e6e70;cursor:default;font-size:11px;fill:#6e6e70;width:140px;text-overflow:clip;" text-anchor="middle" transform="translate(0,0)" y="344" opacity="1"><tspan>San Francisco</tspan></text><text x="442" style="color:#6e6e70;cursor:default;font-size:11px;fill:#6e6e70;width:140px;text-overflow:clip;" text-anchor="middle" transform="translate(0,0)" y="344" opacity="1">Tokyo</text></g><g class="highcharts-axis-labels highcharts-yaxis-labels" ><text x="52" style="color:#6e6e70;cursor:default;font-size:11px;fill:#6e6e70;width:183px;text-overflow:clip;" text-anchor="end" transform="translate(0,0)" y="330" opacity="1">0</text><text x="52" style="color:#6e6e70;cursor:default;font-size:11px;fill:#6e6e70;width:183px;text-overflow:clip;" text-anchor="end" transform="translate(0,0)" y="273" opacity="1">50</text><text x="52" style="color:#6e6e70;cursor:default;font-size:11px;fill:#6e6e70;width:183px;text-overflow:clip;" text-anchor="end" transform="translate(0,0)" y="217" opacity="1">100</text><text x="52" style="color:#6e6e70;cursor:default;font-size:11px;fill:#6e6e70;width:183px;text-overflow:clip;" text-anchor="end" transform="translate(0,0)" y="161" opacity="1">150</text><text x="52" style="color:#6e6e70;cursor:default;font-size:11px;fill:#6e6e70;width:183px;text-overflow:clip;" text-anchor="end" transform="translate(0,0)" y="105" opacity="1">200</text><text x="52" style="color:#6e6e70;cursor:default;font-size:11px;fill:#6e6e70;width:183px;text-overflow:clip;" text-anchor="end" transform="translate(0,0)" y="49" opacity="1">250</text></g><g class="highcharts-axis-labels highcharts-yaxis-labels" ><text x="532" style="color:#6e6e70;cursor:default;font-size:11px;fill:#6e6e70;width:183px;text-overflow:clip;" text-anchor="start" transform="translate(0,0)" y="330" opacity="1">0</text><text x="532" style="color:#6e6e70;cursor:default;font-size:11px;fill:#6e6e70;width:183px;text-overflow:clip;" text-anchor="start" transform="translate(0,0)" y="273" opacity="1">50</text><text x="532" style="color:#6e6e70;cursor:default;font-size:11px;fill:#6e6e70;width:183px;text-overflow:clip;" text-anchor="start" transform="translate(0,0)" y="217" opacity="1">100</text><text x="532" style="color:#6e6e70;cursor:default;font-size:11px;fill:#6e6e70;width:183px;text-overflow:clip;" text-anchor="start" transform="translate(0,0)" y="161" opacity="1">150</text><text x="532" style="color:#6e6e70;cursor:default;font-size:11px;fill:#6e6e70;width:183px;text-overflow:clip;" text-anchor="start" transform="translate(0,0)" y="105" opacity="1">200</text><text x="532" style="color:#6e6e70;cursor:default;font-size:11px;fill:#6e6e70;width:183px;text-overflow:clip;" text-anchor="start" transform="translate(0,0)" y="49" opacity="1">250</text></g><g class="highcharts-tooltip"  style="cursor:default;padding:0;white-space:nowrap;" transform="translate(0,-9999)"><path fill="none" d="M 3 0 L 13 0 C 16 0 16 0 16 3 L 16 13 C 16 16 16 16 13 16 L 3 16 C 0 16 0 16 0 13 L 0 3 C 0 0 0 0 3 0"  stroke="black" stroke-opacity="0.0" stroke-width="5" transform="translate(1, 1)"></path><path fill="none" d="M 3 0 L 13 0 C 16 0 16 0 16 3 L 16 13 C 16 16 16 16 13 16 L 3 16 C 0 16 0 16 0 13 L 0 3 C 0 0 0 0 3 0"  stroke="black" stroke-opacity="0.0" stroke-width="3" transform="translate(1, 1)"></path><path fill="none" d="M 3 0 L 13 0 C 16 0 16 0 16 3 L 16 13 C 16 16 16 16 13 16 L 3 16 C 0 16 0 16 0 13 L 0 3 C 0 0 0 0 3 0"  stroke="black" stroke-opacity="0.1" stroke-width="1" transform="translate(1, 1)"></path><path fill="rgb(249, 249, 249)" fill-opacity=" .85" d="M 3 0 L 13 0 C 16 0 16 0 16 3 L 16 13 C 16 16 16 16 13 16 L 3 16 C 0 16 0 16 0 13 L 0 3 C 0 0 0 0 3 0"></path><text x="8"  style="font-size:12px;color:#333333;fill:#333333;" transform="translate(0,20)"></text></g></svg>