<svg version="1.1" style="font-family: signika, serif; font-size: 12px; background-image: url(http://www.highcharts.com/samples/graphics/sand.png); background-attachment: initial; background-origin: initial; background-clip: initial; background-color: initial; background-position: initial initial; background-repeat: initial initial; " xmlns="http://www.w3.org/2000/svg" width="584" height="400" viewBox="0 0 584 400" xmlns:xlink="http://www.w3.org/1999/xlink"><style type="text/css"><![CDATA[@import url(http://fonts.googleapis.com/css?family=Signika:700);]]></style><desc>Created with Highcharts 4.1.4</desc><defs><clipPath id="highcharts-1"><rect x="0" y="0" width="513" height="254"></rect></clipPath></defs><g class="highcharts-grid" ></g><g class="highcharts-grid" ><path fill="none" d="M 61 312.5 L 574 312.5" stroke="#D8D8D8" stroke-width="1"  opacity="1"></path><path fill="none" d="M 61 261.5 L 574 261.5" stroke="#D8D8D8" stroke-width="1"  opacity="1"></path><path fill="none" d="M 61 210.5 L 574 210.5" stroke="#D8D8D8" stroke-width="1"  opacity="1"></path><path fill="none" d="M 61 160.5 L 574 160.5" stroke="#D8D8D8" stroke-width="1"  opacity="1"></path><path fill="none" d="M 61 109.5 L 574 109.5" stroke="#D8D8D8" stroke-width="1"  opacity="1"></path><path fill="none" d="M 61 57.5 L 574 57.5" stroke="#D8D8D8" stroke-width="1"  opacity="1"></path></g><g class="highcharts-axis" ><path fill="none" d="M 86.5 312 L 86.5 322" stroke="#C0D0E0" stroke-width="1" opacity="1"></path><path fill="none" d="M 111.5 312 L 111.5 322" stroke="#C0D0E0" stroke-width="1" opacity="1"></path><path fill="none" d="M 137.5 312 L 137.5 322" stroke="#C0D0E0" stroke-width="1" opacity="1"></path><path fill="none" d="M 163.5 312 L 163.5 322" stroke="#C0D0E0" stroke-width="1" opacity="1"></path><path fill="none" d="M 188.5 312 L 188.5 322" stroke="#C0D0E0" stroke-width="1" opacity="1"></path><path fill="none" d="M 214.5 312 L 214.5 322" stroke="#C0D0E0" stroke-width="1" opacity="1"></path><path fill="none" d="M 240.5 312 L 240.5 322" stroke="#C0D0E0" stroke-width="1" opacity="1"></path><path fill="none" d="M 265.5 312 L 265.5 322" stroke="#C0D0E0" stroke-width="1" opacity="1"></path><path fill="none" d="M 291.5 312 L 291.5 322" stroke="#C0D0E0" stroke-width="1" opacity="1"></path><path fill="none" d="M 317.5 312 L 317.5 322" stroke="#C0D0E0" stroke-width="1" opacity="1"></path><path fill="none" d="M 342.5 312 L 342.5 322" stroke="#C0D0E0" stroke-width="1" opacity="1"></path><path fill="none" d="M 368.5 312 L 368.5 322" stroke="#C0D0E0" stroke-width="1" opacity="1"></path><path fill="none" d="M 393.5 312 L 393.5 322" stroke="#C0D0E0" stroke-width="1" opacity="1"></path><path fill="none" d="M 419.5 312 L 419.5 322" stroke="#C0D0E0" stroke-width="1" opacity="1"></path><path fill="none" d="M 445.5 312 L 445.5 322" stroke="#C0D0E0" stroke-width="1" opacity="1"></path><path fill="none" d="M 470.5 312 L 470.5 322" stroke="#C0D0E0" stroke-width="1" opacity="1"></path><path fill="none" d="M 496.5 312 L 496.5 322" stroke="#C0D0E0" stroke-width="1" opacity="1"></path><path fill="none" d="M 522.5 312 L 522.5 322" stroke="#C0D0E0" stroke-width="1" opacity="1"></path><path fill="none" d="M 547.5 312 L 547.5 322" stroke="#C0D0E0" stroke-width="1" opacity="1"></path><path fill="none" d="M 574.5 312 L 574.5 322" stroke="#C0D0E0" stroke-width="1" opacity="1"></path><path fill="none" d="M 60.5 312 L 60.5 322" stroke="#C0D0E0" stroke-width="1" opacity="1"></path><path fill="none" d="M 61 312.5 L 574 312.5" stroke="#C0D0E0" stroke-width="1"  visibility="visible"></path></g><g class="highcharts-axis" ><text x="24"  text-anchor="middle" transform="translate(0,0) rotate(270 24 185)" class=" highcharts-yaxis-title" style="color:#707070;fill:#707070;" visibility="visible" y="185"><tspan>Population (millions)</tspan></text></g><g class="highcharts-series-group" ><g class="highcharts-series highcharts-tracker" visibility="visible"  transform="translate(61,58) scale(1 1)" style="" clip-path="url(#highcharts-1)"><rect x="6.5" y="13.5" width="13" height="241" stroke="black" stroke-width="5" fill="none" rx="0" ry="0"  stroke-opacity="0.0" transform="translate(1, 1)"></rect><rect x="6.5" y="13.5" width="13" height="241" stroke="black" stroke-width="3" fill="none" rx="0" ry="0"  stroke-opacity="0.0" transform="translate(1, 1)"></rect><rect x="6.5" y="13.5" width="13" height="241" stroke="black" stroke-width="1" fill="none" rx="0" ry="0"  stroke-opacity="0.1" transform="translate(1, 1)"></rect><rect x="6.5" y="13.5" width="13" height="241" stroke="#FFFFFF" stroke-width="1" fill="#f45b5b" rx="0" ry="0"></rect><rect x="31.5" y="90.5" width="13" height="164" stroke="black" stroke-width="5" fill="none" rx="0" ry="0"  stroke-opacity="0.0" transform="translate(1, 1)"></rect><rect x="31.5" y="90.5" width="13" height="164" stroke="black" stroke-width="3" fill="none" rx="0" ry="0"  stroke-opacity="0.0" transform="translate(1, 1)"></rect><rect x="31.5" y="90.5" width="13" height="164" stroke="black" stroke-width="1" fill="none" rx="0" ry="0"  stroke-opacity="0.1" transform="translate(1, 1)"></rect><rect x="31.5" y="90.5" width="13" height="164" stroke="#FFFFFF" stroke-width="1" fill="#f45b5b" rx="0" ry="0"></rect><rect x="57.5" y="110.5" width="13" height="144" stroke="black" stroke-width="5" fill="none" rx="0" ry="0"  stroke-opacity="0.0" transform="translate(1, 1)"></rect><rect x="57.5" y="110.5" width="13" height="144" stroke="black" stroke-width="3" fill="none" rx="0" ry="0"  stroke-opacity="0.0" transform="translate(1, 1)"></rect><rect x="57.5" y="110.5" width="13" height="144" stroke="black" stroke-width="1" fill="none" rx="0" ry="0"  stroke-opacity="0.1" transform="translate(1, 1)"></rect><rect x="57.5" y="110.5" width="13" height="144" stroke="#FFFFFF" stroke-width="1" fill="#f45b5b" rx="0" ry="0"></rect><rect x="83.5" y="112.5" width="13" height="142" stroke="black" stroke-width="5" fill="none" rx="0" ry="0"  stroke-opacity="0.0" transform="translate(1, 1)"></rect><rect x="83.5" y="112.5" width="13" height="142" stroke="black" stroke-width="3" fill="none" rx="0" ry="0"  stroke-opacity="0.0" transform="translate(1, 1)"></rect><rect x="83.5" y="112.5" width="13" height="142" stroke="black" stroke-width="1" fill="none" rx="0" ry="0"  stroke-opacity="0.1" transform="translate(1, 1)"></rect><rect x="83.5" y="112.5" width="13" height="142" stroke="#FFFFFF" stroke-width="1" fill="#f45b5b" rx="0" ry="0"></rect><rect x="108.5" y="127.5" width="13" height="127" stroke="black" stroke-width="5" fill="none" rx="0" ry="0"  stroke-opacity="0.0" transform="translate(1, 1)"></rect><rect x="108.5" y="127.5" width="13" height="127" stroke="black" stroke-width="3" fill="none" rx="0" ry="0"  stroke-opacity="0.0" transform="translate(1, 1)"></rect><rect x="108.5" y="127.5" width="13" height="127" stroke="black" stroke-width="1" fill="none" rx="0" ry="0"  stroke-opacity="0.1" transform="translate(1, 1)"></rect><rect x="108.5" y="127.5" width="13" height="127" stroke="#FFFFFF" stroke-width="1" fill="#f45b5b" rx="0" ry="0"></rect><rect x="134.5" y="131.5" width="13" height="123" stroke="black" stroke-width="5" fill="none" rx="0" ry="0"  stroke-opacity="0.0" transform="translate(1, 1)"></rect><rect x="134.5" y="131.5" width="13" height="123" stroke="black" stroke-width="3" fill="none" rx="0" ry="0"  stroke-opacity="0.0" transform="translate(1, 1)"></rect><rect x="134.5" y="131.5" width="13" height="123" stroke="black" stroke-width="1" fill="none" rx="0" ry="0"  stroke-opacity="0.1" transform="translate(1, 1)"></rect><rect x="134.5" y="131.5" width="13" height="123" stroke="#FFFFFF" stroke-width="1" fill="#f45b5b" rx="0" ry="0"></rect><rect x="160.5" y="134.5" width="13" height="120" stroke="black" stroke-width="5" fill="none" rx="0" ry="0"  stroke-opacity="0.0" transform="translate(1, 1)"></rect><rect x="160.5" y="134.5" width="13" height="120" stroke="black" stroke-width="3" fill="none" rx="0" ry="0"  stroke-opacity="0.0" transform="translate(1, 1)"></rect><rect x="160.5" y="134.5" width="13" height="120" stroke="black" stroke-width="1" fill="none" rx="0" ry="0"  stroke-opacity="0.1" transform="translate(1, 1)"></rect><rect x="160.5" y="134.5" width="13" height="120" stroke="#FFFFFF" stroke-width="1" fill="#f45b5b" rx="0" ry="0"></rect><rect x="185.5" y="135.5" width="13" height="119" stroke="black" stroke-width="5" fill="none" rx="0" ry="0"  stroke-opacity="0.0" transform="translate(1, 1)"></rect><rect x="185.5" y="135.5" width="13" height="119" stroke="black" stroke-width="3" fill="none" rx="0" ry="0"  stroke-opacity="0.0" transform="translate(1, 1)"></rect><rect x="185.5" y="135.5" width="13" height="119" stroke="black" stroke-width="1" fill="none" rx="0" ry="0"  stroke-opacity="0.1" transform="translate(1, 1)"></rect><rect x="185.5" y="135.5" width="13" height="119" stroke="#FFFFFF" stroke-width="1" fill="#f45b5b" rx="0" ry="0"></rect><rect x="211.5" y="141.5" width="13" height="113" stroke="black" stroke-width="5" fill="none" rx="0" ry="0"  stroke-opacity="0.0" transform="translate(1, 1)"></rect><rect x="211.5" y="141.5" width="13" height="113" stroke="black" stroke-width="3" fill="none" rx="0" ry="0"  stroke-opacity="0.0" transform="translate(1, 1)"></rect><rect x="211.5" y="141.5" width="13" height="113" stroke="black" stroke-width="1" fill="none" rx="0" ry="0"  stroke-opacity="0.1" transform="translate(1, 1)"></rect><rect x="211.5" y="141.5" width="13" height="113" stroke="#FFFFFF" stroke-width="1" fill="#f45b5b" rx="0" ry="0"></rect><rect x="237.5" y="141.5" width="13" height="113" stroke="black" stroke-width="5" fill="none" rx="0" ry="0"  stroke-opacity="0.0" transform="translate(1, 1)"></rect><rect x="237.5" y="141.5" width="13" height="113" stroke="black" stroke-width="3" fill="none" rx="0" ry="0"  stroke-opacity="0.0" transform="translate(1, 1)"></rect><rect x="237.5" y="141.5" width="13" height="113" stroke="black" stroke-width="1" fill="none" rx="0" ry="0"  stroke-opacity="0.1" transform="translate(1, 1)"></rect><rect x="237.5" y="141.5" width="13" height="113" stroke="#FFFFFF" stroke-width="1" fill="#f45b5b" rx="0" ry="0"></rect><rect x="262.5" y="147.5" width="13" height="107" stroke="black" stroke-width="5" fill="none" rx="0" ry="0"  stroke-opacity="0.0" transform="translate(1, 1)"></rect><rect x="262.5" y="147.5" width="13" height="107" stroke="black" stroke-width="3" fill="none" rx="0" ry="0"  stroke-opacity="0.0" transform="translate(1, 1)"></rect><rect x="262.5" y="147.5" width="13" height="107" stroke="black" stroke-width="1" fill="none" rx="0" ry="0"  stroke-opacity="0.1" transform="translate(1, 1)"></rect><rect x="262.5" y="147.5" width="13" height="107" stroke="#FFFFFF" stroke-width="1" fill="#f45b5b" rx="0" ry="0"></rect><rect x="288.5" y="148.5" width="13" height="106" stroke="black" stroke-width="5" fill="none" rx="0" ry="0"  stroke-opacity="0.0" transform="translate(1, 1)"></rect><rect x="288.5" y="148.5" width="13" height="106" stroke="black" stroke-width="3" fill="none" rx="0" ry="0"  stroke-opacity="0.0" transform="translate(1, 1)"></rect><rect x="288.5" y="148.5" width="13" height="106" stroke="black" stroke-width="1" fill="none" rx="0" ry="0"  stroke-opacity="0.1" transform="translate(1, 1)"></rect><rect x="288.5" y="148.5" width="13" height="106" stroke="#FFFFFF" stroke-width="1" fill="#f45b5b" rx="0" ry="0"></rect><rect x="313.5" y="152.5" width="13" height="102" stroke="black" stroke-width="5" fill="none" rx="0" ry="0"  stroke-opacity="0.0" transform="translate(1, 1)"></rect><rect x="313.5" y="152.5" width="13" height="102" stroke="black" stroke-width="3" fill="none" rx="0" ry="0"  stroke-opacity="0.0" transform="translate(1, 1)"></rect><rect x="313.5" y="152.5" width="13" height="102" stroke="black" stroke-width="1" fill="none" rx="0" ry="0"  stroke-opacity="0.1" transform="translate(1, 1)"></rect><rect x="313.5" y="152.5" width="13" height="102" stroke="#FFFFFF" stroke-width="1" fill="#f45b5b" rx="0" ry="0"></rect><rect x="339.5" y="160.5" width="13" height="94" stroke="black" stroke-width="5" fill="none" rx="0" ry="0"  stroke-opacity="0.0" transform="translate(1, 1)"></rect><rect x="339.5" y="160.5" width="13" height="94" stroke="black" stroke-width="3" fill="none" rx="0" ry="0"  stroke-opacity="0.0" transform="translate(1, 1)"></rect><rect x="339.5" y="160.5" width="13" height="94" stroke="black" stroke-width="1" fill="none" rx="0" ry="0"  stroke-opacity="0.1" transform="translate(1, 1)"></rect><rect x="339.5" y="160.5" width="13" height="94" stroke="#FFFFFF" stroke-width="1" fill="#f45b5b" rx="0" ry="0"></rect><rect x="365.5" y="160.5" width="13" height="94" stroke="black" stroke-width="5" fill="none" rx="0" ry="0"  stroke-opacity="0.0" transform="translate(1, 1)"></rect><rect x="365.5" y="160.5" width="13" height="94" stroke="black" stroke-width="3" fill="none" rx="0" ry="0"  stroke-opacity="0.0" transform="translate(1, 1)"></rect><rect x="365.5" y="160.5" width="13" height="94" stroke="black" stroke-width="1" fill="none" rx="0" ry="0"  stroke-opacity="0.1" transform="translate(1, 1)"></rect><rect x="365.5" y="160.5" width="13" height="94" stroke="#FFFFFF" stroke-width="1" fill="#f45b5b" rx="0" ry="0"></rect><rect x="390.5" y="163.5" width="13" height="91" stroke="black" stroke-width="5" fill="none" rx="0" ry="0"  stroke-opacity="0.0" transform="translate(1, 1)"></rect><rect x="390.5" y="163.5" width="13" height="91" stroke="black" stroke-width="3" fill="none" rx="0" ry="0"  stroke-opacity="0.0" transform="translate(1, 1)"></rect><rect x="390.5" y="163.5" width="13" height="91" stroke="black" stroke-width="1" fill="none" rx="0" ry="0"  stroke-opacity="0.1" transform="translate(1, 1)"></rect><rect x="390.5" y="163.5" width="13" height="91" stroke="#FFFFFF" stroke-width="1" fill="#f45b5b" rx="0" ry="0"></rect><rect x="416.5" y="164.5" width="13" height="90" stroke="black" stroke-width="5" fill="none" rx="0" ry="0"  stroke-opacity="0.0" transform="translate(1, 1)"></rect><rect x="416.5" y="164.5" width="13" height="90" stroke="black" stroke-width="3" fill="none" rx="0" ry="0"  stroke-opacity="0.0" transform="translate(1, 1)"></rect><rect x="416.5" y="164.5" width="13" height="90" stroke="black" stroke-width="1" fill="none" rx="0" ry="0"  stroke-opacity="0.1" transform="translate(1, 1)"></rect><rect x="416.5" y="164.5" width="13" height="90" stroke="#FFFFFF" stroke-width="1" fill="#f45b5b" rx="0" ry="0"></rect><rect x="442.5" y="164.5" width="13" height="90" stroke="black" stroke-width="5" fill="none" rx="0" ry="0"  stroke-opacity="0.0" transform="translate(1, 1)"></rect><rect x="442.5" y="164.5" width="13" height="90" stroke="black" stroke-width="3" fill="none" rx="0" ry="0"  stroke-opacity="0.0" transform="translate(1, 1)"></rect><rect x="442.5" y="164.5" width="13" height="90" stroke="black" stroke-width="1" fill="none" rx="0" ry="0"  stroke-opacity="0.1" transform="translate(1, 1)"></rect><rect x="442.5" y="164.5" width="13" height="90" stroke="#FFFFFF" stroke-width="1" fill="#f45b5b" rx="0" ry="0"></rect><rect x="467.5" y="164.5" width="13" height="90" stroke="black" stroke-width="5" fill="none" rx="0" ry="0"  stroke-opacity="0.0" transform="translate(1, 1)"></rect><rect x="467.5" y="164.5" width="13" height="90" stroke="black" stroke-width="3" fill="none" rx="0" ry="0"  stroke-opacity="0.0" transform="translate(1, 1)"></rect><rect x="467.5" y="164.5" width="13" height="90" stroke="black" stroke-width="1" fill="none" rx="0" ry="0"  stroke-opacity="0.1" transform="translate(1, 1)"></rect><rect x="467.5" y="164.5" width="13" height="90" stroke="#FFFFFF" stroke-width="1" fill="#f45b5b" rx="0" ry="0"></rect><rect x="493.5" y="164.5" width="13" height="90" stroke="black" stroke-width="5" fill="none" rx="0" ry="0"  stroke-opacity="0.0" transform="translate(1, 1)"></rect><rect x="493.5" y="164.5" width="13" height="90" stroke="black" stroke-width="3" fill="none" rx="0" ry="0"  stroke-opacity="0.0" transform="translate(1, 1)"></rect><rect x="493.5" y="164.5" width="13" height="90" stroke="black" stroke-width="1" fill="none" rx="0" ry="0"  stroke-opacity="0.1" transform="translate(1, 1)"></rect><rect x="493.5" y="164.5" width="13" height="90" stroke="#FFFFFF" stroke-width="1" fill="#f45b5b" rx="0" ry="0"></rect></g><g class="highcharts-markers" visibility="visible"  transform="translate(61,58) scale(1 1)"></g></g><text x="292" text-anchor="middle" class="highcharts-title"  style="color:black;font-size:16px;font-weight:bold;fill:black;width:520px;" y="22"><tspan>World's largest cities per 2014</tspan></text><text x="292" text-anchor="middle" class="highcharts-subtitle"  style="color:black;fill:black;width:520px;" y="43"><tspan>Source: </tspan><tspan onclick="location.href=&quot;http://en.wikipedia.org/wiki/List_of_cities_proper_by_population&quot;" style="cursor: pointer; " dx="0">Wikipedia</tspan></text><g class="highcharts-data-labels highcharts-tracker" visibility="visible"  transform="translate(61,58) scale(1 1)" style=""><text x="17.3" y="23.5" r="0" padding="5"  transform="translate(0,0) rotate(-90 17.3 23.5)" style="color: rgb(255, 255, 255); font-size: 13px; font-weight: bold; font-family: verdana, sans-serif; fill: #ffffff; text-shadow: rgb(0, 0, 0) 0px 0px 6px, rgb(0, 0, 0) 0px 0px 3px; " text-anchor="end"><tspan>23.7</tspan></text><text x="42.3" y="100.5" r="0" padding="5"  transform="translate(0,0) rotate(-90 42.3 100.5)" style="color: rgb(255, 255, 255); font-size: 13px; font-weight: bold; font-family: verdana, sans-serif; fill: #ffffff; text-shadow: rgb(0, 0, 0) 0px 0px 6px, rgb(0, 0, 0) 0px 0px 3px; " text-anchor="end"><tspan>16.1</tspan></text><text x="68.3" y="120.5" r="0" padding="5"  transform="translate(0,0) rotate(-90 68.3 120.5)" style="color: rgb(255, 255, 255); font-size: 13px; font-weight: bold; font-family: verdana, sans-serif; fill: #ffffff; text-shadow: rgb(0, 0, 0) 0px 0px 6px, rgb(0, 0, 0) 0px 0px 3px; " text-anchor="end"><tspan>14.2</tspan></text><text x="94.3" y="122.5" r="0" padding="5"  transform="translate(0,0) rotate(-90 94.3 122.5)" style="color: rgb(255, 255, 255); font-size: 13px; font-weight: bold; font-family: verdana, sans-serif; fill: #ffffff; text-shadow: rgb(0, 0, 0) 0px 0px 6px, rgb(0, 0, 0) 0px 0px 3px; " text-anchor="end"><tspan>14.0</tspan></text><text x="119.3" y="137.5" r="0" padding="5"  transform="translate(0,0) rotate(-90 119.3 137.5)" style="color: rgb(255, 255, 255); font-size: 13px; font-weight: bold; font-family: verdana, sans-serif; fill: #ffffff; text-shadow: rgb(0, 0, 0) 0px 0px 6px, rgb(0, 0, 0) 0px 0px 3px; " text-anchor="end"><tspan>12.5</tspan></text><text x="145.3" y="141.5" r="0" padding="5"  transform="translate(0,0) rotate(-90 145.3 141.5)" style="color: rgb(255, 255, 255); font-size: 13px; font-weight: bold; font-family: verdana, sans-serif; fill: #ffffff; text-shadow: rgb(0, 0, 0) 0px 0px 6px, rgb(0, 0, 0) 0px 0px 3px; " text-anchor="end"><tspan>12.1</tspan></text><text x="171.3" y="144.5" r="0" padding="5"  transform="translate(0,0) rotate(-90 171.3 144.5)" style="color: rgb(255, 255, 255); font-size: 13px; font-weight: bold; font-family: verdana, sans-serif; fill: #ffffff; text-shadow: rgb(0, 0, 0) 0px 0px 6px, rgb(0, 0, 0) 0px 0px 3px; " text-anchor="end"><tspan>11.8</tspan></text><text x="196.3" y="145.5" r="0" padding="5"  transform="translate(0,0) rotate(-90 196.3 145.5)" style="color: rgb(255, 255, 255); font-size: 13px; font-weight: bold; font-family: verdana, sans-serif; fill: #ffffff; text-shadow: rgb(0, 0, 0) 0px 0px 6px, rgb(0, 0, 0) 0px 0px 3px; " text-anchor="end"><tspan>11.7</tspan></text><text x="222.3" y="151.5" r="0" padding="5"  transform="translate(0,0) rotate(-90 222.3 151.5)" style="color: rgb(255, 255, 255); font-size: 13px; font-weight: bold; font-family: verdana, sans-serif; fill: #ffffff; text-shadow: rgb(0, 0, 0) 0px 0px 6px, rgb(0, 0, 0) 0px 0px 3px; " text-anchor="end"><tspan>11.1</tspan></text><text x="248.3" y="151.5" r="0" padding="5"  transform="translate(0,0) rotate(-90 248.3 151.5)" style="color: rgb(255, 255, 255); font-size: 13px; font-weight: bold; font-family: verdana, sans-serif; fill: #ffffff; text-shadow: rgb(0, 0, 0) 0px 0px 6px, rgb(0, 0, 0) 0px 0px 3px; " text-anchor="end"><tspan>11.1</tspan></text><text x="273.3" y="157.5" r="0" padding="5"  transform="translate(0,0) rotate(-90 273.3 157.5)" style="color: rgb(255, 255, 255); font-size: 13px; font-weight: bold; font-family: verdana, sans-serif; fill: #ffffff; text-shadow: rgb(0, 0, 0) 0px 0px 6px, rgb(0, 0, 0) 0px 0px 3px; " text-anchor="end"><tspan>10.5</tspan></text><text x="299.3" y="158.5" r="0" padding="5"  transform="translate(0,0) rotate(-90 299.3 158.5)" style="color: rgb(255, 255, 255); font-size: 13px; font-weight: bold; font-family: verdana, sans-serif; fill: #ffffff; text-shadow: rgb(0, 0, 0) 0px 0px 6px, rgb(0, 0, 0) 0px 0px 3px; " text-anchor="end"><tspan>10.4</tspan></text><text x="324.3" y="162.5" r="0" padding="5"  transform="translate(0,0) rotate(-90 324.3 162.5)" style="color: rgb(255, 255, 255); font-size: 13px; font-weight: bold; font-family: verdana, sans-serif; fill: #ffffff; text-shadow: rgb(0, 0, 0) 0px 0px 6px, rgb(0, 0, 0) 0px 0px 3px; " text-anchor="end"><tspan>10.0</tspan></text><text x="350.3" y="170.5" r="0" padding="5"  transform="translate(0,0) rotate(-90 350.3 170.5)" style="color: rgb(255, 255, 255); font-size: 13px; font-weight: bold; font-family: verdana, sans-serif; fill: #ffffff; text-shadow: rgb(0, 0, 0) 0px 0px 6px, rgb(0, 0, 0) 0px 0px 3px; " text-anchor="end"><tspan>9.3</tspan></text><text x="376.3" y="170.5" r="0" padding="5"  transform="translate(0,0) rotate(-90 376.3 170.5)" style="color: rgb(255, 255, 255); font-size: 13px; font-weight: bold; font-family: verdana, sans-serif; fill: #ffffff; text-shadow: rgb(0, 0, 0) 0px 0px 6px, rgb(0, 0, 0) 0px 0px 3px; " text-anchor="end"><tspan>9.3</tspan></text><text x="401.3" y="173.5" r="0" padding="5"  transform="translate(0,0) rotate(-90 401.3 173.5)" style="color: rgb(255, 255, 255); font-size: 13px; font-weight: bold; font-family: verdana, sans-serif; fill: #ffffff; text-shadow: rgb(0, 0, 0) 0px 0px 6px, rgb(0, 0, 0) 0px 0px 3px; " text-anchor="end"><tspan>9.0</tspan></text><text x="427.3" y="174.5" r="0" padding="5"  transform="translate(0,0) rotate(-90 427.3 174.5)" style="color: rgb(255, 255, 255); font-size: 13px; font-weight: bold; font-family: verdana, sans-serif; fill: #ffffff; text-shadow: rgb(0, 0, 0) 0px 0px 6px, rgb(0, 0, 0) 0px 0px 3px; " text-anchor="end"><tspan>8.9</tspan></text><text x="453.3" y="174.5" r="0" padding="5"  transform="translate(0,0) rotate(-90 453.3 174.5)" style="color: rgb(255, 255, 255); font-size: 13px; font-weight: bold; font-family: verdana, sans-serif; fill: #ffffff; text-shadow: rgb(0, 0, 0) 0px 0px 6px, rgb(0, 0, 0) 0px 0px 3px; " text-anchor="end"><tspan>8.9</tspan></text><text x="478.3" y="174.5" r="0" padding="5"  transform="translate(0,0) rotate(-90 478.3 174.5)" style="color: rgb(255, 255, 255); font-size: 13px; font-weight: bold; font-family: verdana, sans-serif; fill: #ffffff; text-shadow: rgb(0, 0, 0) 0px 0px 6px, rgb(0, 0, 0) 0px 0px 3px; " text-anchor="end"><tspan>8.9</tspan></text><text x="504.3" y="174.5" r="0" padding="5"  transform="translate(0,0) rotate(-90 504.3 174.5)" style="color: rgb(255, 255, 255); font-size: 13px; font-weight: bold; font-family: verdana, sans-serif; fill: #ffffff; text-shadow: rgb(0, 0, 0) 0px 0px 6px, rgb(0, 0, 0) 0px 0px 3px; " text-anchor="end"><tspan>8.9</tspan></text></g><g class="highcharts-axis-labels highcharts-xaxis-labels" ><text x="76.8" style="color:#6e6e70;cursor:default;font-size:13px;font-family:verdana, sans-serif;fill:#6e6e70;width:400px;text-overflow:ellipsis;" text-anchor="end" transform="translate(0,0) rotate(-45 76.8 329)" y="329" opacity="1"><tspan>Shanghai</tspan></text><text x="102.5" style="color:#6e6e70;cursor:default;font-size:13px;font-family:verdana, sans-serif;fill:#6e6e70;width:400px;text-overflow:ellipsis;" text-anchor="end" transform="translate(0,0) rotate(-45 102.5 329)" y="329" opacity="1"><tspan>Lagos</tspan></text><text x="128.1" style="color:#6e6e70;cursor:default;font-size:13px;font-family:verdana, sans-serif;fill:#6e6e70;width:400px;text-overflow:ellipsis;" text-anchor="end" transform="translate(0,0) rotate(-45 128.1 329)" y="329" opacity="1"><tspan>Instanbul</tspan></text><text x="153.8" style="color:#6e6e70;cursor:default;font-size:13px;font-family:verdana, sans-serif;fill:#6e6e70;width:400px;text-overflow:ellipsis;" text-anchor="end" transform="translate(0,0) rotate(-45 153.8 329)" y="329" opacity="1"><tspan>Karachi</tspan></text><text x="179.4" style="color:#6e6e70;cursor:default;font-size:13px;font-family:verdana, sans-serif;fill:#6e6e70;width:400px;text-overflow:ellipsis;" text-anchor="end" transform="translate(0,0) rotate(-45 179.4 329)" y="329" opacity="1"><tspan>Mumbai</tspan></text><text x="205.1" style="color:#6e6e70;cursor:default;font-size:13px;font-family:verdana, sans-serif;fill:#6e6e70;width:400px;text-overflow:ellipsis;" text-anchor="end" transform="translate(0,0) rotate(-45 205.1 329)" y="329" opacity="1"><tspan>Moscow</tspan></text><text x="230.7" style="color:#6e6e70;cursor:default;font-size:13px;font-family:verdana, sans-serif;fill:#6e6e70;width:400px;text-overflow:ellipsis;" text-anchor="end" transform="translate(0,0) rotate(-45 230.7 329)" y="329" opacity="1"><tspan>São Paulo</tspan></text><text x="256.4" style="color:#6e6e70;cursor:default;font-size:13px;font-family:verdana, sans-serif;fill:#6e6e70;width:400px;text-overflow:ellipsis;" text-anchor="end" transform="translate(0,0) rotate(-45 256.4 329)" y="329" opacity="1"><tspan>Beijing</tspan></text><text x="282.0" style="color:#6e6e70;cursor:default;font-size:13px;font-family:verdana, sans-serif;fill:#6e6e70;width:400px;text-overflow:ellipsis;" text-anchor="end" transform="translate(0,0) rotate(-45 282.0 329)" y="329" opacity="1"><tspan>Guangzhou</tspan></text><text x="307.7" style="color:#6e6e70;cursor:default;font-size:13px;font-family:verdana, sans-serif;fill:#6e6e70;width:400px;text-overflow:ellipsis;" text-anchor="end" transform="translate(0,0) rotate(-45 307.7 329)" y="329" opacity="1"><tspan>Delhi</tspan></text><text x="333.3" style="color:#6e6e70;cursor:default;font-size:13px;font-family:verdana, sans-serif;fill:#6e6e70;width:400px;text-overflow:ellipsis;" text-anchor="end" transform="translate(0,0) rotate(-45 333.3 329)" y="329" opacity="1"><tspan>Shenzhen</tspan></text><text x="359.0" style="color:#6e6e70;cursor:default;font-size:13px;font-family:verdana, sans-serif;fill:#6e6e70;width:400px;text-overflow:ellipsis;" text-anchor="end" transform="translate(0,0) rotate(-45 359.0 329)" y="329" opacity="1"><tspan>Seoul</tspan></text><text x="384.6" style="color:#6e6e70;cursor:default;font-size:13px;font-family:verdana, sans-serif;fill:#6e6e70;width:400px;text-overflow:ellipsis;" text-anchor="end" transform="translate(0,0) rotate(-45 384.6 329)" y="329" opacity="1"><tspan>Jakarta</tspan></text><text x="410.3" style="color:#6e6e70;cursor:default;font-size:13px;font-family:verdana, sans-serif;fill:#6e6e70;width:400px;text-overflow:ellipsis;" text-anchor="end" transform="translate(0,0) rotate(-45 410.3 329)" y="329" opacity="1"><tspan>Kinshasa</tspan></text><text x="435.9" style="color:#6e6e70;cursor:default;font-size:13px;font-family:verdana, sans-serif;fill:#6e6e70;width:400px;text-overflow:ellipsis;" text-anchor="end" transform="translate(0,0) rotate(-45 435.9 329)" y="329" opacity="1"><tspan>Tianjin</tspan></text><text x="461.6" style="color:#6e6e70;cursor:default;font-size:13px;font-family:verdana, sans-serif;fill:#6e6e70;width:400px;text-overflow:ellipsis;" text-anchor="end" transform="translate(0,0) rotate(-45 461.6 329)" y="329" opacity="1"><tspan>Tokyo</tspan></text><text x="487.2" style="color:#6e6e70;cursor:default;font-size:13px;font-family:verdana, sans-serif;fill:#6e6e70;width:400px;text-overflow:ellipsis;" text-anchor="end" transform="translate(0,0) rotate(-45 487.2 329)" y="329" opacity="1"><tspan>Cairo</tspan></text><text x="512.9" style="color:#6e6e70;cursor:default;font-size:13px;font-family:verdana, sans-serif;fill:#6e6e70;width:400px;text-overflow:ellipsis;" text-anchor="end" transform="translate(0,0) rotate(-45 512.9 329)" y="329" opacity="1"><tspan>Dhaka</tspan></text><text x="538.5" style="color:#6e6e70;cursor:default;font-size:13px;font-family:verdana, sans-serif;fill:#6e6e70;width:400px;text-overflow:ellipsis;" text-anchor="end" transform="translate(0,0) rotate(-45 538.5 329)" y="329" opacity="1"><tspan>Mexico City</tspan></text><text x="564.2" style="color:#6e6e70;cursor:default;font-size:13px;font-family:verdana, sans-serif;fill:#6e6e70;width:400px;text-overflow:ellipsis;" text-anchor="end" transform="translate(0,0) rotate(-45 564.2 329)" y="329" opacity="1"><tspan>Lima</tspan></text></g><g class="highcharts-axis-labels highcharts-yaxis-labels" ><text x="46" style="color:#6e6e70;cursor:default;font-size:11px;fill:#6e6e70;width:183px;text-overflow:clip;" text-anchor="end" transform="translate(0,0)" y="317" opacity="1">0</text><text x="46" style="color:#6e6e70;cursor:default;font-size:11px;fill:#6e6e70;width:183px;text-overflow:clip;" text-anchor="end" transform="translate(0,0)" y="266" opacity="1">5</text><text x="46" style="color:#6e6e70;cursor:default;font-size:11px;fill:#6e6e70;width:183px;text-overflow:clip;" text-anchor="end" transform="translate(0,0)" y="215" opacity="1">10</text><text x="46" style="color:#6e6e70;cursor:default;font-size:11px;fill:#6e6e70;width:183px;text-overflow:clip;" text-anchor="end" transform="translate(0,0)" y="164" opacity="1">15</text><text x="46" style="color:#6e6e70;cursor:default;font-size:11px;fill:#6e6e70;width:183px;text-overflow:clip;" text-anchor="end" transform="translate(0,0)" y="113" opacity="1">20</text><text x="46" style="color:#6e6e70;cursor:default;font-size:11px;fill:#6e6e70;width:183px;text-overflow:clip;" text-anchor="end" transform="translate(0,0)" y="63" opacity="1">25</text></g><g class="highcharts-tooltip"  style="cursor:default;padding:0;white-space:nowrap;" transform="translate(0,-9999)"><path fill="none" d="M 3 0 L 13 0 C 16 0 16 0 16 3 L 16 13 C 16 16 16 16 13 16 L 3 16 C 0 16 0 16 0 13 L 0 3 C 0 0 0 0 3 0"  stroke="black" stroke-opacity="0.0" stroke-width="5" transform="translate(1, 1)"></path><path fill="none" d="M 3 0 L 13 0 C 16 0 16 0 16 3 L 16 13 C 16 16 16 16 13 16 L 3 16 C 0 16 0 16 0 13 L 0 3 C 0 0 0 0 3 0"  stroke="black" stroke-opacity="0.0" stroke-width="3" transform="translate(1, 1)"></path><path fill="none" d="M 3 0 L 13 0 C 16 0 16 0 16 3 L 16 13 C 16 16 16 16 13 16 L 3 16 C 0 16 0 16 0 13 L 0 3 C 0 0 0 0 3 0"  stroke="black" stroke-opacity="0.1" stroke-width="1" transform="translate(1, 1)"></path><path fill="rgb(249, 249, 249)" fill-opacity=" .85" d="M 3 0 L 13 0 C 16 0 16 0 16 3 L 16 13 C 16 16 16 16 13 16 L 3 16 C 0 16 0 16 0 13 L 0 3 C 0 0 0 0 3 0"></path><text x="8"  style="font-size:12px;color:#333333;fill:#333333;" transform="translate(0,20)"></text></g></svg>