<svg version="1.1" style="font-family: signika, serif; font-size: 12px; background-image: url(http://www.highcharts.com/samples/graphics/sand.png); background-attachment: initial; background-origin: initial; background-clip: initial; background-color: initial; background-position: initial initial; background-repeat: initial initial; " xmlns="http://www.w3.org/2000/svg" width="584" height="400" viewBox="0 0 584 400" xmlns:xlink="http://www.w3.org/1999/xlink"><style type="text/css"><![CDATA[@import url(http://fonts.googleapis.com/css?family=Signika:700);]]></style><desc>Created with Highcharts 4.1.4</desc><defs><clipPath id="highcharts-1"><rect x="0" y="0" width="425" height="306"></rect></clipPath><clipPath id="highcharts-2"><rect x="-99" y="-58" width="524" height="400"></rect></clipPath><clipPath id="highcharts-3"><rect x="0" y="0" width="425" height="306"></rect></clipPath></defs><g class="highcharts-grid" ></g><g class="highcharts-grid" ><path fill="none" d="M 73 364.5 L 498 364.5" stroke="#D8D8D8" stroke-width="1"  opacity="1"></path><path fill="none" d="M 73 303.5 L 498 303.5" stroke="#D8D8D8" stroke-width="1"  opacity="1"></path><path fill="none" d="M 73 242.5 L 498 242.5" stroke="#D8D8D8" stroke-width="1"  opacity="1"></path><path fill="none" d="M 73 180.5 L 498 180.5" stroke="#D8D8D8" stroke-width="1"  opacity="1"></path><path fill="none" d="M 73 119.5 L 498 119.5" stroke="#D8D8D8" stroke-width="1"  opacity="1"></path><path fill="none" d="M 73 57.5 L 498 57.5" stroke="#D8D8D8" stroke-width="1"  opacity="1"></path></g><g class="highcharts-grid" ><path fill="none" d="M 73 364.5 L 498 364.5" stroke="#D8D8D8" stroke-width="1"  opacity="1"></path><path fill="none" d="M 73 303.5 L 498 303.5" stroke="#D8D8D8" stroke-width="1"  opacity="1"></path><path fill="none" d="M 73 242.5 L 498 242.5" stroke="#D8D8D8" stroke-width="1"  opacity="1"></path><path fill="none" d="M 73 180.5 L 498 180.5" stroke="#D8D8D8" stroke-width="1"  opacity="1"></path><path fill="none" d="M 73 119.5 L 498 119.5" stroke="#D8D8D8" stroke-width="1"  opacity="1"></path><path fill="none" d="M 73 57.5 L 498 57.5" stroke="#D8D8D8" stroke-width="1"  opacity="1"></path></g><g class="highcharts-axis" ><path fill="none" d="M 107.5 364 L 107.5 374" stroke="#C0D0E0" stroke-width="1" opacity="1"></path><path fill="none" d="M 143.5 364 L 143.5 374" stroke="#C0D0E0" stroke-width="1" opacity="1"></path><path fill="none" d="M 178.5 364 L 178.5 374" stroke="#C0D0E0" stroke-width="1" opacity="1"></path><path fill="none" d="M 214.5 364 L 214.5 374" stroke="#C0D0E0" stroke-width="1" opacity="1"></path><path fill="none" d="M 249.5 364 L 249.5 374" stroke="#C0D0E0" stroke-width="1" opacity="1"></path><path fill="none" d="M 285.5 364 L 285.5 374" stroke="#C0D0E0" stroke-width="1" opacity="1"></path><path fill="none" d="M 320.5 364 L 320.5 374" stroke="#C0D0E0" stroke-width="1" opacity="1"></path><path fill="none" d="M 355.5 364 L 355.5 374" stroke="#C0D0E0" stroke-width="1" opacity="1"></path><path fill="none" d="M 391.5 364 L 391.5 374" stroke="#C0D0E0" stroke-width="1" opacity="1"></path><path fill="none" d="M 426.5 364 L 426.5 374" stroke="#C0D0E0" stroke-width="1" opacity="1"></path><path fill="none" d="M 462.5 364 L 462.5 374" stroke="#C0D0E0" stroke-width="1" opacity="1"></path><path fill="none" d="M 497.5 364 L 497.5 374" stroke="#C0D0E0" stroke-width="1" opacity="1"></path><path fill="none" d="M 72.5 364 L 72.5 374" stroke="#C0D0E0" stroke-width="1" opacity="1"></path><path fill="none" d="M 73 364.5 L 498 364.5" stroke="#C0D0E0" stroke-width="1"  visibility="visible"></path></g><g class="highcharts-axis" ><text x="24"  text-anchor="middle" transform="translate(0,0) rotate(270 24 211)" class=" highcharts-yaxis-title" style="color:#8085e9;fill:#8085e9;" visibility="visible" y="211">Temperature</text></g><g class="highcharts-axis" ><text x="560"  text-anchor="middle" transform="translate(0,0) rotate(90 560 211)" class=" highcharts-yaxis-title" style="color:#f45b5b;fill:#f45b5b;" visibility="visible" y="211">Rainfall</text></g><g class="highcharts-series-group" ><g class="highcharts-series highcharts-tracker" visibility="visible"  transform="translate(73,58) scale(1 1)" style="" clip-path="url(#highcharts-1)"><rect x="8.5" y="245.5" width="17" height="61" stroke="black" stroke-width="5" fill="none" rx="0" ry="0"  stroke-opacity="0.0" transform="translate(1, 1)"></rect><rect x="8.5" y="245.5" width="17" height="61" stroke="black" stroke-width="3" fill="none" rx="0" ry="0"  stroke-opacity="0.0" transform="translate(1, 1)"></rect><rect x="8.5" y="245.5" width="17" height="61" stroke="black" stroke-width="1" fill="none" rx="0" ry="0"  stroke-opacity="0.1" transform="translate(1, 1)"></rect><rect x="8.5" y="245.5" width="17" height="61" stroke="#FFFFFF" stroke-width="1" fill="#f45b5b" rx="0" ry="0"></rect><rect x="44.5" y="218.5" width="17" height="88" stroke="black" stroke-width="5" fill="none" rx="0" ry="0"  stroke-opacity="0.0" transform="translate(1, 1)"></rect><rect x="44.5" y="218.5" width="17" height="88" stroke="black" stroke-width="3" fill="none" rx="0" ry="0"  stroke-opacity="0.0" transform="translate(1, 1)"></rect><rect x="44.5" y="218.5" width="17" height="88" stroke="black" stroke-width="1" fill="none" rx="0" ry="0"  stroke-opacity="0.1" transform="translate(1, 1)"></rect><rect x="44.5" y="218.5" width="17" height="88" stroke="#FFFFFF" stroke-width="1" fill="#f45b5b" rx="0" ry="0"></rect><rect x="79.5" y="176.5" width="17" height="130" stroke="black" stroke-width="5" fill="none" rx="0" ry="0"  stroke-opacity="0.0" transform="translate(1, 1)"></rect><rect x="79.5" y="176.5" width="17" height="130" stroke="black" stroke-width="3" fill="none" rx="0" ry="0"  stroke-opacity="0.0" transform="translate(1, 1)"></rect><rect x="79.5" y="176.5" width="17" height="130" stroke="black" stroke-width="1" fill="none" rx="0" ry="0"  stroke-opacity="0.1" transform="translate(1, 1)"></rect><rect x="79.5" y="176.5" width="17" height="130" stroke="#FFFFFF" stroke-width="1" fill="#f45b5b" rx="0" ry="0"></rect><rect x="114.5" y="148.5" width="17" height="158" stroke="black" stroke-width="5" fill="none" rx="0" ry="0"  stroke-opacity="0.0" transform="translate(1, 1)"></rect><rect x="114.5" y="148.5" width="17" height="158" stroke="black" stroke-width="3" fill="none" rx="0" ry="0"  stroke-opacity="0.0" transform="translate(1, 1)"></rect><rect x="114.5" y="148.5" width="17" height="158" stroke="black" stroke-width="1" fill="none" rx="0" ry="0"  stroke-opacity="0.1" transform="translate(1, 1)"></rect><rect x="114.5" y="148.5" width="17" height="158" stroke="#FFFFFF" stroke-width="1" fill="#f45b5b" rx="0" ry="0"></rect><rect x="150.5" y="130.5" width="17" height="176" stroke="black" stroke-width="5" fill="none" rx="0" ry="0"  stroke-opacity="0.0" transform="translate(1, 1)"></rect><rect x="150.5" y="130.5" width="17" height="176" stroke="black" stroke-width="3" fill="none" rx="0" ry="0"  stroke-opacity="0.0" transform="translate(1, 1)"></rect><rect x="150.5" y="130.5" width="17" height="176" stroke="black" stroke-width="1" fill="none" rx="0" ry="0"  stroke-opacity="0.1" transform="translate(1, 1)"></rect><rect x="150.5" y="130.5" width="17" height="176" stroke="#FFFFFF" stroke-width="1" fill="#f45b5b" rx="0" ry="0"></rect><rect x="185.5" y="91.5" width="17" height="215" stroke="black" stroke-width="5" fill="none" rx="0" ry="0"  stroke-opacity="0.0" transform="translate(1, 1)"></rect><rect x="185.5" y="91.5" width="17" height="215" stroke="black" stroke-width="3" fill="none" rx="0" ry="0"  stroke-opacity="0.0" transform="translate(1, 1)"></rect><rect x="185.5" y="91.5" width="17" height="215" stroke="black" stroke-width="1" fill="none" rx="0" ry="0"  stroke-opacity="0.1" transform="translate(1, 1)"></rect><rect x="185.5" y="91.5" width="17" height="215" stroke="#FFFFFF" stroke-width="1" fill="#f45b5b" rx="0" ry="0"></rect><rect x="221.5" y="140.5" width="17" height="166" stroke="black" stroke-width="5" fill="none" rx="0" ry="0"  stroke-opacity="0.0" transform="translate(1, 1)"></rect><rect x="221.5" y="140.5" width="17" height="166" stroke="black" stroke-width="3" fill="none" rx="0" ry="0"  stroke-opacity="0.0" transform="translate(1, 1)"></rect><rect x="221.5" y="140.5" width="17" height="166" stroke="black" stroke-width="1" fill="none" rx="0" ry="0"  stroke-opacity="0.1" transform="translate(1, 1)"></rect><rect x="221.5" y="140.5" width="17" height="166" stroke="#FFFFFF" stroke-width="1" fill="#f45b5b" rx="0" ry="0"></rect><rect x="256.5" y="124.5" width="17" height="182" stroke="black" stroke-width="5" fill="none" rx="0" ry="0"  stroke-opacity="0.0" transform="translate(1, 1)"></rect><rect x="256.5" y="124.5" width="17" height="182" stroke="black" stroke-width="3" fill="none" rx="0" ry="0"  stroke-opacity="0.0" transform="translate(1, 1)"></rect><rect x="256.5" y="124.5" width="17" height="182" stroke="black" stroke-width="1" fill="none" rx="0" ry="0"  stroke-opacity="0.1" transform="translate(1, 1)"></rect><rect x="256.5" y="124.5" width="17" height="182" stroke="#FFFFFF" stroke-width="1" fill="#f45b5b" rx="0" ry="0"></rect><rect x="292.5" y="41.5" width="17" height="265" stroke="black" stroke-width="5" fill="none" rx="0" ry="0"  stroke-opacity="0.0" transform="translate(1, 1)"></rect><rect x="292.5" y="41.5" width="17" height="265" stroke="black" stroke-width="3" fill="none" rx="0" ry="0"  stroke-opacity="0.0" transform="translate(1, 1)"></rect><rect x="292.5" y="41.5" width="17" height="265" stroke="black" stroke-width="1" fill="none" rx="0" ry="0"  stroke-opacity="0.1" transform="translate(1, 1)"></rect><rect x="292.5" y="41.5" width="17" height="265" stroke="#FFFFFF" stroke-width="1" fill="#f45b5b" rx="0" ry="0"></rect><rect x="327.5" y="68.5" width="17" height="238" stroke="black" stroke-width="5" fill="none" rx="0" ry="0"  stroke-opacity="0.0" transform="translate(1, 1)"></rect><rect x="327.5" y="68.5" width="17" height="238" stroke="black" stroke-width="3" fill="none" rx="0" ry="0"  stroke-opacity="0.0" transform="translate(1, 1)"></rect><rect x="327.5" y="68.5" width="17" height="238" stroke="black" stroke-width="1" fill="none" rx="0" ry="0"  stroke-opacity="0.1" transform="translate(1, 1)"></rect><rect x="327.5" y="68.5" width="17" height="238" stroke="#FFFFFF" stroke-width="1" fill="#f45b5b" rx="0" ry="0"></rect><rect x="362.5" y="189.5" width="17" height="117" stroke="black" stroke-width="5" fill="none" rx="0" ry="0"  stroke-opacity="0.0" transform="translate(1, 1)"></rect><rect x="362.5" y="189.5" width="17" height="117" stroke="black" stroke-width="3" fill="none" rx="0" ry="0"  stroke-opacity="0.0" transform="translate(1, 1)"></rect><rect x="362.5" y="189.5" width="17" height="117" stroke="black" stroke-width="1" fill="none" rx="0" ry="0"  stroke-opacity="0.1" transform="translate(1, 1)"></rect><rect x="362.5" y="189.5" width="17" height="117" stroke="#FFFFFF" stroke-width="1" fill="#f45b5b" rx="0" ry="0"></rect><rect x="398.5" y="239.5" width="17" height="67" stroke="black" stroke-width="5" fill="none" rx="0" ry="0"  stroke-opacity="0.0" transform="translate(1, 1)"></rect><rect x="398.5" y="239.5" width="17" height="67" stroke="black" stroke-width="3" fill="none" rx="0" ry="0"  stroke-opacity="0.0" transform="translate(1, 1)"></rect><rect x="398.5" y="239.5" width="17" height="67" stroke="black" stroke-width="1" fill="none" rx="0" ry="0"  stroke-opacity="0.1" transform="translate(1, 1)"></rect><rect x="398.5" y="239.5" width="17" height="67" stroke="#FFFFFF" stroke-width="1" fill="#f45b5b" rx="0" ry="0"></rect></g><g class="highcharts-markers" visibility="visible"  transform="translate(73,58) scale(1 1)"></g><g class="highcharts-series" visibility="visible"  transform="translate(73,58) scale(1 1)" clip-path="url(#highcharts-3)"><path fill="none" d="M 17.7 281.5 C 17.7 281.5 38.9 282.7 53.1 282.7 C 67.2 282.7 74.3 269.5 88.5 250.9 C 102.7 232.3 109.7 211.0 123.9 189.7 C 138.1 168.4 145.2 161.5 159.3 144.4 C 173.5 127.2 180.6 121.1 194.7 104.0 C 208.9 86.9 216.0 70.9 230.2 58.7 C 244.3 46.5 251.4 42.8 265.6 42.8 C 279.7 42.8 286.8 61.9 301.0 82.0 C 315.2 102.0 322.2 120.1 336.4 143.2 C 350.6 166.2 357.7 175.7 371.8 197.0 C 386.0 218.3 407.2 249.6 407.2 249.6" stroke="black" stroke-width="5"  stroke-linejoin="round" stroke-linecap="round"  stroke-opacity="0.0" transform="translate(1, 1)"></path><path fill="none" d="M 17.7 281.5 C 17.7 281.5 38.9 282.7 53.1 282.7 C 67.2 282.7 74.3 269.5 88.5 250.9 C 102.7 232.3 109.7 211.0 123.9 189.7 C 138.1 168.4 145.2 161.5 159.3 144.4 C 173.5 127.2 180.6 121.1 194.7 104.0 C 208.9 86.9 216.0 70.9 230.2 58.7 C 244.3 46.5 251.4 42.8 265.6 42.8 C 279.7 42.8 286.8 61.9 301.0 82.0 C 315.2 102.0 322.2 120.1 336.4 143.2 C 350.6 166.2 357.7 175.7 371.8 197.0 C 386.0 218.3 407.2 249.6 407.2 249.6" stroke="black" stroke-width="3"  stroke-linejoin="round" stroke-linecap="round"  stroke-opacity="0.0" transform="translate(1, 1)"></path><path fill="none" d="M 17.7 281.5 C 17.7 281.5 38.9 282.7 53.1 282.7 C 67.2 282.7 74.3 269.5 88.5 250.9 C 102.7 232.3 109.7 211.0 123.9 189.7 C 138.1 168.4 145.2 161.5 159.3 144.4 C 173.5 127.2 180.6 121.1 194.7 104.0 C 208.9 86.9 216.0 70.9 230.2 58.7 C 244.3 46.5 251.4 42.8 265.6 42.8 C 279.7 42.8 286.8 61.9 301.0 82.0 C 315.2 102.0 322.2 120.1 336.4 143.2 C 350.6 166.2 357.7 175.7 371.8 197.0 C 386.0 218.3 407.2 249.6 407.2 249.6" stroke="black" stroke-width="1"  stroke-linejoin="round" stroke-linecap="round"  stroke-opacity="0.1" transform="translate(1, 1)"></path><path fill="none" d="M 17.7 281.5 C 17.7 281.5 38.9 282.7 53.1 282.7 C 67.2 282.7 74.3 269.5 88.5 250.9 C 102.7 232.3 109.7 211.0 123.9 189.7 C 138.1 168.4 145.2 161.5 159.3 144.4 C 173.5 127.2 180.6 121.1 194.7 104.0 C 208.9 86.9 216.0 70.9 230.2 58.7 C 244.3 46.5 251.4 42.8 265.6 42.8 C 279.7 42.8 286.8 61.9 301.0 82.0 C 315.2 102.0 322.2 120.1 336.4 143.2 C 350.6 166.2 357.7 175.7 371.8 197.0 C 386.0 218.3 407.2 249.6 407.2 249.6" stroke="#8085e9" stroke-width="2"  stroke-linejoin="round" stroke-linecap="round"></path><path fill="none" d="M 7.7 281.5 L 17.7 281.5 C 17.7 281.5 38.9 282.7 53.1 282.7 C 67.2 282.7 74.3 269.5 88.5 250.9 C 102.7 232.3 109.7 211.0 123.9 189.7 C 138.1 168.4 145.2 161.5 159.3 144.4 C 173.5 127.2 180.6 121.1 194.7 104.0 C 208.9 86.9 216.0 70.9 230.2 58.7 C 244.3 46.5 251.4 42.8 265.6 42.8 C 279.7 42.8 286.8 61.9 301.0 82.0 C 315.2 102.0 322.2 120.1 336.4 143.2 C 350.6 166.2 357.7 175.7 371.8 197.0 C 386.0 218.3 407.2 249.6 407.2 249.6 L 417.2 249.6" stroke-linejoin="round" visibility="visible" stroke="rgb(192,192,192)" stroke-opacity="0.0" stroke-width="22"  class=" highcharts-tracker" style=""></path></g><g class="highcharts-markers highcharts-tracker" visibility="visible"  transform="translate(73,58) scale(1 1)" clip-path="url(#highcharts-2)" style=""><path fill="#8085e9" d="M 407 245.6 C 412.3 245.6 412.3 253.6 407 253.6 C 401.6 253.6 401.6 245.6 407 245.6 Z"></path><path fill="#8085e9" d="M 371 193.0 C 376.3 193.0 376.3 201.0 371 201.0 C 365.6 201.0 365.6 193.0 371 193.0 Z"></path><path fill="#8085e9" d="M 336 139.2 C 341.3 139.2 341.3 147.2 336 147.2 C 330.6 147.2 330.6 139.2 336 139.2 Z"></path><path fill="#8085e9" d="M 301 78.0 C 306.3 78.0 306.3 86.0 301 86.0 C 295.6 86.0 295.6 78.0 301 78.0 Z"></path><path fill="#8085e9" d="M 265 38.8 C 270.3 38.8 270.3 46.8 265 46.8 C 259.6 46.8 259.6 38.8 265 38.8 Z"></path><path fill="#8085e9" d="M 230 54.7 C 235.3 54.7 235.3 62.7 230 62.7 C 224.6 62.7 224.6 54.7 230 54.7 Z"></path><path fill="#8085e9" d="M 194 100.0 C 199.3 100.0 199.3 108.0 194 108.0 C 188.6 108.0 188.6 100.0 194 100.0 Z"></path><path fill="#8085e9" d="M 159 140.4 C 164.3 140.4 164.3 148.4 159 148.4 C 153.6 148.4 153.6 140.4 159 140.4 Z"></path><path fill="#8085e9" d="M 123 185.7 C 128.3 185.7 128.3 193.7 123 193.7 C 117.6 193.7 117.6 185.7 123 185.7 Z"></path><path fill="#8085e9" d="M 88 246.9 C 93.3 246.9 93.3 254.9 88 254.9 C 82.6 254.9 82.6 246.9 88 246.9 Z"></path><path fill="#8085e9" d="M 53 278.7 C 58.3 278.7 58.3 286.7 53 286.7 C 47.6 286.7 47.6 278.7 53 278.7 Z"></path><path fill="#8085e9" d="M 17 277.5 C 22.3 277.5 22.3 285.5 17 285.5 C 11.6 285.5 11.6 277.5 17 277.5 Z"></path></g></g><text x="292" text-anchor="middle" class="highcharts-title"  style="color:black;font-size:16px;font-weight:bold;fill:black;width:520px;" y="22"><tspan>Average Monthly Temperature and Rainfall in Tokyo</tspan></text><text x="292" text-anchor="middle" class="highcharts-subtitle"  style="color:black;fill:black;width:520px;" y="43"><tspan>Source: WorldClimate.com</tspan></text><g class="highcharts-legend"  transform="translate(130,110)"><rect x="0" y="0" width="121" height="43" strokeWidth="0" fill="#FFFFFF" visibility="visible"></rect><g ><g><g class="highcharts-legend-item"  transform="translate(8,3)"><text x="21" style="color:#333333;font-size:13px;font-weight:bold;cursor:pointer;fill:#333333;" text-anchor="start"  y="16">Rainfall</text><rect x="0" y="5" width="16" height="12"  fill="#f45b5b"></rect></g><g class="highcharts-legend-item"  transform="translate(8,19)"><path fill="none" d="M 0 12 L 16 12" stroke="#8085e9" stroke-width="2"></path><path fill="#8085e9" d="M 8 8 C 13.3 8 13.3 16 8 16 C 2.6 16 2.6 8 8 8 Z"></path><text x="21" y="16" style="color:#333333;font-size:13px;font-weight:bold;cursor:pointer;fill:#333333;" text-anchor="start" >Temperature</text></g></g></g></g><g class="highcharts-axis-labels highcharts-xaxis-labels" ><text x="90.7" style="color:#6e6e70;cursor:default;font-size:11px;fill:#6e6e70;" text-anchor="middle" transform="translate(0,0)" y="383" opacity="1">Jan</text><text x="126.1" style="color:#6e6e70;cursor:default;font-size:11px;fill:#6e6e70;" text-anchor="middle" transform="translate(0,0)" y="383" opacity="1">Feb</text><text x="161.5" style="color:#6e6e70;cursor:default;font-size:11px;fill:#6e6e70;" text-anchor="middle" transform="translate(0,0)" y="383" opacity="1">Mar</text><text x="196.9" style="color:#6e6e70;cursor:default;font-size:11px;fill:#6e6e70;" text-anchor="middle" transform="translate(0,0)" y="383" opacity="1">Apr</text><text x="232.3" style="color:#6e6e70;cursor:default;font-size:11px;fill:#6e6e70;" text-anchor="middle" transform="translate(0,0)" y="383" opacity="1">May</text><text x="267.7" style="color:#6e6e70;cursor:default;font-size:11px;fill:#6e6e70;" text-anchor="middle" transform="translate(0,0)" y="383" opacity="1">Jun</text><text x="303.2" style="color:#6e6e70;cursor:default;font-size:11px;fill:#6e6e70;" text-anchor="middle" transform="translate(0,0)" y="383" opacity="1">Jul</text><text x="338.6" style="color:#6e6e70;cursor:default;font-size:11px;fill:#6e6e70;" text-anchor="middle" transform="translate(0,0)" y="383" opacity="1">Aug</text><text x="374.0" style="color:#6e6e70;cursor:default;font-size:11px;fill:#6e6e70;" text-anchor="middle" transform="translate(0,0)" y="383" opacity="1">Sep</text><text x="409.4" style="color:#6e6e70;cursor:default;font-size:11px;fill:#6e6e70;" text-anchor="middle" transform="translate(0,0)" y="383" opacity="1">Oct</text><text x="444.8" style="color:#6e6e70;cursor:default;font-size:11px;fill:#6e6e70;" text-anchor="middle" transform="translate(0,0)" y="383" opacity="1">Nov</text><text x="480.2" style="color:#6e6e70;cursor:default;font-size:11px;fill:#6e6e70;" text-anchor="middle" transform="translate(0,0)" y="383" opacity="1">Dec</text></g><g class="highcharts-axis-labels highcharts-yaxis-labels" ><text x="58" style="color:#8085e9;cursor:default;font-size:11px;fill:#8085e9;width:183px;text-overflow:clip;" text-anchor="end" transform="translate(0,0)" y="369" opacity="1">5°C</text><text x="58" style="color:#8085e9;cursor:default;font-size:11px;fill:#8085e9;width:183px;text-overflow:clip;" text-anchor="end" transform="translate(0,0)" y="307" opacity="1">10°C</text><text x="58" style="color:#8085e9;cursor:default;font-size:11px;fill:#8085e9;width:183px;text-overflow:clip;" text-anchor="end" transform="translate(0,0)" y="246" opacity="1">15°C</text><text x="58" style="color:#8085e9;cursor:default;font-size:11px;fill:#8085e9;width:183px;text-overflow:clip;" text-anchor="end" transform="translate(0,0)" y="185" opacity="1">20°C</text><text x="58" style="color:#8085e9;cursor:default;font-size:11px;fill:#8085e9;width:183px;text-overflow:clip;" text-anchor="end" transform="translate(0,0)" y="124" opacity="1">25°C</text><text x="58" style="color:#8085e9;cursor:default;font-size:11px;fill:#8085e9;width:183px;text-overflow:clip;" text-anchor="end" transform="translate(0,0)" y="63" opacity="1">30°C</text></g><g class="highcharts-axis-labels highcharts-yaxis-labels" ><text x="513" style="color:#f45b5b;cursor:default;font-size:11px;fill:#f45b5b;width:183px;text-overflow:clip;" text-anchor="start" transform="translate(0,0)" y="369" opacity="1"><tspan>0 mm</tspan></text><text x="513" style="color:#f45b5b;cursor:default;font-size:11px;fill:#f45b5b;width:183px;text-overflow:clip;" text-anchor="start" transform="translate(0,0)" y="307" opacity="1"><tspan>50 mm</tspan></text><text x="513" style="color:#f45b5b;cursor:default;font-size:11px;fill:#f45b5b;width:183px;text-overflow:clip;" text-anchor="start" transform="translate(0,0)" y="246" opacity="1"><tspan>100 mm</tspan></text><text x="513" style="color:#f45b5b;cursor:default;font-size:11px;fill:#f45b5b;width:183px;text-overflow:clip;" text-anchor="start" transform="translate(0,0)" y="185" opacity="1"><tspan>150 mm</tspan></text><text x="513" style="color:#f45b5b;cursor:default;font-size:11px;fill:#f45b5b;width:183px;text-overflow:clip;" text-anchor="start" transform="translate(0,0)" y="124" opacity="1"><tspan>200 mm</tspan></text><text x="513" style="color:#f45b5b;cursor:default;font-size:11px;fill:#f45b5b;width:183px;text-overflow:clip;" text-anchor="start" transform="translate(0,0)" y="63" opacity="1"><tspan>250 mm</tspan></text></g><g class="highcharts-tooltip"  style="cursor:default;padding:0;white-space:nowrap;" transform="translate(0,-9999)"><path fill="none" d="M 3 0 L 13 0 C 16 0 16 0 16 3 L 16 13 C 16 16 16 16 13 16 L 3 16 C 0 16 0 16 0 13 L 0 3 C 0 0 0 0 3 0"  stroke="black" stroke-opacity="0.0" stroke-width="5" transform="translate(1, 1)"></path><path fill="none" d="M 3 0 L 13 0 C 16 0 16 0 16 3 L 16 13 C 16 16 16 16 13 16 L 3 16 C 0 16 0 16 0 13 L 0 3 C 0 0 0 0 3 0"  stroke="black" stroke-opacity="0.0" stroke-width="3" transform="translate(1, 1)"></path><path fill="none" d="M 3 0 L 13 0 C 16 0 16 0 16 3 L 16 13 C 16 16 16 16 13 16 L 3 16 C 0 16 0 16 0 13 L 0 3 C 0 0 0 0 3 0"  stroke="black" stroke-opacity="0.1" stroke-width="1" transform="translate(1, 1)"></path><path fill="rgb(249, 249, 249)" fill-opacity=" .85" d="M 3 0 L 13 0 C 16 0 16 0 16 3 L 16 13 C 16 16 16 16 13 16 L 3 16 C 0 16 0 16 0 13 L 0 3 C 0 0 0 0 3 0"></path><text x="8"  style="font-size:12px;color:#333333;fill:#333333;" transform="translate(0,20)"></text></g></svg>