<svg version="1.1" style="font-family: signika, serif; font-size: 12px; background-image: url(http://www.highcharts.com/samples/graphics/sand.png); background-attachment: initial; background-origin: initial; background-clip: initial; background-color: initial; background-position: initial initial; background-repeat: initial initial; " xmlns="http://www.w3.org/2000/svg" width="584" height="420" viewBox="0 0 584 420" xmlns:xlink="http://www.w3.org/1999/xlink"><style type="text/css"><![CDATA[@import url(http://fonts.googleapis.com/css?family=Signika:700);]]></style><desc>Created with Highstock 2.1.4</desc><defs><clipPath id="highcharts-1"><rect x="0" y="0" width="513" height="301"></rect></clipPath><clipPath id="highcharts-2"><rect x="-99" y="-44" width="612" height="420"></rect></clipPath><clipPath id="highcharts-3"><rect x="0" y="0" width="513" height="301"></rect></clipPath></defs><path fill="#EFFFFF" d="M 21.5 44 L 21.5 345 121.5 345 121.5 44 M 21.5 44 L 21.5 345 121.5 345 121.5 44"></path><text x="72" text-anchor="middle" transform="translate(0,0)" style="color:#999999;fill:#999999;" y="224" visibility="visible"><tspan style="font-style:italic">Offices:</tspan><tspan x="72" dy="15"> Torstein's basement</tspan></text><path fill="#FFFFEF" d="M 121.5 44 L 121.5 345 402.5 345 402.5 44 M 121.5 44 L 121.5 345 402.5 345 402.5 44"></path><text x="262" text-anchor="middle" transform="translate(0,0)" style="color:#999999;fill:#999999;" y="74" visibility="visible"><tspan style="font-style:italic">Offices:</tspan><tspan x="262" dy="15"> Tomtebu</tspan></text><path fill="#FFEFFF" d="M 402.5 44 L 402.5 345 517.5 345 517.5 44 M 402.5 44 L 402.5 345 517.5 345 517.5 44"></path><text x="460" text-anchor="middle" transform="translate(0,0)" style="color:#999999;fill:#999999;" y="74" visibility="visible"><tspan style="font-style:italic">Offices:</tspan><tspan x="460" dy="15"> VikØrsta</tspan></text><g class="highcharts-grid" ></g><g class="highcharts-grid" ><path fill="none" d="M 10 345.5 L 523 345.5" stroke="rgb(0, 0, 0)" stroke-opacity=" 0.0" stroke-width="1"  opacity="1"></path><path fill="none" d="M 10 285.5 L 523 285.5" stroke="rgb(0, 0, 0)" stroke-opacity=" 0.0" stroke-width="1"  opacity="1"></path><path fill="none" d="M 10 225.5 L 523 225.5" stroke="rgb(0, 0, 0)" stroke-opacity=" 0.0" stroke-width="1"  opacity="1"></path><path fill="none" d="M 10 164.5 L 523 164.5" stroke="rgb(0, 0, 0)" stroke-opacity=" 0.0" stroke-width="1"  opacity="1"></path><path fill="none" d="M 10 104.5 L 523 104.5" stroke="rgb(0, 0, 0)" stroke-opacity=" 0.0" stroke-width="1"  opacity="1"></path><path fill="none" d="M 10 43.5 L 523 43.5" stroke="rgb(0, 0, 0)" stroke-opacity=" 0.0" stroke-width="1"  opacity="1"></path></g><g class="highcharts-grid" ></g><g class="highcharts-axis" ><path fill="none" d="M 31.5 345 L 31.5 355" stroke="#C0D0E0" stroke-width="1" opacity="1"></path><path fill="none" d="M 130.5 345 L 130.5 355" stroke="#C0D0E0" stroke-width="1" opacity="1"></path><path fill="none" d="M 229.5 345 L 229.5 355" stroke="#C0D0E0" stroke-width="1" opacity="1"></path><path fill="none" d="M 328.5 345 L 328.5 355" stroke="#C0D0E0" stroke-width="1" opacity="1"></path><path fill="none" d="M 427.5 345 L 427.5 355" stroke="#C0D0E0" stroke-width="1" opacity="1"></path><path fill="none" d="M 10 345.5 L 523 345.5" stroke="#C0D0E0" stroke-width="1"  visibility="visible"></path></g><g class="highcharts-axis" ></g><g class="highcharts-axis" ><text x="560"  text-anchor="middle" transform="translate(0,0) rotate(90 560 194.5)" class=" highcharts-yaxis-title" style="color:#8d4654;fill:#8d4654;" visibility="visible" y="194.5">Employees</text></g><g class="highcharts-series-group" ><g class="highcharts-series" visibility="visible"  transform="translate(10,44) scale(1 1)" clip-path="url(#highcharts-3)"><path fill="none" d="M 9.0 301 C 9.0 301 14.0 290.1 17.3 285.9 C 20.7 281.7 22.4 279.9 25.7 279.9 C 28.9 279.9 30.5 285.9 33.8 285.9 C 37.0 285.9 38.6 284.7 41.8 282.9 C 45.1 281.1 46.7 279.9 50.0 276.9 C 53.3 273.9 55.0 267.8 58.3 267.8 C 61.6 267.8 63.3 273.9 66.6 273.9 C 69.9 273.9 71.6 267.2 74.9 264.8 C 78.3 262.4 79.9 264.8 83.3 261.8 C 86.6 258.8 88.3 249.8 91.6 249.8 C 94.9 249.8 96.6 249.8 99.9 249.8 C 103.2 249.8 104.8 248.6 108.2 246.8 C 111.5 245.0 113.1 240.8 116.4 240.8 C 119.8 240.8 121.5 240.8 124.9 240.8 C 128.1 240.8 129.7 226.9 132.9 219.7 C 136.1 212.5 137.7 204.6 140.9 204.6 C 144.2 204.6 145.9 213.7 149.2 213.7 C 152.5 213.7 154.1 198.6 157.4 198.6 C 160.8 198.6 162.4 198.6 165.7 198.6 C 169.0 198.6 170.7 198.0 174.0 192.6 C 177.4 187.1 179.1 174.5 182.4 171.5 C 185.7 168.5 187.4 168.5 190.7 168.5 C 194.0 168.5 195.7 174.5 199.0 174.5 C 202.3 174.5 204.0 159.5 207.3 159.5 C 210.6 159.5 212.3 162.5 215.6 162.5 C 218.9 162.5 220.6 157.2 224.0 150.5 C 227.2 143.9 228.9 129.4 232.1 129.4 C 235.4 129.4 237.0 138.4 240.3 138.4 C 243.6 138.4 245.2 128.2 248.6 123.4 C 251.9 118.5 253.5 118.5 256.8 114.3 C 260.1 110.1 261.8 102.3 265.1 102.3 C 268.4 102.3 270.1 117.3 273.4 117.3 C 276.8 117.3 278.5 96.3 281.8 96.3 C 285.1 96.3 286.8 99.3 290.1 99.3 C 293.4 99.3 295.1 81.2 298.4 81.2 C 301.7 81.2 303.4 99.9 306.7 111.3 C 310.0 122.8 311.6 138.4 315.0 138.4 C 318.3 138.4 320.0 111.6 323.4 99.3 C 326.6 87.5 328.2 86.6 331.4 78.2 C 334.6 69.8 336.2 66.0 339.4 57.1 C 342.7 48.0 344.4 33.1 347.7 33.1 C 351.0 33.1 352.6 51.1 356.0 51.1 C 359.3 51.1 360.9 36.1 364.2 36.1 C 367.6 36.1 369.2 37.9 372.5 42.1 C 375.9 46.3 377.6 57.1 380.9 57.1 C 384.3 57.1 385.9 57.1 389.2 51.1 C 392.5 45.1 394.2 15.0 397.5 15.0 C 400.8 15.0 402.5 34.9 405.8 42.1 C 409.1 49.3 410.8 51.1 414.1 51.1 C 417.5 51.1 419.1 36.1 422.5 33.1 C 425.7 30.1 427.3 33.1 430.5 30.1 C 433.7 27.0 435.3 23.9 438.5 18.0 C 441.8 11.9 443.5 0 446.8 0 C 450.1 0 451.8 0 455.1 0 C 458.4 0 460.0 3.0 463.4 3.0 C 466.7 3.0 468.3 3.0 471.6 3.0 C 475.0 3.0 476.7 21.0 480.1 21.0 C 483.4 21.0 485.0 12.0 488.3 9.0 C 491.7 6.0 496.6 6.0 496.6 6.0" stroke="black" stroke-width="5"  stroke-dasharray="8,6"  stroke-opacity="0.0" transform="translate(1, 1)"></path><path fill="none" d="M 9.0 301 C 9.0 301 14.0 290.1 17.3 285.9 C 20.7 281.7 22.4 279.9 25.7 279.9 C 28.9 279.9 30.5 285.9 33.8 285.9 C 37.0 285.9 38.6 284.7 41.8 282.9 C 45.1 281.1 46.7 279.9 50.0 276.9 C 53.3 273.9 55.0 267.8 58.3 267.8 C 61.6 267.8 63.3 273.9 66.6 273.9 C 69.9 273.9 71.6 267.2 74.9 264.8 C 78.3 262.4 79.9 264.8 83.3 261.8 C 86.6 258.8 88.3 249.8 91.6 249.8 C 94.9 249.8 96.6 249.8 99.9 249.8 C 103.2 249.8 104.8 248.6 108.2 246.8 C 111.5 245.0 113.1 240.8 116.4 240.8 C 119.8 240.8 121.5 240.8 124.9 240.8 C 128.1 240.8 129.7 226.9 132.9 219.7 C 136.1 212.5 137.7 204.6 140.9 204.6 C 144.2 204.6 145.9 213.7 149.2 213.7 C 152.5 213.7 154.1 198.6 157.4 198.6 C 160.8 198.6 162.4 198.6 165.7 198.6 C 169.0 198.6 170.7 198.0 174.0 192.6 C 177.4 187.1 179.1 174.5 182.4 171.5 C 185.7 168.5 187.4 168.5 190.7 168.5 C 194.0 168.5 195.7 174.5 199.0 174.5 C 202.3 174.5 204.0 159.5 207.3 159.5 C 210.6 159.5 212.3 162.5 215.6 162.5 C 218.9 162.5 220.6 157.2 224.0 150.5 C 227.2 143.9 228.9 129.4 232.1 129.4 C 235.4 129.4 237.0 138.4 240.3 138.4 C 243.6 138.4 245.2 128.2 248.6 123.4 C 251.9 118.5 253.5 118.5 256.8 114.3 C 260.1 110.1 261.8 102.3 265.1 102.3 C 268.4 102.3 270.1 117.3 273.4 117.3 C 276.8 117.3 278.5 96.3 281.8 96.3 C 285.1 96.3 286.8 99.3 290.1 99.3 C 293.4 99.3 295.1 81.2 298.4 81.2 C 301.7 81.2 303.4 99.9 306.7 111.3 C 310.0 122.8 311.6 138.4 315.0 138.4 C 318.3 138.4 320.0 111.6 323.4 99.3 C 326.6 87.5 328.2 86.6 331.4 78.2 C 334.6 69.8 336.2 66.0 339.4 57.1 C 342.7 48.0 344.4 33.1 347.7 33.1 C 351.0 33.1 352.6 51.1 356.0 51.1 C 359.3 51.1 360.9 36.1 364.2 36.1 C 367.6 36.1 369.2 37.9 372.5 42.1 C 375.9 46.3 377.6 57.1 380.9 57.1 C 384.3 57.1 385.9 57.1 389.2 51.1 C 392.5 45.1 394.2 15.0 397.5 15.0 C 400.8 15.0 402.5 34.9 405.8 42.1 C 409.1 49.3 410.8 51.1 414.1 51.1 C 417.5 51.1 419.1 36.1 422.5 33.1 C 425.7 30.1 427.3 33.1 430.5 30.1 C 433.7 27.0 435.3 23.9 438.5 18.0 C 441.8 11.9 443.5 0 446.8 0 C 450.1 0 451.8 0 455.1 0 C 458.4 0 460.0 3.0 463.4 3.0 C 466.7 3.0 468.3 3.0 471.6 3.0 C 475.0 3.0 476.7 21.0 480.1 21.0 C 483.4 21.0 485.0 12.0 488.3 9.0 C 491.7 6.0 496.6 6.0 496.6 6.0" stroke="black" stroke-width="3"  stroke-dasharray="8,6"  stroke-opacity="0.0" transform="translate(1, 1)"></path><path fill="none" d="M 9.0 301 C 9.0 301 14.0 290.1 17.3 285.9 C 20.7 281.7 22.4 279.9 25.7 279.9 C 28.9 279.9 30.5 285.9 33.8 285.9 C 37.0 285.9 38.6 284.7 41.8 282.9 C 45.1 281.1 46.7 279.9 50.0 276.9 C 53.3 273.9 55.0 267.8 58.3 267.8 C 61.6 267.8 63.3 273.9 66.6 273.9 C 69.9 273.9 71.6 267.2 74.9 264.8 C 78.3 262.4 79.9 264.8 83.3 261.8 C 86.6 258.8 88.3 249.8 91.6 249.8 C 94.9 249.8 96.6 249.8 99.9 249.8 C 103.2 249.8 104.8 248.6 108.2 246.8 C 111.5 245.0 113.1 240.8 116.4 240.8 C 119.8 240.8 121.5 240.8 124.9 240.8 C 128.1 240.8 129.7 226.9 132.9 219.7 C 136.1 212.5 137.7 204.6 140.9 204.6 C 144.2 204.6 145.9 213.7 149.2 213.7 C 152.5 213.7 154.1 198.6 157.4 198.6 C 160.8 198.6 162.4 198.6 165.7 198.6 C 169.0 198.6 170.7 198.0 174.0 192.6 C 177.4 187.1 179.1 174.5 182.4 171.5 C 185.7 168.5 187.4 168.5 190.7 168.5 C 194.0 168.5 195.7 174.5 199.0 174.5 C 202.3 174.5 204.0 159.5 207.3 159.5 C 210.6 159.5 212.3 162.5 215.6 162.5 C 218.9 162.5 220.6 157.2 224.0 150.5 C 227.2 143.9 228.9 129.4 232.1 129.4 C 235.4 129.4 237.0 138.4 240.3 138.4 C 243.6 138.4 245.2 128.2 248.6 123.4 C 251.9 118.5 253.5 118.5 256.8 114.3 C 260.1 110.1 261.8 102.3 265.1 102.3 C 268.4 102.3 270.1 117.3 273.4 117.3 C 276.8 117.3 278.5 96.3 281.8 96.3 C 285.1 96.3 286.8 99.3 290.1 99.3 C 293.4 99.3 295.1 81.2 298.4 81.2 C 301.7 81.2 303.4 99.9 306.7 111.3 C 310.0 122.8 311.6 138.4 315.0 138.4 C 318.3 138.4 320.0 111.6 323.4 99.3 C 326.6 87.5 328.2 86.6 331.4 78.2 C 334.6 69.8 336.2 66.0 339.4 57.1 C 342.7 48.0 344.4 33.1 347.7 33.1 C 351.0 33.1 352.6 51.1 356.0 51.1 C 359.3 51.1 360.9 36.1 364.2 36.1 C 367.6 36.1 369.2 37.9 372.5 42.1 C 375.9 46.3 377.6 57.1 380.9 57.1 C 384.3 57.1 385.9 57.1 389.2 51.1 C 392.5 45.1 394.2 15.0 397.5 15.0 C 400.8 15.0 402.5 34.9 405.8 42.1 C 409.1 49.3 410.8 51.1 414.1 51.1 C 417.5 51.1 419.1 36.1 422.5 33.1 C 425.7 30.1 427.3 33.1 430.5 30.1 C 433.7 27.0 435.3 23.9 438.5 18.0 C 441.8 11.9 443.5 0 446.8 0 C 450.1 0 451.8 0 455.1 0 C 458.4 0 460.0 3.0 463.4 3.0 C 466.7 3.0 468.3 3.0 471.6 3.0 C 475.0 3.0 476.7 21.0 480.1 21.0 C 483.4 21.0 485.0 12.0 488.3 9.0 C 491.7 6.0 496.6 6.0 496.6 6.0" stroke="black" stroke-width="1"  stroke-dasharray="8,6"  stroke-opacity="0.1" transform="translate(1, 1)"></path><path fill="none" d="M 9.0 301 C 9.0 301 14.0 290.1 17.3 285.9 C 20.7 281.7 22.4 279.9 25.7 279.9 C 28.9 279.9 30.5 285.9 33.8 285.9 C 37.0 285.9 38.6 284.7 41.8 282.9 C 45.1 281.1 46.7 279.9 50.0 276.9 C 53.3 273.9 55.0 267.8 58.3 267.8 C 61.6 267.8 63.3 273.9 66.6 273.9 C 69.9 273.9 71.6 267.2 74.9 264.8 C 78.3 262.4 79.9 264.8 83.3 261.8 C 86.6 258.8 88.3 249.8 91.6 249.8 C 94.9 249.8 96.6 249.8 99.9 249.8 C 103.2 249.8 104.8 248.6 108.2 246.8 C 111.5 245.0 113.1 240.8 116.4 240.8 C 119.8 240.8 121.5 240.8 124.9 240.8 C 128.1 240.8 129.7 226.9 132.9 219.7 C 136.1 212.5 137.7 204.6 140.9 204.6 C 144.2 204.6 145.9 213.7 149.2 213.7 C 152.5 213.7 154.1 198.6 157.4 198.6 C 160.8 198.6 162.4 198.6 165.7 198.6 C 169.0 198.6 170.7 198.0 174.0 192.6 C 177.4 187.1 179.1 174.5 182.4 171.5 C 185.7 168.5 187.4 168.5 190.7 168.5 C 194.0 168.5 195.7 174.5 199.0 174.5 C 202.3 174.5 204.0 159.5 207.3 159.5 C 210.6 159.5 212.3 162.5 215.6 162.5 C 218.9 162.5 220.6 157.2 224.0 150.5 C 227.2 143.9 228.9 129.4 232.1 129.4 C 235.4 129.4 237.0 138.4 240.3 138.4 C 243.6 138.4 245.2 128.2 248.6 123.4 C 251.9 118.5 253.5 118.5 256.8 114.3 C 260.1 110.1 261.8 102.3 265.1 102.3 C 268.4 102.3 270.1 117.3 273.4 117.3 C 276.8 117.3 278.5 96.3 281.8 96.3 C 285.1 96.3 286.8 99.3 290.1 99.3 C 293.4 99.3 295.1 81.2 298.4 81.2 C 301.7 81.2 303.4 99.9 306.7 111.3 C 310.0 122.8 311.6 138.4 315.0 138.4 C 318.3 138.4 320.0 111.6 323.4 99.3 C 326.6 87.5 328.2 86.6 331.4 78.2 C 334.6 69.8 336.2 66.0 339.4 57.1 C 342.7 48.0 344.4 33.1 347.7 33.1 C 351.0 33.1 352.6 51.1 356.0 51.1 C 359.3 51.1 360.9 36.1 364.2 36.1 C 367.6 36.1 369.2 37.9 372.5 42.1 C 375.9 46.3 377.6 57.1 380.9 57.1 C 384.3 57.1 385.9 57.1 389.2 51.1 C 392.5 45.1 394.2 15.0 397.5 15.0 C 400.8 15.0 402.5 34.9 405.8 42.1 C 409.1 49.3 410.8 51.1 414.1 51.1 C 417.5 51.1 419.1 36.1 422.5 33.1 C 425.7 30.1 427.3 33.1 430.5 30.1 C 433.7 27.0 435.3 23.9 438.5 18.0 C 441.8 11.9 443.5 0 446.8 0 C 450.1 0 451.8 0 455.1 0 C 458.4 0 460.0 3.0 463.4 3.0 C 466.7 3.0 468.3 3.0 471.6 3.0 C 475.0 3.0 476.7 21.0 480.1 21.0 C 483.4 21.0 485.0 12.0 488.3 9.0 C 491.7 6.0 496.6 6.0 496.6 6.0" stroke="#f45b5b" stroke-width="2"  stroke-dasharray="8,6"></path><path fill="none" d="M -0.9 301 L 9.0 301 C 9.0 301 14.0 290.1 17.3 285.9 C 20.7 281.7 22.4 279.9 25.7 279.9 C 28.9 279.9 30.5 285.9 33.8 285.9 C 37.0 285.9 38.6 284.7 41.8 282.9 C 45.1 281.1 46.7 279.9 50.0 276.9 C 53.3 273.9 55.0 267.8 58.3 267.8 C 61.6 267.8 63.3 273.9 66.6 273.9 C 69.9 273.9 71.6 267.2 74.9 264.8 C 78.3 262.4 79.9 264.8 83.3 261.8 C 86.6 258.8 88.3 249.8 91.6 249.8 C 94.9 249.8 96.6 249.8 99.9 249.8 C 103.2 249.8 104.8 248.6 108.2 246.8 C 111.5 245.0 113.1 240.8 116.4 240.8 C 119.8 240.8 121.5 240.8 124.9 240.8 C 128.1 240.8 129.7 226.9 132.9 219.7 C 136.1 212.5 137.7 204.6 140.9 204.6 C 144.2 204.6 145.9 213.7 149.2 213.7 C 152.5 213.7 154.1 198.6 157.4 198.6 C 160.8 198.6 162.4 198.6 165.7 198.6 C 169.0 198.6 170.7 198.0 174.0 192.6 C 177.4 187.1 179.1 174.5 182.4 171.5 C 185.7 168.5 187.4 168.5 190.7 168.5 C 194.0 168.5 195.7 174.5 199.0 174.5 C 202.3 174.5 204.0 159.5 207.3 159.5 C 210.6 159.5 212.3 162.5 215.6 162.5 C 218.9 162.5 220.6 157.2 224.0 150.5 C 227.2 143.9 228.9 129.4 232.1 129.4 C 235.4 129.4 237.0 138.4 240.3 138.4 C 243.6 138.4 245.2 128.2 248.6 123.4 C 251.9 118.5 253.5 118.5 256.8 114.3 C 260.1 110.1 261.8 102.3 265.1 102.3 C 268.4 102.3 270.1 117.3 273.4 117.3 C 276.8 117.3 278.5 96.3 281.8 96.3 C 285.1 96.3 286.8 99.3 290.1 99.3 C 293.4 99.3 295.1 81.2 298.4 81.2 C 301.7 81.2 303.4 99.9 306.7 111.3 C 310.0 122.8 311.6 138.4 315.0 138.4 C 318.3 138.4 320.0 111.6 323.4 99.3 C 326.6 87.5 328.2 86.6 331.4 78.2 C 334.6 69.8 336.2 66.0 339.4 57.1 C 342.7 48.0 344.4 33.1 347.7 33.1 C 351.0 33.1 352.6 51.1 356.0 51.1 C 359.3 51.1 360.9 36.1 364.2 36.1 C 367.6 36.1 369.2 37.9 372.5 42.1 C 375.9 46.3 377.6 57.1 380.9 57.1 C 384.3 57.1 385.9 57.1 389.2 51.1 C 392.5 45.1 394.2 15.0 397.5 15.0 C 400.8 15.0 402.5 34.9 405.8 42.1 C 409.1 49.3 410.8 51.1 414.1 51.1 C 417.5 51.1 419.1 36.1 422.5 33.1 C 425.7 30.1 427.3 33.1 430.5 30.1 C 433.7 27.0 435.3 23.9 438.5 18.0 C 441.8 11.9 443.5 0 446.8 0 C 450.1 0 451.8 0 455.1 0 C 458.4 0 460.0 3.0 463.4 3.0 C 466.7 3.0 468.3 3.0 471.6 3.0 C 475.0 3.0 476.7 21.0 480.1 21.0 C 483.4 21.0 485.0 12.0 488.3 9.0 C 491.7 6.0 496.6 6.0 496.6 6.0 L 506.6 6.0" stroke-linejoin="round" visibility="visible" stroke="rgb(192,192,192)" stroke-opacity="0.0" stroke-width="22"  class=" highcharts-tracker" style=""></path></g><g class="highcharts-markers highcharts-tracker" visibility="visible"  transform="translate(10,44) scale(1 1)" clip-path="url(#highcharts-2)" style=""></g><g class="highcharts-series" visibility="visible"  transform="translate(10,44) scale(1 1)" clip-path="url(#highcharts-3)"><path fill="rgb(128,133,233)" fill-opacity="0.5" d="M 5.0 294.9 L 13.1 291.9 L 21.5 294.9 L 30.0 291.9 L 37.6 288.9 L 46.0 288.9 L 54.1 288.9 L 62.6 288.9 L 70.7 285.9 L 79.1 279.9 L 87.5 282.9 L 95.7 273.9 L 104.1 270.9 L 112.2 276.9 L 120.7 270.9 L 129.1 261.8 L 136.7 255.8 L 145.1 258.8 L 153.3 255.8 L 161.7 252.8 L 169.8 234.7 L 178.2 243.8 L 186.7 240.8 L 194.8 204.6 L 203.2 198.6 L 211.4 192.6 L 219.8 198.6 L 228.2 180.6 L 236.1 189.6 L 244.5 195.6 L 252.6 180.6 L 261.1 186.6 L 269.2 183.6 L 277.6 171.5 L 286.1 153.5 L 294.2 171.5 L 302.6 138.4 L 310.8 168.5 L 319.2 171.5 L 327.6 171.5 L 335.2 144.4 L 343.6 144.4 L 351.8 132.4 L 360.2 114.3 L 368.3 102.3 L 376.8 114.3 L 385.2 111.3 L 393.3 120.4 L 401.7 120.4 L 409.9 126.4 L 418.3 105.3 L 426.7 144.4 L 434.3 84.2 L 442.7 129.4 L 450.9 90.3 L 459.3 111.3 L 467.5 105.3 L 475.9 105.3 L 484.3 33.1 L 492.4 0 L 492.4 301 L 5.0 301" ></path><path fill="none" d="M 5.0 294.9 L 13.1 291.9 L 21.5 294.9 L 30.0 291.9 L 37.6 288.9 L 46.0 288.9 L 54.1 288.9 L 62.6 288.9 L 70.7 285.9 L 79.1 279.9 L 87.5 282.9 L 95.7 273.9 L 104.1 270.9 L 112.2 276.9 L 120.7 270.9 L 129.1 261.8 L 136.7 255.8 L 145.1 258.8 L 153.3 255.8 L 161.7 252.8 L 169.8 234.7 L 178.2 243.8 L 186.7 240.8 L 194.8 204.6 L 203.2 198.6 L 211.4 192.6 L 219.8 198.6 L 228.2 180.6 L 236.1 189.6 L 244.5 195.6 L 252.6 180.6 L 261.1 186.6 L 269.2 183.6 L 277.6 171.5 L 286.1 153.5 L 294.2 171.5 L 302.6 138.4 L 310.8 168.5 L 319.2 171.5 L 327.6 171.5 L 335.2 144.4 L 343.6 144.4 L 351.8 132.4 L 360.2 114.3 L 368.3 102.3 L 376.8 114.3 L 385.2 111.3 L 393.3 120.4 L 401.7 120.4 L 409.9 126.4 L 418.3 105.3 L 426.7 144.4 L 434.3 84.2 L 442.7 129.4 L 450.9 90.3 L 459.3 111.3 L 467.5 105.3 L 475.9 105.3 L 484.3 33.1 L 492.4 0" stroke="black" stroke-width="5"  stroke-linejoin="round" stroke-linecap="round"  stroke-opacity="0.0" transform="translate(1, 1)"></path><path fill="none" d="M 5.0 294.9 L 13.1 291.9 L 21.5 294.9 L 30.0 291.9 L 37.6 288.9 L 46.0 288.9 L 54.1 288.9 L 62.6 288.9 L 70.7 285.9 L 79.1 279.9 L 87.5 282.9 L 95.7 273.9 L 104.1 270.9 L 112.2 276.9 L 120.7 270.9 L 129.1 261.8 L 136.7 255.8 L 145.1 258.8 L 153.3 255.8 L 161.7 252.8 L 169.8 234.7 L 178.2 243.8 L 186.7 240.8 L 194.8 204.6 L 203.2 198.6 L 211.4 192.6 L 219.8 198.6 L 228.2 180.6 L 236.1 189.6 L 244.5 195.6 L 252.6 180.6 L 261.1 186.6 L 269.2 183.6 L 277.6 171.5 L 286.1 153.5 L 294.2 171.5 L 302.6 138.4 L 310.8 168.5 L 319.2 171.5 L 327.6 171.5 L 335.2 144.4 L 343.6 144.4 L 351.8 132.4 L 360.2 114.3 L 368.3 102.3 L 376.8 114.3 L 385.2 111.3 L 393.3 120.4 L 401.7 120.4 L 409.9 126.4 L 418.3 105.3 L 426.7 144.4 L 434.3 84.2 L 442.7 129.4 L 450.9 90.3 L 459.3 111.3 L 467.5 105.3 L 475.9 105.3 L 484.3 33.1 L 492.4 0" stroke="black" stroke-width="3"  stroke-linejoin="round" stroke-linecap="round"  stroke-opacity="0.0" transform="translate(1, 1)"></path><path fill="none" d="M 5.0 294.9 L 13.1 291.9 L 21.5 294.9 L 30.0 291.9 L 37.6 288.9 L 46.0 288.9 L 54.1 288.9 L 62.6 288.9 L 70.7 285.9 L 79.1 279.9 L 87.5 282.9 L 95.7 273.9 L 104.1 270.9 L 112.2 276.9 L 120.7 270.9 L 129.1 261.8 L 136.7 255.8 L 145.1 258.8 L 153.3 255.8 L 161.7 252.8 L 169.8 234.7 L 178.2 243.8 L 186.7 240.8 L 194.8 204.6 L 203.2 198.6 L 211.4 192.6 L 219.8 198.6 L 228.2 180.6 L 236.1 189.6 L 244.5 195.6 L 252.6 180.6 L 261.1 186.6 L 269.2 183.6 L 277.6 171.5 L 286.1 153.5 L 294.2 171.5 L 302.6 138.4 L 310.8 168.5 L 319.2 171.5 L 327.6 171.5 L 335.2 144.4 L 343.6 144.4 L 351.8 132.4 L 360.2 114.3 L 368.3 102.3 L 376.8 114.3 L 385.2 111.3 L 393.3 120.4 L 401.7 120.4 L 409.9 126.4 L 418.3 105.3 L 426.7 144.4 L 434.3 84.2 L 442.7 129.4 L 450.9 90.3 L 459.3 111.3 L 467.5 105.3 L 475.9 105.3 L 484.3 33.1 L 492.4 0" stroke="black" stroke-width="1"  stroke-linejoin="round" stroke-linecap="round"  stroke-opacity="0.1" transform="translate(1, 1)"></path><path fill="none" d="M 5.0 294.9 L 13.1 291.9 L 21.5 294.9 L 30.0 291.9 L 37.6 288.9 L 46.0 288.9 L 54.1 288.9 L 62.6 288.9 L 70.7 285.9 L 79.1 279.9 L 87.5 282.9 L 95.7 273.9 L 104.1 270.9 L 112.2 276.9 L 120.7 270.9 L 129.1 261.8 L 136.7 255.8 L 145.1 258.8 L 153.3 255.8 L 161.7 252.8 L 169.8 234.7 L 178.2 243.8 L 186.7 240.8 L 194.8 204.6 L 203.2 198.6 L 211.4 192.6 L 219.8 198.6 L 228.2 180.6 L 236.1 189.6 L 244.5 195.6 L 252.6 180.6 L 261.1 186.6 L 269.2 183.6 L 277.6 171.5 L 286.1 153.5 L 294.2 171.5 L 302.6 138.4 L 310.8 168.5 L 319.2 171.5 L 327.6 171.5 L 335.2 144.4 L 343.6 144.4 L 351.8 132.4 L 360.2 114.3 L 368.3 102.3 L 376.8 114.3 L 385.2 111.3 L 393.3 120.4 L 401.7 120.4 L 409.9 126.4 L 418.3 105.3 L 426.7 144.4 L 434.3 84.2 L 442.7 129.4 L 450.9 90.3 L 459.3 111.3 L 467.5 105.3 L 475.9 105.3 L 484.3 33.1 L 492.4 0" stroke="#8085e9" stroke-width="2"  stroke-linejoin="round" stroke-linecap="round"></path><path fill="none" d="M -4.9 294.9 L 5.0 294.9 L 13.1 291.9 L 21.5 294.9 L 30.0 291.9 L 37.6 288.9 L 46.0 288.9 L 54.1 288.9 L 62.6 288.9 L 70.7 285.9 L 79.1 279.9 L 87.5 282.9 L 95.7 273.9 L 104.1 270.9 L 112.2 276.9 L 120.7 270.9 L 129.1 261.8 L 136.7 255.8 L 145.1 258.8 L 153.3 255.8 L 161.7 252.8 L 169.8 234.7 L 178.2 243.8 L 186.7 240.8 L 194.8 204.6 L 203.2 198.6 L 211.4 192.6 L 219.8 198.6 L 228.2 180.6 L 236.1 189.6 L 244.5 195.6 L 252.6 180.6 L 261.1 186.6 L 269.2 183.6 L 277.6 171.5 L 286.1 153.5 L 294.2 171.5 L 302.6 138.4 L 310.8 168.5 L 319.2 171.5 L 327.6 171.5 L 335.2 144.4 L 343.6 144.4 L 351.8 132.4 L 360.2 114.3 L 368.3 102.3 L 376.8 114.3 L 385.2 111.3 L 393.3 120.4 L 401.7 120.4 L 409.9 126.4 L 418.3 105.3 L 426.7 144.4 L 434.3 84.2 L 442.7 129.4 L 450.9 90.3 L 459.3 111.3 L 467.5 105.3 L 475.9 105.3 L 484.3 33.1 L 492.4 0 L 502.4 0" stroke-linejoin="round" visibility="visible" stroke="rgb(192,192,192)" stroke-opacity="0.0" stroke-width="22"  class=" highcharts-tracker" style=""></path></g><g class="highcharts-markers highcharts-tracker" visibility="visible"  transform="translate(10,44) scale(1 1)" clip-path="url(#highcharts-2)" style=""></g><g class="highcharts-series" visibility="visible"  transform="translate(10,44) scale(1 1)" clip-path="url(#highcharts-3)"><path fill="rgb(141,70,84)" fill-opacity="0.5" d="M 5.0 288.9 L 109.3 288.9 109.3 276.9 L 145.1 276.9 145.1 264.8 L 178.2 264.8 178.2 252.8 L 182.0 252.8 182.0 240.8 L 261.1 240.8 261.1 228.7 L 286.1 228.7 286.1 240.8 L 289.9 240.8 289.9 228.7 L 319.2 228.7 319.2 216.7 L 376.8 216.7 376.8 204.6 L 381.9 204.6 381.9 192.6 L 393.3 192.6 393.3 180.6 L 492.4 180.6 492.4 168.5 L 507.9 168.5 507.9 168.5 L 507.9 301 L 5.0 301" ></path><path fill="none" d="M 5.0 288.9 L 109.3 288.9 109.3 276.9 L 145.1 276.9 145.1 264.8 L 178.2 264.8 178.2 252.8 L 182.0 252.8 182.0 240.8 L 261.1 240.8 261.1 228.7 L 286.1 228.7 286.1 240.8 L 289.9 240.8 289.9 228.7 L 319.2 228.7 319.2 216.7 L 376.8 216.7 376.8 204.6 L 381.9 204.6 381.9 192.6 L 393.3 192.6 393.3 180.6 L 492.4 180.6 492.4 168.5 L 507.9 168.5 507.9 168.5" stroke="black" stroke-width="5"  stroke-linejoin="round" stroke-linecap="round"  stroke-opacity="0.0" transform="translate(1, 1)"></path><path fill="none" d="M 5.0 288.9 L 109.3 288.9 109.3 276.9 L 145.1 276.9 145.1 264.8 L 178.2 264.8 178.2 252.8 L 182.0 252.8 182.0 240.8 L 261.1 240.8 261.1 228.7 L 286.1 228.7 286.1 240.8 L 289.9 240.8 289.9 228.7 L 319.2 228.7 319.2 216.7 L 376.8 216.7 376.8 204.6 L 381.9 204.6 381.9 192.6 L 393.3 192.6 393.3 180.6 L 492.4 180.6 492.4 168.5 L 507.9 168.5 507.9 168.5" stroke="black" stroke-width="3"  stroke-linejoin="round" stroke-linecap="round"  stroke-opacity="0.0" transform="translate(1, 1)"></path><path fill="none" d="M 5.0 288.9 L 109.3 288.9 109.3 276.9 L 145.1 276.9 145.1 264.8 L 178.2 264.8 178.2 252.8 L 182.0 252.8 182.0 240.8 L 261.1 240.8 261.1 228.7 L 286.1 228.7 286.1 240.8 L 289.9 240.8 289.9 228.7 L 319.2 228.7 319.2 216.7 L 376.8 216.7 376.8 204.6 L 381.9 204.6 381.9 192.6 L 393.3 192.6 393.3 180.6 L 492.4 180.6 492.4 168.5 L 507.9 168.5 507.9 168.5" stroke="black" stroke-width="1"  stroke-linejoin="round" stroke-linecap="round"  stroke-opacity="0.1" transform="translate(1, 1)"></path><path fill="none" d="M 5.0 288.9 L 109.3 288.9 109.3 276.9 L 145.1 276.9 145.1 264.8 L 178.2 264.8 178.2 252.8 L 182.0 252.8 182.0 240.8 L 261.1 240.8 261.1 228.7 L 286.1 228.7 286.1 240.8 L 289.9 240.8 289.9 228.7 L 319.2 228.7 319.2 216.7 L 376.8 216.7 376.8 204.6 L 381.9 204.6 381.9 192.6 L 393.3 192.6 393.3 180.6 L 492.4 180.6 492.4 168.5 L 507.9 168.5 507.9 168.5" stroke="#8d4654" stroke-width="2"  stroke-linejoin="round" stroke-linecap="round"></path><path fill="none" d="M -4.9 288.9 L 5.0 288.9 L 109.3 288.9 109.3 276.9 L 145.1 276.9 145.1 264.8 L 178.2 264.8 178.2 252.8 L 182.0 252.8 182.0 240.8 L 261.1 240.8 261.1 228.7 L 286.1 228.7 286.1 240.8 L 289.9 240.8 289.9 228.7 L 319.2 228.7 319.2 216.7 L 376.8 216.7 376.8 204.6 L 381.9 204.6 381.9 192.6 L 393.3 192.6 393.3 180.6 L 492.4 180.6 492.4 168.5 L 507.9 168.5 507.9 168.5 L 517.9 168.5" stroke-linejoin="round" visibility="visible" stroke="rgb(192,192,192)" stroke-opacity="0.0" stroke-width="22"  class=" highcharts-tracker" style=""></path></g><g class="highcharts-markers highcharts-tracker" visibility="visible"  transform="translate(10,44) scale(1 1)" clip-path="url(#highcharts-2)" style=""></g><g class="highcharts-series" visibility="visible"  transform="translate(10,44) scale(1 1)" clip-path="url(#highcharts-1)"></g><g class="highcharts-markers highcharts-tracker" visibility="visible"  transform="translate(10,44) scale(1 1)" style=""><g style="text-align:center;" transform="translate(433,222)"><path fill="none" d="M -1 0 L 36 0 36 19 -1 19 Z M 18.9 19 L 18.9 79" stroke="black" stroke-width="5"  stroke-opacity="0.0" transform="translate(1, 1)"></path><path fill="none" d="M -1 0 L 36 0 36 19 -1 19 Z M 18.9 19 L 18.9 79" stroke="black" stroke-width="3"  stroke-opacity="0.0" transform="translate(1, 1)"></path><path fill="none" d="M -1 0 L 36 0 36 19 -1 19 Z M 18.9 19 L 18.9 79" stroke="black" stroke-width="1"  stroke-opacity="0.1" transform="translate(1, 1)"></path><path fill="white" d="M -1 0 L 36 0 36 19 -1 19 Z M 18.9 19 L 18.9 79" stroke="#333333" stroke-width="1"></path><text x="1.5"  style="font-size:11px;font-weight:bold;" transform="translate(0,14)">Cloud</text></g></g><g class="highcharts-series" visibility="visible"  transform="translate(10,44) scale(1 1)" clip-path="url(#highcharts-1)"></g><g class="highcharts-markers highcharts-tracker" visibility="visible"  transform="translate(10,44) scale(1 1)" style=""><g style="text-align:center;" transform="translate(446,247)"><path fill="none" d="M -1 0 L 35 0 35 19 -1 19 Z M 17.6 19 L 17.6 54" stroke="black" stroke-width="5"  stroke-opacity="0.0" transform="translate(1, 1)"></path><path fill="none" d="M -1 0 L 35 0 35 19 -1 19 Z M 17.6 19 L 17.6 54" stroke="black" stroke-width="3"  stroke-opacity="0.0" transform="translate(1, 1)"></path><path fill="none" d="M -1 0 L 35 0 35 19 -1 19 Z M 17.6 19 L 17.6 54" stroke="black" stroke-width="1"  stroke-opacity="0.1" transform="translate(1, 1)"></path><path fill="white" d="M -1 0 L 35 0 35 19 -1 19 Z M 17.6 19 L 17.6 54" stroke="#333333" stroke-width="1"></path><text x="1.5"  style="font-size:11px;font-weight:bold;" transform="translate(0,14)">Maps</text></g></g><g class="highcharts-series" visibility="visible"  transform="translate(10,44) scale(1 1)" clip-path="url(#highcharts-1)"></g><g class="highcharts-markers highcharts-tracker" visibility="visible"  transform="translate(10,44) scale(1 1)" style=""><g style="text-align:center;" transform="translate(438,272)"><path fill="none" d="M 10.5 0 C 25.8 0 25.8 19 10.5 19 C -4.8 19 -4.8 0 10.5 0 Z M 11.4 19 L 11.4 29" stroke="black" stroke-width="5"  stroke-opacity="0.0" transform="translate(1, 1)"></path><path fill="none" d="M 10.5 0 C 25.8 0 25.8 19 10.5 19 C -4.8 19 -4.8 0 10.5 0 Z M 11.4 19 L 11.4 29" stroke="black" stroke-width="3"  stroke-opacity="0.0" transform="translate(1, 1)"></path><path fill="none" d="M 10.5 0 C 25.8 0 25.8 19 10.5 19 C -4.8 19 -4.8 0 10.5 0 Z M 11.4 19 L 11.4 29" stroke="black" stroke-width="1"  stroke-opacity="0.1" transform="translate(1, 1)"></path><path fill="white" d="M 10.5 0 C 25.8 0 25.8 19 10.5 19 C -4.8 19 -4.8 0 10.5 0 Z M 11.4 19 L 11.4 29" stroke="#333333" stroke-width="1"></path><text x="1.5"  style="font-size:11px;font-weight:bold;" transform="translate(0,14)">4.0</text></g><g style="text-align:center;" transform="translate(330,272)"><path fill="none" d="M 10.5 0 C 25.8 0 25.8 19 10.5 19 C -4.8 19 -4.8 0 10.5 0 Z M 11.9 19 L 11.9 29" stroke="black" stroke-width="5"  stroke-opacity="0.0" transform="translate(1, 1)"></path><path fill="none" d="M 10.5 0 C 25.8 0 25.8 19 10.5 19 C -4.8 19 -4.8 0 10.5 0 Z M 11.9 19 L 11.9 29" stroke="black" stroke-width="3"  stroke-opacity="0.0" transform="translate(1, 1)"></path><path fill="none" d="M 10.5 0 C 25.8 0 25.8 19 10.5 19 C -4.8 19 -4.8 0 10.5 0 Z M 11.9 19 L 11.9 29" stroke="black" stroke-width="1"  stroke-opacity="0.1" transform="translate(1, 1)"></path><path fill="white" d="M 10.5 0 C 25.8 0 25.8 19 10.5 19 C -4.8 19 -4.8 0 10.5 0 Z M 11.9 19 L 11.9 29" stroke="#333333" stroke-width="1"></path><text x="1.5"  style="font-size:11px;font-weight:bold;" transform="translate(0,14)">3.0</text></g><g style="text-align:center;" transform="translate(273,272)"><path fill="none" d="M 10.5 0 C 25.8 0 25.8 19 10.5 19 C -4.8 19 -4.8 0 10.5 0 Z M 11.9 19 L 11.9 29" stroke="black" stroke-width="5"  stroke-opacity="0.0" transform="translate(1, 1)"></path><path fill="none" d="M 10.5 0 C 25.8 0 25.8 19 10.5 19 C -4.8 19 -4.8 0 10.5 0 Z M 11.9 19 L 11.9 29" stroke="black" stroke-width="3"  stroke-opacity="0.0" transform="translate(1, 1)"></path><path fill="none" d="M 10.5 0 C 25.8 0 25.8 19 10.5 19 C -4.8 19 -4.8 0 10.5 0 Z M 11.9 19 L 11.9 29" stroke="black" stroke-width="1"  stroke-opacity="0.1" transform="translate(1, 1)"></path><path fill="white" d="M 10.5 0 C 25.8 0 25.8 19 10.5 19 C -4.8 19 -4.8 0 10.5 0 Z M 11.9 19 L 11.9 29" stroke="#333333" stroke-width="1"></path><text x="1.5"  style="font-size:11px;font-weight:bold;" transform="translate(0,14)">2.3</text></g><g style="text-align:center;" transform="translate(181,272)"><path fill="none" d="M -1 0 L 37 0 37 19 -1 19 Z M 19.4 19 L 19.4 29" stroke="black" stroke-width="5"  stroke-opacity="0.0" transform="translate(1, 1)"></path><path fill="none" d="M -1 0 L 37 0 37 19 -1 19 Z M 19.4 19 L 19.4 29" stroke="black" stroke-width="3"  stroke-opacity="0.0" transform="translate(1, 1)"></path><path fill="none" d="M -1 0 L 37 0 37 19 -1 19 Z M 19.4 19 L 19.4 29" stroke="black" stroke-width="1"  stroke-opacity="0.1" transform="translate(1, 1)"></path><path fill="white" d="M -1 0 L 37 0 37 19 -1 19 Z M 19.4 19 L 19.4 29" stroke="#333333" stroke-width="1"></path><text x="1.5"  style="font-size:11px;font-weight:bold;" transform="translate(0,14)">Stock</text></g><g style="text-align:center;" transform="translate(100,272)"><path fill="none" d="M 10.5 0 C 25.8 0 25.8 19 10.5 19 C -4.8 19 -4.8 0 10.5 0 Z M 11.1 19 L 11.1 29" stroke="black" stroke-width="5"  stroke-opacity="0.0" transform="translate(1, 1)"></path><path fill="none" d="M 10.5 0 C 25.8 0 25.8 19 10.5 19 C -4.8 19 -4.8 0 10.5 0 Z M 11.1 19 L 11.1 29" stroke="black" stroke-width="3"  stroke-opacity="0.0" transform="translate(1, 1)"></path><path fill="none" d="M 10.5 0 C 25.8 0 25.8 19 10.5 19 C -4.8 19 -4.8 0 10.5 0 Z M 11.1 19 L 11.1 29" stroke="black" stroke-width="1"  stroke-opacity="0.1" transform="translate(1, 1)"></path><path fill="white" d="M 10.5 0 C 25.8 0 25.8 19 10.5 19 C -4.8 19 -4.8 0 10.5 0 Z M 11.1 19 L 11.1 29" stroke="#333333" stroke-width="1"></path><text x="1.5"  style="font-size:11px;font-weight:bold;" transform="translate(0,14)">2.1</text></g><g style="text-align:center;" transform="translate(64,272)"><path fill="none" d="M 10.5 0 C 25.8 0 25.8 19 10.5 19 C -4.8 19 -4.8 0 10.5 0 Z M 11.0 19 L 11.0 29" stroke="black" stroke-width="5"  stroke-opacity="0.0" transform="translate(1, 1)"></path><path fill="none" d="M 10.5 0 C 25.8 0 25.8 19 10.5 19 C -4.8 19 -4.8 0 10.5 0 Z M 11.0 19 L 11.0 29" stroke="black" stroke-width="3"  stroke-opacity="0.0" transform="translate(1, 1)"></path><path fill="none" d="M 10.5 0 C 25.8 0 25.8 19 10.5 19 C -4.8 19 -4.8 0 10.5 0 Z M 11.0 19 L 11.0 29" stroke="black" stroke-width="1"  stroke-opacity="0.1" transform="translate(1, 1)"></path><path fill="white" d="M 10.5 0 C 25.8 0 25.8 19 10.5 19 C -4.8 19 -4.8 0 10.5 0 Z M 11.0 19 L 11.0 29" stroke="#333333" stroke-width="1"></path><text x="1.5"  style="font-size:11px;font-weight:bold;" transform="translate(0,14)">2.0</text></g><g style="text-align:center;" transform="translate(2,272)"><path fill="none" d="M 10.5 0 C 25.8 0 25.8 19 10.5 19 C -4.8 19 -4.8 0 10.5 0 Z M 11.0 19 L 11.0 29" stroke="black" stroke-width="5"  stroke-opacity="0.0" transform="translate(1, 1)"></path><path fill="none" d="M 10.5 0 C 25.8 0 25.8 19 10.5 19 C -4.8 19 -4.8 0 10.5 0 Z M 11.0 19 L 11.0 29" stroke="black" stroke-width="3"  stroke-opacity="0.0" transform="translate(1, 1)"></path><path fill="none" d="M 10.5 0 C 25.8 0 25.8 19 10.5 19 C -4.8 19 -4.8 0 10.5 0 Z M 11.0 19 L 11.0 29" stroke="black" stroke-width="1"  stroke-opacity="0.1" transform="translate(1, 1)"></path><path fill="white" d="M 10.5 0 C 25.8 0 25.8 19 10.5 19 C -4.8 19 -4.8 0 10.5 0 Z M 11.0 19 L 11.0 29" stroke="#333333" stroke-width="1"></path><text x="1.5"  style="font-size:11px;font-weight:bold;" transform="translate(0,14)">1.0</text></g></g><g class="highcharts-series" visibility="visible"  transform="translate(10,44) scale(1 1)" clip-path="url(#highcharts-1)"></g><g class="highcharts-markers highcharts-tracker" visibility="visible"  transform="translate(10,44) scale(1 1)" style=""><g style="text-align:center;" transform="translate(457,77)"><path fill="none" d="M 1.4 29.6 L 0 19 0 0 42 0 42 19 0 19 M 1.4 29.6 Z" stroke="black" stroke-width="5"  stroke-opacity="0.0" transform="translate(1, 1)"></path><path fill="none" d="M 1.4 29.6 L 0 19 0 0 42 0 42 19 0 19 M 1.4 29.6 Z" stroke="black" stroke-width="3"  stroke-opacity="0.0" transform="translate(1, 1)"></path><path fill="none" d="M 1.4 29.6 L 0 19 0 0 42 0 42 19 0 19 M 1.4 29.6 Z" stroke="black" stroke-width="1"  stroke-opacity="0.1" transform="translate(1, 1)"></path><path fill="rgb(255,255,255)" fill-opacity="0.8" d="M 1.4 29.6 L 0 19 0 0 42 0 42 19 0 19 M 1.4 29.6 Z" stroke="#333333" stroke-width="1"></path><text x="3"  style="font-size:11px;font-weight:bold;" transform="translate(0,14)">Award</text></g><g style="text-align:center;" transform="translate(358,89)"><path fill="none" d="M 1.3 29.4 L 0 19 0 0 42 0 42 19 0 19 M 1.3 29.4 Z" stroke="black" stroke-width="5"  stroke-opacity="0.0" transform="translate(1, 1)"></path><path fill="none" d="M 1.3 29.4 L 0 19 0 0 42 0 42 19 0 19 M 1.3 29.4 Z" stroke="black" stroke-width="3"  stroke-opacity="0.0" transform="translate(1, 1)"></path><path fill="none" d="M 1.3 29.4 L 0 19 0 0 42 0 42 19 0 19 M 1.3 29.4 Z" stroke="black" stroke-width="1"  stroke-opacity="0.1" transform="translate(1, 1)"></path><path fill="rgb(255,255,255)" fill-opacity="0.8" d="M 1.3 29.4 L 0 19 0 0 42 0 42 19 0 19 M 1.3 29.4 Z" stroke="#333333" stroke-width="1"></path><text x="3"  style="font-size:11px;font-weight:bold;" transform="translate(0,14)">Award</text></g><g style="text-align:center;" transform="translate(317,141)"><path fill="none" d="M 1.3 29.8 L 0 19 0 0 62 0 62 19 0 19 M 1.3 29.8 Z" stroke="black" stroke-width="5"  stroke-opacity="0.0" transform="translate(1, 1)"></path><path fill="none" d="M 1.3 29.8 L 0 19 0 0 62 0 62 19 0 19 M 1.3 29.8 Z" stroke="black" stroke-width="3"  stroke-opacity="0.0" transform="translate(1, 1)"></path><path fill="none" d="M 1.3 29.8 L 0 19 0 0 62 0 62 19 0 19 M 1.3 29.8 Z" stroke="black" stroke-width="1"  stroke-opacity="0.1" transform="translate(1, 1)"></path><path fill="rgb(255,255,255)" fill-opacity="0.8" d="M 1.3 29.8 L 0 19 0 0 62 0 62 19 0 19 M 1.3 29.8 Z" stroke="#333333" stroke-width="1"></path><text x="3"  style="font-size:11px;font-weight:bold;" transform="translate(0,14)"><tspan>First book</tspan></text></g><g style="text-align:center;" transform="translate(302,109)"><path fill="none" d="M 1.6 29.4 L 0 19 0 0 42 0 42 19 0 19 M 1.6 29.4 Z" stroke="black" stroke-width="5"  stroke-opacity="0.0" transform="translate(1, 1)"></path><path fill="none" d="M 1.6 29.4 L 0 19 0 0 42 0 42 19 0 19 M 1.6 29.4 Z" stroke="black" stroke-width="3"  stroke-opacity="0.0" transform="translate(1, 1)"></path><path fill="none" d="M 1.6 29.4 L 0 19 0 0 42 0 42 19 0 19 M 1.6 29.4 Z" stroke="black" stroke-width="1"  stroke-opacity="0.1" transform="translate(1, 1)"></path><path fill="rgb(255,255,255)" fill-opacity="0.8" d="M 1.6 29.4 L 0 19 0 0 42 0 42 19 0 19 M 1.6 29.4 Z" stroke="#333333" stroke-width="1"></path><text x="3"  style="font-size:11px;font-weight:bold;" transform="translate(0,14)">Award</text></g></g></g><text x="292" text-anchor="middle" class="highcharts-title"  style="color:black;font-size:16px;font-weight:bold;fill:black;width:520px;" y="22"><tspan>Highcharts and Highsoft timeline</tspan></text><path fill="rgb(193,40,40)" fill-opacity="1" d="M 50 140 L 230 140 230 160 50 160 z M 50 150 L 30 150 40 160 30 170 60 170 50 160 60 170 60 160 50 160 z M 230 150 L 250 150 240 160 250 170 220 170 230 160 220 170 220 160 230 160 z" stroke="#FFFFFF" stroke-width="1" ></path><path fill="rgb(193,40,40)" fill-opacity="1" d="M 210 110 L 219.3 120.4 L 207.6 128.1 L 213.9 140.6 L 200.6 145 L 203.4 158.7 L 189.4 159.4 L 188.7 173.4 L 175 170.6 L 170.6 183.9 L 158.1 177.6 L 150.4 189.3 L 140 180 L 129.5 189.3 L 121.8 177.6 L 109.3 183.9 L 104.9 170.6 L 91.2 173.4 L 90.5 159.4 L 76.5 158.7 L 79.3 145.0 L 66.0 140.6 L 72.3 128.1 L 60.6 120.4 L 70 110.0 L 60.6 99.5 L 72.3 91.8 L 66.0 79.3 L 79.3 75.0 L 76.5 61.2 L 90.5 60.5 L 91.2 46.5 L 104.9 49.3 L 109.3 36.0 L 121.8 42.3 L 129.5 30.6 L 139.9 40 L 150.4 30.6 L 158.1 42.3 L 170.6 36.0 L 174.9 49.3 L 188.7 46.5 L 189.4 60.5 L 203.4 61.2 L 200.6 74.9 L 213.9 79.3 L 207.6 91.8 L 219.3 99.5 L 210 109.9 z" ></path><text x="112.5"  style="color:white;font-size:100px;font-style:italic;font-family:'brush script mt', sans-serif;fill:white;" y="124">5</text><text x="78.5"  style="color:#ffffff;fill:#ffffff;" y="154"><tspan>Highcharts Anniversary</tspan></text><text x="118"  style="color:#ffffff;font-style:italic;font-size:10px;fill:#ffffff;" y="172">2009-2014</text><g class="highcharts-legend"  transform="translate(47,378)"><g ><g><g class="highcharts-legend-item"  transform="translate(8,3)"><path fill="none" d="M 0 12 L 16 12" stroke-dasharray="8,6" stroke="#f45b5b" stroke-width="2"></path><text x="21" style="color:#333333;font-size:13px;font-weight:bold;cursor:pointer;fill:#333333;" text-anchor="start"  y="16"><tspan>Google search for </tspan><tspan style="font-style:italic" dx="0">highcharts</tspan></text></g><g class="highcharts-legend-item"  transform="translate(236,3)"><text x="21" y="16" style="color:#333333;font-size:13px;font-weight:bold;cursor:pointer;fill:#333333;" text-anchor="start" >Revenue</text><rect x="0" y="5" width="16" height="12"  fill="#8085e9"></rect></g><g class="highcharts-legend-item"  transform="translate(334,3)"><text x="21" y="16" style="color:#333333;font-size:13px;font-weight:bold;cursor:pointer;fill:#333333;" text-anchor="start" ><tspan>Highsoft employees</tspan></text><rect x="0" y="5" width="16" height="12"  fill="#8d4654"></rect></g></g></g></g><g class="highcharts-axis-labels highcharts-xaxis-labels" ><text x="31.5" style="color:#6e6e70;cursor:default;font-size:11px;fill:#6e6e70;width:103px;text-overflow:clip;" text-anchor="start" transform="translate(0,0)" y="364" opacity="1">2010</text><text x="130.7" style="color:#6e6e70;cursor:default;font-size:11px;fill:#6e6e70;width:103px;text-overflow:clip;" text-anchor="start" transform="translate(0,0)" y="364" opacity="1">2011</text><text x="229.8" style="color:#6e6e70;cursor:default;font-size:11px;fill:#6e6e70;width:103px;text-overflow:clip;" text-anchor="start" transform="translate(0,0)" y="364" opacity="1">2012</text><text x="329.2" style="color:#6e6e70;cursor:default;font-size:11px;fill:#6e6e70;width:103px;text-overflow:clip;" text-anchor="start" transform="translate(0,0)" y="364" opacity="1">2013</text><text x="428.3" style="color:#6e6e70;cursor:default;font-size:11px;fill:#6e6e70;width:103px;text-overflow:clip;" text-anchor="start" transform="translate(0,0)" y="364" opacity="1">2014</text></g><g class="highcharts-axis-labels highcharts-yaxis-labels" ></g><g class="highcharts-axis-labels highcharts-yaxis-labels" ><text x="538" style="color:#8d4654;cursor:default;font-size:11px;fill:#8d4654;width:183px;text-overflow:clip;" text-anchor="start" transform="translate(0,0)" y="350" opacity="1">0</text><text x="538" style="color:#8d4654;cursor:default;font-size:11px;fill:#8d4654;width:183px;text-overflow:clip;" text-anchor="start" transform="translate(0,0)" y="289" opacity="1">5</text><text x="538" style="color:#8d4654;cursor:default;font-size:11px;fill:#8d4654;width:183px;text-overflow:clip;" text-anchor="start" transform="translate(0,0)" y="229" opacity="1">10</text><text x="538" style="color:#8d4654;cursor:default;font-size:11px;fill:#8d4654;width:183px;text-overflow:clip;" text-anchor="start" transform="translate(0,0)" y="169" opacity="1">15</text><text x="538" style="color:#8d4654;cursor:default;font-size:11px;fill:#8d4654;width:183px;text-overflow:clip;" text-anchor="start" transform="translate(0,0)" y="109" opacity="1">20</text><text x="538" style="color:#8d4654;cursor:default;font-size:11px;fill:#8d4654;width:183px;text-overflow:clip;" text-anchor="start" transform="translate(0,0)" y="49" opacity="1">25</text></g><path fill="none" d="M 210 110 L 219.3 120.4 L 207.6 128.1 L 213.9 140.6 L 200.6 145 L 203.4 158.7 L 189.4 159.4 L 188.7 173.4 L 175 170.6 L 170.6 183.9 L 158.1 177.6 L 150.4 189.3 L 140 180 L 129.5 189.3 L 121.8 177.6 L 109.3 183.9 L 104.9 170.6 L 91.2 173.4 L 90.5 159.4 L 76.5 158.7 L 79.3 145.0 L 66.0 140.6 L 72.3 128.1 L 60.6 120.4 L 70 110.0 L 60.6 99.5 L 72.3 91.8 L 66.0 79.3 L 79.3 75.0 L 76.5 61.2 L 90.5 60.5 L 91.2 46.5 L 104.9 49.3 L 109.3 36.0 L 121.8 42.3 L 129.5 30.6 L 139.9 40 L 150.4 30.6 L 158.1 42.3 L 170.6 36.0 L 174.9 49.3 L 188.7 46.5 L 189.4 60.5 L 203.4 61.2 L 200.6 74.9 L 213.9 79.3 L 207.6 91.8 L 219.3 99.5 L 210 109.9 z"  opacity="0" stroke="rgb(193,40,40)" stroke-opacity="1" stroke-width="1"></path><g class="highcharts-tooltip"  style="cursor:default;padding:0;white-space:nowrap;" transform="translate(0,-9999)"><path fill="none" d="M 3 0 L 13 0 C 16 0 16 0 16 3 L 16 13 C 16 16 16 16 13 16 L 3 16 C 0 16 0 16 0 13 L 0 3 C 0 0 0 0 3 0"  stroke="black" stroke-opacity="0.0" stroke-width="5" transform="translate(1, 1)"></path><path fill="none" d="M 3 0 L 13 0 C 16 0 16 0 16 3 L 16 13 C 16 16 16 16 13 16 L 3 16 C 0 16 0 16 0 13 L 0 3 C 0 0 0 0 3 0"  stroke="black" stroke-opacity="0.0" stroke-width="3" transform="translate(1, 1)"></path><path fill="none" d="M 3 0 L 13 0 C 16 0 16 0 16 3 L 16 13 C 16 16 16 16 13 16 L 3 16 C 0 16 0 16 0 13 L 0 3 C 0 0 0 0 3 0"  stroke="black" stroke-opacity="0.1" stroke-width="1" transform="translate(1, 1)"></path><path fill="rgb(249, 249, 249)" fill-opacity=" .85" d="M 3 0 L 13 0 C 16 0 16 0 16 3 L 16 13 C 16 16 16 16 13 16 L 3 16 C 0 16 0 16 0 13 L 0 3 C 0 0 0 0 3 0"></path><text x="8"  style="font-size:12px;color:#333333;width:250px;fill:#333333;" transform="translate(0,20)"></text></g></svg>