<svg version="1.1" style="font-family: signika, serif; font-size: 12px; background-image: url(http://www.highcharts.com/samples/graphics/sand.png); background-attachment: initial; background-origin: initial; background-clip: initial; background-color: initial; background-position: initial initial; background-repeat: initial initial; " xmlns="http://www.w3.org/2000/svg" width="584" height="400" viewBox="0 0 584 400" xmlns:xlink="http://www.w3.org/1999/xlink"><style type="text/css"><![CDATA[@import url(http://fonts.googleapis.com/css?family=Signika:700);]]></style><desc>Created with Highcharts 4.1.4</desc><defs><clipPath id="highcharts-1"><rect x="0" y="0" width="509" height="281"></rect></clipPath><clipPath id="highcharts-2"><rect x="-99" y="-44" width="608" height="400"></rect></clipPath><clipPath id="highcharts-3"><rect x="0" y="0" width="509" height="281"></rect></clipPath></defs><g class="highcharts-grid" ></g><g class="highcharts-grid" ><path fill="none" d="M 65 325.5 L 574 325.5" stroke="#D8D8D8" stroke-width="1"  opacity="1"></path><path fill="none" d="M 65 255.5 L 574 255.5" stroke="#D8D8D8" stroke-width="1"  opacity="1"></path><path fill="none" d="M 65 185.5 L 574 185.5" stroke="#D8D8D8" stroke-width="1"  opacity="1"></path><path fill="none" d="M 65 114.5 L 574 114.5" stroke="#D8D8D8" stroke-width="1"  opacity="1"></path><path fill="none" d="M 65 43.5 L 574 43.5" stroke="#D8D8D8" stroke-width="1"  opacity="1"></path></g><g class="highcharts-axis" ><path fill="none" d="M 166.5 325 L 166.5 335" stroke="#C0D0E0" stroke-width="1" opacity="1"></path><path fill="none" d="M 268.5 325 L 268.5 335" stroke="#C0D0E0" stroke-width="1" opacity="1"></path><path fill="none" d="M 369.5 325 L 369.5 335" stroke="#C0D0E0" stroke-width="1" opacity="1"></path><path fill="none" d="M 471.5 325 L 471.5 335" stroke="#C0D0E0" stroke-width="1" opacity="1"></path><path fill="none" d="M 574.5 325 L 574.5 335" stroke="#C0D0E0" stroke-width="1" opacity="1"></path><path fill="none" d="M 64.5 325 L 64.5 335" stroke="#C0D0E0" stroke-width="1" opacity="1"></path><path fill="none" d="M 65 325.5 L 574 325.5" stroke="#C0D0E0" stroke-width="1"  visibility="visible"></path></g><g class="highcharts-axis" ><text x="24"  text-anchor="middle" transform="translate(0,0) rotate(270 24 184.5)" class=" highcharts-yaxis-title" style="color:#707070;fill:#707070;" visibility="visible" y="184.5">Values</text></g><text x="115" y="74"  style="position:absolute;color:black;fill:black;"><tspan>Total fruit consumption</tspan></text><g class="highcharts-series-group" ><g class="highcharts-series highcharts-tracker" visibility="visible"  transform="translate(65,44) scale(1 1)" style="" clip-path="url(#highcharts-1)"><rect x="21.5" y="197.5" width="17" height="84" stroke="black" stroke-width="5" fill="none" rx="0" ry="0"  stroke-opacity="0.0" transform="translate(1, 1)"></rect><rect x="21.5" y="197.5" width="17" height="84" stroke="black" stroke-width="3" fill="none" rx="0" ry="0"  stroke-opacity="0.0" transform="translate(1, 1)"></rect><rect x="21.5" y="197.5" width="17" height="84" stroke="black" stroke-width="1" fill="none" rx="0" ry="0"  stroke-opacity="0.1" transform="translate(1, 1)"></rect><rect x="21.5" y="197.5" width="17" height="84" stroke="#FFFFFF" stroke-width="1" fill="#f45b5b" rx="0" ry="0"></rect><rect x="123.5" y="225.5" width="17" height="56" stroke="black" stroke-width="5" fill="none" rx="0" ry="0"  stroke-opacity="0.0" transform="translate(1, 1)"></rect><rect x="123.5" y="225.5" width="17" height="56" stroke="black" stroke-width="3" fill="none" rx="0" ry="0"  stroke-opacity="0.0" transform="translate(1, 1)"></rect><rect x="123.5" y="225.5" width="17" height="56" stroke="black" stroke-width="1" fill="none" rx="0" ry="0"  stroke-opacity="0.1" transform="translate(1, 1)"></rect><rect x="123.5" y="225.5" width="17" height="56" stroke="#FFFFFF" stroke-width="1" fill="#f45b5b" rx="0" ry="0"></rect><rect x="225.5" y="253.5" width="17" height="28" stroke="black" stroke-width="5" fill="none" rx="0" ry="0"  stroke-opacity="0.0" transform="translate(1, 1)"></rect><rect x="225.5" y="253.5" width="17" height="28" stroke="black" stroke-width="3" fill="none" rx="0" ry="0"  stroke-opacity="0.0" transform="translate(1, 1)"></rect><rect x="225.5" y="253.5" width="17" height="28" stroke="black" stroke-width="1" fill="none" rx="0" ry="0"  stroke-opacity="0.1" transform="translate(1, 1)"></rect><rect x="225.5" y="253.5" width="17" height="28" stroke="#FFFFFF" stroke-width="1" fill="#f45b5b" rx="0" ry="0"></rect><rect x="327.5" y="197.5" width="17" height="84" stroke="black" stroke-width="5" fill="none" rx="0" ry="0"  stroke-opacity="0.0" transform="translate(1, 1)"></rect><rect x="327.5" y="197.5" width="17" height="84" stroke="black" stroke-width="3" fill="none" rx="0" ry="0"  stroke-opacity="0.0" transform="translate(1, 1)"></rect><rect x="327.5" y="197.5" width="17" height="84" stroke="black" stroke-width="1" fill="none" rx="0" ry="0"  stroke-opacity="0.1" transform="translate(1, 1)"></rect><rect x="327.5" y="197.5" width="17" height="84" stroke="#FFFFFF" stroke-width="1" fill="#f45b5b" rx="0" ry="0"></rect><rect x="429.5" y="169.5" width="17" height="112" stroke="black" stroke-width="5" fill="none" rx="0" ry="0"  stroke-opacity="0.0" transform="translate(1, 1)"></rect><rect x="429.5" y="169.5" width="17" height="112" stroke="black" stroke-width="3" fill="none" rx="0" ry="0"  stroke-opacity="0.0" transform="translate(1, 1)"></rect><rect x="429.5" y="169.5" width="17" height="112" stroke="black" stroke-width="1" fill="none" rx="0" ry="0"  stroke-opacity="0.1" transform="translate(1, 1)"></rect><rect x="429.5" y="169.5" width="17" height="112" stroke="#FFFFFF" stroke-width="1" fill="#f45b5b" rx="0" ry="0"></rect></g><g class="highcharts-markers" visibility="visible"  transform="translate(65,44) scale(1 1)"></g><g class="highcharts-series highcharts-tracker" visibility="visible"  transform="translate(65,44) scale(1 1)" style="" clip-path="url(#highcharts-1)"><rect x="42.5" y="225.5" width="17" height="56" stroke="black" stroke-width="5" fill="none" rx="0" ry="0"  stroke-opacity="0.0" transform="translate(1, 1)"></rect><rect x="42.5" y="225.5" width="17" height="56" stroke="black" stroke-width="3" fill="none" rx="0" ry="0"  stroke-opacity="0.0" transform="translate(1, 1)"></rect><rect x="42.5" y="225.5" width="17" height="56" stroke="black" stroke-width="1" fill="none" rx="0" ry="0"  stroke-opacity="0.1" transform="translate(1, 1)"></rect><rect x="42.5" y="225.5" width="17" height="56" stroke="#FFFFFF" stroke-width="1" fill="#8085e9" rx="0" ry="0"></rect><rect x="144.5" y="197.5" width="17" height="84" stroke="black" stroke-width="5" fill="none" rx="0" ry="0"  stroke-opacity="0.0" transform="translate(1, 1)"></rect><rect x="144.5" y="197.5" width="17" height="84" stroke="black" stroke-width="3" fill="none" rx="0" ry="0"  stroke-opacity="0.0" transform="translate(1, 1)"></rect><rect x="144.5" y="197.5" width="17" height="84" stroke="black" stroke-width="1" fill="none" rx="0" ry="0"  stroke-opacity="0.1" transform="translate(1, 1)"></rect><rect x="144.5" y="197.5" width="17" height="84" stroke="#FFFFFF" stroke-width="1" fill="#8085e9" rx="0" ry="0"></rect><rect x="245.5" y="141.5" width="17" height="140" stroke="black" stroke-width="5" fill="none" rx="0" ry="0"  stroke-opacity="0.0" transform="translate(1, 1)"></rect><rect x="245.5" y="141.5" width="17" height="140" stroke="black" stroke-width="3" fill="none" rx="0" ry="0"  stroke-opacity="0.0" transform="translate(1, 1)"></rect><rect x="245.5" y="141.5" width="17" height="140" stroke="black" stroke-width="1" fill="none" rx="0" ry="0"  stroke-opacity="0.1" transform="translate(1, 1)"></rect><rect x="245.5" y="141.5" width="17" height="140" stroke="#FFFFFF" stroke-width="1" fill="#8085e9" rx="0" ry="0"></rect><rect x="347.5" y="84.5" width="17" height="197" stroke="black" stroke-width="5" fill="none" rx="0" ry="0"  stroke-opacity="0.0" transform="translate(1, 1)"></rect><rect x="347.5" y="84.5" width="17" height="197" stroke="black" stroke-width="3" fill="none" rx="0" ry="0"  stroke-opacity="0.0" transform="translate(1, 1)"></rect><rect x="347.5" y="84.5" width="17" height="197" stroke="black" stroke-width="1" fill="none" rx="0" ry="0"  stroke-opacity="0.1" transform="translate(1, 1)"></rect><rect x="347.5" y="84.5" width="17" height="197" stroke="#FFFFFF" stroke-width="1" fill="#8085e9" rx="0" ry="0"></rect><rect x="449.5" y="112.5" width="17" height="169" stroke="black" stroke-width="5" fill="none" rx="0" ry="0"  stroke-opacity="0.0" transform="translate(1, 1)"></rect><rect x="449.5" y="112.5" width="17" height="169" stroke="black" stroke-width="3" fill="none" rx="0" ry="0"  stroke-opacity="0.0" transform="translate(1, 1)"></rect><rect x="449.5" y="112.5" width="17" height="169" stroke="black" stroke-width="1" fill="none" rx="0" ry="0"  stroke-opacity="0.1" transform="translate(1, 1)"></rect><rect x="449.5" y="112.5" width="17" height="169" stroke="#FFFFFF" stroke-width="1" fill="#8085e9" rx="0" ry="0"></rect></g><g class="highcharts-markers" visibility="visible"  transform="translate(65,44) scale(1 1)"></g><g class="highcharts-series highcharts-tracker" visibility="visible"  transform="translate(65,44) scale(1 1)" style="" clip-path="url(#highcharts-1)"><rect x="62.5" y="169.5" width="17" height="112" stroke="black" stroke-width="5" fill="none" rx="0" ry="0"  stroke-opacity="0.0" transform="translate(1, 1)"></rect><rect x="62.5" y="169.5" width="17" height="112" stroke="black" stroke-width="3" fill="none" rx="0" ry="0"  stroke-opacity="0.0" transform="translate(1, 1)"></rect><rect x="62.5" y="169.5" width="17" height="112" stroke="black" stroke-width="1" fill="none" rx="0" ry="0"  stroke-opacity="0.1" transform="translate(1, 1)"></rect><rect x="62.5" y="169.5" width="17" height="112" stroke="#FFFFFF" stroke-width="1" fill="#8d4654" rx="0" ry="0"></rect><rect x="164.5" y="197.5" width="17" height="84" stroke="black" stroke-width="5" fill="none" rx="0" ry="0"  stroke-opacity="0.0" transform="translate(1, 1)"></rect><rect x="164.5" y="197.5" width="17" height="84" stroke="black" stroke-width="3" fill="none" rx="0" ry="0"  stroke-opacity="0.0" transform="translate(1, 1)"></rect><rect x="164.5" y="197.5" width="17" height="84" stroke="black" stroke-width="1" fill="none" rx="0" ry="0"  stroke-opacity="0.1" transform="translate(1, 1)"></rect><rect x="164.5" y="197.5" width="17" height="84" stroke="#FFFFFF" stroke-width="1" fill="#8d4654" rx="0" ry="0"></rect><rect x="266.5" y="197.5" width="17" height="84" stroke="black" stroke-width="5" fill="none" rx="0" ry="0"  stroke-opacity="0.0" transform="translate(1, 1)"></rect><rect x="266.5" y="197.5" width="17" height="84" stroke="black" stroke-width="3" fill="none" rx="0" ry="0"  stroke-opacity="0.0" transform="translate(1, 1)"></rect><rect x="266.5" y="197.5" width="17" height="84" stroke="black" stroke-width="1" fill="none" rx="0" ry="0"  stroke-opacity="0.1" transform="translate(1, 1)"></rect><rect x="266.5" y="197.5" width="17" height="84" stroke="#FFFFFF" stroke-width="1" fill="#8d4654" rx="0" ry="0"></rect><rect x="368.5" y="28.5" width="17" height="253" stroke="black" stroke-width="5" fill="none" rx="0" ry="0"  stroke-opacity="0.0" transform="translate(1, 1)"></rect><rect x="368.5" y="28.5" width="17" height="253" stroke="black" stroke-width="3" fill="none" rx="0" ry="0"  stroke-opacity="0.0" transform="translate(1, 1)"></rect><rect x="368.5" y="28.5" width="17" height="253" stroke="black" stroke-width="1" fill="none" rx="0" ry="0"  stroke-opacity="0.1" transform="translate(1, 1)"></rect><rect x="368.5" y="28.5" width="17" height="253" stroke="#FFFFFF" stroke-width="1" fill="#8d4654" rx="0" ry="0"></rect><rect x="469.5" y="281.5" width="17" height="0" stroke="black" stroke-width="5" fill="none" rx="0" ry="0"  stroke-opacity="0.0" transform="translate(1, 1)"></rect><rect x="469.5" y="281.5" width="17" height="0" stroke="black" stroke-width="3" fill="none" rx="0" ry="0"  stroke-opacity="0.0" transform="translate(1, 1)"></rect><rect x="469.5" y="281.5" width="17" height="0" stroke="black" stroke-width="1" fill="none" rx="0" ry="0"  stroke-opacity="0.1" transform="translate(1, 1)"></rect><rect x="469.5" y="281.5" width="17" height="0" stroke="#FFFFFF" stroke-width="1" fill="#8d4654" rx="0" ry="0"></rect></g><g class="highcharts-markers" visibility="visible"  transform="translate(65,44) scale(1 1)"></g><g class="highcharts-series" visibility="visible"  transform="translate(65,44) scale(1 1)" clip-path="url(#highcharts-3)"><path fill="none" d="M 50.9 196.7 C 50.9 196.7 111.9 205.9 152.7 205.9 C 193.4 205.9 213.7 205.9 254.5 196.7 C 295.2 187.4 315.5 103.1 356.2 103.1 C 397.0 103.1 458.0 187.4 458.0 187.4" stroke="black" stroke-width="5"  stroke-linejoin="round" stroke-linecap="round"  stroke-opacity="0.0" transform="translate(1, 1)"></path><path fill="none" d="M 50.9 196.7 C 50.9 196.7 111.9 205.9 152.7 205.9 C 193.4 205.9 213.7 205.9 254.5 196.7 C 295.2 187.4 315.5 103.1 356.2 103.1 C 397.0 103.1 458.0 187.4 458.0 187.4" stroke="black" stroke-width="3"  stroke-linejoin="round" stroke-linecap="round"  stroke-opacity="0.0" transform="translate(1, 1)"></path><path fill="none" d="M 50.9 196.7 C 50.9 196.7 111.9 205.9 152.7 205.9 C 193.4 205.9 213.7 205.9 254.5 196.7 C 295.2 187.4 315.5 103.1 356.2 103.1 C 397.0 103.1 458.0 187.4 458.0 187.4" stroke="black" stroke-width="1"  stroke-linejoin="round" stroke-linecap="round"  stroke-opacity="0.1" transform="translate(1, 1)"></path><path fill="none" d="M 50.9 196.7 C 50.9 196.7 111.9 205.9 152.7 205.9 C 193.4 205.9 213.7 205.9 254.5 196.7 C 295.2 187.4 315.5 103.1 356.2 103.1 C 397.0 103.1 458.0 187.4 458.0 187.4" stroke="#7798BF" stroke-width="2"  stroke-linejoin="round" stroke-linecap="round"></path><path fill="none" d="M 40.9 196.7 L 50.9 196.7 C 50.9 196.7 111.9 205.9 152.7 205.9 C 193.4 205.9 213.7 205.9 254.5 196.7 C 295.2 187.4 315.5 103.1 356.2 103.1 C 397.0 103.1 458.0 187.4 458.0 187.4 L 468.0 187.4" stroke-linejoin="round" visibility="visible" stroke="rgb(192,192,192)" stroke-opacity="0.0" stroke-width="22"  class=" highcharts-tracker" style=""></path></g><g class="highcharts-markers highcharts-tracker" visibility="visible"  transform="translate(65,44) scale(1 1)" clip-path="url(#highcharts-2)" style=""><path fill="white" d="M 458 183.4 C 463.3 183.4 463.3 191.4 458 191.4 C 452.6 191.4 452.6 183.4 458 183.4 Z" stroke="#7798BF" stroke-width="2"></path><path fill="white" d="M 356 99.1 C 361.3 99.1 361.3 107.1 356 107.1 C 350.6 107.1 350.6 99.1 356 99.1 Z" stroke="#7798BF" stroke-width="2"></path><path fill="white" d="M 254 192.7 C 259.3 192.7 259.3 200.7 254 200.7 C 248.6 200.7 248.6 192.7 254 192.7 Z" stroke="#7798BF" stroke-width="2"></path><path fill="white" d="M 152 201.9 C 157.3 201.9 157.3 209.9 152 209.9 C 146.6 209.9 146.6 201.9 152 201.9 Z" stroke="#7798BF" stroke-width="2"></path><path fill="white" d="M 50 192.7 C 55.3 192.7 55.3 200.7 50 200.7 C 44.6 200.7 44.6 192.7 50 192.7 Z" stroke="#7798BF" stroke-width="2"></path></g><g class="highcharts-series highcharts-tracker" visibility="visible"  transform="translate(65,44) scale(1 1)" style=""><g class="highcharts-shadow"><g class="highcharts-shadow" transform="translate(0,0)"><path fill="none" d="M 119.9 50.0 A 50 50 0 0 1 169.8 95.6 L 120 100 A 0 0 0 0 0 120 100 Z" stroke="black" stroke-width="5" stroke-linejoin="round" transform="translate(1, 1)"  stroke-opacity="0.0" r="50"></path><path fill="none" d="M 119.9 50.0 A 50 50 0 0 1 169.8 95.6 L 120 100 A 0 0 0 0 0 120 100 Z" stroke="black" stroke-width="3" stroke-linejoin="round" transform="translate(1, 1)"  stroke-opacity="0.0" r="50"></path><path fill="none" d="M 119.9 50.0 A 50 50 0 0 1 169.8 95.6 L 120 100 A 0 0 0 0 0 120 100 Z" stroke="black" stroke-width="1" stroke-linejoin="round" transform="translate(1, 1)"  stroke-opacity="0.1" r="50"></path></g><g class="highcharts-shadow" transform="translate(0,0)"><path fill="none" d="M 169.8 95.7 A 50 50 0 0 1 78.7 128.2 L 120 100 A 0 0 0 0 0 120 100 Z" stroke="black" stroke-width="5" stroke-linejoin="round" transform="translate(1, 1)"  stroke-opacity="0.0" r="50"></path><path fill="none" d="M 169.8 95.7 A 50 50 0 0 1 78.7 128.2 L 120 100 A 0 0 0 0 0 120 100 Z" stroke="black" stroke-width="3" stroke-linejoin="round" transform="translate(1, 1)"  stroke-opacity="0.0" r="50"></path><path fill="none" d="M 169.8 95.7 A 50 50 0 0 1 78.7 128.2 L 120 100 A 0 0 0 0 0 120 100 Z" stroke="black" stroke-width="1" stroke-linejoin="round" transform="translate(1, 1)"  stroke-opacity="0.1" r="50"></path></g><g class="highcharts-shadow" transform="translate(0,0)"><path fill="none" d="M 78.7 128.2 A 50 50 0 0 1 119.9 50.0 L 120 100 A 0 0 0 0 0 120 100 Z" stroke="black" stroke-width="5" stroke-linejoin="round" transform="translate(1, 1)"  stroke-opacity="0.0" r="50"></path><path fill="none" d="M 78.7 128.2 A 50 50 0 0 1 119.9 50.0 L 120 100 A 0 0 0 0 0 120 100 Z" stroke="black" stroke-width="3" stroke-linejoin="round" transform="translate(1, 1)"  stroke-opacity="0.0" r="50"></path><path fill="none" d="M 78.7 128.2 A 50 50 0 0 1 119.9 50.0 L 120 100 A 0 0 0 0 0 120 100 Z" stroke="black" stroke-width="1" stroke-linejoin="round" transform="translate(1, 1)"  stroke-opacity="0.1" r="50"></path></g></g><path fill="#f45b5b" d="M 119.9 50.0 A 50 50 0 0 1 169.8 95.6 L 120 100 A 0 0 0 0 0 120 100 Z" stroke="#FFFFFF" stroke-width="1" stroke-linejoin="round" transform="translate(0,0)"></path><path fill="#8085e9" d="M 169.8 95.7 A 50 50 0 0 1 78.7 128.2 L 120 100 A 0 0 0 0 0 120 100 Z" stroke="#FFFFFF" stroke-width="1" stroke-linejoin="round" transform="translate(0,0)"></path><path fill="#8d4654" d="M 78.7 128.2 A 50 50 0 0 1 119.9 50.0 L 120 100 A 0 0 0 0 0 120 100 Z" stroke="#FFFFFF" stroke-width="1" stroke-linejoin="round" transform="translate(0,0)"></path></g><g class="highcharts-markers" visibility="visible"  transform="translate(65,44) scale(1 1)"></g></g><text x="292" text-anchor="middle" class="highcharts-title"  style="color:black;font-size:16px;font-weight:bold;fill:black;width:520px;" y="22"><tspan>Combination chart</tspan></text><g class="highcharts-legend"  transform="translate(143,358)"><g ><g><g class="highcharts-legend-item"  transform="translate(8,3)"><text x="21" style="color:#333333;font-size:13px;font-weight:bold;cursor:pointer;fill:#333333;" text-anchor="start"  y="16">Jane</text><rect x="0" y="5" width="16" height="12"  fill="#f45b5b"></rect></g><g class="highcharts-legend-item"  transform="translate(79,3)"><text x="21" y="16" style="color:#333333;font-size:13px;font-weight:bold;cursor:pointer;fill:#333333;" text-anchor="start" >John</text><rect x="0" y="5" width="16" height="12"  fill="#8085e9"></rect></g><g class="highcharts-legend-item"  transform="translate(150,3)"><text x="21" y="16" style="color:#333333;font-size:13px;font-weight:bold;cursor:pointer;fill:#333333;" text-anchor="start" >Joe</text><rect x="0" y="5" width="16" height="12"  fill="#8d4654"></rect></g><g class="highcharts-legend-item"  transform="translate(213,3)"><path fill="none" d="M 0 12 L 16 12" stroke="#7798BF" stroke-width="2"></path><path fill="white" d="M 8 8 C 13.3 8 13.3 16 8 16 C 2.6 16 2.6 8 8 8 Z" stroke="#7798BF" stroke-width="2"></path><text x="21" y="16" style="color:#333333;font-size:13px;font-weight:bold;cursor:pointer;fill:#333333;" text-anchor="start" >Average</text></g></g></g></g><g class="highcharts-axis-labels highcharts-xaxis-labels" ><text x="115.9" style="color:#6e6e70;cursor:default;font-size:11px;fill:#6e6e70;width:103px;text-overflow:clip;" text-anchor="middle" transform="translate(0,0)" y="344" opacity="1">Apples</text><text x="217.7" style="color:#6e6e70;cursor:default;font-size:11px;fill:#6e6e70;width:103px;text-overflow:clip;" text-anchor="middle" transform="translate(0,0)" y="344" opacity="1">Oranges</text><text x="319.5" style="color:#6e6e70;cursor:default;font-size:11px;fill:#6e6e70;width:103px;text-overflow:clip;" text-anchor="middle" transform="translate(0,0)" y="344" opacity="1">Pears</text><text x="421.3" style="color:#6e6e70;cursor:default;font-size:11px;fill:#6e6e70;width:103px;text-overflow:clip;" text-anchor="middle" transform="translate(0,0)" y="344" opacity="1">Bananas</text><text x="523.1" style="color:#6e6e70;cursor:default;font-size:11px;fill:#6e6e70;width:103px;text-overflow:clip;" text-anchor="middle" transform="translate(0,0)" y="344" opacity="1">Plums</text></g><g class="highcharts-axis-labels highcharts-yaxis-labels" ><text x="50" style="color:#6e6e70;cursor:default;font-size:11px;fill:#6e6e70;width:183px;text-overflow:clip;" text-anchor="end" transform="translate(0,0)" y="330" opacity="1">0</text><text x="50" style="color:#6e6e70;cursor:default;font-size:11px;fill:#6e6e70;width:183px;text-overflow:clip;" text-anchor="end" transform="translate(0,0)" y="259" opacity="1">2.5</text><text x="50" style="color:#6e6e70;cursor:default;font-size:11px;fill:#6e6e70;width:183px;text-overflow:clip;" text-anchor="end" transform="translate(0,0)" y="189" opacity="1">5</text><text x="50" style="color:#6e6e70;cursor:default;font-size:11px;fill:#6e6e70;width:183px;text-overflow:clip;" text-anchor="end" transform="translate(0,0)" y="119" opacity="1">7.5</text><text x="50" style="color:#6e6e70;cursor:default;font-size:11px;fill:#6e6e70;width:183px;text-overflow:clip;" text-anchor="end" transform="translate(0,0)" y="49" opacity="1">10</text></g><g class="highcharts-tooltip"  style="cursor:default;padding:0;white-space:nowrap;" transform="translate(0,-9999)"><path fill="none" d="M 3 0 L 13 0 C 16 0 16 0 16 3 L 16 13 C 16 16 16 16 13 16 L 3 16 C 0 16 0 16 0 13 L 0 3 C 0 0 0 0 3 0"  stroke="black" stroke-opacity="0.0" stroke-width="5" transform="translate(1, 1)"></path><path fill="none" d="M 3 0 L 13 0 C 16 0 16 0 16 3 L 16 13 C 16 16 16 16 13 16 L 3 16 C 0 16 0 16 0 13 L 0 3 C 0 0 0 0 3 0"  stroke="black" stroke-opacity="0.0" stroke-width="3" transform="translate(1, 1)"></path><path fill="none" d="M 3 0 L 13 0 C 16 0 16 0 16 3 L 16 13 C 16 16 16 16 13 16 L 3 16 C 0 16 0 16 0 13 L 0 3 C 0 0 0 0 3 0"  stroke="black" stroke-opacity="0.1" stroke-width="1" transform="translate(1, 1)"></path><path fill="rgb(249, 249, 249)" fill-opacity=" .85" d="M 3 0 L 13 0 C 16 0 16 0 16 3 L 16 13 C 16 16 16 16 13 16 L 3 16 C 0 16 0 16 0 13 L 0 3 C 0 0 0 0 3 0"></path><text x="8"  style="font-size:12px;color:#333333;fill:#333333;" transform="translate(0,20)"></text></g></svg>