<svg version="1.1" style="font-family: signika, serif; font-size: 12px; background-image: url(http://www.highcharts.com/samples/graphics/sand.png); background-attachment: initial; background-origin: initial; background-clip: initial; background-color: initial; background-position: initial initial; background-repeat: initial initial; " xmlns="http://www.w3.org/2000/svg" width="584" height="400" viewBox="0 0 584 400" xmlns:xlink="http://www.w3.org/1999/xlink"><style type="text/css"><![CDATA[@import url(http://fonts.googleapis.com/css?family=Signika:700);]]></style><desc>Created with Highcharts 4.1.4</desc><defs><clipPath id="highcharts-1"><rect x="0" y="0" width="345" height="296"></rect></clipPath><clipPath id="highcharts-2"><rect x="-99" y="-58" width="444" height="400"></rect></clipPath><clipPath id="highcharts-3"><rect x="0" y="0" width="345" height="296"></rect></clipPath></defs><g class="highcharts-grid" ></g><g class="highcharts-grid" ><path fill="none" d="M 86 354.5 L 431 354.5" stroke="#D8D8D8" stroke-width="1"  opacity="1"></path><path fill="none" d="M 86 295.5 L 431 295.5" stroke="#D8D8D8" stroke-width="1"  opacity="1"></path><path fill="none" d="M 86 236.5 L 431 236.5" stroke="#D8D8D8" stroke-width="1"  opacity="1"></path><path fill="none" d="M 86 176.5 L 431 176.5" stroke="#D8D8D8" stroke-width="1"  opacity="1"></path><path fill="none" d="M 86 117.5 L 431 117.5" stroke="#D8D8D8" stroke-width="1"  opacity="1"></path><path fill="none" d="M 86 57.5 L 431 57.5" stroke="#D8D8D8" stroke-width="1"  opacity="1"></path></g><g class="highcharts-grid" ></g><g class="highcharts-grid" ></g><g class="highcharts-axis" ><path fill="none" d="M 114.5 354 L 114.5 364" stroke="#C0D0E0" stroke-width="1" opacity="1"></path><path fill="none" d="M 143.5 354 L 143.5 364" stroke="#C0D0E0" stroke-width="1" opacity="1"></path><path fill="none" d="M 171.5 354 L 171.5 364" stroke="#C0D0E0" stroke-width="1" opacity="1"></path><path fill="none" d="M 200.5 354 L 200.5 364" stroke="#C0D0E0" stroke-width="1" opacity="1"></path><path fill="none" d="M 229.5 354 L 229.5 364" stroke="#C0D0E0" stroke-width="1" opacity="1"></path><path fill="none" d="M 258.5 354 L 258.5 364" stroke="#C0D0E0" stroke-width="1" opacity="1"></path><path fill="none" d="M 286.5 354 L 286.5 364" stroke="#C0D0E0" stroke-width="1" opacity="1"></path><path fill="none" d="M 315.5 354 L 315.5 364" stroke="#C0D0E0" stroke-width="1" opacity="1"></path><path fill="none" d="M 344.5 354 L 344.5 364" stroke="#C0D0E0" stroke-width="1" opacity="1"></path><path fill="none" d="M 373.5 354 L 373.5 364" stroke="#C0D0E0" stroke-width="1" opacity="1"></path><path fill="none" d="M 401.5 354 L 401.5 364" stroke="#C0D0E0" stroke-width="1" opacity="1"></path><path fill="none" d="M 431.5 354 L 431.5 364" stroke="#C0D0E0" stroke-width="1" opacity="1"></path><path fill="none" d="M 85.5 354 L 85.5 364" stroke="#C0D0E0" stroke-width="1" opacity="1"></path><path fill="none" d="M 86 354.5 L 431 354.5" stroke="#C0D0E0" stroke-width="1"  visibility="visible"></path></g><g class="highcharts-axis" ><text x="480"  text-anchor="middle" transform="translate(0,0) rotate(90 480 206)" class=" highcharts-yaxis-title" style="color:#8d4654;fill:#8d4654;" visibility="visible" y="206">Temperature</text></g><g class="highcharts-axis" ><text x="24"  text-anchor="middle" transform="translate(0,0) rotate(270 24 206)" class=" highcharts-yaxis-title" style="color:#f45b5b;fill:#f45b5b;" visibility="visible" y="206">Rainfall</text></g><g class="highcharts-axis" ><text x="560"  text-anchor="middle" transform="translate(0,0) rotate(90 560 206)" class=" highcharts-yaxis-title" style="color:#8085e9;fill:#8085e9;" visibility="visible" y="206"><tspan>Sea-Level Pressure</tspan></text></g><g class="highcharts-series-group" ><g class="highcharts-series highcharts-tracker" visibility="visible"  transform="translate(86,58) scale(1 1)" style="" clip-path="url(#highcharts-1)"><rect x="6.5" y="237.5" width="14" height="59" stroke="black" stroke-width="5" fill="none" rx="0" ry="0"  stroke-opacity="0.0" transform="translate(1, 1)"></rect><rect x="6.5" y="237.5" width="14" height="59" stroke="black" stroke-width="3" fill="none" rx="0" ry="0"  stroke-opacity="0.0" transform="translate(1, 1)"></rect><rect x="6.5" y="237.5" width="14" height="59" stroke="black" stroke-width="1" fill="none" rx="0" ry="0"  stroke-opacity="0.1" transform="translate(1, 1)"></rect><rect x="6.5" y="237.5" width="14" height="59" stroke="#FFFFFF" stroke-width="1" fill="#f45b5b" rx="0" ry="0"></rect><rect x="35.5" y="211.5" width="14" height="85" stroke="black" stroke-width="5" fill="none" rx="0" ry="0"  stroke-opacity="0.0" transform="translate(1, 1)"></rect><rect x="35.5" y="211.5" width="14" height="85" stroke="black" stroke-width="3" fill="none" rx="0" ry="0"  stroke-opacity="0.0" transform="translate(1, 1)"></rect><rect x="35.5" y="211.5" width="14" height="85" stroke="black" stroke-width="1" fill="none" rx="0" ry="0"  stroke-opacity="0.1" transform="translate(1, 1)"></rect><rect x="35.5" y="211.5" width="14" height="85" stroke="#FFFFFF" stroke-width="1" fill="#f45b5b" rx="0" ry="0"></rect><rect x="64.5" y="170.5" width="14" height="126" stroke="black" stroke-width="5" fill="none" rx="0" ry="0"  stroke-opacity="0.0" transform="translate(1, 1)"></rect><rect x="64.5" y="170.5" width="14" height="126" stroke="black" stroke-width="3" fill="none" rx="0" ry="0"  stroke-opacity="0.0" transform="translate(1, 1)"></rect><rect x="64.5" y="170.5" width="14" height="126" stroke="black" stroke-width="1" fill="none" rx="0" ry="0"  stroke-opacity="0.1" transform="translate(1, 1)"></rect><rect x="64.5" y="170.5" width="14" height="126" stroke="#FFFFFF" stroke-width="1" fill="#f45b5b" rx="0" ry="0"></rect><rect x="93.5" y="143.5" width="14" height="153" stroke="black" stroke-width="5" fill="none" rx="0" ry="0"  stroke-opacity="0.0" transform="translate(1, 1)"></rect><rect x="93.5" y="143.5" width="14" height="153" stroke="black" stroke-width="3" fill="none" rx="0" ry="0"  stroke-opacity="0.0" transform="translate(1, 1)"></rect><rect x="93.5" y="143.5" width="14" height="153" stroke="black" stroke-width="1" fill="none" rx="0" ry="0"  stroke-opacity="0.1" transform="translate(1, 1)"></rect><rect x="93.5" y="143.5" width="14" height="153" stroke="#FFFFFF" stroke-width="1" fill="#f45b5b" rx="0" ry="0"></rect><rect x="121.5" y="126.5" width="14" height="170" stroke="black" stroke-width="5" fill="none" rx="0" ry="0"  stroke-opacity="0.0" transform="translate(1, 1)"></rect><rect x="121.5" y="126.5" width="14" height="170" stroke="black" stroke-width="3" fill="none" rx="0" ry="0"  stroke-opacity="0.0" transform="translate(1, 1)"></rect><rect x="121.5" y="126.5" width="14" height="170" stroke="black" stroke-width="1" fill="none" rx="0" ry="0"  stroke-opacity="0.1" transform="translate(1, 1)"></rect><rect x="121.5" y="126.5" width="14" height="170" stroke="#FFFFFF" stroke-width="1" fill="#f45b5b" rx="0" ry="0"></rect><rect x="150.5" y="88.5" width="14" height="208" stroke="black" stroke-width="5" fill="none" rx="0" ry="0"  stroke-opacity="0.0" transform="translate(1, 1)"></rect><rect x="150.5" y="88.5" width="14" height="208" stroke="black" stroke-width="3" fill="none" rx="0" ry="0"  stroke-opacity="0.0" transform="translate(1, 1)"></rect><rect x="150.5" y="88.5" width="14" height="208" stroke="black" stroke-width="1" fill="none" rx="0" ry="0"  stroke-opacity="0.1" transform="translate(1, 1)"></rect><rect x="150.5" y="88.5" width="14" height="208" stroke="#FFFFFF" stroke-width="1" fill="#f45b5b" rx="0" ry="0"></rect><rect x="179.5" y="135.5" width="14" height="161" stroke="black" stroke-width="5" fill="none" rx="0" ry="0"  stroke-opacity="0.0" transform="translate(1, 1)"></rect><rect x="179.5" y="135.5" width="14" height="161" stroke="black" stroke-width="3" fill="none" rx="0" ry="0"  stroke-opacity="0.0" transform="translate(1, 1)"></rect><rect x="179.5" y="135.5" width="14" height="161" stroke="black" stroke-width="1" fill="none" rx="0" ry="0"  stroke-opacity="0.1" transform="translate(1, 1)"></rect><rect x="179.5" y="135.5" width="14" height="161" stroke="#FFFFFF" stroke-width="1" fill="#f45b5b" rx="0" ry="0"></rect><rect x="208.5" y="120.5" width="14" height="176" stroke="black" stroke-width="5" fill="none" rx="0" ry="0"  stroke-opacity="0.0" transform="translate(1, 1)"></rect><rect x="208.5" y="120.5" width="14" height="176" stroke="black" stroke-width="3" fill="none" rx="0" ry="0"  stroke-opacity="0.0" transform="translate(1, 1)"></rect><rect x="208.5" y="120.5" width="14" height="176" stroke="black" stroke-width="1" fill="none" rx="0" ry="0"  stroke-opacity="0.1" transform="translate(1, 1)"></rect><rect x="208.5" y="120.5" width="14" height="176" stroke="#FFFFFF" stroke-width="1" fill="#f45b5b" rx="0" ry="0"></rect><rect x="236.5" y="40.5" width="14" height="256" stroke="black" stroke-width="5" fill="none" rx="0" ry="0"  stroke-opacity="0.0" transform="translate(1, 1)"></rect><rect x="236.5" y="40.5" width="14" height="256" stroke="black" stroke-width="3" fill="none" rx="0" ry="0"  stroke-opacity="0.0" transform="translate(1, 1)"></rect><rect x="236.5" y="40.5" width="14" height="256" stroke="black" stroke-width="1" fill="none" rx="0" ry="0"  stroke-opacity="0.1" transform="translate(1, 1)"></rect><rect x="236.5" y="40.5" width="14" height="256" stroke="#FFFFFF" stroke-width="1" fill="#f45b5b" rx="0" ry="0"></rect><rect x="265.5" y="66.5" width="14" height="230" stroke="black" stroke-width="5" fill="none" rx="0" ry="0"  stroke-opacity="0.0" transform="translate(1, 1)"></rect><rect x="265.5" y="66.5" width="14" height="230" stroke="black" stroke-width="3" fill="none" rx="0" ry="0"  stroke-opacity="0.0" transform="translate(1, 1)"></rect><rect x="265.5" y="66.5" width="14" height="230" stroke="black" stroke-width="1" fill="none" rx="0" ry="0"  stroke-opacity="0.1" transform="translate(1, 1)"></rect><rect x="265.5" y="66.5" width="14" height="230" stroke="#FFFFFF" stroke-width="1" fill="#f45b5b" rx="0" ry="0"></rect><rect x="294.5" y="183.5" width="14" height="113" stroke="black" stroke-width="5" fill="none" rx="0" ry="0"  stroke-opacity="0.0" transform="translate(1, 1)"></rect><rect x="294.5" y="183.5" width="14" height="113" stroke="black" stroke-width="3" fill="none" rx="0" ry="0"  stroke-opacity="0.0" transform="translate(1, 1)"></rect><rect x="294.5" y="183.5" width="14" height="113" stroke="black" stroke-width="1" fill="none" rx="0" ry="0"  stroke-opacity="0.1" transform="translate(1, 1)"></rect><rect x="294.5" y="183.5" width="14" height="113" stroke="#FFFFFF" stroke-width="1" fill="#f45b5b" rx="0" ry="0"></rect><rect x="323.5" y="232.5" width="14" height="64" stroke="black" stroke-width="5" fill="none" rx="0" ry="0"  stroke-opacity="0.0" transform="translate(1, 1)"></rect><rect x="323.5" y="232.5" width="14" height="64" stroke="black" stroke-width="3" fill="none" rx="0" ry="0"  stroke-opacity="0.0" transform="translate(1, 1)"></rect><rect x="323.5" y="232.5" width="14" height="64" stroke="black" stroke-width="1" fill="none" rx="0" ry="0"  stroke-opacity="0.1" transform="translate(1, 1)"></rect><rect x="323.5" y="232.5" width="14" height="64" stroke="#FFFFFF" stroke-width="1" fill="#f45b5b" rx="0" ry="0"></rect></g><g class="highcharts-markers" visibility="visible"  transform="translate(86,58) scale(1 1)"></g><g class="highcharts-series" visibility="visible"  transform="translate(86,58) scale(1 1)" clip-path="url(#highcharts-3)"><path fill="none" d="M 14.3 177.6 C 14.3 177.6 31.6 177.6 43.1 177.6 C 54.6 177.6 60.3 177.6 71.8 179.0 C 83.3 180.5 89.1 179.0 100.6 185 C 112.1 190.9 117.8 214.6 129.3 232.3 C 140.8 250.1 146.6 273.8 158.1 273.8 C 169.6 273.8 175.3 273.8 186.8 272.3 C 198.3 270.8 204.1 272.3 215.6 263.4 C 227.1 254.5 232.8 240.3 244.3 220.5 C 255.8 200.6 261.6 179.3 273.1 164.2 C 284.6 149.1 290.3 145.0 301.8 145.0 C 313.3 145.0 330.6 167.2 330.6 167.2" stroke="black" stroke-width="5"  stroke-dasharray="2,2"  stroke-opacity="0.0" transform="translate(1, 1)"></path><path fill="none" d="M 14.3 177.6 C 14.3 177.6 31.6 177.6 43.1 177.6 C 54.6 177.6 60.3 177.6 71.8 179.0 C 83.3 180.5 89.1 179.0 100.6 185 C 112.1 190.9 117.8 214.6 129.3 232.3 C 140.8 250.1 146.6 273.8 158.1 273.8 C 169.6 273.8 175.3 273.8 186.8 272.3 C 198.3 270.8 204.1 272.3 215.6 263.4 C 227.1 254.5 232.8 240.3 244.3 220.5 C 255.8 200.6 261.6 179.3 273.1 164.2 C 284.6 149.1 290.3 145.0 301.8 145.0 C 313.3 145.0 330.6 167.2 330.6 167.2" stroke="black" stroke-width="3"  stroke-dasharray="2,2"  stroke-opacity="0.0" transform="translate(1, 1)"></path><path fill="none" d="M 14.3 177.6 C 14.3 177.6 31.6 177.6 43.1 177.6 C 54.6 177.6 60.3 177.6 71.8 179.0 C 83.3 180.5 89.1 179.0 100.6 185 C 112.1 190.9 117.8 214.6 129.3 232.3 C 140.8 250.1 146.6 273.8 158.1 273.8 C 169.6 273.8 175.3 273.8 186.8 272.3 C 198.3 270.8 204.1 272.3 215.6 263.4 C 227.1 254.5 232.8 240.3 244.3 220.5 C 255.8 200.6 261.6 179.3 273.1 164.2 C 284.6 149.1 290.3 145.0 301.8 145.0 C 313.3 145.0 330.6 167.2 330.6 167.2" stroke="black" stroke-width="1"  stroke-dasharray="2,2"  stroke-opacity="0.1" transform="translate(1, 1)"></path><path fill="none" d="M 14.3 177.6 C 14.3 177.6 31.6 177.6 43.1 177.6 C 54.6 177.6 60.3 177.6 71.8 179.0 C 83.3 180.5 89.1 179.0 100.6 185 C 112.1 190.9 117.8 214.6 129.3 232.3 C 140.8 250.1 146.6 273.8 158.1 273.8 C 169.6 273.8 175.3 273.8 186.8 272.3 C 198.3 270.8 204.1 272.3 215.6 263.4 C 227.1 254.5 232.8 240.3 244.3 220.5 C 255.8 200.6 261.6 179.3 273.1 164.2 C 284.6 149.1 290.3 145.0 301.8 145.0 C 313.3 145.0 330.6 167.2 330.6 167.2" stroke="#8085e9" stroke-width="2"  stroke-dasharray="2,2"></path><path fill="none" d="M 4.3 177.6 L 14.3 177.6 C 14.3 177.6 31.6 177.6 43.1 177.6 C 54.6 177.6 60.3 177.6 71.8 179.0 C 83.3 180.5 89.1 179.0 100.6 185 C 112.1 190.9 117.8 214.6 129.3 232.3 C 140.8 250.1 146.6 273.8 158.1 273.8 C 169.6 273.8 175.3 273.8 186.8 272.3 C 198.3 270.8 204.1 272.3 215.6 263.4 C 227.1 254.5 232.8 240.3 244.3 220.5 C 255.8 200.6 261.6 179.3 273.1 164.2 C 284.6 149.1 290.3 145.0 301.8 145.0 C 313.3 145.0 330.6 167.2 330.6 167.2 L 340.6 167.2" stroke-linejoin="round" visibility="visible" stroke="rgb(192,192,192)" stroke-opacity="0.0" stroke-width="22"  class=" highcharts-tracker" style=""></path></g><g class="highcharts-markers highcharts-tracker" visibility="visible"  transform="translate(86,58) scale(1 1)" clip-path="url(#highcharts-2)" style=""></g><g class="highcharts-series" visibility="visible"  transform="translate(86,58) scale(1 1)" clip-path="url(#highcharts-3)"><path fill="none" d="M 14.3 272.3 C 14.3 272.3 31.6 273.5 43.1 273.5 C 54.6 273.5 60.3 260.7 71.8 242.7 C 83.3 224.7 89.1 204.1 100.6 183.5 C 112.1 162.9 117.8 156.2 129.3 139.7 C 140.8 123.1 146.6 117.2 158.1 100.6 C 169.6 84.0 175.3 68.6 186.8 56.8 C 198.3 44.9 204.1 41.4 215.6 41.4 C 227.1 41.4 232.8 59.9 244.3 79.3 C 255.8 98.7 261.6 116.2 273.1 138.5 C 284.6 160.7 290.3 170.0 301.8 190.6 C 313.3 211.2 330.6 241.5 330.6 241.5" stroke="black" stroke-width="5"  stroke-linejoin="round" stroke-linecap="round"  stroke-opacity="0.0" transform="translate(1, 1)"></path><path fill="none" d="M 14.3 272.3 C 14.3 272.3 31.6 273.5 43.1 273.5 C 54.6 273.5 60.3 260.7 71.8 242.7 C 83.3 224.7 89.1 204.1 100.6 183.5 C 112.1 162.9 117.8 156.2 129.3 139.7 C 140.8 123.1 146.6 117.2 158.1 100.6 C 169.6 84.0 175.3 68.6 186.8 56.8 C 198.3 44.9 204.1 41.4 215.6 41.4 C 227.1 41.4 232.8 59.9 244.3 79.3 C 255.8 98.7 261.6 116.2 273.1 138.5 C 284.6 160.7 290.3 170.0 301.8 190.6 C 313.3 211.2 330.6 241.5 330.6 241.5" stroke="black" stroke-width="3"  stroke-linejoin="round" stroke-linecap="round"  stroke-opacity="0.0" transform="translate(1, 1)"></path><path fill="none" d="M 14.3 272.3 C 14.3 272.3 31.6 273.5 43.1 273.5 C 54.6 273.5 60.3 260.7 71.8 242.7 C 83.3 224.7 89.1 204.1 100.6 183.5 C 112.1 162.9 117.8 156.2 129.3 139.7 C 140.8 123.1 146.6 117.2 158.1 100.6 C 169.6 84.0 175.3 68.6 186.8 56.8 C 198.3 44.9 204.1 41.4 215.6 41.4 C 227.1 41.4 232.8 59.9 244.3 79.3 C 255.8 98.7 261.6 116.2 273.1 138.5 C 284.6 160.7 290.3 170.0 301.8 190.6 C 313.3 211.2 330.6 241.5 330.6 241.5" stroke="black" stroke-width="1"  stroke-linejoin="round" stroke-linecap="round"  stroke-opacity="0.1" transform="translate(1, 1)"></path><path fill="none" d="M 14.3 272.3 C 14.3 272.3 31.6 273.5 43.1 273.5 C 54.6 273.5 60.3 260.7 71.8 242.7 C 83.3 224.7 89.1 204.1 100.6 183.5 C 112.1 162.9 117.8 156.2 129.3 139.7 C 140.8 123.1 146.6 117.2 158.1 100.6 C 169.6 84.0 175.3 68.6 186.8 56.8 C 198.3 44.9 204.1 41.4 215.6 41.4 C 227.1 41.4 232.8 59.9 244.3 79.3 C 255.8 98.7 261.6 116.2 273.1 138.5 C 284.6 160.7 290.3 170.0 301.8 190.6 C 313.3 211.2 330.6 241.5 330.6 241.5" stroke="#8d4654" stroke-width="2"  stroke-linejoin="round" stroke-linecap="round"></path><path fill="none" d="M 4.3 272.3 L 14.3 272.3 C 14.3 272.3 31.6 273.5 43.1 273.5 C 54.6 273.5 60.3 260.7 71.8 242.7 C 83.3 224.7 89.1 204.1 100.6 183.5 C 112.1 162.9 117.8 156.2 129.3 139.7 C 140.8 123.1 146.6 117.2 158.1 100.6 C 169.6 84.0 175.3 68.6 186.8 56.8 C 198.3 44.9 204.1 41.4 215.6 41.4 C 227.1 41.4 232.8 59.9 244.3 79.3 C 255.8 98.7 261.6 116.2 273.1 138.5 C 284.6 160.7 290.3 170.0 301.8 190.6 C 313.3 211.2 330.6 241.5 330.6 241.5 L 340.6 241.5" stroke-linejoin="round" visibility="visible" stroke="rgb(192,192,192)" stroke-opacity="0.0" stroke-width="22"  class=" highcharts-tracker" style=""></path></g><g class="highcharts-markers highcharts-tracker" visibility="visible"  transform="translate(86,58) scale(1 1)" clip-path="url(#highcharts-2)" style=""><path fill="#8d4654" d="M 330 237.5 L 334 241.5 330 245.5 326 241.5 Z"></path><path fill="#8d4654" d="M 301 186.6 L 305 190.6 301 194.6 297 190.6 Z"></path><path fill="#8d4654" d="M 273 134.5 L 277 138.5 273 142.5 269 138.5 Z"></path><path fill="#8d4654" d="M 244 75.3 L 248 79.3 244 83.3 240 79.3 Z"></path><path fill="#8d4654" d="M 215 37.4 L 219 41.4 215 45.4 211 41.4 Z"></path><path fill="#8d4654" d="M 186 52.8 L 190 56.8 186 60.8 182 56.8 Z"></path><path fill="#8d4654" d="M 158 96.6 L 162 100.6 158 104.6 154 100.6 Z"></path><path fill="#8d4654" d="M 129 135.7 L 133 139.7 129 143.7 125 139.7 Z"></path><path fill="#8d4654" d="M 100 179.5 L 104 183.5 100 187.5 96 183.5 Z"></path><path fill="#8d4654" d="M 71 238.7 L 75 242.7 71 246.7 67 242.7 Z"></path><path fill="#8d4654" d="M 43 269.5 L 47 273.5 43 277.5 39 273.5 Z"></path><path fill="#8d4654" d="M 14 268.3 L 18 272.3 14 276.3 10 272.3 Z"></path></g></g><text x="292" text-anchor="middle" class="highcharts-title"  style="color:black;font-size:16px;font-weight:bold;fill:black;width:520px;" y="22"><tspan>Average Monthly Weather Data for Tokyo</tspan></text><text x="292" text-anchor="middle" class="highcharts-subtitle"  style="color:black;fill:black;width:520px;" y="43"><tspan>Source: WorldClimate.com</tspan></text><g class="highcharts-legend"  transform="translate(90,65)"><rect x="0" y="0" width="163" height="59" strokeWidth="0" fill="#FFFFFF" visibility="visible"></rect><g ><g><g class="highcharts-legend-item"  transform="translate(8,3)"><text x="21" style="color:#333333;font-size:13px;font-weight:bold;cursor:pointer;fill:#333333;" text-anchor="start"  y="16">Rainfall</text><rect x="0" y="5" width="16" height="12"  fill="#f45b5b"></rect></g><g class="highcharts-legend-item"  transform="translate(8,19)"><path fill="none" d="M 0 12 L 16 12" stroke-dasharray="2,2" stroke="#8085e9" stroke-width="2"></path><text x="21" y="16" style="color:#333333;font-size:13px;font-weight:bold;cursor:pointer;fill:#333333;" text-anchor="start" ><tspan>Sea-Level Pressure</tspan></text></g><g class="highcharts-legend-item"  transform="translate(8,35)"><path fill="none" d="M 0 12 L 16 12" stroke="#8d4654" stroke-width="2"></path><path fill="#8d4654" d="M 8 8 L 12 12 8 16 4 12 Z"></path><text x="21" y="16" style="color:#333333;font-size:13px;font-weight:bold;cursor:pointer;fill:#333333;" text-anchor="start" >Temperature</text></g></g></g></g><g class="highcharts-axis-labels highcharts-xaxis-labels" ><text x="102.9" style="color:#6e6e70;cursor:default;font-size:11px;fill:#6e6e70;width:400px;text-overflow:ellipsis;" text-anchor="end" transform="translate(0,0) rotate(-45 102.9 370)" y="370" opacity="1"><tspan>Jan</tspan></text><text x="131.7" style="color:#6e6e70;cursor:default;font-size:11px;fill:#6e6e70;width:400px;text-overflow:ellipsis;" text-anchor="end" transform="translate(0,0) rotate(-45 131.7 370)" y="370" opacity="1"><tspan>Feb</tspan></text><text x="160.4" style="color:#6e6e70;cursor:default;font-size:11px;fill:#6e6e70;width:400px;text-overflow:ellipsis;" text-anchor="end" transform="translate(0,0) rotate(-45 160.4 370)" y="370" opacity="1"><tspan>Mar</tspan></text><text x="189.2" style="color:#6e6e70;cursor:default;font-size:11px;fill:#6e6e70;width:400px;text-overflow:ellipsis;" text-anchor="end" transform="translate(0,0) rotate(-45 189.2 370)" y="370" opacity="1"><tspan>Apr</tspan></text><text x="217.9" style="color:#6e6e70;cursor:default;font-size:11px;fill:#6e6e70;width:400px;text-overflow:ellipsis;" text-anchor="end" transform="translate(0,0) rotate(-45 217.9 370)" y="370" opacity="1"><tspan>May</tspan></text><text x="246.7" style="color:#6e6e70;cursor:default;font-size:11px;fill:#6e6e70;width:400px;text-overflow:ellipsis;" text-anchor="end" transform="translate(0,0) rotate(-45 246.7 370)" y="370" opacity="1"><tspan>Jun</tspan></text><text x="275.4" style="color:#6e6e70;cursor:default;font-size:11px;fill:#6e6e70;width:400px;text-overflow:ellipsis;" text-anchor="end" transform="translate(0,0) rotate(-45 275.4 370)" y="370" opacity="1"><tspan>Jul</tspan></text><text x="304.2" style="color:#6e6e70;cursor:default;font-size:11px;fill:#6e6e70;width:400px;text-overflow:ellipsis;" text-anchor="end" transform="translate(0,0) rotate(-45 304.2 370)" y="370" opacity="1"><tspan>Aug</tspan></text><text x="332.9" style="color:#6e6e70;cursor:default;font-size:11px;fill:#6e6e70;width:400px;text-overflow:ellipsis;" text-anchor="end" transform="translate(0,0) rotate(-45 332.9 370)" y="370" opacity="1"><tspan>Sep</tspan></text><text x="361.7" style="color:#6e6e70;cursor:default;font-size:11px;fill:#6e6e70;width:400px;text-overflow:ellipsis;" text-anchor="end" transform="translate(0,0) rotate(-45 361.7 370)" y="370" opacity="1"><tspan>Oct</tspan></text><text x="390.4" style="color:#6e6e70;cursor:default;font-size:11px;fill:#6e6e70;width:400px;text-overflow:ellipsis;" text-anchor="end" transform="translate(0,0) rotate(-45 390.4 370)" y="370" opacity="1"><tspan>Nov</tspan></text><text x="419.2" style="color:#6e6e70;cursor:default;font-size:11px;fill:#6e6e70;width:400px;text-overflow:ellipsis;" text-anchor="end" transform="translate(0,0) rotate(-45 419.2 370)" y="370" opacity="1"><tspan>Dec</tspan></text></g><g class="highcharts-axis-labels highcharts-yaxis-labels" ><text x="446" style="color:#8d4654;cursor:default;font-size:11px;fill:#8d4654;width:183px;text-overflow:clip;" text-anchor="start" transform="translate(0,0)" y="359" opacity="1">5°C</text><text x="446" style="color:#8d4654;cursor:default;font-size:11px;fill:#8d4654;width:183px;text-overflow:clip;" text-anchor="start" transform="translate(0,0)" y="299" opacity="1">10°C</text><text x="446" style="color:#8d4654;cursor:default;font-size:11px;fill:#8d4654;width:183px;text-overflow:clip;" text-anchor="start" transform="translate(0,0)" y="240" opacity="1">15°C</text><text x="446" style="color:#8d4654;cursor:default;font-size:11px;fill:#8d4654;width:183px;text-overflow:clip;" text-anchor="start" transform="translate(0,0)" y="181" opacity="1">20°C</text><text x="446" style="color:#8d4654;cursor:default;font-size:11px;fill:#8d4654;width:183px;text-overflow:clip;" text-anchor="start" transform="translate(0,0)" y="122" opacity="1">25°C</text><text x="446" style="color:#8d4654;cursor:default;font-size:11px;fill:#8d4654;width:183px;text-overflow:clip;" text-anchor="start" transform="translate(0,0)" y="63" opacity="1">30°C</text></g><g class="highcharts-axis-labels highcharts-yaxis-labels" ><text x="71" style="color:#f45b5b;cursor:default;font-size:11px;fill:#f45b5b;width:183px;text-overflow:clip;" text-anchor="end" transform="translate(0,0)" y="359" opacity="1"><tspan>0 mm</tspan></text><text x="71" style="color:#f45b5b;cursor:default;font-size:11px;fill:#f45b5b;width:183px;text-overflow:clip;" text-anchor="end" transform="translate(0,0)" y="299" opacity="1"><tspan>50 mm</tspan></text><text x="71" style="color:#f45b5b;cursor:default;font-size:11px;fill:#f45b5b;width:183px;text-overflow:clip;" text-anchor="end" transform="translate(0,0)" y="240" opacity="1"><tspan>100 mm</tspan></text><text x="71" style="color:#f45b5b;cursor:default;font-size:11px;fill:#f45b5b;width:183px;text-overflow:clip;" text-anchor="end" transform="translate(0,0)" y="181" opacity="1"><tspan>150 mm</tspan></text><text x="71" style="color:#f45b5b;cursor:default;font-size:11px;fill:#f45b5b;width:183px;text-overflow:clip;" text-anchor="end" transform="translate(0,0)" y="122" opacity="1"><tspan>200 mm</tspan></text><text x="71" style="color:#f45b5b;cursor:default;font-size:11px;fill:#f45b5b;width:183px;text-overflow:clip;" text-anchor="end" transform="translate(0,0)" y="63" opacity="1"><tspan>250 mm</tspan></text></g><g class="highcharts-axis-labels highcharts-yaxis-labels" ><text x="509" style="color:#8085e9;cursor:default;font-size:11px;fill:#8085e9;width:183px;text-overflow:clip;" text-anchor="start" transform="translate(0,0)" y="359" opacity="1"><tspan>1008 mb</tspan></text><text x="509" style="color:#8085e9;cursor:default;font-size:11px;fill:#8085e9;width:183px;text-overflow:clip;" text-anchor="start" transform="translate(0,0)" y="299" opacity="1"><tspan>1012 mb</tspan></text><text x="509" style="color:#8085e9;cursor:default;font-size:11px;fill:#8085e9;width:183px;text-overflow:clip;" text-anchor="start" transform="translate(0,0)" y="240" opacity="1"><tspan>1016 mb</tspan></text><text x="509" style="color:#8085e9;cursor:default;font-size:11px;fill:#8085e9;width:183px;text-overflow:clip;" text-anchor="start" transform="translate(0,0)" y="181" opacity="1"><tspan>1020 mb</tspan></text><text x="509" style="color:#8085e9;cursor:default;font-size:11px;fill:#8085e9;width:183px;text-overflow:clip;" text-anchor="start" transform="translate(0,0)" y="122" opacity="1"><tspan>1024 mb</tspan></text><text x="509" style="color:#8085e9;cursor:default;font-size:11px;fill:#8085e9;width:183px;text-overflow:clip;" text-anchor="start" transform="translate(0,0)" y="63" opacity="1"><tspan>1028 mb</tspan></text></g><g class="highcharts-tooltip"  style="cursor:default;padding:0;white-space:nowrap;" transform="translate(0,-9999)"><path fill="none" d="M 3 0 L 13 0 C 16 0 16 0 16 3 L 16 13 C 16 16 16 16 13 16 L 3 16 C 0 16 0 16 0 13 L 0 3 C 0 0 0 0 3 0"  stroke="black" stroke-opacity="0.0" stroke-width="5" transform="translate(1, 1)"></path><path fill="none" d="M 3 0 L 13 0 C 16 0 16 0 16 3 L 16 13 C 16 16 16 16 13 16 L 3 16 C 0 16 0 16 0 13 L 0 3 C 0 0 0 0 3 0"  stroke="black" stroke-opacity="0.0" stroke-width="3" transform="translate(1, 1)"></path><path fill="none" d="M 3 0 L 13 0 C 16 0 16 0 16 3 L 16 13 C 16 16 16 16 13 16 L 3 16 C 0 16 0 16 0 13 L 0 3 C 0 0 0 0 3 0"  stroke="black" stroke-opacity="0.1" stroke-width="1" transform="translate(1, 1)"></path><path fill="rgb(249, 249, 249)" fill-opacity=" .85" d="M 3 0 L 13 0 C 16 0 16 0 16 3 L 16 13 C 16 16 16 16 13 16 L 3 16 C 0 16 0 16 0 13 L 0 3 C 0 0 0 0 3 0"></path><text x="8"  style="font-size:12px;color:#333333;fill:#333333;" transform="translate(0,20)"></text></g></svg>