<svg version="1.1" style="font-family: signika, serif; font-size: 12px; background-image: url(http://www.highcharts.com/samples/graphics/sand.png); background-attachment: initial; background-origin: initial; background-clip: initial; background-color: initial; background-position: initial initial; background-repeat: initial initial; " xmlns="http://www.w3.org/2000/svg" width="584" height="400" viewBox="0 0 584 400" xmlns:xlink="http://www.w3.org/1999/xlink"><style type="text/css"><![CDATA[@import url(http://fonts.googleapis.com/css?family=Signika:700);]]></style><desc>Created with Highcharts 4.1.4</desc><defs><clipPath id="highcharts-1"><rect x="0" y="0" width="519" height="281"></rect></clipPath><clipPath id="highcharts-2"><rect x="-99" y="-44" width="618" height="400"></rect></clipPath><clipPath id="highcharts-3"><rect x="0" y="0" width="519" height="281"></rect></clipPath></defs><g class="highcharts-grid" ></g><g class="highcharts-grid" ><path fill="none" d="M 55 325.5 L 574 325.5" stroke="#D8D8D8" stroke-width="1"  opacity="1"></path><path fill="none" d="M 55 269.5 L 574 269.5" stroke="#D8D8D8" stroke-width="1"  opacity="1"></path><path fill="none" d="M 55 213.5 L 574 213.5" stroke="#D8D8D8" stroke-width="1"  opacity="1"></path><path fill="none" d="M 55 156.5 L 574 156.5" stroke="#D8D8D8" stroke-width="1"  opacity="1"></path><path fill="none" d="M 55 100.5 L 574 100.5" stroke="#D8D8D8" stroke-width="1"  opacity="1"></path><path fill="none" d="M 55 43.5 L 574 43.5" stroke="#D8D8D8" stroke-width="1"  opacity="1"></path></g><g class="highcharts-axis" ><path fill="none" d="M 97.5 325 L 97.5 335" stroke="#C0D0E0" stroke-width="1" opacity="1"></path><path fill="none" d="M 184.5 325 L 184.5 335" stroke="#C0D0E0" stroke-width="1" opacity="1"></path><path fill="none" d="M 270.5 325 L 270.5 335" stroke="#C0D0E0" stroke-width="1" opacity="1"></path><path fill="none" d="M 357.5 325 L 357.5 335" stroke="#C0D0E0" stroke-width="1" opacity="1"></path><path fill="none" d="M 443.5 325 L 443.5 335" stroke="#C0D0E0" stroke-width="1" opacity="1"></path><path fill="none" d="M 530.5 325 L 530.5 335" stroke="#C0D0E0" stroke-width="1" opacity="1"></path><path fill="none" d="M 55 325.5 L 574 325.5" stroke="#C0D0E0" stroke-width="1"  visibility="visible"></path></g><g class="highcharts-axis" ><text x="24"  text-anchor="middle" transform="translate(0,0) rotate(270 24 184.5)" class=" highcharts-yaxis-title" style="color:#707070;fill:#707070;" visibility="visible" y="184.5">Values</text></g><g class="highcharts-series-group" ><g class="highcharts-series" visibility="visible"  transform="translate(55,44) scale(1 1)" clip-path="url(#highcharts-3)"><path fill="none" d="M 43.2 218.6 L 475.7 27.5" stroke="black" stroke-width="5"  stroke-linejoin="round" stroke-linecap="round"  stroke-opacity="0.0" transform="translate(1, 1)"></path><path fill="none" d="M 43.2 218.6 L 475.7 27.5" stroke="black" stroke-width="3"  stroke-linejoin="round" stroke-linecap="round"  stroke-opacity="0.0" transform="translate(1, 1)"></path><path fill="none" d="M 43.2 218.6 L 475.7 27.5" stroke="black" stroke-width="1"  stroke-linejoin="round" stroke-linecap="round"  stroke-opacity="0.1" transform="translate(1, 1)"></path><path fill="none" d="M 43.2 218.6 L 475.7 27.5" stroke="#f45b5b" stroke-width="2"  stroke-linejoin="round" stroke-linecap="round"></path></g><g class="highcharts-markers" visibility="visible"  transform="translate(55,44) scale(1 1)" clip-path="url(#highcharts-2)"></g><g class="highcharts-series highcharts-tracker" visibility="visible"  transform="translate(55,44) scale(1 1)" clip-path="url(#highcharts-3)" style=""></g><g class="highcharts-markers highcharts-tracker" visibility="visible"  transform="translate(55,44) scale(1 1)" clip-path="url(#highcharts-2)" style=""><path fill="#8085e9" d="M 475 40.9 L 479 44.9 475 48.9 471 44.9 Z"></path><path fill="#8085e9" d="M 389 57.8 L 393 61.8 389 65.8 385 61.8 Z"></path><path fill="#8085e9" d="M 302 80.2 L 306 84.2 302 88.2 298 84.2 Z"></path><path fill="#8085e9" d="M 216 119.6 L 220 123.6 216 127.6 212 123.6 Z"></path><path fill="#8085e9" d="M 129 192.7 L 133 196.7 129 200.7 125 196.7 Z"></path><path fill="#8085e9" d="M 43 220.8 L 47 224.8 43 228.8 39 224.8 Z"></path></g></g><text x="292" text-anchor="middle" class="highcharts-title"  style="color:black;font-size:16px;font-weight:bold;fill:black;width:520px;" y="22"><tspan>Scatter plot with regression line</tspan></text><g class="highcharts-legend"  transform="translate(159,358)"><g ><g><g class="highcharts-legend-item"  transform="translate(8,3)"><path fill="none" d="M 0 12 L 16 12" stroke="#f45b5b" stroke-width="2"></path><text x="21" style="color:#333333;font-size:13px;font-weight:bold;cursor:pointer;fill:#333333;" text-anchor="start"  y="16"><tspan>Regression Line</tspan></text></g><g class="highcharts-legend-item"  transform="translate(151,3)"><path fill="#8085e9" d="M 8 8 L 12 12 8 16 4 12 Z"></path><text x="21" y="16" style="color:#333333;font-size:13px;font-weight:bold;cursor:pointer;fill:#333333;" text-anchor="start" >Observations</text></g></g></g></g><g class="highcharts-axis-labels highcharts-xaxis-labels" ><text x="98.2" style="color:#6e6e70;cursor:default;font-size:11px;fill:#6e6e70;width:84px;text-overflow:clip;" text-anchor="middle" transform="translate(0,0)" y="344" opacity="1">0</text><text x="184.7" style="color:#6e6e70;cursor:default;font-size:11px;fill:#6e6e70;width:84px;text-overflow:clip;" text-anchor="middle" transform="translate(0,0)" y="344" opacity="1">1</text><text x="271.2" style="color:#6e6e70;cursor:default;font-size:11px;fill:#6e6e70;width:84px;text-overflow:clip;" text-anchor="middle" transform="translate(0,0)" y="344" opacity="1">2</text><text x="357.7" style="color:#6e6e70;cursor:default;font-size:11px;fill:#6e6e70;width:84px;text-overflow:clip;" text-anchor="middle" transform="translate(0,0)" y="344" opacity="1">3</text><text x="444.2" style="color:#6e6e70;cursor:default;font-size:11px;fill:#6e6e70;width:84px;text-overflow:clip;" text-anchor="middle" transform="translate(0,0)" y="344" opacity="1">4</text><text x="530.7" style="color:#6e6e70;cursor:default;font-size:11px;fill:#6e6e70;width:84px;text-overflow:clip;" text-anchor="middle" transform="translate(0,0)" y="344" opacity="1">5</text></g><g class="highcharts-axis-labels highcharts-yaxis-labels" ><text x="40" style="color:#6e6e70;cursor:default;font-size:11px;fill:#6e6e70;width:183px;text-overflow:clip;" text-anchor="end" transform="translate(0,0)" y="330" opacity="1">0</text><text x="40" style="color:#6e6e70;cursor:default;font-size:11px;fill:#6e6e70;width:183px;text-overflow:clip;" text-anchor="end" transform="translate(0,0)" y="273" opacity="1">1</text><text x="40" style="color:#6e6e70;cursor:default;font-size:11px;fill:#6e6e70;width:183px;text-overflow:clip;" text-anchor="end" transform="translate(0,0)" y="217" opacity="1">2</text><text x="40" style="color:#6e6e70;cursor:default;font-size:11px;fill:#6e6e70;width:183px;text-overflow:clip;" text-anchor="end" transform="translate(0,0)" y="161" opacity="1">3</text><text x="40" style="color:#6e6e70;cursor:default;font-size:11px;fill:#6e6e70;width:183px;text-overflow:clip;" text-anchor="end" transform="translate(0,0)" y="105" opacity="1">4</text><text x="40" style="color:#6e6e70;cursor:default;font-size:11px;fill:#6e6e70;width:183px;text-overflow:clip;" text-anchor="end" transform="translate(0,0)" y="49" opacity="1">5</text></g><g class="highcharts-tooltip"  style="cursor:default;padding:0;white-space:nowrap;" transform="translate(0,-9999)"><path fill="none" d="M 3 0 L 13 0 C 16 0 16 0 16 3 L 16 13 C 16 16 16 16 13 16 L 3 16 C 0 16 0 16 0 13 L 0 3 C 0 0 0 0 3 0"  stroke="black" stroke-opacity="0.0" stroke-width="5" transform="translate(1, 1)"></path><path fill="none" d="M 3 0 L 13 0 C 16 0 16 0 16 3 L 16 13 C 16 16 16 16 13 16 L 3 16 C 0 16 0 16 0 13 L 0 3 C 0 0 0 0 3 0"  stroke="black" stroke-opacity="0.0" stroke-width="3" transform="translate(1, 1)"></path><path fill="none" d="M 3 0 L 13 0 C 16 0 16 0 16 3 L 16 13 C 16 16 16 16 13 16 L 3 16 C 0 16 0 16 0 13 L 0 3 C 0 0 0 0 3 0"  stroke="black" stroke-opacity="0.1" stroke-width="1" transform="translate(1, 1)"></path><path fill="rgb(249, 249, 249)" fill-opacity=" .85" d="M 3 0 L 13 0 C 16 0 16 0 16 3 L 16 13 C 16 16 16 16 13 16 L 3 16 C 0 16 0 16 0 13 L 0 3 C 0 0 0 0 3 0"></path><text x="8"  style="font-size:12px;color:#333333;fill:#333333;" transform="translate(0,20)"></text></g></svg>