<svg version="1.1" style="font-family: signika, serif; font-size: 12px; background-image: url(http://www.highcharts.com/samples/graphics/sand.png); background-attachment: initial; background-origin: initial; background-clip: initial; background-color: initial; background-position: initial initial; background-repeat: initial initial; " xmlns="http://www.w3.org/2000/svg" width="584" height="400" viewBox="0 0 584 400" xmlns:xlink="http://www.w3.org/1999/xlink"><style type="text/css"><![CDATA[@import url(http://fonts.googleapis.com/css?family=Signika:700);]]></style><desc>Created with Highcharts 4.1.4</desc><defs><clipPath id="highcharts-1"><rect x="0" y="0" width="499" height="320"></rect></clipPath><clipPath id="highcharts-2"><rect x="-99" y="-44" width="598" height="400"></rect></clipPath><clipPath id="highcharts-3"><rect x="0" y="0" width="499" height="320"></rect></clipPath></defs><path fill="none" d="M 75 311.5 L 574 311.5" stroke="#808080" stroke-width="1"></path><g class="highcharts-grid" ></g><g class="highcharts-grid" ><path fill="none" d="M 75 364.5 L 574 364.5" stroke="#D8D8D8" stroke-width="1"  opacity="1"></path><path fill="none" d="M 75 311.5 L 574 311.5" stroke="#D8D8D8" stroke-width="1"  opacity="1"></path><path fill="none" d="M 75 257.5 L 574 257.5" stroke="#D8D8D8" stroke-width="1"  opacity="1"></path><path fill="none" d="M 75 204.5 L 574 204.5" stroke="#D8D8D8" stroke-width="1"  opacity="1"></path><path fill="none" d="M 75 151.5 L 574 151.5" stroke="#D8D8D8" stroke-width="1"  opacity="1"></path><path fill="none" d="M 75 97.5 L 574 97.5" stroke="#D8D8D8" stroke-width="1"  opacity="1"></path><path fill="none" d="M 75 43.5 L 574 43.5" stroke="#D8D8D8" stroke-width="1"  opacity="1"></path></g><g class="highcharts-axis" ><path fill="none" d="M 126.5 364 L 126.5 374" stroke="#C0D0E0" stroke-width="1" opacity="1"></path><path fill="none" d="M 254.5 364 L 254.5 374" stroke="#C0D0E0" stroke-width="1" opacity="1"></path><path fill="none" d="M 383.5 364 L 383.5 374" stroke="#C0D0E0" stroke-width="1" opacity="1"></path><path fill="none" d="M 512.5 364 L 512.5 374" stroke="#C0D0E0" stroke-width="1" opacity="1"></path><path fill="none" d="M 75 364.5 L 574 364.5" stroke="#C0D0E0" stroke-width="1"  visibility="visible"></path></g><g class="highcharts-axis" ><text x="24"  text-anchor="middle" transform="translate(0,0) rotate(270 24 204)" class=" highcharts-yaxis-title" style="color:#707070;fill:#707070;" visibility="visible" y="204">Value</text></g><g class="highcharts-series-group" ><g class="highcharts-series" visibility="visible"  transform="translate(75,44) scale(1 1)" clip-path="url(#highcharts-3)"><path fill="none" d="M 4.8 241.3 C 4.8 241.3 20.3 96.4 30.6 79.0 C 40.9 61.6 46.0 61.6 56.3 61.6 C 66.6 61.6 71.8 145.3 82.1 145.3 C 92.4 145.3 97.5 106.4 107.8 106.4 C 118.1 106.4 123.3 212.2 133.6 212.2 C 143.9 212.2 149.0 156.3 159.3 140.6 C 169.6 124.8 174.8 124.8 185.1 124.8 C 195.4 124.8 200.5 239.5 210.8 239.5 C 221.1 239.5 226.3 141.3 236.6 141.3 C 246.9 141.3 252.0 217.5 262.3 217.5 C 272.6 217.5 277.8 145.1 288.1 145.1 C 298.4 145.1 303.5 151.4 313.8 151.4 C 324.1 151.4 329.3 151.4 339.6 143.2 C 349.9 135.1 355.0 112.7 365.3 99.4 C 375.6 86.2 380.8 77.0 391.1 77.0 C 401.4 77.0 406.5 141.3 416.8 141.3 C 427.1 141.3 432.3 118.5 442.6 118.5 C 452.9 118.5 458.0 262.0 468.3 262.0 C 478.6 262.0 494.1 113.5 494.1 113.5" stroke="black" stroke-width="5"  stroke-linejoin="round" stroke-linecap="round"  stroke-opacity="0.0" transform="translate(1, 1)"></path><path fill="none" d="M 4.8 241.3 C 4.8 241.3 20.3 96.4 30.6 79.0 C 40.9 61.6 46.0 61.6 56.3 61.6 C 66.6 61.6 71.8 145.3 82.1 145.3 C 92.4 145.3 97.5 106.4 107.8 106.4 C 118.1 106.4 123.3 212.2 133.6 212.2 C 143.9 212.2 149.0 156.3 159.3 140.6 C 169.6 124.8 174.8 124.8 185.1 124.8 C 195.4 124.8 200.5 239.5 210.8 239.5 C 221.1 239.5 226.3 141.3 236.6 141.3 C 246.9 141.3 252.0 217.5 262.3 217.5 C 272.6 217.5 277.8 145.1 288.1 145.1 C 298.4 145.1 303.5 151.4 313.8 151.4 C 324.1 151.4 329.3 151.4 339.6 143.2 C 349.9 135.1 355.0 112.7 365.3 99.4 C 375.6 86.2 380.8 77.0 391.1 77.0 C 401.4 77.0 406.5 141.3 416.8 141.3 C 427.1 141.3 432.3 118.5 442.6 118.5 C 452.9 118.5 458.0 262.0 468.3 262.0 C 478.6 262.0 494.1 113.5 494.1 113.5" stroke="black" stroke-width="3"  stroke-linejoin="round" stroke-linecap="round"  stroke-opacity="0.0" transform="translate(1, 1)"></path><path fill="none" d="M 4.8 241.3 C 4.8 241.3 20.3 96.4 30.6 79.0 C 40.9 61.6 46.0 61.6 56.3 61.6 C 66.6 61.6 71.8 145.3 82.1 145.3 C 92.4 145.3 97.5 106.4 107.8 106.4 C 118.1 106.4 123.3 212.2 133.6 212.2 C 143.9 212.2 149.0 156.3 159.3 140.6 C 169.6 124.8 174.8 124.8 185.1 124.8 C 195.4 124.8 200.5 239.5 210.8 239.5 C 221.1 239.5 226.3 141.3 236.6 141.3 C 246.9 141.3 252.0 217.5 262.3 217.5 C 272.6 217.5 277.8 145.1 288.1 145.1 C 298.4 145.1 303.5 151.4 313.8 151.4 C 324.1 151.4 329.3 151.4 339.6 143.2 C 349.9 135.1 355.0 112.7 365.3 99.4 C 375.6 86.2 380.8 77.0 391.1 77.0 C 401.4 77.0 406.5 141.3 416.8 141.3 C 427.1 141.3 432.3 118.5 442.6 118.5 C 452.9 118.5 458.0 262.0 468.3 262.0 C 478.6 262.0 494.1 113.5 494.1 113.5" stroke="black" stroke-width="1"  stroke-linejoin="round" stroke-linecap="round"  stroke-opacity="0.1" transform="translate(1, 1)"></path><path fill="none" d="M 4.8 241.3 C 4.8 241.3 20.3 96.4 30.6 79.0 C 40.9 61.6 46.0 61.6 56.3 61.6 C 66.6 61.6 71.8 145.3 82.1 145.3 C 92.4 145.3 97.5 106.4 107.8 106.4 C 118.1 106.4 123.3 212.2 133.6 212.2 C 143.9 212.2 149.0 156.3 159.3 140.6 C 169.6 124.8 174.8 124.8 185.1 124.8 C 195.4 124.8 200.5 239.5 210.8 239.5 C 221.1 239.5 226.3 141.3 236.6 141.3 C 246.9 141.3 252.0 217.5 262.3 217.5 C 272.6 217.5 277.8 145.1 288.1 145.1 C 298.4 145.1 303.5 151.4 313.8 151.4 C 324.1 151.4 329.3 151.4 339.6 143.2 C 349.9 135.1 355.0 112.7 365.3 99.4 C 375.6 86.2 380.8 77.0 391.1 77.0 C 401.4 77.0 406.5 141.3 416.8 141.3 C 427.1 141.3 432.3 118.5 442.6 118.5 C 452.9 118.5 458.0 262.0 468.3 262.0 C 478.6 262.0 494.1 113.5 494.1 113.5" stroke="#f45b5b" stroke-width="2"  stroke-linejoin="round" stroke-linecap="round"></path><path fill="none" d="M -5.1 241.3 L 4.8 241.3 C 4.8 241.3 20.3 96.4 30.6 79.0 C 40.9 61.6 46.0 61.6 56.3 61.6 C 66.6 61.6 71.8 145.3 82.1 145.3 C 92.4 145.3 97.5 106.4 107.8 106.4 C 118.1 106.4 123.3 212.2 133.6 212.2 C 143.9 212.2 149.0 156.3 159.3 140.6 C 169.6 124.8 174.8 124.8 185.1 124.8 C 195.4 124.8 200.5 239.5 210.8 239.5 C 221.1 239.5 226.3 141.3 236.6 141.3 C 246.9 141.3 252.0 217.5 262.3 217.5 C 272.6 217.5 277.8 145.1 288.1 145.1 C 298.4 145.1 303.5 151.4 313.8 151.4 C 324.1 151.4 329.3 151.4 339.6 143.2 C 349.9 135.1 355.0 112.7 365.3 99.4 C 375.6 86.2 380.8 77.0 391.1 77.0 C 401.4 77.0 406.5 141.3 416.8 141.3 C 427.1 141.3 432.3 118.5 442.6 118.5 C 452.9 118.5 458.0 262.0 468.3 262.0 C 478.6 262.0 494.1 113.5 494.1 113.5 L 504.1 113.5" stroke-linejoin="round" visibility="visible" stroke="rgb(192,192,192)" stroke-opacity="0.0" stroke-width="22"  class=" highcharts-tracker" style=""></path></g><g class="highcharts-markers highcharts-tracker" visibility="visible"  transform="translate(75,44) scale(1 1)" clip-path="url(#highcharts-2)" style=""><path fill="#f45b5b" d="M 494 109.5 C 499.3 109.5 499.3 117.5 494 117.5 C 488.6 117.5 488.6 109.5 494 109.5 Z"></path><path fill="#f45b5b" d="M 468 258.0 C 473.3 258.0 473.3 266.0 468 266.0 C 462.6 266.0 462.6 258.0 468 258.0 Z"></path><path fill="#f45b5b" d="M 442 114.5 C 447.3 114.5 447.3 122.5 442 122.5 C 436.6 122.5 436.6 114.5 442 114.5 Z"></path><path fill="#f45b5b" d="M 416 137.3 C 421.3 137.3 421.3 145.3 416 145.3 C 410.6 145.3 410.6 137.3 416 137.3 Z"></path><path fill="#f45b5b" d="M 391 73.0 C 396.3 73.0 396.3 81.0 391 81.0 C 385.6 81.0 385.6 73.0 391 73.0 Z"></path><path fill="#f45b5b" d="M 365 95.4 C 370.3 95.4 370.3 103.4 365 103.4 C 359.6 103.4 359.6 95.4 365 95.4 Z"></path><path fill="#f45b5b" d="M 339 139.2 C 344.3 139.2 344.3 147.2 339 147.2 C 333.6 147.2 333.6 139.2 339 139.2 Z"></path><path fill="#f45b5b" d="M 313 147.4 C 318.3 147.4 318.3 155.4 313 155.4 C 307.6 155.4 307.6 147.4 313 147.4 Z"></path><path fill="#f45b5b" d="M 288 141.1 C 293.3 141.1 293.3 149.1 288 149.1 C 282.6 149.1 282.6 141.1 288 141.1 Z"></path><path fill="#f45b5b" d="M 262 213.5 C 267.3 213.5 267.3 221.5 262 221.5 C 256.6 221.5 256.6 213.5 262 213.5 Z"></path><path fill="#f45b5b" d="M 236 137.3 C 241.3 137.3 241.3 145.3 236 145.3 C 230.6 145.3 230.6 137.3 236 137.3 Z"></path><path fill="#f45b5b" d="M 210 235.5 C 215.3 235.5 215.3 243.5 210 243.5 C 204.6 243.5 204.6 235.5 210 235.5 Z"></path><path fill="#f45b5b" d="M 185 120.8 C 190.3 120.8 190.3 128.8 185 128.8 C 179.6 128.8 179.6 120.8 185 120.8 Z"></path><path fill="#f45b5b" d="M 159 136.6 C 164.3 136.6 164.3 144.6 159 144.6 C 153.6 144.6 153.6 136.6 159 136.6 Z"></path><path fill="#f45b5b" d="M 133 208.2 C 138.3 208.2 138.3 216.2 133 216.2 C 127.6 216.2 127.6 208.2 133 208.2 Z"></path><path fill="#f45b5b" d="M 107 102.4 C 112.3 102.4 112.3 110.4 107 110.4 C 101.6 110.4 101.6 102.4 107 102.4 Z"></path><path fill="#f45b5b" d="M 82 141.3 C 87.3 141.3 87.3 149.3 82 149.3 C 76.6 149.3 76.6 141.3 82 141.3 Z"></path><path fill="#f45b5b" d="M 56 57.6 C 61.3 57.6 61.3 65.6 56 65.6 C 50.6 65.6 50.6 57.6 56 57.6 Z"></path><path fill="#f45b5b" d="M 30 75.0 C 35.3 75.0 35.3 83.0 30 83.0 C 24.6 83.0 24.6 75.0 30 75.0 Z"></path><path fill="#f45b5b" d="M 4 237.3 C 9.3 237.3 9.3 245.3 4 245.3 C -1.3 245.3 -1.3 237.3 4 237.3 Z"></path></g></g><text x="292" text-anchor="middle" class="highcharts-title"  style="color:black;font-size:16px;font-weight:bold;fill:black;width:520px;" y="22"><tspan>Live random data</tspan></text><g class="highcharts-axis-labels highcharts-xaxis-labels" ><text x="126.5" style="color:#6e6e70;cursor:default;font-size:11px;fill:#6e6e70;width:131px;text-overflow:clip;" text-anchor="middle" transform="translate(0,0)" y="383" opacity="1">13:48:30</text><text x="255.3" style="color:#6e6e70;cursor:default;font-size:11px;fill:#6e6e70;width:131px;text-overflow:clip;" text-anchor="middle" transform="translate(0,0)" y="383" opacity="1">13:48:35</text><text x="384.0" style="color:#6e6e70;cursor:default;font-size:11px;fill:#6e6e70;width:131px;text-overflow:clip;" text-anchor="middle" transform="translate(0,0)" y="383" opacity="1">13:48:40</text><text x="512.7" style="color:#6e6e70;cursor:default;font-size:11px;fill:#6e6e70;width:131px;text-overflow:clip;" text-anchor="middle" transform="translate(0,0)" y="383" opacity="1">13:48:45</text></g><g class="highcharts-axis-labels highcharts-yaxis-labels" ><text x="60" style="color:#6e6e70;cursor:default;font-size:11px;fill:#6e6e70;width:183px;text-overflow:clip;" text-anchor="end" transform="translate(0,0)" y="369" opacity="1">-0.2</text><text x="60" style="color:#6e6e70;cursor:default;font-size:11px;fill:#6e6e70;width:183px;text-overflow:clip;" text-anchor="end" transform="translate(0,0)" y="315" opacity="1">0</text><text x="60" style="color:#6e6e70;cursor:default;font-size:11px;fill:#6e6e70;width:183px;text-overflow:clip;" text-anchor="end" transform="translate(0,0)" y="262" opacity="1">0.2</text><text x="60" style="color:#6e6e70;cursor:default;font-size:11px;fill:#6e6e70;width:183px;text-overflow:clip;" text-anchor="end" transform="translate(0,0)" y="209" opacity="1">0.5</text><text x="60" style="color:#6e6e70;cursor:default;font-size:11px;fill:#6e6e70;width:183px;text-overflow:clip;" text-anchor="end" transform="translate(0,0)" y="155" opacity="1">0.7</text><text x="60" style="color:#6e6e70;cursor:default;font-size:11px;fill:#6e6e70;width:183px;text-overflow:clip;" text-anchor="end" transform="translate(0,0)" y="102" opacity="1">1</text><text x="60" style="color:#6e6e70;cursor:default;font-size:11px;fill:#6e6e70;width:183px;text-overflow:clip;" text-anchor="end" transform="translate(0,0)" y="49" opacity="1">1.2</text></g><g class="highcharts-tooltip"  style="cursor:default;padding:0;white-space:nowrap;" transform="translate(0,-9999)"><path fill="none" d="M 3 0 L 13 0 C 16 0 16 0 16 3 L 16 13 C 16 16 16 16 13 16 L 3 16 C 0 16 0 16 0 13 L 0 3 C 0 0 0 0 3 0"  stroke="black" stroke-opacity="0.0" stroke-width="5" transform="translate(1, 1)"></path><path fill="none" d="M 3 0 L 13 0 C 16 0 16 0 16 3 L 16 13 C 16 16 16 16 13 16 L 3 16 C 0 16 0 16 0 13 L 0 3 C 0 0 0 0 3 0"  stroke="black" stroke-opacity="0.0" stroke-width="3" transform="translate(1, 1)"></path><path fill="none" d="M 3 0 L 13 0 C 16 0 16 0 16 3 L 16 13 C 16 16 16 16 13 16 L 3 16 C 0 16 0 16 0 13 L 0 3 C 0 0 0 0 3 0"  stroke="black" stroke-opacity="0.1" stroke-width="1" transform="translate(1, 1)"></path><path fill="rgb(249, 249, 249)" fill-opacity=" .85" d="M 3 0 L 13 0 C 16 0 16 0 16 3 L 16 13 C 16 16 16 16 13 16 L 3 16 C 0 16 0 16 0 13 L 0 3 C 0 0 0 0 3 0"></path><text x="8"  style="font-size:12px;color:#333333;fill:#333333;" transform="translate(0,20)"></text></g></svg>