<svg version="1.1" style="font-family: signika, serif; font-size: 12px; position: absolute; background-image: url(http://www.highcharts.com/samples/graphics/sand.png); background-attachment: initial; background-origin: initial; background-clip: initial; background-color: initial; background-position: initial initial; background-repeat: initial initial; " xmlns="http://www.w3.org/2000/svg" width="584" height="400" viewBox="0 0 584 400" xmlns:xlink="http://www.w3.org/1999/xlink"><style type="text/css"><![CDATA[@import url(http://fonts.googleapis.com/css?family=Signika:700);]]></style><desc>Created with Highcharts 4.1.4</desc><defs><clipPath id="highcharts-6"><rect x="0" y="0" width="514" height="222"></rect></clipPath><clipPath id="highcharts-7"><rect x="-99" y="-58" width="613" height="400"></rect></clipPath><clipPath id="highcharts-8"><rect x="0" y="0" width="514" height="222"></rect></clipPath></defs><g class="highcharts-grid" ></g><g class="highcharts-grid" ><path fill="none" d="M 50 280.5 L 564 280.5" stroke="#D8D8D8" stroke-width="1"  opacity="1"></path><path fill="none" d="M 50 236.5 L 564 236.5" stroke="#D8D8D8" stroke-width="1"  opacity="1"></path><path fill="none" d="M 50 191.5 L 564 191.5" stroke="#D8D8D8" stroke-width="1"  opacity="1"></path><path fill="none" d="M 50 147.5 L 564 147.5" stroke="#D8D8D8" stroke-width="1"  opacity="1"></path><path fill="none" d="M 50 102.5 L 564 102.5" stroke="#D8D8D8" stroke-width="1"  opacity="1"></path><path fill="none" d="M 50 57.5 L 564 57.5" stroke="#D8D8D8" stroke-width="1"  opacity="1"></path></g><g class="highcharts-axis" ><path fill="none" d="M 54.5 280 L 54.5 290" stroke="#C0D0E0" stroke-width="1" opacity="1"></path><path fill="none" d="M 157.5 280 L 157.5 290" stroke="#C0D0E0" stroke-width="1" opacity="1"></path><path fill="none" d="M 256.5 280 L 256.5 290" stroke="#C0D0E0" stroke-width="1" opacity="1"></path><path fill="none" d="M 359.5 280 L 359.5 290" stroke="#C0D0E0" stroke-width="1" opacity="1"></path><path fill="none" d="M 459.5 280 L 459.5 290" stroke="#C0D0E0" stroke-width="1" opacity="1"></path><path fill="none" d="M 561.5 280 L 561.5 290" stroke="#C0D0E0" stroke-width="1" opacity="1"></path><path fill="none" d="M 50 280.5 L 564 280.5" stroke="#C0D0E0" stroke-width="1"  visibility="visible"></path></g><g class="highcharts-axis" ></g><g class="highcharts-series-group" ><g class="highcharts-series" visibility="visible"  transform="translate(50,58) scale(1 1)" clip-path="url(#highcharts-8)"><path fill="none" d="M 5.0 185.5 L 8.3 183.3 L 11.6 184.0 L 14.9 184.0 L 18.3 184.7 L 21.6 182.3 L 24.9 180.4 L 28.2 178.7 L 31.5 169.2 L 34.8 162.8 L 38.1 162.8 L 41.5 161.7 L 44.8 158.7 L 48.1 159.3 L 51.4 158.2 L 54.7 152.3 L 58.0 149.9 L 61.3 149.9 L 64.7 151.4 L 68.0 150.6 L 71.3 152.6 L 74.6 154.8 L 77.9 156.7 L 81.2 154.2 L 84.6 154.3 L 87.9 153.0 L 91.2 149.6 L 94.5 150.7 L 97.8 152.7 L 101.1 151.3 L 104.4 149.4 L 107.8 149.4 L 111.1 148.1 L 114.4 144.1 L 117.7 141.0 L 121.0 140.8 L 124.3 132.4 L 127.7 132.1 L 131.0 132.3 L 134.3 132.7 L 137.6 126.4 L 140.9 125.4 L 144.2 118.1 L 147.5 123.8 L 150.9 130.4 L 154.2 130.6 L 157.5 132.6 L 160.8 130.0 L 164.1 129.2 L 167.4 137.1 L 170.8 134.2 L 174.1 140.7 L 177.4 140.8 L 180.7 145.7 L 184.0 152.9 L 187.3 149.6 L 190.6 149.6 L 194.0 147.1 L 197.3 146.8 L 200.6 146.8 L 203.9 140.0 L 207.2 133.4 L 210.5 124.4 L 213.9 116.5 L 217.2 112.5 L 220.5 109.9 L 223.8 109.5 L 227.1 101.3 L 230.4 100.5 L 233.7 103.2 L 237.1 105.0 L 240.4 98.8 L 243.7 91.7 L 247.0 92.2 L 250.3 100.6 L 253.6 104.8 L 257 101.1 L 260.3 94.3 L 263.6 94.8 L 266.9 92.2 L 270.2 92.2 L 273.5 92.8 L 276.8 84.4 L 280.2 67.3 L 283.5 62.0 L 286.8 53.0 L 290.1 55.4 L 293.4 50.7 L 296.7 45.1 L 300.0 43.7 L 303.4 60.1 L 306.7 74.5 L 310.0 57.7 L 313.3 56.5 L 316.6 56.6 L 319.9 60.2 L 323.3 57.0 L 326.6 68.2 L 329.9 64.0 L 333.2 58.2 L 336.5 56.2 L 339.8 56.4 L 343.1 63.2 L 346.5 55.5 L 349.8 46.9 L 353.1 44.0 L 356.4 57.0 L 359.7 50.4 L 363.0 49.9 L 366.4 50.8 L 369.7 51.6 L 373.0 51.5 L 376.3 45.3 L 379.6 45.4 L 382.9 48.9 L 386.2 49.0 L 389.6 54.8 L 392.9 67.0 L 396.2 70.1 L 399.5 66.5 L 402.8 62.9 L 406.1 54.8 L 409.5 54.8 L 412.8 53.3 L 416.1 52.8 L 419.4 54.2 L 422.7 55.1 L 426.0 57.2 L 429.3 56.2 L 432.7 56.3 L 436.0 62.6 L 439.3 65.8 L 442.6 69.5 L 445.9 79.0 L 449.2 89.0 L 452.6 91.3 L 455.9 91.1 L 459.2 97.0 L 462.5 107.6 L 465.8 126.6 L 469.1 139.6 L 472.4 125.8 L 475.8 116.2 L 479.1 116.3 L 482.4 119.6 L 485.7 119.3 L 489.0 119.1 L 492.3 120.7 L 495.6 122.6 L 499.0 121.7 L 502.3 121.7 L 505.6 128.8 L 508.9 124.7" stroke="black" stroke-width="5"  stroke-linejoin="round" stroke-linecap="round"  stroke-opacity="0.0" transform="translate(1, 1)"></path><path fill="none" d="M 5.0 185.5 L 8.3 183.3 L 11.6 184.0 L 14.9 184.0 L 18.3 184.7 L 21.6 182.3 L 24.9 180.4 L 28.2 178.7 L 31.5 169.2 L 34.8 162.8 L 38.1 162.8 L 41.5 161.7 L 44.8 158.7 L 48.1 159.3 L 51.4 158.2 L 54.7 152.3 L 58.0 149.9 L 61.3 149.9 L 64.7 151.4 L 68.0 150.6 L 71.3 152.6 L 74.6 154.8 L 77.9 156.7 L 81.2 154.2 L 84.6 154.3 L 87.9 153.0 L 91.2 149.6 L 94.5 150.7 L 97.8 152.7 L 101.1 151.3 L 104.4 149.4 L 107.8 149.4 L 111.1 148.1 L 114.4 144.1 L 117.7 141.0 L 121.0 140.8 L 124.3 132.4 L 127.7 132.1 L 131.0 132.3 L 134.3 132.7 L 137.6 126.4 L 140.9 125.4 L 144.2 118.1 L 147.5 123.8 L 150.9 130.4 L 154.2 130.6 L 157.5 132.6 L 160.8 130.0 L 164.1 129.2 L 167.4 137.1 L 170.8 134.2 L 174.1 140.7 L 177.4 140.8 L 180.7 145.7 L 184.0 152.9 L 187.3 149.6 L 190.6 149.6 L 194.0 147.1 L 197.3 146.8 L 200.6 146.8 L 203.9 140.0 L 207.2 133.4 L 210.5 124.4 L 213.9 116.5 L 217.2 112.5 L 220.5 109.9 L 223.8 109.5 L 227.1 101.3 L 230.4 100.5 L 233.7 103.2 L 237.1 105.0 L 240.4 98.8 L 243.7 91.7 L 247.0 92.2 L 250.3 100.6 L 253.6 104.8 L 257 101.1 L 260.3 94.3 L 263.6 94.8 L 266.9 92.2 L 270.2 92.2 L 273.5 92.8 L 276.8 84.4 L 280.2 67.3 L 283.5 62.0 L 286.8 53.0 L 290.1 55.4 L 293.4 50.7 L 296.7 45.1 L 300.0 43.7 L 303.4 60.1 L 306.7 74.5 L 310.0 57.7 L 313.3 56.5 L 316.6 56.6 L 319.9 60.2 L 323.3 57.0 L 326.6 68.2 L 329.9 64.0 L 333.2 58.2 L 336.5 56.2 L 339.8 56.4 L 343.1 63.2 L 346.5 55.5 L 349.8 46.9 L 353.1 44.0 L 356.4 57.0 L 359.7 50.4 L 363.0 49.9 L 366.4 50.8 L 369.7 51.6 L 373.0 51.5 L 376.3 45.3 L 379.6 45.4 L 382.9 48.9 L 386.2 49.0 L 389.6 54.8 L 392.9 67.0 L 396.2 70.1 L 399.5 66.5 L 402.8 62.9 L 406.1 54.8 L 409.5 54.8 L 412.8 53.3 L 416.1 52.8 L 419.4 54.2 L 422.7 55.1 L 426.0 57.2 L 429.3 56.2 L 432.7 56.3 L 436.0 62.6 L 439.3 65.8 L 442.6 69.5 L 445.9 79.0 L 449.2 89.0 L 452.6 91.3 L 455.9 91.1 L 459.2 97.0 L 462.5 107.6 L 465.8 126.6 L 469.1 139.6 L 472.4 125.8 L 475.8 116.2 L 479.1 116.3 L 482.4 119.6 L 485.7 119.3 L 489.0 119.1 L 492.3 120.7 L 495.6 122.6 L 499.0 121.7 L 502.3 121.7 L 505.6 128.8 L 508.9 124.7" stroke="black" stroke-width="3"  stroke-linejoin="round" stroke-linecap="round"  stroke-opacity="0.0" transform="translate(1, 1)"></path><path fill="none" d="M 5.0 185.5 L 8.3 183.3 L 11.6 184.0 L 14.9 184.0 L 18.3 184.7 L 21.6 182.3 L 24.9 180.4 L 28.2 178.7 L 31.5 169.2 L 34.8 162.8 L 38.1 162.8 L 41.5 161.7 L 44.8 158.7 L 48.1 159.3 L 51.4 158.2 L 54.7 152.3 L 58.0 149.9 L 61.3 149.9 L 64.7 151.4 L 68.0 150.6 L 71.3 152.6 L 74.6 154.8 L 77.9 156.7 L 81.2 154.2 L 84.6 154.3 L 87.9 153.0 L 91.2 149.6 L 94.5 150.7 L 97.8 152.7 L 101.1 151.3 L 104.4 149.4 L 107.8 149.4 L 111.1 148.1 L 114.4 144.1 L 117.7 141.0 L 121.0 140.8 L 124.3 132.4 L 127.7 132.1 L 131.0 132.3 L 134.3 132.7 L 137.6 126.4 L 140.9 125.4 L 144.2 118.1 L 147.5 123.8 L 150.9 130.4 L 154.2 130.6 L 157.5 132.6 L 160.8 130.0 L 164.1 129.2 L 167.4 137.1 L 170.8 134.2 L 174.1 140.7 L 177.4 140.8 L 180.7 145.7 L 184.0 152.9 L 187.3 149.6 L 190.6 149.6 L 194.0 147.1 L 197.3 146.8 L 200.6 146.8 L 203.9 140.0 L 207.2 133.4 L 210.5 124.4 L 213.9 116.5 L 217.2 112.5 L 220.5 109.9 L 223.8 109.5 L 227.1 101.3 L 230.4 100.5 L 233.7 103.2 L 237.1 105.0 L 240.4 98.8 L 243.7 91.7 L 247.0 92.2 L 250.3 100.6 L 253.6 104.8 L 257 101.1 L 260.3 94.3 L 263.6 94.8 L 266.9 92.2 L 270.2 92.2 L 273.5 92.8 L 276.8 84.4 L 280.2 67.3 L 283.5 62.0 L 286.8 53.0 L 290.1 55.4 L 293.4 50.7 L 296.7 45.1 L 300.0 43.7 L 303.4 60.1 L 306.7 74.5 L 310.0 57.7 L 313.3 56.5 L 316.6 56.6 L 319.9 60.2 L 323.3 57.0 L 326.6 68.2 L 329.9 64.0 L 333.2 58.2 L 336.5 56.2 L 339.8 56.4 L 343.1 63.2 L 346.5 55.5 L 349.8 46.9 L 353.1 44.0 L 356.4 57.0 L 359.7 50.4 L 363.0 49.9 L 366.4 50.8 L 369.7 51.6 L 373.0 51.5 L 376.3 45.3 L 379.6 45.4 L 382.9 48.9 L 386.2 49.0 L 389.6 54.8 L 392.9 67.0 L 396.2 70.1 L 399.5 66.5 L 402.8 62.9 L 406.1 54.8 L 409.5 54.8 L 412.8 53.3 L 416.1 52.8 L 419.4 54.2 L 422.7 55.1 L 426.0 57.2 L 429.3 56.2 L 432.7 56.3 L 436.0 62.6 L 439.3 65.8 L 442.6 69.5 L 445.9 79.0 L 449.2 89.0 L 452.6 91.3 L 455.9 91.1 L 459.2 97.0 L 462.5 107.6 L 465.8 126.6 L 469.1 139.6 L 472.4 125.8 L 475.8 116.2 L 479.1 116.3 L 482.4 119.6 L 485.7 119.3 L 489.0 119.1 L 492.3 120.7 L 495.6 122.6 L 499.0 121.7 L 502.3 121.7 L 505.6 128.8 L 508.9 124.7" stroke="black" stroke-width="1"  stroke-linejoin="round" stroke-linecap="round"  stroke-opacity="0.1" transform="translate(1, 1)"></path><path fill="none" d="M 5.0 185.5 L 8.3 183.3 L 11.6 184.0 L 14.9 184.0 L 18.3 184.7 L 21.6 182.3 L 24.9 180.4 L 28.2 178.7 L 31.5 169.2 L 34.8 162.8 L 38.1 162.8 L 41.5 161.7 L 44.8 158.7 L 48.1 159.3 L 51.4 158.2 L 54.7 152.3 L 58.0 149.9 L 61.3 149.9 L 64.7 151.4 L 68.0 150.6 L 71.3 152.6 L 74.6 154.8 L 77.9 156.7 L 81.2 154.2 L 84.6 154.3 L 87.9 153.0 L 91.2 149.6 L 94.5 150.7 L 97.8 152.7 L 101.1 151.3 L 104.4 149.4 L 107.8 149.4 L 111.1 148.1 L 114.4 144.1 L 117.7 141.0 L 121.0 140.8 L 124.3 132.4 L 127.7 132.1 L 131.0 132.3 L 134.3 132.7 L 137.6 126.4 L 140.9 125.4 L 144.2 118.1 L 147.5 123.8 L 150.9 130.4 L 154.2 130.6 L 157.5 132.6 L 160.8 130.0 L 164.1 129.2 L 167.4 137.1 L 170.8 134.2 L 174.1 140.7 L 177.4 140.8 L 180.7 145.7 L 184.0 152.9 L 187.3 149.6 L 190.6 149.6 L 194.0 147.1 L 197.3 146.8 L 200.6 146.8 L 203.9 140.0 L 207.2 133.4 L 210.5 124.4 L 213.9 116.5 L 217.2 112.5 L 220.5 109.9 L 223.8 109.5 L 227.1 101.3 L 230.4 100.5 L 233.7 103.2 L 237.1 105.0 L 240.4 98.8 L 243.7 91.7 L 247.0 92.2 L 250.3 100.6 L 253.6 104.8 L 257 101.1 L 260.3 94.3 L 263.6 94.8 L 266.9 92.2 L 270.2 92.2 L 273.5 92.8 L 276.8 84.4 L 280.2 67.3 L 283.5 62.0 L 286.8 53.0 L 290.1 55.4 L 293.4 50.7 L 296.7 45.1 L 300.0 43.7 L 303.4 60.1 L 306.7 74.5 L 310.0 57.7 L 313.3 56.5 L 316.6 56.6 L 319.9 60.2 L 323.3 57.0 L 326.6 68.2 L 329.9 64.0 L 333.2 58.2 L 336.5 56.2 L 339.8 56.4 L 343.1 63.2 L 346.5 55.5 L 349.8 46.9 L 353.1 44.0 L 356.4 57.0 L 359.7 50.4 L 363.0 49.9 L 366.4 50.8 L 369.7 51.6 L 373.0 51.5 L 376.3 45.3 L 379.6 45.4 L 382.9 48.9 L 386.2 49.0 L 389.6 54.8 L 392.9 67.0 L 396.2 70.1 L 399.5 66.5 L 402.8 62.9 L 406.1 54.8 L 409.5 54.8 L 412.8 53.3 L 416.1 52.8 L 419.4 54.2 L 422.7 55.1 L 426.0 57.2 L 429.3 56.2 L 432.7 56.3 L 436.0 62.6 L 439.3 65.8 L 442.6 69.5 L 445.9 79.0 L 449.2 89.0 L 452.6 91.3 L 455.9 91.1 L 459.2 97.0 L 462.5 107.6 L 465.8 126.6 L 469.1 139.6 L 472.4 125.8 L 475.8 116.2 L 479.1 116.3 L 482.4 119.6 L 485.7 119.3 L 489.0 119.1 L 492.3 120.7 L 495.6 122.6 L 499.0 121.7 L 502.3 121.7 L 505.6 128.8 L 508.9 124.7" stroke="#f45b5b" stroke-width="2"  stroke-linejoin="round" stroke-linecap="round"></path><path fill="none" d="M -4.9 185.5 L 5.0 185.5 L 8.3 183.3 L 11.6 184.0 L 14.9 184.0 L 18.3 184.7 L 21.6 182.3 L 24.9 180.4 L 28.2 178.7 L 31.5 169.2 L 34.8 162.8 L 38.1 162.8 L 41.5 161.7 L 44.8 158.7 L 48.1 159.3 L 51.4 158.2 L 54.7 152.3 L 58.0 149.9 L 61.3 149.9 L 64.7 151.4 L 68.0 150.6 L 71.3 152.6 L 74.6 154.8 L 77.9 156.7 L 81.2 154.2 L 84.6 154.3 L 87.9 153.0 L 91.2 149.6 L 94.5 150.7 L 97.8 152.7 L 101.1 151.3 L 104.4 149.4 L 107.8 149.4 L 111.1 148.1 L 114.4 144.1 L 117.7 141.0 L 121.0 140.8 L 124.3 132.4 L 127.7 132.1 L 131.0 132.3 L 134.3 132.7 L 137.6 126.4 L 140.9 125.4 L 144.2 118.1 L 147.5 123.8 L 150.9 130.4 L 154.2 130.6 L 157.5 132.6 L 160.8 130.0 L 164.1 129.2 L 167.4 137.1 L 170.8 134.2 L 174.1 140.7 L 177.4 140.8 L 180.7 145.7 L 184.0 152.9 L 187.3 149.6 L 190.6 149.6 L 194.0 147.1 L 197.3 146.8 L 200.6 146.8 L 203.9 140.0 L 207.2 133.4 L 210.5 124.4 L 213.9 116.5 L 217.2 112.5 L 220.5 109.9 L 223.8 109.5 L 227.1 101.3 L 230.4 100.5 L 233.7 103.2 L 237.1 105.0 L 240.4 98.8 L 243.7 91.7 L 247.0 92.2 L 250.3 100.6 L 253.6 104.8 L 257 101.1 L 260.3 94.3 L 263.6 94.8 L 266.9 92.2 L 270.2 92.2 L 273.5 92.8 L 276.8 84.4 L 280.2 67.3 L 283.5 62.0 L 286.8 53.0 L 290.1 55.4 L 293.4 50.7 L 296.7 45.1 L 300.0 43.7 L 303.4 60.1 L 306.7 74.5 L 310.0 57.7 L 313.3 56.5 L 316.6 56.6 L 319.9 60.2 L 323.3 57.0 L 326.6 68.2 L 329.9 64.0 L 333.2 58.2 L 336.5 56.2 L 339.8 56.4 L 343.1 63.2 L 346.5 55.5 L 349.8 46.9 L 353.1 44.0 L 356.4 57.0 L 359.7 50.4 L 363.0 49.9 L 366.4 50.8 L 369.7 51.6 L 373.0 51.5 L 376.3 45.3 L 379.6 45.4 L 382.9 48.9 L 386.2 49.0 L 389.6 54.8 L 392.9 67.0 L 396.2 70.1 L 399.5 66.5 L 402.8 62.9 L 406.1 54.8 L 409.5 54.8 L 412.8 53.3 L 416.1 52.8 L 419.4 54.2 L 422.7 55.1 L 426.0 57.2 L 429.3 56.2 L 432.7 56.3 L 436.0 62.6 L 439.3 65.8 L 442.6 69.5 L 445.9 79.0 L 449.2 89.0 L 452.6 91.3 L 455.9 91.1 L 459.2 97.0 L 462.5 107.6 L 465.8 126.6 L 469.1 139.6 L 472.4 125.8 L 475.8 116.2 L 479.1 116.3 L 482.4 119.6 L 485.7 119.3 L 489.0 119.1 L 492.3 120.7 L 495.6 122.6 L 499.0 121.7 L 502.3 121.7 L 505.6 128.8 L 508.9 124.7 L 518.9 124.7" stroke-linejoin="round" visibility="visible" stroke="rgb(192,192,192)" stroke-opacity="0.0" stroke-width="22"  class=" highcharts-tracker" style=""></path></g><g class="highcharts-markers highcharts-tracker" visibility="visible"  transform="translate(50,58) scale(1 1)" clip-path="url(#highcharts-7)" style=""></g></g><text x="292" text-anchor="middle" class="highcharts-title"  style="color:black;font-size:16px;font-weight:bold;fill:black;width:520px;" y="22"><tspan>Historical USD to EUR Exchange Rate</tspan></text><text x="292" text-anchor="middle" class="highcharts-subtitle"  style="color:black;fill:black;width:520px;" y="43"><tspan>Select an area by dragging across the lower chart</tspan></text><g class="highcharts-axis-labels highcharts-xaxis-labels" ><text x="55.0" style="color:#6e6e70;cursor:default;font-size:11px;fill:#6e6e70;width:76px;text-overflow:clip;" text-anchor="middle" transform="translate(0,0)" y="299" opacity="1"><tspan>Aug '08</tspan></text><text x="157.8" style="color:#6e6e70;cursor:default;font-size:11px;fill:#6e6e70;width:76px;text-overflow:clip;" text-anchor="middle" transform="translate(0,0)" y="299" opacity="1"><tspan>Sep '08</tspan></text><text x="257.2" style="color:#6e6e70;cursor:default;font-size:11px;fill:#6e6e70;width:76px;text-overflow:clip;" text-anchor="middle" transform="translate(0,0)" y="299" opacity="1"><tspan>Oct '08</tspan></text><text x="360.0" style="color:#6e6e70;cursor:default;font-size:11px;fill:#6e6e70;width:76px;text-overflow:clip;" text-anchor="middle" transform="translate(0,0)" y="299" opacity="1"><tspan>Nov '08</tspan></text><text x="459.5" style="color:#6e6e70;cursor:default;font-size:11px;fill:#6e6e70;width:76px;text-overflow:clip;" text-anchor="middle" transform="translate(0,0)" y="299" opacity="1"><tspan>Dec '08</tspan></text><text x="574" style="color:#6e6e70;cursor:default;font-size:11px;fill:#6e6e70;width:76px;text-overflow:clip;" text-anchor="end" transform="translate(0,0)" y="299" opacity="1"><tspan>Jan '09</tspan></text></g><g class="highcharts-axis-labels highcharts-yaxis-labels" ><text x="35" style="color:#6e6e70;cursor:default;font-size:11px;fill:#6e6e70;width:30px;text-overflow:clip;" text-anchor="end" transform="translate(0,0)" y="285" opacity="1">0.6</text><text x="35" style="color:#6e6e70;cursor:default;font-size:11px;fill:#6e6e70;width:30px;text-overflow:clip;" text-anchor="end" transform="translate(0,0)" y="240" opacity="1">0.6</text><text x="35" style="color:#6e6e70;cursor:default;font-size:11px;fill:#6e6e70;width:30px;text-overflow:clip;" text-anchor="end" transform="translate(0,0)" y="196" opacity="1">0.7</text><text x="35" style="color:#6e6e70;cursor:default;font-size:11px;fill:#6e6e70;width:30px;text-overflow:clip;" text-anchor="end" transform="translate(0,0)" y="151" opacity="1">0.7</text><text x="35" style="color:#6e6e70;cursor:default;font-size:11px;fill:#6e6e70;width:30px;text-overflow:clip;" text-anchor="end" transform="translate(0,0)" y="107" opacity="1">0.8</text><text x="35" style="color:#6e6e70;cursor:default;font-size:11px;fill:#6e6e70;width:30px;text-overflow:clip;" text-anchor="end" transform="translate(0,0)" y="63" opacity="1">0.8</text></g><g class="highcharts-tooltip"  style="cursor:default;padding:0;white-space:nowrap;" transform="translate(0,-9999)"><path fill="none" d="M 3 0 L 13 0 C 16 0 16 0 16 3 L 16 13 C 16 16 16 16 13 16 L 3 16 C 0 16 0 16 0 13 L 0 3 C 0 0 0 0 3 0"  stroke="black" stroke-opacity="0.0" stroke-width="5" transform="translate(1, 1)"></path><path fill="none" d="M 3 0 L 13 0 C 16 0 16 0 16 3 L 16 13 C 16 16 16 16 13 16 L 3 16 C 0 16 0 16 0 13 L 0 3 C 0 0 0 0 3 0"  stroke="black" stroke-opacity="0.0" stroke-width="3" transform="translate(1, 1)"></path><path fill="none" d="M 3 0 L 13 0 C 16 0 16 0 16 3 L 16 13 C 16 16 16 16 13 16 L 3 16 C 0 16 0 16 0 13 L 0 3 C 0 0 0 0 3 0"  stroke="black" stroke-opacity="0.1" stroke-width="1" transform="translate(1, 1)"></path><path fill="rgb(249, 249, 249)" fill-opacity=" .85" d="M 3 0 L 13 0 C 16 0 16 0 16 3 L 16 13 C 16 16 16 16 13 16 L 3 16 C 0 16 0 16 0 13 L 0 3 C 0 0 0 0 3 0"></path><text x="8"  style="font-size:12px;color:#333333;fill:#333333;" transform="translate(0,20)"></text></g></svg>