<svg version="1.1" style="font-family: signika, serif; font-size: 12px; background-image: url(http://www.highcharts.com/samples/graphics/sand.png); background-attachment: initial; background-origin: initial; background-clip: initial; background-color: initial; background-position: initial initial; background-repeat: initial initial; " xmlns="http://www.w3.org/2000/svg" width="584" height="400" viewBox="0 0 584 400" xmlns:xlink="http://www.w3.org/1999/xlink"><style type="text/css"><![CDATA[@import url(http://fonts.googleapis.com/css?family=Signika:700);]]></style><desc>Created with Highcharts 4.1.4</desc><defs><clipPath id="highcharts-1"><rect x="0" y="0" width="422" height="281"></rect></clipPath><clipPath id="highcharts-2"><rect x="-99" y="-44" width="521" height="400"></rect></clipPath><clipPath id="highcharts-3"><rect x="0" y="0" width="422" height="281"></rect></clipPath></defs><g class="highcharts-grid" ></g><g class="highcharts-grid" ><path fill="none" d="M 76 325.5 L 498 325.5" stroke="#D8D8D8" stroke-width="1"  opacity="1"></path><path fill="none" d="M 76 269.5 L 498 269.5" stroke="#D8D8D8" stroke-width="1"  opacity="1"></path><path fill="none" d="M 76 213.5 L 498 213.5" stroke="#D8D8D8" stroke-width="1"  opacity="1"></path><path fill="none" d="M 76 156.5 L 498 156.5" stroke="#D8D8D8" stroke-width="1"  opacity="1"></path><path fill="none" d="M 76 100.5 L 498 100.5" stroke="#D8D8D8" stroke-width="1"  opacity="1"></path><path fill="none" d="M 76 43.5 L 498 43.5" stroke="#D8D8D8" stroke-width="1"  opacity="1"></path></g><g class="highcharts-grid" ><path fill="none" d="M 76 325.5 L 498 325.5" stroke="#D8D8D8" stroke-width="1"  opacity="1"></path><path fill="none" d="M 76 269.5 L 498 269.5" stroke="#D8D8D8" stroke-width="1"  opacity="1"></path><path fill="none" d="M 76 213.5 L 498 213.5" stroke="#D8D8D8" stroke-width="1"  opacity="1"></path><path fill="none" d="M 76 156.5 L 498 156.5" stroke="#D8D8D8" stroke-width="1"  opacity="1"></path><path fill="none" d="M 76 100.5 L 498 100.5" stroke="#D8D8D8" stroke-width="1"  opacity="1"></path><path fill="none" d="M 76 43.5 L 498 43.5" stroke="#D8D8D8" stroke-width="1"  opacity="1"></path></g><g class="highcharts-axis" ><path fill="none" d="M 110.5 325 L 110.5 335" stroke="#C0D0E0" stroke-width="1" opacity="1"></path><path fill="none" d="M 145.5 325 L 145.5 335" stroke="#C0D0E0" stroke-width="1" opacity="1"></path><path fill="none" d="M 181.5 325 L 181.5 335" stroke="#C0D0E0" stroke-width="1" opacity="1"></path><path fill="none" d="M 216.5 325 L 216.5 335" stroke="#C0D0E0" stroke-width="1" opacity="1"></path><path fill="none" d="M 251.5 325 L 251.5 335" stroke="#C0D0E0" stroke-width="1" opacity="1"></path><path fill="none" d="M 286.5 325 L 286.5 335" stroke="#C0D0E0" stroke-width="1" opacity="1"></path><path fill="none" d="M 321.5 325 L 321.5 335" stroke="#C0D0E0" stroke-width="1" opacity="1"></path><path fill="none" d="M 356.5 325 L 356.5 335" stroke="#C0D0E0" stroke-width="1" opacity="1"></path><path fill="none" d="M 391.5 325 L 391.5 335" stroke="#C0D0E0" stroke-width="1" opacity="1"></path><path fill="none" d="M 427.5 325 L 427.5 335" stroke="#C0D0E0" stroke-width="1" opacity="1"></path><path fill="none" d="M 462.5 325 L 462.5 335" stroke="#C0D0E0" stroke-width="1" opacity="1"></path><path fill="none" d="M 497.5 325 L 497.5 335" stroke="#C0D0E0" stroke-width="1" opacity="1"></path><path fill="none" d="M 75.5 325 L 75.5 335" stroke="#C0D0E0" stroke-width="1" opacity="1"></path><path fill="none" d="M 76 325.5 L 498 325.5" stroke="#C0D0E0" stroke-width="1"  visibility="visible"></path></g><g class="highcharts-axis" ><text x="24"  text-anchor="middle" transform="translate(0,0) rotate(270 24 184.5)" class=" highcharts-yaxis-title" style="color:#8085e9;fill:#8085e9;" visibility="visible" y="184.5">Temperature</text></g><g class="highcharts-axis" ><text x="560"  text-anchor="middle" transform="translate(0,0) rotate(90 560 184.5)" class=" highcharts-yaxis-title" style="color:#f45b5b;fill:#f45b5b;" visibility="visible" y="184.5">Rainfall</text></g><g class="highcharts-series-group" ><g class="highcharts-series highcharts-tracker" visibility="visible"  transform="translate(76,44) scale(1 1)" style="" clip-path="url(#highcharts-1)"><rect x="8.5" y="225.5" width="17" height="56" stroke="black" stroke-width="5" fill="none" rx="0" ry="0"  stroke-opacity="0.0" transform="translate(1, 1)"></rect><rect x="8.5" y="225.5" width="17" height="56" stroke="black" stroke-width="3" fill="none" rx="0" ry="0"  stroke-opacity="0.0" transform="translate(1, 1)"></rect><rect x="8.5" y="225.5" width="17" height="56" stroke="black" stroke-width="1" fill="none" rx="0" ry="0"  stroke-opacity="0.1" transform="translate(1, 1)"></rect><rect x="8.5" y="225.5" width="17" height="56" stroke="#FFFFFF" stroke-width="1" fill="#f45b5b" rx="0" ry="0"></rect><rect x="43.5" y="201.5" width="17" height="80" stroke="black" stroke-width="5" fill="none" rx="0" ry="0"  stroke-opacity="0.0" transform="translate(1, 1)"></rect><rect x="43.5" y="201.5" width="17" height="80" stroke="black" stroke-width="3" fill="none" rx="0" ry="0"  stroke-opacity="0.0" transform="translate(1, 1)"></rect><rect x="43.5" y="201.5" width="17" height="80" stroke="black" stroke-width="1" fill="none" rx="0" ry="0"  stroke-opacity="0.1" transform="translate(1, 1)"></rect><rect x="43.5" y="201.5" width="17" height="80" stroke="#FFFFFF" stroke-width="1" fill="#f45b5b" rx="0" ry="0"></rect><rect x="78.5" y="161.5" width="17" height="120" stroke="black" stroke-width="5" fill="none" rx="0" ry="0"  stroke-opacity="0.0" transform="translate(1, 1)"></rect><rect x="78.5" y="161.5" width="17" height="120" stroke="black" stroke-width="3" fill="none" rx="0" ry="0"  stroke-opacity="0.0" transform="translate(1, 1)"></rect><rect x="78.5" y="161.5" width="17" height="120" stroke="black" stroke-width="1" fill="none" rx="0" ry="0"  stroke-opacity="0.1" transform="translate(1, 1)"></rect><rect x="78.5" y="161.5" width="17" height="120" stroke="#FFFFFF" stroke-width="1" fill="#f45b5b" rx="0" ry="0"></rect><rect x="114.5" y="136.5" width="17" height="145" stroke="black" stroke-width="5" fill="none" rx="0" ry="0"  stroke-opacity="0.0" transform="translate(1, 1)"></rect><rect x="114.5" y="136.5" width="17" height="145" stroke="black" stroke-width="3" fill="none" rx="0" ry="0"  stroke-opacity="0.0" transform="translate(1, 1)"></rect><rect x="114.5" y="136.5" width="17" height="145" stroke="black" stroke-width="1" fill="none" rx="0" ry="0"  stroke-opacity="0.1" transform="translate(1, 1)"></rect><rect x="114.5" y="136.5" width="17" height="145" stroke="#FFFFFF" stroke-width="1" fill="#f45b5b" rx="0" ry="0"></rect><rect x="149.5" y="119.5" width="17" height="162" stroke="black" stroke-width="5" fill="none" rx="0" ry="0"  stroke-opacity="0.0" transform="translate(1, 1)"></rect><rect x="149.5" y="119.5" width="17" height="162" stroke="black" stroke-width="3" fill="none" rx="0" ry="0"  stroke-opacity="0.0" transform="translate(1, 1)"></rect><rect x="149.5" y="119.5" width="17" height="162" stroke="black" stroke-width="1" fill="none" rx="0" ry="0"  stroke-opacity="0.1" transform="translate(1, 1)"></rect><rect x="149.5" y="119.5" width="17" height="162" stroke="#FFFFFF" stroke-width="1" fill="#f45b5b" rx="0" ry="0"></rect><rect x="184.5" y="83.5" width="17" height="198" stroke="black" stroke-width="5" fill="none" rx="0" ry="0"  stroke-opacity="0.0" transform="translate(1, 1)"></rect><rect x="184.5" y="83.5" width="17" height="198" stroke="black" stroke-width="3" fill="none" rx="0" ry="0"  stroke-opacity="0.0" transform="translate(1, 1)"></rect><rect x="184.5" y="83.5" width="17" height="198" stroke="black" stroke-width="1" fill="none" rx="0" ry="0"  stroke-opacity="0.1" transform="translate(1, 1)"></rect><rect x="184.5" y="83.5" width="17" height="198" stroke="#FFFFFF" stroke-width="1" fill="#f45b5b" rx="0" ry="0"></rect><rect x="219.5" y="129.5" width="17" height="152" stroke="black" stroke-width="5" fill="none" rx="0" ry="0"  stroke-opacity="0.0" transform="translate(1, 1)"></rect><rect x="219.5" y="129.5" width="17" height="152" stroke="black" stroke-width="3" fill="none" rx="0" ry="0"  stroke-opacity="0.0" transform="translate(1, 1)"></rect><rect x="219.5" y="129.5" width="17" height="152" stroke="black" stroke-width="1" fill="none" rx="0" ry="0"  stroke-opacity="0.1" transform="translate(1, 1)"></rect><rect x="219.5" y="129.5" width="17" height="152" stroke="#FFFFFF" stroke-width="1" fill="#f45b5b" rx="0" ry="0"></rect><rect x="254.5" y="114.5" width="17" height="167" stroke="black" stroke-width="5" fill="none" rx="0" ry="0"  stroke-opacity="0.0" transform="translate(1, 1)"></rect><rect x="254.5" y="114.5" width="17" height="167" stroke="black" stroke-width="3" fill="none" rx="0" ry="0"  stroke-opacity="0.0" transform="translate(1, 1)"></rect><rect x="254.5" y="114.5" width="17" height="167" stroke="black" stroke-width="1" fill="none" rx="0" ry="0"  stroke-opacity="0.1" transform="translate(1, 1)"></rect><rect x="254.5" y="114.5" width="17" height="167" stroke="#FFFFFF" stroke-width="1" fill="#f45b5b" rx="0" ry="0"></rect><rect x="289.5" y="38.5" width="17" height="243" stroke="black" stroke-width="5" fill="none" rx="0" ry="0"  stroke-opacity="0.0" transform="translate(1, 1)"></rect><rect x="289.5" y="38.5" width="17" height="243" stroke="black" stroke-width="3" fill="none" rx="0" ry="0"  stroke-opacity="0.0" transform="translate(1, 1)"></rect><rect x="289.5" y="38.5" width="17" height="243" stroke="black" stroke-width="1" fill="none" rx="0" ry="0"  stroke-opacity="0.1" transform="translate(1, 1)"></rect><rect x="289.5" y="38.5" width="17" height="243" stroke="#FFFFFF" stroke-width="1" fill="#f45b5b" rx="0" ry="0"></rect><rect x="325.5" y="63.5" width="17" height="218" stroke="black" stroke-width="5" fill="none" rx="0" ry="0"  stroke-opacity="0.0" transform="translate(1, 1)"></rect><rect x="325.5" y="63.5" width="17" height="218" stroke="black" stroke-width="3" fill="none" rx="0" ry="0"  stroke-opacity="0.0" transform="translate(1, 1)"></rect><rect x="325.5" y="63.5" width="17" height="218" stroke="black" stroke-width="1" fill="none" rx="0" ry="0"  stroke-opacity="0.1" transform="translate(1, 1)"></rect><rect x="325.5" y="63.5" width="17" height="218" stroke="#FFFFFF" stroke-width="1" fill="#f45b5b" rx="0" ry="0"></rect><rect x="360.5" y="174.5" width="17" height="107" stroke="black" stroke-width="5" fill="none" rx="0" ry="0"  stroke-opacity="0.0" transform="translate(1, 1)"></rect><rect x="360.5" y="174.5" width="17" height="107" stroke="black" stroke-width="3" fill="none" rx="0" ry="0"  stroke-opacity="0.0" transform="translate(1, 1)"></rect><rect x="360.5" y="174.5" width="17" height="107" stroke="black" stroke-width="1" fill="none" rx="0" ry="0"  stroke-opacity="0.1" transform="translate(1, 1)"></rect><rect x="360.5" y="174.5" width="17" height="107" stroke="#FFFFFF" stroke-width="1" fill="#f45b5b" rx="0" ry="0"></rect><rect x="395.5" y="220.5" width="17" height="61" stroke="black" stroke-width="5" fill="none" rx="0" ry="0"  stroke-opacity="0.0" transform="translate(1, 1)"></rect><rect x="395.5" y="220.5" width="17" height="61" stroke="black" stroke-width="3" fill="none" rx="0" ry="0"  stroke-opacity="0.0" transform="translate(1, 1)"></rect><rect x="395.5" y="220.5" width="17" height="61" stroke="black" stroke-width="1" fill="none" rx="0" ry="0"  stroke-opacity="0.1" transform="translate(1, 1)"></rect><rect x="395.5" y="220.5" width="17" height="61" stroke="#FFFFFF" stroke-width="1" fill="#f45b5b" rx="0" ry="0"></rect></g><g class="highcharts-markers" visibility="visible"  transform="translate(76,44) scale(1 1)"></g><g class="highcharts-series highcharts-tracker" visibility="visible"  transform="translate(76,44) scale(1 1)" style="" clip-path="url(#highcharts-1)"><g><path fill="none" d="M 17.5 227 L 17.5 223 M 17.5 227 L 17.5 227" stroke="#000000" stroke-width="1"></path><path fill="none" d="M 13 223.5 L 22 223.5 M 13 227.5 L 22 227.5" stroke="#000000" stroke-width="1"></path><path fill="none" d="M 0 0" stroke="#000000" stroke-width="2"></path></g><g><path fill="none" d="M 52.5 204 L 52.5 198 M 52.5 204 L 52.5 204" stroke="#000000" stroke-width="1"></path><path fill="none" d="M 48 198.5 L 57 198.5 M 48 204.5 L 57 204.5" stroke="#000000" stroke-width="1"></path><path fill="none" d="M 0 0" stroke="#000000" stroke-width="2"></path></g><g><path fill="none" d="M 87.5 177 L 87.5 157 M 87.5 177 L 87.5 177" stroke="#000000" stroke-width="1"></path><path fill="none" d="M 83 157.5 L 92 157.5 M 83 177.5 L 92 177.5" stroke="#000000" stroke-width="1"></path><path fill="none" d="M 0 0" stroke="#000000" stroke-width="2"></path></g><g><path fill="none" d="M 123.5 137 L 123.5 128 M 123.5 137 L 123.5 137" stroke="#000000" stroke-width="1"></path><path fill="none" d="M 119 128.5 L 128 128.5 M 119 137.5 L 128 137.5" stroke="#000000" stroke-width="1"></path><path fill="none" d="M 0 0" stroke="#000000" stroke-width="2"></path></g><g><path fill="none" d="M 158.5 123 L 158.5 112 M 158.5 123 L 158.5 123" stroke="#000000" stroke-width="1"></path><path fill="none" d="M 154 112.5 L 163 112.5 M 154 123.5 L 163 123.5" stroke="#000000" stroke-width="1"></path><path fill="none" d="M 0 0" stroke="#000000" stroke-width="2"></path></g><g><path fill="none" d="M 193.5 88 L 193.5 79 M 193.5 88 L 193.5 88" stroke="#000000" stroke-width="1"></path><path fill="none" d="M 189 79.5 L 198 79.5 M 189 88.5 L 198 88.5" stroke="#000000" stroke-width="1"></path><path fill="none" d="M 0 0" stroke="#000000" stroke-width="2"></path></g><g><path fill="none" d="M 228.5 129 L 228.5 120 M 228.5 129 L 228.5 129" stroke="#000000" stroke-width="1"></path><path fill="none" d="M 224 120.5 L 233 120.5 M 224 129.5 L 233 129.5" stroke="#000000" stroke-width="1"></path><path fill="none" d="M 0 0" stroke="#000000" stroke-width="2"></path></g><g><path fill="none" d="M 263.5 121 L 263.5 113 M 263.5 121 L 263.5 121" stroke="#000000" stroke-width="1"></path><path fill="none" d="M 259 113.5 L 268 113.5 M 259 121.5 L 268 121.5" stroke="#000000" stroke-width="1"></path><path fill="none" d="M 0 0" stroke="#000000" stroke-width="2"></path></g><g><path fill="none" d="M 298.5 51 L 298.5 33 M 298.5 51 L 298.5 51" stroke="#000000" stroke-width="1"></path><path fill="none" d="M 294 33.5 L 303 33.5 M 294 51.5 L 303 51.5" stroke="#000000" stroke-width="1"></path><path fill="none" d="M 0 0" stroke="#000000" stroke-width="2"></path></g><g><path fill="none" d="M 334.5 68 L 334.5 57 M 334.5 68 L 334.5 68" stroke="#000000" stroke-width="1"></path><path fill="none" d="M 330 57.5 L 339 57.5 M 330 68.5 L 339 68.5" stroke="#000000" stroke-width="1"></path><path fill="none" d="M 0 0" stroke="#000000" stroke-width="2"></path></g><g><path fill="none" d="M 369.5 174 L 369.5 157 M 369.5 174 L 369.5 174" stroke="#000000" stroke-width="1"></path><path fill="none" d="M 365 157.5 L 374 157.5 M 365 174.5 L 374 174.5" stroke="#000000" stroke-width="1"></path><path fill="none" d="M 0 0" stroke="#000000" stroke-width="2"></path></g><g><path fill="none" d="M 404.5 222 L 404.5 218 M 404.5 222 L 404.5 222" stroke="#000000" stroke-width="1"></path><path fill="none" d="M 400 218.5 L 409 218.5 M 400 222.5 L 409 222.5" stroke="#000000" stroke-width="1"></path><path fill="none" d="M 0 0" stroke="#000000" stroke-width="2"></path></g></g><g class="highcharts-markers" visibility="visible"  transform="translate(76,44) scale(1 1)"></g><g class="highcharts-series" visibility="visible"  transform="translate(76,44) scale(1 1)" clip-path="url(#highcharts-3)"><path fill="none" d="M 17.5 241.6 C 17.5 241.6 38.6 242.2 52.7 242.2 C 66.8 242.2 73.8 236.1 87.9 227.6 C 101.9 219.0 109.0 209.2 123.0 199.5 C 137.1 189.7 144.1 186.5 158.2 178.7 C 172.3 170.8 179.3 168.0 193.4 160.1 C 207.4 152.3 214.5 144.9 228.5 139.3 C 242.6 133.7 249.6 132.0 263.7 132.0 C 277.8 132.0 284.8 140.8 298.9 150.0 C 312.9 159.2 320.0 167.5 334.0 178.1 C 348.1 188.7 355.1 193.1 369.2 202.8 C 383.3 212.6 404.4 227.0 404.4 227.0" stroke="black" stroke-width="5"  stroke-linejoin="round" stroke-linecap="round"  stroke-opacity="0.0" transform="translate(1, 1)"></path><path fill="none" d="M 17.5 241.6 C 17.5 241.6 38.6 242.2 52.7 242.2 C 66.8 242.2 73.8 236.1 87.9 227.6 C 101.9 219.0 109.0 209.2 123.0 199.5 C 137.1 189.7 144.1 186.5 158.2 178.7 C 172.3 170.8 179.3 168.0 193.4 160.1 C 207.4 152.3 214.5 144.9 228.5 139.3 C 242.6 133.7 249.6 132.0 263.7 132.0 C 277.8 132.0 284.8 140.8 298.9 150.0 C 312.9 159.2 320.0 167.5 334.0 178.1 C 348.1 188.7 355.1 193.1 369.2 202.8 C 383.3 212.6 404.4 227.0 404.4 227.0" stroke="black" stroke-width="3"  stroke-linejoin="round" stroke-linecap="round"  stroke-opacity="0.0" transform="translate(1, 1)"></path><path fill="none" d="M 17.5 241.6 C 17.5 241.6 38.6 242.2 52.7 242.2 C 66.8 242.2 73.8 236.1 87.9 227.6 C 101.9 219.0 109.0 209.2 123.0 199.5 C 137.1 189.7 144.1 186.5 158.2 178.7 C 172.3 170.8 179.3 168.0 193.4 160.1 C 207.4 152.3 214.5 144.9 228.5 139.3 C 242.6 133.7 249.6 132.0 263.7 132.0 C 277.8 132.0 284.8 140.8 298.9 150.0 C 312.9 159.2 320.0 167.5 334.0 178.1 C 348.1 188.7 355.1 193.1 369.2 202.8 C 383.3 212.6 404.4 227.0 404.4 227.0" stroke="black" stroke-width="1"  stroke-linejoin="round" stroke-linecap="round"  stroke-opacity="0.1" transform="translate(1, 1)"></path><path fill="none" d="M 17.5 241.6 C 17.5 241.6 38.6 242.2 52.7 242.2 C 66.8 242.2 73.8 236.1 87.9 227.6 C 101.9 219.0 109.0 209.2 123.0 199.5 C 137.1 189.7 144.1 186.5 158.2 178.7 C 172.3 170.8 179.3 168.0 193.4 160.1 C 207.4 152.3 214.5 144.9 228.5 139.3 C 242.6 133.7 249.6 132.0 263.7 132.0 C 277.8 132.0 284.8 140.8 298.9 150.0 C 312.9 159.2 320.0 167.5 334.0 178.1 C 348.1 188.7 355.1 193.1 369.2 202.8 C 383.3 212.6 404.4 227.0 404.4 227.0" stroke="#8085e9" stroke-width="2"  stroke-linejoin="round" stroke-linecap="round"></path><path fill="none" d="M 7.5 241.6 L 17.5 241.6 C 17.5 241.6 38.6 242.2 52.7 242.2 C 66.8 242.2 73.8 236.1 87.9 227.6 C 101.9 219.0 109.0 209.2 123.0 199.5 C 137.1 189.7 144.1 186.5 158.2 178.7 C 172.3 170.8 179.3 168.0 193.4 160.1 C 207.4 152.3 214.5 144.9 228.5 139.3 C 242.6 133.7 249.6 132.0 263.7 132.0 C 277.8 132.0 284.8 140.8 298.9 150.0 C 312.9 159.2 320.0 167.5 334.0 178.1 C 348.1 188.7 355.1 193.1 369.2 202.8 C 383.3 212.6 404.4 227.0 404.4 227.0 L 414.4 227.0" stroke-linejoin="round" visibility="visible" stroke="rgb(192,192,192)" stroke-opacity="0.0" stroke-width="22"  class=" highcharts-tracker" style=""></path></g><g class="highcharts-markers highcharts-tracker" visibility="visible"  transform="translate(76,44) scale(1 1)" clip-path="url(#highcharts-2)" style=""><path fill="#8085e9" d="M 404 223.0 C 409.3 223.0 409.3 231.0 404 231.0 C 398.6 231.0 398.6 223.0 404 223.0 Z"></path><path fill="#8085e9" d="M 369 198.8 C 374.3 198.8 374.3 206.8 369 206.8 C 363.6 206.8 363.6 198.8 369 198.8 Z"></path><path fill="#8085e9" d="M 334 174.1 C 339.3 174.1 339.3 182.1 334 182.1 C 328.6 182.1 328.6 174.1 334 174.1 Z"></path><path fill="#8085e9" d="M 298 146.0 C 303.3 146.0 303.3 154.0 298 154.0 C 292.6 154.0 292.6 146.0 298 146.0 Z"></path><path fill="#8085e9" d="M 263 128.0 C 268.3 128.0 268.3 136.0 263 136.0 C 257.6 136.0 257.6 128.0 263 128.0 Z"></path><path fill="#8085e9" d="M 228 135.3 C 233.3 135.3 233.3 143.3 228 143.3 C 222.6 143.3 222.6 135.3 228 135.3 Z"></path><path fill="#8085e9" d="M 193 156.1 C 198.3 156.1 198.3 164.1 193 164.1 C 187.6 164.1 187.6 156.1 193 156.1 Z"></path><path fill="#8085e9" d="M 158 174.7 C 163.3 174.7 163.3 182.7 158 182.7 C 152.6 182.7 152.6 174.7 158 174.7 Z"></path><path fill="#8085e9" d="M 123 195.5 C 128.3 195.5 128.3 203.5 123 203.5 C 117.6 203.5 117.6 195.5 123 195.5 Z"></path><path fill="#8085e9" d="M 87 223.6 C 92.3 223.6 92.3 231.6 87 231.6 C 81.6 231.6 81.6 223.6 87 223.6 Z"></path><path fill="#8085e9" d="M 52 238.2 C 57.3 238.2 57.3 246.2 52 246.2 C 46.6 246.2 46.6 238.2 52 238.2 Z"></path><path fill="#8085e9" d="M 17 237.6 C 22.3 237.6 22.3 245.6 17 245.6 C 11.6 245.6 11.6 237.6 17 237.6 Z"></path></g><g class="highcharts-series highcharts-tracker" visibility="visible"  transform="translate(76,44) scale(1 1)" style="" clip-path="url(#highcharts-1)"><g><path fill="none" d="M 17.5 247 L 17.5 236 M 17.5 247 L 17.5 247" stroke="#000000" stroke-width="1"></path><path fill="none" d="M 13 236.5 L 22 236.5 M 13 247.5 L 22 247.5" stroke="#000000" stroke-width="1"></path><path fill="none" d="M 0 0" stroke="#000000" stroke-width="2"></path></g><g><path fill="none" d="M 52.5 247 L 52.5 238 M 52.5 247 L 52.5 247" stroke="#000000" stroke-width="1"></path><path fill="none" d="M 48 238.5 L 57 238.5 M 48 247.5 L 57 247.5" stroke="#000000" stroke-width="1"></path><path fill="none" d="M 0 0" stroke="#000000" stroke-width="2"></path></g><g><path fill="none" d="M 87.5 228 L 87.5 222 M 87.5 228 L 87.5 228" stroke="#000000" stroke-width="1"></path><path fill="none" d="M 83 222.5 L 92 222.5 M 83 228.5 L 92 228.5" stroke="#000000" stroke-width="1"></path><path fill="none" d="M 0 0" stroke="#000000" stroke-width="2"></path></g><g><path fill="none" d="M 123.5 201 L 123.5 191 M 123.5 201 L 123.5 201" stroke="#000000" stroke-width="1"></path><path fill="none" d="M 119 191.5 L 128 191.5 M 119 201.5 L 128 201.5" stroke="#000000" stroke-width="1"></path><path fill="none" d="M 0 0" stroke="#000000" stroke-width="2"></path></g><g><path fill="none" d="M 158.5 179 L 158.5 168 M 158.5 179 L 158.5 179" stroke="#000000" stroke-width="1"></path><path fill="none" d="M 154 168.5 L 163 168.5 M 154 179.5 L 163 179.5" stroke="#000000" stroke-width="1"></path><path fill="none" d="M 0 0" stroke="#000000" stroke-width="2"></path></g><g><path fill="none" d="M 193.5 162 L 193.5 146 M 193.5 162 L 193.5 162" stroke="#000000" stroke-width="1"></path><path fill="none" d="M 189 146.5 L 198 146.5 M 189 162.5 L 198 162.5" stroke="#000000" stroke-width="1"></path><path fill="none" d="M 0 0" stroke="#000000" stroke-width="2"></path></g><g><path fill="none" d="M 228.5 150 L 228.5 138 M 228.5 150 L 228.5 150" stroke="#000000" stroke-width="1"></path><path fill="none" d="M 224 138.5 L 233 138.5 M 224 150.5 L 233 150.5" stroke="#000000" stroke-width="1"></path><path fill="none" d="M 0 0" stroke="#000000" stroke-width="2"></path></g><g><path fill="none" d="M 263.5 134 L 263.5 124 M 263.5 134 L 263.5 134" stroke="#000000" stroke-width="1"></path><path fill="none" d="M 259 124.5 L 268 124.5 M 259 134.5 L 268 134.5" stroke="#000000" stroke-width="1"></path><path fill="none" d="M 0 0" stroke="#000000" stroke-width="2"></path></g><g><path fill="none" d="M 298.5 150 L 298.5 146 M 298.5 150 L 298.5 150" stroke="#000000" stroke-width="1"></path><path fill="none" d="M 294 146.5 L 303 146.5 M 294 150.5 L 303 150.5" stroke="#000000" stroke-width="1"></path><path fill="none" d="M 0 0" stroke="#000000" stroke-width="2"></path></g><g><path fill="none" d="M 334.5 179 L 334.5 162 M 334.5 179 L 334.5 179" stroke="#000000" stroke-width="1"></path><path fill="none" d="M 330 162.5 L 339 162.5 M 330 179.5 L 339 179.5" stroke="#000000" stroke-width="1"></path><path fill="none" d="M 0 0" stroke="#000000" stroke-width="2"></path></g><g><path fill="none" d="M 369.5 208 L 369.5 202 M 369.5 208 L 369.5 208" stroke="#000000" stroke-width="1"></path><path fill="none" d="M 365 202.5 L 374 202.5 M 365 208.5 L 374 208.5" stroke="#000000" stroke-width="1"></path><path fill="none" d="M 0 0" stroke="#000000" stroke-width="2"></path></g><g><path fill="none" d="M 404.5 238 L 404.5 224 M 404.5 238 L 404.5 238" stroke="#000000" stroke-width="1"></path><path fill="none" d="M 400 224.5 L 409 224.5 M 400 238.5 L 409 238.5" stroke="#000000" stroke-width="1"></path><path fill="none" d="M 0 0" stroke="#000000" stroke-width="2"></path></g></g><g class="highcharts-markers" visibility="visible"  transform="translate(76,44) scale(1 1)"></g></g><text x="292" text-anchor="middle" class="highcharts-title"  style="color:black;font-size:16px;font-weight:bold;fill:black;width:520px;" y="22"><tspan>Temperature vs Rainfall</tspan></text><g class="highcharts-legend"  transform="translate(188,358)"><g ><g><g class="highcharts-legend-item"  transform="translate(8,3)"><text x="21" style="color:#333333;font-size:13px;font-weight:bold;cursor:pointer;fill:#333333;" text-anchor="start"  y="16">Rainfall</text><rect x="0" y="5" width="16" height="12"  fill="#f45b5b"></rect></g><g class="highcharts-legend-item"  transform="translate(96,3)"><path fill="none" d="M 0 12 L 16 12" stroke="#8085e9" stroke-width="2"></path><path fill="#8085e9" d="M 8 8 C 13.3 8 13.3 16 8 16 C 2.6 16 2.6 8 8 8 Z"></path><text x="21" y="16" style="color:#333333;font-size:13px;font-weight:bold;cursor:pointer;fill:#333333;" text-anchor="start" >Temperature</text></g></g></g></g><g class="highcharts-axis-labels highcharts-xaxis-labels" ><text x="93.5" style="color:#6e6e70;cursor:default;font-size:11px;fill:#6e6e70;" text-anchor="middle" transform="translate(0,0)" y="344" opacity="1">Jan</text><text x="128.7" style="color:#6e6e70;cursor:default;font-size:11px;fill:#6e6e70;" text-anchor="middle" transform="translate(0,0)" y="344" opacity="1">Feb</text><text x="163.9" style="color:#6e6e70;cursor:default;font-size:11px;fill:#6e6e70;" text-anchor="middle" transform="translate(0,0)" y="344" opacity="1">Mar</text><text x="199.0" style="color:#6e6e70;cursor:default;font-size:11px;fill:#6e6e70;" text-anchor="middle" transform="translate(0,0)" y="344" opacity="1">Apr</text><text x="234.2" style="color:#6e6e70;cursor:default;font-size:11px;fill:#6e6e70;" text-anchor="middle" transform="translate(0,0)" y="344" opacity="1">May</text><text x="269.4" style="color:#6e6e70;cursor:default;font-size:11px;fill:#6e6e70;" text-anchor="middle" transform="translate(0,0)" y="344" opacity="1">Jun</text><text x="304.5" style="color:#6e6e70;cursor:default;font-size:11px;fill:#6e6e70;" text-anchor="middle" transform="translate(0,0)" y="344" opacity="1">Jul</text><text x="339.7" style="color:#6e6e70;cursor:default;font-size:11px;fill:#6e6e70;" text-anchor="middle" transform="translate(0,0)" y="344" opacity="1">Aug</text><text x="374.9" style="color:#6e6e70;cursor:default;font-size:11px;fill:#6e6e70;" text-anchor="middle" transform="translate(0,0)" y="344" opacity="1">Sep</text><text x="410.0" style="color:#6e6e70;cursor:default;font-size:11px;fill:#6e6e70;" text-anchor="middle" transform="translate(0,0)" y="344" opacity="1">Oct</text><text x="445.2" style="color:#6e6e70;cursor:default;font-size:11px;fill:#6e6e70;" text-anchor="middle" transform="translate(0,0)" y="344" opacity="1">Nov</text><text x="480.4" style="color:#6e6e70;cursor:default;font-size:11px;fill:#6e6e70;" text-anchor="middle" transform="translate(0,0)" y="344" opacity="1">Dec</text></g><g class="highcharts-axis-labels highcharts-yaxis-labels" ><text x="61" style="color:#8085e9;cursor:default;font-size:11px;fill:#8085e9;width:183px;text-overflow:clip;" text-anchor="end" transform="translate(0,0)" y="330" opacity="1"><tspan>0 °C</tspan></text><text x="61" style="color:#8085e9;cursor:default;font-size:11px;fill:#8085e9;width:183px;text-overflow:clip;" text-anchor="end" transform="translate(0,0)" y="273" opacity="1"><tspan>10 °C</tspan></text><text x="61" style="color:#8085e9;cursor:default;font-size:11px;fill:#8085e9;width:183px;text-overflow:clip;" text-anchor="end" transform="translate(0,0)" y="217" opacity="1"><tspan>20 °C</tspan></text><text x="61" style="color:#8085e9;cursor:default;font-size:11px;fill:#8085e9;width:183px;text-overflow:clip;" text-anchor="end" transform="translate(0,0)" y="161" opacity="1"><tspan>30 °C</tspan></text><text x="61" style="color:#8085e9;cursor:default;font-size:11px;fill:#8085e9;width:183px;text-overflow:clip;" text-anchor="end" transform="translate(0,0)" y="105" opacity="1"><tspan>40 °C</tspan></text><text x="61" style="color:#8085e9;cursor:default;font-size:11px;fill:#8085e9;width:183px;text-overflow:clip;" text-anchor="end" transform="translate(0,0)" y="49" opacity="1"><tspan>50 °C</tspan></text></g><g class="highcharts-axis-labels highcharts-yaxis-labels" ><text x="513" style="color:#f45b5b;cursor:default;font-size:11px;fill:#f45b5b;width:183px;text-overflow:clip;" text-anchor="start" transform="translate(0,0)" y="330" opacity="1"><tspan>0 mm</tspan></text><text x="513" style="color:#f45b5b;cursor:default;font-size:11px;fill:#f45b5b;width:183px;text-overflow:clip;" text-anchor="start" transform="translate(0,0)" y="273" opacity="1"><tspan>50 mm</tspan></text><text x="513" style="color:#f45b5b;cursor:default;font-size:11px;fill:#f45b5b;width:183px;text-overflow:clip;" text-anchor="start" transform="translate(0,0)" y="217" opacity="1"><tspan>100 mm</tspan></text><text x="513" style="color:#f45b5b;cursor:default;font-size:11px;fill:#f45b5b;width:183px;text-overflow:clip;" text-anchor="start" transform="translate(0,0)" y="161" opacity="1"><tspan>150 mm</tspan></text><text x="513" style="color:#f45b5b;cursor:default;font-size:11px;fill:#f45b5b;width:183px;text-overflow:clip;" text-anchor="start" transform="translate(0,0)" y="105" opacity="1"><tspan>200 mm</tspan></text><text x="513" style="color:#f45b5b;cursor:default;font-size:11px;fill:#f45b5b;width:183px;text-overflow:clip;" text-anchor="start" transform="translate(0,0)" y="49" opacity="1"><tspan>250 mm</tspan></text></g><g class="highcharts-tooltip"  style="cursor:default;padding:0;white-space:nowrap;" transform="translate(0,-9999)"><path fill="none" d="M 3 0 L 13 0 C 16 0 16 0 16 3 L 16 13 C 16 16 16 16 13 16 L 3 16 C 0 16 0 16 0 13 L 0 3 C 0 0 0 0 3 0"  stroke="black" stroke-opacity="0.0" stroke-width="5" transform="translate(1, 1)"></path><path fill="none" d="M 3 0 L 13 0 C 16 0 16 0 16 3 L 16 13 C 16 16 16 16 13 16 L 3 16 C 0 16 0 16 0 13 L 0 3 C 0 0 0 0 3 0"  stroke="black" stroke-opacity="0.0" stroke-width="3" transform="translate(1, 1)"></path><path fill="none" d="M 3 0 L 13 0 C 16 0 16 0 16 3 L 16 13 C 16 16 16 16 13 16 L 3 16 C 0 16 0 16 0 13 L 0 3 C 0 0 0 0 3 0"  stroke="black" stroke-opacity="0.1" stroke-width="1" transform="translate(1, 1)"></path><path fill="rgb(249, 249, 249)" fill-opacity=" .85" d="M 3 0 L 13 0 C 16 0 16 0 16 3 L 16 13 C 16 16 16 16 13 16 L 3 16 C 0 16 0 16 0 13 L 0 3 C 0 0 0 0 3 0"></path><text x="8"  style="font-size:12px;color:#333333;fill:#333333;" transform="translate(0,20)"></text></g></svg>