<svg version="1.1" style="font-family: signika, serif; font-size: 12px; background-image: url(http://www.highcharts.com/samples/graphics/sand.png); background-attachment: initial; background-origin: initial; background-clip: initial; background-color: initial; background-position: initial initial; background-repeat: initial initial; " xmlns="http://www.w3.org/2000/svg" width="584" height="400" viewBox="0 0 584 400" xmlns:xlink="http://www.w3.org/1999/xlink"><style type="text/css"><![CDATA[@import url(http://fonts.googleapis.com/css?family=Signika:700);]]></style><desc>Created with Highcharts 4.1.4</desc><defs><clipPath id="highcharts-1"><rect x="0" y="0" width="474" height="341"></rect></clipPath></defs><g class="highcharts-series-group" ><g class="highcharts-series highcharts-tracker" visibility="visible"  transform="translate(10,44) scale(1 1)" style=""><path fill="#f45b5b" d="M 23.6 0 L 450.3 0 324.1 226.8 149.8 226.8 Z" stroke="#FFFFFF" stroke-width="1"></path><path fill="#8085e9" d="M 149.8 226.8 L 324.1 226.8 308.1 255.7 308.1 285.7 165.9 285.7 165.9 255.7 Z" stroke="#FFFFFF" stroke-width="1"></path><path fill="#8d4654" d="M 165.9 285.7 L 308.1 285.7 308.1 314.5 165.9 314.5 Z" stroke="#FFFFFF" stroke-width="1"></path><path fill="#7798BF" d="M 165.9 314.5 L 308.1 314.5 308.1 328.7 165.9 328.7 Z" stroke="#FFFFFF" stroke-width="1"></path><path fill="#aaeeee" d="M 165.9 328.7 L 308.1 328.7 308.1 341 165.9 341 Z" stroke="#FFFFFF" stroke-width="1"></path></g><g class="highcharts-markers" visibility="visible"  transform="translate(10,44) scale(1 1)"></g></g><text x="242" text-anchor="middle" class="highcharts-title"  style="color:black;font-size:16px;font-weight:bold;fill:black;width:520px;" y="22"><tspan>Sales funnel</tspan></text><g class="highcharts-data-labels highcharts-tracker" visibility="visible"  transform="translate(10,44) scale(1 1)" style=""><path fill="none" d="M 422.2 113.4 C 417.2 113.4 397.2 113.4 392.2 113.4 L 387.2 113.4" stroke="#606060" stroke-width="1" visibility="visible"></path><path fill="none" d="M 344.6 253 C 339.6 253 318.1 256.3 313.1 256.3 L 308.1 256.3" stroke="#606060" stroke-width="1" visibility="visible"></path><path fill="none" d="M 343.1 276 C 338.1 276 318.1 300.1 313.1 300.1 L 308.1 300.1" stroke="#606060" stroke-width="1" visibility="visible"></path><path fill="none" d="M 343.1 299 C 338.1 299 318.1 321.6 313.1 321.6 L 308.1 321.6" stroke="#606060" stroke-width="1" visibility="visible"></path><path fill="none" d="M 343.1 334.8 C 338.1 334.8 318.1 334.8 313.1 334.8 L 308.1 334.8" stroke="#606060" stroke-width="1" visibility="visible"></path><g  style="" transform="translate(427,103)" visibility="visible"><text x="5"  style="font-size: 11px; font-weight: bold; color: black; fill: #000000; text-shadow: rgb(255, 255, 255) 0px 0px 6px, rgb(255, 255, 255) 0px 0px 3px; " transform="translate(0,16)"><tspan style="font-weight:bold">Website visits</tspan><tspan dx="0"> (15 654)</tspan></text></g><g  style="" transform="translate(350,243)" visibility="visible"><text x="5"  style="font-size: 11px; font-weight: bold; color: black; fill: #000000; text-shadow: rgb(255, 255, 255) 0px 0px 6px, rgb(255, 255, 255) 0px 0px 3px; " transform="translate(0,16)"><tspan style="font-weight:bold">Downloads</tspan><tspan dx="0"> (4 064)</tspan></text></g><g  style="" transform="translate(348,266)" visibility="visible"><text x="5"  style="font-size: 11px; font-weight: bold; color: black; fill: #000000; text-shadow: rgb(255, 255, 255) 0px 0px 6px, rgb(255, 255, 255) 0px 0px 3px; " transform="translate(0,16)"><tspan style="font-weight:bold">Requested price list</tspan><tspan dx="0"> (1 987)</tspan></text></g><g  style="" transform="translate(348,289)" visibility="visible"><text x="5"  style="font-size: 11px; font-weight: bold; color: black; fill: #000000; text-shadow: rgb(255, 255, 255) 0px 0px 6px, rgb(255, 255, 255) 0px 0px 3px; " transform="translate(0,16)"><tspan style="font-weight:bold">Invoice sent</tspan><tspan dx="0"> (976)</tspan></text></g><g  style="" transform="translate(348,325)" visibility="visible"><text x="5"  style="font-size: 11px; font-weight: bold; color: black; fill: #000000; text-shadow: rgb(255, 255, 255) 0px 0px 6px, rgb(255, 255, 255) 0px 0px 3px; " transform="translate(0,16)"><tspan style="font-weight:bold">Finalized</tspan><tspan dx="0"> (846)</tspan></text></g></g><g class="highcharts-tooltip"  style="cursor:default;padding:0;white-space:nowrap;" transform="translate(0,-9999)"><path fill="none" d="M 3 0 L 13 0 C 16 0 16 0 16 3 L 16 13 C 16 16 16 16 13 16 L 3 16 C 0 16 0 16 0 13 L 0 3 C 0 0 0 0 3 0"  stroke="black" stroke-opacity="0.0" stroke-width="5" transform="translate(1, 1)"></path><path fill="none" d="M 3 0 L 13 0 C 16 0 16 0 16 3 L 16 13 C 16 16 16 16 13 16 L 3 16 C 0 16 0 16 0 13 L 0 3 C 0 0 0 0 3 0"  stroke="black" stroke-opacity="0.0" stroke-width="3" transform="translate(1, 1)"></path><path fill="none" d="M 3 0 L 13 0 C 16 0 16 0 16 3 L 16 13 C 16 16 16 16 13 16 L 3 16 C 0 16 0 16 0 13 L 0 3 C 0 0 0 0 3 0"  stroke="black" stroke-opacity="0.1" stroke-width="1" transform="translate(1, 1)"></path><path fill="rgb(249, 249, 249)" fill-opacity=" .85" d="M 3 0 L 13 0 C 16 0 16 0 16 3 L 16 13 C 16 16 16 16 13 16 L 3 16 C 0 16 0 16 0 13 L 0 3 C 0 0 0 0 3 0"></path><text x="8"  style="font-size:12px;color:#333333;fill:#333333;" transform="translate(0,20)"></text></g></svg>