<svg version="1.1" style="font-family: signika, serif; font-size: 12px; background-image: url(http://www.highcharts.com/samples/graphics/sand.png); background-attachment: initial; background-origin: initial; background-clip: initial; background-color: initial; background-position: initial initial; background-repeat: initial initial; " xmlns="http://www.w3.org/2000/svg" width="300" height="300" viewBox="0 0 300 300" xmlns:xlink="http://www.w3.org/1999/xlink"><style type="text/css"><![CDATA[@import url(http://fonts.googleapis.com/css?family=Signika:700);]]></style><desc>Created with Highcharts 4.1.4</desc><defs><clipPath id="highcharts-1"><rect x="0" y="0" width="280" height="241"></rect></clipPath><linearGradient x1="0" y1="0" x2="0" y2="1" id="highcharts-2"><stop offset="0" stop-color="#FFF" stop-opacity="1"></stop><stop offset="1" stop-color="#DDD" stop-opacity="1"></stop></linearGradient><radialGradient cx="0.5" cy="-0.4" r="1.9" id="highcharts-3"><stop offset="0.5" stop-color="rgb(255,255,255)" stop-opacity="0.2"></stop><stop offset="0.5" stop-color="rgb(200,200,200)" stop-opacity="0.2"></stop></radialGradient></defs><path fill="url(#highcharts-2)" d="M 150 56.9 A 107.5 107.5 0 1 1 149.8 56.9 M 150 164.5 A 0 0 0 1 0 150 164.5 " stroke="silver" stroke-width="1"></path><path fill="url(#highcharts-3)" d="M 150 56.9 A 107.5 107.5 0 1 1 149.8 56.9 M 150 164.5 A 0 0 0 1 0 150 164.5 " stroke="silver" stroke-width="1"></path><g class="highcharts-grid" ></g><g class="highcharts-axis" ><path fill="none" d="M 150 62.0 L 150 67.0" stroke="#666" stroke-width="1" opacity="1"></path><path fill="none" d="M 160.7 62.6 L 160.1 67.6" stroke="#666" stroke-width="1" opacity="1"></path><path fill="none" d="M 171.2 64.3 L 170.2 69.2" stroke="#666" stroke-width="1" opacity="1"></path><path fill="none" d="M 181.6 67.0 L 180.1 71.8" stroke="#666" stroke-width="1" opacity="1"></path><path fill="none" d="M 191.6 70.9 L 189.6 75.4" stroke="#666" stroke-width="1" opacity="1"></path><path fill="none" d="M 201.2 75.7 L 198.7 80.1" stroke="#666" stroke-width="1" opacity="1"></path><path fill="none" d="M 210.2 81.6 L 207.2 85.6" stroke="#666" stroke-width="1" opacity="1"></path><path fill="none" d="M 218.5 88.3 L 215.1 92.0" stroke="#666" stroke-width="1" opacity="1"></path><path fill="none" d="M 226.1 95.9 L 222.4 99.3" stroke="#666" stroke-width="1" opacity="1"></path><path fill="none" d="M 232.8 104.2 L 228.8 107.2" stroke="#666" stroke-width="1" opacity="1"></path><path fill="none" d="M 238.7 113.2 L 234.3 115.7" stroke="#666" stroke-width="1" opacity="1"></path><path fill="none" d="M 243.5 122.8 L 239.0 124.8" stroke="#666" stroke-width="1" opacity="1"></path><path fill="none" d="M 247.4 132.8 L 242.6 134.3" stroke="#666" stroke-width="1" opacity="1"></path><path fill="none" d="M 250.1 143.2 L 245.2 144.2" stroke="#666" stroke-width="1" opacity="1"></path><path fill="none" d="M 251.8 153.7 L 246.8 154.3" stroke="#666" stroke-width="1" opacity="1"></path><path fill="none" d="M 252.4 164.5 L 247.4 164.5" stroke="#666" stroke-width="1" opacity="1"></path><path fill="none" d="M 251.8 175.2 L 246.8 174.6" stroke="#666" stroke-width="1" opacity="1"></path><path fill="none" d="M 250.1 185.7 L 245.2 184.7" stroke="#666" stroke-width="1" opacity="1"></path><path fill="none" d="M 247.4 196.1 L 242.6 194.6" stroke="#666" stroke-width="1" opacity="1"></path><path fill="none" d="M 243.5 206.1 L 239.0 204.1" stroke="#666" stroke-width="1" opacity="1"></path><path fill="none" d="M 238.7 215.7 L 234.3 213.2" stroke="#666" stroke-width="1" opacity="1"></path><path fill="none" d="M 232.8 224.7 L 228.8 221.7" stroke="#666" stroke-width="1" opacity="1"></path><path fill="none" d="M 226.1 233.0 L 222.4 229.6" stroke="#666" stroke-width="1" opacity="1"></path><path fill="none" d="M 218.5 240.6 L 215.1 236.9" stroke="#666" stroke-width="1" opacity="1"></path><path fill="none" d="M 210.2 247.3 L 207.2 243.3" stroke="#666" stroke-width="1" opacity="1"></path><path fill="none" d="M 201.2 253.2 L 198.7 248.8" stroke="#666" stroke-width="1" opacity="1"></path><path fill="none" d="M 191.6 258.0 L 189.6 253.5" stroke="#666" stroke-width="1" opacity="1"></path><path fill="none" d="M 181.6 261.9 L 180.1 257.1" stroke="#666" stroke-width="1" opacity="1"></path><path fill="none" d="M 171.2 264.6 L 170.2 259.7" stroke="#666" stroke-width="1" opacity="1"></path><path fill="none" d="M 160.7 266.3 L 160.1 261.3" stroke="#666" stroke-width="1" opacity="1"></path><path fill="none" d="M 149.9 266.9 L 149.9 261.9" stroke="#666" stroke-width="1" opacity="1"></path><path fill="none" d="M 139.2 266.3 L 139.8 261.3" stroke="#666" stroke-width="1" opacity="1"></path><path fill="none" d="M 128.7 264.6 L 129.7 259.7" stroke="#666" stroke-width="1" opacity="1"></path><path fill="none" d="M 118.3 261.9 L 119.8 257.1" stroke="#666" stroke-width="1" opacity="1"></path><path fill="none" d="M 108.3 258.0 L 110.3 253.5" stroke="#666" stroke-width="1" opacity="1"></path><path fill="none" d="M 98.7 253.2 L 101.2 248.8" stroke="#666" stroke-width="1" opacity="1"></path><path fill="none" d="M 89.7 247.3 L 92.7 243.3" stroke="#666" stroke-width="1" opacity="1"></path><path fill="none" d="M 81.4 240.6 L 84.8 236.9" stroke="#666" stroke-width="1" opacity="1"></path><path fill="none" d="M 73.8 233.0 L 77.5 229.6" stroke="#666" stroke-width="1" opacity="1"></path><path fill="none" d="M 67.1 224.7 L 71.1 221.7" stroke="#666" stroke-width="1" opacity="1"></path><path fill="none" d="M 61.2 215.7 L 65.6 213.2" stroke="#666" stroke-width="1" opacity="1"></path><path fill="none" d="M 56.4 206.1 L 60.9 204.1" stroke="#666" stroke-width="1" opacity="1"></path><path fill="none" d="M 52.5 196.1 L 57.3 194.6" stroke="#666" stroke-width="1" opacity="1"></path><path fill="none" d="M 49.8 185.7 L 54.7 184.7" stroke="#666" stroke-width="1" opacity="1"></path><path fill="none" d="M 48.1 175.2 L 53.1 174.6" stroke="#666" stroke-width="1" opacity="1"></path><path fill="none" d="M 47.5 164.5 L 52.5 164.5" stroke="#666" stroke-width="1" opacity="1"></path><path fill="none" d="M 48.1 153.7 L 53.1 154.3" stroke="#666" stroke-width="1" opacity="1"></path><path fill="none" d="M 49.8 143.2 L 54.7 144.2" stroke="#666" stroke-width="1" opacity="1"></path><path fill="none" d="M 52.5 132.8 L 57.3 134.3" stroke="#666" stroke-width="1" opacity="1"></path><path fill="none" d="M 56.4 122.8 L 60.9 124.8" stroke="#666" stroke-width="1" opacity="1"></path><path fill="none" d="M 61.2 113.2 L 65.6 115.7" stroke="#666" stroke-width="1" opacity="1"></path><path fill="none" d="M 67.1 104.2 L 71.1 107.2" stroke="#666" stroke-width="1" opacity="1"></path><path fill="none" d="M 73.8 95.9 L 77.5 99.3" stroke="#666" stroke-width="1" opacity="1"></path><path fill="none" d="M 81.4 88.3 L 84.8 92.0" stroke="#666" stroke-width="1" opacity="1"></path><path fill="none" d="M 89.7 81.6 L 92.7 85.6" stroke="#666" stroke-width="1" opacity="1"></path><path fill="none" d="M 98.7 75.7 L 101.2 80.1" stroke="#666" stroke-width="1" opacity="1"></path><path fill="none" d="M 108.3 70.9 L 110.3 75.4" stroke="#666" stroke-width="1" opacity="1"></path><path fill="none" d="M 118.3 67.0 L 119.8 71.8" stroke="#666" stroke-width="1" opacity="1"></path><path fill="none" d="M 128.7 64.3 L 129.7 69.2" stroke="#666" stroke-width="1" opacity="1"></path><path fill="none" d="M 139.2 62.6 L 139.8 67.6" stroke="#666" stroke-width="1" opacity="1"></path><path fill="none" d="M 149.9 62.0 L 149.9 67.0" stroke="#666" stroke-width="1" opacity="1"></path><path fill="none" d="M 150 62.0 L 150 72.0" stroke="#666" stroke-width="2" opacity="1"></path><path fill="none" d="M 201.2 75.7 L 196.2 84.4" stroke="#666" stroke-width="2" opacity="1"></path><path fill="none" d="M 238.7 113.2 L 230.0 118.2" stroke="#666" stroke-width="2" opacity="1"></path><path fill="none" d="M 252.4 164.5 L 242.4 164.5" stroke="#666" stroke-width="2" opacity="1"></path><path fill="none" d="M 238.7 215.7 L 230.0 210.7" stroke="#666" stroke-width="2" opacity="1"></path><path fill="none" d="M 201.2 253.2 L 196.2 244.5" stroke="#666" stroke-width="2" opacity="1"></path><path fill="none" d="M 150 266.9 L 150 256.9" stroke="#666" stroke-width="2" opacity="1"></path><path fill="none" d="M 98.7 253.2 L 103.7 244.5" stroke="#666" stroke-width="2" opacity="1"></path><path fill="none" d="M 61.2 215.7 L 69.9 210.7" stroke="#666" stroke-width="2" opacity="1"></path><path fill="none" d="M 47.5 164.5 L 57.5 164.5" stroke="#666" stroke-width="2" opacity="1"></path><path fill="none" d="M 61.2 113.2 L 69.9 118.2" stroke="#666" stroke-width="2" opacity="1"></path><path fill="none" d="M 98.7 75.7 L 103.7 84.4" stroke="#666" stroke-width="2" opacity="1"></path><path fill="none" d="M 149.9 62.0 L 149.9 72.0" stroke="#666" stroke-width="2" opacity="1"></path><text x="150"  text-anchor="middle" transform="translate(0,0)" class=" highcharts-yaxis-title" style="color:#bbb;font-weight:normal;font-size:8px;line-height:10px;fill:#bbb;" visibility="visible" y="123.2"><tspan>Powered by</tspan><tspan x="150" dy="10">Highcharts</tspan></text></g><g class="highcharts-series-group" ><g class="highcharts-series highcharts-tracker" visibility="visible"  transform="translate(10,44) scale(1 1)" style="" clip-path="url(#highcharts-1)"><path fill="black" d="M 0 -2 L 58.3 -2 61.4 -0.5 61.4 0.5 58.3 2 0 2 z" transform="translate(140,120.5) rotate(324 0 0)"></path><path fill="black" d="M 0 -1.5 L 77.8 -1.5 81.9 -0.5 81.9 0.5 77.8 1.5 0 1.5 z" transform="translate(140,120.5) rotate(203.2 0 0)"></path><path fill="black" d="M -20.4 -0.5 L 71.6 -0.5 102.4 -0.5 102.4 0.5 71.6 0.5 -20.4 0.5 z" transform="translate(140,120.5) rotate(221.9 0 0)"></path><circle cx="0" cy="0" r="5" fill="black" transform="translate(140,120.5)"></circle></g><g class="highcharts-markers" visibility="visible"  transform="translate(10,44) scale(1 1)" clip-path="none"></g></g><text x="150" text-anchor="middle" class="highcharts-title"  style="color:black;font-size:16px;font-weight:bold;fill:black;width:236px;" y="22"><tspan>The Highcharts clock</tspan></text><g class="highcharts-legend" ><g ><g></g></g></g><g class="highcharts-axis-labels highcharts-yaxis-labels" ><text x="0" style="color:#6e6e70;cursor:default;font-size:11px;fill:#6e6e70;width:89px;text-overflow:clip;" text-anchor="middle" transform="translate(0,0)" y="-9999">0</text><text x="191.2" style="color:#6e6e70;cursor:default;font-size:11px;fill:#6e6e70;width:89px;text-overflow:clip;" text-anchor="middle" transform="translate(0,0)" y="97.6" opacity="1">1</text><text x="221.3" style="color:#6e6e70;cursor:default;font-size:11px;fill:#6e6e70;width:89px;text-overflow:clip;" text-anchor="middle" transform="translate(0,0)" y="127.7" opacity="1">2</text><text x="232.4" style="color:#6e6e70;cursor:default;font-size:11px;fill:#6e6e70;width:89px;text-overflow:clip;" text-anchor="middle" transform="translate(0,0)" y="169" opacity="1">3</text><text x="221.3" style="color:#6e6e70;cursor:default;font-size:11px;fill:#6e6e70;width:89px;text-overflow:clip;" text-anchor="middle" transform="translate(0,0)" y="210.2" opacity="1">4</text><text x="191.2" style="color:#6e6e70;cursor:default;font-size:11px;fill:#6e6e70;width:89px;text-overflow:clip;" text-anchor="middle" transform="translate(0,0)" y="240.3" opacity="1">5</text><text x="150" style="color:#6e6e70;cursor:default;font-size:11px;fill:#6e6e70;width:89px;text-overflow:clip;" text-anchor="middle" transform="translate(0,0)" y="251.4" opacity="1">6</text><text x="108.7" style="color:#6e6e70;cursor:default;font-size:11px;fill:#6e6e70;width:89px;text-overflow:clip;" text-anchor="middle" transform="translate(0,0)" y="240.3" opacity="1">7</text><text x="78.6" style="color:#6e6e70;cursor:default;font-size:11px;fill:#6e6e70;width:89px;text-overflow:clip;" text-anchor="middle" transform="translate(0,0)" y="210.2" opacity="1">8</text><text x="67.5" style="color:#6e6e70;cursor:default;font-size:11px;fill:#6e6e70;width:89px;text-overflow:clip;" text-anchor="middle" transform="translate(0,0)" y="169" opacity="1">9</text><text x="78.6" style="color:#6e6e70;cursor:default;font-size:11px;fill:#6e6e70;width:89px;text-overflow:clip;" text-anchor="middle" transform="translate(0,0)" y="127.2" opacity="1">10</text><text x="108.7" style="color:#6e6e70;cursor:default;font-size:11px;fill:#6e6e70;width:89px;text-overflow:clip;" text-anchor="middle" transform="translate(0,0)" y="97.1" opacity="1">11</text><text x="149.9" style="color:#6e6e70;cursor:default;font-size:11px;fill:#6e6e70;width:89px;text-overflow:clip;" text-anchor="middle" transform="translate(0,0)" y="86.0" opacity="1">12</text></g><g class="highcharts-tooltip"  style="cursor:default;padding:0;white-space:nowrap;" transform="translate(0,-9999)"><path fill="none" d="M 3 0 L 13 0 C 16 0 16 0 16 3 L 16 13 C 16 16 16 16 13 16 L 3 16 C 0 16 0 16 0 13 L 0 3 C 0 0 0 0 3 0"  stroke="black" stroke-opacity="0.0" stroke-width="5" transform="translate(1, 1)"></path><path fill="none" d="M 3 0 L 13 0 C 16 0 16 0 16 3 L 16 13 C 16 16 16 16 13 16 L 3 16 C 0 16 0 16 0 13 L 0 3 C 0 0 0 0 3 0"  stroke="black" stroke-opacity="0.0" stroke-width="3" transform="translate(1, 1)"></path><path fill="none" d="M 3 0 L 13 0 C 16 0 16 0 16 3 L 16 13 C 16 16 16 16 13 16 L 3 16 C 0 16 0 16 0 13 L 0 3 C 0 0 0 0 3 0"  stroke="black" stroke-opacity="0.1" stroke-width="1" transform="translate(1, 1)"></path><path fill="rgb(249, 249, 249)" fill-opacity=" .85" d="M 3 0 L 13 0 C 16 0 16 0 16 3 L 16 13 C 16 16 16 16 13 16 L 3 16 C 0 16 0 16 0 13 L 0 3 C 0 0 0 0 3 0"></path><text x="8"  style="font-size:12px;color:#333333;fill:#333333;" transform="translate(0,20)"></text></g></svg>