<svg version="1.1" style="font-family: signika, serif; font-size: 12px; background-image: url(http://www.highcharts.com/samples/graphics/sand.png); background-attachment: initial; background-origin: initial; background-clip: initial; background-color: initial; background-position: initial initial; background-repeat: initial initial; " xmlns="http://www.w3.org/2000/svg" width="600" height="200" viewBox="0 0 600 200" xmlns:xlink="http://www.w3.org/1999/xlink"><style type="text/css"><![CDATA[@import url(http://fonts.googleapis.com/css?family=Signika:700);]]></style><desc>Created with Highcharts 4.1.4</desc><defs><linearGradient x1="0" y1="0" x2="0" y2="1" id="highcharts-1"><stop offset="0" stop-color="#FFF4C6" stop-opacity="1"></stop><stop offset="0.3" stop-color="#FFFFFF" stop-opacity="1"></stop><stop offset="1" stop-color="#FFF4C6" stop-opacity="1"></stop></linearGradient><clipPath id="highcharts-2"><rect x="0" y="0" width="580" height="141"></rect></clipPath></defs><rect x="10" y="44" width="580" height="141" fill="url(#highcharts-1)"></rect><path fill="#C02316" d="M 219.6 104.8 A 157.5 157.5 0 0 1 266.2 136.9 L 260.9 142.2 A 150 150 0 0 0 216.5 111.6 Z"></path><path fill="#C02316" d="M 509.6 104.8 A 157.5 157.5 0 0 1 556.2 136.9 L 550.9 142.2 A 150 150 0 0 0 506.5 111.6 Z"></path><g class="highcharts-grid" ></g><g class="highcharts-grid" ></g><rect x="9.5" y="43.5" width="581" height="142" strokeWidth="-1" stroke="#C0C0C0" stroke-width="1" fill="none" ></rect><g class="highcharts-axis" ><path fill="none" d="M 48.9 142.3 L 41.8 135.3" stroke="#A0A0A0" stroke-width="1" opacity="1"></path><path fill="none" d="M 62.4 130.3 L 56.3 122.5" stroke="#A0A0A0" stroke-width="1" opacity="1"></path><path fill="none" d="M 77.3 120.0 L 72.2 111.5" stroke="#A0A0A0" stroke-width="1" opacity="1"></path><path fill="none" d="M 93.4 111.6 L 89.3 102.5" stroke="#A0A0A0" stroke-width="1" opacity="1"></path><path fill="none" d="M 110.3 105.2 L 107.3 95.6" stroke="#A0A0A0" stroke-width="1" opacity="1"></path><path fill="none" d="M 127.9 100.9 L 126.1 91.0" stroke="#A0A0A0" stroke-width="1" opacity="1"></path><path fill="none" d="M 145.9 98.7 L 145.3 88.7" stroke="#A0A0A0" stroke-width="1" opacity="1"></path><path fill="none" d="M 164.0 98.7 L 164.6 88.7" stroke="#A0A0A0" stroke-width="1" opacity="1"></path><path fill="none" d="M 182.0 100.9 L 183.8 91.0" stroke="#A0A0A0" stroke-width="1" opacity="1"></path><path fill="none" d="M 199.6 105.2 L 202.6 95.6" stroke="#A0A0A0" stroke-width="1" opacity="1"></path><path fill="none" d="M 216.5 111.6 L 220.6 102.5" stroke="#A0A0A0" stroke-width="1" opacity="1"></path><path fill="none" d="M 232.6 120.0 L 237.7 111.5" stroke="#A0A0A0" stroke-width="1" opacity="1"></path><path fill="none" d="M 247.5 130.3 L 253.6 122.5" stroke="#A0A0A0" stroke-width="1" opacity="1"></path><path fill="none" d="M 261.0 142.3 L 268.1 135.3" stroke="#A0A0A0" stroke-width="1" opacity="1"></path><path fill="none" d="M 48.9 142.3 L 41.8 135.3" stroke="#C0D0E0" stroke-width="2" opacity="1"></path><path fill="none" d="M 127.9 100.9 L 126.1 91.0" stroke="#C0D0E0" stroke-width="2" opacity="1"></path><path fill="none" d="M 216.5 111.6 L 220.6 102.5" stroke="#C0D0E0" stroke-width="2" opacity="1"></path><text x="155"  text-anchor="middle" transform="translate(0,0)" class=" highcharts-yaxis-title" style="color:#707070;fill:#707070;" visibility="visible" y="133.4"><tspan>VU</tspan><tspan style="font-size:8px" x="155" dy="15">Channel A</tspan></text><path fill="none" d="M 48.9 142.3 A 150 150 0 0 1 260.9 142.2 M 155 248.4 A 0 0 0 0 0 155 248.4 " stroke="#C0D0E0" stroke-width="1"  visibility="visible"></path></g><g class="highcharts-axis" ><path fill="none" d="M 338.9 142.3 L 331.8 135.3" stroke="#A0A0A0" stroke-width="1" opacity="1"></path><path fill="none" d="M 352.4 130.3 L 346.3 122.5" stroke="#A0A0A0" stroke-width="1" opacity="1"></path><path fill="none" d="M 367.3 120.0 L 362.2 111.5" stroke="#A0A0A0" stroke-width="1" opacity="1"></path><path fill="none" d="M 383.4 111.6 L 379.3 102.5" stroke="#A0A0A0" stroke-width="1" opacity="1"></path><path fill="none" d="M 400.3 105.2 L 397.3 95.6" stroke="#A0A0A0" stroke-width="1" opacity="1"></path><path fill="none" d="M 417.9 100.9 L 416.1 91.0" stroke="#A0A0A0" stroke-width="1" opacity="1"></path><path fill="none" d="M 435.9 98.7 L 435.3 88.7" stroke="#A0A0A0" stroke-width="1" opacity="1"></path><path fill="none" d="M 454.0 98.7 L 454.6 88.7" stroke="#A0A0A0" stroke-width="1" opacity="1"></path><path fill="none" d="M 472.0 100.9 L 473.8 91.0" stroke="#A0A0A0" stroke-width="1" opacity="1"></path><path fill="none" d="M 489.6 105.2 L 492.6 95.6" stroke="#A0A0A0" stroke-width="1" opacity="1"></path><path fill="none" d="M 506.5 111.6 L 510.6 102.5" stroke="#A0A0A0" stroke-width="1" opacity="1"></path><path fill="none" d="M 522.6 120.0 L 527.7 111.5" stroke="#A0A0A0" stroke-width="1" opacity="1"></path><path fill="none" d="M 537.5 130.3 L 543.6 122.5" stroke="#A0A0A0" stroke-width="1" opacity="1"></path><path fill="none" d="M 551.0 142.3 L 558.1 135.3" stroke="#A0A0A0" stroke-width="1" opacity="1"></path><path fill="none" d="M 338.9 142.3 L 331.8 135.3" stroke="#C0D0E0" stroke-width="2" opacity="1"></path><path fill="none" d="M 417.9 100.9 L 416.1 91.0" stroke="#C0D0E0" stroke-width="2" opacity="1"></path><path fill="none" d="M 506.5 111.6 L 510.6 102.5" stroke="#C0D0E0" stroke-width="2" opacity="1"></path><text x="445"  text-anchor="middle" transform="translate(0,0)" class=" highcharts-yaxis-title" style="color:#707070;fill:#707070;" visibility="visible" y="133.4"><tspan>VU</tspan><tspan style="font-size:8px" x="445" dy="15">Channel B</tspan></text><path fill="none" d="M 338.9 142.3 A 150 150 0 0 1 550.9 142.2 M 445 248.4 A 0 0 0 0 0 445 248.4 " stroke="#C0D0E0" stroke-width="1"  visibility="visible"></path></g><g class="highcharts-series-group" ><g class="highcharts-series highcharts-tracker" visibility="visible"  transform="translate(10,44) scale(1 1)" style="" clip-path="url(#highcharts-2)"><path fill="black" d="M -15 -1.5 L 105 -1.5 150 -0.5 150 0.5 105 1.5 -15 1.5 z" transform="translate(145,204.4) rotate(-135 0 0)"></path><circle cx="0" cy="0" r="5" fill="black" transform="translate(145,204.4)"></circle></g><g class="highcharts-markers" visibility="visible"  transform="translate(10,44) scale(1 1)"></g><g class="highcharts-series highcharts-tracker" visibility="visible"  transform="translate(10,44) scale(1 1)" style="" clip-path="url(#highcharts-2)"><path fill="black" d="M -15 -1.5 L 105 -1.5 150 -0.5 150 0.5 105 1.5 -15 1.5 z" transform="translate(435,204.4) rotate(-135 0 0)"></path><circle cx="0" cy="0" r="5" fill="black" transform="translate(435,204.4)"></circle></g><g class="highcharts-markers" visibility="visible"  transform="translate(10,44) scale(1 1)"></g></g><text x="300" text-anchor="middle" class="highcharts-title"  style="color:black;font-size:16px;font-weight:bold;fill:black;width:536px;" y="22"><tspan>VU meter</tspan></text><g class="highcharts-legend" ><g ><g></g></g></g><g class="highcharts-axis-labels highcharts-yaxis-labels" ><text x="34.7" style="color:#606060;cursor:default;font-size:11px;fill:#606060;width:188px;text-overflow:clip;" text-anchor="middle" transform="translate(0,0) rotate(-45 34.7 128.2)" y="128.2" opacity="1">-20</text><text x="124.3" style="color:#606060;cursor:default;font-size:11px;fill:#606060;width:188px;text-overflow:clip;" text-anchor="middle" transform="translate(0,0) rotate(-10.3 124.3 81.2)" y="81.2" opacity="1">-10</text><text x="224.7" style="color:#606060;cursor:default;font-size:11px;fill:#606060;width:188px;text-overflow:clip;" text-anchor="middle" transform="translate(0,0) rotate(24.2 224.7 93.4)" y="93.4" opacity="1">0</text></g><g class="highcharts-axis-labels highcharts-yaxis-labels" ><text x="324.7" style="color:#606060;cursor:default;font-size:11px;fill:#606060;width:188px;text-overflow:clip;" text-anchor="middle" transform="translate(0,0) rotate(-45 324.7 128.2)" y="128.2" opacity="1">-20</text><text x="414.3" style="color:#606060;cursor:default;font-size:11px;fill:#606060;width:188px;text-overflow:clip;" text-anchor="middle" transform="translate(0,0) rotate(-10.3 414.3 81.2)" y="81.2" opacity="1">-10</text><text x="514.7" style="color:#606060;cursor:default;font-size:11px;fill:#606060;width:188px;text-overflow:clip;" text-anchor="middle" transform="translate(0,0) rotate(24.2 514.7 93.4)" y="93.4" opacity="1">0</text></g><g class="highcharts-tooltip"  style="cursor:default;padding:0;white-space:nowrap;" transform="translate(0,-9999)"><path fill="none" d="M 3 0 L 13 0 C 16 0 16 0 16 3 L 16 13 C 16 16 16 16 13 16 L 3 16 C 0 16 0 16 0 13 L 0 3 C 0 0 0 0 3 0"  stroke="black" stroke-opacity="0.0" stroke-width="5" transform="translate(1, 1)"></path><path fill="none" d="M 3 0 L 13 0 C 16 0 16 0 16 3 L 16 13 C 16 16 16 16 13 16 L 3 16 C 0 16 0 16 0 13 L 0 3 C 0 0 0 0 3 0"  stroke="black" stroke-opacity="0.0" stroke-width="3" transform="translate(1, 1)"></path><path fill="none" d="M 3 0 L 13 0 C 16 0 16 0 16 3 L 16 13 C 16 16 16 16 13 16 L 3 16 C 0 16 0 16 0 13 L 0 3 C 0 0 0 0 3 0"  stroke="black" stroke-opacity="0.1" stroke-width="1" transform="translate(1, 1)"></path><path fill="rgb(249, 249, 249)" fill-opacity=" .85" d="M 3 0 L 13 0 C 16 0 16 0 16 3 L 16 13 C 16 16 16 16 13 16 L 3 16 C 0 16 0 16 0 13 L 0 3 C 0 0 0 0 3 0"></path><text x="8"  style="font-size:12px;color:#333333;fill:#333333;" transform="translate(0,20)"></text></g></svg>