<svg version="1.1" style="font-family: signika, serif; font-size: 12px; background-image: url(http://www.highcharts.com/samples/graphics/sand.png); background-attachment: initial; background-origin: initial; background-clip: initial; background-color: initial; background-position: initial initial; background-repeat: initial initial; " xmlns="http://www.w3.org/2000/svg" width="400" height="300" viewBox="0 0 400 300" xmlns:xlink="http://www.w3.org/1999/xlink"><style type="text/css"><![CDATA[@import url(http://fonts.googleapis.com/css?family=Signika:700);]]></style><desc>Created with Highcharts 4.1.4</desc><defs><clipPath id="highcharts-1"><rect x="1" y="0" width="379" height="241"></rect></clipPath><linearGradient x1="0" y1="0" x2="0" y2="1" id="highcharts-2"><stop offset="0" stop-color="#FFF" stop-opacity="1"></stop><stop offset="1" stop-color="#DDD" stop-opacity="1"></stop></linearGradient><linearGradient x1="0" y1="0" x2="0" y2="1" id="highcharts-3"><stop offset="0" stop-color="#DDD" stop-opacity="1"></stop><stop offset="1" stop-color="#FFF" stop-opacity="1"></stop></linearGradient></defs><path fill="url(#highcharts-2)" d="M 200 56.9 A 107.5 107.5 0 1 1 199.8 56.9 M 200 164.5 A 0 0 0 1 0 200 164.5 " stroke="silver" stroke-width="1"></path><g class="highcharts-grid" ></g><g class="highcharts-grid" ></g><g class="highcharts-axis" ><path fill="none" d="M 161.2 231.5 L 163.7 227.2" stroke="#339" stroke-width="1" opacity="1"></path><path fill="none" d="M 145.2 219.2 L 148.7 215.7" stroke="#339" stroke-width="1" opacity="1"></path><path fill="none" d="M 132.9 203.2 L 137.2 200.7" stroke="#339" stroke-width="1" opacity="1"></path><path fill="none" d="M 125.2 184.5 L 130.0 183.2" stroke="#339" stroke-width="1" opacity="1"></path><path fill="none" d="M 122.5 164.5 L 127.5 164.5" stroke="#339" stroke-width="1" opacity="1"></path><path fill="none" d="M 125.2 144.4 L 130.0 145.7" stroke="#339" stroke-width="1" opacity="1"></path><path fill="none" d="M 132.9 125.7 L 137.2 128.2" stroke="#339" stroke-width="1" opacity="1"></path><path fill="none" d="M 145.2 109.7 L 148.7 113.2" stroke="#339" stroke-width="1" opacity="1"></path><path fill="none" d="M 161.2 97.4 L 163.7 101.7" stroke="#339" stroke-width="1" opacity="1"></path><path fill="none" d="M 179.9 89.7 L 181.2 94.5" stroke="#339" stroke-width="1" opacity="1"></path><path fill="none" d="M 200 87.0 L 200 92.0" stroke="#339" stroke-width="1" opacity="1"></path><path fill="none" d="M 220.0 89.7 L 218.7 94.5" stroke="#339" stroke-width="1" opacity="1"></path><path fill="none" d="M 238.7 97.4 L 236.2 101.7" stroke="#339" stroke-width="1" opacity="1"></path><path fill="none" d="M 254.7 109.7 L 251.2 113.2" stroke="#339" stroke-width="1" opacity="1"></path><path fill="none" d="M 267.0 125.7 L 262.7 128.2" stroke="#339" stroke-width="1" opacity="1"></path><path fill="none" d="M 274.7 144.4 L 269.9 145.7" stroke="#339" stroke-width="1" opacity="1"></path><path fill="none" d="M 277.4 164.4 L 272.4 164.4" stroke="#339" stroke-width="1" opacity="1"></path><path fill="none" d="M 274.7 184.5 L 269.9 183.2" stroke="#339" stroke-width="1" opacity="1"></path><path fill="none" d="M 267.0 203.2 L 262.7 200.7" stroke="#339" stroke-width="1" opacity="1"></path><path fill="none" d="M 254.7 219.2 L 251.2 215.7" stroke="#339" stroke-width="1" opacity="1"></path><path fill="none" d="M 238.7 231.5 L 236.2 227.2" stroke="#339" stroke-width="1" opacity="1"></path><path fill="none" d="M 161.2 231.5 L 163.7 227.2" stroke="#339" stroke-width="2" opacity="1"></path><path fill="none" d="M 125.2 144.4 L 130.0 145.7" stroke="#339" stroke-width="2" opacity="1"></path><path fill="none" d="M 200 87.0 L 200 92.0" stroke="#339" stroke-width="2" opacity="1"></path><path fill="none" d="M 274.7 144.4 L 269.9 145.7" stroke="#339" stroke-width="2" opacity="1"></path><path fill="none" d="M 238.7 231.5 L 236.2 227.2" stroke="#339" stroke-width="2" opacity="1"></path><path fill="none" d="M 161.2 231.5 A 77.4 77.4 0 1 1 238.7 231.5 M 200 164.5 A 0 0 0 1 0 200 164.5 " stroke="#339" stroke-width="2"  visibility="visible"></path></g><g class="highcharts-axis" ><path fill="none" d="M 158.7 235.8 L 156.2 240.2" stroke="#933" stroke-width="1" opacity="1"></path><path fill="none" d="M 144.7 225.6 L 141.3 229.3" stroke="#933" stroke-width="1" opacity="1"></path><path fill="none" d="M 133.1 212.7 L 129.0 215.6" stroke="#933" stroke-width="1" opacity="1"></path><path fill="none" d="M 124.5 197.6 L 119.9 199.6" stroke="#933" stroke-width="1" opacity="1"></path><path fill="none" d="M 119.2 181.0 L 114.3 182.0" stroke="#933" stroke-width="1" opacity="1"></path><path fill="none" d="M 117.5 163.8 L 112.5 163.7" stroke="#933" stroke-width="1" opacity="1"></path><path fill="none" d="M 119.5 146.5 L 114.6 145.4" stroke="#933" stroke-width="1" opacity="1"></path><path fill="none" d="M 125.1 130.0 L 120.5 127.9" stroke="#933" stroke-width="1" opacity="1"></path><path fill="none" d="M 133.9 115.1 L 129.9 112.1" stroke="#933" stroke-width="1" opacity="1"></path><path fill="none" d="M 145.7 102.4 L 142.4 98.6" stroke="#933" stroke-width="1" opacity="1"></path><path fill="none" d="M 159.9 92.4 L 157.5 88.0" stroke="#933" stroke-width="1" opacity="1"></path><path fill="none" d="M 175.9 85.6 L 174.5 80.8" stroke="#933" stroke-width="1" opacity="1"></path><path fill="none" d="M 193.0 82.3 L 192.6 77.3" stroke="#933" stroke-width="1" opacity="1"></path><path fill="none" d="M 210.4 82.7 L 211.0 77.7" stroke="#933" stroke-width="1" opacity="1"></path><path fill="none" d="M 227.3 86.7 L 228.9 82.0" stroke="#933" stroke-width="1" opacity="1"></path><path fill="none" d="M 243.0 94.1 L 245.6 89.9" stroke="#933" stroke-width="1" opacity="1"></path><path fill="none" d="M 256.7 104.7 L 260.2 101.1" stroke="#933" stroke-width="1" opacity="1"></path><path fill="none" d="M 268.0 117.9 L 272.1 115.1" stroke="#933" stroke-width="1" opacity="1"></path><path fill="none" d="M 276.2 133.2 L 280.9 131.3" stroke="#933" stroke-width="1" opacity="1"></path><path fill="none" d="M 281.1 149.9 L 286.0 149.0" stroke="#933" stroke-width="1" opacity="1"></path><path fill="none" d="M 282.3 167.2 L 287.3 167.4" stroke="#933" stroke-width="1" opacity="1"></path><path fill="none" d="M 279.9 184.4 L 284.8 185.6" stroke="#933" stroke-width="1" opacity="1"></path><path fill="none" d="M 274.0 200.7 L 278.4 203.0" stroke="#933" stroke-width="1" opacity="1"></path><path fill="none" d="M 264.7 215.5 L 268.6 218.5" stroke="#933" stroke-width="1" opacity="1"></path><path fill="none" d="M 252.6 227.9 L 255.8 231.7" stroke="#933" stroke-width="1" opacity="1"></path><path fill="none" d="M 158.7 235.8 L 156.2 240.2" stroke="#933" stroke-width="2" opacity="1"></path><path fill="none" d="M 117.5 163.8 L 112.5 163.7" stroke="#933" stroke-width="2" opacity="1"></path><path fill="none" d="M 159.9 92.4 L 157.5 88.0" stroke="#933" stroke-width="2" opacity="1"></path><path fill="none" d="M 243.0 94.1 L 245.6 89.9" stroke="#933" stroke-width="2" opacity="1"></path><path fill="none" d="M 282.3 167.2 L 287.3 167.4" stroke="#933" stroke-width="2" opacity="1"></path><path fill="none" d="M 158.7 235.8 A 82.4 82.4 0 1 1 241.2 235.8 M 200 164.5 A 0 0 0 1 0 200 164.5 " stroke="#933" stroke-width="2"  visibility="visible"></path></g><g class="highcharts-data-labels highcharts-tracker" visibility="visible"  transform="translate(10,44) scale(1 1)" style=""><g  style="" transform="translate(161,136)"><rect x="0.5" y="0.5" width="58" height="37" strokeWidth="1" fill="url(#highcharts-3)" stroke="silver" stroke-width="1" rx="3" ry="3"></rect><text x="5"  style="font-size: 11px; font-weight: bold; color: rgb(0, 0, 0); fill: #000000; text-shadow: rgb(255, 255, 255) 0px 0px 6px, rgb(255, 255, 255) 0px 0px 3px; " transform="translate(0,16)"><tspan style="fill:#339">80 km/h</tspan><tspan style="fill:#933" x="5" dy="14">50 mph</tspan></text></g></g><g class="highcharts-series-group" ><g class="highcharts-series highcharts-tracker" visibility="visible"  transform="translate(10,44) scale(1 1)" style="" clip-path="url(#highcharts-1)"><path fill="black" d="M -8.1 -1.5 L 57.3 -1.5 81.9 -0.5 81.9 0.5 57.3 1.5 -8.1 1.5 z" transform="translate(190,120.5) rotate(-120.0 0 0)"></path><circle cx="0" cy="0" r="5" fill="black" transform="translate(190,120.5)"></circle></g><g class="highcharts-markers" visibility="visible"  transform="translate(10,44) scale(1 1)"></g></g><text x="200" text-anchor="middle" class="highcharts-title"  style="color:black;font-size:16px;font-weight:bold;fill:black;width:336px;" y="22"><tspan>Speedometer with dual axes</tspan></text><g class="highcharts-legend" ><g ><g></g></g></g><g class="highcharts-axis-labels highcharts-yaxis-labels" ><text x="171.2" style="color:#606060;cursor:default;font-size:11px;fill:#606060;width:122px;text-overflow:clip;" text-anchor="middle" transform="translate(0,0) rotate(-150 171.2 214.2)" y="214.2" opacity="1">0</text><text x="144.5" style="color:#606060;cursor:default;font-size:11px;fill:#606060;width:122px;text-overflow:clip;" text-anchor="middle" transform="translate(0,0) rotate(-75 144.5 149.6)" y="149.6" opacity="1">50</text><text x="200" style="color:#606060;cursor:default;font-size:11px;fill:#606060;width:122px;text-overflow:clip;" text-anchor="middle" transform="translate(0,0)" y="107.0" opacity="1">100</text><text x="255.4" style="color:#606060;cursor:default;font-size:11px;fill:#606060;width:122px;text-overflow:clip;" text-anchor="middle" transform="translate(0,0) rotate(74.9 255.4 149.6)" y="149.6" opacity="1">150</text><text x="228.7" style="color:#606060;cursor:default;font-size:11px;fill:#606060;width:122px;text-overflow:clip;" text-anchor="middle" transform="translate(0,0) rotate(150 228.7 214.2)" y="214.2" opacity="1">200</text></g><g class="highcharts-axis-labels highcharts-yaxis-labels" ><text x="152.7" style="color:#606060;cursor:default;font-size:11px;fill:#606060;width:122px;text-overflow:clip;" text-anchor="middle" transform="translate(0,0) rotate(-150 152.7 246.2)" y="246.2" opacity="1">0</text><text x="105.5" style="color:#606060;cursor:default;font-size:11px;fill:#606060;width:122px;text-overflow:clip;" text-anchor="middle" transform="translate(0,0) rotate(-89.5 105.5 163.7)" y="163.7" opacity="1">25</text><text x="154.1" style="color:#606060;cursor:default;font-size:11px;fill:#606060;width:122px;text-overflow:clip;" text-anchor="middle" transform="translate(0,0) rotate(-29.0 154.1 81.9)" y="81.9" opacity="1">50</text><text x="249.2" style="color:#606060;cursor:default;font-size:11px;fill:#606060;width:122px;text-overflow:clip;" text-anchor="middle" transform="translate(0,0) rotate(31.4 249.2 83.9)" y="83.9" opacity="1">75</text><text x="294.3" style="color:#606060;cursor:default;font-size:11px;fill:#606060;width:122px;text-overflow:clip;" text-anchor="middle" transform="translate(0,0) rotate(91.9 294.3 167.6)" y="167.6" opacity="1">100</text></g><g class="highcharts-tooltip"  style="cursor:default;padding:0;white-space:nowrap;" transform="translate(0,-9999)"><path fill="none" d="M 3 0 L 13 0 C 16 0 16 0 16 3 L 16 13 C 16 16 16 16 13 16 L 3 16 C 0 16 0 16 0 13 L 0 3 C 0 0 0 0 3 0"  stroke="black" stroke-opacity="0.0" stroke-width="5" transform="translate(1, 1)"></path><path fill="none" d="M 3 0 L 13 0 C 16 0 16 0 16 3 L 16 13 C 16 16 16 16 13 16 L 3 16 C 0 16 0 16 0 13 L 0 3 C 0 0 0 0 3 0"  stroke="black" stroke-opacity="0.0" stroke-width="3" transform="translate(1, 1)"></path><path fill="none" d="M 3 0 L 13 0 C 16 0 16 0 16 3 L 16 13 C 16 16 16 16 13 16 L 3 16 C 0 16 0 16 0 13 L 0 3 C 0 0 0 0 3 0"  stroke="black" stroke-opacity="0.1" stroke-width="1" transform="translate(1, 1)"></path><path fill="rgb(249, 249, 249)" fill-opacity=" .85" d="M 3 0 L 13 0 C 16 0 16 0 16 3 L 16 13 C 16 16 16 16 13 16 L 3 16 C 0 16 0 16 0 13 L 0 3 C 0 0 0 0 3 0"></path><text x="8"  style="font-size:12px;color:#333333;fill:#333333;" transform="translate(0,20)"></text></g></svg>