<svg version="1.1" style="font-family: signika, serif; font-size: 12px; background-image: url(http://www.highcharts.com/samples/graphics/sand.png); background-attachment: initial; background-origin: initial; background-clip: initial; background-color: initial; background-position: initial initial; background-repeat: initial initial; " xmlns="http://www.w3.org/2000/svg" width="400" height="300" viewBox="0 0 400 300" xmlns:xlink="http://www.w3.org/1999/xlink"><style type="text/css"><![CDATA[@import url(http://fonts.googleapis.com/css?family=Signika:700);]]></style><desc>Created with Highcharts 4.1.4</desc><defs><clipPath id="highcharts-1"><rect x="0" y="0" width="380" height="241"></rect></clipPath><linearGradient x1="0" y1="0" x2="0" y2="1" id="highcharts-2"><stop offset="0" stop-color="#FFF" stop-opacity="1"></stop><stop offset="1" stop-color="#333" stop-opacity="1"></stop></linearGradient><linearGradient x1="0" y1="0" x2="0" y2="1" id="highcharts-3"><stop offset="0" stop-color="#333" stop-opacity="1"></stop><stop offset="1" stop-color="#FFF" stop-opacity="1"></stop></linearGradient><linearGradient x1="0" y1="0" x2="0" y2="1" id="highcharts-4"><stop offset="0" stop-color="#FFF" stop-opacity="1"></stop><stop offset="1" stop-color="#DDD" stop-opacity="1"></stop></linearGradient></defs><path fill="url(#highcharts-2)" d="M 200 52.8 A 111.6 111.6 0 1 1 199.8 52.8 M 200 164.5 A 0 0 0 1 0 200 164.5 "></path><path fill="url(#highcharts-2)" d="M 200 52.8 A 111.6 111.6 0 1 1 199.8 52.8 M 200 164.5 A 0 0 0 1 0 200 164.5 "></path><path fill="url(#highcharts-3)" d="M 200 54.9 A 109.5 109.5 0 1 1 199.8 54.9 M 200 164.5 A 0 0 0 1 0 200 164.5 " stroke="silver" stroke-width="1"></path><path fill="url(#highcharts-3)" d="M 200 54.9 A 109.5 109.5 0 1 1 199.8 54.9 M 200 164.5 A 0 0 0 1 0 200 164.5 " stroke="silver" stroke-width="1"></path><path fill="url(#highcharts-4)" d="M 200 56.9 A 107.5 107.5 0 1 1 199.8 56.9 M 200 164.5 A 0 0 0 1 0 200 164.5 " stroke="silver" stroke-width="1"></path><path fill="url(#highcharts-4)" d="M 200 56.9 A 107.5 107.5 0 1 1 199.8 56.9 M 200 164.5 A 0 0 0 1 0 200 164.5 " stroke="silver" stroke-width="1"></path><path fill="#DDD" d="M 200 56.9 A 107.5 107.5 0 1 1 199.8 56.9 M 199.8 59.0 A 105.4 105.4 0 1 0 200 59.0 "></path><path fill="#DDD" d="M 200 56.9 A 107.5 107.5 0 1 1 199.8 56.9 M 199.8 59.0 A 105.4 105.4 0 1 0 200 59.0 "></path><path fill="#55BF3B" d="M 148.7 253.2 A 102.4 102.4 0 0 1 251.1 75.7 L 246.1 84.4 A 92.4 92.4 0 0 0 153.7 244.5 Z"></path><path fill="#DDDF0D" d="M 251.2 75.7 A 102.4 102.4 0 0 1 302.4 164.3 L 292.4 164.4 A 92.4 92.4 0 0 0 246.2 84.4 Z"></path><path fill="#DF5353" d="M 302.4 164.4 A 102.4 102.4 0 0 1 251.3 253.1 L 246.2 244.4 A 92.4 92.4 0 0 0 292.4 164.4 Z"></path><g class="highcharts-grid" ></g><g class="highcharts-axis" ><path fill="none" d="M 148.7 253.2 L 153.7 244.5" stroke="#666" stroke-width="1" opacity="1"></path><path fill="none" d="M 144.2 250.4 L 149.6 242.0" stroke="#666" stroke-width="1" opacity="1"></path><path fill="none" d="M 139.7 247.3 L 145.6 239.2" stroke="#666" stroke-width="1" opacity="1"></path><path fill="none" d="M 135.5 244.0 L 141.8 236.3" stroke="#666" stroke-width="1" opacity="1"></path><path fill="none" d="M 131.4 240.6 L 138.1 233.1" stroke="#666" stroke-width="1" opacity="1"></path><path fill="none" d="M 127.5 236.9 L 134.6 229.8" stroke="#666" stroke-width="1" opacity="1"></path><path fill="none" d="M 123.8 233.0 L 131.3 226.3" stroke="#666" stroke-width="1" opacity="1"></path><path fill="none" d="M 120.4 228.9 L 128.1 222.6" stroke="#666" stroke-width="1" opacity="1"></path><path fill="none" d="M 117.1 224.7 L 125.2 218.8" stroke="#666" stroke-width="1" opacity="1"></path><path fill="none" d="M 114.0 220.2 L 122.4 214.8" stroke="#666" stroke-width="1" opacity="1"></path><path fill="none" d="M 111.2 215.7 L 119.9 210.7" stroke="#666" stroke-width="1" opacity="1"></path><path fill="none" d="M 108.7 210.9 L 117.6 206.4" stroke="#666" stroke-width="1" opacity="1"></path><path fill="none" d="M 106.4 206.1 L 115.5 202.0" stroke="#666" stroke-width="1" opacity="1"></path><path fill="none" d="M 104.3 201.2 L 113.7 197.6" stroke="#666" stroke-width="1" opacity="1"></path><path fill="none" d="M 102.5 196.1 L 112.0 193.0" stroke="#666" stroke-width="1" opacity="1"></path><path fill="none" d="M 101.0 191.0 L 110.7 188.4" stroke="#666" stroke-width="1" opacity="1"></path><path fill="none" d="M 99.8 185.7 L 109.5 183.7" stroke="#666" stroke-width="1" opacity="1"></path><path fill="none" d="M 98.8 180.5 L 108.7 178.9" stroke="#666" stroke-width="1" opacity="1"></path><path fill="none" d="M 98.1 175.2 L 108.0 174.1" stroke="#666" stroke-width="1" opacity="1"></path><path fill="none" d="M 97.7 169.8 L 107.7 169.3" stroke="#666" stroke-width="1" opacity="1"></path><path fill="none" d="M 97.5 164.5 L 107.5 164.5" stroke="#666" stroke-width="1" opacity="1"></path><path fill="none" d="M 97.7 159.1 L 107.7 159.6" stroke="#666" stroke-width="1" opacity="1"></path><path fill="none" d="M 98.1 153.7 L 108.0 154.8" stroke="#666" stroke-width="1" opacity="1"></path><path fill="none" d="M 98.8 148.4 L 108.7 150.0" stroke="#666" stroke-width="1" opacity="1"></path><path fill="none" d="M 99.8 143.2 L 109.5 145.2" stroke="#666" stroke-width="1" opacity="1"></path><path fill="none" d="M 101.0 137.9 L 110.7 140.5" stroke="#666" stroke-width="1" opacity="1"></path><path fill="none" d="M 102.5 132.8 L 112.0 135.9" stroke="#666" stroke-width="1" opacity="1"></path><path fill="none" d="M 104.3 127.7 L 113.7 131.3" stroke="#666" stroke-width="1" opacity="1"></path><path fill="none" d="M 106.4 122.8 L 115.5 126.9" stroke="#666" stroke-width="1" opacity="1"></path><path fill="none" d="M 108.7 118.0 L 117.6 122.5" stroke="#666" stroke-width="1" opacity="1"></path><path fill="none" d="M 111.2 113.2 L 119.9 118.2" stroke="#666" stroke-width="1" opacity="1"></path><path fill="none" d="M 114.0 108.7 L 122.4 114.1" stroke="#666" stroke-width="1" opacity="1"></path><path fill="none" d="M 117.1 104.2 L 125.2 110.1" stroke="#666" stroke-width="1" opacity="1"></path><path fill="none" d="M 120.4 100.0 L 128.1 106.3" stroke="#666" stroke-width="1" opacity="1"></path><path fill="none" d="M 123.8 95.9 L 131.3 102.6" stroke="#666" stroke-width="1" opacity="1"></path><path fill="none" d="M 127.5 92.0 L 134.6 99.1" stroke="#666" stroke-width="1" opacity="1"></path><path fill="none" d="M 131.4 88.3 L 138.1 95.8" stroke="#666" stroke-width="1" opacity="1"></path><path fill="none" d="M 135.5 84.9 L 141.8 92.6" stroke="#666" stroke-width="1" opacity="1"></path><path fill="none" d="M 139.7 81.6 L 145.6 89.7" stroke="#666" stroke-width="1" opacity="1"></path><path fill="none" d="M 144.2 78.5 L 149.6 86.9" stroke="#666" stroke-width="1" opacity="1"></path><path fill="none" d="M 148.7 75.7 L 153.7 84.4" stroke="#666" stroke-width="1" opacity="1"></path><path fill="none" d="M 153.5 73.2 L 158.0 82.1" stroke="#666" stroke-width="1" opacity="1"></path><path fill="none" d="M 158.3 70.9 L 162.4 80.0" stroke="#666" stroke-width="1" opacity="1"></path><path fill="none" d="M 163.2 68.8 L 166.8 78.2" stroke="#666" stroke-width="1" opacity="1"></path><path fill="none" d="M 168.3 67.0 L 171.4 76.5" stroke="#666" stroke-width="1" opacity="1"></path><path fill="none" d="M 173.4 65.5 L 176.0 75.2" stroke="#666" stroke-width="1" opacity="1"></path><path fill="none" d="M 178.7 64.3 L 180.7 74.0" stroke="#666" stroke-width="1" opacity="1"></path><path fill="none" d="M 183.9 63.3 L 185.5 73.2" stroke="#666" stroke-width="1" opacity="1"></path><path fill="none" d="M 189.2 62.6 L 190.3 72.5" stroke="#666" stroke-width="1" opacity="1"></path><path fill="none" d="M 194.6 62.2 L 195.1 72.2" stroke="#666" stroke-width="1" opacity="1"></path><path fill="none" d="M 200 62.0 L 200 72.0" stroke="#666" stroke-width="1" opacity="1"></path><path fill="none" d="M 205.3 62.2 L 204.8 72.2" stroke="#666" stroke-width="1" opacity="1"></path><path fill="none" d="M 210.7 62.6 L 209.6 72.5" stroke="#666" stroke-width="1" opacity="1"></path><path fill="none" d="M 216.0 63.3 L 214.4 73.2" stroke="#666" stroke-width="1" opacity="1"></path><path fill="none" d="M 221.2 64.3 L 219.2 74.0" stroke="#666" stroke-width="1" opacity="1"></path><path fill="none" d="M 226.5 65.5 L 223.9 75.2" stroke="#666" stroke-width="1" opacity="1"></path><path fill="none" d="M 231.6 67.0 L 228.5 76.5" stroke="#666" stroke-width="1" opacity="1"></path><path fill="none" d="M 236.7 68.8 L 233.1 78.2" stroke="#666" stroke-width="1" opacity="1"></path><path fill="none" d="M 241.6 70.9 L 237.5 80.0" stroke="#666" stroke-width="1" opacity="1"></path><path fill="none" d="M 246.4 73.2 L 241.9 82.1" stroke="#666" stroke-width="1" opacity="1"></path><path fill="none" d="M 251.2 75.7 L 246.2 84.4" stroke="#666" stroke-width="1" opacity="1"></path><path fill="none" d="M 255.7 78.5 L 250.3 86.9" stroke="#666" stroke-width="1" opacity="1"></path><path fill="none" d="M 260.2 81.6 L 254.3 89.7" stroke="#666" stroke-width="1" opacity="1"></path><path fill="none" d="M 264.4 84.9 L 258.1 92.6" stroke="#666" stroke-width="1" opacity="1"></path><path fill="none" d="M 268.5 88.3 L 261.8 95.8" stroke="#666" stroke-width="1" opacity="1"></path><path fill="none" d="M 272.4 92.0 L 265.3 99.1" stroke="#666" stroke-width="1" opacity="1"></path><path fill="none" d="M 276.1 95.9 L 268.6 102.6" stroke="#666" stroke-width="1" opacity="1"></path><path fill="none" d="M 279.5 100.0 L 271.8 106.3" stroke="#666" stroke-width="1" opacity="1"></path><path fill="none" d="M 282.8 104.2 L 274.7 110.1" stroke="#666" stroke-width="1" opacity="1"></path><path fill="none" d="M 285.9 108.7 L 277.5 114.1" stroke="#666" stroke-width="1" opacity="1"></path><path fill="none" d="M 288.7 113.2 L 280.0 118.2" stroke="#666" stroke-width="1" opacity="1"></path><path fill="none" d="M 291.2 118.0 L 282.3 122.5" stroke="#666" stroke-width="1" opacity="1"></path><path fill="none" d="M 293.5 122.8 L 284.4 126.9" stroke="#666" stroke-width="1" opacity="1"></path><path fill="none" d="M 295.6 127.7 L 286.2 131.3" stroke="#666" stroke-width="1" opacity="1"></path><path fill="none" d="M 297.4 132.8 L 287.9 135.9" stroke="#666" stroke-width="1" opacity="1"></path><path fill="none" d="M 298.9 137.9 L 289.2 140.5" stroke="#666" stroke-width="1" opacity="1"></path><path fill="none" d="M 300.1 143.2 L 290.4 145.2" stroke="#666" stroke-width="1" opacity="1"></path><path fill="none" d="M 301.1 148.4 L 291.2 150.0" stroke="#666" stroke-width="1" opacity="1"></path><path fill="none" d="M 301.8 153.7 L 291.9 154.8" stroke="#666" stroke-width="1" opacity="1"></path><path fill="none" d="M 302.2 159.1 L 292.2 159.6" stroke="#666" stroke-width="1" opacity="1"></path><path fill="none" d="M 302.4 164.4 L 292.4 164.4" stroke="#666" stroke-width="1" opacity="1"></path><path fill="none" d="M 302.2 169.8 L 292.2 169.3" stroke="#666" stroke-width="1" opacity="1"></path><path fill="none" d="M 301.8 175.2 L 291.9 174.1" stroke="#666" stroke-width="1" opacity="1"></path><path fill="none" d="M 301.1 180.5 L 291.2 178.9" stroke="#666" stroke-width="1" opacity="1"></path><path fill="none" d="M 300.1 185.7 L 290.4 183.7" stroke="#666" stroke-width="1" opacity="1"></path><path fill="none" d="M 298.9 191.0 L 289.2 188.4" stroke="#666" stroke-width="1" opacity="1"></path><path fill="none" d="M 297.4 196.1 L 287.9 193.0" stroke="#666" stroke-width="1" opacity="1"></path><path fill="none" d="M 295.6 201.2 L 286.2 197.6" stroke="#666" stroke-width="1" opacity="1"></path><path fill="none" d="M 293.5 206.1 L 284.4 202.0" stroke="#666" stroke-width="1" opacity="1"></path><path fill="none" d="M 291.2 210.9 L 282.3 206.4" stroke="#666" stroke-width="1" opacity="1"></path><path fill="none" d="M 288.7 215.7 L 280.0 210.7" stroke="#666" stroke-width="1" opacity="1"></path><path fill="none" d="M 285.9 220.2 L 277.5 214.8" stroke="#666" stroke-width="1" opacity="1"></path><path fill="none" d="M 282.8 224.7 L 274.7 218.8" stroke="#666" stroke-width="1" opacity="1"></path><path fill="none" d="M 279.5 228.9 L 271.8 222.6" stroke="#666" stroke-width="1" opacity="1"></path><path fill="none" d="M 276.1 233.0 L 268.6 226.3" stroke="#666" stroke-width="1" opacity="1"></path><path fill="none" d="M 272.4 236.9 L 265.3 229.8" stroke="#666" stroke-width="1" opacity="1"></path><path fill="none" d="M 268.5 240.6 L 261.8 233.1" stroke="#666" stroke-width="1" opacity="1"></path><path fill="none" d="M 264.4 244.0 L 258.1 236.3" stroke="#666" stroke-width="1" opacity="1"></path><path fill="none" d="M 260.2 247.3 L 254.3 239.2" stroke="#666" stroke-width="1" opacity="1"></path><path fill="none" d="M 255.7 250.4 L 250.3 242.0" stroke="#666" stroke-width="1" opacity="1"></path><path fill="none" d="M 251.2 253.2 L 246.2 244.5" stroke="#666" stroke-width="1" opacity="1"></path><path fill="none" d="M 148.7 253.2 L 153.7 244.5" stroke="#666" stroke-width="2" opacity="1"></path><path fill="none" d="M 127.5 236.9 L 134.6 229.8" stroke="#666" stroke-width="2" opacity="1"></path><path fill="none" d="M 111.2 215.7 L 119.9 210.7" stroke="#666" stroke-width="2" opacity="1"></path><path fill="none" d="M 101.0 191.0 L 110.7 188.4" stroke="#666" stroke-width="2" opacity="1"></path><path fill="none" d="M 97.5 164.5 L 107.5 164.5" stroke="#666" stroke-width="2" opacity="1"></path><path fill="none" d="M 101.0 137.9 L 110.7 140.5" stroke="#666" stroke-width="2" opacity="1"></path><path fill="none" d="M 111.2 113.2 L 119.9 118.2" stroke="#666" stroke-width="2" opacity="1"></path><path fill="none" d="M 127.5 92.0 L 134.6 99.1" stroke="#666" stroke-width="2" opacity="1"></path><path fill="none" d="M 148.7 75.7 L 153.7 84.4" stroke="#666" stroke-width="2" opacity="1"></path><path fill="none" d="M 173.4 65.5 L 176.0 75.2" stroke="#666" stroke-width="2" opacity="1"></path><path fill="none" d="M 200 62.0 L 200 72.0" stroke="#666" stroke-width="2" opacity="1"></path><path fill="none" d="M 226.5 65.5 L 223.9 75.2" stroke="#666" stroke-width="2" opacity="1"></path><path fill="none" d="M 251.2 75.7 L 246.2 84.4" stroke="#666" stroke-width="2" opacity="1"></path><path fill="none" d="M 272.4 92.0 L 265.3 99.1" stroke="#666" stroke-width="2" opacity="1"></path><path fill="none" d="M 288.7 113.2 L 280.0 118.2" stroke="#666" stroke-width="2" opacity="1"></path><path fill="none" d="M 298.9 137.9 L 289.2 140.5" stroke="#666" stroke-width="2" opacity="1"></path><path fill="none" d="M 302.4 164.4 L 292.4 164.4" stroke="#666" stroke-width="2" opacity="1"></path><path fill="none" d="M 298.9 191.0 L 289.2 188.4" stroke="#666" stroke-width="2" opacity="1"></path><path fill="none" d="M 288.7 215.7 L 280.0 210.7" stroke="#666" stroke-width="2" opacity="1"></path><path fill="none" d="M 272.4 236.9 L 265.3 229.8" stroke="#666" stroke-width="2" opacity="1"></path><path fill="none" d="M 251.2 253.2 L 246.2 244.5" stroke="#666" stroke-width="2" opacity="1"></path><text x="200"  text-anchor="middle" transform="translate(0,0)" class=" highcharts-yaxis-title" style="color:#707070;fill:#707070;" visibility="visible" y="113.2">km/h</text><path fill="none" d="M 148.7 253.2 A 102.4 102.4 0 1 1 251.3 253.1 M 200 164.5 A 0 0 0 1 0 200 164.5 " stroke="#C0D0E0" stroke-width="1"  visibility="visible"></path></g><g class="highcharts-data-labels highcharts-tracker" visibility="visible"  transform="translate(10,44) scale(1 1)" style=""><g  style="" transform="translate(179,136)"><rect x="0.5" y="0.5" width="22" height="23" strokeWidth="1" fill="none" stroke="silver" stroke-width="1" rx="3" ry="3"></rect><text x="5"  style="font-size: 11px; font-weight: bold; color: rgb(0, 0, 0); fill: #000000; text-shadow: rgb(255, 255, 255) 0px 0px 6px, rgb(255, 255, 255) 0px 0px 3px; " transform="translate(0,16)"><tspan>80</tspan></text></g></g><g class="highcharts-series-group" ><g class="highcharts-series highcharts-tracker" visibility="visible"  transform="translate(10,44) scale(1 1)" style="" clip-path="url(#highcharts-1)"><path fill="black" d="M -8.1 -1.5 L 57.3 -1.5 81.9 -0.5 81.9 0.5 57.3 1.5 -8.1 1.5 z" transform="translate(190,120.5) rotate(-120.0 0 0)"></path><circle cx="0" cy="0" r="5" fill="black" transform="translate(190,120.5)"></circle></g><g class="highcharts-markers" visibility="visible"  transform="translate(10,44) scale(1 1)"></g></g><text x="200" text-anchor="middle" class="highcharts-title"  style="color:black;font-size:16px;font-weight:bold;fill:black;width:336px;" y="22">Speedometer</text><g class="highcharts-legend" ><g ><g></g></g></g><g class="highcharts-axis-labels highcharts-yaxis-labels" ><text x="161.2" style="color:#6e6e70;cursor:default;font-size:11px;fill:#6e6e70;width:122px;text-overflow:clip;" text-anchor="middle" transform="translate(0,0) rotate(-150 161.2 231.5)" y="231.5" opacity="1">0</text><text x="0" style="color:#6e6e70;cursor:default;font-size:11px;fill:#6e6e70;width:122px;text-overflow:clip;" text-anchor="middle" transform="translate(0,0) rotate(-135 0 -9999)" y="-9999">10</text><text x="132.9" style="color:#6e6e70;cursor:default;font-size:11px;fill:#6e6e70;width:122px;text-overflow:clip;" text-anchor="middle" transform="translate(0,0) rotate(-120 132.9 203.2)" y="203.2" opacity="1">20</text><text x="0" style="color:#6e6e70;cursor:default;font-size:11px;fill:#6e6e70;width:122px;text-overflow:clip;" text-anchor="middle" transform="translate(0,0) rotate(-104.9 0 -9999)" y="-9999">30</text><text x="122.5" style="color:#6e6e70;cursor:default;font-size:11px;fill:#6e6e70;width:122px;text-overflow:clip;" text-anchor="middle" transform="translate(0,0) rotate(-90 122.5 164.5)" y="164.5" opacity="1">40</text><text x="0" style="color:#6e6e70;cursor:default;font-size:11px;fill:#6e6e70;width:122px;text-overflow:clip;" text-anchor="middle" transform="translate(0,0) rotate(-75 0 -9999)" y="-9999">50</text><text x="132.9" style="color:#6e6e70;cursor:default;font-size:11px;fill:#6e6e70;width:122px;text-overflow:clip;" text-anchor="middle" transform="translate(0,0) rotate(-59.9 132.9 125.7)" y="125.7" opacity="1">60</text><text x="0" style="color:#6e6e70;cursor:default;font-size:11px;fill:#6e6e70;width:122px;text-overflow:clip;" text-anchor="middle" transform="translate(0,0) rotate(-45 0 -9999)" y="-9999">70</text><text x="161.2" style="color:#6e6e70;cursor:default;font-size:11px;fill:#6e6e70;width:122px;text-overflow:clip;" text-anchor="middle" transform="translate(0,0) rotate(-30.0 161.2 97.4)" y="97.4" opacity="1">80</text><text x="0" style="color:#6e6e70;cursor:default;font-size:11px;fill:#6e6e70;width:122px;text-overflow:clip;" text-anchor="middle" transform="translate(0,0) rotate(-15.0 0 -9999)" y="-9999">90</text><text x="200" style="color:#6e6e70;cursor:default;font-size:11px;fill:#6e6e70;width:122px;text-overflow:clip;" text-anchor="middle" transform="translate(0,0)" y="87.0" opacity="1">100</text><text x="0" style="color:#6e6e70;cursor:default;font-size:11px;fill:#6e6e70;width:122px;text-overflow:clip;" text-anchor="middle" transform="translate(0,0) rotate(14.9 0 -9999)" y="-9999">110</text><text x="238.7" style="color:#6e6e70;cursor:default;font-size:11px;fill:#6e6e70;width:122px;text-overflow:clip;" text-anchor="middle" transform="translate(0,0) rotate(29.9 238.7 97.4)" y="97.4" opacity="1">120</text><text x="0" style="color:#6e6e70;cursor:default;font-size:11px;fill:#6e6e70;width:122px;text-overflow:clip;" text-anchor="middle" transform="translate(0,0) rotate(44.9 0 -9999)" y="-9999">130</text><text x="267.0" style="color:#6e6e70;cursor:default;font-size:11px;fill:#6e6e70;width:122px;text-overflow:clip;" text-anchor="middle" transform="translate(0,0) rotate(59.9 267.0 125.7)" y="125.7" opacity="1">140</text><text x="0" style="color:#6e6e70;cursor:default;font-size:11px;fill:#6e6e70;width:122px;text-overflow:clip;" text-anchor="middle" transform="translate(0,0) rotate(74.9 0 -9999)" y="-9999">150</text><text x="277.4" style="color:#6e6e70;cursor:default;font-size:11px;fill:#6e6e70;width:122px;text-overflow:clip;" text-anchor="middle" transform="translate(0,0) rotate(89.9 277.4 164.4)" y="164.4" opacity="1">160</text><text x="0" style="color:#6e6e70;cursor:default;font-size:11px;fill:#6e6e70;width:122px;text-overflow:clip;" text-anchor="middle" transform="translate(0,0) rotate(104.9 0 -9999)" y="-9999">170</text><text x="267.0" style="color:#6e6e70;cursor:default;font-size:11px;fill:#6e6e70;width:122px;text-overflow:clip;" text-anchor="middle" transform="translate(0,0) rotate(119.9 267.0 203.2)" y="203.2" opacity="1">180</text><text x="0" style="color:#6e6e70;cursor:default;font-size:11px;fill:#6e6e70;width:122px;text-overflow:clip;" text-anchor="middle" transform="translate(0,0) rotate(134.9 0 -9999)" y="-9999">190</text><text x="238.7" style="color:#6e6e70;cursor:default;font-size:11px;fill:#6e6e70;width:122px;text-overflow:clip;" text-anchor="middle" transform="translate(0,0) rotate(150 238.7 231.5)" y="231.5" opacity="1">200</text></g><g class="highcharts-tooltip"  style="cursor:default;padding:0;white-space:nowrap;" transform="translate(0,-9999)"><path fill="none" d="M 3 0 L 13 0 C 16 0 16 0 16 3 L 16 13 C 16 16 16 16 13 16 L 3 16 C 0 16 0 16 0 13 L 0 3 C 0 0 0 0 3 0"  stroke="black" stroke-opacity="0.0" stroke-width="5" transform="translate(1, 1)"></path><path fill="none" d="M 3 0 L 13 0 C 16 0 16 0 16 3 L 16 13 C 16 16 16 16 13 16 L 3 16 C 0 16 0 16 0 13 L 0 3 C 0 0 0 0 3 0"  stroke="black" stroke-opacity="0.0" stroke-width="3" transform="translate(1, 1)"></path><path fill="none" d="M 3 0 L 13 0 C 16 0 16 0 16 3 L 16 13 C 16 16 16 16 13 16 L 3 16 C 0 16 0 16 0 13 L 0 3 C 0 0 0 0 3 0"  stroke="black" stroke-opacity="0.1" stroke-width="1" transform="translate(1, 1)"></path><path fill="rgb(249, 249, 249)" fill-opacity=" .85" d="M 3 0 L 13 0 C 16 0 16 0 16 3 L 16 13 C 16 16 16 16 13 16 L 3 16 C 0 16 0 16 0 13 L 0 3 C 0 0 0 0 3 0"></path><text x="8"  style="font-size:12px;color:#333333;fill:#333333;" transform="translate(0,20)"></text></g></svg>