<svg version="1.1" style="font-family: signika, serif; font-size: 12px; background-image: url(http://www.highcharts.com/samples/graphics/sand.png); background-attachment: initial; background-origin: initial; background-clip: initial; background-color: initial; background-position: initial initial; background-repeat: initial initial; " xmlns="http://www.w3.org/2000/svg" width="584" height="400" viewBox="0 0 584 400" xmlns:xlink="http://www.w3.org/1999/xlink"><style type="text/css"><![CDATA[@import url(http://fonts.googleapis.com/css?family=Signika:700);]]></style><desc>Created with Highcharts 4.1.4</desc><defs><clipPath id="highcharts-1"><rect x="0" y="0" width="513" height="267"></rect></clipPath><clipPath id="highcharts-2"><rect x="-99" y="-58" width="612" height="400"></rect></clipPath><clipPath id="highcharts-3"><rect x="0" y="0" width="513" height="267"></rect></clipPath></defs><g class="highcharts-grid" ></g><g class="highcharts-grid" ><path fill="none" d="M 61 325.5 L 574 325.5" stroke="#D8D8D8" stroke-width="1"  opacity="1"></path><path fill="none" d="M 61 281.5 L 574 281.5" stroke="#D8D8D8" stroke-width="1"  opacity="1"></path><path fill="none" d="M 61 236.5 L 574 236.5" stroke="#D8D8D8" stroke-width="1"  opacity="1"></path><path fill="none" d="M 61 192.5 L 574 192.5" stroke="#D8D8D8" stroke-width="1"  opacity="1"></path><path fill="none" d="M 61 147.5 L 574 147.5" stroke="#D8D8D8" stroke-width="1"  opacity="1"></path><path fill="none" d="M 61 103.5 L 574 103.5" stroke="#D8D8D8" stroke-width="1"  opacity="1"></path><path fill="none" d="M 61 57.5 L 574 57.5" stroke="#D8D8D8" stroke-width="1"  opacity="1"></path></g><g class="highcharts-axis" ><path fill="none" d="M 103.5 325 L 103.5 335" stroke="#C0D0E0" stroke-width="1" opacity="1"></path><path fill="none" d="M 146.5 325 L 146.5 335" stroke="#C0D0E0" stroke-width="1" opacity="1"></path><path fill="none" d="M 188.5 325 L 188.5 335" stroke="#C0D0E0" stroke-width="1" opacity="1"></path><path fill="none" d="M 231.5 325 L 231.5 335" stroke="#C0D0E0" stroke-width="1" opacity="1"></path><path fill="none" d="M 274.5 325 L 274.5 335" stroke="#C0D0E0" stroke-width="1" opacity="1"></path><path fill="none" d="M 317.5 325 L 317.5 335" stroke="#C0D0E0" stroke-width="1" opacity="1"></path><path fill="none" d="M 359.5 325 L 359.5 335" stroke="#C0D0E0" stroke-width="1" opacity="1"></path><path fill="none" d="M 402.5 325 L 402.5 335" stroke="#C0D0E0" stroke-width="1" opacity="1"></path><path fill="none" d="M 445.5 325 L 445.5 335" stroke="#C0D0E0" stroke-width="1" opacity="1"></path><path fill="none" d="M 488.5 325 L 488.5 335" stroke="#C0D0E0" stroke-width="1" opacity="1"></path><path fill="none" d="M 530.5 325 L 530.5 335" stroke="#C0D0E0" stroke-width="1" opacity="1"></path><path fill="none" d="M 574.5 325 L 574.5 335" stroke="#C0D0E0" stroke-width="1" opacity="1"></path><path fill="none" d="M 60.5 325 L 60.5 335" stroke="#C0D0E0" stroke-width="1" opacity="1"></path><path fill="none" d="M 61 325.5 L 574 325.5" stroke="#C0D0E0" stroke-width="1"  visibility="visible"></path></g><g class="highcharts-axis" ><text x="24"  text-anchor="middle" transform="translate(0,0) rotate(270 24 191.5)" class=" highcharts-yaxis-title" style="color:#707070;fill:#707070;" visibility="visible" y="191.5"><tspan>Temperature (°C)</tspan></text></g><g class="highcharts-series-group" ><g class="highcharts-series" visibility="visible"  transform="translate(61,58) scale(1 1)" clip-path="url(#highcharts-3)"><path fill="none" d="M 21.3 204.7 L 64.1 205.5 L 106.8 182.4 L 149.6 137.9 L 192.3 103.2 L 235.1 75.6 L 277.8 42.7 L 320.6 31.1 L 363.3 59.6 L 406.1 104.1 L 448.8 143.2 L 491.6 181.5" stroke="black" stroke-width="5"  stroke-linejoin="round" stroke-linecap="round"  stroke-opacity="0.0" transform="translate(1, 1)"></path><path fill="none" d="M 21.3 204.7 L 64.1 205.5 L 106.8 182.4 L 149.6 137.9 L 192.3 103.2 L 235.1 75.6 L 277.8 42.7 L 320.6 31.1 L 363.3 59.6 L 406.1 104.1 L 448.8 143.2 L 491.6 181.5" stroke="black" stroke-width="3"  stroke-linejoin="round" stroke-linecap="round"  stroke-opacity="0.0" transform="translate(1, 1)"></path><path fill="none" d="M 21.3 204.7 L 64.1 205.5 L 106.8 182.4 L 149.6 137.9 L 192.3 103.2 L 235.1 75.6 L 277.8 42.7 L 320.6 31.1 L 363.3 59.6 L 406.1 104.1 L 448.8 143.2 L 491.6 181.5" stroke="black" stroke-width="1"  stroke-linejoin="round" stroke-linecap="round"  stroke-opacity="0.1" transform="translate(1, 1)"></path><path fill="none" d="M 21.3 204.7 L 64.1 205.5 L 106.8 182.4 L 149.6 137.9 L 192.3 103.2 L 235.1 75.6 L 277.8 42.7 L 320.6 31.1 L 363.3 59.6 L 406.1 104.1 L 448.8 143.2 L 491.6 181.5" stroke="#f45b5b" stroke-width="2"  stroke-linejoin="round" stroke-linecap="round"></path></g><g class="highcharts-markers" visibility="visible"  transform="translate(61,58) scale(1 1)" clip-path="url(#highcharts-2)"><path fill="#f45b5b" d="M 491 177.5 C 496.3 177.5 496.3 185.5 491 185.5 C 485.6 185.5 485.6 177.5 491 177.5 Z"></path><path fill="#f45b5b" d="M 448 139.2 C 453.3 139.2 453.3 147.2 448 147.2 C 442.6 147.2 442.6 139.2 448 139.2 Z"></path><path fill="#f45b5b" d="M 406 100.1 C 411.3 100.1 411.3 108.1 406 108.1 C 400.6 108.1 400.6 100.1 406 100.1 Z"></path><path fill="#f45b5b" d="M 363 55.6 C 368.3 55.6 368.3 63.6 363 63.6 C 357.6 63.6 357.6 55.6 363 55.6 Z"></path><path fill="#f45b5b" d="M 320 27.1 C 325.3 27.1 325.3 35.1 320 35.1 C 314.6 35.1 314.6 27.1 320 27.1 Z"></path><path fill="#f45b5b" d="M 277 38.7 C 282.3 38.7 282.3 46.7 277 46.7 C 271.6 46.7 271.6 38.7 277 38.7 Z"></path><path fill="#f45b5b" d="M 235 71.6 C 240.3 71.6 240.3 79.6 235 79.6 C 229.6 79.6 229.6 71.6 235 71.6 Z"></path><path fill="#f45b5b" d="M 192 99.2 C 197.3 99.2 197.3 107.2 192 107.2 C 186.6 107.2 186.6 99.2 192 99.2 Z"></path><path fill="#f45b5b" d="M 149 133.9 C 154.3 133.9 154.3 141.9 149 141.9 C 143.6 141.9 143.6 133.9 149 133.9 Z"></path><path fill="#f45b5b" d="M 106 178.4 C 111.3 178.4 111.3 186.4 106 186.4 C 100.6 186.4 100.6 178.4 106 178.4 Z"></path><path fill="#f45b5b" d="M 64 201.5 C 69.3 201.5 69.3 209.5 64 209.5 C 58.6 209.5 58.6 201.5 64 201.5 Z"></path><path fill="#f45b5b" d="M 21 200.7 C 26.3 200.7 26.3 208.7 21 208.7 C 15.6 208.7 15.6 200.7 21 200.7 Z"></path></g><g class="highcharts-series" visibility="visible"  transform="translate(61,58) scale(1 1)" clip-path="url(#highcharts-3)"><path fill="none" d="M 21.3 232.2 L 64.1 229.6 L 106.8 216.2 L 149.6 191.3 L 192.3 161.0 L 235.1 131.7 L 277.8 115.6 L 320.6 119.2 L 363.3 140.6 L 406.1 175.3 L 448.8 208.2 L 491.6 224.2" stroke="black" stroke-width="5"  stroke-linejoin="round" stroke-linecap="round"  stroke-opacity="0.0" transform="translate(1, 1)"></path><path fill="none" d="M 21.3 232.2 L 64.1 229.6 L 106.8 216.2 L 149.6 191.3 L 192.3 161.0 L 235.1 131.7 L 277.8 115.6 L 320.6 119.2 L 363.3 140.6 L 406.1 175.3 L 448.8 208.2 L 491.6 224.2" stroke="black" stroke-width="3"  stroke-linejoin="round" stroke-linecap="round"  stroke-opacity="0.0" transform="translate(1, 1)"></path><path fill="none" d="M 21.3 232.2 L 64.1 229.6 L 106.8 216.2 L 149.6 191.3 L 192.3 161.0 L 235.1 131.7 L 277.8 115.6 L 320.6 119.2 L 363.3 140.6 L 406.1 175.3 L 448.8 208.2 L 491.6 224.2" stroke="black" stroke-width="1"  stroke-linejoin="round" stroke-linecap="round"  stroke-opacity="0.1" transform="translate(1, 1)"></path><path fill="none" d="M 21.3 232.2 L 64.1 229.6 L 106.8 216.2 L 149.6 191.3 L 192.3 161.0 L 235.1 131.7 L 277.8 115.6 L 320.6 119.2 L 363.3 140.6 L 406.1 175.3 L 448.8 208.2 L 491.6 224.2" stroke="#8085e9" stroke-width="2"  stroke-linejoin="round" stroke-linecap="round"></path></g><g class="highcharts-markers" visibility="visible"  transform="translate(61,58) scale(1 1)" clip-path="url(#highcharts-2)"><path fill="#8085e9" d="M 491 220.2 L 495 224.2 491 228.2 487 224.2 Z"></path><path fill="#8085e9" d="M 448 204.2 L 452 208.2 448 212.2 444 208.2 Z"></path><path fill="#8085e9" d="M 406 171.3 L 410 175.3 406 179.3 402 175.3 Z"></path><path fill="#8085e9" d="M 363 136.6 L 367 140.6 363 144.6 359 140.6 Z"></path><path fill="#8085e9" d="M 320 115.2 L 324 119.2 320 123.2 316 119.2 Z"></path><path fill="#8085e9" d="M 277 111.6 L 281 115.6 277 119.6 273 115.6 Z"></path><path fill="#8085e9" d="M 235 127.7 L 239 131.7 235 135.7 231 131.7 Z"></path><path fill="#8085e9" d="M 192 157.0 L 196 161.0 192 165.0 188 161.0 Z"></path><path fill="#8085e9" d="M 149 187.3 L 153 191.3 149 195.3 145 191.3 Z"></path><path fill="#8085e9" d="M 106 212.2 L 110 216.2 106 220.2 102 216.2 Z"></path><path fill="#8085e9" d="M 64 225.6 L 68 229.6 64 233.6 60 229.6 Z"></path><path fill="#8085e9" d="M 21 228.2 L 25 232.2 21 236.2 17 232.2 Z"></path></g></g><text x="292" text-anchor="middle" class="highcharts-title"  style="color:black;font-size:16px;font-weight:bold;fill:black;width:520px;" y="22"><tspan>Monthly Average Temperature</tspan></text><text x="292" text-anchor="middle" class="highcharts-subtitle"  style="color:black;fill:black;width:520px;" y="43"><tspan>Source: WorldClimate.com</tspan></text><g class="highcharts-data-labels" visibility="visible"  transform="translate(61,58) scale(1 1)"><g  style="" transform="translate(13,182)"><text x="5"  style="font-size: 11px; font-weight: bold; color: rgb(0, 0, 0); fill: #000000; text-shadow: rgb(255, 255, 255) 0px 0px 6px, rgb(255, 255, 255) 0px 0px 3px; " transform="translate(0,16)"><tspan>7</tspan></text></g><g  style="" transform="translate(51,183)"><text x="5"  style="font-size: 11px; font-weight: bold; color: rgb(0, 0, 0); fill: #000000; text-shadow: rgb(255, 255, 255) 0px 0px 6px, rgb(255, 255, 255) 0px 0px 3px; " transform="translate(0,16)"><tspan>6.9</tspan></text></g><g  style="" transform="translate(93,159)"><text x="5"  style="font-size: 11px; font-weight: bold; color: rgb(0, 0, 0); fill: #000000; text-shadow: rgb(255, 255, 255) 0px 0px 6px, rgb(255, 255, 255) 0px 0px 3px; " transform="translate(0,16)"><tspan>9.5</tspan></text></g><g  style="" transform="translate(133,115)"><text x="5"  style="font-size: 11px; font-weight: bold; color: rgb(0, 0, 0); fill: #000000; text-shadow: rgb(255, 255, 255) 0px 0px 6px, rgb(255, 255, 255) 0px 0px 3px; " transform="translate(0,16)"><tspan>14.5</tspan></text></g><g  style="" transform="translate(175,80)"><text x="5"  style="font-size: 11px; font-weight: bold; color: rgb(0, 0, 0); fill: #000000; text-shadow: rgb(255, 255, 255) 0px 0px 6px, rgb(255, 255, 255) 0px 0px 3px; " transform="translate(0,16)"><tspan>18.4</tspan></text></g><g  style="" transform="translate(218,53)"><text x="5"  style="font-size: 11px; font-weight: bold; color: rgb(0, 0, 0); fill: #000000; text-shadow: rgb(255, 255, 255) 0px 0px 6px, rgb(255, 255, 255) 0px 0px 3px; " transform="translate(0,16)"><tspan>21.5</tspan></text></g><g  style="" transform="translate(261,20)"><text x="5"  style="font-size: 11px; font-weight: bold; color: rgb(0, 0, 0); fill: #000000; text-shadow: rgb(255, 255, 255) 0px 0px 6px, rgb(255, 255, 255) 0px 0px 3px; " transform="translate(0,16)"><tspan>25.2</tspan></text></g><g  style="" transform="translate(304,8)"><text x="5"  style="font-size: 11px; font-weight: bold; color: rgb(0, 0, 0); fill: #000000; text-shadow: rgb(255, 255, 255) 0px 0px 6px, rgb(255, 255, 255) 0px 0px 3px; " transform="translate(0,16)"><tspan>26.5</tspan></text></g><g  style="" transform="translate(346,37)"><text x="5"  style="font-size: 11px; font-weight: bold; color: rgb(0, 0, 0); fill: #000000; text-shadow: rgb(255, 255, 255) 0px 0px 6px, rgb(255, 255, 255) 0px 0px 3px; " transform="translate(0,16)"><tspan>23.3</tspan></text></g><g  style="" transform="translate(389,81)"><text x="5"  style="font-size: 11px; font-weight: bold; color: rgb(0, 0, 0); fill: #000000; text-shadow: rgb(255, 255, 255) 0px 0px 6px, rgb(255, 255, 255) 0px 0px 3px; " transform="translate(0,16)"><tspan>18.3</tspan></text></g><g  style="" transform="translate(432,120)"><text x="5"  style="font-size: 11px; font-weight: bold; color: rgb(0, 0, 0); fill: #000000; text-shadow: rgb(255, 255, 255) 0px 0px 6px, rgb(255, 255, 255) 0px 0px 3px; " transform="translate(0,16)"><tspan>13.9</tspan></text></g><g  style="" transform="translate(478,159)"><text x="5"  style="font-size: 11px; font-weight: bold; color: rgb(0, 0, 0); fill: #000000; text-shadow: rgb(255, 255, 255) 0px 0px 6px, rgb(255, 255, 255) 0px 0px 3px; " transform="translate(0,16)"><tspan>9.6</tspan></text></g></g><g class="highcharts-data-labels" visibility="visible"  transform="translate(61,58) scale(1 1)"><g  style="" transform="translate(8,209)"><text x="5"  style="font-size: 11px; font-weight: bold; color: rgb(0, 0, 0); fill: #000000; text-shadow: rgb(255, 255, 255) 0px 0px 6px, rgb(255, 255, 255) 0px 0px 3px; " transform="translate(0,16)"><tspan>3.9</tspan></text></g><g  style="" transform="translate(51,207)"><text x="5"  style="font-size: 11px; font-weight: bold; color: rgb(0, 0, 0); fill: #000000; text-shadow: rgb(255, 255, 255) 0px 0px 6px, rgb(255, 255, 255) 0px 0px 3px; " transform="translate(0,16)"><tspan>4.2</tspan></text></g><g  style="" transform="translate(93,193)"><text x="5"  style="font-size: 11px; font-weight: bold; color: rgb(0, 0, 0); fill: #000000; text-shadow: rgb(255, 255, 255) 0px 0px 6px, rgb(255, 255, 255) 0px 0px 3px; " transform="translate(0,16)"><tspan>5.7</tspan></text></g><g  style="" transform="translate(136,168)"><text x="5"  style="font-size: 11px; font-weight: bold; color: rgb(0, 0, 0); fill: #000000; text-shadow: rgb(255, 255, 255) 0px 0px 6px, rgb(255, 255, 255) 0px 0px 3px; " transform="translate(0,16)"><tspan>8.5</tspan></text></g><g  style="" transform="translate(175,138)"><text x="5"  style="font-size: 11px; font-weight: bold; color: rgb(0, 0, 0); fill: #000000; text-shadow: rgb(255, 255, 255) 0px 0px 6px, rgb(255, 255, 255) 0px 0px 3px; " transform="translate(0,16)"><tspan>11.9</tspan></text></g><g  style="" transform="translate(218,109)"><text x="5"  style="font-size: 11px; font-weight: bold; color: rgb(0, 0, 0); fill: #000000; text-shadow: rgb(255, 255, 255) 0px 0px 6px, rgb(255, 255, 255) 0px 0px 3px; " transform="translate(0,16)"><tspan>15.2</tspan></text></g><g  style="" transform="translate(267,93)"><text x="5"  style="font-size: 11px; font-weight: bold; color: rgb(0, 0, 0); fill: #000000; text-shadow: rgb(255, 255, 255) 0px 0px 6px, rgb(255, 255, 255) 0px 0px 3px; " transform="translate(0,16)"><tspan>17</tspan></text></g><g  style="" transform="translate(304,96)"><text x="5"  style="font-size: 11px; font-weight: bold; color: rgb(0, 0, 0); fill: #000000; text-shadow: rgb(255, 255, 255) 0px 0px 6px, rgb(255, 255, 255) 0px 0px 3px; " transform="translate(0,16)"><tspan>16.6</tspan></text></g><g  style="" transform="translate(346,118)"><text x="5"  style="font-size: 11px; font-weight: bold; color: rgb(0, 0, 0); fill: #000000; text-shadow: rgb(255, 255, 255) 0px 0px 6px, rgb(255, 255, 255) 0px 0px 3px; " transform="translate(0,16)"><tspan>14.2</tspan></text></g><g  style="" transform="translate(389,152)"><text x="5"  style="font-size: 11px; font-weight: bold; color: rgb(0, 0, 0); fill: #000000; text-shadow: rgb(255, 255, 255) 0px 0px 6px, rgb(255, 255, 255) 0px 0px 3px; " transform="translate(0,16)"><tspan>10.3</tspan></text></g><g  style="" transform="translate(435,185)"><text x="5"  style="font-size: 11px; font-weight: bold; color: rgb(0, 0, 0); fill: #000000; text-shadow: rgb(255, 255, 255) 0px 0px 6px, rgb(255, 255, 255) 0px 0px 3px; " transform="translate(0,16)"><tspan>6.6</tspan></text></g><g  style="" transform="translate(478,201)"><text x="5"  style="font-size: 11px; font-weight: bold; color: rgb(0, 0, 0); fill: #000000; text-shadow: rgb(255, 255, 255) 0px 0px 6px, rgb(255, 255, 255) 0px 0px 3px; " transform="translate(0,16)"><tspan>4.8</tspan></text></g></g><g class="highcharts-legend"  transform="translate(211,358)"><g ><g><g class="highcharts-legend-item"  transform="translate(8,3)"><path fill="none" d="M 0 12 L 16 12" stroke="#f45b5b" stroke-width="2"></path><path fill="#f45b5b" d="M 8 8 C 13.3 8 13.3 16 8 16 C 2.6 16 2.6 8 8 8 Z"></path><text x="21" style="color:#333333;font-size:13px;font-weight:bold;cursor:pointer;fill:#333333;" text-anchor="start"  y="16">Tokyo</text></g><g class="highcharts-legend-item"  transform="translate(87,3)"><path fill="none" d="M 0 12 L 16 12" stroke="#8085e9" stroke-width="2"></path><path fill="#8085e9" d="M 8 8 L 12 12 8 16 4 12 Z"></path><text x="21" y="16" style="color:#333333;font-size:13px;font-weight:bold;cursor:pointer;fill:#333333;" text-anchor="start" >London</text></g></g></g></g><g class="highcharts-axis-labels highcharts-xaxis-labels" ><text x="82.3" style="color:#6e6e70;cursor:default;font-size:11px;fill:#6e6e70;" text-anchor="middle" transform="translate(0,0)" y="344" opacity="1">Jan</text><text x="125.1" style="color:#6e6e70;cursor:default;font-size:11px;fill:#6e6e70;" text-anchor="middle" transform="translate(0,0)" y="344" opacity="1">Feb</text><text x="167.8" style="color:#6e6e70;cursor:default;font-size:11px;fill:#6e6e70;" text-anchor="middle" transform="translate(0,0)" y="344" opacity="1">Mar</text><text x="210.6" style="color:#6e6e70;cursor:default;font-size:11px;fill:#6e6e70;" text-anchor="middle" transform="translate(0,0)" y="344" opacity="1">Apr</text><text x="253.3" style="color:#6e6e70;cursor:default;font-size:11px;fill:#6e6e70;" text-anchor="middle" transform="translate(0,0)" y="344" opacity="1">May</text><text x="296.1" style="color:#6e6e70;cursor:default;font-size:11px;fill:#6e6e70;" text-anchor="middle" transform="translate(0,0)" y="344" opacity="1">Jun</text><text x="338.8" style="color:#6e6e70;cursor:default;font-size:11px;fill:#6e6e70;" text-anchor="middle" transform="translate(0,0)" y="344" opacity="1">Jul</text><text x="381.6" style="color:#6e6e70;cursor:default;font-size:11px;fill:#6e6e70;" text-anchor="middle" transform="translate(0,0)" y="344" opacity="1">Aug</text><text x="424.3" style="color:#6e6e70;cursor:default;font-size:11px;fill:#6e6e70;" text-anchor="middle" transform="translate(0,0)" y="344" opacity="1">Sep</text><text x="467.1" style="color:#6e6e70;cursor:default;font-size:11px;fill:#6e6e70;" text-anchor="middle" transform="translate(0,0)" y="344" opacity="1">Oct</text><text x="509.8" style="color:#6e6e70;cursor:default;font-size:11px;fill:#6e6e70;" text-anchor="middle" transform="translate(0,0)" y="344" opacity="1">Nov</text><text x="552.6" style="color:#6e6e70;cursor:default;font-size:11px;fill:#6e6e70;" text-anchor="middle" transform="translate(0,0)" y="344" opacity="1">Dec</text></g><g class="highcharts-axis-labels highcharts-yaxis-labels" ><text x="46" style="color:#6e6e70;cursor:default;font-size:11px;fill:#6e6e70;width:183px;text-overflow:clip;" text-anchor="end" transform="translate(0,0)" y="330" opacity="1">0</text><text x="46" style="color:#6e6e70;cursor:default;font-size:11px;fill:#6e6e70;width:183px;text-overflow:clip;" text-anchor="end" transform="translate(0,0)" y="285" opacity="1">5</text><text x="46" style="color:#6e6e70;cursor:default;font-size:11px;fill:#6e6e70;width:183px;text-overflow:clip;" text-anchor="end" transform="translate(0,0)" y="241" opacity="1">10</text><text x="46" style="color:#6e6e70;cursor:default;font-size:11px;fill:#6e6e70;width:183px;text-overflow:clip;" text-anchor="end" transform="translate(0,0)" y="196" opacity="1">15</text><text x="46" style="color:#6e6e70;cursor:default;font-size:11px;fill:#6e6e70;width:183px;text-overflow:clip;" text-anchor="end" transform="translate(0,0)" y="152" opacity="1">20</text><text x="46" style="color:#6e6e70;cursor:default;font-size:11px;fill:#6e6e70;width:183px;text-overflow:clip;" text-anchor="end" transform="translate(0,0)" y="107" opacity="1">25</text><text x="46" style="color:#6e6e70;cursor:default;font-size:11px;fill:#6e6e70;width:183px;text-overflow:clip;" text-anchor="end" transform="translate(0,0)" y="63" opacity="1">30</text></g><g class="highcharts-tooltip"  style="cursor:default;padding:0;white-space:nowrap;" transform="translate(0,-9999)"><path fill="none" d="M 3 0 L 13 0 C 16 0 16 0 16 3 L 16 13 C 16 16 16 16 13 16 L 3 16 C 0 16 0 16 0 13 L 0 3 C 0 0 0 0 3 0"  stroke="black" stroke-opacity="0.0" stroke-width="5" transform="translate(1, 1)"></path><path fill="none" d="M 3 0 L 13 0 C 16 0 16 0 16 3 L 16 13 C 16 16 16 16 13 16 L 3 16 C 0 16 0 16 0 13 L 0 3 C 0 0 0 0 3 0"  stroke="black" stroke-opacity="0.0" stroke-width="3" transform="translate(1, 1)"></path><path fill="none" d="M 3 0 L 13 0 C 16 0 16 0 16 3 L 16 13 C 16 16 16 16 13 16 L 3 16 C 0 16 0 16 0 13 L 0 3 C 0 0 0 0 3 0"  stroke="black" stroke-opacity="0.1" stroke-width="1" transform="translate(1, 1)"></path><path fill="rgb(249, 249, 249)" fill-opacity=" .85" d="M 3 0 L 13 0 C 16 0 16 0 16 3 L 16 13 C 16 16 16 16 13 16 L 3 16 C 0 16 0 16 0 13 L 0 3 C 0 0 0 0 3 0"></path><text x="8"  style="font-size:12px;color:#333333;fill:#333333;" transform="translate(0,20)"></text></g></svg>