<svg version="1.1" style="font-family: signika, serif; font-size: 12px; background-image: url(http://www.highcharts.com/samples/graphics/sand.png); background-attachment: initial; background-origin: initial; background-clip: initial; background-color: initial; background-position: initial initial; background-repeat: initial initial; " xmlns="http://www.w3.org/2000/svg" width="584" height="400" viewBox="0 0 584 400" xmlns:xlink="http://www.w3.org/1999/xlink"><style type="text/css"><![CDATA[@import url(http://fonts.googleapis.com/css?family=Signika:700);]]></style><desc>Created with Highcharts 4.1.4</desc><defs><clipPath id="highcharts-1"><rect x="0" y="0" width="564" height="327"></rect></clipPath><clipPath id="highcharts-2"><rect x="-99" y="-58" width="663" height="400"></rect></clipPath><clipPath id="highcharts-3"><rect x="0" y="0" width="564" height="327"></rect></clipPath></defs><g class="highcharts-grid" ><path fill="none" d="M 51.5 58 L 51.5 385" stroke="#D8D8D8" stroke-width="1"  opacity="1"></path><path fill="none" d="M 180.5 58 L 180.5 385" stroke="#D8D8D8" stroke-width="1"  opacity="1"></path><path fill="none" d="M 309.5 58 L 309.5 385" stroke="#D8D8D8" stroke-width="1"  opacity="1"></path><path fill="none" d="M 438.5 58 L 438.5 385" stroke="#D8D8D8" stroke-width="1"  opacity="1"></path><path fill="none" d="M 567.5 58 L 567.5 385" stroke="#D8D8D8" stroke-width="1"  opacity="1"></path></g><g class="highcharts-grid" ><path fill="none" d="M 10 385.5 L 574 385.5" stroke="#D8D8D8" stroke-width="1"  opacity="1"></path><path fill="none" d="M 10 320.5 L 574 320.5" stroke="#D8D8D8" stroke-width="1"  opacity="1"></path><path fill="none" d="M 10 254.5 L 574 254.5" stroke="#D8D8D8" stroke-width="1"  opacity="1"></path><path fill="none" d="M 10 189.5 L 574 189.5" stroke="#D8D8D8" stroke-width="1"  opacity="1"></path><path fill="none" d="M 10 123.5 L 574 123.5" stroke="#D8D8D8" stroke-width="1"  opacity="1"></path><path fill="none" d="M 10 57.5 L 574 57.5" stroke="#D8D8D8" stroke-width="1"  opacity="1"></path></g><g class="highcharts-grid" ></g><g class="highcharts-axis" ><path fill="none" d="M 10 385.5 L 574 385.5" stroke="#C0D0E0" stroke-width="1"  visibility="visible"></path></g><g class="highcharts-axis" ></g><g class="highcharts-axis" ></g><g class="highcharts-series-group" ><g class="highcharts-series" visibility="visible"  transform="translate(10,58) scale(1 1)" clip-path="url(#highcharts-3)"><path fill="none" d="M 5.5 252.5 L 23.9 256.3 L 42.3 123.2 L 60.8 114.9 L 79.2 112.1 L 97.6 111.3 L 116.1 134.2 L 134.5 250.6 L 152.9 254.5 L 171.4 123.4 L 189.8 79.2 L 208.2 105.0 L 226.7 97.0 L 245.1 97.9 L 263.5 240.6 L 282 246.4 L 300.4 100.0 L 318.8 96.0 L 337.2 105.6 L 355.7 118.1 L 374.1 169.6 L 392.5 250.6 L 411.0 264.2 L 429.4 156.4 L 447.8 104.9 L 466.3 103.3 L 484.7 121.6 L 503.1 138.9 L 521.6 249.9 L 540.0 238.3 L 558.4 116.8" stroke="black" stroke-width="5"  stroke-linejoin="round" stroke-linecap="round"  stroke-opacity="0.0" transform="translate(1, 1)"></path><path fill="none" d="M 5.5 252.5 L 23.9 256.3 L 42.3 123.2 L 60.8 114.9 L 79.2 112.1 L 97.6 111.3 L 116.1 134.2 L 134.5 250.6 L 152.9 254.5 L 171.4 123.4 L 189.8 79.2 L 208.2 105.0 L 226.7 97.0 L 245.1 97.9 L 263.5 240.6 L 282 246.4 L 300.4 100.0 L 318.8 96.0 L 337.2 105.6 L 355.7 118.1 L 374.1 169.6 L 392.5 250.6 L 411.0 264.2 L 429.4 156.4 L 447.8 104.9 L 466.3 103.3 L 484.7 121.6 L 503.1 138.9 L 521.6 249.9 L 540.0 238.3 L 558.4 116.8" stroke="black" stroke-width="3"  stroke-linejoin="round" stroke-linecap="round"  stroke-opacity="0.0" transform="translate(1, 1)"></path><path fill="none" d="M 5.5 252.5 L 23.9 256.3 L 42.3 123.2 L 60.8 114.9 L 79.2 112.1 L 97.6 111.3 L 116.1 134.2 L 134.5 250.6 L 152.9 254.5 L 171.4 123.4 L 189.8 79.2 L 208.2 105.0 L 226.7 97.0 L 245.1 97.9 L 263.5 240.6 L 282 246.4 L 300.4 100.0 L 318.8 96.0 L 337.2 105.6 L 355.7 118.1 L 374.1 169.6 L 392.5 250.6 L 411.0 264.2 L 429.4 156.4 L 447.8 104.9 L 466.3 103.3 L 484.7 121.6 L 503.1 138.9 L 521.6 249.9 L 540.0 238.3 L 558.4 116.8" stroke="black" stroke-width="1"  stroke-linejoin="round" stroke-linecap="round"  stroke-opacity="0.1" transform="translate(1, 1)"></path><path fill="none" d="M 5.5 252.5 L 23.9 256.3 L 42.3 123.2 L 60.8 114.9 L 79.2 112.1 L 97.6 111.3 L 116.1 134.2 L 134.5 250.6 L 152.9 254.5 L 171.4 123.4 L 189.8 79.2 L 208.2 105.0 L 226.7 97.0 L 245.1 97.9 L 263.5 240.6 L 282 246.4 L 300.4 100.0 L 318.8 96.0 L 337.2 105.6 L 355.7 118.1 L 374.1 169.6 L 392.5 250.6 L 411.0 264.2 L 429.4 156.4 L 447.8 104.9 L 466.3 103.3 L 484.7 121.6 L 503.1 138.9 L 521.6 249.9 L 540.0 238.3 L 558.4 116.8" stroke="#f45b5b" stroke-width="4"  stroke-linejoin="round" stroke-linecap="round"></path><path fill="none" d="M -4.4 252.5 L 5.5 252.5 L 23.9 256.3 L 42.3 123.2 L 60.8 114.9 L 79.2 112.1 L 97.6 111.3 L 116.1 134.2 L 134.5 250.6 L 152.9 254.5 L 171.4 123.4 L 189.8 79.2 L 208.2 105.0 L 226.7 97.0 L 245.1 97.9 L 263.5 240.6 L 282 246.4 L 300.4 100.0 L 318.8 96.0 L 337.2 105.6 L 355.7 118.1 L 374.1 169.6 L 392.5 250.6 L 411.0 264.2 L 429.4 156.4 L 447.8 104.9 L 466.3 103.3 L 484.7 121.6 L 503.1 138.9 L 521.6 249.9 L 540.0 238.3 L 558.4 116.8 L 568.4 116.8" stroke-linejoin="round" visibility="visible" stroke="rgb(192,192,192)" stroke-opacity="0.0" stroke-width="24"  class=" highcharts-tracker" style="cursor:pointer;"></path></g><g class="highcharts-markers highcharts-tracker" visibility="visible"  transform="translate(10,58) scale(1 1)" clip-path="url(#highcharts-2)" style="cursor:pointer;"><path fill="#f45b5b" d="M 558 112.8 C 563.3 112.8 563.3 120.8 558 120.8 C 552.6 120.8 552.6 112.8 558 112.8 Z" stroke="#FFFFFF" stroke-width="1"></path><path fill="#f45b5b" d="M 540 234.3 C 545.3 234.3 545.3 242.3 540 242.3 C 534.6 242.3 534.6 234.3 540 234.3 Z" stroke="#FFFFFF" stroke-width="1"></path><path fill="#f45b5b" d="M 521 245.9 C 526.3 245.9 526.3 253.9 521 253.9 C 515.6 253.9 515.6 245.9 521 245.9 Z" stroke="#FFFFFF" stroke-width="1"></path><path fill="#f45b5b" d="M 503 134.9 C 508.3 134.9 508.3 142.9 503 142.9 C 497.6 142.9 497.6 134.9 503 134.9 Z" stroke="#FFFFFF" stroke-width="1"></path><path fill="#f45b5b" d="M 484 117.6 C 489.3 117.6 489.3 125.6 484 125.6 C 478.6 125.6 478.6 117.6 484 117.6 Z" stroke="#FFFFFF" stroke-width="1"></path><path fill="#f45b5b" d="M 466 99.3 C 471.3 99.3 471.3 107.3 466 107.3 C 460.6 107.3 460.6 99.3 466 99.3 Z" stroke="#FFFFFF" stroke-width="1"></path><path fill="#f45b5b" d="M 447 100.9 C 452.3 100.9 452.3 108.9 447 108.9 C 441.6 108.9 441.6 100.9 447 100.9 Z" stroke="#FFFFFF" stroke-width="1"></path><path fill="#f45b5b" d="M 429 152.4 C 434.3 152.4 434.3 160.4 429 160.4 C 423.6 160.4 423.6 152.4 429 152.4 Z" stroke="#FFFFFF" stroke-width="1"></path><path fill="#f45b5b" d="M 411 260.2 C 416.3 260.2 416.3 268.2 411 268.2 C 405.6 268.2 405.6 260.2 411 260.2 Z" stroke="#FFFFFF" stroke-width="1"></path><path fill="#f45b5b" d="M 392 246.6 C 397.3 246.6 397.3 254.6 392 254.6 C 386.6 254.6 386.6 246.6 392 246.6 Z" stroke="#FFFFFF" stroke-width="1"></path><path fill="#f45b5b" d="M 374 165.6 C 379.3 165.6 379.3 173.6 374 173.6 C 368.6 173.6 368.6 165.6 374 165.6 Z" stroke="#FFFFFF" stroke-width="1"></path><path fill="#f45b5b" d="M 355 114.1 C 360.3 114.1 360.3 122.1 355 122.1 C 349.6 122.1 349.6 114.1 355 114.1 Z" stroke="#FFFFFF" stroke-width="1"></path><path fill="#f45b5b" d="M 337 101.6 C 342.3 101.6 342.3 109.6 337 109.6 C 331.6 109.6 331.6 101.6 337 101.6 Z" stroke="#FFFFFF" stroke-width="1"></path><path fill="#f45b5b" d="M 318 92.0 C 323.3 92.0 323.3 100.0 318 100.0 C 312.6 100.0 312.6 92.0 318 92.0 Z" stroke="#FFFFFF" stroke-width="1"></path><path fill="#f45b5b" d="M 300 96.0 C 305.3 96.0 305.3 104.0 300 104.0 C 294.6 104.0 294.6 96.0 300 96.0 Z" stroke="#FFFFFF" stroke-width="1"></path><path fill="#f45b5b" d="M 282 242.4 C 287.3 242.4 287.3 250.4 282 250.4 C 276.6 250.4 276.6 242.4 282 242.4 Z" stroke="#FFFFFF" stroke-width="1"></path><path fill="#f45b5b" d="M 263 236.6 C 268.3 236.6 268.3 244.6 263 244.6 C 257.6 244.6 257.6 236.6 263 236.6 Z" stroke="#FFFFFF" stroke-width="1"></path><path fill="#f45b5b" d="M 245 93.9 C 250.3 93.9 250.3 101.9 245 101.9 C 239.6 101.9 239.6 93.9 245 93.9 Z" stroke="#FFFFFF" stroke-width="1"></path><path fill="#f45b5b" d="M 226 93.0 C 231.3 93.0 231.3 101.0 226 101.0 C 220.6 101.0 220.6 93.0 226 93.0 Z" stroke="#FFFFFF" stroke-width="1"></path><path fill="#f45b5b" d="M 208 101.0 C 213.3 101.0 213.3 109.0 208 109.0 C 202.6 109.0 202.6 101.0 208 101.0 Z" stroke="#FFFFFF" stroke-width="1"></path><path fill="#f45b5b" d="M 189 75.2 C 194.3 75.2 194.3 83.2 189 83.2 C 183.6 83.2 183.6 75.2 189 75.2 Z" stroke="#FFFFFF" stroke-width="1"></path><path fill="#f45b5b" d="M 171 119.4 C 176.3 119.4 176.3 127.4 171 127.4 C 165.6 127.4 165.6 119.4 171 119.4 Z" stroke="#FFFFFF" stroke-width="1"></path><path fill="#f45b5b" d="M 152 250.5 C 157.3 250.5 157.3 258.5 152 258.5 C 146.6 258.5 146.6 250.5 152 250.5 Z" stroke="#FFFFFF" stroke-width="1"></path><path fill="#f45b5b" d="M 134 246.6 C 139.3 246.6 139.3 254.6 134 254.6 C 128.6 254.6 128.6 246.6 134 246.6 Z" stroke="#FFFFFF" stroke-width="1"></path><path fill="#f45b5b" d="M 116 130.2 C 121.3 130.2 121.3 138.2 116 138.2 C 110.6 138.2 110.6 130.2 116 130.2 Z" stroke="#FFFFFF" stroke-width="1"></path><path fill="#f45b5b" d="M 97 107.3 C 102.3 107.3 102.3 115.3 97 115.3 C 91.6 115.3 91.6 107.3 97 107.3 Z" stroke="#FFFFFF" stroke-width="1"></path><path fill="#f45b5b" d="M 79 108.1 C 84.3 108.1 84.3 116.1 79 116.1 C 73.6 116.1 73.6 108.1 79 108.1 Z" stroke="#FFFFFF" stroke-width="1"></path><path fill="#f45b5b" d="M 60 110.9 C 65.3 110.9 65.3 118.9 60 118.9 C 54.6 118.9 54.6 110.9 60 110.9 Z" stroke="#FFFFFF" stroke-width="1"></path><path fill="#f45b5b" d="M 42 119.2 C 47.3 119.2 47.3 127.2 42 127.2 C 36.6 127.2 36.6 119.2 42 119.2 Z" stroke="#FFFFFF" stroke-width="1"></path><path fill="#f45b5b" d="M 23 252.3 C 28.3 252.3 28.3 260.3 23 260.3 C 17.6 260.3 17.6 252.3 23 252.3 Z" stroke="#FFFFFF" stroke-width="1"></path><path fill="#f45b5b" d="M 5 248.5 C 10.3 248.5 10.3 256.5 5 256.5 C -0.3 256.5 -0.3 248.5 5 248.5 Z" stroke="#FFFFFF" stroke-width="1"></path></g><g class="highcharts-series" visibility="visible"  transform="translate(10,58) scale(1 1)" clip-path="url(#highcharts-3)"><path fill="none" d="M 5.5 270.1 L 23.9 273.2 L 42.3 178.4 L 60.8 171.6 L 79.2 170.4 L 97.6 168.9 L 116.1 184.2 L 134.5 268.0 L 152.9 272.0 L 171.4 176.2 L 189.8 138.2 L 208.2 162.2 L 226.7 155.7 L 245.1 153.8 L 263.5 258.8 L 282 264.1 L 300.4 161.6 L 318.8 159.9 L 337.2 164.9 L 355.7 174.1 L 374.1 210.7 L 392.5 267.9 L 411.0 279.1 L 429.4 202.7 L 447.8 161.3 L 466.3 161.7 L 484.7 177.9 L 503.1 189.2 L 521.6 267.8 L 540.0 260.1 L 558.4 175.2" stroke="black" stroke-width="5"  stroke-linejoin="round" stroke-linecap="round"  stroke-opacity="0.0" transform="translate(1, 1)"></path><path fill="none" d="M 5.5 270.1 L 23.9 273.2 L 42.3 178.4 L 60.8 171.6 L 79.2 170.4 L 97.6 168.9 L 116.1 184.2 L 134.5 268.0 L 152.9 272.0 L 171.4 176.2 L 189.8 138.2 L 208.2 162.2 L 226.7 155.7 L 245.1 153.8 L 263.5 258.8 L 282 264.1 L 300.4 161.6 L 318.8 159.9 L 337.2 164.9 L 355.7 174.1 L 374.1 210.7 L 392.5 267.9 L 411.0 279.1 L 429.4 202.7 L 447.8 161.3 L 466.3 161.7 L 484.7 177.9 L 503.1 189.2 L 521.6 267.8 L 540.0 260.1 L 558.4 175.2" stroke="black" stroke-width="3"  stroke-linejoin="round" stroke-linecap="round"  stroke-opacity="0.0" transform="translate(1, 1)"></path><path fill="none" d="M 5.5 270.1 L 23.9 273.2 L 42.3 178.4 L 60.8 171.6 L 79.2 170.4 L 97.6 168.9 L 116.1 184.2 L 134.5 268.0 L 152.9 272.0 L 171.4 176.2 L 189.8 138.2 L 208.2 162.2 L 226.7 155.7 L 245.1 153.8 L 263.5 258.8 L 282 264.1 L 300.4 161.6 L 318.8 159.9 L 337.2 164.9 L 355.7 174.1 L 374.1 210.7 L 392.5 267.9 L 411.0 279.1 L 429.4 202.7 L 447.8 161.3 L 466.3 161.7 L 484.7 177.9 L 503.1 189.2 L 521.6 267.8 L 540.0 260.1 L 558.4 175.2" stroke="black" stroke-width="1"  stroke-linejoin="round" stroke-linecap="round"  stroke-opacity="0.1" transform="translate(1, 1)"></path><path fill="none" d="M 5.5 270.1 L 23.9 273.2 L 42.3 178.4 L 60.8 171.6 L 79.2 170.4 L 97.6 168.9 L 116.1 184.2 L 134.5 268.0 L 152.9 272.0 L 171.4 176.2 L 189.8 138.2 L 208.2 162.2 L 226.7 155.7 L 245.1 153.8 L 263.5 258.8 L 282 264.1 L 300.4 161.6 L 318.8 159.9 L 337.2 164.9 L 355.7 174.1 L 374.1 210.7 L 392.5 267.9 L 411.0 279.1 L 429.4 202.7 L 447.8 161.3 L 466.3 161.7 L 484.7 177.9 L 503.1 189.2 L 521.6 267.8 L 540.0 260.1 L 558.4 175.2" stroke="#8085e9" stroke-width="2"  stroke-linejoin="round" stroke-linecap="round"></path><path fill="none" d="M -4.4 270.1 L 5.5 270.1 L 23.9 273.2 L 42.3 178.4 L 60.8 171.6 L 79.2 170.4 L 97.6 168.9 L 116.1 184.2 L 134.5 268.0 L 152.9 272.0 L 171.4 176.2 L 189.8 138.2 L 208.2 162.2 L 226.7 155.7 L 245.1 153.8 L 263.5 258.8 L 282 264.1 L 300.4 161.6 L 318.8 159.9 L 337.2 164.9 L 355.7 174.1 L 374.1 210.7 L 392.5 267.9 L 411.0 279.1 L 429.4 202.7 L 447.8 161.3 L 466.3 161.7 L 484.7 177.9 L 503.1 189.2 L 521.6 267.8 L 540.0 260.1 L 558.4 175.2 L 568.4 175.2" stroke-linejoin="round" visibility="visible" stroke="rgb(192,192,192)" stroke-opacity="0.0" stroke-width="22"  class=" highcharts-tracker" style="cursor:pointer;"></path></g><g class="highcharts-markers highcharts-tracker" visibility="visible"  transform="translate(10,58) scale(1 1)" clip-path="url(#highcharts-2)" style="cursor:pointer;"><path fill="#8085e9" d="M 558 171.2 L 562 175.2 558 179.2 554 175.2 Z" stroke="#FFFFFF" stroke-width="1"></path><path fill="#8085e9" d="M 540 256.1 L 544 260.1 540 264.1 536 260.1 Z" stroke="#FFFFFF" stroke-width="1"></path><path fill="#8085e9" d="M 521 263.8 L 525 267.8 521 271.8 517 267.8 Z" stroke="#FFFFFF" stroke-width="1"></path><path fill="#8085e9" d="M 503 185.2 L 507 189.2 503 193.2 499 189.2 Z" stroke="#FFFFFF" stroke-width="1"></path><path fill="#8085e9" d="M 484 173.9 L 488 177.9 484 181.9 480 177.9 Z" stroke="#FFFFFF" stroke-width="1"></path><path fill="#8085e9" d="M 466 157.7 L 470 161.7 466 165.7 462 161.7 Z" stroke="#FFFFFF" stroke-width="1"></path><path fill="#8085e9" d="M 447 157.3 L 451 161.3 447 165.3 443 161.3 Z" stroke="#FFFFFF" stroke-width="1"></path><path fill="#8085e9" d="M 429 198.7 L 433 202.7 429 206.7 425 202.7 Z" stroke="#FFFFFF" stroke-width="1"></path><path fill="#8085e9" d="M 411 275.1 L 415 279.1 411 283.1 407 279.1 Z" stroke="#FFFFFF" stroke-width="1"></path><path fill="#8085e9" d="M 392 263.9 L 396 267.9 392 271.9 388 267.9 Z" stroke="#FFFFFF" stroke-width="1"></path><path fill="#8085e9" d="M 374 206.7 L 378 210.7 374 214.7 370 210.7 Z" stroke="#FFFFFF" stroke-width="1"></path><path fill="#8085e9" d="M 355 170.1 L 359 174.1 355 178.1 351 174.1 Z" stroke="#FFFFFF" stroke-width="1"></path><path fill="#8085e9" d="M 337 160.9 L 341 164.9 337 168.9 333 164.9 Z" stroke="#FFFFFF" stroke-width="1"></path><path fill="#8085e9" d="M 318 155.9 L 322 159.9 318 163.9 314 159.9 Z" stroke="#FFFFFF" stroke-width="1"></path><path fill="#8085e9" d="M 300 157.6 L 304 161.6 300 165.6 296 161.6 Z" stroke="#FFFFFF" stroke-width="1"></path><path fill="#8085e9" d="M 282 260.1 L 286 264.1 282 268.1 278 264.1 Z" stroke="#FFFFFF" stroke-width="1"></path><path fill="#8085e9" d="M 263 254.8 L 267 258.8 263 262.8 259 258.8 Z" stroke="#FFFFFF" stroke-width="1"></path><path fill="#8085e9" d="M 245 149.8 L 249 153.8 245 157.8 241 153.8 Z" stroke="#FFFFFF" stroke-width="1"></path><path fill="#8085e9" d="M 226 151.7 L 230 155.7 226 159.7 222 155.7 Z" stroke="#FFFFFF" stroke-width="1"></path><path fill="#8085e9" d="M 208 158.2 L 212 162.2 208 166.2 204 162.2 Z" stroke="#FFFFFF" stroke-width="1"></path><path fill="#8085e9" d="M 189 134.2 L 193 138.2 189 142.2 185 138.2 Z" stroke="#FFFFFF" stroke-width="1"></path><path fill="#8085e9" d="M 171 172.2 L 175 176.2 171 180.2 167 176.2 Z" stroke="#FFFFFF" stroke-width="1"></path><path fill="#8085e9" d="M 152 268.0 L 156 272.0 152 276.0 148 272.0 Z" stroke="#FFFFFF" stroke-width="1"></path><path fill="#8085e9" d="M 134 264.0 L 138 268.0 134 272.0 130 268.0 Z" stroke="#FFFFFF" stroke-width="1"></path><path fill="#8085e9" d="M 116 180.2 L 120 184.2 116 188.2 112 184.2 Z" stroke="#FFFFFF" stroke-width="1"></path><path fill="#8085e9" d="M 97 164.9 L 101 168.9 97 172.9 93 168.9 Z" stroke="#FFFFFF" stroke-width="1"></path><path fill="#8085e9" d="M 79 166.4 L 83 170.4 79 174.4 75 170.4 Z" stroke="#FFFFFF" stroke-width="1"></path><path fill="#8085e9" d="M 60 167.6 L 64 171.6 60 175.6 56 171.6 Z" stroke="#FFFFFF" stroke-width="1"></path><path fill="#8085e9" d="M 42 174.4 L 46 178.4 42 182.4 38 178.4 Z" stroke="#FFFFFF" stroke-width="1"></path><path fill="#8085e9" d="M 23 269.2 L 27 273.2 23 277.2 19 273.2 Z" stroke="#FFFFFF" stroke-width="1"></path><path fill="#8085e9" d="M 5 266.1 L 9 270.1 5 274.1 1 270.1 Z" stroke="#FFFFFF" stroke-width="1"></path></g></g><text x="292" text-anchor="middle" class="highcharts-title"  style="color:black;font-size:16px;font-weight:bold;fill:black;width:520px;" y="22"><tspan>Daily visits at www.highcharts.com</tspan></text><text x="292" text-anchor="middle" class="highcharts-subtitle"  style="color:black;fill:black;width:520px;" y="43"><tspan>Source: Google Analytics</tspan></text><g class="highcharts-legend"  transform="translate(10,30)"><g ><g><g class="highcharts-legend-item"  transform="translate(8,3)"><path fill="none" d="M 0 12 L 16 12" stroke="#f45b5b" stroke-width="4"></path><path fill="#f45b5b" d="M 8 8 C 13.3 8 13.3 16 8 16 C 2.6 16 2.6 8 8 8 Z" stroke="#FFFFFF" stroke-width="1"></path><text x="21" style="color:#333333;font-size:13px;font-weight:bold;cursor:pointer;fill:#333333;" text-anchor="start"  y="16">Visits</text></g><g class="highcharts-legend-item"  transform="translate(84,3)"><path fill="none" d="M 0 12 L 16 12" stroke="#8085e9" stroke-width="2"></path><path fill="#8085e9" d="M 8 8 L 12 12 8 16 4 12 Z" stroke="#FFFFFF" stroke-width="1"></path><text x="21" y="16" style="color:#333333;font-size:13px;font-weight:bold;cursor:pointer;fill:#333333;" text-anchor="start" ><tspan>Unique Visitors</tspan></text></g></g></g></g><g class="highcharts-axis-labels highcharts-xaxis-labels" ><text x="55.3" style="color:#6e6e70;cursor:default;font-size:11px;fill:#6e6e70;width:103px;text-overflow:clip;" text-anchor="start" transform="translate(0,0)" y="382" opacity="1"><tspan>11. Mar</tspan></text><text x="184.4" style="color:#6e6e70;cursor:default;font-size:11px;fill:#6e6e70;width:103px;text-overflow:clip;" text-anchor="start" transform="translate(0,0)" y="382" opacity="1"><tspan>18. Mar</tspan></text><text x="313.4" style="color:#6e6e70;cursor:default;font-size:11px;fill:#6e6e70;width:103px;text-overflow:clip;" text-anchor="start" transform="translate(0,0)" y="382" opacity="1"><tspan>25. Mar</tspan></text><text x="442.4" style="color:#6e6e70;cursor:default;font-size:11px;fill:#6e6e70;width:103px;text-overflow:clip;" text-anchor="start" transform="translate(0,0)" y="382" opacity="1"><tspan>1. Apr</tspan></text><text x="571.4" style="color:#6e6e70;cursor:default;font-size:11px;fill:#6e6e70;width:103px;text-overflow:clip;" text-anchor="start" transform="translate(0,0)" y="382" opacity="1"><tspan>8. Apr</tspan></text></g><g class="highcharts-axis-labels highcharts-yaxis-labels" ><text x="0" style="color:#6e6e70;cursor:default;font-size:11px;fill:#6e6e70;width:183px;text-overflow:clip;" text-anchor="start" transform="translate(0,0)" y="-9999">0</text><text x="13" style="color:#6e6e70;cursor:default;font-size:11px;fill:#6e6e70;width:183px;text-overflow:clip;" text-anchor="start" transform="translate(0,0)" y="336" opacity="1"><tspan>5 000</tspan></text><text x="13" style="color:#6e6e70;cursor:default;font-size:11px;fill:#6e6e70;width:183px;text-overflow:clip;" text-anchor="start" transform="translate(0,0)" y="270" opacity="1"><tspan>10 000</tspan></text><text x="13" style="color:#6e6e70;cursor:default;font-size:11px;fill:#6e6e70;width:183px;text-overflow:clip;" text-anchor="start" transform="translate(0,0)" y="205" opacity="1"><tspan>15 000</tspan></text><text x="13" style="color:#6e6e70;cursor:default;font-size:11px;fill:#6e6e70;width:183px;text-overflow:clip;" text-anchor="start" transform="translate(0,0)" y="139" opacity="1"><tspan>20 000</tspan></text><text x="13" style="color:#6e6e70;cursor:default;font-size:11px;fill:#6e6e70;width:183px;text-overflow:clip;" text-anchor="start" transform="translate(0,0)" y="74" opacity="1"><tspan>25 000</tspan></text></g><g class="highcharts-axis-labels highcharts-yaxis-labels" ><text x="0" style="color:#6e6e70;cursor:default;font-size:11px;fill:#6e6e70;width:183px;text-overflow:clip;" text-anchor="end" transform="translate(0,0)" y="-9999">0</text><text x="571" style="color:#6e6e70;cursor:default;font-size:11px;fill:#6e6e70;width:183px;text-overflow:clip;" text-anchor="end" transform="translate(0,0)" y="336" opacity="1"><tspan>5 000</tspan></text><text x="571" style="color:#6e6e70;cursor:default;font-size:11px;fill:#6e6e70;width:183px;text-overflow:clip;" text-anchor="end" transform="translate(0,0)" y="270" opacity="1"><tspan>10 000</tspan></text><text x="571" style="color:#6e6e70;cursor:default;font-size:11px;fill:#6e6e70;width:183px;text-overflow:clip;" text-anchor="end" transform="translate(0,0)" y="205" opacity="1"><tspan>15 000</tspan></text><text x="571" style="color:#6e6e70;cursor:default;font-size:11px;fill:#6e6e70;width:183px;text-overflow:clip;" text-anchor="end" transform="translate(0,0)" y="139" opacity="1"><tspan>20 000</tspan></text><text x="571" style="color:#6e6e70;cursor:default;font-size:11px;fill:#6e6e70;width:183px;text-overflow:clip;" text-anchor="end" transform="translate(0,0)" y="74" opacity="1"><tspan>25 000</tspan></text></g><g class="highcharts-tooltip"  style="cursor:default;padding:0;white-space:nowrap;" transform="translate(0,-9999)"><path fill="none" d="M 3 0 L 13 0 C 16 0 16 0 16 3 L 16 13 C 16 16 16 16 13 16 L 3 16 C 0 16 0 16 0 13 L 0 3 C 0 0 0 0 3 0"  stroke="black" stroke-opacity="0.0" stroke-width="5" transform="translate(1, 1)"></path><path fill="none" d="M 3 0 L 13 0 C 16 0 16 0 16 3 L 16 13 C 16 16 16 16 13 16 L 3 16 C 0 16 0 16 0 13 L 0 3 C 0 0 0 0 3 0"  stroke="black" stroke-opacity="0.0" stroke-width="3" transform="translate(1, 1)"></path><path fill="none" d="M 3 0 L 13 0 C 16 0 16 0 16 3 L 16 13 C 16 16 16 16 13 16 L 3 16 C 0 16 0 16 0 13 L 0 3 C 0 0 0 0 3 0"  stroke="black" stroke-opacity="0.1" stroke-width="1" transform="translate(1, 1)"></path><path fill="rgb(249, 249, 249)" fill-opacity=" .85" d="M 3 0 L 13 0 C 16 0 16 0 16 3 L 16 13 C 16 16 16 16 13 16 L 3 16 C 0 16 0 16 0 13 L 0 3 C 0 0 0 0 3 0"></path><text x="8"  style="font-size:12px;color:#333333;fill:#333333;" transform="translate(0,20)"></text></g></svg>