<svg version="1.1" style="font-family: signika, serif; font-size: 12px; background-image: url(http://www.highcharts.com/samples/graphics/sand.png); background-attachment: initial; background-origin: initial; background-clip: initial; background-color: initial; background-position: initial initial; background-repeat: initial initial; " xmlns="http://www.w3.org/2000/svg" width="584" height="400" viewBox="0 0 584 400" xmlns:xlink="http://www.w3.org/1999/xlink"><style type="text/css"><![CDATA[@import url(http://fonts.googleapis.com/css?family=Signika:700);]]></style><desc>Created with Highcharts 4.1.4</desc><defs><clipPath id="highcharts-1"><rect x="0" y="0" width="403" height="306"></rect></clipPath><clipPath id="highcharts-2"><rect x="-99" y="-58" width="502" height="400"></rect></clipPath><clipPath id="highcharts-3"><rect x="0" y="0" width="403" height="306"></rect></clipPath></defs><path fill="none" d="M 61 320.5 L 464 320.5" stroke="#808080" stroke-width="1"></path><g class="highcharts-grid" ></g><g class="highcharts-grid" ><path fill="none" d="M 61 364.5 L 464 364.5" stroke="#D8D8D8" stroke-width="1"  opacity="1"></path><path fill="none" d="M 61 320.5 L 464 320.5" stroke="#D8D8D8" stroke-width="1"  opacity="1"></path><path fill="none" d="M 61 277.5 L 464 277.5" stroke="#D8D8D8" stroke-width="1"  opacity="1"></path><path fill="none" d="M 61 233.5 L 464 233.5" stroke="#D8D8D8" stroke-width="1"  opacity="1"></path><path fill="none" d="M 61 189.5 L 464 189.5" stroke="#D8D8D8" stroke-width="1"  opacity="1"></path><path fill="none" d="M 61 145.5 L 464 145.5" stroke="#D8D8D8" stroke-width="1"  opacity="1"></path><path fill="none" d="M 61 102.5 L 464 102.5" stroke="#D8D8D8" stroke-width="1"  opacity="1"></path><path fill="none" d="M 61 58.5 L 464 58.5" stroke="#D8D8D8" stroke-width="1"  opacity="1"></path></g><g class="highcharts-axis" ><path fill="none" d="M 94.5 364 L 94.5 374" stroke="#C0D0E0" stroke-width="1" opacity="1"></path><path fill="none" d="M 127.5 364 L 127.5 374" stroke="#C0D0E0" stroke-width="1" opacity="1"></path><path fill="none" d="M 161.5 364 L 161.5 374" stroke="#C0D0E0" stroke-width="1" opacity="1"></path><path fill="none" d="M 194.5 364 L 194.5 374" stroke="#C0D0E0" stroke-width="1" opacity="1"></path><path fill="none" d="M 228.5 364 L 228.5 374" stroke="#C0D0E0" stroke-width="1" opacity="1"></path><path fill="none" d="M 262.5 364 L 262.5 374" stroke="#C0D0E0" stroke-width="1" opacity="1"></path><path fill="none" d="M 295.5 364 L 295.5 374" stroke="#C0D0E0" stroke-width="1" opacity="1"></path><path fill="none" d="M 329.5 364 L 329.5 374" stroke="#C0D0E0" stroke-width="1" opacity="1"></path><path fill="none" d="M 362.5 364 L 362.5 374" stroke="#C0D0E0" stroke-width="1" opacity="1"></path><path fill="none" d="M 396.5 364 L 396.5 374" stroke="#C0D0E0" stroke-width="1" opacity="1"></path><path fill="none" d="M 429.5 364 L 429.5 374" stroke="#C0D0E0" stroke-width="1" opacity="1"></path><path fill="none" d="M 463.5 364 L 463.5 374" stroke="#C0D0E0" stroke-width="1" opacity="1"></path><path fill="none" d="M 60.5 364 L 60.5 374" stroke="#C0D0E0" stroke-width="1" opacity="1"></path><path fill="none" d="M 61 364.5 L 464 364.5" stroke="#C0D0E0" stroke-width="1"  visibility="visible"></path></g><g class="highcharts-axis" ><text x="24"  text-anchor="middle" transform="translate(0,0) rotate(270 24 211)" class=" highcharts-yaxis-title" style="color:#707070;fill:#707070;" visibility="visible" y="211"><tspan>Temperature (°C)</tspan></text></g><g class="highcharts-series-group" ><g class="highcharts-series" visibility="visible"  transform="translate(61,58) scale(1 1)" clip-path="url(#highcharts-3)"><path fill="none" d="M 16.7 201.0 L 50.3 201.9 L 83.9 179.2 L 117.5 135.5 L 151.1 103.1 L 184.7 74.3 L 218.2 41.9 L 251.8 30.6 L 285.4 58.5 L 319.0 102.2 L 352.6 140.7 L 386.2 178.3" stroke="black" stroke-width="5"  stroke-linejoin="round" stroke-linecap="round"  stroke-opacity="0.0" transform="translate(1, 1)"></path><path fill="none" d="M 16.7 201.0 L 50.3 201.9 L 83.9 179.2 L 117.5 135.5 L 151.1 103.1 L 184.7 74.3 L 218.2 41.9 L 251.8 30.6 L 285.4 58.5 L 319.0 102.2 L 352.6 140.7 L 386.2 178.3" stroke="black" stroke-width="3"  stroke-linejoin="round" stroke-linecap="round"  stroke-opacity="0.0" transform="translate(1, 1)"></path><path fill="none" d="M 16.7 201.0 L 50.3 201.9 L 83.9 179.2 L 117.5 135.5 L 151.1 103.1 L 184.7 74.3 L 218.2 41.9 L 251.8 30.6 L 285.4 58.5 L 319.0 102.2 L 352.6 140.7 L 386.2 178.3" stroke="black" stroke-width="1"  stroke-linejoin="round" stroke-linecap="round"  stroke-opacity="0.1" transform="translate(1, 1)"></path><path fill="none" d="M 16.7 201.0 L 50.3 201.9 L 83.9 179.2 L 117.5 135.5 L 151.1 103.1 L 184.7 74.3 L 218.2 41.9 L 251.8 30.6 L 285.4 58.5 L 319.0 102.2 L 352.6 140.7 L 386.2 178.3" stroke="#f45b5b" stroke-width="2"  stroke-linejoin="round" stroke-linecap="round"></path><path fill="none" d="M 6.7 201.0 L 16.7 201.0 L 50.3 201.9 L 83.9 179.2 L 117.5 135.5 L 151.1 103.1 L 184.7 74.3 L 218.2 41.9 L 251.8 30.6 L 285.4 58.5 L 319.0 102.2 L 352.6 140.7 L 386.2 178.3 L 396.2 178.3" stroke-linejoin="round" visibility="visible" stroke="rgb(192,192,192)" stroke-opacity="0.0" stroke-width="22"  class=" highcharts-tracker" style=""></path></g><g class="highcharts-markers highcharts-tracker" visibility="visible"  transform="translate(61,58) scale(1 1)" clip-path="url(#highcharts-2)" style=""><path fill="#f45b5b" d="M 386 174.3 C 391.3 174.3 391.3 182.3 386 182.3 C 380.6 182.3 380.6 174.3 386 174.3 Z"></path><path fill="#f45b5b" d="M 352 136.7 C 357.3 136.7 357.3 144.7 352 144.7 C 346.6 144.7 346.6 136.7 352 136.7 Z"></path><path fill="#f45b5b" d="M 319 98.2 C 324.3 98.2 324.3 106.2 319 106.2 C 313.6 106.2 313.6 98.2 319 98.2 Z"></path><path fill="#f45b5b" d="M 285 54.5 C 290.3 54.5 290.3 62.5 285 62.5 C 279.6 62.5 279.6 54.5 285 54.5 Z"></path><path fill="#f45b5b" d="M 251 26.6 C 256.3 26.6 256.3 34.6 251 34.6 C 245.6 34.6 245.6 26.6 251 26.6 Z"></path><path fill="#f45b5b" d="M 218 37.9 C 223.3 37.9 223.3 45.9 218 45.9 C 212.6 45.9 212.6 37.9 218 37.9 Z"></path><path fill="#f45b5b" d="M 184 70.3 C 189.3 70.3 189.3 78.3 184 78.3 C 178.6 78.3 178.6 70.3 184 70.3 Z"></path><path fill="#f45b5b" d="M 151 99.1 C 156.3 99.1 156.3 107.1 151 107.1 C 145.6 107.1 145.6 99.1 151 99.1 Z"></path><path fill="#f45b5b" d="M 117 131.5 C 122.3 131.5 122.3 139.5 117 139.5 C 111.6 139.5 111.6 131.5 117 131.5 Z"></path><path fill="#f45b5b" d="M 83 175.2 C 88.3 175.2 88.3 183.2 83 183.2 C 77.6 183.2 77.6 175.2 83 175.2 Z"></path><path fill="#f45b5b" d="M 50 197.9 C 55.3 197.9 55.3 205.9 50 205.9 C 44.6 205.9 44.6 197.9 50 197.9 Z"></path><path fill="#f45b5b" d="M 16 197.0 C 21.3 197.0 21.3 205.0 16 205.0 C 10.6 205.0 10.6 197.0 16 197.0 Z"></path></g><g class="highcharts-series" visibility="visible"  transform="translate(61,58) scale(1 1)" clip-path="url(#highcharts-3)"><path fill="none" d="M 16.7 264.0 L 50.3 255.2 L 83.9 212.4 L 117.5 163.4 L 151.1 113.6 L 184.7 69.9 L 218.2 45.4 L 251.8 51.5 L 285.4 86.5 L 319.0 139.0 L 352.6 187.0 L 386.2 240.4" stroke="black" stroke-width="5"  stroke-linejoin="round" stroke-linecap="round"  stroke-opacity="0.0" transform="translate(1, 1)"></path><path fill="none" d="M 16.7 264.0 L 50.3 255.2 L 83.9 212.4 L 117.5 163.4 L 151.1 113.6 L 184.7 69.9 L 218.2 45.4 L 251.8 51.5 L 285.4 86.5 L 319.0 139.0 L 352.6 187.0 L 386.2 240.4" stroke="black" stroke-width="3"  stroke-linejoin="round" stroke-linecap="round"  stroke-opacity="0.0" transform="translate(1, 1)"></path><path fill="none" d="M 16.7 264.0 L 50.3 255.2 L 83.9 212.4 L 117.5 163.4 L 151.1 113.6 L 184.7 69.9 L 218.2 45.4 L 251.8 51.5 L 285.4 86.5 L 319.0 139.0 L 352.6 187.0 L 386.2 240.4" stroke="black" stroke-width="1"  stroke-linejoin="round" stroke-linecap="round"  stroke-opacity="0.1" transform="translate(1, 1)"></path><path fill="none" d="M 16.7 264.0 L 50.3 255.2 L 83.9 212.4 L 117.5 163.4 L 151.1 113.6 L 184.7 69.9 L 218.2 45.4 L 251.8 51.5 L 285.4 86.5 L 319.0 139.0 L 352.6 187.0 L 386.2 240.4" stroke="#8085e9" stroke-width="2"  stroke-linejoin="round" stroke-linecap="round"></path><path fill="none" d="M 6.7 264.0 L 16.7 264.0 L 50.3 255.2 L 83.9 212.4 L 117.5 163.4 L 151.1 113.6 L 184.7 69.9 L 218.2 45.4 L 251.8 51.5 L 285.4 86.5 L 319.0 139.0 L 352.6 187.0 L 386.2 240.4 L 396.2 240.4" stroke-linejoin="round" visibility="visible" stroke="rgb(192,192,192)" stroke-opacity="0.0" stroke-width="22"  class=" highcharts-tracker" style=""></path></g><g class="highcharts-markers highcharts-tracker" visibility="visible"  transform="translate(61,58) scale(1 1)" clip-path="url(#highcharts-2)" style=""><path fill="#8085e9" d="M 386 236.4 L 390 240.4 386 244.4 382 240.4 Z"></path><path fill="#8085e9" d="M 352 183.0 L 356 187.0 352 191.0 348 187.0 Z"></path><path fill="#8085e9" d="M 319 135.0 L 323 139.0 319 143.0 315 139.0 Z"></path><path fill="#8085e9" d="M 285 82.5 L 289 86.5 285 90.5 281 86.5 Z"></path><path fill="#8085e9" d="M 251 47.5 L 255 51.5 251 55.5 247 51.5 Z"></path><path fill="#8085e9" d="M 218 41.4 L 222 45.4 218 49.4 214 45.4 Z"></path><path fill="#8085e9" d="M 184 65.9 L 188 69.9 184 73.9 180 69.9 Z"></path><path fill="#8085e9" d="M 151 109.6 L 155 113.6 151 117.6 147 113.6 Z"></path><path fill="#8085e9" d="M 117 159.4 L 121 163.4 117 167.4 113 163.4 Z"></path><path fill="#8085e9" d="M 83 208.4 L 87 212.4 83 216.4 79 212.4 Z"></path><path fill="#8085e9" d="M 50 251.2 L 54 255.2 50 259.2 46 255.2 Z"></path><path fill="#8085e9" d="M 16 260.0 L 20 264.0 16 268.0 12 264.0 Z"></path></g><g class="highcharts-series" visibility="visible"  transform="translate(61,58) scale(1 1)" clip-path="url(#highcharts-3)"><path fill="none" d="M 16.7 270.1 L 50.3 257.0 L 83.9 231.6 L 117.5 188.8 L 151.1 144.2 L 184.7 113.6 L 218.2 99.6 L 251.8 105.7 L 285.4 137.2 L 319.0 183.6 L 352.6 228.1 L 386.2 253.5" stroke="black" stroke-width="5"  stroke-linejoin="round" stroke-linecap="round"  stroke-opacity="0.0" transform="translate(1, 1)"></path><path fill="none" d="M 16.7 270.1 L 50.3 257.0 L 83.9 231.6 L 117.5 188.8 L 151.1 144.2 L 184.7 113.6 L 218.2 99.6 L 251.8 105.7 L 285.4 137.2 L 319.0 183.6 L 352.6 228.1 L 386.2 253.5" stroke="black" stroke-width="3"  stroke-linejoin="round" stroke-linecap="round"  stroke-opacity="0.0" transform="translate(1, 1)"></path><path fill="none" d="M 16.7 270.1 L 50.3 257.0 L 83.9 231.6 L 117.5 188.8 L 151.1 144.2 L 184.7 113.6 L 218.2 99.6 L 251.8 105.7 L 285.4 137.2 L 319.0 183.6 L 352.6 228.1 L 386.2 253.5" stroke="black" stroke-width="1"  stroke-linejoin="round" stroke-linecap="round"  stroke-opacity="0.1" transform="translate(1, 1)"></path><path fill="none" d="M 16.7 270.1 L 50.3 257.0 L 83.9 231.6 L 117.5 188.8 L 151.1 144.2 L 184.7 113.6 L 218.2 99.6 L 251.8 105.7 L 285.4 137.2 L 319.0 183.6 L 352.6 228.1 L 386.2 253.5" stroke="#8d4654" stroke-width="2"  stroke-linejoin="round" stroke-linecap="round"></path><path fill="none" d="M 6.7 270.1 L 16.7 270.1 L 50.3 257.0 L 83.9 231.6 L 117.5 188.8 L 151.1 144.2 L 184.7 113.6 L 218.2 99.6 L 251.8 105.7 L 285.4 137.2 L 319.0 183.6 L 352.6 228.1 L 386.2 253.5 L 396.2 253.5" stroke-linejoin="round" visibility="visible" stroke="rgb(192,192,192)" stroke-opacity="0.0" stroke-width="22"  class=" highcharts-tracker" style=""></path></g><g class="highcharts-markers highcharts-tracker" visibility="visible"  transform="translate(61,58) scale(1 1)" clip-path="url(#highcharts-2)" style=""><path fill="#8d4654" d="M 382 249.5 L 390 249.5 390 257.5 382 257.5 Z"></path><path fill="#8d4654" d="M 348 224.1 L 356 224.1 356 232.1 348 232.1 Z"></path><path fill="#8d4654" d="M 315 179.6 L 323 179.6 323 187.6 315 187.6 Z"></path><path fill="#8d4654" d="M 281 133.2 L 289 133.2 289 141.2 281 141.2 Z"></path><path fill="#8d4654" d="M 247 101.7 L 255 101.7 255 109.7 247 109.7 Z"></path><path fill="#8d4654" d="M 214 95.6 L 222 95.6 222 103.6 214 103.6 Z"></path><path fill="#8d4654" d="M 180 109.6 L 188 109.6 188 117.6 180 117.6 Z"></path><path fill="#8d4654" d="M 147 140.2 L 155 140.2 155 148.2 147 148.2 Z"></path><path fill="#8d4654" d="M 113 184.8 L 121 184.8 121 192.8 113 192.8 Z"></path><path fill="#8d4654" d="M 79 227.6 L 87 227.6 87 235.6 79 235.6 Z"></path><path fill="#8d4654" d="M 46 253.0 L 54 253.0 54 261.0 46 261.0 Z"></path><path fill="#8d4654" d="M 12 266.1 L 20 266.1 20 274.1 12 274.1 Z"></path></g><g class="highcharts-series" visibility="visible"  transform="translate(61,58) scale(1 1)" clip-path="url(#highcharts-3)"><path fill="none" d="M 16.7 228.1 L 50.3 225.5 L 83.9 212.4 L 117.5 187.9 L 151.1 158.2 L 184.7 129.3 L 218.2 113.6 L 251.8 117.1 L 285.4 138.1 L 319.0 172.2 L 352.6 204.5 L 386.2 220.3" stroke="black" stroke-width="5"  stroke-linejoin="round" stroke-linecap="round"  stroke-opacity="0.0" transform="translate(1, 1)"></path><path fill="none" d="M 16.7 228.1 L 50.3 225.5 L 83.9 212.4 L 117.5 187.9 L 151.1 158.2 L 184.7 129.3 L 218.2 113.6 L 251.8 117.1 L 285.4 138.1 L 319.0 172.2 L 352.6 204.5 L 386.2 220.3" stroke="black" stroke-width="3"  stroke-linejoin="round" stroke-linecap="round"  stroke-opacity="0.0" transform="translate(1, 1)"></path><path fill="none" d="M 16.7 228.1 L 50.3 225.5 L 83.9 212.4 L 117.5 187.9 L 151.1 158.2 L 184.7 129.3 L 218.2 113.6 L 251.8 117.1 L 285.4 138.1 L 319.0 172.2 L 352.6 204.5 L 386.2 220.3" stroke="black" stroke-width="1"  stroke-linejoin="round" stroke-linecap="round"  stroke-opacity="0.1" transform="translate(1, 1)"></path><path fill="none" d="M 16.7 228.1 L 50.3 225.5 L 83.9 212.4 L 117.5 187.9 L 151.1 158.2 L 184.7 129.3 L 218.2 113.6 L 251.8 117.1 L 285.4 138.1 L 319.0 172.2 L 352.6 204.5 L 386.2 220.3" stroke="#7798BF" stroke-width="2"  stroke-linejoin="round" stroke-linecap="round"></path><path fill="none" d="M 6.7 228.1 L 16.7 228.1 L 50.3 225.5 L 83.9 212.4 L 117.5 187.9 L 151.1 158.2 L 184.7 129.3 L 218.2 113.6 L 251.8 117.1 L 285.4 138.1 L 319.0 172.2 L 352.6 204.5 L 386.2 220.3 L 396.2 220.3" stroke-linejoin="round" visibility="visible" stroke="rgb(192,192,192)" stroke-opacity="0.0" stroke-width="22"  class=" highcharts-tracker" style=""></path></g><g class="highcharts-markers highcharts-tracker" visibility="visible"  transform="translate(61,58) scale(1 1)" clip-path="url(#highcharts-2)" style=""><path fill="#7798BF" d="M 386 216.3 L 390 224.3 382 224.3 Z"></path><path fill="#7798BF" d="M 352 200.5 L 356 208.5 348 208.5 Z"></path><path fill="#7798BF" d="M 319 168.2 L 323 176.2 315 176.2 Z"></path><path fill="#7798BF" d="M 285 134.1 L 289 142.1 281 142.1 Z"></path><path fill="#7798BF" d="M 251 113.1 L 255 121.1 247 121.1 Z"></path><path fill="#7798BF" d="M 218 109.6 L 222 117.6 214 117.6 Z"></path><path fill="#7798BF" d="M 184 125.3 L 188 133.3 180 133.3 Z"></path><path fill="#7798BF" d="M 151 154.2 L 155 162.2 147 162.2 Z"></path><path fill="#7798BF" d="M 117 183.9 L 121 191.9 113 191.9 Z"></path><path fill="#7798BF" d="M 83 208.4 L 87 216.4 79 216.4 Z"></path><path fill="#7798BF" d="M 50 221.5 L 54 229.5 46 229.5 Z"></path><path fill="#7798BF" d="M 16 224.1 L 20 232.1 12 232.1 Z"></path></g></g><text x="272" text-anchor="middle" class="highcharts-title"  style="color:black;font-size:16px;font-weight:bold;fill:black;width:520px;" y="22"><tspan>Monthly Average Temperature</tspan></text><text x="272" text-anchor="middle" class="highcharts-subtitle"  style="color:black;fill:black;width:520px;" y="43"><tspan>Source: WorldClimate.com</tspan></text><g class="highcharts-legend"  transform="translate(476,160)"><g ><g><g class="highcharts-legend-item"  transform="translate(8,3)"><path fill="none" d="M 0 12 L 16 12" stroke="#f45b5b" stroke-width="2"></path><path fill="#f45b5b" d="M 8 8 C 13.3 8 13.3 16 8 16 C 2.6 16 2.6 8 8 8 Z"></path><text x="21" style="color:#333333;font-size:13px;font-weight:bold;cursor:pointer;fill:#333333;" text-anchor="start"  y="16">Tokyo</text></g><g class="highcharts-legend-item"  transform="translate(8,19)"><path fill="none" d="M 0 12 L 16 12" stroke="#8085e9" stroke-width="2"></path><path fill="#8085e9" d="M 8 8 L 12 12 8 16 4 12 Z"></path><text x="21" y="16" style="color:#333333;font-size:13px;font-weight:bold;cursor:pointer;fill:#333333;" text-anchor="start" ><tspan>New York</tspan></text></g><g class="highcharts-legend-item"  transform="translate(8,35)"><path fill="none" d="M 0 12 L 16 12" stroke="#8d4654" stroke-width="2"></path><path fill="#8d4654" d="M 4 8 L 12 8 12 16 4 16 Z"></path><text x="21" y="16" style="color:#333333;font-size:13px;font-weight:bold;cursor:pointer;fill:#333333;" text-anchor="start" >Berlin</text></g><g class="highcharts-legend-item"  transform="translate(8,51)"><path fill="none" d="M 0 12 L 16 12" stroke="#7798BF" stroke-width="2"></path><path fill="#7798BF" d="M 8 8 L 12 16 4 16 Z"></path><text x="21" y="16" style="color:#333333;font-size:13px;font-weight:bold;cursor:pointer;fill:#333333;" text-anchor="start" >London</text></g></g></g></g><g class="highcharts-axis-labels highcharts-xaxis-labels" ><text x="77.7" style="color:#6e6e70;cursor:default;font-size:11px;fill:#6e6e70;" text-anchor="middle" transform="translate(0,0)" y="383" opacity="1">Jan</text><text x="111.3" style="color:#6e6e70;cursor:default;font-size:11px;fill:#6e6e70;" text-anchor="middle" transform="translate(0,0)" y="383" opacity="1">Feb</text><text x="144.9" style="color:#6e6e70;cursor:default;font-size:11px;fill:#6e6e70;" text-anchor="middle" transform="translate(0,0)" y="383" opacity="1">Mar</text><text x="178.5" style="color:#6e6e70;cursor:default;font-size:11px;fill:#6e6e70;" text-anchor="middle" transform="translate(0,0)" y="383" opacity="1">Apr</text><text x="212.1" style="color:#6e6e70;cursor:default;font-size:11px;fill:#6e6e70;" text-anchor="middle" transform="translate(0,0)" y="383" opacity="1">May</text><text x="245.7" style="color:#6e6e70;cursor:default;font-size:11px;fill:#6e6e70;" text-anchor="middle" transform="translate(0,0)" y="383" opacity="1">Jun</text><text x="279.2" style="color:#6e6e70;cursor:default;font-size:11px;fill:#6e6e70;" text-anchor="middle" transform="translate(0,0)" y="383" opacity="1">Jul</text><text x="312.8" style="color:#6e6e70;cursor:default;font-size:11px;fill:#6e6e70;" text-anchor="middle" transform="translate(0,0)" y="383" opacity="1">Aug</text><text x="346.4" style="color:#6e6e70;cursor:default;font-size:11px;fill:#6e6e70;" text-anchor="middle" transform="translate(0,0)" y="383" opacity="1">Sep</text><text x="380.0" style="color:#6e6e70;cursor:default;font-size:11px;fill:#6e6e70;" text-anchor="middle" transform="translate(0,0)" y="383" opacity="1">Oct</text><text x="413.6" style="color:#6e6e70;cursor:default;font-size:11px;fill:#6e6e70;" text-anchor="middle" transform="translate(0,0)" y="383" opacity="1">Nov</text><text x="447.2" style="color:#6e6e70;cursor:default;font-size:11px;fill:#6e6e70;" text-anchor="middle" transform="translate(0,0)" y="383" opacity="1">Dec</text></g><g class="highcharts-axis-labels highcharts-yaxis-labels" ><text x="46" style="color:#6e6e70;cursor:default;font-size:11px;fill:#6e6e70;width:183px;text-overflow:clip;" text-anchor="end" transform="translate(0,0)" y="369" opacity="1">-5</text><text x="46" style="color:#6e6e70;cursor:default;font-size:11px;fill:#6e6e70;width:183px;text-overflow:clip;" text-anchor="end" transform="translate(0,0)" y="325" opacity="1">0</text><text x="46" style="color:#6e6e70;cursor:default;font-size:11px;fill:#6e6e70;width:183px;text-overflow:clip;" text-anchor="end" transform="translate(0,0)" y="281" opacity="1">5</text><text x="46" style="color:#6e6e70;cursor:default;font-size:11px;fill:#6e6e70;width:183px;text-overflow:clip;" text-anchor="end" transform="translate(0,0)" y="237" opacity="1">10</text><text x="46" style="color:#6e6e70;cursor:default;font-size:11px;fill:#6e6e70;width:183px;text-overflow:clip;" text-anchor="end" transform="translate(0,0)" y="194" opacity="1">15</text><text x="46" style="color:#6e6e70;cursor:default;font-size:11px;fill:#6e6e70;width:183px;text-overflow:clip;" text-anchor="end" transform="translate(0,0)" y="150" opacity="1">20</text><text x="46" style="color:#6e6e70;cursor:default;font-size:11px;fill:#6e6e70;width:183px;text-overflow:clip;" text-anchor="end" transform="translate(0,0)" y="106" opacity="1">25</text><text x="46" style="color:#6e6e70;cursor:default;font-size:11px;fill:#6e6e70;width:183px;text-overflow:clip;" text-anchor="end" transform="translate(0,0)" y="63" opacity="1">30</text></g><g class="highcharts-tooltip"  style="cursor:default;padding:0;white-space:nowrap;" transform="translate(0,-9999)"><path fill="none" d="M 3 0 L 13 0 C 16 0 16 0 16 3 L 16 13 C 16 16 16 16 13 16 L 3 16 C 0 16 0 16 0 13 L 0 3 C 0 0 0 0 3 0"  stroke="black" stroke-opacity="0.0" stroke-width="5" transform="translate(1, 1)"></path><path fill="none" d="M 3 0 L 13 0 C 16 0 16 0 16 3 L 16 13 C 16 16 16 16 13 16 L 3 16 C 0 16 0 16 0 13 L 0 3 C 0 0 0 0 3 0"  stroke="black" stroke-opacity="0.0" stroke-width="3" transform="translate(1, 1)"></path><path fill="none" d="M 3 0 L 13 0 C 16 0 16 0 16 3 L 16 13 C 16 16 16 16 13 16 L 3 16 C 0 16 0 16 0 13 L 0 3 C 0 0 0 0 3 0"  stroke="black" stroke-opacity="0.1" stroke-width="1" transform="translate(1, 1)"></path><path fill="rgb(249, 249, 249)" fill-opacity=" .85" d="M 3 0 L 13 0 C 16 0 16 0 16 3 L 16 13 C 16 16 16 16 13 16 L 3 16 C 0 16 0 16 0 13 L 0 3 C 0 0 0 0 3 0"></path><text x="8"  style="font-size:12px;color:#333333;fill:#333333;" transform="translate(0,20)"></text></g></svg>