<svg version="1.1" style="font-family: signika, serif; font-size: 12px; background-image: url(http://www.highcharts.com/samples/graphics/sand.png); background-attachment: initial; background-origin: initial; background-clip: initial; background-color: initial; background-position: initial initial; background-repeat: initial initial; " xmlns="http://www.w3.org/2000/svg" width="584" height="400" viewBox="0 0 584 400" xmlns:xlink="http://www.w3.org/1999/xlink"><style type="text/css"><![CDATA[@import url(http://fonts.googleapis.com/css?family=Signika:700);]]></style><desc>Created with Highcharts 4.1.4</desc><defs><clipPath id="highcharts-1"><rect x="0" y="0" width="507" height="281"></rect></clipPath><clipPath id="highcharts-2"><rect x="-99" y="-44" width="606" height="400"></rect></clipPath><clipPath id="highcharts-3"><rect x="0" y="0" width="507" height="281"></rect></clipPath></defs><g class="highcharts-grid" ></g><g class="highcharts-grid" ><path fill="none" d="M 67 325.5 L 574 325.5" stroke="#E0E0E0" stroke-width="1" opacity="1"></path><path fill="none" d="M 67 304.5 L 574 304.5" stroke="#E0E0E0" stroke-width="1" opacity="1"></path><path fill="none" d="M 67 291.5 L 574 291.5" stroke="#E0E0E0" stroke-width="1" opacity="1"></path><path fill="none" d="M 67 283.5 L 574 283.5" stroke="#E0E0E0" stroke-width="1" opacity="1"></path><path fill="none" d="M 67 276.5 L 574 276.5" stroke="#E0E0E0" stroke-width="1" opacity="1"></path><path fill="none" d="M 67 270.5 L 574 270.5" stroke="#E0E0E0" stroke-width="1" opacity="1"></path><path fill="none" d="M 67 266.5 L 574 266.5" stroke="#E0E0E0" stroke-width="1" opacity="1"></path><path fill="none" d="M 67 262.5 L 574 262.5" stroke="#E0E0E0" stroke-width="1" opacity="1"></path><path fill="none" d="M 67 258.5 L 574 258.5" stroke="#E0E0E0" stroke-width="1" opacity="1"></path><path fill="none" d="M 67 255.5 L 574 255.5" stroke="#E0E0E0" stroke-width="1" opacity="1"></path><path fill="none" d="M 67 234.5 L 574 234.5" stroke="#E0E0E0" stroke-width="1" opacity="1"></path><path fill="none" d="M 67 221.5 L 574 221.5" stroke="#E0E0E0" stroke-width="1" opacity="1"></path><path fill="none" d="M 67 212.5 L 574 212.5" stroke="#E0E0E0" stroke-width="1" opacity="1"></path><path fill="none" d="M 67 206.5 L 574 206.5" stroke="#E0E0E0" stroke-width="1" opacity="1"></path><path fill="none" d="M 67 200.5 L 574 200.5" stroke="#E0E0E0" stroke-width="1" opacity="1"></path><path fill="none" d="M 67 195.5 L 574 195.5" stroke="#E0E0E0" stroke-width="1" opacity="1"></path><path fill="none" d="M 67 191.5 L 574 191.5" stroke="#E0E0E0" stroke-width="1" opacity="1"></path><path fill="none" d="M 67 188.5 L 574 188.5" stroke="#E0E0E0" stroke-width="1" opacity="1"></path><path fill="none" d="M 67 185.5 L 574 185.5" stroke="#E0E0E0" stroke-width="1" opacity="1"></path><path fill="none" d="M 67 163.5 L 574 163.5" stroke="#E0E0E0" stroke-width="1" opacity="1"></path><path fill="none" d="M 67 151.5 L 574 151.5" stroke="#E0E0E0" stroke-width="1" opacity="1"></path><path fill="none" d="M 67 142.5 L 574 142.5" stroke="#E0E0E0" stroke-width="1" opacity="1"></path><path fill="none" d="M 67 135.5 L 574 135.5" stroke="#E0E0E0" stroke-width="1" opacity="1"></path><path fill="none" d="M 67 130.5 L 574 130.5" stroke="#E0E0E0" stroke-width="1" opacity="1"></path><path fill="none" d="M 67 125.5 L 574 125.5" stroke="#E0E0E0" stroke-width="1" opacity="1"></path><path fill="none" d="M 67 121.5 L 574 121.5" stroke="#E0E0E0" stroke-width="1" opacity="1"></path><path fill="none" d="M 67 117.5 L 574 117.5" stroke="#E0E0E0" stroke-width="1" opacity="1"></path><path fill="none" d="M 67 114.5 L 574 114.5" stroke="#E0E0E0" stroke-width="1" opacity="1"></path><path fill="none" d="M 67 93.5 L 574 93.5" stroke="#E0E0E0" stroke-width="1" opacity="1"></path><path fill="none" d="M 67 81.5 L 574 81.5" stroke="#E0E0E0" stroke-width="1" opacity="1"></path><path fill="none" d="M 67 72.5 L 574 72.5" stroke="#E0E0E0" stroke-width="1" opacity="1"></path><path fill="none" d="M 67 65.5 L 574 65.5" stroke="#E0E0E0" stroke-width="1" opacity="1"></path><path fill="none" d="M 67 60.5 L 574 60.5" stroke="#E0E0E0" stroke-width="1" opacity="1"></path><path fill="none" d="M 67 55.5 L 574 55.5" stroke="#E0E0E0" stroke-width="1" opacity="1"></path><path fill="none" d="M 67 51.5 L 574 51.5" stroke="#E0E0E0" stroke-width="1" opacity="1"></path><path fill="none" d="M 67 47.5 L 574 47.5" stroke="#E0E0E0" stroke-width="1" opacity="1"></path><path fill="none" d="M 67 44.5 L 574 44.5" stroke="#E0E0E0" stroke-width="1" opacity="1"></path><path fill="none" d="M 67 325.5 L 574 325.5" stroke="#D8D8D8" stroke-width="1"  opacity="1"></path><path fill="none" d="M 67 255.5 L 574 255.5" stroke="#D8D8D8" stroke-width="1"  opacity="1"></path><path fill="none" d="M 67 185.5 L 574 185.5" stroke="#D8D8D8" stroke-width="1"  opacity="1"></path><path fill="none" d="M 67 114.5 L 574 114.5" stroke="#D8D8D8" stroke-width="1"  opacity="1"></path><path fill="none" d="M 67 43.5 L 574 43.5" stroke="#D8D8D8" stroke-width="1"  opacity="1"></path></g><g class="highcharts-axis" ><path fill="none" d="M 71.5 325 L 71.5 335" stroke="#C0D0E0" stroke-width="1" opacity="1"></path><path fill="none" d="M 126.5 325 L 126.5 335" stroke="#C0D0E0" stroke-width="1" opacity="1"></path><path fill="none" d="M 181.5 325 L 181.5 335" stroke="#C0D0E0" stroke-width="1" opacity="1"></path><path fill="none" d="M 237.5 325 L 237.5 335" stroke="#C0D0E0" stroke-width="1" opacity="1"></path><path fill="none" d="M 292.5 325 L 292.5 335" stroke="#C0D0E0" stroke-width="1" opacity="1"></path><path fill="none" d="M 347.5 325 L 347.5 335" stroke="#C0D0E0" stroke-width="1" opacity="1"></path><path fill="none" d="M 402.5 325 L 402.5 335" stroke="#C0D0E0" stroke-width="1" opacity="1"></path><path fill="none" d="M 458.5 325 L 458.5 335" stroke="#C0D0E0" stroke-width="1" opacity="1"></path><path fill="none" d="M 513.5 325 L 513.5 335" stroke="#C0D0E0" stroke-width="1" opacity="1"></path><path fill="none" d="M 568.5 325 L 568.5 335" stroke="#C0D0E0" stroke-width="1" opacity="1"></path><path fill="none" d="M 67 325.5 L 574 325.5" stroke="#C0D0E0" stroke-width="1"  visibility="visible"></path></g><g class="highcharts-axis" ><text x="24"  text-anchor="middle" transform="translate(0,0) rotate(270 24 184.5)" class=" highcharts-yaxis-title" style="color:#707070;fill:#707070;" visibility="visible" y="184.5">Values</text></g><g class="highcharts-series-group" ><g class="highcharts-series" visibility="visible"  transform="translate(67,44) scale(1 1)" clip-path="url(#highcharts-3)"><path fill="none" d="M 4.9 210.7 L 60.1 189.6 L 115.4 168.4 L 170.6 147.3 L 225.8 126.1 L 281.1 105.0 L 336.3 83.8 L 391.5 62.7 L 446.8 41.5 L 502.0 20.4" stroke="black" stroke-width="5"  stroke-linejoin="round" stroke-linecap="round"  stroke-opacity="0.0" transform="translate(1, 1)"></path><path fill="none" d="M 4.9 210.7 L 60.1 189.6 L 115.4 168.4 L 170.6 147.3 L 225.8 126.1 L 281.1 105.0 L 336.3 83.8 L 391.5 62.7 L 446.8 41.5 L 502.0 20.4" stroke="black" stroke-width="3"  stroke-linejoin="round" stroke-linecap="round"  stroke-opacity="0.0" transform="translate(1, 1)"></path><path fill="none" d="M 4.9 210.7 L 60.1 189.6 L 115.4 168.4 L 170.6 147.3 L 225.8 126.1 L 281.1 105.0 L 336.3 83.8 L 391.5 62.7 L 446.8 41.5 L 502.0 20.4" stroke="black" stroke-width="1"  stroke-linejoin="round" stroke-linecap="round"  stroke-opacity="0.1" transform="translate(1, 1)"></path><path fill="none" d="M 4.9 210.7 L 60.1 189.6 L 115.4 168.4 L 170.6 147.3 L 225.8 126.1 L 281.1 105.0 L 336.3 83.8 L 391.5 62.7 L 446.8 41.5 L 502.0 20.4" stroke="#f45b5b" stroke-width="2"  stroke-linejoin="round" stroke-linecap="round"></path><path fill="none" d="M -5.0 210.7 L 4.9 210.7 L 60.1 189.6 L 115.4 168.4 L 170.6 147.3 L 225.8 126.1 L 281.1 105.0 L 336.3 83.8 L 391.5 62.7 L 446.8 41.5 L 502.0 20.4 L 512.0 20.4" stroke-linejoin="round" visibility="visible" stroke="rgb(192,192,192)" stroke-opacity="0.0" stroke-width="22"  class=" highcharts-tracker" style=""></path></g><g class="highcharts-markers highcharts-tracker" visibility="visible"  transform="translate(67,44) scale(1 1)" clip-path="url(#highcharts-2)" style=""><path fill="#f45b5b" d="M 502 16.4 C 507.3 16.4 507.3 24.4 502 24.4 C 496.6 24.4 496.6 16.4 502 16.4 Z"></path><path fill="#f45b5b" d="M 446 37.5 C 451.3 37.5 451.3 45.5 446 45.5 C 440.6 45.5 440.6 37.5 446 37.5 Z"></path><path fill="#f45b5b" d="M 391 58.7 C 396.3 58.7 396.3 66.7 391 66.7 C 385.6 66.7 385.6 58.7 391 58.7 Z"></path><path fill="#f45b5b" d="M 336 79.8 C 341.3 79.8 341.3 87.8 336 87.8 C 330.6 87.8 330.6 79.8 336 79.8 Z"></path><path fill="#f45b5b" d="M 281 101.0 C 286.3 101.0 286.3 109.0 281 109.0 C 275.6 109.0 275.6 101.0 281 101.0 Z"></path><path fill="#f45b5b" d="M 225 122.1 C 230.3 122.1 230.3 130.1 225 130.1 C 219.6 130.1 219.6 122.1 225 122.1 Z"></path><path fill="#f45b5b" d="M 170 143.3 C 175.3 143.3 175.3 151.3 170 151.3 C 164.6 151.3 164.6 143.3 170 143.3 Z"></path><path fill="#f45b5b" d="M 115 164.4 C 120.3 164.4 120.3 172.4 115 172.4 C 109.6 172.4 109.6 164.4 115 164.4 Z"></path><path fill="#f45b5b" d="M 60 185.6 C 65.3 185.6 65.3 193.6 60 193.6 C 54.6 193.6 54.6 185.6 60 185.6 Z"></path><path fill="#f45b5b" d="M 4 206.7 C 9.3 206.7 9.3 214.7 4 214.7 C -1.3 214.7 -1.3 206.7 4 206.7 Z"></path></g></g><text x="292" text-anchor="middle" class="highcharts-title"  style="color:black;font-size:16px;font-weight:bold;fill:black;width:520px;" y="22"><tspan>Logarithmic axis demo</tspan></text><g class="highcharts-legend"  transform="translate(248,358)"><g ><g><g class="highcharts-legend-item"  transform="translate(8,3)"><path fill="none" d="M 0 12 L 16 12" stroke="#f45b5b" stroke-width="2"></path><path fill="#f45b5b" d="M 8 8 C 13.3 8 13.3 16 8 16 C 2.6 16 2.6 8 8 8 Z"></path><text x="21" style="color:#333333;font-size:13px;font-weight:bold;cursor:pointer;fill:#333333;" text-anchor="start"  y="16"><tspan>Series 1</tspan></text></g></g></g></g><g class="highcharts-axis-labels highcharts-xaxis-labels" ><text x="71.9" style="color:#6e6e70;cursor:default;font-size:11px;fill:#6e6e70;" text-anchor="middle" transform="translate(0,0)" y="344" opacity="1">1</text><text x="127.1" style="color:#6e6e70;cursor:default;font-size:11px;fill:#6e6e70;" text-anchor="middle" transform="translate(0,0)" y="344" opacity="1">2</text><text x="182.4" style="color:#6e6e70;cursor:default;font-size:11px;fill:#6e6e70;" text-anchor="middle" transform="translate(0,0)" y="344" opacity="1">3</text><text x="237.6" style="color:#6e6e70;cursor:default;font-size:11px;fill:#6e6e70;" text-anchor="middle" transform="translate(0,0)" y="344" opacity="1">4</text><text x="292.8" style="color:#6e6e70;cursor:default;font-size:11px;fill:#6e6e70;" text-anchor="middle" transform="translate(0,0)" y="344" opacity="1">5</text><text x="348.1" style="color:#6e6e70;cursor:default;font-size:11px;fill:#6e6e70;" text-anchor="middle" transform="translate(0,0)" y="344" opacity="1">6</text><text x="403.3" style="color:#6e6e70;cursor:default;font-size:11px;fill:#6e6e70;" text-anchor="middle" transform="translate(0,0)" y="344" opacity="1">7</text><text x="458.5" style="color:#6e6e70;cursor:default;font-size:11px;fill:#6e6e70;" text-anchor="middle" transform="translate(0,0)" y="344" opacity="1">8</text><text x="513.8" style="color:#6e6e70;cursor:default;font-size:11px;fill:#6e6e70;" text-anchor="middle" transform="translate(0,0)" y="344" opacity="1">9</text><text x="574" style="color:#6e6e70;cursor:default;font-size:11px;fill:#6e6e70;" text-anchor="end" transform="translate(0,0)" y="344" opacity="1">10</text></g><g class="highcharts-axis-labels highcharts-yaxis-labels" ><text x="52" style="color:#6e6e70;cursor:default;font-size:11px;fill:#6e6e70;width:183px;text-overflow:clip;" text-anchor="end" transform="translate(0,0)" y="330" opacity="1">0.1</text><text x="52" style="color:#6e6e70;cursor:default;font-size:11px;fill:#6e6e70;width:183px;text-overflow:clip;" text-anchor="end" transform="translate(0,0)" y="259" opacity="1">1</text><text x="52" style="color:#6e6e70;cursor:default;font-size:11px;fill:#6e6e70;width:183px;text-overflow:clip;" text-anchor="end" transform="translate(0,0)" y="189" opacity="1">10</text><text x="52" style="color:#6e6e70;cursor:default;font-size:11px;fill:#6e6e70;width:183px;text-overflow:clip;" text-anchor="end" transform="translate(0,0)" y="119" opacity="1">100</text><text x="52" style="color:#6e6e70;cursor:default;font-size:11px;fill:#6e6e70;width:183px;text-overflow:clip;" text-anchor="end" transform="translate(0,0)" y="49" opacity="1">1k</text></g><g class="highcharts-tooltip"  style="cursor:default;padding:0;white-space:nowrap;" transform="translate(0,-9999)"><path fill="none" d="M 3 0 L 13 0 C 16 0 16 0 16 3 L 16 13 C 16 16 16 16 13 16 L 3 16 C 0 16 0 16 0 13 L 0 3 C 0 0 0 0 3 0"  stroke="black" stroke-opacity="0.0" stroke-width="5" transform="translate(1, 1)"></path><path fill="none" d="M 3 0 L 13 0 C 16 0 16 0 16 3 L 16 13 C 16 16 16 16 13 16 L 3 16 C 0 16 0 16 0 13 L 0 3 C 0 0 0 0 3 0"  stroke="black" stroke-opacity="0.0" stroke-width="3" transform="translate(1, 1)"></path><path fill="none" d="M 3 0 L 13 0 C 16 0 16 0 16 3 L 16 13 C 16 16 16 16 13 16 L 3 16 C 0 16 0 16 0 13 L 0 3 C 0 0 0 0 3 0"  stroke="black" stroke-opacity="0.1" stroke-width="1" transform="translate(1, 1)"></path><path fill="rgb(249, 249, 249)" fill-opacity=" .85" d="M 3 0 L 13 0 C 16 0 16 0 16 3 L 16 13 C 16 16 16 16 13 16 L 3 16 C 0 16 0 16 0 13 L 0 3 C 0 0 0 0 3 0"></path><text x="8"  style="font-size:12px;color:#333333;fill:#333333;" transform="translate(0,20)"></text></g></svg>