<svg version="1.1" style="font-family: signika, serif; font-size: 12px; background-image: url(http://www.highcharts.com/samples/graphics/sand.png); background-attachment: initial; background-origin: initial; background-clip: initial; background-color: initial; background-position: initial initial; background-repeat: initial initial; " xmlns="http://www.w3.org/2000/svg" width="584" height="400" viewBox="0 0 584 400" xmlns:xlink="http://www.w3.org/1999/xlink"><style type="text/css"><![CDATA[@import url(http://fonts.googleapis.com/css?family=Signika:700);]]></style><desc>Created with Highcharts 4.1.4</desc><defs><clipPath id="highcharts-1"><rect x="0" y="0" width="503" height="306"></rect></clipPath><clipPath id="highcharts-2"><rect x="-99" y="-58" width="602" height="400"></rect></clipPath><clipPath id="highcharts-3"><rect x="0" y="0" width="503" height="306"></rect></clipPath><linearGradient x1="0" y1="0" x2="0" y2="1" id="highcharts-4"><stop offset="0" stop-color="#f45b5b" stop-opacity="1"></stop><stop offset="1" stop-color="rgb(244,91,91)" stop-opacity="0"></stop></linearGradient></defs><g class="highcharts-grid" ></g><g class="highcharts-grid" ><path fill="none" d="M 71 364.5 L 574 364.5" stroke="#D8D8D8" stroke-width="1"  opacity="1"></path><path fill="none" d="M 71 313.5 L 574 313.5" stroke="#D8D8D8" stroke-width="1"  opacity="1"></path><path fill="none" d="M 71 262.5 L 574 262.5" stroke="#D8D8D8" stroke-width="1"  opacity="1"></path><path fill="none" d="M 71 211.5 L 574 211.5" stroke="#D8D8D8" stroke-width="1"  opacity="1"></path><path fill="none" d="M 71 160.5 L 574 160.5" stroke="#D8D8D8" stroke-width="1"  opacity="1"></path><path fill="none" d="M 71 109.5 L 574 109.5" stroke="#D8D8D8" stroke-width="1"  opacity="1"></path><path fill="none" d="M 71 57.5 L 574 57.5" stroke="#D8D8D8" stroke-width="1"  opacity="1"></path></g><g class="highcharts-axis" ><path fill="none" d="M 75.5 364 L 75.5 374" stroke="#C0D0E0" stroke-width="1" opacity="1"></path><path fill="none" d="M 156.5 364 L 156.5 374" stroke="#C0D0E0" stroke-width="1" opacity="1"></path><path fill="none" d="M 239.5 364 L 239.5 374" stroke="#C0D0E0" stroke-width="1" opacity="1"></path><path fill="none" d="M 321.5 364 L 321.5 374" stroke="#C0D0E0" stroke-width="1" opacity="1"></path><path fill="none" d="M 404.5 364 L 404.5 374" stroke="#C0D0E0" stroke-width="1" opacity="1"></path><path fill="none" d="M 486.5 364 L 486.5 374" stroke="#C0D0E0" stroke-width="1" opacity="1"></path><path fill="none" d="M 569.5 364 L 569.5 374" stroke="#C0D0E0" stroke-width="1" opacity="1"></path><path fill="none" d="M 71 364.5 L 574 364.5" stroke="#C0D0E0" stroke-width="1"  visibility="visible"></path></g><g class="highcharts-axis" ><text x="24"  text-anchor="middle" transform="translate(0,0) rotate(270 24 211)" class=" highcharts-yaxis-title" style="color:#707070;fill:#707070;" visibility="visible" y="211"><tspan>Exchange rate</tspan></text></g><g class="highcharts-series-group" ><g class="highcharts-series" visibility="visible"  transform="translate(71,58) scale(1 1)" clip-path="url(#highcharts-3)"><path fill="url(#highcharts-4)" d="M 4.9 56.5 L 5.3 56.6 L 5.8 56.7 L 6.2 55.9 L 6.7 59.3 L 7.1 75.0 L 7.6 75.6 L 8.0 78.3 L 8.5 78.2 L 8.9 75.6 L 9.4 73.1 L 9.8 73.6 L 10.3 75.8 L 10.7 72.2 L 11.2 77.6 L 11.6 77.6 L 12.1 77.0 L 12.5 74.9 L 13.0 75.3 L 13.4 74.5 L 13.9 74.1 L 14.3 77.1 L 14.8 77.1 L 15.2 84.4 L 15.7 87.8 L 16.1 87.1 L 16.6 85.2 L 17.0 81.6 L 17.5 74.5 L 17.9 74.5 L 18.4 74.5 L 18.8 75.6 L 19.3 76.8 L 19.7 72.8 L 20.2 72.5 L 20.6 69.7 L 21.1 69.3 L 21.5 68.0 L 22.0 66.0 L 22.4 65.5 L 22.9 65.7 L 23.3 65.8 L 23.8 60.8 L 24.2 60.8 L 24.7 60.5 L 25.1 60.8 L 25.6 61.6 L 26.0 59.3 L 26.5 60.2 L 26.9 62.8 L 27.4 62.6 L 27.8 64.0 L 28.3 62.2 L 28.8 61.2 L 29.2 62.3 L 29.7 61.2 L 30.1 58.8 L 30.6 58.8 L 31.0 57.6 L 31.5 58.9 L 31.9 63.2 L 32.4 63.9 L 32.8 69.7 L 33.3 71.0 L 33.7 71.0 L 34.2 71.1 L 34.6 64.3 L 35.1 61.2 L 35.5 62.7 L 36.0 61.2 L 36.4 61.0 L 36.9 60.9 L 37.3 63.1 L 37.8 66.1 L 38.2 69.9 L 38.7 74.1 L 39.1 80.2 L 39.6 80.8 L 40.0 80.8 L 40.5 80.0 L 40.9 77.3 L 41.4 74.1 L 41.8 71.2 L 42.3 66.7 L 42.7 70.1 L 43.2 70.1 L 43.6 70.1 L 44.1 70.7 L 44.5 68.6 L 45.0 73.2 L 45.4 77.5 L 45.9 75.9 L 46.3 75.8 L 46.8 74.1 L 47.2 80.6 L 47.7 86.5 L 48.1 86.8 L 48.6 80.2 L 49.0 74.1 L 49.5 74.1 L 49.9 75.3 L 50.4 76.2 L 50.8 77.5 L 51.3 75.2 L 51.7 75.6 L 52.2 75.3 L 52.6 75.4 L 53.1 81.7 L 53.5 86.3 L 54.0 92.1 L 54.4 91.6 L 54.9 89.8 L 55.3 91.0 L 55.8 91.2 L 56.2 93.4 L 56.7 94.9 L 57.1 97.2 L 57.6 99.6 L 58.0 105.5 L 58.5 110.2 L 58.9 110.0 L 59.4 109.9 L 59.8 108.7 L 60.3 110.3 L 60.7 110.6 L 61.2 115.2 L 61.6 116.1 L 62.1 116.1 L 62.5 116.9 L 63.0 115.5 L 63.4 119.6 L 63.9 118.9 L 64.3 125.8 L 64.8 127.3 L 65.2 128.6 L 65.7 125.7 L 66.1 122.1 L 66.6 123.6 L 67.0 119.5 L 67.5 120.7 L 67.9 119.4 L 68.4 119.3 L 68.8 119.4 L 69.3 124.3 L 69.7 121.2 L 70.2 119.2 L 70.6 119.7 L 71.1 116.7 L 71.5 116.7 L 72.0 117.8 L 72.4 122.6 L 72.9 124.7 L 73.3 120.1 L 73.8 123.9 L 74.2 128.1 L 74.7 128.2 L 75.1 129.9 L 75.6 125.8 L 76.0 121.7 L 76.5 117.2 L 76.9 111.4 L 77.4 110.9 L 77.8 110.8 L 78.3 109.0 L 78.7 106.8 L 79.2 106.9 L 79.6 109.3 L 80.1 111.1 L 80.5 110.8 L 81.0 110.9 L 81.4 108.0 L 81.9 106.7 L 82.3 110.0 L 82.8 110.2 L 83.2 105.2 L 83.7 102.1 L 84.1 102.1 L 84.6 104.6 L 85.0 107.9 L 85.5 106.0 L 85.9 105.1 L 86.4 116.0 L 86.8 120.2 L 87.3 120.2 L 87.7 120.2 L 88.2 121.2 L 88.6 119.0 L 89.1 117.4 L 89.5 120.4 L 90.0 121.4 L 90.4 121.4 L 90.9 119.6 L 91.3 117.5 L 91.8 117.2 L 92.2 114.9 L 92.7 112.8 L 93.2 111.4 L 93.6 111.2 L 94.1 107.4 L 94.5 103.3 L 95.0 103.0 L 95.4 109.4 L 95.9 112.1 L 96.3 114.4 L 96.8 114.4 L 97.2 111.4 L 97.7 109.9 L 98.1 108.4 L 98.6 116.2 L 99.0 115.2 L 99.5 118.5 L 99.9 118.5 L 100.4 118.6 L 100.8 118.7 L 101.3 121.7 L 101.7 119.8 L 102.2 122.6 L 102.6 125.4 L 103.1 125.4 L 103.5 125.2 L 104.0 123.1 L 104.4 123.6 L 104.9 123.9 L 105.3 119.1 L 105.8 115.7 L 106.2 115.7 L 106.7 116.9 L 107.1 117.6 L 107.6 121.4 L 108.0 124.4 L 108.5 122.5 L 108.9 122.3 L 109.4 122.2 L 109.8 125.9 L 110.3 123.9 L 110.7 121.2 L 111.2 120.3 L 111.6 118.8 L 112.1 117.8 L 112.5 117.9 L 113.0 120.3 L 113.4 121.2 L 113.9 122.9 L 114.3 123.0 L 114.8 121.7 L 115.2 123.0 L 115.7 123.0 L 116.1 124.6 L 116.6 123.1 L 117.0 121.5 L 117.5 119.9 L 117.9 115.2 L 118.4 112.8 L 118.8 112.9 L 119.3 114.0 L 119.7 115.1 L 120.2 114.0 L 120.6 115.1 L 121.1 114.4 L 121.5 112.1 L 122.0 112.0 L 122.4 112.4 L 122.9 114.3 L 123.3 113.6 L 123.8 116.4 L 124.2 120.9 L 124.7 119.8 L 125.1 119.7 L 125.6 119.7 L 126.0 116.2 L 126.5 114.4 L 126.9 115.4 L 127.4 113.9 L 127.8 112.9 L 128.3 113.0 L 128.7 114.6 L 129.2 117.2 L 129.6 115.2 L 130.1 114.9 L 130.5 112.0 L 131.0 108.5 L 131.4 108.2 L 131.9 108.3 L 132.3 106.4 L 132.8 104.5 L 133.2 104.2 L 133.7 104.8 L 134.1 102.5 L 134.6 102.5 L 135.0 102.6 L 135.5 104.4 L 135.9 104.3 L 136.4 106.0 L 136.8 109.9 L 137.3 109.3 L 137.7 109.2 L 138.2 107.3 L 138.6 105.0 L 139.1 106.7 L 139.5 111.4 L 140.0 115.0 L 140.4 117.0 L 140.9 117.0 L 141.3 116.2 L 141.8 116.0 L 142.2 118.7 L 142.7 118.6 L 143.1 118.3 L 143.6 115.5 L 144.0 115.5 L 144.5 115.3 L 144.9 118.6 L 145.4 119.6 L 145.8 119.8 L 146.3 124.5 L 146.7 123.3 L 147.2 123.4 L 147.6 123.7 L 148.1 122.3 L 148.5 121.6 L 149.0 122.0 L 149.4 120.6 L 149.9 122.5 L 150.3 122.5 L 150.8 122.9 L 151.2 122.2 L 151.7 125.9 L 152.1 130.0 L 152.6 134.3 L 153.0 138.6 L 153.5 138.8 L 153.9 141.1 L 154.4 141.9 L 154.8 143.8 L 155.3 144.6 L 155.7 149.0 L 156.2 153 L 156.7 153 L 157.1 152.2 L 157.6 152.4 L 158.0 151.3 L 158.5 150.7 L 158.9 149.8 L 159.4 145.1 L 159.8 145.1 L 160.3 144.6 L 160.7 147.8 L 161.2 148.7 L 161.6 145.2 L 162.1 141.1 L 162.5 137.9 L 163.0 137.9 L 163.4 138.6 L 163.9 141.3 L 164.3 145.8 L 164.8 144.1 L 165.2 144.0 L 165.7 140.7 L 166.1 140.7 L 166.6 141.0 L 167.0 140.9 L 167.5 141.2 L 167.9 141.5 L 168.4 143.2 L 168.8 144.8 L 169.3 144.8 L 169.7 144.8 L 170.2 148.2 L 170.6 148.0 L 171.1 141.4 L 171.5 137.1 L 172.0 133.3 L 172.4 133.2 L 172.9 133.8 L 173.3 134.8 L 173.8 131.7 L 174.2 129.8 L 174.7 127.6 L 175.1 128.4 L 175.6 128.4 L 176.0 129.3 L 176.5 129.8 L 176.9 128.8 L 177.4 130.1 L 177.8 131.3 L 178.3 130.5 L 178.7 130.4 L 179.2 130.8 L 179.6 132.1 L 180.1 133.6 L 180.5 131.4 L 181.0 128.5 L 181.4 128.0 L 181.9 128.0 L 182.3 128.5 L 182.8 130.9 L 183.2 131.2 L 183.7 134.8 L 184.1 133.8 L 184.6 130.7 L 185.0 130.7 L 185.5 129.7 L 185.9 129.6 L 186.4 132.8 L 186.8 134.1 L 187.3 134.5 L 187.7 133.6 L 188.2 133.6 L 188.6 132.8 L 189.1 132.7 L 189.5 137.5 L 190.0 141.4 L 190.4 141.1 L 190.9 141.3 L 191.3 141.3 L 191.8 142.0 L 192.2 142.5 L 192.7 141.6 L 193.1 140.5 L 193.6 141.2 L 194.0 143.0 L 194.5 143.0 L 194.9 143.6 L 195.4 145.5 L 195.8 146.2 L 196.3 146.1 L 196.7 143.7 L 197.2 144.6 L 197.6 144.3 L 198.1 141.4 L 198.5 139.6 L 199.0 141.2 L 199.4 142.7 L 199.9 141.4 L 200.3 140.0 L 200.8 140.0 L 201.2 141.9 L 201.7 144.5 L 202.1 145.3 L 202.6 146.6 L 203.0 150.9 L 203.5 151.7 L 203.9 151.7 L 204.4 151.2 L 204.8 150.9 L 205.3 151.8 L 205.7 155.0 L 206.2 152.0 L 206.6 149.8 L 207.1 149.8 L 207.5 150.2 L 208.0 153.2 L 208.4 153.7 L 208.9 152.5 L 209.3 153 L 209.8 153.9 L 210.2 153.9 L 210.7 154.5 L 211.1 154.6 L 211.6 153.8 L 212.0 155.9 L 212.5 157.1 L 212.9 155.3 L 213.4 155.3 L 213.8 154.7 L 214.3 157.2 L 214.7 158.3 L 215.2 160.1 L 215.6 163.3 L 216.1 163.7 L 216.5 163.7 L 217.0 165.4 L 217.4 165.0 L 217.9 167.0 L 218.3 167.7 L 218.8 168.5 L 219.2 167.1 L 219.7 167.1 L 220.2 166.7 L 220.6 167.0 L 221.1 170.2 L 221.5 169.4 L 222.0 168.9 L 222.4 170.6 L 222.9 170.6 L 223.3 169.7 L 223.8 170.0 L 224.2 167.3 L 224.7 167.3 L 225.1 166.0 L 225.6 167.2 L 226.0 167.2 L 226.5 168.3 L 226.9 166.7 L 227.4 164.8 L 227.8 163.7 L 228.3 161.8 L 228.7 163.5 L 229.2 163.6 L 229.6 164.7 L 230.1 165.4 L 230.5 166.6 L 231.0 163.2 L 231.4 162.0 L 231.9 162.5 L 232.3 162.6 L 232.8 161.7 L 233.2 160.0 L 233.7 160.0 L 234.1 159.3 L 234.6 158.8 L 235.0 158.8 L 235.5 158.8 L 235.9 159.7 L 236.4 160.2 L 236.8 158.9 L 237.3 159.1 L 237.7 159.2 L 238.2 159.4 L 238.6 159.4 L 239.1 160.2 L 239.5 162.8 L 240.0 163.3 L 240.4 161.3 L 240.9 156.2 L 241.3 155.0 L 241.8 155.0 L 242.2 154.0 L 242.7 153.6 L 243.1 150.7 L 243.6 151.4 L 244.0 152.7 L 244.5 155.8 L 244.9 155.8 L 245.4 156.8 L 245.8 157.5 L 246.3 158.2 L 246.7 156.3 L 247.2 157.2 L 247.6 160.4 L 248.1 160.4 L 248.5 160.1 L 249.0 160.2 L 249.4 159.1 L 249.9 160.1 L 250.3 160.9 L 250.8 164.4 L 251.2 164.4 L 251.7 166.3 L 252.1 168.8 L 252.6 168.8 L 253.0 168.8 L 253.5 168.0 L 253.9 169.2 L 254.4 169.2 L 254.8 169.3 L 255.3 170.9 L 255.7 176.2 L 256.2 177.0 L 256.6 177.9 L 257.1 177.6 L 257.5 177.6 L 258.0 177.8 L 258.4 177.7 L 258.9 178.8 L 259.3 179.2 L 259.8 179.1 L 260.2 180.0 L 260.7 180.0 L 261.1 180.0 L 261.6 180.0 L 262.0 177.2 L 262.5 174.6 L 262.9 173.2 L 263.4 169.6 L 263.8 169.6 L 264.3 170.9 L 264.7 173.7 L 265.2 171.6 L 265.6 171.8 L 266.1 174.6 L 266.5 177.1 L 267.0 177.1 L 267.4 179.3 L 267.9 178.1 L 268.3 177.0 L 268.8 176.4 L 269.2 172.1 L 269.7 172.8 L 270.1 172.8 L 270.6 171.5 L 271.0 167.4 L 271.5 162.2 L 271.9 157.6 L 272.4 159.4 L 272.8 160.7 L 273.3 160.7 L 273.7 161.6 L 274.2 161.2 L 274.6 161.7 L 275.1 165.5 L 275.5 167.7 L 276.0 171.8 L 276.4 171.8 L 276.9 171.3 L 277.3 170.1 L 277.8 168.7 L 278.2 170.5 L 278.7 171.0 L 279.1 169.3 L 279.6 169.3 L 280.0 169.7 L 280.5 168.1 L 280.9 168.7 L 281.4 171.2 L 281.8 174.0 L 282.3 176.8 L 282.7 176.8 L 283.2 178.0 L 283.7 179.3 L 284.1 182.2 L 284.6 183.9 L 285.0 182.6 L 285.5 182.5 L 285.9 182.5 L 286.4 182.5 L 286.8 182.6 L 287.3 187.7 L 287.7 190.4 L 288.2 193.2 L 288.6 193.9 L 289.1 193.9 L 289.5 194.5 L 290.0 194.5 L 290.4 196.2 L 290.9 196.8 L 291.3 199.0 L 291.8 202.7 L 292.2 202.8 L 292.7 202.0 L 293.1 199.3 L 293.6 197.5 L 294.0 194.9 L 294.5 196.1 L 294.9 196.1 L 295.4 196.1 L 295.8 194.7 L 296.3 191.9 L 296.7 195.9 L 297.2 198.5 L 297.6 198.9 L 298.1 198.3 L 298.5 198.3 L 299.0 199.4 L 299.4 198.7 L 299.9 198.7 L 300.3 202.2 L 300.8 204.0 L 301.2 204.5 L 301.7 204.6 L 302.1 202.5 L 302.6 200.3 L 303.0 201.8 L 303.5 203.7 L 303.9 207.3 L 304.4 209.1 L 304.8 209.1 L 305.3 210.2 L 305.7 210.1 L 306.2 211.9 L 306.6 212.2 L 307.1 212.7 L 307.5 214.8 L 308.0 215.1 L 308.4 213.7 L 308.9 215.2 L 309.3 220.9 L 309.8 222.0 L 310.2 223.6 L 310.7 222.8 L 311.1 222.8 L 311.6 219.6 L 312.0 218.3 L 312.5 222.1 L 312.9 221.6 L 313.4 220.6 L 313.8 222.0 L 314.3 222.1 L 314.7 222.1 L 315.2 225.2 L 315.6 229.9 L 316.1 231.0 L 316.5 231.4 L 317.0 230.3 L 317.4 230.1 L 317.9 230.6 L 318.3 231.4 L 318.8 228.3 L 319.2 228.3 L 319.7 225.9 L 320.1 222.5 L 320.6 220.7 L 321.0 222.0 L 321.5 223.8 L 321.9 225.1 L 322.4 219.4 L 322.8 221.0 L 323.3 221.8 L 323.7 221.8 L 324.2 222.7 L 324.6 224.5 L 325.1 223.0 L 325.5 223.4 L 326.0 217.4 L 326.4 210.8 L 326.9 210.8 L 327.3 209.6 L 327.8 209.7 L 328.2 209.5 L 328.7 207.6 L 329.1 207.5 L 329.6 208.4 L 330.0 208.4 L 330.5 209.1 L 330.9 209.3 L 331.4 211.3 L 331.8 215.5 L 332.3 221.9 L 332.7 225.0 L 333.2 225.0 L 333.6 224.0 L 334.1 218.7 L 334.5 221.9 L 335.0 225.3 L 335.4 226.1 L 335.9 225.9 L 336.3 225.9 L 336.8 224.7 L 337.2 224.3 L 337.7 224.0 L 338.1 223.8 L 338.6 228.4 L 339.0 227.4 L 339.5 227.4 L 339.9 230.9 L 340.4 231.9 L 340.8 228.0 L 341.3 222.2 L 341.7 221.2 L 342.2 220.1 L 342.6 220.1 L 343.1 215.5 L 343.5 213.8 L 344.0 219.5 L 344.4 221.9 L 344.9 225.6 L 345.3 222.9 L 345.8 222.9 L 346.2 224.7 L 346.7 227.5 L 347.2 227.9 L 347.6 231.2 L 348.1 231.6 L 348.5 228.6 L 349.0 228.6 L 349.4 229.4 L 349.9 226.4 L 350.3 221.0 L 350.8 218.6 L 351.2 213.8 L 351.7 214.6 L 352.1 214.6 L 352.6 216.0 L 353.0 216.3 L 353.5 218.0 L 353.9 219.0 L 354.4 222.0 L 354.8 223.0 L 355.3 223.0 L 355.7 222.1 L 356.2 224.1 L 356.6 224.1 L 357.1 226.0 L 357.5 229.7 L 358.0 229.8 L 358.4 229.8 L 358.9 229.7 L 359.3 231.2 L 359.8 239.6 L 360.2 243.6 L 360.7 246.5 L 361.1 245.8 L 361.6 245.8 L 362.0 246.7 L 362.5 247.0 L 362.9 247.4 L 363.4 251.7 L 363.8 254.7 L 364.3 253.5 L 364.7 253.5 L 365.2 254.2 L 365.6 253.9 L 366.1 256.1 L 366.5 262.7 L 367.0 264.5 L 367.4 267.0 L 367.9 267.0 L 368.3 271.2 L 368.8 270.9 L 369.2 267.4 L 369.7 261.2 L 370.1 257.2 L 370.6 256.9 L 371.0 256.9 L 371.5 255.6 L 371.9 261.3 L 372.4 267.5 L 372.8 272.4 L 373.3 271.7 L 373.7 272.0 L 374.2 272.0 L 374.6 272.3 L 375.1 268.1 L 375.5 264.8 L 376.0 265.6 L 376.4 268.8 L 376.9 269.6 L 377.3 269.6 L 377.8 268.4 L 378.2 269.5 L 378.7 269.8 L 379.1 273.3 L 379.6 272.1 L 380.0 272.5 L 380.5 272.2 L 380.9 271.1 L 381.4 273.2 L 381.8 275.1 L 382.3 277.6 L 382.7 274.5 L 383.2 272.9 L 383.6 272.9 L 384.1 274.6 L 384.5 277.7 L 385.0 278.5 L 385.4 271.8 L 385.9 266.0 L 386.3 265.2 L 386.8 265.0 L 387.2 265.6 L 387.7 264.4 L 388.1 262.8 L 388.6 262.2 L 389.0 257.8 L 389.5 256.5 L 389.9 256.4 L 390.4 258.3 L 390.8 260.7 L 391.3 258.3 L 391.7 254.0 L 392.2 257.2 L 392.6 258.9 L 393.1 258.9 L 393.5 258.2 L 394.0 260.2 L 394.4 258.0 L 394.9 258.9 L 395.3 259.8 L 395.8 262.9 L 396.2 262.9 L 396.7 262.6 L 397.1 263.7 L 397.6 268.6 L 398.0 270.7 L 398.5 270.2 L 398.9 270.7 L 399.4 270.7 L 399.8 271.0 L 400.3 270.7 L 400.7 267.3 L 401.2 263.5 L 401.6 260.9 L 402.1 262.0 L 402.5 262.0 L 403.0 261.6 L 403.4 261.1 L 403.9 257.7 L 404.3 258.1 L 404.8 266.6 L 405.2 269.6 L 405.7 271.3 L 406.1 270.7 L 406.6 262.1 L 407.0 259.8 L 407.5 258.3 L 407.9 254.3 L 408.4 254.5 L 408.8 254.6 L 409.3 256.9 L 409.7 259.9 L 410.2 260.0 L 410.7 261.0 L 411.1 263.7 L 411.6 264.2 L 412.0 264.2 L 412.5 262.3 L 412.9 262.0 L 413.4 263.3 L 413.8 268.1 L 414.3 270.4 L 414.7 272.0 L 415.2 271.9 L 415.6 271.5 L 416.1 271.1 L 416.5 273.3 L 417.0 273.5 L 417.4 268.2 L 417.9 268.4 L 418.3 268.4 L 418.8 266.9 L 419.2 268.1 L 419.7 268.1 L 420.1 269.7 L 420.6 273.3 L 421.0 277.7 L 421.5 277.8 L 421.9 276.3 L 422.4 278.0 L 422.8 276.1 L 423.3 274.2 L 423.7 274.3 L 424.2 274.1 L 424.6 274.1 L 425.1 274.9 L 425.5 276.0 L 426.0 270.5 L 426.4 267.4 L 426.9 268.4 L 427.3 268.4 L 427.8 268.4 L 428.2 269.2 L 428.7 268.2 L 429.1 263.3 L 429.6 264.0 L 430.0 261.6 L 430.5 262.4 L 430.9 262.4 L 431.4 263.2 L 431.8 260.5 L 432.3 258.2 L 432.7 256.3 L 433.2 245.4 L 433.6 238.0 L 434.1 238.0 L 434.5 236.8 L 435.0 233.3 L 435.4 234.0 L 435.9 232.7 L 436.3 226.0 L 436.8 223.2 L 437.2 223.2 L 437.7 225.0 L 438.1 223.9 L 438.6 226.3 L 439.0 228.8 L 439.5 231.0 L 439.9 228.1 L 440.4 228.2 L 440.8 226.7 L 441.3 222.8 L 441.7 224.1 L 442.2 226.4 L 442.6 224.8 L 443.1 222.6 L 443.5 222.6 L 444.0 221.1 L 444.4 216.5 L 444.9 212.9 L 445.3 212.7 L 445.8 203.0 L 446.2 202.7 L 446.7 202.9 L 447.1 203.4 L 447.6 196.2 L 448.0 195.1 L 448.5 186.6 L 448.9 193.2 L 449.4 200.8 L 449.8 201.0 L 450.3 203.3 L 450.7 200.4 L 451.2 199.4 L 451.6 208.4 L 452.1 205.2 L 452.5 212.6 L 453.0 212.7 L 453.4 218.3 L 453.9 226.6 L 454.3 222.8 L 454.8 222.8 L 455.2 220.0 L 455.7 219.7 L 456.1 219.7 L 456.6 211.8 L 457.0 204.3 L 457.5 194.0 L 457.9 184.8 L 458.4 180.3 L 458.8 177.2 L 459.3 176.8 L 459.7 167.3 L 460.2 166.4 L 460.6 169.6 L 461.1 171.6 L 461.5 164.5 L 462.0 156.3 L 462.4 156.9 L 462.9 166.6 L 463.3 171.4 L 463.8 167.1 L 464.2 159.4 L 464.7 159.9 L 465.1 156.9 L 465.6 156.9 L 466.0 157.6 L 466.5 148.0 L 466.9 128.3 L 467.4 122.2 L 467.8 111.8 L 468.3 114.6 L 468.7 109.3 L 469.2 102.9 L 469.6 101.2 L 470.1 120.0 L 470.5 136.5 L 471.0 117.2 L 471.4 115.9 L 471.9 116.0 L 472.3 120.2 L 472.8 116.4 L 473.2 129.4 L 473.7 124.5 L 474.1 117.9 L 474.6 115.6 L 475.1 115.8 L 475.5 123.6 L 476.0 114.7 L 476.4 104.9 L 476.9 101.5 L 477.3 116.5 L 477.8 108.9 L 478.2 108.3 L 478.7 109.4 L 479.1 110.3 L 479.6 110.2 L 480.0 103.1 L 480.5 103.2 L 480.9 107.2 L 481.4 107.3 L 481.8 114.0 L 482.3 128.0 L 482.7 131.5 L 483.2 127.4 L 483.6 123.3 L 484.1 114.0 L 484.5 114.0 L 485.0 112.3 L 485.4 111.6 L 485.9 113.3 L 486.3 114.3 L 486.8 116.7 L 487.2 115.6 L 487.7 115.7 L 488.1 122.9 L 488.6 126.6 L 489.0 130.8 L 489.5 141.7 L 489.9 153.3 L 490.4 155.9 L 490.8 155.7 L 491.3 162.4 L 491.7 174.6 L 492.2 196.4 L 492.6 211.4 L 493.1 195.5 L 493.5 184.5 L 494.0 184.6 L 494.4 188.3 L 494.9 188.0 L 495.3 187.8 L 495.8 189.7 L 496.2 191.8 L 496.7 190.8 L 497.1 190.8 L 497.6 199.0 L 498.0 194.3 L 498.0 306 L 4.9 306" ></path><path fill="none" d="M 4.9 56.5 L 5.3 56.6 L 5.8 56.7 L 6.2 55.9 L 6.7 59.3 L 7.1 75.0 L 7.6 75.6 L 8.0 78.3 L 8.5 78.2 L 8.9 75.6 L 9.4 73.1 L 9.8 73.6 L 10.3 75.8 L 10.7 72.2 L 11.2 77.6 L 11.6 77.6 L 12.1 77.0 L 12.5 74.9 L 13.0 75.3 L 13.4 74.5 L 13.9 74.1 L 14.3 77.1 L 14.8 77.1 L 15.2 84.4 L 15.7 87.8 L 16.1 87.1 L 16.6 85.2 L 17.0 81.6 L 17.5 74.5 L 17.9 74.5 L 18.4 74.5 L 18.8 75.6 L 19.3 76.8 L 19.7 72.8 L 20.2 72.5 L 20.6 69.7 L 21.1 69.3 L 21.5 68.0 L 22.0 66.0 L 22.4 65.5 L 22.9 65.7 L 23.3 65.8 L 23.8 60.8 L 24.2 60.8 L 24.7 60.5 L 25.1 60.8 L 25.6 61.6 L 26.0 59.3 L 26.5 60.2 L 26.9 62.8 L 27.4 62.6 L 27.8 64.0 L 28.3 62.2 L 28.8 61.2 L 29.2 62.3 L 29.7 61.2 L 30.1 58.8 L 30.6 58.8 L 31.0 57.6 L 31.5 58.9 L 31.9 63.2 L 32.4 63.9 L 32.8 69.7 L 33.3 71.0 L 33.7 71.0 L 34.2 71.1 L 34.6 64.3 L 35.1 61.2 L 35.5 62.7 L 36.0 61.2 L 36.4 61.0 L 36.9 60.9 L 37.3 63.1 L 37.8 66.1 L 38.2 69.9 L 38.7 74.1 L 39.1 80.2 L 39.6 80.8 L 40.0 80.8 L 40.5 80.0 L 40.9 77.3 L 41.4 74.1 L 41.8 71.2 L 42.3 66.7 L 42.7 70.1 L 43.2 70.1 L 43.6 70.1 L 44.1 70.7 L 44.5 68.6 L 45.0 73.2 L 45.4 77.5 L 45.9 75.9 L 46.3 75.8 L 46.8 74.1 L 47.2 80.6 L 47.7 86.5 L 48.1 86.8 L 48.6 80.2 L 49.0 74.1 L 49.5 74.1 L 49.9 75.3 L 50.4 76.2 L 50.8 77.5 L 51.3 75.2 L 51.7 75.6 L 52.2 75.3 L 52.6 75.4 L 53.1 81.7 L 53.5 86.3 L 54.0 92.1 L 54.4 91.6 L 54.9 89.8 L 55.3 91.0 L 55.8 91.2 L 56.2 93.4 L 56.7 94.9 L 57.1 97.2 L 57.6 99.6 L 58.0 105.5 L 58.5 110.2 L 58.9 110.0 L 59.4 109.9 L 59.8 108.7 L 60.3 110.3 L 60.7 110.6 L 61.2 115.2 L 61.6 116.1 L 62.1 116.1 L 62.5 116.9 L 63.0 115.5 L 63.4 119.6 L 63.9 118.9 L 64.3 125.8 L 64.8 127.3 L 65.2 128.6 L 65.7 125.7 L 66.1 122.1 L 66.6 123.6 L 67.0 119.5 L 67.5 120.7 L 67.9 119.4 L 68.4 119.3 L 68.8 119.4 L 69.3 124.3 L 69.7 121.2 L 70.2 119.2 L 70.6 119.7 L 71.1 116.7 L 71.5 116.7 L 72.0 117.8 L 72.4 122.6 L 72.9 124.7 L 73.3 120.1 L 73.8 123.9 L 74.2 128.1 L 74.7 128.2 L 75.1 129.9 L 75.6 125.8 L 76.0 121.7 L 76.5 117.2 L 76.9 111.4 L 77.4 110.9 L 77.8 110.8 L 78.3 109.0 L 78.7 106.8 L 79.2 106.9 L 79.6 109.3 L 80.1 111.1 L 80.5 110.8 L 81.0 110.9 L 81.4 108.0 L 81.9 106.7 L 82.3 110.0 L 82.8 110.2 L 83.2 105.2 L 83.7 102.1 L 84.1 102.1 L 84.6 104.6 L 85.0 107.9 L 85.5 106.0 L 85.9 105.1 L 86.4 116.0 L 86.8 120.2 L 87.3 120.2 L 87.7 120.2 L 88.2 121.2 L 88.6 119.0 L 89.1 117.4 L 89.5 120.4 L 90.0 121.4 L 90.4 121.4 L 90.9 119.6 L 91.3 117.5 L 91.8 117.2 L 92.2 114.9 L 92.7 112.8 L 93.2 111.4 L 93.6 111.2 L 94.1 107.4 L 94.5 103.3 L 95.0 103.0 L 95.4 109.4 L 95.9 112.1 L 96.3 114.4 L 96.8 114.4 L 97.2 111.4 L 97.7 109.9 L 98.1 108.4 L 98.6 116.2 L 99.0 115.2 L 99.5 118.5 L 99.9 118.5 L 100.4 118.6 L 100.8 118.7 L 101.3 121.7 L 101.7 119.8 L 102.2 122.6 L 102.6 125.4 L 103.1 125.4 L 103.5 125.2 L 104.0 123.1 L 104.4 123.6 L 104.9 123.9 L 105.3 119.1 L 105.8 115.7 L 106.2 115.7 L 106.7 116.9 L 107.1 117.6 L 107.6 121.4 L 108.0 124.4 L 108.5 122.5 L 108.9 122.3 L 109.4 122.2 L 109.8 125.9 L 110.3 123.9 L 110.7 121.2 L 111.2 120.3 L 111.6 118.8 L 112.1 117.8 L 112.5 117.9 L 113.0 120.3 L 113.4 121.2 L 113.9 122.9 L 114.3 123.0 L 114.8 121.7 L 115.2 123.0 L 115.7 123.0 L 116.1 124.6 L 116.6 123.1 L 117.0 121.5 L 117.5 119.9 L 117.9 115.2 L 118.4 112.8 L 118.8 112.9 L 119.3 114.0 L 119.7 115.1 L 120.2 114.0 L 120.6 115.1 L 121.1 114.4 L 121.5 112.1 L 122.0 112.0 L 122.4 112.4 L 122.9 114.3 L 123.3 113.6 L 123.8 116.4 L 124.2 120.9 L 124.7 119.8 L 125.1 119.7 L 125.6 119.7 L 126.0 116.2 L 126.5 114.4 L 126.9 115.4 L 127.4 113.9 L 127.8 112.9 L 128.3 113.0 L 128.7 114.6 L 129.2 117.2 L 129.6 115.2 L 130.1 114.9 L 130.5 112.0 L 131.0 108.5 L 131.4 108.2 L 131.9 108.3 L 132.3 106.4 L 132.8 104.5 L 133.2 104.2 L 133.7 104.8 L 134.1 102.5 L 134.6 102.5 L 135.0 102.6 L 135.5 104.4 L 135.9 104.3 L 136.4 106.0 L 136.8 109.9 L 137.3 109.3 L 137.7 109.2 L 138.2 107.3 L 138.6 105.0 L 139.1 106.7 L 139.5 111.4 L 140.0 115.0 L 140.4 117.0 L 140.9 117.0 L 141.3 116.2 L 141.8 116.0 L 142.2 118.7 L 142.7 118.6 L 143.1 118.3 L 143.6 115.5 L 144.0 115.5 L 144.5 115.3 L 144.9 118.6 L 145.4 119.6 L 145.8 119.8 L 146.3 124.5 L 146.7 123.3 L 147.2 123.4 L 147.6 123.7 L 148.1 122.3 L 148.5 121.6 L 149.0 122.0 L 149.4 120.6 L 149.9 122.5 L 150.3 122.5 L 150.8 122.9 L 151.2 122.2 L 151.7 125.9 L 152.1 130.0 L 152.6 134.3 L 153.0 138.6 L 153.5 138.8 L 153.9 141.1 L 154.4 141.9 L 154.8 143.8 L 155.3 144.6 L 155.7 149.0 L 156.2 153 L 156.7 153 L 157.1 152.2 L 157.6 152.4 L 158.0 151.3 L 158.5 150.7 L 158.9 149.8 L 159.4 145.1 L 159.8 145.1 L 160.3 144.6 L 160.7 147.8 L 161.2 148.7 L 161.6 145.2 L 162.1 141.1 L 162.5 137.9 L 163.0 137.9 L 163.4 138.6 L 163.9 141.3 L 164.3 145.8 L 164.8 144.1 L 165.2 144.0 L 165.7 140.7 L 166.1 140.7 L 166.6 141.0 L 167.0 140.9 L 167.5 141.2 L 167.9 141.5 L 168.4 143.2 L 168.8 144.8 L 169.3 144.8 L 169.7 144.8 L 170.2 148.2 L 170.6 148.0 L 171.1 141.4 L 171.5 137.1 L 172.0 133.3 L 172.4 133.2 L 172.9 133.8 L 173.3 134.8 L 173.8 131.7 L 174.2 129.8 L 174.7 127.6 L 175.1 128.4 L 175.6 128.4 L 176.0 129.3 L 176.5 129.8 L 176.9 128.8 L 177.4 130.1 L 177.8 131.3 L 178.3 130.5 L 178.7 130.4 L 179.2 130.8 L 179.6 132.1 L 180.1 133.6 L 180.5 131.4 L 181.0 128.5 L 181.4 128.0 L 181.9 128.0 L 182.3 128.5 L 182.8 130.9 L 183.2 131.2 L 183.7 134.8 L 184.1 133.8 L 184.6 130.7 L 185.0 130.7 L 185.5 129.7 L 185.9 129.6 L 186.4 132.8 L 186.8 134.1 L 187.3 134.5 L 187.7 133.6 L 188.2 133.6 L 188.6 132.8 L 189.1 132.7 L 189.5 137.5 L 190.0 141.4 L 190.4 141.1 L 190.9 141.3 L 191.3 141.3 L 191.8 142.0 L 192.2 142.5 L 192.7 141.6 L 193.1 140.5 L 193.6 141.2 L 194.0 143.0 L 194.5 143.0 L 194.9 143.6 L 195.4 145.5 L 195.8 146.2 L 196.3 146.1 L 196.7 143.7 L 197.2 144.6 L 197.6 144.3 L 198.1 141.4 L 198.5 139.6 L 199.0 141.2 L 199.4 142.7 L 199.9 141.4 L 200.3 140.0 L 200.8 140.0 L 201.2 141.9 L 201.7 144.5 L 202.1 145.3 L 202.6 146.6 L 203.0 150.9 L 203.5 151.7 L 203.9 151.7 L 204.4 151.2 L 204.8 150.9 L 205.3 151.8 L 205.7 155.0 L 206.2 152.0 L 206.6 149.8 L 207.1 149.8 L 207.5 150.2 L 208.0 153.2 L 208.4 153.7 L 208.9 152.5 L 209.3 153 L 209.8 153.9 L 210.2 153.9 L 210.7 154.5 L 211.1 154.6 L 211.6 153.8 L 212.0 155.9 L 212.5 157.1 L 212.9 155.3 L 213.4 155.3 L 213.8 154.7 L 214.3 157.2 L 214.7 158.3 L 215.2 160.1 L 215.6 163.3 L 216.1 163.7 L 216.5 163.7 L 217.0 165.4 L 217.4 165.0 L 217.9 167.0 L 218.3 167.7 L 218.8 168.5 L 219.2 167.1 L 219.7 167.1 L 220.2 166.7 L 220.6 167.0 L 221.1 170.2 L 221.5 169.4 L 222.0 168.9 L 222.4 170.6 L 222.9 170.6 L 223.3 169.7 L 223.8 170.0 L 224.2 167.3 L 224.7 167.3 L 225.1 166.0 L 225.6 167.2 L 226.0 167.2 L 226.5 168.3 L 226.9 166.7 L 227.4 164.8 L 227.8 163.7 L 228.3 161.8 L 228.7 163.5 L 229.2 163.6 L 229.6 164.7 L 230.1 165.4 L 230.5 166.6 L 231.0 163.2 L 231.4 162.0 L 231.9 162.5 L 232.3 162.6 L 232.8 161.7 L 233.2 160.0 L 233.7 160.0 L 234.1 159.3 L 234.6 158.8 L 235.0 158.8 L 235.5 158.8 L 235.9 159.7 L 236.4 160.2 L 236.8 158.9 L 237.3 159.1 L 237.7 159.2 L 238.2 159.4 L 238.6 159.4 L 239.1 160.2 L 239.5 162.8 L 240.0 163.3 L 240.4 161.3 L 240.9 156.2 L 241.3 155.0 L 241.8 155.0 L 242.2 154.0 L 242.7 153.6 L 243.1 150.7 L 243.6 151.4 L 244.0 152.7 L 244.5 155.8 L 244.9 155.8 L 245.4 156.8 L 245.8 157.5 L 246.3 158.2 L 246.7 156.3 L 247.2 157.2 L 247.6 160.4 L 248.1 160.4 L 248.5 160.1 L 249.0 160.2 L 249.4 159.1 L 249.9 160.1 L 250.3 160.9 L 250.8 164.4 L 251.2 164.4 L 251.7 166.3 L 252.1 168.8 L 252.6 168.8 L 253.0 168.8 L 253.5 168.0 L 253.9 169.2 L 254.4 169.2 L 254.8 169.3 L 255.3 170.9 L 255.7 176.2 L 256.2 177.0 L 256.6 177.9 L 257.1 177.6 L 257.5 177.6 L 258.0 177.8 L 258.4 177.7 L 258.9 178.8 L 259.3 179.2 L 259.8 179.1 L 260.2 180.0 L 260.7 180.0 L 261.1 180.0 L 261.6 180.0 L 262.0 177.2 L 262.5 174.6 L 262.9 173.2 L 263.4 169.6 L 263.8 169.6 L 264.3 170.9 L 264.7 173.7 L 265.2 171.6 L 265.6 171.8 L 266.1 174.6 L 266.5 177.1 L 267.0 177.1 L 267.4 179.3 L 267.9 178.1 L 268.3 177.0 L 268.8 176.4 L 269.2 172.1 L 269.7 172.8 L 270.1 172.8 L 270.6 171.5 L 271.0 167.4 L 271.5 162.2 L 271.9 157.6 L 272.4 159.4 L 272.8 160.7 L 273.3 160.7 L 273.7 161.6 L 274.2 161.2 L 274.6 161.7 L 275.1 165.5 L 275.5 167.7 L 276.0 171.8 L 276.4 171.8 L 276.9 171.3 L 277.3 170.1 L 277.8 168.7 L 278.2 170.5 L 278.7 171.0 L 279.1 169.3 L 279.6 169.3 L 280.0 169.7 L 280.5 168.1 L 280.9 168.7 L 281.4 171.2 L 281.8 174.0 L 282.3 176.8 L 282.7 176.8 L 283.2 178.0 L 283.7 179.3 L 284.1 182.2 L 284.6 183.9 L 285.0 182.6 L 285.5 182.5 L 285.9 182.5 L 286.4 182.5 L 286.8 182.6 L 287.3 187.7 L 287.7 190.4 L 288.2 193.2 L 288.6 193.9 L 289.1 193.9 L 289.5 194.5 L 290.0 194.5 L 290.4 196.2 L 290.9 196.8 L 291.3 199.0 L 291.8 202.7 L 292.2 202.8 L 292.7 202.0 L 293.1 199.3 L 293.6 197.5 L 294.0 194.9 L 294.5 196.1 L 294.9 196.1 L 295.4 196.1 L 295.8 194.7 L 296.3 191.9 L 296.7 195.9 L 297.2 198.5 L 297.6 198.9 L 298.1 198.3 L 298.5 198.3 L 299.0 199.4 L 299.4 198.7 L 299.9 198.7 L 300.3 202.2 L 300.8 204.0 L 301.2 204.5 L 301.7 204.6 L 302.1 202.5 L 302.6 200.3 L 303.0 201.8 L 303.5 203.7 L 303.9 207.3 L 304.4 209.1 L 304.8 209.1 L 305.3 210.2 L 305.7 210.1 L 306.2 211.9 L 306.6 212.2 L 307.1 212.7 L 307.5 214.8 L 308.0 215.1 L 308.4 213.7 L 308.9 215.2 L 309.3 220.9 L 309.8 222.0 L 310.2 223.6 L 310.7 222.8 L 311.1 222.8 L 311.6 219.6 L 312.0 218.3 L 312.5 222.1 L 312.9 221.6 L 313.4 220.6 L 313.8 222.0 L 314.3 222.1 L 314.7 222.1 L 315.2 225.2 L 315.6 229.9 L 316.1 231.0 L 316.5 231.4 L 317.0 230.3 L 317.4 230.1 L 317.9 230.6 L 318.3 231.4 L 318.8 228.3 L 319.2 228.3 L 319.7 225.9 L 320.1 222.5 L 320.6 220.7 L 321.0 222.0 L 321.5 223.8 L 321.9 225.1 L 322.4 219.4 L 322.8 221.0 L 323.3 221.8 L 323.7 221.8 L 324.2 222.7 L 324.6 224.5 L 325.1 223.0 L 325.5 223.4 L 326.0 217.4 L 326.4 210.8 L 326.9 210.8 L 327.3 209.6 L 327.8 209.7 L 328.2 209.5 L 328.7 207.6 L 329.1 207.5 L 329.6 208.4 L 330.0 208.4 L 330.5 209.1 L 330.9 209.3 L 331.4 211.3 L 331.8 215.5 L 332.3 221.9 L 332.7 225.0 L 333.2 225.0 L 333.6 224.0 L 334.1 218.7 L 334.5 221.9 L 335.0 225.3 L 335.4 226.1 L 335.9 225.9 L 336.3 225.9 L 336.8 224.7 L 337.2 224.3 L 337.7 224.0 L 338.1 223.8 L 338.6 228.4 L 339.0 227.4 L 339.5 227.4 L 339.9 230.9 L 340.4 231.9 L 340.8 228.0 L 341.3 222.2 L 341.7 221.2 L 342.2 220.1 L 342.6 220.1 L 343.1 215.5 L 343.5 213.8 L 344.0 219.5 L 344.4 221.9 L 344.9 225.6 L 345.3 222.9 L 345.8 222.9 L 346.2 224.7 L 346.7 227.5 L 347.2 227.9 L 347.6 231.2 L 348.1 231.6 L 348.5 228.6 L 349.0 228.6 L 349.4 229.4 L 349.9 226.4 L 350.3 221.0 L 350.8 218.6 L 351.2 213.8 L 351.7 214.6 L 352.1 214.6 L 352.6 216.0 L 353.0 216.3 L 353.5 218.0 L 353.9 219.0 L 354.4 222.0 L 354.8 223.0 L 355.3 223.0 L 355.7 222.1 L 356.2 224.1 L 356.6 224.1 L 357.1 226.0 L 357.5 229.7 L 358.0 229.8 L 358.4 229.8 L 358.9 229.7 L 359.3 231.2 L 359.8 239.6 L 360.2 243.6 L 360.7 246.5 L 361.1 245.8 L 361.6 245.8 L 362.0 246.7 L 362.5 247.0 L 362.9 247.4 L 363.4 251.7 L 363.8 254.7 L 364.3 253.5 L 364.7 253.5 L 365.2 254.2 L 365.6 253.9 L 366.1 256.1 L 366.5 262.7 L 367.0 264.5 L 367.4 267.0 L 367.9 267.0 L 368.3 271.2 L 368.8 270.9 L 369.2 267.4 L 369.7 261.2 L 370.1 257.2 L 370.6 256.9 L 371.0 256.9 L 371.5 255.6 L 371.9 261.3 L 372.4 267.5 L 372.8 272.4 L 373.3 271.7 L 373.7 272.0 L 374.2 272.0 L 374.6 272.3 L 375.1 268.1 L 375.5 264.8 L 376.0 265.6 L 376.4 268.8 L 376.9 269.6 L 377.3 269.6 L 377.8 268.4 L 378.2 269.5 L 378.7 269.8 L 379.1 273.3 L 379.6 272.1 L 380.0 272.5 L 380.5 272.2 L 380.9 271.1 L 381.4 273.2 L 381.8 275.1 L 382.3 277.6 L 382.7 274.5 L 383.2 272.9 L 383.6 272.9 L 384.1 274.6 L 384.5 277.7 L 385.0 278.5 L 385.4 271.8 L 385.9 266.0 L 386.3 265.2 L 386.8 265.0 L 387.2 265.6 L 387.7 264.4 L 388.1 262.8 L 388.6 262.2 L 389.0 257.8 L 389.5 256.5 L 389.9 256.4 L 390.4 258.3 L 390.8 260.7 L 391.3 258.3 L 391.7 254.0 L 392.2 257.2 L 392.6 258.9 L 393.1 258.9 L 393.5 258.2 L 394.0 260.2 L 394.4 258.0 L 394.9 258.9 L 395.3 259.8 L 395.8 262.9 L 396.2 262.9 L 396.7 262.6 L 397.1 263.7 L 397.6 268.6 L 398.0 270.7 L 398.5 270.2 L 398.9 270.7 L 399.4 270.7 L 399.8 271.0 L 400.3 270.7 L 400.7 267.3 L 401.2 263.5 L 401.6 260.9 L 402.1 262.0 L 402.5 262.0 L 403.0 261.6 L 403.4 261.1 L 403.9 257.7 L 404.3 258.1 L 404.8 266.6 L 405.2 269.6 L 405.7 271.3 L 406.1 270.7 L 406.6 262.1 L 407.0 259.8 L 407.5 258.3 L 407.9 254.3 L 408.4 254.5 L 408.8 254.6 L 409.3 256.9 L 409.7 259.9 L 410.2 260.0 L 410.7 261.0 L 411.1 263.7 L 411.6 264.2 L 412.0 264.2 L 412.5 262.3 L 412.9 262.0 L 413.4 263.3 L 413.8 268.1 L 414.3 270.4 L 414.7 272.0 L 415.2 271.9 L 415.6 271.5 L 416.1 271.1 L 416.5 273.3 L 417.0 273.5 L 417.4 268.2 L 417.9 268.4 L 418.3 268.4 L 418.8 266.9 L 419.2 268.1 L 419.7 268.1 L 420.1 269.7 L 420.6 273.3 L 421.0 277.7 L 421.5 277.8 L 421.9 276.3 L 422.4 278.0 L 422.8 276.1 L 423.3 274.2 L 423.7 274.3 L 424.2 274.1 L 424.6 274.1 L 425.1 274.9 L 425.5 276.0 L 426.0 270.5 L 426.4 267.4 L 426.9 268.4 L 427.3 268.4 L 427.8 268.4 L 428.2 269.2 L 428.7 268.2 L 429.1 263.3 L 429.6 264.0 L 430.0 261.6 L 430.5 262.4 L 430.9 262.4 L 431.4 263.2 L 431.8 260.5 L 432.3 258.2 L 432.7 256.3 L 433.2 245.4 L 433.6 238.0 L 434.1 238.0 L 434.5 236.8 L 435.0 233.3 L 435.4 234.0 L 435.9 232.7 L 436.3 226.0 L 436.8 223.2 L 437.2 223.2 L 437.7 225.0 L 438.1 223.9 L 438.6 226.3 L 439.0 228.8 L 439.5 231.0 L 439.9 228.1 L 440.4 228.2 L 440.8 226.7 L 441.3 222.8 L 441.7 224.1 L 442.2 226.4 L 442.6 224.8 L 443.1 222.6 L 443.5 222.6 L 444.0 221.1 L 444.4 216.5 L 444.9 212.9 L 445.3 212.7 L 445.8 203.0 L 446.2 202.7 L 446.7 202.9 L 447.1 203.4 L 447.6 196.2 L 448.0 195.1 L 448.5 186.6 L 448.9 193.2 L 449.4 200.8 L 449.8 201.0 L 450.3 203.3 L 450.7 200.4 L 451.2 199.4 L 451.6 208.4 L 452.1 205.2 L 452.5 212.6 L 453.0 212.7 L 453.4 218.3 L 453.9 226.6 L 454.3 222.8 L 454.8 222.8 L 455.2 220.0 L 455.7 219.7 L 456.1 219.7 L 456.6 211.8 L 457.0 204.3 L 457.5 194.0 L 457.9 184.8 L 458.4 180.3 L 458.8 177.2 L 459.3 176.8 L 459.7 167.3 L 460.2 166.4 L 460.6 169.6 L 461.1 171.6 L 461.5 164.5 L 462.0 156.3 L 462.4 156.9 L 462.9 166.6 L 463.3 171.4 L 463.8 167.1 L 464.2 159.4 L 464.7 159.9 L 465.1 156.9 L 465.6 156.9 L 466.0 157.6 L 466.5 148.0 L 466.9 128.3 L 467.4 122.2 L 467.8 111.8 L 468.3 114.6 L 468.7 109.3 L 469.2 102.9 L 469.6 101.2 L 470.1 120.0 L 470.5 136.5 L 471.0 117.2 L 471.4 115.9 L 471.9 116.0 L 472.3 120.2 L 472.8 116.4 L 473.2 129.4 L 473.7 124.5 L 474.1 117.9 L 474.6 115.6 L 475.1 115.8 L 475.5 123.6 L 476.0 114.7 L 476.4 104.9 L 476.9 101.5 L 477.3 116.5 L 477.8 108.9 L 478.2 108.3 L 478.7 109.4 L 479.1 110.3 L 479.6 110.2 L 480.0 103.1 L 480.5 103.2 L 480.9 107.2 L 481.4 107.3 L 481.8 114.0 L 482.3 128.0 L 482.7 131.5 L 483.2 127.4 L 483.6 123.3 L 484.1 114.0 L 484.5 114.0 L 485.0 112.3 L 485.4 111.6 L 485.9 113.3 L 486.3 114.3 L 486.8 116.7 L 487.2 115.6 L 487.7 115.7 L 488.1 122.9 L 488.6 126.6 L 489.0 130.8 L 489.5 141.7 L 489.9 153.3 L 490.4 155.9 L 490.8 155.7 L 491.3 162.4 L 491.7 174.6 L 492.2 196.4 L 492.6 211.4 L 493.1 195.5 L 493.5 184.5 L 494.0 184.6 L 494.4 188.3 L 494.9 188.0 L 495.3 187.8 L 495.8 189.7 L 496.2 191.8 L 496.7 190.8 L 497.1 190.8 L 497.6 199.0 L 498.0 194.3" stroke="black" stroke-width="5"  stroke-linejoin="round" stroke-linecap="round"  stroke-opacity="0.0" transform="translate(1, 1)"></path><path fill="none" d="M 4.9 56.5 L 5.3 56.6 L 5.8 56.7 L 6.2 55.9 L 6.7 59.3 L 7.1 75.0 L 7.6 75.6 L 8.0 78.3 L 8.5 78.2 L 8.9 75.6 L 9.4 73.1 L 9.8 73.6 L 10.3 75.8 L 10.7 72.2 L 11.2 77.6 L 11.6 77.6 L 12.1 77.0 L 12.5 74.9 L 13.0 75.3 L 13.4 74.5 L 13.9 74.1 L 14.3 77.1 L 14.8 77.1 L 15.2 84.4 L 15.7 87.8 L 16.1 87.1 L 16.6 85.2 L 17.0 81.6 L 17.5 74.5 L 17.9 74.5 L 18.4 74.5 L 18.8 75.6 L 19.3 76.8 L 19.7 72.8 L 20.2 72.5 L 20.6 69.7 L 21.1 69.3 L 21.5 68.0 L 22.0 66.0 L 22.4 65.5 L 22.9 65.7 L 23.3 65.8 L 23.8 60.8 L 24.2 60.8 L 24.7 60.5 L 25.1 60.8 L 25.6 61.6 L 26.0 59.3 L 26.5 60.2 L 26.9 62.8 L 27.4 62.6 L 27.8 64.0 L 28.3 62.2 L 28.8 61.2 L 29.2 62.3 L 29.7 61.2 L 30.1 58.8 L 30.6 58.8 L 31.0 57.6 L 31.5 58.9 L 31.9 63.2 L 32.4 63.9 L 32.8 69.7 L 33.3 71.0 L 33.7 71.0 L 34.2 71.1 L 34.6 64.3 L 35.1 61.2 L 35.5 62.7 L 36.0 61.2 L 36.4 61.0 L 36.9 60.9 L 37.3 63.1 L 37.8 66.1 L 38.2 69.9 L 38.7 74.1 L 39.1 80.2 L 39.6 80.8 L 40.0 80.8 L 40.5 80.0 L 40.9 77.3 L 41.4 74.1 L 41.8 71.2 L 42.3 66.7 L 42.7 70.1 L 43.2 70.1 L 43.6 70.1 L 44.1 70.7 L 44.5 68.6 L 45.0 73.2 L 45.4 77.5 L 45.9 75.9 L 46.3 75.8 L 46.8 74.1 L 47.2 80.6 L 47.7 86.5 L 48.1 86.8 L 48.6 80.2 L 49.0 74.1 L 49.5 74.1 L 49.9 75.3 L 50.4 76.2 L 50.8 77.5 L 51.3 75.2 L 51.7 75.6 L 52.2 75.3 L 52.6 75.4 L 53.1 81.7 L 53.5 86.3 L 54.0 92.1 L 54.4 91.6 L 54.9 89.8 L 55.3 91.0 L 55.8 91.2 L 56.2 93.4 L 56.7 94.9 L 57.1 97.2 L 57.6 99.6 L 58.0 105.5 L 58.5 110.2 L 58.9 110.0 L 59.4 109.9 L 59.8 108.7 L 60.3 110.3 L 60.7 110.6 L 61.2 115.2 L 61.6 116.1 L 62.1 116.1 L 62.5 116.9 L 63.0 115.5 L 63.4 119.6 L 63.9 118.9 L 64.3 125.8 L 64.8 127.3 L 65.2 128.6 L 65.7 125.7 L 66.1 122.1 L 66.6 123.6 L 67.0 119.5 L 67.5 120.7 L 67.9 119.4 L 68.4 119.3 L 68.8 119.4 L 69.3 124.3 L 69.7 121.2 L 70.2 119.2 L 70.6 119.7 L 71.1 116.7 L 71.5 116.7 L 72.0 117.8 L 72.4 122.6 L 72.9 124.7 L 73.3 120.1 L 73.8 123.9 L 74.2 128.1 L 74.7 128.2 L 75.1 129.9 L 75.6 125.8 L 76.0 121.7 L 76.5 117.2 L 76.9 111.4 L 77.4 110.9 L 77.8 110.8 L 78.3 109.0 L 78.7 106.8 L 79.2 106.9 L 79.6 109.3 L 80.1 111.1 L 80.5 110.8 L 81.0 110.9 L 81.4 108.0 L 81.9 106.7 L 82.3 110.0 L 82.8 110.2 L 83.2 105.2 L 83.7 102.1 L 84.1 102.1 L 84.6 104.6 L 85.0 107.9 L 85.5 106.0 L 85.9 105.1 L 86.4 116.0 L 86.8 120.2 L 87.3 120.2 L 87.7 120.2 L 88.2 121.2 L 88.6 119.0 L 89.1 117.4 L 89.5 120.4 L 90.0 121.4 L 90.4 121.4 L 90.9 119.6 L 91.3 117.5 L 91.8 117.2 L 92.2 114.9 L 92.7 112.8 L 93.2 111.4 L 93.6 111.2 L 94.1 107.4 L 94.5 103.3 L 95.0 103.0 L 95.4 109.4 L 95.9 112.1 L 96.3 114.4 L 96.8 114.4 L 97.2 111.4 L 97.7 109.9 L 98.1 108.4 L 98.6 116.2 L 99.0 115.2 L 99.5 118.5 L 99.9 118.5 L 100.4 118.6 L 100.8 118.7 L 101.3 121.7 L 101.7 119.8 L 102.2 122.6 L 102.6 125.4 L 103.1 125.4 L 103.5 125.2 L 104.0 123.1 L 104.4 123.6 L 104.9 123.9 L 105.3 119.1 L 105.8 115.7 L 106.2 115.7 L 106.7 116.9 L 107.1 117.6 L 107.6 121.4 L 108.0 124.4 L 108.5 122.5 L 108.9 122.3 L 109.4 122.2 L 109.8 125.9 L 110.3 123.9 L 110.7 121.2 L 111.2 120.3 L 111.6 118.8 L 112.1 117.8 L 112.5 117.9 L 113.0 120.3 L 113.4 121.2 L 113.9 122.9 L 114.3 123.0 L 114.8 121.7 L 115.2 123.0 L 115.7 123.0 L 116.1 124.6 L 116.6 123.1 L 117.0 121.5 L 117.5 119.9 L 117.9 115.2 L 118.4 112.8 L 118.8 112.9 L 119.3 114.0 L 119.7 115.1 L 120.2 114.0 L 120.6 115.1 L 121.1 114.4 L 121.5 112.1 L 122.0 112.0 L 122.4 112.4 L 122.9 114.3 L 123.3 113.6 L 123.8 116.4 L 124.2 120.9 L 124.7 119.8 L 125.1 119.7 L 125.6 119.7 L 126.0 116.2 L 126.5 114.4 L 126.9 115.4 L 127.4 113.9 L 127.8 112.9 L 128.3 113.0 L 128.7 114.6 L 129.2 117.2 L 129.6 115.2 L 130.1 114.9 L 130.5 112.0 L 131.0 108.5 L 131.4 108.2 L 131.9 108.3 L 132.3 106.4 L 132.8 104.5 L 133.2 104.2 L 133.7 104.8 L 134.1 102.5 L 134.6 102.5 L 135.0 102.6 L 135.5 104.4 L 135.9 104.3 L 136.4 106.0 L 136.8 109.9 L 137.3 109.3 L 137.7 109.2 L 138.2 107.3 L 138.6 105.0 L 139.1 106.7 L 139.5 111.4 L 140.0 115.0 L 140.4 117.0 L 140.9 117.0 L 141.3 116.2 L 141.8 116.0 L 142.2 118.7 L 142.7 118.6 L 143.1 118.3 L 143.6 115.5 L 144.0 115.5 L 144.5 115.3 L 144.9 118.6 L 145.4 119.6 L 145.8 119.8 L 146.3 124.5 L 146.7 123.3 L 147.2 123.4 L 147.6 123.7 L 148.1 122.3 L 148.5 121.6 L 149.0 122.0 L 149.4 120.6 L 149.9 122.5 L 150.3 122.5 L 150.8 122.9 L 151.2 122.2 L 151.7 125.9 L 152.1 130.0 L 152.6 134.3 L 153.0 138.6 L 153.5 138.8 L 153.9 141.1 L 154.4 141.9 L 154.8 143.8 L 155.3 144.6 L 155.7 149.0 L 156.2 153 L 156.7 153 L 157.1 152.2 L 157.6 152.4 L 158.0 151.3 L 158.5 150.7 L 158.9 149.8 L 159.4 145.1 L 159.8 145.1 L 160.3 144.6 L 160.7 147.8 L 161.2 148.7 L 161.6 145.2 L 162.1 141.1 L 162.5 137.9 L 163.0 137.9 L 163.4 138.6 L 163.9 141.3 L 164.3 145.8 L 164.8 144.1 L 165.2 144.0 L 165.7 140.7 L 166.1 140.7 L 166.6 141.0 L 167.0 140.9 L 167.5 141.2 L 167.9 141.5 L 168.4 143.2 L 168.8 144.8 L 169.3 144.8 L 169.7 144.8 L 170.2 148.2 L 170.6 148.0 L 171.1 141.4 L 171.5 137.1 L 172.0 133.3 L 172.4 133.2 L 172.9 133.8 L 173.3 134.8 L 173.8 131.7 L 174.2 129.8 L 174.7 127.6 L 175.1 128.4 L 175.6 128.4 L 176.0 129.3 L 176.5 129.8 L 176.9 128.8 L 177.4 130.1 L 177.8 131.3 L 178.3 130.5 L 178.7 130.4 L 179.2 130.8 L 179.6 132.1 L 180.1 133.6 L 180.5 131.4 L 181.0 128.5 L 181.4 128.0 L 181.9 128.0 L 182.3 128.5 L 182.8 130.9 L 183.2 131.2 L 183.7 134.8 L 184.1 133.8 L 184.6 130.7 L 185.0 130.7 L 185.5 129.7 L 185.9 129.6 L 186.4 132.8 L 186.8 134.1 L 187.3 134.5 L 187.7 133.6 L 188.2 133.6 L 188.6 132.8 L 189.1 132.7 L 189.5 137.5 L 190.0 141.4 L 190.4 141.1 L 190.9 141.3 L 191.3 141.3 L 191.8 142.0 L 192.2 142.5 L 192.7 141.6 L 193.1 140.5 L 193.6 141.2 L 194.0 143.0 L 194.5 143.0 L 194.9 143.6 L 195.4 145.5 L 195.8 146.2 L 196.3 146.1 L 196.7 143.7 L 197.2 144.6 L 197.6 144.3 L 198.1 141.4 L 198.5 139.6 L 199.0 141.2 L 199.4 142.7 L 199.9 141.4 L 200.3 140.0 L 200.8 140.0 L 201.2 141.9 L 201.7 144.5 L 202.1 145.3 L 202.6 146.6 L 203.0 150.9 L 203.5 151.7 L 203.9 151.7 L 204.4 151.2 L 204.8 150.9 L 205.3 151.8 L 205.7 155.0 L 206.2 152.0 L 206.6 149.8 L 207.1 149.8 L 207.5 150.2 L 208.0 153.2 L 208.4 153.7 L 208.9 152.5 L 209.3 153 L 209.8 153.9 L 210.2 153.9 L 210.7 154.5 L 211.1 154.6 L 211.6 153.8 L 212.0 155.9 L 212.5 157.1 L 212.9 155.3 L 213.4 155.3 L 213.8 154.7 L 214.3 157.2 L 214.7 158.3 L 215.2 160.1 L 215.6 163.3 L 216.1 163.7 L 216.5 163.7 L 217.0 165.4 L 217.4 165.0 L 217.9 167.0 L 218.3 167.7 L 218.8 168.5 L 219.2 167.1 L 219.7 167.1 L 220.2 166.7 L 220.6 167.0 L 221.1 170.2 L 221.5 169.4 L 222.0 168.9 L 222.4 170.6 L 222.9 170.6 L 223.3 169.7 L 223.8 170.0 L 224.2 167.3 L 224.7 167.3 L 225.1 166.0 L 225.6 167.2 L 226.0 167.2 L 226.5 168.3 L 226.9 166.7 L 227.4 164.8 L 227.8 163.7 L 228.3 161.8 L 228.7 163.5 L 229.2 163.6 L 229.6 164.7 L 230.1 165.4 L 230.5 166.6 L 231.0 163.2 L 231.4 162.0 L 231.9 162.5 L 232.3 162.6 L 232.8 161.7 L 233.2 160.0 L 233.7 160.0 L 234.1 159.3 L 234.6 158.8 L 235.0 158.8 L 235.5 158.8 L 235.9 159.7 L 236.4 160.2 L 236.8 158.9 L 237.3 159.1 L 237.7 159.2 L 238.2 159.4 L 238.6 159.4 L 239.1 160.2 L 239.5 162.8 L 240.0 163.3 L 240.4 161.3 L 240.9 156.2 L 241.3 155.0 L 241.8 155.0 L 242.2 154.0 L 242.7 153.6 L 243.1 150.7 L 243.6 151.4 L 244.0 152.7 L 244.5 155.8 L 244.9 155.8 L 245.4 156.8 L 245.8 157.5 L 246.3 158.2 L 246.7 156.3 L 247.2 157.2 L 247.6 160.4 L 248.1 160.4 L 248.5 160.1 L 249.0 160.2 L 249.4 159.1 L 249.9 160.1 L 250.3 160.9 L 250.8 164.4 L 251.2 164.4 L 251.7 166.3 L 252.1 168.8 L 252.6 168.8 L 253.0 168.8 L 253.5 168.0 L 253.9 169.2 L 254.4 169.2 L 254.8 169.3 L 255.3 170.9 L 255.7 176.2 L 256.2 177.0 L 256.6 177.9 L 257.1 177.6 L 257.5 177.6 L 258.0 177.8 L 258.4 177.7 L 258.9 178.8 L 259.3 179.2 L 259.8 179.1 L 260.2 180.0 L 260.7 180.0 L 261.1 180.0 L 261.6 180.0 L 262.0 177.2 L 262.5 174.6 L 262.9 173.2 L 263.4 169.6 L 263.8 169.6 L 264.3 170.9 L 264.7 173.7 L 265.2 171.6 L 265.6 171.8 L 266.1 174.6 L 266.5 177.1 L 267.0 177.1 L 267.4 179.3 L 267.9 178.1 L 268.3 177.0 L 268.8 176.4 L 269.2 172.1 L 269.7 172.8 L 270.1 172.8 L 270.6 171.5 L 271.0 167.4 L 271.5 162.2 L 271.9 157.6 L 272.4 159.4 L 272.8 160.7 L 273.3 160.7 L 273.7 161.6 L 274.2 161.2 L 274.6 161.7 L 275.1 165.5 L 275.5 167.7 L 276.0 171.8 L 276.4 171.8 L 276.9 171.3 L 277.3 170.1 L 277.8 168.7 L 278.2 170.5 L 278.7 171.0 L 279.1 169.3 L 279.6 169.3 L 280.0 169.7 L 280.5 168.1 L 280.9 168.7 L 281.4 171.2 L 281.8 174.0 L 282.3 176.8 L 282.7 176.8 L 283.2 178.0 L 283.7 179.3 L 284.1 182.2 L 284.6 183.9 L 285.0 182.6 L 285.5 182.5 L 285.9 182.5 L 286.4 182.5 L 286.8 182.6 L 287.3 187.7 L 287.7 190.4 L 288.2 193.2 L 288.6 193.9 L 289.1 193.9 L 289.5 194.5 L 290.0 194.5 L 290.4 196.2 L 290.9 196.8 L 291.3 199.0 L 291.8 202.7 L 292.2 202.8 L 292.7 202.0 L 293.1 199.3 L 293.6 197.5 L 294.0 194.9 L 294.5 196.1 L 294.9 196.1 L 295.4 196.1 L 295.8 194.7 L 296.3 191.9 L 296.7 195.9 L 297.2 198.5 L 297.6 198.9 L 298.1 198.3 L 298.5 198.3 L 299.0 199.4 L 299.4 198.7 L 299.9 198.7 L 300.3 202.2 L 300.8 204.0 L 301.2 204.5 L 301.7 204.6 L 302.1 202.5 L 302.6 200.3 L 303.0 201.8 L 303.5 203.7 L 303.9 207.3 L 304.4 209.1 L 304.8 209.1 L 305.3 210.2 L 305.7 210.1 L 306.2 211.9 L 306.6 212.2 L 307.1 212.7 L 307.5 214.8 L 308.0 215.1 L 308.4 213.7 L 308.9 215.2 L 309.3 220.9 L 309.8 222.0 L 310.2 223.6 L 310.7 222.8 L 311.1 222.8 L 311.6 219.6 L 312.0 218.3 L 312.5 222.1 L 312.9 221.6 L 313.4 220.6 L 313.8 222.0 L 314.3 222.1 L 314.7 222.1 L 315.2 225.2 L 315.6 229.9 L 316.1 231.0 L 316.5 231.4 L 317.0 230.3 L 317.4 230.1 L 317.9 230.6 L 318.3 231.4 L 318.8 228.3 L 319.2 228.3 L 319.7 225.9 L 320.1 222.5 L 320.6 220.7 L 321.0 222.0 L 321.5 223.8 L 321.9 225.1 L 322.4 219.4 L 322.8 221.0 L 323.3 221.8 L 323.7 221.8 L 324.2 222.7 L 324.6 224.5 L 325.1 223.0 L 325.5 223.4 L 326.0 217.4 L 326.4 210.8 L 326.9 210.8 L 327.3 209.6 L 327.8 209.7 L 328.2 209.5 L 328.7 207.6 L 329.1 207.5 L 329.6 208.4 L 330.0 208.4 L 330.5 209.1 L 330.9 209.3 L 331.4 211.3 L 331.8 215.5 L 332.3 221.9 L 332.7 225.0 L 333.2 225.0 L 333.6 224.0 L 334.1 218.7 L 334.5 221.9 L 335.0 225.3 L 335.4 226.1 L 335.9 225.9 L 336.3 225.9 L 336.8 224.7 L 337.2 224.3 L 337.7 224.0 L 338.1 223.8 L 338.6 228.4 L 339.0 227.4 L 339.5 227.4 L 339.9 230.9 L 340.4 231.9 L 340.8 228.0 L 341.3 222.2 L 341.7 221.2 L 342.2 220.1 L 342.6 220.1 L 343.1 215.5 L 343.5 213.8 L 344.0 219.5 L 344.4 221.9 L 344.9 225.6 L 345.3 222.9 L 345.8 222.9 L 346.2 224.7 L 346.7 227.5 L 347.2 227.9 L 347.6 231.2 L 348.1 231.6 L 348.5 228.6 L 349.0 228.6 L 349.4 229.4 L 349.9 226.4 L 350.3 221.0 L 350.8 218.6 L 351.2 213.8 L 351.7 214.6 L 352.1 214.6 L 352.6 216.0 L 353.0 216.3 L 353.5 218.0 L 353.9 219.0 L 354.4 222.0 L 354.8 223.0 L 355.3 223.0 L 355.7 222.1 L 356.2 224.1 L 356.6 224.1 L 357.1 226.0 L 357.5 229.7 L 358.0 229.8 L 358.4 229.8 L 358.9 229.7 L 359.3 231.2 L 359.8 239.6 L 360.2 243.6 L 360.7 246.5 L 361.1 245.8 L 361.6 245.8 L 362.0 246.7 L 362.5 247.0 L 362.9 247.4 L 363.4 251.7 L 363.8 254.7 L 364.3 253.5 L 364.7 253.5 L 365.2 254.2 L 365.6 253.9 L 366.1 256.1 L 366.5 262.7 L 367.0 264.5 L 367.4 267.0 L 367.9 267.0 L 368.3 271.2 L 368.8 270.9 L 369.2 267.4 L 369.7 261.2 L 370.1 257.2 L 370.6 256.9 L 371.0 256.9 L 371.5 255.6 L 371.9 261.3 L 372.4 267.5 L 372.8 272.4 L 373.3 271.7 L 373.7 272.0 L 374.2 272.0 L 374.6 272.3 L 375.1 268.1 L 375.5 264.8 L 376.0 265.6 L 376.4 268.8 L 376.9 269.6 L 377.3 269.6 L 377.8 268.4 L 378.2 269.5 L 378.7 269.8 L 379.1 273.3 L 379.6 272.1 L 380.0 272.5 L 380.5 272.2 L 380.9 271.1 L 381.4 273.2 L 381.8 275.1 L 382.3 277.6 L 382.7 274.5 L 383.2 272.9 L 383.6 272.9 L 384.1 274.6 L 384.5 277.7 L 385.0 278.5 L 385.4 271.8 L 385.9 266.0 L 386.3 265.2 L 386.8 265.0 L 387.2 265.6 L 387.7 264.4 L 388.1 262.8 L 388.6 262.2 L 389.0 257.8 L 389.5 256.5 L 389.9 256.4 L 390.4 258.3 L 390.8 260.7 L 391.3 258.3 L 391.7 254.0 L 392.2 257.2 L 392.6 258.9 L 393.1 258.9 L 393.5 258.2 L 394.0 260.2 L 394.4 258.0 L 394.9 258.9 L 395.3 259.8 L 395.8 262.9 L 396.2 262.9 L 396.7 262.6 L 397.1 263.7 L 397.6 268.6 L 398.0 270.7 L 398.5 270.2 L 398.9 270.7 L 399.4 270.7 L 399.8 271.0 L 400.3 270.7 L 400.7 267.3 L 401.2 263.5 L 401.6 260.9 L 402.1 262.0 L 402.5 262.0 L 403.0 261.6 L 403.4 261.1 L 403.9 257.7 L 404.3 258.1 L 404.8 266.6 L 405.2 269.6 L 405.7 271.3 L 406.1 270.7 L 406.6 262.1 L 407.0 259.8 L 407.5 258.3 L 407.9 254.3 L 408.4 254.5 L 408.8 254.6 L 409.3 256.9 L 409.7 259.9 L 410.2 260.0 L 410.7 261.0 L 411.1 263.7 L 411.6 264.2 L 412.0 264.2 L 412.5 262.3 L 412.9 262.0 L 413.4 263.3 L 413.8 268.1 L 414.3 270.4 L 414.7 272.0 L 415.2 271.9 L 415.6 271.5 L 416.1 271.1 L 416.5 273.3 L 417.0 273.5 L 417.4 268.2 L 417.9 268.4 L 418.3 268.4 L 418.8 266.9 L 419.2 268.1 L 419.7 268.1 L 420.1 269.7 L 420.6 273.3 L 421.0 277.7 L 421.5 277.8 L 421.9 276.3 L 422.4 278.0 L 422.8 276.1 L 423.3 274.2 L 423.7 274.3 L 424.2 274.1 L 424.6 274.1 L 425.1 274.9 L 425.5 276.0 L 426.0 270.5 L 426.4 267.4 L 426.9 268.4 L 427.3 268.4 L 427.8 268.4 L 428.2 269.2 L 428.7 268.2 L 429.1 263.3 L 429.6 264.0 L 430.0 261.6 L 430.5 262.4 L 430.9 262.4 L 431.4 263.2 L 431.8 260.5 L 432.3 258.2 L 432.7 256.3 L 433.2 245.4 L 433.6 238.0 L 434.1 238.0 L 434.5 236.8 L 435.0 233.3 L 435.4 234.0 L 435.9 232.7 L 436.3 226.0 L 436.8 223.2 L 437.2 223.2 L 437.7 225.0 L 438.1 223.9 L 438.6 226.3 L 439.0 228.8 L 439.5 231.0 L 439.9 228.1 L 440.4 228.2 L 440.8 226.7 L 441.3 222.8 L 441.7 224.1 L 442.2 226.4 L 442.6 224.8 L 443.1 222.6 L 443.5 222.6 L 444.0 221.1 L 444.4 216.5 L 444.9 212.9 L 445.3 212.7 L 445.8 203.0 L 446.2 202.7 L 446.7 202.9 L 447.1 203.4 L 447.6 196.2 L 448.0 195.1 L 448.5 186.6 L 448.9 193.2 L 449.4 200.8 L 449.8 201.0 L 450.3 203.3 L 450.7 200.4 L 451.2 199.4 L 451.6 208.4 L 452.1 205.2 L 452.5 212.6 L 453.0 212.7 L 453.4 218.3 L 453.9 226.6 L 454.3 222.8 L 454.8 222.8 L 455.2 220.0 L 455.7 219.7 L 456.1 219.7 L 456.6 211.8 L 457.0 204.3 L 457.5 194.0 L 457.9 184.8 L 458.4 180.3 L 458.8 177.2 L 459.3 176.8 L 459.7 167.3 L 460.2 166.4 L 460.6 169.6 L 461.1 171.6 L 461.5 164.5 L 462.0 156.3 L 462.4 156.9 L 462.9 166.6 L 463.3 171.4 L 463.8 167.1 L 464.2 159.4 L 464.7 159.9 L 465.1 156.9 L 465.6 156.9 L 466.0 157.6 L 466.5 148.0 L 466.9 128.3 L 467.4 122.2 L 467.8 111.8 L 468.3 114.6 L 468.7 109.3 L 469.2 102.9 L 469.6 101.2 L 470.1 120.0 L 470.5 136.5 L 471.0 117.2 L 471.4 115.9 L 471.9 116.0 L 472.3 120.2 L 472.8 116.4 L 473.2 129.4 L 473.7 124.5 L 474.1 117.9 L 474.6 115.6 L 475.1 115.8 L 475.5 123.6 L 476.0 114.7 L 476.4 104.9 L 476.9 101.5 L 477.3 116.5 L 477.8 108.9 L 478.2 108.3 L 478.7 109.4 L 479.1 110.3 L 479.6 110.2 L 480.0 103.1 L 480.5 103.2 L 480.9 107.2 L 481.4 107.3 L 481.8 114.0 L 482.3 128.0 L 482.7 131.5 L 483.2 127.4 L 483.6 123.3 L 484.1 114.0 L 484.5 114.0 L 485.0 112.3 L 485.4 111.6 L 485.9 113.3 L 486.3 114.3 L 486.8 116.7 L 487.2 115.6 L 487.7 115.7 L 488.1 122.9 L 488.6 126.6 L 489.0 130.8 L 489.5 141.7 L 489.9 153.3 L 490.4 155.9 L 490.8 155.7 L 491.3 162.4 L 491.7 174.6 L 492.2 196.4 L 492.6 211.4 L 493.1 195.5 L 493.5 184.5 L 494.0 184.6 L 494.4 188.3 L 494.9 188.0 L 495.3 187.8 L 495.8 189.7 L 496.2 191.8 L 496.7 190.8 L 497.1 190.8 L 497.6 199.0 L 498.0 194.3" stroke="black" stroke-width="3"  stroke-linejoin="round" stroke-linecap="round"  stroke-opacity="0.0" transform="translate(1, 1)"></path><path fill="none" d="M 4.9 56.5 L 5.3 56.6 L 5.8 56.7 L 6.2 55.9 L 6.7 59.3 L 7.1 75.0 L 7.6 75.6 L 8.0 78.3 L 8.5 78.2 L 8.9 75.6 L 9.4 73.1 L 9.8 73.6 L 10.3 75.8 L 10.7 72.2 L 11.2 77.6 L 11.6 77.6 L 12.1 77.0 L 12.5 74.9 L 13.0 75.3 L 13.4 74.5 L 13.9 74.1 L 14.3 77.1 L 14.8 77.1 L 15.2 84.4 L 15.7 87.8 L 16.1 87.1 L 16.6 85.2 L 17.0 81.6 L 17.5 74.5 L 17.9 74.5 L 18.4 74.5 L 18.8 75.6 L 19.3 76.8 L 19.7 72.8 L 20.2 72.5 L 20.6 69.7 L 21.1 69.3 L 21.5 68.0 L 22.0 66.0 L 22.4 65.5 L 22.9 65.7 L 23.3 65.8 L 23.8 60.8 L 24.2 60.8 L 24.7 60.5 L 25.1 60.8 L 25.6 61.6 L 26.0 59.3 L 26.5 60.2 L 26.9 62.8 L 27.4 62.6 L 27.8 64.0 L 28.3 62.2 L 28.8 61.2 L 29.2 62.3 L 29.7 61.2 L 30.1 58.8 L 30.6 58.8 L 31.0 57.6 L 31.5 58.9 L 31.9 63.2 L 32.4 63.9 L 32.8 69.7 L 33.3 71.0 L 33.7 71.0 L 34.2 71.1 L 34.6 64.3 L 35.1 61.2 L 35.5 62.7 L 36.0 61.2 L 36.4 61.0 L 36.9 60.9 L 37.3 63.1 L 37.8 66.1 L 38.2 69.9 L 38.7 74.1 L 39.1 80.2 L 39.6 80.8 L 40.0 80.8 L 40.5 80.0 L 40.9 77.3 L 41.4 74.1 L 41.8 71.2 L 42.3 66.7 L 42.7 70.1 L 43.2 70.1 L 43.6 70.1 L 44.1 70.7 L 44.5 68.6 L 45.0 73.2 L 45.4 77.5 L 45.9 75.9 L 46.3 75.8 L 46.8 74.1 L 47.2 80.6 L 47.7 86.5 L 48.1 86.8 L 48.6 80.2 L 49.0 74.1 L 49.5 74.1 L 49.9 75.3 L 50.4 76.2 L 50.8 77.5 L 51.3 75.2 L 51.7 75.6 L 52.2 75.3 L 52.6 75.4 L 53.1 81.7 L 53.5 86.3 L 54.0 92.1 L 54.4 91.6 L 54.9 89.8 L 55.3 91.0 L 55.8 91.2 L 56.2 93.4 L 56.7 94.9 L 57.1 97.2 L 57.6 99.6 L 58.0 105.5 L 58.5 110.2 L 58.9 110.0 L 59.4 109.9 L 59.8 108.7 L 60.3 110.3 L 60.7 110.6 L 61.2 115.2 L 61.6 116.1 L 62.1 116.1 L 62.5 116.9 L 63.0 115.5 L 63.4 119.6 L 63.9 118.9 L 64.3 125.8 L 64.8 127.3 L 65.2 128.6 L 65.7 125.7 L 66.1 122.1 L 66.6 123.6 L 67.0 119.5 L 67.5 120.7 L 67.9 119.4 L 68.4 119.3 L 68.8 119.4 L 69.3 124.3 L 69.7 121.2 L 70.2 119.2 L 70.6 119.7 L 71.1 116.7 L 71.5 116.7 L 72.0 117.8 L 72.4 122.6 L 72.9 124.7 L 73.3 120.1 L 73.8 123.9 L 74.2 128.1 L 74.7 128.2 L 75.1 129.9 L 75.6 125.8 L 76.0 121.7 L 76.5 117.2 L 76.9 111.4 L 77.4 110.9 L 77.8 110.8 L 78.3 109.0 L 78.7 106.8 L 79.2 106.9 L 79.6 109.3 L 80.1 111.1 L 80.5 110.8 L 81.0 110.9 L 81.4 108.0 L 81.9 106.7 L 82.3 110.0 L 82.8 110.2 L 83.2 105.2 L 83.7 102.1 L 84.1 102.1 L 84.6 104.6 L 85.0 107.9 L 85.5 106.0 L 85.9 105.1 L 86.4 116.0 L 86.8 120.2 L 87.3 120.2 L 87.7 120.2 L 88.2 121.2 L 88.6 119.0 L 89.1 117.4 L 89.5 120.4 L 90.0 121.4 L 90.4 121.4 L 90.9 119.6 L 91.3 117.5 L 91.8 117.2 L 92.2 114.9 L 92.7 112.8 L 93.2 111.4 L 93.6 111.2 L 94.1 107.4 L 94.5 103.3 L 95.0 103.0 L 95.4 109.4 L 95.9 112.1 L 96.3 114.4 L 96.8 114.4 L 97.2 111.4 L 97.7 109.9 L 98.1 108.4 L 98.6 116.2 L 99.0 115.2 L 99.5 118.5 L 99.9 118.5 L 100.4 118.6 L 100.8 118.7 L 101.3 121.7 L 101.7 119.8 L 102.2 122.6 L 102.6 125.4 L 103.1 125.4 L 103.5 125.2 L 104.0 123.1 L 104.4 123.6 L 104.9 123.9 L 105.3 119.1 L 105.8 115.7 L 106.2 115.7 L 106.7 116.9 L 107.1 117.6 L 107.6 121.4 L 108.0 124.4 L 108.5 122.5 L 108.9 122.3 L 109.4 122.2 L 109.8 125.9 L 110.3 123.9 L 110.7 121.2 L 111.2 120.3 L 111.6 118.8 L 112.1 117.8 L 112.5 117.9 L 113.0 120.3 L 113.4 121.2 L 113.9 122.9 L 114.3 123.0 L 114.8 121.7 L 115.2 123.0 L 115.7 123.0 L 116.1 124.6 L 116.6 123.1 L 117.0 121.5 L 117.5 119.9 L 117.9 115.2 L 118.4 112.8 L 118.8 112.9 L 119.3 114.0 L 119.7 115.1 L 120.2 114.0 L 120.6 115.1 L 121.1 114.4 L 121.5 112.1 L 122.0 112.0 L 122.4 112.4 L 122.9 114.3 L 123.3 113.6 L 123.8 116.4 L 124.2 120.9 L 124.7 119.8 L 125.1 119.7 L 125.6 119.7 L 126.0 116.2 L 126.5 114.4 L 126.9 115.4 L 127.4 113.9 L 127.8 112.9 L 128.3 113.0 L 128.7 114.6 L 129.2 117.2 L 129.6 115.2 L 130.1 114.9 L 130.5 112.0 L 131.0 108.5 L 131.4 108.2 L 131.9 108.3 L 132.3 106.4 L 132.8 104.5 L 133.2 104.2 L 133.7 104.8 L 134.1 102.5 L 134.6 102.5 L 135.0 102.6 L 135.5 104.4 L 135.9 104.3 L 136.4 106.0 L 136.8 109.9 L 137.3 109.3 L 137.7 109.2 L 138.2 107.3 L 138.6 105.0 L 139.1 106.7 L 139.5 111.4 L 140.0 115.0 L 140.4 117.0 L 140.9 117.0 L 141.3 116.2 L 141.8 116.0 L 142.2 118.7 L 142.7 118.6 L 143.1 118.3 L 143.6 115.5 L 144.0 115.5 L 144.5 115.3 L 144.9 118.6 L 145.4 119.6 L 145.8 119.8 L 146.3 124.5 L 146.7 123.3 L 147.2 123.4 L 147.6 123.7 L 148.1 122.3 L 148.5 121.6 L 149.0 122.0 L 149.4 120.6 L 149.9 122.5 L 150.3 122.5 L 150.8 122.9 L 151.2 122.2 L 151.7 125.9 L 152.1 130.0 L 152.6 134.3 L 153.0 138.6 L 153.5 138.8 L 153.9 141.1 L 154.4 141.9 L 154.8 143.8 L 155.3 144.6 L 155.7 149.0 L 156.2 153 L 156.7 153 L 157.1 152.2 L 157.6 152.4 L 158.0 151.3 L 158.5 150.7 L 158.9 149.8 L 159.4 145.1 L 159.8 145.1 L 160.3 144.6 L 160.7 147.8 L 161.2 148.7 L 161.6 145.2 L 162.1 141.1 L 162.5 137.9 L 163.0 137.9 L 163.4 138.6 L 163.9 141.3 L 164.3 145.8 L 164.8 144.1 L 165.2 144.0 L 165.7 140.7 L 166.1 140.7 L 166.6 141.0 L 167.0 140.9 L 167.5 141.2 L 167.9 141.5 L 168.4 143.2 L 168.8 144.8 L 169.3 144.8 L 169.7 144.8 L 170.2 148.2 L 170.6 148.0 L 171.1 141.4 L 171.5 137.1 L 172.0 133.3 L 172.4 133.2 L 172.9 133.8 L 173.3 134.8 L 173.8 131.7 L 174.2 129.8 L 174.7 127.6 L 175.1 128.4 L 175.6 128.4 L 176.0 129.3 L 176.5 129.8 L 176.9 128.8 L 177.4 130.1 L 177.8 131.3 L 178.3 130.5 L 178.7 130.4 L 179.2 130.8 L 179.6 132.1 L 180.1 133.6 L 180.5 131.4 L 181.0 128.5 L 181.4 128.0 L 181.9 128.0 L 182.3 128.5 L 182.8 130.9 L 183.2 131.2 L 183.7 134.8 L 184.1 133.8 L 184.6 130.7 L 185.0 130.7 L 185.5 129.7 L 185.9 129.6 L 186.4 132.8 L 186.8 134.1 L 187.3 134.5 L 187.7 133.6 L 188.2 133.6 L 188.6 132.8 L 189.1 132.7 L 189.5 137.5 L 190.0 141.4 L 190.4 141.1 L 190.9 141.3 L 191.3 141.3 L 191.8 142.0 L 192.2 142.5 L 192.7 141.6 L 193.1 140.5 L 193.6 141.2 L 194.0 143.0 L 194.5 143.0 L 194.9 143.6 L 195.4 145.5 L 195.8 146.2 L 196.3 146.1 L 196.7 143.7 L 197.2 144.6 L 197.6 144.3 L 198.1 141.4 L 198.5 139.6 L 199.0 141.2 L 199.4 142.7 L 199.9 141.4 L 200.3 140.0 L 200.8 140.0 L 201.2 141.9 L 201.7 144.5 L 202.1 145.3 L 202.6 146.6 L 203.0 150.9 L 203.5 151.7 L 203.9 151.7 L 204.4 151.2 L 204.8 150.9 L 205.3 151.8 L 205.7 155.0 L 206.2 152.0 L 206.6 149.8 L 207.1 149.8 L 207.5 150.2 L 208.0 153.2 L 208.4 153.7 L 208.9 152.5 L 209.3 153 L 209.8 153.9 L 210.2 153.9 L 210.7 154.5 L 211.1 154.6 L 211.6 153.8 L 212.0 155.9 L 212.5 157.1 L 212.9 155.3 L 213.4 155.3 L 213.8 154.7 L 214.3 157.2 L 214.7 158.3 L 215.2 160.1 L 215.6 163.3 L 216.1 163.7 L 216.5 163.7 L 217.0 165.4 L 217.4 165.0 L 217.9 167.0 L 218.3 167.7 L 218.8 168.5 L 219.2 167.1 L 219.7 167.1 L 220.2 166.7 L 220.6 167.0 L 221.1 170.2 L 221.5 169.4 L 222.0 168.9 L 222.4 170.6 L 222.9 170.6 L 223.3 169.7 L 223.8 170.0 L 224.2 167.3 L 224.7 167.3 L 225.1 166.0 L 225.6 167.2 L 226.0 167.2 L 226.5 168.3 L 226.9 166.7 L 227.4 164.8 L 227.8 163.7 L 228.3 161.8 L 228.7 163.5 L 229.2 163.6 L 229.6 164.7 L 230.1 165.4 L 230.5 166.6 L 231.0 163.2 L 231.4 162.0 L 231.9 162.5 L 232.3 162.6 L 232.8 161.7 L 233.2 160.0 L 233.7 160.0 L 234.1 159.3 L 234.6 158.8 L 235.0 158.8 L 235.5 158.8 L 235.9 159.7 L 236.4 160.2 L 236.8 158.9 L 237.3 159.1 L 237.7 159.2 L 238.2 159.4 L 238.6 159.4 L 239.1 160.2 L 239.5 162.8 L 240.0 163.3 L 240.4 161.3 L 240.9 156.2 L 241.3 155.0 L 241.8 155.0 L 242.2 154.0 L 242.7 153.6 L 243.1 150.7 L 243.6 151.4 L 244.0 152.7 L 244.5 155.8 L 244.9 155.8 L 245.4 156.8 L 245.8 157.5 L 246.3 158.2 L 246.7 156.3 L 247.2 157.2 L 247.6 160.4 L 248.1 160.4 L 248.5 160.1 L 249.0 160.2 L 249.4 159.1 L 249.9 160.1 L 250.3 160.9 L 250.8 164.4 L 251.2 164.4 L 251.7 166.3 L 252.1 168.8 L 252.6 168.8 L 253.0 168.8 L 253.5 168.0 L 253.9 169.2 L 254.4 169.2 L 254.8 169.3 L 255.3 170.9 L 255.7 176.2 L 256.2 177.0 L 256.6 177.9 L 257.1 177.6 L 257.5 177.6 L 258.0 177.8 L 258.4 177.7 L 258.9 178.8 L 259.3 179.2 L 259.8 179.1 L 260.2 180.0 L 260.7 180.0 L 261.1 180.0 L 261.6 180.0 L 262.0 177.2 L 262.5 174.6 L 262.9 173.2 L 263.4 169.6 L 263.8 169.6 L 264.3 170.9 L 264.7 173.7 L 265.2 171.6 L 265.6 171.8 L 266.1 174.6 L 266.5 177.1 L 267.0 177.1 L 267.4 179.3 L 267.9 178.1 L 268.3 177.0 L 268.8 176.4 L 269.2 172.1 L 269.7 172.8 L 270.1 172.8 L 270.6 171.5 L 271.0 167.4 L 271.5 162.2 L 271.9 157.6 L 272.4 159.4 L 272.8 160.7 L 273.3 160.7 L 273.7 161.6 L 274.2 161.2 L 274.6 161.7 L 275.1 165.5 L 275.5 167.7 L 276.0 171.8 L 276.4 171.8 L 276.9 171.3 L 277.3 170.1 L 277.8 168.7 L 278.2 170.5 L 278.7 171.0 L 279.1 169.3 L 279.6 169.3 L 280.0 169.7 L 280.5 168.1 L 280.9 168.7 L 281.4 171.2 L 281.8 174.0 L 282.3 176.8 L 282.7 176.8 L 283.2 178.0 L 283.7 179.3 L 284.1 182.2 L 284.6 183.9 L 285.0 182.6 L 285.5 182.5 L 285.9 182.5 L 286.4 182.5 L 286.8 182.6 L 287.3 187.7 L 287.7 190.4 L 288.2 193.2 L 288.6 193.9 L 289.1 193.9 L 289.5 194.5 L 290.0 194.5 L 290.4 196.2 L 290.9 196.8 L 291.3 199.0 L 291.8 202.7 L 292.2 202.8 L 292.7 202.0 L 293.1 199.3 L 293.6 197.5 L 294.0 194.9 L 294.5 196.1 L 294.9 196.1 L 295.4 196.1 L 295.8 194.7 L 296.3 191.9 L 296.7 195.9 L 297.2 198.5 L 297.6 198.9 L 298.1 198.3 L 298.5 198.3 L 299.0 199.4 L 299.4 198.7 L 299.9 198.7 L 300.3 202.2 L 300.8 204.0 L 301.2 204.5 L 301.7 204.6 L 302.1 202.5 L 302.6 200.3 L 303.0 201.8 L 303.5 203.7 L 303.9 207.3 L 304.4 209.1 L 304.8 209.1 L 305.3 210.2 L 305.7 210.1 L 306.2 211.9 L 306.6 212.2 L 307.1 212.7 L 307.5 214.8 L 308.0 215.1 L 308.4 213.7 L 308.9 215.2 L 309.3 220.9 L 309.8 222.0 L 310.2 223.6 L 310.7 222.8 L 311.1 222.8 L 311.6 219.6 L 312.0 218.3 L 312.5 222.1 L 312.9 221.6 L 313.4 220.6 L 313.8 222.0 L 314.3 222.1 L 314.7 222.1 L 315.2 225.2 L 315.6 229.9 L 316.1 231.0 L 316.5 231.4 L 317.0 230.3 L 317.4 230.1 L 317.9 230.6 L 318.3 231.4 L 318.8 228.3 L 319.2 228.3 L 319.7 225.9 L 320.1 222.5 L 320.6 220.7 L 321.0 222.0 L 321.5 223.8 L 321.9 225.1 L 322.4 219.4 L 322.8 221.0 L 323.3 221.8 L 323.7 221.8 L 324.2 222.7 L 324.6 224.5 L 325.1 223.0 L 325.5 223.4 L 326.0 217.4 L 326.4 210.8 L 326.9 210.8 L 327.3 209.6 L 327.8 209.7 L 328.2 209.5 L 328.7 207.6 L 329.1 207.5 L 329.6 208.4 L 330.0 208.4 L 330.5 209.1 L 330.9 209.3 L 331.4 211.3 L 331.8 215.5 L 332.3 221.9 L 332.7 225.0 L 333.2 225.0 L 333.6 224.0 L 334.1 218.7 L 334.5 221.9 L 335.0 225.3 L 335.4 226.1 L 335.9 225.9 L 336.3 225.9 L 336.8 224.7 L 337.2 224.3 L 337.7 224.0 L 338.1 223.8 L 338.6 228.4 L 339.0 227.4 L 339.5 227.4 L 339.9 230.9 L 340.4 231.9 L 340.8 228.0 L 341.3 222.2 L 341.7 221.2 L 342.2 220.1 L 342.6 220.1 L 343.1 215.5 L 343.5 213.8 L 344.0 219.5 L 344.4 221.9 L 344.9 225.6 L 345.3 222.9 L 345.8 222.9 L 346.2 224.7 L 346.7 227.5 L 347.2 227.9 L 347.6 231.2 L 348.1 231.6 L 348.5 228.6 L 349.0 228.6 L 349.4 229.4 L 349.9 226.4 L 350.3 221.0 L 350.8 218.6 L 351.2 213.8 L 351.7 214.6 L 352.1 214.6 L 352.6 216.0 L 353.0 216.3 L 353.5 218.0 L 353.9 219.0 L 354.4 222.0 L 354.8 223.0 L 355.3 223.0 L 355.7 222.1 L 356.2 224.1 L 356.6 224.1 L 357.1 226.0 L 357.5 229.7 L 358.0 229.8 L 358.4 229.8 L 358.9 229.7 L 359.3 231.2 L 359.8 239.6 L 360.2 243.6 L 360.7 246.5 L 361.1 245.8 L 361.6 245.8 L 362.0 246.7 L 362.5 247.0 L 362.9 247.4 L 363.4 251.7 L 363.8 254.7 L 364.3 253.5 L 364.7 253.5 L 365.2 254.2 L 365.6 253.9 L 366.1 256.1 L 366.5 262.7 L 367.0 264.5 L 367.4 267.0 L 367.9 267.0 L 368.3 271.2 L 368.8 270.9 L 369.2 267.4 L 369.7 261.2 L 370.1 257.2 L 370.6 256.9 L 371.0 256.9 L 371.5 255.6 L 371.9 261.3 L 372.4 267.5 L 372.8 272.4 L 373.3 271.7 L 373.7 272.0 L 374.2 272.0 L 374.6 272.3 L 375.1 268.1 L 375.5 264.8 L 376.0 265.6 L 376.4 268.8 L 376.9 269.6 L 377.3 269.6 L 377.8 268.4 L 378.2 269.5 L 378.7 269.8 L 379.1 273.3 L 379.6 272.1 L 380.0 272.5 L 380.5 272.2 L 380.9 271.1 L 381.4 273.2 L 381.8 275.1 L 382.3 277.6 L 382.7 274.5 L 383.2 272.9 L 383.6 272.9 L 384.1 274.6 L 384.5 277.7 L 385.0 278.5 L 385.4 271.8 L 385.9 266.0 L 386.3 265.2 L 386.8 265.0 L 387.2 265.6 L 387.7 264.4 L 388.1 262.8 L 388.6 262.2 L 389.0 257.8 L 389.5 256.5 L 389.9 256.4 L 390.4 258.3 L 390.8 260.7 L 391.3 258.3 L 391.7 254.0 L 392.2 257.2 L 392.6 258.9 L 393.1 258.9 L 393.5 258.2 L 394.0 260.2 L 394.4 258.0 L 394.9 258.9 L 395.3 259.8 L 395.8 262.9 L 396.2 262.9 L 396.7 262.6 L 397.1 263.7 L 397.6 268.6 L 398.0 270.7 L 398.5 270.2 L 398.9 270.7 L 399.4 270.7 L 399.8 271.0 L 400.3 270.7 L 400.7 267.3 L 401.2 263.5 L 401.6 260.9 L 402.1 262.0 L 402.5 262.0 L 403.0 261.6 L 403.4 261.1 L 403.9 257.7 L 404.3 258.1 L 404.8 266.6 L 405.2 269.6 L 405.7 271.3 L 406.1 270.7 L 406.6 262.1 L 407.0 259.8 L 407.5 258.3 L 407.9 254.3 L 408.4 254.5 L 408.8 254.6 L 409.3 256.9 L 409.7 259.9 L 410.2 260.0 L 410.7 261.0 L 411.1 263.7 L 411.6 264.2 L 412.0 264.2 L 412.5 262.3 L 412.9 262.0 L 413.4 263.3 L 413.8 268.1 L 414.3 270.4 L 414.7 272.0 L 415.2 271.9 L 415.6 271.5 L 416.1 271.1 L 416.5 273.3 L 417.0 273.5 L 417.4 268.2 L 417.9 268.4 L 418.3 268.4 L 418.8 266.9 L 419.2 268.1 L 419.7 268.1 L 420.1 269.7 L 420.6 273.3 L 421.0 277.7 L 421.5 277.8 L 421.9 276.3 L 422.4 278.0 L 422.8 276.1 L 423.3 274.2 L 423.7 274.3 L 424.2 274.1 L 424.6 274.1 L 425.1 274.9 L 425.5 276.0 L 426.0 270.5 L 426.4 267.4 L 426.9 268.4 L 427.3 268.4 L 427.8 268.4 L 428.2 269.2 L 428.7 268.2 L 429.1 263.3 L 429.6 264.0 L 430.0 261.6 L 430.5 262.4 L 430.9 262.4 L 431.4 263.2 L 431.8 260.5 L 432.3 258.2 L 432.7 256.3 L 433.2 245.4 L 433.6 238.0 L 434.1 238.0 L 434.5 236.8 L 435.0 233.3 L 435.4 234.0 L 435.9 232.7 L 436.3 226.0 L 436.8 223.2 L 437.2 223.2 L 437.7 225.0 L 438.1 223.9 L 438.6 226.3 L 439.0 228.8 L 439.5 231.0 L 439.9 228.1 L 440.4 228.2 L 440.8 226.7 L 441.3 222.8 L 441.7 224.1 L 442.2 226.4 L 442.6 224.8 L 443.1 222.6 L 443.5 222.6 L 444.0 221.1 L 444.4 216.5 L 444.9 212.9 L 445.3 212.7 L 445.8 203.0 L 446.2 202.7 L 446.7 202.9 L 447.1 203.4 L 447.6 196.2 L 448.0 195.1 L 448.5 186.6 L 448.9 193.2 L 449.4 200.8 L 449.8 201.0 L 450.3 203.3 L 450.7 200.4 L 451.2 199.4 L 451.6 208.4 L 452.1 205.2 L 452.5 212.6 L 453.0 212.7 L 453.4 218.3 L 453.9 226.6 L 454.3 222.8 L 454.8 222.8 L 455.2 220.0 L 455.7 219.7 L 456.1 219.7 L 456.6 211.8 L 457.0 204.3 L 457.5 194.0 L 457.9 184.8 L 458.4 180.3 L 458.8 177.2 L 459.3 176.8 L 459.7 167.3 L 460.2 166.4 L 460.6 169.6 L 461.1 171.6 L 461.5 164.5 L 462.0 156.3 L 462.4 156.9 L 462.9 166.6 L 463.3 171.4 L 463.8 167.1 L 464.2 159.4 L 464.7 159.9 L 465.1 156.9 L 465.6 156.9 L 466.0 157.6 L 466.5 148.0 L 466.9 128.3 L 467.4 122.2 L 467.8 111.8 L 468.3 114.6 L 468.7 109.3 L 469.2 102.9 L 469.6 101.2 L 470.1 120.0 L 470.5 136.5 L 471.0 117.2 L 471.4 115.9 L 471.9 116.0 L 472.3 120.2 L 472.8 116.4 L 473.2 129.4 L 473.7 124.5 L 474.1 117.9 L 474.6 115.6 L 475.1 115.8 L 475.5 123.6 L 476.0 114.7 L 476.4 104.9 L 476.9 101.5 L 477.3 116.5 L 477.8 108.9 L 478.2 108.3 L 478.7 109.4 L 479.1 110.3 L 479.6 110.2 L 480.0 103.1 L 480.5 103.2 L 480.9 107.2 L 481.4 107.3 L 481.8 114.0 L 482.3 128.0 L 482.7 131.5 L 483.2 127.4 L 483.6 123.3 L 484.1 114.0 L 484.5 114.0 L 485.0 112.3 L 485.4 111.6 L 485.9 113.3 L 486.3 114.3 L 486.8 116.7 L 487.2 115.6 L 487.7 115.7 L 488.1 122.9 L 488.6 126.6 L 489.0 130.8 L 489.5 141.7 L 489.9 153.3 L 490.4 155.9 L 490.8 155.7 L 491.3 162.4 L 491.7 174.6 L 492.2 196.4 L 492.6 211.4 L 493.1 195.5 L 493.5 184.5 L 494.0 184.6 L 494.4 188.3 L 494.9 188.0 L 495.3 187.8 L 495.8 189.7 L 496.2 191.8 L 496.7 190.8 L 497.1 190.8 L 497.6 199.0 L 498.0 194.3" stroke="black" stroke-width="1"  stroke-linejoin="round" stroke-linecap="round"  stroke-opacity="0.1" transform="translate(1, 1)"></path><path fill="none" d="M 4.9 56.5 L 5.3 56.6 L 5.8 56.7 L 6.2 55.9 L 6.7 59.3 L 7.1 75.0 L 7.6 75.6 L 8.0 78.3 L 8.5 78.2 L 8.9 75.6 L 9.4 73.1 L 9.8 73.6 L 10.3 75.8 L 10.7 72.2 L 11.2 77.6 L 11.6 77.6 L 12.1 77.0 L 12.5 74.9 L 13.0 75.3 L 13.4 74.5 L 13.9 74.1 L 14.3 77.1 L 14.8 77.1 L 15.2 84.4 L 15.7 87.8 L 16.1 87.1 L 16.6 85.2 L 17.0 81.6 L 17.5 74.5 L 17.9 74.5 L 18.4 74.5 L 18.8 75.6 L 19.3 76.8 L 19.7 72.8 L 20.2 72.5 L 20.6 69.7 L 21.1 69.3 L 21.5 68.0 L 22.0 66.0 L 22.4 65.5 L 22.9 65.7 L 23.3 65.8 L 23.8 60.8 L 24.2 60.8 L 24.7 60.5 L 25.1 60.8 L 25.6 61.6 L 26.0 59.3 L 26.5 60.2 L 26.9 62.8 L 27.4 62.6 L 27.8 64.0 L 28.3 62.2 L 28.8 61.2 L 29.2 62.3 L 29.7 61.2 L 30.1 58.8 L 30.6 58.8 L 31.0 57.6 L 31.5 58.9 L 31.9 63.2 L 32.4 63.9 L 32.8 69.7 L 33.3 71.0 L 33.7 71.0 L 34.2 71.1 L 34.6 64.3 L 35.1 61.2 L 35.5 62.7 L 36.0 61.2 L 36.4 61.0 L 36.9 60.9 L 37.3 63.1 L 37.8 66.1 L 38.2 69.9 L 38.7 74.1 L 39.1 80.2 L 39.6 80.8 L 40.0 80.8 L 40.5 80.0 L 40.9 77.3 L 41.4 74.1 L 41.8 71.2 L 42.3 66.7 L 42.7 70.1 L 43.2 70.1 L 43.6 70.1 L 44.1 70.7 L 44.5 68.6 L 45.0 73.2 L 45.4 77.5 L 45.9 75.9 L 46.3 75.8 L 46.8 74.1 L 47.2 80.6 L 47.7 86.5 L 48.1 86.8 L 48.6 80.2 L 49.0 74.1 L 49.5 74.1 L 49.9 75.3 L 50.4 76.2 L 50.8 77.5 L 51.3 75.2 L 51.7 75.6 L 52.2 75.3 L 52.6 75.4 L 53.1 81.7 L 53.5 86.3 L 54.0 92.1 L 54.4 91.6 L 54.9 89.8 L 55.3 91.0 L 55.8 91.2 L 56.2 93.4 L 56.7 94.9 L 57.1 97.2 L 57.6 99.6 L 58.0 105.5 L 58.5 110.2 L 58.9 110.0 L 59.4 109.9 L 59.8 108.7 L 60.3 110.3 L 60.7 110.6 L 61.2 115.2 L 61.6 116.1 L 62.1 116.1 L 62.5 116.9 L 63.0 115.5 L 63.4 119.6 L 63.9 118.9 L 64.3 125.8 L 64.8 127.3 L 65.2 128.6 L 65.7 125.7 L 66.1 122.1 L 66.6 123.6 L 67.0 119.5 L 67.5 120.7 L 67.9 119.4 L 68.4 119.3 L 68.8 119.4 L 69.3 124.3 L 69.7 121.2 L 70.2 119.2 L 70.6 119.7 L 71.1 116.7 L 71.5 116.7 L 72.0 117.8 L 72.4 122.6 L 72.9 124.7 L 73.3 120.1 L 73.8 123.9 L 74.2 128.1 L 74.7 128.2 L 75.1 129.9 L 75.6 125.8 L 76.0 121.7 L 76.5 117.2 L 76.9 111.4 L 77.4 110.9 L 77.8 110.8 L 78.3 109.0 L 78.7 106.8 L 79.2 106.9 L 79.6 109.3 L 80.1 111.1 L 80.5 110.8 L 81.0 110.9 L 81.4 108.0 L 81.9 106.7 L 82.3 110.0 L 82.8 110.2 L 83.2 105.2 L 83.7 102.1 L 84.1 102.1 L 84.6 104.6 L 85.0 107.9 L 85.5 106.0 L 85.9 105.1 L 86.4 116.0 L 86.8 120.2 L 87.3 120.2 L 87.7 120.2 L 88.2 121.2 L 88.6 119.0 L 89.1 117.4 L 89.5 120.4 L 90.0 121.4 L 90.4 121.4 L 90.9 119.6 L 91.3 117.5 L 91.8 117.2 L 92.2 114.9 L 92.7 112.8 L 93.2 111.4 L 93.6 111.2 L 94.1 107.4 L 94.5 103.3 L 95.0 103.0 L 95.4 109.4 L 95.9 112.1 L 96.3 114.4 L 96.8 114.4 L 97.2 111.4 L 97.7 109.9 L 98.1 108.4 L 98.6 116.2 L 99.0 115.2 L 99.5 118.5 L 99.9 118.5 L 100.4 118.6 L 100.8 118.7 L 101.3 121.7 L 101.7 119.8 L 102.2 122.6 L 102.6 125.4 L 103.1 125.4 L 103.5 125.2 L 104.0 123.1 L 104.4 123.6 L 104.9 123.9 L 105.3 119.1 L 105.8 115.7 L 106.2 115.7 L 106.7 116.9 L 107.1 117.6 L 107.6 121.4 L 108.0 124.4 L 108.5 122.5 L 108.9 122.3 L 109.4 122.2 L 109.8 125.9 L 110.3 123.9 L 110.7 121.2 L 111.2 120.3 L 111.6 118.8 L 112.1 117.8 L 112.5 117.9 L 113.0 120.3 L 113.4 121.2 L 113.9 122.9 L 114.3 123.0 L 114.8 121.7 L 115.2 123.0 L 115.7 123.0 L 116.1 124.6 L 116.6 123.1 L 117.0 121.5 L 117.5 119.9 L 117.9 115.2 L 118.4 112.8 L 118.8 112.9 L 119.3 114.0 L 119.7 115.1 L 120.2 114.0 L 120.6 115.1 L 121.1 114.4 L 121.5 112.1 L 122.0 112.0 L 122.4 112.4 L 122.9 114.3 L 123.3 113.6 L 123.8 116.4 L 124.2 120.9 L 124.7 119.8 L 125.1 119.7 L 125.6 119.7 L 126.0 116.2 L 126.5 114.4 L 126.9 115.4 L 127.4 113.9 L 127.8 112.9 L 128.3 113.0 L 128.7 114.6 L 129.2 117.2 L 129.6 115.2 L 130.1 114.9 L 130.5 112.0 L 131.0 108.5 L 131.4 108.2 L 131.9 108.3 L 132.3 106.4 L 132.8 104.5 L 133.2 104.2 L 133.7 104.8 L 134.1 102.5 L 134.6 102.5 L 135.0 102.6 L 135.5 104.4 L 135.9 104.3 L 136.4 106.0 L 136.8 109.9 L 137.3 109.3 L 137.7 109.2 L 138.2 107.3 L 138.6 105.0 L 139.1 106.7 L 139.5 111.4 L 140.0 115.0 L 140.4 117.0 L 140.9 117.0 L 141.3 116.2 L 141.8 116.0 L 142.2 118.7 L 142.7 118.6 L 143.1 118.3 L 143.6 115.5 L 144.0 115.5 L 144.5 115.3 L 144.9 118.6 L 145.4 119.6 L 145.8 119.8 L 146.3 124.5 L 146.7 123.3 L 147.2 123.4 L 147.6 123.7 L 148.1 122.3 L 148.5 121.6 L 149.0 122.0 L 149.4 120.6 L 149.9 122.5 L 150.3 122.5 L 150.8 122.9 L 151.2 122.2 L 151.7 125.9 L 152.1 130.0 L 152.6 134.3 L 153.0 138.6 L 153.5 138.8 L 153.9 141.1 L 154.4 141.9 L 154.8 143.8 L 155.3 144.6 L 155.7 149.0 L 156.2 153 L 156.7 153 L 157.1 152.2 L 157.6 152.4 L 158.0 151.3 L 158.5 150.7 L 158.9 149.8 L 159.4 145.1 L 159.8 145.1 L 160.3 144.6 L 160.7 147.8 L 161.2 148.7 L 161.6 145.2 L 162.1 141.1 L 162.5 137.9 L 163.0 137.9 L 163.4 138.6 L 163.9 141.3 L 164.3 145.8 L 164.8 144.1 L 165.2 144.0 L 165.7 140.7 L 166.1 140.7 L 166.6 141.0 L 167.0 140.9 L 167.5 141.2 L 167.9 141.5 L 168.4 143.2 L 168.8 144.8 L 169.3 144.8 L 169.7 144.8 L 170.2 148.2 L 170.6 148.0 L 171.1 141.4 L 171.5 137.1 L 172.0 133.3 L 172.4 133.2 L 172.9 133.8 L 173.3 134.8 L 173.8 131.7 L 174.2 129.8 L 174.7 127.6 L 175.1 128.4 L 175.6 128.4 L 176.0 129.3 L 176.5 129.8 L 176.9 128.8 L 177.4 130.1 L 177.8 131.3 L 178.3 130.5 L 178.7 130.4 L 179.2 130.8 L 179.6 132.1 L 180.1 133.6 L 180.5 131.4 L 181.0 128.5 L 181.4 128.0 L 181.9 128.0 L 182.3 128.5 L 182.8 130.9 L 183.2 131.2 L 183.7 134.8 L 184.1 133.8 L 184.6 130.7 L 185.0 130.7 L 185.5 129.7 L 185.9 129.6 L 186.4 132.8 L 186.8 134.1 L 187.3 134.5 L 187.7 133.6 L 188.2 133.6 L 188.6 132.8 L 189.1 132.7 L 189.5 137.5 L 190.0 141.4 L 190.4 141.1 L 190.9 141.3 L 191.3 141.3 L 191.8 142.0 L 192.2 142.5 L 192.7 141.6 L 193.1 140.5 L 193.6 141.2 L 194.0 143.0 L 194.5 143.0 L 194.9 143.6 L 195.4 145.5 L 195.8 146.2 L 196.3 146.1 L 196.7 143.7 L 197.2 144.6 L 197.6 144.3 L 198.1 141.4 L 198.5 139.6 L 199.0 141.2 L 199.4 142.7 L 199.9 141.4 L 200.3 140.0 L 200.8 140.0 L 201.2 141.9 L 201.7 144.5 L 202.1 145.3 L 202.6 146.6 L 203.0 150.9 L 203.5 151.7 L 203.9 151.7 L 204.4 151.2 L 204.8 150.9 L 205.3 151.8 L 205.7 155.0 L 206.2 152.0 L 206.6 149.8 L 207.1 149.8 L 207.5 150.2 L 208.0 153.2 L 208.4 153.7 L 208.9 152.5 L 209.3 153 L 209.8 153.9 L 210.2 153.9 L 210.7 154.5 L 211.1 154.6 L 211.6 153.8 L 212.0 155.9 L 212.5 157.1 L 212.9 155.3 L 213.4 155.3 L 213.8 154.7 L 214.3 157.2 L 214.7 158.3 L 215.2 160.1 L 215.6 163.3 L 216.1 163.7 L 216.5 163.7 L 217.0 165.4 L 217.4 165.0 L 217.9 167.0 L 218.3 167.7 L 218.8 168.5 L 219.2 167.1 L 219.7 167.1 L 220.2 166.7 L 220.6 167.0 L 221.1 170.2 L 221.5 169.4 L 222.0 168.9 L 222.4 170.6 L 222.9 170.6 L 223.3 169.7 L 223.8 170.0 L 224.2 167.3 L 224.7 167.3 L 225.1 166.0 L 225.6 167.2 L 226.0 167.2 L 226.5 168.3 L 226.9 166.7 L 227.4 164.8 L 227.8 163.7 L 228.3 161.8 L 228.7 163.5 L 229.2 163.6 L 229.6 164.7 L 230.1 165.4 L 230.5 166.6 L 231.0 163.2 L 231.4 162.0 L 231.9 162.5 L 232.3 162.6 L 232.8 161.7 L 233.2 160.0 L 233.7 160.0 L 234.1 159.3 L 234.6 158.8 L 235.0 158.8 L 235.5 158.8 L 235.9 159.7 L 236.4 160.2 L 236.8 158.9 L 237.3 159.1 L 237.7 159.2 L 238.2 159.4 L 238.6 159.4 L 239.1 160.2 L 239.5 162.8 L 240.0 163.3 L 240.4 161.3 L 240.9 156.2 L 241.3 155.0 L 241.8 155.0 L 242.2 154.0 L 242.7 153.6 L 243.1 150.7 L 243.6 151.4 L 244.0 152.7 L 244.5 155.8 L 244.9 155.8 L 245.4 156.8 L 245.8 157.5 L 246.3 158.2 L 246.7 156.3 L 247.2 157.2 L 247.6 160.4 L 248.1 160.4 L 248.5 160.1 L 249.0 160.2 L 249.4 159.1 L 249.9 160.1 L 250.3 160.9 L 250.8 164.4 L 251.2 164.4 L 251.7 166.3 L 252.1 168.8 L 252.6 168.8 L 253.0 168.8 L 253.5 168.0 L 253.9 169.2 L 254.4 169.2 L 254.8 169.3 L 255.3 170.9 L 255.7 176.2 L 256.2 177.0 L 256.6 177.9 L 257.1 177.6 L 257.5 177.6 L 258.0 177.8 L 258.4 177.7 L 258.9 178.8 L 259.3 179.2 L 259.8 179.1 L 260.2 180.0 L 260.7 180.0 L 261.1 180.0 L 261.6 180.0 L 262.0 177.2 L 262.5 174.6 L 262.9 173.2 L 263.4 169.6 L 263.8 169.6 L 264.3 170.9 L 264.7 173.7 L 265.2 171.6 L 265.6 171.8 L 266.1 174.6 L 266.5 177.1 L 267.0 177.1 L 267.4 179.3 L 267.9 178.1 L 268.3 177.0 L 268.8 176.4 L 269.2 172.1 L 269.7 172.8 L 270.1 172.8 L 270.6 171.5 L 271.0 167.4 L 271.5 162.2 L 271.9 157.6 L 272.4 159.4 L 272.8 160.7 L 273.3 160.7 L 273.7 161.6 L 274.2 161.2 L 274.6 161.7 L 275.1 165.5 L 275.5 167.7 L 276.0 171.8 L 276.4 171.8 L 276.9 171.3 L 277.3 170.1 L 277.8 168.7 L 278.2 170.5 L 278.7 171.0 L 279.1 169.3 L 279.6 169.3 L 280.0 169.7 L 280.5 168.1 L 280.9 168.7 L 281.4 171.2 L 281.8 174.0 L 282.3 176.8 L 282.7 176.8 L 283.2 178.0 L 283.7 179.3 L 284.1 182.2 L 284.6 183.9 L 285.0 182.6 L 285.5 182.5 L 285.9 182.5 L 286.4 182.5 L 286.8 182.6 L 287.3 187.7 L 287.7 190.4 L 288.2 193.2 L 288.6 193.9 L 289.1 193.9 L 289.5 194.5 L 290.0 194.5 L 290.4 196.2 L 290.9 196.8 L 291.3 199.0 L 291.8 202.7 L 292.2 202.8 L 292.7 202.0 L 293.1 199.3 L 293.6 197.5 L 294.0 194.9 L 294.5 196.1 L 294.9 196.1 L 295.4 196.1 L 295.8 194.7 L 296.3 191.9 L 296.7 195.9 L 297.2 198.5 L 297.6 198.9 L 298.1 198.3 L 298.5 198.3 L 299.0 199.4 L 299.4 198.7 L 299.9 198.7 L 300.3 202.2 L 300.8 204.0 L 301.2 204.5 L 301.7 204.6 L 302.1 202.5 L 302.6 200.3 L 303.0 201.8 L 303.5 203.7 L 303.9 207.3 L 304.4 209.1 L 304.8 209.1 L 305.3 210.2 L 305.7 210.1 L 306.2 211.9 L 306.6 212.2 L 307.1 212.7 L 307.5 214.8 L 308.0 215.1 L 308.4 213.7 L 308.9 215.2 L 309.3 220.9 L 309.8 222.0 L 310.2 223.6 L 310.7 222.8 L 311.1 222.8 L 311.6 219.6 L 312.0 218.3 L 312.5 222.1 L 312.9 221.6 L 313.4 220.6 L 313.8 222.0 L 314.3 222.1 L 314.7 222.1 L 315.2 225.2 L 315.6 229.9 L 316.1 231.0 L 316.5 231.4 L 317.0 230.3 L 317.4 230.1 L 317.9 230.6 L 318.3 231.4 L 318.8 228.3 L 319.2 228.3 L 319.7 225.9 L 320.1 222.5 L 320.6 220.7 L 321.0 222.0 L 321.5 223.8 L 321.9 225.1 L 322.4 219.4 L 322.8 221.0 L 323.3 221.8 L 323.7 221.8 L 324.2 222.7 L 324.6 224.5 L 325.1 223.0 L 325.5 223.4 L 326.0 217.4 L 326.4 210.8 L 326.9 210.8 L 327.3 209.6 L 327.8 209.7 L 328.2 209.5 L 328.7 207.6 L 329.1 207.5 L 329.6 208.4 L 330.0 208.4 L 330.5 209.1 L 330.9 209.3 L 331.4 211.3 L 331.8 215.5 L 332.3 221.9 L 332.7 225.0 L 333.2 225.0 L 333.6 224.0 L 334.1 218.7 L 334.5 221.9 L 335.0 225.3 L 335.4 226.1 L 335.9 225.9 L 336.3 225.9 L 336.8 224.7 L 337.2 224.3 L 337.7 224.0 L 338.1 223.8 L 338.6 228.4 L 339.0 227.4 L 339.5 227.4 L 339.9 230.9 L 340.4 231.9 L 340.8 228.0 L 341.3 222.2 L 341.7 221.2 L 342.2 220.1 L 342.6 220.1 L 343.1 215.5 L 343.5 213.8 L 344.0 219.5 L 344.4 221.9 L 344.9 225.6 L 345.3 222.9 L 345.8 222.9 L 346.2 224.7 L 346.7 227.5 L 347.2 227.9 L 347.6 231.2 L 348.1 231.6 L 348.5 228.6 L 349.0 228.6 L 349.4 229.4 L 349.9 226.4 L 350.3 221.0 L 350.8 218.6 L 351.2 213.8 L 351.7 214.6 L 352.1 214.6 L 352.6 216.0 L 353.0 216.3 L 353.5 218.0 L 353.9 219.0 L 354.4 222.0 L 354.8 223.0 L 355.3 223.0 L 355.7 222.1 L 356.2 224.1 L 356.6 224.1 L 357.1 226.0 L 357.5 229.7 L 358.0 229.8 L 358.4 229.8 L 358.9 229.7 L 359.3 231.2 L 359.8 239.6 L 360.2 243.6 L 360.7 246.5 L 361.1 245.8 L 361.6 245.8 L 362.0 246.7 L 362.5 247.0 L 362.9 247.4 L 363.4 251.7 L 363.8 254.7 L 364.3 253.5 L 364.7 253.5 L 365.2 254.2 L 365.6 253.9 L 366.1 256.1 L 366.5 262.7 L 367.0 264.5 L 367.4 267.0 L 367.9 267.0 L 368.3 271.2 L 368.8 270.9 L 369.2 267.4 L 369.7 261.2 L 370.1 257.2 L 370.6 256.9 L 371.0 256.9 L 371.5 255.6 L 371.9 261.3 L 372.4 267.5 L 372.8 272.4 L 373.3 271.7 L 373.7 272.0 L 374.2 272.0 L 374.6 272.3 L 375.1 268.1 L 375.5 264.8 L 376.0 265.6 L 376.4 268.8 L 376.9 269.6 L 377.3 269.6 L 377.8 268.4 L 378.2 269.5 L 378.7 269.8 L 379.1 273.3 L 379.6 272.1 L 380.0 272.5 L 380.5 272.2 L 380.9 271.1 L 381.4 273.2 L 381.8 275.1 L 382.3 277.6 L 382.7 274.5 L 383.2 272.9 L 383.6 272.9 L 384.1 274.6 L 384.5 277.7 L 385.0 278.5 L 385.4 271.8 L 385.9 266.0 L 386.3 265.2 L 386.8 265.0 L 387.2 265.6 L 387.7 264.4 L 388.1 262.8 L 388.6 262.2 L 389.0 257.8 L 389.5 256.5 L 389.9 256.4 L 390.4 258.3 L 390.8 260.7 L 391.3 258.3 L 391.7 254.0 L 392.2 257.2 L 392.6 258.9 L 393.1 258.9 L 393.5 258.2 L 394.0 260.2 L 394.4 258.0 L 394.9 258.9 L 395.3 259.8 L 395.8 262.9 L 396.2 262.9 L 396.7 262.6 L 397.1 263.7 L 397.6 268.6 L 398.0 270.7 L 398.5 270.2 L 398.9 270.7 L 399.4 270.7 L 399.8 271.0 L 400.3 270.7 L 400.7 267.3 L 401.2 263.5 L 401.6 260.9 L 402.1 262.0 L 402.5 262.0 L 403.0 261.6 L 403.4 261.1 L 403.9 257.7 L 404.3 258.1 L 404.8 266.6 L 405.2 269.6 L 405.7 271.3 L 406.1 270.7 L 406.6 262.1 L 407.0 259.8 L 407.5 258.3 L 407.9 254.3 L 408.4 254.5 L 408.8 254.6 L 409.3 256.9 L 409.7 259.9 L 410.2 260.0 L 410.7 261.0 L 411.1 263.7 L 411.6 264.2 L 412.0 264.2 L 412.5 262.3 L 412.9 262.0 L 413.4 263.3 L 413.8 268.1 L 414.3 270.4 L 414.7 272.0 L 415.2 271.9 L 415.6 271.5 L 416.1 271.1 L 416.5 273.3 L 417.0 273.5 L 417.4 268.2 L 417.9 268.4 L 418.3 268.4 L 418.8 266.9 L 419.2 268.1 L 419.7 268.1 L 420.1 269.7 L 420.6 273.3 L 421.0 277.7 L 421.5 277.8 L 421.9 276.3 L 422.4 278.0 L 422.8 276.1 L 423.3 274.2 L 423.7 274.3 L 424.2 274.1 L 424.6 274.1 L 425.1 274.9 L 425.5 276.0 L 426.0 270.5 L 426.4 267.4 L 426.9 268.4 L 427.3 268.4 L 427.8 268.4 L 428.2 269.2 L 428.7 268.2 L 429.1 263.3 L 429.6 264.0 L 430.0 261.6 L 430.5 262.4 L 430.9 262.4 L 431.4 263.2 L 431.8 260.5 L 432.3 258.2 L 432.7 256.3 L 433.2 245.4 L 433.6 238.0 L 434.1 238.0 L 434.5 236.8 L 435.0 233.3 L 435.4 234.0 L 435.9 232.7 L 436.3 226.0 L 436.8 223.2 L 437.2 223.2 L 437.7 225.0 L 438.1 223.9 L 438.6 226.3 L 439.0 228.8 L 439.5 231.0 L 439.9 228.1 L 440.4 228.2 L 440.8 226.7 L 441.3 222.8 L 441.7 224.1 L 442.2 226.4 L 442.6 224.8 L 443.1 222.6 L 443.5 222.6 L 444.0 221.1 L 444.4 216.5 L 444.9 212.9 L 445.3 212.7 L 445.8 203.0 L 446.2 202.7 L 446.7 202.9 L 447.1 203.4 L 447.6 196.2 L 448.0 195.1 L 448.5 186.6 L 448.9 193.2 L 449.4 200.8 L 449.8 201.0 L 450.3 203.3 L 450.7 200.4 L 451.2 199.4 L 451.6 208.4 L 452.1 205.2 L 452.5 212.6 L 453.0 212.7 L 453.4 218.3 L 453.9 226.6 L 454.3 222.8 L 454.8 222.8 L 455.2 220.0 L 455.7 219.7 L 456.1 219.7 L 456.6 211.8 L 457.0 204.3 L 457.5 194.0 L 457.9 184.8 L 458.4 180.3 L 458.8 177.2 L 459.3 176.8 L 459.7 167.3 L 460.2 166.4 L 460.6 169.6 L 461.1 171.6 L 461.5 164.5 L 462.0 156.3 L 462.4 156.9 L 462.9 166.6 L 463.3 171.4 L 463.8 167.1 L 464.2 159.4 L 464.7 159.9 L 465.1 156.9 L 465.6 156.9 L 466.0 157.6 L 466.5 148.0 L 466.9 128.3 L 467.4 122.2 L 467.8 111.8 L 468.3 114.6 L 468.7 109.3 L 469.2 102.9 L 469.6 101.2 L 470.1 120.0 L 470.5 136.5 L 471.0 117.2 L 471.4 115.9 L 471.9 116.0 L 472.3 120.2 L 472.8 116.4 L 473.2 129.4 L 473.7 124.5 L 474.1 117.9 L 474.6 115.6 L 475.1 115.8 L 475.5 123.6 L 476.0 114.7 L 476.4 104.9 L 476.9 101.5 L 477.3 116.5 L 477.8 108.9 L 478.2 108.3 L 478.7 109.4 L 479.1 110.3 L 479.6 110.2 L 480.0 103.1 L 480.5 103.2 L 480.9 107.2 L 481.4 107.3 L 481.8 114.0 L 482.3 128.0 L 482.7 131.5 L 483.2 127.4 L 483.6 123.3 L 484.1 114.0 L 484.5 114.0 L 485.0 112.3 L 485.4 111.6 L 485.9 113.3 L 486.3 114.3 L 486.8 116.7 L 487.2 115.6 L 487.7 115.7 L 488.1 122.9 L 488.6 126.6 L 489.0 130.8 L 489.5 141.7 L 489.9 153.3 L 490.4 155.9 L 490.8 155.7 L 491.3 162.4 L 491.7 174.6 L 492.2 196.4 L 492.6 211.4 L 493.1 195.5 L 493.5 184.5 L 494.0 184.6 L 494.4 188.3 L 494.9 188.0 L 495.3 187.8 L 495.8 189.7 L 496.2 191.8 L 496.7 190.8 L 497.1 190.8 L 497.6 199.0 L 498.0 194.3" stroke="#f45b5b" stroke-width="1"  stroke-linejoin="round" stroke-linecap="round"></path><path fill="none" d="M -5.0 56.5 L 4.9 56.5 L 5.3 56.6 L 5.8 56.7 L 6.2 55.9 L 6.7 59.3 L 7.1 75.0 L 7.6 75.6 L 8.0 78.3 L 8.5 78.2 L 8.9 75.6 L 9.4 73.1 L 9.8 73.6 L 10.3 75.8 L 10.7 72.2 L 11.2 77.6 L 11.6 77.6 L 12.1 77.0 L 12.5 74.9 L 13.0 75.3 L 13.4 74.5 L 13.9 74.1 L 14.3 77.1 L 14.8 77.1 L 15.2 84.4 L 15.7 87.8 L 16.1 87.1 L 16.6 85.2 L 17.0 81.6 L 17.5 74.5 L 17.9 74.5 L 18.4 74.5 L 18.8 75.6 L 19.3 76.8 L 19.7 72.8 L 20.2 72.5 L 20.6 69.7 L 21.1 69.3 L 21.5 68.0 L 22.0 66.0 L 22.4 65.5 L 22.9 65.7 L 23.3 65.8 L 23.8 60.8 L 24.2 60.8 L 24.7 60.5 L 25.1 60.8 L 25.6 61.6 L 26.0 59.3 L 26.5 60.2 L 26.9 62.8 L 27.4 62.6 L 27.8 64.0 L 28.3 62.2 L 28.8 61.2 L 29.2 62.3 L 29.7 61.2 L 30.1 58.8 L 30.6 58.8 L 31.0 57.6 L 31.5 58.9 L 31.9 63.2 L 32.4 63.9 L 32.8 69.7 L 33.3 71.0 L 33.7 71.0 L 34.2 71.1 L 34.6 64.3 L 35.1 61.2 L 35.5 62.7 L 36.0 61.2 L 36.4 61.0 L 36.9 60.9 L 37.3 63.1 L 37.8 66.1 L 38.2 69.9 L 38.7 74.1 L 39.1 80.2 L 39.6 80.8 L 40.0 80.8 L 40.5 80.0 L 40.9 77.3 L 41.4 74.1 L 41.8 71.2 L 42.3 66.7 L 42.7 70.1 L 43.2 70.1 L 43.6 70.1 L 44.1 70.7 L 44.5 68.6 L 45.0 73.2 L 45.4 77.5 L 45.9 75.9 L 46.3 75.8 L 46.8 74.1 L 47.2 80.6 L 47.7 86.5 L 48.1 86.8 L 48.6 80.2 L 49.0 74.1 L 49.5 74.1 L 49.9 75.3 L 50.4 76.2 L 50.8 77.5 L 51.3 75.2 L 51.7 75.6 L 52.2 75.3 L 52.6 75.4 L 53.1 81.7 L 53.5 86.3 L 54.0 92.1 L 54.4 91.6 L 54.9 89.8 L 55.3 91.0 L 55.8 91.2 L 56.2 93.4 L 56.7 94.9 L 57.1 97.2 L 57.6 99.6 L 58.0 105.5 L 58.5 110.2 L 58.9 110.0 L 59.4 109.9 L 59.8 108.7 L 60.3 110.3 L 60.7 110.6 L 61.2 115.2 L 61.6 116.1 L 62.1 116.1 L 62.5 116.9 L 63.0 115.5 L 63.4 119.6 L 63.9 118.9 L 64.3 125.8 L 64.8 127.3 L 65.2 128.6 L 65.7 125.7 L 66.1 122.1 L 66.6 123.6 L 67.0 119.5 L 67.5 120.7 L 67.9 119.4 L 68.4 119.3 L 68.8 119.4 L 69.3 124.3 L 69.7 121.2 L 70.2 119.2 L 70.6 119.7 L 71.1 116.7 L 71.5 116.7 L 72.0 117.8 L 72.4 122.6 L 72.9 124.7 L 73.3 120.1 L 73.8 123.9 L 74.2 128.1 L 74.7 128.2 L 75.1 129.9 L 75.6 125.8 L 76.0 121.7 L 76.5 117.2 L 76.9 111.4 L 77.4 110.9 L 77.8 110.8 L 78.3 109.0 L 78.7 106.8 L 79.2 106.9 L 79.6 109.3 L 80.1 111.1 L 80.5 110.8 L 81.0 110.9 L 81.4 108.0 L 81.9 106.7 L 82.3 110.0 L 82.8 110.2 L 83.2 105.2 L 83.7 102.1 L 84.1 102.1 L 84.6 104.6 L 85.0 107.9 L 85.5 106.0 L 85.9 105.1 L 86.4 116.0 L 86.8 120.2 L 87.3 120.2 L 87.7 120.2 L 88.2 121.2 L 88.6 119.0 L 89.1 117.4 L 89.5 120.4 L 90.0 121.4 L 90.4 121.4 L 90.9 119.6 L 91.3 117.5 L 91.8 117.2 L 92.2 114.9 L 92.7 112.8 L 93.2 111.4 L 93.6 111.2 L 94.1 107.4 L 94.5 103.3 L 95.0 103.0 L 95.4 109.4 L 95.9 112.1 L 96.3 114.4 L 96.8 114.4 L 97.2 111.4 L 97.7 109.9 L 98.1 108.4 L 98.6 116.2 L 99.0 115.2 L 99.5 118.5 L 99.9 118.5 L 100.4 118.6 L 100.8 118.7 L 101.3 121.7 L 101.7 119.8 L 102.2 122.6 L 102.6 125.4 L 103.1 125.4 L 103.5 125.2 L 104.0 123.1 L 104.4 123.6 L 104.9 123.9 L 105.3 119.1 L 105.8 115.7 L 106.2 115.7 L 106.7 116.9 L 107.1 117.6 L 107.6 121.4 L 108.0 124.4 L 108.5 122.5 L 108.9 122.3 L 109.4 122.2 L 109.8 125.9 L 110.3 123.9 L 110.7 121.2 L 111.2 120.3 L 111.6 118.8 L 112.1 117.8 L 112.5 117.9 L 113.0 120.3 L 113.4 121.2 L 113.9 122.9 L 114.3 123.0 L 114.8 121.7 L 115.2 123.0 L 115.7 123.0 L 116.1 124.6 L 116.6 123.1 L 117.0 121.5 L 117.5 119.9 L 117.9 115.2 L 118.4 112.8 L 118.8 112.9 L 119.3 114.0 L 119.7 115.1 L 120.2 114.0 L 120.6 115.1 L 121.1 114.4 L 121.5 112.1 L 122.0 112.0 L 122.4 112.4 L 122.9 114.3 L 123.3 113.6 L 123.8 116.4 L 124.2 120.9 L 124.7 119.8 L 125.1 119.7 L 125.6 119.7 L 126.0 116.2 L 126.5 114.4 L 126.9 115.4 L 127.4 113.9 L 127.8 112.9 L 128.3 113.0 L 128.7 114.6 L 129.2 117.2 L 129.6 115.2 L 130.1 114.9 L 130.5 112.0 L 131.0 108.5 L 131.4 108.2 L 131.9 108.3 L 132.3 106.4 L 132.8 104.5 L 133.2 104.2 L 133.7 104.8 L 134.1 102.5 L 134.6 102.5 L 135.0 102.6 L 135.5 104.4 L 135.9 104.3 L 136.4 106.0 L 136.8 109.9 L 137.3 109.3 L 137.7 109.2 L 138.2 107.3 L 138.6 105.0 L 139.1 106.7 L 139.5 111.4 L 140.0 115.0 L 140.4 117.0 L 140.9 117.0 L 141.3 116.2 L 141.8 116.0 L 142.2 118.7 L 142.7 118.6 L 143.1 118.3 L 143.6 115.5 L 144.0 115.5 L 144.5 115.3 L 144.9 118.6 L 145.4 119.6 L 145.8 119.8 L 146.3 124.5 L 146.7 123.3 L 147.2 123.4 L 147.6 123.7 L 148.1 122.3 L 148.5 121.6 L 149.0 122.0 L 149.4 120.6 L 149.9 122.5 L 150.3 122.5 L 150.8 122.9 L 151.2 122.2 L 151.7 125.9 L 152.1 130.0 L 152.6 134.3 L 153.0 138.6 L 153.5 138.8 L 153.9 141.1 L 154.4 141.9 L 154.8 143.8 L 155.3 144.6 L 155.7 149.0 L 156.2 153 L 156.7 153 L 157.1 152.2 L 157.6 152.4 L 158.0 151.3 L 158.5 150.7 L 158.9 149.8 L 159.4 145.1 L 159.8 145.1 L 160.3 144.6 L 160.7 147.8 L 161.2 148.7 L 161.6 145.2 L 162.1 141.1 L 162.5 137.9 L 163.0 137.9 L 163.4 138.6 L 163.9 141.3 L 164.3 145.8 L 164.8 144.1 L 165.2 144.0 L 165.7 140.7 L 166.1 140.7 L 166.6 141.0 L 167.0 140.9 L 167.5 141.2 L 167.9 141.5 L 168.4 143.2 L 168.8 144.8 L 169.3 144.8 L 169.7 144.8 L 170.2 148.2 L 170.6 148.0 L 171.1 141.4 L 171.5 137.1 L 172.0 133.3 L 172.4 133.2 L 172.9 133.8 L 173.3 134.8 L 173.8 131.7 L 174.2 129.8 L 174.7 127.6 L 175.1 128.4 L 175.6 128.4 L 176.0 129.3 L 176.5 129.8 L 176.9 128.8 L 177.4 130.1 L 177.8 131.3 L 178.3 130.5 L 178.7 130.4 L 179.2 130.8 L 179.6 132.1 L 180.1 133.6 L 180.5 131.4 L 181.0 128.5 L 181.4 128.0 L 181.9 128.0 L 182.3 128.5 L 182.8 130.9 L 183.2 131.2 L 183.7 134.8 L 184.1 133.8 L 184.6 130.7 L 185.0 130.7 L 185.5 129.7 L 185.9 129.6 L 186.4 132.8 L 186.8 134.1 L 187.3 134.5 L 187.7 133.6 L 188.2 133.6 L 188.6 132.8 L 189.1 132.7 L 189.5 137.5 L 190.0 141.4 L 190.4 141.1 L 190.9 141.3 L 191.3 141.3 L 191.8 142.0 L 192.2 142.5 L 192.7 141.6 L 193.1 140.5 L 193.6 141.2 L 194.0 143.0 L 194.5 143.0 L 194.9 143.6 L 195.4 145.5 L 195.8 146.2 L 196.3 146.1 L 196.7 143.7 L 197.2 144.6 L 197.6 144.3 L 198.1 141.4 L 198.5 139.6 L 199.0 141.2 L 199.4 142.7 L 199.9 141.4 L 200.3 140.0 L 200.8 140.0 L 201.2 141.9 L 201.7 144.5 L 202.1 145.3 L 202.6 146.6 L 203.0 150.9 L 203.5 151.7 L 203.9 151.7 L 204.4 151.2 L 204.8 150.9 L 205.3 151.8 L 205.7 155.0 L 206.2 152.0 L 206.6 149.8 L 207.1 149.8 L 207.5 150.2 L 208.0 153.2 L 208.4 153.7 L 208.9 152.5 L 209.3 153 L 209.8 153.9 L 210.2 153.9 L 210.7 154.5 L 211.1 154.6 L 211.6 153.8 L 212.0 155.9 L 212.5 157.1 L 212.9 155.3 L 213.4 155.3 L 213.8 154.7 L 214.3 157.2 L 214.7 158.3 L 215.2 160.1 L 215.6 163.3 L 216.1 163.7 L 216.5 163.7 L 217.0 165.4 L 217.4 165.0 L 217.9 167.0 L 218.3 167.7 L 218.8 168.5 L 219.2 167.1 L 219.7 167.1 L 220.2 166.7 L 220.6 167.0 L 221.1 170.2 L 221.5 169.4 L 222.0 168.9 L 222.4 170.6 L 222.9 170.6 L 223.3 169.7 L 223.8 170.0 L 224.2 167.3 L 224.7 167.3 L 225.1 166.0 L 225.6 167.2 L 226.0 167.2 L 226.5 168.3 L 226.9 166.7 L 227.4 164.8 L 227.8 163.7 L 228.3 161.8 L 228.7 163.5 L 229.2 163.6 L 229.6 164.7 L 230.1 165.4 L 230.5 166.6 L 231.0 163.2 L 231.4 162.0 L 231.9 162.5 L 232.3 162.6 L 232.8 161.7 L 233.2 160.0 L 233.7 160.0 L 234.1 159.3 L 234.6 158.8 L 235.0 158.8 L 235.5 158.8 L 235.9 159.7 L 236.4 160.2 L 236.8 158.9 L 237.3 159.1 L 237.7 159.2 L 238.2 159.4 L 238.6 159.4 L 239.1 160.2 L 239.5 162.8 L 240.0 163.3 L 240.4 161.3 L 240.9 156.2 L 241.3 155.0 L 241.8 155.0 L 242.2 154.0 L 242.7 153.6 L 243.1 150.7 L 243.6 151.4 L 244.0 152.7 L 244.5 155.8 L 244.9 155.8 L 245.4 156.8 L 245.8 157.5 L 246.3 158.2 L 246.7 156.3 L 247.2 157.2 L 247.6 160.4 L 248.1 160.4 L 248.5 160.1 L 249.0 160.2 L 249.4 159.1 L 249.9 160.1 L 250.3 160.9 L 250.8 164.4 L 251.2 164.4 L 251.7 166.3 L 252.1 168.8 L 252.6 168.8 L 253.0 168.8 L 253.5 168.0 L 253.9 169.2 L 254.4 169.2 L 254.8 169.3 L 255.3 170.9 L 255.7 176.2 L 256.2 177.0 L 256.6 177.9 L 257.1 177.6 L 257.5 177.6 L 258.0 177.8 L 258.4 177.7 L 258.9 178.8 L 259.3 179.2 L 259.8 179.1 L 260.2 180.0 L 260.7 180.0 L 261.1 180.0 L 261.6 180.0 L 262.0 177.2 L 262.5 174.6 L 262.9 173.2 L 263.4 169.6 L 263.8 169.6 L 264.3 170.9 L 264.7 173.7 L 265.2 171.6 L 265.6 171.8 L 266.1 174.6 L 266.5 177.1 L 267.0 177.1 L 267.4 179.3 L 267.9 178.1 L 268.3 177.0 L 268.8 176.4 L 269.2 172.1 L 269.7 172.8 L 270.1 172.8 L 270.6 171.5 L 271.0 167.4 L 271.5 162.2 L 271.9 157.6 L 272.4 159.4 L 272.8 160.7 L 273.3 160.7 L 273.7 161.6 L 274.2 161.2 L 274.6 161.7 L 275.1 165.5 L 275.5 167.7 L 276.0 171.8 L 276.4 171.8 L 276.9 171.3 L 277.3 170.1 L 277.8 168.7 L 278.2 170.5 L 278.7 171.0 L 279.1 169.3 L 279.6 169.3 L 280.0 169.7 L 280.5 168.1 L 280.9 168.7 L 281.4 171.2 L 281.8 174.0 L 282.3 176.8 L 282.7 176.8 L 283.2 178.0 L 283.7 179.3 L 284.1 182.2 L 284.6 183.9 L 285.0 182.6 L 285.5 182.5 L 285.9 182.5 L 286.4 182.5 L 286.8 182.6 L 287.3 187.7 L 287.7 190.4 L 288.2 193.2 L 288.6 193.9 L 289.1 193.9 L 289.5 194.5 L 290.0 194.5 L 290.4 196.2 L 290.9 196.8 L 291.3 199.0 L 291.8 202.7 L 292.2 202.8 L 292.7 202.0 L 293.1 199.3 L 293.6 197.5 L 294.0 194.9 L 294.5 196.1 L 294.9 196.1 L 295.4 196.1 L 295.8 194.7 L 296.3 191.9 L 296.7 195.9 L 297.2 198.5 L 297.6 198.9 L 298.1 198.3 L 298.5 198.3 L 299.0 199.4 L 299.4 198.7 L 299.9 198.7 L 300.3 202.2 L 300.8 204.0 L 301.2 204.5 L 301.7 204.6 L 302.1 202.5 L 302.6 200.3 L 303.0 201.8 L 303.5 203.7 L 303.9 207.3 L 304.4 209.1 L 304.8 209.1 L 305.3 210.2 L 305.7 210.1 L 306.2 211.9 L 306.6 212.2 L 307.1 212.7 L 307.5 214.8 L 308.0 215.1 L 308.4 213.7 L 308.9 215.2 L 309.3 220.9 L 309.8 222.0 L 310.2 223.6 L 310.7 222.8 L 311.1 222.8 L 311.6 219.6 L 312.0 218.3 L 312.5 222.1 L 312.9 221.6 L 313.4 220.6 L 313.8 222.0 L 314.3 222.1 L 314.7 222.1 L 315.2 225.2 L 315.6 229.9 L 316.1 231.0 L 316.5 231.4 L 317.0 230.3 L 317.4 230.1 L 317.9 230.6 L 318.3 231.4 L 318.8 228.3 L 319.2 228.3 L 319.7 225.9 L 320.1 222.5 L 320.6 220.7 L 321.0 222.0 L 321.5 223.8 L 321.9 225.1 L 322.4 219.4 L 322.8 221.0 L 323.3 221.8 L 323.7 221.8 L 324.2 222.7 L 324.6 224.5 L 325.1 223.0 L 325.5 223.4 L 326.0 217.4 L 326.4 210.8 L 326.9 210.8 L 327.3 209.6 L 327.8 209.7 L 328.2 209.5 L 328.7 207.6 L 329.1 207.5 L 329.6 208.4 L 330.0 208.4 L 330.5 209.1 L 330.9 209.3 L 331.4 211.3 L 331.8 215.5 L 332.3 221.9 L 332.7 225.0 L 333.2 225.0 L 333.6 224.0 L 334.1 218.7 L 334.5 221.9 L 335.0 225.3 L 335.4 226.1 L 335.9 225.9 L 336.3 225.9 L 336.8 224.7 L 337.2 224.3 L 337.7 224.0 L 338.1 223.8 L 338.6 228.4 L 339.0 227.4 L 339.5 227.4 L 339.9 230.9 L 340.4 231.9 L 340.8 228.0 L 341.3 222.2 L 341.7 221.2 L 342.2 220.1 L 342.6 220.1 L 343.1 215.5 L 343.5 213.8 L 344.0 219.5 L 344.4 221.9 L 344.9 225.6 L 345.3 222.9 L 345.8 222.9 L 346.2 224.7 L 346.7 227.5 L 347.2 227.9 L 347.6 231.2 L 348.1 231.6 L 348.5 228.6 L 349.0 228.6 L 349.4 229.4 L 349.9 226.4 L 350.3 221.0 L 350.8 218.6 L 351.2 213.8 L 351.7 214.6 L 352.1 214.6 L 352.6 216.0 L 353.0 216.3 L 353.5 218.0 L 353.9 219.0 L 354.4 222.0 L 354.8 223.0 L 355.3 223.0 L 355.7 222.1 L 356.2 224.1 L 356.6 224.1 L 357.1 226.0 L 357.5 229.7 L 358.0 229.8 L 358.4 229.8 L 358.9 229.7 L 359.3 231.2 L 359.8 239.6 L 360.2 243.6 L 360.7 246.5 L 361.1 245.8 L 361.6 245.8 L 362.0 246.7 L 362.5 247.0 L 362.9 247.4 L 363.4 251.7 L 363.8 254.7 L 364.3 253.5 L 364.7 253.5 L 365.2 254.2 L 365.6 253.9 L 366.1 256.1 L 366.5 262.7 L 367.0 264.5 L 367.4 267.0 L 367.9 267.0 L 368.3 271.2 L 368.8 270.9 L 369.2 267.4 L 369.7 261.2 L 370.1 257.2 L 370.6 256.9 L 371.0 256.9 L 371.5 255.6 L 371.9 261.3 L 372.4 267.5 L 372.8 272.4 L 373.3 271.7 L 373.7 272.0 L 374.2 272.0 L 374.6 272.3 L 375.1 268.1 L 375.5 264.8 L 376.0 265.6 L 376.4 268.8 L 376.9 269.6 L 377.3 269.6 L 377.8 268.4 L 378.2 269.5 L 378.7 269.8 L 379.1 273.3 L 379.6 272.1 L 380.0 272.5 L 380.5 272.2 L 380.9 271.1 L 381.4 273.2 L 381.8 275.1 L 382.3 277.6 L 382.7 274.5 L 383.2 272.9 L 383.6 272.9 L 384.1 274.6 L 384.5 277.7 L 385.0 278.5 L 385.4 271.8 L 385.9 266.0 L 386.3 265.2 L 386.8 265.0 L 387.2 265.6 L 387.7 264.4 L 388.1 262.8 L 388.6 262.2 L 389.0 257.8 L 389.5 256.5 L 389.9 256.4 L 390.4 258.3 L 390.8 260.7 L 391.3 258.3 L 391.7 254.0 L 392.2 257.2 L 392.6 258.9 L 393.1 258.9 L 393.5 258.2 L 394.0 260.2 L 394.4 258.0 L 394.9 258.9 L 395.3 259.8 L 395.8 262.9 L 396.2 262.9 L 396.7 262.6 L 397.1 263.7 L 397.6 268.6 L 398.0 270.7 L 398.5 270.2 L 398.9 270.7 L 399.4 270.7 L 399.8 271.0 L 400.3 270.7 L 400.7 267.3 L 401.2 263.5 L 401.6 260.9 L 402.1 262.0 L 402.5 262.0 L 403.0 261.6 L 403.4 261.1 L 403.9 257.7 L 404.3 258.1 L 404.8 266.6 L 405.2 269.6 L 405.7 271.3 L 406.1 270.7 L 406.6 262.1 L 407.0 259.8 L 407.5 258.3 L 407.9 254.3 L 408.4 254.5 L 408.8 254.6 L 409.3 256.9 L 409.7 259.9 L 410.2 260.0 L 410.7 261.0 L 411.1 263.7 L 411.6 264.2 L 412.0 264.2 L 412.5 262.3 L 412.9 262.0 L 413.4 263.3 L 413.8 268.1 L 414.3 270.4 L 414.7 272.0 L 415.2 271.9 L 415.6 271.5 L 416.1 271.1 L 416.5 273.3 L 417.0 273.5 L 417.4 268.2 L 417.9 268.4 L 418.3 268.4 L 418.8 266.9 L 419.2 268.1 L 419.7 268.1 L 420.1 269.7 L 420.6 273.3 L 421.0 277.7 L 421.5 277.8 L 421.9 276.3 L 422.4 278.0 L 422.8 276.1 L 423.3 274.2 L 423.7 274.3 L 424.2 274.1 L 424.6 274.1 L 425.1 274.9 L 425.5 276.0 L 426.0 270.5 L 426.4 267.4 L 426.9 268.4 L 427.3 268.4 L 427.8 268.4 L 428.2 269.2 L 428.7 268.2 L 429.1 263.3 L 429.6 264.0 L 430.0 261.6 L 430.5 262.4 L 430.9 262.4 L 431.4 263.2 L 431.8 260.5 L 432.3 258.2 L 432.7 256.3 L 433.2 245.4 L 433.6 238.0 L 434.1 238.0 L 434.5 236.8 L 435.0 233.3 L 435.4 234.0 L 435.9 232.7 L 436.3 226.0 L 436.8 223.2 L 437.2 223.2 L 437.7 225.0 L 438.1 223.9 L 438.6 226.3 L 439.0 228.8 L 439.5 231.0 L 439.9 228.1 L 440.4 228.2 L 440.8 226.7 L 441.3 222.8 L 441.7 224.1 L 442.2 226.4 L 442.6 224.8 L 443.1 222.6 L 443.5 222.6 L 444.0 221.1 L 444.4 216.5 L 444.9 212.9 L 445.3 212.7 L 445.8 203.0 L 446.2 202.7 L 446.7 202.9 L 447.1 203.4 L 447.6 196.2 L 448.0 195.1 L 448.5 186.6 L 448.9 193.2 L 449.4 200.8 L 449.8 201.0 L 450.3 203.3 L 450.7 200.4 L 451.2 199.4 L 451.6 208.4 L 452.1 205.2 L 452.5 212.6 L 453.0 212.7 L 453.4 218.3 L 453.9 226.6 L 454.3 222.8 L 454.8 222.8 L 455.2 220.0 L 455.7 219.7 L 456.1 219.7 L 456.6 211.8 L 457.0 204.3 L 457.5 194.0 L 457.9 184.8 L 458.4 180.3 L 458.8 177.2 L 459.3 176.8 L 459.7 167.3 L 460.2 166.4 L 460.6 169.6 L 461.1 171.6 L 461.5 164.5 L 462.0 156.3 L 462.4 156.9 L 462.9 166.6 L 463.3 171.4 L 463.8 167.1 L 464.2 159.4 L 464.7 159.9 L 465.1 156.9 L 465.6 156.9 L 466.0 157.6 L 466.5 148.0 L 466.9 128.3 L 467.4 122.2 L 467.8 111.8 L 468.3 114.6 L 468.7 109.3 L 469.2 102.9 L 469.6 101.2 L 470.1 120.0 L 470.5 136.5 L 471.0 117.2 L 471.4 115.9 L 471.9 116.0 L 472.3 120.2 L 472.8 116.4 L 473.2 129.4 L 473.7 124.5 L 474.1 117.9 L 474.6 115.6 L 475.1 115.8 L 475.5 123.6 L 476.0 114.7 L 476.4 104.9 L 476.9 101.5 L 477.3 116.5 L 477.8 108.9 L 478.2 108.3 L 478.7 109.4 L 479.1 110.3 L 479.6 110.2 L 480.0 103.1 L 480.5 103.2 L 480.9 107.2 L 481.4 107.3 L 481.8 114.0 L 482.3 128.0 L 482.7 131.5 L 483.2 127.4 L 483.6 123.3 L 484.1 114.0 L 484.5 114.0 L 485.0 112.3 L 485.4 111.6 L 485.9 113.3 L 486.3 114.3 L 486.8 116.7 L 487.2 115.6 L 487.7 115.7 L 488.1 122.9 L 488.6 126.6 L 489.0 130.8 L 489.5 141.7 L 489.9 153.3 L 490.4 155.9 L 490.8 155.7 L 491.3 162.4 L 491.7 174.6 L 492.2 196.4 L 492.6 211.4 L 493.1 195.5 L 493.5 184.5 L 494.0 184.6 L 494.4 188.3 L 494.9 188.0 L 495.3 187.8 L 495.8 189.7 L 496.2 191.8 L 496.7 190.8 L 497.1 190.8 L 497.6 199.0 L 498.0 194.3 L 508.0 194.3" stroke-linejoin="round" visibility="visible" stroke="rgb(192,192,192)" stroke-opacity="0.0" stroke-width="21"  class=" highcharts-tracker" style=""></path></g><g class="highcharts-markers highcharts-tracker" visibility="visible"  transform="translate(71,58) scale(1 1)" clip-path="url(#highcharts-2)" style=""></g></g><text x="292" text-anchor="middle" class="highcharts-title"  style="color:black;font-size:16px;font-weight:bold;fill:black;width:520px;" y="22"><tspan>USD to EUR exchange rate from 2006 through 2008</tspan></text><text x="292" text-anchor="middle" class="highcharts-subtitle"  style="color:black;fill:black;width:520px;" y="43"><tspan>Pinch the chart to zoom in</tspan></text><g class="highcharts-axis-labels highcharts-xaxis-labels" ><text x="75.9" style="color:#6e6e70;cursor:default;font-size:11px;fill:#6e6e70;width:71px;text-overflow:clip;" text-anchor="middle" transform="translate(0,0)" y="383" opacity="1"><tspan>Jan '06</tspan></text><text x="157.4" style="color:#6e6e70;cursor:default;font-size:11px;fill:#6e6e70;width:71px;text-overflow:clip;" text-anchor="middle" transform="translate(0,0)" y="383" opacity="1"><tspan>Jul '06</tspan></text><text x="240.3" style="color:#6e6e70;cursor:default;font-size:11px;fill:#6e6e70;width:71px;text-overflow:clip;" text-anchor="middle" transform="translate(0,0)" y="383" opacity="1"><tspan>Jan '07</tspan></text><text x="321.8" style="color:#6e6e70;cursor:default;font-size:11px;fill:#6e6e70;width:71px;text-overflow:clip;" text-anchor="middle" transform="translate(0,0)" y="383" opacity="1"><tspan>Jul '07</tspan></text><text x="404.6" style="color:#6e6e70;cursor:default;font-size:11px;fill:#6e6e70;width:71px;text-overflow:clip;" text-anchor="middle" transform="translate(0,0)" y="383" opacity="1"><tspan>Jan '08</tspan></text><text x="486.6" style="color:#6e6e70;cursor:default;font-size:11px;fill:#6e6e70;width:71px;text-overflow:clip;" text-anchor="middle" transform="translate(0,0)" y="383" opacity="1"><tspan>Jul '08</tspan></text><text x="574" style="color:#6e6e70;cursor:default;font-size:11px;fill:#6e6e70;width:71px;text-overflow:clip;" text-anchor="end" transform="translate(0,0)" y="383" opacity="1"><tspan>Jan '09</tspan></text></g><g class="highcharts-axis-labels highcharts-yaxis-labels" ><text x="56" style="color:#6e6e70;cursor:default;font-size:11px;fill:#6e6e70;width:183px;text-overflow:clip;" text-anchor="end" transform="translate(0,0)" y="369" opacity="1">0.6</text><text x="56" style="color:#6e6e70;cursor:default;font-size:11px;fill:#6e6e70;width:183px;text-overflow:clip;" text-anchor="end" transform="translate(0,0)" y="317" opacity="1">0.6</text><text x="56" style="color:#6e6e70;cursor:default;font-size:11px;fill:#6e6e70;width:183px;text-overflow:clip;" text-anchor="end" transform="translate(0,0)" y="267" opacity="1">0.7</text><text x="56" style="color:#6e6e70;cursor:default;font-size:11px;fill:#6e6e70;width:183px;text-overflow:clip;" text-anchor="end" transform="translate(0,0)" y="216" opacity="1">0.7</text><text x="56" style="color:#6e6e70;cursor:default;font-size:11px;fill:#6e6e70;width:183px;text-overflow:clip;" text-anchor="end" transform="translate(0,0)" y="164" opacity="1">0.8</text><text x="56" style="color:#6e6e70;cursor:default;font-size:11px;fill:#6e6e70;width:183px;text-overflow:clip;" text-anchor="end" transform="translate(0,0)" y="114" opacity="1">0.8</text><text x="56" style="color:#6e6e70;cursor:default;font-size:11px;fill:#6e6e70;width:183px;text-overflow:clip;" text-anchor="end" transform="translate(0,0)" y="63" opacity="1">0.9</text></g><g class="highcharts-tooltip"  style="cursor:default;padding:0;white-space:nowrap;" transform="translate(0,-9999)"><path fill="none" d="M 3 0 L 13 0 C 16 0 16 0 16 3 L 16 13 C 16 16 16 16 13 16 L 3 16 C 0 16 0 16 0 13 L 0 3 C 0 0 0 0 3 0"  stroke="black" stroke-opacity="0.0" stroke-width="5" transform="translate(1, 1)"></path><path fill="none" d="M 3 0 L 13 0 C 16 0 16 0 16 3 L 16 13 C 16 16 16 16 13 16 L 3 16 C 0 16 0 16 0 13 L 0 3 C 0 0 0 0 3 0"  stroke="black" stroke-opacity="0.0" stroke-width="3" transform="translate(1, 1)"></path><path fill="none" d="M 3 0 L 13 0 C 16 0 16 0 16 3 L 16 13 C 16 16 16 16 13 16 L 3 16 C 0 16 0 16 0 13 L 0 3 C 0 0 0 0 3 0"  stroke="black" stroke-opacity="0.1" stroke-width="1" transform="translate(1, 1)"></path><path fill="rgb(249, 249, 249)" fill-opacity=" .85" d="M 3 0 L 13 0 C 16 0 16 0 16 3 L 16 13 C 16 16 16 16 13 16 L 3 16 C 0 16 0 16 0 13 L 0 3 C 0 0 0 0 3 0"></path><text x="8"  style="font-size:12px;color:#333333;fill:#333333;" transform="translate(0,20)"></text></g></svg>