<svg version="1.1" style="font-family: signika, serif; font-size: 12px; background-image: url(http://www.highcharts.com/samples/graphics/sand.png); background-attachment: initial; background-origin: initial; background-clip: initial; background-color: initial; background-position: initial initial; background-repeat: initial initial; " xmlns="http://www.w3.org/2000/svg" width="584" height="400" viewBox="0 0 584 400" xmlns:xlink="http://www.w3.org/1999/xlink"><style type="text/css"><![CDATA[@import url(http://fonts.googleapis.com/css?family=Signika:700);]]></style><desc>Created with Highcharts 4.1.4</desc><defs><clipPath id="highcharts-1"><rect x="0" y="0" width="564" height="327"></rect></clipPath></defs><g class="highcharts-series-group" ><g class="highcharts-series highcharts-tracker" visibility="visible"  transform="translate(10,58) scale(1 1)" style=""><g class="highcharts-shadow"><g class="highcharts-shadow" transform="translate(0,0)"><path fill="none" d="M 229.9 84.0 A 85.5 85.5 0 1 1 207.1 251.8 L 230 169.5 A 0 0 0 1 0 230 169.5 Z" stroke="black" stroke-width="5" stroke-linejoin="round" transform="translate(1, 1)"  stroke-opacity="0.0" r="85.5"></path><path fill="none" d="M 229.9 84.0 A 85.5 85.5 0 1 1 207.1 251.8 L 230 169.5 A 0 0 0 1 0 230 169.5 Z" stroke="black" stroke-width="3" stroke-linejoin="round" transform="translate(1, 1)"  stroke-opacity="0.0" r="85.5"></path><path fill="none" d="M 229.9 84.0 A 85.5 85.5 0 1 1 207.1 251.8 L 230 169.5 A 0 0 0 1 0 230 169.5 Z" stroke="black" stroke-width="1" stroke-linejoin="round" transform="translate(1, 1)"  stroke-opacity="0.1" r="85.5"></path></g><g class="highcharts-shadow" transform="translate(0,0)"><path fill="none" d="M 207.0 251.8 A 85.5 85.5 0 0 1 145.0 178.7 L 230 169.5 A 0 0 0 0 0 230 169.5 Z" stroke="black" stroke-width="5" stroke-linejoin="round" transform="translate(1, 1)"  stroke-opacity="0.0" r="85.5"></path><path fill="none" d="M 207.0 251.8 A 85.5 85.5 0 0 1 145.0 178.7 L 230 169.5 A 0 0 0 0 0 230 169.5 Z" stroke="black" stroke-width="3" stroke-linejoin="round" transform="translate(1, 1)"  stroke-opacity="0.0" r="85.5"></path><path fill="none" d="M 207.0 251.8 A 85.5 85.5 0 0 1 145.0 178.7 L 230 169.5 A 0 0 0 0 0 230 169.5 Z" stroke="black" stroke-width="1" stroke-linejoin="round" transform="translate(1, 1)"  stroke-opacity="0.1" r="85.5"></path></g><g class="highcharts-shadow" transform="translate(0,0)"><path fill="none" d="M 144.9 178.6 A 85.5 85.5 0 0 1 195.7 91.1 L 230 169.5 A 0 0 0 0 0 230 169.5 Z" stroke="black" stroke-width="5" stroke-linejoin="round" transform="translate(1, 1)"  stroke-opacity="0.0" r="85.5"></path><path fill="none" d="M 144.9 178.6 A 85.5 85.5 0 0 1 195.7 91.1 L 230 169.5 A 0 0 0 0 0 230 169.5 Z" stroke="black" stroke-width="3" stroke-linejoin="round" transform="translate(1, 1)"  stroke-opacity="0.0" r="85.5"></path><path fill="none" d="M 144.9 178.6 A 85.5 85.5 0 0 1 195.7 91.1 L 230 169.5 A 0 0 0 0 0 230 169.5 Z" stroke="black" stroke-width="1" stroke-linejoin="round" transform="translate(1, 1)"  stroke-opacity="0.1" r="85.5"></path></g><g class="highcharts-shadow" transform="translate(0,0)"><path fill="none" d="M 195.8 91.1 A 85.5 85.5 0 0 1 219.9 84.5 L 230 169.5 A 0 0 0 0 0 230 169.5 Z" stroke="black" stroke-width="5" stroke-linejoin="round" transform="translate(1, 1)"  stroke-opacity="0.0" r="85.5"></path><path fill="none" d="M 195.8 91.1 A 85.5 85.5 0 0 1 219.9 84.5 L 230 169.5 A 0 0 0 0 0 230 169.5 Z" stroke="black" stroke-width="3" stroke-linejoin="round" transform="translate(1, 1)"  stroke-opacity="0.0" r="85.5"></path><path fill="none" d="M 195.8 91.1 A 85.5 85.5 0 0 1 219.9 84.5 L 230 169.5 A 0 0 0 0 0 230 169.5 Z" stroke="black" stroke-width="1" stroke-linejoin="round" transform="translate(1, 1)"  stroke-opacity="0.1" r="85.5"></path></g><g class="highcharts-shadow" transform="translate(0,0)"><path fill="none" d="M 220.0 84.5 A 85.5 85.5 0 0 1 228.3 84.0 L 230 169.5 A 0 0 0 0 0 230 169.5 Z" stroke="black" stroke-width="5" stroke-linejoin="round" transform="translate(1, 1)"  stroke-opacity="0.0" r="85.5"></path><path fill="none" d="M 220.0 84.5 A 85.5 85.5 0 0 1 228.3 84.0 L 230 169.5 A 0 0 0 0 0 230 169.5 Z" stroke="black" stroke-width="3" stroke-linejoin="round" transform="translate(1, 1)"  stroke-opacity="0.0" r="85.5"></path><path fill="none" d="M 220.0 84.5 A 85.5 85.5 0 0 1 228.3 84.0 L 230 169.5 A 0 0 0 0 0 230 169.5 Z" stroke="black" stroke-width="1" stroke-linejoin="round" transform="translate(1, 1)"  stroke-opacity="0.1" r="85.5"></path></g><g class="highcharts-shadow" transform="translate(0,0)"><path fill="none" d="M 228.4 84.0 A 85.5 85.5 0 0 1 229.8 84.0 L 230 169.5 A 0 0 0 0 0 230 169.5 Z" stroke="black" stroke-width="5" stroke-linejoin="round" transform="translate(1, 1)"  stroke-opacity="0.0" r="85.5"></path><path fill="none" d="M 228.4 84.0 A 85.5 85.5 0 0 1 229.8 84.0 L 230 169.5 A 0 0 0 0 0 230 169.5 Z" stroke="black" stroke-width="3" stroke-linejoin="round" transform="translate(1, 1)"  stroke-opacity="0.0" r="85.5"></path><path fill="none" d="M 228.4 84.0 A 85.5 85.5 0 0 1 229.8 84.0 L 230 169.5 A 0 0 0 0 0 230 169.5 Z" stroke="black" stroke-width="1" stroke-linejoin="round" transform="translate(1, 1)"  stroke-opacity="0.1" r="85.5"></path></g></g><path fill="#f45b5b" d="M 229.9 84.0 A 85.5 85.5 0 1 1 207.1 251.8 L 230 169.5 A 0 0 0 1 0 230 169.5 Z" stroke="#FFFFFF" stroke-width="1" stroke-linejoin="round" transform="translate(0,0)" class="highcharts-drilldown-point" style="cursor:pointer;"></path><path fill="#8085e9" d="M 207.0 251.8 A 85.5 85.5 0 0 1 145.0 178.7 L 230 169.5 A 0 0 0 0 0 230 169.5 Z" stroke="#FFFFFF" stroke-width="1" stroke-linejoin="round" transform="translate(0,0)" class="highcharts-drilldown-point" style="cursor:pointer;"></path><path fill="#8d4654" d="M 144.9 178.6 A 85.5 85.5 0 0 1 195.7 91.1 L 230 169.5 A 0 0 0 0 0 230 169.5 Z" stroke="#FFFFFF" stroke-width="1" stroke-linejoin="round" transform="translate(0,0)" class="highcharts-drilldown-point" style="cursor:pointer;"></path><path fill="#7798BF" d="M 195.8 91.1 A 85.5 85.5 0 0 1 219.9 84.5 L 230 169.5 A 0 0 0 0 0 230 169.5 Z" stroke="#FFFFFF" stroke-width="1" stroke-linejoin="round" transform="translate(0,0)" class="highcharts-drilldown-point" style="cursor:pointer;"></path><path fill="#aaeeee" d="M 220.0 84.5 A 85.5 85.5 0 0 1 228.3 84.0 L 230 169.5 A 0 0 0 0 0 230 169.5 Z" stroke="#FFFFFF" stroke-width="1" stroke-linejoin="round" transform="translate(0,0)" class="highcharts-drilldown-point" style="cursor:pointer;"></path><path fill="#ff0066" d="M 228.4 84.0 A 85.5 85.5 0 0 1 229.8 84.0 L 230 169.5 A 0 0 0 0 0 230 169.5 Z" stroke="#FFFFFF" stroke-width="1" stroke-linejoin="round" transform="translate(0,0)"></path></g><g class="highcharts-markers" visibility="visible"  transform="translate(10,58) scale(1 1)"></g></g><text x="292" text-anchor="middle" class="highcharts-title"  style="color:black;font-size:16px;font-weight:bold;fill:black;width:520px;" y="22"><tspan>Browser market shares. November, 2013.</tspan></text><text x="292" text-anchor="middle" class="highcharts-subtitle"  style="color:black;fill:black;width:520px;" y="43"><tspan>Click the slices to view versions. Source: netmarketshare.com.</tspan></text><g class="highcharts-data-labels highcharts-tracker" visibility="visible"  transform="translate(10,58) scale(1 1)" style=""><path fill="none" d="M 349.4 185.0 C 344.4 185.0 336.5 184.0 325.6 182.5 L 314.7 181.0" stroke="#f45b5b" stroke-width="1"></path><path fill="none" d="M 136.9 244.2 C 141.9 244.2 148.0 239.0 156.4 231.9 L 164.8 224.8" stroke="#8085e9" stroke-width="1"></path><path fill="none" d="M 119.2 123 C 124.2 123 137.0 115.5 146.5 121.0 L 156.0 126.6" stroke="#8d4654" stroke-width="1"></path><path fill="none" d="M 132.7 100 C 137.7 100 201.9 65.7 204.8 76.3 L 207.6 86.9" stroke="#7798BF" stroke-width="1"></path><path fill="none" d="M 155.8 77 C 160.8 77 222.7 62.2 223.4 73.2 L 224.2 84.1" stroke="#aaeeee" stroke-width="1"></path><path fill="none" d="M 223.9 54 C 228.9 54 229.0 62.0 229.1 73.0 L 229.2 84.0" stroke="#ff0066" stroke-width="1"></path><g  style="cursor:pointer;" transform="translate(354,175)" class="highcharts-drilldown-data-label"><text x="5"  style="font-size:11px;font-weight:bold;color:#0d233a;text-shadow:0 0 6px contrast, 0 0 3px contrast;fill:#0d233a;text-decoration:underline;" transform="translate(0,16)"><tspan>Microsoft Internet Explorer : 53.6%</tspan></text></g><g  style="cursor:pointer;" transform="translate(37,234)" class="highcharts-drilldown-data-label"><text x="5"  style="font-size:11px;font-weight:bold;color:#0d233a;text-shadow:0 0 6px contrast, 0 0 3px contrast;fill:#0d233a;text-decoration:underline;" transform="translate(0,16)"><tspan>Chrome : 18.7%</tspan></text></g><g  style="cursor:pointer;" transform="translate(24,113)" class="highcharts-drilldown-data-label"><text x="5"  style="font-size:11px;font-weight:bold;color:#0d233a;text-shadow:0 0 6px contrast, 0 0 3px contrast;fill:#0d233a;text-decoration:underline;" transform="translate(0,16)"><tspan>Firefox : 19.9%</tspan></text></g><g  style="cursor:pointer;" transform="translate(51,90)" class="highcharts-drilldown-data-label"><text x="5"  style="font-size:11px;font-weight:bold;color:#0d233a;text-shadow:0 0 6px contrast, 0 0 3px contrast;fill:#0d233a;text-decoration:underline;" transform="translate(0,16)"><tspan>Safari : 4.6%</tspan></text></g><g  style="cursor:pointer;" transform="translate(73,67)" class="highcharts-drilldown-data-label"><text x="5"  style="font-size:11px;font-weight:bold;color:#0d233a;text-shadow:0 0 6px contrast, 0 0 3px contrast;fill:#0d233a;text-decoration:underline;" transform="translate(0,16)"><tspan>Opera : 1.5%</tspan></text></g><g  style="" transform="translate(19,44)"><text x="5"  style="font-size: 11px; font-weight: bold; color: rgb(0, 0, 0); fill: #000000; text-shadow: rgb(255, 255, 255) 0px 0px 6px, rgb(255, 255, 255) 0px 0px 3px; " transform="translate(0,16)"><tspan>Proprietary or Undetectable: 0.3%</tspan></text></g></g><g class="highcharts-legend" ><g ><g></g></g></g><g class="highcharts-tooltip"  style="cursor:default;padding:0;white-space:nowrap;" transform="translate(0,-9999)"><path fill="none" d="M 3 0 L 13 0 C 16 0 16 0 16 3 L 16 13 C 16 16 16 16 13 16 L 3 16 C 0 16 0 16 0 13 L 0 3 C 0 0 0 0 3 0"  stroke="black" stroke-opacity="0.0" stroke-width="5" transform="translate(1, 1)"></path><path fill="none" d="M 3 0 L 13 0 C 16 0 16 0 16 3 L 16 13 C 16 16 16 16 13 16 L 3 16 C 0 16 0 16 0 13 L 0 3 C 0 0 0 0 3 0"  stroke="black" stroke-opacity="0.0" stroke-width="3" transform="translate(1, 1)"></path><path fill="none" d="M 3 0 L 13 0 C 16 0 16 0 16 3 L 16 13 C 16 16 16 16 13 16 L 3 16 C 0 16 0 16 0 13 L 0 3 C 0 0 0 0 3 0"  stroke="black" stroke-opacity="0.1" stroke-width="1" transform="translate(1, 1)"></path><path fill="rgb(249, 249, 249)" fill-opacity=" .85" d="M 3 0 L 13 0 C 16 0 16 0 16 3 L 16 13 C 16 16 16 16 13 16 L 3 16 C 0 16 0 16 0 13 L 0 3 C 0 0 0 0 3 0"></path><text x="8"  style="font-size:12px;color:#333333;fill:#333333;" transform="translate(0,20)"></text></g></svg>