<svg version="1.1" style="font-family: signika, serif; font-size: 12px; background-image: url(http://www.highcharts.com/samples/graphics/sand.png); background-attachment: initial; background-origin: initial; background-clip: initial; background-color: initial; background-position: initial initial; background-repeat: initial initial; " xmlns="http://www.w3.org/2000/svg" width="584" height="400" viewBox="0 0 584 400" xmlns:xlink="http://www.w3.org/1999/xlink"><style type="text/css"><![CDATA[@import url(http://fonts.googleapis.com/css?family=Signika:700);]]></style><desc>Created with Highcharts 4.1.4</desc><defs><clipPath id="highcharts-1"><rect x="0" y="0" width="564" height="375"></rect></clipPath></defs><g class="highcharts-series-group" ><g class="highcharts-series highcharts-tracker" visibility="visible"  transform="translate(10,10) scale(1 1)" style=""><g class="highcharts-shadow"><g class="highcharts-shadow" transform="translate(0,0)"><path fill="none" d="M 104.5 271.3 A 177.5 177.5 0 0 1 254.0 95.9 L 268.0 183.6 A 88.7 88.7 0 0 0 193.2 271.2 Z" stroke="black" stroke-width="5" stroke-linejoin="round" transform="translate(1, 1)"  stroke-opacity="0.0" r="177.5"></path><path fill="none" d="M 104.5 271.3 A 177.5 177.5 0 0 1 254.0 95.9 L 268.0 183.6 A 88.7 88.7 0 0 0 193.2 271.2 Z" stroke="black" stroke-width="3" stroke-linejoin="round" transform="translate(1, 1)"  stroke-opacity="0.0" r="177.5"></path><path fill="none" d="M 104.5 271.3 A 177.5 177.5 0 0 1 254.0 95.9 L 268.0 183.6 A 88.7 88.7 0 0 0 193.2 271.2 Z" stroke="black" stroke-width="1" stroke-linejoin="round" transform="translate(1, 1)"  stroke-opacity="0.1" r="177.5"></path></g><g class="highcharts-shadow" transform="translate(0,0)"><path fill="none" d="M 254.2 95.9 A 177.5 177.5 0 0 1 394.1 133.6 L 338.0 202.4 A 88.7 88.7 0 0 0 268.1 183.5 Z" stroke="black" stroke-width="5" stroke-linejoin="round" transform="translate(1, 1)"  stroke-opacity="0.0" r="177.5"></path><path fill="none" d="M 254.2 95.9 A 177.5 177.5 0 0 1 394.1 133.6 L 338.0 202.4 A 88.7 88.7 0 0 0 268.1 183.5 Z" stroke="black" stroke-width="3" stroke-linejoin="round" transform="translate(1, 1)"  stroke-opacity="0.0" r="177.5"></path><path fill="none" d="M 254.2 95.9 A 177.5 177.5 0 0 1 394.1 133.6 L 338.0 202.4 A 88.7 88.7 0 0 0 268.1 183.5 Z" stroke="black" stroke-width="1" stroke-linejoin="round" transform="translate(1, 1)"  stroke-opacity="0.1" r="177.5"></path></g><g class="highcharts-shadow" transform="translate(0,0)"><path fill="none" d="M 394.2 133.7 A 177.5 177.5 0 0 1 439.0 188.4 L 360.5 229.8 A 88.7 88.7 0 0 0 338.1 202.5 Z" stroke="black" stroke-width="5" stroke-linejoin="round" transform="translate(1, 1)"  stroke-opacity="0.0" r="177.5"></path><path fill="none" d="M 394.2 133.7 A 177.5 177.5 0 0 1 439.0 188.4 L 360.5 229.8 A 88.7 88.7 0 0 0 338.1 202.5 Z" stroke="black" stroke-width="3" stroke-linejoin="round" transform="translate(1, 1)"  stroke-opacity="0.0" r="177.5"></path><path fill="none" d="M 394.2 133.7 A 177.5 177.5 0 0 1 439.0 188.4 L 360.5 229.8 A 88.7 88.7 0 0 0 338.1 202.5 Z" stroke="black" stroke-width="1" stroke-linejoin="round" transform="translate(1, 1)"  stroke-opacity="0.1" r="177.5"></path></g><g class="highcharts-shadow" transform="translate(0,0)"><path fill="none" d="M 439.1 188.6 A 177.5 177.5 0 0 1 455.2 232.8 L 368.6 252.0 A 88.7 88.7 0 0 0 360.5 229.9 Z" stroke="black" stroke-width="5" stroke-linejoin="round" transform="translate(1, 1)"  stroke-opacity="0.0" r="177.5"></path><path fill="none" d="M 439.1 188.6 A 177.5 177.5 0 0 1 455.2 232.8 L 368.6 252.0 A 88.7 88.7 0 0 0 360.5 229.9 Z" stroke="black" stroke-width="3" stroke-linejoin="round" transform="translate(1, 1)"  stroke-opacity="0.0" r="177.5"></path><path fill="none" d="M 439.1 188.6 A 177.5 177.5 0 0 1 455.2 232.8 L 368.6 252.0 A 88.7 88.7 0 0 0 360.5 229.9 Z" stroke="black" stroke-width="1" stroke-linejoin="round" transform="translate(1, 1)"  stroke-opacity="0.1" r="177.5"></path></g><g class="highcharts-shadow" transform="translate(0,0)"><path fill="none" d="M 455.3 233.0 A 177.5 177.5 0 0 1 459.4 267.1 L 370.7 269.2 A 88.7 88.7 0 0 0 368.6 252.1 Z" stroke="black" stroke-width="5" stroke-linejoin="round" transform="translate(1, 1)"  stroke-opacity="0.0" r="177.5"></path><path fill="none" d="M 455.3 233.0 A 177.5 177.5 0 0 1 459.4 267.1 L 370.7 269.2 A 88.7 88.7 0 0 0 368.6 252.1 Z" stroke="black" stroke-width="3" stroke-linejoin="round" transform="translate(1, 1)"  stroke-opacity="0.0" r="177.5"></path><path fill="none" d="M 455.3 233.0 A 177.5 177.5 0 0 1 459.4 267.1 L 370.7 269.2 A 88.7 88.7 0 0 0 368.6 252.1 Z" stroke="black" stroke-width="1" stroke-linejoin="round" transform="translate(1, 1)"  stroke-opacity="0.1" r="177.5"></path></g><g class="highcharts-shadow" transform="translate(0,0)"><path fill="none" d="M 459.4 267.3 A 177.5 177.5 0 0 1 459.4 271.0 L 370.7 271.1 A 88.7 88.7 0 0 0 370.7 269.2 Z" stroke="black" stroke-width="5" stroke-linejoin="round" transform="translate(1, 1)"  stroke-opacity="0.0" r="177.5"></path><path fill="none" d="M 459.4 267.3 A 177.5 177.5 0 0 1 459.4 271.0 L 370.7 271.1 A 88.7 88.7 0 0 0 370.7 269.2 Z" stroke="black" stroke-width="3" stroke-linejoin="round" transform="translate(1, 1)"  stroke-opacity="0.0" r="177.5"></path><path fill="none" d="M 459.4 267.3 A 177.5 177.5 0 0 1 459.4 271.0 L 370.7 271.1 A 88.7 88.7 0 0 0 370.7 269.2 Z" stroke="black" stroke-width="1" stroke-linejoin="round" transform="translate(1, 1)"  stroke-opacity="0.1" r="177.5"></path></g></g><path fill="#f45b5b" d="M 104.5 271.3 A 177.5 177.5 0 0 1 254.0 95.9 L 268.0 183.6 A 88.7 88.7 0 0 0 193.2 271.2 Z" stroke="#FFFFFF" stroke-width="1" stroke-linejoin="round" transform="translate(0,0)"></path><path fill="#8085e9" d="M 254.2 95.9 A 177.5 177.5 0 0 1 394.1 133.6 L 338.0 202.4 A 88.7 88.7 0 0 0 268.1 183.5 Z" stroke="#FFFFFF" stroke-width="1" stroke-linejoin="round" transform="translate(0,0)"></path><path fill="#8d4654" d="M 394.2 133.7 A 177.5 177.5 0 0 1 439.0 188.4 L 360.5 229.8 A 88.7 88.7 0 0 0 338.1 202.5 Z" stroke="#FFFFFF" stroke-width="1" stroke-linejoin="round" transform="translate(0,0)"></path><path fill="#7798BF" d="M 439.1 188.6 A 177.5 177.5 0 0 1 455.2 232.8 L 368.6 252.0 A 88.7 88.7 0 0 0 360.5 229.9 Z" stroke="#FFFFFF" stroke-width="1" stroke-linejoin="round" transform="translate(0,0)"></path><path fill="#aaeeee" d="M 455.3 233.0 A 177.5 177.5 0 0 1 459.4 267.1 L 370.7 269.2 A 88.7 88.7 0 0 0 368.6 252.1 Z" stroke="#FFFFFF" stroke-width="1" stroke-linejoin="round" transform="translate(0,0)"></path><path fill="#ff0066" d="M 459.4 267.3 A 177.5 177.5 0 0 1 459.4 271.0 L 370.7 271.1 A 88.7 88.7 0 0 0 370.7 269.2 Z" stroke="#FFFFFF" stroke-width="1" stroke-linejoin="round" transform="translate(0,0)"></path></g><g class="highcharts-markers" visibility="visible"  transform="translate(10,10) scale(1 1)"></g></g><text x="292" text-anchor="middle" class="highcharts-title"  style="color:black;font-size:16px;font-weight:bold;fill:black;width:520px;" y="248"><tspan>Browser</tspan><tspan x="292" dy="19">shares</tspan></text><g class="highcharts-data-labels highcharts-tracker" visibility="visible"  transform="translate(10,10) scale(1 1)" style=""><g  style="" transform="translate(163,178)"><text x="5"  style="font-size:11px;font-weight:bold;color:white;text-shadow:0px 1px 2px black;fill:white;" transform="translate(0,16)"><tspan>Firefox</tspan></text></g><g  style="" transform="translate(307,138)"><text x="5"  style="font-size:11px;font-weight:bold;color:white;text-shadow:0px 1px 2px black;fill:white;" transform="translate(0,16)"><tspan>IE</tspan></text></g><g  style="" transform="translate(356,181)"><text x="5"  style="font-size:11px;font-weight:bold;color:white;text-shadow:0px 1px 2px black;fill:white;" transform="translate(0,16)"><tspan>Chrome</tspan></text></g><g  style="" transform="translate(383,217)"><text x="5"  style="font-size:11px;font-weight:bold;color:white;text-shadow:0px 1px 2px black;fill:white;" transform="translate(0,16)"><tspan>Safari</tspan></text></g><g  style="" transform="translate(389,246)"><text x="5"  style="font-size:11px;font-weight:bold;color:white;text-shadow:0px 1px 2px black;fill:white;" transform="translate(0,16)"><tspan>Opera</tspan></text></g></g><g class="highcharts-legend" ><g ><g></g></g></g><g class="highcharts-tooltip"  style="cursor:default;padding:0;white-space:nowrap;" transform="translate(0,-9999)"><path fill="none" d="M 3 0 L 13 0 C 16 0 16 0 16 3 L 16 13 C 16 16 16 16 13 16 L 3 16 C 0 16 0 16 0 13 L 0 3 C 0 0 0 0 3 0"  stroke="black" stroke-opacity="0.0" stroke-width="5" transform="translate(1, 1)"></path><path fill="none" d="M 3 0 L 13 0 C 16 0 16 0 16 3 L 16 13 C 16 16 16 16 13 16 L 3 16 C 0 16 0 16 0 13 L 0 3 C 0 0 0 0 3 0"  stroke="black" stroke-opacity="0.0" stroke-width="3" transform="translate(1, 1)"></path><path fill="none" d="M 3 0 L 13 0 C 16 0 16 0 16 3 L 16 13 C 16 16 16 16 13 16 L 3 16 C 0 16 0 16 0 13 L 0 3 C 0 0 0 0 3 0"  stroke="black" stroke-opacity="0.1" stroke-width="1" transform="translate(1, 1)"></path><path fill="rgb(249, 249, 249)" fill-opacity=" .85" d="M 3 0 L 13 0 C 16 0 16 0 16 3 L 16 13 C 16 16 16 16 13 16 L 3 16 C 0 16 0 16 0 13 L 0 3 C 0 0 0 0 3 0"></path><text x="8"  style="font-size:12px;color:#333333;fill:#333333;" transform="translate(0,20)"></text></g></svg>