<svg version="1.1" style="font-family: signika, serif; font-size: 12px; background-image: url(http://www.highcharts.com/samples/graphics/sand.png); background-attachment: initial; background-origin: initial; background-clip: initial; background-color: initial; background-position: initial initial; background-repeat: initial initial; " xmlns="http://www.w3.org/2000/svg" width="584" height="400" viewBox="0 0 584 400" xmlns:xlink="http://www.w3.org/1999/xlink"><style type="text/css"><![CDATA[@import url(http://fonts.googleapis.com/css?family=Signika:700);]]></style><desc>Created with Highcharts 4.1.4</desc><defs><clipPath id="highcharts-1"><rect x="0" y="0" width="564" height="302"></rect></clipPath></defs><g class="highcharts-series-group" ><g class="highcharts-series highcharts-tracker" visibility="visible"  transform="translate(10,44) scale(1 1)" style="cursor:pointer;"><g class="highcharts-shadow"><g class="highcharts-shadow" transform="translate(0,0)"><path fill="none" d="M 281.9 10.0 A 141 141 0 0 1 325.6 285.0 L 282 151 A 0 0 0 0 0 282 151 Z" stroke="black" stroke-width="5" stroke-linejoin="round" transform="translate(1, 1)"  stroke-opacity="0.0" r="141"></path><path fill="none" d="M 281.9 10.0 A 141 141 0 0 1 325.6 285.0 L 282 151 A 0 0 0 0 0 282 151 Z" stroke="black" stroke-width="3" stroke-linejoin="round" transform="translate(1, 1)"  stroke-opacity="0.0" r="141"></path><path fill="none" d="M 281.9 10.0 A 141 141 0 0 1 325.6 285.0 L 282 151 A 0 0 0 0 0 282 151 Z" stroke="black" stroke-width="1" stroke-linejoin="round" transform="translate(1, 1)"  stroke-opacity="0.1" r="141"></path></g><g class="highcharts-shadow" transform="translate(0,0)"><path fill="none" d="M 325.5 285.1 A 141 141 0 0 1 143.8 179.2 L 282 151 A 0 0 0 0 0 282 151 Z" stroke="black" stroke-width="5" stroke-linejoin="round" transform="translate(1, 1)"  stroke-opacity="0.0" r="141"></path><path fill="none" d="M 325.5 285.1 A 141 141 0 0 1 143.8 179.2 L 282 151 A 0 0 0 0 0 282 151 Z" stroke="black" stroke-width="3" stroke-linejoin="round" transform="translate(1, 1)"  stroke-opacity="0.0" r="141"></path><path fill="none" d="M 325.5 285.1 A 141 141 0 0 1 143.8 179.2 L 282 151 A 0 0 0 0 0 282 151 Z" stroke="black" stroke-width="1" stroke-linejoin="round" transform="translate(1, 1)"  stroke-opacity="0.1" r="141"></path></g><g class="highcharts-shadow" transform="translate(-10,-2)"><path fill="none" d="M 143.8 179.0 A 141 141 0 0 1 165.8 71.1 L 282 151 A 0 0 0 0 0 282 151 Z" stroke="black" stroke-width="5" stroke-linejoin="round" transform="translate(1, 1)"  stroke-opacity="0.0" r="141"></path><path fill="none" d="M 143.8 179.0 A 141 141 0 0 1 165.8 71.1 L 282 151 A 0 0 0 0 0 282 151 Z" stroke="black" stroke-width="3" stroke-linejoin="round" transform="translate(1, 1)"  stroke-opacity="0.0" r="141"></path><path fill="none" d="M 143.8 179.0 A 141 141 0 0 1 165.8 71.1 L 282 151 A 0 0 0 0 0 282 151 Z" stroke="black" stroke-width="1" stroke-linejoin="round" transform="translate(1, 1)"  stroke-opacity="0.1" r="141"></path></g><g class="highcharts-shadow" transform="translate(0,0)"><path fill="none" d="M 165.8 70.9 A 141 141 0 0 1 222.6 23.0 L 282 151 A 0 0 0 0 0 282 151 Z" stroke="black" stroke-width="5" stroke-linejoin="round" transform="translate(1, 1)"  stroke-opacity="0.0" r="141"></path><path fill="none" d="M 165.8 70.9 A 141 141 0 0 1 222.6 23.0 L 282 151 A 0 0 0 0 0 282 151 Z" stroke="black" stroke-width="3" stroke-linejoin="round" transform="translate(1, 1)"  stroke-opacity="0.0" r="141"></path><path fill="none" d="M 165.8 70.9 A 141 141 0 0 1 222.6 23.0 L 282 151 A 0 0 0 0 0 282 151 Z" stroke="black" stroke-width="1" stroke-linejoin="round" transform="translate(1, 1)"  stroke-opacity="0.1" r="141"></path></g><g class="highcharts-shadow" transform="translate(0,0)"><path fill="none" d="M 222.7 23.0 A 141 141 0 0 1 275.6 10.1 L 282 151 A 0 0 0 0 0 282 151 Z" stroke="black" stroke-width="5" stroke-linejoin="round" transform="translate(1, 1)"  stroke-opacity="0.0" r="141"></path><path fill="none" d="M 222.7 23.0 A 141 141 0 0 1 275.6 10.1 L 282 151 A 0 0 0 0 0 282 151 Z" stroke="black" stroke-width="3" stroke-linejoin="round" transform="translate(1, 1)"  stroke-opacity="0.0" r="141"></path><path fill="none" d="M 222.7 23.0 A 141 141 0 0 1 275.6 10.1 L 282 151 A 0 0 0 0 0 282 151 Z" stroke="black" stroke-width="1" stroke-linejoin="round" transform="translate(1, 1)"  stroke-opacity="0.1" r="141"></path></g><g class="highcharts-shadow" transform="translate(0,0)"><path fill="none" d="M 275.7 10.1 A 141 141 0 0 1 281.8 10.0 L 282 151 A 0 0 0 0 0 282 151 Z" stroke="black" stroke-width="5" stroke-linejoin="round" transform="translate(1, 1)"  stroke-opacity="0.0" r="141"></path><path fill="none" d="M 275.7 10.1 A 141 141 0 0 1 281.8 10.0 L 282 151 A 0 0 0 0 0 282 151 Z" stroke="black" stroke-width="3" stroke-linejoin="round" transform="translate(1, 1)"  stroke-opacity="0.0" r="141"></path><path fill="none" d="M 275.7 10.1 A 141 141 0 0 1 281.8 10.0 L 282 151 A 0 0 0 0 0 282 151 Z" stroke="black" stroke-width="1" stroke-linejoin="round" transform="translate(1, 1)"  stroke-opacity="0.1" r="141"></path></g></g><path fill="#f45b5b" d="M 281.9 10.0 A 141 141 0 0 1 325.6 285.0 L 282 151 A 0 0 0 0 0 282 151 Z" stroke="#FFFFFF" stroke-width="1" stroke-linejoin="round" transform="translate(0,0)"></path><path fill="#8085e9" d="M 325.5 285.1 A 141 141 0 0 1 143.8 179.2 L 282 151 A 0 0 0 0 0 282 151 Z" stroke="#FFFFFF" stroke-width="1" stroke-linejoin="round" transform="translate(0,0)"></path><path fill="#8d4654" d="M 143.8 179.0 A 141 141 0 0 1 165.8 71.1 L 282 151 A 0 0 0 0 0 282 151 Z" stroke="#FFFFFF" stroke-width="1" stroke-linejoin="round" transform="translate(-10,-2)"></path><path fill="#7798BF" d="M 165.8 70.9 A 141 141 0 0 1 222.6 23.0 L 282 151 A 0 0 0 0 0 282 151 Z" stroke="#FFFFFF" stroke-width="1" stroke-linejoin="round" transform="translate(0,0)"></path><path fill="#aaeeee" d="M 222.7 23.0 A 141 141 0 0 1 275.6 10.1 L 282 151 A 0 0 0 0 0 282 151 Z" stroke="#FFFFFF" stroke-width="1" stroke-linejoin="round" transform="translate(0,0)"></path><path fill="#ff0066" d="M 275.7 10.1 A 141 141 0 0 1 281.8 10.0 L 282 151 A 0 0 0 0 0 282 151 Z" stroke="#FFFFFF" stroke-width="1" stroke-linejoin="round" transform="translate(0,0)"></path></g><g class="highcharts-markers" visibility="visible"  transform="translate(10,44) scale(1 1)"></g></g><text x="292" text-anchor="middle" class="highcharts-title"  style="color:black;font-size:16px;font-weight:bold;fill:black;width:520px;" y="22"><tspan>Browser market shares at a specific website, 2014</tspan></text><g class="highcharts-legend"  transform="translate(59,358)"><g ><g><g class="highcharts-legend-item"  transform="translate(8,3)"><text x="21" style="color:#333333;font-size:13px;font-weight:bold;cursor:pointer;fill:#333333;" text-anchor="start"  y="16">Firefox</text><rect x="0" y="5" width="16" height="12"  fill="#f45b5b"></rect></g><g class="highcharts-legend-item"  transform="translate(92,3)"><text x="21" y="16" style="color:#333333;font-size:13px;font-weight:bold;cursor:pointer;fill:#333333;" text-anchor="start" >IE</text><rect x="0" y="5" width="16" height="12"  fill="#8085e9"></rect></g><g class="highcharts-legend-item"  transform="translate(145,3)"><text x="21" y="16" style="color:#333333;font-size:13px;font-weight:bold;cursor:pointer;fill:#333333;" text-anchor="start" >Chrome</text><rect x="0" y="5" width="16" height="12"  fill="#8d4654"></rect></g><g class="highcharts-legend-item"  transform="translate(235,3)"><text x="21" y="16" style="color:#333333;font-size:13px;font-weight:bold;cursor:pointer;fill:#333333;" text-anchor="start" >Safari</text><rect x="0" y="5" width="16" height="12"  fill="#7798BF"></rect></g><g class="highcharts-legend-item"  transform="translate(314,3)"><text x="21" y="16" style="color:#333333;font-size:13px;font-weight:bold;cursor:pointer;fill:#333333;" text-anchor="start" >Opera</text><rect x="0" y="5" width="16" height="12"  fill="#aaeeee"></rect></g><g class="highcharts-legend-item"  transform="translate(394,3)"><text x="21" y="16" style="color:#333333;font-size:13px;font-weight:bold;cursor:pointer;fill:#333333;" text-anchor="start" >Others</text><rect x="0" y="5" width="16" height="12"  fill="#ff0066"></rect></g></g></g></g><g class="highcharts-tooltip"  style="cursor:default;padding:0;white-space:nowrap;" transform="translate(0,-9999)"><path fill="none" d="M 3 0 L 13 0 C 16 0 16 0 16 3 L 16 13 C 16 16 16 16 13 16 L 3 16 C 0 16 0 16 0 13 L 0 3 C 0 0 0 0 3 0"  stroke="black" stroke-opacity="0.0" stroke-width="5" transform="translate(1, 1)"></path><path fill="none" d="M 3 0 L 13 0 C 16 0 16 0 16 3 L 16 13 C 16 16 16 16 13 16 L 3 16 C 0 16 0 16 0 13 L 0 3 C 0 0 0 0 3 0"  stroke="black" stroke-opacity="0.0" stroke-width="3" transform="translate(1, 1)"></path><path fill="none" d="M 3 0 L 13 0 C 16 0 16 0 16 3 L 16 13 C 16 16 16 16 13 16 L 3 16 C 0 16 0 16 0 13 L 0 3 C 0 0 0 0 3 0"  stroke="black" stroke-opacity="0.1" stroke-width="1" transform="translate(1, 1)"></path><path fill="rgb(249, 249, 249)" fill-opacity=" .85" d="M 3 0 L 13 0 C 16 0 16 0 16 3 L 16 13 C 16 16 16 16 13 16 L 3 16 C 0 16 0 16 0 13 L 0 3 C 0 0 0 0 3 0"></path><text x="8"  style="font-size:12px;color:#333333;fill:#333333;" transform="translate(0,20)"></text></g></svg>