<svg version="1.1" style="font-family: signika, serif; font-size: 12px; background-image: url(http://www.highcharts.com/samples/graphics/sand.png); background-attachment: initial; background-origin: initial; background-clip: initial; background-color: initial; background-position: initial initial; background-repeat: initial initial; " xmlns="http://www.w3.org/2000/svg" width="600" height="400" viewBox="0 0 600 400" xmlns:xlink="http://www.w3.org/1999/xlink"><style type="text/css"><![CDATA[@import url(http://fonts.googleapis.com/css?family=Signika:700);]]></style><desc>Created with Highcharts 4.1.4</desc><defs><clipPath id="highcharts-1"><rect x="0" y="0" width="580" height="341"></rect></clipPath></defs><g class="highcharts-series-group" ><g class="highcharts-series highcharts-tracker" visibility="visible"  transform="translate(10,44) scale(1 1)" style=""><g class="highcharts-shadow"><g class="highcharts-shadow" transform="translate(0,0)"><path fill="none" d="M 289.9 70.2 A 100.3 100.3 0 1 1 251.6 263.1 L 290 170.5 A 0 0 0 1 0 290 170.5 Z" stroke="black" stroke-width="5" stroke-linejoin="round" transform="translate(1, 1)"  stroke-opacity="0.0" r="100.3"></path><path fill="none" d="M 289.9 70.2 A 100.3 100.3 0 1 1 251.6 263.1 L 290 170.5 A 0 0 0 1 0 290 170.5 Z" stroke="black" stroke-width="3" stroke-linejoin="round" transform="translate(1, 1)"  stroke-opacity="0.0" r="100.3"></path><path fill="none" d="M 289.9 70.2 A 100.3 100.3 0 1 1 251.6 263.1 L 290 170.5 A 0 0 0 1 0 290 170.5 Z" stroke="black" stroke-width="1" stroke-linejoin="round" transform="translate(1, 1)"  stroke-opacity="0.1" r="100.3"></path></g><g class="highcharts-shadow" transform="translate(0,0)"><path fill="none" d="M 251.5 263.1 A 100.3 100.3 0 0 1 191.8 149.7 L 290 170.5 A 0 0 0 0 0 290 170.5 Z" stroke="black" stroke-width="5" stroke-linejoin="round" transform="translate(1, 1)"  stroke-opacity="0.0" r="100.3"></path><path fill="none" d="M 251.5 263.1 A 100.3 100.3 0 0 1 191.8 149.7 L 290 170.5 A 0 0 0 0 0 290 170.5 Z" stroke="black" stroke-width="3" stroke-linejoin="round" transform="translate(1, 1)"  stroke-opacity="0.0" r="100.3"></path><path fill="none" d="M 251.5 263.1 A 100.3 100.3 0 0 1 191.8 149.7 L 290 170.5 A 0 0 0 0 0 290 170.5 Z" stroke="black" stroke-width="1" stroke-linejoin="round" transform="translate(1, 1)"  stroke-opacity="0.1" r="100.3"></path></g><g class="highcharts-shadow" transform="translate(0,0)"><path fill="none" d="M 191.8 149.6 A 100.3 100.3 0 0 1 233.6 87.5 L 290 170.5 A 0 0 0 0 0 290 170.5 Z" stroke="black" stroke-width="5" stroke-linejoin="round" transform="translate(1, 1)"  stroke-opacity="0.0" r="100.3"></path><path fill="none" d="M 191.8 149.6 A 100.3 100.3 0 0 1 233.6 87.5 L 290 170.5 A 0 0 0 0 0 290 170.5 Z" stroke="black" stroke-width="3" stroke-linejoin="round" transform="translate(1, 1)"  stroke-opacity="0.0" r="100.3"></path><path fill="none" d="M 191.8 149.6 A 100.3 100.3 0 0 1 233.6 87.5 L 290 170.5 A 0 0 0 0 0 290 170.5 Z" stroke="black" stroke-width="1" stroke-linejoin="round" transform="translate(1, 1)"  stroke-opacity="0.1" r="100.3"></path></g><g class="highcharts-shadow" transform="translate(0,0)"><path fill="none" d="M 233.7 87.4 A 100.3 100.3 0 0 1 276.1 71.1 L 290 170.5 A 0 0 0 0 0 290 170.5 Z" stroke="black" stroke-width="5" stroke-linejoin="round" transform="translate(1, 1)"  stroke-opacity="0.0" r="100.3"></path><path fill="none" d="M 233.7 87.4 A 100.3 100.3 0 0 1 276.1 71.1 L 290 170.5 A 0 0 0 0 0 290 170.5 Z" stroke="black" stroke-width="3" stroke-linejoin="round" transform="translate(1, 1)"  stroke-opacity="0.0" r="100.3"></path><path fill="none" d="M 233.7 87.4 A 100.3 100.3 0 0 1 276.1 71.1 L 290 170.5 A 0 0 0 0 0 290 170.5 Z" stroke="black" stroke-width="1" stroke-linejoin="round" transform="translate(1, 1)"  stroke-opacity="0.1" r="100.3"></path></g><g class="highcharts-shadow" transform="translate(0,0)"><path fill="none" d="M 276.2 71.1 A 100.3 100.3 0 0 1 289.8 70.2 L 290 170.5 A 0 0 0 0 0 290 170.5 Z" stroke="black" stroke-width="5" stroke-linejoin="round" transform="translate(1, 1)"  stroke-opacity="0.0" r="100.3"></path><path fill="none" d="M 276.2 71.1 A 100.3 100.3 0 0 1 289.8 70.2 L 290 170.5 A 0 0 0 0 0 290 170.5 Z" stroke="black" stroke-width="3" stroke-linejoin="round" transform="translate(1, 1)"  stroke-opacity="0.0" r="100.3"></path><path fill="none" d="M 276.2 71.1 A 100.3 100.3 0 0 1 289.8 70.2 L 290 170.5 A 0 0 0 0 0 290 170.5 Z" stroke="black" stroke-width="1" stroke-linejoin="round" transform="translate(1, 1)"  stroke-opacity="0.1" r="100.3"></path></g></g><path fill="#f45b5b" d="M 289.9 70.2 A 100.3 100.3 0 1 1 251.6 263.1 L 290 170.5 A 0 0 0 1 0 290 170.5 Z" stroke="#FFFFFF" stroke-width="1" stroke-linejoin="round" transform="translate(0,0)"></path><path fill="#8085e9" d="M 251.5 263.1 A 100.3 100.3 0 0 1 191.8 149.7 L 290 170.5 A 0 0 0 0 0 290 170.5 Z" stroke="#FFFFFF" stroke-width="1" stroke-linejoin="round" transform="translate(0,0)"></path><path fill="#8d4654" d="M 191.8 149.6 A 100.3 100.3 0 0 1 233.6 87.5 L 290 170.5 A 0 0 0 0 0 290 170.5 Z" stroke="#FFFFFF" stroke-width="1" stroke-linejoin="round" transform="translate(0,0)"></path><path fill="#7798BF" d="M 233.7 87.4 A 100.3 100.3 0 0 1 276.1 71.1 L 290 170.5 A 0 0 0 0 0 290 170.5 Z" stroke="#FFFFFF" stroke-width="1" stroke-linejoin="round" transform="translate(0,0)"></path><path fill="#aaeeee" d="M 276.2 71.1 A 100.3 100.3 0 0 1 289.8 70.2 L 290 170.5 A 0 0 0 0 0 290 170.5 Z" stroke="#FFFFFF" stroke-width="1" stroke-linejoin="round" transform="translate(0,0)"></path></g><g class="highcharts-markers" visibility="visible"  transform="translate(10,44) scale(1 1)"></g><g class="highcharts-series highcharts-tracker" visibility="visible"  transform="translate(10,44) scale(1 1)" style=""><g class="highcharts-shadow"><g class="highcharts-shadow" transform="translate(0,0)"><path fill="none" d="M 289.9 40.1 A 130.4 130.4 0 0 1 374.8 71.5 L 340.9 111.1 A 78.2 78.2 0 0 0 289.9 92.2 Z" stroke="black" stroke-width="5" stroke-linejoin="round" transform="translate(1, 1)"  stroke-opacity="0.0" r="130.4"></path><path fill="none" d="M 289.9 40.1 A 130.4 130.4 0 0 1 374.8 71.5 L 340.9 111.1 A 78.2 78.2 0 0 0 289.9 92.2 Z" stroke="black" stroke-width="3" stroke-linejoin="round" transform="translate(1, 1)"  stroke-opacity="0.0" r="130.4"></path><path fill="none" d="M 289.9 40.1 A 130.4 130.4 0 0 1 374.8 71.5 L 340.9 111.1 A 78.2 78.2 0 0 0 289.9 92.2 Z" stroke="black" stroke-width="1" stroke-linejoin="round" transform="translate(1, 1)"  stroke-opacity="0.1" r="130.4"></path></g><g class="highcharts-shadow" transform="translate(0,0)"><path fill="none" d="M 374.9 71.5 A 130.4 130.4 0 0 1 411.0 122.0 L 362.6 141.4 A 78.2 78.2 0 0 0 340.9 111.1 Z" stroke="black" stroke-width="5" stroke-linejoin="round" transform="translate(1, 1)"  stroke-opacity="0.0" r="130.4"></path><path fill="none" d="M 374.9 71.5 A 130.4 130.4 0 0 1 411.0 122.0 L 362.6 141.4 A 78.2 78.2 0 0 0 340.9 111.1 Z" stroke="black" stroke-width="3" stroke-linejoin="round" transform="translate(1, 1)"  stroke-opacity="0.0" r="130.4"></path><path fill="none" d="M 374.9 71.5 A 130.4 130.4 0 0 1 411.0 122.0 L 362.6 141.4 A 78.2 78.2 0 0 0 340.9 111.1 Z" stroke="black" stroke-width="1" stroke-linejoin="round" transform="translate(1, 1)"  stroke-opacity="0.1" r="130.4"></path></g><g class="highcharts-shadow" transform="translate(0,0)"><path fill="none" d="M 411.0 122.1 A 130.4 130.4 0 0 1 262.7 298.0 L 273.6 247.0 A 78.2 78.2 0 0 0 362.6 141.4 Z" stroke="black" stroke-width="5" stroke-linejoin="round" transform="translate(1, 1)"  stroke-opacity="0.0" r="130.4"></path><path fill="none" d="M 411.0 122.1 A 130.4 130.4 0 0 1 262.7 298.0 L 273.6 247.0 A 78.2 78.2 0 0 0 362.6 141.4 Z" stroke="black" stroke-width="3" stroke-linejoin="round" transform="translate(1, 1)"  stroke-opacity="0.0" r="130.4"></path><path fill="none" d="M 411.0 122.1 A 130.4 130.4 0 0 1 262.7 298.0 L 273.6 247.0 A 78.2 78.2 0 0 0 362.6 141.4 Z" stroke="black" stroke-width="1" stroke-linejoin="round" transform="translate(1, 1)"  stroke-opacity="0.1" r="130.4"></path></g><g class="highcharts-shadow" transform="translate(0,0)"><path fill="none" d="M 262.6 298.0 A 130.4 130.4 0 0 1 239.9 290.8 L 259.9 242.7 A 78.2 78.2 0 0 0 273.5 247.0 Z" stroke="black" stroke-width="5" stroke-linejoin="round" transform="translate(1, 1)"  stroke-opacity="0.0" r="130.4"></path><path fill="none" d="M 262.6 298.0 A 130.4 130.4 0 0 1 239.9 290.8 L 259.9 242.7 A 78.2 78.2 0 0 0 273.5 247.0 Z" stroke="black" stroke-width="3" stroke-linejoin="round" transform="translate(1, 1)"  stroke-opacity="0.0" r="130.4"></path><path fill="none" d="M 262.6 298.0 A 130.4 130.4 0 0 1 239.9 290.8 L 259.9 242.7 A 78.2 78.2 0 0 0 273.5 247.0 Z" stroke="black" stroke-width="1" stroke-linejoin="round" transform="translate(1, 1)"  stroke-opacity="0.1" r="130.4"></path></g><g class="highcharts-shadow" transform="translate(0,0)"><path fill="none" d="M 239.7 290.8 A 130.4 130.4 0 0 1 238.3 290.2 L 259.0 242.3 A 78.2 78.2 0 0 0 259.8 242.7 Z" stroke="black" stroke-width="5" stroke-linejoin="round" transform="translate(1, 1)"  stroke-opacity="0.0" r="130.4"></path><path fill="none" d="M 239.7 290.8 A 130.4 130.4 0 0 1 238.3 290.2 L 259.0 242.3 A 78.2 78.2 0 0 0 259.8 242.7 Z" stroke="black" stroke-width="3" stroke-linejoin="round" transform="translate(1, 1)"  stroke-opacity="0.0" r="130.4"></path><path fill="none" d="M 239.7 290.8 A 130.4 130.4 0 0 1 238.3 290.2 L 259.0 242.3 A 78.2 78.2 0 0 0 259.8 242.7 Z" stroke="black" stroke-width="1" stroke-linejoin="round" transform="translate(1, 1)"  stroke-opacity="0.1" r="130.4"></path></g><g class="highcharts-shadow" transform="translate(0,0)"><path fill="none" d="M 238.2 290.1 A 130.4 130.4 0 0 1 231.8 287.2 L 255.1 240.5 A 78.2 78.2 0 0 0 258.9 242.3 Z" stroke="black" stroke-width="5" stroke-linejoin="round" transform="translate(1, 1)"  stroke-opacity="0.0" r="130.4"></path><path fill="none" d="M 238.2 290.1 A 130.4 130.4 0 0 1 231.8 287.2 L 255.1 240.5 A 78.2 78.2 0 0 0 258.9 242.3 Z" stroke="black" stroke-width="3" stroke-linejoin="round" transform="translate(1, 1)"  stroke-opacity="0.0" r="130.4"></path><path fill="none" d="M 238.2 290.1 A 130.4 130.4 0 0 1 231.8 287.2 L 255.1 240.5 A 78.2 78.2 0 0 0 258.9 242.3 Z" stroke="black" stroke-width="1" stroke-linejoin="round" transform="translate(1, 1)"  stroke-opacity="0.1" r="130.4"></path></g><g class="highcharts-shadow" transform="translate(0,0)"><path fill="none" d="M 231.7 287.1 A 130.4 130.4 0 0 1 220.1 280.6 L 248.0 236.5 A 78.2 78.2 0 0 0 255.0 240.4 Z" stroke="black" stroke-width="5" stroke-linejoin="round" transform="translate(1, 1)"  stroke-opacity="0.0" r="130.4"></path><path fill="none" d="M 231.7 287.1 A 130.4 130.4 0 0 1 220.1 280.6 L 248.0 236.5 A 78.2 78.2 0 0 0 255.0 240.4 Z" stroke="black" stroke-width="3" stroke-linejoin="round" transform="translate(1, 1)"  stroke-opacity="0.0" r="130.4"></path><path fill="none" d="M 231.7 287.1 A 130.4 130.4 0 0 1 220.1 280.6 L 248.0 236.5 A 78.2 78.2 0 0 0 255.0 240.4 Z" stroke="black" stroke-width="1" stroke-linejoin="round" transform="translate(1, 1)"  stroke-opacity="0.1" r="130.4"></path></g><g class="highcharts-shadow" transform="translate(0,0)"><path fill="none" d="M 220.0 280.5 A 130.4 130.4 0 0 1 161.0 189.6 L 212.6 182.0 A 78.2 78.2 0 0 0 248.0 236.5 Z" stroke="black" stroke-width="5" stroke-linejoin="round" transform="translate(1, 1)"  stroke-opacity="0.0" r="130.4"></path><path fill="none" d="M 220.0 280.5 A 130.4 130.4 0 0 1 161.0 189.6 L 212.6 182.0 A 78.2 78.2 0 0 0 248.0 236.5 Z" stroke="black" stroke-width="3" stroke-linejoin="round" transform="translate(1, 1)"  stroke-opacity="0.0" r="130.4"></path><path fill="none" d="M 220.0 280.5 A 130.4 130.4 0 0 1 161.0 189.6 L 212.6 182.0 A 78.2 78.2 0 0 0 248.0 236.5 Z" stroke="black" stroke-width="1" stroke-linejoin="round" transform="translate(1, 1)"  stroke-opacity="0.1" r="130.4"></path></g><g class="highcharts-shadow" transform="translate(0,0)"><path fill="none" d="M 160.9 189.5 A 130.4 130.4 0 0 1 162.3 143.6 L 213.4 154.3 A 78.2 78.2 0 0 0 212.5 181.9 Z" stroke="black" stroke-width="5" stroke-linejoin="round" transform="translate(1, 1)"  stroke-opacity="0.0" r="130.4"></path><path fill="none" d="M 160.9 189.5 A 130.4 130.4 0 0 1 162.3 143.6 L 213.4 154.3 A 78.2 78.2 0 0 0 212.5 181.9 Z" stroke="black" stroke-width="3" stroke-linejoin="round" transform="translate(1, 1)"  stroke-opacity="0.0" r="130.4"></path><path fill="none" d="M 160.9 189.5 A 130.4 130.4 0 0 1 162.3 143.6 L 213.4 154.3 A 78.2 78.2 0 0 0 212.5 181.9 Z" stroke="black" stroke-width="1" stroke-linejoin="round" transform="translate(1, 1)"  stroke-opacity="0.1" r="130.4"></path></g><g class="highcharts-shadow" transform="translate(0,0)"><path fill="none" d="M 162.4 143.5 A 130.4 130.4 0 0 1 162.6 142.6 L 213.5 153.7 A 78.2 78.2 0 0 0 213.4 154.3 Z" stroke="black" stroke-width="5" stroke-linejoin="round" transform="translate(1, 1)"  stroke-opacity="0.0" r="130.4"></path><path fill="none" d="M 162.4 143.5 A 130.4 130.4 0 0 1 162.6 142.6 L 213.5 153.7 A 78.2 78.2 0 0 0 213.4 154.3 Z" stroke="black" stroke-width="3" stroke-linejoin="round" transform="translate(1, 1)"  stroke-opacity="0.0" r="130.4"></path><path fill="none" d="M 162.4 143.5 A 130.4 130.4 0 0 1 162.6 142.6 L 213.5 153.7 A 78.2 78.2 0 0 0 213.4 154.3 Z" stroke="black" stroke-width="1" stroke-linejoin="round" transform="translate(1, 1)"  stroke-opacity="0.1" r="130.4"></path></g><g class="highcharts-shadow" transform="translate(0,0)"><path fill="none" d="M 162.6 142.5 A 130.4 130.4 0 0 1 162.9 140.9 L 213.7 152.7 A 78.2 78.2 0 0 0 213.5 153.7 Z" stroke="black" stroke-width="5" stroke-linejoin="round" transform="translate(1, 1)"  stroke-opacity="0.0" r="130.4"></path><path fill="none" d="M 162.6 142.5 A 130.4 130.4 0 0 1 162.9 140.9 L 213.7 152.7 A 78.2 78.2 0 0 0 213.5 153.7 Z" stroke="black" stroke-width="3" stroke-linejoin="round" transform="translate(1, 1)"  stroke-opacity="0.0" r="130.4"></path><path fill="none" d="M 162.6 142.5 A 130.4 130.4 0 0 1 162.9 140.9 L 213.7 152.7 A 78.2 78.2 0 0 0 213.5 153.7 Z" stroke="black" stroke-width="1" stroke-linejoin="round" transform="translate(1, 1)"  stroke-opacity="0.1" r="130.4"></path></g><g class="highcharts-shadow" transform="translate(0,0)"><path fill="none" d="M 163.0 140.8 A 130.4 130.4 0 0 1 163.2 139.9 L 213.9 152.1 A 78.2 78.2 0 0 0 213.8 152.7 Z" stroke="black" stroke-width="5" stroke-linejoin="round" transform="translate(1, 1)"  stroke-opacity="0.0" r="130.4"></path><path fill="none" d="M 163.0 140.8 A 130.4 130.4 0 0 1 163.2 139.9 L 213.9 152.1 A 78.2 78.2 0 0 0 213.8 152.7 Z" stroke="black" stroke-width="3" stroke-linejoin="round" transform="translate(1, 1)"  stroke-opacity="0.0" r="130.4"></path><path fill="none" d="M 163.0 140.8 A 130.4 130.4 0 0 1 163.2 139.9 L 213.9 152.1 A 78.2 78.2 0 0 0 213.8 152.7 Z" stroke="black" stroke-width="1" stroke-linejoin="round" transform="translate(1, 1)"  stroke-opacity="0.1" r="130.4"></path></g><g class="highcharts-shadow" transform="translate(0,0)"><path fill="none" d="M 163.2 139.8 A 130.4 130.4 0 0 1 163.9 137.0 L 214.3 150.4 A 78.2 78.2 0 0 0 213.9 152.0 Z" stroke="black" stroke-width="5" stroke-linejoin="round" transform="translate(1, 1)"  stroke-opacity="0.0" r="130.4"></path><path fill="none" d="M 163.2 139.8 A 130.4 130.4 0 0 1 163.9 137.0 L 214.3 150.4 A 78.2 78.2 0 0 0 213.9 152.0 Z" stroke="black" stroke-width="3" stroke-linejoin="round" transform="translate(1, 1)"  stroke-opacity="0.0" r="130.4"></path><path fill="none" d="M 163.2 139.8 A 130.4 130.4 0 0 1 163.9 137.0 L 214.3 150.4 A 78.2 78.2 0 0 0 213.9 152.0 Z" stroke="black" stroke-width="1" stroke-linejoin="round" transform="translate(1, 1)"  stroke-opacity="0.1" r="130.4"></path></g><g class="highcharts-shadow" transform="translate(0,0)"><path fill="none" d="M 163.9 136.9 A 130.4 130.4 0 0 1 164.6 134.4 L 214.8 148.8 A 78.2 78.2 0 0 0 214.3 150.3 Z" stroke="black" stroke-width="5" stroke-linejoin="round" transform="translate(1, 1)"  stroke-opacity="0.0" r="130.4"></path><path fill="none" d="M 163.9 136.9 A 130.4 130.4 0 0 1 164.6 134.4 L 214.8 148.8 A 78.2 78.2 0 0 0 214.3 150.3 Z" stroke="black" stroke-width="3" stroke-linejoin="round" transform="translate(1, 1)"  stroke-opacity="0.0" r="130.4"></path><path fill="none" d="M 163.9 136.9 A 130.4 130.4 0 0 1 164.6 134.4 L 214.8 148.8 A 78.2 78.2 0 0 0 214.3 150.3 Z" stroke="black" stroke-width="1" stroke-linejoin="round" transform="translate(1, 1)"  stroke-opacity="0.1" r="130.4"></path></g><g class="highcharts-shadow" transform="translate(0,0)"><path fill="none" d="M 164.7 134.2 A 130.4 130.4 0 0 1 211.8 66.0 L 243.1 107.8 A 78.2 78.2 0 0 0 214.8 148.7 Z" stroke="black" stroke-width="5" stroke-linejoin="round" transform="translate(1, 1)"  stroke-opacity="0.0" r="130.4"></path><path fill="none" d="M 164.7 134.2 A 130.4 130.4 0 0 1 211.8 66.0 L 243.1 107.8 A 78.2 78.2 0 0 0 214.8 148.7 Z" stroke="black" stroke-width="3" stroke-linejoin="round" transform="translate(1, 1)"  stroke-opacity="0.0" r="130.4"></path><path fill="none" d="M 164.7 134.2 A 130.4 130.4 0 0 1 211.8 66.0 L 243.1 107.8 A 78.2 78.2 0 0 0 214.8 148.7 Z" stroke="black" stroke-width="1" stroke-linejoin="round" transform="translate(1, 1)"  stroke-opacity="0.1" r="130.4"></path></g><g class="highcharts-shadow" transform="translate(0,0)"><path fill="none" d="M 211.9 66.0 A 130.4 130.4 0 0 1 215.3 63.5 L 245.2 106.3 A 78.2 78.2 0 0 0 243.1 107.8 Z" stroke="black" stroke-width="5" stroke-linejoin="round" transform="translate(1, 1)"  stroke-opacity="0.0" r="130.4"></path><path fill="none" d="M 211.9 66.0 A 130.4 130.4 0 0 1 215.3 63.5 L 245.2 106.3 A 78.2 78.2 0 0 0 243.1 107.8 Z" stroke="black" stroke-width="3" stroke-linejoin="round" transform="translate(1, 1)"  stroke-opacity="0.0" r="130.4"></path><path fill="none" d="M 211.9 66.0 A 130.4 130.4 0 0 1 215.3 63.5 L 245.2 106.3 A 78.2 78.2 0 0 0 243.1 107.8 Z" stroke="black" stroke-width="1" stroke-linejoin="round" transform="translate(1, 1)"  stroke-opacity="0.1" r="130.4"></path></g><g class="highcharts-shadow" transform="translate(0,0)"><path fill="none" d="M 215.4 63.4 A 130.4 130.4 0 0 1 216.8 62.5 L 246.1 105.7 A 78.2 78.2 0 0 0 245.2 106.2 Z" stroke="black" stroke-width="5" stroke-linejoin="round" transform="translate(1, 1)"  stroke-opacity="0.0" r="130.4"></path><path fill="none" d="M 215.4 63.4 A 130.4 130.4 0 0 1 216.8 62.5 L 246.1 105.7 A 78.2 78.2 0 0 0 245.2 106.2 Z" stroke="black" stroke-width="3" stroke-linejoin="round" transform="translate(1, 1)"  stroke-opacity="0.0" r="130.4"></path><path fill="none" d="M 215.4 63.4 A 130.4 130.4 0 0 1 216.8 62.5 L 246.1 105.7 A 78.2 78.2 0 0 0 245.2 106.2 Z" stroke="black" stroke-width="1" stroke-linejoin="round" transform="translate(1, 1)"  stroke-opacity="0.1" r="130.4"></path></g><g class="highcharts-shadow" transform="translate(0,0)"><path fill="none" d="M 216.9 62.4 A 130.4 130.4 0 0 1 251.7 45.8 L 267.0 95.6 A 78.2 78.2 0 0 0 246.1 105.6 Z" stroke="black" stroke-width="5" stroke-linejoin="round" transform="translate(1, 1)"  stroke-opacity="0.0" r="130.4"></path><path fill="none" d="M 216.9 62.4 A 130.4 130.4 0 0 1 251.7 45.8 L 267.0 95.6 A 78.2 78.2 0 0 0 246.1 105.6 Z" stroke="black" stroke-width="3" stroke-linejoin="round" transform="translate(1, 1)"  stroke-opacity="0.0" r="130.4"></path><path fill="none" d="M 216.9 62.4 A 130.4 130.4 0 0 1 251.7 45.8 L 267.0 95.6 A 78.2 78.2 0 0 0 246.1 105.6 Z" stroke="black" stroke-width="1" stroke-linejoin="round" transform="translate(1, 1)"  stroke-opacity="0.1" r="130.4"></path></g><g class="highcharts-shadow" transform="translate(0,0)"><path fill="none" d="M 251.9 45.7 A 130.4 130.4 0 0 1 263.5 42.8 L 274.1 93.8 A 78.2 78.2 0 0 0 267.1 95.6 Z" stroke="black" stroke-width="5" stroke-linejoin="round" transform="translate(1, 1)"  stroke-opacity="0.0" r="130.4"></path><path fill="none" d="M 251.9 45.7 A 130.4 130.4 0 0 1 263.5 42.8 L 274.1 93.8 A 78.2 78.2 0 0 0 267.1 95.6 Z" stroke="black" stroke-width="3" stroke-linejoin="round" transform="translate(1, 1)"  stroke-opacity="0.0" r="130.4"></path><path fill="none" d="M 251.9 45.7 A 130.4 130.4 0 0 1 263.5 42.8 L 274.1 93.8 A 78.2 78.2 0 0 0 267.1 95.6 Z" stroke="black" stroke-width="1" stroke-linejoin="round" transform="translate(1, 1)"  stroke-opacity="0.1" r="130.4"></path></g><g class="highcharts-shadow" transform="translate(0,0)"><path fill="none" d="M 263.6 42.7 A 130.4 130.4 0 0 1 265.4 42.4 L 275.2 93.6 A 78.2 78.2 0 0 0 274.1 93.8 Z" stroke="black" stroke-width="5" stroke-linejoin="round" transform="translate(1, 1)"  stroke-opacity="0.0" r="130.4"></path><path fill="none" d="M 263.6 42.7 A 130.4 130.4 0 0 1 265.4 42.4 L 275.2 93.6 A 78.2 78.2 0 0 0 274.1 93.8 Z" stroke="black" stroke-width="3" stroke-linejoin="round" transform="translate(1, 1)"  stroke-opacity="0.0" r="130.4"></path><path fill="none" d="M 263.6 42.7 A 130.4 130.4 0 0 1 265.4 42.4 L 275.2 93.6 A 78.2 78.2 0 0 0 274.1 93.8 Z" stroke="black" stroke-width="1" stroke-linejoin="round" transform="translate(1, 1)"  stroke-opacity="0.1" r="130.4"></path></g><g class="highcharts-shadow" transform="translate(0,0)"><path fill="none" d="M 265.5 42.4 A 130.4 130.4 0 0 1 267.2 42.1 L 276.3 93.4 A 78.2 78.2 0 0 0 275.3 93.6 Z" stroke="black" stroke-width="5" stroke-linejoin="round" transform="translate(1, 1)"  stroke-opacity="0.0" r="130.4"></path><path fill="none" d="M 265.5 42.4 A 130.4 130.4 0 0 1 267.2 42.1 L 276.3 93.4 A 78.2 78.2 0 0 0 275.3 93.6 Z" stroke="black" stroke-width="3" stroke-linejoin="round" transform="translate(1, 1)"  stroke-opacity="0.0" r="130.4"></path><path fill="none" d="M 265.5 42.4 A 130.4 130.4 0 0 1 267.2 42.1 L 276.3 93.4 A 78.2 78.2 0 0 0 275.3 93.6 Z" stroke="black" stroke-width="1" stroke-linejoin="round" transform="translate(1, 1)"  stroke-opacity="0.1" r="130.4"></path></g><g class="highcharts-shadow" transform="translate(0,0)"><path fill="none" d="M 267.3 42.0 A 130.4 130.4 0 0 1 268.9 41.8 L 277.3 93.2 A 78.2 78.2 0 0 0 276.4 93.4 Z" stroke="black" stroke-width="5" stroke-linejoin="round" transform="translate(1, 1)"  stroke-opacity="0.0" r="130.4"></path><path fill="none" d="M 267.3 42.0 A 130.4 130.4 0 0 1 268.9 41.8 L 277.3 93.2 A 78.2 78.2 0 0 0 276.4 93.4 Z" stroke="black" stroke-width="3" stroke-linejoin="round" transform="translate(1, 1)"  stroke-opacity="0.0" r="130.4"></path><path fill="none" d="M 267.3 42.0 A 130.4 130.4 0 0 1 268.9 41.8 L 277.3 93.2 A 78.2 78.2 0 0 0 276.4 93.4 Z" stroke="black" stroke-width="1" stroke-linejoin="round" transform="translate(1, 1)"  stroke-opacity="0.1" r="130.4"></path></g><g class="highcharts-shadow" transform="translate(0,0)"><path fill="none" d="M 269.0 41.7 A 130.4 130.4 0 0 1 270.4 41.5 L 278.2 93.1 A 78.2 78.2 0 0 0 277.4 93.2 Z" stroke="black" stroke-width="5" stroke-linejoin="round" transform="translate(1, 1)"  stroke-opacity="0.0" r="130.4"></path><path fill="none" d="M 269.0 41.7 A 130.4 130.4 0 0 1 270.4 41.5 L 278.2 93.1 A 78.2 78.2 0 0 0 277.4 93.2 Z" stroke="black" stroke-width="3" stroke-linejoin="round" transform="translate(1, 1)"  stroke-opacity="0.0" r="130.4"></path><path fill="none" d="M 269.0 41.7 A 130.4 130.4 0 0 1 270.4 41.5 L 278.2 93.1 A 78.2 78.2 0 0 0 277.4 93.2 Z" stroke="black" stroke-width="1" stroke-linejoin="round" transform="translate(1, 1)"  stroke-opacity="0.1" r="130.4"></path></g><g class="highcharts-shadow" transform="translate(0,0)"><path fill="none" d="M 270.5 41.5 A 130.4 130.4 0 0 1 271.6 41.4 L 278.9 93.0 A 78.2 78.2 0 0 0 278.3 93.1 Z" stroke="black" stroke-width="5" stroke-linejoin="round" transform="translate(1, 1)"  stroke-opacity="0.0" r="130.4"></path><path fill="none" d="M 270.5 41.5 A 130.4 130.4 0 0 1 271.6 41.4 L 278.9 93.0 A 78.2 78.2 0 0 0 278.3 93.1 Z" stroke="black" stroke-width="3" stroke-linejoin="round" transform="translate(1, 1)"  stroke-opacity="0.0" r="130.4"></path><path fill="none" d="M 270.5 41.5 A 130.4 130.4 0 0 1 271.6 41.4 L 278.9 93.0 A 78.2 78.2 0 0 0 278.3 93.1 Z" stroke="black" stroke-width="1" stroke-linejoin="round" transform="translate(1, 1)"  stroke-opacity="0.1" r="130.4"></path></g><g class="highcharts-shadow" transform="translate(0,0)"><path fill="none" d="M 271.7 41.3 A 130.4 130.4 0 0 1 272.6 41.2 L 279.5 92.9 A 78.2 78.2 0 0 0 279.0 93.0 Z" stroke="black" stroke-width="5" stroke-linejoin="round" transform="translate(1, 1)"  stroke-opacity="0.0" r="130.4"></path><path fill="none" d="M 271.7 41.3 A 130.4 130.4 0 0 1 272.6 41.2 L 279.5 92.9 A 78.2 78.2 0 0 0 279.0 93.0 Z" stroke="black" stroke-width="3" stroke-linejoin="round" transform="translate(1, 1)"  stroke-opacity="0.0" r="130.4"></path><path fill="none" d="M 271.7 41.3 A 130.4 130.4 0 0 1 272.6 41.2 L 279.5 92.9 A 78.2 78.2 0 0 0 279.0 93.0 Z" stroke="black" stroke-width="1" stroke-linejoin="round" transform="translate(1, 1)"  stroke-opacity="0.1" r="130.4"></path></g><g class="highcharts-shadow" transform="translate(0,0)"><path fill="none" d="M 272.7 41.2 A 130.4 130.4 0 0 1 275.7 40.8 L 281.4 92.7 A 78.2 78.2 0 0 0 279.6 92.9 Z" stroke="black" stroke-width="5" stroke-linejoin="round" transform="translate(1, 1)"  stroke-opacity="0.0" r="130.4"></path><path fill="none" d="M 272.7 41.2 A 130.4 130.4 0 0 1 275.7 40.8 L 281.4 92.7 A 78.2 78.2 0 0 0 279.6 92.9 Z" stroke="black" stroke-width="3" stroke-linejoin="round" transform="translate(1, 1)"  stroke-opacity="0.0" r="130.4"></path><path fill="none" d="M 272.7 41.2 A 130.4 130.4 0 0 1 275.7 40.8 L 281.4 92.7 A 78.2 78.2 0 0 0 279.6 92.9 Z" stroke="black" stroke-width="1" stroke-linejoin="round" transform="translate(1, 1)"  stroke-opacity="0.1" r="130.4"></path></g><g class="highcharts-shadow" transform="translate(0,0)"><path fill="none" d="M 275.8 40.8 A 130.4 130.4 0 0 1 289.8 40.1 L 289.8 92.2 A 78.2 78.2 0 0 0 281.5 92.7 Z" stroke="black" stroke-width="5" stroke-linejoin="round" transform="translate(1, 1)"  stroke-opacity="0.0" r="130.4"></path><path fill="none" d="M 275.8 40.8 A 130.4 130.4 0 0 1 289.8 40.1 L 289.8 92.2 A 78.2 78.2 0 0 0 281.5 92.7 Z" stroke="black" stroke-width="3" stroke-linejoin="round" transform="translate(1, 1)"  stroke-opacity="0.0" r="130.4"></path><path fill="none" d="M 275.8 40.8 A 130.4 130.4 0 0 1 289.8 40.1 L 289.8 92.2 A 78.2 78.2 0 0 0 281.5 92.7 Z" stroke="black" stroke-width="1" stroke-linejoin="round" transform="translate(1, 1)"  stroke-opacity="0.1" r="130.4"></path></g></g><path fill="rgb(255,142,142)" fill-opacity="1" d="M 289.9 40.1 A 130.4 130.4 0 0 1 374.8 71.5 L 340.9 111.1 A 78.2 78.2 0 0 0 289.9 92.2 Z" stroke="#FFFFFF" stroke-width="1" stroke-linejoin="round" transform="translate(0,0)"></path><path fill="rgb(255,129,129)" fill-opacity="1" d="M 374.9 71.5 A 130.4 130.4 0 0 1 411.0 122.0 L 362.6 141.4 A 78.2 78.2 0 0 0 340.9 111.1 Z" stroke="#FFFFFF" stroke-width="1" stroke-linejoin="round" transform="translate(0,0)"></path><path fill="rgb(255,116,116)" fill-opacity="1" d="M 411.0 122.1 A 130.4 130.4 0 0 1 262.7 298.0 L 273.6 247.0 A 78.2 78.2 0 0 0 362.6 141.4 Z" stroke="#FFFFFF" stroke-width="1" stroke-linejoin="round" transform="translate(0,0)"></path><path fill="rgb(255,103,103)" fill-opacity="1" d="M 262.6 298.0 A 130.4 130.4 0 0 1 239.9 290.8 L 259.9 242.7 A 78.2 78.2 0 0 0 273.5 247.0 Z" stroke="#FFFFFF" stroke-width="1" stroke-linejoin="round" transform="translate(0,0)"></path><path fill="rgb(179,184,255)" fill-opacity="1" d="M 239.7 290.8 A 130.4 130.4 0 0 1 238.3 290.2 L 259.0 242.3 A 78.2 78.2 0 0 0 259.8 242.7 Z" stroke="#FFFFFF" stroke-width="1" stroke-linejoin="round" transform="translate(0,0)"></path><path fill="rgb(168,173,255)" fill-opacity="1" d="M 238.2 290.1 A 130.4 130.4 0 0 1 231.8 287.2 L 255.1 240.5 A 78.2 78.2 0 0 0 258.9 242.3 Z" stroke="#FFFFFF" stroke-width="1" stroke-linejoin="round" transform="translate(0,0)"></path><path fill="rgb(158,163,255)" fill-opacity="1" d="M 231.7 287.1 A 130.4 130.4 0 0 1 220.1 280.6 L 248.0 236.5 A 78.2 78.2 0 0 0 255.0 240.4 Z" stroke="#FFFFFF" stroke-width="1" stroke-linejoin="round" transform="translate(0,0)"></path><path fill="rgb(148,153,253)" fill-opacity="1" d="M 220.0 280.5 A 130.4 130.4 0 0 1 161.0 189.6 L 212.6 182.0 A 78.2 78.2 0 0 0 248.0 236.5 Z" stroke="#FFFFFF" stroke-width="1" stroke-linejoin="round" transform="translate(0,0)"></path><path fill="rgb(138,143,243)" fill-opacity="1" d="M 160.9 189.5 A 130.4 130.4 0 0 1 162.3 143.6 L 213.4 154.3 A 78.2 78.2 0 0 0 212.5 181.9 Z" stroke="#FFFFFF" stroke-width="1" stroke-linejoin="round" transform="translate(0,0)"></path><path fill="rgb(192,121,135)" fill-opacity="1" d="M 162.4 143.5 A 130.4 130.4 0 0 1 162.6 142.6 L 213.5 153.7 A 78.2 78.2 0 0 0 213.4 154.3 Z" stroke="#FFFFFF" stroke-width="1" stroke-linejoin="round" transform="translate(0,0)"></path><path fill="rgb(185,114,128)" fill-opacity="1" d="M 162.6 142.5 A 130.4 130.4 0 0 1 162.9 140.9 L 213.7 152.7 A 78.2 78.2 0 0 0 213.5 153.7 Z" stroke="#FFFFFF" stroke-width="1" stroke-linejoin="round" transform="translate(0,0)"></path><path fill="rgb(179,108,122)" fill-opacity="1" d="M 163.0 140.8 A 130.4 130.4 0 0 1 163.2 139.9 L 213.9 152.1 A 78.2 78.2 0 0 0 213.8 152.7 Z" stroke="#FFFFFF" stroke-width="1" stroke-linejoin="round" transform="translate(0,0)"></path><path fill="rgb(172,101,115)" fill-opacity="1" d="M 163.2 139.8 A 130.4 130.4 0 0 1 163.9 137.0 L 214.3 150.4 A 78.2 78.2 0 0 0 213.9 152.0 Z" stroke="#FFFFFF" stroke-width="1" stroke-linejoin="round" transform="translate(0,0)"></path><path fill="rgb(166,95,109)" fill-opacity="1" d="M 163.9 136.9 A 130.4 130.4 0 0 1 164.6 134.4 L 214.8 148.8 A 78.2 78.2 0 0 0 214.3 150.3 Z" stroke="#FFFFFF" stroke-width="1" stroke-linejoin="round" transform="translate(0,0)"></path><path fill="rgb(160,89,103)" fill-opacity="1" d="M 164.7 134.2 A 130.4 130.4 0 0 1 211.8 66.0 L 243.1 107.8 A 78.2 78.2 0 0 0 214.8 148.7 Z" stroke="#FFFFFF" stroke-width="1" stroke-linejoin="round" transform="translate(0,0)"></path><path fill="rgb(153,82,96)" fill-opacity="1" d="M 211.9 66.0 A 130.4 130.4 0 0 1 215.3 63.5 L 245.2 106.3 A 78.2 78.2 0 0 0 243.1 107.8 Z" stroke="#FFFFFF" stroke-width="1" stroke-linejoin="round" transform="translate(0,0)"></path><path fill="rgb(147,76,90)" fill-opacity="1" d="M 215.4 63.4 A 130.4 130.4 0 0 1 216.8 62.5 L 246.1 105.7 A 78.2 78.2 0 0 0 245.2 106.2 Z" stroke="#FFFFFF" stroke-width="1" stroke-linejoin="round" transform="translate(0,0)"></path><path fill="rgb(170,203,242)" fill-opacity="1" d="M 216.9 62.4 A 130.4 130.4 0 0 1 251.7 45.8 L 267.0 95.6 A 78.2 78.2 0 0 0 246.1 105.6 Z" stroke="#FFFFFF" stroke-width="1" stroke-linejoin="round" transform="translate(0,0)"></path><path fill="rgb(162,195,234)" fill-opacity="1" d="M 251.9 45.7 A 130.4 130.4 0 0 1 263.5 42.8 L 274.1 93.8 A 78.2 78.2 0 0 0 267.1 95.6 Z" stroke="#FFFFFF" stroke-width="1" stroke-linejoin="round" transform="translate(0,0)"></path><path fill="rgb(155,188,227)" fill-opacity="1" d="M 263.6 42.7 A 130.4 130.4 0 0 1 265.4 42.4 L 275.2 93.6 A 78.2 78.2 0 0 0 274.1 93.8 Z" stroke="#FFFFFF" stroke-width="1" stroke-linejoin="round" transform="translate(0,0)"></path><path fill="rgb(148,181,220)" fill-opacity="1" d="M 265.5 42.4 A 130.4 130.4 0 0 1 267.2 42.1 L 276.3 93.4 A 78.2 78.2 0 0 0 275.3 93.6 Z" stroke="#FFFFFF" stroke-width="1" stroke-linejoin="round" transform="translate(0,0)"></path><path fill="rgb(140,173,212)" fill-opacity="1" d="M 267.3 42.0 A 130.4 130.4 0 0 1 268.9 41.8 L 277.3 93.2 A 78.2 78.2 0 0 0 276.4 93.4 Z" stroke="#FFFFFF" stroke-width="1" stroke-linejoin="round" transform="translate(0,0)"></path><path fill="rgb(133,166,205)" fill-opacity="1" d="M 269.0 41.7 A 130.4 130.4 0 0 1 270.4 41.5 L 278.2 93.1 A 78.2 78.2 0 0 0 277.4 93.2 Z" stroke="#FFFFFF" stroke-width="1" stroke-linejoin="round" transform="translate(0,0)"></path><path fill="rgb(126,159,198)" fill-opacity="1" d="M 270.5 41.5 A 130.4 130.4 0 0 1 271.6 41.4 L 278.9 93.0 A 78.2 78.2 0 0 0 278.3 93.1 Z" stroke="#FFFFFF" stroke-width="1" stroke-linejoin="round" transform="translate(0,0)"></path><path fill="rgb(221,255,255)" fill-opacity="1" d="M 271.7 41.3 A 130.4 130.4 0 0 1 272.6 41.2 L 279.5 92.9 A 78.2 78.2 0 0 0 279.0 93.0 Z" stroke="#FFFFFF" stroke-width="1" stroke-linejoin="round" transform="translate(0,0)"></path><path fill="rgb(204,255,255)" fill-opacity="1" d="M 272.7 41.2 A 130.4 130.4 0 0 1 275.7 40.8 L 281.4 92.7 A 78.2 78.2 0 0 0 279.6 92.9 Z" stroke="#FFFFFF" stroke-width="1" stroke-linejoin="round" transform="translate(0,0)"></path><path fill="rgb(187,255,255)" fill-opacity="1" d="M 275.8 40.8 A 130.4 130.4 0 0 1 289.8 40.1 L 289.8 92.2 A 78.2 78.2 0 0 0 281.5 92.7 Z" stroke="#FFFFFF" stroke-width="1" stroke-linejoin="round" transform="translate(0,0)"></path></g><g class="highcharts-markers" visibility="visible"  transform="translate(10,44) scale(1 1)"></g></g><text x="300" text-anchor="middle" class="highcharts-title"  style="color:black;font-size:16px;font-weight:bold;fill:black;width:536px;" y="22"><tspan>Browser market share, April, 2011</tspan></text><g class="highcharts-data-labels highcharts-tracker" visibility="visible"  transform="translate(10,44) scale(1 1)" style=""><g  style="" transform="translate(342,174)"><text x="5"  style="font-size: 11px; font-weight: bold; color: white; fill: #ffffff; text-shadow: rgb(0, 0, 0) 0px 0px 6px, rgb(0, 0, 0) 0px 0px 3px; " transform="translate(0,16)"><tspan>MSIE</tspan></text></g><g  style="" transform="translate(206,193)"><text x="5"  style="font-size: 11px; font-weight: bold; color: white; fill: #ffffff; text-shadow: rgb(0, 0, 0) 0px 0px 6px, rgb(0, 0, 0) 0px 0px 3px; " transform="translate(0,16)"><tspan>Firefox</tspan></text></g><g  style="" transform="translate(207,121)"><text x="5"  style="font-size: 11px; font-weight: bold; color: white; fill: #ffffff; text-shadow: rgb(0, 0, 0) 0px 0px 6px, rgb(0, 0, 0) 0px 0px 3px; " transform="translate(0,16)"><tspan>Chrome</tspan></text></g><g  style="" transform="translate(246,95)"><text x="5"  style="font-size: 11px; font-weight: bold; color: white; fill: #ffffff; text-shadow: rgb(0, 0, 0) 0px 0px 6px, rgb(0, 0, 0) 0px 0px 3px; " transform="translate(0,16)"><tspan>Safari</tspan></text></g></g><g class="highcharts-data-labels highcharts-tracker" visibility="visible"  transform="translate(10,44) scale(1 1)" style=""><path fill="none" d="M 350.7 20.0 C 345.7 20.0 342.9 27.5 339.1 37.9 L 335.3 48.2" stroke="rgb(255,142,142)" stroke-opacity="1" stroke-width="1"></path><path fill="none" d="M 425.4 77.2 C 420.4 77.2 413.9 81.8 405.0 88.2 L 396.0 94.6" stroke="rgb(255,129,129)" stroke-opacity="1" stroke-width="1"></path><path fill="none" d="M 417.5 273.9 C 412.5 273.9 406.4 268.8 398.0 261.7 L 389.6 254.6" stroke="rgb(255,116,116)" stroke-opacity="1" stroke-width="1"></path><path fill="none" d="M 237.0 323.5 C 242.0 323.5 244.4 315.9 247.7 305.4 L 251.0 294.9" stroke="rgb(255,103,103)" stroke-opacity="1" stroke-width="1"></path><path fill="none" d="M 173.8 286.1 C 178.8 286.1 215.0 303.1 220.4 293.5 L 225.8 284.0" stroke="rgb(158,163,255)" stroke-opacity="1" stroke-width="1"></path><path fill="none" d="M 150.4 257.7 C 155.4 257.7 162.1 253.4 171.3 247.4 L 180.6 241.4" stroke="rgb(148,153,253)" stroke-opacity="1" stroke-width="1"></path><path fill="none" d="M 124.6 165.4 C 129.6 165.4 137.6 165.7 148.6 166.0 L 159.6 166.4" stroke="rgb(138,143,243)" stroke-opacity="1" stroke-width="1"></path><path fill="none" d="M 153.1 79.1 C 158.1 79.1 164.7 83.7 173.7 90.0 L 182.7 96.2" stroke="rgb(160,89,103)" stroke-opacity="1" stroke-width="1"></path><path fill="none" d="M 172.5 56.0 C 177.5 56.0 224.3 32.9 229.1 42.8 L 233.8 52.8" stroke="rgb(170,203,242)" stroke-opacity="1" stroke-width="1"></path><path fill="none" d="M 202.2 33.0 C 207.2 33.0 252.3 22.8 255.0 33.4 L 257.7 44.1" stroke="rgb(162,195,234)" stroke-opacity="1" stroke-width="1"></path><path fill="none" d="M 276.3 10.0 C 281.3 10.0 281.7 18.3 282.3 29.3 L 282.9 40.2" stroke="rgb(187,255,255)" stroke-opacity="1" stroke-width="1"></path><g  style="" transform="translate(356,10)"><text x="5"  style="font-size: 11px; font-weight: bold; color: rgb(0, 0, 0); fill: #000000; text-shadow: rgb(255, 255, 255) 0px 0px 6px, rgb(255, 255, 255) 0px 0px 3px; " transform="translate(0,16)"><tspan style="font-weight:bold">MSIE 6.0:</tspan><tspan dx="0"> 10.8%</tspan></text></g><g  style="" transform="translate(430,67)"><text x="5"  style="font-size: 11px; font-weight: bold; color: rgb(0, 0, 0); fill: #000000; text-shadow: rgb(255, 255, 255) 0px 0px 6px, rgb(255, 255, 255) 0px 0px 3px; " transform="translate(0,16)"><tspan style="font-weight:bold">MSIE 7.0:</tspan><tspan dx="0"> 7.3%</tspan></text></g><g  style="" transform="translate(423,264)"><text x="5"  style="font-size: 11px; font-weight: bold; color: rgb(0, 0, 0); fill: #000000; text-shadow: rgb(255, 255, 255) 0px 0px 6px, rgb(255, 255, 255) 0px 0px 3px; " transform="translate(0,16)"><tspan style="font-weight:bold">MSIE 8.0:</tspan><tspan dx="0"> 33.0%</tspan></text></g><g  style="" transform="translate(136,314)"><text x="5"  style="font-size: 11px; font-weight: bold; color: rgb(0, 0, 0); fill: #000000; text-shadow: rgb(255, 255, 255) 0px 0px 6px, rgb(255, 255, 255) 0px 0px 3px; " transform="translate(0,16)"><tspan style="font-weight:bold">MSIE 9.0:</tspan><tspan dx="0"> 2.8%</tspan></text></g><g  style="" transform="translate(62,276)"><text x="5"  style="font-size: 11px; font-weight: bold; color: rgb(0, 0, 0); fill: #000000; text-shadow: rgb(255, 255, 255) 0px 0px 6px, rgb(255, 255, 255) 0px 0px 3px; " transform="translate(0,16)"><tspan style="font-weight:bold">Firefox 3.5:</tspan><tspan dx="0"> 1.5%</tspan></text></g><g  style="" transform="translate(31,248)"><text x="5"  style="font-size: 11px; font-weight: bold; color: rgb(0, 0, 0); fill: #000000; text-shadow: rgb(255, 255, 255) 0px 0px 6px, rgb(255, 255, 255) 0px 0px 3px; " transform="translate(0,16)"><tspan style="font-weight:bold">Firefox 3.6:</tspan><tspan dx="0"> 13.1%</tspan></text></g><g  style="" transform="translate(13,155)"><text x="5"  style="font-size: 11px; font-weight: bold; color: rgb(0, 0, 0); fill: #000000; text-shadow: rgb(255, 255, 255) 0px 0px 6px, rgb(255, 255, 255) 0px 0px 3px; " transform="translate(0,16)"><tspan style="font-weight:bold">Firefox 4.0:</tspan><tspan dx="0"> 5.4%</tspan></text></g><g  style="" transform="translate(29,69)"><text x="5"  style="font-size: 11px; font-weight: bold; color: rgb(0, 0, 0); fill: #000000; text-shadow: rgb(255, 255, 255) 0px 0px 6px, rgb(255, 255, 255) 0px 0px 3px; " transform="translate(0,16)"><tspan style="font-weight:bold">Chrome 10.0:</tspan><tspan dx="0"> 9.9%</tspan></text></g><g  style="" transform="translate(67,46)"><text x="5"  style="font-size: 11px; font-weight: bold; color: rgb(0, 0, 0); fill: #000000; text-shadow: rgb(255, 255, 255) 0px 0px 6px, rgb(255, 255, 255) 0px 0px 3px; " transform="translate(0,16)"><tspan style="font-weight:bold">Safari 5.0:</tspan><tspan dx="0"> 4.5%</tspan></text></g><g  style="" transform="translate(96,23)"><text x="5"  style="font-size: 11px; font-weight: bold; color: rgb(0, 0, 0); fill: #000000; text-shadow: rgb(255, 255, 255) 0px 0px 6px, rgb(255, 255, 255) 0px 0px 3px; " transform="translate(0,16)"><tspan style="font-weight:bold">Safari 4.0:</tspan><tspan dx="0"> 1.4%</tspan></text></g><g  style="" transform="translate(162,0)"><text x="5"  style="font-size: 11px; font-weight: bold; color: rgb(0, 0, 0); fill: #000000; text-shadow: rgb(255, 255, 255) 0px 0px 6px, rgb(255, 255, 255) 0px 0px 3px; " transform="translate(0,16)"><tspan style="font-weight:bold">Opera 11.x:</tspan><tspan dx="0"> 1.6%</tspan></text></g></g><g class="highcharts-legend" ><g ><g></g></g></g><g class="highcharts-tooltip"  style="cursor:default;padding:0;white-space:nowrap;" transform="translate(0,-9999)"><path fill="none" d="M 3 0 L 13 0 C 16 0 16 0 16 3 L 16 13 C 16 16 16 16 13 16 L 3 16 C 0 16 0 16 0 13 L 0 3 C 0 0 0 0 3 0"  stroke="black" stroke-opacity="0.0" stroke-width="5" transform="translate(1, 1)"></path><path fill="none" d="M 3 0 L 13 0 C 16 0 16 0 16 3 L 16 13 C 16 16 16 16 13 16 L 3 16 C 0 16 0 16 0 13 L 0 3 C 0 0 0 0 3 0"  stroke="black" stroke-opacity="0.0" stroke-width="3" transform="translate(1, 1)"></path><path fill="none" d="M 3 0 L 13 0 C 16 0 16 0 16 3 L 16 13 C 16 16 16 16 13 16 L 3 16 C 0 16 0 16 0 13 L 0 3 C 0 0 0 0 3 0"  stroke="black" stroke-opacity="0.1" stroke-width="1" transform="translate(1, 1)"></path><path fill="rgb(249, 249, 249)" fill-opacity=" .85" d="M 3 0 L 13 0 C 16 0 16 0 16 3 L 16 13 C 16 16 16 16 13 16 L 3 16 C 0 16 0 16 0 13 L 0 3 C 0 0 0 0 3 0"></path><text x="8"  style="font-size:12px;color:#333333;fill:#333333;" transform="translate(0,20)"></text></g></svg>