<svg version="1.1" style="font-family: signika, serif; font-size: 12px; background-image: url(http://www.highcharts.com/samples/graphics/sand.png); background-attachment: initial; background-origin: initial; background-clip: initial; background-color: initial; background-position: initial initial; background-repeat: initial initial; " xmlns="http://www.w3.org/2000/svg" width="584" height="400" viewBox="0 0 584 400" xmlns:xlink="http://www.w3.org/1999/xlink"><style type="text/css"><![CDATA[@import url(http://fonts.googleapis.com/css?family=Signika:700);]]></style><desc>Created with Highcharts 4.1.4</desc><defs><clipPath id="highcharts-1"><rect x="0" y="0" width="564" height="341"></rect></clipPath><radialGradient cx="284" cy="125.7" r="195.2" gradientUnits="userSpaceOnUse" id="highcharts-2"><stop offset="0" stop-color="#f45b5b" stop-opacity="1"></stop><stop offset="1" stop-color="rgb(168,15,15)" stop-opacity="1"></stop></radialGradient><radialGradient cx="284" cy="125.7" r="195.2" gradientUnits="userSpaceOnUse" id="highcharts-3"><stop offset="0" stop-color="#8085e9" stop-opacity="1"></stop><stop offset="1" stop-color="rgb(52,57,157)" stop-opacity="1"></stop></radialGradient><radialGradient cx="284" cy="125.7" r="195.2" gradientUnits="userSpaceOnUse" id="highcharts-4"><stop offset="0" stop-color="#8d4654" stop-opacity="1"></stop><stop offset="1" stop-color="rgb(65,0,8)" stop-opacity="1"></stop></radialGradient><radialGradient cx="284" cy="125.7" r="195.2" gradientUnits="userSpaceOnUse" id="highcharts-5"><stop offset="0" stop-color="#7798BF" stop-opacity="1"></stop><stop offset="1" stop-color="rgb(43,76,115)" stop-opacity="1"></stop></radialGradient><radialGradient cx="284" cy="125.7" r="195.2" gradientUnits="userSpaceOnUse" id="highcharts-6"><stop offset="0" stop-color="#aaeeee" stop-opacity="1"></stop><stop offset="1" stop-color="rgb(94,162,162)" stop-opacity="1"></stop></radialGradient><radialGradient cx="284" cy="125.7" r="195.2" gradientUnits="userSpaceOnUse" id="highcharts-7"><stop offset="0" stop-color="#ff0066" stop-opacity="1"></stop><stop offset="1" stop-color="rgb(179,0,26)" stop-opacity="1"></stop></radialGradient></defs><g class="highcharts-series-group" ><g class="highcharts-series highcharts-tracker" visibility="visible"  transform="translate(10,44) scale(1 1)" style="cursor:pointer;"><g class="highcharts-shadow"><g class="highcharts-shadow" transform="translate(0,0)"><path fill="none" d="M 283.9 42.0 A 139.5 139.5 0 0 1 327.1 314.1 L 284 181.5 A 0 0 0 0 0 284 181.5 Z" stroke="black" stroke-width="5" stroke-linejoin="round" transform="translate(1, 1)"  stroke-opacity="0.0" r="139.5"></path><path fill="none" d="M 283.9 42.0 A 139.5 139.5 0 0 1 327.1 314.1 L 284 181.5 A 0 0 0 0 0 284 181.5 Z" stroke="black" stroke-width="3" stroke-linejoin="round" transform="translate(1, 1)"  stroke-opacity="0.0" r="139.5"></path><path fill="none" d="M 283.9 42.0 A 139.5 139.5 0 0 1 327.1 314.1 L 284 181.5 A 0 0 0 0 0 284 181.5 Z" stroke="black" stroke-width="1" stroke-linejoin="round" transform="translate(1, 1)"  stroke-opacity="0.1" r="139.5"></path></g><g class="highcharts-shadow" transform="translate(0,0)"><path fill="none" d="M 327.0 314.1 A 139.5 139.5 0 0 1 147.3 209.4 L 284 181.5 A 0 0 0 0 0 284 181.5 Z" stroke="black" stroke-width="5" stroke-linejoin="round" transform="translate(1, 1)"  stroke-opacity="0.0" r="139.5"></path><path fill="none" d="M 327.0 314.1 A 139.5 139.5 0 0 1 147.3 209.4 L 284 181.5 A 0 0 0 0 0 284 181.5 Z" stroke="black" stroke-width="3" stroke-linejoin="round" transform="translate(1, 1)"  stroke-opacity="0.0" r="139.5"></path><path fill="none" d="M 327.0 314.1 A 139.5 139.5 0 0 1 147.3 209.4 L 284 181.5 A 0 0 0 0 0 284 181.5 Z" stroke="black" stroke-width="1" stroke-linejoin="round" transform="translate(1, 1)"  stroke-opacity="0.1" r="139.5"></path></g><g class="highcharts-shadow" transform="translate(-10,-2)"><path fill="none" d="M 147.2 209.2 A 139.5 139.5 0 0 1 169.0 102.4 L 284 181.5 A 0 0 0 0 0 284 181.5 Z" stroke="black" stroke-width="5" stroke-linejoin="round" transform="translate(1, 1)"  stroke-opacity="0.0" r="139.5"></path><path fill="none" d="M 147.2 209.2 A 139.5 139.5 0 0 1 169.0 102.4 L 284 181.5 A 0 0 0 0 0 284 181.5 Z" stroke="black" stroke-width="3" stroke-linejoin="round" transform="translate(1, 1)"  stroke-opacity="0.0" r="139.5"></path><path fill="none" d="M 147.2 209.2 A 139.5 139.5 0 0 1 169.0 102.4 L 284 181.5 A 0 0 0 0 0 284 181.5 Z" stroke="black" stroke-width="1" stroke-linejoin="round" transform="translate(1, 1)"  stroke-opacity="0.1" r="139.5"></path></g><g class="highcharts-shadow" transform="translate(0,0)"><path fill="none" d="M 169.1 102.3 A 139.5 139.5 0 0 1 225.2 54.9 L 284 181.5 A 0 0 0 0 0 284 181.5 Z" stroke="black" stroke-width="5" stroke-linejoin="round" transform="translate(1, 1)"  stroke-opacity="0.0" r="139.5"></path><path fill="none" d="M 169.1 102.3 A 139.5 139.5 0 0 1 225.2 54.9 L 284 181.5 A 0 0 0 0 0 284 181.5 Z" stroke="black" stroke-width="3" stroke-linejoin="round" transform="translate(1, 1)"  stroke-opacity="0.0" r="139.5"></path><path fill="none" d="M 169.1 102.3 A 139.5 139.5 0 0 1 225.2 54.9 L 284 181.5 A 0 0 0 0 0 284 181.5 Z" stroke="black" stroke-width="1" stroke-linejoin="round" transform="translate(1, 1)"  stroke-opacity="0.1" r="139.5"></path></g><g class="highcharts-shadow" transform="translate(0,0)"><path fill="none" d="M 225.4 54.8 A 139.5 139.5 0 0 1 277.6 42.1 L 284 181.5 A 0 0 0 0 0 284 181.5 Z" stroke="black" stroke-width="5" stroke-linejoin="round" transform="translate(1, 1)"  stroke-opacity="0.0" r="139.5"></path><path fill="none" d="M 225.4 54.8 A 139.5 139.5 0 0 1 277.6 42.1 L 284 181.5 A 0 0 0 0 0 284 181.5 Z" stroke="black" stroke-width="3" stroke-linejoin="round" transform="translate(1, 1)"  stroke-opacity="0.0" r="139.5"></path><path fill="none" d="M 225.4 54.8 A 139.5 139.5 0 0 1 277.6 42.1 L 284 181.5 A 0 0 0 0 0 284 181.5 Z" stroke="black" stroke-width="1" stroke-linejoin="round" transform="translate(1, 1)"  stroke-opacity="0.1" r="139.5"></path></g><g class="highcharts-shadow" transform="translate(0,0)"><path fill="none" d="M 277.8 42.1 A 139.5 139.5 0 0 1 283.8 42.0 L 284 181.5 A 0 0 0 0 0 284 181.5 Z" stroke="black" stroke-width="5" stroke-linejoin="round" transform="translate(1, 1)"  stroke-opacity="0.0" r="139.5"></path><path fill="none" d="M 277.8 42.1 A 139.5 139.5 0 0 1 283.8 42.0 L 284 181.5 A 0 0 0 0 0 284 181.5 Z" stroke="black" stroke-width="3" stroke-linejoin="round" transform="translate(1, 1)"  stroke-opacity="0.0" r="139.5"></path><path fill="none" d="M 277.8 42.1 A 139.5 139.5 0 0 1 283.8 42.0 L 284 181.5 A 0 0 0 0 0 284 181.5 Z" stroke="black" stroke-width="1" stroke-linejoin="round" transform="translate(1, 1)"  stroke-opacity="0.1" r="139.5"></path></g></g><path fill="url(#highcharts-2)" d="M 283.9 42.0 A 139.5 139.5 0 0 1 327.1 314.1 L 284 181.5 A 0 0 0 0 0 284 181.5 Z" stroke="#FFFFFF" stroke-width="1" stroke-linejoin="round" transform="translate(0,0)"></path><path fill="url(#highcharts-3)" d="M 327.0 314.1 A 139.5 139.5 0 0 1 147.3 209.4 L 284 181.5 A 0 0 0 0 0 284 181.5 Z" stroke="#FFFFFF" stroke-width="1" stroke-linejoin="round" transform="translate(0,0)"></path><path fill="url(#highcharts-4)" d="M 147.2 209.2 A 139.5 139.5 0 0 1 169.0 102.4 L 284 181.5 A 0 0 0 0 0 284 181.5 Z" stroke="#FFFFFF" stroke-width="1" stroke-linejoin="round" transform="translate(-10,-2)"></path><path fill="url(#highcharts-5)" d="M 169.1 102.3 A 139.5 139.5 0 0 1 225.2 54.9 L 284 181.5 A 0 0 0 0 0 284 181.5 Z" stroke="#FFFFFF" stroke-width="1" stroke-linejoin="round" transform="translate(0,0)"></path><path fill="url(#highcharts-6)" d="M 225.4 54.8 A 139.5 139.5 0 0 1 277.6 42.1 L 284 181.5 A 0 0 0 0 0 284 181.5 Z" stroke="#FFFFFF" stroke-width="1" stroke-linejoin="round" transform="translate(0,0)"></path><path fill="url(#highcharts-7)" d="M 277.8 42.1 A 139.5 139.5 0 0 1 283.8 42.0 L 284 181.5 A 0 0 0 0 0 284 181.5 Z" stroke="#FFFFFF" stroke-width="1" stroke-linejoin="round" transform="translate(0,0)"></path></g><g class="highcharts-markers" visibility="visible"  transform="translate(10,44) scale(1 1)"></g></g><text x="292" text-anchor="middle" class="highcharts-title"  style="color:black;font-size:16px;font-weight:bold;fill:black;width:520px;" y="22"><tspan>Browser market shares at a specific website, 2014</tspan></text><g class="highcharts-data-labels highcharts-tracker" visibility="visible"  transform="translate(10,44) scale(1 1)" style="cursor:pointer;"><path fill="none" d="M 456.4 154.9 C 451.4 154.9 443.5 156.2 432.6 157.9 L 421.7 159.6" stroke="silver" stroke-width="1"></path><path fill="none" d="M 193.6 327.9 C 198.6 327.9 202.6 321.0 208.2 311.5 L 213.7 302.0" stroke="silver" stroke-width="1"></path><path fill="none" d="M 112.9 147.6 C 117.9 147.6 125.7 149.2 136.5 151.4 L 147.3 153.6" stroke="silver" stroke-width="1"></path><path fill="none" d="M 162.9 58 C 167.9 58 179.8 58.0 186.9 66.4 L 194.0 74.8" stroke="silver" stroke-width="1"></path><path fill="none" d="M 193.7 35 C 198.7 35 245.8 24.5 248.4 35.2 L 251.0 45.9" stroke="silver" stroke-width="1"></path><path fill="none" d="M 275.2 12 C 280.2 12 280.4 20.0 280.6 31.0 L 280.9 42.0" stroke="silver" stroke-width="1"></path><g  style="cursor:pointer;" transform="translate(461,145)"><text x="5"  style="font-size: 11px; font-weight: bold; color: black; fill: #000000; text-shadow: rgb(255, 255, 255) 0px 0px 6px, rgb(255, 255, 255) 0px 0px 3px; " transform="translate(0,16)"><tspan style="font-weight:bold">Firefox</tspan><tspan dx="0">: 45.0 %</tspan></text></g><g  style="cursor:pointer;" transform="translate(127,318)"><text x="5"  style="font-size: 11px; font-weight: bold; color: black; fill: #000000; text-shadow: rgb(255, 255, 255) 0px 0px 6px, rgb(255, 255, 255) 0px 0px 3px; " transform="translate(0,16)"><tspan style="font-weight:bold">IE</tspan><tspan dx="0">: 26.8 %</tspan></text></g><g  style="cursor:pointer;" transform="translate(13,138)"><text x="5"  style="font-size: 11px; font-weight: bold; color: black; fill: #000000; text-shadow: rgb(255, 255, 255) 0px 0px 6px, rgb(255, 255, 255) 0px 0px 3px; " transform="translate(0,16)"><tspan style="font-weight:bold">Chrome</tspan><tspan dx="0">: 12.8 %</tspan></text></g><g  style="cursor:pointer;" transform="translate(81,48)"><text x="5"  style="font-size: 11px; font-weight: bold; color: black; fill: #000000; text-shadow: rgb(255, 255, 255) 0px 0px 6px, rgb(255, 255, 255) 0px 0px 3px; " transform="translate(0,16)"><tspan style="font-weight:bold">Safari</tspan><tspan dx="0">: 8.5 %</tspan></text></g><g  style="cursor:pointer;" transform="translate(111,25)"><text x="5"  style="font-size: 11px; font-weight: bold; color: black; fill: #000000; text-shadow: rgb(255, 255, 255) 0px 0px 6px, rgb(255, 255, 255) 0px 0px 3px; " transform="translate(0,16)"><tspan style="font-weight:bold">Opera</tspan><tspan dx="0">: 6.2 %</tspan></text></g><g  style="cursor:pointer;" transform="translate(188,2)"><text x="5"  style="font-size: 11px; font-weight: bold; color: black; fill: #000000; text-shadow: rgb(255, 255, 255) 0px 0px 6px, rgb(255, 255, 255) 0px 0px 3px; " transform="translate(0,16)"><tspan style="font-weight:bold">Others</tspan><tspan dx="0">: 0.7 %</tspan></text></g></g><g class="highcharts-legend" ><g ><g></g></g></g><g class="highcharts-tooltip"  style="cursor:default;padding:0;white-space:nowrap;" transform="translate(0,-9999)"><path fill="none" d="M 3 0 L 13 0 C 16 0 16 0 16 3 L 16 13 C 16 16 16 16 13 16 L 3 16 C 0 16 0 16 0 13 L 0 3 C 0 0 0 0 3 0"  stroke="black" stroke-opacity="0.0" stroke-width="5" transform="translate(1, 1)"></path><path fill="none" d="M 3 0 L 13 0 C 16 0 16 0 16 3 L 16 13 C 16 16 16 16 13 16 L 3 16 C 0 16 0 16 0 13 L 0 3 C 0 0 0 0 3 0"  stroke="black" stroke-opacity="0.0" stroke-width="3" transform="translate(1, 1)"></path><path fill="none" d="M 3 0 L 13 0 C 16 0 16 0 16 3 L 16 13 C 16 16 16 16 13 16 L 3 16 C 0 16 0 16 0 13 L 0 3 C 0 0 0 0 3 0"  stroke="black" stroke-opacity="0.1" stroke-width="1" transform="translate(1, 1)"></path><path fill="rgb(249, 249, 249)" fill-opacity=" .85" d="M 3 0 L 13 0 C 16 0 16 0 16 3 L 16 13 C 16 16 16 16 13 16 L 3 16 C 0 16 0 16 0 13 L 0 3 C 0 0 0 0 3 0"></path><text x="8"  style="font-size:12px;color:#333333;fill:#333333;" transform="translate(0,20)"></text></g></svg>