<svg version="1.1" style="font-family: signika, serif; font-size: 12px; background-image: url(http://www.highcharts.com/samples/graphics/sand.png); background-attachment: initial; background-origin: initial; background-clip: initial; background-color: initial; background-position: initial initial; background-repeat: initial initial; " xmlns="http://www.w3.org/2000/svg" width="584" height="400" viewBox="0 0 584 400" xmlns:xlink="http://www.w3.org/1999/xlink"><style type="text/css"><![CDATA[@import url(http://fonts.googleapis.com/css?family=Signika:700);]]></style><desc>Created with Highcharts 4.1.4</desc><defs><clipPath id="highcharts-1"><rect x="0" y="0" width="450" height="327"></rect></clipPath></defs><g class="highcharts-grid" ><path fill="none" d="M 235 221.5 L 235 82.5" stroke="#D8D8D8" stroke-width="1"  opacity="1"></path><path fill="none" d="M 235 221.5 L 288.1 93.1" stroke="#D8D8D8" stroke-width="1"  opacity="1"></path><path fill="none" d="M 235 221.5 L 333.2 123.2" stroke="#D8D8D8" stroke-width="1"  opacity="1"></path><path fill="none" d="M 235 221.5 L 363.3 168.3" stroke="#D8D8D8" stroke-width="1"  opacity="1"></path><path fill="none" d="M 235 221.5 L 373.9 221.5" stroke="#D8D8D8" stroke-width="1"  opacity="1"></path><path fill="none" d="M 235 221.5 L 363.3 274.6" stroke="#D8D8D8" stroke-width="1"  opacity="1"></path><path fill="none" d="M 235 221.5 L 333.2 319.7" stroke="#D8D8D8" stroke-width="1"  opacity="1"></path><path fill="none" d="M 235 221.5 L 288.1 349.8" stroke="#D8D8D8" stroke-width="1"  opacity="1"></path><path fill="none" d="M 235 221.5 L 235 360.4" stroke="#D8D8D8" stroke-width="1"  opacity="1"></path><path fill="none" d="M 235 221.5 L 181.8 349.8" stroke="#D8D8D8" stroke-width="1"  opacity="1"></path><path fill="none" d="M 235 221.5 L 136.7 319.7" stroke="#D8D8D8" stroke-width="1"  opacity="1"></path><path fill="none" d="M 235 221.5 L 106.6 274.6" stroke="#D8D8D8" stroke-width="1"  opacity="1"></path><path fill="none" d="M 235 221.5 L 96.0 221.5" stroke="#D8D8D8" stroke-width="1"  opacity="1"></path><path fill="none" d="M 235 221.5 L 106.6 168.3" stroke="#D8D8D8" stroke-width="1"  opacity="1"></path><path fill="none" d="M 235 221.5 L 136.7 123.2" stroke="#D8D8D8" stroke-width="1"  opacity="1"></path><path fill="none" d="M 235 221.5 L 181.8 93.1" stroke="#D8D8D8" stroke-width="1"  opacity="1"></path><path fill="none" d="M 235 221.5 L 234.9 82.5" stroke="#D8D8D8" stroke-width="1"  opacity="1"></path></g><g class="highcharts-grid" ><path fill="none" stroke="#D8D8D8" stroke-width="1" ></path><path fill="none" d="M 235 163.6 A 57.8 57.8 0 1 1 234.9 163.6 M 235 221.5 A 0 0 0 1 0 235 221.5 " stroke="#D8D8D8" stroke-width="1"  opacity="1"></path><path fill="none" d="M 235 105.8 A 115.6 115.6 0 1 1 234.8 105.8 M 235 221.5 A 0 0 0 1 0 235 221.5 " stroke="#D8D8D8" stroke-width="1"  opacity="1"></path></g><g class="highcharts-axis" ><path fill="none" d="M 235 82.5 A 138.9 138.9 0 1 1 234.8 82.5 M 235 221.5 A 0 0 0 1 0 235 221.5 " stroke="#C0D0E0" stroke-width="1"  visibility="visible"></path></g><g class="highcharts-axis" ><text x="239"  text-anchor="middle" transform="translate(0,0) rotate(90 239 152.0)" class=" highcharts-yaxis-title" style="color:#707070;fill:#707070;" visibility="visible" y="152.0"><tspan>Frequency (%)</tspan></text></g><g class="highcharts-series-group" ><g class="highcharts-series highcharts-tracker" visibility="visible"  transform="translate(10,58) scale(1 1)" style="" clip-path="url(#highcharts-1)"><path fill="#f45b5b" d="M 221.7 142.8 A 20.9 20.9 0 0 1 228.2 142.8 L 225 163.5 A 0 0 0 0 0 225 163.5 Z" r="0"></path><path fill="#f45b5b" d="M 226.6 156.5 A 7.1 7.1 0 0 1 228.7 157.3 L 225 163.5 A 0 0 0 0 0 225 163.5 Z" r="0"></path><path fill="#f45b5b" d="M 230.5 155.8 A 9.4 9.4 0 0 1 232.6 157.9 L 225 163.5 A 0 0 0 0 0 225 163.5 Z" r="0"></path><path fill="#f45b5b" d="M 230.8 159.9 A 6.8 6.8 0 0 1 231.6 161.8 L 225 163.5 A 0 0 0 0 0 225 163.5 Z" r="0"></path><path fill="#f45b5b" d="M 232.0 162.3 A 7.1 7.1 0 0 1 232.0 164.6 L 225 163.5 A 0 0 0 0 0 225 163.5 Z" r="0"></path><path fill="#f45b5b" d="M 238.7 166.7 A 14.1 14.1 0 0 1 237.0 170.8 L 225 163.5 A 0 0 0 0 0 225 163.5 Z" r="0"></path><path fill="#f45b5b" d="M 240.0 174.4 A 18.6 18.6 0 0 1 235.9 178.5 L 225 163.5 A 0 0 0 0 0 225 163.5 Z" r="0"></path><path fill="#f45b5b" d="M 237.3 183.6 A 23.6 23.6 0 0 1 230.5 186.4 L 225 163.5 A 0 0 0 0 0 225 163.5 Z" r="0"></path><path fill="#f45b5b" d="M 229.8 193.8 A 30.7 30.7 0 0 1 220.2 193.9 L 225 163.5 A 0 0 0 0 0 225 163.5 Z" r="0"></path><path fill="#f45b5b" d="M 217.0 196.8 A 34.2 34.2 0 0 1 207.1 192.7 L 225 163.5 A 0 0 0 0 0 225 163.5 Z" r="0"></path><path fill="#f45b5b" d="M 207.7 187.1 A 29.2 29.2 0 0 1 201.3 180.7 L 225 163.5 A 0 0 0 0 0 225 163.5 Z" r="0"></path><path fill="#f45b5b" d="M 205.5 175.4 A 22.7 22.7 0 0 1 202.8 168.8 L 225 163.5 A 0 0 0 0 0 225 163.5 Z" r="0"></path><path fill="#f45b5b" d="M 206.2 166.4 A 18.9 18.9 0 0 1 206.2 160.5 L 225 163.5 A 0 0 0 0 0 225 163.5 Z" r="0"></path><path fill="#f45b5b" d="M 210.1 159.9 A 15.2 15.2 0 0 1 211.9 155.5 L 225 163.5 A 0 0 0 0 0 225 163.5 Z" r="0"></path><path fill="#f45b5b" d="M 210.2 152.7 A 18.2 18.2 0 0 1 214.2 148.7 L 225 163.5 A 0 0 0 0 0 225 163.5 Z" r="0"></path><path fill="#f45b5b" d="M 215.8 148.6 A 17.4 17.4 0 0 1 220.9 146.5 L 225 163.5 A 0 0 0 0 0 225 163.5 Z" r="0"></path></g><g class="highcharts-markers" visibility="visible"  transform="translate(10,58) scale(1 1)"></g><g class="highcharts-series highcharts-tracker" visibility="visible"  transform="translate(10,58) scale(1 1)" style="" clip-path="url(#highcharts-1)"><path fill="#8085e9" d="M 218.5 122.4 A 41.5 41.5 0 0 1 231.4 122.4 L 228.2 142.8 A 20.9 20.9 0 0 0 221.7 142.8 Z" r="0"></path><path fill="#8085e9" d="M 229.6 144.2 A 19.7 19.7 0 0 1 235.3 146.6 L 228.7 157.3 A 7.1 7.1 0 0 0 226.6 156.5 Z" r="0"></path><path fill="#8085e9" d="M 236.1 148.1 A 18.9 18.9 0 0 1 240.3 152.3 L 232.6 157.9 A 9.4 9.4 0 0 0 230.5 155.8 Z" r="0"></path><path fill="#8085e9" d="M 242.8 152.5 A 20.9 20.9 0 0 1 245.3 158.5 L 231.6 161.8 A 6.8 6.8 0 0 0 230.8 159.9 Z" r="0"></path><path fill="#8085e9" d="M 257.2 158.3 A 32.6 32.6 0 0 1 257.2 168.5 L 232.0 164.6 A 7.1 7.1 0 0 0 232.0 162.3 Z" r="0"></path><path fill="#8085e9" d="M 261.3 172.2 A 37.3 37.3 0 0 1 256.8 182.9 L 237.0 170.8 A 14.1 14.1 0 0 0 238.7 166.7 Z" r="0"></path><path fill="#8085e9" d="M 268.7 195.2 A 54.0 54.0 0 0 1 256.8 207.1 L 235.9 178.5 A 18.6 18.6 0 0 0 240.0 174.4 Z" r="0"></path><path fill="#8085e9" d="M 258.0 217.3 A 63.1 63.1 0 0 1 239.8 224.9 L 230.5 186.4 A 23.6 23.6 0 0 0 237.3 183.6 Z" r="0"></path><path fill="#8085e9" d="M 238.3 248.0 A 85.6 85.6 0 0 1 211.6 248.0 L 220.2 193.9 A 30.7 30.7 0 0 0 229.8 193.8 Z" r="0"></path><path fill="#8085e9" d="M 205.8 243.3 A 82.1 82.1 0 0 1 182.1 233.5 L 207.1 192.7 A 34.2 34.2 0 0 0 217.0 196.8 Z" r="0"></path><path fill="#8085e9" d="M 180.5 224.7 A 75.6 75.6 0 0 1 163.8 208.0 L 201.3 180.7 A 29.2 29.2 0 0 0 207.7 187.1 Z" r="0"></path><path fill="#8085e9" d="M 179.3 191.4 A 53.5 53.5 0 0 1 172.9 176.0 L 202.8 168.8 A 22.7 22.7 0 0 0 205.5 175.4 Z" r="0"></path><path fill="#8085e9" d="M 186.7 169.5 A 38.7 38.7 0 0 1 186.7 157.4 L 206.2 160.5 A 18.9 18.9 0 0 0 206.2 166.4 Z" r="0"></path><path fill="#8085e9" d="M 183.1 153.4 A 43.0 43.0 0 0 1 188.2 141.0 L 211.9 155.5 A 15.2 15.2 0 0 0 210.1 159.9 Z" r="0"></path><path fill="#8085e9" d="M 170.1 123.6 A 67.7 67.7 0 0 1 185.0 108.6 L 214.2 148.7 A 18.2 18.2 0 0 0 210.2 152.7 Z" r="0"></path><path fill="#8085e9" d="M 185.6 99.2 A 75.3 75.3 0 0 1 207.3 90.2 L 220.9 146.5 A 17.4 17.4 0 0 0 215.8 148.6 Z" r="0"></path></g><g class="highcharts-markers" visibility="visible"  transform="translate(10,58) scale(1 1)"></g><g class="highcharts-series highcharts-tracker" visibility="visible"  transform="translate(10,58) scale(1 1)" style="" clip-path="url(#highcharts-1)"><path fill="#8d4654" d="M 218.2 120.6 A 43.3 43.3 0 0 1 231.7 120.6 L 231.4 122.4 A 41.5 41.5 0 0 0 218.5 122.4 Z" r="0"></path><path fill="#8d4654" d="M 229.6 144.2 A 19.7 19.7 0 0 1 235.3 146.6 L 235.3 146.6 A 19.7 19.7 0 0 0 229.6 144.2 Z" r="0"></path><path fill="#8d4654" d="M 236.6 147.4 A 19.7 19.7 0 0 1 240.9 151.8 L 240.3 152.3 A 18.9 18.9 0 0 0 236.1 148.1 Z" r="0"></path><path fill="#8d4654" d="M 243.5 152.1 A 21.7 21.7 0 0 1 246.1 158.4 L 245.3 158.5 A 20.9 20.9 0 0 0 242.8 152.5 Z" r="0"></path><path fill="#8d4654" d="M 262.8 157.5 A 38.2 38.2 0 0 1 262.8 169.4 L 257.2 168.5 A 32.6 32.6 0 0 0 257.2 158.3 Z" r="0"></path><path fill="#8d4654" d="M 278.7 176.4 A 55.3 55.3 0 0 1 272.1 192.3 L 256.8 182.9 A 37.3 37.3 0 0 0 261.3 172.2 Z" r="0"></path><path fill="#8d4654" d="M 290.8 211.3 A 81.4 81.4 0 0 1 272.9 229.3 L 256.8 207.1 A 54.0 54.0 0 0 0 268.7 195.2 Z" r="0"></path><path fill="#8d4654" d="M 269.9 236.7 A 85.9 85.9 0 0 1 245.1 247.0 L 239.8 224.9 A 63.1 63.1 0 0 0 258.0 217.3 Z" r="0"></path><path fill="#8d4654" d="M 239.1 252.9 A 90.5 90.5 0 0 1 210.9 252.9 L 211.6 248.0 A 85.6 85.6 0 0 0 238.3 248.0 Z" r="0"></path><path fill="#8d4654" d="M 205.1 246.3 A 85.1 85.1 0 0 1 180.5 236.1 L 182.1 233.5 A 82.1 82.1 0 0 0 205.8 243.3 Z" r="0"></path><path fill="#8d4654" d="M 172.2 236.1 A 89.7 89.7 0 0 1 152.4 216.3 L 163.8 208.0 A 75.6 75.6 0 0 0 180.5 224.7 Z" r="0"></path><path fill="#8d4654" d="M 159.8 203.3 A 76.3 76.3 0 0 1 150.7 181.4 L 172.9 176.0 A 53.5 53.5 0 0 0 179.3 191.4 Z" r="0"></path><path fill="#8d4654" d="M 176.2 171.2 A 49.4 49.4 0 0 1 176.1 155.8 L 186.7 157.4 A 38.7 38.7 0 0 0 186.7 169.5 Z" r="0"></path><path fill="#8d4654" d="M 172.0 150.7 A 54.4 54.4 0 0 1 178.5 135.0 L 188.2 141.0 A 43.0 43.0 0 0 0 183.1 153.4 Z" r="0"></path><path fill="#8d4654" d="M 158.1 114.9 A 82.6 82.6 0 0 1 176.3 96.7 L 185.0 108.6 A 67.7 67.7 0 0 0 170.1 123.6 Z" r="0"></path><path fill="#8d4654" d="M 177.6 86.2 A 90.5 90.5 0 0 1 203.7 75.4 L 207.3 90.2 A 75.3 75.3 0 0 0 185.6 99.2 Z" r="0"></path></g><g class="highcharts-markers" visibility="visible"  transform="translate(10,58) scale(1 1)"></g><g class="highcharts-series highcharts-tracker" visibility="visible"  transform="translate(10,58) scale(1 1)" style="" clip-path="url(#highcharts-1)"><path fill="#7798BF" d="M 218.2 120.6 A 43.3 43.3 0 0 1 231.7 120.6 L 231.7 120.6 A 43.3 43.3 0 0 0 218.2 120.6 Z" r="0"></path><path fill="#7798BF" d="M 229.6 144.2 A 19.7 19.7 0 0 1 235.3 146.6 L 235.3 146.6 A 19.7 19.7 0 0 0 229.6 144.2 Z" r="0"></path><path fill="#7798BF" d="M 236.6 147.4 A 19.7 19.7 0 0 1 240.9 151.8 L 240.9 151.8 A 19.7 19.7 0 0 0 236.6 147.4 Z" r="0"></path><path fill="#7798BF" d="M 243.5 152.1 A 21.7 21.7 0 0 1 246.1 158.4 L 246.1 158.4 A 21.7 21.7 0 0 0 243.5 152.1 Z" r="0"></path><path fill="#7798BF" d="M 262.8 157.5 A 38.2 38.2 0 0 1 262.8 169.4 L 262.8 169.4 A 38.2 38.2 0 0 0 262.8 157.5 Z" r="0"></path><path fill="#7798BF" d="M 282.1 177.2 A 58.7 58.7 0 0 1 275.1 194.1 L 272.1 192.3 A 55.3 55.3 0 0 0 278.7 176.4 Z" r="0"></path><path fill="#7798BF" d="M 310.9 225.9 A 106.2 106.2 0 0 1 287.5 249.3 L 272.9 229.3 A 81.4 81.4 0 0 0 290.8 211.3 Z" r="0"></path><path fill="#7798BF" d="M 275.1 245.2 A 95.9 95.9 0 0 1 247.4 256.7 L 245.1 247.0 A 85.9 85.9 0 0 0 269.9 236.7 Z" r="0"></path><path fill="#7798BF" d="M 239.1 252.9 A 90.5 90.5 0 0 1 210.9 252.9 L 210.9 252.9 A 90.5 90.5 0 0 0 239.1 252.9 Z" r="0"></path><path fill="#7798BF" d="M 205.1 246.3 A 85.1 85.1 0 0 1 180.5 236.1 L 180.5 236.1 A 85.1 85.1 0 0 0 205.1 246.3 Z" r="0"></path><path fill="#7798BF" d="M 168.8 240.7 A 95.4 95.4 0 0 1 147.8 219.6 L 152.4 216.3 A 89.7 89.7 0 0 0 172.2 236.1 Z" r="0"></path><path fill="#7798BF" d="M 152.0 208.1 A 85.4 85.4 0 0 1 141.8 183.5 L 150.7 181.4 A 76.3 76.3 0 0 0 159.8 203.3 Z" r="0"></path><path fill="#7798BF" d="M 159.6 173.8 A 66.1 66.1 0 0 1 159.6 153.2 L 176.1 155.8 A 49.4 49.4 0 0 0 176.2 171.2 Z" r="0"></path><path fill="#7798BF" d="M 153.8 146.4 A 73.1 73.1 0 0 1 162.6 125.3 L 178.5 135.0 A 54.4 54.4 0 0 0 172.0 150.7 Z" r="0"></path><path fill="#7798BF" d="M 151.0 109.7 A 91.4 91.4 0 0 1 171.2 89.6 L 176.3 96.7 A 82.6 82.6 0 0 0 158.1 114.9 Z" r="0"></path><path fill="#7798BF" d="M 176.8 84.9 A 92.0 92.0 0 0 1 203.4 73.9 L 203.7 75.4 A 90.5 90.5 0 0 0 177.6 86.2 Z" r="0"></path></g><g class="highcharts-markers" visibility="visible"  transform="translate(10,58) scale(1 1)"></g><g class="highcharts-series highcharts-tracker" visibility="visible"  transform="translate(10,58) scale(1 1)" style="" clip-path="url(#highcharts-1)"><path fill="#aaeeee" d="M 218.2 120.6 A 43.3 43.3 0 0 1 231.7 120.6 L 231.7 120.6 A 43.3 43.3 0 0 0 218.2 120.6 Z" r="0"></path><path fill="#aaeeee" d="M 229.6 144.2 A 19.7 19.7 0 0 1 235.3 146.6 L 235.3 146.6 A 19.7 19.7 0 0 0 229.6 144.2 Z" r="0"></path><path fill="#aaeeee" d="M 236.6 147.4 A 19.7 19.7 0 0 1 240.9 151.8 L 240.9 151.8 A 19.7 19.7 0 0 0 236.6 147.4 Z" r="0"></path><path fill="#aaeeee" d="M 243.5 152.1 A 21.7 21.7 0 0 1 246.1 158.4 L 246.1 158.4 A 21.7 21.7 0 0 0 243.5 152.1 Z" r="0"></path><path fill="#aaeeee" d="M 262.8 157.5 A 38.2 38.2 0 0 1 262.8 169.4 L 262.8 169.4 A 38.2 38.2 0 0 0 262.8 157.5 Z" r="0"></path><path fill="#aaeeee" d="M 283.6 177.5 A 60.2 60.2 0 0 1 276.4 194.9 L 275.1 194.1 A 58.7 58.7 0 0 0 282.1 177.2 Z" r="0"></path><path fill="#aaeeee" d="M 327.2 237.7 A 126.3 126.3 0 0 1 299.3 265.6 L 287.5 249.3 A 106.2 106.2 0 0 0 310.9 225.9 Z" r="0"></path><path fill="#aaeeee" d="M 278.3 250.5 A 102.0 102.0 0 0 1 248.9 262.7 L 247.4 256.7 A 95.9 95.9 0 0 0 275.1 245.2 Z" r="0"></path><path fill="#aaeeee" d="M 239.1 252.9 A 90.5 90.5 0 0 1 210.9 252.9 L 210.9 252.9 A 90.5 90.5 0 0 0 239.1 252.9 Z" r="0"></path><path fill="#aaeeee" d="M 205.1 246.3 A 85.1 85.1 0 0 1 180.5 236.1 L 180.5 236.1 A 85.1 85.1 0 0 0 205.1 246.3 Z" r="0"></path><path fill="#aaeeee" d="M 168.0 241.9 A 96.9 96.9 0 0 1 146.6 220.5 L 147.8 219.6 A 95.4 95.4 0 0 0 168.8 240.7 Z" r="0"></path><path fill="#aaeeee" d="M 149.1 209.9 A 88.9 88.9 0 0 1 138.5 184.3 L 141.8 183.5 A 85.4 85.4 0 0 0 152.0 208.1 Z" r="0"></path><path fill="#aaeeee" d="M 156.6 174.3 A 69.1 69.1 0 0 1 156.6 152.7 L 159.6 153.2 A 66.1 66.1 0 0 0 159.6 173.8 Z" r="0"></path><path fill="#aaeeee" d="M 150.1 145.5 A 76.9 76.9 0 0 1 159.3 123.3 L 162.6 125.3 A 73.1 73.1 0 0 0 153.8 146.4 Z" r="0"></path><path fill="#aaeeee" d="M 144.8 105.2 A 99.0 99.0 0 0 1 166.7 83.4 L 171.2 89.6 A 91.4 91.4 0 0 0 151.0 109.7 Z" r="0"></path><path fill="#aaeeee" d="M 175.4 82.7 A 94.7 94.7 0 0 1 202.7 71.3 L 203.4 73.9 A 92.0 92.0 0 0 0 176.8 84.9 Z" r="0"></path></g><g class="highcharts-markers" visibility="visible"  transform="translate(10,58) scale(1 1)"></g><g class="highcharts-series highcharts-tracker" visibility="visible"  transform="translate(10,58) scale(1 1)" style="" clip-path="url(#highcharts-1)"><path fill="#ff0066" d="M 218.2 120.6 A 43.3 43.3 0 0 1 231.7 120.6 L 231.7 120.6 A 43.3 43.3 0 0 0 218.2 120.6 Z" r="0"></path><path fill="#ff0066" d="M 229.6 144.2 A 19.7 19.7 0 0 1 235.3 146.6 L 235.3 146.6 A 19.7 19.7 0 0 0 229.6 144.2 Z" r="0"></path><path fill="#ff0066" d="M 236.6 147.4 A 19.7 19.7 0 0 1 240.9 151.8 L 240.9 151.8 A 19.7 19.7 0 0 0 236.6 147.4 Z" r="0"></path><path fill="#ff0066" d="M 243.5 152.1 A 21.7 21.7 0 0 1 246.1 158.4 L 246.1 158.4 A 21.7 21.7 0 0 0 243.5 152.1 Z" r="0"></path><path fill="#ff0066" d="M 262.8 157.5 A 38.2 38.2 0 0 1 262.8 169.4 L 262.8 169.4 A 38.2 38.2 0 0 0 262.8 157.5 Z" r="0"></path><path fill="#ff0066" d="M 283.6 177.5 A 60.2 60.2 0 0 1 276.4 194.9 L 276.4 194.9 A 60.2 60.2 0 0 0 283.6 177.5 Z" r="0"></path><path fill="#ff0066" d="M 330.8 240.4 A 130.8 130.8 0 0 1 302.0 269.2 L 299.3 265.6 A 126.3 126.3 0 0 0 327.2 237.7 Z" r="0"></path><path fill="#ff0066" d="M 281.2 255.3 A 107.7 107.7 0 0 1 250.2 268.2 L 248.9 262.7 A 102.0 102.0 0 0 0 278.3 250.5 Z" r="0"></path><path fill="#ff0066" d="M 239.1 252.9 A 90.5 90.5 0 0 1 210.9 252.9 L 210.9 252.9 A 90.5 90.5 0 0 0 239.1 252.9 Z" r="0"></path><path fill="#ff0066" d="M 205.1 246.3 A 85.1 85.1 0 0 1 180.5 236.1 L 180.5 236.1 A 85.1 85.1 0 0 0 205.1 246.3 Z" r="0"></path><path fill="#ff0066" d="M 168.0 241.9 A 96.9 96.9 0 0 1 146.6 220.5 L 146.6 220.5 A 96.9 96.9 0 0 0 168.0 241.9 Z" r="0"></path><path fill="#ff0066" d="M 149.1 209.9 A 88.9 88.9 0 0 1 138.5 184.3 L 138.5 184.3 A 88.9 88.9 0 0 0 149.1 209.9 Z" r="0"></path><path fill="#ff0066" d="M 155.5 174.5 A 70.3 70.3 0 0 1 155.5 152.5 L 156.6 152.7 A 69.1 69.1 0 0 0 156.6 174.3 Z" r="0"></path><path fill="#ff0066" d="M 150.1 145.5 A 76.9 76.9 0 0 1 159.3 123.3 L 159.3 123.3 A 76.9 76.9 0 0 0 150.1 145.5 Z" r="0"></path><path fill="#ff0066" d="M 138.4 100.5 A 107.0 107.0 0 0 1 162.0 76.9 L 166.7 83.4 A 99.0 99.0 0 0 0 144.8 105.2 Z" r="0"></path><path fill="#ff0066" d="M 174.7 81.4 A 96.2 96.2 0 0 1 202.4 69.9 L 202.7 71.3 A 94.7 94.7 0 0 0 175.4 82.7 Z" r="0"></path></g><g class="highcharts-markers" visibility="visible"  transform="translate(10,58) scale(1 1)"></g><g class="highcharts-series highcharts-tracker" visibility="visible"  transform="translate(10,58) scale(1 1)" style="" clip-path="url(#highcharts-1)"><path fill="#eeaaee" d="M 218.2 120.6 A 43.3 43.3 0 0 1 231.7 120.6 L 231.7 120.6 A 43.3 43.3 0 0 0 218.2 120.6 Z" r="0"></path><path fill="#eeaaee" d="M 229.6 144.2 A 19.7 19.7 0 0 1 235.3 146.6 L 235.3 146.6 A 19.7 19.7 0 0 0 229.6 144.2 Z" r="0"></path><path fill="#eeaaee" d="M 236.6 147.4 A 19.7 19.7 0 0 1 240.9 151.8 L 240.9 151.8 A 19.7 19.7 0 0 0 236.6 147.4 Z" r="0"></path><path fill="#eeaaee" d="M 243.5 152.1 A 21.7 21.7 0 0 1 246.1 158.4 L 246.1 158.4 A 21.7 21.7 0 0 0 243.5 152.1 Z" r="0"></path><path fill="#eeaaee" d="M 262.8 157.5 A 38.2 38.2 0 0 1 262.8 169.4 L 262.8 169.4 A 38.2 38.2 0 0 0 262.8 157.5 Z" r="0"></path><path fill="#eeaaee" d="M 283.6 177.5 A 60.2 60.2 0 0 1 276.4 194.9 L 276.4 194.9 A 60.2 60.2 0 0 0 283.6 177.5 Z" r="0"></path><path fill="#eeaaee" d="M 332.0 241.2 A 132.3 132.3 0 0 1 302.9 270.5 L 302.0 269.2 A 130.8 130.8 0 0 0 330.8 240.4 Z" r="0"></path><path fill="#eeaaee" d="M 281.2 255.3 A 107.7 107.7 0 0 1 250.2 268.2 L 250.2 268.2 A 107.7 107.7 0 0 0 281.2 255.3 Z" r="0"></path><path fill="#eeaaee" d="M 239.1 252.9 A 90.5 90.5 0 0 1 210.9 252.9 L 210.9 252.9 A 90.5 90.5 0 0 0 239.1 252.9 Z" r="0"></path><path fill="#eeaaee" d="M 205.1 246.3 A 85.1 85.1 0 0 1 180.5 236.1 L 180.5 236.1 A 85.1 85.1 0 0 0 205.1 246.3 Z" r="0"></path><path fill="#eeaaee" d="M 168.0 241.9 A 96.9 96.9 0 0 1 146.6 220.5 L 146.6 220.5 A 96.9 96.9 0 0 0 168.0 241.9 Z" r="0"></path><path fill="#eeaaee" d="M 149.1 209.9 A 88.9 88.9 0 0 1 138.5 184.3 L 138.5 184.3 A 88.9 88.9 0 0 0 149.1 209.9 Z" r="0"></path><path fill="#eeaaee" d="M 155.5 174.5 A 70.3 70.3 0 0 1 155.5 152.5 L 155.5 152.5 A 70.3 70.3 0 0 0 155.5 174.5 Z" r="0"></path><path fill="#eeaaee" d="M 150.1 145.5 A 76.9 76.9 0 0 1 159.3 123.3 L 159.3 123.3 A 76.9 76.9 0 0 0 150.1 145.5 Z" r="0"></path><path fill="#eeaaee" d="M 138.1 100.3 A 107.3 107.3 0 0 1 161.8 76.7 L 162.0 76.9 A 107.0 107.0 0 0 0 138.4 100.5 Z" r="0"></path><path fill="#eeaaee" d="M 174.2 80.7 A 97.0 97.0 0 0 1 202.2 69.1 L 202.4 69.9 A 96.2 96.2 0 0 0 174.7 81.4 Z" r="0"></path></g><g class="highcharts-markers" visibility="visible"  transform="translate(10,58) scale(1 1)"></g></g><text x="292" text-anchor="middle" class="highcharts-title"  style="color:black;font-size:16px;font-weight:bold;fill:black;width:520px;" y="22"><tspan>Wind rose for South Shore Met Station, Oregon</tspan></text><text x="292" text-anchor="middle" class="highcharts-subtitle"  style="color:black;fill:black;width:520px;" y="43"><tspan>Source: or.water.usgs.gov</tspan></text><g class="highcharts-legend"  transform="translate(472,110)"><g ><g><g class="highcharts-legend-item"  transform="translate(8,3)"><text x="21" style="color:#333333;font-size:13px;font-weight:bold;cursor:pointer;fill:#333333;" text-anchor="start"  y="16"><tspan>&lt; 0.5 m/s</tspan></text><rect x="0" y="5" width="16" height="12"  fill="#f45b5b"></rect></g><g class="highcharts-legend-item"  transform="translate(8,19)"><text x="21" y="16" style="color:#333333;font-size:13px;font-weight:bold;cursor:pointer;fill:#333333;" text-anchor="start" ><tspan>0.5-2 m/s</tspan></text><rect x="0" y="5" width="16" height="12"  fill="#8085e9"></rect></g><g class="highcharts-legend-item"  transform="translate(8,35)"><text x="21" y="16" style="color:#333333;font-size:13px;font-weight:bold;cursor:pointer;fill:#333333;" text-anchor="start" ><tspan>2-4 m/s</tspan></text><rect x="0" y="5" width="16" height="12"  fill="#8d4654"></rect></g><g class="highcharts-legend-item"  transform="translate(8,51)"><text x="21" y="16" style="color:#333333;font-size:13px;font-weight:bold;cursor:pointer;fill:#333333;" text-anchor="start" ><tspan>4-6 m/s</tspan></text><rect x="0" y="5" width="16" height="12"  fill="#7798BF"></rect></g><g class="highcharts-legend-item"  transform="translate(8,67)"><text x="21" y="16" style="color:#333333;font-size:13px;font-weight:bold;cursor:pointer;fill:#333333;" text-anchor="start" ><tspan>6-8 m/s</tspan></text><rect x="0" y="5" width="16" height="12"  fill="#aaeeee"></rect></g><g class="highcharts-legend-item"  transform="translate(8,83)"><text x="21" y="16" style="color:#333333;font-size:13px;font-weight:bold;cursor:pointer;fill:#333333;" text-anchor="start" ><tspan>8-10 m/s</tspan></text><rect x="0" y="5" width="16" height="12"  fill="#ff0066"></rect></g><g class="highcharts-legend-item"  transform="translate(8,99)"><text x="21" y="16" style="color:#333333;font-size:13px;font-weight:bold;cursor:pointer;fill:#333333;" text-anchor="start" ><tspan>&gt; 10 m/s</tspan></text><rect x="0" y="5" width="16" height="12"  fill="#eeaaee"></rect></g></g></g></g><g class="highcharts-axis-labels highcharts-xaxis-labels" ><text x="235" style="color:#6e6e70;cursor:default;font-size:11px;fill:#6e6e70;width:16px;text-overflow:clip;" text-anchor="middle" transform="translate(0,0)" y="72.0" opacity="1">N</text><text x="293.9" style="color:#6e6e70;cursor:default;font-size:11px;fill:#6e6e70;width:16px;text-overflow:clip;" text-anchor="start" transform="translate(0,0)" y="83.7" opacity="1">NNE</text><text x="343.8" style="color:#6e6e70;cursor:default;font-size:11px;fill:#6e6e70;width:16px;text-overflow:clip;" text-anchor="start" transform="translate(0,0)" y="117.1" opacity="1">NE</text><text x="377.2" style="color:#6e6e70;cursor:default;font-size:11px;fill:#6e6e70;width:16px;text-overflow:clip;" text-anchor="start" transform="translate(0,0)" y="167.0" opacity="1">ENE</text><text x="388.9" style="color:#6e6e70;cursor:default;font-size:11px;fill:#6e6e70;width:16px;text-overflow:clip;" text-anchor="start" transform="translate(0,0)" y="226" opacity="1">E</text><text x="377.2" style="color:#6e6e70;cursor:default;font-size:11px;fill:#6e6e70;width:16px;text-overflow:clip;" text-anchor="start" transform="translate(0,0)" y="284.9" opacity="1">ESE</text><text x="343.8" style="color:#6e6e70;cursor:default;font-size:11px;fill:#6e6e70;width:16px;text-overflow:clip;" text-anchor="start" transform="translate(0,0)" y="334.8" opacity="1">SE</text><text x="293.9" style="color:#6e6e70;cursor:default;font-size:11px;fill:#6e6e70;width:16px;text-overflow:clip;" text-anchor="start" transform="translate(0,0)" y="368.2" opacity="1">SSE</text><text x="235" style="color:#6e6e70;cursor:default;font-size:11px;fill:#6e6e70;width:16px;text-overflow:clip;" text-anchor="middle" transform="translate(0,0)" y="379.9" opacity="1">S</text><text x="176.0" style="color:#6e6e70;cursor:default;font-size:11px;fill:#6e6e70;width:16px;text-overflow:clip;" text-anchor="end" transform="translate(0,0)" y="368.2" opacity="1">SSW</text><text x="126.1" style="color:#6e6e70;cursor:default;font-size:11px;fill:#6e6e70;width:16px;text-overflow:clip;" text-anchor="end" transform="translate(0,0)" y="334.8" opacity="1">SW</text><text x="92.7" style="color:#6e6e70;cursor:default;font-size:11px;fill:#6e6e70;width:16px;text-overflow:clip;" text-anchor="end" transform="translate(0,0)" y="284.9" opacity="1">WSW</text><text x="81.0" style="color:#6e6e70;cursor:default;font-size:11px;fill:#6e6e70;width:16px;text-overflow:clip;" text-anchor="end" transform="translate(0,0)" y="226.0" opacity="1">W</text><text x="92.7" style="color:#6e6e70;cursor:default;font-size:11px;fill:#6e6e70;width:16px;text-overflow:clip;" text-anchor="end" transform="translate(0,0)" y="167.0" opacity="1">WNW</text><text x="126.1" style="color:#6e6e70;cursor:default;font-size:11px;fill:#6e6e70;width:16px;text-overflow:clip;" text-anchor="end" transform="translate(0,0)" y="117.1" opacity="1">NW</text><text x="176.0" style="color:#6e6e70;cursor:default;font-size:11px;fill:#6e6e70;width:16px;text-overflow:clip;" text-anchor="end" transform="translate(0,0)" y="83.7" opacity="1">NNW</text><text x="0" style="color:#6e6e70;cursor:default;font-size:11px;fill:#6e6e70;width:16px;text-overflow:clip;" text-anchor="middle" transform="translate(0,0)" y="-9999">16</text></g><g class="highcharts-axis-labels highcharts-yaxis-labels" ><text x="232" style="color:#6e6e70;cursor:default;font-size:11px;fill:#6e6e70;width:183px;text-overflow:clip;" text-anchor="end" transform="translate(0,0)" y="219.5" opacity="1">0%</text><text x="232" style="color:#6e6e70;cursor:default;font-size:11px;fill:#6e6e70;width:183px;text-overflow:clip;" text-anchor="end" transform="translate(0,0)" y="161.6" opacity="1">5%</text><text x="232" style="color:#6e6e70;cursor:default;font-size:11px;fill:#6e6e70;width:183px;text-overflow:clip;" text-anchor="end" transform="translate(0,0)" y="103.8" opacity="1">10%</text></g><g class="highcharts-tooltip"  style="cursor:default;padding:0;white-space:nowrap;" transform="translate(0,-9999)"><path fill="none" d="M 3 0 L 13 0 C 16 0 16 0 16 3 L 16 13 C 16 16 16 16 13 16 L 3 16 C 0 16 0 16 0 13 L 0 3 C 0 0 0 0 3 0"  stroke="black" stroke-opacity="0.0" stroke-width="5" transform="translate(1, 1)"></path><path fill="none" d="M 3 0 L 13 0 C 16 0 16 0 16 3 L 16 13 C 16 16 16 16 13 16 L 3 16 C 0 16 0 16 0 13 L 0 3 C 0 0 0 0 3 0"  stroke="black" stroke-opacity="0.0" stroke-width="3" transform="translate(1, 1)"></path><path fill="none" d="M 3 0 L 13 0 C 16 0 16 0 16 3 L 16 13 C 16 16 16 16 13 16 L 3 16 C 0 16 0 16 0 13 L 0 3 C 0 0 0 0 3 0"  stroke="black" stroke-opacity="0.1" stroke-width="1" transform="translate(1, 1)"></path><path fill="rgb(249, 249, 249)" fill-opacity=" .85" d="M 3 0 L 13 0 C 16 0 16 0 16 3 L 16 13 C 16 16 16 16 13 16 L 3 16 C 0 16 0 16 0 13 L 0 3 C 0 0 0 0 3 0"></path><text x="8"  style="font-size:12px;color:#333333;fill:#333333;" transform="translate(0,20)"></text></g></svg>