<svg version="1.1" style="font-family: signika, serif; font-size: 12px; background-image: url(http://www.highcharts.com/samples/graphics/sand.png); background-attachment: initial; background-origin: initial; background-clip: initial; background-color: initial; background-position: initial initial; background-repeat: initial initial; " xmlns="http://www.w3.org/2000/svg" width="584" height="400" viewBox="0 0 584 400" xmlns:xlink="http://www.w3.org/1999/xlink"><style type="text/css"><![CDATA[@import url(http://fonts.googleapis.com/css?family=Signika:700);]]></style><desc>Created with Highcharts 4.1.4</desc><defs><clipPath id="highcharts-1"><rect x="0" y="0" width="404" height="341"></rect></clipPath></defs><g class="highcharts-grid" ><path fill="none" d="M 212 214.5 L 212 78.1" stroke="#D8D8D8" stroke-width="1"  opacity="1"></path><path fill="none" d="M 212 214.5 L 330.1 146.3" stroke="#D8D8D8" stroke-width="1"  opacity="1"></path><path fill="none" d="M 212 214.5 L 330.1 282.7" stroke="#D8D8D8" stroke-width="1"  opacity="1"></path><path fill="none" d="M 212 214.5 L 212 350.9" stroke="#D8D8D8" stroke-width="1"  opacity="1"></path><path fill="none" d="M 212 214.5 L 93.8 282.7" stroke="#D8D8D8" stroke-width="1"  opacity="1"></path><path fill="none" d="M 212 214.5 L 93.8 146.3" stroke="#D8D8D8" stroke-width="1"  opacity="1"></path><path fill="none" d="M 212 214.5 L 211.9 78.1" stroke="#D8D8D8" stroke-width="1"  opacity="1"></path></g><g class="highcharts-grid" ><path fill="none" d="M 212 214.5 L 212 214.5 L 212 214.5 L 212 214.5 L 212 214.5 L 212 214.5 L 212 214.5 L 212 214.5" stroke="#D8D8D8" stroke-width="1"  opacity="1"></path><path fill="none" d="M 212 169.0 L 212 169.0 L 172.6 191.7 L 172.6 237.2 L 212 259.9 L 251.3 237.2 L 251.3 191.7 L 212 169.0" stroke="#D8D8D8" stroke-width="1"  opacity="1"></path><path fill="none" d="M 212 123.5 L 211.9 123.5 L 133.2 169.0 L 133.2 259.9 L 212 305.4 L 290.7 259.9 L 290.7 169.0 L 212 123.5" stroke="#D8D8D8" stroke-width="1"  opacity="1"></path><path fill="none" d="M 212 78.1 L 211.9 78.1 L 93.8 146.3 L 93.8 282.7 L 212 350.9 L 330.1 282.7 L 330.1 146.3 L 212 78.1" stroke="#D8D8D8" stroke-width="1"  opacity="1"></path></g><g class="highcharts-axis" ></g><g class="highcharts-axis" ></g><g class="highcharts-series-group" ><g class="highcharts-series" visibility="visible"  transform="translate(10,44) scale(1 1)" clip-path="url(#highcharts-1)"><path fill="none" d="M 202 92.2 L 231.9 153.2 L 296.5 225.0 L 202 234.1 L 175.2 185.9 L 186.2 161.4 L 202 92.2" stroke="black" stroke-width="5"  stroke-linejoin="round" stroke-linecap="round"  stroke-opacity="0.0" transform="translate(1, 1)"></path><path fill="none" d="M 202 92.2 L 231.9 153.2 L 296.5 225.0 L 202 234.1 L 175.2 185.9 L 186.2 161.4 L 202 92.2" stroke="black" stroke-width="3"  stroke-linejoin="round" stroke-linecap="round"  stroke-opacity="0.0" transform="translate(1, 1)"></path><path fill="none" d="M 202 92.2 L 231.9 153.2 L 296.5 225.0 L 202 234.1 L 175.2 185.9 L 186.2 161.4 L 202 92.2" stroke="black" stroke-width="1"  stroke-linejoin="round" stroke-linecap="round"  stroke-opacity="0.1" transform="translate(1, 1)"></path><path fill="none" d="M 202 92.2 L 231.9 153.2 L 296.5 225.0 L 202 234.1 L 175.2 185.9 L 186.2 161.4 L 202 92.2" stroke="#f45b5b" stroke-width="2"  stroke-linejoin="round" stroke-linecap="round"></path><path fill="none" d="M 192 92.2 L 202 92.2 L 231.9 153.2 L 296.5 225.0 L 202 234.1 L 175.2 185.9 L 186.2 161.4 L 202 92.2 L 212 92.2" stroke-linejoin="round" visibility="visible" stroke="rgb(192,192,192)" stroke-opacity="0.0" stroke-width="22"  class=" highcharts-tracker" style=""></path></g><g class="highcharts-markers highcharts-tracker" visibility="visible"  transform="translate(10,44) scale(1 1)" style=""><path fill="#f45b5b" d="M 186 157.4 C 191.3 157.4 191.3 165.4 186 165.4 C 180.6 165.4 180.6 157.4 186 157.4 Z"></path><path fill="#f45b5b" d="M 175 181.9 C 180.3 181.9 180.3 189.9 175 189.9 C 169.6 189.9 169.6 181.9 175 181.9 Z"></path><path fill="#f45b5b" d="M 202 230.1 C 207.3 230.1 207.3 238.1 202 238.1 C 196.6 238.1 196.6 230.1 202 230.1 Z"></path><path fill="#f45b5b" d="M 296 221.0 C 301.3 221.0 301.3 229.0 296 229.0 C 290.6 229.0 290.6 221.0 296 221.0 Z"></path><path fill="#f45b5b" d="M 231 149.2 C 236.3 149.2 236.3 157.2 231 157.2 C 225.6 157.2 225.6 149.2 231 149.2 Z"></path><path fill="#f45b5b" d="M 202 88.2 C 207.3 88.2 207.3 96.2 202 96.2 C 196.6 96.2 196.6 88.2 202 88.2 Z"></path></g><g class="highcharts-series" visibility="visible"  transform="translate(10,44) scale(1 1)" clip-path="url(#highcharts-1)"><path fill="none" d="M 202 79.5 L 263.4 135.0 L 268.1 208.6 L 202 226.8 L 161.0 194.1 L 179.9 157.7 L 202 79.5" stroke="black" stroke-width="5"  stroke-linejoin="round" stroke-linecap="round"  stroke-opacity="0.0" transform="translate(1, 1)"></path><path fill="none" d="M 202 79.5 L 263.4 135.0 L 268.1 208.6 L 202 226.8 L 161.0 194.1 L 179.9 157.7 L 202 79.5" stroke="black" stroke-width="3"  stroke-linejoin="round" stroke-linecap="round"  stroke-opacity="0.0" transform="translate(1, 1)"></path><path fill="none" d="M 202 79.5 L 263.4 135.0 L 268.1 208.6 L 202 226.8 L 161.0 194.1 L 179.9 157.7 L 202 79.5" stroke="black" stroke-width="1"  stroke-linejoin="round" stroke-linecap="round"  stroke-opacity="0.1" transform="translate(1, 1)"></path><path fill="none" d="M 202 79.5 L 263.4 135.0 L 268.1 208.6 L 202 226.8 L 161.0 194.1 L 179.9 157.7 L 202 79.5" stroke="#8085e9" stroke-width="2"  stroke-linejoin="round" stroke-linecap="round"></path><path fill="none" d="M 192 79.5 L 202 79.5 L 263.4 135.0 L 268.1 208.6 L 202 226.8 L 161.0 194.1 L 179.9 157.7 L 202 79.5 L 212 79.5" stroke-linejoin="round" visibility="visible" stroke="rgb(192,192,192)" stroke-opacity="0.0" stroke-width="22"  class=" highcharts-tracker" style=""></path></g><g class="highcharts-markers highcharts-tracker" visibility="visible"  transform="translate(10,44) scale(1 1)" style=""><path fill="#8085e9" d="M 179 153.7 L 183 157.7 179 161.7 175 157.7 Z"></path><path fill="#8085e9" d="M 161 190.1 L 165 194.1 161 198.1 157 194.1 Z"></path><path fill="#8085e9" d="M 202 222.8 L 206 226.8 202 230.8 198 226.8 Z"></path><path fill="#8085e9" d="M 268 204.6 L 272 208.6 268 212.6 264 208.6 Z"></path><path fill="#8085e9" d="M 263 131.0 L 267 135.0 263 139.0 259 135.0 Z"></path><path fill="#8085e9" d="M 202 75.5 L 206 79.5 202 83.5 198 79.5 Z"></path></g></g><text x="212" text-anchor="middle" class="highcharts-title"  style="color:black;font-size:16px;font-weight:bold;fill:black;width:520px;" y="22"><tspan>Budget vs spending</tspan></text><g class="highcharts-legend"  transform="translate(426,80)"><g ><g><g class="highcharts-legend-item"  transform="translate(8,3)"><path fill="none" d="M 0 12 L 16 12" stroke="#f45b5b" stroke-width="2"></path><path fill="#f45b5b" d="M 8 8 C 13.3 8 13.3 16 8 16 C 2.6 16 2.6 8 8 8 Z"></path><text x="21" style="color:#333333;font-size:13px;font-weight:bold;cursor:pointer;fill:#333333;" text-anchor="start"  y="16"><tspan>Allocated Budget</tspan></text></g><g class="highcharts-legend-item"  transform="translate(8,19)"><path fill="none" d="M 0 12 L 16 12" stroke="#8085e9" stroke-width="2"></path><path fill="#8085e9" d="M 8 8 L 12 12 8 16 4 12 Z"></path><text x="21" y="16" style="color:#333333;font-size:13px;font-weight:bold;cursor:pointer;fill:#333333;" text-anchor="start" ><tspan>Actual Spending</tspan></text></g></g></g></g><g class="highcharts-axis-labels highcharts-xaxis-labels" ><text x="212" style="color:#6e6e70;cursor:default;font-size:11px;fill:#6e6e70;width:48px;text-overflow:clip;" text-anchor="middle" transform="translate(0,0)" y="67.6" opacity="1">Sales</text><text x="343.1" style="color:#6e6e70;cursor:default;font-size:11px;fill:#6e6e70;width:48px;text-overflow:clip;" text-anchor="start" transform="translate(0,0)" y="143.3" opacity="1">Marketing</text><text x="343.1" style="color:#6e6e70;cursor:default;font-size:11px;fill:#6e6e70;width:48px;text-overflow:clip;" text-anchor="start" transform="translate(0,0)" y="294.7" opacity="1">Development</text><text x="212" style="color:#6e6e70;cursor:default;font-size:11px;fill:#6e6e70;width:48px;text-overflow:clip;" text-anchor="middle" transform="translate(0,0)" y="363.4" opacity="1"><tspan>Customer</tspan><tspan dy="14" x="212">Support</tspan><title>Customer Support</title></text><text x="80.8" style="color:#6e6e70;cursor:default;font-size:11px;fill:#6e6e70;width:48px;text-overflow:clip;" text-anchor="end" transform="translate(0,0)" y="287.7" opacity="1"><tspan>Information</tspan><tspan dy="14" x="80.8">Technology</tspan><title>Information Technology</title></text><text x="80.8" style="color:#6e6e70;cursor:default;font-size:11px;fill:#6e6e70;width:48px;text-overflow:clip;" text-anchor="end" transform="translate(0,0)" y="143.3" opacity="1">Administration</text><text x="0" style="color:#6e6e70;cursor:default;font-size:11px;fill:#6e6e70;width:48px;text-overflow:clip;" text-anchor="middle" transform="translate(0,0)" y="-9999">6</text></g><g class="highcharts-axis-labels highcharts-yaxis-labels" ><text x="209" style="color:#6e6e70;cursor:default;font-size:11px;fill:#6e6e70;width:183px;text-overflow:clip;" text-anchor="end" transform="translate(0,0)" y="212.5" opacity="1">0k</text><text x="209" style="color:#6e6e70;cursor:default;font-size:11px;fill:#6e6e70;width:183px;text-overflow:clip;" text-anchor="end" transform="translate(0,0)" y="167.0" opacity="1">25k</text><text x="209" style="color:#6e6e70;cursor:default;font-size:11px;fill:#6e6e70;width:183px;text-overflow:clip;" text-anchor="end" transform="translate(0,0)" y="121.5" opacity="1">50k</text><text x="0" style="color:#6e6e70;cursor:default;font-size:11px;fill:#6e6e70;width:183px;text-overflow:clip;" text-anchor="end" transform="translate(0,0)" y="-9999">75k</text></g><g class="highcharts-tooltip"  style="cursor:default;padding:0;white-space:nowrap;" transform="translate(0,-9999)"><path fill="none" d="M 3 0 L 13 0 C 16 0 16 0 16 3 L 16 13 C 16 16 16 16 13 16 L 3 16 C 0 16 0 16 0 13 L 0 3 C 0 0 0 0 3 0"  stroke="black" stroke-opacity="0.0" stroke-width="5" transform="translate(1, 1)"></path><path fill="none" d="M 3 0 L 13 0 C 16 0 16 0 16 3 L 16 13 C 16 16 16 16 13 16 L 3 16 C 0 16 0 16 0 13 L 0 3 C 0 0 0 0 3 0"  stroke="black" stroke-opacity="0.0" stroke-width="3" transform="translate(1, 1)"></path><path fill="none" d="M 3 0 L 13 0 C 16 0 16 0 16 3 L 16 13 C 16 16 16 16 13 16 L 3 16 C 0 16 0 16 0 13 L 0 3 C 0 0 0 0 3 0"  stroke="black" stroke-opacity="0.1" stroke-width="1" transform="translate(1, 1)"></path><path fill="rgb(249, 249, 249)" fill-opacity=" .85" d="M 3 0 L 13 0 C 16 0 16 0 16 3 L 16 13 C 16 16 16 16 13 16 L 3 16 C 0 16 0 16 0 13 L 0 3 C 0 0 0 0 3 0"></path><text x="8"  style="font-size:12px;color:#333333;fill:#333333;" transform="translate(0,20)"></text></g></svg>