<svg version="1.1" style="font-family: signika, serif; font-size: 12px; background-image: url(http://www.highcharts.com/samples/graphics/sand.png); background-attachment: initial; background-origin: initial; background-clip: initial; background-color: initial; background-position: initial initial; background-repeat: initial initial; " xmlns="http://www.w3.org/2000/svg" width="400" height="400" viewBox="0 0 400 400" xmlns:xlink="http://www.w3.org/1999/xlink"><style type="text/css"><![CDATA[@import url(http://fonts.googleapis.com/css?family=Signika:700);]]></style><desc>Created with Highcharts 4.1.4</desc><defs><clipPath id="highcharts-1"><rect x="0" y="0" width="380" height="302"></rect></clipPath></defs><g class="highcharts-grid" ><path fill="none" d="M 200 195 L 200 66.6" stroke="#D8D8D8" stroke-width="1"  opacity="1"></path><path fill="none" d="M 200 195 L 290.7 104.2" stroke="#D8D8D8" stroke-width="1"  opacity="1"></path><path fill="none" d="M 200 195 L 328.3 195" stroke="#D8D8D8" stroke-width="1"  opacity="1"></path><path fill="none" d="M 200 195 L 290.7 285.7" stroke="#D8D8D8" stroke-width="1"  opacity="1"></path><path fill="none" d="M 200 195 L 200 323.3" stroke="#D8D8D8" stroke-width="1"  opacity="1"></path><path fill="none" d="M 200 195 L 109.2 285.7" stroke="#D8D8D8" stroke-width="1"  opacity="1"></path><path fill="none" d="M 200 195 L 71.6 195.0" stroke="#D8D8D8" stroke-width="1"  opacity="1"></path><path fill="none" d="M 200 195 L 109.2 104.2" stroke="#D8D8D8" stroke-width="1"  opacity="1"></path><path fill="none" d="M 200 195 L 199.9 66.6" stroke="#D8D8D8" stroke-width="1"  opacity="1"></path></g><g class="highcharts-grid" ><path fill="none" stroke="#D8D8D8" stroke-width="1" ></path><path fill="none" d="M 200 130.8 A 64.1 64.1 0 1 1 199.9 130.8 M 200 195 A 0 0 0 1 0 200 195 " stroke="#D8D8D8" stroke-width="1"  opacity="1"></path><path fill="none" d="M 200 66.6 A 128.3 128.3 0 1 1 199.8 66.6 M 200 195 A 0 0 0 1 0 200 195 " stroke="#D8D8D8" stroke-width="1"  opacity="1"></path></g><g class="highcharts-axis" ><path fill="none" d="M 200 66.6 A 128.3 128.3 0 1 1 199.8 66.6 M 200 195 A 0 0 0 1 0 200 195 " stroke="#C0D0E0" stroke-width="1"  visibility="visible"></path></g><g class="highcharts-axis" ></g><g class="highcharts-series-group" ><g class="highcharts-series highcharts-tracker" visibility="visible"  transform="translate(10,44) scale(1 1)" style="" clip-path="url(#highcharts-1)"><path fill="none" d="M 190 48.3 A 102.6 102.6 0 0 1 262.5 78.3 L 190 151 A 0 0 0 0 0 190 151 Z" r="0"  stroke="black" stroke-opacity="0.0" stroke-width="5" transform="translate(1, 1)"></path><path fill="none" d="M 190 48.3 A 102.6 102.6 0 0 1 262.5 78.3 L 190 151 A 0 0 0 0 0 190 151 Z" r="0"  stroke="black" stroke-opacity="0.0" stroke-width="3" transform="translate(1, 1)"></path><path fill="none" d="M 190 48.3 A 102.6 102.6 0 0 1 262.5 78.3 L 190 151 A 0 0 0 0 0 190 151 Z" r="0"  stroke="black" stroke-opacity="0.1" stroke-width="1" transform="translate(1, 1)"></path><path fill="#f45b5b" d="M 190 48.3 A 102.6 102.6 0 0 1 262.5 78.3 L 190 151 A 0 0 0 0 0 190 151 Z" r="0"></path><path fill="none" d="M 253.5 87.4 A 89.8 89.8 0 0 1 279.8 150.9 L 190 151 A 0 0 0 0 0 190 151 Z" r="0"  stroke="black" stroke-opacity="0.0" stroke-width="5" transform="translate(1, 1)"></path><path fill="none" d="M 253.5 87.4 A 89.8 89.8 0 0 1 279.8 150.9 L 190 151 A 0 0 0 0 0 190 151 Z" r="0"  stroke="black" stroke-opacity="0.0" stroke-width="3" transform="translate(1, 1)"></path><path fill="none" d="M 253.5 87.4 A 89.8 89.8 0 0 1 279.8 150.9 L 190 151 A 0 0 0 0 0 190 151 Z" r="0"  stroke="black" stroke-opacity="0.1" stroke-width="1" transform="translate(1, 1)"></path><path fill="#f45b5b" d="M 253.5 87.4 A 89.8 89.8 0 0 1 279.8 150.9 L 190 151 A 0 0 0 0 0 190 151 Z" r="0"></path><path fill="none" d="M 267.0 151 A 77.0 77.0 0 0 1 244.5 205.3 L 190 151 A 0 0 0 0 0 190 151 Z" r="0"  stroke="black" stroke-opacity="0.0" stroke-width="5" transform="translate(1, 1)"></path><path fill="none" d="M 267.0 151 A 77.0 77.0 0 0 1 244.5 205.3 L 190 151 A 0 0 0 0 0 190 151 Z" r="0"  stroke="black" stroke-opacity="0.0" stroke-width="3" transform="translate(1, 1)"></path><path fill="none" d="M 267.0 151 A 77.0 77.0 0 0 1 244.5 205.3 L 190 151 A 0 0 0 0 0 190 151 Z" r="0"  stroke="black" stroke-opacity="0.1" stroke-width="1" transform="translate(1, 1)"></path><path fill="#f45b5b" d="M 267.0 151 A 77.0 77.0 0 0 1 244.5 205.3 L 190 151 A 0 0 0 0 0 190 151 Z" r="0"></path><path fill="none" d="M 235.3 196.3 A 64.1 64.1 0 0 1 190.0 215.1 L 190 151 A 0 0 0 0 0 190 151 Z" r="0"  stroke="black" stroke-opacity="0.0" stroke-width="5" transform="translate(1, 1)"></path><path fill="none" d="M 235.3 196.3 A 64.1 64.1 0 0 1 190.0 215.1 L 190 151 A 0 0 0 0 0 190 151 Z" r="0"  stroke="black" stroke-opacity="0.0" stroke-width="3" transform="translate(1, 1)"></path><path fill="none" d="M 235.3 196.3 A 64.1 64.1 0 0 1 190.0 215.1 L 190 151 A 0 0 0 0 0 190 151 Z" r="0"  stroke="black" stroke-opacity="0.1" stroke-width="1" transform="translate(1, 1)"></path><path fill="#f45b5b" d="M 235.3 196.3 A 64.1 64.1 0 0 1 190.0 215.1 L 190 151 A 0 0 0 0 0 190 151 Z" r="0"></path><path fill="none" d="M 190 202.3 A 51.3 51.3 0 0 1 153.7 187.3 L 190 151 A 0 0 0 0 0 190 151 Z" r="0"  stroke="black" stroke-opacity="0.0" stroke-width="5" transform="translate(1, 1)"></path><path fill="none" d="M 190 202.3 A 51.3 51.3 0 0 1 153.7 187.3 L 190 151 A 0 0 0 0 0 190 151 Z" r="0"  stroke="black" stroke-opacity="0.0" stroke-width="3" transform="translate(1, 1)"></path><path fill="none" d="M 190 202.3 A 51.3 51.3 0 0 1 153.7 187.3 L 190 151 A 0 0 0 0 0 190 151 Z" r="0"  stroke="black" stroke-opacity="0.1" stroke-width="1" transform="translate(1, 1)"></path><path fill="#f45b5b" d="M 190 202.3 A 51.3 51.3 0 0 1 153.7 187.3 L 190 151 A 0 0 0 0 0 190 151 Z" r="0"></path><path fill="none" d="M 162.7 178.2 A 38.5 38.5 0 0 1 151.4 151.0 L 190 151 A 0 0 0 0 0 190 151 Z" r="0"  stroke="black" stroke-opacity="0.0" stroke-width="5" transform="translate(1, 1)"></path><path fill="none" d="M 162.7 178.2 A 38.5 38.5 0 0 1 151.4 151.0 L 190 151 A 0 0 0 0 0 190 151 Z" r="0"  stroke="black" stroke-opacity="0.0" stroke-width="3" transform="translate(1, 1)"></path><path fill="none" d="M 162.7 178.2 A 38.5 38.5 0 0 1 151.4 151.0 L 190 151 A 0 0 0 0 0 190 151 Z" r="0"  stroke="black" stroke-opacity="0.1" stroke-width="1" transform="translate(1, 1)"></path><path fill="#f45b5b" d="M 162.7 178.2 A 38.5 38.5 0 0 1 151.4 151.0 L 190 151 A 0 0 0 0 0 190 151 Z" r="0"></path><path fill="none" d="M 164.3 151 A 25.6 25.6 0 0 1 171.8 132.8 L 190 151 A 0 0 0 0 0 190 151 Z" r="0"  stroke="black" stroke-opacity="0.0" stroke-width="5" transform="translate(1, 1)"></path><path fill="none" d="M 164.3 151 A 25.6 25.6 0 0 1 171.8 132.8 L 190 151 A 0 0 0 0 0 190 151 Z" r="0"  stroke="black" stroke-opacity="0.0" stroke-width="3" transform="translate(1, 1)"></path><path fill="none" d="M 164.3 151 A 25.6 25.6 0 0 1 171.8 132.8 L 190 151 A 0 0 0 0 0 190 151 Z" r="0"  stroke="black" stroke-opacity="0.1" stroke-width="1" transform="translate(1, 1)"></path><path fill="#f45b5b" d="M 164.3 151 A 25.6 25.6 0 0 1 171.8 132.8 L 190 151 A 0 0 0 0 0 190 151 Z" r="0"></path><path fill="none" d="M 180.9 141.9 A 12.8 12.8 0 0 1 189.9 138.1 L 190 151 A 0 0 0 0 0 190 151 Z" r="0"  stroke="black" stroke-opacity="0.0" stroke-width="5" transform="translate(1, 1)"></path><path fill="none" d="M 180.9 141.9 A 12.8 12.8 0 0 1 189.9 138.1 L 190 151 A 0 0 0 0 0 190 151 Z" r="0"  stroke="black" stroke-opacity="0.0" stroke-width="3" transform="translate(1, 1)"></path><path fill="none" d="M 180.9 141.9 A 12.8 12.8 0 0 1 189.9 138.1 L 190 151 A 0 0 0 0 0 190 151 Z" r="0"  stroke="black" stroke-opacity="0.1" stroke-width="1" transform="translate(1, 1)"></path><path fill="#f45b5b" d="M 180.9 141.9 A 12.8 12.8 0 0 1 189.9 138.1 L 190 151 A 0 0 0 0 0 190 151 Z" r="0"></path></g><g class="highcharts-markers" visibility="visible"  transform="translate(10,44) scale(1 1)"></g><g class="highcharts-series" visibility="visible"  transform="translate(10,44) scale(1 1)" clip-path="url(#highcharts-1)"><path fill="none" d="M 190 138.1 L 208.1 132.8 L 228.5 151 L 226.3 187.3 L 190 215.1 L 135.5 205.4 L 100.1 151 L 117.3 78.3 L 190 138.1" stroke="black" stroke-width="5"  stroke-linejoin="round" stroke-linecap="round"  stroke-opacity="0.0" transform="translate(1, 1)"></path><path fill="none" d="M 190 138.1 L 208.1 132.8 L 228.5 151 L 226.3 187.3 L 190 215.1 L 135.5 205.4 L 100.1 151 L 117.3 78.3 L 190 138.1" stroke="black" stroke-width="3"  stroke-linejoin="round" stroke-linecap="round"  stroke-opacity="0.0" transform="translate(1, 1)"></path><path fill="none" d="M 190 138.1 L 208.1 132.8 L 228.5 151 L 226.3 187.3 L 190 215.1 L 135.5 205.4 L 100.1 151 L 117.3 78.3 L 190 138.1" stroke="black" stroke-width="1"  stroke-linejoin="round" stroke-linecap="round"  stroke-opacity="0.1" transform="translate(1, 1)"></path><path fill="none" d="M 190 138.1 L 208.1 132.8 L 228.5 151 L 226.3 187.3 L 190 215.1 L 135.5 205.4 L 100.1 151 L 117.3 78.3 L 190 138.1" stroke="#8085e9" stroke-width="2"  stroke-linejoin="round" stroke-linecap="round"></path><path fill="none" d="M 180 138.1 L 190 138.1 L 208.1 132.8 L 228.5 151 L 226.3 187.3 L 190 215.1 L 135.5 205.4 L 100.1 151 L 117.3 78.3 L 190 138.1 L 200 138.1" stroke-linejoin="round" visibility="visible" stroke="rgb(192,192,192)" stroke-opacity="0.0" stroke-width="22"  class=" highcharts-tracker" style=""></path></g><g class="highcharts-markers highcharts-tracker" visibility="visible"  transform="translate(10,44) scale(1 1)" style=""><path fill="#8085e9" d="M 117 74.3 C 122.3 74.3 122.3 82.3 117 82.3 C 111.6 82.3 111.6 74.3 117 74.3 Z"></path><path fill="#8085e9" d="M 100 147 C 105.3 147 105.3 155 100 155 C 94.6 155 94.6 147 100 147 Z"></path><path fill="#8085e9" d="M 135 201.4 C 140.3 201.4 140.3 209.4 135 209.4 C 129.6 209.4 129.6 201.4 135 201.4 Z"></path><path fill="#8085e9" d="M 190 211.1 C 195.3 211.1 195.3 219.1 190 219.1 C 184.6 219.1 184.6 211.1 190 211.1 Z"></path><path fill="#8085e9" d="M 226 183.3 C 231.3 183.3 231.3 191.3 226 191.3 C 220.6 191.3 220.6 183.3 226 183.3 Z"></path><path fill="#8085e9" d="M 228 147 C 233.3 147 233.3 155 228 155 C 222.6 155 222.6 147 228 147 Z"></path><path fill="#8085e9" d="M 208 128.8 C 213.3 128.8 213.3 136.8 208 136.8 C 202.6 136.8 202.6 128.8 208 128.8 Z"></path><path fill="#8085e9" d="M 190 134.1 C 195.3 134.1 195.3 142.1 190 142.1 C 184.6 142.1 184.6 134.1 190 134.1 Z"></path></g><g class="highcharts-series" visibility="visible"  transform="translate(10,44) scale(1 1)" clip-path="url(#highcharts-1)"><path fill="rgb(141,70,84)" fill-opacity="0.7" d="M 190 138.1 L 262.6 78.3 L 215.6 151 L 253.5 214.5 L 190 189.5 L 135.5 205.4 L 138.6 151 L 144.6 105.6 L 190 138.1 L 190 151" ></path><path fill="none" d="M 190 138.1 L 262.6 78.3 L 215.6 151 L 253.5 214.5 L 190 189.5 L 135.5 205.4 L 138.6 151 L 144.6 105.6 L 190 138.1" stroke="black" stroke-width="5"  stroke-linejoin="round" stroke-linecap="round"  stroke-opacity="0.0" transform="translate(1, 1)"></path><path fill="none" d="M 190 138.1 L 262.6 78.3 L 215.6 151 L 253.5 214.5 L 190 189.5 L 135.5 205.4 L 138.6 151 L 144.6 105.6 L 190 138.1" stroke="black" stroke-width="3"  stroke-linejoin="round" stroke-linecap="round"  stroke-opacity="0.0" transform="translate(1, 1)"></path><path fill="none" d="M 190 138.1 L 262.6 78.3 L 215.6 151 L 253.5 214.5 L 190 189.5 L 135.5 205.4 L 138.6 151 L 144.6 105.6 L 190 138.1" stroke="black" stroke-width="1"  stroke-linejoin="round" stroke-linecap="round"  stroke-opacity="0.1" transform="translate(1, 1)"></path><path fill="none" d="M 190 138.1 L 262.6 78.3 L 215.6 151 L 253.5 214.5 L 190 189.5 L 135.5 205.4 L 138.6 151 L 144.6 105.6 L 190 138.1" stroke="#8d4654" stroke-width="2"  stroke-linejoin="round" stroke-linecap="round"></path><path fill="none" d="M 180 138.1 L 190 138.1 L 262.6 78.3 L 215.6 151 L 253.5 214.5 L 190 189.5 L 135.5 205.4 L 138.6 151 L 144.6 105.6 L 190 138.1 L 200 138.1" stroke-linejoin="round" visibility="visible" stroke="rgb(192,192,192)" stroke-opacity="0.0" stroke-width="22"  class=" highcharts-tracker" style=""></path></g><g class="highcharts-markers highcharts-tracker" visibility="visible"  transform="translate(10,44) scale(1 1)" style=""><path fill="#8d4654" d="M 144 101.6 L 148 105.6 144 109.6 140 105.6 Z"></path><path fill="#8d4654" d="M 138 147 L 142 151 138 155 134 151 Z"></path><path fill="#8d4654" d="M 135 201.4 L 139 205.4 135 209.4 131 205.4 Z"></path><path fill="#8d4654" d="M 190 185.5 L 194 189.5 190 193.5 186 189.5 Z"></path><path fill="#8d4654" d="M 253 210.5 L 257 214.5 253 218.5 249 214.5 Z"></path><path fill="#8d4654" d="M 215 147 L 219 151 215 155 211 151 Z"></path><path fill="#8d4654" d="M 262 74.3 L 266 78.3 262 82.3 258 78.3 Z"></path><path fill="#8d4654" d="M 190 134.1 L 194 138.1 190 142.1 186 138.1 Z"></path></g></g><text x="200" text-anchor="middle" class="highcharts-title"  style="color:black;font-size:16px;font-weight:bold;fill:black;width:336px;" y="22"><tspan>Highcharts Polar Chart</tspan></text><g class="highcharts-legend"  transform="translate(89,358)"><g ><g><g class="highcharts-legend-item"  transform="translate(8,3)"><text x="21" style="color:#333333;font-size:13px;font-weight:bold;cursor:pointer;fill:#333333;" text-anchor="start"  y="16">Column</text><rect x="0" y="5" width="16" height="12"  fill="#f45b5b"></rect></g><g class="highcharts-legend-item"  transform="translate(95,3)"><path fill="none" d="M 0 12 L 16 12" stroke="#8085e9" stroke-width="2"></path><path fill="#8085e9" d="M 8 8 C 13.3 8 13.3 16 8 16 C 2.6 16 2.6 8 8 8 Z"></path><text x="21" y="16" style="color:#333333;font-size:13px;font-weight:bold;cursor:pointer;fill:#333333;" text-anchor="start" >Line</text></g><g class="highcharts-legend-item"  transform="translate(162,3)"><text x="21" y="16" style="color:#333333;font-size:13px;font-weight:bold;cursor:pointer;fill:#333333;" text-anchor="start" >Area</text><rect x="0" y="5" width="16" height="12"  fill="#8d4654"></rect></g></g></g></g><g class="highcharts-axis-labels highcharts-xaxis-labels" ><text x="200" style="color:#6e6e70;cursor:default;font-size:11px;fill:#6e6e70;width:32px;text-overflow:clip;" text-anchor="middle" transform="translate(0,0)" y="56.1" opacity="1">0°</text><text x="301.3" style="color:#6e6e70;cursor:default;font-size:11px;fill:#6e6e70;width:32px;text-overflow:clip;" text-anchor="start" transform="translate(0,0)" y="98.1" opacity="1">45°</text><text x="343.3" style="color:#6e6e70;cursor:default;font-size:11px;fill:#6e6e70;width:32px;text-overflow:clip;" text-anchor="start" transform="translate(0,0)" y="199.5" opacity="1">90°</text><text x="301.3" style="color:#6e6e70;cursor:default;font-size:11px;fill:#6e6e70;width:32px;text-overflow:clip;" text-anchor="start" transform="translate(0,0)" y="300.8" opacity="1">135°</text><text x="200" style="color:#6e6e70;cursor:default;font-size:11px;fill:#6e6e70;width:32px;text-overflow:clip;" text-anchor="middle" transform="translate(0,0)" y="342.8" opacity="1">180°</text><text x="98.6" style="color:#6e6e70;cursor:default;font-size:11px;fill:#6e6e70;width:32px;text-overflow:clip;" text-anchor="end" transform="translate(0,0)" y="300.8" opacity="1">225°</text><text x="56.6" style="color:#6e6e70;cursor:default;font-size:11px;fill:#6e6e70;width:32px;text-overflow:clip;" text-anchor="end" transform="translate(0,0)" y="199.5" opacity="1">270°</text><text x="98.6" style="color:#6e6e70;cursor:default;font-size:11px;fill:#6e6e70;width:32px;text-overflow:clip;" text-anchor="end" transform="translate(0,0)" y="98.1" opacity="1">315°</text><text x="0" style="color:#6e6e70;cursor:default;font-size:11px;fill:#6e6e70;width:32px;text-overflow:clip;" text-anchor="middle" transform="translate(0,0)" y="-9999">360°</text></g><g class="highcharts-axis-labels highcharts-yaxis-labels" ><text x="197" style="color:#6e6e70;cursor:default;font-size:11px;fill:#6e6e70;width:122px;text-overflow:clip;" text-anchor="end" transform="translate(0,0)" y="193" opacity="1">0</text><text x="197" style="color:#6e6e70;cursor:default;font-size:11px;fill:#6e6e70;width:122px;text-overflow:clip;" text-anchor="end" transform="translate(0,0)" y="128.8" opacity="1">5</text><text x="0" style="color:#6e6e70;cursor:default;font-size:11px;fill:#6e6e70;width:122px;text-overflow:clip;" text-anchor="end" transform="translate(0,0)" y="-9999">10</text></g><g class="highcharts-tooltip"  style="cursor:default;padding:0;white-space:nowrap;" transform="translate(0,-9999)"><path fill="none" d="M 3 0 L 13 0 C 16 0 16 0 16 3 L 16 13 C 16 16 16 16 13 16 L 3 16 C 0 16 0 16 0 13 L 0 3 C 0 0 0 0 3 0"  stroke="black" stroke-opacity="0.0" stroke-width="5" transform="translate(1, 1)"></path><path fill="none" d="M 3 0 L 13 0 C 16 0 16 0 16 3 L 16 13 C 16 16 16 16 13 16 L 3 16 C 0 16 0 16 0 13 L 0 3 C 0 0 0 0 3 0"  stroke="black" stroke-opacity="0.0" stroke-width="3" transform="translate(1, 1)"></path><path fill="none" d="M 3 0 L 13 0 C 16 0 16 0 16 3 L 16 13 C 16 16 16 16 13 16 L 3 16 C 0 16 0 16 0 13 L 0 3 C 0 0 0 0 3 0"  stroke="black" stroke-opacity="0.1" stroke-width="1" transform="translate(1, 1)"></path><path fill="rgb(249, 249, 249)" fill-opacity=" .85" d="M 3 0 L 13 0 C 16 0 16 0 16 3 L 16 13 C 16 16 16 16 13 16 L 3 16 C 0 16 0 16 0 13 L 0 3 C 0 0 0 0 3 0"></path><text x="8"  style="font-size:12px;color:#333333;fill:#333333;" transform="translate(0,20)"></text></g></svg>