<svg version="1.1" style="font-family: signika, serif; font-size: 12px; background-image: url(http://www.highcharts.com/samples/graphics/sand.png); background-attachment: initial; background-origin: initial; background-clip: initial; background-color: initial; background-position: initial initial; background-repeat: initial initial; " xmlns="http://www.w3.org/2000/svg" width="584" height="400" viewBox="0 0 584 400" xmlns:xlink="http://www.w3.org/1999/xlink"><style type="text/css"><![CDATA[@import url(http://fonts.googleapis.com/css?family=Signika:700);]]></style><desc>Created with Highcharts 4.1.4</desc><defs><clipPath id="highcharts-1"><rect x="0" y="0" width="372" height="287"></rect></clipPath><clipPath id="highcharts-2"><rect x="-99" y="-58" width="471" height="400"></rect></clipPath><clipPath id="highcharts-3"><rect x="0" y="0" width="372" height="287"></rect></clipPath></defs><g class="highcharts-grid" ><path fill="none" d="M 66.5 58 L 66.5 345" stroke="#D8D8D8" stroke-width="1"  opacity="1"></path><path fill="none" d="M 140.5 58 L 140.5 345" stroke="#D8D8D8" stroke-width="1"  opacity="1"></path><path fill="none" d="M 215.5 58 L 215.5 345" stroke="#D8D8D8" stroke-width="1"  opacity="1"></path><path fill="none" d="M 289.5 58 L 289.5 345" stroke="#D8D8D8" stroke-width="1"  opacity="1"></path><path fill="none" d="M 364.5 58 L 364.5 345" stroke="#D8D8D8" stroke-width="1"  opacity="1"></path><path fill="none" d="M 439.5 58 L 439.5 345" stroke="#D8D8D8" stroke-width="1"  opacity="1"></path></g><g class="highcharts-grid" ><path fill="none" d="M 67 345.5 L 439 345.5" stroke="#D8D8D8" stroke-width="1"  opacity="1"></path><path fill="none" d="M 67 288.5 L 439 288.5" stroke="#D8D8D8" stroke-width="1"  opacity="1"></path><path fill="none" d="M 67 230.5 L 439 230.5" stroke="#D8D8D8" stroke-width="1"  opacity="1"></path><path fill="none" d="M 67 173.5 L 439 173.5" stroke="#D8D8D8" stroke-width="1"  opacity="1"></path><path fill="none" d="M 67 115.5 L 439 115.5" stroke="#D8D8D8" stroke-width="1"  opacity="1"></path><path fill="none" d="M 67 57.5 L 439 57.5" stroke="#D8D8D8" stroke-width="1"  opacity="1"></path></g><g class="highcharts-axis" ><path fill="none" d="M 66.5 345 L 66.5 355" stroke="#C0D0E0" stroke-width="1" opacity="1"></path><path fill="none" d="M 140.5 345 L 140.5 355" stroke="#C0D0E0" stroke-width="1" opacity="1"></path><path fill="none" d="M 215.5 345 L 215.5 355" stroke="#C0D0E0" stroke-width="1" opacity="1"></path><path fill="none" d="M 289.5 345 L 289.5 355" stroke="#C0D0E0" stroke-width="1" opacity="1"></path><path fill="none" d="M 364.5 345 L 364.5 355" stroke="#C0D0E0" stroke-width="1" opacity="1"></path><path fill="none" d="M 439.5 345 L 439.5 355" stroke="#C0D0E0" stroke-width="1" opacity="1"></path><text x="253"  text-anchor="middle" transform="translate(0,0)" class=" highcharts-xaxis-title" style="color:#707070;fill:#707070;" visibility="visible" y="383"><tspan>Height (cm)</tspan></text><path fill="none" d="M 67 345.5 L 439 345.5" stroke="#C0D0E0" stroke-width="1"  visibility="visible"></path></g><g class="highcharts-axis" ><text x="24"  text-anchor="middle" transform="translate(0,0) rotate(270 24 201.5)" class=" highcharts-yaxis-title" style="color:#707070;fill:#707070;" visibility="visible" y="201.5"><tspan>Weight (kg)</tspan></text></g><g class="highcharts-series-group" ><g class="highcharts-series" visibility="visible"  transform="translate(67,58) scale(1 1)" clip-path="url(#highcharts-3)"><path fill="none" d="M 96.7 223.8 L 66.9 212.3 L 66.9 186.5 L 89.2 172.2 L 141.3 143.5 L 223.2 123.4 L 297.6 143.5 L 297.6 172.2 L 245.5 195.1 L 193.4 215.2 z"  stroke-linejoin="round" stroke-linecap="round"  stroke="black" stroke-opacity="0.0" stroke-width="5" transform="translate(1, 1)"></path><path fill="none" d="M 96.7 223.8 L 66.9 212.3 L 66.9 186.5 L 89.2 172.2 L 141.3 143.5 L 223.2 123.4 L 297.6 143.5 L 297.6 172.2 L 245.5 195.1 L 193.4 215.2 z"  stroke-linejoin="round" stroke-linecap="round"  stroke="black" stroke-opacity="0.0" stroke-width="3" transform="translate(1, 1)"></path><path fill="none" d="M 96.7 223.8 L 66.9 212.3 L 66.9 186.5 L 89.2 172.2 L 141.3 143.5 L 223.2 123.4 L 297.6 143.5 L 297.6 172.2 L 245.5 195.1 L 193.4 215.2 z"  stroke-linejoin="round" stroke-linecap="round"  stroke="black" stroke-opacity="0.1" stroke-width="1" transform="translate(1, 1)"></path><path fill="rgb(244,91,91)" fill-opacity="0.5" d="M 96.7 223.8 L 66.9 212.3 L 66.9 186.5 L 89.2 172.2 L 141.3 143.5 L 223.2 123.4 L 297.6 143.5 L 297.6 172.2 L 245.5 195.1 L 193.4 215.2 z"  stroke-linejoin="round" stroke-linecap="round"></path></g><g class="highcharts-markers" visibility="visible"  transform="translate(67,58) scale(1 1)" clip-path="url(#highcharts-2)"></g><g class="highcharts-series highcharts-tracker" visibility="visible"  transform="translate(67,58) scale(1 1)" clip-path="url(#highcharts-3)" style=""></g><g class="highcharts-markers highcharts-tracker" visibility="visible"  transform="translate(67,58) scale(1 1)" clip-path="url(#highcharts-2)" style=""><path fill="#8085e9" d="M 177 147.2 L 181 151.2 177 155.2 173 151.2 Z"></path><path fill="#8085e9" d="M 252 149.8 L 256 153.8 252 157.8 248 153.8 Z"></path><path fill="#8085e9" d="M 154 200.9 L 158 204.9 154 208.9 150 204.9 Z"></path><path fill="#8085e9" d="M 181 181.1 L 185 185.1 181 189.1 177 185.1 Z"></path><path fill="#8085e9" d="M 271 134.3 L 275 138.3 271 142.3 267 138.3 Z"></path><path fill="#8085e9" d="M 130 119.9 L 134 123.9 130 127.9 126 123.9 Z"></path><path fill="#8085e9" d="M 168 164.1 L 172 168.1 168 172.1 164 168.1 Z"></path><path fill="#8085e9" d="M 243 144.6 L 247 148.6 243 152.6 239 148.6 Z"></path><path fill="#8085e9" d="M 148 123.7 L 152 127.7 148 131.7 144 127.7 Z"></path><path fill="#8085e9" d="M 219 147.2 L 223 151.2 219 155.2 215 151.2 Z"></path><path fill="#8085e9" d="M 262 157.8 L 266 161.8 262 165.8 258 161.8 Z"></path><path fill="#8085e9" d="M 148 156.4 L 152 160.4 148 164.4 144 160.4 Z"></path><path fill="#8085e9" d="M 219 175.9 L 223 179.9 219 183.9 215 179.9 Z"></path><path fill="#8085e9" d="M 73 206.0 L 77 210.0 73 214.0 69 210.0 Z"></path><path fill="#8085e9" d="M 120 168.2 L 124 172.2 120 176.2 116 172.2 Z"></path><path fill="#8085e9" d="M 158 165.6 L 162 169.6 158 173.6 154 169.6 Z"></path><path fill="#8085e9" d="M 168 157.8 L 172 161.8 168 165.8 164 161.8 Z"></path><path fill="#8085e9" d="M 252 181.1 L 256 185.1 252 189.1 248 185.1 Z"></path><path fill="#8085e9" d="M 168 164.1 L 172 168.1 168 172.1 164 168.1 Z"></path><path fill="#8085e9" d="M 252 129.1 L 256 133.1 252 137.1 248 133.1 Z"></path><path fill="#8085e9" d="M 148 168.2 L 152 172.2 148 176.2 144 172.2 Z"></path><path fill="#8085e9" d="M 186 186.5 L 190 190.5 186 194.5 182 190.5 Z"></path><path fill="#8085e9" d="M 130 183.9 L 134 187.9 130 191.9 126 187.9 Z"></path><path fill="#8085e9" d="M 233 187.1 L 237 191.1 233 195.1 229 191.1 Z"></path><path fill="#8085e9" d="M 262 157.8 L 266 161.8 262 165.8 258 161.8 Z"></path><path fill="#8085e9" d="M 168 105.6 L 172 109.6 168 113.6 164 109.6 Z"></path><path fill="#8085e9" d="M 110 173.3 L 114 177.3 110 181.3 106 177.3 Z"></path><path fill="#8085e9" d="M 205 164.1 L 209 168.1 205 172.1 201 168.1 Z"></path><path fill="#8085e9" d="M 205 132.8 L 209 136.8 205 140.8 201 136.8 Z"></path><path fill="#8085e9" d="M 205 155.2 L 209 159.2 205 163.2 201 159.2 Z"></path><path fill="#8085e9" d="M 148 109.3 L 152 113.3 148 117.3 144 113.3 Z"></path><path fill="#8085e9" d="M 224 118.5 L 228 122.5 224 126.5 220 122.5 Z"></path><path fill="#8085e9" d="M 252 181.1 L 256 185.1 252 189.1 248 185.1 Z"></path><path fill="#8085e9" d="M 186 41.6 L 190 45.6 186 49.6 182 45.6 Z"></path><path fill="#8085e9" d="M 148 181.4 L 152 185.4 148 189.4 144 185.4 Z"></path><path fill="#8085e9" d="M 261 174.8 L 265 178.8 261 182.8 257 178.8 Z"></path><path fill="#8085e9" d="M 261 161.5 L 265 165.5 261 169.5 257 165.5 Z"></path><path fill="#8085e9" d="M 224 129.1 L 228 133.1 224 137.1 220 133.1 Z"></path><path fill="#8085e9" d="M 215 159.5 L 219 163.5 215 167.5 211 163.5 Z"></path><path fill="#8085e9" d="M 92 147.2 L 96 151.2 92 155.2 88 151.2 Z"></path><path fill="#8085e9" d="M 168 149.8 L 172 153.8 168 157.8 164 153.8 Z"></path><path fill="#8085e9" d="M 186 92.7 L 190 96.7 186 100.7 182 96.7 Z"></path><path fill="#8085e9" d="M 205 160.4 L 209 164.4 205 168.4 201 164.4 Z"></path><path fill="#8085e9" d="M 205 189.1 L 209 193.1 205 197.1 201 193.1 Z"></path><path fill="#8085e9" d="M 158 138.0 L 162 142.0 158 146.0 154 142.0 Z"></path><path fill="#8085e9" d="M 224 170.7 L 228 174.7 224 178.7 220 174.7 Z"></path><path fill="#8085e9" d="M 224 183.9 L 228 187.9 224 191.9 220 187.9 Z"></path><path fill="#8085e9" d="M 224 157.8 L 228 161.8 224 165.8 220 161.8 Z"></path><path fill="#8085e9" d="M 186 165.6 L 190 169.6 186 173.6 182 169.6 Z"></path><path fill="#8085e9" d="M 243 138.0 L 247 142.0 243 146.0 239 142.0 Z"></path><path fill="#8085e9" d="M 186 108.2 L 190 112.2 186 116.2 182 112.2 Z"></path><path fill="#8085e9" d="M 224 146.1 L 228 150.1 224 154.1 220 150.1 Z"></path><path fill="#8085e9" d="M 92 204.6 L 96 208.6 92 212.6 88 208.6 Z"></path><path fill="#8085e9" d="M 168 183.9 L 172 187.9 168 191.9 164 187.9 Z"></path><path fill="#8085e9" d="M 130 157.8 L 134 161.8 130 165.8 126 161.8 Z"></path><path fill="#8085e9" d="M 148 171.0 L 152 175.0 148 179.0 144 175.0 Z"></path><path fill="#8085e9" d="M 154 179.9 L 158 183.9 154 187.9 150 183.9 Z"></path><path fill="#8085e9" d="M 168 183.9 L 172 187.9 168 191.9 164 187.9 Z"></path><path fill="#8085e9" d="M 205 183.9 L 209 187.9 205 191.9 201 187.9 Z"></path><path fill="#8085e9" d="M 168 138.0 L 172 142.0 168 146.0 164 142.0 Z"></path><path fill="#8085e9" d="M 224 182.5 L 228 186.5 224 190.5 220 186.5 Z"></path><path fill="#8085e9" d="M 148 187.1 L 152 191.1 148 195.1 144 191.1 Z"></path><path fill="#8085e9" d="M 144 187.7 L 148 191.7 144 195.7 140 191.7 Z"></path><path fill="#8085e9" d="M 262 157.8 L 266 161.8 262 165.8 258 161.8 Z"></path><path fill="#8085e9" d="M 215 162.4 L 219 166.4 215 170.4 211 166.4 Z"></path><path fill="#8085e9" d="M 271 129.1 L 275 133.1 271 137.1 267 133.1 Z"></path><path fill="#8085e9" d="M 182 159.0 L 186 163.0 182 167.0 178 163.0 Z"></path><path fill="#8085e9" d="M 168 185.7 L 172 189.7 168 193.7 164 189.7 Z"></path><path fill="#8085e9" d="M 215 177.9 L 219 181.9 215 185.9 211 181.9 Z"></path><path fill="#8085e9" d="M 186 160.4 L 190 164.4 186 168.4 182 164.4 Z"></path><path fill="#8085e9" d="M 186 181.9 L 190 185.9 186 189.9 182 185.9 Z"></path><path fill="#8085e9" d="M 205 157.8 L 209 161.8 205 165.8 201 161.8 Z"></path><path fill="#8085e9" d="M 177 172.2 L 181 176.2 177 180.2 173 176.2 Z"></path><path fill="#8085e9" d="M 130 200.9 L 134 204.9 130 208.9 126 204.9 Z"></path><path fill="#8085e9" d="M 262 152.4 L 266 156.4 262 160.4 258 156.4 Z"></path><path fill="#8085e9" d="M 186 152.4 L 190 156.4 186 160.4 182 156.4 Z"></path><path fill="#8085e9" d="M 205 182.5 L 209 186.5 205 190.5 201 186.5 Z"></path><path fill="#8085e9" d="M 158 175.9 L 162 179.9 158 183.9 154 179.9 Z"></path><path fill="#8085e9" d="M 215 182.5 L 219 186.5 215 190.5 211 186.5 Z"></path><path fill="#8085e9" d="M 243 122.5 L 247 126.5 243 130.5 239 126.5 Z"></path><path fill="#8085e9" d="M 139 199.4 L 143 203.4 139 207.4 135 203.4 Z"></path><path fill="#8085e9" d="M 110 185.1 L 114 189.1 110 193.1 106 189.1 Z"></path><path fill="#8085e9" d="M 262 131.7 L 266 135.7 262 139.7 258 135.7 Z"></path><path fill="#8085e9" d="M 186 173.3 L 190 177.3 186 181.3 182 177.3 Z"></path><path fill="#8085e9" d="M 281 168.2 L 285 172.2 281 176.2 277 172.2 Z"></path><path fill="#8085e9" d="M 186 177.3 L 190 181.3 186 185.3 182 181.3 Z"></path><path fill="#8085e9" d="M 196 137.4 L 200 141.4 196 145.4 192 141.4 Z"></path><path fill="#8085e9" d="M 319 105.6 L 323 109.6 319 113.6 315 109.6 Z"></path><path fill="#8085e9" d="M 186 170.7 L 190 174.7 186 178.7 182 174.7 Z"></path><path fill="#8085e9" d="M 148 179.9 L 152 183.9 148 187.9 144 183.9 Z"></path><path fill="#8085e9" d="M 168 172.2 L 172 176.2 168 180.2 164 176.2 Z"></path><path fill="#8085e9" d="M 238 177.9 L 242 181.9 238 185.9 234 181.9 Z"></path><path fill="#8085e9" d="M 261 148.6 L 265 152.6 261 156.6 257 152.6 Z"></path><path fill="#8085e9" d="M 120 172.2 L 124 176.2 120 180.2 116 176.2 Z"></path><path fill="#8085e9" d="M 205 151.2 L 209 155.2 205 159.2 201 155.2 Z"></path><path fill="#8085e9" d="M 168 164.1 L 172 168.1 168 172.1 164 168.1 Z"></path><path fill="#8085e9" d="M 205 121.1 L 209 125.1 205 129.1 201 125.1 Z"></path><path fill="#8085e9" d="M 243 140.9 L 247 144.9 243 148.9 239 144.9 Z"></path><path fill="#8085e9" d="M 139 181.1 L 143 185.1 139 189.1 135 185.1 Z"></path><path fill="#8085e9" d="M 224 179.9 L 228 183.9 224 187.9 220 183.9 Z"></path><path fill="#8085e9" d="M 168 97.8 L 172 101.8 168 105.8 164 101.8 Z"></path><path fill="#8085e9" d="M 224 142.0 L 228 146.0 224 150.0 220 146.0 Z"></path><path fill="#8085e9" d="M 92 167.0 L 96 171.0 92 175.0 88 171.0 Z"></path><path fill="#8085e9" d="M 148 179.9 L 152 183.9 148 187.9 144 183.9 Z"></path><path fill="#8085e9" d="M 196 182.5 L 200 186.5 196 190.5 192 186.5 Z"></path><path fill="#8085e9" d="M 186 132.8 L 190 136.8 186 140.8 182 136.8 Z"></path><path fill="#8085e9" d="M 168 196.8 L 172 200.8 168 204.8 164 200.8 Z"></path><path fill="#8085e9" d="M 186 156.4 L 190 160.4 186 164.4 182 160.4 Z"></path><path fill="#8085e9" d="M 215 177.3 L 219 181.3 215 185.3 211 181.3 Z"></path><path fill="#8085e9" d="M 148 169.6 L 152 173.6 148 177.6 144 173.6 Z"></path><path fill="#8085e9" d="M 168 159.0 L 172 163.0 168 167.0 164 163.0 Z"></path><path fill="#8085e9" d="M 158 157.8 L 162 161.8 158 165.8 154 161.8 Z"></path><path fill="#8085e9" d="M 130 179.6 L 134 183.6 130 187.6 126 183.6 Z"></path><path fill="#8085e9" d="M 142 191.7 L 146 195.7 142 199.7 138 195.7 Z"></path><path fill="#8085e9" d="M 226 155.2 L 230 159.2 226 163.2 222 159.2 Z"></path><path fill="#8085e9" d="M 147 187.7 L 151 191.7 147 195.7 143 191.7 Z"></path><path fill="#8085e9" d="M 248 189.1 L 252 193.1 248 197.1 244 193.1 Z"></path><path fill="#8085e9" d="M 164 170.4 L 168 174.4 164 178.4 160 174.4 Z"></path><path fill="#8085e9" d="M 119 183.6 L 123 187.6 119 191.6 115 187.6 Z"></path><path fill="#8085e9" d="M 205 174.5 L 209 178.5 205 182.5 201 178.5 Z"></path><path fill="#8085e9" d="M 133 181.1 L 137 185.1 133 189.1 129 185.1 Z"></path><path fill="#8085e9" d="M 201 161.8 L 205 165.8 201 169.8 197 165.8 Z"></path><path fill="#8085e9" d="M 148 200.3 L 152 204.3 148 208.3 144 204.3 Z"></path><path fill="#8085e9" d="M 119 155.5 L 123 159.5 119 163.5 115 159.5 Z"></path><path fill="#8085e9" d="M 135 207.2 L 139 211.2 135 215.2 131 211.2 Z"></path><path fill="#8085e9" d="M 215 166.7 L 219 170.7 215 174.7 211 170.7 Z"></path><path fill="#8085e9" d="M 148 216.4 L 152 220.4 148 224.4 144 220.4 Z"></path><path fill="#8085e9" d="M 148 183.1 L 152 187.1 148 191.1 144 187.1 Z"></path><path fill="#8085e9" d="M 200 168.7 L 204 172.7 200 176.7 196 172.7 Z"></path><path fill="#8085e9" d="M 169 173.9 L 173 177.9 169 181.9 165 177.9 Z"></path><path fill="#8085e9" d="M 155 184.2 L 159 188.2 155 192.2 151 188.2 Z"></path><path fill="#8085e9" d="M 178 185.9 L 182 189.9 178 193.9 174 189.9 Z"></path><path fill="#8085e9" d="M 122 147.5 L 126 151.5 122 155.5 118 151.5 Z"></path><path fill="#8085e9" d="M 111 199.1 L 115 203.1 111 207.1 107 203.1 Z"></path><path fill="#8085e9" d="M 243 162.4 L 247 166.4 243 170.4 239 166.4 Z"></path><path fill="#8085e9" d="M 172 178.5 L 176 182.5 172 186.5 168 182.5 Z"></path><path fill="#8085e9" d="M 130 171.6 L 134 175.6 130 179.6 126 175.6 Z"></path><path fill="#8085e9" d="M 70 211.8 L 74 215.8 70 219.8 66 215.8 Z"></path><path fill="#8085e9" d="M 158 167.6 L 162 171.6 158 175.6 154 171.6 Z"></path><path fill="#8085e9" d="M 165 196.3 L 169 200.3 165 204.3 161 200.3 Z"></path><path fill="#8085e9" d="M 172 185.4 L 176 189.4 172 193.4 168 189.4 Z"></path><path fill="#8085e9" d="M 148 211.2 L 152 215.2 148 219.2 144 215.2 Z"></path><path fill="#8085e9" d="M 157 181.9 L 161 185.9 157 189.9 153 185.9 Z"></path><path fill="#8085e9" d="M 205 159.5 L 209 163.5 205 167.5 201 163.5 Z"></path><path fill="#8085e9" d="M 145 203.7 L 149 207.7 145 211.7 141 207.7 Z"></path><path fill="#8085e9" d="M 206 171.0 L 210 175.0 206 179.0 202 175.0 Z"></path><path fill="#8085e9" d="M 218 158.4 L 222 162.4 218 166.4 214 162.4 Z"></path><path fill="#8085e9" d="M 174 191.7 L 178 195.7 174 199.7 170 195.7 Z"></path><path fill="#8085e9" d="M 243 38.4 L 247 42.4 243 46.4 239 42.4 Z"></path><path fill="#8085e9" d="M 199 177.9 L 203 181.9 199 185.9 195 181.9 Z"></path><path fill="#8085e9" d="M 212 153.2 L 216 157.2 212 161.2 208 157.2 Z"></path><path fill="#8085e9" d="M 171 133.7 L 175 137.7 171 141.7 167 137.7 Z"></path><path fill="#8085e9" d="M 180 168.7 L 184 172.7 180 176.7 176 172.7 Z"></path><path fill="#8085e9" d="M 282 137.7 L 286 141.7 282 145.7 278 141.7 Z"></path><path fill="#8085e9" d="M 236 179.1 L 240 183.1 236 187.1 232 183.1 Z"></path><path fill="#8085e9" d="M 247 172.7 L 251 176.7 247 180.7 243 176.7 Z"></path><path fill="#8085e9" d="M 215 142.3 L 219 146.3 215 150.3 211 146.3 Z"></path><path fill="#8085e9" d="M 209 187.1 L 213 191.1 209 195.1 205 191.1 Z"></path><path fill="#8085e9" d="M 82 130.3 L 86 134.3 82 138.3 78 134.3 Z"></path><path fill="#8085e9" d="M 156 186.5 L 160 190.5 156 194.5 152 190.5 Z"></path><path fill="#8085e9" d="M 170 169.9 L 174 173.9 170 177.9 166 173.9 Z"></path><path fill="#8085e9" d="M 296 148.6 L 300 152.6 296 156.6 292 152.6 Z"></path><path fill="#8085e9" d="M 141 180.8 L 145 184.8 141 188.8 137 184.8 Z"></path><path fill="#8085e9" d="M 169 174.5 L 173 178.5 169 182.5 165 178.5 Z"></path><path fill="#8085e9" d="M 141 200.9 L 145 204.9 141 208.9 137 204.9 Z"></path><path fill="#8085e9" d="M 167 190.5 L 171 194.5 167 198.5 163 194.5 Z"></path><path fill="#8085e9" d="M 144 209.2 L 148 213.2 144 217.2 140 213.2 Z"></path><path fill="#8085e9" d="M 194 172.2 L 198 176.2 194 180.2 190 176.2 Z"></path><path fill="#8085e9" d="M 215 173.3 L 219 177.3 215 181.3 211 177.3 Z"></path><path fill="#8085e9" d="M 159 158.4 L 163 162.4 159 166.4 155 162.4 Z"></path><path fill="#8085e9" d="M 223 179.9 L 227 183.9 223 187.9 219 183.9 Z"></path><path fill="#8085e9" d="M 247 141.7 L 251 145.7 247 149.7 243 145.7 Z"></path><path fill="#8085e9" d="M 147 196.8 L 151 200.8 147 204.8 143 200.8 Z"></path><path fill="#8085e9" d="M 107 199.7 L 111 203.7 107 207.7 103 203.7 Z"></path><path fill="#8085e9" d="M 172 168.7 L 176 172.7 172 176.7 168 172.7 Z"></path><path fill="#8085e9" d="M 219 188.8 L 223 192.8 219 196.8 215 192.8 Z"></path><path fill="#8085e9" d="M 179 134.9 L 183 138.9 179 142.9 175 138.9 Z"></path><path fill="#8085e9" d="M 225 154.4 L 229 158.4 225 162.4 221 158.4 Z"></path><path fill="#8085e9" d="M 167 173.3 L 171 177.3 167 181.3 163 177.3 Z"></path><path fill="#8085e9" d="M 223 141.2 L 227 145.2 223 149.2 219 145.2 Z"></path><path fill="#8085e9" d="M 269 147.5 L 273 151.5 269 155.5 265 151.5 Z"></path><path fill="#8085e9" d="M 223 137.7 L 227 141.7 223 145.7 219 141.7 Z"></path><path fill="#8085e9" d="M 111 208.6 L 115 212.6 111 216.6 107 212.6 Z"></path><path fill="#8085e9" d="M 157 183.1 L 161 187.1 157 191.1 153 187.1 Z"></path><path fill="#8085e9" d="M 178 180.5 L 182 184.5 178 188.5 174 184.5 Z"></path><path fill="#8085e9" d="M 215 161.0 L 219 165.0 215 169.0 211 165.0 Z"></path><path fill="#8085e9" d="M 89 170.2 L 93 174.2 89 178.2 85 174.2 Z"></path><path fill="#8085e9" d="M 174 196.8 L 178 200.8 174 204.8 170 200.8 Z"></path><path fill="#8085e9" d="M 182 190.2 L 186 194.2 182 198.2 178 194.2 Z"></path><path fill="#8085e9" d="M 82 200.6 L 86 204.6 82 208.6 78 204.6 Z"></path><path fill="#8085e9" d="M 205 180.5 L 209 184.5 205 188.5 201 184.5 Z"></path><path fill="#8085e9" d="M 243 165.0 L 247 169.0 243 173.0 239 169.0 Z"></path><path fill="#8085e9" d="M 252 123.1 L 256 127.1 252 131.1 248 127.1 Z"></path><path fill="#8085e9" d="M 193 187.7 L 197 191.7 193 195.7 189 191.7 Z"></path><path fill="#8085e9" d="M 163 183.4 L 167 187.4 163 191.4 159 187.4 Z"></path><path fill="#8085e9" d="M 156 110.7 L 160 114.7 156 118.7 152 114.7 Z"></path><path fill="#8085e9" d="M 191 130.6 L 195 134.6 191 138.6 187 134.6 Z"></path><path fill="#8085e9" d="M 171 162.4 L 175 166.4 171 170.4 167 166.4 Z"></path><path fill="#8085e9" d="M 148 127.1 L 152 131.1 148 135.1 144 131.1 Z"></path><path fill="#8085e9" d="M 119 189.1 L 123 193.1 119 197.1 115 193.1 Z"></path><path fill="#8085e9" d="M 182 167.3 L 186 171.3 182 175.3 178 171.3 Z"></path><path fill="#8085e9" d="M 186 162.4 L 190 166.4 186 170.4 182 166.4 Z"></path><path fill="#8085e9" d="M 189 168.2 L 193 172.2 189 176.2 185 172.2 Z"></path><path fill="#8085e9" d="M 299 166.1 L 303 170.1 299 174.1 295 170.1 Z"></path><path fill="#8085e9" d="M 210 183.1 L 214 187.1 210 191.1 206 187.1 Z"></path><path fill="#8085e9" d="M 130 184.5 L 134 188.5 130 192.5 126 188.5 Z"></path><path fill="#8085e9" d="M 92 206.9 L 96 210.9 92 214.9 88 210.9 Z"></path><path fill="#8085e9" d="M 172 179.9 L 176 183.9 172 187.9 168 183.9 Z"></path><path fill="#8085e9" d="M 154 142.0 L 158 146.0 154 150.0 150 146.0 Z"></path><path fill="#8085e9" d="M 205 165.3 L 209 169.3 205 173.3 201 169.3 Z"></path><path fill="#8085e9" d="M 130 168.7 L 134 172.7 130 176.7 126 172.7 Z"></path><path fill="#8085e9" d="M 223 131.1 L 227 135.1 223 139.1 219 135.1 Z"></path><path fill="#8085e9" d="M 148 196.3 L 152 200.3 148 204.3 144 200.3 Z"></path><path fill="#8085e9" d="M 186 179.1 L 190 183.1 186 187.1 182 183.1 Z"></path><path fill="#8085e9" d="M 205 173.0 L 209 177.0 205 181.0 201 177.0 Z"></path><path fill="#8085e9" d="M 158 167.3 L 162 171.3 158 175.3 154 171.3 Z"></path><path fill="#8085e9" d="M 148 196.3 L 152 200.3 148 204.3 144 200.3 Z"></path><path fill="#8085e9" d="M 205 183.9 L 209 187.9 205 191.9 201 187.9 Z"></path><path fill="#8085e9" d="M 177 172.5 L 181 176.5 177 180.5 173 176.5 Z"></path><path fill="#8085e9" d="M 215 161.5 L 219 165.5 215 169.5 211 165.5 Z"></path><path fill="#8085e9" d="M 196 177.9 L 200 181.9 196 185.9 192 181.9 Z"></path><path fill="#8085e9" d="M 158 145.5 L 162 149.5 158 153.5 154 149.5 Z"></path><path fill="#8085e9" d="M 150 190.8 L 154 194.8 150 198.8 146 194.8 Z"></path><path fill="#8085e9" d="M 223 130.3 L 227 134.3 223 138.3 219 134.3 Z"></path><path fill="#8085e9" d="M 164 186.5 L 168 190.5 164 194.5 160 190.5 Z"></path><path fill="#8085e9" d="M 89 208.9 L 93 212.9 89 216.9 85 212.9 Z"></path><path fill="#8085e9" d="M 148 184.2 L 152 188.2 148 192.2 144 188.2 Z"></path><path fill="#8085e9" d="M 271 102.1 L 275 106.1 271 110.1 267 106.1 Z"></path><path fill="#8085e9" d="M 163 182.5 L 167 186.5 163 190.5 159 186.5 Z"></path><path fill="#8085e9" d="M 107 207.8 L 111 211.8 107 215.8 103 211.8 Z"></path><path fill="#8085e9" d="M 148 205.5 L 152 209.5 148 213.5 144 209.5 Z"></path><path fill="#8085e9" d="M 226 145.8 L 230 149.8 226 153.8 222 149.8 Z"></path><path fill="#8085e9" d="M 296 147.2 L 300 151.2 296 155.2 292 151.2 Z"></path><path fill="#8085e9" d="M 245 168.7 L 249 172.7 245 176.7 241 172.7 Z"></path><path fill="#8085e9" d="M 252 183.9 L 256 187.9 252 191.9 248 187.9 Z"></path><path fill="#8085e9" d="M 224 131.4 L 228 135.4 224 139.4 220 135.4 Z"></path><path fill="#8085e9" d="M 271 88.4 L 275 92.4 271 96.4 267 92.4 Z"></path><path fill="#8085e9" d="M 199 176.2 L 203 180.2 199 184.2 195 180.2 Z"></path><path fill="#8085e9" d="M 260 103.6 L 264 107.6 260 111.6 256 107.6 Z"></path><path fill="#8085e9" d="M 145 195.1 L 149 199.1 145 203.1 141 199.1 Z"></path><path fill="#8085e9" d="M 205 142.9 L 209 146.9 205 150.9 201 146.9 Z"></path><path fill="#8085e9" d="M 126 203.2 L 130 207.2 126 211.2 122 207.2 Z"></path><path fill="#8085e9" d="M 260 130.3 L 264 134.3 260 138.3 256 134.3 Z"></path><path fill="#8085e9" d="M 209 199.1 L 213 203.1 209 207.1 205 203.1 Z"></path><path fill="#8085e9" d="M 53 197.4 L 57 201.4 53 205.4 49 201.4 Z"></path><path fill="#8085e9" d="M 148 196.8 L 152 200.8 148 204.8 144 200.8 Z"></path><path fill="#8085e9" d="M 99 219.8 L 103 223.8 99 227.8 95 223.8 Z"></path><path fill="#8085e9" d="M 244 161.0 L 248 165.0 244 169.0 240 165.0 Z"></path><path fill="#8085e9" d="M 229 184.8 L 233 188.8 229 192.8 225 188.8 Z"></path><path fill="#8085e9" d="M 241 181.9 L 245 185.9 241 189.9 237 185.9 Z"></path><path fill="#8085e9" d="M 150 124.5 L 154 128.5 150 132.5 146 128.5 Z"></path><path fill="#8085e9" d="M 269 148.6 L 273 152.6 269 156.6 265 152.6 Z"></path><path fill="#8085e9" d="M 193 140.0 L 197 144.0 193 148.0 189 144.0 Z"></path><path fill="#8085e9" d="M 142 203.7 L 146 207.7 142 211.7 138 207.7 Z"></path><path fill="#8085e9" d="M 223 171.0 L 227 175.0 223 179.0 219 175.0 Z"></path><path fill="#8085e9" d="M 117 186.5 L 121 190.5 117 194.5 113 190.5 Z"></path><path fill="#8085e9" d="M 126 159.5 L 130 163.5 126 167.5 122 163.5 Z"></path><path fill="#8085e9" d="M 145 199.1 L 149 203.1 145 207.1 141 203.1 Z"></path><path fill="#8085e9" d="M 204 171.0 L 208 175.0 204 179.0 200 175.0 Z"></path><path fill="#8085e9" d="M 157 192.3 L 161 196.3 157 200.3 153 196.3 Z"></path></g></g><text x="292" text-anchor="middle" class="highcharts-title"  style="color:black;font-size:16px;font-weight:bold;fill:black;width:520px;" y="22"><tspan>Height vs Weight</tspan></text><text x="292" text-anchor="middle" class="highcharts-subtitle"  style="color:black;fill:black;width:520px;" y="43"><tspan>Polygon series in Highcharts</tspan></text><g class="highcharts-legend"  transform="translate(451,176)"><g ><g><g class="highcharts-legend-item"  transform="translate(8,3)"><text x="21" style="color:#333333;font-size:13px;font-weight:bold;cursor:pointer;fill:#333333;" text-anchor="start"  y="16">Target</text><rect x="0" y="5" width="16" height="12"  fill="rgb(244,91,91)" fill-opacity="0.5"></rect></g><g class="highcharts-legend-item"  transform="translate(8,19)"><path fill="#8085e9" d="M 8 8 L 12 12 8 16 4 12 Z"></path><text x="21" y="16" style="color:#333333;font-size:13px;font-weight:bold;cursor:pointer;fill:#333333;" text-anchor="start" >Observations</text></g></g></g></g><g class="highcharts-axis-labels highcharts-xaxis-labels" ><text x="67" style="color:#6e6e70;cursor:default;font-size:11px;fill:#6e6e70;width:62px;text-overflow:clip;" text-anchor="middle" transform="translate(0,0)" y="364" opacity="1">140</text><text x="141.4" style="color:#6e6e70;cursor:default;font-size:11px;fill:#6e6e70;width:62px;text-overflow:clip;" text-anchor="middle" transform="translate(0,0)" y="364" opacity="1">150</text><text x="215.8" style="color:#6e6e70;cursor:default;font-size:11px;fill:#6e6e70;width:62px;text-overflow:clip;" text-anchor="middle" transform="translate(0,0)" y="364" opacity="1">160</text><text x="290.2" style="color:#6e6e70;cursor:default;font-size:11px;fill:#6e6e70;width:62px;text-overflow:clip;" text-anchor="middle" transform="translate(0,0)" y="364" opacity="1">170</text><text x="364.6" style="color:#6e6e70;cursor:default;font-size:11px;fill:#6e6e70;width:62px;text-overflow:clip;" text-anchor="middle" transform="translate(0,0)" y="364" opacity="1">180</text><text x="439" style="color:#6e6e70;cursor:default;font-size:11px;fill:#6e6e70;width:62px;text-overflow:clip;" text-anchor="middle" transform="translate(0,0)" y="364" opacity="1">190</text></g><g class="highcharts-axis-labels highcharts-yaxis-labels" ><text x="52" style="color:#6e6e70;cursor:default;font-size:11px;fill:#6e6e70;width:183px;text-overflow:clip;" text-anchor="end" transform="translate(0,0)" y="350" opacity="1">20</text><text x="52" style="color:#6e6e70;cursor:default;font-size:11px;fill:#6e6e70;width:183px;text-overflow:clip;" text-anchor="end" transform="translate(0,0)" y="292" opacity="1">40</text><text x="52" style="color:#6e6e70;cursor:default;font-size:11px;fill:#6e6e70;width:183px;text-overflow:clip;" text-anchor="end" transform="translate(0,0)" y="235" opacity="1">60</text><text x="52" style="color:#6e6e70;cursor:default;font-size:11px;fill:#6e6e70;width:183px;text-overflow:clip;" text-anchor="end" transform="translate(0,0)" y="177" opacity="1">80</text><text x="52" style="color:#6e6e70;cursor:default;font-size:11px;fill:#6e6e70;width:183px;text-overflow:clip;" text-anchor="end" transform="translate(0,0)" y="120" opacity="1">100</text><text x="52" style="color:#6e6e70;cursor:default;font-size:11px;fill:#6e6e70;width:183px;text-overflow:clip;" text-anchor="end" transform="translate(0,0)" y="63" opacity="1">120</text></g><g class="highcharts-tooltip"  style="cursor:default;padding:0;white-space:nowrap;" transform="translate(0,-9999)"><path fill="none" d="M 3 0 L 13 0 C 16 0 16 0 16 3 L 16 13 C 16 16 16 16 13 16 L 3 16 C 0 16 0 16 0 13 L 0 3 C 0 0 0 0 3 0"  stroke="black" stroke-opacity="0.0" stroke-width="5" transform="translate(1, 1)"></path><path fill="none" d="M 3 0 L 13 0 C 16 0 16 0 16 3 L 16 13 C 16 16 16 16 13 16 L 3 16 C 0 16 0 16 0 13 L 0 3 C 0 0 0 0 3 0"  stroke="black" stroke-opacity="0.0" stroke-width="3" transform="translate(1, 1)"></path><path fill="none" d="M 3 0 L 13 0 C 16 0 16 0 16 3 L 16 13 C 16 16 16 16 13 16 L 3 16 C 0 16 0 16 0 13 L 0 3 C 0 0 0 0 3 0"  stroke="black" stroke-opacity="0.1" stroke-width="1" transform="translate(1, 1)"></path><path fill="rgb(249, 249, 249)" fill-opacity=" .85" d="M 3 0 L 13 0 C 16 0 16 0 16 3 L 16 13 C 16 16 16 16 13 16 L 3 16 C 0 16 0 16 0 13 L 0 3 C 0 0 0 0 3 0"></path><text x="8"  style="font-size:12px;color:#333333;fill:#333333;" transform="translate(0,20)"></text></g></svg>