<svg version="1.1" style="font-family: signika, serif; font-size: 12px; background-image: url(http://www.highcharts.com/samples/graphics/sand.png); background-attachment: initial; background-origin: initial; background-clip: initial; background-color: initial; background-position: initial initial; background-repeat: initial initial; " xmlns="http://www.w3.org/2000/svg" width="584" height="400" viewBox="0 0 584 400" xmlns:xlink="http://www.w3.org/1999/xlink"><style type="text/css"><![CDATA[@import url(http://fonts.googleapis.com/css?family=Signika:700);]]></style><desc>Created with Highcharts 4.1.4</desc><defs><clipPath id="highcharts-1"><rect x="0" y="0" width="507" height="287"></rect></clipPath><clipPath id="highcharts-2"><rect x="-99" y="-58" width="606" height="400"></rect></clipPath><clipPath id="highcharts-3"><rect x="0" y="0" width="507" height="287"></rect></clipPath></defs><g class="highcharts-grid" ></g><g class="highcharts-grid" ><path fill="none" d="M 67 345.5 L 574 345.5" stroke="#D8D8D8" stroke-width="1"  opacity="1"></path><path fill="none" d="M 67 297.5 L 574 297.5" stroke="#D8D8D8" stroke-width="1"  opacity="1"></path><path fill="none" d="M 67 249.5 L 574 249.5" stroke="#D8D8D8" stroke-width="1"  opacity="1"></path><path fill="none" d="M 67 202.5 L 574 202.5" stroke="#D8D8D8" stroke-width="1"  opacity="1"></path><path fill="none" d="M 67 154.5 L 574 154.5" stroke="#D8D8D8" stroke-width="1"  opacity="1"></path><path fill="none" d="M 67 106.5 L 574 106.5" stroke="#D8D8D8" stroke-width="1"  opacity="1"></path><path fill="none" d="M 67 57.5 L 574 57.5" stroke="#D8D8D8" stroke-width="1"  opacity="1"></path></g><g class="highcharts-axis" ><path fill="none" d="M 66.5 345 L 66.5 355" stroke="#C0D0E0" stroke-width="1" opacity="1"></path><path fill="none" d="M 151.5 345 L 151.5 355" stroke="#C0D0E0" stroke-width="1" opacity="1"></path><path fill="none" d="M 235.5 345 L 235.5 355" stroke="#C0D0E0" stroke-width="1" opacity="1"></path><path fill="none" d="M 320.5 345 L 320.5 355" stroke="#C0D0E0" stroke-width="1" opacity="1"></path><path fill="none" d="M 404.5 345 L 404.5 355" stroke="#C0D0E0" stroke-width="1" opacity="1"></path><path fill="none" d="M 488.5 345 L 488.5 355" stroke="#C0D0E0" stroke-width="1" opacity="1"></path><path fill="none" d="M 574.5 345 L 574.5 355" stroke="#C0D0E0" stroke-width="1" opacity="1"></path><text x="320.5"  text-anchor="middle" transform="translate(0,0)" class=" highcharts-xaxis-title" style="color:#707070;fill:#707070;" visibility="visible" y="383"><tspan>Height (cm)</tspan></text><path fill="none" d="M 67 345.5 L 574 345.5" stroke="#C0D0E0" stroke-width="1"  visibility="visible"></path></g><g class="highcharts-axis" ><text x="24"  text-anchor="middle" transform="translate(0,0) rotate(270 24 201.5)" class=" highcharts-yaxis-title" style="color:#707070;fill:#707070;" visibility="visible" y="201.5"><tspan>Weight (kg)</tspan></text></g><g class="highcharts-series-group" ><g class="highcharts-series highcharts-tracker" visibility="visible"  transform="translate(67,58) scale(1 1)" clip-path="url(#highcharts-3)" style=""></g><g class="highcharts-markers highcharts-tracker" visibility="visible"  transform="translate(67,58) scale(1 1)" clip-path="url(#highcharts-2)" style=""><path fill="rgb(223, 83, 83)" fill-opacity=" .5" d="M 201 168.8 C 207.6 168.8 207.6 178.8 201 178.8 C 194.3 178.8 194.3 168.8 201 168.8 Z"></path><path fill="rgb(223, 83, 83)" fill-opacity=" .5" d="M 287 171.0 C 293.6 171.0 293.6 181.0 287 181.0 C 280.3 181.0 280.3 171.0 287 171.0 Z"></path><path fill="rgb(223, 83, 83)" fill-opacity=" .5" d="M 174 213.5 C 180.6 213.5 180.6 223.5 174 223.5 C 167.3 223.5 167.3 213.5 174 213.5 Z"></path><path fill="rgb(223, 83, 83)" fill-opacity=" .5" d="M 206 197.0 C 212.6 197.0 212.6 207.0 206 207.0 C 199.3 207.0 199.3 197.0 206 197.0 Z"></path><path fill="rgb(223, 83, 83)" fill-opacity=" .5" d="M 308 158.1 C 314.6 158.1 314.6 168.1 308 168.1 C 301.3 168.1 301.3 158.1 308 158.1 Z"></path><path fill="rgb(223, 83, 83)" fill-opacity=" .5" d="M 147 146.1 C 153.6 146.1 153.6 156.1 147 156.1 C 140.3 156.1 140.3 146.1 147 146.1 Z"></path><path fill="rgb(223, 83, 83)" fill-opacity=" .5" d="M 190 182.9 C 196.6 182.9 196.6 192.9 190 192.9 C 183.3 192.9 183.3 182.9 190 182.9 Z"></path><path fill="rgb(223, 83, 83)" fill-opacity=" .5" d="M 276 166.7 C 282.6 166.7 282.6 176.7 276 176.7 C 269.3 176.7 269.3 166.7 276 166.7 Z"></path><path fill="rgb(223, 83, 83)" fill-opacity=" .5" d="M 169 149.2 C 175.6 149.2 175.6 159.2 169 159.2 C 162.3 159.2 162.3 149.2 169 149.2 Z"></path><path fill="rgb(223, 83, 83)" fill-opacity=" .5" d="M 249 168.8 C 255.6 168.8 255.6 178.8 249 178.8 C 242.3 178.8 242.3 168.8 249 168.8 Z"></path><path fill="rgb(223, 83, 83)" fill-opacity=" .5" d="M 298 177.7 C 304.6 177.7 304.6 187.7 298 187.7 C 291.3 187.7 291.3 177.7 298 177.7 Z"></path><path fill="rgb(223, 83, 83)" fill-opacity=" .5" d="M 169 176.5 C 175.6 176.5 175.6 186.5 169 186.5 C 162.3 186.5 162.3 176.5 169 176.5 Z"></path><path fill="rgb(223, 83, 83)" fill-opacity=" .5" d="M 249 192.7 C 255.6 192.7 255.6 202.7 249 202.7 C 242.3 202.7 242.3 192.7 249 192.7 Z"></path><path fill="rgb(223, 83, 83)" fill-opacity=" .5" d="M 83 217.9 C 89.6 217.9 89.6 227.9 83 227.9 C 76.3 227.9 76.3 217.9 83 217.9 Z"></path><path fill="rgb(223, 83, 83)" fill-opacity=" .5" d="M 136 186.3 C 142.6 186.3 142.6 196.3 136 196.3 C 129.3 196.3 129.3 186.3 136 186.3 Z"></path><path fill="rgb(223, 83, 83)" fill-opacity=" .5" d="M 179 184.1 C 185.6 184.1 185.6 194.1 179 194.1 C 172.3 194.1 172.3 184.1 179 184.1 Z"></path><path fill="rgb(223, 83, 83)" fill-opacity=" .5" d="M 190 177.7 C 196.6 177.7 196.6 187.7 190 187.7 C 183.3 187.7 183.3 177.7 190 177.7 Z"></path><path fill="rgb(223, 83, 83)" fill-opacity=" .5" d="M 287 197.0 C 293.6 197.0 293.6 207.0 287 207.0 C 280.3 207.0 280.3 197.0 287 197.0 Z"></path><path fill="rgb(223, 83, 83)" fill-opacity=" .5" d="M 190 182.9 C 196.6 182.9 196.6 192.9 190 192.9 C 183.3 192.9 183.3 182.9 190 182.9 Z"></path><path fill="rgb(223, 83, 83)" fill-opacity=" .5" d="M 287 153.8 C 293.6 153.8 293.6 163.8 287 163.8 C 280.3 163.8 280.3 153.8 287 153.8 Z"></path><path fill="rgb(223, 83, 83)" fill-opacity=" .5" d="M 169 186.3 C 175.6 186.3 175.6 196.3 169 196.3 C 162.3 196.3 162.3 186.3 169 186.3 Z"></path><path fill="rgb(223, 83, 83)" fill-opacity=" .5" d="M 212 201.6 C 218.6 201.6 218.6 211.6 212 211.6 C 205.3 211.6 205.3 201.6 212 201.6 Z"></path><path fill="rgb(223, 83, 83)" fill-opacity=" .5" d="M 147 199.4 C 153.6 199.4 153.6 209.4 147 209.4 C 140.3 209.4 140.3 199.4 147 199.4 Z"></path><path fill="rgb(223, 83, 83)" fill-opacity=" .5" d="M 265 202.1 C 271.6 202.1 271.6 212.1 265 212.1 C 258.3 212.1 258.3 202.1 265 202.1 Z"></path><path fill="rgb(223, 83, 83)" fill-opacity=" .5" d="M 298 177.7 C 304.6 177.7 304.6 187.7 298 187.7 C 291.3 187.7 291.3 177.7 298 177.7 Z"></path><path fill="rgb(223, 83, 83)" fill-opacity=" .5" d="M 190 134.1 C 196.6 134.1 196.6 144.1 190 144.1 C 183.3 144.1 183.3 134.1 190 134.1 Z"></path><path fill="rgb(223, 83, 83)" fill-opacity=" .5" d="M 125 190.6 C 131.6 190.6 131.6 200.6 125 200.6 C 118.3 200.6 118.3 190.6 125 190.6 Z"></path><path fill="rgb(223, 83, 83)" fill-opacity=" .5" d="M 233 182.9 C 239.6 182.9 239.6 192.9 233 192.9 C 226.3 192.9 226.3 182.9 233 182.9 Z"></path><path fill="rgb(223, 83, 83)" fill-opacity=" .5" d="M 233 156.9 C 239.6 156.9 239.6 166.9 233 166.9 C 226.3 166.9 226.3 156.9 233 156.9 Z"></path><path fill="rgb(223, 83, 83)" fill-opacity=" .5" d="M 233 175.5 C 239.6 175.5 239.6 185.5 233 185.5 C 226.3 185.5 226.3 175.5 233 175.5 Z"></path><path fill="rgb(223, 83, 83)" fill-opacity=" .5" d="M 169 137.3 C 175.6 137.3 175.6 147.3 169 147.3 C 162.3 147.3 162.3 137.3 169 137.3 Z"></path><path fill="rgb(223, 83, 83)" fill-opacity=" .5" d="M 255 144.9 C 261.6 144.9 261.6 154.9 255 154.9 C 248.3 154.9 248.3 144.9 255 144.9 Z"></path><path fill="rgb(223, 83, 83)" fill-opacity=" .5" d="M 287 197.0 C 293.6 197.0 293.6 207.0 287 207.0 C 280.3 207.0 280.3 197.0 287 197.0 Z"></path><path fill="rgb(223, 83, 83)" fill-opacity=" .5" d="M 212 80.8 C 218.6 80.8 218.6 90.8 212 90.8 C 205.3 90.8 205.3 80.8 212 80.8 Z"></path><path fill="rgb(223, 83, 83)" fill-opacity=" .5" d="M 169 197.3 C 175.6 197.3 175.6 207.3 169 207.3 C 162.3 207.3 162.3 197.3 169 197.3 Z"></path><path fill="rgb(223, 83, 83)" fill-opacity=" .5" d="M 297 191.8 C 303.6 191.8 303.6 201.8 297 201.8 C 290.3 201.8 290.3 191.8 297 191.8 Z"></path><path fill="rgb(223, 83, 83)" fill-opacity=" .5" d="M 297 180.8 C 303.6 180.8 303.6 190.8 297 190.8 C 290.3 190.8 290.3 180.8 297 180.8 Z"></path><path fill="rgb(223, 83, 83)" fill-opacity=" .5" d="M 255 153.8 C 261.6 153.8 261.6 163.8 255 163.8 C 248.3 163.8 248.3 153.8 255 153.8 Z"></path><path fill="rgb(223, 83, 83)" fill-opacity=" .5" d="M 244 179.1 C 250.6 179.1 250.6 189.1 244 189.1 C 237.3 189.1 237.3 179.1 244 179.1 Z"></path><path fill="rgb(223, 83, 83)" fill-opacity=" .5" d="M 104 168.8 C 110.6 168.8 110.6 178.8 104 178.8 C 97.3 178.8 97.3 168.8 104 168.8 Z"></path><path fill="rgb(223, 83, 83)" fill-opacity=" .5" d="M 190 171.0 C 196.6 171.0 196.6 181.0 190 181.0 C 183.3 181.0 183.3 171.0 190 171.0 Z"></path><path fill="rgb(223, 83, 83)" fill-opacity=" .5" d="M 212 123.4 C 218.6 123.4 218.6 133.4 212 133.4 C 205.3 133.4 205.3 123.4 212 123.4 Z"></path><path fill="rgb(223, 83, 83)" fill-opacity=" .5" d="M 233 179.8 C 239.6 179.8 239.6 189.8 233 189.8 C 226.3 189.8 226.3 179.8 233 179.8 Z"></path><path fill="rgb(223, 83, 83)" fill-opacity=" .5" d="M 233 203.7 C 239.6 203.7 239.6 213.7 233 213.7 C 226.3 213.7 226.3 203.7 233 203.7 Z"></path><path fill="rgb(223, 83, 83)" fill-opacity=" .5" d="M 179 161.2 C 185.6 161.2 185.6 171.2 179 171.2 C 172.3 171.2 172.3 161.2 179 161.2 Z"></path><path fill="rgb(223, 83, 83)" fill-opacity=" .5" d="M 255 188.4 C 261.6 188.4 261.6 198.4 255 198.4 C 248.3 198.4 248.3 188.4 255 188.4 Z"></path><path fill="rgb(223, 83, 83)" fill-opacity=" .5" d="M 255 199.4 C 261.6 199.4 261.6 209.4 255 209.4 C 248.3 209.4 248.3 199.4 255 199.4 Z"></path><path fill="rgb(223, 83, 83)" fill-opacity=" .5" d="M 255 177.7 C 261.6 177.7 261.6 187.7 255 187.7 C 248.3 187.7 248.3 177.7 255 177.7 Z"></path><path fill="rgb(223, 83, 83)" fill-opacity=" .5" d="M 212 184.1 C 218.6 184.1 218.6 194.1 212 194.1 C 205.3 194.1 205.3 184.1 212 184.1 Z"></path><path fill="rgb(223, 83, 83)" fill-opacity=" .5" d="M 276 161.2 C 282.6 161.2 282.6 171.2 276 171.2 C 269.3 171.2 269.3 161.2 276 161.2 Z"></path><path fill="rgb(223, 83, 83)" fill-opacity=" .5" d="M 212 136.3 C 218.6 136.3 218.6 146.3 212 146.3 C 205.3 146.3 205.3 136.3 212 136.3 Z"></path><path fill="rgb(223, 83, 83)" fill-opacity=" .5" d="M 255 167.9 C 261.6 167.9 261.6 177.9 255 177.9 C 248.3 177.9 248.3 167.9 255 167.9 Z"></path><path fill="rgb(223, 83, 83)" fill-opacity=" .5" d="M 104 216.7 C 110.6 216.7 110.6 226.7 104 226.7 C 97.3 226.7 97.3 216.7 104 216.7 Z"></path><path fill="rgb(223, 83, 83)" fill-opacity=" .5" d="M 190 199.4 C 196.6 199.4 196.6 209.4 190 209.4 C 183.3 209.4 183.3 199.4 190 199.4 Z"></path><path fill="rgb(223, 83, 83)" fill-opacity=" .5" d="M 147 177.7 C 153.6 177.7 153.6 187.7 147 187.7 C 140.3 187.7 140.3 177.7 147 177.7 Z"></path><path fill="rgb(223, 83, 83)" fill-opacity=" .5" d="M 169 188.7 C 175.6 188.7 175.6 198.7 169 198.7 C 162.3 198.7 162.3 188.7 169 188.7 Z"></path><path fill="rgb(223, 83, 83)" fill-opacity=" .5" d="M 174 196.1 C 180.6 196.1 180.6 206.1 174 206.1 C 167.3 206.1 167.3 196.1 174 196.1 Z"></path><path fill="rgb(223, 83, 83)" fill-opacity=" .5" d="M 190 199.4 C 196.6 199.4 196.6 209.4 190 209.4 C 183.3 209.4 183.3 199.4 190 199.4 Z"></path><path fill="rgb(223, 83, 83)" fill-opacity=" .5" d="M 233 199.4 C 239.6 199.4 239.6 209.4 233 209.4 C 226.3 209.4 226.3 199.4 233 199.4 Z"></path><path fill="rgb(223, 83, 83)" fill-opacity=" .5" d="M 190 161.2 C 196.6 161.2 196.6 171.2 190 171.2 C 183.3 171.2 183.3 161.2 190 161.2 Z"></path><path fill="rgb(223, 83, 83)" fill-opacity=" .5" d="M 255 198.2 C 261.6 198.2 261.6 208.2 255 208.2 C 248.3 208.2 248.3 198.2 255 198.2 Z"></path><path fill="rgb(223, 83, 83)" fill-opacity=" .5" d="M 169 202.1 C 175.6 202.1 175.6 212.1 169 212.1 C 162.3 212.1 162.3 202.1 169 202.1 Z"></path><path fill="rgb(223, 83, 83)" fill-opacity=" .5" d="M 163 202.5 C 169.6 202.5 169.6 212.5 163 212.5 C 156.3 212.5 156.3 202.5 163 202.5 Z"></path><path fill="rgb(223, 83, 83)" fill-opacity=" .5" d="M 298 177.7 C 304.6 177.7 304.6 187.7 298 187.7 C 291.3 187.7 291.3 177.7 298 177.7 Z"></path><path fill="rgb(223, 83, 83)" fill-opacity=" .5" d="M 244 181.5 C 250.6 181.5 250.6 191.5 244 191.5 C 237.3 191.5 237.3 181.5 244 181.5 Z"></path><path fill="rgb(223, 83, 83)" fill-opacity=" .5" d="M 308 153.8 C 314.6 153.8 314.6 163.8 308 163.8 C 301.3 163.8 301.3 153.8 308 153.8 Z"></path><path fill="rgb(223, 83, 83)" fill-opacity=" .5" d="M 207 178.6 C 213.6 178.6 213.6 188.6 207 188.6 C 200.3 188.6 200.3 178.6 207 178.6 Z"></path><path fill="rgb(223, 83, 83)" fill-opacity=" .5" d="M 190 200.9 C 196.6 200.9 196.6 210.9 190 210.9 C 183.3 210.9 183.3 200.9 190 200.9 Z"></path><path fill="rgb(223, 83, 83)" fill-opacity=" .5" d="M 244 194.4 C 250.6 194.4 250.6 204.4 244 204.4 C 237.3 204.4 237.3 194.4 244 194.4 Z"></path><path fill="rgb(223, 83, 83)" fill-opacity=" .5" d="M 212 179.8 C 218.6 179.8 218.6 189.8 212 189.8 C 205.3 189.8 205.3 179.8 212 179.8 Z"></path><path fill="rgb(223, 83, 83)" fill-opacity=" .5" d="M 212 197.8 C 218.6 197.8 218.6 207.8 212 207.8 C 205.3 207.8 205.3 197.8 212 197.8 Z"></path><path fill="rgb(223, 83, 83)" fill-opacity=" .5" d="M 233 177.7 C 239.6 177.7 239.6 187.7 233 187.7 C 226.3 187.7 226.3 177.7 233 177.7 Z"></path><path fill="rgb(223, 83, 83)" fill-opacity=" .5" d="M 201 189.6 C 207.6 189.6 207.6 199.6 201 199.6 C 194.3 199.6 194.3 189.6 201 189.6 Z"></path><path fill="rgb(223, 83, 83)" fill-opacity=" .5" d="M 147 213.5 C 153.6 213.5 153.6 223.5 147 223.5 C 140.3 223.5 140.3 213.5 147 213.5 Z"></path><path fill="rgb(223, 83, 83)" fill-opacity=" .5" d="M 298 173.1 C 304.6 173.1 304.6 183.1 298 183.1 C 291.3 183.1 291.3 173.1 298 173.1 Z"></path><path fill="rgb(223, 83, 83)" fill-opacity=" .5" d="M 212 173.1 C 218.6 173.1 218.6 183.1 212 183.1 C 205.3 183.1 205.3 173.1 212 173.1 Z"></path><path fill="rgb(223, 83, 83)" fill-opacity=" .5" d="M 233 198.2 C 239.6 198.2 239.6 208.2 233 208.2 C 226.3 208.2 226.3 198.2 233 198.2 Z"></path><path fill="rgb(223, 83, 83)" fill-opacity=" .5" d="M 179 192.7 C 185.6 192.7 185.6 202.7 179 202.7 C 172.3 202.7 172.3 192.7 179 192.7 Z"></path><path fill="rgb(223, 83, 83)" fill-opacity=" .5" d="M 244 198.2 C 250.6 198.2 250.6 208.2 244 208.2 C 237.3 208.2 237.3 198.2 244 198.2 Z"></path><path fill="rgb(223, 83, 83)" fill-opacity=" .5" d="M 276 148.3 C 282.6 148.3 282.6 158.3 276 158.3 C 269.3 158.3 269.3 148.3 276 148.3 Z"></path><path fill="rgb(223, 83, 83)" fill-opacity=" .5" d="M 158 212.4 C 164.6 212.4 164.6 222.4 158 222.4 C 151.3 222.4 151.3 212.4 158 212.4 Z"></path><path fill="rgb(223, 83, 83)" fill-opacity=" .5" d="M 125 200.4 C 131.6 200.4 131.6 210.4 125 210.4 C 118.3 210.4 118.3 200.4 125 200.4 Z"></path><path fill="rgb(223, 83, 83)" fill-opacity=" .5" d="M 298 155.9 C 304.6 155.9 304.6 165.9 298 165.9 C 291.3 165.9 291.3 155.9 298 155.9 Z"></path><path fill="rgb(223, 83, 83)" fill-opacity=" .5" d="M 212 190.6 C 218.6 190.6 218.6 200.6 212 200.6 C 205.3 200.6 205.3 190.6 212 190.6 Z"></path><path fill="rgb(223, 83, 83)" fill-opacity=" .5" d="M 319 186.3 C 325.6 186.3 325.6 196.3 319 196.3 C 312.3 196.3 312.3 186.3 319 186.3 Z"></path><path fill="rgb(223, 83, 83)" fill-opacity=" .5" d="M 212 193.9 C 218.6 193.9 218.6 203.9 212 203.9 C 205.3 203.9 205.3 193.9 212 193.9 Z"></path><path fill="rgb(223, 83, 83)" fill-opacity=" .5" d="M 223 160.7 C 229.6 160.7 229.6 170.7 223 170.7 C 216.3 170.7 216.3 160.7 223 160.7 Z"></path><path fill="rgb(223, 83, 83)" fill-opacity=" .5" d="M 362 134.1 C 368.6 134.1 368.6 144.1 362 144.1 C 355.3 144.1 355.3 134.1 362 134.1 Z"></path><path fill="rgb(223, 83, 83)" fill-opacity=" .5" d="M 212 188.4 C 218.6 188.4 218.6 198.4 212 198.4 C 205.3 198.4 205.3 188.4 212 188.4 Z"></path><path fill="rgb(223, 83, 83)" fill-opacity=" .5" d="M 169 196.1 C 175.6 196.1 175.6 206.1 169 206.1 C 162.3 206.1 162.3 196.1 169 196.1 Z"></path><path fill="rgb(223, 83, 83)" fill-opacity=" .5" d="M 190 189.6 C 196.6 189.6 196.6 199.6 190 199.6 C 183.3 199.6 183.3 189.6 190 189.6 Z"></path><path fill="rgb(223, 83, 83)" fill-opacity=" .5" d="M 271 194.4 C 277.6 194.4 277.6 204.4 271 204.4 C 264.3 204.4 264.3 194.4 271 194.4 Z"></path><path fill="rgb(223, 83, 83)" fill-opacity=" .5" d="M 297 170.0 C 303.6 170.0 303.6 180.0 297 180.0 C 290.3 180.0 290.3 170.0 297 170.0 Z"></path><path fill="rgb(223, 83, 83)" fill-opacity=" .5" d="M 136 189.6 C 142.6 189.6 142.6 199.6 136 199.6 C 129.3 199.6 129.3 189.6 136 189.6 Z"></path><path fill="rgb(223, 83, 83)" fill-opacity=" .5" d="M 233 172.2 C 239.6 172.2 239.6 182.2 233 182.2 C 226.3 182.2 226.3 172.2 233 172.2 Z"></path><path fill="rgb(223, 83, 83)" fill-opacity=" .5" d="M 190 182.9 C 196.6 182.9 196.6 192.9 190 192.9 C 183.3 192.9 183.3 182.9 190 182.9 Z"></path><path fill="rgb(223, 83, 83)" fill-opacity=" .5" d="M 233 147.1 C 239.6 147.1 239.6 157.1 233 157.1 C 226.3 157.1 226.3 147.1 233 147.1 Z"></path><path fill="rgb(223, 83, 83)" fill-opacity=" .5" d="M 276 163.6 C 282.6 163.6 282.6 173.6 276 173.6 C 269.3 173.6 269.3 163.6 276 163.6 Z"></path><path fill="rgb(223, 83, 83)" fill-opacity=" .5" d="M 158 197.0 C 164.6 197.0 164.6 207.0 158 207.0 C 151.3 207.0 151.3 197.0 158 197.0 Z"></path><path fill="rgb(223, 83, 83)" fill-opacity=" .5" d="M 255 196.1 C 261.6 196.1 261.6 206.1 255 206.1 C 248.3 206.1 248.3 196.1 255 196.1 Z"></path><path fill="rgb(223, 83, 83)" fill-opacity=" .5" d="M 190 127.7 C 196.6 127.7 196.6 137.7 190 137.7 C 183.3 137.7 183.3 127.7 190 127.7 Z"></path><path fill="rgb(223, 83, 83)" fill-opacity=" .5" d="M 255 164.5 C 261.6 164.5 261.6 174.5 255 174.5 C 248.3 174.5 248.3 164.5 255 164.5 Z"></path><path fill="rgb(223, 83, 83)" fill-opacity=" .5" d="M 104 185.3 C 110.6 185.3 110.6 195.3 104 195.3 C 97.3 195.3 97.3 185.3 104 185.3 Z"></path><path fill="rgb(223, 83, 83)" fill-opacity=" .5" d="M 169 196.1 C 175.6 196.1 175.6 206.1 169 206.1 C 162.3 206.1 162.3 196.1 169 196.1 Z"></path><path fill="rgb(223, 83, 83)" fill-opacity=" .5" d="M 223 198.2 C 229.6 198.2 229.6 208.2 223 208.2 C 216.3 208.2 216.3 198.2 223 198.2 Z"></path><path fill="rgb(223, 83, 83)" fill-opacity=" .5" d="M 212 156.9 C 218.6 156.9 218.6 166.9 212 166.9 C 205.3 166.9 205.3 156.9 212 156.9 Z"></path><path fill="rgb(223, 83, 83)" fill-opacity=" .5" d="M 190 210.2 C 196.6 210.2 196.6 220.2 190 220.2 C 183.3 220.2 183.3 210.2 190 210.2 Z"></path><path fill="rgb(223, 83, 83)" fill-opacity=" .5" d="M 212 176.5 C 218.6 176.5 218.6 186.5 212 186.5 C 205.3 186.5 205.3 176.5 212 176.5 Z"></path><path fill="rgb(223, 83, 83)" fill-opacity=" .5" d="M 244 193.9 C 250.6 193.9 250.6 203.9 244 203.9 C 237.3 203.9 237.3 193.9 244 193.9 Z"></path><path fill="rgb(223, 83, 83)" fill-opacity=" .5" d="M 169 187.5 C 175.6 187.5 175.6 197.5 169 197.5 C 162.3 197.5 162.3 187.5 169 187.5 Z"></path><path fill="rgb(223, 83, 83)" fill-opacity=" .5" d="M 190 178.6 C 196.6 178.6 196.6 188.6 190 188.6 C 183.3 188.6 183.3 178.6 190 178.6 Z"></path><path fill="rgb(223, 83, 83)" fill-opacity=" .5" d="M 179 177.7 C 185.6 177.7 185.6 187.7 179 187.7 C 172.3 187.7 172.3 177.7 179 177.7 Z"></path><path fill="rgb(223, 83, 83)" fill-opacity=" .5" d="M 147 195.9 C 153.6 195.9 153.6 205.9 147 205.9 C 140.3 205.9 140.3 195.9 147 195.9 Z"></path><path fill="rgb(223, 83, 83)" fill-opacity=" .5" d="M 162 205.9 C 168.6 205.9 168.6 215.9 162 215.9 C 155.3 215.9 155.3 205.9 162 205.9 Z"></path><path fill="rgb(223, 83, 83)" fill-opacity=" .5" d="M 257 175.5 C 263.6 175.5 263.6 185.5 257 185.5 C 250.3 185.5 250.3 175.5 257 175.5 Z"></path><path fill="rgb(223, 83, 83)" fill-opacity=" .5" d="M 167 202.5 C 173.6 202.5 173.6 212.5 167 212.5 C 160.3 212.5 160.3 202.5 167 202.5 Z"></path><path fill="rgb(223, 83, 83)" fill-opacity=" .5" d="M 282 203.7 C 288.6 203.7 288.6 213.7 282 213.7 C 275.3 213.7 275.3 203.7 282 203.7 Z"></path><path fill="rgb(223, 83, 83)" fill-opacity=" .5" d="M 186 188.2 C 192.6 188.2 192.6 198.2 186 198.2 C 179.3 198.2 179.3 188.2 186 188.2 Z"></path><path fill="rgb(223, 83, 83)" fill-opacity=" .5" d="M 135 199.2 C 141.6 199.2 141.6 209.2 135 209.2 C 128.3 209.2 128.3 199.2 135 199.2 Z"></path><path fill="rgb(223, 83, 83)" fill-opacity=" .5" d="M 233 191.5 C 239.6 191.5 239.6 201.5 233 201.5 C 226.3 201.5 226.3 191.5 233 191.5 Z"></path><path fill="rgb(223, 83, 83)" fill-opacity=" .5" d="M 152 197.0 C 158.6 197.0 158.6 207.0 152 207.0 C 145.3 207.0 145.3 197.0 152 197.0 Z"></path><path fill="rgb(223, 83, 83)" fill-opacity=" .5" d="M 228 181.0 C 234.6 181.0 234.6 191.0 228 191.0 C 221.3 191.0 221.3 181.0 228 181.0 Z"></path><path fill="rgb(223, 83, 83)" fill-opacity=" .5" d="M 169 213.1 C 175.6 213.1 175.6 223.1 169 223.1 C 162.3 223.1 162.3 213.1 169 213.1 Z"></path><path fill="rgb(223, 83, 83)" fill-opacity=" .5" d="M 135 175.8 C 141.6 175.8 141.6 185.8 135 185.8 C 128.3 185.8 128.3 175.8 135 175.8 Z"></path><path fill="rgb(223, 83, 83)" fill-opacity=" .5" d="M 153 218.8 C 159.6 218.8 159.6 228.8 153 228.8 C 146.3 228.8 146.3 218.8 153 218.8 Z"></path><path fill="rgb(223, 83, 83)" fill-opacity=" .5" d="M 244 185.1 C 250.6 185.1 250.6 195.1 244 195.1 C 237.3 195.1 237.3 185.1 244 185.1 Z"></path><path fill="rgb(223, 83, 83)" fill-opacity=" .5" d="M 169 226.5 C 175.6 226.5 175.6 236.5 169 236.5 C 162.3 236.5 162.3 226.5 169 226.5 Z"></path><path fill="rgb(223, 83, 83)" fill-opacity=" .5" d="M 169 198.7 C 175.6 198.7 175.6 208.7 169 208.7 C 162.3 208.7 162.3 198.7 169 198.7 Z"></path><path fill="rgb(223, 83, 83)" fill-opacity=" .5" d="M 228 186.8 C 234.6 186.8 234.6 196.8 228 196.8 C 221.3 196.8 221.3 186.8 228 186.8 Z"></path><path fill="rgb(223, 83, 83)" fill-opacity=" .5" d="M 192 191.1 C 198.6 191.1 198.6 201.1 192 201.1 C 185.3 201.1 185.3 191.1 192 191.1 Z"></path><path fill="rgb(223, 83, 83)" fill-opacity=" .5" d="M 176 199.7 C 182.6 199.7 182.6 209.7 176 209.7 C 169.3 209.7 169.3 199.7 176 199.7 Z"></path><path fill="rgb(223, 83, 83)" fill-opacity=" .5" d="M 202 201.1 C 208.6 201.1 208.6 211.1 202 211.1 C 195.3 211.1 195.3 201.1 202 201.1 Z"></path><path fill="rgb(223, 83, 83)" fill-opacity=" .5" d="M 139 169.1 C 145.6 169.1 145.6 179.1 139 179.1 C 132.3 179.1 132.3 169.1 139 169.1 Z"></path><path fill="rgb(223, 83, 83)" fill-opacity=" .5" d="M 126 212.1 C 132.6 212.1 132.6 222.1 126 222.1 C 119.3 222.1 119.3 212.1 126 212.1 Z"></path><path fill="rgb(223, 83, 83)" fill-opacity=" .5" d="M 276 181.5 C 282.6 181.5 282.6 191.5 276 191.5 C 269.3 191.5 269.3 181.5 276 181.5 Z"></path><path fill="rgb(223, 83, 83)" fill-opacity=" .5" d="M 196 194.9 C 202.6 194.9 202.6 204.9 196 204.9 C 189.3 204.9 189.3 194.9 196 194.9 Z"></path><path fill="rgb(223, 83, 83)" fill-opacity=" .5" d="M 147 189.2 C 153.6 189.2 153.6 199.2 147 199.2 C 140.3 199.2 140.3 189.2 147 189.2 Z"></path><path fill="rgb(223, 83, 83)" fill-opacity=" .5" d="M 80 222.6 C 86.6 222.6 86.6 232.6 80 232.6 C 73.3 232.6 73.3 222.6 80 222.6 Z"></path><path fill="rgb(223, 83, 83)" fill-opacity=" .5" d="M 179 185.8 C 185.6 185.8 185.6 195.8 179 195.8 C 172.3 195.8 172.3 185.8 179 185.8 Z"></path><path fill="rgb(223, 83, 83)" fill-opacity=" .5" d="M 187 209.7 C 193.6 209.7 193.6 219.7 187 219.7 C 180.3 219.7 180.3 209.7 187 209.7 Z"></path><path fill="rgb(223, 83, 83)" fill-opacity=" .5" d="M 196 200.6 C 202.6 200.6 202.6 210.6 196 210.6 C 189.3 210.6 189.3 200.6 196 200.6 Z"></path><path fill="rgb(223, 83, 83)" fill-opacity=" .5" d="M 169 222.2 C 175.6 222.2 175.6 232.2 169 232.2 C 162.3 232.2 162.3 222.2 169 222.2 Z"></path><path fill="rgb(223, 83, 83)" fill-opacity=" .5" d="M 179 197.8 C 185.6 197.8 185.6 207.8 179 207.8 C 172.3 207.8 172.3 197.8 179 197.8 Z"></path><path fill="rgb(223, 83, 83)" fill-opacity=" .5" d="M 233 179.1 C 239.6 179.1 239.6 189.1 233 189.1 C 226.3 189.1 226.3 179.1 233 179.1 Z"></path><path fill="rgb(223, 83, 83)" fill-opacity=" .5" d="M 164 215.9 C 170.6 215.9 170.6 225.9 164 225.9 C 157.3 225.9 157.3 215.9 164 215.9 Z"></path><path fill="rgb(223, 83, 83)" fill-opacity=" .5" d="M 234 188.7 C 240.6 188.7 240.6 198.7 234 198.7 C 227.3 198.7 227.3 188.7 234 188.7 Z"></path><path fill="rgb(223, 83, 83)" fill-opacity=" .5" d="M 248 178.2 C 254.6 178.2 254.6 188.2 248 188.2 C 241.3 188.2 241.3 178.2 248 178.2 Z"></path><path fill="rgb(223, 83, 83)" fill-opacity=" .5" d="M 198 205.9 C 204.6 205.9 204.6 215.9 198 215.9 C 191.3 215.9 191.3 205.9 198 205.9 Z"></path><path fill="rgb(223, 83, 83)" fill-opacity=" .5" d="M 276 78.2 C 282.6 78.2 282.6 88.2 276 88.2 C 269.3 88.2 269.3 78.2 276 78.2 Z"></path><path fill="rgb(223, 83, 83)" fill-opacity=" .5" d="M 226 194.4 C 232.6 194.4 232.6 204.4 226 204.4 C 219.3 204.4 219.3 194.4 226 194.4 Z"></path><path fill="rgb(223, 83, 83)" fill-opacity=" .5" d="M 240 173.8 C 246.6 173.8 246.6 183.8 240 183.8 C 233.3 183.8 233.3 173.8 240 173.8 Z"></path><path fill="rgb(223, 83, 83)" fill-opacity=" .5" d="M 194 157.6 C 200.6 157.6 200.6 167.6 194 167.6 C 187.3 167.6 187.3 157.6 194 157.6 Z"></path><path fill="rgb(223, 83, 83)" fill-opacity=" .5" d="M 205 186.8 C 211.6 186.8 211.6 196.8 205 196.8 C 198.3 196.8 198.3 186.8 205 186.8 Z"></path><path fill="rgb(223, 83, 83)" fill-opacity=" .5" d="M 321 160.9 C 327.6 160.9 327.6 170.9 321 170.9 C 314.3 170.9 314.3 160.9 321 160.9 Z"></path><path fill="rgb(223, 83, 83)" fill-opacity=" .5" d="M 268 195.4 C 274.6 195.4 274.6 205.4 268 205.4 C 261.3 205.4 261.3 195.4 268 195.4 Z"></path><path fill="rgb(223, 83, 83)" fill-opacity=" .5" d="M 280 190.1 C 286.6 190.1 286.6 200.1 280 200.1 C 273.3 200.1 273.3 190.1 280 190.1 Z"></path><path fill="rgb(223, 83, 83)" fill-opacity=" .5" d="M 244 164.8 C 250.6 164.8 250.6 174.8 244 174.8 C 237.3 174.8 237.3 164.8 244 164.8 Z"></path><path fill="rgb(223, 83, 83)" fill-opacity=" .5" d="M 238 202.1 C 244.6 202.1 244.6 212.1 238 212.1 C 231.3 212.1 231.3 202.1 238 202.1 Z"></path><path fill="rgb(223, 83, 83)" fill-opacity=" .5" d="M 93 154.7 C 99.6 154.7 99.6 164.7 93 164.7 C 86.3 164.7 86.3 154.7 93 154.7 Z"></path><path fill="rgb(223, 83, 83)" fill-opacity=" .5" d="M 177 201.6 C 183.6 201.6 183.6 211.6 177 211.6 C 170.3 211.6 170.3 201.6 177 201.6 Z"></path><path fill="rgb(223, 83, 83)" fill-opacity=" .5" d="M 193 187.7 C 199.6 187.7 199.6 197.7 193 197.7 C 186.3 197.7 186.3 187.7 193 187.7 Z"></path><path fill="rgb(223, 83, 83)" fill-opacity=" .5" d="M 336 170.0 C 342.6 170.0 342.6 180.0 336 180.0 C 329.3 180.0 329.3 170.0 336 170.0 Z"></path><path fill="rgb(223, 83, 83)" fill-opacity=" .5" d="M 160 196.8 C 166.6 196.8 166.6 206.8 160 206.8 C 153.3 206.8 153.3 196.8 160 196.8 Z"></path><path fill="rgb(223, 83, 83)" fill-opacity=" .5" d="M 192 191.5 C 198.6 191.5 198.6 201.5 192 201.5 C 185.3 201.5 185.3 191.5 192 191.5 Z"></path><path fill="rgb(223, 83, 83)" fill-opacity=" .5" d="M 160 213.5 C 166.6 213.5 166.6 223.5 160 223.5 C 153.3 223.5 153.3 213.5 160 213.5 Z"></path><path fill="rgb(223, 83, 83)" fill-opacity=" .5" d="M 190 204.9 C 196.6 204.9 196.6 214.9 190 214.9 C 183.3 214.9 183.3 204.9 190 204.9 Z"></path><path fill="rgb(223, 83, 83)" fill-opacity=" .5" d="M 163 220.5 C 169.6 220.5 169.6 230.5 163 230.5 C 156.3 230.5 156.3 220.5 163 220.5 Z"></path><path fill="rgb(223, 83, 83)" fill-opacity=" .5" d="M 221 189.6 C 227.6 189.6 227.6 199.6 221 199.6 C 214.3 199.6 214.3 189.6 221 189.6 Z"></path><path fill="rgb(223, 83, 83)" fill-opacity=" .5" d="M 245 190.6 C 251.6 190.6 251.6 200.6 245 200.6 C 238.3 200.6 238.3 190.6 245 190.6 Z"></path><path fill="rgb(223, 83, 83)" fill-opacity=" .5" d="M 180 178.2 C 186.6 178.2 186.6 188.2 180 188.2 C 173.3 188.2 173.3 178.2 180 178.2 Z"></path><path fill="rgb(223, 83, 83)" fill-opacity=" .5" d="M 253 196.1 C 259.6 196.1 259.6 206.1 253 206.1 C 246.3 206.1 246.3 196.1 253 196.1 Z"></path><path fill="rgb(223, 83, 83)" fill-opacity=" .5" d="M 280 164.3 C 286.6 164.3 286.6 174.3 280 174.3 C 273.3 174.3 273.3 164.3 280 164.3 Z"></path><path fill="rgb(223, 83, 83)" fill-opacity=" .5" d="M 167 210.2 C 173.6 210.2 173.6 220.2 167 220.2 C 160.3 220.2 160.3 210.2 167 210.2 Z"></path><path fill="rgb(223, 83, 83)" fill-opacity=" .5" d="M 122 212.6 C 128.6 212.6 128.6 222.6 122 222.6 C 115.3 222.6 115.3 212.6 122 212.6 Z"></path><path fill="rgb(223, 83, 83)" fill-opacity=" .5" d="M 196 186.8 C 202.6 186.8 202.6 196.8 196 196.8 C 189.3 196.8 189.3 186.8 196 186.8 Z"></path><path fill="rgb(223, 83, 83)" fill-opacity=" .5" d="M 249 203.5 C 255.6 203.5 255.6 213.5 249 213.5 C 242.3 213.5 242.3 203.5 249 203.5 Z"></path><path fill="rgb(223, 83, 83)" fill-opacity=" .5" d="M 203 158.5 C 209.6 158.5 209.6 168.5 203 168.5 C 196.3 168.5 196.3 158.5 203 158.5 Z"></path><path fill="rgb(223, 83, 83)" fill-opacity=" .5" d="M 256 174.8 C 262.6 174.8 262.6 184.8 256 184.8 C 249.3 184.8 249.3 174.8 256 174.8 Z"></path><path fill="rgb(223, 83, 83)" fill-opacity=" .5" d="M 190 190.6 C 196.6 190.6 196.6 200.6 190 200.6 C 183.3 200.6 183.3 190.6 190 190.6 Z"></path><path fill="rgb(223, 83, 83)" fill-opacity=" .5" d="M 253 163.8 C 259.6 163.8 259.6 173.8 253 173.8 C 246.3 173.8 246.3 163.8 253 163.8 Z"></path><path fill="rgb(223, 83, 83)" fill-opacity=" .5" d="M 305 169.1 C 311.6 169.1 311.6 179.1 305 179.1 C 298.3 179.1 298.3 169.1 305 169.1 Z"></path><path fill="rgb(223, 83, 83)" fill-opacity=" .5" d="M 253 160.9 C 259.6 160.9 259.6 170.9 253 170.9 C 246.3 170.9 246.3 160.9 253 160.9 Z"></path><path fill="rgb(223, 83, 83)" fill-opacity=" .5" d="M 126 220.0 C 132.6 220.0 132.6 230.0 126 230.0 C 119.3 230.0 119.3 220.0 126 220.0 Z"></path><path fill="rgb(223, 83, 83)" fill-opacity=" .5" d="M 179 198.7 C 185.6 198.7 185.6 208.7 179 208.7 C 172.3 208.7 172.3 198.7 179 198.7 Z"></path><path fill="rgb(223, 83, 83)" fill-opacity=" .5" d="M 202 196.6 C 208.6 196.6 208.6 206.6 202 206.6 C 195.3 206.6 195.3 196.6 202 196.6 Z"></path><path fill="rgb(223, 83, 83)" fill-opacity=" .5" d="M 245 180.3 C 251.6 180.3 251.6 190.3 245 190.3 C 238.3 190.3 238.3 180.3 245 180.3 Z"></path><path fill="rgb(223, 83, 83)" fill-opacity=" .5" d="M 101 188.0 C 107.6 188.0 107.6 198.0 101 198.0 C 94.3 198.0 94.3 188.0 101 188.0 Z"></path><path fill="rgb(223, 83, 83)" fill-opacity=" .5" d="M 198 210.2 C 204.6 210.2 204.6 220.2 198 220.2 C 191.3 220.2 191.3 210.2 198 210.2 Z"></path><path fill="rgb(223, 83, 83)" fill-opacity=" .5" d="M 207 204.7 C 213.6 204.7 213.6 214.7 207 214.7 C 200.3 214.7 200.3 204.7 207 204.7 Z"></path><path fill="rgb(223, 83, 83)" fill-opacity=" .5" d="M 93 213.3 C 99.6 213.3 99.6 223.3 93 223.3 C 86.3 223.3 86.3 213.3 93 213.3 Z"></path><path fill="rgb(223, 83, 83)" fill-opacity=" .5" d="M 233 196.6 C 239.6 196.6 239.6 206.6 233 206.6 C 226.3 206.6 226.3 196.6 233 196.6 Z"></path><path fill="rgb(223, 83, 83)" fill-opacity=" .5" d="M 276 183.7 C 282.6 183.7 282.6 193.7 276 193.7 C 269.3 193.7 269.3 183.7 276 183.7 Z"></path><path fill="rgb(223, 83, 83)" fill-opacity=" .5" d="M 287 148.7 C 293.6 148.7 293.6 158.7 287 158.7 C 280.3 158.7 280.3 148.7 287 148.7 Z"></path><path fill="rgb(223, 83, 83)" fill-opacity=" .5" d="M 219 202.5 C 225.6 202.5 225.6 212.5 219 212.5 C 212.3 212.5 212.3 202.5 219 202.5 Z"></path><path fill="rgb(223, 83, 83)" fill-opacity=" .5" d="M 185 199.0 C 191.6 199.0 191.6 209.0 185 209.0 C 178.3 209.0 178.3 199.0 185 199.0 Z"></path><path fill="rgb(223, 83, 83)" fill-opacity=" .5" d="M 177 138.5 C 183.6 138.5 183.6 148.5 177 148.5 C 170.3 148.5 170.3 138.5 177 138.5 Z"></path><path fill="rgb(223, 83, 83)" fill-opacity=" .5" d="M 217 155.0 C 223.6 155.0 223.6 165.0 217 165.0 C 210.3 165.0 210.3 155.0 217 155.0 Z"></path><path fill="rgb(223, 83, 83)" fill-opacity=" .5" d="M 194 181.5 C 200.6 181.5 200.6 191.5 194 191.5 C 187.3 191.5 187.3 181.5 194 181.5 Z"></path><path fill="rgb(223, 83, 83)" fill-opacity=" .5" d="M 169 152.1 C 175.6 152.1 175.6 162.1 169 162.1 C 162.3 162.1 162.3 152.1 169 152.1 Z"></path><path fill="rgb(223, 83, 83)" fill-opacity=" .5" d="M 135 203.7 C 141.6 203.7 141.6 213.7 135 213.7 C 128.3 213.7 128.3 203.7 135 203.7 Z"></path><path fill="rgb(223, 83, 83)" fill-opacity=" .5" d="M 207 185.6 C 213.6 185.6 213.6 195.6 207 195.6 C 200.3 195.6 200.3 185.6 207 185.6 Z"></path><path fill="rgb(223, 83, 83)" fill-opacity=" .5" d="M 211 181.5 C 217.6 181.5 217.6 191.5 211 191.5 C 204.3 191.5 204.3 181.5 211 181.5 Z"></path><path fill="rgb(223, 83, 83)" fill-opacity=" .5" d="M 215 186.3 C 221.6 186.3 221.6 196.3 215 196.3 C 208.3 196.3 208.3 186.3 215 186.3 Z"></path><path fill="rgb(223, 83, 83)" fill-opacity=" .5" d="M 340 184.6 C 346.6 184.6 346.6 194.6 340 194.6 C 333.3 194.6 333.3 184.6 340 184.6 Z"></path><path fill="rgb(223, 83, 83)" fill-opacity=" .5" d="M 239 198.7 C 245.6 198.7 245.6 208.7 239 208.7 C 232.3 208.7 232.3 198.7 239 198.7 Z"></path><path fill="rgb(223, 83, 83)" fill-opacity=" .5" d="M 147 199.9 C 153.6 199.9 153.6 209.9 147 209.9 C 140.3 209.9 140.3 199.9 147 199.9 Z"></path><path fill="rgb(223, 83, 83)" fill-opacity=" .5" d="M 104 218.6 C 110.6 218.6 110.6 228.6 104 228.6 C 97.3 228.6 97.3 218.6 104 218.6 Z"></path><path fill="rgb(223, 83, 83)" fill-opacity=" .5" d="M 196 196.1 C 202.6 196.1 202.6 206.1 196 206.1 C 189.3 206.1 189.3 196.1 196 196.1 Z"></path><path fill="rgb(223, 83, 83)" fill-opacity=" .5" d="M 174 164.5 C 180.6 164.5 180.6 174.5 174 174.5 C 167.3 174.5 167.3 164.5 174 164.5 Z"></path><path fill="rgb(223, 83, 83)" fill-opacity=" .5" d="M 233 183.9 C 239.6 183.9 239.6 193.9 233 193.9 C 226.3 193.9 226.3 183.9 233 183.9 Z"></path><path fill="rgb(223, 83, 83)" fill-opacity=" .5" d="M 147 186.8 C 153.6 186.8 153.6 196.8 147 196.8 C 140.3 196.8 140.3 186.8 147 186.8 Z"></path><path fill="rgb(223, 83, 83)" fill-opacity=" .5" d="M 253 155.4 C 259.6 155.4 259.6 165.4 253 165.4 C 246.3 165.4 246.3 155.4 253 155.4 Z"></path><path fill="rgb(223, 83, 83)" fill-opacity=" .5" d="M 169 209.7 C 175.6 209.7 175.6 219.7 169 219.7 C 162.3 219.7 162.3 209.7 169 209.7 Z"></path><path fill="rgb(223, 83, 83)" fill-opacity=" .5" d="M 212 195.4 C 218.6 195.4 218.6 205.4 212 205.4 C 205.3 205.4 205.3 195.4 212 195.4 Z"></path><path fill="rgb(223, 83, 83)" fill-opacity=" .5" d="M 233 190.3 C 239.6 190.3 239.6 200.3 233 200.3 C 226.3 200.3 226.3 190.3 233 190.3 Z"></path><path fill="rgb(223, 83, 83)" fill-opacity=" .5" d="M 179 185.6 C 185.6 185.6 185.6 195.6 179 195.6 C 172.3 195.6 172.3 185.6 179 185.6 Z"></path><path fill="rgb(223, 83, 83)" fill-opacity=" .5" d="M 169 209.7 C 175.6 209.7 175.6 219.7 169 219.7 C 162.3 219.7 162.3 209.7 169 209.7 Z"></path><path fill="rgb(223, 83, 83)" fill-opacity=" .5" d="M 233 199.4 C 239.6 199.4 239.6 209.4 233 209.4 C 226.3 209.4 226.3 199.4 233 199.4 Z"></path><path fill="rgb(223, 83, 83)" fill-opacity=" .5" d="M 201 189.9 C 207.6 189.9 207.6 199.9 201 199.9 C 194.3 199.9 194.3 189.9 201 189.9 Z"></path><path fill="rgb(223, 83, 83)" fill-opacity=" .5" d="M 244 180.8 C 250.6 180.8 250.6 190.8 244 190.8 C 237.3 190.8 237.3 180.8 244 180.8 Z"></path><path fill="rgb(223, 83, 83)" fill-opacity=" .5" d="M 223 194.4 C 229.6 194.4 229.6 204.4 223 204.4 C 216.3 204.4 216.3 194.4 223 194.4 Z"></path><path fill="rgb(223, 83, 83)" fill-opacity=" .5" d="M 179 167.4 C 185.6 167.4 185.6 177.4 179 177.4 C 172.3 177.4 172.3 167.4 179 167.4 Z"></path><path fill="rgb(223, 83, 83)" fill-opacity=" .5" d="M 170 205.2 C 176.6 205.2 176.6 215.2 170 215.2 C 163.3 215.2 163.3 205.2 170 205.2 Z"></path><path fill="rgb(223, 83, 83)" fill-opacity=" .5" d="M 253 154.7 C 259.6 154.7 259.6 164.7 253 164.7 C 246.3 164.7 246.3 154.7 253 154.7 Z"></path><path fill="rgb(223, 83, 83)" fill-opacity=" .5" d="M 186 201.6 C 192.6 201.6 192.6 211.6 186 211.6 C 179.3 211.6 179.3 201.6 186 201.6 Z"></path><path fill="rgb(223, 83, 83)" fill-opacity=" .5" d="M 101 220.2 C 107.6 220.2 107.6 230.2 101 230.2 C 94.3 230.2 94.3 220.2 101 220.2 Z"></path><path fill="rgb(223, 83, 83)" fill-opacity=" .5" d="M 169 199.7 C 175.6 199.7 175.6 209.7 169 209.7 C 162.3 209.7 162.3 199.7 169 199.7 Z"></path><path fill="rgb(223, 83, 83)" fill-opacity=" .5" d="M 308 131.3 C 314.6 131.3 314.6 141.3 308 141.3 C 301.3 141.3 301.3 131.3 308 131.3 Z"></path><path fill="rgb(223, 83, 83)" fill-opacity=" .5" d="M 185 198.2 C 191.6 198.2 191.6 208.2 185 208.2 C 178.3 208.2 178.3 198.2 185 198.2 Z"></path><path fill="rgb(223, 83, 83)" fill-opacity=" .5" d="M 121 219.3 C 127.6 219.3 127.6 229.3 121 229.3 C 114.3 229.3 114.3 219.3 121 219.3 Z"></path><path fill="rgb(223, 83, 83)" fill-opacity=" .5" d="M 169 217.4 C 175.6 217.4 175.6 227.4 169 227.4 C 162.3 227.4 162.3 217.4 169 217.4 Z"></path><path fill="rgb(223, 83, 83)" fill-opacity=" .5" d="M 257 167.6 C 263.6 167.6 263.6 177.6 257 177.6 C 250.3 177.6 250.3 167.6 257 167.6 Z"></path><path fill="rgb(223, 83, 83)" fill-opacity=" .5" d="M 337 168.8 C 343.6 168.8 343.6 178.8 337 178.8 C 330.3 178.8 330.3 168.8 337 168.8 Z"></path><path fill="rgb(223, 83, 83)" fill-opacity=" .5" d="M 278 186.8 C 284.6 186.8 284.6 196.8 278 196.8 C 271.3 196.8 271.3 186.8 278 186.8 Z"></path><path fill="rgb(223, 83, 83)" fill-opacity=" .5" d="M 287 199.4 C 293.6 199.4 293.6 209.4 287 209.4 C 280.3 209.4 280.3 199.4 287 199.4 Z"></path><path fill="rgb(223, 83, 83)" fill-opacity=" .5" d="M 255 155.7 C 261.6 155.7 261.6 165.7 255 165.7 C 248.3 165.7 248.3 155.7 255 155.7 Z"></path><path fill="rgb(223, 83, 83)" fill-opacity=" .5" d="M 308 119.8 C 314.6 119.8 314.6 129.8 308 129.8 C 301.3 129.8 301.3 119.8 308 119.8 Z"></path><path fill="rgb(223, 83, 83)" fill-opacity=" .5" d="M 226 193.0 C 232.6 193.0 232.6 203.0 226 203.0 C 219.3 203.0 219.3 193.0 226 193.0 Z"></path><path fill="rgb(223, 83, 83)" fill-opacity=" .5" d="M 295 132.5 C 301.6 132.5 301.6 142.5 295 142.5 C 288.3 142.5 288.3 132.5 295 132.5 Z"></path><path fill="rgb(223, 83, 83)" fill-opacity=" .5" d="M 164 208.8 C 170.6 208.8 170.6 218.8 164 218.8 C 157.3 218.8 157.3 208.8 164 208.8 Z"></path><path fill="rgb(223, 83, 83)" fill-opacity=" .5" d="M 233 165.2 C 239.6 165.2 239.6 175.2 233 175.2 C 226.3 175.2 226.3 165.2 233 165.2 Z"></path><path fill="rgb(223, 83, 83)" fill-opacity=" .5" d="M 143 215.5 C 149.6 215.5 149.6 225.5 143 225.5 C 136.3 225.5 136.3 215.5 143 215.5 Z"></path><path fill="rgb(223, 83, 83)" fill-opacity=" .5" d="M 295 154.7 C 301.6 154.7 301.6 164.7 295 164.7 C 288.3 164.7 288.3 154.7 295 154.7 Z"></path><path fill="rgb(223, 83, 83)" fill-opacity=" .5" d="M 238 212.1 C 244.6 212.1 244.6 222.1 238 222.1 C 231.3 222.1 231.3 212.1 238 212.1 Z"></path><path fill="rgb(223, 83, 83)" fill-opacity=" .5" d="M 60 210.7 C 66.6 210.7 66.6 220.7 60 220.7 C 53.3 220.7 53.3 210.7 60 210.7 Z"></path><path fill="rgb(223, 83, 83)" fill-opacity=" .5" d="M 169 210.2 C 175.6 210.2 175.6 220.2 169 220.2 C 162.3 220.2 162.3 210.2 169 210.2 Z"></path><path fill="rgb(223, 83, 83)" fill-opacity=" .5" d="M 113 229.3 C 119.6 229.3 119.6 239.3 113 239.3 C 106.3 239.3 106.3 229.3 113 229.3 Z"></path><path fill="rgb(223, 83, 83)" fill-opacity=" .5" d="M 278 180.3 C 284.6 180.3 284.6 190.3 278 190.3 C 271.3 190.3 271.3 180.3 278 180.3 Z"></path><path fill="rgb(223, 83, 83)" fill-opacity=" .5" d="M 261 200.2 C 267.6 200.2 267.6 210.2 261 210.2 C 254.3 210.2 254.3 200.2 261 200.2 Z"></path><path fill="rgb(223, 83, 83)" fill-opacity=" .5" d="M 274 197.8 C 280.6 197.8 280.6 207.8 274 207.8 C 267.3 207.8 267.3 197.8 274 197.8 Z"></path><path fill="rgb(223, 83, 83)" fill-opacity=" .5" d="M 170 149.9 C 176.6 149.9 176.6 159.9 170 159.9 C 163.3 159.9 163.3 149.9 170 149.9 Z"></path><path fill="rgb(223, 83, 83)" fill-opacity=" .5" d="M 305 170.0 C 311.6 170.0 311.6 180.0 305 180.0 C 298.3 180.0 298.3 170.0 305 170.0 Z"></path><path fill="rgb(223, 83, 83)" fill-opacity=" .5" d="M 219 162.8 C 225.6 162.8 225.6 172.8 219 172.8 C 212.3 172.8 212.3 162.8 219 162.8 Z"></path><path fill="rgb(223, 83, 83)" fill-opacity=" .5" d="M 161 215.9 C 167.6 215.9 167.6 225.9 161 225.9 C 154.3 225.9 154.3 215.9 161 215.9 Z"></path><path fill="rgb(223, 83, 83)" fill-opacity=" .5" d="M 253 188.7 C 259.6 188.7 259.6 198.7 253 198.7 C 246.3 198.7 246.3 188.7 253 188.7 Z"></path><path fill="rgb(223, 83, 83)" fill-opacity=" .5" d="M 133 201.6 C 139.6 201.6 139.6 211.6 133 211.6 C 126.3 211.6 126.3 201.6 133 201.6 Z"></path><path fill="rgb(223, 83, 83)" fill-opacity=" .5" d="M 143 179.1 C 149.6 179.1 149.6 189.1 143 189.1 C 136.3 189.1 136.3 179.1 143 179.1 Z"></path><path fill="rgb(223, 83, 83)" fill-opacity=" .5" d="M 164 212.1 C 170.6 212.1 170.6 222.1 164 222.1 C 157.3 222.1 157.3 212.1 164 212.1 Z"></path><path fill="rgb(223, 83, 83)" fill-opacity=" .5" d="M 232 188.7 C 238.6 188.7 238.6 198.7 232 198.7 C 225.3 198.7 225.3 188.7 232 188.7 Z"></path><path fill="rgb(223, 83, 83)" fill-opacity=" .5" d="M 179 206.4 C 185.6 206.4 185.6 216.4 179 216.4 C 172.3 216.4 172.3 206.4 179 206.4 Z"></path></g><g class="highcharts-series highcharts-tracker" visibility="visible"  transform="translate(67,58) scale(1 1)" clip-path="url(#highcharts-3)" style=""></g><g class="highcharts-markers highcharts-tracker" visibility="visible"  transform="translate(67,58) scale(1 1)" clip-path="url(#highcharts-2)" style=""><path fill="rgb(119, 152, 191)" fill-opacity=" .5" d="M 340 130.8 L 345 135.8 340 140.8 335 135.8 Z"></path><path fill="rgb(119, 152, 191)" fill-opacity=" .5" d="M 340 130.8 L 345 135.8 340 140.8 335 135.8 Z"></path><path fill="rgb(119, 152, 191)" fill-opacity=" .5" d="M 319 128.6 L 324 133.6 319 138.6 314 133.6 Z"></path><path fill="rgb(119, 152, 191)" fill-opacity=" .5" d="M 426 94.9 L 431 99.9 426 104.9 421 99.9 Z"></path><path fill="rgb(119, 152, 191)" fill-opacity=" .5" d="M 330 140.6 L 335 145.6 330 150.6 325 145.6 Z"></path><path fill="rgb(119, 152, 191)" fill-opacity=" .5" d="M 319 132.0 L 324 137.0 319 142.0 314 137.0 Z"></path><path fill="rgb(119, 152, 191)" fill-opacity=" .5" d="M 255 180.8 L 260 185.8 255 190.8 250 185.8 Z"></path><path fill="rgb(119, 152, 191)" fill-opacity=" .5" d="M 330 116.7 L 335 121.7 330 126.7 325 121.7 Z"></path><path fill="rgb(119, 152, 191)" fill-opacity=" .5" d="M 363 112.4 L 368 117.4 363 122.4 358 117.4 Z"></path><path fill="rgb(119, 152, 191)" fill-opacity=" .5" d="M 363 172.2 L 368 177.2 363 182.2 358 177.2 Z"></path><path fill="rgb(119, 152, 191)" fill-opacity=" .5" d="M 233 147.3 L 238 152.3 233 157.3 228 152.3 Z"></path><path fill="rgb(119, 152, 191)" fill-opacity=" .5" d="M 340 154.7 L 345 159.7 340 164.7 335 159.7 Z"></path><path fill="rgb(119, 152, 191)" fill-opacity=" .5" d="M 405 124.3 L 410 129.3 405 134.3 400 129.3 Z"></path><path fill="rgb(119, 152, 191)" fill-opacity=" .5" d="M 233 152.6 L 238 157.6 233 162.6 228 157.6 Z"></path><path fill="rgb(119, 152, 191)" fill-opacity=" .5" d="M 340 153.8 L 345 158.8 340 163.8 335 158.8 Z"></path><path fill="rgb(119, 152, 191)" fill-opacity=" .5" d="M 308 132.9 L 313 137.9 308 142.9 303 137.9 Z"></path><path fill="rgb(119, 152, 191)" fill-opacity=" .5" d="M 287 138.5 L 292 143.5 287 148.5 282 143.5 Z"></path><path fill="rgb(119, 152, 191)" fill-opacity=" .5" d="M 405 121.0 L 410 126.0 405 131.0 400 126.0 Z"></path><path fill="rgb(119, 152, 191)" fill-opacity=" .5" d="M 233 156.9 L 238 161.9 233 166.9 228 161.9 Z"></path><path fill="rgb(119, 152, 191)" fill-opacity=" .5" d="M 255 144.9 L 260 149.9 255 154.9 250 149.9 Z"></path><path fill="rgb(119, 152, 191)" fill-opacity=" .5" d="M 233 175.5 L 238 180.5 233 185.5 228 180.5 Z"></path><path fill="rgb(119, 152, 191)" fill-opacity=" .5" d="M 287 160.2 L 292 165.2 287 170.2 282 165.2 Z"></path><path fill="rgb(119, 152, 191)" fill-opacity=" .5" d="M 405 104.2 L 410 109.2 405 114.2 400 109.2 Z"></path><path fill="rgb(119, 152, 191)" fill-opacity=" .5" d="M 308 119.6 L 313 124.6 308 129.6 303 124.6 Z"></path><path fill="rgb(119, 152, 191)" fill-opacity=" .5" d="M 330 158.1 L 335 163.1 330 168.1 325 163.1 Z"></path><path fill="rgb(119, 152, 191)" fill-opacity=" .5" d="M 373 144.9 L 378 149.9 373 154.9 368 149.9 Z"></path><path fill="rgb(119, 152, 191)" fill-opacity=" .5" d="M 319 84.6 L 324 89.6 319 94.6 314 89.6 Z"></path><path fill="rgb(119, 152, 191)" fill-opacity=" .5" d="M 362 126.5 L 367 131.5 362 136.5 357 131.5 Z"></path><path fill="rgb(119, 152, 191)" fill-opacity=" .5" d="M 319 146.6 L 324 151.6 319 156.6 314 151.6 Z"></path><path fill="rgb(119, 152, 191)" fill-opacity=" .5" d="M 351 127.7 L 356 132.7 351 137.7 346 132.7 Z"></path><path fill="rgb(119, 152, 191)" fill-opacity=" .5" d="M 330 149.2 L 335 154.2 330 159.2 325 154.2 Z"></path><path fill="rgb(119, 152, 191)" fill-opacity=" .5" d="M 298 134.1 L 303 139.1 298 144.1 293 139.1 Z"></path><path fill="rgb(119, 152, 191)" fill-opacity=" .5" d="M 303 144.0 L 308 149.0 303 154.0 298 149.0 Z"></path><path fill="rgb(119, 152, 191)" fill-opacity=" .5" d="M 298 168.8 L 303 173.8 298 178.8 293 173.8 Z"></path><path fill="rgb(119, 152, 191)" fill-opacity=" .5" d="M 298 111.9 L 303 116.9 298 121.9 293 116.9 Z"></path><path fill="rgb(119, 152, 191)" fill-opacity=" .5" d="M 394 87.3 L 399 92.3 394 97.3 389 92.3 Z"></path><path fill="rgb(119, 152, 191)" fill-opacity=" .5" d="M 233 149.2 L 238 154.2 233 159.2 228 154.2 Z"></path><path fill="rgb(119, 152, 191)" fill-opacity=" .5" d="M 340 117.9 L 345 122.9 340 127.9 335 122.9 Z"></path><path fill="rgb(119, 152, 191)" fill-opacity=" .5" d="M 169 156.9 L 174 161.9 169 166.9 164 161.9 Z"></path><path fill="rgb(119, 152, 191)" fill-opacity=" .5" d="M 362 121.0 L 367 126.0 362 131.0 357 126.0 Z"></path><path fill="rgb(119, 152, 191)" fill-opacity=" .5" d="M 233 170.0 L 238 175.0 233 180.0 228 175.0 Z"></path><path fill="rgb(119, 152, 191)" fill-opacity=" .5" d="M 287 153.0 L 292 158.0 287 163.0 282 158.0 Z"></path><path fill="rgb(119, 152, 191)" fill-opacity=" .5" d="M 340 125.3 L 345 130.3 340 135.3 335 130.3 Z"></path><path fill="rgb(119, 152, 191)" fill-opacity=" .5" d="M 383 129.8 L 388 134.8 383 139.8 378 134.8 Z"></path><path fill="rgb(119, 152, 191)" fill-opacity=" .5" d="M 244 150.4 L 249 155.4 244 160.4 239 155.4 Z"></path><path fill="rgb(119, 152, 191)" fill-opacity=" .5" d="M 383 104.7 L 388 109.7 383 114.7 378 109.7 Z"></path><path fill="rgb(119, 152, 191)" fill-opacity=" .5" d="M 319 182.9 L 324 187.9 319 192.9 314 187.9 Z"></path><path fill="rgb(119, 152, 191)" fill-opacity=" .5" d="M 340 144.0 L 345 149.0 340 154.0 335 149.0 Z"></path><path fill="rgb(119, 152, 191)" fill-opacity=" .5" d="M 405 106.9 L 410 111.9 405 116.9 400 111.9 Z"></path><path fill="rgb(119, 152, 191)" fill-opacity=" .5" d="M 260 106.9 L 265 111.9 260 116.9 255 111.9 Z"></path><path fill="rgb(119, 152, 191)" fill-opacity=" .5" d="M 362 150.4 L 367 155.4 362 160.4 357 155.4 Z"></path><path fill="rgb(119, 152, 191)" fill-opacity=" .5" d="M 298 160.2 L 303 165.2 298 170.2 293 165.2 Z"></path><path fill="rgb(119, 152, 191)" fill-opacity=" .5" d="M 319 105.9 L 324 110.9 319 115.9 314 110.9 Z"></path><path fill="rgb(119, 152, 191)" fill-opacity=" .5" d="M 330 108.1 L 335 113.1 330 118.1 325 113.1 Z"></path><path fill="rgb(119, 152, 191)" fill-opacity=" .5" d="M 257 167.9 L 262 172.9 257 177.9 252 172.9 Z"></path><path fill="rgb(119, 152, 191)" fill-opacity=" .5" d="M 298 123.1 L 303 128.1 298 133.1 293 128.1 Z"></path><path fill="rgb(119, 152, 191)" fill-opacity=" .5" d="M 405 132.0 L 410 137.0 405 142.0 400 137.0 Z"></path><path fill="rgb(119, 152, 191)" fill-opacity=" .5" d="M 405 137.3 L 410 142.3 405 147.3 400 142.3 Z"></path><path fill="rgb(119, 152, 191)" fill-opacity=" .5" d="M 298 153.8 L 303 158.8 298 163.8 293 158.8 Z"></path><path fill="rgb(119, 152, 191)" fill-opacity=" .5" d="M 298 164.5 L 303 169.5 298 174.5 293 169.5 Z"></path><path fill="rgb(119, 152, 191)" fill-opacity=" .5" d="M 308 126.5 L 313 131.5 308 136.5 303 131.5 Z"></path><path fill="rgb(119, 152, 191)" fill-opacity=" .5" d="M 362 116.7 L 367 121.7 362 126.7 357 121.7 Z"></path><path fill="rgb(119, 152, 191)" fill-opacity=" .5" d="M 405 111.2 L 410 116.2 405 121.2 400 116.2 Z"></path><path fill="rgb(119, 152, 191)" fill-opacity=" .5" d="M 405 113.3 L 410 118.3 405 123.3 400 118.3 Z"></path><path fill="rgb(119, 152, 191)" fill-opacity=" .5" d="M 383 128.6 L 388 133.6 383 138.6 378 133.6 Z"></path><path fill="rgb(119, 152, 191)" fill-opacity=" .5" d="M 383 134.1 L 388 139.1 383 144.1 378 139.1 Z"></path><path fill="rgb(119, 152, 191)" fill-opacity=" .5" d="M 265 162.4 L 270 167.4 265 172.4 260 167.4 Z"></path><path fill="rgb(119, 152, 191)" fill-opacity=" .5" d="M 319 137.3 L 324 142.3 319 147.3 314 142.3 Z"></path><path fill="rgb(119, 152, 191)" fill-opacity=" .5" d="M 287 132.5 L 292 137.5 287 142.5 282 137.5 Z"></path><path fill="rgb(119, 152, 191)" fill-opacity=" .5" d="M 319 134.1 L 324 139.1 319 144.1 314 139.1 Z"></path><path fill="rgb(119, 152, 191)" fill-opacity=" .5" d="M 405 124.3 L 410 129.3 405 134.3 400 129.3 Z"></path><path fill="rgb(119, 152, 191)" fill-opacity=" .5" d="M 405 128.6 L 410 133.6 405 138.6 400 133.6 Z"></path><path fill="rgb(119, 152, 191)" fill-opacity=" .5" d="M 394 110.2 L 399 115.2 394 120.2 389 115.2 Z"></path><path fill="rgb(119, 152, 191)" fill-opacity=" .5" d="M 308 153.8 L 313 158.8 308 163.8 303 158.8 Z"></path><path fill="rgb(119, 152, 191)" fill-opacity=" .5" d="M 362 139.6 L 367 144.6 362 149.6 357 144.6 Z"></path><path fill="rgb(119, 152, 191)" fill-opacity=" .5" d="M 340 149.2 L 345 154.2 340 159.2 335 154.2 Z"></path><path fill="rgb(119, 152, 191)" fill-opacity=" .5" d="M 233 132.0 L 238 137.0 233 142.0 228 137.0 Z"></path><path fill="rgb(119, 152, 191)" fill-opacity=" .5" d="M 233 164.5 L 238 169.5 233 174.5 228 169.5 Z"></path><path fill="rgb(119, 152, 191)" fill-opacity=" .5" d="M 319 98.3 L 324 103.3 319 108.3 314 103.3 Z"></path><path fill="rgb(119, 152, 191)" fill-opacity=" .5" d="M 319 134.1 L 324 139.1 319 144.1 314 139.1 Z"></path><path fill="rgb(119, 152, 191)" fill-opacity=" .5" d="M 265 111.2 L 270 116.2 265 121.2 260 116.2 Z"></path><path fill="rgb(119, 152, 191)" fill-opacity=" .5" d="M 447 100.4 L 452 105.4 447 110.4 442 105.4 Z"></path><path fill="rgb(119, 152, 191)" fill-opacity=" .5" d="M 255 172.2 L 260 177.2 255 182.2 250 177.2 Z"></path><path fill="rgb(119, 152, 191)" fill-opacity=" .5" d="M 298 158.1 L 303 163.1 298 168.1 293 163.1 Z"></path><path fill="rgb(119, 152, 191)" fill-opacity=" .5" d="M 330 121.0 L 335 126.0 330 131.0 325 126.0 Z"></path><path fill="rgb(119, 152, 191)" fill-opacity=" .5" d="M 426 128.6 L 431 133.6 426 138.6 421 133.6 Z"></path><path fill="rgb(119, 152, 191)" fill-opacity=" .5" d="M 276 100.4 L 281 105.4 276 110.4 271 105.4 Z"></path><path fill="rgb(119, 152, 191)" fill-opacity=" .5" d="M 351 161.2 L 356 166.2 351 171.2 346 166.2 Z"></path><path fill="rgb(119, 152, 191)" fill-opacity=" .5" d="M 383 85.1 L 388 90.1 383 95.1 378 90.1 Z"></path><path fill="rgb(119, 152, 191)" fill-opacity=" .5" d="M 212 171.0 L 217 176.0 212 181.0 207 176.0 Z"></path><path fill="rgb(119, 152, 191)" fill-opacity=" .5" d="M 298 167.9 L 303 172.9 298 177.9 293 172.9 Z"></path><path fill="rgb(119, 152, 191)" fill-opacity=" .5" d="M 233 165.7 L 238 170.7 233 175.7 228 170.7 Z"></path><path fill="rgb(119, 152, 191)" fill-opacity=" .5" d="M 255 125.3 L 260 130.3 255 135.3 250 130.3 Z"></path><path fill="rgb(119, 152, 191)" fill-opacity=" .5" d="M 362 136.3 L 367 141.3 362 146.3 357 141.3 Z"></path><path fill="rgb(119, 152, 191)" fill-opacity=" .5" d="M 319 136.3 L 324 141.3 319 146.3 314 141.3 Z"></path><path fill="rgb(119, 152, 191)" fill-opacity=" .5" d="M 319 177.7 L 324 182.7 319 187.7 314 182.7 Z"></path><path fill="rgb(119, 152, 191)" fill-opacity=" .5" d="M 276 146.1 L 281 151.1 276 156.1 271 151.1 Z"></path><path fill="rgb(119, 152, 191)" fill-opacity=" .5" d="M 276 128.6 L 281 133.6 276 138.6 271 133.6 Z"></path><path fill="rgb(119, 152, 191)" fill-opacity=" .5" d="M 265 155.9 L 270 160.9 265 165.9 260 160.9 Z"></path><path fill="rgb(119, 152, 191)" fill-opacity=" .5" d="M 340 159.0 L 345 164.0 340 169.0 335 164.0 Z"></path><path fill="rgb(119, 152, 191)" fill-opacity=" .5" d="M 319 157.6 L 324 162.6 319 167.6 314 162.6 Z"></path><path fill="rgb(119, 152, 191)" fill-opacity=" .5" d="M 308 138.0 L 313 143.0 308 148.0 303 143.0 Z"></path><path fill="rgb(119, 152, 191)" fill-opacity=" .5" d="M 373 103.8 L 378 108.8 373 113.8 368 108.8 Z"></path><path fill="rgb(119, 152, 191)" fill-opacity=" .5" d="M 319 120.0 L 324 125.0 319 130.0 314 125.0 Z"></path><path fill="rgb(119, 152, 191)" fill-opacity=" .5" d="M 426 136.3 L 431 141.3 426 146.3 421 141.3 Z"></path><path fill="rgb(119, 152, 191)" fill-opacity=" .5" d="M 319 123.1 L 324 128.1 319 133.1 314 128.1 Z"></path><path fill="rgb(119, 152, 191)" fill-opacity=" .5" d="M 426 70.0 L 431 75.0 426 80.0 421 75.0 Z"></path><path fill="rgb(119, 152, 191)" fill-opacity=" .5" d="M 255 164.5 L 260 169.5 255 174.5 250 169.5 Z"></path><path fill="rgb(119, 152, 191)" fill-opacity=" .5" d="M 298 175.5 L 303 180.5 298 185.5 293 180.5 Z"></path><path fill="rgb(119, 152, 191)" fill-opacity=" .5" d="M 233 127.7 L 238 132.7 233 137.7 228 132.7 Z"></path><path fill="rgb(119, 152, 191)" fill-opacity=" .5" d="M 244 164.5 L 249 169.5 244 174.5 239 169.5 Z"></path><path fill="rgb(119, 152, 191)" fill-opacity=" .5" d="M 383 147.1 L 388 152.1 383 157.1 378 152.1 Z"></path><path fill="rgb(119, 152, 191)" fill-opacity=" .5" d="M 426 153.8 L 431 158.8 426 163.8 421 158.8 Z"></path><path fill="rgb(119, 152, 191)" fill-opacity=" .5" d="M 276 112.4 L 281 117.4 276 122.4 271 117.4 Z"></path><path fill="rgb(119, 152, 191)" fill-opacity=" .5" d="M 335 123.1 L 340 128.1 335 133.1 330 128.1 Z"></path><path fill="rgb(119, 152, 191)" fill-opacity=" .5" d="M 319 144.0 L 324 149.0 319 154.0 314 149.0 Z"></path><path fill="rgb(119, 152, 191)" fill-opacity=" .5" d="M 223 150.4 L 228 155.4 223 160.4 218 155.4 Z"></path><path fill="rgb(119, 152, 191)" fill-opacity=" .5" d="M 426 116.7 L 431 121.7 426 126.7 421 121.7 Z"></path><path fill="rgb(119, 152, 191)" fill-opacity=" .5" d="M 223 124.3 L 228 129.3 223 134.3 218 129.3 Z"></path><path fill="rgb(119, 152, 191)" fill-opacity=" .5" d="M 298 112.4 L 303 117.4 298 122.4 293 117.4 Z"></path><path fill="rgb(119, 152, 191)" fill-opacity=" .5" d="M 490 125.3 L 495 130.3 490 135.3 485 130.3 Z"></path><path fill="rgb(119, 152, 191)" fill-opacity=" .5" d="M 405 129.8 L 410 134.8 405 139.8 400 134.8 Z"></path><path fill="rgb(119, 152, 191)" fill-opacity=" .5" d="M 201 157.1 L 206 162.1 201 167.1 196 162.1 Z"></path><path fill="rgb(119, 152, 191)" fill-opacity=" .5" d="M 319 51.4 L 324 56.4 319 61.4 314 56.4 Z"></path><path fill="rgb(119, 152, 191)" fill-opacity=" .5" d="M 319 158.1 L 324 163.1 319 168.1 314 163.1 Z"></path><path fill="rgb(119, 152, 191)" fill-opacity=" .5" d="M 319 141.8 L 324 146.8 319 151.8 314 146.8 Z"></path><path fill="rgb(119, 152, 191)" fill-opacity=" .5" d="M 319 139.6 L 324 144.6 319 149.6 314 144.6 Z"></path><path fill="rgb(119, 152, 191)" fill-opacity=" .5" d="M 319 191.1 L 324 196.1 319 201.1 314 196.1 Z"></path><path fill="rgb(119, 152, 191)" fill-opacity=" .5" d="M 340 132.0 L 345 137.0 340 142.0 335 137.0 Z"></path><path fill="rgb(119, 152, 191)" fill-opacity=" .5" d="M 340 106.9 L 345 111.9 340 116.9 335 111.9 Z"></path><path fill="rgb(119, 152, 191)" fill-opacity=" .5" d="M 319 149.2 L 324 154.2 319 159.2 314 154.2 Z"></path><path fill="rgb(119, 152, 191)" fill-opacity=" .5" d="M 383 170.0 L 388 175.0 383 180.0 378 175.0 Z"></path><path fill="rgb(119, 152, 191)" fill-opacity=" .5" d="M 298 128.6 L 303 133.6 298 138.6 293 133.6 Z"></path><path fill="rgb(119, 152, 191)" fill-opacity=" .5" d="M 287 117.9 L 292 122.9 287 127.9 282 122.9 Z"></path><path fill="rgb(119, 152, 191)" fill-opacity=" .5" d="M 212 174.3 L 217 179.3 212 184.3 207 179.3 Z"></path><path fill="rgb(119, 152, 191)" fill-opacity=" .5" d="M 394 123.1 L 399 128.1 394 133.1 389 128.1 Z"></path><path fill="rgb(119, 152, 191)" fill-opacity=" .5" d="M 212 174.3 L 217 179.3 212 184.3 207 179.3 Z"></path><path fill="rgb(119, 152, 191)" fill-opacity=" .5" d="M 276 156.9 L 281 161.9 276 166.9 271 161.9 Z"></path><path fill="rgb(119, 152, 191)" fill-opacity=" .5" d="M 319 176.5 L 324 181.5 319 186.5 314 181.5 Z"></path><path fill="rgb(119, 152, 191)" fill-opacity=" .5" d="M 255 155.9 L 260 160.9 255 165.9 250 160.9 Z"></path><path fill="rgb(119, 152, 191)" fill-opacity=" .5" d="M 340 130.8 L 345 135.8 340 140.8 335 135.8 Z"></path><path fill="rgb(119, 152, 191)" fill-opacity=" .5" d="M 145 190.1 L 150 195.1 145 200.1 140 195.1 Z"></path><path fill="rgb(119, 152, 191)" fill-opacity=" .5" d="M 244 197.0 L 249 202.0 244 207.0 239 202.0 Z"></path><path fill="rgb(119, 152, 191)" fill-opacity=" .5" d="M 321 157.6 L 326 162.6 321 167.6 316 162.6 Z"></path><path fill="rgb(119, 152, 191)" fill-opacity=" .5" d="M 231 200.9 L 236 205.9 231 210.9 226 205.9 Z"></path><path fill="rgb(119, 152, 191)" fill-opacity=" .5" d="M 315 154.7 L 320 159.7 315 164.7 310 159.7 Z"></path><path fill="rgb(119, 152, 191)" fill-opacity=" .5" d="M 379 123.1 L 384 128.1 379 133.1 374 128.1 Z"></path><path fill="rgb(119, 152, 191)" fill-opacity=" .5" d="M 298 120.0 L 303 125.0 298 130.0 293 125.0 Z"></path><path fill="rgb(119, 152, 191)" fill-opacity=" .5" d="M 336 127.7 L 341 132.7 336 137.7 331 132.7 Z"></path><path fill="rgb(119, 152, 191)" fill-opacity=" .5" d="M 355 148.7 L 360 153.7 355 158.7 350 153.7 Z"></path><path fill="rgb(119, 152, 191)" fill-opacity=" .5" d="M 248 172.2 L 253 177.2 248 182.2 243 177.2 Z"></path><path fill="rgb(119, 152, 191)" fill-opacity=" .5" d="M 308 166.2 L 313 171.2 308 176.2 303 171.2 Z"></path><path fill="rgb(119, 152, 191)" fill-opacity=" .5" d="M 439 85.1 L 444 90.1 439 95.1 434 90.1 Z"></path><path fill="rgb(119, 152, 191)" fill-opacity=" .5" d="M 312 165.0 L 317 170.0 312 175.0 307 170.0 Z"></path><path fill="rgb(119, 152, 191)" fill-opacity=" .5" d="M 212 161.2 L 217 166.2 212 171.2 207 166.2 Z"></path><path fill="rgb(119, 152, 191)" fill-opacity=" .5" d="M 287 154.2 L 292 159.2 287 164.2 282 159.2 Z"></path><path fill="rgb(119, 152, 191)" fill-opacity=" .5" d="M 295 161.9 L 300 166.9 295 171.9 290 166.9 Z"></path><path fill="rgb(119, 152, 191)" fill-opacity=" .5" d="M 308 155.2 L 313 160.2 308 165.2 303 160.2 Z"></path><path fill="rgb(119, 152, 191)" fill-opacity=" .5" d="M 351 149.2 L 356 154.2 351 159.2 346 154.2 Z"></path><path fill="rgb(119, 152, 191)" fill-opacity=" .5" d="M 313 130.3 L 318 135.3 313 140.3 308 135.3 Z"></path><path fill="rgb(119, 152, 191)" fill-opacity=" .5" d="M 312 156.4 L 317 161.4 312 166.4 307 161.4 Z"></path><path fill="rgb(119, 152, 191)" fill-opacity=" .5" d="M 343 156.4 L 348 161.4 343 166.4 338 161.4 Z"></path><path fill="rgb(119, 152, 191)" fill-opacity=" .5" d="M 299 160.2 L 304 165.2 299 170.2 294 165.2 Z"></path><path fill="rgb(119, 152, 191)" fill-opacity=" .5" d="M 375 167.2 L 380 172.2 375 177.2 370 172.2 Z"></path><path fill="rgb(119, 152, 191)" fill-opacity=" .5" d="M 343 155.9 L 348 160.9 343 165.9 338 160.9 Z"></path><path fill="rgb(119, 152, 191)" fill-opacity=" .5" d="M 299 136.3 L 304 141.3 299 146.3 294 141.3 Z"></path><path fill="rgb(119, 152, 191)" fill-opacity=" .5" d="M 338 107.4 L 343 112.4 338 117.4 333 112.4 Z"></path><path fill="rgb(119, 152, 191)" fill-opacity=" .5" d="M 482 112.4 L 487 117.4 482 122.4 477 117.4 Z"></path><path fill="rgb(119, 152, 191)" fill-opacity=" .5" d="M 358 151.6 L 363 156.6 358 161.6 353 156.6 Z"></path><path fill="rgb(119, 152, 191)" fill-opacity=" .5" d="M 257 193.9 L 262 198.9 257 203.9 252 198.9 Z"></path><path fill="rgb(119, 152, 191)" fill-opacity=" .5" d="M 316 157.6 L 321 162.6 316 167.6 311 162.6 Z"></path><path fill="rgb(119, 152, 191)" fill-opacity=" .5" d="M 291 177.0 L 296 182.0 291 187.0 286 182.0 Z"></path><path fill="rgb(119, 152, 191)" fill-opacity=" .5" d="M 312 166.7 L 317 171.7 312 176.7 307 171.7 Z"></path><path fill="rgb(119, 152, 191)" fill-opacity=" .5" d="M 347 171.9 L 352 176.9 347 181.9 342 176.9 Z"></path><path fill="rgb(119, 152, 191)" fill-opacity=" .5" d="M 231 167.9 L 236 172.9 231 177.9 226 172.9 Z"></path><path fill="rgb(119, 152, 191)" fill-opacity=" .5" d="M 351 141.1 L 356 146.1 351 151.1 346 146.1 Z"></path><path fill="rgb(119, 152, 191)" fill-opacity=" .5" d="M 263 140.6 L 268 145.6 263 150.6 258 145.6 Z"></path><path fill="rgb(119, 152, 191)" fill-opacity=" .5" d="M 299 178.6 L 304 183.6 299 188.6 294 183.6 Z"></path><path fill="rgb(119, 152, 191)" fill-opacity=" .5" d="M 439 86.8 L 444 91.8 439 96.8 434 91.8 Z"></path><path fill="rgb(119, 152, 191)" fill-opacity=" .5" d="M 207 162.4 L 212 167.4 207 172.4 202 167.4 Z"></path><path fill="rgb(119, 152, 191)" fill-opacity=" .5" d="M 319 150.9 L 324 155.9 319 160.9 314 155.9 Z"></path><path fill="rgb(119, 152, 191)" fill-opacity=" .5" d="M 228 175.3 L 233 180.3 228 185.3 223 180.3 Z"></path><path fill="rgb(119, 152, 191)" fill-opacity=" .5" d="M 354 157.6 L 359 162.6 354 167.6 349 162.6 Z"></path><path fill="rgb(119, 152, 191)" fill-opacity=" .5" d="M 268 171.7 L 273 176.7 268 181.7 263 176.7 Z"></path><path fill="rgb(119, 152, 191)" fill-opacity=" .5" d="M 228 166.7 L 233 171.7 228 176.7 223 171.7 Z"></path><path fill="rgb(119, 152, 191)" fill-opacity=" .5" d="M 388 127.0 L 393 132.0 388 137.0 383 132.0 Z"></path><path fill="rgb(119, 152, 191)" fill-opacity=" .5" d="M 312 158.5 L 317 163.5 312 168.5 307 163.5 Z"></path><path fill="rgb(119, 152, 191)" fill-opacity=" .5" d="M 287 157.1 L 292 162.1 287 167.1 282 162.1 Z"></path><path fill="rgb(119, 152, 191)" fill-opacity=" .5" d="M 287 122.2 L 292 127.2 287 132.2 282 127.2 Z"></path><path fill="rgb(119, 152, 191)" fill-opacity=" .5" d="M 373 146.1 L 378 151.1 373 156.1 368 151.1 Z"></path><path fill="rgb(119, 152, 191)" fill-opacity=" .5" d="M 266 182.9 L 271 187.9 266 192.9 261 187.9 Z"></path><path fill="rgb(119, 152, 191)" fill-opacity=" .5" d="M 194 193.5 L 199 198.5 194 203.5 189 198.5 Z"></path><path fill="rgb(119, 152, 191)" fill-opacity=" .5" d="M 203 197.8 L 208 202.8 203 207.8 198 202.8 Z"></path><path fill="rgb(119, 152, 191)" fill-opacity=" .5" d="M 356 121.5 L 361 126.5 356 131.5 351 126.5 Z"></path><path fill="rgb(119, 152, 191)" fill-opacity=" .5" d="M 276 149.7 L 281 154.7 276 159.7 271 154.7 Z"></path><path fill="rgb(119, 152, 191)" fill-opacity=" .5" d="M 287 123.6 L 292 128.6 287 133.6 282 128.6 Z"></path><path fill="rgb(119, 152, 191)" fill-opacity=" .5" d="M 249 149.0 L 254 154.0 249 159.0 244 154.0 Z"></path><path fill="rgb(119, 152, 191)" fill-opacity=" .5" d="M 228 188.4 L 233 193.4 228 198.4 223 193.4 Z"></path><path fill="rgb(119, 152, 191)" fill-opacity=" .5" d="M 271 150.6 L 276 155.6 271 160.6 266 155.6 Z"></path><path fill="rgb(119, 152, 191)" fill-opacity=" .5" d="M 314 104.7 L 319 109.7 314 114.7 309 109.7 Z"></path><path fill="rgb(119, 152, 191)" fill-opacity=" .5" d="M 405 128.6 L 410 133.6 405 138.6 400 133.6 Z"></path><path fill="rgb(119, 152, 191)" fill-opacity=" .5" d="M 362 117.6 L 367 122.6 362 127.6 357 122.6 Z"></path><path fill="rgb(119, 152, 191)" fill-opacity=" .5" d="M 340 132.2 L 345 137.2 340 142.2 335 137.2 Z"></path><path fill="rgb(119, 152, 191)" fill-opacity=" .5" d="M 298 157.3 L 303 162.3 298 167.3 293 162.3 Z"></path><path fill="rgb(119, 152, 191)" fill-opacity=" .5" d="M 276 154.2 L 281 159.2 276 164.2 271 159.2 Z"></path><path fill="rgb(119, 152, 191)" fill-opacity=" .5" d="M 265 127.2 L 270 132.2 265 137.2 260 132.2 Z"></path><path fill="rgb(119, 152, 191)" fill-opacity=" .5" d="M 394 119.8 L 399 124.8 394 129.8 389 124.8 Z"></path><path fill="rgb(119, 152, 191)" fill-opacity=" .5" d="M 373 138.2 L 378 143.2 373 148.2 368 143.2 Z"></path><path fill="rgb(119, 152, 191)" fill-opacity=" .5" d="M 319 165.7 L 324 170.7 319 175.7 314 170.7 Z"></path><path fill="rgb(119, 152, 191)" fill-opacity=" .5" d="M 253 183.2 L 258 188.2 253 193.2 248 188.2 Z"></path><path fill="rgb(119, 152, 191)" fill-opacity=" .5" d="M 354 169.1 L 359 174.1 354 179.1 349 174.1 Z"></path><path fill="rgb(119, 152, 191)" fill-opacity=" .5" d="M 253 187.5 L 258 192.5 253 197.5 248 192.5 Z"></path><path fill="rgb(119, 152, 191)" fill-opacity=" .5" d="M 277 164.5 L 282 169.5 277 174.5 272 169.5 Z"></path><path fill="rgb(119, 152, 191)" fill-opacity=" .5" d="M 415 128.6 L 420 133.6 415 138.6 410 133.6 Z"></path><path fill="rgb(119, 152, 191)" fill-opacity=" .5" d="M 405 156.6 L 410 161.6 405 166.6 400 161.6 Z"></path><path fill="rgb(119, 152, 191)" fill-opacity=" .5" d="M 299 162.4 L 304 167.4 299 172.4 294 167.4 Z"></path><path fill="rgb(119, 152, 191)" fill-opacity=" .5" d="M 367 150.9 L 372 155.9 367 160.9 362 155.9 Z"></path><path fill="rgb(119, 152, 191)" fill-opacity=" .5" d="M 278 184.1 L 283 189.1 278 194.1 273 189.1 Z"></path><path fill="rgb(119, 152, 191)" fill-opacity=" .5" d="M 207 178.6 L 212 183.6 207 188.6 202 183.6 Z"></path><path fill="rgb(119, 152, 191)" fill-opacity=" .5" d="M 340 147.1 L 345 152.1 340 157.1 335 152.1 Z"></path><path fill="rgb(119, 152, 191)" fill-opacity=" .5" d="M 340 131.8 L 345 136.8 340 141.8 335 136.8 Z"></path><path fill="rgb(119, 152, 191)" fill-opacity=" .5" d="M 321 115.5 L 326 120.5 321 125.5 316 120.5 Z"></path><path fill="rgb(119, 152, 191)" fill-opacity=" .5" d="M 283 134.1 L 288 139.1 283 144.1 278 139.1 Z"></path><path fill="rgb(119, 152, 191)" fill-opacity=" .5" d="M 304 123.1 L 309 128.1 304 133.1 299 128.1 Z"></path><path fill="rgb(119, 152, 191)" fill-opacity=" .5" d="M 276 171.5 L 281 176.5 276 181.5 271 176.5 Z"></path><path fill="rgb(119, 152, 191)" fill-opacity=" .5" d="M 342 143.7 L 347 148.7 342 153.7 337 148.7 Z"></path><path fill="rgb(119, 152, 191)" fill-opacity=" .5" d="M 304 141.3 L 309 146.3 304 151.3 299 146.3 Z"></path><path fill="rgb(119, 152, 191)" fill-opacity=" .5" d="M 304 124.3 L 309 129.3 304 134.3 299 129.3 Z"></path><path fill="rgb(119, 152, 191)" fill-opacity=" .5" d="M 278 156.6 L 283 161.6 278 166.6 273 161.6 Z"></path><path fill="rgb(119, 152, 191)" fill-opacity=" .5" d="M 266 162.4 L 271 167.4 266 172.4 261 167.4 Z"></path><path fill="rgb(119, 152, 191)" fill-opacity=" .5" d="M 445 105.4 L 450 110.4 445 115.4 440 110.4 Z"></path><path fill="rgb(119, 152, 191)" fill-opacity=" .5" d="M 371 139.4 L 376 144.4 371 149.4 366 144.4 Z"></path><path fill="rgb(119, 152, 191)" fill-opacity=" .5" d="M 287 160.0 L 292 165.0 287 170.0 282 165.0 Z"></path><path fill="rgb(119, 152, 191)" fill-opacity=" .5" d="M 304 151.4 L 309 156.4 304 161.4 299 156.4 Z"></path><path fill="rgb(119, 152, 191)" fill-opacity=" .5" d="M 439 114.5 L 444 119.5 439 124.5 434 119.5 Z"></path><path fill="rgb(119, 152, 191)" fill-opacity=" .5" d="M 319 129.8 L 324 134.8 319 139.8 314 134.8 Z"></path><path fill="rgb(119, 152, 191)" fill-opacity=" .5" d="M 338 146.6 L 343 151.6 338 156.6 333 151.6 Z"></path><path fill="rgb(119, 152, 191)" fill-opacity=" .5" d="M 371 134.6 L 376 139.6 371 144.6 366 139.6 Z"></path><path fill="rgb(119, 152, 191)" fill-opacity=" .5" d="M 295 181.5 L 300 186.5 295 191.5 290 186.5 Z"></path><path fill="rgb(119, 152, 191)" fill-opacity=" .5" d="M 376 142.3 L 381 147.3 376 152.3 371 147.3 Z"></path><path fill="rgb(119, 152, 191)" fill-opacity=" .5" d="M 371 123.1 L 376 128.1 371 133.1 366 128.1 Z"></path><path fill="rgb(119, 152, 191)" fill-opacity=" .5" d="M 350 150.9 L 355 155.9 350 160.9 345 155.9 Z"></path><path fill="rgb(119, 152, 191)" fill-opacity=" .5" d="M 398 141.3 L 403 146.3 398 151.3 393 146.3 Z"></path><path fill="rgb(119, 152, 191)" fill-opacity=" .5" d="M 392 156.1 L 397 161.1 392 166.1 387 161.1 Z"></path><path fill="rgb(119, 152, 191)" fill-opacity=" .5" d="M 452 136.8 L 457 141.8 452 146.8 447 141.8 Z"></path><path fill="rgb(119, 152, 191)" fill-opacity=" .5" d="M 298 158.1 L 303 163.1 298 168.1 293 163.1 Z"></path><path fill="rgb(119, 152, 191)" fill-opacity=" .5" d="M 287 172.9 L 292 177.9 287 182.9 282 177.9 Z"></path></g></g><text x="292" text-anchor="middle" class="highcharts-title"  style="color:black;font-size:16px;font-weight:bold;fill:black;width:520px;" y="22"><tspan>Height Versus Weight of 507 Individuals by Gender</tspan></text><text x="292" text-anchor="middle" class="highcharts-subtitle"  style="color:black;fill:black;width:520px;" y="43"><tspan>Source: Heinz  2003</tspan></text><g class="highcharts-legend"  transform="translate(110,80)"><rect x="0.5" y="0.5" width="80" height="42" strokeWidth="1" stroke="#909090" stroke-width="1" fill="#FFFFFF" visibility="visible"></rect><g ><g><g class="highcharts-legend-item"  transform="translate(8,3)"><path fill="rgb(223, 83, 83)" fill-opacity=" .5" d="M 8 7 C 14.6 7 14.6 17 8 17 C 1.3 17 1.3 7 8 7 Z"></path><text x="21" style="color:#333333;font-size:13px;font-weight:bold;cursor:pointer;fill:#333333;" text-anchor="start"  y="16">Female</text></g><g class="highcharts-legend-item"  transform="translate(8,19)"><path fill="rgb(119, 152, 191)" fill-opacity=" .5" d="M 8 7 L 13 12 8 17 3 12 Z"></path><text x="21" y="16" style="color:#333333;font-size:13px;font-weight:bold;cursor:pointer;fill:#333333;" text-anchor="start" >Male</text></g></g></g></g><g class="highcharts-axis-labels highcharts-xaxis-labels" ><text x="67" style="color:#6e6e70;cursor:default;font-size:11px;fill:#6e6e70;width:71px;text-overflow:clip;" text-anchor="middle" transform="translate(0,0)" y="364" opacity="1">140</text><text x="151.5" style="color:#6e6e70;cursor:default;font-size:11px;fill:#6e6e70;width:71px;text-overflow:clip;" text-anchor="middle" transform="translate(0,0)" y="364" opacity="1">150</text><text x="236" style="color:#6e6e70;cursor:default;font-size:11px;fill:#6e6e70;width:71px;text-overflow:clip;" text-anchor="middle" transform="translate(0,0)" y="364" opacity="1">160</text><text x="320.5" style="color:#6e6e70;cursor:default;font-size:11px;fill:#6e6e70;width:71px;text-overflow:clip;" text-anchor="middle" transform="translate(0,0)" y="364" opacity="1">170</text><text x="405" style="color:#6e6e70;cursor:default;font-size:11px;fill:#6e6e70;width:71px;text-overflow:clip;" text-anchor="middle" transform="translate(0,0)" y="364" opacity="1">180</text><text x="489.4" style="color:#6e6e70;cursor:default;font-size:11px;fill:#6e6e70;width:71px;text-overflow:clip;" text-anchor="middle" transform="translate(0,0)" y="364" opacity="1">190</text><text x="574" style="color:#6e6e70;cursor:default;font-size:11px;fill:#6e6e70;width:71px;text-overflow:clip;" text-anchor="end" transform="translate(0,0)" y="364" opacity="1">200</text></g><g class="highcharts-axis-labels highcharts-yaxis-labels" ><text x="52" style="color:#6e6e70;cursor:default;font-size:11px;fill:#6e6e70;width:183px;text-overflow:clip;" text-anchor="end" transform="translate(0,0)" y="350" opacity="1">20</text><text x="52" style="color:#6e6e70;cursor:default;font-size:11px;fill:#6e6e70;width:183px;text-overflow:clip;" text-anchor="end" transform="translate(0,0)" y="302" opacity="1">40</text><text x="52" style="color:#6e6e70;cursor:default;font-size:11px;fill:#6e6e70;width:183px;text-overflow:clip;" text-anchor="end" transform="translate(0,0)" y="254" opacity="1">60</text><text x="52" style="color:#6e6e70;cursor:default;font-size:11px;fill:#6e6e70;width:183px;text-overflow:clip;" text-anchor="end" transform="translate(0,0)" y="206" opacity="1">80</text><text x="52" style="color:#6e6e70;cursor:default;font-size:11px;fill:#6e6e70;width:183px;text-overflow:clip;" text-anchor="end" transform="translate(0,0)" y="158" opacity="1">100</text><text x="52" style="color:#6e6e70;cursor:default;font-size:11px;fill:#6e6e70;width:183px;text-overflow:clip;" text-anchor="end" transform="translate(0,0)" y="110" opacity="1">120</text><text x="52" style="color:#6e6e70;cursor:default;font-size:11px;fill:#6e6e70;width:183px;text-overflow:clip;" text-anchor="end" transform="translate(0,0)" y="63" opacity="1">140</text></g><g class="highcharts-tooltip"  style="cursor:default;padding:0;white-space:nowrap;" transform="translate(0,-9999)"><path fill="none" d="M 3 0 L 13 0 C 16 0 16 0 16 3 L 16 13 C 16 16 16 16 13 16 L 3 16 C 0 16 0 16 0 13 L 0 3 C 0 0 0 0 3 0"  stroke="black" stroke-opacity="0.0" stroke-width="5" transform="translate(1, 1)"></path><path fill="none" d="M 3 0 L 13 0 C 16 0 16 0 16 3 L 16 13 C 16 16 16 16 13 16 L 3 16 C 0 16 0 16 0 13 L 0 3 C 0 0 0 0 3 0"  stroke="black" stroke-opacity="0.0" stroke-width="3" transform="translate(1, 1)"></path><path fill="none" d="M 3 0 L 13 0 C 16 0 16 0 16 3 L 16 13 C 16 16 16 16 13 16 L 3 16 C 0 16 0 16 0 13 L 0 3 C 0 0 0 0 3 0"  stroke="black" stroke-opacity="0.1" stroke-width="1" transform="translate(1, 1)"></path><path fill="rgb(249, 249, 249)" fill-opacity=" .85" d="M 3 0 L 13 0 C 16 0 16 0 16 3 L 16 13 C 16 16 16 16 13 16 L 3 16 C 0 16 0 16 0 13 L 0 3 C 0 0 0 0 3 0"></path><text x="8"  style="font-size:12px;color:#333333;fill:#333333;" transform="translate(0,20)"></text></g></svg>