<svg version="1.1" style="font-family: signika, serif; font-size: 12px; background-image: url(http://www.highcharts.com/samples/graphics/sand.png); background-attachment: initial; background-origin: initial; background-clip: initial; background-color: initial; background-position: initial initial; background-repeat: initial initial; " xmlns="http://www.w3.org/2000/svg" width="584" height="400" viewBox="0 0 584 400" xmlns:xlink="http://www.w3.org/1999/xlink"><style type="text/css"><![CDATA[@import url(http://fonts.googleapis.com/css?family=Signika:700);]]></style><desc>Created with Highcharts 4.1.4</desc><defs><clipPath id="highcharts-1"><rect x="0" y="0" width="503" height="267"></rect></clipPath><clipPath id="highcharts-2"><rect x="-99" y="-58" width="602" height="400"></rect></clipPath><clipPath id="highcharts-3"><rect x="0" y="0" width="503" height="267"></rect></clipPath></defs><path fill="rgb(68, 170, 213)" fill-opacity=" 0.1" d="M 71 320.5 L 574 320.5 574 298.5 71 298.5"></path><text x="81" text-anchor="undefined" transform="translate(0,0)" style="color:#606060;fill:#606060;" y="316" visibility="visible"><tspan>Light air</tspan></text><path fill="rgb(0, 0, 0)" fill-opacity=" 0" d="M 71 298.5 L 574 298.5 574 266.5 71 266.5"></path><text x="81" text-anchor="undefined" transform="translate(0,0)" style="color:#606060;fill:#606060;" y="289" visibility="visible"><tspan>Light breeze</tspan></text><path fill="rgb(68, 170, 213)" fill-opacity=" 0.1" d="M 71 266.5 L 574 266.5 574 227.5 71 227.5"></path><text x="81" text-anchor="undefined" transform="translate(0,0)" style="color:#606060;fill:#606060;" y="253" visibility="visible"><tspan>Gentle breeze</tspan></text><path fill="rgb(0, 0, 0)" fill-opacity=" 0" d="M 71 227.5 L 574 227.5 574 183.5 71 183.5"></path><text x="81" text-anchor="undefined" transform="translate(0,0)" style="color:#606060;fill:#606060;" y="212" visibility="visible"><tspan>Moderate breeze</tspan></text><path fill="rgb(68, 170, 213)" fill-opacity=" 0.1" d="M 71 183.5 L 574 183.5 574 129.5 71 129.5"></path><text x="81" text-anchor="undefined" transform="translate(0,0)" style="color:#606060;fill:#606060;" y="163" visibility="visible"><tspan>Fresh breeze</tspan></text><path fill="rgb(0, 0, 0)" fill-opacity=" 0" d="M 71 129.5 L 574 129.5 574 76.5 71 76.5"></path><text x="81" text-anchor="undefined" transform="translate(0,0)" style="color:#606060;fill:#606060;" y="109" visibility="visible"><tspan>Strong breeze</tspan></text><path fill="rgb(68, 170, 213)" fill-opacity=" 0.1" d="M 71 76.5 L 574 76.5 574 58.5 71 58.5"></path><text x="81" text-anchor="undefined" transform="translate(0,0)" style="color:#606060;fill:#606060;" y="74" visibility="visible"><tspan>High wind</tspan></text><g class="highcharts-grid" ></g><g class="highcharts-grid" ></g><g class="highcharts-axis" ><path fill="none" d="M 75.5 325 L 75.5 335" stroke="#C0D0E0" stroke-width="1" opacity="1"></path><path fill="none" d="M 157.5 325 L 157.5 335" stroke="#C0D0E0" stroke-width="1" opacity="1"></path><path fill="none" d="M 239.5 325 L 239.5 335" stroke="#C0D0E0" stroke-width="1" opacity="1"></path><path fill="none" d="M 322.5 325 L 322.5 335" stroke="#C0D0E0" stroke-width="1" opacity="1"></path><path fill="none" d="M 404.5 325 L 404.5 335" stroke="#C0D0E0" stroke-width="1" opacity="1"></path><path fill="none" d="M 486.5 325 L 486.5 335" stroke="#C0D0E0" stroke-width="1" opacity="1"></path><path fill="none" d="M 568.5 325 L 568.5 335" stroke="#C0D0E0" stroke-width="1" opacity="1"></path><path fill="none" d="M 71 325.5 L 574 325.5" stroke="#C0D0E0" stroke-width="1"  visibility="visible"></path></g><g class="highcharts-axis" ><text x="24"  text-anchor="middle" transform="translate(0,0) rotate(270 24 191.5)" class=" highcharts-yaxis-title" style="color:#707070;fill:#707070;" visibility="visible" y="191.5"><tspan>Wind speed (m/s)</tspan></text></g><g class="highcharts-series-group" ><g class="highcharts-series" visibility="visible"  transform="translate(71,58) scale(1 1)" clip-path="url(#highcharts-3)"><path fill="none" d="M 4.9 190.4 C 4.9 190.4 11.0 176.2 15.2 176.2 C 19.3 176.2 21.3 190.4 25.4 190.4 C 29.5 190.4 31.6 178 35.7 174.4 C 39.8 170.8 41.9 170.8 46.0 170.8 C 50.1 170.8 52.1 176.5 56.2 183.3 C 60.4 190.1 62.4 204.7 66.5 204.7 C 70.6 204.7 72.7 201.4 76.8 194.0 C 80.9 186.5 83.0 179.0 87.1 167.3 C 91.2 155.5 93.2 135.2 97.3 135.2 C 101.5 135.2 103.5 144.1 107.6 144.1 C 111.7 144.1 113.8 144.1 117.9 140.6 C 122.0 137.0 124.1 126.3 128.2 126.3 C 132.3 126.3 134.3 126.3 138.4 126.3 C 142.5 126.3 144.6 129.2 148.7 133.5 C 152.8 137.7 154.9 147.7 159.0 147.7 C 163.1 147.7 165.2 129.9 169.3 129.9 C 173.4 129.9 175.4 129.9 179.5 129.9 C 183.6 129.9 185.7 132.7 189.8 135.2 C 193.9 137.7 196.0 142.3 200.1 142.3 C 204.2 142.3 206.2 140.6 210.4 140.6 C 214.5 140.6 216.5 163.7 220.6 163.7 C 224.7 163.7 226.8 163.7 230.9 161.9 C 235.0 160.2 237.1 143.4 241.2 135.2 C 245.3 127.0 247.3 124.9 251.5 121.0 C 255.6 117.1 257.6 119.9 261.7 115.6 C 265.8 111.4 267.9 99.6 272.0 99.6 C 276.1 99.6 278.2 122.8 282.3 122.8 C 286.4 122.8 288.4 72.9 292.5 72.9 C 296.7 72.9 298.7 81.8 302.8 81.8 C 306.9 81.8 309.0 80.1 313.1 72.9 C 317.2 65.8 319.3 46.2 323.4 46.2 C 327.5 46.2 329.5 46.2 333.6 51.6 C 337.7 56.9 339.8 81.5 343.9 97.9 C 348.0 114.2 350.1 126.3 354.2 133.5 C 358.3 140.6 360.4 140.6 364.5 140.6 C 368.6 140.6 370.6 137.0 374.7 133.5 C 378.8 129.9 380.9 122.8 385.0 122.8 C 389.1 122.8 391.2 129.2 395.3 145.9 C 399.4 162.6 401.4 189.7 405.6 206.4 C 409.7 223.2 411.7 226.0 415.8 229.6 C 419.9 233.1 422.0 233.1 426.1 233.1 C 430.2 233.1 432.3 218.9 436.4 217.1 C 440.5 215.3 442.5 215.3 446.7 215.3 C 450.8 215.3 452.8 243.8 456.9 243.8 C 461.0 243.8 463.1 188.6 467.2 188.6 C 471.3 188.6 473.4 188.6 477.5 192.2 C 481.6 195.8 483.6 213.6 487.7 213.6 C 491.9 213.6 498.0 213.6 498.0 213.6" stroke="black" stroke-width="5"  stroke-linejoin="round" stroke-linecap="round"  stroke-opacity="0.0" transform="translate(1, 1)"></path><path fill="none" d="M 4.9 190.4 C 4.9 190.4 11.0 176.2 15.2 176.2 C 19.3 176.2 21.3 190.4 25.4 190.4 C 29.5 190.4 31.6 178 35.7 174.4 C 39.8 170.8 41.9 170.8 46.0 170.8 C 50.1 170.8 52.1 176.5 56.2 183.3 C 60.4 190.1 62.4 204.7 66.5 204.7 C 70.6 204.7 72.7 201.4 76.8 194.0 C 80.9 186.5 83.0 179.0 87.1 167.3 C 91.2 155.5 93.2 135.2 97.3 135.2 C 101.5 135.2 103.5 144.1 107.6 144.1 C 111.7 144.1 113.8 144.1 117.9 140.6 C 122.0 137.0 124.1 126.3 128.2 126.3 C 132.3 126.3 134.3 126.3 138.4 126.3 C 142.5 126.3 144.6 129.2 148.7 133.5 C 152.8 137.7 154.9 147.7 159.0 147.7 C 163.1 147.7 165.2 129.9 169.3 129.9 C 173.4 129.9 175.4 129.9 179.5 129.9 C 183.6 129.9 185.7 132.7 189.8 135.2 C 193.9 137.7 196.0 142.3 200.1 142.3 C 204.2 142.3 206.2 140.6 210.4 140.6 C 214.5 140.6 216.5 163.7 220.6 163.7 C 224.7 163.7 226.8 163.7 230.9 161.9 C 235.0 160.2 237.1 143.4 241.2 135.2 C 245.3 127.0 247.3 124.9 251.5 121.0 C 255.6 117.1 257.6 119.9 261.7 115.6 C 265.8 111.4 267.9 99.6 272.0 99.6 C 276.1 99.6 278.2 122.8 282.3 122.8 C 286.4 122.8 288.4 72.9 292.5 72.9 C 296.7 72.9 298.7 81.8 302.8 81.8 C 306.9 81.8 309.0 80.1 313.1 72.9 C 317.2 65.8 319.3 46.2 323.4 46.2 C 327.5 46.2 329.5 46.2 333.6 51.6 C 337.7 56.9 339.8 81.5 343.9 97.9 C 348.0 114.2 350.1 126.3 354.2 133.5 C 358.3 140.6 360.4 140.6 364.5 140.6 C 368.6 140.6 370.6 137.0 374.7 133.5 C 378.8 129.9 380.9 122.8 385.0 122.8 C 389.1 122.8 391.2 129.2 395.3 145.9 C 399.4 162.6 401.4 189.7 405.6 206.4 C 409.7 223.2 411.7 226.0 415.8 229.6 C 419.9 233.1 422.0 233.1 426.1 233.1 C 430.2 233.1 432.3 218.9 436.4 217.1 C 440.5 215.3 442.5 215.3 446.7 215.3 C 450.8 215.3 452.8 243.8 456.9 243.8 C 461.0 243.8 463.1 188.6 467.2 188.6 C 471.3 188.6 473.4 188.6 477.5 192.2 C 481.6 195.8 483.6 213.6 487.7 213.6 C 491.9 213.6 498.0 213.6 498.0 213.6" stroke="black" stroke-width="3"  stroke-linejoin="round" stroke-linecap="round"  stroke-opacity="0.0" transform="translate(1, 1)"></path><path fill="none" d="M 4.9 190.4 C 4.9 190.4 11.0 176.2 15.2 176.2 C 19.3 176.2 21.3 190.4 25.4 190.4 C 29.5 190.4 31.6 178 35.7 174.4 C 39.8 170.8 41.9 170.8 46.0 170.8 C 50.1 170.8 52.1 176.5 56.2 183.3 C 60.4 190.1 62.4 204.7 66.5 204.7 C 70.6 204.7 72.7 201.4 76.8 194.0 C 80.9 186.5 83.0 179.0 87.1 167.3 C 91.2 155.5 93.2 135.2 97.3 135.2 C 101.5 135.2 103.5 144.1 107.6 144.1 C 111.7 144.1 113.8 144.1 117.9 140.6 C 122.0 137.0 124.1 126.3 128.2 126.3 C 132.3 126.3 134.3 126.3 138.4 126.3 C 142.5 126.3 144.6 129.2 148.7 133.5 C 152.8 137.7 154.9 147.7 159.0 147.7 C 163.1 147.7 165.2 129.9 169.3 129.9 C 173.4 129.9 175.4 129.9 179.5 129.9 C 183.6 129.9 185.7 132.7 189.8 135.2 C 193.9 137.7 196.0 142.3 200.1 142.3 C 204.2 142.3 206.2 140.6 210.4 140.6 C 214.5 140.6 216.5 163.7 220.6 163.7 C 224.7 163.7 226.8 163.7 230.9 161.9 C 235.0 160.2 237.1 143.4 241.2 135.2 C 245.3 127.0 247.3 124.9 251.5 121.0 C 255.6 117.1 257.6 119.9 261.7 115.6 C 265.8 111.4 267.9 99.6 272.0 99.6 C 276.1 99.6 278.2 122.8 282.3 122.8 C 286.4 122.8 288.4 72.9 292.5 72.9 C 296.7 72.9 298.7 81.8 302.8 81.8 C 306.9 81.8 309.0 80.1 313.1 72.9 C 317.2 65.8 319.3 46.2 323.4 46.2 C 327.5 46.2 329.5 46.2 333.6 51.6 C 337.7 56.9 339.8 81.5 343.9 97.9 C 348.0 114.2 350.1 126.3 354.2 133.5 C 358.3 140.6 360.4 140.6 364.5 140.6 C 368.6 140.6 370.6 137.0 374.7 133.5 C 378.8 129.9 380.9 122.8 385.0 122.8 C 389.1 122.8 391.2 129.2 395.3 145.9 C 399.4 162.6 401.4 189.7 405.6 206.4 C 409.7 223.2 411.7 226.0 415.8 229.6 C 419.9 233.1 422.0 233.1 426.1 233.1 C 430.2 233.1 432.3 218.9 436.4 217.1 C 440.5 215.3 442.5 215.3 446.7 215.3 C 450.8 215.3 452.8 243.8 456.9 243.8 C 461.0 243.8 463.1 188.6 467.2 188.6 C 471.3 188.6 473.4 188.6 477.5 192.2 C 481.6 195.8 483.6 213.6 487.7 213.6 C 491.9 213.6 498.0 213.6 498.0 213.6" stroke="black" stroke-width="1"  stroke-linejoin="round" stroke-linecap="round"  stroke-opacity="0.1" transform="translate(1, 1)"></path><path fill="none" d="M 4.9 190.4 C 4.9 190.4 11.0 176.2 15.2 176.2 C 19.3 176.2 21.3 190.4 25.4 190.4 C 29.5 190.4 31.6 178 35.7 174.4 C 39.8 170.8 41.9 170.8 46.0 170.8 C 50.1 170.8 52.1 176.5 56.2 183.3 C 60.4 190.1 62.4 204.7 66.5 204.7 C 70.6 204.7 72.7 201.4 76.8 194.0 C 80.9 186.5 83.0 179.0 87.1 167.3 C 91.2 155.5 93.2 135.2 97.3 135.2 C 101.5 135.2 103.5 144.1 107.6 144.1 C 111.7 144.1 113.8 144.1 117.9 140.6 C 122.0 137.0 124.1 126.3 128.2 126.3 C 132.3 126.3 134.3 126.3 138.4 126.3 C 142.5 126.3 144.6 129.2 148.7 133.5 C 152.8 137.7 154.9 147.7 159.0 147.7 C 163.1 147.7 165.2 129.9 169.3 129.9 C 173.4 129.9 175.4 129.9 179.5 129.9 C 183.6 129.9 185.7 132.7 189.8 135.2 C 193.9 137.7 196.0 142.3 200.1 142.3 C 204.2 142.3 206.2 140.6 210.4 140.6 C 214.5 140.6 216.5 163.7 220.6 163.7 C 224.7 163.7 226.8 163.7 230.9 161.9 C 235.0 160.2 237.1 143.4 241.2 135.2 C 245.3 127.0 247.3 124.9 251.5 121.0 C 255.6 117.1 257.6 119.9 261.7 115.6 C 265.8 111.4 267.9 99.6 272.0 99.6 C 276.1 99.6 278.2 122.8 282.3 122.8 C 286.4 122.8 288.4 72.9 292.5 72.9 C 296.7 72.9 298.7 81.8 302.8 81.8 C 306.9 81.8 309.0 80.1 313.1 72.9 C 317.2 65.8 319.3 46.2 323.4 46.2 C 327.5 46.2 329.5 46.2 333.6 51.6 C 337.7 56.9 339.8 81.5 343.9 97.9 C 348.0 114.2 350.1 126.3 354.2 133.5 C 358.3 140.6 360.4 140.6 364.5 140.6 C 368.6 140.6 370.6 137.0 374.7 133.5 C 378.8 129.9 380.9 122.8 385.0 122.8 C 389.1 122.8 391.2 129.2 395.3 145.9 C 399.4 162.6 401.4 189.7 405.6 206.4 C 409.7 223.2 411.7 226.0 415.8 229.6 C 419.9 233.1 422.0 233.1 426.1 233.1 C 430.2 233.1 432.3 218.9 436.4 217.1 C 440.5 215.3 442.5 215.3 446.7 215.3 C 450.8 215.3 452.8 243.8 456.9 243.8 C 461.0 243.8 463.1 188.6 467.2 188.6 C 471.3 188.6 473.4 188.6 477.5 192.2 C 481.6 195.8 483.6 213.6 487.7 213.6 C 491.9 213.6 498.0 213.6 498.0 213.6" stroke="#f45b5b" stroke-width="4"  stroke-linejoin="round" stroke-linecap="round"></path><path fill="none" d="M -5.0 190.4 L 4.9 190.4 C 4.9 190.4 11.0 176.2 15.2 176.2 C 19.3 176.2 21.3 190.4 25.4 190.4 C 29.5 190.4 31.6 178 35.7 174.4 C 39.8 170.8 41.9 170.8 46.0 170.8 C 50.1 170.8 52.1 176.5 56.2 183.3 C 60.4 190.1 62.4 204.7 66.5 204.7 C 70.6 204.7 72.7 201.4 76.8 194.0 C 80.9 186.5 83.0 179.0 87.1 167.3 C 91.2 155.5 93.2 135.2 97.3 135.2 C 101.5 135.2 103.5 144.1 107.6 144.1 C 111.7 144.1 113.8 144.1 117.9 140.6 C 122.0 137.0 124.1 126.3 128.2 126.3 C 132.3 126.3 134.3 126.3 138.4 126.3 C 142.5 126.3 144.6 129.2 148.7 133.5 C 152.8 137.7 154.9 147.7 159.0 147.7 C 163.1 147.7 165.2 129.9 169.3 129.9 C 173.4 129.9 175.4 129.9 179.5 129.9 C 183.6 129.9 185.7 132.7 189.8 135.2 C 193.9 137.7 196.0 142.3 200.1 142.3 C 204.2 142.3 206.2 140.6 210.4 140.6 C 214.5 140.6 216.5 163.7 220.6 163.7 C 224.7 163.7 226.8 163.7 230.9 161.9 C 235.0 160.2 237.1 143.4 241.2 135.2 C 245.3 127.0 247.3 124.9 251.5 121.0 C 255.6 117.1 257.6 119.9 261.7 115.6 C 265.8 111.4 267.9 99.6 272.0 99.6 C 276.1 99.6 278.2 122.8 282.3 122.8 C 286.4 122.8 288.4 72.9 292.5 72.9 C 296.7 72.9 298.7 81.8 302.8 81.8 C 306.9 81.8 309.0 80.1 313.1 72.9 C 317.2 65.8 319.3 46.2 323.4 46.2 C 327.5 46.2 329.5 46.2 333.6 51.6 C 337.7 56.9 339.8 81.5 343.9 97.9 C 348.0 114.2 350.1 126.3 354.2 133.5 C 358.3 140.6 360.4 140.6 364.5 140.6 C 368.6 140.6 370.6 137.0 374.7 133.5 C 378.8 129.9 380.9 122.8 385.0 122.8 C 389.1 122.8 391.2 129.2 395.3 145.9 C 399.4 162.6 401.4 189.7 405.6 206.4 C 409.7 223.2 411.7 226.0 415.8 229.6 C 419.9 233.1 422.0 233.1 426.1 233.1 C 430.2 233.1 432.3 218.9 436.4 217.1 C 440.5 215.3 442.5 215.3 446.7 215.3 C 450.8 215.3 452.8 243.8 456.9 243.8 C 461.0 243.8 463.1 188.6 467.2 188.6 C 471.3 188.6 473.4 188.6 477.5 192.2 C 481.6 195.8 483.6 213.6 487.7 213.6 C 491.9 213.6 498.0 213.6 498.0 213.6 L 508.0 213.6" stroke-linejoin="round" visibility="visible" stroke="rgb(192,192,192)" stroke-opacity="0.0" stroke-width="24"  class=" highcharts-tracker" style=""></path></g><g class="highcharts-markers highcharts-tracker" visibility="visible"  transform="translate(71,58) scale(1 1)" clip-path="url(#highcharts-2)" style=""></g><g class="highcharts-series" visibility="visible"  transform="translate(71,58) scale(1 1)" clip-path="url(#highcharts-3)"><path fill="none" d="M 4.9 267 C 4.9 267 11.0 267 15.2 267 C 19.3 267 21.3 267 25.4 267 C 29.5 267 31.6 267 35.7 267 C 39.8 267 41.9 267 46.0 267 C 50.1 267 52.1 267 56.2 267 C 60.4 267 62.4 267 66.5 267 C 70.6 267 72.7 267 76.8 267 C 80.9 267 83.0 265.2 87.1 265.2 C 91.2 265.2 93.2 267 97.3 267 C 101.5 267 103.5 261.6 107.6 261.6 C 111.7 261.6 113.8 267 117.9 267 C 122.0 267 124.1 267 128.2 267 C 132.3 267 134.3 259.8 138.4 259.8 C 142.5 259.8 144.6 267 148.7 267 C 152.8 267 154.9 265.2 159.0 265.2 C 163.1 265.2 165.2 267 169.3 267 C 173.4 267 175.4 267 179.5 267 C 183.6 267 185.7 267 189.8 267 C 193.9 267 196.0 267 200.1 267 C 204.2 267 206.2 267 210.4 267 C 214.5 267 216.5 267 220.6 267 C 224.7 267 226.8 267 230.9 267 C 235.0 267 237.1 267 241.2 267 C 245.3 267 247.3 267 251.5 267 C 255.6 267 257.6 260.5 261.7 256.3 C 265.8 252.0 267.9 249.5 272.0 245.6 C 276.1 241.7 278.2 236.7 282.3 236.7 C 286.4 236.7 288.4 254.5 292.5 254.5 C 296.7 254.5 298.7 227.4 302.8 215.3 C 306.9 203.2 309.0 194.0 313.1 194.0 C 317.2 194.0 319.3 220.7 323.4 220.7 C 327.5 220.7 329.5 204.7 333.6 201.1 C 337.7 197.5 339.8 197.5 343.9 197.5 C 348.0 197.5 350.1 236.7 354.2 236.7 C 358.3 236.7 360.4 230.6 364.5 226.0 C 368.6 221.4 370.6 217.1 374.7 213.6 C 378.8 210.0 380.9 213.6 385.0 208.2 C 389.1 202.9 391.2 185.1 395.3 181.5 C 399.4 178 401.4 178 405.6 178 C 409.7 178 411.7 181.5 415.8 181.5 C 419.9 181.5 422.0 178 426.1 178 C 430.2 178 432.3 199.3 436.4 210.0 C 440.5 220.7 442.5 223.2 446.7 231.4 C 450.8 239.5 452.8 245.2 456.9 250.9 C 461.0 256.6 463.1 258.0 467.2 259.8 C 471.3 261.6 473.4 261.6 477.5 261.6 C 481.6 261.6 483.6 258.1 487.7 258.1 C 491.9 258.1 498.0 259.8 498.0 259.8" stroke="black" stroke-width="5"  stroke-linejoin="round" stroke-linecap="round"  stroke-opacity="0.0" transform="translate(1, 1)"></path><path fill="none" d="M 4.9 267 C 4.9 267 11.0 267 15.2 267 C 19.3 267 21.3 267 25.4 267 C 29.5 267 31.6 267 35.7 267 C 39.8 267 41.9 267 46.0 267 C 50.1 267 52.1 267 56.2 267 C 60.4 267 62.4 267 66.5 267 C 70.6 267 72.7 267 76.8 267 C 80.9 267 83.0 265.2 87.1 265.2 C 91.2 265.2 93.2 267 97.3 267 C 101.5 267 103.5 261.6 107.6 261.6 C 111.7 261.6 113.8 267 117.9 267 C 122.0 267 124.1 267 128.2 267 C 132.3 267 134.3 259.8 138.4 259.8 C 142.5 259.8 144.6 267 148.7 267 C 152.8 267 154.9 265.2 159.0 265.2 C 163.1 265.2 165.2 267 169.3 267 C 173.4 267 175.4 267 179.5 267 C 183.6 267 185.7 267 189.8 267 C 193.9 267 196.0 267 200.1 267 C 204.2 267 206.2 267 210.4 267 C 214.5 267 216.5 267 220.6 267 C 224.7 267 226.8 267 230.9 267 C 235.0 267 237.1 267 241.2 267 C 245.3 267 247.3 267 251.5 267 C 255.6 267 257.6 260.5 261.7 256.3 C 265.8 252.0 267.9 249.5 272.0 245.6 C 276.1 241.7 278.2 236.7 282.3 236.7 C 286.4 236.7 288.4 254.5 292.5 254.5 C 296.7 254.5 298.7 227.4 302.8 215.3 C 306.9 203.2 309.0 194.0 313.1 194.0 C 317.2 194.0 319.3 220.7 323.4 220.7 C 327.5 220.7 329.5 204.7 333.6 201.1 C 337.7 197.5 339.8 197.5 343.9 197.5 C 348.0 197.5 350.1 236.7 354.2 236.7 C 358.3 236.7 360.4 230.6 364.5 226.0 C 368.6 221.4 370.6 217.1 374.7 213.6 C 378.8 210.0 380.9 213.6 385.0 208.2 C 389.1 202.9 391.2 185.1 395.3 181.5 C 399.4 178 401.4 178 405.6 178 C 409.7 178 411.7 181.5 415.8 181.5 C 419.9 181.5 422.0 178 426.1 178 C 430.2 178 432.3 199.3 436.4 210.0 C 440.5 220.7 442.5 223.2 446.7 231.4 C 450.8 239.5 452.8 245.2 456.9 250.9 C 461.0 256.6 463.1 258.0 467.2 259.8 C 471.3 261.6 473.4 261.6 477.5 261.6 C 481.6 261.6 483.6 258.1 487.7 258.1 C 491.9 258.1 498.0 259.8 498.0 259.8" stroke="black" stroke-width="3"  stroke-linejoin="round" stroke-linecap="round"  stroke-opacity="0.0" transform="translate(1, 1)"></path><path fill="none" d="M 4.9 267 C 4.9 267 11.0 267 15.2 267 C 19.3 267 21.3 267 25.4 267 C 29.5 267 31.6 267 35.7 267 C 39.8 267 41.9 267 46.0 267 C 50.1 267 52.1 267 56.2 267 C 60.4 267 62.4 267 66.5 267 C 70.6 267 72.7 267 76.8 267 C 80.9 267 83.0 265.2 87.1 265.2 C 91.2 265.2 93.2 267 97.3 267 C 101.5 267 103.5 261.6 107.6 261.6 C 111.7 261.6 113.8 267 117.9 267 C 122.0 267 124.1 267 128.2 267 C 132.3 267 134.3 259.8 138.4 259.8 C 142.5 259.8 144.6 267 148.7 267 C 152.8 267 154.9 265.2 159.0 265.2 C 163.1 265.2 165.2 267 169.3 267 C 173.4 267 175.4 267 179.5 267 C 183.6 267 185.7 267 189.8 267 C 193.9 267 196.0 267 200.1 267 C 204.2 267 206.2 267 210.4 267 C 214.5 267 216.5 267 220.6 267 C 224.7 267 226.8 267 230.9 267 C 235.0 267 237.1 267 241.2 267 C 245.3 267 247.3 267 251.5 267 C 255.6 267 257.6 260.5 261.7 256.3 C 265.8 252.0 267.9 249.5 272.0 245.6 C 276.1 241.7 278.2 236.7 282.3 236.7 C 286.4 236.7 288.4 254.5 292.5 254.5 C 296.7 254.5 298.7 227.4 302.8 215.3 C 306.9 203.2 309.0 194.0 313.1 194.0 C 317.2 194.0 319.3 220.7 323.4 220.7 C 327.5 220.7 329.5 204.7 333.6 201.1 C 337.7 197.5 339.8 197.5 343.9 197.5 C 348.0 197.5 350.1 236.7 354.2 236.7 C 358.3 236.7 360.4 230.6 364.5 226.0 C 368.6 221.4 370.6 217.1 374.7 213.6 C 378.8 210.0 380.9 213.6 385.0 208.2 C 389.1 202.9 391.2 185.1 395.3 181.5 C 399.4 178 401.4 178 405.6 178 C 409.7 178 411.7 181.5 415.8 181.5 C 419.9 181.5 422.0 178 426.1 178 C 430.2 178 432.3 199.3 436.4 210.0 C 440.5 220.7 442.5 223.2 446.7 231.4 C 450.8 239.5 452.8 245.2 456.9 250.9 C 461.0 256.6 463.1 258.0 467.2 259.8 C 471.3 261.6 473.4 261.6 477.5 261.6 C 481.6 261.6 483.6 258.1 487.7 258.1 C 491.9 258.1 498.0 259.8 498.0 259.8" stroke="black" stroke-width="1"  stroke-linejoin="round" stroke-linecap="round"  stroke-opacity="0.1" transform="translate(1, 1)"></path><path fill="none" d="M 4.9 267 C 4.9 267 11.0 267 15.2 267 C 19.3 267 21.3 267 25.4 267 C 29.5 267 31.6 267 35.7 267 C 39.8 267 41.9 267 46.0 267 C 50.1 267 52.1 267 56.2 267 C 60.4 267 62.4 267 66.5 267 C 70.6 267 72.7 267 76.8 267 C 80.9 267 83.0 265.2 87.1 265.2 C 91.2 265.2 93.2 267 97.3 267 C 101.5 267 103.5 261.6 107.6 261.6 C 111.7 261.6 113.8 267 117.9 267 C 122.0 267 124.1 267 128.2 267 C 132.3 267 134.3 259.8 138.4 259.8 C 142.5 259.8 144.6 267 148.7 267 C 152.8 267 154.9 265.2 159.0 265.2 C 163.1 265.2 165.2 267 169.3 267 C 173.4 267 175.4 267 179.5 267 C 183.6 267 185.7 267 189.8 267 C 193.9 267 196.0 267 200.1 267 C 204.2 267 206.2 267 210.4 267 C 214.5 267 216.5 267 220.6 267 C 224.7 267 226.8 267 230.9 267 C 235.0 267 237.1 267 241.2 267 C 245.3 267 247.3 267 251.5 267 C 255.6 267 257.6 260.5 261.7 256.3 C 265.8 252.0 267.9 249.5 272.0 245.6 C 276.1 241.7 278.2 236.7 282.3 236.7 C 286.4 236.7 288.4 254.5 292.5 254.5 C 296.7 254.5 298.7 227.4 302.8 215.3 C 306.9 203.2 309.0 194.0 313.1 194.0 C 317.2 194.0 319.3 220.7 323.4 220.7 C 327.5 220.7 329.5 204.7 333.6 201.1 C 337.7 197.5 339.8 197.5 343.9 197.5 C 348.0 197.5 350.1 236.7 354.2 236.7 C 358.3 236.7 360.4 230.6 364.5 226.0 C 368.6 221.4 370.6 217.1 374.7 213.6 C 378.8 210.0 380.9 213.6 385.0 208.2 C 389.1 202.9 391.2 185.1 395.3 181.5 C 399.4 178 401.4 178 405.6 178 C 409.7 178 411.7 181.5 415.8 181.5 C 419.9 181.5 422.0 178 426.1 178 C 430.2 178 432.3 199.3 436.4 210.0 C 440.5 220.7 442.5 223.2 446.7 231.4 C 450.8 239.5 452.8 245.2 456.9 250.9 C 461.0 256.6 463.1 258.0 467.2 259.8 C 471.3 261.6 473.4 261.6 477.5 261.6 C 481.6 261.6 483.6 258.1 487.7 258.1 C 491.9 258.1 498.0 259.8 498.0 259.8" stroke="#8085e9" stroke-width="4"  stroke-linejoin="round" stroke-linecap="round"></path><path fill="none" d="M -5.0 267 L 4.9 267 C 4.9 267 11.0 267 15.2 267 C 19.3 267 21.3 267 25.4 267 C 29.5 267 31.6 267 35.7 267 C 39.8 267 41.9 267 46.0 267 C 50.1 267 52.1 267 56.2 267 C 60.4 267 62.4 267 66.5 267 C 70.6 267 72.7 267 76.8 267 C 80.9 267 83.0 265.2 87.1 265.2 C 91.2 265.2 93.2 267 97.3 267 C 101.5 267 103.5 261.6 107.6 261.6 C 111.7 261.6 113.8 267 117.9 267 C 122.0 267 124.1 267 128.2 267 C 132.3 267 134.3 259.8 138.4 259.8 C 142.5 259.8 144.6 267 148.7 267 C 152.8 267 154.9 265.2 159.0 265.2 C 163.1 265.2 165.2 267 169.3 267 C 173.4 267 175.4 267 179.5 267 C 183.6 267 185.7 267 189.8 267 C 193.9 267 196.0 267 200.1 267 C 204.2 267 206.2 267 210.4 267 C 214.5 267 216.5 267 220.6 267 C 224.7 267 226.8 267 230.9 267 C 235.0 267 237.1 267 241.2 267 C 245.3 267 247.3 267 251.5 267 C 255.6 267 257.6 260.5 261.7 256.3 C 265.8 252.0 267.9 249.5 272.0 245.6 C 276.1 241.7 278.2 236.7 282.3 236.7 C 286.4 236.7 288.4 254.5 292.5 254.5 C 296.7 254.5 298.7 227.4 302.8 215.3 C 306.9 203.2 309.0 194.0 313.1 194.0 C 317.2 194.0 319.3 220.7 323.4 220.7 C 327.5 220.7 329.5 204.7 333.6 201.1 C 337.7 197.5 339.8 197.5 343.9 197.5 C 348.0 197.5 350.1 236.7 354.2 236.7 C 358.3 236.7 360.4 230.6 364.5 226.0 C 368.6 221.4 370.6 217.1 374.7 213.6 C 378.8 210.0 380.9 213.6 385.0 208.2 C 389.1 202.9 391.2 185.1 395.3 181.5 C 399.4 178 401.4 178 405.6 178 C 409.7 178 411.7 181.5 415.8 181.5 C 419.9 181.5 422.0 178 426.1 178 C 430.2 178 432.3 199.3 436.4 210.0 C 440.5 220.7 442.5 223.2 446.7 231.4 C 450.8 239.5 452.8 245.2 456.9 250.9 C 461.0 256.6 463.1 258.0 467.2 259.8 C 471.3 261.6 473.4 261.6 477.5 261.6 C 481.6 261.6 483.6 258.1 487.7 258.1 C 491.9 258.1 498.0 259.8 498.0 259.8 L 508.0 259.8" stroke-linejoin="round" visibility="visible" stroke="rgb(192,192,192)" stroke-opacity="0.0" stroke-width="24"  class=" highcharts-tracker" style=""></path></g><g class="highcharts-markers highcharts-tracker" visibility="visible"  transform="translate(71,58) scale(1 1)" clip-path="url(#highcharts-2)" style=""></g></g><text x="292" text-anchor="middle" class="highcharts-title"  style="color:black;font-size:16px;font-weight:bold;fill:black;width:520px;" y="22"><tspan>Wind speed during two days</tspan></text><text x="292" text-anchor="middle" class="highcharts-subtitle"  style="color:black;fill:black;width:520px;" y="43"><tspan>October 6th and 7th 2009 at two locations in Vik i Sogn, Norway</tspan></text><g class="highcharts-legend"  transform="translate(200,358)"><g ><g><g class="highcharts-legend-item"  transform="translate(8,3)"><path fill="none" d="M 0 12 L 16 12" stroke="#f45b5b" stroke-width="4"></path><text x="21" style="color:#333333;font-size:13px;font-weight:bold;cursor:pointer;fill:#333333;" text-anchor="start"  y="16">Hestavollane</text></g><g class="highcharts-legend-item"  transform="translate(133,3)"><path fill="none" d="M 0 12 L 16 12" stroke="#8085e9" stroke-width="4"></path><text x="21" y="16" style="color:#333333;font-size:13px;font-weight:bold;cursor:pointer;fill:#333333;" text-anchor="start" >Voll</text></g></g></g></g><g class="highcharts-axis-labels highcharts-xaxis-labels" ><text x="75.9" style="color:#6e6e70;cursor:default;font-size:11px;fill:#6e6e70;width:71px;text-overflow:clip;" text-anchor="middle" transform="translate(0,0)" y="344" opacity="1"><tspan>6. Oct</tspan></text><text x="158.1" style="color:#6e6e70;cursor:default;font-size:11px;fill:#6e6e70;width:71px;text-overflow:clip;" text-anchor="middle" transform="translate(0,0)" y="344" opacity="1">08:00</text><text x="240.3" style="color:#6e6e70;cursor:default;font-size:11px;fill:#6e6e70;width:71px;text-overflow:clip;" text-anchor="middle" transform="translate(0,0)" y="344" opacity="1">16:00</text><text x="322.5" style="color:#6e6e70;cursor:default;font-size:11px;fill:#6e6e70;width:71px;text-overflow:clip;" text-anchor="middle" transform="translate(0,0)" y="344" opacity="1"><tspan>7. Oct</tspan></text><text x="404.6" style="color:#6e6e70;cursor:default;font-size:11px;fill:#6e6e70;width:71px;text-overflow:clip;" text-anchor="middle" transform="translate(0,0)" y="344" opacity="1">08:00</text><text x="486.8" style="color:#6e6e70;cursor:default;font-size:11px;fill:#6e6e70;width:71px;text-overflow:clip;" text-anchor="middle" transform="translate(0,0)" y="344" opacity="1">16:00</text><text x="574" style="color:#6e6e70;cursor:default;font-size:11px;fill:#6e6e70;width:71px;text-overflow:clip;" text-anchor="end" transform="translate(0,0)" y="344" opacity="1"><tspan>8. Oct</tspan></text></g><g class="highcharts-axis-labels highcharts-yaxis-labels" ><text x="56" style="color:#6e6e70;cursor:default;font-size:11px;fill:#6e6e70;width:183px;text-overflow:clip;" text-anchor="end" transform="translate(0,0)" y="330" opacity="1">0</text><text x="56" style="color:#6e6e70;cursor:default;font-size:11px;fill:#6e6e70;width:183px;text-overflow:clip;" text-anchor="end" transform="translate(0,0)" y="285" opacity="1">2.5</text><text x="56" style="color:#6e6e70;cursor:default;font-size:11px;fill:#6e6e70;width:183px;text-overflow:clip;" text-anchor="end" transform="translate(0,0)" y="241" opacity="1">5</text><text x="56" style="color:#6e6e70;cursor:default;font-size:11px;fill:#6e6e70;width:183px;text-overflow:clip;" text-anchor="end" transform="translate(0,0)" y="196" opacity="1">7.5</text><text x="56" style="color:#6e6e70;cursor:default;font-size:11px;fill:#6e6e70;width:183px;text-overflow:clip;" text-anchor="end" transform="translate(0,0)" y="152" opacity="1">10</text><text x="56" style="color:#6e6e70;cursor:default;font-size:11px;fill:#6e6e70;width:183px;text-overflow:clip;" text-anchor="end" transform="translate(0,0)" y="107" opacity="1">12.5</text><text x="56" style="color:#6e6e70;cursor:default;font-size:11px;fill:#6e6e70;width:183px;text-overflow:clip;" text-anchor="end" transform="translate(0,0)" y="63" opacity="1">15</text></g><g class="highcharts-tooltip"  style="cursor:default;padding:0;white-space:nowrap;" transform="translate(0,-9999)"><path fill="none" d="M 3 0 L 13 0 C 16 0 16 0 16 3 L 16 13 C 16 16 16 16 13 16 L 3 16 C 0 16 0 16 0 13 L 0 3 C 0 0 0 0 3 0"  stroke="black" stroke-opacity="0.0" stroke-width="5" transform="translate(1, 1)"></path><path fill="none" d="M 3 0 L 13 0 C 16 0 16 0 16 3 L 16 13 C 16 16 16 16 13 16 L 3 16 C 0 16 0 16 0 13 L 0 3 C 0 0 0 0 3 0"  stroke="black" stroke-opacity="0.0" stroke-width="3" transform="translate(1, 1)"></path><path fill="none" d="M 3 0 L 13 0 C 16 0 16 0 16 3 L 16 13 C 16 16 16 16 13 16 L 3 16 C 0 16 0 16 0 13 L 0 3 C 0 0 0 0 3 0"  stroke="black" stroke-opacity="0.1" stroke-width="1" transform="translate(1, 1)"></path><path fill="rgb(249, 249, 249)" fill-opacity=" .85" d="M 3 0 L 13 0 C 16 0 16 0 16 3 L 16 13 C 16 16 16 16 13 16 L 3 16 C 0 16 0 16 0 13 L 0 3 C 0 0 0 0 3 0"></path><text x="8"  style="font-size:12px;color:#333333;fill:#333333;" transform="translate(0,20)"></text></g></svg>