<svg version="1.1" style="font-family: signika, serif; font-size: 12px; background-image: url(http://www.highcharts.com/samples/graphics/sand.png); background-attachment: initial; background-origin: initial; background-clip: initial; background-color: initial; background-position: initial initial; background-repeat: initial initial; " xmlns="http://www.w3.org/2000/svg" width="584" height="400" viewBox="0 0 584 400" xmlns:xlink="http://www.w3.org/1999/xlink"><style type="text/css"><![CDATA[@import url(http://fonts.googleapis.com/css?family=Signika:700);]]></style><desc>Created with Highcharts 4.1.4</desc><defs><clipPath id="highcharts-1"><rect x="0" y="0" width="519" height="248"></rect></clipPath><clipPath id="highcharts-2"><rect x="-99" y="-58" width="618" height="400"></rect></clipPath><clipPath id="highcharts-3"><rect x="0" y="0" width="519" height="248"></rect></clipPath></defs><g class="highcharts-grid" ></g><g class="highcharts-grid" ><path fill="none" d="M 55 306.5 L 574 306.5" stroke="#D8D8D8" stroke-width="1"  opacity="1"></path><path fill="none" d="M 55 223.5 L 574 223.5" stroke="#D8D8D8" stroke-width="1"  opacity="1"></path><path fill="none" d="M 55 141.5 L 574 141.5" stroke="#D8D8D8" stroke-width="1"  opacity="1"></path><path fill="none" d="M 55 57.5 L 574 57.5" stroke="#D8D8D8" stroke-width="1"  opacity="1"></path></g><g class="highcharts-axis" ><path fill="none" d="M 107.5 306 L 107.5 316" stroke="#C0D0E0" stroke-width="1" opacity="1"></path><path fill="none" d="M 233.5 306 L 233.5 316" stroke="#C0D0E0" stroke-width="1" opacity="1"></path><path fill="none" d="M 355.5 306 L 355.5 316" stroke="#C0D0E0" stroke-width="1" opacity="1"></path><path fill="none" d="M 481.5 306 L 481.5 316" stroke="#C0D0E0" stroke-width="1" opacity="1"></path><text x="314.5"  text-anchor="middle" transform="translate(0,0)" class=" highcharts-xaxis-title" style="color:#707070;fill:#707070;" visibility="visible" y="344">Date</text><path fill="none" d="M 55 306.5 L 574 306.5" stroke="#C0D0E0" stroke-width="1"  visibility="visible"></path></g><g class="highcharts-axis" ><text x="24"  text-anchor="middle" transform="translate(0,0) rotate(270 24 182)" class=" highcharts-yaxis-title" style="color:#707070;fill:#707070;" visibility="visible" y="182"><tspan>Snow depth (m)</tspan></text></g><g class="highcharts-series-group" ><g class="highcharts-series" visibility="visible"  transform="translate(55,58) scale(1 1)" clip-path="url(#highcharts-3)"><path fill="none" d="M 42.3 248 C 42.3 248 59.6 206.6 71.2 198.4 C 77.8 190.1 81.2 192.5 87.8 190.1 C 99.4 185.9 105.1 181.8 116.7 181.8 C 122.5 181.8 125.4 198.4 131.2 198.4 C 137.0 198.4 139.9 198.4 145.7 198.4 C 155.6 198.4 160.6 197.8 170.5 192.6 C 173.8 190.8 175.5 181.0 178.8 181.0 C 184.6 181.0 187.5 183.5 193.3 183.5 C 196.6 183.5 198.2 174.3 201.5 166.9 C 213.9 139.3 220.2 95.8 232.6 95.8 C 244.1 95.8 249.9 99.1 261.5 99.1 C 268.1 99.1 271.4 99.1 278.1 99.1 C 283.0 99.1 285.5 99.0 290.5 89.2 C 297.1 76.2 300.4 57.5 307.0 42.1 C 312.8 28.7 315.7 17.3 321.5 17.3 C 324.8 17.3 326.5 20.6 329.8 22.3 C 338.0 26.5 342.2 32.2 350.5 32.2 C 357.1 32.2 360.4 24.4 367.0 19.8 C 370.3 17.5 372.0 14.8 375.3 14.8 C 381.1 14.8 384.0 14.8 389.8 16.5 C 406.3 18.1 414.6 48.2 431.1 74.3 C 450.2 104.4 459.7 119.0 478.7 157.0 C 490.3 180.2 496.1 197.3 507.7 227.3 C 510.1 233.7 513.9 248 513.9 248" stroke="black" stroke-width="5"  stroke-linejoin="round" stroke-linecap="round"  stroke-opacity="0.0" transform="translate(1, 1)"></path><path fill="none" d="M 42.3 248 C 42.3 248 59.6 206.6 71.2 198.4 C 77.8 190.1 81.2 192.5 87.8 190.1 C 99.4 185.9 105.1 181.8 116.7 181.8 C 122.5 181.8 125.4 198.4 131.2 198.4 C 137.0 198.4 139.9 198.4 145.7 198.4 C 155.6 198.4 160.6 197.8 170.5 192.6 C 173.8 190.8 175.5 181.0 178.8 181.0 C 184.6 181.0 187.5 183.5 193.3 183.5 C 196.6 183.5 198.2 174.3 201.5 166.9 C 213.9 139.3 220.2 95.8 232.6 95.8 C 244.1 95.8 249.9 99.1 261.5 99.1 C 268.1 99.1 271.4 99.1 278.1 99.1 C 283.0 99.1 285.5 99.0 290.5 89.2 C 297.1 76.2 300.4 57.5 307.0 42.1 C 312.8 28.7 315.7 17.3 321.5 17.3 C 324.8 17.3 326.5 20.6 329.8 22.3 C 338.0 26.5 342.2 32.2 350.5 32.2 C 357.1 32.2 360.4 24.4 367.0 19.8 C 370.3 17.5 372.0 14.8 375.3 14.8 C 381.1 14.8 384.0 14.8 389.8 16.5 C 406.3 18.1 414.6 48.2 431.1 74.3 C 450.2 104.4 459.7 119.0 478.7 157.0 C 490.3 180.2 496.1 197.3 507.7 227.3 C 510.1 233.7 513.9 248 513.9 248" stroke="black" stroke-width="3"  stroke-linejoin="round" stroke-linecap="round"  stroke-opacity="0.0" transform="translate(1, 1)"></path><path fill="none" d="M 42.3 248 C 42.3 248 59.6 206.6 71.2 198.4 C 77.8 190.1 81.2 192.5 87.8 190.1 C 99.4 185.9 105.1 181.8 116.7 181.8 C 122.5 181.8 125.4 198.4 131.2 198.4 C 137.0 198.4 139.9 198.4 145.7 198.4 C 155.6 198.4 160.6 197.8 170.5 192.6 C 173.8 190.8 175.5 181.0 178.8 181.0 C 184.6 181.0 187.5 183.5 193.3 183.5 C 196.6 183.5 198.2 174.3 201.5 166.9 C 213.9 139.3 220.2 95.8 232.6 95.8 C 244.1 95.8 249.9 99.1 261.5 99.1 C 268.1 99.1 271.4 99.1 278.1 99.1 C 283.0 99.1 285.5 99.0 290.5 89.2 C 297.1 76.2 300.4 57.5 307.0 42.1 C 312.8 28.7 315.7 17.3 321.5 17.3 C 324.8 17.3 326.5 20.6 329.8 22.3 C 338.0 26.5 342.2 32.2 350.5 32.2 C 357.1 32.2 360.4 24.4 367.0 19.8 C 370.3 17.5 372.0 14.8 375.3 14.8 C 381.1 14.8 384.0 14.8 389.8 16.5 C 406.3 18.1 414.6 48.2 431.1 74.3 C 450.2 104.4 459.7 119.0 478.7 157.0 C 490.3 180.2 496.1 197.3 507.7 227.3 C 510.1 233.7 513.9 248 513.9 248" stroke="black" stroke-width="1"  stroke-linejoin="round" stroke-linecap="round"  stroke-opacity="0.1" transform="translate(1, 1)"></path><path fill="none" d="M 42.3 248 C 42.3 248 59.6 206.6 71.2 198.4 C 77.8 190.1 81.2 192.5 87.8 190.1 C 99.4 185.9 105.1 181.8 116.7 181.8 C 122.5 181.8 125.4 198.4 131.2 198.4 C 137.0 198.4 139.9 198.4 145.7 198.4 C 155.6 198.4 160.6 197.8 170.5 192.6 C 173.8 190.8 175.5 181.0 178.8 181.0 C 184.6 181.0 187.5 183.5 193.3 183.5 C 196.6 183.5 198.2 174.3 201.5 166.9 C 213.9 139.3 220.2 95.8 232.6 95.8 C 244.1 95.8 249.9 99.1 261.5 99.1 C 268.1 99.1 271.4 99.1 278.1 99.1 C 283.0 99.1 285.5 99.0 290.5 89.2 C 297.1 76.2 300.4 57.5 307.0 42.1 C 312.8 28.7 315.7 17.3 321.5 17.3 C 324.8 17.3 326.5 20.6 329.8 22.3 C 338.0 26.5 342.2 32.2 350.5 32.2 C 357.1 32.2 360.4 24.4 367.0 19.8 C 370.3 17.5 372.0 14.8 375.3 14.8 C 381.1 14.8 384.0 14.8 389.8 16.5 C 406.3 18.1 414.6 48.2 431.1 74.3 C 450.2 104.4 459.7 119.0 478.7 157.0 C 490.3 180.2 496.1 197.3 507.7 227.3 C 510.1 233.7 513.9 248 513.9 248" stroke="#f45b5b" stroke-width="2"  stroke-linejoin="round" stroke-linecap="round"></path><path fill="none" d="M 32.3 248 L 42.3 248 C 42.3 248 59.6 206.6 71.2 198.4 C 77.8 190.1 81.2 192.5 87.8 190.1 C 99.4 185.9 105.1 181.8 116.7 181.8 C 122.5 181.8 125.4 198.4 131.2 198.4 C 137.0 198.4 139.9 198.4 145.7 198.4 C 155.6 198.4 160.6 197.8 170.5 192.6 C 173.8 190.8 175.5 181.0 178.8 181.0 C 184.6 181.0 187.5 183.5 193.3 183.5 C 196.6 183.5 198.2 174.3 201.5 166.9 C 213.9 139.3 220.2 95.8 232.6 95.8 C 244.1 95.8 249.9 99.1 261.5 99.1 C 268.1 99.1 271.4 99.1 278.1 99.1 C 283.0 99.1 285.5 99.0 290.5 89.2 C 297.1 76.2 300.4 57.5 307.0 42.1 C 312.8 28.7 315.7 17.3 321.5 17.3 C 324.8 17.3 326.5 20.6 329.8 22.3 C 338.0 26.5 342.2 32.2 350.5 32.2 C 357.1 32.2 360.4 24.4 367.0 19.8 C 370.3 17.5 372.0 14.8 375.3 14.8 C 381.1 14.8 384.0 14.8 389.8 16.5 C 406.3 18.1 414.6 48.2 431.1 74.3 C 450.2 104.4 459.7 119.0 478.7 157.0 C 490.3 180.2 496.1 197.3 507.7 227.3 C 510.1 233.7 513.9 248 513.9 248 L 523.9 248" stroke-linejoin="round" visibility="visible" stroke="rgb(192,192,192)" stroke-opacity="0.0" stroke-width="22"  class=" highcharts-tracker" style=""></path></g><g class="highcharts-markers highcharts-tracker" visibility="visible"  transform="translate(55,58) scale(1 1)" clip-path="url(#highcharts-2)" style=""><path fill="#f45b5b" d="M 513 244 C 518.3 244 518.3 252 513 252 C 507.6 252 507.6 244 513 244 Z"></path><path fill="#f45b5b" d="M 507 223.3 C 512.3 223.3 512.3 231.3 507 231.3 C 501.6 231.3 501.6 223.3 507 223.3 Z"></path><path fill="#f45b5b" d="M 478 153.0 C 483.3 153.0 483.3 161.0 478 161.0 C 472.6 161.0 472.6 153.0 478 153.0 Z"></path><path fill="#f45b5b" d="M 431 70.3 C 436.3 70.3 436.3 78.3 431 78.3 C 425.6 78.3 425.6 70.3 431 70.3 Z"></path><path fill="#f45b5b" d="M 389 12.5 C 394.3 12.5 394.3 20.5 389 20.5 C 383.6 20.5 383.6 12.5 389 12.5 Z"></path><path fill="#f45b5b" d="M 375 10.8 C 380.3 10.8 380.3 18.8 375 18.8 C 369.6 18.8 369.6 10.8 375 10.8 Z"></path><path fill="#f45b5b" d="M 367 15.8 C 372.3 15.8 372.3 23.8 367 23.8 C 361.6 23.8 361.6 15.8 367 15.8 Z"></path><path fill="#f45b5b" d="M 350 28.2 C 355.3 28.2 355.3 36.2 350 36.2 C 344.6 36.2 344.6 28.2 350 28.2 Z"></path><path fill="#f45b5b" d="M 329 18.3 C 334.3 18.3 334.3 26.3 329 26.3 C 323.6 26.3 323.6 18.3 329 18.3 Z"></path><path fill="#f45b5b" d="M 321 13.3 C 326.3 13.3 326.3 21.3 321 21.3 C 315.6 21.3 315.6 13.3 321 13.3 Z"></path><path fill="#f45b5b" d="M 307 38.1 C 312.3 38.1 312.3 46.1 307 46.1 C 301.6 46.1 301.6 38.1 307 38.1 Z"></path><path fill="#f45b5b" d="M 290 85.2 C 295.3 85.2 295.3 93.2 290 93.2 C 284.6 93.2 284.6 85.2 290 85.2 Z"></path><path fill="#f45b5b" d="M 278 95.1 C 283.3 95.1 283.3 103.1 278 103.1 C 272.6 103.1 272.6 95.1 278 95.1 Z"></path><path fill="#f45b5b" d="M 261 95.1 C 266.3 95.1 266.3 103.1 261 103.1 C 255.6 103.1 255.6 95.1 261 95.1 Z"></path><path fill="#f45b5b" d="M 232 91.8 C 237.3 91.8 237.3 99.8 232 99.8 C 226.6 99.8 226.6 91.8 232 91.8 Z"></path><path fill="#f45b5b" d="M 201 162.9 C 206.3 162.9 206.3 170.9 201 170.9 C 195.6 170.9 195.6 162.9 201 162.9 Z"></path><path fill="#f45b5b" d="M 193 179.5 C 198.3 179.5 198.3 187.5 193 187.5 C 187.6 187.5 187.6 179.5 193 179.5 Z"></path><path fill="#f45b5b" d="M 178 177.0 C 183.3 177.0 183.3 185.0 178 185.0 C 172.6 185.0 172.6 177.0 178 177.0 Z"></path><path fill="#f45b5b" d="M 170 188.6 C 175.3 188.6 175.3 196.6 170 196.6 C 164.6 196.6 164.6 188.6 170 188.6 Z"></path><path fill="#f45b5b" d="M 145 194.4 C 150.3 194.4 150.3 202.4 145 202.4 C 139.6 202.4 139.6 194.4 145 194.4 Z"></path><path fill="#f45b5b" d="M 131 194.4 C 136.3 194.4 136.3 202.4 131 202.4 C 125.6 202.4 125.6 194.4 131 194.4 Z"></path><path fill="#f45b5b" d="M 116 177.8 C 121.3 177.8 121.3 185.8 116 185.8 C 110.6 185.8 110.6 177.8 116 177.8 Z"></path><path fill="#f45b5b" d="M 87 186.1 C 92.3 186.1 92.3 194.1 87 194.1 C 81.6 194.1 81.6 186.1 87 186.1 Z"></path><path fill="#f45b5b" d="M 71 194.4 C 76.3 194.4 76.3 202.4 71 202.4 C 65.6 202.4 65.6 194.4 71 194.4 Z"></path><path fill="#f45b5b" d="M 42 244 C 47.3 244 47.3 252 42 252 C 36.6 252 36.6 244 42 244 Z"></path></g><g class="highcharts-series" visibility="visible"  transform="translate(55,58) scale(1 1)" clip-path="url(#highcharts-3)"><path fill="none" d="M 23.7 248 C 23.7 248 33.6 234.2 40.2 231.4 C 70.0 218.7 84.9 218.2 114.7 209.1 C 122.9 206.6 127.1 209.1 135.3 202.5 C 146.9 195.9 152.7 133.9 164.3 133.9 C 175.9 133.9 181.7 133.9 193.3 133.9 C 199.1 133.9 201.9 133.9 207.7 133.9 C 221.8 133.9 228.8 133.9 242.9 133.9 C 248.7 133.9 251.6 127.3 257.4 125.6 C 268.1 124 273.5 125.6 284.3 124 C 300.0 122.3 307.9 101.5 323.6 91.7 C 334.3 85.0 339.7 82.6 350.5 82.6 C 358.7 82.6 362.9 85.6 371.1 87.6 C 375.3 88.6 377.3 87.6 381.5 90.1 C 384.8 92.5 386.4 99.2 389.8 103.3 C 394.7 109.4 397.2 110.3 402.2 115.7 C 432.0 148.3 446.8 162.9 476.6 198.4 C 481.6 204.3 484.1 209.9 489.0 219.0 C 494.8 229.7 503.5 248 503.5 248" stroke="black" stroke-width="5"  stroke-linejoin="round" stroke-linecap="round"  stroke-opacity="0.0" transform="translate(1, 1)"></path><path fill="none" d="M 23.7 248 C 23.7 248 33.6 234.2 40.2 231.4 C 70.0 218.7 84.9 218.2 114.7 209.1 C 122.9 206.6 127.1 209.1 135.3 202.5 C 146.9 195.9 152.7 133.9 164.3 133.9 C 175.9 133.9 181.7 133.9 193.3 133.9 C 199.1 133.9 201.9 133.9 207.7 133.9 C 221.8 133.9 228.8 133.9 242.9 133.9 C 248.7 133.9 251.6 127.3 257.4 125.6 C 268.1 124 273.5 125.6 284.3 124 C 300.0 122.3 307.9 101.5 323.6 91.7 C 334.3 85.0 339.7 82.6 350.5 82.6 C 358.7 82.6 362.9 85.6 371.1 87.6 C 375.3 88.6 377.3 87.6 381.5 90.1 C 384.8 92.5 386.4 99.2 389.8 103.3 C 394.7 109.4 397.2 110.3 402.2 115.7 C 432.0 148.3 446.8 162.9 476.6 198.4 C 481.6 204.3 484.1 209.9 489.0 219.0 C 494.8 229.7 503.5 248 503.5 248" stroke="black" stroke-width="3"  stroke-linejoin="round" stroke-linecap="round"  stroke-opacity="0.0" transform="translate(1, 1)"></path><path fill="none" d="M 23.7 248 C 23.7 248 33.6 234.2 40.2 231.4 C 70.0 218.7 84.9 218.2 114.7 209.1 C 122.9 206.6 127.1 209.1 135.3 202.5 C 146.9 195.9 152.7 133.9 164.3 133.9 C 175.9 133.9 181.7 133.9 193.3 133.9 C 199.1 133.9 201.9 133.9 207.7 133.9 C 221.8 133.9 228.8 133.9 242.9 133.9 C 248.7 133.9 251.6 127.3 257.4 125.6 C 268.1 124 273.5 125.6 284.3 124 C 300.0 122.3 307.9 101.5 323.6 91.7 C 334.3 85.0 339.7 82.6 350.5 82.6 C 358.7 82.6 362.9 85.6 371.1 87.6 C 375.3 88.6 377.3 87.6 381.5 90.1 C 384.8 92.5 386.4 99.2 389.8 103.3 C 394.7 109.4 397.2 110.3 402.2 115.7 C 432.0 148.3 446.8 162.9 476.6 198.4 C 481.6 204.3 484.1 209.9 489.0 219.0 C 494.8 229.7 503.5 248 503.5 248" stroke="black" stroke-width="1"  stroke-linejoin="round" stroke-linecap="round"  stroke-opacity="0.1" transform="translate(1, 1)"></path><path fill="none" d="M 23.7 248 C 23.7 248 33.6 234.2 40.2 231.4 C 70.0 218.7 84.9 218.2 114.7 209.1 C 122.9 206.6 127.1 209.1 135.3 202.5 C 146.9 195.9 152.7 133.9 164.3 133.9 C 175.9 133.9 181.7 133.9 193.3 133.9 C 199.1 133.9 201.9 133.9 207.7 133.9 C 221.8 133.9 228.8 133.9 242.9 133.9 C 248.7 133.9 251.6 127.3 257.4 125.6 C 268.1 124 273.5 125.6 284.3 124 C 300.0 122.3 307.9 101.5 323.6 91.7 C 334.3 85.0 339.7 82.6 350.5 82.6 C 358.7 82.6 362.9 85.6 371.1 87.6 C 375.3 88.6 377.3 87.6 381.5 90.1 C 384.8 92.5 386.4 99.2 389.8 103.3 C 394.7 109.4 397.2 110.3 402.2 115.7 C 432.0 148.3 446.8 162.9 476.6 198.4 C 481.6 204.3 484.1 209.9 489.0 219.0 C 494.8 229.7 503.5 248 503.5 248" stroke="#8085e9" stroke-width="2"  stroke-linejoin="round" stroke-linecap="round"></path><path fill="none" d="M 13.7 248 L 23.7 248 C 23.7 248 33.6 234.2 40.2 231.4 C 70.0 218.7 84.9 218.2 114.7 209.1 C 122.9 206.6 127.1 209.1 135.3 202.5 C 146.9 195.9 152.7 133.9 164.3 133.9 C 175.9 133.9 181.7 133.9 193.3 133.9 C 199.1 133.9 201.9 133.9 207.7 133.9 C 221.8 133.9 228.8 133.9 242.9 133.9 C 248.7 133.9 251.6 127.3 257.4 125.6 C 268.1 124 273.5 125.6 284.3 124 C 300.0 122.3 307.9 101.5 323.6 91.7 C 334.3 85.0 339.7 82.6 350.5 82.6 C 358.7 82.6 362.9 85.6 371.1 87.6 C 375.3 88.6 377.3 87.6 381.5 90.1 C 384.8 92.5 386.4 99.2 389.8 103.3 C 394.7 109.4 397.2 110.3 402.2 115.7 C 432.0 148.3 446.8 162.9 476.6 198.4 C 481.6 204.3 484.1 209.9 489.0 219.0 C 494.8 229.7 503.5 248 503.5 248 L 513.5 248" stroke-linejoin="round" visibility="visible" stroke="rgb(192,192,192)" stroke-opacity="0.0" stroke-width="22"  class=" highcharts-tracker" style=""></path></g><g class="highcharts-markers highcharts-tracker" visibility="visible"  transform="translate(55,58) scale(1 1)" clip-path="url(#highcharts-2)" style=""><path fill="#8085e9" d="M 503 244 L 507 248 503 252 499 248 Z"></path><path fill="#8085e9" d="M 489 215.0 L 493 219.0 489 223.0 485 219.0 Z"></path><path fill="#8085e9" d="M 476 194.4 L 480 198.4 476 202.4 472 198.4 Z"></path><path fill="#8085e9" d="M 402 111.7 L 406 115.7 402 119.7 398 115.7 Z"></path><path fill="#8085e9" d="M 389 99.3 L 393 103.3 389 107.3 385 103.3 Z"></path><path fill="#8085e9" d="M 381 86.1 L 385 90.1 381 94.1 377 90.1 Z"></path><path fill="#8085e9" d="M 371 83.6 L 375 87.6 371 91.6 367 87.6 Z"></path><path fill="#8085e9" d="M 350 78.6 L 354 82.6 350 86.6 346 82.6 Z"></path><path fill="#8085e9" d="M 323 87.7 L 327 91.7 323 95.7 319 91.7 Z"></path><path fill="#8085e9" d="M 284 120 L 288 124 284 128 280 124 Z"></path><path fill="#8085e9" d="M 257 121.6 L 261 125.6 257 129.6 253 125.6 Z"></path><path fill="#8085e9" d="M 242 129.9 L 246 133.9 242 137.9 238 133.9 Z"></path><path fill="#8085e9" d="M 207 129.9 L 211 133.9 207 137.9 203 133.9 Z"></path><path fill="#8085e9" d="M 193 129.9 L 197 133.9 193 137.9 189 133.9 Z"></path><path fill="#8085e9" d="M 164 129.9 L 168 133.9 164 137.9 160 133.9 Z"></path><path fill="#8085e9" d="M 135 198.5 L 139 202.5 135 206.5 131 202.5 Z"></path><path fill="#8085e9" d="M 114 205.1 L 118 209.1 114 213.1 110 209.1 Z"></path><path fill="#8085e9" d="M 40 227.4 L 44 231.4 40 235.4 36 231.4 Z"></path><path fill="#8085e9" d="M 23 244 L 27 248 23 252 19 248 Z"></path></g><g class="highcharts-series" visibility="visible"  transform="translate(55,58) scale(1 1)" clip-path="url(#highcharts-3)"><path fill="none" d="M 5.0 248 C 5.0 248 11.2 236.7 15.4 235.6 C 52.6 225.1 71.2 226.8 108.5 219.0 C 120.0 216.6 125.8 213.2 137.4 209.9 C 154.0 205.3 162.2 199.2 178.8 199.2 C 197.8 199.2 207.3 200.0 226.4 200.0 C 233.0 200.0 236.3 198.0 242.9 196.7 C 247.9 195.7 250.3 195.6 255.3 194.2 C 268.6 190.6 275.2 184.3 288.4 184.3 C 299.2 184.3 304.5 184.3 315.3 184.3 C 320.3 184.3 322.7 183.8 327.7 182.6 C 336.0 180.8 340.1 176.9 348.4 176.9 C 357.5 176.9 362.0 181.8 371.1 181.8 C 382.7 181.8 388.5 170.2 400.1 170.2 C 405.1 170.2 407.5 170.2 412.5 173.6 C 430.7 176.9 439.8 191.5 458.0 215.7 C 462.2 221.2 468.4 248 468.4 248" stroke="black" stroke-width="5"  stroke-linejoin="round" stroke-linecap="round"  stroke-opacity="0.0" transform="translate(1, 1)"></path><path fill="none" d="M 5.0 248 C 5.0 248 11.2 236.7 15.4 235.6 C 52.6 225.1 71.2 226.8 108.5 219.0 C 120.0 216.6 125.8 213.2 137.4 209.9 C 154.0 205.3 162.2 199.2 178.8 199.2 C 197.8 199.2 207.3 200.0 226.4 200.0 C 233.0 200.0 236.3 198.0 242.9 196.7 C 247.9 195.7 250.3 195.6 255.3 194.2 C 268.6 190.6 275.2 184.3 288.4 184.3 C 299.2 184.3 304.5 184.3 315.3 184.3 C 320.3 184.3 322.7 183.8 327.7 182.6 C 336.0 180.8 340.1 176.9 348.4 176.9 C 357.5 176.9 362.0 181.8 371.1 181.8 C 382.7 181.8 388.5 170.2 400.1 170.2 C 405.1 170.2 407.5 170.2 412.5 173.6 C 430.7 176.9 439.8 191.5 458.0 215.7 C 462.2 221.2 468.4 248 468.4 248" stroke="black" stroke-width="3"  stroke-linejoin="round" stroke-linecap="round"  stroke-opacity="0.0" transform="translate(1, 1)"></path><path fill="none" d="M 5.0 248 C 5.0 248 11.2 236.7 15.4 235.6 C 52.6 225.1 71.2 226.8 108.5 219.0 C 120.0 216.6 125.8 213.2 137.4 209.9 C 154.0 205.3 162.2 199.2 178.8 199.2 C 197.8 199.2 207.3 200.0 226.4 200.0 C 233.0 200.0 236.3 198.0 242.9 196.7 C 247.9 195.7 250.3 195.6 255.3 194.2 C 268.6 190.6 275.2 184.3 288.4 184.3 C 299.2 184.3 304.5 184.3 315.3 184.3 C 320.3 184.3 322.7 183.8 327.7 182.6 C 336.0 180.8 340.1 176.9 348.4 176.9 C 357.5 176.9 362.0 181.8 371.1 181.8 C 382.7 181.8 388.5 170.2 400.1 170.2 C 405.1 170.2 407.5 170.2 412.5 173.6 C 430.7 176.9 439.8 191.5 458.0 215.7 C 462.2 221.2 468.4 248 468.4 248" stroke="black" stroke-width="1"  stroke-linejoin="round" stroke-linecap="round"  stroke-opacity="0.1" transform="translate(1, 1)"></path><path fill="none" d="M 5.0 248 C 5.0 248 11.2 236.7 15.4 235.6 C 52.6 225.1 71.2 226.8 108.5 219.0 C 120.0 216.6 125.8 213.2 137.4 209.9 C 154.0 205.3 162.2 199.2 178.8 199.2 C 197.8 199.2 207.3 200.0 226.4 200.0 C 233.0 200.0 236.3 198.0 242.9 196.7 C 247.9 195.7 250.3 195.6 255.3 194.2 C 268.6 190.6 275.2 184.3 288.4 184.3 C 299.2 184.3 304.5 184.3 315.3 184.3 C 320.3 184.3 322.7 183.8 327.7 182.6 C 336.0 180.8 340.1 176.9 348.4 176.9 C 357.5 176.9 362.0 181.8 371.1 181.8 C 382.7 181.8 388.5 170.2 400.1 170.2 C 405.1 170.2 407.5 170.2 412.5 173.6 C 430.7 176.9 439.8 191.5 458.0 215.7 C 462.2 221.2 468.4 248 468.4 248" stroke="#8d4654" stroke-width="2"  stroke-linejoin="round" stroke-linecap="round"></path><path fill="none" d="M -4.9 248 L 5.0 248 C 5.0 248 11.2 236.7 15.4 235.6 C 52.6 225.1 71.2 226.8 108.5 219.0 C 120.0 216.6 125.8 213.2 137.4 209.9 C 154.0 205.3 162.2 199.2 178.8 199.2 C 197.8 199.2 207.3 200.0 226.4 200.0 C 233.0 200.0 236.3 198.0 242.9 196.7 C 247.9 195.7 250.3 195.6 255.3 194.2 C 268.6 190.6 275.2 184.3 288.4 184.3 C 299.2 184.3 304.5 184.3 315.3 184.3 C 320.3 184.3 322.7 183.8 327.7 182.6 C 336.0 180.8 340.1 176.9 348.4 176.9 C 357.5 176.9 362.0 181.8 371.1 181.8 C 382.7 181.8 388.5 170.2 400.1 170.2 C 405.1 170.2 407.5 170.2 412.5 173.6 C 430.7 176.9 439.8 191.5 458.0 215.7 C 462.2 221.2 468.4 248 468.4 248 L 478.4 248" stroke-linejoin="round" visibility="visible" stroke="rgb(192,192,192)" stroke-opacity="0.0" stroke-width="22"  class=" highcharts-tracker" style=""></path></g><g class="highcharts-markers highcharts-tracker" visibility="visible"  transform="translate(55,58) scale(1 1)" clip-path="url(#highcharts-2)" style=""><path fill="#8d4654" d="M 464 244 L 472 244 472 252 464 252 Z"></path><path fill="#8d4654" d="M 454 211.7 L 462 211.7 462 219.7 454 219.7 Z"></path><path fill="#8d4654" d="M 408 169.6 L 416 169.6 416 177.6 408 177.6 Z"></path><path fill="#8d4654" d="M 396 166.2 L 404 166.2 404 174.2 396 174.2 Z"></path><path fill="#8d4654" d="M 367 177.8 L 375 177.8 375 185.8 367 185.8 Z"></path><path fill="#8d4654" d="M 344 172.9 L 352 172.9 352 180.9 344 180.9 Z"></path><path fill="#8d4654" d="M 323 178.6 L 331 178.6 331 186.6 323 186.6 Z"></path><path fill="#8d4654" d="M 311 180.3 L 319 180.3 319 188.3 311 188.3 Z"></path><path fill="#8d4654" d="M 284 180.3 L 292 180.3 292 188.3 284 188.3 Z"></path><path fill="#8d4654" d="M 251 190.2 L 259 190.2 259 198.2 251 198.2 Z"></path><path fill="#8d4654" d="M 238 192.7 L 246 192.7 246 200.7 238 200.7 Z"></path><path fill="#8d4654" d="M 222 196.0 L 230 196.0 230 204.0 222 204.0 Z"></path><path fill="#8d4654" d="M 174 195.2 L 182 195.2 182 203.2 174 203.2 Z"></path><path fill="#8d4654" d="M 133 205.9 L 141 205.9 141 213.9 133 213.9 Z"></path><path fill="#8d4654" d="M 104 215.0 L 112 215.0 112 223.0 104 223.0 Z"></path><path fill="#8d4654" d="M 11 231.6 L 19 231.6 19 239.6 11 239.6 Z"></path><path fill="#8d4654" d="M 1 244 L 9 244 9 252 1 252 Z"></path></g></g><text x="292" text-anchor="middle" class="highcharts-title"  style="color:black;font-size:16px;font-weight:bold;fill:black;width:520px;" y="22"><tspan>Snow depth at Vikjafjellet, Norway</tspan></text><text x="292" text-anchor="middle" class="highcharts-subtitle"  style="color:black;fill:black;width:520px;" y="43"><tspan>Irregular time data in Highcharts JS</tspan></text><g class="highcharts-legend"  transform="translate(56,358)"><g ><g><g class="highcharts-legend-item"  transform="translate(8,3)"><path fill="none" d="M 0 12 L 16 12" stroke="#f45b5b" stroke-width="2"></path><path fill="#f45b5b" d="M 8 8 C 13.3 8 13.3 16 8 16 C 2.6 16 2.6 8 8 8 Z"></path><text x="21" style="color:#333333;font-size:13px;font-weight:bold;cursor:pointer;fill:#333333;" text-anchor="start"  y="16"><tspan>Winter 2007-2008</tspan></text></g><g class="highcharts-legend-item"  transform="translate(167,3)"><path fill="none" d="M 0 12 L 16 12" stroke="#8085e9" stroke-width="2"></path><path fill="#8085e9" d="M 8 8 L 12 12 8 16 4 12 Z"></path><text x="21" y="16" style="color:#333333;font-size:13px;font-weight:bold;cursor:pointer;fill:#333333;" text-anchor="start" ><tspan>Winter 2008-2009</tspan></text></g><g class="highcharts-legend-item"  transform="translate(326,3)"><path fill="none" d="M 0 12 L 16 12" stroke="#8d4654" stroke-width="2"></path><path fill="#8d4654" d="M 4 8 L 12 8 12 16 4 16 Z"></path><text x="21" y="16" style="color:#333333;font-size:13px;font-weight:bold;cursor:pointer;fill:#333333;" text-anchor="start" ><tspan>Winter 2009-2010</tspan></text></g></g></g></g><g class="highcharts-axis-labels highcharts-xaxis-labels" ><text x="107.6" style="color:#6e6e70;cursor:default;font-size:11px;fill:#6e6e70;width:120px;text-overflow:clip;" text-anchor="middle" transform="translate(0,0)" y="325" opacity="1"><tspan>1. Nov</tspan></text><text x="233.8" style="color:#6e6e70;cursor:default;font-size:11px;fill:#6e6e70;width:120px;text-overflow:clip;" text-anchor="middle" transform="translate(0,0)" y="325" opacity="1"><tspan>1. Jan</tspan></text><text x="355.8" style="color:#6e6e70;cursor:default;font-size:11px;fill:#6e6e70;width:120px;text-overflow:clip;" text-anchor="middle" transform="translate(0,0)" y="325" opacity="1"><tspan>1. Mar</tspan></text><text x="482.0" style="color:#6e6e70;cursor:default;font-size:11px;fill:#6e6e70;width:120px;text-overflow:clip;" text-anchor="middle" transform="translate(0,0)" y="325" opacity="1"><tspan>1. May</tspan></text></g><g class="highcharts-axis-labels highcharts-yaxis-labels" ><text x="40" style="color:#6e6e70;cursor:default;font-size:11px;fill:#6e6e70;width:183px;text-overflow:clip;" text-anchor="end" transform="translate(0,0)" y="311" opacity="1">0</text><text x="40" style="color:#6e6e70;cursor:default;font-size:11px;fill:#6e6e70;width:183px;text-overflow:clip;" text-anchor="end" transform="translate(0,0)" y="228" opacity="1">1</text><text x="40" style="color:#6e6e70;cursor:default;font-size:11px;fill:#6e6e70;width:183px;text-overflow:clip;" text-anchor="end" transform="translate(0,0)" y="145" opacity="1">2</text><text x="40" style="color:#6e6e70;cursor:default;font-size:11px;fill:#6e6e70;width:183px;text-overflow:clip;" text-anchor="end" transform="translate(0,0)" y="63" opacity="1">3</text></g><g class="highcharts-tooltip"  style="cursor:default;padding:0;white-space:nowrap;" transform="translate(0,-9999)"><path fill="none" d="M 3 0 L 13 0 C 16 0 16 0 16 3 L 16 13 C 16 16 16 16 13 16 L 3 16 C 0 16 0 16 0 13 L 0 3 C 0 0 0 0 3 0"  stroke="black" stroke-opacity="0.0" stroke-width="5" transform="translate(1, 1)"></path><path fill="none" d="M 3 0 L 13 0 C 16 0 16 0 16 3 L 16 13 C 16 16 16 16 13 16 L 3 16 C 0 16 0 16 0 13 L 0 3 C 0 0 0 0 3 0"  stroke="black" stroke-opacity="0.0" stroke-width="3" transform="translate(1, 1)"></path><path fill="none" d="M 3 0 L 13 0 C 16 0 16 0 16 3 L 16 13 C 16 16 16 16 13 16 L 3 16 C 0 16 0 16 0 13 L 0 3 C 0 0 0 0 3 0"  stroke="black" stroke-opacity="0.1" stroke-width="1" transform="translate(1, 1)"></path><path fill="rgb(249, 249, 249)" fill-opacity=" .85" d="M 3 0 L 13 0 C 16 0 16 0 16 3 L 16 13 C 16 16 16 16 13 16 L 3 16 C 0 16 0 16 0 13 L 0 3 C 0 0 0 0 3 0"></path><text x="8"  style="font-size:12px;color:#333333;fill:#333333;" transform="translate(0,20)"></text></g></svg>