<svg version="1.1" style="font-family: signika, serif; font-size: 12px; background-image: url(http://www.highcharts.com/samples/graphics/sand.png); background-attachment: initial; background-origin: initial; background-clip: initial; background-color: initial; background-position: initial initial; background-repeat: initial initial; " xmlns="http://www.w3.org/2000/svg" width="584" height="400" viewBox="0 0 584 400" xmlns:xlink="http://www.w3.org/1999/xlink"><style type="text/css"><![CDATA[@import url(http://fonts.googleapis.com/css?family=Signika:700);]]></style><desc>Created with Highcharts 4.1.4</desc><defs><clipPath id="highcharts-1"><rect x="1" y="0" width="286" height="500"></rect></clipPath><clipPath id="highcharts-2"><rect x="-99" y="-74" width="386" height="584"></rect></clipPath><clipPath id="highcharts-3"><rect x="1" y="0" width="287" height="500"></rect></clipPath></defs><g class="highcharts-grid" ></g><g class="highcharts-grid" ><path fill="none" d="M 73.5 58 L 73.5 345" stroke="#D8D8D8" stroke-width="1"  opacity="1"></path><path fill="none" d="M 118.5 58 L 118.5 345" stroke="#D8D8D8" stroke-width="1"  opacity="1"></path><path fill="none" d="M 164.5 58 L 164.5 345" stroke="#D8D8D8" stroke-width="1"  opacity="1"></path><path fill="none" d="M 209.5 58 L 209.5 345" stroke="#D8D8D8" stroke-width="1"  opacity="1"></path><path fill="none" d="M 255.5 58 L 255.5 345" stroke="#D8D8D8" stroke-width="1"  opacity="1"></path><path fill="none" d="M 300.5 58 L 300.5 345" stroke="#D8D8D8" stroke-width="1"  opacity="1"></path><path fill="none" d="M 346.5 58 L 346.5 345" stroke="#D8D8D8" stroke-width="1"  opacity="1"></path><path fill="none" d="M 391.5 58 L 391.5 345" stroke="#D8D8D8" stroke-width="1"  opacity="1"></path><path fill="none" d="M 437.5 58 L 437.5 345" stroke="#D8D8D8" stroke-width="1"  opacity="1"></path><path fill="none" d="M 482.5 58 L 482.5 345" stroke="#D8D8D8" stroke-width="1"  opacity="1"></path><path fill="none" d="M 528.5 58 L 528.5 345" stroke="#D8D8D8" stroke-width="1"  opacity="1"></path><path fill="none" d="M 574.5 58 L 574.5 345" stroke="#D8D8D8" stroke-width="1"  opacity="1"></path></g><g class="highcharts-axis" ><path fill="none" d="M 74 342.5 L 64 342.5" stroke="#C0D0E0" stroke-width="1" opacity="1"></path><path fill="none" d="M 74 258.5 L 64 258.5" stroke="#C0D0E0" stroke-width="1" opacity="1"></path><path fill="none" d="M 74 173.5 L 64 173.5" stroke="#C0D0E0" stroke-width="1" opacity="1"></path><path fill="none" d="M 74 88.5 L 64 88.5" stroke="#C0D0E0" stroke-width="1" opacity="1"></path><text x="24"  text-anchor="middle" transform="translate(0,0) rotate(270 24 201.5)" class=" highcharts-xaxis-title" style="color:#707070;fill:#707070;" visibility="visible" y="201.5">Altitude</text><path fill="none" d="M 73.5 58 L 73.5 345" stroke="#C0D0E0" stroke-width="1"  visibility="visible"></path></g><g class="highcharts-axis" ><text x="324"  text-anchor="middle" transform="translate(0,0)" class=" highcharts-yaxis-title" style="color:#707070;fill:#707070;" visibility="visible" y="383">Temperature</text><path fill="none" d="M 74 345 L 574 345" stroke="#C0D0E0" stroke-width="2"  visibility="visible"></path></g><g class="highcharts-series-group" ><g class="highcharts-series" visibility="visible"  transform="translate(574,345) rotate(90) scale(-1,1) scale(1 1)" clip-path="url(#highcharts-3)" width="500" height="287"><path fill="none" d="M 2.7 22.7 C 2.7 22.7 23.0 288.6 36.5 318.1 C 50.0 347.7 56.8 347.7 70.3 347.7 C 83.9 347.7 90.7 333.5 104.2 302.2 C 117.7 271 124.5 231.3 138.0 191.3 C 151.6 151.3 158.3 102.2 171.9 102.2 C 185.4 102.2 192.2 168.4 205.7 216.8 C 219.3 265.1 226.0 299.7 239.6 344.0 C 253.1 388.4 273.4 438.6 273.4 438.6" stroke="black" stroke-width="5"  stroke-linejoin="round" stroke-linecap="round"  stroke-opacity="0.0" transform="translate(-1,-1)"></path><path fill="none" d="M 2.7 22.7 C 2.7 22.7 23.0 288.6 36.5 318.1 C 50.0 347.7 56.8 347.7 70.3 347.7 C 83.9 347.7 90.7 333.5 104.2 302.2 C 117.7 271 124.5 231.3 138.0 191.3 C 151.6 151.3 158.3 102.2 171.9 102.2 C 185.4 102.2 192.2 168.4 205.7 216.8 C 219.3 265.1 226.0 299.7 239.6 344.0 C 253.1 388.4 273.4 438.6 273.4 438.6" stroke="black" stroke-width="3"  stroke-linejoin="round" stroke-linecap="round"  stroke-opacity="0.0" transform="translate(-1,-1)"></path><path fill="none" d="M 2.7 22.7 C 2.7 22.7 23.0 288.6 36.5 318.1 C 50.0 347.7 56.8 347.7 70.3 347.7 C 83.9 347.7 90.7 333.5 104.2 302.2 C 117.7 271 124.5 231.3 138.0 191.3 C 151.6 151.3 158.3 102.2 171.9 102.2 C 185.4 102.2 192.2 168.4 205.7 216.8 C 219.3 265.1 226.0 299.7 239.6 344.0 C 253.1 388.4 273.4 438.6 273.4 438.6" stroke="black" stroke-width="1"  stroke-linejoin="round" stroke-linecap="round"  stroke-opacity="0.1" transform="translate(-1,-1)"></path><path fill="none" d="M 2.7 22.7 C 2.7 22.7 23.0 288.6 36.5 318.1 C 50.0 347.7 56.8 347.7 70.3 347.7 C 83.9 347.7 90.7 333.5 104.2 302.2 C 117.7 271 124.5 231.3 138.0 191.3 C 151.6 151.3 158.3 102.2 171.9 102.2 C 185.4 102.2 192.2 168.4 205.7 216.8 C 219.3 265.1 226.0 299.7 239.6 344.0 C 253.1 388.4 273.4 438.6 273.4 438.6" stroke="#f45b5b" stroke-width="2"  stroke-linejoin="round" stroke-linecap="round"></path><path fill="none" d="M -7.2 22.7 L 2.7 22.7 C 2.7 22.7 23.0 288.6 36.5 318.1 C 50.0 347.7 56.8 347.7 70.3 347.7 C 83.9 347.7 90.7 333.5 104.2 302.2 C 117.7 271 124.5 231.3 138.0 191.3 C 151.6 151.3 158.3 102.2 171.9 102.2 C 185.4 102.2 192.2 168.4 205.7 216.8 C 219.3 265.1 226.0 299.7 239.6 344.0 C 253.1 388.4 273.4 438.6 273.4 438.6 L 283.4 438.6" stroke-linejoin="round" visibility="visible" stroke="rgb(192,192,192)" stroke-opacity="0.0" stroke-width="22"  class=" highcharts-tracker" style=""></path></g><g class="highcharts-markers highcharts-tracker" visibility="visible"  transform="translate(574,345) rotate(90) scale(-1,1) scale(1 1)" clip-path="url(#highcharts-2)" style="" width="500" height="287"><path fill="#f45b5b" d="M 273 434.6 C 278.3 434.6 278.3 442.6 273 442.6 C 267.6 442.6 267.6 434.6 273 434.6 Z"></path><path fill="#f45b5b" d="M 239 340.0 C 244.3 340.0 244.3 348.0 239 348.0 C 233.6 348.0 233.6 340.0 239 340.0 Z"></path><path fill="#f45b5b" d="M 205 212.8 C 210.3 212.8 210.3 220.8 205 220.8 C 199.6 220.8 199.6 212.8 205 212.8 Z"></path><path fill="#f45b5b" d="M 171 98.2 C 176.3 98.2 176.3 106.2 171 106.2 C 165.6 106.2 165.6 98.2 171 98.2 Z"></path><path fill="#f45b5b" d="M 138 187.3 C 143.3 187.3 143.3 195.3 138 195.3 C 132.6 195.3 132.6 187.3 138 187.3 Z"></path><path fill="#f45b5b" d="M 104 298.2 C 109.3 298.2 109.3 306.2 104 306.2 C 98.6 306.2 98.6 298.2 104 298.2 Z"></path><path fill="#f45b5b" d="M 70 343.7 C 75.3 343.7 75.3 351.7 70 351.7 C 64.6 351.7 64.6 343.7 70 343.7 Z"></path><path fill="#f45b5b" d="M 36 314.1 C 41.3 314.1 41.3 322.1 36 322.1 C 30.6 322.1 30.6 314.1 36 314.1 Z"></path><path fill="#f45b5b" d="M 2 18.7 C 7.3 18.7 7.3 26.7 2 26.7 C -3.3 26.7 -3.3 18.7 2 18.7 Z"></path></g></g><text x="292" text-anchor="middle" class="highcharts-title"  style="color:black;font-size:16px;font-weight:bold;fill:black;width:520px;" y="22"><tspan>Atmosphere Temperature by Altitude</tspan></text><text x="292" text-anchor="middle" class="highcharts-subtitle"  style="color:black;fill:black;width:520px;" y="43"><tspan>According to the Standard Atmosphere Model</tspan></text><g class="highcharts-axis-labels highcharts-xaxis-labels" ><text x="59" style="color:#6e6e70;cursor:default;font-size:11px;fill:#6e6e70;width:183px;text-overflow:clip;" text-anchor="end" transform="translate(0,0)" y="347" opacity="1">0km</text><text x="59" style="color:#6e6e70;cursor:default;font-size:11px;fill:#6e6e70;width:183px;text-overflow:clip;" text-anchor="end" transform="translate(0,0)" y="262" opacity="1">25km</text><text x="59" style="color:#6e6e70;cursor:default;font-size:11px;fill:#6e6e70;width:183px;text-overflow:clip;" text-anchor="end" transform="translate(0,0)" y="178" opacity="1">50km</text><text x="59" style="color:#6e6e70;cursor:default;font-size:11px;fill:#6e6e70;width:183px;text-overflow:clip;" text-anchor="end" transform="translate(0,0)" y="93" opacity="1">75km</text></g><g class="highcharts-axis-labels highcharts-yaxis-labels" ><text x="74" style="color:#6e6e70;cursor:default;font-size:11px;fill:#6e6e70;" text-anchor="middle" transform="translate(0,0)" y="364" opacity="1">-90°</text><text x="119.4" style="color:#6e6e70;cursor:default;font-size:11px;fill:#6e6e70;" text-anchor="middle" transform="translate(0,0)" y="364" opacity="1">-80°</text><text x="164.9" style="color:#6e6e70;cursor:default;font-size:11px;fill:#6e6e70;" text-anchor="middle" transform="translate(0,0)" y="364" opacity="1">-70°</text><text x="210.3" style="color:#6e6e70;cursor:default;font-size:11px;fill:#6e6e70;" text-anchor="middle" transform="translate(0,0)" y="364" opacity="1">-60°</text><text x="255.8" style="color:#6e6e70;cursor:default;font-size:11px;fill:#6e6e70;" text-anchor="middle" transform="translate(0,0)" y="364" opacity="1">-50°</text><text x="301.2" style="color:#6e6e70;cursor:default;font-size:11px;fill:#6e6e70;" text-anchor="middle" transform="translate(0,0)" y="364" opacity="1">-40°</text><text x="346.7" style="color:#6e6e70;cursor:default;font-size:11px;fill:#6e6e70;" text-anchor="middle" transform="translate(0,0)" y="364" opacity="1">-30°</text><text x="392.1" style="color:#6e6e70;cursor:default;font-size:11px;fill:#6e6e70;" text-anchor="middle" transform="translate(0,0)" y="364" opacity="1">-20°</text><text x="437.6" style="color:#6e6e70;cursor:default;font-size:11px;fill:#6e6e70;" text-anchor="middle" transform="translate(0,0)" y="364" opacity="1">-10°</text><text x="483.0" style="color:#6e6e70;cursor:default;font-size:11px;fill:#6e6e70;" text-anchor="middle" transform="translate(0,0)" y="364" opacity="1">0°</text><text x="528.5" style="color:#6e6e70;cursor:default;font-size:11px;fill:#6e6e70;" text-anchor="middle" transform="translate(0,0)" y="364" opacity="1">10°</text><text x="574" style="color:#6e6e70;cursor:default;font-size:11px;fill:#6e6e70;" text-anchor="end" transform="translate(0,0)" y="364" opacity="1">20°</text></g><g class="highcharts-tooltip"  style="cursor:default;padding:0;white-space:nowrap;" transform="translate(0,-9999)"><path fill="none" d="M 3 0 L 13 0 C 16 0 16 0 16 3 L 16 13 C 16 16 16 16 13 16 L 3 16 C 0 16 0 16 0 13 L 0 3 C 0 0 0 0 3 0"  stroke="black" stroke-opacity="0.0" stroke-width="5" transform="translate(1, 1)"></path><path fill="none" d="M 3 0 L 13 0 C 16 0 16 0 16 3 L 16 13 C 16 16 16 16 13 16 L 3 16 C 0 16 0 16 0 13 L 0 3 C 0 0 0 0 3 0"  stroke="black" stroke-opacity="0.0" stroke-width="3" transform="translate(1, 1)"></path><path fill="none" d="M 3 0 L 13 0 C 16 0 16 0 16 3 L 16 13 C 16 16 16 16 13 16 L 3 16 C 0 16 0 16 0 13 L 0 3 C 0 0 0 0 3 0"  stroke="black" stroke-opacity="0.1" stroke-width="1" transform="translate(1, 1)"></path><path fill="rgb(249, 249, 249)" fill-opacity=" .85" d="M 3 0 L 13 0 C 16 0 16 0 16 3 L 16 13 C 16 16 16 16 13 16 L 3 16 C 0 16 0 16 0 13 L 0 3 C 0 0 0 0 3 0"></path><text x="8"  style="font-size:12px;color:#333333;fill:#333333;" transform="translate(0,20)"></text></g></svg>