<svg version="1.1" style="font-family: signika, serif; font-size: 12px; background-image: url(http://www.highcharts.com/samples/graphics/sand.png); background-attachment: initial; background-origin: initial; background-clip: initial; background-color: initial; background-position: initial initial; background-repeat: initial initial; " xmlns="http://www.w3.org/2000/svg" width="584" height="400" viewBox="0 0 584 400" xmlns:xlink="http://www.w3.org/1999/xlink"><style type="text/css"><![CDATA[@import url(http://fonts.googleapis.com/css?family=Signika:700);]]></style><desc>Created with Highcharts 4.1.4</desc><defs><linearGradient x1="0" y1="0" x2="1" y2="0" id="highcharts-1"><stop offset="0" stop-color="#FFFFFF" stop-opacity="1"></stop><stop offset="1" stop-color="#f45b5b" stop-opacity="1"></stop></linearGradient><clipPath id="highcharts-2"><rect x="0" y="0" width="564" height="282"></rect></clipPath><clipPath id="highcharts-3"><rect x="-99" y="-44" width="663" height="400"></rect></clipPath><clipPath id="highcharts-4"><rect x="0" y="0" width="564" height="282"></rect></clipPath></defs><g class="highcharts-grid" ></g><g class="highcharts-grid" ></g><g class="highcharts-axis" ></g><g class="highcharts-axis" ></g><g class="highcharts-series-group" ><g class="highcharts-series highcharts-tracker" visibility="visible"  transform="translate(10,44) scale(1 1)" clip-path="url(#highcharts-4)" style=""><rect x="0" y="0" width="282" height="141" stroke="black" stroke-width="5" fill="none" rx="0" ry="0"   stroke-opacity="0.0" transform="translate(1, 1)" r="0"></rect><rect x="0" y="0" width="282" height="141" stroke="black" stroke-width="3" fill="none" rx="0" ry="0"   stroke-opacity="0.0" transform="translate(1, 1)" r="0"></rect><rect x="0" y="0" width="282" height="141" stroke="black" stroke-width="1" fill="none" rx="0" ry="0"   stroke-opacity="0.1" transform="translate(1, 1)" r="0"></rect><rect x="0" y="0" width="282" height="141" stroke="#E0E0E0" stroke-width="1" fill="rgb(254,235,235)" rx="0" ry="0" ></rect><rect x="0" y="141" width="282" height="141" stroke="black" stroke-width="5" fill="none" rx="0" ry="0"   stroke-opacity="0.0" transform="translate(1, 1)" r="0"></rect><rect x="0" y="141" width="282" height="141" stroke="black" stroke-width="3" fill="none" rx="0" ry="0"   stroke-opacity="0.0" transform="translate(1, 1)" r="0"></rect><rect x="0" y="141" width="282" height="141" stroke="black" stroke-width="1" fill="none" rx="0" ry="0"   stroke-opacity="0.1" transform="translate(1, 1)" r="0"></rect><rect x="0" y="141" width="282" height="141" stroke="#E0E0E0" stroke-width="1" fill="rgb(252,214,214)" rx="0" ry="0" ></rect><rect x="282" y="0" width="161" height="164" stroke="black" stroke-width="5" fill="none" rx="0" ry="0"   stroke-opacity="0.0" transform="translate(1, 1)" r="0"></rect><rect x="282" y="0" width="161" height="164" stroke="black" stroke-width="3" fill="none" rx="0" ry="0"   stroke-opacity="0.0" transform="translate(1, 1)" r="0"></rect><rect x="282" y="0" width="161" height="164" stroke="black" stroke-width="1" fill="none" rx="0" ry="0"   stroke-opacity="0.1" transform="translate(1, 1)" r="0"></rect><rect x="282" y="0" width="161" height="164" stroke="#E0E0E0" stroke-width="1" fill="rgb(251,194,194)" rx="0" ry="0" ></rect><rect x="443" y="0" width="121" height="164" stroke="black" stroke-width="5" fill="none" rx="0" ry="0"   stroke-opacity="0.0" transform="translate(1, 1)" r="0"></rect><rect x="443" y="0" width="121" height="164" stroke="black" stroke-width="3" fill="none" rx="0" ry="0"   stroke-opacity="0.0" transform="translate(1, 1)" r="0"></rect><rect x="443" y="0" width="121" height="164" stroke="black" stroke-width="1" fill="none" rx="0" ry="0"   stroke-opacity="0.1" transform="translate(1, 1)" r="0"></rect><rect x="443" y="0" width="121" height="164" stroke="#E0E0E0" stroke-width="1" fill="rgb(250,173,173)" rx="0" ry="0" ></rect><rect x="282" y="164" width="113" height="118" stroke="black" stroke-width="5" fill="none" rx="0" ry="0"   stroke-opacity="0.0" transform="translate(1, 1)" r="0"></rect><rect x="282" y="164" width="113" height="118" stroke="black" stroke-width="3" fill="none" rx="0" ry="0"   stroke-opacity="0.0" transform="translate(1, 1)" r="0"></rect><rect x="282" y="164" width="113" height="118" stroke="black" stroke-width="1" fill="none" rx="0" ry="0"   stroke-opacity="0.1" transform="translate(1, 1)" r="0"></rect><rect x="282" y="164" width="113" height="118" stroke="#E0E0E0" stroke-width="1" fill="rgb(248,153,153)" rx="0" ry="0" ></rect><rect x="395" y="164" width="113" height="118" stroke="black" stroke-width="5" fill="none" rx="0" ry="0"   stroke-opacity="0.0" transform="translate(1, 1)" r="0"></rect><rect x="395" y="164" width="113" height="118" stroke="black" stroke-width="3" fill="none" rx="0" ry="0"   stroke-opacity="0.0" transform="translate(1, 1)" r="0"></rect><rect x="395" y="164" width="113" height="118" stroke="black" stroke-width="1" fill="none" rx="0" ry="0"   stroke-opacity="0.1" transform="translate(1, 1)" r="0"></rect><rect x="395" y="164" width="113" height="118" stroke="#E0E0E0" stroke-width="1" fill="rgb(247,132,132)" rx="0" ry="0" ></rect><rect x="508" y="164" width="56" height="118" stroke="black" stroke-width="5" fill="none" rx="0" ry="0"   stroke-opacity="0.0" transform="translate(1, 1)" r="0"></rect><rect x="508" y="164" width="56" height="118" stroke="black" stroke-width="3" fill="none" rx="0" ry="0"   stroke-opacity="0.0" transform="translate(1, 1)" r="0"></rect><rect x="508" y="164" width="56" height="118" stroke="black" stroke-width="1" fill="none" rx="0" ry="0"   stroke-opacity="0.1" transform="translate(1, 1)" r="0"></rect><rect x="508" y="164" width="56" height="118" stroke="#E0E0E0" stroke-width="1" fill="rgb(245,112,112)" rx="0" ry="0" ></rect><g  style="" transform="translate(132,59)"><text x="5"  style="font-size: 11px; font-weight: bold; color: rgb(0, 0, 0); fill: #000000; text-shadow: rgb(255, 255, 255) 0px 0px 6px, rgb(255, 255, 255) 0px 0px 3px; " transform="translate(0,16)"><tspan>A</tspan></text></g><g  style="" transform="translate(133,200)"><text x="5"  style="font-size: 11px; font-weight: bold; color: rgb(0, 0, 0); fill: #000000; text-shadow: rgb(255, 255, 255) 0px 0px 6px, rgb(255, 255, 255) 0px 0px 3px; " transform="translate(0,16)"><tspan>B</tspan></text></g><g  style="" transform="translate(354,71)"><text x="5"  style="font-size: 11px; font-weight: bold; color: rgb(0, 0, 0); fill: #000000; text-shadow: rgb(255, 255, 255) 0px 0px 6px, rgb(255, 255, 255) 0px 0px 3px; " transform="translate(0,16)"><tspan>C</tspan></text></g><g  style="" transform="translate(495,71)"><text x="5"  style="font-size: 11px; font-weight: bold; color: rgb(0, 0, 0); fill: #000000; text-shadow: rgb(255, 255, 255) 0px 0px 6px, rgb(255, 255, 255) 0px 0px 3px; " transform="translate(0,16)"><tspan>D</tspan></text></g><g  style="" transform="translate(331,212)"><text x="5"  style="font-size: 11px; font-weight: bold; color: rgb(0, 0, 0); fill: #000000; text-shadow: rgb(255, 255, 255) 0px 0px 6px, rgb(255, 255, 255) 0px 0px 3px; " transform="translate(0,16)"><tspan>E</tspan></text></g><g  style="" transform="translate(444,212)"><text x="5"  style="font-size: 11px; font-weight: bold; color: rgb(0, 0, 0); fill: #000000; text-shadow: rgb(255, 255, 255) 0px 0px 6px, rgb(255, 255, 255) 0px 0px 3px; " transform="translate(0,16)"><tspan>F</tspan></text></g><g  style="" transform="translate(527,212)"><text x="5"  style="font-size: 11px; font-weight: bold; color: rgb(0, 0, 0); fill: #000000; text-shadow: rgb(255, 255, 255) 0px 0px 6px, rgb(255, 255, 255) 0px 0px 3px; " transform="translate(0,16)"><tspan>G</tspan></text></g></g><g class="highcharts-markers" visibility="visible"  transform="translate(10,44) scale(1 1)" clip-path="url(#highcharts-3)"></g></g><text x="292" text-anchor="middle" class="highcharts-title"  style="color:black;font-size:16px;font-weight:bold;fill:black;width:520px;" y="22"><tspan>Highcharts Treemap</tspan></text><g class="highcharts-legend"  transform="translate(185,338)"><g ><g><g class="highcharts-legend-item"  transform="translate(8,3)"><rect x="0" y="5" width="200" height="12"  fill="url(#highcharts-1)"></rect><g class="highcharts-grid" ><path fill="none" d="M -0.5 5 L -0.5 17" stroke="#D8D8D8" stroke-width="1"  opacity="1"></path><path fill="none" d="M 49.5 5 L 49.5 17" stroke="#D8D8D8" stroke-width="1"  opacity="1"></path><path fill="none" d="M 99.5 5 L 99.5 17" stroke="#D8D8D8" stroke-width="1"  opacity="1"></path><path fill="none" d="M 149.5 5 L 149.5 17" stroke="#D8D8D8" stroke-width="1"  opacity="1"></path><path fill="none" d="M 200.5 5 L 200.5 17" stroke="#D8D8D8" stroke-width="1"  opacity="1"></path></g><text x="21" style="color:#333333;font-size:13px;font-weight:bold;cursor:pointer;fill:#333333;" text-anchor="start"  y="16"></text><g class="highcharts-axis" ><path fill="none" d="M -0.5 17 L -0.5 22" stroke="#C0D0E0" stroke-width="1" opacity="1"></path><path fill="none" d="M 49.5 17 L 49.5 22" stroke="#C0D0E0" stroke-width="1" opacity="1"></path><path fill="none" d="M 99.5 17 L 99.5 22" stroke="#C0D0E0" stroke-width="1" opacity="1"></path><path fill="none" d="M 149.5 17 L 149.5 22" stroke="#C0D0E0" stroke-width="1" opacity="1"></path><path fill="none" d="M 200.5 17 L 200.5 22" stroke="#C0D0E0" stroke-width="1" opacity="1"></path></g><g class="highcharts-axis-labels highcharts-coloraxis-labels" ><text x="0" style="color:#6e6e70;cursor:default;font-size:11px;fill:#6e6e70;" text-anchor="start" transform="translate(0,0)" y="36" opacity="1">0</text><text x="50" style="color:#6e6e70;cursor:default;font-size:11px;fill:#6e6e70;" text-anchor="middle" transform="translate(0,0)" y="36" opacity="1">2</text><text x="100" style="color:#6e6e70;cursor:default;font-size:11px;fill:#6e6e70;" text-anchor="middle" transform="translate(0,0)" y="36" opacity="1">4</text><text x="150" style="color:#6e6e70;cursor:default;font-size:11px;fill:#6e6e70;" text-anchor="middle" transform="translate(0,0)" y="36" opacity="1">6</text><text x="200" style="color:#6e6e70;cursor:default;font-size:11px;fill:#6e6e70;" text-anchor="end" transform="translate(0,0)" y="36" opacity="1">8</text></g></g></g></g></g><g class="highcharts-axis-labels highcharts-xaxis-labels" ></g><g class="highcharts-axis-labels highcharts-yaxis-labels" ></g><g class="highcharts-tooltip"  style="cursor:default;padding:0;white-space:nowrap;" transform="translate(0,-9999)"><path fill="none" d="M 3 0 L 13 0 C 16 0 16 0 16 3 L 16 13 C 16 16 16 16 13 16 L 3 16 C 0 16 0 16 0 13 L 0 3 C 0 0 0 0 3 0"  stroke="black" stroke-opacity="0.0" stroke-width="5" transform="translate(1, 1)"></path><path fill="none" d="M 3 0 L 13 0 C 16 0 16 0 16 3 L 16 13 C 16 16 16 16 13 16 L 3 16 C 0 16 0 16 0 13 L 0 3 C 0 0 0 0 3 0"  stroke="black" stroke-opacity="0.0" stroke-width="3" transform="translate(1, 1)"></path><path fill="none" d="M 3 0 L 13 0 C 16 0 16 0 16 3 L 16 13 C 16 16 16 16 13 16 L 3 16 C 0 16 0 16 0 13 L 0 3 C 0 0 0 0 3 0"  stroke="black" stroke-opacity="0.1" stroke-width="1" transform="translate(1, 1)"></path><path fill="rgb(249, 249, 249)" fill-opacity=" .85" d="M 3 0 L 13 0 C 16 0 16 0 16 3 L 16 13 C 16 16 16 16 13 16 L 3 16 C 0 16 0 16 0 13 L 0 3 C 0 0 0 0 3 0"></path><text x="8"  style="font-size:12px;color:#333333;fill:#333333;" transform="translate(0,20)"></text></g></svg>