<svg version="1.1" style="font-family: signika, serif; font-size: 12px; background-image: url(http://www.highcharts.com/samples/graphics/sand.png); background-attachment: initial; background-origin: initial; background-clip: initial; background-color: initial; background-position: initial initial; background-repeat: initial initial; " xmlns="http://www.w3.org/2000/svg" width="584" height="400" viewBox="0 0 584 400" xmlns:xlink="http://www.w3.org/1999/xlink"><style type="text/css"><![CDATA[@import url(http://fonts.googleapis.com/css?family=Signika:700);]]></style><desc>Created with Highcharts 4.1.4</desc><defs><clipPath id="highcharts-1"><rect x="0" y="0" width="564" height="341"></rect></clipPath><clipPath id="highcharts-2"><rect x="-99" y="-44" width="663" height="400"></rect></clipPath><clipPath id="highcharts-3"><rect x="0" y="0" width="564" height="341"></rect></clipPath></defs><g class="highcharts-grid" ></g><g class="highcharts-grid" ></g><g class="highcharts-axis" ></g><g class="highcharts-axis" ></g><g class="highcharts-series-group" ><g class="highcharts-series highcharts-tracker" visibility="visible"  transform="translate(10,44) scale(1 1)" clip-path="url(#highcharts-3)" style=""><rect x="235" y="0" width="329" height="81" stroke="black" stroke-width="5" fill="none" rx="0" ry="0"   stroke-opacity="0.0" transform="translate(1, 1)" r="0"></rect><rect x="235" y="0" width="329" height="81" stroke="black" stroke-width="3" fill="none" rx="0" ry="0"   stroke-opacity="0.0" transform="translate(1, 1)" r="0"></rect><rect x="235" y="0" width="329" height="81" stroke="black" stroke-width="1" fill="none" rx="0" ry="0"   stroke-opacity="0.1" transform="translate(1, 1)" r="0"></rect><rect x="235" y="0" width="329" height="81" stroke="#E0E0E0" stroke-width="1" fill="#EC2500" rx="0" ry="0" ></rect><rect x="235" y="146" width="329" height="49" stroke="black" stroke-width="5" fill="none" rx="0" ry="0"   stroke-opacity="0.0" transform="translate(1, 1)" r="0"></rect><rect x="235" y="146" width="329" height="49" stroke="black" stroke-width="3" fill="none" rx="0" ry="0"   stroke-opacity="0.0" transform="translate(1, 1)" r="0"></rect><rect x="235" y="146" width="329" height="49" stroke="black" stroke-width="1" fill="none" rx="0" ry="0"   stroke-opacity="0.1" transform="translate(1, 1)" r="0"></rect><rect x="235" y="146" width="329" height="49" stroke="#E0E0E0" stroke-width="1" fill="#EC2500" rx="0" ry="0" ></rect><rect x="235" y="81" width="329" height="65" stroke="black" stroke-width="5" fill="none" rx="0" ry="0"   stroke-opacity="0.0" transform="translate(1, 1)" r="0"></rect><rect x="235" y="81" width="329" height="65" stroke="black" stroke-width="3" fill="none" rx="0" ry="0"   stroke-opacity="0.0" transform="translate(1, 1)" r="0"></rect><rect x="235" y="81" width="329" height="65" stroke="black" stroke-width="1" fill="none" rx="0" ry="0"   stroke-opacity="0.1" transform="translate(1, 1)" r="0"></rect><rect x="235" y="81" width="329" height="65" stroke="#E0E0E0" stroke-width="1" fill="#EC2500" rx="0" ry="0" ></rect><rect x="0" y="227" width="235" height="91" stroke="black" stroke-width="5" fill="none" rx="0" ry="0"   stroke-opacity="0.0" transform="translate(1, 1)" r="0"></rect><rect x="0" y="227" width="235" height="91" stroke="black" stroke-width="3" fill="none" rx="0" ry="0"   stroke-opacity="0.0" transform="translate(1, 1)" r="0"></rect><rect x="0" y="227" width="235" height="91" stroke="black" stroke-width="1" fill="none" rx="0" ry="0"   stroke-opacity="0.1" transform="translate(1, 1)" r="0"></rect><rect x="0" y="227" width="235" height="91" stroke="#E0E0E0" stroke-width="1" fill="#ECE100" rx="0" ry="0" ></rect><rect x="0" y="0" width="235" height="227" stroke="black" stroke-width="5" fill="none" rx="0" ry="0"   stroke-opacity="0.0" transform="translate(1, 1)" r="0"></rect><rect x="0" y="0" width="235" height="227" stroke="black" stroke-width="3" fill="none" rx="0" ry="0"   stroke-opacity="0.0" transform="translate(1, 1)" r="0"></rect><rect x="0" y="0" width="235" height="227" stroke="black" stroke-width="1" fill="none" rx="0" ry="0"   stroke-opacity="0.1" transform="translate(1, 1)" r="0"></rect><rect x="0" y="0" width="235" height="227" stroke="#E0E0E0" stroke-width="1" fill="#ECE100" rx="0" ry="0" ></rect><rect x="0" y="318" width="235" height="23" stroke="black" stroke-width="5" fill="none" rx="0" ry="0"   stroke-opacity="0.0" transform="translate(1, 1)" r="0"></rect><rect x="0" y="318" width="235" height="23" stroke="black" stroke-width="3" fill="none" rx="0" ry="0"   stroke-opacity="0.0" transform="translate(1, 1)" r="0"></rect><rect x="0" y="318" width="235" height="23" stroke="black" stroke-width="1" fill="none" rx="0" ry="0"   stroke-opacity="0.1" transform="translate(1, 1)" r="0"></rect><rect x="0" y="318" width="235" height="23" stroke="#E0E0E0" stroke-width="1" fill="#ECE100" rx="0" ry="0" ></rect><rect x="235" y="320" width="256" height="21" stroke="black" stroke-width="5" fill="none" rx="0" ry="0"   stroke-opacity="0.0" transform="translate(1, 1)" r="0"></rect><rect x="235" y="320" width="256" height="21" stroke="black" stroke-width="3" fill="none" rx="0" ry="0"   stroke-opacity="0.0" transform="translate(1, 1)" r="0"></rect><rect x="235" y="320" width="256" height="21" stroke="black" stroke-width="1" fill="none" rx="0" ry="0"   stroke-opacity="0.1" transform="translate(1, 1)" r="0"></rect><rect x="235" y="320" width="256" height="21" stroke="#E0E0E0" stroke-width="1" fill="#EC9800" rx="0" ry="0" ></rect><rect x="235" y="195" width="256" height="62" stroke="black" stroke-width="5" fill="none" rx="0" ry="0"   stroke-opacity="0.0" transform="translate(1, 1)" r="0"></rect><rect x="235" y="195" width="256" height="62" stroke="black" stroke-width="3" fill="none" rx="0" ry="0"   stroke-opacity="0.0" transform="translate(1, 1)" r="0"></rect><rect x="235" y="195" width="256" height="62" stroke="black" stroke-width="1" fill="none" rx="0" ry="0"   stroke-opacity="0.1" transform="translate(1, 1)" r="0"></rect><rect x="235" y="195" width="256" height="62" stroke="#E0E0E0" stroke-width="1" fill="#EC9800" rx="0" ry="0" ></rect><rect x="235" y="257" width="256" height="63" stroke="black" stroke-width="5" fill="none" rx="0" ry="0"   stroke-opacity="0.0" transform="translate(1, 1)" r="0"></rect><rect x="235" y="257" width="256" height="63" stroke="black" stroke-width="3" fill="none" rx="0" ry="0"   stroke-opacity="0.0" transform="translate(1, 1)" r="0"></rect><rect x="235" y="257" width="256" height="63" stroke="black" stroke-width="1" fill="none" rx="0" ry="0"   stroke-opacity="0.1" transform="translate(1, 1)" r="0"></rect><rect x="235" y="257" width="256" height="63" stroke="#E0E0E0" stroke-width="1" fill="#EC9800" rx="0" ry="0" ></rect><g  style="" transform="translate(380,29)"><text x="5"  style="font-size: 11px; font-weight: bold; color: rgb(255, 255, 255); fill: #ffffff; text-shadow: rgb(0, 0, 0) 0px 0px 6px, rgb(0, 0, 0) 0px 0px 3px; " transform="translate(0,16)"><tspan>Anne</tspan></text></g><g  style="" transform="translate(383,159)"><text x="5"  style="font-size: 11px; font-weight: bold; color: rgb(255, 255, 255); fill: #ffffff; text-shadow: rgb(0, 0, 0) 0px 0px 6px, rgb(0, 0, 0) 0px 0px 3px; " transform="translate(0,16)"><tspan>Rick</tspan></text></g><g  style="" transform="translate(379,102)"><text x="5"  style="font-size: 11px; font-weight: bold; color: rgb(255, 255, 255); fill: #ffffff; text-shadow: rgb(0, 0, 0) 0px 0px 6px, rgb(0, 0, 0) 0px 0px 3px; " transform="translate(0,16)"><tspan>Peter</tspan></text></g><g  style="" transform="translate(98,261)"><text x="5"  style="font-size: 11px; font-weight: bold; color: rgb(0, 0, 0); fill: #000000; text-shadow: rgb(255, 255, 255) 0px 0px 6px, rgb(255, 255, 255) 0px 0px 3px; " transform="translate(0,16)"><tspan>Anne</tspan></text></g><g  style="" transform="translate(101,102)"><text x="5"  style="font-size: 11px; font-weight: bold; color: rgb(0, 0, 0); fill: #000000; text-shadow: rgb(255, 255, 255) 0px 0px 6px, rgb(255, 255, 255) 0px 0px 3px; " transform="translate(0,16)"><tspan>Rick</tspan></text></g><g  style="" transform="translate(97,318)"><text x="5"  style="font-size: 11px; font-weight: bold; color: rgb(0, 0, 0); fill: #000000; text-shadow: rgb(255, 255, 255) 0px 0px 6px, rgb(255, 255, 255) 0px 0px 3px; " transform="translate(0,16)"><tspan>Peter</tspan></text></g><g  style="" transform="translate(344,319)"><text x="5"  style="font-size: 11px; font-weight: bold; color: rgb(0, 0, 0); fill: #000000; text-shadow: rgb(255, 255, 255) 0px 0px 6px, rgb(255, 255, 255) 0px 0px 3px; " transform="translate(0,16)"><tspan>Anne</tspan></text></g><g  style="" transform="translate(346,215)"><text x="5"  style="font-size: 11px; font-weight: bold; color: rgb(0, 0, 0); fill: #000000; text-shadow: rgb(255, 255, 255) 0px 0px 6px, rgb(255, 255, 255) 0px 0px 3px; " transform="translate(0,16)"><tspan>Rick</tspan></text></g><g  style="" transform="translate(343,277)"><text x="5"  style="font-size: 11px; font-weight: bold; color: rgb(0, 0, 0); fill: #000000; text-shadow: rgb(255, 255, 255) 0px 0px 6px, rgb(255, 255, 255) 0px 0px 3px; " transform="translate(0,16)"><tspan>Peter</tspan></text></g><rect x="235" y="0" width="329" height="195" stroke="black" stroke-width="5" fill="none" rx="0" ry="0"   stroke-opacity="0.0" transform="translate(1, 1)" r="0"></rect><rect x="235" y="0" width="329" height="195" stroke="black" stroke-width="3" fill="none" rx="0" ry="0"   stroke-opacity="0.0" transform="translate(1, 1)" r="0"></rect><rect x="235" y="0" width="329" height="195" stroke="black" stroke-width="1" fill="none" rx="0" ry="0"   stroke-opacity="0.1" transform="translate(1, 1)" r="0"></rect><rect x="235" y="0" width="329" height="195" stroke="#E0E0E0" stroke-width="1" fill="none" rx="0" ry="0" ></rect><rect x="0" y="0" width="235" height="341" stroke="black" stroke-width="5" fill="none" rx="0" ry="0"   stroke-opacity="0.0" transform="translate(1, 1)" r="0"></rect><rect x="0" y="0" width="235" height="341" stroke="black" stroke-width="3" fill="none" rx="0" ry="0"   stroke-opacity="0.0" transform="translate(1, 1)" r="0"></rect><rect x="0" y="0" width="235" height="341" stroke="black" stroke-width="1" fill="none" rx="0" ry="0"   stroke-opacity="0.1" transform="translate(1, 1)" r="0"></rect><rect x="0" y="0" width="235" height="341" stroke="#E0E0E0" stroke-width="1" fill="none" rx="0" ry="0" ></rect><rect x="235" y="195" width="256" height="146" stroke="black" stroke-width="5" fill="none" rx="0" ry="0"   stroke-opacity="0.0" transform="translate(1, 1)" r="0"></rect><rect x="235" y="195" width="256" height="146" stroke="black" stroke-width="3" fill="none" rx="0" ry="0"   stroke-opacity="0.0" transform="translate(1, 1)" r="0"></rect><rect x="235" y="195" width="256" height="146" stroke="black" stroke-width="1" fill="none" rx="0" ry="0"   stroke-opacity="0.1" transform="translate(1, 1)" r="0"></rect><rect x="235" y="195" width="256" height="146" stroke="#E0E0E0" stroke-width="1" fill="none" rx="0" ry="0" ></rect><rect x="491" y="195" width="73" height="146" stroke="black" stroke-width="5" fill="none" rx="0" ry="0"   stroke-opacity="0.0" transform="translate(1, 1)" r="0"></rect><rect x="491" y="195" width="73" height="146" stroke="black" stroke-width="3" fill="none" rx="0" ry="0"   stroke-opacity="0.0" transform="translate(1, 1)" r="0"></rect><rect x="491" y="195" width="73" height="146" stroke="black" stroke-width="1" fill="none" rx="0" ry="0"   stroke-opacity="0.1" transform="translate(1, 1)" r="0"></rect><rect x="491" y="195" width="73" height="146" stroke="#E0E0E0" stroke-width="1" fill="#9EDE00" rx="0" ry="0" ></rect><g  style="" transform="translate(235,0)"><text x="5"  style="font-size: 15px; font-weight: bold; color: rgb(255, 255, 255); fill: #ffffff; text-shadow: rgb(0, 0, 0) 0px 0px 6px, rgb(0, 0, 0) 0px 0px 3px; " transform="translate(0,19)"><tspan>Apples</tspan></text></g><g  style="" transform="translate(0,0)"><text x="5"  style="font-size: 15px; font-weight: bold; color: rgb(0, 0, 0); fill: #000000; text-shadow: rgb(255, 255, 255) 0px 0px 6px, rgb(255, 255, 255) 0px 0px 3px; " transform="translate(0,19)"><tspan>Bananas</tspan></text></g><g  style="" transform="translate(235,195)"><text x="5"  style="font-size: 15px; font-weight: bold; color: rgb(0, 0, 0); fill: #000000; text-shadow: rgb(255, 255, 255) 0px 0px 6px, rgb(255, 255, 255) 0px 0px 3px; " transform="translate(0,19)"><tspan>Oranges</tspan></text></g><g  style="" transform="translate(491,195)"><text x="5"  style="font-size: 15px; font-weight: bold; color: rgb(255, 255, 255); fill: #ffffff; text-shadow: rgb(0, 0, 0) 0px 0px 6px, rgb(0, 0, 0) 0px 0px 3px; " transform="translate(0,19)"><tspan>Susanne</tspan></text></g></g><g class="highcharts-markers" visibility="visible"  transform="translate(10,44) scale(1 1)" clip-path="url(#highcharts-2)"></g></g><text x="292" text-anchor="middle" class="highcharts-title"  style="color:black;font-size:16px;font-weight:bold;fill:black;width:520px;" y="22"><tspan>Fruit consumption</tspan></text><g class="highcharts-legend" ><g ><g></g></g></g><g class="highcharts-axis-labels highcharts-xaxis-labels" ></g><g class="highcharts-axis-labels highcharts-yaxis-labels" ></g><g class="highcharts-tooltip"  style="cursor:default;padding:0;white-space:nowrap;" transform="translate(0,-9999)"><path fill="none" d="M 3 0 L 13 0 C 16 0 16 0 16 3 L 16 13 C 16 16 16 16 13 16 L 3 16 C 0 16 0 16 0 13 L 0 3 C 0 0 0 0 3 0"  stroke="black" stroke-opacity="0.0" stroke-width="5" transform="translate(1, 1)"></path><path fill="none" d="M 3 0 L 13 0 C 16 0 16 0 16 3 L 16 13 C 16 16 16 16 13 16 L 3 16 C 0 16 0 16 0 13 L 0 3 C 0 0 0 0 3 0"  stroke="black" stroke-opacity="0.0" stroke-width="3" transform="translate(1, 1)"></path><path fill="none" d="M 3 0 L 13 0 C 16 0 16 0 16 3 L 16 13 C 16 16 16 16 13 16 L 3 16 C 0 16 0 16 0 13 L 0 3 C 0 0 0 0 3 0"  stroke="black" stroke-opacity="0.1" stroke-width="1" transform="translate(1, 1)"></path><path fill="rgb(249, 249, 249)" fill-opacity=" .85" d="M 3 0 L 13 0 C 16 0 16 0 16 3 L 16 13 C 16 16 16 16 13 16 L 3 16 C 0 16 0 16 0 13 L 0 3 C 0 0 0 0 3 0"></path><text x="8"  style="font-size:12px;color:#333333;fill:#333333;" transform="translate(0,20)"></text></g></svg>