<svg version="1.1" style="font-family: signika, serif; font-size: 12px; background-image: url(http://www.highcharts.com/samples/graphics/sand.png); background-attachment: initial; background-origin: initial; background-clip: initial; background-color: initial; background-position: initial initial; background-repeat: initial initial; " xmlns="http://www.w3.org/2000/svg" width="584" height="400" viewBox="0 0 584 400" xmlns:xlink="http://www.w3.org/1999/xlink"><style type="text/css"><![CDATA[@import url(http://fonts.googleapis.com/css?family=Signika:700);]]></style><desc>Created with Highcharts 4.1.4</desc><defs><clipPath id="highcharts-1"><rect x="0" y="0" width="493" height="306"></rect></clipPath></defs><g class="highcharts-grid" ></g><g class="highcharts-grid" ><path fill="none" d="M 81 350.5 L 574 350.5" stroke="#D8D8D8" stroke-width="1"  opacity="1"></path><path fill="none" d="M 81 289.5 L 574 289.5" stroke="#D8D8D8" stroke-width="1"  opacity="1"></path><path fill="none" d="M 81 228.5 L 574 228.5" stroke="#D8D8D8" stroke-width="1"  opacity="1"></path><path fill="none" d="M 81 166.5 L 574 166.5" stroke="#D8D8D8" stroke-width="1"  opacity="1"></path><path fill="none" d="M 81 105.5 L 574 105.5" stroke="#D8D8D8" stroke-width="1"  opacity="1"></path><path fill="none" d="M 81 43.5 L 574 43.5" stroke="#D8D8D8" stroke-width="1"  opacity="1"></path></g><g class="highcharts-axis" ><path fill="none" d="M 150.5 350 L 150.5 360" stroke="#C0D0E0" stroke-width="1" opacity="1"></path><path fill="none" d="M 221.5 350 L 221.5 360" stroke="#C0D0E0" stroke-width="1" opacity="1"></path><path fill="none" d="M 291.5 350 L 291.5 360" stroke="#C0D0E0" stroke-width="1" opacity="1"></path><path fill="none" d="M 362.5 350 L 362.5 360" stroke="#C0D0E0" stroke-width="1" opacity="1"></path><path fill="none" d="M 432.5 350 L 432.5 360" stroke="#C0D0E0" stroke-width="1" opacity="1"></path><path fill="none" d="M 503.5 350 L 503.5 360" stroke="#C0D0E0" stroke-width="1" opacity="1"></path><path fill="none" d="M 574.5 350 L 574.5 360" stroke="#C0D0E0" stroke-width="1" opacity="1"></path><path fill="none" d="M 80.5 350 L 80.5 360" stroke="#C0D0E0" stroke-width="1" opacity="1"></path><path fill="none" d="M 81 350.5 L 574 350.5" stroke="#C0D0E0" stroke-width="1"  visibility="visible"></path></g><g class="highcharts-axis" ><text x="24"  text-anchor="middle" transform="translate(0,0) rotate(270 24 197)" class=" highcharts-yaxis-title" style="color:#707070;fill:#707070;" visibility="visible" y="197">USD</text></g><g class="highcharts-series-group" ><g class="highcharts-series highcharts-tracker" visibility="visible"  transform="translate(81,44) scale(1 1)" style="" clip-path="url(#highcharts-1)"><rect x="13.5" y="268.5" width="42" height="37" stroke="black" stroke-width="5" fill="none" rx="0" ry="0"  stroke-opacity="0.0" transform="translate(1, 1)"></rect><rect x="13.5" y="268.5" width="42" height="37" stroke="black" stroke-width="3" fill="none" rx="0" ry="0"  stroke-opacity="0.0" transform="translate(1, 1)"></rect><rect x="13.5" y="268.5" width="42" height="37" stroke="black" stroke-width="1" fill="none" rx="0" ry="0"  stroke-opacity="0.1" transform="translate(1, 1)"></rect><rect x="13.5" y="268.5" width="42" height="37" stroke="#333" stroke-width="1" fill="#8d4654" rx="0" ry="0"></rect><rect x="84.5" y="94.5" width="42" height="174" stroke="black" stroke-width="5" fill="none" rx="0" ry="0"  stroke-opacity="0.0" transform="translate(1, 1)"></rect><rect x="84.5" y="94.5" width="42" height="174" stroke="black" stroke-width="3" fill="none" rx="0" ry="0"  stroke-opacity="0.0" transform="translate(1, 1)"></rect><rect x="84.5" y="94.5" width="42" height="174" stroke="black" stroke-width="1" fill="none" rx="0" ry="0"  stroke-opacity="0.1" transform="translate(1, 1)"></rect><rect x="84.5" y="94.5" width="42" height="174" stroke="#333" stroke-width="1" fill="#8d4654" rx="0" ry="0"></rect><rect x="154.5" y="23.5" width="42" height="71" stroke="black" stroke-width="5" fill="none" rx="0" ry="0"  stroke-opacity="0.0" transform="translate(1, 1)"></rect><rect x="154.5" y="23.5" width="42" height="71" stroke="black" stroke-width="3" fill="none" rx="0" ry="0"  stroke-opacity="0.0" transform="translate(1, 1)"></rect><rect x="154.5" y="23.5" width="42" height="71" stroke="black" stroke-width="1" fill="none" rx="0" ry="0"  stroke-opacity="0.1" transform="translate(1, 1)"></rect><rect x="154.5" y="23.5" width="42" height="71" stroke="#333" stroke-width="1" fill="#8d4654" rx="0" ry="0"></rect><rect x="224.5" y="23.5" width="43" height="282" stroke="black" stroke-width="5" fill="none" rx="0" ry="0"  stroke-opacity="0.0" transform="translate(1, 1)"></rect><rect x="224.5" y="23.5" width="43" height="282" stroke="black" stroke-width="3" fill="none" rx="0" ry="0"  stroke-opacity="0.0" transform="translate(1, 1)"></rect><rect x="224.5" y="23.5" width="43" height="282" stroke="black" stroke-width="1" fill="none" rx="0" ry="0"  stroke-opacity="0.1" transform="translate(1, 1)"></rect><rect x="224.5" y="23.5" width="43" height="282" stroke="#333" stroke-width="1" fill="#8085e9" rx="0" ry="0"></rect><rect x="295.5" y="23.5" width="42" height="105" stroke="black" stroke-width="5" fill="none" rx="0" ry="0"  stroke-opacity="0.0" transform="translate(1, 1)"></rect><rect x="295.5" y="23.5" width="42" height="105" stroke="black" stroke-width="3" fill="none" rx="0" ry="0"  stroke-opacity="0.0" transform="translate(1, 1)"></rect><rect x="295.5" y="23.5" width="42" height="105" stroke="black" stroke-width="1" fill="none" rx="0" ry="0"  stroke-opacity="0.1" transform="translate(1, 1)"></rect><rect x="295.5" y="23.5" width="42" height="105" stroke="#333" stroke-width="1" fill="#7798BF" rx="0" ry="0"></rect><rect x="365.5" y="128.5" width="42" height="71" stroke="black" stroke-width="5" fill="none" rx="0" ry="0"  stroke-opacity="0.0" transform="translate(1, 1)"></rect><rect x="365.5" y="128.5" width="42" height="71" stroke="black" stroke-width="3" fill="none" rx="0" ry="0"  stroke-opacity="0.0" transform="translate(1, 1)"></rect><rect x="365.5" y="128.5" width="42" height="71" stroke="black" stroke-width="1" fill="none" rx="0" ry="0"  stroke-opacity="0.1" transform="translate(1, 1)"></rect><rect x="365.5" y="128.5" width="42" height="71" stroke="#333" stroke-width="1" fill="#7798BF" rx="0" ry="0"></rect><rect x="436.5" y="199.5" width="42" height="106" stroke="black" stroke-width="5" fill="none" rx="0" ry="0"  stroke-opacity="0.0" transform="translate(1, 1)"></rect><rect x="436.5" y="199.5" width="42" height="106" stroke="black" stroke-width="3" fill="none" rx="0" ry="0"  stroke-opacity="0.0" transform="translate(1, 1)"></rect><rect x="436.5" y="199.5" width="42" height="106" stroke="black" stroke-width="1" fill="none" rx="0" ry="0"  stroke-opacity="0.1" transform="translate(1, 1)"></rect><rect x="436.5" y="199.5" width="42" height="106" stroke="#333" stroke-width="1" fill="#8085e9" rx="0" ry="0"></rect><path fill="none" d="M 55.5 268.5 L 84.5 268.5 M 126.5 94.5 L 154.5 94.5 M 196.5 23.5 L 224.5 23.5 M 267.5 23.5 L 295.5 23.5 M 337.5 128.5 L 365.5 128.5 M 407.5 199.5 L 436.5 199.5" stroke="black" stroke-width="5"  stroke-dasharray="1,3"  stroke-opacity="0.0" transform="translate(1, 1)"></path><path fill="none" d="M 55.5 268.5 L 84.5 268.5 M 126.5 94.5 L 154.5 94.5 M 196.5 23.5 L 224.5 23.5 M 267.5 23.5 L 295.5 23.5 M 337.5 128.5 L 365.5 128.5 M 407.5 199.5 L 436.5 199.5" stroke="black" stroke-width="3"  stroke-dasharray="1,3"  stroke-opacity="0.0" transform="translate(1, 1)"></path><path fill="none" d="M 55.5 268.5 L 84.5 268.5 M 126.5 94.5 L 154.5 94.5 M 196.5 23.5 L 224.5 23.5 M 267.5 23.5 L 295.5 23.5 M 337.5 128.5 L 365.5 128.5 M 407.5 199.5 L 436.5 199.5" stroke="black" stroke-width="1"  stroke-dasharray="1,3"  stroke-opacity="0.1" transform="translate(1, 1)"></path><path fill="none" d="M 55.5 268.5 L 84.5 268.5 M 126.5 94.5 L 154.5 94.5 M 196.5 23.5 L 224.5 23.5 M 267.5 23.5 L 295.5 23.5 M 337.5 128.5 L 365.5 128.5 M 407.5 199.5 L 436.5 199.5" stroke="#333" stroke-width="1"  stroke-dasharray="1,3"></path></g><g class="highcharts-markers" visibility="visible"  transform="translate(81,44) scale(1 1)"></g></g><text x="292" text-anchor="middle" class="highcharts-title"  style="color:black;font-size:16px;font-weight:bold;fill:black;width:520px;" y="22"><tspan>Highcharts Waterfall</tspan></text><g class="highcharts-data-labels highcharts-tracker" visibility="visible"  transform="translate(81,44) scale(1 1)" style=""><g  style="" transform="translate(16,276)"><text x="5"  style="font-size:11px;font-weight:bold;color:#ffffff;text-shadow:0px 0px 3px black;fill:#ffffff;" transform="translate(0,16)"><tspan>120k</tspan></text></g><g  style="" transform="translate(87,170)"><text x="5"  style="font-size:11px;font-weight:bold;color:#ffffff;text-shadow:0px 0px 3px black;fill:#ffffff;" transform="translate(0,16)"><tspan>569k</tspan></text></g><g  style="" transform="translate(157,48)"><text x="5"  style="font-size:11px;font-weight:bold;color:#ffffff;text-shadow:0px 0px 3px black;fill:#ffffff;" transform="translate(0,16)"><tspan>231k</tspan></text></g><g  style="" transform="translate(227,153)"><text x="5"  style="font-size:11px;font-weight:bold;color:#ffffff;text-shadow:0px 0px 3px black;fill:#ffffff;" transform="translate(0,16)"><tspan>920k</tspan></text></g><g  style="" transform="translate(295,65)"><text x="5"  style="font-size:11px;font-weight:bold;color:#ffffff;text-shadow:0px 0px 3px black;fill:#ffffff;" transform="translate(0,16)"><tspan>-342k</tspan></text></g><g  style="" transform="translate(365,153)"><text x="5"  style="font-size:11px;font-weight:bold;color:#ffffff;text-shadow:0px 0px 3px black;fill:#ffffff;" transform="translate(0,16)"><tspan>-233k</tspan></text></g><g  style="" transform="translate(439,241)"><text x="5"  style="font-size:11px;font-weight:bold;color:#ffffff;text-shadow:0px 0px 3px black;fill:#ffffff;" transform="translate(0,16)"><tspan>345k</tspan></text></g></g><g class="highcharts-axis-labels highcharts-xaxis-labels" ><text x="116.2" style="color:#6e6e70;cursor:default;font-size:11px;fill:#6e6e70;width:71px;text-overflow:clip;" text-anchor="middle" transform="translate(0,0)" y="369" opacity="1">Start</text><text x="186.6" style="color:#6e6e70;cursor:default;font-size:11px;fill:#6e6e70;width:71px;text-overflow:clip;" text-anchor="middle" transform="translate(0,0)" y="369" opacity="1"><tspan>Product</tspan><tspan dy="14" x="186.6">Revenue</tspan><title>Product Revenue</title></text><text x="257.0" style="color:#6e6e70;cursor:default;font-size:11px;fill:#6e6e70;width:71px;text-overflow:clip;" text-anchor="middle" transform="translate(0,0)" y="369" opacity="1"><tspan>Service</tspan><tspan dy="14" x="257.0">Revenue</tspan><title>Service Revenue</title></text><text x="327.5" style="color:#6e6e70;cursor:default;font-size:11px;fill:#6e6e70;width:71px;text-overflow:clip;" text-anchor="middle" transform="translate(0,0)" y="369" opacity="1"><tspan>Positive</tspan><tspan dy="14" x="327.5">Balance</tspan><title>Positive Balance</title></text><text x="397.9" style="color:#6e6e70;cursor:default;font-size:11px;fill:#6e6e70;width:71px;text-overflow:clip;" text-anchor="middle" transform="translate(0,0)" y="369" opacity="1"><tspan>Fixed Costs</tspan></text><text x="468.3" style="color:#6e6e70;cursor:default;font-size:11px;fill:#6e6e70;width:71px;text-overflow:clip;" text-anchor="middle" transform="translate(0,0)" y="369" opacity="1"><tspan>Variable Costs</tspan></text><text x="538.7" style="color:#6e6e70;cursor:default;font-size:11px;fill:#6e6e70;width:71px;text-overflow:clip;" text-anchor="middle" transform="translate(0,0)" y="369" opacity="1">Balance</text></g><g class="highcharts-axis-labels highcharts-yaxis-labels" ><text x="66" style="color:#6e6e70;cursor:default;font-size:11px;fill:#6e6e70;width:183px;text-overflow:clip;" text-anchor="end" transform="translate(0,0)" y="355" opacity="1">0k</text><text x="66" style="color:#6e6e70;cursor:default;font-size:11px;fill:#6e6e70;width:183px;text-overflow:clip;" text-anchor="end" transform="translate(0,0)" y="293" opacity="1">200k</text><text x="66" style="color:#6e6e70;cursor:default;font-size:11px;fill:#6e6e70;width:183px;text-overflow:clip;" text-anchor="end" transform="translate(0,0)" y="232" opacity="1">400k</text><text x="66" style="color:#6e6e70;cursor:default;font-size:11px;fill:#6e6e70;width:183px;text-overflow:clip;" text-anchor="end" transform="translate(0,0)" y="171" opacity="1">600k</text><text x="66" style="color:#6e6e70;cursor:default;font-size:11px;fill:#6e6e70;width:183px;text-overflow:clip;" text-anchor="end" transform="translate(0,0)" y="110" opacity="1">800k</text><text x="66" style="color:#6e6e70;cursor:default;font-size:11px;fill:#6e6e70;width:183px;text-overflow:clip;" text-anchor="end" transform="translate(0,0)" y="49" opacity="1"><tspan>1 000k</tspan></text></g><g class="highcharts-tooltip"  style="cursor:default;padding:0;white-space:nowrap;" transform="translate(0,-9999)"><path fill="none" d="M 3 0 L 13 0 C 16 0 16 0 16 3 L 16 13 C 16 16 16 16 13 16 L 3 16 C 0 16 0 16 0 13 L 0 3 C 0 0 0 0 3 0"  stroke="black" stroke-opacity="0.0" stroke-width="5" transform="translate(1, 1)"></path><path fill="none" d="M 3 0 L 13 0 C 16 0 16 0 16 3 L 16 13 C 16 16 16 16 13 16 L 3 16 C 0 16 0 16 0 13 L 0 3 C 0 0 0 0 3 0"  stroke="black" stroke-opacity="0.0" stroke-width="3" transform="translate(1, 1)"></path><path fill="none" d="M 3 0 L 13 0 C 16 0 16 0 16 3 L 16 13 C 16 16 16 16 13 16 L 3 16 C 0 16 0 16 0 13 L 0 3 C 0 0 0 0 3 0"  stroke="black" stroke-opacity="0.1" stroke-width="1" transform="translate(1, 1)"></path><path fill="rgb(249, 249, 249)" fill-opacity=" .85" d="M 3 0 L 13 0 C 16 0 16 0 16 3 L 16 13 C 16 16 16 16 13 16 L 3 16 C 0 16 0 16 0 13 L 0 3 C 0 0 0 0 3 0"></path><text x="8"  style="font-size:12px;color:#333333;fill:#333333;" transform="translate(0,20)"></text></g></svg>