<svg version="1.1" style="font-family:&quot;lucida grande&quot;, &quot;lucida sans unicode&quot;, arial, helvetica, sans-serif;font-size:12px;" xmlns="http://www.w3.org/2000/svg" width="584" height="400" viewBox="0 0 584 400"><desc>Created with Highcharts 4.1.4</desc><defs><clipPath id="highcharts-1"><rect x="0" y="0" width="584" height="400"></rect></clipPath></defs><rect x="0" y="0" width="584" height="400" strokeWidth="0" fill="#FFFFFF" class=" highcharts-background" stroke="transparent"></rect><g class="highcharts-series-group" ><g class="highcharts-series highcharts-tracker" visibility="visible"  transform="translate(10,47) scale(1 1)" style="cursor:pointer;"><path fill="rgb(216,67,103)" fill-opacity="1" d="M 282 169 C 282 169 282 169 282 169 L 282 187.5 C 282 187.5 282 187.5 282 187.5 Z"  transform="translate(0,0)" visibility="visible"></path><path fill="rgb(216,67,103)" fill-opacity="1" d="M 274.9 56.6 C 277.4 56.6 279.4 56.5 281.9 56.5 L 281.9 75.1 C 279.4 75.1 277.4 75.1 274.9 75.2 Z"  transform="translate(0,0)" visibility="visible"></path><path fill="rgb(216,67,103)" fill-opacity="1" d="M 274.9 56.6 L 274.9 75.2 L 282 187.5 L 282 169 Z"  transform="translate(0,0)" visibility="visible"></path><path fill="rgb(216,67,103)" fill-opacity="1" d="M 281.9 56.5 L 281.9 75.1 L 282 187.5 L 282 169 Z"  transform="translate(0,0)" visibility="visible"></path><path fill="rgb(103,108,208)" fill-opacity="1" d="M 215.2 66.9 L 215.2 85.5 L 282 187.5 L 282 169 Z"  transform="translate(0,0)" visibility="visible"></path><path fill="rgb(99,156,211)" fill-opacity="1" d="M 331.0 275.9 L 331.0 294.5 L 282 187.5 L 282 169 Z"  transform="translate(0,0)" visibility="visible"></path><path fill="rgb(103,108,208)" fill-opacity="1" d="M 282 169 C 282 169 282 169 282 169 L 282 187.5 C 282 187.5 282 187.5 282 187.5 Z"  transform="translate(0,0)" visibility="visible"></path><path fill="rgb(103,108,208)" fill-opacity="1" d="M 215.2 66.9 C 234.9 60.5 253.2 57.3 274.9 56.6 L 274.9 75.2 C 253.2 75.9 234.9 79.0 215.2 85.5 Z"  transform="translate(0,0)" visibility="visible"></path><path fill="rgb(103,108,208)" fill-opacity="1" d="M 274.9 56.6 L 274.9 75.2 L 282 187.5 L 282 169 Z"  transform="translate(0,0)" visibility="visible"></path><path fill="rgb(222,138,67)" fill-opacity="1" d="M 151.0 105.2 L 151.0 123.7 L 282 187.5 L 282 169 Z"  transform="translate(0,0)" visibility="visible"></path><path fill="rgb(222,138,67)" fill-opacity="1" d="M 282 169 C 282 169 282 169 282 169 L 282 187.5 C 282 187.5 282 187.5 282 187.5 Z"  transform="translate(0,0)" visibility="visible"></path><path fill="rgb(222,138,67)" fill-opacity="1" d="M 151.0 105.2 C 168.0 87.8 188.1 75.8 215.2 66.9 L 215.2 85.5 C 188.1 94.3 168.0 106.3 151.0 123.7 Z"  transform="translate(0,0)" visibility="visible"></path><path fill="rgb(222,138,67)" fill-opacity="1" d="M 215.2 66.9 L 215.2 85.5 L 282 187.5 L 282 169 Z"  transform="translate(0,0)" visibility="visible"></path><path fill="rgb(119,212,100)" fill-opacity="1" d="M 126.1 191.4 L 126.1 209.9 L 282 187.5 L 282 169 Z"  transform="translate(-7,-1)" visibility="visible"></path><path fill="rgb(42,42,47)" fill-opacity="1" d="M 331.0 275.9 L 331.0 294.5 L 282 187.5 L 282 169 Z"  transform="translate(0,0)" visibility="visible"></path><path fill="rgb(119,212,100)" fill-opacity="1" d="M 126.1 191.4 C 123.9 183.6 123 176.9 123 169 L 123 187.5 C 123 195.4 123.9 202.1 126.1 209.9 Z"  transform="translate(-7,-1)" visibility="visible"></path><path fill="rgb(119,212,100)" fill-opacity="1" d="M 282 169 C 282 169 282 169 282 169 L 282 187.5 C 282 187.5 282 187.5 282 187.5 Z"  transform="translate(-7,-1)" visibility="visible"></path><path fill="rgb(119,212,100)" fill-opacity="1" d="M 151.0 105.2 L 151.0 123.7 L 282 187.5 L 282 169 Z"  transform="translate(-7,-1)" visibility="visible"></path><path fill="rgb(99,156,211)" fill-opacity="1" d="M 281.9 56.5 L 281.9 75.1 L 282 187.5 L 282 169 Z"  transform="translate(0,0)" visibility="visible"></path><path fill="rgb(42,42,47)" fill-opacity="1" d="M 126.1 191.4 L 126.1 209.9 L 282 187.5 L 282 169 Z"  transform="translate(0,0)" visibility="visible"></path><path fill="rgb(99,156,211)" fill-opacity="1" d="M 441 169 C 441 218.6 397.9 260.6 331.0 275.9 L 331.0 294.5 C 397.9 279.1 441 237.2 441 187.5 Z"  transform="translate(0,0)" visibility="visible"></path><path fill="rgb(99,156,211)" fill-opacity="1" d="M 282 169 C 282 169 282 169 282 169 C 282 169 282 169 282 169 L 282 187.5 C 282 187.5 282 187.5 282 187.5 C 282 187.5 282 187.5 282 187.5 Z"  transform="translate(0,0)" visibility="visible"></path><path fill="rgb(42,42,47)" fill-opacity="1" d="M 331.0 275.9 C 247.5 295.1 157.8 262.7 130.7 203.7 C 128.8 199.4 127.4 195.7 126.1 191.4 L 126.1 209.9 C 143.6 270.8 227.6 310.1 313.6 297.7 C 319.8 296.8 325.0 295.8 331.0 294.5 Z"  transform="translate(0,0)" visibility="visible"></path><path fill="rgb(42,42,47)" fill-opacity="1" d="M 282 169 C 282 169 282 169 282 169 C 282 169 282 169 282 169 L 282 187.5 C 282 187.5 282 187.5 282 187.5 C 282 187.5 282 187.5 282 187.5 Z"  transform="translate(0,0)" visibility="visible"></path><g  stroke="#7cb5ec" stroke-width="1" stroke-linejoin="round"><path fill="#7cb5ec" d="M 281.9 56.5 C 369.7 56.5 440.9 106.8 440.9 168.9 C 441.0 218.6 397.9 260.5 331.0 275.9 L 282 169 C 282 169 282 169 282 169 C 282 169 282 169 282 169 Z"  transform="translate(0,0)" visibility="visible"></path></g><g  stroke="#434348" stroke-width="1" stroke-linejoin="round"><path fill="#434348" d="M 331.0 275.9 C 247.5 295.1 157.8 262.7 130.7 203.7 C 128.8 199.4 127.4 195.7 126.1 191.4 L 282 169 C 282 169 282 169 282 169 C 282 169 282 169 282 169 Z"  transform="translate(0,0)" visibility="visible"></path></g><g  stroke-linejoin="round"><path fill="#90ed7d" d="M 126.1 191.4 C 117.2 160.2 125.5 131.3 151.0 105.2 L 282 169 C 282 169 282 169 282 169 Z"  transform="translate(-7,-1)" visibility="visible"></path></g><g  stroke="#f7a35c" stroke-width="1" stroke-linejoin="round"><path fill="#f7a35c" d="M 151.0 105.2 C 168.0 87.8 188.1 75.8 215.2 66.9 L 282 169 C 282 169 282 169 282 169 Z"  transform="translate(0,0)" visibility="visible"></path></g><g  stroke="#8085e9" stroke-width="1" stroke-linejoin="round"><path fill="#8085e9" d="M 215.2 66.9 C 234.9 60.5 253.2 57.3 274.9 56.6 L 282 169 C 282 169 282 169 282 169 Z"  transform="translate(0,0)" visibility="visible"></path></g><g  stroke="#f15c80" stroke-width="1" stroke-linejoin="round"><path fill="#f15c80" d="M 274.9 56.6 C 277.4 56.6 279.4 56.5 281.9 56.5 L 282 169 C 282 169 282 169 282 169 Z"  transform="translate(0,0)" visibility="visible"></path></g></g><g class="highcharts-markers" visibility="visible"  transform="translate(10,47) scale(1 1)"></g></g><text x="292" text-anchor="middle" class="highcharts-title"  style="color:#333333;font-size:18px;fill:#333333;width:520px;" y="24"><tspan>Browser market shares at a specific website, 2014</tspan></text><g class="highcharts-data-labels highcharts-tracker" visibility="visible"  transform="translate(10,47) scale(1 1)" style="cursor:pointer;"><path fill="none" d="M 474.6 146.7 C 469.6 146.7 460.7 147.9 449.9 149.6 L 439.0 151.4" stroke="#7cb5ec" stroke-width="1"></path><path fill="none" d="M 151.8 310.6 C 156.8 310.6 190.8 303.7 196.3 294.2 L 201.9 284.7" stroke="#434348" stroke-width="1"></path><path fill="none" d="M 90.1 140.5 C 95.1 140.5 104.6 142.1 115.4 144.3 L 126.2 146.5" stroke="#90ed7d" stroke-width="1"></path><path fill="none" d="M 116.6 69 C 121.6 69 165.3 66.2 172.4 74.6 L 179.4 83.0" stroke="#f7a35c" stroke-width="1"></path><path fill="none" d="M 133.5 46 C 138.5 46 239.1 38.3 241.7 49.0 L 244.3 59.7" stroke="#8085e9" stroke-width="1"></path><path fill="none" d="M 156.9 23 C 161.9 23 278.0 34.6 278.2 45.5 L 278.5 56.5" stroke="#f15c80" stroke-width="1"></path><g  style="cursor:pointer;" transform="translate(480,137)"><text x="5"  style="font-size: 11px; font-weight: bold; color: rgb(0, 0, 0); fill: #000000; text-shadow: rgb(255, 255, 255) 0px 0px 6px, rgb(255, 255, 255) 0px 0px 3px; " transform="translate(0,16)"><tspan>Firefox</tspan></text></g><g  style="cursor:pointer;" transform="translate(131,301)"><text x="5"  style="font-size: 11px; font-weight: bold; color: rgb(0, 0, 0); fill: #000000; text-shadow: rgb(255, 255, 255) 0px 0px 6px, rgb(255, 255, 255) 0px 0px 3px; " transform="translate(0,16)"><tspan>IE</tspan></text></g><g  style="cursor:pointer;" transform="translate(36,131)"><text x="5"  style="font-size: 11px; font-weight: bold; color: rgb(0, 0, 0); fill: #000000; text-shadow: rgb(255, 255, 255) 0px 0px 6px, rgb(255, 255, 255) 0px 0px 3px; " transform="translate(0,16)"><tspan>Chrome</tspan></text></g><g  style="cursor:pointer;" transform="translate(74,59)"><text x="5"  style="font-size: 11px; font-weight: bold; color: rgb(0, 0, 0); fill: #000000; text-shadow: rgb(255, 255, 255) 0px 0px 6px, rgb(255, 255, 255) 0px 0px 3px; " transform="translate(0,16)"><tspan>Safari</tspan></text></g><g  style="cursor:pointer;" transform="translate(90,36)"><text x="5"  style="font-size: 11px; font-weight: bold; color: rgb(0, 0, 0); fill: #000000; text-shadow: rgb(255, 255, 255) 0px 0px 6px, rgb(255, 255, 255) 0px 0px 3px; " transform="translate(0,16)"><tspan>Opera</tspan></text></g><g  style="cursor:pointer;" transform="translate(109,13)"><text x="5"  style="font-size: 11px; font-weight: bold; color: rgb(0, 0, 0); fill: #000000; text-shadow: rgb(255, 255, 255) 0px 0px 6px, rgb(255, 255, 255) 0px 0px 3px; " transform="translate(0,16)"><tspan>Others</tspan></text></g></g><g class="highcharts-legend" ><g ><g></g></g></g><g class="highcharts-tooltip"  style="cursor:default;padding:0;white-space:nowrap;" transform="translate(0,-9999)"><path fill="none" d="M 3 0 L 13 0 C 16 0 16 0 16 3 L 16 13 C 16 16 16 16 13 16 L 3 16 C 0 16 0 16 0 13 L 0 3 C 0 0 0 0 3 0"  stroke="black" stroke-opacity="0.0" stroke-width="5" transform="translate(1, 1)"></path><path fill="none" d="M 3 0 L 13 0 C 16 0 16 0 16 3 L 16 13 C 16 16 16 16 13 16 L 3 16 C 0 16 0 16 0 13 L 0 3 C 0 0 0 0 3 0"  stroke="black" stroke-opacity="0.0" stroke-width="3" transform="translate(1, 1)"></path><path fill="none" d="M 3 0 L 13 0 C 16 0 16 0 16 3 L 16 13 C 16 16 16 16 13 16 L 3 16 C 0 16 0 16 0 13 L 0 3 C 0 0 0 0 3 0"  stroke="black" stroke-opacity="0.1" stroke-width="1" transform="translate(1, 1)"></path><path fill="rgb(249, 249, 249)" fill-opacity=" .85" d="M 3 0 L 13 0 C 16 0 16 0 16 3 L 16 13 C 16 16 16 16 13 16 L 3 16 C 0 16 0 16 0 13 L 0 3 C 0 0 0 0 3 0"></path><text x="8"  style="font-size:12px;color:#333333;fill:#333333;" transform="translate(0,20)"></text></g></svg>