<svg version="1.1" style="font-family:&quot;lucida grande&quot;, &quot;lucida sans unicode&quot;, arial, helvetica, sans-serif;font-size:12px;" xmlns="http://www.w3.org/2000/svg" width="584" height="400" viewBox="0 0 584 400"><desc>Created with Highcharts 4.1.4</desc><defs><clipPath id="highcharts-1"><rect x="0" y="0" width="584" height="400"></rect></clipPath></defs><rect x="0" y="0" width="584" height="400" strokeWidth="0" fill="#FFFFFF" class=" highcharts-background" stroke="transparent"></rect><g class="highcharts-series-group" ><g class="highcharts-series highcharts-tracker" visibility="visible"  transform="translate(10,61) scale(1 1)" style=""><path fill="rgb(219,66,66)" fill-opacity="1" d="M 255.6 56.1 L 255.6 80.0 L 273.3 151.0 L 273.3 127.1 Z"  transform="translate(0,0)" visibility="visible"></path><path fill="rgb(99,156,211)" fill-opacity="1" d="M 431.6 143.2 L 431.6 167.1 L 331.2 179.7 L 331.2 155.8 Z"  transform="translate(0,0)" visibility="visible"></path><path fill="rgb(219,66,66)" fill-opacity="1" d="M 273.3 127.1 C 276.3 126.8 278.9 126.6 281.9 126.6 L 281.9 150.5 C 278.9 150.5 276.3 150.6 273.3 151.0 Z"  transform="translate(0,0)" visibility="visible"></path><path fill="rgb(219,66,66)" fill-opacity="1" d="M 255.6 56.1 C 264.7 55.0 272.6 54.5 281.9 54.5 L 281.9 78.3 C 272.6 78.3 264.7 78.8 255.6 80.0 Z"  transform="translate(0,0)" visibility="visible"></path><path fill="rgb(219,66,66)" fill-opacity="1" d="M 281.9 54.5 L 281.9 78.3 L 281.9 150.5 L 281.9 126.6 Z"  transform="translate(0,0)" visibility="visible"></path><path fill="rgb(18,119,118)" fill-opacity="1" d="M 229.9 61.0 L 229.9 84.8 L 264.8 152.6 L 264.8 128.7 Z"  transform="translate(0,0)" visibility="visible"></path><path fill="rgb(18,119,118)" fill-opacity="1" d="M 264.8 128.7 C 267.7 128.0 270.2 127.5 273.3 127.1 L 273.3 151.0 C 270.2 151.4 267.7 151.9 264.8 152.6 Z"  transform="translate(0,0)" visibility="visible"></path><path fill="rgb(18,119,118)" fill-opacity="1" d="M 229.9 61.0 C 238.7 58.7 246.4 57.2 255.6 56.1 L 255.6 80.0 C 246.4 81.1 238.7 82.6 229.9 84.8 Z"  transform="translate(0,0)" visibility="visible"></path><path fill="rgb(18,119,118)" fill-opacity="1" d="M 255.6 56.1 L 255.6 80.0 L 273.3 151.0 L 273.3 127.1 Z"  transform="translate(0,0)" visibility="visible"></path><path fill="rgb(203,186,59)" fill-opacity="1" d="M 150.3 108.2 L 150.3 132.1 L 238.6 168.1 L 238.6 144.3 Z"  transform="translate(0,0)" visibility="visible"></path><path fill="rgb(203,186,59)" fill-opacity="1" d="M 229.9 61.0 L 229.9 84.8 L 264.8 152.6 L 264.8 128.7 Z"  transform="translate(0,0)" visibility="visible"></path><path fill="rgb(203,186,59)" fill-opacity="1" d="M 238.6 144.3 C 244.8 136.8 253.3 131.7 264.8 128.7 L 264.8 152.6 C 253.3 155.6 244.8 160.6 238.6 168.1 Z"  transform="translate(0,0)" visibility="visible"></path><path fill="rgb(203,186,59)" fill-opacity="1" d="M 150.3 108.2 C 168.9 85.4 194.9 70.0 229.9 61.0 L 229.9 84.8 C 194.9 93.9 168.9 109.2 150.3 132.1 Z"  transform="translate(0,0)" visibility="visible"></path><path fill="rgb(216,67,103)" fill-opacity="1" d="M 132.3 180.6 L 132.3 204.5 L 232.7 192.0 L 232.7 168.1 Z"  transform="translate(0,0)" visibility="visible"></path><path fill="rgb(42,42,47)" fill-opacity="1" d="M 424.8 198.7 L 424.8 222.6 L 328.9 197.9 L 328.9 174.0 Z"  transform="translate(0,0)" visibility="visible"></path><path fill="rgb(99,156,211)" fill-opacity="1" d="M 281.9 54.5 L 281.9 78.3 L 281.9 150.5 L 281.9 126.6 Z"  transform="translate(0,0)" visibility="visible"></path><path fill="rgb(99,156,211)" fill-opacity="1" d="M 281.9 126.6 C 306.5 126.6 326.9 138.7 331.2 155.8 L 331.2 179.7 C 326.9 162.6 306.5 150.5 281.9 150.5 Z"  transform="translate(0,0)" visibility="visible"></path><path fill="rgb(99,156,211)" fill-opacity="1" d="M 281.9 54.5 C 356.5 54.5 418.6 91.3 431.6 143.2 L 431.6 167.1 C 418.6 115.2 356.5 78.3 281.9 78.3 Z"  transform="translate(0,0)" visibility="visible"></path><path fill="rgb(103,108,208)" fill-opacity="1" d="M 281.9 269.4 L 281.9 293.3 L 281.9 221.2 L 281.9 197.3 Z"  transform="translate(0,0)" visibility="visible"></path><path fill="rgb(216,67,103)" fill-opacity="1" d="M 132.3 180.6 C 130.6 174.1 130 168.5 130 162 L 130 185.8 C 130 192.4 130.6 198.0 132.3 204.5 Z"  transform="translate(0,0)" visibility="visible"></path><path fill="rgb(216,67,103)" fill-opacity="1" d="M 232.7 168.1 C 230.6 159.5 232.5 151.8 238.6 144.3 L 238.6 168.1 C 232.5 175.7 230.6 183.4 232.7 192.0 Z"  transform="translate(0,0)" visibility="visible"></path><path fill="rgb(216,67,103)" fill-opacity="1" d="M 150.3 108.2 L 150.3 132.1 L 238.6 168.1 L 238.6 144.3 Z"  transform="translate(0,0)" visibility="visible"></path><path fill="rgb(42,42,47)" fill-opacity="1" d="M 434 162 C 434 175.1 431.2 186.3 424.8 198.7 L 424.8 222.6 C 431.2 210.2 434 199.0 434 185.8 Z"  transform="translate(0,0)" visibility="visible"></path><path fill="rgb(42,42,47)" fill-opacity="1" d="M 331.2 155.8 C 332.8 162.2 332.1 167.9 328.9 174.0 L 328.9 197.9 C 332.1 191.8 332.8 186.1 331.2 179.7 Z"  transform="translate(0,0)" visibility="visible"></path><path fill="rgb(42,42,47)" fill-opacity="1" d="M 431.6 143.2 L 431.6 167.1 L 331.2 179.7 L 331.2 155.8 Z"  transform="translate(0,0)" visibility="visible"></path><path fill="rgb(119,212,100)" fill-opacity="1" d="M 413.6 215.7 L 413.6 239.6 L 325.2 203.5 L 325.2 179.6 Z"  transform="translate(0,0)" visibility="visible"></path><path fill="rgb(119,212,100)" fill-opacity="1" d="M 424.8 198.7 L 424.8 222.6 L 328.9 197.9 L 328.9 174.0 Z"  transform="translate(0,0)" visibility="visible"></path><path fill="rgb(222,138,67)" fill-opacity="1" d="M 281.9 269.4 L 281.9 293.3 L 281.9 221.2 L 281.9 197.3 Z"  transform="translate(0,0)" visibility="visible"></path><path fill="rgb(119,212,100)" fill-opacity="1" d="M 424.8 198.7 C 421.6 204.9 418.2 210.0 413.6 215.7 L 413.6 239.6 C 418.2 233.9 421.6 228.8 424.8 222.6 Z"  transform="translate(0,0)" visibility="visible"></path><path fill="rgb(119,212,100)" fill-opacity="1" d="M 328.9 174.0 C 327.9 176.1 326.8 177.8 325.2 179.6 L 325.2 203.5 C 326.8 201.6 327.9 199.9 328.9 197.9 Z"  transform="translate(0,0)" visibility="visible"></path><path fill="rgb(222,138,67)" fill-opacity="1" d="M 413.6 215.7 L 413.6 239.6 L 325.2 203.5 L 325.2 179.6 Z"  transform="translate(0,0)" visibility="visible"></path><path fill="rgb(103,108,208)" fill-opacity="1" d="M 132.3 180.6 L 132.3 204.5 L 232.7 192.0 L 232.7 168.1 Z"  transform="translate(0,0)" visibility="visible"></path><path fill="rgb(222,138,67)" fill-opacity="1" d="M 413.6 215.7 C 385.6 250.0 337.9 269.4 281.9 269.4 L 281.9 293.3 C 337.9 293.3 385.6 273.8 413.6 239.6 Z"  transform="translate(0,0)" visibility="visible"></path><path fill="rgb(222,138,67)" fill-opacity="1" d="M 325.2 179.6 C 316.0 190.9 300.3 197.3 281.9 197.3 L 281.9 221.2 C 300.3 221.2 316.0 214.8 325.2 203.5 Z"  transform="translate(0,0)" visibility="visible"></path><path fill="rgb(103,108,208)" fill-opacity="1" d="M 281.9 269.4 C 207.3 269.4 145.2 232.6 132.3 180.6 L 132.3 204.5 C 145.2 256.4 207.3 293.3 281.9 293.3 Z"  transform="translate(0,0)" visibility="visible"></path><path fill="rgb(103,108,208)" fill-opacity="1" d="M 281.9 197.3 C 257.4 197.3 237.0 185.2 232.7 168.1 L 232.7 192.0 C 237.0 209.0 257.4 221.2 281.9 221.2 Z"  transform="translate(0,0)" visibility="visible"></path><g  stroke="#7cb5ec" stroke-width="1" stroke-linejoin="round"><path fill="#7cb5ec" d="M 281.9 54.5 C 356.5 54.5 418.6 91.3 431.6 143.2 L 331.2 155.8 C 326.9 138.7 306.5 126.6 281.9 126.6 Z"  transform="translate(0,0)" visibility="visible"></path></g><g  stroke="#434348" stroke-width="1" stroke-linejoin="round"><path fill="#434348" d="M 431.6 143.2 C 436.5 162.7 434.4 180.1 424.8 198.7 L 328.9 174.0 C 332.1 167.9 332.8 162.2 331.2 155.8 Z"  transform="translate(0,0)" visibility="visible"></path></g><g  stroke="#90ed7d" stroke-width="1" stroke-linejoin="round"><path fill="#90ed7d" d="M 424.8 198.7 C 421.6 204.9 418.2 210.0 413.6 215.7 L 325.2 179.6 C 326.8 177.8 327.9 176.1 328.9 174.0 Z"  transform="translate(0,0)" visibility="visible"></path></g><g  stroke="#f7a35c" stroke-width="1" stroke-linejoin="round"><path fill="#f7a35c" d="M 413.6 215.7 C 385.6 250.0 337.9 269.4 281.9 269.4 L 281.9 197.3 C 300.3 197.3 316.0 190.9 325.2 179.6 Z"  transform="translate(0,0)" visibility="visible"></path></g><g  stroke="#8085e9" stroke-width="1" stroke-linejoin="round"><path fill="#8085e9" d="M 281.9 269.4 C 207.3 269.4 145.2 232.6 132.3 180.6 L 232.7 168.1 C 237.0 185.2 257.4 197.3 281.9 197.3 Z"  transform="translate(0,0)" visibility="visible"></path></g><g  stroke="#f15c80" stroke-width="1" stroke-linejoin="round"><path fill="#f15c80" d="M 132.3 180.6 C 125.8 154.6 131.7 131.1 150.3 108.2 L 238.6 144.3 C 232.5 151.8 230.6 159.5 232.7 168.1 Z"  transform="translate(0,0)" visibility="visible"></path></g><g  stroke="#e4d354" stroke-width="1" stroke-linejoin="round"><path fill="#e4d354" d="M 150.3 108.2 C 168.9 85.4 194.9 70.0 229.9 61.0 L 264.8 128.7 C 253.3 131.7 244.8 136.8 238.6 144.3 Z"  transform="translate(0,0)" visibility="visible"></path></g><g  stroke="#2b908f" stroke-width="1" stroke-linejoin="round"><path fill="#2b908f" d="M 229.9 61.0 C 238.7 58.7 246.4 57.2 255.6 56.1 L 273.3 127.1 C 270.2 127.5 267.7 128.0 264.8 128.7 Z"  transform="translate(0,0)" visibility="visible"></path></g><g  stroke="#f45b5b" stroke-width="1" stroke-linejoin="round"><path fill="#f45b5b" d="M 255.6 56.1 C 264.7 55.0 272.6 54.5 281.9 54.5 L 281.9 126.6 C 278.9 126.6 276.3 126.8 273.3 127.1 Z"  transform="translate(0,0)" visibility="visible"></path></g></g><g class="highcharts-markers" visibility="visible"  transform="translate(10,61) scale(1 1)"></g></g><text x="292" text-anchor="middle" class="highcharts-title"  style="color:#333333;font-size:18px;fill:#333333;width:520px;" y="24"><tspan>Contents of Highsoft's weekly fruit delivery</tspan></text><text x="292" text-anchor="middle" class="highcharts-subtitle"  style="color:#555555;fill:#555555;width:520px;" y="46"><tspan>3D donut in Highcharts</tspan></text><g class="highcharts-data-labels highcharts-tracker" visibility="visible"  transform="translate(10,61) scale(1 1)" style=""><path fill="none" d="M 435.4 56.6 C 430.4 56.6 393.8 62.8 386.7 71.2 L 379.7 79.6" stroke="#7cb5ec" stroke-width="1"></path><path fill="none" d="M 465.4 197.8 C 460.4 197.8 455.3 197.1 444.3 196.2 L 433.4 195.2" stroke="#434348" stroke-width="1"></path><path fill="none" d="M 449.5 243.9 C 444.5 243.9 439.6 240.5 429.7 235.9 L 419.7 231.2" stroke="#90ed7d" stroke-width="1"></path><path fill="none" d="M 399.6 304.9 C 394.6 304.9 369.0 297.9 363.5 288.4 L 358.0 278.9" stroke="#f7a35c" stroke-width="1"></path><path fill="none" d="M 148.7 291.1 C 153.7 291.1 170.1 285.0 177.2 276.6 L 184.2 268.2" stroke="#8085e9" stroke-width="1"></path><path fill="none" d="M 96.5 138.1 C 101.5 138.1 110.6 139.5 121.4 141.4 L 132.3 143.3" stroke="#f15c80" stroke-width="1"></path><path fill="none" d="M 120.5 69 C 125.5 69 170.1 62.8 177.2 71.2 L 184.2 79.6" stroke="#e4d354" stroke-width="1"></path><path fill="none" d="M 136.7 46 C 141.7 46 236.9 36.9 239.8 47.5 L 242.6 58.1" stroke="#2b908f" stroke-width="1"></path><path fill="none" d="M 159.5 23 C 164.5 23 266.8 33.0 267.7 43.9 L 268.7 54.9" stroke="#f45b5b" stroke-width="1"></path><g  style="" transform="translate(440,47)"><text x="5"  style="font-size: 11px; font-weight: bold; color: rgb(0, 0, 0); fill: #000000; text-shadow: rgb(255, 255, 255) 0px 0px 6px, rgb(255, 255, 255) 0px 0px 3px; " transform="translate(0,16)"><tspan>Bananas</tspan></text></g><g  style="" transform="translate(470,188)"><text x="5"  style="font-size: 11px; font-weight: bold; color: rgb(0, 0, 0); fill: #000000; text-shadow: rgb(255, 255, 255) 0px 0px 6px, rgb(255, 255, 255) 0px 0px 3px; " transform="translate(0,16)"><tspan>Kiwi</tspan></text></g><g  style="" transform="translate(455,234)"><text x="5"  style="font-size: 11px; font-weight: bold; color: rgb(0, 0, 0); fill: #000000; text-shadow: rgb(255, 255, 255) 0px 0px 6px, rgb(255, 255, 255) 0px 0px 3px; " transform="translate(0,16)"><tspan>Mixed nuts</tspan></text></g><g  style="" transform="translate(405,295)"><text x="5"  style="font-size: 11px; font-weight: bold; color: rgb(0, 0, 0); fill: #000000; text-shadow: rgb(255, 255, 255) 0px 0px 6px, rgb(255, 255, 255) 0px 0px 3px; " transform="translate(0,16)"><tspan>Oranges</tspan></text></g><g  style="" transform="translate(101,281)"><text x="5"  style="font-size: 11px; font-weight: bold; color: rgb(0, 0, 0); fill: #000000; text-shadow: rgb(255, 255, 255) 0px 0px 6px, rgb(255, 255, 255) 0px 0px 3px; " transform="translate(0,16)"><tspan>Apples</tspan></text></g><g  style="" transform="translate(55,128)"><text x="5"  style="font-size: 11px; font-weight: bold; color: rgb(0, 0, 0); fill: #000000; text-shadow: rgb(255, 255, 255) 0px 0px 6px, rgb(255, 255, 255) 0px 0px 3px; " transform="translate(0,16)"><tspan>Pears</tspan></text></g><g  style="" transform="translate(41,59)"><text x="5"  style="font-size: 11px; font-weight: bold; color: rgb(0, 0, 0); fill: #000000; text-shadow: rgb(255, 255, 255) 0px 0px 6px, rgb(255, 255, 255) 0px 0px 3px; " transform="translate(0,16)"><tspan>Clementines</tspan></text></g><g  style="" transform="translate(48,36)"><text x="5"  style="font-size: 11px; font-weight: bold; color: rgb(0, 0, 0); fill: #000000; text-shadow: rgb(255, 255, 255) 0px 0px 6px, rgb(255, 255, 255) 0px 0px 3px; " transform="translate(0,16)"><tspan>Reddish (bag)</tspan></text></g><g  style="" transform="translate(63,13)"><text x="5"  style="font-size: 11px; font-weight: bold; color: rgb(0, 0, 0); fill: #000000; text-shadow: rgb(255, 255, 255) 0px 0px 6px, rgb(255, 255, 255) 0px 0px 3px; " transform="translate(0,16)"><tspan>Grapes (bunch)</tspan></text></g></g><g class="highcharts-legend" ><g ><g></g></g></g><g class="highcharts-tooltip"  style="cursor:default;padding:0;white-space:nowrap;" transform="translate(0,-9999)"><path fill="none" d="M 3 0 L 13 0 C 16 0 16 0 16 3 L 16 13 C 16 16 16 16 13 16 L 3 16 C 0 16 0 16 0 13 L 0 3 C 0 0 0 0 3 0"  stroke="black" stroke-opacity="0.0" stroke-width="5" transform="translate(1, 1)"></path><path fill="none" d="M 3 0 L 13 0 C 16 0 16 0 16 3 L 16 13 C 16 16 16 16 13 16 L 3 16 C 0 16 0 16 0 13 L 0 3 C 0 0 0 0 3 0"  stroke="black" stroke-opacity="0.0" stroke-width="3" transform="translate(1, 1)"></path><path fill="none" d="M 3 0 L 13 0 C 16 0 16 0 16 3 L 16 13 C 16 16 16 16 13 16 L 3 16 C 0 16 0 16 0 13 L 0 3 C 0 0 0 0 3 0"  stroke="black" stroke-opacity="0.1" stroke-width="1" transform="translate(1, 1)"></path><path fill="rgb(249, 249, 249)" fill-opacity=" .85" d="M 3 0 L 13 0 C 16 0 16 0 16 3 L 16 13 C 16 16 16 16 13 16 L 3 16 C 0 16 0 16 0 13 L 0 3 C 0 0 0 0 3 0"></path><text x="8"  style="font-size:12px;color:#333333;fill:#333333;" transform="translate(0,20)"></text></g></svg>