<svg version="1.1" style="font-family:&quot;lucida grande&quot;, &quot;lucida sans unicode&quot;, arial, helvetica, sans-serif;font-size:12px;" xmlns="http://www.w3.org/2000/svg" width="584" height="400" viewBox="0 0 584 400"><desc>Created with Highcharts 4.1.4</desc><defs><clipPath id="highcharts-1"><rect x="0" y="0" width="564" height="338"></rect></clipPath></defs><rect x="0" y="0" width="584" height="400" strokeWidth="0" fill="#FFFFFF" class=" highcharts-background" stroke="transparent"></rect><g class="highcharts-series-group" ><g class="highcharts-series highcharts-tracker" visibility="visible"  transform="translate(10,47) scale(1 1)" style="cursor:pointer;"><path fill="#7cb5ec" d="M 283.4 41.5 A 139 139 0 0 1 326.5 312.6 L 283.5 180.5 A 0 0 0 0 0 283.5 180.5 Z" stroke="#FFFFFF" stroke-width="1" stroke-linejoin="round" transform="translate(0,0)"></path><path fill="#434348" d="M 326.4 312.7 A 139 139 0 0 1 147.3 208.3 L 283.5 180.5 A 0 0 0 0 0 283.5 180.5 Z" stroke="#FFFFFF" stroke-width="1" stroke-linejoin="round" transform="translate(0,0)"></path><path fill="#90ed7d" d="M 147.2 208.1 A 139 139 0 0 1 168.9 101.7 L 283.5 180.5 A 0 0 0 0 0 283.5 180.5 Z" stroke="#FFFFFF" stroke-width="1" stroke-linejoin="round" transform="translate(-10,-2)"></path><path fill="#f7a35c" d="M 169.0 101.6 A 139 139 0 0 1 225.0 54.4 L 283.5 180.5 A 0 0 0 0 0 283.5 180.5 Z" stroke="#FFFFFF" stroke-width="1" stroke-linejoin="round" transform="translate(0,0)"></path><path fill="#8085e9" d="M 225.1 54.3 A 139 139 0 0 1 277.1 41.6 L 283.5 180.5 A 0 0 0 0 0 283.5 180.5 Z" stroke="#FFFFFF" stroke-width="1" stroke-linejoin="round" transform="translate(0,0)"></path><path fill="#f15c80" d="M 277.3 41.6 A 139 139 0 0 1 283.3 41.5 L 283.5 180.5 A 0 0 0 0 0 283.5 180.5 Z" stroke="#FFFFFF" stroke-width="1" stroke-linejoin="round" transform="translate(0,0)"></path></g><g class="highcharts-markers" visibility="visible"  transform="translate(10,47) scale(1 1)"></g></g><text x="292" text-anchor="middle" class="highcharts-title"  style="color:#333333;font-size:18px;fill:#333333;width:520px;" y="24"><tspan>Browser market shares at a specific website, 2014</tspan></text><g class="highcharts-data-labels highcharts-tracker" visibility="visible"  transform="translate(10,47) scale(1 1)" style="cursor:pointer;"><path fill="none" d="M 455.4 154.0 C 450.4 154.0 442.5 155.3 431.6 157.0 L 420.7 158.7" stroke="#7cb5ec" stroke-width="1"></path><path fill="none" d="M 193.3 326.5 C 198.3 326.5 202.4 319.5 207.9 310.0 L 213.4 300.5" stroke="#434348" stroke-width="1"></path><path fill="none" d="M 112.9 146.7 C 117.9 146.7 125.7 148.3 136.5 150.5 L 147.3 152.7" stroke="#90ed7d" stroke-width="1"></path><path fill="none" d="M 162.6 57.5 C 167.6 57.5 179.7 57.4 186.8 65.8 L 193.8 74.2" stroke="#f7a35c" stroke-width="1"></path><path fill="none" d="M 193.3 34.5 C 198.3 34.5 245.4 24.0 248.0 34.7 L 250.6 45.4" stroke="#8085e9" stroke-width="1"></path><path fill="none" d="M 274.7 11.5 C 279.7 11.5 279.9 19.5 280.2 30.5 L 280.4 41.5" stroke="#f15c80" stroke-width="1"></path><g  style="cursor:pointer;" transform="translate(460,144)"><text x="5"  style="font-size: 11px; font-weight: bold; color: black; fill: #000000; text-shadow: rgb(255, 255, 255) 0px 0px 6px, rgb(255, 255, 255) 0px 0px 3px; " transform="translate(0,16)"><tspan style="font-weight:bold">Firefox</tspan><tspan dx="0">: 45.0 %</tspan></text></g><g  style="cursor:pointer;" transform="translate(126,317)"><text x="5"  style="font-size: 11px; font-weight: bold; color: black; fill: #000000; text-shadow: rgb(255, 255, 255) 0px 0px 6px, rgb(255, 255, 255) 0px 0px 3px; " transform="translate(0,16)"><tspan style="font-weight:bold">IE</tspan><tspan dx="0">: 26.8 %</tspan></text></g><g  style="cursor:pointer;" transform="translate(13,137)"><text x="5"  style="font-size: 11px; font-weight: bold; color: black; fill: #000000; text-shadow: rgb(255, 255, 255) 0px 0px 6px, rgb(255, 255, 255) 0px 0px 3px; " transform="translate(0,16)"><tspan style="font-weight:bold">Chrome</tspan><tspan dx="0">: 12.8 %</tspan></text></g><g  style="cursor:pointer;" transform="translate(81,48)"><text x="5"  style="font-size: 11px; font-weight: bold; color: black; fill: #000000; text-shadow: rgb(255, 255, 255) 0px 0px 6px, rgb(255, 255, 255) 0px 0px 3px; " transform="translate(0,16)"><tspan style="font-weight:bold">Safari</tspan><tspan dx="0">: 8.5 %</tspan></text></g><g  style="cursor:pointer;" transform="translate(110,25)"><text x="5"  style="font-size: 11px; font-weight: bold; color: black; fill: #000000; text-shadow: rgb(255, 255, 255) 0px 0px 6px, rgb(255, 255, 255) 0px 0px 3px; " transform="translate(0,16)"><tspan style="font-weight:bold">Opera</tspan><tspan dx="0">: 6.2 %</tspan></text></g><g  style="cursor:pointer;" transform="translate(188,2)"><text x="5"  style="font-size: 11px; font-weight: bold; color: black; fill: #000000; text-shadow: rgb(255, 255, 255) 0px 0px 6px, rgb(255, 255, 255) 0px 0px 3px; " transform="translate(0,16)"><tspan style="font-weight:bold">Others</tspan><tspan dx="0">: 0.7 %</tspan></text></g></g><g class="highcharts-legend" ><g ><g></g></g></g><g class="highcharts-tooltip"  style="cursor:default;padding:0;white-space:nowrap;" transform="translate(0,-9999)"><path fill="none" d="M 3 0 L 13 0 C 16 0 16 0 16 3 L 16 13 C 16 16 16 16 13 16 L 3 16 C 0 16 0 16 0 13 L 0 3 C 0 0 0 0 3 0"  stroke="black" stroke-opacity="0.0" stroke-width="5" transform="translate(1, 1)"></path><path fill="none" d="M 3 0 L 13 0 C 16 0 16 0 16 3 L 16 13 C 16 16 16 16 13 16 L 3 16 C 0 16 0 16 0 13 L 0 3 C 0 0 0 0 3 0"  stroke="black" stroke-opacity="0.0" stroke-width="3" transform="translate(1, 1)"></path><path fill="none" d="M 3 0 L 13 0 C 16 0 16 0 16 3 L 16 13 C 16 16 16 16 13 16 L 3 16 C 0 16 0 16 0 13 L 0 3 C 0 0 0 0 3 0"  stroke="black" stroke-opacity="0.1" stroke-width="1" transform="translate(1, 1)"></path><path fill="rgb(249, 249, 249)" fill-opacity=" .85" d="M 3 0 L 13 0 C 16 0 16 0 16 3 L 16 13 C 16 16 16 16 13 16 L 3 16 C 0 16 0 16 0 13 L 0 3 C 0 0 0 0 3 0"></path><text x="8"  style="font-size:12px;color:#333333;fill:#333333;" transform="translate(0,20)"></text></g></svg>