<svg version="1.1" style="font-family:&quot;lucida grande&quot;, &quot;lucida sans unicode&quot;, arial, helvetica, sans-serif;font-size:12px;" xmlns="http://www.w3.org/2000/svg" width="584" height="400" viewBox="0 0 584 400"><desc>Created with Highcharts 4.1.4</desc><defs><clipPath id="highcharts-1"><rect x="0" y="0" width="564" height="324"></rect></clipPath></defs><rect x="0" y="0" width="584" height="400" strokeWidth="0" fill="#FFFFFF" class=" highcharts-background" stroke="transparent"></rect><g class="highcharts-series-group" ><g class="highcharts-series highcharts-tracker" visibility="visible"  transform="translate(10,61) scale(1 1)" style=""><path fill="#7cb5ec" d="M 230.4 83.5 A 84.5 84.5 0 1 1 207.9 249.4 L 230.5 168 A 0 0 0 1 0 230.5 168 Z" stroke="#FFFFFF" stroke-width="1" stroke-linejoin="round" transform="translate(0,0)" class="highcharts-drilldown-point" style="cursor:pointer;"></path><path fill="#434348" d="M 207.8 249.4 A 84.5 84.5 0 0 1 146.4 177.1 L 230.5 168 A 0 0 0 0 0 230.5 168 Z" stroke="#FFFFFF" stroke-width="1" stroke-linejoin="round" transform="translate(0,0)" class="highcharts-drilldown-point" style="cursor:pointer;"></path><path fill="#90ed7d" d="M 146.4 177.0 A 84.5 84.5 0 0 1 196.6 90.5 L 230.5 168 A 0 0 0 0 0 230.5 168 Z" stroke="#FFFFFF" stroke-width="1" stroke-linejoin="round" transform="translate(0,0)" class="highcharts-drilldown-point" style="cursor:pointer;"></path><path fill="#f7a35c" d="M 196.7 90.5 A 84.5 84.5 0 0 1 220.6 84.0 L 230.5 168 A 0 0 0 0 0 230.5 168 Z" stroke="#FFFFFF" stroke-width="1" stroke-linejoin="round" transform="translate(0,0)" class="highcharts-drilldown-point" style="cursor:pointer;"></path><path fill="#8085e9" d="M 220.6 84.0 A 84.5 84.5 0 0 1 228.8 83.5 L 230.5 168 A 0 0 0 0 0 230.5 168 Z" stroke="#FFFFFF" stroke-width="1" stroke-linejoin="round" transform="translate(0,0)" class="highcharts-drilldown-point" style="cursor:pointer;"></path><path fill="#f15c80" d="M 228.9 83.5 A 84.5 84.5 0 0 1 230.3 83.5 L 230.5 168 A 0 0 0 0 0 230.5 168 Z" stroke="#FFFFFF" stroke-width="1" stroke-linejoin="round" transform="translate(0,0)"></path></g><g class="highcharts-markers" visibility="visible"  transform="translate(10,61) scale(1 1)"></g></g><text x="292" text-anchor="middle" class="highcharts-title"  style="color:#333333;font-size:18px;fill:#333333;width:520px;" y="24"><tspan>Browser market shares. November, 2013.</tspan></text><text x="292" text-anchor="middle" class="highcharts-subtitle"  style="color:#555555;fill:#555555;width:520px;" y="46"><tspan>Click the slices to view versions. Source: netmarketshare.com.</tspan></text><g class="highcharts-data-labels highcharts-tracker" visibility="visible"  transform="translate(10,61) scale(1 1)" style=""><path fill="none" d="M 348.9 183.4 C 343.9 183.4 336.0 182.3 325.1 180.8 L 314.2 179.4" stroke="#7cb5ec" stroke-width="1"></path><path fill="none" d="M 138.2 242.0 C 143.2 242.0 149.3 236.9 157.6 229.8 L 166.0 222.6" stroke="#434348" stroke-width="1"></path><path fill="none" d="M 120.4 122.5 C 125.4 122.5 138.3 114.5 147.8 120.0 L 157.4 125.6" stroke="#90ed7d" stroke-width="1"></path><path fill="none" d="M 133.7 99.5 C 138.7 99.5 202.6 65.1 205.5 75.8 L 208.4 86.4" stroke="#f7a35c" stroke-width="1"></path><path fill="none" d="M 156.6 76.5 C 161.6 76.5 223.3 61.7 224.0 72.7 L 224.8 83.6" stroke="#8085e9" stroke-width="1"></path><path fill="none" d="M 224.4 53.5 C 229.4 53.5 229.5 61.5 229.6 72.5 L 229.7 83.5" stroke="#f15c80" stroke-width="1"></path><g  style="cursor:pointer;" transform="translate(354,173)" class="highcharts-drilldown-data-label"><text x="5"  style="font-size:11px;font-weight:bold;color:#0d233a;text-shadow:0 0 6px contrast, 0 0 3px contrast;fill:#0d233a;text-decoration:underline;" transform="translate(0,16)"><tspan>Microsoft Internet Explorer : 53.6%</tspan></text></g><g  style="cursor:pointer;" transform="translate(38,232)" class="highcharts-drilldown-data-label"><text x="5"  style="font-size:11px;font-weight:bold;color:#0d233a;text-shadow:0 0 6px contrast, 0 0 3px contrast;fill:#0d233a;text-decoration:underline;" transform="translate(0,16)"><tspan>Chrome : 18.7%</tspan></text></g><g  style="cursor:pointer;" transform="translate(25,113)" class="highcharts-drilldown-data-label"><text x="5"  style="font-size:11px;font-weight:bold;color:#0d233a;text-shadow:0 0 6px contrast, 0 0 3px contrast;fill:#0d233a;text-decoration:underline;" transform="translate(0,16)"><tspan>Firefox : 19.9%</tspan></text></g><g  style="cursor:pointer;" transform="translate(52,90)" class="highcharts-drilldown-data-label"><text x="5"  style="font-size:11px;font-weight:bold;color:#0d233a;text-shadow:0 0 6px contrast, 0 0 3px contrast;fill:#0d233a;text-decoration:underline;" transform="translate(0,16)"><tspan>Safari : 4.6%</tspan></text></g><g  style="cursor:pointer;" transform="translate(74,67)" class="highcharts-drilldown-data-label"><text x="5"  style="font-size:11px;font-weight:bold;color:#0d233a;text-shadow:0 0 6px contrast, 0 0 3px contrast;fill:#0d233a;text-decoration:underline;" transform="translate(0,16)"><tspan>Opera : 1.5%</tspan></text></g><g  style="" transform="translate(19,44)"><text x="5"  style="font-size: 11px; font-weight: bold; color: rgb(0, 0, 0); fill: #000000; text-shadow: rgb(255, 255, 255) 0px 0px 6px, rgb(255, 255, 255) 0px 0px 3px; " transform="translate(0,16)"><tspan>Proprietary or Undetectable: 0.3%</tspan></text></g></g><g class="highcharts-legend" ><g ><g></g></g></g><g class="highcharts-tooltip"  style="cursor:default;padding:0;white-space:nowrap;" transform="translate(0,-9999)"><path fill="none" d="M 3 0 L 13 0 C 16 0 16 0 16 3 L 16 13 C 16 16 16 16 13 16 L 3 16 C 0 16 0 16 0 13 L 0 3 C 0 0 0 0 3 0"  stroke="black" stroke-opacity="0.0" stroke-width="5" transform="translate(1, 1)"></path><path fill="none" d="M 3 0 L 13 0 C 16 0 16 0 16 3 L 16 13 C 16 16 16 16 13 16 L 3 16 C 0 16 0 16 0 13 L 0 3 C 0 0 0 0 3 0"  stroke="black" stroke-opacity="0.0" stroke-width="3" transform="translate(1, 1)"></path><path fill="none" d="M 3 0 L 13 0 C 16 0 16 0 16 3 L 16 13 C 16 16 16 16 13 16 L 3 16 C 0 16 0 16 0 13 L 0 3 C 0 0 0 0 3 0"  stroke="black" stroke-opacity="0.1" stroke-width="1" transform="translate(1, 1)"></path><path fill="rgb(249, 249, 249)" fill-opacity=" .85" d="M 3 0 L 13 0 C 16 0 16 0 16 3 L 16 13 C 16 16 16 16 13 16 L 3 16 C 0 16 0 16 0 13 L 0 3 C 0 0 0 0 3 0"></path><text x="8"  style="font-size:12px;color:#333333;fill:#333333;" transform="translate(0,20)"></text></g></svg>