<svg version="1.1" style="font-family:&quot;lucida grande&quot;, &quot;lucida sans unicode&quot;, arial, helvetica, sans-serif;font-size:12px;" xmlns="http://www.w3.org/2000/svg" width="584" height="400" viewBox="0 0 584 400"><desc>Created with Highcharts 4.1.4</desc><defs><clipPath id="highcharts-1"><rect x="0" y="0" width="422" height="280"></rect></clipPath><clipPath id="highcharts-2"><rect x="-99" y="-47" width="521" height="400"></rect></clipPath><clipPath id="highcharts-3"><rect x="0" y="0" width="422" height="280"></rect></clipPath></defs><rect x="0" y="0" width="584" height="400" strokeWidth="0" fill="#FFFFFF" class=" highcharts-background" stroke="transparent"></rect><g class="highcharts-grid" ></g><g class="highcharts-grid" ><path fill="none" d="M 76 327.5 L 498 327.5" stroke="#D8D8D8" stroke-width="1"  opacity="1"></path><path fill="none" d="M 76 257.5 L 498 257.5" stroke="#D8D8D8" stroke-width="1"  opacity="1"></path><path fill="none" d="M 76 187.5 L 498 187.5" stroke="#D8D8D8" stroke-width="1"  opacity="1"></path><path fill="none" d="M 76 117.5 L 498 117.5" stroke="#D8D8D8" stroke-width="1"  opacity="1"></path><path fill="none" d="M 76 46.5 L 498 46.5" stroke="#D8D8D8" stroke-width="1"  opacity="1"></path></g><g class="highcharts-grid" ><path fill="none" d="M 76 327.5 L 498 327.5" stroke="#D8D8D8" stroke-width="1"  opacity="1"></path><path fill="none" d="M 76 257.5 L 498 257.5" stroke="#D8D8D8" stroke-width="1"  opacity="1"></path><path fill="none" d="M 76 187.5 L 498 187.5" stroke="#D8D8D8" stroke-width="1"  opacity="1"></path><path fill="none" d="M 76 117.5 L 498 117.5" stroke="#D8D8D8" stroke-width="1"  opacity="1"></path><path fill="none" d="M 76 46.5 L 498 46.5" stroke="#D8D8D8" stroke-width="1"  opacity="1"></path></g><g class="highcharts-axis" ><path fill="none" d="M 110.5 327 L 110.5 337" stroke="#C0D0E0" stroke-width="1" opacity="1"></path><path fill="none" d="M 145.5 327 L 145.5 337" stroke="#C0D0E0" stroke-width="1" opacity="1"></path><path fill="none" d="M 181.5 327 L 181.5 337" stroke="#C0D0E0" stroke-width="1" opacity="1"></path><path fill="none" d="M 216.5 327 L 216.5 337" stroke="#C0D0E0" stroke-width="1" opacity="1"></path><path fill="none" d="M 251.5 327 L 251.5 337" stroke="#C0D0E0" stroke-width="1" opacity="1"></path><path fill="none" d="M 286.5 327 L 286.5 337" stroke="#C0D0E0" stroke-width="1" opacity="1"></path><path fill="none" d="M 321.5 327 L 321.5 337" stroke="#C0D0E0" stroke-width="1" opacity="1"></path><path fill="none" d="M 356.5 327 L 356.5 337" stroke="#C0D0E0" stroke-width="1" opacity="1"></path><path fill="none" d="M 391.5 327 L 391.5 337" stroke="#C0D0E0" stroke-width="1" opacity="1"></path><path fill="none" d="M 427.5 327 L 427.5 337" stroke="#C0D0E0" stroke-width="1" opacity="1"></path><path fill="none" d="M 462.5 327 L 462.5 337" stroke="#C0D0E0" stroke-width="1" opacity="1"></path><path fill="none" d="M 497.5 327 L 497.5 337" stroke="#C0D0E0" stroke-width="1" opacity="1"></path><path fill="none" d="M 75.5 327 L 75.5 337" stroke="#C0D0E0" stroke-width="1" opacity="1"></path><path fill="none" d="M 76 327.5 L 498 327.5" stroke="#C0D0E0" stroke-width="1"  visibility="visible"></path></g><g class="highcharts-axis" ><text x="24"  text-anchor="middle" transform="translate(0,0) rotate(270 24 187)" class=" highcharts-yaxis-title" style="color:#434348;fill:#434348;" visibility="visible" y="187">Temperature</text></g><g class="highcharts-axis" ><text x="560"  text-anchor="middle" transform="translate(0,0) rotate(90 560 187)" class=" highcharts-yaxis-title" style="color:#7cb5ec;fill:#7cb5ec;" visibility="visible" y="187">Rainfall</text></g><g class="highcharts-series-group" ><g class="highcharts-series highcharts-tracker" visibility="visible"  transform="translate(76,47) scale(1 1)" style="" clip-path="url(#highcharts-1)"><rect x="8.5" y="245.5" width="17" height="35" stroke="#FFFFFF" stroke-width="1" fill="#7cb5ec" rx="0" ry="0"></rect><rect x="43.5" y="230.5" width="17" height="50" stroke="#FFFFFF" stroke-width="1" fill="#7cb5ec" rx="0" ry="0"></rect><rect x="78.5" y="206.5" width="17" height="74" stroke="#FFFFFF" stroke-width="1" fill="#7cb5ec" rx="0" ry="0"></rect><rect x="114.5" y="190.5" width="17" height="90" stroke="#FFFFFF" stroke-width="1" fill="#7cb5ec" rx="0" ry="0"></rect><rect x="149.5" y="179.5" width="17" height="101" stroke="#FFFFFF" stroke-width="1" fill="#7cb5ec" rx="0" ry="0"></rect><rect x="184.5" y="157.5" width="17" height="123" stroke="#FFFFFF" stroke-width="1" fill="#7cb5ec" rx="0" ry="0"></rect><rect x="219.5" y="185.5" width="17" height="95" stroke="#FFFFFF" stroke-width="1" fill="#7cb5ec" rx="0" ry="0"></rect><rect x="254.5" y="176.5" width="17" height="104" stroke="#FFFFFF" stroke-width="1" fill="#7cb5ec" rx="0" ry="0"></rect><rect x="289.5" y="129.5" width="17" height="151" stroke="#FFFFFF" stroke-width="1" fill="#7cb5ec" rx="0" ry="0"></rect><rect x="325.5" y="144.5" width="17" height="136" stroke="#FFFFFF" stroke-width="1" fill="#7cb5ec" rx="0" ry="0"></rect><rect x="360.5" y="213.5" width="17" height="67" stroke="#FFFFFF" stroke-width="1" fill="#7cb5ec" rx="0" ry="0"></rect><rect x="395.5" y="242.5" width="17" height="38" stroke="#FFFFFF" stroke-width="1" fill="#7cb5ec" rx="0" ry="0"></rect></g><g class="highcharts-markers" visibility="visible"  transform="translate(76,47) scale(1 1)"></g><g class="highcharts-series highcharts-tracker" visibility="visible"  transform="translate(76,47) scale(1 1)" style="" clip-path="url(#highcharts-1)"><g><path fill="none" d="M 17.5 246 L 17.5 244 M 17.5 246 L 17.5 246" stroke="#000000" stroke-width="1"></path><path fill="none" d="M 13 244.5 L 22 244.5 M 13 246.5 L 22 246.5" stroke="#000000" stroke-width="1"></path><path fill="none" d="M 0 0" stroke="#000000" stroke-width="2"></path></g><g><path fill="none" d="M 52.5 232 L 52.5 228 M 52.5 232 L 52.5 232" stroke="#000000" stroke-width="1"></path><path fill="none" d="M 48 228.5 L 57 228.5 M 48 232.5 L 57 232.5" stroke="#000000" stroke-width="1"></path><path fill="none" d="M 0 0" stroke="#000000" stroke-width="2"></path></g><g><path fill="none" d="M 87.5 215 L 87.5 203 M 87.5 215 L 87.5 215" stroke="#000000" stroke-width="1"></path><path fill="none" d="M 83 203.5 L 92 203.5 M 83 215.5 L 92 215.5" stroke="#000000" stroke-width="1"></path><path fill="none" d="M 0 0" stroke="#000000" stroke-width="2"></path></g><g><path fill="none" d="M 123.5 190 L 123.5 184 M 123.5 190 L 123.5 190" stroke="#000000" stroke-width="1"></path><path fill="none" d="M 119 184.5 L 128 184.5 M 119 190.5 L 128 190.5" stroke="#000000" stroke-width="1"></path><path fill="none" d="M 0 0" stroke="#000000" stroke-width="2"></path></g><g><path fill="none" d="M 158.5 182 L 158.5 175 M 158.5 182 L 158.5 182" stroke="#000000" stroke-width="1"></path><path fill="none" d="M 154 175.5 L 163 175.5 M 154 182.5 L 163 182.5" stroke="#000000" stroke-width="1"></path><path fill="none" d="M 0 0" stroke="#000000" stroke-width="2"></path></g><g><path fill="none" d="M 193.5 160 L 193.5 154 M 193.5 160 L 193.5 160" stroke="#000000" stroke-width="1"></path><path fill="none" d="M 189 154.5 L 198 154.5 M 189 160.5 L 198 160.5" stroke="#000000" stroke-width="1"></path><path fill="none" d="M 0 0" stroke="#000000" stroke-width="2"></path></g><g><path fill="none" d="M 228.5 185 L 228.5 179 M 228.5 185 L 228.5 185" stroke="#000000" stroke-width="1"></path><path fill="none" d="M 224 179.5 L 233 179.5 M 224 185.5 L 233 185.5" stroke="#000000" stroke-width="1"></path><path fill="none" d="M 0 0" stroke="#000000" stroke-width="2"></path></g><g><path fill="none" d="M 263.5 180 L 263.5 175 M 263.5 180 L 263.5 180" stroke="#000000" stroke-width="1"></path><path fill="none" d="M 259 175.5 L 268 175.5 M 259 180.5 L 268 180.5" stroke="#000000" stroke-width="1"></path><path fill="none" d="M 0 0" stroke="#000000" stroke-width="2"></path></g><g><path fill="none" d="M 298.5 137 L 298.5 126 M 298.5 137 L 298.5 137" stroke="#000000" stroke-width="1"></path><path fill="none" d="M 294 126.5 L 303 126.5 M 294 137.5 L 303 137.5" stroke="#000000" stroke-width="1"></path><path fill="none" d="M 0 0" stroke="#000000" stroke-width="2"></path></g><g><path fill="none" d="M 334.5 147 L 334.5 140 M 334.5 147 L 334.5 147" stroke="#000000" stroke-width="1"></path><path fill="none" d="M 330 140.5 L 339 140.5 M 330 147.5 L 339 147.5" stroke="#000000" stroke-width="1"></path><path fill="none" d="M 0 0" stroke="#000000" stroke-width="2"></path></g><g><path fill="none" d="M 369.5 213 L 369.5 203 M 369.5 213 L 369.5 213" stroke="#000000" stroke-width="1"></path><path fill="none" d="M 365 203.5 L 374 203.5 M 365 213.5 L 374 213.5" stroke="#000000" stroke-width="1"></path><path fill="none" d="M 0 0" stroke="#000000" stroke-width="2"></path></g><g><path fill="none" d="M 404.5 243 L 404.5 240 M 404.5 243 L 404.5 243" stroke="#000000" stroke-width="1"></path><path fill="none" d="M 400 240.5 L 409 240.5 M 400 243.5 L 409 243.5" stroke="#000000" stroke-width="1"></path><path fill="none" d="M 0 0" stroke="#000000" stroke-width="2"></path></g></g><g class="highcharts-markers" visibility="visible"  transform="translate(76,47) scale(1 1)"></g><g class="highcharts-series" visibility="visible"  transform="translate(76,47) scale(1 1)" clip-path="url(#highcharts-3)"><path fill="none" d="M 17.5 231 C 17.5 231 38.6 231.7 52.7 231.7 C 66.8 231.7 73.8 224.1 87.9 213.5 C 101.9 202.8 109.0 190.6 123.0 178.5 C 137.1 166.3 144.1 162.4 158.2 152.6 C 172.3 142.8 179.3 139.2 193.4 129.5 C 207.4 119.6 214.5 110.6 228.5 103.6 C 242.6 96.6 249.6 94.5 263.7 94.5 C 277.8 94.5 284.8 105.4 298.9 116.9 C 312.9 128.3 320.0 138.7 334.0 151.9 C 348.1 165.0 355.1 170.5 369.2 182.7 C 383.3 194.8 404.4 212.8 404.4 212.8" stroke="#434348" stroke-width="2"  stroke-linejoin="round" stroke-linecap="round"></path><path fill="none" d="M 7.5 231 L 17.5 231 C 17.5 231 38.6 231.7 52.7 231.7 C 66.8 231.7 73.8 224.1 87.9 213.5 C 101.9 202.8 109.0 190.6 123.0 178.5 C 137.1 166.3 144.1 162.4 158.2 152.6 C 172.3 142.8 179.3 139.2 193.4 129.5 C 207.4 119.6 214.5 110.6 228.5 103.6 C 242.6 96.6 249.6 94.5 263.7 94.5 C 277.8 94.5 284.8 105.4 298.9 116.9 C 312.9 128.3 320.0 138.7 334.0 151.9 C 348.1 165.0 355.1 170.5 369.2 182.7 C 383.3 194.8 404.4 212.8 404.4 212.8 L 414.4 212.8" stroke-linejoin="round" visibility="visible" stroke="rgb(192,192,192)" stroke-opacity="0.0" stroke-width="22"  class=" highcharts-tracker" style=""></path></g><g class="highcharts-markers highcharts-tracker" visibility="visible"  transform="translate(76,47) scale(1 1)" clip-path="url(#highcharts-2)" style=""><path fill="#434348" d="M 404 208.8 C 409.3 208.8 409.3 216.8 404 216.8 C 398.6 216.8 398.6 208.8 404 208.8 Z"></path><path fill="#434348" d="M 369 178.7 C 374.3 178.7 374.3 186.7 369 186.7 C 363.6 186.7 363.6 178.7 369 178.7 Z"></path><path fill="#434348" d="M 334 147.9 C 339.3 147.9 339.3 155.9 334 155.9 C 328.6 155.9 328.6 147.9 334 147.9 Z"></path><path fill="#434348" d="M 298 112.9 C 303.3 112.9 303.3 120.9 298 120.9 C 292.6 120.9 292.6 112.9 298 112.9 Z"></path><path fill="#434348" d="M 263 90.5 C 268.3 90.5 268.3 98.5 263 98.5 C 257.6 98.5 257.6 90.5 263 90.5 Z"></path><path fill="#434348" d="M 228 99.6 C 233.3 99.6 233.3 107.6 228 107.6 C 222.6 107.6 222.6 99.6 228 99.6 Z"></path><path fill="#434348" d="M 193 125.5 C 198.3 125.5 198.3 133.5 193 133.5 C 187.6 133.5 187.6 125.5 193 125.5 Z"></path><path fill="#434348" d="M 158 148.6 C 163.3 148.6 163.3 156.6 158 156.6 C 152.6 156.6 152.6 148.6 158 148.6 Z"></path><path fill="#434348" d="M 123 174.5 C 128.3 174.5 128.3 182.5 123 182.5 C 117.6 182.5 117.6 174.5 123 174.5 Z"></path><path fill="#434348" d="M 87 209.5 C 92.3 209.5 92.3 217.5 87 217.5 C 81.6 217.5 81.6 209.5 87 209.5 Z"></path><path fill="#434348" d="M 52 227.7 C 57.3 227.7 57.3 235.7 52 235.7 C 46.6 235.7 46.6 227.7 52 227.7 Z"></path><path fill="#434348" d="M 17 227 C 22.3 227 22.3 235 17 235 C 11.6 235 11.6 227 17 227 Z"></path></g><g class="highcharts-series highcharts-tracker" visibility="visible"  transform="translate(76,47) scale(1 1)" style="" clip-path="url(#highcharts-1)"><g><path fill="none" d="M 17.5 238 L 17.5 224 M 17.5 238 L 17.5 238" stroke="#000000" stroke-width="1"></path><path fill="none" d="M 13 224.5 L 22 224.5 M 13 238.5 L 22 238.5" stroke="#000000" stroke-width="1"></path><path fill="none" d="M 0 0" stroke="#000000" stroke-width="2"></path></g><g><path fill="none" d="M 52.5 238 L 52.5 226 M 52.5 238 L 52.5 238" stroke="#000000" stroke-width="1"></path><path fill="none" d="M 48 226.5 L 57 226.5 M 48 238.5 L 57 238.5" stroke="#000000" stroke-width="1"></path><path fill="none" d="M 0 0" stroke="#000000" stroke-width="2"></path></g><g><path fill="none" d="M 87.5 214 L 87.5 207 M 87.5 214 L 87.5 214" stroke="#000000" stroke-width="1"></path><path fill="none" d="M 83 207.5 L 92 207.5 M 83 214.5 L 92 214.5" stroke="#000000" stroke-width="1"></path><path fill="none" d="M 0 0" stroke="#000000" stroke-width="2"></path></g><g><path fill="none" d="M 123.5 181 L 123.5 168 M 123.5 181 L 123.5 181" stroke="#000000" stroke-width="1"></path><path fill="none" d="M 119 168.5 L 128 168.5 M 119 181.5 L 128 181.5" stroke="#000000" stroke-width="1"></path><path fill="none" d="M 0 0" stroke="#000000" stroke-width="2"></path></g><g><path fill="none" d="M 158.5 154 L 158.5 139 M 158.5 154 L 158.5 154" stroke="#000000" stroke-width="1"></path><path fill="none" d="M 154 139.5 L 163 139.5 M 154 154.5 L 163 154.5" stroke="#000000" stroke-width="1"></path><path fill="none" d="M 0 0" stroke="#000000" stroke-width="2"></path></g><g><path fill="none" d="M 193.5 133 L 193.5 112 M 193.5 133 L 193.5 133" stroke="#000000" stroke-width="1"></path><path fill="none" d="M 189 112.5 L 198 112.5 M 189 133.5 L 198 133.5" stroke="#000000" stroke-width="1"></path><path fill="none" d="M 0 0" stroke="#000000" stroke-width="2"></path></g><g><path fill="none" d="M 228.5 117 L 228.5 102 M 228.5 117 L 228.5 117" stroke="#000000" stroke-width="1"></path><path fill="none" d="M 224 102.5 L 233 102.5 M 224 117.5 L 233 117.5" stroke="#000000" stroke-width="1"></path><path fill="none" d="M 0 0" stroke="#000000" stroke-width="2"></path></g><g><path fill="none" d="M 263.5 97 L 263.5 85 M 263.5 97 L 263.5 97" stroke="#000000" stroke-width="1"></path><path fill="none" d="M 259 85.5 L 268 85.5 M 259 97.5 L 268 97.5" stroke="#000000" stroke-width="1"></path><path fill="none" d="M 0 0" stroke="#000000" stroke-width="2"></path></g><g><path fill="none" d="M 298.5 117 L 298.5 112 M 298.5 117 L 298.5 117" stroke="#000000" stroke-width="1"></path><path fill="none" d="M 294 112.5 L 303 112.5 M 294 117.5 L 303 117.5" stroke="#000000" stroke-width="1"></path><path fill="none" d="M 0 0" stroke="#000000" stroke-width="2"></path></g><g><path fill="none" d="M 334.5 154 L 334.5 132 M 334.5 154 L 334.5 154" stroke="#000000" stroke-width="1"></path><path fill="none" d="M 330 132.5 L 339 132.5 M 330 154.5 L 339 154.5" stroke="#000000" stroke-width="1"></path><path fill="none" d="M 0 0" stroke="#000000" stroke-width="2"></path></g><g><path fill="none" d="M 369.5 189 L 369.5 182 M 369.5 189 L 369.5 189" stroke="#000000" stroke-width="1"></path><path fill="none" d="M 365 182.5 L 374 182.5 M 365 189.5 L 374 189.5" stroke="#000000" stroke-width="1"></path><path fill="none" d="M 0 0" stroke="#000000" stroke-width="2"></path></g><g><path fill="none" d="M 404.5 226 L 404.5 210 M 404.5 226 L 404.5 226" stroke="#000000" stroke-width="1"></path><path fill="none" d="M 400 210.5 L 409 210.5 M 400 226.5 L 409 226.5" stroke="#000000" stroke-width="1"></path><path fill="none" d="M 0 0" stroke="#000000" stroke-width="2"></path></g></g><g class="highcharts-markers" visibility="visible"  transform="translate(76,47) scale(1 1)"></g></g><text x="292" text-anchor="middle" class="highcharts-title"  style="color:#333333;font-size:18px;fill:#333333;width:520px;" y="24"><tspan>Temperature vs Rainfall</tspan></text><g class="highcharts-legend"  transform="translate(192,360)"><g ><g><g class="highcharts-legend-item"  transform="translate(8,3)"><text x="21" style="color:#333333;font-size:12px;font-weight:bold;cursor:pointer;fill:#333333;" text-anchor="start"  y="15">Rainfall</text><rect x="0" y="4" width="16" height="12"  fill="#7cb5ec"></rect></g><g class="highcharts-legend-item"  transform="translate(94,3)"><path fill="none" d="M 0 11 L 16 11" stroke="#434348" stroke-width="2"></path><path fill="#434348" d="M 8 7 C 13.3 7 13.3 15 8 15 C 2.6 15 2.6 7 8 7 Z"></path><text x="21" y="15" style="color:#333333;font-size:12px;font-weight:bold;cursor:pointer;fill:#333333;" text-anchor="start" >Temperature</text></g></g></g></g><g class="highcharts-axis-labels highcharts-xaxis-labels" ><text x="93.5" style="color:#606060;cursor:default;font-size:11px;fill:#606060;" text-anchor="middle" transform="translate(0,0)" y="346" opacity="1">Jan</text><text x="128.7" style="color:#606060;cursor:default;font-size:11px;fill:#606060;" text-anchor="middle" transform="translate(0,0)" y="346" opacity="1">Feb</text><text x="163.9" style="color:#606060;cursor:default;font-size:11px;fill:#606060;" text-anchor="middle" transform="translate(0,0)" y="346" opacity="1">Mar</text><text x="199.0" style="color:#606060;cursor:default;font-size:11px;fill:#606060;" text-anchor="middle" transform="translate(0,0)" y="346" opacity="1">Apr</text><text x="234.2" style="color:#606060;cursor:default;font-size:11px;fill:#606060;" text-anchor="middle" transform="translate(0,0)" y="346" opacity="1">May</text><text x="269.4" style="color:#606060;cursor:default;font-size:11px;fill:#606060;" text-anchor="middle" transform="translate(0,0)" y="346" opacity="1">Jun</text><text x="304.5" style="color:#606060;cursor:default;font-size:11px;fill:#606060;" text-anchor="middle" transform="translate(0,0)" y="346" opacity="1">Jul</text><text x="339.7" style="color:#606060;cursor:default;font-size:11px;fill:#606060;" text-anchor="middle" transform="translate(0,0)" y="346" opacity="1">Aug</text><text x="374.9" style="color:#606060;cursor:default;font-size:11px;fill:#606060;" text-anchor="middle" transform="translate(0,0)" y="346" opacity="1">Sep</text><text x="410.0" style="color:#606060;cursor:default;font-size:11px;fill:#606060;" text-anchor="middle" transform="translate(0,0)" y="346" opacity="1">Oct</text><text x="445.2" style="color:#606060;cursor:default;font-size:11px;fill:#606060;" text-anchor="middle" transform="translate(0,0)" y="346" opacity="1">Nov</text><text x="480.4" style="color:#606060;cursor:default;font-size:11px;fill:#606060;" text-anchor="middle" transform="translate(0,0)" y="346" opacity="1">Dec</text></g><g class="highcharts-axis-labels highcharts-yaxis-labels" ><text x="61" style="color:#434348;cursor:default;font-size:11px;fill:#434348;width:183px;text-overflow:clip;" text-anchor="end" transform="translate(0,0)" y="332" opacity="1"><tspan>0 °C</tspan></text><text x="61" style="color:#434348;cursor:default;font-size:11px;fill:#434348;width:183px;text-overflow:clip;" text-anchor="end" transform="translate(0,0)" y="262" opacity="1"><tspan>10 °C</tspan></text><text x="61" style="color:#434348;cursor:default;font-size:11px;fill:#434348;width:183px;text-overflow:clip;" text-anchor="end" transform="translate(0,0)" y="192" opacity="1"><tspan>20 °C</tspan></text><text x="61" style="color:#434348;cursor:default;font-size:11px;fill:#434348;width:183px;text-overflow:clip;" text-anchor="end" transform="translate(0,0)" y="122" opacity="1"><tspan>30 °C</tspan></text><text x="61" style="color:#434348;cursor:default;font-size:11px;fill:#434348;width:183px;text-overflow:clip;" text-anchor="end" transform="translate(0,0)" y="52" opacity="1"><tspan>40 °C</tspan></text></g><g class="highcharts-axis-labels highcharts-yaxis-labels" ><text x="513" style="color:#7cb5ec;cursor:default;font-size:11px;fill:#7cb5ec;width:183px;text-overflow:clip;" text-anchor="start" transform="translate(0,0)" y="332" opacity="1"><tspan>0 mm</tspan></text><text x="513" style="color:#7cb5ec;cursor:default;font-size:11px;fill:#7cb5ec;width:183px;text-overflow:clip;" text-anchor="start" transform="translate(0,0)" y="262" opacity="1"><tspan>100 mm</tspan></text><text x="513" style="color:#7cb5ec;cursor:default;font-size:11px;fill:#7cb5ec;width:183px;text-overflow:clip;" text-anchor="start" transform="translate(0,0)" y="192" opacity="1"><tspan>200 mm</tspan></text><text x="513" style="color:#7cb5ec;cursor:default;font-size:11px;fill:#7cb5ec;width:183px;text-overflow:clip;" text-anchor="start" transform="translate(0,0)" y="122" opacity="1"><tspan>300 mm</tspan></text><text x="513" style="color:#7cb5ec;cursor:default;font-size:11px;fill:#7cb5ec;width:183px;text-overflow:clip;" text-anchor="start" transform="translate(0,0)" y="52" opacity="1"><tspan>400 mm</tspan></text></g><g class="highcharts-tooltip"  style="cursor:default;padding:0;white-space:nowrap;" transform="translate(0,-9999)"><path fill="none" d="M 3 0 L 13 0 C 16 0 16 0 16 3 L 16 13 C 16 16 16 16 13 16 L 3 16 C 0 16 0 16 0 13 L 0 3 C 0 0 0 0 3 0"  stroke="black" stroke-opacity="0.0" stroke-width="5" transform="translate(1, 1)"></path><path fill="none" d="M 3 0 L 13 0 C 16 0 16 0 16 3 L 16 13 C 16 16 16 16 13 16 L 3 16 C 0 16 0 16 0 13 L 0 3 C 0 0 0 0 3 0"  stroke="black" stroke-opacity="0.0" stroke-width="3" transform="translate(1, 1)"></path><path fill="none" d="M 3 0 L 13 0 C 16 0 16 0 16 3 L 16 13 C 16 16 16 16 13 16 L 3 16 C 0 16 0 16 0 13 L 0 3 C 0 0 0 0 3 0"  stroke="black" stroke-opacity="0.1" stroke-width="1" transform="translate(1, 1)"></path><path fill="rgb(249, 249, 249)" fill-opacity=" .85" d="M 3 0 L 13 0 C 16 0 16 0 16 3 L 16 13 C 16 16 16 16 13 16 L 3 16 C 0 16 0 16 0 13 L 0 3 C 0 0 0 0 3 0"></path><text x="8"  style="font-size:12px;color:#333333;fill:#333333;" transform="translate(0,20)"></text></g></svg>