<svg version="1.1" style="font-family:&quot;lucida grande&quot;, &quot;lucida sans unicode&quot;, arial, helvetica, sans-serif;font-size:12px;" xmlns="http://www.w3.org/2000/svg" width="584" height="400" viewBox="0 0 584 400"><desc>Created with Highcharts 4.1.4</desc><defs><clipPath id="highcharts-1"><rect x="0" y="0" width="409" height="338"></rect></clipPath></defs><rect x="0" y="0" width="584" height="400" strokeWidth="0" fill="#FFFFFF" class=" highcharts-background" stroke="transparent"></rect><g class="highcharts-grid" ><path fill="none" d="M 214.5 216 L 214.5 80.8" stroke="#D8D8D8" stroke-width="1"  opacity="1"></path><path fill="none" d="M 214.5 216 L 331.5 148.4" stroke="#D8D8D8" stroke-width="1"  opacity="1"></path><path fill="none" d="M 214.5 216 L 331.5 283.5" stroke="#D8D8D8" stroke-width="1"  opacity="1"></path><path fill="none" d="M 214.5 216 L 214.5 351.2" stroke="#D8D8D8" stroke-width="1"  opacity="1"></path><path fill="none" d="M 214.5 216 L 97.4 283.6" stroke="#D8D8D8" stroke-width="1"  opacity="1"></path><path fill="none" d="M 214.5 216 L 97.4 148.4" stroke="#D8D8D8" stroke-width="1"  opacity="1"></path><path fill="none" d="M 214.5 216 L 214.4 80.8" stroke="#D8D8D8" stroke-width="1"  opacity="1"></path></g><g class="highcharts-grid" ><path fill="none" d="M 214.5 216 L 214.5 216 L 214.5 216 L 214.5 216 L 214.5 216 L 214.5 216 L 214.5 216 L 214.5 216" stroke="#D8D8D8" stroke-width="1"  opacity="1"></path><path fill="none" d="M 214.5 170.9 L 214.5 170.9 L 175.4 193.4 L 175.4 238.5 L 214.5 261.0 L 253.5 238.5 L 253.5 193.4 L 214.5 170.9" stroke="#D8D8D8" stroke-width="1"  opacity="1"></path><path fill="none" d="M 214.5 125.8 L 214.4 125.8 L 136.4 170.9 L 136.4 261.0 L 214.5 306.1 L 292.5 261.0 L 292.5 170.9 L 214.5 125.8" stroke="#D8D8D8" stroke-width="1"  opacity="1"></path><path fill="none" d="M 214.5 80.8 L 214.4 80.8 L 97.4 148.4 L 97.4 283.6 L 214.5 351.2 L 331.5 283.5 L 331.5 148.4 L 214.5 80.8" stroke="#D8D8D8" stroke-width="1"  opacity="1"></path></g><g class="highcharts-axis" ></g><g class="highcharts-axis" ></g><g class="highcharts-series-group" ><g class="highcharts-series" visibility="visible"  transform="translate(10,47) scale(1 1)" clip-path="url(#highcharts-1)"><path fill="none" d="M 204.5 91.4 L 234.1 151.8 L 298.1 223.0 L 204.5 232.0 L 177.9 184.3 L 188.8 159.9 L 204.5 91.4" stroke="#7cb5ec" stroke-width="2"  stroke-linejoin="round" stroke-linecap="round"></path><path fill="none" d="M 194.5 91.4 L 204.5 91.4 L 234.1 151.8 L 298.1 223.0 L 204.5 232.0 L 177.9 184.3 L 188.8 159.9 L 204.5 91.4 L 214.5 91.4" stroke-linejoin="round" visibility="visible" stroke="rgb(192,192,192)" stroke-opacity="0.0" stroke-width="22"  class=" highcharts-tracker" style=""></path></g><g class="highcharts-markers highcharts-tracker" visibility="visible"  transform="translate(10,47) scale(1 1)" style=""><path fill="#7cb5ec" d="M 188 155.9 C 193.3 155.9 193.3 163.9 188 163.9 C 182.6 163.9 182.6 155.9 188 155.9 Z"></path><path fill="#7cb5ec" d="M 177 180.3 C 182.3 180.3 182.3 188.3 177 188.3 C 171.6 188.3 171.6 180.3 177 180.3 Z"></path><path fill="#7cb5ec" d="M 204 228.0 C 209.3 228.0 209.3 236.0 204 236.0 C 198.6 236.0 198.6 228.0 204 228.0 Z"></path><path fill="#7cb5ec" d="M 298 219.0 C 303.3 219.0 303.3 227.0 298 227.0 C 292.6 227.0 292.6 219.0 298 219.0 Z"></path><path fill="#7cb5ec" d="M 234 147.8 C 239.3 147.8 239.3 155.8 234 155.8 C 228.6 155.8 228.6 147.8 234 147.8 Z"></path><path fill="#7cb5ec" d="M 204 87.4 C 209.3 87.4 209.3 95.4 204 95.4 C 198.6 95.4 198.6 87.4 204 87.4 Z"></path></g><g class="highcharts-series" visibility="visible"  transform="translate(10,47) scale(1 1)" clip-path="url(#highcharts-1)"><path fill="none" d="M 204.5 78.8 L 265.3 133.8 L 270.0 206.8 L 204.5 224.8 L 163.9 192.4 L 182.6 156.3 L 204.5 78.8" stroke="#434348" stroke-width="2"  stroke-linejoin="round" stroke-linecap="round"></path><path fill="none" d="M 194.5 78.8 L 204.5 78.8 L 265.3 133.8 L 270.0 206.8 L 204.5 224.8 L 163.9 192.4 L 182.6 156.3 L 204.5 78.8 L 214.5 78.8" stroke-linejoin="round" visibility="visible" stroke="rgb(192,192,192)" stroke-opacity="0.0" stroke-width="22"  class=" highcharts-tracker" style=""></path></g><g class="highcharts-markers highcharts-tracker" visibility="visible"  transform="translate(10,47) scale(1 1)" style=""><path fill="#434348" d="M 182 152.3 L 186 156.3 182 160.3 178 156.3 Z"></path><path fill="#434348" d="M 163 188.4 L 167 192.4 163 196.4 159 192.4 Z"></path><path fill="#434348" d="M 204 220.8 L 208 224.8 204 228.8 200 224.8 Z"></path><path fill="#434348" d="M 270 202.8 L 274 206.8 270 210.8 266 206.8 Z"></path><path fill="#434348" d="M 265 129.8 L 269 133.8 265 137.8 261 133.8 Z"></path><path fill="#434348" d="M 204 74.8 L 208 78.8 204 82.8 200 78.8 Z"></path></g></g><text x="212" text-anchor="middle" class="highcharts-title"  style="color:#333333;font-size:18px;fill:#333333;width:520px;" y="24"><tspan>Budget vs spending</tspan></text><g class="highcharts-legend"  transform="translate(431,80)"><g ><g><g class="highcharts-legend-item"  transform="translate(8,3)"><path fill="none" d="M 0 11 L 16 11" stroke="#7cb5ec" stroke-width="2"></path><path fill="#7cb5ec" d="M 8 7 C 13.3 7 13.3 15 8 15 C 2.6 15 2.6 7 8 7 Z"></path><text x="21" style="color:#333333;font-size:12px;font-weight:bold;cursor:pointer;fill:#333333;" text-anchor="start"  y="15"><tspan>Allocated Budget</tspan></text></g><g class="highcharts-legend-item"  transform="translate(8,17)"><path fill="none" d="M 0 11 L 16 11" stroke="#434348" stroke-width="2"></path><path fill="#434348" d="M 8 7 L 12 11 8 15 4 11 Z"></path><text x="21" y="15" style="color:#333333;font-size:12px;font-weight:bold;cursor:pointer;fill:#333333;" text-anchor="start" ><tspan>Actual Spending</tspan></text></g></g></g></g><g class="highcharts-axis-labels highcharts-xaxis-labels" ><text x="214.5" style="color:#606060;cursor:default;font-size:11px;fill:#606060;width:48px;text-overflow:clip;" text-anchor="middle" transform="translate(0,0)" y="70.3" opacity="1">Sales</text><text x="344.5" style="color:#606060;cursor:default;font-size:11px;fill:#606060;width:48px;text-overflow:clip;" text-anchor="start" transform="translate(0,0)" y="145.4" opacity="1">Marketing</text><text x="344.5" style="color:#606060;cursor:default;font-size:11px;fill:#606060;width:48px;text-overflow:clip;" text-anchor="start" transform="translate(0,0)" y="295.5" opacity="1">Development</text><text x="214.5" style="color:#606060;cursor:default;font-size:11px;fill:#606060;width:48px;text-overflow:clip;" text-anchor="middle" transform="translate(0,0)" y="363.7" opacity="1"><tspan>Customer</tspan><tspan dy="14" x="214.5">Support</tspan><title>Customer Support</title></text><text x="84.4" style="color:#606060;cursor:default;font-size:11px;fill:#606060;width:48px;text-overflow:clip;" text-anchor="end" transform="translate(0,0)" y="288.6" opacity="1"><tspan>Information</tspan><tspan dy="14" x="84.4">Technology</tspan><title>Information Technology</title></text><text x="84.4" style="color:#606060;cursor:default;font-size:11px;fill:#606060;width:48px;text-overflow:clip;" text-anchor="end" transform="translate(0,0)" y="145.4" opacity="1">Administration</text><text x="0" style="color:#606060;cursor:default;font-size:11px;fill:#606060;width:48px;text-overflow:clip;" text-anchor="middle" transform="translate(0,0)" y="-9999">6</text></g><g class="highcharts-axis-labels highcharts-yaxis-labels" ><text x="211.5" style="color:#606060;cursor:default;font-size:11px;fill:#606060;width:183px;text-overflow:clip;" text-anchor="end" transform="translate(0,0)" y="214" opacity="1">0k</text><text x="211.5" style="color:#606060;cursor:default;font-size:11px;fill:#606060;width:183px;text-overflow:clip;" text-anchor="end" transform="translate(0,0)" y="168.9" opacity="1">25k</text><text x="211.5" style="color:#606060;cursor:default;font-size:11px;fill:#606060;width:183px;text-overflow:clip;" text-anchor="end" transform="translate(0,0)" y="123.8" opacity="1">50k</text><text x="0" style="color:#606060;cursor:default;font-size:11px;fill:#606060;width:183px;text-overflow:clip;" text-anchor="end" transform="translate(0,0)" y="-9999">75k</text></g><g class="highcharts-tooltip"  style="cursor:default;padding:0;white-space:nowrap;" transform="translate(0,-9999)"><path fill="none" d="M 3 0 L 13 0 C 16 0 16 0 16 3 L 16 13 C 16 16 16 16 13 16 L 3 16 C 0 16 0 16 0 13 L 0 3 C 0 0 0 0 3 0"  stroke="black" stroke-opacity="0.0" stroke-width="5" transform="translate(1, 1)"></path><path fill="none" d="M 3 0 L 13 0 C 16 0 16 0 16 3 L 16 13 C 16 16 16 16 13 16 L 3 16 C 0 16 0 16 0 13 L 0 3 C 0 0 0 0 3 0"  stroke="black" stroke-opacity="0.0" stroke-width="3" transform="translate(1, 1)"></path><path fill="none" d="M 3 0 L 13 0 C 16 0 16 0 16 3 L 16 13 C 16 16 16 16 13 16 L 3 16 C 0 16 0 16 0 13 L 0 3 C 0 0 0 0 3 0"  stroke="black" stroke-opacity="0.1" stroke-width="1" transform="translate(1, 1)"></path><path fill="rgb(249, 249, 249)" fill-opacity=" .85" d="M 3 0 L 13 0 C 16 0 16 0 16 3 L 16 13 C 16 16 16 16 13 16 L 3 16 C 0 16 0 16 0 13 L 0 3 C 0 0 0 0 3 0"></path><text x="8"  style="font-size:12px;color:#333333;fill:#333333;" transform="translate(0,20)"></text></g></svg>