<svg version="1.1" style="font-family:&quot;lucida grande&quot;, &quot;lucida sans unicode&quot;, arial, helvetica, sans-serif;font-size:12px;" xmlns="http://www.w3.org/2000/svg" width="584" height="400" viewBox="0 0 584 400"><desc>Created with Highcharts 4.1.4</desc><defs><clipPath id="highcharts-1"><rect x="0" y="0" width="453" height="324"></rect></clipPath></defs><rect x="0" y="0" width="584" height="400" strokeWidth="0" fill="#FFFFFF" class=" highcharts-background" stroke="transparent"></rect><g class="highcharts-grid" ><path fill="none" d="M 236.5 223 L 236.5 85.3" stroke="#D8D8D8" stroke-width="1"  opacity="1"></path><path fill="none" d="M 236.5 223 L 289.1 95.7" stroke="#D8D8D8" stroke-width="1"  opacity="1"></path><path fill="none" d="M 236.5 223 L 333.8 125.6" stroke="#D8D8D8" stroke-width="1"  opacity="1"></path><path fill="none" d="M 236.5 223 L 363.7 170.3" stroke="#D8D8D8" stroke-width="1"  opacity="1"></path><path fill="none" d="M 236.5 223 L 374.2 223" stroke="#D8D8D8" stroke-width="1"  opacity="1"></path><path fill="none" d="M 236.5 223 L 363.7 275.6" stroke="#D8D8D8" stroke-width="1"  opacity="1"></path><path fill="none" d="M 236.5 223 L 333.8 320.3" stroke="#D8D8D8" stroke-width="1"  opacity="1"></path><path fill="none" d="M 236.5 223 L 289.1 350.2" stroke="#D8D8D8" stroke-width="1"  opacity="1"></path><path fill="none" d="M 236.5 223 L 236.5 360.7" stroke="#D8D8D8" stroke-width="1"  opacity="1"></path><path fill="none" d="M 236.5 223 L 183.8 350.2" stroke="#D8D8D8" stroke-width="1"  opacity="1"></path><path fill="none" d="M 236.5 223 L 139.1 320.3" stroke="#D8D8D8" stroke-width="1"  opacity="1"></path><path fill="none" d="M 236.5 223 L 109.2 275.6" stroke="#D8D8D8" stroke-width="1"  opacity="1"></path><path fill="none" d="M 236.5 223 L 98.8 223.0" stroke="#D8D8D8" stroke-width="1"  opacity="1"></path><path fill="none" d="M 236.5 223 L 109.2 170.3" stroke="#D8D8D8" stroke-width="1"  opacity="1"></path><path fill="none" d="M 236.5 223 L 139.1 125.6" stroke="#D8D8D8" stroke-width="1"  opacity="1"></path><path fill="none" d="M 236.5 223 L 183.8 95.7" stroke="#D8D8D8" stroke-width="1"  opacity="1"></path><path fill="none" d="M 236.5 223 L 236.4 85.3" stroke="#D8D8D8" stroke-width="1"  opacity="1"></path></g><g class="highcharts-grid" ><path fill="none" stroke="#D8D8D8" stroke-width="1" ></path><path fill="none" d="M 236.5 165.6 A 57.3 57.3 0 1 1 236.4 165.6 M 236.5 223 A 0 0 0 1 0 236.5 223 " stroke="#D8D8D8" stroke-width="1"  opacity="1"></path><path fill="none" d="M 236.5 108.3 A 114.6 114.6 0 1 1 236.3 108.3 M 236.5 223 A 0 0 0 1 0 236.5 223 " stroke="#D8D8D8" stroke-width="1"  opacity="1"></path></g><g class="highcharts-axis" ><path fill="none" d="M 236.5 85.3 A 137.7 137.7 0 1 1 236.3 85.3 M 236.5 223 A 0 0 0 1 0 236.5 223 " stroke="#C0D0E0" stroke-width="1"  visibility="visible"></path></g><g class="highcharts-axis" ><text x="240.5"  text-anchor="middle" transform="translate(0,0) rotate(90 240.5 154.1)" class=" highcharts-yaxis-title" style="color:#707070;fill:#707070;" visibility="visible" y="154.1"><tspan>Frequency (%)</tspan></text></g><g class="highcharts-series-group" ><g class="highcharts-series highcharts-tracker" visibility="visible"  transform="translate(10,61) scale(1 1)" style="" clip-path="url(#highcharts-1)"><path fill="#7cb5ec" d="M 223.2 141.5 A 20.7 20.7 0 0 1 229.7 141.5 L 226.5 162 A 0 0 0 0 0 226.5 162 Z" r="0"></path><path fill="#7cb5ec" d="M 228.1 155.0 A 7.1 7.1 0 0 1 230.2 155.9 L 226.5 162 A 0 0 0 0 0 226.5 162 Z" r="0"></path><path fill="#7cb5ec" d="M 232.0 154.3 A 9.4 9.4 0 0 1 234.0 156.4 L 226.5 162 A 0 0 0 0 0 226.5 162 Z" r="0"></path><path fill="#7cb5ec" d="M 232.2 158.4 A 6.7 6.7 0 0 1 233.0 160.4 L 226.5 162 A 0 0 0 0 0 226.5 162 Z" r="0"></path><path fill="#7cb5ec" d="M 233.5 160.8 A 7.1 7.1 0 0 1 233.5 163.1 L 226.5 162 A 0 0 0 0 0 226.5 162 Z" r="0"></path><path fill="#7cb5ec" d="M 240.0 165.2 A 13.9 13.9 0 0 1 238.4 169.2 L 226.5 162 A 0 0 0 0 0 226.5 162 Z" r="0"></path><path fill="#7cb5ec" d="M 241.4 172.8 A 18.4 18.4 0 0 1 237.3 176.9 L 226.5 162 A 0 0 0 0 0 226.5 162 Z" r="0"></path><path fill="#7cb5ec" d="M 238.7 181.9 A 23.3 23.3 0 0 1 231.9 184.7 L 226.5 162 A 0 0 0 0 0 226.5 162 Z" r="0"></path><path fill="#7cb5ec" d="M 231.2 192.1 A 30.4 30.4 0 0 1 221.7 192.1 L 226.5 162 A 0 0 0 0 0 226.5 162 Z" r="0"></path><path fill="#7cb5ec" d="M 218.5 194.9 A 33.9 33.9 0 0 1 208.7 190.9 L 226.5 162 A 0 0 0 0 0 226.5 162 Z" r="0"></path><path fill="#7cb5ec" d="M 209.4 185.4 A 29.0 29.0 0 0 1 203.0 179.0 L 226.5 162 A 0 0 0 0 0 226.5 162 Z" r="0"></path><path fill="#7cb5ec" d="M 207.2 173.7 A 22.5 22.5 0 0 1 204.5 167.2 L 226.5 162 A 0 0 0 0 0 226.5 162 Z" r="0"></path><path fill="#7cb5ec" d="M 207.9 164.9 A 18.8 18.8 0 0 1 207.9 159.0 L 226.5 162 A 0 0 0 0 0 226.5 162 Z" r="0"></path><path fill="#7cb5ec" d="M 211.7 158.4 A 15.1 15.1 0 0 1 213.5 154.1 L 226.5 162 A 0 0 0 0 0 226.5 162 Z" r="0"></path><path fill="#7cb5ec" d="M 211.8 151.3 A 18.1 18.1 0 0 1 215.8 147.3 L 226.5 162 A 0 0 0 0 0 226.5 162 Z" r="0"></path><path fill="#7cb5ec" d="M 217.4 147.2 A 17.3 17.3 0 0 1 222.4 145.1 L 226.5 162 A 0 0 0 0 0 226.5 162 Z" r="0"></path></g><g class="highcharts-markers" visibility="visible"  transform="translate(10,61) scale(1 1)"></g><g class="highcharts-series highcharts-tracker" visibility="visible"  transform="translate(10,61) scale(1 1)" style="" clip-path="url(#highcharts-1)"><path fill="#434348" d="M 220.0 121.3 A 41.1 41.1 0 0 1 232.8 121.3 L 229.7 141.5 A 20.7 20.7 0 0 0 223.2 141.5 Z" r="0"></path><path fill="#434348" d="M 231.0 142.9 A 19.6 19.6 0 0 1 236.7 145.2 L 230.2 155.9 A 7.1 7.1 0 0 0 228.1 155.0 Z" r="0"></path><path fill="#434348" d="M 237.5 146.7 A 18.8 18.8 0 0 1 241.6 150.9 L 234.0 156.4 A 9.4 9.4 0 0 0 232.0 154.3 Z" r="0"></path><path fill="#434348" d="M 244.1 151.1 A 20.7 20.7 0 0 1 246.6 157.1 L 233.0 160.4 A 6.7 6.7 0 0 0 232.2 158.4 Z" r="0"></path><path fill="#434348" d="M 258.4 156.9 A 32.3 32.3 0 0 1 258.4 167.0 L 233.5 163.1 A 7.1 7.1 0 0 0 233.5 160.8 Z" r="0"></path><path fill="#434348" d="M 262.5 170.6 A 37.0 37.0 0 0 1 258.0 181.3 L 238.4 169.2 A 13.9 13.9 0 0 0 240.0 165.2 Z" r="0"></path><path fill="#434348" d="M 269.8 193.4 A 53.5 53.5 0 0 1 258.0 205.2 L 237.3 176.9 A 18.4 18.4 0 0 0 241.4 172.8 Z" r="0"></path><path fill="#434348" d="M 259.2 215.3 A 62.5 62.5 0 0 1 241.1 222.8 L 231.9 184.7 A 23.3 23.3 0 0 0 238.7 181.9 Z" r="0"></path><path fill="#434348" d="M 239.7 245.7 A 84.8 84.8 0 0 1 213.3 245.7 L 221.7 192.1 A 30.4 30.4 0 0 0 231.2 192.1 Z" r="0"></path><path fill="#434348" d="M 207.4 241.1 A 81.3 81.3 0 0 1 184.0 231.4 L 208.7 190.9 A 33.9 33.9 0 0 0 218.5 194.9 Z" r="0"></path><path fill="#434348" d="M 182.4 222.6 A 74.9 74.9 0 0 1 165.8 206.1 L 203.0 179.0 A 29.0 29.0 0 0 0 209.4 185.4 Z" r="0"></path><path fill="#434348" d="M 181.2 189.7 A 53.0 53.0 0 0 1 174.9 174.4 L 204.5 167.2 A 22.5 22.5 0 0 0 207.2 173.7 Z" r="0"></path><path fill="#434348" d="M 188.5 168.0 A 38.4 38.4 0 0 1 188.5 156.0 L 207.9 159.0 A 18.8 18.8 0 0 0 207.9 164.9 Z" r="0"></path><path fill="#434348" d="M 185.0 152.0 A 42.6 42.6 0 0 1 190.1 139.7 L 213.5 154.1 A 15.1 15.1 0 0 0 211.7 158.4 Z" r="0"></path><path fill="#434348" d="M 172.1 122.5 A 67.1 67.1 0 0 1 186.9 107.6 L 215.8 147.3 A 18.1 18.1 0 0 0 211.8 151.3 Z" r="0"></path><path fill="#434348" d="M 187.5 98.3 A 74.6 74.6 0 0 1 209.0 89.4 L 222.4 145.1 A 17.3 17.3 0 0 0 217.4 147.2 Z" r="0"></path></g><g class="highcharts-markers" visibility="visible"  transform="translate(10,61) scale(1 1)"></g><g class="highcharts-series highcharts-tracker" visibility="visible"  transform="translate(10,61) scale(1 1)" style="" clip-path="url(#highcharts-1)"><path fill="#90ed7d" d="M 219.7 119.5 A 42.9 42.9 0 0 1 233.1 119.5 L 232.8 121.3 A 41.1 41.1 0 0 0 220.0 121.3 Z" r="0"></path><path fill="#90ed7d" d="M 231.0 142.9 A 19.6 19.6 0 0 1 236.7 145.2 L 236.7 145.2 A 19.6 19.6 0 0 0 231.0 142.9 Z" r="0"></path><path fill="#90ed7d" d="M 238.0 146.1 A 19.6 19.6 0 0 1 242.3 150.4 L 241.6 150.9 A 18.8 18.8 0 0 0 237.5 146.7 Z" r="0"></path><path fill="#90ed7d" d="M 244.8 150.7 A 21.5 21.5 0 0 1 247.4 156.9 L 246.6 157.1 A 20.7 20.7 0 0 0 244.1 151.1 Z" r="0"></path><path fill="#90ed7d" d="M 263.9 156.0 A 37.9 37.9 0 0 1 263.9 167.8 L 258.4 167.0 A 32.3 32.3 0 0 0 258.4 156.9 Z" r="0"></path><path fill="#90ed7d" d="M 279.7 174.7 A 54.7 54.7 0 0 1 273.2 190.5 L 258.0 181.3 A 37.0 37.0 0 0 0 262.5 170.6 Z" r="0"></path><path fill="#90ed7d" d="M 291.7 209.4 A 80.7 80.7 0 0 1 274.0 227.2 L 258.0 205.2 A 53.5 53.5 0 0 0 269.8 193.4 Z" r="0"></path><path fill="#90ed7d" d="M 271.0 234.6 A 85.1 85.1 0 0 1 246.4 244.8 L 241.1 222.8 A 62.5 62.5 0 0 0 259.2 215.3 Z" r="0"></path><path fill="#90ed7d" d="M 240.5 250.6 A 89.7 89.7 0 0 1 212.5 250.6 L 213.3 245.7 A 84.8 84.8 0 0 0 239.7 245.7 Z" r="0"></path><path fill="#90ed7d" d="M 206.8 244.0 A 84.3 84.3 0 0 1 182.4 233.9 L 184.0 231.4 A 81.3 81.3 0 0 0 207.4 241.1 Z" r="0"></path><path fill="#90ed7d" d="M 174.2 233.9 A 88.9 88.9 0 0 1 154.5 214.3 L 165.8 206.1 A 74.9 74.9 0 0 0 182.4 222.6 Z" r="0"></path><path fill="#90ed7d" d="M 161.9 201.5 A 75.6 75.6 0 0 1 152.9 179.7 L 174.9 174.4 A 53.0 53.0 0 0 0 181.2 189.7 Z" r="0"></path><path fill="#90ed7d" d="M 178.1 169.6 A 48.9 48.9 0 0 1 178.1 154.3 L 188.5 156.0 A 38.4 38.4 0 0 0 188.5 168.0 Z" r="0"></path><path fill="#90ed7d" d="M 173.9 149.3 A 53.9 53.9 0 0 1 180.4 133.8 L 190.1 139.7 A 42.6 42.6 0 0 0 185.0 152.0 Z" r="0"></path><path fill="#90ed7d" d="M 160.2 113.8 A 81.8 81.8 0 0 1 178.3 95.8 L 186.9 107.6 A 67.1 67.1 0 0 0 172.1 122.5 Z" r="0"></path><path fill="#90ed7d" d="M 179.6 85.4 A 89.7 89.7 0 0 1 205.4 74.7 L 209.0 89.4 A 74.6 74.6 0 0 0 187.5 98.3 Z" r="0"></path></g><g class="highcharts-markers" visibility="visible"  transform="translate(10,61) scale(1 1)"></g><g class="highcharts-series highcharts-tracker" visibility="visible"  transform="translate(10,61) scale(1 1)" style="" clip-path="url(#highcharts-1)"><path fill="#f7a35c" d="M 219.7 119.5 A 42.9 42.9 0 0 1 233.1 119.5 L 233.1 119.5 A 42.9 42.9 0 0 0 219.7 119.5 Z" r="0"></path><path fill="#f7a35c" d="M 231.0 142.9 A 19.6 19.6 0 0 1 236.7 145.2 L 236.7 145.2 A 19.6 19.6 0 0 0 231.0 142.9 Z" r="0"></path><path fill="#f7a35c" d="M 238.0 146.1 A 19.6 19.6 0 0 1 242.3 150.4 L 242.3 150.4 A 19.6 19.6 0 0 0 238.0 146.1 Z" r="0"></path><path fill="#f7a35c" d="M 244.8 150.7 A 21.5 21.5 0 0 1 247.4 156.9 L 247.4 156.9 A 21.5 21.5 0 0 0 244.8 150.7 Z" r="0"></path><path fill="#f7a35c" d="M 263.9 156.0 A 37.9 37.9 0 0 1 263.9 167.8 L 263.9 167.8 A 37.9 37.9 0 0 0 263.9 156.0 Z" r="0"></path><path fill="#f7a35c" d="M 283.1 175.5 A 58.2 58.2 0 0 1 276.1 192.3 L 273.2 190.5 A 54.7 54.7 0 0 0 279.7 174.7 Z" r="0"></path><path fill="#f7a35c" d="M 311.6 223.8 A 105.2 105.2 0 0 1 288.4 247.0 L 274.0 227.2 A 80.7 80.7 0 0 0 291.7 209.4 Z" r="0"></path><path fill="#f7a35c" d="M 276.1 243.0 A 95.0 95.0 0 0 1 248.7 254.3 L 246.4 244.8 A 85.1 85.1 0 0 0 271.0 234.6 Z" r="0"></path><path fill="#f7a35c" d="M 240.5 250.6 A 89.7 89.7 0 0 1 212.5 250.6 L 212.5 250.6 A 89.7 89.7 0 0 0 240.5 250.6 Z" r="0"></path><path fill="#f7a35c" d="M 206.8 244.0 A 84.3 84.3 0 0 1 182.4 233.9 L 182.4 233.9 A 84.3 84.3 0 0 0 206.8 244.0 Z" r="0"></path><path fill="#f7a35c" d="M 170.9 238.5 A 94.5 94.5 0 0 1 150.0 217.6 L 154.5 214.3 A 88.9 88.9 0 0 0 174.2 233.9 Z" r="0"></path><path fill="#f7a35c" d="M 154.2 206.2 A 84.7 84.7 0 0 1 144.1 181.8 L 152.9 179.7 A 75.6 75.6 0 0 0 161.9 201.5 Z" r="0"></path><path fill="#f7a35c" d="M 161.7 172.2 A 65.5 65.5 0 0 1 161.7 151.8 L 178.1 154.3 A 48.9 48.9 0 0 0 178.1 169.6 Z" r="0"></path><path fill="#f7a35c" d="M 156.0 145.0 A 72.4 72.4 0 0 1 164.6 124.2 L 180.4 133.8 A 53.9 53.9 0 0 0 173.9 149.3 Z" r="0"></path><path fill="#f7a35c" d="M 153.2 108.7 A 90.5 90.5 0 0 1 173.1 88.7 L 178.3 95.8 A 81.8 81.8 0 0 0 160.2 113.8 Z" r="0"></path><path fill="#f7a35c" d="M 178.8 84.1 A 91.2 91.2 0 0 1 205.1 73.2 L 205.4 74.7 A 89.7 89.7 0 0 0 179.6 85.4 Z" r="0"></path></g><g class="highcharts-markers" visibility="visible"  transform="translate(10,61) scale(1 1)"></g><g class="highcharts-series highcharts-tracker" visibility="visible"  transform="translate(10,61) scale(1 1)" style="" clip-path="url(#highcharts-1)"><path fill="#8085e9" d="M 219.7 119.5 A 42.9 42.9 0 0 1 233.1 119.5 L 233.1 119.5 A 42.9 42.9 0 0 0 219.7 119.5 Z" r="0"></path><path fill="#8085e9" d="M 231.0 142.9 A 19.6 19.6 0 0 1 236.7 145.2 L 236.7 145.2 A 19.6 19.6 0 0 0 231.0 142.9 Z" r="0"></path><path fill="#8085e9" d="M 238.0 146.1 A 19.6 19.6 0 0 1 242.3 150.4 L 242.3 150.4 A 19.6 19.6 0 0 0 238.0 146.1 Z" r="0"></path><path fill="#8085e9" d="M 244.8 150.7 A 21.5 21.5 0 0 1 247.4 156.9 L 247.4 156.9 A 21.5 21.5 0 0 0 244.8 150.7 Z" r="0"></path><path fill="#8085e9" d="M 263.9 156.0 A 37.9 37.9 0 0 1 263.9 167.8 L 263.9 167.8 A 37.9 37.9 0 0 0 263.9 156.0 Z" r="0"></path><path fill="#8085e9" d="M 284.5 175.9 A 59.7 59.7 0 0 1 277.4 193.1 L 276.1 192.3 A 58.2 58.2 0 0 0 283.1 175.5 Z" r="0"></path><path fill="#8085e9" d="M 327.7 235.5 A 125.1 125.1 0 0 1 300.1 263.2 L 288.4 247.0 A 105.2 105.2 0 0 0 311.6 223.8 Z" r="0"></path><path fill="#8085e9" d="M 279.3 248.2 A 101.1 101.1 0 0 1 250.2 260.2 L 248.7 254.3 A 95.0 95.0 0 0 0 276.1 243.0 Z" r="0"></path><path fill="#8085e9" d="M 240.5 250.6 A 89.7 89.7 0 0 1 212.5 250.6 L 212.5 250.6 A 89.7 89.7 0 0 0 240.5 250.6 Z" r="0"></path><path fill="#8085e9" d="M 206.8 244.0 A 84.3 84.3 0 0 1 182.4 233.9 L 182.4 233.9 A 84.3 84.3 0 0 0 206.8 244.0 Z" r="0"></path><path fill="#8085e9" d="M 170.0 239.7 A 96.0 96.0 0 0 1 148.8 218.5 L 150.0 217.6 A 94.5 94.5 0 0 0 170.9 238.5 Z" r="0"></path><path fill="#8085e9" d="M 151.3 208.0 A 88.1 88.1 0 0 1 140.8 182.6 L 144.1 181.8 A 84.7 84.7 0 0 0 154.2 206.2 Z" r="0"></path><path fill="#8085e9" d="M 158.7 172.7 A 68.5 68.5 0 0 1 158.7 151.3 L 161.7 151.8 A 65.5 65.5 0 0 0 161.7 172.2 Z" r="0"></path><path fill="#8085e9" d="M 152.3 144.2 A 76.2 76.2 0 0 1 161.4 122.2 L 164.6 124.2 A 72.4 72.4 0 0 0 156.0 145.0 Z" r="0"></path><path fill="#8085e9" d="M 147.1 104.3 A 98.1 98.1 0 0 1 168.7 82.6 L 173.1 88.7 A 90.5 90.5 0 0 0 153.2 108.7 Z" r="0"></path><path fill="#8085e9" d="M 177.4 81.9 A 93.8 93.8 0 0 1 204.4 70.7 L 205.1 73.2 A 91.2 91.2 0 0 0 178.8 84.1 Z" r="0"></path></g><g class="highcharts-markers" visibility="visible"  transform="translate(10,61) scale(1 1)"></g><g class="highcharts-series highcharts-tracker" visibility="visible"  transform="translate(10,61) scale(1 1)" style="" clip-path="url(#highcharts-1)"><path fill="#f15c80" d="M 219.7 119.5 A 42.9 42.9 0 0 1 233.1 119.5 L 233.1 119.5 A 42.9 42.9 0 0 0 219.7 119.5 Z" r="0"></path><path fill="#f15c80" d="M 231.0 142.9 A 19.6 19.6 0 0 1 236.7 145.2 L 236.7 145.2 A 19.6 19.6 0 0 0 231.0 142.9 Z" r="0"></path><path fill="#f15c80" d="M 238.0 146.1 A 19.6 19.6 0 0 1 242.3 150.4 L 242.3 150.4 A 19.6 19.6 0 0 0 238.0 146.1 Z" r="0"></path><path fill="#f15c80" d="M 244.8 150.7 A 21.5 21.5 0 0 1 247.4 156.9 L 247.4 156.9 A 21.5 21.5 0 0 0 244.8 150.7 Z" r="0"></path><path fill="#f15c80" d="M 263.9 156.0 A 37.9 37.9 0 0 1 263.9 167.8 L 263.9 167.8 A 37.9 37.9 0 0 0 263.9 156.0 Z" r="0"></path><path fill="#f15c80" d="M 284.5 175.9 A 59.7 59.7 0 0 1 277.4 193.1 L 277.4 193.1 A 59.7 59.7 0 0 0 284.5 175.9 Z" r="0"></path><path fill="#f15c80" d="M 331.3 238.2 A 129.6 129.6 0 0 1 302.8 266.8 L 300.1 263.2 A 125.1 125.1 0 0 0 327.7 235.5 Z" r="0"></path><path fill="#f15c80" d="M 282.2 252.9 A 106.7 106.7 0 0 1 251.5 265.7 L 250.2 260.2 A 101.1 101.1 0 0 0 279.3 248.2 Z" r="0"></path><path fill="#f15c80" d="M 240.5 250.6 A 89.7 89.7 0 0 1 212.5 250.6 L 212.5 250.6 A 89.7 89.7 0 0 0 240.5 250.6 Z" r="0"></path><path fill="#f15c80" d="M 206.8 244.0 A 84.3 84.3 0 0 1 182.4 233.9 L 182.4 233.9 A 84.3 84.3 0 0 0 206.8 244.0 Z" r="0"></path><path fill="#f15c80" d="M 170.0 239.7 A 96.0 96.0 0 0 1 148.8 218.5 L 148.8 218.5 A 96.0 96.0 0 0 0 170.0 239.7 Z" r="0"></path><path fill="#f15c80" d="M 151.3 208.0 A 88.1 88.1 0 0 1 140.8 182.6 L 140.8 182.6 A 88.1 88.1 0 0 0 151.3 208.0 Z" r="0"></path><path fill="#f15c80" d="M 157.6 172.9 A 69.6 69.6 0 0 1 157.6 151.1 L 158.7 151.3 A 68.5 68.5 0 0 0 158.7 172.7 Z" r="0"></path><path fill="#f15c80" d="M 152.3 144.2 A 76.2 76.2 0 0 1 161.4 122.2 L 161.4 122.2 A 76.2 76.2 0 0 0 152.3 144.2 Z" r="0"></path><path fill="#f15c80" d="M 140.7 99.6 A 106.0 106.0 0 0 1 164.0 76.2 L 168.7 82.6 A 98.1 98.1 0 0 0 147.1 104.3 Z" r="0"></path><path fill="#f15c80" d="M 176.6 80.6 A 95.3 95.3 0 0 1 204.1 69.2 L 204.4 70.7 A 93.8 93.8 0 0 0 177.4 81.9 Z" r="0"></path></g><g class="highcharts-markers" visibility="visible"  transform="translate(10,61) scale(1 1)"></g><g class="highcharts-series highcharts-tracker" visibility="visible"  transform="translate(10,61) scale(1 1)" style="" clip-path="url(#highcharts-1)"><path fill="#e4d354" d="M 219.7 119.5 A 42.9 42.9 0 0 1 233.1 119.5 L 233.1 119.5 A 42.9 42.9 0 0 0 219.7 119.5 Z" r="0"></path><path fill="#e4d354" d="M 231.0 142.9 A 19.6 19.6 0 0 1 236.7 145.2 L 236.7 145.2 A 19.6 19.6 0 0 0 231.0 142.9 Z" r="0"></path><path fill="#e4d354" d="M 238.0 146.1 A 19.6 19.6 0 0 1 242.3 150.4 L 242.3 150.4 A 19.6 19.6 0 0 0 238.0 146.1 Z" r="0"></path><path fill="#e4d354" d="M 244.8 150.7 A 21.5 21.5 0 0 1 247.4 156.9 L 247.4 156.9 A 21.5 21.5 0 0 0 244.8 150.7 Z" r="0"></path><path fill="#e4d354" d="M 263.9 156.0 A 37.9 37.9 0 0 1 263.9 167.8 L 263.9 167.8 A 37.9 37.9 0 0 0 263.9 156.0 Z" r="0"></path><path fill="#e4d354" d="M 284.5 175.9 A 59.7 59.7 0 0 1 277.4 193.1 L 277.4 193.1 A 59.7 59.7 0 0 0 284.5 175.9 Z" r="0"></path><path fill="#e4d354" d="M 332.5 239.0 A 131.1 131.1 0 0 1 303.6 268.0 L 302.8 266.8 A 129.6 129.6 0 0 0 331.3 238.2 Z" r="0"></path><path fill="#e4d354" d="M 282.2 252.9 A 106.7 106.7 0 0 1 251.5 265.7 L 251.5 265.7 A 106.7 106.7 0 0 0 282.2 252.9 Z" r="0"></path><path fill="#e4d354" d="M 240.5 250.6 A 89.7 89.7 0 0 1 212.5 250.6 L 212.5 250.6 A 89.7 89.7 0 0 0 240.5 250.6 Z" r="0"></path><path fill="#e4d354" d="M 206.8 244.0 A 84.3 84.3 0 0 1 182.4 233.9 L 182.4 233.9 A 84.3 84.3 0 0 0 206.8 244.0 Z" r="0"></path><path fill="#e4d354" d="M 170.0 239.7 A 96.0 96.0 0 0 1 148.8 218.5 L 148.8 218.5 A 96.0 96.0 0 0 0 170.0 239.7 Z" r="0"></path><path fill="#e4d354" d="M 151.3 208.0 A 88.1 88.1 0 0 1 140.8 182.6 L 140.8 182.6 A 88.1 88.1 0 0 0 151.3 208.0 Z" r="0"></path><path fill="#e4d354" d="M 157.6 172.9 A 69.6 69.6 0 0 1 157.6 151.1 L 157.6 151.1 A 69.6 69.6 0 0 0 157.6 172.9 Z" r="0"></path><path fill="#e4d354" d="M 152.3 144.2 A 76.2 76.2 0 0 1 161.4 122.2 L 161.4 122.2 A 76.2 76.2 0 0 0 152.3 144.2 Z" r="0"></path><path fill="#e4d354" d="M 140.4 99.4 A 106.3 106.3 0 0 1 163.8 75.9 L 164.0 76.2 A 106.0 106.0 0 0 0 140.7 99.6 Z" r="0"></path><path fill="#e4d354" d="M 176.2 79.9 A 96.1 96.1 0 0 1 203.9 68.5 L 204.1 69.2 A 95.3 95.3 0 0 0 176.6 80.6 Z" r="0"></path></g><g class="highcharts-markers" visibility="visible"  transform="translate(10,61) scale(1 1)"></g></g><text x="292" text-anchor="middle" class="highcharts-title"  style="color:#333333;font-size:18px;fill:#333333;width:520px;" y="24"><tspan>Wind rose for South Shore Met Station, Oregon</tspan></text><text x="292" text-anchor="middle" class="highcharts-subtitle"  style="color:#555555;fill:#555555;width:520px;" y="46"><tspan>Source: or.water.usgs.gov</tspan></text><g class="highcharts-legend"  transform="translate(475,110)"><g ><g><g class="highcharts-legend-item"  transform="translate(8,3)"><text x="21" style="color:#333333;font-size:12px;font-weight:bold;cursor:pointer;fill:#333333;" text-anchor="start"  y="15"><tspan>&lt; 0.5 m/s</tspan></text><rect x="0" y="4" width="16" height="12"  fill="#7cb5ec"></rect></g><g class="highcharts-legend-item"  transform="translate(8,17)"><text x="21" y="15" style="color:#333333;font-size:12px;font-weight:bold;cursor:pointer;fill:#333333;" text-anchor="start" ><tspan>0.5-2 m/s</tspan></text><rect x="0" y="4" width="16" height="12"  fill="#434348"></rect></g><g class="highcharts-legend-item"  transform="translate(8,31)"><text x="21" y="15" style="color:#333333;font-size:12px;font-weight:bold;cursor:pointer;fill:#333333;" text-anchor="start" ><tspan>2-4 m/s</tspan></text><rect x="0" y="4" width="16" height="12"  fill="#90ed7d"></rect></g><g class="highcharts-legend-item"  transform="translate(8,45)"><text x="21" y="15" style="color:#333333;font-size:12px;font-weight:bold;cursor:pointer;fill:#333333;" text-anchor="start" ><tspan>4-6 m/s</tspan></text><rect x="0" y="4" width="16" height="12"  fill="#f7a35c"></rect></g><g class="highcharts-legend-item"  transform="translate(8,59)"><text x="21" y="15" style="color:#333333;font-size:12px;font-weight:bold;cursor:pointer;fill:#333333;" text-anchor="start" ><tspan>6-8 m/s</tspan></text><rect x="0" y="4" width="16" height="12"  fill="#8085e9"></rect></g><g class="highcharts-legend-item"  transform="translate(8,73)"><text x="21" y="15" style="color:#333333;font-size:12px;font-weight:bold;cursor:pointer;fill:#333333;" text-anchor="start" ><tspan>8-10 m/s</tspan></text><rect x="0" y="4" width="16" height="12"  fill="#f15c80"></rect></g><g class="highcharts-legend-item"  transform="translate(8,87)"><text x="21" y="15" style="color:#333333;font-size:12px;font-weight:bold;cursor:pointer;fill:#333333;" text-anchor="start" ><tspan>&gt; 10 m/s</tspan></text><rect x="0" y="4" width="16" height="12"  fill="#e4d354"></rect></g></g></g></g><g class="highcharts-axis-labels highcharts-xaxis-labels" ><text x="236.5" style="color:#606060;cursor:default;font-size:11px;fill:#606060;width:17px;text-overflow:clip;" text-anchor="middle" transform="translate(0,0)" y="74.8" opacity="1">N</text><text x="294.9" style="color:#606060;cursor:default;font-size:11px;fill:#606060;width:17px;text-overflow:clip;" text-anchor="start" transform="translate(0,0)" y="86.4" opacity="1">NNE</text><text x="344.4" style="color:#606060;cursor:default;font-size:11px;fill:#606060;width:17px;text-overflow:clip;" text-anchor="start" transform="translate(0,0)" y="119.5" opacity="1">NE</text><text x="377.5" style="color:#606060;cursor:default;font-size:11px;fill:#606060;width:17px;text-overflow:clip;" text-anchor="start" transform="translate(0,0)" y="169.0" opacity="1">ENE</text><text x="389.2" style="color:#606060;cursor:default;font-size:11px;fill:#606060;width:17px;text-overflow:clip;" text-anchor="start" transform="translate(0,0)" y="227.5" opacity="1">E</text><text x="377.5" style="color:#606060;cursor:default;font-size:11px;fill:#606060;width:17px;text-overflow:clip;" text-anchor="start" transform="translate(0,0)" y="285.9" opacity="1">ESE</text><text x="344.4" style="color:#606060;cursor:default;font-size:11px;fill:#606060;width:17px;text-overflow:clip;" text-anchor="start" transform="translate(0,0)" y="335.4" opacity="1">SE</text><text x="294.9" style="color:#606060;cursor:default;font-size:11px;fill:#606060;width:17px;text-overflow:clip;" text-anchor="start" transform="translate(0,0)" y="368.5" opacity="1">SSE</text><text x="236.5" style="color:#606060;cursor:default;font-size:11px;fill:#606060;width:17px;text-overflow:clip;" text-anchor="middle" transform="translate(0,0)" y="380.2" opacity="1">S</text><text x="178.0" style="color:#606060;cursor:default;font-size:11px;fill:#606060;width:17px;text-overflow:clip;" text-anchor="end" transform="translate(0,0)" y="368.5" opacity="1">SSW</text><text x="128.5" style="color:#606060;cursor:default;font-size:11px;fill:#606060;width:17px;text-overflow:clip;" text-anchor="end" transform="translate(0,0)" y="335.4" opacity="1">SW</text><text x="95.4" style="color:#606060;cursor:default;font-size:11px;fill:#606060;width:17px;text-overflow:clip;" text-anchor="end" transform="translate(0,0)" y="285.9" opacity="1">WSW</text><text x="83.8" style="color:#606060;cursor:default;font-size:11px;fill:#606060;width:17px;text-overflow:clip;" text-anchor="end" transform="translate(0,0)" y="227.5" opacity="1">W</text><text x="95.4" style="color:#606060;cursor:default;font-size:11px;fill:#606060;width:17px;text-overflow:clip;" text-anchor="end" transform="translate(0,0)" y="169.0" opacity="1">WNW</text><text x="128.5" style="color:#606060;cursor:default;font-size:11px;fill:#606060;width:17px;text-overflow:clip;" text-anchor="end" transform="translate(0,0)" y="119.5" opacity="1">NW</text><text x="178.0" style="color:#606060;cursor:default;font-size:11px;fill:#606060;width:17px;text-overflow:clip;" text-anchor="end" transform="translate(0,0)" y="86.4" opacity="1">NNW</text><text x="0" style="color:#606060;cursor:default;font-size:11px;fill:#606060;width:17px;text-overflow:clip;" text-anchor="middle" transform="translate(0,0)" y="-9999">16</text></g><g class="highcharts-axis-labels highcharts-yaxis-labels" ><text x="233.5" style="color:#606060;cursor:default;font-size:11px;fill:#606060;width:183px;text-overflow:clip;" text-anchor="end" transform="translate(0,0)" y="221" opacity="1">0%</text><text x="233.5" style="color:#606060;cursor:default;font-size:11px;fill:#606060;width:183px;text-overflow:clip;" text-anchor="end" transform="translate(0,0)" y="163.6" opacity="1">5%</text><text x="233.5" style="color:#606060;cursor:default;font-size:11px;fill:#606060;width:183px;text-overflow:clip;" text-anchor="end" transform="translate(0,0)" y="106.3" opacity="1">10%</text></g><g class="highcharts-tooltip"  style="cursor:default;padding:0;white-space:nowrap;" transform="translate(0,-9999)"><path fill="none" d="M 3 0 L 13 0 C 16 0 16 0 16 3 L 16 13 C 16 16 16 16 13 16 L 3 16 C 0 16 0 16 0 13 L 0 3 C 0 0 0 0 3 0"  stroke="black" stroke-opacity="0.0" stroke-width="5" transform="translate(1, 1)"></path><path fill="none" d="M 3 0 L 13 0 C 16 0 16 0 16 3 L 16 13 C 16 16 16 16 13 16 L 3 16 C 0 16 0 16 0 13 L 0 3 C 0 0 0 0 3 0"  stroke="black" stroke-opacity="0.0" stroke-width="3" transform="translate(1, 1)"></path><path fill="none" d="M 3 0 L 13 0 C 16 0 16 0 16 3 L 16 13 C 16 16 16 16 13 16 L 3 16 C 0 16 0 16 0 13 L 0 3 C 0 0 0 0 3 0"  stroke="black" stroke-opacity="0.1" stroke-width="1" transform="translate(1, 1)"></path><path fill="rgb(249, 249, 249)" fill-opacity=" .85" d="M 3 0 L 13 0 C 16 0 16 0 16 3 L 16 13 C 16 16 16 16 13 16 L 3 16 C 0 16 0 16 0 13 L 0 3 C 0 0 0 0 3 0"></path><text x="8"  style="font-size:12px;color:#333333;fill:#333333;" transform="translate(0,20)"></text></g></svg>