<svg version="1.1" style="font-family:&quot;lucida grande&quot;, &quot;lucida sans unicode&quot;, arial, helvetica, sans-serif;font-size:12px;" xmlns="http://www.w3.org/2000/svg" width="400" height="400" viewBox="0 0 400 400"><desc>Created with Highcharts 4.1.4</desc><defs><clipPath id="highcharts-1"><rect x="0" y="0" width="380" height="301"></rect></clipPath></defs><rect x="0" y="0" width="400" height="400" strokeWidth="0" fill="#FFFFFF" class=" highcharts-background" stroke="transparent"></rect><g class="highcharts-grid" ><path fill="none" d="M 200 197.5 L 200 69.5" stroke="#D8D8D8" stroke-width="1"  opacity="1"></path><path fill="none" d="M 200 197.5 L 290.4 107.0" stroke="#D8D8D8" stroke-width="1"  opacity="1"></path><path fill="none" d="M 200 197.5 L 327.9 197.5" stroke="#D8D8D8" stroke-width="1"  opacity="1"></path><path fill="none" d="M 200 197.5 L 290.4 287.9" stroke="#D8D8D8" stroke-width="1"  opacity="1"></path><path fill="none" d="M 200 197.5 L 200 325.4" stroke="#D8D8D8" stroke-width="1"  opacity="1"></path><path fill="none" d="M 200 197.5 L 109.5 287.9" stroke="#D8D8D8" stroke-width="1"  opacity="1"></path><path fill="none" d="M 200 197.5 L 72.0 197.5" stroke="#D8D8D8" stroke-width="1"  opacity="1"></path><path fill="none" d="M 200 197.5 L 109.5 107.0" stroke="#D8D8D8" stroke-width="1"  opacity="1"></path><path fill="none" d="M 200 197.5 L 199.9 69.5" stroke="#D8D8D8" stroke-width="1"  opacity="1"></path></g><g class="highcharts-grid" ><path fill="none" stroke="#D8D8D8" stroke-width="1" ></path><path fill="none" d="M 200 133.5 A 63.9 63.9 0 1 1 199.9 133.5 M 200 197.5 A 0 0 0 1 0 200 197.5 " stroke="#D8D8D8" stroke-width="1"  opacity="1"></path><path fill="none" d="M 200 69.5 A 127.9 127.9 0 1 1 199.8 69.5 M 200 197.5 A 0 0 0 1 0 200 197.5 " stroke="#D8D8D8" stroke-width="1"  opacity="1"></path></g><g class="highcharts-axis" ><path fill="none" d="M 200 69.5 A 127.9 127.9 0 1 1 199.8 69.5 M 200 197.5 A 0 0 0 1 0 200 197.5 " stroke="#C0D0E0" stroke-width="1"  visibility="visible"></path></g><g class="highcharts-axis" ></g><g class="highcharts-series-group" ><g class="highcharts-series highcharts-tracker" visibility="visible"  transform="translate(10,47) scale(1 1)" style="" clip-path="url(#highcharts-1)"><path fill="#7cb5ec" d="M 190 48.1 A 102.3 102.3 0 0 1 262.2 78.0 L 190 150.5 A 0 0 0 0 0 190 150.5 Z" r="0"></path><path fill="#7cb5ec" d="M 253.3 87.1 A 89.5 89.5 0 0 1 279.5 150.4 L 190 150.5 A 0 0 0 0 0 190 150.5 Z" r="0"></path><path fill="#7cb5ec" d="M 266.7 150.5 A 76.7 76.7 0 0 1 244.3 204.7 L 190 150.5 A 0 0 0 0 0 190 150.5 Z" r="0"></path><path fill="#7cb5ec" d="M 235.2 195.7 A 63.9 63.9 0 0 1 190.0 214.4 L 190 150.5 A 0 0 0 0 0 190 150.5 Z" r="0"></path><path fill="#7cb5ec" d="M 190 201.6 A 51.1 51.1 0 0 1 153.8 186.7 L 190 150.5 A 0 0 0 0 0 190 150.5 Z" r="0"></path><path fill="#7cb5ec" d="M 162.8 177.6 A 38.3 38.3 0 0 1 151.6 150.5 L 190 150.5 A 0 0 0 0 0 190 150.5 Z" r="0"></path><path fill="#7cb5ec" d="M 164.4 150.5 A 25.5 25.5 0 0 1 171.8 132.4 L 190 150.5 A 0 0 0 0 0 190 150.5 Z" r="0"></path><path fill="#7cb5ec" d="M 180.9 141.4 A 12.7 12.7 0 0 1 189.9 137.7 L 190 150.5 A 0 0 0 0 0 190 150.5 Z" r="0"></path></g><g class="highcharts-markers" visibility="visible"  transform="translate(10,47) scale(1 1)"></g><g class="highcharts-series" visibility="visible"  transform="translate(10,47) scale(1 1)" clip-path="url(#highcharts-1)"><path fill="none" d="M 190 137.7 L 208.0 132.4 L 228.3 150.5 L 226.1 186.6 L 190 214.4 L 135.7 204.7 L 100.4 150.5 L 117.6 78.1 L 190 137.7" stroke="#434348" stroke-width="2"  stroke-linejoin="round" stroke-linecap="round"></path><path fill="none" d="M 180 137.7 L 190 137.7 L 208.0 132.4 L 228.3 150.5 L 226.1 186.6 L 190 214.4 L 135.7 204.7 L 100.4 150.5 L 117.6 78.1 L 190 137.7 L 200 137.7" stroke-linejoin="round" visibility="visible" stroke="rgb(192,192,192)" stroke-opacity="0.0" stroke-width="22"  class=" highcharts-tracker" style=""></path></g><g class="highcharts-markers highcharts-tracker" visibility="visible"  transform="translate(10,47) scale(1 1)" style=""><path fill="#434348" d="M 117 74.1 C 122.3 74.1 122.3 82.1 117 82.1 C 111.6 82.1 111.6 74.1 117 74.1 Z"></path><path fill="#434348" d="M 100 146.5 C 105.3 146.5 105.3 154.5 100 154.5 C 94.6 154.5 94.6 146.5 100 146.5 Z"></path><path fill="#434348" d="M 135 200.7 C 140.3 200.7 140.3 208.7 135 208.7 C 129.6 208.7 129.6 200.7 135 200.7 Z"></path><path fill="#434348" d="M 190 210.4 C 195.3 210.4 195.3 218.4 190 218.4 C 184.6 218.4 184.6 210.4 190 210.4 Z"></path><path fill="#434348" d="M 226 182.6 C 231.3 182.6 231.3 190.6 226 190.6 C 220.6 190.6 220.6 182.6 226 182.6 Z"></path><path fill="#434348" d="M 228 146.5 C 233.3 146.5 233.3 154.5 228 154.5 C 222.6 154.5 222.6 146.5 228 146.5 Z"></path><path fill="#434348" d="M 208 128.4 C 213.3 128.4 213.3 136.4 208 136.4 C 202.6 136.4 202.6 128.4 208 128.4 Z"></path><path fill="#434348" d="M 190 133.7 C 195.3 133.7 195.3 141.7 190 141.7 C 184.6 141.7 184.6 133.7 190 133.7 Z"></path></g><g class="highcharts-series" visibility="visible"  transform="translate(10,47) scale(1 1)" clip-path="url(#highcharts-1)"><path fill="rgb(144,237,125)" fill-opacity="0.7" d="M 190 137.7 L 262.3 78.1 L 215.5 150.5 L 253.3 213.8 L 190 188.8 L 135.7 204.7 L 138.8 150.5 L 144.7 105.2 L 190 137.7 L 190 150.5" ></path><path fill="none" d="M 190 137.7 L 262.3 78.1 L 215.5 150.5 L 253.3 213.8 L 190 188.8 L 135.7 204.7 L 138.8 150.5 L 144.7 105.2 L 190 137.7" stroke="#90ed7d" stroke-width="2"  stroke-linejoin="round" stroke-linecap="round"></path><path fill="none" d="M 180 137.7 L 190 137.7 L 262.3 78.1 L 215.5 150.5 L 253.3 213.8 L 190 188.8 L 135.7 204.7 L 138.8 150.5 L 144.7 105.2 L 190 137.7 L 200 137.7" stroke-linejoin="round" visibility="visible" stroke="rgb(192,192,192)" stroke-opacity="0.0" stroke-width="22"  class=" highcharts-tracker" style=""></path></g><g class="highcharts-markers highcharts-tracker" visibility="visible"  transform="translate(10,47) scale(1 1)" style=""><path fill="#90ed7d" d="M 144 101.2 L 148 105.2 144 109.2 140 105.2 Z"></path><path fill="#90ed7d" d="M 138 146.5 L 142 150.5 138 154.5 134 150.5 Z"></path><path fill="#90ed7d" d="M 135 200.7 L 139 204.7 135 208.7 131 204.7 Z"></path><path fill="#90ed7d" d="M 190 184.8 L 194 188.8 190 192.8 186 188.8 Z"></path><path fill="#90ed7d" d="M 253 209.8 L 257 213.8 253 217.8 249 213.8 Z"></path><path fill="#90ed7d" d="M 215 146.5 L 219 150.5 215 154.5 211 150.5 Z"></path><path fill="#90ed7d" d="M 262 74.1 L 266 78.1 262 82.1 258 78.1 Z"></path><path fill="#90ed7d" d="M 190 133.7 L 194 137.7 190 141.7 186 137.7 Z"></path></g></g><text x="200" text-anchor="middle" class="highcharts-title"  style="color:#333333;font-size:18px;fill:#333333;width:336px;" y="24"><tspan>Highcharts Polar Chart</tspan></text><g class="highcharts-legend"  transform="translate(91,360)"><g ><g><g class="highcharts-legend-item"  transform="translate(8,3)"><text x="21" style="color:#333333;font-size:12px;font-weight:bold;cursor:pointer;fill:#333333;" text-anchor="start"  y="15">Column</text><rect x="0" y="4" width="16" height="12"  fill="#7cb5ec"></rect></g><g class="highcharts-legend-item"  transform="translate(95,3)"><path fill="none" d="M 0 11 L 16 11" stroke="#434348" stroke-width="2"></path><path fill="#434348" d="M 8 7 C 13.3 7 13.3 15 8 15 C 2.6 15 2.6 7 8 7 Z"></path><text x="21" y="15" style="color:#333333;font-size:12px;font-weight:bold;cursor:pointer;fill:#333333;" text-anchor="start" >Line</text></g><g class="highcharts-legend-item"  transform="translate(161,3)"><text x="21" y="15" style="color:#333333;font-size:12px;font-weight:bold;cursor:pointer;fill:#333333;" text-anchor="start" >Area</text><rect x="0" y="4" width="16" height="12"  fill="#90ed7d"></rect></g></g></g></g><g class="highcharts-axis-labels highcharts-xaxis-labels" ><text x="200" style="color:#606060;cursor:default;font-size:11px;fill:#606060;width:32px;text-overflow:clip;" text-anchor="middle" transform="translate(0,0)" y="59.0" opacity="1">0°</text><text x="301.0" style="color:#606060;cursor:default;font-size:11px;fill:#606060;width:32px;text-overflow:clip;" text-anchor="start" transform="translate(0,0)" y="100.9" opacity="1">45°</text><text x="342.9" style="color:#606060;cursor:default;font-size:11px;fill:#606060;width:32px;text-overflow:clip;" text-anchor="start" transform="translate(0,0)" y="202" opacity="1">90°</text><text x="301.0" style="color:#606060;cursor:default;font-size:11px;fill:#606060;width:32px;text-overflow:clip;" text-anchor="start" transform="translate(0,0)" y="303.0" opacity="1">135°</text><text x="200" style="color:#606060;cursor:default;font-size:11px;fill:#606060;width:32px;text-overflow:clip;" text-anchor="middle" transform="translate(0,0)" y="344.9" opacity="1">180°</text><text x="98.9" style="color:#606060;cursor:default;font-size:11px;fill:#606060;width:32px;text-overflow:clip;" text-anchor="end" transform="translate(0,0)" y="303.0" opacity="1">225°</text><text x="57.0" style="color:#606060;cursor:default;font-size:11px;fill:#606060;width:32px;text-overflow:clip;" text-anchor="end" transform="translate(0,0)" y="202.0" opacity="1">270°</text><text x="98.9" style="color:#606060;cursor:default;font-size:11px;fill:#606060;width:32px;text-overflow:clip;" text-anchor="end" transform="translate(0,0)" y="100.9" opacity="1">315°</text><text x="0" style="color:#606060;cursor:default;font-size:11px;fill:#606060;width:32px;text-overflow:clip;" text-anchor="middle" transform="translate(0,0)" y="-9999">360°</text></g><g class="highcharts-axis-labels highcharts-yaxis-labels" ><text x="197" style="color:#606060;cursor:default;font-size:11px;fill:#606060;width:122px;text-overflow:clip;" text-anchor="end" transform="translate(0,0)" y="195.5" opacity="1">0</text><text x="197" style="color:#606060;cursor:default;font-size:11px;fill:#606060;width:122px;text-overflow:clip;" text-anchor="end" transform="translate(0,0)" y="131.5" opacity="1">5</text><text x="0" style="color:#606060;cursor:default;font-size:11px;fill:#606060;width:122px;text-overflow:clip;" text-anchor="end" transform="translate(0,0)" y="-9999">10</text></g><g class="highcharts-tooltip"  style="cursor:default;padding:0;white-space:nowrap;" transform="translate(0,-9999)"><path fill="none" d="M 3 0 L 13 0 C 16 0 16 0 16 3 L 16 13 C 16 16 16 16 13 16 L 3 16 C 0 16 0 16 0 13 L 0 3 C 0 0 0 0 3 0"  stroke="black" stroke-opacity="0.0" stroke-width="5" transform="translate(1, 1)"></path><path fill="none" d="M 3 0 L 13 0 C 16 0 16 0 16 3 L 16 13 C 16 16 16 16 13 16 L 3 16 C 0 16 0 16 0 13 L 0 3 C 0 0 0 0 3 0"  stroke="black" stroke-opacity="0.0" stroke-width="3" transform="translate(1, 1)"></path><path fill="none" d="M 3 0 L 13 0 C 16 0 16 0 16 3 L 16 13 C 16 16 16 16 13 16 L 3 16 C 0 16 0 16 0 13 L 0 3 C 0 0 0 0 3 0"  stroke="black" stroke-opacity="0.1" stroke-width="1" transform="translate(1, 1)"></path><path fill="rgb(249, 249, 249)" fill-opacity=" .85" d="M 3 0 L 13 0 C 16 0 16 0 16 3 L 16 13 C 16 16 16 16 13 16 L 3 16 C 0 16 0 16 0 13 L 0 3 C 0 0 0 0 3 0"></path><text x="8"  style="font-size:12px;color:#333333;fill:#333333;" transform="translate(0,20)"></text></g></svg>