<svg version="1.1" style="font-family:&quot;lucida grande&quot;, &quot;lucida sans unicode&quot;, arial, helvetica, sans-serif;font-size:12px;" xmlns="http://www.w3.org/2000/svg" width="584" height="400" viewBox="0 0 584 400"><desc>Created with Highcharts 4.1.4</desc><defs><clipPath id="highcharts-1"><rect x="0" y="0" width="378" height="284"></rect></clipPath><clipPath id="highcharts-2"><rect x="-99" y="-61" width="477" height="400"></rect></clipPath><clipPath id="highcharts-3"><rect x="0" y="0" width="378" height="284"></rect></clipPath></defs><rect x="0" y="0" width="584" height="400" strokeWidth="0" fill="#FFFFFF" class=" highcharts-background" stroke="transparent"></rect><g class="highcharts-grid" ><path fill="none" d="M 66.5 61 L 66.5 345" stroke="#D8D8D8" stroke-width="1"  opacity="1"></path><path fill="none" d="M 142.5 61 L 142.5 345" stroke="#D8D8D8" stroke-width="1"  opacity="1"></path><path fill="none" d="M 217.5 61 L 217.5 345" stroke="#D8D8D8" stroke-width="1"  opacity="1"></path><path fill="none" d="M 293.5 61 L 293.5 345" stroke="#D8D8D8" stroke-width="1"  opacity="1"></path><path fill="none" d="M 368.5 61 L 368.5 345" stroke="#D8D8D8" stroke-width="1"  opacity="1"></path><path fill="none" d="M 445.5 61 L 445.5 345" stroke="#D8D8D8" stroke-width="1"  opacity="1"></path></g><g class="highcharts-grid" ><path fill="none" d="M 67 345.5 L 445 345.5" stroke="#D8D8D8" stroke-width="1"  opacity="1"></path><path fill="none" d="M 67 288.5 L 445 288.5" stroke="#D8D8D8" stroke-width="1"  opacity="1"></path><path fill="none" d="M 67 231.5 L 445 231.5" stroke="#D8D8D8" stroke-width="1"  opacity="1"></path><path fill="none" d="M 67 175.5 L 445 175.5" stroke="#D8D8D8" stroke-width="1"  opacity="1"></path><path fill="none" d="M 67 118.5 L 445 118.5" stroke="#D8D8D8" stroke-width="1"  opacity="1"></path><path fill="none" d="M 67 60.5 L 445 60.5" stroke="#D8D8D8" stroke-width="1"  opacity="1"></path></g><g class="highcharts-axis" ><path fill="none" d="M 66.5 345 L 66.5 355" stroke="#C0D0E0" stroke-width="1" opacity="1"></path><path fill="none" d="M 142.5 345 L 142.5 355" stroke="#C0D0E0" stroke-width="1" opacity="1"></path><path fill="none" d="M 217.5 345 L 217.5 355" stroke="#C0D0E0" stroke-width="1" opacity="1"></path><path fill="none" d="M 293.5 345 L 293.5 355" stroke="#C0D0E0" stroke-width="1" opacity="1"></path><path fill="none" d="M 368.5 345 L 368.5 355" stroke="#C0D0E0" stroke-width="1" opacity="1"></path><path fill="none" d="M 445.5 345 L 445.5 355" stroke="#C0D0E0" stroke-width="1" opacity="1"></path><text x="256"  text-anchor="middle" transform="translate(0,0)" class=" highcharts-xaxis-title" style="color:#707070;fill:#707070;" visibility="visible" y="383"><tspan>Height (cm)</tspan></text><path fill="none" d="M 67 345.5 L 445 345.5" stroke="#C0D0E0" stroke-width="1"  visibility="visible"></path></g><g class="highcharts-axis" ><text x="24"  text-anchor="middle" transform="translate(0,0) rotate(270 24 203)" class=" highcharts-yaxis-title" style="color:#707070;fill:#707070;" visibility="visible" y="203"><tspan>Weight (kg)</tspan></text></g><g class="highcharts-series-group" ><g class="highcharts-series" visibility="visible"  transform="translate(67,61) scale(1 1)" clip-path="url(#highcharts-3)"><path fill="rgb(124,181,236)" fill-opacity="0.5" d="M 98.2 221.5 L 68.0 210.1 L 68.0 184.6 L 90.7 170.4 L 143.6 142 L 226.7 122.1 L 302.4 142 L 302.4 170.4 L 249.4 193.1 L 196.5 213 z"  stroke-linejoin="round" stroke-linecap="round"></path></g><g class="highcharts-markers" visibility="visible"  transform="translate(67,61) scale(1 1)" clip-path="url(#highcharts-2)"></g><g class="highcharts-series highcharts-tracker" visibility="visible"  transform="translate(67,61) scale(1 1)" clip-path="url(#highcharts-3)" style=""></g><g class="highcharts-markers highcharts-tracker" visibility="visible"  transform="translate(67,61) scale(1 1)" clip-path="url(#highcharts-2)" style=""><path fill="#434348" d="M 179 145.6 L 183 149.6 179 153.6 175 149.6 Z"></path><path fill="#434348" d="M 257 148.2 L 261 152.2 257 156.2 253 152.2 Z"></path><path fill="#434348" d="M 156 198.7 L 160 202.7 156 206.7 152 202.7 Z"></path><path fill="#434348" d="M 184 179.1 L 188 183.1 184 187.1 180 183.1 Z"></path><path fill="#434348" d="M 275 132.8 L 279 136.8 275 140.8 271 136.8 Z"></path><path fill="#434348" d="M 132 118.6 L 136 122.6 132 126.6 128 122.6 Z"></path><path fill="#434348" d="M 170 162.4 L 174 166.4 170 170.4 166 166.4 Z"></path><path fill="#434348" d="M 247 143.1 L 251 147.1 247 151.1 243 147.1 Z"></path><path fill="#434348" d="M 151 122.3 L 155 126.3 151 130.3 147 126.3 Z"></path><path fill="#434348" d="M 223 145.6 L 227 149.6 223 153.6 219 149.6 Z"></path><path fill="#434348" d="M 266 156.1 L 270 160.1 266 164.1 262 160.1 Z"></path><path fill="#434348" d="M 151 154.7 L 155 158.7 151 162.7 147 158.7 Z"></path><path fill="#434348" d="M 223 174.0 L 227 178.0 223 182.0 219 178.0 Z"></path><path fill="#434348" d="M 74 203.8 L 78 207.8 74 211.8 70 207.8 Z"></path><path fill="#434348" d="M 122 166.4 L 126 170.4 122 174.4 118 170.4 Z"></path><path fill="#434348" d="M 161 163.8 L 165 167.8 161 171.8 157 167.8 Z"></path><path fill="#434348" d="M 170 156.1 L 174 160.1 170 164.1 166 160.1 Z"></path><path fill="#434348" d="M 257 179.1 L 261 183.1 257 187.1 253 183.1 Z"></path><path fill="#434348" d="M 170 162.4 L 174 166.4 170 170.4 166 166.4 Z"></path><path fill="#434348" d="M 257 127.7 L 261 131.7 257 135.7 253 131.7 Z"></path><path fill="#434348" d="M 151 166.4 L 155 170.4 151 174.4 147 170.4 Z"></path><path fill="#434348" d="M 189 184.5 L 193 188.5 189 192.5 185 188.5 Z"></path><path fill="#434348" d="M 132 182.0 L 136 186.0 132 190.0 128 186.0 Z"></path><path fill="#434348" d="M 237 185.1 L 241 189.1 237 193.1 233 189.1 Z"></path><path fill="#434348" d="M 266 156.1 L 270 160.1 266 164.1 262 160.1 Z"></path><path fill="#434348" d="M 170 104.4 L 174 108.4 170 112.4 166 108.4 Z"></path><path fill="#434348" d="M 112 171.5 L 116 175.5 112 179.5 108 175.5 Z"></path><path fill="#434348" d="M 208 162.4 L 212 166.4 208 170.4 204 166.4 Z"></path><path fill="#434348" d="M 208 131.4 L 212 135.4 208 139.4 204 135.4 Z"></path><path fill="#434348" d="M 208 153.6 L 212 157.6 208 161.6 204 157.6 Z"></path><path fill="#434348" d="M 151 108.1 L 155 112.1 151 116.1 147 112.1 Z"></path><path fill="#434348" d="M 228 117.2 L 232 121.2 228 125.2 224 121.2 Z"></path><path fill="#434348" d="M 257 179.1 L 261 183.1 257 187.1 253 183.1 Z"></path><path fill="#434348" d="M 189 41.1 L 193 45.1 189 49.1 185 45.1 Z"></path><path fill="#434348" d="M 151 179.4 L 155 183.4 151 187.4 147 183.4 Z"></path><path fill="#434348" d="M 266 172.9 L 270 176.9 266 180.9 262 176.9 Z"></path><path fill="#434348" d="M 266 159.8 L 270 163.8 266 167.8 262 163.8 Z"></path><path fill="#434348" d="M 228 127.7 L 232 131.7 228 135.7 224 131.7 Z"></path><path fill="#434348" d="M 218 157.8 L 222 161.8 218 165.8 214 161.8 Z"></path><path fill="#434348" d="M 93 145.6 L 97 149.6 93 153.6 89 149.6 Z"></path><path fill="#434348" d="M 170 148.2 L 174 152.2 170 156.2 166 152.2 Z"></path><path fill="#434348" d="M 189 91.7 L 193 95.7 189 99.7 185 95.7 Z"></path><path fill="#434348" d="M 208 158.7 L 212 162.7 208 166.7 204 162.7 Z"></path><path fill="#434348" d="M 208 187.1 L 212 191.1 208 195.1 204 191.1 Z"></path><path fill="#434348" d="M 161 136.5 L 165 140.5 161 144.5 157 140.5 Z"></path><path fill="#434348" d="M 228 168.9 L 232 172.9 228 176.9 224 172.9 Z"></path><path fill="#434348" d="M 228 182.0 L 232 186.0 228 190.0 224 186.0 Z"></path><path fill="#434348" d="M 228 156.1 L 232 160.1 228 164.1 224 160.1 Z"></path><path fill="#434348" d="M 189 163.8 L 193 167.8 189 171.8 185 167.8 Z"></path><path fill="#434348" d="M 247 136.5 L 251 140.5 247 144.5 243 140.5 Z"></path><path fill="#434348" d="M 189 107.0 L 193 111.0 189 115.0 185 111.0 Z"></path><path fill="#434348" d="M 228 144.5 L 232 148.5 228 152.5 224 148.5 Z"></path><path fill="#434348" d="M 93 202.4 L 97 206.4 93 210.4 89 206.4 Z"></path><path fill="#434348" d="M 170 182.0 L 174 186.0 170 190.0 166 186.0 Z"></path><path fill="#434348" d="M 132 156.1 L 136 160.1 132 164.1 128 160.1 Z"></path><path fill="#434348" d="M 151 169.2 L 155 173.2 151 177.2 147 173.2 Z"></path><path fill="#434348" d="M 156 178.0 L 160 182.0 156 186.0 152 182.0 Z"></path><path fill="#434348" d="M 170 182.0 L 174 186.0 170 190.0 166 186.0 Z"></path><path fill="#434348" d="M 208 182.0 L 212 186.0 208 190.0 204 186.0 Z"></path><path fill="#434348" d="M 170 136.5 L 174 140.5 170 144.5 166 140.5 Z"></path><path fill="#434348" d="M 228 180.6 L 232 184.6 228 188.6 224 184.6 Z"></path><path fill="#434348" d="M 151 185.1 L 155 189.1 151 193.1 147 189.1 Z"></path><path fill="#434348" d="M 146 185.7 L 150 189.7 146 193.7 142 189.7 Z"></path><path fill="#434348" d="M 266 156.1 L 270 160.1 266 164.1 262 160.1 Z"></path><path fill="#434348" d="M 218 160.7 L 222 164.7 218 168.7 214 164.7 Z"></path><path fill="#434348" d="M 275 127.7 L 279 131.7 275 135.7 271 131.7 Z"></path><path fill="#434348" d="M 185 157.3 L 189 161.3 185 165.3 181 161.3 Z"></path><path fill="#434348" d="M 170 183.7 L 174 187.7 170 191.7 166 187.7 Z"></path><path fill="#434348" d="M 218 176.0 L 222 180.0 218 184.0 214 180.0 Z"></path><path fill="#434348" d="M 189 158.7 L 193 162.7 189 166.7 185 162.7 Z"></path><path fill="#434348" d="M 189 180.0 L 193 184.0 189 188.0 185 184.0 Z"></path><path fill="#434348" d="M 208 156.1 L 212 160.1 208 164.1 204 160.1 Z"></path><path fill="#434348" d="M 179 170.3 L 183 174.3 179 178.3 175 174.3 Z"></path><path fill="#434348" d="M 132 198.7 L 136 202.7 132 206.7 128 202.7 Z"></path><path fill="#434348" d="M 266 150.7 L 270 154.7 266 158.7 262 154.7 Z"></path><path fill="#434348" d="M 189 150.7 L 193 154.7 189 158.7 185 154.7 Z"></path><path fill="#434348" d="M 208 180.6 L 212 184.6 208 188.6 204 184.6 Z"></path><path fill="#434348" d="M 161 174.0 L 165 178.0 161 182.0 157 178.0 Z"></path><path fill="#434348" d="M 218 180.6 L 222 184.6 218 188.6 214 184.6 Z"></path><path fill="#434348" d="M 247 121.2 L 251 125.2 247 129.2 243 125.2 Z"></path><path fill="#434348" d="M 142 197.3 L 146 201.3 142 205.3 138 201.3 Z"></path><path fill="#434348" d="M 112 183.1 L 116 187.1 112 191.1 108 187.1 Z"></path><path fill="#434348" d="M 266 130.3 L 270 134.3 266 138.3 262 134.3 Z"></path><path fill="#434348" d="M 189 171.5 L 193 175.5 189 179.5 185 175.5 Z"></path><path fill="#434348" d="M 285 166.4 L 289 170.4 285 174.4 281 170.4 Z"></path><path fill="#434348" d="M 189 175.4 L 193 179.4 189 183.4 185 179.4 Z"></path><path fill="#434348" d="M 199 136.0 L 203 140.0 199 144.0 195 140.0 Z"></path><path fill="#434348" d="M 324 104.4 L 328 108.4 324 112.4 320 108.4 Z"></path><path fill="#434348" d="M 189 168.9 L 193 172.9 189 176.9 185 172.9 Z"></path><path fill="#434348" d="M 151 178.0 L 155 182.0 151 186.0 147 182.0 Z"></path><path fill="#434348" d="M 170 170.3 L 174 174.3 170 178.3 166 174.3 Z"></path><path fill="#434348" d="M 242 176.0 L 246 180.0 242 184.0 238 180.0 Z"></path><path fill="#434348" d="M 266 147.0 L 270 151.0 266 155.0 262 151.0 Z"></path><path fill="#434348" d="M 122 170.3 L 126 174.3 122 178.3 118 174.3 Z"></path><path fill="#434348" d="M 208 149.6 L 212 153.6 208 157.6 204 153.6 Z"></path><path fill="#434348" d="M 170 162.4 L 174 166.4 170 170.4 166 166.4 Z"></path><path fill="#434348" d="M 208 119.8 L 212 123.8 208 127.8 204 123.8 Z"></path><path fill="#434348" d="M 247 139.4 L 251 143.4 247 147.4 243 143.4 Z"></path><path fill="#434348" d="M 142 179.1 L 146 183.1 142 187.1 138 183.1 Z"></path><path fill="#434348" d="M 228 178.0 L 232 182.0 228 186.0 224 182.0 Z"></path><path fill="#434348" d="M 170 96.8 L 174 100.8 170 104.8 166 100.8 Z"></path><path fill="#434348" d="M 228 140.5 L 232 144.5 228 148.5 224 144.5 Z"></path><path fill="#434348" d="M 93 165.2 L 97 169.2 93 173.2 89 169.2 Z"></path><path fill="#434348" d="M 151 178.0 L 155 182.0 151 186.0 147 182.0 Z"></path><path fill="#434348" d="M 199 180.6 L 203 184.6 199 188.6 195 184.6 Z"></path><path fill="#434348" d="M 189 131.4 L 193 135.4 189 139.4 185 135.4 Z"></path><path fill="#434348" d="M 170 194.8 L 174 198.8 170 202.8 166 198.8 Z"></path><path fill="#434348" d="M 189 154.7 L 193 158.7 189 162.7 185 158.7 Z"></path><path fill="#434348" d="M 218 175.4 L 222 179.4 218 183.4 214 179.4 Z"></path><path fill="#434348" d="M 151 167.8 L 155 171.8 151 175.8 147 171.8 Z"></path><path fill="#434348" d="M 170 157.3 L 174 161.3 170 165.3 166 161.3 Z"></path><path fill="#434348" d="M 161 156.1 L 165 160.1 161 164.1 157 160.1 Z"></path><path fill="#434348" d="M 132 177.7 L 136 181.7 132 185.7 128 181.7 Z"></path><path fill="#434348" d="M 145 189.6 L 149 193.6 145 197.6 141 193.6 Z"></path><path fill="#434348" d="M 230 153.6 L 234 157.6 230 161.6 226 157.6 Z"></path><path fill="#434348" d="M 149 185.7 L 153 189.7 149 193.7 145 189.7 Z"></path><path fill="#434348" d="M 252 187.1 L 256 191.1 252 195.1 248 191.1 Z"></path><path fill="#434348" d="M 167 168.6 L 171 172.6 167 176.6 163 172.6 Z"></path><path fill="#434348" d="M 120 181.7 L 124 185.7 120 189.7 116 185.7 Z"></path><path fill="#434348" d="M 208 172.6 L 212 176.6 208 180.6 204 176.6 Z"></path><path fill="#434348" d="M 136 179.1 L 140 183.1 136 187.1 132 183.1 Z"></path><path fill="#434348" d="M 204 160.1 L 208 164.1 204 168.1 200 164.1 Z"></path><path fill="#434348" d="M 151 198.2 L 155 202.2 151 206.2 147 202.2 Z"></path><path fill="#434348" d="M 120 153.9 L 124 157.9 120 161.9 116 157.9 Z"></path><path fill="#434348" d="M 137 205.0 L 141 209.0 137 213.0 133 209.0 Z"></path><path fill="#434348" d="M 218 164.9 L 222 168.9 218 172.9 214 168.9 Z"></path><path fill="#434348" d="M 151 214.1 L 155 218.1 151 222.1 147 218.1 Z"></path><path fill="#434348" d="M 151 181.1 L 155 185.1 151 189.1 147 185.1 Z"></path><path fill="#434348" d="M 204 166.9 L 208 170.9 204 174.9 200 170.9 Z"></path><path fill="#434348" d="M 172 172.0 L 176 176.0 172 180.0 168 176.0 Z"></path><path fill="#434348" d="M 158 182.3 L 162 186.3 158 190.3 154 186.3 Z"></path><path fill="#434348" d="M 181 184.0 L 185 188.0 181 192.0 177 188.0 Z"></path><path fill="#434348" d="M 124 145.9 L 128 149.9 124 153.9 120 149.9 Z"></path><path fill="#434348" d="M 113 197.0 L 117 201.0 113 205.0 109 201.0 Z"></path><path fill="#434348" d="M 247 160.7 L 251 164.7 247 168.7 243 164.7 Z"></path><path fill="#434348" d="M 175 176.6 L 179 180.6 175 184.6 171 180.6 Z"></path><path fill="#434348" d="M 132 169.8 L 136 173.8 132 177.8 128 173.8 Z"></path><path fill="#434348" d="M 71 209.5 L 75 213.5 71 217.5 67 213.5 Z"></path><path fill="#434348" d="M 161 165.8 L 165 169.8 161 173.8 157 169.8 Z"></path><path fill="#434348" d="M 167 194.2 L 171 198.2 167 202.2 163 198.2 Z"></path><path fill="#434348" d="M 175 183.4 L 179 187.4 175 191.4 171 187.4 Z"></path><path fill="#434348" d="M 151 209 L 155 213 151 217 147 213 Z"></path><path fill="#434348" d="M 160 180.0 L 164 184.0 160 188.0 156 184.0 Z"></path><path fill="#434348" d="M 208 157.8 L 212 161.8 208 165.8 204 161.8 Z"></path><path fill="#434348" d="M 147 201.6 L 151 205.6 147 209.6 143 205.6 Z"></path><path fill="#434348" d="M 210 169.2 L 214 173.2 210 177.2 206 173.2 Z"></path><path fill="#434348" d="M 222 156.7 L 226 160.7 222 164.7 218 160.7 Z"></path><path fill="#434348" d="M 177 189.6 L 181 193.6 177 197.6 173 193.6 Z"></path><path fill="#434348" d="M 247 38.0 L 251 42.0 247 46.0 243 42.0 Z"></path><path fill="#434348" d="M 202 176.0 L 206 180.0 202 184.0 198 180.0 Z"></path><path fill="#434348" d="M 215 151.6 L 219 155.6 215 159.6 211 155.6 Z"></path><path fill="#434348" d="M 173 132.3 L 177 136.3 173 140.3 169 136.3 Z"></path><path fill="#434348" d="M 183 166.9 L 187 170.9 183 174.9 179 170.9 Z"></path><path fill="#434348" d="M 287 136.2 L 291 140.2 287 144.2 283 140.2 Z"></path><path fill="#434348" d="M 240 177.1 L 244 181.1 240 185.1 236 181.1 Z"></path><path fill="#434348" d="M 250 170.9 L 254 174.9 250 178.9 246 174.9 Z"></path><path fill="#434348" d="M 218 140.8 L 222 144.8 218 148.8 214 144.8 Z"></path><path fill="#434348" d="M 213 185.1 L 217 189.1 213 193.1 209 189.1 Z"></path><path fill="#434348" d="M 83 128.9 L 87 132.9 83 136.9 79 132.9 Z"></path><path fill="#434348" d="M 158 184.5 L 162 188.5 158 192.5 154 188.5 Z"></path><path fill="#434348" d="M 173 168.1 L 177 172.1 173 176.1 169 172.1 Z"></path><path fill="#434348" d="M 300 147.0 L 304 151.0 300 155.0 296 151.0 Z"></path><path fill="#434348" d="M 143 178.8 L 147 182.8 143 186.8 139 182.8 Z"></path><path fill="#434348" d="M 172 172.6 L 176 176.6 172 180.6 168 176.6 Z"></path><path fill="#434348" d="M 143 198.7 L 147 202.7 143 206.7 139 202.7 Z"></path><path fill="#434348" d="M 170 188.5 L 174 192.5 170 196.5 166 192.5 Z"></path><path fill="#434348" d="M 146 207.0 L 150 211.0 146 215.0 142 211.0 Z"></path><path fill="#434348" d="M 198 170.3 L 202 174.3 198 178.3 194 174.3 Z"></path><path fill="#434348" d="M 219 171.5 L 223 175.5 219 179.5 215 175.5 Z"></path><path fill="#434348" d="M 161 156.7 L 165 160.7 161 164.7 157 160.7 Z"></path><path fill="#434348" d="M 226 178.0 L 230 182.0 226 186.0 222 182.0 Z"></path><path fill="#434348" d="M 250 140.2 L 254 144.2 250 148.2 246 144.2 Z"></path><path fill="#434348" d="M 149 194.8 L 153 198.8 149 202.8 145 198.8 Z"></path><path fill="#434348" d="M 109 197.6 L 113 201.6 109 205.6 105 201.6 Z"></path><path fill="#434348" d="M 175 166.9 L 179 170.9 175 174.9 171 170.9 Z"></path><path fill="#434348" d="M 223 186.8 L 227 190.8 223 194.8 219 190.8 Z"></path><path fill="#434348" d="M 182 133.4 L 186 137.4 182 141.4 178 137.4 Z"></path><path fill="#434348" d="M 229 152.7 L 233 156.7 229 160.7 225 156.7 Z"></path><path fill="#434348" d="M 170 171.5 L 174 175.5 170 179.5 166 175.5 Z"></path><path fill="#434348" d="M 226 139.7 L 230 143.7 226 147.7 222 143.7 Z"></path><path fill="#434348" d="M 273 145.9 L 277 149.9 273 153.9 269 149.9 Z"></path><path fill="#434348" d="M 226 136.2 L 230 140.2 226 144.2 222 140.2 Z"></path><path fill="#434348" d="M 113 206.4 L 117 210.4 113 214.4 109 210.4 Z"></path><path fill="#434348" d="M 160 181.1 L 164 185.1 160 189.1 156 185.1 Z"></path><path fill="#434348" d="M 181 178.6 L 185 182.6 181 186.6 177 182.6 Z"></path><path fill="#434348" d="M 219 159.3 L 223 163.3 219 167.3 215 163.3 Z"></path><path fill="#434348" d="M 90 168.3 L 94 172.3 90 176.3 86 172.3 Z"></path><path fill="#434348" d="M 177 194.8 L 181 198.8 177 202.8 173 198.8 Z"></path><path fill="#434348" d="M 185 188.2 L 189 192.2 185 196.2 181 192.2 Z"></path><path fill="#434348" d="M 83 198.4 L 87 202.4 83 206.4 79 202.4 Z"></path><path fill="#434348" d="M 208 178.6 L 212 182.6 208 186.6 204 182.6 Z"></path><path fill="#434348" d="M 247 163.2 L 251 167.2 247 171.2 243 167.2 Z"></path><path fill="#434348" d="M 257 121.8 L 261 125.8 257 129.8 253 125.8 Z"></path><path fill="#434348" d="M 196 185.7 L 200 189.7 196 193.7 192 189.7 Z"></path><path fill="#434348" d="M 166 181.4 L 170 185.4 166 189.4 162 185.4 Z"></path><path fill="#434348" d="M 158 109.6 L 162 113.6 158 117.6 154 113.6 Z"></path><path fill="#434348" d="M 194 129.1 L 198 133.1 194 137.1 190 133.1 Z"></path><path fill="#434348" d="M 173 160.7 L 177 164.7 173 168.7 169 164.7 Z"></path><path fill="#434348" d="M 151 125.7 L 155 129.7 151 133.7 147 129.7 Z"></path><path fill="#434348" d="M 120 187.1 L 124 191.1 120 195.1 116 191.1 Z"></path><path fill="#434348" d="M 185 165.5 L 189 169.5 185 173.5 181 169.5 Z"></path><path fill="#434348" d="M 189 160.7 L 193 164.7 189 168.7 185 164.7 Z"></path><path fill="#434348" d="M 192 166.4 L 196 170.4 192 174.4 188 170.4 Z"></path><path fill="#434348" d="M 304 164.4 L 308 168.4 304 172.4 300 168.4 Z"></path><path fill="#434348" d="M 213 181.1 L 217 185.1 213 189.1 209 185.1 Z"></path><path fill="#434348" d="M 132 182.5 L 136 186.5 132 190.5 128 186.5 Z"></path><path fill="#434348" d="M 93 204.7 L 97 208.7 93 212.7 89 208.7 Z"></path><path fill="#434348" d="M 175 178.0 L 179 182.0 175 186.0 171 182.0 Z"></path><path fill="#434348" d="M 156 140.5 L 160 144.5 156 148.5 152 144.5 Z"></path><path fill="#434348" d="M 208 163.5 L 212 167.5 208 171.5 204 167.5 Z"></path><path fill="#434348" d="M 132 166.9 L 136 170.9 132 174.9 128 170.9 Z"></path><path fill="#434348" d="M 226 129.7 L 230 133.7 226 137.7 222 133.7 Z"></path><path fill="#434348" d="M 151 194.2 L 155 198.2 151 202.2 147 198.2 Z"></path><path fill="#434348" d="M 189 177.1 L 193 181.1 189 185.1 185 181.1 Z"></path><path fill="#434348" d="M 208 171.2 L 212 175.2 208 179.2 204 175.2 Z"></path><path fill="#434348" d="M 161 165.5 L 165 169.5 161 173.5 157 169.5 Z"></path><path fill="#434348" d="M 151 194.2 L 155 198.2 151 202.2 147 198.2 Z"></path><path fill="#434348" d="M 208 182.0 L 212 186.0 208 190.0 204 186.0 Z"></path><path fill="#434348" d="M 179 170.6 L 183 174.6 179 178.6 175 174.6 Z"></path><path fill="#434348" d="M 218 159.8 L 222 163.8 218 167.8 214 163.8 Z"></path><path fill="#434348" d="M 199 176.0 L 203 180.0 199 184.0 195 180.0 Z"></path><path fill="#434348" d="M 161 143.9 L 165 147.9 161 151.9 157 147.9 Z"></path><path fill="#434348" d="M 152 188.8 L 156 192.8 152 196.8 148 192.8 Z"></path><path fill="#434348" d="M 226 128.9 L 230 132.9 226 136.9 222 132.9 Z"></path><path fill="#434348" d="M 167 184.5 L 171 188.5 167 192.5 163 188.5 Z"></path><path fill="#434348" d="M 90 206.7 L 94 210.7 90 214.7 86 210.7 Z"></path><path fill="#434348" d="M 151 182.3 L 155 186.3 151 190.3 147 186.3 Z"></path><path fill="#434348" d="M 275 101.0 L 279 105.0 275 109.0 271 105.0 Z"></path><path fill="#434348" d="M 166 180.6 L 170 184.6 166 188.6 162 184.6 Z"></path><path fill="#434348" d="M 108 205.5 L 112 209.5 108 213.5 104 209.5 Z"></path><path fill="#434348" d="M 151 203.3 L 155 207.3 151 211.3 147 207.3 Z"></path><path fill="#434348" d="M 230 144.2 L 234 148.2 230 152.2 226 148.2 Z"></path><path fill="#434348" d="M 301 145.6 L 305 149.6 301 153.6 297 149.6 Z"></path><path fill="#434348" d="M 249 166.9 L 253 170.9 249 174.9 245 170.9 Z"></path><path fill="#434348" d="M 257 182.0 L 261 186.0 257 190.0 253 186.0 Z"></path><path fill="#434348" d="M 228 130.0 L 232 134.0 228 138.0 224 134.0 Z"></path><path fill="#434348" d="M 275 87.4 L 279 91.4 275 95.4 271 91.4 Z"></path><path fill="#434348" d="M 202 174.3 L 206 178.3 202 182.3 198 178.3 Z"></path><path fill="#434348" d="M 264 102.5 L 268 106.5 264 110.5 260 106.5 Z"></path><path fill="#434348" d="M 147 193.0 L 151 197.0 147 201.0 143 197.0 Z"></path><path fill="#434348" d="M 208 141.4 L 212 145.4 208 149.4 204 145.4 Z"></path><path fill="#434348" d="M 128 201.0 L 132 205.0 128 209.0 124 205.0 Z"></path><path fill="#434348" d="M 264 128.9 L 268 132.9 264 136.9 260 132.9 Z"></path><path fill="#434348" d="M 213 197.0 L 217 201.0 213 205.0 209 201.0 Z"></path><path fill="#434348" d="M 54 195.3 L 58 199.3 54 203.3 50 199.3 Z"></path><path fill="#434348" d="M 151 194.8 L 155 198.8 151 202.8 147 198.8 Z"></path><path fill="#434348" d="M 101 217.5 L 105 221.5 101 225.5 97 221.5 Z"></path><path fill="#434348" d="M 248 159.3 L 252 163.3 248 167.3 244 163.3 Z"></path><path fill="#434348" d="M 233 182.8 L 237 186.8 233 190.8 229 186.8 Z"></path><path fill="#434348" d="M 245 180.0 L 249 184.0 245 188.0 241 184.0 Z"></path><path fill="#434348" d="M 152 123.2 L 156 127.2 152 131.2 148 127.2 Z"></path><path fill="#434348" d="M 273 147.0 L 277 151.0 273 155.0 269 151.0 Z"></path><path fill="#434348" d="M 196 138.5 L 200 142.5 196 146.5 192 142.5 Z"></path><path fill="#434348" d="M 144 201.6 L 148 205.6 144 209.6 140 205.6 Z"></path><path fill="#434348" d="M 226 169.2 L 230 173.2 226 177.2 222 173.2 Z"></path><path fill="#434348" d="M 119 184.5 L 123 188.5 119 192.5 115 188.5 Z"></path><path fill="#434348" d="M 128 157.8 L 132 161.8 128 165.8 124 161.8 Z"></path><path fill="#434348" d="M 147 197.0 L 151 201.0 147 205.0 143 201.0 Z"></path><path fill="#434348" d="M 207 169.2 L 211 173.2 207 177.2 203 173.2 Z"></path><path fill="#434348" d="M 160 190.2 L 164 194.2 160 198.2 156 194.2 Z"></path></g></g><text x="292" text-anchor="middle" class="highcharts-title"  style="color:#333333;font-size:18px;fill:#333333;width:520px;" y="24"><tspan>Height vs Weight</tspan></text><text x="292" text-anchor="middle" class="highcharts-subtitle"  style="color:#555555;fill:#555555;width:520px;" y="46"><tspan>Polygon series in Highcharts</tspan></text><g class="highcharts-legend"  transform="translate(457,178)"><g ><g><g class="highcharts-legend-item"  transform="translate(8,3)"><text x="21" style="color:#333333;font-size:12px;font-weight:bold;cursor:pointer;fill:#333333;" text-anchor="start"  y="15">Target</text><rect x="0" y="4" width="16" height="12"  fill="rgb(124,181,236)" fill-opacity="0.5"></rect></g><g class="highcharts-legend-item"  transform="translate(8,17)"><path fill="#434348" d="M 8 7 L 12 11 8 15 4 11 Z"></path><text x="21" y="15" style="color:#333333;font-size:12px;font-weight:bold;cursor:pointer;fill:#333333;" text-anchor="start" >Observations</text></g></g></g></g><g class="highcharts-axis-labels highcharts-xaxis-labels" ><text x="67" style="color:#606060;cursor:default;font-size:11px;fill:#606060;width:63px;text-overflow:clip;" text-anchor="middle" transform="translate(0,0)" y="364" opacity="1">140</text><text x="142.6" style="color:#606060;cursor:default;font-size:11px;fill:#606060;width:63px;text-overflow:clip;" text-anchor="middle" transform="translate(0,0)" y="364" opacity="1">150</text><text x="218.2" style="color:#606060;cursor:default;font-size:11px;fill:#606060;width:63px;text-overflow:clip;" text-anchor="middle" transform="translate(0,0)" y="364" opacity="1">160</text><text x="293.7" style="color:#606060;cursor:default;font-size:11px;fill:#606060;width:63px;text-overflow:clip;" text-anchor="middle" transform="translate(0,0)" y="364" opacity="1">170</text><text x="369.4" style="color:#606060;cursor:default;font-size:11px;fill:#606060;width:63px;text-overflow:clip;" text-anchor="middle" transform="translate(0,0)" y="364" opacity="1">180</text><text x="445" style="color:#606060;cursor:default;font-size:11px;fill:#606060;width:63px;text-overflow:clip;" text-anchor="middle" transform="translate(0,0)" y="364" opacity="1">190</text></g><g class="highcharts-axis-labels highcharts-yaxis-labels" ><text x="52" style="color:#606060;cursor:default;font-size:11px;fill:#606060;width:183px;text-overflow:clip;" text-anchor="end" transform="translate(0,0)" y="350" opacity="1">20</text><text x="52" style="color:#606060;cursor:default;font-size:11px;fill:#606060;width:183px;text-overflow:clip;" text-anchor="end" transform="translate(0,0)" y="293" opacity="1">40</text><text x="52" style="color:#606060;cursor:default;font-size:11px;fill:#606060;width:183px;text-overflow:clip;" text-anchor="end" transform="translate(0,0)" y="236" opacity="1">60</text><text x="52" style="color:#606060;cursor:default;font-size:11px;fill:#606060;width:183px;text-overflow:clip;" text-anchor="end" transform="translate(0,0)" y="179" opacity="1">80</text><text x="52" style="color:#606060;cursor:default;font-size:11px;fill:#606060;width:183px;text-overflow:clip;" text-anchor="end" transform="translate(0,0)" y="122" opacity="1">100</text><text x="52" style="color:#606060;cursor:default;font-size:11px;fill:#606060;width:183px;text-overflow:clip;" text-anchor="end" transform="translate(0,0)" y="66" opacity="1">120</text></g><g class="highcharts-tooltip"  style="cursor:default;padding:0;white-space:nowrap;" transform="translate(0,-9999)"><path fill="none" d="M 3 0 L 13 0 C 16 0 16 0 16 3 L 16 13 C 16 16 16 16 13 16 L 3 16 C 0 16 0 16 0 13 L 0 3 C 0 0 0 0 3 0"  stroke="black" stroke-opacity="0.0" stroke-width="5" transform="translate(1, 1)"></path><path fill="none" d="M 3 0 L 13 0 C 16 0 16 0 16 3 L 16 13 C 16 16 16 16 13 16 L 3 16 C 0 16 0 16 0 13 L 0 3 C 0 0 0 0 3 0"  stroke="black" stroke-opacity="0.0" stroke-width="3" transform="translate(1, 1)"></path><path fill="none" d="M 3 0 L 13 0 C 16 0 16 0 16 3 L 16 13 C 16 16 16 16 13 16 L 3 16 C 0 16 0 16 0 13 L 0 3 C 0 0 0 0 3 0"  stroke="black" stroke-opacity="0.1" stroke-width="1" transform="translate(1, 1)"></path><path fill="rgb(249, 249, 249)" fill-opacity=" .85" d="M 3 0 L 13 0 C 16 0 16 0 16 3 L 16 13 C 16 16 16 16 13 16 L 3 16 C 0 16 0 16 0 13 L 0 3 C 0 0 0 0 3 0"></path><text x="8"  style="font-size:12px;color:#333333;fill:#333333;" transform="translate(0,20)"></text></g></svg>