<svg version="1.1" style="font-family:&quot;lucida grande&quot;, &quot;lucida sans unicode&quot;, arial, helvetica, sans-serif;font-size:12px;" xmlns="http://www.w3.org/2000/svg" width="584" height="400" viewBox="0 0 584 400"><desc>Created with Highcharts 4.1.4</desc><defs><clipPath id="highcharts-1"><rect x="0" y="0" width="474" height="338"></rect></clipPath></defs><rect x="0" y="0" width="584" height="400" strokeWidth="0" fill="#FFFFFF" class=" highcharts-background" stroke="transparent"></rect><g class="highcharts-series-group" ><g class="highcharts-series highcharts-tracker" visibility="visible"  transform="translate(10,47) scale(1 1)" style=""><path fill="#7cb5ec" d="M 23.6 338 L 450.3 338 308.3 113.1 165.6 113.1 Z" stroke="#FFFFFF" stroke-width="1"></path><path fill="#434348" d="M 165.6 113.1 L 308.3 113.1 271.5 54.7 202.4 54.7 Z" stroke="#FFFFFF" stroke-width="1"></path><path fill="#90ed7d" d="M 202.4 54.7 L 271.5 54.7 253.5 26.1 220.4 26.1 Z" stroke="#FFFFFF" stroke-width="1"></path><path fill="#f7a35c" d="M 220.4 26.1 L 253.5 26.1 244.6 12.1 229.3 12.1 Z" stroke="#FFFFFF" stroke-width="1"></path><path fill="#8085e9" d="M 229.3 12.1 L 244.6 12.1 237 0 237 0 Z" stroke="#FFFFFF" stroke-width="1"></path></g><g class="highcharts-markers" visibility="visible"  transform="translate(10,47) scale(1 1)"></g></g><text x="242" text-anchor="middle" class="highcharts-title"  style="color:#333333;font-size:18px;fill:#333333;width:520px;" y="24"><tspan>Sales pyramid</tspan></text><g class="highcharts-data-labels highcharts-tracker" visibility="visible"  transform="translate(10,47) scale(1 1)" style=""><path fill="none" d="M 414.3 225.5 C 409.3 225.5 389.3 225.5 384.3 225.5 L 379.3 225.5" stroke="#606060" stroke-width="1" visibility="visible"></path><path fill="none" d="M 324.9 83.9 C 319.9 83.9 299.9 83.9 294.9 83.9 L 289.9 83.9" stroke="#606060" stroke-width="1" visibility="visible"></path><path fill="none" d="M 301.0 46 C 296.0 46 272.5 40.4 267.5 40.4 L 262.5 40.4" stroke="#606060" stroke-width="1" visibility="visible"></path><path fill="none" d="M 286.5 23 C 281.5 23 259.0 19.1 254.0 19.1 L 249.0 19.1" stroke="#606060" stroke-width="1" visibility="visible"></path><path fill="none" d="M 275.8 0 C 270.8 0 250.8 6.0 245.8 6.0 L 240.8 6.0" stroke="#606060" stroke-width="1" visibility="visible"></path><g  style="" transform="translate(419,216)" visibility="visible"><text x="5"  style="font-size: 11px; font-weight: bold; color: black; fill: #000000; text-shadow: rgb(255, 255, 255) 0px 0px 6px, rgb(255, 255, 255) 0px 0px 3px; " transform="translate(0,16)"><tspan style="font-weight:bold">Website visits</tspan><tspan dx="0"> (15 654)</tspan></text></g><g  style="" transform="translate(330,74)" visibility="visible"><text x="5"  style="font-size: 11px; font-weight: bold; color: black; fill: #000000; text-shadow: rgb(255, 255, 255) 0px 0px 6px, rgb(255, 255, 255) 0px 0px 3px; " transform="translate(0,16)"><tspan style="font-weight:bold">Downloads</tspan><tspan dx="0"> (4 064)</tspan></text></g><g  style="" transform="translate(306,36)" visibility="visible"><text x="5"  style="font-size: 11px; font-weight: bold; color: black; fill: #000000; text-shadow: rgb(255, 255, 255) 0px 0px 6px, rgb(255, 255, 255) 0px 0px 3px; " transform="translate(0,16)"><tspan style="font-weight:bold">Requested price list</tspan><tspan dx="0"> (1 987)</tspan></text></g><g  style="" transform="translate(292,13)" visibility="visible"><text x="5"  style="font-size: 11px; font-weight: bold; color: black; fill: #000000; text-shadow: rgb(255, 255, 255) 0px 0px 6px, rgb(255, 255, 255) 0px 0px 3px; " transform="translate(0,16)"><tspan style="font-weight:bold">Invoice sent</tspan><tspan dx="0"> (976)</tspan></text></g><g  style="" transform="translate(281,-10)" visibility="visible"><text x="5"  style="font-size: 11px; font-weight: bold; color: black; fill: #000000; text-shadow: rgb(255, 255, 255) 0px 0px 6px, rgb(255, 255, 255) 0px 0px 3px; " transform="translate(0,16)"><tspan style="font-weight:bold">Finalized</tspan><tspan dx="0"> (846)</tspan></text></g></g><g class="highcharts-tooltip"  style="cursor:default;padding:0;white-space:nowrap;" transform="translate(0,-9999)"><path fill="none" d="M 3 0 L 13 0 C 16 0 16 0 16 3 L 16 13 C 16 16 16 16 13 16 L 3 16 C 0 16 0 16 0 13 L 0 3 C 0 0 0 0 3 0"  stroke="black" stroke-opacity="0.0" stroke-width="5" transform="translate(1, 1)"></path><path fill="none" d="M 3 0 L 13 0 C 16 0 16 0 16 3 L 16 13 C 16 16 16 16 13 16 L 3 16 C 0 16 0 16 0 13 L 0 3 C 0 0 0 0 3 0"  stroke="black" stroke-opacity="0.0" stroke-width="3" transform="translate(1, 1)"></path><path fill="none" d="M 3 0 L 13 0 C 16 0 16 0 16 3 L 16 13 C 16 16 16 16 13 16 L 3 16 C 0 16 0 16 0 13 L 0 3 C 0 0 0 0 3 0"  stroke="black" stroke-opacity="0.1" stroke-width="1" transform="translate(1, 1)"></path><path fill="rgb(249, 249, 249)" fill-opacity=" .85" d="M 3 0 L 13 0 C 16 0 16 0 16 3 L 16 13 C 16 16 16 16 13 16 L 3 16 C 0 16 0 16 0 13 L 0 3 C 0 0 0 0 3 0"></path><text x="8"  style="font-size:12px;color:#333333;fill:#333333;" transform="translate(0,20)"></text></g></svg>