<svg version="1.1" style="font-family:&quot;lucida grande&quot;, &quot;lucida sans unicode&quot;, arial, helvetica, sans-serif;font-size:12px;" xmlns="http://www.w3.org/2000/svg" width="600" height="250" viewBox="0 0 600 250"><desc>Created with Highcharts 4.1.4</desc><defs><clipPath id="highcharts-1"><rect x="0" y="0" width="580" height="188"></rect></clipPath></defs><rect x="0" y="0" width="600" height="250" strokeWidth="0" fill="white" class=" highcharts-background" stroke="transparent"></rect><path fill="none" d="M 120 40 L 120 330" stroke="silver" stroke-width="2" stroke-dasharray="8,6"></path><path fill="none" d="M 420 40 L 420 330" stroke="silver" stroke-width="2" stroke-dasharray="8,6"></path><g style="" transform="translate(20,40)"><text x="3"  style="font-weight:bold;" transform="translate(0,15)"><tspan>Web client</tspan></text></g><g style="" transform="translate(220,40)"><text x="3"  style="font-weight:bold;" transform="translate(0,15)"><tspan>Web service / CLI</tspan></text></g><g style="" transform="translate(440,40)"><text x="3"  style="font-weight:bold;" transform="translate(0,15)"><tspan>Command line client</tspan></text></g><g style="" transform="translate(10,82)"><rect x="0" y="0" width="74" height="54" strokeWidth="2" fill="none" stroke="black" stroke-width="5" rx="5" ry="5"  stroke-opacity="0.0" transform="translate(1, 1)"></rect><rect x="0" y="0" width="74" height="54" strokeWidth="2" fill="none" stroke="black" stroke-width="3" rx="5" ry="5"  stroke-opacity="0.0" transform="translate(1, 1)"></rect><rect x="0" y="0" width="74" height="54" strokeWidth="2" fill="none" stroke="black" stroke-width="1" rx="5" ry="5"  stroke-opacity="0.1" transform="translate(1, 1)"></rect><rect x="0" y="0" width="74" height="54" strokeWidth="2" fill="#7cb5ec" stroke="white" stroke-width="2" rx="5" ry="5"></rect><text x="5"  style="color:white;fill:white;" transform="translate(0,17)"><tspan>SaaS client</tspan><tspan x="5" dy="15">(browser or</tspan><tspan x="5" dy="15">script)</tspan></text></g><path fill="none" d="M 0 0 L 100 0 L 95 5 M 100 0 L 95 -5" stroke="#f7a35c" stroke-width="2" transform="translate(95,95)"></path><g style="" transform="translate(90,75)"><text x="3"  style="font-size:10px;color:#f7a35c;fill:#f7a35c;" transform="translate(0,13)"><tspan>POST options in JSON</tspan></text></g><g style="" transform="translate(210,82)"><rect x="0" y="0" width="106" height="20" fill="#434348" rx="5" ry="5"></rect><text x="3"  style="font-weight:bold;color:white;fill:white;" transform="translate(0,15)">PhantomJS</text></g><path fill="none" d="M 250 110 L 250 185 L 245 180 M 250 185 L 255 180" stroke="#f7a35c" stroke-width="2"></path><g style="" transform="translate(255,120)"><text x="3"  style="font-size:10px;color:#f7a35c;fill:#f7a35c;" transform="translate(0,13)">SVG</text></g><g style="" transform="translate(210,200)"><rect x="0" y="0" width="106" height="20" fill="#434348" rx="5" ry="5"></rect><text x="3"  style="font-weight:bold;color:white;fill:white;" transform="translate(0,15)">Batik</text></g><path fill="none" d="M 235 185 L 235 155 C 235 130 235 130 215 130 L 95 130 L 100 125 M 95 130 L 100 135" stroke="#f7a35c" stroke-width="2"></path><g style="" transform="translate(100,110)"><text x="3"  style="font-size:10px;color:#f7a35c;fill:#f7a35c;" transform="translate(0,13)"><tspan>Rasterized image</tspan></text></g><g style="" transform="translate(10,180)"><rect x="0" y="0" width="67" height="54" strokeWidth="2" fill="none" stroke="black" stroke-width="5" rx="5" ry="5"  stroke-opacity="0.0" transform="translate(1, 1)"></rect><rect x="0" y="0" width="67" height="54" strokeWidth="2" fill="none" stroke="black" stroke-width="3" rx="5" ry="5"  stroke-opacity="0.0" transform="translate(1, 1)"></rect><rect x="0" y="0" width="67" height="54" strokeWidth="2" fill="none" stroke="black" stroke-width="1" rx="5" ry="5"  stroke-opacity="0.1" transform="translate(1, 1)"></rect><rect x="0" y="0" width="67" height="54" strokeWidth="2" fill="#7cb5ec" stroke="white" stroke-width="2" rx="5" ry="5"></rect><text x="5"  style="color:white;width:100px;fill:white;" transform="translate(0,17)"><tspan>Browser</tspan><tspan x="5" dy="15">running</tspan><tspan x="5" dy="15">Highcharts</tspan></text></g><path fill="none" d="M 0 0 L 100 0 L 95 5 M 100 0 L 95 -5" stroke="#434348" stroke-width="2" transform="translate(95,205)"></path><g style="" transform="translate(110,185)"><text x="3"  style="font-size:10px;color:#434348;fill:#434348;" transform="translate(0,13)"><tspan>POST SVG</tspan></text></g><path fill="none" d="M 100 0 L 0 0 L 5 5 M 0 0 L 5 -5" stroke="#434348" stroke-width="2" transform="translate(95,215)"></path><g style="" transform="translate(100,215)"><text x="3"  style="font-size:10px;color:#434348;fill:#434348;" transform="translate(0,13)"><tspan>Rasterized image</tspan></text></g><g style="" transform="translate(450,82)"><rect x="0" y="0" width="41" height="24" strokeWidth="2" fill="none" stroke="black" stroke-width="5" rx="5" ry="5"  stroke-opacity="0.0" transform="translate(1, 1)"></rect><rect x="0" y="0" width="41" height="24" strokeWidth="2" fill="none" stroke="black" stroke-width="3" rx="5" ry="5"  stroke-opacity="0.0" transform="translate(1, 1)"></rect><rect x="0" y="0" width="41" height="24" strokeWidth="2" fill="none" stroke="black" stroke-width="1" rx="5" ry="5"  stroke-opacity="0.1" transform="translate(1, 1)"></rect><rect x="0" y="0" width="41" height="24" strokeWidth="2" fill="#90ed7d" stroke="white" stroke-width="2" rx="5" ry="5"></rect><text x="5"  style="color:white;width:100px;fill:white;" transform="translate(0,17)">Script</text></g><path fill="none" d="M 100 0 L 0 0 L 5 5 M 0 0 L 5 -5" stroke="#90ed7d" stroke-width="2" transform="translate(330,90)"></path><g style="" transform="translate(340,70)"><text x="3"  style="font-size:10px;color:#90ed7d;fill:#90ed7d;" transform="translate(0,13)">Command</text></g><path fill="none" d="M 0 0 L 100 0 L 95 5 M 100 0 L 95 -5" stroke="#90ed7d" stroke-width="2" transform="translate(330,100)"></path><g style="" transform="translate(330,100)"><text x="3"  style="font-size:10px;color:#90ed7d;fill:#90ed7d;" transform="translate(0,13)"><tspan>Rasterized image</tspan></text></g><g class="highcharts-series-group" ></g><text x="300" text-anchor="middle" class="highcharts-title"  style="color:black;font-size:18px;fill:black;width:536px;" y="24"><tspan>Highcharts export server overview</tspan></text><g class="highcharts-legend" ><g ><g></g></g></g><g class="highcharts-tooltip"  style="cursor:default;padding:0;white-space:nowrap;" transform="translate(0,-9999)"><path fill="none" d="M 3 0 L 13 0 C 16 0 16 0 16 3 L 16 13 C 16 16 16 16 13 16 L 3 16 C 0 16 0 16 0 13 L 0 3 C 0 0 0 0 3 0"  stroke="black" stroke-opacity="0.0" stroke-width="5" transform="translate(1, 1)"></path><path fill="none" d="M 3 0 L 13 0 C 16 0 16 0 16 3 L 16 13 C 16 16 16 16 13 16 L 3 16 C 0 16 0 16 0 13 L 0 3 C 0 0 0 0 3 0"  stroke="black" stroke-opacity="0.0" stroke-width="3" transform="translate(1, 1)"></path><path fill="none" d="M 3 0 L 13 0 C 16 0 16 0 16 3 L 16 13 C 16 16 16 16 13 16 L 3 16 C 0 16 0 16 0 13 L 0 3 C 0 0 0 0 3 0"  stroke="black" stroke-opacity="0.1" stroke-width="1" transform="translate(1, 1)"></path><path fill="rgb(249, 249, 249)" fill-opacity=" .85" d="M 3 0 L 13 0 C 16 0 16 0 16 3 L 16 13 C 16 16 16 16 13 16 L 3 16 C 0 16 0 16 0 13 L 0 3 C 0 0 0 0 3 0"></path><text x="8"  style="font-size:12px;color:#333333;fill:#333333;" transform="translate(0,20)"></text></g></svg>