<svg version="1.1" style="font-family:&quot;lucida grande&quot;, &quot;lucida sans unicode&quot;, arial, helvetica, sans-serif;font-size:12px;" xmlns="http://www.w3.org/2000/svg" width="584" height="400" viewBox="0 0 584 400"><desc>Created with Highcharts 4.1.4</desc><defs><clipPath id="highcharts-1"><rect x="0" y="0" width="513" height="289"></rect></clipPath></defs><rect x="0" y="0" width="584" height="400" strokeWidth="0" fill="#FFFFFF" class=" highcharts-background" stroke="transparent"></rect><g class="highcharts-grid" ></g><g class="highcharts-grid" ><path fill="none" d="M 61 350.5 L 574 350.5" stroke="#D8D8D8" stroke-width="1"  opacity="1"></path><path fill="none" d="M 61 302.5 L 574 302.5" stroke="#D8D8D8" stroke-width="1"  opacity="1"></path><path fill="none" d="M 61 254.5 L 574 254.5" stroke="#D8D8D8" stroke-width="1"  opacity="1"></path><path fill="none" d="M 61 206.5 L 574 206.5" stroke="#D8D8D8" stroke-width="1"  opacity="1"></path><path fill="none" d="M 61 157.5 L 574 157.5" stroke="#D8D8D8" stroke-width="1"  opacity="1"></path><path fill="none" d="M 61 109.5 L 574 109.5" stroke="#D8D8D8" stroke-width="1"  opacity="1"></path><path fill="none" d="M 61 60.5 L 574 60.5" stroke="#D8D8D8" stroke-width="1"  opacity="1"></path></g><g class="highcharts-axis" ><path fill="none" d="M 146.5 350 L 146.5 360" stroke="#C0D0E0" stroke-width="1" opacity="1"></path><path fill="none" d="M 231.5 350 L 231.5 360" stroke="#C0D0E0" stroke-width="1" opacity="1"></path><path fill="none" d="M 317.5 350 L 317.5 360" stroke="#C0D0E0" stroke-width="1" opacity="1"></path><path fill="none" d="M 402.5 350 L 402.5 360" stroke="#C0D0E0" stroke-width="1" opacity="1"></path><path fill="none" d="M 488.5 350 L 488.5 360" stroke="#C0D0E0" stroke-width="1" opacity="1"></path><path fill="none" d="M 574.5 350 L 574.5 360" stroke="#C0D0E0" stroke-width="1" opacity="1"></path><path fill="none" d="M 60.5 350 L 60.5 360" stroke="#C0D0E0" stroke-width="1" opacity="1"></path><path fill="none" d="M 61 350.5 L 574 350.5" stroke="#C0D0E0" stroke-width="1"  visibility="visible"></path></g><g class="highcharts-axis" ><text x="24"  text-anchor="middle" transform="translate(0,0) rotate(270 24 205.5)" class=" highcharts-yaxis-title" style="color:#707070;fill:#707070;" visibility="visible" y="205.5"><tspan>Total percent market share</tspan></text></g><g class="highcharts-series-group" ><g class="highcharts-series highcharts-tracker" visibility="visible"  transform="translate(61,61) scale(1 1)" style="" clip-path="url(#highcharts-1)"><rect x="22" y="32" width="42" height="258" fill="#7cb5ec" rx="0" ry="0" class="highcharts-drilldown-point" style="cursor:pointer;"></rect><rect x="108" y="200" width="42" height="90" fill="#434348" rx="0" ry="0" class="highcharts-drilldown-point" style="cursor:pointer;"></rect><rect x="193" y="194" width="42" height="96" fill="#90ed7d" rx="0" ry="0" class="highcharts-drilldown-point" style="cursor:pointer;"></rect><rect x="279" y="268" width="42" height="22" fill="#f7a35c" rx="0" ry="0" class="highcharts-drilldown-point" style="cursor:pointer;"></rect><rect x="364" y="283" width="42" height="7" fill="#8085e9" rx="0" ry="0" class="highcharts-drilldown-point" style="cursor:pointer;"></rect><rect x="450" y="289" width="42" height="1" fill="#f15c80" rx="0" ry="0"></rect></g><g class="highcharts-markers" visibility="visible"  transform="translate(61,61) scale(1 1)"></g></g><text x="292" text-anchor="middle" class="highcharts-title"  style="color:#333333;font-size:18px;fill:#333333;width:520px;" y="24"><tspan>Browser market shares. November, 2013</tspan></text><text x="292" text-anchor="middle" class="highcharts-subtitle"  style="color:#555555;fill:#555555;width:520px;" y="46"><tspan>Click the columns to view versions. Source: netmarketshare.com.</tspan></text><g class="highcharts-data-labels highcharts-tracker" visibility="visible"  transform="translate(61,61) scale(1 1)" style=""><g  style="cursor:pointer;" transform="translate(20,9)" class="highcharts-drilldown-data-label"><text x="5"  style="font-size:11px;font-weight:bold;color:#0d233a;text-shadow:0 0 6px contrast, 0 0 3px contrast;fill:#0d233a;text-decoration:underline;" transform="translate(0,16)"><tspan>53.6%</tspan></text></g><g  style="cursor:pointer;" transform="translate(106,177)" class="highcharts-drilldown-data-label"><text x="5"  style="font-size:11px;font-weight:bold;color:#0d233a;text-shadow:0 0 6px contrast, 0 0 3px contrast;fill:#0d233a;text-decoration:underline;" transform="translate(0,16)"><tspan>18.7%</tspan></text></g><g  style="cursor:pointer;" transform="translate(191,171)" class="highcharts-drilldown-data-label"><text x="5"  style="font-size:11px;font-weight:bold;color:#0d233a;text-shadow:0 0 6px contrast, 0 0 3px contrast;fill:#0d233a;text-decoration:underline;" transform="translate(0,16)"><tspan>19.9%</tspan></text></g><g  style="cursor:pointer;" transform="translate(280,245)" class="highcharts-drilldown-data-label"><text x="5"  style="font-size:11px;font-weight:bold;color:#0d233a;text-shadow:0 0 6px contrast, 0 0 3px contrast;fill:#0d233a;text-decoration:underline;" transform="translate(0,16)"><tspan>4.6%</tspan></text></g><g  style="cursor:pointer;" transform="translate(365,260)" class="highcharts-drilldown-data-label"><text x="5"  style="font-size:11px;font-weight:bold;color:#0d233a;text-shadow:0 0 6px contrast, 0 0 3px contrast;fill:#0d233a;text-decoration:underline;" transform="translate(0,16)"><tspan>1.5%</tspan></text></g><g  style="" transform="translate(451,266)"><text x="5"  style="font-size: 11px; font-weight: bold; color: rgb(0, 0, 0); fill: #000000; text-shadow: rgb(255, 255, 255) 0px 0px 6px, rgb(255, 255, 255) 0px 0px 3px; " transform="translate(0,16)"><tspan>0.3%</tspan></text></g></g><g class="highcharts-axis-labels highcharts-xaxis-labels" ><text x="103.7" style="color:#0d233a;cursor:pointer;font-size:11px;fill:#0d233a;width:84px;text-overflow:clip;font-weight:bold;text-decoration:underline;" text-anchor="middle" transform="translate(0,0)" y="369" opacity="1" class=" highcharts-drilldown-axis-label"><tspan>Microsoft</tspan><tspan dy="14" x="103.7">Internet</tspan><tspan dy="14" x="103.7">Explorer </tspan><title>Microsoft Internet Explorer </title></text><text x="189.2" style="color:#0d233a;cursor:pointer;font-size:11px;fill:#0d233a;width:84px;text-overflow:clip;font-weight:bold;text-decoration:underline;" text-anchor="middle" transform="translate(0,0)" y="369" opacity="1" class=" highcharts-drilldown-axis-label"><tspan>Chrome </tspan></text><text x="274.7" style="color:#0d233a;cursor:pointer;font-size:11px;fill:#0d233a;width:84px;text-overflow:clip;font-weight:bold;text-decoration:underline;" text-anchor="middle" transform="translate(0,0)" y="369" opacity="1" class=" highcharts-drilldown-axis-label"><tspan>Firefox </tspan></text><text x="360.2" style="color:#0d233a;cursor:pointer;font-size:11px;fill:#0d233a;width:84px;text-overflow:clip;font-weight:bold;text-decoration:underline;" text-anchor="middle" transform="translate(0,0)" y="369" opacity="1" class=" highcharts-drilldown-axis-label"><tspan>Safari </tspan></text><text x="445.7" style="color:#0d233a;cursor:pointer;font-size:11px;fill:#0d233a;width:84px;text-overflow:clip;font-weight:bold;text-decoration:underline;" text-anchor="middle" transform="translate(0,0)" y="369" opacity="1" class=" highcharts-drilldown-axis-label"><tspan>Opera </tspan></text><text x="531.2" style="color:#606060;cursor:default;font-size:11px;fill:#606060;width:84px;text-overflow:clip;" text-anchor="middle" transform="translate(0,0)" y="369" opacity="1"><tspan>Proprietary or</tspan><tspan dy="14" x="531.2">Undetectable</tspan><title>Proprietary or Undetectable</title></text></g><g class="highcharts-axis-labels highcharts-yaxis-labels" ><text x="46" style="color:#606060;cursor:default;font-size:11px;fill:#606060;width:183px;text-overflow:clip;" text-anchor="end" transform="translate(0,0)" y="355" opacity="1">0</text><text x="46" style="color:#606060;cursor:default;font-size:11px;fill:#606060;width:183px;text-overflow:clip;" text-anchor="end" transform="translate(0,0)" y="306" opacity="1">10</text><text x="46" style="color:#606060;cursor:default;font-size:11px;fill:#606060;width:183px;text-overflow:clip;" text-anchor="end" transform="translate(0,0)" y="258" opacity="1">20</text><text x="46" style="color:#606060;cursor:default;font-size:11px;fill:#606060;width:183px;text-overflow:clip;" text-anchor="end" transform="translate(0,0)" y="210" opacity="1">30</text><text x="46" style="color:#606060;cursor:default;font-size:11px;fill:#606060;width:183px;text-overflow:clip;" text-anchor="end" transform="translate(0,0)" y="162" opacity="1">40</text><text x="46" style="color:#606060;cursor:default;font-size:11px;fill:#606060;width:183px;text-overflow:clip;" text-anchor="end" transform="translate(0,0)" y="114" opacity="1">50</text><text x="46" style="color:#606060;cursor:default;font-size:11px;fill:#606060;width:183px;text-overflow:clip;" text-anchor="end" transform="translate(0,0)" y="66" opacity="1">60</text></g><g class="highcharts-tooltip"  style="cursor:default;padding:0;white-space:nowrap;" transform="translate(0,-9999)"><path fill="none" d="M 3 0 L 13 0 C 16 0 16 0 16 3 L 16 13 C 16 16 16 16 13 16 L 3 16 C 0 16 0 16 0 13 L 0 3 C 0 0 0 0 3 0"  stroke="black" stroke-opacity="0.0" stroke-width="5" transform="translate(1, 1)"></path><path fill="none" d="M 3 0 L 13 0 C 16 0 16 0 16 3 L 16 13 C 16 16 16 16 13 16 L 3 16 C 0 16 0 16 0 13 L 0 3 C 0 0 0 0 3 0"  stroke="black" stroke-opacity="0.0" stroke-width="3" transform="translate(1, 1)"></path><path fill="none" d="M 3 0 L 13 0 C 16 0 16 0 16 3 L 16 13 C 16 16 16 16 13 16 L 3 16 C 0 16 0 16 0 13 L 0 3 C 0 0 0 0 3 0"  stroke="black" stroke-opacity="0.1" stroke-width="1" transform="translate(1, 1)"></path><path fill="rgb(249, 249, 249)" fill-opacity=" .85" d="M 3 0 L 13 0 C 16 0 16 0 16 3 L 16 13 C 16 16 16 16 13 16 L 3 16 C 0 16 0 16 0 13 L 0 3 C 0 0 0 0 3 0"></path><text x="8"  style="font-size:12px;color:#333333;fill:#333333;" transform="translate(0,20)"></text></g></svg>