<svg version="1.1" style="font-family:&quot;lucida grande&quot;, &quot;lucida sans unicode&quot;, arial, helvetica, sans-serif;font-size:12px;" xmlns="http://www.w3.org/2000/svg" width="584" height="400" viewBox="0 0 584 400"><desc>Created with Highcharts 4.1.4</desc><defs><clipPath id="highcharts-1"><rect x="0" y="0" width="450" height="280"></rect></clipPath></defs><rect x="0" y="0" width="584" height="400" strokeWidth="0" fill="#FFFFFF" class=" highcharts-background" stroke="transparent"></rect><g class="highcharts-grid" ></g><g class="highcharts-grid" ><path fill="none" d="M 67 327.5 L 517 327.5" stroke="#D8D8D8" stroke-width="1"  opacity="1"></path><path fill="none" d="M 67 257.5 L 517 257.5" stroke="#D8D8D8" stroke-width="1"  opacity="1"></path><path fill="none" d="M 67 187.5 L 517 187.5" stroke="#D8D8D8" stroke-width="1"  opacity="1"></path><path fill="none" d="M 67 117.5 L 517 117.5" stroke="#D8D8D8" stroke-width="1"  opacity="1"></path><path fill="none" d="M 67 46.5 L 517 46.5" stroke="#D8D8D8" stroke-width="1"  opacity="1"></path></g><g class="highcharts-grid" ><path fill="none" d="M 67 327.5 L 517 327.5" stroke="#D8D8D8" stroke-width="1"  opacity="1"></path><path fill="none" d="M 67 257.5 L 517 257.5" stroke="#D8D8D8" stroke-width="1"  opacity="1"></path><path fill="none" d="M 67 187.5 L 517 187.5" stroke="#D8D8D8" stroke-width="1"  opacity="1"></path><path fill="none" d="M 67 117.5 L 517 117.5" stroke="#D8D8D8" stroke-width="1"  opacity="1"></path><path fill="none" d="M 67 46.5 L 517 46.5" stroke="#D8D8D8" stroke-width="1"  opacity="1"></path></g><g class="highcharts-axis" ><path fill="none" d="M 216.5 327 L 216.5 337" stroke="#C0D0E0" stroke-width="1" opacity="1"></path><path fill="none" d="M 366.5 327 L 366.5 337" stroke="#C0D0E0" stroke-width="1" opacity="1"></path><path fill="none" d="M 517.5 327 L 517.5 337" stroke="#C0D0E0" stroke-width="1" opacity="1"></path><path fill="none" d="M 66.5 327 L 66.5 337" stroke="#C0D0E0" stroke-width="1" opacity="1"></path><path fill="none" d="M 67 327.5 L 517 327.5" stroke="#C0D0E0" stroke-width="1"  visibility="visible"></path></g><g class="highcharts-axis" ><text x="24"  text-anchor="middle" transform="translate(0,0) rotate(270 24 187)" class=" highcharts-yaxis-title" style="color:#707070;fill:#707070;" visibility="visible" y="187">Employees</text></g><g class="highcharts-axis" ><text x="560"  text-anchor="middle" transform="translate(0,0) rotate(90 560 187)" class=" highcharts-yaxis-title" style="color:#707070;fill:#707070;" visibility="visible" y="187"><tspan>Profit (millions)</tspan></text></g><g class="highcharts-series-group" ><g class="highcharts-series highcharts-tracker" visibility="visible"  transform="translate(67,47) scale(1 1)" style="" clip-path="url(#highcharts-1)"><rect x="27" y="71" width="36" height="210" fill="rgb(165,170,217)" fill-opacity="1" rx="0" ry="0"></rect><rect x="177" y="179" width="36" height="102" fill="rgb(165,170,217)" fill-opacity="1" rx="0" ry="0"></rect><rect x="327" y="253" width="36" height="28" fill="rgb(165,170,217)" fill-opacity="1" rx="0" ry="0"></rect></g><g class="highcharts-markers" visibility="visible"  transform="translate(67,47) scale(1 1)"></g><g class="highcharts-series highcharts-tracker" visibility="visible"  transform="translate(67,47) scale(1 1)" style="" clip-path="url(#highcharts-1)"><rect x="36" y="85" width="18" height="196" fill="rgb(126,86,134)" fill-opacity=".9" rx="0" ry="0"></rect><rect x="186" y="155" width="18" height="126" fill="rgb(126,86,134)" fill-opacity=".9" rx="0" ry="0"></rect><rect x="336" y="225" width="18" height="56" fill="rgb(126,86,134)" fill-opacity=".9" rx="0" ry="0"></rect></g><g class="highcharts-markers" visibility="visible"  transform="translate(67,47) scale(1 1)"></g><g class="highcharts-series highcharts-tracker" visibility="visible"  transform="translate(67,47) scale(1 1)" style="" clip-path="url(#highcharts-1)"><rect x="87" y="152" width="36" height="129" fill="rgb(248,161,63)" fill-opacity="1" rx="0" ry="0"></rect><rect x="237" y="156" width="36" height="125" fill="rgb(248,161,63)" fill-opacity="1" rx="0" ry="0"></rect><rect x="387" y="142" width="36" height="139" fill="rgb(248,161,63)" fill-opacity="1" rx="0" ry="0"></rect></g><g class="highcharts-markers" visibility="visible"  transform="translate(67,47) scale(1 1)"></g><g class="highcharts-series highcharts-tracker" visibility="visible"  transform="translate(67,47) scale(1 1)" style="" clip-path="url(#highcharts-1)"><rect x="96" y="138" width="18" height="143" fill="rgb(186,60,61)" fill-opacity=".9" rx="0" ry="0"></rect><rect x="246" y="142" width="18" height="139" fill="rgb(186,60,61)" fill-opacity=".9" rx="0" ry="0"></rect><rect x="396" y="135" width="18" height="146" fill="rgb(186,60,61)" fill-opacity=".9" rx="0" ry="0"></rect></g><g class="highcharts-markers" visibility="visible"  transform="translate(67,47) scale(1 1)"></g></g><text x="292" text-anchor="middle" class="highcharts-title"  style="color:#333333;font-size:18px;fill:#333333;width:520px;" y="24"><tspan>Efficiency Optimization by Branch</tspan></text><g class="highcharts-legend"  transform="translate(48,360)"><g ><g><g class="highcharts-legend-item"  transform="translate(8,3)"><text x="21" style="color:#333333;font-size:12px;font-weight:bold;cursor:pointer;fill:#333333;" text-anchor="start"  y="15">Employees</text><rect x="0" y="4" width="16" height="12"  fill="rgb(165,170,217)" fill-opacity="1"></rect></g><g class="highcharts-legend-item"  transform="translate(113,3)"><text x="21" y="15" style="color:#333333;font-size:12px;font-weight:bold;cursor:pointer;fill:#333333;" text-anchor="start" ><tspan>Employees Optimized</tspan></text><rect x="0" y="4" width="16" height="12"  fill="rgb(126,86,134)" fill-opacity=".9"></rect></g><g class="highcharts-legend-item"  transform="translate(283,3)"><text x="21" y="15" style="color:#333333;font-size:12px;font-weight:bold;cursor:pointer;fill:#333333;" text-anchor="start" >Profit</text><rect x="0" y="4" width="16" height="12"  fill="rgb(248,161,63)" fill-opacity="1"></rect></g><g class="highcharts-legend-item"  transform="translate(359,3)"><text x="21" y="15" style="color:#333333;font-size:12px;font-weight:bold;cursor:pointer;fill:#333333;" text-anchor="start" ><tspan>Profit Optimized</tspan></text><rect x="0" y="4" width="16" height="12"  fill="rgb(186,60,61)" fill-opacity=".9"></rect></g></g></g></g><g class="highcharts-axis-labels highcharts-xaxis-labels" ><text x="142" style="color:#606060;cursor:default;font-size:11px;fill:#606060;width:140px;text-overflow:clip;" text-anchor="middle" transform="translate(0,0)" y="346" opacity="1"><tspan>Seattle HQ</tspan></text><text x="292" style="color:#606060;cursor:default;font-size:11px;fill:#606060;width:140px;text-overflow:clip;" text-anchor="middle" transform="translate(0,0)" y="346" opacity="1"><tspan>San Francisco</tspan></text><text x="442" style="color:#606060;cursor:default;font-size:11px;fill:#606060;width:140px;text-overflow:clip;" text-anchor="middle" transform="translate(0,0)" y="346" opacity="1">Tokyo</text></g><g class="highcharts-axis-labels highcharts-yaxis-labels" ><text x="52" style="color:#606060;cursor:default;font-size:11px;fill:#606060;width:183px;text-overflow:clip;" text-anchor="end" transform="translate(0,0)" y="332" opacity="1">0</text><text x="52" style="color:#606060;cursor:default;font-size:11px;fill:#606060;width:183px;text-overflow:clip;" text-anchor="end" transform="translate(0,0)" y="262" opacity="1">50</text><text x="52" style="color:#606060;cursor:default;font-size:11px;fill:#606060;width:183px;text-overflow:clip;" text-anchor="end" transform="translate(0,0)" y="192" opacity="1">100</text><text x="52" style="color:#606060;cursor:default;font-size:11px;fill:#606060;width:183px;text-overflow:clip;" text-anchor="end" transform="translate(0,0)" y="122" opacity="1">150</text><text x="52" style="color:#606060;cursor:default;font-size:11px;fill:#606060;width:183px;text-overflow:clip;" text-anchor="end" transform="translate(0,0)" y="52" opacity="1">200</text></g><g class="highcharts-axis-labels highcharts-yaxis-labels" ><text x="532" style="color:#606060;cursor:default;font-size:11px;fill:#606060;width:183px;text-overflow:clip;" text-anchor="start" transform="translate(0,0)" y="332" opacity="1">0</text><text x="532" style="color:#606060;cursor:default;font-size:11px;fill:#606060;width:183px;text-overflow:clip;" text-anchor="start" transform="translate(0,0)" y="262" opacity="1">100</text><text x="532" style="color:#606060;cursor:default;font-size:11px;fill:#606060;width:183px;text-overflow:clip;" text-anchor="start" transform="translate(0,0)" y="192" opacity="1">200</text><text x="532" style="color:#606060;cursor:default;font-size:11px;fill:#606060;width:183px;text-overflow:clip;" text-anchor="start" transform="translate(0,0)" y="122" opacity="1">300</text><text x="532" style="color:#606060;cursor:default;font-size:11px;fill:#606060;width:183px;text-overflow:clip;" text-anchor="start" transform="translate(0,0)" y="52" opacity="1">400</text></g><g class="highcharts-tooltip"  style="cursor:default;padding:0;white-space:nowrap;" transform="translate(0,-9999)"><path fill="none" d="M 3 0 L 13 0 C 16 0 16 0 16 3 L 16 13 C 16 16 16 16 13 16 L 3 16 C 0 16 0 16 0 13 L 0 3 C 0 0 0 0 3 0"  stroke="black" stroke-opacity="0.0" stroke-width="5" transform="translate(1, 1)"></path><path fill="none" d="M 3 0 L 13 0 C 16 0 16 0 16 3 L 16 13 C 16 16 16 16 13 16 L 3 16 C 0 16 0 16 0 13 L 0 3 C 0 0 0 0 3 0"  stroke="black" stroke-opacity="0.0" stroke-width="3" transform="translate(1, 1)"></path><path fill="none" d="M 3 0 L 13 0 C 16 0 16 0 16 3 L 16 13 C 16 16 16 16 13 16 L 3 16 C 0 16 0 16 0 13 L 0 3 C 0 0 0 0 3 0"  stroke="black" stroke-opacity="0.1" stroke-width="1" transform="translate(1, 1)"></path><path fill="rgb(249, 249, 249)" fill-opacity=" .85" d="M 3 0 L 13 0 C 16 0 16 0 16 3 L 16 13 C 16 16 16 16 13 16 L 3 16 C 0 16 0 16 0 13 L 0 3 C 0 0 0 0 3 0"></path><text x="8"  style="font-size:12px;color:#333333;fill:#333333;" transform="translate(0,20)"></text></g></svg>