<svg version="1.1" style="font-family:&quot;lucida grande&quot;, &quot;lucida sans unicode&quot;, arial, helvetica, sans-serif;font-size:12px;" xmlns="http://www.w3.org/2000/svg" width="584" height="400" viewBox="0 0 584 400"><desc>Created with Highcharts 4.1.4</desc><defs><clipPath id="highcharts-1"><rect x="0" y="0" width="507" height="266"></rect></clipPath></defs><rect x="0" y="0" width="584" height="400" strokeWidth="0" fill="#FFFFFF" class=" highcharts-background" stroke="transparent"></rect><g class="highcharts-grid" ></g><g class="highcharts-grid" ><path fill="none" d="M 67 327.5 L 574 327.5" stroke="#D8D8D8" stroke-width="1"  opacity="1"></path><path fill="none" d="M 67 274.5 L 574 274.5" stroke="#D8D8D8" stroke-width="1"  opacity="1"></path><path fill="none" d="M 67 221.5 L 574 221.5" stroke="#D8D8D8" stroke-width="1"  opacity="1"></path><path fill="none" d="M 67 167.5 L 574 167.5" stroke="#D8D8D8" stroke-width="1"  opacity="1"></path><path fill="none" d="M 67 114.5 L 574 114.5" stroke="#D8D8D8" stroke-width="1"  opacity="1"></path><path fill="none" d="M 67 60.5 L 574 60.5" stroke="#D8D8D8" stroke-width="1"  opacity="1"></path></g><g class="highcharts-axis" ><path fill="none" d="M 108.5 327 L 108.5 337" stroke="#C0D0E0" stroke-width="1" opacity="1"></path><path fill="none" d="M 151.5 327 L 151.5 337" stroke="#C0D0E0" stroke-width="1" opacity="1"></path><path fill="none" d="M 193.5 327 L 193.5 337" stroke="#C0D0E0" stroke-width="1" opacity="1"></path><path fill="none" d="M 235.5 327 L 235.5 337" stroke="#C0D0E0" stroke-width="1" opacity="1"></path><path fill="none" d="M 277.5 327 L 277.5 337" stroke="#C0D0E0" stroke-width="1" opacity="1"></path><path fill="none" d="M 320.5 327 L 320.5 337" stroke="#C0D0E0" stroke-width="1" opacity="1"></path><path fill="none" d="M 362.5 327 L 362.5 337" stroke="#C0D0E0" stroke-width="1" opacity="1"></path><path fill="none" d="M 404.5 327 L 404.5 337" stroke="#C0D0E0" stroke-width="1" opacity="1"></path><path fill="none" d="M 446.5 327 L 446.5 337" stroke="#C0D0E0" stroke-width="1" opacity="1"></path><path fill="none" d="M 489.5 327 L 489.5 337" stroke="#C0D0E0" stroke-width="1" opacity="1"></path><path fill="none" d="M 531.5 327 L 531.5 337" stroke="#C0D0E0" stroke-width="1" opacity="1"></path><path fill="none" d="M 574.5 327 L 574.5 337" stroke="#C0D0E0" stroke-width="1" opacity="1"></path><path fill="none" d="M 66.5 327 L 66.5 337" stroke="#C0D0E0" stroke-width="1" opacity="1"></path><path fill="none" d="M 67 327.5 L 574 327.5" stroke="#C0D0E0" stroke-width="1"  visibility="visible"></path></g><g class="highcharts-axis" ><text x="24"  text-anchor="middle" transform="translate(0,0) rotate(270 24 194)" class=" highcharts-yaxis-title" style="color:#707070;fill:#707070;" visibility="visible" y="194"><tspan>Rainfall (mm)</tspan></text></g><g class="highcharts-series-group" ><g class="highcharts-series highcharts-tracker" visibility="visible"  transform="translate(67,61) scale(1 1)" style="" clip-path="url(#highcharts-1)"><rect x="10" y="214" width="4" height="53" fill="#7cb5ec" rx="0" ry="0"></rect><rect x="52" y="191" width="4" height="76" fill="#7cb5ec" rx="0" ry="0"></rect><rect x="94" y="154" width="4" height="113" fill="#7cb5ec" rx="0" ry="0"></rect><rect x="136" y="130" width="4" height="137" fill="#7cb5ec" rx="0" ry="0"></rect><rect x="179" y="114" width="4" height="153" fill="#7cb5ec" rx="0" ry="0"></rect><rect x="221" y="80" width="4" height="187" fill="#7cb5ec" rx="0" ry="0"></rect><rect x="263" y="123" width="4" height="144" fill="#7cb5ec" rx="0" ry="0"></rect><rect x="305" y="109" width="4" height="158" fill="#7cb5ec" rx="0" ry="0"></rect><rect x="348" y="37" width="4" height="230" fill="#7cb5ec" rx="0" ry="0"></rect><rect x="390" y="60" width="4" height="207" fill="#7cb5ec" rx="0" ry="0"></rect><rect x="432" y="165" width="4" height="102" fill="#7cb5ec" rx="0" ry="0"></rect><rect x="474" y="209" width="4" height="58" fill="#7cb5ec" rx="0" ry="0"></rect></g><g class="highcharts-markers" visibility="visible"  transform="translate(67,61) scale(1 1)"></g><g class="highcharts-series highcharts-tracker" visibility="visible"  transform="translate(67,61) scale(1 1)" style="" clip-path="url(#highcharts-1)"><rect x="16" y="178" width="4" height="89" fill="#434348" rx="0" ry="0"></rect><rect x="58" y="183" width="4" height="84" fill="#434348" rx="0" ry="0"></rect><rect x="101" y="162" width="4" height="105" fill="#434348" rx="0" ry="0"></rect><rect x="143" y="168" width="4" height="99" fill="#434348" rx="0" ry="0"></rect><rect x="185" y="154" width="4" height="113" fill="#434348" rx="0" ry="0"></rect><rect x="227" y="177" width="4" height="90" fill="#434348" rx="0" ry="0"></rect><rect x="270" y="155" width="4" height="112" fill="#434348" rx="0" ry="0"></rect><rect x="312" y="156" width="4" height="111" fill="#434348" rx="0" ry="0"></rect><rect x="354" y="170" width="4" height="97" fill="#434348" rx="0" ry="0"></rect><rect x="396" y="178" width="4" height="89" fill="#434348" rx="0" ry="0"></rect><rect x="439" y="154" width="4" height="113" fill="#434348" rx="0" ry="0"></rect><rect x="481" y="169" width="4" height="98" fill="#434348" rx="0" ry="0"></rect></g><g class="highcharts-markers" visibility="visible"  transform="translate(67,61) scale(1 1)"></g><g class="highcharts-series highcharts-tracker" visibility="visible"  transform="translate(67,61) scale(1 1)" style="" clip-path="url(#highcharts-1)"><rect x="22" y="215" width="4" height="52" fill="#90ed7d" rx="0" ry="0"></rect><rect x="65" y="226" width="4" height="41" fill="#90ed7d" rx="0" ry="0"></rect><rect x="107" y="225" width="4" height="42" fill="#90ed7d" rx="0" ry="0"></rect><rect x="149" y="223" width="4" height="44" fill="#90ed7d" rx="0" ry="0"></rect><rect x="191" y="217" width="4" height="50" fill="#90ed7d" rx="0" ry="0"></rect><rect x="234" y="216" width="4" height="51" fill="#90ed7d" rx="0" ry="0"></rect><rect x="276" y="204" width="4" height="63" fill="#90ed7d" rx="0" ry="0"></rect><rect x="318" y="204" width="4" height="63" fill="#90ed7d" rx="0" ry="0"></rect><rect x="360" y="211" width="4" height="56" fill="#90ed7d" rx="0" ry="0"></rect><rect x="403" y="198" width="4" height="69" fill="#90ed7d" rx="0" ry="0"></rect><rect x="445" y="204" width="4" height="63" fill="#90ed7d" rx="0" ry="0"></rect><rect x="487" y="213" width="4" height="54" fill="#90ed7d" rx="0" ry="0"></rect></g><g class="highcharts-markers" visibility="visible"  transform="translate(67,61) scale(1 1)"></g><g class="highcharts-series highcharts-tracker" visibility="visible"  transform="translate(67,61) scale(1 1)" style="" clip-path="url(#highcharts-1)"><rect x="29" y="222" width="4" height="45" fill="#f7a35c" rx="0" ry="0"></rect><rect x="71" y="232" width="4" height="35" fill="#f7a35c" rx="0" ry="0"></rect><rect x="113" y="230" width="4" height="37" fill="#f7a35c" rx="0" ry="0"></rect><rect x="155" y="225" width="4" height="42" fill="#f7a35c" rx="0" ry="0"></rect><rect x="198" y="211" width="4" height="56" fill="#f7a35c" rx="0" ry="0"></rect><rect x="240" y="187" width="4" height="80" fill="#f7a35c" rx="0" ry="0"></rect><rect x="282" y="206" width="4" height="61" fill="#f7a35c" rx="0" ry="0"></rect><rect x="324" y="203" width="4" height="64" fill="#f7a35c" rx="0" ry="0"></rect><rect x="367" y="216" width="4" height="51" fill="#f7a35c" rx="0" ry="0"></rect><rect x="409" y="225" width="4" height="42" fill="#f7a35c" rx="0" ry="0"></rect><rect x="451" y="217" width="4" height="50" fill="#f7a35c" rx="0" ry="0"></rect><rect x="493" y="213" width="4" height="54" fill="#f7a35c" rx="0" ry="0"></rect></g><g class="highcharts-markers" visibility="visible"  transform="translate(67,61) scale(1 1)"></g></g><text x="292" text-anchor="middle" class="highcharts-title"  style="color:#333333;font-size:18px;fill:#333333;width:520px;" y="24"><tspan>Monthly Average Rainfall</tspan></text><text x="292" text-anchor="middle" class="highcharts-subtitle"  style="color:#555555;fill:#555555;width:520px;" y="46"><tspan>Source: WorldClimate.com</tspan></text><g class="highcharts-legend"  transform="translate(125,360)"><g ><g><g class="highcharts-legend-item"  transform="translate(8,3)"><text x="21" style="color:#333333;font-size:12px;font-weight:bold;cursor:pointer;fill:#333333;" text-anchor="start"  y="15">Tokyo</text><rect x="0" y="4" width="16" height="12"  fill="#7cb5ec"></rect></g><g class="highcharts-legend-item"  transform="translate(86,3)"><text x="21" y="15" style="color:#333333;font-size:12px;font-weight:bold;cursor:pointer;fill:#333333;" text-anchor="start" ><tspan>New York</tspan></text><rect x="0" y="4" width="16" height="12"  fill="#434348"></rect></g><g class="highcharts-legend-item"  transform="translate(184,3)"><text x="21" y="15" style="color:#333333;font-size:12px;font-weight:bold;cursor:pointer;fill:#333333;" text-anchor="start" >London</text><rect x="0" y="4" width="16" height="12"  fill="#90ed7d"></rect></g><g class="highcharts-legend-item"  transform="translate(272,3)"><text x="21" y="15" style="color:#333333;font-size:12px;font-weight:bold;cursor:pointer;fill:#333333;" text-anchor="start" >Berlin</text><rect x="0" y="4" width="16" height="12"  fill="#f7a35c"></rect></g></g></g></g><g class="highcharts-axis-labels highcharts-xaxis-labels" ><text x="88.1" style="color:#606060;cursor:default;font-size:11px;fill:#606060;" text-anchor="middle" transform="translate(0,0)" y="346" opacity="1">Jan</text><text x="130.3" style="color:#606060;cursor:default;font-size:11px;fill:#606060;" text-anchor="middle" transform="translate(0,0)" y="346" opacity="1">Feb</text><text x="172.6" style="color:#606060;cursor:default;font-size:11px;fill:#606060;" text-anchor="middle" transform="translate(0,0)" y="346" opacity="1">Mar</text><text x="214.8" style="color:#606060;cursor:default;font-size:11px;fill:#606060;" text-anchor="middle" transform="translate(0,0)" y="346" opacity="1">Apr</text><text x="257.1" style="color:#606060;cursor:default;font-size:11px;fill:#606060;" text-anchor="middle" transform="translate(0,0)" y="346" opacity="1">May</text><text x="299.3" style="color:#606060;cursor:default;font-size:11px;fill:#606060;" text-anchor="middle" transform="translate(0,0)" y="346" opacity="1">Jun</text><text x="341.6" style="color:#606060;cursor:default;font-size:11px;fill:#606060;" text-anchor="middle" transform="translate(0,0)" y="346" opacity="1">Jul</text><text x="383.8" style="color:#606060;cursor:default;font-size:11px;fill:#606060;" text-anchor="middle" transform="translate(0,0)" y="346" opacity="1">Aug</text><text x="426.1" style="color:#606060;cursor:default;font-size:11px;fill:#606060;" text-anchor="middle" transform="translate(0,0)" y="346" opacity="1">Sep</text><text x="468.3" style="color:#606060;cursor:default;font-size:11px;fill:#606060;" text-anchor="middle" transform="translate(0,0)" y="346" opacity="1">Oct</text><text x="510.6" style="color:#606060;cursor:default;font-size:11px;fill:#606060;" text-anchor="middle" transform="translate(0,0)" y="346" opacity="1">Nov</text><text x="552.8" style="color:#606060;cursor:default;font-size:11px;fill:#606060;" text-anchor="middle" transform="translate(0,0)" y="346" opacity="1">Dec</text></g><g class="highcharts-axis-labels highcharts-yaxis-labels" ><text x="52" style="color:#606060;cursor:default;font-size:11px;fill:#606060;width:183px;text-overflow:clip;" text-anchor="end" transform="translate(0,0)" y="332" opacity="1">0</text><text x="52" style="color:#606060;cursor:default;font-size:11px;fill:#606060;width:183px;text-overflow:clip;" text-anchor="end" transform="translate(0,0)" y="278" opacity="1">50</text><text x="52" style="color:#606060;cursor:default;font-size:11px;fill:#606060;width:183px;text-overflow:clip;" text-anchor="end" transform="translate(0,0)" y="225" opacity="1">100</text><text x="52" style="color:#606060;cursor:default;font-size:11px;fill:#606060;width:183px;text-overflow:clip;" text-anchor="end" transform="translate(0,0)" y="172" opacity="1">150</text><text x="52" style="color:#606060;cursor:default;font-size:11px;fill:#606060;width:183px;text-overflow:clip;" text-anchor="end" transform="translate(0,0)" y="119" opacity="1">200</text><text x="52" style="color:#606060;cursor:default;font-size:11px;fill:#606060;width:183px;text-overflow:clip;" text-anchor="end" transform="translate(0,0)" y="66" opacity="1">250</text></g><g class="highcharts-tooltip"  style="cursor:default;padding:0;white-space:nowrap;" transform="translate(0,-9999)"><path fill="none" d="M 3 0 L 13 0 C 16 0 16 0 16 3 L 16 13 C 16 16 16 16 13 16 L 3 16 C 0 16 0 16 0 13 L 0 3 C 0 0 0 0 3 0"  stroke="black" stroke-opacity="0.0" stroke-width="5" transform="translate(1, 1)"></path><path fill="none" d="M 3 0 L 13 0 C 16 0 16 0 16 3 L 16 13 C 16 16 16 16 13 16 L 3 16 C 0 16 0 16 0 13 L 0 3 C 0 0 0 0 3 0"  stroke="black" stroke-opacity="0.0" stroke-width="3" transform="translate(1, 1)"></path><path fill="none" d="M 3 0 L 13 0 C 16 0 16 0 16 3 L 16 13 C 16 16 16 16 13 16 L 3 16 C 0 16 0 16 0 13 L 0 3 C 0 0 0 0 3 0"  stroke="black" stroke-opacity="0.1" stroke-width="1" transform="translate(1, 1)"></path><path fill="rgb(249, 249, 249)" fill-opacity=" .85" d="M 3 0 L 13 0 C 16 0 16 0 16 3 L 16 13 C 16 16 16 16 13 16 L 3 16 C 0 16 0 16 0 13 L 0 3 C 0 0 0 0 3 0"></path></g></svg>