<svg version="1.1" style="font-family: signika, serif; font-size: 12px; background-image: url(http://www.highcharts.com/samples/graphics/sand.png); background-attachment: initial; background-origin: initial; background-clip: initial; background-color: initial; background-position: initial initial; background-repeat: initial initial; " xmlns="http://www.w3.org/2000/svg" width="400" height="500" viewBox="0 0 400 500" xmlns:xlink="http://www.w3.org/1999/xlink"><style type="text/css"><![CDATA[@import url(http://fonts.googleapis.com/css?family=Signika:700);]]></style><desc>Created with Highmaps 1.1.4</desc><defs><linearGradient x1="0" y1="0" x2="0" y2="1" id="highcharts-1"><stop offset="0" stop-color="#FEFEFE" stop-opacity="1"></stop><stop offset="1" stop-color="#F6F6F6" stop-opacity="1"></stop></linearGradient><linearGradient x1="0" y1="0" x2="1" y2="0" id="highcharts-2"><stop offset="0" stop-color="#EFEFFF" stop-opacity="1"></stop><stop offset="1" stop-color="#003875" stop-opacity="1"></stop></linearGradient><clipPath id="highcharts-3"><rect x="0" y="0" width="380" height="382"></rect></clipPath></defs><g class="highcharts-grid" ></g><g class="highcharts-grid" ></g><g class="highcharts-axis" ></g><g class="highcharts-axis" ></g><g class="highcharts-series-group" ><g class="highcharts-series highcharts-tracker" visibility="visible"  transform="translate(10,44) scale(1 1)" style="" clip-path="url(#highcharts-3)"><g transform="translate(0,0) scale(1 1)"><path fill="none" d="M 125.5 9.7 L 133.0 8.8 125.9 14.2 124.2 11.8 124.2 0.6 125.5 9.7 M 184.5 73.4 L 180.2 68.8 179.7 66.4 181.1 63.4 179.4 60.9 180.2 59.0 177.2 59.1 176.4 61.1 169.4 65.4 167.6 63.8 166.8 66.7 161.1 63.6 156.4 53.8 153.5 53.0 150.2 52.2 145.0 50.7 139.8 43.5 144.7 43.8 144.1 38.1 140.6 39.1 140.0 32.5 143.7 29.4 134.5 31.6 134.5 25.0 140.7 24.6 140.2 19.3 144.3 18.8 135.7 8.5 134.9 0.4 139.7 0 157.8 4.7 161.5 1.9 168.6 7.3 171.2 5.5 174.8 11.4 174.5 17.8 170.5 22.0 177.5 20.2 196.8 28.9 206.3 24.7 203.3 21.0 206.5 17.6 212.4 23.5 205.6 27.3 205.5 35.2 196.4 42.5 201.1 46.5 201.0 48.0 202.7 48.9 201.5 49.5 200.5 48.7 197.0 51.5 196.6 52.6 197.3 55.1 197.0 57.4 198.4 57.6 200.2 59.7 202.4 60.4 203.0 66.3 199.3 66.3 199.1 69.0 193.7 72.6 192.7 76.3 190.5 76.3 184.5 73.4 Z" vector-effect="non-scaling-stroke" stroke="black" stroke-width="5"  stroke-opacity="0.0" transform="translate(1, 1)"></path><path fill="none" d="M 125.5 9.7 L 133.0 8.8 125.9 14.2 124.2 11.8 124.2 0.6 125.5 9.7 M 184.5 73.4 L 180.2 68.8 179.7 66.4 181.1 63.4 179.4 60.9 180.2 59.0 177.2 59.1 176.4 61.1 169.4 65.4 167.6 63.8 166.8 66.7 161.1 63.6 156.4 53.8 153.5 53.0 150.2 52.2 145.0 50.7 139.8 43.5 144.7 43.8 144.1 38.1 140.6 39.1 140.0 32.5 143.7 29.4 134.5 31.6 134.5 25.0 140.7 24.6 140.2 19.3 144.3 18.8 135.7 8.5 134.9 0.4 139.7 0 157.8 4.7 161.5 1.9 168.6 7.3 171.2 5.5 174.8 11.4 174.5 17.8 170.5 22.0 177.5 20.2 196.8 28.9 206.3 24.7 203.3 21.0 206.5 17.6 212.4 23.5 205.6 27.3 205.5 35.2 196.4 42.5 201.1 46.5 201.0 48.0 202.7 48.9 201.5 49.5 200.5 48.7 197.0 51.5 196.6 52.6 197.3 55.1 197.0 57.4 198.4 57.6 200.2 59.7 202.4 60.4 203.0 66.3 199.3 66.3 199.1 69.0 193.7 72.6 192.7 76.3 190.5 76.3 184.5 73.4 Z" vector-effect="non-scaling-stroke" stroke="black" stroke-width="3"  stroke-opacity="0.0" transform="translate(1, 1)"></path><path fill="none" d="M 125.5 9.7 L 133.0 8.8 125.9 14.2 124.2 11.8 124.2 0.6 125.5 9.7 M 184.5 73.4 L 180.2 68.8 179.7 66.4 181.1 63.4 179.4 60.9 180.2 59.0 177.2 59.1 176.4 61.1 169.4 65.4 167.6 63.8 166.8 66.7 161.1 63.6 156.4 53.8 153.5 53.0 150.2 52.2 145.0 50.7 139.8 43.5 144.7 43.8 144.1 38.1 140.6 39.1 140.0 32.5 143.7 29.4 134.5 31.6 134.5 25.0 140.7 24.6 140.2 19.3 144.3 18.8 135.7 8.5 134.9 0.4 139.7 0 157.8 4.7 161.5 1.9 168.6 7.3 171.2 5.5 174.8 11.4 174.5 17.8 170.5 22.0 177.5 20.2 196.8 28.9 206.3 24.7 203.3 21.0 206.5 17.6 212.4 23.5 205.6 27.3 205.5 35.2 196.4 42.5 201.1 46.5 201.0 48.0 202.7 48.9 201.5 49.5 200.5 48.7 197.0 51.5 196.6 52.6 197.3 55.1 197.0 57.4 198.4 57.6 200.2 59.7 202.4 60.4 203.0 66.3 199.3 66.3 199.1 69.0 193.7 72.6 192.7 76.3 190.5 76.3 184.5 73.4 Z" vector-effect="non-scaling-stroke" stroke="black" stroke-width="1"  stroke-opacity="0.1" transform="translate(1, 1)"></path><path fill="rgb(65,106,155)" d="M 125.5 9.7 L 133.0 8.8 125.9 14.2 124.2 11.8 124.2 0.6 125.5 9.7 M 184.5 73.4 L 180.2 68.8 179.7 66.4 181.1 63.4 179.4 60.9 180.2 59.0 177.2 59.1 176.4 61.1 169.4 65.4 167.6 63.8 166.8 66.7 161.1 63.6 156.4 53.8 153.5 53.0 150.2 52.2 145.0 50.7 139.8 43.5 144.7 43.8 144.1 38.1 140.6 39.1 140.0 32.5 143.7 29.4 134.5 31.6 134.5 25.0 140.7 24.6 140.2 19.3 144.3 18.8 135.7 8.5 134.9 0.4 139.7 0 157.8 4.7 161.5 1.9 168.6 7.3 171.2 5.5 174.8 11.4 174.5 17.8 170.5 22.0 177.5 20.2 196.8 28.9 206.3 24.7 203.3 21.0 206.5 17.6 212.4 23.5 205.6 27.3 205.5 35.2 196.4 42.5 201.1 46.5 201.0 48.0 202.7 48.9 201.5 49.5 200.5 48.7 197.0 51.5 196.6 52.6 197.3 55.1 197.0 57.4 198.4 57.6 200.2 59.7 202.4 60.4 203.0 66.3 199.3 66.3 199.1 69.0 193.7 72.6 192.7 76.3 190.5 76.3 184.5 73.4 Z" vector-effect="non-scaling-stroke" stroke="silver" stroke-width="1" class=" highcharts-name-schleswig-holstein"></path><path fill="none" d="M 281.9 109.0 L 282.0 110.7 284.2 112.9 286.7 114.0 286.2 116.6 287.3 116.4 290.1 118.2 289.0 122.1 287.2 123.8 286.9 122.2 281.3 120.5 280.4 122.3 276.2 120.8 272.1 122.0 270.1 121.0 271.2 115.7 271.5 111.8 273.1 112.4 273.4 110.4 275.8 108.8 278.2 110.1 280.8 108.1 281.9 109.0 Z" vector-effect="non-scaling-stroke" stroke="black" stroke-width="5"  stroke-opacity="0.0" transform="translate(1, 1)"></path><path fill="none" d="M 281.9 109.0 L 282.0 110.7 284.2 112.9 286.7 114.0 286.2 116.6 287.3 116.4 290.1 118.2 289.0 122.1 287.2 123.8 286.9 122.2 281.3 120.5 280.4 122.3 276.2 120.8 272.1 122.0 270.1 121.0 271.2 115.7 271.5 111.8 273.1 112.4 273.4 110.4 275.8 108.8 278.2 110.1 280.8 108.1 281.9 109.0 Z" vector-effect="non-scaling-stroke" stroke="black" stroke-width="3"  stroke-opacity="0.0" transform="translate(1, 1)"></path><path fill="none" d="M 281.9 109.0 L 282.0 110.7 284.2 112.9 286.7 114.0 286.2 116.6 287.3 116.4 290.1 118.2 289.0 122.1 287.2 123.8 286.9 122.2 281.3 120.5 280.4 122.3 276.2 120.8 272.1 122.0 270.1 121.0 271.2 115.7 271.5 111.8 273.1 112.4 273.4 110.4 275.8 108.8 278.2 110.1 280.8 108.1 281.9 109.0 Z" vector-effect="non-scaling-stroke" stroke="black" stroke-width="1"  stroke-opacity="0.1" transform="translate(1, 1)"></path><path fill="rgb(69,109,157)" d="M 281.9 109.0 L 282.0 110.7 284.2 112.9 286.7 114.0 286.2 116.6 287.3 116.4 290.1 118.2 289.0 122.1 287.2 123.8 286.9 122.2 281.3 120.5 280.4 122.3 276.2 120.8 272.1 122.0 270.1 121.0 271.2 115.7 271.5 111.8 273.1 112.4 273.4 110.4 275.8 108.8 278.2 110.1 280.8 108.1 281.9 109.0 Z" vector-effect="non-scaling-stroke" stroke="silver" stroke-width="1" class=" highcharts-name-berlin"></path><path fill="none" d="M 264.5 14.3 L 269.6 14.5 271.9 12.1 273.9 16.6 276.2 16.7 275.7 13.2 271.8 10.7 269.1 13.5 269.4 9.1 268.3 8.3 272.2 6.9 272.5 11.1 274.7 12.3 279.7 11.5 281.0 13.7 278.2 17.4 279.4 20.2 284.2 23.3 276.4 23.9 272.7 28.2 269.9 28.7 265.2 24.9 266.1 22.9 269.0 22.2 266.2 20.4 269.0 18.1 264.5 14.3 M 306.4 72.6 L 302.4 76.7 297.9 76.3 301.6 70.6 301.6 68.3 291.9 69.0 290.1 65.0 285.4 67.0 280.6 71.3 277.0 77.6 269.5 78.8 265.2 83.7 263.5 82.4 247.7 79.5 240.2 74.8 236.6 75.6 235.1 78.5 227.3 83.1 225.9 81.5 221.0 83.8 221.7 86.8 216.9 88.8 213.3 88.5 209.3 85.8 207.7 87.3 192.7 76.3 193.7 72.6 199.1 69.0 199.3 66.3 203.0 66.3 202.4 60.4 200.2 59.7 198.4 57.6 197.0 57.4 197.3 55.1 196.6 52.6 197.0 51.5 200.5 48.7 201.5 49.5 202.7 48.9 201.0 48.0 201.1 46.5 208.9 43.5 211.0 47.0 213.7 46.2 217.4 48.8 214.9 45.1 218.3 43.9 225.0 35.9 235.9 34.6 238.2 31.0 242.7 27.8 246.9 19.1 249.6 20.0 258.0 19.7 257.8 21.4 252.6 20.8 247.9 24.1 245.7 23.2 243.2 27.5 244.8 30.3 246.6 26.2 252.2 22.9 258.1 23.9 262.6 20.2 265.4 27.8 270.6 29.8 276.2 36.3 276.5 34.9 282.9 33.1 285.9 35.1 286.2 31.8 291.6 36.6 298.7 42.8 298.7 45.8 289.1 48.2 290.5 36.9 285.5 39.5 285.8 36.3 284.7 38.8 289.7 43.2 287.3 46.6 292.6 51.5 296.3 52.8 299.9 51.7 303.1 64.1 306.4 72.6 Z" vector-effect="non-scaling-stroke" stroke="black" stroke-width="5"  stroke-opacity="0.0" transform="translate(1, 1)"></path><path fill="none" d="M 264.5 14.3 L 269.6 14.5 271.9 12.1 273.9 16.6 276.2 16.7 275.7 13.2 271.8 10.7 269.1 13.5 269.4 9.1 268.3 8.3 272.2 6.9 272.5 11.1 274.7 12.3 279.7 11.5 281.0 13.7 278.2 17.4 279.4 20.2 284.2 23.3 276.4 23.9 272.7 28.2 269.9 28.7 265.2 24.9 266.1 22.9 269.0 22.2 266.2 20.4 269.0 18.1 264.5 14.3 M 306.4 72.6 L 302.4 76.7 297.9 76.3 301.6 70.6 301.6 68.3 291.9 69.0 290.1 65.0 285.4 67.0 280.6 71.3 277.0 77.6 269.5 78.8 265.2 83.7 263.5 82.4 247.7 79.5 240.2 74.8 236.6 75.6 235.1 78.5 227.3 83.1 225.9 81.5 221.0 83.8 221.7 86.8 216.9 88.8 213.3 88.5 209.3 85.8 207.7 87.3 192.7 76.3 193.7 72.6 199.1 69.0 199.3 66.3 203.0 66.3 202.4 60.4 200.2 59.7 198.4 57.6 197.0 57.4 197.3 55.1 196.6 52.6 197.0 51.5 200.5 48.7 201.5 49.5 202.7 48.9 201.0 48.0 201.1 46.5 208.9 43.5 211.0 47.0 213.7 46.2 217.4 48.8 214.9 45.1 218.3 43.9 225.0 35.9 235.9 34.6 238.2 31.0 242.7 27.8 246.9 19.1 249.6 20.0 258.0 19.7 257.8 21.4 252.6 20.8 247.9 24.1 245.7 23.2 243.2 27.5 244.8 30.3 246.6 26.2 252.2 22.9 258.1 23.9 262.6 20.2 265.4 27.8 270.6 29.8 276.2 36.3 276.5 34.9 282.9 33.1 285.9 35.1 286.2 31.8 291.6 36.6 298.7 42.8 298.7 45.8 289.1 48.2 290.5 36.9 285.5 39.5 285.8 36.3 284.7 38.8 289.7 43.2 287.3 46.6 292.6 51.5 296.3 52.8 299.9 51.7 303.1 64.1 306.4 72.6 Z" vector-effect="non-scaling-stroke" stroke="black" stroke-width="3"  stroke-opacity="0.0" transform="translate(1, 1)"></path><path fill="none" d="M 264.5 14.3 L 269.6 14.5 271.9 12.1 273.9 16.6 276.2 16.7 275.7 13.2 271.8 10.7 269.1 13.5 269.4 9.1 268.3 8.3 272.2 6.9 272.5 11.1 274.7 12.3 279.7 11.5 281.0 13.7 278.2 17.4 279.4 20.2 284.2 23.3 276.4 23.9 272.7 28.2 269.9 28.7 265.2 24.9 266.1 22.9 269.0 22.2 266.2 20.4 269.0 18.1 264.5 14.3 M 306.4 72.6 L 302.4 76.7 297.9 76.3 301.6 70.6 301.6 68.3 291.9 69.0 290.1 65.0 285.4 67.0 280.6 71.3 277.0 77.6 269.5 78.8 265.2 83.7 263.5 82.4 247.7 79.5 240.2 74.8 236.6 75.6 235.1 78.5 227.3 83.1 225.9 81.5 221.0 83.8 221.7 86.8 216.9 88.8 213.3 88.5 209.3 85.8 207.7 87.3 192.7 76.3 193.7 72.6 199.1 69.0 199.3 66.3 203.0 66.3 202.4 60.4 200.2 59.7 198.4 57.6 197.0 57.4 197.3 55.1 196.6 52.6 197.0 51.5 200.5 48.7 201.5 49.5 202.7 48.9 201.0 48.0 201.1 46.5 208.9 43.5 211.0 47.0 213.7 46.2 217.4 48.8 214.9 45.1 218.3 43.9 225.0 35.9 235.9 34.6 238.2 31.0 242.7 27.8 246.9 19.1 249.6 20.0 258.0 19.7 257.8 21.4 252.6 20.8 247.9 24.1 245.7 23.2 243.2 27.5 244.8 30.3 246.6 26.2 252.2 22.9 258.1 23.9 262.6 20.2 265.4 27.8 270.6 29.8 276.2 36.3 276.5 34.9 282.9 33.1 285.9 35.1 286.2 31.8 291.6 36.6 298.7 42.8 298.7 45.8 289.1 48.2 290.5 36.9 285.5 39.5 285.8 36.3 284.7 38.8 289.7 43.2 287.3 46.6 292.6 51.5 296.3 52.8 299.9 51.7 303.1 64.1 306.4 72.6 Z" vector-effect="non-scaling-stroke" stroke="black" stroke-width="1"  stroke-opacity="0.1" transform="translate(1, 1)"></path><path fill="rgb(9,63,122)" d="M 264.5 14.3 L 269.6 14.5 271.9 12.1 273.9 16.6 276.2 16.7 275.7 13.2 271.8 10.7 269.1 13.5 269.4 9.1 268.3 8.3 272.2 6.9 272.5 11.1 274.7 12.3 279.7 11.5 281.0 13.7 278.2 17.4 279.4 20.2 284.2 23.3 276.4 23.9 272.7 28.2 269.9 28.7 265.2 24.9 266.1 22.9 269.0 22.2 266.2 20.4 269.0 18.1 264.5 14.3 M 306.4 72.6 L 302.4 76.7 297.9 76.3 301.6 70.6 301.6 68.3 291.9 69.0 290.1 65.0 285.4 67.0 280.6 71.3 277.0 77.6 269.5 78.8 265.2 83.7 263.5 82.4 247.7 79.5 240.2 74.8 236.6 75.6 235.1 78.5 227.3 83.1 225.9 81.5 221.0 83.8 221.7 86.8 216.9 88.8 213.3 88.5 209.3 85.8 207.7 87.3 192.7 76.3 193.7 72.6 199.1 69.0 199.3 66.3 203.0 66.3 202.4 60.4 200.2 59.7 198.4 57.6 197.0 57.4 197.3 55.1 196.6 52.6 197.0 51.5 200.5 48.7 201.5 49.5 202.7 48.9 201.0 48.0 201.1 46.5 208.9 43.5 211.0 47.0 213.7 46.2 217.4 48.8 214.9 45.1 218.3 43.9 225.0 35.9 235.9 34.6 238.2 31.0 242.7 27.8 246.9 19.1 249.6 20.0 258.0 19.7 257.8 21.4 252.6 20.8 247.9 24.1 245.7 23.2 243.2 27.5 244.8 30.3 246.6 26.2 252.2 22.9 258.1 23.9 262.6 20.2 265.4 27.8 270.6 29.8 276.2 36.3 276.5 34.9 282.9 33.1 285.9 35.1 286.2 31.8 291.6 36.6 298.7 42.8 298.7 45.8 289.1 48.2 290.5 36.9 285.5 39.5 285.8 36.3 284.7 38.8 289.7 43.2 287.3 46.6 292.6 51.5 296.3 52.8 299.9 51.7 303.1 64.1 306.4 72.6 Z" vector-effect="non-scaling-stroke" stroke="silver" stroke-width="1" class=" highcharts-name-mecklenburg-vorpommern"></path><path fill="none" d="M 131.5 84.8 L 137.1 85.8 142.1 88.5 144.0 88.7 143.9 92.8 142.2 94.2 140.7 93.1 135.8 92.9 135.8 91.4 133.0 86.4 130.1 85.4 131.5 84.8 M 131.5 69.4 L 131.8 68.0 130.2 64.5 133.6 65.1 134.0 69.5 132.9 70.8 131.5 69.4 Z" vector-effect="non-scaling-stroke" stroke="black" stroke-width="5"  stroke-opacity="0.0" transform="translate(1, 1)"></path><path fill="none" d="M 131.5 84.8 L 137.1 85.8 142.1 88.5 144.0 88.7 143.9 92.8 142.2 94.2 140.7 93.1 135.8 92.9 135.8 91.4 133.0 86.4 130.1 85.4 131.5 84.8 M 131.5 69.4 L 131.8 68.0 130.2 64.5 133.6 65.1 134.0 69.5 132.9 70.8 131.5 69.4 Z" vector-effect="non-scaling-stroke" stroke="black" stroke-width="3"  stroke-opacity="0.0" transform="translate(1, 1)"></path><path fill="none" d="M 131.5 84.8 L 137.1 85.8 142.1 88.5 144.0 88.7 143.9 92.8 142.2 94.2 140.7 93.1 135.8 92.9 135.8 91.4 133.0 86.4 130.1 85.4 131.5 84.8 M 131.5 69.4 L 131.8 68.0 130.2 64.5 133.6 65.1 134.0 69.5 132.9 70.8 131.5 69.4 Z" vector-effect="non-scaling-stroke" stroke="black" stroke-width="1"  stroke-opacity="0.1" transform="translate(1, 1)"></path><path fill="rgb(110,140,180)" d="M 131.5 84.8 L 137.1 85.8 142.1 88.5 144.0 88.7 143.9 92.8 142.2 94.2 140.7 93.1 135.8 92.9 135.8 91.4 133.0 86.4 130.1 85.4 131.5 84.8 M 131.5 69.4 L 131.8 68.0 130.2 64.5 133.6 65.1 134.0 69.5 132.9 70.8 131.5 69.4 Z" vector-effect="non-scaling-stroke" stroke="silver" stroke-width="1" class=" highcharts-name-bremen"></path><path fill="none" d="M 167.5 67.9 L 169.2 67.4 166.8 66.7 167.6 63.8 169.4 65.4 176.4 61.1 177.2 59.1 180.2 59.0 179.4 60.9 181.1 63.4 179.7 66.4 180.2 68.8 184.5 73.4 180.3 74.9 177.1 72.6 174.2 74.5 170.4 73.6 167.5 67.9 Z" vector-effect="non-scaling-stroke" stroke="black" stroke-width="5"  stroke-opacity="0.0" transform="translate(1, 1)"></path><path fill="none" d="M 167.5 67.9 L 169.2 67.4 166.8 66.7 167.6 63.8 169.4 65.4 176.4 61.1 177.2 59.1 180.2 59.0 179.4 60.9 181.1 63.4 179.7 66.4 180.2 68.8 184.5 73.4 180.3 74.9 177.1 72.6 174.2 74.5 170.4 73.6 167.5 67.9 Z" vector-effect="non-scaling-stroke" stroke="black" stroke-width="3"  stroke-opacity="0.0" transform="translate(1, 1)"></path><path fill="none" d="M 167.5 67.9 L 169.2 67.4 166.8 66.7 167.6 63.8 169.4 65.4 176.4 61.1 177.2 59.1 180.2 59.0 179.4 60.9 181.1 63.4 179.7 66.4 180.2 68.8 184.5 73.4 180.3 74.9 177.1 72.6 174.2 74.5 170.4 73.6 167.5 67.9 Z" vector-effect="non-scaling-stroke" stroke="black" stroke-width="1"  stroke-opacity="0.1" transform="translate(1, 1)"></path><path fill="rgb(90,125,169)" d="M 167.5 67.9 L 169.2 67.4 166.8 66.7 167.6 63.8 169.4 65.4 176.4 61.1 177.2 59.1 180.2 59.0 179.4 60.9 181.1 63.4 179.7 66.4 180.2 68.8 184.5 73.4 180.3 74.9 177.1 72.6 174.2 74.5 170.4 73.6 167.5 67.9 Z" vector-effect="non-scaling-stroke" stroke="silver" stroke-width="1" class=" highcharts-name-hamburg"></path><path fill="none" d="M 118.4 297.7 L 109.6 293.8 99.8 293.5 91.3 286.9 88.8 284.9 92.0 278.4 87.5 272.8 89.6 270.9 88.3 266.2 86.7 266.9 84.0 264.9 77.6 263.5 70.2 267.1 66.7 268.0 58.3 268.0 60.8 260.8 63.3 259.3 63.7 254.7 61.0 254.0 54.9 249.7 51.1 241.5 53.1 233.2 56.6 231.2 58.1 228.7 60.5 228.1 62.2 227.6 61.4 225.1 63.3 227.2 67.4 225.6 68.5 226.9 71.6 227.5 74.1 226.9 73.2 221.1 77.2 220.9 77.2 218.6 82.6 215.3 85.9 214.9 87.3 213.2 90.0 214.1 92.9 213.0 93.4 209.9 100.2 208.6 103.4 206.2 102.7 204.8 105.7 203.5 105.4 199.7 108.6 199.2 108.1 201.3 111.2 203.8 114.7 210.9 117.2 211.3 118.1 216.2 116.2 219.2 113.0 219.4 112.1 225.7 114.3 226.9 116.6 231.6 110.1 235.4 110.0 240.0 107.9 239.6 105.1 242.7 109.8 246.8 118.1 243.3 119.8 243.7 123.3 247.6 123.4 251.1 126.0 257.3 124.0 262.4 125.7 266.7 128.2 273.6 127.7 280.9 118.4 297.7 Z" vector-effect="non-scaling-stroke" stroke="black" stroke-width="5"  stroke-opacity="0.0" transform="translate(1, 1)"></path><path fill="none" d="M 118.4 297.7 L 109.6 293.8 99.8 293.5 91.3 286.9 88.8 284.9 92.0 278.4 87.5 272.8 89.6 270.9 88.3 266.2 86.7 266.9 84.0 264.9 77.6 263.5 70.2 267.1 66.7 268.0 58.3 268.0 60.8 260.8 63.3 259.3 63.7 254.7 61.0 254.0 54.9 249.7 51.1 241.5 53.1 233.2 56.6 231.2 58.1 228.7 60.5 228.1 62.2 227.6 61.4 225.1 63.3 227.2 67.4 225.6 68.5 226.9 71.6 227.5 74.1 226.9 73.2 221.1 77.2 220.9 77.2 218.6 82.6 215.3 85.9 214.9 87.3 213.2 90.0 214.1 92.9 213.0 93.4 209.9 100.2 208.6 103.4 206.2 102.7 204.8 105.7 203.5 105.4 199.7 108.6 199.2 108.1 201.3 111.2 203.8 114.7 210.9 117.2 211.3 118.1 216.2 116.2 219.2 113.0 219.4 112.1 225.7 114.3 226.9 116.6 231.6 110.1 235.4 110.0 240.0 107.9 239.6 105.1 242.7 109.8 246.8 118.1 243.3 119.8 243.7 123.3 247.6 123.4 251.1 126.0 257.3 124.0 262.4 125.7 266.7 128.2 273.6 127.7 280.9 118.4 297.7 Z" vector-effect="non-scaling-stroke" stroke="black" stroke-width="3"  stroke-opacity="0.0" transform="translate(1, 1)"></path><path fill="none" d="M 118.4 297.7 L 109.6 293.8 99.8 293.5 91.3 286.9 88.8 284.9 92.0 278.4 87.5 272.8 89.6 270.9 88.3 266.2 86.7 266.9 84.0 264.9 77.6 263.5 70.2 267.1 66.7 268.0 58.3 268.0 60.8 260.8 63.3 259.3 63.7 254.7 61.0 254.0 54.9 249.7 51.1 241.5 53.1 233.2 56.6 231.2 58.1 228.7 60.5 228.1 62.2 227.6 61.4 225.1 63.3 227.2 67.4 225.6 68.5 226.9 71.6 227.5 74.1 226.9 73.2 221.1 77.2 220.9 77.2 218.6 82.6 215.3 85.9 214.9 87.3 213.2 90.0 214.1 92.9 213.0 93.4 209.9 100.2 208.6 103.4 206.2 102.7 204.8 105.7 203.5 105.4 199.7 108.6 199.2 108.1 201.3 111.2 203.8 114.7 210.9 117.2 211.3 118.1 216.2 116.2 219.2 113.0 219.4 112.1 225.7 114.3 226.9 116.6 231.6 110.1 235.4 110.0 240.0 107.9 239.6 105.1 242.7 109.8 246.8 118.1 243.3 119.8 243.7 123.3 247.6 123.4 251.1 126.0 257.3 124.0 262.4 125.7 266.7 128.2 273.6 127.7 280.9 118.4 297.7 Z" vector-effect="non-scaling-stroke" stroke="black" stroke-width="1"  stroke-opacity="0.1" transform="translate(1, 1)"></path><path fill="rgb(32,81,135)" d="M 118.4 297.7 L 109.6 293.8 99.8 293.5 91.3 286.9 88.8 284.9 92.0 278.4 87.5 272.8 89.6 270.9 88.3 266.2 86.7 266.9 84.0 264.9 77.6 263.5 70.2 267.1 66.7 268.0 58.3 268.0 60.8 260.8 63.3 259.3 63.7 254.7 61.0 254.0 54.9 249.7 51.1 241.5 53.1 233.2 56.6 231.2 58.1 228.7 60.5 228.1 62.2 227.6 61.4 225.1 63.3 227.2 67.4 225.6 68.5 226.9 71.6 227.5 74.1 226.9 73.2 221.1 77.2 220.9 77.2 218.6 82.6 215.3 85.9 214.9 87.3 213.2 90.0 214.1 92.9 213.0 93.4 209.9 100.2 208.6 103.4 206.2 102.7 204.8 105.7 203.5 105.4 199.7 108.6 199.2 108.1 201.3 111.2 203.8 114.7 210.9 117.2 211.3 118.1 216.2 116.2 219.2 113.0 219.4 112.1 225.7 114.3 226.9 116.6 231.6 110.1 235.4 110.0 240.0 107.9 239.6 105.1 242.7 109.8 246.8 118.1 243.3 119.8 243.7 123.3 247.6 123.4 251.1 126.0 257.3 124.0 262.4 125.7 266.7 128.2 273.6 127.7 280.9 118.4 297.7 Z" vector-effect="non-scaling-stroke" stroke="silver" stroke-width="1" class=" highcharts-name-rheinland-pfalz"></path><path fill="none" d="M 91.3 286.9 L 87.8 289.8 73.7 284.3 72.8 287.4 69.3 286.0 62.9 272.6 58.1 271.5 58.3 268.0 66.7 268.0 70.2 267.1 77.6 263.5 84.0 264.9 86.7 266.9 88.3 266.2 89.6 270.9 87.5 272.8 92.0 278.4 88.8 284.9 91.3 286.9 Z" vector-effect="non-scaling-stroke" stroke="black" stroke-width="5"  stroke-opacity="0.0" transform="translate(1, 1)"></path><path fill="none" d="M 91.3 286.9 L 87.8 289.8 73.7 284.3 72.8 287.4 69.3 286.0 62.9 272.6 58.1 271.5 58.3 268.0 66.7 268.0 70.2 267.1 77.6 263.5 84.0 264.9 86.7 266.9 88.3 266.2 89.6 270.9 87.5 272.8 92.0 278.4 88.8 284.9 91.3 286.9 Z" vector-effect="non-scaling-stroke" stroke="black" stroke-width="3"  stroke-opacity="0.0" transform="translate(1, 1)"></path><path fill="none" d="M 91.3 286.9 L 87.8 289.8 73.7 284.3 72.8 287.4 69.3 286.0 62.9 272.6 58.1 271.5 58.3 268.0 66.7 268.0 70.2 267.1 77.6 263.5 84.0 264.9 86.7 266.9 88.3 266.2 89.6 270.9 87.5 272.8 92.0 278.4 88.8 284.9 91.3 286.9 Z" vector-effect="non-scaling-stroke" stroke="black" stroke-width="1"  stroke-opacity="0.1" transform="translate(1, 1)"></path><path fill="rgb(144,166,200)" d="M 91.3 286.9 L 87.8 289.8 73.7 284.3 72.8 287.4 69.3 286.0 62.9 272.6 58.1 271.5 58.3 268.0 66.7 268.0 70.2 267.1 77.6 263.5 84.0 264.9 86.7 266.9 88.3 266.2 89.6 270.9 87.5 272.8 92.0 278.4 88.8 284.9 91.3 286.9 Z" vector-effect="non-scaling-stroke" stroke="silver" stroke-width="1" class=" highcharts-name-saarland"></path><path fill="none" d="M 244.2 227.9 L 243.6 231.5 249.4 241.2 256.7 244.6 258.7 247.8 254.5 256.1 262.8 267.4 263.7 271.4 269.0 276.2 275.7 277.6 282.0 286.1 286.1 287.1 292.5 294.5 296.7 293.9 304.1 302.4 304.1 310.2 301.6 314.9 294.9 312.1 291.6 322.8 287.5 326.5 279.5 329.1 270.2 336.8 270.9 339.5 279.2 350.0 276.2 356.4 280.5 356.7 282.5 361.1 281.7 367.7 278.5 369.0 272.8 365.0 271.9 359.4 264.4 361.6 260.4 358.7 252.1 358.4 251.9 363.5 244.1 363.5 233.5 364.9 231.2 368.8 226.6 369.3 221.5 374.7 212.0 375.5 205.4 369.4 192.6 366.8 194.0 373.5 189.2 380.4 184.1 382 185.2 376.6 176.9 369.5 165.3 366.6 167.8 365.2 168.9 365.5 174.0 362.0 177.0 362.7 180.5 361.7 181.1 363.1 181.7 361.6 183.0 361.2 182.3 357.2 181.2 356.3 182.8 354.8 181.7 351.7 182.1 348.7 181.3 347.6 182.7 343.8 182.8 340.2 181.9 338.2 179.9 330.3 177.4 326.5 180.3 322.0 182.5 321.2 183.1 322.2 186.3 320.2 188.5 318.9 188.3 315.0 189.0 314.3 187.5 313.2 186.8 311.4 187.7 310.3 190.2 312.2 191.9 310.3 192.2 311.7 194.3 310.3 192.1 307.1 193.0 303.7 192.8 298.4 189.3 293.7 186.7 292.9 186.3 289.1 182.4 285.2 181.8 281.9 182.7 281.7 181.4 277.0 183.0 276.2 182.0 273.9 181.1 273.5 181.5 269.9 180.1 268.3 179.5 270.0 178.0 271.5 175.3 271.5 174.5 266.6 172.6 268.5 172.1 268.0 173.4 265.1 171.8 262.9 171.8 261.1 170.5 259.5 168.4 261.3 167.8 259.6 166.7 261.1 165.2 260.7 165.7 256.5 164.3 257.1 160.6 255.9 156.1 256.4 154.9 257.4 154.9 259.1 158.6 260.3 157.9 263.7 157.0 263.2 154.0 264.4 153.0 266.9 148.3 267.0 147.1 265.2 148.4 263.7 149.1 260.9 149.3 256.4 147.0 254.2 145.6 250.4 145.6 243.6 144.0 243.1 145.1 240.9 148.2 239.4 149.6 240.1 152.1 238.5 155.3 238.7 157.8 241.1 161.1 240.2 161.7 237.2 160.8 236.8 161.1 233.8 166.0 233.9 166.6 231.6 168.7 230.3 169.3 225.5 172.2 225.6 176.7 223.0 178.4 219.6 180.7 217.3 182.7 217.9 184.3 219.8 186.9 220.7 189.5 224.1 189.7 225.5 191.1 225.3 192.8 227.5 194.5 227.2 195.7 228.8 196.7 233.9 200.2 234.5 200.3 232.9 203.8 232.9 203.7 231.4 199.7 229.0 200.0 227.0 202.0 225.7 207.0 225.5 208.4 227.3 210.4 227.4 212.4 226.5 213.8 228.5 213.2 229.2 215.1 231.1 217.1 230.9 217.8 226.6 216.6 221.0 218.7 219.9 219.7 218.6 222.2 218.8 222.2 222.3 224.0 223.0 224.3 224.4 225.8 225.4 234.2 223.3 235.3 224.4 237.7 223.1 240.4 226.2 244.2 227.9 Z" vector-effect="non-scaling-stroke" stroke="black" stroke-width="5"  stroke-opacity="0.0" transform="translate(1, 1)"></path><path fill="none" d="M 244.2 227.9 L 243.6 231.5 249.4 241.2 256.7 244.6 258.7 247.8 254.5 256.1 262.8 267.4 263.7 271.4 269.0 276.2 275.7 277.6 282.0 286.1 286.1 287.1 292.5 294.5 296.7 293.9 304.1 302.4 304.1 310.2 301.6 314.9 294.9 312.1 291.6 322.8 287.5 326.5 279.5 329.1 270.2 336.8 270.9 339.5 279.2 350.0 276.2 356.4 280.5 356.7 282.5 361.1 281.7 367.7 278.5 369.0 272.8 365.0 271.9 359.4 264.4 361.6 260.4 358.7 252.1 358.4 251.9 363.5 244.1 363.5 233.5 364.9 231.2 368.8 226.6 369.3 221.5 374.7 212.0 375.5 205.4 369.4 192.6 366.8 194.0 373.5 189.2 380.4 184.1 382 185.2 376.6 176.9 369.5 165.3 366.6 167.8 365.2 168.9 365.5 174.0 362.0 177.0 362.7 180.5 361.7 181.1 363.1 181.7 361.6 183.0 361.2 182.3 357.2 181.2 356.3 182.8 354.8 181.7 351.7 182.1 348.7 181.3 347.6 182.7 343.8 182.8 340.2 181.9 338.2 179.9 330.3 177.4 326.5 180.3 322.0 182.5 321.2 183.1 322.2 186.3 320.2 188.5 318.9 188.3 315.0 189.0 314.3 187.5 313.2 186.8 311.4 187.7 310.3 190.2 312.2 191.9 310.3 192.2 311.7 194.3 310.3 192.1 307.1 193.0 303.7 192.8 298.4 189.3 293.7 186.7 292.9 186.3 289.1 182.4 285.2 181.8 281.9 182.7 281.7 181.4 277.0 183.0 276.2 182.0 273.9 181.1 273.5 181.5 269.9 180.1 268.3 179.5 270.0 178.0 271.5 175.3 271.5 174.5 266.6 172.6 268.5 172.1 268.0 173.4 265.1 171.8 262.9 171.8 261.1 170.5 259.5 168.4 261.3 167.8 259.6 166.7 261.1 165.2 260.7 165.7 256.5 164.3 257.1 160.6 255.9 156.1 256.4 154.9 257.4 154.9 259.1 158.6 260.3 157.9 263.7 157.0 263.2 154.0 264.4 153.0 266.9 148.3 267.0 147.1 265.2 148.4 263.7 149.1 260.9 149.3 256.4 147.0 254.2 145.6 250.4 145.6 243.6 144.0 243.1 145.1 240.9 148.2 239.4 149.6 240.1 152.1 238.5 155.3 238.7 157.8 241.1 161.1 240.2 161.7 237.2 160.8 236.8 161.1 233.8 166.0 233.9 166.6 231.6 168.7 230.3 169.3 225.5 172.2 225.6 176.7 223.0 178.4 219.6 180.7 217.3 182.7 217.9 184.3 219.8 186.9 220.7 189.5 224.1 189.7 225.5 191.1 225.3 192.8 227.5 194.5 227.2 195.7 228.8 196.7 233.9 200.2 234.5 200.3 232.9 203.8 232.9 203.7 231.4 199.7 229.0 200.0 227.0 202.0 225.7 207.0 225.5 208.4 227.3 210.4 227.4 212.4 226.5 213.8 228.5 213.2 229.2 215.1 231.1 217.1 230.9 217.8 226.6 216.6 221.0 218.7 219.9 219.7 218.6 222.2 218.8 222.2 222.3 224.0 223.0 224.3 224.4 225.8 225.4 234.2 223.3 235.3 224.4 237.7 223.1 240.4 226.2 244.2 227.9 Z" vector-effect="non-scaling-stroke" stroke="black" stroke-width="3"  stroke-opacity="0.0" transform="translate(1, 1)"></path><path fill="none" d="M 244.2 227.9 L 243.6 231.5 249.4 241.2 256.7 244.6 258.7 247.8 254.5 256.1 262.8 267.4 263.7 271.4 269.0 276.2 275.7 277.6 282.0 286.1 286.1 287.1 292.5 294.5 296.7 293.9 304.1 302.4 304.1 310.2 301.6 314.9 294.9 312.1 291.6 322.8 287.5 326.5 279.5 329.1 270.2 336.8 270.9 339.5 279.2 350.0 276.2 356.4 280.5 356.7 282.5 361.1 281.7 367.7 278.5 369.0 272.8 365.0 271.9 359.4 264.4 361.6 260.4 358.7 252.1 358.4 251.9 363.5 244.1 363.5 233.5 364.9 231.2 368.8 226.6 369.3 221.5 374.7 212.0 375.5 205.4 369.4 192.6 366.8 194.0 373.5 189.2 380.4 184.1 382 185.2 376.6 176.9 369.5 165.3 366.6 167.8 365.2 168.9 365.5 174.0 362.0 177.0 362.7 180.5 361.7 181.1 363.1 181.7 361.6 183.0 361.2 182.3 357.2 181.2 356.3 182.8 354.8 181.7 351.7 182.1 348.7 181.3 347.6 182.7 343.8 182.8 340.2 181.9 338.2 179.9 330.3 177.4 326.5 180.3 322.0 182.5 321.2 183.1 322.2 186.3 320.2 188.5 318.9 188.3 315.0 189.0 314.3 187.5 313.2 186.8 311.4 187.7 310.3 190.2 312.2 191.9 310.3 192.2 311.7 194.3 310.3 192.1 307.1 193.0 303.7 192.8 298.4 189.3 293.7 186.7 292.9 186.3 289.1 182.4 285.2 181.8 281.9 182.7 281.7 181.4 277.0 183.0 276.2 182.0 273.9 181.1 273.5 181.5 269.9 180.1 268.3 179.5 270.0 178.0 271.5 175.3 271.5 174.5 266.6 172.6 268.5 172.1 268.0 173.4 265.1 171.8 262.9 171.8 261.1 170.5 259.5 168.4 261.3 167.8 259.6 166.7 261.1 165.2 260.7 165.7 256.5 164.3 257.1 160.6 255.9 156.1 256.4 154.9 257.4 154.9 259.1 158.6 260.3 157.9 263.7 157.0 263.2 154.0 264.4 153.0 266.9 148.3 267.0 147.1 265.2 148.4 263.7 149.1 260.9 149.3 256.4 147.0 254.2 145.6 250.4 145.6 243.6 144.0 243.1 145.1 240.9 148.2 239.4 149.6 240.1 152.1 238.5 155.3 238.7 157.8 241.1 161.1 240.2 161.7 237.2 160.8 236.8 161.1 233.8 166.0 233.9 166.6 231.6 168.7 230.3 169.3 225.5 172.2 225.6 176.7 223.0 178.4 219.6 180.7 217.3 182.7 217.9 184.3 219.8 186.9 220.7 189.5 224.1 189.7 225.5 191.1 225.3 192.8 227.5 194.5 227.2 195.7 228.8 196.7 233.9 200.2 234.5 200.3 232.9 203.8 232.9 203.7 231.4 199.7 229.0 200.0 227.0 202.0 225.7 207.0 225.5 208.4 227.3 210.4 227.4 212.4 226.5 213.8 228.5 213.2 229.2 215.1 231.1 217.1 230.9 217.8 226.6 216.6 221.0 218.7 219.9 219.7 218.6 222.2 218.8 222.2 222.3 224.0 223.0 224.3 224.4 225.8 225.4 234.2 223.3 235.3 224.4 237.7 223.1 240.4 226.2 244.2 227.9 Z" vector-effect="non-scaling-stroke" stroke="black" stroke-width="1"  stroke-opacity="0.1" transform="translate(1, 1)"></path><path fill="rgb(51,95,147)" d="M 244.2 227.9 L 243.6 231.5 249.4 241.2 256.7 244.6 258.7 247.8 254.5 256.1 262.8 267.4 263.7 271.4 269.0 276.2 275.7 277.6 282.0 286.1 286.1 287.1 292.5 294.5 296.7 293.9 304.1 302.4 304.1 310.2 301.6 314.9 294.9 312.1 291.6 322.8 287.5 326.5 279.5 329.1 270.2 336.8 270.9 339.5 279.2 350.0 276.2 356.4 280.5 356.7 282.5 361.1 281.7 367.7 278.5 369.0 272.8 365.0 271.9 359.4 264.4 361.6 260.4 358.7 252.1 358.4 251.9 363.5 244.1 363.5 233.5 364.9 231.2 368.8 226.6 369.3 221.5 374.7 212.0 375.5 205.4 369.4 192.6 366.8 194.0 373.5 189.2 380.4 184.1 382 185.2 376.6 176.9 369.5 165.3 366.6 167.8 365.2 168.9 365.5 174.0 362.0 177.0 362.7 180.5 361.7 181.1 363.1 181.7 361.6 183.0 361.2 182.3 357.2 181.2 356.3 182.8 354.8 181.7 351.7 182.1 348.7 181.3 347.6 182.7 343.8 182.8 340.2 181.9 338.2 179.9 330.3 177.4 326.5 180.3 322.0 182.5 321.2 183.1 322.2 186.3 320.2 188.5 318.9 188.3 315.0 189.0 314.3 187.5 313.2 186.8 311.4 187.7 310.3 190.2 312.2 191.9 310.3 192.2 311.7 194.3 310.3 192.1 307.1 193.0 303.7 192.8 298.4 189.3 293.7 186.7 292.9 186.3 289.1 182.4 285.2 181.8 281.9 182.7 281.7 181.4 277.0 183.0 276.2 182.0 273.9 181.1 273.5 181.5 269.9 180.1 268.3 179.5 270.0 178.0 271.5 175.3 271.5 174.5 266.6 172.6 268.5 172.1 268.0 173.4 265.1 171.8 262.9 171.8 261.1 170.5 259.5 168.4 261.3 167.8 259.6 166.7 261.1 165.2 260.7 165.7 256.5 164.3 257.1 160.6 255.9 156.1 256.4 154.9 257.4 154.9 259.1 158.6 260.3 157.9 263.7 157.0 263.2 154.0 264.4 153.0 266.9 148.3 267.0 147.1 265.2 148.4 263.7 149.1 260.9 149.3 256.4 147.0 254.2 145.6 250.4 145.6 243.6 144.0 243.1 145.1 240.9 148.2 239.4 149.6 240.1 152.1 238.5 155.3 238.7 157.8 241.1 161.1 240.2 161.7 237.2 160.8 236.8 161.1 233.8 166.0 233.9 166.6 231.6 168.7 230.3 169.3 225.5 172.2 225.6 176.7 223.0 178.4 219.6 180.7 217.3 182.7 217.9 184.3 219.8 186.9 220.7 189.5 224.1 189.7 225.5 191.1 225.3 192.8 227.5 194.5 227.2 195.7 228.8 196.7 233.9 200.2 234.5 200.3 232.9 203.8 232.9 203.7 231.4 199.7 229.0 200.0 227.0 202.0 225.7 207.0 225.5 208.4 227.3 210.4 227.4 212.4 226.5 213.8 228.5 213.2 229.2 215.1 231.1 217.1 230.9 217.8 226.6 216.6 221.0 218.7 219.9 219.7 218.6 222.2 218.8 222.2 222.3 224.0 223.0 224.3 224.4 225.8 225.4 234.2 223.3 235.3 224.4 237.7 223.1 240.4 226.2 244.2 227.9 Z" vector-effect="non-scaling-stroke" stroke="silver" stroke-width="1" class=" highcharts-name-bayern"></path><path fill="none" d="M 322.9 161.6 L 330.7 165.6 334.0 176.0 332.6 184.8 327.9 197.8 322.7 196.6 323.1 193.4 318.2 188.3 311.6 187.8 310.3 190.6 314.1 195.5 300.0 201.5 298.4 204.5 291.0 205.5 286.5 211.6 279.7 212.7 277.6 217.1 272.8 217.6 270.1 222.1 267.1 220.5 257.1 223.6 251.8 230.4 250.3 235.3 248.5 230.5 244.2 227.9 240.4 226.2 237.7 223.1 238.2 219.4 240.1 216.4 242.0 217.1 245.1 215.4 246.2 212.2 248.3 212.1 250.4 209.6 247.8 207.3 248.1 203.8 253.3 201.9 256.5 199.1 260.2 197.8 256.8 194.4 254.7 190.1 247.7 189.2 246.4 189.0 244.0 185.0 243.1 178.9 244.6 177.2 243.5 171.0 245.7 165.2 251.8 164.5 252.1 163.0 258.9 162.7 262.6 161.2 265.0 159.0 271.4 161.3 274.9 163.6 275.9 172.6 282.8 170.4 286.5 172.9 294.2 173.4 300.5 172.4 305.9 163.6 311.5 164.0 316.7 161.3 322.9 161.6 Z" vector-effect="non-scaling-stroke" stroke="black" stroke-width="5"  stroke-opacity="0.0" transform="translate(1, 1)"></path><path fill="none" d="M 322.9 161.6 L 330.7 165.6 334.0 176.0 332.6 184.8 327.9 197.8 322.7 196.6 323.1 193.4 318.2 188.3 311.6 187.8 310.3 190.6 314.1 195.5 300.0 201.5 298.4 204.5 291.0 205.5 286.5 211.6 279.7 212.7 277.6 217.1 272.8 217.6 270.1 222.1 267.1 220.5 257.1 223.6 251.8 230.4 250.3 235.3 248.5 230.5 244.2 227.9 240.4 226.2 237.7 223.1 238.2 219.4 240.1 216.4 242.0 217.1 245.1 215.4 246.2 212.2 248.3 212.1 250.4 209.6 247.8 207.3 248.1 203.8 253.3 201.9 256.5 199.1 260.2 197.8 256.8 194.4 254.7 190.1 247.7 189.2 246.4 189.0 244.0 185.0 243.1 178.9 244.6 177.2 243.5 171.0 245.7 165.2 251.8 164.5 252.1 163.0 258.9 162.7 262.6 161.2 265.0 159.0 271.4 161.3 274.9 163.6 275.9 172.6 282.8 170.4 286.5 172.9 294.2 173.4 300.5 172.4 305.9 163.6 311.5 164.0 316.7 161.3 322.9 161.6 Z" vector-effect="non-scaling-stroke" stroke="black" stroke-width="3"  stroke-opacity="0.0" transform="translate(1, 1)"></path><path fill="none" d="M 322.9 161.6 L 330.7 165.6 334.0 176.0 332.6 184.8 327.9 197.8 322.7 196.6 323.1 193.4 318.2 188.3 311.6 187.8 310.3 190.6 314.1 195.5 300.0 201.5 298.4 204.5 291.0 205.5 286.5 211.6 279.7 212.7 277.6 217.1 272.8 217.6 270.1 222.1 267.1 220.5 257.1 223.6 251.8 230.4 250.3 235.3 248.5 230.5 244.2 227.9 240.4 226.2 237.7 223.1 238.2 219.4 240.1 216.4 242.0 217.1 245.1 215.4 246.2 212.2 248.3 212.1 250.4 209.6 247.8 207.3 248.1 203.8 253.3 201.9 256.5 199.1 260.2 197.8 256.8 194.4 254.7 190.1 247.7 189.2 246.4 189.0 244.0 185.0 243.1 178.9 244.6 177.2 243.5 171.0 245.7 165.2 251.8 164.5 252.1 163.0 258.9 162.7 262.6 161.2 265.0 159.0 271.4 161.3 274.9 163.6 275.9 172.6 282.8 170.4 286.5 172.9 294.2 173.4 300.5 172.4 305.9 163.6 311.5 164.0 316.7 161.3 322.9 161.6 Z" vector-effect="non-scaling-stroke" stroke="black" stroke-width="1"  stroke-opacity="0.1" transform="translate(1, 1)"></path><path fill="rgb(186,198,224)" d="M 322.9 161.6 L 330.7 165.6 334.0 176.0 332.6 184.8 327.9 197.8 322.7 196.6 323.1 193.4 318.2 188.3 311.6 187.8 310.3 190.6 314.1 195.5 300.0 201.5 298.4 204.5 291.0 205.5 286.5 211.6 279.7 212.7 277.6 217.1 272.8 217.6 270.1 222.1 267.1 220.5 257.1 223.6 251.8 230.4 250.3 235.3 248.5 230.5 244.2 227.9 240.4 226.2 237.7 223.1 238.2 219.4 240.1 216.4 242.0 217.1 245.1 215.4 246.2 212.2 248.3 212.1 250.4 209.6 247.8 207.3 248.1 203.8 253.3 201.9 256.5 199.1 260.2 197.8 256.8 194.4 254.7 190.1 247.7 189.2 246.4 189.0 244.0 185.0 243.1 178.9 244.6 177.2 243.5 171.0 245.7 165.2 251.8 164.5 252.1 163.0 258.9 162.7 262.6 161.2 265.0 159.0 271.4 161.3 274.9 163.6 275.9 172.6 282.8 170.4 286.5 172.9 294.2 173.4 300.5 172.4 305.9 163.6 311.5 164.0 316.7 161.3 322.9 161.6 Z" vector-effect="non-scaling-stroke" stroke="silver" stroke-width="1" class=" highcharts-name-sachsen"></path><path fill="none" d="M 271.4 161.3 L 265.0 159.0 262.6 161.2 258.9 162.7 252.1 163.0 251.8 164.5 245.7 165.2 243.5 171.0 244.6 177.2 243.1 178.9 244.0 185.0 246.4 189.0 247.7 189.2 248.2 192.8 246.0 197.1 244.7 195.9 239.8 196.3 235.1 192.8 231.1 193.2 229.5 189.5 221.3 189.4 221.0 186.4 218.1 183.6 221.8 180.8 217.3 175.3 207.4 174.3 204.4 166.3 205.4 165.0 197.6 163.1 196.5 159.6 194.0 156.1 193.8 152.8 195.6 150.8 194.7 148.8 195.6 147.0 193.3 144.7 195.8 142.8 201.9 142.3 205.5 141.5 204.8 139.9 207.6 138.1 206.9 135.3 208.8 133.4 206.6 130.3 206.1 127.5 208.3 126.0 204.1 121.6 205.9 119.7 204.4 117.4 205.0 114.0 203.3 113.7 200.6 109.3 199.5 108.7 198.1 105.5 198.2 102.9 204.2 101.4 205.7 99.0 211.8 99.5 212.9 100.5 217.8 98.9 220.4 96.9 220.5 94.1 222.1 93.6 222.7 91.9 228.2 94.1 230.5 97.4 234.6 99.4 238.4 98.9 241.8 100.0 242.9 102.5 241.7 106.4 243.0 108.8 240.1 115.7 242.7 116.3 245.2 119.0 244.1 121.2 243.3 129.4 244.6 130.7 243.2 133.7 245.2 136.9 250.5 142.5 251.8 141.9 256.3 144.5 258.1 143.0 264.7 146.7 267.1 146.9 270.8 149.4 276.1 149.0 274.0 152.4 274.8 156.4 271.4 161.3 Z" vector-effect="non-scaling-stroke" stroke="black" stroke-width="5"  stroke-opacity="0.0" transform="translate(1, 1)"></path><path fill="none" d="M 271.4 161.3 L 265.0 159.0 262.6 161.2 258.9 162.7 252.1 163.0 251.8 164.5 245.7 165.2 243.5 171.0 244.6 177.2 243.1 178.9 244.0 185.0 246.4 189.0 247.7 189.2 248.2 192.8 246.0 197.1 244.7 195.9 239.8 196.3 235.1 192.8 231.1 193.2 229.5 189.5 221.3 189.4 221.0 186.4 218.1 183.6 221.8 180.8 217.3 175.3 207.4 174.3 204.4 166.3 205.4 165.0 197.6 163.1 196.5 159.6 194.0 156.1 193.8 152.8 195.6 150.8 194.7 148.8 195.6 147.0 193.3 144.7 195.8 142.8 201.9 142.3 205.5 141.5 204.8 139.9 207.6 138.1 206.9 135.3 208.8 133.4 206.6 130.3 206.1 127.5 208.3 126.0 204.1 121.6 205.9 119.7 204.4 117.4 205.0 114.0 203.3 113.7 200.6 109.3 199.5 108.7 198.1 105.5 198.2 102.9 204.2 101.4 205.7 99.0 211.8 99.5 212.9 100.5 217.8 98.9 220.4 96.9 220.5 94.1 222.1 93.6 222.7 91.9 228.2 94.1 230.5 97.4 234.6 99.4 238.4 98.9 241.8 100.0 242.9 102.5 241.7 106.4 243.0 108.8 240.1 115.7 242.7 116.3 245.2 119.0 244.1 121.2 243.3 129.4 244.6 130.7 243.2 133.7 245.2 136.9 250.5 142.5 251.8 141.9 256.3 144.5 258.1 143.0 264.7 146.7 267.1 146.9 270.8 149.4 276.1 149.0 274.0 152.4 274.8 156.4 271.4 161.3 Z" vector-effect="non-scaling-stroke" stroke="black" stroke-width="3"  stroke-opacity="0.0" transform="translate(1, 1)"></path><path fill="none" d="M 271.4 161.3 L 265.0 159.0 262.6 161.2 258.9 162.7 252.1 163.0 251.8 164.5 245.7 165.2 243.5 171.0 244.6 177.2 243.1 178.9 244.0 185.0 246.4 189.0 247.7 189.2 248.2 192.8 246.0 197.1 244.7 195.9 239.8 196.3 235.1 192.8 231.1 193.2 229.5 189.5 221.3 189.4 221.0 186.4 218.1 183.6 221.8 180.8 217.3 175.3 207.4 174.3 204.4 166.3 205.4 165.0 197.6 163.1 196.5 159.6 194.0 156.1 193.8 152.8 195.6 150.8 194.7 148.8 195.6 147.0 193.3 144.7 195.8 142.8 201.9 142.3 205.5 141.5 204.8 139.9 207.6 138.1 206.9 135.3 208.8 133.4 206.6 130.3 206.1 127.5 208.3 126.0 204.1 121.6 205.9 119.7 204.4 117.4 205.0 114.0 203.3 113.7 200.6 109.3 199.5 108.7 198.1 105.5 198.2 102.9 204.2 101.4 205.7 99.0 211.8 99.5 212.9 100.5 217.8 98.9 220.4 96.9 220.5 94.1 222.1 93.6 222.7 91.9 228.2 94.1 230.5 97.4 234.6 99.4 238.4 98.9 241.8 100.0 242.9 102.5 241.7 106.4 243.0 108.8 240.1 115.7 242.7 116.3 245.2 119.0 244.1 121.2 243.3 129.4 244.6 130.7 243.2 133.7 245.2 136.9 250.5 142.5 251.8 141.9 256.3 144.5 258.1 143.0 264.7 146.7 267.1 146.9 270.8 149.4 276.1 149.0 274.0 152.4 274.8 156.4 271.4 161.3 Z" vector-effect="non-scaling-stroke" stroke="black" stroke-width="1"  stroke-opacity="0.1" transform="translate(1, 1)"></path><path fill="rgb(94,128,172)" d="M 271.4 161.3 L 265.0 159.0 262.6 161.2 258.9 162.7 252.1 163.0 251.8 164.5 245.7 165.2 243.5 171.0 244.6 177.2 243.1 178.9 244.0 185.0 246.4 189.0 247.7 189.2 248.2 192.8 246.0 197.1 244.7 195.9 239.8 196.3 235.1 192.8 231.1 193.2 229.5 189.5 221.3 189.4 221.0 186.4 218.1 183.6 221.8 180.8 217.3 175.3 207.4 174.3 204.4 166.3 205.4 165.0 197.6 163.1 196.5 159.6 194.0 156.1 193.8 152.8 195.6 150.8 194.7 148.8 195.6 147.0 193.3 144.7 195.8 142.8 201.9 142.3 205.5 141.5 204.8 139.9 207.6 138.1 206.9 135.3 208.8 133.4 206.6 130.3 206.1 127.5 208.3 126.0 204.1 121.6 205.9 119.7 204.4 117.4 205.0 114.0 203.3 113.7 200.6 109.3 199.5 108.7 198.1 105.5 198.2 102.9 204.2 101.4 205.7 99.0 211.8 99.5 212.9 100.5 217.8 98.9 220.4 96.9 220.5 94.1 222.1 93.6 222.7 91.9 228.2 94.1 230.5 97.4 234.6 99.4 238.4 98.9 241.8 100.0 242.9 102.5 241.7 106.4 243.0 108.8 240.1 115.7 242.7 116.3 245.2 119.0 244.1 121.2 243.3 129.4 244.6 130.7 243.2 133.7 245.2 136.9 250.5 142.5 251.8 141.9 256.3 144.5 258.1 143.0 264.7 146.7 267.1 146.9 270.8 149.4 276.1 149.0 274.0 152.4 274.8 156.4 271.4 161.3 Z" vector-effect="non-scaling-stroke" stroke="silver" stroke-width="1" class=" highcharts-name-sachsen-anhalt"></path><path fill="none" d="M 306.4 72.6 L 308.2 76.6 306.0 87.0 300.3 91.9 300.1 97.4 316.9 109.9 314.3 117.9 322.5 134.7 318.1 148.7 322.8 154.8 322.9 161.6 316.7 161.3 311.5 164.0 305.9 163.6 300.5 172.4 294.2 173.4 286.5 172.9 282.8 170.4 275.9 172.6 274.9 163.6 271.4 161.3 274.8 156.4 274.0 152.4 276.1 149.0 270.8 149.4 267.1 146.9 264.7 146.7 258.1 143.0 256.3 144.5 251.8 141.9 250.5 142.5 245.2 136.9 243.2 133.7 244.6 130.7 243.3 129.4 244.1 121.2 245.2 119.0 242.7 116.3 240.1 115.7 243.0 108.8 241.7 106.4 242.9 102.5 241.8 100.0 238.4 98.9 234.6 99.4 230.5 97.4 228.2 94.1 222.7 91.9 217.6 90.2 213.3 88.5 216.9 88.8 221.7 86.8 221.0 83.8 225.9 81.5 227.3 83.1 235.1 78.5 236.6 75.6 240.2 74.8 247.7 79.5 263.5 82.4 265.2 83.7 269.5 78.8 277.0 77.6 280.6 71.3 285.4 67.0 290.1 65.0 291.9 69.0 301.6 68.3 301.6 70.6 297.9 76.3 302.4 76.7 306.4 72.6 M 281.9 109.0 L 280.8 108.1 278.2 110.1 275.8 108.8 273.4 110.4 273.1 112.4 271.5 111.8 271.2 115.7 270.1 121.0 272.1 122.0 276.2 120.8 280.4 122.3 281.3 120.5 286.9 122.2 287.2 123.8 289.0 122.1 290.1 118.2 287.3 116.4 286.2 116.6 286.7 114.0 284.2 112.9 282.0 110.7 281.9 109.0 Z" vector-effect="non-scaling-stroke" stroke="black" stroke-width="5"  stroke-opacity="0.0" transform="translate(1, 1)"></path><path fill="none" d="M 306.4 72.6 L 308.2 76.6 306.0 87.0 300.3 91.9 300.1 97.4 316.9 109.9 314.3 117.9 322.5 134.7 318.1 148.7 322.8 154.8 322.9 161.6 316.7 161.3 311.5 164.0 305.9 163.6 300.5 172.4 294.2 173.4 286.5 172.9 282.8 170.4 275.9 172.6 274.9 163.6 271.4 161.3 274.8 156.4 274.0 152.4 276.1 149.0 270.8 149.4 267.1 146.9 264.7 146.7 258.1 143.0 256.3 144.5 251.8 141.9 250.5 142.5 245.2 136.9 243.2 133.7 244.6 130.7 243.3 129.4 244.1 121.2 245.2 119.0 242.7 116.3 240.1 115.7 243.0 108.8 241.7 106.4 242.9 102.5 241.8 100.0 238.4 98.9 234.6 99.4 230.5 97.4 228.2 94.1 222.7 91.9 217.6 90.2 213.3 88.5 216.9 88.8 221.7 86.8 221.0 83.8 225.9 81.5 227.3 83.1 235.1 78.5 236.6 75.6 240.2 74.8 247.7 79.5 263.5 82.4 265.2 83.7 269.5 78.8 277.0 77.6 280.6 71.3 285.4 67.0 290.1 65.0 291.9 69.0 301.6 68.3 301.6 70.6 297.9 76.3 302.4 76.7 306.4 72.6 M 281.9 109.0 L 280.8 108.1 278.2 110.1 275.8 108.8 273.4 110.4 273.1 112.4 271.5 111.8 271.2 115.7 270.1 121.0 272.1 122.0 276.2 120.8 280.4 122.3 281.3 120.5 286.9 122.2 287.2 123.8 289.0 122.1 290.1 118.2 287.3 116.4 286.2 116.6 286.7 114.0 284.2 112.9 282.0 110.7 281.9 109.0 Z" vector-effect="non-scaling-stroke" stroke="black" stroke-width="3"  stroke-opacity="0.0" transform="translate(1, 1)"></path><path fill="none" d="M 306.4 72.6 L 308.2 76.6 306.0 87.0 300.3 91.9 300.1 97.4 316.9 109.9 314.3 117.9 322.5 134.7 318.1 148.7 322.8 154.8 322.9 161.6 316.7 161.3 311.5 164.0 305.9 163.6 300.5 172.4 294.2 173.4 286.5 172.9 282.8 170.4 275.9 172.6 274.9 163.6 271.4 161.3 274.8 156.4 274.0 152.4 276.1 149.0 270.8 149.4 267.1 146.9 264.7 146.7 258.1 143.0 256.3 144.5 251.8 141.9 250.5 142.5 245.2 136.9 243.2 133.7 244.6 130.7 243.3 129.4 244.1 121.2 245.2 119.0 242.7 116.3 240.1 115.7 243.0 108.8 241.7 106.4 242.9 102.5 241.8 100.0 238.4 98.9 234.6 99.4 230.5 97.4 228.2 94.1 222.7 91.9 217.6 90.2 213.3 88.5 216.9 88.8 221.7 86.8 221.0 83.8 225.9 81.5 227.3 83.1 235.1 78.5 236.6 75.6 240.2 74.8 247.7 79.5 263.5 82.4 265.2 83.7 269.5 78.8 277.0 77.6 280.6 71.3 285.4 67.0 290.1 65.0 291.9 69.0 301.6 68.3 301.6 70.6 297.9 76.3 302.4 76.7 306.4 72.6 M 281.9 109.0 L 280.8 108.1 278.2 110.1 275.8 108.8 273.4 110.4 273.1 112.4 271.5 111.8 271.2 115.7 270.1 121.0 272.1 122.0 276.2 120.8 280.4 122.3 281.3 120.5 286.9 122.2 287.2 123.8 289.0 122.1 290.1 118.2 287.3 116.4 286.2 116.6 286.7 114.0 284.2 112.9 282.0 110.7 281.9 109.0 Z" vector-effect="non-scaling-stroke" stroke="black" stroke-width="1"  stroke-opacity="0.1" transform="translate(1, 1)"></path><path fill="rgb(153,173,205)" d="M 306.4 72.6 L 308.2 76.6 306.0 87.0 300.3 91.9 300.1 97.4 316.9 109.9 314.3 117.9 322.5 134.7 318.1 148.7 322.8 154.8 322.9 161.6 316.7 161.3 311.5 164.0 305.9 163.6 300.5 172.4 294.2 173.4 286.5 172.9 282.8 170.4 275.9 172.6 274.9 163.6 271.4 161.3 274.8 156.4 274.0 152.4 276.1 149.0 270.8 149.4 267.1 146.9 264.7 146.7 258.1 143.0 256.3 144.5 251.8 141.9 250.5 142.5 245.2 136.9 243.2 133.7 244.6 130.7 243.3 129.4 244.1 121.2 245.2 119.0 242.7 116.3 240.1 115.7 243.0 108.8 241.7 106.4 242.9 102.5 241.8 100.0 238.4 98.9 234.6 99.4 230.5 97.4 228.2 94.1 222.7 91.9 217.6 90.2 213.3 88.5 216.9 88.8 221.7 86.8 221.0 83.8 225.9 81.5 227.3 83.1 235.1 78.5 236.6 75.6 240.2 74.8 247.7 79.5 263.5 82.4 265.2 83.7 269.5 78.8 277.0 77.6 280.6 71.3 285.4 67.0 290.1 65.0 291.9 69.0 301.6 68.3 301.6 70.6 297.9 76.3 302.4 76.7 306.4 72.6 M 281.9 109.0 L 280.8 108.1 278.2 110.1 275.8 108.8 273.4 110.4 273.1 112.4 271.5 111.8 271.2 115.7 270.1 121.0 272.1 122.0 276.2 120.8 280.4 122.3 281.3 120.5 286.9 122.2 287.2 123.8 289.0 122.1 290.1 118.2 287.3 116.4 286.2 116.6 286.7 114.0 284.2 112.9 282.0 110.7 281.9 109.0 Z" vector-effect="non-scaling-stroke" stroke="silver" stroke-width="1" class=" highcharts-name-brandenburg"></path><path fill="none" d="M 117.2 211.3 L 114.7 210.9 111.2 203.8 108.1 201.3 108.6 199.2 105.4 199.7 105.7 203.5 102.7 204.8 103.4 206.2 100.2 208.6 93.4 209.9 92.9 213.0 90.0 214.1 87.3 213.2 85.9 214.9 82.6 215.3 77.2 218.6 77.2 220.9 73.2 221.1 74.1 226.9 71.6 227.5 68.5 226.9 67.4 225.6 63.3 227.2 61.4 225.1 62.2 227.6 60.5 228.1 59.6 220.1 55.3 219.5 54.9 213.2 48.6 204.6 51.8 198.4 50.0 195.0 45.9 195.3 47.5 192.1 54.9 186.3 52.5 182.2 57.2 174.6 57.0 168.4 53.9 164.0 54.3 161.6 49.6 157.0 49.4 153.2 55.7 149.0 63.5 152.7 77.0 146.5 72.9 142.7 84.0 132.8 92.5 131.3 96.1 129.3 101.9 124.3 102.2 121.3 108.8 127.1 111.2 126.4 113.2 129.7 110.9 134.9 114.5 136.6 113.6 139.2 110.5 140.8 112.9 143.4 119.5 141.2 122.1 138.7 126.0 139.9 129.3 136.0 128.2 135.2 127.2 127.1 124.3 125.5 123.4 122.9 127.8 122.7 129.3 120.1 133.5 119.3 135.7 121.5 135.8 125.1 139.4 126.1 143.5 125.1 147.2 120.6 148.7 125.1 145.3 128.5 144.2 132.3 146.9 133.7 144.4 136.1 144.6 138.8 148.9 138.9 150.6 141.8 150.0 146.2 153.6 146.9 152.6 149.4 155.1 150.2 154.7 152.7 158.8 152.1 158.3 157.0 156.4 163.2 158.4 163.1 157.8 164.2 155.1 165.2 155.8 165.9 154.0 169.7 151.7 171.2 151.5 172.7 149.7 173.7 148.1 173.5 147.4 171.4 145.2 170.1 141.8 171.6 142.7 176.0 138.9 176.5 134.9 177.4 131.5 181.8 132.3 183.5 135.8 182.0 136.9 187.0 135.1 189.1 135.4 190.4 134.0 191.2 129.7 190.9 130.4 194.6 127.1 199.8 124.6 202.5 122.5 201.5 119.3 204.2 117.4 206.2 118.5 208.4 117.2 211.3 Z" vector-effect="non-scaling-stroke" stroke="black" stroke-width="5"  stroke-opacity="0.0" transform="translate(1, 1)"></path><path fill="none" d="M 117.2 211.3 L 114.7 210.9 111.2 203.8 108.1 201.3 108.6 199.2 105.4 199.7 105.7 203.5 102.7 204.8 103.4 206.2 100.2 208.6 93.4 209.9 92.9 213.0 90.0 214.1 87.3 213.2 85.9 214.9 82.6 215.3 77.2 218.6 77.2 220.9 73.2 221.1 74.1 226.9 71.6 227.5 68.5 226.9 67.4 225.6 63.3 227.2 61.4 225.1 62.2 227.6 60.5 228.1 59.6 220.1 55.3 219.5 54.9 213.2 48.6 204.6 51.8 198.4 50.0 195.0 45.9 195.3 47.5 192.1 54.9 186.3 52.5 182.2 57.2 174.6 57.0 168.4 53.9 164.0 54.3 161.6 49.6 157.0 49.4 153.2 55.7 149.0 63.5 152.7 77.0 146.5 72.9 142.7 84.0 132.8 92.5 131.3 96.1 129.3 101.9 124.3 102.2 121.3 108.8 127.1 111.2 126.4 113.2 129.7 110.9 134.9 114.5 136.6 113.6 139.2 110.5 140.8 112.9 143.4 119.5 141.2 122.1 138.7 126.0 139.9 129.3 136.0 128.2 135.2 127.2 127.1 124.3 125.5 123.4 122.9 127.8 122.7 129.3 120.1 133.5 119.3 135.7 121.5 135.8 125.1 139.4 126.1 143.5 125.1 147.2 120.6 148.7 125.1 145.3 128.5 144.2 132.3 146.9 133.7 144.4 136.1 144.6 138.8 148.9 138.9 150.6 141.8 150.0 146.2 153.6 146.9 152.6 149.4 155.1 150.2 154.7 152.7 158.8 152.1 158.3 157.0 156.4 163.2 158.4 163.1 157.8 164.2 155.1 165.2 155.8 165.9 154.0 169.7 151.7 171.2 151.5 172.7 149.7 173.7 148.1 173.5 147.4 171.4 145.2 170.1 141.8 171.6 142.7 176.0 138.9 176.5 134.9 177.4 131.5 181.8 132.3 183.5 135.8 182.0 136.9 187.0 135.1 189.1 135.4 190.4 134.0 191.2 129.7 190.9 130.4 194.6 127.1 199.8 124.6 202.5 122.5 201.5 119.3 204.2 117.4 206.2 118.5 208.4 117.2 211.3 Z" vector-effect="non-scaling-stroke" stroke="black" stroke-width="3"  stroke-opacity="0.0" transform="translate(1, 1)"></path><path fill="none" d="M 117.2 211.3 L 114.7 210.9 111.2 203.8 108.1 201.3 108.6 199.2 105.4 199.7 105.7 203.5 102.7 204.8 103.4 206.2 100.2 208.6 93.4 209.9 92.9 213.0 90.0 214.1 87.3 213.2 85.9 214.9 82.6 215.3 77.2 218.6 77.2 220.9 73.2 221.1 74.1 226.9 71.6 227.5 68.5 226.9 67.4 225.6 63.3 227.2 61.4 225.1 62.2 227.6 60.5 228.1 59.6 220.1 55.3 219.5 54.9 213.2 48.6 204.6 51.8 198.4 50.0 195.0 45.9 195.3 47.5 192.1 54.9 186.3 52.5 182.2 57.2 174.6 57.0 168.4 53.9 164.0 54.3 161.6 49.6 157.0 49.4 153.2 55.7 149.0 63.5 152.7 77.0 146.5 72.9 142.7 84.0 132.8 92.5 131.3 96.1 129.3 101.9 124.3 102.2 121.3 108.8 127.1 111.2 126.4 113.2 129.7 110.9 134.9 114.5 136.6 113.6 139.2 110.5 140.8 112.9 143.4 119.5 141.2 122.1 138.7 126.0 139.9 129.3 136.0 128.2 135.2 127.2 127.1 124.3 125.5 123.4 122.9 127.8 122.7 129.3 120.1 133.5 119.3 135.7 121.5 135.8 125.1 139.4 126.1 143.5 125.1 147.2 120.6 148.7 125.1 145.3 128.5 144.2 132.3 146.9 133.7 144.4 136.1 144.6 138.8 148.9 138.9 150.6 141.8 150.0 146.2 153.6 146.9 152.6 149.4 155.1 150.2 154.7 152.7 158.8 152.1 158.3 157.0 156.4 163.2 158.4 163.1 157.8 164.2 155.1 165.2 155.8 165.9 154.0 169.7 151.7 171.2 151.5 172.7 149.7 173.7 148.1 173.5 147.4 171.4 145.2 170.1 141.8 171.6 142.7 176.0 138.9 176.5 134.9 177.4 131.5 181.8 132.3 183.5 135.8 182.0 136.9 187.0 135.1 189.1 135.4 190.4 134.0 191.2 129.7 190.9 130.4 194.6 127.1 199.8 124.6 202.5 122.5 201.5 119.3 204.2 117.4 206.2 118.5 208.4 117.2 211.3 Z" vector-effect="non-scaling-stroke" stroke="black" stroke-width="1"  stroke-opacity="0.1" transform="translate(1, 1)"></path><path fill="rgb(182,196,222)" d="M 117.2 211.3 L 114.7 210.9 111.2 203.8 108.1 201.3 108.6 199.2 105.4 199.7 105.7 203.5 102.7 204.8 103.4 206.2 100.2 208.6 93.4 209.9 92.9 213.0 90.0 214.1 87.3 213.2 85.9 214.9 82.6 215.3 77.2 218.6 77.2 220.9 73.2 221.1 74.1 226.9 71.6 227.5 68.5 226.9 67.4 225.6 63.3 227.2 61.4 225.1 62.2 227.6 60.5 228.1 59.6 220.1 55.3 219.5 54.9 213.2 48.6 204.6 51.8 198.4 50.0 195.0 45.9 195.3 47.5 192.1 54.9 186.3 52.5 182.2 57.2 174.6 57.0 168.4 53.9 164.0 54.3 161.6 49.6 157.0 49.4 153.2 55.7 149.0 63.5 152.7 77.0 146.5 72.9 142.7 84.0 132.8 92.5 131.3 96.1 129.3 101.9 124.3 102.2 121.3 108.8 127.1 111.2 126.4 113.2 129.7 110.9 134.9 114.5 136.6 113.6 139.2 110.5 140.8 112.9 143.4 119.5 141.2 122.1 138.7 126.0 139.9 129.3 136.0 128.2 135.2 127.2 127.1 124.3 125.5 123.4 122.9 127.8 122.7 129.3 120.1 133.5 119.3 135.7 121.5 135.8 125.1 139.4 126.1 143.5 125.1 147.2 120.6 148.7 125.1 145.3 128.5 144.2 132.3 146.9 133.7 144.4 136.1 144.6 138.8 148.9 138.9 150.6 141.8 150.0 146.2 153.6 146.9 152.6 149.4 155.1 150.2 154.7 152.7 158.8 152.1 158.3 157.0 156.4 163.2 158.4 163.1 157.8 164.2 155.1 165.2 155.8 165.9 154.0 169.7 151.7 171.2 151.5 172.7 149.7 173.7 148.1 173.5 147.4 171.4 145.2 170.1 141.8 171.6 142.7 176.0 138.9 176.5 134.9 177.4 131.5 181.8 132.3 183.5 135.8 182.0 136.9 187.0 135.1 189.1 135.4 190.4 134.0 191.2 129.7 190.9 130.4 194.6 127.1 199.8 124.6 202.5 122.5 201.5 119.3 204.2 117.4 206.2 118.5 208.4 117.2 211.3 Z" vector-effect="non-scaling-stroke" stroke="silver" stroke-width="1" class=" highcharts-name-nordrhein-westfalen"></path><path fill="none" d="M 118.4 297.7 L 127.7 280.9 128.2 273.6 125.7 266.7 128.4 267.0 130.6 269.3 132.3 268.4 131.8 265.2 134.1 264.6 135.5 268.6 141.2 270.4 139.8 271.6 138.6 275.5 139.7 275.9 143.0 273.0 143.4 270.6 145.9 270.7 148.8 269.9 147.3 267.1 148.3 267.0 153.0 266.9 154.0 264.4 157.0 263.2 157.9 263.7 158.6 260.3 154.9 259.1 154.9 257.4 156.1 256.4 160.6 255.9 164.3 257.1 165.7 256.5 165.2 260.7 166.7 261.1 167.8 259.6 168.4 261.3 170.5 259.5 171.8 261.1 171.8 262.9 173.4 265.1 172.1 268.0 172.6 268.5 174.5 266.6 175.3 271.5 178.0 271.5 179.5 270.0 180.1 268.3 181.5 269.9 181.1 273.5 182.0 273.9 183.0 276.2 181.4 277.0 182.7 281.7 181.8 281.9 182.4 285.2 186.3 289.1 186.7 292.9 189.3 293.7 192.8 298.4 193.0 303.7 192.1 307.1 194.3 310.3 192.2 311.7 191.9 310.3 190.2 312.2 187.7 310.3 186.8 311.4 187.5 313.2 189.0 314.3 188.3 315.0 188.5 318.9 186.3 320.2 183.1 322.2 182.5 321.2 180.3 322.0 177.4 326.5 179.9 330.3 181.9 338.2 182.8 340.2 182.7 343.8 181.3 347.6 182.1 348.7 181.7 351.7 182.8 354.8 181.2 356.3 182.3 357.2 183.0 361.2 181.7 361.6 181.1 363.1 180.5 361.7 177.0 362.7 174.0 362.0 168.9 365.5 167.8 365.2 165.3 366.6 161.9 363.7 155.6 361.8 147.2 355.0 150.9 362.3 145.3 361.9 141.6 363.3 131.3 356.1 126.6 357.6 124.2 362.5 130.1 362.7 126.1 366.6 116.9 364.9 113.8 367.3 107.9 367.6 104.8 365.8 100.1 368.3 94.8 361.9 95.0 356.2 98.3 345.3 96.9 340.6 103.1 327.7 102.7 325.1 105.3 319.5 105.2 314.8 110.6 307.7 115.1 304.6 118.4 297.7 Z" vector-effect="non-scaling-stroke" stroke="black" stroke-width="5"  stroke-opacity="0.0" transform="translate(1, 1)"></path><path fill="none" d="M 118.4 297.7 L 127.7 280.9 128.2 273.6 125.7 266.7 128.4 267.0 130.6 269.3 132.3 268.4 131.8 265.2 134.1 264.6 135.5 268.6 141.2 270.4 139.8 271.6 138.6 275.5 139.7 275.9 143.0 273.0 143.4 270.6 145.9 270.7 148.8 269.9 147.3 267.1 148.3 267.0 153.0 266.9 154.0 264.4 157.0 263.2 157.9 263.7 158.6 260.3 154.9 259.1 154.9 257.4 156.1 256.4 160.6 255.9 164.3 257.1 165.7 256.5 165.2 260.7 166.7 261.1 167.8 259.6 168.4 261.3 170.5 259.5 171.8 261.1 171.8 262.9 173.4 265.1 172.1 268.0 172.6 268.5 174.5 266.6 175.3 271.5 178.0 271.5 179.5 270.0 180.1 268.3 181.5 269.9 181.1 273.5 182.0 273.9 183.0 276.2 181.4 277.0 182.7 281.7 181.8 281.9 182.4 285.2 186.3 289.1 186.7 292.9 189.3 293.7 192.8 298.4 193.0 303.7 192.1 307.1 194.3 310.3 192.2 311.7 191.9 310.3 190.2 312.2 187.7 310.3 186.8 311.4 187.5 313.2 189.0 314.3 188.3 315.0 188.5 318.9 186.3 320.2 183.1 322.2 182.5 321.2 180.3 322.0 177.4 326.5 179.9 330.3 181.9 338.2 182.8 340.2 182.7 343.8 181.3 347.6 182.1 348.7 181.7 351.7 182.8 354.8 181.2 356.3 182.3 357.2 183.0 361.2 181.7 361.6 181.1 363.1 180.5 361.7 177.0 362.7 174.0 362.0 168.9 365.5 167.8 365.2 165.3 366.6 161.9 363.7 155.6 361.8 147.2 355.0 150.9 362.3 145.3 361.9 141.6 363.3 131.3 356.1 126.6 357.6 124.2 362.5 130.1 362.7 126.1 366.6 116.9 364.9 113.8 367.3 107.9 367.6 104.8 365.8 100.1 368.3 94.8 361.9 95.0 356.2 98.3 345.3 96.9 340.6 103.1 327.7 102.7 325.1 105.3 319.5 105.2 314.8 110.6 307.7 115.1 304.6 118.4 297.7 Z" vector-effect="non-scaling-stroke" stroke="black" stroke-width="3"  stroke-opacity="0.0" transform="translate(1, 1)"></path><path fill="none" d="M 118.4 297.7 L 127.7 280.9 128.2 273.6 125.7 266.7 128.4 267.0 130.6 269.3 132.3 268.4 131.8 265.2 134.1 264.6 135.5 268.6 141.2 270.4 139.8 271.6 138.6 275.5 139.7 275.9 143.0 273.0 143.4 270.6 145.9 270.7 148.8 269.9 147.3 267.1 148.3 267.0 153.0 266.9 154.0 264.4 157.0 263.2 157.9 263.7 158.6 260.3 154.9 259.1 154.9 257.4 156.1 256.4 160.6 255.9 164.3 257.1 165.7 256.5 165.2 260.7 166.7 261.1 167.8 259.6 168.4 261.3 170.5 259.5 171.8 261.1 171.8 262.9 173.4 265.1 172.1 268.0 172.6 268.5 174.5 266.6 175.3 271.5 178.0 271.5 179.5 270.0 180.1 268.3 181.5 269.9 181.1 273.5 182.0 273.9 183.0 276.2 181.4 277.0 182.7 281.7 181.8 281.9 182.4 285.2 186.3 289.1 186.7 292.9 189.3 293.7 192.8 298.4 193.0 303.7 192.1 307.1 194.3 310.3 192.2 311.7 191.9 310.3 190.2 312.2 187.7 310.3 186.8 311.4 187.5 313.2 189.0 314.3 188.3 315.0 188.5 318.9 186.3 320.2 183.1 322.2 182.5 321.2 180.3 322.0 177.4 326.5 179.9 330.3 181.9 338.2 182.8 340.2 182.7 343.8 181.3 347.6 182.1 348.7 181.7 351.7 182.8 354.8 181.2 356.3 182.3 357.2 183.0 361.2 181.7 361.6 181.1 363.1 180.5 361.7 177.0 362.7 174.0 362.0 168.9 365.5 167.8 365.2 165.3 366.6 161.9 363.7 155.6 361.8 147.2 355.0 150.9 362.3 145.3 361.9 141.6 363.3 131.3 356.1 126.6 357.6 124.2 362.5 130.1 362.7 126.1 366.6 116.9 364.9 113.8 367.3 107.9 367.6 104.8 365.8 100.1 368.3 94.8 361.9 95.0 356.2 98.3 345.3 96.9 340.6 103.1 327.7 102.7 325.1 105.3 319.5 105.2 314.8 110.6 307.7 115.1 304.6 118.4 297.7 Z" vector-effect="non-scaling-stroke" stroke="black" stroke-width="1"  stroke-opacity="0.1" transform="translate(1, 1)"></path><path fill="rgb(201,210,233)" d="M 118.4 297.7 L 127.7 280.9 128.2 273.6 125.7 266.7 128.4 267.0 130.6 269.3 132.3 268.4 131.8 265.2 134.1 264.6 135.5 268.6 141.2 270.4 139.8 271.6 138.6 275.5 139.7 275.9 143.0 273.0 143.4 270.6 145.9 270.7 148.8 269.9 147.3 267.1 148.3 267.0 153.0 266.9 154.0 264.4 157.0 263.2 157.9 263.7 158.6 260.3 154.9 259.1 154.9 257.4 156.1 256.4 160.6 255.9 164.3 257.1 165.7 256.5 165.2 260.7 166.7 261.1 167.8 259.6 168.4 261.3 170.5 259.5 171.8 261.1 171.8 262.9 173.4 265.1 172.1 268.0 172.6 268.5 174.5 266.6 175.3 271.5 178.0 271.5 179.5 270.0 180.1 268.3 181.5 269.9 181.1 273.5 182.0 273.9 183.0 276.2 181.4 277.0 182.7 281.7 181.8 281.9 182.4 285.2 186.3 289.1 186.7 292.9 189.3 293.7 192.8 298.4 193.0 303.7 192.1 307.1 194.3 310.3 192.2 311.7 191.9 310.3 190.2 312.2 187.7 310.3 186.8 311.4 187.5 313.2 189.0 314.3 188.3 315.0 188.5 318.9 186.3 320.2 183.1 322.2 182.5 321.2 180.3 322.0 177.4 326.5 179.9 330.3 181.9 338.2 182.8 340.2 182.7 343.8 181.3 347.6 182.1 348.7 181.7 351.7 182.8 354.8 181.2 356.3 182.3 357.2 183.0 361.2 181.7 361.6 181.1 363.1 180.5 361.7 177.0 362.7 174.0 362.0 168.9 365.5 167.8 365.2 165.3 366.6 161.9 363.7 155.6 361.8 147.2 355.0 150.9 362.3 145.3 361.9 141.6 363.3 131.3 356.1 126.6 357.6 124.2 362.5 130.1 362.7 126.1 366.6 116.9 364.9 113.8 367.3 107.9 367.6 104.8 365.8 100.1 368.3 94.8 361.9 95.0 356.2 98.3 345.3 96.9 340.6 103.1 327.7 102.7 325.1 105.3 319.5 105.2 314.8 110.6 307.7 115.1 304.6 118.4 297.7 Z" vector-effect="non-scaling-stroke" stroke="silver" stroke-width="1" class=" highcharts-name-baden-wrttemberg"></path><path fill="none" d="M 178.4 219.6 L 176.7 223.0 172.2 225.6 169.3 225.5 168.7 230.3 166.6 231.6 166.0 233.9 161.1 233.8 160.8 236.8 161.7 237.2 161.1 240.2 157.8 241.1 155.3 238.7 152.1 238.5 149.6 240.1 148.2 239.4 145.1 240.9 144.0 243.1 145.6 243.6 145.6 250.4 147.0 254.2 149.3 256.4 149.1 260.9 148.4 263.7 147.1 265.2 148.3 267.0 147.3 267.1 148.8 269.9 145.9 270.7 143.4 270.6 143.0 273.0 139.7 275.9 138.6 275.5 139.8 271.6 141.2 270.4 135.5 268.6 134.1 264.6 131.8 265.2 132.3 268.4 130.6 269.3 128.4 267.0 125.7 266.7 124.0 262.4 126.0 257.3 123.4 251.1 123.3 247.6 119.8 243.7 118.1 243.3 109.8 246.8 105.1 242.7 107.9 239.6 110.0 240.0 110.1 235.4 116.6 231.6 114.3 226.9 112.1 225.7 113.0 219.4 116.2 219.2 118.1 216.2 117.2 211.3 118.5 208.4 117.4 206.2 119.3 204.2 122.5 201.5 124.6 202.5 127.1 199.8 130.4 194.6 129.7 190.9 134.0 191.2 135.4 190.4 135.1 189.1 136.9 187.0 135.8 182.0 132.3 183.5 131.5 181.8 134.9 177.4 138.9 176.5 142.7 176.0 141.8 171.6 145.2 170.1 147.4 171.4 148.1 173.5 149.7 173.7 151.5 172.7 151.7 171.2 154.0 169.7 155.8 165.9 155.1 165.2 157.8 164.2 158.4 163.1 160.1 163.9 161.9 163.5 164.2 164.0 166.1 166.9 164.8 166.9 163.4 169.9 164.7 172.1 164.6 175.5 163.0 175.6 162.6 178.4 166.2 179.8 167.1 180.9 168.7 180.0 167.1 177.3 170.6 175.4 171.6 176.8 171.8 175.0 173.1 174.6 174.5 176.3 173.7 177.4 174.5 180.2 177.7 181.6 178.7 184.2 183.5 186.1 182.4 189.5 181.7 188.1 180.2 188.6 181.6 189.6 180.8 192.6 182.4 193.1 182.3 195.6 177.9 195.1 177.1 196.3 177.7 198.4 175.0 198.4 175.6 200.1 176.6 199.4 178.2 201.3 177.0 203.8 174.9 204.7 174.8 206.6 173.8 210.9 172.7 213.3 174.8 214.1 175.0 212.3 176.5 211.6 178.2 211.9 179.0 214.3 178.1 215.2 178.4 219.6 Z" vector-effect="non-scaling-stroke" stroke="black" stroke-width="5"  stroke-opacity="0.0" transform="translate(1, 1)"></path><path fill="none" d="M 178.4 219.6 L 176.7 223.0 172.2 225.6 169.3 225.5 168.7 230.3 166.6 231.6 166.0 233.9 161.1 233.8 160.8 236.8 161.7 237.2 161.1 240.2 157.8 241.1 155.3 238.7 152.1 238.5 149.6 240.1 148.2 239.4 145.1 240.9 144.0 243.1 145.6 243.6 145.6 250.4 147.0 254.2 149.3 256.4 149.1 260.9 148.4 263.7 147.1 265.2 148.3 267.0 147.3 267.1 148.8 269.9 145.9 270.7 143.4 270.6 143.0 273.0 139.7 275.9 138.6 275.5 139.8 271.6 141.2 270.4 135.5 268.6 134.1 264.6 131.8 265.2 132.3 268.4 130.6 269.3 128.4 267.0 125.7 266.7 124.0 262.4 126.0 257.3 123.4 251.1 123.3 247.6 119.8 243.7 118.1 243.3 109.8 246.8 105.1 242.7 107.9 239.6 110.0 240.0 110.1 235.4 116.6 231.6 114.3 226.9 112.1 225.7 113.0 219.4 116.2 219.2 118.1 216.2 117.2 211.3 118.5 208.4 117.4 206.2 119.3 204.2 122.5 201.5 124.6 202.5 127.1 199.8 130.4 194.6 129.7 190.9 134.0 191.2 135.4 190.4 135.1 189.1 136.9 187.0 135.8 182.0 132.3 183.5 131.5 181.8 134.9 177.4 138.9 176.5 142.7 176.0 141.8 171.6 145.2 170.1 147.4 171.4 148.1 173.5 149.7 173.7 151.5 172.7 151.7 171.2 154.0 169.7 155.8 165.9 155.1 165.2 157.8 164.2 158.4 163.1 160.1 163.9 161.9 163.5 164.2 164.0 166.1 166.9 164.8 166.9 163.4 169.9 164.7 172.1 164.6 175.5 163.0 175.6 162.6 178.4 166.2 179.8 167.1 180.9 168.7 180.0 167.1 177.3 170.6 175.4 171.6 176.8 171.8 175.0 173.1 174.6 174.5 176.3 173.7 177.4 174.5 180.2 177.7 181.6 178.7 184.2 183.5 186.1 182.4 189.5 181.7 188.1 180.2 188.6 181.6 189.6 180.8 192.6 182.4 193.1 182.3 195.6 177.9 195.1 177.1 196.3 177.7 198.4 175.0 198.4 175.6 200.1 176.6 199.4 178.2 201.3 177.0 203.8 174.9 204.7 174.8 206.6 173.8 210.9 172.7 213.3 174.8 214.1 175.0 212.3 176.5 211.6 178.2 211.9 179.0 214.3 178.1 215.2 178.4 219.6 Z" vector-effect="non-scaling-stroke" stroke="black" stroke-width="3"  stroke-opacity="0.0" transform="translate(1, 1)"></path><path fill="none" d="M 178.4 219.6 L 176.7 223.0 172.2 225.6 169.3 225.5 168.7 230.3 166.6 231.6 166.0 233.9 161.1 233.8 160.8 236.8 161.7 237.2 161.1 240.2 157.8 241.1 155.3 238.7 152.1 238.5 149.6 240.1 148.2 239.4 145.1 240.9 144.0 243.1 145.6 243.6 145.6 250.4 147.0 254.2 149.3 256.4 149.1 260.9 148.4 263.7 147.1 265.2 148.3 267.0 147.3 267.1 148.8 269.9 145.9 270.7 143.4 270.6 143.0 273.0 139.7 275.9 138.6 275.5 139.8 271.6 141.2 270.4 135.5 268.6 134.1 264.6 131.8 265.2 132.3 268.4 130.6 269.3 128.4 267.0 125.7 266.7 124.0 262.4 126.0 257.3 123.4 251.1 123.3 247.6 119.8 243.7 118.1 243.3 109.8 246.8 105.1 242.7 107.9 239.6 110.0 240.0 110.1 235.4 116.6 231.6 114.3 226.9 112.1 225.7 113.0 219.4 116.2 219.2 118.1 216.2 117.2 211.3 118.5 208.4 117.4 206.2 119.3 204.2 122.5 201.5 124.6 202.5 127.1 199.8 130.4 194.6 129.7 190.9 134.0 191.2 135.4 190.4 135.1 189.1 136.9 187.0 135.8 182.0 132.3 183.5 131.5 181.8 134.9 177.4 138.9 176.5 142.7 176.0 141.8 171.6 145.2 170.1 147.4 171.4 148.1 173.5 149.7 173.7 151.5 172.7 151.7 171.2 154.0 169.7 155.8 165.9 155.1 165.2 157.8 164.2 158.4 163.1 160.1 163.9 161.9 163.5 164.2 164.0 166.1 166.9 164.8 166.9 163.4 169.9 164.7 172.1 164.6 175.5 163.0 175.6 162.6 178.4 166.2 179.8 167.1 180.9 168.7 180.0 167.1 177.3 170.6 175.4 171.6 176.8 171.8 175.0 173.1 174.6 174.5 176.3 173.7 177.4 174.5 180.2 177.7 181.6 178.7 184.2 183.5 186.1 182.4 189.5 181.7 188.1 180.2 188.6 181.6 189.6 180.8 192.6 182.4 193.1 182.3 195.6 177.9 195.1 177.1 196.3 177.7 198.4 175.0 198.4 175.6 200.1 176.6 199.4 178.2 201.3 177.0 203.8 174.9 204.7 174.8 206.6 173.8 210.9 172.7 213.3 174.8 214.1 175.0 212.3 176.5 211.6 178.2 211.9 179.0 214.3 178.1 215.2 178.4 219.6 Z" vector-effect="non-scaling-stroke" stroke="black" stroke-width="1"  stroke-opacity="0.1" transform="translate(1, 1)"></path><path fill="rgb(207,214,237)" d="M 178.4 219.6 L 176.7 223.0 172.2 225.6 169.3 225.5 168.7 230.3 166.6 231.6 166.0 233.9 161.1 233.8 160.8 236.8 161.7 237.2 161.1 240.2 157.8 241.1 155.3 238.7 152.1 238.5 149.6 240.1 148.2 239.4 145.1 240.9 144.0 243.1 145.6 243.6 145.6 250.4 147.0 254.2 149.3 256.4 149.1 260.9 148.4 263.7 147.1 265.2 148.3 267.0 147.3 267.1 148.8 269.9 145.9 270.7 143.4 270.6 143.0 273.0 139.7 275.9 138.6 275.5 139.8 271.6 141.2 270.4 135.5 268.6 134.1 264.6 131.8 265.2 132.3 268.4 130.6 269.3 128.4 267.0 125.7 266.7 124.0 262.4 126.0 257.3 123.4 251.1 123.3 247.6 119.8 243.7 118.1 243.3 109.8 246.8 105.1 242.7 107.9 239.6 110.0 240.0 110.1 235.4 116.6 231.6 114.3 226.9 112.1 225.7 113.0 219.4 116.2 219.2 118.1 216.2 117.2 211.3 118.5 208.4 117.4 206.2 119.3 204.2 122.5 201.5 124.6 202.5 127.1 199.8 130.4 194.6 129.7 190.9 134.0 191.2 135.4 190.4 135.1 189.1 136.9 187.0 135.8 182.0 132.3 183.5 131.5 181.8 134.9 177.4 138.9 176.5 142.7 176.0 141.8 171.6 145.2 170.1 147.4 171.4 148.1 173.5 149.7 173.7 151.5 172.7 151.7 171.2 154.0 169.7 155.8 165.9 155.1 165.2 157.8 164.2 158.4 163.1 160.1 163.9 161.9 163.5 164.2 164.0 166.1 166.9 164.8 166.9 163.4 169.9 164.7 172.1 164.6 175.5 163.0 175.6 162.6 178.4 166.2 179.8 167.1 180.9 168.7 180.0 167.1 177.3 170.6 175.4 171.6 176.8 171.8 175.0 173.1 174.6 174.5 176.3 173.7 177.4 174.5 180.2 177.7 181.6 178.7 184.2 183.5 186.1 182.4 189.5 181.7 188.1 180.2 188.6 181.6 189.6 180.8 192.6 182.4 193.1 182.3 195.6 177.9 195.1 177.1 196.3 177.7 198.4 175.0 198.4 175.6 200.1 176.6 199.4 178.2 201.3 177.0 203.8 174.9 204.7 174.8 206.6 173.8 210.9 172.7 213.3 174.8 214.1 175.0 212.3 176.5 211.6 178.2 211.9 179.0 214.3 178.1 215.2 178.4 219.6 Z" vector-effect="non-scaling-stroke" stroke="silver" stroke-width="1" class=" highcharts-name-hessen"></path><path fill="none" d="M 167.5 67.9 L 170.4 73.6 174.2 74.5 177.1 72.6 180.3 74.9 184.5 73.4 190.5 76.3 192.7 76.3 207.7 87.3 209.3 85.8 213.3 88.5 217.6 90.2 222.7 91.9 222.1 93.6 220.5 94.1 220.4 96.9 217.8 98.9 212.9 100.5 211.8 99.5 205.7 99.0 204.2 101.4 198.2 102.9 198.1 105.5 199.5 108.7 200.6 109.3 203.3 113.7 205.0 114.0 204.4 117.4 205.9 119.7 204.1 121.6 208.3 126.0 206.1 127.5 206.6 130.3 208.8 133.4 206.9 135.3 207.6 138.1 204.8 139.9 205.5 141.5 201.9 142.3 195.8 142.8 193.3 144.7 195.6 147.0 194.7 148.8 195.6 150.8 193.8 152.8 194.0 156.1 196.5 159.6 197.6 163.1 195.0 166.4 192.0 167.3 189.1 165.6 187.6 165.9 187.4 168.1 183.5 171.7 182.1 171.3 180.7 173.7 177.5 173.8 174.5 176.3 173.1 174.6 171.8 175.0 171.6 176.8 170.6 175.4 167.1 177.3 168.7 180.0 167.1 180.9 166.2 179.8 162.6 178.4 163.0 175.6 164.6 175.5 164.7 172.1 163.4 169.9 164.8 166.9 166.1 166.9 164.2 164.0 161.9 163.5 160.1 163.9 158.4 163.1 156.4 163.2 158.3 157.0 158.8 152.1 154.7 152.7 155.1 150.2 152.6 149.4 153.6 146.9 150.0 146.2 150.6 141.8 148.9 138.9 144.6 138.8 144.4 136.1 146.9 133.7 144.2 132.3 145.3 128.5 148.7 125.1 147.2 120.6 143.5 125.1 139.4 126.1 135.8 125.1 135.7 121.5 133.5 119.3 129.3 120.1 127.8 122.7 123.4 122.9 124.3 125.5 127.2 127.1 128.2 135.2 129.3 136.0 126.0 139.9 122.1 138.7 119.5 141.2 112.9 143.4 110.5 140.8 113.6 139.2 114.5 136.6 110.9 134.9 113.2 129.7 111.2 126.4 108.8 127.1 102.2 121.3 101.9 124.3 96.1 129.3 92.5 131.3 84.0 132.8 82.7 122.1 74.2 120.6 76.8 112.4 84.9 112.3 89.8 96.5 90.5 82.5 93.8 78.2 85.5 75.8 87.7 65.3 92.0 61.4 113.6 59.1 119.9 67.6 116.6 70.1 120.9 74.7 124.4 69.8 122.6 65.1 131.5 69.4 132.9 70.8 134.0 69.5 133.6 65.1 130.2 64.5 132.1 52.4 150.2 52.2 152.9 52.1 153.5 53.0 161.6 65.3 167.5 67.9 M 131.5 84.8 L 130.1 85.4 133.0 86.4 135.8 91.4 135.8 92.9 140.7 93.1 142.2 94.2 143.9 92.8 144.0 88.7 142.1 88.5 137.1 85.8 131.5 84.8 Z" vector-effect="non-scaling-stroke" stroke="black" stroke-width="5"  stroke-opacity="0.0" transform="translate(1, 1)"></path><path fill="none" d="M 167.5 67.9 L 170.4 73.6 174.2 74.5 177.1 72.6 180.3 74.9 184.5 73.4 190.5 76.3 192.7 76.3 207.7 87.3 209.3 85.8 213.3 88.5 217.6 90.2 222.7 91.9 222.1 93.6 220.5 94.1 220.4 96.9 217.8 98.9 212.9 100.5 211.8 99.5 205.7 99.0 204.2 101.4 198.2 102.9 198.1 105.5 199.5 108.7 200.6 109.3 203.3 113.7 205.0 114.0 204.4 117.4 205.9 119.7 204.1 121.6 208.3 126.0 206.1 127.5 206.6 130.3 208.8 133.4 206.9 135.3 207.6 138.1 204.8 139.9 205.5 141.5 201.9 142.3 195.8 142.8 193.3 144.7 195.6 147.0 194.7 148.8 195.6 150.8 193.8 152.8 194.0 156.1 196.5 159.6 197.6 163.1 195.0 166.4 192.0 167.3 189.1 165.6 187.6 165.9 187.4 168.1 183.5 171.7 182.1 171.3 180.7 173.7 177.5 173.8 174.5 176.3 173.1 174.6 171.8 175.0 171.6 176.8 170.6 175.4 167.1 177.3 168.7 180.0 167.1 180.9 166.2 179.8 162.6 178.4 163.0 175.6 164.6 175.5 164.7 172.1 163.4 169.9 164.8 166.9 166.1 166.9 164.2 164.0 161.9 163.5 160.1 163.9 158.4 163.1 156.4 163.2 158.3 157.0 158.8 152.1 154.7 152.7 155.1 150.2 152.6 149.4 153.6 146.9 150.0 146.2 150.6 141.8 148.9 138.9 144.6 138.8 144.4 136.1 146.9 133.7 144.2 132.3 145.3 128.5 148.7 125.1 147.2 120.6 143.5 125.1 139.4 126.1 135.8 125.1 135.7 121.5 133.5 119.3 129.3 120.1 127.8 122.7 123.4 122.9 124.3 125.5 127.2 127.1 128.2 135.2 129.3 136.0 126.0 139.9 122.1 138.7 119.5 141.2 112.9 143.4 110.5 140.8 113.6 139.2 114.5 136.6 110.9 134.9 113.2 129.7 111.2 126.4 108.8 127.1 102.2 121.3 101.9 124.3 96.1 129.3 92.5 131.3 84.0 132.8 82.7 122.1 74.2 120.6 76.8 112.4 84.9 112.3 89.8 96.5 90.5 82.5 93.8 78.2 85.5 75.8 87.7 65.3 92.0 61.4 113.6 59.1 119.9 67.6 116.6 70.1 120.9 74.7 124.4 69.8 122.6 65.1 131.5 69.4 132.9 70.8 134.0 69.5 133.6 65.1 130.2 64.5 132.1 52.4 150.2 52.2 152.9 52.1 153.5 53.0 161.6 65.3 167.5 67.9 M 131.5 84.8 L 130.1 85.4 133.0 86.4 135.8 91.4 135.8 92.9 140.7 93.1 142.2 94.2 143.9 92.8 144.0 88.7 142.1 88.5 137.1 85.8 131.5 84.8 Z" vector-effect="non-scaling-stroke" stroke="black" stroke-width="3"  stroke-opacity="0.0" transform="translate(1, 1)"></path><path fill="none" d="M 167.5 67.9 L 170.4 73.6 174.2 74.5 177.1 72.6 180.3 74.9 184.5 73.4 190.5 76.3 192.7 76.3 207.7 87.3 209.3 85.8 213.3 88.5 217.6 90.2 222.7 91.9 222.1 93.6 220.5 94.1 220.4 96.9 217.8 98.9 212.9 100.5 211.8 99.5 205.7 99.0 204.2 101.4 198.2 102.9 198.1 105.5 199.5 108.7 200.6 109.3 203.3 113.7 205.0 114.0 204.4 117.4 205.9 119.7 204.1 121.6 208.3 126.0 206.1 127.5 206.6 130.3 208.8 133.4 206.9 135.3 207.6 138.1 204.8 139.9 205.5 141.5 201.9 142.3 195.8 142.8 193.3 144.7 195.6 147.0 194.7 148.8 195.6 150.8 193.8 152.8 194.0 156.1 196.5 159.6 197.6 163.1 195.0 166.4 192.0 167.3 189.1 165.6 187.6 165.9 187.4 168.1 183.5 171.7 182.1 171.3 180.7 173.7 177.5 173.8 174.5 176.3 173.1 174.6 171.8 175.0 171.6 176.8 170.6 175.4 167.1 177.3 168.7 180.0 167.1 180.9 166.2 179.8 162.6 178.4 163.0 175.6 164.6 175.5 164.7 172.1 163.4 169.9 164.8 166.9 166.1 166.9 164.2 164.0 161.9 163.5 160.1 163.9 158.4 163.1 156.4 163.2 158.3 157.0 158.8 152.1 154.7 152.7 155.1 150.2 152.6 149.4 153.6 146.9 150.0 146.2 150.6 141.8 148.9 138.9 144.6 138.8 144.4 136.1 146.9 133.7 144.2 132.3 145.3 128.5 148.7 125.1 147.2 120.6 143.5 125.1 139.4 126.1 135.8 125.1 135.7 121.5 133.5 119.3 129.3 120.1 127.8 122.7 123.4 122.9 124.3 125.5 127.2 127.1 128.2 135.2 129.3 136.0 126.0 139.9 122.1 138.7 119.5 141.2 112.9 143.4 110.5 140.8 113.6 139.2 114.5 136.6 110.9 134.9 113.2 129.7 111.2 126.4 108.8 127.1 102.2 121.3 101.9 124.3 96.1 129.3 92.5 131.3 84.0 132.8 82.7 122.1 74.2 120.6 76.8 112.4 84.9 112.3 89.8 96.5 90.5 82.5 93.8 78.2 85.5 75.8 87.7 65.3 92.0 61.4 113.6 59.1 119.9 67.6 116.6 70.1 120.9 74.7 124.4 69.8 122.6 65.1 131.5 69.4 132.9 70.8 134.0 69.5 133.6 65.1 130.2 64.5 132.1 52.4 150.2 52.2 152.9 52.1 153.5 53.0 161.6 65.3 167.5 67.9 M 131.5 84.8 L 130.1 85.4 133.0 86.4 135.8 91.4 135.8 92.9 140.7 93.1 142.2 94.2 143.9 92.8 144.0 88.7 142.1 88.5 137.1 85.8 131.5 84.8 Z" vector-effect="non-scaling-stroke" stroke="black" stroke-width="1"  stroke-opacity="0.1" transform="translate(1, 1)"></path><path fill="rgb(206,214,236)" d="M 167.5 67.9 L 170.4 73.6 174.2 74.5 177.1 72.6 180.3 74.9 184.5 73.4 190.5 76.3 192.7 76.3 207.7 87.3 209.3 85.8 213.3 88.5 217.6 90.2 222.7 91.9 222.1 93.6 220.5 94.1 220.4 96.9 217.8 98.9 212.9 100.5 211.8 99.5 205.7 99.0 204.2 101.4 198.2 102.9 198.1 105.5 199.5 108.7 200.6 109.3 203.3 113.7 205.0 114.0 204.4 117.4 205.9 119.7 204.1 121.6 208.3 126.0 206.1 127.5 206.6 130.3 208.8 133.4 206.9 135.3 207.6 138.1 204.8 139.9 205.5 141.5 201.9 142.3 195.8 142.8 193.3 144.7 195.6 147.0 194.7 148.8 195.6 150.8 193.8 152.8 194.0 156.1 196.5 159.6 197.6 163.1 195.0 166.4 192.0 167.3 189.1 165.6 187.6 165.9 187.4 168.1 183.5 171.7 182.1 171.3 180.7 173.7 177.5 173.8 174.5 176.3 173.1 174.6 171.8 175.0 171.6 176.8 170.6 175.4 167.1 177.3 168.7 180.0 167.1 180.9 166.2 179.8 162.6 178.4 163.0 175.6 164.6 175.5 164.7 172.1 163.4 169.9 164.8 166.9 166.1 166.9 164.2 164.0 161.9 163.5 160.1 163.9 158.4 163.1 156.4 163.2 158.3 157.0 158.8 152.1 154.7 152.7 155.1 150.2 152.6 149.4 153.6 146.9 150.0 146.2 150.6 141.8 148.9 138.9 144.6 138.8 144.4 136.1 146.9 133.7 144.2 132.3 145.3 128.5 148.7 125.1 147.2 120.6 143.5 125.1 139.4 126.1 135.8 125.1 135.7 121.5 133.5 119.3 129.3 120.1 127.8 122.7 123.4 122.9 124.3 125.5 127.2 127.1 128.2 135.2 129.3 136.0 126.0 139.9 122.1 138.7 119.5 141.2 112.9 143.4 110.5 140.8 113.6 139.2 114.5 136.6 110.9 134.9 113.2 129.7 111.2 126.4 108.8 127.1 102.2 121.3 101.9 124.3 96.1 129.3 92.5 131.3 84.0 132.8 82.7 122.1 74.2 120.6 76.8 112.4 84.9 112.3 89.8 96.5 90.5 82.5 93.8 78.2 85.5 75.8 87.7 65.3 92.0 61.4 113.6 59.1 119.9 67.6 116.6 70.1 120.9 74.7 124.4 69.8 122.6 65.1 131.5 69.4 132.9 70.8 134.0 69.5 133.6 65.1 130.2 64.5 132.1 52.4 150.2 52.2 152.9 52.1 153.5 53.0 161.6 65.3 167.5 67.9 M 131.5 84.8 L 130.1 85.4 133.0 86.4 135.8 91.4 135.8 92.9 140.7 93.1 142.2 94.2 143.9 92.8 144.0 88.7 142.1 88.5 137.1 85.8 131.5 84.8 Z" vector-effect="non-scaling-stroke" stroke="silver" stroke-width="1" class=" highcharts-name-niedersachsen"></path><path fill="none" d="M 247.7 189.2 L 254.7 190.1 256.8 194.4 260.2 197.8 256.5 199.1 253.3 201.9 248.1 203.8 247.8 207.3 250.4 209.6 248.3 212.1 246.2 212.2 245.1 215.4 242.0 217.1 240.1 216.4 238.2 219.4 237.7 223.1 235.3 224.4 234.2 223.3 225.8 225.4 224.3 224.4 224.0 223.0 222.2 222.3 222.2 218.8 219.7 218.6 218.7 219.9 216.6 221.0 217.8 226.6 217.1 230.9 215.1 231.1 213.2 229.2 213.8 228.5 212.4 226.5 210.4 227.4 208.4 227.3 207.0 225.5 202.0 225.7 200.0 227.0 199.7 229.0 203.7 231.4 203.8 232.9 200.3 232.9 200.2 234.5 196.7 233.9 195.7 228.8 194.5 227.2 192.8 227.5 191.1 225.3 189.7 225.5 189.5 224.1 186.9 220.7 184.3 219.8 182.7 217.9 180.7 217.3 178.4 219.6 178.1 215.2 179.0 214.3 178.2 211.9 176.5 211.6 175.0 212.3 174.8 214.1 172.7 213.3 173.8 210.9 174.8 206.6 174.9 204.7 177.0 203.8 178.2 201.3 176.6 199.4 175.6 200.1 175.0 198.4 177.7 198.4 177.1 196.3 177.9 195.1 182.3 195.6 182.4 193.1 180.8 192.6 181.6 189.6 180.2 188.6 181.7 188.1 182.4 189.5 183.5 186.1 178.7 184.2 177.7 181.6 174.5 180.2 173.7 177.4 174.5 176.3 177.5 173.8 180.7 173.7 182.1 171.3 183.5 171.7 187.4 168.1 187.6 165.9 189.1 165.6 192.0 167.3 195.0 166.4 197.6 163.1 205.4 165.0 204.4 166.3 207.4 174.3 217.3 175.3 221.8 180.8 218.1 183.6 221.0 186.4 221.3 189.4 229.5 189.5 231.1 193.2 235.1 192.8 239.8 196.3 244.7 195.9 246.0 197.1 248.2 192.8 247.7 189.2 Z" vector-effect="non-scaling-stroke" stroke="black" stroke-width="5"  stroke-opacity="0.0" transform="translate(1, 1)"></path><path fill="none" d="M 247.7 189.2 L 254.7 190.1 256.8 194.4 260.2 197.8 256.5 199.1 253.3 201.9 248.1 203.8 247.8 207.3 250.4 209.6 248.3 212.1 246.2 212.2 245.1 215.4 242.0 217.1 240.1 216.4 238.2 219.4 237.7 223.1 235.3 224.4 234.2 223.3 225.8 225.4 224.3 224.4 224.0 223.0 222.2 222.3 222.2 218.8 219.7 218.6 218.7 219.9 216.6 221.0 217.8 226.6 217.1 230.9 215.1 231.1 213.2 229.2 213.8 228.5 212.4 226.5 210.4 227.4 208.4 227.3 207.0 225.5 202.0 225.7 200.0 227.0 199.7 229.0 203.7 231.4 203.8 232.9 200.3 232.9 200.2 234.5 196.7 233.9 195.7 228.8 194.5 227.2 192.8 227.5 191.1 225.3 189.7 225.5 189.5 224.1 186.9 220.7 184.3 219.8 182.7 217.9 180.7 217.3 178.4 219.6 178.1 215.2 179.0 214.3 178.2 211.9 176.5 211.6 175.0 212.3 174.8 214.1 172.7 213.3 173.8 210.9 174.8 206.6 174.9 204.7 177.0 203.8 178.2 201.3 176.6 199.4 175.6 200.1 175.0 198.4 177.7 198.4 177.1 196.3 177.9 195.1 182.3 195.6 182.4 193.1 180.8 192.6 181.6 189.6 180.2 188.6 181.7 188.1 182.4 189.5 183.5 186.1 178.7 184.2 177.7 181.6 174.5 180.2 173.7 177.4 174.5 176.3 177.5 173.8 180.7 173.7 182.1 171.3 183.5 171.7 187.4 168.1 187.6 165.9 189.1 165.6 192.0 167.3 195.0 166.4 197.6 163.1 205.4 165.0 204.4 166.3 207.4 174.3 217.3 175.3 221.8 180.8 218.1 183.6 221.0 186.4 221.3 189.4 229.5 189.5 231.1 193.2 235.1 192.8 239.8 196.3 244.7 195.9 246.0 197.1 248.2 192.8 247.7 189.2 Z" vector-effect="non-scaling-stroke" stroke="black" stroke-width="3"  stroke-opacity="0.0" transform="translate(1, 1)"></path><path fill="none" d="M 247.7 189.2 L 254.7 190.1 256.8 194.4 260.2 197.8 256.5 199.1 253.3 201.9 248.1 203.8 247.8 207.3 250.4 209.6 248.3 212.1 246.2 212.2 245.1 215.4 242.0 217.1 240.1 216.4 238.2 219.4 237.7 223.1 235.3 224.4 234.2 223.3 225.8 225.4 224.3 224.4 224.0 223.0 222.2 222.3 222.2 218.8 219.7 218.6 218.7 219.9 216.6 221.0 217.8 226.6 217.1 230.9 215.1 231.1 213.2 229.2 213.8 228.5 212.4 226.5 210.4 227.4 208.4 227.3 207.0 225.5 202.0 225.7 200.0 227.0 199.7 229.0 203.7 231.4 203.8 232.9 200.3 232.9 200.2 234.5 196.7 233.9 195.7 228.8 194.5 227.2 192.8 227.5 191.1 225.3 189.7 225.5 189.5 224.1 186.9 220.7 184.3 219.8 182.7 217.9 180.7 217.3 178.4 219.6 178.1 215.2 179.0 214.3 178.2 211.9 176.5 211.6 175.0 212.3 174.8 214.1 172.7 213.3 173.8 210.9 174.8 206.6 174.9 204.7 177.0 203.8 178.2 201.3 176.6 199.4 175.6 200.1 175.0 198.4 177.7 198.4 177.1 196.3 177.9 195.1 182.3 195.6 182.4 193.1 180.8 192.6 181.6 189.6 180.2 188.6 181.7 188.1 182.4 189.5 183.5 186.1 178.7 184.2 177.7 181.6 174.5 180.2 173.7 177.4 174.5 176.3 177.5 173.8 180.7 173.7 182.1 171.3 183.5 171.7 187.4 168.1 187.6 165.9 189.1 165.6 192.0 167.3 195.0 166.4 197.6 163.1 205.4 165.0 204.4 166.3 207.4 174.3 217.3 175.3 221.8 180.8 218.1 183.6 221.0 186.4 221.3 189.4 229.5 189.5 231.1 193.2 235.1 192.8 239.8 196.3 244.7 195.9 246.0 197.1 248.2 192.8 247.7 189.2 Z" vector-effect="non-scaling-stroke" stroke="black" stroke-width="1"  stroke-opacity="0.1" transform="translate(1, 1)"></path><path fill="rgb(71,110,158)" d="M 247.7 189.2 L 254.7 190.1 256.8 194.4 260.2 197.8 256.5 199.1 253.3 201.9 248.1 203.8 247.8 207.3 250.4 209.6 248.3 212.1 246.2 212.2 245.1 215.4 242.0 217.1 240.1 216.4 238.2 219.4 237.7 223.1 235.3 224.4 234.2 223.3 225.8 225.4 224.3 224.4 224.0 223.0 222.2 222.3 222.2 218.8 219.7 218.6 218.7 219.9 216.6 221.0 217.8 226.6 217.1 230.9 215.1 231.1 213.2 229.2 213.8 228.5 212.4 226.5 210.4 227.4 208.4 227.3 207.0 225.5 202.0 225.7 200.0 227.0 199.7 229.0 203.7 231.4 203.8 232.9 200.3 232.9 200.2 234.5 196.7 233.9 195.7 228.8 194.5 227.2 192.8 227.5 191.1 225.3 189.7 225.5 189.5 224.1 186.9 220.7 184.3 219.8 182.7 217.9 180.7 217.3 178.4 219.6 178.1 215.2 179.0 214.3 178.2 211.9 176.5 211.6 175.0 212.3 174.8 214.1 172.7 213.3 173.8 210.9 174.8 206.6 174.9 204.7 177.0 203.8 178.2 201.3 176.6 199.4 175.6 200.1 175.0 198.4 177.7 198.4 177.1 196.3 177.9 195.1 182.3 195.6 182.4 193.1 180.8 192.6 181.6 189.6 180.2 188.6 181.7 188.1 182.4 189.5 183.5 186.1 178.7 184.2 177.7 181.6 174.5 180.2 173.7 177.4 174.5 176.3 177.5 173.8 180.7 173.7 182.1 171.3 183.5 171.7 187.4 168.1 187.6 165.9 189.1 165.6 192.0 167.3 195.0 166.4 197.6 163.1 205.4 165.0 204.4 166.3 207.4 174.3 217.3 175.3 221.8 180.8 218.1 183.6 221.0 186.4 221.3 189.4 229.5 189.5 231.1 193.2 235.1 192.8 239.8 196.3 244.7 195.9 246.0 197.1 248.2 192.8 247.7 189.2 Z" vector-effect="non-scaling-stroke" stroke="silver" stroke-width="1" class=" highcharts-name-thringen"></path></g></g><g class="highcharts-markers highcharts-tracker" visibility="visible"  transform="translate(10,44) scale(1 1)" style="" clip-path="none"></g></g><text x="200" text-anchor="middle" class="highcharts-title"  style="color:black;font-size:16px;font-weight:bold;fill:black;width:336px;" y="22"><tspan>GeoJSON in Highmaps</tspan></text><g class="highcharts-button" style="cursor:default;text-align:center;"  transform="translate(10,429)"><title>Zoom in</title><path fill="url(#highcharts-1)" d="M 1.5 -0.5 L 25.5 -0.5 C 26.5 -0.5 27.5 0.5 27.5 1.5 L 27.5 27.5 C 27.5 27.5 27.5 27.5 27.5 27.5 L -0.5 27.5 C -0.5 27.5 -0.5 27.5 -0.5 27.5 L -0.5 1.5 C -0.5 0.5 0.5 -0.5 1.5 -0.5 Z" stroke="#CCCCCC" stroke-width="1"></path><text x="8"  style="font-size:15px;font-weight:bold;color:black;fill:black;" transform="translate(0,19)">+</text></g><g class="highcharts-button" style="cursor:default;text-align:center;"  transform="translate(10,457)"><title>Zoom out</title><path fill="url(#highcharts-1)" d="M -0.5 -0.5 L 27.5 -0.5 C 27.5 -0.5 27.5 -0.5 27.5 -0.5 L 27.5 25.5 C 27.5 26.5 26.5 27.5 25.5 27.5 L 1.5 27.5 C 0.5 27.5 -0.5 26.5 -0.5 25.5 L -0.5 -0.5 C -0.5 -0.5 -0.5 -0.5 -0.5 -0.5 Z" stroke="#CCCCCC" stroke-width="1"></path><text x="11"  style="font-size:15px;font-weight:bold;color:black;fill:black;" transform="translate(0,19)">-</text></g><g class="highcharts-data-labels highcharts-tracker" visibility="visible"  transform="translate(10,44) scale(1 1)" clip-path="url(#highcharts-3)" style=""><g  style="" transform="translate(161,32)"><text x="0"  style="font-size: 11px; font-weight: bold; color: rgb(255, 255, 255); fill: #ffffff; text-shadow: rgb(0, 0, 0) 0px 0px 6px, rgb(0, 0, 0) 0px 0px 3px; " transform="translate(0,11)"><tspan>SH</tspan></text></g><g  style="" transform="translate(274,110)" opacity="0"><text x="0"  style="font-size: 11px; font-weight: bold; color: rgb(255, 255, 255); fill: #ffffff; text-shadow: rgb(0, 0, 0) 0px 0px 6px, rgb(0, 0, 0) 0px 0px 3px; " transform="translate(0,11)"><tspan>BE</tspan></text></g><g  style="" transform="translate(241,42)"><text x="0"  style="font-size: 11px; font-weight: bold; color: rgb(255, 255, 255); fill: #ffffff; text-shadow: rgb(0, 0, 0) 0px 0px 6px, rgb(0, 0, 0) 0px 0px 3px; " transform="translate(0,11)"><tspan>MV</tspan></text></g><g  style="" transform="translate(130,73)"><text x="0"  style="font-size: 11px; font-weight: bold; color: rgb(0, 0, 0); fill: #000000; text-shadow: rgb(255, 255, 255) 0px 0px 6px, rgb(255, 255, 255) 0px 0px 3px; " transform="translate(0,11)"><tspan>HB</tspan></text></g><g  style="" transform="translate(168,61)"><text x="0"  style="font-size: 11px; font-weight: bold; color: rgb(255, 255, 255); fill: #ffffff; text-shadow: rgb(0, 0, 0) 0px 0px 6px, rgb(0, 0, 0) 0px 0px 3px; " transform="translate(0,11)"><tspan>HH</tspan></text></g><g  style="" transform="translate(82,243)"><text x="0"  style="font-size: 11px; font-weight: bold; color: rgb(255, 255, 255); fill: #ffffff; text-shadow: rgb(0, 0, 0) 0px 0px 6px, rgb(0, 0, 0) 0px 0px 3px; " transform="translate(0,11)"><tspan>RP</tspan></text></g><g  style="" transform="translate(69,271)"><text x="0"  style="font-size: 11px; font-weight: bold; color: rgb(0, 0, 0); fill: #000000; text-shadow: rgb(255, 255, 255) 0px 0px 6px, rgb(255, 255, 255) 0px 0px 3px; " transform="translate(0,11)"><tspan>SL</tspan></text></g><g  style="" transform="translate(217,294)"><text x="0"  style="font-size: 11px; font-weight: bold; color: rgb(255, 255, 255); fill: #ffffff; text-shadow: rgb(0, 0, 0) 0px 0px 6px, rgb(0, 0, 0) 0px 0px 3px; " transform="translate(0,11)"><tspan>BY</tspan></text></g><g  style="" transform="translate(279,191)"><text x="0"  style="font-size: 11px; font-weight: bold; color: rgb(0, 0, 0); fill: #000000; text-shadow: rgb(255, 255, 255) 0px 0px 6px, rgb(255, 255, 255) 0px 0px 3px; " transform="translate(0,11)"><tspan>SN</tspan></text></g><g  style="" transform="translate(228,139)"><text x="0"  style="font-size: 11px; font-weight: bold; color: rgb(0, 0, 0); fill: #000000; text-shadow: rgb(255, 255, 255) 0px 0px 6px, rgb(255, 255, 255) 0px 0px 3px; " transform="translate(0,11)"><tspan>ST</tspan></text></g><g  style="" transform="translate(262,113)"><text x="0"  style="font-size: 11px; font-weight: bold; color: rgb(0, 0, 0); fill: #000000; text-shadow: rgb(255, 255, 255) 0px 0px 6px, rgb(255, 255, 255) 0px 0px 3px; " transform="translate(0,11)"><tspan>BE</tspan></text></g><g  style="" transform="translate(93,168)"><text x="0"  style="font-size: 11px; font-weight: bold; color: rgb(0, 0, 0); fill: #000000; text-shadow: rgb(255, 255, 255) 0px 0px 6px, rgb(255, 255, 255) 0px 0px 3px; " transform="translate(0,11)"><tspan>NW</tspan></text></g><g  style="" transform="translate(136,306)"><text x="0"  style="font-size: 11px; font-weight: bold; color: rgb(0, 0, 0); fill: #000000; text-shadow: rgb(255, 255, 255) 0px 0px 6px, rgb(255, 255, 255) 0px 0px 3px; " transform="translate(0,11)"><tspan>BW</tspan></text></g><g  style="" transform="translate(137,214)"><text x="0"  style="font-size: 11px; font-weight: bold; color: rgb(0, 0, 0); fill: #000000; text-shadow: rgb(255, 255, 255) 0px 0px 6px, rgb(255, 255, 255) 0px 0px 3px; " transform="translate(0,11)"><tspan>HE</tspan></text></g><g  style="" transform="translate(143,111)"><text x="0"  style="font-size: 11px; font-weight: bold; color: rgb(0, 0, 0); fill: #000000; text-shadow: rgb(255, 255, 255) 0px 0px 6px, rgb(255, 255, 255) 0px 0px 3px; " transform="translate(0,11)"><tspan>NI</tspan></text></g><g  style="" transform="translate(209,193)"><text x="0"  style="font-size: 11px; font-weight: bold; color: rgb(255, 255, 255); fill: #ffffff; text-shadow: rgb(0, 0, 0) 0px 0px 6px, rgb(0, 0, 0) 0px 0px 3px; " transform="translate(0,11)"><tspan>TH</tspan></text></g></g><g class="highcharts-legend"  transform="translate(93,438)"><g ><g><g class="highcharts-legend-item"  transform="translate(8,3)"><rect x="0" y="5" width="200" height="12"  fill="url(#highcharts-2)"></rect><g class="highcharts-grid" ><path fill="none" d="M -0.5 5 L -0.5 17" stroke="#D8D8D8" stroke-width="1"  opacity="1"></path><path fill="none" d="M 49.5 5 L 49.5 17" stroke="#D8D8D8" stroke-width="1"  opacity="1"></path><path fill="none" d="M 99.5 5 L 99.5 17" stroke="#D8D8D8" stroke-width="1"  opacity="1"></path><path fill="none" d="M 149.5 5 L 149.5 17" stroke="#D8D8D8" stroke-width="1"  opacity="1"></path><path fill="none" d="M 200.5 5 L 200.5 17" stroke="#D8D8D8" stroke-width="1"  opacity="1"></path></g><text x="21" style="color:#333333;font-size:13px;font-weight:bold;cursor:pointer;fill:#333333;" text-anchor="start"  y="16"></text><g class="highcharts-axis" ><path fill="none" d="M -0.5 17 L -0.5 22" stroke="#C0D0E0" stroke-width="1" opacity="1"></path><path fill="none" d="M 49.5 17 L 49.5 22" stroke="#C0D0E0" stroke-width="1" opacity="1"></path><path fill="none" d="M 99.5 17 L 99.5 22" stroke="#C0D0E0" stroke-width="1" opacity="1"></path><path fill="none" d="M 149.5 17 L 149.5 22" stroke="#C0D0E0" stroke-width="1" opacity="1"></path><path fill="none" d="M 200.5 17 L 200.5 22" stroke="#C0D0E0" stroke-width="1" opacity="1"></path></g><g class="highcharts-axis-labels highcharts-coloraxis-labels" ><text x="0" style="color:#6e6e70;cursor:default;font-size:11px;fill:#6e6e70;" text-anchor="start" transform="translate(0,0)" y="36" opacity="1">0</text><text x="50" style="color:#6e6e70;cursor:default;font-size:11px;fill:#6e6e70;" text-anchor="middle" transform="translate(0,0)" y="36" opacity="1">250</text><text x="100" style="color:#6e6e70;cursor:default;font-size:11px;fill:#6e6e70;" text-anchor="middle" transform="translate(0,0)" y="36" opacity="1">500</text><text x="150" style="color:#6e6e70;cursor:default;font-size:11px;fill:#6e6e70;" text-anchor="middle" transform="translate(0,0)" y="36" opacity="1">750</text><text x="200" style="color:#6e6e70;cursor:default;font-size:11px;fill:#6e6e70;" text-anchor="end" transform="translate(0,0)" y="36" opacity="1">1000</text></g></g></g></g></g><g class="highcharts-axis-labels highcharts-xaxis-labels" ></g><g class="highcharts-axis-labels highcharts-yaxis-labels" ></g><g class="highcharts-tooltip"  style="cursor:default;padding:0;white-space:nowrap;" transform="translate(0,-9999)"><path fill="none" d="M 3 0 L 13 0 C 16 0 16 0 16 3 L 16 13 C 16 16 16 16 13 16 L 3 16 C 0 16 0 16 0 13 L 0 3 C 0 0 0 0 3 0"  stroke="black" stroke-opacity="0.0" stroke-width="5" transform="translate(1, 1)"></path><path fill="none" d="M 3 0 L 13 0 C 16 0 16 0 16 3 L 16 13 C 16 16 16 16 13 16 L 3 16 C 0 16 0 16 0 13 L 0 3 C 0 0 0 0 3 0"  stroke="black" stroke-opacity="0.0" stroke-width="3" transform="translate(1, 1)"></path><path fill="none" d="M 3 0 L 13 0 C 16 0 16 0 16 3 L 16 13 C 16 16 16 16 13 16 L 3 16 C 0 16 0 16 0 13 L 0 3 C 0 0 0 0 3 0"  stroke="black" stroke-opacity="0.1" stroke-width="1" transform="translate(1, 1)"></path><path fill="rgb(249, 249, 249)" fill-opacity=" .85" d="M 3 0 L 13 0 C 16 0 16 0 16 3 L 16 13 C 16 16 16 16 13 16 L 3 16 C 0 16 0 16 0 13 L 0 3 C 0 0 0 0 3 0"></path><text x="8"  style="font-size:12px;color:#333333;fill:#333333;" transform="translate(0,20)"></text></g></svg>