<svg version="1.1" style="font-family:&quot;lucida grande&quot;, &quot;lucida sans unicode&quot;, arial, helvetica, sans-serif;font-size:12px;" xmlns="http://www.w3.org/2000/svg" width="584" height="400" viewBox="0 0 584 400"><desc>Created with Highcharts 4.1.4</desc><defs><clipPath id="highcharts-1"><rect x="0" y="0" width="503" height="303"></rect></clipPath><clipPath id="highcharts-2"><rect x="-99" y="-61" width="602" height="400"></rect></clipPath><clipPath id="highcharts-3"><rect x="0" y="0" width="503" height="303"></rect></clipPath><linearGradient x1="0" y1="0" x2="0" y2="1" id="highcharts-4"><stop offset="0" stop-color="#7cb5ec" stop-opacity="1"></stop><stop offset="1" stop-color="rgb(124,181,236)" stop-opacity="0"></stop></linearGradient></defs><rect x="0" y="0" width="584" height="400" strokeWidth="0" fill="#FFFFFF" class=" highcharts-background" stroke="transparent"></rect><g class="highcharts-grid" ></g><g class="highcharts-grid" ><path fill="none" d="M 71 364.5 L 574 364.5" stroke="#D8D8D8" stroke-width="1"  opacity="1"></path><path fill="none" d="M 71 313.5 L 574 313.5" stroke="#D8D8D8" stroke-width="1"  opacity="1"></path><path fill="none" d="M 71 263.5 L 574 263.5" stroke="#D8D8D8" stroke-width="1"  opacity="1"></path><path fill="none" d="M 71 213.5 L 574 213.5" stroke="#D8D8D8" stroke-width="1"  opacity="1"></path><path fill="none" d="M 71 162.5 L 574 162.5" stroke="#D8D8D8" stroke-width="1"  opacity="1"></path><path fill="none" d="M 71 112.5 L 574 112.5" stroke="#D8D8D8" stroke-width="1"  opacity="1"></path><path fill="none" d="M 71 60.5 L 574 60.5" stroke="#D8D8D8" stroke-width="1"  opacity="1"></path></g><g class="highcharts-axis" ><path fill="none" d="M 75.5 364 L 75.5 374" stroke="#C0D0E0" stroke-width="1" opacity="1"></path><path fill="none" d="M 156.5 364 L 156.5 374" stroke="#C0D0E0" stroke-width="1" opacity="1"></path><path fill="none" d="M 239.5 364 L 239.5 374" stroke="#C0D0E0" stroke-width="1" opacity="1"></path><path fill="none" d="M 321.5 364 L 321.5 374" stroke="#C0D0E0" stroke-width="1" opacity="1"></path><path fill="none" d="M 404.5 364 L 404.5 374" stroke="#C0D0E0" stroke-width="1" opacity="1"></path><path fill="none" d="M 486.5 364 L 486.5 374" stroke="#C0D0E0" stroke-width="1" opacity="1"></path><path fill="none" d="M 569.5 364 L 569.5 374" stroke="#C0D0E0" stroke-width="1" opacity="1"></path><path fill="none" d="M 71 364.5 L 574 364.5" stroke="#C0D0E0" stroke-width="1"  visibility="visible"></path></g><g class="highcharts-axis" ><text x="24"  text-anchor="middle" transform="translate(0,0) rotate(270 24 212.5)" class=" highcharts-yaxis-title" style="color:#707070;fill:#707070;" visibility="visible" y="212.5"><tspan>Exchange rate</tspan></text></g><g class="highcharts-series-group" ><g class="highcharts-series" visibility="visible"  transform="translate(71,61) scale(1 1)" clip-path="url(#highcharts-3)"><path fill="url(#highcharts-4)" d="M 4.9 55.9 L 5.3 56.0 L 5.8 56.1 L 6.2 55.4 L 6.7 58.7 L 7.1 74.3 L 7.6 74.9 L 8.0 77.5 L 8.5 77.4 L 8.9 74.9 L 9.4 72.4 L 9.8 72.9 L 10.3 75.1 L 10.7 71.5 L 11.2 76.8 L 11.6 76.8 L 12.1 76.2 L 12.5 74.2 L 13.0 74.6 L 13.4 73.8 L 13.9 73.4 L 14.3 76.3 L 14.8 76.3 L 15.2 83.6 L 15.7 86.9 L 16.1 86.2 L 16.6 84.4 L 17.0 80.8 L 17.5 73.8 L 17.9 73.8 L 18.4 73.8 L 18.8 74.9 L 19.3 76.0 L 19.7 72.1 L 20.2 71.8 L 20.6 69.0 L 21.1 68.6 L 21.5 67.3 L 22.0 65.4 L 22.4 64.9 L 22.9 65.1 L 23.3 65.2 L 23.8 60.2 L 24.2 60.2 L 24.7 59.9 L 25.1 60.2 L 25.6 61.0 L 26.0 58.7 L 26.5 59.6 L 26.9 62.2 L 27.4 62.0 L 27.8 63.4 L 28.3 61.6 L 28.8 60.6 L 29.2 61.7 L 29.7 60.6 L 30.1 58.2 L 30.6 58.2 L 31.0 57.0 L 31.5 58.3 L 31.9 62.6 L 32.4 63.3 L 32.8 69.0 L 33.3 70.3 L 33.7 70.3 L 34.2 70.4 L 34.6 63.7 L 35.1 60.6 L 35.5 62.1 L 36.0 60.6 L 36.4 60.4 L 36.9 60.3 L 37.3 62.5 L 37.8 65.5 L 38.2 69.2 L 38.7 73.4 L 39.1 79.4 L 39.6 80.0 L 40.0 80.0 L 40.5 79.2 L 40.9 76.5 L 41.4 73.4 L 41.8 70.5 L 42.3 66.0 L 42.7 69.4 L 43.2 69.4 L 43.6 69.4 L 44.1 70.0 L 44.5 67.9 L 45.0 72.5 L 45.4 76.7 L 45.9 75.2 L 46.3 75.1 L 46.8 73.4 L 47.2 79.8 L 47.7 85.7 L 48.1 85.9 L 48.6 79.4 L 49.0 73.4 L 49.5 73.4 L 49.9 74.6 L 50.4 75.5 L 50.8 76.7 L 51.3 74.5 L 51.7 74.9 L 52.2 74.6 L 52.6 74.7 L 53.1 80.9 L 53.5 85.5 L 54.0 91.2 L 54.4 90.7 L 54.9 88.9 L 55.3 90.1 L 55.8 90.3 L 56.2 92.5 L 56.7 94.0 L 57.1 96.2 L 57.6 98.6 L 58.0 104.5 L 58.5 109.1 L 58.9 108.9 L 59.4 108.8 L 59.8 107.6 L 60.3 109.2 L 60.7 109.5 L 61.2 114.1 L 61.6 115.0 L 62.1 115.0 L 62.5 115.8 L 63.0 114.4 L 63.4 118.4 L 63.9 117.7 L 64.3 124.6 L 64.8 126.1 L 65.2 127.3 L 65.7 124.5 L 66.1 120.9 L 66.6 122.4 L 67.0 118.3 L 67.5 119.5 L 67.9 118.2 L 68.4 118.1 L 68.8 118.2 L 69.3 123.1 L 69.7 120.0 L 70.2 118.0 L 70.6 118.5 L 71.1 115.6 L 71.5 115.6 L 72.0 116.6 L 72.4 121.4 L 72.9 123.5 L 73.3 118.9 L 73.8 122.7 L 74.2 126.8 L 74.7 126.9 L 75.1 128.6 L 75.6 124.6 L 76.0 120.5 L 76.5 116.1 L 76.9 110.3 L 77.4 109.8 L 77.8 109.7 L 78.3 107.9 L 78.7 105.8 L 79.2 105.9 L 79.6 108.2 L 80.1 110.0 L 80.5 109.7 L 81.0 109.8 L 81.4 106.9 L 81.9 105.7 L 82.3 108.9 L 82.8 109.1 L 83.2 104.2 L 83.7 101.1 L 84.1 101.1 L 84.6 103.6 L 85.0 106.8 L 85.5 105.0 L 85.9 104.1 L 86.4 114.9 L 86.8 119.0 L 87.3 119.0 L 87.7 119.0 L 88.2 120.0 L 88.6 117.8 L 89.1 116.2 L 89.5 119.2 L 90.0 120.2 L 90.4 120.2 L 90.9 118.4 L 91.3 116.3 L 91.8 116.1 L 92.2 113.8 L 92.7 111.7 L 93.2 110.3 L 93.6 110.1 L 94.1 106.3 L 94.5 102.3 L 95.0 102.0 L 95.4 108.3 L 95.9 111.0 L 96.3 113.3 L 96.8 113.3 L 97.2 110.3 L 97.7 108.8 L 98.1 107.3 L 98.6 115.1 L 99.0 114.1 L 99.5 117.3 L 99.9 117.3 L 100.4 117.4 L 100.8 117.5 L 101.3 120.5 L 101.7 118.6 L 102.2 121.4 L 102.6 124.2 L 103.1 124.2 L 103.5 124.0 L 104.0 121.9 L 104.4 122.4 L 104.9 122.7 L 105.3 117.9 L 105.8 114.6 L 106.2 114.6 L 106.7 115.8 L 107.1 116.4 L 107.6 120.2 L 108.0 123.2 L 108.5 121.3 L 108.9 121.1 L 109.4 121.0 L 109.8 124.7 L 110.3 122.7 L 110.7 120.0 L 111.2 119.1 L 111.6 117.6 L 112.1 116.6 L 112.5 116.7 L 113.0 119.1 L 113.4 120.0 L 113.9 121.7 L 114.3 121.8 L 114.8 120.5 L 115.2 121.8 L 115.7 121.8 L 116.1 123.4 L 116.6 121.9 L 117.0 120.3 L 117.5 118.7 L 117.9 114.1 L 118.4 111.7 L 118.8 111.8 L 119.3 112.9 L 119.7 114.0 L 120.2 112.9 L 120.6 114.0 L 121.1 113.3 L 121.5 111.0 L 122.0 110.9 L 122.4 111.3 L 122.9 113.2 L 123.3 112.5 L 123.8 115.3 L 124.2 119.7 L 124.7 118.6 L 125.1 118.5 L 125.6 118.5 L 126.0 115.1 L 126.5 113.3 L 126.9 114.3 L 127.4 112.8 L 127.8 111.8 L 128.3 111.9 L 128.7 113.5 L 129.2 116.1 L 129.6 114.1 L 130.1 113.8 L 130.5 110.9 L 131.0 107.4 L 131.4 107.1 L 131.9 107.2 L 132.3 105.4 L 132.8 103.5 L 133.2 103.2 L 133.7 103.8 L 134.1 101.5 L 134.6 101.5 L 135.0 101.6 L 135.5 103.4 L 135.9 103.3 L 136.4 105.0 L 136.8 108.8 L 137.3 108.2 L 137.7 108.1 L 138.2 106.2 L 138.6 104.0 L 139.1 105.7 L 139.5 110.3 L 140.0 113.9 L 140.4 115.9 L 140.9 115.9 L 141.3 115.1 L 141.8 114.9 L 142.2 117.5 L 142.7 117.4 L 143.1 117.1 L 143.6 114.4 L 144.0 114.4 L 144.5 114.2 L 144.9 117.4 L 145.4 118.4 L 145.8 118.6 L 146.3 123.3 L 146.7 122.1 L 147.2 122.2 L 147.6 122.5 L 148.1 121.1 L 148.5 120.4 L 149.0 120.8 L 149.4 119.4 L 149.9 121.3 L 150.3 121.3 L 150.8 121.7 L 151.2 121.0 L 151.7 124.7 L 152.1 128.7 L 152.6 133.0 L 153.0 137.2 L 153.5 137.4 L 153.9 139.7 L 154.4 140.5 L 154.8 142.4 L 155.3 143.2 L 155.7 147.5 L 156.2 151.5 L 156.7 151.5 L 157.1 150.7 L 157.6 150.9 L 158.0 149.8 L 158.5 149.2 L 158.9 148.3 L 159.4 143.7 L 159.8 143.7 L 160.3 143.2 L 160.7 146.4 L 161.2 147.2 L 161.6 143.8 L 162.1 139.7 L 162.5 136.5 L 163.0 136.5 L 163.4 137.2 L 163.9 139.9 L 164.3 144.4 L 164.8 142.7 L 165.2 142.6 L 165.7 139.3 L 166.1 139.3 L 166.6 139.6 L 167.0 139.5 L 167.5 139.8 L 167.9 140.1 L 168.4 141.8 L 168.8 143.4 L 169.3 143.4 L 169.7 143.4 L 170.2 146.7 L 170.6 146.5 L 171.1 140.0 L 171.5 135.8 L 172.0 132.0 L 172.4 131.9 L 172.9 132.5 L 173.3 133.5 L 173.8 130.4 L 174.2 128.5 L 174.7 126.3 L 175.1 127.1 L 175.6 127.1 L 176.0 128.0 L 176.5 128.5 L 176.9 127.5 L 177.4 128.8 L 177.8 130.0 L 178.3 129.2 L 178.7 129.1 L 179.2 129.5 L 179.6 130.8 L 180.1 132.3 L 180.5 130.1 L 181.0 127.2 L 181.4 126.7 L 181.9 126.7 L 182.3 127.2 L 182.8 129.6 L 183.2 129.9 L 183.7 133.5 L 184.1 132.5 L 184.6 129.4 L 185.0 129.4 L 185.5 128.4 L 185.9 128.3 L 186.4 131.5 L 186.8 132.8 L 187.3 133.2 L 187.7 132.3 L 188.2 132.3 L 188.6 131.5 L 189.1 131.4 L 189.5 136.2 L 190.0 140.0 L 190.4 139.7 L 190.9 139.9 L 191.3 139.9 L 191.8 140.6 L 192.2 141.1 L 192.7 140.2 L 193.1 139.1 L 193.6 139.8 L 194.0 141.6 L 194.5 141.6 L 194.9 142.2 L 195.4 144.1 L 195.8 144.8 L 196.3 144.7 L 196.7 142.3 L 197.2 143.2 L 197.6 142.9 L 198.1 140.0 L 198.5 138.2 L 199.0 139.8 L 199.4 141.3 L 199.9 140.0 L 200.3 138.6 L 200.8 138.6 L 201.2 140.5 L 201.7 143.1 L 202.1 143.9 L 202.6 145.2 L 203.0 149.4 L 203.5 150.2 L 203.9 150.2 L 204.4 149.7 L 204.8 149.4 L 205.3 150.3 L 205.7 153.5 L 206.2 150.5 L 206.6 148.3 L 207.1 148.3 L 207.5 148.7 L 208.0 151.7 L 208.4 152.2 L 208.9 151.0 L 209.3 151.5 L 209.8 152.4 L 210.2 152.4 L 210.7 153.0 L 211.1 153.1 L 211.6 152.3 L 212.0 154.4 L 212.5 155.6 L 212.9 153.8 L 213.4 153.8 L 213.8 153.2 L 214.3 155.7 L 214.7 156.7 L 215.2 158.5 L 215.6 161.7 L 216.1 162.1 L 216.5 162.1 L 217.0 163.8 L 217.4 163.4 L 217.9 165.4 L 218.3 166.1 L 218.8 166.8 L 219.2 165.5 L 219.7 165.5 L 220.2 165.1 L 220.6 165.4 L 221.1 168.5 L 221.5 167.7 L 222.0 167.2 L 222.4 168.9 L 222.9 168.9 L 223.3 168.0 L 223.8 168.3 L 224.2 165.7 L 224.7 165.7 L 225.1 164.4 L 225.6 165.6 L 226.0 165.6 L 226.5 166.6 L 226.9 165.1 L 227.4 163.2 L 227.8 162.1 L 228.3 160.2 L 228.7 161.9 L 229.2 162.0 L 229.6 163.1 L 230.1 163.8 L 230.5 165.0 L 231.0 161.6 L 231.4 160.4 L 231.9 160.9 L 232.3 161.0 L 232.8 160.1 L 233.2 158.4 L 233.7 158.4 L 234.1 157.7 L 234.6 157.2 L 235.0 157.2 L 235.5 157.2 L 235.9 158.1 L 236.4 158.6 L 236.8 157.3 L 237.3 157.5 L 237.7 157.6 L 238.2 157.8 L 238.6 157.8 L 239.1 158.6 L 239.5 161.2 L 240.0 161.7 L 240.4 159.7 L 240.9 154.7 L 241.3 153.5 L 241.8 153.5 L 242.2 152.5 L 242.7 152.1 L 243.1 149.2 L 243.6 149.9 L 244.0 151.2 L 244.5 154.3 L 244.9 154.3 L 245.4 155.3 L 245.8 156.0 L 246.3 156.6 L 246.7 154.8 L 247.2 155.7 L 247.6 158.8 L 248.1 158.8 L 248.5 158.5 L 249.0 158.6 L 249.4 157.5 L 249.9 158.5 L 250.3 159.3 L 250.8 162.8 L 251.2 162.8 L 251.7 164.7 L 252.1 167.1 L 252.6 167.1 L 253.0 167.1 L 253.5 166.4 L 253.9 167.5 L 254.4 167.5 L 254.8 167.6 L 255.3 169.2 L 255.7 174.5 L 256.2 175.3 L 256.6 176.2 L 257.1 175.9 L 257.5 175.9 L 258.0 176.1 L 258.4 176.0 L 258.9 177.0 L 259.3 177.4 L 259.8 177.3 L 260.2 178.2 L 260.7 178.2 L 261.1 178.2 L 261.6 178.2 L 262.0 175.5 L 262.5 172.9 L 262.9 171.5 L 263.4 167.9 L 263.8 167.9 L 264.3 169.2 L 264.7 172.0 L 265.2 169.9 L 265.6 170.1 L 266.1 172.9 L 266.5 175.4 L 267.0 175.4 L 267.4 177.5 L 267.9 176.4 L 268.3 175.3 L 268.8 174.7 L 269.2 170.4 L 269.7 171.1 L 270.1 171.1 L 270.6 169.8 L 271.0 165.8 L 271.5 160.6 L 271.9 156.1 L 272.4 157.8 L 272.8 159.1 L 273.3 159.1 L 273.7 160.0 L 274.2 159.6 L 274.6 160.1 L 275.1 163.9 L 275.5 166.1 L 276.0 170.1 L 276.4 170.1 L 276.9 169.6 L 277.3 168.4 L 277.8 167.0 L 278.2 168.8 L 278.7 169.3 L 279.1 167.6 L 279.6 167.6 L 280.0 168.0 L 280.5 166.5 L 280.9 167.0 L 281.4 169.5 L 281.8 172.3 L 282.3 175.1 L 282.7 175.1 L 283.2 176.3 L 283.7 177.5 L 284.1 180.4 L 284.6 182.1 L 285.0 180.8 L 285.5 180.7 L 285.9 180.7 L 286.4 180.7 L 286.8 180.8 L 287.3 185.9 L 287.7 188.5 L 288.2 191.3 L 288.6 192.0 L 289.1 192.0 L 289.5 192.6 L 290.0 192.6 L 290.4 194.3 L 290.9 194.9 L 291.3 197.0 L 291.8 200.7 L 292.2 200.8 L 292.7 200.0 L 293.1 197.3 L 293.6 195.6 L 294.0 193.0 L 294.5 194.2 L 294.9 194.2 L 295.4 194.2 L 295.8 192.8 L 296.3 190.0 L 296.7 194.0 L 297.2 196.6 L 297.6 196.9 L 298.1 196.4 L 298.5 196.4 L 299.0 197.4 L 299.4 196.8 L 299.9 196.8 L 300.3 200.2 L 300.8 202.0 L 301.2 202.5 L 301.7 202.6 L 302.1 200.5 L 302.6 198.3 L 303.0 199.8 L 303.5 201.7 L 303.9 205.3 L 304.4 207.0 L 304.8 207.0 L 305.3 208.1 L 305.7 208.0 L 306.2 209.8 L 306.6 210.1 L 307.1 210.6 L 307.5 212.7 L 308.0 213.0 L 308.4 211.6 L 308.9 213.1 L 309.3 218.7 L 309.8 219.8 L 310.2 221.4 L 310.7 220.6 L 311.1 220.6 L 311.6 217.4 L 312.0 216.2 L 312.5 219.9 L 312.9 219.4 L 313.4 218.4 L 313.8 219.8 L 314.3 219.9 L 314.7 219.9 L 315.2 223.0 L 315.6 227.6 L 316.1 228.7 L 316.5 229.1 L 317.0 228.0 L 317.4 227.8 L 317.9 228.3 L 318.3 229.1 L 318.8 226.1 L 319.2 226.1 L 319.7 223.7 L 320.1 220.3 L 320.6 218.5 L 321.0 219.8 L 321.5 221.6 L 321.9 222.9 L 322.4 217.2 L 322.8 218.8 L 323.3 219.6 L 323.7 219.6 L 324.2 220.5 L 324.6 222.3 L 325.1 220.8 L 325.5 221.2 L 326.0 215.3 L 326.4 208.7 L 326.9 208.7 L 327.3 207.5 L 327.8 207.6 L 328.2 207.4 L 328.7 205.6 L 329.1 205.5 L 329.6 206.4 L 330.0 206.4 L 330.5 207.0 L 330.9 207.2 L 331.4 209.2 L 331.8 213.4 L 332.3 219.7 L 332.7 222.8 L 333.2 222.8 L 333.6 221.8 L 334.1 216.6 L 334.5 219.7 L 335.0 223.1 L 335.4 223.9 L 335.9 223.7 L 336.3 223.7 L 336.8 222.5 L 337.2 222.1 L 337.7 221.8 L 338.1 221.6 L 338.6 226.2 L 339.0 225.2 L 339.5 225.2 L 339.9 228.6 L 340.4 229.6 L 340.8 225.8 L 341.3 220.0 L 341.7 219.0 L 342.2 217.9 L 342.6 217.9 L 343.1 213.4 L 343.5 211.7 L 344.0 217.3 L 344.4 219.7 L 344.9 223.4 L 345.3 220.7 L 345.8 220.7 L 346.2 222.5 L 346.7 225.3 L 347.2 225.7 L 347.6 228.9 L 348.1 229.3 L 348.5 226.4 L 349.0 226.4 L 349.4 227.2 L 349.9 224.2 L 350.3 218.8 L 350.8 216.5 L 351.2 211.7 L 351.7 212.5 L 352.1 212.5 L 352.6 213.9 L 353.0 214.2 L 353.5 215.9 L 353.9 216.9 L 354.4 219.8 L 354.8 220.8 L 355.3 220.8 L 355.7 219.9 L 356.2 221.9 L 356.6 221.9 L 357.1 223.8 L 357.5 227.4 L 358.0 227.5 L 358.4 227.5 L 358.9 227.4 L 359.3 228.9 L 359.8 237.3 L 360.2 241.2 L 360.7 244.1 L 361.1 243.4 L 361.6 243.4 L 362.0 244.3 L 362.5 244.6 L 362.9 245.0 L 363.4 249.2 L 363.8 252.2 L 364.3 251.0 L 364.7 251.0 L 365.2 251.7 L 365.6 251.4 L 366.1 253.6 L 366.5 260.1 L 367.0 261.9 L 367.4 264.4 L 367.9 264.4 L 368.3 268.5 L 368.8 268.2 L 369.2 264.8 L 369.7 258.6 L 370.1 254.7 L 370.6 254.4 L 371.0 254.4 L 371.5 253.1 L 371.9 258.7 L 372.4 264.9 L 372.8 269.7 L 373.3 269.0 L 373.7 269.3 L 374.2 269.3 L 374.6 269.6 L 375.1 265.5 L 375.5 262.2 L 376.0 263.0 L 376.4 266.2 L 376.9 267.0 L 377.3 267.0 L 377.8 265.8 L 378.2 266.9 L 378.7 267.2 L 379.1 270.6 L 379.6 269.4 L 380.0 269.8 L 380.5 269.5 L 380.9 268.4 L 381.4 270.5 L 381.8 272.4 L 382.3 274.9 L 382.7 271.8 L 383.2 270.2 L 383.6 270.2 L 384.1 271.9 L 384.5 275.0 L 385.0 275.8 L 385.4 269.1 L 385.9 263.4 L 386.3 262.5 L 386.8 262.4 L 387.2 263.0 L 387.7 261.8 L 388.1 260.2 L 388.6 259.6 L 389.0 255.3 L 389.5 254.0 L 389.9 253.9 L 390.4 255.8 L 390.8 258.1 L 391.3 255.8 L 391.7 251.5 L 392.2 254.7 L 392.6 256.4 L 393.1 256.4 L 393.5 255.7 L 394.0 257.6 L 394.4 255.5 L 394.9 256.4 L 395.3 257.3 L 395.8 260.3 L 396.2 260.3 L 396.7 260.0 L 397.1 261.1 L 397.6 266.0 L 398.0 268.0 L 398.5 267.6 L 398.9 268.0 L 399.4 268.0 L 399.8 268.3 L 400.3 268.0 L 400.7 264.7 L 401.2 260.9 L 401.6 258.3 L 402.1 259.4 L 402.5 259.4 L 403.0 259.0 L 403.4 258.5 L 403.9 255.2 L 404.3 255.6 L 404.8 264.0 L 405.2 267.0 L 405.7 268.6 L 406.1 268.0 L 406.6 259.5 L 407.0 257.3 L 407.5 255.8 L 407.9 251.8 L 408.4 252.0 L 408.8 252.1 L 409.3 254.4 L 409.7 257.4 L 410.2 257.5 L 410.7 258.4 L 411.1 261.1 L 411.6 261.6 L 412.0 261.6 L 412.5 259.7 L 412.9 259.4 L 413.4 260.7 L 413.8 265.5 L 414.3 267.7 L 414.7 269.3 L 415.2 269.2 L 415.6 268.8 L 416.1 268.4 L 416.5 270.6 L 417.0 270.8 L 417.4 265.6 L 417.9 265.8 L 418.3 265.8 L 418.8 264.3 L 419.2 265.5 L 419.7 265.5 L 420.1 267.1 L 420.6 270.6 L 421.0 275.0 L 421.5 275.1 L 421.9 273.6 L 422.4 275.3 L 422.8 273.4 L 423.3 271.5 L 423.7 271.6 L 424.2 271.4 L 424.6 271.4 L 425.1 272.2 L 425.5 273.3 L 426.0 267.8 L 426.4 264.8 L 426.9 265.8 L 427.3 265.8 L 427.8 265.8 L 428.2 266.6 L 428.7 265.6 L 429.1 260.7 L 429.6 261.4 L 430.0 259.0 L 430.5 259.8 L 430.9 259.8 L 431.4 260.6 L 431.8 257.9 L 432.3 255.7 L 432.7 253.8 L 433.2 243.0 L 433.6 235.7 L 434.1 235.7 L 434.5 234.5 L 435.0 231.0 L 435.4 231.7 L 435.9 230.4 L 436.3 223.8 L 436.8 221.0 L 437.2 221.0 L 437.7 222.8 L 438.1 221.7 L 438.6 224.1 L 439.0 226.6 L 439.5 228.7 L 439.9 225.9 L 440.4 226.0 L 440.8 224.5 L 441.3 220.6 L 441.7 221.9 L 442.2 224.2 L 442.6 222.6 L 443.1 220.4 L 443.5 220.4 L 444.0 218.9 L 444.4 214.4 L 444.9 210.8 L 445.3 210.6 L 445.8 201.0 L 446.2 200.7 L 446.7 200.9 L 447.1 201.4 L 447.6 194.3 L 448.0 193.2 L 448.5 184.8 L 448.9 191.3 L 449.4 198.8 L 449.8 199.0 L 450.3 201.3 L 450.7 198.4 L 451.2 197.4 L 451.6 206.4 L 452.1 203.2 L 452.5 210.5 L 453.0 210.6 L 453.4 216.2 L 453.9 224.4 L 454.3 220.6 L 454.8 220.6 L 455.2 217.8 L 455.7 217.5 L 456.1 217.5 L 456.6 209.7 L 457.0 202.3 L 457.5 192.1 L 457.9 183.0 L 458.4 178.5 L 458.8 175.5 L 459.3 175.1 L 459.7 165.7 L 460.2 164.8 L 460.6 167.9 L 461.1 169.9 L 461.5 162.9 L 462.0 154.8 L 462.4 155.4 L 462.9 165.0 L 463.3 169.7 L 463.8 165.5 L 464.2 157.8 L 464.7 158.3 L 465.1 155.4 L 465.6 155.4 L 466.0 156.1 L 466.5 146.5 L 466.9 127.0 L 467.4 121.0 L 467.8 110.7 L 468.3 113.5 L 468.7 108.2 L 469.2 101.9 L 469.6 100.2 L 470.1 118.8 L 470.5 135.2 L 471.0 116.1 L 471.4 114.8 L 471.9 114.9 L 472.3 119.0 L 472.8 115.3 L 473.2 128.1 L 473.7 123.3 L 474.1 116.7 L 474.6 114.5 L 475.1 114.7 L 475.5 122.4 L 476.0 113.6 L 476.4 103.9 L 476.9 100.5 L 477.3 115.4 L 477.8 107.8 L 478.2 107.2 L 478.7 108.3 L 479.1 109.2 L 479.6 109.1 L 480.0 102.1 L 480.5 102.2 L 480.9 106.1 L 481.4 106.2 L 481.8 112.9 L 482.3 126.7 L 482.7 130.2 L 483.2 126.2 L 483.6 122.1 L 484.1 112.9 L 484.5 112.9 L 485.0 111.2 L 485.4 110.5 L 485.9 112.2 L 486.3 113.2 L 486.8 115.6 L 487.2 114.5 L 487.7 114.6 L 488.1 121.7 L 488.6 125.4 L 489.0 129.5 L 489.5 140.3 L 489.9 151.8 L 490.4 154.4 L 490.8 154.2 L 491.3 160.8 L 491.7 172.9 L 492.2 194.5 L 492.6 209.3 L 493.1 193.6 L 493.5 182.7 L 494.0 182.8 L 494.4 186.5 L 494.9 186.2 L 495.3 186.0 L 495.8 187.8 L 496.2 189.9 L 496.7 188.9 L 497.1 188.9 L 497.6 197.0 L 498.0 192.4 L 498.0 303 L 4.9 303" ></path><path fill="none" d="M 4.9 55.9 L 5.3 56.0 L 5.8 56.1 L 6.2 55.4 L 6.7 58.7 L 7.1 74.3 L 7.6 74.9 L 8.0 77.5 L 8.5 77.4 L 8.9 74.9 L 9.4 72.4 L 9.8 72.9 L 10.3 75.1 L 10.7 71.5 L 11.2 76.8 L 11.6 76.8 L 12.1 76.2 L 12.5 74.2 L 13.0 74.6 L 13.4 73.8 L 13.9 73.4 L 14.3 76.3 L 14.8 76.3 L 15.2 83.6 L 15.7 86.9 L 16.1 86.2 L 16.6 84.4 L 17.0 80.8 L 17.5 73.8 L 17.9 73.8 L 18.4 73.8 L 18.8 74.9 L 19.3 76.0 L 19.7 72.1 L 20.2 71.8 L 20.6 69.0 L 21.1 68.6 L 21.5 67.3 L 22.0 65.4 L 22.4 64.9 L 22.9 65.1 L 23.3 65.2 L 23.8 60.2 L 24.2 60.2 L 24.7 59.9 L 25.1 60.2 L 25.6 61.0 L 26.0 58.7 L 26.5 59.6 L 26.9 62.2 L 27.4 62.0 L 27.8 63.4 L 28.3 61.6 L 28.8 60.6 L 29.2 61.7 L 29.7 60.6 L 30.1 58.2 L 30.6 58.2 L 31.0 57.0 L 31.5 58.3 L 31.9 62.6 L 32.4 63.3 L 32.8 69.0 L 33.3 70.3 L 33.7 70.3 L 34.2 70.4 L 34.6 63.7 L 35.1 60.6 L 35.5 62.1 L 36.0 60.6 L 36.4 60.4 L 36.9 60.3 L 37.3 62.5 L 37.8 65.5 L 38.2 69.2 L 38.7 73.4 L 39.1 79.4 L 39.6 80.0 L 40.0 80.0 L 40.5 79.2 L 40.9 76.5 L 41.4 73.4 L 41.8 70.5 L 42.3 66.0 L 42.7 69.4 L 43.2 69.4 L 43.6 69.4 L 44.1 70.0 L 44.5 67.9 L 45.0 72.5 L 45.4 76.7 L 45.9 75.2 L 46.3 75.1 L 46.8 73.4 L 47.2 79.8 L 47.7 85.7 L 48.1 85.9 L 48.6 79.4 L 49.0 73.4 L 49.5 73.4 L 49.9 74.6 L 50.4 75.5 L 50.8 76.7 L 51.3 74.5 L 51.7 74.9 L 52.2 74.6 L 52.6 74.7 L 53.1 80.9 L 53.5 85.5 L 54.0 91.2 L 54.4 90.7 L 54.9 88.9 L 55.3 90.1 L 55.8 90.3 L 56.2 92.5 L 56.7 94.0 L 57.1 96.2 L 57.6 98.6 L 58.0 104.5 L 58.5 109.1 L 58.9 108.9 L 59.4 108.8 L 59.8 107.6 L 60.3 109.2 L 60.7 109.5 L 61.2 114.1 L 61.6 115.0 L 62.1 115.0 L 62.5 115.8 L 63.0 114.4 L 63.4 118.4 L 63.9 117.7 L 64.3 124.6 L 64.8 126.1 L 65.2 127.3 L 65.7 124.5 L 66.1 120.9 L 66.6 122.4 L 67.0 118.3 L 67.5 119.5 L 67.9 118.2 L 68.4 118.1 L 68.8 118.2 L 69.3 123.1 L 69.7 120.0 L 70.2 118.0 L 70.6 118.5 L 71.1 115.6 L 71.5 115.6 L 72.0 116.6 L 72.4 121.4 L 72.9 123.5 L 73.3 118.9 L 73.8 122.7 L 74.2 126.8 L 74.7 126.9 L 75.1 128.6 L 75.6 124.6 L 76.0 120.5 L 76.5 116.1 L 76.9 110.3 L 77.4 109.8 L 77.8 109.7 L 78.3 107.9 L 78.7 105.8 L 79.2 105.9 L 79.6 108.2 L 80.1 110.0 L 80.5 109.7 L 81.0 109.8 L 81.4 106.9 L 81.9 105.7 L 82.3 108.9 L 82.8 109.1 L 83.2 104.2 L 83.7 101.1 L 84.1 101.1 L 84.6 103.6 L 85.0 106.8 L 85.5 105.0 L 85.9 104.1 L 86.4 114.9 L 86.8 119.0 L 87.3 119.0 L 87.7 119.0 L 88.2 120.0 L 88.6 117.8 L 89.1 116.2 L 89.5 119.2 L 90.0 120.2 L 90.4 120.2 L 90.9 118.4 L 91.3 116.3 L 91.8 116.1 L 92.2 113.8 L 92.7 111.7 L 93.2 110.3 L 93.6 110.1 L 94.1 106.3 L 94.5 102.3 L 95.0 102.0 L 95.4 108.3 L 95.9 111.0 L 96.3 113.3 L 96.8 113.3 L 97.2 110.3 L 97.7 108.8 L 98.1 107.3 L 98.6 115.1 L 99.0 114.1 L 99.5 117.3 L 99.9 117.3 L 100.4 117.4 L 100.8 117.5 L 101.3 120.5 L 101.7 118.6 L 102.2 121.4 L 102.6 124.2 L 103.1 124.2 L 103.5 124.0 L 104.0 121.9 L 104.4 122.4 L 104.9 122.7 L 105.3 117.9 L 105.8 114.6 L 106.2 114.6 L 106.7 115.8 L 107.1 116.4 L 107.6 120.2 L 108.0 123.2 L 108.5 121.3 L 108.9 121.1 L 109.4 121.0 L 109.8 124.7 L 110.3 122.7 L 110.7 120.0 L 111.2 119.1 L 111.6 117.6 L 112.1 116.6 L 112.5 116.7 L 113.0 119.1 L 113.4 120.0 L 113.9 121.7 L 114.3 121.8 L 114.8 120.5 L 115.2 121.8 L 115.7 121.8 L 116.1 123.4 L 116.6 121.9 L 117.0 120.3 L 117.5 118.7 L 117.9 114.1 L 118.4 111.7 L 118.8 111.8 L 119.3 112.9 L 119.7 114.0 L 120.2 112.9 L 120.6 114.0 L 121.1 113.3 L 121.5 111.0 L 122.0 110.9 L 122.4 111.3 L 122.9 113.2 L 123.3 112.5 L 123.8 115.3 L 124.2 119.7 L 124.7 118.6 L 125.1 118.5 L 125.6 118.5 L 126.0 115.1 L 126.5 113.3 L 126.9 114.3 L 127.4 112.8 L 127.8 111.8 L 128.3 111.9 L 128.7 113.5 L 129.2 116.1 L 129.6 114.1 L 130.1 113.8 L 130.5 110.9 L 131.0 107.4 L 131.4 107.1 L 131.9 107.2 L 132.3 105.4 L 132.8 103.5 L 133.2 103.2 L 133.7 103.8 L 134.1 101.5 L 134.6 101.5 L 135.0 101.6 L 135.5 103.4 L 135.9 103.3 L 136.4 105.0 L 136.8 108.8 L 137.3 108.2 L 137.7 108.1 L 138.2 106.2 L 138.6 104.0 L 139.1 105.7 L 139.5 110.3 L 140.0 113.9 L 140.4 115.9 L 140.9 115.9 L 141.3 115.1 L 141.8 114.9 L 142.2 117.5 L 142.7 117.4 L 143.1 117.1 L 143.6 114.4 L 144.0 114.4 L 144.5 114.2 L 144.9 117.4 L 145.4 118.4 L 145.8 118.6 L 146.3 123.3 L 146.7 122.1 L 147.2 122.2 L 147.6 122.5 L 148.1 121.1 L 148.5 120.4 L 149.0 120.8 L 149.4 119.4 L 149.9 121.3 L 150.3 121.3 L 150.8 121.7 L 151.2 121.0 L 151.7 124.7 L 152.1 128.7 L 152.6 133.0 L 153.0 137.2 L 153.5 137.4 L 153.9 139.7 L 154.4 140.5 L 154.8 142.4 L 155.3 143.2 L 155.7 147.5 L 156.2 151.5 L 156.7 151.5 L 157.1 150.7 L 157.6 150.9 L 158.0 149.8 L 158.5 149.2 L 158.9 148.3 L 159.4 143.7 L 159.8 143.7 L 160.3 143.2 L 160.7 146.4 L 161.2 147.2 L 161.6 143.8 L 162.1 139.7 L 162.5 136.5 L 163.0 136.5 L 163.4 137.2 L 163.9 139.9 L 164.3 144.4 L 164.8 142.7 L 165.2 142.6 L 165.7 139.3 L 166.1 139.3 L 166.6 139.6 L 167.0 139.5 L 167.5 139.8 L 167.9 140.1 L 168.4 141.8 L 168.8 143.4 L 169.3 143.4 L 169.7 143.4 L 170.2 146.7 L 170.6 146.5 L 171.1 140.0 L 171.5 135.8 L 172.0 132.0 L 172.4 131.9 L 172.9 132.5 L 173.3 133.5 L 173.8 130.4 L 174.2 128.5 L 174.7 126.3 L 175.1 127.1 L 175.6 127.1 L 176.0 128.0 L 176.5 128.5 L 176.9 127.5 L 177.4 128.8 L 177.8 130.0 L 178.3 129.2 L 178.7 129.1 L 179.2 129.5 L 179.6 130.8 L 180.1 132.3 L 180.5 130.1 L 181.0 127.2 L 181.4 126.7 L 181.9 126.7 L 182.3 127.2 L 182.8 129.6 L 183.2 129.9 L 183.7 133.5 L 184.1 132.5 L 184.6 129.4 L 185.0 129.4 L 185.5 128.4 L 185.9 128.3 L 186.4 131.5 L 186.8 132.8 L 187.3 133.2 L 187.7 132.3 L 188.2 132.3 L 188.6 131.5 L 189.1 131.4 L 189.5 136.2 L 190.0 140.0 L 190.4 139.7 L 190.9 139.9 L 191.3 139.9 L 191.8 140.6 L 192.2 141.1 L 192.7 140.2 L 193.1 139.1 L 193.6 139.8 L 194.0 141.6 L 194.5 141.6 L 194.9 142.2 L 195.4 144.1 L 195.8 144.8 L 196.3 144.7 L 196.7 142.3 L 197.2 143.2 L 197.6 142.9 L 198.1 140.0 L 198.5 138.2 L 199.0 139.8 L 199.4 141.3 L 199.9 140.0 L 200.3 138.6 L 200.8 138.6 L 201.2 140.5 L 201.7 143.1 L 202.1 143.9 L 202.6 145.2 L 203.0 149.4 L 203.5 150.2 L 203.9 150.2 L 204.4 149.7 L 204.8 149.4 L 205.3 150.3 L 205.7 153.5 L 206.2 150.5 L 206.6 148.3 L 207.1 148.3 L 207.5 148.7 L 208.0 151.7 L 208.4 152.2 L 208.9 151.0 L 209.3 151.5 L 209.8 152.4 L 210.2 152.4 L 210.7 153.0 L 211.1 153.1 L 211.6 152.3 L 212.0 154.4 L 212.5 155.6 L 212.9 153.8 L 213.4 153.8 L 213.8 153.2 L 214.3 155.7 L 214.7 156.7 L 215.2 158.5 L 215.6 161.7 L 216.1 162.1 L 216.5 162.1 L 217.0 163.8 L 217.4 163.4 L 217.9 165.4 L 218.3 166.1 L 218.8 166.8 L 219.2 165.5 L 219.7 165.5 L 220.2 165.1 L 220.6 165.4 L 221.1 168.5 L 221.5 167.7 L 222.0 167.2 L 222.4 168.9 L 222.9 168.9 L 223.3 168.0 L 223.8 168.3 L 224.2 165.7 L 224.7 165.7 L 225.1 164.4 L 225.6 165.6 L 226.0 165.6 L 226.5 166.6 L 226.9 165.1 L 227.4 163.2 L 227.8 162.1 L 228.3 160.2 L 228.7 161.9 L 229.2 162.0 L 229.6 163.1 L 230.1 163.8 L 230.5 165.0 L 231.0 161.6 L 231.4 160.4 L 231.9 160.9 L 232.3 161.0 L 232.8 160.1 L 233.2 158.4 L 233.7 158.4 L 234.1 157.7 L 234.6 157.2 L 235.0 157.2 L 235.5 157.2 L 235.9 158.1 L 236.4 158.6 L 236.8 157.3 L 237.3 157.5 L 237.7 157.6 L 238.2 157.8 L 238.6 157.8 L 239.1 158.6 L 239.5 161.2 L 240.0 161.7 L 240.4 159.7 L 240.9 154.7 L 241.3 153.5 L 241.8 153.5 L 242.2 152.5 L 242.7 152.1 L 243.1 149.2 L 243.6 149.9 L 244.0 151.2 L 244.5 154.3 L 244.9 154.3 L 245.4 155.3 L 245.8 156.0 L 246.3 156.6 L 246.7 154.8 L 247.2 155.7 L 247.6 158.8 L 248.1 158.8 L 248.5 158.5 L 249.0 158.6 L 249.4 157.5 L 249.9 158.5 L 250.3 159.3 L 250.8 162.8 L 251.2 162.8 L 251.7 164.7 L 252.1 167.1 L 252.6 167.1 L 253.0 167.1 L 253.5 166.4 L 253.9 167.5 L 254.4 167.5 L 254.8 167.6 L 255.3 169.2 L 255.7 174.5 L 256.2 175.3 L 256.6 176.2 L 257.1 175.9 L 257.5 175.9 L 258.0 176.1 L 258.4 176.0 L 258.9 177.0 L 259.3 177.4 L 259.8 177.3 L 260.2 178.2 L 260.7 178.2 L 261.1 178.2 L 261.6 178.2 L 262.0 175.5 L 262.5 172.9 L 262.9 171.5 L 263.4 167.9 L 263.8 167.9 L 264.3 169.2 L 264.7 172.0 L 265.2 169.9 L 265.6 170.1 L 266.1 172.9 L 266.5 175.4 L 267.0 175.4 L 267.4 177.5 L 267.9 176.4 L 268.3 175.3 L 268.8 174.7 L 269.2 170.4 L 269.7 171.1 L 270.1 171.1 L 270.6 169.8 L 271.0 165.8 L 271.5 160.6 L 271.9 156.1 L 272.4 157.8 L 272.8 159.1 L 273.3 159.1 L 273.7 160.0 L 274.2 159.6 L 274.6 160.1 L 275.1 163.9 L 275.5 166.1 L 276.0 170.1 L 276.4 170.1 L 276.9 169.6 L 277.3 168.4 L 277.8 167.0 L 278.2 168.8 L 278.7 169.3 L 279.1 167.6 L 279.6 167.6 L 280.0 168.0 L 280.5 166.5 L 280.9 167.0 L 281.4 169.5 L 281.8 172.3 L 282.3 175.1 L 282.7 175.1 L 283.2 176.3 L 283.7 177.5 L 284.1 180.4 L 284.6 182.1 L 285.0 180.8 L 285.5 180.7 L 285.9 180.7 L 286.4 180.7 L 286.8 180.8 L 287.3 185.9 L 287.7 188.5 L 288.2 191.3 L 288.6 192.0 L 289.1 192.0 L 289.5 192.6 L 290.0 192.6 L 290.4 194.3 L 290.9 194.9 L 291.3 197.0 L 291.8 200.7 L 292.2 200.8 L 292.7 200.0 L 293.1 197.3 L 293.6 195.6 L 294.0 193.0 L 294.5 194.2 L 294.9 194.2 L 295.4 194.2 L 295.8 192.8 L 296.3 190.0 L 296.7 194.0 L 297.2 196.6 L 297.6 196.9 L 298.1 196.4 L 298.5 196.4 L 299.0 197.4 L 299.4 196.8 L 299.9 196.8 L 300.3 200.2 L 300.8 202.0 L 301.2 202.5 L 301.7 202.6 L 302.1 200.5 L 302.6 198.3 L 303.0 199.8 L 303.5 201.7 L 303.9 205.3 L 304.4 207.0 L 304.8 207.0 L 305.3 208.1 L 305.7 208.0 L 306.2 209.8 L 306.6 210.1 L 307.1 210.6 L 307.5 212.7 L 308.0 213.0 L 308.4 211.6 L 308.9 213.1 L 309.3 218.7 L 309.8 219.8 L 310.2 221.4 L 310.7 220.6 L 311.1 220.6 L 311.6 217.4 L 312.0 216.2 L 312.5 219.9 L 312.9 219.4 L 313.4 218.4 L 313.8 219.8 L 314.3 219.9 L 314.7 219.9 L 315.2 223.0 L 315.6 227.6 L 316.1 228.7 L 316.5 229.1 L 317.0 228.0 L 317.4 227.8 L 317.9 228.3 L 318.3 229.1 L 318.8 226.1 L 319.2 226.1 L 319.7 223.7 L 320.1 220.3 L 320.6 218.5 L 321.0 219.8 L 321.5 221.6 L 321.9 222.9 L 322.4 217.2 L 322.8 218.8 L 323.3 219.6 L 323.7 219.6 L 324.2 220.5 L 324.6 222.3 L 325.1 220.8 L 325.5 221.2 L 326.0 215.3 L 326.4 208.7 L 326.9 208.7 L 327.3 207.5 L 327.8 207.6 L 328.2 207.4 L 328.7 205.6 L 329.1 205.5 L 329.6 206.4 L 330.0 206.4 L 330.5 207.0 L 330.9 207.2 L 331.4 209.2 L 331.8 213.4 L 332.3 219.7 L 332.7 222.8 L 333.2 222.8 L 333.6 221.8 L 334.1 216.6 L 334.5 219.7 L 335.0 223.1 L 335.4 223.9 L 335.9 223.7 L 336.3 223.7 L 336.8 222.5 L 337.2 222.1 L 337.7 221.8 L 338.1 221.6 L 338.6 226.2 L 339.0 225.2 L 339.5 225.2 L 339.9 228.6 L 340.4 229.6 L 340.8 225.8 L 341.3 220.0 L 341.7 219.0 L 342.2 217.9 L 342.6 217.9 L 343.1 213.4 L 343.5 211.7 L 344.0 217.3 L 344.4 219.7 L 344.9 223.4 L 345.3 220.7 L 345.8 220.7 L 346.2 222.5 L 346.7 225.3 L 347.2 225.7 L 347.6 228.9 L 348.1 229.3 L 348.5 226.4 L 349.0 226.4 L 349.4 227.2 L 349.9 224.2 L 350.3 218.8 L 350.8 216.5 L 351.2 211.7 L 351.7 212.5 L 352.1 212.5 L 352.6 213.9 L 353.0 214.2 L 353.5 215.9 L 353.9 216.9 L 354.4 219.8 L 354.8 220.8 L 355.3 220.8 L 355.7 219.9 L 356.2 221.9 L 356.6 221.9 L 357.1 223.8 L 357.5 227.4 L 358.0 227.5 L 358.4 227.5 L 358.9 227.4 L 359.3 228.9 L 359.8 237.3 L 360.2 241.2 L 360.7 244.1 L 361.1 243.4 L 361.6 243.4 L 362.0 244.3 L 362.5 244.6 L 362.9 245.0 L 363.4 249.2 L 363.8 252.2 L 364.3 251.0 L 364.7 251.0 L 365.2 251.7 L 365.6 251.4 L 366.1 253.6 L 366.5 260.1 L 367.0 261.9 L 367.4 264.4 L 367.9 264.4 L 368.3 268.5 L 368.8 268.2 L 369.2 264.8 L 369.7 258.6 L 370.1 254.7 L 370.6 254.4 L 371.0 254.4 L 371.5 253.1 L 371.9 258.7 L 372.4 264.9 L 372.8 269.7 L 373.3 269.0 L 373.7 269.3 L 374.2 269.3 L 374.6 269.6 L 375.1 265.5 L 375.5 262.2 L 376.0 263.0 L 376.4 266.2 L 376.9 267.0 L 377.3 267.0 L 377.8 265.8 L 378.2 266.9 L 378.7 267.2 L 379.1 270.6 L 379.6 269.4 L 380.0 269.8 L 380.5 269.5 L 380.9 268.4 L 381.4 270.5 L 381.8 272.4 L 382.3 274.9 L 382.7 271.8 L 383.2 270.2 L 383.6 270.2 L 384.1 271.9 L 384.5 275.0 L 385.0 275.8 L 385.4 269.1 L 385.9 263.4 L 386.3 262.5 L 386.8 262.4 L 387.2 263.0 L 387.7 261.8 L 388.1 260.2 L 388.6 259.6 L 389.0 255.3 L 389.5 254.0 L 389.9 253.9 L 390.4 255.8 L 390.8 258.1 L 391.3 255.8 L 391.7 251.5 L 392.2 254.7 L 392.6 256.4 L 393.1 256.4 L 393.5 255.7 L 394.0 257.6 L 394.4 255.5 L 394.9 256.4 L 395.3 257.3 L 395.8 260.3 L 396.2 260.3 L 396.7 260.0 L 397.1 261.1 L 397.6 266.0 L 398.0 268.0 L 398.5 267.6 L 398.9 268.0 L 399.4 268.0 L 399.8 268.3 L 400.3 268.0 L 400.7 264.7 L 401.2 260.9 L 401.6 258.3 L 402.1 259.4 L 402.5 259.4 L 403.0 259.0 L 403.4 258.5 L 403.9 255.2 L 404.3 255.6 L 404.8 264.0 L 405.2 267.0 L 405.7 268.6 L 406.1 268.0 L 406.6 259.5 L 407.0 257.3 L 407.5 255.8 L 407.9 251.8 L 408.4 252.0 L 408.8 252.1 L 409.3 254.4 L 409.7 257.4 L 410.2 257.5 L 410.7 258.4 L 411.1 261.1 L 411.6 261.6 L 412.0 261.6 L 412.5 259.7 L 412.9 259.4 L 413.4 260.7 L 413.8 265.5 L 414.3 267.7 L 414.7 269.3 L 415.2 269.2 L 415.6 268.8 L 416.1 268.4 L 416.5 270.6 L 417.0 270.8 L 417.4 265.6 L 417.9 265.8 L 418.3 265.8 L 418.8 264.3 L 419.2 265.5 L 419.7 265.5 L 420.1 267.1 L 420.6 270.6 L 421.0 275.0 L 421.5 275.1 L 421.9 273.6 L 422.4 275.3 L 422.8 273.4 L 423.3 271.5 L 423.7 271.6 L 424.2 271.4 L 424.6 271.4 L 425.1 272.2 L 425.5 273.3 L 426.0 267.8 L 426.4 264.8 L 426.9 265.8 L 427.3 265.8 L 427.8 265.8 L 428.2 266.6 L 428.7 265.6 L 429.1 260.7 L 429.6 261.4 L 430.0 259.0 L 430.5 259.8 L 430.9 259.8 L 431.4 260.6 L 431.8 257.9 L 432.3 255.7 L 432.7 253.8 L 433.2 243.0 L 433.6 235.7 L 434.1 235.7 L 434.5 234.5 L 435.0 231.0 L 435.4 231.7 L 435.9 230.4 L 436.3 223.8 L 436.8 221.0 L 437.2 221.0 L 437.7 222.8 L 438.1 221.7 L 438.6 224.1 L 439.0 226.6 L 439.5 228.7 L 439.9 225.9 L 440.4 226.0 L 440.8 224.5 L 441.3 220.6 L 441.7 221.9 L 442.2 224.2 L 442.6 222.6 L 443.1 220.4 L 443.5 220.4 L 444.0 218.9 L 444.4 214.4 L 444.9 210.8 L 445.3 210.6 L 445.8 201.0 L 446.2 200.7 L 446.7 200.9 L 447.1 201.4 L 447.6 194.3 L 448.0 193.2 L 448.5 184.8 L 448.9 191.3 L 449.4 198.8 L 449.8 199.0 L 450.3 201.3 L 450.7 198.4 L 451.2 197.4 L 451.6 206.4 L 452.1 203.2 L 452.5 210.5 L 453.0 210.6 L 453.4 216.2 L 453.9 224.4 L 454.3 220.6 L 454.8 220.6 L 455.2 217.8 L 455.7 217.5 L 456.1 217.5 L 456.6 209.7 L 457.0 202.3 L 457.5 192.1 L 457.9 183.0 L 458.4 178.5 L 458.8 175.5 L 459.3 175.1 L 459.7 165.7 L 460.2 164.8 L 460.6 167.9 L 461.1 169.9 L 461.5 162.9 L 462.0 154.8 L 462.4 155.4 L 462.9 165.0 L 463.3 169.7 L 463.8 165.5 L 464.2 157.8 L 464.7 158.3 L 465.1 155.4 L 465.6 155.4 L 466.0 156.1 L 466.5 146.5 L 466.9 127.0 L 467.4 121.0 L 467.8 110.7 L 468.3 113.5 L 468.7 108.2 L 469.2 101.9 L 469.6 100.2 L 470.1 118.8 L 470.5 135.2 L 471.0 116.1 L 471.4 114.8 L 471.9 114.9 L 472.3 119.0 L 472.8 115.3 L 473.2 128.1 L 473.7 123.3 L 474.1 116.7 L 474.6 114.5 L 475.1 114.7 L 475.5 122.4 L 476.0 113.6 L 476.4 103.9 L 476.9 100.5 L 477.3 115.4 L 477.8 107.8 L 478.2 107.2 L 478.7 108.3 L 479.1 109.2 L 479.6 109.1 L 480.0 102.1 L 480.5 102.2 L 480.9 106.1 L 481.4 106.2 L 481.8 112.9 L 482.3 126.7 L 482.7 130.2 L 483.2 126.2 L 483.6 122.1 L 484.1 112.9 L 484.5 112.9 L 485.0 111.2 L 485.4 110.5 L 485.9 112.2 L 486.3 113.2 L 486.8 115.6 L 487.2 114.5 L 487.7 114.6 L 488.1 121.7 L 488.6 125.4 L 489.0 129.5 L 489.5 140.3 L 489.9 151.8 L 490.4 154.4 L 490.8 154.2 L 491.3 160.8 L 491.7 172.9 L 492.2 194.5 L 492.6 209.3 L 493.1 193.6 L 493.5 182.7 L 494.0 182.8 L 494.4 186.5 L 494.9 186.2 L 495.3 186.0 L 495.8 187.8 L 496.2 189.9 L 496.7 188.9 L 497.1 188.9 L 497.6 197.0 L 498.0 192.4" stroke="#7cb5ec" stroke-width="1"  stroke-linejoin="round" stroke-linecap="round"></path><path fill="none" d="M -5.0 55.9 L 4.9 55.9 L 5.3 56.0 L 5.8 56.1 L 6.2 55.4 L 6.7 58.7 L 7.1 74.3 L 7.6 74.9 L 8.0 77.5 L 8.5 77.4 L 8.9 74.9 L 9.4 72.4 L 9.8 72.9 L 10.3 75.1 L 10.7 71.5 L 11.2 76.8 L 11.6 76.8 L 12.1 76.2 L 12.5 74.2 L 13.0 74.6 L 13.4 73.8 L 13.9 73.4 L 14.3 76.3 L 14.8 76.3 L 15.2 83.6 L 15.7 86.9 L 16.1 86.2 L 16.6 84.4 L 17.0 80.8 L 17.5 73.8 L 17.9 73.8 L 18.4 73.8 L 18.8 74.9 L 19.3 76.0 L 19.7 72.1 L 20.2 71.8 L 20.6 69.0 L 21.1 68.6 L 21.5 67.3 L 22.0 65.4 L 22.4 64.9 L 22.9 65.1 L 23.3 65.2 L 23.8 60.2 L 24.2 60.2 L 24.7 59.9 L 25.1 60.2 L 25.6 61.0 L 26.0 58.7 L 26.5 59.6 L 26.9 62.2 L 27.4 62.0 L 27.8 63.4 L 28.3 61.6 L 28.8 60.6 L 29.2 61.7 L 29.7 60.6 L 30.1 58.2 L 30.6 58.2 L 31.0 57.0 L 31.5 58.3 L 31.9 62.6 L 32.4 63.3 L 32.8 69.0 L 33.3 70.3 L 33.7 70.3 L 34.2 70.4 L 34.6 63.7 L 35.1 60.6 L 35.5 62.1 L 36.0 60.6 L 36.4 60.4 L 36.9 60.3 L 37.3 62.5 L 37.8 65.5 L 38.2 69.2 L 38.7 73.4 L 39.1 79.4 L 39.6 80.0 L 40.0 80.0 L 40.5 79.2 L 40.9 76.5 L 41.4 73.4 L 41.8 70.5 L 42.3 66.0 L 42.7 69.4 L 43.2 69.4 L 43.6 69.4 L 44.1 70.0 L 44.5 67.9 L 45.0 72.5 L 45.4 76.7 L 45.9 75.2 L 46.3 75.1 L 46.8 73.4 L 47.2 79.8 L 47.7 85.7 L 48.1 85.9 L 48.6 79.4 L 49.0 73.4 L 49.5 73.4 L 49.9 74.6 L 50.4 75.5 L 50.8 76.7 L 51.3 74.5 L 51.7 74.9 L 52.2 74.6 L 52.6 74.7 L 53.1 80.9 L 53.5 85.5 L 54.0 91.2 L 54.4 90.7 L 54.9 88.9 L 55.3 90.1 L 55.8 90.3 L 56.2 92.5 L 56.7 94.0 L 57.1 96.2 L 57.6 98.6 L 58.0 104.5 L 58.5 109.1 L 58.9 108.9 L 59.4 108.8 L 59.8 107.6 L 60.3 109.2 L 60.7 109.5 L 61.2 114.1 L 61.6 115.0 L 62.1 115.0 L 62.5 115.8 L 63.0 114.4 L 63.4 118.4 L 63.9 117.7 L 64.3 124.6 L 64.8 126.1 L 65.2 127.3 L 65.7 124.5 L 66.1 120.9 L 66.6 122.4 L 67.0 118.3 L 67.5 119.5 L 67.9 118.2 L 68.4 118.1 L 68.8 118.2 L 69.3 123.1 L 69.7 120.0 L 70.2 118.0 L 70.6 118.5 L 71.1 115.6 L 71.5 115.6 L 72.0 116.6 L 72.4 121.4 L 72.9 123.5 L 73.3 118.9 L 73.8 122.7 L 74.2 126.8 L 74.7 126.9 L 75.1 128.6 L 75.6 124.6 L 76.0 120.5 L 76.5 116.1 L 76.9 110.3 L 77.4 109.8 L 77.8 109.7 L 78.3 107.9 L 78.7 105.8 L 79.2 105.9 L 79.6 108.2 L 80.1 110.0 L 80.5 109.7 L 81.0 109.8 L 81.4 106.9 L 81.9 105.7 L 82.3 108.9 L 82.8 109.1 L 83.2 104.2 L 83.7 101.1 L 84.1 101.1 L 84.6 103.6 L 85.0 106.8 L 85.5 105.0 L 85.9 104.1 L 86.4 114.9 L 86.8 119.0 L 87.3 119.0 L 87.7 119.0 L 88.2 120.0 L 88.6 117.8 L 89.1 116.2 L 89.5 119.2 L 90.0 120.2 L 90.4 120.2 L 90.9 118.4 L 91.3 116.3 L 91.8 116.1 L 92.2 113.8 L 92.7 111.7 L 93.2 110.3 L 93.6 110.1 L 94.1 106.3 L 94.5 102.3 L 95.0 102.0 L 95.4 108.3 L 95.9 111.0 L 96.3 113.3 L 96.8 113.3 L 97.2 110.3 L 97.7 108.8 L 98.1 107.3 L 98.6 115.1 L 99.0 114.1 L 99.5 117.3 L 99.9 117.3 L 100.4 117.4 L 100.8 117.5 L 101.3 120.5 L 101.7 118.6 L 102.2 121.4 L 102.6 124.2 L 103.1 124.2 L 103.5 124.0 L 104.0 121.9 L 104.4 122.4 L 104.9 122.7 L 105.3 117.9 L 105.8 114.6 L 106.2 114.6 L 106.7 115.8 L 107.1 116.4 L 107.6 120.2 L 108.0 123.2 L 108.5 121.3 L 108.9 121.1 L 109.4 121.0 L 109.8 124.7 L 110.3 122.7 L 110.7 120.0 L 111.2 119.1 L 111.6 117.6 L 112.1 116.6 L 112.5 116.7 L 113.0 119.1 L 113.4 120.0 L 113.9 121.7 L 114.3 121.8 L 114.8 120.5 L 115.2 121.8 L 115.7 121.8 L 116.1 123.4 L 116.6 121.9 L 117.0 120.3 L 117.5 118.7 L 117.9 114.1 L 118.4 111.7 L 118.8 111.8 L 119.3 112.9 L 119.7 114.0 L 120.2 112.9 L 120.6 114.0 L 121.1 113.3 L 121.5 111.0 L 122.0 110.9 L 122.4 111.3 L 122.9 113.2 L 123.3 112.5 L 123.8 115.3 L 124.2 119.7 L 124.7 118.6 L 125.1 118.5 L 125.6 118.5 L 126.0 115.1 L 126.5 113.3 L 126.9 114.3 L 127.4 112.8 L 127.8 111.8 L 128.3 111.9 L 128.7 113.5 L 129.2 116.1 L 129.6 114.1 L 130.1 113.8 L 130.5 110.9 L 131.0 107.4 L 131.4 107.1 L 131.9 107.2 L 132.3 105.4 L 132.8 103.5 L 133.2 103.2 L 133.7 103.8 L 134.1 101.5 L 134.6 101.5 L 135.0 101.6 L 135.5 103.4 L 135.9 103.3 L 136.4 105.0 L 136.8 108.8 L 137.3 108.2 L 137.7 108.1 L 138.2 106.2 L 138.6 104.0 L 139.1 105.7 L 139.5 110.3 L 140.0 113.9 L 140.4 115.9 L 140.9 115.9 L 141.3 115.1 L 141.8 114.9 L 142.2 117.5 L 142.7 117.4 L 143.1 117.1 L 143.6 114.4 L 144.0 114.4 L 144.5 114.2 L 144.9 117.4 L 145.4 118.4 L 145.8 118.6 L 146.3 123.3 L 146.7 122.1 L 147.2 122.2 L 147.6 122.5 L 148.1 121.1 L 148.5 120.4 L 149.0 120.8 L 149.4 119.4 L 149.9 121.3 L 150.3 121.3 L 150.8 121.7 L 151.2 121.0 L 151.7 124.7 L 152.1 128.7 L 152.6 133.0 L 153.0 137.2 L 153.5 137.4 L 153.9 139.7 L 154.4 140.5 L 154.8 142.4 L 155.3 143.2 L 155.7 147.5 L 156.2 151.5 L 156.7 151.5 L 157.1 150.7 L 157.6 150.9 L 158.0 149.8 L 158.5 149.2 L 158.9 148.3 L 159.4 143.7 L 159.8 143.7 L 160.3 143.2 L 160.7 146.4 L 161.2 147.2 L 161.6 143.8 L 162.1 139.7 L 162.5 136.5 L 163.0 136.5 L 163.4 137.2 L 163.9 139.9 L 164.3 144.4 L 164.8 142.7 L 165.2 142.6 L 165.7 139.3 L 166.1 139.3 L 166.6 139.6 L 167.0 139.5 L 167.5 139.8 L 167.9 140.1 L 168.4 141.8 L 168.8 143.4 L 169.3 143.4 L 169.7 143.4 L 170.2 146.7 L 170.6 146.5 L 171.1 140.0 L 171.5 135.8 L 172.0 132.0 L 172.4 131.9 L 172.9 132.5 L 173.3 133.5 L 173.8 130.4 L 174.2 128.5 L 174.7 126.3 L 175.1 127.1 L 175.6 127.1 L 176.0 128.0 L 176.5 128.5 L 176.9 127.5 L 177.4 128.8 L 177.8 130.0 L 178.3 129.2 L 178.7 129.1 L 179.2 129.5 L 179.6 130.8 L 180.1 132.3 L 180.5 130.1 L 181.0 127.2 L 181.4 126.7 L 181.9 126.7 L 182.3 127.2 L 182.8 129.6 L 183.2 129.9 L 183.7 133.5 L 184.1 132.5 L 184.6 129.4 L 185.0 129.4 L 185.5 128.4 L 185.9 128.3 L 186.4 131.5 L 186.8 132.8 L 187.3 133.2 L 187.7 132.3 L 188.2 132.3 L 188.6 131.5 L 189.1 131.4 L 189.5 136.2 L 190.0 140.0 L 190.4 139.7 L 190.9 139.9 L 191.3 139.9 L 191.8 140.6 L 192.2 141.1 L 192.7 140.2 L 193.1 139.1 L 193.6 139.8 L 194.0 141.6 L 194.5 141.6 L 194.9 142.2 L 195.4 144.1 L 195.8 144.8 L 196.3 144.7 L 196.7 142.3 L 197.2 143.2 L 197.6 142.9 L 198.1 140.0 L 198.5 138.2 L 199.0 139.8 L 199.4 141.3 L 199.9 140.0 L 200.3 138.6 L 200.8 138.6 L 201.2 140.5 L 201.7 143.1 L 202.1 143.9 L 202.6 145.2 L 203.0 149.4 L 203.5 150.2 L 203.9 150.2 L 204.4 149.7 L 204.8 149.4 L 205.3 150.3 L 205.7 153.5 L 206.2 150.5 L 206.6 148.3 L 207.1 148.3 L 207.5 148.7 L 208.0 151.7 L 208.4 152.2 L 208.9 151.0 L 209.3 151.5 L 209.8 152.4 L 210.2 152.4 L 210.7 153.0 L 211.1 153.1 L 211.6 152.3 L 212.0 154.4 L 212.5 155.6 L 212.9 153.8 L 213.4 153.8 L 213.8 153.2 L 214.3 155.7 L 214.7 156.7 L 215.2 158.5 L 215.6 161.7 L 216.1 162.1 L 216.5 162.1 L 217.0 163.8 L 217.4 163.4 L 217.9 165.4 L 218.3 166.1 L 218.8 166.8 L 219.2 165.5 L 219.7 165.5 L 220.2 165.1 L 220.6 165.4 L 221.1 168.5 L 221.5 167.7 L 222.0 167.2 L 222.4 168.9 L 222.9 168.9 L 223.3 168.0 L 223.8 168.3 L 224.2 165.7 L 224.7 165.7 L 225.1 164.4 L 225.6 165.6 L 226.0 165.6 L 226.5 166.6 L 226.9 165.1 L 227.4 163.2 L 227.8 162.1 L 228.3 160.2 L 228.7 161.9 L 229.2 162.0 L 229.6 163.1 L 230.1 163.8 L 230.5 165.0 L 231.0 161.6 L 231.4 160.4 L 231.9 160.9 L 232.3 161.0 L 232.8 160.1 L 233.2 158.4 L 233.7 158.4 L 234.1 157.7 L 234.6 157.2 L 235.0 157.2 L 235.5 157.2 L 235.9 158.1 L 236.4 158.6 L 236.8 157.3 L 237.3 157.5 L 237.7 157.6 L 238.2 157.8 L 238.6 157.8 L 239.1 158.6 L 239.5 161.2 L 240.0 161.7 L 240.4 159.7 L 240.9 154.7 L 241.3 153.5 L 241.8 153.5 L 242.2 152.5 L 242.7 152.1 L 243.1 149.2 L 243.6 149.9 L 244.0 151.2 L 244.5 154.3 L 244.9 154.3 L 245.4 155.3 L 245.8 156.0 L 246.3 156.6 L 246.7 154.8 L 247.2 155.7 L 247.6 158.8 L 248.1 158.8 L 248.5 158.5 L 249.0 158.6 L 249.4 157.5 L 249.9 158.5 L 250.3 159.3 L 250.8 162.8 L 251.2 162.8 L 251.7 164.7 L 252.1 167.1 L 252.6 167.1 L 253.0 167.1 L 253.5 166.4 L 253.9 167.5 L 254.4 167.5 L 254.8 167.6 L 255.3 169.2 L 255.7 174.5 L 256.2 175.3 L 256.6 176.2 L 257.1 175.9 L 257.5 175.9 L 258.0 176.1 L 258.4 176.0 L 258.9 177.0 L 259.3 177.4 L 259.8 177.3 L 260.2 178.2 L 260.7 178.2 L 261.1 178.2 L 261.6 178.2 L 262.0 175.5 L 262.5 172.9 L 262.9 171.5 L 263.4 167.9 L 263.8 167.9 L 264.3 169.2 L 264.7 172.0 L 265.2 169.9 L 265.6 170.1 L 266.1 172.9 L 266.5 175.4 L 267.0 175.4 L 267.4 177.5 L 267.9 176.4 L 268.3 175.3 L 268.8 174.7 L 269.2 170.4 L 269.7 171.1 L 270.1 171.1 L 270.6 169.8 L 271.0 165.8 L 271.5 160.6 L 271.9 156.1 L 272.4 157.8 L 272.8 159.1 L 273.3 159.1 L 273.7 160.0 L 274.2 159.6 L 274.6 160.1 L 275.1 163.9 L 275.5 166.1 L 276.0 170.1 L 276.4 170.1 L 276.9 169.6 L 277.3 168.4 L 277.8 167.0 L 278.2 168.8 L 278.7 169.3 L 279.1 167.6 L 279.6 167.6 L 280.0 168.0 L 280.5 166.5 L 280.9 167.0 L 281.4 169.5 L 281.8 172.3 L 282.3 175.1 L 282.7 175.1 L 283.2 176.3 L 283.7 177.5 L 284.1 180.4 L 284.6 182.1 L 285.0 180.8 L 285.5 180.7 L 285.9 180.7 L 286.4 180.7 L 286.8 180.8 L 287.3 185.9 L 287.7 188.5 L 288.2 191.3 L 288.6 192.0 L 289.1 192.0 L 289.5 192.6 L 290.0 192.6 L 290.4 194.3 L 290.9 194.9 L 291.3 197.0 L 291.8 200.7 L 292.2 200.8 L 292.7 200.0 L 293.1 197.3 L 293.6 195.6 L 294.0 193.0 L 294.5 194.2 L 294.9 194.2 L 295.4 194.2 L 295.8 192.8 L 296.3 190.0 L 296.7 194.0 L 297.2 196.6 L 297.6 196.9 L 298.1 196.4 L 298.5 196.4 L 299.0 197.4 L 299.4 196.8 L 299.9 196.8 L 300.3 200.2 L 300.8 202.0 L 301.2 202.5 L 301.7 202.6 L 302.1 200.5 L 302.6 198.3 L 303.0 199.8 L 303.5 201.7 L 303.9 205.3 L 304.4 207.0 L 304.8 207.0 L 305.3 208.1 L 305.7 208.0 L 306.2 209.8 L 306.6 210.1 L 307.1 210.6 L 307.5 212.7 L 308.0 213.0 L 308.4 211.6 L 308.9 213.1 L 309.3 218.7 L 309.8 219.8 L 310.2 221.4 L 310.7 220.6 L 311.1 220.6 L 311.6 217.4 L 312.0 216.2 L 312.5 219.9 L 312.9 219.4 L 313.4 218.4 L 313.8 219.8 L 314.3 219.9 L 314.7 219.9 L 315.2 223.0 L 315.6 227.6 L 316.1 228.7 L 316.5 229.1 L 317.0 228.0 L 317.4 227.8 L 317.9 228.3 L 318.3 229.1 L 318.8 226.1 L 319.2 226.1 L 319.7 223.7 L 320.1 220.3 L 320.6 218.5 L 321.0 219.8 L 321.5 221.6 L 321.9 222.9 L 322.4 217.2 L 322.8 218.8 L 323.3 219.6 L 323.7 219.6 L 324.2 220.5 L 324.6 222.3 L 325.1 220.8 L 325.5 221.2 L 326.0 215.3 L 326.4 208.7 L 326.9 208.7 L 327.3 207.5 L 327.8 207.6 L 328.2 207.4 L 328.7 205.6 L 329.1 205.5 L 329.6 206.4 L 330.0 206.4 L 330.5 207.0 L 330.9 207.2 L 331.4 209.2 L 331.8 213.4 L 332.3 219.7 L 332.7 222.8 L 333.2 222.8 L 333.6 221.8 L 334.1 216.6 L 334.5 219.7 L 335.0 223.1 L 335.4 223.9 L 335.9 223.7 L 336.3 223.7 L 336.8 222.5 L 337.2 222.1 L 337.7 221.8 L 338.1 221.6 L 338.6 226.2 L 339.0 225.2 L 339.5 225.2 L 339.9 228.6 L 340.4 229.6 L 340.8 225.8 L 341.3 220.0 L 341.7 219.0 L 342.2 217.9 L 342.6 217.9 L 343.1 213.4 L 343.5 211.7 L 344.0 217.3 L 344.4 219.7 L 344.9 223.4 L 345.3 220.7 L 345.8 220.7 L 346.2 222.5 L 346.7 225.3 L 347.2 225.7 L 347.6 228.9 L 348.1 229.3 L 348.5 226.4 L 349.0 226.4 L 349.4 227.2 L 349.9 224.2 L 350.3 218.8 L 350.8 216.5 L 351.2 211.7 L 351.7 212.5 L 352.1 212.5 L 352.6 213.9 L 353.0 214.2 L 353.5 215.9 L 353.9 216.9 L 354.4 219.8 L 354.8 220.8 L 355.3 220.8 L 355.7 219.9 L 356.2 221.9 L 356.6 221.9 L 357.1 223.8 L 357.5 227.4 L 358.0 227.5 L 358.4 227.5 L 358.9 227.4 L 359.3 228.9 L 359.8 237.3 L 360.2 241.2 L 360.7 244.1 L 361.1 243.4 L 361.6 243.4 L 362.0 244.3 L 362.5 244.6 L 362.9 245.0 L 363.4 249.2 L 363.8 252.2 L 364.3 251.0 L 364.7 251.0 L 365.2 251.7 L 365.6 251.4 L 366.1 253.6 L 366.5 260.1 L 367.0 261.9 L 367.4 264.4 L 367.9 264.4 L 368.3 268.5 L 368.8 268.2 L 369.2 264.8 L 369.7 258.6 L 370.1 254.7 L 370.6 254.4 L 371.0 254.4 L 371.5 253.1 L 371.9 258.7 L 372.4 264.9 L 372.8 269.7 L 373.3 269.0 L 373.7 269.3 L 374.2 269.3 L 374.6 269.6 L 375.1 265.5 L 375.5 262.2 L 376.0 263.0 L 376.4 266.2 L 376.9 267.0 L 377.3 267.0 L 377.8 265.8 L 378.2 266.9 L 378.7 267.2 L 379.1 270.6 L 379.6 269.4 L 380.0 269.8 L 380.5 269.5 L 380.9 268.4 L 381.4 270.5 L 381.8 272.4 L 382.3 274.9 L 382.7 271.8 L 383.2 270.2 L 383.6 270.2 L 384.1 271.9 L 384.5 275.0 L 385.0 275.8 L 385.4 269.1 L 385.9 263.4 L 386.3 262.5 L 386.8 262.4 L 387.2 263.0 L 387.7 261.8 L 388.1 260.2 L 388.6 259.6 L 389.0 255.3 L 389.5 254.0 L 389.9 253.9 L 390.4 255.8 L 390.8 258.1 L 391.3 255.8 L 391.7 251.5 L 392.2 254.7 L 392.6 256.4 L 393.1 256.4 L 393.5 255.7 L 394.0 257.6 L 394.4 255.5 L 394.9 256.4 L 395.3 257.3 L 395.8 260.3 L 396.2 260.3 L 396.7 260.0 L 397.1 261.1 L 397.6 266.0 L 398.0 268.0 L 398.5 267.6 L 398.9 268.0 L 399.4 268.0 L 399.8 268.3 L 400.3 268.0 L 400.7 264.7 L 401.2 260.9 L 401.6 258.3 L 402.1 259.4 L 402.5 259.4 L 403.0 259.0 L 403.4 258.5 L 403.9 255.2 L 404.3 255.6 L 404.8 264.0 L 405.2 267.0 L 405.7 268.6 L 406.1 268.0 L 406.6 259.5 L 407.0 257.3 L 407.5 255.8 L 407.9 251.8 L 408.4 252.0 L 408.8 252.1 L 409.3 254.4 L 409.7 257.4 L 410.2 257.5 L 410.7 258.4 L 411.1 261.1 L 411.6 261.6 L 412.0 261.6 L 412.5 259.7 L 412.9 259.4 L 413.4 260.7 L 413.8 265.5 L 414.3 267.7 L 414.7 269.3 L 415.2 269.2 L 415.6 268.8 L 416.1 268.4 L 416.5 270.6 L 417.0 270.8 L 417.4 265.6 L 417.9 265.8 L 418.3 265.8 L 418.8 264.3 L 419.2 265.5 L 419.7 265.5 L 420.1 267.1 L 420.6 270.6 L 421.0 275.0 L 421.5 275.1 L 421.9 273.6 L 422.4 275.3 L 422.8 273.4 L 423.3 271.5 L 423.7 271.6 L 424.2 271.4 L 424.6 271.4 L 425.1 272.2 L 425.5 273.3 L 426.0 267.8 L 426.4 264.8 L 426.9 265.8 L 427.3 265.8 L 427.8 265.8 L 428.2 266.6 L 428.7 265.6 L 429.1 260.7 L 429.6 261.4 L 430.0 259.0 L 430.5 259.8 L 430.9 259.8 L 431.4 260.6 L 431.8 257.9 L 432.3 255.7 L 432.7 253.8 L 433.2 243.0 L 433.6 235.7 L 434.1 235.7 L 434.5 234.5 L 435.0 231.0 L 435.4 231.7 L 435.9 230.4 L 436.3 223.8 L 436.8 221.0 L 437.2 221.0 L 437.7 222.8 L 438.1 221.7 L 438.6 224.1 L 439.0 226.6 L 439.5 228.7 L 439.9 225.9 L 440.4 226.0 L 440.8 224.5 L 441.3 220.6 L 441.7 221.9 L 442.2 224.2 L 442.6 222.6 L 443.1 220.4 L 443.5 220.4 L 444.0 218.9 L 444.4 214.4 L 444.9 210.8 L 445.3 210.6 L 445.8 201.0 L 446.2 200.7 L 446.7 200.9 L 447.1 201.4 L 447.6 194.3 L 448.0 193.2 L 448.5 184.8 L 448.9 191.3 L 449.4 198.8 L 449.8 199.0 L 450.3 201.3 L 450.7 198.4 L 451.2 197.4 L 451.6 206.4 L 452.1 203.2 L 452.5 210.5 L 453.0 210.6 L 453.4 216.2 L 453.9 224.4 L 454.3 220.6 L 454.8 220.6 L 455.2 217.8 L 455.7 217.5 L 456.1 217.5 L 456.6 209.7 L 457.0 202.3 L 457.5 192.1 L 457.9 183.0 L 458.4 178.5 L 458.8 175.5 L 459.3 175.1 L 459.7 165.7 L 460.2 164.8 L 460.6 167.9 L 461.1 169.9 L 461.5 162.9 L 462.0 154.8 L 462.4 155.4 L 462.9 165.0 L 463.3 169.7 L 463.8 165.5 L 464.2 157.8 L 464.7 158.3 L 465.1 155.4 L 465.6 155.4 L 466.0 156.1 L 466.5 146.5 L 466.9 127.0 L 467.4 121.0 L 467.8 110.7 L 468.3 113.5 L 468.7 108.2 L 469.2 101.9 L 469.6 100.2 L 470.1 118.8 L 470.5 135.2 L 471.0 116.1 L 471.4 114.8 L 471.9 114.9 L 472.3 119.0 L 472.8 115.3 L 473.2 128.1 L 473.7 123.3 L 474.1 116.7 L 474.6 114.5 L 475.1 114.7 L 475.5 122.4 L 476.0 113.6 L 476.4 103.9 L 476.9 100.5 L 477.3 115.4 L 477.8 107.8 L 478.2 107.2 L 478.7 108.3 L 479.1 109.2 L 479.6 109.1 L 480.0 102.1 L 480.5 102.2 L 480.9 106.1 L 481.4 106.2 L 481.8 112.9 L 482.3 126.7 L 482.7 130.2 L 483.2 126.2 L 483.6 122.1 L 484.1 112.9 L 484.5 112.9 L 485.0 111.2 L 485.4 110.5 L 485.9 112.2 L 486.3 113.2 L 486.8 115.6 L 487.2 114.5 L 487.7 114.6 L 488.1 121.7 L 488.6 125.4 L 489.0 129.5 L 489.5 140.3 L 489.9 151.8 L 490.4 154.4 L 490.8 154.2 L 491.3 160.8 L 491.7 172.9 L 492.2 194.5 L 492.6 209.3 L 493.1 193.6 L 493.5 182.7 L 494.0 182.8 L 494.4 186.5 L 494.9 186.2 L 495.3 186.0 L 495.8 187.8 L 496.2 189.9 L 496.7 188.9 L 497.1 188.9 L 497.6 197.0 L 498.0 192.4 L 508.0 192.4" stroke-linejoin="round" visibility="visible" stroke="rgb(192,192,192)" stroke-opacity="0.0" stroke-width="21"  class=" highcharts-tracker" style=""></path></g><g class="highcharts-markers highcharts-tracker" visibility="visible"  transform="translate(71,61) scale(1 1)" clip-path="url(#highcharts-2)" style=""></g></g><text x="292" text-anchor="middle" class="highcharts-title"  style="color:#333333;font-size:18px;fill:#333333;width:520px;" y="24"><tspan>USD to EUR exchange rate from 2006 through 2008</tspan></text><text x="292" text-anchor="middle" class="highcharts-subtitle"  style="color:#555555;fill:#555555;width:520px;" y="46"><tspan>Pinch the chart to zoom in</tspan></text><g class="highcharts-axis-labels highcharts-xaxis-labels" ><text x="75.9" style="color:#606060;cursor:default;font-size:11px;fill:#606060;width:71px;text-overflow:clip;" text-anchor="middle" transform="translate(0,0)" y="383" opacity="1"><tspan>Jan '06</tspan></text><text x="157.4" style="color:#606060;cursor:default;font-size:11px;fill:#606060;width:71px;text-overflow:clip;" text-anchor="middle" transform="translate(0,0)" y="383" opacity="1"><tspan>Jul '06</tspan></text><text x="240.3" style="color:#606060;cursor:default;font-size:11px;fill:#606060;width:71px;text-overflow:clip;" text-anchor="middle" transform="translate(0,0)" y="383" opacity="1"><tspan>Jan '07</tspan></text><text x="321.8" style="color:#606060;cursor:default;font-size:11px;fill:#606060;width:71px;text-overflow:clip;" text-anchor="middle" transform="translate(0,0)" y="383" opacity="1"><tspan>Jul '07</tspan></text><text x="404.6" style="color:#606060;cursor:default;font-size:11px;fill:#606060;width:71px;text-overflow:clip;" text-anchor="middle" transform="translate(0,0)" y="383" opacity="1"><tspan>Jan '08</tspan></text><text x="486.6" style="color:#606060;cursor:default;font-size:11px;fill:#606060;width:71px;text-overflow:clip;" text-anchor="middle" transform="translate(0,0)" y="383" opacity="1"><tspan>Jul '08</tspan></text><text x="574" style="color:#606060;cursor:default;font-size:11px;fill:#606060;width:71px;text-overflow:clip;" text-anchor="end" transform="translate(0,0)" y="383" opacity="1"><tspan>Jan '09</tspan></text></g><g class="highcharts-axis-labels highcharts-yaxis-labels" ><text x="56" style="color:#606060;cursor:default;font-size:11px;fill:#606060;width:183px;text-overflow:clip;" text-anchor="end" transform="translate(0,0)" y="369" opacity="1">0.6</text><text x="56" style="color:#606060;cursor:default;font-size:11px;fill:#606060;width:183px;text-overflow:clip;" text-anchor="end" transform="translate(0,0)" y="318" opacity="1">0.6</text><text x="56" style="color:#606060;cursor:default;font-size:11px;fill:#606060;width:183px;text-overflow:clip;" text-anchor="end" transform="translate(0,0)" y="268" opacity="1">0.7</text><text x="56" style="color:#606060;cursor:default;font-size:11px;fill:#606060;width:183px;text-overflow:clip;" text-anchor="end" transform="translate(0,0)" y="217" opacity="1">0.7</text><text x="56" style="color:#606060;cursor:default;font-size:11px;fill:#606060;width:183px;text-overflow:clip;" text-anchor="end" transform="translate(0,0)" y="166" opacity="1">0.8</text><text x="56" style="color:#606060;cursor:default;font-size:11px;fill:#606060;width:183px;text-overflow:clip;" text-anchor="end" transform="translate(0,0)" y="116" opacity="1">0.8</text><text x="56" style="color:#606060;cursor:default;font-size:11px;fill:#606060;width:183px;text-overflow:clip;" text-anchor="end" transform="translate(0,0)" y="66" opacity="1">0.9</text></g><g class="highcharts-tooltip"  style="cursor:default;padding:0;white-space:nowrap;" transform="translate(0,-9999)"><path fill="none" d="M 3 0 L 13 0 C 16 0 16 0 16 3 L 16 13 C 16 16 16 16 13 16 L 3 16 C 0 16 0 16 0 13 L 0 3 C 0 0 0 0 3 0"  stroke="black" stroke-opacity="0.0" stroke-width="5" transform="translate(1, 1)"></path><path fill="none" d="M 3 0 L 13 0 C 16 0 16 0 16 3 L 16 13 C 16 16 16 16 13 16 L 3 16 C 0 16 0 16 0 13 L 0 3 C 0 0 0 0 3 0"  stroke="black" stroke-opacity="0.0" stroke-width="3" transform="translate(1, 1)"></path><path fill="none" d="M 3 0 L 13 0 C 16 0 16 0 16 3 L 16 13 C 16 16 16 16 13 16 L 3 16 C 0 16 0 16 0 13 L 0 3 C 0 0 0 0 3 0"  stroke="black" stroke-opacity="0.1" stroke-width="1" transform="translate(1, 1)"></path><path fill="rgb(249, 249, 249)" fill-opacity=" .85" d="M 3 0 L 13 0 C 16 0 16 0 16 3 L 16 13 C 16 16 16 16 13 16 L 3 16 C 0 16 0 16 0 13 L 0 3 C 0 0 0 0 3 0"></path><text x="8"  style="font-size:12px;color:#333333;fill:#333333;" transform="translate(0,20)"></text></g></svg>