<svg version="1.1" style="font-family:&quot;lucida grande&quot;, &quot;lucida sans unicode&quot;, arial, helvetica, sans-serif;font-size:12px;" xmlns="http://www.w3.org/2000/svg" width="584" height="400" viewBox="0 0 584 400"><desc>Created with Highcharts 4.1.4</desc><defs><clipPath id="highcharts-1"><rect x="0" y="0" width="519" height="247"></rect></clipPath><clipPath id="highcharts-2"><rect x="-99" y="-61" width="618" height="400"></rect></clipPath><clipPath id="highcharts-3"><rect x="0" y="0" width="519" height="247"></rect></clipPath></defs><rect x="0" y="0" width="584" height="400" strokeWidth="0" fill="#FFFFFF" class=" highcharts-background" stroke="transparent"></rect><g class="highcharts-grid" ></g><g class="highcharts-grid" ><path fill="none" d="M 55 308.5 L 574 308.5" stroke="#D8D8D8" stroke-width="1"  opacity="1"></path><path fill="none" d="M 55 226.5 L 574 226.5" stroke="#D8D8D8" stroke-width="1"  opacity="1"></path><path fill="none" d="M 55 143.5 L 574 143.5" stroke="#D8D8D8" stroke-width="1"  opacity="1"></path><path fill="none" d="M 55 60.5 L 574 60.5" stroke="#D8D8D8" stroke-width="1"  opacity="1"></path></g><g class="highcharts-axis" ><path fill="none" d="M 107.5 308 L 107.5 318" stroke="#C0D0E0" stroke-width="1" opacity="1"></path><path fill="none" d="M 233.5 308 L 233.5 318" stroke="#C0D0E0" stroke-width="1" opacity="1"></path><path fill="none" d="M 355.5 308 L 355.5 318" stroke="#C0D0E0" stroke-width="1" opacity="1"></path><path fill="none" d="M 481.5 308 L 481.5 318" stroke="#C0D0E0" stroke-width="1" opacity="1"></path><text x="314.5"  text-anchor="middle" transform="translate(0,0)" class=" highcharts-xaxis-title" style="color:#707070;fill:#707070;" visibility="visible" y="346">Date</text><path fill="none" d="M 55 308.5 L 574 308.5" stroke="#C0D0E0" stroke-width="1"  visibility="visible"></path></g><g class="highcharts-axis" ><text x="24"  text-anchor="middle" transform="translate(0,0) rotate(270 24 184.5)" class=" highcharts-yaxis-title" style="color:#707070;fill:#707070;" visibility="visible" y="184.5"><tspan>Snow depth (m)</tspan></text></g><g class="highcharts-series-group" ><g class="highcharts-series" visibility="visible"  transform="translate(55,61) scale(1 1)" clip-path="url(#highcharts-3)"><path fill="none" d="M 42.3 247 C 42.3 247 59.6 205.8 71.2 197.6 C 77.8 189.3 81.2 191.7 87.8 189.3 C 99.4 185.1 105.1 181.1 116.7 181.1 C 122.5 181.1 125.4 197.6 131.2 197.6 C 137.0 197.6 139.9 197.6 145.7 197.6 C 155.6 197.6 160.6 197.0 170.5 191.8 C 173.8 190.1 175.5 180.3 178.8 180.3 C 184.6 180.3 187.5 182.7 193.3 182.7 C 196.6 182.7 198.2 173.6 201.5 166.3 C 213.9 138.7 220.2 95.5 232.6 95.5 C 244.1 95.5 249.9 98.8 261.5 98.8 C 268.1 98.8 271.4 98.8 278.1 98.8 C 283.0 98.8 285.5 98.6 290.5 88.9 C 297.1 75.9 300.4 57.2 307.0 41.9 C 312.8 28.6 315.7 17.2 321.5 17.2 C 324.8 17.2 326.5 20.5 329.8 22.2 C 338.0 26.4 342.2 32.1 350.5 32.1 C 357.1 32.1 360.4 24.3 367.0 19.7 C 370.3 17.4 372.0 14.8 375.3 14.8 C 381.1 14.8 384.0 14.8 389.8 16.4 C 406.3 18.1 414.6 48.0 431.1 74.1 C 450.2 104.0 459.7 118.5 478.7 156.4 C 490.3 179.4 496.1 196.5 507.7 226.4 C 510.1 232.8 513.9 247 513.9 247" stroke="#7cb5ec" stroke-width="2"  stroke-linejoin="round" stroke-linecap="round"></path><path fill="none" d="M 32.3 247 L 42.3 247 C 42.3 247 59.6 205.8 71.2 197.6 C 77.8 189.3 81.2 191.7 87.8 189.3 C 99.4 185.1 105.1 181.1 116.7 181.1 C 122.5 181.1 125.4 197.6 131.2 197.6 C 137.0 197.6 139.9 197.6 145.7 197.6 C 155.6 197.6 160.6 197.0 170.5 191.8 C 173.8 190.1 175.5 180.3 178.8 180.3 C 184.6 180.3 187.5 182.7 193.3 182.7 C 196.6 182.7 198.2 173.6 201.5 166.3 C 213.9 138.7 220.2 95.5 232.6 95.5 C 244.1 95.5 249.9 98.8 261.5 98.8 C 268.1 98.8 271.4 98.8 278.1 98.8 C 283.0 98.8 285.5 98.6 290.5 88.9 C 297.1 75.9 300.4 57.2 307.0 41.9 C 312.8 28.6 315.7 17.2 321.5 17.2 C 324.8 17.2 326.5 20.5 329.8 22.2 C 338.0 26.4 342.2 32.1 350.5 32.1 C 357.1 32.1 360.4 24.3 367.0 19.7 C 370.3 17.4 372.0 14.8 375.3 14.8 C 381.1 14.8 384.0 14.8 389.8 16.4 C 406.3 18.1 414.6 48.0 431.1 74.1 C 450.2 104.0 459.7 118.5 478.7 156.4 C 490.3 179.4 496.1 196.5 507.7 226.4 C 510.1 232.8 513.9 247 513.9 247 L 523.9 247" stroke-linejoin="round" visibility="visible" stroke="rgb(192,192,192)" stroke-opacity="0.0" stroke-width="22"  class=" highcharts-tracker" style=""></path></g><g class="highcharts-markers highcharts-tracker" visibility="visible"  transform="translate(55,61) scale(1 1)" clip-path="url(#highcharts-2)" style=""><path fill="#7cb5ec" d="M 513 243 C 518.3 243 518.3 251 513 251 C 507.6 251 507.6 243 513 243 Z"></path><path fill="#7cb5ec" d="M 507 222.4 C 512.3 222.4 512.3 230.4 507 230.4 C 501.6 230.4 501.6 222.4 507 222.4 Z"></path><path fill="#7cb5ec" d="M 478 152.4 C 483.3 152.4 483.3 160.4 478 160.4 C 472.6 160.4 472.6 152.4 478 152.4 Z"></path><path fill="#7cb5ec" d="M 431 70.1 C 436.3 70.1 436.3 78.1 431 78.1 C 425.6 78.1 425.6 70.1 431 70.1 Z"></path><path fill="#7cb5ec" d="M 389 12.4 C 394.3 12.4 394.3 20.4 389 20.4 C 383.6 20.4 383.6 12.4 389 12.4 Z"></path><path fill="#7cb5ec" d="M 375 10.8 C 380.3 10.8 380.3 18.8 375 18.8 C 369.6 18.8 369.6 10.8 375 10.8 Z"></path><path fill="#7cb5ec" d="M 367 15.7 C 372.3 15.7 372.3 23.7 367 23.7 C 361.6 23.7 361.6 15.7 367 15.7 Z"></path><path fill="#7cb5ec" d="M 350 28.1 C 355.3 28.1 355.3 36.1 350 36.1 C 344.6 36.1 344.6 28.1 350 28.1 Z"></path><path fill="#7cb5ec" d="M 329 18.2 C 334.3 18.2 334.3 26.2 329 26.2 C 323.6 26.2 323.6 18.2 329 18.2 Z"></path><path fill="#7cb5ec" d="M 321 13.2 C 326.3 13.2 326.3 21.2 321 21.2 C 315.6 21.2 315.6 13.2 321 13.2 Z"></path><path fill="#7cb5ec" d="M 307 37.9 C 312.3 37.9 312.3 45.9 307 45.9 C 301.6 45.9 301.6 37.9 307 37.9 Z"></path><path fill="#7cb5ec" d="M 290 84.9 C 295.3 84.9 295.3 92.9 290 92.9 C 284.6 92.9 284.6 84.9 290 84.9 Z"></path><path fill="#7cb5ec" d="M 278 94.8 C 283.3 94.8 283.3 102.8 278 102.8 C 272.6 102.8 272.6 94.8 278 94.8 Z"></path><path fill="#7cb5ec" d="M 261 94.8 C 266.3 94.8 266.3 102.8 261 102.8 C 255.6 102.8 255.6 94.8 261 94.8 Z"></path><path fill="#7cb5ec" d="M 232 91.5 C 237.3 91.5 237.3 99.5 232 99.5 C 226.6 99.5 226.6 91.5 232 91.5 Z"></path><path fill="#7cb5ec" d="M 201 162.3 C 206.3 162.3 206.3 170.3 201 170.3 C 195.6 170.3 195.6 162.3 201 162.3 Z"></path><path fill="#7cb5ec" d="M 193 178.7 C 198.3 178.7 198.3 186.7 193 186.7 C 187.6 186.7 187.6 178.7 193 178.7 Z"></path><path fill="#7cb5ec" d="M 178 176.3 C 183.3 176.3 183.3 184.3 178 184.3 C 172.6 184.3 172.6 176.3 178 176.3 Z"></path><path fill="#7cb5ec" d="M 170 187.8 C 175.3 187.8 175.3 195.8 170 195.8 C 164.6 195.8 164.6 187.8 170 187.8 Z"></path><path fill="#7cb5ec" d="M 145 193.6 C 150.3 193.6 150.3 201.6 145 201.6 C 139.6 201.6 139.6 193.6 145 193.6 Z"></path><path fill="#7cb5ec" d="M 131 193.6 C 136.3 193.6 136.3 201.6 131 201.6 C 125.6 201.6 125.6 193.6 131 193.6 Z"></path><path fill="#7cb5ec" d="M 116 177.1 C 121.3 177.1 121.3 185.1 116 185.1 C 110.6 185.1 110.6 177.1 116 177.1 Z"></path><path fill="#7cb5ec" d="M 87 185.3 C 92.3 185.3 92.3 193.3 87 193.3 C 81.6 193.3 81.6 185.3 87 185.3 Z"></path><path fill="#7cb5ec" d="M 71 193.6 C 76.3 193.6 76.3 201.6 71 201.6 C 65.6 201.6 65.6 193.6 71 193.6 Z"></path><path fill="#7cb5ec" d="M 42 243 C 47.3 243 47.3 251 42 251 C 36.6 251 36.6 243 42 243 Z"></path></g><g class="highcharts-series" visibility="visible"  transform="translate(55,61) scale(1 1)" clip-path="url(#highcharts-3)"><path fill="none" d="M 23.7 247 C 23.7 247 33.6 233.3 40.2 230.5 C 70.0 217.8 84.9 217.3 114.7 208.3 C 122.9 205.7 127.1 208.3 135.3 201.7 C 146.9 195.1 152.7 133.3 164.3 133.3 C 175.9 133.3 181.7 133.3 193.3 133.3 C 199.1 133.3 201.9 133.3 207.7 133.3 C 221.8 133.3 228.8 133.3 242.9 133.3 C 248.7 133.3 251.6 126.7 257.4 125.1 C 268.1 123.5 273.5 125.1 284.3 123.5 C 300.0 121.8 307.9 101.1 323.6 91.3 C 334.3 84.7 339.7 82.3 350.5 82.3 C 358.7 82.3 362.9 85.2 371.1 87.2 C 375.3 88.2 377.3 87.2 381.5 89.7 C 384.8 92.2 386.4 98.8 389.8 102.9 C 394.7 109.0 397.2 109.8 402.2 115.2 C 432.0 147.7 446.8 162.3 476.6 197.6 C 481.6 203.4 484.1 209.0 489.0 218.1 C 494.8 228.8 503.5 247 503.5 247" stroke="#434348" stroke-width="2"  stroke-linejoin="round" stroke-linecap="round"></path><path fill="none" d="M 13.7 247 L 23.7 247 C 23.7 247 33.6 233.3 40.2 230.5 C 70.0 217.8 84.9 217.3 114.7 208.3 C 122.9 205.7 127.1 208.3 135.3 201.7 C 146.9 195.1 152.7 133.3 164.3 133.3 C 175.9 133.3 181.7 133.3 193.3 133.3 C 199.1 133.3 201.9 133.3 207.7 133.3 C 221.8 133.3 228.8 133.3 242.9 133.3 C 248.7 133.3 251.6 126.7 257.4 125.1 C 268.1 123.5 273.5 125.1 284.3 123.5 C 300.0 121.8 307.9 101.1 323.6 91.3 C 334.3 84.7 339.7 82.3 350.5 82.3 C 358.7 82.3 362.9 85.2 371.1 87.2 C 375.3 88.2 377.3 87.2 381.5 89.7 C 384.8 92.2 386.4 98.8 389.8 102.9 C 394.7 109.0 397.2 109.8 402.2 115.2 C 432.0 147.7 446.8 162.3 476.6 197.6 C 481.6 203.4 484.1 209.0 489.0 218.1 C 494.8 228.8 503.5 247 503.5 247 L 513.5 247" stroke-linejoin="round" visibility="visible" stroke="rgb(192,192,192)" stroke-opacity="0.0" stroke-width="22"  class=" highcharts-tracker" style=""></path></g><g class="highcharts-markers highcharts-tracker" visibility="visible"  transform="translate(55,61) scale(1 1)" clip-path="url(#highcharts-2)" style=""><path fill="#434348" d="M 503 243 L 507 247 503 251 499 247 Z"></path><path fill="#434348" d="M 489 214.1 L 493 218.1 489 222.1 485 218.1 Z"></path><path fill="#434348" d="M 476 193.6 L 480 197.6 476 201.6 472 197.6 Z"></path><path fill="#434348" d="M 402 111.2 L 406 115.2 402 119.2 398 115.2 Z"></path><path fill="#434348" d="M 389 98.9 L 393 102.9 389 106.9 385 102.9 Z"></path><path fill="#434348" d="M 381 85.7 L 385 89.7 381 93.7 377 89.7 Z"></path><path fill="#434348" d="M 371 83.2 L 375 87.2 371 91.2 367 87.2 Z"></path><path fill="#434348" d="M 350 78.3 L 354 82.3 350 86.3 346 82.3 Z"></path><path fill="#434348" d="M 323 87.3 L 327 91.3 323 95.3 319 91.3 Z"></path><path fill="#434348" d="M 284 119.5 L 288 123.5 284 127.5 280 123.5 Z"></path><path fill="#434348" d="M 257 121.1 L 261 125.1 257 129.1 253 125.1 Z"></path><path fill="#434348" d="M 242 129.3 L 246 133.3 242 137.3 238 133.3 Z"></path><path fill="#434348" d="M 207 129.3 L 211 133.3 207 137.3 203 133.3 Z"></path><path fill="#434348" d="M 193 129.3 L 197 133.3 193 137.3 189 133.3 Z"></path><path fill="#434348" d="M 164 129.3 L 168 133.3 164 137.3 160 133.3 Z"></path><path fill="#434348" d="M 135 197.7 L 139 201.7 135 205.7 131 201.7 Z"></path><path fill="#434348" d="M 114 204.3 L 118 208.3 114 212.3 110 208.3 Z"></path><path fill="#434348" d="M 40 226.5 L 44 230.5 40 234.5 36 230.5 Z"></path><path fill="#434348" d="M 23 243 L 27 247 23 251 19 247 Z"></path></g><g class="highcharts-series" visibility="visible"  transform="translate(55,61) scale(1 1)" clip-path="url(#highcharts-3)"><path fill="none" d="M 5.0 247 C 5.0 247 11.2 235.8 15.4 234.6 C 52.6 224.2 71.2 225.9 108.5 218.1 C 120.0 215.7 125.8 212.3 137.4 209.1 C 154.0 204.4 162.2 198.4 178.8 198.4 C 197.8 198.4 207.3 199.2 226.4 199.2 C 233.0 199.2 236.3 197.2 242.9 195.9 C 247.9 194.9 250.3 194.8 255.3 193.4 C 268.6 189.8 275.2 183.6 288.4 183.6 C 299.2 183.6 304.5 183.6 315.3 183.6 C 320.3 183.6 322.7 183.0 327.7 181.9 C 336.0 180.1 340.1 176.1 348.4 176.1 C 357.5 176.1 362.0 181.1 371.1 181.1 C 382.7 181.1 388.5 169.6 400.1 169.6 C 405.1 169.6 407.5 169.6 412.5 172.9 C 430.7 176.1 439.8 190.7 458.0 214.8 C 462.2 220.3 468.4 247 468.4 247" stroke="#90ed7d" stroke-width="2"  stroke-linejoin="round" stroke-linecap="round"></path><path fill="none" d="M -4.9 247 L 5.0 247 C 5.0 247 11.2 235.8 15.4 234.6 C 52.6 224.2 71.2 225.9 108.5 218.1 C 120.0 215.7 125.8 212.3 137.4 209.1 C 154.0 204.4 162.2 198.4 178.8 198.4 C 197.8 198.4 207.3 199.2 226.4 199.2 C 233.0 199.2 236.3 197.2 242.9 195.9 C 247.9 194.9 250.3 194.8 255.3 193.4 C 268.6 189.8 275.2 183.6 288.4 183.6 C 299.2 183.6 304.5 183.6 315.3 183.6 C 320.3 183.6 322.7 183.0 327.7 181.9 C 336.0 180.1 340.1 176.1 348.4 176.1 C 357.5 176.1 362.0 181.1 371.1 181.1 C 382.7 181.1 388.5 169.6 400.1 169.6 C 405.1 169.6 407.5 169.6 412.5 172.9 C 430.7 176.1 439.8 190.7 458.0 214.8 C 462.2 220.3 468.4 247 468.4 247 L 478.4 247" stroke-linejoin="round" visibility="visible" stroke="rgb(192,192,192)" stroke-opacity="0.0" stroke-width="22"  class=" highcharts-tracker" style=""></path></g><g class="highcharts-markers highcharts-tracker" visibility="visible"  transform="translate(55,61) scale(1 1)" clip-path="url(#highcharts-2)" style=""><path fill="#90ed7d" d="M 464 243 L 472 243 472 251 464 251 Z"></path><path fill="#90ed7d" d="M 454 210.8 L 462 210.8 462 218.8 454 218.8 Z"></path><path fill="#90ed7d" d="M 408 168.9 L 416 168.9 416 176.9 408 176.9 Z"></path><path fill="#90ed7d" d="M 396 165.6 L 404 165.6 404 173.6 396 173.6 Z"></path><path fill="#90ed7d" d="M 367 177.1 L 375 177.1 375 185.1 367 185.1 Z"></path><path fill="#90ed7d" d="M 344 172.1 L 352 172.1 352 180.1 344 180.1 Z"></path><path fill="#90ed7d" d="M 323 177.9 L 331 177.9 331 185.9 323 185.9 Z"></path><path fill="#90ed7d" d="M 311 179.6 L 319 179.6 319 187.6 311 187.6 Z"></path><path fill="#90ed7d" d="M 284 179.6 L 292 179.6 292 187.6 284 187.6 Z"></path><path fill="#90ed7d" d="M 251 189.4 L 259 189.4 259 197.4 251 197.4 Z"></path><path fill="#90ed7d" d="M 238 191.9 L 246 191.9 246 199.9 238 199.9 Z"></path><path fill="#90ed7d" d="M 222 195.2 L 230 195.2 230 203.2 222 203.2 Z"></path><path fill="#90ed7d" d="M 174 194.4 L 182 194.4 182 202.4 174 202.4 Z"></path><path fill="#90ed7d" d="M 133 205.1 L 141 205.1 141 213.1 133 213.1 Z"></path><path fill="#90ed7d" d="M 104 214.1 L 112 214.1 112 222.1 104 222.1 Z"></path><path fill="#90ed7d" d="M 11 230.6 L 19 230.6 19 238.6 11 238.6 Z"></path><path fill="#90ed7d" d="M 1 243 L 9 243 9 251 1 251 Z"></path></g></g><text x="292" text-anchor="middle" class="highcharts-title"  style="color:#333333;font-size:18px;fill:#333333;width:520px;" y="24"><tspan>Snow depth at Vikjafjellet, Norway</tspan></text><text x="292" text-anchor="middle" class="highcharts-subtitle"  style="color:#555555;fill:#555555;width:520px;" y="46"><tspan>Irregular time data in Highcharts JS</tspan></text><g class="highcharts-legend"  transform="translate(62,360)"><g ><g><g class="highcharts-legend-item"  transform="translate(8,3)"><path fill="none" d="M 0 11 L 16 11" stroke="#7cb5ec" stroke-width="2"></path><path fill="#7cb5ec" d="M 8 7 C 13.3 7 13.3 15 8 15 C 2.6 15 2.6 7 8 7 Z"></path><text x="21" style="color:#333333;font-size:12px;font-weight:bold;cursor:pointer;fill:#333333;" text-anchor="start"  y="15"><tspan>Winter 2007-2008</tspan></text></g><g class="highcharts-legend-item"  transform="translate(163,3)"><path fill="none" d="M 0 11 L 16 11" stroke="#434348" stroke-width="2"></path><path fill="#434348" d="M 8 7 L 12 11 8 15 4 11 Z"></path><text x="21" y="15" style="color:#333333;font-size:12px;font-weight:bold;cursor:pointer;fill:#333333;" text-anchor="start" ><tspan>Winter 2008-2009</tspan></text></g><g class="highcharts-legend-item"  transform="translate(318,3)"><path fill="none" d="M 0 11 L 16 11" stroke="#90ed7d" stroke-width="2"></path><path fill="#90ed7d" d="M 4 7 L 12 7 12 15 4 15 Z"></path><text x="21" y="15" style="color:#333333;font-size:12px;font-weight:bold;cursor:pointer;fill:#333333;" text-anchor="start" ><tspan>Winter 2009-2010</tspan></text></g></g></g></g><g class="highcharts-axis-labels highcharts-xaxis-labels" ><text x="107.6" style="color:#606060;cursor:default;font-size:11px;fill:#606060;width:120px;text-overflow:clip;" text-anchor="middle" transform="translate(0,0)" y="327" opacity="1"><tspan>1. Nov</tspan></text><text x="233.8" style="color:#606060;cursor:default;font-size:11px;fill:#606060;width:120px;text-overflow:clip;" text-anchor="middle" transform="translate(0,0)" y="327" opacity="1"><tspan>1. Jan</tspan></text><text x="355.8" style="color:#606060;cursor:default;font-size:11px;fill:#606060;width:120px;text-overflow:clip;" text-anchor="middle" transform="translate(0,0)" y="327" opacity="1"><tspan>1. Mar</tspan></text><text x="482.0" style="color:#606060;cursor:default;font-size:11px;fill:#606060;width:120px;text-overflow:clip;" text-anchor="middle" transform="translate(0,0)" y="327" opacity="1"><tspan>1. May</tspan></text></g><g class="highcharts-axis-labels highcharts-yaxis-labels" ><text x="40" style="color:#606060;cursor:default;font-size:11px;fill:#606060;width:183px;text-overflow:clip;" text-anchor="end" transform="translate(0,0)" y="313" opacity="1">0</text><text x="40" style="color:#606060;cursor:default;font-size:11px;fill:#606060;width:183px;text-overflow:clip;" text-anchor="end" transform="translate(0,0)" y="230" opacity="1">1</text><text x="40" style="color:#606060;cursor:default;font-size:11px;fill:#606060;width:183px;text-overflow:clip;" text-anchor="end" transform="translate(0,0)" y="148" opacity="1">2</text><text x="40" style="color:#606060;cursor:default;font-size:11px;fill:#606060;width:183px;text-overflow:clip;" text-anchor="end" transform="translate(0,0)" y="66" opacity="1">3</text></g><g class="highcharts-tooltip"  style="cursor:default;padding:0;white-space:nowrap;" transform="translate(0,-9999)"><path fill="none" d="M 3 0 L 13 0 C 16 0 16 0 16 3 L 16 13 C 16 16 16 16 13 16 L 3 16 C 0 16 0 16 0 13 L 0 3 C 0 0 0 0 3 0"  stroke="black" stroke-opacity="0.0" stroke-width="5" transform="translate(1, 1)"></path><path fill="none" d="M 3 0 L 13 0 C 16 0 16 0 16 3 L 16 13 C 16 16 16 16 13 16 L 3 16 C 0 16 0 16 0 13 L 0 3 C 0 0 0 0 3 0"  stroke="black" stroke-opacity="0.0" stroke-width="3" transform="translate(1, 1)"></path><path fill="none" d="M 3 0 L 13 0 C 16 0 16 0 16 3 L 16 13 C 16 16 16 16 13 16 L 3 16 C 0 16 0 16 0 13 L 0 3 C 0 0 0 0 3 0"  stroke="black" stroke-opacity="0.1" stroke-width="1" transform="translate(1, 1)"></path><path fill="rgb(249, 249, 249)" fill-opacity=" .85" d="M 3 0 L 13 0 C 16 0 16 0 16 3 L 16 13 C 16 16 16 16 13 16 L 3 16 C 0 16 0 16 0 13 L 0 3 C 0 0 0 0 3 0"></path><text x="8"  style="font-size:12px;color:#333333;fill:#333333;" transform="translate(0,20)"></text></g></svg>