<svg version="1.1" style="font-family:&quot;lucida grande&quot;, &quot;lucida sans unicode&quot;, arial, helvetica, sans-serif;font-size:12px;" xmlns="http://www.w3.org/2000/svg" width="584" height="400" viewBox="0 0 584 400"><desc>Created with Highcharts 4.1.4</desc><defs><clipPath id="highcharts-1"><rect x="0" y="0" width="503" height="266"></rect></clipPath><clipPath id="highcharts-2"><rect x="-99" y="-61" width="602" height="400"></rect></clipPath><clipPath id="highcharts-3"><rect x="0" y="0" width="503" height="266"></rect></clipPath></defs><rect x="0" y="0" width="584" height="400" strokeWidth="0" fill="#FFFFFF" class=" highcharts-background" stroke="transparent"></rect><path fill="rgb(68, 170, 213)" fill-opacity=" 0.1" d="M 71 322.5 L 574 322.5 574 300.5 71 300.5"></path><text x="81" text-anchor="undefined" transform="translate(0,0)" style="color:#606060;fill:#606060;" y="318" visibility="visible"><tspan>Light air</tspan></text><path fill="rgb(0, 0, 0)" fill-opacity=" 0" d="M 71 300.5 L 574 300.5 574 268.5 71 268.5"></path><text x="81" text-anchor="undefined" transform="translate(0,0)" style="color:#606060;fill:#606060;" y="291" visibility="visible"><tspan>Light breeze</tspan></text><path fill="rgb(68, 170, 213)" fill-opacity=" 0.1" d="M 71 268.5 L 574 268.5 574 229.5 71 229.5"></path><text x="81" text-anchor="undefined" transform="translate(0,0)" style="color:#606060;fill:#606060;" y="255" visibility="visible"><tspan>Gentle breeze</tspan></text><path fill="rgb(0, 0, 0)" fill-opacity=" 0" d="M 71 229.5 L 574 229.5 574 185.5 71 185.5"></path><text x="81" text-anchor="undefined" transform="translate(0,0)" style="color:#606060;fill:#606060;" y="214" visibility="visible"><tspan>Moderate breeze</tspan></text><path fill="rgb(68, 170, 213)" fill-opacity=" 0.1" d="M 71 185.5 L 574 185.5 574 132.5 71 132.5"></path><text x="81" text-anchor="undefined" transform="translate(0,0)" style="color:#606060;fill:#606060;" y="165" visibility="visible"><tspan>Fresh breeze</tspan></text><path fill="rgb(0, 0, 0)" fill-opacity=" 0" d="M 71 132.5 L 574 132.5 574 79.5 71 79.5"></path><text x="81" text-anchor="undefined" transform="translate(0,0)" style="color:#606060;fill:#606060;" y="112" visibility="visible"><tspan>Strong breeze</tspan></text><path fill="rgb(68, 170, 213)" fill-opacity=" 0.1" d="M 71 79.5 L 574 79.5 574 61.5 71 61.5"></path><text x="81" text-anchor="undefined" transform="translate(0,0)" style="color:#606060;fill:#606060;" y="77" visibility="visible"><tspan>High wind</tspan></text><g class="highcharts-grid" ></g><g class="highcharts-grid" ></g><g class="highcharts-axis" ><path fill="none" d="M 75.5 327 L 75.5 337" stroke="#C0D0E0" stroke-width="1" opacity="1"></path><path fill="none" d="M 157.5 327 L 157.5 337" stroke="#C0D0E0" stroke-width="1" opacity="1"></path><path fill="none" d="M 239.5 327 L 239.5 337" stroke="#C0D0E0" stroke-width="1" opacity="1"></path><path fill="none" d="M 322.5 327 L 322.5 337" stroke="#C0D0E0" stroke-width="1" opacity="1"></path><path fill="none" d="M 404.5 327 L 404.5 337" stroke="#C0D0E0" stroke-width="1" opacity="1"></path><path fill="none" d="M 486.5 327 L 486.5 337" stroke="#C0D0E0" stroke-width="1" opacity="1"></path><path fill="none" d="M 568.5 327 L 568.5 337" stroke="#C0D0E0" stroke-width="1" opacity="1"></path><path fill="none" d="M 71 327.5 L 574 327.5" stroke="#C0D0E0" stroke-width="1"  visibility="visible"></path></g><g class="highcharts-axis" ><text x="24"  text-anchor="middle" transform="translate(0,0) rotate(270 24 194)" class=" highcharts-yaxis-title" style="color:#707070;fill:#707070;" visibility="visible" y="194"><tspan>Wind speed (m/s)</tspan></text></g><g class="highcharts-series-group" ><g class="highcharts-series" visibility="visible"  transform="translate(71,61) scale(1 1)" clip-path="url(#highcharts-3)"><path fill="none" d="M 4.9 189.7 C 4.9 189.7 11.0 175.5 15.2 175.5 C 19.3 175.5 21.3 189.7 25.4 189.7 C 29.5 189.7 31.6 177.3 35.7 173.7 C 39.8 170.2 41.9 170.2 46.0 170.2 C 50.1 170.2 52.1 175.9 56.2 182.6 C 60.4 189.3 62.4 203.9 66.5 203.9 C 70.6 203.9 72.7 200.7 76.8 193.2 C 80.9 185.8 83.0 178.3 87.1 166.6 C 91.2 154.9 93.2 134.7 97.3 134.7 C 101.5 134.7 103.5 143.6 107.6 143.6 C 111.7 143.6 113.8 143.6 117.9 140.0 C 122.0 136.5 124.1 125.9 128.2 125.9 C 132.3 125.9 134.3 125.9 138.4 125.9 C 142.5 125.9 144.6 128.7 148.7 133 C 152.8 137.2 154.9 147.1 159.0 147.1 C 163.1 147.1 165.2 129.4 169.3 129.4 C 173.4 129.4 175.4 129.4 179.5 129.4 C 183.6 129.4 185.7 132.2 189.8 134.7 C 193.9 137.2 196.0 141.8 200.1 141.8 C 204.2 141.8 206.2 140.0 210.4 140.0 C 214.5 140.0 216.5 163.1 220.6 163.1 C 224.7 163.1 226.8 163.1 230.9 161.3 C 235.0 159.6 237.1 142.9 241.2 134.7 C 245.3 126.6 247.3 124.4 251.5 120.5 C 255.6 116.6 257.6 119.5 261.7 115.2 C 265.8 111.0 267.9 99.3 272.0 99.3 C 276.1 99.3 278.2 122.3 282.3 122.3 C 286.4 122.3 288.4 72.7 292.5 72.7 C 296.7 72.7 298.7 81.5 302.8 81.5 C 306.9 81.5 309.0 79.8 313.1 72.7 C 317.2 65.6 319.3 46.1 323.4 46.1 C 327.5 46.1 329.5 46.1 333.6 51.4 C 337.7 56.7 339.8 81.2 343.9 97.5 C 348.0 113.8 350.1 125.9 354.2 133 C 358.3 140.0 360.4 140.0 364.5 140.0 C 368.6 140.0 370.6 136.5 374.7 133 C 378.8 129.4 380.9 122.3 385.0 122.3 C 389.1 122.3 391.2 128.7 395.3 145.4 C 399.4 162.0 401.4 189.0 405.6 205.7 C 409.7 222.3 411.7 225.2 415.8 228.7 C 419.9 232.3 422.0 232.3 426.1 232.3 C 430.2 232.3 432.3 218.1 436.4 216.3 C 440.5 214.5 442.5 214.5 446.7 214.5 C 450.8 214.5 452.8 242.9 456.9 242.9 C 461.0 242.9 463.1 187.9 467.2 187.9 C 471.3 187.9 473.4 187.9 477.5 191.5 C 481.6 195.0 483.6 212.8 487.7 212.8 C 491.9 212.8 498.0 212.8 498.0 212.8" stroke="#7cb5ec" stroke-width="4"  stroke-linejoin="round" stroke-linecap="round"></path><path fill="none" d="M -5.0 189.7 L 4.9 189.7 C 4.9 189.7 11.0 175.5 15.2 175.5 C 19.3 175.5 21.3 189.7 25.4 189.7 C 29.5 189.7 31.6 177.3 35.7 173.7 C 39.8 170.2 41.9 170.2 46.0 170.2 C 50.1 170.2 52.1 175.9 56.2 182.6 C 60.4 189.3 62.4 203.9 66.5 203.9 C 70.6 203.9 72.7 200.7 76.8 193.2 C 80.9 185.8 83.0 178.3 87.1 166.6 C 91.2 154.9 93.2 134.7 97.3 134.7 C 101.5 134.7 103.5 143.6 107.6 143.6 C 111.7 143.6 113.8 143.6 117.9 140.0 C 122.0 136.5 124.1 125.9 128.2 125.9 C 132.3 125.9 134.3 125.9 138.4 125.9 C 142.5 125.9 144.6 128.7 148.7 133 C 152.8 137.2 154.9 147.1 159.0 147.1 C 163.1 147.1 165.2 129.4 169.3 129.4 C 173.4 129.4 175.4 129.4 179.5 129.4 C 183.6 129.4 185.7 132.2 189.8 134.7 C 193.9 137.2 196.0 141.8 200.1 141.8 C 204.2 141.8 206.2 140.0 210.4 140.0 C 214.5 140.0 216.5 163.1 220.6 163.1 C 224.7 163.1 226.8 163.1 230.9 161.3 C 235.0 159.6 237.1 142.9 241.2 134.7 C 245.3 126.6 247.3 124.4 251.5 120.5 C 255.6 116.6 257.6 119.5 261.7 115.2 C 265.8 111.0 267.9 99.3 272.0 99.3 C 276.1 99.3 278.2 122.3 282.3 122.3 C 286.4 122.3 288.4 72.7 292.5 72.7 C 296.7 72.7 298.7 81.5 302.8 81.5 C 306.9 81.5 309.0 79.8 313.1 72.7 C 317.2 65.6 319.3 46.1 323.4 46.1 C 327.5 46.1 329.5 46.1 333.6 51.4 C 337.7 56.7 339.8 81.2 343.9 97.5 C 348.0 113.8 350.1 125.9 354.2 133 C 358.3 140.0 360.4 140.0 364.5 140.0 C 368.6 140.0 370.6 136.5 374.7 133 C 378.8 129.4 380.9 122.3 385.0 122.3 C 389.1 122.3 391.2 128.7 395.3 145.4 C 399.4 162.0 401.4 189.0 405.6 205.7 C 409.7 222.3 411.7 225.2 415.8 228.7 C 419.9 232.3 422.0 232.3 426.1 232.3 C 430.2 232.3 432.3 218.1 436.4 216.3 C 440.5 214.5 442.5 214.5 446.7 214.5 C 450.8 214.5 452.8 242.9 456.9 242.9 C 461.0 242.9 463.1 187.9 467.2 187.9 C 471.3 187.9 473.4 187.9 477.5 191.5 C 481.6 195.0 483.6 212.8 487.7 212.8 C 491.9 212.8 498.0 212.8 498.0 212.8 L 508.0 212.8" stroke-linejoin="round" visibility="visible" stroke="rgb(192,192,192)" stroke-opacity="0.0" stroke-width="24"  class=" highcharts-tracker" style=""></path></g><g class="highcharts-markers highcharts-tracker" visibility="visible"  transform="translate(71,61) scale(1 1)" clip-path="url(#highcharts-2)" style=""></g><g class="highcharts-series" visibility="visible"  transform="translate(71,61) scale(1 1)" clip-path="url(#highcharts-3)"><path fill="none" d="M 4.9 266 C 4.9 266 11.0 266 15.2 266 C 19.3 266 21.3 266 25.4 266 C 29.5 266 31.6 266 35.7 266 C 39.8 266 41.9 266 46.0 266 C 50.1 266 52.1 266 56.2 266 C 60.4 266 62.4 266 66.5 266 C 70.6 266 72.7 266 76.8 266 C 80.9 266 83.0 264.2 87.1 264.2 C 91.2 264.2 93.2 266 97.3 266 C 101.5 266 103.5 260.6 107.6 260.6 C 111.7 260.6 113.8 266 117.9 266 C 122.0 266 124.1 266 128.2 266 C 132.3 266 134.3 258.9 138.4 258.9 C 142.5 258.9 144.6 266 148.7 266 C 152.8 266 154.9 264.2 159.0 264.2 C 163.1 264.2 165.2 266 169.3 266 C 173.4 266 175.4 266 179.5 266 C 183.6 266 185.7 266 189.8 266 C 193.9 266 196.0 266 200.1 266 C 204.2 266 206.2 266 210.4 266 C 214.5 266 216.5 266 220.6 266 C 224.7 266 226.8 266 230.9 266 C 235.0 266 237.1 266 241.2 266 C 245.3 266 247.3 266 251.5 266 C 255.6 266 257.6 259.6 261.7 255.3 C 265.8 251.1 267.9 248.6 272.0 244.7 C 276.1 240.8 278.2 235.8 282.3 235.8 C 286.4 235.8 288.4 253.5 292.5 253.5 C 296.7 253.5 298.7 226.6 302.8 214.5 C 306.9 202.5 309.0 193.2 313.1 193.2 C 317.2 193.2 319.3 219.8 323.4 219.8 C 327.5 219.8 329.5 203.9 333.6 200.3 C 337.7 196.8 339.8 196.8 343.9 196.8 C 348.0 196.8 350.1 235.8 354.2 235.8 C 358.3 235.8 360.4 229.8 364.5 225.2 C 368.6 220.6 370.6 216.3 374.7 212.8 C 378.8 209.2 380.9 212.8 385.0 207.4 C 389.1 202.1 391.2 184.4 395.3 180.8 C 399.4 177.3 401.4 177.3 405.6 177.3 C 409.7 177.3 411.7 180.8 415.8 180.8 C 419.9 180.8 422.0 177.3 426.1 177.3 C 430.2 177.3 432.3 198.6 436.4 209.2 C 440.5 219.8 442.5 222.3 446.7 230.5 C 450.8 238.6 452.8 244.3 456.9 250.0 C 461.0 255.7 463.1 257.1 467.2 258.9 C 471.3 260.6 473.4 260.6 477.5 260.6 C 481.6 260.6 483.6 257.1 487.7 257.1 C 491.9 257.1 498.0 258.9 498.0 258.9" stroke="#434348" stroke-width="4"  stroke-linejoin="round" stroke-linecap="round"></path><path fill="none" d="M -5.0 266 L 4.9 266 C 4.9 266 11.0 266 15.2 266 C 19.3 266 21.3 266 25.4 266 C 29.5 266 31.6 266 35.7 266 C 39.8 266 41.9 266 46.0 266 C 50.1 266 52.1 266 56.2 266 C 60.4 266 62.4 266 66.5 266 C 70.6 266 72.7 266 76.8 266 C 80.9 266 83.0 264.2 87.1 264.2 C 91.2 264.2 93.2 266 97.3 266 C 101.5 266 103.5 260.6 107.6 260.6 C 111.7 260.6 113.8 266 117.9 266 C 122.0 266 124.1 266 128.2 266 C 132.3 266 134.3 258.9 138.4 258.9 C 142.5 258.9 144.6 266 148.7 266 C 152.8 266 154.9 264.2 159.0 264.2 C 163.1 264.2 165.2 266 169.3 266 C 173.4 266 175.4 266 179.5 266 C 183.6 266 185.7 266 189.8 266 C 193.9 266 196.0 266 200.1 266 C 204.2 266 206.2 266 210.4 266 C 214.5 266 216.5 266 220.6 266 C 224.7 266 226.8 266 230.9 266 C 235.0 266 237.1 266 241.2 266 C 245.3 266 247.3 266 251.5 266 C 255.6 266 257.6 259.6 261.7 255.3 C 265.8 251.1 267.9 248.6 272.0 244.7 C 276.1 240.8 278.2 235.8 282.3 235.8 C 286.4 235.8 288.4 253.5 292.5 253.5 C 296.7 253.5 298.7 226.6 302.8 214.5 C 306.9 202.5 309.0 193.2 313.1 193.2 C 317.2 193.2 319.3 219.8 323.4 219.8 C 327.5 219.8 329.5 203.9 333.6 200.3 C 337.7 196.8 339.8 196.8 343.9 196.8 C 348.0 196.8 350.1 235.8 354.2 235.8 C 358.3 235.8 360.4 229.8 364.5 225.2 C 368.6 220.6 370.6 216.3 374.7 212.8 C 378.8 209.2 380.9 212.8 385.0 207.4 C 389.1 202.1 391.2 184.4 395.3 180.8 C 399.4 177.3 401.4 177.3 405.6 177.3 C 409.7 177.3 411.7 180.8 415.8 180.8 C 419.9 180.8 422.0 177.3 426.1 177.3 C 430.2 177.3 432.3 198.6 436.4 209.2 C 440.5 219.8 442.5 222.3 446.7 230.5 C 450.8 238.6 452.8 244.3 456.9 250.0 C 461.0 255.7 463.1 257.1 467.2 258.9 C 471.3 260.6 473.4 260.6 477.5 260.6 C 481.6 260.6 483.6 257.1 487.7 257.1 C 491.9 257.1 498.0 258.9 498.0 258.9 L 508.0 258.9" stroke-linejoin="round" visibility="visible" stroke="rgb(192,192,192)" stroke-opacity="0.0" stroke-width="24"  class=" highcharts-tracker" style=""></path></g><g class="highcharts-markers highcharts-tracker" visibility="visible"  transform="translate(71,61) scale(1 1)" clip-path="url(#highcharts-2)" style=""></g></g><text x="292" text-anchor="middle" class="highcharts-title"  style="color:#333333;font-size:18px;fill:#333333;width:520px;" y="24"><tspan>Wind speed during two days</tspan></text><text x="292" text-anchor="middle" class="highcharts-subtitle"  style="color:#555555;fill:#555555;width:520px;" y="46"><tspan>October 6th and 7th 2009 at two locations in Vik i Sogn, Norway</tspan></text><g class="highcharts-legend"  transform="translate(203,360)"><g ><g><g class="highcharts-legend-item"  transform="translate(8,3)"><path fill="none" d="M 0 11 L 16 11" stroke="#7cb5ec" stroke-width="4"></path><text x="21" style="color:#333333;font-size:12px;font-weight:bold;cursor:pointer;fill:#333333;" text-anchor="start"  y="15">Hestavollane</text></g><g class="highcharts-legend-item"  transform="translate(127,3)"><path fill="none" d="M 0 11 L 16 11" stroke="#434348" stroke-width="4"></path><text x="21" y="15" style="color:#333333;font-size:12px;font-weight:bold;cursor:pointer;fill:#333333;" text-anchor="start" >Voll</text></g></g></g></g><g class="highcharts-axis-labels highcharts-xaxis-labels" ><text x="75.9" style="color:#606060;cursor:default;font-size:11px;fill:#606060;width:71px;text-overflow:clip;" text-anchor="middle" transform="translate(0,0)" y="346" opacity="1"><tspan>6. Oct</tspan></text><text x="158.1" style="color:#606060;cursor:default;font-size:11px;fill:#606060;width:71px;text-overflow:clip;" text-anchor="middle" transform="translate(0,0)" y="346" opacity="1">08:00</text><text x="240.3" style="color:#606060;cursor:default;font-size:11px;fill:#606060;width:71px;text-overflow:clip;" text-anchor="middle" transform="translate(0,0)" y="346" opacity="1">16:00</text><text x="322.5" style="color:#606060;cursor:default;font-size:11px;fill:#606060;width:71px;text-overflow:clip;" text-anchor="middle" transform="translate(0,0)" y="346" opacity="1"><tspan>7. Oct</tspan></text><text x="404.6" style="color:#606060;cursor:default;font-size:11px;fill:#606060;width:71px;text-overflow:clip;" text-anchor="middle" transform="translate(0,0)" y="346" opacity="1">08:00</text><text x="486.8" style="color:#606060;cursor:default;font-size:11px;fill:#606060;width:71px;text-overflow:clip;" text-anchor="middle" transform="translate(0,0)" y="346" opacity="1">16:00</text><text x="574" style="color:#606060;cursor:default;font-size:11px;fill:#606060;width:71px;text-overflow:clip;" text-anchor="end" transform="translate(0,0)" y="346" opacity="1"><tspan>8. Oct</tspan></text></g><g class="highcharts-axis-labels highcharts-yaxis-labels" ><text x="56" style="color:#606060;cursor:default;font-size:11px;fill:#606060;width:183px;text-overflow:clip;" text-anchor="end" transform="translate(0,0)" y="332" opacity="1">0</text><text x="56" style="color:#606060;cursor:default;font-size:11px;fill:#606060;width:183px;text-overflow:clip;" text-anchor="end" transform="translate(0,0)" y="287" opacity="1">2.5</text><text x="56" style="color:#606060;cursor:default;font-size:11px;fill:#606060;width:183px;text-overflow:clip;" text-anchor="end" transform="translate(0,0)" y="243" opacity="1">5</text><text x="56" style="color:#606060;cursor:default;font-size:11px;fill:#606060;width:183px;text-overflow:clip;" text-anchor="end" transform="translate(0,0)" y="199" opacity="1">7.5</text><text x="56" style="color:#606060;cursor:default;font-size:11px;fill:#606060;width:183px;text-overflow:clip;" text-anchor="end" transform="translate(0,0)" y="154" opacity="1">10</text><text x="56" style="color:#606060;cursor:default;font-size:11px;fill:#606060;width:183px;text-overflow:clip;" text-anchor="end" transform="translate(0,0)" y="110" opacity="1">12.5</text><text x="56" style="color:#606060;cursor:default;font-size:11px;fill:#606060;width:183px;text-overflow:clip;" text-anchor="end" transform="translate(0,0)" y="66" opacity="1">15</text></g><g class="highcharts-tooltip"  style="cursor:default;padding:0;white-space:nowrap;" transform="translate(0,-9999)"><path fill="none" d="M 3 0 L 13 0 C 16 0 16 0 16 3 L 16 13 C 16 16 16 16 13 16 L 3 16 C 0 16 0 16 0 13 L 0 3 C 0 0 0 0 3 0"  stroke="black" stroke-opacity="0.0" stroke-width="5" transform="translate(1, 1)"></path><path fill="none" d="M 3 0 L 13 0 C 16 0 16 0 16 3 L 16 13 C 16 16 16 16 13 16 L 3 16 C 0 16 0 16 0 13 L 0 3 C 0 0 0 0 3 0"  stroke="black" stroke-opacity="0.0" stroke-width="3" transform="translate(1, 1)"></path><path fill="none" d="M 3 0 L 13 0 C 16 0 16 0 16 3 L 16 13 C 16 16 16 16 13 16 L 3 16 C 0 16 0 16 0 13 L 0 3 C 0 0 0 0 3 0"  stroke="black" stroke-opacity="0.1" stroke-width="1" transform="translate(1, 1)"></path><path fill="rgb(249, 249, 249)" fill-opacity=" .85" d="M 3 0 L 13 0 C 16 0 16 0 16 3 L 16 13 C 16 16 16 16 13 16 L 3 16 C 0 16 0 16 0 13 L 0 3 C 0 0 0 0 3 0"></path><text x="8"  style="font-size:12px;color:#333333;fill:#333333;" transform="translate(0,20)"></text></g></svg>