<svg version="1.1" style="font-family:&quot;lucida grande&quot;, &quot;lucida sans unicode&quot;, arial, helvetica, sans-serif;font-size:12px;" xmlns="http://www.w3.org/2000/svg" width="584" height="400" viewBox="0 0 584 400"><desc>Created with Highcharts 4.1.4</desc><defs><clipPath id="highcharts-1"><rect x="0" y="0" width="345" height="293"></rect></clipPath><clipPath id="highcharts-2"><rect x="-99" y="-61" width="444" height="400"></rect></clipPath><clipPath id="highcharts-3"><rect x="0" y="0" width="345" height="293"></rect></clipPath></defs><rect x="0" y="0" width="584" height="400" strokeWidth="0" fill="#FFFFFF" class=" highcharts-background" stroke="transparent"></rect><g class="highcharts-grid" ></g><g class="highcharts-grid" ><path fill="none" d="M 86 354.5 L 431 354.5" stroke="#D8D8D8" stroke-width="1"  opacity="1"></path><path fill="none" d="M 86 295.5 L 431 295.5" stroke="#D8D8D8" stroke-width="1"  opacity="1"></path><path fill="none" d="M 86 237.5 L 431 237.5" stroke="#D8D8D8" stroke-width="1"  opacity="1"></path><path fill="none" d="M 86 178.5 L 431 178.5" stroke="#D8D8D8" stroke-width="1"  opacity="1"></path><path fill="none" d="M 86 120.5 L 431 120.5" stroke="#D8D8D8" stroke-width="1"  opacity="1"></path><path fill="none" d="M 86 60.5 L 431 60.5" stroke="#D8D8D8" stroke-width="1"  opacity="1"></path></g><g class="highcharts-grid" ></g><g class="highcharts-grid" ></g><g class="highcharts-axis" ><path fill="none" d="M 114.5 354 L 114.5 364" stroke="#C0D0E0" stroke-width="1" opacity="1"></path><path fill="none" d="M 143.5 354 L 143.5 364" stroke="#C0D0E0" stroke-width="1" opacity="1"></path><path fill="none" d="M 171.5 354 L 171.5 364" stroke="#C0D0E0" stroke-width="1" opacity="1"></path><path fill="none" d="M 200.5 354 L 200.5 364" stroke="#C0D0E0" stroke-width="1" opacity="1"></path><path fill="none" d="M 229.5 354 L 229.5 364" stroke="#C0D0E0" stroke-width="1" opacity="1"></path><path fill="none" d="M 258.5 354 L 258.5 364" stroke="#C0D0E0" stroke-width="1" opacity="1"></path><path fill="none" d="M 286.5 354 L 286.5 364" stroke="#C0D0E0" stroke-width="1" opacity="1"></path><path fill="none" d="M 315.5 354 L 315.5 364" stroke="#C0D0E0" stroke-width="1" opacity="1"></path><path fill="none" d="M 344.5 354 L 344.5 364" stroke="#C0D0E0" stroke-width="1" opacity="1"></path><path fill="none" d="M 373.5 354 L 373.5 364" stroke="#C0D0E0" stroke-width="1" opacity="1"></path><path fill="none" d="M 401.5 354 L 401.5 364" stroke="#C0D0E0" stroke-width="1" opacity="1"></path><path fill="none" d="M 431.5 354 L 431.5 364" stroke="#C0D0E0" stroke-width="1" opacity="1"></path><path fill="none" d="M 85.5 354 L 85.5 364" stroke="#C0D0E0" stroke-width="1" opacity="1"></path><path fill="none" d="M 86 354.5 L 431 354.5" stroke="#C0D0E0" stroke-width="1"  visibility="visible"></path></g><g class="highcharts-axis" ><text x="480"  text-anchor="middle" transform="translate(0,0) rotate(90 480 207.5)" class=" highcharts-yaxis-title" style="color:#90ed7d;fill:#90ed7d;" visibility="visible" y="207.5">Temperature</text></g><g class="highcharts-axis" ><text x="24"  text-anchor="middle" transform="translate(0,0) rotate(270 24 207.5)" class=" highcharts-yaxis-title" style="color:#7cb5ec;fill:#7cb5ec;" visibility="visible" y="207.5">Rainfall</text></g><g class="highcharts-axis" ><text x="560"  text-anchor="middle" transform="translate(0,0) rotate(90 560 207.5)" class=" highcharts-yaxis-title" style="color:#434348;fill:#434348;" visibility="visible" y="207.5"><tspan>Sea-Level Pressure</tspan></text></g><g class="highcharts-series-group" ><g class="highcharts-series highcharts-tracker" visibility="visible"  transform="translate(86,61) scale(1 1)" style="" clip-path="url(#highcharts-1)"><rect x="6.5" y="235.5" width="14" height="58" stroke="#FFFFFF" stroke-width="1" fill="#7cb5ec" rx="0" ry="0"></rect><rect x="35.5" y="209.5" width="14" height="84" stroke="#FFFFFF" stroke-width="1" fill="#7cb5ec" rx="0" ry="0"></rect><rect x="64.5" y="168.5" width="14" height="125" stroke="#FFFFFF" stroke-width="1" fill="#7cb5ec" rx="0" ry="0"></rect><rect x="93.5" y="142.5" width="14" height="151" stroke="#FFFFFF" stroke-width="1" fill="#7cb5ec" rx="0" ry="0"></rect><rect x="121.5" y="124.5" width="14" height="169" stroke="#FFFFFF" stroke-width="1" fill="#7cb5ec" rx="0" ry="0"></rect><rect x="150.5" y="87.5" width="14" height="206" stroke="#FFFFFF" stroke-width="1" fill="#7cb5ec" rx="0" ry="0"></rect><rect x="179.5" y="134.5" width="14" height="159" stroke="#FFFFFF" stroke-width="1" fill="#7cb5ec" rx="0" ry="0"></rect><rect x="208.5" y="119.5" width="14" height="174" stroke="#FFFFFF" stroke-width="1" fill="#7cb5ec" rx="0" ry="0"></rect><rect x="236.5" y="39.5" width="14" height="254" stroke="#FFFFFF" stroke-width="1" fill="#7cb5ec" rx="0" ry="0"></rect><rect x="265.5" y="66.5" width="14" height="227" stroke="#FFFFFF" stroke-width="1" fill="#7cb5ec" rx="0" ry="0"></rect><rect x="294.5" y="181.5" width="14" height="112" stroke="#FFFFFF" stroke-width="1" fill="#7cb5ec" rx="0" ry="0"></rect><rect x="323.5" y="229.5" width="14" height="64" stroke="#FFFFFF" stroke-width="1" fill="#7cb5ec" rx="0" ry="0"></rect></g><g class="highcharts-markers" visibility="visible"  transform="translate(86,61) scale(1 1)"></g><g class="highcharts-series" visibility="visible"  transform="translate(86,61) scale(1 1)" clip-path="url(#highcharts-3)"><path fill="none" d="M 14.3 175.8 C 14.3 175.8 31.6 175.8 43.1 175.8 C 54.6 175.8 60.3 175.8 71.8 177.2 C 83.3 178.7 89.1 177.2 100.6 183.1 C 112.1 188.9 117.8 212.4 129.3 230.0 C 140.8 247.5 146.6 271.0 158.1 271.0 C 169.6 271.0 175.3 271.0 186.8 269.5 C 198.3 268.0 204.1 269.5 215.6 260.7 C 227.1 251.9 232.8 237.9 244.3 218.2 C 255.8 198.6 261.6 177.5 273.1 162.6 C 284.6 147.6 290.3 143.5 301.8 143.5 C 313.3 143.5 330.6 165.5 330.6 165.5" stroke="#434348" stroke-width="2"  stroke-dasharray="2,2"></path><path fill="none" d="M 4.3 175.8 L 14.3 175.8 C 14.3 175.8 31.6 175.8 43.1 175.8 C 54.6 175.8 60.3 175.8 71.8 177.2 C 83.3 178.7 89.1 177.2 100.6 183.1 C 112.1 188.9 117.8 212.4 129.3 230.0 C 140.8 247.5 146.6 271.0 158.1 271.0 C 169.6 271.0 175.3 271.0 186.8 269.5 C 198.3 268.0 204.1 269.5 215.6 260.7 C 227.1 251.9 232.8 237.9 244.3 218.2 C 255.8 198.6 261.6 177.5 273.1 162.6 C 284.6 147.6 290.3 143.5 301.8 143.5 C 313.3 143.5 330.6 165.5 330.6 165.5 L 340.6 165.5" stroke-linejoin="round" visibility="visible" stroke="rgb(192,192,192)" stroke-opacity="0.0" stroke-width="22"  class=" highcharts-tracker" style=""></path></g><g class="highcharts-markers highcharts-tracker" visibility="visible"  transform="translate(86,61) scale(1 1)" clip-path="url(#highcharts-2)" style=""></g><g class="highcharts-series" visibility="visible"  transform="translate(86,61) scale(1 1)" clip-path="url(#highcharts-3)"><path fill="none" d="M 14.3 269.5 C 14.3 269.5 31.6 270.7 43.1 270.7 C 54.6 270.7 60.3 258.0 71.8 240.2 C 83.3 222.4 89.1 202.0 100.6 181.6 C 112.1 161.2 117.8 154.7 129.3 138.2 C 140.8 121.8 146.6 116.0 158.1 99.6 C 169.6 83.2 175.3 67.9 186.8 56.2 C 198.3 44.5 204.1 41.0 215.6 41.0 C 227.1 41.0 232.8 59.3 244.3 78.5 C 255.8 97.7 261.6 115.0 273.1 137.1 C 284.6 159.1 290.3 168.2 301.8 188.6 C 313.3 209.0 330.6 239.0 330.6 239.0" stroke="#90ed7d" stroke-width="2"  stroke-linejoin="round" stroke-linecap="round"></path><path fill="none" d="M 4.3 269.5 L 14.3 269.5 C 14.3 269.5 31.6 270.7 43.1 270.7 C 54.6 270.7 60.3 258.0 71.8 240.2 C 83.3 222.4 89.1 202.0 100.6 181.6 C 112.1 161.2 117.8 154.7 129.3 138.2 C 140.8 121.8 146.6 116.0 158.1 99.6 C 169.6 83.2 175.3 67.9 186.8 56.2 C 198.3 44.5 204.1 41.0 215.6 41.0 C 227.1 41.0 232.8 59.3 244.3 78.5 C 255.8 97.7 261.6 115.0 273.1 137.1 C 284.6 159.1 290.3 168.2 301.8 188.6 C 313.3 209.0 330.6 239.0 330.6 239.0 L 340.6 239.0" stroke-linejoin="round" visibility="visible" stroke="rgb(192,192,192)" stroke-opacity="0.0" stroke-width="22"  class=" highcharts-tracker" style=""></path></g><g class="highcharts-markers highcharts-tracker" visibility="visible"  transform="translate(86,61) scale(1 1)" clip-path="url(#highcharts-2)" style=""><path fill="#90ed7d" d="M 330 235.0 L 334 239.0 330 243.0 326 239.0 Z"></path><path fill="#90ed7d" d="M 301 184.6 L 305 188.6 301 192.6 297 188.6 Z"></path><path fill="#90ed7d" d="M 273 133.1 L 277 137.1 273 141.1 269 137.1 Z"></path><path fill="#90ed7d" d="M 244 74.5 L 248 78.5 244 82.5 240 78.5 Z"></path><path fill="#90ed7d" d="M 215 37.0 L 219 41.0 215 45.0 211 41.0 Z"></path><path fill="#90ed7d" d="M 186 52.2 L 190 56.2 186 60.2 182 56.2 Z"></path><path fill="#90ed7d" d="M 158 95.6 L 162 99.6 158 103.6 154 99.6 Z"></path><path fill="#90ed7d" d="M 129 134.2 L 133 138.2 129 142.2 125 138.2 Z"></path><path fill="#90ed7d" d="M 100 177.6 L 104 181.6 100 185.6 96 181.6 Z"></path><path fill="#90ed7d" d="M 71 236.2 L 75 240.2 71 244.2 67 240.2 Z"></path><path fill="#90ed7d" d="M 43 266.7 L 47 270.7 43 274.7 39 270.7 Z"></path><path fill="#90ed7d" d="M 14 265.5 L 18 269.5 14 273.5 10 269.5 Z"></path></g></g><text x="292" text-anchor="middle" class="highcharts-title"  style="color:#333333;font-size:18px;fill:#333333;width:520px;" y="24"><tspan>Average Monthly Weather Data for Tokyo</tspan></text><text x="292" text-anchor="middle" class="highcharts-subtitle"  style="color:#555555;fill:#555555;width:520px;" y="46"><tspan>Source: WorldClimate.com</tspan></text><g class="highcharts-legend"  transform="translate(90,65)"><rect x="0" y="0" width="151" height="53" strokeWidth="0" fill="#FFFFFF" visibility="visible"></rect><g ><g><g class="highcharts-legend-item"  transform="translate(8,3)"><text x="21" style="color:#333333;font-size:12px;font-weight:bold;cursor:pointer;fill:#333333;" text-anchor="start"  y="15">Rainfall</text><rect x="0" y="4" width="16" height="12"  fill="#7cb5ec"></rect></g><g class="highcharts-legend-item"  transform="translate(8,17)"><path fill="none" d="M 0 11 L 16 11" stroke-dasharray="2,2" stroke="#434348" stroke-width="2"></path><text x="21" y="15" style="color:#333333;font-size:12px;font-weight:bold;cursor:pointer;fill:#333333;" text-anchor="start" ><tspan>Sea-Level Pressure</tspan></text></g><g class="highcharts-legend-item"  transform="translate(8,31)"><path fill="none" d="M 0 11 L 16 11" stroke="#90ed7d" stroke-width="2"></path><path fill="#90ed7d" d="M 8 7 L 12 11 8 15 4 11 Z"></path><text x="21" y="15" style="color:#333333;font-size:12px;font-weight:bold;cursor:pointer;fill:#333333;" text-anchor="start" >Temperature</text></g></g></g></g><g class="highcharts-axis-labels highcharts-xaxis-labels" ><text x="102.9" style="color:#606060;cursor:default;font-size:11px;fill:#606060;width:400px;text-overflow:ellipsis;" text-anchor="end" transform="translate(0,0) rotate(-45 102.9 370)" y="370" opacity="1"><tspan>Jan</tspan></text><text x="131.7" style="color:#606060;cursor:default;font-size:11px;fill:#606060;width:400px;text-overflow:ellipsis;" text-anchor="end" transform="translate(0,0) rotate(-45 131.7 370)" y="370" opacity="1"><tspan>Feb</tspan></text><text x="160.4" style="color:#606060;cursor:default;font-size:11px;fill:#606060;width:400px;text-overflow:ellipsis;" text-anchor="end" transform="translate(0,0) rotate(-45 160.4 370)" y="370" opacity="1"><tspan>Mar</tspan></text><text x="189.2" style="color:#606060;cursor:default;font-size:11px;fill:#606060;width:400px;text-overflow:ellipsis;" text-anchor="end" transform="translate(0,0) rotate(-45 189.2 370)" y="370" opacity="1"><tspan>Apr</tspan></text><text x="217.9" style="color:#606060;cursor:default;font-size:11px;fill:#606060;width:400px;text-overflow:ellipsis;" text-anchor="end" transform="translate(0,0) rotate(-45 217.9 370)" y="370" opacity="1"><tspan>May</tspan></text><text x="246.7" style="color:#606060;cursor:default;font-size:11px;fill:#606060;width:400px;text-overflow:ellipsis;" text-anchor="end" transform="translate(0,0) rotate(-45 246.7 370)" y="370" opacity="1"><tspan>Jun</tspan></text><text x="275.4" style="color:#606060;cursor:default;font-size:11px;fill:#606060;width:400px;text-overflow:ellipsis;" text-anchor="end" transform="translate(0,0) rotate(-45 275.4 370)" y="370" opacity="1"><tspan>Jul</tspan></text><text x="304.2" style="color:#606060;cursor:default;font-size:11px;fill:#606060;width:400px;text-overflow:ellipsis;" text-anchor="end" transform="translate(0,0) rotate(-45 304.2 370)" y="370" opacity="1"><tspan>Aug</tspan></text><text x="332.9" style="color:#606060;cursor:default;font-size:11px;fill:#606060;width:400px;text-overflow:ellipsis;" text-anchor="end" transform="translate(0,0) rotate(-45 332.9 370)" y="370" opacity="1"><tspan>Sep</tspan></text><text x="361.7" style="color:#606060;cursor:default;font-size:11px;fill:#606060;width:400px;text-overflow:ellipsis;" text-anchor="end" transform="translate(0,0) rotate(-45 361.7 370)" y="370" opacity="1"><tspan>Oct</tspan></text><text x="390.4" style="color:#606060;cursor:default;font-size:11px;fill:#606060;width:400px;text-overflow:ellipsis;" text-anchor="end" transform="translate(0,0) rotate(-45 390.4 370)" y="370" opacity="1"><tspan>Nov</tspan></text><text x="419.2" style="color:#606060;cursor:default;font-size:11px;fill:#606060;width:400px;text-overflow:ellipsis;" text-anchor="end" transform="translate(0,0) rotate(-45 419.2 370)" y="370" opacity="1"><tspan>Dec</tspan></text></g><g class="highcharts-axis-labels highcharts-yaxis-labels" ><text x="446" style="color:#90ed7d;cursor:default;font-size:11px;fill:#90ed7d;width:183px;text-overflow:clip;" text-anchor="start" transform="translate(0,0)" y="359" opacity="1">5°C</text><text x="446" style="color:#90ed7d;cursor:default;font-size:11px;fill:#90ed7d;width:183px;text-overflow:clip;" text-anchor="start" transform="translate(0,0)" y="300" opacity="1">10°C</text><text x="446" style="color:#90ed7d;cursor:default;font-size:11px;fill:#90ed7d;width:183px;text-overflow:clip;" text-anchor="start" transform="translate(0,0)" y="241" opacity="1">15°C</text><text x="446" style="color:#90ed7d;cursor:default;font-size:11px;fill:#90ed7d;width:183px;text-overflow:clip;" text-anchor="start" transform="translate(0,0)" y="183" opacity="1">20°C</text><text x="446" style="color:#90ed7d;cursor:default;font-size:11px;fill:#90ed7d;width:183px;text-overflow:clip;" text-anchor="start" transform="translate(0,0)" y="124" opacity="1">25°C</text><text x="446" style="color:#90ed7d;cursor:default;font-size:11px;fill:#90ed7d;width:183px;text-overflow:clip;" text-anchor="start" transform="translate(0,0)" y="66" opacity="1">30°C</text></g><g class="highcharts-axis-labels highcharts-yaxis-labels" ><text x="71" style="color:#7cb5ec;cursor:default;font-size:11px;fill:#7cb5ec;width:183px;text-overflow:clip;" text-anchor="end" transform="translate(0,0)" y="359" opacity="1"><tspan>0 mm</tspan></text><text x="71" style="color:#7cb5ec;cursor:default;font-size:11px;fill:#7cb5ec;width:183px;text-overflow:clip;" text-anchor="end" transform="translate(0,0)" y="300" opacity="1"><tspan>50 mm</tspan></text><text x="71" style="color:#7cb5ec;cursor:default;font-size:11px;fill:#7cb5ec;width:183px;text-overflow:clip;" text-anchor="end" transform="translate(0,0)" y="241" opacity="1"><tspan>100 mm</tspan></text><text x="71" style="color:#7cb5ec;cursor:default;font-size:11px;fill:#7cb5ec;width:183px;text-overflow:clip;" text-anchor="end" transform="translate(0,0)" y="183" opacity="1"><tspan>150 mm</tspan></text><text x="71" style="color:#7cb5ec;cursor:default;font-size:11px;fill:#7cb5ec;width:183px;text-overflow:clip;" text-anchor="end" transform="translate(0,0)" y="124" opacity="1"><tspan>200 mm</tspan></text><text x="71" style="color:#7cb5ec;cursor:default;font-size:11px;fill:#7cb5ec;width:183px;text-overflow:clip;" text-anchor="end" transform="translate(0,0)" y="66" opacity="1"><tspan>250 mm</tspan></text></g><g class="highcharts-axis-labels highcharts-yaxis-labels" ><text x="509" style="color:#434348;cursor:default;font-size:11px;fill:#434348;width:183px;text-overflow:clip;" text-anchor="start" transform="translate(0,0)" y="359" opacity="1"><tspan>1008 mb</tspan></text><text x="509" style="color:#434348;cursor:default;font-size:11px;fill:#434348;width:183px;text-overflow:clip;" text-anchor="start" transform="translate(0,0)" y="300" opacity="1"><tspan>1012 mb</tspan></text><text x="509" style="color:#434348;cursor:default;font-size:11px;fill:#434348;width:183px;text-overflow:clip;" text-anchor="start" transform="translate(0,0)" y="241" opacity="1"><tspan>1016 mb</tspan></text><text x="509" style="color:#434348;cursor:default;font-size:11px;fill:#434348;width:183px;text-overflow:clip;" text-anchor="start" transform="translate(0,0)" y="183" opacity="1"><tspan>1020 mb</tspan></text><text x="509" style="color:#434348;cursor:default;font-size:11px;fill:#434348;width:183px;text-overflow:clip;" text-anchor="start" transform="translate(0,0)" y="124" opacity="1"><tspan>1024 mb</tspan></text><text x="509" style="color:#434348;cursor:default;font-size:11px;fill:#434348;width:183px;text-overflow:clip;" text-anchor="start" transform="translate(0,0)" y="66" opacity="1"><tspan>1028 mb</tspan></text></g><g class="highcharts-tooltip"  style="cursor:default;padding:0;white-space:nowrap;" transform="translate(0,-9999)"><path fill="none" d="M 3 0 L 13 0 C 16 0 16 0 16 3 L 16 13 C 16 16 16 16 13 16 L 3 16 C 0 16 0 16 0 13 L 0 3 C 0 0 0 0 3 0"  stroke="black" stroke-opacity="0.0" stroke-width="5" transform="translate(1, 1)"></path><path fill="none" d="M 3 0 L 13 0 C 16 0 16 0 16 3 L 16 13 C 16 16 16 16 13 16 L 3 16 C 0 16 0 16 0 13 L 0 3 C 0 0 0 0 3 0"  stroke="black" stroke-opacity="0.0" stroke-width="3" transform="translate(1, 1)"></path><path fill="none" d="M 3 0 L 13 0 C 16 0 16 0 16 3 L 16 13 C 16 16 16 16 13 16 L 3 16 C 0 16 0 16 0 13 L 0 3 C 0 0 0 0 3 0"  stroke="black" stroke-opacity="0.1" stroke-width="1" transform="translate(1, 1)"></path><path fill="rgb(249, 249, 249)" fill-opacity=" .85" d="M 3 0 L 13 0 C 16 0 16 0 16 3 L 16 13 C 16 16 16 16 13 16 L 3 16 C 0 16 0 16 0 13 L 0 3 C 0 0 0 0 3 0"></path><text x="8"  style="font-size:12px;color:#333333;fill:#333333;" transform="translate(0,20)"></text></g></svg>