<svg version="1.1" style="font-family:&quot;lucida grande&quot;, &quot;lucida sans unicode&quot;, arial, helvetica, sans-serif;font-size:12px;" xmlns="http://www.w3.org/2000/svg" width="584" height="400" viewBox="0 0 584 400"><desc>Created with Highcharts 4.1.4</desc><defs><clipPath id="highcharts-1"><rect x="0" y="0" width="519" height="280"></rect></clipPath><clipPath id="highcharts-2"><rect x="-99" y="-47" width="618" height="400"></rect></clipPath><clipPath id="highcharts-3"><rect x="0" y="0" width="519" height="280"></rect></clipPath></defs><rect x="0" y="0" width="584" height="400" strokeWidth="0" fill="#FFFFFF" class=" highcharts-background" stroke="transparent"></rect><g class="highcharts-grid" ></g><g class="highcharts-grid" ><path fill="none" d="M 55 327.5 L 574 327.5" stroke="#D8D8D8" stroke-width="1"  opacity="1"></path><path fill="none" d="M 55 271.5 L 574 271.5" stroke="#D8D8D8" stroke-width="1"  opacity="1"></path><path fill="none" d="M 55 215.5 L 574 215.5" stroke="#D8D8D8" stroke-width="1"  opacity="1"></path><path fill="none" d="M 55 159.5 L 574 159.5" stroke="#D8D8D8" stroke-width="1"  opacity="1"></path><path fill="none" d="M 55 103.5 L 574 103.5" stroke="#D8D8D8" stroke-width="1"  opacity="1"></path><path fill="none" d="M 55 46.5 L 574 46.5" stroke="#D8D8D8" stroke-width="1"  opacity="1"></path></g><g class="highcharts-axis" ><path fill="none" d="M 97.5 327 L 97.5 337" stroke="#C0D0E0" stroke-width="1" opacity="1"></path><path fill="none" d="M 184.5 327 L 184.5 337" stroke="#C0D0E0" stroke-width="1" opacity="1"></path><path fill="none" d="M 270.5 327 L 270.5 337" stroke="#C0D0E0" stroke-width="1" opacity="1"></path><path fill="none" d="M 357.5 327 L 357.5 337" stroke="#C0D0E0" stroke-width="1" opacity="1"></path><path fill="none" d="M 443.5 327 L 443.5 337" stroke="#C0D0E0" stroke-width="1" opacity="1"></path><path fill="none" d="M 530.5 327 L 530.5 337" stroke="#C0D0E0" stroke-width="1" opacity="1"></path><path fill="none" d="M 55 327.5 L 574 327.5" stroke="#C0D0E0" stroke-width="1"  visibility="visible"></path></g><g class="highcharts-axis" ><text x="24"  text-anchor="middle" transform="translate(0,0) rotate(270 24 187)" class=" highcharts-yaxis-title" style="color:#707070;fill:#707070;" visibility="visible" y="187">Values</text></g><g class="highcharts-series-group" ><g class="highcharts-series" visibility="visible"  transform="translate(55,47) scale(1 1)" clip-path="url(#highcharts-3)"><path fill="none" d="M 43.2 217.8 L 475.7 27.4" stroke="#7cb5ec" stroke-width="2"  stroke-linejoin="round" stroke-linecap="round"></path></g><g class="highcharts-markers" visibility="visible"  transform="translate(55,47) scale(1 1)" clip-path="url(#highcharts-2)"></g><g class="highcharts-series highcharts-tracker" visibility="visible"  transform="translate(55,47) scale(1 1)" clip-path="url(#highcharts-3)" style=""></g><g class="highcharts-markers highcharts-tracker" visibility="visible"  transform="translate(55,47) scale(1 1)" clip-path="url(#highcharts-2)" style=""><path fill="#434348" d="M 475 40.7 L 479 44.7 475 48.7 471 44.7 Z"></path><path fill="#434348" d="M 389 57.5 L 393 61.5 389 65.6 385 61.5 Z"></path><path fill="#434348" d="M 302 80 L 306 84 302 88 298 84 Z"></path><path fill="#434348" d="M 216 119.2 L 220 123.2 216 127.2 212 123.2 Z"></path><path fill="#434348" d="M 129 192 L 133 196 129 200 125 196 Z"></path><path fill="#434348" d="M 43 220 L 47 224 43 228 39 224 Z"></path></g></g><text x="292" text-anchor="middle" class="highcharts-title"  style="color:#333333;font-size:18px;fill:#333333;width:520px;" y="24"><tspan>Scatter plot with regression line</tspan></text><g class="highcharts-legend"  transform="translate(165,360)"><g ><g><g class="highcharts-legend-item"  transform="translate(8,3)"><path fill="none" d="M 0 11 L 16 11" stroke="#7cb5ec" stroke-width="2"></path><text x="21" style="color:#333333;font-size:12px;font-weight:bold;cursor:pointer;fill:#333333;" text-anchor="start"  y="15"><tspan>Regression Line</tspan></text></g><g class="highcharts-legend-item"  transform="translate(145,3)"><path fill="#434348" d="M 8 7 L 12 11 8 15 4 11 Z"></path><text x="21" y="15" style="color:#333333;font-size:12px;font-weight:bold;cursor:pointer;fill:#333333;" text-anchor="start" >Observations</text></g></g></g></g><g class="highcharts-axis-labels highcharts-xaxis-labels" ><text x="98.2" style="color:#606060;cursor:default;font-size:11px;fill:#606060;width:84px;text-overflow:clip;" text-anchor="middle" transform="translate(0,0)" y="346" opacity="1">0</text><text x="184.7" style="color:#606060;cursor:default;font-size:11px;fill:#606060;width:84px;text-overflow:clip;" text-anchor="middle" transform="translate(0,0)" y="346" opacity="1">1</text><text x="271.2" style="color:#606060;cursor:default;font-size:11px;fill:#606060;width:84px;text-overflow:clip;" text-anchor="middle" transform="translate(0,0)" y="346" opacity="1">2</text><text x="357.7" style="color:#606060;cursor:default;font-size:11px;fill:#606060;width:84px;text-overflow:clip;" text-anchor="middle" transform="translate(0,0)" y="346" opacity="1">3</text><text x="444.2" style="color:#606060;cursor:default;font-size:11px;fill:#606060;width:84px;text-overflow:clip;" text-anchor="middle" transform="translate(0,0)" y="346" opacity="1">4</text><text x="530.7" style="color:#606060;cursor:default;font-size:11px;fill:#606060;width:84px;text-overflow:clip;" text-anchor="middle" transform="translate(0,0)" y="346" opacity="1">5</text></g><g class="highcharts-axis-labels highcharts-yaxis-labels" ><text x="40" style="color:#606060;cursor:default;font-size:11px;fill:#606060;width:183px;text-overflow:clip;" text-anchor="end" transform="translate(0,0)" y="332" opacity="1">0</text><text x="40" style="color:#606060;cursor:default;font-size:11px;fill:#606060;width:183px;text-overflow:clip;" text-anchor="end" transform="translate(0,0)" y="276" opacity="1">1</text><text x="40" style="color:#606060;cursor:default;font-size:11px;fill:#606060;width:183px;text-overflow:clip;" text-anchor="end" transform="translate(0,0)" y="220" opacity="1">2</text><text x="40" style="color:#606060;cursor:default;font-size:11px;fill:#606060;width:183px;text-overflow:clip;" text-anchor="end" transform="translate(0,0)" y="164" opacity="1">3</text><text x="40" style="color:#606060;cursor:default;font-size:11px;fill:#606060;width:183px;text-overflow:clip;" text-anchor="end" transform="translate(0,0)" y="108" opacity="1">4</text><text x="40" style="color:#606060;cursor:default;font-size:11px;fill:#606060;width:183px;text-overflow:clip;" text-anchor="end" transform="translate(0,0)" y="52" opacity="1">5</text></g><g class="highcharts-tooltip"  style="cursor:default;padding:0;white-space:nowrap;" transform="translate(0,-9999)"><path fill="none" d="M 3 0 L 13 0 C 16 0 16 0 16 3 L 16 13 C 16 16 16 16 13 16 L 3 16 C 0 16 0 16 0 13 L 0 3 C 0 0 0 0 3 0"  stroke="black" stroke-opacity="0.0" stroke-width="5" transform="translate(1, 1)"></path><path fill="none" d="M 3 0 L 13 0 C 16 0 16 0 16 3 L 16 13 C 16 16 16 16 13 16 L 3 16 C 0 16 0 16 0 13 L 0 3 C 0 0 0 0 3 0"  stroke="black" stroke-opacity="0.0" stroke-width="3" transform="translate(1, 1)"></path><path fill="none" d="M 3 0 L 13 0 C 16 0 16 0 16 3 L 16 13 C 16 16 16 16 13 16 L 3 16 C 0 16 0 16 0 13 L 0 3 C 0 0 0 0 3 0"  stroke="black" stroke-opacity="0.1" stroke-width="1" transform="translate(1, 1)"></path><path fill="rgb(249, 249, 249)" fill-opacity=" .85" d="M 3 0 L 13 0 C 16 0 16 0 16 3 L 16 13 C 16 16 16 16 13 16 L 3 16 C 0 16 0 16 0 13 L 0 3 C 0 0 0 0 3 0"></path><text x="8"  style="font-size:12px;color:#333333;fill:#333333;" transform="translate(0,20)"></text></g></svg>