<svg version="1.1" style="font-family:&quot;lucida grande&quot;, &quot;lucida sans unicode&quot;, arial, helvetica, sans-serif;font-size:12px;" xmlns="http://www.w3.org/2000/svg" width="584" height="400" viewBox="0 0 584 400"><desc>Created with Highcharts 4.1.4</desc><defs><clipPath id="highcharts-1"><rect x="0" y="0" width="509" height="280"></rect></clipPath><clipPath id="highcharts-2"><rect x="-99" y="-47" width="608" height="400"></rect></clipPath><clipPath id="highcharts-3"><rect x="0" y="0" width="509" height="280"></rect></clipPath></defs><rect x="0" y="0" width="584" height="400" strokeWidth="0" fill="#FFFFFF" class=" highcharts-background" stroke="transparent"></rect><g class="highcharts-grid" ></g><g class="highcharts-grid" ><path fill="none" d="M 65 327.5 L 574 327.5" stroke="#D8D8D8" stroke-width="1"  opacity="1"></path><path fill="none" d="M 65 257.5 L 574 257.5" stroke="#D8D8D8" stroke-width="1"  opacity="1"></path><path fill="none" d="M 65 187.5 L 574 187.5" stroke="#D8D8D8" stroke-width="1"  opacity="1"></path><path fill="none" d="M 65 117.5 L 574 117.5" stroke="#D8D8D8" stroke-width="1"  opacity="1"></path><path fill="none" d="M 65 46.5 L 574 46.5" stroke="#D8D8D8" stroke-width="1"  opacity="1"></path></g><g class="highcharts-axis" ><path fill="none" d="M 166.5 327 L 166.5 337" stroke="#C0D0E0" stroke-width="1" opacity="1"></path><path fill="none" d="M 268.5 327 L 268.5 337" stroke="#C0D0E0" stroke-width="1" opacity="1"></path><path fill="none" d="M 369.5 327 L 369.5 337" stroke="#C0D0E0" stroke-width="1" opacity="1"></path><path fill="none" d="M 471.5 327 L 471.5 337" stroke="#C0D0E0" stroke-width="1" opacity="1"></path><path fill="none" d="M 574.5 327 L 574.5 337" stroke="#C0D0E0" stroke-width="1" opacity="1"></path><path fill="none" d="M 64.5 327 L 64.5 337" stroke="#C0D0E0" stroke-width="1" opacity="1"></path><path fill="none" d="M 65 327.5 L 574 327.5" stroke="#C0D0E0" stroke-width="1"  visibility="visible"></path></g><g class="highcharts-axis" ><text x="24"  text-anchor="middle" transform="translate(0,0) rotate(270 24 187)" class=" highcharts-yaxis-title" style="color:#707070;fill:#707070;" visibility="visible" y="187">Values</text></g><text x="115" y="77"  style="position:absolute;color:black;fill:black;"><tspan>Total fruit consumption</tspan></text><g class="highcharts-series-group" ><g class="highcharts-series highcharts-tracker" visibility="visible"  transform="translate(65,47) scale(1 1)" style="" clip-path="url(#highcharts-1)"><rect x="21.5" y="196.5" width="17" height="84" stroke="#FFFFFF" stroke-width="1" fill="#7cb5ec" rx="0" ry="0"></rect><rect x="123.5" y="224.5" width="17" height="56" stroke="#FFFFFF" stroke-width="1" fill="#7cb5ec" rx="0" ry="0"></rect><rect x="225.5" y="252.5" width="17" height="28" stroke="#FFFFFF" stroke-width="1" fill="#7cb5ec" rx="0" ry="0"></rect><rect x="327.5" y="196.5" width="17" height="84" stroke="#FFFFFF" stroke-width="1" fill="#7cb5ec" rx="0" ry="0"></rect><rect x="429.5" y="168.5" width="17" height="112" stroke="#FFFFFF" stroke-width="1" fill="#7cb5ec" rx="0" ry="0"></rect></g><g class="highcharts-markers" visibility="visible"  transform="translate(65,47) scale(1 1)"></g><g class="highcharts-series highcharts-tracker" visibility="visible"  transform="translate(65,47) scale(1 1)" style="" clip-path="url(#highcharts-1)"><rect x="42.5" y="224.5" width="17" height="56" stroke="#FFFFFF" stroke-width="1" fill="#434348" rx="0" ry="0"></rect><rect x="144.5" y="196.5" width="17" height="84" stroke="#FFFFFF" stroke-width="1" fill="#434348" rx="0" ry="0"></rect><rect x="245.5" y="140.5" width="17" height="140" stroke="#FFFFFF" stroke-width="1" fill="#434348" rx="0" ry="0"></rect><rect x="347.5" y="84.5" width="17" height="196" stroke="#FFFFFF" stroke-width="1" fill="#434348" rx="0" ry="0"></rect><rect x="449.5" y="112.5" width="17" height="168" stroke="#FFFFFF" stroke-width="1" fill="#434348" rx="0" ry="0"></rect></g><g class="highcharts-markers" visibility="visible"  transform="translate(65,47) scale(1 1)"></g><g class="highcharts-series highcharts-tracker" visibility="visible"  transform="translate(65,47) scale(1 1)" style="" clip-path="url(#highcharts-1)"><rect x="62.5" y="168.5" width="17" height="112" stroke="#FFFFFF" stroke-width="1" fill="#90ed7d" rx="0" ry="0"></rect><rect x="164.5" y="196.5" width="17" height="84" stroke="#FFFFFF" stroke-width="1" fill="#90ed7d" rx="0" ry="0"></rect><rect x="266.5" y="196.5" width="17" height="84" stroke="#FFFFFF" stroke-width="1" fill="#90ed7d" rx="0" ry="0"></rect><rect x="368.5" y="28.5" width="17" height="252" stroke="#FFFFFF" stroke-width="1" fill="#90ed7d" rx="0" ry="0"></rect><rect x="469.5" y="280.5" width="17" height="0" stroke="#FFFFFF" stroke-width="1" fill="#90ed7d" rx="0" ry="0"></rect></g><g class="highcharts-markers" visibility="visible"  transform="translate(65,47) scale(1 1)"></g><g class="highcharts-series" visibility="visible"  transform="translate(65,47) scale(1 1)" clip-path="url(#highcharts-3)"><path fill="none" d="M 50.9 196 C 50.9 196 111.9 205.2 152.7 205.2 C 193.4 205.2 213.7 205.2 254.5 196 C 295.2 186.7 315.5 102.7 356.2 102.7 C 397.0 102.7 458.0 186.7 458.0 186.7" stroke="#f7a35c" stroke-width="2"  stroke-linejoin="round" stroke-linecap="round"></path><path fill="none" d="M 40.9 196 L 50.9 196 C 50.9 196 111.9 205.2 152.7 205.2 C 193.4 205.2 213.7 205.2 254.5 196 C 295.2 186.7 315.5 102.7 356.2 102.7 C 397.0 102.7 458.0 186.7 458.0 186.7 L 468.0 186.7" stroke-linejoin="round" visibility="visible" stroke="rgb(192,192,192)" stroke-opacity="0.0" stroke-width="22"  class=" highcharts-tracker" style=""></path></g><g class="highcharts-markers highcharts-tracker" visibility="visible"  transform="translate(65,47) scale(1 1)" clip-path="url(#highcharts-2)" style=""><path fill="white" d="M 458 182.7 C 463.3 182.7 463.3 190.7 458 190.7 C 452.6 190.7 452.6 182.7 458 182.7 Z" stroke="#f7a35c" stroke-width="2"></path><path fill="white" d="M 356 98.7 C 361.3 98.7 361.3 106.7 356 106.7 C 350.6 106.7 350.6 98.7 356 98.7 Z" stroke="#f7a35c" stroke-width="2"></path><path fill="white" d="M 254 192 C 259.3 192 259.3 200 254 200 C 248.6 200 248.6 192 254 192 Z" stroke="#f7a35c" stroke-width="2"></path><path fill="white" d="M 152 201.2 C 157.3 201.2 157.3 209.2 152 209.2 C 146.6 209.2 146.6 201.2 152 201.2 Z" stroke="#f7a35c" stroke-width="2"></path><path fill="white" d="M 50 192 C 55.3 192 55.3 200 50 200 C 44.6 200 44.6 192 50 192 Z" stroke="#f7a35c" stroke-width="2"></path></g><g class="highcharts-series highcharts-tracker" visibility="visible"  transform="translate(65,47) scale(1 1)" style=""><path fill="#7cb5ec" d="M 119.9 50.0 A 50 50 0 0 1 169.8 95.6 L 120 100 A 0 0 0 0 0 120 100 Z" stroke="#FFFFFF" stroke-width="1" stroke-linejoin="round" transform="translate(0,0)"></path><path fill="#434348" d="M 169.8 95.7 A 50 50 0 0 1 78.7 128.2 L 120 100 A 0 0 0 0 0 120 100 Z" stroke="#FFFFFF" stroke-width="1" stroke-linejoin="round" transform="translate(0,0)"></path><path fill="#90ed7d" d="M 78.7 128.2 A 50 50 0 0 1 119.9 50.0 L 120 100 A 0 0 0 0 0 120 100 Z" stroke="#FFFFFF" stroke-width="1" stroke-linejoin="round" transform="translate(0,0)"></path></g><g class="highcharts-markers" visibility="visible"  transform="translate(65,47) scale(1 1)"></g></g><text x="292" text-anchor="middle" class="highcharts-title"  style="color:#333333;font-size:18px;fill:#333333;width:520px;" y="24"><tspan>Combination chart</tspan></text><g class="highcharts-legend"  transform="translate(148,360)"><g ><g><g class="highcharts-legend-item"  transform="translate(8,3)"><text x="21" style="color:#333333;font-size:12px;font-weight:bold;cursor:pointer;fill:#333333;" text-anchor="start"  y="15">Jane</text><rect x="0" y="4" width="16" height="12"  fill="#7cb5ec"></rect></g><g class="highcharts-legend-item"  transform="translate(77,3)"><text x="21" y="15" style="color:#333333;font-size:12px;font-weight:bold;cursor:pointer;fill:#333333;" text-anchor="start" >John</text><rect x="0" y="4" width="16" height="12"  fill="#434348"></rect></g><g class="highcharts-legend-item"  transform="translate(148,3)"><text x="21" y="15" style="color:#333333;font-size:12px;font-weight:bold;cursor:pointer;fill:#333333;" text-anchor="start" >Joe</text><rect x="0" y="4" width="16" height="12"  fill="#90ed7d"></rect></g><g class="highcharts-legend-item"  transform="translate(210,3)"><path fill="none" d="M 0 11 L 16 11" stroke="#f7a35c" stroke-width="2"></path><path fill="white" d="M 8 7 C 13.3 7 13.3 15 8 15 C 2.6 15 2.6 7 8 7 Z" stroke="#f7a35c" stroke-width="2"></path><text x="21" y="15" style="color:#333333;font-size:12px;font-weight:bold;cursor:pointer;fill:#333333;" text-anchor="start" >Average</text></g></g></g></g><g class="highcharts-axis-labels highcharts-xaxis-labels" ><text x="115.9" style="color:#606060;cursor:default;font-size:11px;fill:#606060;width:103px;text-overflow:clip;" text-anchor="middle" transform="translate(0,0)" y="346" opacity="1">Apples</text><text x="217.7" style="color:#606060;cursor:default;font-size:11px;fill:#606060;width:103px;text-overflow:clip;" text-anchor="middle" transform="translate(0,0)" y="346" opacity="1">Oranges</text><text x="319.5" style="color:#606060;cursor:default;font-size:11px;fill:#606060;width:103px;text-overflow:clip;" text-anchor="middle" transform="translate(0,0)" y="346" opacity="1">Pears</text><text x="421.3" style="color:#606060;cursor:default;font-size:11px;fill:#606060;width:103px;text-overflow:clip;" text-anchor="middle" transform="translate(0,0)" y="346" opacity="1">Bananas</text><text x="523.1" style="color:#606060;cursor:default;font-size:11px;fill:#606060;width:103px;text-overflow:clip;" text-anchor="middle" transform="translate(0,0)" y="346" opacity="1">Plums</text></g><g class="highcharts-axis-labels highcharts-yaxis-labels" ><text x="50" style="color:#606060;cursor:default;font-size:11px;fill:#606060;width:183px;text-overflow:clip;" text-anchor="end" transform="translate(0,0)" y="332" opacity="1">0</text><text x="50" style="color:#606060;cursor:default;font-size:11px;fill:#606060;width:183px;text-overflow:clip;" text-anchor="end" transform="translate(0,0)" y="262" opacity="1">2.5</text><text x="50" style="color:#606060;cursor:default;font-size:11px;fill:#606060;width:183px;text-overflow:clip;" text-anchor="end" transform="translate(0,0)" y="192" opacity="1">5</text><text x="50" style="color:#606060;cursor:default;font-size:11px;fill:#606060;width:183px;text-overflow:clip;" text-anchor="end" transform="translate(0,0)" y="122" opacity="1">7.5</text><text x="50" style="color:#606060;cursor:default;font-size:11px;fill:#606060;width:183px;text-overflow:clip;" text-anchor="end" transform="translate(0,0)" y="52" opacity="1">10</text></g><g class="highcharts-tooltip"  style="cursor:default;padding:0;white-space:nowrap;" transform="translate(0,-9999)"><path fill="none" d="M 3 0 L 13 0 C 16 0 16 0 16 3 L 16 13 C 16 16 16 16 13 16 L 3 16 C 0 16 0 16 0 13 L 0 3 C 0 0 0 0 3 0"  stroke="black" stroke-opacity="0.0" stroke-width="5" transform="translate(1, 1)"></path><path fill="none" d="M 3 0 L 13 0 C 16 0 16 0 16 3 L 16 13 C 16 16 16 16 13 16 L 3 16 C 0 16 0 16 0 13 L 0 3 C 0 0 0 0 3 0"  stroke="black" stroke-opacity="0.0" stroke-width="3" transform="translate(1, 1)"></path><path fill="none" d="M 3 0 L 13 0 C 16 0 16 0 16 3 L 16 13 C 16 16 16 16 13 16 L 3 16 C 0 16 0 16 0 13 L 0 3 C 0 0 0 0 3 0"  stroke="black" stroke-opacity="0.1" stroke-width="1" transform="translate(1, 1)"></path><path fill="rgb(249, 249, 249)" fill-opacity=" .85" d="M 3 0 L 13 0 C 16 0 16 0 16 3 L 16 13 C 16 16 16 16 13 16 L 3 16 C 0 16 0 16 0 13 L 0 3 C 0 0 0 0 3 0"></path><text x="8"  style="font-size:12px;color:#333333;fill:#333333;" transform="translate(0,20)"></text></g></svg>