<svg version="1.1" style="font-family:&quot;lucida grande&quot;, &quot;lucida sans unicode&quot;, arial, helvetica, sans-serif;font-size:12px;" xmlns="http://www.w3.org/2000/svg" width="584" height="400" viewBox="0 0 584 400"><desc>Created with Highcharts 4.1.4</desc><defs><clipPath id="highcharts-1"><rect x="0" y="0" width="425" height="303"></rect></clipPath><clipPath id="highcharts-2"><rect x="-99" y="-61" width="524" height="400"></rect></clipPath><clipPath id="highcharts-3"><rect x="0" y="0" width="425" height="303"></rect></clipPath></defs><rect x="0" y="0" width="584" height="400" strokeWidth="0" fill="#FFFFFF" class=" highcharts-background" stroke="transparent"></rect><g class="highcharts-grid" ></g><g class="highcharts-grid" ><path fill="none" d="M 73 364.5 L 498 364.5" stroke="#D8D8D8" stroke-width="1"  opacity="1"></path><path fill="none" d="M 73 303.5 L 498 303.5" stroke="#D8D8D8" stroke-width="1"  opacity="1"></path><path fill="none" d="M 73 243.5 L 498 243.5" stroke="#D8D8D8" stroke-width="1"  opacity="1"></path><path fill="none" d="M 73 182.5 L 498 182.5" stroke="#D8D8D8" stroke-width="1"  opacity="1"></path><path fill="none" d="M 73 122.5 L 498 122.5" stroke="#D8D8D8" stroke-width="1"  opacity="1"></path><path fill="none" d="M 73 60.5 L 498 60.5" stroke="#D8D8D8" stroke-width="1"  opacity="1"></path></g><g class="highcharts-grid" ><path fill="none" d="M 73 364.5 L 498 364.5" stroke="#D8D8D8" stroke-width="1"  opacity="1"></path><path fill="none" d="M 73 303.5 L 498 303.5" stroke="#D8D8D8" stroke-width="1"  opacity="1"></path><path fill="none" d="M 73 243.5 L 498 243.5" stroke="#D8D8D8" stroke-width="1"  opacity="1"></path><path fill="none" d="M 73 182.5 L 498 182.5" stroke="#D8D8D8" stroke-width="1"  opacity="1"></path><path fill="none" d="M 73 122.5 L 498 122.5" stroke="#D8D8D8" stroke-width="1"  opacity="1"></path><path fill="none" d="M 73 60.5 L 498 60.5" stroke="#D8D8D8" stroke-width="1"  opacity="1"></path></g><g class="highcharts-axis" ><path fill="none" d="M 107.5 364 L 107.5 374" stroke="#C0D0E0" stroke-width="1" opacity="1"></path><path fill="none" d="M 143.5 364 L 143.5 374" stroke="#C0D0E0" stroke-width="1" opacity="1"></path><path fill="none" d="M 178.5 364 L 178.5 374" stroke="#C0D0E0" stroke-width="1" opacity="1"></path><path fill="none" d="M 214.5 364 L 214.5 374" stroke="#C0D0E0" stroke-width="1" opacity="1"></path><path fill="none" d="M 249.5 364 L 249.5 374" stroke="#C0D0E0" stroke-width="1" opacity="1"></path><path fill="none" d="M 285.5 364 L 285.5 374" stroke="#C0D0E0" stroke-width="1" opacity="1"></path><path fill="none" d="M 320.5 364 L 320.5 374" stroke="#C0D0E0" stroke-width="1" opacity="1"></path><path fill="none" d="M 355.5 364 L 355.5 374" stroke="#C0D0E0" stroke-width="1" opacity="1"></path><path fill="none" d="M 391.5 364 L 391.5 374" stroke="#C0D0E0" stroke-width="1" opacity="1"></path><path fill="none" d="M 426.5 364 L 426.5 374" stroke="#C0D0E0" stroke-width="1" opacity="1"></path><path fill="none" d="M 462.5 364 L 462.5 374" stroke="#C0D0E0" stroke-width="1" opacity="1"></path><path fill="none" d="M 497.5 364 L 497.5 374" stroke="#C0D0E0" stroke-width="1" opacity="1"></path><path fill="none" d="M 72.5 364 L 72.5 374" stroke="#C0D0E0" stroke-width="1" opacity="1"></path><path fill="none" d="M 73 364.5 L 498 364.5" stroke="#C0D0E0" stroke-width="1"  visibility="visible"></path></g><g class="highcharts-axis" ><text x="24"  text-anchor="middle" transform="translate(0,0) rotate(270 24 212.5)" class=" highcharts-yaxis-title" style="color:#434348;fill:#434348;" visibility="visible" y="212.5">Temperature</text></g><g class="highcharts-axis" ><text x="560"  text-anchor="middle" transform="translate(0,0) rotate(90 560 212.5)" class=" highcharts-yaxis-title" style="color:#7cb5ec;fill:#7cb5ec;" visibility="visible" y="212.5">Rainfall</text></g><g class="highcharts-series-group" ><g class="highcharts-series highcharts-tracker" visibility="visible"  transform="translate(73,61) scale(1 1)" style="" clip-path="url(#highcharts-1)"><rect x="8.5" y="243.5" width="17" height="60" stroke="#FFFFFF" stroke-width="1" fill="#7cb5ec" rx="0" ry="0"></rect><rect x="44.5" y="216.5" width="17" height="87" stroke="#FFFFFF" stroke-width="1" fill="#7cb5ec" rx="0" ry="0"></rect><rect x="79.5" y="174.5" width="17" height="129" stroke="#FFFFFF" stroke-width="1" fill="#7cb5ec" rx="0" ry="0"></rect><rect x="114.5" y="146.5" width="17" height="157" stroke="#FFFFFF" stroke-width="1" fill="#7cb5ec" rx="0" ry="0"></rect><rect x="150.5" y="128.5" width="17" height="175" stroke="#FFFFFF" stroke-width="1" fill="#7cb5ec" rx="0" ry="0"></rect><rect x="185.5" y="90.5" width="17" height="213" stroke="#FFFFFF" stroke-width="1" fill="#7cb5ec" rx="0" ry="0"></rect><rect x="221.5" y="139.5" width="17" height="164" stroke="#FFFFFF" stroke-width="1" fill="#7cb5ec" rx="0" ry="0"></rect><rect x="256.5" y="123.5" width="17" height="180" stroke="#FFFFFF" stroke-width="1" fill="#7cb5ec" rx="0" ry="0"></rect><rect x="292.5" y="41.5" width="17" height="262" stroke="#FFFFFF" stroke-width="1" fill="#7cb5ec" rx="0" ry="0"></rect><rect x="327.5" y="68.5" width="17" height="235" stroke="#FFFFFF" stroke-width="1" fill="#7cb5ec" rx="0" ry="0"></rect><rect x="362.5" y="187.5" width="17" height="116" stroke="#FFFFFF" stroke-width="1" fill="#7cb5ec" rx="0" ry="0"></rect><rect x="398.5" y="237.5" width="17" height="66" stroke="#FFFFFF" stroke-width="1" fill="#7cb5ec" rx="0" ry="0"></rect></g><g class="highcharts-markers" visibility="visible"  transform="translate(73,61) scale(1 1)"></g><g class="highcharts-series" visibility="visible"  transform="translate(73,61) scale(1 1)" clip-path="url(#highcharts-3)"><path fill="none" d="M 17.7 278.7 C 17.7 278.7 38.9 279.9 53.1 279.9 C 67.2 279.9 74.3 266.8 88.5 248.4 C 102.7 230.0 109.7 208.9 123.9 187.8 C 138.1 166.7 145.2 159.9 159.3 143.0 C 173.5 126.0 180.6 119.9 194.7 103.0 C 208.9 86.0 216.0 70.2 230.2 58.1 C 244.3 46.0 251.4 42.4 265.6 42.4 C 279.7 42.4 286.8 61.3 301.0 81.2 C 315.2 101.0 322.2 119.0 336.4 141.8 C 350.6 164.5 357.7 174.0 371.8 195.1 C 386.0 216.2 407.2 247.2 407.2 247.2" stroke="#434348" stroke-width="2"  stroke-linejoin="round" stroke-linecap="round"></path><path fill="none" d="M 7.7 278.7 L 17.7 278.7 C 17.7 278.7 38.9 279.9 53.1 279.9 C 67.2 279.9 74.3 266.8 88.5 248.4 C 102.7 230.0 109.7 208.9 123.9 187.8 C 138.1 166.7 145.2 159.9 159.3 143.0 C 173.5 126.0 180.6 119.9 194.7 103.0 C 208.9 86.0 216.0 70.2 230.2 58.1 C 244.3 46.0 251.4 42.4 265.6 42.4 C 279.7 42.4 286.8 61.3 301.0 81.2 C 315.2 101.0 322.2 119.0 336.4 141.8 C 350.6 164.5 357.7 174.0 371.8 195.1 C 386.0 216.2 407.2 247.2 407.2 247.2 L 417.2 247.2" stroke-linejoin="round" visibility="visible" stroke="rgb(192,192,192)" stroke-opacity="0.0" stroke-width="22"  class=" highcharts-tracker" style=""></path></g><g class="highcharts-markers highcharts-tracker" visibility="visible"  transform="translate(73,61) scale(1 1)" clip-path="url(#highcharts-2)" style=""><path fill="#434348" d="M 407 243.2 C 412.3 243.2 412.3 251.2 407 251.2 C 401.6 251.2 401.6 243.2 407 243.2 Z"></path><path fill="#434348" d="M 371 191.1 C 376.3 191.1 376.3 199.1 371 199.1 C 365.6 199.1 365.6 191.1 371 191.1 Z"></path><path fill="#434348" d="M 336 137.8 C 341.3 137.8 341.3 145.8 336 145.8 C 330.6 145.8 330.6 137.8 336 137.8 Z"></path><path fill="#434348" d="M 301 77.2 C 306.3 77.2 306.3 85.2 301 85.2 C 295.6 85.2 295.6 77.2 301 77.2 Z"></path><path fill="#434348" d="M 265 38.4 C 270.3 38.4 270.3 46.4 265 46.4 C 259.6 46.4 259.6 38.4 265 38.4 Z"></path><path fill="#434348" d="M 230 54.1 C 235.3 54.1 235.3 62.1 230 62.1 C 224.6 62.1 224.6 54.1 230 54.1 Z"></path><path fill="#434348" d="M 194 99.0 C 199.3 99.0 199.3 107.0 194 107.0 C 188.6 107.0 188.6 99.0 194 99.0 Z"></path><path fill="#434348" d="M 159 139.0 C 164.3 139.0 164.3 147.0 159 147.0 C 153.6 147.0 153.6 139.0 159 139.0 Z"></path><path fill="#434348" d="M 123 183.8 C 128.3 183.8 128.3 191.8 123 191.8 C 117.6 191.8 117.6 183.8 123 183.8 Z"></path><path fill="#434348" d="M 88 244.4 C 93.3 244.4 93.3 252.4 88 252.4 C 82.6 252.4 82.6 244.4 88 244.4 Z"></path><path fill="#434348" d="M 53 275.9 C 58.3 275.9 58.3 283.9 53 283.9 C 47.6 283.9 47.6 275.9 53 275.9 Z"></path><path fill="#434348" d="M 17 274.7 C 22.3 274.7 22.3 282.7 17 282.7 C 11.6 282.7 11.6 274.7 17 274.7 Z"></path></g></g><text x="292" text-anchor="middle" class="highcharts-title"  style="color:#333333;font-size:18px;fill:#333333;width:520px;" y="24"><tspan>Average Monthly Temperature and Rainfall in Tokyo</tspan></text><text x="292" text-anchor="middle" class="highcharts-subtitle"  style="color:#555555;fill:#555555;width:520px;" y="46"><tspan>Source: WorldClimate.com</tspan></text><g class="highcharts-legend"  transform="translate(130,110)"><rect x="0" y="0" width="115" height="39" strokeWidth="0" fill="#FFFFFF" visibility="visible"></rect><g ><g><g class="highcharts-legend-item"  transform="translate(8,3)"><text x="21" style="color:#333333;font-size:12px;font-weight:bold;cursor:pointer;fill:#333333;" text-anchor="start"  y="15">Rainfall</text><rect x="0" y="4" width="16" height="12"  fill="#7cb5ec"></rect></g><g class="highcharts-legend-item"  transform="translate(8,17)"><path fill="none" d="M 0 11 L 16 11" stroke="#434348" stroke-width="2"></path><path fill="#434348" d="M 8 7 C 13.3 7 13.3 15 8 15 C 2.6 15 2.6 7 8 7 Z"></path><text x="21" y="15" style="color:#333333;font-size:12px;font-weight:bold;cursor:pointer;fill:#333333;" text-anchor="start" >Temperature</text></g></g></g></g><g class="highcharts-axis-labels highcharts-xaxis-labels" ><text x="90.7" style="color:#606060;cursor:default;font-size:11px;fill:#606060;" text-anchor="middle" transform="translate(0,0)" y="383" opacity="1">Jan</text><text x="126.1" style="color:#606060;cursor:default;font-size:11px;fill:#606060;" text-anchor="middle" transform="translate(0,0)" y="383" opacity="1">Feb</text><text x="161.5" style="color:#606060;cursor:default;font-size:11px;fill:#606060;" text-anchor="middle" transform="translate(0,0)" y="383" opacity="1">Mar</text><text x="196.9" style="color:#606060;cursor:default;font-size:11px;fill:#606060;" text-anchor="middle" transform="translate(0,0)" y="383" opacity="1">Apr</text><text x="232.3" style="color:#606060;cursor:default;font-size:11px;fill:#606060;" text-anchor="middle" transform="translate(0,0)" y="383" opacity="1">May</text><text x="267.7" style="color:#606060;cursor:default;font-size:11px;fill:#606060;" text-anchor="middle" transform="translate(0,0)" y="383" opacity="1">Jun</text><text x="303.2" style="color:#606060;cursor:default;font-size:11px;fill:#606060;" text-anchor="middle" transform="translate(0,0)" y="383" opacity="1">Jul</text><text x="338.6" style="color:#606060;cursor:default;font-size:11px;fill:#606060;" text-anchor="middle" transform="translate(0,0)" y="383" opacity="1">Aug</text><text x="374.0" style="color:#606060;cursor:default;font-size:11px;fill:#606060;" text-anchor="middle" transform="translate(0,0)" y="383" opacity="1">Sep</text><text x="409.4" style="color:#606060;cursor:default;font-size:11px;fill:#606060;" text-anchor="middle" transform="translate(0,0)" y="383" opacity="1">Oct</text><text x="444.8" style="color:#606060;cursor:default;font-size:11px;fill:#606060;" text-anchor="middle" transform="translate(0,0)" y="383" opacity="1">Nov</text><text x="480.2" style="color:#606060;cursor:default;font-size:11px;fill:#606060;" text-anchor="middle" transform="translate(0,0)" y="383" opacity="1">Dec</text></g><g class="highcharts-axis-labels highcharts-yaxis-labels" ><text x="58" style="color:#434348;cursor:default;font-size:11px;fill:#434348;width:183px;text-overflow:clip;" text-anchor="end" transform="translate(0,0)" y="369" opacity="1">5°C</text><text x="58" style="color:#434348;cursor:default;font-size:11px;fill:#434348;width:183px;text-overflow:clip;" text-anchor="end" transform="translate(0,0)" y="308" opacity="1">10°C</text><text x="58" style="color:#434348;cursor:default;font-size:11px;fill:#434348;width:183px;text-overflow:clip;" text-anchor="end" transform="translate(0,0)" y="247" opacity="1">15°C</text><text x="58" style="color:#434348;cursor:default;font-size:11px;fill:#434348;width:183px;text-overflow:clip;" text-anchor="end" transform="translate(0,0)" y="187" opacity="1">20°C</text><text x="58" style="color:#434348;cursor:default;font-size:11px;fill:#434348;width:183px;text-overflow:clip;" text-anchor="end" transform="translate(0,0)" y="126" opacity="1">25°C</text><text x="58" style="color:#434348;cursor:default;font-size:11px;fill:#434348;width:183px;text-overflow:clip;" text-anchor="end" transform="translate(0,0)" y="66" opacity="1">30°C</text></g><g class="highcharts-axis-labels highcharts-yaxis-labels" ><text x="513" style="color:#7cb5ec;cursor:default;font-size:11px;fill:#7cb5ec;width:183px;text-overflow:clip;" text-anchor="start" transform="translate(0,0)" y="369" opacity="1"><tspan>0 mm</tspan></text><text x="513" style="color:#7cb5ec;cursor:default;font-size:11px;fill:#7cb5ec;width:183px;text-overflow:clip;" text-anchor="start" transform="translate(0,0)" y="308" opacity="1"><tspan>50 mm</tspan></text><text x="513" style="color:#7cb5ec;cursor:default;font-size:11px;fill:#7cb5ec;width:183px;text-overflow:clip;" text-anchor="start" transform="translate(0,0)" y="247" opacity="1"><tspan>100 mm</tspan></text><text x="513" style="color:#7cb5ec;cursor:default;font-size:11px;fill:#7cb5ec;width:183px;text-overflow:clip;" text-anchor="start" transform="translate(0,0)" y="187" opacity="1"><tspan>150 mm</tspan></text><text x="513" style="color:#7cb5ec;cursor:default;font-size:11px;fill:#7cb5ec;width:183px;text-overflow:clip;" text-anchor="start" transform="translate(0,0)" y="126" opacity="1"><tspan>200 mm</tspan></text><text x="513" style="color:#7cb5ec;cursor:default;font-size:11px;fill:#7cb5ec;width:183px;text-overflow:clip;" text-anchor="start" transform="translate(0,0)" y="66" opacity="1"><tspan>250 mm</tspan></text></g><g class="highcharts-tooltip"  style="cursor:default;padding:0;white-space:nowrap;" transform="translate(0,-9999)"><path fill="none" d="M 3 0 L 13 0 C 16 0 16 0 16 3 L 16 13 C 16 16 16 16 13 16 L 3 16 C 0 16 0 16 0 13 L 0 3 C 0 0 0 0 3 0"  stroke="black" stroke-opacity="0.0" stroke-width="5" transform="translate(1, 1)"></path><path fill="none" d="M 3 0 L 13 0 C 16 0 16 0 16 3 L 16 13 C 16 16 16 16 13 16 L 3 16 C 0 16 0 16 0 13 L 0 3 C 0 0 0 0 3 0"  stroke="black" stroke-opacity="0.0" stroke-width="3" transform="translate(1, 1)"></path><path fill="none" d="M 3 0 L 13 0 C 16 0 16 0 16 3 L 16 13 C 16 16 16 16 13 16 L 3 16 C 0 16 0 16 0 13 L 0 3 C 0 0 0 0 3 0"  stroke="black" stroke-opacity="0.1" stroke-width="1" transform="translate(1, 1)"></path><path fill="rgb(249, 249, 249)" fill-opacity=" .85" d="M 3 0 L 13 0 C 16 0 16 0 16 3 L 16 13 C 16 16 16 16 13 16 L 3 16 C 0 16 0 16 0 13 L 0 3 C 0 0 0 0 3 0"></path><text x="8"  style="font-size:12px;color:#333333;fill:#333333;" transform="translate(0,20)"></text></g></svg>