<svg version="1.1" style="font-family:&quot;lucida grande&quot;, &quot;lucida sans unicode&quot;, arial, helvetica, sans-serif;font-size:12px;" xmlns="http://www.w3.org/2000/svg" width="584" height="400" viewBox="0 0 584 400"><desc>Created with Highcharts 4.1.4</desc><defs><clipPath id="highcharts-1"><rect x="0" y="0" width="509" height="317"></rect></clipPath><clipPath id="highcharts-2"><rect x="-99" y="-47" width="608" height="400"></rect></clipPath><clipPath id="highcharts-3"><rect x="0" y="0" width="509" height="317"></rect></clipPath></defs><rect x="0" y="0" width="584" height="400" strokeWidth="0" fill="#FFFFFF" class=" highcharts-background"></rect><path fill="none" d="M 65 364.5 L 574 364.5" stroke="#808080" stroke-width="1"></path><g class="highcharts-grid" ></g><g class="highcharts-grid" ><path fill="none" d="M 65 364.5 L 574 364.5" stroke="#D8D8D8" stroke-width="1"  opacity="1"></path><path fill="none" d="M 65 301.5 L 574 301.5" stroke="#D8D8D8" stroke-width="1"  opacity="1"></path><path fill="none" d="M 65 237.5 L 574 237.5" stroke="#D8D8D8" stroke-width="1"  opacity="1"></path><path fill="none" d="M 65 174.5 L 574 174.5" stroke="#D8D8D8" stroke-width="1"  opacity="1"></path><path fill="none" d="M 65 110.5 L 574 110.5" stroke="#D8D8D8" stroke-width="1"  opacity="1"></path><path fill="none" d="M 65 46.5 L 574 46.5" stroke="#D8D8D8" stroke-width="1"  opacity="1"></path></g><g class="highcharts-axis" ><path fill="none" d="M 125.5 364 L 125.5 374" stroke="#C0D0E0" stroke-width="1" opacity="1"></path><path fill="none" d="M 256.5 364 L 256.5 374" stroke="#C0D0E0" stroke-width="1" opacity="1"></path><path fill="none" d="M 387.5 364 L 387.5 374" stroke="#C0D0E0" stroke-width="1" opacity="1"></path><path fill="none" d="M 519.5 364 L 519.5 374" stroke="#C0D0E0" stroke-width="1" opacity="1"></path><path fill="none" d="M 65 364.5 L 574 364.5" stroke="#C0D0E0" stroke-width="1"  visibility="visible"></path></g><g class="highcharts-axis" ><text x="24"  text-anchor="middle" transform="translate(0,0) rotate(270 24 205.5)" class=" highcharts-yaxis-title" style="color:#707070;fill:#707070;" visibility="visible" y="205.5">Value</text></g><g class="highcharts-series-group" ><g class="highcharts-series" visibility="visible"  transform="translate(65,47) scale(1 1)" clip-path="url(#highcharts-3)"><path fill="none" d="M 4.9 132.3 C 4.9 132.3 20.7 147.3 31.2 147.3 C 41.7 147.3 47.0 48.4 57.5 48.4 C 68.0 48.4 73.2 94.7 83.7 94.7 C 94.2 94.7 99.5 79.9 110.0 71.3 C 120.5 62.7 125.8 51.7 136.3 51.7 C 146.8 51.7 152.0 168.9 162.5 168.9 C 173.0 168.9 178.3 168.9 188.8 155.4 C 199.3 141.9 204.5 82.9 215.1 82.9 C 225.6 82.9 230.8 213.2 241.3 213.2 C 251.8 213.2 257.1 145.2 267.6 145.2 C 278.1 145.2 283.3 247.7 293.8 247.7 C 304.4 247.7 309.6 247.7 320.1 211.9 C 330.6 176.0 335.9 27.1 346.4 27.1 C 356.9 27.1 362.1 73.6 372.6 73.6 C 383.1 73.6 388.4 36.8 398.9 36.8 C 409.4 36.8 414.7 70.3 425.2 84.1 C 435.7 97.9 440.9 88.5 451.4 105.9 C 461.9 123.3 467.2 145.2 477.7 171.1 C 488.2 197.0 504.0 235.4 504.0 235.4" stroke="#7cb5ec" stroke-width="2"  stroke-linejoin="round" stroke-linecap="round"></path><path fill="none" d="M -5.0 132.3 L 4.9 132.3 C 4.9 132.3 20.7 147.3 31.2 147.3 C 41.7 147.3 47.0 48.4 57.5 48.4 C 68.0 48.4 73.2 94.7 83.7 94.7 C 94.2 94.7 99.5 79.9 110.0 71.3 C 120.5 62.7 125.8 51.7 136.3 51.7 C 146.8 51.7 152.0 168.9 162.5 168.9 C 173.0 168.9 178.3 168.9 188.8 155.4 C 199.3 141.9 204.5 82.9 215.1 82.9 C 225.6 82.9 230.8 213.2 241.3 213.2 C 251.8 213.2 257.1 145.2 267.6 145.2 C 278.1 145.2 283.3 247.7 293.8 247.7 C 304.4 247.7 309.6 247.7 320.1 211.9 C 330.6 176.0 335.9 27.1 346.4 27.1 C 356.9 27.1 362.1 73.6 372.6 73.6 C 383.1 73.6 388.4 36.8 398.9 36.8 C 409.4 36.8 414.7 70.3 425.2 84.1 C 435.7 97.9 440.9 88.5 451.4 105.9 C 461.9 123.3 467.2 145.2 477.7 171.1 C 488.2 197.0 504.0 235.4 504.0 235.4 L 514.0 235.4" stroke-linejoin="round" visibility="visible" stroke="rgb(192,192,192)" stroke-opacity="0.0" stroke-width="22"  class=" highcharts-tracker" style=""></path></g><g class="highcharts-markers highcharts-tracker" visibility="visible"  transform="translate(65,47) scale(1 1)" clip-path="url(#highcharts-2)" style=""><path fill="#7cb5ec" d="M 504 231.4 C 509.3 231.4 509.3 239.4 504 239.4 C 498.6 239.4 498.6 231.4 504 231.4 Z"></path><path fill="#7cb5ec" d="M 477 167.1 C 482.3 167.1 482.3 175.1 477 175.1 C 471.6 175.1 471.6 167.1 477 167.1 Z"></path><path fill="#7cb5ec" d="M 451 101.9 C 456.3 101.9 456.3 109.9 451 109.9 C 445.6 109.9 445.6 101.9 451 101.9 Z"></path><path fill="#7cb5ec" d="M 425 80.1 C 430.3 80.1 430.3 88.1 425 88.1 C 419.6 88.1 419.6 80.1 425 80.1 Z"></path><path fill="#7cb5ec" d="M 398 32.8 C 403.3 32.8 403.3 40.8 398 40.8 C 392.6 40.8 392.6 32.8 398 32.8 Z"></path><path fill="#7cb5ec" d="M 372 69.6 C 377.3 69.6 377.3 77.6 372 77.6 C 366.6 77.6 366.6 69.6 372 69.6 Z"></path><path fill="#7cb5ec" d="M 346 23.1 C 351.3 23.1 351.3 31.1 346 31.1 C 340.6 31.1 340.6 23.1 346 23.1 Z"></path><path fill="#7cb5ec" d="M 320 207.9 C 325.3 207.9 325.3 215.9 320 215.9 C 314.6 215.9 314.6 207.9 320 207.9 Z"></path><path fill="#7cb5ec" d="M 293 243.7 C 298.3 243.7 298.3 251.7 293 251.7 C 287.6 251.7 287.6 243.7 293 243.7 Z"></path><path fill="#7cb5ec" d="M 267 141.2 C 272.3 141.2 272.3 149.2 267 149.2 C 261.6 149.2 261.6 141.2 267 141.2 Z"></path><path fill="#7cb5ec" d="M 241 209.2 C 246.3 209.2 246.3 217.2 241 217.2 C 235.6 217.2 235.6 209.2 241 209.2 Z"></path><path fill="#7cb5ec" d="M 215 78.9 C 220.3 78.9 220.3 86.9 215 86.9 C 209.6 86.9 209.6 78.9 215 78.9 Z"></path><path fill="#7cb5ec" d="M 188 151.4 C 193.3 151.4 193.3 159.4 188 159.4 C 182.6 159.4 182.6 151.4 188 151.4 Z"></path><path fill="#7cb5ec" d="M 162 164.9 C 167.3 164.9 167.3 172.9 162 172.9 C 156.6 172.9 156.6 164.9 162 164.9 Z"></path><path fill="#7cb5ec" d="M 136 47.7 C 141.3 47.7 141.3 55.7 136 55.7 C 130.6 55.7 130.6 47.7 136 47.7 Z"></path><path fill="#7cb5ec" d="M 110 67.3 C 115.3 67.3 115.3 75.3 110 75.3 C 104.6 75.3 104.6 67.3 110 67.3 Z"></path><path fill="#7cb5ec" d="M 83 90.7 C 88.3 90.7 88.3 98.7 83 98.7 C 77.6 98.7 77.6 90.7 83 90.7 Z"></path><path fill="#7cb5ec" d="M 57 44.4 C 62.3 44.4 62.3 52.4 57 52.4 C 51.6 52.4 51.6 44.4 57 44.4 Z"></path><path fill="#7cb5ec" d="M 31 143.3 C 36.3 143.3 36.3 151.3 31 151.3 C 25.6 151.3 25.6 143.3 31 143.3 Z"></path><path fill="#7cb5ec" d="M 4 128.3 C 9.3 128.3 9.3 136.3 4 136.3 C -1.3 136.3 -1.3 128.3 4 128.3 Z"></path></g></g><text x="292" text-anchor="middle" class="highcharts-title"  style="color:#333333;font-size:18px;fill:#333333;width:520px;" y="24"><tspan>Live random data</tspan></text><g class="highcharts-axis-labels highcharts-xaxis-labels" ><text x="125.6" style="color:#606060;cursor:default;font-size:11px;fill:#606060;width:131px;text-overflow:clip;" text-anchor="middle" transform="translate(0,0)" y="383" opacity="1">13:48:30</text><text x="256.9" style="color:#606060;cursor:default;font-size:11px;fill:#606060;width:131px;text-overflow:clip;" text-anchor="middle" transform="translate(0,0)" y="383" opacity="1">13:48:35</text><text x="388.2" style="color:#606060;cursor:default;font-size:11px;fill:#606060;width:131px;text-overflow:clip;" text-anchor="middle" transform="translate(0,0)" y="383" opacity="1">13:48:40</text><text x="519.5" style="color:#606060;cursor:default;font-size:11px;fill:#606060;width:131px;text-overflow:clip;" text-anchor="middle" transform="translate(0,0)" y="383" opacity="1">13:48:45</text></g><g class="highcharts-axis-labels highcharts-yaxis-labels" ><text x="50" style="color:#606060;cursor:default;font-size:11px;fill:#606060;width:183px;text-overflow:clip;" text-anchor="end" transform="translate(0,0)" y="369" opacity="1">0</text><text x="50" style="color:#606060;cursor:default;font-size:11px;fill:#606060;width:183px;text-overflow:clip;" text-anchor="end" transform="translate(0,0)" y="305" opacity="1">0.2</text><text x="50" style="color:#606060;cursor:default;font-size:11px;fill:#606060;width:183px;text-overflow:clip;" text-anchor="end" transform="translate(0,0)" y="242" opacity="1">0.4</text><text x="50" style="color:#606060;cursor:default;font-size:11px;fill:#606060;width:183px;text-overflow:clip;" text-anchor="end" transform="translate(0,0)" y="178" opacity="1">0.6</text><text x="50" style="color:#606060;cursor:default;font-size:11px;fill:#606060;width:183px;text-overflow:clip;" text-anchor="end" transform="translate(0,0)" y="115" opacity="1">0.8</text><text x="50" style="color:#606060;cursor:default;font-size:11px;fill:#606060;width:183px;text-overflow:clip;" text-anchor="end" transform="translate(0,0)" y="52" opacity="1">1</text></g><g class="highcharts-tooltip"  style="cursor:default;padding:0;white-space:nowrap;" transform="translate(0,-9999)"><path fill="none" d="M 3 0 L 13 0 C 16 0 16 0 16 3 L 16 13 C 16 16 16 16 13 16 L 3 16 C 0 16 0 16 0 13 L 0 3 C 0 0 0 0 3 0"  stroke="black" stroke-opacity="0.0" stroke-width="5" transform="translate(1, 1)"></path><path fill="none" d="M 3 0 L 13 0 C 16 0 16 0 16 3 L 16 13 C 16 16 16 16 13 16 L 3 16 C 0 16 0 16 0 13 L 0 3 C 0 0 0 0 3 0"  stroke="black" stroke-opacity="0.0" stroke-width="3" transform="translate(1, 1)"></path><path fill="none" d="M 3 0 L 13 0 C 16 0 16 0 16 3 L 16 13 C 16 16 16 16 13 16 L 3 16 C 0 16 0 16 0 13 L 0 3 C 0 0 0 0 3 0"  stroke="black" stroke-opacity="0.1" stroke-width="1" transform="translate(1, 1)"></path><path fill="rgb(249, 249, 249)" fill-opacity=" .85" d="M 3 0 L 13 0 C 16 0 16 0 16 3 L 16 13 C 16 16 16 16 13 16 L 3 16 C 0 16 0 16 0 13 L 0 3 C 0 0 0 0 3 0"></path><text x="8"  style="font-size:12px;color:#333333;fill:#333333;" transform="translate(0,20)"></text></g></svg>