<svg version="1.1" style="font-family:&quot;lucida grande&quot;, &quot;lucida sans unicode&quot;, arial, helvetica, sans-serif;font-size:12px;" xmlns="http://www.w3.org/2000/svg" width="584" height="400" viewBox="0 0 584 400"><desc>Created with Highcharts 4.1.4</desc><defs><clipPath id="highcharts-1"><rect x="0" y="0" width="454" height="270"></rect></clipPath><clipPath id="highcharts-2"><rect x="-99" y="-70" width="553" height="400"></rect></clipPath><clipPath id="highcharts-3"><rect x="0" y="0" width="454" height="270"></rect></clipPath></defs><rect x="0" y="0" width="584" height="400" strokeWidth="0" fill="#FFFFFF" class=" highcharts-background" stroke="transparent"></rect><path fill="none" d="M 80 340.5 L 534 340.5" stroke="#808080" stroke-width="1"></path><g class="highcharts-grid" ><path fill="none" d="M 144.5 70 L 144.5 340" stroke="#D8D8D8" stroke-width="1"  opacity="1"></path><path fill="none" d="M 252.5 70 L 252.5 340" stroke="#D8D8D8" stroke-width="1"  opacity="1"></path><path fill="none" d="M 360.5 70 L 360.5 340" stroke="#D8D8D8" stroke-width="1"  opacity="1"></path><path fill="none" d="M 468.5 70 L 468.5 340" stroke="#D8D8D8" stroke-width="1"  opacity="1"></path></g><g class="highcharts-grid" ><path fill="none" d="M 80 340.5 L 534 340.5" stroke="#D8D8D8" stroke-width="1"  opacity="1"></path><path fill="none" d="M 80 273.5 L 534 273.5" stroke="#D8D8D8" stroke-width="1"  opacity="1"></path><path fill="none" d="M 80 205.5 L 534 205.5" stroke="#D8D8D8" stroke-width="1"  opacity="1"></path><path fill="none" d="M 80 138.5 L 534 138.5" stroke="#D8D8D8" stroke-width="1"  opacity="1"></path><path fill="none" d="M 80 69.5 L 534 69.5" stroke="#D8D8D8" stroke-width="1"  opacity="1"></path></g><g class="highcharts-axis" ><path fill="none" d="M 144.5 340 L 144.5 350" stroke="#C0D0E0" stroke-width="1" opacity="1"></path><path fill="none" d="M 252.5 340 L 252.5 350" stroke="#C0D0E0" stroke-width="1" opacity="1"></path><path fill="none" d="M 360.5 340 L 360.5 350" stroke="#C0D0E0" stroke-width="1" opacity="1"></path><path fill="none" d="M 468.5 340 L 468.5 350" stroke="#C0D0E0" stroke-width="1" opacity="1"></path><path fill="none" d="M 80 340.5 L 534 340.5" stroke="#C0D0E0" stroke-width="1"  visibility="visible"></path></g><g class="highcharts-axis" ><text x="37"  text-anchor="middle" transform="translate(0,0) rotate(270 37 205)" class=" highcharts-yaxis-title" style="color:#707070;fill:#707070;" visibility="visible" y="205">Value</text></g><g class="highcharts-series-group" ><g class="highcharts-series highcharts-tracker" visibility="visible"  transform="translate(80,70) scale(1 1)" clip-path="url(#highcharts-3)" style=""><path fill="none" d="M 64.8 216 L 389.1 54" stroke="#7cb5ec" stroke-width="1"  stroke-linejoin="round" stroke-linecap="round"></path></g><g class="highcharts-markers highcharts-tracker" visibility="visible"  transform="translate(80,70) scale(1 1)" clip-path="url(#highcharts-2)" style=""><path fill="#7cb5ec" d="M 389 50 C 394.3 50 394.3 58 389 58 C 383.6 58 383.6 50 389 50 Z"></path><path fill="#7cb5ec" d="M 64 212 C 69.3 212 69.3 220 64 220 C 58.6 220 58.6 212 64 212 Z"></path></g></g><text x="292" text-anchor="middle" class="highcharts-title"  style="color:#333333;font-size:18px;fill:#333333;width:520px;" y="24"><tspan>User supplied data</tspan></text><text x="292" text-anchor="middle" class="highcharts-subtitle"  style="color:#555555;fill:#555555;width:520px;" y="46"><tspan>Click the plot area to add a point. Click a point to remove it.</tspan></text><g class="highcharts-axis-labels highcharts-xaxis-labels" ><text x="144.8" style="color:#606060;cursor:default;font-size:11px;fill:#606060;width:104px;text-overflow:clip;" text-anchor="middle" transform="translate(0,0)" y="359" opacity="1">20</text><text x="252.9" style="color:#606060;cursor:default;font-size:11px;fill:#606060;width:104px;text-overflow:clip;" text-anchor="middle" transform="translate(0,0)" y="359" opacity="1">40</text><text x="361.0" style="color:#606060;cursor:default;font-size:11px;fill:#606060;width:104px;text-overflow:clip;" text-anchor="middle" transform="translate(0,0)" y="359" opacity="1">60</text><text x="469.1" style="color:#606060;cursor:default;font-size:11px;fill:#606060;width:104px;text-overflow:clip;" text-anchor="middle" transform="translate(0,0)" y="359" opacity="1">80</text></g><g class="highcharts-axis-labels highcharts-yaxis-labels" ><text x="65" style="color:#606060;cursor:default;font-size:11px;fill:#606060;width:60px;text-overflow:clip;" text-anchor="end" transform="translate(0,0)" y="345" opacity="1">0</text><text x="65" style="color:#606060;cursor:default;font-size:11px;fill:#606060;width:60px;text-overflow:clip;" text-anchor="end" transform="translate(0,0)" y="277" opacity="1">25</text><text x="65" style="color:#606060;cursor:default;font-size:11px;fill:#606060;width:60px;text-overflow:clip;" text-anchor="end" transform="translate(0,0)" y="210" opacity="1">50</text><text x="65" style="color:#606060;cursor:default;font-size:11px;fill:#606060;width:60px;text-overflow:clip;" text-anchor="end" transform="translate(0,0)" y="142" opacity="1">75</text><text x="65" style="color:#606060;cursor:default;font-size:11px;fill:#606060;width:60px;text-overflow:clip;" text-anchor="end" transform="translate(0,0)" y="75" opacity="1">100</text></g><g class="highcharts-tooltip"  style="cursor:default;padding:0;white-space:nowrap;" transform="translate(0,-9999)"><path fill="none" d="M 3 0 L 13 0 C 16 0 16 0 16 3 L 16 13 C 16 16 16 16 13 16 L 3 16 C 0 16 0 16 0 13 L 0 3 C 0 0 0 0 3 0"  stroke="black" stroke-opacity="0.0" stroke-width="5" transform="translate(1, 1)"></path><path fill="none" d="M 3 0 L 13 0 C 16 0 16 0 16 3 L 16 13 C 16 16 16 16 13 16 L 3 16 C 0 16 0 16 0 13 L 0 3 C 0 0 0 0 3 0"  stroke="black" stroke-opacity="0.0" stroke-width="3" transform="translate(1, 1)"></path><path fill="none" d="M 3 0 L 13 0 C 16 0 16 0 16 3 L 16 13 C 16 16 16 16 13 16 L 3 16 C 0 16 0 16 0 13 L 0 3 C 0 0 0 0 3 0"  stroke="black" stroke-opacity="0.1" stroke-width="1" transform="translate(1, 1)"></path><path fill="rgb(249, 249, 249)" fill-opacity=" .85" d="M 3 0 L 13 0 C 16 0 16 0 16 3 L 16 13 C 16 16 16 16 13 16 L 3 16 C 0 16 0 16 0 13 L 0 3 C 0 0 0 0 3 0"></path><text x="8"  style="font-size:12px;color:#333333;fill:#333333;" transform="translate(0,20)"></text></g></svg>