<svg version="1.1" style="font-family:&quot;lucida grande&quot;, &quot;lucida sans unicode&quot;, arial, helvetica, sans-serif;font-size:12px;" xmlns="http://www.w3.org/2000/svg" width="584" height="400" viewBox="0 0 584 400"><desc>Created with Highcharts 4.1.4</desc><defs><clipPath id="highcharts-1"><rect x="0" y="-80" width="624" height="480"></rect></clipPath></defs><rect x="0" y="0" width="584" height="400" strokeWidth="0" fill="#FFFFFF" class=" highcharts-background" stroke="transparent"></rect><g  style="stroke:rgba(255,255,255,0);"><path fill="rgb(230,230,230)" fill-opacity="0" d="M 554.4 89.1 L 538.5 333.2 L 538.5 332.8 L 554.5 88.9 Z"  stroke-linejoin="round"></path><path fill="rgb(255,255,255)" fill-opacity="0" d="M 554.4 89.1 L 554.5 88.9 L 89.5 71.6 L 89.1 71.7 Z"  stroke-linejoin="round"></path><path fill="rgb(255,255,255)" fill-opacity="0" d="M 101.2 290.7 L 538.5 333.2 L 554.4 89.1 L 89.1 71.7 Z"  stroke-linejoin="round"></path></g><g  style="stroke:rgba(255,255,255,0);"><path fill="rgb(255,255,255)" fill-opacity="0" d="M 70.9 76.8 L 89.1 71.7 L 88.3 71.7 L 70.0 76.7 Z"  stroke-linejoin="round"></path><path fill="rgb(255,255,255)" fill-opacity="0" d="M 83.6 303.1 L 84.5 303.2 L 70.9 76.8 L 70.0 76.7 Z"  stroke-linejoin="round"></path><path fill="rgb(230,230,230)" fill-opacity="0" d="M 70.9 76.8 L 84.5 303.2 L 101.2 290.7 L 89.1 71.7 Z"  stroke-linejoin="round"></path></g><g  style="stroke:rgba(255,255,255,0);"><path fill="rgb(230,230,230)" fill-opacity="0" d="M 536.9 347.8 L 536.8 348.8 L 538.4 333.5 L 538.5 332.6 Z"  stroke-linejoin="round"></path><path fill="rgb(255,255,255)" fill-opacity="0" d="M 84.5 303.2 L 536.8 348.8 L 536.9 347.8 L 84.4 302.3 Z"  stroke-linejoin="round"></path><path fill="rgb(255,255,255)" fill-opacity="0" d="M 536.9 347.8 L 538.5 332.6 L 100.8 290.2 L 84.4 302.3 Z"  stroke-linejoin="round"></path></g><g class="highcharts-grid" ><path fill="none" d="M 173.1 75.0 L 173.1 75.0 L 180.6 297.9 L 166.7 310.6" stroke="#D8D8D8" stroke-width="1"  opacity="1"></path><path fill="none" d="M 261.1 78.2 L 261.1 78.2 L 263.5 306.0 L 252.2 319.2" stroke="#D8D8D8" stroke-width="1"  opacity="1"></path><path fill="none" d="M 354.3 81.7 L 354.3 81.7 L 351.1 314.4 L 342.8 328.3" stroke="#D8D8D8" stroke-width="1"  opacity="1"></path><path fill="none" d="M 451.1 85.3 L 451.1 85.3 L 441.9 323.2 L 436.7 337.8" stroke="#D8D8D8" stroke-width="1"  opacity="1"></path><path fill="none" d="M 555.0 89.2 L 555.0 89.2 L 539.0 332.6 L 537.4 347.9" stroke="#D8D8D8" stroke-width="1"  opacity="1"></path><path fill="none" d="M 88.3 71.8 L 88.3 71.8 L 100.4 290.2 L 84.0 302.3" stroke="#D8D8D8" stroke-width="1"  opacity="1"></path></g><g class="highcharts-grid" ><path fill="none" d="M 84.5 302.7 L 100.8 290.6 L 538.4 333.1 L 538.4 333.1" stroke="#D8D8D8" stroke-width="1"  opacity="1"></path><path fill="none" d="M 82.3 267.1 L 98.9 256.1 L 541.0 294.8 L 541.0 294.8" stroke="#D8D8D8" stroke-width="1"  opacity="1"></path><path fill="none" d="M 80.1 230.9 L 96.9 220.9 L 543.5 255.8 L 543.5 255.8" stroke="#D8D8D8" stroke-width="1"  opacity="1"></path><path fill="none" d="M 77.9 193.8 L 95.0 185.1 L 546.1 215.9 L 546.1 215.9" stroke="#D8D8D8" stroke-width="1"  opacity="1"></path><path fill="none" d="M 75.6 155.1 L 92.9 147.6 L 548.9 174.1 L 548.9 174.1" stroke="#D8D8D8" stroke-width="1"  opacity="1"></path><path fill="none" d="M 73.3 116.6 L 90.8 110.3 L 551.6 132.4 L 551.6 132.4" stroke="#D8D8D8" stroke-width="1"  opacity="1"></path><path fill="none" d="M 70.9 76.3 L 88.7 71.3 L 554.5 88.7 L 554.5 88.7" stroke="#D8D8D8" stroke-width="1"  opacity="1"></path></g><g class="highcharts-axis" ><path fill="none" d="M 61 327.5 L 544 327.5" stroke="#C0D0E0" stroke-width="1"  visibility="hidden"></path></g><g class="highcharts-axis" ><text x="24"  text-anchor="middle" transform="translate(0,0) rotate(270 24 203.5)" class=" highcharts-yaxis-title" style="color:#707070;fill:#707070;" visibility="visible" y="203.5"><tspan>Number of fruits</tspan></text></g><g class="highcharts-series-group" ><g class="highcharts-series highcharts-tracker" visibility="visible"  transform="translate(61,80) scale(1 1)" style="" clip-path="url(#highcharts-1)"><g  stroke="#434348" stroke-width="1" r="0"><path fill="#434348" d="M 41.9 224.2 L 62.2 226.3 L 59.5 171.7 L 38.9 169.9 Z"  stroke-linejoin="round"></path><path fill="rgb(92,92,97)" fill-opacity="1" d="M 59.5 171.7 L 75.0 161.0 L 55.0 159.4 L 38.9 169.9 Z"  stroke-linejoin="round"></path><path fill="rgb(42,42,47)" fill-opacity="1" d="M 59.5 171.7 L 62.2 226.3 L 77.4 213.9 L 75.0 161.0 Z"  stroke-linejoin="round"></path></g><g  stroke="#434348" stroke-width="1" r="0"><path fill="#434348" d="M 125.3 232.6 L 146.5 234.8 L 144.6 160.7 L 122.9 159.0 Z"  stroke-linejoin="round"></path><path fill="rgb(92,92,97)" fill-opacity="1" d="M 144.6 160.7 L 157.6 150.1 L 136.6 148.5 L 122.9 159.0 Z"  stroke-linejoin="round"></path><path fill="rgb(42,42,47)" fill-opacity="1" d="M 144.6 160.7 L 146.5 234.8 L 159.2 221.9 L 157.6 150.1 Z"  stroke-linejoin="round"></path></g><g  stroke="#434348" stroke-width="1" r="0"><path fill="#434348" d="M 211.7 241.3 L 233.9 243.6 L 233.7 167.9 L 211.1 166.1 Z"  stroke-linejoin="round"></path><path fill="rgb(92,92,97)" fill-opacity="1" d="M 233.7 167.9 L 243.9 156.9 L 221.9 155.1 L 211.1 166.1 Z"  stroke-linejoin="round"></path><path fill="rgb(42,42,47)" fill-opacity="1" d="M 233.7 167.9 L 233.9 243.6 L 243.8 230.1 L 243.9 156.9 Z"  stroke-linejoin="round"></path></g><g  stroke="#434348" stroke-width="1" r="0"><path fill="#434348" d="M 303.1 250.5 L 326.4 252.9 L 327.3 214.6 L 303.8 212.5 Z"  stroke-linejoin="round"></path><path fill="rgb(92,92,97)" fill-opacity="1" d="M 327.3 214.6 L 334.2 201.7 L 311.4 199.7 L 303.8 212.5 Z"  stroke-linejoin="round"></path><path fill="rgb(42,42,47)" fill-opacity="1" d="M 327.3 214.6 L 326.4 252.9 L 333.3 238.7 L 334.2 201.7 Z"  stroke-linejoin="round"></path></g><g  stroke="#434348" stroke-width="1" r="0"><path fill="#434348" d="M 399.0 260.2 L 423.5 262.6 L 428.5 162.9 L 403.4 160.9 Z"  stroke-linejoin="round"></path><path fill="rgb(92,92,97)" fill-opacity="1" d="M 428.5 162.9 L 431.9 151.4 L 407.6 149.6 L 403.4 160.9 Z"  stroke-linejoin="round"></path><path fill="rgb(42,42,47)" fill-opacity="1" d="M 428.5 162.9 L 423.5 262.6 L 426.9 247.8 L 431.9 151.4 Z"  stroke-linejoin="round"></path></g></g><g class="highcharts-markers" visibility="visible"  transform="translate(61,80) scale(1 1)"></g><g class="highcharts-series highcharts-tracker" visibility="visible"  transform="translate(61,80) scale(1 1)" style="" clip-path="url(#highcharts-1)"><g  stroke="#7cb5ec" stroke-width="1" r="0"><path fill="#7cb5ec" d="M 38.9 169.9 L 59.5 171.7 L 54.8 77.3 L 33.7 76.1 Z"  stroke-linejoin="round"></path><path fill="rgb(149,206,255)" fill-opacity="1" d="M 54.8 77.3 L 70.9 69.7 L 50.4 68.5 L 33.7 76.1 Z"  stroke-linejoin="round"></path><path fill="rgb(99,156,211)" fill-opacity="1" d="M 54.8 77.3 L 59.5 171.7 L 75.0 161.0 L 70.9 69.7 Z"  stroke-linejoin="round"></path></g><g  stroke="#7cb5ec" stroke-width="1" r="0"><path fill="#7cb5ec" d="M 122.9 159.0 L 144.6 160.7 L 143.1 102.7 L 121.1 101.3 Z"  stroke-linejoin="round"></path><path fill="rgb(149,206,255)" fill-opacity="1" d="M 143.1 102.7 L 156.3 94.0 L 135.0 92.6 L 121.1 101.3 Z"  stroke-linejoin="round"></path><path fill="rgb(99,156,211)" fill-opacity="1" d="M 143.1 102.7 L 144.6 160.7 L 157.6 150.1 L 156.3 94.0 Z"  stroke-linejoin="round"></path></g><g  stroke="#7cb5ec" stroke-width="1" r="0"><path fill="#7cb5ec" d="M 211.1 166.1 L 233.7 167.9 L 233.6 88.1 L 210.4 86.7 Z"  stroke-linejoin="round"></path><path fill="rgb(149,206,255)" fill-opacity="1" d="M 233.6 88.1 L 243.9 79.7 L 221.5 78.4 L 210.4 86.7 Z"  stroke-linejoin="round"></path><path fill="rgb(99,156,211)" fill-opacity="1" d="M 233.6 88.1 L 233.7 167.9 L 243.9 156.9 L 243.9 79.7 Z"  stroke-linejoin="round"></path></g><g  stroke="#7cb5ec" stroke-width="1" r="0"><path fill="rgb(149,206,255)" fill-opacity="1" d="M 330.6 73.7 L 337.7 65.6 L 314.0 64.3 L 306.2 72.4 Z"  stroke-linejoin="round"></path><path fill="#7cb5ec" d="M 303.8 212.5 L 327.3 214.6 L 330.6 73.7 L 306.2 72.4 Z"  stroke-linejoin="round"></path><path fill="rgb(99,156,211)" fill-opacity="1" d="M 330.6 73.7 L 327.3 214.6 L 334.2 201.7 L 337.7 65.6 Z"  stroke-linejoin="round"></path></g><g  stroke="#7cb5ec" stroke-width="1" r="0"><path fill="#7cb5ec" d="M 403.4 160.9 L 428.5 162.9 L 430.6 121.6 L 405.2 119.9 Z"  stroke-linejoin="round"></path><path fill="rgb(149,206,255)" fill-opacity="1" d="M 430.6 121.6 L 433.9 111.5 L 409.4 110.0 L 405.2 119.9 Z"  stroke-linejoin="round"></path><path fill="rgb(99,156,211)" fill-opacity="1" d="M 430.6 121.6 L 428.5 162.9 L 431.9 151.4 L 433.9 111.5 Z"  stroke-linejoin="round"></path></g></g><g class="highcharts-markers" visibility="visible"  transform="translate(61,80) scale(1 1)"></g><g class="highcharts-series highcharts-tracker" visibility="visible"  transform="translate(61,80) scale(1 1)" style="" clip-path="url(#highcharts-1)"><g  stroke="#f7a35c" stroke-width="1" r="0"><path fill="#f7a35c" d="M 66.4 226.7 L 87.0 228.8 L 84.6 173.9 L 63.8 172.1 Z"  stroke-linejoin="round"></path><path fill="rgb(255,188,117)" fill-opacity="1" d="M 84.6 173.9 L 99.4 163.0 L 79.2 161.4 L 63.8 172.1 Z"  stroke-linejoin="round"></path><path fill="rgb(222,138,67)" fill-opacity="1" d="M 84.6 173.9 L 87.0 228.8 L 101.5 216.3 L 99.4 163.0 Z"  stroke-linejoin="round"></path></g><g  stroke="#f7a35c" stroke-width="1" r="0"><path fill="#f7a35c" d="M 0 0"  stroke-linejoin="round"></path><path fill="rgb(222,138,67)" fill-opacity="1" d="M 0 0"  stroke-linejoin="round"></path><path fill="rgb(255,188,117)" fill-opacity="1" d="M 172.5 237.4 L 184.4 224.3 L 163.5 222.3 L 151.0 235.2 Z"  stroke-linejoin="round"></path></g><g  stroke="#f7a35c" stroke-width="1" r="0"><path fill="#f7a35c" d="M 238.6 244.0 L 261.1 246.3 L 261.5 170.2 L 238.5 168.3 Z"  stroke-linejoin="round"></path><path fill="rgb(255,188,117)" fill-opacity="1" d="M 261.5 170.2 L 270.7 158.9 L 248.5 157.2 L 238.5 168.3 Z"  stroke-linejoin="round"></path><path fill="rgb(222,138,67)" fill-opacity="1" d="M 261.5 170.2 L 261.1 246.3 L 270.1 232.6 L 270.7 158.9 Z"  stroke-linejoin="round"></path></g><g  stroke="#f7a35c" stroke-width="1" r="0"><path fill="#f7a35c" d="M 331.3 253.4 L 354.9 255.7 L 357.4 178.0 L 333.2 176.0 Z"  stroke-linejoin="round"></path><path fill="rgb(255,188,117)" fill-opacity="1" d="M 357.4 178.0 L 363.3 166.2 L 340.0 164.3 L 333.2 176.0 Z"  stroke-linejoin="round"></path><path fill="rgb(222,138,67)" fill-opacity="1" d="M 357.4 178.0 L 354.9 255.7 L 360.8 241.4 L 363.3 166.2 Z"  stroke-linejoin="round"></path></g><g  stroke="#f7a35c" stroke-width="1" r="0"><path fill="#f7a35c" d="M 428.6 263.1 L 453.4 265.6 L 456.9 205.8 L 431.7 203.7 Z"  stroke-linejoin="round"></path><path fill="rgb(255,188,117)" fill-opacity="1" d="M 456.9 205.8 L 459.2 192.8 L 434.9 190.8 L 431.7 203.7 Z"  stroke-linejoin="round"></path><path fill="rgb(222,138,67)" fill-opacity="1" d="M 456.9 205.8 L 453.4 265.6 L 455.8 250.6 L 459.2 192.8 Z"  stroke-linejoin="round"></path></g></g><g class="highcharts-markers" visibility="visible"  transform="translate(61,80) scale(1 1)"></g><g class="highcharts-series highcharts-tracker" visibility="visible"  transform="translate(61,80) scale(1 1)" style="" clip-path="url(#highcharts-1)"><g  stroke="#90ed7d" stroke-width="1" r="0"><path fill="#90ed7d" d="M 63.8 172.1 L 84.6 173.9 L 83.1 136.6 L 62.0 135.0 Z"  stroke-linejoin="round"></path><path fill="rgb(169,255,150)" fill-opacity="1" d="M 83.1 136.6 L 98.0 127.0 L 77.6 125.5 L 62.0 135.0 Z"  stroke-linejoin="round"></path><path fill="rgb(119,212,100)" fill-opacity="1" d="M 83.1 136.6 L 84.6 173.9 L 99.4 163.0 L 98.0 127.0 Z"  stroke-linejoin="round"></path></g><g  stroke="#90ed7d" stroke-width="1" r="0"><path fill="#90ed7d" d="M 151.0 235.2 L 172.5 237.4 L 170.7 143.3 L 148.6 141.6 Z"  stroke-linejoin="round"></path><path fill="rgb(169,255,150)" fill-opacity="1" d="M 170.7 143.3 L 182.9 133.2 L 161.6 131.6 L 148.6 141.6 Z"  stroke-linejoin="round"></path><path fill="rgb(119,212,100)" fill-opacity="1" d="M 170.7 143.3 L 172.5 237.4 L 184.4 224.3 L 182.9 133.2 Z"  stroke-linejoin="round"></path></g><g  stroke="#90ed7d" stroke-width="1" r="0"><path fill="#90ed7d" d="M 238.5 168.3 L 261.5 170.2 L 262.2 48.8 L 238.4 47.7 Z"  stroke-linejoin="round"></path><path fill="rgb(169,255,150)" fill-opacity="1" d="M 262.2 48.8 L 271.6 41.7 L 248.7 40.6 L 238.4 47.7 Z"  stroke-linejoin="round"></path><path fill="rgb(119,212,100)" fill-opacity="1" d="M 262.2 48.8 L 261.5 170.2 L 270.7 158.9 L 271.6 41.7 Z"  stroke-linejoin="round"></path></g><g  stroke="#90ed7d" stroke-width="1" r="0"><path fill="#90ed7d" d="M 333.2 176.0 L 357.4 178.0 L 358.6 137.8 L 334.2 136.1 Z"  stroke-linejoin="round"></path><path fill="rgb(169,255,150)" fill-opacity="1" d="M 358.6 137.8 L 364.6 127.4 L 341.0 125.8 L 334.2 136.1 Z"  stroke-linejoin="round"></path><path fill="rgb(119,212,100)" fill-opacity="1" d="M 358.6 137.8 L 357.4 178.0 L 363.3 166.2 L 364.6 127.4 Z"  stroke-linejoin="round"></path></g><g  stroke="#90ed7d" stroke-width="1" r="0"><path fill="#90ed7d" d="M 431.7 203.7 L 456.9 205.8 L 458.1 186.1 L 432.7 184.1 Z"  stroke-linejoin="round"></path><path fill="rgb(119,212,100)" fill-opacity="1" d="M 458.1 186.1 L 456.9 205.8 L 459.2 192.8 L 460.4 173.7 Z"  stroke-linejoin="round"></path><path fill="rgb(169,255,150)" fill-opacity="1" d="M 458.1 186.1 L 460.4 173.7 L 435.9 171.8 L 432.7 184.1 Z"  stroke-linejoin="round"></path></g></g><g class="highcharts-markers" visibility="visible"  transform="translate(61,80) scale(1 1)"></g></g><text x="292" text-anchor="middle" class="highcharts-title"  style="color:#333333;font-size:18px;fill:#333333;width:520px;" y="24"><tspan>Total fruit consumption, grouped by gender</tspan></text><g class="highcharts-legend"  transform="translate(156,360)"><g ><g><g class="highcharts-legend-item"  transform="translate(8,3)"><text x="21" style="color:#333333;font-size:12px;font-weight:bold;cursor:pointer;fill:#333333;" text-anchor="start"  y="15">John</text><rect x="0" y="4" width="16" height="12"  fill="#7cb5ec"></rect></g><g class="highcharts-legend-item"  transform="translate(79,3)"><text x="21" y="15" style="color:#333333;font-size:12px;font-weight:bold;cursor:pointer;fill:#333333;" text-anchor="start" >Joe</text><rect x="0" y="4" width="16" height="12"  fill="#434348"></rect></g><g class="highcharts-legend-item"  transform="translate(141,3)"><text x="21" y="15" style="color:#333333;font-size:12px;font-weight:bold;cursor:pointer;fill:#333333;" text-anchor="start" >Jane</text><rect x="0" y="4" width="16" height="12"  fill="#90ed7d"></rect></g><g class="highcharts-legend-item"  transform="translate(210,3)"><text x="21" y="15" style="color:#333333;font-size:12px;font-weight:bold;cursor:pointer;fill:#333333;" text-anchor="start" >Janet</text><rect x="0" y="4" width="16" height="12"  fill="#f7a35c"></rect></g></g></g></g><g class="highcharts-axis-labels highcharts-xaxis-labels" ><text x="125.9" style="color:#606060;cursor:default;font-size:11px;fill:#606060;width:97px;text-overflow:clip;" text-anchor="middle" transform="translate(0,0)" y="322.8" z="86.5" opacity="1">Apples</text><text x="209.7" style="color:#606060;cursor:default;font-size:11px;fill:#606060;width:97px;text-overflow:clip;" text-anchor="middle" transform="translate(0,0)" y="331.6" z="62.3" opacity="1">Oranges</text><text x="297.5" style="color:#606060;cursor:default;font-size:11px;fill:#606060;width:97px;text-overflow:clip;" text-anchor="middle" transform="translate(0,0)" y="340.8" z="38.2" opacity="1">Pears</text><text x="389.4" style="color:#606060;cursor:default;font-size:11px;fill:#606060;width:97px;text-overflow:clip;" text-anchor="middle" transform="translate(0,0)" y="350.5" z="14.0" opacity="1">Grapes</text><text x="485.7" style="color:#606060;cursor:default;font-size:11px;fill:#606060;width:97px;text-overflow:clip;" text-anchor="middle" transform="translate(0,0)" y="360.6" z="-10.0" opacity="1">Bananas</text></g><g class="highcharts-axis-labels highcharts-yaxis-labels" ><text x="72.2" style="color:#606060;cursor:default;font-size:11px;fill:#606060;width:183px;text-overflow:clip;" text-anchor="end" transform="translate(0,0)" y="305.3" z="98.7" opacity="1">0</text><text x="69.9" style="color:#606060;cursor:default;font-size:11px;fill:#606060;width:183px;text-overflow:clip;" text-anchor="end" transform="translate(0,0)" y="269.1" z="87.8" opacity="1">2</text><text x="67.6" style="color:#606060;cursor:default;font-size:11px;fill:#606060;width:183px;text-overflow:clip;" text-anchor="end" transform="translate(0,0)" y="232.9" z="77.2" opacity="1">4</text><text x="65.3" style="color:#606060;cursor:default;font-size:11px;fill:#606060;width:183px;text-overflow:clip;" text-anchor="end" transform="translate(0,0)" y="196.1" z="66.6" opacity="1">6</text><text x="62.9" style="color:#606060;cursor:default;font-size:11px;fill:#606060;width:183px;text-overflow:clip;" text-anchor="end" transform="translate(0,0)" y="158.5" z="56.0" opacity="1">8</text><text x="60.5" style="color:#606060;cursor:default;font-size:11px;fill:#606060;width:183px;text-overflow:clip;" text-anchor="end" transform="translate(0,0)" y="120.2" z="45.4" opacity="1">10</text><text x="58.0" style="color:#606060;cursor:default;font-size:11px;fill:#606060;width:183px;text-overflow:clip;" text-anchor="end" transform="translate(0,0)" y="81.1" z="34.7" opacity="1">12</text></g><g class="highcharts-tooltip"  style="cursor:default;padding:0;white-space:nowrap;" transform="translate(0,-9999)"><path fill="none" d="M 3 0 L 13 0 C 16 0 16 0 16 3 L 16 13 C 16 16 16 16 13 16 L 3 16 C 0 16 0 16 0 13 L 0 3 C 0 0 0 0 3 0"  stroke="black" stroke-opacity="0.0" stroke-width="5" transform="translate(1, 1)"></path><path fill="none" d="M 3 0 L 13 0 C 16 0 16 0 16 3 L 16 13 C 16 16 16 16 13 16 L 3 16 C 0 16 0 16 0 13 L 0 3 C 0 0 0 0 3 0"  stroke="black" stroke-opacity="0.0" stroke-width="3" transform="translate(1, 1)"></path><path fill="none" d="M 3 0 L 13 0 C 16 0 16 0 16 3 L 16 13 C 16 16 16 16 13 16 L 3 16 C 0 16 0 16 0 13 L 0 3 C 0 0 0 0 3 0"  stroke="black" stroke-opacity="0.1" stroke-width="1" transform="translate(1, 1)"></path><path fill="rgb(249, 249, 249)" fill-opacity=" .85" d="M 3 0 L 13 0 C 16 0 16 0 16 3 L 16 13 C 16 16 16 16 13 16 L 3 16 C 0 16 0 16 0 13 L 0 3 C 0 0 0 0 3 0"></path><text x="8"  style="font-size:12px;color:#333333;fill:#333333;" transform="translate(0,20)"></text></g></svg>