<svg version="1.1" style="font-family:&quot;lucida grande&quot;, &quot;lucida sans unicode&quot;, arial, helvetica, sans-serif;font-size:12px;" xmlns="http://www.w3.org/2000/svg" width="584" height="400" viewBox="0 0 584 400"><desc>Created with Highcharts 4.1.4</desc><defs><clipPath id="highcharts-1"><rect x="-100" y="-100" width="784" height="600"></rect></clipPath><clipPath id="highcharts-2"><rect x="-99" y="-100" width="483" height="400"></rect></clipPath><clipPath id="highcharts-3"><rect x="-100" y="-100" width="384" height="600"></rect></clipPath><radialGradient cx="0.4" cy="0.3" r="0.5" id="highcharts-4"><stop offset="0" stop-color="#91e8e1" stop-opacity="1"></stop><stop offset="1" stop-color="rgb(94,181,174)" stop-opacity="1"></stop></radialGradient><radialGradient cx="0.4" cy="0.3" r="0.5" id="highcharts-5"><stop offset="0" stop-color="#f45b5b" stop-opacity="1"></stop><stop offset="1" stop-color="rgb(193,40,40)" stop-opacity="1"></stop></radialGradient><radialGradient cx="0.4" cy="0.3" r="0.5" id="highcharts-6"><stop offset="0" stop-color="#2b908f" stop-opacity="1"></stop><stop offset="1" stop-color="rgb(0,93,92)" stop-opacity="1"></stop></radialGradient><radialGradient cx="0.4" cy="0.3" r="0.5" id="highcharts-7"><stop offset="0" stop-color="#e4d354" stop-opacity="1"></stop><stop offset="1" stop-color="rgb(177,160,33)" stop-opacity="1"></stop></radialGradient><radialGradient cx="0.4" cy="0.3" r="0.5" id="highcharts-8"><stop offset="0" stop-color="#f15c80" stop-opacity="1"></stop><stop offset="1" stop-color="rgb(190,41,77)" stop-opacity="1"></stop></radialGradient><radialGradient cx="0.4" cy="0.3" r="0.5" id="highcharts-9"><stop offset="0" stop-color="#8085e9" stop-opacity="1"></stop><stop offset="1" stop-color="rgb(77,82,182)" stop-opacity="1"></stop></radialGradient><radialGradient cx="0.4" cy="0.3" r="0.5" id="highcharts-10"><stop offset="0" stop-color="#f7a35c" stop-opacity="1"></stop><stop offset="1" stop-color="rgb(196,112,41)" stop-opacity="1"></stop></radialGradient><radialGradient cx="0.4" cy="0.3" r="0.5" id="highcharts-11"><stop offset="0" stop-color="#90ed7d" stop-opacity="1"></stop><stop offset="1" stop-color="rgb(93,186,74)" stop-opacity="1"></stop></radialGradient><radialGradient cx="0.4" cy="0.3" r="0.5" id="highcharts-12"><stop offset="0" stop-color="#434348" stop-opacity="1"></stop><stop offset="1" stop-color="rgb(16,16,21)" stop-opacity="1"></stop></radialGradient><radialGradient cx="0.4" cy="0.3" r="0.5" id="highcharts-13"><stop offset="0" stop-color="#7cb5ec" stop-opacity="1"></stop><stop offset="1" stop-color="rgb(73,130,185)" stop-opacity="1"></stop></radialGradient></defs><rect x="0" y="0" width="584" height="400" strokeWidth="0" fill="#FFFFFF" class=" highcharts-background" stroke="transparent"></rect><g  style="stroke:rgba(0,0,0,0.0);"><path fill="rgb(0,0,0)" fill-opacity="0.0" d="M 501.1 108.1 L 495.9 286.4 L 496.2 286.2 L 501.4 108.0 Z"  stroke-linejoin="round"></path><path fill="rgb(25,25,25)" fill-opacity="0.0" d="M 501.1 108.1 L 501.4 108.0 L 209.6 92.4 L 209.2 92.5 Z"  stroke-linejoin="round"></path><path fill="rgb(0,0,0)" fill-opacity="0.0" d="M 211.0 250.0 L 495.9 286.4 L 501.1 108.1 L 209.2 92.5 Z"  stroke-linejoin="round"></path></g><g  style="stroke:rgba(0,0,0,0.0);"><path fill="rgb(0,0,0)" fill-opacity="0.0" d="M 84.1 291.8 L 84.8 291.9 L 79.4 110.4 L 78.7 110.4 Z"  stroke-linejoin="round"></path><path fill="rgb(25,25,25)" fill-opacity="0.0" d="M 79.4 110.4 L 209.2 92.5 L 208.5 92.4 L 78.7 110.4 Z"  stroke-linejoin="round"></path><path fill="rgb(0,0,0)" fill-opacity="0.0" d="M 79.4 110.4 L 84.8 291.9 L 211.0 250.0 L 209.2 92.5 Z"  stroke-linejoin="round"></path></g><g  style="stroke:rgba(0,0,0,0.0);"><path fill="rgb(0,0,0)" fill-opacity="0.0" d="M 84.8 291.9 L 400.8 341.5 L 400.8 340.5 L 84.8 291.1 Z"  stroke-linejoin="round"></path><path fill="rgb(0,0,0)" fill-opacity="0.0" d="M 400.8 340.5 L 400.8 341.5 L 495.5 286.6 L 495.6 285.7 Z"  stroke-linejoin="round"></path><path fill="rgb(25,25,25)" fill-opacity="0.0" d="M 400.8 340.5 L 495.6 285.7 L 210.5 249.4 L 84.8 291.1 Z"  stroke-linejoin="round"></path></g><g class="highcharts-grid" ><path fill="none" d="M 208.4 92.5 L 208.4 92.5 L 210.2 249.3 L 84.4 291.0" stroke="#D8D8D8" stroke-width="1"  opacity="1"></path><path fill="none" d="M 274.5 96.1 L 274.5 96.1 L 274.9 257.6 L 155.0 302.0" stroke="#D8D8D8" stroke-width="1"  opacity="1"></path><path fill="none" d="M 344.9 99.8 L 344.9 99.8 L 343.7 266.4 L 230.8 313.9" stroke="#D8D8D8" stroke-width="1"  opacity="1"></path><path fill="none" d="M 420.0 103.8 L 420.0 103.8 L 417.0 275.7 L 312.3 326.7" stroke="#D8D8D8" stroke-width="1"  opacity="1"></path><path fill="none" d="M 501.2 108.2 L 501.2 108.2 L 496.0 285.8 L 401.3 340.6" stroke="#D8D8D8" stroke-width="1"  opacity="1"></path></g><g class="highcharts-grid" ><path fill="none" d="M 84.8 291.5 L 210.5 249.8 L 495.6 286.1 L 495.6 286.1" stroke="#D8D8D8" stroke-width="1"  opacity="1"></path><path fill="none" d="M 82.1 202.4 L 209.7 172.2 L 498.1 198.5 L 498.1 198.5" stroke="#D8D8D8" stroke-width="1"  opacity="1"></path><path fill="none" d="M 79.4 110.0 L 208.7 92.1 L 500.7 107.7 L 500.7 107.7" stroke="#D8D8D8" stroke-width="1"  opacity="1"></path></g><g class="highcharts-axis" ><path fill="none" d="M 100 300.5 L 484 300.5" stroke="#C0D0E0" stroke-width="1"  visibility="hidden"></path></g><g class="highcharts-axis" ></g><g class="highcharts-series-group" ><g class="highcharts-series highcharts-tracker" visibility="visible"  transform="translate(100,100) scale(1 1)" clip-path="url(#highcharts-3)" style=""></g><g class="highcharts-markers highcharts-tracker" visibility="visible"  transform="translate(100,100) scale(1 1)" clip-path="url(#highcharts-2)" style=""><path fill="url(#highcharts-4)" d="M 36 22.3 C 41.3 22.3 41.3 30.3 36 30.3 C 30.6 30.3 30.6 22.3 36 22.3 Z"></path><path fill="url(#highcharts-5)" d="M 175 35.9 C 180.3 35.9 180.3 43.9 175 43.9 C 169.6 43.9 169.6 35.9 175 35.9 Z"></path><path fill="url(#highcharts-6)" d="M 178 77.8 C 183.3 77.8 183.3 85.8 178 85.8 C 172.6 85.8 172.6 77.8 178 77.8 Z"></path><path fill="url(#highcharts-7)" d="M 98 86.3 C 103.3 86.3 103.3 94.3 98 94.3 C 92.6 94.3 92.6 86.3 98 86.3 Z"></path><path fill="url(#highcharts-8)" d="M 222 153.1 C 227.3 153.1 227.3 161.1 222 161.1 C 216.6 161.1 216.6 153.1 222 153.1 Z"></path><path fill="url(#highcharts-9)" d="M 184 154.5 C 189.3 154.5 189.3 162.5 184 162.5 C 178.6 162.5 178.6 154.5 184 154.5 Z"></path><path fill="url(#highcharts-10)" d="M 265 132.3 C 270.3 132.3 270.3 140.3 265 140.3 C 259.6 140.3 259.6 132.3 265 132.3 Z"></path><path fill="url(#highcharts-11)" d="M 264 16.7 C 269.3 16.7 269.3 24.7 264 24.7 C 258.6 24.7 258.6 16.7 264 16.7 Z"></path><path fill="url(#highcharts-12)" d="M 340 27.3 C 345.3 27.3 345.3 35.3 340 35.3 C 334.6 35.3 334.6 27.3 340 27.3 Z"></path><path fill="url(#highcharts-13)" d="M 156 180.9 C 161.3 180.9 161.3 188.9 156 188.9 C 150.6 188.9 150.6 180.9 156 180.9 Z"></path><path fill="url(#highcharts-4)" d="M 117 134.7 C 122.3 134.7 122.3 142.7 117 142.7 C 111.6 142.7 111.6 134.7 117 134.7 Z"></path><path fill="url(#highcharts-5)" d="M 68 126.3 C 73.3 126.3 73.3 134.3 68 134.3 C 62.6 134.3 62.6 126.3 68 126.3 Z"></path><path fill="url(#highcharts-6)" d="M 175 55.6 C 180.3 55.6 180.3 63.6 175 63.6 C 169.6 63.6 169.6 55.6 175 55.6 Z"></path><path fill="url(#highcharts-7)" d="M 150 96.3 C 155.3 96.3 155.3 104.3 150 104.3 C 144.6 104.3 144.6 96.3 150 96.3 Z"></path><path fill="url(#highcharts-8)" d="M 79 58.1 C 84.3 58.1 84.3 66.1 79 66.1 C 73.6 66.1 73.6 58.1 79 58.1 Z"></path><path fill="url(#highcharts-9)" d="M 277 104.9 C 282.3 104.9 282.3 112.9 277 112.9 C 271.6 112.9 271.6 104.9 277 104.9 Z"></path><path fill="url(#highcharts-10)" d="M 156 125.4 C 161.3 125.4 161.3 133.4 156 133.4 C 150.6 133.4 150.6 125.4 156 125.4 Z"></path><path fill="url(#highcharts-11)" d="M 310 74.0 C 315.3 74.0 315.3 82.0 310 82.0 C 304.6 82.0 304.6 74.0 310 74.0 Z"></path><path fill="url(#highcharts-12)" d="M 124 47.5 C 129.3 47.5 129.3 55.5 124 55.5 C 118.6 55.5 118.6 47.5 124 47.5 Z"></path><path fill="url(#highcharts-13)" d="M 222 25.7 C 227.3 25.7 227.3 33.7 222 33.7 C 216.6 33.7 216.6 25.7 222 25.7 Z"></path><path fill="url(#highcharts-4)" d="M 199 180.4 C 204.3 180.4 204.3 188.4 199 188.4 C 193.6 188.4 193.6 180.4 199 180.4 Z"></path><path fill="url(#highcharts-5)" d="M 156 125.4 C 161.3 125.4 161.3 133.4 156 133.4 C 150.6 133.4 150.6 125.4 156 125.4 Z"></path><path fill="url(#highcharts-6)" d="M 326 20.6 C 331.3 20.6 331.3 28.6 326 28.6 C 320.6 28.6 320.6 20.6 326 20.6 Z"></path><path fill="url(#highcharts-7)" d="M 184 69.3 C 189.3 69.3 189.3 77.3 184 77.3 C 178.6 77.3 178.6 69.3 184 69.3 Z"></path><path fill="url(#highcharts-8)" d="M 117 151.4 C 122.3 151.4 122.3 159.4 117 159.4 C 111.6 159.4 111.6 151.4 117 151.4 Z"></path><path fill="url(#highcharts-9)" d="M 107 42.4 C 112.3 42.4 112.3 50.4 107 50.4 C 101.6 50.4 101.6 42.4 107 42.4 Z"></path><path fill="url(#highcharts-10)" d="M 253 156.1 C 258.3 156.1 258.3 164.1 253 164.1 C 247.6 164.1 247.6 156.1 253 156.1 Z"></path><path fill="url(#highcharts-11)" d="M 199 68.6 C 204.3 68.6 204.3 76.6 199 76.6 C 193.6 76.6 193.6 68.6 199 68.6 Z"></path><path fill="url(#highcharts-12)" d="M 51 148.3 C 56.3 148.3 56.3 156.3 51 156.3 C 45.6 156.3 45.6 148.3 51 148.3 Z"></path><path fill="url(#highcharts-13)" d="M 199 49.7 C 204.3 49.7 204.3 57.7 199 57.7 C 193.6 57.7 193.6 49.7 199 49.7 Z"></path><path fill="url(#highcharts-4)" d="M 168 121.4 C 173.3 121.4 173.3 129.4 168 129.4 C 162.6 129.4 162.6 121.4 168 121.4 Z"></path><path fill="url(#highcharts-5)" d="M 144 17.4 C 149.3 17.4 149.3 25.4 144 25.4 C 138.6 25.4 138.6 17.4 144 17.4 Z"></path><path fill="url(#highcharts-6)" d="M 130 114.5 C 135.3 114.5 135.3 122.5 130 122.5 C 124.6 122.5 124.6 114.5 130 114.5 Z"></path><path fill="url(#highcharts-7)" d="M 307 43.6 C 312.3 43.6 312.3 51.6 307 51.6 C 301.6 51.6 301.6 43.6 307 43.6 Z"></path><path fill="url(#highcharts-8)" d="M 167 30.3 C 172.3 30.3 172.3 38.3 167 38.3 C 161.6 38.3 161.6 30.3 167 30.3 Z"></path><path fill="url(#highcharts-9)" d="M 233 166.4 C 238.3 166.4 238.3 174.4 233 174.4 C 227.6 174.4 227.6 166.4 233 166.4 Z"></path><path fill="url(#highcharts-10)" d="M 187 203.9 C 192.3 203.9 192.3 211.9 187 211.9 C 181.6 211.9 181.6 203.9 187 203.9 Z"></path><path fill="url(#highcharts-11)" d="M 65 155.9 C 70.3 155.9 70.3 163.9 65 163.9 C 59.6 163.9 59.6 155.9 65 155.9 Z"></path><path fill="url(#highcharts-12)" d="M 308 188.7 C 313.3 188.7 313.3 196.7 308 196.7 C 302.6 196.7 302.6 188.7 308 188.7 Z"></path><path fill="url(#highcharts-13)" d="M 105 121.5 C 110.3 121.5 110.3 129.5 105 129.5 C 99.6 129.5 99.6 121.5 105 121.5 Z"></path><path fill="url(#highcharts-4)" d="M 99 148.9 C 104.3 148.9 104.3 156.9 99 156.9 C 93.6 156.9 93.6 148.9 99 148.9 Z"></path><path fill="url(#highcharts-5)" d="M 254 97.5 C 259.3 97.5 259.3 105.5 254 105.5 C 248.6 105.5 248.6 97.5 254 97.5 Z"></path><path fill="url(#highcharts-6)" d="M 184 17.2 C 189.3 17.2 189.3 25.2 184 25.2 C 178.6 25.2 178.6 17.2 184 17.2 Z"></path><path fill="url(#highcharts-7)" d="M 229 225.4 C 234.3 225.4 234.3 233.4 229 233.4 C 223.6 233.4 223.6 225.4 229 225.4 Z"></path><path fill="url(#highcharts-8)" d="M 156 32.6 C 161.3 32.6 161.3 40.6 156 40.6 C 150.6 40.6 150.6 32.6 156 32.6 Z"></path><path fill="url(#highcharts-9)" d="M 265 210.9 C 270.3 210.9 270.3 218.9 265 218.9 C 259.6 218.9 259.6 210.9 265 210.9 Z"></path><path fill="url(#highcharts-10)" d="M 266 35.3 C 271.3 35.3 271.3 43.3 266 43.3 C 260.6 43.3 260.6 35.3 266 35.3 Z"></path><path fill="url(#highcharts-11)" d="M 276 165.3 C 281.3 165.3 281.3 173.3 276 173.3 C 270.6 173.3 270.6 165.3 276 165.3 Z"></path><path fill="url(#highcharts-12)" d="M 175 152.5 C 180.3 152.5 180.3 160.5 175 160.5 C 169.6 160.5 169.6 152.5 175 152.5 Z"></path><path fill="url(#highcharts-13)" d="M 254 83.7 C 259.3 83.7 259.3 91.7 254 91.7 C 248.6 91.7 248.6 83.7 254 83.7 Z"></path><path fill="url(#highcharts-4)" d="M 254 38.0 C 259.3 38.0 259.3 46.0 254 46.0 C 248.6 46.0 248.6 38.0 254 38.0 Z"></path><path fill="url(#highcharts-5)" d="M 52 82.3 C 57.3 82.3 57.3 90.3 52 90.3 C 46.6 90.3 46.6 82.3 52 82.3 Z"></path><path fill="url(#highcharts-6)" d="M 167 97.4 C 172.3 97.4 172.3 105.4 167 105.4 C 161.6 105.4 161.6 97.4 167 97.4 Z"></path><path fill="url(#highcharts-7)" d="M 266 46.5 C 271.3 46.5 271.3 54.5 266 54.5 C 260.6 54.5 260.6 46.5 266 46.5 Z"></path><path fill="url(#highcharts-8)" d="M 96 190.3 C 101.3 190.3 101.3 198.3 96 198.3 C 90.6 198.3 90.6 190.3 96 190.3 Z"></path><path fill="url(#highcharts-9)" d="M 330 67.6 C 335.3 67.6 335.3 75.6 330 75.6 C 324.6 75.6 324.6 67.6 330 67.6 Z"></path><path fill="url(#highcharts-10)" d="M 54 173.0 C 59.3 173.0 59.3 181.0 54 181.0 C 48.6 181.0 48.6 173.0 54 173.0 Z"></path><path fill="url(#highcharts-11)" d="M 235 32.0 C 240.3 32.0 240.3 40.0 235 40.0 C 229.6 40.0 229.6 32.0 235 32.0 Z"></path><path fill="url(#highcharts-12)" d="M 80 163.9 C 85.3 163.9 85.3 171.9 80 171.9 C 74.6 171.9 74.6 163.9 80 163.9 Z"></path><path fill="url(#highcharts-13)" d="M 187 203.9 C 192.3 203.9 192.3 211.9 187 211.9 C 181.6 211.9 181.6 203.9 187 203.9 Z"></path><path fill="url(#highcharts-4)" d="M 38 135.5 C 43.3 135.5 43.3 143.5 38 143.5 C 32.6 143.5 32.6 135.5 38 135.5 Z"></path><path fill="url(#highcharts-5)" d="M 108 96.7 C 113.3 96.7 113.3 104.7 108 104.7 C 102.6 104.7 102.6 96.7 108 96.7 Z"></path><path fill="url(#highcharts-6)" d="M 358 40.7 C 363.3 40.7 363.3 48.7 358 48.7 C 352.6 48.7 352.6 40.7 358 40.7 Z"></path><path fill="url(#highcharts-7)" d="M 275 146.9 C 280.3 146.9 280.3 154.9 275 154.9 C 269.6 154.9 269.6 146.9 275 146.9 Z"></path><path fill="url(#highcharts-8)" d="M 277 145.3 C 282.3 145.3 282.3 153.3 277 153.3 C 271.6 153.3 271.6 145.3 277 145.3 Z"></path><path fill="url(#highcharts-9)" d="M 326 38.4 C 331.3 38.4 331.3 46.4 326 46.4 C 320.6 46.4 320.6 38.4 326 38.4 Z"></path><path fill="url(#highcharts-10)" d="M 196 81.7 C 201.3 81.7 201.3 89.7 196 89.7 C 190.6 89.7 190.6 81.7 196 81.7 Z"></path><path fill="url(#highcharts-11)" d="M 274 148.3 C 279.3 148.3 279.3 156.3 274 156.3 C 268.6 156.3 268.6 148.3 274 148.3 Z"></path><path fill="url(#highcharts-12)" d="M 113 181.5 C 118.3 181.5 118.3 189.5 113 189.5 C 107.6 189.5 107.6 181.5 113 181.5 Z"></path><path fill="url(#highcharts-13)" d="M 244 74.6 C 249.3 74.6 249.3 82.6 244 82.6 C 238.6 82.6 238.6 74.6 244 74.6 Z"></path><path fill="url(#highcharts-4)" d="M 222 44.2 C 227.3 44.2 227.3 52.2 222 52.2 C 216.6 52.2 216.6 44.2 222 44.2 Z"></path><path fill="url(#highcharts-5)" d="M 145 155.0 C 150.3 155.0 150.3 163.0 145 163.0 C 139.6 163.0 139.6 155.0 145 155.0 Z"></path><path fill="url(#highcharts-6)" d="M 95 81.9 C 100.3 81.9 100.3 89.9 95 89.9 C 89.6 89.9 89.6 81.9 95 81.9 Z"></path><path fill="url(#highcharts-7)" d="M 125 121.9 C 130.3 121.9 130.3 129.9 125 129.9 C 119.6 129.9 119.6 121.9 125 121.9 Z"></path><path fill="url(#highcharts-8)" d="M 156 150.9 C 161.3 150.9 161.3 158.9 156 158.9 C 150.6 158.9 150.6 150.9 156 150.9 Z"></path><path fill="url(#highcharts-9)" d="M 254 27.8 C 259.3 27.8 259.3 35.8 254 35.8 C 248.6 35.8 248.6 27.8 254 27.8 Z"></path><path fill="url(#highcharts-10)" d="M 178 77.8 C 183.3 77.8 183.3 85.8 178 85.8 C 172.6 85.8 172.6 77.8 178 77.8 Z"></path><path fill="url(#highcharts-11)" d="M 254 106.3 C 259.3 106.3 259.3 114.3 254 114.3 C 248.6 114.3 248.6 106.3 254 106.3 Z"></path><path fill="url(#highcharts-12)" d="M 128 114.4 C 133.3 114.4 133.3 122.4 128 122.4 C 122.6 122.4 122.6 114.4 128 114.4 Z"></path><path fill="url(#highcharts-13)" d="M 116 32.8 C 121.3 32.8 121.3 40.8 116 40.8 C 110.6 40.8 110.6 32.8 116 32.8 Z"></path><path fill="url(#highcharts-4)" d="M 76 140.7 C 81.3 140.7 81.3 148.7 76 148.7 C 70.6 148.7 70.6 140.7 76 140.7 Z"></path><path fill="url(#highcharts-5)" d="M 156 49.7 C 161.3 49.7 161.3 57.7 156 57.7 C 150.6 57.7 150.6 49.7 156 49.7 Z"></path><path fill="url(#highcharts-6)" d="M 184 69.3 C 189.3 69.3 189.3 77.3 184 77.3 C 178.6 77.3 178.6 69.3 184 69.3 Z"></path><path fill="url(#highcharts-7)" d="M 10 73.6 C 15.3 73.6 15.3 81.6 10 81.6 C 4.6 81.6 4.6 73.6 10 73.6 Z"></path><path fill="url(#highcharts-8)" d="M 293 140.2 C 298.3 140.2 298.3 148.2 293 148.2 C 287.6 148.2 287.6 140.2 293 140.2 Z"></path><path fill="url(#highcharts-9)" d="M 294 53.8 C 299.3 53.8 299.3 61.8 294 61.8 C 288.6 61.8 288.6 53.8 294 53.8 Z"></path><path fill="url(#highcharts-10)" d="M -19 61.6 C -13.6 61.6 -13.6 69.6 -19 69.6 C -24.3 69.6 -24.3 61.6 -19 61.6 Z"></path><path fill="url(#highcharts-11)" d="M 264 16.7 C 269.3 16.7 269.3 24.7 264 24.7 C 258.6 24.7 258.6 16.7 264 16.7 Z"></path><path fill="url(#highcharts-12)" d="M 80 129.0 C 85.3 129.0 85.3 137.0 80 137.0 C 74.6 137.0 74.6 129.0 80 129.0 Z"></path><path fill="url(#highcharts-13)" d="M 149 23.9 C 154.3 23.9 154.3 31.9 149 31.9 C 143.6 31.9 143.6 23.9 149 23.9 Z"></path><path fill="url(#highcharts-4)" d="M 133 72.6 C 138.3 72.6 138.3 80.6 133 80.6 C 127.6 80.6 127.6 72.6 133 72.6 Z"></path><path fill="url(#highcharts-5)" d="M 167 13.3 C 172.3 13.3 172.3 21.3 167 21.3 C 161.6 21.3 161.6 13.3 167 13.3 Z"></path><path fill="url(#highcharts-6)" d="M 80 129.0 C 85.3 129.0 85.3 137.0 80 137.0 C 74.6 137.0 74.6 129.0 80 129.0 Z"></path><path fill="url(#highcharts-7)" d="M 253 193.0 C 258.3 193.0 258.3 201.0 253 201.0 C 247.6 201.0 247.6 193.0 253 193.0 Z"></path><path fill="url(#highcharts-8)" d="M 233 23.3 C 238.3 23.3 238.3 31.3 233 31.3 C 227.6 31.3 227.6 23.3 233 23.3 Z"></path><path fill="url(#highcharts-9)" d="M 214 54.4 C 219.3 54.4 219.3 62.4 214 62.4 C 208.6 62.4 208.6 54.4 214 54.4 Z"></path><path fill="url(#highcharts-10)" d="M 195 66.5 C 200.3 66.5 200.3 74.5 195 74.5 C 189.6 74.5 189.6 66.5 195 66.5 Z"></path><path fill="url(#highcharts-11)" d="M 65 121.9 C 70.3 121.9 70.3 129.9 65 129.9 C 59.6 129.9 59.6 121.9 65 121.9 Z"></path><path fill="url(#highcharts-12)" d="M 326 56.2 C 331.3 56.2 331.3 64.2 326 64.2 C 320.6 64.2 320.6 56.2 326 56.2 Z"></path><path fill="url(#highcharts-13)" d="M 77 67.4 C 82.3 67.4 82.3 75.4 77 75.4 C 71.6 75.4 71.6 67.4 77 67.4 Z"></path></g></g><text x="292" text-anchor="middle" class="highcharts-title"  style="color:#333333;font-size:18px;fill:#333333;width:520px;" y="24"><tspan>Draggable box</tspan></text><text x="292" text-anchor="middle" class="highcharts-subtitle"  style="color:#555555;fill:#555555;width:520px;" y="46"><tspan>Click and drag the plot area to rotate in space</tspan></text><g class="highcharts-axis-labels highcharts-xaxis-labels" ><text x="85.3" style="color:#606060;cursor:default;font-size:11px;fill:#606060;width:67px;text-overflow:clip;" text-anchor="middle" transform="translate(0,0)" y="307.7" z="133.5" opacity="1">0</text><text x="155.7" style="color:#606060;cursor:default;font-size:11px;fill:#606060;width:67px;text-overflow:clip;" text-anchor="middle" transform="translate(0,0)" y="319.4" z="86.3" opacity="1">2.5</text><text x="231.3" style="color:#606060;cursor:default;font-size:11px;fill:#606060;width:67px;text-overflow:clip;" text-anchor="middle" transform="translate(0,0)" y="331.8" z="39.0" opacity="1">5</text><text x="312.7" style="color:#606060;cursor:default;font-size:11px;fill:#606060;width:67px;text-overflow:clip;" text-anchor="middle" transform="translate(0,0)" y="345.2" z="-8.2" opacity="1">7.5</text><text x="400.5" style="color:#606060;cursor:default;font-size:11px;fill:#606060;width:67px;text-overflow:clip;" text-anchor="middle" transform="translate(0,0)" y="359.7" z="-55.4" opacity="1">10</text></g><g class="highcharts-axis-labels highcharts-yaxis-labels" ><text x="74.3" style="color:#606060;cursor:default;font-size:11px;fill:#606060;width:80px;text-overflow:clip;" text-anchor="end" transform="translate(0,0)" y="293.8" z="138.5" opacity="1">0</text><text x="71.6" style="color:#606060;cursor:default;font-size:11px;fill:#606060;width:80px;text-overflow:clip;" text-anchor="end" transform="translate(0,0)" y="205.2" z="121.1" opacity="1">5</text><text x="68.7" style="color:#606060;cursor:default;font-size:11px;fill:#606060;width:80px;text-overflow:clip;" text-anchor="end" transform="translate(0,0)" y="114.3" z="103.8" opacity="1">10</text></g><g class="highcharts-tooltip"  style="cursor:default;padding:0;white-space:nowrap;" transform="translate(0,-9999)"><path fill="none" d="M 3 0 L 13 0 C 16 0 16 0 16 3 L 16 13 C 16 16 16 16 13 16 L 3 16 C 0 16 0 16 0 13 L 0 3 C 0 0 0 0 3 0"  stroke="black" stroke-opacity="0.0" stroke-width="5" transform="translate(1, 1)"></path><path fill="none" d="M 3 0 L 13 0 C 16 0 16 0 16 3 L 16 13 C 16 16 16 16 13 16 L 3 16 C 0 16 0 16 0 13 L 0 3 C 0 0 0 0 3 0"  stroke="black" stroke-opacity="0.0" stroke-width="3" transform="translate(1, 1)"></path><path fill="none" d="M 3 0 L 13 0 C 16 0 16 0 16 3 L 16 13 C 16 16 16 16 13 16 L 3 16 C 0 16 0 16 0 13 L 0 3 C 0 0 0 0 3 0"  stroke="black" stroke-opacity="0.1" stroke-width="1" transform="translate(1, 1)"></path><path fill="rgb(249, 249, 249)" fill-opacity=" .85" d="M 3 0 L 13 0 C 16 0 16 0 16 3 L 16 13 C 16 16 16 16 13 16 L 3 16 C 0 16 0 16 0 13 L 0 3 C 0 0 0 0 3 0"></path><text x="8"  style="font-size:12px;color:#333333;fill:#333333;" transform="translate(0,20)"></text></g></svg>