<svg version="1.1" style="font-family:&quot;lucida grande&quot;, &quot;lucida sans unicode&quot;, arial, helvetica, sans-serif;font-size:12px;" xmlns="http://www.w3.org/2000/svg" width="584" height="400" viewBox="0 0 584 400"><desc>Created with Highcharts 4.1.4</desc><defs><clipPath id="highcharts-1"><rect x="0" y="0" width="533" height="317"></rect></clipPath><clipPath id="highcharts-2"><rect x="-99" y="-47" width="632" height="400"></rect></clipPath><clipPath id="highcharts-3"><rect x="0" y="0" width="533" height="317"></rect></clipPath></defs><rect x="0" y="0" width="584" height="400" strokeWidth="0" fill="#FFFFFF" class=" highcharts-background"></rect><g class="highcharts-grid" ></g><g class="highcharts-grid" ><path fill="none" d="M 41 364.5 L 574 364.5" stroke="#D8D8D8" stroke-width="1"  opacity="1"></path><path fill="none" d="M 41 311.5 L 574 311.5" stroke="#D8D8D8" stroke-width="1"  opacity="1"></path><path fill="none" d="M 41 258.5 L 574 258.5" stroke="#D8D8D8" stroke-width="1"  opacity="1"></path><path fill="none" d="M 41 206.5 L 574 206.5" stroke="#D8D8D8" stroke-width="1"  opacity="1"></path><path fill="none" d="M 41 153.5 L 574 153.5" stroke="#D8D8D8" stroke-width="1"  opacity="1"></path><path fill="none" d="M 41 100.5 L 574 100.5" stroke="#D8D8D8" stroke-width="1"  opacity="1"></path><path fill="none" d="M 41 46.5 L 574 46.5" stroke="#D8D8D8" stroke-width="1"  opacity="1"></path></g><g class="highcharts-axis" ><path fill="none" d="M 45.5 364 L 45.5 374" stroke="#C0D0E0" stroke-width="1" opacity="1"></path><path fill="none" d="M 130.5 364 L 130.5 374" stroke="#C0D0E0" stroke-width="1" opacity="1"></path><path fill="none" d="M 217.5 364 L 217.5 374" stroke="#C0D0E0" stroke-width="1" opacity="1"></path><path fill="none" d="M 305.5 364 L 305.5 374" stroke="#C0D0E0" stroke-width="1" opacity="1"></path><path fill="none" d="M 394.5 364 L 394.5 374" stroke="#C0D0E0" stroke-width="1" opacity="1"></path><path fill="none" d="M 482.5 364 L 482.5 374" stroke="#C0D0E0" stroke-width="1" opacity="1"></path><path fill="none" d="M 569.5 364 L 569.5 374" stroke="#C0D0E0" stroke-width="1" opacity="1"></path><path fill="none" d="M 41 364.5 L 574 364.5" stroke="#C0D0E0" stroke-width="1"  visibility="visible"></path></g><g class="highcharts-axis" ></g><g class="highcharts-series-group" ><g class="highcharts-series" visibility="visible"  transform="translate(41,47) scale(1 1)" clip-path="url(#highcharts-3)"><path fill="rgb(124,181,236)" fill-opacity="0.7" d="M 5.2 241.9 L 6.6 232.9 L 8.0 213.9 L 9.5 258.3 L 10.9 262.5 L 12.4 229.2 L 13.8 231.9 L 15.2 224.0 L 16.7 191.2 L 18.1 194.9 L 19.5 211.3 L 21.0 181.7 L 22.4 192.3 L 23.8 230.3 L 25.3 243.0 L 26.7 231.4 L 28.1 203.4 L 29.6 211.3 L 31.0 217.1 L 32.5 208.6 L 33.9 211.3 L 35.3 214.5 L 36.8 207.1 L 38.2 208.1 L 39.6 231.9 L 41.1 234.0 L 42.5 243.5 L 43.9 212.9 L 45.4 226.6 L 46.8 232.4 L 48.2 234.5 L 49.7 237.7 L 51.1 238.8 L 52.5 244.6 L 54.0 239.8 L 55.4 222.4 L 56.9 235.6 L 58.3 239.8 L 59.7 257.2 L 61.2 238.8 L 62.6 256.7 L 64.0 256.2 L 65.5 236.6 L 66.9 255.1 L 68.3 256.7 L 69.8 228.2 L 71.2 215.0 L 72.6 210.2 L 74.1 211.3 L 75.5 204.9 L 77.0 204.4 L 78.4 206.0 L 79.8 205.5 L 81.3 206.0 L 82.7 206.5 L 84.1 203.4 L 85.6 208.6 L 87.0 237.2 L 88.4 239.8 L 89.9 221.3 L 91.3 206.5 L 92.7 202.3 L 94.2 211.3 L 95.6 198.1 L 97.1 200.2 L 98.5 203.4 L 99.9 208.1 L 101.4 201.2 L 102.8 201.8 L 104.2 210.2 L 105.7 212.9 L 107.1 202.8 L 108.5 213.4 L 110.0 221.9 L 111.4 199.7 L 112.8 211.3 L 114.3 207.1 L 115.7 220.3 L 117.2 221.9 L 118.6 212.9 L 120.0 202.3 L 121.5 215.5 L 122.9 229.8 L 124.3 225.0 L 125.8 215.0 L 127.2 226.1 L 128.6 226.6 L 130.1 209.7 L 131.4 208.6 L 132.9 202.8 L 134.3 218.7 L 135.8 196.5 L 137.2 193.3 L 138.6 208.1 L 140.1 182.2 L 141.5 193.8 L 142.9 208.1 L 144.4 195.4 L 145.8 176.4 L 147.2 181.7 L 148.7 181.7 L 150.1 189.6 L 151.5 209.2 L 153.0 208.6 L 154.4 191.2 L 155.9 179.6 L 157.3 190.7 L 158.7 207.1 L 160.2 196.0 L 161.6 173.8 L 163.0 198.6 L 164.5 186.5 L 165.9 200.7 L 167.3 161.1 L 168.8 193.3 L 170.2 175.9 L 171.6 185.4 L 173.1 166.9 L 174.5 189.6 L 175.9 176.4 L 177.4 165.3 L 178.8 162.7 L 180.3 178.5 L 181.7 211.3 L 183.1 187.5 L 184.6 194.4 L 186.0 194.9 L 187.4 177.5 L 188.9 184.9 L 190.3 185.9 L 191.7 192.8 L 193.2 187.5 L 194.6 200.7 L 196.0 188.6 L 197.5 187.5 L 198.9 169.0 L 200.4 172.2 L 201.8 166.9 L 203.2 167.4 L 204.7 167.4 L 206.1 175.9 L 207.5 171.1 L 209.0 176.4 L 210.4 165.3 L 211.8 164.3 L 213.3 166.9 L 214.7 180.1 L 216.1 184.3 L 217.6 167.4 L 219.0 178.5 L 220.5 170.1 L 221.9 172.7 L 223.3 165.3 L 224.8 172.7 L 226.2 190.7 L 227.6 177.5 L 229.1 196.0 L 230.5 190.7 L 231.9 176.9 L 233.4 169.0 L 234.8 170.1 L 236.2 165.8 L 237.7 168.0 L 239.1 161.1 L 240.5 181.2 L 242.0 174.3 L 243.4 188.6 L 244.9 192.3 L 246.3 154.2 L 247.7 165.8 L 249.2 154.8 L 250.6 160.0 L 252.0 159.5 L 253.5 143.7 L 254.9 165.8 L 256.3 153.7 L 257.8 140.0 L 259.2 145.2 L 260.6 137.3 L 262.1 132.6 L 263.5 122.0 L 265.0 135.7 L 266.4 134.7 L 267.8 129.4 L 269.3 123.1 L 270.7 124.1 L 272.1 117.2 L 273.6 140.0 L 275.0 155.8 L 276.4 162.7 L 277.9 150.0 L 279.3 154.8 L 280.7 153.2 L 282.2 150.0 L 283.6 148.9 L 285.1 144.7 L 286.5 139.4 L 287.9 151.1 L 289.4 141.5 L 290.8 136.3 L 292.2 142.1 L 293.7 146.8 L 295.1 147.9 L 296.5 147.9 L 298.0 144.2 L 299.4 145.8 L 300.8 144.7 L 302.3 148.4 L 303.7 153.2 L 305.2 154.2 L 306.6 148.9 L 308.0 154.2 L 309.5 163.7 L 310.9 153.2 L 312.3 144.7 L 313.8 134.7 L 315.2 148.4 L 316.6 126.8 L 318.1 138.4 L 319.5 138.9 L 320.9 139.4 L 322.4 155.8 L 323.8 143.7 L 325.2 148.4 L 326.7 153.7 L 328.1 164.8 L 329.6 172.7 L 331.0 154.8 L 332.4 146.3 L 333.9 159.0 L 335.3 170.6 L 336.7 144.2 L 338.2 143.7 L 339.6 155.3 L 341.0 151.6 L 342.5 151.6 L 342.5 138.4 L 341.0 113.5 L 339.6 117.8 L 338.2 104.0 L 336.7 71.3 L 335.3 126.8 L 333.9 114.1 L 332.4 118.8 L 331.0 137.3 L 329.6 139.4 L 328.1 122.5 L 326.7 124.6 L 325.2 114.1 L 323.8 114.1 L 322.4 93.5 L 320.9 94.5 L 319.5 97.7 L 318.1 80.3 L 316.6 97.7 L 315.2 84.5 L 313.8 91.4 L 312.3 92.4 L 310.9 104.6 L 309.5 106.1 L 308.0 126.2 L 306.6 113.5 L 305.2 117.2 L 303.7 109.3 L 302.3 104.6 L 300.8 106.1 L 299.4 108.8 L 298.0 114.6 L 296.5 120.9 L 295.1 101.4 L 293.7 129.4 L 292.2 120.9 L 290.8 97.2 L 289.4 79.2 L 287.9 91.9 L 286.5 107.7 L 285.1 92.9 L 283.6 101.9 L 282.2 86.1 L 280.7 88.2 L 279.3 86.1 L 277.9 96.1 L 276.4 85.5 L 275.0 98.2 L 273.6 80.3 L 272.1 75.5 L 270.7 79.2 L 269.3 49.1 L 267.8 54.9 L 266.4 64.4 L 265.0 64.9 L 263.5 92.4 L 262.1 55.4 L 260.6 62.8 L 259.2 88.7 L 257.8 63.4 L 256.3 70.7 L 254.9 84.0 L 253.5 108.3 L 252.0 102.4 L 250.6 111.4 L 249.2 121.5 L 247.7 125.2 L 246.3 132.0 L 244.9 110.4 L 243.4 127.8 L 242.0 122.0 L 240.5 112.5 L 239.1 121.5 L 237.7 115.1 L 236.2 130.4 L 234.8 125.7 L 233.4 136.3 L 231.9 122.5 L 230.5 116.7 L 229.1 116.7 L 227.6 119.9 L 226.2 129.4 L 224.8 137.8 L 223.3 125.7 L 221.9 96.6 L 220.5 91.9 L 219.0 91.9 L 217.6 126.8 L 216.1 122.0 L 214.7 136.3 L 213.3 150.5 L 211.8 117.8 L 210.4 117.8 L 209.0 119.9 L 207.5 118.8 L 206.1 121.5 L 204.7 116.7 L 203.2 131.0 L 201.8 117.8 L 200.4 101.9 L 198.9 101.9 L 197.5 112.0 L 196.0 114.6 L 194.6 121.5 L 193.2 132.0 L 191.7 142.6 L 190.3 150.5 L 188.9 140.0 L 187.4 134.1 L 186.0 138.9 L 184.6 135.7 L 183.1 152.1 L 181.7 140.5 L 180.3 143.1 L 178.8 124.6 L 177.4 98.2 L 175.9 106.1 L 174.5 113.0 L 173.1 130.4 L 171.6 127.8 L 170.2 110.4 L 168.8 123.1 L 167.3 119.4 L 165.9 125.2 L 164.5 143.1 L 163.0 143.1 L 161.6 146.8 L 160.2 119.9 L 158.7 135.7 L 157.3 137.8 L 155.9 150.0 L 154.4 128.9 L 153.0 139.4 L 151.5 148.9 L 150.1 158.5 L 148.7 131.0 L 147.2 156.9 L 145.8 131.0 L 144.4 138.9 L 142.9 140.0 L 141.5 167.4 L 140.1 167.4 L 138.6 140.0 L 137.2 147.9 L 135.8 175.4 L 134.3 172.7 L 132.9 186.5 L 131.4 171.7 L 130.1 174.3 L 128.6 179.1 L 127.2 179.6 L 125.8 169.0 L 124.3 184.9 L 122.9 181.2 L 121.5 181.2 L 120.0 180.1 L 118.6 181.2 L 117.2 178.0 L 115.7 171.7 L 114.3 162.1 L 112.8 173.2 L 111.4 175.9 L 110.0 182.8 L 108.5 164.8 L 107.1 167.4 L 105.7 180.1 L 104.2 165.8 L 102.8 174.3 L 101.4 161.6 L 99.9 169.5 L 98.5 174.8 L 97.1 181.7 L 95.6 170.6 L 94.2 163.2 L 92.7 168.5 L 91.3 168.5 L 89.9 190.2 L 88.4 203.9 L 87.0 191.2 L 85.6 182.8 L 84.1 188.6 L 82.7 191.7 L 81.3 176.9 L 79.8 182.2 L 78.4 199.1 L 77.0 181.2 L 75.5 187.5 L 74.1 190.7 L 72.6 194.4 L 71.2 189.6 L 69.8 203.4 L 68.3 205.5 L 66.9 203.9 L 65.5 202.3 L 64.0 210.8 L 62.6 222.9 L 61.2 204.4 L 59.7 225.0 L 58.3 208.1 L 56.9 203.4 L 55.4 203.9 L 54.0 214.5 L 52.5 214.5 L 51.1 223.4 L 49.7 225.5 L 48.2 221.3 L 46.8 216.6 L 45.4 197.0 L 43.9 201.2 L 42.5 213.4 L 41.1 200.7 L 39.6 203.9 L 38.2 188.0 L 36.8 186.5 L 35.3 200.2 L 33.9 198.1 L 32.5 184.3 L 31.0 192.3 L 29.6 187.5 L 28.1 189.1 L 26.7 198.6 L 25.3 219.2 L 23.8 191.2 L 22.4 176.9 L 21.0 161.6 L 19.5 171.1 L 18.1 175.4 L 16.7 174.8 L 15.2 175.9 L 13.8 212.3 L 12.4 194.4 L 10.9 230.8 L 9.5 215.0 L 8.0 189.6 L 6.6 203.9 L 5.2 210.8 M 345.3 158.5 L 346.8 160.6 L 348.2 144.2 L 349.7 152.6 L 351.1 148.4 L 352.5 154.2 L 354.0 150.5 L 355.4 158.5 L 356.8 162.1 L 358.3 152.6 L 359.7 156.3 L 359.7 148.9 L 358.3 116.2 L 356.8 122.5 L 355.4 138.9 L 354.0 133.1 L 352.5 144.7 L 351.1 130.4 L 349.7 120.9 L 348.2 138.4 L 346.8 124.1 L 345.3 131.5 M 362.6 154.2 L 364.0 163.7 L 365.4 151.1 L 366.9 160.0 L 368.3 156.3 L 369.8 158.5 L 371.2 167.4 L 372.6 179.1 L 374.1 182.2 L 375.5 166.4 L 376.9 164.8 L 378.4 161.6 L 379.8 175.9 L 381.2 162.1 L 382.7 166.9 L 384.1 161.1 L 385.5 170.6 L 387.0 173.8 L 388.4 158.5 L 389.8 137.8 L 391.3 169.0 L 392.7 188.0 L 394.2 186.5 L 394.2 174.8 L 392.7 164.3 L 391.3 131.5 L 389.8 126.8 L 388.4 127.8 L 387.0 148.4 L 385.5 152.6 L 384.1 131.0 L 382.7 132.0 L 381.2 132.6 L 379.8 120.9 L 378.4 128.9 L 376.9 143.7 L 375.5 139.4 L 374.1 135.2 L 372.6 128.3 L 371.2 118.8 L 369.8 139.4 L 368.3 137.3 L 366.9 128.9 L 365.4 123.6 L 364.0 142.1 L 362.6 133.6 M 398.5 192.3 L 399.9 195.4 L 401.3 196.5 L 402.8 203.4 L 404.2 208.6 L 405.6 193.8 L 407.1 193.3 L 408.5 207.6 L 409.9 224.5 L 411.4 209.2 L 412.8 210.2 L 414.3 224.5 L 415.7 227.7 L 417.1 199.1 L 418.6 188.0 L 420.0 210.2 L 421.4 217.6 L 422.9 196.5 L 424.3 215.5 L 425.7 206.0 L 427.2 204.4 L 428.6 196.0 L 430.0 186.5 L 431.5 193.8 L 433.0 211.3 L 434.4 211.3 L 435.8 217.1 L 437.3 218.2 L 438.7 209.7 L 440.2 215.0 L 441.6 187.5 L 443.0 211.3 L 444.5 211.3 L 445.9 211.3 L 447.3 222.9 L 448.8 225.0 L 450.2 220.3 L 451.6 211.3 L 453.1 221.3 L 454.5 225.0 L 455.9 225.0 L 457.4 234.5 L 458.8 238.8 L 458.8 210.2 L 457.4 220.3 L 455.9 204.9 L 454.5 212.3 L 453.1 207.1 L 451.6 183.8 L 450.2 156.9 L 448.8 202.3 L 447.3 183.8 L 445.9 175.9 L 444.5 211.3 L 443.0 188.0 L 441.6 172.7 L 440.2 185.4 L 438.7 188.6 L 437.3 187.5 L 435.8 182.8 L 434.4 200.7 L 433.0 173.8 L 431.5 154.2 L 430.0 163.7 L 428.6 151.1 L 427.2 189.1 L 425.7 160.0 L 424.3 173.2 L 422.9 177.5 L 421.4 173.2 L 420.0 170.1 L 418.6 154.2 L 417.1 166.4 L 415.7 182.8 L 414.3 183.3 L 412.8 160.6 L 411.4 166.4 L 409.9 178.5 L 408.5 175.9 L 407.1 183.3 L 405.6 163.2 L 404.2 180.6 L 402.8 171.7 L 401.3 163.7 L 399.9 175.4 L 398.5 192.3 M 461.7 204.4 L 463.1 211.8 L 464.6 202.3 L 466.0 187.5 L 467.4 185.9 L 468.9 185.4 L 470.3 198.6 L 471.7 198.6 L 473.2 201.2 L 474.6 196.0 L 476.0 196.0 L 477.5 190.7 L 478.9 207.1 L 480.4 211.3 L 481.8 203.4 L 483.2 231.4 L 484.7 228.7 L 486.1 226.1 L 487.5 225.5 L 489.0 215.0 L 490.4 209.7 L 491.8 196.0 L 493.3 211.3 L 494.7 208.1 L 496.1 210.8 L 497.6 196.5 L 499.0 217.6 L 500.4 232.4 L 501.9 215.0 L 503.3 208.6 L 504.8 216.6 L 506.2 252.5 L 507.6 274.2 L 509.1 282.6 L 510.5 252.5 L 511.9 270.5 L 513.4 280.5 L 514.8 281.0 L 516.2 268.9 L 517.7 255.7 L 519.1 243.5 L 520.5 225.0 L 522.0 226.6 L 523.4 225.5 L 524.9 268.3 L 526.3 269.9 L 527.7 275.7 L 527.7 245.6 L 526.3 253.6 L 524.9 218.2 L 523.4 207.6 L 522.0 207.6 L 520.5 217.6 L 519.1 217.6 L 517.7 219.2 L 516.2 252.0 L 514.8 238.8 L 513.4 249.3 L 511.9 214.5 L 510.5 220.3 L 509.1 253.0 L 507.6 253.0 L 506.2 216.6 L 504.8 203.4 L 503.3 202.8 L 501.9 207.6 L 500.4 213.4 L 499.0 199.7 L 497.6 190.7 L 496.1 184.3 L 494.7 196.5 L 493.3 175.4 L 491.8 159.5 L 490.4 179.1 L 489.0 189.1 L 487.5 191.2 L 486.1 215.0 L 484.7 202.3 L 483.2 203.4 L 481.8 193.3 L 480.4 185.9 L 478.9 181.2 L 477.5 171.1 L 476.0 185.4 L 474.6 181.2 L 473.2 183.8 L 471.7 187.0 L 470.3 165.8 L 468.9 156.3 L 467.4 180.1 L 466.0 178.0 L 464.6 180.1 L 463.1 190.7 L 461.7 164.3" ></path><path fill="none" d="M 5.2 241.9 L 6.6 232.9 L 8.0 213.9 L 9.5 258.3 L 10.9 262.5 L 12.4 229.2 L 13.8 231.9 L 15.2 224.0 L 16.7 191.2 L 18.1 194.9 L 19.5 211.3 L 21.0 181.7 L 22.4 192.3 L 23.8 230.3 L 25.3 243.0 L 26.7 231.4 L 28.1 203.4 L 29.6 211.3 L 31.0 217.1 L 32.5 208.6 L 33.9 211.3 L 35.3 214.5 L 36.8 207.1 L 38.2 208.1 L 39.6 231.9 L 41.1 234.0 L 42.5 243.5 L 43.9 212.9 L 45.4 226.6 L 46.8 232.4 L 48.2 234.5 L 49.7 237.7 L 51.1 238.8 L 52.5 244.6 L 54.0 239.8 L 55.4 222.4 L 56.9 235.6 L 58.3 239.8 L 59.7 257.2 L 61.2 238.8 L 62.6 256.7 L 64.0 256.2 L 65.5 236.6 L 66.9 255.1 L 68.3 256.7 L 69.8 228.2 L 71.2 215.0 L 72.6 210.2 L 74.1 211.3 L 75.5 204.9 L 77.0 204.4 L 78.4 206.0 L 79.8 205.5 L 81.3 206.0 L 82.7 206.5 L 84.1 203.4 L 85.6 208.6 L 87.0 237.2 L 88.4 239.8 L 89.9 221.3 L 91.3 206.5 L 92.7 202.3 L 94.2 211.3 L 95.6 198.1 L 97.1 200.2 L 98.5 203.4 L 99.9 208.1 L 101.4 201.2 L 102.8 201.8 L 104.2 210.2 L 105.7 212.9 L 107.1 202.8 L 108.5 213.4 L 110.0 221.9 L 111.4 199.7 L 112.8 211.3 L 114.3 207.1 L 115.7 220.3 L 117.2 221.9 L 118.6 212.9 L 120.0 202.3 L 121.5 215.5 L 122.9 229.8 L 124.3 225.0 L 125.8 215.0 L 127.2 226.1 L 128.6 226.6 L 130.1 209.7 L 131.4 208.6 L 132.9 202.8 L 134.3 218.7 L 135.8 196.5 L 137.2 193.3 L 138.6 208.1 L 140.1 182.2 L 141.5 193.8 L 142.9 208.1 L 144.4 195.4 L 145.8 176.4 L 147.2 181.7 L 148.7 181.7 L 150.1 189.6 L 151.5 209.2 L 153.0 208.6 L 154.4 191.2 L 155.9 179.6 L 157.3 190.7 L 158.7 207.1 L 160.2 196.0 L 161.6 173.8 L 163.0 198.6 L 164.5 186.5 L 165.9 200.7 L 167.3 161.1 L 168.8 193.3 L 170.2 175.9 L 171.6 185.4 L 173.1 166.9 L 174.5 189.6 L 175.9 176.4 L 177.4 165.3 L 178.8 162.7 L 180.3 178.5 L 181.7 211.3 L 183.1 187.5 L 184.6 194.4 L 186.0 194.9 L 187.4 177.5 L 188.9 184.9 L 190.3 185.9 L 191.7 192.8 L 193.2 187.5 L 194.6 200.7 L 196.0 188.6 L 197.5 187.5 L 198.9 169.0 L 200.4 172.2 L 201.8 166.9 L 203.2 167.4 L 204.7 167.4 L 206.1 175.9 L 207.5 171.1 L 209.0 176.4 L 210.4 165.3 L 211.8 164.3 L 213.3 166.9 L 214.7 180.1 L 216.1 184.3 L 217.6 167.4 L 219.0 178.5 L 220.5 170.1 L 221.9 172.7 L 223.3 165.3 L 224.8 172.7 L 226.2 190.7 L 227.6 177.5 L 229.1 196.0 L 230.5 190.7 L 231.9 176.9 L 233.4 169.0 L 234.8 170.1 L 236.2 165.8 L 237.7 168.0 L 239.1 161.1 L 240.5 181.2 L 242.0 174.3 L 243.4 188.6 L 244.9 192.3 L 246.3 154.2 L 247.7 165.8 L 249.2 154.8 L 250.6 160.0 L 252.0 159.5 L 253.5 143.7 L 254.9 165.8 L 256.3 153.7 L 257.8 140.0 L 259.2 145.2 L 260.6 137.3 L 262.1 132.6 L 263.5 122.0 L 265.0 135.7 L 266.4 134.7 L 267.8 129.4 L 269.3 123.1 L 270.7 124.1 L 272.1 117.2 L 273.6 140.0 L 275.0 155.8 L 276.4 162.7 L 277.9 150.0 L 279.3 154.8 L 280.7 153.2 L 282.2 150.0 L 283.6 148.9 L 285.1 144.7 L 286.5 139.4 L 287.9 151.1 L 289.4 141.5 L 290.8 136.3 L 292.2 142.1 L 293.7 146.8 L 295.1 147.9 L 296.5 147.9 L 298.0 144.2 L 299.4 145.8 L 300.8 144.7 L 302.3 148.4 L 303.7 153.2 L 305.2 154.2 L 306.6 148.9 L 308.0 154.2 L 309.5 163.7 L 310.9 153.2 L 312.3 144.7 L 313.8 134.7 L 315.2 148.4 L 316.6 126.8 L 318.1 138.4 L 319.5 138.9 L 320.9 139.4 L 322.4 155.8 L 323.8 143.7 L 325.2 148.4 L 326.7 153.7 L 328.1 164.8 L 329.6 172.7 L 331.0 154.8 L 332.4 146.3 L 333.9 159.0 L 335.3 170.6 L 336.7 144.2 L 338.2 143.7 L 339.6 155.3 L 341.0 151.6 L 342.5 151.6 M 342.5 138.4 L 341.0 113.5 L 339.6 117.8 L 338.2 104.0 L 336.7 71.3 L 335.3 126.8 L 333.9 114.1 L 332.4 118.8 L 331.0 137.3 L 329.6 139.4 L 328.1 122.5 L 326.7 124.6 L 325.2 114.1 L 323.8 114.1 L 322.4 93.5 L 320.9 94.5 L 319.5 97.7 L 318.1 80.3 L 316.6 97.7 L 315.2 84.5 L 313.8 91.4 L 312.3 92.4 L 310.9 104.6 L 309.5 106.1 L 308.0 126.2 L 306.6 113.5 L 305.2 117.2 L 303.7 109.3 L 302.3 104.6 L 300.8 106.1 L 299.4 108.8 L 298.0 114.6 L 296.5 120.9 L 295.1 101.4 L 293.7 129.4 L 292.2 120.9 L 290.8 97.2 L 289.4 79.2 L 287.9 91.9 L 286.5 107.7 L 285.1 92.9 L 283.6 101.9 L 282.2 86.1 L 280.7 88.2 L 279.3 86.1 L 277.9 96.1 L 276.4 85.5 L 275.0 98.2 L 273.6 80.3 L 272.1 75.5 L 270.7 79.2 L 269.3 49.1 L 267.8 54.9 L 266.4 64.4 L 265.0 64.9 L 263.5 92.4 L 262.1 55.4 L 260.6 62.8 L 259.2 88.7 L 257.8 63.4 L 256.3 70.7 L 254.9 84.0 L 253.5 108.3 L 252.0 102.4 L 250.6 111.4 L 249.2 121.5 L 247.7 125.2 L 246.3 132.0 L 244.9 110.4 L 243.4 127.8 L 242.0 122.0 L 240.5 112.5 L 239.1 121.5 L 237.7 115.1 L 236.2 130.4 L 234.8 125.7 L 233.4 136.3 L 231.9 122.5 L 230.5 116.7 L 229.1 116.7 L 227.6 119.9 L 226.2 129.4 L 224.8 137.8 L 223.3 125.7 L 221.9 96.6 L 220.5 91.9 L 219.0 91.9 L 217.6 126.8 L 216.1 122.0 L 214.7 136.3 L 213.3 150.5 L 211.8 117.8 L 210.4 117.8 L 209.0 119.9 L 207.5 118.8 L 206.1 121.5 L 204.7 116.7 L 203.2 131.0 L 201.8 117.8 L 200.4 101.9 L 198.9 101.9 L 197.5 112.0 L 196.0 114.6 L 194.6 121.5 L 193.2 132.0 L 191.7 142.6 L 190.3 150.5 L 188.9 140.0 L 187.4 134.1 L 186.0 138.9 L 184.6 135.7 L 183.1 152.1 L 181.7 140.5 L 180.3 143.1 L 178.8 124.6 L 177.4 98.2 L 175.9 106.1 L 174.5 113.0 L 173.1 130.4 L 171.6 127.8 L 170.2 110.4 L 168.8 123.1 L 167.3 119.4 L 165.9 125.2 L 164.5 143.1 L 163.0 143.1 L 161.6 146.8 L 160.2 119.9 L 158.7 135.7 L 157.3 137.8 L 155.9 150.0 L 154.4 128.9 L 153.0 139.4 L 151.5 148.9 L 150.1 158.5 L 148.7 131.0 L 147.2 156.9 L 145.8 131.0 L 144.4 138.9 L 142.9 140.0 L 141.5 167.4 L 140.1 167.4 L 138.6 140.0 L 137.2 147.9 L 135.8 175.4 L 134.3 172.7 L 132.9 186.5 L 131.4 171.7 L 130.1 174.3 L 128.6 179.1 L 127.2 179.6 L 125.8 169.0 L 124.3 184.9 L 122.9 181.2 L 121.5 181.2 L 120.0 180.1 L 118.6 181.2 L 117.2 178.0 L 115.7 171.7 L 114.3 162.1 L 112.8 173.2 L 111.4 175.9 L 110.0 182.8 L 108.5 164.8 L 107.1 167.4 L 105.7 180.1 L 104.2 165.8 L 102.8 174.3 L 101.4 161.6 L 99.9 169.5 L 98.5 174.8 L 97.1 181.7 L 95.6 170.6 L 94.2 163.2 L 92.7 168.5 L 91.3 168.5 L 89.9 190.2 L 88.4 203.9 L 87.0 191.2 L 85.6 182.8 L 84.1 188.6 L 82.7 191.7 L 81.3 176.9 L 79.8 182.2 L 78.4 199.1 L 77.0 181.2 L 75.5 187.5 L 74.1 190.7 L 72.6 194.4 L 71.2 189.6 L 69.8 203.4 L 68.3 205.5 L 66.9 203.9 L 65.5 202.3 L 64.0 210.8 L 62.6 222.9 L 61.2 204.4 L 59.7 225.0 L 58.3 208.1 L 56.9 203.4 L 55.4 203.9 L 54.0 214.5 L 52.5 214.5 L 51.1 223.4 L 49.7 225.5 L 48.2 221.3 L 46.8 216.6 L 45.4 197.0 L 43.9 201.2 L 42.5 213.4 L 41.1 200.7 L 39.6 203.9 L 38.2 188.0 L 36.8 186.5 L 35.3 200.2 L 33.9 198.1 L 32.5 184.3 L 31.0 192.3 L 29.6 187.5 L 28.1 189.1 L 26.7 198.6 L 25.3 219.2 L 23.8 191.2 L 22.4 176.9 L 21.0 161.6 L 19.5 171.1 L 18.1 175.4 L 16.7 174.8 L 15.2 175.9 L 13.8 212.3 L 12.4 194.4 L 10.9 230.8 L 9.5 215.0 L 8.0 189.6 L 6.6 203.9 L 5.2 210.8 M 345.3 158.5 L 346.8 160.6 L 348.2 144.2 L 349.7 152.6 L 351.1 148.4 L 352.5 154.2 L 354.0 150.5 L 355.4 158.5 L 356.8 162.1 L 358.3 152.6 L 359.7 156.3 M 359.7 148.9 L 358.3 116.2 L 356.8 122.5 L 355.4 138.9 L 354.0 133.1 L 352.5 144.7 L 351.1 130.4 L 349.7 120.9 L 348.2 138.4 L 346.8 124.1 L 345.3 131.5 M 362.6 154.2 L 364.0 163.7 L 365.4 151.1 L 366.9 160.0 L 368.3 156.3 L 369.8 158.5 L 371.2 167.4 L 372.6 179.1 L 374.1 182.2 L 375.5 166.4 L 376.9 164.8 L 378.4 161.6 L 379.8 175.9 L 381.2 162.1 L 382.7 166.9 L 384.1 161.1 L 385.5 170.6 L 387.0 173.8 L 388.4 158.5 L 389.8 137.8 L 391.3 169.0 L 392.7 188.0 L 394.2 186.5 M 394.2 174.8 L 392.7 164.3 L 391.3 131.5 L 389.8 126.8 L 388.4 127.8 L 387.0 148.4 L 385.5 152.6 L 384.1 131.0 L 382.7 132.0 L 381.2 132.6 L 379.8 120.9 L 378.4 128.9 L 376.9 143.7 L 375.5 139.4 L 374.1 135.2 L 372.6 128.3 L 371.2 118.8 L 369.8 139.4 L 368.3 137.3 L 366.9 128.9 L 365.4 123.6 L 364.0 142.1 L 362.6 133.6 M 398.5 192.3 L 399.9 195.4 L 401.3 196.5 L 402.8 203.4 L 404.2 208.6 L 405.6 193.8 L 407.1 193.3 L 408.5 207.6 L 409.9 224.5 L 411.4 209.2 L 412.8 210.2 L 414.3 224.5 L 415.7 227.7 L 417.1 199.1 L 418.6 188.0 L 420.0 210.2 L 421.4 217.6 L 422.9 196.5 L 424.3 215.5 L 425.7 206.0 L 427.2 204.4 L 428.6 196.0 L 430.0 186.5 L 431.5 193.8 L 433.0 211.3 L 434.4 211.3 L 435.8 217.1 L 437.3 218.2 L 438.7 209.7 L 440.2 215.0 L 441.6 187.5 L 443.0 211.3 L 444.5 211.3 L 445.9 211.3 L 447.3 222.9 L 448.8 225.0 L 450.2 220.3 L 451.6 211.3 L 453.1 221.3 L 454.5 225.0 L 455.9 225.0 L 457.4 234.5 L 458.8 238.8 M 458.8 210.2 L 457.4 220.3 L 455.9 204.9 L 454.5 212.3 L 453.1 207.1 L 451.6 183.8 L 450.2 156.9 L 448.8 202.3 L 447.3 183.8 L 445.9 175.9 L 444.5 211.3 L 443.0 188.0 L 441.6 172.7 L 440.2 185.4 L 438.7 188.6 L 437.3 187.5 L 435.8 182.8 L 434.4 200.7 L 433.0 173.8 L 431.5 154.2 L 430.0 163.7 L 428.6 151.1 L 427.2 189.1 L 425.7 160.0 L 424.3 173.2 L 422.9 177.5 L 421.4 173.2 L 420.0 170.1 L 418.6 154.2 L 417.1 166.4 L 415.7 182.8 L 414.3 183.3 L 412.8 160.6 L 411.4 166.4 L 409.9 178.5 L 408.5 175.9 L 407.1 183.3 L 405.6 163.2 L 404.2 180.6 L 402.8 171.7 L 401.3 163.7 L 399.9 175.4 L 398.5 192.3 M 461.7 204.4 L 463.1 211.8 L 464.6 202.3 L 466.0 187.5 L 467.4 185.9 L 468.9 185.4 L 470.3 198.6 L 471.7 198.6 L 473.2 201.2 L 474.6 196.0 L 476.0 196.0 L 477.5 190.7 L 478.9 207.1 L 480.4 211.3 L 481.8 203.4 L 483.2 231.4 L 484.7 228.7 L 486.1 226.1 L 487.5 225.5 L 489.0 215.0 L 490.4 209.7 L 491.8 196.0 L 493.3 211.3 L 494.7 208.1 L 496.1 210.8 L 497.6 196.5 L 499.0 217.6 L 500.4 232.4 L 501.9 215.0 L 503.3 208.6 L 504.8 216.6 L 506.2 252.5 L 507.6 274.2 L 509.1 282.6 L 510.5 252.5 L 511.9 270.5 L 513.4 280.5 L 514.8 281.0 L 516.2 268.9 L 517.7 255.7 L 519.1 243.5 L 520.5 225.0 L 522.0 226.6 L 523.4 225.5 L 524.9 268.3 L 526.3 269.9 L 527.7 275.7 M 527.7 245.6 L 526.3 253.6 L 524.9 218.2 L 523.4 207.6 L 522.0 207.6 L 520.5 217.6 L 519.1 217.6 L 517.7 219.2 L 516.2 252.0 L 514.8 238.8 L 513.4 249.3 L 511.9 214.5 L 510.5 220.3 L 509.1 253.0 L 507.6 253.0 L 506.2 216.6 L 504.8 203.4 L 503.3 202.8 L 501.9 207.6 L 500.4 213.4 L 499.0 199.7 L 497.6 190.7 L 496.1 184.3 L 494.7 196.5 L 493.3 175.4 L 491.8 159.5 L 490.4 179.1 L 489.0 189.1 L 487.5 191.2 L 486.1 215.0 L 484.7 202.3 L 483.2 203.4 L 481.8 193.3 L 480.4 185.9 L 478.9 181.2 L 477.5 171.1 L 476.0 185.4 L 474.6 181.2 L 473.2 183.8 L 471.7 187.0 L 470.3 165.8 L 468.9 156.3 L 467.4 180.1 L 466.0 178.0 L 464.6 180.1 L 463.1 190.7 L 461.7 164.3" stroke="#7cb5ec" stroke-width="1"  stroke-linejoin="round" stroke-linecap="round"></path><path fill="rgb(192,192,192)" fill-opacity="0.0" d="M 5.2 241.9 L 6.6 232.9 L 8.0 213.9 L 9.5 258.3 L 10.9 262.5 L 12.4 229.2 L 13.8 231.9 L 15.2 224.0 L 16.7 191.2 L 18.1 194.9 L 19.5 211.3 L 21.0 181.7 L 22.4 192.3 L 23.8 230.3 L 25.3 243.0 L 26.7 231.4 L 28.1 203.4 L 29.6 211.3 L 31.0 217.1 L 32.5 208.6 L 33.9 211.3 L 35.3 214.5 L 36.8 207.1 L 38.2 208.1 L 39.6 231.9 L 41.1 234.0 L 42.5 243.5 L 43.9 212.9 L 45.4 226.6 L 46.8 232.4 L 48.2 234.5 L 49.7 237.7 L 51.1 238.8 L 52.5 244.6 L 54.0 239.8 L 55.4 222.4 L 56.9 235.6 L 58.3 239.8 L 59.7 257.2 L 61.2 238.8 L 62.6 256.7 L 64.0 256.2 L 65.5 236.6 L 66.9 255.1 L 68.3 256.7 L 69.8 228.2 L 71.2 215.0 L 72.6 210.2 L 74.1 211.3 L 75.5 204.9 L 77.0 204.4 L 78.4 206.0 L 79.8 205.5 L 81.3 206.0 L 82.7 206.5 L 84.1 203.4 L 85.6 208.6 L 87.0 237.2 L 88.4 239.8 L 89.9 221.3 L 91.3 206.5 L 92.7 202.3 L 94.2 211.3 L 95.6 198.1 L 97.1 200.2 L 98.5 203.4 L 99.9 208.1 L 101.4 201.2 L 102.8 201.8 L 104.2 210.2 L 105.7 212.9 L 107.1 202.8 L 108.5 213.4 L 110.0 221.9 L 111.4 199.7 L 112.8 211.3 L 114.3 207.1 L 115.7 220.3 L 117.2 221.9 L 118.6 212.9 L 120.0 202.3 L 121.5 215.5 L 122.9 229.8 L 124.3 225.0 L 125.8 215.0 L 127.2 226.1 L 128.6 226.6 L 130.1 209.7 L 131.4 208.6 L 132.9 202.8 L 134.3 218.7 L 135.8 196.5 L 137.2 193.3 L 138.6 208.1 L 140.1 182.2 L 141.5 193.8 L 142.9 208.1 L 144.4 195.4 L 145.8 176.4 L 147.2 181.7 L 148.7 181.7 L 150.1 189.6 L 151.5 209.2 L 153.0 208.6 L 154.4 191.2 L 155.9 179.6 L 157.3 190.7 L 158.7 207.1 L 160.2 196.0 L 161.6 173.8 L 163.0 198.6 L 164.5 186.5 L 165.9 200.7 L 167.3 161.1 L 168.8 193.3 L 170.2 175.9 L 171.6 185.4 L 173.1 166.9 L 174.5 189.6 L 175.9 176.4 L 177.4 165.3 L 178.8 162.7 L 180.3 178.5 L 181.7 211.3 L 183.1 187.5 L 184.6 194.4 L 186.0 194.9 L 187.4 177.5 L 188.9 184.9 L 190.3 185.9 L 191.7 192.8 L 193.2 187.5 L 194.6 200.7 L 196.0 188.6 L 197.5 187.5 L 198.9 169.0 L 200.4 172.2 L 201.8 166.9 L 203.2 167.4 L 204.7 167.4 L 206.1 175.9 L 207.5 171.1 L 209.0 176.4 L 210.4 165.3 L 211.8 164.3 L 213.3 166.9 L 214.7 180.1 L 216.1 184.3 L 217.6 167.4 L 219.0 178.5 L 220.5 170.1 L 221.9 172.7 L 223.3 165.3 L 224.8 172.7 L 226.2 190.7 L 227.6 177.5 L 229.1 196.0 L 230.5 190.7 L 231.9 176.9 L 233.4 169.0 L 234.8 170.1 L 236.2 165.8 L 237.7 168.0 L 239.1 161.1 L 240.5 181.2 L 242.0 174.3 L 243.4 188.6 L 244.9 192.3 L 246.3 154.2 L 247.7 165.8 L 249.2 154.8 L 250.6 160.0 L 252.0 159.5 L 253.5 143.7 L 254.9 165.8 L 256.3 153.7 L 257.8 140.0 L 259.2 145.2 L 260.6 137.3 L 262.1 132.6 L 263.5 122.0 L 265.0 135.7 L 266.4 134.7 L 267.8 129.4 L 269.3 123.1 L 270.7 124.1 L 272.1 117.2 L 273.6 140.0 L 275.0 155.8 L 276.4 162.7 L 277.9 150.0 L 279.3 154.8 L 280.7 153.2 L 282.2 150.0 L 283.6 148.9 L 285.1 144.7 L 286.5 139.4 L 287.9 151.1 L 289.4 141.5 L 290.8 136.3 L 292.2 142.1 L 293.7 146.8 L 295.1 147.9 L 296.5 147.9 L 298.0 144.2 L 299.4 145.8 L 300.8 144.7 L 302.3 148.4 L 303.7 153.2 L 305.2 154.2 L 306.6 148.9 L 308.0 154.2 L 309.5 163.7 L 310.9 153.2 L 312.3 144.7 L 313.8 134.7 L 315.2 148.4 L 316.6 126.8 L 318.1 138.4 L 319.5 138.9 L 320.9 139.4 L 322.4 155.8 L 323.8 143.7 L 325.2 148.4 L 326.7 153.7 L 328.1 164.8 L 329.6 172.7 L 331.0 154.8 L 332.4 146.3 L 333.9 159.0 L 335.3 170.6 L 336.7 144.2 L 338.2 143.7 L 339.6 155.3 L 341.0 151.6 L 342.5 151.6 L 342.5 138.4 L 341.0 113.5 L 339.6 117.8 L 338.2 104.0 L 336.7 71.3 L 335.3 126.8 L 333.9 114.1 L 332.4 118.8 L 331.0 137.3 L 329.6 139.4 L 328.1 122.5 L 326.7 124.6 L 325.2 114.1 L 323.8 114.1 L 322.4 93.5 L 320.9 94.5 L 319.5 97.7 L 318.1 80.3 L 316.6 97.7 L 315.2 84.5 L 313.8 91.4 L 312.3 92.4 L 310.9 104.6 L 309.5 106.1 L 308.0 126.2 L 306.6 113.5 L 305.2 117.2 L 303.7 109.3 L 302.3 104.6 L 300.8 106.1 L 299.4 108.8 L 298.0 114.6 L 296.5 120.9 L 295.1 101.4 L 293.7 129.4 L 292.2 120.9 L 290.8 97.2 L 289.4 79.2 L 287.9 91.9 L 286.5 107.7 L 285.1 92.9 L 283.6 101.9 L 282.2 86.1 L 280.7 88.2 L 279.3 86.1 L 277.9 96.1 L 276.4 85.5 L 275.0 98.2 L 273.6 80.3 L 272.1 75.5 L 270.7 79.2 L 269.3 49.1 L 267.8 54.9 L 266.4 64.4 L 265.0 64.9 L 263.5 92.4 L 262.1 55.4 L 260.6 62.8 L 259.2 88.7 L 257.8 63.4 L 256.3 70.7 L 254.9 84.0 L 253.5 108.3 L 252.0 102.4 L 250.6 111.4 L 249.2 121.5 L 247.7 125.2 L 246.3 132.0 L 244.9 110.4 L 243.4 127.8 L 242.0 122.0 L 240.5 112.5 L 239.1 121.5 L 237.7 115.1 L 236.2 130.4 L 234.8 125.7 L 233.4 136.3 L 231.9 122.5 L 230.5 116.7 L 229.1 116.7 L 227.6 119.9 L 226.2 129.4 L 224.8 137.8 L 223.3 125.7 L 221.9 96.6 L 220.5 91.9 L 219.0 91.9 L 217.6 126.8 L 216.1 122.0 L 214.7 136.3 L 213.3 150.5 L 211.8 117.8 L 210.4 117.8 L 209.0 119.9 L 207.5 118.8 L 206.1 121.5 L 204.7 116.7 L 203.2 131.0 L 201.8 117.8 L 200.4 101.9 L 198.9 101.9 L 197.5 112.0 L 196.0 114.6 L 194.6 121.5 L 193.2 132.0 L 191.7 142.6 L 190.3 150.5 L 188.9 140.0 L 187.4 134.1 L 186.0 138.9 L 184.6 135.7 L 183.1 152.1 L 181.7 140.5 L 180.3 143.1 L 178.8 124.6 L 177.4 98.2 L 175.9 106.1 L 174.5 113.0 L 173.1 130.4 L 171.6 127.8 L 170.2 110.4 L 168.8 123.1 L 167.3 119.4 L 165.9 125.2 L 164.5 143.1 L 163.0 143.1 L 161.6 146.8 L 160.2 119.9 L 158.7 135.7 L 157.3 137.8 L 155.9 150.0 L 154.4 128.9 L 153.0 139.4 L 151.5 148.9 L 150.1 158.5 L 148.7 131.0 L 147.2 156.9 L 145.8 131.0 L 144.4 138.9 L 142.9 140.0 L 141.5 167.4 L 140.1 167.4 L 138.6 140.0 L 137.2 147.9 L 135.8 175.4 L 134.3 172.7 L 132.9 186.5 L 131.4 171.7 L 130.1 174.3 L 128.6 179.1 L 127.2 179.6 L 125.8 169.0 L 124.3 184.9 L 122.9 181.2 L 121.5 181.2 L 120.0 180.1 L 118.6 181.2 L 117.2 178.0 L 115.7 171.7 L 114.3 162.1 L 112.8 173.2 L 111.4 175.9 L 110.0 182.8 L 108.5 164.8 L 107.1 167.4 L 105.7 180.1 L 104.2 165.8 L 102.8 174.3 L 101.4 161.6 L 99.9 169.5 L 98.5 174.8 L 97.1 181.7 L 95.6 170.6 L 94.2 163.2 L 92.7 168.5 L 91.3 168.5 L 89.9 190.2 L 88.4 203.9 L 87.0 191.2 L 85.6 182.8 L 84.1 188.6 L 82.7 191.7 L 81.3 176.9 L 79.8 182.2 L 78.4 199.1 L 77.0 181.2 L 75.5 187.5 L 74.1 190.7 L 72.6 194.4 L 71.2 189.6 L 69.8 203.4 L 68.3 205.5 L 66.9 203.9 L 65.5 202.3 L 64.0 210.8 L 62.6 222.9 L 61.2 204.4 L 59.7 225.0 L 58.3 208.1 L 56.9 203.4 L 55.4 203.9 L 54.0 214.5 L 52.5 214.5 L 51.1 223.4 L 49.7 225.5 L 48.2 221.3 L 46.8 216.6 L 45.4 197.0 L 43.9 201.2 L 42.5 213.4 L 41.1 200.7 L 39.6 203.9 L 38.2 188.0 L 36.8 186.5 L 35.3 200.2 L 33.9 198.1 L 32.5 184.3 L 31.0 192.3 L 29.6 187.5 L 28.1 189.1 L 26.7 198.6 L 25.3 219.2 L 23.8 191.2 L 22.4 176.9 L 21.0 161.6 L 19.5 171.1 L 18.1 175.4 L 16.7 174.8 L 15.2 175.9 L 13.8 212.3 L 12.4 194.4 L 10.9 230.8 L 9.5 215.0 L 8.0 189.6 L 6.6 203.9 L 5.2 210.8 M 345.3 158.5 L 346.8 160.6 L 348.2 144.2 L 349.7 152.6 L 351.1 148.4 L 352.5 154.2 L 354.0 150.5 L 355.4 158.5 L 356.8 162.1 L 358.3 152.6 L 359.7 156.3 L 359.7 148.9 L 358.3 116.2 L 356.8 122.5 L 355.4 138.9 L 354.0 133.1 L 352.5 144.7 L 351.1 130.4 L 349.7 120.9 L 348.2 138.4 L 346.8 124.1 L 345.3 131.5 M 362.6 154.2 L 364.0 163.7 L 365.4 151.1 L 366.9 160.0 L 368.3 156.3 L 369.8 158.5 L 371.2 167.4 L 372.6 179.1 L 374.1 182.2 L 375.5 166.4 L 376.9 164.8 L 378.4 161.6 L 379.8 175.9 L 381.2 162.1 L 382.7 166.9 L 384.1 161.1 L 385.5 170.6 L 387.0 173.8 L 388.4 158.5 L 389.8 137.8 L 391.3 169.0 L 392.7 188.0 L 394.2 186.5 L 394.2 174.8 L 392.7 164.3 L 391.3 131.5 L 389.8 126.8 L 388.4 127.8 L 387.0 148.4 L 385.5 152.6 L 384.1 131.0 L 382.7 132.0 L 381.2 132.6 L 379.8 120.9 L 378.4 128.9 L 376.9 143.7 L 375.5 139.4 L 374.1 135.2 L 372.6 128.3 L 371.2 118.8 L 369.8 139.4 L 368.3 137.3 L 366.9 128.9 L 365.4 123.6 L 364.0 142.1 L 362.6 133.6 M 398.5 192.3 L 399.9 195.4 L 401.3 196.5 L 402.8 203.4 L 404.2 208.6 L 405.6 193.8 L 407.1 193.3 L 408.5 207.6 L 409.9 224.5 L 411.4 209.2 L 412.8 210.2 L 414.3 224.5 L 415.7 227.7 L 417.1 199.1 L 418.6 188.0 L 420.0 210.2 L 421.4 217.6 L 422.9 196.5 L 424.3 215.5 L 425.7 206.0 L 427.2 204.4 L 428.6 196.0 L 430.0 186.5 L 431.5 193.8 L 433.0 211.3 L 434.4 211.3 L 435.8 217.1 L 437.3 218.2 L 438.7 209.7 L 440.2 215.0 L 441.6 187.5 L 443.0 211.3 L 444.5 211.3 L 445.9 211.3 L 447.3 222.9 L 448.8 225.0 L 450.2 220.3 L 451.6 211.3 L 453.1 221.3 L 454.5 225.0 L 455.9 225.0 L 457.4 234.5 L 458.8 238.8 L 458.8 210.2 L 457.4 220.3 L 455.9 204.9 L 454.5 212.3 L 453.1 207.1 L 451.6 183.8 L 450.2 156.9 L 448.8 202.3 L 447.3 183.8 L 445.9 175.9 L 444.5 211.3 L 443.0 188.0 L 441.6 172.7 L 440.2 185.4 L 438.7 188.6 L 437.3 187.5 L 435.8 182.8 L 434.4 200.7 L 433.0 173.8 L 431.5 154.2 L 430.0 163.7 L 428.6 151.1 L 427.2 189.1 L 425.7 160.0 L 424.3 173.2 L 422.9 177.5 L 421.4 173.2 L 420.0 170.1 L 418.6 154.2 L 417.1 166.4 L 415.7 182.8 L 414.3 183.3 L 412.8 160.6 L 411.4 166.4 L 409.9 178.5 L 408.5 175.9 L 407.1 183.3 L 405.6 163.2 L 404.2 180.6 L 402.8 171.7 L 401.3 163.7 L 399.9 175.4 L 398.5 192.3 M 461.7 204.4 L 463.1 211.8 L 464.6 202.3 L 466.0 187.5 L 467.4 185.9 L 468.9 185.4 L 470.3 198.6 L 471.7 198.6 L 473.2 201.2 L 474.6 196.0 L 476.0 196.0 L 477.5 190.7 L 478.9 207.1 L 480.4 211.3 L 481.8 203.4 L 483.2 231.4 L 484.7 228.7 L 486.1 226.1 L 487.5 225.5 L 489.0 215.0 L 490.4 209.7 L 491.8 196.0 L 493.3 211.3 L 494.7 208.1 L 496.1 210.8 L 497.6 196.5 L 499.0 217.6 L 500.4 232.4 L 501.9 215.0 L 503.3 208.6 L 504.8 216.6 L 506.2 252.5 L 507.6 274.2 L 509.1 282.6 L 510.5 252.5 L 511.9 270.5 L 513.4 280.5 L 514.8 281.0 L 516.2 268.9 L 517.7 255.7 L 519.1 243.5 L 520.5 225.0 L 522.0 226.6 L 523.4 225.5 L 524.9 268.3 L 526.3 269.9 L 527.7 275.7 L 527.7 245.6 L 526.3 253.6 L 524.9 218.2 L 523.4 207.6 L 522.0 207.6 L 520.5 217.6 L 519.1 217.6 L 517.7 219.2 L 516.2 252.0 L 514.8 238.8 L 513.4 249.3 L 511.9 214.5 L 510.5 220.3 L 509.1 253.0 L 507.6 253.0 L 506.2 216.6 L 504.8 203.4 L 503.3 202.8 L 501.9 207.6 L 500.4 213.4 L 499.0 199.7 L 497.6 190.7 L 496.1 184.3 L 494.7 196.5 L 493.3 175.4 L 491.8 159.5 L 490.4 179.1 L 489.0 189.1 L 487.5 191.2 L 486.1 215.0 L 484.7 202.3 L 483.2 203.4 L 481.8 193.3 L 480.4 185.9 L 478.9 181.2 L 477.5 171.1 L 476.0 185.4 L 474.6 181.2 L 473.2 183.8 L 471.7 187.0 L 470.3 165.8 L 468.9 156.3 L 467.4 180.1 L 466.0 178.0 L 464.6 180.1 L 463.1 190.7 L 461.7 164.3" stroke-linejoin="round" visibility="visible" stroke="rgb(192,192,192)" stroke-opacity="0.0" stroke-width="1"  class=" highcharts-tracker" style=""></path></g><g class="highcharts-markers highcharts-tracker" visibility="visible"  transform="translate(41,47) scale(1 1)" clip-path="url(#highcharts-2)" style=""></g></g><text x="292" text-anchor="middle" class="highcharts-title"  style="color:#333333;font-size:18px;fill:#333333;width:520px;" y="24"><tspan>Temperature variation by day</tspan></text><g class="highcharts-axis-labels highcharts-xaxis-labels" ><text x="46.1" style="color:#606060;cursor:default;font-size:11px;fill:#606060;width:71px;text-overflow:clip;" text-anchor="middle" transform="translate(0,0)" y="383" opacity="1"><tspan>Jan '09</tspan></text><text x="130.8" style="color:#606060;cursor:default;font-size:11px;fill:#606060;width:71px;text-overflow:clip;" text-anchor="middle" transform="translate(0,0)" y="383" opacity="1"><tspan>Mar '09</tspan></text><text x="218.4" style="color:#606060;cursor:default;font-size:11px;fill:#606060;width:71px;text-overflow:clip;" text-anchor="middle" transform="translate(0,0)" y="383" opacity="1"><tspan>May '09</tspan></text><text x="306.0" style="color:#606060;cursor:default;font-size:11px;fill:#606060;width:71px;text-overflow:clip;" text-anchor="middle" transform="translate(0,0)" y="383" opacity="1"><tspan>Jul '09</tspan></text><text x="395.0" style="color:#606060;cursor:default;font-size:11px;fill:#606060;width:71px;text-overflow:clip;" text-anchor="middle" transform="translate(0,0)" y="383" opacity="1"><tspan>Sep '09</tspan></text><text x="482.5" style="color:#606060;cursor:default;font-size:11px;fill:#606060;width:71px;text-overflow:clip;" text-anchor="middle" transform="translate(0,0)" y="383" opacity="1"><tspan>Nov '09</tspan></text><text x="574" style="color:#606060;cursor:default;font-size:11px;fill:#606060;width:71px;text-overflow:clip;" text-anchor="end" transform="translate(0,0)" y="383" opacity="1"><tspan>Jan '10</tspan></text></g><g class="highcharts-axis-labels highcharts-yaxis-labels" ><text x="26" style="color:#606060;cursor:default;font-size:11px;fill:#606060;width:183px;text-overflow:clip;" text-anchor="end" transform="translate(0,0)" y="369" opacity="1">-20</text><text x="26" style="color:#606060;cursor:default;font-size:11px;fill:#606060;width:183px;text-overflow:clip;" text-anchor="end" transform="translate(0,0)" y="316" opacity="1">-10</text><text x="26" style="color:#606060;cursor:default;font-size:11px;fill:#606060;width:183px;text-overflow:clip;" text-anchor="end" transform="translate(0,0)" y="263" opacity="1">0</text><text x="26" style="color:#606060;cursor:default;font-size:11px;fill:#606060;width:183px;text-overflow:clip;" text-anchor="end" transform="translate(0,0)" y="210" opacity="1">10</text><text x="26" style="color:#606060;cursor:default;font-size:11px;fill:#606060;width:183px;text-overflow:clip;" text-anchor="end" transform="translate(0,0)" y="157" opacity="1">20</text><text x="26" style="color:#606060;cursor:default;font-size:11px;fill:#606060;width:183px;text-overflow:clip;" text-anchor="end" transform="translate(0,0)" y="104" opacity="1">30</text><text x="26" style="color:#606060;cursor:default;font-size:11px;fill:#606060;width:183px;text-overflow:clip;" text-anchor="end" transform="translate(0,0)" y="52" opacity="1">40</text></g><g class="highcharts-tooltip"  style="cursor:default;padding:0;white-space:nowrap;" transform="translate(0,-9999)"><path fill="none" d="M 3 0 L 13 0 C 16 0 16 0 16 3 L 16 13 C 16 16 16 16 13 16 L 3 16 C 0 16 0 16 0 13 L 0 3 C 0 0 0 0 3 0"  stroke="black" stroke-opacity="0.0" stroke-width="5" transform="translate(1, 1)"></path><path fill="none" d="M 3 0 L 13 0 C 16 0 16 0 16 3 L 16 13 C 16 16 16 16 13 16 L 3 16 C 0 16 0 16 0 13 L 0 3 C 0 0 0 0 3 0"  stroke="black" stroke-opacity="0.0" stroke-width="3" transform="translate(1, 1)"></path><path fill="none" d="M 3 0 L 13 0 C 16 0 16 0 16 3 L 16 13 C 16 16 16 16 13 16 L 3 16 C 0 16 0 16 0 13 L 0 3 C 0 0 0 0 3 0"  stroke="black" stroke-opacity="0.1" stroke-width="1" transform="translate(1, 1)"></path><path fill="rgb(249, 249, 249)" fill-opacity=" .85" d="M 3 0 L 13 0 C 16 0 16 0 16 3 L 16 13 C 16 16 16 16 13 16 L 3 16 C 0 16 0 16 0 13 L 0 3 C 0 0 0 0 3 0"></path><text x="8"  style="font-size:12px;color:#333333;fill:#333333;" transform="translate(0,20)"></text></g></svg>