<svg version="1.1" style="font-family:&quot;lucida grande&quot;, &quot;lucida sans unicode&quot;, arial, helvetica, sans-serif;font-size:12px;" xmlns="http://www.w3.org/2000/svg" width="584" height="400" viewBox="0 0 584 400"><desc>Created with Highcharts 4.1.4</desc><defs><clipPath id="highcharts-1"><rect x="0" y="0" width="507" height="245"></rect></clipPath><clipPath id="highcharts-2"><rect x="-99" y="-82" width="606" height="400"></rect></clipPath><clipPath id="highcharts-3"><rect x="0" y="0" width="507" height="245"></rect></clipPath></defs><rect x="0" y="0" width="584" height="400" strokeWidth="0" fill="#FFFFFF" class=" highcharts-background" stroke="transparent"></rect><g class="highcharts-grid" ></g><g class="highcharts-grid" ><path fill="none" d="M 67 327.5 L 574 327.5" stroke="#D8D8D8" stroke-width="1"  opacity="1"></path><path fill="none" d="M 67 266.5 L 574 266.5" stroke="#D8D8D8" stroke-width="1"  opacity="1"></path><path fill="none" d="M 67 205.5 L 574 205.5" stroke="#D8D8D8" stroke-width="1"  opacity="1"></path><path fill="none" d="M 67 143.5 L 574 143.5" stroke="#D8D8D8" stroke-width="1"  opacity="1"></path><path fill="none" d="M 67 82.5 L 574 82.5" stroke="#D8D8D8" stroke-width="1"  opacity="1"></path></g><g class="highcharts-axis" ><path fill="none" d="M 102.5 327 L 102.5 337" stroke="#C0D0E0" stroke-width="1" opacity="1"></path><path fill="none" d="M 175.5 327 L 175.5 337" stroke="#C0D0E0" stroke-width="1" opacity="1"></path><path fill="none" d="M 247.5 327 L 247.5 337" stroke="#C0D0E0" stroke-width="1" opacity="1"></path><path fill="none" d="M 320.5 327 L 320.5 337" stroke="#C0D0E0" stroke-width="1" opacity="1"></path><path fill="none" d="M 392.5 327 L 392.5 337" stroke="#C0D0E0" stroke-width="1" opacity="1"></path><path fill="none" d="M 464.5 327 L 464.5 337" stroke="#C0D0E0" stroke-width="1" opacity="1"></path><path fill="none" d="M 537.5 327 L 537.5 337" stroke="#C0D0E0" stroke-width="1" opacity="1"></path><path fill="none" d="M 67 327.5 L 574 327.5" stroke="#C0D0E0" stroke-width="1"  visibility="visible"></path></g><g class="highcharts-axis" ><text x="24"  text-anchor="middle" transform="translate(0,0) rotate(270 24 204.5)" class=" highcharts-yaxis-title" style="color:#707070;fill:#707070;" visibility="visible" y="204.5">Percent</text></g><g class="highcharts-series-group" ><g class="highcharts-series" visibility="visible"  transform="translate(67,82) scale(1 1)" clip-path="url(#highcharts-3)"><path fill="rgb(124,181,236)" fill-opacity="0.7" d="M 36.2 -2.8e-14 L 108.6 -2.8e-14 L 181.0 -2.8e-14 L 253.5 -2.8e-14 L 325.9 -2.8e-14 L 398.3 -2.8e-14 L 470.7 -2.8e-14 470.7 144.8 398.3 148.9 325.9 136.1 253.5 140.6 181.0 158.3 108.6 159.0 36.2 155.4" ></path><path fill="none" d="M 36.2 -2.8e-14 L 108.6 -2.8e-14 L 181.0 -2.8e-14 L 253.5 -2.8e-14 L 325.9 -2.8e-14 L 398.3 -2.8e-14 L 470.7 -2.8e-14" stroke="#ffffff" stroke-width="1"  stroke-linejoin="round" stroke-linecap="round"></path><path fill="none" d="M 26.2 -2.8e-14 L 36.2 -2.8e-14 L 108.6 -2.8e-14 L 181.0 -2.8e-14 L 253.5 -2.8e-14 L 325.9 -2.8e-14 L 398.3 -2.8e-14 L 470.7 -2.8e-14 L 480.7 -2.8e-14" stroke-linejoin="round" visibility="visible" stroke="rgb(192,192,192)" stroke-opacity="0.0" stroke-width="21"  class=" highcharts-tracker" style=""></path></g><g class="highcharts-markers highcharts-tracker" visibility="visible"  transform="translate(67,82) scale(1 1)" clip-path="url(#highcharts-2)" style=""></g><g class="highcharts-series" visibility="visible"  transform="translate(67,82) scale(1 1)" clip-path="url(#highcharts-3)"><path fill="rgb(67,67,72)" fill-opacity="0.7" d="M 36.2 155.4 L 108.6 159.0 L 181.0 158.3 L 253.5 140.6 L 325.9 136.1 L 398.3 148.9 L 470.7 144.8 470.7 193.4 398.3 180.3 325.9 157.6 253.5 160.3 181.0 180.0 108.6 185.8 36.2 188.3" ></path><path fill="none" d="M 36.2 155.4 L 108.6 159.0 L 181.0 158.3 L 253.5 140.6 L 325.9 136.1 L 398.3 148.9 L 470.7 144.8" stroke="#ffffff" stroke-width="1"  stroke-linejoin="round" stroke-linecap="round"></path><path fill="none" d="M 26.2 155.4 L 36.2 155.4 L 108.6 159.0 L 181.0 158.3 L 253.5 140.6 L 325.9 136.1 L 398.3 148.9 L 470.7 144.8 L 480.7 144.8" stroke-linejoin="round" visibility="visible" stroke="rgb(192,192,192)" stroke-opacity="0.0" stroke-width="21"  class=" highcharts-tracker" style=""></path></g><g class="highcharts-markers highcharts-tracker" visibility="visible"  transform="translate(67,82) scale(1 1)" clip-path="url(#highcharts-2)" style=""><path fill="#434348" d="M 470 140.8 L 474 144.8 470 148.8 466 144.8 Z" stroke="#ffffff" stroke-width="1"></path><path fill="#434348" d="M 398 144.9 L 402 148.9 398 152.9 394 148.9 Z" stroke="#ffffff" stroke-width="1"></path><path fill="#434348" d="M 325 132.1 L 329 136.1 325 140.1 321 136.1 Z" stroke="#ffffff" stroke-width="1"></path><path fill="#434348" d="M 253 136.6 L 257 140.6 253 144.6 249 140.6 Z" stroke="#ffffff" stroke-width="1"></path><path fill="#434348" d="M 181 154.3 L 185 158.3 181 162.3 177 158.3 Z" stroke="#ffffff" stroke-width="1"></path><path fill="#434348" d="M 108 155.0 L 112 159.0 108 163.0 104 159.0 Z" stroke="#ffffff" stroke-width="1"></path><path fill="#434348" d="M 36 151.4 L 40 155.4 36 159.4 32 155.4 Z" stroke="#ffffff" stroke-width="1"></path></g><g class="highcharts-series" visibility="visible"  transform="translate(67,82) scale(1 1)" clip-path="url(#highcharts-3)"><path fill="rgb(144,237,125)" fill-opacity="0.7" d="M 36.2 188.3 L 108.6 185.8 L 181.0 180.0 L 253.5 160.3 L 325.9 157.6 L 398.3 180.3 L 470.7 193.4 470.7 210.7 398.3 210.2 325.9 210.8 253.5 220.9 181.0 234.0 108.6 236.7 36.2 238.8" ></path><path fill="none" d="M 36.2 188.3 L 108.6 185.8 L 181.0 180.0 L 253.5 160.3 L 325.9 157.6 L 398.3 180.3 L 470.7 193.4" stroke="#ffffff" stroke-width="1"  stroke-linejoin="round" stroke-linecap="round"></path><path fill="none" d="M 26.2 188.3 L 36.2 188.3 L 108.6 185.8 L 181.0 180.0 L 253.5 160.3 L 325.9 157.6 L 398.3 180.3 L 470.7 193.4 L 480.7 193.4" stroke-linejoin="round" visibility="visible" stroke="rgb(192,192,192)" stroke-opacity="0.0" stroke-width="21"  class=" highcharts-tracker" style=""></path></g><g class="highcharts-markers highcharts-tracker" visibility="visible"  transform="translate(67,82) scale(1 1)" clip-path="url(#highcharts-2)" style=""><path fill="#90ed7d" d="M 466 189.4 L 474 189.4 474 197.4 466 197.4 Z" stroke="#ffffff" stroke-width="1"></path><path fill="#90ed7d" d="M 394 176.3 L 402 176.3 402 184.3 394 184.3 Z" stroke="#ffffff" stroke-width="1"></path><path fill="#90ed7d" d="M 321 153.6 L 329 153.6 329 161.6 321 161.6 Z" stroke="#ffffff" stroke-width="1"></path><path fill="#90ed7d" d="M 249 156.3 L 257 156.3 257 164.3 249 164.3 Z" stroke="#ffffff" stroke-width="1"></path><path fill="#90ed7d" d="M 177 176.0 L 185 176.0 185 184.0 177 184.0 Z" stroke="#ffffff" stroke-width="1"></path><path fill="#90ed7d" d="M 104 181.8 L 112 181.8 112 189.8 104 189.8 Z" stroke="#ffffff" stroke-width="1"></path><path fill="#90ed7d" d="M 32 184.3 L 40 184.3 40 192.3 32 192.3 Z" stroke="#ffffff" stroke-width="1"></path></g><g class="highcharts-series" visibility="visible"  transform="translate(67,82) scale(1 1)" clip-path="url(#highcharts-3)"><path fill="rgb(247,163,92)" fill-opacity="0.7" d="M 36.2 238.8 L 108.6 236.7 L 181.0 234.0 L 253.5 220.9 L 325.9 210.8 L 398.3 210.2 L 470.7 210.7 470.7 243.7 398.3 243.7 325.9 243.7 253.5 244.1 181.0 244.6 108.6 244.4 36.2 244.3" ></path><path fill="none" d="M 36.2 238.8 L 108.6 236.7 L 181.0 234.0 L 253.5 220.9 L 325.9 210.8 L 398.3 210.2 L 470.7 210.7" stroke="#ffffff" stroke-width="1"  stroke-linejoin="round" stroke-linecap="round"></path><path fill="none" d="M 26.2 238.8 L 36.2 238.8 L 108.6 236.7 L 181.0 234.0 L 253.5 220.9 L 325.9 210.8 L 398.3 210.2 L 470.7 210.7 L 480.7 210.7" stroke-linejoin="round" visibility="visible" stroke="rgb(192,192,192)" stroke-opacity="0.0" stroke-width="21"  class=" highcharts-tracker" style=""></path></g><g class="highcharts-markers highcharts-tracker" visibility="visible"  transform="translate(67,82) scale(1 1)" clip-path="url(#highcharts-2)" style=""><path fill="#f7a35c" d="M 470 206.7 L 474 214.7 466 214.7 Z" stroke="#ffffff" stroke-width="1"></path><path fill="#f7a35c" d="M 398 206.2 L 402 214.2 394 214.2 Z" stroke="#ffffff" stroke-width="1"></path><path fill="#f7a35c" d="M 325 206.8 L 329 214.8 321 214.8 Z" stroke="#ffffff" stroke-width="1"></path><path fill="#f7a35c" d="M 253 216.9 L 257 224.9 249 224.9 Z" stroke="#ffffff" stroke-width="1"></path><path fill="#f7a35c" d="M 181 230.0 L 185 238.0 177 238.0 Z" stroke="#ffffff" stroke-width="1"></path><path fill="#f7a35c" d="M 108 232.7 L 112 240.7 104 240.7 Z" stroke="#ffffff" stroke-width="1"></path><path fill="#f7a35c" d="M 36 234.8 L 40 242.8 32 242.8 Z" stroke="#ffffff" stroke-width="1"></path></g><g class="highcharts-series" visibility="visible"  transform="translate(67,82) scale(1 1)" clip-path="url(#highcharts-3)"><path fill="rgb(128,133,233)" fill-opacity="0.7" d="M 36.2 244.3 L 108.6 244.4 L 181.0 244.6 L 253.5 244.1 L 325.9 243.7 L 398.3 243.7 L 470.7 243.7 470.7 245 398.3 245 325.9 245 253.5 245 181.0 245 108.6 245 36.2 245" ></path><path fill="none" d="M 36.2 244.3 L 108.6 244.4 L 181.0 244.6 L 253.5 244.1 L 325.9 243.7 L 398.3 243.7 L 470.7 243.7" stroke="#ffffff" stroke-width="1"  stroke-linejoin="round" stroke-linecap="round"></path><path fill="none" d="M 26.2 244.3 L 36.2 244.3 L 108.6 244.4 L 181.0 244.6 L 253.5 244.1 L 325.9 243.7 L 398.3 243.7 L 470.7 243.7 L 480.7 243.7" stroke-linejoin="round" visibility="visible" stroke="rgb(192,192,192)" stroke-opacity="0.0" stroke-width="21"  class=" highcharts-tracker" style=""></path></g><g class="highcharts-markers highcharts-tracker" visibility="visible"  transform="translate(67,82) scale(1 1)" clip-path="url(#highcharts-2)" style=""><path fill="#8085e9" d="M 466 239.7 L 474 239.7 470 247.7 Z" stroke="#ffffff" stroke-width="1"></path><path fill="#8085e9" d="M 394 239.7 L 402 239.7 398 247.7 Z" stroke="#ffffff" stroke-width="1"></path><path fill="#8085e9" d="M 321 239.7 L 329 239.7 325 247.7 Z" stroke="#ffffff" stroke-width="1"></path><path fill="#8085e9" d="M 249 240.1 L 257 240.1 253 248.1 Z" stroke="#ffffff" stroke-width="1"></path><path fill="#8085e9" d="M 177 240.6 L 185 240.6 181 248.6 Z" stroke="#ffffff" stroke-width="1"></path><path fill="#8085e9" d="M 104 240.4 L 112 240.4 108 248.4 Z" stroke="#ffffff" stroke-width="1"></path><path fill="#8085e9" d="M 32 240.3 L 40 240.3 36 248.3 Z" stroke="#ffffff" stroke-width="1"></path></g></g><text x="292" text-anchor="middle" class="highcharts-title"  style="color:#333333;font-size:18px;fill:#333333;width:520px;" y="24"><tspan>Historic and Estimated Worldwide Population Distribution by</tspan><tspan dy="21" x="292">Region</tspan><title>Historic and Estimated Worldwide Population Distribution by Region</title></text><text x="292" text-anchor="middle" class="highcharts-subtitle"  style="color:#555555;fill:#555555;width:520px;" y="67"><tspan>Source: Wikipedia.org</tspan></text><g class="highcharts-legend"  transform="translate(93,360)"><g ><g><g class="highcharts-legend-item"  transform="translate(8,3)"><text x="21" style="color:#333333;font-size:12px;font-weight:bold;cursor:pointer;fill:#333333;" text-anchor="start"  y="15">Asia</text><rect x="0" y="4" width="16" height="12"  fill="#7cb5ec"></rect></g><g class="highcharts-legend-item"  transform="translate(74,3)"><text x="21" y="15" style="color:#333333;font-size:12px;font-weight:bold;cursor:pointer;fill:#333333;" text-anchor="start" >Africa</text><rect x="0" y="4" width="16" height="12"  fill="#434348"></rect></g><g class="highcharts-legend-item"  transform="translate(150,3)"><text x="21" y="15" style="color:#333333;font-size:12px;font-weight:bold;cursor:pointer;fill:#333333;" text-anchor="start" >Europe</text><rect x="0" y="4" width="16" height="12"  fill="#90ed7d"></rect></g><g class="highcharts-legend-item"  transform="translate(234,3)"><text x="21" y="15" style="color:#333333;font-size:12px;font-weight:bold;cursor:pointer;fill:#333333;" text-anchor="start" >America</text><rect x="0" y="4" width="16" height="12"  fill="#f7a35c"></rect></g><g class="highcharts-legend-item"  transform="translate(323,3)"><text x="21" y="15" style="color:#333333;font-size:12px;font-weight:bold;cursor:pointer;fill:#333333;" text-anchor="start" >Oceania</text><rect x="0" y="4" width="16" height="12"  fill="#8085e9"></rect></g></g></g></g><g class="highcharts-axis-labels highcharts-xaxis-labels" ><text x="103.2" style="color:#606060;cursor:default;font-size:11px;fill:#606060;width:71px;text-overflow:clip;" text-anchor="middle" transform="translate(0,0)" y="346" opacity="1">1750</text><text x="175.6" style="color:#606060;cursor:default;font-size:11px;fill:#606060;width:71px;text-overflow:clip;" text-anchor="middle" transform="translate(0,0)" y="346" opacity="1">1800</text><text x="248.0" style="color:#606060;cursor:default;font-size:11px;fill:#606060;width:71px;text-overflow:clip;" text-anchor="middle" transform="translate(0,0)" y="346" opacity="1">1850</text><text x="320.5" style="color:#606060;cursor:default;font-size:11px;fill:#606060;width:71px;text-overflow:clip;" text-anchor="middle" transform="translate(0,0)" y="346" opacity="1">1900</text><text x="392.9" style="color:#606060;cursor:default;font-size:11px;fill:#606060;width:71px;text-overflow:clip;" text-anchor="middle" transform="translate(0,0)" y="346" opacity="1">1950</text><text x="465.3" style="color:#606060;cursor:default;font-size:11px;fill:#606060;width:71px;text-overflow:clip;" text-anchor="middle" transform="translate(0,0)" y="346" opacity="1">1999</text><text x="537.7" style="color:#606060;cursor:default;font-size:11px;fill:#606060;width:71px;text-overflow:clip;" text-anchor="middle" transform="translate(0,0)" y="346" opacity="1">2050</text></g><g class="highcharts-axis-labels highcharts-yaxis-labels" ><text x="52" style="color:#606060;cursor:default;font-size:11px;fill:#606060;width:183px;text-overflow:clip;" text-anchor="end" transform="translate(0,0)" y="332" opacity="1">0</text><text x="52" style="color:#606060;cursor:default;font-size:11px;fill:#606060;width:183px;text-overflow:clip;" text-anchor="end" transform="translate(0,0)" y="270" opacity="1">25</text><text x="52" style="color:#606060;cursor:default;font-size:11px;fill:#606060;width:183px;text-overflow:clip;" text-anchor="end" transform="translate(0,0)" y="209" opacity="1">50</text><text x="52" style="color:#606060;cursor:default;font-size:11px;fill:#606060;width:183px;text-overflow:clip;" text-anchor="end" transform="translate(0,0)" y="148" opacity="1">75</text><text x="52" style="color:#606060;cursor:default;font-size:11px;fill:#606060;width:183px;text-overflow:clip;" text-anchor="end" transform="translate(0,0)" y="86" opacity="1">100</text></g><g class="highcharts-tooltip"  style="cursor:default;padding:0;white-space:nowrap;" transform="translate(0,-9999)"><path fill="none" d="M 3 0 L 13 0 C 16 0 16 0 16 3 L 16 13 C 16 16 16 16 13 16 L 3 16 C 0 16 0 16 0 13 L 0 3 C 0 0 0 0 3 0"  stroke="black" stroke-opacity="0.0" stroke-width="5" transform="translate(1, 1)"></path><path fill="none" d="M 3 0 L 13 0 C 16 0 16 0 16 3 L 16 13 C 16 16 16 16 13 16 L 3 16 C 0 16 0 16 0 13 L 0 3 C 0 0 0 0 3 0"  stroke="black" stroke-opacity="0.0" stroke-width="3" transform="translate(1, 1)"></path><path fill="none" d="M 3 0 L 13 0 C 16 0 16 0 16 3 L 16 13 C 16 16 16 16 13 16 L 3 16 C 0 16 0 16 0 13 L 0 3 C 0 0 0 0 3 0"  stroke="black" stroke-opacity="0.1" stroke-width="1" transform="translate(1, 1)"></path><path fill="rgb(249, 249, 249)" fill-opacity=" .85" d="M 3 0 L 13 0 C 16 0 16 0 16 3 L 16 13 C 16 16 16 16 13 16 L 3 16 C 0 16 0 16 0 13 L 0 3 C 0 0 0 0 3 0"></path><text x="8"  style="font-size:12px;color:#333333;fill:#333333;" transform="translate(0,20)"></text></g></svg>