<svg version="1.1" style="font-family:&quot;lucida grande&quot;, &quot;lucida sans unicode&quot;, arial, helvetica, sans-serif;font-size:12px;" xmlns="http://www.w3.org/2000/svg" width="584" height="400" viewBox="0 0 584 400"><desc>Created with Highcharts 4.1.4</desc><defs><clipPath id="highcharts-1"><rect x="0" y="0" width="505" height="280"></rect></clipPath><clipPath id="highcharts-2"><rect x="-99" y="-47" width="604" height="400"></rect></clipPath><clipPath id="highcharts-3"><rect x="0" y="0" width="505" height="280"></rect></clipPath></defs><rect x="0" y="0" width="584" height="400" strokeWidth="0" fill="#FFFFFF" class=" highcharts-background" stroke="transparent"></rect><g class="highcharts-grid" ></g><g class="highcharts-grid" ><path fill="none" d="M 69 327.5 L 574 327.5" stroke="#D8D8D8" stroke-width="1"  opacity="1"></path><path fill="none" d="M 69 271.5 L 574 271.5" stroke="#D8D8D8" stroke-width="1"  opacity="1"></path><path fill="none" d="M 69 215.5 L 574 215.5" stroke="#D8D8D8" stroke-width="1"  opacity="1"></path><path fill="none" d="M 69 159.5 L 574 159.5" stroke="#D8D8D8" stroke-width="1"  opacity="1"></path><path fill="none" d="M 69 103.5 L 574 103.5" stroke="#D8D8D8" stroke-width="1"  opacity="1"></path><path fill="none" d="M 69 46.5 L 574 46.5" stroke="#D8D8D8" stroke-width="1"  opacity="1"></path></g><g class="highcharts-axis" ><path fill="none" d="M 169.5 327 L 169.5 337" stroke="#C0D0E0" stroke-width="1" opacity="1"></path><path fill="none" d="M 270.5 327 L 270.5 337" stroke="#C0D0E0" stroke-width="1" opacity="1"></path><path fill="none" d="M 371.5 327 L 371.5 337" stroke="#C0D0E0" stroke-width="1" opacity="1"></path><path fill="none" d="M 472.5 327 L 472.5 337" stroke="#C0D0E0" stroke-width="1" opacity="1"></path><path fill="none" d="M 574.5 327 L 574.5 337" stroke="#C0D0E0" stroke-width="1" opacity="1"></path><path fill="none" d="M 68.5 327 L 68.5 337" stroke="#C0D0E0" stroke-width="1" opacity="1"></path><path fill="none" d="M 69 327.5 L 574 327.5" stroke="#C0D0E0" stroke-width="1"  visibility="visible"></path></g><g class="highcharts-axis" ><text x="24"  text-anchor="middle" transform="translate(0,0) rotate(270 24 187)" class=" highcharts-yaxis-title" style="color:#707070;fill:#707070;" visibility="visible" y="187">Values</text></g><g class="highcharts-series-group" ><g class="highcharts-series" visibility="visible"  transform="translate(69,47) scale(1 1)" clip-path="url(#highcharts-3)"><path fill="rgb(124,181,236)" fill-opacity="0.7" d="M 50.5 56 L 151.5 100.8 L 252.5 78.4 L 353.5 11.2 L 454.5 123.2 L 454.5 168 L 50.5 168" ></path><path fill="none" d="M 50.5 56 L 151.5 100.8 L 252.5 78.4 L 353.5 11.2 L 454.5 123.2" stroke="#7cb5ec" stroke-width="2"  stroke-linejoin="round" stroke-linecap="round"></path><path fill="none" d="M 40.5 56 L 50.5 56 L 151.5 100.8 L 252.5 78.4 L 353.5 11.2 L 454.5 123.2 L 464.5 123.2" stroke-linejoin="round" visibility="visible" stroke="rgb(192,192,192)" stroke-opacity="0.0" stroke-width="22"  class=" highcharts-tracker" style=""></path></g><g class="highcharts-markers highcharts-tracker" visibility="visible"  transform="translate(69,47) scale(1 1)" clip-path="url(#highcharts-2)" style=""><path fill="#7cb5ec" d="M 454 119.2 C 459.3 119.2 459.3 127.2 454 127.2 C 448.6 127.2 448.6 119.2 454 119.2 Z"></path><path fill="#7cb5ec" d="M 353 7.2 C 358.3 7.2 358.3 15.2 353 15.2 C 347.6 15.2 347.6 7.2 353 7.2 Z"></path><path fill="#7cb5ec" d="M 252 74.4 C 257.3 74.4 257.3 82.4 252 82.4 C 246.6 82.4 246.6 74.4 252 74.4 Z"></path><path fill="#7cb5ec" d="M 151 96.8 C 156.3 96.8 156.3 104.8 151 104.8 C 145.6 104.8 145.6 96.8 151 96.8 Z"></path><path fill="#7cb5ec" d="M 50 52 C 55.3 52 55.3 60 50 60 C 44.6 60 44.6 52 50 52 Z"></path></g><g class="highcharts-series" visibility="visible"  transform="translate(69,47) scale(1 1)" clip-path="url(#highcharts-3)"><path fill="rgb(67,67,72)" fill-opacity="0.7" d="M 50.5 123.2 L 151.5 212.8 L 252.5 235.2 L 353.5 123.2 L 454.5 145.6 L 454.5 168 L 50.5 168" ></path><path fill="none" d="M 50.5 123.2 L 151.5 212.8 L 252.5 235.2 L 353.5 123.2 L 454.5 145.6" stroke="#434348" stroke-width="2"  stroke-linejoin="round" stroke-linecap="round"></path><path fill="none" d="M 40.5 123.2 L 50.5 123.2 L 151.5 212.8 L 252.5 235.2 L 353.5 123.2 L 454.5 145.6 L 464.5 145.6" stroke-linejoin="round" visibility="visible" stroke="rgb(192,192,192)" stroke-opacity="0.0" stroke-width="22"  class=" highcharts-tracker" style=""></path></g><g class="highcharts-markers highcharts-tracker" visibility="visible"  transform="translate(69,47) scale(1 1)" clip-path="url(#highcharts-2)" style=""><path fill="#434348" d="M 454 141.6 L 458 145.6 454 149.6 450 145.6 Z"></path><path fill="#434348" d="M 353 119.2 L 357 123.2 353 127.2 349 123.2 Z"></path><path fill="#434348" d="M 252 231.2 L 256 235.2 252 239.2 248 235.2 Z"></path><path fill="#434348" d="M 151 208.8 L 155 212.8 151 216.8 147 212.8 Z"></path><path fill="#434348" d="M 50 119.2 L 54 123.2 50 127.2 46 123.2 Z"></path></g><g class="highcharts-series" visibility="visible"  transform="translate(69,47) scale(1 1)" clip-path="url(#highcharts-3)"><path fill="rgb(144,237,125)" fill-opacity="0.7" d="M 50.5 100.8 L 151.5 78.4 L 252.5 78.4 L 353.5 212.8 L 454.5 56 L 454.5 168 L 50.5 168" ></path><path fill="none" d="M 50.5 100.8 L 151.5 78.4 L 252.5 78.4 L 353.5 212.8 L 454.5 56" stroke="#90ed7d" stroke-width="2"  stroke-linejoin="round" stroke-linecap="round"></path><path fill="none" d="M 40.5 100.8 L 50.5 100.8 L 151.5 78.4 L 252.5 78.4 L 353.5 212.8 L 454.5 56 L 464.5 56" stroke-linejoin="round" visibility="visible" stroke="rgb(192,192,192)" stroke-opacity="0.0" stroke-width="22"  class=" highcharts-tracker" style=""></path></g><g class="highcharts-markers highcharts-tracker" visibility="visible"  transform="translate(69,47) scale(1 1)" clip-path="url(#highcharts-2)" style=""><path fill="#90ed7d" d="M 450 52 L 458 52 458 60 450 60 Z"></path><path fill="#90ed7d" d="M 349 208.8 L 357 208.8 357 216.8 349 216.8 Z"></path><path fill="#90ed7d" d="M 248 74.4 L 256 74.4 256 82.4 248 82.4 Z"></path><path fill="#90ed7d" d="M 147 74.4 L 155 74.4 155 82.4 147 82.4 Z"></path><path fill="#90ed7d" d="M 46 96.8 L 54 96.8 54 104.8 46 104.8 Z"></path></g></g><text x="292" text-anchor="middle" class="highcharts-title"  style="color:#333333;font-size:18px;fill:#333333;width:520px;" y="24"><tspan>Area chart with negative values</tspan></text><g class="highcharts-legend"  transform="translate(193,360)"><g ><g><g class="highcharts-legend-item"  transform="translate(8,3)"><text x="21" style="color:#333333;font-size:12px;font-weight:bold;cursor:pointer;fill:#333333;" text-anchor="start"  y="15">John</text><rect x="0" y="4" width="16" height="12"  fill="#7cb5ec"></rect></g><g class="highcharts-legend-item"  transform="translate(79,3)"><text x="21" y="15" style="color:#333333;font-size:12px;font-weight:bold;cursor:pointer;fill:#333333;" text-anchor="start" >Jane</text><rect x="0" y="4" width="16" height="12"  fill="#434348"></rect></g><g class="highcharts-legend-item"  transform="translate(148,3)"><text x="21" y="15" style="color:#333333;font-size:12px;font-weight:bold;cursor:pointer;fill:#333333;" text-anchor="start" >Joe</text><rect x="0" y="4" width="16" height="12"  fill="#90ed7d"></rect></g></g></g></g><g class="highcharts-axis-labels highcharts-xaxis-labels" ><text x="119.5" style="color:#606060;cursor:default;font-size:11px;fill:#606060;width:103px;text-overflow:clip;" text-anchor="middle" transform="translate(0,0)" y="346" opacity="1">Apples</text><text x="220.5" style="color:#606060;cursor:default;font-size:11px;fill:#606060;width:103px;text-overflow:clip;" text-anchor="middle" transform="translate(0,0)" y="346" opacity="1">Oranges</text><text x="321.5" style="color:#606060;cursor:default;font-size:11px;fill:#606060;width:103px;text-overflow:clip;" text-anchor="middle" transform="translate(0,0)" y="346" opacity="1">Pears</text><text x="422.5" style="color:#606060;cursor:default;font-size:11px;fill:#606060;width:103px;text-overflow:clip;" text-anchor="middle" transform="translate(0,0)" y="346" opacity="1">Grapes</text><text x="523.5" style="color:#606060;cursor:default;font-size:11px;fill:#606060;width:103px;text-overflow:clip;" text-anchor="middle" transform="translate(0,0)" y="346" opacity="1">Bananas</text></g><g class="highcharts-axis-labels highcharts-yaxis-labels" ><text x="54" style="color:#606060;cursor:default;font-size:11px;fill:#606060;width:183px;text-overflow:clip;" text-anchor="end" transform="translate(0,0)" y="332" opacity="1">-5</text><text x="54" style="color:#606060;cursor:default;font-size:11px;fill:#606060;width:183px;text-overflow:clip;" text-anchor="end" transform="translate(0,0)" y="276" opacity="1">-2.5</text><text x="54" style="color:#606060;cursor:default;font-size:11px;fill:#606060;width:183px;text-overflow:clip;" text-anchor="end" transform="translate(0,0)" y="220" opacity="1">0</text><text x="54" style="color:#606060;cursor:default;font-size:11px;fill:#606060;width:183px;text-overflow:clip;" text-anchor="end" transform="translate(0,0)" y="164" opacity="1">2.5</text><text x="54" style="color:#606060;cursor:default;font-size:11px;fill:#606060;width:183px;text-overflow:clip;" text-anchor="end" transform="translate(0,0)" y="108" opacity="1">5</text><text x="54" style="color:#606060;cursor:default;font-size:11px;fill:#606060;width:183px;text-overflow:clip;" text-anchor="end" transform="translate(0,0)" y="52" opacity="1">7.5</text></g><g class="highcharts-tooltip"  style="cursor:default;padding:0;white-space:nowrap;" transform="translate(0,-9999)"><path fill="none" d="M 3 0 L 13 0 C 16 0 16 0 16 3 L 16 13 C 16 16 16 16 13 16 L 3 16 C 0 16 0 16 0 13 L 0 3 C 0 0 0 0 3 0"  stroke="black" stroke-opacity="0.0" stroke-width="5" transform="translate(1, 1)"></path><path fill="none" d="M 3 0 L 13 0 C 16 0 16 0 16 3 L 16 13 C 16 16 16 16 13 16 L 3 16 C 0 16 0 16 0 13 L 0 3 C 0 0 0 0 3 0"  stroke="black" stroke-opacity="0.0" stroke-width="3" transform="translate(1, 1)"></path><path fill="none" d="M 3 0 L 13 0 C 16 0 16 0 16 3 L 16 13 C 16 16 16 16 13 16 L 3 16 C 0 16 0 16 0 13 L 0 3 C 0 0 0 0 3 0"  stroke="black" stroke-opacity="0.1" stroke-width="1" transform="translate(1, 1)"></path><path fill="rgb(249, 249, 249)" fill-opacity=" .85" d="M 3 0 L 13 0 C 16 0 16 0 16 3 L 16 13 C 16 16 16 16 13 16 L 3 16 C 0 16 0 16 0 13 L 0 3 C 0 0 0 0 3 0"></path><text x="8"  style="font-size:12px;color:#333333;fill:#333333;" transform="translate(0,20)"></text></g></svg>