<svg version="1.1" style="font-family:&quot;lucida grande&quot;, &quot;lucida sans unicode&quot;, arial, helvetica, sans-serif;font-size:12px;" xmlns="http://www.w3.org/2000/svg" width="584" height="400" viewBox="0 0 584 400"><desc>Created with Highcharts 4.1.4</desc><defs><clipPath id="highcharts-1"><rect x="0" y="0" width="266" height="476"></rect></clipPath></defs><rect x="0" y="0" width="584" height="400" strokeWidth="0" fill="#FFFFFF" class=" highcharts-background"></rect><g class="highcharts-grid" ></g><g class="highcharts-grid" ></g><g class="highcharts-grid" ><path fill="none" d="M 53.5 61 L 53.5 327" stroke="#D8D8D8" stroke-width="1"  opacity="1"></path><path fill="none" d="M 113.5 61 L 113.5 327" stroke="#D8D8D8" stroke-width="1"  opacity="1"></path><path fill="none" d="M 172.5 61 L 172.5 327" stroke="#D8D8D8" stroke-width="1"  opacity="1"></path><path fill="none" d="M 232.5 61 L 232.5 327" stroke="#D8D8D8" stroke-width="1"  opacity="1"></path><path fill="none" d="M 291.5 61 L 291.5 327" stroke="#D8D8D8" stroke-width="1"  opacity="1"></path><path fill="none" d="M 351.5 61 L 351.5 327" stroke="#D8D8D8" stroke-width="1"  opacity="1"></path><path fill="none" d="M 410.5 61 L 410.5 327" stroke="#D8D8D8" stroke-width="1"  opacity="1"></path><path fill="none" d="M 470.5 61 L 470.5 327" stroke="#D8D8D8" stroke-width="1"  opacity="1"></path><path fill="none" d="M 530.5 61 L 530.5 327" stroke="#D8D8D8" stroke-width="1"  opacity="1"></path></g><g class="highcharts-axis" ><path fill="none" d="M 54 321.5 L 44 321.5" stroke="#C0D0E0" stroke-width="1" opacity="1"></path><path fill="none" d="M 54 295.5 L 44 295.5" stroke="#C0D0E0" stroke-width="1" opacity="1"></path><path fill="none" d="M 54 270.5 L 44 270.5" stroke="#C0D0E0" stroke-width="1" opacity="1"></path><path fill="none" d="M 54 245.5 L 44 245.5" stroke="#C0D0E0" stroke-width="1" opacity="1"></path><path fill="none" d="M 54 219.5 L 44 219.5" stroke="#C0D0E0" stroke-width="1" opacity="1"></path><path fill="none" d="M 54 194.5 L 44 194.5" stroke="#C0D0E0" stroke-width="1" opacity="1"></path><path fill="none" d="M 54 169.5 L 44 169.5" stroke="#C0D0E0" stroke-width="1" opacity="1"></path><path fill="none" d="M 54 143.5 L 44 143.5" stroke="#C0D0E0" stroke-width="1" opacity="1"></path><path fill="none" d="M 54 118.5 L 44 118.5" stroke="#C0D0E0" stroke-width="1" opacity="1"></path><path fill="none" d="M 54 93.5 L 44 93.5" stroke="#C0D0E0" stroke-width="1" opacity="1"></path><path fill="none" d="M 54 67.5 L 44 67.5" stroke="#C0D0E0" stroke-width="1" opacity="1"></path><path fill="none" d="M 53.5 61 L 53.5 327" stroke="#C0D0E0" stroke-width="1"  visibility="visible"></path></g><g class="highcharts-axis" ><path fill="none" d="M 530 321.5 L 540 321.5" stroke="#C0D0E0" stroke-width="1" opacity="1"></path><path fill="none" d="M 530 295.5 L 540 295.5" stroke="#C0D0E0" stroke-width="1" opacity="1"></path><path fill="none" d="M 530 270.5 L 540 270.5" stroke="#C0D0E0" stroke-width="1" opacity="1"></path><path fill="none" d="M 530 245.5 L 540 245.5" stroke="#C0D0E0" stroke-width="1" opacity="1"></path><path fill="none" d="M 530 219.5 L 540 219.5" stroke="#C0D0E0" stroke-width="1" opacity="1"></path><path fill="none" d="M 530 194.5 L 540 194.5" stroke="#C0D0E0" stroke-width="1" opacity="1"></path><path fill="none" d="M 530 169.5 L 540 169.5" stroke="#C0D0E0" stroke-width="1" opacity="1"></path><path fill="none" d="M 530 143.5 L 540 143.5" stroke="#C0D0E0" stroke-width="1" opacity="1"></path><path fill="none" d="M 530 118.5 L 540 118.5" stroke="#C0D0E0" stroke-width="1" opacity="1"></path><path fill="none" d="M 530 93.5 L 540 93.5" stroke="#C0D0E0" stroke-width="1" opacity="1"></path><path fill="none" d="M 530 67.5 L 540 67.5" stroke="#C0D0E0" stroke-width="1" opacity="1"></path><path fill="none" d="M 530.5 61 L 530.5 327" stroke="#C0D0E0" stroke-width="1"  visibility="visible"></path></g><g class="highcharts-axis" ></g><g class="highcharts-series-group" ><g class="highcharts-series highcharts-tracker" visibility="visible"  transform="translate(530,327) rotate(90) scale(-1,1) scale(1 1)" style="" width="476" height="266" clip-path="url(#highcharts-1)"><rect x="2.5" y="238.5" width="7" height="104" stroke="#FFFFFF" stroke-width="1" fill="#7cb5ec" rx="0" ry="0"></rect><rect x="15.5" y="238.5" width="7" height="112" stroke="#FFFFFF" stroke-width="1" fill="#7cb5ec" rx="0" ry="0"></rect><rect x="28.5" y="238.5" width="7" height="124" stroke="#FFFFFF" stroke-width="1" fill="#7cb5ec" rx="0" ry="0"></rect><rect x="40.5" y="238.5" width="7" height="132" stroke="#FFFFFF" stroke-width="1" fill="#7cb5ec" rx="0" ry="0"></rect><rect x="53.5" y="238.5" width="7" height="151" stroke="#FFFFFF" stroke-width="1" fill="#7cb5ec" rx="0" ry="0"></rect><rect x="66.5" y="238.5" width="7" height="149" stroke="#FFFFFF" stroke-width="1" fill="#7cb5ec" rx="0" ry="0"></rect><rect x="78.5" y="238.5" width="7" height="145" stroke="#FFFFFF" stroke-width="1" fill="#7cb5ec" rx="0" ry="0"></rect><rect x="91.5" y="238.5" width="7" height="159" stroke="#FFFFFF" stroke-width="1" fill="#7cb5ec" rx="0" ry="0"></rect><rect x="104.5" y="238.5" width="7" height="212" stroke="#FFFFFF" stroke-width="1" fill="#7cb5ec" rx="0" ry="0"></rect><rect x="116.5" y="238.5" width="7" height="219" stroke="#FFFFFF" stroke-width="1" fill="#7cb5ec" rx="0" ry="0"></rect><rect x="129.5" y="238.5" width="7" height="187" stroke="#FFFFFF" stroke-width="1" fill="#7cb5ec" rx="0" ry="0"></rect><rect x="142.5" y="238.5" width="7" height="162" stroke="#FFFFFF" stroke-width="1" fill="#7cb5ec" rx="0" ry="0"></rect><rect x="154.5" y="238.5" width="7" height="133" stroke="#FFFFFF" stroke-width="1" fill="#7cb5ec" rx="0" ry="0"></rect><rect x="167.5" y="238.5" width="7" height="133" stroke="#FFFFFF" stroke-width="1" fill="#7cb5ec" rx="0" ry="0"></rect><rect x="180.5" y="238.5" width="7" height="129" stroke="#FFFFFF" stroke-width="1" fill="#7cb5ec" rx="0" ry="0"></rect><rect x="192.5" y="238.5" width="7" height="79" stroke="#FFFFFF" stroke-width="1" fill="#7cb5ec" rx="0" ry="0"></rect><rect x="205.5" y="238.5" width="7" height="50" stroke="#FFFFFF" stroke-width="1" fill="#7cb5ec" rx="0" ry="0"></rect><rect x="218.5" y="238.5" width="7" height="21" stroke="#FFFFFF" stroke-width="1" fill="#7cb5ec" rx="0" ry="0"></rect><rect x="230.5" y="238.5" width="7" height="5" stroke="#FFFFFF" stroke-width="1" fill="#7cb5ec" rx="0" ry="0"></rect><rect x="243.5" y="238.5" width="7" height="2" stroke="#FFFFFF" stroke-width="1" fill="#7cb5ec" rx="0" ry="0"></rect><rect x="256.5" y="238.5" width="7" height="0" stroke="#FFFFFF" stroke-width="1" fill="#7cb5ec" rx="0" ry="0"></rect></g><g class="highcharts-markers" visibility="visible"  transform="translate(530,327) rotate(90) scale(-1,1) scale(1 1)" width="476" height="266"></g><g class="highcharts-series highcharts-tracker" visibility="visible"  transform="translate(530,327) rotate(90) scale(-1,1) scale(1 1)" style="" width="476" height="266" clip-path="url(#highcharts-1)"><rect x="2.5" y="139.5" width="7" height="99" stroke="#FFFFFF" stroke-width="1" fill="#434348" rx="0" ry="0"></rect><rect x="15.5" y="132.5" width="7" height="106" stroke="#FFFFFF" stroke-width="1" fill="#434348" rx="0" ry="0"></rect><rect x="28.5" y="120.5" width="7" height="118" stroke="#FFFFFF" stroke-width="1" fill="#434348" rx="0" ry="0"></rect><rect x="40.5" y="113.5" width="7" height="125" stroke="#FFFFFF" stroke-width="1" fill="#434348" rx="0" ry="0"></rect><rect x="53.5" y="95.5" width="7" height="143" stroke="#FFFFFF" stroke-width="1" fill="#434348" rx="0" ry="0"></rect><rect x="66.5" y="97.5" width="7" height="141" stroke="#FFFFFF" stroke-width="1" fill="#434348" rx="0" ry="0"></rect><rect x="78.5" y="101.5" width="7" height="137" stroke="#FFFFFF" stroke-width="1" fill="#434348" rx="0" ry="0"></rect><rect x="91.5" y="88.5" width="7" height="150" stroke="#FFFFFF" stroke-width="1" fill="#434348" rx="0" ry="0"></rect><rect x="104.5" y="38.5" width="7" height="200" stroke="#FFFFFF" stroke-width="1" fill="#434348" rx="0" ry="0"></rect><rect x="116.5" y="30.5" width="7" height="208" stroke="#FFFFFF" stroke-width="1" fill="#434348" rx="0" ry="0"></rect><rect x="129.5" y="56.5" width="7" height="182" stroke="#FFFFFF" stroke-width="1" fill="#434348" rx="0" ry="0"></rect><rect x="142.5" y="74.5" width="7" height="164" stroke="#FFFFFF" stroke-width="1" fill="#434348" rx="0" ry="0"></rect><rect x="154.5" y="101.5" width="7" height="137" stroke="#FFFFFF" stroke-width="1" fill="#434348" rx="0" ry="0"></rect><rect x="167.5" y="94.5" width="7" height="144" stroke="#FFFFFF" stroke-width="1" fill="#434348" rx="0" ry="0"></rect><rect x="180.5" y="85.5" width="7" height="153" stroke="#FFFFFF" stroke-width="1" fill="#434348" rx="0" ry="0"></rect><rect x="192.5" y="132.5" width="7" height="106" stroke="#FFFFFF" stroke-width="1" fill="#434348" rx="0" ry="0"></rect><rect x="205.5" y="152.5" width="7" height="86" stroke="#FFFFFF" stroke-width="1" fill="#434348" rx="0" ry="0"></rect><rect x="218.5" y="178.5" width="7" height="60" stroke="#FFFFFF" stroke-width="1" fill="#434348" rx="0" ry="0"></rect><rect x="230.5" y="218.5" width="7" height="20" stroke="#FFFFFF" stroke-width="1" fill="#434348" rx="0" ry="0"></rect><rect x="243.5" y="230.5" width="7" height="8" stroke="#FFFFFF" stroke-width="1" fill="#434348" rx="0" ry="0"></rect><rect x="256.5" y="237.5" width="7" height="1" stroke="#FFFFFF" stroke-width="1" fill="#434348" rx="0" ry="0"></rect></g><g class="highcharts-markers" visibility="visible"  transform="translate(530,327) rotate(90) scale(-1,1) scale(1 1)" width="476" height="266"></g></g><text x="292" text-anchor="middle" class="highcharts-title"  style="color:#333333;font-size:18px;fill:#333333;width:520px;" y="24"><tspan>Population pyramid for Germany, midyear 2010</tspan></text><text x="292" text-anchor="middle" class="highcharts-subtitle"  style="color:#555555;fill:#555555;width:520px;" y="46"><tspan>Source: www.census.gov</tspan></text><g class="highcharts-legend"  transform="translate(219,360)"><g ><g><g class="highcharts-legend-item"  transform="translate(8,3)"><text x="21" style="color:#333333;font-size:12px;font-weight:bold;cursor:pointer;fill:#333333;" text-anchor="start"  y="15">Male</text><rect x="0" y="4" width="16" height="12"  fill="#7cb5ec"></rect></g><g class="highcharts-legend-item"  transform="translate(77,3)"><text x="21" y="15" style="color:#333333;font-size:12px;font-weight:bold;cursor:pointer;fill:#333333;" text-anchor="start" >Female</text><rect x="0" y="4" width="16" height="12"  fill="#434348"></rect></g></g></g></g><g class="highcharts-axis-labels highcharts-xaxis-labels" ><text x="39" style="color:#606060;cursor:default;font-size:11px;fill:#606060;width:183px;text-overflow:clip;" text-anchor="end" transform="translate(0,0)" y="325" opacity="1">0-4</text><text x="39" style="color:#606060;cursor:default;font-size:11px;fill:#606060;width:183px;text-overflow:clip;" text-anchor="end" transform="translate(0,0)" y="300" opacity="1">10-14</text><text x="39" style="color:#606060;cursor:default;font-size:11px;fill:#606060;width:183px;text-overflow:clip;" text-anchor="end" transform="translate(0,0)" y="275" opacity="1">20-24</text><text x="39" style="color:#606060;cursor:default;font-size:11px;fill:#606060;width:183px;text-overflow:clip;" text-anchor="end" transform="translate(0,0)" y="249" opacity="1">30-34</text><text x="39" style="color:#606060;cursor:default;font-size:11px;fill:#606060;width:183px;text-overflow:clip;" text-anchor="end" transform="translate(0,0)" y="224" opacity="1">40-44</text><text x="39" style="color:#606060;cursor:default;font-size:11px;fill:#606060;width:183px;text-overflow:clip;" text-anchor="end" transform="translate(0,0)" y="199" opacity="1">50-54</text><text x="39" style="color:#606060;cursor:default;font-size:11px;fill:#606060;width:183px;text-overflow:clip;" text-anchor="end" transform="translate(0,0)" y="173" opacity="1">60-64</text><text x="39" style="color:#606060;cursor:default;font-size:11px;fill:#606060;width:183px;text-overflow:clip;" text-anchor="end" transform="translate(0,0)" y="148" opacity="1">70-74</text><text x="39" style="color:#606060;cursor:default;font-size:11px;fill:#606060;width:183px;text-overflow:clip;" text-anchor="end" transform="translate(0,0)" y="123" opacity="1">80-84</text><text x="39" style="color:#606060;cursor:default;font-size:11px;fill:#606060;width:183px;text-overflow:clip;" text-anchor="end" transform="translate(0,0)" y="97" opacity="1">90-94</text><text x="39" style="color:#606060;cursor:default;font-size:11px;fill:#606060;width:183px;text-overflow:clip;" text-anchor="end" transform="translate(0,0)" y="72" opacity="1"><tspan>100 + </tspan></text></g><g class="highcharts-axis-labels highcharts-xaxis-labels" ><text x="545" style="color:#606060;cursor:default;font-size:11px;fill:#606060;width:183px;text-overflow:clip;" text-anchor="start" transform="translate(0,0)" y="325" opacity="1">0-4</text><text x="545" style="color:#606060;cursor:default;font-size:11px;fill:#606060;width:183px;text-overflow:clip;" text-anchor="start" transform="translate(0,0)" y="300" opacity="1">10-14</text><text x="545" style="color:#606060;cursor:default;font-size:11px;fill:#606060;width:183px;text-overflow:clip;" text-anchor="start" transform="translate(0,0)" y="275" opacity="1">20-24</text><text x="545" style="color:#606060;cursor:default;font-size:11px;fill:#606060;width:183px;text-overflow:clip;" text-anchor="start" transform="translate(0,0)" y="249" opacity="1">30-34</text><text x="545" style="color:#606060;cursor:default;font-size:11px;fill:#606060;width:183px;text-overflow:clip;" text-anchor="start" transform="translate(0,0)" y="224" opacity="1">40-44</text><text x="545" style="color:#606060;cursor:default;font-size:11px;fill:#606060;width:183px;text-overflow:clip;" text-anchor="start" transform="translate(0,0)" y="199" opacity="1">50-54</text><text x="545" style="color:#606060;cursor:default;font-size:11px;fill:#606060;width:183px;text-overflow:clip;" text-anchor="start" transform="translate(0,0)" y="173" opacity="1">60-64</text><text x="545" style="color:#606060;cursor:default;font-size:11px;fill:#606060;width:183px;text-overflow:clip;" text-anchor="start" transform="translate(0,0)" y="148" opacity="1">70-74</text><text x="545" style="color:#606060;cursor:default;font-size:11px;fill:#606060;width:183px;text-overflow:clip;" text-anchor="start" transform="translate(0,0)" y="123" opacity="1">80-84</text><text x="545" style="color:#606060;cursor:default;font-size:11px;fill:#606060;width:183px;text-overflow:clip;" text-anchor="start" transform="translate(0,0)" y="97" opacity="1">90-94</text><text x="545" style="color:#606060;cursor:default;font-size:11px;fill:#606060;width:183px;text-overflow:clip;" text-anchor="start" transform="translate(0,0)" y="72" opacity="1"><tspan>100 + </tspan></text></g><g class="highcharts-axis-labels highcharts-yaxis-labels" ><text x="54" style="color:#606060;cursor:default;font-size:11px;fill:#606060;" text-anchor="middle" transform="translate(0,0)" y="346" opacity="1">4M</text><text x="113.5" style="color:#606060;cursor:default;font-size:11px;fill:#606060;" text-anchor="middle" transform="translate(0,0)" y="346" opacity="1">3M</text><text x="173" style="color:#606060;cursor:default;font-size:11px;fill:#606060;" text-anchor="middle" transform="translate(0,0)" y="346" opacity="1">2M</text><text x="232.5" style="color:#606060;cursor:default;font-size:11px;fill:#606060;" text-anchor="middle" transform="translate(0,0)" y="346" opacity="1">1M</text><text x="292" style="color:#606060;cursor:default;font-size:11px;fill:#606060;" text-anchor="middle" transform="translate(0,0)" y="346" opacity="1">0M</text><text x="351.5" style="color:#606060;cursor:default;font-size:11px;fill:#606060;" text-anchor="middle" transform="translate(0,0)" y="346" opacity="1">1M</text><text x="411" style="color:#606060;cursor:default;font-size:11px;fill:#606060;" text-anchor="middle" transform="translate(0,0)" y="346" opacity="1">2M</text><text x="470.5" style="color:#606060;cursor:default;font-size:11px;fill:#606060;" text-anchor="middle" transform="translate(0,0)" y="346" opacity="1">3M</text><text x="530" style="color:#606060;cursor:default;font-size:11px;fill:#606060;" text-anchor="middle" transform="translate(0,0)" y="346" opacity="1">4M</text></g><g class="highcharts-tooltip"  style="cursor:default;padding:0;white-space:nowrap;" transform="translate(0,-9999)"><path fill="none" d="M 3 0 L 13 0 C 16 0 16 0 16 3 L 16 13 C 16 16 16 16 13 16 L 3 16 C 0 16 0 16 0 13 L 0 3 C 0 0 0 0 3 0"  stroke="black" stroke-opacity="0.0" stroke-width="5" transform="translate(1, 1)"></path><path fill="none" d="M 3 0 L 13 0 C 16 0 16 0 16 3 L 16 13 C 16 16 16 16 13 16 L 3 16 C 0 16 0 16 0 13 L 0 3 C 0 0 0 0 3 0"  stroke="black" stroke-opacity="0.0" stroke-width="3" transform="translate(1, 1)"></path><path fill="none" d="M 3 0 L 13 0 C 16 0 16 0 16 3 L 16 13 C 16 16 16 16 13 16 L 3 16 C 0 16 0 16 0 13 L 0 3 C 0 0 0 0 3 0"  stroke="black" stroke-opacity="0.1" stroke-width="1" transform="translate(1, 1)"></path><path fill="rgb(249, 249, 249)" fill-opacity=" .85" d="M 3 0 L 13 0 C 16 0 16 0 16 3 L 16 13 C 16 16 16 16 13 16 L 3 16 C 0 16 0 16 0 13 L 0 3 C 0 0 0 0 3 0"></path><text x="8"  style="font-size:12px;color:#333333;fill:#333333;" transform="translate(0,20)"></text></g></svg>