<svg version="1.1" style="font-family:&quot;lucida grande&quot;, &quot;lucida sans unicode&quot;, arial, helvetica, sans-serif;font-size:12px;" xmlns="http://www.w3.org/2000/svg" width="584" height="400" viewBox="0 0 584 400"><desc>Created with Highcharts 4.1.4</desc><defs><clipPath id="highcharts-1"><rect x="0" y="0" width="261" height="508"></rect></clipPath></defs><rect x="0" y="0" width="584" height="400" strokeWidth="0" fill="#FFFFFF" class=" highcharts-background" stroke="transparent"></rect><g class="highcharts-grid" ></g><g class="highcharts-grid" ><path fill="none" d="M 65.5 47 L 65.5 308" stroke="#D8D8D8" stroke-width="1"  opacity="1"></path><path fill="none" d="M 107.5 47 L 107.5 308" stroke="#D8D8D8" stroke-width="1"  opacity="1"></path><path fill="none" d="M 150.5 47 L 150.5 308" stroke="#D8D8D8" stroke-width="1"  opacity="1"></path><path fill="none" d="M 192.5 47 L 192.5 308" stroke="#D8D8D8" stroke-width="1"  opacity="1"></path><path fill="none" d="M 234.5 47 L 234.5 308" stroke="#D8D8D8" stroke-width="1"  opacity="1"></path><path fill="none" d="M 277.5 47 L 277.5 308" stroke="#D8D8D8" stroke-width="1"  opacity="1"></path><path fill="none" d="M 319.5 47 L 319.5 308" stroke="#D8D8D8" stroke-width="1"  opacity="1"></path><path fill="none" d="M 361.5 47 L 361.5 308" stroke="#D8D8D8" stroke-width="1"  opacity="1"></path><path fill="none" d="M 404.5 47 L 404.5 308" stroke="#D8D8D8" stroke-width="1"  opacity="1"></path><path fill="none" d="M 446.5 47 L 446.5 308" stroke="#D8D8D8" stroke-width="1"  opacity="1"></path><path fill="none" d="M 488.5 47 L 488.5 308" stroke="#D8D8D8" stroke-width="1"  opacity="1"></path><path fill="none" d="M 531.5 47 L 531.5 308" stroke="#D8D8D8" stroke-width="1"  opacity="1"></path><path fill="none" d="M 574.5 47 L 574.5 308" stroke="#D8D8D8" stroke-width="1"  opacity="1"></path></g><g class="highcharts-axis" ><path fill="none" d="M 66 99.5 L 56 99.5" stroke="#C0D0E0" stroke-width="1" opacity="1"></path><path fill="none" d="M 66 151.5 L 56 151.5" stroke="#C0D0E0" stroke-width="1" opacity="1"></path><path fill="none" d="M 66 204.5 L 56 204.5" stroke="#C0D0E0" stroke-width="1" opacity="1"></path><path fill="none" d="M 66 256.5 L 56 256.5" stroke="#C0D0E0" stroke-width="1" opacity="1"></path><path fill="none" d="M 66 308.5 L 56 308.5" stroke="#C0D0E0" stroke-width="1" opacity="1"></path><path fill="none" d="M 66 46.5 L 56 46.5" stroke="#C0D0E0" stroke-width="1" opacity="1"></path><path fill="none" d="M 65.5 47 L 65.5 308" stroke="#C0D0E0" stroke-width="1"  visibility="visible"></path></g><g class="highcharts-axis" ><text x="320"  text-anchor="middle" transform="translate(0,0)" class=" highcharts-yaxis-title" style="color:#707070;fill:#707070;" visibility="visible" y="346"><tspan>Total fruit consumption</tspan></text></g><g class="highcharts-series-group" ><g class="highcharts-series highcharts-tracker" visibility="visible"  transform="translate(574,308) rotate(90) scale(-1,1) scale(1 1)" style="" width="508" height="261" clip-path="url(#highcharts-1)"><rect x="221.5" y="85.5" width="26" height="211" stroke="#FFFFFF" stroke-width="1" fill="#7cb5ec" rx="0" ry="0"></rect><rect x="169.5" y="127.5" width="26" height="127" stroke="#FFFFFF" stroke-width="1" fill="#7cb5ec" rx="0" ry="0"></rect><rect x="117.5" y="42.5" width="26" height="170" stroke="#FFFFFF" stroke-width="1" fill="#7cb5ec" rx="0" ry="0"></rect><rect x="65.5" y="42.5" width="26" height="297" stroke="#FFFFFF" stroke-width="1" fill="#7cb5ec" rx="0" ry="0"></rect><rect x="13.5" y="169.5" width="26" height="85" stroke="#FFFFFF" stroke-width="1" fill="#7cb5ec" rx="0" ry="0"></rect></g><g class="highcharts-markers" visibility="visible"  transform="translate(574,308) rotate(90) scale(-1,1) scale(1 1)" width="508" height="261"></g><g class="highcharts-series highcharts-tracker" visibility="visible"  transform="translate(574,308) rotate(90) scale(-1,1) scale(1 1)" style="" width="508" height="261" clip-path="url(#highcharts-1)"><rect x="221.5" y="296.5" width="26" height="85" stroke="#FFFFFF" stroke-width="1" fill="#434348" rx="0" ry="0"></rect><rect x="169.5" y="254.5" width="26" height="85" stroke="#FFFFFF" stroke-width="1" fill="#434348" rx="0" ry="0"></rect><rect x="117.5" y="212.5" width="26" height="127" stroke="#FFFFFF" stroke-width="1" fill="#434348" rx="0" ry="0"></rect><rect x="65.5" y="339.5" width="26" height="84" stroke="#FFFFFF" stroke-width="1" fill="#434348" rx="0" ry="0"></rect><rect x="13.5" y="254.5" width="26" height="42" stroke="#FFFFFF" stroke-width="1" fill="#434348" rx="0" ry="0"></rect></g><g class="highcharts-markers" visibility="visible"  transform="translate(574,308) rotate(90) scale(-1,1) scale(1 1)" width="508" height="261"></g><g class="highcharts-series highcharts-tracker" visibility="visible"  transform="translate(574,308) rotate(90) scale(-1,1) scale(1 1)" style="" width="508" height="261" clip-path="url(#highcharts-1)"><rect x="221.5" y="381.5" width="26" height="127" stroke="#FFFFFF" stroke-width="1" fill="#90ed7d" rx="0" ry="0"></rect><rect x="169.5" y="339.5" width="26" height="169" stroke="#FFFFFF" stroke-width="1" fill="#90ed7d" rx="0" ry="0"></rect><rect x="117.5" y="339.5" width="26" height="169" stroke="#FFFFFF" stroke-width="1" fill="#90ed7d" rx="0" ry="0"></rect><rect x="65.5" y="423.5" width="26" height="85" stroke="#FFFFFF" stroke-width="1" fill="#90ed7d" rx="0" ry="0"></rect><rect x="13.5" y="296.5" width="26" height="212" stroke="#FFFFFF" stroke-width="1" fill="#90ed7d" rx="0" ry="0"></rect></g><g class="highcharts-markers" visibility="visible"  transform="translate(574,308) rotate(90) scale(-1,1) scale(1 1)" width="508" height="261"></g></g><text x="292" text-anchor="middle" class="highcharts-title"  style="color:#333333;font-size:18px;fill:#333333;width:520px;" y="24"><tspan>Stacked bar chart</tspan></text><g class="highcharts-legend"  transform="translate(193,360)"><g ><g><g class="highcharts-legend-item"  transform="translate(8,3)"><text x="21" style="color:#333333;font-size:12px;font-weight:bold;cursor:pointer;fill:#333333;" text-anchor="start"  y="15">Joe</text><rect x="0" y="4" width="16" height="12"  fill="#90ed7d"></rect></g><g class="highcharts-legend-item"  transform="translate(70,3)"><text x="21" y="15" style="color:#333333;font-size:12px;font-weight:bold;cursor:pointer;fill:#333333;" text-anchor="start" >Jane</text><rect x="0" y="4" width="16" height="12"  fill="#434348"></rect></g><g class="highcharts-legend-item"  transform="translate(139,3)"><text x="21" y="15" style="color:#333333;font-size:12px;font-weight:bold;cursor:pointer;fill:#333333;" text-anchor="start" >John</text><rect x="0" y="4" width="16" height="12"  fill="#7cb5ec"></rect></g></g></g></g><g class="highcharts-axis-labels highcharts-xaxis-labels" ><text x="51" style="color:#606060;cursor:default;font-size:11px;fill:#606060;width:183px;text-overflow:clip;" text-anchor="end" transform="translate(0,0)" y="78" opacity="1">Apples</text><text x="51" style="color:#606060;cursor:default;font-size:11px;fill:#606060;width:183px;text-overflow:clip;" text-anchor="end" transform="translate(0,0)" y="130" opacity="1">Oranges</text><text x="51" style="color:#606060;cursor:default;font-size:11px;fill:#606060;width:183px;text-overflow:clip;" text-anchor="end" transform="translate(0,0)" y="182" opacity="1">Pears</text><text x="51" style="color:#606060;cursor:default;font-size:11px;fill:#606060;width:183px;text-overflow:clip;" text-anchor="end" transform="translate(0,0)" y="234" opacity="1">Grapes</text><text x="51" style="color:#606060;cursor:default;font-size:11px;fill:#606060;width:183px;text-overflow:clip;" text-anchor="end" transform="translate(0,0)" y="286" opacity="1">Bananas</text></g><g class="highcharts-axis-labels highcharts-yaxis-labels" ><text x="66" style="color:#606060;cursor:default;font-size:11px;fill:#606060;" text-anchor="middle" transform="translate(0,0)" y="327" opacity="1">0</text><text x="108.3" style="color:#606060;cursor:default;font-size:11px;fill:#606060;" text-anchor="middle" transform="translate(0,0)" y="327" opacity="1">1</text><text x="150.6" style="color:#606060;cursor:default;font-size:11px;fill:#606060;" text-anchor="middle" transform="translate(0,0)" y="327" opacity="1">2</text><text x="193" style="color:#606060;cursor:default;font-size:11px;fill:#606060;" text-anchor="middle" transform="translate(0,0)" y="327" opacity="1">3</text><text x="235.3" style="color:#606060;cursor:default;font-size:11px;fill:#606060;" text-anchor="middle" transform="translate(0,0)" y="327" opacity="1">4</text><text x="277.6" style="color:#606060;cursor:default;font-size:11px;fill:#606060;" text-anchor="middle" transform="translate(0,0)" y="327" opacity="1">5</text><text x="320" style="color:#606060;cursor:default;font-size:11px;fill:#606060;" text-anchor="middle" transform="translate(0,0)" y="327" opacity="1">6</text><text x="362.3" style="color:#606060;cursor:default;font-size:11px;fill:#606060;" text-anchor="middle" transform="translate(0,0)" y="327" opacity="1">7</text><text x="404.6" style="color:#606060;cursor:default;font-size:11px;fill:#606060;" text-anchor="middle" transform="translate(0,0)" y="327" opacity="1">8</text><text x="447" style="color:#606060;cursor:default;font-size:11px;fill:#606060;" text-anchor="middle" transform="translate(0,0)" y="327" opacity="1">9</text><text x="489.3" style="color:#606060;cursor:default;font-size:11px;fill:#606060;" text-anchor="middle" transform="translate(0,0)" y="327" opacity="1">10</text><text x="531.6" style="color:#606060;cursor:default;font-size:11px;fill:#606060;" text-anchor="middle" transform="translate(0,0)" y="327" opacity="1">11</text><text x="574" style="color:#606060;cursor:default;font-size:11px;fill:#606060;" text-anchor="end" transform="translate(0,0)" y="327" opacity="1">12</text></g><g class="highcharts-tooltip"  style="cursor:default;padding:0;white-space:nowrap;" transform="translate(0,-9999)"><path fill="none" d="M 3 0 L 13 0 C 16 0 16 0 16 3 L 16 13 C 16 16 16 16 13 16 L 3 16 C 0 16 0 16 0 13 L 0 3 C 0 0 0 0 3 0"  stroke="black" stroke-opacity="0.0" stroke-width="5" transform="translate(1, 1)"></path><path fill="none" d="M 3 0 L 13 0 C 16 0 16 0 16 3 L 16 13 C 16 16 16 16 13 16 L 3 16 C 0 16 0 16 0 13 L 0 3 C 0 0 0 0 3 0"  stroke="black" stroke-opacity="0.0" stroke-width="3" transform="translate(1, 1)"></path><path fill="none" d="M 3 0 L 13 0 C 16 0 16 0 16 3 L 16 13 C 16 16 16 16 13 16 L 3 16 C 0 16 0 16 0 13 L 0 3 C 0 0 0 0 3 0"  stroke="black" stroke-opacity="0.1" stroke-width="1" transform="translate(1, 1)"></path><path fill="rgb(249, 249, 249)" fill-opacity=" .85" d="M 3 0 L 13 0 C 16 0 16 0 16 3 L 16 13 C 16 16 16 16 13 16 L 3 16 C 0 16 0 16 0 13 L 0 3 C 0 0 0 0 3 0"></path><text x="8"  style="font-size:12px;color:#333333;fill:#333333;" transform="translate(0,20)"></text></g></svg>