<svg version="1.1" style="font-family:&quot;lucida grande&quot;, &quot;lucida sans unicode&quot;, arial, helvetica, sans-serif;font-size:12px;" xmlns="http://www.w3.org/2000/svg" width="584" height="400" viewBox="0 0 584 400"><desc>Created with Highcharts 4.1.4</desc><defs><clipPath id="highcharts-1"><rect x="0" y="0" width="501" height="298"></rect></clipPath><clipPath id="highcharts-2"><rect x="-99" y="-47" width="600" height="400"></rect></clipPath><clipPath id="highcharts-3"><rect x="0" y="0" width="501" height="298"></rect></clipPath></defs><rect x="0" y="0" width="584" height="400" strokeWidth="0" fill="#FFFFFF" class=" highcharts-background" stroke="transparent"></rect><path fill="none" d="M 73 180.5 L 574 180.5" stroke="red" stroke-width="1"></path><text x="334" text-anchor="middle" transform="translate(0,0)" style="color:gray;fill:gray;" y="177" visibility="visible"><tspan>Theoretical mean: 932</tspan></text><g class="highcharts-grid" ></g><g class="highcharts-grid" ><path fill="none" d="M 73 345.5 L 574 345.5" stroke="#D8D8D8" stroke-width="1"  opacity="1"></path><path fill="none" d="M 73 295.5 L 574 295.5" stroke="#D8D8D8" stroke-width="1"  opacity="1"></path><path fill="none" d="M 73 246.5 L 574 246.5" stroke="#D8D8D8" stroke-width="1"  opacity="1"></path><path fill="none" d="M 73 196.5 L 574 196.5" stroke="#D8D8D8" stroke-width="1"  opacity="1"></path><path fill="none" d="M 73 146.5 L 574 146.5" stroke="#D8D8D8" stroke-width="1"  opacity="1"></path><path fill="none" d="M 73 97.5 L 574 97.5" stroke="#D8D8D8" stroke-width="1"  opacity="1"></path><path fill="none" d="M 73 46.5 L 574 46.5" stroke="#D8D8D8" stroke-width="1"  opacity="1"></path></g><g class="highcharts-axis" ><path fill="none" d="M 172.5 345 L 172.5 355" stroke="#C0D0E0" stroke-width="1" opacity="1"></path><path fill="none" d="M 272.5 345 L 272.5 355" stroke="#C0D0E0" stroke-width="1" opacity="1"></path><path fill="none" d="M 373.5 345 L 373.5 355" stroke="#C0D0E0" stroke-width="1" opacity="1"></path><path fill="none" d="M 473.5 345 L 473.5 355" stroke="#C0D0E0" stroke-width="1" opacity="1"></path><path fill="none" d="M 574.5 345 L 574.5 355" stroke="#C0D0E0" stroke-width="1" opacity="1"></path><path fill="none" d="M 72.5 345 L 72.5 355" stroke="#C0D0E0" stroke-width="1" opacity="1"></path><text x="323.5"  text-anchor="middle" transform="translate(0,0)" class=" highcharts-xaxis-title" style="color:#707070;fill:#707070;" visibility="visible" y="383"><tspan>Experiment No.</tspan></text><path fill="none" d="M 73 345.5 L 574 345.5" stroke="#C0D0E0" stroke-width="1"  visibility="visible"></path></g><g class="highcharts-axis" ><text x="24"  text-anchor="middle" transform="translate(0,0) rotate(270 24 196)" class=" highcharts-yaxis-title" style="color:#707070;fill:#707070;" visibility="visible" y="196">Observations</text></g><g class="highcharts-series-group" ><g class="highcharts-series highcharts-tracker" visibility="visible"  transform="translate(73,47) scale(1 1)" style="" clip-path="url(#highcharts-1)"><g><path fill="none" d="M 50.5 151 L 50.5 116 M 50.5 198 L 50.5 218" stroke="#7cb5ec" stroke-width="1"></path><path fill="none" d="M 38 116 L 63 116 M 38 218 L 63 218" stroke="#7cb5ec" stroke-width="2"></path><path fill="#FFFFFF" d="M 25.5 151.5 L 25.5 198.5 L 74.5 198.5 L 74.5 151.5 L 25.5 151.5 z" stroke="#7cb5ec" stroke-width="1"></path><path fill="none" d="M 25.5 175 L 74.5 175" stroke="#7cb5ec" stroke-width="2"></path></g><g><path fill="none" d="M 150.5 109 L 150.5 59 M 150.5 172 L 150.5 231" stroke="#7cb5ec" stroke-width="1"></path><path fill="none" d="M 138 59 L 163 59 M 138 231 L 163 231" stroke="#7cb5ec" stroke-width="2"></path><path fill="#FFFFFF" d="M 125.5 109.5 L 125.5 172.5 L 174.5 172.5 L 174.5 109.5 L 125.5 109.5 z" stroke="#7cb5ec" stroke-width="1"></path><path fill="none" d="M 125.5 130 L 174.5 130" stroke="#7cb5ec" stroke-width="2"></path></g><g><path fill="none" d="M 250.5 163 L 250.5 140 M 250.5 217 L 250.5 241" stroke="#7cb5ec" stroke-width="1"></path><path fill="none" d="M 238 140 L 263 140 M 238 241 L 263 241" stroke="#7cb5ec" stroke-width="2"></path><path fill="#FFFFFF" d="M 225.5 163.5 L 225.5 217.5 L 274.5 217.5 L 274.5 163.5 L 225.5 163.5 z" stroke="#7cb5ec" stroke-width="1"></path><path fill="none" d="M 225.5 190 L 274.5 190" stroke="#7cb5ec" stroke-width="2"></path></g><g><path fill="none" d="M 351.5 163 L 351.5 124 M 351.5 197 L 351.5 236" stroke="#7cb5ec" stroke-width="1"></path><path fill="none" d="M 339 124 L 364 124 M 339 236 L 364 236" stroke="#7cb5ec" stroke-width="2"></path><path fill="#FFFFFF" d="M 326.5 163.5 L 326.5 197.5 L 375.5 197.5 L 375.5 163.5 L 326.5 163.5 z" stroke="#7cb5ec" stroke-width="1"></path><path fill="none" d="M 326.5 196 L 375.5 196" stroke="#7cb5ec" stroke-width="2"></path></g><g><path fill="none" d="M 451.5 157 L 451.5 144 M 451.5 180 L 451.5 181" stroke="#7cb5ec" stroke-width="1"></path><path fill="none" d="M 439 144 L 464 144 M 439 181 L 464 181" stroke="#7cb5ec" stroke-width="2"></path><path fill="#FFFFFF" d="M 426.5 157.5 L 426.5 180.5 L 475.5 180.5 L 475.5 157.5 L 426.5 157.5 z" stroke="#7cb5ec" stroke-width="1"></path><path fill="none" d="M 426.5 167 L 475.5 167" stroke="#7cb5ec" stroke-width="2"></path></g></g><g class="highcharts-markers" visibility="visible"  transform="translate(73,47) scale(1 1)"></g><g class="highcharts-series highcharts-tracker" visibility="visible"  transform="translate(73,47) scale(1 1)" clip-path="url(#highcharts-3)" style=""></g><g class="highcharts-markers highcharts-tracker" visibility="visible"  transform="translate(73,47) scale(1 1)" clip-path="url(#highcharts-2)" style=""><path fill="white" d="M 450 110.7 C 455.3 110.7 455.3 118.7 450 118.7 C 444.6 118.7 444.6 110.7 450 110.7 Z" stroke="#7cb5ec" stroke-width="1"></path><path fill="white" d="M 450 119.6 C 455.3 119.6 455.3 127.6 450 127.6 C 444.6 127.6 444.6 119.6 450 119.6 Z" stroke="#7cb5ec" stroke-width="1"></path><path fill="white" d="M 450 235.3 C 455.3 235.3 455.3 243.3 450 243.3 C 444.6 243.3 444.6 235.3 450 235.3 Z" stroke="#7cb5ec" stroke-width="1"></path><path fill="white" d="M 50 272.1 C 55.3 272.1 55.3 280.1 50 280.1 C 44.6 280.1 44.6 272.1 50 272.1 Z" stroke="#7cb5ec" stroke-width="1"></path></g></g><text x="292" text-anchor="middle" class="highcharts-title"  style="color:#333333;font-size:18px;fill:#333333;width:520px;" y="24"><tspan>Highcharts Box Plot Example</tspan></text><g class="highcharts-axis-labels highcharts-xaxis-labels" ><text x="123.1" style="color:#606060;cursor:default;font-size:11px;fill:#606060;width:103px;text-overflow:clip;" text-anchor="middle" transform="translate(0,0)" y="364" opacity="1">1</text><text x="223.2" style="color:#606060;cursor:default;font-size:11px;fill:#606060;width:103px;text-overflow:clip;" text-anchor="middle" transform="translate(0,0)" y="364" opacity="1">2</text><text x="323.5" style="color:#606060;cursor:default;font-size:11px;fill:#606060;width:103px;text-overflow:clip;" text-anchor="middle" transform="translate(0,0)" y="364" opacity="1">3</text><text x="423.7" style="color:#606060;cursor:default;font-size:11px;fill:#606060;width:103px;text-overflow:clip;" text-anchor="middle" transform="translate(0,0)" y="364" opacity="1">4</text><text x="523.9" style="color:#606060;cursor:default;font-size:11px;fill:#606060;width:103px;text-overflow:clip;" text-anchor="middle" transform="translate(0,0)" y="364" opacity="1">5</text></g><g class="highcharts-axis-labels highcharts-yaxis-labels" ><text x="58" style="color:#606060;cursor:default;font-size:11px;fill:#606060;width:183px;text-overflow:clip;" text-anchor="end" transform="translate(0,0)" y="350" opacity="1">600</text><text x="58" style="color:#606060;cursor:default;font-size:11px;fill:#606060;width:183px;text-overflow:clip;" text-anchor="end" transform="translate(0,0)" y="300" opacity="1">700</text><text x="58" style="color:#606060;cursor:default;font-size:11px;fill:#606060;width:183px;text-overflow:clip;" text-anchor="end" transform="translate(0,0)" y="250" opacity="1">800</text><text x="58" style="color:#606060;cursor:default;font-size:11px;fill:#606060;width:183px;text-overflow:clip;" text-anchor="end" transform="translate(0,0)" y="201" opacity="1">900</text><text x="58" style="color:#606060;cursor:default;font-size:11px;fill:#606060;width:183px;text-overflow:clip;" text-anchor="end" transform="translate(0,0)" y="151" opacity="1">1000</text><text x="58" style="color:#606060;cursor:default;font-size:11px;fill:#606060;width:183px;text-overflow:clip;" text-anchor="end" transform="translate(0,0)" y="101" opacity="1">1100</text><text x="58" style="color:#606060;cursor:default;font-size:11px;fill:#606060;width:183px;text-overflow:clip;" text-anchor="end" transform="translate(0,0)" y="52" opacity="1">1200</text></g><g class="highcharts-tooltip"  style="cursor:default;padding:0;white-space:nowrap;" transform="translate(0,-9999)"><path fill="none" d="M 3 0 L 13 0 C 16 0 16 0 16 3 L 16 13 C 16 16 16 16 13 16 L 3 16 C 0 16 0 16 0 13 L 0 3 C 0 0 0 0 3 0"  stroke="black" stroke-opacity="0.0" stroke-width="5" transform="translate(1, 1)"></path><path fill="none" d="M 3 0 L 13 0 C 16 0 16 0 16 3 L 16 13 C 16 16 16 16 13 16 L 3 16 C 0 16 0 16 0 13 L 0 3 C 0 0 0 0 3 0"  stroke="black" stroke-opacity="0.0" stroke-width="3" transform="translate(1, 1)"></path><path fill="none" d="M 3 0 L 13 0 C 16 0 16 0 16 3 L 16 13 C 16 16 16 16 13 16 L 3 16 C 0 16 0 16 0 13 L 0 3 C 0 0 0 0 3 0"  stroke="black" stroke-opacity="0.1" stroke-width="1" transform="translate(1, 1)"></path><path fill="rgb(249, 249, 249)" fill-opacity=" .85" d="M 3 0 L 13 0 C 16 0 16 0 16 3 L 16 13 C 16 16 16 16 13 16 L 3 16 C 0 16 0 16 0 13 L 0 3 C 0 0 0 0 3 0"></path><text x="8"  style="font-size:12px;color:#333333;fill:#333333;" transform="translate(0,20)"></text></g></svg>