<svg version="1.1" style="font-family:&quot;lucida grande&quot;, &quot;lucida sans unicode&quot;, arial, helvetica, sans-serif;font-size:12px;" xmlns="http://www.w3.org/2000/svg" width="584" height="400" viewBox="0 0 584 400"><desc>Created with Highcharts 4.1.4</desc><defs><clipPath id="highcharts-1"><rect x="0" y="0" width="507" height="280"></rect></clipPath></defs><rect x="0" y="0" width="584" height="400" strokeWidth="0" fill="#FFFFFF" class=" highcharts-background" stroke="transparent"></rect><g class="highcharts-grid" ></g><g class="highcharts-grid" ><path fill="none" d="M 67 327.5 L 574 327.5" stroke="#D8D8D8" stroke-width="1"  opacity="1"></path><path fill="none" d="M 67 280.5 L 574 280.5" stroke="#D8D8D8" stroke-width="1"  opacity="1"></path><path fill="none" d="M 67 234.5 L 574 234.5" stroke="#D8D8D8" stroke-width="1"  opacity="1"></path><path fill="none" d="M 67 187.5 L 574 187.5" stroke="#D8D8D8" stroke-width="1"  opacity="1"></path><path fill="none" d="M 67 140.5 L 574 140.5" stroke="#D8D8D8" stroke-width="1"  opacity="1"></path><path fill="none" d="M 67 94.5 L 574 94.5" stroke="#D8D8D8" stroke-width="1"  opacity="1"></path><path fill="none" d="M 67 46.5 L 574 46.5" stroke="#D8D8D8" stroke-width="1"  opacity="1"></path></g><g class="highcharts-axis" ><path fill="none" d="M 82.5 327 L 82.5 337" stroke="#C0D0E0" stroke-width="1" opacity="1"></path><path fill="none" d="M 177.5 327 L 177.5 337" stroke="#C0D0E0" stroke-width="1" opacity="1"></path><path fill="none" d="M 273.5 327 L 273.5 337" stroke="#C0D0E0" stroke-width="1" opacity="1"></path><path fill="none" d="M 368.5 327 L 368.5 337" stroke="#C0D0E0" stroke-width="1" opacity="1"></path><path fill="none" d="M 463.5 327 L 463.5 337" stroke="#C0D0E0" stroke-width="1" opacity="1"></path><path fill="none" d="M 559.5 327 L 559.5 337" stroke="#C0D0E0" stroke-width="1" opacity="1"></path><path fill="none" d="M 67 327.5 L 574 327.5" stroke="#C0D0E0" stroke-width="1"  visibility="visible"></path></g><g class="highcharts-axis" ><text x="24"  text-anchor="middle" transform="translate(0,0) rotate(270 24 187)" class=" highcharts-yaxis-title" style="color:#707070;fill:#707070;" visibility="visible" y="187">Values</text></g><g class="highcharts-series-group" ><g class="highcharts-series highcharts-tracker" visibility="visible"  transform="translate(67,47) scale(1 1)" style="" clip-path="url(#highcharts-1)"><circle cx="478.2" cy="166.1" r="27" stroke="#7cb5ec" stroke-width="1" fill="rgb(124,181,236)" fill-opacity="0.5"></circle><circle cx="463.9" cy="95.1" r="24" stroke="#7cb5ec" stroke-width="1" fill="rgb(124,181,236)" fill-opacity="0.5"></circle><circle cx="340.0" cy="91.4" r="23.5" stroke="#7cb5ec" stroke-width="1" fill="rgb(124,181,236)" fill-opacity="0.5"></circle><circle cx="321.0" cy="70.9" r="23" stroke="#7cb5ec" stroke-width="1" fill="rgb(124,181,236)" fill-opacity="0.5"></circle><circle cx="340.0" cy="182.9" r="26" stroke="#7cb5ec" stroke-width="1" fill="rgb(124,181,236)" fill-opacity="0.5"></circle><circle cx="368.6" cy="48.5" r="20.5" stroke="#7cb5ec" stroke-width="1" fill="rgb(124,181,236)" fill-opacity="0.5"></circle><circle cx="49.4" cy="59.7" r="28" stroke="#7cb5ec" stroke-width="1" fill="rgb(124,181,236)" fill-opacity="0.5"></circle><circle cx="259.1" cy="104.5" r="20" stroke="#7cb5ec" stroke-width="1" fill="rgb(124,181,236)" fill-opacity="0.5"></circle><circle cx="197.1" cy="190.4" r="18.5" stroke="#7cb5ec" stroke-width="1" fill="rgb(124,181,236)" fill-opacity="0.5"></circle><circle cx="287.6" cy="72.7" r="18" stroke="#7cb5ec" stroke-width="1" fill="rgb(124,181,236)" fill-opacity="0.5"></circle></g><g class="highcharts-markers" visibility="visible"  transform="translate(67,47) scale(1 1)"></g><g class="highcharts-series highcharts-tracker" visibility="visible"  transform="translate(67,47) scale(1 1)" style="" clip-path="url(#highcharts-1)"><circle cx="135.2" cy="214.6" r="28" stroke="#434348" stroke-width="1" fill="rgb(67,67,72)" fill-opacity="0.5"></circle><circle cx="25.6" cy="93.3" r="23.5" stroke="#434348" stroke-width="1" fill="rgb(67,67,72)" fill-opacity="0.5"></circle><circle cx="68.5" cy="132.5" r="9.5" stroke="#434348" stroke-width="1" fill="rgb(67,67,72)" fill-opacity="0.5"></circle><circle cx="425.8" cy="130.6" r="29" stroke="#434348" stroke-width="1" fill="rgb(67,67,72)" fill-opacity="0.5"></circle><circle cx="39.9" cy="227.7" r="23.5" stroke="#434348" stroke-width="1" fill="rgb(67,67,72)" fill-opacity="0.5"></circle><circle cx="444.8" cy="115.7" r="21" stroke="#434348" stroke-width="1" fill="rgb(67,67,72)" fill-opacity="0.5"></circle><circle cx="449.6" cy="171.7" r="13.5" stroke="#434348" stroke-width="1" fill="rgb(67,67,72)" fill-opacity="0.5"></circle><circle cx="478.2" cy="227.7" r="23" stroke="#434348" stroke-width="1" fill="rgb(67,67,72)" fill-opacity="0.5"></circle><circle cx="87.6" cy="108.2" r="21.5" stroke="#434348" stroke-width="1" fill="rgb(67,67,72)" fill-opacity="0.5"></circle><circle cx="273.3" cy="186.6" r="27.5" stroke="#434348" stroke-width="1" fill="rgb(67,67,72)" fill-opacity="0.5"></circle></g><g class="highcharts-markers" visibility="visible"  transform="translate(67,47) scale(1 1)"></g><g class="highcharts-series highcharts-tracker" visibility="visible"  transform="translate(67,47) scale(1 1)" style="" clip-path="url(#highcharts-1)"><circle cx="240.0" cy="145.6" r="15" stroke="#90ed7d" stroke-width="1" fill="rgb(144,237,125)" fill-opacity="0.5"></circle><circle cx="111.4" cy="210.9" r="4" stroke="#90ed7d" stroke-width="1" fill="rgb(144,237,125)" fill-opacity="0.5"></circle><circle cx="44.7" cy="91.4" r="29" stroke="#90ed7d" stroke-width="1" fill="rgb(144,237,125)" fill-opacity="0.5"></circle><circle cx="197.1" cy="177.3" r="24" stroke="#90ed7d" stroke-width="1" fill="rgb(144,237,125)" fill-opacity="0.5"></circle><circle cx="287.6" cy="50.4" r="24.5" stroke="#90ed7d" stroke-width="1" fill="rgb(144,237,125)" fill-opacity="0.5"></circle><circle cx="306.7" cy="201.6" r="27" stroke="#90ed7d" stroke-width="1" fill="rgb(144,237,125)" fill-opacity="0.5"></circle><circle cx="411.5" cy="121.3" r="12" stroke="#90ed7d" stroke-width="1" fill="rgb(144,237,125)" fill-opacity="0.5"></circle><circle cx="335.3" cy="87.7" r="26.5" stroke="#90ed7d" stroke-width="1" fill="rgb(144,237,125)" fill-opacity="0.5"></circle><circle cx="321.0" cy="210.9" r="10.5" stroke="#90ed7d" stroke-width="1" fill="rgb(144,237,125)" fill-opacity="0.5"></circle><circle cx="159.0" cy="89.6" r="27.5" stroke="#90ed7d" stroke-width="1" fill="rgb(144,237,125)" fill-opacity="0.5"></circle></g><g class="highcharts-markers" visibility="visible"  transform="translate(67,47) scale(1 1)"></g></g><text x="292" text-anchor="middle" class="highcharts-title"  style="color:#333333;font-size:18px;fill:#333333;width:520px;" y="24"><tspan>Highcharts Bubbles</tspan></text><g class="highcharts-legend"  transform="translate(161,360)"><g ><g><g class="highcharts-legend-item"  transform="translate(8,3)"><text x="21" style="color:#333333;font-size:12px;font-weight:bold;cursor:pointer;fill:#333333;" text-anchor="start"  y="15"><tspan>Series 1</tspan></text><circle cx="6" cy="9" r="6"  fill="rgb(124,181,236)" fill-opacity="0.5" stroke="#7cb5ec" stroke-width="1"></circle></g><g class="highcharts-legend-item"  transform="translate(97,3)"><text x="21" y="15" style="color:#333333;font-size:12px;font-weight:bold;cursor:pointer;fill:#333333;" text-anchor="start" ><tspan>Series 2</tspan></text><circle cx="6" cy="9" r="6"  fill="rgb(67,67,72)" fill-opacity="0.5" stroke="#434348" stroke-width="1"></circle></g><g class="highcharts-legend-item"  transform="translate(186,3)"><text x="21" y="15" style="color:#333333;font-size:12px;font-weight:bold;cursor:pointer;fill:#333333;" text-anchor="start" ><tspan>Series 3</tspan></text><circle cx="6" cy="9" r="6"  fill="rgb(144,237,125)" fill-opacity="0.5" stroke="#90ed7d" stroke-width="1"></circle></g></g></g></g><g class="highcharts-axis-labels highcharts-xaxis-labels" ><text x="83.1" style="color:#606060;cursor:default;font-size:11px;fill:#606060;width:84px;text-overflow:clip;" text-anchor="middle" transform="translate(0,0)" y="346" opacity="1">0</text><text x="178.4" style="color:#606060;cursor:default;font-size:11px;fill:#606060;width:84px;text-overflow:clip;" text-anchor="middle" transform="translate(0,0)" y="346" opacity="1">20</text><text x="273.7" style="color:#606060;cursor:default;font-size:11px;fill:#606060;width:84px;text-overflow:clip;" text-anchor="middle" transform="translate(0,0)" y="346" opacity="1">40</text><text x="368.9" style="color:#606060;cursor:default;font-size:11px;fill:#606060;width:84px;text-overflow:clip;" text-anchor="middle" transform="translate(0,0)" y="346" opacity="1">60</text><text x="464.2" style="color:#606060;cursor:default;font-size:11px;fill:#606060;width:84px;text-overflow:clip;" text-anchor="middle" transform="translate(0,0)" y="346" opacity="1">80</text><text x="559.5" style="color:#606060;cursor:default;font-size:11px;fill:#606060;width:84px;text-overflow:clip;" text-anchor="middle" transform="translate(0,0)" y="346" opacity="1">100</text></g><g class="highcharts-axis-labels highcharts-yaxis-labels" ><text x="52" style="color:#606060;cursor:default;font-size:11px;fill:#606060;width:183px;text-overflow:clip;" text-anchor="end" transform="translate(0,0)" y="332" opacity="1">-25</text><text x="52" style="color:#606060;cursor:default;font-size:11px;fill:#606060;width:183px;text-overflow:clip;" text-anchor="end" transform="translate(0,0)" y="285" opacity="1">0</text><text x="52" style="color:#606060;cursor:default;font-size:11px;fill:#606060;width:183px;text-overflow:clip;" text-anchor="end" transform="translate(0,0)" y="238" opacity="1">25</text><text x="52" style="color:#606060;cursor:default;font-size:11px;fill:#606060;width:183px;text-overflow:clip;" text-anchor="end" transform="translate(0,0)" y="192" opacity="1">50</text><text x="52" style="color:#606060;cursor:default;font-size:11px;fill:#606060;width:183px;text-overflow:clip;" text-anchor="end" transform="translate(0,0)" y="145" opacity="1">75</text><text x="52" style="color:#606060;cursor:default;font-size:11px;fill:#606060;width:183px;text-overflow:clip;" text-anchor="end" transform="translate(0,0)" y="98" opacity="1">100</text><text x="52" style="color:#606060;cursor:default;font-size:11px;fill:#606060;width:183px;text-overflow:clip;" text-anchor="end" transform="translate(0,0)" y="52" opacity="1">125</text></g><g class="highcharts-tooltip"  style="cursor:default;padding:0;white-space:nowrap;" transform="translate(0,-9999)"><path fill="none" d="M 3 0 L 13 0 C 16 0 16 0 16 3 L 16 13 C 16 16 16 16 13 16 L 3 16 C 0 16 0 16 0 13 L 0 3 C 0 0 0 0 3 0"  stroke="black" stroke-opacity="0.0" stroke-width="5" transform="translate(1, 1)"></path><path fill="none" d="M 3 0 L 13 0 C 16 0 16 0 16 3 L 16 13 C 16 16 16 16 13 16 L 3 16 C 0 16 0 16 0 13 L 0 3 C 0 0 0 0 3 0"  stroke="black" stroke-opacity="0.0" stroke-width="3" transform="translate(1, 1)"></path><path fill="none" d="M 3 0 L 13 0 C 16 0 16 0 16 3 L 16 13 C 16 16 16 16 13 16 L 3 16 C 0 16 0 16 0 13 L 0 3 C 0 0 0 0 3 0"  stroke="black" stroke-opacity="0.1" stroke-width="1" transform="translate(1, 1)"></path><path fill="rgb(249, 249, 249)" fill-opacity=" .85" d="M 3 0 L 13 0 C 16 0 16 0 16 3 L 16 13 C 16 16 16 16 13 16 L 3 16 C 0 16 0 16 0 13 L 0 3 C 0 0 0 0 3 0"></path><text x="8"  style="font-size:12px;color:#333333;fill:#333333;" transform="translate(0,20)"></text></g></svg>