<svg version="1.1" style="font-family:&quot;lucida grande&quot;, &quot;lucida sans unicode&quot;, arial, helvetica, sans-serif;font-size:12px;" xmlns="http://www.w3.org/2000/svg" width="584" height="400" viewBox="0 0 584 400"><desc>Created with Highcharts 4.1.4</desc><defs><radialGradient cx="0.4" cy="0.3" r="0.7" id="highcharts-1"><stop offset="0" stop-color="rgb(255,255,255)" stop-opacity="0.5"></stop><stop offset="1" stop-color="rgb(124,181,236)" stop-opacity="0.5"></stop></radialGradient><radialGradient cx="0.4" cy="0.3" r="0.7" id="highcharts-2"><stop offset="0" stop-color="rgb(255,255,255)" stop-opacity="0.5"></stop><stop offset="1" stop-color="rgb(67,67,72)" stop-opacity="0.5"></stop></radialGradient><clipPath id="highcharts-3"><rect x="0" y="0" width="507" height="280"></rect></clipPath></defs><rect x="0" y="0" width="584" height="400" strokeWidth="0" fill="#FFFFFF" class=" highcharts-background" stroke="transparent"></rect><g class="highcharts-grid" ><path fill="none" d="M 87.5 47 L 87.5 327" stroke="#D8D8D8" stroke-width="1"  opacity="1"></path><path fill="none" d="M 180.5 47 L 180.5 327" stroke="#D8D8D8" stroke-width="1"  opacity="1"></path><path fill="none" d="M 273.5 47 L 273.5 327" stroke="#D8D8D8" stroke-width="1"  opacity="1"></path><path fill="none" d="M 366.5 47 L 366.5 327" stroke="#D8D8D8" stroke-width="1"  opacity="1"></path><path fill="none" d="M 459.5 47 L 459.5 327" stroke="#D8D8D8" stroke-width="1"  opacity="1"></path><path fill="none" d="M 553.5 47 L 553.5 327" stroke="#D8D8D8" stroke-width="1"  opacity="1"></path></g><g class="highcharts-grid" ><path fill="none" d="M 67 294.5 L 574 294.5" stroke="#D8D8D8" stroke-width="1"  opacity="1"></path><path fill="none" d="M 67 237.5 L 574 237.5" stroke="#D8D8D8" stroke-width="1"  opacity="1"></path><path fill="none" d="M 67 179.5 L 574 179.5" stroke="#D8D8D8" stroke-width="1"  opacity="1"></path><path fill="none" d="M 67 121.5 L 574 121.5" stroke="#D8D8D8" stroke-width="1"  opacity="1"></path><path fill="none" d="M 67 64.5 L 574 64.5" stroke="#D8D8D8" stroke-width="1"  opacity="1"></path></g><rect x="66.5" y="46.5" width="508" height="281" strokeWidth="-1" stroke="#C0C0C0" stroke-width="1" fill="none" ></rect><g class="highcharts-axis" ><path fill="none" d="M 87.5 327 L 87.5 337" stroke="#C0D0E0" stroke-width="1" opacity="1"></path><path fill="none" d="M 180.5 327 L 180.5 337" stroke="#C0D0E0" stroke-width="1" opacity="1"></path><path fill="none" d="M 273.5 327 L 273.5 337" stroke="#C0D0E0" stroke-width="1" opacity="1"></path><path fill="none" d="M 366.5 327 L 366.5 337" stroke="#C0D0E0" stroke-width="1" opacity="1"></path><path fill="none" d="M 459.5 327 L 459.5 337" stroke="#C0D0E0" stroke-width="1" opacity="1"></path><path fill="none" d="M 553.5 327 L 553.5 337" stroke="#C0D0E0" stroke-width="1" opacity="1"></path><path fill="none" d="M 67 327.5 L 574 327.5" stroke="#C0D0E0" stroke-width="1"  visibility="visible"></path></g><g class="highcharts-axis" ><text x="24"  text-anchor="middle" transform="translate(0,0) rotate(270 24 187)" class=" highcharts-yaxis-title" style="color:#707070;fill:#707070;" visibility="visible" y="187">Values</text></g><g class="highcharts-series-group" ><g class="highcharts-series highcharts-tracker" visibility="visible"  transform="translate(67,47) scale(1 1)" style="" clip-path="url(#highcharts-3)"><circle cx="62.5" cy="60.6" r="24" stroke="#7cb5ec" stroke-width="1" fill="url(#highcharts-1)"></circle><circle cx="477.3" cy="235.6" r="28" stroke="#7cb5ec" stroke-width="1" fill="url(#highcharts-1)"></circle><circle cx="258.2" cy="132.0" r="25.5" stroke="#7cb5ec" stroke-width="1" fill="url(#highcharts-1)"></circle><circle cx="211.6" cy="196.4" r="13.5" stroke="#7cb5ec" stroke-width="1" fill="url(#highcharts-1)"></circle><circle cx="290.9" cy="191.8" r="15" stroke="#7cb5ec" stroke-width="1" fill="url(#highcharts-1)"></circle><circle cx="384.1" cy="161.9" r="18.5" stroke="#7cb5ec" stroke-width="1" fill="url(#highcharts-1)"></circle><circle cx="276.9" cy="118.2" r="22.5" stroke="#7cb5ec" stroke-width="1" fill="url(#highcharts-1)"></circle><circle cx="104.4" cy="143.5" r="25" stroke="#7cb5ec" stroke-width="1" fill="url(#highcharts-1)"></circle><circle cx="216.3" cy="145.8" r="17.5" stroke="#7cb5ec" stroke-width="1" fill="url(#highcharts-1)"></circle><circle cx="34.5" cy="127.4" r="23.5" stroke="#7cb5ec" stroke-width="1" fill="url(#highcharts-1)"></circle><circle cx="165.0" cy="205.6" r="29" stroke="#7cb5ec" stroke-width="1" fill="url(#highcharts-1)"></circle><circle cx="388.7" cy="37.6" r="24" stroke="#7cb5ec" stroke-width="1" fill="url(#highcharts-1)"></circle><circle cx="454.0" cy="194.1" r="16" stroke="#7cb5ec" stroke-width="1" fill="url(#highcharts-1)"></circle><circle cx="225.6" cy="56.0" r="16" stroke="#7cb5ec" stroke-width="1" fill="url(#highcharts-1)"></circle></g><g class="highcharts-markers" visibility="visible"  transform="translate(67,47) scale(1 1)"></g><g class="highcharts-series highcharts-tracker" visibility="visible"  transform="translate(67,47) scale(1 1)" style="" clip-path="url(#highcharts-3)"><circle cx="216.3" cy="159.6" r="15" stroke="#434348" stroke-width="1" fill="url(#highcharts-2)"></circle><circle cx="48.5" cy="205.6" r="4" stroke="#434348" stroke-width="1" fill="url(#highcharts-2)"></circle><circle cx="25.2" cy="33.0" r="23" stroke="#434348" stroke-width="1" fill="url(#highcharts-2)"></circle><circle cx="286.2" cy="242.5" r="28" stroke="#434348" stroke-width="1" fill="url(#highcharts-2)"></circle><circle cx="393.4" cy="72.1" r="16" stroke="#434348" stroke-width="1" fill="url(#highcharts-2)"></circle><circle cx="71.8" cy="76.7" r="29" stroke="#434348" stroke-width="1" fill="url(#highcharts-2)"></circle><circle cx="430.7" cy="118.2" r="12" stroke="#434348" stroke-width="1" fill="url(#highcharts-2)"></circle><circle cx="160.4" cy="138.9" r="21.5" stroke="#434348" stroke-width="1" fill="url(#highcharts-2)"></circle><circle cx="286.2" cy="104.4" r="29" stroke="#434348" stroke-width="1" fill="url(#highcharts-2)"></circle><circle cx="39.2" cy="210.2" r="14" stroke="#434348" stroke-width="1" fill="url(#highcharts-2)"></circle><circle cx="234.9" cy="224.1" r="12" stroke="#434348" stroke-width="1" fill="url(#highcharts-2)"></circle><circle cx="123.1" cy="46.8" r="28" stroke="#434348" stroke-width="1" fill="url(#highcharts-2)"></circle><circle cx="286.2" cy="37.6" r="27" stroke="#434348" stroke-width="1" fill="url(#highcharts-2)"></circle><circle cx="230.3" cy="212.6" r="29" stroke="#434348" stroke-width="1" fill="url(#highcharts-2)"></circle></g><g class="highcharts-markers" visibility="visible"  transform="translate(67,47) scale(1 1)"></g></g><text x="292" text-anchor="middle" class="highcharts-title"  style="color:#333333;font-size:18px;fill:#333333;width:520px;" y="24"><tspan>Highcharts bubbles with radial gradient fill</tspan></text><g class="highcharts-legend"  transform="translate(205,360)"><g ><g><g class="highcharts-legend-item"  transform="translate(8,3)"><text x="21" style="color:#333333;font-size:12px;font-weight:bold;cursor:pointer;fill:#333333;" text-anchor="start"  y="15"><tspan>Series 1</tspan></text><circle cx="6" cy="9" r="6"  fill="url(#highcharts-1)" stroke="#7cb5ec" stroke-width="1"></circle></g><g class="highcharts-legend-item"  transform="translate(97,3)"><text x="21" y="15" style="color:#333333;font-size:12px;font-weight:bold;cursor:pointer;fill:#333333;" text-anchor="start" ><tspan>Series 2</tspan></text><circle cx="6" cy="9" r="6"  fill="url(#highcharts-2)" stroke="#434348" stroke-width="1"></circle></g></g></g></g><g class="highcharts-axis-labels highcharts-xaxis-labels" ><text x="87.5" style="color:#606060;cursor:default;font-size:11px;fill:#606060;width:84px;text-overflow:clip;" text-anchor="middle" transform="translate(0,0)" y="346" opacity="1">0</text><text x="180.7" style="color:#606060;cursor:default;font-size:11px;fill:#606060;width:84px;text-overflow:clip;" text-anchor="middle" transform="translate(0,0)" y="346" opacity="1">20</text><text x="274.0" style="color:#606060;cursor:default;font-size:11px;fill:#606060;width:84px;text-overflow:clip;" text-anchor="middle" transform="translate(0,0)" y="346" opacity="1">40</text><text x="367.2" style="color:#606060;cursor:default;font-size:11px;fill:#606060;width:84px;text-overflow:clip;" text-anchor="middle" transform="translate(0,0)" y="346" opacity="1">60</text><text x="460.4" style="color:#606060;cursor:default;font-size:11px;fill:#606060;width:84px;text-overflow:clip;" text-anchor="middle" transform="translate(0,0)" y="346" opacity="1">80</text><text x="553.6" style="color:#606060;cursor:default;font-size:11px;fill:#606060;width:84px;text-overflow:clip;" text-anchor="middle" transform="translate(0,0)" y="346" opacity="1">100</text></g><g class="highcharts-axis-labels highcharts-yaxis-labels" ><text x="52" style="color:#606060;cursor:default;font-size:11px;fill:#606060;width:183px;text-overflow:clip;" text-anchor="end" transform="translate(0,0)" y="299" opacity="1">0</text><text x="52" style="color:#606060;cursor:default;font-size:11px;fill:#606060;width:183px;text-overflow:clip;" text-anchor="end" transform="translate(0,0)" y="241" opacity="1">25</text><text x="52" style="color:#606060;cursor:default;font-size:11px;fill:#606060;width:183px;text-overflow:clip;" text-anchor="end" transform="translate(0,0)" y="184" opacity="1">50</text><text x="52" style="color:#606060;cursor:default;font-size:11px;fill:#606060;width:183px;text-overflow:clip;" text-anchor="end" transform="translate(0,0)" y="126" opacity="1">75</text><text x="52" style="color:#606060;cursor:default;font-size:11px;fill:#606060;width:183px;text-overflow:clip;" text-anchor="end" transform="translate(0,0)" y="68" opacity="1">100</text></g><g class="highcharts-tooltip"  style="cursor:default;padding:0;white-space:nowrap;" transform="translate(0,-9999)"><path fill="none" d="M 3 0 L 13 0 C 16 0 16 0 16 3 L 16 13 C 16 16 16 16 13 16 L 3 16 C 0 16 0 16 0 13 L 0 3 C 0 0 0 0 3 0"  stroke="black" stroke-opacity="0.0" stroke-width="5" transform="translate(1, 1)"></path><path fill="none" d="M 3 0 L 13 0 C 16 0 16 0 16 3 L 16 13 C 16 16 16 16 13 16 L 3 16 C 0 16 0 16 0 13 L 0 3 C 0 0 0 0 3 0"  stroke="black" stroke-opacity="0.0" stroke-width="3" transform="translate(1, 1)"></path><path fill="none" d="M 3 0 L 13 0 C 16 0 16 0 16 3 L 16 13 C 16 16 16 16 13 16 L 3 16 C 0 16 0 16 0 13 L 0 3 C 0 0 0 0 3 0"  stroke="black" stroke-opacity="0.1" stroke-width="1" transform="translate(1, 1)"></path><path fill="rgb(249, 249, 249)" fill-opacity=" .85" d="M 3 0 L 13 0 C 16 0 16 0 16 3 L 16 13 C 16 16 16 16 13 16 L 3 16 C 0 16 0 16 0 13 L 0 3 C 0 0 0 0 3 0"></path><text x="8"  style="font-size:12px;color:#333333;fill:#333333;" transform="translate(0,20)"></text></g></svg>