<svg version="1.1" style="font-family:&quot;lucida grande&quot;, &quot;lucida sans unicode&quot;, arial, helvetica, sans-serif;font-size:12px;" xmlns="http://www.w3.org/2000/svg" width="584" height="400" viewBox="0 0 584 400"><desc>Created with Highcharts 4.1.4</desc><defs><clipPath id="highcharts-1"><rect x="0" y="0" width="284" height="529"></rect></clipPath></defs><rect x="0" y="0" width="584" height="400" strokeWidth="0" fill="#FFFFFF" class=" highcharts-background" stroke="transparent"></rect><g class="highcharts-grid" ></g><g class="highcharts-grid" ><path fill="none" d="M 44.5 61 L 44.5 345" stroke="#D8D8D8" stroke-width="1"  opacity="1"></path><path fill="none" d="M 92.5 61 L 92.5 345" stroke="#D8D8D8" stroke-width="1"  opacity="1"></path><path fill="none" d="M 140.5 61 L 140.5 345" stroke="#D8D8D8" stroke-width="1"  opacity="1"></path><path fill="none" d="M 188.5 61 L 188.5 345" stroke="#D8D8D8" stroke-width="1"  opacity="1"></path><path fill="none" d="M 236.5 61 L 236.5 345" stroke="#D8D8D8" stroke-width="1"  opacity="1"></path><path fill="none" d="M 284.5 61 L 284.5 345" stroke="#D8D8D8" stroke-width="1"  opacity="1"></path><path fill="none" d="M 333.5 61 L 333.5 345" stroke="#D8D8D8" stroke-width="1"  opacity="1"></path><path fill="none" d="M 381.5 61 L 381.5 345" stroke="#D8D8D8" stroke-width="1"  opacity="1"></path><path fill="none" d="M 429.5 61 L 429.5 345" stroke="#D8D8D8" stroke-width="1"  opacity="1"></path><path fill="none" d="M 477.5 61 L 477.5 345" stroke="#D8D8D8" stroke-width="1"  opacity="1"></path><path fill="none" d="M 525.5 61 L 525.5 345" stroke="#D8D8D8" stroke-width="1"  opacity="1"></path><path fill="none" d="M 574.5 61 L 574.5 345" stroke="#D8D8D8" stroke-width="1"  opacity="1"></path></g><g class="highcharts-axis" ><path fill="none" d="M 45 85.5 L 35 85.5" stroke="#C0D0E0" stroke-width="1" opacity="1"></path><path fill="none" d="M 45 108.5 L 35 108.5" stroke="#C0D0E0" stroke-width="1" opacity="1"></path><path fill="none" d="M 45 132.5 L 35 132.5" stroke="#C0D0E0" stroke-width="1" opacity="1"></path><path fill="none" d="M 45 156.5 L 35 156.5" stroke="#C0D0E0" stroke-width="1" opacity="1"></path><path fill="none" d="M 45 179.5 L 35 179.5" stroke="#C0D0E0" stroke-width="1" opacity="1"></path><path fill="none" d="M 45 203.5 L 35 203.5" stroke="#C0D0E0" stroke-width="1" opacity="1"></path><path fill="none" d="M 45 227.5 L 35 227.5" stroke="#C0D0E0" stroke-width="1" opacity="1"></path><path fill="none" d="M 45 250.5 L 35 250.5" stroke="#C0D0E0" stroke-width="1" opacity="1"></path><path fill="none" d="M 45 274.5 L 35 274.5" stroke="#C0D0E0" stroke-width="1" opacity="1"></path><path fill="none" d="M 45 298.5 L 35 298.5" stroke="#C0D0E0" stroke-width="1" opacity="1"></path><path fill="none" d="M 45 321.5 L 35 321.5" stroke="#C0D0E0" stroke-width="1" opacity="1"></path><path fill="none" d="M 45 345.5 L 35 345.5" stroke="#C0D0E0" stroke-width="1" opacity="1"></path><path fill="none" d="M 45 60.5 L 35 60.5" stroke="#C0D0E0" stroke-width="1" opacity="1"></path><path fill="none" d="M 44.5 61 L 44.5 345" stroke="#C0D0E0" stroke-width="1"  visibility="visible"></path></g><g class="highcharts-axis" ><text x="309.5"  text-anchor="middle" transform="translate(0,0)" class=" highcharts-yaxis-title" style="color:#707070;fill:#707070;" visibility="visible" y="383"><tspan>Temperature ( °C )</tspan></text></g><g class="highcharts-series-group" ><g class="highcharts-series highcharts-tracker" visibility="visible"  transform="translate(574,345) rotate(90) scale(-1,1) scale(1 1)" style="" width="529" height="284" clip-path="url(#highcharts-1)"><rect x="265.5" y="246.2" width="12" height="183.7" stroke="#FFFFFF" stroke-width="1" fill="#7cb5ec" rx="0" ry="0"></rect><rect x="242.5" y="274.1" width="12" height="146.1" stroke="#FFFFFF" stroke-width="1" fill="#7cb5ec" rx="0" ry="0"></rect><rect x="218.5" y="246.2" width="12" height="124.0" stroke="#FFFFFF" stroke-width="1" fill="#7cb5ec" rx="0" ry="0"></rect><rect x="194.5" y="145.2" width="12" height="204.8" stroke="#FFFFFF" stroke-width="1" fill="#7cb5ec" rx="0" ry="0"></rect><rect x="171.5" y="119.2" width="12" height="217.3" stroke="#FFFFFF" stroke-width="1" fill="#7cb5ec" rx="0" ry="0"></rect><rect x="147.5" y="52.8" width="12" height="255.8" stroke="#FFFFFF" stroke-width="1" fill="#7cb5ec" rx="0" ry="0"></rect><rect x="123.5" y="41.3" width="12" height="206.7" stroke="#FFFFFF" stroke-width="1" fill="#7cb5ec" rx="0" ry="0"></rect><rect x="100.5" y="81.7" width="12" height="184.6" stroke="#FFFFFF" stroke-width="1" fill="#7cb5ec" rx="0" ry="0"></rect><rect x="76.5" y="163.5" width="12" height="130.8" stroke="#FFFFFF" stroke-width="1" fill="#7cb5ec" rx="0" ry="0"></rect><rect x="52.5" y="226.9" width="12" height="139.4" stroke="#FFFFFF" stroke-width="1" fill="#7cb5ec" rx="0" ry="0"></rect><rect x="29.5" y="236.6" width="12" height="150.0" stroke="#FFFFFF" stroke-width="1" fill="#7cb5ec" rx="0" ry="0"></rect><rect x="5.5" y="242.3" width="12" height="224.1" stroke="#FFFFFF" stroke-width="1" fill="#7cb5ec" rx="0" ry="0"></rect></g><g class="highcharts-markers" visibility="visible"  transform="translate(574,345) rotate(90) scale(-1,1) scale(1 1)" width="529" height="284"></g></g><text x="292" text-anchor="middle" class="highcharts-title"  style="color:#333333;font-size:18px;fill:#333333;width:520px;" y="24"><tspan>Temperature variation by month</tspan></text><text x="292" text-anchor="middle" class="highcharts-subtitle"  style="color:#555555;fill:#555555;width:520px;" y="46"><tspan>Observed in Vik i Sogn, Norway, 2009</tspan></text><g class="highcharts-data-labels highcharts-tracker" visibility="visible"  transform="translate(45,61) scale(1 1)" style=""><g  style="" transform="translate(283,1)"><text x="5"  style="font-size: 11px; font-weight: bold; color: rgb(0, 0, 0); fill: #000000; text-shadow: rgb(255, 255, 255) 0px 0px 6px, rgb(255, 255, 255) 0px 0px 3px; " transform="translate(0,16)"><tspan>9.4°C</tspan></text></g><g  style="" transform="translate(255,24)"><text x="5"  style="font-size: 11px; font-weight: bold; color: rgb(0, 0, 0); fill: #000000; text-shadow: rgb(255, 255, 255) 0px 0px 6px, rgb(255, 255, 255) 0px 0px 3px; " transform="translate(0,16)"><tspan>6.5°C</tspan></text></g><g  style="" transform="translate(283,48)"><text x="5"  style="font-size: 11px; font-weight: bold; color: rgb(0, 0, 0); fill: #000000; text-shadow: rgb(255, 255, 255) 0px 0px 6px, rgb(255, 255, 255) 0px 0px 3px; " transform="translate(0,16)"><tspan>9.4°C</tspan></text></g><g  style="" transform="translate(384,72)"><text x="5"  style="font-size: 11px; font-weight: bold; color: rgb(0, 0, 0); fill: #000000; text-shadow: rgb(255, 255, 255) 0px 0px 6px, rgb(255, 255, 255) 0px 0px 3px; " transform="translate(0,16)"><tspan>19.9°C</tspan></text></g><g  style="" transform="translate(410,95)"><text x="5"  style="font-size: 11px; font-weight: bold; color: rgb(0, 0, 0); fill: #000000; text-shadow: rgb(255, 255, 255) 0px 0px 6px, rgb(255, 255, 255) 0px 0px 3px; " transform="translate(0,16)"><tspan>22.6°C</tspan></text></g><g  style="" transform="translate(476,119)"><text x="5"  style="font-size: 11px; font-weight: bold; color: rgb(0, 0, 0); fill: #000000; text-shadow: rgb(255, 255, 255) 0px 0px 6px, rgb(255, 255, 255) 0px 0px 3px; " transform="translate(0,16)"><tspan>29.5°C</tspan></text></g><g  style="" transform="translate(441,143)"><text x="5"  style="font-size: 11px; font-weight: bold; color: rgb(0, 0, 0); fill: #000000; text-shadow: rgb(255, 255, 255) 0px 0px 6px, rgb(255, 255, 255) 0px 0px 3px; " transform="translate(0,16)"><tspan>30.7°C</tspan></text></g><g  style="" transform="translate(447,166)"><text x="5"  style="font-size: 11px; font-weight: bold; color: rgb(0, 0, 0); fill: #000000; text-shadow: rgb(255, 255, 255) 0px 0px 6px, rgb(255, 255, 255) 0px 0px 3px; " transform="translate(0,16)"><tspan>26.5°C</tspan></text></g><g  style="" transform="translate(365,190)"><text x="5"  style="font-size: 11px; font-weight: bold; color: rgb(0, 0, 0); fill: #000000; text-shadow: rgb(255, 255, 255) 0px 0px 6px, rgb(255, 255, 255) 0px 0px 3px; " transform="translate(0,16)"><tspan>18°C</tspan></text></g><g  style="" transform="translate(302,214)"><text x="5"  style="font-size: 11px; font-weight: bold; color: rgb(0, 0, 0); fill: #000000; text-shadow: rgb(255, 255, 255) 0px 0px 6px, rgb(255, 255, 255) 0px 0px 3px; " transform="translate(0,16)"><tspan>11.4°C</tspan></text></g><g  style="" transform="translate(292,237)"><text x="5"  style="font-size: 11px; font-weight: bold; color: rgb(0, 0, 0); fill: #000000; text-shadow: rgb(255, 255, 255) 0px 0px 6px, rgb(255, 255, 255) 0px 0px 3px; " transform="translate(0,16)"><tspan>10.4°C</tspan></text></g><g  style="" transform="translate(287,261)"><text x="5"  style="font-size: 11px; font-weight: bold; color: rgb(0, 0, 0); fill: #000000; text-shadow: rgb(255, 255, 255) 0px 0px 6px, rgb(255, 255, 255) 0px 0px 3px; " transform="translate(0,16)"><tspan>9.8°C</tspan></text></g><g  style="" transform="translate(54,1)"><text x="5"  style="font-size: 11px; font-weight: bold; color: rgb(0, 0, 0); fill: #000000; text-shadow: rgb(255, 255, 255) 0px 0px 6px, rgb(255, 255, 255) 0px 0px 3px; " transform="translate(0,16)"><tspan>-9.7°C</tspan></text></g><g  style="" transform="translate(64,24)" opacity="0"><text x="5"  style="font-size: 11px; font-weight: bold; color: rgb(0, 0, 0); fill: #000000; text-shadow: rgb(255, 255, 255) 0px 0px 6px, rgb(255, 255, 255) 0px 0px 3px; " transform="translate(0,16)"><tspan>-8.7°C</tspan></text></g><g  style="" transform="translate(114,48)"><text x="5"  style="font-size: 11px; font-weight: bold; color: rgb(0, 0, 0); fill: #000000; text-shadow: rgb(255, 255, 255) 0px 0px 6px, rgb(255, 255, 255) 0px 0px 3px; " transform="translate(0,16)"><tspan>-3.5°C</tspan></text></g><g  style="" transform="translate(134,72)"><text x="5"  style="font-size: 11px; font-weight: bold; color: rgb(0, 0, 0); fill: #000000; text-shadow: rgb(255, 255, 255) 0px 0px 6px, rgb(255, 255, 255) 0px 0px 3px; " transform="translate(0,16)"><tspan>-1.4°C</tspan></text></g><g  style="" transform="translate(162,95)" opacity="0"><text x="5"  style="font-size: 11px; font-weight: bold; color: rgb(0, 0, 0); fill: #000000; text-shadow: rgb(255, 255, 255) 0px 0px 6px, rgb(255, 255, 255) 0px 0px 3px; " transform="translate(0,16)"><tspan>0°C</tspan></text></g><g  style="" transform="translate(180,119)"><text x="5"  style="font-size: 11px; font-weight: bold; color: rgb(0, 0, 0); fill: #000000; text-shadow: rgb(255, 255, 255) 0px 0px 6px, rgb(255, 255, 255) 0px 0px 3px; " transform="translate(0,16)"><tspan>2.9°C</tspan></text></g><g  style="" transform="translate(241,143)"><text x="5"  style="font-size: 11px; font-weight: bold; color: rgb(0, 0, 0); fill: #000000; text-shadow: rgb(255, 255, 255) 0px 0px 6px, rgb(255, 255, 255) 0px 0px 3px; " transform="translate(0,16)"><tspan>9.2°C</tspan></text></g><g  style="" transform="translate(223,166)" opacity="0"><text x="5"  style="font-size: 11px; font-weight: bold; color: rgb(0, 0, 0); fill: #000000; text-shadow: rgb(255, 255, 255) 0px 0px 6px, rgb(255, 255, 255) 0px 0px 3px; " transform="translate(0,16)"><tspan>7.3°C</tspan></text></g><g  style="" transform="translate(195,190)"><text x="5"  style="font-size: 11px; font-weight: bold; color: rgb(0, 0, 0); fill: #000000; text-shadow: rgb(255, 255, 255) 0px 0px 6px, rgb(255, 255, 255) 0px 0px 3px; " transform="translate(0,16)"><tspan>4.4°C</tspan></text></g><g  style="" transform="translate(118,214)"><text x="5"  style="font-size: 11px; font-weight: bold; color: rgb(0, 0, 0); fill: #000000; text-shadow: rgb(255, 255, 255) 0px 0px 6px, rgb(255, 255, 255) 0px 0px 3px; " transform="translate(0,16)"><tspan>-3.1°C</tspan></text></g><g  style="" transform="translate(97,237)" opacity="0"><text x="5"  style="font-size: 11px; font-weight: bold; color: rgb(0, 0, 0); fill: #000000; text-shadow: rgb(255, 255, 255) 0px 0px 6px, rgb(255, 255, 255) 0px 0px 3px; " transform="translate(0,16)"><tspan>-5.2°C</tspan></text></g><g  style="" transform="translate(11,261)"><text x="5"  style="font-size: 11px; font-weight: bold; color: rgb(0, 0, 0); fill: #000000; text-shadow: rgb(255, 255, 255) 0px 0px 6px, rgb(255, 255, 255) 0px 0px 3px; " transform="translate(0,16)"><tspan>-13.5°C</tspan></text></g></g><g class="highcharts-axis-labels highcharts-xaxis-labels" ><text x="30" style="color:#606060;cursor:default;font-size:11px;fill:#606060;width:183px;text-overflow:clip;" text-anchor="end" transform="translate(0,0)" y="77" opacity="1">Jan</text><text x="30" style="color:#606060;cursor:default;font-size:11px;fill:#606060;width:183px;text-overflow:clip;" text-anchor="end" transform="translate(0,0)" y="101" opacity="1">Feb</text><text x="30" style="color:#606060;cursor:default;font-size:11px;fill:#606060;width:183px;text-overflow:clip;" text-anchor="end" transform="translate(0,0)" y="125" opacity="1">Mar</text><text x="30" style="color:#606060;cursor:default;font-size:11px;fill:#606060;width:183px;text-overflow:clip;" text-anchor="end" transform="translate(0,0)" y="148" opacity="1">Apr</text><text x="30" style="color:#606060;cursor:default;font-size:11px;fill:#606060;width:183px;text-overflow:clip;" text-anchor="end" transform="translate(0,0)" y="172" opacity="1">May</text><text x="30" style="color:#606060;cursor:default;font-size:11px;fill:#606060;width:183px;text-overflow:clip;" text-anchor="end" transform="translate(0,0)" y="196" opacity="1">Jun</text><text x="30" style="color:#606060;cursor:default;font-size:11px;fill:#606060;width:183px;text-overflow:clip;" text-anchor="end" transform="translate(0,0)" y="219" opacity="1">Jul</text><text x="30" style="color:#606060;cursor:default;font-size:11px;fill:#606060;width:183px;text-overflow:clip;" text-anchor="end" transform="translate(0,0)" y="243" opacity="1">Aug</text><text x="30" style="color:#606060;cursor:default;font-size:11px;fill:#606060;width:183px;text-overflow:clip;" text-anchor="end" transform="translate(0,0)" y="267" opacity="1">Sep</text><text x="30" style="color:#606060;cursor:default;font-size:11px;fill:#606060;width:183px;text-overflow:clip;" text-anchor="end" transform="translate(0,0)" y="290" opacity="1">Oct</text><text x="30" style="color:#606060;cursor:default;font-size:11px;fill:#606060;width:183px;text-overflow:clip;" text-anchor="end" transform="translate(0,0)" y="314" opacity="1">Nov</text><text x="30" style="color:#606060;cursor:default;font-size:11px;fill:#606060;width:183px;text-overflow:clip;" text-anchor="end" transform="translate(0,0)" y="338" opacity="1">Dec</text></g><g class="highcharts-axis-labels highcharts-yaxis-labels" ><text x="45" style="color:#606060;cursor:default;font-size:11px;fill:#606060;" text-anchor="middle" transform="translate(0,0)" y="364" opacity="1">-20</text><text x="93.0" style="color:#606060;cursor:default;font-size:11px;fill:#606060;" text-anchor="middle" transform="translate(0,0)" y="364" opacity="1">-15</text><text x="141.1" style="color:#606060;cursor:default;font-size:11px;fill:#606060;" text-anchor="middle" transform="translate(0,0)" y="364" opacity="1">-10</text><text x="189.2" style="color:#606060;cursor:default;font-size:11px;fill:#606060;" text-anchor="middle" transform="translate(0,0)" y="364" opacity="1">-5</text><text x="237.3" style="color:#606060;cursor:default;font-size:11px;fill:#606060;" text-anchor="middle" transform="translate(0,0)" y="364" opacity="1">0</text><text x="285.4" style="color:#606060;cursor:default;font-size:11px;fill:#606060;" text-anchor="middle" transform="translate(0,0)" y="364" opacity="1">5</text><text x="333.5" style="color:#606060;cursor:default;font-size:11px;fill:#606060;" text-anchor="middle" transform="translate(0,0)" y="364" opacity="1">10</text><text x="381.6" style="color:#606060;cursor:default;font-size:11px;fill:#606060;" text-anchor="middle" transform="translate(0,0)" y="364" opacity="1">15</text><text x="429.7" style="color:#606060;cursor:default;font-size:11px;fill:#606060;" text-anchor="middle" transform="translate(0,0)" y="364" opacity="1">20</text><text x="477.8" style="color:#606060;cursor:default;font-size:11px;fill:#606060;" text-anchor="middle" transform="translate(0,0)" y="364" opacity="1">25</text><text x="525.9" style="color:#606060;cursor:default;font-size:11px;fill:#606060;" text-anchor="middle" transform="translate(0,0)" y="364" opacity="1">30</text><text x="574" style="color:#606060;cursor:default;font-size:11px;fill:#606060;" text-anchor="end" transform="translate(0,0)" y="364" opacity="1">35</text></g><g class="highcharts-tooltip"  style="cursor:default;padding:0;white-space:nowrap;" transform="translate(0,-9999)"><path fill="none" d="M 3 0 L 13 0 C 16 0 16 0 16 3 L 16 13 C 16 16 16 16 13 16 L 3 16 C 0 16 0 16 0 13 L 0 3 C 0 0 0 0 3 0"  stroke="black" stroke-opacity="0.0" stroke-width="5" transform="translate(1, 1)"></path><path fill="none" d="M 3 0 L 13 0 C 16 0 16 0 16 3 L 16 13 C 16 16 16 16 13 16 L 3 16 C 0 16 0 16 0 13 L 0 3 C 0 0 0 0 3 0"  stroke="black" stroke-opacity="0.0" stroke-width="3" transform="translate(1, 1)"></path><path fill="none" d="M 3 0 L 13 0 C 16 0 16 0 16 3 L 16 13 C 16 16 16 16 13 16 L 3 16 C 0 16 0 16 0 13 L 0 3 C 0 0 0 0 3 0"  stroke="black" stroke-opacity="0.1" stroke-width="1" transform="translate(1, 1)"></path><path fill="rgb(249, 249, 249)" fill-opacity=" .85" d="M 3 0 L 13 0 C 16 0 16 0 16 3 L 16 13 C 16 16 16 16 13 16 L 3 16 C 0 16 0 16 0 13 L 0 3 C 0 0 0 0 3 0"></path><text x="8"  style="font-size:12px;color:#333333;fill:#333333;" transform="translate(0,20)"></text></g></svg>