<svg version="1.1" style="font-family:&quot;lucida grande&quot;, &quot;lucida sans unicode&quot;, arial, helvetica, sans-serif;font-size:12px;" xmlns="http://www.w3.org/2000/svg" width="584" height="400" viewBox="0 0 584 400"><desc>Created with Highcharts 4.1.4</desc><defs><clipPath id="highcharts-1"><rect x="0" y="0" width="503" height="317"></rect></clipPath></defs><rect x="0" y="0" width="584" height="400" strokeWidth="0" fill="#FFFFFF" class=" highcharts-background" stroke="transparent"></rect><g class="highcharts-grid" ></g><g class="highcharts-grid" ><path fill="none" d="M 71 364.5 L 574 364.5" stroke="#D8D8D8" stroke-width="1"  opacity="1"></path><path fill="none" d="M 71 301.5 L 574 301.5" stroke="#D8D8D8" stroke-width="1"  opacity="1"></path><path fill="none" d="M 71 237.5 L 574 237.5" stroke="#D8D8D8" stroke-width="1"  opacity="1"></path><path fill="none" d="M 71 174.5 L 574 174.5" stroke="#D8D8D8" stroke-width="1"  opacity="1"></path><path fill="none" d="M 71 110.5 L 574 110.5" stroke="#D8D8D8" stroke-width="1"  opacity="1"></path><path fill="none" d="M 71 46.5 L 574 46.5" stroke="#D8D8D8" stroke-width="1"  opacity="1"></path></g><g class="highcharts-axis" ><path fill="none" d="M 171.5 364 L 171.5 374" stroke="#C0D0E0" stroke-width="1" opacity="1"></path><path fill="none" d="M 271.5 364 L 271.5 374" stroke="#C0D0E0" stroke-width="1" opacity="1"></path><path fill="none" d="M 372.5 364 L 372.5 374" stroke="#C0D0E0" stroke-width="1" opacity="1"></path><path fill="none" d="M 472.5 364 L 472.5 374" stroke="#C0D0E0" stroke-width="1" opacity="1"></path><path fill="none" d="M 574.5 364 L 574.5 374" stroke="#C0D0E0" stroke-width="1" opacity="1"></path><path fill="none" d="M 70.5 364 L 70.5 374" stroke="#C0D0E0" stroke-width="1" opacity="1"></path><path fill="none" d="M 71 364.5 L 574 364.5" stroke="#C0D0E0" stroke-width="1"  visibility="visible"></path></g><g class="highcharts-axis" ><text x="24"  text-anchor="middle" transform="translate(0,0) rotate(270 24 205.5)" class=" highcharts-yaxis-title" style="color:#707070;fill:#707070;" visibility="visible" y="205.5"><tspan>Total fruit consumption</tspan></text></g><g class="highcharts-series-group" ><g class="highcharts-series highcharts-tracker" visibility="visible"  transform="translate(71,47) scale(1 1)" style="" clip-path="url(#highcharts-1)"><rect x="25.5" y="63.5" width="49" height="127" stroke="#FFFFFF" stroke-width="1" fill="#7cb5ec" rx="0" ry="0"></rect><rect x="126.5" y="89.5" width="49" height="76" stroke="#FFFFFF" stroke-width="1" fill="#7cb5ec" rx="0" ry="0"></rect><rect x="226.5" y="38.5" width="49" height="101" stroke="#FFFFFF" stroke-width="1" fill="#7cb5ec" rx="0" ry="0"></rect><rect x="327.5" y="38.5" width="49" height="178" stroke="#FFFFFF" stroke-width="1" fill="#7cb5ec" rx="0" ry="0"></rect><rect x="428.5" y="114.5" width="49" height="51" stroke="#FFFFFF" stroke-width="1" fill="#7cb5ec" rx="0" ry="0"></rect></g><g class="highcharts-markers" visibility="visible"  transform="translate(71,47) scale(1 1)"></g><g class="highcharts-series highcharts-tracker" visibility="visible"  transform="translate(71,47) scale(1 1)" style="" clip-path="url(#highcharts-1)"><rect x="25.5" y="190.5" width="49" height="51" stroke="#FFFFFF" stroke-width="1" fill="#434348" rx="0" ry="0"></rect><rect x="126.5" y="165.5" width="49" height="51" stroke="#FFFFFF" stroke-width="1" fill="#434348" rx="0" ry="0"></rect><rect x="226.5" y="139.5" width="49" height="77" stroke="#FFFFFF" stroke-width="1" fill="#434348" rx="0" ry="0"></rect><rect x="327.5" y="216.5" width="49" height="50" stroke="#FFFFFF" stroke-width="1" fill="#434348" rx="0" ry="0"></rect><rect x="428.5" y="165.5" width="49" height="25" stroke="#FFFFFF" stroke-width="1" fill="#434348" rx="0" ry="0"></rect></g><g class="highcharts-markers" visibility="visible"  transform="translate(71,47) scale(1 1)"></g><g class="highcharts-series highcharts-tracker" visibility="visible"  transform="translate(71,47) scale(1 1)" style="" clip-path="url(#highcharts-1)"><rect x="25.5" y="241.5" width="49" height="76" stroke="#FFFFFF" stroke-width="1" fill="#90ed7d" rx="0" ry="0"></rect><rect x="126.5" y="216.5" width="49" height="101" stroke="#FFFFFF" stroke-width="1" fill="#90ed7d" rx="0" ry="0"></rect><rect x="226.5" y="216.5" width="49" height="101" stroke="#FFFFFF" stroke-width="1" fill="#90ed7d" rx="0" ry="0"></rect><rect x="327.5" y="266.5" width="49" height="51" stroke="#FFFFFF" stroke-width="1" fill="#90ed7d" rx="0" ry="0"></rect><rect x="428.5" y="190.5" width="49" height="127" stroke="#FFFFFF" stroke-width="1" fill="#90ed7d" rx="0" ry="0"></rect></g><g class="highcharts-markers" visibility="visible"  transform="translate(71,47) scale(1 1)"></g></g><text x="292" text-anchor="middle" class="highcharts-title"  style="color:#333333;font-size:18px;fill:#333333;width:520px;" y="24"><tspan>Stacked column chart</tspan></text><g class="highcharts-stack-labels" visibility="visible"  transform="translate(71,47)"><text x="50" style="color: gray; font-size: 11px; font-weight: bold; fill: #808080; text-shadow: rgb(255, 255, 255) 0px 0px 6px, rgb(255, 255, 255) 0px 0px 3px; " text-anchor="middle" transform="translate(0,0)" y="57"><tspan>10</tspan></text><text x="151" style="color: gray; font-size: 11px; font-weight: bold; fill: #808080; text-shadow: rgb(255, 255, 255) 0px 0px 6px, rgb(255, 255, 255) 0px 0px 3px; " text-anchor="middle" transform="translate(0,0)" y="83"><tspan>9</tspan></text><text x="252" style="color: gray; font-size: 11px; font-weight: bold; fill: #808080; text-shadow: rgb(255, 255, 255) 0px 0px 6px, rgb(255, 255, 255) 0px 0px 3px; " text-anchor="middle" transform="translate(0,0)" y="32"><tspan>11</tspan></text><text x="352" style="color: gray; font-size: 11px; font-weight: bold; fill: #808080; text-shadow: rgb(255, 255, 255) 0px 0px 6px, rgb(255, 255, 255) 0px 0px 3px; " text-anchor="middle" transform="translate(0,0)" y="32"><tspan>11</tspan></text><text x="453" style="color: gray; font-size: 11px; font-weight: bold; fill: #808080; text-shadow: rgb(255, 255, 255) 0px 0px 6px, rgb(255, 255, 255) 0px 0px 3px; " text-anchor="middle" transform="translate(0,0)" y="108"><tspan>8</tspan></text></g><g class="highcharts-data-labels highcharts-tracker" visibility="visible"  transform="translate(71,47) scale(1 1)" style=""><g  style="" transform="translate(42,116)"><text x="5"  style="font-size:11px;font-weight:bold;color:white;text-shadow:0 0 3px black;fill:white;" transform="translate(0,16)"><tspan>5</tspan></text></g><g  style="" transform="translate(143,116)"><text x="5"  style="font-size:11px;font-weight:bold;color:white;text-shadow:0 0 3px black;fill:white;" transform="translate(0,16)"><tspan>3</tspan></text></g><g  style="" transform="translate(243,78)"><text x="5"  style="font-size:11px;font-weight:bold;color:white;text-shadow:0 0 3px black;fill:white;" transform="translate(0,16)"><tspan>4</tspan></text></g><g  style="" transform="translate(344,116)"><text x="5"  style="font-size:11px;font-weight:bold;color:white;text-shadow:0 0 3px black;fill:white;" transform="translate(0,16)"><tspan>7</tspan></text></g><g  style="" transform="translate(445,129)"><text x="5"  style="font-size:11px;font-weight:bold;color:white;text-shadow:0 0 3px black;fill:white;" transform="translate(0,16)"><tspan>2</tspan></text></g></g><g class="highcharts-data-labels highcharts-tracker" visibility="visible"  transform="translate(71,47) scale(1 1)" style=""><g  style="" transform="translate(42,205)"><text x="5"  style="font-size:11px;font-weight:bold;color:white;text-shadow:0 0 3px black;fill:white;" transform="translate(0,16)"><tspan>2</tspan></text></g><g  style="" transform="translate(143,180)"><text x="5"  style="font-size:11px;font-weight:bold;color:white;text-shadow:0 0 3px black;fill:white;" transform="translate(0,16)"><tspan>2</tspan></text></g><g  style="" transform="translate(243,167)"><text x="5"  style="font-size:11px;font-weight:bold;color:white;text-shadow:0 0 3px black;fill:white;" transform="translate(0,16)"><tspan>3</tspan></text></g><g  style="" transform="translate(344,230)"><text x="5"  style="font-size:11px;font-weight:bold;color:white;text-shadow:0 0 3px black;fill:white;" transform="translate(0,16)"><tspan>2</tspan></text></g><g  style="" transform="translate(445,167)"><text x="5"  style="font-size:11px;font-weight:bold;color:white;text-shadow:0 0 3px black;fill:white;" transform="translate(0,16)"><tspan>1</tspan></text></g></g><g class="highcharts-data-labels highcharts-tracker" visibility="visible"  transform="translate(71,47) scale(1 1)" style=""><g  style="" transform="translate(42,268)"><text x="5"  style="font-size:11px;font-weight:bold;color:white;text-shadow:0 0 3px black;fill:white;" transform="translate(0,16)"><tspan>3</tspan></text></g><g  style="" transform="translate(143,256)"><text x="5"  style="font-size:11px;font-weight:bold;color:white;text-shadow:0 0 3px black;fill:white;" transform="translate(0,16)"><tspan>4</tspan></text></g><g  style="" transform="translate(243,256)"><text x="5"  style="font-size:11px;font-weight:bold;color:white;text-shadow:0 0 3px black;fill:white;" transform="translate(0,16)"><tspan>4</tspan></text></g><g  style="" transform="translate(344,281)"><text x="5"  style="font-size:11px;font-weight:bold;color:white;text-shadow:0 0 3px black;fill:white;" transform="translate(0,16)"><tspan>2</tspan></text></g><g  style="" transform="translate(445,243)"><text x="5"  style="font-size:11px;font-weight:bold;color:white;text-shadow:0 0 3px black;fill:white;" transform="translate(0,16)"><tspan>5</tspan></text></g></g><g class="highcharts-legend"  transform="translate(346,35)"><rect x="0.5" y="0.5" width="197" height="24" strokeWidth="1" stroke="#CCC" stroke-width="1" fill="white" visibility="visible"></rect><g ><g><g class="highcharts-legend-item"  transform="translate(8,3)"><text x="21" style="color:#333333;font-size:12px;font-weight:bold;cursor:pointer;fill:#333333;" text-anchor="start"  y="15">John</text><rect x="0" y="4" width="16" height="12"  fill="#7cb5ec"></rect></g><g class="highcharts-legend-item"  transform="translate(79,3)"><text x="21" y="15" style="color:#333333;font-size:12px;font-weight:bold;cursor:pointer;fill:#333333;" text-anchor="start" >Jane</text><rect x="0" y="4" width="16" height="12"  fill="#434348"></rect></g><g class="highcharts-legend-item"  transform="translate(148,3)"><text x="21" y="15" style="color:#333333;font-size:12px;font-weight:bold;cursor:pointer;fill:#333333;" text-anchor="start" >Joe</text><rect x="0" y="4" width="16" height="12"  fill="#90ed7d"></rect></g></g></g></g><g class="highcharts-axis-labels highcharts-xaxis-labels" ><text x="121.3" style="color:#606060;cursor:default;font-size:11px;fill:#606060;width:103px;text-overflow:clip;" text-anchor="middle" transform="translate(0,0)" y="383" opacity="1">Apples</text><text x="221.8" style="color:#606060;cursor:default;font-size:11px;fill:#606060;width:103px;text-overflow:clip;" text-anchor="middle" transform="translate(0,0)" y="383" opacity="1">Oranges</text><text x="322.5" style="color:#606060;cursor:default;font-size:11px;fill:#606060;width:103px;text-overflow:clip;" text-anchor="middle" transform="translate(0,0)" y="383" opacity="1">Pears</text><text x="423.0" style="color:#606060;cursor:default;font-size:11px;fill:#606060;width:103px;text-overflow:clip;" text-anchor="middle" transform="translate(0,0)" y="383" opacity="1">Grapes</text><text x="523.7" style="color:#606060;cursor:default;font-size:11px;fill:#606060;width:103px;text-overflow:clip;" text-anchor="middle" transform="translate(0,0)" y="383" opacity="1">Bananas</text></g><g class="highcharts-axis-labels highcharts-yaxis-labels" ><text x="56" style="color:#606060;cursor:default;font-size:11px;fill:#606060;width:183px;text-overflow:clip;" text-anchor="end" transform="translate(0,0)" y="369" opacity="1">0</text><text x="56" style="color:#606060;cursor:default;font-size:11px;fill:#606060;width:183px;text-overflow:clip;" text-anchor="end" transform="translate(0,0)" y="305" opacity="1">2.5</text><text x="56" style="color:#606060;cursor:default;font-size:11px;fill:#606060;width:183px;text-overflow:clip;" text-anchor="end" transform="translate(0,0)" y="242" opacity="1">5</text><text x="56" style="color:#606060;cursor:default;font-size:11px;fill:#606060;width:183px;text-overflow:clip;" text-anchor="end" transform="translate(0,0)" y="178" opacity="1">7.5</text><text x="56" style="color:#606060;cursor:default;font-size:11px;fill:#606060;width:183px;text-overflow:clip;" text-anchor="end" transform="translate(0,0)" y="115" opacity="1">10</text><text x="56" style="color:#606060;cursor:default;font-size:11px;fill:#606060;width:183px;text-overflow:clip;" text-anchor="end" transform="translate(0,0)" y="52" opacity="1">12.5</text></g><g class="highcharts-tooltip"  style="cursor:default;padding:0;white-space:nowrap;" transform="translate(0,-9999)"><path fill="none" d="M 3 0 L 13 0 C 16 0 16 0 16 3 L 16 13 C 16 16 16 16 13 16 L 3 16 C 0 16 0 16 0 13 L 0 3 C 0 0 0 0 3 0"  stroke="black" stroke-opacity="0.0" stroke-width="5" transform="translate(1, 1)"></path><path fill="none" d="M 3 0 L 13 0 C 16 0 16 0 16 3 L 16 13 C 16 16 16 16 13 16 L 3 16 C 0 16 0 16 0 13 L 0 3 C 0 0 0 0 3 0"  stroke="black" stroke-opacity="0.0" stroke-width="3" transform="translate(1, 1)"></path><path fill="none" d="M 3 0 L 13 0 C 16 0 16 0 16 3 L 16 13 C 16 16 16 16 13 16 L 3 16 C 0 16 0 16 0 13 L 0 3 C 0 0 0 0 3 0"  stroke="black" stroke-opacity="0.1" stroke-width="1" transform="translate(1, 1)"></path><path fill="rgb(249, 249, 249)" fill-opacity=" .85" d="M 3 0 L 13 0 C 16 0 16 0 16 3 L 16 13 C 16 16 16 16 13 16 L 3 16 C 0 16 0 16 0 13 L 0 3 C 0 0 0 0 3 0"></path><text x="8"  style="font-size:12px;color:#333333;fill:#333333;" transform="translate(0,20)"></text></g></svg>