<svg version="1.1" style="font-family:&quot;lucida grande&quot;, &quot;lucida sans unicode&quot;, arial, helvetica, sans-serif;font-size:12px;" xmlns="http://www.w3.org/2000/svg" width="584" height="400" viewBox="0 0 584 400"><desc>Created with Highcharts 4.1.4</desc><defs><clipPath id="highcharts-1"><rect x="0" y="0" width="505" height="280"></rect></clipPath></defs><rect x="0" y="0" width="584" height="400" strokeWidth="0" fill="#FFFFFF" class=" highcharts-background" stroke="transparent"></rect><g class="highcharts-grid" ></g><g class="highcharts-grid" ><path fill="none" d="M 69 327.5 L 574 327.5" stroke="#D8D8D8" stroke-width="1"  opacity="1"></path><path fill="none" d="M 69 271.5 L 574 271.5" stroke="#D8D8D8" stroke-width="1"  opacity="1"></path><path fill="none" d="M 69 215.5 L 574 215.5" stroke="#D8D8D8" stroke-width="1"  opacity="1"></path><path fill="none" d="M 69 159.5 L 574 159.5" stroke="#D8D8D8" stroke-width="1"  opacity="1"></path><path fill="none" d="M 69 103.5 L 574 103.5" stroke="#D8D8D8" stroke-width="1"  opacity="1"></path><path fill="none" d="M 69 46.5 L 574 46.5" stroke="#D8D8D8" stroke-width="1"  opacity="1"></path></g><g class="highcharts-axis" ><path fill="none" d="M 169.5 327 L 169.5 337" stroke="#C0D0E0" stroke-width="1" opacity="1"></path><path fill="none" d="M 270.5 327 L 270.5 337" stroke="#C0D0E0" stroke-width="1" opacity="1"></path><path fill="none" d="M 371.5 327 L 371.5 337" stroke="#C0D0E0" stroke-width="1" opacity="1"></path><path fill="none" d="M 472.5 327 L 472.5 337" stroke="#C0D0E0" stroke-width="1" opacity="1"></path><path fill="none" d="M 574.5 327 L 574.5 337" stroke="#C0D0E0" stroke-width="1" opacity="1"></path><path fill="none" d="M 68.5 327 L 68.5 337" stroke="#C0D0E0" stroke-width="1" opacity="1"></path><path fill="none" d="M 69 327.5 L 574 327.5" stroke="#C0D0E0" stroke-width="1"  visibility="visible"></path></g><g class="highcharts-axis" ><text x="24"  text-anchor="middle" transform="translate(0,0) rotate(270 24 187)" class=" highcharts-yaxis-title" style="color:#707070;fill:#707070;" visibility="visible" y="187">Values</text></g><g class="highcharts-series-group" ><g class="highcharts-series highcharts-tracker" visibility="visible"  transform="translate(69,47) scale(1 1)" style="" clip-path="url(#highcharts-1)"><rect x="21.5" y="56.5" width="17" height="112" stroke="#FFFFFF" stroke-width="1" fill="#7cb5ec" rx="0" ry="0"></rect><rect x="122.5" y="101.5" width="17" height="67" stroke="#FFFFFF" stroke-width="1" fill="#7cb5ec" rx="0" ry="0"></rect><rect x="223.5" y="78.5" width="17" height="90" stroke="#FFFFFF" stroke-width="1" fill="#7cb5ec" rx="0" ry="0"></rect><rect x="324.5" y="11.5" width="17" height="157" stroke="#FFFFFF" stroke-width="1" fill="#7cb5ec" rx="0" ry="0"></rect><rect x="425.5" y="123.5" width="17" height="45" stroke="#FFFFFF" stroke-width="1" fill="#7cb5ec" rx="0" ry="0"></rect></g><g class="highcharts-markers" visibility="visible"  transform="translate(69,47) scale(1 1)"></g><g class="highcharts-series highcharts-tracker" visibility="visible"  transform="translate(69,47) scale(1 1)" style="" clip-path="url(#highcharts-1)"><rect x="41.5" y="123.5" width="17" height="45" stroke="#FFFFFF" stroke-width="1" fill="#434348" rx="0" ry="0"></rect><rect x="142.5" y="168.5" width="17" height="45" stroke="#FFFFFF" stroke-width="1" fill="#434348" rx="0" ry="0"></rect><rect x="243.5" y="168.5" width="17" height="67" stroke="#FFFFFF" stroke-width="1" fill="#434348" rx="0" ry="0"></rect><rect x="344.5" y="123.5" width="17" height="45" stroke="#FFFFFF" stroke-width="1" fill="#434348" rx="0" ry="0"></rect><rect x="445.5" y="146.5" width="17" height="22" stroke="#FFFFFF" stroke-width="1" fill="#434348" rx="0" ry="0"></rect></g><g class="highcharts-markers" visibility="visible"  transform="translate(69,47) scale(1 1)"></g><g class="highcharts-series highcharts-tracker" visibility="visible"  transform="translate(69,47) scale(1 1)" style="" clip-path="url(#highcharts-1)"><rect x="62.5" y="101.5" width="17" height="67" stroke="#FFFFFF" stroke-width="1" fill="#90ed7d" rx="0" ry="0"></rect><rect x="163.5" y="78.5" width="17" height="90" stroke="#FFFFFF" stroke-width="1" fill="#90ed7d" rx="0" ry="0"></rect><rect x="264.5" y="78.5" width="17" height="90" stroke="#FFFFFF" stroke-width="1" fill="#90ed7d" rx="0" ry="0"></rect><rect x="365.5" y="168.5" width="17" height="45" stroke="#FFFFFF" stroke-width="1" fill="#90ed7d" rx="0" ry="0"></rect><rect x="466.5" y="56.5" width="17" height="112" stroke="#FFFFFF" stroke-width="1" fill="#90ed7d" rx="0" ry="0"></rect></g><g class="highcharts-markers" visibility="visible"  transform="translate(69,47) scale(1 1)"></g></g><text x="292" text-anchor="middle" class="highcharts-title"  style="color:#333333;font-size:18px;fill:#333333;width:520px;" y="24"><tspan>Column chart with negative values</tspan></text><g class="highcharts-legend"  transform="translate(193,360)"><g ><g><g class="highcharts-legend-item"  transform="translate(8,3)"><text x="21" style="color:#333333;font-size:12px;font-weight:bold;cursor:pointer;fill:#333333;" text-anchor="start"  y="15">John</text><rect x="0" y="4" width="16" height="12"  fill="#7cb5ec"></rect></g><g class="highcharts-legend-item"  transform="translate(79,3)"><text x="21" y="15" style="color:#333333;font-size:12px;font-weight:bold;cursor:pointer;fill:#333333;" text-anchor="start" >Jane</text><rect x="0" y="4" width="16" height="12"  fill="#434348"></rect></g><g class="highcharts-legend-item"  transform="translate(148,3)"><text x="21" y="15" style="color:#333333;font-size:12px;font-weight:bold;cursor:pointer;fill:#333333;" text-anchor="start" >Joe</text><rect x="0" y="4" width="16" height="12"  fill="#90ed7d"></rect></g></g></g></g><g class="highcharts-axis-labels highcharts-xaxis-labels" ><text x="119.5" style="color:#606060;cursor:default;font-size:11px;fill:#606060;width:103px;text-overflow:clip;" text-anchor="middle" transform="translate(0,0)" y="346" opacity="1">Apples</text><text x="220.5" style="color:#606060;cursor:default;font-size:11px;fill:#606060;width:103px;text-overflow:clip;" text-anchor="middle" transform="translate(0,0)" y="346" opacity="1">Oranges</text><text x="321.5" style="color:#606060;cursor:default;font-size:11px;fill:#606060;width:103px;text-overflow:clip;" text-anchor="middle" transform="translate(0,0)" y="346" opacity="1">Pears</text><text x="422.5" style="color:#606060;cursor:default;font-size:11px;fill:#606060;width:103px;text-overflow:clip;" text-anchor="middle" transform="translate(0,0)" y="346" opacity="1">Grapes</text><text x="523.5" style="color:#606060;cursor:default;font-size:11px;fill:#606060;width:103px;text-overflow:clip;" text-anchor="middle" transform="translate(0,0)" y="346" opacity="1">Bananas</text></g><g class="highcharts-axis-labels highcharts-yaxis-labels" ><text x="54" style="color:#606060;cursor:default;font-size:11px;fill:#606060;width:183px;text-overflow:clip;" text-anchor="end" transform="translate(0,0)" y="332" opacity="1">-5</text><text x="54" style="color:#606060;cursor:default;font-size:11px;fill:#606060;width:183px;text-overflow:clip;" text-anchor="end" transform="translate(0,0)" y="276" opacity="1">-2.5</text><text x="54" style="color:#606060;cursor:default;font-size:11px;fill:#606060;width:183px;text-overflow:clip;" text-anchor="end" transform="translate(0,0)" y="220" opacity="1">0</text><text x="54" style="color:#606060;cursor:default;font-size:11px;fill:#606060;width:183px;text-overflow:clip;" text-anchor="end" transform="translate(0,0)" y="164" opacity="1">2.5</text><text x="54" style="color:#606060;cursor:default;font-size:11px;fill:#606060;width:183px;text-overflow:clip;" text-anchor="end" transform="translate(0,0)" y="108" opacity="1">5</text><text x="54" style="color:#606060;cursor:default;font-size:11px;fill:#606060;width:183px;text-overflow:clip;" text-anchor="end" transform="translate(0,0)" y="52" opacity="1">7.5</text></g><g class="highcharts-tooltip"  style="cursor:default;padding:0;white-space:nowrap;" transform="translate(0,-9999)"><path fill="none" d="M 3 0 L 13 0 C 16 0 16 0 16 3 L 16 13 C 16 16 16 16 13 16 L 3 16 C 0 16 0 16 0 13 L 0 3 C 0 0 0 0 3 0"  stroke="black" stroke-opacity="0.0" stroke-width="5" transform="translate(1, 1)"></path><path fill="none" d="M 3 0 L 13 0 C 16 0 16 0 16 3 L 16 13 C 16 16 16 16 13 16 L 3 16 C 0 16 0 16 0 13 L 0 3 C 0 0 0 0 3 0"  stroke="black" stroke-opacity="0.0" stroke-width="3" transform="translate(1, 1)"></path><path fill="none" d="M 3 0 L 13 0 C 16 0 16 0 16 3 L 16 13 C 16 16 16 16 13 16 L 3 16 C 0 16 0 16 0 13 L 0 3 C 0 0 0 0 3 0"  stroke="black" stroke-opacity="0.1" stroke-width="1" transform="translate(1, 1)"></path><path fill="rgb(249, 249, 249)" fill-opacity=" .85" d="M 3 0 L 13 0 C 16 0 16 0 16 3 L 16 13 C 16 16 16 16 13 16 L 3 16 C 0 16 0 16 0 13 L 0 3 C 0 0 0 0 3 0"></path><text x="8"  style="font-size:12px;color:#333333;fill:#333333;" transform="translate(0,20)"></text></g></svg>