<svg version="1.1" style="font-family:&quot;lucida grande&quot;, &quot;lucida sans unicode&quot;, arial, helvetica, sans-serif;font-size:12px;" xmlns="http://www.w3.org/2000/svg" width="584" height="420" viewBox="0 0 584 420"><desc>Created with Highstock 2.1.4</desc><defs><clipPath id="highcharts-1"><rect x="0" y="0" width="513" height="300"></rect></clipPath><clipPath id="highcharts-2"><rect x="-99" y="-47" width="612" height="420"></rect></clipPath><clipPath id="highcharts-3"><rect x="0" y="0" width="513" height="300"></rect></clipPath></defs><rect x="0" y="0" width="584" height="420" strokeWidth="0" fill="#FFFFFF" class=" highcharts-background" stroke="transparent"></rect><path fill="#EFFFFF" d="M 21.5 47 L 21.5 347 121.5 347 121.5 47 M 21.5 47 L 21.5 347 121.5 347 121.5 47"></path><text x="72" text-anchor="middle" transform="translate(0,0)" style="color:#999999;fill:#999999;" y="227" visibility="visible"><tspan style="font-style:italic">Offices:</tspan><tspan x="72" dy="15"> Torstein's basement</tspan></text><path fill="#FFFFEF" d="M 121.5 47 L 121.5 347 402.5 347 402.5 47 M 121.5 47 L 121.5 347 402.5 347 402.5 47"></path><text x="262" text-anchor="middle" transform="translate(0,0)" style="color:#999999;fill:#999999;" y="77" visibility="visible"><tspan style="font-style:italic">Offices:</tspan><tspan x="262" dy="15"> Tomtebu</tspan></text><path fill="#FFEFFF" d="M 402.5 47 L 402.5 347 517.5 347 517.5 47 M 402.5 47 L 402.5 347 517.5 347 517.5 47"></path><text x="460" text-anchor="middle" transform="translate(0,0)" style="color:#999999;fill:#999999;" y="77" visibility="visible"><tspan style="font-style:italic">Offices:</tspan><tspan x="460" dy="15"> VikØrsta</tspan></text><g class="highcharts-grid" ></g><g class="highcharts-grid" ><path fill="none" d="M 10 347.5 L 523 347.5" stroke="rgb(0, 0, 0)" stroke-opacity=" 0.0" stroke-width="1"  opacity="1"></path><path fill="none" d="M 10 287.5 L 523 287.5" stroke="rgb(0, 0, 0)" stroke-opacity=" 0.0" stroke-width="1"  opacity="1"></path><path fill="none" d="M 10 227.5 L 523 227.5" stroke="rgb(0, 0, 0)" stroke-opacity=" 0.0" stroke-width="1"  opacity="1"></path><path fill="none" d="M 10 167.5 L 523 167.5" stroke="rgb(0, 0, 0)" stroke-opacity=" 0.0" stroke-width="1"  opacity="1"></path><path fill="none" d="M 10 107.5 L 523 107.5" stroke="rgb(0, 0, 0)" stroke-opacity=" 0.0" stroke-width="1"  opacity="1"></path><path fill="none" d="M 10 46.5 L 523 46.5" stroke="rgb(0, 0, 0)" stroke-opacity=" 0.0" stroke-width="1"  opacity="1"></path></g><g class="highcharts-grid" ></g><g class="highcharts-axis" ><path fill="none" d="M 31.5 347 L 31.5 357" stroke="#C0D0E0" stroke-width="1" opacity="1"></path><path fill="none" d="M 130.5 347 L 130.5 357" stroke="#C0D0E0" stroke-width="1" opacity="1"></path><path fill="none" d="M 229.5 347 L 229.5 357" stroke="#C0D0E0" stroke-width="1" opacity="1"></path><path fill="none" d="M 328.5 347 L 328.5 357" stroke="#C0D0E0" stroke-width="1" opacity="1"></path><path fill="none" d="M 427.5 347 L 427.5 357" stroke="#C0D0E0" stroke-width="1" opacity="1"></path><path fill="none" d="M 10 347.5 L 523 347.5" stroke="#C0D0E0" stroke-width="1"  visibility="visible"></path></g><g class="highcharts-axis" ></g><g class="highcharts-axis" ><text x="560"  text-anchor="middle" transform="translate(0,0) rotate(90 560 197)" class=" highcharts-yaxis-title" style="color:#90ed7d;fill:#90ed7d;" visibility="visible" y="197">Employees</text></g><g class="highcharts-series-group" ><g class="highcharts-series" visibility="visible"  transform="translate(10,47) scale(1 1)" clip-path="url(#highcharts-3)"><path fill="none" d="M 9.0 300 C 9.0 300 14.0 289.1 17.3 285 C 20.7 280.7 22.4 279 25.7 279 C 28.9 279 30.5 285 33.8 285 C 37.0 285 38.6 283.7 41.8 282 C 45.1 280.1 46.7 278.9 50.0 276 C 53.3 272.9 55.0 267 58.3 267 C 61.6 267 63.3 273 66.6 273 C 69.9 273 71.6 266.3 74.9 264 C 78.3 261.5 79.9 264 83.3 261 C 86.6 258 88.3 249 91.6 249 C 94.9 249 96.6 249 99.9 249 C 103.2 249 104.8 247.7 108.2 246 C 111.5 244.1 113.1 240 116.4 240 C 119.8 240 121.5 240 124.9 240 C 128.1 240 129.7 226.1 132.9 219 C 136.1 211.7 137.7 204 140.9 204 C 144.2 204 145.9 213 149.2 213 C 152.5 213 154.1 198 157.4 198 C 160.8 198 162.4 198 165.7 198 C 169.0 198 170.7 197.3 174.0 192 C 177.4 186.5 179.1 174 182.4 171 C 185.7 168 187.4 168 190.7 168 C 194.0 168 195.7 174 199.0 174 C 202.3 174 204.0 159 207.3 159 C 210.6 159 212.3 162 215.6 162 C 218.9 162 220.6 156.7 224.0 150 C 227.2 143.5 228.9 129 232.1 129 C 235.4 129 237.0 138 240.3 138 C 243.6 138 245.2 127.7 248.6 123 C 251.9 118.1 253.5 118.2 256.8 114 C 260.1 109.8 261.8 102 265.1 102 C 268.4 102 270.1 117 273.4 117 C 276.8 117 278.5 96 281.8 96 C 285.1 96 286.8 99 290.1 99 C 293.4 99 295.1 81 298.4 81 C 301.7 81 303.4 99.6 306.7 111 C 310.0 122.4 311.6 138 315.0 138 C 318.3 138 320.0 111.2 323.4 99 C 326.6 87.2 328.2 86.3 331.4 78 C 334.6 69.5 336.2 65.8 339.4 57 C 342.7 47.8 344.4 33 347.7 33 C 351.0 33 352.6 51 356.0 51 C 359.3 51 360.9 36 364.2 36 C 367.6 36 369.2 37.8 372.5 42 C 375.9 46.2 377.6 57 380.9 57 C 384.3 57 385.9 57 389.2 51 C 392.5 45 394.2 15 397.5 15 C 400.8 15 402.5 34.8 405.8 42 C 409.1 49.2 410.8 51 414.1 51 C 417.5 51 419.1 36 422.5 33 C 425.7 30 427.3 32.9 430.5 30 C 433.7 26.9 435.3 23.9 438.5 18 C 441.8 11.9 443.5 0 446.8 0 C 450.1 0 451.8 0 455.1 0 C 458.4 0 460.0 3 463.4 3 C 466.7 3 468.3 3 471.6 3 C 475.0 3 476.7 21 480.1 21 C 483.4 21 485.0 12 488.3 9 C 491.7 6 496.6 6 496.6 6" stroke="#7cb5ec" stroke-width="2"  stroke-dasharray="8,6"></path><path fill="none" d="M -0.9 300 L 9.0 300 C 9.0 300 14.0 289.1 17.3 285 C 20.7 280.7 22.4 279 25.7 279 C 28.9 279 30.5 285 33.8 285 C 37.0 285 38.6 283.7 41.8 282 C 45.1 280.1 46.7 278.9 50.0 276 C 53.3 272.9 55.0 267 58.3 267 C 61.6 267 63.3 273 66.6 273 C 69.9 273 71.6 266.3 74.9 264 C 78.3 261.5 79.9 264 83.3 261 C 86.6 258 88.3 249 91.6 249 C 94.9 249 96.6 249 99.9 249 C 103.2 249 104.8 247.7 108.2 246 C 111.5 244.1 113.1 240 116.4 240 C 119.8 240 121.5 240 124.9 240 C 128.1 240 129.7 226.1 132.9 219 C 136.1 211.7 137.7 204 140.9 204 C 144.2 204 145.9 213 149.2 213 C 152.5 213 154.1 198 157.4 198 C 160.8 198 162.4 198 165.7 198 C 169.0 198 170.7 197.3 174.0 192 C 177.4 186.5 179.1 174 182.4 171 C 185.7 168 187.4 168 190.7 168 C 194.0 168 195.7 174 199.0 174 C 202.3 174 204.0 159 207.3 159 C 210.6 159 212.3 162 215.6 162 C 218.9 162 220.6 156.7 224.0 150 C 227.2 143.5 228.9 129 232.1 129 C 235.4 129 237.0 138 240.3 138 C 243.6 138 245.2 127.7 248.6 123 C 251.9 118.1 253.5 118.2 256.8 114 C 260.1 109.8 261.8 102 265.1 102 C 268.4 102 270.1 117 273.4 117 C 276.8 117 278.5 96 281.8 96 C 285.1 96 286.8 99 290.1 99 C 293.4 99 295.1 81 298.4 81 C 301.7 81 303.4 99.6 306.7 111 C 310.0 122.4 311.6 138 315.0 138 C 318.3 138 320.0 111.2 323.4 99 C 326.6 87.2 328.2 86.3 331.4 78 C 334.6 69.5 336.2 65.8 339.4 57 C 342.7 47.8 344.4 33 347.7 33 C 351.0 33 352.6 51 356.0 51 C 359.3 51 360.9 36 364.2 36 C 367.6 36 369.2 37.8 372.5 42 C 375.9 46.2 377.6 57 380.9 57 C 384.3 57 385.9 57 389.2 51 C 392.5 45 394.2 15 397.5 15 C 400.8 15 402.5 34.8 405.8 42 C 409.1 49.2 410.8 51 414.1 51 C 417.5 51 419.1 36 422.5 33 C 425.7 30 427.3 32.9 430.5 30 C 433.7 26.9 435.3 23.9 438.5 18 C 441.8 11.9 443.5 0 446.8 0 C 450.1 0 451.8 0 455.1 0 C 458.4 0 460.0 3 463.4 3 C 466.7 3 468.3 3 471.6 3 C 475.0 3 476.7 21 480.1 21 C 483.4 21 485.0 12 488.3 9 C 491.7 6 496.6 6 496.6 6 L 506.6 6" stroke-linejoin="round" visibility="visible" stroke="rgb(192,192,192)" stroke-opacity="0.0" stroke-width="22"  class=" highcharts-tracker" style=""></path></g><g class="highcharts-markers highcharts-tracker" visibility="visible"  transform="translate(10,47) scale(1 1)" clip-path="url(#highcharts-2)" style=""></g><g class="highcharts-series" visibility="visible"  transform="translate(10,47) scale(1 1)" clip-path="url(#highcharts-3)"><path fill="rgb(67,67,72)" fill-opacity="0.5" d="M 5.0 294 L 13.1 291 L 21.5 294 L 30.0 291 L 37.6 288 L 46.0 288 L 54.1 288 L 62.6 288 L 70.7 285 L 79.1 279 L 87.5 282 L 95.7 273 L 104.1 270 L 112.2 276 L 120.7 270 L 129.1 261 L 136.7 255 L 145.1 258 L 153.3 255 L 161.7 252 L 169.8 234 L 178.2 243 L 186.7 240 L 194.8 204 L 203.2 198 L 211.4 192 L 219.8 198 L 228.2 180 L 236.1 189 L 244.5 195 L 252.6 180 L 261.1 186 L 269.2 183 L 277.6 171 L 286.1 153 L 294.2 171 L 302.6 138 L 310.8 168 L 319.2 171 L 327.6 171 L 335.2 144 L 343.6 144 L 351.8 132 L 360.2 114 L 368.3 102 L 376.8 114 L 385.2 111 L 393.3 120 L 401.7 120 L 409.9 126 L 418.3 105 L 426.7 144 L 434.3 84 L 442.7 129 L 450.9 90 L 459.3 111 L 467.5 105 L 475.9 105 L 484.3 33 L 492.4 0 L 492.4 300 L 5.0 300" ></path><path fill="none" d="M 5.0 294 L 13.1 291 L 21.5 294 L 30.0 291 L 37.6 288 L 46.0 288 L 54.1 288 L 62.6 288 L 70.7 285 L 79.1 279 L 87.5 282 L 95.7 273 L 104.1 270 L 112.2 276 L 120.7 270 L 129.1 261 L 136.7 255 L 145.1 258 L 153.3 255 L 161.7 252 L 169.8 234 L 178.2 243 L 186.7 240 L 194.8 204 L 203.2 198 L 211.4 192 L 219.8 198 L 228.2 180 L 236.1 189 L 244.5 195 L 252.6 180 L 261.1 186 L 269.2 183 L 277.6 171 L 286.1 153 L 294.2 171 L 302.6 138 L 310.8 168 L 319.2 171 L 327.6 171 L 335.2 144 L 343.6 144 L 351.8 132 L 360.2 114 L 368.3 102 L 376.8 114 L 385.2 111 L 393.3 120 L 401.7 120 L 409.9 126 L 418.3 105 L 426.7 144 L 434.3 84 L 442.7 129 L 450.9 90 L 459.3 111 L 467.5 105 L 475.9 105 L 484.3 33 L 492.4 0" stroke="#434348" stroke-width="2"  stroke-linejoin="round" stroke-linecap="round"></path><path fill="none" d="M -4.9 294 L 5.0 294 L 13.1 291 L 21.5 294 L 30.0 291 L 37.6 288 L 46.0 288 L 54.1 288 L 62.6 288 L 70.7 285 L 79.1 279 L 87.5 282 L 95.7 273 L 104.1 270 L 112.2 276 L 120.7 270 L 129.1 261 L 136.7 255 L 145.1 258 L 153.3 255 L 161.7 252 L 169.8 234 L 178.2 243 L 186.7 240 L 194.8 204 L 203.2 198 L 211.4 192 L 219.8 198 L 228.2 180 L 236.1 189 L 244.5 195 L 252.6 180 L 261.1 186 L 269.2 183 L 277.6 171 L 286.1 153 L 294.2 171 L 302.6 138 L 310.8 168 L 319.2 171 L 327.6 171 L 335.2 144 L 343.6 144 L 351.8 132 L 360.2 114 L 368.3 102 L 376.8 114 L 385.2 111 L 393.3 120 L 401.7 120 L 409.9 126 L 418.3 105 L 426.7 144 L 434.3 84 L 442.7 129 L 450.9 90 L 459.3 111 L 467.5 105 L 475.9 105 L 484.3 33 L 492.4 0 L 502.4 0" stroke-linejoin="round" visibility="visible" stroke="rgb(192,192,192)" stroke-opacity="0.0" stroke-width="22"  class=" highcharts-tracker" style=""></path></g><g class="highcharts-markers highcharts-tracker" visibility="visible"  transform="translate(10,47) scale(1 1)" clip-path="url(#highcharts-2)" style=""></g><g class="highcharts-series" visibility="visible"  transform="translate(10,47) scale(1 1)" clip-path="url(#highcharts-3)"><path fill="rgb(144,237,125)" fill-opacity="0.5" d="M 5.0 288 L 109.3 288 109.3 276 L 145.1 276 145.1 264 L 178.2 264 178.2 252 L 182.0 252 182.0 240 L 261.1 240 261.1 228 L 286.1 228 286.1 240 L 289.9 240 289.9 228 L 319.2 228 319.2 216 L 376.8 216 376.8 204 L 381.9 204 381.9 192 L 393.3 192 393.3 180 L 492.4 180 492.4 168 L 507.9 168 507.9 168 L 507.9 300 L 5.0 300" ></path><path fill="none" d="M 5.0 288 L 109.3 288 109.3 276 L 145.1 276 145.1 264 L 178.2 264 178.2 252 L 182.0 252 182.0 240 L 261.1 240 261.1 228 L 286.1 228 286.1 240 L 289.9 240 289.9 228 L 319.2 228 319.2 216 L 376.8 216 376.8 204 L 381.9 204 381.9 192 L 393.3 192 393.3 180 L 492.4 180 492.4 168 L 507.9 168 507.9 168" stroke="#90ed7d" stroke-width="2"  stroke-linejoin="round" stroke-linecap="round"></path><path fill="none" d="M -4.9 288 L 5.0 288 L 109.3 288 109.3 276 L 145.1 276 145.1 264 L 178.2 264 178.2 252 L 182.0 252 182.0 240 L 261.1 240 261.1 228 L 286.1 228 286.1 240 L 289.9 240 289.9 228 L 319.2 228 319.2 216 L 376.8 216 376.8 204 L 381.9 204 381.9 192 L 393.3 192 393.3 180 L 492.4 180 492.4 168 L 507.9 168 507.9 168 L 517.9 168" stroke-linejoin="round" visibility="visible" stroke="rgb(192,192,192)" stroke-opacity="0.0" stroke-width="22"  class=" highcharts-tracker" style=""></path></g><g class="highcharts-markers highcharts-tracker" visibility="visible"  transform="translate(10,47) scale(1 1)" clip-path="url(#highcharts-2)" style=""></g><g class="highcharts-series" visibility="visible"  transform="translate(10,47) scale(1 1)" clip-path="url(#highcharts-1)"></g><g class="highcharts-markers highcharts-tracker" visibility="visible"  transform="translate(10,47) scale(1 1)" style=""><g style="text-align:center;" transform="translate(433,221)"><path fill="white" d="M -1 0 L 36 0 36 19 -1 19 Z M 18.9 19 L 18.9 79" stroke="#333333" stroke-width="1"></path><text x="1.5"  style="font-size:11px;font-weight:bold;" transform="translate(0,14)">Cloud</text></g></g><g class="highcharts-series" visibility="visible"  transform="translate(10,47) scale(1 1)" clip-path="url(#highcharts-1)"></g><g class="highcharts-markers highcharts-tracker" visibility="visible"  transform="translate(10,47) scale(1 1)" style=""><g style="text-align:center;" transform="translate(446,246)"><path fill="white" d="M -1 0 L 35 0 35 19 -1 19 Z M 17.6 19 L 17.6 54" stroke="#333333" stroke-width="1"></path><text x="1.5"  style="font-size:11px;font-weight:bold;" transform="translate(0,14)">Maps</text></g></g><g class="highcharts-series" visibility="visible"  transform="translate(10,47) scale(1 1)" clip-path="url(#highcharts-1)"></g><g class="highcharts-markers highcharts-tracker" visibility="visible"  transform="translate(10,47) scale(1 1)" style=""><g style="text-align:center;" transform="translate(438,271)"><path fill="white" d="M 10.5 0 C 25.8 0 25.8 19 10.5 19 C -4.8 19 -4.8 0 10.5 0 Z M 11.4 19 L 11.4 29" stroke="#333333" stroke-width="1"></path><text x="1.5"  style="font-size:11px;font-weight:bold;" transform="translate(0,14)">4.0</text></g><g style="text-align:center;" transform="translate(330,271)"><path fill="white" d="M 10.5 0 C 25.8 0 25.8 19 10.5 19 C -4.8 19 -4.8 0 10.5 0 Z M 11.9 19 L 11.9 29" stroke="#333333" stroke-width="1"></path><text x="1.5"  style="font-size:11px;font-weight:bold;" transform="translate(0,14)">3.0</text></g><g style="text-align:center;" transform="translate(273,271)"><path fill="white" d="M 10.5 0 C 25.8 0 25.8 19 10.5 19 C -4.8 19 -4.8 0 10.5 0 Z M 11.9 19 L 11.9 29" stroke="#333333" stroke-width="1"></path><text x="1.5"  style="font-size:11px;font-weight:bold;" transform="translate(0,14)">2.3</text></g><g style="text-align:center;" transform="translate(181,271)"><path fill="white" d="M -1 0 L 37 0 37 19 -1 19 Z M 19.4 19 L 19.4 29" stroke="#333333" stroke-width="1"></path><text x="1.5"  style="font-size:11px;font-weight:bold;" transform="translate(0,14)">Stock</text></g><g style="text-align:center;" transform="translate(100,271)"><path fill="white" d="M 10.5 0 C 25.8 0 25.8 19 10.5 19 C -4.8 19 -4.8 0 10.5 0 Z M 11.1 19 L 11.1 29" stroke="#333333" stroke-width="1"></path><text x="1.5"  style="font-size:11px;font-weight:bold;" transform="translate(0,14)">2.1</text></g><g style="text-align:center;" transform="translate(64,271)"><path fill="white" d="M 10.5 0 C 25.8 0 25.8 19 10.5 19 C -4.8 19 -4.8 0 10.5 0 Z M 11.0 19 L 11.0 29" stroke="#333333" stroke-width="1"></path><text x="1.5"  style="font-size:11px;font-weight:bold;" transform="translate(0,14)">2.0</text></g><g style="text-align:center;" transform="translate(2,271)"><path fill="white" d="M 10.5 0 C 25.8 0 25.8 19 10.5 19 C -4.8 19 -4.8 0 10.5 0 Z M 11.0 19 L 11.0 29" stroke="#333333" stroke-width="1"></path><text x="1.5"  style="font-size:11px;font-weight:bold;" transform="translate(0,14)">1.0</text></g></g><g class="highcharts-series" visibility="visible"  transform="translate(10,47) scale(1 1)" clip-path="url(#highcharts-1)"></g><g class="highcharts-markers highcharts-tracker" visibility="visible"  transform="translate(10,47) scale(1 1)" style=""><g style="text-align:center;" transform="translate(457,77)"><path fill="rgb(255,255,255)" fill-opacity="0.8" d="M 1.4 29.2 L 0 19 0 0 42 0 42 19 0 19 M 1.4 29.2 Z" stroke="#333333" stroke-width="1"></path><text x="3"  style="font-size:11px;font-weight:bold;" transform="translate(0,14)">Award</text></g><g style="text-align:center;" transform="translate(358,89)"><path fill="rgb(255,255,255)" fill-opacity="0.8" d="M 1.3 29.0 L 0 19 0 0 42 0 42 19 0 19 M 1.3 29.0 Z" stroke="#333333" stroke-width="1"></path><text x="3"  style="font-size:11px;font-weight:bold;" transform="translate(0,14)">Award</text></g><g style="text-align:center;" transform="translate(317,141)"><path fill="rgb(255,255,255)" fill-opacity="0.8" d="M 1.3 29.3 L 0 19 0 0 62 0 62 19 0 19 M 1.3 29.3 Z" stroke="#333333" stroke-width="1"></path><text x="3"  style="font-size:11px;font-weight:bold;" transform="translate(0,14)"><tspan>First book</tspan></text></g><g style="text-align:center;" transform="translate(302,109)"><path fill="rgb(255,255,255)" fill-opacity="0.8" d="M 1.6 29 L 0 19 0 0 42 0 42 19 0 19 M 1.6 29 Z" stroke="#333333" stroke-width="1"></path><text x="3"  style="font-size:11px;font-weight:bold;" transform="translate(0,14)">Award</text></g></g></g><text x="292" text-anchor="middle" class="highcharts-title"  style="color:#333333;font-size:18px;fill:#333333;width:520px;" y="24"><tspan>Highcharts and Highsoft timeline</tspan></text><path fill="rgb(73,130,185)" fill-opacity="1" d="M 50 140 L 230 140 230 160 50 160 z M 50 150 L 30 150 40 160 30 170 60 170 50 160 60 170 60 160 50 160 z M 230 150 L 250 150 240 160 250 170 220 170 230 160 220 170 220 160 230 160 z" stroke="#FFFFFF" stroke-width="1" ></path><path fill="rgb(73,130,185)" fill-opacity="1" d="M 210 110 L 219.3 120.4 L 207.6 128.1 L 213.9 140.6 L 200.6 145 L 203.4 158.7 L 189.4 159.4 L 188.7 173.4 L 175 170.6 L 170.6 183.9 L 158.1 177.6 L 150.4 189.3 L 140 180 L 129.5 189.3 L 121.8 177.6 L 109.3 183.9 L 104.9 170.6 L 91.2 173.4 L 90.5 159.4 L 76.5 158.7 L 79.3 145.0 L 66.0 140.6 L 72.3 128.1 L 60.6 120.4 L 70 110.0 L 60.6 99.5 L 72.3 91.8 L 66.0 79.3 L 79.3 75.0 L 76.5 61.2 L 90.5 60.5 L 91.2 46.5 L 104.9 49.3 L 109.3 36.0 L 121.8 42.3 L 129.5 30.6 L 139.9 40 L 150.4 30.6 L 158.1 42.3 L 170.6 36.0 L 174.9 49.3 L 188.7 46.5 L 189.4 60.5 L 203.4 61.2 L 200.6 74.9 L 213.9 79.3 L 207.6 91.8 L 219.3 99.5 L 210 109.9 z" ></path><text x="112.5"  style="color:white;font-size:100px;font-style:italic;font-family:'brush script mt', sans-serif;fill:white;" y="124">5</text><text x="78.5"  style="color:#ffffff;fill:#ffffff;" y="154"><tspan>Highcharts Anniversary</tspan></text><text x="118"  style="color:#ffffff;font-style:italic;font-size:10px;fill:#ffffff;" y="172">2009-2014</text><g class="highcharts-legend"  transform="translate(58,380)"><g ><g><g class="highcharts-legend-item"  transform="translate(8,3)"><path fill="none" d="M 0 11 L 16 11" stroke-dasharray="8,6" stroke="#7cb5ec" stroke-width="2"></path><text x="21" style="color:#333333;font-size:12px;font-weight:bold;cursor:pointer;fill:#333333;" text-anchor="start"  y="15"><tspan>Google search for </tspan><tspan style="font-style:italic" dx="0">highcharts</tspan></text></g><g class="highcharts-legend-item"  transform="translate(225,3)"><text x="21" y="15" style="color:#333333;font-size:12px;font-weight:bold;cursor:pointer;fill:#333333;" text-anchor="start" >Revenue</text><rect x="0" y="4" width="16" height="12"  fill="#434348"></rect></g><g class="highcharts-legend-item"  transform="translate(319,3)"><text x="21" y="15" style="color:#333333;font-size:12px;font-weight:bold;cursor:pointer;fill:#333333;" text-anchor="start" ><tspan>Highsoft employees</tspan></text><rect x="0" y="4" width="16" height="12"  fill="#90ed7d"></rect></g></g></g></g><g class="highcharts-axis-labels highcharts-xaxis-labels" ><text x="31.5" style="color:#606060;cursor:default;font-size:11px;fill:#606060;width:103px;text-overflow:clip;" text-anchor="start" transform="translate(0,0)" y="366" opacity="1">2010</text><text x="130.7" style="color:#606060;cursor:default;font-size:11px;fill:#606060;width:103px;text-overflow:clip;" text-anchor="start" transform="translate(0,0)" y="366" opacity="1">2011</text><text x="229.8" style="color:#606060;cursor:default;font-size:11px;fill:#606060;width:103px;text-overflow:clip;" text-anchor="start" transform="translate(0,0)" y="366" opacity="1">2012</text><text x="329.2" style="color:#606060;cursor:default;font-size:11px;fill:#606060;width:103px;text-overflow:clip;" text-anchor="start" transform="translate(0,0)" y="366" opacity="1">2013</text><text x="428.3" style="color:#606060;cursor:default;font-size:11px;fill:#606060;width:103px;text-overflow:clip;" text-anchor="start" transform="translate(0,0)" y="366" opacity="1">2014</text></g><g class="highcharts-axis-labels highcharts-yaxis-labels" ></g><g class="highcharts-axis-labels highcharts-yaxis-labels" ><text x="538" style="color:#90ed7d;cursor:default;font-size:11px;fill:#90ed7d;width:183px;text-overflow:clip;" text-anchor="start" transform="translate(0,0)" y="352" opacity="1">0</text><text x="538" style="color:#90ed7d;cursor:default;font-size:11px;fill:#90ed7d;width:183px;text-overflow:clip;" text-anchor="start" transform="translate(0,0)" y="292" opacity="1">5</text><text x="538" style="color:#90ed7d;cursor:default;font-size:11px;fill:#90ed7d;width:183px;text-overflow:clip;" text-anchor="start" transform="translate(0,0)" y="232" opacity="1">10</text><text x="538" style="color:#90ed7d;cursor:default;font-size:11px;fill:#90ed7d;width:183px;text-overflow:clip;" text-anchor="start" transform="translate(0,0)" y="172" opacity="1">15</text><text x="538" style="color:#90ed7d;cursor:default;font-size:11px;fill:#90ed7d;width:183px;text-overflow:clip;" text-anchor="start" transform="translate(0,0)" y="112" opacity="1">20</text><text x="538" style="color:#90ed7d;cursor:default;font-size:11px;fill:#90ed7d;width:183px;text-overflow:clip;" text-anchor="start" transform="translate(0,0)" y="52" opacity="1">25</text></g><path fill="none" d="M 210 110 L 219.3 120.4 L 207.6 128.1 L 213.9 140.6 L 200.6 145 L 203.4 158.7 L 189.4 159.4 L 188.7 173.4 L 175 170.6 L 170.6 183.9 L 158.1 177.6 L 150.4 189.3 L 140 180 L 129.5 189.3 L 121.8 177.6 L 109.3 183.9 L 104.9 170.6 L 91.2 173.4 L 90.5 159.4 L 76.5 158.7 L 79.3 145.0 L 66.0 140.6 L 72.3 128.1 L 60.6 120.4 L 70 110.0 L 60.6 99.5 L 72.3 91.8 L 66.0 79.3 L 79.3 75.0 L 76.5 61.2 L 90.5 60.5 L 91.2 46.5 L 104.9 49.3 L 109.3 36.0 L 121.8 42.3 L 129.5 30.6 L 139.9 40 L 150.4 30.6 L 158.1 42.3 L 170.6 36.0 L 174.9 49.3 L 188.7 46.5 L 189.4 60.5 L 203.4 61.2 L 200.6 74.9 L 213.9 79.3 L 207.6 91.8 L 219.3 99.5 L 210 109.9 z"  opacity="0" stroke="rgb(73,130,185)" stroke-opacity="1" stroke-width="1"></path><g class="highcharts-tooltip"  style="cursor:default;padding:0;white-space:nowrap;" transform="translate(0,-9999)"><path fill="none" d="M 3 0 L 13 0 C 16 0 16 0 16 3 L 16 13 C 16 16 16 16 13 16 L 3 16 C 0 16 0 16 0 13 L 0 3 C 0 0 0 0 3 0"  stroke="black" stroke-opacity="0.0" stroke-width="5" transform="translate(1, 1)"></path><path fill="none" d="M 3 0 L 13 0 C 16 0 16 0 16 3 L 16 13 C 16 16 16 16 13 16 L 3 16 C 0 16 0 16 0 13 L 0 3 C 0 0 0 0 3 0"  stroke="black" stroke-opacity="0.0" stroke-width="3" transform="translate(1, 1)"></path><path fill="none" d="M 3 0 L 13 0 C 16 0 16 0 16 3 L 16 13 C 16 16 16 16 13 16 L 3 16 C 0 16 0 16 0 13 L 0 3 C 0 0 0 0 3 0"  stroke="black" stroke-opacity="0.1" stroke-width="1" transform="translate(1, 1)"></path><path fill="rgb(249, 249, 249)" fill-opacity=" .85" d="M 3 0 L 13 0 C 16 0 16 0 16 3 L 16 13 C 16 16 16 16 13 16 L 3 16 C 0 16 0 16 0 13 L 0 3 C 0 0 0 0 3 0"></path><text x="8"  style="font-size:12px;color:#333333;width:250px;fill:#333333;" transform="translate(0,20)"></text></g></svg>