<svg version="1.1" style="font-family:&quot;lucida grande&quot;, &quot;lucida sans unicode&quot;, arial, helvetica, sans-serif;font-size:12px;position:absolute;" xmlns="http://www.w3.org/2000/svg" width="584" height="400" viewBox="0 0 584 400"><desc>Created with Highcharts 4.1.4</desc><defs><clipPath id="highcharts-6"><rect x="0" y="0" width="514" height="219"></rect></clipPath><clipPath id="highcharts-7"><rect x="-99" y="-61" width="613" height="400"></rect></clipPath><clipPath id="highcharts-8"><rect x="0" y="0" width="514" height="219"></rect></clipPath></defs><rect x="0" y="0" width="584" height="400" strokeWidth="0" fill="#FFFFFF" class=" highcharts-background"></rect><g class="highcharts-grid" ></g><g class="highcharts-grid" ><path fill="none" d="M 50 280.5 L 564 280.5" stroke="#D8D8D8" stroke-width="1"  opacity="1"></path><path fill="none" d="M 50 236.5 L 564 236.5" stroke="#D8D8D8" stroke-width="1"  opacity="1"></path><path fill="none" d="M 50 192.5 L 564 192.5" stroke="#D8D8D8" stroke-width="1"  opacity="1"></path><path fill="none" d="M 50 149.5 L 564 149.5" stroke="#D8D8D8" stroke-width="1"  opacity="1"></path><path fill="none" d="M 50 105.5 L 564 105.5" stroke="#D8D8D8" stroke-width="1"  opacity="1"></path><path fill="none" d="M 50 60.5 L 564 60.5" stroke="#D8D8D8" stroke-width="1"  opacity="1"></path></g><g class="highcharts-axis" ><path fill="none" d="M 54.5 280 L 54.5 290" stroke="#C0D0E0" stroke-width="1" opacity="1"></path><path fill="none" d="M 157.5 280 L 157.5 290" stroke="#C0D0E0" stroke-width="1" opacity="1"></path><path fill="none" d="M 256.5 280 L 256.5 290" stroke="#C0D0E0" stroke-width="1" opacity="1"></path><path fill="none" d="M 359.5 280 L 359.5 290" stroke="#C0D0E0" stroke-width="1" opacity="1"></path><path fill="none" d="M 459.5 280 L 459.5 290" stroke="#C0D0E0" stroke-width="1" opacity="1"></path><path fill="none" d="M 561.5 280 L 561.5 290" stroke="#C0D0E0" stroke-width="1" opacity="1"></path><path fill="none" d="M 50 280.5 L 564 280.5" stroke="#C0D0E0" stroke-width="1"  visibility="visible"></path></g><g class="highcharts-axis" ></g><g class="highcharts-series-group" ><g class="highcharts-series" visibility="visible"  transform="translate(50,61) scale(1 1)" clip-path="url(#highcharts-8)"><path fill="none" d="M 5.0 182.9 L 8.3 180.8 L 11.6 181.5 L 14.9 181.5 L 18.3 182.2 L 21.6 179.9 L 24.9 178.0 L 28.2 176.3 L 31.5 166.9 L 34.8 160.6 L 38.1 160.6 L 41.5 159.6 L 44.8 156.6 L 48.1 157.2 L 51.4 156.1 L 54.7 150.3 L 58.0 147.9 L 61.3 147.9 L 64.7 149.4 L 68.0 148.5 L 71.3 150.5 L 74.6 152.7 L 77.9 154.6 L 81.2 152.1 L 84.6 152.2 L 87.9 150.9 L 91.2 147.6 L 94.5 148.7 L 97.8 150.6 L 101.1 149.2 L 104.4 147.4 L 107.8 147.4 L 111.1 146.1 L 114.4 142.1 L 117.7 139.1 L 121.0 138.9 L 124.3 130.6 L 127.7 130.3 L 131.0 130.5 L 134.3 130.9 L 137.6 124.7 L 140.9 123.7 L 144.2 116.5 L 147.5 122.2 L 150.9 128.6 L 154.2 128.8 L 157.5 130.8 L 160.8 128.3 L 164.1 127.4 L 167.4 135.2 L 170.8 132.4 L 174.1 138.8 L 177.4 138.9 L 180.7 143.7 L 184.0 150.8 L 187.3 147.6 L 190.6 147.6 L 194.0 145.1 L 197.3 144.8 L 200.6 144.8 L 203.9 138.1 L 207.2 131.6 L 210.5 122.8 L 213.9 114.9 L 217.2 111.0 L 220.5 108.4 L 223.8 108.0 L 227.1 99.9 L 230.4 99.1 L 233.7 101.8 L 237.1 103.6 L 240.4 97.4 L 243.7 90.4 L 247.0 91.0 L 250.3 99.3 L 253.6 103.4 L 257 99.7 L 260.3 93.1 L 263.6 93.5 L 266.9 91.0 L 270.2 91.0 L 273.5 91.6 L 276.8 83.3 L 280.2 66.4 L 283.5 61.2 L 286.8 52.2 L 290.1 54.6 L 293.4 50.1 L 296.7 44.5 L 300.0 43.1 L 303.4 59.3 L 306.7 73.4 L 310.0 56.9 L 313.3 55.8 L 316.6 55.8 L 319.9 59.4 L 323.3 56.2 L 326.6 67.3 L 329.9 63.1 L 333.2 57.4 L 336.5 55.5 L 339.8 55.7 L 343.1 62.3 L 346.5 54.7 L 349.8 46.3 L 353.1 43.4 L 356.4 56.3 L 359.7 49.7 L 363.0 49.2 L 366.4 50.1 L 369.7 50.9 L 373.0 50.8 L 376.3 44.7 L 379.6 44.8 L 382.9 48.2 L 386.2 48.3 L 389.6 54.1 L 392.9 66.1 L 396.2 69.2 L 399.5 65.6 L 402.8 62.1 L 406.1 54.1 L 409.5 54.1 L 412.8 52.6 L 416.1 52.1 L 419.4 53.5 L 422.7 54.3 L 426.0 56.5 L 429.3 55.5 L 432.7 55.6 L 436.0 61.7 L 439.3 64.9 L 442.6 68.5 L 445.9 77.9 L 449.2 87.8 L 452.6 90.1 L 455.9 89.9 L 459.2 95.7 L 462.5 106.1 L 465.8 124.9 L 469.1 137.7 L 472.4 124.1 L 475.8 114.6 L 479.1 114.7 L 482.4 117.9 L 485.7 117.7 L 489.0 117.5 L 492.3 119.1 L 495.6 120.9 L 499.0 120.0 L 502.3 120.0 L 505.6 127.1 L 508.9 123.0" stroke="#7cb5ec" stroke-width="2"  stroke-linejoin="round" stroke-linecap="round"></path><path fill="none" d="M -4.9 182.9 L 5.0 182.9 L 8.3 180.8 L 11.6 181.5 L 14.9 181.5 L 18.3 182.2 L 21.6 179.9 L 24.9 178.0 L 28.2 176.3 L 31.5 166.9 L 34.8 160.6 L 38.1 160.6 L 41.5 159.6 L 44.8 156.6 L 48.1 157.2 L 51.4 156.1 L 54.7 150.3 L 58.0 147.9 L 61.3 147.9 L 64.7 149.4 L 68.0 148.5 L 71.3 150.5 L 74.6 152.7 L 77.9 154.6 L 81.2 152.1 L 84.6 152.2 L 87.9 150.9 L 91.2 147.6 L 94.5 148.7 L 97.8 150.6 L 101.1 149.2 L 104.4 147.4 L 107.8 147.4 L 111.1 146.1 L 114.4 142.1 L 117.7 139.1 L 121.0 138.9 L 124.3 130.6 L 127.7 130.3 L 131.0 130.5 L 134.3 130.9 L 137.6 124.7 L 140.9 123.7 L 144.2 116.5 L 147.5 122.2 L 150.9 128.6 L 154.2 128.8 L 157.5 130.8 L 160.8 128.3 L 164.1 127.4 L 167.4 135.2 L 170.8 132.4 L 174.1 138.8 L 177.4 138.9 L 180.7 143.7 L 184.0 150.8 L 187.3 147.6 L 190.6 147.6 L 194.0 145.1 L 197.3 144.8 L 200.6 144.8 L 203.9 138.1 L 207.2 131.6 L 210.5 122.8 L 213.9 114.9 L 217.2 111.0 L 220.5 108.4 L 223.8 108.0 L 227.1 99.9 L 230.4 99.1 L 233.7 101.8 L 237.1 103.6 L 240.4 97.4 L 243.7 90.4 L 247.0 91.0 L 250.3 99.3 L 253.6 103.4 L 257 99.7 L 260.3 93.1 L 263.6 93.5 L 266.9 91.0 L 270.2 91.0 L 273.5 91.6 L 276.8 83.3 L 280.2 66.4 L 283.5 61.2 L 286.8 52.2 L 290.1 54.6 L 293.4 50.1 L 296.7 44.5 L 300.0 43.1 L 303.4 59.3 L 306.7 73.4 L 310.0 56.9 L 313.3 55.8 L 316.6 55.8 L 319.9 59.4 L 323.3 56.2 L 326.6 67.3 L 329.9 63.1 L 333.2 57.4 L 336.5 55.5 L 339.8 55.7 L 343.1 62.3 L 346.5 54.7 L 349.8 46.3 L 353.1 43.4 L 356.4 56.3 L 359.7 49.7 L 363.0 49.2 L 366.4 50.1 L 369.7 50.9 L 373.0 50.8 L 376.3 44.7 L 379.6 44.8 L 382.9 48.2 L 386.2 48.3 L 389.6 54.1 L 392.9 66.1 L 396.2 69.2 L 399.5 65.6 L 402.8 62.1 L 406.1 54.1 L 409.5 54.1 L 412.8 52.6 L 416.1 52.1 L 419.4 53.5 L 422.7 54.3 L 426.0 56.5 L 429.3 55.5 L 432.7 55.6 L 436.0 61.7 L 439.3 64.9 L 442.6 68.5 L 445.9 77.9 L 449.2 87.8 L 452.6 90.1 L 455.9 89.9 L 459.2 95.7 L 462.5 106.1 L 465.8 124.9 L 469.1 137.7 L 472.4 124.1 L 475.8 114.6 L 479.1 114.7 L 482.4 117.9 L 485.7 117.7 L 489.0 117.5 L 492.3 119.1 L 495.6 120.9 L 499.0 120.0 L 502.3 120.0 L 505.6 127.1 L 508.9 123.0 L 518.9 123.0" stroke-linejoin="round" visibility="visible" stroke="rgb(192,192,192)" stroke-opacity="0.0" stroke-width="22"  class=" highcharts-tracker" style=""></path></g><g class="highcharts-markers highcharts-tracker" visibility="visible"  transform="translate(50,61) scale(1 1)" clip-path="url(#highcharts-7)" style=""></g></g><text x="292" text-anchor="middle" class="highcharts-title"  style="color:#333333;font-size:18px;fill:#333333;width:520px;" y="24"><tspan>Historical USD to EUR Exchange Rate</tspan></text><text x="292" text-anchor="middle" class="highcharts-subtitle"  style="color:#555555;fill:#555555;width:520px;" y="46"><tspan>Select an area by dragging across the lower chart</tspan></text><g class="highcharts-axis-labels highcharts-xaxis-labels" ><text x="55.0" style="color:#606060;cursor:default;font-size:11px;fill:#606060;width:76px;text-overflow:clip;" text-anchor="middle" transform="translate(0,0)" y="299" opacity="1"><tspan>Aug '08</tspan></text><text x="157.8" style="color:#606060;cursor:default;font-size:11px;fill:#606060;width:76px;text-overflow:clip;" text-anchor="middle" transform="translate(0,0)" y="299" opacity="1"><tspan>Sep '08</tspan></text><text x="257.2" style="color:#606060;cursor:default;font-size:11px;fill:#606060;width:76px;text-overflow:clip;" text-anchor="middle" transform="translate(0,0)" y="299" opacity="1"><tspan>Oct '08</tspan></text><text x="360.0" style="color:#606060;cursor:default;font-size:11px;fill:#606060;width:76px;text-overflow:clip;" text-anchor="middle" transform="translate(0,0)" y="299" opacity="1"><tspan>Nov '08</tspan></text><text x="459.5" style="color:#606060;cursor:default;font-size:11px;fill:#606060;width:76px;text-overflow:clip;" text-anchor="middle" transform="translate(0,0)" y="299" opacity="1"><tspan>Dec '08</tspan></text><text x="574" style="color:#606060;cursor:default;font-size:11px;fill:#606060;width:76px;text-overflow:clip;" text-anchor="end" transform="translate(0,0)" y="299" opacity="1"><tspan>Jan '09</tspan></text></g><g class="highcharts-axis-labels highcharts-yaxis-labels" ><text x="35" style="color:#606060;cursor:default;font-size:11px;fill:#606060;width:30px;text-overflow:clip;" text-anchor="end" transform="translate(0,0)" y="285" opacity="1">0.6</text><text x="35" style="color:#606060;cursor:default;font-size:11px;fill:#606060;width:30px;text-overflow:clip;" text-anchor="end" transform="translate(0,0)" y="241" opacity="1">0.6</text><text x="35" style="color:#606060;cursor:default;font-size:11px;fill:#606060;width:30px;text-overflow:clip;" text-anchor="end" transform="translate(0,0)" y="197" opacity="1">0.7</text><text x="35" style="color:#606060;cursor:default;font-size:11px;fill:#606060;width:30px;text-overflow:clip;" text-anchor="end" transform="translate(0,0)" y="153" opacity="1">0.7</text><text x="35" style="color:#606060;cursor:default;font-size:11px;fill:#606060;width:30px;text-overflow:clip;" text-anchor="end" transform="translate(0,0)" y="109" opacity="1">0.8</text><text x="35" style="color:#606060;cursor:default;font-size:11px;fill:#606060;width:30px;text-overflow:clip;" text-anchor="end" transform="translate(0,0)" y="66" opacity="1">0.8</text></g><g class="highcharts-tooltip"  style="cursor:default;padding:0;white-space:nowrap;" transform="translate(0,-9999)"><path fill="none" d="M 3 0 L 13 0 C 16 0 16 0 16 3 L 16 13 C 16 16 16 16 13 16 L 3 16 C 0 16 0 16 0 13 L 0 3 C 0 0 0 0 3 0"  stroke="black" stroke-opacity="0.0" stroke-width="5" transform="translate(1, 1)"></path><path fill="none" d="M 3 0 L 13 0 C 16 0 16 0 16 3 L 16 13 C 16 16 16 16 13 16 L 3 16 C 0 16 0 16 0 13 L 0 3 C 0 0 0 0 3 0"  stroke="black" stroke-opacity="0.0" stroke-width="3" transform="translate(1, 1)"></path><path fill="none" d="M 3 0 L 13 0 C 16 0 16 0 16 3 L 16 13 C 16 16 16 16 13 16 L 3 16 C 0 16 0 16 0 13 L 0 3 C 0 0 0 0 3 0"  stroke="black" stroke-opacity="0.1" stroke-width="1" transform="translate(1, 1)"></path><path fill="rgb(249, 249, 249)" fill-opacity=" .85" d="M 3 0 L 13 0 C 16 0 16 0 16 3 L 16 13 C 16 16 16 16 13 16 L 3 16 C 0 16 0 16 0 13 L 0 3 C 0 0 0 0 3 0"></path><text x="8"  style="font-size:12px;color:#333333;fill:#333333;" transform="translate(0,20)"></text></g></svg>