<svg version="1.1" style="font-family:&quot;lucida grande&quot;, &quot;lucida sans unicode&quot;, arial, helvetica, sans-serif;font-size:12px;" xmlns="http://www.w3.org/2000/svg" width="584" height="400" viewBox="0 0 584 400"><desc>Created with Highcharts 4.1.4</desc><defs><clipPath id="highcharts-1"><rect x="0" y="0" width="474" height="338"></rect></clipPath></defs><rect x="0" y="0" width="584" height="400" strokeWidth="0" fill="#FFFFFF" class=" highcharts-background" stroke="transparent"></rect><g class="highcharts-series-group" ><g class="highcharts-series highcharts-tracker" visibility="visible"  transform="translate(10,47) scale(1 1)" style=""><path fill="#7cb5ec" d="M 23.6 0 L 450.3 0 324.1 224.8 149.8 224.8 Z" stroke="#FFFFFF" stroke-width="1"></path><path fill="#434348" d="M 149.8 224.8 L 324.1 224.8 308.1 253.5 308.1 283.2 165.9 283.2 165.9 253.5 Z" stroke="#FFFFFF" stroke-width="1"></path><path fill="#90ed7d" d="M 165.9 283.2 L 308.1 283.2 308.1 311.8 165.9 311.8 Z" stroke="#FFFFFF" stroke-width="1"></path><path fill="#f7a35c" d="M 165.9 311.8 L 308.1 311.8 308.1 325.8 165.9 325.8 Z" stroke="#FFFFFF" stroke-width="1"></path><path fill="#8085e9" d="M 165.9 325.8 L 308.1 325.8 308.1 338 165.9 338 Z" stroke="#FFFFFF" stroke-width="1"></path></g><g class="highcharts-markers" visibility="visible"  transform="translate(10,47) scale(1 1)"></g></g><text x="242" text-anchor="middle" class="highcharts-title"  style="color:#333333;font-size:18px;fill:#333333;width:520px;" y="24"><tspan>Sales funnel</tspan></text><g class="highcharts-data-labels highcharts-tracker" visibility="visible"  transform="translate(10,47) scale(1 1)" style=""><path fill="none" d="M 422.2 112.4 C 417.2 112.4 397.2 112.4 392.2 112.4 L 387.2 112.4" stroke="#606060" stroke-width="1" visibility="visible"></path><path fill="none" d="M 343.3 253 C 338.3 253 318.1 254.0 313.1 254.0 L 308.1 254.0" stroke="#606060" stroke-width="1" visibility="visible"></path><path fill="none" d="M 343.1 276 C 338.1 276 318.1 297.5 313.1 297.5 L 308.1 297.5" stroke="#606060" stroke-width="1" visibility="visible"></path><path fill="none" d="M 343.1 299 C 338.1 299 318.1 318.8 313.1 318.8 L 308.1 318.8" stroke="#606060" stroke-width="1" visibility="visible"></path><path fill="none" d="M 343.1 331.9 C 338.1 331.9 318.1 331.9 313.1 331.9 L 308.1 331.9" stroke="#606060" stroke-width="1" visibility="visible"></path><g  style="" transform="translate(427,102)" visibility="visible"><text x="5"  style="font-size: 11px; font-weight: bold; color: black; fill: #000000; text-shadow: rgb(255, 255, 255) 0px 0px 6px, rgb(255, 255, 255) 0px 0px 3px; " transform="translate(0,16)"><tspan style="font-weight:bold">Website visits</tspan><tspan dx="0"> (15 654)</tspan></text></g><g  style="" transform="translate(348,243)" visibility="visible"><text x="5"  style="font-size: 11px; font-weight: bold; color: black; fill: #000000; text-shadow: rgb(255, 255, 255) 0px 0px 6px, rgb(255, 255, 255) 0px 0px 3px; " transform="translate(0,16)"><tspan style="font-weight:bold">Downloads</tspan><tspan dx="0"> (4 064)</tspan></text></g><g  style="" transform="translate(348,266)" visibility="visible"><text x="5"  style="font-size: 11px; font-weight: bold; color: black; fill: #000000; text-shadow: rgb(255, 255, 255) 0px 0px 6px, rgb(255, 255, 255) 0px 0px 3px; " transform="translate(0,16)"><tspan style="font-weight:bold">Requested price list</tspan><tspan dx="0"> (1 987)</tspan></text></g><g  style="" transform="translate(348,289)" visibility="visible"><text x="5"  style="font-size: 11px; font-weight: bold; color: black; fill: #000000; text-shadow: rgb(255, 255, 255) 0px 0px 6px, rgb(255, 255, 255) 0px 0px 3px; " transform="translate(0,16)"><tspan style="font-weight:bold">Invoice sent</tspan><tspan dx="0"> (976)</tspan></text></g><g  style="" transform="translate(348,322)" visibility="visible"><text x="5"  style="font-size: 11px; font-weight: bold; color: black; fill: #000000; text-shadow: rgb(255, 255, 255) 0px 0px 6px, rgb(255, 255, 255) 0px 0px 3px; " transform="translate(0,16)"><tspan style="font-weight:bold">Finalized</tspan><tspan dx="0"> (846)</tspan></text></g></g><g class="highcharts-tooltip"  style="cursor:default;padding:0;white-space:nowrap;" transform="translate(0,-9999)"><path fill="none" d="M 3 0 L 13 0 C 16 0 16 0 16 3 L 16 13 C 16 16 16 16 13 16 L 3 16 C 0 16 0 16 0 13 L 0 3 C 0 0 0 0 3 0"  stroke="black" stroke-opacity="0.0" stroke-width="5" transform="translate(1, 1)"></path><path fill="none" d="M 3 0 L 13 0 C 16 0 16 0 16 3 L 16 13 C 16 16 16 16 13 16 L 3 16 C 0 16 0 16 0 13 L 0 3 C 0 0 0 0 3 0"  stroke="black" stroke-opacity="0.0" stroke-width="3" transform="translate(1, 1)"></path><path fill="none" d="M 3 0 L 13 0 C 16 0 16 0 16 3 L 16 13 C 16 16 16 16 13 16 L 3 16 C 0 16 0 16 0 13 L 0 3 C 0 0 0 0 3 0"  stroke="black" stroke-opacity="0.1" stroke-width="1" transform="translate(1, 1)"></path><path fill="rgb(249, 249, 249)" fill-opacity=" .85" d="M 3 0 L 13 0 C 16 0 16 0 16 3 L 16 13 C 16 16 16 16 13 16 L 3 16 C 0 16 0 16 0 13 L 0 3 C 0 0 0 0 3 0"></path><text x="8"  style="font-size:12px;color:#333333;fill:#333333;" transform="translate(0,20)"></text></g></svg>