<svg version="1.1" style="font-family:&quot;lucida grande&quot;, &quot;lucida sans unicode&quot;, arial, helvetica, sans-serif;font-size:12px;" xmlns="http://www.w3.org/2000/svg" width="400" height="300" viewBox="0 0 400 300"><desc>Created with Highcharts 4.1.4</desc><defs><clipPath id="highcharts-1"><rect x="1" y="0" width="379" height="238"></rect></clipPath><linearGradient x1="0" y1="0" x2="0" y2="1" id="highcharts-2"><stop offset="0" stop-color="#FFF" stop-opacity="1"></stop><stop offset="1" stop-color="#DDD" stop-opacity="1"></stop></linearGradient><linearGradient x1="0" y1="0" x2="0" y2="1" id="highcharts-3"><stop offset="0" stop-color="#DDD" stop-opacity="1"></stop><stop offset="1" stop-color="#FFF" stop-opacity="1"></stop></linearGradient></defs><rect x="0" y="0" width="400" height="300" strokeWidth="0" fill="#FFFFFF" class=" highcharts-background" stroke="transparent"></rect><path fill="url(#highcharts-2)" d="M 200 59.7 A 106.2 106.2 0 1 1 199.8 59.7 M 200 166 A 0 0 0 1 0 200 166 " stroke="silver" stroke-width="1"></path><g class="highcharts-grid" ></g><g class="highcharts-grid" ></g><g class="highcharts-axis" ><path fill="none" d="M 161.9 231.9 L 164.4 227.6" stroke="#339" stroke-width="1" opacity="1"></path><path fill="none" d="M 146.1 219.8 L 149.6 216.3" stroke="#339" stroke-width="1" opacity="1"></path><path fill="none" d="M 134.0 204.0 L 138.3 201.5" stroke="#339" stroke-width="1" opacity="1"></path><path fill="none" d="M 126.4 185.7 L 131.2 184.4" stroke="#339" stroke-width="1" opacity="1"></path><path fill="none" d="M 123.8 166 L 128.8 166" stroke="#339" stroke-width="1" opacity="1"></path><path fill="none" d="M 126.4 146.2 L 131.2 147.5" stroke="#339" stroke-width="1" opacity="1"></path><path fill="none" d="M 134.0 127.9 L 138.3 130.4" stroke="#339" stroke-width="1" opacity="1"></path><path fill="none" d="M 146.1 112.1 L 149.6 115.6" stroke="#339" stroke-width="1" opacity="1"></path><path fill="none" d="M 161.9 100.0 L 164.4 104.3" stroke="#339" stroke-width="1" opacity="1"></path><path fill="none" d="M 180.2 92.4 L 181.5 97.2" stroke="#339" stroke-width="1" opacity="1"></path><path fill="none" d="M 200 89.8 L 200 94.8" stroke="#339" stroke-width="1" opacity="1"></path><path fill="none" d="M 219.7 92.4 L 218.4 97.2" stroke="#339" stroke-width="1" opacity="1"></path><path fill="none" d="M 238.0 100.0 L 235.5 104.3" stroke="#339" stroke-width="1" opacity="1"></path><path fill="none" d="M 253.8 112.1 L 250.3 115.6" stroke="#339" stroke-width="1" opacity="1"></path><path fill="none" d="M 265.9 127.9 L 261.6 130.4" stroke="#339" stroke-width="1" opacity="1"></path><path fill="none" d="M 273.5 146.2 L 268.7 147.5" stroke="#339" stroke-width="1" opacity="1"></path><path fill="none" d="M 276.1 165.9 L 271.1 165.9" stroke="#339" stroke-width="1" opacity="1"></path><path fill="none" d="M 273.5 185.7 L 268.7 184.4" stroke="#339" stroke-width="1" opacity="1"></path><path fill="none" d="M 265.9 204.0 L 261.6 201.5" stroke="#339" stroke-width="1" opacity="1"></path><path fill="none" d="M 253.8 219.8 L 250.3 216.3" stroke="#339" stroke-width="1" opacity="1"></path><path fill="none" d="M 238.0 231.9 L 235.5 227.6" stroke="#339" stroke-width="1" opacity="1"></path><path fill="none" d="M 161.9 231.9 L 164.4 227.6" stroke="#339" stroke-width="2" opacity="1"></path><path fill="none" d="M 126.4 146.2 L 131.2 147.5" stroke="#339" stroke-width="2" opacity="1"></path><path fill="none" d="M 200 89.8 L 200 94.8" stroke="#339" stroke-width="2" opacity="1"></path><path fill="none" d="M 273.5 146.2 L 268.7 147.5" stroke="#339" stroke-width="2" opacity="1"></path><path fill="none" d="M 238.0 231.9 L 235.5 227.6" stroke="#339" stroke-width="2" opacity="1"></path><path fill="none" d="M 161.9 231.9 A 76.1 76.1 0 1 1 238.1 231.9 M 200 166 A 0 0 0 1 0 200 166 " stroke="#339" stroke-width="2"  visibility="visible"></path></g><g class="highcharts-axis" ><path fill="none" d="M 159.4 236.2 L 156.9 240.6" stroke="#933" stroke-width="1" opacity="1"></path><path fill="none" d="M 145.5 226.2 L 142.2 229.9" stroke="#933" stroke-width="1" opacity="1"></path><path fill="none" d="M 134.1 213.4 L 130.1 216.4" stroke="#933" stroke-width="1" opacity="1"></path><path fill="none" d="M 125.6 198.6 L 121.1 200.6" stroke="#933" stroke-width="1" opacity="1"></path><path fill="none" d="M 120.5 182.3 L 115.6 183.3" stroke="#933" stroke-width="1" opacity="1"></path><path fill="none" d="M 118.8 165.3 L 113.8 165.2" stroke="#933" stroke-width="1" opacity="1"></path><path fill="none" d="M 120.7 148.3 L 115.9 147.2" stroke="#933" stroke-width="1" opacity="1"></path><path fill="none" d="M 126.2 132.1 L 121.7 130.0" stroke="#933" stroke-width="1" opacity="1"></path><path fill="none" d="M 134.9 117.4 L 130.9 114.4" stroke="#933" stroke-width="1" opacity="1"></path><path fill="none" d="M 146.6 104.8 L 143.3 101.1" stroke="#933" stroke-width="1" opacity="1"></path><path fill="none" d="M 160.6 95.0 L 158.1 90.6" stroke="#933" stroke-width="1" opacity="1"></path><path fill="none" d="M 176.3 88.3 L 174.9 83.5" stroke="#933" stroke-width="1" opacity="1"></path><path fill="none" d="M 193.1 85.1 L 192.7 80.1" stroke="#933" stroke-width="1" opacity="1"></path><path fill="none" d="M 210.2 85.5 L 210.8 80.5" stroke="#933" stroke-width="1" opacity="1"></path><path fill="none" d="M 226.8 89.4 L 228.5 84.7" stroke="#933" stroke-width="1" opacity="1"></path><path fill="none" d="M 242.3 96.7 L 244.9 92.5" stroke="#933" stroke-width="1" opacity="1"></path><path fill="none" d="M 255.9 107.1 L 259.3 103.5" stroke="#933" stroke-width="1" opacity="1"></path><path fill="none" d="M 266.9 120.2 L 271.1 117.3" stroke="#933" stroke-width="1" opacity="1"></path><path fill="none" d="M 275.1 135.2 L 279.7 133.3" stroke="#933" stroke-width="1" opacity="1"></path><path fill="none" d="M 279.8 151.6 L 284.7 150.8" stroke="#933" stroke-width="1" opacity="1"></path><path fill="none" d="M 281.1 168.7 L 286.1 168.9" stroke="#933" stroke-width="1" opacity="1"></path><path fill="none" d="M 278.7 185.6 L 283.5 186.8" stroke="#933" stroke-width="1" opacity="1"></path><path fill="none" d="M 272.8 201.7 L 277.3 203.9" stroke="#933" stroke-width="1" opacity="1"></path><path fill="none" d="M 263.7 216.2 L 267.6 219.3" stroke="#933" stroke-width="1" opacity="1"></path><path fill="none" d="M 251.8 228.4 L 255.0 232.3" stroke="#933" stroke-width="1" opacity="1"></path><path fill="none" d="M 159.4 236.2 L 156.9 240.6" stroke="#933" stroke-width="2" opacity="1"></path><path fill="none" d="M 118.8 165.3 L 113.8 165.2" stroke="#933" stroke-width="2" opacity="1"></path><path fill="none" d="M 160.6 95.0 L 158.1 90.6" stroke="#933" stroke-width="2" opacity="1"></path><path fill="none" d="M 242.3 96.7 L 244.9 92.5" stroke="#933" stroke-width="2" opacity="1"></path><path fill="none" d="M 281.1 168.7 L 286.1 168.9" stroke="#933" stroke-width="2" opacity="1"></path><path fill="none" d="M 159.4 236.2 A 81.1 81.1 0 1 1 240.6 236.2 M 200 166 A 0 0 0 1 0 200 166 " stroke="#933" stroke-width="2"  visibility="visible"></path></g><g class="highcharts-data-labels highcharts-tracker" visibility="visible"  transform="translate(10,47) scale(1 1)" style=""><g  style="" transform="translate(161,134)"><rect x="0.5" y="0.5" width="58" height="37" strokeWidth="1" fill="url(#highcharts-3)" stroke="silver" stroke-width="1" rx="3" ry="3"></rect><text x="5"  style="font-size: 11px; font-weight: bold; color: rgb(0, 0, 0); fill: #000000; text-shadow: rgb(255, 255, 255) 0px 0px 6px, rgb(255, 255, 255) 0px 0px 3px; " transform="translate(0,16)"><tspan style="fill:#339">80 km/h</tspan><tspan style="fill:#933" x="5" dy="14">50 mph</tspan></text></g></g><g class="highcharts-series-group" ><g class="highcharts-series highcharts-tracker" visibility="visible"  transform="translate(10,47) scale(1 1)" style="" clip-path="url(#highcharts-1)"><path fill="black" d="M -8.0 -1.5 L 56.6 -1.5 80.9 -0.5 80.9 0.5 56.6 1.5 -8.0 1.5 z" transform="translate(190,119) rotate(-120.0 0 0)"></path><circle cx="0" cy="0" r="5" fill="black" transform="translate(190,119)"></circle></g><g class="highcharts-markers" visibility="visible"  transform="translate(10,47) scale(1 1)"></g></g><text x="200" text-anchor="middle" class="highcharts-title"  style="color:#333333;font-size:18px;fill:#333333;width:336px;" y="24"><tspan>Speedometer with dual axes</tspan></text><g class="highcharts-legend" ><g ><g></g></g></g><g class="highcharts-axis-labels highcharts-yaxis-labels" ><text x="171.9" style="color:#606060;cursor:default;font-size:11px;fill:#606060;width:122px;text-overflow:clip;" text-anchor="middle" transform="translate(0,0) rotate(-150 171.9 214.6)" y="214.6" opacity="1">0</text><text x="145.7" style="color:#606060;cursor:default;font-size:11px;fill:#606060;width:122px;text-overflow:clip;" text-anchor="middle" transform="translate(0,0) rotate(-75 145.7 151.4)" y="151.4" opacity="1">50</text><text x="200" style="color:#606060;cursor:default;font-size:11px;fill:#606060;width:122px;text-overflow:clip;" text-anchor="middle" transform="translate(0,0)" y="109.8" opacity="1">100</text><text x="254.2" style="color:#606060;cursor:default;font-size:11px;fill:#606060;width:122px;text-overflow:clip;" text-anchor="middle" transform="translate(0,0) rotate(74.9 254.2 151.4)" y="151.4" opacity="1">150</text><text x="228.0" style="color:#606060;cursor:default;font-size:11px;fill:#606060;width:122px;text-overflow:clip;" text-anchor="middle" transform="translate(0,0) rotate(150 228.0 214.6)" y="214.6" opacity="1">200</text></g><g class="highcharts-axis-labels highcharts-yaxis-labels" ><text x="153.4" style="color:#606060;cursor:default;font-size:11px;fill:#606060;width:122px;text-overflow:clip;" text-anchor="middle" transform="translate(0,0) rotate(-150 153.4 246.6)" y="246.6" opacity="1">0</text><text x="106.8" style="color:#606060;cursor:default;font-size:11px;fill:#606060;width:122px;text-overflow:clip;" text-anchor="middle" transform="translate(0,0) rotate(-89.5 106.8 165.2)" y="165.2" opacity="1">25</text><text x="154.7" style="color:#606060;cursor:default;font-size:11px;fill:#606060;width:122px;text-overflow:clip;" text-anchor="middle" transform="translate(0,0) rotate(-29.0 154.7 84.5)" y="84.5" opacity="1">50</text><text x="248.6" style="color:#606060;cursor:default;font-size:11px;fill:#606060;width:122px;text-overflow:clip;" text-anchor="middle" transform="translate(0,0) rotate(31.4 248.6 86.5)" y="86.5" opacity="1">75</text><text x="293.0" style="color:#606060;cursor:default;font-size:11px;fill:#606060;width:122px;text-overflow:clip;" text-anchor="middle" transform="translate(0,0) rotate(91.9 293.0 169.1)" y="169.1" opacity="1">100</text></g><g class="highcharts-tooltip"  style="cursor:default;padding:0;white-space:nowrap;" transform="translate(0,-9999)"><path fill="none" d="M 3 0 L 13 0 C 16 0 16 0 16 3 L 16 13 C 16 16 16 16 13 16 L 3 16 C 0 16 0 16 0 13 L 0 3 C 0 0 0 0 3 0"  stroke="black" stroke-opacity="0.0" stroke-width="5" transform="translate(1, 1)"></path><path fill="none" d="M 3 0 L 13 0 C 16 0 16 0 16 3 L 16 13 C 16 16 16 16 13 16 L 3 16 C 0 16 0 16 0 13 L 0 3 C 0 0 0 0 3 0"  stroke="black" stroke-opacity="0.0" stroke-width="3" transform="translate(1, 1)"></path><path fill="none" d="M 3 0 L 13 0 C 16 0 16 0 16 3 L 16 13 C 16 16 16 16 13 16 L 3 16 C 0 16 0 16 0 13 L 0 3 C 0 0 0 0 3 0"  stroke="black" stroke-opacity="0.1" stroke-width="1" transform="translate(1, 1)"></path><path fill="rgb(249, 249, 249)" fill-opacity=" .85" d="M 3 0 L 13 0 C 16 0 16 0 16 3 L 16 13 C 16 16 16 16 13 16 L 3 16 C 0 16 0 16 0 13 L 0 3 C 0 0 0 0 3 0"></path><text x="8"  style="font-size:12px;color:#333333;fill:#333333;" transform="translate(0,20)"></text></g></svg>