<svg version="1.1" style="font-family:&quot;lucida grande&quot;, &quot;lucida sans unicode&quot;, arial, helvetica, sans-serif;font-size:12px;" xmlns="http://www.w3.org/2000/svg" width="584" height="400" viewBox="0 0 584 400"><desc>Created with Highcharts 4.1.4</desc><defs><clipPath id="highcharts-1"><rect x="0" y="0" width="507" height="280"></rect></clipPath><clipPath id="highcharts-2"><rect x="-99" y="-47" width="606" height="400"></rect></clipPath><clipPath id="highcharts-3"><rect x="0" y="0" width="507" height="280"></rect></clipPath></defs><rect x="0" y="0" width="584" height="400" strokeWidth="0" fill="#FFFFFF" class=" highcharts-background" stroke="transparent"></rect><g class="highcharts-grid" ></g><g class="highcharts-grid" ><path fill="none" d="M 67 327.5 L 574 327.5" stroke="#E0E0E0" stroke-width="1" opacity="1"></path><path fill="none" d="M 67 306.5 L 574 306.5" stroke="#E0E0E0" stroke-width="1" opacity="1"></path><path fill="none" d="M 67 294.5 L 574 294.5" stroke="#E0E0E0" stroke-width="1" opacity="1"></path><path fill="none" d="M 67 285.5 L 574 285.5" stroke="#E0E0E0" stroke-width="1" opacity="1"></path><path fill="none" d="M 67 278.5 L 574 278.5" stroke="#E0E0E0" stroke-width="1" opacity="1"></path><path fill="none" d="M 67 273.5 L 574 273.5" stroke="#E0E0E0" stroke-width="1" opacity="1"></path><path fill="none" d="M 67 268.5 L 574 268.5" stroke="#E0E0E0" stroke-width="1" opacity="1"></path><path fill="none" d="M 67 264.5 L 574 264.5" stroke="#E0E0E0" stroke-width="1" opacity="1"></path><path fill="none" d="M 67 260.5 L 574 260.5" stroke="#E0E0E0" stroke-width="1" opacity="1"></path><path fill="none" d="M 67 257.5 L 574 257.5" stroke="#E0E0E0" stroke-width="1" opacity="1"></path><path fill="none" d="M 67 236.5 L 574 236.5" stroke="#E0E0E0" stroke-width="1" opacity="1"></path><path fill="none" d="M 67 224.5 L 574 224.5" stroke="#E0E0E0" stroke-width="1" opacity="1"></path><path fill="none" d="M 67 215.5 L 574 215.5" stroke="#E0E0E0" stroke-width="1" opacity="1"></path><path fill="none" d="M 67 208.5 L 574 208.5" stroke="#E0E0E0" stroke-width="1" opacity="1"></path><path fill="none" d="M 67 203.5 L 574 203.5" stroke="#E0E0E0" stroke-width="1" opacity="1"></path><path fill="none" d="M 67 198.5 L 574 198.5" stroke="#E0E0E0" stroke-width="1" opacity="1"></path><path fill="none" d="M 67 194.5 L 574 194.5" stroke="#E0E0E0" stroke-width="1" opacity="1"></path><path fill="none" d="M 67 190.5 L 574 190.5" stroke="#E0E0E0" stroke-width="1" opacity="1"></path><path fill="none" d="M 67 187.5 L 574 187.5" stroke="#E0E0E0" stroke-width="1" opacity="1"></path><path fill="none" d="M 67 166.5 L 574 166.5" stroke="#E0E0E0" stroke-width="1" opacity="1"></path><path fill="none" d="M 67 154.5 L 574 154.5" stroke="#E0E0E0" stroke-width="1" opacity="1"></path><path fill="none" d="M 67 145.5 L 574 145.5" stroke="#E0E0E0" stroke-width="1" opacity="1"></path><path fill="none" d="M 67 138.5 L 574 138.5" stroke="#E0E0E0" stroke-width="1" opacity="1"></path><path fill="none" d="M 67 133.5 L 574 133.5" stroke="#E0E0E0" stroke-width="1" opacity="1"></path><path fill="none" d="M 67 128.5 L 574 128.5" stroke="#E0E0E0" stroke-width="1" opacity="1"></path><path fill="none" d="M 67 124.5 L 574 124.5" stroke="#E0E0E0" stroke-width="1" opacity="1"></path><path fill="none" d="M 67 120.5 L 574 120.5" stroke="#E0E0E0" stroke-width="1" opacity="1"></path><path fill="none" d="M 67 117.5 L 574 117.5" stroke="#E0E0E0" stroke-width="1" opacity="1"></path><path fill="none" d="M 67 96.5 L 574 96.5" stroke="#E0E0E0" stroke-width="1" opacity="1"></path><path fill="none" d="M 67 84.5 L 574 84.5" stroke="#E0E0E0" stroke-width="1" opacity="1"></path><path fill="none" d="M 67 75.5 L 574 75.5" stroke="#E0E0E0" stroke-width="1" opacity="1"></path><path fill="none" d="M 67 68.5 L 574 68.5" stroke="#E0E0E0" stroke-width="1" opacity="1"></path><path fill="none" d="M 67 63.5 L 574 63.5" stroke="#E0E0E0" stroke-width="1" opacity="1"></path><path fill="none" d="M 67 58.5 L 574 58.5" stroke="#E0E0E0" stroke-width="1" opacity="1"></path><path fill="none" d="M 67 54.5 L 574 54.5" stroke="#E0E0E0" stroke-width="1" opacity="1"></path><path fill="none" d="M 67 50.5 L 574 50.5" stroke="#E0E0E0" stroke-width="1" opacity="1"></path><path fill="none" d="M 67 47.5 L 574 47.5" stroke="#E0E0E0" stroke-width="1" opacity="1"></path><path fill="none" d="M 67 327.5 L 574 327.5" stroke="#D8D8D8" stroke-width="1"  opacity="1"></path><path fill="none" d="M 67 257.5 L 574 257.5" stroke="#D8D8D8" stroke-width="1"  opacity="1"></path><path fill="none" d="M 67 187.5 L 574 187.5" stroke="#D8D8D8" stroke-width="1"  opacity="1"></path><path fill="none" d="M 67 117.5 L 574 117.5" stroke="#D8D8D8" stroke-width="1"  opacity="1"></path><path fill="none" d="M 67 46.5 L 574 46.5" stroke="#D8D8D8" stroke-width="1"  opacity="1"></path></g><g class="highcharts-axis" ><path fill="none" d="M 71.5 327 L 71.5 337" stroke="#C0D0E0" stroke-width="1" opacity="1"></path><path fill="none" d="M 126.5 327 L 126.5 337" stroke="#C0D0E0" stroke-width="1" opacity="1"></path><path fill="none" d="M 181.5 327 L 181.5 337" stroke="#C0D0E0" stroke-width="1" opacity="1"></path><path fill="none" d="M 237.5 327 L 237.5 337" stroke="#C0D0E0" stroke-width="1" opacity="1"></path><path fill="none" d="M 292.5 327 L 292.5 337" stroke="#C0D0E0" stroke-width="1" opacity="1"></path><path fill="none" d="M 347.5 327 L 347.5 337" stroke="#C0D0E0" stroke-width="1" opacity="1"></path><path fill="none" d="M 402.5 327 L 402.5 337" stroke="#C0D0E0" stroke-width="1" opacity="1"></path><path fill="none" d="M 458.5 327 L 458.5 337" stroke="#C0D0E0" stroke-width="1" opacity="1"></path><path fill="none" d="M 513.5 327 L 513.5 337" stroke="#C0D0E0" stroke-width="1" opacity="1"></path><path fill="none" d="M 568.5 327 L 568.5 337" stroke="#C0D0E0" stroke-width="1" opacity="1"></path><path fill="none" d="M 67 327.5 L 574 327.5" stroke="#C0D0E0" stroke-width="1"  visibility="visible"></path></g><g class="highcharts-axis" ><text x="24"  text-anchor="middle" transform="translate(0,0) rotate(270 24 187)" class=" highcharts-yaxis-title" style="color:#707070;fill:#707070;" visibility="visible" y="187">Values</text></g><g class="highcharts-series-group" ><g class="highcharts-series" visibility="visible"  transform="translate(67,47) scale(1 1)" clip-path="url(#highcharts-3)"><path fill="none" d="M 4.9 210 L 60.1 188.9 L 115.4 167.8 L 170.6 146.7 L 225.8 125.7 L 281.1 104.6 L 336.3 83.5 L 391.5 62.4 L 446.8 41.4 L 502.0 20.3" stroke="#7cb5ec" stroke-width="2"  stroke-linejoin="round" stroke-linecap="round"></path><path fill="none" d="M -5.0 210 L 4.9 210 L 60.1 188.9 L 115.4 167.8 L 170.6 146.7 L 225.8 125.7 L 281.1 104.6 L 336.3 83.5 L 391.5 62.4 L 446.8 41.4 L 502.0 20.3 L 512.0 20.3" stroke-linejoin="round" visibility="visible" stroke="rgb(192,192,192)" stroke-opacity="0.0" stroke-width="22"  class=" highcharts-tracker" style=""></path></g><g class="highcharts-markers highcharts-tracker" visibility="visible"  transform="translate(67,47) scale(1 1)" clip-path="url(#highcharts-2)" style=""><path fill="#7cb5ec" d="M 502 16.3 C 507.3 16.3 507.3 24.3 502 24.3 C 496.6 24.3 496.6 16.3 502 16.3 Z"></path><path fill="#7cb5ec" d="M 446 37.4 C 451.3 37.4 451.3 45.4 446 45.4 C 440.6 45.4 440.6 37.4 446 37.4 Z"></path><path fill="#7cb5ec" d="M 391 58.4 C 396.3 58.4 396.3 66.4 391 66.4 C 385.6 66.4 385.6 58.4 391 58.4 Z"></path><path fill="#7cb5ec" d="M 336 79.5 C 341.3 79.5 341.3 87.5 336 87.5 C 330.6 87.5 330.6 79.5 336 79.5 Z"></path><path fill="#7cb5ec" d="M 281 100.6 C 286.3 100.6 286.3 108.6 281 108.6 C 275.6 108.6 275.6 100.6 281 100.6 Z"></path><path fill="#7cb5ec" d="M 225 121.7 C 230.3 121.7 230.3 129.7 225 129.7 C 219.6 129.7 219.6 121.7 225 121.7 Z"></path><path fill="#7cb5ec" d="M 170 142.7 C 175.3 142.7 175.3 150.7 170 150.7 C 164.6 150.7 164.6 142.7 170 142.7 Z"></path><path fill="#7cb5ec" d="M 115 163.8 C 120.3 163.8 120.3 171.8 115 171.8 C 109.6 171.8 109.6 163.8 115 163.8 Z"></path><path fill="#7cb5ec" d="M 60 184.9 C 65.3 184.9 65.3 192.9 60 192.9 C 54.6 192.9 54.6 184.9 60 184.9 Z"></path><path fill="#7cb5ec" d="M 4 206 C 9.3 206 9.3 214 4 214 C -1.3 214 -1.3 206 4 206 Z"></path></g></g><text x="292" text-anchor="middle" class="highcharts-title"  style="color:#333333;font-size:18px;fill:#333333;width:520px;" y="24"><tspan>Logarithmic axis demo</tspan></text><g class="highcharts-legend"  transform="translate(250,360)"><g ><g><g class="highcharts-legend-item"  transform="translate(8,3)"><path fill="none" d="M 0 11 L 16 11" stroke="#7cb5ec" stroke-width="2"></path><path fill="#7cb5ec" d="M 8 7 C 13.3 7 13.3 15 8 15 C 2.6 15 2.6 7 8 7 Z"></path><text x="21" style="color:#333333;font-size:12px;font-weight:bold;cursor:pointer;fill:#333333;" text-anchor="start"  y="15"><tspan>Series 1</tspan></text></g></g></g></g><g class="highcharts-axis-labels highcharts-xaxis-labels" ><text x="71.9" style="color:#606060;cursor:default;font-size:11px;fill:#606060;" text-anchor="middle" transform="translate(0,0)" y="346" opacity="1">1</text><text x="127.1" style="color:#606060;cursor:default;font-size:11px;fill:#606060;" text-anchor="middle" transform="translate(0,0)" y="346" opacity="1">2</text><text x="182.4" style="color:#606060;cursor:default;font-size:11px;fill:#606060;" text-anchor="middle" transform="translate(0,0)" y="346" opacity="1">3</text><text x="237.6" style="color:#606060;cursor:default;font-size:11px;fill:#606060;" text-anchor="middle" transform="translate(0,0)" y="346" opacity="1">4</text><text x="292.8" style="color:#606060;cursor:default;font-size:11px;fill:#606060;" text-anchor="middle" transform="translate(0,0)" y="346" opacity="1">5</text><text x="348.1" style="color:#606060;cursor:default;font-size:11px;fill:#606060;" text-anchor="middle" transform="translate(0,0)" y="346" opacity="1">6</text><text x="403.3" style="color:#606060;cursor:default;font-size:11px;fill:#606060;" text-anchor="middle" transform="translate(0,0)" y="346" opacity="1">7</text><text x="458.5" style="color:#606060;cursor:default;font-size:11px;fill:#606060;" text-anchor="middle" transform="translate(0,0)" y="346" opacity="1">8</text><text x="513.8" style="color:#606060;cursor:default;font-size:11px;fill:#606060;" text-anchor="middle" transform="translate(0,0)" y="346" opacity="1">9</text><text x="574" style="color:#606060;cursor:default;font-size:11px;fill:#606060;" text-anchor="end" transform="translate(0,0)" y="346" opacity="1">10</text></g><g class="highcharts-axis-labels highcharts-yaxis-labels" ><text x="52" style="color:#606060;cursor:default;font-size:11px;fill:#606060;width:183px;text-overflow:clip;" text-anchor="end" transform="translate(0,0)" y="332" opacity="1">0.1</text><text x="52" style="color:#606060;cursor:default;font-size:11px;fill:#606060;width:183px;text-overflow:clip;" text-anchor="end" transform="translate(0,0)" y="262" opacity="1">1</text><text x="52" style="color:#606060;cursor:default;font-size:11px;fill:#606060;width:183px;text-overflow:clip;" text-anchor="end" transform="translate(0,0)" y="192" opacity="1">10</text><text x="52" style="color:#606060;cursor:default;font-size:11px;fill:#606060;width:183px;text-overflow:clip;" text-anchor="end" transform="translate(0,0)" y="122" opacity="1">100</text><text x="52" style="color:#606060;cursor:default;font-size:11px;fill:#606060;width:183px;text-overflow:clip;" text-anchor="end" transform="translate(0,0)" y="52" opacity="1">1k</text></g><g class="highcharts-tooltip"  style="cursor:default;padding:0;white-space:nowrap;" transform="translate(0,-9999)"><path fill="none" d="M 3 0 L 13 0 C 16 0 16 0 16 3 L 16 13 C 16 16 16 16 13 16 L 3 16 C 0 16 0 16 0 13 L 0 3 C 0 0 0 0 3 0"  stroke="black" stroke-opacity="0.0" stroke-width="5" transform="translate(1, 1)"></path><path fill="none" d="M 3 0 L 13 0 C 16 0 16 0 16 3 L 16 13 C 16 16 16 16 13 16 L 3 16 C 0 16 0 16 0 13 L 0 3 C 0 0 0 0 3 0"  stroke="black" stroke-opacity="0.0" stroke-width="3" transform="translate(1, 1)"></path><path fill="none" d="M 3 0 L 13 0 C 16 0 16 0 16 3 L 16 13 C 16 16 16 16 13 16 L 3 16 C 0 16 0 16 0 13 L 0 3 C 0 0 0 0 3 0"  stroke="black" stroke-opacity="0.1" stroke-width="1" transform="translate(1, 1)"></path><path fill="rgb(249, 249, 249)" fill-opacity=" .85" d="M 3 0 L 13 0 C 16 0 16 0 16 3 L 16 13 C 16 16 16 16 13 16 L 3 16 C 0 16 0 16 0 13 L 0 3 C 0 0 0 0 3 0"></path><text x="8"  style="font-size:12px;color:#333333;fill:#333333;" transform="translate(0,20)"></text></g></svg>