<svg version="1.1" style="font-family:&quot;lucida grande&quot;, &quot;lucida sans unicode&quot;, arial, helvetica, sans-serif;font-size:12px;" xmlns="http://www.w3.org/2000/svg" width="584" height="400" viewBox="0 0 584 400"><desc>Created with Highcharts 4.1.4</desc><defs><clipPath id="highcharts-1"><rect x="0" y="0" width="513" height="266"></rect></clipPath><clipPath id="highcharts-2"><rect x="-99" y="-61" width="612" height="400"></rect></clipPath><clipPath id="highcharts-3"><rect x="0" y="0" width="513" height="266"></rect></clipPath></defs><rect x="0" y="0" width="584" height="400" strokeWidth="0" fill="#FFFFFF" class=" highcharts-background" stroke="transparent"></rect><g class="highcharts-grid" ></g><g class="highcharts-grid" ><path fill="none" d="M 61 327.5 L 574 327.5" stroke="#D8D8D8" stroke-width="1"  opacity="1"></path><path fill="none" d="M 61 283.5 L 574 283.5" stroke="#D8D8D8" stroke-width="1"  opacity="1"></path><path fill="none" d="M 61 238.5 L 574 238.5" stroke="#D8D8D8" stroke-width="1"  opacity="1"></path><path fill="none" d="M 61 194.5 L 574 194.5" stroke="#D8D8D8" stroke-width="1"  opacity="1"></path><path fill="none" d="M 61 150.5 L 574 150.5" stroke="#D8D8D8" stroke-width="1"  opacity="1"></path><path fill="none" d="M 61 105.5 L 574 105.5" stroke="#D8D8D8" stroke-width="1"  opacity="1"></path><path fill="none" d="M 61 60.5 L 574 60.5" stroke="#D8D8D8" stroke-width="1"  opacity="1"></path></g><g class="highcharts-axis" ><path fill="none" d="M 103.5 327 L 103.5 337" stroke="#C0D0E0" stroke-width="1" opacity="1"></path><path fill="none" d="M 146.5 327 L 146.5 337" stroke="#C0D0E0" stroke-width="1" opacity="1"></path><path fill="none" d="M 188.5 327 L 188.5 337" stroke="#C0D0E0" stroke-width="1" opacity="1"></path><path fill="none" d="M 231.5 327 L 231.5 337" stroke="#C0D0E0" stroke-width="1" opacity="1"></path><path fill="none" d="M 274.5 327 L 274.5 337" stroke="#C0D0E0" stroke-width="1" opacity="1"></path><path fill="none" d="M 317.5 327 L 317.5 337" stroke="#C0D0E0" stroke-width="1" opacity="1"></path><path fill="none" d="M 359.5 327 L 359.5 337" stroke="#C0D0E0" stroke-width="1" opacity="1"></path><path fill="none" d="M 402.5 327 L 402.5 337" stroke="#C0D0E0" stroke-width="1" opacity="1"></path><path fill="none" d="M 445.5 327 L 445.5 337" stroke="#C0D0E0" stroke-width="1" opacity="1"></path><path fill="none" d="M 488.5 327 L 488.5 337" stroke="#C0D0E0" stroke-width="1" opacity="1"></path><path fill="none" d="M 530.5 327 L 530.5 337" stroke="#C0D0E0" stroke-width="1" opacity="1"></path><path fill="none" d="M 574.5 327 L 574.5 337" stroke="#C0D0E0" stroke-width="1" opacity="1"></path><path fill="none" d="M 60.5 327 L 60.5 337" stroke="#C0D0E0" stroke-width="1" opacity="1"></path><path fill="none" d="M 61 327.5 L 574 327.5" stroke="#C0D0E0" stroke-width="1"  visibility="visible"></path></g><g class="highcharts-axis" ><text x="24"  text-anchor="middle" transform="translate(0,0) rotate(270 24 194)" class=" highcharts-yaxis-title" style="color:#707070;fill:#707070;" visibility="visible" y="194"><tspan>Temperature (°C)</tspan></text></g><g class="highcharts-series-group" ><g class="highcharts-series" visibility="visible"  transform="translate(61,61) scale(1 1)" clip-path="url(#highcharts-3)"><path fill="none" d="M 21.3 203.9 L 64.1 204.8 L 106.8 181.7 L 149.6 137.4 L 192.3 102.8 L 235.1 75.3 L 277.8 42.5 L 320.6 31.0 L 363.3 59.4 L 406.1 103.7 L 448.8 142.7 L 491.6 180.8" stroke="#7cb5ec" stroke-width="2"  stroke-linejoin="round" stroke-linecap="round"></path></g><g class="highcharts-markers" visibility="visible"  transform="translate(61,61) scale(1 1)" clip-path="url(#highcharts-2)"><path fill="#7cb5ec" d="M 491 176.8 C 496.3 176.8 496.3 184.8 491 184.8 C 485.6 184.8 485.6 176.8 491 176.8 Z"></path><path fill="#7cb5ec" d="M 448 138.7 C 453.3 138.7 453.3 146.7 448 146.7 C 442.6 146.7 442.6 138.7 448 138.7 Z"></path><path fill="#7cb5ec" d="M 406 99.7 C 411.3 99.7 411.3 107.7 406 107.7 C 400.6 107.7 400.6 99.7 406 99.7 Z"></path><path fill="#7cb5ec" d="M 363 55.4 C 368.3 55.4 368.3 63.4 363 63.4 C 357.6 63.4 357.6 55.4 363 55.4 Z"></path><path fill="#7cb5ec" d="M 320 27.0 C 325.3 27.0 325.3 35.0 320 35.0 C 314.6 35.0 314.6 27.0 320 27.0 Z"></path><path fill="#7cb5ec" d="M 277 38.5 C 282.3 38.5 282.3 46.5 277 46.5 C 271.6 46.5 271.6 38.5 277 38.5 Z"></path><path fill="#7cb5ec" d="M 235 71.3 C 240.3 71.3 240.3 79.3 235 79.3 C 229.6 79.3 229.6 71.3 235 71.3 Z"></path><path fill="#7cb5ec" d="M 192 98.8 C 197.3 98.8 197.3 106.8 192 106.8 C 186.6 106.8 186.6 98.8 192 98.8 Z"></path><path fill="#7cb5ec" d="M 149 133.4 C 154.3 133.4 154.3 141.4 149 141.4 C 143.6 141.4 143.6 133.4 149 133.4 Z"></path><path fill="#7cb5ec" d="M 106 177.7 C 111.3 177.7 111.3 185.7 106 185.7 C 100.6 185.7 100.6 177.7 106 177.7 Z"></path><path fill="#7cb5ec" d="M 64 200.8 C 69.3 200.8 69.3 208.8 64 208.8 C 58.6 208.8 58.6 200.8 64 200.8 Z"></path><path fill="#7cb5ec" d="M 21 199.9 C 26.3 199.9 26.3 207.9 21 207.9 C 15.6 207.9 15.6 199.9 21 199.9 Z"></path></g><g class="highcharts-series" visibility="visible"  transform="translate(61,61) scale(1 1)" clip-path="url(#highcharts-3)"><path fill="none" d="M 21.3 231.4 L 64.1 228.7 L 106.8 215.4 L 149.6 190.6 L 192.3 160.4 L 235.1 131.2 L 277.8 115.2 L 320.6 118.8 L 363.3 140.0 L 406.1 174.6 L 448.8 207.4 L 491.6 223.4" stroke="#434348" stroke-width="2"  stroke-linejoin="round" stroke-linecap="round"></path></g><g class="highcharts-markers" visibility="visible"  transform="translate(61,61) scale(1 1)" clip-path="url(#highcharts-2)"><path fill="#434348" d="M 491 219.4 L 495 223.4 491 227.4 487 223.4 Z"></path><path fill="#434348" d="M 448 203.4 L 452 207.4 448 211.4 444 207.4 Z"></path><path fill="#434348" d="M 406 170.6 L 410 174.6 406 178.6 402 174.6 Z"></path><path fill="#434348" d="M 363 136.0 L 367 140.0 363 144.0 359 140.0 Z"></path><path fill="#434348" d="M 320 114.8 L 324 118.8 320 122.8 316 118.8 Z"></path><path fill="#434348" d="M 277 111.2 L 281 115.2 277 119.2 273 115.2 Z"></path><path fill="#434348" d="M 235 127.2 L 239 131.2 235 135.2 231 131.2 Z"></path><path fill="#434348" d="M 192 156.4 L 196 160.4 192 164.4 188 160.4 Z"></path><path fill="#434348" d="M 149 186.6 L 153 190.6 149 194.6 145 190.6 Z"></path><path fill="#434348" d="M 106 211.4 L 110 215.4 106 219.4 102 215.4 Z"></path><path fill="#434348" d="M 64 224.7 L 68 228.7 64 232.7 60 228.7 Z"></path><path fill="#434348" d="M 21 227.4 L 25 231.4 21 235.4 17 231.4 Z"></path></g></g><text x="292" text-anchor="middle" class="highcharts-title"  style="color:#333333;font-size:18px;fill:#333333;width:520px;" y="24"><tspan>Monthly Average Temperature</tspan></text><text x="292" text-anchor="middle" class="highcharts-subtitle"  style="color:#555555;fill:#555555;width:520px;" y="46"><tspan>Source: WorldClimate.com</tspan></text><g class="highcharts-data-labels" visibility="visible"  transform="translate(61,61) scale(1 1)"><g  style="" transform="translate(13,181)"><text x="5"  style="font-size: 11px; font-weight: bold; color: rgb(0, 0, 0); fill: #000000; text-shadow: rgb(255, 255, 255) 0px 0px 6px, rgb(255, 255, 255) 0px 0px 3px; " transform="translate(0,16)"><tspan>7</tspan></text></g><g  style="" transform="translate(51,182)"><text x="5"  style="font-size: 11px; font-weight: bold; color: rgb(0, 0, 0); fill: #000000; text-shadow: rgb(255, 255, 255) 0px 0px 6px, rgb(255, 255, 255) 0px 0px 3px; " transform="translate(0,16)"><tspan>6.9</tspan></text></g><g  style="" transform="translate(93,159)"><text x="5"  style="font-size: 11px; font-weight: bold; color: rgb(0, 0, 0); fill: #000000; text-shadow: rgb(255, 255, 255) 0px 0px 6px, rgb(255, 255, 255) 0px 0px 3px; " transform="translate(0,16)"><tspan>9.5</tspan></text></g><g  style="" transform="translate(133,114)"><text x="5"  style="font-size: 11px; font-weight: bold; color: rgb(0, 0, 0); fill: #000000; text-shadow: rgb(255, 255, 255) 0px 0px 6px, rgb(255, 255, 255) 0px 0px 3px; " transform="translate(0,16)"><tspan>14.5</tspan></text></g><g  style="" transform="translate(175,80)"><text x="5"  style="font-size: 11px; font-weight: bold; color: rgb(0, 0, 0); fill: #000000; text-shadow: rgb(255, 255, 255) 0px 0px 6px, rgb(255, 255, 255) 0px 0px 3px; " transform="translate(0,16)"><tspan>18.4</tspan></text></g><g  style="" transform="translate(218,52)"><text x="5"  style="font-size: 11px; font-weight: bold; color: rgb(0, 0, 0); fill: #000000; text-shadow: rgb(255, 255, 255) 0px 0px 6px, rgb(255, 255, 255) 0px 0px 3px; " transform="translate(0,16)"><tspan>21.5</tspan></text></g><g  style="" transform="translate(261,20)"><text x="5"  style="font-size: 11px; font-weight: bold; color: rgb(0, 0, 0); fill: #000000; text-shadow: rgb(255, 255, 255) 0px 0px 6px, rgb(255, 255, 255) 0px 0px 3px; " transform="translate(0,16)"><tspan>25.2</tspan></text></g><g  style="" transform="translate(304,8)"><text x="5"  style="font-size: 11px; font-weight: bold; color: rgb(0, 0, 0); fill: #000000; text-shadow: rgb(255, 255, 255) 0px 0px 6px, rgb(255, 255, 255) 0px 0px 3px; " transform="translate(0,16)"><tspan>26.5</tspan></text></g><g  style="" transform="translate(346,36)"><text x="5"  style="font-size: 11px; font-weight: bold; color: rgb(0, 0, 0); fill: #000000; text-shadow: rgb(255, 255, 255) 0px 0px 6px, rgb(255, 255, 255) 0px 0px 3px; " transform="translate(0,16)"><tspan>23.3</tspan></text></g><g  style="" transform="translate(389,81)"><text x="5"  style="font-size: 11px; font-weight: bold; color: rgb(0, 0, 0); fill: #000000; text-shadow: rgb(255, 255, 255) 0px 0px 6px, rgb(255, 255, 255) 0px 0px 3px; " transform="translate(0,16)"><tspan>18.3</tspan></text></g><g  style="" transform="translate(432,120)"><text x="5"  style="font-size: 11px; font-weight: bold; color: rgb(0, 0, 0); fill: #000000; text-shadow: rgb(255, 255, 255) 0px 0px 6px, rgb(255, 255, 255) 0px 0px 3px; " transform="translate(0,16)"><tspan>13.9</tspan></text></g><g  style="" transform="translate(478,158)"><text x="5"  style="font-size: 11px; font-weight: bold; color: rgb(0, 0, 0); fill: #000000; text-shadow: rgb(255, 255, 255) 0px 0px 6px, rgb(255, 255, 255) 0px 0px 3px; " transform="translate(0,16)"><tspan>9.6</tspan></text></g></g><g class="highcharts-data-labels" visibility="visible"  transform="translate(61,61) scale(1 1)"><g  style="" transform="translate(8,208)"><text x="5"  style="font-size: 11px; font-weight: bold; color: rgb(0, 0, 0); fill: #000000; text-shadow: rgb(255, 255, 255) 0px 0px 6px, rgb(255, 255, 255) 0px 0px 3px; " transform="translate(0,16)"><tspan>3.9</tspan></text></g><g  style="" transform="translate(51,206)"><text x="5"  style="font-size: 11px; font-weight: bold; color: rgb(0, 0, 0); fill: #000000; text-shadow: rgb(255, 255, 255) 0px 0px 6px, rgb(255, 255, 255) 0px 0px 3px; " transform="translate(0,16)"><tspan>4.2</tspan></text></g><g  style="" transform="translate(93,192)"><text x="5"  style="font-size: 11px; font-weight: bold; color: rgb(0, 0, 0); fill: #000000; text-shadow: rgb(255, 255, 255) 0px 0px 6px, rgb(255, 255, 255) 0px 0px 3px; " transform="translate(0,16)"><tspan>5.7</tspan></text></g><g  style="" transform="translate(136,168)"><text x="5"  style="font-size: 11px; font-weight: bold; color: rgb(0, 0, 0); fill: #000000; text-shadow: rgb(255, 255, 255) 0px 0px 6px, rgb(255, 255, 255) 0px 0px 3px; " transform="translate(0,16)"><tspan>8.5</tspan></text></g><g  style="" transform="translate(175,137)"><text x="5"  style="font-size: 11px; font-weight: bold; color: rgb(0, 0, 0); fill: #000000; text-shadow: rgb(255, 255, 255) 0px 0px 6px, rgb(255, 255, 255) 0px 0px 3px; " transform="translate(0,16)"><tspan>11.9</tspan></text></g><g  style="" transform="translate(218,108)"><text x="5"  style="font-size: 11px; font-weight: bold; color: rgb(0, 0, 0); fill: #000000; text-shadow: rgb(255, 255, 255) 0px 0px 6px, rgb(255, 255, 255) 0px 0px 3px; " transform="translate(0,16)"><tspan>15.2</tspan></text></g><g  style="" transform="translate(267,92)"><text x="5"  style="font-size: 11px; font-weight: bold; color: rgb(0, 0, 0); fill: #000000; text-shadow: rgb(255, 255, 255) 0px 0px 6px, rgb(255, 255, 255) 0px 0px 3px; " transform="translate(0,16)"><tspan>17</tspan></text></g><g  style="" transform="translate(304,96)"><text x="5"  style="font-size: 11px; font-weight: bold; color: rgb(0, 0, 0); fill: #000000; text-shadow: rgb(255, 255, 255) 0px 0px 6px, rgb(255, 255, 255) 0px 0px 3px; " transform="translate(0,16)"><tspan>16.6</tspan></text></g><g  style="" transform="translate(346,117)"><text x="5"  style="font-size: 11px; font-weight: bold; color: rgb(0, 0, 0); fill: #000000; text-shadow: rgb(255, 255, 255) 0px 0px 6px, rgb(255, 255, 255) 0px 0px 3px; " transform="translate(0,16)"><tspan>14.2</tspan></text></g><g  style="" transform="translate(389,152)"><text x="5"  style="font-size: 11px; font-weight: bold; color: rgb(0, 0, 0); fill: #000000; text-shadow: rgb(255, 255, 255) 0px 0px 6px, rgb(255, 255, 255) 0px 0px 3px; " transform="translate(0,16)"><tspan>10.3</tspan></text></g><g  style="" transform="translate(435,184)"><text x="5"  style="font-size: 11px; font-weight: bold; color: rgb(0, 0, 0); fill: #000000; text-shadow: rgb(255, 255, 255) 0px 0px 6px, rgb(255, 255, 255) 0px 0px 3px; " transform="translate(0,16)"><tspan>6.6</tspan></text></g><g  style="" transform="translate(478,200)"><text x="5"  style="font-size: 11px; font-weight: bold; color: rgb(0, 0, 0); fill: #000000; text-shadow: rgb(255, 255, 255) 0px 0px 6px, rgb(255, 255, 255) 0px 0px 3px; " transform="translate(0,16)"><tspan>4.8</tspan></text></g></g><g class="highcharts-legend"  transform="translate(211,360)"><g ><g><g class="highcharts-legend-item"  transform="translate(8,3)"><path fill="none" d="M 0 11 L 16 11" stroke="#7cb5ec" stroke-width="2"></path><path fill="#7cb5ec" d="M 8 7 C 13.3 7 13.3 15 8 15 C 2.6 15 2.6 7 8 7 Z"></path><text x="21" style="color:#333333;font-size:12px;font-weight:bold;cursor:pointer;fill:#333333;" text-anchor="start"  y="15">Tokyo</text></g><g class="highcharts-legend-item"  transform="translate(86,3)"><path fill="none" d="M 0 11 L 16 11" stroke="#434348" stroke-width="2"></path><path fill="#434348" d="M 8 7 L 12 11 8 15 4 11 Z"></path><text x="21" y="15" style="color:#333333;font-size:12px;font-weight:bold;cursor:pointer;fill:#333333;" text-anchor="start" >London</text></g></g></g></g><g class="highcharts-axis-labels highcharts-xaxis-labels" ><text x="82.3" style="color:#606060;cursor:default;font-size:11px;fill:#606060;" text-anchor="middle" transform="translate(0,0)" y="346" opacity="1">Jan</text><text x="125.1" style="color:#606060;cursor:default;font-size:11px;fill:#606060;" text-anchor="middle" transform="translate(0,0)" y="346" opacity="1">Feb</text><text x="167.8" style="color:#606060;cursor:default;font-size:11px;fill:#606060;" text-anchor="middle" transform="translate(0,0)" y="346" opacity="1">Mar</text><text x="210.6" style="color:#606060;cursor:default;font-size:11px;fill:#606060;" text-anchor="middle" transform="translate(0,0)" y="346" opacity="1">Apr</text><text x="253.3" style="color:#606060;cursor:default;font-size:11px;fill:#606060;" text-anchor="middle" transform="translate(0,0)" y="346" opacity="1">May</text><text x="296.1" style="color:#606060;cursor:default;font-size:11px;fill:#606060;" text-anchor="middle" transform="translate(0,0)" y="346" opacity="1">Jun</text><text x="338.8" style="color:#606060;cursor:default;font-size:11px;fill:#606060;" text-anchor="middle" transform="translate(0,0)" y="346" opacity="1">Jul</text><text x="381.6" style="color:#606060;cursor:default;font-size:11px;fill:#606060;" text-anchor="middle" transform="translate(0,0)" y="346" opacity="1">Aug</text><text x="424.3" style="color:#606060;cursor:default;font-size:11px;fill:#606060;" text-anchor="middle" transform="translate(0,0)" y="346" opacity="1">Sep</text><text x="467.1" style="color:#606060;cursor:default;font-size:11px;fill:#606060;" text-anchor="middle" transform="translate(0,0)" y="346" opacity="1">Oct</text><text x="509.8" style="color:#606060;cursor:default;font-size:11px;fill:#606060;" text-anchor="middle" transform="translate(0,0)" y="346" opacity="1">Nov</text><text x="552.6" style="color:#606060;cursor:default;font-size:11px;fill:#606060;" text-anchor="middle" transform="translate(0,0)" y="346" opacity="1">Dec</text></g><g class="highcharts-axis-labels highcharts-yaxis-labels" ><text x="46" style="color:#606060;cursor:default;font-size:11px;fill:#606060;width:183px;text-overflow:clip;" text-anchor="end" transform="translate(0,0)" y="332" opacity="1">0</text><text x="46" style="color:#606060;cursor:default;font-size:11px;fill:#606060;width:183px;text-overflow:clip;" text-anchor="end" transform="translate(0,0)" y="287" opacity="1">5</text><text x="46" style="color:#606060;cursor:default;font-size:11px;fill:#606060;width:183px;text-overflow:clip;" text-anchor="end" transform="translate(0,0)" y="243" opacity="1">10</text><text x="46" style="color:#606060;cursor:default;font-size:11px;fill:#606060;width:183px;text-overflow:clip;" text-anchor="end" transform="translate(0,0)" y="199" opacity="1">15</text><text x="46" style="color:#606060;cursor:default;font-size:11px;fill:#606060;width:183px;text-overflow:clip;" text-anchor="end" transform="translate(0,0)" y="154" opacity="1">20</text><text x="46" style="color:#606060;cursor:default;font-size:11px;fill:#606060;width:183px;text-overflow:clip;" text-anchor="end" transform="translate(0,0)" y="110" opacity="1">25</text><text x="46" style="color:#606060;cursor:default;font-size:11px;fill:#606060;width:183px;text-overflow:clip;" text-anchor="end" transform="translate(0,0)" y="66" opacity="1">30</text></g><g class="highcharts-tooltip"  style="cursor:default;padding:0;white-space:nowrap;" transform="translate(0,-9999)"><path fill="none" d="M 3 0 L 13 0 C 16 0 16 0 16 3 L 16 13 C 16 16 16 16 13 16 L 3 16 C 0 16 0 16 0 13 L 0 3 C 0 0 0 0 3 0"  stroke="black" stroke-opacity="0.0" stroke-width="5" transform="translate(1, 1)"></path><path fill="none" d="M 3 0 L 13 0 C 16 0 16 0 16 3 L 16 13 C 16 16 16 16 13 16 L 3 16 C 0 16 0 16 0 13 L 0 3 C 0 0 0 0 3 0"  stroke="black" stroke-opacity="0.0" stroke-width="3" transform="translate(1, 1)"></path><path fill="none" d="M 3 0 L 13 0 C 16 0 16 0 16 3 L 16 13 C 16 16 16 16 13 16 L 3 16 C 0 16 0 16 0 13 L 0 3 C 0 0 0 0 3 0"  stroke="black" stroke-opacity="0.1" stroke-width="1" transform="translate(1, 1)"></path><path fill="rgb(249, 249, 249)" fill-opacity=" .85" d="M 3 0 L 13 0 C 16 0 16 0 16 3 L 16 13 C 16 16 16 16 13 16 L 3 16 C 0 16 0 16 0 13 L 0 3 C 0 0 0 0 3 0"></path><text x="8"  style="font-size:12px;color:#333333;fill:#333333;" transform="translate(0,20)"></text></g></svg>