<svg version="1.1" style="font-family:&quot;lucida grande&quot;, &quot;lucida sans unicode&quot;, arial, helvetica, sans-serif;font-size:12px;" xmlns="http://www.w3.org/2000/svg" width="584" height="400" viewBox="0 0 584 400"><desc>Created with Highcharts 4.1.4</desc><defs><clipPath id="highcharts-1"><rect x="0" y="0" width="407" height="303"></rect></clipPath><clipPath id="highcharts-2"><rect x="-99" y="-61" width="506" height="400"></rect></clipPath><clipPath id="highcharts-3"><rect x="0" y="0" width="407" height="303"></rect></clipPath></defs><rect x="0" y="0" width="584" height="400" strokeWidth="0" fill="#FFFFFF" class=" highcharts-background" stroke="transparent"></rect><path fill="none" d="M 61 321.5 L 468 321.5" stroke="#808080" stroke-width="1"></path><g class="highcharts-grid" ></g><g class="highcharts-grid" ><path fill="none" d="M 61 364.5 L 468 364.5" stroke="#D8D8D8" stroke-width="1"  opacity="1"></path><path fill="none" d="M 61 321.5 L 468 321.5" stroke="#D8D8D8" stroke-width="1"  opacity="1"></path><path fill="none" d="M 61 277.5 L 468 277.5" stroke="#D8D8D8" stroke-width="1"  opacity="1"></path><path fill="none" d="M 61 234.5 L 468 234.5" stroke="#D8D8D8" stroke-width="1"  opacity="1"></path><path fill="none" d="M 61 191.5 L 468 191.5" stroke="#D8D8D8" stroke-width="1"  opacity="1"></path><path fill="none" d="M 61 148.5 L 468 148.5" stroke="#D8D8D8" stroke-width="1"  opacity="1"></path><path fill="none" d="M 61 104.5 L 468 104.5" stroke="#D8D8D8" stroke-width="1"  opacity="1"></path><path fill="none" d="M 61 60.5 L 468 60.5" stroke="#D8D8D8" stroke-width="1"  opacity="1"></path></g><g class="highcharts-axis" ><path fill="none" d="M 94.5 364 L 94.5 374" stroke="#C0D0E0" stroke-width="1" opacity="1"></path><path fill="none" d="M 128.5 364 L 128.5 374" stroke="#C0D0E0" stroke-width="1" opacity="1"></path><path fill="none" d="M 162.5 364 L 162.5 374" stroke="#C0D0E0" stroke-width="1" opacity="1"></path><path fill="none" d="M 196.5 364 L 196.5 374" stroke="#C0D0E0" stroke-width="1" opacity="1"></path><path fill="none" d="M 230.5 364 L 230.5 374" stroke="#C0D0E0" stroke-width="1" opacity="1"></path><path fill="none" d="M 264.5 364 L 264.5 374" stroke="#C0D0E0" stroke-width="1" opacity="1"></path><path fill="none" d="M 297.5 364 L 297.5 374" stroke="#C0D0E0" stroke-width="1" opacity="1"></path><path fill="none" d="M 331.5 364 L 331.5 374" stroke="#C0D0E0" stroke-width="1" opacity="1"></path><path fill="none" d="M 365.5 364 L 365.5 374" stroke="#C0D0E0" stroke-width="1" opacity="1"></path><path fill="none" d="M 399.5 364 L 399.5 374" stroke="#C0D0E0" stroke-width="1" opacity="1"></path><path fill="none" d="M 433.5 364 L 433.5 374" stroke="#C0D0E0" stroke-width="1" opacity="1"></path><path fill="none" d="M 467.5 364 L 467.5 374" stroke="#C0D0E0" stroke-width="1" opacity="1"></path><path fill="none" d="M 60.5 364 L 60.5 374" stroke="#C0D0E0" stroke-width="1" opacity="1"></path><path fill="none" d="M 61 364.5 L 468 364.5" stroke="#C0D0E0" stroke-width="1"  visibility="visible"></path></g><g class="highcharts-axis" ><text x="24"  text-anchor="middle" transform="translate(0,0) rotate(270 24 212.5)" class=" highcharts-yaxis-title" style="color:#707070;fill:#707070;" visibility="visible" y="212.5"><tspan>Temperature (°C)</tspan></text></g><g class="highcharts-series-group" ><g class="highcharts-series" visibility="visible"  transform="translate(61,61) scale(1 1)" clip-path="url(#highcharts-3)"><path fill="none" d="M 16.9 199.1 L 50.8 199.9 L 84.7 177.4 L 118.7 134.1 L 152.6 102.1 L 186.5 73.5 L 220.4 41.5 L 254.3 30.3 L 288.2 58.0 L 322.2 101.2 L 356.1 139.3 L 390.0 176.6" stroke="#7cb5ec" stroke-width="2"  stroke-linejoin="round" stroke-linecap="round"></path><path fill="none" d="M 6.9 199.1 L 16.9 199.1 L 50.8 199.9 L 84.7 177.4 L 118.7 134.1 L 152.6 102.1 L 186.5 73.5 L 220.4 41.5 L 254.3 30.3 L 288.2 58.0 L 322.2 101.2 L 356.1 139.3 L 390.0 176.6 L 400.0 176.6" stroke-linejoin="round" visibility="visible" stroke="rgb(192,192,192)" stroke-opacity="0.0" stroke-width="22"  class=" highcharts-tracker" style=""></path></g><g class="highcharts-markers highcharts-tracker" visibility="visible"  transform="translate(61,61) scale(1 1)" clip-path="url(#highcharts-2)" style=""><path fill="#7cb5ec" d="M 390 172.6 C 395.3 172.6 395.3 180.6 390 180.6 C 384.6 180.6 384.6 172.6 390 172.6 Z"></path><path fill="#7cb5ec" d="M 356 135.3 C 361.3 135.3 361.3 143.3 356 143.3 C 350.6 143.3 350.6 135.3 356 135.3 Z"></path><path fill="#7cb5ec" d="M 322 97.2 C 327.3 97.2 327.3 105.2 322 105.2 C 316.6 105.2 316.6 97.2 322 97.2 Z"></path><path fill="#7cb5ec" d="M 288 54.0 C 293.3 54.0 293.3 62.0 288 62.0 C 282.6 62.0 282.6 54.0 288 54.0 Z"></path><path fill="#7cb5ec" d="M 254 26.3 C 259.3 26.3 259.3 34.3 254 34.3 C 248.6 34.3 248.6 26.3 254 26.3 Z"></path><path fill="#7cb5ec" d="M 220 37.5 C 225.3 37.5 225.3 45.5 220 45.5 C 214.6 45.5 214.6 37.5 220 37.5 Z"></path><path fill="#7cb5ec" d="M 186 69.5 C 191.3 69.5 191.3 77.5 186 77.5 C 180.6 77.5 180.6 69.5 186 69.5 Z"></path><path fill="#7cb5ec" d="M 152 98.1 C 157.3 98.1 157.3 106.1 152 106.1 C 146.6 106.1 146.6 98.1 152 98.1 Z"></path><path fill="#7cb5ec" d="M 118 130.1 C 123.3 130.1 123.3 138.1 118 138.1 C 112.6 138.1 112.6 130.1 118 130.1 Z"></path><path fill="#7cb5ec" d="M 84 173.4 C 89.3 173.4 89.3 181.4 84 181.4 C 78.6 181.4 78.6 173.4 84 173.4 Z"></path><path fill="#7cb5ec" d="M 50 195.9 C 55.3 195.9 55.3 203.9 50 203.9 C 44.6 203.9 44.6 195.9 50 195.9 Z"></path><path fill="#7cb5ec" d="M 16 195.1 C 21.3 195.1 21.3 203.1 16 203.1 C 10.6 203.1 10.6 195.1 16 195.1 Z"></path></g><g class="highcharts-series" visibility="visible"  transform="translate(61,61) scale(1 1)" clip-path="url(#highcharts-3)"><path fill="none" d="M 16.9 261.4 L 50.8 252.7 L 84.7 210.3 L 118.7 161.8 L 152.6 112.5 L 186.5 69.2 L 220.4 45.0 L 254.3 51.0 L 288.2 85.7 L 322.2 137.6 L 356.1 185.2 L 390.0 238.0" stroke="#434348" stroke-width="2"  stroke-linejoin="round" stroke-linecap="round"></path><path fill="none" d="M 6.9 261.4 L 16.9 261.4 L 50.8 252.7 L 84.7 210.3 L 118.7 161.8 L 152.6 112.5 L 186.5 69.2 L 220.4 45.0 L 254.3 51.0 L 288.2 85.7 L 322.2 137.6 L 356.1 185.2 L 390.0 238.0 L 400.0 238.0" stroke-linejoin="round" visibility="visible" stroke="rgb(192,192,192)" stroke-opacity="0.0" stroke-width="22"  class=" highcharts-tracker" style=""></path></g><g class="highcharts-markers highcharts-tracker" visibility="visible"  transform="translate(61,61) scale(1 1)" clip-path="url(#highcharts-2)" style=""><path fill="#434348" d="M 390 234.0 L 394 238.0 390 242.0 386 238.0 Z"></path><path fill="#434348" d="M 356 181.2 L 360 185.2 356 189.2 352 185.2 Z"></path><path fill="#434348" d="M 322 133.6 L 326 137.6 322 141.6 318 137.6 Z"></path><path fill="#434348" d="M 288 81.7 L 292 85.7 288 89.7 284 85.7 Z"></path><path fill="#434348" d="M 254 47.0 L 258 51.0 254 55.0 250 51.0 Z"></path><path fill="#434348" d="M 220 41.0 L 224 45.0 220 49.0 216 45.0 Z"></path><path fill="#434348" d="M 186 65.2 L 190 69.2 186 73.2 182 69.2 Z"></path><path fill="#434348" d="M 152 108.5 L 156 112.5 152 116.5 148 112.5 Z"></path><path fill="#434348" d="M 118 157.8 L 122 161.8 118 165.8 114 161.8 Z"></path><path fill="#434348" d="M 84 206.3 L 88 210.3 84 214.3 80 210.3 Z"></path><path fill="#434348" d="M 50 248.7 L 54 252.7 50 256.7 46 252.7 Z"></path><path fill="#434348" d="M 16 257.4 L 20 261.4 16 265.4 12 261.4 Z"></path></g><g class="highcharts-series" visibility="visible"  transform="translate(61,61) scale(1 1)" clip-path="url(#highcharts-3)"><path fill="none" d="M 16.9 267.5 L 50.8 254.5 L 84.7 229.4 L 118.7 186.9 L 152.6 142.8 L 186.5 112.5 L 220.4 98.6 L 254.3 104.7 L 288.2 135.9 L 322.2 181.8 L 356.1 225.9 L 390.0 251.0" stroke="#90ed7d" stroke-width="2"  stroke-linejoin="round" stroke-linecap="round"></path><path fill="none" d="M 6.9 267.5 L 16.9 267.5 L 50.8 254.5 L 84.7 229.4 L 118.7 186.9 L 152.6 142.8 L 186.5 112.5 L 220.4 98.6 L 254.3 104.7 L 288.2 135.9 L 322.2 181.8 L 356.1 225.9 L 390.0 251.0 L 400.0 251.0" stroke-linejoin="round" visibility="visible" stroke="rgb(192,192,192)" stroke-opacity="0.0" stroke-width="22"  class=" highcharts-tracker" style=""></path></g><g class="highcharts-markers highcharts-tracker" visibility="visible"  transform="translate(61,61) scale(1 1)" clip-path="url(#highcharts-2)" style=""><path fill="#90ed7d" d="M 386 247.0 L 394 247.0 394 255.0 386 255.0 Z"></path><path fill="#90ed7d" d="M 352 221.9 L 360 221.9 360 229.9 352 229.9 Z"></path><path fill="#90ed7d" d="M 318 177.8 L 326 177.8 326 185.8 318 185.8 Z"></path><path fill="#90ed7d" d="M 284 131.9 L 292 131.9 292 139.9 284 139.9 Z"></path><path fill="#90ed7d" d="M 250 100.7 L 258 100.7 258 108.7 250 108.7 Z"></path><path fill="#90ed7d" d="M 216 94.6 L 224 94.6 224 102.6 216 102.6 Z"></path><path fill="#90ed7d" d="M 182 108.5 L 190 108.5 190 116.5 182 116.5 Z"></path><path fill="#90ed7d" d="M 148 138.8 L 156 138.8 156 146.8 148 146.8 Z"></path><path fill="#90ed7d" d="M 114 182.9 L 122 182.9 122 190.9 114 190.9 Z"></path><path fill="#90ed7d" d="M 80 225.4 L 88 225.4 88 233.4 80 233.4 Z"></path><path fill="#90ed7d" d="M 46 250.5 L 54 250.5 54 258.5 46 258.5 Z"></path><path fill="#90ed7d" d="M 12 263.5 L 20 263.5 20 271.5 12 271.5 Z"></path></g><g class="highcharts-series" visibility="visible"  transform="translate(61,61) scale(1 1)" clip-path="url(#highcharts-3)"><path fill="none" d="M 16.9 225.9 L 50.8 223.3 L 84.7 210.3 L 118.7 186.1 L 152.6 156.6 L 186.5 128.1 L 220.4 112.5 L 254.3 116.0 L 288.2 136.7 L 322.2 170.5 L 356.1 202.5 L 390.0 218.1" stroke="#f7a35c" stroke-width="2"  stroke-linejoin="round" stroke-linecap="round"></path><path fill="none" d="M 6.9 225.9 L 16.9 225.9 L 50.8 223.3 L 84.7 210.3 L 118.7 186.1 L 152.6 156.6 L 186.5 128.1 L 220.4 112.5 L 254.3 116.0 L 288.2 136.7 L 322.2 170.5 L 356.1 202.5 L 390.0 218.1 L 400.0 218.1" stroke-linejoin="round" visibility="visible" stroke="rgb(192,192,192)" stroke-opacity="0.0" stroke-width="22"  class=" highcharts-tracker" style=""></path></g><g class="highcharts-markers highcharts-tracker" visibility="visible"  transform="translate(61,61) scale(1 1)" clip-path="url(#highcharts-2)" style=""><path fill="#f7a35c" d="M 390 214.1 L 394 222.1 386 222.1 Z"></path><path fill="#f7a35c" d="M 356 198.5 L 360 206.5 352 206.5 Z"></path><path fill="#f7a35c" d="M 322 166.5 L 326 174.5 318 174.5 Z"></path><path fill="#f7a35c" d="M 288 132.7 L 292 140.7 284 140.7 Z"></path><path fill="#f7a35c" d="M 254 112.0 L 258 120.0 250 120.0 Z"></path><path fill="#f7a35c" d="M 220 108.5 L 224 116.5 216 116.5 Z"></path><path fill="#f7a35c" d="M 186 124.1 L 190 132.1 182 132.1 Z"></path><path fill="#f7a35c" d="M 152 152.6 L 156 160.6 148 160.6 Z"></path><path fill="#f7a35c" d="M 118 182.1 L 122 190.1 114 190.1 Z"></path><path fill="#f7a35c" d="M 84 206.3 L 88 214.3 80 214.3 Z"></path><path fill="#f7a35c" d="M 50 219.3 L 54 227.3 46 227.3 Z"></path><path fill="#f7a35c" d="M 16 221.9 L 20 229.9 12 229.9 Z"></path></g></g><text x="272" text-anchor="middle" class="highcharts-title"  style="color:#333333;font-size:18px;fill:#333333;width:520px;" y="24"><tspan>Monthly Average Temperature</tspan></text><text x="272" text-anchor="middle" class="highcharts-subtitle"  style="color:#555555;fill:#555555;width:520px;" y="46"><tspan>Source: WorldClimate.com</tspan></text><g class="highcharts-legend"  transform="translate(480,164)"><g ><g><g class="highcharts-legend-item"  transform="translate(8,3)"><path fill="none" d="M 0 11 L 16 11" stroke="#7cb5ec" stroke-width="2"></path><path fill="#7cb5ec" d="M 8 7 C 13.3 7 13.3 15 8 15 C 2.6 15 2.6 7 8 7 Z"></path><text x="21" style="color:#333333;font-size:12px;font-weight:bold;cursor:pointer;fill:#333333;" text-anchor="start"  y="15">Tokyo</text></g><g class="highcharts-legend-item"  transform="translate(8,17)"><path fill="none" d="M 0 11 L 16 11" stroke="#434348" stroke-width="2"></path><path fill="#434348" d="M 8 7 L 12 11 8 15 4 11 Z"></path><text x="21" y="15" style="color:#333333;font-size:12px;font-weight:bold;cursor:pointer;fill:#333333;" text-anchor="start" ><tspan>New York</tspan></text></g><g class="highcharts-legend-item"  transform="translate(8,31)"><path fill="none" d="M 0 11 L 16 11" stroke="#90ed7d" stroke-width="2"></path><path fill="#90ed7d" d="M 4 7 L 12 7 12 15 4 15 Z"></path><text x="21" y="15" style="color:#333333;font-size:12px;font-weight:bold;cursor:pointer;fill:#333333;" text-anchor="start" >Berlin</text></g><g class="highcharts-legend-item"  transform="translate(8,45)"><path fill="none" d="M 0 11 L 16 11" stroke="#f7a35c" stroke-width="2"></path><path fill="#f7a35c" d="M 8 7 L 12 15 4 15 Z"></path><text x="21" y="15" style="color:#333333;font-size:12px;font-weight:bold;cursor:pointer;fill:#333333;" text-anchor="start" >London</text></g></g></g></g><g class="highcharts-axis-labels highcharts-xaxis-labels" ><text x="77.9" style="color:#606060;cursor:default;font-size:11px;fill:#606060;" text-anchor="middle" transform="translate(0,0)" y="383" opacity="1">Jan</text><text x="111.8" style="color:#606060;cursor:default;font-size:11px;fill:#606060;" text-anchor="middle" transform="translate(0,0)" y="383" opacity="1">Feb</text><text x="145.7" style="color:#606060;cursor:default;font-size:11px;fill:#606060;" text-anchor="middle" transform="translate(0,0)" y="383" opacity="1">Mar</text><text x="179.7" style="color:#606060;cursor:default;font-size:11px;fill:#606060;" text-anchor="middle" transform="translate(0,0)" y="383" opacity="1">Apr</text><text x="213.6" style="color:#606060;cursor:default;font-size:11px;fill:#606060;" text-anchor="middle" transform="translate(0,0)" y="383" opacity="1">May</text><text x="247.5" style="color:#606060;cursor:default;font-size:11px;fill:#606060;" text-anchor="middle" transform="translate(0,0)" y="383" opacity="1">Jun</text><text x="281.4" style="color:#606060;cursor:default;font-size:11px;fill:#606060;" text-anchor="middle" transform="translate(0,0)" y="383" opacity="1">Jul</text><text x="315.3" style="color:#606060;cursor:default;font-size:11px;fill:#606060;" text-anchor="middle" transform="translate(0,0)" y="383" opacity="1">Aug</text><text x="349.2" style="color:#606060;cursor:default;font-size:11px;fill:#606060;" text-anchor="middle" transform="translate(0,0)" y="383" opacity="1">Sep</text><text x="383.2" style="color:#606060;cursor:default;font-size:11px;fill:#606060;" text-anchor="middle" transform="translate(0,0)" y="383" opacity="1">Oct</text><text x="417.1" style="color:#606060;cursor:default;font-size:11px;fill:#606060;" text-anchor="middle" transform="translate(0,0)" y="383" opacity="1">Nov</text><text x="451.0" style="color:#606060;cursor:default;font-size:11px;fill:#606060;" text-anchor="middle" transform="translate(0,0)" y="383" opacity="1">Dec</text></g><g class="highcharts-axis-labels highcharts-yaxis-labels" ><text x="46" style="color:#606060;cursor:default;font-size:11px;fill:#606060;width:183px;text-overflow:clip;" text-anchor="end" transform="translate(0,0)" y="369" opacity="1">-5</text><text x="46" style="color:#606060;cursor:default;font-size:11px;fill:#606060;width:183px;text-overflow:clip;" text-anchor="end" transform="translate(0,0)" y="325" opacity="1">0</text><text x="46" style="color:#606060;cursor:default;font-size:11px;fill:#606060;width:183px;text-overflow:clip;" text-anchor="end" transform="translate(0,0)" y="282" opacity="1">5</text><text x="46" style="color:#606060;cursor:default;font-size:11px;fill:#606060;width:183px;text-overflow:clip;" text-anchor="end" transform="translate(0,0)" y="239" opacity="1">10</text><text x="46" style="color:#606060;cursor:default;font-size:11px;fill:#606060;width:183px;text-overflow:clip;" text-anchor="end" transform="translate(0,0)" y="195" opacity="1">15</text><text x="46" style="color:#606060;cursor:default;font-size:11px;fill:#606060;width:183px;text-overflow:clip;" text-anchor="end" transform="translate(0,0)" y="152" opacity="1">20</text><text x="46" style="color:#606060;cursor:default;font-size:11px;fill:#606060;width:183px;text-overflow:clip;" text-anchor="end" transform="translate(0,0)" y="109" opacity="1">25</text><text x="46" style="color:#606060;cursor:default;font-size:11px;fill:#606060;width:183px;text-overflow:clip;" text-anchor="end" transform="translate(0,0)" y="66" opacity="1">30</text></g><g class="highcharts-tooltip"  style="cursor:default;padding:0;white-space:nowrap;" transform="translate(0,-9999)"><path fill="none" d="M 3 0 L 13 0 C 16 0 16 0 16 3 L 16 13 C 16 16 16 16 13 16 L 3 16 C 0 16 0 16 0 13 L 0 3 C 0 0 0 0 3 0"  stroke="black" stroke-opacity="0.0" stroke-width="5" transform="translate(1, 1)"></path><path fill="none" d="M 3 0 L 13 0 C 16 0 16 0 16 3 L 16 13 C 16 16 16 16 13 16 L 3 16 C 0 16 0 16 0 13 L 0 3 C 0 0 0 0 3 0"  stroke="black" stroke-opacity="0.0" stroke-width="3" transform="translate(1, 1)"></path><path fill="none" d="M 3 0 L 13 0 C 16 0 16 0 16 3 L 16 13 C 16 16 16 16 13 16 L 3 16 C 0 16 0 16 0 13 L 0 3 C 0 0 0 0 3 0"  stroke="black" stroke-opacity="0.1" stroke-width="1" transform="translate(1, 1)"></path><path fill="rgb(249, 249, 249)" fill-opacity=" .85" d="M 3 0 L 13 0 C 16 0 16 0 16 3 L 16 13 C 16 16 16 16 13 16 L 3 16 C 0 16 0 16 0 13 L 0 3 C 0 0 0 0 3 0"></path><text x="8"  style="font-size:12px;color:#333333;fill:#333333;" transform="translate(0,20)"></text></g></svg>