<svg version="1.1" style="font-family:&quot;lucida grande&quot;, &quot;lucida sans unicode&quot;, arial, helvetica, sans-serif;font-size:12px;" xmlns="http://www.w3.org/2000/svg" width="600" height="400" viewBox="0 0 600 400"><desc>Created with Highcharts 4.1.4</desc><defs><clipPath id="highcharts-1"><rect x="0" y="0" width="580" height="338"></rect></clipPath></defs><rect x="0" y="0" width="600" height="400" strokeWidth="0" fill="#FFFFFF" class=" highcharts-background" stroke="transparent"></rect><g class="highcharts-series-group" ><g class="highcharts-series highcharts-tracker" visibility="visible"  transform="translate(10,47) scale(1 1)" style=""><path fill="#7cb5ec" d="M 289.9 69.6 A 99.4 99.4 0 1 1 252.0 260.8 L 290 169 A 0 0 0 1 0 290 169 Z" stroke="#FFFFFF" stroke-width="1" stroke-linejoin="round" transform="translate(0,0)"></path><path fill="#434348" d="M 251.9 260.8 A 99.4 99.4 0 0 1 192.7 148.4 L 290 169 A 0 0 0 0 0 290 169 Z" stroke="#FFFFFF" stroke-width="1" stroke-linejoin="round" transform="translate(0,0)"></path><path fill="#90ed7d" d="M 192.7 148.3 A 99.4 99.4 0 0 1 234.1 86.7 L 290 169 A 0 0 0 0 0 290 169 Z" stroke="#FFFFFF" stroke-width="1" stroke-linejoin="round" transform="translate(0,0)"></path><path fill="#f7a35c" d="M 234.2 86.7 A 99.4 99.4 0 0 1 276.2 70.5 L 290 169 A 0 0 0 0 0 290 169 Z" stroke="#FFFFFF" stroke-width="1" stroke-linejoin="round" transform="translate(0,0)"></path><path fill="#8085e9" d="M 276.3 70.5 A 99.4 99.4 0 0 1 289.8 69.6 L 290 169 A 0 0 0 0 0 290 169 Z" stroke="#FFFFFF" stroke-width="1" stroke-linejoin="round" transform="translate(0,0)"></path></g><g class="highcharts-markers" visibility="visible"  transform="translate(10,47) scale(1 1)"></g><g class="highcharts-series highcharts-tracker" visibility="visible"  transform="translate(10,47) scale(1 1)" style=""><path fill="rgb(175,232,255)" fill-opacity="1" d="M 289.9 39.8 A 129.2 129.2 0 0 1 374.0 70.9 L 340.4 110.1 A 77.5 77.5 0 0 0 289.9 91.4 Z" stroke="#FFFFFF" stroke-width="1" stroke-linejoin="round" transform="translate(0,0)"></path><path fill="rgb(162,219,255)" fill-opacity="1" d="M 374.1 71.0 A 129.2 129.2 0 0 1 409.9 120.9 L 361.9 140.1 A 77.5 77.5 0 0 0 340.5 110.2 Z" stroke="#FFFFFF" stroke-width="1" stroke-linejoin="round" transform="translate(0,0)"></path><path fill="rgb(149,206,255)" fill-opacity="1" d="M 409.9 121.0 A 129.2 129.2 0 0 1 263.0 295.3 L 273.8 244.8 A 77.5 77.5 0 0 0 361.9 140.2 Z" stroke="#FFFFFF" stroke-width="1" stroke-linejoin="round" transform="translate(0,0)"></path><path fill="rgb(136,193,248)" fill-opacity="1" d="M 262.9 295.3 A 129.2 129.2 0 0 1 240.3 288.2 L 260.2 240.5 A 77.5 77.5 0 0 0 273.7 244.7 Z" stroke="#FFFFFF" stroke-width="1" stroke-linejoin="round" transform="translate(0,0)"></path><path fill="rgb(118,118,123)" fill-opacity="1" d="M 240.2 288.2 A 129.2 129.2 0 0 1 238.8 287.6 L 259.2 240.1 A 77.5 77.5 0 0 0 260.1 240.5 Z" stroke="#FFFFFF" stroke-width="1" stroke-linejoin="round" transform="translate(0,0)"></path><path fill="rgb(107,107,112)" fill-opacity="1" d="M 238.7 287.5 A 129.2 129.2 0 0 1 232.3 284.6 L 255.4 238.3 A 77.5 77.5 0 0 0 259.2 240.1 Z" stroke="#FFFFFF" stroke-width="1" stroke-linejoin="round" transform="translate(0,0)"></path><path fill="rgb(97,97,102)" fill-opacity="1" d="M 232.2 284.5 A 129.2 129.2 0 0 1 220.8 278.1 L 248.4 234.4 A 77.5 77.5 0 0 0 255.3 238.3 Z" stroke="#FFFFFF" stroke-width="1" stroke-linejoin="round" transform="translate(0,0)"></path><path fill="rgb(87,87,92)" fill-opacity="1" d="M 220.6 278.0 A 129.2 129.2 0 0 1 162.2 187.9 L 213.3 180.3 A 77.5 77.5 0 0 0 248.4 234.4 Z" stroke="#FFFFFF" stroke-width="1" stroke-linejoin="round" transform="translate(0,0)"></path><path fill="rgb(77,77,82)" fill-opacity="1" d="M 162.1 187.8 A 129.2 129.2 0 0 1 163.5 142.3 L 214.1 153.0 A 77.5 77.5 0 0 0 213.3 180.3 Z" stroke="#FFFFFF" stroke-width="1" stroke-linejoin="round" transform="translate(0,0)"></path><path fill="rgb(195,255,176)" fill-opacity="1" d="M 163.5 142.2 A 129.2 129.2 0 0 1 163.7 141.3 L 214.2 152.4 A 77.5 77.5 0 0 0 214.1 152.9 Z" stroke="#FFFFFF" stroke-width="1" stroke-linejoin="round" transform="translate(0,0)"></path><path fill="rgb(188,255,169)" fill-opacity="1" d="M 163.8 141.2 A 129.2 129.2 0 0 1 164.1 139.7 L 214.4 151.4 A 77.5 77.5 0 0 0 214.2 152.3 Z" stroke="#FFFFFF" stroke-width="1" stroke-linejoin="round" transform="translate(0,0)"></path><path fill="rgb(182,255,163)" fill-opacity="1" d="M 164.1 139.6 A 129.2 129.2 0 0 1 164.3 138.7 L 214.6 150.8 A 77.5 77.5 0 0 0 214.5 151.3 Z" stroke="#FFFFFF" stroke-width="1" stroke-linejoin="round" transform="translate(0,0)"></path><path fill="rgb(175,255,156)" fill-opacity="1" d="M 164.4 138.6 A 129.2 129.2 0 0 1 165.1 135.8 L 215.0 149.1 A 77.5 77.5 0 0 0 214.6 150.7 Z" stroke="#FFFFFF" stroke-width="1" stroke-linejoin="round" transform="translate(0,0)"></path><path fill="rgb(169,255,150)" fill-opacity="1" d="M 165.1 135.7 A 129.2 129.2 0 0 1 165.8 133.2 L 215.5 147.5 A 77.5 77.5 0 0 0 215.0 149.0 Z" stroke="#FFFFFF" stroke-width="1" stroke-linejoin="round" transform="translate(0,0)"></path><path fill="rgb(163,255,144)" fill-opacity="1" d="M 165.8 133.1 A 129.2 129.2 0 0 1 212.5 65.5 L 243.5 106.9 A 77.5 77.5 0 0 0 215.5 147.4 Z" stroke="#FFFFFF" stroke-width="1" stroke-linejoin="round" transform="translate(0,0)"></path><path fill="rgb(156,249,137)" fill-opacity="1" d="M 212.6 65.4 A 129.2 129.2 0 0 1 216.0 63.0 L 245.6 105.4 A 77.5 77.5 0 0 0 243.6 106.8 Z" stroke="#FFFFFF" stroke-width="1" stroke-linejoin="round" transform="translate(0,0)"></path><path fill="rgb(150,243,131)" fill-opacity="1" d="M 216.1 62.9 A 129.2 129.2 0 0 1 217.5 62.0 L 246.5 104.8 A 77.5 77.5 0 0 0 245.6 105.3 Z" stroke="#FFFFFF" stroke-width="1" stroke-linejoin="round" transform="translate(0,0)"></path><path fill="rgb(255,214,143)" fill-opacity="1" d="M 217.6 61.9 A 129.2 129.2 0 0 1 252.1 45.4 L 267.2 94.8 A 77.5 77.5 0 0 0 246.5 104.7 Z" stroke="#FFFFFF" stroke-width="1" stroke-linejoin="round" transform="translate(0,0)"></path><path fill="rgb(255,206,135)" fill-opacity="1" d="M 252.2 45.4 A 129.2 129.2 0 0 1 263.7 42.4 L 274.2 93.0 A 77.5 77.5 0 0 0 267.3 94.8 Z" stroke="#FFFFFF" stroke-width="1" stroke-linejoin="round" transform="translate(0,0)"></path><path fill="rgb(255,199,128)" fill-opacity="1" d="M 263.9 42.4 A 129.2 129.2 0 0 1 265.6 42.1 L 275.4 92.8 A 77.5 77.5 0 0 0 274.3 93.0 Z" stroke="#FFFFFF" stroke-width="1" stroke-linejoin="round" transform="translate(0,0)"></path><path fill="rgb(255,192,121)" fill-opacity="1" d="M 265.8 42.0 A 129.2 129.2 0 0 1 267.4 41.7 L 276.4 92.6 A 77.5 77.5 0 0 0 275.4 92.8 Z" stroke="#FFFFFF" stroke-width="1" stroke-linejoin="round" transform="translate(0,0)"></path><path fill="rgb(255,184,113)" fill-opacity="1" d="M 267.5 41.7 A 129.2 129.2 0 0 1 269.1 41.4 L 277.4 92.4 A 77.5 77.5 0 0 0 276.5 92.6 Z" stroke="#FFFFFF" stroke-width="1" stroke-linejoin="round" transform="translate(0,0)"></path><path fill="rgb(255,177,106)" fill-opacity="1" d="M 269.2 41.4 A 129.2 129.2 0 0 1 270.6 41.2 L 278.3 92.3 A 77.5 77.5 0 0 0 277.5 92.4 Z" stroke="#FFFFFF" stroke-width="1" stroke-linejoin="round" transform="translate(0,0)"></path><path fill="rgb(254,170,99)" fill-opacity="1" d="M 270.7 41.2 A 129.2 129.2 0 0 1 271.7 41.0 L 279.0 92.2 A 77.5 77.5 0 0 0 278.4 92.3 Z" stroke="#FFFFFF" stroke-width="1" stroke-linejoin="round" transform="translate(0,0)"></path><path fill="rgb(179,184,255)" fill-opacity="1" d="M 271.9 41.0 A 129.2 129.2 0 0 1 272.8 40.9 L 279.6 92.1 A 77.5 77.5 0 0 0 279.1 92.2 Z" stroke="#FFFFFF" stroke-width="1" stroke-linejoin="round" transform="translate(0,0)"></path><path fill="rgb(162,167,255)" fill-opacity="1" d="M 272.9 40.9 A 129.2 129.2 0 0 1 275.8 40.5 L 281.5 91.9 A 77.5 77.5 0 0 0 279.7 92.1 Z" stroke="#FFFFFF" stroke-width="1" stroke-linejoin="round" transform="translate(0,0)"></path><path fill="rgb(145,150,250)" fill-opacity="1" d="M 276.0 40.5 A 129.2 129.2 0 0 1 289.8 39.8 L 289.8 91.4 A 77.5 77.5 0 0 0 281.6 91.9 Z" stroke="#FFFFFF" stroke-width="1" stroke-linejoin="round" transform="translate(0,0)"></path></g><g class="highcharts-markers" visibility="visible"  transform="translate(10,47) scale(1 1)"></g></g><text x="300" text-anchor="middle" class="highcharts-title"  style="color:#333333;font-size:18px;fill:#333333;width:536px;" y="24"><tspan>Browser market share, April, 2011</tspan></text><g class="highcharts-data-labels highcharts-tracker" visibility="visible"  transform="translate(10,47) scale(1 1)" style=""><g  style="" transform="translate(342,173)"><text x="5"  style="font-size: 11px; font-weight: bold; color: white; fill: #ffffff; text-shadow: rgb(0, 0, 0) 0px 0px 6px, rgb(0, 0, 0) 0px 0px 3px; " transform="translate(0,16)"><tspan>MSIE</tspan></text></g><g  style="" transform="translate(207,191)"><text x="5"  style="font-size: 11px; font-weight: bold; color: white; fill: #ffffff; text-shadow: rgb(0, 0, 0) 0px 0px 6px, rgb(0, 0, 0) 0px 0px 3px; " transform="translate(0,16)"><tspan>Firefox</tspan></text></g><g  style="" transform="translate(208,120)"><text x="5"  style="font-size: 11px; font-weight: bold; color: white; fill: #ffffff; text-shadow: rgb(0, 0, 0) 0px 0px 6px, rgb(0, 0, 0) 0px 0px 3px; " transform="translate(0,16)"><tspan>Chrome</tspan></text></g><g  style="" transform="translate(246,94)"><text x="5"  style="font-size: 11px; font-weight: bold; color: white; fill: #ffffff; text-shadow: rgb(0, 0, 0) 0px 0px 6px, rgb(0, 0, 0) 0px 0px 3px; " transform="translate(0,16)"><tspan>Safari</tspan></text></g></g><g class="highcharts-data-labels highcharts-tracker" visibility="visible"  transform="translate(10,47) scale(1 1)" style=""><path fill="none" d="M 350.3 19.7 C 345.3 19.7 342.5 27.2 338.7 37.5 L 334.8 47.8" stroke="rgb(175,232,255)" stroke-opacity="1" stroke-width="1"></path><path fill="none" d="M 424.5 76.4 C 419.5 76.4 413.0 81.0 404.0 87.4 L 395.1 93.8" stroke="rgb(162,219,255)" stroke-opacity="1" stroke-width="1"></path><path fill="none" d="M 416.6 271.6 C 411.6 271.6 405.5 266.5 397.1 259.4 L 388.7 252.3" stroke="rgb(149,206,255)" stroke-opacity="1" stroke-width="1"></path><path fill="none" d="M 237.4 320.9 C 242.4 320.9 244.8 313.2 248.0 302.7 L 251.3 292.2" stroke="rgb(136,193,248)" stroke-opacity="1" stroke-width="1"></path><path fill="none" d="M 176.8 285.8 C 181.8 285.8 215.5 300.6 221.0 291.0 L 226.4 281.4" stroke="rgb(97,97,102)" stroke-opacity="1" stroke-width="1"></path><path fill="none" d="M 151.4 255.6 C 156.4 255.6 163.1 251.2 172.3 245.3 L 181.6 239.3" stroke="rgb(87,87,92)" stroke-opacity="1" stroke-width="1"></path><path fill="none" d="M 125.8 164.0 C 130.8 164.0 138.8 164.2 149.8 164.6 L 160.8 164.9" stroke="rgb(77,77,82)" stroke-opacity="1" stroke-width="1"></path><path fill="none" d="M 153.8 78.8 C 158.8 78.8 165.6 82.9 174.7 89.1 L 183.7 95.4" stroke="rgb(163,255,144)" stroke-opacity="1" stroke-width="1"></path><path fill="none" d="M 173.0 55.8 C 178.0 55.8 224.8 32.5 229.6 42.4 L 234.3 52.3" stroke="rgb(255,214,143)" stroke-opacity="1" stroke-width="1"></path><path fill="none" d="M 202.5 32.8 C 207.5 32.8 252.6 22.4 255.3 33.1 L 258.0 43.8" stroke="rgb(255,206,135)" stroke-opacity="1" stroke-width="1"></path><path fill="none" d="M 276.4 9.8 C 281.4 9.8 281.8 18.0 282.4 29.0 L 283.0 39.9" stroke="rgb(145,150,250)" stroke-opacity="1" stroke-width="1"></path><g  style="" transform="translate(355,10)"><text x="5"  style="font-size: 11px; font-weight: bold; color: rgb(0, 0, 0); fill: #000000; text-shadow: rgb(255, 255, 255) 0px 0px 6px, rgb(255, 255, 255) 0px 0px 3px; " transform="translate(0,16)"><tspan style="font-weight:bold">MSIE 6.0:</tspan><tspan dx="0"> 10.8%</tspan></text></g><g  style="" transform="translate(430,66)"><text x="5"  style="font-size: 11px; font-weight: bold; color: rgb(0, 0, 0); fill: #000000; text-shadow: rgb(255, 255, 255) 0px 0px 6px, rgb(255, 255, 255) 0px 0px 3px; " transform="translate(0,16)"><tspan style="font-weight:bold">MSIE 7.0:</tspan><tspan dx="0"> 7.3%</tspan></text></g><g  style="" transform="translate(422,262)"><text x="5"  style="font-size: 11px; font-weight: bold; color: rgb(0, 0, 0); fill: #000000; text-shadow: rgb(255, 255, 255) 0px 0px 6px, rgb(255, 255, 255) 0px 0px 3px; " transform="translate(0,16)"><tspan style="font-weight:bold">MSIE 8.0:</tspan><tspan dx="0"> 33.0%</tspan></text></g><g  style="" transform="translate(136,311)"><text x="5"  style="font-size: 11px; font-weight: bold; color: rgb(0, 0, 0); fill: #000000; text-shadow: rgb(255, 255, 255) 0px 0px 6px, rgb(255, 255, 255) 0px 0px 3px; " transform="translate(0,16)"><tspan style="font-weight:bold">MSIE 9.0:</tspan><tspan dx="0"> 2.8%</tspan></text></g><g  style="" transform="translate(65,276)"><text x="5"  style="font-size: 11px; font-weight: bold; color: rgb(0, 0, 0); fill: #000000; text-shadow: rgb(255, 255, 255) 0px 0px 6px, rgb(255, 255, 255) 0px 0px 3px; " transform="translate(0,16)"><tspan style="font-weight:bold">Firefox 3.5:</tspan><tspan dx="0"> 1.5%</tspan></text></g><g  style="" transform="translate(32,246)"><text x="5"  style="font-size: 11px; font-weight: bold; color: rgb(0, 0, 0); fill: #000000; text-shadow: rgb(255, 255, 255) 0px 0px 6px, rgb(255, 255, 255) 0px 0px 3px; " transform="translate(0,16)"><tspan style="font-weight:bold">Firefox 3.6:</tspan><tspan dx="0"> 13.1%</tspan></text></g><g  style="" transform="translate(14,154)"><text x="5"  style="font-size: 11px; font-weight: bold; color: rgb(0, 0, 0); fill: #000000; text-shadow: rgb(255, 255, 255) 0px 0px 6px, rgb(255, 255, 255) 0px 0px 3px; " transform="translate(0,16)"><tspan style="font-weight:bold">Firefox 4.0:</tspan><tspan dx="0"> 5.4%</tspan></text></g><g  style="" transform="translate(30,69)"><text x="5"  style="font-size: 11px; font-weight: bold; color: rgb(0, 0, 0); fill: #000000; text-shadow: rgb(255, 255, 255) 0px 0px 6px, rgb(255, 255, 255) 0px 0px 3px; " transform="translate(0,16)"><tspan style="font-weight:bold">Chrome 10.0:</tspan><tspan dx="0"> 9.9%</tspan></text></g><g  style="" transform="translate(67,46)"><text x="5"  style="font-size: 11px; font-weight: bold; color: rgb(0, 0, 0); fill: #000000; text-shadow: rgb(255, 255, 255) 0px 0px 6px, rgb(255, 255, 255) 0px 0px 3px; " transform="translate(0,16)"><tspan style="font-weight:bold">Safari 5.0:</tspan><tspan dx="0"> 4.5%</tspan></text></g><g  style="" transform="translate(97,23)"><text x="5"  style="font-size: 11px; font-weight: bold; color: rgb(0, 0, 0); fill: #000000; text-shadow: rgb(255, 255, 255) 0px 0px 6px, rgb(255, 255, 255) 0px 0px 3px; " transform="translate(0,16)"><tspan style="font-weight:bold">Safari 4.0:</tspan><tspan dx="0"> 1.4%</tspan></text></g><g  style="" transform="translate(162,0)"><text x="5"  style="font-size: 11px; font-weight: bold; color: rgb(0, 0, 0); fill: #000000; text-shadow: rgb(255, 255, 255) 0px 0px 6px, rgb(255, 255, 255) 0px 0px 3px; " transform="translate(0,16)"><tspan style="font-weight:bold">Opera 11.x:</tspan><tspan dx="0"> 1.6%</tspan></text></g></g><g class="highcharts-legend" ><g ><g></g></g></g><g class="highcharts-tooltip"  style="cursor:default;padding:0;white-space:nowrap;" transform="translate(0,-9999)"><path fill="none" d="M 3 0 L 13 0 C 16 0 16 0 16 3 L 16 13 C 16 16 16 16 13 16 L 3 16 C 0 16 0 16 0 13 L 0 3 C 0 0 0 0 3 0"  stroke="black" stroke-opacity="0.0" stroke-width="5" transform="translate(1, 1)"></path><path fill="none" d="M 3 0 L 13 0 C 16 0 16 0 16 3 L 16 13 C 16 16 16 16 13 16 L 3 16 C 0 16 0 16 0 13 L 0 3 C 0 0 0 0 3 0"  stroke="black" stroke-opacity="0.0" stroke-width="3" transform="translate(1, 1)"></path><path fill="none" d="M 3 0 L 13 0 C 16 0 16 0 16 3 L 16 13 C 16 16 16 16 13 16 L 3 16 C 0 16 0 16 0 13 L 0 3 C 0 0 0 0 3 0"  stroke="black" stroke-opacity="0.1" stroke-width="1" transform="translate(1, 1)"></path><path fill="rgb(249, 249, 249)" fill-opacity=" .85" d="M 3 0 L 13 0 C 16 0 16 0 16 3 L 16 13 C 16 16 16 16 13 16 L 3 16 C 0 16 0 16 0 13 L 0 3 C 0 0 0 0 3 0"></path><text x="8"  style="font-size:12px;color:#333333;fill:#333333;" transform="translate(0,20)"></text></g></svg>