<svg version="1.1" style="font-family:&quot;lucida grande&quot;, &quot;lucida sans unicode&quot;, arial, helvetica, sans-serif;font-size:12px;" xmlns="http://www.w3.org/2000/svg" width="584" height="400" viewBox="0 0 584 400"><desc>Created with Highcharts 4.1.4</desc><defs><clipPath id="highcharts-1"><rect x="0" y="0" width="507" height="284"></rect></clipPath><clipPath id="highcharts-2"><rect x="-99" y="-61" width="606" height="400"></rect></clipPath><clipPath id="highcharts-3"><rect x="0" y="0" width="507" height="284"></rect></clipPath></defs><rect x="0" y="0" width="584" height="400" strokeWidth="0" fill="#FFFFFF" class=" highcharts-background" stroke="transparent"></rect><g class="highcharts-grid" ></g><g class="highcharts-grid" ><path fill="none" d="M 67 345.5 L 574 345.5" stroke="#D8D8D8" stroke-width="1"  opacity="1"></path><path fill="none" d="M 67 298.5 L 574 298.5" stroke="#D8D8D8" stroke-width="1"  opacity="1"></path><path fill="none" d="M 67 250.5 L 574 250.5" stroke="#D8D8D8" stroke-width="1"  opacity="1"></path><path fill="none" d="M 67 203.5 L 574 203.5" stroke="#D8D8D8" stroke-width="1"  opacity="1"></path><path fill="none" d="M 67 156.5 L 574 156.5" stroke="#D8D8D8" stroke-width="1"  opacity="1"></path><path fill="none" d="M 67 108.5 L 574 108.5" stroke="#D8D8D8" stroke-width="1"  opacity="1"></path><path fill="none" d="M 67 60.5 L 574 60.5" stroke="#D8D8D8" stroke-width="1"  opacity="1"></path></g><g class="highcharts-axis" ><path fill="none" d="M 66.5 345 L 66.5 355" stroke="#C0D0E0" stroke-width="1" opacity="1"></path><path fill="none" d="M 151.5 345 L 151.5 355" stroke="#C0D0E0" stroke-width="1" opacity="1"></path><path fill="none" d="M 235.5 345 L 235.5 355" stroke="#C0D0E0" stroke-width="1" opacity="1"></path><path fill="none" d="M 320.5 345 L 320.5 355" stroke="#C0D0E0" stroke-width="1" opacity="1"></path><path fill="none" d="M 404.5 345 L 404.5 355" stroke="#C0D0E0" stroke-width="1" opacity="1"></path><path fill="none" d="M 488.5 345 L 488.5 355" stroke="#C0D0E0" stroke-width="1" opacity="1"></path><path fill="none" d="M 574.5 345 L 574.5 355" stroke="#C0D0E0" stroke-width="1" opacity="1"></path><text x="320.5"  text-anchor="middle" transform="translate(0,0)" class=" highcharts-xaxis-title" style="color:#707070;fill:#707070;" visibility="visible" y="383"><tspan>Height (cm)</tspan></text><path fill="none" d="M 67 345.5 L 574 345.5" stroke="#C0D0E0" stroke-width="1"  visibility="visible"></path></g><g class="highcharts-axis" ><text x="24"  text-anchor="middle" transform="translate(0,0) rotate(270 24 203)" class=" highcharts-yaxis-title" style="color:#707070;fill:#707070;" visibility="visible" y="203"><tspan>Weight (kg)</tspan></text></g><g class="highcharts-series-group" ><g class="highcharts-series highcharts-tracker" visibility="visible"  transform="translate(67,61) scale(1 1)" clip-path="url(#highcharts-3)" style=""></g><g class="highcharts-markers highcharts-tracker" visibility="visible"  transform="translate(67,61) scale(1 1)" clip-path="url(#highcharts-2)" style=""><path fill="rgb(223, 83, 83)" fill-opacity=" .5" d="M 201 167.0 C 207.6 167.0 207.6 177.0 201 177.0 C 194.3 177.0 194.3 167.0 201 167.0 Z"></path><path fill="rgb(223, 83, 83)" fill-opacity=" .5" d="M 287 169.1 C 293.6 169.1 293.6 179.1 287 179.1 C 280.3 179.1 280.3 169.1 287 169.1 Z"></path><path fill="rgb(223, 83, 83)" fill-opacity=" .5" d="M 174 211.3 C 180.6 211.3 180.6 221.3 174 221.3 C 167.3 221.3 167.3 211.3 174 211.3 Z"></path><path fill="rgb(223, 83, 83)" fill-opacity=" .5" d="M 206 194.9 C 212.6 194.9 212.6 204.9 206 204.9 C 199.3 204.9 199.3 194.9 206 194.9 Z"></path><path fill="rgb(223, 83, 83)" fill-opacity=" .5" d="M 308 156.4 C 314.6 156.4 314.6 166.4 308 166.4 C 301.3 166.4 301.3 156.4 308 156.4 Z"></path><path fill="rgb(223, 83, 83)" fill-opacity=" .5" d="M 147 144.5 C 153.6 144.5 153.6 154.5 147 154.5 C 140.3 154.5 140.3 144.5 147 144.5 Z"></path><path fill="rgb(223, 83, 83)" fill-opacity=" .5" d="M 190 181.0 C 196.6 181.0 196.6 191.0 190 191.0 C 183.3 191.0 183.3 181.0 190 181.0 Z"></path><path fill="rgb(223, 83, 83)" fill-opacity=" .5" d="M 276 164.9 C 282.6 164.9 282.6 174.9 276 174.9 C 269.3 174.9 269.3 164.9 276 164.9 Z"></path><path fill="rgb(223, 83, 83)" fill-opacity=" .5" d="M 169 147.6 C 175.6 147.6 175.6 157.6 169 157.6 C 162.3 157.6 162.3 147.6 169 147.6 Z"></path><path fill="rgb(223, 83, 83)" fill-opacity=" .5" d="M 249 167.0 C 255.6 167.0 255.6 177.0 249 177.0 C 242.3 177.0 242.3 167.0 249 167.0 Z"></path><path fill="rgb(223, 83, 83)" fill-opacity=" .5" d="M 298 175.8 C 304.6 175.8 304.6 185.8 298 185.8 C 291.3 185.8 291.3 175.8 298 175.8 Z"></path><path fill="rgb(223, 83, 83)" fill-opacity=" .5" d="M 169 174.6 C 175.6 174.6 175.6 184.6 169 184.6 C 162.3 184.6 162.3 174.6 169 174.6 Z"></path><path fill="rgb(223, 83, 83)" fill-opacity=" .5" d="M 249 190.7 C 255.6 190.7 255.6 200.7 249 200.7 C 242.3 200.7 242.3 190.7 249 190.7 Z"></path><path fill="rgb(223, 83, 83)" fill-opacity=" .5" d="M 83 215.5 C 89.6 215.5 89.6 225.5 83 225.5 C 76.3 225.5 76.3 215.5 83 215.5 Z"></path><path fill="rgb(223, 83, 83)" fill-opacity=" .5" d="M 136 184.3 C 142.6 184.3 142.6 194.3 136 194.3 C 129.3 194.3 129.3 184.3 136 184.3 Z"></path><path fill="rgb(223, 83, 83)" fill-opacity=" .5" d="M 179 182.2 C 185.6 182.2 185.6 192.2 179 192.2 C 172.3 192.2 172.3 182.2 179 182.2 Z"></path><path fill="rgb(223, 83, 83)" fill-opacity=" .5" d="M 190 175.8 C 196.6 175.8 196.6 185.8 190 185.8 C 183.3 185.8 183.3 175.8 190 175.8 Z"></path><path fill="rgb(223, 83, 83)" fill-opacity=" .5" d="M 287 194.9 C 293.6 194.9 293.6 204.9 287 204.9 C 280.3 204.9 280.3 194.9 287 194.9 Z"></path><path fill="rgb(223, 83, 83)" fill-opacity=" .5" d="M 190 181.0 C 196.6 181.0 196.6 191.0 190 191.0 C 183.3 191.0 183.3 181.0 190 181.0 Z"></path><path fill="rgb(223, 83, 83)" fill-opacity=" .5" d="M 287 152.1 C 293.6 152.1 293.6 162.1 287 162.1 C 280.3 162.1 280.3 152.1 287 152.1 Z"></path><path fill="rgb(223, 83, 83)" fill-opacity=" .5" d="M 169 184.3 C 175.6 184.3 175.6 194.3 169 194.3 C 162.3 194.3 162.3 184.3 169 184.3 Z"></path><path fill="rgb(223, 83, 83)" fill-opacity=" .5" d="M 212 199.4 C 218.6 199.4 218.6 209.4 212 209.4 C 205.3 209.4 205.3 199.4 212 199.4 Z"></path><path fill="rgb(223, 83, 83)" fill-opacity=" .5" d="M 147 197.3 C 153.6 197.3 153.6 207.3 147 207.3 C 140.3 207.3 140.3 197.3 147 197.3 Z"></path><path fill="rgb(223, 83, 83)" fill-opacity=" .5" d="M 265 199.9 C 271.6 199.9 271.6 209.9 265 209.9 C 258.3 209.9 258.3 199.9 265 199.9 Z"></path><path fill="rgb(223, 83, 83)" fill-opacity=" .5" d="M 298 175.8 C 304.6 175.8 304.6 185.8 298 185.8 C 291.3 185.8 291.3 175.8 298 175.8 Z"></path><path fill="rgb(223, 83, 83)" fill-opacity=" .5" d="M 190 132.7 C 196.6 132.7 196.6 142.7 190 142.7 C 183.3 142.7 183.3 132.7 190 132.7 Z"></path><path fill="rgb(223, 83, 83)" fill-opacity=" .5" d="M 125 188.5 C 131.6 188.5 131.6 198.5 125 198.5 C 118.3 198.5 118.3 188.5 125 188.5 Z"></path><path fill="rgb(223, 83, 83)" fill-opacity=" .5" d="M 233 181.0 C 239.6 181.0 239.6 191.0 233 191.0 C 226.3 191.0 226.3 181.0 233 181.0 Z"></path><path fill="rgb(223, 83, 83)" fill-opacity=" .5" d="M 233 155.2 C 239.6 155.2 239.6 165.2 233 165.2 C 226.3 165.2 226.3 155.2 233 155.2 Z"></path><path fill="rgb(223, 83, 83)" fill-opacity=" .5" d="M 233 173.6 C 239.6 173.6 239.6 183.6 233 183.6 C 226.3 183.6 226.3 173.6 233 173.6 Z"></path><path fill="rgb(223, 83, 83)" fill-opacity=" .5" d="M 169 135.8 C 175.6 135.8 175.6 145.8 169 145.8 C 162.3 145.8 162.3 135.8 169 135.8 Z"></path><path fill="rgb(223, 83, 83)" fill-opacity=" .5" d="M 255 143.3 C 261.6 143.3 261.6 153.3 255 153.3 C 248.3 153.3 248.3 143.3 255 143.3 Z"></path><path fill="rgb(223, 83, 83)" fill-opacity=" .5" d="M 287 194.9 C 293.6 194.9 293.6 204.9 287 204.9 C 280.3 204.9 280.3 194.9 287 194.9 Z"></path><path fill="rgb(223, 83, 83)" fill-opacity=" .5" d="M 212 79.9 C 218.6 79.9 218.6 89.9 212 89.9 C 205.3 89.9 205.3 79.9 212 79.9 Z"></path><path fill="rgb(223, 83, 83)" fill-opacity=" .5" d="M 169 195.2 C 175.6 195.2 175.6 205.2 169 205.2 C 162.3 205.2 162.3 195.2 169 195.2 Z"></path><path fill="rgb(223, 83, 83)" fill-opacity=" .5" d="M 297 189.7 C 303.6 189.7 303.6 199.7 297 199.7 C 290.3 199.7 290.3 189.7 297 189.7 Z"></path><path fill="rgb(223, 83, 83)" fill-opacity=" .5" d="M 297 178.8 C 303.6 178.8 303.6 188.8 297 188.8 C 290.3 188.8 290.3 178.8 297 178.8 Z"></path><path fill="rgb(223, 83, 83)" fill-opacity=" .5" d="M 255 152.1 C 261.6 152.1 261.6 162.1 255 162.1 C 248.3 162.1 248.3 152.1 255 152.1 Z"></path><path fill="rgb(223, 83, 83)" fill-opacity=" .5" d="M 244 177.2 C 250.6 177.2 250.6 187.2 244 187.2 C 237.3 187.2 237.3 177.2 244 177.2 Z"></path><path fill="rgb(223, 83, 83)" fill-opacity=" .5" d="M 104 167.0 C 110.6 167.0 110.6 177.0 104 177.0 C 97.3 177.0 97.3 167.0 104 167.0 Z"></path><path fill="rgb(223, 83, 83)" fill-opacity=" .5" d="M 190 169.1 C 196.6 169.1 196.6 179.1 190 179.1 C 183.3 179.1 183.3 169.1 190 169.1 Z"></path><path fill="rgb(223, 83, 83)" fill-opacity=" .5" d="M 212 122.0 C 218.6 122.0 218.6 132.0 212 132.0 C 205.3 132.0 205.3 122.0 212 122.0 Z"></path><path fill="rgb(223, 83, 83)" fill-opacity=" .5" d="M 233 177.9 C 239.6 177.9 239.6 187.9 233 187.9 C 226.3 187.9 226.3 177.9 233 177.9 Z"></path><path fill="rgb(223, 83, 83)" fill-opacity=" .5" d="M 233 201.6 C 239.6 201.6 239.6 211.6 233 211.6 C 226.3 211.6 226.3 201.6 233 201.6 Z"></path><path fill="rgb(223, 83, 83)" fill-opacity=" .5" d="M 179 159.4 C 185.6 159.4 185.6 169.4 179 169.4 C 172.3 169.4 172.3 159.4 179 159.4 Z"></path><path fill="rgb(223, 83, 83)" fill-opacity=" .5" d="M 255 186.4 C 261.6 186.4 261.6 196.4 255 196.4 C 248.3 196.4 248.3 186.4 255 186.4 Z"></path><path fill="rgb(223, 83, 83)" fill-opacity=" .5" d="M 255 197.3 C 261.6 197.3 261.6 207.3 255 207.3 C 248.3 207.3 248.3 197.3 255 197.3 Z"></path><path fill="rgb(223, 83, 83)" fill-opacity=" .5" d="M 255 175.8 C 261.6 175.8 261.6 185.8 255 185.8 C 248.3 185.8 248.3 175.8 255 175.8 Z"></path><path fill="rgb(223, 83, 83)" fill-opacity=" .5" d="M 212 182.2 C 218.6 182.2 218.6 192.2 212 192.2 C 205.3 192.2 205.3 182.2 212 182.2 Z"></path><path fill="rgb(223, 83, 83)" fill-opacity=" .5" d="M 276 159.4 C 282.6 159.4 282.6 169.4 276 169.4 C 269.3 169.4 269.3 159.4 276 159.4 Z"></path><path fill="rgb(223, 83, 83)" fill-opacity=" .5" d="M 212 134.8 C 218.6 134.8 218.6 144.8 212 144.8 C 205.3 144.8 205.3 134.8 212 134.8 Z"></path><path fill="rgb(223, 83, 83)" fill-opacity=" .5" d="M 255 166.1 C 261.6 166.1 261.6 176.1 255 176.1 C 248.3 176.1 248.3 166.1 255 166.1 Z"></path><path fill="rgb(223, 83, 83)" fill-opacity=" .5" d="M 104 214.3 C 110.6 214.3 110.6 224.3 104 224.3 C 97.3 224.3 97.3 214.3 104 214.3 Z"></path><path fill="rgb(223, 83, 83)" fill-opacity=" .5" d="M 190 197.3 C 196.6 197.3 196.6 207.3 190 207.3 C 183.3 207.3 183.3 197.3 190 197.3 Z"></path><path fill="rgb(223, 83, 83)" fill-opacity=" .5" d="M 147 175.8 C 153.6 175.8 153.6 185.8 147 185.8 C 140.3 185.8 140.3 175.8 147 175.8 Z"></path><path fill="rgb(223, 83, 83)" fill-opacity=" .5" d="M 169 186.7 C 175.6 186.7 175.6 196.7 169 196.7 C 162.3 196.7 162.3 186.7 169 186.7 Z"></path><path fill="rgb(223, 83, 83)" fill-opacity=" .5" d="M 174 194.0 C 180.6 194.0 180.6 204.0 174 204.0 C 167.3 204.0 167.3 194.0 174 194.0 Z"></path><path fill="rgb(223, 83, 83)" fill-opacity=" .5" d="M 190 197.3 C 196.6 197.3 196.6 207.3 190 207.3 C 183.3 207.3 183.3 197.3 190 197.3 Z"></path><path fill="rgb(223, 83, 83)" fill-opacity=" .5" d="M 233 197.3 C 239.6 197.3 239.6 207.3 233 207.3 C 226.3 207.3 226.3 197.3 233 197.3 Z"></path><path fill="rgb(223, 83, 83)" fill-opacity=" .5" d="M 190 159.4 C 196.6 159.4 196.6 169.4 190 169.4 C 183.3 169.4 183.3 159.4 190 159.4 Z"></path><path fill="rgb(223, 83, 83)" fill-opacity=" .5" d="M 255 196.1 C 261.6 196.1 261.6 206.1 255 206.1 C 248.3 206.1 248.3 196.1 255 196.1 Z"></path><path fill="rgb(223, 83, 83)" fill-opacity=" .5" d="M 169 199.9 C 175.6 199.9 175.6 209.9 169 209.9 C 162.3 209.9 162.3 199.9 169 199.9 Z"></path><path fill="rgb(223, 83, 83)" fill-opacity=" .5" d="M 163 200.4 C 169.6 200.4 169.6 210.4 163 210.4 C 156.3 210.4 156.3 200.4 163 200.4 Z"></path><path fill="rgb(223, 83, 83)" fill-opacity=" .5" d="M 298 175.8 C 304.6 175.8 304.6 185.8 298 185.8 C 291.3 185.8 291.3 175.8 298 175.8 Z"></path><path fill="rgb(223, 83, 83)" fill-opacity=" .5" d="M 244 179.6 C 250.6 179.6 250.6 189.6 244 189.6 C 237.3 189.6 237.3 179.6 244 179.6 Z"></path><path fill="rgb(223, 83, 83)" fill-opacity=" .5" d="M 308 152.1 C 314.6 152.1 314.6 162.1 308 162.1 C 301.3 162.1 301.3 152.1 308 152.1 Z"></path><path fill="rgb(223, 83, 83)" fill-opacity=" .5" d="M 207 176.7 C 213.6 176.7 213.6 186.7 207 186.7 C 200.3 186.7 200.3 176.7 207 176.7 Z"></path><path fill="rgb(223, 83, 83)" fill-opacity=" .5" d="M 190 198.7 C 196.6 198.7 196.6 208.7 190 208.7 C 183.3 208.7 183.3 198.7 190 198.7 Z"></path><path fill="rgb(223, 83, 83)" fill-opacity=" .5" d="M 244 192.3 C 250.6 192.3 250.6 202.3 244 202.3 C 237.3 202.3 237.3 192.3 244 192.3 Z"></path><path fill="rgb(223, 83, 83)" fill-opacity=" .5" d="M 212 177.9 C 218.6 177.9 218.6 187.9 212 187.9 C 205.3 187.9 205.3 177.9 212 177.9 Z"></path><path fill="rgb(223, 83, 83)" fill-opacity=" .5" d="M 212 195.6 C 218.6 195.6 218.6 205.6 212 205.6 C 205.3 205.6 205.3 195.6 212 195.6 Z"></path><path fill="rgb(223, 83, 83)" fill-opacity=" .5" d="M 233 175.8 C 239.6 175.8 239.6 185.8 233 185.8 C 226.3 185.8 226.3 175.8 233 175.8 Z"></path><path fill="rgb(223, 83, 83)" fill-opacity=" .5" d="M 201 187.6 C 207.6 187.6 207.6 197.6 201 197.6 C 194.3 197.6 194.3 187.6 201 187.6 Z"></path><path fill="rgb(223, 83, 83)" fill-opacity=" .5" d="M 147 211.3 C 153.6 211.3 153.6 221.3 147 221.3 C 140.3 221.3 140.3 211.3 147 211.3 Z"></path><path fill="rgb(223, 83, 83)" fill-opacity=" .5" d="M 298 171.3 C 304.6 171.3 304.6 181.3 298 181.3 C 291.3 181.3 291.3 171.3 298 171.3 Z"></path><path fill="rgb(223, 83, 83)" fill-opacity=" .5" d="M 212 171.3 C 218.6 171.3 218.6 181.3 212 181.3 C 205.3 181.3 205.3 171.3 212 171.3 Z"></path><path fill="rgb(223, 83, 83)" fill-opacity=" .5" d="M 233 196.1 C 239.6 196.1 239.6 206.1 233 206.1 C 226.3 206.1 226.3 196.1 233 196.1 Z"></path><path fill="rgb(223, 83, 83)" fill-opacity=" .5" d="M 179 190.7 C 185.6 190.7 185.6 200.7 179 200.7 C 172.3 200.7 172.3 190.7 179 190.7 Z"></path><path fill="rgb(223, 83, 83)" fill-opacity=" .5" d="M 244 196.1 C 250.6 196.1 250.6 206.1 244 206.1 C 237.3 206.1 237.3 196.1 244 196.1 Z"></path><path fill="rgb(223, 83, 83)" fill-opacity=" .5" d="M 276 146.7 C 282.6 146.7 282.6 156.7 276 156.7 C 269.3 156.7 269.3 146.7 276 146.7 Z"></path><path fill="rgb(223, 83, 83)" fill-opacity=" .5" d="M 158 210.1 C 164.6 210.1 164.6 220.1 158 220.1 C 151.3 220.1 151.3 210.1 158 210.1 Z"></path><path fill="rgb(223, 83, 83)" fill-opacity=" .5" d="M 125 198.2 C 131.6 198.2 131.6 208.2 125 208.2 C 118.3 208.2 118.3 198.2 125 198.2 Z"></path><path fill="rgb(223, 83, 83)" fill-opacity=" .5" d="M 298 154.2 C 304.6 154.2 304.6 164.2 298 164.2 C 291.3 164.2 291.3 154.2 298 154.2 Z"></path><path fill="rgb(223, 83, 83)" fill-opacity=" .5" d="M 212 188.5 C 218.6 188.5 218.6 198.5 212 198.5 C 205.3 198.5 205.3 188.5 212 188.5 Z"></path><path fill="rgb(223, 83, 83)" fill-opacity=" .5" d="M 319 184.3 C 325.6 184.3 325.6 194.3 319 194.3 C 312.3 194.3 312.3 184.3 319 184.3 Z"></path><path fill="rgb(223, 83, 83)" fill-opacity=" .5" d="M 212 191.9 C 218.6 191.9 218.6 201.9 212 201.9 C 205.3 201.9 205.3 191.9 212 191.9 Z"></path><path fill="rgb(223, 83, 83)" fill-opacity=" .5" d="M 223 159.0 C 229.6 159.0 229.6 169.0 223 169.0 C 216.3 169.0 216.3 159.0 223 159.0 Z"></path><path fill="rgb(223, 83, 83)" fill-opacity=" .5" d="M 362 132.7 C 368.6 132.7 368.6 142.7 362 142.7 C 355.3 142.7 355.3 132.7 362 132.7 Z"></path><path fill="rgb(223, 83, 83)" fill-opacity=" .5" d="M 212 186.4 C 218.6 186.4 218.6 196.4 212 196.4 C 205.3 196.4 205.3 186.4 212 186.4 Z"></path><path fill="rgb(223, 83, 83)" fill-opacity=" .5" d="M 169 194.0 C 175.6 194.0 175.6 204.0 169 204.0 C 162.3 204.0 162.3 194.0 169 194.0 Z"></path><path fill="rgb(223, 83, 83)" fill-opacity=" .5" d="M 190 187.6 C 196.6 187.6 196.6 197.6 190 197.6 C 183.3 197.6 183.3 187.6 190 187.6 Z"></path><path fill="rgb(223, 83, 83)" fill-opacity=" .5" d="M 271 192.3 C 277.6 192.3 277.6 202.3 271 202.3 C 264.3 202.3 264.3 192.3 271 192.3 Z"></path><path fill="rgb(223, 83, 83)" fill-opacity=" .5" d="M 297 168.2 C 303.6 168.2 303.6 178.2 297 178.2 C 290.3 178.2 290.3 168.2 297 168.2 Z"></path><path fill="rgb(223, 83, 83)" fill-opacity=" .5" d="M 136 187.6 C 142.6 187.6 142.6 197.6 136 197.6 C 129.3 197.6 129.3 187.6 136 187.6 Z"></path><path fill="rgb(223, 83, 83)" fill-opacity=" .5" d="M 233 170.3 C 239.6 170.3 239.6 180.3 233 180.3 C 226.3 180.3 226.3 170.3 233 170.3 Z"></path><path fill="rgb(223, 83, 83)" fill-opacity=" .5" d="M 190 181.0 C 196.6 181.0 196.6 191.0 190 191.0 C 183.3 191.0 183.3 181.0 190 181.0 Z"></path><path fill="rgb(223, 83, 83)" fill-opacity=" .5" d="M 233 145.5 C 239.6 145.5 239.6 155.5 233 155.5 C 226.3 155.5 226.3 145.5 233 145.5 Z"></path><path fill="rgb(223, 83, 83)" fill-opacity=" .5" d="M 276 161.8 C 282.6 161.8 282.6 171.8 276 171.8 C 269.3 171.8 269.3 161.8 276 161.8 Z"></path><path fill="rgb(223, 83, 83)" fill-opacity=" .5" d="M 158 194.9 C 164.6 194.9 164.6 204.9 158 204.9 C 151.3 204.9 151.3 194.9 158 194.9 Z"></path><path fill="rgb(223, 83, 83)" fill-opacity=" .5" d="M 255 194.0 C 261.6 194.0 261.6 204.0 255 204.0 C 248.3 204.0 248.3 194.0 255 194.0 Z"></path><path fill="rgb(223, 83, 83)" fill-opacity=" .5" d="M 190 126.3 C 196.6 126.3 196.6 136.3 190 136.3 C 183.3 136.3 183.3 126.3 190 126.3 Z"></path><path fill="rgb(223, 83, 83)" fill-opacity=" .5" d="M 255 162.7 C 261.6 162.7 261.6 172.7 255 172.7 C 248.3 172.7 248.3 162.7 255 162.7 Z"></path><path fill="rgb(223, 83, 83)" fill-opacity=" .5" d="M 104 183.3 C 110.6 183.3 110.6 193.3 104 193.3 C 97.3 193.3 97.3 183.3 104 183.3 Z"></path><path fill="rgb(223, 83, 83)" fill-opacity=" .5" d="M 169 194.0 C 175.6 194.0 175.6 204.0 169 204.0 C 162.3 204.0 162.3 194.0 169 194.0 Z"></path><path fill="rgb(223, 83, 83)" fill-opacity=" .5" d="M 223 196.1 C 229.6 196.1 229.6 206.1 223 206.1 C 216.3 206.1 216.3 196.1 223 196.1 Z"></path><path fill="rgb(223, 83, 83)" fill-opacity=" .5" d="M 212 155.2 C 218.6 155.2 218.6 165.2 212 165.2 C 205.3 165.2 205.3 155.2 212 155.2 Z"></path><path fill="rgb(223, 83, 83)" fill-opacity=" .5" d="M 190 208 C 196.6 208 196.6 218 190 218 C 183.3 218 183.3 208 190 208 Z"></path><path fill="rgb(223, 83, 83)" fill-opacity=" .5" d="M 212 174.6 C 218.6 174.6 218.6 184.6 212 184.6 C 205.3 184.6 205.3 174.6 212 174.6 Z"></path><path fill="rgb(223, 83, 83)" fill-opacity=" .5" d="M 244 191.9 C 250.6 191.9 250.6 201.9 244 201.9 C 237.3 201.9 237.3 191.9 244 191.9 Z"></path><path fill="rgb(223, 83, 83)" fill-opacity=" .5" d="M 169 185.5 C 175.6 185.5 175.6 195.5 169 195.5 C 162.3 195.5 162.3 185.5 169 185.5 Z"></path><path fill="rgb(223, 83, 83)" fill-opacity=" .5" d="M 190 176.7 C 196.6 176.7 196.6 186.7 190 186.7 C 183.3 186.7 183.3 176.7 190 176.7 Z"></path><path fill="rgb(223, 83, 83)" fill-opacity=" .5" d="M 179 175.8 C 185.6 175.8 185.6 185.8 179 185.8 C 172.3 185.8 172.3 175.8 179 175.8 Z"></path><path fill="rgb(223, 83, 83)" fill-opacity=" .5" d="M 147 193.8 C 153.6 193.8 153.6 203.8 147 203.8 C 140.3 203.8 140.3 193.8 147 193.8 Z"></path><path fill="rgb(223, 83, 83)" fill-opacity=" .5" d="M 162 203.7 C 168.6 203.7 168.6 213.7 162 213.7 C 155.3 213.7 155.3 203.7 162 203.7 Z"></path><path fill="rgb(223, 83, 83)" fill-opacity=" .5" d="M 257 173.6 C 263.6 173.6 263.6 183.6 257 183.6 C 250.3 183.6 250.3 173.6 257 173.6 Z"></path><path fill="rgb(223, 83, 83)" fill-opacity=" .5" d="M 167 200.4 C 173.6 200.4 173.6 210.4 167 210.4 C 160.3 210.4 160.3 200.4 167 200.4 Z"></path><path fill="rgb(223, 83, 83)" fill-opacity=" .5" d="M 282 201.6 C 288.6 201.6 288.6 211.6 282 211.6 C 275.3 211.6 275.3 201.6 282 201.6 Z"></path><path fill="rgb(223, 83, 83)" fill-opacity=" .5" d="M 186 186.2 C 192.6 186.2 192.6 196.2 186 196.2 C 179.3 196.2 179.3 186.2 186 186.2 Z"></path><path fill="rgb(223, 83, 83)" fill-opacity=" .5" d="M 135 197.1 C 141.6 197.1 141.6 207.1 135 207.1 C 128.3 207.1 128.3 197.1 135 197.1 Z"></path><path fill="rgb(223, 83, 83)" fill-opacity=" .5" d="M 233 189.5 C 239.6 189.5 239.6 199.5 233 199.5 C 226.3 199.5 226.3 189.5 233 189.5 Z"></path><path fill="rgb(223, 83, 83)" fill-opacity=" .5" d="M 152 194.9 C 158.6 194.9 158.6 204.9 152 204.9 C 145.3 204.9 145.3 194.9 152 194.9 Z"></path><path fill="rgb(223, 83, 83)" fill-opacity=" .5" d="M 228 179.1 C 234.6 179.1 234.6 189.1 228 189.1 C 221.3 189.1 221.3 179.1 228 179.1 Z"></path><path fill="rgb(223, 83, 83)" fill-opacity=" .5" d="M 169 210.8 C 175.6 210.8 175.6 220.8 169 220.8 C 162.3 220.8 162.3 210.8 169 210.8 Z"></path><path fill="rgb(223, 83, 83)" fill-opacity=" .5" d="M 135 173.9 C 141.6 173.9 141.6 183.9 135 183.9 C 128.3 183.9 128.3 173.9 135 173.9 Z"></path><path fill="rgb(223, 83, 83)" fill-opacity=" .5" d="M 153 216.5 C 159.6 216.5 159.6 226.5 153 226.5 C 146.3 226.5 146.3 216.5 153 216.5 Z"></path><path fill="rgb(223, 83, 83)" fill-opacity=" .5" d="M 244 183.1 C 250.6 183.1 250.6 193.1 244 193.1 C 237.3 193.1 237.3 183.1 244 183.1 Z"></path><path fill="rgb(223, 83, 83)" fill-opacity=" .5" d="M 169 224.0 C 175.6 224.0 175.6 234.0 169 234.0 C 162.3 234.0 162.3 224.0 169 224.0 Z"></path><path fill="rgb(223, 83, 83)" fill-opacity=" .5" d="M 169 196.6 C 175.6 196.6 175.6 206.6 169 206.6 C 162.3 206.6 162.3 196.6 169 196.6 Z"></path><path fill="rgb(223, 83, 83)" fill-opacity=" .5" d="M 228 184.8 C 234.6 184.8 234.6 194.8 228 194.8 C 221.3 194.8 221.3 184.8 228 184.8 Z"></path><path fill="rgb(223, 83, 83)" fill-opacity=" .5" d="M 192 189.0 C 198.6 189.0 198.6 199.0 192 199.0 C 185.3 199.0 185.3 189.0 192 189.0 Z"></path><path fill="rgb(223, 83, 83)" fill-opacity=" .5" d="M 176 197.5 C 182.6 197.5 182.6 207.5 176 207.5 C 169.3 207.5 169.3 197.5 176 197.5 Z"></path><path fill="rgb(223, 83, 83)" fill-opacity=" .5" d="M 202 199.0 C 208.6 199.0 208.6 209.0 202 209.0 C 195.3 209.0 195.3 199.0 202 199.0 Z"></path><path fill="rgb(223, 83, 83)" fill-opacity=" .5" d="M 139 167.2 C 145.6 167.2 145.6 177.2 139 177.2 C 132.3 177.2 132.3 167.2 139 167.2 Z"></path><path fill="rgb(223, 83, 83)" fill-opacity=" .5" d="M 126 209.8 C 132.6 209.8 132.6 219.8 126 219.8 C 119.3 219.8 119.3 209.8 126 209.8 Z"></path><path fill="rgb(223, 83, 83)" fill-opacity=" .5" d="M 276 179.6 C 282.6 179.6 282.6 189.6 276 189.6 C 269.3 189.6 269.3 179.6 276 179.6 Z"></path><path fill="rgb(223, 83, 83)" fill-opacity=" .5" d="M 196 192.8 C 202.6 192.8 202.6 202.8 196 202.8 C 189.3 202.8 189.3 192.8 196 192.8 Z"></path><path fill="rgb(223, 83, 83)" fill-opacity=" .5" d="M 147 187.1 C 153.6 187.1 153.6 197.1 147 197.1 C 140.3 197.1 140.3 187.1 147 187.1 Z"></path><path fill="rgb(223, 83, 83)" fill-opacity=" .5" d="M 80 220.3 C 86.6 220.3 86.6 230.3 80 230.3 C 73.3 230.3 73.3 220.3 80 220.3 Z"></path><path fill="rgb(223, 83, 83)" fill-opacity=" .5" d="M 179 183.8 C 185.6 183.8 185.6 193.8 179 193.8 C 172.3 193.8 172.3 183.8 179 183.8 Z"></path><path fill="rgb(223, 83, 83)" fill-opacity=" .5" d="M 187 207.5 C 193.6 207.5 193.6 217.5 187 217.5 C 180.3 217.5 180.3 207.5 187 207.5 Z"></path><path fill="rgb(223, 83, 83)" fill-opacity=" .5" d="M 196 198.5 C 202.6 198.5 202.6 208.5 196 208.5 C 189.3 208.5 189.3 198.5 196 198.5 Z"></path><path fill="rgb(223, 83, 83)" fill-opacity=" .5" d="M 169 219.8 C 175.6 219.8 175.6 229.8 169 229.8 C 162.3 229.8 162.3 219.8 169 219.8 Z"></path><path fill="rgb(223, 83, 83)" fill-opacity=" .5" d="M 179 195.6 C 185.6 195.6 185.6 205.6 179 205.6 C 172.3 205.6 172.3 195.6 179 195.6 Z"></path><path fill="rgb(223, 83, 83)" fill-opacity=" .5" d="M 233 177.2 C 239.6 177.2 239.6 187.2 233 187.2 C 226.3 187.2 226.3 177.2 233 177.2 Z"></path><path fill="rgb(223, 83, 83)" fill-opacity=" .5" d="M 164 213.6 C 170.6 213.6 170.6 223.6 164 223.6 C 157.3 223.6 157.3 213.6 164 213.6 Z"></path><path fill="rgb(223, 83, 83)" fill-opacity=" .5" d="M 234 186.7 C 240.6 186.7 240.6 196.7 234 196.7 C 227.3 196.7 227.3 186.7 234 186.7 Z"></path><path fill="rgb(223, 83, 83)" fill-opacity=" .5" d="M 248 176.2 C 254.6 176.2 254.6 186.2 248 186.2 C 241.3 186.2 241.3 176.2 248 176.2 Z"></path><path fill="rgb(223, 83, 83)" fill-opacity=" .5" d="M 198 203.7 C 204.6 203.7 204.6 213.7 198 213.7 C 191.3 213.7 191.3 203.7 198 203.7 Z"></path><path fill="rgb(223, 83, 83)" fill-opacity=" .5" d="M 276 77.3 C 282.6 77.3 282.6 87.3 276 87.3 C 269.3 87.3 269.3 77.3 276 77.3 Z"></path><path fill="rgb(223, 83, 83)" fill-opacity=" .5" d="M 226 192.3 C 232.6 192.3 232.6 202.3 226 202.3 C 219.3 202.3 219.3 192.3 226 192.3 Z"></path><path fill="rgb(223, 83, 83)" fill-opacity=" .5" d="M 240 172.0 C 246.6 172.0 246.6 182.0 240 182.0 C 233.3 182.0 233.3 172.0 240 172.0 Z"></path><path fill="rgb(223, 83, 83)" fill-opacity=" .5" d="M 194 155.9 C 200.6 155.9 200.6 165.9 194 165.9 C 187.3 165.9 187.3 155.9 194 155.9 Z"></path><path fill="rgb(223, 83, 83)" fill-opacity=" .5" d="M 205 184.8 C 211.6 184.8 211.6 194.8 205 194.8 C 198.3 194.8 198.3 184.8 205 184.8 Z"></path><path fill="rgb(223, 83, 83)" fill-opacity=" .5" d="M 321 159.2 C 327.6 159.2 327.6 169.2 321 169.2 C 314.3 169.2 314.3 159.2 321 159.2 Z"></path><path fill="rgb(223, 83, 83)" fill-opacity=" .5" d="M 268 193.3 C 274.6 193.3 274.6 203.3 268 203.3 C 261.3 203.3 261.3 193.3 268 193.3 Z"></path><path fill="rgb(223, 83, 83)" fill-opacity=" .5" d="M 280 188.1 C 286.6 188.1 286.6 198.1 280 198.1 C 273.3 198.1 273.3 188.1 280 188.1 Z"></path><path fill="rgb(223, 83, 83)" fill-opacity=" .5" d="M 244 163.0 C 250.6 163.0 250.6 173.0 244 173.0 C 237.3 173.0 237.3 163.0 244 163.0 Z"></path><path fill="rgb(223, 83, 83)" fill-opacity=" .5" d="M 238 199.9 C 244.6 199.9 244.6 209.9 238 209.9 C 231.3 209.9 231.3 199.9 238 199.9 Z"></path><path fill="rgb(223, 83, 83)" fill-opacity=" .5" d="M 93 153.0 C 99.6 153.0 99.6 163.0 93 163.0 C 86.3 163.0 86.3 153.0 93 153.0 Z"></path><path fill="rgb(223, 83, 83)" fill-opacity=" .5" d="M 177 199.4 C 183.6 199.4 183.6 209.4 177 209.4 C 170.3 209.4 170.3 199.4 177 199.4 Z"></path><path fill="rgb(223, 83, 83)" fill-opacity=" .5" d="M 193 185.7 C 199.6 185.7 199.6 195.7 193 195.7 C 186.3 195.7 186.3 185.7 193 185.7 Z"></path><path fill="rgb(223, 83, 83)" fill-opacity=" .5" d="M 336 168.2 C 342.6 168.2 342.6 178.2 336 178.2 C 329.3 178.2 329.3 168.2 336 168.2 Z"></path><path fill="rgb(223, 83, 83)" fill-opacity=" .5" d="M 160 194.7 C 166.6 194.7 166.6 204.7 160 204.7 C 153.3 204.7 153.3 194.7 160 194.7 Z"></path><path fill="rgb(223, 83, 83)" fill-opacity=" .5" d="M 192 189.5 C 198.6 189.5 198.6 199.5 192 199.5 C 185.3 199.5 185.3 189.5 192 189.5 Z"></path><path fill="rgb(223, 83, 83)" fill-opacity=" .5" d="M 160 211.3 C 166.6 211.3 166.6 221.3 160 221.3 C 153.3 221.3 153.3 211.3 160 211.3 Z"></path><path fill="rgb(223, 83, 83)" fill-opacity=" .5" d="M 190 202.7 C 196.6 202.7 196.6 212.7 190 212.7 C 183.3 212.7 183.3 202.7 190 202.7 Z"></path><path fill="rgb(223, 83, 83)" fill-opacity=" .5" d="M 163 218.1 C 169.6 218.1 169.6 228.1 163 228.1 C 156.3 228.1 156.3 218.1 163 218.1 Z"></path><path fill="rgb(223, 83, 83)" fill-opacity=" .5" d="M 221 187.6 C 227.6 187.6 227.6 197.6 221 197.6 C 214.3 197.6 214.3 187.6 221 187.6 Z"></path><path fill="rgb(223, 83, 83)" fill-opacity=" .5" d="M 245 188.5 C 251.6 188.5 251.6 198.5 245 198.5 C 238.3 198.5 238.3 188.5 245 188.5 Z"></path><path fill="rgb(223, 83, 83)" fill-opacity=" .5" d="M 180 176.2 C 186.6 176.2 186.6 186.2 180 186.2 C 173.3 186.2 173.3 176.2 180 176.2 Z"></path><path fill="rgb(223, 83, 83)" fill-opacity=" .5" d="M 253 194.0 C 259.6 194.0 259.6 204.0 253 204.0 C 246.3 204.0 246.3 194.0 253 194.0 Z"></path><path fill="rgb(223, 83, 83)" fill-opacity=" .5" d="M 280 162.5 C 286.6 162.5 286.6 172.5 280 172.5 C 273.3 172.5 273.3 162.5 280 162.5 Z"></path><path fill="rgb(223, 83, 83)" fill-opacity=" .5" d="M 167 208 C 173.6 208 173.6 218 167 218 C 160.3 218 160.3 208 167 208 Z"></path><path fill="rgb(223, 83, 83)" fill-opacity=" .5" d="M 122 210.3 C 128.6 210.3 128.6 220.3 122 220.3 C 115.3 220.3 115.3 210.3 122 210.3 Z"></path><path fill="rgb(223, 83, 83)" fill-opacity=" .5" d="M 196 184.8 C 202.6 184.8 202.6 194.8 196 194.8 C 189.3 194.8 189.3 184.8 196 184.8 Z"></path><path fill="rgb(223, 83, 83)" fill-opacity=" .5" d="M 249 201.3 C 255.6 201.3 255.6 211.3 249 211.3 C 242.3 211.3 242.3 201.3 249 201.3 Z"></path><path fill="rgb(223, 83, 83)" fill-opacity=" .5" d="M 203 156.8 C 209.6 156.8 209.6 166.8 203 166.8 C 196.3 166.8 196.3 156.8 203 156.8 Z"></path><path fill="rgb(223, 83, 83)" fill-opacity=" .5" d="M 256 172.9 C 262.6 172.9 262.6 182.9 256 182.9 C 249.3 182.9 249.3 172.9 256 172.9 Z"></path><path fill="rgb(223, 83, 83)" fill-opacity=" .5" d="M 190 188.5 C 196.6 188.5 196.6 198.5 190 198.5 C 183.3 198.5 183.3 188.5 190 188.5 Z"></path><path fill="rgb(223, 83, 83)" fill-opacity=" .5" d="M 253 162.0 C 259.6 162.0 259.6 172.0 253 172.0 C 246.3 172.0 246.3 162.0 253 162.0 Z"></path><path fill="rgb(223, 83, 83)" fill-opacity=" .5" d="M 305 167.2 C 311.6 167.2 311.6 177.2 305 177.2 C 298.3 177.2 298.3 167.2 305 167.2 Z"></path><path fill="rgb(223, 83, 83)" fill-opacity=" .5" d="M 253 159.2 C 259.6 159.2 259.6 169.2 253 169.2 C 246.3 169.2 246.3 159.2 253 159.2 Z"></path><path fill="rgb(223, 83, 83)" fill-opacity=" .5" d="M 126 217.7 C 132.6 217.7 132.6 227.7 126 227.7 C 119.3 227.7 119.3 217.7 126 217.7 Z"></path><path fill="rgb(223, 83, 83)" fill-opacity=" .5" d="M 179 196.6 C 185.6 196.6 185.6 206.6 179 206.6 C 172.3 206.6 172.3 196.6 179 196.6 Z"></path><path fill="rgb(223, 83, 83)" fill-opacity=" .5" d="M 202 194.5 C 208.6 194.5 208.6 204.5 202 204.5 C 195.3 204.5 195.3 194.5 202 194.5 Z"></path><path fill="rgb(223, 83, 83)" fill-opacity=" .5" d="M 245 178.4 C 251.6 178.4 251.6 188.4 245 188.4 C 238.3 188.4 238.3 178.4 245 178.4 Z"></path><path fill="rgb(223, 83, 83)" fill-opacity=" .5" d="M 101 185.9 C 107.6 185.9 107.6 195.9 101 195.9 C 94.3 195.9 94.3 185.9 101 185.9 Z"></path><path fill="rgb(223, 83, 83)" fill-opacity=" .5" d="M 198 208 C 204.6 208 204.6 218 198 218 C 191.3 218 191.3 208 198 208 Z"></path><path fill="rgb(223, 83, 83)" fill-opacity=" .5" d="M 207 202.5 C 213.6 202.5 213.6 212.5 207 212.5 C 200.3 212.5 200.3 202.5 207 202.5 Z"></path><path fill="rgb(223, 83, 83)" fill-opacity=" .5" d="M 93 211.0 C 99.6 211.0 99.6 221.0 93 221.0 C 86.3 221.0 86.3 211.0 93 211.0 Z"></path><path fill="rgb(223, 83, 83)" fill-opacity=" .5" d="M 233 194.5 C 239.6 194.5 239.6 204.5 233 204.5 C 226.3 204.5 226.3 194.5 233 194.5 Z"></path><path fill="rgb(223, 83, 83)" fill-opacity=" .5" d="M 276 181.7 C 282.6 181.7 282.6 191.7 276 191.7 C 269.3 191.7 269.3 181.7 276 181.7 Z"></path><path fill="rgb(223, 83, 83)" fill-opacity=" .5" d="M 287 147.1 C 293.6 147.1 293.6 157.1 287 157.1 C 280.3 157.1 280.3 147.1 287 147.1 Z"></path><path fill="rgb(223, 83, 83)" fill-opacity=" .5" d="M 219 200.4 C 225.6 200.4 225.6 210.4 219 210.4 C 212.3 210.4 212.3 200.4 219 200.4 Z"></path><path fill="rgb(223, 83, 83)" fill-opacity=" .5" d="M 185 196.8 C 191.6 196.8 191.6 206.8 185 206.8 C 178.3 206.8 178.3 196.8 185 196.8 Z"></path><path fill="rgb(223, 83, 83)" fill-opacity=" .5" d="M 177 137 C 183.6 137 183.6 147 177 147 C 170.3 147 170.3 137 177 137 Z"></path><path fill="rgb(223, 83, 83)" fill-opacity=" .5" d="M 217 153.3 C 223.6 153.3 223.6 163.3 217 163.3 C 210.3 163.3 210.3 153.3 217 153.3 Z"></path><path fill="rgb(223, 83, 83)" fill-opacity=" .5" d="M 194 179.6 C 200.6 179.6 200.6 189.6 194 189.6 C 187.3 189.6 187.3 179.6 194 179.6 Z"></path><path fill="rgb(223, 83, 83)" fill-opacity=" .5" d="M 169 150.4 C 175.6 150.4 175.6 160.4 169 160.4 C 162.3 160.4 162.3 150.4 169 150.4 Z"></path><path fill="rgb(223, 83, 83)" fill-opacity=" .5" d="M 135 201.6 C 141.6 201.6 141.6 211.6 135 211.6 C 128.3 211.6 128.3 201.6 135 201.6 Z"></path><path fill="rgb(223, 83, 83)" fill-opacity=" .5" d="M 207 183.6 C 213.6 183.6 213.6 193.6 207 193.6 C 200.3 193.6 200.3 183.6 207 183.6 Z"></path><path fill="rgb(223, 83, 83)" fill-opacity=" .5" d="M 211 179.6 C 217.6 179.6 217.6 189.6 211 189.6 C 204.3 189.6 204.3 179.6 211 179.6 Z"></path><path fill="rgb(223, 83, 83)" fill-opacity=" .5" d="M 215 184.3 C 221.6 184.3 221.6 194.3 215 194.3 C 208.3 194.3 208.3 184.3 215 184.3 Z"></path><path fill="rgb(223, 83, 83)" fill-opacity=" .5" d="M 340 182.6 C 346.6 182.6 346.6 192.6 340 192.6 C 333.3 192.6 333.3 182.6 340 182.6 Z"></path><path fill="rgb(223, 83, 83)" fill-opacity=" .5" d="M 239 196.6 C 245.6 196.6 245.6 206.6 239 206.6 C 232.3 206.6 232.3 196.6 239 196.6 Z"></path><path fill="rgb(223, 83, 83)" fill-opacity=" .5" d="M 147 197.8 C 153.6 197.8 153.6 207.8 147 207.8 C 140.3 207.8 140.3 197.8 147 197.8 Z"></path><path fill="rgb(223, 83, 83)" fill-opacity=" .5" d="M 104 216.2 C 110.6 216.2 110.6 226.2 104 226.2 C 97.3 226.2 97.3 216.2 104 216.2 Z"></path><path fill="rgb(223, 83, 83)" fill-opacity=" .5" d="M 196 194.0 C 202.6 194.0 202.6 204.0 196 204.0 C 189.3 204.0 189.3 194.0 196 194.0 Z"></path><path fill="rgb(223, 83, 83)" fill-opacity=" .5" d="M 174 162.7 C 180.6 162.7 180.6 172.7 174 172.7 C 167.3 172.7 167.3 162.7 174 162.7 Z"></path><path fill="rgb(223, 83, 83)" fill-opacity=" .5" d="M 233 181.9 C 239.6 181.9 239.6 191.9 233 191.9 C 226.3 191.9 226.3 181.9 233 181.9 Z"></path><path fill="rgb(223, 83, 83)" fill-opacity=" .5" d="M 147 184.8 C 153.6 184.8 153.6 194.8 147 194.8 C 140.3 194.8 140.3 184.8 147 184.8 Z"></path><path fill="rgb(223, 83, 83)" fill-opacity=" .5" d="M 253 153.8 C 259.6 153.8 259.6 163.8 253 163.8 C 246.3 163.8 246.3 153.8 253 153.8 Z"></path><path fill="rgb(223, 83, 83)" fill-opacity=" .5" d="M 169 207.5 C 175.6 207.5 175.6 217.5 169 217.5 C 162.3 217.5 162.3 207.5 169 207.5 Z"></path><path fill="rgb(223, 83, 83)" fill-opacity=" .5" d="M 212 193.3 C 218.6 193.3 218.6 203.3 212 203.3 C 205.3 203.3 205.3 193.3 212 193.3 Z"></path><path fill="rgb(223, 83, 83)" fill-opacity=" .5" d="M 233 188.3 C 239.6 188.3 239.6 198.3 233 198.3 C 226.3 198.3 226.3 188.3 233 188.3 Z"></path><path fill="rgb(223, 83, 83)" fill-opacity=" .5" d="M 179 183.6 C 185.6 183.6 185.6 193.6 179 193.6 C 172.3 193.6 172.3 183.6 179 183.6 Z"></path><path fill="rgb(223, 83, 83)" fill-opacity=" .5" d="M 169 207.5 C 175.6 207.5 175.6 217.5 169 217.5 C 162.3 217.5 162.3 207.5 169 207.5 Z"></path><path fill="rgb(223, 83, 83)" fill-opacity=" .5" d="M 233 197.3 C 239.6 197.3 239.6 207.3 233 207.3 C 226.3 207.3 226.3 197.3 233 197.3 Z"></path><path fill="rgb(223, 83, 83)" fill-opacity=" .5" d="M 201 187.8 C 207.6 187.8 207.6 197.8 201 197.8 C 194.3 197.8 194.3 187.8 201 187.8 Z"></path><path fill="rgb(223, 83, 83)" fill-opacity=" .5" d="M 244 178.8 C 250.6 178.8 250.6 188.8 244 188.8 C 237.3 188.8 237.3 178.8 244 178.8 Z"></path><path fill="rgb(223, 83, 83)" fill-opacity=" .5" d="M 223 192.3 C 229.6 192.3 229.6 202.3 223 202.3 C 216.3 202.3 216.3 192.3 223 192.3 Z"></path><path fill="rgb(223, 83, 83)" fill-opacity=" .5" d="M 179 165.6 C 185.6 165.6 185.6 175.6 179 175.6 C 172.3 175.6 172.3 165.6 179 165.6 Z"></path><path fill="rgb(223, 83, 83)" fill-opacity=" .5" d="M 170 203.0 C 176.6 203.0 176.6 213.0 170 213.0 C 163.3 213.0 163.3 203.0 170 203.0 Z"></path><path fill="rgb(223, 83, 83)" fill-opacity=" .5" d="M 253 153.0 C 259.6 153.0 259.6 163.0 253 163.0 C 246.3 163.0 246.3 153.0 253 153.0 Z"></path><path fill="rgb(223, 83, 83)" fill-opacity=" .5" d="M 186 199.4 C 192.6 199.4 192.6 209.4 186 209.4 C 179.3 209.4 179.3 199.4 186 199.4 Z"></path><path fill="rgb(223, 83, 83)" fill-opacity=" .5" d="M 101 217.9 C 107.6 217.9 107.6 227.9 101 227.9 C 94.3 227.9 94.3 217.9 101 217.9 Z"></path><path fill="rgb(223, 83, 83)" fill-opacity=" .5" d="M 169 197.5 C 175.6 197.5 175.6 207.5 169 207.5 C 162.3 207.5 162.3 197.5 169 197.5 Z"></path><path fill="rgb(223, 83, 83)" fill-opacity=" .5" d="M 308 129.9 C 314.6 129.9 314.6 139.9 308 139.9 C 301.3 139.9 301.3 129.9 308 129.9 Z"></path><path fill="rgb(223, 83, 83)" fill-opacity=" .5" d="M 185 196.1 C 191.6 196.1 191.6 206.1 185 206.1 C 178.3 206.1 178.3 196.1 185 196.1 Z"></path><path fill="rgb(223, 83, 83)" fill-opacity=" .5" d="M 121 216.9 C 127.6 216.9 127.6 226.9 121 226.9 C 114.3 226.9 114.3 216.9 121 216.9 Z"></path><path fill="rgb(223, 83, 83)" fill-opacity=" .5" d="M 169 215.1 C 175.6 215.1 175.6 225.1 169 225.1 C 162.3 225.1 162.3 215.1 169 215.1 Z"></path><path fill="rgb(223, 83, 83)" fill-opacity=" .5" d="M 257 165.8 C 263.6 165.8 263.6 175.8 257 175.8 C 250.3 175.8 250.3 165.8 257 165.8 Z"></path><path fill="rgb(223, 83, 83)" fill-opacity=" .5" d="M 337 167.0 C 343.6 167.0 343.6 177.0 337 177.0 C 330.3 177.0 330.3 167.0 337 167.0 Z"></path><path fill="rgb(223, 83, 83)" fill-opacity=" .5" d="M 278 184.8 C 284.6 184.8 284.6 194.8 278 194.8 C 271.3 194.8 271.3 184.8 278 184.8 Z"></path><path fill="rgb(223, 83, 83)" fill-opacity=" .5" d="M 287 197.3 C 293.6 197.3 293.6 207.3 287 207.3 C 280.3 207.3 280.3 197.3 287 197.3 Z"></path><path fill="rgb(223, 83, 83)" fill-opacity=" .5" d="M 255 154.0 C 261.6 154.0 261.6 164.0 255 164.0 C 248.3 164.0 248.3 154.0 255 154.0 Z"></path><path fill="rgb(223, 83, 83)" fill-opacity=" .5" d="M 308 118.5 C 314.6 118.5 314.6 128.5 308 128.5 C 301.3 128.5 301.3 118.5 308 118.5 Z"></path><path fill="rgb(223, 83, 83)" fill-opacity=" .5" d="M 226 190.9 C 232.6 190.9 232.6 200.9 226 200.9 C 219.3 200.9 219.3 190.9 226 190.9 Z"></path><path fill="rgb(223, 83, 83)" fill-opacity=" .5" d="M 295 131.0 C 301.6 131.0 301.6 141.0 295 141.0 C 288.3 141.0 288.3 131.0 295 131.0 Z"></path><path fill="rgb(223, 83, 83)" fill-opacity=" .5" d="M 164 206.5 C 170.6 206.5 170.6 216.5 164 216.5 C 157.3 216.5 157.3 206.5 164 206.5 Z"></path><path fill="rgb(223, 83, 83)" fill-opacity=" .5" d="M 233 163.5 C 239.6 163.5 239.6 173.5 233 173.5 C 226.3 173.5 226.3 163.5 233 163.5 Z"></path><path fill="rgb(223, 83, 83)" fill-opacity=" .5" d="M 143 213.2 C 149.6 213.2 149.6 223.2 143 223.2 C 136.3 223.2 136.3 213.2 143 213.2 Z"></path><path fill="rgb(223, 83, 83)" fill-opacity=" .5" d="M 295 153.0 C 301.6 153.0 301.6 163.0 295 163.0 C 288.3 163.0 288.3 153.0 295 153.0 Z"></path><path fill="rgb(223, 83, 83)" fill-opacity=" .5" d="M 238 209.8 C 244.6 209.8 244.6 219.8 238 219.8 C 231.3 219.8 231.3 209.8 238 209.8 Z"></path><path fill="rgb(223, 83, 83)" fill-opacity=" .5" d="M 60 208.4 C 66.6 208.4 66.6 218.4 60 218.4 C 53.3 218.4 53.3 208.4 60 208.4 Z"></path><path fill="rgb(223, 83, 83)" fill-opacity=" .5" d="M 169 208 C 175.6 208 175.6 218 169 218 C 162.3 218 162.3 208 169 208 Z"></path><path fill="rgb(223, 83, 83)" fill-opacity=" .5" d="M 113 226.9 C 119.6 226.9 119.6 236.9 113 236.9 C 106.3 236.9 106.3 226.9 113 226.9 Z"></path><path fill="rgb(223, 83, 83)" fill-opacity=" .5" d="M 278 178.4 C 284.6 178.4 284.6 188.4 278 188.4 C 271.3 188.4 271.3 178.4 278 178.4 Z"></path><path fill="rgb(223, 83, 83)" fill-opacity=" .5" d="M 261 198.0 C 267.6 198.0 267.6 208.0 261 208.0 C 254.3 208.0 254.3 198.0 261 198.0 Z"></path><path fill="rgb(223, 83, 83)" fill-opacity=" .5" d="M 274 195.6 C 280.6 195.6 280.6 205.6 274 205.6 C 267.3 205.6 267.3 195.6 274 195.6 Z"></path><path fill="rgb(223, 83, 83)" fill-opacity=" .5" d="M 170 148.3 C 176.6 148.3 176.6 158.3 170 158.3 C 163.3 158.3 163.3 148.3 170 148.3 Z"></path><path fill="rgb(223, 83, 83)" fill-opacity=" .5" d="M 305 168.2 C 311.6 168.2 311.6 178.2 305 178.2 C 298.3 178.2 298.3 168.2 305 168.2 Z"></path><path fill="rgb(223, 83, 83)" fill-opacity=" .5" d="M 219 161.1 C 225.6 161.1 225.6 171.1 219 171.1 C 212.3 171.1 212.3 161.1 219 161.1 Z"></path><path fill="rgb(223, 83, 83)" fill-opacity=" .5" d="M 161 213.6 C 167.6 213.6 167.6 223.6 161 223.6 C 154.3 223.6 154.3 213.6 161 213.6 Z"></path><path fill="rgb(223, 83, 83)" fill-opacity=" .5" d="M 253 186.7 C 259.6 186.7 259.6 196.7 253 196.7 C 246.3 196.7 246.3 186.7 253 186.7 Z"></path><path fill="rgb(223, 83, 83)" fill-opacity=" .5" d="M 133 199.4 C 139.6 199.4 139.6 209.4 133 209.4 C 126.3 209.4 126.3 199.4 133 199.4 Z"></path><path fill="rgb(223, 83, 83)" fill-opacity=" .5" d="M 143 177.2 C 149.6 177.2 149.6 187.2 143 187.2 C 136.3 187.2 136.3 177.2 143 177.2 Z"></path><path fill="rgb(223, 83, 83)" fill-opacity=" .5" d="M 164 209.8 C 170.6 209.8 170.6 219.8 164 219.8 C 157.3 219.8 157.3 209.8 164 209.8 Z"></path><path fill="rgb(223, 83, 83)" fill-opacity=" .5" d="M 232 186.7 C 238.6 186.7 238.6 196.7 232 196.7 C 225.3 196.7 225.3 186.7 232 186.7 Z"></path><path fill="rgb(223, 83, 83)" fill-opacity=" .5" d="M 179 204.2 C 185.6 204.2 185.6 214.2 179 214.2 C 172.3 214.2 172.3 204.2 179 204.2 Z"></path></g><g class="highcharts-series highcharts-tracker" visibility="visible"  transform="translate(67,61) scale(1 1)" clip-path="url(#highcharts-3)" style=""></g><g class="highcharts-markers highcharts-tracker" visibility="visible"  transform="translate(67,61) scale(1 1)" clip-path="url(#highcharts-2)" style=""><path fill="rgb(119, 152, 191)" fill-opacity=" .5" d="M 340 129.4 L 345 134.4 340 139.4 335 134.4 Z"></path><path fill="rgb(119, 152, 191)" fill-opacity=" .5" d="M 340 129.4 L 345 134.4 340 139.4 335 134.4 Z"></path><path fill="rgb(119, 152, 191)" fill-opacity=" .5" d="M 319 127.2 L 324 132.2 319 137.2 314 132.2 Z"></path><path fill="rgb(119, 152, 191)" fill-opacity=" .5" d="M 426 93.9 L 431 98.9 426 103.9 421 98.9 Z"></path><path fill="rgb(119, 152, 191)" fill-opacity=" .5" d="M 330 139.1 L 335 144.1 330 149.1 325 144.1 Z"></path><path fill="rgb(119, 152, 191)" fill-opacity=" .5" d="M 319 130.6 L 324 135.6 319 140.6 314 135.6 Z"></path><path fill="rgb(119, 152, 191)" fill-opacity=" .5" d="M 255 178.8 L 260 183.8 255 188.8 250 183.8 Z"></path><path fill="rgb(119, 152, 191)" fill-opacity=" .5" d="M 330 115.4 L 335 120.4 330 125.4 325 120.4 Z"></path><path fill="rgb(119, 152, 191)" fill-opacity=" .5" d="M 363 111.2 L 368 116.2 363 121.2 358 116.2 Z"></path><path fill="rgb(119, 152, 191)" fill-opacity=" .5" d="M 363 170.3 L 368 175.3 363 180.3 358 175.3 Z"></path><path fill="rgb(119, 152, 191)" fill-opacity=" .5" d="M 233 145.7 L 238 150.7 233 155.7 228 150.7 Z"></path><path fill="rgb(119, 152, 191)" fill-opacity=" .5" d="M 340 153.0 L 345 158.0 340 163.0 335 158.0 Z"></path><path fill="rgb(119, 152, 191)" fill-opacity=" .5" d="M 405 123.0 L 410 128.0 405 133.0 400 128.0 Z"></path><path fill="rgb(119, 152, 191)" fill-opacity=" .5" d="M 233 150.9 L 238 155.9 233 160.9 228 155.9 Z"></path><path fill="rgb(119, 152, 191)" fill-opacity=" .5" d="M 340 152.1 L 345 157.1 340 162.1 335 157.1 Z"></path><path fill="rgb(119, 152, 191)" fill-opacity=" .5" d="M 308 131.5 L 313 136.5 308 141.5 303 136.5 Z"></path><path fill="rgb(119, 152, 191)" fill-opacity=" .5" d="M 287 137 L 292 142 287 147 282 142 Z"></path><path fill="rgb(119, 152, 191)" fill-opacity=" .5" d="M 405 119.7 L 410 124.7 405 129.7 400 124.7 Z"></path><path fill="rgb(119, 152, 191)" fill-opacity=" .5" d="M 233 155.2 L 238 160.2 233 165.2 228 160.2 Z"></path><path fill="rgb(119, 152, 191)" fill-opacity=" .5" d="M 255 143.3 L 260 148.3 255 153.3 250 148.3 Z"></path><path fill="rgb(119, 152, 191)" fill-opacity=" .5" d="M 233 173.6 L 238 178.6 233 183.6 228 178.6 Z"></path><path fill="rgb(119, 152, 191)" fill-opacity=" .5" d="M 287 158.5 L 292 163.5 287 168.5 282 163.5 Z"></path><path fill="rgb(119, 152, 191)" fill-opacity=" .5" d="M 405 103.1 L 410 108.1 405 113.1 400 108.1 Z"></path><path fill="rgb(119, 152, 191)" fill-opacity=" .5" d="M 308 118.3 L 313 123.3 308 128.3 303 123.3 Z"></path><path fill="rgb(119, 152, 191)" fill-opacity=" .5" d="M 330 156.4 L 335 161.4 330 166.4 325 161.4 Z"></path><path fill="rgb(119, 152, 191)" fill-opacity=" .5" d="M 373 143.3 L 378 148.3 373 153.3 368 148.3 Z"></path><path fill="rgb(119, 152, 191)" fill-opacity=" .5" d="M 319 83.7 L 324 88.7 319 93.7 314 88.7 Z"></path><path fill="rgb(119, 152, 191)" fill-opacity=" .5" d="M 362 125.1 L 367 130.1 362 135.1 357 130.1 Z"></path><path fill="rgb(119, 152, 191)" fill-opacity=" .5" d="M 319 145.0 L 324 150.0 319 155.0 314 150.0 Z"></path><path fill="rgb(119, 152, 191)" fill-opacity=" .5" d="M 351 126.3 L 356 131.3 351 136.3 346 131.3 Z"></path><path fill="rgb(119, 152, 191)" fill-opacity=" .5" d="M 330 147.6 L 335 152.6 330 157.6 325 152.6 Z"></path><path fill="rgb(119, 152, 191)" fill-opacity=" .5" d="M 298 132.7 L 303 137.7 298 142.7 293 137.7 Z"></path><path fill="rgb(119, 152, 191)" fill-opacity=" .5" d="M 303 142.4 L 308 147.4 303 152.4 298 147.4 Z"></path><path fill="rgb(119, 152, 191)" fill-opacity=" .5" d="M 298 167.0 L 303 172.0 298 177.0 293 172.0 Z"></path><path fill="rgb(119, 152, 191)" fill-opacity=" .5" d="M 298 110.7 L 303 115.7 298 120.7 293 115.7 Z"></path><path fill="rgb(119, 152, 191)" fill-opacity=" .5" d="M 394 86.3 L 399 91.3 394 96.3 389 91.3 Z"></path><path fill="rgb(119, 152, 191)" fill-opacity=" .5" d="M 233 147.6 L 238 152.6 233 157.6 228 152.6 Z"></path><path fill="rgb(119, 152, 191)" fill-opacity=" .5" d="M 340 116.6 L 345 121.6 340 126.6 335 121.6 Z"></path><path fill="rgb(119, 152, 191)" fill-opacity=" .5" d="M 169 155.2 L 174 160.2 169 165.2 164 160.2 Z"></path><path fill="rgb(119, 152, 191)" fill-opacity=" .5" d="M 362 119.7 L 367 124.7 362 129.7 357 124.7 Z"></path><path fill="rgb(119, 152, 191)" fill-opacity=" .5" d="M 233 168.2 L 238 173.2 233 178.2 228 173.2 Z"></path><path fill="rgb(119, 152, 191)" fill-opacity=" .5" d="M 287 151.4 L 292 156.4 287 161.4 282 156.4 Z"></path><path fill="rgb(119, 152, 191)" fill-opacity=" .5" d="M 340 123.9 L 345 128.9 340 133.9 335 128.9 Z"></path><path fill="rgb(119, 152, 191)" fill-opacity=" .5" d="M 383 128.4 L 388 133.4 383 138.4 378 133.4 Z"></path><path fill="rgb(119, 152, 191)" fill-opacity=" .5" d="M 244 148.8 L 249 153.8 244 158.8 239 153.8 Z"></path><path fill="rgb(119, 152, 191)" fill-opacity=" .5" d="M 383 103.6 L 388 108.6 383 113.6 378 108.6 Z"></path><path fill="rgb(119, 152, 191)" fill-opacity=" .5" d="M 319 181.0 L 324 186.0 319 191.0 314 186.0 Z"></path><path fill="rgb(119, 152, 191)" fill-opacity=" .5" d="M 340 142.4 L 345 147.4 340 152.4 335 147.4 Z"></path><path fill="rgb(119, 152, 191)" fill-opacity=" .5" d="M 405 105.7 L 410 110.7 405 115.7 400 110.7 Z"></path><path fill="rgb(119, 152, 191)" fill-opacity=" .5" d="M 260 105.7 L 265 110.7 260 115.7 255 110.7 Z"></path><path fill="rgb(119, 152, 191)" fill-opacity=" .5" d="M 362 148.8 L 367 153.8 362 158.8 357 153.8 Z"></path><path fill="rgb(119, 152, 191)" fill-opacity=" .5" d="M 298 158.5 L 303 163.5 298 168.5 293 163.5 Z"></path><path fill="rgb(119, 152, 191)" fill-opacity=" .5" d="M 319 104.8 L 324 109.8 319 114.8 314 109.8 Z"></path><path fill="rgb(119, 152, 191)" fill-opacity=" .5" d="M 330 106.9 L 335 111.9 330 116.9 325 111.9 Z"></path><path fill="rgb(119, 152, 191)" fill-opacity=" .5" d="M 257 166.1 L 262 171.1 257 176.1 252 171.1 Z"></path><path fill="rgb(119, 152, 191)" fill-opacity=" .5" d="M 298 121.8 L 303 126.8 298 131.8 293 126.8 Z"></path><path fill="rgb(119, 152, 191)" fill-opacity=" .5" d="M 405 130.6 L 410 135.6 405 140.6 400 135.6 Z"></path><path fill="rgb(119, 152, 191)" fill-opacity=" .5" d="M 405 135.8 L 410 140.8 405 145.8 400 140.8 Z"></path><path fill="rgb(119, 152, 191)" fill-opacity=" .5" d="M 298 152.1 L 303 157.1 298 162.1 293 157.1 Z"></path><path fill="rgb(119, 152, 191)" fill-opacity=" .5" d="M 298 162.7 L 303 167.7 298 172.7 293 167.7 Z"></path><path fill="rgb(119, 152, 191)" fill-opacity=" .5" d="M 308 125.1 L 313 130.1 308 135.1 303 130.1 Z"></path><path fill="rgb(119, 152, 191)" fill-opacity=" .5" d="M 362 115.4 L 367 120.4 362 125.4 357 120.4 Z"></path><path fill="rgb(119, 152, 191)" fill-opacity=" .5" d="M 405 110.0 L 410 115.0 405 120.0 400 115.0 Z"></path><path fill="rgb(119, 152, 191)" fill-opacity=" .5" d="M 405 112.1 L 410 117.1 405 122.1 400 117.1 Z"></path><path fill="rgb(119, 152, 191)" fill-opacity=" .5" d="M 383 127.2 L 388 132.2 383 137.2 378 132.2 Z"></path><path fill="rgb(119, 152, 191)" fill-opacity=" .5" d="M 383 132.7 L 388 137.7 383 142.7 378 137.7 Z"></path><path fill="rgb(119, 152, 191)" fill-opacity=" .5" d="M 265 160.6 L 270 165.6 265 170.6 260 165.6 Z"></path><path fill="rgb(119, 152, 191)" fill-opacity=" .5" d="M 319 135.8 L 324 140.8 319 145.8 314 140.8 Z"></path><path fill="rgb(119, 152, 191)" fill-opacity=" .5" d="M 287 131.0 L 292 136.0 287 141.0 282 136.0 Z"></path><path fill="rgb(119, 152, 191)" fill-opacity=" .5" d="M 319 132.7 L 324 137.7 319 142.7 314 137.7 Z"></path><path fill="rgb(119, 152, 191)" fill-opacity=" .5" d="M 405 123.0 L 410 128.0 405 133.0 400 128.0 Z"></path><path fill="rgb(119, 152, 191)" fill-opacity=" .5" d="M 405 127.2 L 410 132.2 405 137.2 400 132.2 Z"></path><path fill="rgb(119, 152, 191)" fill-opacity=" .5" d="M 394 109.0 L 399 114.0 394 119.0 389 114.0 Z"></path><path fill="rgb(119, 152, 191)" fill-opacity=" .5" d="M 308 152.1 L 313 157.1 308 162.1 303 157.1 Z"></path><path fill="rgb(119, 152, 191)" fill-opacity=" .5" d="M 362 138.1 L 367 143.1 362 148.1 357 143.1 Z"></path><path fill="rgb(119, 152, 191)" fill-opacity=" .5" d="M 340 147.6 L 345 152.6 340 157.6 335 152.6 Z"></path><path fill="rgb(119, 152, 191)" fill-opacity=" .5" d="M 233 130.6 L 238 135.6 233 140.6 228 135.6 Z"></path><path fill="rgb(119, 152, 191)" fill-opacity=" .5" d="M 233 162.7 L 238 167.7 233 172.7 228 167.7 Z"></path><path fill="rgb(119, 152, 191)" fill-opacity=" .5" d="M 319 97.2 L 324 102.2 319 107.2 314 102.2 Z"></path><path fill="rgb(119, 152, 191)" fill-opacity=" .5" d="M 319 132.7 L 324 137.7 319 142.7 314 137.7 Z"></path><path fill="rgb(119, 152, 191)" fill-opacity=" .5" d="M 265 110.0 L 270 115.0 265 120.0 260 115.0 Z"></path><path fill="rgb(119, 152, 191)" fill-opacity=" .5" d="M 447 99.3 L 452 104.3 447 109.3 442 104.3 Z"></path><path fill="rgb(119, 152, 191)" fill-opacity=" .5" d="M 255 170.3 L 260 175.3 255 180.3 250 175.3 Z"></path><path fill="rgb(119, 152, 191)" fill-opacity=" .5" d="M 298 156.4 L 303 161.4 298 166.4 293 161.4 Z"></path><path fill="rgb(119, 152, 191)" fill-opacity=" .5" d="M 330 119.7 L 335 124.7 330 129.7 325 124.7 Z"></path><path fill="rgb(119, 152, 191)" fill-opacity=" .5" d="M 426 127.2 L 431 132.2 426 137.2 421 132.2 Z"></path><path fill="rgb(119, 152, 191)" fill-opacity=" .5" d="M 276 99.3 L 281 104.3 276 109.3 271 104.3 Z"></path><path fill="rgb(119, 152, 191)" fill-opacity=" .5" d="M 351 159.4 L 356 164.4 351 169.4 346 164.4 Z"></path><path fill="rgb(119, 152, 191)" fill-opacity=" .5" d="M 383 84.2 L 388 89.2 383 94.2 378 89.2 Z"></path><path fill="rgb(119, 152, 191)" fill-opacity=" .5" d="M 212 169.1 L 217 174.1 212 179.1 207 174.1 Z"></path><path fill="rgb(119, 152, 191)" fill-opacity=" .5" d="M 298 166.1 L 303 171.1 298 176.1 293 171.1 Z"></path><path fill="rgb(119, 152, 191)" fill-opacity=" .5" d="M 233 163.9 L 238 168.9 233 173.9 228 168.9 Z"></path><path fill="rgb(119, 152, 191)" fill-opacity=" .5" d="M 255 123.9 L 260 128.9 255 133.9 250 128.9 Z"></path><path fill="rgb(119, 152, 191)" fill-opacity=" .5" d="M 362 134.8 L 367 139.8 362 144.8 357 139.8 Z"></path><path fill="rgb(119, 152, 191)" fill-opacity=" .5" d="M 319 134.8 L 324 139.8 319 144.8 314 139.8 Z"></path><path fill="rgb(119, 152, 191)" fill-opacity=" .5" d="M 319 175.8 L 324 180.8 319 185.8 314 180.8 Z"></path><path fill="rgb(119, 152, 191)" fill-opacity=" .5" d="M 276 144.5 L 281 149.5 276 154.5 271 149.5 Z"></path><path fill="rgb(119, 152, 191)" fill-opacity=" .5" d="M 276 127.2 L 281 132.2 276 137.2 271 132.2 Z"></path><path fill="rgb(119, 152, 191)" fill-opacity=" .5" d="M 265 154.2 L 270 159.2 265 164.2 260 159.2 Z"></path><path fill="rgb(119, 152, 191)" fill-opacity=" .5" d="M 340 157.3 L 345 162.3 340 167.3 335 162.3 Z"></path><path fill="rgb(119, 152, 191)" fill-opacity=" .5" d="M 319 155.9 L 324 160.9 319 165.9 314 160.9 Z"></path><path fill="rgb(119, 152, 191)" fill-opacity=" .5" d="M 308 136.5 L 313 141.5 308 146.5 303 141.5 Z"></path><path fill="rgb(119, 152, 191)" fill-opacity=" .5" d="M 373 102.6 L 378 107.6 373 112.6 368 107.6 Z"></path><path fill="rgb(119, 152, 191)" fill-opacity=" .5" d="M 319 118.7 L 324 123.7 319 128.7 314 123.7 Z"></path><path fill="rgb(119, 152, 191)" fill-opacity=" .5" d="M 426 134.8 L 431 139.8 426 144.8 421 139.8 Z"></path><path fill="rgb(119, 152, 191)" fill-opacity=" .5" d="M 319 121.8 L 324 126.8 319 131.8 314 126.8 Z"></path><path fill="rgb(119, 152, 191)" fill-opacity=" .5" d="M 426 69.3 L 431 74.3 426 79.3 421 74.3 Z"></path><path fill="rgb(119, 152, 191)" fill-opacity=" .5" d="M 255 162.7 L 260 167.7 255 172.7 250 167.7 Z"></path><path fill="rgb(119, 152, 191)" fill-opacity=" .5" d="M 298 173.6 L 303 178.6 298 183.6 293 178.6 Z"></path><path fill="rgb(119, 152, 191)" fill-opacity=" .5" d="M 233 126.3 L 238 131.3 233 136.3 228 131.3 Z"></path><path fill="rgb(119, 152, 191)" fill-opacity=" .5" d="M 244 162.7 L 249 167.7 244 172.7 239 167.7 Z"></path><path fill="rgb(119, 152, 191)" fill-opacity=" .5" d="M 383 145.5 L 388 150.5 383 155.5 378 150.5 Z"></path><path fill="rgb(119, 152, 191)" fill-opacity=" .5" d="M 426 152.1 L 431 157.1 426 162.1 421 157.1 Z"></path><path fill="rgb(119, 152, 191)" fill-opacity=" .5" d="M 276 111.2 L 281 116.2 276 121.2 271 116.2 Z"></path><path fill="rgb(119, 152, 191)" fill-opacity=" .5" d="M 335 121.8 L 340 126.8 335 131.8 330 126.8 Z"></path><path fill="rgb(119, 152, 191)" fill-opacity=" .5" d="M 319 142.4 L 324 147.4 319 152.4 314 147.4 Z"></path><path fill="rgb(119, 152, 191)" fill-opacity=" .5" d="M 223 148.8 L 228 153.8 223 158.8 218 153.8 Z"></path><path fill="rgb(119, 152, 191)" fill-opacity=" .5" d="M 426 115.4 L 431 120.4 426 125.4 421 120.4 Z"></path><path fill="rgb(119, 152, 191)" fill-opacity=" .5" d="M 223 123.0 L 228 128.0 223 133.0 218 128.0 Z"></path><path fill="rgb(119, 152, 191)" fill-opacity=" .5" d="M 298 111.2 L 303 116.2 298 121.2 293 116.2 Z"></path><path fill="rgb(119, 152, 191)" fill-opacity=" .5" d="M 490 123.9 L 495 128.9 490 133.9 485 128.9 Z"></path><path fill="rgb(119, 152, 191)" fill-opacity=" .5" d="M 405 128.4 L 410 133.4 405 138.4 400 133.4 Z"></path><path fill="rgb(119, 152, 191)" fill-opacity=" .5" d="M 201 155.4 L 206 160.4 201 165.4 196 160.4 Z"></path><path fill="rgb(119, 152, 191)" fill-opacity=" .5" d="M 319 50.8 L 324 55.8 319 60.8 314 55.8 Z"></path><path fill="rgb(119, 152, 191)" fill-opacity=" .5" d="M 319 156.4 L 324 161.4 319 166.4 314 161.4 Z"></path><path fill="rgb(119, 152, 191)" fill-opacity=" .5" d="M 319 140.3 L 324 145.3 319 150.3 314 145.3 Z"></path><path fill="rgb(119, 152, 191)" fill-opacity=" .5" d="M 319 138.1 L 324 143.1 319 148.1 314 143.1 Z"></path><path fill="rgb(119, 152, 191)" fill-opacity=" .5" d="M 319 189.0 L 324 194.0 319 199.0 314 194.0 Z"></path><path fill="rgb(119, 152, 191)" fill-opacity=" .5" d="M 340 130.6 L 345 135.6 340 140.6 335 135.6 Z"></path><path fill="rgb(119, 152, 191)" fill-opacity=" .5" d="M 340 105.7 L 345 110.7 340 115.7 335 110.7 Z"></path><path fill="rgb(119, 152, 191)" fill-opacity=" .5" d="M 319 147.6 L 324 152.6 319 157.6 314 152.6 Z"></path><path fill="rgb(119, 152, 191)" fill-opacity=" .5" d="M 383 168.2 L 388 173.2 383 178.2 378 173.2 Z"></path><path fill="rgb(119, 152, 191)" fill-opacity=" .5" d="M 298 127.2 L 303 132.2 298 137.2 293 132.2 Z"></path><path fill="rgb(119, 152, 191)" fill-opacity=" .5" d="M 287 116.6 L 292 121.6 287 126.6 282 121.6 Z"></path><path fill="rgb(119, 152, 191)" fill-opacity=" .5" d="M 212 172.5 L 217 177.5 212 182.5 207 177.5 Z"></path><path fill="rgb(119, 152, 191)" fill-opacity=" .5" d="M 394 121.8 L 399 126.8 394 131.8 389 126.8 Z"></path><path fill="rgb(119, 152, 191)" fill-opacity=" .5" d="M 212 172.5 L 217 177.5 212 182.5 207 177.5 Z"></path><path fill="rgb(119, 152, 191)" fill-opacity=" .5" d="M 276 155.2 L 281 160.2 276 165.2 271 160.2 Z"></path><path fill="rgb(119, 152, 191)" fill-opacity=" .5" d="M 319 174.6 L 324 179.6 319 184.6 314 179.6 Z"></path><path fill="rgb(119, 152, 191)" fill-opacity=" .5" d="M 255 154.2 L 260 159.2 255 164.2 250 159.2 Z"></path><path fill="rgb(119, 152, 191)" fill-opacity=" .5" d="M 340 129.4 L 345 134.4 340 139.4 335 134.4 Z"></path><path fill="rgb(119, 152, 191)" fill-opacity=" .5" d="M 145 188.1 L 150 193.1 145 198.1 140 193.1 Z"></path><path fill="rgb(119, 152, 191)" fill-opacity=" .5" d="M 244 194.9 L 249 199.9 244 204.9 239 199.9 Z"></path><path fill="rgb(119, 152, 191)" fill-opacity=" .5" d="M 321 155.9 L 326 160.9 321 165.9 316 160.9 Z"></path><path fill="rgb(119, 152, 191)" fill-opacity=" .5" d="M 231 198.7 L 236 203.7 231 208.7 226 203.7 Z"></path><path fill="rgb(119, 152, 191)" fill-opacity=" .5" d="M 315 153.0 L 320 158.0 315 163.0 310 158.0 Z"></path><path fill="rgb(119, 152, 191)" fill-opacity=" .5" d="M 379 121.8 L 384 126.8 379 131.8 374 126.8 Z"></path><path fill="rgb(119, 152, 191)" fill-opacity=" .5" d="M 298 118.7 L 303 123.7 298 128.7 293 123.7 Z"></path><path fill="rgb(119, 152, 191)" fill-opacity=" .5" d="M 336 126.3 L 341 131.3 336 136.3 331 131.3 Z"></path><path fill="rgb(119, 152, 191)" fill-opacity=" .5" d="M 355 147.1 L 360 152.1 355 157.1 350 152.1 Z"></path><path fill="rgb(119, 152, 191)" fill-opacity=" .5" d="M 248 170.3 L 253 175.3 248 180.3 243 175.3 Z"></path><path fill="rgb(119, 152, 191)" fill-opacity=" .5" d="M 308 164.4 L 313 169.4 308 174.4 303 169.4 Z"></path><path fill="rgb(119, 152, 191)" fill-opacity=" .5" d="M 439 84.2 L 444 89.2 439 94.2 434 89.2 Z"></path><path fill="rgb(119, 152, 191)" fill-opacity=" .5" d="M 312 163.2 L 317 168.2 312 173.2 307 168.2 Z"></path><path fill="rgb(119, 152, 191)" fill-opacity=" .5" d="M 212 159.4 L 217 164.4 212 169.4 207 164.4 Z"></path><path fill="rgb(119, 152, 191)" fill-opacity=" .5" d="M 287 152.6 L 292 157.6 287 162.6 282 157.6 Z"></path><path fill="rgb(119, 152, 191)" fill-opacity=" .5" d="M 295 160.1 L 300 165.1 295 170.1 290 165.1 Z"></path><path fill="rgb(119, 152, 191)" fill-opacity=" .5" d="M 308 153.5 L 313 158.5 308 163.5 303 158.5 Z"></path><path fill="rgb(119, 152, 191)" fill-opacity=" .5" d="M 351 147.6 L 356 152.6 351 157.6 346 152.6 Z"></path><path fill="rgb(119, 152, 191)" fill-opacity=" .5" d="M 313 128.9 L 318 133.9 313 138.9 308 133.9 Z"></path><path fill="rgb(119, 152, 191)" fill-opacity=" .5" d="M 312 154.7 L 317 159.7 312 164.7 307 159.7 Z"></path><path fill="rgb(119, 152, 191)" fill-opacity=" .5" d="M 343 154.7 L 348 159.7 343 164.7 338 159.7 Z"></path><path fill="rgb(119, 152, 191)" fill-opacity=" .5" d="M 299 158.5 L 304 163.5 299 168.5 294 163.5 Z"></path><path fill="rgb(119, 152, 191)" fill-opacity=" .5" d="M 375 165.4 L 380 170.4 375 175.4 370 170.4 Z"></path><path fill="rgb(119, 152, 191)" fill-opacity=" .5" d="M 343 154.2 L 348 159.2 343 164.2 338 159.2 Z"></path><path fill="rgb(119, 152, 191)" fill-opacity=" .5" d="M 299 134.8 L 304 139.8 299 144.8 294 139.8 Z"></path><path fill="rgb(119, 152, 191)" fill-opacity=" .5" d="M 338 106.2 L 343 111.2 338 116.2 333 111.2 Z"></path><path fill="rgb(119, 152, 191)" fill-opacity=" .5" d="M 482 111.2 L 487 116.2 482 121.2 477 116.2 Z"></path><path fill="rgb(119, 152, 191)" fill-opacity=" .5" d="M 358 150.0 L 363 155.0 358 160.0 353 155.0 Z"></path><path fill="rgb(119, 152, 191)" fill-opacity=" .5" d="M 257 191.9 L 262 196.9 257 201.9 252 196.9 Z"></path><path fill="rgb(119, 152, 191)" fill-opacity=" .5" d="M 316 155.9 L 321 160.9 316 165.9 311 160.9 Z"></path><path fill="rgb(119, 152, 191)" fill-opacity=" .5" d="M 291 175.1 L 296 180.1 291 185.1 286 180.1 Z"></path><path fill="rgb(119, 152, 191)" fill-opacity=" .5" d="M 312 164.9 L 317 169.9 312 174.9 307 169.9 Z"></path><path fill="rgb(119, 152, 191)" fill-opacity=" .5" d="M 347 170.1 L 352 175.1 347 180.1 342 175.1 Z"></path><path fill="rgb(119, 152, 191)" fill-opacity=" .5" d="M 231 166.1 L 236 171.1 231 176.1 226 171.1 Z"></path><path fill="rgb(119, 152, 191)" fill-opacity=" .5" d="M 351 139.6 L 356 144.6 351 149.6 346 144.6 Z"></path><path fill="rgb(119, 152, 191)" fill-opacity=" .5" d="M 263 139.1 L 268 144.1 263 149.1 258 144.1 Z"></path><path fill="rgb(119, 152, 191)" fill-opacity=" .5" d="M 299 176.7 L 304 181.7 299 186.7 294 181.7 Z"></path><path fill="rgb(119, 152, 191)" fill-opacity=" .5" d="M 439 85.8 L 444 90.8 439 95.8 434 90.8 Z"></path><path fill="rgb(119, 152, 191)" fill-opacity=" .5" d="M 207 160.6 L 212 165.6 207 170.6 202 165.6 Z"></path><path fill="rgb(119, 152, 191)" fill-opacity=" .5" d="M 319 149.3 L 324 154.3 319 159.3 314 154.3 Z"></path><path fill="rgb(119, 152, 191)" fill-opacity=" .5" d="M 228 173.4 L 233 178.4 228 183.4 223 178.4 Z"></path><path fill="rgb(119, 152, 191)" fill-opacity=" .5" d="M 354 155.9 L 359 160.9 354 165.9 349 160.9 Z"></path><path fill="rgb(119, 152, 191)" fill-opacity=" .5" d="M 268 169.8 L 273 174.8 268 179.8 263 174.8 Z"></path><path fill="rgb(119, 152, 191)" fill-opacity=" .5" d="M 228 164.9 L 233 169.9 228 174.9 223 169.9 Z"></path><path fill="rgb(119, 152, 191)" fill-opacity=" .5" d="M 388 125.6 L 393 130.6 388 135.6 383 130.6 Z"></path><path fill="rgb(119, 152, 191)" fill-opacity=" .5" d="M 312 156.8 L 317 161.8 312 166.8 307 161.8 Z"></path><path fill="rgb(119, 152, 191)" fill-opacity=" .5" d="M 287 155.4 L 292 160.4 287 165.4 282 160.4 Z"></path><path fill="rgb(119, 152, 191)" fill-opacity=" .5" d="M 287 120.9 L 292 125.9 287 130.9 282 125.9 Z"></path><path fill="rgb(119, 152, 191)" fill-opacity=" .5" d="M 373 144.5 L 378 149.5 373 154.5 368 149.5 Z"></path><path fill="rgb(119, 152, 191)" fill-opacity=" .5" d="M 266 181.0 L 271 186.0 266 191.0 261 186.0 Z"></path><path fill="rgb(119, 152, 191)" fill-opacity=" .5" d="M 194 191.4 L 199 196.4 194 201.4 189 196.4 Z"></path><path fill="rgb(119, 152, 191)" fill-opacity=" .5" d="M 203 195.6 L 208 200.6 203 205.6 198 200.6 Z"></path><path fill="rgb(119, 152, 191)" fill-opacity=" .5" d="M 356 120.1 L 361 125.1 356 130.1 351 125.1 Z"></path><path fill="rgb(119, 152, 191)" fill-opacity=" .5" d="M 276 148.1 L 281 153.1 276 158.1 271 153.1 Z"></path><path fill="rgb(119, 152, 191)" fill-opacity=" .5" d="M 287 122.3 L 292 127.3 287 132.3 282 127.3 Z"></path><path fill="rgb(119, 152, 191)" fill-opacity=" .5" d="M 249 147.4 L 254 152.4 249 157.4 244 152.4 Z"></path><path fill="rgb(119, 152, 191)" fill-opacity=" .5" d="M 228 186.4 L 233 191.4 228 196.4 223 191.4 Z"></path><path fill="rgb(119, 152, 191)" fill-opacity=" .5" d="M 271 149.0 L 276 154.0 271 159.0 266 154.0 Z"></path><path fill="rgb(119, 152, 191)" fill-opacity=" .5" d="M 314 103.6 L 319 108.6 314 113.6 309 108.6 Z"></path><path fill="rgb(119, 152, 191)" fill-opacity=" .5" d="M 405 127.2 L 410 132.2 405 137.2 400 132.2 Z"></path><path fill="rgb(119, 152, 191)" fill-opacity=" .5" d="M 362 116.4 L 367 121.4 362 126.4 357 121.4 Z"></path><path fill="rgb(119, 152, 191)" fill-opacity=" .5" d="M 340 130.8 L 345 135.8 340 140.8 335 135.8 Z"></path><path fill="rgb(119, 152, 191)" fill-opacity=" .5" d="M 298 155.6 L 303 160.6 298 165.6 293 160.6 Z"></path><path fill="rgb(119, 152, 191)" fill-opacity=" .5" d="M 276 152.6 L 281 157.6 276 162.6 271 157.6 Z"></path><path fill="rgb(119, 152, 191)" fill-opacity=" .5" d="M 265 125.8 L 270 130.8 265 135.8 260 130.8 Z"></path><path fill="rgb(119, 152, 191)" fill-opacity=" .5" d="M 394 118.5 L 399 123.5 394 128.5 389 123.5 Z"></path><path fill="rgb(119, 152, 191)" fill-opacity=" .5" d="M 373 136.7 L 378 141.7 373 146.7 368 141.7 Z"></path><path fill="rgb(119, 152, 191)" fill-opacity=" .5" d="M 319 163.9 L 324 168.9 319 173.9 314 168.9 Z"></path><path fill="rgb(119, 152, 191)" fill-opacity=" .5" d="M 253 181.2 L 258 186.2 253 191.2 248 186.2 Z"></path><path fill="rgb(119, 152, 191)" fill-opacity=" .5" d="M 354 167.2 L 359 172.2 354 177.2 349 172.2 Z"></path><path fill="rgb(119, 152, 191)" fill-opacity=" .5" d="M 253 185.5 L 258 190.5 253 195.5 248 190.5 Z"></path><path fill="rgb(119, 152, 191)" fill-opacity=" .5" d="M 277 162.7 L 282 167.7 277 172.7 272 167.7 Z"></path><path fill="rgb(119, 152, 191)" fill-opacity=" .5" d="M 415 127.2 L 420 132.2 415 137.2 410 132.2 Z"></path><path fill="rgb(119, 152, 191)" fill-opacity=" .5" d="M 405 154.9 L 410 159.9 405 164.9 400 159.9 Z"></path><path fill="rgb(119, 152, 191)" fill-opacity=" .5" d="M 299 160.6 L 304 165.6 299 170.6 294 165.6 Z"></path><path fill="rgb(119, 152, 191)" fill-opacity=" .5" d="M 367 149.3 L 372 154.3 367 159.3 362 154.3 Z"></path><path fill="rgb(119, 152, 191)" fill-opacity=" .5" d="M 278 182.2 L 283 187.2 278 192.2 273 187.2 Z"></path><path fill="rgb(119, 152, 191)" fill-opacity=" .5" d="M 207 176.7 L 212 181.7 207 186.7 202 181.7 Z"></path><path fill="rgb(119, 152, 191)" fill-opacity=" .5" d="M 340 145.5 L 345 150.5 340 155.5 335 150.5 Z"></path><path fill="rgb(119, 152, 191)" fill-opacity=" .5" d="M 340 130.3 L 345 135.3 340 140.3 335 135.3 Z"></path><path fill="rgb(119, 152, 191)" fill-opacity=" .5" d="M 321 114.2 L 326 119.2 321 124.2 316 119.2 Z"></path><path fill="rgb(119, 152, 191)" fill-opacity=" .5" d="M 283 132.7 L 288 137.7 283 142.7 278 137.7 Z"></path><path fill="rgb(119, 152, 191)" fill-opacity=" .5" d="M 304 121.8 L 309 126.8 304 131.8 299 126.8 Z"></path><path fill="rgb(119, 152, 191)" fill-opacity=" .5" d="M 276 169.6 L 281 174.6 276 179.6 271 174.6 Z"></path><path fill="rgb(119, 152, 191)" fill-opacity=" .5" d="M 342 142.2 L 347 147.2 342 152.2 337 147.2 Z"></path><path fill="rgb(119, 152, 191)" fill-opacity=" .5" d="M 304 139.8 L 309 144.8 304 149.8 299 144.8 Z"></path><path fill="rgb(119, 152, 191)" fill-opacity=" .5" d="M 304 123.0 L 309 128.0 304 133.0 299 128.0 Z"></path><path fill="rgb(119, 152, 191)" fill-opacity=" .5" d="M 278 154.9 L 283 159.9 278 164.9 273 159.9 Z"></path><path fill="rgb(119, 152, 191)" fill-opacity=" .5" d="M 266 160.6 L 271 165.6 266 170.6 261 165.6 Z"></path><path fill="rgb(119, 152, 191)" fill-opacity=" .5" d="M 445 104.3 L 450 109.3 445 114.3 440 109.3 Z"></path><path fill="rgb(119, 152, 191)" fill-opacity=" .5" d="M 371 137.9 L 376 142.9 371 147.9 366 142.9 Z"></path><path fill="rgb(119, 152, 191)" fill-opacity=" .5" d="M 287 158.3 L 292 163.3 287 168.3 282 163.3 Z"></path><path fill="rgb(119, 152, 191)" fill-opacity=" .5" d="M 304 149.7 L 309 154.7 304 159.7 299 154.7 Z"></path><path fill="rgb(119, 152, 191)" fill-opacity=" .5" d="M 439 113.3 L 444 118.3 439 123.3 434 118.3 Z"></path><path fill="rgb(119, 152, 191)" fill-opacity=" .5" d="M 319 128.4 L 324 133.4 319 138.4 314 133.4 Z"></path><path fill="rgb(119, 152, 191)" fill-opacity=" .5" d="M 338 145.0 L 343 150.0 338 155.0 333 150.0 Z"></path><path fill="rgb(119, 152, 191)" fill-opacity=" .5" d="M 371 133.2 L 376 138.2 371 143.2 366 138.2 Z"></path><path fill="rgb(119, 152, 191)" fill-opacity=" .5" d="M 295 179.6 L 300 184.6 295 189.6 290 184.6 Z"></path><path fill="rgb(119, 152, 191)" fill-opacity=" .5" d="M 376 140.7 L 381 145.7 376 150.7 371 145.7 Z"></path><path fill="rgb(119, 152, 191)" fill-opacity=" .5" d="M 371 121.8 L 376 126.8 371 131.8 366 126.8 Z"></path><path fill="rgb(119, 152, 191)" fill-opacity=" .5" d="M 350 149.3 L 355 154.3 350 159.3 345 154.3 Z"></path><path fill="rgb(119, 152, 191)" fill-opacity=" .5" d="M 398 139.8 L 403 144.8 398 149.8 393 144.8 Z"></path><path fill="rgb(119, 152, 191)" fill-opacity=" .5" d="M 392 154.5 L 397 159.5 392 164.5 387 159.5 Z"></path><path fill="rgb(119, 152, 191)" fill-opacity=" .5" d="M 452 135.3 L 457 140.3 452 145.3 447 140.3 Z"></path><path fill="rgb(119, 152, 191)" fill-opacity=" .5" d="M 298 156.4 L 303 161.4 298 166.4 293 161.4 Z"></path><path fill="rgb(119, 152, 191)" fill-opacity=" .5" d="M 287 171.0 L 292 176.0 287 181.0 282 176.0 Z"></path></g></g><text x="292" text-anchor="middle" class="highcharts-title"  style="color:#333333;font-size:18px;fill:#333333;width:520px;" y="24"><tspan>Height Versus Weight of 507 Individuals by Gender</tspan></text><text x="292" text-anchor="middle" class="highcharts-subtitle"  style="color:#555555;fill:#555555;width:520px;" y="46"><tspan>Source: Heinz  2003</tspan></text><g class="highcharts-legend"  transform="translate(110,80)"><rect x="0.5" y="0.5" width="77" height="38" strokeWidth="1" stroke="#909090" stroke-width="1" fill="#FFFFFF" visibility="visible"></rect><g ><g><g class="highcharts-legend-item"  transform="translate(8,3)"><path fill="rgb(223, 83, 83)" fill-opacity=" .5" d="M 8 6 C 14.6 6 14.6 16 8 16 C 1.3 16 1.3 6 8 6 Z"></path><text x="21" style="color:#333333;font-size:12px;font-weight:bold;cursor:pointer;fill:#333333;" text-anchor="start"  y="15">Female</text></g><g class="highcharts-legend-item"  transform="translate(8,17)"><path fill="rgb(119, 152, 191)" fill-opacity=" .5" d="M 8 6 L 13 11 8 16 3 11 Z"></path><text x="21" y="15" style="color:#333333;font-size:12px;font-weight:bold;cursor:pointer;fill:#333333;" text-anchor="start" >Male</text></g></g></g></g><g class="highcharts-axis-labels highcharts-xaxis-labels" ><text x="67" style="color:#606060;cursor:default;font-size:11px;fill:#606060;width:71px;text-overflow:clip;" text-anchor="middle" transform="translate(0,0)" y="364" opacity="1">140</text><text x="151.5" style="color:#606060;cursor:default;font-size:11px;fill:#606060;width:71px;text-overflow:clip;" text-anchor="middle" transform="translate(0,0)" y="364" opacity="1">150</text><text x="236" style="color:#606060;cursor:default;font-size:11px;fill:#606060;width:71px;text-overflow:clip;" text-anchor="middle" transform="translate(0,0)" y="364" opacity="1">160</text><text x="320.5" style="color:#606060;cursor:default;font-size:11px;fill:#606060;width:71px;text-overflow:clip;" text-anchor="middle" transform="translate(0,0)" y="364" opacity="1">170</text><text x="405" style="color:#606060;cursor:default;font-size:11px;fill:#606060;width:71px;text-overflow:clip;" text-anchor="middle" transform="translate(0,0)" y="364" opacity="1">180</text><text x="489.4" style="color:#606060;cursor:default;font-size:11px;fill:#606060;width:71px;text-overflow:clip;" text-anchor="middle" transform="translate(0,0)" y="364" opacity="1">190</text><text x="574" style="color:#606060;cursor:default;font-size:11px;fill:#606060;width:71px;text-overflow:clip;" text-anchor="end" transform="translate(0,0)" y="364" opacity="1">200</text></g><g class="highcharts-axis-labels highcharts-yaxis-labels" ><text x="52" style="color:#606060;cursor:default;font-size:11px;fill:#606060;width:183px;text-overflow:clip;" text-anchor="end" transform="translate(0,0)" y="350" opacity="1">20</text><text x="52" style="color:#606060;cursor:default;font-size:11px;fill:#606060;width:183px;text-overflow:clip;" text-anchor="end" transform="translate(0,0)" y="302" opacity="1">40</text><text x="52" style="color:#606060;cursor:default;font-size:11px;fill:#606060;width:183px;text-overflow:clip;" text-anchor="end" transform="translate(0,0)" y="255" opacity="1">60</text><text x="52" style="color:#606060;cursor:default;font-size:11px;fill:#606060;width:183px;text-overflow:clip;" text-anchor="end" transform="translate(0,0)" y="208" opacity="1">80</text><text x="52" style="color:#606060;cursor:default;font-size:11px;fill:#606060;width:183px;text-overflow:clip;" text-anchor="end" transform="translate(0,0)" y="160" opacity="1">100</text><text x="52" style="color:#606060;cursor:default;font-size:11px;fill:#606060;width:183px;text-overflow:clip;" text-anchor="end" transform="translate(0,0)" y="113" opacity="1">120</text><text x="52" style="color:#606060;cursor:default;font-size:11px;fill:#606060;width:183px;text-overflow:clip;" text-anchor="end" transform="translate(0,0)" y="66" opacity="1">140</text></g><g class="highcharts-tooltip"  style="cursor:default;padding:0;white-space:nowrap;" transform="translate(0,-9999)"><path fill="none" d="M 3 0 L 13 0 C 16 0 16 0 16 3 L 16 13 C 16 16 16 16 13 16 L 3 16 C 0 16 0 16 0 13 L 0 3 C 0 0 0 0 3 0"  stroke="black" stroke-opacity="0.0" stroke-width="5" transform="translate(1, 1)"></path><path fill="none" d="M 3 0 L 13 0 C 16 0 16 0 16 3 L 16 13 C 16 16 16 16 13 16 L 3 16 C 0 16 0 16 0 13 L 0 3 C 0 0 0 0 3 0"  stroke="black" stroke-opacity="0.0" stroke-width="3" transform="translate(1, 1)"></path><path fill="none" d="M 3 0 L 13 0 C 16 0 16 0 16 3 L 16 13 C 16 16 16 16 13 16 L 3 16 C 0 16 0 16 0 13 L 0 3 C 0 0 0 0 3 0"  stroke="black" stroke-opacity="0.1" stroke-width="1" transform="translate(1, 1)"></path><path fill="rgb(249, 249, 249)" fill-opacity=" .85" d="M 3 0 L 13 0 C 16 0 16 0 16 3 L 16 13 C 16 16 16 16 13 16 L 3 16 C 0 16 0 16 0 13 L 0 3 C 0 0 0 0 3 0"></path><text x="8"  style="font-size:12px;color:#333333;fill:#333333;" transform="translate(0,20)"></text></g></svg>