<svg version="1.1" style="font-family:&quot;lucida grande&quot;, &quot;lucida sans unicode&quot;, arial, helvetica, sans-serif;font-size:12px;" xmlns="http://www.w3.org/2000/svg" width="584" height="400" viewBox="0 0 584 400"><desc>Created with Highcharts 4.1.4</desc><defs><clipPath id="highcharts-1"><rect x="1" y="0" width="283" height="500"></rect></clipPath><clipPath id="highcharts-2"><rect x="-99" y="-74" width="383" height="584"></rect></clipPath><clipPath id="highcharts-3"><rect x="1" y="0" width="284" height="500"></rect></clipPath></defs><rect x="0" y="0" width="584" height="400" strokeWidth="0" fill="#FFFFFF" class=" highcharts-background" stroke="transparent"></rect><g class="highcharts-grid" ></g><g class="highcharts-grid" ><path fill="none" d="M 73.5 61 L 73.5 345" stroke="#D8D8D8" stroke-width="1"  opacity="1"></path><path fill="none" d="M 118.5 61 L 118.5 345" stroke="#D8D8D8" stroke-width="1"  opacity="1"></path><path fill="none" d="M 164.5 61 L 164.5 345" stroke="#D8D8D8" stroke-width="1"  opacity="1"></path><path fill="none" d="M 209.5 61 L 209.5 345" stroke="#D8D8D8" stroke-width="1"  opacity="1"></path><path fill="none" d="M 255.5 61 L 255.5 345" stroke="#D8D8D8" stroke-width="1"  opacity="1"></path><path fill="none" d="M 300.5 61 L 300.5 345" stroke="#D8D8D8" stroke-width="1"  opacity="1"></path><path fill="none" d="M 346.5 61 L 346.5 345" stroke="#D8D8D8" stroke-width="1"  opacity="1"></path><path fill="none" d="M 391.5 61 L 391.5 345" stroke="#D8D8D8" stroke-width="1"  opacity="1"></path><path fill="none" d="M 437.5 61 L 437.5 345" stroke="#D8D8D8" stroke-width="1"  opacity="1"></path><path fill="none" d="M 482.5 61 L 482.5 345" stroke="#D8D8D8" stroke-width="1"  opacity="1"></path><path fill="none" d="M 528.5 61 L 528.5 345" stroke="#D8D8D8" stroke-width="1"  opacity="1"></path><path fill="none" d="M 574.5 61 L 574.5 345" stroke="#D8D8D8" stroke-width="1"  opacity="1"></path></g><g class="highcharts-axis" ><path fill="none" d="M 74 342.5 L 64 342.5" stroke="#C0D0E0" stroke-width="1" opacity="1"></path><path fill="none" d="M 74 259.5 L 64 259.5" stroke="#C0D0E0" stroke-width="1" opacity="1"></path><path fill="none" d="M 74 175.5 L 64 175.5" stroke="#C0D0E0" stroke-width="1" opacity="1"></path><path fill="none" d="M 74 91.5 L 64 91.5" stroke="#C0D0E0" stroke-width="1" opacity="1"></path><text x="24"  text-anchor="middle" transform="translate(0,0) rotate(270 24 203)" class=" highcharts-xaxis-title" style="color:#707070;fill:#707070;" visibility="visible" y="203">Altitude</text><path fill="none" d="M 73.5 61 L 73.5 345" stroke="#C0D0E0" stroke-width="1"  visibility="visible"></path></g><g class="highcharts-axis" ><text x="324"  text-anchor="middle" transform="translate(0,0)" class=" highcharts-yaxis-title" style="color:#707070;fill:#707070;" visibility="visible" y="383">Temperature</text><path fill="none" d="M 74 345 L 574 345" stroke="#C0D0E0" stroke-width="2"  visibility="visible"></path></g><g class="highcharts-series-group" ><g class="highcharts-series" visibility="visible"  transform="translate(574,345) rotate(90) scale(-1,1) scale(1 1)" clip-path="url(#highcharts-3)" width="500" height="284"><path fill="none" d="M 2.6 22.7 C 2.6 22.7 22.7 288.6 36.1 318.1 C 49.5 347.7 56.2 347.7 69.6 347.7 C 83.0 347.7 89.7 333.5 103.1 302.2 C 116.5 271 123.2 231.3 136.6 191.3 C 150.0 151.3 156.7 102.2 170.1 102.2 C 183.5 102.2 190.2 168.4 203.6 216.8 C 217.0 265.1 223.7 299.7 237.1 344.0 C 250.5 388.4 270.6 438.6 270.6 438.6" stroke="#7cb5ec" stroke-width="2"  stroke-linejoin="round" stroke-linecap="round"></path><path fill="none" d="M -7.3 22.7 L 2.6 22.7 C 2.6 22.7 22.7 288.6 36.1 318.1 C 49.5 347.7 56.2 347.7 69.6 347.7 C 83.0 347.7 89.7 333.5 103.1 302.2 C 116.5 271 123.2 231.3 136.6 191.3 C 150.0 151.3 156.7 102.2 170.1 102.2 C 183.5 102.2 190.2 168.4 203.6 216.8 C 217.0 265.1 223.7 299.7 237.1 344.0 C 250.5 388.4 270.6 438.6 270.6 438.6 L 280.6 438.6" stroke-linejoin="round" visibility="visible" stroke="rgb(192,192,192)" stroke-opacity="0.0" stroke-width="22"  class=" highcharts-tracker" style=""></path></g><g class="highcharts-markers highcharts-tracker" visibility="visible"  transform="translate(574,345) rotate(90) scale(-1,1) scale(1 1)" clip-path="url(#highcharts-2)" style="" width="500" height="284"><path fill="#7cb5ec" d="M 270 434.6 C 275.3 434.6 275.3 442.6 270 442.6 C 264.6 442.6 264.6 434.6 270 434.6 Z"></path><path fill="#7cb5ec" d="M 237 340.0 C 242.3 340.0 242.3 348.0 237 348.0 C 231.6 348.0 231.6 340.0 237 340.0 Z"></path><path fill="#7cb5ec" d="M 203 212.8 C 208.3 212.8 208.3 220.8 203 220.8 C 197.6 220.8 197.6 212.8 203 212.8 Z"></path><path fill="#7cb5ec" d="M 170 98.2 C 175.3 98.2 175.3 106.2 170 106.2 C 164.6 106.2 164.6 98.2 170 98.2 Z"></path><path fill="#7cb5ec" d="M 136 187.3 C 141.3 187.3 141.3 195.3 136 195.3 C 130.6 195.3 130.6 187.3 136 187.3 Z"></path><path fill="#7cb5ec" d="M 103 298.2 C 108.3 298.2 108.3 306.2 103 306.2 C 97.6 306.2 97.6 298.2 103 298.2 Z"></path><path fill="#7cb5ec" d="M 69 343.7 C 74.3 343.7 74.3 351.7 69 351.7 C 63.6 351.7 63.6 343.7 69 343.7 Z"></path><path fill="#7cb5ec" d="M 36 314.1 C 41.3 314.1 41.3 322.1 36 322.1 C 30.6 322.1 30.6 314.1 36 314.1 Z"></path><path fill="#7cb5ec" d="M 2 18.7 C 7.3 18.7 7.3 26.7 2 26.7 C -3.3 26.7 -3.3 18.7 2 18.7 Z"></path></g></g><text x="292" text-anchor="middle" class="highcharts-title"  style="color:#333333;font-size:18px;fill:#333333;width:520px;" y="24"><tspan>Atmosphere Temperature by Altitude</tspan></text><text x="292" text-anchor="middle" class="highcharts-subtitle"  style="color:#555555;fill:#555555;width:520px;" y="46"><tspan>According to the Standard Atmosphere Model</tspan></text><g class="highcharts-axis-labels highcharts-xaxis-labels" ><text x="59" style="color:#606060;cursor:default;font-size:11px;fill:#606060;width:183px;text-overflow:clip;" text-anchor="end" transform="translate(0,0)" y="347" opacity="1">0km</text><text x="59" style="color:#606060;cursor:default;font-size:11px;fill:#606060;width:183px;text-overflow:clip;" text-anchor="end" transform="translate(0,0)" y="263" opacity="1">25km</text><text x="59" style="color:#606060;cursor:default;font-size:11px;fill:#606060;width:183px;text-overflow:clip;" text-anchor="end" transform="translate(0,0)" y="179" opacity="1">50km</text><text x="59" style="color:#606060;cursor:default;font-size:11px;fill:#606060;width:183px;text-overflow:clip;" text-anchor="end" transform="translate(0,0)" y="96" opacity="1">75km</text></g><g class="highcharts-axis-labels highcharts-yaxis-labels" ><text x="74" style="color:#606060;cursor:default;font-size:11px;fill:#606060;" text-anchor="middle" transform="translate(0,0)" y="364" opacity="1">-90°</text><text x="119.4" style="color:#606060;cursor:default;font-size:11px;fill:#606060;" text-anchor="middle" transform="translate(0,0)" y="364" opacity="1">-80°</text><text x="164.9" style="color:#606060;cursor:default;font-size:11px;fill:#606060;" text-anchor="middle" transform="translate(0,0)" y="364" opacity="1">-70°</text><text x="210.3" style="color:#606060;cursor:default;font-size:11px;fill:#606060;" text-anchor="middle" transform="translate(0,0)" y="364" opacity="1">-60°</text><text x="255.8" style="color:#606060;cursor:default;font-size:11px;fill:#606060;" text-anchor="middle" transform="translate(0,0)" y="364" opacity="1">-50°</text><text x="301.2" style="color:#606060;cursor:default;font-size:11px;fill:#606060;" text-anchor="middle" transform="translate(0,0)" y="364" opacity="1">-40°</text><text x="346.7" style="color:#606060;cursor:default;font-size:11px;fill:#606060;" text-anchor="middle" transform="translate(0,0)" y="364" opacity="1">-30°</text><text x="392.1" style="color:#606060;cursor:default;font-size:11px;fill:#606060;" text-anchor="middle" transform="translate(0,0)" y="364" opacity="1">-20°</text><text x="437.6" style="color:#606060;cursor:default;font-size:11px;fill:#606060;" text-anchor="middle" transform="translate(0,0)" y="364" opacity="1">-10°</text><text x="483.0" style="color:#606060;cursor:default;font-size:11px;fill:#606060;" text-anchor="middle" transform="translate(0,0)" y="364" opacity="1">0°</text><text x="528.5" style="color:#606060;cursor:default;font-size:11px;fill:#606060;" text-anchor="middle" transform="translate(0,0)" y="364" opacity="1">10°</text><text x="574" style="color:#606060;cursor:default;font-size:11px;fill:#606060;" text-anchor="end" transform="translate(0,0)" y="364" opacity="1">20°</text></g><g class="highcharts-tooltip"  style="cursor:default;padding:0;white-space:nowrap;" transform="translate(0,-9999)"><path fill="none" d="M 3 0 L 13 0 C 16 0 16 0 16 3 L 16 13 C 16 16 16 16 13 16 L 3 16 C 0 16 0 16 0 13 L 0 3 C 0 0 0 0 3 0"  stroke="black" stroke-opacity="0.0" stroke-width="5" transform="translate(1, 1)"></path><path fill="none" d="M 3 0 L 13 0 C 16 0 16 0 16 3 L 16 13 C 16 16 16 16 13 16 L 3 16 C 0 16 0 16 0 13 L 0 3 C 0 0 0 0 3 0"  stroke="black" stroke-opacity="0.0" stroke-width="3" transform="translate(1, 1)"></path><path fill="none" d="M 3 0 L 13 0 C 16 0 16 0 16 3 L 16 13 C 16 16 16 16 13 16 L 3 16 C 0 16 0 16 0 13 L 0 3 C 0 0 0 0 3 0"  stroke="black" stroke-opacity="0.1" stroke-width="1" transform="translate(1, 1)"></path><path fill="rgb(249, 249, 249)" fill-opacity=" .85" d="M 3 0 L 13 0 C 16 0 16 0 16 3 L 16 13 C 16 16 16 16 13 16 L 3 16 C 0 16 0 16 0 13 L 0 3 C 0 0 0 0 3 0"></path><text x="8"  style="font-size:12px;color:#333333;fill:#333333;" transform="translate(0,20)"></text></g></svg>