<svg version="1.1" style="font-family:&quot;lucida grande&quot;, &quot;lucida sans unicode&quot;, arial, helvetica, sans-serif;font-size:12px;" xmlns="http://www.w3.org/2000/svg" width="584" height="400" viewBox="0 0 584 400"><desc>Created with Highcharts 4.1.4</desc><defs><linearGradient x1="0" y1="0" x2="1" y2="0" id="highcharts-1"><stop offset="0" stop-color="#FFFFFF" stop-opacity="1"></stop><stop offset="1" stop-color="#7cb5ec" stop-opacity="1"></stop></linearGradient><clipPath id="highcharts-2"><rect x="0" y="0" width="564" height="279"></rect></clipPath><clipPath id="highcharts-3"><rect x="-99" y="-47" width="663" height="400"></rect></clipPath><clipPath id="highcharts-4"><rect x="0" y="0" width="564" height="279"></rect></clipPath></defs><rect x="0" y="0" width="584" height="400" strokeWidth="0" fill="#FFFFFF" class=" highcharts-background" stroke="transparent"></rect><g class="highcharts-grid" ></g><g class="highcharts-grid" ></g><g class="highcharts-axis" ></g><g class="highcharts-axis" ></g><g class="highcharts-series-group" ><g class="highcharts-series highcharts-tracker" visibility="visible"  transform="translate(10,47) scale(1 1)" clip-path="url(#highcharts-4)" style=""><rect x="0" y="0" width="141" height="279" stroke="#E0E0E0" stroke-width="1" fill="rgb(239,246,253)" rx="0" ry="0" ></rect><rect x="141" y="0" width="254" height="155" stroke="#E0E0E0" stroke-width="1" fill="rgb(222,237,250)" rx="0" ry="0" ></rect><rect x="395" y="0" width="169" height="155" stroke="#E0E0E0" stroke-width="1" fill="rgb(206,227,248)" rx="0" ry="0" ></rect><rect x="141" y="155" width="159" height="124" stroke="#E0E0E0" stroke-width="1" fill="rgb(190,218,246)" rx="0" ry="0" ></rect><rect x="300" y="155" width="105" height="124" stroke="#E0E0E0" stroke-width="1" fill="rgb(173,209,243)" rx="0" ry="0" ></rect><rect x="405" y="155" width="106" height="124" stroke="#E0E0E0" stroke-width="1" fill="rgb(157,200,241)" rx="0" ry="0" ></rect><rect x="511" y="155" width="53" height="124" stroke="#E0E0E0" stroke-width="1" fill="rgb(140,190,238)" rx="0" ry="0" ></rect><g  style="" transform="translate(62,128)"><text x="5"  style="font-size: 11px; font-weight: bold; color: rgb(0, 0, 0); fill: #000000; text-shadow: rgb(255, 255, 255) 0px 0px 6px, rgb(255, 255, 255) 0px 0px 3px; " transform="translate(0,16)"><tspan>A</tspan></text></g><g  style="" transform="translate(260,66)"><text x="5"  style="font-size: 11px; font-weight: bold; color: rgb(0, 0, 0); fill: #000000; text-shadow: rgb(255, 255, 255) 0px 0px 6px, rgb(255, 255, 255) 0px 0px 3px; " transform="translate(0,16)"><tspan>B</tspan></text></g><g  style="" transform="translate(471,66)"><text x="5"  style="font-size: 11px; font-weight: bold; color: rgb(0, 0, 0); fill: #000000; text-shadow: rgb(255, 255, 255) 0px 0px 6px, rgb(255, 255, 255) 0px 0px 3px; " transform="translate(0,16)"><tspan>C</tspan></text></g><g  style="" transform="translate(212,206)"><text x="5"  style="font-size: 11px; font-weight: bold; color: rgb(0, 0, 0); fill: #000000; text-shadow: rgb(255, 255, 255) 0px 0px 6px, rgb(255, 255, 255) 0px 0px 3px; " transform="translate(0,16)"><tspan>D</tspan></text></g><g  style="" transform="translate(345,206)"><text x="5"  style="font-size: 11px; font-weight: bold; color: rgb(0, 0, 0); fill: #000000; text-shadow: rgb(255, 255, 255) 0px 0px 6px, rgb(255, 255, 255) 0px 0px 3px; " transform="translate(0,16)"><tspan>E</tspan></text></g><g  style="" transform="translate(450,206)"><text x="5"  style="font-size: 11px; font-weight: bold; color: rgb(0, 0, 0); fill: #000000; text-shadow: rgb(255, 255, 255) 0px 0px 6px, rgb(255, 255, 255) 0px 0px 3px; " transform="translate(0,16)"><tspan>F</tspan></text></g><g  style="" transform="translate(529,206)"><text x="5"  style="font-size: 11px; font-weight: bold; color: rgb(0, 0, 0); fill: #000000; text-shadow: rgb(255, 255, 255) 0px 0px 6px, rgb(255, 255, 255) 0px 0px 3px; " transform="translate(0,16)"><tspan>G</tspan></text></g></g><g class="highcharts-markers" visibility="visible"  transform="translate(10,47) scale(1 1)" clip-path="url(#highcharts-3)"></g></g><text x="292" text-anchor="middle" class="highcharts-title"  style="color:#333333;font-size:18px;fill:#333333;width:520px;" y="24"><tspan>Highcharts Treemap</tspan></text><g class="highcharts-legend"  transform="translate(185,338)"><g ><g><g class="highcharts-legend-item"  transform="translate(8,3)"><rect x="0" y="4" width="200" height="12"  fill="url(#highcharts-1)"></rect><g class="highcharts-grid" ><path fill="none" d="M -0.5 4 L -0.5 16" stroke="#D8D8D8" stroke-width="1"  opacity="1"></path><path fill="none" d="M 49.5 4 L 49.5 16" stroke="#D8D8D8" stroke-width="1"  opacity="1"></path><path fill="none" d="M 99.5 4 L 99.5 16" stroke="#D8D8D8" stroke-width="1"  opacity="1"></path><path fill="none" d="M 149.5 4 L 149.5 16" stroke="#D8D8D8" stroke-width="1"  opacity="1"></path><path fill="none" d="M 200.5 4 L 200.5 16" stroke="#D8D8D8" stroke-width="1"  opacity="1"></path></g><text x="21" style="color:#333333;font-size:12px;font-weight:bold;cursor:pointer;fill:#333333;" text-anchor="start"  y="15"></text><g class="highcharts-axis" ><path fill="none" d="M -0.5 16 L -0.5 21" stroke="#C0D0E0" stroke-width="1" opacity="1"></path><path fill="none" d="M 49.5 16 L 49.5 21" stroke="#C0D0E0" stroke-width="1" opacity="1"></path><path fill="none" d="M 99.5 16 L 99.5 21" stroke="#C0D0E0" stroke-width="1" opacity="1"></path><path fill="none" d="M 149.5 16 L 149.5 21" stroke="#C0D0E0" stroke-width="1" opacity="1"></path><path fill="none" d="M 200.5 16 L 200.5 21" stroke="#C0D0E0" stroke-width="1" opacity="1"></path></g><g class="highcharts-axis-labels highcharts-coloraxis-labels" ><text x="0" style="color:#606060;cursor:default;font-size:11px;fill:#606060;" text-anchor="start" transform="translate(0,0)" y="35" opacity="1">0</text><text x="50" style="color:#606060;cursor:default;font-size:11px;fill:#606060;" text-anchor="middle" transform="translate(0,0)" y="35" opacity="1">2</text><text x="100" style="color:#606060;cursor:default;font-size:11px;fill:#606060;" text-anchor="middle" transform="translate(0,0)" y="35" opacity="1">4</text><text x="150" style="color:#606060;cursor:default;font-size:11px;fill:#606060;" text-anchor="middle" transform="translate(0,0)" y="35" opacity="1">6</text><text x="200" style="color:#606060;cursor:default;font-size:11px;fill:#606060;" text-anchor="end" transform="translate(0,0)" y="35" opacity="1">8</text></g></g></g></g></g><g class="highcharts-axis-labels highcharts-xaxis-labels" ></g><g class="highcharts-axis-labels highcharts-yaxis-labels" ></g><g class="highcharts-tooltip"  style="cursor:default;padding:0;white-space:nowrap;" transform="translate(0,-9999)"><path fill="none" d="M 3 0 L 13 0 C 16 0 16 0 16 3 L 16 13 C 16 16 16 16 13 16 L 3 16 C 0 16 0 16 0 13 L 0 3 C 0 0 0 0 3 0"  stroke="black" stroke-opacity="0.0" stroke-width="5" transform="translate(1, 1)"></path><path fill="none" d="M 3 0 L 13 0 C 16 0 16 0 16 3 L 16 13 C 16 16 16 16 13 16 L 3 16 C 0 16 0 16 0 13 L 0 3 C 0 0 0 0 3 0"  stroke="black" stroke-opacity="0.0" stroke-width="3" transform="translate(1, 1)"></path><path fill="none" d="M 3 0 L 13 0 C 16 0 16 0 16 3 L 16 13 C 16 16 16 16 13 16 L 3 16 C 0 16 0 16 0 13 L 0 3 C 0 0 0 0 3 0"  stroke="black" stroke-opacity="0.1" stroke-width="1" transform="translate(1, 1)"></path><path fill="rgb(249, 249, 249)" fill-opacity=" .85" d="M 3 0 L 13 0 C 16 0 16 0 16 3 L 16 13 C 16 16 16 16 13 16 L 3 16 C 0 16 0 16 0 13 L 0 3 C 0 0 0 0 3 0"></path><text x="8"  style="font-size:12px;color:#333333;fill:#333333;" transform="translate(0,20)"></text></g></svg>