<svg version="1.1" style="font-family:&quot;lucida grande&quot;, &quot;lucida sans unicode&quot;, arial, helvetica, sans-serif;font-size:12px;" xmlns="http://www.w3.org/2000/svg" width="584" height="400" viewBox="0 0 584 400"><desc>Created with Highcharts 4.1.4</desc><defs><clipPath id="highcharts-1"><rect x="0" y="0" width="564" height="338"></rect></clipPath><clipPath id="highcharts-2"><rect x="-99" y="-47" width="663" height="400"></rect></clipPath><clipPath id="highcharts-3"><rect x="0" y="0" width="564" height="338"></rect></clipPath></defs><rect x="0" y="0" width="584" height="400" strokeWidth="0" fill="#FFFFFF" class=" highcharts-background" stroke="transparent"></rect><g class="highcharts-grid" ></g><g class="highcharts-grid" ></g><g class="highcharts-axis" ></g><g class="highcharts-axis" ></g><g class="highcharts-series-group" ><g class="highcharts-series highcharts-tracker" visibility="visible"  transform="translate(10,47) scale(1 1)" clip-path="url(#highcharts-3)" style=""><rect x="235" y="0" width="329" height="80" stroke="#E0E0E0" stroke-width="1" fill="#EC2500" rx="0" ry="0" ></rect><rect x="235" y="145" width="329" height="48" stroke="#E0E0E0" stroke-width="1" fill="#EC2500" rx="0" ry="0" ></rect><rect x="235" y="80" width="329" height="65" stroke="#E0E0E0" stroke-width="1" fill="#EC2500" rx="0" ry="0" ></rect><rect x="0" y="225" width="235" height="90" stroke="#E0E0E0" stroke-width="1" fill="#ECE100" rx="0" ry="0" ></rect><rect x="0" y="0" width="235" height="225" stroke="#E0E0E0" stroke-width="1" fill="#ECE100" rx="0" ry="0" ></rect><rect x="0" y="315" width="235" height="23" stroke="#E0E0E0" stroke-width="1" fill="#ECE100" rx="0" ry="0" ></rect><rect x="235" y="317" width="256" height="21" stroke="#E0E0E0" stroke-width="1" fill="#EC9800" rx="0" ry="0" ></rect><rect x="235" y="193" width="256" height="62" stroke="#E0E0E0" stroke-width="1" fill="#EC9800" rx="0" ry="0" ></rect><rect x="235" y="255" width="256" height="62" stroke="#E0E0E0" stroke-width="1" fill="#EC9800" rx="0" ry="0" ></rect><g  style="" transform="translate(380,29)"><text x="5"  style="font-size: 11px; font-weight: bold; color: rgb(255, 255, 255); fill: #ffffff; text-shadow: rgb(0, 0, 0) 0px 0px 6px, rgb(0, 0, 0) 0px 0px 3px; " transform="translate(0,16)"><tspan>Anne</tspan></text></g><g  style="" transform="translate(383,158)"><text x="5"  style="font-size: 11px; font-weight: bold; color: rgb(255, 255, 255); fill: #ffffff; text-shadow: rgb(0, 0, 0) 0px 0px 6px, rgb(0, 0, 0) 0px 0px 3px; " transform="translate(0,16)"><tspan>Rick</tspan></text></g><g  style="" transform="translate(379,101)"><text x="5"  style="font-size: 11px; font-weight: bold; color: rgb(255, 255, 255); fill: #ffffff; text-shadow: rgb(0, 0, 0) 0px 0px 6px, rgb(0, 0, 0) 0px 0px 3px; " transform="translate(0,16)"><tspan>Peter</tspan></text></g><g  style="" transform="translate(98,259)"><text x="5"  style="font-size: 11px; font-weight: bold; color: rgb(0, 0, 0); fill: #000000; text-shadow: rgb(255, 255, 255) 0px 0px 6px, rgb(255, 255, 255) 0px 0px 3px; " transform="translate(0,16)"><tspan>Anne</tspan></text></g><g  style="" transform="translate(101,101)"><text x="5"  style="font-size: 11px; font-weight: bold; color: rgb(0, 0, 0); fill: #000000; text-shadow: rgb(255, 255, 255) 0px 0px 6px, rgb(255, 255, 255) 0px 0px 3px; " transform="translate(0,16)"><tspan>Rick</tspan></text></g><g  style="" transform="translate(97,315)"><text x="5"  style="font-size: 11px; font-weight: bold; color: rgb(0, 0, 0); fill: #000000; text-shadow: rgb(255, 255, 255) 0px 0px 6px, rgb(255, 255, 255) 0px 0px 3px; " transform="translate(0,16)"><tspan>Peter</tspan></text></g><g  style="" transform="translate(344,316)"><text x="5"  style="font-size: 11px; font-weight: bold; color: rgb(0, 0, 0); fill: #000000; text-shadow: rgb(255, 255, 255) 0px 0px 6px, rgb(255, 255, 255) 0px 0px 3px; " transform="translate(0,16)"><tspan>Anne</tspan></text></g><g  style="" transform="translate(346,213)"><text x="5"  style="font-size: 11px; font-weight: bold; color: rgb(0, 0, 0); fill: #000000; text-shadow: rgb(255, 255, 255) 0px 0px 6px, rgb(255, 255, 255) 0px 0px 3px; " transform="translate(0,16)"><tspan>Rick</tspan></text></g><g  style="" transform="translate(343,275)"><text x="5"  style="font-size: 11px; font-weight: bold; color: rgb(0, 0, 0); fill: #000000; text-shadow: rgb(255, 255, 255) 0px 0px 6px, rgb(255, 255, 255) 0px 0px 3px; " transform="translate(0,16)"><tspan>Peter</tspan></text></g><rect x="235" y="0" width="329" height="193" stroke="#E0E0E0" stroke-width="1" fill="none" rx="0" ry="0" ></rect><rect x="0" y="0" width="235" height="338" stroke="#E0E0E0" stroke-width="1" fill="none" rx="0" ry="0" ></rect><rect x="235" y="193" width="256" height="145" stroke="#E0E0E0" stroke-width="1" fill="none" rx="0" ry="0" ></rect><rect x="491" y="193" width="73" height="145" stroke="#E0E0E0" stroke-width="1" fill="#9EDE00" rx="0" ry="0" ></rect><g  style="" transform="translate(235,0)"><text x="5"  style="font-size: 15px; font-weight: bold; color: rgb(255, 255, 255); fill: #ffffff; text-shadow: rgb(0, 0, 0) 0px 0px 6px, rgb(0, 0, 0) 0px 0px 3px; " transform="translate(0,19)"><tspan>Apples</tspan></text></g><g  style="" transform="translate(0,0)"><text x="5"  style="font-size: 15px; font-weight: bold; color: rgb(0, 0, 0); fill: #000000; text-shadow: rgb(255, 255, 255) 0px 0px 6px, rgb(255, 255, 255) 0px 0px 3px; " transform="translate(0,19)"><tspan>Bananas</tspan></text></g><g  style="" transform="translate(235,193)"><text x="5"  style="font-size: 15px; font-weight: bold; color: rgb(0, 0, 0); fill: #000000; text-shadow: rgb(255, 255, 255) 0px 0px 6px, rgb(255, 255, 255) 0px 0px 3px; " transform="translate(0,19)"><tspan>Oranges</tspan></text></g><g  style="" transform="translate(491,193)"><text x="5"  style="font-size: 15px; font-weight: bold; color: rgb(255, 255, 255); fill: #ffffff; text-shadow: rgb(0, 0, 0) 0px 0px 6px, rgb(0, 0, 0) 0px 0px 3px; " transform="translate(0,19)"><tspan>Susanne</tspan></text></g></g><g class="highcharts-markers" visibility="visible"  transform="translate(10,47) scale(1 1)" clip-path="url(#highcharts-2)"></g></g><text x="292" text-anchor="middle" class="highcharts-title"  style="color:#333333;font-size:18px;fill:#333333;width:520px;" y="24"><tspan>Fruit consumption</tspan></text><g class="highcharts-legend" ><g ><g></g></g></g><g class="highcharts-axis-labels highcharts-xaxis-labels" ></g><g class="highcharts-axis-labels highcharts-yaxis-labels" ></g><g class="highcharts-tooltip"  style="cursor:default;padding:0;white-space:nowrap;" transform="translate(0,-9999)"><path fill="none" d="M 3 0 L 13 0 C 16 0 16 0 16 3 L 16 13 C 16 16 16 16 13 16 L 3 16 C 0 16 0 16 0 13 L 0 3 C 0 0 0 0 3 0"  stroke="black" stroke-opacity="0.0" stroke-width="5" transform="translate(1, 1)"></path><path fill="none" d="M 3 0 L 13 0 C 16 0 16 0 16 3 L 16 13 C 16 16 16 16 13 16 L 3 16 C 0 16 0 16 0 13 L 0 3 C 0 0 0 0 3 0"  stroke="black" stroke-opacity="0.0" stroke-width="3" transform="translate(1, 1)"></path><path fill="none" d="M 3 0 L 13 0 C 16 0 16 0 16 3 L 16 13 C 16 16 16 16 13 16 L 3 16 C 0 16 0 16 0 13 L 0 3 C 0 0 0 0 3 0"  stroke="black" stroke-opacity="0.1" stroke-width="1" transform="translate(1, 1)"></path><path fill="rgb(249, 249, 249)" fill-opacity=" .85" d="M 3 0 L 13 0 C 16 0 16 0 16 3 L 16 13 C 16 16 16 16 13 16 L 3 16 C 0 16 0 16 0 13 L 0 3 C 0 0 0 0 3 0"></path><text x="8"  style="font-size:12px;color:#333333;fill:#333333;" transform="translate(0,20)"></text></g></svg>