<svg version="1.1" style="font-family:&quot;lucida grande&quot;, &quot;lucida sans unicode&quot;, arial, helvetica, sans-serif;font-size:12px;" xmlns="http://www.w3.org/2000/svg" width="584" height="500" viewBox="0 0 584 500"><desc>Created with Highmaps 1.1.4</desc><defs><clipPath id="highcharts-1"><rect x="0" y="0" width="564" height="424"></rect></clipPath></defs><rect x="0.5" y="0.5" width="582" height="498" strokeWidth="1" fill="#FFFFFF" stroke="transparent" stroke-width="1" class=" highcharts-background"></rect><g class="highcharts-grid" ></g><g class="highcharts-grid" ></g><g class="highcharts-axis" ></g><g class="highcharts-axis" ></g><g class="highcharts-series-group" ><g class="highcharts-series highcharts-tracker" visibility="visible"  transform="translate(10,61) scale(1 1)" style="" clip-path="url(#highcharts-1)"><g transform="translate(0,0) scale(1 1)"><path fill="#7cb5ec" d="M 126.6 53.6 L 129.0 54.2 129.8 56.3 129.0 57.3 130.2 59.5 131.0 58.3 133.6 57.7 134.4 58.4 132.3 58.8 131.2 61.1 133.0 61.6 132.8 62.9 130.9 64.9 132.9 65.6 134.9 68.9 135.7 69.2 134.1 71.2 134.9 72.1 133.6 75.0 132.1 73.3 132.8 75.6 131.0 77.1 128.7 77.1 127.1 79.8 122.6 79.8 119.3 80.2 116.9 81.5 113.1 82.1 112.2 81.5 108.8 81.9 107.4 83.1 103.1 83.0 100.7 81.4 98.9 79.4 97.0 78.4 96.2 75.6 94.0 72.9 88.6 70.5 86.7 70.0 88.1 67.4 88.3 68.8 90.0 69.2 93.1 68.1 92.3 67.5 94.0 66.3 91.9 66.3 93.4 64.6 92.0 63.3 93.1 61.3 87.8 57.9 86.0 57.6 86.1 56.1 92.8 57.9 94.4 58.0 96.9 59.3 97.8 57.7 96.2 58.1 94.2 56.5 98.3 55.2 96.8 54.3 96.2 52.4 95.2 52.6 93.5 50.9 89.6 51.1 89.6 50.4 87.4 48.6 90.1 48.2 91.0 46.6 93.0 49.8 92.2 47.7 93.1 45.0 95.6 43.8 96.4 45.9 98.4 48.1 99.2 47.2 97.9 45.5 98.2 42.1 100.7 42.9 102.2 46.1 103.6 50.4 103.1 51.9 100.8 54.6 101.4 56.6 101.0 58.4 103.5 55.3 104.9 54.8 104.8 57.3 107.0 55.1 107.9 51.2 109.6 51.3 109.8 56.1 110.6 56.8 111.2 54.3 112.5 53.2 113.7 53.9 115.3 52.9 116.3 56.1 116.5 57.8 117.6 54.2 119.1 55.1 119.7 57.7 122.3 55.9 123.3 57.0 125.5 57.2 126.6 53.6 Z" vector-effect="non-scaling-stroke" stroke="silver" stroke-width="1" class=" highcharts-name-iceland highcharts-key-is"></path><path fill="#7cb5ec" d="M 258.9 131.1 L 261.4 133.1 262.9 135.0 262.0 138.8 259.7 139.6 261.8 144.8 261.5 149.3 259.4 151.9 259.3 151.9 257.8 152.2 258.1 153.4 256.9 155.8 257.7 159.3 257.0 163.1 255.6 162.3 255.2 161.1 252.0 160.4 250.0 156.4 249.9 159.5 247.0 162.8 245.4 162.8 238.3 170.6 236.0 172.3 232.7 173.1 229.2 172.9 226.4 171.7 227.5 170.6 223.5 168.5 221.8 166.9 220.6 164.2 221.2 161.0 224.0 162.7 223.2 160.6 225.5 158.6 224.5 157.1 221.0 158.3 219.4 155.6 221.4 153.1 222.8 153.9 223.7 153.0 222.3 151.8 224.3 150.8 225.4 147.9 227.9 145.2 225.7 146.3 222.7 149.7 222.2 147.5 220.2 147.6 220.9 144.1 221.5 144.6 221.0 143.9 223.1 142.5 223.2 141.6 220.9 143.7 219.0 140.8 219.7 138.1 222.0 138.4 224.6 137.5 226.6 138.5 226.2 136.9 221.7 137.8 219.9 136.1 219.6 133.8 221.9 132.4 220.0 131.4 220.0 130.2 222.3 128.4 224.2 129.3 228.4 129.8 222.6 128.1 221.5 124.8 223.5 125.0 223.6 124.1 224.4 124.1 224.7 125.1 224.3 125.2 225.5 125.3 226.1 124.1 229.8 122.6 227.7 122.4 227.8 120.7 229.3 121.3 231.9 120.4 234.1 121.7 234.2 120.2 231.3 119.5 231.1 117.1 233.0 116.3 234.1 117.5 236.6 116.8 237.3 115.3 238.5 118.0 240.0 118.0 237.7 115.3 239.6 115.1 239.6 114.6 239.0 114.8 238.2 113.9 239.4 113.8 239.5 114.0 239.3 113.2 241.2 111.7 243.4 112.5 242.9 110.9 245.7 109.3 247.7 113.0 248.8 111.4 251.3 111.9 250.7 110.4 252.5 108.4 254.7 107.4 252.8 106.4 254.8 104.9 252.1 105.8 252.7 107.1 249.3 110.0 246.8 110.8 246.2 108.7 244.9 107.8 248.2 105.9 246.9 105.7 248.0 102.9 251.6 99.7 252.0 98.2 254.1 100.6 254.7 98.5 254.1 97.0 256.3 95.8 253.3 95.7 254.1 94.5 259.9 92.0 258.6 90.4 259.9 88.6 259.5 86.6 258.4 86.1 260.4 82.2 261.5 81.0 260.7 80.3 262.7 78.2 262.0 77.0 262.2 74.4 263.5 72.3 264.7 72.2 263.6 70.8 266.5 70.1 267.0 68.0 268.9 67.2 269.5 68.0 270.5 66.0 268.4 67.2 266.8 67.0 268.4 64.0 272.1 60.7 271.1 60.1 269.5 60.9 268.4 60.1 272.9 57.8 272.3 57.6 271.8 57.5 270.4 57.4 271.3 56.2 273.9 55.6 273.8 57.2 274.8 58.9 275.3 54.8 274.0 53.8 276.2 52.6 276.9 53.5 279.9 52.0 279.7 50.8 277.7 52.1 275.5 52.3 275.7 49.9 279.9 46.5 278.8 46.5 279.6 44.1 281.2 43.0 280.7 41.7 281.7 39.2 283.2 41.2 284.5 40.7 282.4 39.6 282.4 38.7 284.3 38.0 284.6 35.8 287.3 34.7 287.9 36.7 288.6 32.8 289.7 33.3 289.6 39.0 290.6 36.9 290.3 34.7 292.8 33.0 293.4 31.1 295.9 33.1 295.1 30.4 292.3 29.1 293.7 27.6 294.0 27.5 294.0 27.9 294.3 28.0 294.4 27.5 296.4 27.3 299.4 27.9 300.0 29.9 301.4 30.6 302.0 29.6 300.4 29.1 301.2 25.6 303.1 23.0 304.5 19.9 304.2 17.5 307.4 18.3 309.4 17.9 307.0 22.8 307.6 22.3 308.0 25.0 307.3 26.1 308.3 27.7 309.3 24.8 308.8 24.6 310.3 20.5 311.0 17.4 312.0 16.1 312.8 19.8 312.9 23.2 314.6 19.5 314.3 18.2 315.5 16.6 313.8 16.1 315.3 15.3 315.0 13.6 319.0 14.0 318.2 17.3 316.7 19.3 318.9 17.5 317.8 20.5 319.6 20.9 319.7 17.1 320.3 15.0 322.9 15.4 323.0 16.5 325.3 15.6 330.9 19.3 329.0 20.3 328.1 22.8 322.3 23.2 321.9 23.9 326.6 24.5 327.3 27.2 329.2 26.0 328.7 25.0 331.6 25.0 332.7 28.2 330.1 27.8 329.4 31.3 327.4 32.8 327.5 34.8 326.6 36.1 325.7 34.0 326.8 30.7 325.3 28.5 322.0 27.8 319.2 25.2 316.6 27.9 314.1 28.3 312.8 31.3 312.9 37.4 313.7 39.5 313.4 41.1 311.7 42.3 311.7 44.4 310.8 45.5 309.8 44.5 306.4 43.4 305.8 44.7 303.7 46.3 302.8 45.6 300.3 45.7 299.8 44.5 296.0 39.8 294.5 39.8 293.5 41.2 293.8 42.9 292.1 43.2 289.9 43.7 291.1 44.9 291.1 47.8 290.1 49.4 291.4 49.9 290.3 51.6 286.2 50.3 282.4 50.4 282.9 54.8 282.0 57.2 279.3 55.8 277.2 58.3 276.2 62.6 274.7 64.3 276.4 66.8 276.4 68.5 274.9 70.6 272.4 75.4 272.9 77.9 271.0 79.5 268.6 79.9 269.3 83.2 269.0 89.3 268.2 92.1 265.3 98.0 267.7 99.6 268.1 102.3 267.1 104.6 263.5 103.8 260.8 105.5 258.3 109.7 258.5 111.3 257.5 113.2 258.8 116.5 258.2 117.4 258.2 121.3 259.6 125.3 258.9 131.1 M 273.2 57.5 L 273.0 57.7 273.5 57.5 273.2 57.5 M 222.7 144.9 L 222.2 145.1 222.6 145.4 222.7 144.9 M 224.0 159.0 L 223.6 158.8 223.7 158.4 224.6 158.5 224.0 159.0 M 219.8 158.1 L 219.8 159.5 219.1 159.1 219.5 156.7 219.8 158.1 M 219.9 152.0 L 220.4 152.9 219.1 152.6 219.3 151.5 219.9 152.0 M 221.5 152.4 L 220.4 152.4 220.1 151.1 221.1 150.8 221.5 152.4 M 222.6 149.4 L 222.4 151.1 221.6 151.3 221.4 149.5 222.6 149.4 M 220.3 149.2 L 220.3 150.1 219.8 149.5 220.0 148.8 220.3 149.2 M 219.6 146.3 L 219.6 147.7 218.7 146.6 219.0 144.9 219.6 146.3 M 219.3 144.0 L 220.0 144.3 220.2 145.3 219.1 144.2 219.3 144.0 M 219.1 136.9 L 219.6 137.2 218.5 137.8 218.6 136.8 219.1 136.9 M 220.0 128.4 L 220.9 128.9 219.8 129.7 219.2 128.9 220.0 128.4 M 220.7 127.2 L 221.2 127.3 220.8 128.1 220.3 126.8 220.7 127.2 M 223.9 123.6 L 224.6 123.4 224.5 123.8 223.4 123.6 223.9 123.6 M 226.3 123.6 L 225.2 124.6 224.9 123.4 225.7 122.7 226.3 123.6 M 227.1 122.6 L 227.7 123.0 226.5 123.0 226.1 122.6 227.1 122.6 M 230.9 119.4 L 231.0 119.8 229.7 120.2 229.8 119.4 230.9 119.4 M 230.5 118.0 L 231.1 118.0 230.9 118.9 230.3 118.5 230.5 118.0 M 236.4 115.6 L 235.7 116.3 235.2 115.9 235.4 115.4 236.4 115.6 M 235.1 116.3 L 234.3 117.1 233.7 115.8 234.5 116.2 235.1 116.3 M 238.4 114.7 L 237.9 114.7 237.7 114.1 238.1 114.1 238.4 114.7 M 237.8 114.8 L 236.9 115.0 236.5 114.5 237.3 113.8 237.8 114.8 M 237.4 112.7 L 235.9 112.3 237.0 111.1 237.9 112.1 237.4 112.7 M 242.3 109.6 L 242.6 110.5 239.5 111.6 238.4 111.2 239.8 109.7 242.3 109.6 M 241.1 107.4 L 241.2 108.4 240.8 108.7 238.6 108.9 241.1 107.4 M 254.0 97.8 L 254.5 98.3 254.3 98.9 253.9 98.7 254.0 97.8 M 253.3 98.1 L 254.3 99.7 253.1 99.3 252.6 97.6 253.3 98.1 M 253.9 97.6 L 253.7 98.2 253.1 97.4 253.6 97.2 253.9 97.6 M 253.1 94.7 L 252.5 94.8 251.3 95.3 252.5 94.2 253.1 94.7 M 251.2 95.2 L 250.8 95.4 251.1 94.5 252.7 93.9 251.2 95.2 M 255.9 92.3 L 254.8 93.1 254.6 93.0 254.9 92.3 255.9 92.3 M 258.2 91.8 L 257.7 92.9 257.0 92.7 257.9 91.0 258.2 91.8 M 258.8 87.6 L 259.2 89.0 257.3 91.0 257.5 89.4 258.8 87.6 M 256.5 85.5 L 256.4 86.7 255.6 86.4 255.9 85.5 256.5 85.5 M 260.2 82.1 L 259.0 83.3 258.4 83.1 258.9 82.1 260.2 82.1 M 259.5 79.7 L 259.7 80.5 259.1 81.2 258.1 81.7 259.5 79.7 M 260.4 78.3 L 260.7 79.0 260.2 79.2 259.9 78.8 260.4 78.3 M 261.0 76.8 L 260.8 77.7 260.3 77.4 260.3 76.7 261.0 76.8 M 266.5 68.5 L 266.4 69.8 265.4 69.0 265.7 68.3 266.5 68.5 M 267.0 64.9 L 267.0 65.2 266.3 65.4 266.8 64.7 267.0 64.9 M 270.0 58.2 L 270.6 58.7 269.2 59.0 269.2 58.3 270.0 58.2 M 260.8 57.7 L 261.0 59.0 259.6 60.7 260.3 58.0 260.8 57.7 M 262.1 57.7 L 261.5 58.6 261.2 57.7 262.3 56.9 262.1 57.7 M 268.6 55.1 L 268.1 55.1 268.5 54.5 268.8 54.7 268.6 55.1 M 265.7 54.5 L 265.5 55.2 265.3 54.7 264.9 54.3 265.7 54.5 M 264.5 55.1 L 264.9 56.1 263.2 57.5 262.5 55.5 264.5 55.1 M 269.5 52.7 L 268.0 55.0 265.6 56.4 267.4 53.0 269.5 52.7 M 274.9 52.4 L 273.6 52.9 273.9 51.5 274.6 51.2 274.9 52.4 M 267.8 52.2 L 267.0 51.5 268.8 51.5 268.3 52.2 267.8 52.2 M 277.6 48.3 L 276.5 48.8 276.5 48.2 277.1 47.1 277.6 48.3 M 278.0 47.0 L 277.9 46.3 278.9 46.9 278.1 47.8 278.0 47.0 M 268.3 47.7 L 267.8 47.6 267.9 47.1 268.3 47.1 268.3 47.7 M 274.4 46.0 L 275.1 46.0 275.1 47.0 273.8 46.1 274.4 46.0 M 269.3 46.9 L 270.1 50.2 269.0 51.1 265.9 50.0 268.6 48.6 268.4 46.4 269.3 46.9 M 278.6 45.4 L 278.3 44.9 278.6 44.3 279.1 44.6 278.6 45.4 M 271.8 45.7 L 270.2 46.5 270.7 44.8 272.7 42.1 272.7 44.1 271.8 45.7 M 283.3 34.3 L 284.3 35.8 283.7 37.7 281.2 38.7 280.9 36.6 281.5 35.6 283.3 35.4 283.3 34.3 M 290.8 34.1 L 290.4 34.3 290.3 33.1 290.9 32.9 290.8 34.1 M 328.3 25.6 L 328.6 25.8 327.3 26.8 327.5 24.9 328.3 25.6 M 286.8 34.1 L 286.0 34.4 286.1 33.4 287.3 32.6 286.8 34.1 M 291.7 31.3 L 292.2 31.4 291.7 32.3 290.9 31.8 291.7 31.3 M 284.6 31.8 L 286.2 32.5 285.7 34.5 284.6 35.2 282.8 33.5 284.6 31.8 M 282.9 32.1 L 283.6 31.9 282.6 33.1 282.4 31.6 282.9 32.1 M 291.3 30.8 L 291.0 30.9 290.9 30.0 291.3 30.4 291.3 30.8 M 285.9 31.4 L 285.1 31.3 285.1 30.7 285.4 30.7 285.9 31.4 M 290.8 30.4 L 290.1 31.3 289.2 30.8 289.8 29.1 290.8 30.4 M 284.2 29.6 L 284.5 31.1 284.0 31.3 283.6 31.0 284.2 29.6 M 286.2 29.5 L 286.8 30.3 288.3 30.8 287.0 31.6 286.2 29.5 M 297.9 26.0 L 299.4 27.3 297.1 27.3 297.1 26.1 297.9 26.0 M 300.6 22.7 L 301.5 24.3 300.8 26.2 299.7 26.9 298.5 25.1 300.6 22.7 M 301.6 21.4 L 303.0 22.1 301.7 23.6 300.9 21.6 301.6 21.4 M 299.6 20.1 L 299.5 22.1 298.3 24.1 295.5 25.2 296.0 22.5 297.8 22.8 299.6 20.1 M 301.9 17.6 L 302.1 18.7 301.4 18.4 301.4 17.5 301.9 17.6 M 304.4 16.1 L 304.5 16.9 303.8 16.6 304.1 16.0 304.4 16.1 M 307.6 14.6 L 309.9 16.0 307.6 17.4 306.4 16.2 307.6 14.6 M 178.2 12.3 L 177.6 13.9 174.7 14.4 173.3 15.5 172.9 14.7 175.7 13.6 176.8 12.3 178.2 12.3 M 273.1 53.0 L 272.1 52.7 271.7 54.2 269.6 54.2 269.8 51.3 270.9 50.3 270.5 48.3 271.2 46.5 272.3 46.4 272.3 48.5 273.3 48.9 273.8 46.9 275.4 49.1 275.1 51.0 273.5 51.3 273.1 53.0 M 276.1 40.8 L 278.0 40.8 277.4 39.7 279.0 39.8 279.6 38.1 280.6 39.2 280.7 42.9 276.0 44.9 277.0 41.8 276.1 40.8 Z" vector-effect="non-scaling-stroke" stroke="silver" stroke-width="1" class=" highcharts-name-norway highcharts-key-no"></path><path fill="#7cb5ec" d="M 290.3 178.9 L 290.4 180.2 287.4 191.8 287.0 188.3 288.7 184.2 289.7 179.4 290.3 178.9 M 302.4 170.2 L 303.2 170.4 301.5 171.3 301.7 170.5 302.4 170.2 M 257.6 172.8 L 257.2 173.9 256.4 174.0 256.3 173.0 257.6 172.8 M 296.5 158.7 L 296.2 159.3 295.8 159.1 296.4 158.1 296.5 158.7 M 296.5 156.1 L 296.7 156.4 296.6 156.8 295.5 156.1 296.5 156.1 M 297.1 153.2 L 296.5 154.5 296.2 153.9 296.6 153.2 297.1 153.2 M 298.1 152.3 L 298.4 151.7 298.3 152.5 298.0 152.3 298.1 152.3 M 294.5 143.0 L 295.4 144.6 294.4 144.0 294.2 142.4 294.5 143.0 M 302.6 103.7 L 302.7 104.4 302.5 104.6 302.3 103.4 302.6 103.7 M 258.9 131.1 L 259.6 125.3 258.2 121.3 258.2 117.4 258.8 116.5 257.5 113.2 258.5 111.3 258.3 109.7 260.8 105.5 263.5 103.8 267.1 104.6 268.1 102.3 267.7 99.6 265.3 98.0 268.2 92.1 269.0 89.3 269.3 83.2 268.6 79.9 271.0 79.5 272.9 77.9 272.4 75.4 274.9 70.6 276.4 68.5 276.4 66.8 274.7 64.3 276.2 62.6 277.2 58.3 279.3 55.8 282.0 57.2 282.9 54.8 282.4 50.4 286.2 50.3 290.3 51.6 291.4 49.9 290.1 49.4 291.1 47.8 291.1 44.9 289.9 43.7 292.1 43.2 293.5 43.8 296.2 46.7 299.2 48.7 302.5 49.1 304.6 51.9 307.2 53.8 306.6 54.5 307.5 57.9 307.2 59.2 308.8 59.6 308.5 62.8 311.2 66.4 311.2 69.3 310.4 71.0 311.3 73.5 313.0 75.1 314.2 77.5 313.2 78.5 310.5 78.2 309.6 79.7 307.2 78.4 305.5 80.6 306.5 82.3 303.3 81.1 305.5 82.5 303.9 82.8 304.6 84.1 302.4 84.7 303.7 85.8 303.5 87.4 302.0 91.3 301.4 91.6 304.2 95.4 302.1 99.5 301.7 102.6 300.4 103.4 299.7 105.4 298.5 105.5 296.9 108.4 294.8 108.4 293.9 111.7 291.9 112.3 290.9 114.8 291.4 115.6 289.5 116.9 289.5 117.5 289.6 117.2 290.0 117.2 289.9 117.8 289.5 117.9 289.5 118.6 288.0 121.0 286.5 120.0 286.1 121.6 287.2 123.6 286.7 126.6 287.2 129.3 285.5 131.0 286.3 132.0 286.8 137.7 287.9 140.4 289.9 142.8 291.8 142.6 297.1 146.6 298.9 149.5 295.6 153.9 293.4 155.1 297.4 155.8 295.1 156.0 296.1 157.8 292.5 160.7 292.2 160.1 292.2 160.7 291.9 160.7 291.7 159.3 291.5 158.9 291.7 161.4 288.0 164.5 288.3 166.1 287.1 171.9 285.8 173.1 287.9 177.7 286.8 181.1 287.7 182.5 284.1 193.7 282.2 192.5 280.7 193.3 276.7 193.5 277.3 194.8 275.5 195.0 273.9 197.4 275.1 200.7 274.0 202.3 272.1 201.9 268.3 203.1 266.1 202.3 266.7 199.4 265.8 198.6 262.9 192.8 264.8 193.3 263.6 191.2 265.2 190.7 265.0 188.5 261.9 185.7 259.7 179.5 259.0 180.6 258.8 177.7 257.4 175.3 257.8 172.1 256.3 172.5 255.7 171.7 257.9 170.7 257.9 171.1 258.1 169.9 256.2 170.3 255.6 168.6 254.5 169.7 254.8 167.0 253.8 162.6 254.3 161.2 255.6 162.3 257.0 163.1 257.7 159.3 256.9 155.8 258.1 153.4 259.3 151.9 261.5 149.3 261.8 144.8 259.7 139.6 262.0 138.8 262.9 135.0 258.9 131.1 M 298.1 172.8 L 300.0 172.2 301.9 172.1 300.3 173.3 300.6 176.5 301.5 176.9 298.6 180.5 298.3 182.6 296.7 179.2 296.4 176.3 298.1 172.8 Z" vector-effect="non-scaling-stroke" stroke="silver" stroke-width="1" class=" highcharts-name-sweden highcharts-key-se"></path><path fill="#7cb5ec" d="M 306.5 145.9 L 307.3 146.0 307.1 146.5 306.4 146.2 306.5 145.9 M 304.9 145.6 L 305.4 145.4 304.9 147.2 304.0 146.5 304.9 145.6 M 301.7 145.0 L 301.3 145.9 300.9 145.3 301.2 144.4 301.7 145.0 M 302.9 142.9 L 305.0 143.6 304.0 145.9 302.4 146.3 301.5 144.3 302.9 142.9 M 317.5 144.1 L 317.6 144.9 317.3 145.0 317.0 144.1 317.5 144.1 M 320.1 143.6 L 320.1 144.3 319.7 143.5 320.2 143.0 320.1 143.6 M 312.9 144.0 L 312.8 144.5 312.3 144.6 312.5 143.7 312.9 144.0 M 314.2 143.3 L 313.5 144.2 313.2 144.1 313.3 143.3 314.2 143.3 M 314.9 143.8 L 314.5 143.3 315.0 142.8 314.9 143.3 314.9 143.8 M 319.4 142.3 L 319.0 144.6 317.8 144.8 317.3 142.7 319.4 142.3 M 316.3 141.3 L 317.2 141.2 316.1 142.1 315.1 142.2 316.3 141.3 M 314.4 141.8 L 313.3 141.3 313.7 140.3 314.5 141.5 314.4 141.8 M 311.2 139.7 L 311.2 140.5 310.9 140.3 310.4 139.6 311.2 139.7 M 310.1 139.8 L 310.1 140.3 309.7 139.0 310.1 139.0 310.1 139.8 M 309.3 136.3 L 309.2 135.8 310.0 135.4 309.8 136.0 309.3 136.3 M 304.2 109.0 L 304.9 109.4 305.8 109.7 305.3 110.4 304.2 109.0 M 308.8 107.6 L 309.4 107.7 310.1 107.8 309.7 108.5 308.8 107.6 M 312.0 102.0 L 312.1 102.5 311.8 102.7 311.4 102.3 312.0 102.0 M 319.3 85.4 L 318.4 86.8 317.9 86.1 318.2 85.5 319.3 85.4 M 292.1 43.2 L 293.8 42.9 293.5 41.2 294.5 39.8 296.0 39.8 299.8 44.5 300.3 45.7 302.8 45.6 303.7 46.3 305.8 44.7 306.4 43.4 309.8 44.5 310.8 45.5 311.7 44.4 311.7 42.3 313.4 41.1 313.7 39.5 312.9 37.4 312.8 31.3 314.1 28.3 316.6 27.9 319.2 25.2 322.0 27.8 325.3 28.5 326.8 30.7 325.7 34.0 326.6 36.1 325.0 38.1 326.6 38.4 326.0 42.2 327.9 45.8 331.0 46.5 333.3 49.0 335.2 50.1 335.4 52.2 334.4 55.1 333.5 59.0 333.9 60.8 336.9 64.1 339.8 67.9 342.2 72.7 340.4 73.5 342.4 78.1 341.9 80.8 343.4 82.7 344.8 82.5 345.8 83.9 345.0 84.9 345.9 86.8 348.9 88.0 349.5 90.6 347.7 94.1 351.1 96.5 355.6 98.3 358.3 101.0 358.0 105.9 355.9 110.3 353.4 118.1 351.4 122.7 349.7 125.0 345.9 132.3 344.3 133.8 342.5 133.1 341.7 134.1 338.3 136.2 336.4 135.7 336.5 138.2 332.5 139.1 332.5 139.8 329.4 141.1 324.3 144.1 322.5 145.8 322.1 143.6 320.6 143.6 319.5 141.0 317.7 142.5 317.9 140.4 316.0 140.7 313.5 139.4 312.3 140.0 310.5 138.6 310.3 135.6 309.3 134.0 310.5 132.1 309.6 127.2 307.4 123.6 307.2 119.3 306.1 118.9 305.3 115.9 305.7 113.7 307.8 111.4 306.5 109.6 308.4 108.6 308.7 109.6 310.8 107.5 309.6 106.1 310.7 105.6 311.1 103.0 312.4 103.4 312.9 101.4 314.6 100.1 314.3 98.4 316.7 95.6 316.6 94.1 318.0 92.0 318.0 90.3 319.3 87.8 320.6 86.9 321.8 87.8 322.3 86.0 320.8 84.4 320.6 80.2 319.0 79.1 317.1 79.2 316.0 77.3 314.2 77.5 313.0 75.1 311.3 73.5 310.4 71.0 311.2 69.3 311.2 66.4 308.5 62.8 308.8 59.6 307.2 59.2 307.5 57.9 306.6 54.5 307.2 53.8 304.6 51.9 302.5 49.1 299.2 48.7 296.2 46.7 293.5 43.8 292.1 43.2 Z" vector-effect="non-scaling-stroke" stroke="silver" stroke-width="1" class=" highcharts-name-finland highcharts-key-fi"></path><path fill="#7cb5ec" d="M 255.4 207.9 L 257.6 209.4 258.4 208.7 258.8 211.3 256.8 211.6 253.7 209.8 255.4 207.9 M 249.5 208.6 L 250.6 209.1 249.7 209.3 248.6 208.1 249.5 208.6 M 263.6 207.1 L 261.6 208.4 261.0 207.8 262.3 206.8 263.6 207.1 M 245.9 206.5 L 247.4 207.9 247.0 209.0 246.0 208.6 245.9 206.5 M 252.6 208.1 L 252.0 210.3 251.4 209.2 253.4 205.7 252.6 208.1 M 278.6 203.7 L 280.4 204.8 280.0 206.4 277.4 205.3 277.8 203.0 278.6 203.7 M 237.0 202.4 L 237.3 202.5 237.3 203.5 236.8 202.5 237.0 202.4 M 249.4 200.6 L 252.3 203.4 252.0 206.6 248.5 206.4 246.4 204.6 245.1 201.9 249.4 200.6 M 263.7 200.9 L 263.3 200.2 263.8 199.2 264.3 200.3 263.7 200.9 M 251.1 197.5 L 251.2 198.5 250.5 198.5 250.9 197.3 251.1 197.5 M 240.5 185.3 L 240.3 187.1 238.8 188.4 238.2 187.2 240.5 185.3 M 254.5 181.2 L 253.7 181.5 253.5 182.6 252.4 181.9 254.5 181.2 M 239.6 208.4 L 238.5 208.6 238.4 202.4 235.0 200.9 235.7 198.2 237.0 197.3 235.3 194.7 235.5 189.8 238.3 189.6 240.7 187.1 242.7 189.0 242.0 186.1 243.8 184.6 244.8 185.2 245.9 183.7 242.7 184.8 241.8 184.2 239.1 185.3 237.8 187.3 238.1 189.4 236.3 187.3 238.7 183.4 243.6 183.0 247.0 178.2 250.8 176.4 249.8 178.5 250.5 182.2 248.8 185.9 249.5 189.8 252.1 190.1 253.2 191.1 250.6 195.0 249.7 192.8 248.6 194.5 248.8 197.1 246.5 198.0 247.6 199.0 244.0 201.9 245.4 204.6 243.9 205.6 245.5 207.7 243.6 209.6 243.6 209.6 239.6 208.4 M 257.7 197.1 L 258.7 199.6 260.0 196.7 259.0 196.3 261.3 194.5 263.8 195.4 263.1 196.8 263.8 199.2 261.6 201.1 262.9 203.2 261.3 204.7 260.5 207.6 261.3 209.1 260.0 210.7 258.6 208.7 259.4 207.6 257.9 205.3 255.3 205.1 254.2 203.3 254.5 201.1 253.3 199.2 255.2 199.2 257.7 197.1 Z" vector-effect="non-scaling-stroke" stroke="silver" stroke-width="1" class=" highcharts-name-denmark highcharts-key-dk"></path><path fill="#F8F8F8" d="M 156.3 121.7 L 157.0 122.4 156.8 124.5 156.1 123.1 156.3 121.7 M 157.3 118.7 L 158.3 119.9 157.8 120.6 157.0 119.3 157.3 118.7 M 159.0 115.0 L 159.4 116.4 158.5 117.0 157.1 113.9 159.0 115.0 M 160.1 113.8 L 160.6 115.3 159.7 115.5 159.7 115.2 160.1 113.8 M 156.6 116.1 L 156.0 115.2 156.6 113.7 158.3 117.4 157.9 118.4 156.7 116.4 155.8 116.9 154.9 115.2 156.3 115.7 156.6 116.1 Z" vector-effect="non-scaling-stroke" stroke="silver" stroke-width="1" class=" highcharts-name-faroe-islands highcharts-key-fo"></path><path fill="#F8F8F8" d="M 309.1 342.0 L 312.1 342.7 312.3 342.9 309.1 342.4 309.1 342.0 M 303.7 340.6 L 305.9 340.2 307.4 340.8 304.5 341.3 303.7 340.6 M 298.9 339.9 L 299.0 340.3 298.3 340.6 297.6 340.0 298.9 339.9 M 301.7 337.8 L 303.4 338.4 303.0 338.9 300.2 338.3 301.7 337.8 M 303.7 336.3 L 303.8 337.2 300.5 336.9 300.5 336.1 303.7 336.3 M 299.4 336.0 L 300.2 336.6 299.9 336.7 298.7 336.3 299.4 336.0 M 290.1 329.7 L 291.3 330.2 291.9 331.1 291.2 330.8 290.1 329.7 M 287.0 328.6 L 290.0 331.0 289.4 331.1 288.2 329.5 287.0 328.6 M 286.5 323.4 L 286.9 323.2 290.0 326.1 287.0 324.6 286.5 323.4 M 282.9 323.6 L 282.9 323.9 282.2 322.3 282.8 322.7 282.9 323.6 M 285.5 320.7 L 286.2 321.5 286.4 322.2 285.0 320.7 285.5 320.7 M 283.2 319.6 L 283.0 323.0 281.5 317.7 282.2 317.3 283.2 319.6 M 283.7 316.2 L 284.6 318.0 285.9 319.1 282.7 318.1 283.7 316.2 M 318.9 345.3 L 312.6 341.5 309.4 341.1 307.6 339.6 311.2 340.8 313.0 341.4 318.2 343.8 318.4 344.7 318.9 345.3 M 310.5 340.2 L 304.2 335.6 301.2 334.8 296.6 335.1 296.1 333.2 292.1 330.7 288.9 327.0 290.4 325.9 286.9 322.3 286.8 319.3 283.8 315.8 281.8 315.1 279.2 321.4 276.2 318.1 275.8 313.9 278.2 314.5 278.8 313.5 282.0 313.7 283.4 311.6 284.4 312.9 288.1 313.9 289.9 313.1 288.8 310.7 292.0 309.0 291.6 304.7 296.3 302.5 295.8 301.2 298.0 300.9 300.9 302.2 305.1 306.4 307.0 306.4 309.4 308.0 313.7 307.9 315.6 305.7 317.3 305.3 317.1 306.7 318.7 309.3 318.9 311.5 322.3 313.4 319.7 313.9 319.7 317.1 316.8 315.1 313.1 314.6 310.0 316.0 302.5 314.3 301.5 315.6 299.1 315.6 298.1 317.9 295.2 315.7 293.5 316.5 293.7 320.1 296.8 323.5 297.9 327.0 305.8 334.2 307.1 334.5 310.5 340.2 Z" vector-effect="non-scaling-stroke" stroke="silver" stroke-width="1" class=" highcharts-name-croatia highcharts-key-hr"></path><path fill="#F8F8F8" d="M 205.4 242.8 L 205.1 243.7 203.1 242.4 204.9 242.4 205.4 242.8 M 212.6 227.5 L 211.9 228.7 211.4 228.0 212.4 226.6 212.6 227.5 M 216.5 224.4 L 215.0 224.9 214.8 224.5 217.6 223.9 216.5 224.4 M 219.8 223.9 L 220.1 224.0 218.2 224.3 218.2 223.8 219.8 223.9 M 200.4 246.1 L 204.0 246.7 206.5 246.7 204.3 248.3 202.4 247.2 200.6 247.6 200.4 246.1 M 206.8 246.7 L 203.8 246.2 201.4 244.2 205.1 244.1 206.5 243.1 205.2 241.2 209.4 236.0 211.6 229.0 212.6 229.8 215.9 227.9 217.5 225.6 220.2 224.7 225.3 224.3 228.3 226.8 228.1 230.0 226.9 233.5 225.1 233.5 224.5 235.4 226.4 235.7 226.7 238.2 224.1 240.3 225.0 241.2 222.0 242.5 220.3 241.6 218.8 242.6 220.5 247.4 220.0 250.0 218.3 251.3 218.6 254.5 216.4 254.2 217.7 249.9 215.3 248.2 213.5 248.4 212.2 245.9 208.5 245.6 206.8 246.7 M 217.6 235.9 L 218.2 235.6 218.2 235.5 218.2 235.5 218.2 235.5 218.8 235.0 217.5 233.4 218.2 235.5 218.2 235.5 218.2 235.5 217.6 235.9 217.6 235.9 217.6 235.9 217.6 235.9 215.7 237.1 213.7 235.7 217.5 233.4 218.1 230.9 216.0 230.6 215.9 228.1 213.5 229.5 215.1 232.2 213.2 233.0 212.6 235.8 215.8 237.4 217.6 235.9 217.6 235.9 217.6 235.9 217.6 235.9 Z" vector-effect="non-scaling-stroke" stroke="silver" stroke-width="1" class=" highcharts-name-netherlands highcharts-key-nl"></path><path fill="#F8F8F8" d="M 325.6 159.2 L 325.0 160.4 323.9 159.8 324.4 158.9 325.6 159.2 M 323.9 154.7 L 324.7 154.6 325.0 155.3 323.7 155.6 323.9 154.7 M 321.2 155.6 L 323.4 157.2 320.9 159.4 319.9 157.7 317.5 156.9 321.2 155.6 M 351.4 145.0 L 351.0 145.2 350.4 145.5 350.9 145.6 350.9 145.6 350.9 145.6 351.0 145.5 350.6 145.8 349.9 146.3 350.0 147.6 349.9 148.6 349.8 149.6 346.3 150.9 346.0 152.9 347.5 154.1 348.8 156.7 352.1 160.6 353.4 162.0 352.0 162.9 351.7 166.3 348.6 165.9 346.6 167.6 343.2 165.4 338.0 163.1 332.8 166.5 333.0 160.9 331.8 160.8 330.9 162.6 328.5 161.9 325.8 157.6 325.1 152.6 328.4 150.8 327.8 150.1 333.8 147.0 335.4 147.2 336.8 144.9 343.4 145.6 349.5 144.9 350.1 143.8 350.7 144.2 351.4 145.0 M 318.3 163.6 L 317.3 162.2 321.6 160.4 323.0 159.7 325.7 161.0 322.5 164.4 320.4 165.0 320.1 167.6 318.9 167.8 319.8 165.8 317.6 164.8 318.3 163.6 Z" vector-effect="non-scaling-stroke" stroke="silver" stroke-width="1" class=" highcharts-name-estonia highcharts-key-ee"></path><path fill="#F8F8F8" d="M 398.7 314.8 L 398.9 319.1 396.2 319.3 395.2 324.3 396.1 327.6 394.8 327.8 393.1 331.2 394.6 330.9 399.2 335.5 395.5 337.3 392.7 335.7 387.1 339.0 385.9 341.8 383.6 342.6 385.0 346.1 378.3 349.0 374.5 347.9 373.7 348.7 371.0 346.8 367.2 348.0 363.8 350.4 358.0 351.9 358.0 347.5 356.0 344.4 353.2 343.6 351.3 341.8 352.4 340.5 351.4 338.8 351.5 335.3 353.3 334.8 354.7 330.9 350.4 328.5 348.4 325.0 348.4 322.9 350.0 320.0 350.3 319.8 350.3 319.8 353.3 320.8 352.9 323.9 356.1 322.7 363.1 322.9 365.8 321.8 373.1 322.0 376.3 320.4 378.5 316.6 385.1 313.1 388.3 314.2 392.6 313.4 393.6 314.8 398.7 314.8 Z" vector-effect="non-scaling-stroke" stroke="silver" stroke-width="1" class=" highcharts-name-bulgaria highcharts-key-bg"></path><path fill="#F8F8F8" d="M 170.0 387.0 L 170.4 387.7 169.4 388.2 169.5 387.4 170.0 387.0 M 171.7 383.1 L 169.8 386.0 168.2 385.0 169.7 383.2 171.7 383.1 M 187.0 374.7 L 186.6 377.0 189.4 377.5 186.7 381.7 185.2 382.6 182.7 380.9 181.9 378.9 180.4 379.8 179.3 378.1 184.7 375.1 187.0 374.7 M 195.3 374.4 L 196.7 377.3 192.7 375.6 192.7 374.3 195.3 374.4 M 179.4 345.4 L 179.3 345.2 179.5 345.0 179.7 345.5 179.4 345.4 M 103.0 406.4 L 100.4 407.5 96.1 402.9 96.1 399.7 94.8 398.6 94.7 394.8 91.7 391.6 87.0 390.1 87.0 385.7 90.5 381.6 92.8 381.7 91.0 376.2 92.6 373.1 96.0 370.6 94.5 369.1 94.2 364.9 92.7 361.9 97.2 362.9 99.4 359.7 98.5 357.4 101.1 356.0 102.0 350.5 101.6 348.3 106.1 346.1 109.2 343.6 106.5 341.0 107.1 339.0 102.5 337.1 101.3 338.3 97.5 336.9 93.5 336.9 94.8 334.6 94.1 333.1 89.2 334.0 88.4 332.2 91.2 330.6 89.5 328.8 90.9 326.4 88.7 327.2 90.2 324.5 87.6 322.2 89.7 319.5 92.5 318.7 96.8 319.0 97.4 317.3 101.4 316.0 105.3 317.9 106.1 319.5 114.2 321.1 120.6 322.9 128.6 326.6 135.7 326.5 139.1 328.9 142.0 328.4 146.8 331.1 149.8 330.5 152.7 332.6 151.7 334.3 157.5 336.8 158.7 338.7 160.9 338.5 163.1 340.6 168.8 341.4 169.1 339.7 174.4 341.8 175.2 343.2 175.6 345.2 177.4 344.5 180.1 346.6 182.1 345.9 183.5 347.1 187.6 346.0 189.7 346.7 190.7 348.0 188.8 349.9 189.6 352.0 186.8 354.6 181.1 356.9 178.8 358.8 169.3 360.4 166.6 362.6 167.5 364.4 165.3 364.8 159.7 370.8 155.5 376.2 155.8 381.3 159.1 385.8 151.9 389.4 148.8 394.5 148.9 397.4 143.9 397.1 139.6 398.9 136.7 403.3 134.2 405.4 132.3 403.9 129.2 405.0 124.1 403.4 112.9 401.7 109.8 403.7 105.3 403.7 103.2 406.4 103.0 406.4 Z" vector-effect="non-scaling-stroke" stroke="silver" stroke-width="1" class=" highcharts-name-spain highcharts-key-es"></path><path fill="#F8F8F8" d="M 265.7 413.6 L 266.4 414.1 266.2 414.6 265.3 414.1 265.7 413.6 M 292.3 393.7 L 292.1 393.5 291.7 393.2 292.2 392.7 292.3 393.7 M 232.5 387.2 L 233.4 387.9 232.9 389.0 232.4 387.8 232.5 387.2 M 250.8 345.0 L 250.4 346.1 248.1 345.7 248.5 345.0 250.8 345.0 M 276.1 302.2 L 273.6 305.0 275.8 306.1 274.5 308.1 275.6 310.3 278.1 312.2 276.7 312.7 275.3 310.5 272.7 310.8 271.7 312.4 266.4 314.9 264.9 316.4 267.6 320.2 265.7 321.7 266.5 328.4 269.4 331.3 277.1 336.1 281.5 346.5 287.5 352.0 290.9 353.5 298.5 352.8 300.1 354.4 298.0 356.3 299.0 358.7 308.3 361.8 312.2 364.3 317.0 365.9 322.1 371.5 321.3 375.3 318.5 374.2 316.0 370.1 313.1 370.3 308.8 368.2 305.4 373.6 305.0 378.2 311.0 380.9 311.1 386.7 308.7 386.7 306.2 389.2 306.8 392.6 303.5 396.2 303.0 398.5 299.1 398.6 298.7 395.5 300.8 392.6 300.1 390.5 303.0 389.2 300.6 381.4 296.7 374.4 294.4 375.4 290.4 373.0 291.0 371.2 288.7 368.1 285.1 369.4 286.2 367.6 282.8 366.7 279.4 362.0 275.9 361.7 273.5 362.6 272.1 360.7 269.9 360.2 266.4 357.0 265.5 355.1 262.8 353.7 261.3 351.0 259.0 349.6 256.5 349.7 257.2 348.3 255.5 346.1 251.6 343.8 251.8 341.2 249.9 337.5 249.4 333.7 248.1 331.3 245.7 330.8 240.9 327.5 236.8 326.6 234.7 327.9 232.2 331.8 230.4 333.0 226.6 333.5 228.3 330.3 225.8 329.7 221.7 326.8 221.6 324.8 223.4 323.3 220.0 318.4 224.1 316.8 221.9 310.3 223.7 309.2 225.0 309.8 227.8 308.7 230.1 309.6 232.3 307.2 232.1 305.8 235.0 303.8 234.9 305.9 238.0 308.0 238.5 310.7 242.8 303.3 243.8 305.5 246.9 304.8 247.9 302.0 250.5 302.8 250.7 299.1 255.0 300.1 257.4 297.6 263.5 297.4 265.9 300.7 272.4 302.1 276.1 302.2 M 267.4 332.4 L 267.5 331.4 267.1 331.6 266.8 332.1 267.4 332.4 M 268.1 355.1 L 268.1 355.1 268.1 355.1 268.1 355.1 268.1 355.1 M 286.3 398.9 L 292.0 396.6 293.7 397.1 297.4 394.9 297.4 397.4 295.1 401.5 294.5 406.5 296.9 409.9 295.5 410.8 294.7 414.2 289.2 413.0 287.0 410.2 283.4 409.7 276.5 405.6 273.6 404.7 271.7 404.9 269.5 402.1 270.1 399.8 272.4 397.7 273.8 399.4 275.5 397.5 281.9 399.7 286.3 398.9 M 238.9 386.2 L 236.9 390.1 234.6 389.8 232.6 385.9 234.3 378.5 233.0 378.2 233.9 375.9 232.5 370.4 231.1 370.5 231.6 367.1 234.3 367.6 236.5 366.7 240.5 362.7 242.3 363.6 245.7 371.3 243.9 374.2 244.8 376.3 243.2 387.1 238.9 386.2 Z" vector-effect="non-scaling-stroke" stroke="silver" stroke-width="1" class=" highcharts-name-italy highcharts-key-it"></path><path fill="#F8F8F8" d="M 267.4 332.4 L 266.8 332.1 267.1 331.6 267.5 331.4 267.4 332.4 Z" vector-effect="non-scaling-stroke" stroke="silver" stroke-width="1" class=" highcharts-name-san-marino highcharts-key-sm"></path><path fill="#F8F8F8" d="M 268.1 355.1 L 268.1 355.1 268.1 355.1 268.1 355.1 268.1 355.1 Z" vector-effect="non-scaling-stroke" stroke="silver" stroke-width="1" class=" highcharts-name-vatican highcharts-key-va"></path><path fill="#F8F8F8" d="M 386.7 359.9 L 385.2 360.9 384.2 360.8 386.1 359.0 386.7 359.9 M 399.6 350.8 L 400.5 350.8 399.6 351.9 398.8 351.3 399.6 350.8 M 385.9 341.8 L 387.1 339.0 392.7 335.7 395.5 337.3 399.2 335.5 400.7 339.0 403.7 340.5 410.4 341.3 410.0 344.1 406.8 345.2 403.5 344.9 401.5 346.7 397.8 347.4 395.8 352.1 392.1 355.1 388.7 360.6 388.4 357.6 393.0 353.2 386.5 354.5 386.0 353.2 388.0 350.1 387.1 346.9 389.3 344.9 388.3 342.4 385.9 341.8 M 491.6 368.4 L 490.7 368.2 491.0 372.2 491.6 372.9 491.6 375.3 490.7 375.7 491.6 378.3 490.4 380.9 485.2 376.6 487.6 372.2 484.7 369.3 482.5 372.1 482.6 374.0 480.4 375.6 474.2 374.5 472.5 375.7 467.2 385.3 462.3 387.1 459.7 389.2 455.2 388.8 450.9 385.7 443.8 384.7 437.7 385.5 437.2 393.5 435.7 393.2 431.0 396.8 425.5 395.6 422.4 391.6 421.9 393.1 419.2 391.6 416.1 392.0 415.4 395.2 414.3 393.5 411.2 395.6 408.3 396.0 410.4 394.1 414.2 393.0 413.7 391.7 415.8 389.7 406.7 393.1 409.0 388.8 405.1 388.7 403.6 381.6 400.1 381.8 398.7 380.0 397.5 381.6 393.9 380.5 395.8 378.9 394.0 376.4 395.3 375.6 397.7 379.2 399.7 377.2 397.0 374.4 399.3 371.3 394.6 368.5 396.8 365.4 396.2 364.4 389.4 367.3 388.9 361.9 392.7 355.6 397.4 353.8 399.0 355.0 402.7 353.2 413.2 350.0 409.7 349.9 411.1 348.1 418.7 344.6 413.9 345.9 410.5 344.2 411.4 340.9 417.1 340.4 420.1 338.8 425.2 338.9 428.5 337.7 429.1 334.9 434.2 329.9 434.8 328.2 442.3 322.2 453.7 319.1 455.1 316.8 458.6 319.5 461.6 320.0 464.6 317.7 467.2 320.0 470.6 321.4 471.4 319.5 474.7 319.2 475.6 320.2 480.6 320.0 481.0 318.6 483.3 319.6 487.1 318.8 491.6 315.5 491.6 368.4 Z" vector-effect="non-scaling-stroke" stroke="silver" stroke-width="1" class=" highcharts-name-turkey highcharts-key-tr"></path><path fill="#F8F8F8" d="M 290.6 424.0 L 288.5 423.7 288.2 422.6 290.0 423.0 290.6 424.0 M 287.7 422.1 L 286.9 422.0 287.5 421.4 288.3 421.9 287.7 422.1 Z" vector-effect="non-scaling-stroke" stroke="silver" stroke-width="1" class=" highcharts-name-malta highcharts-key-mt"></path><path fill="#F8F8F8" d="M 158.6 301.9 L 159.3 303.2 158.8 304.1 157.8 302.0 158.6 301.9 M 157.6 298.9 L 158.8 299.6 159.1 300.1 156.9 298.7 157.6 298.9 M 153.4 289.8 L 152.9 289.9 152.7 289.1 153.4 289.3 153.4 289.8 M 147.1 284.6 L 147.4 285.0 146.1 284.6 146.2 283.7 147.1 284.6 M 217.6 304.8 L 218.2 303.9 222.1 303.6 222.5 306.9 223.7 309.2 221.9 310.3 224.1 316.8 220.0 318.4 223.4 323.3 221.6 324.8 221.7 326.8 225.8 329.7 228.3 330.3 226.6 333.5 226.4 333.8 226.1 334.1 225.9 333.8 225.5 334.3 223.5 336.1 220.1 337.7 219.6 340.0 212.6 341.4 210.8 339.7 208.5 339.2 207.2 336.7 204.2 337.4 201.8 336.0 197.1 334.7 189.9 339.0 188.7 345.2 189.7 346.7 187.6 346.0 183.5 347.1 182.1 345.9 180.1 346.6 177.4 344.5 177.6 343.3 175.2 343.2 174.4 341.8 169.1 339.7 168.8 341.4 163.1 340.6 160.9 338.5 158.7 338.7 157.5 336.8 151.7 334.3 152.7 332.6 149.8 330.5 152.7 328.8 157.0 317.0 156.3 317.3 158.8 307.8 159.4 306.9 161.5 310.1 161.8 309.0 158.8 305.2 160.0 303.2 160.4 299.2 155.5 295.6 153.6 291.7 155.0 289.2 151.4 284.8 152.1 283.3 149.7 283.2 150.2 281.8 147.9 282.0 144.9 279.1 142.1 277.3 138.7 277.6 138.6 275.6 136.9 274.2 140.0 274.4 137.3 269.4 139.1 268.2 143.7 267.9 146.5 269.0 147.3 267.4 150.4 267.6 152.7 272.2 155.7 270.7 156.3 272.0 159.3 271.0 159.1 272.0 162.6 272.1 161.5 270.9 162.0 265.6 160.7 263.4 160.5 259.6 162.8 260.8 164.3 260.4 165.4 263.8 172.1 266.5 177.0 265.2 174.8 264.4 176.1 261.9 179.5 260.7 183.3 260.3 186.3 257.0 187.4 250.4 190.3 249.2 194.3 248.7 194.3 248.7 194.5 251.5 195.8 253.0 198.3 252.7 199.0 255.5 201.6 256.7 201.6 258.1 204.2 258.1 205.4 259.2 204.7 262.3 206.8 262.9 210.1 260.8 209.4 262.6 210.4 264.7 214.1 268.4 216.4 268.0 217.6 269.2 220.4 269.2 221.5 269.5 222.8 272.5 233.9 275.3 230.9 279.1 228.9 284.9 228.8 290.7 227.1 292.3 224.3 291.4 224.5 293.2 220.9 297.1 219.5 299.6 217.1 301.3 217.6 304.8 M 179.4 345.4 L 179.7 345.5 179.5 345.0 179.3 345.2 179.4 345.4 M 234.9 351.4 L 236.4 347.8 239.7 346.0 241.2 346.6 241.7 343.0 242.6 346.9 243.4 353.0 242.1 354.8 242.1 357.6 240.5 361.5 236.8 359.2 238.0 357.8 236.1 357.3 236.5 353.7 234.9 351.4 Z" vector-effect="non-scaling-stroke" stroke="silver" stroke-width="1" class=" highcharts-name-france highcharts-key-fr"></path><path fill="#F8F8F8" d="M 239.9 213.4 L 239.4 213.0 239.6 212.8 240.4 212.8 239.9 213.4 M 255.4 213.2 L 255.8 214.0 253.8 213.4 254.5 212.6 255.4 213.2 M 269.3 210.9 L 271.0 211.5 270.6 212.8 272.0 214.2 268.7 215.3 267.9 212.1 269.3 210.9 M 237.9 210.8 L 236.8 210.5 237.2 210.1 237.8 210.1 237.9 210.8 M 236.8 208.5 L 236.1 208.6 236.7 206.9 236.5 207.7 236.8 208.5 M 241.0 290.0 L 241.1 290.1 241.1 290.1 241.0 290.0 M 245.0 291.4 L 240.2 288.3 241.0 290.0 238.9 290.1 236.6 288.5 235.3 290.8 228.8 290.7 228.9 284.9 230.9 279.1 233.9 275.3 222.8 272.5 221.5 269.5 220.4 269.2 221.7 265.4 219.7 264.3 219.1 261.6 221.1 259.5 220.9 257.6 218.6 254.5 218.3 251.3 220.0 250.0 220.5 247.4 218.8 242.6 220.3 241.6 222.0 242.5 225.0 241.2 224.1 240.3 226.7 238.2 226.4 235.7 224.5 235.4 225.1 233.5 226.9 233.5 228.1 230.0 228.3 226.8 227.2 225.3 228.7 222.1 233.6 221.6 234.9 223.6 237.6 223.7 237.7 220.2 240.6 219.9 239.5 218.2 239.6 215.8 238.2 214.3 240.7 213.0 238.7 210.3 238.5 208.6 239.6 208.4 243.6 209.6 243.6 209.6 244.5 208.9 247.4 211.1 247.3 212.6 252.3 215.1 254.3 214.8 254.3 216.6 252.2 218.2 253.1 219.1 257.1 218.6 258.6 216.8 261.1 216.6 263.6 213.1 267.7 215.1 270.1 217.0 271.7 216.4 272.6 219.4 273.0 219.6 273.3 217.2 275.2 218.6 274.9 218.9 275.1 219.3 273.1 219.7 275.7 221.3 276.9 226.0 276.7 228.5 275.3 230.8 279.0 233.7 278.4 235.5 280.2 239.3 279.2 242.4 280.4 245.6 282.0 246.2 282.7 248.6 281.5 252.9 280.1 253.1 279.1 251.3 278.1 252.9 272.9 255.1 271.9 256.4 265.3 259.0 263.5 262.9 265.6 264.5 264.6 266.3 267.8 270.9 269.3 271.2 273.1 275.1 275.6 276.9 275.0 279.7 273.5 279.0 272.8 281.4 267.9 284.5 269.9 287.5 270.4 291.5 268.3 289.6 266.3 290.1 263.8 289.3 263.7 290.5 259.6 290.8 256.8 293.0 254.7 293.1 253.2 291.7 250.4 291.1 249.6 294.1 246.8 291.6 245.0 291.4 Z" vector-effect="non-scaling-stroke" stroke="silver" stroke-width="1" class=" highcharts-name-germany highcharts-key-de"></path><path fill="#F8F8F8" d="M 116.6 200.3 L 116.2 201.8 115.8 200.7 114.5 200.1 116.6 200.3 M 140.5 205.5 L 139.7 206.4 139.4 218.3 135.3 224.4 135.0 226.4 132.0 225.0 131.3 225.8 127.6 225.2 126.2 226.4 121.3 227.3 117.6 229.0 109.6 228.4 112.4 225.9 108.7 226.3 108.8 224.5 106.9 222.5 111.1 220.8 107.3 220.0 109.8 218.6 111.7 219.7 111.7 217.7 114.4 216.5 113.1 215.9 115.7 214.8 116.4 212.8 118.4 210.9 120.6 211.6 120.9 210.2 116.4 209.1 116.9 208.0 114.2 207.0 113.7 204.8 116.0 204.8 116.1 203.1 118.4 203.4 117.3 201.4 116.9 198.0 118.3 197.1 122.1 198.7 126.8 200.0 125.9 198.8 130.1 196.6 126.6 196.0 126.0 194.9 127.9 193.9 130.6 190.7 135.6 190.5 136.8 189.7 139.1 192.2 136.8 193.3 135.6 193.8 134.0 196.5 132.1 196.1 132.3 197.5 129.3 198.5 130.7 201.9 133.8 203.7 136.3 200.9 138.1 205.6 140.5 205.5 Z" vector-effect="non-scaling-stroke" stroke="silver" stroke-width="1" class=" highcharts-name-ireland highcharts-key-ie"></path><path fill="#F8F8F8" d="M 422.6 280.3 L 423.7 280.1 425.2 279.6 425.8 279.9 422.6 280.3 M 418.6 280.5 L 415.3 280.8 414.2 280.6 417.9 280.4 418.6 280.5 M 402.7 296.4 L 402.3 295.0 399.4 294.6 395.9 298.0 392.1 298.0 390.7 296.7 392.8 295.7 392.3 294.0 395.0 289.2 393.5 284.3 394.9 283.0 395.8 284.9 397.3 282.9 400.7 283.7 402.4 282.8 400.7 281.6 399.9 278.4 396.7 277.7 395.5 273.6 394.6 274.4 391.7 272.2 391.5 268.3 389.2 268.2 387.6 266.5 382.0 266.5 379.0 264.8 377.2 265.0 375.1 266.9 372.6 267.1 371.3 268.9 369.1 270.0 368.6 272.6 362.2 275.2 359.9 277.8 356.8 275.8 354.5 276.8 350.9 276.4 347.8 277.0 345.8 276.2 344.3 278.1 341.9 276.8 337.9 274.0 338.7 270.5 339.6 266.1 342.0 266.5 340.6 264.8 339.4 260.9 341.9 255.6 345.6 249.9 347.8 247.7 346.2 244.8 347.3 244.4 342.7 239.6 342.2 237.6 342.9 236.0 344.6 236.4 346.8 232.6 352.0 230.7 356.0 230.0 363.8 230.3 366.1 229.8 367.0 231.3 374.6 230.2 376.3 229.5 377.6 230.9 379.6 227.7 381.7 230.2 383.3 228.3 386.9 227.3 390.3 229.2 390.7 227.9 389.0 225.3 390.5 219.3 395.7 217.4 398.9 216.6 398.9 213.8 402.9 213.4 404.2 211.5 406.7 211.6 408.2 210.3 410.5 211.7 411.6 213.9 414.0 214.7 412.8 216.8 415.1 219.6 414.8 221.2 418.9 220.8 421.2 219.7 425.6 224.3 426.2 226.3 428.4 227.1 430.9 225.3 435.0 226.3 436.6 224.0 439.8 221.8 443.2 224.6 445.8 225.7 446.3 223.5 452.5 224.1 453.9 222.8 457.0 223.1 459.5 224.3 461.3 222.8 463.1 226.3 462.5 229.0 461.0 230.0 463.6 230.9 462.4 232.7 466.5 236.8 466.9 242.0 460.4 244.7 460.4 246.7 458.1 248.6 459.3 254.2 454.8 256.2 453.9 259.1 444.5 265.5 441.8 270.0 440.8 269.5 438.4 273.7 439.8 276.0 445.3 280.7 448.2 280.1 448.9 278.2 454.5 276.6 454.9 280.8 450.7 283.3 448.6 282.6 445.0 287.3 441.3 289.9 440.9 292.3 438.7 295.0 433.6 294.6 434.8 293.5 433.0 288.4 430.5 288.5 427.0 287.3 424.2 288.4 423.9 287.1 425.8 284.4 431.6 278.9 426.5 277.1 425.9 278.3 421.5 280.5 415.5 279.2 416.6 277.6 413.0 277.6 419.1 276.6 419.9 274.9 416.0 275.7 408.5 278.3 406.4 285.1 404.5 288.7 403.3 288.7 402.1 291.8 400.7 289.7 401.5 293.5 402.5 293.4 402.7 296.4 M 402.7 282.7 L 405.8 285.1 406.2 284.4 403.2 282.3 402.7 282.7 M 432.9 276.5 L 441.4 278.5 443.9 281.7 445.5 281.0 441.7 278.4 438.8 275.1 433.3 274.1 429.7 276.0 432.8 277.4 432.9 276.5 Z" vector-effect="non-scaling-stroke" stroke="silver" stroke-width="1" class=" highcharts-name-ukraine highcharts-key-ua"></path><path fill="#F8F8F8" d="M 350.5 133.9 L 350.9 133.6 351.7 134.0 351.2 134.3 350.5 133.9 M 374.4 78.1 L 373.4 77.6 373.7 77.4 374.4 77.6 374.4 78.1 M 393.3 66.6 L 391.2 65.9 392.3 65.2 392.9 65.7 393.3 66.6 M 371.0 70.7 L 370.7 71.7 369.0 70.7 370.2 69.6 371.0 70.7 M 370.8 68.9 L 371.3 69.1 372.2 68.8 371.5 69.5 370.8 68.9 M 393.1 40.6 L 392.1 40.6 391.7 39.9 392.2 39.7 393.1 40.6 M 415.9 3.7 L 415.1 5.3 415.7 3.2 416.9 2.6 415.9 3.7 M 347.4 25.6 L 345.9 26.1 345.6 25.7 346.4 25.2 347.4 25.6 M 317.6 199.0 L 315.2 202.8 318.8 203.0 319.7 202.5 319.4 199.0 325.2 200.5 328.2 199.7 329.9 201.2 330.0 206.3 330.7 207.3 330.3 207.5 311.0 209.5 314.9 206.0 311.9 206.3 311.3 207.3 311.3 207.3 311.3 207.3 312.1 203.5 314.2 203.2 315.7 201.8 317.2 198.9 317.6 199.0 317.6 199.0 M 349.8 149.6 L 349.9 148.6 350.0 147.6 350.3 146.2 350.6 145.8 350.9 145.6 350.4 145.5 350.9 145.6 351.4 145.0 350.7 144.2 350.1 143.8 349.6 140.2 351.6 141.3 351.8 139.0 354.4 138.6 354.9 136.5 360.9 136.2 358.2 133.6 353.6 134.5 351.0 132.2 350.2 129.1 348.2 131.8 345.9 132.3 349.7 125.0 351.4 122.7 353.4 118.1 355.9 110.3 358.0 105.9 358.3 101.0 355.6 98.3 351.1 96.5 347.7 94.1 349.5 90.6 348.9 88.0 345.9 86.8 345.0 84.9 345.8 83.9 344.8 82.5 343.4 82.7 341.9 80.8 342.4 78.1 340.4 73.5 342.2 72.7 339.8 67.9 336.9 64.1 333.9 60.8 333.5 59.0 334.4 55.1 335.4 52.2 335.2 50.1 333.3 49.0 331.0 46.5 327.9 45.8 326.0 42.2 326.6 38.4 325.0 38.1 326.6 36.1 327.5 34.8 327.4 32.8 329.4 31.3 330.1 27.8 332.7 28.2 331.6 25.0 334.5 25.7 335.9 25.2 335.1 23.4 336.4 23.9 335.9 21.8 341.1 23.9 340.4 25.1 337.4 25.2 339.4 26.3 341.7 26.0 341.2 27.5 343.6 25.9 343.4 28.5 344.5 28.7 344.4 27.0 347.6 26.0 351.3 25.9 351.3 25.1 354.3 25.3 363.0 27.7 367.6 30.4 368.2 29.8 373.3 31.6 375.5 31.3 381.2 32.9 383.7 37.5 384.6 37.3 385.9 39.5 386.2 42.0 385.1 47.7 381.6 52.7 378.5 55.0 375.6 55.8 370.2 55.5 368.1 56.2 363.1 56.5 359.8 55.3 358.5 56.6 356.8 55.5 355.3 55.9 353.4 54.9 353.6 56.0 349.9 54.3 349.3 53.0 346.9 53.4 348.6 54.5 350.7 57.0 352.5 56.9 352.0 59.1 355.7 58.9 355.6 60.3 360.4 61.3 362.9 63.1 363.8 65.1 362.5 64.3 363.7 66.5 363.1 69.5 367.4 74.3 367.1 75.6 368.5 76.9 367.7 77.8 371.8 79.7 373.5 78.3 376.3 79.9 377.1 81.1 381.7 80.7 382.6 81.3 385.3 78.5 383.8 74.6 381.8 74.0 380.6 75.6 379.4 75.4 374.0 71.0 375.5 69.9 375.5 67.3 379.4 67.7 381.6 68.8 386.2 68.4 389.9 69.2 390.6 67.2 391.4 67.2 390.5 67.0 390.9 66.4 393.9 67.0 393.4 67.3 394.2 67.3 391.8 63.6 386.6 59.8 386.2 57.4 387.6 55.2 388.5 51.5 390.5 49.6 391.6 46.1 391.8 42.9 394.1 42.9 394.0 43.8 396.7 41.8 400.5 43.2 403.5 45.6 401.0 41.2 400.6 36.7 399.3 34.1 397.5 32.9 395.1 32.9 394.2 31.2 393.1 25.7 391.1 20.8 390.3 20.1 385.6 18.8 385.9 18.0 388.5 18.2 393.6 15.6 396.5 15.3 397.6 16.4 400.6 17.3 403.0 19.9 398.3 24.0 398.9 25.5 398.1 26.7 398.9 29.1 402.4 29.4 404.9 31.6 408.3 30.7 411.8 26.2 410.5 24.2 410.0 21.2 408.9 20.3 409.8 18.1 411.6 16.5 411.0 15.0 412.1 14.3 414.8 7.7 415.1 5.3 415.9 5.3 418.9 0 418.9 0 420.0 2.1 421.2 1.9 421.4 0 424.7 0 424.8 0.7 426.1 0 491.6 0 491.6 284.0 489.9 284.6 488.9 287.3 477.8 282.7 474.2 282.0 470.7 282.6 467.2 280.5 464.3 281.9 461.8 279.8 455.4 278.9 456.3 275.7 459.2 277.0 461.7 274.4 463.5 274.4 461.1 271.1 462.3 269.5 462.1 266.1 463.7 264.2 466.0 263.5 461.7 262.1 460.7 262.7 457.7 260.1 460.0 259.7 461.8 256.6 467.1 252.0 466.0 249.4 459.3 254.2 458.1 248.6 460.4 246.7 460.4 244.7 466.9 242.0 466.5 236.8 462.4 232.7 463.6 230.9 461.0 230.0 462.5 229.0 463.1 226.3 461.3 222.8 459.5 224.3 457.0 223.1 453.9 222.8 452.5 224.1 446.3 223.5 445.8 225.7 443.2 224.6 439.8 221.8 436.6 224.0 435.0 226.3 430.9 225.3 428.4 227.1 426.2 226.3 425.6 224.3 421.2 219.7 418.9 220.8 414.8 221.2 415.1 219.6 412.8 216.8 414.0 214.7 411.6 213.9 410.5 211.7 408.2 210.3 406.7 211.6 404.2 211.5 402.9 213.4 398.9 213.8 398.9 216.6 395.7 217.4 393.7 215.5 391.5 209.9 389.3 208.6 389.8 206.3 394.5 206.2 396.2 204.4 397.4 201.1 395.3 200.5 394.8 198.8 392.0 198.4 389.9 199.2 389.5 196.3 385.8 195.4 383.5 191.5 380.5 190.5 381.2 187.4 379.1 185.0 378.6 181.5 375.4 180.1 371.7 180.8 369.6 183.0 368.3 180.3 366.0 180.1 364.9 181.4 363.3 180.1 361.4 181.0 360.3 180.2 359.1 176.0 356.0 172.8 355.2 173.3 355.2 168.1 351.7 166.3 352.0 162.9 353.4 162.0 352.1 160.6 355.3 161.5 355.0 159.9 353.4 158.3 351.6 159.2 350.6 158.3 351.6 155.3 349.8 149.6 M 310.1 209.4 L 310.1 209.4 310.7 208.4 310.7 208.4 310.1 209.4 M 310.7 208.4 L 311.3 207.3 311.3 207.3 311.3 207.3 311.3 207.6 310.7 208.4 310.7 208.4 M 400.5 1.8 L 400.7 0 407.7 0 407.6 0.3 408.0 2.6 406.9 4.8 404.8 6.7 402.4 5.8 400.5 1.8 Z" vector-effect="non-scaling-stroke" stroke="silver" stroke-width="1" class=" highcharts-name-russia highcharts-key-ru"></path><path fill="#F8F8F8" d="M 158.2 264.5 L 158.8 265.6 157.3 265.3 157.3 264.5 158.2 264.5 M 166.9 248.7 L 168.4 249.9 166.5 250.7 165.3 249.6 166.9 248.7 M 149.5 217.0 L 149.8 215.6 151.8 215.9 153.1 217.3 150.8 218.8 149.5 217.0 M 151.1 192.3 L 149.7 191.6 150.2 189.3 151.4 189.7 151.1 192.3 M 145.9 186.7 L 146.0 188.4 144.6 188.3 143.7 186.1 145.9 185.4 145.9 186.7 M 148.9 183.5 L 148.7 184.5 146.7 187.2 146.3 185.8 148.9 183.5 M 142.7 178.9 L 142.2 178.0 143.8 177.9 142.9 178.5 142.7 178.9 M 145.0 177.6 L 144.1 177.6 145.0 177.0 145.9 176.8 145.0 177.6 M 141.1 172.1 L 140.4 172.5 140.0 172.2 140.8 171.5 141.1 172.1 M 147.9 173.4 L 147.5 174.2 146.7 173.3 147.6 172.9 147.9 173.4 M 142.4 167.6 L 143.0 169.1 141.6 171.0 141.4 169.3 142.4 167.6 M 143.0 166.8 L 143.3 167.7 142.8 167.7 142.2 167.1 143.0 166.8 M 144.1 164.5 L 143.9 166.7 141.8 165.3 142.4 164.6 144.1 164.5 M 171.9 157.6 L 171.4 158.5 171.1 157.3 171.6 157.2 171.9 157.6 M 170.0 156.3 L 170.2 157.2 169.4 157.6 168.9 156.3 170.0 156.3 M 171.0 153.7 L 173.2 156.5 170.3 156.1 169.5 154.9 171.0 153.7 M 171.8 153.4 L 172.0 154.0 171.5 153.9 171.4 153.2 171.8 153.4 M 175.7 152.7 L 174.9 153.3 174.4 153.1 174.6 152.8 175.7 152.7 M 172.6 151.6 L 172.9 152.7 172.2 152.5 171.8 151.6 172.6 151.6 M 187.0 139.5 L 187.0 139.9 186.5 139.9 186.3 139.1 187.0 139.5 M 184.4 144.0 L 183.1 147.2 182.6 146.8 183.8 143.2 182.6 144.0 181.7 142.1 185.3 141.1 184.4 144.0 M 185.7 137.8 L 186.2 137.9 185.6 140.5 184.9 140.3 185.7 137.8 M 187.5 137.4 L 187.0 138.6 186.3 138.4 187.0 136.8 187.5 137.4 M 155.5 262.1 L 154.6 262.0 154.7 261.7 155.9 261.2 155.5 262.1 M 151.3 207.9 L 150.0 208.0 152.3 205.0 153.6 206.1 151.3 207.9 M 136.8 193.3 L 138.9 192.4 142.1 192.5 144.3 193.5 145.5 199.3 146.6 200.4 144.7 203.5 141.8 206.5 140.5 205.5 138.1 205.6 136.3 200.9 133.8 203.7 130.7 201.9 129.3 198.5 132.3 197.5 132.1 196.1 134.0 196.5 135.6 193.8 136.8 193.3 M 103.2 406.4 L 103.1 406.8 103.0 406.4 103.2 406.4 M 466.7 404.1 L 465.7 404.1 464.3 404.6 464.8 403.9 466.7 404.1 M 473.6 397.7 L 473.2 398.0 472.5 397.9 472.2 397.8 472.5 397.9 472.3 397.9 471.8 398.2 471.8 398.2 471.7 398.0 471.6 397.6 471.3 397.6 471.3 397.6 472.1 397.3 473.3 396.5 473.3 396.5 473.2 396.6 472.4 397.1 473.6 397.7 M 472.1 397.7 L 472.1 397.6 472.0 397.6 472.0 397.7 472.1 397.7 M 182.8 244.2 L 183.8 244.5 187.0 244.5 186.1 247.3 177.9 250.6 174.9 249.3 170.2 249.7 169.8 248.5 162.2 248.9 161.7 249.9 158.3 249.4 155.8 247.3 152.9 247.4 151.0 248.5 149.2 251.8 145.9 249.5 141.6 249.2 139.2 250.2 137.7 252.6 136.5 249.6 142.0 246.1 144.1 244.2 144.8 241.9 146.1 242.4 147.8 240.3 150.5 240.4 155.6 242.0 155.9 240.7 158.7 237.9 156.7 237.9 154.9 239.5 152.5 239.0 150.8 236.1 147.6 236.3 147.4 233.8 143.2 234.9 141.6 230.9 145.0 230.4 149.8 228.4 151.4 225.7 151.9 221.6 147.2 222.0 152.3 218.0 159.0 217.6 161.6 214.0 161.2 211.7 163.1 209.8 161.8 208.4 160.1 209.4 158.4 204.5 160.8 200.7 162.0 200.1 159.8 199.2 159.4 200.5 156.8 201.2 154.3 199.2 154.1 201.7 151.4 199.0 150.8 201.6 149.6 198.9 151.1 195.8 154.3 192.4 152.9 189.6 154.3 187.1 154.3 185.3 152.9 187.8 152.3 187.6 152.4 189.3 151.9 188.5 151.7 187.3 150.8 187.0 149.2 189.6 148.4 192.5 146.6 192.8 148.8 188.1 148.8 185.6 150.4 183.6 149.5 183.0 150.9 181.2 153.2 178.1 150.2 179.9 148.2 178.0 150.0 181.0 145.6 181.5 147.1 179.6 146.5 177.8 148.1 177.8 147.3 177.0 149.7 177.0 149.9 175.4 152.5 171.4 151.4 170.3 151.8 167.8 152.8 168.6 152.7 164.9 155.5 164.4 156.9 165.5 155.4 162.8 159.3 157.3 161.1 158.5 166.0 159.3 168.5 158.8 170.8 159.4 168.9 162.9 163.1 166.0 164.5 167.6 161.1 170.7 165.3 169.9 166.1 169.2 168.4 170.1 175.3 171.2 176 173.7 174.3 175.2 172.0 179.9 169.6 182.8 167.2 183.8 168.7 186.1 166.1 186.5 164.5 187.9 162.0 187.9 164.9 189.2 166.9 188.3 170.7 190.6 172.2 194.1 173.3 194.9 173.2 199.6 174.0 204.2 174.9 206.1 178.2 208.2 178.9 210.7 180.8 212.8 179.7 213.6 181.4 218.2 179.3 218.2 181.3 220.1 181.9 224.6 179.4 226.5 181.8 227.9 183.3 226.1 188.0 227.2 190.3 229.2 190.8 232.5 189.0 236.9 184.5 239.2 183.4 242.1 180.4 242.4 180.9 243.5 182.6 244.1 182.5 243.3 183.3 243.7 183.5 244.3 182.8 244.2 M 150.0 170.2 L 150.2 170.8 152.2 171.5 149.5 173.7 149.8 171.8 147.9 171.8 145.9 167.9 148.4 167.8 149.3 165.8 149.5 169.3 150.0 170.2 150.2 168.9 150.8 168.2 150.4 169.4 150.0 170.2 M 146.6 158.8 L 147.9 159.5 147.9 158.7 151.6 156.9 151.8 158.9 150.1 160.1 150.0 162.0 145.5 164.5 145.0 163.5 146.8 162.5 145.4 161.5 146.6 158.8 Z" vector-effect="non-scaling-stroke" stroke="silver" stroke-width="1" class=" highcharts-name-united-kingdom highcharts-key-gb"></path><path fill="#F8F8F8" d="M 472.1 397.7 L 472.0 397.7 472.0 397.6 472.1 397.6 472.1 397.7 M 474.4 396.2 L 475.4 397.0 473.6 397.7 472.4 397.1 473.2 396.6 473.6 396.6 474.4 396.2 M 471.8 398.2 L 471.5 400.2 466.7 404.1 464.8 403.9 464.3 404.6 460.8 404.5 458.4 401.1 460.8 399.4 461.3 399.5 461.5 399.0 461.8 398.9 463.3 399.9 468.5 397.0 469.4 398.7 471.7 398.0 471.8 398.2 471.8 398.2 M 472.2 397.8 L 472.4 397.8 472.6 397.8 472.5 397.9 472.2 397.8 Z" vector-effect="non-scaling-stroke" stroke="silver" stroke-width="1" class=" highcharts-name-cyprus highcharts-key-cy"></path><path fill="#F8F8F8" d="M 87.0 390.1 L 83.2 391.2 75.9 388.2 72.3 388.4 75.5 383.6 78.1 373.9 77.2 371.9 74.7 372.3 75.0 369.4 73.1 368.3 76.1 362.5 79.7 358.5 87.1 344.9 87.4 336.2 89.2 334.0 94.1 333.1 94.8 334.6 93.5 336.9 97.5 336.9 101.3 338.3 102.5 337.1 107.1 339.0 106.5 341.0 109.2 343.6 106.1 346.1 101.6 348.3 102.0 350.5 101.1 356.0 98.5 357.4 99.4 359.7 97.2 362.9 92.7 361.9 94.2 364.9 94.5 369.1 96.0 370.6 92.6 373.1 91.0 376.2 92.8 381.7 90.5 381.6 87.0 385.7 87.0 390.1 Z" vector-effect="non-scaling-stroke" stroke="silver" stroke-width="1" class=" highcharts-name-portugal highcharts-key-pt"></path><path fill="#F8F8F8" d="M 408.5 411.1 L 408.6 411.4 407.6 412.1 407.5 411.3 408.5 411.1 M 409.5 406.2 L 409.4 408.6 410.0 410.8 408.7 409.1 409.5 406.2 M 369.9 410.0 L 368.5 410.2 368.6 408.1 370.2 409.5 369.9 410.0 M 417.0 396.8 L 416.3 400.8 414.4 404.0 412.7 401.2 414.2 398.7 417.0 396.8 M 392.0 403.5 L 391.7 404.0 390.9 403.9 391.5 403.4 392.0 403.5 M 409.0 398.4 L 409.3 398.9 409.3 399.4 408.5 398.7 409.0 398.4 M 400.3 399.0 L 399.1 400.2 398.6 399.4 399.3 399.5 400.3 399.0 M 412.7 395.7 L 413.1 395.5 413.4 396.4 412.3 396.3 412.7 395.7 M 382.3 400.7 L 382.6 401.8 380.6 402.6 380.7 401.4 382.3 400.7 M 390.3 399.6 L 390.3 400.5 389.0 400.0 389.3 399.1 390.3 399.6 M 406.4 395.0 L 404.2 396.6 405.1 394.9 407.0 393.7 406.4 395.0 M 396.0 396.4 L 394.5 397.9 394.2 397.3 395.3 396.0 396.0 396.4 M 382.8 397.5 L 383.9 398.3 383.6 399.0 382.7 397.7 382.8 397.5 M 402.8 392.4 L 404.5 393.0 403.5 394.1 403.7 393.1 402.8 392.4 M 386.7 397.3 L 387.1 395.8 388.0 395.4 387.9 397.1 386.7 397.3 M 391.2 395.0 L 390.3 397.4 388.9 395.8 390.3 394.0 391.2 395.0 M 380.8 396.0 L 381.2 396.0 381.4 396.8 380.5 396.9 380.8 396.0 M 380.2 393.5 L 379.5 395.0 379.3 393.5 379.7 392.9 380.2 393.5 M 387.9 390.9 L 389.0 391.1 388.6 391.8 387.8 392.1 387.9 390.9 M 384.7 392.8 L 384.0 393.4 383.8 393.1 384.1 391.7 384.7 392.8 M 385.2 389.8 L 386.7 389.8 386.7 390.9 384.4 390.1 385.2 389.8 M 378.7 390.7 L 379.0 391.4 378.1 392.6 378.0 391.6 378.7 390.7 M 396.4 387.5 L 394.3 389.4 393.5 389.2 394.1 388.0 396.4 387.5 M 370.8 392.3 L 370.4 392.3 369.9 391.5 371.2 391.2 370.8 392.3 M 401.7 384.8 L 400.5 386.4 398.4 385.8 400.6 384.4 401.7 384.8 M 345.6 394.6 L 347.9 395.7 346.5 396.8 344.4 395.1 345.6 394.6 M 382.4 387.3 L 383.4 387.2 383.5 389.3 380.9 387.4 382.4 387.3 M 370.4 388.9 L 370.7 389.4 370.1 390.1 369.4 389.9 370.4 388.9 M 342.9 387.8 L 345.6 392.1 342.9 392.0 342.4 389.7 342.9 387.8 M 391.6 377.3 L 393.2 380.3 392.2 382.3 389.7 377.8 391.6 377.3 M 344.1 385.5 L 342.7 386.1 342.4 385.3 343.2 383.3 344.1 385.5 M 377.7 376.8 L 378.8 377.5 377.6 377.9 376.8 375.8 377.7 376.8 M 368.4 374.8 L 370.3 375.5 369.9 376.0 369.2 376.0 368.4 374.8 M 392.8 368.3 L 395.2 371.4 391.4 372.2 388.1 370.1 392.0 367.8 392.8 368.3 M 335.0 373.5 L 334.5 375.2 335.5 377.1 332.4 374.4 335.0 373.5 M 382.5 362.4 L 382.3 365.2 379.6 365.2 379.1 363.4 382.5 362.4 M 383.4 356.7 L 383.7 357.4 382.9 357.9 381.6 357.2 383.4 356.7 M 375.5 356.9 L 373.1 357.1 373.8 355.1 375.1 355.4 375.5 356.9 M 335.8 374.6 L 337.3 374.9 339.0 372.5 338.0 370.8 340.7 369.2 343.0 362.0 343.8 361.0 343.0 361.9 342.2 361.2 342.3 360.8 342.8 360.2 343.6 359.9 347.5 359.2 349.9 356.1 352.1 355.0 356.7 354.1 358.0 351.9 363.8 350.4 367.2 348.0 371.0 346.8 373.7 348.7 374.5 347.9 378.3 349.0 385.0 346.1 383.6 342.6 385.9 341.8 388.3 342.4 389.3 344.9 387.1 346.9 388.0 350.1 386.0 353.2 384.9 352.2 381.3 352.7 376.7 352.1 375.1 354.2 372.9 353.5 369.5 356.8 366.8 356.7 365.9 357.9 373.1 362.5 368.6 361.2 366.8 362.0 369.8 363.9 370.2 365.8 366.8 363.3 364.0 364.0 367.7 366.7 364.7 366.7 363.6 363.7 358.9 361.5 359.4 359.7 356.9 362.2 357.8 363.2 357.6 366.9 360.7 369.7 366.2 375.6 362.2 374.2 361.9 376.6 364.1 377.6 361.9 381.0 367.1 381.7 367.7 383.3 373.5 384.6 375.9 390.5 375.7 391.7 372.9 390.3 370.8 388.0 366.0 391.3 367.7 391.4 367.9 393.7 371.5 394.8 369.0 396.2 364.1 395.2 369.2 403.3 368.5 404.2 370.7 407.1 364.3 404.1 364.3 407.9 359.9 402.1 358.0 402.9 357.9 405.9 356.2 405.3 354.3 401.4 355.1 399.8 353.3 396.8 348.9 394.3 350.6 389.6 352.7 390.0 355.6 387.4 358.3 388.7 364.2 389.4 367.4 388.0 362.2 386.4 355.7 386.5 351.8 388.5 350.2 387.4 348.4 388.9 347.4 386.4 344.3 382.3 347.2 381.0 342.9 380.8 339.7 378.7 335.8 374.6 M 343.9 388.7 L 344.5 389.4 343.9 388.7 343.9 388.7 343.9 388.7 M 370.2 382.5 L 365.7 379.8 363.5 379.5 366.1 377.2 367.7 378.6 369.3 379.8 373.7 380.0 377.4 385.4 379.5 385.0 379.6 387.1 378.0 387.5 374.1 384.1 370.4 383.7 370.2 382.5 M 397.2 414.8 L 398.2 417.2 401.9 414.3 402.4 417.2 388.5 421.5 387.8 419.7 384.7 419.1 378.8 419.8 376.2 419.6 376.3 415.8 377.6 416.7 381.8 415.0 383.1 417.4 389.5 415.4 394.6 415.8 397.2 414.8 M 343.9 388.7 L 343.3 387.8 343.8 387.5 343.9 388.7 343.9 388.7 Z" vector-effect="non-scaling-stroke" stroke="silver" stroke-width="1" class=" highcharts-name-greece highcharts-key-gr"></path><path fill="#F8F8F8" d="M 310.1 209.4 L 307.8 211.0 308.9 211.6 311.0 209.5 330.3 207.5 330.7 207.3 331.2 206.7 335.4 208.6 336.2 211.0 337.6 214.5 340.6 219.2 341.5 224.5 338.6 227.0 337.5 229.7 341.2 231.3 342.2 237.6 342.7 239.6 347.3 244.4 346.2 244.8 347.8 247.7 345.6 249.9 341.9 255.6 339.4 260.9 340.6 264.8 342.0 266.5 339.6 266.1 335.5 265.2 333.7 263.6 329.6 263.5 327.5 265.5 325.5 264.6 322.8 265.2 321.2 267.9 318.9 267.8 316.1 263.7 314.4 266.2 311.8 265.3 309.3 261.1 305.4 260.4 304.0 260.9 298.8 256.9 296.5 256.6 297.4 258.7 295.7 260.4 291.7 257.0 292.5 254.5 290.7 254.6 286.0 253.3 284.6 251.6 282.4 251.3 281.5 252.9 282.7 248.6 282.0 246.2 280.4 245.6 279.2 242.4 280.2 239.3 278.4 235.5 279.0 233.7 275.3 230.8 276.7 228.5 276.9 226.0 275.7 221.3 277.4 221.5 278.0 219.4 275.1 219.3 274.9 218.9 275.2 218.6 287.6 213.7 290.1 210.5 294.9 207.8 301.2 206.1 303.5 210.5 306.3 211.1 310.1 209.4 310.1 209.4 Z" vector-effect="non-scaling-stroke" stroke="silver" stroke-width="1" class=" highcharts-name-poland highcharts-key-pl"></path><path fill="#F8F8F8" d="M 319.4 199.0 L 317.3 193.6 316.6 190.0 318.1 188.0 322.5 185.1 326.2 185.2 327.4 184.4 329.0 185.2 332.5 184.0 337.3 184.2 339.6 181.6 341.5 184.2 345.0 183.9 349.8 187.4 352.0 187.8 351.9 191.6 354.3 191.8 353.3 193.8 351.5 193.9 350.9 196.1 348.9 197.7 349.4 201.1 348.3 204.4 346.1 206.8 344.7 206.9 344.7 209.0 342.2 210.5 340.9 210.0 336.2 211.0 335.4 208.6 331.2 206.7 330.7 207.3 330.0 206.3 329.9 201.2 328.2 199.7 325.2 200.5 319.4 199.0 M 317.2 198.9 L 317.8 196.4 317.6 199.0 317.6 199.0 317.2 198.9 Z" vector-effect="non-scaling-stroke" stroke="silver" stroke-width="1" class=" highcharts-name-lithuania highcharts-key-lt"></path><path fill="#F8F8F8" d="M 275.8 313.9 L 275.8 313.4 276.7 312.7 278.1 312.2 275.6 310.3 274.5 308.1 275.8 306.1 273.6 305.0 276.1 302.2 281.6 302.8 282.7 303.5 285.0 300.8 289.7 300.3 291.0 299.0 293.9 299.1 294.4 297.1 295.8 297.0 298.0 300.9 295.8 301.2 296.3 302.5 291.6 304.7 292.0 309.0 288.8 310.7 289.9 313.1 288.1 313.9 284.4 312.9 283.4 311.6 282.0 313.7 278.8 313.5 278.2 314.5 275.8 313.9 Z" vector-effect="non-scaling-stroke" stroke="silver" stroke-width="1" class=" highcharts-name-slovenia highcharts-key-si"></path><path fill="#F8F8F8" d="M 311.2 340.8 L 310.3 340.3 310.5 340.2 307.1 334.5 305.8 334.2 297.9 327.0 296.8 323.5 293.7 320.1 293.5 316.5 295.2 315.7 298.1 317.9 299.1 315.6 301.5 315.6 302.5 314.3 310.0 316.0 313.1 314.6 316.8 315.1 319.7 317.1 322.5 316.6 321.1 320.9 321.9 323.5 325.8 325.9 322.8 327.2 325.0 329.1 325.4 331.4 323.1 332.0 320.8 332.8 319.3 335.7 319.2 338.3 317.7 338.8 319.0 342.7 318.2 343.8 313.0 341.4 311.2 340.8 Z" vector-effect="non-scaling-stroke" stroke="silver" stroke-width="1" class=" highcharts-name-bosnia-and herzegovina highcharts-key-ba"></path><path fill="#F8F8F8" d="M 226.1 334.1 L 225.8 334.3 225.5 334.3 225.9 333.8 226.1 334.1 Z" vector-effect="non-scaling-stroke" stroke="silver" stroke-width="1" class=" highcharts-name-monaco highcharts-key-mc"></path><path fill="#F8F8F8" d="M 342.2 359.8 L 342.1 359.8 342.0 359.6 342.1 359.7 342.2 359.8 M 339.0 358.0 L 339.4 359.8 340.1 359.9 340.9 359.6 342.0 359.6 341.8 359.8 342.2 360.1 342.2 360.1 341.9 361.1 342.3 360.8 342.2 361.2 343.0 361.9 342.8 362.1 343.0 362.0 340.7 369.2 338.0 370.8 339.0 372.5 337.3 374.9 335.8 374.6 333.9 370.7 330.4 369.3 330.0 366.5 328.3 364.6 329.6 361.4 327.9 355.9 329.1 353.6 328.9 351.0 327.0 350.8 326.7 349.6 326.7 348.1 327.5 347.4 326.6 345.4 328.6 341.3 329.9 343.3 331.8 342.2 333.5 344.4 336.0 345.4 337.1 349.2 336.6 352.9 339.0 358.0 M 326.4 345.8 L 326.4 345.9 326.3 345.9 326.4 345.8 Z" vector-effect="non-scaling-stroke" stroke="silver" stroke-width="1" class=" highcharts-name-albania highcharts-key-al"></path><path fill="#F8F8F8" d="M 474.3 396.2 L 474.4 396.2 473.6 396.6 473.2 396.6 473.3 396.5 473.8 396.3 474.3 396.2 M 460.8 399.4 L 460.9 399.3 461.1 399.4 461.3 399.0 461.4 399.0 461.5 399.0 461.3 399.5 460.8 399.4 M 461.8 398.9 L 461.8 398.9 462.0 398.9 463.5 399.6 468.2 396.6 471.3 397.6 471.3 397.6 471.6 397.6 471.7 398.0 469.4 398.7 468.5 397.0 463.3 399.9 461.8 398.9 Z" vector-effect="non-scaling-stroke" stroke="silver" stroke-width="1" class=" highcharts-name-cyprus-no mans area highcharts-key-cnm"></path><path fill="#F8F8F8" d="M 468.2 396.6 L 463.5 399.6 462.0 398.9 463.4 398.7 463.1 395.9 467.9 395.1 477.1 388.0 472.6 394.1 474.3 396.2 473.8 396.3 473.3 396.5 473.3 396.5 472.1 397.3 471.3 397.6 471.3 397.6 468.2 396.6 M 460.9 399.3 L 461.1 399.1 461.3 399.0 461.1 399.4 460.9 399.3 Z" vector-effect="non-scaling-stroke" stroke="silver" stroke-width="1" class=" highcharts-name-northern-cyprus highcharts-key-nc"></path><path fill="#F8F8F8" d="M 348.1 317.1 L 350.2 315.7 347.2 314.5 345.7 317.3 344.0 316.1 341.1 316.1 338.5 314.5 339.0 311.2 334.6 309.7 332.6 308.2 332.4 305.3 327.5 301.9 330.3 301.2 331.9 299.4 334.2 299.0 335.0 295.0 336.2 293.5 338.5 284.4 340.2 281.5 343.6 279.7 344.3 278.1 345.8 276.2 347.8 277.0 350.9 276.4 354.5 276.8 356.8 275.8 359.9 277.8 362.2 275.2 368.6 272.6 369.1 270.0 371.3 268.9 374.3 269.3 377.9 274.2 380.3 275.9 383.0 279.0 385.0 279.8 387.6 283.5 388.3 286.0 388.3 291.0 390.7 296.7 392.1 298.0 395.9 298.0 399.4 294.6 402.3 295.0 402.7 296.4 403.5 300.3 399.7 302.3 398.0 300.0 397.5 301.6 398.8 304.8 397.4 308.2 398.6 311.7 398.7 314.8 393.6 314.8 392.6 313.4 388.3 314.2 385.1 313.1 378.5 316.6 376.3 320.4 373.1 322.0 365.8 321.8 363.1 322.9 356.1 322.7 352.9 323.9 353.3 320.8 350.3 319.8 350.3 319.8 348.1 317.1 Z" vector-effect="non-scaling-stroke" stroke="silver" stroke-width="1" class=" highcharts-name-romania highcharts-key-ro"></path><path fill="#F8F8F8" d="M 348.1 317.1 L 350.3 319.8 348.4 322.9 348.4 325.0 350.4 328.5 354.7 330.9 353.3 334.8 351.5 335.3 351.4 338.8 352.4 340.5 351.3 341.8 350.4 341.3 344.8 343.6 345.7 338.6 342.4 338.3 339.4 334.7 336.9 333.2 333.7 338.6 329.8 335.9 327.1 335.6 323.1 332.0 325.4 331.4 325.0 329.1 322.8 327.2 325.8 325.9 321.9 323.5 321.1 320.9 322.5 316.6 319.7 317.1 319.7 313.9 322.3 313.4 318.9 311.5 318.7 309.3 317.1 306.7 317.3 305.3 320.1 304.4 322.1 302.0 327.5 301.9 332.4 305.3 332.6 308.2 334.6 309.7 339.0 311.2 338.5 314.5 341.1 316.1 344.0 316.1 345.7 317.3 347.2 314.5 350.2 315.7 348.1 317.1 Z" vector-effect="non-scaling-stroke" stroke="silver" stroke-width="1" class=" highcharts-name-republic-of serbia highcharts-key-rs"></path><path fill="#F8F8F8" d="M 323.1 332.0 L 327.1 335.6 329.8 335.9 333.7 338.6 331.2 340.2 331.8 342.2 329.9 343.3 328.6 341.3 326.6 345.4 326.4 345.6 326.4 345.8 326.3 345.9 324.5 346.3 326.7 348.1 326.7 349.6 327.0 350.8 320.1 344.8 318.9 345.3 318.4 344.7 318.2 343.8 319.0 342.7 317.7 338.8 319.2 338.3 319.3 335.7 320.8 332.8 323.1 332.0 Z" vector-effect="non-scaling-stroke" stroke="silver" stroke-width="1" class=" highcharts-name-montenegro highcharts-key-me"></path><path fill="#F8F8F8" d="M 243.5 294.6 L 244.3 296.4 244.0 296.9 243.2 296.8 243.5 294.6 Z" vector-effect="non-scaling-stroke" stroke="silver" stroke-width="1" class=" highcharts-name-liechtenstein highcharts-key-li"></path><path fill="#F8F8F8" d="M 244.0 296.9 L 244.3 296.4 243.5 294.6 244.5 292.9 243.8 291.8 244.7 291.9 245.0 291.4 246.8 291.6 249.6 294.1 250.4 291.1 253.2 291.7 254.7 293.1 256.8 293.0 259.6 290.8 263.7 290.5 263.8 289.3 266.3 290.1 268.3 289.6 270.4 291.5 269.9 287.5 267.9 284.5 272.8 281.4 273.5 279.0 275.0 279.7 275.6 276.9 277.7 278.7 280.5 278.0 282.3 278.5 283.8 276.4 284.1 273.6 286.2 273.8 292.1 275.8 295.1 275.2 298.4 275.7 299.0 276.9 298.6 279.7 301.2 283.5 300.3 285.2 301.0 286.9 297.4 286.8 298.0 290.1 296.4 291.4 297.3 295.3 294.4 297.1 293.9 299.1 291.0 299.0 289.7 300.3 285.0 300.8 282.7 303.5 281.6 302.8 276.1 302.2 272.4 302.1 265.9 300.7 263.5 297.4 257.4 297.6 255.0 300.1 250.7 299.1 250.0 297.6 248.1 299.3 246.1 297.4 244.0 296.9 Z" vector-effect="non-scaling-stroke" stroke="silver" stroke-width="1" class=" highcharts-name-austria highcharts-key-at"></path><path fill="#F8F8F8" d="M 301.2 283.5 L 298.6 279.7 299.0 276.9 300.4 273.9 303.2 274.2 306.9 271.1 307.4 268.4 309.7 265.8 311.8 265.3 314.4 266.2 316.1 263.7 318.9 267.8 321.2 267.9 322.8 265.2 325.5 264.6 327.5 265.5 329.6 263.5 333.7 263.6 335.5 265.2 339.6 266.1 338.7 270.5 337.9 274.0 335.0 275.3 332.3 273.1 330.2 274.3 327.6 273.8 325.4 274.6 324.6 277.5 321.6 279.7 319.5 278.9 318.6 280.3 313.9 281.7 314.0 284.0 306.7 285.8 302.7 283.5 301.2 283.5 Z" vector-effect="non-scaling-stroke" stroke="silver" stroke-width="1" class=" highcharts-name-slovakia highcharts-key-sk"></path><path fill="#F8F8F8" d="M 327.5 301.9 L 322.1 302.0 320.1 304.4 317.3 305.3 315.6 305.7 313.7 307.9 309.4 308.0 307.0 306.4 305.1 306.4 300.9 302.2 298.0 300.9 295.8 297.0 294.4 297.1 297.3 295.3 296.4 291.4 298.0 290.1 297.4 286.8 301.0 286.9 300.3 285.2 301.2 283.5 302.7 283.5 306.7 285.8 314.0 284.0 313.9 281.7 318.6 280.3 319.5 278.9 321.6 279.7 324.6 277.5 325.4 274.6 327.6 273.8 330.2 274.3 332.3 273.1 335.0 275.3 337.9 274.0 341.9 276.8 344.3 278.1 343.6 279.7 340.2 281.5 338.5 284.4 336.2 293.5 335.0 295.0 334.2 299.0 331.9 299.4 330.3 301.2 327.5 301.9 Z" vector-effect="non-scaling-stroke" stroke="silver" stroke-width="1" class=" highcharts-name-hungary highcharts-key-hu"></path><path fill="#F8F8F8" d="M 177.4 344.5 L 175.6 345.2 175.2 343.2 177.6 343.3 177.4 344.5 Z" vector-effect="non-scaling-stroke" stroke="silver" stroke-width="1" class=" highcharts-name-andorra highcharts-key-ad"></path><path fill="#F8F8F8" d="M 220.4 269.2 L 217.6 269.2 216.4 268.0 217.1 266.9 216.0 264.1 218.3 261.0 219.1 261.6 219.7 264.3 221.7 265.4 220.4 269.2 Z" vector-effect="non-scaling-stroke" stroke="silver" stroke-width="1" class=" highcharts-name-luxembourg highcharts-key-lu"></path><path fill="#F8F8F8" d="M 228.8 290.7 L 235.3 290.8 236.6 288.5 238.9 290.1 241.0 290.0 241.0 290.0 241.1 290.1 241.1 290.1 243.3 292.0 243.8 291.8 244.5 292.9 243.5 294.6 243.2 296.8 244.0 296.9 246.1 297.4 248.1 299.3 250.0 297.6 250.7 299.1 250.5 302.8 247.9 302.0 246.9 304.8 243.8 305.5 242.8 303.3 238.5 310.7 238.0 308.0 234.9 305.9 235.0 303.8 232.1 305.8 232.3 307.2 230.1 309.6 227.8 308.7 225.0 309.8 223.7 309.2 222.5 306.9 222.1 303.6 220.9 302.4 218.4 303.0 217.6 304.8 217.1 301.3 219.5 299.6 220.9 297.1 224.5 293.2 224.3 291.4 227.1 292.3 228.8 290.7 228.8 290.7 Z" vector-effect="non-scaling-stroke" stroke="silver" stroke-width="1" class=" highcharts-name-switzerland highcharts-key-ch"></path><path fill="#F8F8F8" d="M 219.1 261.6 L 218.3 261.0 216.0 264.1 217.1 266.9 216.4 268.0 214.1 268.4 210.4 264.7 209.4 262.6 210.1 260.8 206.8 262.9 204.7 262.3 205.4 259.2 204.2 258.1 201.6 258.1 201.6 256.7 199.0 255.5 198.3 252.7 195.8 253.0 194.5 251.5 194.3 248.7 198.8 246.5 200.4 246.1 200.6 247.6 202.4 247.2 204.3 248.3 206.5 246.7 207.1 247.8 206.8 246.7 208.5 245.6 212.2 245.9 213.5 248.4 215.3 248.2 217.7 249.9 216.4 254.2 218.6 254.5 220.9 257.6 221.1 259.5 219.1 261.6 Z" vector-effect="non-scaling-stroke" stroke="silver" stroke-width="1" class=" highcharts-name-belgium highcharts-key-be"></path><path fill="#F8F8F8" d="M 337.1 349.2 L 336.0 345.4 333.5 344.4 331.8 342.2 331.2 340.2 333.7 338.6 336.9 333.2 339.4 334.7 342.4 338.3 345.7 338.6 344.8 343.6 342.4 345.8 341.0 344.8 338.5 346.7 337.1 349.2 Z" vector-effect="non-scaling-stroke" stroke="silver" stroke-width="1" class=" highcharts-name-kosovo highcharts-key-kv"></path><path fill="#F8F8F8" d="M 342.2 360.1 L 342.3 360.1 342.2 360.1 342.2 360.1 M 351.3 341.8 L 353.2 343.6 356.0 344.4 358.0 347.5 358.0 351.9 356.7 354.1 352.1 355.0 349.9 356.1 347.5 359.2 343.6 359.9 342.0 358.3 342.2 359.8 342.1 359.7 342.0 359.6 342.0 359.6 340.9 359.6 340.1 359.9 340.5 357.4 339.0 358.0 336.6 352.9 337.1 349.2 338.5 346.7 341.0 344.8 342.4 345.8 344.8 343.6 350.4 341.3 351.3 341.8 Z" vector-effect="non-scaling-stroke" stroke="silver" stroke-width="1" class=" highcharts-name-macedonia highcharts-key-mk"></path><path fill="#F8F8F8" d="M 360.3 180.2 L 359.0 181.0 357.8 184.9 354.0 185.5 352.0 187.8 349.8 187.4 345.0 183.9 341.5 184.2 339.6 181.6 337.3 184.2 332.5 184.0 329.0 185.2 327.4 184.4 326.2 185.2 322.5 185.1 318.1 188.0 316.6 190.0 315.8 188.1 315.4 181.4 317.1 178.9 316.8 176.1 318.0 172.9 322.9 169.7 323.6 171.5 326.9 173.4 328.2 176.1 331.2 177.2 332.6 176.4 334.7 173.5 332.8 166.5 338.0 163.1 343.2 165.4 346.6 167.6 348.6 165.9 351.7 166.3 355.2 168.1 355.2 173.3 356.0 172.8 359.1 176.0 360.3 180.2 Z" vector-effect="non-scaling-stroke" stroke="silver" stroke-width="1" class=" highcharts-name-latvia highcharts-key-lv"></path><path fill="#F8F8F8" d="M 352.0 187.8 L 354.0 185.5 357.8 184.9 359.0 181.0 360.3 180.2 361.4 181.0 363.3 180.1 364.9 181.4 366.0 180.1 368.3 180.3 369.6 183.0 371.7 180.8 375.4 180.1 378.6 181.5 379.1 185.0 381.2 187.4 380.5 190.5 383.5 191.5 385.8 195.4 389.5 196.3 389.9 199.2 392.0 198.4 394.8 198.8 395.3 200.5 397.4 201.1 396.2 204.4 394.5 206.2 389.8 206.3 389.3 208.6 391.5 209.9 393.7 215.5 395.7 217.4 390.5 219.3 389.0 225.3 390.7 227.9 390.3 229.2 386.9 227.3 383.3 228.3 381.7 230.2 379.6 227.7 377.6 230.9 376.3 229.5 374.6 230.2 367.0 231.3 366.1 229.8 363.8 230.3 356.0 230.0 352.0 230.7 346.8 232.6 344.6 236.4 342.9 236.0 342.2 237.6 341.2 231.3 337.5 229.7 338.6 227.0 341.5 224.5 340.6 219.2 337.6 214.5 336.2 211.0 340.9 210.0 342.2 210.5 344.7 209.0 344.7 206.9 346.1 206.8 348.3 204.4 349.4 201.1 348.9 197.7 350.9 196.1 351.5 193.9 353.3 193.8 354.3 191.8 351.9 191.6 352.0 187.8 Z" vector-effect="non-scaling-stroke" stroke="silver" stroke-width="1" class=" highcharts-name-belarus highcharts-key-by"></path><path fill="#F8F8F8" d="M 390.7 296.7 L 388.3 291.0 388.3 286.0 387.6 283.5 385.0 279.8 383.0 279.0 380.3 275.9 377.9 274.2 374.3 269.3 371.3 268.9 372.6 267.1 375.1 266.9 377.2 265.0 379.0 264.8 382.0 266.5 387.6 266.5 389.2 268.2 391.5 268.3 391.7 272.2 394.6 274.4 395.5 273.6 396.7 277.7 399.9 278.4 400.7 281.6 402.4 282.8 400.7 283.7 397.3 282.9 395.8 284.9 394.9 283.0 393.5 284.3 395.0 289.2 392.3 294.0 392.8 295.7 390.7 296.7 Z" vector-effect="non-scaling-stroke" stroke="silver" stroke-width="1" class=" highcharts-name-moldova highcharts-key-md"></path><path fill="#F8F8F8" d="M 311.8 265.3 L 309.7 265.8 307.4 268.4 306.9 271.1 303.2 274.2 300.4 273.9 299.0 276.9 298.4 275.7 295.1 275.2 292.1 275.8 286.2 273.8 284.1 273.6 283.8 276.4 282.3 278.5 280.5 278.0 277.7 278.7 275.6 276.9 273.1 275.1 269.3 271.2 267.8 270.9 264.6 266.3 265.6 264.5 263.5 262.9 265.3 259.0 271.9 256.4 272.9 255.1 278.1 252.9 279.1 251.3 280.1 253.1 281.5 252.9 282.4 251.3 284.6 251.6 286.0 253.3 290.7 254.6 292.5 254.5 291.7 257.0 295.7 260.4 297.4 258.7 296.5 256.6 298.8 256.9 304.0 260.9 305.4 260.4 309.3 261.1 311.8 265.3 Z" vector-effect="non-scaling-stroke" stroke="silver" stroke-width="1" class=" highcharts-name-czech-republic highcharts-key-cz"></path></g></g><g class="highcharts-markers highcharts-tracker" visibility="visible"  transform="translate(10,61) scale(1 1)" style="" clip-path="none"></g></g><text x="292" text-anchor="middle" class="highcharts-title"  style="color:#333333;font-size:18px;fill:#333333;width:520px;" y="24"><tspan>Nordic countries</tspan></text><text x="292" text-anchor="middle" class="highcharts-subtitle"  style="color:#555555;fill:#555555;width:520px;" y="46"><tspan>Demo of drawing all areas in the map, only highlighting partial data</tspan></text><g class="highcharts-data-labels highcharts-tracker" visibility="visible"  transform="translate(10,61) scale(1 1)" clip-path="url(#highcharts-1)" style=""><g  style="" transform="translate(95,64)"><text x="0"  style="font-size: 11px; font-weight: bold; color: white; fill: #ffffff; text-shadow: rgb(0, 0, 0) 0px 0px 6px, rgb(0, 0, 0) 0px 0px 3px; " transform="translate(0,11)"><tspan>Iceland</tspan></text></g><g  style="" transform="translate(219,135)"><text x="0"  style="font-size: 11px; font-weight: bold; color: white; fill: #ffffff; text-shadow: rgb(0, 0, 0) 0px 0px 6px, rgb(0, 0, 0) 0px 0px 3px; " transform="translate(0,11)"><tspan>Norway</tspan></text></g><g  style="" transform="translate(263,93)"><text x="0"  style="font-size: 11px; font-weight: bold; color: white; fill: #ffffff; text-shadow: rgb(0, 0, 0) 0px 0px 6px, rgb(0, 0, 0) 0px 0px 3px; " transform="translate(0,11)"><tspan>Sweden</tspan></text></g><g  style="" transform="translate(311,107)"><text x="0"  style="font-size: 11px; font-weight: bold; color: white; fill: #ffffff; text-shadow: rgb(0, 0, 0) 0px 0px 6px, rgb(0, 0, 0) 0px 0px 3px; " transform="translate(0,11)"><tspan>Finland</tspan></text></g><g  style="" transform="translate(218,186)"><text x="0"  style="font-size: 11px; font-weight: bold; color: white; fill: #ffffff; text-shadow: rgb(0, 0, 0) 0px 0px 6px, rgb(0, 0, 0) 0px 0px 3px; " transform="translate(0,11)"><tspan>Denmark</tspan></text></g></g><g class="highcharts-axis-labels highcharts-xaxis-labels" ></g><g class="highcharts-axis-labels highcharts-yaxis-labels" ></g><g class="highcharts-tooltip"  style="cursor:default;padding:0;white-space:nowrap;" transform="translate(0,-9999)"><path fill="none" d="M 3 0 L 13 0 C 16 0 16 0 16 3 L 16 13 C 16 16 16 16 13 16 L 3 16 C 0 16 0 16 0 13 L 0 3 C 0 0 0 0 3 0"  stroke="black" stroke-opacity="0.0" stroke-width="5" transform="translate(1, 1)"></path><path fill="none" d="M 3 0 L 13 0 C 16 0 16 0 16 3 L 16 13 C 16 16 16 16 13 16 L 3 16 C 0 16 0 16 0 13 L 0 3 C 0 0 0 0 3 0"  stroke="black" stroke-opacity="0.0" stroke-width="3" transform="translate(1, 1)"></path><path fill="none" d="M 3 0 L 13 0 C 16 0 16 0 16 3 L 16 13 C 16 16 16 16 13 16 L 3 16 C 0 16 0 16 0 13 L 0 3 C 0 0 0 0 3 0"  stroke="black" stroke-opacity="0.1" stroke-width="1" transform="translate(1, 1)"></path><path fill="rgb(249, 249, 249)" fill-opacity=" .85" d="M 3 0 L 13 0 C 16 0 16 0 16 3 L 16 13 C 16 16 16 16 13 16 L 3 16 C 0 16 0 16 0 13 L 0 3 C 0 0 0 0 3 0"></path><text x="8"  style="font-size:12px;color:#333333;fill:#333333;" transform="translate(0,20)"></text></g></svg>