<svg version="1.1" style="font-family:&quot;lucida grande&quot;, &quot;lucida sans unicode&quot;, arial, helvetica, sans-serif;font-size:12px;" xmlns="http://www.w3.org/2000/svg" width="480" height="500" viewBox="0 0 480 500"><desc>Created with Highmaps 1.1.4</desc><defs><clipPath id="highcharts-1"><rect x="0" y="0" width="460" height="396"></rect></clipPath></defs><rect x="0" y="0" width="480" height="500" strokeWidth="0" fill="#FFFFFF" class=" highcharts-background" stroke="transparent"></rect><g class="highcharts-grid" ></g><g class="highcharts-grid" ></g><g class="highcharts-axis" ></g><g class="highcharts-axis" ></g><g class="highcharts-series-group" ><g class="highcharts-series highcharts-tracker" visibility="visible"  transform="translate(10,47) scale(1 1)" style="" clip-path="url(#highcharts-1)"><g transform="translate(0,0) scale(1 1)"><path fill="#7cb5ec" d="M 75.5 187.0 L 75.1 188.4 74.7 187.5 73.6 186.9 75.5 187.0 M 97.8 191.9 L 97.1 192.8 96.8 203.9 93.0 209.6 92.7 211.4 89.9 210.1 89.3 210.9 85.8 210.4 84.5 211.5 79.9 212.3 76.5 213.9 69.0 213.3 71.6 210.9 68.1 211.4 68.2 209.7 66.4 207.8 70.4 206.2 66.9 205.5 69.2 204.2 70.9 205.2 70.9 203.3 73.5 202.2 72.2 201.6 74.7 200.6 75.3 198.8 77.2 197.0 79.2 197.6 79.5 196.3 75.3 195.3 75.8 194.2 73.3 193.3 72.8 191.3 75.0 191.2 75.1 189.7 77.2 189.9 76.2 188.1 75.8 184.9 77.1 184.1 80.7 185.6 85.1 186.8 84.2 185.7 88.1 183.6 84.8 183.0 84.3 182.0 86.1 181.1 88.6 178.1 93.3 177.9 94.3 177.1 96.5 179.5 94.4 180.6 93.3 181.0 91.8 183.5 90.0 183.2 90.2 184.5 87.3 185.4 88.7 188.5 91.6 190.2 93.9 187.6 95.6 192.0 97.8 191.9 Z" vector-effect="non-scaling-stroke" stroke="silver" stroke-width="1" class=" highcharts-name-ireland highcharts-key-ie"></path><path fill="#7cb5ec" d="M 84.9 50.1 L 87.1 50.6 87.8 52.5 87.1 53.5 88.2 55.5 89.0 54.4 91.4 53.9 92.2 54.5 90.2 54.9 89.1 57.0 90.8 57.5 90.7 58.7 88.9 60.6 90.8 61.3 92.6 64.3 93.4 64.7 91.9 66.5 92.6 67.3 91.4 70.0 90.0 68.5 90.7 70.6 89.0 72.0 86.8 72.0 85.4 74.6 81.1 74.6 78.0 74.9 75.8 76.1 72.2 76.6 71.4 76.1 68.2 76.5 66.9 77.7 63.0 77.5 60.7 76.0 59.0 74.1 57.2 73.2 56.4 70.6 54.4 68.1 49.3 65.8 47.6 65.4 48.9 62.9 49.0 64.3 50.7 64.6 53.6 63.6 52.8 63.1 54.5 61.9 52.4 61.9 53.9 60.4 52.6 59.1 53.6 57.3 48.6 54.1 46.9 53.8 47.1 52.4 53.3 54.1 54.8 54.1 57.1 55.4 58.0 53.9 56.5 54.3 54.6 52.7 58.5 51.6 57.0 50.8 56.5 48.9 55.5 49.1 54.0 47.5 50.3 47.7 50.3 47.0 48.2 45.4 50.7 45.0 51.6 43.6 53.5 46.5 52.8 44.5 53.6 42.1 55.9 40.9 56.7 42.8 58.5 45.0 59.3 44.1 58.0 42.5 58.3 39.3 60.7 40.1 62.1 43.1 63.4 47.1 63.0 48.5 60.8 51.0 61.3 52.8 60.9 54.6 63.2 51.7 64.6 51.2 64.5 53.5 66.6 51.4 67.4 47.8 68.9 47.9 69.2 52.4 69.9 53.1 70.5 50.7 71.7 49.7 72.8 50.3 74.3 49.4 75.2 52.4 75.4 54.0 76.4 50.6 77.8 51.5 78.4 53.9 80.9 52.2 81.8 53.2 83.8 53.4 84.9 50.1 Z" vector-effect="non-scaling-stroke" stroke="silver" stroke-width="1" class=" highcharts-name-iceland highcharts-key-is"></path><path fill="#7cb5ec" d="M 114.4 247.1 L 114.9 248.1 113.5 247.7 113.6 247.0 114.4 247.1 M 122.5 232.3 L 123.9 233.4 122.1 234.2 121.0 233.1 122.5 232.3 M 106.3 202.6 L 106.6 201.4 108.4 201.7 109.6 203.0 107.4 204.4 106.3 202.6 M 107.7 179.6 L 106.5 178.9 106.9 176.8 108.0 177.1 107.7 179.6 M 102.9 174.3 L 103.0 176.0 101.6 175.9 100.9 173.8 102.9 173.2 102.9 174.3 M 105.7 171.4 L 105.5 172.3 103.6 174.8 103.2 173.5 105.7 171.4 M 99.9 167.0 L 99.4 166.3 100.9 166.2 100.0 166.7 99.9 167.0 M 102.0 165.9 L 101.2 165.8 102.0 165.3 102.9 165.1 102.0 165.9 M 98.4 160.8 L 97.8 161.1 97.3 160.9 98.1 160.2 98.4 160.8 M 104.7 162.0 L 104.3 162.7 103.6 161.9 104.5 161.5 104.7 162.0 M 99.6 156.5 L 100.2 157.9 98.9 159.7 98.6 158.1 99.6 156.5 M 100.2 155.8 L 100.5 156.6 100.0 156.6 99.4 156.1 100.2 155.8 M 101.2 153.6 L 101.0 155.7 99.1 154.3 99.6 153.8 101.2 153.6 M 127.2 147.1 L 126.7 148.0 126.4 146.9 126.9 146.9 127.2 147.1 M 125.4 146.0 L 125.6 146.9 124.9 147.1 124.3 146.0 125.4 146.0 M 126.3 143.5 L 128.4 146.2 125.7 145.8 125.0 144.6 126.3 143.5 M 127.1 143.2 L 127.3 143.8 126.8 143.7 126.7 143.1 127.1 143.2 M 130.7 142.7 L 129.9 143.2 129.5 143.0 129.7 142.7 130.7 142.7 M 127.8 141.6 L 128.1 142.6 127.4 142.4 127.1 141.6 127.8 141.6 M 141.2 130.2 L 141.3 130.6 140.8 130.6 140.6 130.0 141.2 130.2 M 138.9 134.5 L 137.6 137.5 137.2 137.1 138.3 133.7 137.2 134.5 136.4 132.7 139.6 131.8 138.9 134.5 M 140.1 128.7 L 140.5 128.8 139.9 131.2 139.3 131.0 140.1 128.7 M 141.7 128.3 L 141.3 129.4 140.6 129.3 141.2 127.7 141.7 128.3 M 111.9 244.8 L 111.0 244.7 111.1 244.4 112.2 243.9 111.9 244.8 M 107.9 194.2 L 106.7 194.2 108.9 191.4 110.0 192.5 107.9 194.2 M 94.4 180.6 L 96.4 179.7 99.3 179.8 101.4 180.7 102.5 186.2 103.5 187.1 101.8 190.1 99.1 192.8 97.8 191.9 95.6 192.0 93.9 187.6 91.6 190.2 88.7 188.5 87.3 185.4 90.2 184.5 90.0 183.2 91.8 183.5 93.3 181.0 94.4 180.6 M 63.0 379.6 L 62.9 379.9 62.8 379.6 63.0 379.6 M 402.5 377.4 L 401.6 377.4 400.3 377.9 400.7 377.2 402.5 377.4 M 408.9 371.5 L 408.6 371.8 407.9 371.6 407.7 371.5 407.9 371.6 407.7 371.6 407.2 371.9 407.2 371.9 407.2 371.7 407.1 371.4 406.8 371.3 406.8 371.3 407.6 371.1 408.6 370.3 408.6 370.3 408.6 370.4 407.8 370.9 408.9 371.5 M 407.5 371.4 L 407.5 371.3 407.4 371.4 407.5 371.4 407.5 371.4 M 137.4 228.1 L 138.3 228.4 141.2 228.3 140.5 231.0 132.8 234.0 130.0 232.8 125.6 233.2 125.2 232.1 118.1 232.4 117.7 233.4 114.5 233.0 112.1 230.9 109.4 231.1 107.6 232.1 106.0 235.2 102.9 233.0 98.9 232.7 96.6 233.6 95.2 235.9 94.1 233.1 99.2 229.9 101.2 228.0 101.8 225.9 103.0 226.4 104.7 224.4 107.2 224.5 112.0 226.0 112.3 224.8 114.9 222.2 113.0 222.2 111.3 223.7 109.0 223.2 107.4 220.5 104.5 220.7 104.3 218.4 100.4 219.4 98.9 215.6 102.0 215.2 106.6 213.4 108.0 210.8 108.5 206.9 104.1 207.4 108.8 203.6 115.1 203.2 117.5 199.8 117.2 197.7 118.9 195.9 117.7 194.7 116.2 195.6 114.6 191.0 116.8 187.4 118.0 186.9 115.9 186.1 115.5 187.3 113.1 187.9 110.8 186.0 110.5 188.4 108.0 185.9 107.5 188.3 106.4 185.7 107.7 182.8 110.8 179.7 109.5 177.1 110.8 174.7 110.7 173.0 109.5 175.4 108.9 175.2 109.0 176.8 108.5 176.1 108.3 175.0 107.4 174.7 106.0 177.1 105.3 179.8 103.5 180.1 105.5 175.7 105.5 173.3 107.1 171.5 106.3 170.9 107.6 169.2 109.7 166.3 106.9 168.1 105.1 166.2 106.8 169.1 102.6 169.5 104.1 167.7 103.4 166.1 105.0 166.1 104.2 165.3 106.4 165.3 106.6 163.8 109.1 160.1 108.1 159.1 108.4 156.7 109.3 157.4 109.2 154.0 111.9 153.5 113.2 154.6 111.7 152.0 115.4 146.9 117.0 148.0 121.7 148.8 124.0 148.3 126.1 148.9 124.4 152.1 118.9 155.0 120.3 156.5 117.1 159.4 121.0 158.7 121.7 158.0 123.9 158.9 130.3 159.9 131 162.2 129.5 163.6 127.3 168.1 125.0 170.8 122.7 171.7 124.2 173.8 121.8 174.2 120.3 175.5 117.9 175.5 120.6 176.7 122.5 175.8 126.0 178.0 127.4 181.3 128.5 182.0 128.4 186.4 129.1 190.7 130.0 192.5 133.0 194.5 133.7 196.8 135.5 198.7 134.5 199.5 136.1 203.8 134.1 203.8 136.0 205.5 136.5 209.7 134.2 211.6 136.4 212.9 137.8 211.2 142.2 212.1 144.4 214.0 144.8 217.1 143.1 221.2 138.9 223.4 137.9 226.1 135.1 226.3 135.6 227.4 137.1 228.0 137.0 227.2 137.8 227.6 138.0 228.1 137.4 228.1 M 106.7 159.0 L 106.9 159.5 108.8 160.2 106.2 162.2 106.5 160.4 104.8 160.4 102.9 156.8 105.3 156.7 106.1 154.8 106.2 158.1 106.7 158.9 106.9 157.7 107.5 157.1 107.0 158.2 106.7 159.0 M 103.5 148.3 L 104.7 149.0 104.7 148.2 108.2 146.6 108.4 148.4 106.8 149.5 106.7 151.3 102.5 153.6 102.0 152.7 103.8 151.8 102.4 150.9 103.5 148.3 Z" vector-effect="non-scaling-stroke" stroke="silver" stroke-width="1" class=" highcharts-name-united-kingdom highcharts-key-gb"></path><path fill="#7cb5ec" d="M 47.9 364.4 L 44.3 365.4 37.5 362.5 34.1 362.7 37.1 358.3 39.6 349.2 38.7 347.3 36.4 347.7 36.7 345.0 34.9 344.0 37.7 338.6 41.0 334.9 48.0 322.2 48.3 314.0 49.9 311.9 54.5 311.1 55.1 312.5 53.9 314.7 57.7 314.7 61.2 315.9 62.3 314.9 66.7 316.6 66.1 318.5 68.6 320.9 65.7 323.2 61.5 325.3 61.9 327.3 61.0 332.5 58.6 333.8 59.5 335.9 57.4 339.0 53.2 338.0 54.6 340.8 54.9 344.7 56.2 346.2 53.1 348.5 51.6 351.3 53.3 356.5 51.1 356.4 47.9 360.2 47.9 364.4 Z" vector-effect="non-scaling-stroke" stroke="silver" stroke-width="1" class=" highcharts-name-portugal highcharts-key-pt"></path></g></g><g class="highcharts-markers highcharts-tracker" visibility="visible"  transform="translate(10,47) scale(1 1)" style="" clip-path="none"></g><g class="highcharts-series highcharts-tracker" visibility="visible"  transform="translate(10,47) scale(1 1)" style="" clip-path="url(#highcharts-1)"><g transform="translate(0,0) scale(1 1)"><path fill="#434348" d="M 208.4 122.4 L 210.8 124.3 212.2 126.1 211.4 129.7 209.2 130.4 211.1 135.2 210.8 139.5 208.9 141.9 208.8 141.9 207.4 142.2 207.7 143.3 206.5 145.5 207.3 148.8 206.6 152.3 205.4 151.6 205.0 150.4 202.0 149.8 200.1 146.1 200.0 148.9 197.3 152.0 195.8 152.0 189.2 159.3 187.0 160.9 183.9 161.7 180.7 161.5 178.1 160.4 179.1 159.3 175.3 157.4 173.8 155.9 172.7 153.4 173.3 150.4 175.8 152.0 175.0 150.0 177.2 148.1 176.3 146.7 173.0 147.8 171.6 145.3 173.4 143.0 174.7 143.7 175.6 142.9 174.3 141.8 176.1 140.8 177.1 138.1 179.5 135.6 177.4 136.7 174.6 139.8 174.1 137.7 172.3 137.9 173.0 134.6 173.5 135.0 173.1 134.4 175.0 133.1 175.1 132.3 172.9 134.2 171.2 131.5 171.8 128.9 173.9 129.3 176.4 128.4 178.3 129.3 177.8 127.9 173.7 128.7 172.0 127.1 171.8 125.0 173.9 123.7 172.1 122.7 172.1 121.6 174.2 120.0 176.0 120.8 180.0 121.2 174.5 119.6 173.5 116.6 175.3 116.8 175.4 115.9 176.2 115.9 176.5 116.9 176.1 116.9 177.2 117.0 177.8 115.9 181.2 114.5 179.2 114.3 179.4 112.7 180.8 113.3 183.2 112.4 185.3 113.7 185.3 112.3 182.6 111.6 182.4 109.4 184.2 108.6 185.3 109.7 187.6 109.1 188.2 107.7 189.3 110.2 190.8 110.2 188.6 107.7 190.4 107.5 190.4 107.1 189.9 107.2 189.1 106.4 190.2 106.3 190.3 106.5 190.1 105.8 191.9 104.3 193.9 105.1 193.5 103.5 196.1 102.1 198.0 105.5 198.9 104.0 201.4 104.5 200.7 103.1 202.4 101.2 204.5 100.3 202.7 99.4 204.6 98.0 202.0 98.8 202.6 100.0 199.5 102.8 197.1 103.5 196.5 101.6 195.3 100.7 198.4 98.9 197.2 98.7 198.3 96.1 201.6 93.1 201.9 91.7 203.9 93.9 204.5 92.0 203.9 90.6 206.0 89.5 203.2 89.4 203.9 88.3 209.3 85.9 208.1 84.4 209.4 82.8 209.0 80.9 208.0 80.4 209.8 76.8 210.8 75.6 210.1 75.0 212.0 73.1 211.3 71.9 211.5 69.5 212.7 67.5 213.8 67.4 212.9 66.1 215.5 65.5 216.0 63.5 217.7 62.8 218.3 63.5 219.3 61.6 217.3 62.8 215.8 62.6 217.3 59.8 220.7 56.7 219.8 56.2 218.3 56.9 217.3 56.1 221.5 54.0 221.0 53.8 220.4 53.7 219.2 53.6 220.0 52.5 222.4 51.9 222.3 53.5 223.3 55.0 223.8 51.2 222.6 50.3 224.6 49.1 225.2 50.0 228.0 48.5 227.9 47.4 226.0 48.7 223.9 48.8 224.1 46.6 228.1 43.4 227.0 43.4 227.8 41.2 229.2 40.2 228.8 38.9 229.7 36.6 231.1 38.5 232.3 38.0 230.4 37.0 230.4 36.1 232.1 35.5 232.4 33.5 234.9 32.4 235.5 34.3 236.2 30.6 237.2 31.1 237.1 36.4 238.0 34.5 237.8 32.4 240.1 30.8 240.7 29.0 243.0 30.9 242.3 28.4 239.6 27.1 240.9 25.8 241.2 25.7 241.2 26.0 241.5 26.2 241.5 25.7 243.4 25.5 246.2 26.0 246.8 27.9 248.1 28.6 248.7 27.7 247.2 27.1 247.9 23.9 249.7 21.5 251.0 18.6 250.7 16.4 253.7 17.1 255.6 16.7 253.3 21.3 253.9 20.9 254.2 23.3 253.6 24.3 254.5 25.8 255.5 23.1 255.0 22.9 256.4 19.2 257.1 16.2 258.0 15.0 258.7 18.5 258.9 21.6 260.5 18.2 260.2 17.0 261.3 15.5 259.7 15.0 261.1 14.3 260.8 12.7 264.5 13.1 263.8 16.1 262.4 18.0 264.5 16.3 263.4 19.1 265.1 19.5 265.2 15.9 265.7 14.0 268.2 14.4 268.3 15.4 270.5 14.6 275.7 18.0 273.9 19.0 273.0 21.3 267.6 21.7 267.2 22.3 271.6 22.9 272.3 25.4 274.1 24.3 273.7 23.3 276.4 23.4 277.3 26.3 274.9 26.0 274.3 29.2 272.4 30.6 272.5 32.5 271.6 33.7 270.8 31.8 271.9 28.6 270.4 26.6 267.4 25.9 264.8 23.5 262.3 26.1 260.0 26.4 258.8 29.3 258.9 35.0 259.6 36.8 259.3 38.3 257.7 39.5 257.8 41.4 256.9 42.5 256.0 41.5 252.7 40.5 252.2 41.7 250.3 43.2 249.4 42.6 247.0 42.7 246.6 41.6 243.0 37.2 241.6 37.1 240.7 38.5 241.0 40.0 239.4 40.3 237.4 40.8 238.5 41.9 238.5 44.7 237.6 46.1 238.8 46.6 237.7 48.2 233.9 47.0 230.4 47.1 230.8 51.2 230.0 53.4 227.4 52.1 225.6 54.5 224.6 58.5 223.2 60.1 224.7 62.4 224.8 64.0 223.4 65.9 221.1 70.4 221.5 72.8 219.7 74.2 217.4 74.7 218.1 77.7 217.9 83.4 217.1 86.0 214.4 91.6 216.6 93.0 217.0 95.5 216.1 97.7 212.7 97.0 210.2 98.5 207.9 102.4 208.1 104.0 207.1 105.8 208.3 108.8 207.8 109.7 207.8 113.3 209.1 117.0 208.4 122.4 M 221.8 53.7 L 221.6 53.9 222.0 53.7 221.8 53.7 M 174.6 135.4 L 174.1 135.5 174.5 135.8 174.6 135.4 M 175.8 148.5 L 175.4 148.3 175.6 147.9 176.4 148.1 175.8 148.5 M 171.9 147.6 L 171.9 148.9 171.3 148.6 171.6 146.3 171.9 147.6 M 172.0 141.9 L 172.5 142.8 171.2 142.5 171.4 141.5 172.0 141.9 M 173.5 142.3 L 172.4 142.3 172.2 141.1 173.1 140.8 173.5 142.3 M 174.5 139.6 L 174.3 141.2 173.6 141.3 173.4 139.6 174.5 139.6 M 172.4 139.3 L 172.4 140.2 171.9 139.6 172.1 139.0 172.4 139.3 M 171.7 136.7 L 171.7 137.9 170.9 136.9 171.1 135.3 171.7 136.7 M 171.5 134.5 L 172.1 134.8 172.3 135.7 171.3 134.7 171.5 134.5 M 171.2 127.9 L 171.7 128.2 170.7 128.7 170.8 127.7 171.2 127.9 M 172.1 119.9 L 173.0 120.4 171.9 121.1 171.3 120.4 172.1 119.9 M 172.8 118.8 L 173.2 118.9 172.8 119.6 172.4 118.5 172.8 118.8 M 175.7 115.5 L 176.4 115.2 176.3 115.6 175.3 115.4 175.7 115.5 M 178.0 115.4 L 177.0 116.4 176.7 115.2 177.4 114.6 178.0 115.4 M 178.8 114.5 L 179.3 114.9 178.1 114.8 177.8 114.5 178.8 114.5 M 182.3 111.5 L 182.3 111.9 181.1 112.3 181.2 111.5 182.3 111.5 M 181.9 110.2 L 182.4 110.2 182.2 111.1 181.8 110.7 181.9 110.2 M 187.4 108.0 L 186.8 108.6 186.2 108.2 186.5 107.8 187.4 108.0 M 186.2 108.6 L 185.4 109.4 184.9 108.2 185.7 108.6 186.2 108.6 M 189.3 107.1 L 188.8 107.1 188.7 106.5 189.0 106.5 189.3 107.1 M 188.7 107.2 L 187.9 107.4 187.5 106.9 188.2 106.3 188.7 107.2 M 188.4 105.2 L 186.9 104.8 187.9 103.8 188.8 104.7 188.4 105.2 M 192.9 102.3 L 193.2 103.2 190.3 104.3 189.2 103.9 190.6 102.5 192.9 102.3 M 191.8 100.3 L 191.9 101.2 191.5 101.6 189.5 101.7 191.8 100.3 M 203.8 91.4 L 204.3 91.9 204.2 92.4 203.8 92.1 203.8 91.4 M 203.2 91.6 L 204.1 93.1 203.0 92.8 202.5 91.2 203.2 91.6 M 203.7 91.2 L 203.6 91.7 203.0 91.0 203.5 90.8 203.7 91.2 M 203.0 88.4 L 202.4 88.5 201.3 89.0 202.5 88.0 203.0 88.4 M 201.2 88.9 L 200.9 89.1 201.1 88.3 202.6 87.7 201.2 88.9 M 205.6 86.2 L 204.6 87.0 204.4 86.8 204.7 86.2 205.6 86.2 M 207.8 85.7 L 207.3 86.7 206.6 86.6 207.4 85.0 207.8 85.7 M 208.3 81.8 L 208.7 83.1 206.9 85.0 207.1 83.5 208.3 81.8 M 206.2 79.8 L 206.1 81.0 205.4 80.7 205.7 79.9 206.2 79.8 M 209.6 76.7 L 208.5 77.8 208.0 77.7 208.4 76.7 209.6 76.7 M 208.9 74.5 L 209.2 75.2 208.7 75.8 207.6 76.3 208.9 74.5 M 209.8 73.1 L 210.1 73.7 209.6 74.0 209.4 73.6 209.8 73.1 M 210.4 71.7 L 210.2 72.5 209.7 72.3 209.7 71.6 210.4 71.7 M 215.5 64.0 L 215.4 65.2 214.5 64.5 214.7 63.8 215.5 64.0 M 216.0 60.6 L 216.0 60.9 215.3 61.1 215.8 60.4 216.0 60.6 M 218.8 54.4 L 219.3 54.8 218.0 55.1 218.0 54.4 218.8 54.4 M 210.2 53.9 L 210.4 55.1 209.1 56.7 209.7 54.2 210.2 53.9 M 211.4 53.9 L 210.8 54.7 210.6 53.9 211.6 53.1 211.4 53.9 M 217.4 51.5 L 217.0 51.5 217.4 50.9 217.7 51.1 217.4 51.5 M 214.7 50.9 L 214.6 51.6 214.4 51.1 214.0 50.7 214.7 50.9 M 213.7 51.4 L 214.0 52.4 212.4 53.7 211.8 51.8 213.7 51.4 M 218.4 49.3 L 216.9 51.3 214.7 52.7 216.3 49.5 218.4 49.3 M 223.4 49.0 L 222.2 49.4 222.4 48.1 223.1 47.8 223.4 49.0 M 216.7 48.7 L 216.0 48.1 217.6 48.1 217.2 48.7 216.7 48.7 M 225.9 45.1 L 224.9 45.6 224.8 45.0 225.4 44.0 225.9 45.1 M 226.2 43.9 L 226.2 43.3 227.1 43.8 226.3 44.7 226.2 43.9 M 217.2 44.5 L 216.8 44.4 216.9 44.0 217.2 44.0 217.2 44.5 M 222.9 43.0 L 223.5 43.0 223.6 43.9 222.3 43.1 222.9 43.0 M 218.1 43.8 L 218.9 46.8 217.9 47.8 215.0 46.7 217.5 45.4 217.3 43.3 218.1 43.8 M 226.8 42.4 L 226.5 42.0 226.9 41.4 227.3 41.7 226.8 42.4 M 220.5 42.7 L 219.0 43.4 219.5 41.8 221.4 39.3 221.4 41.2 220.5 42.7 M 231.2 32.0 L 232.2 33.4 231.6 35.2 229.2 36.2 229.0 34.2 229.5 33.2 231.2 33.1 231.2 32.0 M 238.3 31.9 L 237.9 32.0 237.7 30.9 238.3 30.7 238.3 31.9 M 273.3 23.9 L 273.5 24.1 272.3 25.1 272.5 23.3 273.3 23.9 M 234.5 31.8 L 233.8 32.1 233.8 31.2 235.0 30.5 234.5 31.8 M 239.1 29.2 L 239.6 29.4 239.1 30.2 238.3 29.7 239.1 29.2 M 232.4 29.7 L 233.9 30.4 233.4 32.2 232.5 32.9 230.7 31.3 232.4 29.7 M 230.8 30.0 L 231.5 29.8 230.6 30.9 230.4 29.5 230.8 30.0 M 238.7 28.7 L 238.4 28.9 238.3 28.0 238.7 28.4 238.7 28.7 M 233.6 29.3 L 232.9 29.2 232.9 28.7 233.1 28.7 233.6 29.3 M 238.2 28.4 L 237.6 29.3 236.8 28.7 237.3 27.2 238.2 28.4 M 232.1 27.7 L 232.3 29.0 231.9 29.3 231.5 28.9 232.1 27.7 M 233.9 27.5 L 234.5 28.3 235.8 28.8 234.7 29.5 233.9 27.5 M 244.8 24.3 L 246.2 25.5 244.1 25.5 244.1 24.4 244.8 24.3 M 247.3 21.2 L 248.2 22.7 247.5 24.5 246.5 25.1 245.4 23.4 247.3 21.2 M 248.3 20.0 L 249.6 20.7 248.4 22.0 247.7 20.1 248.3 20.0 M 246.5 18.7 L 246.4 20.6 245.2 22.5 242.6 23.5 243.1 21.0 244.8 21.3 246.5 18.7 M 248.5 16.4 L 248.8 17.5 248.1 17.2 248.1 16.3 248.5 16.4 M 250.9 15.0 L 251.0 15.8 250.4 15.5 250.6 14.9 250.9 15.0 M 253.9 13.6 L 256.1 14.9 253.9 16.2 252.8 15.2 253.9 13.6 M 133.1 11.5 L 132.5 13.0 129.8 13.4 128.5 14.5 128.1 13.7 130.7 12.7 131.7 11.5 133.1 11.5 M 221.7 49.5 L 220.8 49.2 220.4 50.6 218.4 50.6 218.6 47.9 219.6 47.0 219.2 45.1 219.9 43.5 220.9 43.3 220.9 45.3 221.9 45.6 222.3 43.8 223.8 45.9 223.6 47.7 222.0 47.9 221.7 49.5 M 224.5 38.1 L 226.3 38.1 225.7 37.1 227.2 37.1 227.8 35.6 228.7 36.6 228.8 40.1 224.4 42.0 225.4 39.0 224.5 38.1 Z" vector-effect="non-scaling-stroke" stroke="silver" stroke-width="1" class=" highcharts-name-norway highcharts-key-no"></path><path fill="#434348" d="M 237.8 167.1 L 237.9 168.3 235.1 179.1 234.7 175.8 236.2 172.0 237.2 167.5 237.8 167.1 M 249.1 158.9 L 249.8 159.1 248.2 160.0 248.4 159.2 249.1 158.9 M 207.2 161.4 L 206.8 162.4 206.1 162.5 206.0 161.6 207.2 161.4 M 243.5 148.2 L 243.3 148.8 242.9 148.6 243.5 147.6 243.5 148.2 M 243.6 145.8 L 243.7 146.1 243.6 146.4 242.6 145.8 243.6 145.8 M 244.1 143.1 L 243.6 144.3 243.3 143.7 243.6 143.1 244.1 143.1 M 245.0 142.2 L 245.3 141.7 245.3 142.4 244.9 142.3 245.0 142.2 M 241.7 133.5 L 242.5 135.0 241.6 134.4 241.4 133.0 241.7 133.5 M 249.2 96.9 L 249.3 97.5 249.2 97.7 248.9 96.6 249.2 96.9 M 208.4 122.4 L 209.1 117.0 207.8 113.3 207.8 109.7 208.3 108.8 207.1 105.8 208.1 104.0 207.9 102.4 210.2 98.5 212.7 97.0 216.1 97.7 217.0 95.5 216.6 93.0 214.4 91.6 217.1 86.0 217.9 83.4 218.1 77.7 217.4 74.7 219.7 74.2 221.5 72.8 221.1 70.4 223.4 65.9 224.8 64.0 224.7 62.4 223.2 60.1 224.6 58.5 225.6 54.5 227.4 52.1 230.0 53.4 230.8 51.2 230.4 47.1 233.9 47.0 237.7 48.2 238.8 46.6 237.6 46.1 238.5 44.7 238.5 41.9 237.4 40.8 239.4 40.3 240.7 40.9 243.3 43.6 246.1 45.5 249.2 45.9 251.1 48.5 253.5 50.2 253.0 50.9 253.8 54.0 253.5 55.2 255.0 55.7 254.8 58.7 257.3 62.0 257.3 64.7 256.5 66.3 257.3 68.7 258.9 70.1 260.0 72.4 259.2 73.3 256.6 73.1 255.8 74.4 253.5 73.2 252.0 75.3 252.9 76.9 249.9 75.8 251.9 77.0 250.5 77.3 251.1 78.6 249.1 79.1 250.2 80.1 250.1 81.6 248.7 85.3 248.1 85.5 250.7 89.1 248.8 92.9 248.4 95.8 247.2 96.5 246.5 98.5 245.4 98.5 243.9 101.2 241.9 101.2 241.1 104.3 239.3 104.9 238.3 107.2 238.8 108.0 237.0 109.2 237.0 109.8 237.1 109.4 237.5 109.4 237.3 110.1 237.0 110.1 237.0 110.8 235.6 113.0 234.2 112.0 233.8 113.5 234.9 115.4 234.4 118.3 234.9 120.7 233.3 122.4 234.0 123.3 234.5 128.6 235.5 131.1 237.4 133.3 239.2 133.2 244.1 136.9 245.8 139.7 242.7 143.7 240.7 144.8 244.4 145.5 242.2 145.6 243.2 147.4 239.8 150.1 239.5 149.5 239.5 150.1 239.2 150.1 239.1 148.8 238.9 148.4 239.0 150.8 235.6 153.7 235.8 155.1 234.8 160.5 233.5 161.6 235.5 165.9 234.5 169.2 235.3 170.5 231.9 180.9 230.2 179.8 228.8 180.6 225.0 180.8 225.6 182.0 223.9 182.1 222.4 184.4 223.5 187.4 222.5 188.9 220.7 188.6 217.2 189.7 215.2 188.9 215.7 186.3 214.9 185.5 212.2 180.1 213.9 180.5 212.8 178.5 214.3 178.1 214.2 176.1 211.2 173.4 209.2 167.7 208.5 168.7 208.4 166.0 207.0 163.7 207.4 160.7 206.0 161.1 205.5 160.4 207.5 159.4 207.5 159.8 207.7 158.6 205.9 159.1 205.3 157.5 204.3 158.5 204.6 155.9 203.6 151.9 204.2 150.5 205.4 151.6 206.6 152.3 207.3 148.8 206.5 145.5 207.7 143.3 208.8 141.9 210.8 139.5 211.1 135.2 209.2 130.4 211.4 129.7 212.2 126.1 208.4 122.4 M 245.1 161.4 L 246.8 160.8 248.5 160.7 247.1 161.9 247.4 164.9 248.2 165.2 245.5 168.5 245.2 170.5 243.7 167.3 243.5 164.7 245.1 161.4 Z" vector-effect="non-scaling-stroke" stroke="silver" stroke-width="1" class=" highcharts-name-sweden highcharts-key-se"></path><path fill="#434348" d="M 205.1 194.2 L 207.2 195.6 208.0 195.0 208.3 197.3 206.5 197.6 203.6 195.9 205.1 194.2 M 199.6 194.8 L 200.7 195.3 199.8 195.5 198.8 194.4 199.6 194.8 M 212.9 193.5 L 211.0 194.7 210.4 194.0 211.6 193.2 212.9 193.5 M 196.2 192.9 L 197.7 194.2 197.3 195.2 196.4 194.8 196.2 192.9 M 202.6 194.4 L 201.9 196.5 201.4 195.4 203.3 192.1 202.6 194.4 M 226.9 190.3 L 228.5 191.2 228.1 192.8 225.7 191.7 226.1 189.6 226.9 190.3 M 188.0 189.0 L 188.3 189.2 188.2 190.1 187.7 189.2 188.0 189.0 M 199.5 187.3 L 202.3 190.0 201.9 192.9 198.7 192.8 196.8 191.1 195.6 188.5 199.5 187.3 M 212.9 187.7 L 212.5 187.0 213.0 186.1 213.4 187.1 212.9 187.7 M 201.2 184.5 L 201.2 185.4 200.6 185.4 201.0 184.3 201.2 184.5 M 191.2 173.1 L 191.0 174.7 189.7 176.0 189.1 174.8 191.2 173.1 M 204.3 169.2 L 203.6 169.6 203.4 170.5 202.4 169.8 204.3 169.2 M 190.4 194.7 L 189.4 194.8 189.2 189.0 186.1 187.7 186.8 185.1 188.0 184.2 186.4 181.8 186.6 177.3 189.2 177.0 191.5 174.7 193.3 176.5 192.7 173.8 194.3 172.4 195.3 172.9 196.3 171.6 193.3 172.6 192.4 172.0 189.9 173.1 188.7 174.9 189.0 176.9 187.3 174.9 189.6 171.3 194.1 170.9 197.3 166.5 200.9 164.7 199.9 166.7 200.6 170.2 199.0 173.6 199.6 177.3 202.1 177.5 203.1 178.5 200.6 182.1 199.9 180.1 198.8 181.7 198.9 184.1 196.9 185.0 197.9 185.9 194.5 188.6 195.8 191.1 194.5 192.0 195.9 193.9 194.1 195.7 194.1 195.7 190.4 194.7 M 207.3 184.1 L 208.3 186.5 209.5 183.7 208.5 183.4 210.7 181.7 213.0 182.5 212.3 183.8 213.0 186.0 210.9 187.8 212.2 189.8 210.6 191.2 209.9 193.9 210.7 195.2 209.5 196.8 208.1 195.0 208.9 193.9 207.4 191.7 205.1 191.6 204.0 189.8 204.3 187.8 203.2 186.1 204.9 186.0 207.3 184.1 Z" vector-effect="non-scaling-stroke" stroke="silver" stroke-width="1" class=" highcharts-name-denmark highcharts-key-dk"></path><path fill="#434348" d="M 190.7 199.3 L 190.2 198.9 190.4 198.8 191.2 198.7 190.7 199.3 M 205.2 199.2 L 205.6 199.8 203.7 199.3 204.3 198.6 205.2 199.2 M 218.2 196.9 L 219.7 197.5 219.4 198.8 220.6 200.0 217.6 201.1 216.9 198.1 218.2 196.9 M 188.8 196.9 L 187.7 196.6 188.1 196.2 188.7 196.2 188.8 196.9 M 187.7 194.7 L 187.1 194.8 187.7 193.3 187.5 194.0 187.7 194.7 M 191.7 270.8 L 191.8 270.9 191.8 270.9 191.7 270.8 M 195.5 272.1 L 190.9 269.2 191.7 270.8 189.7 271.0 187.6 269.4 186.4 271.6 180.3 271.5 180.4 266.1 182.2 260.7 185.0 257.1 174.7 254.5 173.5 251.7 172.4 251.4 173.7 247.9 171.8 246.8 171.3 244.3 173.1 242.4 172.9 240.6 170.8 237.7 170.5 234.7 172.0 233.5 172.6 231.1 171.0 226.6 172.3 225.7 173.9 226.5 176.8 225.3 176.0 224.4 178.3 222.5 178.1 220.1 176.3 219.8 176.9 218.1 178.6 218.1 179.6 214.8 179.8 211.9 178.8 210.4 180.2 207.4 184.7 207.0 186.0 208.8 188.5 208.9 188.7 205.7 191.4 205.4 190.3 203.8 190.4 201.5 189.1 200.1 191.5 198.9 189.5 196.5 189.4 194.8 190.4 194.7 194.1 195.7 194.1 195.7 195.0 195.1 197.7 197.2 197.6 198.5 202.3 200.9 204.1 200.6 204.1 202.3 202.2 203.8 203.0 204.6 206.8 204.2 208.2 202.5 210.5 202.3 212.8 199.0 216.6 200.9 218.9 202.7 220.3 202.1 221.2 204.9 221.6 205.1 221.9 202.9 223.6 204.2 223.4 204.5 223.6 204.8 221.7 205.2 224.1 206.6 225.3 211.1 225.0 213.4 223.7 215.6 227.2 218.2 226.6 219.9 228.3 223.5 227.3 226.4 228.5 229.3 230.0 230.0 230.6 232.1 229.5 236.2 228.2 236.4 227.3 234.7 226.4 236.2 221.5 238.2 220.6 239.5 214.4 241.9 212.7 245.6 214.6 247.0 213.8 248.8 216.7 253.0 218.1 253.3 221.6 256.9 224.1 258.6 223.5 261.2 222.1 260.6 221.4 262.8 216.9 265.7 218.7 268.5 219.2 272.3 217.2 270.5 215.3 270.9 213.0 270.2 212.9 271.3 209.1 271.6 206.5 273.6 204.5 273.7 203.1 272.4 200.4 271.9 199.7 274.7 197.1 272.4 195.5 272.1 Z" vector-effect="non-scaling-stroke" stroke="silver" stroke-width="1" class=" highcharts-name-germany highcharts-key-de"></path><path fill="#434348" d="M 158.5 226.8 L 158.1 227.6 156.4 226.4 158.0 226.3 158.5 226.8 M 165.2 212.5 L 164.5 213.6 164.1 213.0 165.0 211.6 165.2 212.5 M 168.8 209.6 L 167.4 210.1 167.2 209.7 169.8 209.2 168.8 209.6 M 171.9 209.1 L 172.2 209.2 170.4 209.4 170.4 209.0 171.9 209.1 M 153.8 229.8 L 157.1 230.4 159.5 230.4 157.4 231.9 155.6 230.9 154.0 231.2 153.8 229.8 M 159.8 230.4 L 157.0 229.9 154.7 228.0 158.2 228.0 159.5 227.0 158.3 225.3 162.2 220.4 164.2 213.9 165.2 214.6 168.3 212.8 169.7 210.7 172.3 209.8 177.0 209.5 179.8 211.9 179.6 214.8 178.6 218.1 176.9 218.1 176.3 219.8 178.1 220.1 178.3 222.5 176.0 224.4 176.8 225.3 173.9 226.5 172.3 225.7 171.0 226.6 172.6 231.1 172.0 233.5 170.5 234.7 170.8 237.7 168.8 237.4 170.0 233.4 167.7 231.8 166.0 232.0 164.8 229.7 161.3 229.4 159.8 230.4 M 169.9 220.4 L 170.4 220.0 170.4 219.9 170.4 219.9 170.4 219.9 171.0 219.5 169.7 218.0 170.4 219.9 170.4 219.9 170.4 219.9 169.9 220.4 169.9 220.4 169.9 220.4 169.9 220.4 168.0 221.5 166.2 220.2 169.7 218.0 170.3 215.7 168.3 215.4 168.3 213.0 166.1 214.4 167.6 216.9 165.8 217.6 165.1 220.3 168.2 221.7 169.9 220.4 169.9 220.4 169.9 220.4 169.9 220.4 Z" vector-effect="non-scaling-stroke" stroke="silver" stroke-width="1" class=" highcharts-name-netherlands highcharts-key-nl"></path><path fill="#434348" d="M 171.3 244.3 L 170.5 243.7 168.4 246.7 169.4 249.3 168.7 250.3 166.5 250.7 163.1 247.2 162.2 245.3 162.9 243.6 159.7 245.5 157.8 245.0 158.5 242.1 157.3 241.1 154.9 241.1 154.9 239.7 152.5 238.6 151.9 236.1 149.5 236.3 148.3 234.9 148.1 232.3 152.3 230.2 153.8 229.8 154.0 231.2 155.6 230.9 157.4 231.9 159.5 230.4 160.1 231.4 159.8 230.4 161.3 229.4 164.8 229.7 166.0 232.0 167.7 231.8 170.0 233.4 168.8 237.4 170.8 237.7 172.9 240.6 173.1 242.4 171.3 244.3 Z" vector-effect="non-scaling-stroke" stroke="silver" stroke-width="1" class=" highcharts-name-belgium highcharts-key-be"></path><path fill="#434348" d="M 172.4 251.4 L 169.8 251.4 168.7 250.3 169.4 249.3 168.4 246.7 170.5 243.7 171.3 244.3 171.8 246.8 173.7 247.9 172.4 251.4 Z" vector-effect="non-scaling-stroke" stroke="silver" stroke-width="1" class=" highcharts-name-luxembourg highcharts-key-lu"></path><path fill="#434348" d="M 125.4 361.5 L 125.7 362.1 124.8 362.6 124.9 361.8 125.4 361.5 M 127.0 357.8 L 125.2 360.5 123.7 359.6 125.1 357.9 127.0 357.8 M 141.2 350.0 L 140.9 352.1 143.5 352.6 141.0 356.5 139.6 357.4 137.2 355.7 136.5 353.9 135.1 354.7 134.1 353.1 139.2 350.4 141.2 350.0 M 149.1 349.7 L 150.4 352.4 146.6 350.8 146.6 349.6 149.1 349.7 M 134.2 322.6 L 134.1 322.4 134.3 322.2 134.5 322.7 134.2 322.6 M 62.8 379.6 L 60.4 380.5 56.3 376.3 56.3 373.3 55.1 372.3 55.0 368.7 52.2 365.7 47.9 364.4 47.9 360.2 51.1 356.4 53.3 356.5 51.6 351.3 53.1 348.5 56.2 346.2 54.9 344.7 54.6 340.8 53.2 338.0 57.4 339.0 59.5 335.9 58.6 333.8 61.0 332.5 61.9 327.3 61.5 325.3 65.7 323.2 68.6 320.9 66.1 318.5 66.7 316.6 62.3 314.9 61.2 315.9 57.7 314.7 53.9 314.7 55.1 312.5 54.5 311.1 49.9 311.9 49.2 310.2 51.8 308.7 50.3 307.0 51.5 304.9 49.5 305.6 50.9 303.1 48.5 300.9 50.4 298.4 53.0 297.6 57.0 298.0 57.6 296.3 61.3 295.1 65.0 296.9 65.7 298.4 73.3 299.9 79.3 301.6 86.8 305.1 93.3 304.9 96.6 307.2 99.3 306.7 103.8 309.3 106.5 308.7 109.2 310.7 108.3 312.3 113.7 314.6 114.9 316.3 116.9 316.1 118.9 318.1 124.2 318.8 124.5 317.2 129.5 319.2 130.2 320.5 130.6 322.4 132.3 321.8 134.8 323.7 136.7 323.1 138.0 324.2 141.9 323.2 143.8 323.8 144.7 325.0 143.0 326.8 143.7 328.8 141.1 331.2 135.7 333.3 133.6 335.1 124.7 336.6 122.2 338.7 123.1 340.3 121.0 340.7 115.8 346.3 111.9 351.3 112.1 356.1 115.3 360.3 108.5 363.7 105.6 368.4 105.7 371.1 101.0 370.8 97.0 372.6 94.3 376.7 92.0 378.6 90.1 377.2 87.3 378.2 82.5 376.7 72.1 375.2 69.1 377.0 65.0 377.0 63.0 379.6 62.8 379.6 Z" vector-effect="non-scaling-stroke" stroke="silver" stroke-width="1" class=" highcharts-name-spain highcharts-key-es"></path><path fill="#434348" d="M 114.7 281.9 L 115.4 283.1 115.0 284.0 114.0 282.1 114.7 281.9 M 113.8 279.1 L 114.9 279.8 115.2 280.3 113.2 279.0 113.8 279.1 M 109.9 270.7 L 109.5 270.8 109.2 270.0 109.9 270.2 109.9 270.7 M 104.0 265.8 L 104.3 266.2 103.1 265.8 103.2 265.0 104.0 265.8 M 169.9 284.6 L 170.4 283.8 174.1 283.6 174.4 286.7 175.6 288.8 173.9 289.8 175.9 295.9 172.0 297.3 175.3 301.9 173.6 303.3 173.7 305.2 177.5 308.0 179.9 308.5 178.3 311.5 178.1 311.8 177.8 312.0 177.6 311.8 177.2 312.2 175.4 313.9 172.2 315.4 171.7 317.5 165.2 318.9 163.5 317.2 161.4 316.8 160.1 314.5 157.4 315.1 155.1 313.8 150.7 312.6 143.9 316.6 142.9 322.4 143.8 323.8 141.9 323.2 138.0 324.2 136.7 323.1 134.8 323.7 132.3 321.8 132.5 320.7 130.2 320.5 129.5 319.2 124.5 317.2 124.2 318.8 118.9 318.1 116.9 316.1 114.9 316.3 113.7 314.6 108.3 312.3 109.2 310.7 106.5 308.7 109.2 307.0 113.2 296.0 112.6 296.3 115.0 287.4 115.5 286.7 117.4 289.6 117.7 288.6 114.9 285.1 116.1 283.2 116.4 279.4 111.8 276.1 110.1 272.4 111.4 270.1 108.0 266.0 108.7 264.6 106.4 264.5 106.9 263.2 104.7 263.4 102.0 260.7 99.3 259.0 96.1 259.2 96.1 257.4 94.5 256.1 97.3 256.2 94.8 251.6 96.5 250.5 100.8 250.2 103.5 251.2 104.2 249.7 107.1 249.9 109.2 254.2 112.1 252.8 112.6 254.0 115.4 253.1 115.3 254.0 118.5 254.1 117.4 253.0 117.9 248.0 116.7 246.0 116.5 242.5 118.7 243.6 120.1 243.2 121.1 246.3 127.4 248.9 131.9 247.7 129.9 247.0 131.1 244.6 134.3 243.5 137.8 243.1 140.6 240.0 141.6 233.9 144.4 232.7 148.1 232.3 148.1 232.3 148.3 234.9 149.5 236.3 151.9 236.1 152.5 238.6 154.9 239.7 154.9 241.1 157.3 241.1 158.5 242.1 157.8 245.0 159.7 245.5 162.9 243.6 162.2 245.3 163.1 247.2 166.5 250.7 168.7 250.3 169.8 251.4 172.4 251.4 173.5 251.7 174.7 254.5 185.0 257.1 182.2 260.7 180.4 266.1 180.3 271.5 178.8 273.0 176.1 272.2 176.3 273.9 173.0 277.5 171.6 279.8 169.3 281.4 169.9 284.6 M 134.2 322.6 L 134.5 322.7 134.3 322.2 134.1 322.4 134.2 322.6 M 186.0 328.2 L 187.4 324.9 190.5 323.1 191.9 323.7 192.4 320.3 193.2 324.0 193.9 329.7 192.7 331.4 192.7 334.0 191.2 337.6 187.8 335.5 188.9 334.1 187.1 333.7 187.5 330.4 186.0 328.2 Z" vector-effect="non-scaling-stroke" stroke="silver" stroke-width="1" class=" highcharts-name-france highcharts-key-fr"></path><path fill="#434348" d="M 256.3 195.6 L 254.1 197.1 255.1 197.6 257.1 195.7 275.1 193.8 275.5 193.6 276.0 193.0 279.9 194.8 280.7 197.1 281.9 200.4 284.8 204.7 285.6 209.7 282.9 212.0 281.9 214.5 285.3 216.1 286.2 221.9 286.7 223.8 291.0 228.3 289.9 228.6 291.4 231.4 289.4 233.4 285.9 238.7 283.6 243.7 284.7 247.3 286.1 248.9 283.8 248.5 279.9 247.7 278.3 246.2 274.4 246.1 272.5 248.0 270.6 247.1 268.1 247.7 266.6 250.2 264.5 250.1 261.9 246.3 260.3 248.6 257.9 247.7 255.5 243.8 251.9 243.2 250.6 243.7 245.7 239.9 243.5 239.7 244.4 241.6 242.8 243.2 239.0 240.1 239.8 237.7 238.1 237.8 233.7 236.5 232.5 235.0 230.4 234.7 229.5 236.2 230.6 232.1 230.0 230.0 228.5 229.3 227.3 226.4 228.3 223.5 226.6 219.9 227.2 218.2 223.7 215.6 225.0 213.4 225.3 211.1 224.1 206.6 225.7 206.9 226.3 204.9 223.6 204.8 223.4 204.5 223.6 204.2 235.2 199.6 237.6 196.6 242.1 194.1 247.9 192.5 250.0 196.6 252.7 197.2 256.2 195.5 256.3 195.6 Z" vector-effect="non-scaling-stroke" stroke="silver" stroke-width="1" class=" highcharts-name-poland highcharts-key-pl"></path><path fill="#434348" d="M 257.9 247.7 L 255.9 248.3 253.8 250.7 253.3 253.2 249.8 256.1 247.2 255.8 245.9 258.6 245.3 257.5 242.2 257.0 239.5 257.6 233.9 255.7 232.0 255.5 231.7 258.2 230.3 260.1 228.6 259.6 226.0 260.3 224.1 258.6 221.6 256.9 218.1 253.3 216.7 253.0 213.8 248.8 214.6 247.0 212.7 245.6 214.4 241.9 220.6 239.5 221.5 238.2 226.4 236.2 227.3 234.7 228.2 236.4 229.5 236.2 230.4 234.7 232.5 235.0 233.7 236.5 238.1 237.8 239.8 237.7 239.0 240.1 242.8 243.2 244.4 241.6 243.5 239.7 245.7 239.9 250.6 243.7 251.9 243.2 255.5 243.8 257.9 247.7 Z" vector-effect="non-scaling-stroke" stroke="silver" stroke-width="1" class=" highcharts-name-czech-republic highcharts-key-cz"></path><path fill="#434348" d="M 194.5 277.3 L 194.7 276.8 194.1 275.1 195.0 273.6 194.3 272.5 195.1 272.6 195.5 272.1 197.1 272.4 199.7 274.7 200.4 271.9 203.1 272.4 204.5 273.7 206.5 273.6 209.1 271.6 212.9 271.3 213.0 270.2 215.3 270.9 217.2 270.5 219.2 272.3 218.7 268.5 216.9 265.7 221.4 262.8 222.1 260.6 223.5 261.2 224.1 258.6 226.0 260.3 228.6 259.6 230.3 260.1 231.7 258.2 232.0 255.5 233.9 255.7 239.5 257.6 242.2 257.0 245.3 257.5 245.9 258.6 245.5 261.2 248.0 264.8 247.1 266.4 247.7 268.0 244.4 267.8 244.9 270.9 243.5 272.1 244.3 275.8 241.6 277.5 241.1 279.3 238.4 279.3 237.2 280.5 232.8 280.9 230.7 283.4 229.6 282.8 224.5 282.3 221.0 282.1 215.0 280.9 212.7 277.7 207.0 278.0 204.7 280.3 200.8 279.3 200.1 278.0 198.3 279.5 196.5 277.7 194.5 277.3 Z" vector-effect="non-scaling-stroke" stroke="silver" stroke-width="1" class=" highcharts-name-austria highcharts-key-at"></path><path fill="#434348" d="M 180.3 271.5 L 186.4 271.6 187.6 269.4 189.7 271.0 191.7 270.8 191.7 270.8 191.8 270.9 191.8 270.9 193.9 272.7 194.3 272.5 195.0 273.6 194.1 275.1 193.7 277.2 194.5 277.3 196.5 277.7 198.3 279.5 200.1 278.0 200.8 279.3 200.6 282.8 198.1 282.1 197.2 284.7 194.3 285.4 193.4 283.2 189.4 290.2 188.9 287.7 186.0 285.7 186.1 283.8 183.4 285.6 183.6 286.9 181.5 289.1 179.4 288.3 176.7 289.3 175.6 288.8 174.4 286.7 174.1 283.6 172.9 282.4 170.6 283.0 169.9 284.6 169.3 281.4 171.6 279.8 173.0 277.5 176.3 273.9 176.1 272.2 178.8 273.0 180.3 271.5 180.3 271.5 Z" vector-effect="non-scaling-stroke" stroke="silver" stroke-width="1" class=" highcharts-name-switzerland highcharts-key-ch"></path><path fill="#434348" d="M 194.1 275.1 L 194.7 276.8 194.5 277.3 193.7 277.2 194.1 275.1 Z" vector-effect="non-scaling-stroke" stroke="silver" stroke-width="1" class=" highcharts-name-liechtenstein highcharts-key-li"></path><path fill="#434348" d="M 248.0 264.8 L 245.5 261.2 245.9 258.6 247.2 255.8 249.8 256.1 253.3 253.2 253.8 250.7 255.9 248.3 257.9 247.7 260.3 248.6 261.9 246.3 264.5 250.1 266.6 250.2 268.1 247.7 270.6 247.1 272.5 248.0 274.4 246.1 278.3 246.2 279.9 247.7 283.8 248.5 283.0 252.6 282.2 255.9 279.5 257.1 277.0 255.1 275.0 256.2 272.6 255.7 270.6 256.5 269.8 259.2 267.0 261.2 265.0 260.4 264.2 261.8 259.8 263.1 259.9 265.3 253.0 267.0 249.3 264.7 248.0 264.8 Z" vector-effect="non-scaling-stroke" stroke="silver" stroke-width="1" class=" highcharts-name-slovakia highcharts-key-sk"></path><path fill="#434348" d="M 272.5 282.0 L 267.4 282.1 265.6 284.3 263.0 285.1 261.4 285.5 259.6 287.6 255.6 287.7 253.4 286.2 251.6 286.2 247.6 282.3 244.9 281.0 242.9 277.4 241.6 277.5 244.3 275.8 243.5 272.1 244.9 270.9 244.4 267.8 247.7 268.0 247.1 266.4 248.0 264.8 249.3 264.7 253.0 267.0 259.9 265.3 259.8 263.1 264.2 261.8 265.0 260.4 267.0 261.2 269.8 259.2 270.6 256.5 272.6 255.7 275.0 256.2 277.0 255.1 279.5 257.1 282.2 255.9 286.0 258.5 288.2 259.8 287.5 261.2 284.3 262.9 282.8 265.6 280.7 274.2 279.5 275.5 278.7 279.2 276.6 279.6 275.2 281.3 272.5 282.0 Z" vector-effect="non-scaling-stroke" stroke="silver" stroke-width="1" class=" highcharts-name-hungary highcharts-key-hu"></path><path fill="#434348" d="M 224.2 293.2 L 224.2 292.7 225.0 292.0 226.4 291.6 224.0 289.8 223.0 287.8 224.2 285.9 222.1 284.8 224.5 282.3 229.6 282.8 230.7 283.4 232.8 280.9 237.2 280.5 238.4 279.3 241.1 279.3 241.6 277.5 242.9 277.4 244.9 281.0 242.9 281.3 243.4 282.5 239.0 284.6 239.3 288.6 236.4 290.1 237.4 292.4 235.7 293.1 232.2 292.3 231.3 291.0 230.0 293.0 227.0 292.8 226.5 293.8 224.2 293.2 Z" vector-effect="non-scaling-stroke" stroke="silver" stroke-width="1" class=" highcharts-name-slovenia highcharts-key-si"></path><path fill="#434348" d="M 214.8 386.3 L 215.4 386.7 215.3 387.2 214.4 386.8 214.8 386.3 M 239.6 367.7 L 239.5 367.5 239.0 367.2 239.5 366.8 239.6 367.7 M 183.8 361.6 L 184.6 362.3 184.1 363.3 183.7 362.2 183.8 361.6 M 200.9 322.2 L 200.5 323.2 198.3 322.8 198.7 322.2 200.9 322.2 M 224.5 282.3 L 222.1 284.8 224.2 285.9 223.0 287.8 224.0 289.8 226.4 291.6 225.0 292.0 223.8 290.0 221.3 290.3 220.4 291.7 215.4 294.1 214.0 295.5 216.5 299.0 214.8 300.4 215.6 306.7 218.3 309.4 225.4 313.9 229.5 323.6 235.1 328.8 238.3 330.1 245.4 329.5 246.9 331.0 244.9 332.8 245.9 335.0 254.5 337.9 258.2 340.3 262.7 341.7 267.5 346.9 266.7 350.5 264.1 349.5 261.8 345.7 259.1 345.8 255.0 343.9 251.9 348.9 251.5 353.2 257.1 355.7 257.2 361.2 255.0 361.2 252.6 363.5 253.2 366.7 250.1 370.0 249.6 372.2 246.0 372.3 245.6 369.3 247.5 366.7 246.9 364.7 249.6 363.5 247.4 356.2 243.7 349.7 241.6 350.6 237.8 348.4 238.4 346.6 236.2 343.8 232.9 345.0 233.9 343.4 230.8 342.4 227.5 338.1 224.3 337.8 222.1 338.6 220.8 336.9 218.7 336.4 215.4 333.5 214.6 331.7 212.0 330.4 210.6 327.8 208.5 326.5 206.1 326.6 206.9 325.3 205.3 323.3 201.6 321.1 201.8 318.7 200.0 315.2 199.5 311.6 198.3 309.5 196.1 309.0 191.6 305.9 187.8 305.1 185.8 306.3 183.5 309.9 181.8 311.0 178.3 311.5 179.9 308.5 177.5 308.0 173.7 305.2 173.6 303.3 175.3 301.9 172.0 297.3 175.9 295.9 173.9 289.8 175.6 288.8 176.7 289.3 179.4 288.3 181.5 289.1 183.6 286.9 183.4 285.6 186.1 283.8 186.0 285.7 188.9 287.7 189.4 290.2 193.4 283.2 194.3 285.4 197.2 284.7 198.1 282.1 200.6 282.8 200.8 279.3 204.7 280.3 207.0 278.0 212.7 277.7 215.0 280.9 221.0 282.1 224.5 282.3 M 216.4 310.4 L 216.5 309.5 216.1 309.7 215.8 310.1 216.4 310.4 M 217.0 331.6 L 217.0 331.6 217.0 331.6 217.0 331.6 217.0 331.6 M 234.0 372.6 L 239.3 370.4 240.9 370.9 244.3 368.8 244.4 371.1 242.2 375.0 241.7 379.6 243.9 382.8 242.6 383.7 241.9 386.8 236.7 385.7 234.7 383.1 231.3 382.7 224.9 378.8 222.2 378.0 220.4 378.1 218.3 375.5 218.9 373.4 221.0 371.5 222.3 373.0 223.9 371.2 229.9 373.3 234.0 372.6 M 189.8 360.7 L 187.8 364.3 185.7 364.1 183.9 360.4 185.5 353.5 184.3 353.2 185.1 351.1 183.7 345.9 182.5 346.1 183.0 342.8 185.5 343.3 187.5 342.4 191.3 338.8 193.0 339.6 196.1 346.8 194.4 349.5 195.3 351.4 193.8 361.5 189.8 360.7 Z" vector-effect="non-scaling-stroke" stroke="silver" stroke-width="1" class=" highcharts-name-italy highcharts-key-it"></path><path fill="#434348" d="M 216.4 310.4 L 215.8 310.1 216.1 309.7 216.5 309.5 216.4 310.4 Z" vector-effect="non-scaling-stroke" stroke="silver" stroke-width="1" class=" highcharts-name-san-marino highcharts-key-sm"></path><path fill="#434348" d="M 255.3 319.5 L 258.1 320.0 258.3 320.3 255.3 319.7 255.3 319.5 M 250.3 318.1 L 252.3 317.8 253.7 318.3 251.0 318.8 250.3 318.1 M 245.7 317.4 L 245.9 317.8 245.2 318.1 244.6 317.6 245.7 317.4 M 248.4 315.5 L 250.0 316.1 249.6 316.5 247.0 316.0 248.4 315.5 M 250.2 314.1 L 250.3 314.9 247.3 314.7 247.2 313.9 250.2 314.1 M 246.2 313.8 L 247.0 314.4 246.7 314.5 245.6 314.1 246.2 313.8 M 237.6 307.9 L 238.7 308.4 239.3 309.3 238.6 309.0 237.6 307.9 M 234.7 306.9 L 237.5 309.1 236.9 309.3 235.8 307.7 234.7 306.9 M 234.2 302.0 L 234.6 301.9 237.5 304.6 234.6 303.2 234.2 302.0 M 230.9 302.2 L 230.8 302.5 230.2 301.1 230.7 301.3 230.9 302.2 M 233.3 299.5 L 233.9 300.3 234.1 300.9 232.8 299.5 233.3 299.5 M 231.1 298.5 L 231.0 301.6 229.5 296.7 230.2 296.4 231.1 298.5 M 231.6 295.3 L 232.5 297.0 233.7 298.1 230.7 297.1 231.6 295.3 M 264.4 322.5 L 258.5 318.9 255.6 318.6 253.9 317.2 257.3 318.2 258.9 318.8 263.8 321.1 263.9 321.9 264.4 322.5 M 256.6 317.8 L 250.7 313.4 248.0 312.7 243.7 313.0 243.2 311.2 239.4 308.9 236.4 305.4 237.9 304.4 234.5 301.1 234.5 298.2 231.7 294.9 229.8 294.3 227.4 300.2 224.6 297.1 224.2 293.2 226.5 293.8 227.0 292.8 230.0 293.0 231.3 291.0 232.2 292.3 235.7 293.1 237.4 292.4 236.4 290.1 239.3 288.6 239.0 284.6 243.4 282.5 242.9 281.3 244.9 281.0 247.6 282.3 251.6 286.2 253.4 286.2 255.6 287.7 259.6 287.6 261.4 285.5 263.0 285.1 262.7 286.5 264.3 288.8 264.5 290.9 267.6 292.7 265.2 293.2 265.2 296.2 262.5 294.3 259.1 293.8 256.2 295.1 249.2 293.5 248.2 294.7 246.0 294.7 245.1 296.9 242.3 294.9 240.7 295.6 241.0 298.9 243.8 302.2 244.9 305.4 252.2 312.1 253.4 312.4 256.6 317.8 Z" vector-effect="non-scaling-stroke" stroke="silver" stroke-width="1" class=" highcharts-name-croatia highcharts-key-hr"></path><path fill="#434348" d="M 257.3 318.2 L 256.5 317.8 256.6 317.8 253.4 312.4 252.2 312.1 244.9 305.4 243.8 302.2 241.0 298.9 240.7 295.6 242.3 294.9 245.1 296.9 246.0 294.7 248.2 294.7 249.2 293.5 256.2 295.1 259.1 293.8 262.5 294.3 265.2 296.2 267.9 295.7 266.5 299.7 267.2 302.2 270.9 304.3 268.1 305.5 270.1 307.4 270.5 309.5 268.4 310.1 266.2 310.8 264.8 313.5 264.8 316.0 263.4 316.5 264.6 320.1 263.8 321.1 258.9 318.8 257.3 318.2 Z" vector-effect="non-scaling-stroke" stroke="silver" stroke-width="1" class=" highcharts-name-bosnia-and herzegovina highcharts-key-ba"></path><path fill="#434348" d="M 268.4 310.1 L 272.1 313.5 274.6 313.7 278.3 316.3 275.9 317.7 276.5 319.6 274.7 320.7 273.5 318.8 271.6 322.6 271.5 322.8 271.4 323.0 271.4 323.1 269.7 323.4 271.7 325.1 271.7 326.5 272.0 327.6 265.6 322.0 264.4 322.5 263.9 321.9 263.8 321.1 264.6 320.1 263.4 316.5 264.8 316.0 264.8 313.5 266.2 310.8 268.4 310.1 Z" vector-effect="non-scaling-stroke" stroke="silver" stroke-width="1" class=" highcharts-name-montenegro highcharts-key-me"></path><path fill="#434348" d="M 286.2 336.0 L 286.1 336.1 286.0 335.8 286.1 335.9 286.2 336.0 M 283.3 334.3 L 283.6 336.1 284.2 336.1 285.0 335.8 286.0 335.8 285.9 336.0 286.2 336.3 286.2 336.3 285.9 337.3 286.4 337.0 286.2 337.3 286.9 338.0 286.8 338.2 287.0 338.1 284.9 344.9 282.3 346.3 283.3 347.9 281.6 350.2 280.2 349.9 278.5 346.2 275.2 344.9 274.9 342.3 273.2 340.5 274.5 337.5 272.9 332.4 273.9 330.3 273.8 327.8 272.0 327.6 271.7 326.5 271.7 325.1 272.5 324.5 271.6 322.6 273.5 318.8 274.7 320.7 276.5 319.6 278.1 321.7 280.4 322.6 281.5 326.1 281.0 329.6 283.3 334.3 M 271.4 323.0 L 271.4 323.1 271.4 323.1 271.4 323.0 Z" vector-effect="non-scaling-stroke" stroke="silver" stroke-width="1" class=" highcharts-name-albania highcharts-key-al"></path><path fill="#434348" d="M 286.2 336.3 L 286.3 336.3 286.2 336.3 286.2 336.3 M 294.7 319.2 L 296.5 320.9 299.1 321.6 301.0 324.6 301.0 328.7 299.8 330.7 295.5 331.6 293.4 332.6 291.2 335.5 287.5 336.2 286.0 334.7 286.2 336.0 286.1 335.9 286.0 335.8 286.0 335.8 285.0 335.8 284.2 336.1 284.7 333.8 283.3 334.3 281.0 329.6 281.5 326.1 282.7 323.8 285.1 322.0 286.4 322.9 288.7 320.9 293.9 318.8 294.7 319.2 Z" vector-effect="non-scaling-stroke" stroke="silver" stroke-width="1" class=" highcharts-name-macedonia highcharts-key-mk"></path></g></g><g class="highcharts-markers highcharts-tracker" visibility="visible"  transform="translate(10,47) scale(1 1)" style="" clip-path="none"></g><g class="highcharts-series highcharts-tracker" visibility="visible"  transform="translate(10,47) scale(1 1)" style="" clip-path="url(#highcharts-1)"><g transform="translate(0,0) scale(1 1)"><path fill="#90ed7d" d="M 252.9 136.3 L 253.7 136.3 253.5 136.8 252.8 136.5 252.9 136.3 M 251.4 136.0 L 251.8 135.8 251.4 137.4 250.5 136.8 251.4 136.0 M 248.4 135.4 L 248.0 136.2 247.6 135.7 247.9 134.8 248.4 135.4 M 249.5 133.4 L 251.5 134.2 250.6 136.3 249.1 136.7 248.2 134.7 249.5 133.4 M 263.2 134.6 L 263.3 135.3 263.0 135.4 262.7 134.6 263.2 134.6 M 265.6 134.1 L 265.6 134.7 265.2 134.0 265.7 133.5 265.6 134.1 M 258.8 134.5 L 258.8 134.9 258.3 135.1 258.4 134.2 258.8 134.5 M 260.0 133.8 L 259.5 134.7 259.2 134.6 259.3 133.9 260.0 133.8 M 260.7 134.3 L 260.3 133.9 260.8 133.4 260.7 133.9 260.7 134.3 M 265.0 132.9 L 264.5 135.1 263.4 135.2 263.0 133.3 265.0 132.9 M 262.0 132.0 L 262.9 131.9 261.9 132.7 260.9 132.8 262.0 132.0 M 260.2 132.4 L 259.2 131.9 259.6 131.0 260.4 132.1 260.2 132.4 M 257.2 130.5 L 257.3 131.2 257.0 131.0 256.5 130.4 257.2 130.5 M 256.3 130.6 L 256.2 131.0 255.8 129.8 256.2 129.8 256.3 130.6 M 255.5 127.3 L 255.4 126.9 256.1 126.4 255.9 127.0 255.5 127.3 M 250.8 101.8 L 251.4 102.2 252.2 102.4 251.8 103.1 250.8 101.8 M 255.0 100.5 L 255.6 100.6 256.3 100.7 255.8 101.4 255.0 100.5 M 258.0 95.2 L 258.1 95.7 257.9 95.9 257.5 95.5 258.0 95.2 M 264.8 79.8 L 264.0 81.0 263.5 80.4 263.8 79.8 264.8 79.8 M 239.4 40.3 L 241.0 40.0 240.7 38.5 241.6 37.1 243.0 37.2 246.6 41.6 247.0 42.7 249.4 42.6 250.3 43.2 252.2 41.7 252.7 40.5 256.0 41.5 256.9 42.5 257.8 41.4 257.7 39.5 259.3 38.3 259.6 36.8 258.9 35.0 258.8 29.3 260.0 26.4 262.3 26.1 264.8 23.5 267.4 25.9 270.4 26.6 271.9 28.6 270.8 31.8 271.6 33.7 270.1 35.6 271.6 35.9 271.1 39.4 272.9 42.8 275.7 43.4 277.9 45.7 279.7 46.8 279.9 48.7 278.9 51.4 278.1 55.1 278.5 56.7 281.3 59.9 284.0 63.5 286.2 67.9 284.6 68.7 286.4 72.9 285.9 75.5 287.3 77.3 288.6 77.0 289.6 78.3 288.8 79.3 289.6 81.1 292.5 82.2 293.0 84.6 291.4 87.9 294.5 90.1 298.7 91.9 301.2 94.3 301.0 98.9 299.1 103.1 296.7 110.3 294.8 114.6 293.2 116.7 289.7 123.6 288.1 125.0 286.5 124.3 285.8 125.3 282.6 127.2 280.8 126.7 280.9 129.1 277.1 129.9 277.1 130.6 274.2 131.8 269.5 134.6 267.8 136.2 267.5 134.1 266.1 134.1 265.0 131.7 263.3 133.1 263.5 131.2 261.8 131.4 259.4 130.2 258.3 130.8 256.6 129.4 256.5 126.7 255.5 125.1 256.6 123.4 255.7 118.8 253.7 115.4 253.5 111.5 252.5 111.1 251.8 108.2 252.2 106.2 254.1 104.1 252.9 102.3 254.7 101.5 254.9 102.4 256.9 100.4 255.7 99.1 256.8 98.6 257.2 96.2 258.4 96.6 258.8 94.7 260.4 93.5 260.2 91.9 262.4 89.3 262.3 87.8 263.6 85.9 263.7 84.3 264.8 82.0 266.1 81.2 267.1 82.0 267.6 80.3 266.2 78.9 266.0 74.9 264.6 73.9 262.8 74.0 261.8 72.2 260.0 72.4 258.9 70.1 257.3 68.7 256.5 66.3 257.3 64.7 257.3 62.0 254.8 58.7 255.0 55.7 253.5 55.2 253.8 54.0 253.0 50.9 253.5 50.2 251.1 48.5 249.2 45.9 246.1 45.5 243.3 43.6 240.7 40.9 239.4 40.3 Z" vector-effect="non-scaling-stroke" stroke="silver" stroke-width="1" class=" highcharts-name-finland highcharts-key-fi"></path><path fill="#90ed7d" d="M 270.7 148.7 L 270.2 149.8 269.2 149.2 269.6 148.4 270.7 148.7 M 269.1 144.5 L 269.9 144.4 270.2 145.0 268.9 145.3 269.1 144.5 M 266.6 145.3 L 268.6 146.8 266.3 148.9 265.4 147.3 263.1 146.5 266.6 145.3 M 294.8 135.4 L 294.5 135.6 293.9 135.9 294.3 135.9 294.3 135.9 294.4 135.9 294.4 135.9 294.1 136.2 293.4 136.6 293.5 137.9 293.4 138.8 293.3 139.7 290.0 140.9 289.8 142.8 291.2 143.9 292.3 146.4 295.4 150.0 296.6 151.3 295.4 152.1 295.1 155.3 292.2 154.9 290.4 156.5 287.2 154.5 282.3 152.3 277.5 155.5 277.7 150.3 276.5 150.1 275.6 151.9 273.4 151.2 270.9 147.2 270.2 142.5 273.3 140.8 272.8 140.2 278.4 137.3 279.9 137.5 281.2 135.3 287.4 135.9 293.0 135.3 293.6 134.3 294.2 134.7 294.8 135.4 M 263.9 152.8 L 263.0 151.5 266.9 149.8 268.3 149.2 270.8 150.3 267.8 153.6 265.9 154.1 265.6 156.5 264.5 156.7 265.3 154.8 263.3 153.9 263.9 152.8 Z" vector-effect="non-scaling-stroke" stroke="silver" stroke-width="1" class=" highcharts-name-estonia highcharts-key-ee"></path><path fill="#90ed7d" d="M 303.1 168.3 L 301.9 169.1 300.8 172.7 297.2 173.2 295.4 175.4 293.4 175.0 288.9 171.7 285.6 172.0 283.8 169.6 281.6 172.0 277.2 171.9 273.9 172.9 272.4 172.2 271.3 173.0 267.8 172.9 263.7 175.6 262.3 177.5 261.6 175.6 261.2 169.4 262.8 167.1 262.5 164.5 263.6 161.5 268.2 158.5 268.9 160.2 271.9 162.0 273.1 164.5 275.9 165.5 277.3 164.8 279.2 162.0 277.5 155.5 282.3 152.3 287.2 154.5 290.4 156.5 292.2 154.9 295.1 155.3 298.4 157.0 298.3 161.9 299.1 161.4 302.0 164.3 303.1 168.3 Z" vector-effect="non-scaling-stroke" stroke="silver" stroke-width="1" class=" highcharts-name-latvia highcharts-key-lv"></path><path fill="#90ed7d" d="M 265.0 185.8 L 263.0 180.8 262.3 177.5 263.7 175.6 267.8 172.9 271.3 173.0 272.4 172.2 273.9 172.9 277.2 171.9 281.6 172.0 283.8 169.6 285.6 172.0 288.9 171.7 293.4 175.0 295.4 175.4 295.3 179.0 297.5 179.1 296.6 181.0 294.9 181.1 294.4 183.2 292.5 184.6 292.9 187.8 291.9 190.9 289.9 193.2 288.5 193.3 288.5 195.2 286.2 196.6 285.0 196.1 280.7 197.1 279.9 194.8 276.0 193.0 275.5 193.6 274.8 192.7 274.8 187.9 273.1 186.5 270.3 187.3 265.0 185.8 M 262.9 185.8 L 263.5 183.4 263.3 185.8 263.3 185.8 262.9 185.8 Z" vector-effect="non-scaling-stroke" stroke="silver" stroke-width="1" class=" highcharts-name-lithuania highcharts-key-lt"></path><path fill="#90ed7d" d="M 295.4 175.4 L 297.2 173.2 300.8 172.7 301.9 169.1 303.1 168.3 304.2 169.1 306.0 168.2 307.4 169.4 308.4 168.2 310.6 168.4 311.8 170.9 313.8 168.8 317.3 168.2 320.2 169.5 320.7 172.8 322.7 175.1 322.0 177.9 324.8 178.8 326.9 182.5 330.4 183.4 330.8 186.1 332.7 185.3 335.3 185.7 335.8 187.3 337.7 187.8 336.7 190.9 335.0 192.6 330.7 192.7 330.2 194.8 332.3 196.1 334.4 201.3 336.2 203.1 331.3 204.8 329.9 210.4 331.5 212.9 331.2 214.1 328.0 212.3 324.6 213.2 323.1 215.0 321.1 212.7 319.2 215.6 318.0 214.3 316.5 215.0 309.4 216.1 308.5 214.6 306.4 215.1 299.1 214.8 295.4 215.4 290.5 217.2 288.5 220.8 286.9 220.4 286.2 221.9 285.3 216.1 281.9 214.5 282.9 212.0 285.6 209.7 284.8 204.7 281.9 200.4 280.7 197.1 285.0 196.1 286.2 196.6 288.5 195.2 288.5 193.3 289.9 193.2 291.9 190.9 292.9 187.8 292.5 184.6 294.4 183.2 294.9 181.1 296.6 181.0 297.5 179.1 295.3 179.0 295.4 175.4 Z" vector-effect="non-scaling-stroke" stroke="silver" stroke-width="1" class=" highcharts-name-belarus highcharts-key-by"></path><path fill="#90ed7d" d="M 361.3 261.8 L 362.3 261.6 363.7 261.1 364.3 261.4 361.3 261.8 M 357.6 261.9 L 354.5 262.2 353.5 262.1 356.9 261.9 357.6 261.9 M 342.7 276.8 L 342.3 275.5 339.7 275.1 336.4 278.4 332.9 278.3 331.5 277.1 333.5 276.2 333.0 274.6 335.5 270.1 334.2 265.5 335.5 264.3 336.2 266.1 337.7 264.2 340.8 264.9 342.4 264.1 340.8 263.0 340.1 260.0 337.1 259.4 336.0 255.5 335.1 256.2 332.4 254.2 332.3 250.6 330.2 250.5 328.6 248.9 323.4 248.9 320.6 247.3 318.9 247.5 316.9 249.2 314.6 249.4 313.4 251.2 311.3 252.1 310.9 254.6 304.9 257.0 302.7 259.5 299.9 257.6 297.7 258.5 294.4 258.2 291.5 258.7 289.6 258.0 288.2 259.8 286.0 258.5 282.2 255.9 283.0 252.6 283.8 248.5 286.1 248.9 284.7 247.3 283.6 243.7 285.9 238.7 289.4 233.4 291.4 231.4 289.9 228.6 291.0 228.3 286.7 223.8 286.2 221.9 286.9 220.4 288.5 220.8 290.5 217.2 295.4 215.4 299.1 214.8 306.4 215.1 308.5 214.6 309.4 216.1 316.5 215.0 318.0 214.3 319.2 215.6 321.1 212.7 323.1 215.0 324.6 213.2 328.0 212.3 331.2 214.1 331.5 212.9 329.9 210.4 331.3 204.8 336.2 203.1 339.2 202.3 339.1 199.7 342.9 199.3 344.1 197.5 346.5 197.7 347.9 196.4 350.0 197.7 351.1 199.8 353.3 200.5 352.2 202.4 354.4 205.1 354.1 206.6 357.9 206.2 360.0 205.2 364.1 209.4 364.7 211.4 366.7 212.1 369.0 210.4 372.9 211.3 374.4 209.2 377.3 207.1 380.5 209.7 383.0 210.8 383.4 208.8 389.2 209.3 390.5 208.1 393.4 208.4 395.7 209.4 397.5 208.1 399.1 211.3 398.6 213.9 397.2 214.8 399.6 215.7 398.5 217.4 402.3 221.1 402.7 226.0 396.6 228.5 396.7 230.4 394.4 232.1 395.6 237.4 391.4 239.3 390.6 242.0 381.8 248.0 379.2 252.1 378.3 251.7 376.0 255.6 377.3 257.8 382.5 262.1 385.2 261.6 385.8 259.8 391.1 258.3 391.4 262.3 387.6 264.6 385.6 263.9 382.2 268.3 378.8 270.8 378.4 273.0 376.3 275.5 371.5 275.1 372.7 274.1 371.0 269.3 368.7 269.4 365.4 268.3 362.8 269.3 362.5 268.1 364.3 265.6 369.7 260.5 364.9 258.8 364.4 259.9 360.3 262.0 354.6 260.8 355.7 259.3 352.4 259.3 358.0 258.4 358.8 256.7 355.2 257.5 348.1 260.0 346.2 266.3 344.4 269.6 343.3 269.7 342.1 272.6 340.9 270.6 341.6 274.1 342.5 274.0 342.7 276.8 M 342.7 264.0 L 345.6 266.3 346.0 265.6 343.2 263.6 342.7 264.0 M 371.0 258.2 L 378.9 260.1 381.2 263.1 382.7 262.4 379.1 260.0 376.4 257.0 371.3 256.0 367.9 257.8 370.8 259.1 371.0 258.2 Z" vector-effect="non-scaling-stroke" stroke="silver" stroke-width="1" class=" highcharts-name-ukraine highcharts-key-ua"></path><path fill="#90ed7d" d="M 331.5 277.1 L 329.3 271.8 329.3 267.1 328.6 264.7 326.2 261.3 324.4 260.6 321.8 257.7 319.5 256.1 316.2 251.5 313.4 251.2 314.6 249.4 316.9 249.2 318.9 247.5 320.6 247.3 323.4 248.9 328.6 248.9 330.2 250.5 332.3 250.6 332.4 254.2 335.1 256.2 336.0 255.5 337.1 259.4 340.1 260.0 340.8 263.0 342.4 264.1 340.8 264.9 337.7 264.2 336.2 266.1 335.5 264.3 334.2 265.5 335.5 270.1 333.0 274.6 333.5 276.2 331.5 277.1 Z" vector-effect="non-scaling-stroke" stroke="silver" stroke-width="1" class=" highcharts-name-moldova highcharts-key-md"></path><path fill="#90ed7d" d="M 291.7 296.1 L 293.7 294.9 290.9 293.8 289.5 296.3 287.9 295.2 285.2 295.2 282.8 293.7 283.2 290.6 279.1 289.3 277.3 287.8 277.1 285.1 272.5 282.0 275.2 281.3 276.6 279.6 278.7 279.2 279.5 275.5 280.7 274.2 282.8 265.6 284.3 262.9 287.5 261.2 288.2 259.8 289.6 258.0 291.5 258.7 294.4 258.2 297.7 258.5 299.9 257.6 302.7 259.5 304.9 257.0 310.9 254.6 311.3 252.1 313.4 251.2 316.2 251.5 319.5 256.1 321.8 257.7 324.4 260.6 326.2 261.3 328.6 264.7 329.3 267.1 329.3 271.8 331.5 277.1 332.9 278.3 336.4 278.4 339.7 275.1 342.3 275.5 342.7 276.8 343.4 280.5 339.9 282.4 338.4 280.2 337.9 281.7 339.1 284.7 337.8 287.8 338.9 291.1 339.0 294.0 334.2 294.0 333.3 292.7 329.3 293.5 326.3 292.4 320.2 295.7 318.0 299.2 315.0 300.7 308.3 300.5 305.8 301.6 299.2 301.4 296.2 302.5 296.6 299.6 293.8 298.7 293.8 298.7 291.7 296.1 Z" vector-effect="non-scaling-stroke" stroke="silver" stroke-width="1" class=" highcharts-name-romania highcharts-key-ro"></path><path fill="#90ed7d" d="M 339.0 294.0 L 339.2 298.1 336.7 298.2 335.7 302.9 336.5 305.9 335.4 306.2 333.8 309.3 335.2 309.0 339.4 313.3 336.0 315.0 333.4 313.5 328.2 316.6 327.0 319.2 324.9 320.0 326.2 323.3 319.9 326.0 316.4 325.0 315.6 325.7 313.1 323.9 309.5 325.0 306.4 327.3 301.0 328.7 301.0 324.6 299.1 321.6 296.5 320.9 294.7 319.2 295.8 318.0 294.8 316.4 294.9 313.1 296.6 312.7 297.9 309.0 293.9 306.8 292.0 303.5 292.0 301.5 293.5 298.9 293.8 298.7 293.8 298.7 296.6 299.6 296.2 302.5 299.2 301.4 305.8 301.6 308.3 300.5 315.0 300.7 318.0 299.2 320.2 295.7 326.3 292.4 329.3 293.5 333.3 292.7 334.2 294.0 339.0 294.0 Z" vector-effect="non-scaling-stroke" stroke="silver" stroke-width="1" class=" highcharts-name-bulgaria highcharts-key-bg"></path><path fill="#90ed7d" d="M 348.1 383.9 L 348.3 384.2 347.3 384.9 347.2 384.2 348.1 383.9 M 349.1 379.4 L 349.0 381.6 349.5 383.7 348.3 382.0 349.1 379.4 M 312.1 382.9 L 310.8 383.1 310.9 381.1 312.4 382.5 312.1 382.9 M 356.1 370.6 L 355.4 374.3 353.7 377.3 352.1 374.7 353.5 372.3 356.1 370.6 M 332.7 376.8 L 332.5 377.3 331.7 377.3 332.2 376.8 332.7 376.8 M 348.6 372.1 L 348.9 372.6 348.9 373.0 348.1 372.3 348.6 372.1 M 340.5 372.6 L 339.4 373.8 338.9 373.0 339.6 373.1 340.5 372.6 M 352.1 369.5 L 352.5 369.4 352.7 370.3 351.7 370.1 352.1 369.5 M 323.7 374.2 L 323.9 375.2 322.1 376.0 322.2 374.9 323.7 374.2 M 331.1 373.2 L 331.1 374.1 329.9 373.5 330.2 372.7 331.1 373.2 M 346.2 368.9 L 344.1 370.4 345.0 368.8 346.7 367.7 346.2 368.9 M 336.5 370.2 L 335.1 371.6 334.8 371.1 335.8 369.9 336.5 370.2 M 324.1 371.2 L 325.2 372.0 324.9 372.6 324.0 371.5 324.1 371.2 M 342.8 366.5 L 344.4 367.1 343.5 368.0 343.6 367.2 342.8 366.5 M 327.7 371.1 L 328.1 369.7 329.0 369.3 328.9 370.8 327.7 371.1 M 331.9 368.9 L 331.1 371.1 329.9 369.7 331.2 368.0 331.9 368.9 M 322.3 369.8 L 322.6 369.8 322.9 370.5 322.0 370.7 322.3 369.8 M 321.7 367.5 L 321.1 368.9 320.8 367.6 321.2 366.9 321.7 367.5 M 328.9 365.1 L 330.0 365.3 329.6 365.9 328.8 366.2 328.9 365.1 M 325.9 366.9 L 325.3 367.4 325.0 367.1 325.4 365.8 325.9 366.9 M 326.4 364.1 L 327.8 364.1 327.7 365.1 325.7 364.3 326.4 364.1 M 320.3 364.9 L 320.6 365.5 319.8 366.7 319.6 365.8 320.3 364.9 M 336.8 361.9 L 334.9 363.6 334.1 363.5 334.7 362.4 336.8 361.9 M 312.9 366.4 L 312.6 366.4 312.1 365.6 313.3 365.4 312.9 366.4 M 341.8 359.4 L 340.7 360.9 338.7 360.3 340.7 359.1 341.8 359.4 M 289.4 368.5 L 291.5 369.6 290.2 370.6 288.3 369.1 289.4 368.5 M 323.8 361.7 L 324.7 361.6 324.8 363.6 322.4 361.8 323.8 361.7 M 312.6 363.2 L 312.8 363.7 312.2 364.3 311.7 364.1 312.6 363.2 M 286.9 362.2 L 289.4 366.2 286.9 366.1 286.4 364.0 286.9 362.2 M 332.4 352.4 L 333.9 355.2 332.9 357.0 330.6 352.8 332.4 352.4 M 288.0 360.0 L 286.7 360.6 286.4 359.9 287.2 358.0 288.0 360.0 M 319.4 351.9 L 320.4 352.6 319.2 352.9 318.5 351.0 319.4 351.9 M 310.7 350.1 L 312.5 350.7 312.1 351.2 311.5 351.2 310.7 350.1 M 333.4 344.0 L 335.7 346.9 332.2 347.6 329.1 345.7 332.7 343.5 333.4 344.0 M 279.5 348.9 L 279.0 350.4 280.0 352.2 277.1 349.7 279.5 348.9 M 323.9 338.4 L 323.7 341.1 321.1 341.1 320.7 339.4 323.9 338.4 M 324.7 333.2 L 324.9 333.8 324.2 334.2 323.0 333.6 324.7 333.2 M 317.3 333.3 L 315.1 333.5 315.8 331.6 316.9 332.0 317.3 333.3 M 280.2 349.9 L 281.6 350.2 283.3 347.9 282.3 346.3 284.9 344.9 287.0 338.1 287.7 337.2 286.9 338.0 286.2 337.3 286.4 337.0 286.8 336.4 287.5 336.2 291.2 335.5 293.4 332.6 295.5 331.6 299.8 330.7 301.0 328.7 306.4 327.3 309.5 325.0 313.1 323.9 315.6 325.7 316.4 325.0 319.9 326.0 326.2 323.3 324.9 320.0 327.0 319.2 329.3 319.8 330.2 322.1 328.1 324.0 329.0 326.9 327.1 329.9 326.1 328.9 322.7 329.4 318.5 328.8 316.9 330.8 314.9 330.2 311.7 333.2 309.2 333.2 308.4 334.3 315.0 338.6 310.9 337.3 309.2 338.1 312.0 339.9 312.3 341.6 309.2 339.3 306.5 339.9 310.1 342.5 307.2 342.5 306.2 339.7 301.8 337.6 302.3 336.0 299.9 338.3 300.8 339.2 300.6 342.7 303.5 345.3 308.6 350.8 304.9 349.5 304.6 351.8 306.7 352.7 304.6 355.8 309.5 356.5 310.0 358.0 315.5 359.2 317.7 364.7 317.5 365.9 314.9 364.6 312.9 362.4 308.5 365.4 310.0 365.6 310.3 367.7 313.6 368.7 311.2 370.0 306.6 369.1 311.4 376.6 310.8 377.5 312.9 380.2 306.8 377.4 306.9 380.9 302.7 375.5 301.0 376.3 300.9 379.1 299.3 378.5 297.5 374.9 298.3 373.4 296.6 370.6 292.5 368.2 294.0 363.8 296.1 364.2 298.7 361.8 301.2 363.0 306.8 363.7 309.7 362.4 304.9 360.9 298.8 360.9 295.2 362.8 293.7 361.8 292.0 363.2 291.1 360.8 288.2 357.1 290.9 355.8 286.9 355.6 283.9 353.7 280.2 349.9 M 287.9 363.0 L 288.3 363.6 287.9 363.1 287.9 363.0 287.9 363.0 M 312.3 357.2 L 308.1 354.7 306.1 354.4 308.5 352.3 310.0 353.6 311.5 354.7 315.7 354.9 319.1 360.0 321.1 359.6 321.2 361.5 319.7 361.9 316.0 358.7 312.6 358.4 312.3 357.2 M 337.6 387.4 L 338.5 389.6 342.0 386.9 342.5 389.6 329.5 393.7 328.8 391.9 326.0 391.5 320.4 392.1 318.0 391.9 318.0 388.3 319.2 389.2 323.2 387.6 324.4 389.9 330.4 388.0 335.2 388.3 337.6 387.4 M 287.9 363.0 L 287.2 362.2 287.7 361.9 287.9 363.0 287.9 363.0 Z" vector-effect="non-scaling-stroke" stroke="silver" stroke-width="1" class=" highcharts-name-greece highcharts-key-gr"></path><path fill="#90ed7d" d="M 327.8 336.1 L 326.4 337.1 325.5 337.0 327.2 335.3 327.8 336.1 M 339.8 327.7 L 340.7 327.7 339.9 328.6 339.1 328.1 339.8 327.7 M 327.0 319.2 L 328.2 316.6 333.4 313.5 336.0 315.0 339.4 313.3 340.8 316.6 343.7 318.0 349.9 318.7 349.6 321.4 346.6 322.4 343.5 322.1 341.6 323.8 338.1 324.5 336.3 328.9 332.9 331.6 329.6 336.8 329.4 333.9 333.7 329.9 327.6 331.1 327.1 329.9 329.0 326.9 328.1 324.0 330.2 322.1 329.3 319.8 327.0 319.2 M 425.8 344.1 L 424.9 343.9 425.2 347.7 425.8 348.2 425.8 350.5 424.9 350.9 425.7 353.3 424.6 355.8 419.8 351.8 422.0 347.6 419.4 344.9 417.2 347.6 417.4 349.3 415.3 350.8 409.5 349.8 407.9 350.9 403.0 359.8 398.4 361.5 396.0 363.5 391.8 363.1 387.7 360.3 381.1 359.3 375.4 360.1 375.0 367.5 373.6 367.2 369.2 370.6 364.0 369.5 361.1 365.7 360.7 367.1 358.1 365.8 355.3 366.1 354.6 369.1 353.6 367.6 350.7 369.5 348.0 369.9 349.9 368.1 353.5 367.0 353.0 365.9 355.0 364.0 346.4 367.1 348.6 363.1 345.0 363.1 343.6 356.4 340.3 356.6 339.0 354.9 337.9 356.4 334.5 355.4 336.3 353.9 334.6 351.5 335.8 350.8 338.1 354.2 339.9 352.3 337.4 349.7 339.5 346.8 335.2 344.1 337.2 341.3 336.7 340.3 330.3 343.0 329.8 338.0 333.4 332.1 337.8 330.4 339.3 331.6 342.7 329.9 352.5 326.9 349.2 326.8 350.6 325.1 357.7 321.8 353.2 323.1 350.0 321.5 350.8 318.4 356.2 317.9 359.0 316.4 363.7 316.5 366.8 315.4 367.4 312.7 372.1 308.1 372.7 306.5 379.8 300.9 390.3 298.0 391.7 295.8 395.0 298.4 397.7 298.9 400.6 296.7 402.9 298.9 406.1 300.2 406.9 298.4 409.9 298.1 410.8 299.0 415.4 298.9 415.9 297.5 418.0 298.5 421.5 297.7 425.8 294.7 425.8 344.1 Z" vector-effect="non-scaling-stroke" stroke="silver" stroke-width="1" class=" highcharts-name-turkey highcharts-key-tr"></path><path fill="#90ed7d" d="M 407.5 371.4 L 407.5 371.4 407.4 371.4 407.5 371.3 407.5 371.4 M 409.7 370.1 L 410.7 370.8 408.9 371.5 407.8 370.9 408.6 370.4 408.9 370.4 409.7 370.1 M 407.2 371.9 L 406.9 373.7 402.5 377.4 400.7 377.2 400.3 377.9 396.9 377.8 394.7 374.6 397.0 373.0 397.4 373.1 397.6 372.6 397.9 372.6 399.4 373.5 404.1 370.8 405.0 372.3 407.2 371.7 407.2 371.9 407.2 371.9 M 407.7 371.5 L 407.8 371.5 408.0 371.6 407.9 371.6 407.7 371.5 Z" vector-effect="non-scaling-stroke" stroke="silver" stroke-width="1" class=" highcharts-name-cyprus highcharts-key-cy"></path></g></g><g class="highcharts-markers highcharts-tracker" visibility="visible"  transform="translate(10,47) scale(1 1)" style="" clip-path="none"></g><g class="highcharts-series highcharts-tracker" visibility="visible"  transform="translate(10,47) scale(1 1)" style="" clip-path="url(#highcharts-1)"><g transform="translate(0,0) scale(1 1)"><path fill="#f7a35c" d="M 293.9 125.0 L 294.3 124.7 295.1 125.1 294.6 125.4 293.9 125.0 M 316.3 72.9 L 315.4 72.5 315.6 72.3 316.2 72.5 316.3 72.9 M 334.0 62.2 L 332.0 61.6 333.0 60.9 333.6 61.4 334.0 62.2 M 313.1 66.0 L 312.9 67.0 311.2 66.0 312.3 65.0 313.1 66.0 M 313.0 64.3 L 313.4 64.6 314.2 64.3 313.5 64.9 313.0 64.3 M 333.8 37.9 L 332.9 37.9 332.4 37.3 332.9 37.1 333.8 37.9 M 355.1 3.4 L 354.3 5.0 354.8 3.0 356.0 2.4 355.1 3.4 M 291.1 23.9 L 289.6 24.4 289.4 24.0 290.2 23.6 291.1 23.9 M 263.3 185.8 L 261.0 189.4 264.4 189.6 265.2 189.1 265.0 185.8 270.3 187.3 273.1 186.5 274.8 187.9 274.8 192.7 275.5 193.6 275.1 193.8 257.1 195.7 260.7 192.4 258.0 192.7 257.4 193.6 257.4 193.6 257.4 193.6 258.1 190.1 260.0 189.8 261.5 188.5 262.9 185.8 263.3 185.8 263.3 185.8 M 293.3 139.7 L 293.4 138.8 293.5 137.9 293.8 136.5 294.1 136.2 294.3 135.9 293.9 135.9 294.3 135.9 294.8 135.4 294.2 134.7 293.6 134.3 293.1 131.0 295.0 132.0 295.2 129.8 297.6 129.4 298.1 127.4 303.7 127.2 301.1 124.8 296.8 125.6 294.4 123.5 293.7 120.5 291.8 123.1 289.7 123.6 293.2 116.7 294.8 114.6 296.7 110.3 299.1 103.1 301.0 98.9 301.2 94.3 298.7 91.9 294.5 90.1 291.4 87.9 293.0 84.6 292.5 82.2 289.6 81.1 288.8 79.3 289.6 78.3 288.6 77.0 287.3 77.3 285.9 75.5 286.4 72.9 284.6 68.7 286.2 67.9 284.0 63.5 281.3 59.9 278.5 56.7 278.1 55.1 278.9 51.4 279.9 48.7 279.7 46.8 277.9 45.7 275.7 43.4 272.9 42.8 271.1 39.4 271.6 35.9 270.1 35.6 271.6 33.7 272.5 32.5 272.4 30.6 274.3 29.2 274.9 26.0 277.3 26.3 276.4 23.4 279.0 24.0 280.3 23.6 279.6 21.8 280.8 22.3 280.3 20.4 285.2 22.3 284.6 23.4 281.8 23.5 283.6 24.6 285.7 24.3 285.3 25.7 287.5 24.2 287.4 26.6 288.4 26.8 288.3 25.2 291.2 24.3 294.7 24.2 294.8 23.5 297.5 23.6 305.7 25.9 310.0 28.4 310.5 27.8 315.3 29.5 317.3 29.3 322.6 30.7 325.0 35.0 325.8 34.8 327.1 36.9 327.3 39.3 326.2 44.6 323.0 49.2 320.2 51.4 317.5 52.1 312.4 51.8 310.4 52.5 305.8 52.8 302.7 51.7 301.4 52.9 299.9 51.8 298.4 52.2 296.7 51.3 296.9 52.3 293.4 50.7 292.9 49.5 290.6 49.9 292.2 50.9 294.1 53.2 295.8 53.1 295.4 55.2 298.8 55.0 298.8 56.3 303.3 57.2 305.5 58.9 306.4 60.8 305.2 60.1 306.3 62.1 305.7 64.9 309.7 69.4 309.5 70.6 310.8 71.8 310.1 72.7 313.9 74.4 315.4 73.2 318.1 74.7 318.8 75.7 323.1 75.4 323.9 75.9 326.5 73.3 325.0 69.7 323.2 69.1 322.1 70.6 320.9 70.5 315.9 66.3 317.3 65.3 317.3 62.8 320.9 63.2 323.0 64.3 327.3 63.9 330.8 64.6 331.4 62.8 332.2 62.8 331.4 62.5 331.7 62.0 334.5 62.6 334.0 62.8 334.8 62.8 332.6 59.4 327.7 55.8 327.3 53.6 328.6 51.6 329.5 48.1 331.4 46.3 332.3 43.1 332.6 40.1 334.7 40.1 334.6 40.9 337.1 39.0 340.6 40.3 343.4 42.5 341.1 38.5 340.7 34.3 339.5 31.9 337.9 30.7 335.7 30.7 334.8 29.1 333.7 24.0 331.9 19.4 331.1 18.8 326.8 17.6 327.1 16.8 329.5 17.0 334.2 14.6 337.0 14.3 337.9 15.3 340.7 16.2 343.0 18.6 338.6 22.4 339.2 23.8 338.4 25.0 339.2 27.1 342.5 27.4 344.8 29.5 348.0 28.7 351.2 24.5 350.0 22.6 349.6 19.8 348.5 19.0 349.4 16.9 351.0 15.4 350.4 14.0 351.5 13.3 354.0 7.2 354.3 5.0 355.0 5.0 357.8 0 357.9 0 358.8 2.0 360.0 1.8 360.2 0 363.3 0 363.3 0.6 364.6 0 425.8 0 425.8 265.3 424.2 265.8 423.2 268.4 412.9 264.0 409.5 263.4 406.2 263.9 403.0 262.0 400.2 263.2 397.9 261.3 392.0 260.5 392.7 257.5 395.4 258.7 397.8 256.3 399.5 256.3 397.2 253.2 398.4 251.7 398.2 248.5 399.7 246.7 401.9 246.1 397.9 244.8 396.9 245.4 394.1 242.9 396.3 242.6 398.0 239.7 402.9 235.4 401.9 233.0 395.6 237.4 394.4 232.1 396.7 230.4 396.6 228.5 402.7 226.0 402.3 221.1 398.5 217.4 399.6 215.7 397.2 214.8 398.6 213.9 399.1 211.3 397.5 208.1 395.7 209.4 393.4 208.4 390.5 208.1 389.2 209.3 383.4 208.8 383.0 210.8 380.5 209.7 377.3 207.1 374.4 209.2 372.9 211.3 369.0 210.4 366.7 212.1 364.7 211.4 364.1 209.4 360.0 205.2 357.9 206.2 354.1 206.6 354.4 205.1 352.2 202.4 353.3 200.5 351.1 199.8 350.0 197.7 347.9 196.4 346.5 197.7 344.1 197.5 342.9 199.3 339.1 199.7 339.2 202.3 336.2 203.1 334.4 201.3 332.3 196.1 330.2 194.8 330.7 192.7 335.0 192.6 336.7 190.9 337.7 187.8 335.8 187.3 335.3 185.7 332.7 185.3 330.8 186.1 330.4 183.4 326.9 182.5 324.8 178.8 322.0 177.9 322.7 175.1 320.7 172.8 320.2 169.5 317.3 168.2 313.8 168.8 311.8 170.9 310.6 168.4 308.4 168.2 307.4 169.4 306.0 168.2 304.2 169.1 303.1 168.3 302.0 164.3 299.1 161.4 298.3 161.9 298.4 157.0 295.1 155.3 295.4 152.1 296.6 151.3 295.4 150.0 298.4 150.8 298.2 149.3 296.6 147.8 295.0 148.7 294.1 147.8 295.0 145.0 293.3 139.7 M 256.3 195.6 L 256.2 195.5 256.8 194.6 256.8 194.6 256.3 195.6 M 256.8 194.6 L 257.4 193.6 257.4 193.6 257.4 193.6 257.3 193.9 256.8 194.6 256.8 194.6 M 340.6 1.7 L 340.9 0 347.4 0 347.3 0.2 347.6 2.5 346.7 4.5 344.7 6.3 342.4 5.4 340.6 1.7 Z" vector-effect="non-scaling-stroke" stroke="silver" stroke-width="1" class=" highcharts-name-russia highcharts-key-ru"></path></g></g><g class="highcharts-markers highcharts-tracker" visibility="visible"  transform="translate(10,47) scale(1 1)" style="" clip-path="none"></g></g><text x="240" text-anchor="middle" class="highcharts-title"  style="color:#333333;font-size:18px;fill:#333333;width:416px;" y="24"><tspan>Europe time zones</tspan></text><g class="highcharts-data-labels highcharts-tracker" visibility="visible"  transform="translate(10,47) scale(1 1)" clip-path="url(#highcharts-1)" style=""><g  style="" transform="translate(80,193)"><text x="0"  style="font-size: 11px; font-weight: bold; color: white; fill: #ffffff; text-shadow: rgb(0, 0, 0) 0px 0px 6px, rgb(0, 0, 0) 0px 0px 3px; " transform="translate(0,11)"><tspan>IE</tspan></text></g><g  style="" transform="translate(69,59)"><text x="0"  style="font-size: 11px; font-weight: bold; color: white; fill: #ffffff; text-shadow: rgb(0, 0, 0) 0px 0px 6px, rgb(0, 0, 0) 0px 0px 3px; " transform="translate(0,11)"><tspan>IS</tspan></text></g><g  style="" transform="translate(114,213)"><text x="0"  style="font-size: 11px; font-weight: bold; color: white; fill: #ffffff; text-shadow: rgb(0, 0, 0) 0px 0px 6px, rgb(0, 0, 0) 0px 0px 3px; " transform="translate(0,11)"><tspan>GB</tspan></text></g><g  style="" transform="translate(44,325)"><text x="0"  style="font-size: 11px; font-weight: bold; color: white; fill: #ffffff; text-shadow: rgb(0, 0, 0) 0px 0px 6px, rgb(0, 0, 0) 0px 0px 3px; " transform="translate(0,11)"><tspan>PT</tspan></text></g></g><g class="highcharts-data-labels highcharts-tracker" visibility="visible"  transform="translate(10,47) scale(1 1)" clip-path="url(#highcharts-1)" style=""><g  style="" transform="translate(183,126)"><text x="0"  style="font-size: 11px; font-weight: bold; color: white; fill: #ffffff; text-shadow: rgb(0, 0, 0) 0px 0px 6px, rgb(0, 0, 0) 0px 0px 3px; " transform="translate(0,11)"><tspan>NO</tspan></text></g><g  style="" transform="translate(227,87)"><text x="0"  style="font-size: 11px; font-weight: bold; color: white; fill: #ffffff; text-shadow: rgb(0, 0, 0) 0px 0px 6px, rgb(0, 0, 0) 0px 0px 3px; " transform="translate(0,11)"><tspan>SE</tspan></text></g><g  style="" transform="translate(187,173)"><text x="0"  style="font-size: 11px; font-weight: bold; color: white; fill: #ffffff; text-shadow: rgb(0, 0, 0) 0px 0px 6px, rgb(0, 0, 0) 0px 0px 3px; " transform="translate(0,11)"><tspan>DK</tspan></text></g><g  style="" transform="translate(191,230)"><text x="0"  style="font-size: 11px; font-weight: bold; color: white; fill: #ffffff; text-shadow: rgb(0, 0, 0) 0px 0px 6px, rgb(0, 0, 0) 0px 0px 3px; " transform="translate(0,11)"><tspan>DE</tspan></text></g><g  style="" transform="translate(155,231)"><text x="0"  style="font-size: 11px; font-weight: bold; color: white; fill: #ffffff; text-shadow: rgb(0, 0, 0) 0px 0px 6px, rgb(0, 0, 0) 0px 0px 3px; " transform="translate(0,11)"><tspan>BE</tspan></text></g><g  style="" transform="translate(80,335)"><text x="0"  style="font-size: 11px; font-weight: bold; color: white; fill: #ffffff; text-shadow: rgb(0, 0, 0) 0px 0px 6px, rgb(0, 0, 0) 0px 0px 3px; " transform="translate(0,11)"><tspan>ES</tspan></text></g><g  style="" transform="translate(135,278)"><text x="0"  style="font-size: 11px; font-weight: bold; color: white; fill: #ffffff; text-shadow: rgb(0, 0, 0) 0px 0px 6px, rgb(0, 0, 0) 0px 0px 3px; " transform="translate(0,11)"><tspan>FR</tspan></text></g><g  style="" transform="translate(251,215)"><text x="0"  style="font-size: 11px; font-weight: bold; color: white; fill: #ffffff; text-shadow: rgb(0, 0, 0) 0px 0px 6px, rgb(0, 0, 0) 0px 0px 3px; " transform="translate(0,11)"><tspan>PL</tspan></text></g><g  style="" transform="translate(223,264)"><text x="0"  style="font-size: 11px; font-weight: bold; color: white; fill: #ffffff; text-shadow: rgb(0, 0, 0) 0px 0px 6px, rgb(0, 0, 0) 0px 0px 3px; " transform="translate(0,11)"><tspan>AT</tspan></text></g><g  style="" transform="translate(175,273)"><text x="0"  style="font-size: 11px; font-weight: bold; color: white; fill: #ffffff; text-shadow: rgb(0, 0, 0) 0px 0px 6px, rgb(0, 0, 0) 0px 0px 3px; " transform="translate(0,11)"><tspan>CH</tspan></text></g><g  style="" transform="translate(208,312)"><text x="0"  style="font-size: 11px; font-weight: bold; color: white; fill: #ffffff; text-shadow: rgb(0, 0, 0) 0px 0px 6px, rgb(0, 0, 0) 0px 0px 3px; " transform="translate(0,11)"><tspan>IT</tspan></text></g></g><g class="highcharts-data-labels highcharts-tracker" visibility="visible"  transform="translate(10,47) scale(1 1)" clip-path="url(#highcharts-1)" style=""><g  style="" transform="translate(270,100)"><text x="0"  style="font-size: 11px; font-weight: bold; color: white; fill: #ffffff; text-shadow: rgb(0, 0, 0) 0px 0px 6px, rgb(0, 0, 0) 0px 0px 3px; " transform="translate(0,11)"><tspan>FI</tspan></text></g><g  style="" transform="translate(306,186)"><text x="0"  style="font-size: 11px; font-weight: bold; color: white; fill: #ffffff; text-shadow: rgb(0, 0, 0) 0px 0px 6px, rgb(0, 0, 0) 0px 0px 3px; " transform="translate(0,11)"><tspan>BY</tspan></text></g><g  style="" transform="translate(335,229)"><text x="0"  style="font-size: 11px; font-weight: bold; color: white; fill: #ffffff; text-shadow: rgb(0, 0, 0) 0px 0px 6px, rgb(0, 0, 0) 0px 0px 3px; " transform="translate(0,11)"><tspan>UA</tspan></text></g><g  style="" transform="translate(296,273)"><text x="0"  style="font-size: 11px; font-weight: bold; color: white; fill: #ffffff; text-shadow: rgb(0, 0, 0) 0px 0px 6px, rgb(0, 0, 0) 0px 0px 3px; " transform="translate(0,11)"><tspan>RO</tspan></text></g><g  style="" transform="translate(310,304)"><text x="0"  style="font-size: 11px; font-weight: bold; color: white; fill: #ffffff; text-shadow: rgb(0, 0, 0) 0px 0px 6px, rgb(0, 0, 0) 0px 0px 3px; " transform="translate(0,11)"><tspan>BG</tspan></text></g><g  style="" transform="translate(286,343)"><text x="0"  style="font-size: 11px; font-weight: bold; color: white; fill: #ffffff; text-shadow: rgb(0, 0, 0) 0px 0px 6px, rgb(0, 0, 0) 0px 0px 3px; " transform="translate(0,11)"><tspan>GR</tspan></text></g><g  style="" transform="translate(380,327)"><text x="0"  style="font-size: 11px; font-weight: bold; color: white; fill: #ffffff; text-shadow: rgb(0, 0, 0) 0px 0px 6px, rgb(0, 0, 0) 0px 0px 3px; " transform="translate(0,11)"><tspan>TR</tspan></text></g></g><g class="highcharts-data-labels highcharts-tracker" visibility="visible"  transform="translate(10,47) scale(1 1)" clip-path="url(#highcharts-1)" style=""><g  style="" transform="translate(345,112)"><text x="0"  style="font-size: 11px; font-weight: bold; color: white; fill: #ffffff; text-shadow: rgb(0, 0, 0) 0px 0px 6px, rgb(0, 0, 0) 0px 0px 3px; " transform="translate(0,11)"><tspan>RU</tspan></text></g></g><g class="highcharts-legend"  transform="translate(75,455)"><g ><g><g class="highcharts-legend-item"  transform="translate(8,3)"><text x="21" style="color:#333333;font-size:12px;font-weight:bold;cursor:pointer;fill:#333333;" text-anchor="start"  y="15">UTC</text><rect x="0" y="4" width="16" height="12"  fill="#7cb5ec"></rect></g><g class="highcharts-legend-item"  transform="translate(72,3)"><text x="21" y="15" style="color:#333333;font-size:12px;font-weight:bold;cursor:pointer;fill:#333333;" text-anchor="start" ><tspan>UTC + 1</tspan></text><rect x="0" y="4" width="16" height="12"  fill="#434348"></rect></g><g class="highcharts-legend-item"  transform="translate(162,3)"><text x="21" y="15" style="color:#333333;font-size:12px;font-weight:bold;cursor:pointer;fill:#333333;" text-anchor="start" ><tspan>UTC + 2</tspan></text><rect x="0" y="4" width="16" height="12"  fill="#90ed7d"></rect></g><g class="highcharts-legend-item"  transform="translate(252,3)"><text x="21" y="15" style="color:#333333;font-size:12px;font-weight:bold;cursor:pointer;fill:#333333;" text-anchor="start" ><tspan>UTC + 3</tspan></text><rect x="0" y="4" width="16" height="12"  fill="#f7a35c"></rect></g></g></g></g><g class="highcharts-axis-labels highcharts-xaxis-labels" ></g><g class="highcharts-axis-labels highcharts-yaxis-labels" ></g><g class="highcharts-tooltip"  style="cursor:default;padding:0;white-space:nowrap;" transform="translate(0,-9999)"><path fill="none" d="M 3 0 L 13 0 C 16 0 16 0 16 3 L 16 13 C 16 16 16 16 13 16 L 3 16 C 0 16 0 16 0 13 L 0 3 C 0 0 0 0 3 0"  stroke="black" stroke-opacity="0.0" stroke-width="5" transform="translate(1, 1)"></path><path fill="none" d="M 3 0 L 13 0 C 16 0 16 0 16 3 L 16 13 C 16 16 16 16 13 16 L 3 16 C 0 16 0 16 0 13 L 0 3 C 0 0 0 0 3 0"  stroke="black" stroke-opacity="0.0" stroke-width="3" transform="translate(1, 1)"></path><path fill="none" d="M 3 0 L 13 0 C 16 0 16 0 16 3 L 16 13 C 16 16 16 16 13 16 L 3 16 C 0 16 0 16 0 13 L 0 3 C 0 0 0 0 3 0"  stroke="black" stroke-opacity="0.1" stroke-width="1" transform="translate(1, 1)"></path><path fill="rgb(249, 249, 249)" fill-opacity=" .85" d="M 3 0 L 13 0 C 16 0 16 0 16 3 L 16 13 C 16 16 16 16 13 16 L 3 16 C 0 16 0 16 0 13 L 0 3 C 0 0 0 0 3 0"></path><text x="8"  style="font-size:12px;color:#333333;fill:#333333;" transform="translate(0,20)"></text></g></svg>