<svg version="1.1" style="font-family:&quot;lucida grande&quot;, &quot;lucida sans unicode&quot;, arial, helvetica, sans-serif;font-size:12px;" xmlns="http://www.w3.org/2000/svg" width="584" height="500" viewBox="0 0 584 500"><desc>Created with Highmaps 1.1.4</desc><defs><linearGradient x1="0" y1="0" x2="0" y2="1" id="highcharts-1"><stop offset="0" stop-color="#FEFEFE" stop-opacity="1"></stop><stop offset="1" stop-color="#F6F6F6" stop-opacity="1"></stop></linearGradient><linearGradient x1="0" y1="0" x2="1" y2="0" id="highcharts-2"><stop offset="0" stop-color="#EFEFFF" stop-opacity="1"></stop><stop offset="0.6" stop-color="#4444FF" stop-opacity="1"></stop><stop offset="1" stop-color="#000022" stop-opacity="1"></stop></linearGradient><clipPath id="highcharts-3"><rect x="0" y="0" width="564" height="438"></rect></clipPath></defs><rect x="0.5" y="0.5" width="582" height="498" strokeWidth="1" fill="#FFFFFF" stroke="#4572A7" stroke-width="1" class=" highcharts-background"></rect><g class="highcharts-grid" ></g><g class="highcharts-grid" ></g><g class="highcharts-axis" ></g><g class="highcharts-axis" ></g><g class="highcharts-series-group" ><g class="highcharts-series highcharts-tracker" visibility="visible"  transform="translate(10,47) scale(1 1)" style="" clip-path="url(#highcharts-3)"><g transform="translate(0,0) scale(1 1)"><path fill="rgb(25,25,114)" d="M 499.7 154.1 L 500.6 152.0 499.5 151.1 502.7 145.1 507.2 146.6 511.7 148.0 511.4 151.9 509.6 155.4 513.2 156.8 513.8 165.0 512.1 167.7 511.9 170.7 509.9 173.3 508.5 177.2 507.7 174.6 505.0 174.7 500.2 171.8 500.1 171.8 500.1 171.6 500.2 167.6 502.9 165.6 503.7 163.5 506.1 160.8 501.3 156.5 499.7 154.1 Z" vector-effect="non-scaling-stroke" stroke="silver" stroke-width="1" class=" highcharts-name-new-jersey highcharts-key-us-nj"></path><path fill="rgb(28,28,126)" d="M 537.3 134.0 L 536.6 134.3 536.0 132.0 536.7 132.0 537.3 134.0 M 528.9 129.3 L 532.9 128.1 535.5 131.7 536.3 134.6 534.2 136.9 530.9 138.5 530.7 135.7 528.9 129.3 Z" vector-effect="non-scaling-stroke" stroke="silver" stroke-width="1" class=" highcharts-name-rhode-island highcharts-key-us-ri"></path><path fill="rgb(35,35,147)" d="M 542.1 133.4 L 544.5 134.0 542.4 134.7 541.4 135.7 542.1 133.4 M 536.0 132.0 L 535.9 131.4 535.5 131.7 532.9 128.1 528.9 129.3 519.6 131.5 512.4 133.0 512.1 132.8 512.2 123.5 515.7 122.6 520.0 121.6 520.0 121.6 531.3 119.0 532.3 117.2 535.3 115.4 536.2 117.4 538.3 117.9 535.9 120.0 535.3 123.4 538.7 123.8 542.0 128.4 544.8 129.0 547.0 127.3 548.3 128.6 545.9 129.4 541.5 132.5 541.1 130.0 537.3 134.0 536.7 132.0 536.0 132.0 Z" vector-effect="non-scaling-stroke" stroke="silver" stroke-width="1" class=" highcharts-name-massachusetts highcharts-key-us-ma"></path><path fill="rgb(39,39,160)" d="M 530.9 138.5 L 530.3 138.2 524.7 141.0 520.9 142.1 514.3 147.2 513.2 146.1 515.1 144.0 514.3 143.1 512.4 133.0 519.6 131.5 528.9 129.3 530.7 135.7 530.9 138.5 Z" vector-effect="non-scaling-stroke" stroke="silver" stroke-width="1" class=" highcharts-name-connecticut highcharts-key-us-ct"></path><path fill="rgb(47,47,186)" d="M 507.3 190.2 L 507.7 189.0 507.5 190.2 507.3 190.2 M 508.2 184.0 L 508.2 185.6 508.1 184.1 508.1 184.1 508.2 184.0 M 506.1 190.6 L 503.7 191.5 503.5 191.9 501.4 192.8 501.5 189.7 498.5 189.2 495.0 186.8 497.9 184.9 494.3 182.9 496.0 181.0 494.3 180.3 493.5 177.7 495.3 174.0 495.6 171.0 492.1 176.7 490.2 176.9 492.2 178.9 491.5 181.7 492.8 186.5 494.4 189.0 491.7 187.4 496.0 191.1 496.2 192.4 493.3 190.9 490.2 190.8 487.6 188.2 486.1 190.2 485.1 188.6 486.2 185.6 486.6 184.5 486.8 184.0 487.7 182.6 485.5 182.5 480.8 180.4 481.0 179.1 478.0 178.6 476.2 175.1 473.0 174.5 470.1 176.1 470.0 177.4 466.5 176.6 465.1 179.4 464.0 179.2 460.3 183.7 459.2 176.8 476.9 173.4 496.8 169.2 501.5 185.5 507.8 184.1 507.8 187.1 506.1 190.6 Z" vector-effect="non-scaling-stroke" stroke="silver" stroke-width="1" class=" highcharts-name-maryland highcharts-key-us-md"></path><path fill="rgb(49,49,192)" d="M 502.7 145.1 L 498.3 142.6 497.5 139.8 494.5 138.2 450.8 147.1 450.2 143.6 455.4 138.3 457.5 134.3 454.9 131.2 454.6 128.9 458.0 127.1 463.5 125.5 469.3 126.3 474.6 124.8 477.1 123.5 479.4 120.3 481.5 119.1 480.4 115.6 478.2 112.2 479.7 109.7 482.3 107.9 483.2 104.9 486.3 100.3 489.7 97.4 503.9 94.0 505.2 99.7 506.1 100.9 506.2 106.7 507.9 110.6 507.9 112.7 509.7 112.9 512.2 123.5 512.1 132.8 512.4 133.0 514.3 143.1 515.1 144.0 513.2 146.1 514.3 147.2 513.5 149.7 516.1 147.5 524.6 144.7 526.7 142.1 528.9 142.1 531.7 141.7 527.0 145.9 524.0 147.4 521.4 150.0 516.4 152.6 512.3 153.7 509.9 155.3 512.3 150.8 511.6 151.3 511.7 148.0 507.2 146.6 503.9 145.5 502.7 145.1 502.7 145.1 Z" vector-effect="non-scaling-stroke" stroke="silver" stroke-width="1" class=" highcharts-name-new-york highcharts-key-us-ny"></path><path fill="rgb(56,56,215)" d="M 508.1 184.1 L 507.8 184.0 507.8 184.1 501.5 185.5 496.8 169.2 498.3 167.2 500.2 167.2 499.0 170.1 500.1 171.6 500.2 171.8 501.6 173.7 502.8 176.9 505.9 179.9 506.8 179.7 508.2 184.0 508.1 184.1 508.1 184.1 Z" vector-effect="non-scaling-stroke" stroke="silver" stroke-width="1" class=" highcharts-name-delaware highcharts-key-us-de"></path><path fill="rgb(65,65,244)" d="M 389.1 312.5 L 389.1 310.3 386.2 307.4 386.4 305.7 416.5 302.4 418.6 306.0 449.5 303.9 450.6 306.5 452.1 306.1 451.5 301.2 452.8 299.9 457.8 300.6 458.5 300.6 459.9 305.9 462.9 313.2 468.1 321.6 474.2 328.8 473.6 329.9 475.2 334.9 478.0 338.9 483.2 348.1 484.4 353.7 484.9 362.8 483.4 368.8 484.0 373.3 475.1 375.4 471.4 367.8 466.6 365.2 465.3 365.7 462.9 359.3 459.7 359.7 459.4 353.5 456.2 354.3 450.8 347.0 453.3 341.6 452.8 340.0 450.6 340.8 450.6 343.3 448.1 342.2 447.9 337.3 448.8 333.2 448.3 327.4 445.7 323.6 443.0 324.0 437.8 319.8 433.9 315.0 429.5 313.0 425.4 314.6 423.4 318.1 419.2 321.1 414.7 320.8 415.0 319.1 410.1 315.2 405.3 313.2 399.8 312.5 388.1 315.4 389.1 312.5 Z" vector-effect="non-scaling-stroke" stroke="silver" stroke-width="1" class=" highcharts-name-florida highcharts-key-us-fl"></path><path fill="rgb(67,67,251)" d="M 401.1 158.8 L 406.1 158.0 414.5 156.6 420.7 158.4 420.0 159.1 424.7 159.7 429.2 157.5 432.9 156.7 435.7 153.5 443.3 148.7 446.4 166.4 444.9 167.5 446.3 171.4 444.8 178.7 445.1 180.6 441.9 184.2 439.4 184.6 436.5 189.5 436.1 192.3 434.2 190.9 433.1 194.0 433.7 196.3 432.4 198.8 429.8 199.5 429.8 199.5 427.0 197.6 426.0 195.6 421.9 198.2 419.3 197.1 417.6 198.3 415.8 196.8 412.3 196.6 409.1 193.1 405.2 193.6 401.8 164.2 401.1 158.8 Z" vector-effect="non-scaling-stroke" stroke="silver" stroke-width="1" class=" highcharts-name-ohio highcharts-key-us-oh"></path><path fill="rgb(67,67,252)" d="M 499.5 151.1 L 499.7 154.1 501.3 156.5 506.1 160.8 503.7 163.5 502.7 165.3 500.2 167.2 498.3 167.2 496.8 169.2 476.9 173.4 459.2 176.8 448.5 178.7 446.4 166.4 446.4 166.4 443.3 148.7 444.7 147.9 450.2 143.6 450.8 147.1 494.5 138.2 497.5 139.8 498.3 142.6 502.7 145.1 502.7 145.1 499.5 151.1 Z" vector-effect="non-scaling-stroke" stroke="silver" stroke-width="1" class=" highcharts-name-pennsylvania highcharts-key-us-pa"></path><path fill="rgb(74,74,255)" d="M 370.0 151.4 L 370.1 154.2 373.7 161.4 376.6 193.2 375.5 196.5 377.6 201.2 372.9 210.6 373.1 214.5 372.0 216.9 372.7 219.1 369.1 220.2 369.2 224.8 364.5 223.2 361.8 225.5 362.5 226.5 359.5 225.3 357.8 223.0 358.5 220.6 357.2 217.2 353.0 214.1 350.9 213.4 347.8 209.7 350.0 202.4 346.7 200.8 345.2 202.1 343.8 200.6 342.4 196.3 336.5 191.3 334.5 185.2 335.1 182.4 335.1 182.4 335.1 182.4 335.6 179.4 337.6 178.6 339.6 174.5 338.2 171.3 339.0 168.0 341.9 167.5 345.4 165.3 346.7 162.3 346.7 158.2 344.3 156.7 341.7 153.2 341.7 153.2 343.3 153.1 355.9 152.4 370.0 151.4 Z" vector-effect="non-scaling-stroke" stroke="silver" stroke-width="1" class=" highcharts-name-illinois highcharts-key-us-il"></path><path fill="rgb(75,75,255)" d="M 8.6 117.9 L 49.3 130.0 38.7 169.0 53.5 191.1 65.4 209.2 82.7 234.9 84.1 242.6 86.2 245.6 83.0 247.1 80.9 249.2 80.7 252.1 78.4 255.6 77.3 255.7 76.6 260.1 78.9 261.9 77.5 265.1 75.3 265.0 47.9 261.4 46.9 258.8 47.5 253.3 46.2 249.8 40.2 242.4 37.5 242.0 37.1 237.8 34.1 237.6 30.2 234.4 29.9 232.9 26.7 229.8 21.3 227.6 17.6 226.9 16.2 224.6 18.2 217.4 16.0 215.2 16.9 214.3 14.5 209.3 13.3 208.6 10.7 200.3 9.3 198.5 9.5 194.7 12.3 192.3 11.4 189.6 9.2 189.0 7.4 185.4 7.5 180.7 8.6 177.5 9.8 177.4 9.5 180.4 12.2 183.2 10.5 178.0 11.0 175.0 13.5 175.3 10.0 173.3 8.6 177.0 5.5 173.1 4.9 167.0 0.8 159.1 1.6 157.8 1.5 153.2 2.9 150.9 3.2 146.9 1.8 142.6 0 139.8 0.3 137.3 5.6 130.6 7.7 125.6 8.0 121.5 7.2 120.7 8.6 117.9 Z" vector-effect="non-scaling-stroke" stroke="silver" stroke-width="1" class=" highcharts-name-california highcharts-key-us-ca"></path><path fill="rgb(81,81,255)" d="M 201.1 390.3 L 201.3 390.5 201.6 390.4 202.0 390.5 203.1 390.9 204.0 391.3 205.7 392.4 206.3 392.9 206.6 393.3 206.6 394.3 206.6 394.8 206.9 394.8 207.3 394.6 207.6 394.8 207.7 395.0 207.7 395.5 207.8 395.8 208.0 396.1 208.5 396.5 209.1 396.8 209.3 397.0 209.4 397.2 209.4 397.5 208.8 398.2 208.3 398.4 207.7 399.0 207.2 399.2 207.2 399.3 206.9 399.4 206.5 399.6 205.4 400.0 205.0 399.9 204.7 399.9 204.5 399.9 203.9 400.3 203.7 400.6 203.3 400.7 203.0 400.9 202.4 401.2 202.3 401.3 201.8 401.7 201.7 401.9 201.8 402.3 201.2 402.8 201.1 403.3 200.9 403.5 200.5 403.8 200.4 403.8 200.4 403.5 200.2 403.4 199.8 403.1 199.0 402.7 198.4 402.5 198.2 402.1 198.1 402.0 198.0 401.8 197.9 401.3 198.0 400.7 198.3 399.1 198.2 398.9 198.1 398.6 197.7 397.5 197.5 397.2 197.5 396.9 197.4 396.7 197.2 396.2 197.1 395.9 196.9 395.8 196.7 395.5 196.4 394.8 196.6 394.2 197.2 393.8 197.2 393.6 197.4 393.5 197.8 393.3 198.1 392.8 198.4 392.4 198.6 392.1 198.7 392.1 198.9 391.6 198.8 391.4 198.6 391.3 198.3 390.7 198.1 390.2 198.1 389.5 198.3 389.1 198.4 389.0 198.8 389.0 199.8 389.2 199.9 389.4 200.0 389.7 200.4 389.9 200.7 390.0 200.9 390.2 201.1 390.3 M 191.5 386.1 L 191.4 386.3 191.1 386.3 190.8 386.2 190.3 386.3 190.0 386.4 189.7 386.1 189.9 386.0 190.1 385.8 190.7 385.4 191.0 385.3 191.2 385.3 191.4 385.6 191.3 386.0 191.5 386.1 M 187.5 383.9 L 187.0 383.9 186.8 383.6 186.8 383.3 186.7 382.9 186.7 382.6 186.5 382.5 186.1 382.4 186.0 382.2 186.0 381.9 186.3 381.8 186.7 381.8 187.7 381.9 188.2 382.3 188.5 382.7 188.7 383.0 188.6 383.2 188.4 383.5 187.9 383.8 187.5 383.9 M 190.9 380.7 L 191.0 380.8 191.4 380.9 191.4 381.1 191.5 381.1 191.6 381.4 191.7 381.5 192.0 382.0 192.2 382.0 192.3 381.8 192.5 381.9 193.1 381.8 193.4 381.5 193.6 381.5 193.9 381.5 194.5 381.6 194.6 381.7 194.7 381.8 194.9 382.1 195.3 382.3 195.3 382.4 195.5 382.4 195.6 382.5 195.8 382.7 196.1 382.8 196.5 383.0 197.0 383.1 197.2 383.6 197.2 384.0 197.0 384.4 196.7 384.4 196.5 384.8 196.2 384.8 195.7 385.0 195.1 385.0 194.9 385.0 194.4 385.3 193.9 385.5 193.3 385.4 193.2 385.4 192.8 385.5 192.5 385.2 192.3 384.9 192.4 384.9 192.4 384.7 192.3 383.9 192.2 383.7 192.2 383.5 192.2 383.3 192.0 383.2 191.6 383.2 191.6 383.4 191.5 383.4 191.2 383.2 190.9 383.2 190.7 383.1 190.6 383.1 190.2 382.6 189.9 382.3 189.9 382.0 189.8 381.9 189.9 381.4 190.0 381.1 190.1 380.9 190.2 380.9 190.4 380.7 190.6 380.7 190.8 380.6 190.9 380.7 M 184.0 378.5 L 184.4 378.6 184.6 378.6 184.7 378.7 184.8 378.7 186.3 378.9 186.7 379.0 186.9 378.7 187.0 378.6 187.1 378.8 187.2 379.0 187.7 379.2 188.2 379.1 188.4 379.1 188.7 379.0 189.0 379.0 189.2 379.1 189.3 379.1 189.4 379.2 189.7 379.3 189.5 379.6 189.2 379.9 188.8 380.1 188.4 380.3 188.0 380.4 187.6 380.3 187.2 380.3 186.4 380.0 185.9 379.9 184.7 380.0 184.3 380.0 183.8 380.0 183.6 379.9 183.5 379.8 183.5 379.6 183.7 379.3 183.8 379.2 184.0 379.0 184.1 378.8 183.9 378.5 184.0 378.5 M 177.4 374.4 L 177.4 374.6 177.5 374.7 177.6 374.9 177.8 374.9 178.0 375.1 178.0 375.4 177.8 375.4 177.9 375.9 178.1 376.0 178.3 376.3 178.5 376.3 178.6 376.4 178.7 376.2 178.6 376.1 178.6 376.0 178.7 375.9 179.0 376.0 179.1 375.9 179.1 376.0 179.0 376.2 179.0 376.5 179.1 376.6 179.3 376.9 179.3 377.0 179.4 377.3 179.8 377.5 179.9 377.6 179.4 378.1 179.3 378.1 179.3 378.0 179.2 377.9 178.7 378.0 178.4 378.2 178.1 378.1 178.0 377.9 177.5 377.7 177.3 377.4 177.3 377.3 177.1 377.5 177.2 377.6 176.8 377.6 176.9 377.6 176.8 377.5 176.6 377.5 176.6 377.1 176.9 377.0 177.0 376.9 176.7 376.7 176.6 376.9 176.3 376.7 176.4 377.0 176.4 377.0 176.0 376.8 176.1 376.9 176.5 377.3 176.5 377.5 176.3 377.5 175.3 377.7 175.1 377.6 175.0 377.2 174.9 376.9 174.6 376.6 174.4 376.5 174.4 376.2 174.3 376.1 174.0 375.9 173.9 375.7 173.9 375.1 173.8 375.0 173.4 374.7 173.8 374.6 174.3 374.5 175.0 374.5 175.1 374.3 175.3 374.2 175.6 374.0 175.6 373.9 175.7 373.6 176.1 373.3 176.5 373.2 176.7 373.3 177.0 373.6 177.1 373.9 177.1 374.1 177.4 374.4 M 153.5 372.2 L 153.4 372.2 153.2 372.1 153.0 371.7 153.1 371.5 153.2 371.2 153.6 370.8 153.9 370.6 154.3 370.3 154.5 370.1 154.4 369.9 154.6 369.8 154.8 369.8 155.0 369.9 155.1 370.1 154.9 370.3 154.8 370.5 154.9 370.8 154.7 371.0 154.4 371.2 154.2 371.2 153.8 371.5 153.7 371.7 153.5 372.2 M 162.0 367.5 L 162.1 367.5 162.3 367.5 162.5 367.6 162.6 367.8 162.8 367.9 162.9 368.3 162.9 368.4 162.9 368.8 162.8 368.9 162.7 369.3 162.5 369.4 162.5 369.7 162.5 370.1 162.5 370.4 162.2 370.5 162.4 370.6 162.2 370.7 162.0 370.8 161.9 371.0 161.5 371.3 161.4 371.4 161.0 371.2 160.5 371.2 159.9 371.1 159.8 371.0 159.7 371.1 159.6 371.0 159.4 370.9 159.2 370.6 159.1 370.5 159.0 370.4 158.8 370.4 158.5 370.2 158.1 370.1 158.0 369.8 157.8 369.7 157.8 369.2 157.9 369.2 158.4 368.7 158.4 368.4 158.6 368.2 159.1 368.1 159.4 367.9 159.6 367.7 159.8 367.6 159.9 367.5 160.3 367.4 160.4 367.6 160.8 367.7 160.8 367.5 161.0 367.4 161.4 367.5 161.6 367.5 161.8 367.4 162.0 367.5 Z" vector-effect="non-scaling-stroke" stroke="silver" stroke-width="1" class=" highcharts-name-hawaii highcharts-key-us-hi"></path><path fill="rgb(83,83,255)" d="M 504.6 211.2 L 504.8 210.8 505.0 211.1 504.7 211.2 504.6 211.2 M 505.3 211.0 L 503.9 209.1 504.3 211.3 503.8 211.4 503.8 211.4 503.4 210.9 503.7 211.4 460.4 220.2 448.1 221.9 443.4 222.1 440.3 222.7 421.8 225.3 427.2 222.6 429.7 220.3 431.8 216.3 434.6 214.3 438.2 210.2 440.2 213.3 443.3 213.9 445.2 211.9 446.7 212.9 449.5 211.7 455.9 207.7 455.6 205.3 459.4 196.5 460.3 192.1 464.2 193.7 466.4 187.5 467.6 188.1 471.5 182.1 471.7 178.1 477.5 181.2 478.0 178.6 481.0 179.1 480.8 180.4 485.5 182.5 485.8 182.8 486.1 182.8 486.6 184.5 486.8 185.2 486.2 185.6 485.1 186.4 484.5 189.9 485.8 190.7 487.7 189.4 490.0 191.9 492.9 191.7 494.1 193.1 497.4 194.1 497.5 197.9 490.1 194.6 495.4 198.5 498.8 200.1 496.9 201.5 499.5 205.9 498.2 206.7 495.1 203.8 491.1 203.9 494.7 205.1 497.9 207.7 499.9 206.5 503.0 206.5 505.5 211.0 505.4 211.0 505.3 211.0 M 507.5 190.2 L 507.0 192.1 507.3 190.2 507.5 190.2 M 503.5 191.9 L 503.7 191.5 506.1 190.6 502.8 200.4 503.9 202.4 503.0 204.1 501.6 201.3 501.6 197.7 503.5 191.9 Z" vector-effect="non-scaling-stroke" stroke="silver" stroke-width="1" class=" highcharts-name-virginia highcharts-key-us-va"></path><path fill="rgb(83,83,255)" d="M 405.5 98.5 L 405.8 100.4 403.5 100.5 404.0 98.2 405.5 98.5 M 356.6 75.1 L 355.1 77.4 351.2 80.2 351.2 78.4 356.6 75.1 M 414.5 156.6 L 406.1 158.0 401.1 158.8 401.0 158.0 380.6 160.3 382.7 157.6 384.5 153.1 385.4 146.9 385.0 143.5 380.9 134.8 381.7 132.7 380.5 128.7 382.5 124.6 382.1 120.3 383.6 119.4 383.6 117.0 385.8 116.3 387.3 112.9 388.1 114.5 387.7 117.4 388.7 118.3 389.8 116.1 389.6 112.1 391.5 109.8 393.2 109.5 391.9 106.3 394.6 103.7 397.3 105.0 396.4 103.2 398.5 103.3 397.8 105.1 400.1 105.1 401.5 106.8 407.3 108.0 409.7 111.7 408.5 112.8 410.7 116.5 410.7 121.6 409.1 122.7 408.9 125.5 406.4 126.9 406.6 131.0 408.9 131.8 410.6 130.2 412.5 126.1 415.4 124.6 417.9 126.2 420.8 134.6 422.4 137.9 422.2 143.0 419.2 143.4 418.9 146.8 416.8 148.9 416.2 153.6 414.5 156.6 M 357.2 89.1 L 358.6 91.2 358.6 93.8 360.5 91.6 364.7 91.8 366.3 92.6 369.3 96.6 372.8 96.0 373.7 97.0 376.5 96.6 380.3 93.2 386.1 92.6 391.3 90.6 390.7 94.1 395.4 95.0 396.7 93.7 399.5 93.1 399.7 97.0 402.5 99.8 401.4 100.5 396.6 100.8 395.3 100.1 394.9 102.9 391.9 100.9 386.8 100.5 385.9 102.1 380.4 103.2 379.5 105.3 376.5 107.4 377.5 104.3 375.6 104.9 373.7 107.1 373.4 104.5 368.8 116.0 367.5 115.0 367.9 112.7 366.0 112.8 366.1 108.3 363.4 107.1 362.1 104.9 355.9 104.4 353.1 103.0 343.5 101.1 340.6 97.9 344.2 96.2 346.1 94.2 349.8 93.5 353.6 91.1 356.5 87.9 356.9 88.6 358.2 85.9 361.6 84.1 364.7 84.5 360.2 88.3 358.7 91.1 358.6 89.3 357.2 89.1 Z" vector-effect="non-scaling-stroke" stroke="silver" stroke-width="1" class=" highcharts-name-michigan highcharts-key-us-mi"></path><path fill="rgb(85,85,255)" d="M 373.7 161.4 L 376.2 162.5 380.6 160.3 401.0 158.0 401.1 158.8 401.8 164.2 405.2 193.6 405.8 197.7 402.1 199.5 399.2 199.4 399.8 201.8 396.1 205.7 394.1 210.2 391.4 208.2 386.8 211.9 385.9 210.7 382.4 213.1 379.5 212.0 377.8 213.4 374.6 212.7 373.1 214.5 372.9 210.6 377.6 201.2 375.5 196.5 376.6 193.2 373.7 161.4 Z" vector-effect="non-scaling-stroke" stroke="silver" stroke-width="1" class=" highcharts-name-indiana highcharts-key-us-in"></path><path fill="rgb(85,85,255)" d="M 505.0 211.1 L 505.2 211.8 503.8 211.4 503.8 211.4 504.3 211.3 504.4 211.3 504.6 211.2 504.7 211.2 505.0 211.1 M 505.5 211.0 L 507.0 214.3 512.0 221.0 508.4 217.1 505.3 211.0 505.4 211.0 505.5 211.0 M 460.4 220.2 L 503.7 211.4 507.7 217.0 502.6 215.1 504.5 216.5 497.9 221.0 507.2 218.5 509.1 220.1 509.2 223.6 507.9 223.1 506.7 226.9 504.6 227.8 500.9 226.5 500.9 227.9 496.4 227.5 502.2 228.8 500.7 231.1 502.1 231.4 498.4 234.2 502.9 233.9 503.4 231.8 505.2 233.9 502.6 237.3 497.1 238.6 492.1 243.8 490.8 246.4 490.2 251.5 486.9 251.1 483.4 252.4 469.2 242.5 456.9 244.3 456.4 242.5 452.9 240.4 439.5 241.9 430.8 245.9 426.7 246.6 417.5 248.0 417.7 244.3 419.5 244.0 420.2 241.6 422.6 239.5 425.5 238.9 429.7 235.3 431.2 233.0 434.0 231.1 434.7 232.2 438.5 229.0 439.9 229.6 442.9 225.2 443.4 222.1 448.1 221.9 460.4 220.2 Z" vector-effect="non-scaling-stroke" stroke="silver" stroke-width="1" class=" highcharts-name-north-carolina highcharts-key-us-nc"></path><path fill="rgb(91,91,255)" d="M 438.8 258.9 L 446.9 264.4 449.6 268.3 452.6 269.4 454.7 274.8 457.3 276.3 459.6 281.4 461.9 281.7 462.6 282.1 457.9 289.1 459.2 292.6 457.2 294.1 458.2 297.6 457.8 300.6 452.8 299.9 451.5 301.2 452.1 306.1 450.6 306.5 449.5 303.9 418.6 306.0 416.5 302.4 414.9 298.9 415.2 295.3 413.6 291.6 414.2 287.2 415.6 285.1 411.2 276.5 403.4 249.7 411.5 248.7 417.5 248.0 426.7 246.6 430.8 245.9 428.7 250.2 432.5 252.6 434.7 252.7 438.8 258.9 Z" vector-effect="non-scaling-stroke" stroke="silver" stroke-width="1" class=" highcharts-name-georgia highcharts-key-us-ga"></path><path fill="rgb(92,92,255)" d="M 356.9 240.2 L 357.0 236.9 358.2 233.3 358.9 233.3 359.1 233.9 359.7 233.2 374.7 232.0 374.2 229.5 376.8 229.9 390.6 228.4 421.2 225.7 421.8 225.3 440.3 222.7 443.4 222.1 442.9 225.2 439.9 229.6 438.5 229.0 434.7 232.2 434.0 231.1 431.2 233.0 429.7 235.3 425.5 238.9 422.6 239.5 420.2 241.6 419.5 244.0 417.7 244.3 417.5 248.0 411.5 248.7 403.4 249.7 374.8 252.2 374.9 252.4 370.1 252.8 351.4 254.1 353.5 252.3 353.3 248.7 355.2 246.4 354.8 243.9 357.1 242.4 356.9 240.2 Z" vector-effect="non-scaling-stroke" stroke="silver" stroke-width="1" class=" highcharts-name-tennessee highcharts-key-us-tn"></path><path fill="rgb(92,92,255)" d="M 535.2 112.5 L 535.6 112.6 535.3 115.4 532.3 117.2 531.3 119.0 520.0 121.6 520.0 121.6 518.6 119.9 518.6 114.1 517.8 111.0 518.7 107.2 518.6 100.3 521.4 97.2 522.1 94.9 520.8 93.3 521.0 89.4 521.6 85.3 523.8 84.5 531.4 106.9 531.9 109.2 535.2 112.5 Z" vector-effect="non-scaling-stroke" stroke="silver" stroke-width="1" class=" highcharts-name-new-hampshire highcharts-key-us-nh"></path><path fill="rgb(93,93,255)" d="M 446.9 264.4 L 442.9 261.2 438.8 258.9 434.7 252.7 432.5 252.6 428.7 250.2 430.8 245.9 439.5 241.9 452.9 240.4 456.4 242.5 456.9 244.3 469.2 242.5 483.4 252.4 480.0 256.4 478.4 259.8 478.4 263.0 470.6 272.2 467.2 274.6 463.2 274.9 466.2 275.8 461.9 281.7 459.6 281.4 457.3 276.3 454.7 274.8 452.6 269.4 449.6 268.3 446.9 264.4 Z" vector-effect="non-scaling-stroke" stroke="silver" stroke-width="1" class=" highcharts-name-south-carolina highcharts-key-us-sc"></path><path fill="rgb(103,103,255)" d="M 364.7 318.5 L 359.4 317.9 356.3 316.4 354.0 319.8 358.8 321.0 360.5 319.3 363.4 319.3 361.5 322.1 363.8 322.8 365.6 320.1 367.3 322.1 362.8 326.1 365.2 329.2 369.3 329.6 371.5 331.3 370.3 333.7 367.4 333.4 366.0 331.5 362.0 330.7 362.7 329.6 358.7 328.2 359.2 332.2 357.3 334.1 356.5 332.1 353.9 331.3 352.3 333.7 349.4 333.9 344.0 332.0 344.6 329.3 341.4 328.9 339.4 326.0 337.5 325.0 334.1 326.4 334.5 328.0 339.1 328.3 337.8 329.7 334.2 328.5 332.5 329.3 327.6 328.5 321.5 326.4 314.0 327.6 314.2 323.7 315.2 322.4 314.9 315.8 317.2 309.2 313.4 302.0 313.5 300.2 310.7 296.5 310.5 282.7 341.1 281.6 343.2 281.4 344.5 289.0 346.6 290.4 344.8 294.9 342.1 297.2 340.1 302.2 340.1 305.1 338.9 305.3 339.0 309.0 361.4 307.7 360.4 312.1 364.7 318.5 Z" vector-effect="non-scaling-stroke" stroke="silver" stroke-width="1" class=" highcharts-name-louisiana highcharts-key-us-la"></path><path fill="rgb(103,103,255)" d="M 358.2 233.3 L 358.1 232.6 358.9 233.3 358.2 233.3 M 359.7 233.2 L 362.5 229.9 362.5 226.5 361.8 225.5 364.5 223.2 369.2 224.8 369.1 220.2 372.7 219.1 372.0 216.9 373.1 214.5 374.6 212.7 377.8 213.4 379.5 212.0 382.4 213.1 385.9 210.7 386.8 211.9 391.4 208.2 394.1 210.2 396.1 205.7 399.8 201.8 399.2 199.4 402.1 199.5 405.8 197.7 405.2 193.6 409.1 193.1 412.3 196.6 415.8 196.8 417.6 198.3 419.3 197.1 421.9 198.2 426.0 195.6 427.0 197.6 429.8 199.5 429.8 199.5 429.8 199.5 429.9 203.1 434.4 208.8 438.2 210.2 434.6 214.3 431.8 216.3 429.7 220.3 427.2 222.6 421.8 225.3 421.2 225.7 390.6 228.4 376.8 229.9 374.2 229.5 374.7 232.0 359.7 233.2 M 429.8 199.5 L 429.8 199.5 429.8 199.5 429.8 199.5 429.8 199.5 429.8 199.5 Z" vector-effect="non-scaling-stroke" stroke="silver" stroke-width="1" class=" highcharts-name-kentucky highcharts-key-us-ky"></path><path fill="rgb(104,104,255)" d="M 374.5 112.2 L 374.0 115.3 372.0 119.5 370.8 118.3 372.1 114.7 374.5 112.2 M 341.7 153.2 L 340.9 151.3 337.5 150.3 336.0 144.8 336.7 143.1 334.9 140.2 334.2 134.6 330.5 132.7 326.0 127.9 321.2 125.8 318.9 123.9 319.3 116.5 320.0 114.5 317.9 112.8 317.8 110.9 319.4 108.1 323.2 105.7 322.9 97.8 324.5 96.3 327.5 97.0 335.1 93.3 337.2 93.5 336.8 95.5 338.2 97.3 340.6 97.9 343.5 101.1 353.1 103.0 355.9 104.4 362.1 104.9 363.4 107.1 366.1 108.3 366.0 112.8 367.9 112.7 367.5 115.0 368.8 116.0 366.8 118.3 365.2 123.6 366.3 123.7 368.9 119.5 371.7 119.8 370.2 126.6 370.8 127.8 369.0 132.0 369.5 134.9 368.0 141.0 368.4 144.3 369.8 147.1 370.0 151.4 352.3 152.6 343.3 153.1 341.7 153.2 Z" vector-effect="non-scaling-stroke" stroke="silver" stroke-width="1" class=" highcharts-name-wisconsin highcharts-key-us-wi"></path><path fill="rgb(108,108,255)" d="M 47.9 34.2 L 49.0 35.7 47.1 36.3 47.4 38.6 44.8 36.6 47.9 34.2 M 49.2 39.8 L 47.5 41.4 48.4 42.1 49.6 46.1 47.9 45.1 47.3 41.1 49.2 39.8 48.8 39.4 48.7 37.3 50.3 39.2 51.4 35.4 50.2 34.7 50.2 31.4 100.0 44.8 91.7 79.5 92.1 84.9 72.6 80.1 71.5 80.6 66.9 79.7 60.4 80.6 56.8 79.6 51.4 79.5 50.7 78.2 46.0 76.7 41.1 77.5 37.2 74.9 37.8 70.6 37.3 68.7 35.2 67.0 33.3 66.7 32.9 64.9 29.2 64.3 28.0 62.2 30.3 60.2 31.0 57.6 29.3 57.1 29.6 55.1 32.7 55.1 29.8 53.0 29.8 48.5 30.6 43.2 29.4 40.4 29.6 36.7 31.9 34.6 35.6 38.6 42.4 41.6 43.5 41.0 44.3 43.3 46.7 42.5 46.9 46.2 47.9 46.2 46.1 50.1 47.3 53.5 43.2 52.3 40.3 55.2 43.7 56.1 45.4 53.9 47.6 53.5 48.4 48.2 50.9 46.0 50.0 42.2 50.6 41.3 49.2 39.8 Z" vector-effect="non-scaling-stroke" stroke="silver" stroke-width="1" class=" highcharts-name-washington highcharts-key-us-wa"></path><path fill="rgb(109,109,255)" d="M 389.1 312.5 L 386.6 315.9 381.2 316.1 377.6 314.8 375.0 294.6 376.0 253.7 374.9 252.4 374.8 252.2 403.4 249.7 411.2 276.5 415.6 285.1 414.2 287.2 413.6 291.6 415.2 295.3 414.9 298.9 416.5 302.4 386.4 305.7 386.2 307.4 389.1 310.3 389.1 312.5 Z" vector-effect="non-scaling-stroke" stroke="silver" stroke-width="1" class=" highcharts-name-alabama highcharts-key-us-al"></path><path fill="rgb(112,112,255)" d="M 303.2 235.7 L 303.1 230.7 303.1 229.0 302.6 200.4 300.4 199.1 297.5 194.9 299.8 191.0 295.3 188.6 292.0 184.0 290.5 180.6 290.5 180.6 290.6 180.6 303.8 180.8 318.0 180.4 332.0 179.3 335.1 182.4 335.1 182.4 335.1 182.4 334.5 185.2 336.5 191.3 342.4 196.3 343.8 200.6 345.2 202.1 346.7 200.8 350.0 202.4 347.8 209.7 350.9 213.4 353.0 214.1 357.2 217.2 358.5 220.6 357.8 223.0 359.5 225.3 362.5 226.5 362.5 229.9 359.7 233.2 359.1 233.9 358.9 233.3 358.1 232.6 358.2 233.3 357.0 236.9 356.9 240.2 349.8 240.9 352.9 236.6 351.7 233.8 303.2 235.7 Z" vector-effect="non-scaling-stroke" stroke="silver" stroke-width="1" class=" highcharts-name-missouri highcharts-key-us-mo"></path><path fill="rgb(112,112,255)" d="M 305.3 274.2 L 307.1 275.4 310.3 275.4 310.5 282.7 310.7 296.5 313.5 300.2 313.4 302.0 317.2 309.2 314.9 315.8 315.2 322.4 314.2 323.7 311.2 327.9 304.2 331.2 303.0 330.2 303.6 327.1 300.2 328.2 299.8 330.0 303.4 332.8 293.0 340.7 288.8 341.7 288.1 343.0 283.2 345.7 275.8 352.6 277.5 349.3 275.8 348.2 273.4 350.0 275.7 350.5 273.5 353.5 271.3 353.3 272.7 355.5 270.9 360.1 269.9 359.2 267.1 361.0 270.5 361.0 269.1 364.6 271.9 376.8 273.9 379.0 270.4 380.5 265.7 377.5 260.5 377.2 258.7 375.6 255.4 374.8 253.5 373.0 249.9 372.3 249.1 368.0 245.6 363.3 245.3 356.2 243.0 354.9 238.8 347.9 236.3 345.9 235.1 341.7 232.6 337.1 232.2 334.5 228.3 330.5 223.9 324.9 215.6 324.1 213.2 322.7 212.1 324.2 208.8 324.4 205.7 330.6 202.4 334.3 200.6 333.9 195.0 329.7 192.0 328.6 186.8 323.6 185.3 319.7 185.6 316.3 182.5 309.4 178.6 306.6 171.9 298.4 170.1 297.5 168.3 293.6 166.7 292.8 165.3 289.4 206.6 293.4 211.6 233.1 212.0 232.9 244.6 234.9 243.5 260.8 247.0 263.4 251.6 263.4 252.3 265.8 260.2 268.2 264.6 267.4 266.1 270.8 269.2 269.6 272.7 271.8 274.5 270.7 275.6 273.2 277.8 270.2 280.9 270.7 284.4 273.6 288.9 271.0 292.7 270.2 295.4 271.3 296.9 270.0 300.9 272.8 305.3 274.2 M 273.8 355.8 L 271.2 361.9 271.2 365.7 272.5 372.1 270.9 367.0 271.3 360.0 273.8 355.8 Z" vector-effect="non-scaling-stroke" stroke="silver" stroke-width="1" class=" highcharts-name-texas highcharts-key-us-tx"></path><path fill="rgb(115,115,255)" d="M 429.8 199.5 L 429.8 199.5 432.4 198.8 433.7 196.3 433.1 194.0 434.2 190.9 436.1 192.3 436.5 189.5 439.4 184.6 441.9 184.2 445.1 180.6 444.8 178.7 446.3 171.4 444.9 167.5 446.4 166.4 448.5 178.7 459.2 176.8 460.3 183.7 464.0 179.2 465.1 179.4 466.5 176.6 470.0 177.4 470.1 176.1 473.0 174.5 476.2 175.1 478.0 178.6 477.5 181.2 471.7 178.1 471.5 182.1 467.6 188.1 466.4 187.5 464.2 193.7 460.3 192.1 459.4 196.5 455.6 205.3 455.9 207.7 449.5 211.7 446.7 212.9 445.2 211.9 443.3 213.9 440.2 213.3 438.2 210.2 434.4 208.8 429.9 203.1 429.8 199.5 429.8 199.5 429.8 199.5 429.8 199.5 429.8 199.5 Z" vector-effect="non-scaling-stroke" stroke="silver" stroke-width="1" class=" highcharts-name-west-virginia highcharts-key-us-wv"></path><path fill="rgb(119,119,255)" d="M 515.7 122.6 L 512.2 123.5 509.7 112.9 507.9 112.7 507.9 110.6 506.2 106.7 506.1 100.9 505.2 99.7 503.9 94.0 509.9 92.4 521.0 89.4 520.8 93.3 522.1 94.9 521.4 97.2 518.6 100.3 518.7 107.2 517.8 111.0 518.6 114.1 518.6 119.9 520.0 121.6 520.0 121.6 515.7 122.6 Z" vector-effect="non-scaling-stroke" stroke="silver" stroke-width="1" class=" highcharts-name-vermont highcharts-key-us-vt"></path><path fill="rgb(122,122,255)" d="M 277.1 66.6 L 295.6 66.6 295.7 61.5 298.7 62.5 299.8 69.1 304.2 71.2 307.4 71.3 308.6 72.9 313.0 71.3 318.6 72.4 321.2 76.4 324.3 74.9 327.6 78.0 330.0 78.7 334.6 75.8 335.9 77.5 341.4 77.0 343.3 78.3 346.5 78.2 342.6 81.1 338.5 82.7 334.2 85.9 329.9 91.2 324.5 96.3 322.9 97.8 323.2 105.7 319.4 108.1 317.8 110.9 317.9 112.8 320.0 114.5 319.3 116.5 318.9 123.9 321.2 125.8 326.0 127.9 330.5 132.7 334.2 134.6 334.9 140.2 318.9 140.9 283.7 141.4 283.8 117.1 281.6 115.6 279.9 112.9 282.1 110.7 282.9 108.3 282.5 103.1 280.7 98.8 280.3 87.2 277.8 77.9 277.6 72.9 278.2 71.3 277.1 66.6 Z" vector-effect="non-scaling-stroke" stroke="silver" stroke-width="1" class=" highcharts-name-minnesota highcharts-key-us-mn"></path><path fill="rgb(122,122,255)" d="M 377.6 314.8 L 372.3 315.0 366.8 316.8 364.7 318.5 360.4 312.1 361.4 307.7 339.0 309.0 338.9 305.3 340.1 305.1 340.1 302.2 342.1 297.2 344.8 294.9 346.6 290.4 344.5 289.0 343.2 281.4 343.9 279.6 343.3 275.1 342.1 272.4 344.0 270.6 343.4 268.1 345.4 267.5 344.8 265.9 348.6 262.0 348.5 259.1 351.4 254.1 370.1 252.8 374.9 252.4 376.0 253.7 375.0 294.6 377.6 314.8 Z" vector-effect="non-scaling-stroke" stroke="silver" stroke-width="1" class=" highcharts-name-mississippi highcharts-key-us-ms"></path><path fill="rgb(128,128,255)" d="M 341.7 153.2 L 344.3 156.7 346.7 158.2 346.7 162.3 345.4 165.3 341.9 167.5 339.0 168.0 338.2 171.3 339.6 174.5 337.6 178.6 335.6 179.4 335.1 182.4 335.1 182.4 335.1 182.4 332.0 179.3 318.0 180.4 303.8 180.8 290.6 180.6 290.5 180.6 290.5 180.0 289.5 171.0 287.3 167.7 287.5 164.5 284.7 158.9 284.2 155.0 283.4 154.7 281.8 151.5 283.7 146.5 282.6 145.1 282.3 141.4 283.7 141.4 318.9 140.9 334.9 140.2 336.7 143.1 336.0 144.8 337.5 150.3 340.9 151.3 341.8 152.9 341.7 153.2 341.7 153.2 Z" vector-effect="non-scaling-stroke" stroke="silver" stroke-width="1" class=" highcharts-name-iowa highcharts-key-us-ia"></path><path fill="rgb(129,129,255)" d="M 310.5 282.7 L 310.3 275.4 307.1 275.4 305.3 274.2 305.4 250.7 303.2 235.7 351.7 233.8 352.9 236.6 349.8 240.9 356.9 240.2 357.1 242.4 354.8 243.9 355.2 246.4 353.3 248.7 353.5 252.3 351.4 254.1 348.5 259.1 348.6 262.0 344.8 265.9 345.4 267.5 343.4 268.1 344.0 270.6 342.1 272.4 343.3 275.1 343.9 279.6 343.2 281.4 341.1 281.6 310.5 282.7 Z" vector-effect="non-scaling-stroke" stroke="silver" stroke-width="1" class=" highcharts-name-arkansas highcharts-key-us-ar"></path><path fill="rgb(129,129,255)" d="M 222.9 227.0 L 303.1 229.0 303.1 230.7 303.2 235.7 305.4 250.7 305.3 274.2 300.9 272.8 296.9 270.0 295.4 271.3 292.7 270.2 288.9 271.0 284.4 273.6 280.9 270.7 277.8 270.2 275.6 273.2 274.5 270.7 272.7 271.8 269.2 269.6 266.1 270.8 264.6 267.4 260.2 268.2 252.3 265.8 251.6 263.4 247.0 263.4 243.5 260.8 244.6 234.9 212.0 232.9 212.1 231.2 212.6 226.2 222.9 227.0 Z" vector-effect="non-scaling-stroke" stroke="silver" stroke-width="1" class=" highcharts-name-oklahoma highcharts-key-us-ok"></path><path fill="rgb(133,133,255)" d="M 80.7 252.1 L 80.9 249.2 83.0 247.1 86.2 245.6 84.1 242.6 82.7 234.9 83.8 232.5 83.6 228.0 84.7 220.3 86.7 219.8 91.0 222.2 92.3 220.1 94.4 209.7 129.2 216.1 147.6 219.0 142.1 256.8 136.6 294.9 114.0 291.4 73.6 267.6 75.3 265.0 77.5 265.1 78.9 261.9 76.6 260.1 77.3 255.7 80.7 252.1 Z" vector-effect="non-scaling-stroke" stroke="silver" stroke-width="1" class=" highcharts-name-arizona highcharts-key-us-az"></path><path fill="rgb(137,137,255)" d="M 212.6 226.2 L 147.6 219.0 154.1 174.0 155.3 165.6 206.0 171.5 226.4 173.2 225.4 186.6 224.9 195.4 222.9 227.0 212.6 226.2 Z" vector-effect="non-scaling-stroke" stroke="silver" stroke-width="1" class=" highcharts-name-colorado highcharts-key-us-co"></path><path fill="rgb(137,137,255)" d="M 552.1 89.8 L 553.1 88.0 554.3 88.8 553.0 91.8 552.1 89.8 M 531.4 106.9 L 523.8 84.5 525.7 84.8 526.5 80.0 528.4 77.1 528.9 73.8 528.0 72.4 528.0 68.4 528.9 67.3 528.3 63.4 532.1 51.8 533.9 51.4 534.9 53.6 536.3 54.1 542.0 50.1 546.7 53.0 552.5 70.6 555.9 70.5 557.0 74.8 558.5 75.9 560.2 75.2 564 78.8 562.2 82.1 556.4 85.5 555.6 88.8 554.5 87.0 551.5 87.8 550.4 90.9 551.7 94.0 548.5 90.4 548.4 88.1 546.6 90.2 547.2 95.3 544.0 99.3 542.2 100.0 541.5 102.0 539.8 100.4 537.7 103.1 538.5 104.8 536.0 109.6 535.2 112.5 531.9 109.2 531.4 106.9 Z" vector-effect="non-scaling-stroke" stroke="silver" stroke-width="1" class=" highcharts-name-maine highcharts-key-us-me"></path><path fill="rgb(142,142,255)" d="M 49.3 130.0 L 8.6 117.9 7.9 113.0 9.4 108.8 8.9 106.0 12.6 100.2 14.8 98.0 16.9 93.9 21.0 84.5 21.6 82.0 26.2 73.0 26.3 70.0 28.0 64.4 33.2 66.9 35.2 67.0 37.3 68.7 37.8 70.6 37.2 74.9 41.1 77.5 46.0 76.7 50.7 78.2 51.4 79.5 56.8 79.6 60.4 80.6 66.9 79.7 71.5 80.6 72.6 80.1 92.1 84.9 92.7 87.3 94.6 88.9 94.7 91.3 92.2 94.0 89.2 99.3 84.3 104.2 83.8 106.7 86.3 108.9 83.9 113.8 78.4 137.3 49.3 130.0 Z" vector-effect="non-scaling-stroke" stroke="silver" stroke-width="1" class=" highcharts-name-oregon highcharts-key-us-or"></path><path fill="rgb(145,145,255)" d="M 225.4 186.6 L 295.3 188.6 299.8 191.0 297.5 194.9 300.4 199.1 302.6 200.4 303.1 229.0 222.9 227.0 224.9 195.4 225.4 186.6 Z" vector-effect="non-scaling-stroke" stroke="silver" stroke-width="1" class=" highcharts-name-kansas highcharts-key-us-ks"></path><path fill="rgb(152,152,255)" d="M 147.6 219.0 L 129.2 216.1 94.4 209.7 100.2 180.9 107.7 143.7 124.3 146.9 137.3 149.2 135.1 162.5 155.3 165.6 154.1 174.0 147.6 219.0 Z" vector-effect="non-scaling-stroke" stroke="silver" stroke-width="1" class=" highcharts-name-utah highcharts-key-us-ut"></path><path fill="rgb(159,159,255)" d="M 295.3 188.6 L 225.4 186.6 226.4 173.2 206.0 171.5 207.9 149.7 208.3 144.7 263.5 147.8 267.5 150.6 269.9 149.8 275.2 149.6 281.1 152.5 283.4 154.7 284.2 155.0 284.7 158.9 287.5 164.5 287.3 167.7 289.5 171.0 289.9 178.0 290.5 180.0 290.6 180.3 290.6 180.6 290.6 180.6 290.5 180.6 290.5 180.6 292.0 184.0 295.3 188.6 Z" vector-effect="non-scaling-stroke" stroke="silver" stroke-width="1" class=" highcharts-name-nebraska highcharts-key-us-ne"></path><path fill="rgb(167,167,255)" d="M 49.3 130.0 L 78.4 137.3 98.5 141.8 107.7 143.7 100.2 180.9 94.4 209.7 92.3 220.1 91.0 222.2 86.7 219.8 84.7 220.3 83.6 228.0 83.8 232.5 82.7 234.9 65.4 209.2 53.5 191.1 38.7 169.0 49.3 130.0 Z" vector-effect="non-scaling-stroke" stroke="silver" stroke-width="1" class=" highcharts-name-nevada highcharts-key-us-nv"></path><path fill="rgb(173,173,255)" d="M 100.0 44.8 L 108.7 46.8 105.7 60.0 107.8 64.7 107.0 68.3 109.9 71.2 115.2 81.0 117.3 81.0 115.2 86.2 114.8 91.3 113.1 92.5 112.5 95.4 114.3 96.9 118.3 94.9 119.6 96.6 119.6 100.5 121.4 105.1 121.9 108.0 123.3 108.1 124.2 113.1 125.4 114.4 127.3 113.0 130.3 114.1 131.7 113.0 135.8 114.2 138.7 114.1 140.9 112.3 142.8 115.9 139.1 138.8 137.3 149.2 124.3 146.9 107.7 143.7 98.5 141.8 78.4 137.3 83.9 113.8 86.3 108.9 83.8 106.7 84.3 104.2 89.2 99.3 92.2 94.0 94.7 91.3 94.6 88.9 92.7 87.3 92.1 84.9 91.7 79.5 100.0 44.8 Z" vector-effect="non-scaling-stroke" stroke="silver" stroke-width="1" class=" highcharts-name-idaho highcharts-key-us-id"></path><path fill="rgb(174,174,255)" d="M 147.6 219.0 L 212.6 226.2 212.1 231.2 212.0 232.9 211.6 233.1 206.6 293.4 165.3 289.4 166.7 292.8 147.0 290.2 146.2 296.2 136.6 294.9 142.1 256.8 147.6 219.0 Z" vector-effect="non-scaling-stroke" stroke="silver" stroke-width="1" class=" highcharts-name-new-mexico highcharts-key-us-nm"></path><path fill="rgb(189,189,255)" d="M 208.3 144.7 L 208.8 139.6 210.7 117.7 210.9 117.7 212.0 105.0 271.8 108.2 282.9 108.3 282.1 110.7 279.9 112.9 281.6 115.6 283.8 117.1 283.7 141.4 282.3 141.4 282.6 145.1 283.7 146.5 281.8 151.5 283.4 154.7 281.1 152.5 275.2 149.6 269.9 149.8 267.5 150.6 263.5 147.8 208.3 144.7 Z" vector-effect="non-scaling-stroke" stroke="silver" stroke-width="1" class=" highcharts-name-south-dakota highcharts-key-us-sd"></path><path fill="rgb(192,192,255)" d="M 212.0 105.0 L 212.2 102.4 215.6 63.5 232.2 64.8 277.1 66.6 278.2 71.3 277.6 72.9 277.8 77.9 280.3 87.2 280.7 98.8 282.5 103.1 282.9 108.3 271.8 108.2 212.0 105.0 Z" vector-effect="non-scaling-stroke" stroke="silver" stroke-width="1" class=" highcharts-name-north-dakota highcharts-key-us-nd"></path><path fill="rgb(207,207,255)" d="M 108.7 46.8 L 139.7 53.1 215.6 63.5 212.2 102.4 212.0 105.0 210.9 117.7 210.7 117.7 144.0 109.2 142.8 115.9 140.9 112.3 138.7 114.1 135.8 114.2 131.7 113.0 130.3 114.1 127.3 113.0 125.4 114.4 124.2 113.1 123.3 108.1 121.9 108.0 121.4 105.1 119.6 100.5 119.6 96.6 118.3 94.9 114.3 96.9 112.5 95.4 113.1 92.5 114.8 91.3 115.2 86.2 117.3 81.0 115.2 81.0 109.9 71.2 107.0 68.3 107.8 64.7 105.7 60.0 108.7 46.8 Z" vector-effect="non-scaling-stroke" stroke="silver" stroke-width="1" class=" highcharts-name-montana highcharts-key-us-mt"></path><path fill="rgb(214,214,255)" d="M 206.0 171.5 L 155.3 165.6 135.1 162.5 137.3 149.2 139.1 138.8 142.8 115.9 144.0 109.2 210.7 117.7 208.8 139.6 208.3 144.7 207.9 149.7 206.0 171.5 Z" vector-effect="non-scaling-stroke" stroke="silver" stroke-width="1" class=" highcharts-name-wyoming highcharts-key-us-wy"></path><path fill="rgb(239,239,255)" d="M 68.6 321.2 L 68.6 321.0 69.5 320.4 70.6 320.8 72.3 320.9 73.9 320.1 74.9 319.0 76.7 320.1 76.6 320.7 75.7 321.0 75.8 321.9 76.4 321.9 77.4 320.6 78.2 321.4 78.0 322.2 78.9 322.7 79.3 322.1 80.4 322.2 82.1 323.1 81.2 324.3 82.8 324.5 82.2 325.0 83.6 325.3 85.9 325.1 87.4 325.5 88.5 326.5 88.9 326.3 89.5 327.0 90.7 327.4 92.8 327.5 93.9 328.5 95.1 328.6 96.1 328.1 97.5 327.9 98.7 328.5 99.3 329.3 100.2 329.5 100.9 330.3 101.6 330.3 103.3 379.3 104.5 379.7 104.8 379.4 105.9 379.8 106.8 379.1 108.2 378.9 108.1 380.4 109.4 381.2 109.7 381.9 112.5 384.4 113.2 386.1 114.7 384.7 115.3 384.6 115.8 382.2 117.9 380.9 119.3 382.1 119.2 382.8 121.3 384.5 121.9 385.5 122.9 385.9 124.5 387.4 128.7 393.2 128.4 393.9 129.4 394.0 129.3 394.9 130.1 395.2 130.4 396.2 131.0 396.1 135.7 397.8 136.2 398.8 135.9 399.7 136.9 402.0 136.2 404.2 135.4 405.0 134.6 405.0 133.9 403.0 134.3 402.2 133.9 400.3 132.7 399.1 132.0 399.0 131.2 399.8 130.9 401.9 129.8 400.7 130.4 400.4 130.5 398.1 128.4 396.4 128.2 395.6 125.9 393.8 125.0 393.9 125.4 392.6 124.5 391.8 124.4 390.0 124.1 390.7 122.9 389.4 122.8 387.6 122.3 388.8 122.0 388.6 122.3 388.9 121.2 388.7 121.1 388.4 121.7 388.5 120.7 388.0 118.6 383.6 118.7 385.4 120.0 388.3 119.8 389.0 118.8 388.3 117.6 388.5 117.7 387.6 116.8 385.9 116.6 386.6 114.2 385.1 114.4 386.1 115.5 386.2 117.1 387.8 117.1 388.7 115.8 388.8 115.6 389.4 114.9 388.7 114.3 388.7 112.6 387.6 110.8 385.4 108.3 384.3 106.5 383.2 107.4 382.2 107.0 381.3 105.2 382.4 104.4 382.4 102.2 381.7 102.7 380.9 101.4 381.2 98.6 380.5 95.6 381.0 94.8 380.2 93.0 379.4 93.6 377.4 92.8 378.2 92.6 379.3 91.4 378.5 90.4 378.5 91.3 377.3 89.7 377.4 88.6 376.9 89.1 376.5 88.5 375.7 87.2 376.0 86.1 375.6 85.5 376.4 84.9 376.0 86.1 373.9 85.1 375.2 85.0 374.7 84.1 377.2 84.7 376.5 85.3 378.0 85.0 379.0 84.5 378.8 84.5 380.4 84.2 379.6 83.8 380.7 82.7 380.7 81.8 380.2 80.6 380.8 80.2 381.9 79.8 381.6 78.3 382.9 79.0 381.5 77.5 383.5 76.7 383.8 75.5 383.5 74.4 383.9 74.0 383.1 75.5 382.4 77.0 381.0 75.6 381.5 74.6 380.6 76.0 378.7 76.7 376.9 76.5 375.9 77.4 375.7 79.1 374.6 80.1 375.3 80.7 375.1 82.4 375.7 80.2 374.0 80.4 373.6 79.3 373.4 79.1 372.8 77.4 374.2 76.3 374.4 73.9 376.9 74.1 377.3 73.0 378.1 73.1 378.7 71.5 380.6 69.7 380.7 69.5 381.6 68.4 381.9 67.9 383.6 69.2 383.6 70.2 385.0 67.7 386.5 67.9 387.1 66.8 387.6 66.0 388.7 64.7 388.5 63.4 389.9 62.9 389.4 62.3 390.6 61.5 390.3 59.8 391.4 60.4 391.5 59.5 393.1 58.8 392.7 57.4 393.8 56.9 393.2 56.5 394.3 55.7 393.9 53.1 395.2 54.0 395.7 52.2 397.0 50.2 397.2 49.6 397.5 48.7 396.8 45.7 398.2 45.1 397.8 43.8 398.3 43.2 398.0 43.8 397.1 43.2 396.7 41.5 398.9 40.3 399.4 39.9 397.5 38.8 399.2 38.3 398.2 37.9 399.0 37.0 399.4 37.4 397.9 38.9 397.3 40.3 397.2 40.3 396.7 43.0 395.2 45.9 395.3 46.0 395.9 47.5 396.6 46.7 395.6 47.7 394.3 49.9 393.1 52.5 392.4 53.3 392.9 53.5 391.6 54.8 390.3 56.9 389.4 57.7 386.6 58.3 386.2 58.4 384.9 59.9 383.8 60.0 382.9 56.8 383.7 56.0 382.4 56.6 381.1 55.0 382.4 55.1 383.8 54.2 384.1 53.3 381.2 52.3 381.8 51.6 381.1 51.5 379.9 50.0 380.7 48.7 380.7 48.3 381.3 46.1 380.7 47.5 380.5 47.6 379.1 47.4 377.6 48.6 376.7 47.9 373.1 48.1 371.7 47.3 373.5 45.6 373.8 44.1 373.6 42.9 373.1 43.2 372.2 42.6 371.5 42.3 370.3 41.6 369.7 40.9 368.3 43.3 367.6 44.1 368.1 44.3 368.9 44.9 368.4 45.4 369.6 46.2 368.9 45.1 368.0 43.5 367.5 43.5 367.1 42.3 366.7 42.9 366.4 42.2 365.0 42.0 365.7 41.2 363.6 41.8 363.1 40.9 362.4 42.1 362.3 41.6 361.3 42.8 361.6 43.0 360.2 45.1 358.7 45.7 358.8 46.3 357.3 47.5 356.0 48.7 355.7 49.5 356.2 50.1 357.5 50.7 357.6 52.2 356.8 53.3 355.9 52.7 355.5 53.2 355.1 53.9 356.2 53.5 356.3 55.8 356.6 57.1 355.7 57.4 353.0 56.7 351.8 58.4 351.1 58.4 350.2 58.0 349.4 57.2 350.0 55.7 349.8 54.2 350.6 52.9 350.7 52.3 349.6 50.4 349.0 48.8 349.1 46.6 347.4 46.3 346.5 46.8 345.7 46.1 344.0 46.9 344.4 48.1 344.0 45.7 342.4 44.7 340.9 45.4 340.3 46.9 340.0 47.4 340.3 48.3 339.7 51.8 338.9 53.8 338.8 55.4 339.2 54.3 341.1 54.6 341.9 56.5 342.4 57.6 342.9 58.1 343.6 59.2 342.4 60.3 342.9 59.5 341.7 58.5 341.8 58.9 341.1 58.1 338.5 58.7 338.4 59.1 339.5 58.8 340.0 59.4 341.4 60.4 341.2 61.0 342.3 62.1 342.5 62.3 341.8 61.2 340.7 59.8 341.1 59.3 340.0 59.9 338.8 59.9 338.2 58.6 338.1 56.4 336.8 56.5 335.5 56.4 333.9 54.7 330.8 54.0 330.0 53.3 328.5 54.2 327.7 54.8 326.2 55.8 326.7 58.3 327.2 60.0 326.7 61.3 325.7 61.7 324.3 62.3 323.4 63.5 322.4 63.8 322.8 65.0 321.6 65.2 322.1 66.8 322.1 68.4 321.1 68.6 321.2 M 68.6 321.2 L 68.7 321.4 68.7 321.4 68.7 321.4 68.0 322.7 68.8 321.9 68.7 321.4 68.7 321.4 68.7 321.4 68.7 321.3 68.6 321.2 M 4.8 402.0 L 4.0 401.9 4.9 401.4 5.2 401.9 4.8 402.0 M 13.5 402.3 L 14.2 402.5 14.0 403.0 13.7 402.7 13.5 402.3 M 18.4 403.5 L 18.0 403.1 16.3 403.5 18.5 401.8 18.9 402.2 19.5 401.1 20.8 401.0 21.0 402.1 19.3 402.4 18.4 403.5 M 29.1 400.6 L 28.1 400.9 27.5 400.3 28.1 399.9 29.1 400.6 M 37.9 402.0 L 38.0 401.4 38.6 401.9 38.8 402.3 37.9 402.0 M 36.1 397.7 L 36.6 397.9 36.8 399.6 35.8 400.2 34.3 399.6 33.2 400.3 31.9 399.9 31.8 399.0 32.7 398.8 33.5 397.9 34.5 398.1 36.1 397.7 M 48.8 401.2 L 48.9 401.4 48.2 401.0 48.7 400.7 48.8 401.2 M 129.1 405.7 L 128.9 406.5 127.5 404.6 127.7 403.7 128.4 405.3 129.1 405.7 M 133.4 403.8 L 133.3 404.9 132.3 404.3 132.3 402.9 133.4 403.8 M 47.7 400.1 L 47.6 400.7 46.3 401.3 47.3 400.5 47.7 400.1 M 46.7 398.8 L 46.5 399.6 46.0 398.9 45.7 400.1 44.9 399.9 45.1 398.8 46.7 398.8 M 131.4 402.3 L 132.0 402.8 131.8 403.6 131.3 402.5 131.4 402.3 M 126.1 402.7 L 126.2 402.8 126.7 402.5 126.2 404.0 126.1 402.7 M 126.7 400.9 L 126.2 401.5 125.7 401.3 125.7 400.9 126.7 400.9 M 132.7 399.2 L 133.6 400.4 133.9 402.0 133.4 403.2 131.4 402.0 131.8 401.5 131.5 400.0 132.7 399.2 M 125.1 400.7 L 125.4 399.7 126.5 399.2 126.6 399.8 125.1 400.7 M 128.8 398.5 L 130.0 398.8 129.5 399.9 128.2 399.1 128.6 397.8 128.8 398.5 M 128.1 397.4 L 128.2 398.2 127.0 398.0 127.3 397.4 128.1 397.4 M 129.6 397.6 L 130.4 398.3 130.1 398.8 129.1 398.1 128.9 396.9 129.6 397.6 M 65.0 396.2 L 64.9 396.6 64.1 397.1 64.3 396.4 65.0 396.2 M 66.2 396.6 L 66.4 396.9 65.3 396.7 65.6 396.3 66.2 396.6 M 127.1 395.6 L 128.3 396.5 127.7 397.1 127.2 397.1 127.1 395.6 M 69.2 393.8 L 69.8 393.9 68.6 394.6 68.5 394.2 69.2 393.8 M 119.2 394.3 L 119.2 395.5 118.6 395.7 118.8 394.7 119.2 394.3 M 116.6 390.5 L 116.4 391.4 116.0 390.5 116.2 390.1 116.6 390.5 M 69.8 388.9 L 70.6 389.6 70.2 389.6 69.2 389.0 69.8 388.9 M 71.1 388.1 L 71.6 387.2 72.3 387.9 73.0 387.8 73.3 388.7 72.9 389.1 70.9 389.7 69.9 388.9 70.2 388.0 71.1 388.1 M 72.1 387.2 L 71.6 386.8 72.5 386.4 72.5 386.9 72.1 387.2 M 49.7 381.7 L 48.9 382.1 49.1 381.3 50.3 381.0 49.7 381.7 M 85.3 380.2 L 85.2 380.6 84.5 380.8 85.1 379.7 85.3 380.2 M 87.4 378.8 L 87.9 379.1 86.3 381.0 85.1 381.7 85.7 380.6 87.1 379.4 87.4 378.8 M 38.9 368.5 L 39.8 369.3 39.2 370.5 39.5 371.3 37.7 371.3 36.6 370.7 35.5 369.3 35.2 368.2 36.6 368.7 37.0 368.3 38.9 368.5 M 88.9 378.3 L 89.9 378.5 88.7 379.5 89.0 378.9 88.9 378.3 M 85.9 378.0 L 86.1 378.3 85.7 379.3 85.5 378.6 85.9 378.0 M 23.1 361.7 L 22.9 362.1 22.3 360.8 22.5 360.3 23.1 361.7 M 90.1 378.3 L 89.6 378.4 89.6 378.1 91.0 377.8 90.1 378.3 M 27.0 401.0 L 25.4 401.9 27.1 401.7 26.3 402.3 22.0 402.9 20.8 402.5 23.2 402.4 24.5 400.1 25.8 400.4 25.5 401.2 26.6 400.6 27.0 401.0 M 127.4 403.7 L 127.8 401.7 126.6 401.9 126.9 400.5 126.5 399.1 125.6 399.1 125.4 398.2 126.7 398.1 127.2 399.5 128.2 399.7 130.7 403.1 131.5 405.6 131.0 406.2 129.6 404.2 128.6 404.7 128.6 403.5 127.4 403.7 M 119.0 393.7 L 119.6 392.6 121.0 393.6 122.3 396.6 122.5 399.5 120.7 397.1 120.8 396.3 120.0 396.4 120.5 395.2 119.9 395.0 119.9 394.2 119.0 393.7 M 70.7 389.9 L 70.3 390.7 71.7 389.9 71.9 390.9 71.6 391.8 72.4 391.8 71.7 392.7 70.0 392.0 70.9 392.8 70.7 393.3 69.4 393.0 67.6 394.4 66.3 395.9 66.2 395.4 67.4 393.6 66.5 393.6 66.0 394.7 65.2 394.1 65.3 393.1 64.7 392.5 65.0 391.7 66.6 390.7 67.2 391.0 67.4 392.3 67.8 391.0 67.6 390.1 68.4 389.8 68.6 390.9 69.0 389.4 70.0 390.3 69.6 389.3 70.7 389.9 M 118.3 391.7 L 119.1 393.2 118.3 393.6 117.9 392.4 116.5 391.4 116.7 390.6 117.9 389.0 120.5 390.0 120.7 391.1 119.4 391.3 119.9 391.7 120.8 391.4 121.2 392.8 120.5 392.9 118.3 391.7 M 122.3 393.6 L 121.6 392.1 120.8 389.5 120.2 388.1 121.1 389.1 122.5 389.2 123.6 390.8 123.4 391.4 122.4 389.6 122.6 390.7 123.6 391.7 123.8 393.3 122.1 395.2 121.9 394.0 122.3 393.6 M 33.8 347.7 L 34.3 348.1 35.1 347.8 35.9 348.1 35.9 349.4 36.8 350.5 38.6 351.6 38.1 352.1 37.0 351.6 35.5 352.2 35.6 351.2 34.4 349.2 33.5 348.5 32.6 348.7 32.1 348.2 32.2 347.3 33.1 346.1 33.1 347.2 33.8 347.7 M 124.8 396.2 L 124.3 398.3 124.7 399.0 123.9 399.9 123.5 398.4 124.1 397.7 123.3 397.4 122.8 395.9 123.6 395.7 124.4 396.5 124.8 396.1 124.7 395.9 123.8 394.6 124.4 394.5 126.8 394.9 127.0 396.6 125.8 395.6 126.8 397.0 126.7 397.5 125.2 397.7 124.8 396.2 Z" vector-effect="non-scaling-stroke" stroke="silver" stroke-width="1" class=" highcharts-name-alaska highcharts-key-us-ak"></path><path fill="#F8F8F8" d="M 486.8 184.0 L 486.8 183.3 486.1 182.8 485.8 182.8 485.5 182.5 487.7 182.6 486.8 184.0 Z" vector-effect="non-scaling-stroke" stroke="silver" stroke-width="1" class=" highcharts-name-district-of columbia highcharts-key-us-dc"></path></g></g><g class="highcharts-markers highcharts-tracker" visibility="visible"  transform="translate(10,47) scale(1 1)" style=""></g></g><text x="292" text-anchor="middle" class="highcharts-title"  style="color:#333333;font-size:18px;fill:#333333;width:520px;" y="24"><tspan>US population density (/km²)</tspan></text><g class="highcharts-button" style="cursor:default;text-align:center;"  transform="translate(10,10)"><title>Zoom in</title><path fill="url(#highcharts-1)" d="M 1.5 -0.5 L 25.5 -0.5 C 26.5 -0.5 27.5 0.5 27.5 1.5 L 27.5 27.5 C 27.5 27.5 27.5 27.5 27.5 27.5 L -0.5 27.5 C -0.5 27.5 -0.5 27.5 -0.5 27.5 L -0.5 1.5 C -0.5 0.5 0.5 -0.5 1.5 -0.5 Z" stroke="#CCCCCC" stroke-width="1"></path><text x="8"  style="font-size:15px;font-weight:bold;color:black;fill:black;" transform="translate(0,19)">+</text></g><g class="highcharts-button" style="cursor:default;text-align:center;"  transform="translate(10,38)"><title>Zoom out</title><path fill="url(#highcharts-1)" d="M -0.5 -0.5 L 27.5 -0.5 C 27.5 -0.5 27.5 -0.5 27.5 -0.5 L 27.5 25.5 C 27.5 26.5 26.5 27.5 25.5 27.5 L 1.5 27.5 C 0.5 27.5 -0.5 26.5 -0.5 25.5 L -0.5 -0.5 C -0.5 -0.5 -0.5 -0.5 -0.5 -0.5 Z" stroke="#CCCCCC" stroke-width="1"></path><text x="11"  style="font-size:15px;font-weight:bold;color:black;fill:black;" transform="translate(0,19)">-</text></g><g class="highcharts-data-labels highcharts-tracker" visibility="visible"  transform="translate(10,47) scale(1 1)" clip-path="url(#highcharts-3)" style=""><g  style="" transform="translate(504,163)"><text x="0"  style="font-size: 11px; font-weight: bold; color: white; fill: #ffffff; text-shadow: rgb(0, 0, 0) 0px 0px 6px, rgb(0, 0, 0) 0px 0px 3px; " transform="translate(0,11)"><tspan>NJ</tspan></text></g><g  style="" transform="translate(527,131)" opacity="0"><text x="0"  style="font-size: 11px; font-weight: bold; color: white; fill: #ffffff; text-shadow: rgb(0, 0, 0) 0px 0px 6px, rgb(0, 0, 0) 0px 0px 3px; " transform="translate(0,11)"><tspan>RI</tspan></text></g><g  style="" transform="translate(527,119)"><text x="0"  style="font-size: 11px; font-weight: bold; color: white; fill: #ffffff; text-shadow: rgb(0, 0, 0) 0px 0px 6px, rgb(0, 0, 0) 0px 0px 3px; " transform="translate(0,11)"><tspan>MA</tspan></text></g><g  style="" transform="translate(514,132)" opacity="0"><text x="0"  style="font-size: 11px; font-weight: bold; color: white; fill: #ffffff; text-shadow: rgb(0, 0, 0) 0px 0px 6px, rgb(0, 0, 0) 0px 0px 3px; " transform="translate(0,11)"><tspan>CT</tspan></text></g><g  style="" transform="translate(495,185)"><text x="0"  style="font-size: 11px; font-weight: bold; color: white; fill: #ffffff; text-shadow: rgb(0, 0, 0) 0px 0px 6px, rgb(0, 0, 0) 0px 0px 3px; " transform="translate(0,11)"><tspan>MD</tspan></text></g><g  style="" transform="translate(484,120)"><text x="0"  style="font-size: 11px; font-weight: bold; color: white; fill: #ffffff; text-shadow: rgb(0, 0, 0) 0px 0px 6px, rgb(0, 0, 0) 0px 0px 3px; " transform="translate(0,11)"><tspan>NY</tspan></text></g><g  style="" transform="translate(496,174)" opacity="0"><text x="0"  style="font-size: 11px; font-weight: bold; color: white; fill: #ffffff; text-shadow: rgb(0, 0, 0) 0px 0px 6px, rgb(0, 0, 0) 0px 0px 3px; " transform="translate(0,11)"><tspan>DE</tspan></text></g><g  style="" transform="translate(457,333)"><text x="0"  style="font-size: 11px; font-weight: bold; color: white; fill: #ffffff; text-shadow: rgb(0, 0, 0) 0px 0px 6px, rgb(0, 0, 0) 0px 0px 3px; " transform="translate(0,11)"><tspan>FL</tspan></text></g><g  style="" transform="translate(414,169)"><text x="0"  style="font-size: 11px; font-weight: bold; color: white; fill: #ffffff; text-shadow: rgb(0, 0, 0) 0px 0px 6px, rgb(0, 0, 0) 0px 0px 3px; " transform="translate(0,11)"><tspan>OH</tspan></text></g><g  style="" transform="translate(467,152)"><text x="0"  style="font-size: 11px; font-weight: bold; color: white; fill: #ffffff; text-shadow: rgb(0, 0, 0) 0px 0px 6px, rgb(0, 0, 0) 0px 0px 3px; " transform="translate(0,11)"><tspan>PA</tspan></text></g><g  style="" transform="translate(354,180)"><text x="0"  style="font-size: 11px; font-weight: bold; color: white; fill: #ffffff; text-shadow: rgb(0, 0, 0) 0px 0px 6px, rgb(0, 0, 0) 0px 0px 3px; " transform="translate(0,11)"><tspan>IL</tspan></text></g><g  style="" transform="translate(40,216)"><text x="0"  style="font-size: 11px; font-weight: bold; color: white; fill: #ffffff; text-shadow: rgb(0, 0, 0) 0px 0px 6px, rgb(0, 0, 0) 0px 0px 3px; " transform="translate(0,11)"><tspan>CA</tspan></text></g><g  style="" transform="translate(196,390)"><text x="0"  style="font-size: 11px; font-weight: bold; color: white; fill: #ffffff; text-shadow: rgb(0, 0, 0) 0px 0px 6px, rgb(0, 0, 0) 0px 0px 3px; " transform="translate(0,11)"><tspan>HI</tspan></text></g><g  style="" transform="translate(469,195)"><text x="0"  style="font-size: 11px; font-weight: bold; color: white; fill: #ffffff; text-shadow: rgb(0, 0, 0) 0px 0px 6px, rgb(0, 0, 0) 0px 0px 3px; " transform="translate(0,11)"><tspan>VA</tspan></text></g><g  style="" transform="translate(391,127)"><text x="0"  style="font-size: 11px; font-weight: bold; color: white; fill: #ffffff; text-shadow: rgb(0, 0, 0) 0px 0px 6px, rgb(0, 0, 0) 0px 0px 3px; " transform="translate(0,11)"><tspan>MI</tspan></text></g><g  style="" transform="translate(383,180)"><text x="0"  style="font-size: 11px; font-weight: bold; color: white; fill: #ffffff; text-shadow: rgb(0, 0, 0) 0px 0px 6px, rgb(0, 0, 0) 0px 0px 3px; " transform="translate(0,11)"><tspan>IN</tspan></text></g><g  style="" transform="translate(468,225)"><text x="0"  style="font-size: 11px; font-weight: bold; color: white; fill: #ffffff; text-shadow: rgb(0, 0, 0) 0px 0px 6px, rgb(0, 0, 0) 0px 0px 3px; " transform="translate(0,11)"><tspan>NC</tspan></text></g><g  style="" transform="translate(424,271)"><text x="0"  style="font-size: 11px; font-weight: bold; color: white; fill: #ffffff; text-shadow: rgb(0, 0, 0) 0px 0px 6px, rgb(0, 0, 0) 0px 0px 3px; " transform="translate(0,11)"><tspan>GA</tspan></text></g><g  style="" transform="translate(383,233)"><text x="0"  style="font-size: 11px; font-weight: bold; color: white; fill: #ffffff; text-shadow: rgb(0, 0, 0) 0px 0px 6px, rgb(0, 0, 0) 0px 0px 3px; " transform="translate(0,11)"><tspan>TN</tspan></text></g><g  style="" transform="translate(518,104)"><text x="0"  style="font-size: 11px; font-weight: bold; color: white; fill: #ffffff; text-shadow: rgb(0, 0, 0) 0px 0px 6px, rgb(0, 0, 0) 0px 0px 3px; " transform="translate(0,11)"><tspan>NH</tspan></text></g><g  style="" transform="translate(452,249)"><text x="0"  style="font-size: 11px; font-weight: bold; color: white; fill: #ffffff; text-shadow: rgb(0, 0, 0) 0px 0px 6px, rgb(0, 0, 0) 0px 0px 3px; " transform="translate(0,11)"><tspan>SC</tspan></text></g><g  style="" transform="translate(322,303)"><text x="0"  style="font-size: 11px; font-weight: bold; color: white; fill: #ffffff; text-shadow: rgb(0, 0, 0) 0px 0px 6px, rgb(0, 0, 0) 0px 0px 3px; " transform="translate(0,11)"><tspan>LA</tspan></text></g><g  style="" transform="translate(402,208)"><text x="0"  style="font-size: 11px; font-weight: bold; color: white; fill: #ffffff; text-shadow: rgb(0, 0, 0) 0px 0px 6px, rgb(0, 0, 0) 0px 0px 3px; " transform="translate(0,11)"><tspan>KY</tspan></text></g><g  style="" transform="translate(332,109)"><text x="0"  style="font-size: 11px; font-weight: bold; color: white; fill: #ffffff; text-shadow: rgb(0, 0, 0) 0px 0px 6px, rgb(0, 0, 0) 0px 0px 3px; " transform="translate(0,11)"><tspan>WI</tspan></text></g><g  style="" transform="translate(61,53)"><text x="0"  style="font-size: 11px; font-weight: bold; color: white; fill: #ffffff; text-shadow: rgb(0, 0, 0) 0px 0px 6px, rgb(0, 0, 0) 0px 0px 3px; " transform="translate(0,11)"><tspan>WA</tspan></text></g><g  style="" transform="translate(387,276)"><text x="0"  style="font-size: 11px; font-weight: bold; color: white; fill: #ffffff; text-shadow: rgb(0, 0, 0) 0px 0px 6px, rgb(0, 0, 0) 0px 0px 3px; " transform="translate(0,11)"><tspan>AL</tspan></text></g><g  style="" transform="translate(316,205)"><text x="0"  style="font-size: 11px; font-weight: bold; color: white; fill: #ffffff; text-shadow: rgb(0, 0, 0) 0px 0px 6px, rgb(0, 0, 0) 0px 0px 3px; " transform="translate(0,11)"><tspan>MO</tspan></text></g><g  style="" transform="translate(260,302)"><text x="0"  style="font-size: 11px; font-weight: bold; color: white; fill: #ffffff; text-shadow: rgb(0, 0, 0) 0px 0px 6px, rgb(0, 0, 0) 0px 0px 3px; " transform="translate(0,11)"><tspan>TX</tspan></text></g><g  style="" transform="translate(437,187)"><text x="0"  style="font-size: 11px; font-weight: bold; color: white; fill: #ffffff; text-shadow: rgb(0, 0, 0) 0px 0px 6px, rgb(0, 0, 0) 0px 0px 3px; " transform="translate(0,11)"><tspan>WV</tspan></text></g><g  style="" transform="translate(506,90)"><text x="0"  style="font-size: 11px; font-weight: bold; color: white; fill: #ffffff; text-shadow: rgb(0, 0, 0) 0px 0px 6px, rgb(0, 0, 0) 0px 0px 3px; " transform="translate(0,11)"><tspan>VT</tspan></text></g><g  style="" transform="translate(292,102)"><text x="0"  style="font-size: 11px; font-weight: bold; color: white; fill: #ffffff; text-shadow: rgb(0, 0, 0) 0px 0px 6px, rgb(0, 0, 0) 0px 0px 3px; " transform="translate(0,11)"><tspan>MN</tspan></text></g><g  style="" transform="translate(351,274)"><text x="0"  style="font-size: 11px; font-weight: bold; color: white; fill: #ffffff; text-shadow: rgb(0, 0, 0) 0px 0px 6px, rgb(0, 0, 0) 0px 0px 3px; " transform="translate(0,11)"><tspan>MS</tspan></text></g><g  style="" transform="translate(297,152)"><text x="0"  style="font-size: 11px; font-weight: bold; color: white; fill: #ffffff; text-shadow: rgb(0, 0, 0) 0px 0px 6px, rgb(0, 0, 0) 0px 0px 3px; " transform="translate(0,11)"><tspan>IA</tspan></text></g><g  style="" transform="translate(317,252)"><text x="0"  style="font-size: 11px; font-weight: bold; color: white; fill: #ffffff; text-shadow: rgb(0, 0, 0) 0px 0px 6px, rgb(0, 0, 0) 0px 0px 3px; " transform="translate(0,11)"><tspan>AR</tspan></text></g><g  style="" transform="translate(276,245)"><text x="0"  style="font-size: 11px; font-weight: bold; color: white; fill: #ffffff; text-shadow: rgb(0, 0, 0) 0px 0px 6px, rgb(0, 0, 0) 0px 0px 3px; " transform="translate(0,11)"><tspan>OK</tspan></text></g><g  style="" transform="translate(107,243)"><text x="0"  style="font-size: 11px; font-weight: bold; color: white; fill: #ffffff; text-shadow: rgb(0, 0, 0) 0px 0px 6px, rgb(0, 0, 0) 0px 0px 3px; " transform="translate(0,11)"><tspan>AZ</tspan></text></g><g  style="" transform="translate(180,190)"><text x="0"  style="font-size: 11px; font-weight: bold; color: white; fill: #ffffff; text-shadow: rgb(0, 0, 0) 0px 0px 6px, rgb(0, 0, 0) 0px 0px 3px; " transform="translate(0,11)"><tspan>CO</tspan></text></g><g  style="" transform="translate(534,67)"><text x="0"  style="font-size: 11px; font-weight: bold; color: white; fill: #ffffff; text-shadow: rgb(0, 0, 0) 0px 0px 6px, rgb(0, 0, 0) 0px 0px 3px; " transform="translate(0,11)"><tspan>ME</tspan></text></g><g  style="" transform="translate(41,96)"><text x="0"  style="font-size: 11px; font-weight: bold; color: white; fill: #ffffff; text-shadow: rgb(0, 0, 0) 0px 0px 6px, rgb(0, 0, 0) 0px 0px 3px; " transform="translate(0,11)"><tspan>OR</tspan></text></g><g  style="" transform="translate(238,201)"><text x="0"  style="font-size: 11px; font-weight: bold; color: white; fill: #ffffff; text-shadow: rgb(0, 0, 0) 0px 0px 6px, rgb(0, 0, 0) 0px 0px 3px; " transform="translate(0,11)"><tspan>KS</tspan></text></g><g  style="" transform="translate(119,182)"><text x="0"  style="font-size: 11px; font-weight: bold; color: white; fill: #ffffff; text-shadow: rgb(0, 0, 0) 0px 0px 6px, rgb(0, 0, 0) 0px 0px 3px; " transform="translate(0,11)"><tspan>UT</tspan></text></g><g  style="" transform="translate(240,161)"><text x="0"  style="font-size: 11px; font-weight: bold; color: white; fill: #ffffff; text-shadow: rgb(0, 0, 0) 0px 0px 6px, rgb(0, 0, 0) 0px 0px 3px; " transform="translate(0,11)"><tspan>NE</tspan></text></g><g  style="" transform="translate(64,162)"><text x="0"  style="font-size: 11px; font-weight: bold; color: white; fill: #ffffff; text-shadow: rgb(0, 0, 0) 0px 0px 6px, rgb(0, 0, 0) 0px 0px 3px; " transform="translate(0,11)"><tspan>NV</tspan></text></g><g  style="" transform="translate(105,113)"><text x="0"  style="font-size: 11px; font-weight: bold; color: white; fill: #ffffff; text-shadow: rgb(0, 0, 0) 0px 0px 6px, rgb(0, 0, 0) 0px 0px 3px; " transform="translate(0,11)"><tspan>ID</tspan></text></g><g  style="" transform="translate(167,252)"><text x="0"  style="font-size: 11px; font-weight: bold; color: white; fill: #ffffff; text-shadow: rgb(0, 0, 0) 0px 0px 6px, rgb(0, 0, 0) 0px 0px 3px; " transform="translate(0,11)"><tspan>NM</tspan></text></g><g  style="" transform="translate(239,121)"><text x="0"  style="font-size: 11px; font-weight: bold; color: white; fill: #ffffff; text-shadow: rgb(0, 0, 0) 0px 0px 6px, rgb(0, 0, 0) 0px 0px 3px; " transform="translate(0,11)"><tspan>SD</tspan></text></g><g  style="" transform="translate(241,80)"><text x="0"  style="font-size: 11px; font-weight: bold; color: white; fill: #ffffff; text-shadow: rgb(0, 0, 0) 0px 0px 6px, rgb(0, 0, 0) 0px 0px 3px; " transform="translate(0,11)"><tspan>ND</tspan></text></g><g  style="" transform="translate(158,78)"><text x="0"  style="font-size: 11px; font-weight: bold; color: white; fill: #ffffff; text-shadow: rgb(0, 0, 0) 0px 0px 6px, rgb(0, 0, 0) 0px 0px 3px; " transform="translate(0,11)"><tspan>MT</tspan></text></g><g  style="" transform="translate(165,134)"><text x="0"  style="font-size: 11px; font-weight: bold; color: white; fill: #ffffff; text-shadow: rgb(0, 0, 0) 0px 0px 6px, rgb(0, 0, 0) 0px 0px 3px; " transform="translate(0,11)"><tspan>WY</tspan></text></g><g  style="" transform="translate(67,342)"><text x="0"  style="font-size: 11px; font-weight: bold; color: white; fill: #ffffff; text-shadow: rgb(0, 0, 0) 0px 0px 6px, rgb(0, 0, 0) 0px 0px 3px; " transform="translate(0,11)"><tspan>AK</tspan></text></g><g  style="" transform="translate(487,183)"><text x="0"  style="font-size: 11px; font-weight: bold; color: white; fill: #ffffff; text-shadow: rgb(0, 0, 0) 0px 0px 6px, rgb(0, 0, 0) 0px 0px 3px; " transform="translate(0,11)"></text></g></g><g class="highcharts-legend"  transform="translate(185,35)"><rect x="0" y="0" width="214" height="47" strokeWidth="0" fill="rgb(255,255,255)" fill-opacity="0.8" visibility="visible"></rect><g ><g><g class="highcharts-legend-item"  transform="translate(8,3)"><rect x="0" y="4" width="200" height="12"  fill="url(#highcharts-2)"></rect><g class="highcharts-grid" ><path fill="none" d="M -0.5 4 L -0.5 16" stroke="#D8D8D8" stroke-width="1"  opacity="1"></path><path fill="none" d="M 66.5 4 L 66.5 16" stroke="#D8D8D8" stroke-width="1"  opacity="1"></path><path fill="none" d="M 132.5 4 L 132.5 16" stroke="#D8D8D8" stroke-width="1"  opacity="1"></path><path fill="none" d="M 200.5 4 L 200.5 16" stroke="#D8D8D8" stroke-width="1"  opacity="1"></path></g><text x="21" style="color:#333333;font-size:12px;font-weight:bold;cursor:pointer;fill:#333333;" text-anchor="start"  y="15"></text><g class="highcharts-axis" ><path fill="none" d="M -0.5 16 L -0.5 21" stroke="#C0D0E0" stroke-width="1" opacity="1"></path><path fill="none" d="M 66.5 16 L 66.5 21" stroke="#C0D0E0" stroke-width="1" opacity="1"></path><path fill="none" d="M 132.5 16 L 132.5 21" stroke="#C0D0E0" stroke-width="1" opacity="1"></path><path fill="none" d="M 200.5 16 L 200.5 21" stroke="#C0D0E0" stroke-width="1" opacity="1"></path></g><g class="highcharts-axis-labels highcharts-coloraxis-labels" ><text x="0" style="color:#606060;cursor:default;font-size:11px;fill:#606060;" text-anchor="start" transform="translate(0,0)" y="35" opacity="1">1</text><text x="66.6" style="color:#606060;cursor:default;font-size:11px;fill:#606060;" text-anchor="middle" transform="translate(0,0)" y="35" opacity="1">10</text><text x="133.3" style="color:#606060;cursor:default;font-size:11px;fill:#606060;" text-anchor="middle" transform="translate(0,0)" y="35" opacity="1">100</text><text x="200" style="color:#606060;cursor:default;font-size:11px;fill:#606060;" text-anchor="end" transform="translate(0,0)" y="35" opacity="1">1k</text></g></g></g></g></g><g class="highcharts-axis-labels highcharts-xaxis-labels" ></g><g class="highcharts-axis-labels highcharts-yaxis-labels" ></g><g class="highcharts-tooltip"  style="cursor:default;padding:0;white-space:nowrap;" transform="translate(0,-9999)"><path fill="none" d="M 3 0 L 13 0 C 16 0 16 0 16 3 L 16 13 C 16 16 16 16 13 16 L 3 16 C 0 16 0 16 0 13 L 0 3 C 0 0 0 0 3 0"  stroke="black" stroke-opacity="0.0" stroke-width="5" transform="translate(1, 1)"></path><path fill="none" d="M 3 0 L 13 0 C 16 0 16 0 16 3 L 16 13 C 16 16 16 16 13 16 L 3 16 C 0 16 0 16 0 13 L 0 3 C 0 0 0 0 3 0"  stroke="black" stroke-opacity="0.0" stroke-width="3" transform="translate(1, 1)"></path><path fill="none" d="M 3 0 L 13 0 C 16 0 16 0 16 3 L 16 13 C 16 16 16 16 13 16 L 3 16 C 0 16 0 16 0 13 L 0 3 C 0 0 0 0 3 0"  stroke="black" stroke-opacity="0.1" stroke-width="1" transform="translate(1, 1)"></path><path fill="rgb(249, 249, 249)" fill-opacity=" .85" d="M 3 0 L 13 0 C 16 0 16 0 16 3 L 16 13 C 16 16 16 16 13 16 L 3 16 C 0 16 0 16 0 13 L 0 3 C 0 0 0 0 3 0"></path><text x="8"  style="font-size:12px;color:#333333;fill:#333333;" transform="translate(0,20)"></text></g></svg>