<svg version="1.1" style="font-family:&quot;lucida grande&quot;, &quot;lucida sans unicode&quot;, arial, helvetica, sans-serif;font-size:12px;" xmlns="http://www.w3.org/2000/svg" width="584" height="500" viewBox="0 0 584 500"><desc>Created with Highcharts 4.1.4</desc><defs><clipPath id="highcharts-1"><rect x="0" y="0" width="564" height="424"></rect></clipPath></defs><rect x="0.5" y="0.5" width="582" height="498" strokeWidth="1" fill="#FFFFFF" stroke="#4572A7" stroke-width="1" class=" highcharts-background"></rect><g class="highcharts-grid" ></g><g class="highcharts-grid" ></g><g class="highcharts-axis" ></g><g class="highcharts-axis" ></g><g class="highcharts-series-group" ><g class="highcharts-series highcharts-tracker" visibility="visible"  transform="translate(10,61) scale(1 1)" style="cursor:pointer;" clip-path="url(#highcharts-1)"><g transform="translate(0,0) scale(1 1)"><path fill="#0200D0" d="M 139.0 347.3 L 140.2 345.1 L 141.6 344.9 L 141.8 345.4 L 140.5 347.3 L 139.0 347.3 z M 145.3 345.0 L 149.0 346.6 L 150.3 346.4 L 151.3 344.0 L 150.9 341.9 L 148.3 341.6 L 145.9 342.7 L 145.3 345.0 z M 164.0 351.2 L 166.4 354.6 L 167.8 354.3 L 168.5 354.1 L 169.4 354.8 L 171.7 354.7 L 172.3 353.8 L 170.5 352.8 L 169.3 350.5 L 168.0 348.3 L 164.5 350.1 L 164.0 351.2 z M 176.4 356.6 L 177.2 355.4 L 180.1 356.0 L 180.5 355.7 L 184.3 356.1 L 184.1 356.9 L 182.5 357.8 L 179.8 357.6 L 176.4 356.6 z M 179.7 359.8 L 180.9 362.1 L 182.8 361.5 L 183.0 360.5 L 182.0 359.2 L 179.7 359.0 L 179.7 359.8 z M 183.9 359.1 L 185.4 357.3 L 188.2 358.8 L 190.9 359.5 L 193.6 361.2 L 193.6 362.3 L 191.4 363.4 L 188.4 364.0 L 186.9 363.1 L 183.9 359.1 z M 194.2 368.6 L 195.2 367.8 L 197.2 368.8 L 201.9 371.0 L 204.0 372.3 L 205.0 373.7 L 206.1 376.4 L 208.6 378.0 L 208.4 378.8 L 206.1 380.8 L 203.5 381.7 L 202.6 381.3 L 200.7 382.4 L 199.2 384.3 L 197.8 386.1 L 196.7 386.0 L 194.5 384.4 L 194.4 381.7 L 194.8 380.2 L 193.7 376.7 L 192.5 375.6 L 192.4 374.0 L 193.7 373.4 L 195.0 371.6 L 195.3 371.0 L 194.4 369.9 L 194.2 368.6 z" vector-effect="non-scaling-stroke" stroke="silver" stroke-width="1" class=" highcharts-name-hawaii"></path><path fill="#C40401" d="M 93.1 307.1 L 92.9 359.4 L 93.9 360.0 L 95.8 360.1 L 96.6 359.4 L 98.2 359.4 L 98.3 361.2 L 102.6 365.3 L 102.9 366.9 L 105.0 365.7 L 105.4 365.6 L 105.6 363.7 L 106.5 362.8 L 107.2 362.6 L 108.3 361.8 L 110.2 363.1 L 110.6 364.8 L 111.8 365.5 L 112.5 367.0 L 114.9 368.1 L 117.0 371.8 L 118.6 374.2 L 120.0 375.8 L 120.9 378.1 L 124.0 379.2 L 127.1 380.5 L 127.7 383.2 L 128.0 385.1 L 127.4 387.1 L 126.3 388.5 L 125.4 388.0 L 124.5 386.1 L 122.8 385.2 L 121.7 384.5 L 121.2 385.1 L 122.1 386.7 L 122.2 389.0 L 121.5 389.3 L 120.3 388.1 L 119.0 387.3 L 119.4 388.3 L 120.1 389.4 L 119.7 389.9 C 119.7 389.9 119.1 389.7 118.9 389.3 C 118.6 388.9 117.6 387.2 117.6 387.2 L 117.0 385.8 C 117.0 385.8 116.8 386.6 116.4 386.4 C 116.0 386.2 115.6 385.5 115.6 385.5 L 116.7 384.3 L 115.7 383.5 L 115.7 380.4 L 115.2 380.4 L 114.8 382.4 L 114.1 382.7 L 113.5 380.5 L 113.1 378.2 L 112.6 377.9 L 112.8 381.4 L 112.8 382.1 L 111.9 381.3 L 109.7 377.6 L 108.5 377.3 L 108.0 375.0 L 107.0 373.2 L 106.1 372.6 L 106.1 371.2 L 107.3 370.4 L 107.0 370.2 L 105.5 370.5 L 103.4 369.1 L 101.8 367.3 L 98.8 365.7 L 96.4 364.1 L 97.2 362.1 L 97.2 361.2 L 96.1 362.1 L 94.3 362.8 L 92.0 362.1 L 88.6 360.7 L 85.2 360.7 L 84.8 361.0 L 80.8 358.6 L 79.6 358.4 L 77.8 354.8 L 75.7 355.0 L 73.5 355.9 L 73.8 358.7 L 74.5 356.9 L 75.1 357.1 L 74.2 359.8 L 76.2 358.1 L 76.6 359.1 L 74.2 361.8 L 73.4 361.5 L 73.1 360.4 L 72.3 359.9 L 71.5 360.6 L 69.8 359.5 L 68.0 360.7 L 66.9 362.0 L 64.8 363.3 L 61.9 363.3 L 61.6 362.0 L 63.9 361.5 L 63.9 360.7 L 62.5 360.4 L 63.1 358.9 L 64.5 356.5 L 64.5 355.4 L 64.6 354.9 L 67.2 353.5 L 67.9 354.3 L 69.6 354.3 L 68.8 352.8 L 66.4 352.5 L 63.4 354.3 L 61.9 356.3 L 60.8 357.9 L 60.1 359.3 L 57.6 360.2 L 55.7 361.8 L 55.5 362.8 L 56.9 363.3 L 57.4 364.7 L 55.7 366.6 L 51.8 369.2 L 47.0 371.8 L 45.7 372.4 L 42.4 373.2 L 39.1 374.5 L 40.2 375.3 L 39.3 376.2 L 39.1 376.9 L 37.4 376.3 L 35.4 376.4 L 34.9 377.8 L 34.3 377.8 L 34.5 376.3 L 32.3 377.1 L 30.6 377.7 L 28.5 376.9 L 26.7 378.1 L 24.7 378.1 L 23.4 378.9 L 22.4 379.4 L 21.1 379.2 L 19.5 378.5 L 18.1 378.9 L 17.6 379.5 L 16.6 378.8 L 16.6 377.6 L 18.4 376.8 L 22.3 377.2 L 25.0 376.2 L 26.3 374.9 L 28.1 374.5 L 29.2 374.0 L 30.8 374.2 L 31.9 374.9 L 32.4 374.7 L 33.8 373.0 L 35.7 372.4 L 37.8 372.1 L 38.6 371.9 L 39.0 372.1 L 39.4 372.1 L 40.2 369.9 L 42.7 369.0 L 43.9 366.7 L 45.3 363.9 L 46.3 363.1 L 46.5 361.5 L 45.5 362.3 L 43.4 362.6 L 43.0 361.2 L 42.2 361.0 L 41.6 361.5 L 41.5 363.3 L 40.6 363.3 L 39.8 359.7 L 39.0 360.5 L 38.3 360.2 L 38.0 359.0 L 35.6 359.1 L 34.3 359.8 L 32.7 359.6 L 33.6 358.7 L 33.9 357.1 L 33.5 355.9 L 34.4 355.4 L 35.2 355.2 L 34.8 354.1 L 34.8 351.4 L 34.2 350.9 L 33.7 351.7 L 30.0 351.7 L 29.0 350.9 L 28.7 348.6 L 27.4 346.4 L 27.4 345.8 L 28.7 345.3 L 28.7 344.0 L 29.5 343.4 L 29.0 343.0 L 28.2 343.4 L 27.4 341.6 L 28.1 338.6 L 30.8 336.6 L 32.4 335.6 L 33.6 333.4 L 35.3 332.6 L 36.9 333.2 L 37.1 334.7 L 38.6 334.5 L 40.5 333.1 L 41.5 333.4 L 42.1 333.9 L 43.1 333.9 L 44.5 333.1 L 45.0 330.4 C 45.0 330.4 45.2 328.6 45.6 328.3 C 46.0 328.0 46.2 327.7 46.2 327.7 L 45.5 326.5 L 43.9 327.0 L 41.9 327.5 L 40.7 327.2 L 38.6 326.1 L 35.5 326.0 L 33.3 323.8 L 33.6 321.4 L 34.0 319.9 L 32.7 318.8 L 31.5 316.5 L 31.9 316.0 L 36.0 315.7 L 37.2 315.7 L 37.9 316.3 L 38.3 316.3 L 38.2 315.3 L 40.5 314.9 L 42.1 315.1 L 43.0 315.9 L 42.1 317.1 L 41.8 318.0 L 43.5 319.0 L 46.5 320.1 L 47.6 319.5 L 46.3 316.8 L 45.7 314.8 L 46.3 314.3 L 44.2 313.2 L 43.9 312.5 L 44.2 311.5 L 43.7 309.1 L 41.9 306.2 L 40.4 303.7 L 42.2 302.4 L 44.2 302.4 L 45.3 302.9 L 47.8 302.8 L 50.2 300.6 L 50.8 298.7 L 53.1 297.2 L 54.1 297.8 L 55.8 297.4 L 58.1 296.1 L 58.7 296.0 L 59.3 296.5 L 62.1 296.4 L 63.8 294.6 L 64.5 294.6 L 66.7 296.0 L 67.9 297.3 L 67.5 298.0 L 68.0 298.7 L 69.0 297.7 L 71.3 297.9 L 71.5 300.2 L 72.7 301.1 L 77.0 301.5 L 80.9 304.0 L 81.8 303.4 L 85.0 305.0 L 86.3 304.7 L 87.4 304.2 L 90.4 305.3 L 93.1 307.1 z M 22.6 324.9 L 23.9 328.1 L 23.8 328.7 L 22.1 328.5 L 21.0 326.0 L 19.9 325.1 L 18.4 325.1 L 18.3 323.6 L 19.4 322.0 L 20.0 323.6 L 21.0 324.4 L 22.6 324.9 z M 21.0 345.3 L 23.3 345.8 L 25.6 346.4 L 26.1 347.0 L 25.1 349.3 L 23.2 349.2 L 21.1 347.0 L 21.0 345.3 z M 8.3 336.7 L 9.1 338.3 L 9.7 339.3 L 9.1 339.8 L 7.8 337.9 L 7.8 336.7 L 8.3 336.7 z M 0 381.4 L 2.0 380.1 L 4.1 379.5 L 5.7 379.7 L 6.0 380.6 L 7.2 380.9 L 8.3 379.8 L 8.2 378.8 L 9.9 378.4 L 11.6 380.0 L 10.9 381.1 L 8.3 381.7 L 6.6 381.4 L 4.3 380.8 L 1.7 381.7 L 0.6 381.9 L 0 381.4 z M 30.0 378.7 L 30.9 379.8 L 32.2 378.9 L 31.4 378.1 L 30.0 378.7 z M 31.7 380.6 L 32.4 379.2 L 33.7 379.4 L 33.2 380.6 L 31.7 380.6 z M 46.2 379.4 L 47.1 380.5 L 47.6 379.8 L 47.2 378.6 L 46.2 379.4 z M 51.5 371.8 L 52.2 375.3 L 54.0 375.8 L 57.1 374.0 L 59.7 372.4 L 58.7 371.0 L 59.0 369.5 L 57.8 370.3 L 56.0 369.8 L 57.0 369.1 L 58.2 369.6 L 60.5 368.5 L 60.8 367.6 L 59.3 367.1 L 59.8 365.9 L 58.2 367.1 L 55.3 369.3 L 52.3 371.1 L 51.5 371.8 z M 77.5 359.6 L 78.9 358.7 L 78.3 357.6 L 77.3 358.2 L 77.5 359.6 z" vector-effect="non-scaling-stroke" stroke="silver" stroke-width="1" class=" highcharts-name-alaska"></path><path fill="#0200D0" d="M 461.6 298.2 L 462.9 302.7 L 465.2 308.7 L 468.5 314.4 L 470.8 318.2 L 473.8 321.6 L 476.2 323.9 L 477.2 325.7 L 476.5 326.5 L 476.0 327.2 L 477.8 331.8 L 479.6 333.6 L 481.2 336.9 L 483.3 340.4 L 486.1 345.5 L 486.9 350.1 L 487.2 357.5 L 487.6 358.5 L 487.4 360.6 L 485.9 361.4 L 486.1 362.6 L 485.7 363.8 L 485.9 365.3 L 486.2 366.5 L 484.5 368.5 L 482.6 369.4 L 480.2 369.4 L 479.4 370.4 L 477.9 371.0 L 477.1 370.7 L 476.4 370.1 L 476.2 368.3 L 475.7 366.3 L 473.6 363.1 L 471.4 361.7 L 469.1 361.5 L 468.6 362.3 L 466.7 359.6 L 466.3 357.5 L 464.8 355.0 L 463.7 354.3 L 462.7 355.6 L 461.6 355.4 L 460.3 352.3 L 458.5 350.0 L 456.7 346.7 L 455.1 344.8 L 452.9 342.5 L 454.2 341.0 L 456.2 337.7 L 456.1 336.7 L 453.4 336.1 L 452.3 336.5 L 452.6 336.9 L 454.2 337.5 L 453.2 340.2 L 452.8 340.5 L 451.7 338.1 L 450.9 335.1 L 450.7 333.4 L 451.6 330.6 L 451.6 324.7 L 449.7 322.4 L 448.9 320.6 L 445.7 319.8 L 444.5 319.3 L 443.6 317.8 L 441.5 316.8 L 440.8 314.7 L 439.1 314.1 L 437.6 311.8 L 435.1 311.0 L 433.2 310.0 L 431.7 310.0 L 429.2 310.5 L 429.1 311.8 L 429.6 312.3 L 429.3 313.0 L 427.4 312.9 L 425.1 315.1 L 422.9 316.3 L 420.6 316.3 L 418.6 317.1 L 418.4 315.4 L 417.4 314.2 L 415.6 313.5 L 414.7 312.6 L 409.7 310.2 L 405.1 309.2 L 402.4 309.6 L 398.7 309.9 L 395.0 311.1 L 392.9 311.5 L 392.7 306.6 L 391.2 305.4 L 390.1 304.3 L 390.3 302.4 L 396.5 301.7 L 412.2 299.9 L 416.3 299.4 L 419.6 299.6 L 421.2 302.0 L 422.1 302.9 L 427.1 303.2 L 433.7 302.8 L 446.9 302.0 L 450.2 301.6 L 453.4 301.7 L 453.6 303.5 L 455.0 304.0 L 455.1 301.2 L 454.2 298.7 L 455.0 297.7 L 458.4 298.0 L 461.6 298.2 z M 469.2 379.3 L 470.7 378.9 L 471.5 378.7 L 472.4 377.3 L 473.8 376.3 L 474.6 376.6 L 475.7 376.8 L 475.9 377.5 L 473.8 378.2 L 471.2 379.1 L 469.8 379.8 L 469.2 379.3 z M 477.5 376.2 L 478.2 376.8 L 479.9 375.6 L 483.2 373.0 L 485.5 370.7 L 487.0 366.6 L 487.6 365.5 L 487.7 363.4 L 487.2 363.7 L 486.7 365.5 L 485.8 368.3 L 483.8 371.5 L 481.1 374.1 L 479.0 375.3 L 477.5 376.2 z" vector-effect="non-scaling-stroke" stroke="silver" stroke-width="1" class=" highcharts-name-florida"></path><path fill="#0200D0" d="M 535.6 116.6 L 536.2 115.9 L 536.8 113.9 L 535.3 113.3 L 535.0 111.4 L 532.6 110.7 L 532.4 109.0 L 527.9 94.7 L 525.1 85.8 L 524.6 85.8 L 524.2 86.8 L 523.8 86.5 L 523.2 85.9 L 522.3 87.1 L 522.3 90.2 L 522.4 93.7 L 523.7 95.3 L 523.7 97.8 L 521.4 100.9 L 519.8 101.6 L 519.8 102.3 L 520.5 103.3 L 520.5 108.6 L 520.0 114.2 L 519.9 117.2 L 520.5 118.0 L 520.4 120.8 L 520.1 121.9 L 520.7 122.3 L 530.9 119.6 L 532.3 119.2 L 533.4 117.5 L 535.6 116.6 z" vector-effect="non-scaling-stroke" stroke="silver" stroke-width="1" class=" highcharts-name-new-hampshire"></path><path fill="#0200D0" d="M 352.5 79.6 L 353.6 78.3 L 354.9 77.9 L 358.2 75.5 L 359.6 75.1 L 359.9 75.4 L 356.7 78.6 L 354.7 79.7 L 353.4 80.3 L 352.5 79.6 z M 405.2 99.3 L 405.6 100.8 L 407.6 100.9 L 408.4 100.2 C 408.4 100.2 408.4 99.3 408.2 99.2 C 408.0 99.1 407.2 98.0 407.2 98.0 L 405.8 98.2 L 404.8 98.3 L 404.6 99.0 L 405.2 99.3 z M 343.8 97.5 L 344.3 97.1 L 345.9 96.6 L 348.1 95.2 L 348.1 94.6 L 348.5 94.2 L 352.2 93.6 L 353.7 92.4 L 356.3 91.2 L 356.4 90.4 L 357.6 88.6 L 358.7 88.1 L 359.5 87.0 L 360.9 85.6 L 363.6 84.1 L 366.4 83.8 L 367.1 84.5 L 366.9 85.1 L 364.6 85.7 L 363.8 87.6 L 362.4 88.1 L 362.1 89.6 L 360.6 91.6 L 360.4 93.1 L 360.9 93.4 L 361.5 92.7 L 363.7 91.0 L 364.5 91.8 L 365.8 91.8 L 367.8 92.3 L 368.7 93.0 L 369.6 94.9 L 371.3 96.6 L 373.7 96.5 L 374.5 95.9 L 375.5 96.7 L 376.5 97.0 L 377.3 96.5 L 378.0 96.5 L 379.0 95.9 L 381.5 93.7 L 383.6 93.0 L 387.6 92.8 L 390.4 91.7 L 392.0 90.9 L 392.9 91.0 L 392.9 94.4 L 393.2 94.6 L 394.9 95.1 L 396.1 94.8 L 399.9 93.8 L 400.6 93.1 L 401.5 93.4 L 401.5 97.7 L 403.5 99.6 L 404.2 100.0 L 405.0 100.6 L 404.2 100.8 L 403.7 100.6 L 401.5 100.3 L 400.2 100.7 L 398.8 100.6 L 396.8 101.5 L 395.7 101.5 L 392.2 100.7 L 389.0 100.8 L 387.8 102.3 L 383.6 102.7 L 382.1 103.2 L 381.4 105.1 L 380.6 105.8 L 380.3 105.7 L 379.4 104.7 L 376.6 106.2 L 376.2 106.2 L 375.5 105.2 L 375.0 105.3 L 373.9 108.0 L 373.3 110.5 L 371.3 114.8 L 370.6 114.1 L 369.8 113.5 L 368.6 107.2 L 366.4 106.3 L 365.1 104.9 L 357.7 103.3 L 356.0 102.6 L 350.9 101.3 L 346.1 100.6 L 343.8 97.5 z M 423.6 137.9 L 421.6 132.8 L 420.2 127.3 L 418.8 125.3 L 417.2 124.2 L 416.2 124.9 L 413.8 126.0 L 412.6 129.0 L 410.9 131.3 L 410.3 131.7 L 409.3 131.3 C 409.3 131.3 407.7 130.5 407.9 130.0 C 408.0 129.7 408.2 127.0 408.2 127.0 L 410.3 126.2 L 410.7 124.1 L 411.1 122.5 L 412.6 121.5 L 412.4 115.4 L 411.4 114.0 L 410.6 113.5 L 410.1 112.2 L 410.6 111.7 L 411.6 111.9 L 411.7 110.9 L 410.3 109.6 L 409.5 108.0 L 407.9 108.0 L 405.1 107.1 L 401.7 105.0 L 400.0 105.0 L 399.7 105.4 L 399.1 105.1 L 397.2 103.7 L 395.4 104.8 L 393.6 106.2 L 393.8 108.3 L 394.4 108.5 L 395.7 108.8 L 396.0 109.3 L 394.4 109.8 L 392.8 110.1 L 392.0 111.1 L 391.8 112.4 L 392.0 113.4 L 392.1 116.8 L 389.9 118.1 L 389.6 118.0 L 389.6 115.4 L 390.4 113.9 L 390.7 112.4 L 390.2 111.9 L 389.1 112.4 L 388.5 115.0 L 386.8 115.7 L 385.7 116.9 L 385.6 117.5 L 386.0 118.0 L 385.6 119.6 L 384.2 119.9 L 384.2 120.5 L 384.7 122.0 L 384.0 125.8 L 383.0 128.2 L 383.4 131.1 L 383.7 131.8 L 383.3 133.3 L 383.0 133.8 L 382.8 135.5 L 385.0 139.1 L 386.8 143.1 L 387.7 146.1 L 387.2 148.9 L 386.6 152.6 L 385.1 155.7 L 384.9 157.5 L 382.9 159.4 L 385.6 159.2 L 398.7 157.9 L 403.2 157.3 L 403.2 158.3 L 407.4 157.5 L 413.8 156.6 L 416.1 156.4 L 416.2 156.0 L 416.3 155.1 L 417.5 152.8 L 418.8 151.8 L 418.6 148.6 L 419.6 147.7 L 420.3 147.5 L 420.4 145.3 L 421.4 143.4 L 422.0 143.8 L 422.1 144.2 L 422.6 144.3 L 423.8 143.7 L 423.6 137.9 z" vector-effect="non-scaling-stroke" stroke="silver" stroke-width="1" class=" highcharts-name-michigan"></path><path fill="#0200D0" d="M 513.4 123.7 L 513.6 120.4 L 511.8 113.8 L 511.4 113.6 L 509.6 112.8 L 510.1 111.0 L 509.6 109.8 L 508.0 106.9 L 508.6 104.5 L 508.1 101.4 L 506.6 97.4 L 506.1 94.4 L 522.3 90.2 L 522.5 93.7 L 523.7 95.3 L 523.7 97.8 L 521.4 100.9 L 519.8 101.6 L 519.8 102.3 L 520.6 103.2 L 520.4 108.2 L 520.0 113.8 L 519.9 117.2 L 520.5 118.0 L 520.4 120.8 L 520.1 121.9 L 520.7 122.3 L 516.1 123.2 L 513.4 123.7 z" vector-effect="non-scaling-stroke" stroke="silver" stroke-width="1" class=" highcharts-name-vermont"></path><path fill="#0200D0" d="M 561.4 77.6 L 562.5 78.9 L 564 81.2 L 564 82.3 L 562.7 85.2 L 561.5 85.6 L 559.4 87.5 L 556.4 90.8 C 556.4 90.8 556.1 90.8 555.6 90.8 C 555.3 90.8 555.0 89.5 555.0 89.5 L 554.0 89.7 L 553.4 90.6 L 551.9 91.4 L 551.3 92.4 L 552.3 93.2 L 551.9 93.7 L 551.6 95.3 L 550.5 95.2 L 550.5 94.2 L 550.3 93.4 L 549.4 93.7 L 548.3 91.6 L 547.0 92.4 L 547.8 93.3 L 548.0 94.0 L 547.5 94.8 L 547.7 96.7 L 547.8 97.7 L 546.8 99.3 L 545.0 99.6 L 544.8 101.4 L 541.6 103.3 L 540.8 103.5 L 539.8 102.7 L 537.9 104.8 L 538.5 106.8 L 537.6 107.6 L 537.5 110.2 L 536.8 114.1 L 535.3 113.4 L 535.0 111.5 L 532.7 110.8 L 532.5 109.1 L 528.0 94.8 L 525.1 85.8 L 526.0 85.8 L 526.9 86.0 L 526.9 84.4 L 527.7 81.7 L 529.3 78.8 L 530.2 76.3 L 529.0 74.9 L 529.0 71.2 L 529.5 70.6 L 530.0 68.9 L 529.9 68.0 L 529.8 65.0 L 530.9 62.1 L 532.7 56.6 L 533.9 54.0 L 534.7 54.0 L 535.5 54.2 L 535.5 54.8 L 536.3 56.2 L 538.0 56.6 L 538.5 56.1 L 538.5 55.5 L 541.0 53.7 L 542.1 52.6 L 542.9 52.7 L 546.6 54.2 L 547.8 54.8 L 553.4 73.1 L 557.0 73.1 L 557.5 74.3 L 557.6 77.3 L 559.4 78.7 L 559.9 78.7 L 560.0 78.4 L 559.7 77.7 L 561.4 77.6 z M 548.6 96.0 L 549.5 95.1 L 550.4 95.7 L 550.7 97.3 L 549.6 97.8 L 548.6 96.0 z M 552.7 92.4 L 553.7 93.6 C 553.7 93.6 554.5 93.7 554.5 93.4 C 554.5 93.2 554.7 92.2 554.7 92.2 L 555.3 91.7 L 554.8 90.6 L 553.5 91.1 L 552.7 92.4 z" vector-effect="non-scaling-stroke" stroke="silver" stroke-width="1" class=" highcharts-name-maine"></path><path fill="#0200D0" d="M 531.5 138.8 L 529.2 129.7 L 533.1 128.6 L 534.4 129.8 L 536.5 132.4 L 538.1 135.1 L 536.3 136.1 L 535.5 136.0 L 534.8 137.1 L 533.3 138.3 L 531.5 138.8 z" vector-effect="non-scaling-stroke" stroke="silver" stroke-width="1" class=" highcharts-name-rhode-island"></path><path fill="#0200D0" d="M 504.7 144.9 L 504.1 144.3 L 502.5 144.2 L 501.1 143.0 L 500.1 139.3 L 498.0 139.3 L 496.5 137.7 L 484.6 140.4 L 458.3 145.7 L 453.7 146.4 L 453.2 142.5 L 454.1 141.8 L 454.9 141.1 L 455.5 140.1 L 456.6 139.4 L 457.8 138.4 L 458.1 137.3 L 459.4 135.7 L 460.0 135.0 L 459.9 134.5 L 459.1 132.6 L 458.1 132.5 L 456.9 128.7 L 458.6 127.6 L 461.3 126.8 L 463.8 126.0 L 465.8 125.7 L 469.7 125.6 L 470.8 126.3 L 471.8 126.5 L 473.1 125.7 L 474.7 124.9 L 477.9 124.7 L 479.1 123.6 L 480.2 121.6 L 481.2 120.4 L 482.5 120.4 L 483.7 119.7 L 483.8 118.3 L 482.9 117.0 L 482.7 116.2 L 483.4 114.9 L 483.4 114.0 L 482.3 114.0 L 481.2 113.5 L 480.7 112.8 L 480.6 111.2 L 484.2 107.9 L 484.6 107.4 L 485.5 105.6 L 487.2 102.8 L 488.9 100.5 L 490.2 99.0 L 491.7 97.9 L 493.6 97.1 L 497.0 96.3 L 498.9 96.5 L 501.7 95.5 L 506.3 94.3 L 506.6 97.3 L 508.2 101.3 L 508.7 104.5 L 508.0 106.9 L 509.6 109.6 L 510.1 110.9 L 509.6 112.7 L 511.4 113.5 L 511.8 113.7 L 513.7 120.4 L 513.4 123.5 L 513.1 130.1 L 513.6 133.5 L 514.0 135.7 L 515.0 140.1 L 515.0 145.1 L 514.2 146.5 L 515.4 147.7 L 515.9 148.7 L 514.7 149.8 L 514.8 150.6 L 515.6 150.4 L 516.6 149.6 L 518.0 148.0 L 518.6 147.7 L 519.6 148.0 L 521.0 148.1 L 525.9 145.8 L 527.6 144.0 L 528.4 143.2 L 531.0 144.2 L 528.9 146.4 L 526.5 148.1 L 522.2 151.4 L 520.6 152.0 L 517.0 153.2 L 514.6 153.8 L 513.9 153.5 L 513.7 151.3 L 514.0 149.6 L 513.9 148.3 L 512.2 147.3 L 509.4 146.7 L 507.0 146.0 L 504.7 144.9 z" vector-effect="non-scaling-stroke" stroke="silver" stroke-width="1" class=" highcharts-name-new-york"></path><path fill="#0200D0" d="M 501.6 166.9 L 502.4 166.8 L 503.8 166.0 L 504.5 164.4 L 505.5 163.1 L 507.5 161.2 L 507.5 160.7 L 506.0 159.7 L 503.8 158.3 L 503.2 156.7 L 501.6 156.4 L 501.4 155.7 L 500.9 154.1 L 502.4 153.4 L 502.4 151.9 L 501.6 151.1 L 501.7 150.1 L 502.9 148.2 L 502.9 146.4 L 504.6 144.7 L 504.0 144.3 L 502.5 144.2 L 501.1 143.0 L 500.1 139.3 L 497.9 139.3 L 496.5 137.7 L 485.4 140.2 L 459.1 145.6 L 453.6 146.5 L 453.2 142.5 L 449.9 145.6 L 449.1 145.9 L 446.6 147.7 L 448.3 159.4 L 449.9 165.4 L 452.1 177.2 L 454.1 176.8 L 461.4 175.9 L 484.6 171.2 L 493.7 169.5 L 498.8 168.5 L 499.0 168.3 L 500.3 167.3 L 501.6 166.9 z" vector-effect="non-scaling-stroke" stroke="silver" stroke-width="1" class=" highcharts-name-pennsylvania"></path><path fill="#0200D0" d="M 504.3 144.7 L 502.9 146.4 L 502.9 148.3 L 501.7 150.2 L 501.6 151.1 L 502.4 151.9 L 502.3 153.4 L 500.9 154.1 L 501.4 155.8 L 501.5 156.5 L 503.2 156.7 L 503.8 158.3 L 506.0 159.8 L 507.4 160.8 L 507.4 161.3 L 505.7 162.9 L 504.6 164.3 L 503.8 166.0 L 502.4 166.8 L 502.1 167.7 L 501.9 168.5 L 501.6 170.1 L 502.2 171.5 L 504.2 173.3 L 507.2 174.6 L 509.6 175.0 L 509.8 175.9 L 509.3 176.5 L 509.5 178.2 L 509.9 178.2 L 511.2 176.7 L 511.7 173.7 L 513.4 171.2 L 515.3 167.3 L 516.0 163.9 L 515.6 163.2 L 515.5 157.5 L 514.5 155.4 L 513.8 155.9 L 512.1 156.1 L 511.8 155.8 L 512.5 155.2 L 513.8 154.0 L 513.9 153.4 L 513.6 151.3 L 514.0 149.6 L 513.9 148.4 L 512.1 147.3 L 509.1 146.6 L 506.5 145.8 L 504.3 144.7 z" vector-effect="non-scaling-stroke" stroke="silver" stroke-width="1" class=" highcharts-name-new-jersey"></path><path fill="#0200D0" d="M 501.9 169.1 L 502.0 167.8 L 502.3 166.8 L 501.3 167.0 L 500.3 167.3 L 499.0 168.4 L 500.0 171.5 L 501.4 174.9 L 502.7 180.8 L 503.7 184.7 L 506.8 184.6 L 510.5 183.9 L 509.1 179.4 L 508.5 179.7 L 506.3 178.2 L 505.3 175.3 L 504.1 173.1 L 502.2 171.4 L 501.6 170.1 L 501.9 169.1 z" vector-effect="non-scaling-stroke" stroke="silver" stroke-width="1" class=" highcharts-name-delaware"></path><path fill="#0200D0" d="M 510.5 183.9 L 506.8 184.6 L 503.7 184.7 L 502.5 180.5 L 501.4 174.8 L 499.8 171.0 L 499.0 168.4 L 494.5 169.3 L 485.3 171.1 L 462.4 175.7 L 463.1 178.8 L 463.7 182.3 L 463.9 182.1 L 465.2 180.5 L 466.5 178.9 L 468.0 178.6 L 468.9 177.7 L 470.0 176.1 L 470.8 176.5 L 472.6 176.3 L 474.2 175.0 L 475.4 174.1 L 476.5 173.8 L 477.6 174.5 L 479.3 175.4 L 480.5 176.5 L 481.2 177.4 L 483.7 178.5 L 483.7 180.2 L 487.1 181.0 L 487.8 181.4 L 488.7 180.1 L 490.5 181.3 L 489.7 182.9 L 489.2 185.3 L 488.1 186.9 L 488.1 188.2 L 488.5 189.3 L 491.6 190.1 L 494.3 190.0 L 496.2 190.6 L 497.5 190.8 L 498.0 189.5 L 497.1 188.3 L 497.1 187.2 L 495.6 185.9 L 494.3 182.6 L 495.1 179.3 L 495.1 178.0 L 494.3 177.2 C 494.3 177.2 495.1 176.2 495.1 175.8 C 495.1 175.4 495.4 174.5 495.4 174.5 L 496.7 173.7 L 497.8 172.8 L 498.1 173.3 L 497.2 174.3 L 496.4 176.6 L 496.7 177.3 L 497.7 177.5 L 498.0 180.8 L 496.7 181.5 L 496.9 183.6 L 497.2 183.5 L 497.9 182.3 L 498.9 183.4 L 497.9 184.2 L 497.7 186.3 L 499.3 188.4 L 501.7 188.7 L 502.7 188.2 L 504.7 190.8 L 505.5 191.1 L 509.6 189.4 L 510.8 186.9 L 510.5 183.9 z M 500.8 189.4 L 501.4 190.9 L 501.6 192.0 L 502.2 193.2 C 502.2 193.2 502.8 192.6 502.8 192.4 C 502.8 192.2 502.4 190.6 502.4 190.6 L 501.9 189.1 L 500.8 189.4 z" vector-effect="non-scaling-stroke" stroke="silver" stroke-width="1" class=" highcharts-name-maryland"></path><path fill="#0200D0" d="M 505.5 192.2 L 505.4 191.1 L 509.4 189.5 L 508.9 191.4 L 507.1 193.8 L 506.9 196.6 L 507.2 198.7 L 506.0 201.7 L 504.7 202.9 L 503.8 200.0 L 504.1 196.7 L 505.0 194.1 L 505.5 192.2 z M 507.6 209.6 L 472.0 217.3 L 449.0 220.5 L 444.9 220.3 L 443.4 221.4 L 438.9 221.6 L 433.7 222.2 L 427.0 223.2 L 433.5 219.7 L 433.5 218.5 L 434.4 217.2 L 440.9 210.1 L 443.3 212.9 L 445.6 213.4 L 447.1 212.7 L 448.5 212 L 450.1 212.7 L 452.4 211.9 L 453.6 209.1 L 455.2 209.4 L 457.0 208.2 L 458.1 208.5 L 459.8 206.2 L 460.0 204.9 L 459.4 204.1 L 460.0 203.0 L 463.2 195.5 L 463.7 191.9 L 464.4 191.6 L 465.7 193.2 L 468.1 193.0 L 469.3 188.3 L 471.0 187.9 L 471.7 186.3 L 473.3 184.8 L 474.9 181.3 L 475.0 178.3 L 481.0 180.6 C 481.4 180.8 481.5 177.5 481.5 177.5 L 483.7 178.5 L 483.8 180.3 L 487.3 181.1 L 488.6 181.8 L 489.7 183.0 L 489.2 185.3 L 488.1 186.9 L 488.1 188.1 L 488.5 189.3 L 491.5 190.0 L 494.3 190.1 L 496.2 190.6 L 497.3 190.8 L 497.8 192.7 L 499.7 193.0 L 500.3 193.7 L 500.0 196.6 L 500.8 197.3 L 500.5 198.5 L 501.3 198.9 L 501.1 199.8 L 499.5 199.7 L 499.5 200.7 L 500.9 201.7 L 501.0 202.5 L 502.1 203.6 L 502.4 205.2 L 500.8 206.0 L 501.8 206.9 L 505.4 205.9 L 507.6 209.6 z" vector-effect="non-scaling-stroke" stroke="silver" stroke-width="1" class=" highcharts-name-virginia"></path><path fill="#C40401" d="M 462.4 175.6 L 463.0 178.7 L 463.7 182.4 L 465.1 180.8 L 466.4 178.9 L 468.0 178.5 L 468.9 177.7 L 470.0 176.1 L 470.8 176.4 L 472.7 176.3 L 474.2 175.0 L 475.4 174.1 L 476.6 173.8 L 477.4 174.4 L 479.6 175.5 L 480.8 176.6 L 481.7 177.4 L 481.2 180.8 L 477.6 179.3 L 475.0 178.3 L 474.9 181.4 L 473.3 184.8 L 471.7 186.3 L 470.9 188.0 L 469.3 188.3 L 468.8 190.5 L 468.2 192.9 L 465.7 193.2 L 464.3 191.6 L 463.7 192.0 L 463.3 195.3 L 462.4 197.5 L 459.4 204.2 L 459.9 204.9 L 459.8 206.1 L 458.1 208.5 L 457.0 208.1 L 455.2 209.4 L 453.6 209.1 L 452.4 211.9 C 452.4 211.9 450.4 212.7 450.0 212.7 C 449.9 212.7 448.5 212 448.5 212 L 447.1 212.8 L 445.6 213.4 L 443.3 212.9 L 442.6 212.2 L 441.2 210.3 L 439.3 209.1 L 438.3 206.9 L 435.7 204.8 L 435.2 203.4 L 433.7 202.5 L 433.2 201.5 L 433.0 198.3 L 434.4 198.2 L 435.5 197.7 L 435.7 196.0 L 436.7 195.2 L 436.8 192.1 L 437.3 189.7 L 438.1 189.3 L 438.9 190.0 L 439.2 191.1 L 440.3 190.5 L 440.6 189.5 L 439.9 188.4 L 439.9 187.0 L 440.5 186.2 L 441.9 184.1 L 442.7 183.2 L 444.0 183.5 L 445.3 182.5 L 447.2 180.4 L 448.7 178.0 L 448.8 174.6 L 449.1 171.5 L 449.1 168.7 L 448.4 166.8 L 449.0 165.8 L 449.8 165.0 L 452.0 177.2 L 454.8 176.7 L 462.4 175.6 z" vector-effect="non-scaling-stroke" stroke="silver" stroke-width="1" class=" highcharts-name-west-virginia"></path><path fill="#0200D0" d="M 446.6 147.7 L 442.8 150.2 L 440.4 151.6 L 438.4 153.8 L 435.9 156.2 L 433.9 156.7 L 432.1 157.0 L 428.8 158.6 L 427.5 158.7 L 425.4 156.8 L 422.3 157.2 L 420.7 156.4 L 419.2 155.5 L 416.2 155.9 L 410.0 156.9 L 403.1 158.3 L 403.9 167.2 L 405.0 175.6 L 406.6 190.0 L 406.9 193.0 L 409.5 192.8 L 410.9 192.4 L 413.0 193.3 L 414.2 196.0 L 417.4 196.0 L 418.5 197.3 L 419.6 197.2 L 421.2 196.4 L 422.7 196.6 L 426.1 196.9 L 427.1 195.6 L 428.5 194.8 L 429.8 194.4 L 430.2 196.1 L 431.3 196.6 L 433.4 198.1 L 434.8 198.1 L 435.5 197.7 L 435.7 196.1 L 436.7 195.2 L 436.7 192.2 C 436.7 192.2 437.3 189.7 437.3 189.7 L 438.1 189.4 L 438.9 190.0 L 439.3 191.1 L 440.3 190.5 L 440.6 189.5 L 439.9 188.4 L 440.0 187.0 L 440.4 186.4 L 441.7 184.3 L 442.3 183.4 L 443.6 183.7 L 445.0 182.7 L 446.9 180.6 L 448.6 178.1 L 448.8 175.0 L 449.1 171.9 L 449.0 168.7 L 448.4 166.9 L 448.7 166.1 L 449.8 165.1 L 448.3 159.5 L 446.6 147.7 z" vector-effect="non-scaling-stroke" stroke="silver" stroke-width="1" class=" highcharts-name-ohio"></path><path fill="#0200D0" d="M 375.7 213.0 L 375.7 211.3 L 376.0 208.5 L 377.4 206.7 L 378.5 204.3 L 380.1 201.7 L 379.8 198.2 L 378.7 196.5 L 378.5 194.5 L 379.0 191.1 L 378.7 186.9 L 377.9 177.1 L 377.1 167.7 L 376.5 160.5 L 378.4 161.1 L 379.3 161.7 L 380.0 161.4 L 381.2 160.3 L 383.0 159.3 L 386.1 159.2 L 399.5 157.8 L 403.0 157.5 L 403.9 167.3 L 406.5 189.8 L 406.9 193.3 L 406.6 194.7 L 407.4 195.8 L 407.4 196.6 L 405.9 197.6 L 403.8 198.6 L 401.8 198.9 L 401.4 201.9 L 398.6 203.9 L 396.9 206.4 L 397.1 207.8 L 396.7 208.8 L 394.7 208.8 L 393.7 207.8 L 392.2 208.6 L 390.5 209.5 L 390.7 211.3 L 389.9 211.5 L 389.6 210.9 L 388.3 210.0 L 386.3 210.8 L 385.4 212.6 L 384.5 212.1 L 383.6 211.2 L 380.9 211.5 L 377.4 212.1 L 375.7 213.0 z" vector-effect="non-scaling-stroke" stroke="silver" stroke-width="1" class=" highcharts-name-indiana"></path><path fill="#0200D0" d="M 375.7 213.2 L 375.7 211.3 L 376.0 208.4 L 377.4 206.6 L 378.6 204.1 L 380.0 201.7 L 379.8 198.5 L 378.5 196.3 L 378.4 194.3 L 378.8 191.0 L 378.4 186.6 L 377.7 177.0 L 377.0 167.7 L 376.3 160.6 L 376.2 160.1 L 375.7 158.5 L 374.9 156.2 L 373.9 155.1 L 373.0 153.5 L 372.9 150.2 L 344.9 151.8 L 345.0 153.2 L 346.4 153.7 L 346.9 154.3 L 347.2 155.5 L 349.6 157.6 L 350.0 159.0 L 349.6 161.1 L 348.5 163.3 L 348.0 164.9 L 346.6 166.0 L 345.5 166.4 L 342.3 167.3 L 341.9 168.4 L 341.5 169.6 L 341.9 170.4 L 343.0 171.4 L 342.9 173.9 L 341.7 174.9 L 341.3 175.9 L 341.3 177.6 L 340.2 177.8 L 339.2 178.6 L 339.1 179.4 L 339.2 180.7 L 338.2 181.5 L 337.6 183.2 L 337.8 185.4 L 339.2 189.9 L 343.7 194.5 L 347.1 196.8 L 346.9 199.4 L 347.5 200.3 L 351.4 200.6 L 353.1 201.4 L 352.7 203.6 L 351.3 207.2 L 350.9 209.2 L 352.3 211.6 L 356.2 214.8 L 359.0 215.3 L 360.2 218.3 L 361.5 220.3 L 361.0 222.1 L 361.9 224.6 L 363.1 225.9 L 363.9 225.4 L 364.5 224.1 L 365.8 223.0 L 367.1 222.6 L 368.7 223.3 L 370.9 224.2 L 371.7 224.0 L 371.8 222.6 L 371.0 221.1 L 371.2 219.7 L 372.3 218.9 L 374.1 218.4 L 374.9 218.1 L 374.6 217.2 L 374.1 215.8 L 374.9 215.2 L 375.7 213.2 z" vector-effect="non-scaling-stroke" stroke="silver" stroke-width="1" class=" highcharts-name-illinois"></path><path fill="#0200D0" d="M 531.5 138.8 L 529.2 129.7 L 526.4 130.3 L 513.4 133.2 L 514.0 135.2 L 514.8 139.6 L 515.0 145.1 L 514.2 146.4 L 515.4 147.7 L 518.0 145.3 L 520.2 143.2 L 521.4 142.0 L 521.9 142.4 L 523.6 141.5 L 526.7 140.8 L 531.5 138.8 z" vector-effect="non-scaling-stroke" stroke="silver" stroke-width="1" class=" highcharts-name-connecticut"></path><path fill="#0200D0" d="M 372.9 150.2 L 372.8 148.3 L 372.2 145.5 L 371.7 141.7 L 371.1 140.2 L 371.7 138.4 L 372.2 136.6 L 373.0 135.0 L 372.7 132.9 L 372.2 130.7 L 372.5 129.7 L 373.8 128.1 L 373.8 126.5 L 373.3 125.7 L 373.8 124.1 L 373.5 121.5 L 375.2 118.1 L 377.0 113.9 L 377.0 112.5 L 376.8 112.0 L 376.3 112.2 L 373.8 116.1 L 372.1 118.6 L 370.9 119.7 L 370.4 121.0 L 369.2 121.5 L 368.5 122.7 L 367.6 122.6 L 367.5 121.5 L 368.3 120.0 L 369.6 117.1 L 370.7 116.1 L 371.3 114.7 L 369.7 113.5 L 368.5 107.1 L 366.4 106.3 L 365.1 104.9 L 357.7 103.3 L 355.9 102.6 L 350.9 101.3 L 346.1 100.6 L 343.8 97.4 L 343.3 97.8 L 342.6 97.7 L 342.2 97.0 L 341.4 97.1 L 340.7 97.3 L 339.6 97.9 L 339.0 97.4 L 339.4 96.3 L 340.6 94.4 L 341.3 93.7 L 340.1 92.8 L 338.8 93.3 L 337.0 94.5 L 332.4 96.5 L 330.7 96.9 L 328.9 96.6 L 328.3 96.0 L 327.0 97.8 L 326.9 99.5 L 326.9 104.6 L 326.2 105.6 L 322.9 108.0 L 321.5 111.7 L 321.8 111.8 L 323.4 113.1 L 323.8 115.0 L 322.6 117.0 L 322.6 119.3 L 322.9 123.4 L 324.8 125.2 L 326.9 125.2 L 328.0 127.1 L 330.1 127.5 L 332.4 130.9 L 336.8 133.5 L 338.1 135.2 L 338.6 139.7 L 339.0 141.7 L 340.5 142.7 L 340.6 143.6 L 339.3 145.6 L 339.5 147.6 L 341.0 150.0 L 342.5 150.7 L 344.4 151.0 L 345.2 151.8 L 372.9 150.2 z" vector-effect="non-scaling-stroke" stroke="silver" stroke-width="1" class=" highcharts-name-wisconsin"></path><path fill="#0200D0" d="M 507.6 209.6 L 508.8 212.6 L 511.0 216.5 L 512.5 218.0 L 512.9 219.4 L 511.4 219.5 L 511.9 219.8 L 511.7 222.4 L 510.1 223.2 L 509.8 224.5 L 509.0 226.3 L 506.7 227.3 L 505.2 227.1 L 504.3 227.0 L 503.3 226.2 L 503.5 227.0 L 503.5 227.6 L 504.7 227.6 L 505.2 228.4 L 504.0 232.3 L 506.6 232.3 L 506.9 233.3 L 508.4 231.9 L 509.1 231.5 L 508.0 233.7 L 506.1 236.7 L 505.3 236.7 L 504.6 236.4 L 502.9 236.8 L 499.7 238.3 L 495.8 241.5 L 493.7 244.4 L 492.5 248.4 L 492.2 249.9 L 489.4 250.2 L 486.0 251.0 L 479.9 245.9 L 472.2 241.3 L 470.5 240.8 L 462.7 241.7 L 460.1 242.1 L 459.1 240.2 L 457.3 238.9 L 447.2 239.2 L 442.7 239.7 L 437.2 242.4 L 433.4 244.0 L 420.4 245.6 L 420.7 243.1 L 421.8 242.3 L 423.5 241.8 L 423.9 239.6 L 426.5 237.9 L 428.9 237.0 L 431.4 234.9 L 434.1 233.6 L 434.5 231.7 L 436.9 229.3 L 437.3 229.2 C 437.3 229.2 437.3 229.9 437.8 229.9 C 438.3 229.9 439.0 230.1 439.0 230.1 L 440.3 227.9 L 441.7 227.5 L 443.0 227.7 L 444.0 225.5 L 445.8 224.0 L 446.1 222.7 L 446.2 220.4 L 448.8 220.4 L 453.2 219.8 L 462.9 218.5 L 472.2 217.2 L 485.4 214.3 L 497.6 211.7 L 504.5 210.2 L 507.6 209.6 z M 510.2 229.9 L 511.8 228.4 L 513.7 226.8 L 514.7 226.3 L 514.7 225.1 L 514.4 221.4 L 513.4 219.9 L 513.1 218.8 L 513.5 218.6 L 515.2 222.0 L 515.5 224.7 L 515.3 226.8 L 513.3 227.7 L 511.5 229.2 L 510.9 230.0 L 510.2 229.9 z" vector-effect="non-scaling-stroke" stroke="silver" stroke-width="1" class=" highcharts-name-north-carolina"></path><path fill="#0200D0" d="M 489.7 182.9 L 488.6 181.8 L 487.8 181.4 L 488.7 180.2 L 490.5 181.3 L 489.7 182.9 z" vector-effect="non-scaling-stroke" stroke="silver" stroke-width="1" class=" highcharts-name-district-of columbia"></path><path fill="#0200D0" d="M 547.2 135.4 L 548.5 135.0 L 548.8 133.9 L 549.4 134.0 L 550.1 135.4 L 549.3 135.7 L 546.9 135.8 L 547.2 135.4 z M 541.4 135.9 L 542.8 134.3 L 543.8 134.3 L 544.9 135.2 L 543.4 135.8 L 542.1 136.5 L 541.4 135.9 z M 520.1 122.4 L 530.9 119.6 L 532.3 119.2 L 533.5 117.5 L 535.8 116.5 L 537.6 119.2 L 536.0 122.4 L 535.8 123.2 L 537.0 124.8 L 537.7 124.3 L 538.8 124.3 L 540.2 125.9 L 542.6 129.6 L 544.8 129.8 L 546.1 129.3 L 547.2 128.2 L 546.7 126.5 L 545.5 125.5 L 544.5 126.0 L 544.0 125.2 L 544.2 124.9 L 545.5 124.8 L 546.6 125.3 L 547.8 126.8 L 548.4 128.6 L 548.6 130.1 L 546.1 130.9 L 543.7 132.2 L 541.3 134.9 L 540.1 135.8 L 540.1 135.2 L 541.6 134.3 L 541.9 133.2 L 541.4 131.4 L 539.6 132.2 L 539.1 133.1 L 539.4 134.5 L 538.2 135.1 L 536.5 132.3 L 534.4 129.7 L 533.1 128.6 L 529.1 129.7 L 526.0 130.4 L 513.3 133.2 L 512.9 130.3 L 513.3 123.8 L 515.9 123.2 L 520.1 122.4 z" vector-effect="non-scaling-stroke" stroke="silver" stroke-width="1" class=" highcharts-name-massachusetts"></path><path fill="#C40401" d="M 422.9 224.2 L 391.1 227.3 L 381.5 228.4 L 378.7 228.7 L 376.3 228.7 L 376.2 231.2 L 371.1 231.3 L 366.8 231.7 L 361.9 231.7 L 361.0 236.0 L 360.0 239.3 L 358.0 241.0 L 357.2 243.7 L 357.0 245.3 L 354.5 246.7 L 355.4 248.9 L 354.8 251.5 L 354.2 252.0 L 420.4 245.6 L 420.7 243.2 L 421.8 242.3 L 423.5 241.8 L 423.9 239.6 L 426.4 237.9 L 428.9 237.0 L 431.4 234.8 L 434.1 233.6 L 434.4 231.7 L 437.0 229.2 L 437.3 229.2 C 437.3 229.2 437.3 229.9 437.8 229.9 C 438.3 229.9 439.0 230.1 439.0 230.1 L 440.4 227.9 L 441.6 227.5 L 443.0 227.7 L 444.0 225.5 L 445.8 223.9 L 446.1 222.7 L 446.3 220.5 L 444.9 220.3 L 443.3 221.6 L 439.0 221.6 L 427.8 223.0 L 422.9 224.2 z" vector-effect="non-scaling-stroke" stroke="silver" stroke-width="1" class=" highcharts-name-tennessee"></path><path fill="#C40401" d="M 359.9 239.4 L 357.5 239.8 L 354.4 239.4 L 354.6 238.5 L 356.4 236.9 L 357.0 234.7 L 355.9 232.8 L 307.9 234.4 L 308.9 238.6 L 308.9 243.6 L 309.7 250.3 L 309.8 273.5 L 311.2 274.7 L 313.0 273.9 L 314.7 274.5 L 315.2 278.6 L 349.2 277.9 L 349.9 276.6 L 349.7 274.4 L 348.6 272.6 L 349.6 271.7 L 348.6 270.1 L 349.0 268.6 L 349.9 265.2 L 351.4 263.9 L 351.0 262.5 L 353.3 259.2 L 354.9 258.4 L 354.8 257.4 L 354.6 256.3 L 356.4 252.9 L 357.8 252.2 L 358.1 250.0 L 359.2 249.3 L 357.2 249.0 L 356.4 246.5 L 358.2 245.1 L 358.5 243.9 L 359.3 241.4 L 359.9 239.4 z" vector-effect="non-scaling-stroke" stroke="silver" stroke-width="1" class=" highcharts-name-arkansas"></path><path fill="#C40401" d="M 338.3 181.3 L 336.7 179.4 L 336.0 178.0 L 296.6 179.4 L 295.2 179.5 L 295.9 181.0 L 295.8 182.4 L 297.3 184.8 L 299.2 187.3 L 301.1 189.0 L 302.5 189.2 L 303.4 189.7 L 303.4 191.6 L 302.2 192.5 L 302.0 193.9 L 303.2 196.0 L 304.8 197.9 L 306.4 199.0 L 307.1 206.1 L 307.3 228.2 L 307.5 231.1 L 307.8 234.4 L 321.5 233.8 L 335.7 233.4 L 348.5 232.9 L 355.6 232.8 L 356.9 234.9 L 356.5 236.9 L 354.6 238.3 L 354.3 239.5 L 357.5 239.7 L 359.9 239.3 L 361.0 236.0 L 361.4 232.4 L 362.7 230.8 L 364.3 230.0 L 364.3 228.1 L 364.9 226.9 L 363.9 225.3 L 363.1 225.9 L 361.8 224.6 L 361.1 221.6 L 361.6 220.1 L 360.4 218.0 L 359.3 215.2 L 356.3 214.7 L 352.0 211.3 L 351.0 208.8 L 351.5 206.8 L 352.8 203.1 L 353.0 201.4 L 351.8 200.7 L 347.6 200.2 L 347.0 199.2 L 346.9 196.6 L 343.6 194.5 L 339.3 189.7 L 337.9 185.3 L 337.8 182.7 L 338.3 181.3 z" vector-effect="non-scaling-stroke" stroke="silver" stroke-width="1" class=" highcharts-name-missouri"></path><path fill="#C40401" d="M 407.9 247.0 L 407.9 248.4 L 408.1 249.7 L 408.5 251.8 L 410.5 256.6 L 412.0 262.6 L 412.9 266.4 L 413.9 269.4 L 414.8 273.6 L 416.1 277.5 L 417.7 279.5 L 418.0 281.6 L 419.1 282.1 L 419.3 283.4 L 418.2 286.4 L 417.9 288.4 L 417.7 289.5 L 418.8 292.2 L 419.0 295.5 L 418.5 297.0 L 418.8 297.5 L 419.8 298.0 L 419.9 299.9 L 421.2 302.0 L 422.6 303.3 L 427.5 303.4 L 434.1 303.0 L 447.2 302.2 L 450.6 301.8 L 453.4 301.8 L 453.5 303.6 L 455.1 304.1 L 455.3 301.4 L 454.3 298.7 L 455.0 297.7 L 458.6 298.2 L 461.6 298.3 L 461.1 294.5 L 462.5 288.4 L 463.4 285.8 L 463.1 284.2 L 465.1 280.4 L 464.8 279.5 L 463.7 280.0 L 462.1 279.2 L 461.7 277.9 L 460.9 275.8 L 459.5 274.5 L 457.9 274.0 L 456.9 271.1 L 455.1 267.2 L 452.6 266.0 L 451.3 264.9 L 450.5 263.3 L 449.2 262.0 L 447.8 261.2 L 446.4 259.5 L 444.5 258.1 L 441.8 257.0 L 441.5 256.1 L 440.0 254.3 L 439.7 253.5 L 437.6 250.4 L 435.4 250.5 L 433.2 249.0 L 432.3 248.2 L 432.1 247.2 L 432.6 245.9 L 434.0 245.3 L 433.6 244.0 L 407.9 247.0 z" vector-effect="non-scaling-stroke" stroke="silver" stroke-width="1" class=" highcharts-name-georgia"></path><path fill="#C40401" d="M 464.7 279.2 L 463.6 279.9 L 462.0 279.1 L 461.6 277.8 L 460.8 275.6 L 459.4 274.3 L 457.8 273.9 L 456.9 270.9 L 455.2 267.3 L 452.6 266.1 L 451.3 264.9 L 450.5 263.3 L 449.3 262.1 L 447.9 261.4 L 446.4 259.5 L 444.6 258.2 L 441.9 257.1 L 441.5 256.2 L 440.0 254.4 L 439.8 253.5 L 437.7 250.3 L 435.6 250.5 L 433.1 248.9 L 432.3 248.2 L 432.1 247.1 L 432.6 245.9 L 434.0 245.3 L 433.7 243.9 L 437.2 242.4 L 442.8 239.7 L 447.5 239.1 L 457.4 238.9 L 459.1 240.1 L 460.1 242.1 L 462.7 241.7 L 470.5 240.9 L 472.2 241.3 L 479.9 246.0 L 486.1 251.0 L 482.8 254.3 L 481.2 258.1 L 480.9 261.9 L 479.9 262.4 L 479.3 264.1 L 477.7 264.5 L 476.5 266.7 L 474.8 268.3 L 473.4 270.4 L 472.4 270.9 L 470.2 273.0 L 468.4 273.1 L 469.0 275.1 L 466.0 278.4 L 464.7 279.2 z" vector-effect="non-scaling-stroke" stroke="silver" stroke-width="1" class=" highcharts-name-south-carolina"></path><path fill="#C40401" d="M 440.8 210.1 L 439.5 211.6 L 437.3 214.0 L 434.2 217.4 L 433.5 218.4 L 433.5 219.7 L 430.8 221.1 L 427.3 223.2 L 422.9 224.3 L 391.1 227.3 L 381.5 228.3 L 378.7 228.6 L 376.3 228.6 L 376.2 231.2 L 371.1 231.3 L 366.8 231.7 L 361.9 231.7 L 362.7 230.8 L 364.2 229.9 L 364.4 227.9 L 364.9 226.8 L 364.0 225.2 L 364.5 224.1 L 365.8 223.0 L 367.1 222.6 L 368.8 223.4 L 371.0 224.2 L 371.7 224.0 L 371.7 222.6 L 371.0 221.1 L 371.2 219.7 L 372.4 218.9 L 373.9 218.4 L 374.9 218.1 L 374.4 217.0 L 374.1 215.8 L 375.0 215.2 C 375.0 215.1 375.7 213.0 375.7 212.9 L 377.6 212.0 L 380.9 211.5 L 383.6 211.2 L 384.5 212.1 L 385.4 212.7 L 386.4 210.8 L 388.3 210.0 L 389.7 210.9 L 389.9 211.5 L 390.7 211.3 L 390.5 209.5 L 392.4 208.5 L 393.8 207.8 L 394.7 208.8 L 396.7 208.8 L 397.1 207.8 L 396.9 206.4 L 398.4 204.0 L 401.4 201.9 L 401.8 198.9 L 403.6 198.7 L 405.9 197.6 L 407.4 196.6 L 407.3 195.7 L 406.6 194.7 L 407.0 192.9 L 409.5 192.8 L 410.9 192.4 L 413.0 193.3 L 414.2 195.9 L 417.4 195.9 L 418.6 197.3 L 419.6 197.2 L 421.2 196.4 L 424.4 196.8 L 426.0 196.9 L 427.0 195.7 L 428.6 194.7 L 429.8 194.3 L 430.2 196.1 L 431.4 196.7 L 433.0 198.0 L 433.2 201.5 L 433.7 202.5 L 435.2 203.4 L 435.7 204.8 L 438.2 206.9 L 439.3 209.1 L 440.8 210.1 z" vector-effect="non-scaling-stroke" stroke="silver" stroke-width="1" class=" highcharts-name-kentucky"></path><path fill="#C40401" d="M 382.9 311.3 L 382.0 302.4 L 380.3 291.0 L 380.4 282.4 L 380.9 263.4 L 380.7 253.2 L 380.9 249.2 L 408.1 247.0 L 408.0 248.4 L 408.1 249.7 L 408.5 251.8 L 410.6 256.6 L 412.1 262.6 L 413.0 266.4 L 413.9 269.4 L 414.9 273.6 L 416.1 277.5 L 417.7 279.5 L 418.0 281.6 L 419.2 282.1 L 419.3 283.4 L 418.2 286.4 L 417.9 288.4 L 417.8 289.5 L 418.8 292.2 L 419.0 295.5 L 418.5 297.0 L 418.9 297.5 L 419.8 298.0 L 420.0 299.8 L 416.6 299.5 L 412.4 299.9 L 396.8 301.7 L 390.4 302.6 L 390.2 304.3 L 391.3 305.4 L 392.9 306.6 L 393.3 311.5 L 389.9 313.0 L 388.2 312.9 L 389.9 311.6 L 389.9 311.0 L 388.0 307.4 L 386.6 307.0 L 385.7 309.7 L 385.0 311.3 L 384.5 311.3 L 382.9 311.3 z" vector-effect="non-scaling-stroke" stroke="silver" stroke-width="1" class=" highcharts-name-alabama"></path><path fill="#C40401" d="M 368.6 310.5 L 366.5 308.5 L 367.2 305.1 L 366.8 304.7 L 361.1 305.3 L 345.8 305.5 L 345.4 304.0 L 345.9 298.9 L 347.9 295.2 L 351.0 289.9 L 350.7 288.4 L 351.4 288.1 L 351.7 286.8 L 350.3 285.5 L 350.3 284.4 L 349.2 281.8 L 349.0 277.8 L 315.1 278.4 L 315.1 284.3 L 315.5 290.0 L 316.0 292.4 L 317.5 294.9 L 318.0 298.0 L 320.7 301.3 L 320.9 303.3 L 321.2 303.7 L 320.9 308.9 L 319.0 312.0 L 320.0 313.2 L 319.6 314.8 L 319.1 319.3 L 318.3 321.2 L 318.4 323.5 L 321.3 322.5 L 328.7 322.7 L 335.0 324.8 L 339.0 325.5 L 341.3 324.6 L 343.2 325.3 L 345.2 325.9 L 345.7 324.6 L 343.7 323.9 L 342.2 324.2 L 340.5 323.2 C 340.5 323.2 340.6 322.5 340.9 322.3 C 341.4 322.2 342.8 321.7 342.8 321.7 L 343.9 322.7 L 345.0 322.0 L 347.0 322.5 L 347.9 323.9 L 348.1 325.3 L 350.9 325.5 L 352.0 326.6 L 351.4 327.6 L 350.7 328.1 L 351.7 329.1 L 356.8 331.2 L 358.9 330.4 L 359.6 329.0 L 361.2 328.6 L 362.3 327.7 L 363.1 328.3 L 363.5 330.1 L 362.1 330.6 L 362.6 331.0 L 364.6 330.2 L 366.0 328.1 L 366.5 327.8 L 365.2 327.6 L 365.7 326.6 L 365.6 325.7 L 366.9 325.4 L 367.6 324.6 L 367.9 325.1 C 367.9 325.1 367.9 327.0 368.4 327.0 C 368.9 327.0 370.9 327.4 370.9 327.4 L 373.4 328.6 L 374.0 329.5 L 375.8 329.5 L 376.5 330.1 L 377.9 328.2 L 377.9 327.3 L 377.1 327.3 L 375.0 325.6 L 371.4 325.1 L 369.5 323.8 L 370.2 322.0 L 371.6 322.2 L 371.6 321.9 L 370.6 321.2 L 370.6 320.9 L 372.5 320.9 L 373.6 319.1 L 372.8 317.9 L 372.6 316.2 L 371.7 316.3 L 370.6 317.6 L 370.2 319.2 L 368.3 318.8 L 367.7 317.7 L 368.7 316.5 L 369.9 314.4 L 369.3 312.9 L 368.6 310.5 z" vector-effect="non-scaling-stroke" stroke="silver" stroke-width="1" class=" highcharts-name-louisiana"></path><path fill="#C40401" d="M 383.0 310.6 L 382.9 311.4 L 379.7 311.4 L 378.8 310.8 L 377.5 310.7 L 373.3 311.9 L 372.3 311.4 L 370.7 314.0 L 370.0 314.4 L 369.3 312.9 L 368.6 310.5 L 366.5 308.6 L 367.2 305.1 L 366.8 304.6 L 365.7 304.7 L 360.8 305.3 L 345.8 305.5 L 345.4 304.1 L 345.8 299.0 L 347.8 295.5 L 351.0 290.0 L 350.7 288.4 L 351.5 288.1 L 351.7 286.8 L 350.3 285.6 L 350.3 284.3 L 349.1 281.8 L 349.0 278.1 L 349.9 276.6 L 349.7 274.5 L 348.7 272.6 L 349.6 271.7 L 348.6 270.2 L 348.9 269.1 L 349.9 265.2 L 351.4 263.9 L 351.0 262.5 L 353.3 259.2 L 355.0 258.4 L 354.8 257.4 L 354.7 256.3 L 356.4 252.9 L 357.8 252.2 L 358.0 251.6 L 380.8 249.2 L 380.9 253.1 L 381.0 263.3 L 380.5 282.3 L 380.4 290.9 L 382.1 302.4 L 383.0 310.6 z" vector-effect="non-scaling-stroke" stroke="silver" stroke-width="1" class=" highcharts-name-mississippi"></path><path fill="#0200D0" d="M 344.8 151.5 L 345.0 153.2 L 346.3 153.6 L 346.9 154.3 L 347.3 155.5 L 349.6 157.5 L 350.0 159.0 L 349.6 161.1 L 348.6 163.1 L 348.1 164.7 L 346.8 165.7 L 345.7 166.1 L 342.3 167.3 L 341.4 169.6 L 341.9 170.4 L 343.0 171.5 L 342.8 173.9 L 341.8 174.8 L 341.3 175.9 L 341.4 177.6 L 340.2 177.8 L 339.2 178.5 L 339.0 179.4 L 339.2 180.7 L 338.3 181.3 L 336.8 179.4 L 336.0 177.9 L 295.8 179.4 L 295.2 179.6 L 293.9 176.8 L 293.8 172.8 L 292.8 170.2 L 292.4 167.0 L 291.0 164.7 L 290.4 161.8 L 288.8 157.2 L 288.0 153.9 L 287.2 152.6 L 286.3 150.9 L 287.4 147.9 L 288.3 144.4 L 286.6 143.2 L 286.3 141.5 L 286.9 139.9 L 287.9 139.9 L 338.6 139.1 L 339.0 141.7 L 340.4 142.7 L 340.6 143.6 L 339.4 145.6 L 339.5 147.6 L 341.0 149.9 L 342.5 150.7 L 344.4 151.0 L 344.8 151.5 z" vector-effect="non-scaling-stroke" stroke="silver" stroke-width="1" class=" highcharts-name-iowa"></path><path fill="#0200D0" d="M 287.3 108.2 L 287.0 103.0 L 285.9 98.5 L 284.8 90.3 L 284.5 84.3 L 283.4 82.2 L 282.4 79.1 L 282.4 72.8 L 282.8 70.4 L 281.7 67.1 L 300.2 67.1 L 300.3 62.1 L 300.8 61.9 L 302.1 62.2 L 303.4 62.7 L 303.8 66.1 L 304.7 69.9 L 305.7 70.9 L 308.7 70.9 L 308.9 71.7 L 312.7 72.0 L 312.7 73.3 L 315.7 73.3 L 315.9 72.5 L 316.6 71.7 L 318.0 71.4 L 318.8 72.0 L 320.6 72.0 L 322.9 73.5 L 326.2 75.0 L 327.7 75.3 L 328.0 74.7 L 328.9 74.4 L 329.1 76.2 L 330.7 77.0 L 331.0 76.7 L 331.8 76.8 L 331.8 78.1 L 333.4 78.6 L 335.3 78.6 L 336.3 78.2 L 338.3 76.2 L 339.8 75.9 L 340.3 77.0 L 340.6 77.8 L 341.3 77.8 L 341.8 77.3 L 347.3 77.1 L 348.4 79.0 L 348.8 79.0 L 349.2 78.3 L 351.9 78.1 L 351.5 79.5 L 349.2 80.6 L 343.5 83.1 L 340.5 84.3 L 338.7 85.9 L 337.1 88.1 L 335.8 90.5 L 334.7 91.0 L 331.9 94.0 L 331.1 94.1 L 328.5 95.8 L 327.0 97.8 L 326.9 99.7 L 326.9 104.7 L 326.1 105.7 L 322.9 108.0 L 321.6 111.7 L 323.3 113.0 L 323.7 115.0 L 322.6 117.0 L 322.7 119.2 L 322.9 123.4 L 324.8 125.2 L 326.9 125.2 L 328.0 127.1 L 330.0 127.5 L 332.4 130.9 L 336.8 133.5 L 338.1 135.2 L 338.5 139.1 L 288.8 139.9 L 288.5 118.0 L 288.3 116.2 L 285.8 114.1 L 285.0 112.9 L 285.0 112.0 L 286.3 111.0 L 287.2 110.2 L 287.3 108.2 z" vector-effect="non-scaling-stroke" stroke="silver" stroke-width="1" class=" highcharts-name-minnesota"></path><path fill="#C40401" d="M 229.2 225.8 L 219.0 225.0 L 218.4 231.7 L 231.0 232.4 L 250.6 233.2 L 249.2 248.1 L 248.9 259.1 L 249.0 260.1 L 251.7 262.3 L 253.0 263.0 L 253.4 262.8 L 253.8 261.6 L 254.6 262.7 L 255.9 262.7 L 255.9 261.9 L 257.5 262.7 L 257.3 265.1 L 259.8 265.2 L 261.3 266.0 L 263.9 266.4 L 265.4 267.5 L 266.8 266.2 L 268.9 266.6 L 270.5 268.7 L 271.0 268.7 L 271.0 270.1 L 272.4 270.5 L 273.8 269.1 L 274.9 269.6 L 276.5 269.6 L 277.0 271.1 L 280.9 272.4 L 281.7 272.0 L 282.8 269.4 L 283.6 269.4 L 284.2 270.7 L 286.8 271.1 L 289.0 272.0 L 290.8 272.5 L 292.0 272.0 L 292.4 270.4 L 295.0 270.4 L 296.3 271.0 L 298.0 269.8 L 298.6 269.8 L 299.1 270.7 L 301.6 270.7 L 302.6 269.4 L 303.7 269.8 L 304.9 271.3 L 306.9 272.4 L 308.9 272.9 L 310.1 273.6 L 309.8 250.8 L 309.0 244.1 L 308.9 238.7 L 308.0 234.7 L 307.5 230.3 L 307.5 227.9 L 300.0 228.2 L 271.6 227.9 L 244.1 226.6 L 229.2 225.8 z" vector-effect="non-scaling-stroke" stroke="silver" stroke-width="1" class=" highcharts-name-oklahoma"></path><path fill="#C40401" d="M 217.6 231.7 L 231.5 232.4 L 250.6 233.1 L 249.2 247.5 L 249.0 258.6 L 249.0 259.8 L 251.7 262.2 L 252.9 263.1 L 253.6 262.7 L 253.8 261.6 L 254.5 262.7 L 255.8 262.8 L 255.8 261.9 L 256.8 262.5 L 257.5 262.7 L 257.3 265.2 L 259.8 265.2 L 261.6 266.0 L 264.0 266.3 L 265.5 267.5 L 266.8 266.3 L 269.1 266.6 L 270.4 268.6 L 271.1 268.8 L 271.0 270.0 L 272.4 270.5 L 273.8 269.3 L 275.1 269.6 L 276.5 269.6 L 277.0 271.1 L 280.9 272.4 L 281.9 272.0 L 282.8 269.4 L 283.0 269.4 L 283.6 269.4 L 284.3 270.7 L 286.7 271.1 L 288.7 271.8 L 290.9 272.5 L 292.0 272.0 L 292.4 270.4 L 295.1 270.4 L 296.2 271.0 L 298.0 269.7 L 298.6 269.8 L 299.1 270.7 L 301.6 270.7 L 302.6 269.4 L 303.7 269.8 L 304.9 271.2 L 307.1 272.4 L 308.8 272.9 L 309.7 273.4 L 311.2 274.7 L 313.1 273.9 L 314.7 274.5 L 315.1 278.3 L 315.0 284.2 L 315.5 290.1 L 315.9 292.3 L 317.6 295.0 L 318.1 298.0 L 320.7 301.4 L 320.8 303.3 L 321.2 303.8 L 320.8 308.9 L 319.0 312.0 L 320.0 313.3 L 319.6 314.8 L 319.2 319.3 L 318.3 321.3 L 318.5 323.5 L 315.0 324.4 L 308.9 327.2 L 308.4 328.4 L 306.8 329.6 L 305.5 330.5 L 304.7 331.0 L 301.2 334.2 L 299.6 335.5 L 296.3 337.5 L 292.8 339.0 L 289.0 341.1 L 287.9 341.9 L 284.3 344.1 L 282.2 344.5 L 279.8 347.9 L 277.4 348.1 L 276.8 349.3 L 278.2 350.5 L 277.3 353.8 L 276.5 356.6 L 275.8 359.0 L 275.3 361.8 L 275.8 363.3 L 276.9 367.5 L 277.4 371.3 L 278.6 372.9 L 277.9 373.8 L 276.1 375.0 L 272.6 372.6 L 269.2 371.9 L 268.4 372.3 L 266.5 371.9 L 263.9 370.0 L 260.7 369.3 L 256.1 367.2 L 254.8 364.8 L 254.0 360.9 L 252.0 359.7 L 251.6 358.3 L 252.0 357.9 L 252.2 355.8 L 251.4 355.4 L 251.1 354.8 L 251.9 352.2 L 250.8 350.8 L 248.9 350.0 L 246.8 347.3 L 244.6 343.2 L 242.1 341.6 L 242.1 340.5 L 238.9 332.9 L 238.4 330.4 L 237.3 329.2 L 237.2 328.3 L 233.5 325.0 L 232.0 323.1 L 232.0 322.5 L 230.4 321.2 L 226.2 320.5 L 221.7 320.1 L 219.8 318.7 L 217.0 319.8 L 214.8 320.7 L 213.4 322.7 L 212.9 324.9 L 210.2 328.7 L 208.7 330.2 L 207.1 329.6 L 206.0 328.9 L 204.8 328.5 L 202.4 327.1 L 202.4 326.7 L 201.3 325.5 L 198.2 324.2 L 193.6 319.5 L 192.2 316.6 L 192.2 311.7 L 190.3 307.7 L 190.0 306.0 L 189.0 305.4 L 188.3 304.2 L 185.2 302.9 L 184.4 301.9 L 180.1 297.0 L 179.3 295.0 L 176.4 293.6 L 175.5 291.0 L 173.9 289.2 L 172.7 288.9 L 172.4 286.0 L 177.3 286.5 L 195.0 288.1 L 212.8 289.1 L 214.2 277.2 L 216.5 243.2 L 217.5 231.7 L 218.4 231.7 M 279.0 372.4 L 278.7 368.0 L 277.0 363.6 L 276.7 359.3 L 277.6 354.3 L 279.6 350.0 L 281.7 346.7 L 283.6 344.5 L 284.1 344.7 L 281.1 348.7 L 278.5 352.7 L 277.2 356.8 L 277.0 360.0 L 277.6 363.7 L 279.2 368.2 L 279.5 371.3 L 279.5 372.2 L 279.0 372.4 z" vector-effect="non-scaling-stroke" stroke="silver" stroke-width="1" class=" highcharts-name-texas"></path><path fill="#0200D0" d="M 172.7 289.0 L 172.3 286.0 L 177.6 286.3 L 196.0 288.2 L 212.7 289.2 L 214.1 277.8 L 216.5 243.5 L 217.5 231.7 L 218.5 231.7 L 219.0 224.9 L 155.3 218.4 L 144.6 292.2 L 154.1 293.4 L 154.9 287.2 L 172.7 289.0 z" vector-effect="non-scaling-stroke" stroke="silver" stroke-width="1" class=" highcharts-name-new-mexico"></path><path fill="#C40401" d="M 307.3 227.9 L 299.6 228.1 L 271.3 227.8 L 244.1 226.5 L 229.0 225.8 L 231.3 186.2 L 244.9 186.6 L 269.6 187.2 L 296.7 187.8 L 299.8 187.8 L 301.1 189.0 L 302.4 189.0 L 303.4 189.7 L 303.4 191.5 L 302.2 192.6 L 302.0 193.9 L 303.2 196.0 L 304.9 198.0 L 306.4 199.0 L 307.1 205.8 L 307.3 227.9 z" vector-effect="non-scaling-stroke" stroke="silver" stroke-width="1" class=" highcharts-name-kansas"></path><path fill="#C40401" d="M 293.9 176.7 L 295.9 181.0 L 295.8 182.4 L 298.0 185.8 L 299.6 187.7 L 296.6 187.7 L 269.9 187.2 L 244.9 186.6 L 231.3 186.1 L 232.0 173.1 L 212.2 171.3 L 214.9 144.3 L 224.4 145.0 L 236.7 145.6 L 247.6 146.4 L 262.1 147.0 L 268.8 146.7 L 270.0 148.1 L 272.9 150.0 L 273.7 150.5 L 276.3 149.7 L 278.7 149.4 L 280.4 149.3 L 281.5 150.1 L 283.9 151.1 L 285.8 152.1 L 286.1 153.0 L 286.6 154.3 L 287.7 154.3 L 288.2 154.3 L 288.8 157.2 L 290.6 162.4 L 290.9 164.7 L 292.5 167.0 L 292.8 170.1 L 293.8 172.8 L 293.9 176.7 z" vector-effect="non-scaling-stroke" stroke="silver" stroke-width="1" class=" highcharts-name-nebraska"></path><path fill="#C40401" d="M 288.0 154.3 L 288.0 153.9 L 286.3 150.9 L 287.4 148.0 L 288.3 144.4 L 286.6 143.2 L 286.3 141.5 L 286.8 139.9 L 288.8 139.9 L 288.7 136.9 L 288.5 118.4 L 288.1 116.1 L 285.7 114.0 L 285.0 113.0 L 285.0 112.0 L 286.3 111.1 L 287.2 110.1 L 287.3 108.5 L 251.7 107.5 L 218.1 105.3 L 214.8 144.4 L 223.7 144.9 L 236.0 145.6 L 246.8 146.2 L 261.4 147.0 L 268.8 146.7 L 270.0 148.1 L 273.2 150.1 L 273.6 150.6 L 276.4 149.7 L 280.4 149.3 L 281.4 150.1 L 284.0 151.1 L 285.8 152.1 L 286.0 153.0 L 286.7 154.4 L 288.0 154.3 z" vector-effect="non-scaling-stroke" stroke="silver" stroke-width="1" class=" highcharts-name-south-dakota"></path><path fill="#C40401" d="M 287.4 108.3 L 286.9 103.1 L 286.0 98.9 L 284.8 91.0 L 284.5 84.2 L 283.5 82.3 L 282.3 79.1 L 282.3 72.8 L 282.8 70.4 L 281.6 67.1 L 264.1 66.7 L 252.7 66.3 L 236.5 65.5 L 222.4 64.3 L 218.2 105.3 L 251.8 107.4 L 287.4 108.3 z" vector-effect="non-scaling-stroke" stroke="silver" stroke-width="1" class=" highcharts-name-north-dakota"></path><path fill="#C40401" d="M 217.0 117.0 L 151.6 108.8 L 143.0 163.0 L 212.4 171.3 L 217.0 117.0 z" vector-effect="non-scaling-stroke" stroke="silver" stroke-width="1" class=" highcharts-name-wyoming"></path><path fill="#C40401" d="M 222.4 64.2 L 203.6 62.5 L 185.7 60.3 L 167.8 57.8 L 147.9 54.6 L 136.7 52.5 L 116.7 48.3 L 113.9 61.3 L 116.0 65.9 L 115.2 68.7 L 116.3 71.5 L 118.2 72.4 L 121.1 79.0 L 122.7 80.9 L 123.0 81.6 L 125.1 82.3 L 125.4 83.5 L 121.1 94.4 L 121.1 95.9 L 122.6 97.9 L 123.1 97.9 L 126.1 96.0 L 126.5 95.4 L 127.5 95.7 L 127.3 99.0 L 129.0 106.7 L 130.9 108.2 L 131.4 108.7 L 132.5 110.1 L 132.2 112.1 L 132.6 114.2 L 133.4 114.8 L 134.8 113.4 L 136.4 113.4 L 138.4 114.3 L 139.9 113.8 L 142.4 113.8 L 144.7 114.8 L 146.4 114.5 L 146.7 112.7 L 148.5 112.3 L 149.3 113.1 L 149.6 115.1 L 150.5 115.6 L 151.6 108.8 L 217.0 117.0 L 222.4 64.2 z" vector-effect="non-scaling-stroke" stroke="silver" stroke-width="1" class=" highcharts-name-montana"></path><path fill="#0200D0" d="M 229.0 225.8 L 232.0 173.0 L 162.6 165.2 L 155.1 219.1 L 229.0 225.8 z" vector-effect="non-scaling-stroke" stroke="silver" stroke-width="1" class=" highcharts-name-colorado"></path><path fill="#C40401" d="M 87.2 137.4 L 92.6 115.8 L 93.4 113.2 L 95.0 109.6 L 94.2 108.2 L 92.7 108.3 L 92.2 107.6 L 92.5 106.9 L 92.7 105.0 L 95.4 101.7 L 96.5 101.4 L 97.2 100.7 L 97.6 98.7 L 98.1 98.3 L 100.5 94.8 L 102.9 92.1 L 103.0 89.8 L 100.9 88.2 L 100.0 85.5 L 108.3 46.7 L 116.6 48.2 L 113.9 61.3 L 116.1 65.9 L 115.1 68.8 L 116.4 71.6 L 118.2 72.4 L 120.6 78.2 L 122.7 81.0 L 123.0 81.7 L 125.1 82.4 L 125.4 83.6 L 121.1 94.3 L 120.9 95.9 L 122.5 97.9 L 123.1 97.9 L 126.1 96.0 L 126.5 95.3 L 127.5 95.7 L 127.3 99.0 L 129.0 106.7 L 131.4 108.7 L 132.5 110.0 L 132.0 112.5 L 132.6 114.2 L 133.3 114.9 L 134.8 113.4 L 136.6 113.5 L 138.3 114.3 L 140.0 113.9 L 142.4 113.8 L 144.8 114.8 L 146.5 114.6 L 146.8 112.7 L 148.6 112.3 L 149.4 113.2 L 149.6 115.0 L 150.5 115.7 L 145.4 148.5 C 145.4 148.5 91.5 138.3 87.2 137.4 z" vector-effect="non-scaling-stroke" stroke="silver" stroke-width="1" class=" highcharts-name-idaho"></path><path fill="#C40401" d="M 155.2 219.2 L 103.9 212 L 116.5 143.0 L 145.2 148.4 L 144.3 154.9 L 142.9 163.0 L 147.6 163.5 L 157.7 164.6 L 162.7 165.2 L 155.2 219.2 z" vector-effect="non-scaling-stroke" stroke="silver" stroke-width="1" class=" highcharts-name-utah"></path><path fill="#C40401" d="M 85.1 263.6 L 83.4 264.9 L 83.2 265.8 L 83.5 266.4 L 95.1 272.9 L 102.5 277.6 L 111.5 282.9 L 121.9 289.0 L 129.3 290.4 L 144.6 292.2 L 155.2 219.2 L 103.9 211.9 L 102.0 221.9 L 101.0 221.9 L 100.0 223.6 L 98.5 223.5 L 97.7 221.8 L 96.0 221.6 L 95.5 220.9 L 94.9 220.9 L 94.3 221.3 L 93.1 221.9 L 93.1 226.2 L 93.0 227.2 L 92.6 234.9 L 91.7 236.3 L 91.3 238.3 L 93.0 241.3 L 93.8 244.8 L 94.2 245.4 L 94.9 245.8 L 94.8 247.2 L 93.8 248.1 L 91.7 249.1 L 90.6 250.3 L 89.7 252.5 L 89.3 255.5 L 87.6 257.2 L 86.3 257.6 L 86.3 258.2 L 86.1 259.2 L 86.3 259.7 L 88.6 260.0 L 88.2 261.7 L 87.3 263.1 L 85.1 263.6 z" vector-effect="non-scaling-stroke" stroke="silver" stroke-width="1" class=" highcharts-name-arizona"></path><path fill="#0200D0" d="M 116.5 142.9 L 102.1 221.8 L 101.0 222.1 L 100.0 223.5 L 98.5 223.5 L 97.7 221.9 L 96.0 221.6 L 95.6 221.0 L 94.9 220.9 L 93.2 221.9 L 93.0 226.1 L 92.8 229.6 L 92.6 234.9 L 91.7 236.1 L 90.2 235.5 L 48.0 171.7 L 59.6 130.3 L 116.5 142.9 z" vector-effect="non-scaling-stroke" stroke="silver" stroke-width="1" class=" highcharts-name-nevada"></path><path fill="#0200D0" d="M 87.4 136.8 L 92.8 115.5 L 93.4 112.9 L 94.9 109.4 L 94.5 108.8 L 93.0 108.7 L 92.2 107.7 L 92.5 106.8 L 92.8 104.8 L 95.5 101.4 L 96.6 100.8 L 97.3 100.1 L 98.2 97.9 L 100.7 94.4 L 102.9 92.1 L 103.0 90.0 L 101.0 88.4 L 99.9 85.6 L 92.2 83.4 L 82.9 81.2 L 73.5 81.3 L 73.2 80.4 L 69.9 81.7 L 67.1 81.3 L 65.7 80.4 L 64.9 80.8 L 62.0 80.7 L 60.9 79.8 L 57.8 78.5 L 57.3 78.6 L 54.6 77.7 L 53.4 78.8 L 49.6 78.6 L 46.0 76.1 L 46.4 75.6 L 46.5 70.9 L 45.1 68.5 L 42.6 68.1 L 42.2 66.6 L 40.7 66.3 L 37.2 67.6 L 35.8 71.5 L 33.8 77.7 L 31.9 81.6 L 28.8 90.2 L 24.8 98.5 L 19.9 106.3 L 18.7 108.0 L 18.2 113.3 L 18.4 120.7 L 87.4 136.8 z" vector-effect="non-scaling-stroke" stroke="silver" stroke-width="1" class=" highcharts-name-oregon"></path><path fill="#0200D0" d="M 58.8 34.0 L 61.5 34.9 L 67.4 36.6 L 72.7 37.7 L 84.9 41.2 L 99.0 44.7 L 108.3 46.6 L 99.9 85.6 L 92.3 83.4 L 82.9 81.2 L 73.5 81.3 L 73.2 80.4 L 69.8 81.8 L 67.0 81.3 L 65.7 80.4 L 64.9 80.7 L 62.0 80.7 L 60.9 79.8 L 57.8 78.5 L 57.3 78.6 L 54.6 77.7 L 53.4 78.8 L 49.6 78.6 L 45.9 76.1 L 46.4 75.5 L 46.5 70.8 L 45.1 68.5 L 42.6 68.1 L 42.2 66.6 L 40.8 66.3 L 38.6 67.0 L 37.2 65.1 L 37.4 63.3 L 39.1 63.1 L 40.1 60.6 L 38.5 59.9 L 38.6 57.6 L 41.3 57.3 L 39.6 55.6 L 38.7 51.2 L 39.1 49.4 L 39.1 44.6 L 38.0 42.6 L 39.4 36.8 L 40.7 37.1 L 42.2 38.9 L 43.9 40.5 L 45.8 41.7 L 48.6 43.0 L 50.5 43.4 L 52.3 44.3 L 54.3 44.9 L 55.7 44.8 L 55.7 43.3 L 56.5 42.6 L 57.8 41.8 L 58.0 42.5 L 58.2 43.6 L 56.8 43.9 L 56.7 45.2 L 57.7 46.1 L 58.4 47.5 L 58.8 48.7 L 59.7 48.6 L 59.8 47.9 L 59.2 47.1 L 58.9 45.1 L 59.4 44.0 L 59.0 43.1 L 59.0 41.7 L 60.1 39.5 L 59.4 37.9 L 57.9 35.0 L 58.1 34.5 L 58.8 34.0 z M 53.0 37.6 L 54.3 37.6 L 54.6 38.4 L 55.5 37.4 L 57.0 37.4 L 57.4 38.4 L 56.5 39.4 L 56.9 39.9 L 56.4 41.1 L 55.6 41.4 C 55.6 41.4 55.1 41.4 55.1 41.2 C 55.1 41.0 55.9 39.6 55.9 39.6 L 54.9 39.3 L 54.7 40.2 L 54.3 40.6 L 53.3 39.2 L 53.0 37.6 z" vector-effect="non-scaling-stroke" stroke="silver" stroke-width="1" class=" highcharts-name-washington"></path><path fill="#0200D0" d="M 84.9 263.3 L 87.3 263.1 L 88.2 261.8 L 88.6 260.0 L 86.4 259.6 L 86.0 259.2 L 86.3 258.0 L 86.3 257.6 L 87.4 257.3 L 89.3 255.5 L 89.7 252.5 L 90.5 250.4 L 91.7 249.1 L 93.9 248.1 L 94.9 247.1 L 94.9 245.8 L 94.3 245.4 L 93.7 244.8 L 93.0 241.2 L 91.3 238.3 L 91.7 236.1 L 90.2 235.5 L 47.9 171.7 L 59.5 130.3 L 18.4 120.7 L 17.5 123.6 L 17.4 128.1 L 14.2 135.3 L 12.3 136.9 L 12.1 137.7 L 11.0 138.2 L 10.2 140.7 L 9.7 142.7 L 11.3 145.3 L 12.3 147.8 L 13.0 150.0 L 12.8 154.0 L 11.7 155.9 L 11.3 159.4 L 10.7 161.7 L 11.8 164.1 L 13.5 166.8 L 14.9 169.8 L 15.7 172.3 L 15.5 174.3 L 15.3 174.6 L 15.3 175.9 L 18.7 179.7 L 18.4 181.2 L 18.1 182.6 L 17.6 183.8 L 17.8 188.8 L 19.1 191.1 L 20.2 192.7 L 21.9 193.0 L 22.5 194.7 L 21.8 196.8 L 20.5 197.8 L 19.9 197.8 L 19.4 200.2 L 19.7 202.0 L 21.6 204.7 L 22.6 207.9 L 23.5 210.8 L 24.3 212.7 L 26.4 216.2 L 27.3 217.8 L 27.6 219.6 L 28.5 220.2 L 28.5 221.7 L 28.1 222.8 L 27.0 227.3 L 26.7 228.4 L 28.2 230.1 L 30.7 230.4 L 33.5 231.5 L 35.9 232.8 L 37.7 232.8 L 39.4 234.7 L 41.0 237.6 L 41.7 239.0 L 44.1 240.3 L 47.1 240.8 L 48.0 242.1 L 48.4 244.0 L 47.5 244.5 L 47.6 245.1 L 49.7 245.6 L 51.3 245.6 L 53.3 244.6 L 55.7 247.2 L 56.2 248.6 L 57.7 251.1 L 57.9 253.1 L 57.9 258.9 L 58.2 260.0 L 64.4 260.9 L 76.4 262.5 L 84.9 263.3 z M 30.9 236.6 L 31.7 237.5 L 31.6 238.3 L 29.6 238.3 L 29.3 237.5 L 28.9 236.6 L 30.9 236.6 z M 32.1 236.6 L 32.9 236.2 L 35.0 237.5 L 36.9 238.2 L 36.4 238.6 L 33.6 238.5 L 32.6 237.5 L 32.1 236.6 z M 44.8 248.7 L 45.9 250.2 L 46.4 250.7 L 47.3 251.1 L 47.6 250.2 L 47.1 249.1 L 45.4 247.9 L 44.8 248.0 L 44.8 248.7 z M 43.9 254.0 L 45.0 255.9 L 45.8 257.1 L 44.8 257.3 L 44.0 256.5 C 44.0 256.5 43.6 255.7 43.6 255.4 C 43.6 255.1 43.6 254.1 43.6 254.1 L 43.9 254.0 z" vector-effect="non-scaling-stroke" stroke="silver" stroke-width="1" class=" highcharts-name-california"></path></g></g><g class="highcharts-markers highcharts-tracker" visibility="visible"  transform="translate(10,61) scale(1 1)" style="cursor:pointer;" clip-path="none"></g></g><text x="292" text-anchor="middle" class="highcharts-title"  style="color:#333333;font-size:18px;fill:#333333;width:520px;" y="24"><tspan>US presidential election 2008 results</tspan></text><text x="292" text-anchor="middle" class="highcharts-subtitle"  style="color:#555555;fill:#555555;width:520px;" y="46"><tspan>Source: </tspan><tspan onclick="location.href=&quot;http://en.wikipedia.org/wiki/United_States_presidential_election,_2008#Election_results&quot;" style="cursor: pointer; " dx="0">Wikipedia</tspan></text><g class="highcharts-data-labels highcharts-tracker" visibility="visible"  transform="translate(10,61) scale(1 1)" clip-path="url(#highcharts-1)" style="cursor:pointer;"><g  style="text-transform:uppercase;cursor:pointer;" transform="translate(167,358)"><text x="0"  style="font-size: 11px; font-weight: bold; color: rgb(255, 255, 255); fill: #ffffff; text-shadow: rgb(0, 0, 0) 0px 0px 6px, rgb(0, 0, 0) 0px 0px 3px; " transform="translate(0,11)"><tspan>hi</tspan></text></g><g  style="text-transform:uppercase;cursor:pointer;" transform="translate(57,327)"><text x="0"  style="font-size: 11px; font-weight: bold; color: rgb(255, 255, 255); fill: #ffffff; text-shadow: rgb(0, 0, 0) 0px 0px 6px, rgb(0, 0, 0) 0px 0px 3px; " transform="translate(0,11)"><tspan>ak</tspan></text></g><g  style="text-transform:uppercase;cursor:pointer;" transform="translate(457,333)"><text x="0"  style="font-size: 11px; font-weight: bold; color: rgb(255, 255, 255); fill: #ffffff; text-shadow: rgb(0, 0, 0) 0px 0px 6px, rgb(0, 0, 0) 0px 0px 3px; " transform="translate(0,11)"><tspan>fl</tspan></text></g><g  style="text-transform:uppercase;cursor:pointer;" transform="translate(521,98)"><text x="0"  style="font-size: 11px; font-weight: bold; color: rgb(255, 255, 255); fill: #ffffff; text-shadow: rgb(0, 0, 0) 0px 0px 6px, rgb(0, 0, 0) 0px 0px 3px; " transform="translate(0,11)"><tspan>nh</tspan></text></g><g  style="text-transform:uppercase;cursor:pointer;" transform="translate(376,111)"><text x="0"  style="font-size: 11px; font-weight: bold; color: rgb(255, 255, 255); fill: #ffffff; text-shadow: rgb(0, 0, 0) 0px 0px 6px, rgb(0, 0, 0) 0px 0px 3px; " transform="translate(0,11)"><tspan>mi</tspan></text></g><g  style="text-transform:uppercase;cursor:pointer;" transform="translate(508,101)" opacity="0"><text x="0"  style="font-size: 11px; font-weight: bold; color: rgb(255, 255, 255); fill: #ffffff; text-shadow: rgb(0, 0, 0) 0px 0px 6px, rgb(0, 0, 0) 0px 0px 3px; " transform="translate(0,11)"><tspan>vt</tspan></text></g><g  style="text-transform:uppercase;cursor:pointer;" transform="translate(537,77)"><text x="0"  style="font-size: 11px; font-weight: bold; color: rgb(255, 255, 255); fill: #ffffff; text-shadow: rgb(0, 0, 0) 0px 0px 6px, rgb(0, 0, 0) 0px 0px 3px; " transform="translate(0,11)"><tspan>me</tspan></text></g><g  style="text-transform:uppercase;cursor:pointer;" transform="translate(527,128)" opacity="0"><text x="0"  style="font-size: 11px; font-weight: bold; color: rgb(255, 255, 255); fill: #ffffff; text-shadow: rgb(0, 0, 0) 0px 0px 6px, rgb(0, 0, 0) 0px 0px 3px; " transform="translate(0,11)"><tspan>ri</tspan></text></g><g  style="text-transform:uppercase;cursor:pointer;" transform="translate(485,118)"><text x="0"  style="font-size: 11px; font-weight: bold; color: rgb(255, 255, 255); fill: #ffffff; text-shadow: rgb(0, 0, 0) 0px 0px 6px, rgb(0, 0, 0) 0px 0px 3px; " transform="translate(0,11)"><tspan>ny</tspan></text></g><g  style="text-transform:uppercase;cursor:pointer;" transform="translate(470,151)"><text x="0"  style="font-size: 11px; font-weight: bold; color: rgb(255, 255, 255); fill: #ffffff; text-shadow: rgb(0, 0, 0) 0px 0px 6px, rgb(0, 0, 0) 0px 0px 3px; " transform="translate(0,11)"><tspan>pa</tspan></text></g><g  style="text-transform:uppercase;cursor:pointer;" transform="translate(502,156)"><text x="0"  style="font-size: 11px; font-weight: bold; color: rgb(255, 255, 255); fill: #ffffff; text-shadow: rgb(0, 0, 0) 0px 0px 6px, rgb(0, 0, 0) 0px 0px 3px; " transform="translate(0,11)"><tspan>nj</tspan></text></g><g  style="text-transform:uppercase;cursor:pointer;" transform="translate(498,170)"><text x="0"  style="font-size: 11px; font-weight: bold; color: rgb(255, 255, 255); fill: #ffffff; text-shadow: rgb(0, 0, 0) 0px 0px 6px, rgb(0, 0, 0) 0px 0px 3px; " transform="translate(0,11)"><tspan>de</tspan></text></g><g  style="text-transform:uppercase;cursor:pointer;" transform="translate(478,175)"><text x="0"  style="font-size: 11px; font-weight: bold; color: rgb(255, 255, 255); fill: #ffffff; text-shadow: rgb(0, 0, 0) 0px 0px 6px, rgb(0, 0, 0) 0px 0px 3px; " transform="translate(0,11)"><tspan>md</tspan></text></g><g  style="text-transform:uppercase;cursor:pointer;" transform="translate(461,194)"><text x="0"  style="font-size: 11px; font-weight: bold; color: rgb(255, 255, 255); fill: #ffffff; text-shadow: rgb(0, 0, 0) 0px 0px 6px, rgb(0, 0, 0) 0px 0px 3px; " transform="translate(0,11)"><tspan>va</tspan></text></g><g  style="text-transform:uppercase;cursor:pointer;" transform="translate(448,183)" opacity="0"><text x="0"  style="font-size: 11px; font-weight: bold; color: rgb(255, 255, 255); fill: #ffffff; text-shadow: rgb(0, 0, 0) 0px 0px 6px, rgb(0, 0, 0) 0px 0px 3px; " transform="translate(0,11)"><tspan>wv</tspan></text></g><g  style="text-transform:uppercase;cursor:pointer;" transform="translate(418,167)"><text x="0"  style="font-size: 11px; font-weight: bold; color: rgb(255, 255, 255); fill: #ffffff; text-shadow: rgb(0, 0, 0) 0px 0px 6px, rgb(0, 0, 0) 0px 0px 3px; " transform="translate(0,11)"><tspan>oh</tspan></text></g><g  style="text-transform:uppercase;cursor:pointer;" transform="translate(386,179)"><text x="0"  style="font-size: 11px; font-weight: bold; color: rgb(255, 255, 255); fill: #ffffff; text-shadow: rgb(0, 0, 0) 0px 0px 6px, rgb(0, 0, 0) 0px 0px 3px; " transform="translate(0,11)"><tspan>in</tspan></text></g><g  style="text-transform:uppercase;cursor:pointer;" transform="translate(353,182)"><text x="0"  style="font-size: 11px; font-weight: bold; color: rgb(255, 255, 255); fill: #ffffff; text-shadow: rgb(0, 0, 0) 0px 0px 6px, rgb(0, 0, 0) 0px 0px 3px; " transform="translate(0,11)"><tspan>il</tspan></text></g><g  style="text-transform:uppercase;cursor:pointer;" transform="translate(515,133)" opacity="0"><text x="0"  style="font-size: 11px; font-weight: bold; color: rgb(255, 255, 255); fill: #ffffff; text-shadow: rgb(0, 0, 0) 0px 0px 6px, rgb(0, 0, 0) 0px 0px 3px; " transform="translate(0,11)"><tspan>ct</tspan></text></g><g  style="text-transform:uppercase;cursor:pointer;" transform="translate(341,116)"><text x="0"  style="font-size: 11px; font-weight: bold; color: rgb(255, 255, 255); fill: #ffffff; text-shadow: rgb(0, 0, 0) 0px 0px 6px, rgb(0, 0, 0) 0px 0px 3px; " transform="translate(0,11)"><tspan>wi</tspan></text></g><g  style="text-transform:uppercase;cursor:pointer;" transform="translate(461,224)"><text x="0"  style="font-size: 11px; font-weight: bold; color: rgb(255, 255, 255); fill: #ffffff; text-shadow: rgb(0, 0, 0) 0px 0px 6px, rgb(0, 0, 0) 0px 0px 3px; " transform="translate(0,11)"><tspan>nc</tspan></text></g><g  style="text-transform:uppercase;cursor:pointer;" transform="translate(482,176)" opacity="0"><text x="0"  style="font-size: 11px; font-weight: bold; color: rgb(255, 255, 255); fill: #ffffff; text-shadow: rgb(0, 0, 0) 0px 0px 6px, rgb(0, 0, 0) 0px 0px 3px; " transform="translate(0,11)"><tspan>dc</tspan></text></g><g  style="text-transform:uppercase;cursor:pointer;" transform="translate(523,121)"><text x="0"  style="font-size: 11px; font-weight: bold; color: rgb(255, 255, 255); fill: #ffffff; text-shadow: rgb(0, 0, 0) 0px 0px 6px, rgb(0, 0, 0) 0px 0px 3px; " transform="translate(0,11)"><tspan>ma</tspan></text></g><g  style="text-transform:uppercase;cursor:pointer;" transform="translate(393,230)"><text x="0"  style="font-size: 11px; font-weight: bold; color: rgb(255, 255, 255); fill: #ffffff; text-shadow: rgb(0, 0, 0) 0px 0px 6px, rgb(0, 0, 0) 0px 0px 3px; " transform="translate(0,11)"><tspan>tn</tspan></text></g><g  style="text-transform:uppercase;cursor:pointer;" transform="translate(326,250)"><text x="0"  style="font-size: 11px; font-weight: bold; color: rgb(255, 255, 255); fill: #ffffff; text-shadow: rgb(0, 0, 0) 0px 0px 6px, rgb(0, 0, 0) 0px 0px 3px; " transform="translate(0,11)"><tspan>ar</tspan></text></g><g  style="text-transform:uppercase;cursor:pointer;" transform="translate(321,203)"><text x="0"  style="font-size: 11px; font-weight: bold; color: rgb(255, 255, 255); fill: #ffffff; text-shadow: rgb(0, 0, 0) 0px 0px 6px, rgb(0, 0, 0) 0px 0px 3px; " transform="translate(0,11)"><tspan>mo</tspan></text></g><g  style="text-transform:uppercase;cursor:pointer;" transform="translate(429,268)"><text x="0"  style="font-size: 11px; font-weight: bold; color: rgb(255, 255, 255); fill: #ffffff; text-shadow: rgb(0, 0, 0) 0px 0px 6px, rgb(0, 0, 0) 0px 0px 3px; " transform="translate(0,11)"><tspan>ga</tspan></text></g><g  style="text-transform:uppercase;cursor:pointer;" transform="translate(452,253)"><text x="0"  style="font-size: 11px; font-weight: bold; color: rgb(255, 255, 255); fill: #ffffff; text-shadow: rgb(0, 0, 0) 0px 0px 6px, rgb(0, 0, 0) 0px 0px 3px; " transform="translate(0,11)"><tspan>sc</tspan></text></g><g  style="text-transform:uppercase;cursor:pointer;" transform="translate(394,206)"><text x="0"  style="font-size: 11px; font-weight: bold; color: rgb(255, 255, 255); fill: #ffffff; text-shadow: rgb(0, 0, 0) 0px 0px 6px, rgb(0, 0, 0) 0px 0px 3px; " transform="translate(0,11)"><tspan>ky</tspan></text></g><g  style="text-transform:uppercase;cursor:pointer;" transform="translate(393,274)"><text x="0"  style="font-size: 11px; font-weight: bold; color: rgb(255, 255, 255); fill: #ffffff; text-shadow: rgb(0, 0, 0) 0px 0px 6px, rgb(0, 0, 0) 0px 0px 3px; " transform="translate(0,11)"><tspan>al</tspan></text></g><g  style="text-transform:uppercase;cursor:pointer;" transform="translate(340,307)"><text x="0"  style="font-size: 11px; font-weight: bold; color: rgb(255, 255, 255); fill: #ffffff; text-shadow: rgb(0, 0, 0) 0px 0px 6px, rgb(0, 0, 0) 0px 0px 3px; " transform="translate(0,11)"><tspan>la</tspan></text></g><g  style="text-transform:uppercase;cursor:pointer;" transform="translate(356,276)"><text x="0"  style="font-size: 11px; font-weight: bold; color: rgb(255, 255, 255); fill: #ffffff; text-shadow: rgb(0, 0, 0) 0px 0px 6px, rgb(0, 0, 0) 0px 0px 3px; " transform="translate(0,11)"><tspan>ms</tspan></text></g><g  style="text-transform:uppercase;cursor:pointer;" transform="translate(312,154)"><text x="0"  style="font-size: 11px; font-weight: bold; color: rgb(255, 255, 255); fill: #ffffff; text-shadow: rgb(0, 0, 0) 0px 0px 6px, rgb(0, 0, 0) 0px 0px 3px; " transform="translate(0,11)"><tspan>ia</tspan></text></g><g  style="text-transform:uppercase;cursor:pointer;" transform="translate(298,95)"><text x="0"  style="font-size: 11px; font-weight: bold; color: rgb(255, 255, 255); fill: #ffffff; text-shadow: rgb(0, 0, 0) 0px 0px 6px, rgb(0, 0, 0) 0px 0px 3px; " transform="translate(0,11)"><tspan>mn</tspan></text></g><g  style="text-transform:uppercase;cursor:pointer;" transform="translate(257,243)"><text x="0"  style="font-size: 11px; font-weight: bold; color: rgb(255, 255, 255); fill: #ffffff; text-shadow: rgb(0, 0, 0) 0px 0px 6px, rgb(0, 0, 0) 0px 0px 3px; " transform="translate(0,11)"><tspan>ok</tspan></text></g><g  style="text-transform:uppercase;cursor:pointer;" transform="translate(240,297)"><text x="0"  style="font-size: 11px; font-weight: bold; color: rgb(255, 255, 255); fill: #ffffff; text-shadow: rgb(0, 0, 0) 0px 0px 6px, rgb(0, 0, 0) 0px 0px 3px; " transform="translate(0,11)"><tspan>tx</tspan></text></g><g  style="text-transform:uppercase;cursor:pointer;" transform="translate(173,250)"><text x="0"  style="font-size: 11px; font-weight: bold; color: rgb(255, 255, 255); fill: #ffffff; text-shadow: rgb(0, 0, 0) 0px 0px 6px, rgb(0, 0, 0) 0px 0px 3px; " transform="translate(0,11)"><tspan>nm</tspan></text></g><g  style="text-transform:uppercase;cursor:pointer;" transform="translate(261,201)"><text x="0"  style="font-size: 11px; font-weight: bold; color: rgb(255, 255, 255); fill: #ffffff; text-shadow: rgb(0, 0, 0) 0px 0px 6px, rgb(0, 0, 0) 0px 0px 3px; " transform="translate(0,11)"><tspan>ks</tspan></text></g><g  style="text-transform:uppercase;cursor:pointer;" transform="translate(249,160)"><text x="0"  style="font-size: 11px; font-weight: bold; color: rgb(255, 255, 255); fill: #ffffff; text-shadow: rgb(0, 0, 0) 0px 0px 6px, rgb(0, 0, 0) 0px 0px 3px; " transform="translate(0,11)"><tspan>ne</tspan></text></g><g  style="text-transform:uppercase;cursor:pointer;" transform="translate(244,124)"><text x="0"  style="font-size: 11px; font-weight: bold; color: rgb(255, 255, 255); fill: #ffffff; text-shadow: rgb(0, 0, 0) 0px 0px 6px, rgb(0, 0, 0) 0px 0px 3px; " transform="translate(0,11)"><tspan>sd</tspan></text></g><g  style="text-transform:uppercase;cursor:pointer;" transform="translate(245,80)"><text x="0"  style="font-size: 11px; font-weight: bold; color: rgb(255, 255, 255); fill: #ffffff; text-shadow: rgb(0, 0, 0) 0px 0px 6px, rgb(0, 0, 0) 0px 0px 3px; " transform="translate(0,11)"><tspan>nd</tspan></text></g><g  style="text-transform:uppercase;cursor:pointer;" transform="translate(171,134)"><text x="0"  style="font-size: 11px; font-weight: bold; color: rgb(255, 255, 255); fill: #ffffff; text-shadow: rgb(0, 0, 0) 0px 0px 6px, rgb(0, 0, 0) 0px 0px 3px; " transform="translate(0,11)"><tspan>wy</tspan></text></g><g  style="text-transform:uppercase;cursor:pointer;" transform="translate(160,77)"><text x="0"  style="font-size: 11px; font-weight: bold; color: rgb(255, 255, 255); fill: #ffffff; text-shadow: rgb(0, 0, 0) 0px 0px 6px, rgb(0, 0, 0) 0px 0px 3px; " transform="translate(0,11)"><tspan>mt</tspan></text></g><g  style="text-transform:uppercase;cursor:pointer;" transform="translate(186,190)"><text x="0"  style="font-size: 11px; font-weight: bold; color: rgb(255, 255, 255); fill: #ffffff; text-shadow: rgb(0, 0, 0) 0px 0px 6px, rgb(0, 0, 0) 0px 0px 3px; " transform="translate(0,11)"><tspan>co</tspan></text></g><g  style="text-transform:uppercase;cursor:pointer;" transform="translate(112,117)"><text x="0"  style="font-size: 11px; font-weight: bold; color: rgb(255, 255, 255); fill: #ffffff; text-shadow: rgb(0, 0, 0) 0px 0px 6px, rgb(0, 0, 0) 0px 0px 3px; " transform="translate(0,11)"><tspan>id</tspan></text></g><g  style="text-transform:uppercase;cursor:pointer;" transform="translate(126,175)"><text x="0"  style="font-size: 11px; font-weight: bold; color: rgb(255, 255, 255); fill: #ffffff; text-shadow: rgb(0, 0, 0) 0px 0px 6px, rgb(0, 0, 0) 0px 0px 3px; " transform="translate(0,11)"><tspan>ut</tspan></text></g><g  style="text-transform:uppercase;cursor:pointer;" transform="translate(112,246)"><text x="0"  style="font-size: 11px; font-weight: bold; color: rgb(255, 255, 255); fill: #ffffff; text-shadow: rgb(0, 0, 0) 0px 0px 6px, rgb(0, 0, 0) 0px 0px 3px; " transform="translate(0,11)"><tspan>az</tspan></text></g><g  style="text-transform:uppercase;cursor:pointer;" transform="translate(75,177)"><text x="0"  style="font-size: 11px; font-weight: bold; color: rgb(255, 255, 255); fill: #ffffff; text-shadow: rgb(0, 0, 0) 0px 0px 6px, rgb(0, 0, 0) 0px 0px 3px; " transform="translate(0,11)"><tspan>nv</tspan></text></g><g  style="text-transform:uppercase;cursor:pointer;" transform="translate(53,96)"><text x="0"  style="font-size: 11px; font-weight: bold; color: rgb(255, 255, 255); fill: #ffffff; text-shadow: rgb(0, 0, 0) 0px 0px 6px, rgb(0, 0, 0) 0px 0px 3px; " transform="translate(0,11)"><tspan>or</tspan></text></g><g  style="text-transform:uppercase;cursor:pointer;" transform="translate(63,54)"><text x="0"  style="font-size: 11px; font-weight: bold; color: rgb(255, 255, 255); fill: #ffffff; text-shadow: rgb(0, 0, 0) 0px 0px 6px, rgb(0, 0, 0) 0px 0px 3px; " transform="translate(0,11)"><tspan>wa</tspan></text></g><g  style="text-transform:uppercase;cursor:pointer;" transform="translate(32,186)"><text x="0"  style="font-size: 11px; font-weight: bold; color: rgb(255, 255, 255); fill: #ffffff; text-shadow: rgb(0, 0, 0) 0px 0px 6px, rgb(0, 0, 0) 0px 0px 3px; " transform="translate(0,11)"><tspan>ca</tspan></text></g></g><g class="highcharts-legend"  transform="translate(394,80)"><rect x="0" y="0" width="80" height="39" strokeWidth="0" fill="rgb(255, 255, 255)" fill-opacity=" 0.8" visibility="visible"></rect><g ><g><g class="highcharts-legend-item"  transform="translate(8,3)"><text x="21" style="color:#333333;font-size:12px;font-weight:bold;cursor:pointer;fill:#333333;" text-anchor="start"  y="15">McCain</text><rect x="0" y="4" width="16" height="12"  fill="#C40401"></rect></g><g class="highcharts-legend-item"  transform="translate(8,17)"><text x="21" y="15" style="color:#333333;font-size:12px;font-weight:bold;cursor:pointer;fill:#333333;" text-anchor="start" >Obama</text><rect x="0" y="4" width="16" height="12"  fill="#0200D0"></rect></g></g></g></g><g class="highcharts-axis-labels highcharts-xaxis-labels" ></g><g class="highcharts-axis-labels highcharts-yaxis-labels" ></g><g class="highcharts-tooltip"  style="cursor:default;padding:0;white-space:nowrap;" transform="translate(0,-9999)"><path fill="none" d="M 3 0 L 13 0 C 16 0 16 0 16 3 L 16 13 C 16 16 16 16 13 16 L 3 16 C 0 16 0 16 0 13 L 0 3 C 0 0 0 0 3 0"  stroke="black" stroke-opacity="0.0" stroke-width="5" transform="translate(1, 1)"></path><path fill="none" d="M 3 0 L 13 0 C 16 0 16 0 16 3 L 16 13 C 16 16 16 16 13 16 L 3 16 C 0 16 0 16 0 13 L 0 3 C 0 0 0 0 3 0"  stroke="black" stroke-opacity="0.0" stroke-width="3" transform="translate(1, 1)"></path><path fill="none" d="M 3 0 L 13 0 C 16 0 16 0 16 3 L 16 13 C 16 16 16 16 13 16 L 3 16 C 0 16 0 16 0 13 L 0 3 C 0 0 0 0 3 0"  stroke="black" stroke-opacity="0.1" stroke-width="1" transform="translate(1, 1)"></path><path fill="rgb(249, 249, 249)" fill-opacity=" .85" d="M 3 0 L 13 0 C 16 0 16 0 16 3 L 16 13 C 16 16 16 16 13 16 L 3 16 C 0 16 0 16 0 13 L 0 3 C 0 0 0 0 3 0"></path><text x="8"  style="font-size:12px;color:#333333;fill:#333333;" transform="translate(0,20)"></text></g></svg>