<svg version="1.1" style="font-family:&quot;lucida grande&quot;, &quot;lucida sans unicode&quot;, arial, helvetica, sans-serif;font-size:12px;" xmlns="http://www.w3.org/2000/svg" width="584" height="500" viewBox="0 0 584 500"><desc>Created with Highmaps 1.1.4</desc><defs><linearGradient x1="0" y1="0" x2="0" y2="1" id="highcharts-1"><stop offset="0" stop-color="#FEFEFE" stop-opacity="1"></stop><stop offset="1" stop-color="#F6F6F6" stop-opacity="1"></stop></linearGradient><clipPath id="highcharts-2"><rect x="0" y="0" width="564" height="401"></rect></clipPath></defs><rect x="0" y="0" width="584" height="500" strokeWidth="0" fill="#FFFFFF" class=" highcharts-background"></rect><g class="highcharts-grid" ></g><g class="highcharts-grid" ></g><g class="highcharts-axis" ></g><g class="highcharts-axis" ></g><g class="highcharts-series-group" ><g class="highcharts-series highcharts-tracker" visibility="visible"  transform="translate(10,47) scale(1 1)" style="" clip-path="url(#highcharts-2)"><g transform="translate(0,0) scale(1 1)"><path fill="#90ed7d" d="M 63.7 194.3 L 67.5 200.4 65.6 199.5 63.6 196.1 63.7 194.3 M 239.3 250.4 L 235.9 252.4 229.5 255.6 227.0 256.2 224.6 257.3 222.2 258.2 219.8 258.7 216.0 259.1 212.9 258.8 210.9 258.4 207.8 259.8 204.6 262.6 202.6 263.3 199.3 265.2 198.4 266.4 196.5 267.4 193.0 268.3 190.8 270.5 189.9 273.3 189.5 275.9 187.7 277.9 187.6 278.8 185.6 280.7 183.8 280.5 183.1 281.5 181.9 281.8 181.2 280.4 178.2 280.7 176.1 281.2 176.0 281.8 173.5 281.6 172.9 282.8 171.2 282.9 171.5 282.3 170.4 280.7 168.5 281.8 166.6 281.7 165.6 281.1 163.6 281.3 162.0 282.1 156.1 283.0 154.7 284.1 150.5 284.0 148.6 284.9 146.5 287.1 145.7 288.9 145.9 289.8 145.0 290.2 145.2 291.1 143.9 291.3 143.9 292.0 142.4 291.6 139.7 291.7 140.1 292.3 138.7 293.1 139.1 293.6 137.8 294.7 136.5 295.3 135.7 296.7 135.8 297.7 133.7 298.3 133.3 298.9 130.7 299.7 131.9 300.7 129.1 300.2 128.7 301.4 125.9 300.4 124.0 300.5 123.8 301.1 122.8 300.7 120.9 301.3 119.8 301.0 118.9 301.6 117.1 301.3 116.1 300.6 117.3 300.6 116.1 299.7 115.6 300.4 113.2 299.9 112.0 300.0 111.4 298.7 109.2 296.8 107.7 295.9 104.8 294.7 103.1 294.9 102.7 295.6 101.5 294.6 100.8 292.5 99.9 287.8 99.9 285.8 101.4 286.7 103.1 286.9 104.5 286.0 106.2 282.0 105.9 278.9 104.5 274.7 104.7 273.8 105.6 275.8 105.2 274.1 105.9 274.2 105.4 273.0 105.3 270.6 104.5 269.3 105.2 269.3 104.7 265.8 103.5 262.5 100.6 258.8 98.6 255.3 97.0 253.6 95.8 251.4 93.8 246.7 93.1 244.5 93.2 243.0 92.5 240.1 92.5 238.0 90.3 233.6 88.1 231.8 87.1 230.4 87.0 228.9 86.1 227.4 83.3 224.3 81.5 223.1 80.3 219.8 80.5 218.2 78.4 214.0 75.1 209.8 72.8 207.2 69.1 204.5 68.6 202.6 68.4 199.7 69.4 203.4 69.8 201.7 70.4 201.9 71.3 203.9 71.8 203.5 72.3 206.0 73.0 204.8 73.0 206.2 75.0 205.9 75.6 204.6 75.3 202.8 74.0 201.8 72.9 201.7 71.5 200.3 71.0 198.6 69.1 196.4 69.0 195.5 69.7 193.6 70.1 194.9 73.1 197.9 73.0 200.8 74.0 201.4 74.8 198.4 75.1 200.1 76.1 202.5 77.8 203.7 78.9 201.9 78.2 200.5 78.7 198.0 78.3 196.3 77.1 195.8 74.0 192.2 72.1 189.2 71.1 188.8 69.6 186.2 69.2 184.3 67.0 182.3 66.3 180.9 65.9 179.0 66.2 178.0 65.8 176.6 66.0 174.9 67.0 171.4 68.4 169.7 68.4 167.5 67.7 165.6 68.2 164.1 67.1 161.1 65.9 160.6 65.5 158.9 66.7 155.7 67.2 152.2 68.1 149.7 69.6 148.7 69.4 153.3 70.7 155.3 70.4 156.8 71.2 157.2 72.2 156.1 73.2 156.4 73.7 152.6 74.1 152.5 75.1 148.4 77.9 146.2 79.8 145.5 83.4 143.2 84.8 140.9 86.9 139.3 88.0 137.0 90.3 135.6 90.8 134.0 93.2 133.4 94.7 132.1 97.0 129.6 96.8 131.0 98.0 131.4 100.8 129.6 101.5 130.6 103.3 130.9 105.9 129.7 107.4 129.5 109.3 128.1 109.5 127.2 111.5 125.4 114.1 125.0 116.7 124.1 117.8 124.1 119.1 123.2 120.4 120.5 123.0 119.1 127.1 119.9 129.7 118.4 134.5 117.1 139.0 114.9 142.2 113.0 144.8 110.8 145.9 109.3 148.0 105.6 149.1 102.4 148.6 101.2 149.9 101.0 149.8 99.5 150.7 97.9 151.7 97.9 155.0 94.4 156.1 93.7 156.4 91.9 154.1 91.8 154.5 90.5 154.2 88.6 153.4 86.9 153.4 83.2 154.4 81.0 156.5 78.8 157.9 79.2 157.0 77.9 157.4 77.1 160.3 76.7 159.4 75.8 159.4 74.6 160.8 73.4 161.1 72.2 163.1 72.1 162.0 72.8 161.7 74.2 162.5 74.5 164.2 76.7 164.2 78.0 165.7 79.1 167.6 82.7 169.6 84.9 169.6 83.0 170.2 80.6 169.5 79.7 169.5 78.4 170.4 78.6 172.8 80.9 171.9 78.4 173.4 76.7 171.4 76.9 170.4 75.2 169.2 74.5 166.4 73.8 166.0 71.8 167.0 72.6 169.7 72.3 167.9 71.5 170.3 71.6 170.2 70.4 168.9 70.4 167.9 68.5 168.0 67.4 170.7 67.8 171.5 69.1 170.4 69.5 173.6 70.7 172.5 68.8 175.6 69.6 176.0 70.5 177.7 70.7 178.3 70.0 179.2 70.4 182.6 70.1 180.6 69.5 178.3 69.7 177.9 68.4 178.6 66.3 179.5 67.8 180.4 67.0 180.3 64.8 179.3 65.3 177.9 64.2 177.4 61.7 177.4 60.0 178.3 59.3 180.2 59.6 180.2 58.3 178.2 57.5 179.1 57.1 180.3 58.2 181.3 57.7 180.4 56.4 181.6 56.9 182.6 56.4 182.6 54.6 183.9 54.8 184.5 53.8 184.2 52.9 183.4 53.5 182.5 52.9 184.1 52.8 185.9 53.3 188.1 54.7 189.2 54.6 188.5 53.4 189.2 53.0 186.2 52.2 187.7 51.5 185.5 50.1 186.6 48.4 184.9 48.4 185.1 46.7 186.6 48.0 188.5 47.4 189.0 48.3 189.3 46.6 190.6 46.9 190.9 45.3 190.6 43.3 191.9 43.9 191.3 44.5 191.8 46.6 193.2 45.6 193.6 47.3 194.6 48.0 194.7 46.5 196.0 46.3 194.7 44.9 196.1 44.4 196.1 43.0 197.0 42.4 196.8 41.2 195.3 41.1 196.7 39.2 197.7 40.5 198.0 42.6 199.4 42.1 198.7 41.6 200.3 39.5 201.4 39.3 200.6 40.8 201.9 41.4 202.5 42.5 202.9 40.5 203.9 40.5 203.5 39.4 205.0 39.3 203.9 37.1 206.3 36.1 207.8 37.5 208.6 39.0 209.8 38.0 211.0 38.8 211.1 38.1 212.9 39.8 215.1 41.2 217.7 44.6 220.1 46.5 221.9 47.2 221.2 48.9 220.4 52.5 220.6 55.4 221.1 55.6 221.1 53.1 222.3 54.0 223.2 55.7 223.2 54.7 222.2 53.1 221.1 52.6 221.0 51.5 222.0 52.1 222.1 51.1 223.6 49.2 224.5 50.0 224.1 48.3 225.7 47.7 228.3 48.5 231.3 48.9 236.6 182.5 239.1 246.2 239.3 250.4 Z" vector-effect="non-scaling-stroke" stroke="silver" stroke-width="1" class=" highcharts-name-western-australia"></path><path fill="#90ed7d" d="M 442.2 302.6 L 440.2 302.8 439.7 304.3 438.9 305.4 438.8 308.1 438.2 309.0 437.2 308.6 436.8 306.8 435.9 306.3 436.0 303.7 436.8 301.6 439.8 299.9 440.6 300.4 441.1 301.5 442.5 302.5 442.2 302.6 Z" vector-effect="non-scaling-stroke" stroke="silver" stroke-width="1" class=" highcharts-name-australian-capital territory"></path><path fill="#90ed7d" d="M 326.2 296.7 L 325.8 298.4 330.5 299.0 331.1 300.2 330.3 300.9 327.4 300.2 326.0 300.8 326.1 301.7 324.4 302.7 322.1 301.4 317.2 302.3 315.4 300.4 315.9 298.7 320.8 297.6 323.6 296.7 326.2 296.7 M 239.3 250.4 L 239.1 246.2 236.6 182.5 333.6 182.1 365.9 183.5 363.9 219.3 360.6 279.3 360.3 278.9 357.5 328.1 355.1 328.1 354.0 327.6 351.8 325.6 350.8 322.9 348.4 320.6 346.2 316.8 346.7 316.2 345.7 314.0 346.8 313.4 347.6 311.8 347.6 310.1 345.1 303.3 341.7 299.2 339.0 297.1 339.8 297.2 344.0 301.5 344.3 301.1 340.2 297.4 341.2 296.2 342.1 296.8 342.2 298.6 343.3 297.4 342.0 296.3 343.6 295.9 342.6 294.2 339.5 295.1 340.2 296.3 337.9 295.8 339.8 296.7 337.3 296.5 335.2 297.7 331.9 297.9 331.2 296.5 334.3 294.2 335.2 290.6 335.0 288.4 335.6 286.8 334.7 286.1 333.0 283.1 332.7 281.7 331.3 279.3 330.8 281.5 329.7 282.7 329.4 285.2 327.6 290.4 326.8 291.9 324.2 291.1 321.9 292.5 320.6 292.3 318.9 293.0 318.6 292.5 319.8 290.7 320.6 288.3 324.7 288.6 325.5 285.0 325.0 283.0 325.4 280.7 325.0 279.6 326.1 278.5 326.6 276.1 327.8 275.1 330.1 272.0 328.9 268.8 329.4 268.0 331.1 267.5 330.5 265.8 329.3 260.5 328.7 260.0 328.6 262.0 329.0 264.0 328.6 265.6 327.7 265.1 325.4 267.3 324.5 270.2 322.9 273.4 320.8 274.2 320.1 273.6 319.4 275.1 316.6 276.2 314.2 278.2 312.8 281.0 311.1 283.1 309.8 283.7 309.2 286.5 310.1 286.7 310.5 289.1 309.8 289.3 307.8 287.6 306.7 288.7 306.4 287.8 302.8 284.0 301.7 284.4 302.0 283.2 304.5 284.9 303.9 280.5 303.1 277.1 302.4 275.9 298.9 272.7 299.2 271.7 298.7 269.4 297.2 267.8 295.0 266.9 293.3 267.0 292.4 264.4 291.1 264.0 291.8 263.1 291.2 261.7 293.5 261.2 292.0 258.6 289.0 259.4 290.0 257.8 288.7 256.0 286.9 254.3 285.9 255.2 285.2 254.5 284.5 255.6 281.8 255.5 280.1 254.4 278.2 252.6 274.9 252.7 275.0 253.5 272.5 253.6 270.9 252.1 265.2 248.6 261.5 247.2 258.1 248.7 251.1 248.6 239.3 250.4 Z" vector-effect="non-scaling-stroke" stroke="silver" stroke-width="1" class=" highcharts-name-south-australia"></path><path fill="#90ed7d" d="M 477.7 163.7 L 479.3 165.0 480.0 167.6 479.1 167.9 477.0 164.1 477.7 163.7 M 430.6 94.6 L 432.0 95.4 431.5 98.5 429.5 95.6 430.6 94.6 M 350.6 72.5 L 350.4 71.1 352.3 68.5 356.0 67.7 357.5 68.4 357.5 69.1 356.0 69.6 355.4 68.8 354.0 70.9 352.3 71.5 350.9 70.7 350.6 72.5 M 495.9 223.1 L 494.5 223.9 492.5 223.9 491.5 224.8 488.7 224.1 487.7 224.3 485.1 222.8 484.2 223.6 481.4 224.3 479.2 225.2 479.9 227.3 479.2 229.3 477.3 229.6 477.0 230.2 476.1 229.0 474.2 229.6 473.6 230.8 471.7 231.7 471.5 228.8 469.4 227.5 469.2 226.2 466.8 224.7 464.9 224.7 463.2 224.3 461.8 222.8 458.8 223.2 454.6 222.8 453.2 222.3 452.3 223.4 448.7 224.9 447.2 226.6 363.9 219.3 365.9 183.5 333.6 182.1 337.2 68.9 337.2 68.8 339.3 70.7 342.9 72.0 344.8 71.9 345.9 72.7 349.1 73.7 350.5 75.2 350.2 76.2 351.7 79.1 353.6 79.5 355.8 81.5 359.1 82.7 359.9 83.8 362.7 83.8 365.8 83.2 369.7 81.2 371.4 76.7 371.3 76.0 373.0 73.5 374.4 72.4 375.8 69.3 376.5 66.7 377.6 64.8 377.1 63.2 378.7 57.8 380.7 53.8 381.1 52.2 380.5 50.5 379.8 45.7 380.8 42.8 380.8 40.8 379.7 39.1 379.7 37.0 380.5 34.6 382.8 30.7 381.7 27.4 383.8 25.5 384.7 23.7 385.7 24.9 386.9 24.5 384.8 23.6 386.2 22.8 384.7 22.7 383.3 21.6 382.1 21.8 385.0 16.2 385.9 15.2 386.3 16.9 387.8 16.2 386.9 15.3 387.2 13.3 389.5 7.6 390.4 2.6 392.2 2.4 393.9 0.2 395.0 0 395.6 1.2 394.5 2.8 395.8 2.2 396.3 3.9 397.3 3.7 397.9 6.1 397.7 7.4 398.5 8.9 397.8 9.9 398.1 14.6 399.5 15.7 401.1 15.5 402.0 16.5 400.4 18.4 400.1 20.6 402.2 21.5 402.9 23.6 404.2 24.4 403.1 27.4 405.3 27.2 404.6 28.2 404.6 33.2 405.3 35.7 404.3 38.4 405.1 41.0 405.9 41.7 406.0 44.1 406.7 46.5 408.4 48.0 411.2 46.6 412.2 43.7 412.2 45.2 412.9 46.0 415.6 44.5 416.8 46.6 416.5 48.3 417.1 49.3 419.5 50.1 421.0 52.7 423.3 53.2 423.8 54.6 424.6 54.7 423.3 56.4 423.3 58.2 424.0 58.0 423.1 60.0 423.1 61.8 423.9 64.5 423.7 66.3 424.7 68.3 424.5 70.9 423.6 72.9 427.5 78.6 429.5 78.7 428.5 80.6 430.3 85.0 430.1 86.5 430.9 88.0 430.0 89.9 430.2 90.8 428.6 94.1 428.7 95.4 430.4 97.0 430.6 98.4 432.0 99.0 430.9 103.0 432.6 105.5 434.9 107.2 436.1 107.3 437.6 108.9 438.8 108.4 440.0 110.5 443.3 110.8 443.6 110.0 444.6 112.3 444.9 114.5 445.7 116.1 446.8 116.3 446.6 114.6 447.7 115.2 448.6 117.4 450.0 117.2 452.2 118.5 451.9 119.9 453.3 121.1 454.2 119.8 455.3 119.9 455.6 121.9 459.1 123.2 459.7 121.8 460.4 123.3 458.3 123.6 458.1 124.7 455.7 126.0 456.1 127.6 457.5 129.6 458.8 130.2 459.2 131.5 460.6 131.9 461.4 133.1 460.8 134.2 461.8 135.5 462.1 137.3 461.4 138.2 462.6 138.3 463.2 141.0 462.6 141.7 463.9 147.4 464.7 149.2 465.9 149.3 468.1 152.8 467.2 148.5 467.9 147.2 466.9 147.5 467.3 145.6 467.6 146.7 468.9 146.8 470.3 150.0 471.2 150.4 474.3 153.1 474.0 150.2 473.1 149.4 473.8 148.3 474.8 150.6 476.2 151.7 476.3 152.6 476.6 154.5 475.2 159.9 475.8 161.1 475.3 162.9 476.4 164.7 478.3 166.5 478.7 168.1 479.7 168.5 481.2 171.0 483.7 172.4 483.2 170.9 484.8 171.6 485.0 173.1 486.2 174.1 487.0 177.9 487.8 179.2 490.3 181.2 491.1 182.5 491.0 184.3 492.4 187.4 494.9 188.4 495.0 190.8 496.4 187.3 499.9 182.5 500.3 185.9 495.5 194.6 494.8 191.5 495.0 191.0 494.3 191.6 494.3 193.9 495.0 194.9 494.9 196.6 495.7 195.1 495.9 196.3 496.8 196.5 494.8 200.3 494.5 204.7 494.9 205.2 494.5 208.1 494.8 209.6 492.8 211.0 493.6 211.2 492.8 212.5 494.5 214.7 495.3 218.0 496.0 215.1 496.7 214.0 496.2 212.2 496.4 210.1 497.4 209.6 496.6 213.6 497.7 214.5 496.2 217.9 495.6 220.4 495.9 223.1 Z" vector-effect="non-scaling-stroke" stroke="silver" stroke-width="1" class=" highcharts-name-queensland"></path><path fill="#90ed7d" d="M 411.9 398.2 L 411.3 399.7 410.7 398.7 410.2 397.9 411.6 396.8 411.9 398.2 M 424.0 363.5 L 423.3 364.8 422.6 363.9 423.4 363.0 422.0 361.9 425.0 361.3 426.3 363.0 424.0 363.5 M 422.3 353.7 L 424.0 356.7 425.2 357.1 424.9 360.5 423.1 360.7 421.2 357.5 420.2 355.6 422.3 353.7 M 385.4 354.4 L 383.9 355.2 383.3 352.8 383.8 349.9 385.9 349.2 386.1 353.7 385.4 354.4 M 391.9 359.6 L 391.7 359.7 391.7 359.7 391.7 359.7 391.8 359.5 391.9 359.6 391.9 359.6 M 391.9 359.6 L 392.8 359.0 393.2 360.0 391.9 359.6 391.9 359.6 M 391.7 359.7 L 390.9 362.3 391.3 363.2 392.4 363.5 392.9 361.9 393.7 362.7 392.7 363.3 394.4 364.6 395.8 364.3 396.5 365.1 399.8 366.5 400.4 367.6 404.2 369.7 406.1 370.0 409.6 369.3 409.7 370.2 411.0 370.4 409.9 369.6 410.1 368.8 411.9 368.2 413.3 368.7 414.4 368.1 415.8 369.0 417.4 367.2 418.1 367.0 419.5 368.0 420.4 367.6 421.2 366.3 423.1 367.8 424.1 369.9 423.2 372.3 423.7 373.4 422.9 375.3 423.1 377.3 422.3 379.6 422.7 381.1 422.3 382.7 422.8 383.5 422.1 386.0 421.7 385.1 422.4 383.6 421.0 382.7 420.9 382.9 420.3 383.1 419.2 385.6 419.0 388.1 417.8 388.4 418.3 389.8 420.0 389.2 419.6 390.7 417.5 391.1 417.1 392.6 418.2 392.5 417.6 396.8 417.0 395.6 416.0 396.9 415.3 395.8 415.8 395.2 414.7 394.0 416.9 394.6 416.9 392.8 415.5 392.5 414.7 391.5 413.9 391.8 414.2 393.4 413.0 394.1 413.1 392.6 412.1 390.8 412.5 392.6 412.2 394.5 412.8 396.5 411.3 394.8 411.1 396.5 409.7 396.1 409.2 394.6 408.6 395.6 409.7 397.0 407.0 401 405.7 400.7 404.5 399.3 402.2 399.1 401.3 398.5 399.6 399.1 399.5 397.4 399.0 396.9 400.4 396.7 401.7 397.4 401.2 395.8 399.9 396.3 399.1 394.6 398.2 395.7 397.1 392.6 395.6 391.3 394.5 387.4 393.8 386.7 393.5 381.6 395.5 384.0 395.7 385.6 396.8 383.7 396.1 383.6 394.8 381.1 394.3 382.0 394.0 378.8 391.7 375.4 390.6 370.7 389.9 369.2 390.0 367.4 389.4 366.4 390.4 365.1 390.5 362.8 391.1 361.5 390.9 360.2 391.7 359.7 391.7 359.7 391.7 359.7 Z" vector-effect="non-scaling-stroke" stroke="silver" stroke-width="1" class=" highcharts-name-tasmania"></path><path fill="#90ed7d" d="M 320.5 34.8 L 321.1 35.2 321.8 34.0 322.6 34.0 323.0 35.4 323.9 35.7 324.4 34.4 325.4 35.1 323.4 37.2 324.0 37.8 322.7 38.4 322.9 39.7 323.7 39.3 324.7 40.0 325.7 40.4 325.0 41.2 323.0 40.6 321.9 40.9 319.5 39.8 318.2 40.2 319.5 38.9 319.2 37.4 319.5 35.1 320.5 34.8 M 246.5 6.7 L 247.3 9.5 249.6 10.7 242.6 11.2 244.3 9.0 244.1 7.0 245.9 4.8 246.5 6.7 M 247.9 4.3 L 249.8 4.9 250.6 5.5 252.6 4.6 254.1 5.1 256.7 3.2 259.1 3.7 260.4 6.4 259.8 8.0 258.6 7.8 257.6 9.5 255.3 10.9 253.9 12.1 250.6 10.6 247.9 8.9 246.2 3.8 246.6 2.8 247.9 4.3 M 320.7 6.5 L 319.4 7.8 316.9 9.0 318.3 7.5 318.7 8.0 320.5 6.4 324.3 1.1 323.6 3.2 320.7 6.5 M 337.2 68.8 L 337.2 68.9 333.6 182.1 236.6 182.5 231.3 48.9 233.4 50.0 233.8 51.8 233.3 53.1 234.5 51.7 233.9 48.5 237.0 49.5 238.1 50.9 238.3 52.3 239.2 51.9 238.7 49.7 238.3 49.8 237.2 47.8 240.8 48.4 242.6 47.1 240.3 48.0 238.4 46.2 238.2 45.4 239.7 45.3 238.1 44.9 235.3 43.1 235.5 42.1 236.8 39.8 236.7 38.7 237.4 39.1 239.4 38.2 239.3 36.5 240.2 35.1 240.7 32.0 241.3 31.0 242.2 32.1 244.2 31.2 245.5 29.0 243.9 27.5 243.9 24.9 246.2 24.4 246.6 23.6 246.6 21.0 247.5 21.0 249.8 21.9 249.0 20.8 249.7 18.5 250.3 17.9 251.6 18.4 252.8 20.6 253.9 20.7 252.8 19.4 253.9 19.6 252.1 18.0 253.0 17.2 254.9 17.4 254.2 15.6 254.3 14.5 255.5 14.8 257.0 15.9 257.8 13.5 258.2 15.2 259.1 16.2 260.2 16.6 263.7 16.2 265.1 15.5 266.9 16.6 268.9 15.3 270.9 15.4 271.4 16.4 271.6 14.6 273.3 13.8 274.5 14.4 273.8 12.7 274.1 11.0 273.4 10.0 274.6 8.4 273.0 9.2 272.4 8.6 273.7 8.3 272.2 6.2 270.6 5.8 269.1 6.0 267.5 6.9 266.7 6.4 265.2 4.4 263.3 4.3 264.2 3.7 264.7 2.6 265.4 3.6 265.9 2.1 267.5 3.0 267.4 4.5 268.6 5.5 268.4 2.0 269.6 3.5 269.4 2.6 270.3 1.9 270.8 3.0 271.9 3.3 273.0 4.2 272.1 2.4 271.8 0.7 273.0 0.1 273.7 3.4 273.0 4.8 274.4 6.6 275.4 6.4 276.3 5.3 277.0 5.5 276.8 4.4 277.6 4.7 279.2 6.6 279.2 7.2 280.6 9.1 282.6 8.8 283.3 7.6 282.3 9.6 285.5 10.1 288.1 9.1 289.8 9.6 288.5 10.5 289.8 11.5 291.3 10.8 292.9 11.9 292.7 13.5 293.9 12.2 295.7 13.3 297.7 13.4 299.0 12.1 299.8 12.0 300.3 13.2 302.4 13.1 301.2 14.3 302.2 14.4 303.4 15.8 305.7 15.4 305.3 15.0 307.0 13.8 308.2 14.1 308.9 13.5 309.7 13.9 311.2 13.0 309.6 13.4 309.9 12.2 311.6 12.0 313.3 10.9 314.2 8.9 316.3 7.3 313.6 10.9 314.6 11.0 310.5 14.7 311.4 16.6 313.4 14.6 313.6 15.0 315.4 13.6 313.9 15.4 315.4 15.7 314.5 17.2 314.9 18.4 317.7 18.3 319.1 16.0 318.5 15.3 316.9 15.1 318.2 13.6 316.3 13.5 318.6 12.7 318.8 13.5 320.4 12.2 321.8 13.9 321.8 15.1 323.0 16.4 324.0 15.9 323.2 15.3 324.6 14.6 325.9 17.3 323.9 19.6 324.2 18.4 322.8 21.2 322.9 21.7 321.4 22.1 320.5 23.3 322.2 24.7 320.5 24.9 321.3 25.9 320.2 28.0 319.2 27.9 319.0 25.9 318.3 26.1 318.2 27.1 316.4 28.3 316.3 26.6 315.0 28.9 314.2 27.9 313.1 29.0 314.0 30.6 312.7 30.6 312.6 32.4 313.2 34.1 314.4 33.9 315.2 33.0 316.4 34.2 316.9 33.2 317.8 33.8 317.3 35.4 316.5 34.5 316.2 35.4 314.5 35.1 313.4 36.8 313.2 39.7 311.4 40.5 308.7 44.3 308.6 45.2 306.8 45.9 307.9 48.8 308.8 49.7 310.0 50.0 312.5 51.6 313.5 52.7 316.9 54.7 317.2 56.2 319.8 58.0 320.2 56.1 321.2 55.9 321.9 56.8 322.0 57.9 324.0 57.2 321.7 59.2 322.2 60.8 324.9 60.6 326.2 59.7 325.1 57.8 326.0 56.9 326.8 57.7 326.6 60.0 325.6 60.2 326.8 61.3 328.0 61.7 329.9 63.5 332.1 64.1 334.3 65.2 335.7 67.5 337.2 68.8 Z" vector-effect="non-scaling-stroke" stroke="silver" stroke-width="1" class=" highcharts-name-northern-territory"></path><path fill="#90ed7d" d="M 454.5 302.3 L 453.9 302.5 452.0 306.2 450.4 308.3 448.9 310.1 448.2 313.2 448.2 315.2 447.5 315.9 447.0 318.1 444.9 322.2 445.1 323.8 444.4 324.2 445.5 325.0 445.8 326.6 444.8 326.6 444.7 329.3 428.8 318.8 427.9 318.4 429.0 316.9 427.8 311.8 427.7 309.6 425.0 307.8 423.4 308.4 421.9 307.8 421.2 309.1 419.2 308.5 418.6 309.1 416.4 308.8 414.3 307.4 412.5 307.1 411.9 307.8 408.1 307.0 407.7 306.4 405.8 306.2 404.2 304.6 401.8 304.7 398.7 304.4 397.8 306.0 398.2 306.9 395.8 307.4 392.9 304.4 392.1 302.4 387.0 298.0 385.3 297.1 385.2 295.8 383.6 294.8 383.0 292.1 383.4 290.3 381.4 288.8 378.8 288.4 377.3 287.4 376.3 289.5 375.5 289.3 374.0 286.3 374.4 284.2 372.9 283.1 372.8 282.1 370.7 281.0 368.0 280.7 366.1 282.0 362.9 280.1 360.6 279.3 363.9 219.3 447.2 226.6 448.7 224.9 452.3 223.4 453.2 222.3 454.6 222.8 458.8 223.2 461.8 222.8 463.2 224.3 464.9 224.7 466.8 224.7 469.2 226.2 469.4 227.5 471.5 228.8 471.7 231.7 473.6 230.8 474.2 229.6 476.1 229.0 477.0 230.2 477.3 229.6 479.2 229.3 479.9 227.3 479.2 225.2 481.4 224.3 484.2 223.6 485.1 222.8 487.7 224.3 488.7 224.1 491.5 224.8 492.5 223.9 494.5 223.9 495.9 223.1 496.6 224.6 495.8 228.4 496.3 229.3 495.6 231.7 493.8 233.4 492.1 236.6 492.2 237.5 491.2 241.0 489.2 245.9 487.0 249.8 485.9 252.7 486.6 254.8 486.0 256.9 485.0 257.8 484.0 261.5 482.9 262.4 481.4 265.5 479.9 266.5 478.5 268.9 479.0 269.5 478.3 272.3 476.8 272.6 474.4 274.4 473.0 274.6 474.3 275.2 473.4 275.8 470.5 276.3 468.5 278.4 467.8 279.8 466.5 281.3 465.3 283.6 463.6 283.7 464.3 284.5 463.1 288.4 461.2 288.9 462.5 289.2 460.2 291.0 459.0 292.4 458.1 294.9 457.4 297.7 456.2 298.6 457.2 300.5 456.6 301.6 456.3 300.3 455.5 301.6 454.8 301.8 454.5 302.3 M 442.2 302.6 L 442.5 302.5 441.1 301.5 440.6 300.4 439.8 299.9 436.8 301.6 436.0 303.7 435.9 306.3 436.8 306.8 437.2 308.6 438.2 309.0 438.8 308.1 438.9 305.4 439.7 304.3 440.2 302.8 442.2 302.6 Z" vector-effect="non-scaling-stroke" stroke="silver" stroke-width="1" class=" highcharts-name-new-south wales"></path><path fill="#90ed7d" d="M 357.5 328.1 L 360.3 278.9 360.6 279.3 362.9 280.1 366.1 282.0 368.0 280.7 370.7 281.0 372.8 282.1 372.9 283.1 374.4 284.2 374.0 286.3 375.5 289.3 376.3 289.5 377.3 287.4 378.8 288.4 381.4 288.8 383.4 290.3 383.0 292.1 383.6 294.8 385.2 295.8 385.3 297.1 387.0 298.0 392.1 302.4 392.9 304.4 395.8 307.4 398.2 306.9 397.8 306.0 398.7 304.4 401.8 304.7 404.2 304.6 405.8 306.2 407.7 306.4 408.1 307.0 411.9 307.8 412.5 307.1 414.3 307.4 416.4 308.8 418.6 309.1 419.2 308.5 421.2 309.1 421.9 307.8 423.4 308.4 425.0 307.8 427.7 309.6 427.8 311.8 429.0 316.9 427.9 318.4 428.8 318.8 444.7 329.3 442.8 329.7 441.5 331.3 439.5 332.1 432.9 331.4 428.2 331.2 424.4 331.9 421.0 333.5 413.5 339.6 409.0 340.4 408.4 339.8 406.8 340.3 407.6 342.3 409.7 340.9 408.6 345.2 406.6 341.7 405.8 341.0 404.1 341.9 403.3 338.7 401.0 338.6 400.6 337.6 396.8 336.7 398.6 335.8 399.1 336.9 399.9 335.7 398.6 335.2 398.9 334.0 401.0 334.3 400.2 333.2 398.9 333.2 397.2 335.1 395.2 336.3 394.0 334.6 395.8 334.2 397.3 332.1 397.3 330.8 396.3 328.9 394.7 328.7 391.7 331.0 390.0 331.4 393.5 331.9 392.7 333.3 390.3 333.3 386.7 335.3 384.6 337.6 383.2 337.9 381.5 339.4 379.6 338.0 378.7 338.0 377.1 336.4 374.8 335.5 371.0 332.6 369.3 333.0 366.8 331.3 365.0 331.0 363.6 331.8 363.9 332.6 361.2 332.3 361.3 331.1 359.1 329.0 357.5 328.1 Z" vector-effect="non-scaling-stroke" stroke="silver" stroke-width="1" class=" highcharts-name-victoria"></path><path fill="#90ed7d" d="M 455.5 301.6 L 456.2 301.7 456.0 302.4 455.3 302.2 454.5 302.3 454.8 301.8 455.5 301.6 Z" vector-effect="non-scaling-stroke" stroke="silver" stroke-width="1" class=" highcharts-name-jervis-bay territory"></path></g></g><g class="highcharts-markers highcharts-tracker" visibility="visible"  transform="translate(10,47) scale(1 1)" style="" clip-path="none"></g><g class="highcharts-series highcharts-tracker" visibility="visible"  transform="translate(10,47) scale(1 1)" style="" clip-path="url(#highcharts-2)"><g transform="translate(0,0) scale(1 1)"><path fill="none" d="M 472.2 239.9 L 471.6 239.9 471.0 239.5 470.5 239.6 468.7 238.7 468.7 238.2 468.5 237.7 468.8 235.8 468.7 235.5 467.8 234.3 467.5 232.8 467.0 232.5 467.0 232.2 467.8 231.0 467.8 230.6 467.6 230.1 466.9 229.4 465.9 226.6 465.4 226.0 463.7 225.0 463.3 224.4" vector-effect="non-scaling-stroke" stroke="#7cb5ec" stroke-width="1" class=" highcharts-name-macintyre"></path><path fill="none" d="M 482.1 192.4 L 482.4 191.5 481.3 190.3 481.0 190.3 481.0 190.1 480.8 189.9 481.1 189.4 481.2 188.5 481.6 187.7 482.6 187.8 483.0 187.2 483.4 187.4 483.6 187.3 483.6 187.6 483.8 187.5 484.6 186.9 485.0 187.0 485.4 186.6 485.2 185.1 485.6 184.5 485.8 184.6 486.1 184.1 486.6 184.3 486.6 183.6 486.8 183.4 487.1 183.4 487.5 183.7 487.5 183.6 487.7 183.5 487.6 183.4 487.7 183.2 488.2 183.1 488.5 182.7 489.7 182.3 490.3 181.2" vector-effect="non-scaling-stroke" stroke="#7cb5ec" stroke-width="1" class=" highcharts-name-burnett"></path><path fill="none" d="M 124.0 271.7 L 124.3 271.3 124.5 271.1 124.6 270.2 122.8 269.0 121.6 268.4 120.6 268.5 120.2 268.0 119.0 267.4 117.6 267.2 117.2 266.8 116.8 266.1 115.7 265.7 115.0 263.9 115.1 262.9 113.8 262.2 113.4 261.3 111.3 259.9 110.9 259.8 110.3 260.3 109.8 260.4 108.7 261.1 108.6 261.6 107.8 262.2 107.4 262.9 106.9 264.8 104.8 266.8" vector-effect="non-scaling-stroke" stroke="#7cb5ec" stroke-width="1" class=" highcharts-name-swan"></path><path fill="none" d="M 228.8 64.1 L 228.6 64.9 228.9 65.4 228.9 67.1 228.6 69.3 228.6 69.8 229.4 70.8 229.4 71.6 229.1 72.3" vector-effect="non-scaling-stroke" stroke="#7cb5ec" stroke-width="1" class=" highcharts-name-ord"></path><path fill="none" d="M 228.8 64.1 L 228.7 63.9 228.2 64.0 228.1 63.8 228.3 62.7 228.9 62.2 229.0 61.2 228.1 59.1 228.3 58.4 228.0 57.6 227.7 57.4 227.3 57.5 226.9 57.4 226.5 57.6 226.1 57.0 225.5 57.7 224.9 57.4 224.8 57.0 224.1 57.2 224.1 56.7 223.5 56.4 223.2 55.7 M 216.2 83.0 L 216.6 83.0 217.5 82.2 218.1 82.3 219.3 81.1 220.1 80.9 221.6 80.9 223.7 81.7 225.0 83.4 225.7 83.6 226.3 83.4 227.1 82.5 228.2 82.0 228.5 81.4 229.7 80.6 231.4 78.2 231.0 77.4 230.6 76.9 230.6 76.4 231.0 75.9 231.0 75.7 229.6 75.1 229.4 74.7 228.8 74.4 228.6 73.0 229.1 72.3" vector-effect="non-scaling-stroke" stroke="#7cb5ec" stroke-width="1" class=" highcharts-name-ord"></path><path fill="none" d="M 280.1 28.6 L 280.2 29.1 281.0 30.1 281.2 30.6 281.3 32.7 280.8 33.6 279.9 34.1 277.7 33.4 276.1 35.4 276.0 36.4 275.8 36.9 275.6 37.1 275.3 38.9 274.8 39.6 273.5 40.7 271.6 41.1 271.6 41.5 271.0 41.7 269.4 43.5 268.3 43.8 268.2 44.1 267.5 44.4 266.7 45.5 266.3 45.8 264.9 45.9" vector-effect="non-scaling-stroke" stroke="#7cb5ec" stroke-width="1" class=" highcharts-name-katherine"></path><path fill="none" d="M 401.0 71.5 L 400.5 71.7 399.5 71.0 398.4 70.6 397.9 70.6 397.2 69.8 396.5 69.5 395.5 68.1 394.1 67.2 393.6 66.6 392.9 66.3 391.8 65.5 391.6 65.1 391.2 65.0 389.7 64.3 389.0 64.4 388.5 63.7 387.9 63.7 387.6 63.1 387.4 62.2 386.5 61.0 385.9 60.4 385.5 59.1 384.3 57.2 384.2 57.0 384.4 56.4 383.7 55.7 382.6 55.6 382.1 54.9 381.2 55.1 380.3 54.6" vector-effect="non-scaling-stroke" stroke="#7cb5ec" stroke-width="1" class=" highcharts-name-mitchell"></path><path fill="none" d="M 211.1 80.4 L 210.7 80.5 210.2 81.1 208.8 81.6 207.0 81.7 205.4 82.1 203.1 81.9 201.5 81.5 201.0 81.8 200.5 82.3 200.3 82.8 199.3 83.3 199.5 83.6 199.4 84.0 198.8 84.4 198.3 84.2 198.2 84.3 198.0 85.1 197.4 85.7 196.8 87.4 196.5 87.8 195.7 88.3 195.3 89.4 194.8 90.1 194.0 90.6 192.8 92.3 191.8 92.9 190.7 93.2 190.3 93.7 189.5 94.1 188.7 95.0 187.1 95.5 184.9 95.4 183.4 94.9 183.0 94.9 181.9 93.8 180.8 91.8 179.7 91.0 177.8 90.8 176.5 91.2 176.0 91.8 174.9 91.6 174.3 91.1 173.8 91.0 172.3 89.6 171.9 88.7 171.1 87.7 170.8 87.0 169.9 86.9 169.8 86.5 169.8 85.7" vector-effect="non-scaling-stroke" stroke="#7cb5ec" stroke-width="1" class=" highcharts-name-fitzroy"></path><path fill="none" d="M 264.9 45.9 L 263.4 45.4 262.8 43.4 262.8 42.7 262.6 42.4 261.8 42.3 261.7 41.8 260.1 40.7 259.5 39.7 259.1 39.5 258.9 39.3 258.6 39.3 258.3 39.2 257.8 38.4 257.3 38.1 257.2 37.9 257.5 37.4 256.9 36.9 257.2 35.8 256.9 35.7 256.5 35.8 256.3 35.5 255.8 35.4 255.2 35.7 255.1 36.2 255.0 36.3 253.9 36.4 253.0 36.7 251.8 36.1 250.5 33.6 249.6 33.6 249.3 32.9 248.0 31.2 247.7 31.2 247.4 31.5 247.2 31.5 246.0 30.8 246.4 29.8" vector-effect="non-scaling-stroke" stroke="#7cb5ec" stroke-width="1" class=" highcharts-name-daly"></path><path fill="none" d="M 440.9 286.2 L 440.5 285.2 440.1 285.8" vector-effect="non-scaling-stroke" stroke="#7cb5ec" stroke-width="1" class=" highcharts-name-lachlan"></path><path fill="none" d="M 440.1 285.8 L 439.6 285.9 439.4 285.4 438.8 285.3 437.5 283.9 436.9 283.5 437.0 283.2 436.5 282.3 436.4 281.5 436.0 281.1 435.1 280.5 435.2 279.9 434.8 279.5 434.2 279.4 433.5 278.9 432.9 278.0 431.5 277.8 431.0 277.9 430.6 277.7 430.1 277.9 428.7 277.2 428.3 277.2 427.6 276.5 427.1 276.3 426.3 275.3 425.0 275.0 424.6 274.2 423.5 273.3 420.1 272.9 419.1 272.3 418.9 272.0 418.6 272.0 416.5 272.9 416.2 273.7 415.9 274.0 415.4 274.0 414.8 273.7 414.2 274.0 413.1 274.1 412.5 274.6 412.1 275.5 411.8 275.7 411.0 275.6 409.0 274.8 407.3 275.1 406.2 276.5 405.5 276.8 404.5 277.0 403.8 278.0 403.1 278.4 401.6 278.7 401.4 278.6 400.6 279.1 400.4 279.7 397.6 282.2 397.3 282.8 396.2 283.3 396.0 283.7 395.2 284.2 394.2 284.2 393.7 284.4 392.9 284.2 392.4 284.3 391.6 283.6 390.9 284.5 389.7 284.5 388.9 285.2 387.8 285.8 386.6 287.3 386.5 288.1 386.2 288.4 383.7 289.2 383.0 289.2 382.5 288.8 382.1 289.3 M 442.1 295.3 L 441.2 294.0 441.2 292.8 440.4 292.3 440.2 291.8 441.3 289.4 440.5 287.7 440.6 286.9 441.0 286.3 440.9 286.2" vector-effect="non-scaling-stroke" stroke="#7cb5ec" stroke-width="1" class=" highcharts-name-lachlan"></path><path fill="none" d="M 360.6 279.3 L 360.3 278.9 M 360.3 278.9 L 360.3 278.9 360.0 278.9 358.8 279.8 358.3 279.8 358.0 280.0 358.4 280.4 358.1 281.5 357.5 282.0 357.1 281.9 356.9 282.0 356.8 282.3 356.5 282.4 356.4 282.8 356.0 283.0 356.3 283.3 356.0 284.3 355.6 284.2 355.2 283.5 354.7 283.5 354.5 283.2 354.2 282.4 354.3 281.6 354.1 281.1 353.8 280.8 353.5 280.9 352.8 280.8 352.6 280.6 351.5 280.9 350.9 280.6 350.4 280.7 349.9 280.6 349.8 280.3 350.1 280.1 350.1 279.6 349.8 279.5 349.3 279.8 348.9 278.9 348.7 279.2 348.4 278.9 347.6 278.7 347.4 278.8 347.3 279.9 346.8 280.9 346.9 281.9 346.6 282.2 346.4 283.7 346.1 284.4 346.3 284.9 346.2 285.2 346.3 286.0 346.9 286.2 346.9 286.5 346.8 286.7 345.9 287.0 345.6 287.4 345.9 287.5 345.7 287.9 345.7 288.2 346.4 288.7 346.5 289.0 345.9 289.3 345.6 289.0 344.6 288.6 343.4 289.1 343.2 289.4 342.7 289.8 342.8 290.0 343.3 290.1 343.8 290.6 343.6 291.0 343.3 290.9 342.9 291.6 343.2 292.1 343.1 292.5 344.3 293.2 344.5 293.6 344.4 293.8 343.9 294.0 343.8 294.5 343.5 294.8" vector-effect="non-scaling-stroke" stroke="#7cb5ec" stroke-width="1" class=" highcharts-name-murray"></path><path fill="none" d="M 369.8 281.0 L 368.9 281.1 368.0 280.7 M 366.1 282.0 L 365.8 282.0 365.7 281.7 M 365.1 281.4 L 364.8 281.2 M 364.3 280.9 L 363.8 281.0 363.1 280.2 M 363.1 280.2 L 362.9 280.1 362.4 280.2 361.9 279.9 361.0 279.8 360.6 279.3 M 360.3 278.9 L 360.3 278.9" vector-effect="non-scaling-stroke" stroke="#7cb5ec" stroke-width="1" class=" highcharts-name-murray"></path><path fill="none" d="M 368.0 280.7 L 367.1 281.0 366.1 282.0 M 365.7 281.7 L 365.6 281.4 365.1 281.4 M 364.8 281.2 L 364.3 280.9 M 363.1 280.2 L 363.1 280.2" vector-effect="non-scaling-stroke" stroke="#7cb5ec" stroke-width="1" class=" highcharts-name-murray"></path><path fill="none" d="M 443.5 270.2 L 444.0 271.1 444.0 271.6 444.5 272.2 444.3 273.2 444.4 273.4" vector-effect="non-scaling-stroke" stroke="#7cb5ec" stroke-width="1" class=" highcharts-name-macquarie"></path><path fill="none" d="M 443.5 270.2 L 442.9 269.5 442.4 269.5 442.4 269.1 442.0 269.0 441.7 268.5 441.2 268.3 441.3 268.0 440.9 267.4 440.5 267.4 439.8 266.9 439.6 266.4 439.1 266.4 438.9 265.1 438.3 264.3 437.3 263.7 436.9 263.7 436.7 264.1 435.5 264.1 435.6 261.2 434.7 260.7 434.4 260.2 433.5 259.5 433.2 258.6 432.6 258.4 432.1 257.3 431.5 256.8 430.8 254.3 430.9 253.6 430.5 252.5 430.4 251.5 430.0 250.2 429.5 249.7 429.1 248.7 429.4 247.0 430.1 245.2 430.0 244.6 431.1 242.9 430.4 241.3 430.4 240.4 430.9 240.1 431.0 239.7 430.6 239.3 430.7 239.0 429.5 238.1 M 448.1 282.6 L 447.5 282.2 447.4 281.8 447.0 281.6 447.4 281.0 447.1 280.8 447.2 280.6 447.0 279.8 446.0 279.4 445.8 278.9 445.4 278.6 445.2 278.1 445.6 277.8 445.6 277.5 445.8 277.3 446.6 277.2 446.6 276.7 446.0 276.5 445.9 276.2 445.6 276.0 445.6 275.8 444.6 275.2 444.5 274.8 444.2 274.4 444.7 274.1 444.8 273.9 444.6 273.4 444.4 273.3" vector-effect="non-scaling-stroke" stroke="#7cb5ec" stroke-width="1" class=" highcharts-name-macquarie"></path><path fill="none" d="M 275.6 42.9 L 274.4 44.4 274.6 44.9 275.3 45.2 275.6 45.2 276.0 45.7 276.6 45.7 277.2 46.5 277.9 46.7 278.9 47.7 279.8 48.3 281.8 48.8 282.2 48.6 282.6 48.8 283.0 48.7 284.2 47.1 284.9 47.4 285.1 47.3 285.9 47.4 287.7 47.2 288.6 47.5 289.6 47.4 290.5 47.5 291.0 47.2 290.9 46.5 291.5 45.6 293.7 44.6 294.8 44.8 295.3 45.5 295.9 45.4 297.1 45.9 297.6 46.6 298.4 46.5 299.1 46.0 299.5 46.2 299.8 46.2 300.1 46.4 301.0 46.4 301.8 46.9 302.0 46.6 302.2 46.6 303.0 47.1 303.5 46.9 303.7 46.4 304.0 46.7 304.1 46.2 304.6 46.4 305.5 46.0 305.5 45.6 305.7 45.5 306.0 45.5 306.1 45.6 305.8 46.0 305.8 46.2 306.2 46.3 306.4 45.8 306.7 46.0" vector-effect="non-scaling-stroke" stroke="#7cb5ec" stroke-width="1" class=" highcharts-name-roper"></path><path fill="none" d="M 422.3 106.0 L 422.7 105.9 422.8 105.6 422.8 105.5 423.1 105.3 424.1 105.1 424.3 105.3 424.4 105.8 424.8 106.2 424.9 106.9 425.3 107.9 425.4 109.8 425.8 110.2 425.5 111.9 425.7 112.5 426.3 113.0 426.6 112.9 426.9 113.9 427.8 114.2 427.8 114.6 428.6 114.7 429.3 115.1 430.2 116.2 431.0 116.6 431.4 116.4 431.6 117.5 431.4 118.1 432.0 118.2 432.1 118.4 432.4 118.0 432.7 118.5 433.1 118.7 433.6 119.4 434.2 119.3 434.6 119.8 435.4 119.9 435.9 120.3 435.7 121.5 435.9 121.8 436.6 121.8 436.9 122.1 436.7 122.7 437.4 124.8 437.9 124.8 437.9 125.1 438.3 125.0 438.7 125.2 440.3 124.2 440.5 123.2 441.3 122.5 441.0 121.6 441.1 118.3 440.6 116.6 440.7 115.5 441.1 114.6 441.5 114.2 442.0 114.1 442.9 113.3 443.2 113.2 444.9 114.2" vector-effect="non-scaling-stroke" stroke="#7cb5ec" stroke-width="1" class=" highcharts-name-burdekin"></path><path fill="none" d="M 477.8 227.5 L 476.1 227.7 475.1 228.9 474.3 229.4 473.8 230.1 473.6 230.8 M 473.4 230.9 L 473.3 230.9 M 471.7 231.4 L 471.7 231.2 M 471.5 229.7 L 471.5 229.7 M 471.4 228.7 L 470.3 227.7 469.4 227.5 M 469.3 226.5 L 469.2 226.2 M 468.2 225.6 L 468.0 225.4 M 467.3 225.0 L 466.8 224.7 M 466.8 224.7 L 465.6 224.7" vector-effect="non-scaling-stroke" stroke="#7cb5ec" stroke-width="1" class=" highcharts-name-weir"></path><path fill="none" d="M 473.6 230.8 L 473.4 230.9 M 473.3 230.9 L 472.5 231.7 471.7 231.7 471.7 231.4 M 471.7 231.2 L 471.5 230.9 471.5 229.7 M 471.5 229.7 L 471.4 228.7 M 469.4 227.5 L 469.2 227.1 469.3 226.5 M 469.2 226.2 L 468.6 226.0 468.2 225.6 M 468.0 225.4 L 467.3 225.0 M 466.8 224.7 L 466.8 224.7 M 465.6 224.7 L 463.4 224.4" vector-effect="non-scaling-stroke" stroke="#7cb5ec" stroke-width="1" class=" highcharts-name-weir"></path><path fill="none" d="M 246.0 84.2 L 247.9 83.8 248.2 84.0 248.8 84.9 249.8 85.7 250.9 85.6 251.1 85.6 252.0 84.3 252.0 82.3 252.3 81.7 252.6 81.4 252.9 80.5 256.2 76.9 256.8 74.9 257.5 73.6 258.2 73.1 258.3 72.8 258.3 71.8 257.8 70.2 256.1 68.4 256.0 67.5 256.6 66.6 256.6 65.9 257.2 64.9 256.9 64.1 256.9 63.6 256.6 63.0 256.7 62.6 256.4 62.5 256.2 62.1 256.4 61.5 256.1 59.8 256.6 59.4 256.2 58.7 256.7 58.0 256.4 57.6 256.8 57.3 256.7 56.9 256.5 56.7 255.8 56.6 255.1 56.3 253.6 56.5 252.7 56.1 252.5 55.7 252.0 55.9 252.3 56.3 251.6 57.2 250.7 57.2 250.3 57.5 249.8 56.9 249.6 56.9 249.1 57.5 248.8 57.4 248.4 57.3 248.0 56.9 247.5 55.4 246.6 54.4 246.3 54.4 245.9 54.9 245.1 55.0 244.7 55.3 243.7 55.0 242.7 55.5 241.7 55.0 241.1 53.1 240.8 52.5 240.1 52.5" vector-effect="non-scaling-stroke" stroke="#7cb5ec" stroke-width="1" class=" highcharts-name-victoria"></path><path fill="none" d="M 451.2 183.1 L 451.0 182.3 450.3 181.1 450.3 179.5 449.7 178.8 449.6 178.2 450.4 176.6 450.8 174.9 450.6 174.1 450.1 173.6 450.0 173.2 450.1 172.7 449.6 171.4 450.0 170.6 450.1 170.1 449.8 169.4 450.1 168.9 449.6 167.8 449.1 165.8 449.6 164.2 449.5 163.3 450.2 162.5 450.2 162.1 449.9 161.9 449.9 161.7 451.0 161.4 451.3 161.2 451.3 161.1 452.0 160.3 451.9 160.2 452.3 159.8 452.3 159.4 452.6 159.5 452.7 159.7 453.2 159.6 453.8 159.8 454.0 159.7 454.0 158.7 455.1 158.4 455.3 158.0 455.6 157.8 455.7 157.5 455.5 157.0 455.6 156.8 457.2 156.2 458.1 156.3 458.6 155.7 459.3 155.5 459.8 154.6 460.0 154.5 460.7 155.0 460.8 156.3 461.2 156.7 461.4 157.6 461.2 158.4 461.7 158.8 461.7 159.1 461.3 159.4 461.3 160.0 461.1 160.5 461.8 160.9 462.1 162.2 462.7 162.8" vector-effect="non-scaling-stroke" stroke="#7cb5ec" stroke-width="1" class=" highcharts-name-mackenzie"></path><path fill="none" d="M 416.5 383.7 L 415.8 383.4 415.3 382.7 414.7 382.0 414.8 381.6 414.5 380.3 413.9 379.8 413.6 379.1 412.9 378.6 412.1 377.5 411.9 377.0 412.2 376.4 412.2 375.9 411.7 374.3 411.8 373.9 412.2 374.1 412.2 373.5 411.8 372.6 411.3 372.2 411.2 371.5 410.7 371.1 410.8 370.7 411.0 370.4" vector-effect="non-scaling-stroke" stroke="#7cb5ec" stroke-width="1" class=" highcharts-name-tamar"></path><path fill="none" d="M 116.9 279.7 L 117.9 280.9 117.9 283.3 118.1 284.1 117.6 284.3 117.2 285.2 116.6 285.2 116.3 284.9 115.9 285.1 116.0 285.8 115.8 286.2 115.5 286.1 115.7 286.4 114.2 287.6 114.3 288.0 114.5 288.1 114.4 288.2 114.5 288.5 114.3 288.7 114.3 288.9 113.9 288.7 113.6 289.2 113.2 289.1 112.9 289.7 112.1 289.4 111.4 289.6 111.2 289.4 110.9 288.9 110.4 288.9 109.3 288.1 108.4 289.6 107.4 290.2 106.9 291.1 107.1 291.5 106.7 291.4 106.2 291.9 106.1 291.5 103.2 292.0 102.9 292.3 103.4 293.9 103.0 294.8 103.1 294.9" vector-effect="non-scaling-stroke" stroke="#7cb5ec" stroke-width="1" class=" highcharts-name-blackwood"></path><path fill="none" d="M 462.7 223.9 L 461.8 222.8 M 461.8 222.8 L 461.8 222.8 M 460.8 222.9 L 460.3 222.8 458.7 223.2 M 458.4 223.2 L 457.9 223.1 M 454.6 222.8 L 454.4 222.2 453.2 222.3 452.6 223.0 M 452.3 223.3 L 450.7 223.9 450.0 224.4 M 448.7 224.9 L 448.7 224.9 M 447.2 226.6 L 447.2 226.6" vector-effect="non-scaling-stroke" stroke="#7cb5ec" stroke-width="1" class=" highcharts-name-barwon"></path><path fill="none" d="M 463.4 224.4 L 462.7 223.9 M 461.8 222.8 L 461.8 222.8 M 461.8 222.8 L 460.8 222.9 M 458.7 223.2 L 458.4 223.2 M 457.9 223.1 L 456.0 222.9 455.4 223.1 455.3 222.9 454.6 222.8 M 452.6 223.0 L 452.3 223.3 M 450.0 224.4 L 449.6 224.7 448.7 224.9 M 448.7 224.9 L 448.3 225.9 447.2 226.6 M 447.2 226.6 L 446.1 227.1 445.5 227.6 445.3 228.5 444.7 229.0 444.0 230.2 443.8 230.7 443.9 231.4 443.5 232.2 441.7 233.0 441.4 233.7 440.7 234.5 440.2 234.7 440.1 235.0 439.6 235.2 438.7 236.2 437.7 236.8 437.5 237.2 436.6 237.5 434.5 237.7 432.9 237.6 431.9 237.8 431.6 238.0 430.6 237.9 429.6 238.1" vector-effect="non-scaling-stroke" stroke="#7cb5ec" stroke-width="1" class=" highcharts-name-barwon"></path><path fill="none" d="M 369.8 280.9 L 369.8 281.0" vector-effect="non-scaling-stroke" stroke="#7cb5ec" stroke-width="1" class=" highcharts-name-darling"></path><path fill="none" d="M 429.6 238.1 L 428.9 238.2 428.6 238.0 427.5 237.8 427.1 237.1 425.9 236.8 425.8 236.5 425.4 236.5 425.1 235.9 424.4 235.9 423.7 235.3 423.0 235.3 422.2 234.8 421.7 234.9 421.3 235.3 420.7 235.0 420.2 235.0 419.9 234.8 418.5 234.8 417.9 235.1 417.1 234.7 416.6 234.9 415.6 234.8 415.4 235.0 415.5 235.4 415.2 235.7 414.5 236.0 414.3 236.2 414.1 236.1 413.4 236.2 412.6 237.3 412.2 237.4 411.4 237.9 410.5 238.1 410.2 238.7 410.3 239.0 409.6 239.5 408.5 239.4 408.3 239.6 407.8 239.4 407.5 239.8 406.8 240.1 406.1 239.9 405.7 240.1 405.5 240.0 405.4 240.8 404.7 241.5 404.2 241.8 404.0 241.8 403.8 241.6 403.5 241.9 403.2 241.8 402.9 242.1 402.5 242.2 402.4 242.6 401.8 242.8 400.9 244.3 400.6 244.5 398.8 244.4 397.9 244.8 397.1 245.6 397.2 246.0 397.0 246.3 396.7 246.5 395.9 246.3 395.6 246.9 395.6 246.8 395.1 246.8 394.2 247.7 393.5 247.7 393.4 248.0 393.6 248.9 393.5 249.4 393.2 249.7 392.3 250.2 391.9 250.1 391.1 250.5 390.4 250.5 390.0 250.3 388.6 250.7 387.5 251.9 387.1 251.5 386.6 251.5 386.2 252.1 385.8 253.4 384.7 253.6 383.8 254.9 382.7 255.1 382.4 255.4 382.1 256.4 382.2 257.4 381.9 257.6 381.7 257.7 380.8 257.6 380.3 258.1 379.1 258.6 378.8 259.4 378.1 259.8 377.2 259.9 376.5 260.7 375.9 261.0 375.6 262.2 375.7 263.1 375.5 263.8 375.5 265.4 375.3 265.8 375.2 266.6 375.4 267.0 375.2 267.2 375.4 267.9 375.2 268.3 374.5 268.9 374.3 269.3 374.2 270.1 374.5 270.4 375.1 270.6 376.1 272.0 376.7 272.6 376.9 273.0 376.8 273.5 376.3 274.5 375.6 274.9 375.4 275.4 375.1 275.7 374.9 276.2 372.6 277.4 371.0 277.5 370.6 278.0 370.5 279.0 369.7 279.7 369.7 280.4 369.8 280.9" vector-effect="non-scaling-stroke" stroke="#7cb5ec" stroke-width="1" class=" highcharts-name-darling"></path><path fill="none" d="M 403.6 383.4 L 404.5 384.1 405.3 385.3 406.4 385.9 406.7 386.6 408.0 387.8 409.2 389.9 410.5 390.6 411.5 390.2 412.0 390.7" vector-effect="non-scaling-stroke" stroke="#7cb5ec" stroke-width="1" class=" highcharts-name-derwent"></path><path fill="none" d="M 462.7 162.8 L 463.1 163.0 463.5 163.9 463.8 163.9 464.0 163.7 464.5 163.6 465.2 164.0 465.6 163.5 466.2 163.4 465.8 162.9 465.9 162.7 466.5 162.6 465.9 162.1 466.0 161.8 465.5 161.7 465.6 160.9 465.3 160.7 465.3 160.6 465.7 160.4 466.0 159.7 465.8 159.1 465.9 158.7 465.5 158.2 465.6 157.8 466.0 157.9 466.3 157.7 466.8 158.0 467.0 158.0 467.5 157.5 467.7 158.1 468.2 158.3 468.6 158.8 469.4 158.6 470.9 159.3 471.1 159.7 470.7 160.0 470.6 160.5 471.3 160.4 471.6 161.5 471.9 161.5 472.1 162.2 472.7 162.3 473.0 163.1 473.6 163.6 474.0 163.9 475.2 164.1" vector-effect="non-scaling-stroke" stroke="#7cb5ec" stroke-width="1" class=" highcharts-name-fitzroy"></path><path fill="none" d="M 409.9 307.4 L 410.3 307.7 M 418.3 309.2 L 418.5 309.1" vector-effect="non-scaling-stroke" stroke="#7cb5ec" stroke-width="1" class=" highcharts-name-murray"></path><path fill="none" d="M 408.5 307.0 L 408.8 307.0 409.9 307.4 M 418.5 309.1 L 419.1 308.3 420.6 308.7" vector-effect="non-scaling-stroke" stroke="#7cb5ec" stroke-width="1" class=" highcharts-name-murray"></path><path fill="none" d="M 408.1 307.0 L 407.9 306.7 M 407.7 306.4 L 407.7 306.4 M 407.3 306.3 L 406.6 306.5 405.8 306.2 404.2 304.6 M 402.3 304.7 L 401.8 304.7 M 398.1 305.4 L 398.1 305.4 M 397.9 306.3 L 398.2 306.9 M 398.2 306.9 L 398.1 307.1 397.7 307.0 M 396.7 307.2 L 396.4 307.4 395.8 307.4 M 395.8 307.4 L 395.6 307.2 M 395.4 307.0 L 395.4 307.0 M 395.0 306.6 L 394.5 306.4 393.6 305.2 M 393.4 305.0 L 393.1 304.9 392.9 304.4 M 392.1 302.4 L 391.6 302.3 390.4 301.0 M 389.1 299.8 L 389.0 299.8 M 388.0 298.8 L 387.7 298.5 M 387.3 298.2 L 387.0 297.9 M 386.4 297.7 L 385.8 297.5 385.3 297.1 385.1 296.7 385.3 296.5 M 385.2 295.8 L 385.2 295.8 M 384.5 295.3 L 383.7 294.9 383.4 294.4 383.1 293.4 383.0 292.1 M 383.2 291.5 L 383.2 291.2 M 383.3 290.7 L 383.4 290.3 M 383.0 290.0 L 382.7 290.1 382.6 289.7 M 382.3 289.4 L 382.2 289.4 M 381.4 288.8 L 380.5 288.7 M 379.8 288.6 L 379.7 288.6 M 378.8 288.4 L 378.8 288.4 M 377.2 287.7 L 376.9 288.9 376.6 288.9 M 376.3 289.5 L 376.3 289.5 376.2 289.6 376.0 289.5 M 375.5 289.3 L 375.2 289.1 375.2 288.7 M 374.1 286.5 L 374.0 285.0 374.3 284.2 M 374.0 284.0 L 373.6 283.9 373.1 283.2 M 373.1 283.2 L 372.9 282.9 M 372.8 282.1 L 372.4 282.1 372.1 281.8 M 371.9 281.7 L 371.4 281.8 371.1 281.2 M 370.7 281.0 L 370.1 281.1 369.8 281.0 M 418.3 309.2 L 418.2 309.1 M 417.6 309.0 L 417.4 309.2 416.9 308.9 M 416.4 308.8 L 416.4 308.8 M 415.8 308.4 L 415.6 308.3 M 415.3 308.1 L 414.9 308.0 414.3 307.4 413.4 307.2 M 412.9 307.1 L 412.8 307.1 M 411.9 307.8 L 410.9 307.6 M 410.5 307.5 L 410.3 307.7 M 426.5 320.5 L 426.5 320.2 427.9 318.4 M 429.0 317.0 L 429.0 316.9 M 428.8 316.1 L 428.5 315.8 428.4 314.7 M 428.4 314.5 L 427.9 313.9 428.0 313.0 M 428.0 312.9 L 427.9 312.4 M 427.8 311.8 L 427.8 311.7 M 427.7 310.6 L 427.5 310.2 427.7 309.8 M 427.7 309.6 L 427.0 309.1 M 425.1 307.8 L 425.0 307.8 M 424.8 307.9 L 423.4 308.4 M 421.3 308.9 L 421.3 309.0 M 421.2 309.1 L 421.2 309.1" vector-effect="non-scaling-stroke" stroke="#7cb5ec" stroke-width="1" class=" highcharts-name-murray"></path><path fill="none" d="M 408.5 307.0 L 408.1 307.0 M 407.9 306.7 L 407.7 306.4 M 407.7 306.4 L 407.3 306.3 M 404.2 304.6 L 403.4 304.3 402.3 304.7 M 401.8 304.7 L 400.7 304.3 398.7 304.4 398.3 304.7 398.1 305.4 M 398.1 305.4 L 397.8 306.0 397.9 306.3 M 398.2 306.9 L 398.2 306.9 M 397.7 307.0 L 397.3 306.8 396.7 307.2 M 395.8 307.4 L 395.8 307.4 M 395.6 307.2 L 395.6 307.1 395.4 307.0 M 395.4 307.0 L 395.0 306.6 M 393.6 305.2 L 393.4 305.0 M 392.9 304.4 L 392.3 302.7 392.1 302.4 M 390.4 301.0 L 390.0 300.2 389.1 299.8 M 389.0 299.8 L 388.9 299.4 388.0 298.8 M 387.7 298.5 L 387.3 298.2 M 387.0 297.9 L 386.4 297.7 M 385.3 296.5 L 385.2 295.8 M 385.2 295.8 L 384.5 295.3 M 383.0 292.1 L 383.2 291.5 M 383.2 291.2 L 383.3 290.7 M 383.4 290.3 L 383.0 290.0 M 382.6 289.7 L 382.3 289.4 M 382.2 289.4 L 381.4 288.8 M 380.5 288.7 L 379.9 288.4 379.8 288.6 M 379.7 288.6 L 379.3 288.2 378.8 288.4 M 378.8 288.4 L 378.6 287.7 378.0 287.2 377.3 287.4 377.2 287.7 M 376.6 288.9 L 376.3 288.9 376.3 289.5 M 376.0 289.5 L 375.5 289.3 M 375.2 288.7 L 374.8 287.7 374.8 287.2 374.1 286.5 M 374.3 284.2 L 374.3 284.0 374.0 284.0 M 373.1 283.2 L 373.1 283.2 M 372.9 282.9 L 372.8 282.1 M 372.1 281.8 L 371.9 281.7 M 371.1 281.2 L 370.7 281.0 M 418.2 309.1 L 417.9 308.9 417.6 309.0 M 416.9 308.9 L 416.7 308.8 416.4 308.8 M 416.4 308.8 L 416.1 308.5 415.8 308.4 M 415.6 308.3 L 415.3 308.1 M 413.4 307.2 L 413.2 307.0 412.9 307.1 M 412.8 307.1 L 412.5 307.1 411.9 307.8 M 410.9 307.6 L 410.5 307.5 M 427.9 318.4 L 429.0 317.0 M 429.0 316.9 L 429.0 316.5 428.8 316.1 M 428.4 314.7 L 428.4 314.5 M 428.0 313.0 L 428.0 312.9 M 427.9 312.4 L 427.8 311.8 M 427.8 311.7 L 428.0 311.0 427.7 310.6 M 427.7 309.8 L 427.7 309.6 M 427.0 309.1 L 426.9 308.8 425.1 307.8 M 425.0 307.8 L 424.8 307.9 M 423.4 308.4 L 423.0 307.7 422.0 307.8 421.5 308.3 421.3 308.9 M 421.3 309.0 L 421.2 309.1 M 421.2 309.1 L 420.9 308.8 420.6 308.7" vector-effect="non-scaling-stroke" stroke="#7cb5ec" stroke-width="1" class=" highcharts-name-murray"></path></g></g><g class="highcharts-markers highcharts-tracker" visibility="visible"  transform="translate(10,47) scale(1 1)" style="" clip-path="none"></g><g class="highcharts-series highcharts-tracker" visibility="visible"  transform="translate(10,47) scale(1 1)" style="" clip-path="url(#highcharts-2)"></g><g class="highcharts-markers highcharts-tracker" visibility="visible"  transform="translate(10,47) scale(1 1)" style="" clip-path="none"><path fill="black" d="M 462 285.9 C 464.6 285.9 464.6 289.9 462 289.9 C 459.3 289.9 459.3 285.9 462 285.9 Z"></path><path fill="black" d="M 396 325.9 C 398.6 325.9 398.6 329.9 396 329.9 C 393.3 329.9 393.3 325.9 396 325.9 Z"></path><path fill="black" d="M 105 263.9 C 107.6 263.9 107.6 267.9 105 267.9 C 102.3 267.9 102.3 263.9 105 263.9 Z"></path><path fill="black" d="M 492 212.1 C 494.6 212.1 494.6 216.1 492 216.1 C 489.3 216.1 489.3 212.1 492 212.1 Z"></path><path fill="black" d="M 336 287.2 C 338.6 287.2 338.6 291.2 336 291.2 C 333.3 291.2 333.3 287.2 336 287.2 Z"></path><path fill="black" d="M 470 274.0 C 472.6 274.0 472.6 278.0 470 278.0 C 467.3 278.0 467.3 274.0 470 274.0 Z"></path><path fill="black" d="M 439 299.6 C 441.6 299.6 441.6 303.6 439 303.6 C 436.3 303.6 436.3 299.6 439 299.6 Z"></path><path fill="black" d="M 398 329.6 C 400.6 329.6 400.6 333.6 398 333.6 C 395.3 333.6 395.3 329.6 398 329.6 Z"></path><path fill="black" d="M 458 291.4 C 460.6 291.4 460.6 295.4 458 295.4 C 455.3 295.4 455.3 291.4 458 291.4 Z"></path><path fill="black" d="M 495 220.2 C 497.6 220.2 497.6 224.2 495 224.2 C 492.3 224.2 492.3 220.2 495 220.2 Z"></path></g></g><text x="292" text-anchor="middle" class="highcharts-title"  style="color:#333333;font-size:18px;fill:#333333;width:520px;" y="24"><tspan>Highmaps from geojson with multiple geometry types</tspan></text><g class="highcharts-button" style="cursor:default;text-align:center;"  transform="translate(10,429)"><title>Zoom in</title><path fill="url(#highcharts-1)" d="M 1.5 -0.5 L 25.5 -0.5 C 26.5 -0.5 27.5 0.5 27.5 1.5 L 27.5 27.5 C 27.5 27.5 27.5 27.5 27.5 27.5 L -0.5 27.5 C -0.5 27.5 -0.5 27.5 -0.5 27.5 L -0.5 1.5 C -0.5 0.5 0.5 -0.5 1.5 -0.5 Z" stroke="#CCCCCC" stroke-width="1"></path><text x="8"  style="font-size:15px;font-weight:bold;color:black;fill:black;" transform="translate(0,19)">+</text></g><g class="highcharts-button" style="cursor:default;text-align:center;"  transform="translate(10,457)"><title>Zoom out</title><path fill="url(#highcharts-1)" d="M -0.5 -0.5 L 27.5 -0.5 C 27.5 -0.5 27.5 -0.5 27.5 -0.5 L 27.5 25.5 C 27.5 26.5 26.5 27.5 25.5 27.5 L 1.5 27.5 C 0.5 27.5 -0.5 26.5 -0.5 25.5 L -0.5 -0.5 C -0.5 -0.5 -0.5 -0.5 -0.5 -0.5 Z" stroke="#CCCCCC" stroke-width="1"></path><text x="11"  style="font-size:15px;font-weight:bold;color:black;fill:black;" transform="translate(0,19)">-</text></g><g class="highcharts-data-labels highcharts-tracker" visibility="visible"  transform="translate(10,47) scale(1 1)" clip-path="url(#highcharts-2)" style=""><g  style="" transform="translate(126,156)"><text x="0"  style="font-size: 11px; font-weight: bold; color: rgb(0, 0, 0); width: 80px; fill: #000000; text-shadow: rgb(255, 255, 255) 0px 0px 6px, rgb(255, 255, 255) 0px 0px 3px; " transform="translate(0,11)"><tspan>Western</tspan><tspan dy="14" x="0">Australia</tspan><title>Western Australia</title></text></g><g  style="" transform="translate(276,213)"><text x="0"  style="font-size: 11px; font-weight: bold; color: rgb(0, 0, 0); width: 80px; fill: #000000; text-shadow: rgb(255, 255, 255) 0px 0px 6px, rgb(255, 255, 255) 0px 0px 3px; " transform="translate(0,11)"><tspan>South</tspan><tspan dy="14" x="0">Australia</tspan><title>South Australia</title></text></g><g  style="" transform="translate(384,156)"><text x="0"  style="font-size: 11px; font-weight: bold; color: rgb(0, 0, 0); width: 80px; fill: #000000; text-shadow: rgb(255, 255, 255) 0px 0px 6px, rgb(255, 255, 255) 0px 0px 3px; " transform="translate(0,11)"><tspan>Queensland</tspan></text></g><g  style="" transform="translate(377,369)"><text x="0"  style="font-size: 11px; font-weight: bold; color: rgb(51, 51, 51); width: 80px; fill: #333333; text-shadow: rgb(255, 255, 255) 0px 0px 6px, rgb(255, 255, 255) 0px 0px 3px; " transform="translate(0,11)"><tspan>Tasmania</tspan></text></g><g  style="" transform="translate(259,78)"><text x="0"  style="font-size: 11px; font-weight: bold; color: rgb(0, 0, 0); width: 80px; fill: #000000; text-shadow: rgb(255, 255, 255) 0px 0px 6px, rgb(255, 255, 255) 0px 0px 3px; " transform="translate(0,11)"><tspan>Northern</tspan><tspan dy="14" x="0">Territory</tspan><title>Northern Territory</title></text></g><g  style="" transform="translate(399,261)"><text x="0"  style="font-size: 11px; font-weight: bold; color: rgb(0, 0, 0); width: 80px; fill: #000000; text-shadow: rgb(255, 255, 255) 0px 0px 6px, rgb(255, 255, 255) 0px 0px 3px; " transform="translate(0,11)"><tspan>New South</tspan><tspan dy="14" x="0">Wales</tspan><title>New South Wales</title></text></g><g  style="" transform="translate(380,306)"><text x="0"  style="font-size: 11px; font-weight: bold; color: rgb(0, 0, 0); width: 80px; fill: #000000; text-shadow: rgb(255, 255, 255) 0px 0px 6px, rgb(255, 255, 255) 0px 0px 3px; " transform="translate(0,11)"><tspan>Victoria</tspan></text></g></g><g class="highcharts-data-labels highcharts-tracker" visibility="visible"  transform="translate(10,47) scale(1 1)" style=""><g  style="" transform="translate(496,211)"><text x="5"  style="font-size: 11px; font-weight: bold; color: rgb(0, 0, 0); fill: #000000; text-shadow: rgb(255, 255, 255) 0px 0px 6px, rgb(255, 255, 255) 0px 0px 3px; " transform="translate(0,16)"><tspan>Gold Coast</tspan></text></g><g  style="" transform="translate(459,287)"><text x="5"  style="font-size: 11px; font-weight: bold; color: rgb(0, 0, 0); fill: #000000; text-shadow: rgb(255, 255, 255) 0px 0px 6px, rgb(255, 255, 255) 0px 0px 3px; " transform="translate(0,16)"><tspan>Wollongong</tspan></text></g><g  style="" transform="translate(399,321)"><text x="5"  style="font-size: 11px; font-weight: bold; color: rgb(0, 0, 0); fill: #000000; text-shadow: rgb(255, 255, 255) 0px 0px 6px, rgb(255, 255, 255) 0px 0px 3px; " transform="translate(0,16)"><tspan>Cranbourne</tspan></text></g><g  style="" transform="translate(378,286)" opacity="0"><text x="5"  style="font-size: 11px; font-weight: bold; color: rgb(0, 0, 0); fill: #000000; text-shadow: rgb(255, 255, 255) 0px 0px 6px, rgb(255, 255, 255) 0px 0px 3px; " transform="translate(0,16)"><tspan>Canberra</tspan></text></g><g  style="" transform="translate(470,265)" opacity="0"><text x="5"  style="font-size: 11px; font-weight: bold; color: rgb(0, 0, 0); fill: #000000; text-shadow: rgb(255, 255, 255) 0px 0px 6px, rgb(255, 255, 255) 0px 0px 3px; " transform="translate(0,16)"><tspan>Newcastle</tspan></text></g><g  style="" transform="translate(336,278)"><text x="5"  style="font-size: 11px; font-weight: bold; color: rgb(0, 0, 0); fill: #000000; text-shadow: rgb(255, 255, 255) 0px 0px 6px, rgb(255, 255, 255) 0px 0px 3px; " transform="translate(0,16)"><tspan>Adelaide</tspan></text></g><g  style="" transform="translate(492,198)" opacity="0"><text x="5"  style="font-size: 11px; font-weight: bold; color: rgb(0, 0, 0); fill: #000000; text-shadow: rgb(255, 255, 255) 0px 0px 6px, rgb(255, 255, 255) 0px 0px 3px; " transform="translate(0,16)"><tspan>Brisbane</tspan></text></g><g  style="" transform="translate(106,255)"><text x="5"  style="font-size: 11px; font-weight: bold; color: rgb(0, 0, 0); fill: #000000; text-shadow: rgb(255, 255, 255) 0px 0px 6px, rgb(255, 255, 255) 0px 0px 3px; " transform="translate(0,16)"><tspan>Perth</tspan></text></g><g  style="" transform="translate(326,317)" opacity="0"><text x="5"  style="font-size: 11px; font-weight: bold; color: rgb(0, 0, 0); fill: #000000; text-shadow: rgb(255, 255, 255) 0px 0px 6px, rgb(255, 255, 255) 0px 0px 3px; " transform="translate(0,16)"><tspan>Melbourne</tspan></text></g><g  style="" transform="translate(462,277)" opacity="0"><text x="5"  style="font-size: 11px; font-weight: bold; color: rgb(0, 0, 0); fill: #000000; text-shadow: rgb(255, 255, 255) 0px 0px 6px, rgb(255, 255, 255) 0px 0px 3px; " transform="translate(0,16)"><tspan>Sydney</tspan></text></g></g><g class="highcharts-legend"  transform="translate(132,460)"><g ><g><g class="highcharts-legend-item"  transform="translate(8,3)"><text x="21" style="color:#333333;font-size:12px;font-weight:bold;cursor:pointer;fill:#333333;" text-anchor="start"  y="15"><tspan>States and territories</tspan></text><rect x="0" y="4" width="16" height="12"  fill="#90ed7d"></rect></g><g class="highcharts-legend-item"  transform="translate(181,3)"><path fill="none" d="M 0 11 L 16 11" stroke="#7cb5ec" stroke-width="1"></path><text x="21" y="15" style="color:#333333;font-size:12px;font-weight:bold;cursor:pointer;fill:#333333;" text-anchor="start" >Rivers</text></g><g class="highcharts-legend-item"  transform="translate(259,3)"><path fill="black" d="M 8 9 C 10.6 9 10.6 13 8 13 C 5.3 13 5.3 9 8 9 Z"></path><text x="21" y="15" style="color:#333333;font-size:12px;font-weight:bold;cursor:pointer;fill:#333333;" text-anchor="start" >Cities</text></g></g></g></g><g class="highcharts-axis-labels highcharts-xaxis-labels" ></g><g class="highcharts-axis-labels highcharts-yaxis-labels" ></g><g class="highcharts-tooltip"  style="cursor:default;padding:0;white-space:nowrap;" transform="translate(0,-9999)"><path fill="none" d="M 3 0 L 13 0 C 16 0 16 0 16 3 L 16 13 C 16 16 16 16 13 16 L 3 16 C 0 16 0 16 0 13 L 0 3 C 0 0 0 0 3 0"  stroke="black" stroke-opacity="0.0" stroke-width="5" transform="translate(1, 1)"></path><path fill="none" d="M 3 0 L 13 0 C 16 0 16 0 16 3 L 16 13 C 16 16 16 16 13 16 L 3 16 C 0 16 0 16 0 13 L 0 3 C 0 0 0 0 3 0"  stroke="black" stroke-opacity="0.0" stroke-width="3" transform="translate(1, 1)"></path><path fill="none" d="M 3 0 L 13 0 C 16 0 16 0 16 3 L 16 13 C 16 16 16 16 13 16 L 3 16 C 0 16 0 16 0 13 L 0 3 C 0 0 0 0 3 0"  stroke="black" stroke-opacity="0.1" stroke-width="1" transform="translate(1, 1)"></path><path fill="rgb(249, 249, 249)" fill-opacity=" .85" d="M 3 0 L 13 0 C 16 0 16 0 16 3 L 16 13 C 16 16 16 16 13 16 L 3 16 C 0 16 0 16 0 13 L 0 3 C 0 0 0 0 3 0"></path><text x="8"  style="font-size:12px;color:#333333;fill:#333333;" transform="translate(0,20)"></text></g></svg>