<svg version="1.1" style="font-family:&quot;lucida grande&quot;, &quot;lucida sans unicode&quot;, arial, helvetica, sans-serif;font-size:12px;" xmlns="http://www.w3.org/2000/svg" width="400" height="500" viewBox="0 0 400 500"><desc>Created with Highmaps 1.1.4</desc><defs><linearGradient x1="0" y1="0" x2="0" y2="1" id="highcharts-1"><stop offset="0" stop-color="#FEFEFE" stop-opacity="1"></stop><stop offset="1" stop-color="#F6F6F6" stop-opacity="1"></stop></linearGradient><linearGradient x1="0" y1="0" x2="1" y2="0" id="highcharts-2"><stop offset="0" stop-color="#EFEFFF" stop-opacity="1"></stop><stop offset="1" stop-color="#003875" stop-opacity="1"></stop></linearGradient><clipPath id="highcharts-3"><rect x="0" y="0" width="380" height="379"></rect></clipPath></defs><rect x="0" y="0" width="400" height="500" strokeWidth="0" fill="#FFFFFF" class=" highcharts-background"></rect><g class="highcharts-grid" ></g><g class="highcharts-grid" ></g><g class="highcharts-axis" ></g><g class="highcharts-axis" ></g><g class="highcharts-series-group" ><g class="highcharts-series highcharts-tracker" visibility="visible"  transform="translate(10,47) scale(1 1)" style="" clip-path="url(#highcharts-3)"><g transform="translate(0,0) scale(1 1)"><path fill="rgb(65,106,155)" d="M 126.0 9.6 L 133.4 8.7 126.4 14.1 124.7 11.7 124.7 0.6 126.0 9.6 M 184.5 72.8 L 180.2 68.3 179.8 65.9 181.2 62.9 179.5 60.4 180.3 58.5 177.3 58.7 176.5 60.6 169.6 64.9 167.8 63.3 167.0 66.1 161.4 63.1 156.7 53.4 153.8 52.6 150.6 51.7 145.3 50.3 140.2 43.2 145.0 43.5 144.4 37.8 141.0 38.8 140.4 32.3 144.0 29.2 135.0 31.3 134.9 24.8 141.0 24.4 140.6 19.2 144.7 18.7 136.1 8.4 135.4 0.4 140.1 0 158.1 4.7 161.7 1.9 168.8 7.2 171.4 5.5 174.9 11.3 174.6 17.6 170.7 21.9 177.6 20.1 196.7 28.7 206.1 24.6 203.2 20.9 206.4 17.4 212.2 23.3 205.4 27.1 205.3 35.0 196.4 42.2 201.0 46.2 201.0 47.7 202.6 48.5 201.4 49.1 200.4 48.3 196.9 51.1 196.6 52.2 197.2 54.6 197.0 56.9 198.3 57.2 200.1 59.2 202.3 59.9 202.9 65.8 199.2 65.8 199.0 68.4 193.6 72.0 192.7 75.7 190.5 75.7 184.5 72.8 Z" vector-effect="non-scaling-stroke" stroke="silver" stroke-width="1" class=" highcharts-name-schleswig-holstein"></path><path fill="rgb(69,109,157)" d="M 281.1 108.2 L 281.3 109.8 283.4 112.0 285.9 113.1 285.4 115.7 286.6 115.5 289.3 117.3 288.2 121.1 286.4 122.9 286.1 121.2 280.5 119.5 279.7 121.3 275.6 119.9 271.4 121.1 269.5 120.1 270.6 114.7 270.9 110.9 272.4 111.5 272.7 109.6 275.1 107.9 277.5 109.3 280.1 107.3 281.1 108.2 Z" vector-effect="non-scaling-stroke" stroke="silver" stroke-width="1" class=" highcharts-name-berlin"></path><path fill="rgb(9,63,122)" d="M 263.9 14.1 L 269.0 14.4 271.2 12.0 273.3 16.5 275.5 16.5 275.1 13.1 271.1 10.6 268.5 13.4 268.8 9.1 267.6 8.2 271.5 6.8 271.9 11.0 274.0 12.2 279.0 11.5 280.3 13.6 277.5 17.2 278.7 20.0 283.5 23.2 275.7 23.7 272.0 28.0 269.3 28.5 264.6 24.7 265.5 22.7 268.4 22.0 265.6 20.2 268.4 18.0 263.9 14.1 M 305.4 72.0 L 301.5 76.1 297.1 75.7 300.8 70.0 300.7 67.8 291.1 68.4 289.3 64.5 284.7 66.5 279.9 70.7 276.3 77.0 268.9 78.2 264.6 83.0 262.9 81.7 247.3 78.9 239.8 74.3 236.2 75.0 234.8 77.9 227.0 82.4 225.6 80.8 220.8 83.2 221.4 86.1 216.7 88.1 213.1 87.8 209.1 85.2 207.5 86.6 192.7 75.7 193.6 72.0 199.0 68.4 199.2 65.8 202.9 65.8 202.3 59.9 200.1 59.2 198.3 57.2 197.0 56.9 197.2 54.6 196.6 52.2 196.9 51.1 200.4 48.3 201.4 49.1 202.6 48.5 201.0 47.7 201.0 46.2 208.8 43.1 210.9 46.7 213.5 45.8 217.2 48.4 214.7 44.7 218.1 43.6 224.7 35.6 235.5 34.4 237.9 30.8 242.2 27.6 246.5 18.9 249.1 19.9 257.5 19.6 257.3 21.2 252.1 20.6 247.4 23.9 245.3 23.0 242.8 27.2 244.4 30.1 246.1 26.0 251.8 22.7 257.6 23.7 262.0 20.1 264.8 27.6 270.0 29.6 275.5 36.0 275.8 34.6 282.1 32.8 285.2 34.8 285.5 31.6 290.8 36.3 297.8 42.4 297.8 45.4 288.4 47.8 289.7 36.6 284.8 39.1 285.1 36.0 283.9 38.5 288.9 42.8 286.6 46.3 291.8 51.1 295.5 52.3 299.0 51.3 302.2 63.6 305.4 72.0 Z" vector-effect="non-scaling-stroke" stroke="silver" stroke-width="1" class=" highcharts-name-mecklenburg-vorpommern"></path><path fill="rgb(110,140,180)" d="M 132.0 84.1 L 137.5 85.2 142.5 87.8 144.3 88.0 144.3 92.1 142.5 93.5 141.1 92.3 136.2 92.1 136.2 90.7 133.5 85.7 130.6 84.7 132.0 84.1 M 132.0 68.8 L 132.2 67.5 130.7 64.0 134.0 64.6 134.4 69.0 133.3 70.3 132.0 68.8 Z" vector-effect="non-scaling-stroke" stroke="silver" stroke-width="1" class=" highcharts-name-bremen"></path><path fill="rgb(90,125,169)" d="M 167.7 67.4 L 169.3 66.9 167.0 66.1 167.8 63.3 169.6 64.9 176.5 60.6 177.3 58.7 180.3 58.5 179.5 60.4 181.2 62.9 179.8 65.9 180.2 68.3 184.5 72.8 180.3 74.3 177.2 72.0 174.4 73.9 170.5 73.0 167.7 67.4 Z" vector-effect="non-scaling-stroke" stroke="silver" stroke-width="1" class=" highcharts-name-hamburg"></path><path fill="rgb(32,81,135)" d="M 118.9 295.4 L 110.2 291.5 100.5 291.2 92.0 284.6 89.6 282.6 92.7 276.2 88.3 270.6 90.3 268.7 89.1 264.1 87.5 264.8 84.8 262.8 78.5 261.4 71.2 265.0 67.7 265.9 59.4 265.9 61.9 258.8 64.3 257.3 64.7 252.7 62.0 252.0 56.0 247.7 52.2 239.6 54.1 231.4 57.6 229.4 59.2 226.9 61.5 226.3 63.2 225.9 62.4 223.3 64.3 225.5 68.4 223.8 69.4 225.1 72.5 225.7 75.0 225.1 74.1 219.3 78.1 219.2 78.1 216.9 83.5 213.6 86.7 213.2 88.1 211.5 90.8 212.4 93.6 211.3 94.2 208.3 100.9 206.9 104.1 204.6 103.4 203.2 106.3 201.9 106.1 198.2 109.3 197.7 108.8 199.7 111.8 202.2 115.3 209.3 117.8 209.6 118.6 214.5 116.8 217.5 113.6 217.7 112.7 223.9 114.9 225.1 117.2 229.8 110.7 233.6 110.6 238.1 108.5 237.8 105.8 240.8 110.4 244.8 118.7 241.4 120.4 241.8 123.8 245.7 123.9 249.1 126.5 255.3 124.5 260.4 126.3 264.6 128.7 271.4 128.2 278.7 118.9 295.4 Z" vector-effect="non-scaling-stroke" stroke="silver" stroke-width="1" class=" highcharts-name-rheinland-pfalz"></path><path fill="rgb(144,166,200)" d="M 92.0 284.6 L 88.6 287.6 74.6 282.0 73.7 285.2 70.2 283.7 63.9 270.5 59.1 269.3 59.4 265.9 67.7 265.9 71.2 265.0 78.5 261.4 84.8 262.8 87.5 264.8 89.1 264.1 90.3 268.7 88.3 270.6 92.7 276.2 89.6 282.6 92.0 284.6 Z" vector-effect="non-scaling-stroke" stroke="silver" stroke-width="1" class=" highcharts-name-saarland"></path><path fill="rgb(51,95,147)" d="M 243.7 226.1 L 243.2 229.7 249.0 239.3 256.2 242.7 258.2 245.8 254.0 254.1 262.3 265.3 263.1 269.3 268.4 274.1 275.0 275.4 281.3 283.8 285.3 284.8 291.7 292.2 295.8 291.6 303.2 300.1 303.2 307.8 300.7 312.4 294.0 309.7 290.8 320.2 286.7 323.9 278.8 326.5 269.6 334.1 270.3 336.9 278.5 347.3 275.5 353.6 279.8 353.9 281.8 358.3 281.0 364.8 277.8 366.1 272.1 362.1 271.3 356.6 263.9 358.7 259.9 355.9 251.6 355.6 251.4 360.6 243.7 360.6 233.1 362.0 230.9 365.9 226.3 366.4 221.2 371.8 211.8 372.5 205.3 366.5 192.6 363.9 194.0 370.5 189.2 377.4 184.1 379 185.3 373.7 177.0 366.6 165.5 363.7 167.9 362.3 169.1 362.6 174.1 359.1 177.1 359.8 180.6 358.9 181.2 360.3 181.8 358.8 183.0 358.4 182.4 354.4 181.2 353.5 182.9 352.0 181.8 348.9 182.1 346.0 181.3 344.8 182.7 341.1 182.9 337.5 182.0 335.5 180.0 327.7 177.5 324.0 180.4 319.4 182.5 318.7 183.2 319.7 186.4 317.7 188.5 316.4 188.3 312.6 189.0 311.8 187.5 310.7 186.9 309.0 187.8 307.8 190.2 309.7 191.9 307.8 192.2 309.3 194.2 307.9 192.1 304.7 192.9 301.3 192.8 296.0 189.3 291.4 186.7 290.6 186.3 286.8 182.4 283.0 181.9 279.7 182.8 279.5 181.5 274.8 183.1 274.1 182.1 271.8 181.2 271.3 181.6 267.8 180.2 266.2 179.6 267.9 178.1 269.4 175.4 269.3 174.6 264.5 172.7 266.4 172.2 265.9 173.6 263.0 172.0 260.9 171.9 259.0 170.6 257.5 168.5 259.2 168.0 257.6 166.9 259.1 165.4 258.7 165.9 254.4 164.5 255.1 160.9 253.9 156.4 254.4 155.1 255.4 155.2 257.1 158.9 258.2 158.1 261.6 157.2 261.1 154.3 262.3 153.3 264.8 148.7 264.9 147.4 263.1 148.7 261.7 149.4 258.9 149.6 254.3 147.3 252.2 145.9 248.4 145.9 241.6 144.3 241.2 145.4 239.0 148.5 237.6 150.0 238.2 152.4 236.6 155.6 236.8 158.1 239.2 161.3 238.4 162.0 235.3 161.0 234.9 161.4 232.0 166.2 232.0 166.7 229.8 168.9 228.5 169.4 223.7 172.4 223.8 176.8 221.3 178.5 217.9 180.7 215.6 182.7 216.2 184.3 218.1 186.9 219.0 189.5 222.4 189.7 223.7 191.1 223.5 192.8 225.7 194.4 225.4 195.7 227.1 196.6 232.1 200.1 232.7 200.3 231.1 203.7 231.0 203.6 229.6 199.6 227.2 200.0 225.2 201.9 223.9 206.8 223.7 208.3 225.6 210.2 225.6 212.2 224.7 213.6 226.7 213.0 227.4 214.9 229.3 216.9 229.0 217.6 224.9 216.4 219.2 218.5 218.2 219.4 216.8 222.0 217.0 221.9 220.5 223.7 221.2 224.0 222.6 225.5 223.6 233.9 221.6 234.9 222.6 237.3 221.4 240.0 224.4 243.7 226.1 Z" vector-effect="non-scaling-stroke" stroke="silver" stroke-width="1" class=" highcharts-name-bayern"></path><path fill="rgb(186,198,224)" d="M 321.9 160.3 L 329.6 164.3 332.9 174.6 331.5 183.4 326.8 196.3 321.6 195.1 322.0 191.8 317.2 186.8 310.7 186.3 309.3 189.1 313.1 194.0 299.2 199.9 297.5 202.8 290.2 203.9 285.7 209.9 279.0 211.0 276.9 215.4 272.2 215.9 269.5 220.4 266.5 218.7 256.6 221.8 251.3 228.6 249.9 233.4 248.0 228.7 243.7 226.1 240.0 224.4 237.3 221.4 237.8 217.7 239.7 214.7 241.6 215.4 244.6 213.7 245.8 210.5 247.9 210.4 250.0 207.9 247.3 205.7 247.7 202.2 252.8 200.3 256.0 197.6 259.7 196.2 256.3 192.9 254.2 188.6 247.2 187.7 245.9 187.5 243.6 183.5 242.7 177.5 244.1 175.8 243.1 169.7 245.3 164.0 251.3 163.2 251.6 161.7 258.4 161.4 262.0 159.9 264.4 157.7 270.7 160.0 274.3 162.3 275.3 171.2 282.1 169.0 285.7 171.5 293.4 172.0 299.7 171.0 304.9 162.3 310.6 162.7 315.7 160.0 321.9 160.3 Z" vector-effect="non-scaling-stroke" stroke="silver" stroke-width="1" class=" highcharts-name-sachsen"></path><path fill="rgb(94,128,172)" d="M 270.7 160.0 L 264.4 157.7 262.0 159.9 258.4 161.4 251.6 161.7 251.3 163.2 245.3 164.0 243.1 169.7 244.1 175.8 242.7 177.5 243.6 183.5 245.9 187.5 247.2 187.7 247.8 191.3 245.6 195.5 244.2 194.4 239.4 194.7 234.7 191.2 230.7 191.6 229.2 188.0 221.0 187.9 220.7 184.9 217.9 182.2 221.5 179.3 217.1 173.9 207.2 172.9 204.3 164.9 205.3 163.7 197.6 161.8 196.5 158.4 194.0 154.9 193.7 151.6 195.5 149.6 194.7 147.6 195.6 145.9 193.2 143.6 195.7 141.7 201.8 141.2 205.4 140.4 204.7 138.8 207.4 137.0 206.8 134.3 208.7 132.3 206.5 129.3 205.9 126.5 208.1 125.0 204.0 120.7 205.8 118.8 204.3 116.5 204.9 113.1 203.2 112.8 200.5 108.4 199.4 107.8 198.0 104.7 198.1 102.1 204.1 100.6 205.6 98.2 211.6 98.8 212.7 99.7 217.6 98.1 220.2 96.2 220.3 93.3 221.9 92.8 222.4 91.2 227.9 93.4 230.1 96.6 234.2 98.6 238.1 98.1 241.4 99.2 242.4 101.6 241.3 105.5 242.6 107.9 239.7 114.8 242.3 115.4 244.8 118.1 243.7 120.2 242.9 128.4 244.1 129.6 242.8 132.6 244.8 135.8 250.0 141.4 251.4 140.8 255.8 143.4 257.6 141.8 264.1 145.6 266.5 145.7 270.2 148.2 275.4 147.8 273.4 151.2 274.2 155.2 270.7 160.0 Z" vector-effect="non-scaling-stroke" stroke="silver" stroke-width="1" class=" highcharts-name-sachsen-anhalt"></path><path fill="rgb(153,173,205)" d="M 305.4 72.0 L 307.2 76.0 305.1 86.3 299.4 91.2 299.2 96.6 315.9 109.0 313.4 117.0 321.4 133.6 317.1 147.6 321.7 153.6 321.9 160.3 315.7 160.0 310.6 162.7 304.9 162.3 299.7 171.0 293.4 172.0 285.7 171.5 282.1 169.0 275.3 171.2 274.3 162.3 270.7 160.0 274.2 155.2 273.4 151.2 275.4 147.8 270.2 148.2 266.5 145.7 264.1 145.6 257.6 141.8 255.8 143.4 251.4 140.8 250.0 141.4 244.8 135.8 242.8 132.6 244.1 129.6 242.9 128.4 243.7 120.2 244.8 118.1 242.3 115.4 239.7 114.8 242.6 107.9 241.3 105.5 242.4 101.6 241.4 99.2 238.1 98.1 234.2 98.6 230.1 96.6 227.9 93.4 222.4 91.2 217.4 89.5 213.1 87.8 216.7 88.1 221.4 86.1 220.8 83.2 225.6 80.8 227.0 82.4 234.8 77.9 236.2 75.0 239.8 74.3 247.3 78.9 262.9 81.7 264.6 83.0 268.9 78.2 276.3 77.0 279.9 70.7 284.7 66.5 289.3 64.5 291.1 68.4 300.7 67.8 300.8 70.0 297.1 75.7 301.5 76.1 305.4 72.0 M 281.1 108.2 L 280.1 107.3 277.5 109.3 275.1 107.9 272.7 109.6 272.4 111.5 270.9 110.9 270.6 114.7 269.5 120.1 271.4 121.1 275.6 119.9 279.7 121.3 280.5 119.5 286.1 121.2 286.4 122.9 288.2 121.1 289.3 117.3 286.6 115.5 285.4 115.7 285.9 113.1 283.4 112.0 281.3 109.8 281.1 108.2 Z" vector-effect="non-scaling-stroke" stroke="silver" stroke-width="1" class=" highcharts-name-brandenburg"></path><path fill="rgb(182,196,222)" d="M 117.8 209.6 L 115.3 209.3 111.8 202.2 108.8 199.7 109.3 197.7 106.1 198.2 106.3 201.9 103.4 203.2 104.1 204.6 100.9 206.9 94.2 208.3 93.6 211.3 90.8 212.4 88.1 211.5 86.7 213.2 83.5 213.6 78.1 216.9 78.1 219.2 74.1 219.3 75.0 225.1 72.5 225.7 69.4 225.1 68.4 223.8 64.3 225.5 62.4 223.3 63.2 225.9 61.5 226.3 60.7 218.4 56.3 217.7 56.0 211.5 49.7 203.0 52.9 196.9 51.1 193.5 47.0 193.7 48.6 190.6 55.9 184.8 53.5 180.8 58.3 173.2 58.1 167.1 54.9 162.7 55.4 160.3 50.7 155.8 50.5 152.0 56.8 147.8 64.5 151.5 77.9 145.4 73.8 141.5 84.9 131.7 93.3 130.3 96.9 128.3 102.6 123.4 102.9 120.4 109.5 126.1 111.8 125.4 113.8 128.7 111.5 133.8 115.1 135.6 114.2 138.1 111.2 139.7 113.5 142.3 120.0 140.1 122.7 137.7 126.5 138.8 129.7 135.0 128.7 134.2 127.7 126.1 124.8 124.5 123.9 121.9 128.3 121.7 129.8 119.2 133.9 118.3 136.1 120.5 136.2 124.1 139.8 125.1 143.9 124.1 147.6 119.7 149.0 124.1 145.6 127.5 144.6 131.2 147.2 132.6 144.7 135.0 145.0 137.7 149.2 137.8 150.9 140.7 150.3 145.1 153.9 145.7 152.9 148.3 155.4 149.1 155.0 151.5 159.1 150.9 158.6 155.8 156.6 161.9 158.7 161.8 158.0 162.9 155.4 163.9 156.1 164.6 154.3 168.4 152.0 169.9 151.8 171.3 150.0 172.3 148.5 172.1 147.7 170.1 145.6 168.8 142.2 170.2 143.1 174.7 139.3 175.1 135.3 176.0 131.9 180.4 132.7 182.0 136.3 180.6 137.3 185.5 135.6 187.6 135.8 188.9 134.4 189.7 130.2 189.4 130.8 193.0 127.6 198.2 125.1 200.9 123.1 199.9 119.8 202.6 118.0 204.6 119.1 206.8 117.8 209.6 Z" vector-effect="non-scaling-stroke" stroke="silver" stroke-width="1" class=" highcharts-name-nordrhein-westfalen"></path><path fill="rgb(201,210,233)" d="M 118.9 295.4 L 128.2 278.7 128.7 271.4 126.3 264.6 128.9 264.9 131.1 267.2 132.7 266.3 132.2 263.1 134.5 262.5 136.0 266.5 141.5 268.3 140.2 269.4 139.0 273.4 140.1 273.8 143.3 270.9 143.7 268.4 146.2 268.6 149.1 267.8 147.7 265.0 148.7 264.9 153.3 264.8 154.3 262.3 157.2 261.1 158.1 261.6 158.9 258.2 155.2 257.1 155.1 255.4 156.4 254.4 160.9 253.9 164.5 255.1 165.9 254.4 165.4 258.7 166.9 259.1 168.0 257.6 168.5 259.2 170.6 257.5 171.9 259.0 172.0 260.9 173.6 263.0 172.2 265.9 172.7 266.4 174.6 264.5 175.4 269.3 178.1 269.4 179.6 267.9 180.2 266.2 181.6 267.8 181.2 271.3 182.1 271.8 183.1 274.1 181.5 274.8 182.8 279.5 181.9 279.7 182.4 283.0 186.3 286.8 186.7 290.6 189.3 291.4 192.8 296.0 192.9 301.3 192.1 304.7 194.2 307.9 192.2 309.3 191.9 307.8 190.2 309.7 187.8 307.8 186.9 309.0 187.5 310.7 189.0 311.8 188.3 312.6 188.5 316.4 186.4 317.7 183.2 319.7 182.5 318.7 180.4 319.4 177.5 324.0 180.0 327.7 182.0 335.5 182.9 337.5 182.7 341.1 181.3 344.8 182.1 346.0 181.8 348.9 182.9 352.0 181.2 353.5 182.4 354.4 183.0 358.4 181.8 358.8 181.2 360.3 180.6 358.9 177.1 359.8 174.1 359.1 169.1 362.6 167.9 362.3 165.5 363.7 162.1 360.9 155.9 358.9 147.5 352.2 151.2 359.5 145.6 359.1 141.9 360.4 131.8 353.3 127.1 354.8 124.7 359.7 130.6 359.8 126.6 363.7 117.5 362.1 114.4 364.4 108.5 364.7 105.4 362.9 100.8 365.4 95.5 359.0 95.8 353.4 99.1 342.6 97.6 338.0 103.8 325.1 103.4 322.6 105.9 317.0 105.9 312.3 111.3 305.3 115.7 302.2 118.9 295.4 Z" vector-effect="non-scaling-stroke" stroke="silver" stroke-width="1" class=" highcharts-name-baden-württemberg"></path><path fill="rgb(207,214,237)" d="M 178.5 217.9 L 176.8 221.3 172.4 223.8 169.4 223.7 168.9 228.5 166.7 229.8 166.2 232.0 161.4 232.0 161.0 234.9 162.0 235.3 161.3 238.4 158.1 239.2 155.6 236.8 152.4 236.6 150.0 238.2 148.5 237.6 145.4 239.0 144.3 241.2 145.9 241.6 145.9 248.4 147.3 252.2 149.6 254.3 149.4 258.9 148.7 261.7 147.4 263.1 148.7 264.9 147.7 265.0 149.1 267.8 146.2 268.6 143.7 268.4 143.3 270.9 140.1 273.8 139.0 273.4 140.2 269.4 141.5 268.3 136.0 266.5 134.5 262.5 132.2 263.1 132.7 266.3 131.1 267.2 128.9 264.9 126.3 264.6 124.5 260.4 126.5 255.3 123.9 249.1 123.8 245.7 120.4 241.8 118.7 241.4 110.4 244.8 105.8 240.8 108.5 237.8 110.6 238.1 110.7 233.6 117.2 229.8 114.9 225.1 112.7 223.9 113.6 217.7 116.8 217.5 118.6 214.5 117.8 209.6 119.1 206.8 118.0 204.6 119.8 202.6 123.1 199.9 125.1 200.9 127.6 198.2 130.8 193.0 130.2 189.4 134.4 189.7 135.8 188.9 135.6 187.6 137.3 185.5 136.3 180.6 132.7 182.0 131.9 180.4 135.3 176.0 139.3 175.1 143.1 174.7 142.2 170.2 145.6 168.8 147.7 170.1 148.5 172.1 150.0 172.3 151.8 171.3 152.0 169.9 154.3 168.4 156.1 164.6 155.4 163.9 158.0 162.9 158.7 161.8 160.4 162.6 162.1 162.2 164.4 162.7 166.3 165.6 165.0 165.6 163.6 168.6 164.9 170.8 164.7 174.1 163.2 174.2 162.8 177.0 166.3 178.4 167.3 179.5 168.8 178.6 167.3 175.9 170.8 174.0 171.7 175.5 171.9 173.6 173.2 173.2 174.6 174.9 173.8 176.0 174.6 178.8 177.8 180.1 178.8 182.8 183.5 184.6 182.5 188.0 181.8 186.6 180.3 187.1 181.7 188.1 180.9 191.1 182.5 191.6 182.3 194.0 178.0 193.5 177.2 194.8 177.8 196.8 175.1 196.8 175.7 198.6 176.7 197.8 178.3 199.7 177.1 202.2 175.0 203.1 174.9 205.0 173.9 209.2 172.8 211.6 174.9 212.4 175.1 210.7 176.6 210.0 178.3 210.3 179.1 212.6 178.2 213.5 178.5 217.9 Z" vector-effect="non-scaling-stroke" stroke="silver" stroke-width="1" class=" highcharts-name-hessen"></path><path fill="rgb(206,214,236)" d="M 167.7 67.4 L 170.5 73.0 174.4 73.9 177.2 72.0 180.3 74.3 184.5 72.8 190.5 75.7 192.7 75.7 207.5 86.6 209.1 85.2 213.1 87.8 217.4 89.5 222.4 91.2 221.9 92.8 220.3 93.3 220.2 96.2 217.6 98.1 212.7 99.7 211.6 98.8 205.6 98.2 204.1 100.6 198.1 102.1 198.0 104.7 199.4 107.8 200.5 108.4 203.2 112.8 204.9 113.1 204.3 116.5 205.8 118.8 204.0 120.7 208.1 125.0 205.9 126.5 206.5 129.3 208.7 132.3 206.8 134.3 207.4 137.0 204.7 138.8 205.4 140.4 201.8 141.2 195.7 141.7 193.2 143.6 195.6 145.9 194.7 147.6 195.5 149.6 193.7 151.6 194.0 154.9 196.5 158.4 197.6 161.8 195.0 165.1 192.0 166.0 189.1 164.3 187.7 164.6 187.4 166.8 183.6 170.3 182.2 170.0 180.8 172.4 177.6 172.4 174.6 174.9 173.2 173.2 171.9 173.6 171.7 175.5 170.8 174.0 167.3 175.9 168.8 178.6 167.3 179.5 166.3 178.4 162.8 177.0 163.2 174.2 164.7 174.1 164.9 170.8 163.6 168.6 165.0 165.6 166.3 165.6 164.4 162.7 162.1 162.2 160.4 162.6 158.7 161.8 156.6 161.9 158.6 155.8 159.1 150.9 155.0 151.5 155.4 149.1 152.9 148.3 153.9 145.7 150.3 145.1 150.9 140.7 149.2 137.8 145.0 137.7 144.7 135.0 147.2 132.6 144.6 131.2 145.6 127.5 149.0 124.1 147.6 119.7 143.9 124.1 139.8 125.1 136.2 124.1 136.1 120.5 133.9 118.3 129.8 119.2 128.3 121.7 123.9 121.9 124.8 124.5 127.7 126.1 128.7 134.2 129.7 135.0 126.5 138.8 122.7 137.7 120.0 140.1 113.5 142.3 111.2 139.7 114.2 138.1 115.1 135.6 111.5 133.8 113.8 128.7 111.8 125.4 109.5 126.1 102.9 120.4 102.6 123.4 96.9 128.3 93.3 130.3 84.9 131.7 83.6 121.1 75.1 119.7 77.7 111.5 85.7 111.4 90.6 95.7 91.3 81.8 94.6 77.6 86.3 75.2 88.5 64.8 92.7 60.9 114.2 58.6 120.5 67.1 117.2 69.6 121.5 74.2 125.0 69.3 123.1 64.5 132.0 68.8 133.3 70.3 134.4 69.0 134.0 64.6 130.7 64.0 132.5 52.0 150.6 51.7 153.2 51.7 153.8 52.6 161.9 64.8 167.7 67.4 M 132.0 84.1 L 130.6 84.7 133.5 85.7 136.2 90.7 136.2 92.1 141.1 92.3 142.5 93.5 144.3 92.1 144.3 88.0 142.5 87.8 137.5 85.2 132.0 84.1 Z" vector-effect="non-scaling-stroke" stroke="silver" stroke-width="1" class=" highcharts-name-niedersachsen"></path><path fill="rgb(71,110,158)" d="M 247.2 187.7 L 254.2 188.6 256.3 192.9 259.7 196.2 256.0 197.6 252.8 200.3 247.7 202.2 247.3 205.7 250.0 207.9 247.9 210.4 245.8 210.5 244.6 213.7 241.6 215.4 239.7 214.7 237.8 217.7 237.3 221.4 234.9 222.6 233.9 221.6 225.5 223.6 224.0 222.6 223.7 221.2 221.9 220.5 222.0 217.0 219.4 216.8 218.5 218.2 216.4 219.2 217.6 224.9 216.9 229.0 214.9 229.3 213.0 227.4 213.6 226.7 212.2 224.7 210.2 225.6 208.3 225.6 206.8 223.7 201.9 223.9 200.0 225.2 199.6 227.2 203.6 229.6 203.7 231.0 200.3 231.1 200.1 232.7 196.6 232.1 195.7 227.1 194.4 225.4 192.8 225.7 191.1 223.5 189.7 223.7 189.5 222.4 186.9 219.0 184.3 218.1 182.7 216.2 180.7 215.6 178.5 217.9 178.2 213.5 179.1 212.6 178.3 210.3 176.6 210.0 175.1 210.7 174.9 212.4 172.8 211.6 173.9 209.2 174.9 205.0 175.0 203.1 177.1 202.2 178.3 199.7 176.7 197.8 175.7 198.6 175.1 196.8 177.8 196.8 177.2 194.8 178.0 193.5 182.3 194.0 182.5 191.6 180.9 191.1 181.7 188.1 180.3 187.1 181.8 186.6 182.5 188.0 183.5 184.6 178.8 182.8 177.8 180.1 174.6 178.8 173.8 176.0 174.6 174.9 177.6 172.4 180.8 172.4 182.2 170.0 183.6 170.3 187.4 166.8 187.7 164.6 189.1 164.3 192.0 166.0 195.0 165.1 197.6 161.8 205.3 163.7 204.3 164.9 207.2 172.9 217.1 173.9 221.5 179.3 217.9 182.2 220.7 184.9 221.0 187.9 229.2 188.0 230.7 191.6 234.7 191.2 239.4 194.7 244.2 194.4 245.6 195.5 247.8 191.3 247.2 187.7 Z" vector-effect="non-scaling-stroke" stroke="silver" stroke-width="1" class=" highcharts-name-thüringen"></path></g></g><g class="highcharts-markers highcharts-tracker" visibility="visible"  transform="translate(10,47) scale(1 1)" style="" clip-path="none"></g></g><text x="200" text-anchor="middle" class="highcharts-title"  style="color:#333333;font-size:18px;fill:#333333;width:336px;" y="24"><tspan>GeoJSON in Highmaps</tspan></text><g class="highcharts-button" style="cursor:default;text-align:center;"  transform="translate(10,429)"><title>Zoom in</title><path fill="url(#highcharts-1)" d="M 1.5 -0.5 L 25.5 -0.5 C 26.5 -0.5 27.5 0.5 27.5 1.5 L 27.5 27.5 C 27.5 27.5 27.5 27.5 27.5 27.5 L -0.5 27.5 C -0.5 27.5 -0.5 27.5 -0.5 27.5 L -0.5 1.5 C -0.5 0.5 0.5 -0.5 1.5 -0.5 Z" stroke="#CCCCCC" stroke-width="1"></path><text x="8"  style="font-size:15px;font-weight:bold;color:black;fill:black;" transform="translate(0,19)">+</text></g><g class="highcharts-button" style="cursor:default;text-align:center;"  transform="translate(10,457)"><title>Zoom out</title><path fill="url(#highcharts-1)" d="M -0.5 -0.5 L 27.5 -0.5 C 27.5 -0.5 27.5 -0.5 27.5 -0.5 L 27.5 25.5 C 27.5 26.5 26.5 27.5 25.5 27.5 L 1.5 27.5 C 0.5 27.5 -0.5 26.5 -0.5 25.5 L -0.5 -0.5 C -0.5 -0.5 -0.5 -0.5 -0.5 -0.5 Z" stroke="#CCCCCC" stroke-width="1"></path><text x="11"  style="font-size:15px;font-weight:bold;color:black;fill:black;" transform="translate(0,19)">-</text></g><g class="highcharts-data-labels highcharts-tracker" visibility="visible"  transform="translate(10,47) scale(1 1)" clip-path="url(#highcharts-3)" style=""><g  style="" transform="translate(161,32)"><text x="0"  style="font-size: 11px; font-weight: bold; color: rgb(255, 255, 255); fill: #ffffff; text-shadow: rgb(0, 0, 0) 0px 0px 6px, rgb(0, 0, 0) 0px 0px 3px; " transform="translate(0,11)"><tspan>SH</tspan></text></g><g  style="" transform="translate(273,109)" opacity="0"><text x="0"  style="font-size: 11px; font-weight: bold; color: rgb(255, 255, 255); fill: #ffffff; text-shadow: rgb(0, 0, 0) 0px 0px 6px, rgb(0, 0, 0) 0px 0px 3px; " transform="translate(0,11)"><tspan>BE</tspan></text></g><g  style="" transform="translate(241,42)"><text x="0"  style="font-size: 11px; font-weight: bold; color: rgb(255, 255, 255); fill: #ffffff; text-shadow: rgb(0, 0, 0) 0px 0px 6px, rgb(0, 0, 0) 0px 0px 3px; " transform="translate(0,11)"><tspan>MV</tspan></text></g><g  style="" transform="translate(130,73)"><text x="0"  style="font-size: 11px; font-weight: bold; color: rgb(0, 0, 0); fill: #000000; text-shadow: rgb(255, 255, 255) 0px 0px 6px, rgb(255, 255, 255) 0px 0px 3px; " transform="translate(0,11)"><tspan>HB</tspan></text></g><g  style="" transform="translate(168,60)"><text x="0"  style="font-size: 11px; font-weight: bold; color: rgb(255, 255, 255); fill: #ffffff; text-shadow: rgb(0, 0, 0) 0px 0px 6px, rgb(0, 0, 0) 0px 0px 3px; " transform="translate(0,11)"><tspan>HH</tspan></text></g><g  style="" transform="translate(83,241)"><text x="0"  style="font-size: 11px; font-weight: bold; color: rgb(255, 255, 255); fill: #ffffff; text-shadow: rgb(0, 0, 0) 0px 0px 6px, rgb(0, 0, 0) 0px 0px 3px; " transform="translate(0,11)"><tspan>RP</tspan></text></g><g  style="" transform="translate(69,269)"><text x="0"  style="font-size: 11px; font-weight: bold; color: rgb(0, 0, 0); fill: #000000; text-shadow: rgb(255, 255, 255) 0px 0px 6px, rgb(255, 255, 255) 0px 0px 3px; " transform="translate(0,11)"><tspan>SL</tspan></text></g><g  style="" transform="translate(217,291)"><text x="0"  style="font-size: 11px; font-weight: bold; color: rgb(255, 255, 255); fill: #ffffff; text-shadow: rgb(0, 0, 0) 0px 0px 6px, rgb(0, 0, 0) 0px 0px 3px; " transform="translate(0,11)"><tspan>BY</tspan></text></g><g  style="" transform="translate(278,190)"><text x="0"  style="font-size: 11px; font-weight: bold; color: rgb(0, 0, 0); fill: #000000; text-shadow: rgb(255, 255, 255) 0px 0px 6px, rgb(255, 255, 255) 0px 0px 3px; " transform="translate(0,11)"><tspan>SN</tspan></text></g><g  style="" transform="translate(227,137)"><text x="0"  style="font-size: 11px; font-weight: bold; color: rgb(0, 0, 0); fill: #000000; text-shadow: rgb(255, 255, 255) 0px 0px 6px, rgb(255, 255, 255) 0px 0px 3px; " transform="translate(0,11)"><tspan>ST</tspan></text></g><g  style="" transform="translate(261,112)"><text x="0"  style="font-size: 11px; font-weight: bold; color: rgb(0, 0, 0); fill: #000000; text-shadow: rgb(255, 255, 255) 0px 0px 6px, rgb(255, 255, 255) 0px 0px 3px; " transform="translate(0,11)"><tspan>BE</tspan></text></g><g  style="" transform="translate(94,166)"><text x="0"  style="font-size: 11px; font-weight: bold; color: rgb(0, 0, 0); fill: #000000; text-shadow: rgb(255, 255, 255) 0px 0px 6px, rgb(255, 255, 255) 0px 0px 3px; " transform="translate(0,11)"><tspan>NW</tspan></text></g><g  style="" transform="translate(136,304)"><text x="0"  style="font-size: 11px; font-weight: bold; color: rgb(0, 0, 0); fill: #000000; text-shadow: rgb(255, 255, 255) 0px 0px 6px, rgb(255, 255, 255) 0px 0px 3px; " transform="translate(0,11)"><tspan>BW</tspan></text></g><g  style="" transform="translate(138,212)"><text x="0"  style="font-size: 11px; font-weight: bold; color: rgb(0, 0, 0); fill: #000000; text-shadow: rgb(255, 255, 255) 0px 0px 6px, rgb(255, 255, 255) 0px 0px 3px; " transform="translate(0,11)"><tspan>HE</tspan></text></g><g  style="" transform="translate(143,110)"><text x="0"  style="font-size: 11px; font-weight: bold; color: rgb(0, 0, 0); fill: #000000; text-shadow: rgb(255, 255, 255) 0px 0px 6px, rgb(255, 255, 255) 0px 0px 3px; " transform="translate(0,11)"><tspan>NI</tspan></text></g><g  style="" transform="translate(209,191)"><text x="0"  style="font-size: 11px; font-weight: bold; color: rgb(255, 255, 255); fill: #ffffff; text-shadow: rgb(0, 0, 0) 0px 0px 6px, rgb(0, 0, 0) 0px 0px 3px; " transform="translate(0,11)"><tspan>TH</tspan></text></g></g><g class="highcharts-legend"  transform="translate(93,438)"><g ><g><g class="highcharts-legend-item"  transform="translate(8,3)"><rect x="0" y="4" width="200" height="12"  fill="url(#highcharts-2)"></rect><g class="highcharts-grid" ><path fill="none" d="M -0.5 4 L -0.5 16" stroke="#D8D8D8" stroke-width="1"  opacity="1"></path><path fill="none" d="M 49.5 4 L 49.5 16" stroke="#D8D8D8" stroke-width="1"  opacity="1"></path><path fill="none" d="M 99.5 4 L 99.5 16" stroke="#D8D8D8" stroke-width="1"  opacity="1"></path><path fill="none" d="M 149.5 4 L 149.5 16" stroke="#D8D8D8" stroke-width="1"  opacity="1"></path><path fill="none" d="M 200.5 4 L 200.5 16" stroke="#D8D8D8" stroke-width="1"  opacity="1"></path></g><text x="21" style="color:#333333;font-size:12px;font-weight:bold;cursor:pointer;fill:#333333;" text-anchor="start"  y="15"></text><g class="highcharts-axis" ><path fill="none" d="M -0.5 16 L -0.5 21" stroke="#C0D0E0" stroke-width="1" opacity="1"></path><path fill="none" d="M 49.5 16 L 49.5 21" stroke="#C0D0E0" stroke-width="1" opacity="1"></path><path fill="none" d="M 99.5 16 L 99.5 21" stroke="#C0D0E0" stroke-width="1" opacity="1"></path><path fill="none" d="M 149.5 16 L 149.5 21" stroke="#C0D0E0" stroke-width="1" opacity="1"></path><path fill="none" d="M 200.5 16 L 200.5 21" stroke="#C0D0E0" stroke-width="1" opacity="1"></path></g><g class="highcharts-axis-labels highcharts-coloraxis-labels" ><text x="0" style="color:#606060;cursor:default;font-size:11px;fill:#606060;" text-anchor="start" transform="translate(0,0)" y="35" opacity="1">0</text><text x="50" style="color:#606060;cursor:default;font-size:11px;fill:#606060;" text-anchor="middle" transform="translate(0,0)" y="35" opacity="1">250</text><text x="100" style="color:#606060;cursor:default;font-size:11px;fill:#606060;" text-anchor="middle" transform="translate(0,0)" y="35" opacity="1">500</text><text x="150" style="color:#606060;cursor:default;font-size:11px;fill:#606060;" text-anchor="middle" transform="translate(0,0)" y="35" opacity="1">750</text><text x="200" style="color:#606060;cursor:default;font-size:11px;fill:#606060;" text-anchor="end" transform="translate(0,0)" y="35" opacity="1">1000</text></g></g></g></g></g><g class="highcharts-axis-labels highcharts-xaxis-labels" ></g><g class="highcharts-axis-labels highcharts-yaxis-labels" ></g><g class="highcharts-tooltip"  style="cursor:default;padding:0;white-space:nowrap;" transform="translate(0,-9999)"><path fill="none" d="M 3 0 L 13 0 C 16 0 16 0 16 3 L 16 13 C 16 16 16 16 13 16 L 3 16 C 0 16 0 16 0 13 L 0 3 C 0 0 0 0 3 0"  stroke="black" stroke-opacity="0.0" stroke-width="5" transform="translate(1, 1)"></path><path fill="none" d="M 3 0 L 13 0 C 16 0 16 0 16 3 L 16 13 C 16 16 16 16 13 16 L 3 16 C 0 16 0 16 0 13 L 0 3 C 0 0 0 0 3 0"  stroke="black" stroke-opacity="0.0" stroke-width="3" transform="translate(1, 1)"></path><path fill="none" d="M 3 0 L 13 0 C 16 0 16 0 16 3 L 16 13 C 16 16 16 16 13 16 L 3 16 C 0 16 0 16 0 13 L 0 3 C 0 0 0 0 3 0"  stroke="black" stroke-opacity="0.1" stroke-width="1" transform="translate(1, 1)"></path><path fill="rgb(249, 249, 249)" fill-opacity=" .85" d="M 3 0 L 13 0 C 16 0 16 0 16 3 L 16 13 C 16 16 16 16 13 16 L 3 16 C 0 16 0 16 0 13 L 0 3 C 0 0 0 0 3 0"></path><text x="8"  style="font-size:12px;color:#333333;fill:#333333;" transform="translate(0,20)"></text></g></svg>