<svg version="1.1" style="font-family:&quot;lucida grande&quot;, &quot;lucida sans unicode&quot;, arial, helvetica, sans-serif;font-size:12px;" xmlns="http://www.w3.org/2000/svg" width="584" height="680" viewBox="0 0 584 680"><desc>Created with Highmaps 1.1.4</desc><defs><linearGradient x1="0" y1="0" x2="0" y2="1" id="highcharts-1"><stop offset="0" stop-color="#FEFEFE" stop-opacity="1"></stop><stop offset="1" stop-color="#F6F6F6" stop-opacity="1"></stop></linearGradient><clipPath id="highcharts-2"><rect x="0" y="0" width="564" height="581"></rect></clipPath></defs><rect x="0" y="0" width="584" height="680" strokeWidth="0" fill="#FFFFFF" class=" highcharts-background"></rect><g class="highcharts-grid" ></g><g class="highcharts-grid" ></g><g class="highcharts-axis" ></g><g class="highcharts-axis" ></g><g class="highcharts-series-group" ><g class="highcharts-series highcharts-tracker" visibility="visible"  transform="translate(10,47) scale(1 1)" style="" clip-path="url(#highcharts-2)"><g transform="translate(0,0) scale(1 1)"><path fill="rgb(200, 200, 200)" fill-opacity=" 0.2" d="M 542.1 203.6 L 544.5 204.1 542.4 204.9 541.4 205.9 542.1 203.6 M 536.0 202.2 L 535.9 201.6 535.5 201.9 532.9 198.3 528.9 199.5 519.6 201.7 512.4 203.2 512.1 202.9 512.2 193.6 515.7 192.8 520.0 191.8 520.0 191.8 531.3 189.2 532.3 187.3 535.3 185.5 536.2 187.6 538.3 188.1 535.9 190.2 535.3 193.6 538.7 193.9 542.0 198.6 544.8 199.1 547.0 197.4 548.3 198.7 545.9 199.6 541.5 202.7 541.1 200.1 537.3 204.1 536.7 202.2 536.0 202.2 Z" vector-effect="non-scaling-stroke" stroke="#606060" stroke-width="1" class=" highcharts-name-massachusetts highcharts-key-us-ma"></path><path fill="rgb(200, 200, 200)" fill-opacity=" 0.2" d="M 47.9 104.4 L 49.0 105.9 47.1 106.5 47.4 108.8 44.8 106.8 47.9 104.4 M 49.2 110.0 L 47.5 111.6 48.4 112.3 49.6 116.3 47.9 115.2 47.3 111.3 49.2 109.9 48.8 109.6 48.7 107.5 50.3 109.4 51.4 105.6 50.2 104.8 50.2 101.6 100.0 115.0 91.7 149.7 92.1 155.1 72.6 150.3 71.5 150.7 66.9 149.9 60.4 150.7 56.8 149.8 51.4 149.7 50.7 148.4 46.0 146.9 41.1 147.6 37.2 145.1 37.8 140.8 37.3 138.8 35.2 137.1 33.3 136.9 32.9 135.1 29.2 134.4 28.0 132.3 30.3 130.4 31.0 127.8 29.3 127.3 29.6 125.3 32.7 125.2 29.8 123.1 29.8 118.6 30.6 113.4 29.4 110.6 29.6 106.9 31.9 104.7 35.6 108.7 42.4 111.8 43.5 111.2 44.3 113.4 46.7 112.7 46.9 116.3 47.9 116.4 46.1 120.3 47.3 123.7 43.2 122.5 40.3 125.3 43.7 126.3 45.4 124.1 47.6 123.7 48.4 118.4 50.9 116.2 50.0 112.3 50.6 111.5 49.2 110.0 Z" vector-effect="non-scaling-stroke" stroke="#606060" stroke-width="1" class=" highcharts-name-washington highcharts-key-us-wa"></path><path fill="rgb(200, 200, 200)" fill-opacity=" 0.2" d="M 8.6 188.1 L 49.3 200.1 38.7 239.2 53.5 261.3 65.4 279.4 82.7 305.1 84.1 312.8 86.2 315.8 83.0 317.2 80.9 319.4 80.7 322.3 78.4 325.8 77.3 325.9 76.6 330.2 78.9 332.1 77.5 335.3 75.3 335.2 47.9 331.6 46.9 329.0 47.5 323.4 46.2 320.0 40.2 312.6 37.5 312.2 37.1 307.9 34.1 307.7 30.2 304.6 29.9 303.1 26.7 299.9 21.3 297.8 17.6 297.0 16.2 294.7 18.2 287.6 16.0 285.3 16.9 284.4 14.5 279.5 13.3 278.8 10.7 270.5 9.3 268.6 9.5 264.9 12.3 262.5 11.4 259.8 9.2 259.2 7.4 255.6 7.5 250.9 8.6 247.6 9.8 247.6 9.5 250.6 12.2 253.4 10.5 248.2 11.0 245.1 13.5 245.5 10.0 243.4 8.6 247.2 5.5 243.2 4.9 237.1 0.8 229.2 1.6 227.9 1.5 223.4 2.9 221.0 3.2 217.1 1.8 212.8 0 210.0 0.3 207.5 5.6 200.8 7.7 195.8 8.0 191.7 7.2 190.8 8.6 188.1 Z" vector-effect="non-scaling-stroke" stroke="#606060" stroke-width="1" class=" highcharts-name-california highcharts-key-us-ca"></path><path fill="rgb(200, 200, 200)" fill-opacity=" 0.2" d="M 49.3 200.1 L 8.6 188.1 7.9 183.2 9.4 179.0 8.9 176.2 12.6 170.4 14.8 168.2 16.9 164.1 21.0 154.7 21.6 152.2 26.2 143.2 26.3 140.2 28.0 134.6 33.2 137.0 35.2 137.1 37.3 138.8 37.8 140.8 37.2 145.1 41.1 147.6 46.0 146.9 50.7 148.4 51.4 149.7 56.8 149.8 60.4 150.7 66.9 149.9 71.5 150.7 72.6 150.3 92.1 155.1 92.7 157.5 94.6 159.1 94.7 161.5 92.2 164.2 89.2 169.5 84.3 174.4 83.8 176.8 86.3 179.0 83.9 184.0 78.4 207.5 49.3 200.1 Z" vector-effect="non-scaling-stroke" stroke="#606060" stroke-width="1" class=" highcharts-name-oregon highcharts-key-us-or"></path><path fill="rgb(200, 200, 200)" fill-opacity=" 0.2" d="M 374.5 182.4 L 374.0 185.5 372.0 189.7 370.8 188.4 372.1 184.8 374.5 182.4 M 341.7 223.4 L 340.9 221.5 337.5 220.5 336.0 214.9 336.7 213.3 334.9 210.4 334.2 204.8 330.5 202.8 326.0 198.1 321.2 196.0 318.9 194.1 319.3 186.7 320.0 184.6 317.9 183.0 317.8 181.1 319.4 178.3 323.2 175.9 322.9 168.0 324.5 166.4 327.5 167.2 335.1 163.5 337.2 163.7 336.8 165.7 338.2 167.5 340.6 168.1 343.5 171.3 353.1 173.2 355.9 174.6 362.1 175.1 363.4 177.3 366.1 178.5 366.0 182.9 367.9 182.9 367.5 185.2 368.8 186.1 366.8 188.4 365.2 193.7 366.3 193.8 368.9 189.7 371.7 189.9 370.2 196.8 370.8 198.0 369.0 202.2 369.5 205.1 368.0 211.2 368.4 214.5 369.8 217.2 370.0 221.5 352.3 222.8 343.3 223.3 341.7 223.4 Z" vector-effect="non-scaling-stroke" stroke="#606060" stroke-width="1" class=" highcharts-name-wisconsin highcharts-key-us-wi"></path><path fill="rgb(200, 200, 200)" fill-opacity=" 0.2" d="M 552.1 160.0 L 553.1 158.1 554.3 159.0 553.0 161.9 552.1 160.0 M 531.4 177.1 L 523.8 154.6 525.7 155.0 526.5 150.1 528.4 147.3 528.9 144.0 528.0 142.6 528.0 138.5 528.9 137.4 528.3 133.5 532.1 122.0 533.9 121.5 534.9 123.8 536.3 124.2 542.0 120.3 546.7 123.2 552.5 140.8 555.9 140.7 557.0 144.9 558.5 146.1 560.2 145.3 564 149.0 562.2 152.3 556.4 155.6 555.6 159.0 554.5 157.1 551.5 158.0 550.4 161.0 551.7 164.2 548.5 160.6 548.4 158.2 546.6 160.4 547.2 165.5 544.0 169.5 542.2 170.2 541.5 172.2 539.8 170.6 537.7 173.3 538.5 175.0 536.0 179.8 535.2 182.7 531.9 179.4 531.4 177.1 Z" vector-effect="non-scaling-stroke" stroke="#606060" stroke-width="1" class=" highcharts-name-maine highcharts-key-us-me"></path><path fill="rgb(200, 200, 200)" fill-opacity=" 0.2" d="M 405.5 168.6 L 405.8 170.6 403.5 170.7 404.0 168.4 405.5 168.6 M 356.6 145.3 L 355.1 147.6 351.2 150.3 351.2 148.6 356.6 145.3 M 414.5 226.7 L 406.1 228.2 401.1 229.0 401.0 228.2 380.6 230.4 382.7 227.8 384.5 223.3 385.4 217.0 385.0 213.6 380.9 205.0 381.7 202.8 380.5 198.9 382.5 194.7 382.1 190.5 383.6 189.5 383.6 187.2 385.8 186.5 387.3 183.1 388.1 184.7 387.7 187.6 388.7 188.4 389.8 186.3 389.6 182.3 391.5 180.0 393.2 179.7 391.9 176.5 394.6 173.8 397.3 175.1 396.4 173.4 398.5 173.5 397.8 175.2 400.1 175.3 401.5 177.0 407.3 178.2 409.7 181.8 408.5 183.0 410.7 186.7 410.7 191.8 409.1 192.9 408.9 195.7 406.4 197.1 406.6 201.2 408.9 202.0 410.6 200.4 412.5 196.2 415.4 194.7 417.9 196.4 420.8 204.8 422.4 208.1 422.2 213.2 419.2 213.5 418.9 217.0 416.8 219.1 416.2 223.8 414.5 226.7 M 357.2 159.3 L 358.6 161.4 358.6 164.0 360.5 161.8 364.7 162.0 366.3 162.8 369.3 166.8 372.8 166.1 373.7 167.2 376.5 166.8 380.3 163.3 386.1 162.8 391.3 160.7 390.7 164.3 395.4 165.2 396.7 163.8 399.5 163.2 399.7 167.2 402.5 169.9 401.4 170.7 396.6 171.0 395.3 170.2 394.9 173.0 391.9 171.1 386.8 170.7 385.9 172.3 380.4 173.4 379.5 175.5 376.5 177.6 377.5 174.5 375.6 175.1 373.7 177.3 373.4 174.7 368.8 186.1 367.5 185.2 367.9 182.9 366.0 182.9 366.1 178.5 363.4 177.3 362.1 175.1 355.9 174.6 353.1 173.2 343.5 171.3 340.6 168.1 344.2 166.4 346.1 164.4 349.8 163.7 353.6 161.3 356.5 158.1 356.9 158.8 358.2 156.1 361.6 154.3 364.7 154.7 360.2 158.4 358.7 161.2 358.6 159.4 357.2 159.3 Z" vector-effect="non-scaling-stroke" stroke="#606060" stroke-width="1" class=" highcharts-name-michigan highcharts-key-us-mi"></path><path fill="rgb(200, 200, 200)" fill-opacity=" 0.2" d="M 49.3 200.1 L 78.4 207.5 98.5 212.0 107.7 213.9 100.2 251.1 94.4 279.9 92.3 290.3 91.0 292.4 86.7 290.0 84.7 290.5 83.6 298.2 83.8 302.7 82.7 305.1 65.4 279.4 53.5 261.3 38.7 239.2 49.3 200.1 Z" vector-effect="non-scaling-stroke" stroke="#606060" stroke-width="1" class=" highcharts-name-nevada highcharts-key-us-nv"></path><path fill="rgb(200, 200, 200)" fill-opacity=" 0.2" d="M 147.6 289.2 L 212.6 296.3 212.1 301.4 212.0 303.1 211.6 303.3 206.6 363.6 165.3 359.6 166.7 362.9 147.0 360.3 146.2 366.4 136.6 365.1 142.1 327.0 147.6 289.2 Z" vector-effect="non-scaling-stroke" stroke="#606060" stroke-width="1" class=" highcharts-name-new-mexico highcharts-key-us-nm"></path><path fill="rgb(200, 200, 200)" fill-opacity=" 0.2" d="M 212.6 296.3 L 147.6 289.2 154.1 244.2 155.3 235.8 206.0 241.7 226.4 243.3 225.4 256.7 224.9 265.6 222.9 297.1 212.6 296.3 Z" vector-effect="non-scaling-stroke" stroke="#606060" stroke-width="1" class=" highcharts-name-colorado highcharts-key-us-co"></path><path fill="rgb(200, 200, 200)" fill-opacity=" 0.2" d="M 206.0 241.7 L 155.3 235.8 135.1 232.7 137.3 219.4 139.1 209.0 142.8 186.0 144.0 179.3 210.7 187.9 208.8 209.7 208.3 214.8 207.9 219.9 206.0 241.7 Z" vector-effect="non-scaling-stroke" stroke="#606060" stroke-width="1" class=" highcharts-name-wyoming highcharts-key-us-wy"></path><path fill="rgb(200, 200, 200)" fill-opacity=" 0.2" d="M 225.4 256.7 L 295.3 258.8 299.8 261.2 297.5 265.1 300.4 269.3 302.6 270.6 303.1 299.2 222.9 297.1 224.9 265.6 225.4 256.7 Z" vector-effect="non-scaling-stroke" stroke="#606060" stroke-width="1" class=" highcharts-name-kansas highcharts-key-us-ks"></path><path fill="rgb(200, 200, 200)" fill-opacity=" 0.2" d="M 295.3 258.8 L 225.4 256.7 226.4 243.3 206.0 241.7 207.9 219.9 208.3 214.8 263.5 218.0 267.5 220.8 269.9 219.9 275.2 219.8 281.1 222.7 283.4 224.9 284.2 225.1 284.7 229.1 287.5 234.6 287.3 237.9 289.5 241.2 289.9 248.2 290.5 250.1 290.6 250.5 290.6 250.8 290.6 250.8 290.5 250.8 290.5 250.8 292.0 254.2 295.3 258.8 Z" vector-effect="non-scaling-stroke" stroke="#606060" stroke-width="1" class=" highcharts-name-nebraska highcharts-key-us-ne"></path><path fill="rgb(200, 200, 200)" fill-opacity=" 0.2" d="M 222.9 297.1 L 303.1 299.2 303.1 300.9 303.2 305.9 305.4 320.9 305.3 344.4 300.9 343.0 296.9 340.2 295.4 341.5 292.7 340.4 288.9 341.2 284.4 343.8 280.9 340.8 277.8 340.3 275.6 343.4 274.5 340.9 272.7 341.9 269.2 339.8 266.1 341.0 264.6 337.6 260.2 338.4 252.3 336.0 251.6 333.6 247.0 333.6 243.5 331.0 244.6 305.1 212.0 303.1 212.1 301.4 212.6 296.3 222.9 297.1 Z" vector-effect="non-scaling-stroke" stroke="#606060" stroke-width="1" class=" highcharts-name-oklahoma highcharts-key-us-ok"></path><path fill="rgb(200, 200, 200)" fill-opacity=" 0.2" d="M 303.2 305.9 L 303.1 300.9 303.1 299.2 302.6 270.6 300.4 269.3 297.5 265.1 299.8 261.2 295.3 258.8 292.0 254.2 290.5 250.8 290.5 250.8 290.6 250.8 303.8 251.0 318.0 250.6 332.0 249.5 335.1 252.5 335.1 252.5 335.1 252.5 334.5 255.3 336.5 261.5 342.4 266.5 343.8 270.8 345.2 272.3 346.7 271.0 350.0 272.6 347.8 279.9 350.9 283.6 353.0 284.3 357.2 287.4 358.5 290.8 357.8 293.2 359.5 295.5 362.5 296.7 362.5 300.0 359.7 303.4 359.1 304.1 358.9 303.5 358.1 302.8 358.2 303.5 357.0 307.1 356.9 310.4 349.8 311.1 352.9 306.7 351.7 304.0 303.2 305.9 Z" vector-effect="non-scaling-stroke" stroke="#606060" stroke-width="1" class=" highcharts-name-missouri highcharts-key-us-mo"></path><path fill="rgb(200, 200, 200)" fill-opacity=" 0.2" d="M 370.0 221.5 L 370.1 224.4 373.7 231.5 376.6 263.3 375.5 266.7 377.6 271.3 372.9 280.8 373.1 284.7 372.0 287.0 372.7 289.2 369.1 290.4 369.2 294.9 364.5 293.3 361.8 295.7 362.5 296.7 359.5 295.5 357.8 293.2 358.5 290.8 357.2 287.4 353.0 284.3 350.9 283.6 347.8 279.9 350.0 272.6 346.7 271.0 345.2 272.3 343.8 270.8 342.4 266.5 336.5 261.5 334.5 255.3 335.1 252.5 335.1 252.5 335.1 252.5 335.6 249.6 337.6 248.7 339.6 244.7 338.2 241.5 339.0 238.1 341.9 237.7 345.4 235.4 346.7 232.5 346.7 228.4 344.3 226.9 341.7 223.4 341.7 223.4 343.3 223.3 355.9 222.6 370.0 221.5 Z" vector-effect="non-scaling-stroke" stroke="#606060" stroke-width="1" class=" highcharts-name-illinois highcharts-key-us-il"></path><path fill="rgb(200, 200, 200)" fill-opacity=" 0.2" d="M 373.7 231.5 L 376.2 232.7 380.6 230.4 401.0 228.2 401.1 229.0 401.8 234.4 405.2 263.8 405.8 267.9 402.1 269.7 399.2 269.6 399.8 272.0 396.1 275.9 394.1 280.4 391.4 278.4 386.8 282.1 385.9 280.9 382.4 283.3 379.5 282.2 377.8 283.6 374.6 282.9 373.1 284.7 372.9 280.8 377.6 271.3 375.5 266.7 376.6 263.3 373.7 231.5 Z" vector-effect="non-scaling-stroke" stroke="#606060" stroke-width="1" class=" highcharts-name-indiana highcharts-key-us-in"></path><path fill="rgb(200, 200, 200)" fill-opacity=" 0.2" d="M 515.7 192.8 L 512.2 193.6 509.7 183.0 507.9 182.9 507.9 180.7 506.2 176.9 506.1 171.1 505.2 169.9 503.9 164.2 509.9 162.6 521.0 159.5 520.8 163.4 522.1 165.1 521.4 167.4 518.6 170.5 518.7 177.4 517.8 181.2 518.6 184.2 518.6 190.1 520.0 191.8 520.0 191.8 515.7 192.8 Z" vector-effect="non-scaling-stroke" stroke="#606060" stroke-width="1" class=" highcharts-name-vermont highcharts-key-us-vt"></path><path fill="rgb(200, 200, 200)" fill-opacity=" 0.2" d="M 80.7 322.3 L 80.9 319.4 83.0 317.2 86.2 315.8 84.1 312.8 82.7 305.1 83.8 302.7 83.6 298.2 84.7 290.5 86.7 290.0 91.0 292.4 92.3 290.3 94.4 279.9 129.2 286.3 147.6 289.2 142.1 327.0 136.6 365.1 114.0 361.5 73.6 337.8 75.3 335.2 77.5 335.3 78.9 332.1 76.6 330.2 77.3 325.9 80.7 322.3 Z" vector-effect="non-scaling-stroke" stroke="#606060" stroke-width="1" class=" highcharts-name-arizona highcharts-key-us-az"></path><path fill="rgb(200, 200, 200)" fill-opacity=" 0.2" d="M 310.5 352.9 L 310.3 345.6 307.1 345.6 305.3 344.4 305.4 320.9 303.2 305.9 351.7 304.0 352.9 306.7 349.8 311.1 356.9 310.4 357.1 312.6 354.8 314.1 355.2 316.6 353.3 318.9 353.5 322.4 351.4 324.3 348.5 329.3 348.6 332.2 344.8 336.1 345.4 337.7 343.4 338.3 344.0 340.7 342.1 342.6 343.3 345.3 343.9 349.7 343.2 351.6 341.1 351.8 310.5 352.9 Z" vector-effect="non-scaling-stroke" stroke="#606060" stroke-width="1" class=" highcharts-name-arkansas highcharts-key-us-ar"></path><path fill="rgb(200, 200, 200)" fill-opacity=" 0.2" d="M 305.3 344.4 L 307.1 345.6 310.3 345.6 310.5 352.9 310.7 366.6 313.5 370.4 313.4 372.1 317.2 379.4 314.9 386.0 315.2 392.6 314.2 393.9 311.2 398.1 304.2 401.4 303.0 400.4 303.6 397.3 300.2 398.4 299.8 400.2 303.4 403.0 293.0 410.9 288.8 411.9 288.1 413.2 283.2 415.9 275.8 422.8 277.5 419.5 275.8 418.4 273.4 420.2 275.7 420.7 273.5 423.7 271.3 423.5 272.7 425.6 270.9 430.3 269.9 429.4 267.1 431.2 270.5 431.1 269.1 434.7 271.9 447.0 273.9 449.2 270.4 450.7 265.7 447.7 260.5 447.4 258.7 445.7 255.4 445.0 253.5 443.2 249.9 442.5 249.1 438.2 245.6 433.4 245.3 426.4 243.0 425.1 238.8 418.1 236.3 416.1 235.1 411.9 232.6 407.3 232.2 404.6 228.3 400.7 223.9 395.1 215.6 394.3 213.2 392.8 212.1 394.4 208.8 394.6 205.7 400.7 202.4 404.5 200.6 404.1 195.0 399.8 192.0 398.8 186.8 393.8 185.3 389.9 185.6 386.5 182.5 379.6 178.6 376.8 171.9 368.6 170.1 367.7 168.3 363.8 166.7 362.9 165.3 359.6 206.6 363.6 211.6 303.3 212.0 303.1 244.6 305.1 243.5 331.0 247.0 333.6 251.6 333.6 252.3 336.0 260.2 338.4 264.6 337.6 266.1 341.0 269.2 339.8 272.7 341.9 274.5 340.9 275.6 343.4 277.8 340.3 280.9 340.8 284.4 343.8 288.9 341.2 292.7 340.4 295.4 341.5 296.9 340.2 300.9 343.0 305.3 344.4 M 273.8 426.0 L 271.2 432.1 271.2 435.9 272.5 442.3 270.9 437.2 271.3 430.2 273.8 426.0 Z" vector-effect="non-scaling-stroke" stroke="#606060" stroke-width="1" class=" highcharts-name-texas highcharts-key-us-tx"></path><path fill="rgb(200, 200, 200)" fill-opacity=" 0.2" d="M 537.3 204.1 L 536.6 204.5 536.0 202.2 536.7 202.2 537.3 204.1 M 528.9 199.5 L 532.9 198.3 535.5 201.9 536.3 204.8 534.2 207.0 530.9 208.7 530.7 205.8 528.9 199.5 Z" vector-effect="non-scaling-stroke" stroke="#606060" stroke-width="1" class=" highcharts-name-rhode-island highcharts-key-us-ri"></path><path fill="rgb(200, 200, 200)" fill-opacity=" 0.2" d="M 389.1 382.7 L 386.6 386.1 381.2 386.2 377.6 385.0 375.0 364.8 376.0 323.9 374.9 322.5 374.8 322.4 403.4 319.8 411.2 346.7 415.6 355.3 414.2 357.4 413.6 361.7 415.2 365.5 414.9 369.1 416.5 372.6 386.4 375.9 386.2 377.6 389.1 380.5 389.1 382.7 Z" vector-effect="non-scaling-stroke" stroke="#606060" stroke-width="1" class=" highcharts-name-alabama highcharts-key-us-al"></path><path fill="rgb(200, 200, 200)" fill-opacity=" 0.2" d="M 438.8 329.0 L 446.9 334.6 449.6 338.5 452.6 339.6 454.7 345.0 457.3 346.5 459.6 351.6 461.9 351.9 462.6 352.2 457.9 359.3 459.2 362.8 457.2 364.2 458.2 367.8 457.8 370.7 452.8 370.1 451.5 371.4 452.1 376.3 450.6 376.7 449.5 374.1 418.6 376.2 416.5 372.6 414.9 369.1 415.2 365.5 413.6 361.7 414.2 357.4 415.6 355.3 411.2 346.7 403.4 319.8 411.5 318.9 417.5 318.1 426.7 316.8 430.8 316.1 428.7 320.4 432.5 322.8 434.7 322.9 438.8 329.0 Z" vector-effect="non-scaling-stroke" stroke="#606060" stroke-width="1" class=" highcharts-name-georgia highcharts-key-us-ga"></path><path fill="rgb(200, 200, 200)" fill-opacity=" 0.2" d="M 377.6 385.0 L 372.3 385.1 366.8 387.0 364.7 388.7 360.4 382.3 361.4 377.9 339.0 379.2 338.9 375.5 340.1 375.3 340.1 372.3 342.1 367.4 344.8 365.1 346.6 360.6 344.5 359.2 343.2 351.6 343.9 349.7 343.3 345.3 342.1 342.6 344.0 340.7 343.4 338.3 345.4 337.7 344.8 336.1 348.6 332.2 348.5 329.3 351.4 324.3 370.1 323.0 374.9 322.5 376.0 323.9 375.0 364.8 377.6 385.0 Z" vector-effect="non-scaling-stroke" stroke="#606060" stroke-width="1" class=" highcharts-name-mississippi highcharts-key-us-ms"></path><path fill="rgb(200, 200, 200)" fill-opacity=" 0.2" d="M 446.9 334.6 L 442.9 331.4 438.8 329.0 434.7 322.9 432.5 322.8 428.7 320.4 430.8 316.1 439.5 312.0 452.9 310.6 456.4 312.7 456.9 314.4 469.2 312.7 483.4 322.5 480.0 326.6 478.4 329.9 478.4 333.2 470.6 342.4 467.2 344.7 463.2 345.1 466.2 346.0 461.9 351.9 459.6 351.6 457.3 346.5 454.7 345.0 452.6 339.6 449.6 338.5 446.9 334.6 Z" vector-effect="non-scaling-stroke" stroke="#606060" stroke-width="1" class=" highcharts-name-south-carolina highcharts-key-us-sc"></path><path fill="rgb(200, 200, 200)" fill-opacity=" 0.2" d="M 505.0 281.3 L 505.2 282.0 503.8 281.5 503.8 281.5 504.3 281.4 504.4 281.5 504.6 281.4 504.7 281.3 505.0 281.3 M 505.5 281.2 L 507.0 284.5 512.0 291.2 508.4 287.3 505.3 281.2 505.4 281.2 505.5 281.2 M 460.4 290.4 L 503.7 281.6 507.7 287.1 502.6 285.2 504.5 286.6 497.9 291.2 507.2 288.7 509.1 290.3 509.2 293.8 507.9 293.2 506.7 297.0 504.6 298.0 500.9 296.7 500.9 298.1 496.4 297.7 502.2 299.0 500.7 301.3 502.1 301.6 498.4 304.4 502.9 304.1 503.4 302.0 505.2 304.0 502.6 307.5 497.1 308.8 492.1 314.0 490.8 316.6 490.2 321.7 486.9 321.3 483.4 322.5 469.2 312.7 456.9 314.4 456.4 312.7 452.9 310.6 439.5 312.0 430.8 316.1 426.7 316.8 417.5 318.1 417.7 314.4 419.5 314.1 420.2 311.8 422.6 309.7 425.5 309.1 429.7 305.5 431.2 303.2 434.0 301.2 434.7 302.3 438.5 299.2 439.9 299.8 442.9 295.4 443.4 292.2 448.1 292.0 460.4 290.4 Z" vector-effect="non-scaling-stroke" stroke="#606060" stroke-width="1" class=" highcharts-name-north-carolina highcharts-key-us-nc"></path><path fill="rgb(200, 200, 200)" fill-opacity=" 0.2" d="M 504.6 281.4 L 504.8 281.0 505.0 281.3 504.7 281.3 504.6 281.4 M 505.3 281.2 L 503.9 279.3 504.3 281.4 503.8 281.5 503.8 281.5 503.4 281.1 503.7 281.6 460.4 290.4 448.1 292.0 443.4 292.2 440.3 292.9 421.8 295.5 427.2 292.8 429.7 290.5 431.8 286.5 434.6 284.5 438.2 280.4 440.2 283.5 443.3 284.0 445.2 282.1 446.7 283.0 449.5 281.9 455.9 277.9 455.6 275.5 459.4 266.7 460.3 262.3 464.2 263.9 466.4 257.7 467.6 258.2 471.5 252.3 471.7 248.3 477.5 251.4 478.0 248.7 481.0 249.3 480.8 250.6 485.5 252.6 485.8 252.9 486.1 252.9 486.6 254.7 486.8 255.4 486.2 255.8 485.1 256.5 484.5 260.1 485.8 260.9 487.7 259.5 490.0 262.1 492.9 261.8 494.1 263.3 497.4 264.3 497.5 268.1 490.1 264.8 495.4 268.7 498.8 270.3 496.9 271.7 499.5 276.1 498.2 276.9 495.1 274.0 491.1 274.0 494.7 275.2 497.9 277.9 499.9 276.7 503.0 276.7 505.5 281.2 505.4 281.2 505.3 281.2 M 507.5 260.3 L 507.0 262.2 507.3 260.4 507.5 260.3 M 503.5 262.0 L 503.7 261.6 506.1 260.7 502.8 270.6 503.9 272.6 503.0 274.3 501.6 271.5 501.6 267.9 503.5 262.0 Z" vector-effect="non-scaling-stroke" stroke="#606060" stroke-width="1" class=" highcharts-name-virginia highcharts-key-us-va"></path><path fill="rgb(200, 200, 200)" fill-opacity=" 0.2" d="M 341.7 223.4 L 344.3 226.9 346.7 228.4 346.7 232.5 345.4 235.4 341.9 237.7 339.0 238.1 338.2 241.5 339.6 244.7 337.6 248.7 335.6 249.6 335.1 252.5 335.1 252.5 335.1 252.5 332.0 249.5 318.0 250.6 303.8 251.0 290.6 250.8 290.5 250.8 290.5 250.1 289.5 241.2 287.3 237.9 287.5 234.6 284.7 229.1 284.2 225.1 283.4 224.9 281.8 221.7 283.7 216.7 282.6 215.3 282.3 211.6 283.7 211.6 318.9 211.0 334.9 210.4 336.7 213.3 336.0 214.9 337.5 220.5 340.9 221.5 341.8 223.1 341.7 223.4 341.7 223.4 Z" vector-effect="non-scaling-stroke" stroke="#606060" stroke-width="1" class=" highcharts-name-iowa highcharts-key-us-ia"></path><path fill="rgb(200, 200, 200)" fill-opacity=" 0.2" d="M 507.3 260.4 L 507.7 259.2 507.5 260.3 507.3 260.4 M 508.2 254.2 L 508.2 255.8 508.1 254.2 508.1 254.2 508.2 254.2 M 506.1 260.7 L 503.7 261.6 503.5 262.0 501.4 263.0 501.5 259.9 498.5 259.4 495.0 256.9 497.9 255.0 494.3 253.1 496.0 251.1 494.3 250.5 493.5 247.9 495.3 244.2 495.6 241.2 492.1 246.9 490.2 247.1 492.2 249.0 491.5 251.9 492.8 256.6 494.4 259.1 491.7 257.6 496.0 261.3 496.2 262.6 493.3 261.1 490.2 261.0 487.6 258.4 486.1 260.3 485.1 258.8 486.2 255.8 486.6 254.7 486.8 254.1 487.7 252.7 485.5 252.6 480.8 250.6 481.0 249.3 478.0 248.7 476.2 245.3 473.0 244.6 470.1 246.3 470.0 247.5 466.5 246.8 465.1 249.6 464.0 249.4 460.3 253.8 459.2 247.0 476.9 243.6 496.8 239.3 501.5 255.6 507.8 254.3 507.8 257.3 506.1 260.7 Z" vector-effect="non-scaling-stroke" stroke="#606060" stroke-width="1" class=" highcharts-name-maryland highcharts-key-us-md"></path><path fill="rgb(200, 200, 200)" fill-opacity=" 0.2" d="M 508.1 254.2 L 507.8 254.2 507.8 254.3 501.5 255.6 496.8 239.3 498.3 237.4 500.2 237.4 499.0 240.3 500.1 241.8 500.2 242.0 501.6 243.8 502.8 247.1 505.9 250.0 506.8 249.8 508.2 254.2 508.1 254.2 508.1 254.2 Z" vector-effect="non-scaling-stroke" stroke="#606060" stroke-width="1" class=" highcharts-name-delaware highcharts-key-us-de"></path><path fill="rgb(200, 200, 200)" fill-opacity=" 0.2" d="M 499.7 224.3 L 500.6 222.2 499.5 221.2 502.7 215.3 507.2 216.8 511.7 218.2 511.4 222.1 509.6 225.6 513.2 227.0 513.8 235.2 512.1 237.9 511.9 240.8 509.9 243.4 508.5 247.3 507.7 244.7 505.0 244.8 500.2 242.0 500.1 241.9 500.1 241.8 500.2 237.8 502.9 235.8 503.7 233.7 506.1 231.0 501.3 226.7 499.7 224.3 Z" vector-effect="non-scaling-stroke" stroke="#606060" stroke-width="1" class=" highcharts-name-new-jersey highcharts-key-us-nj"></path><path fill="rgb(200, 200, 200)" fill-opacity=" 0.2" d="M 499.5 221.2 L 499.7 224.3 501.3 226.7 506.1 231.0 503.7 233.7 502.7 235.4 500.2 237.4 498.3 237.4 496.8 239.3 476.9 243.6 459.2 247.0 448.5 248.9 446.4 236.6 446.4 236.6 443.3 218.8 444.7 218.1 450.2 213.8 450.8 217.3 494.5 208.3 497.5 210.0 498.3 212.8 502.7 215.3 502.7 215.3 499.5 221.2 Z" vector-effect="non-scaling-stroke" stroke="#606060" stroke-width="1" class=" highcharts-name-pennsylvania highcharts-key-us-pa"></path><path fill="rgb(200, 200, 200)" fill-opacity=" 0.2" d="M 502.7 215.3 L 498.3 212.8 497.5 210.0 494.5 208.3 450.8 217.3 450.2 213.8 455.4 208.4 457.5 204.4 454.9 201.3 454.6 199.0 458.0 197.3 463.5 195.7 469.3 196.4 474.6 194.9 477.1 193.6 479.4 190.5 481.5 189.3 480.4 185.7 478.2 182.4 479.7 179.9 482.3 178.1 483.2 175.1 486.3 170.5 489.7 167.6 503.9 164.2 505.2 169.9 506.1 171.1 506.2 176.9 507.9 180.7 507.9 182.9 509.7 183.0 512.2 193.6 512.1 202.9 512.4 203.2 514.3 213.3 515.1 214.2 513.2 216.2 514.3 217.4 513.5 219.9 516.1 217.7 524.6 214.9 526.7 212.2 528.9 212.3 531.7 211.8 527.0 216.0 524.0 217.6 521.4 220.1 516.4 222.8 512.3 223.9 509.9 225.4 512.3 221.0 511.6 221.5 511.7 218.2 507.2 216.8 503.9 215.7 502.7 215.3 502.7 215.3 Z" vector-effect="non-scaling-stroke" stroke="#606060" stroke-width="1" class=" highcharts-name-new-york highcharts-key-us-ny"></path><path fill="rgb(200, 200, 200)" fill-opacity=" 0.2" d="M 100.0 115.0 L 108.7 117.0 105.7 130.2 107.8 134.9 107.0 138.4 109.9 141.4 115.2 151.2 117.3 151.2 115.2 156.4 114.8 161.5 113.1 162.7 112.5 165.6 114.3 167.1 118.3 165.0 119.6 166.8 119.6 170.7 121.4 175.2 121.9 178.2 123.3 178.3 124.2 183.2 125.4 184.6 127.3 183.2 130.3 184.2 131.7 183.1 135.8 184.4 138.7 184.2 140.9 182.5 142.8 186.0 139.1 209.0 137.3 219.4 124.3 217.1 107.7 213.9 98.5 212.0 78.4 207.5 83.9 184.0 86.3 179.0 83.8 176.8 84.3 174.4 89.2 169.5 92.2 164.2 94.7 161.5 94.6 159.1 92.7 157.5 92.1 155.1 91.7 149.7 100.0 115.0 Z" vector-effect="non-scaling-stroke" stroke="#606060" stroke-width="1" class=" highcharts-name-idaho highcharts-key-us-id"></path><path fill="rgb(200, 200, 200)" fill-opacity=" 0.2" d="M 208.3 214.8 L 208.8 209.7 210.7 187.9 210.9 187.9 212.0 175.1 271.8 178.4 282.9 178.5 282.1 180.9 279.9 183.1 281.6 185.7 283.8 187.2 283.7 211.6 282.3 211.6 282.6 215.3 283.7 216.7 281.8 221.7 283.4 224.9 281.1 222.7 275.2 219.8 269.9 219.9 267.5 220.8 263.5 218.0 208.3 214.8 Z" vector-effect="non-scaling-stroke" stroke="#606060" stroke-width="1" class=" highcharts-name-south-dakota highcharts-key-us-sd"></path><path fill="rgb(200, 200, 200)" fill-opacity=" 0.2" d="M 530.9 208.7 L 530.3 208.4 524.7 211.2 520.9 212.3 514.3 217.4 513.2 216.2 515.1 214.2 514.3 213.3 512.4 203.2 519.6 201.7 528.9 199.5 530.7 205.8 530.9 208.7 Z" vector-effect="non-scaling-stroke" stroke="#606060" stroke-width="1" class=" highcharts-name-connecticut highcharts-key-us-ct"></path><path fill="rgb(200, 200, 200)" fill-opacity=" 0.2" d="M 535.2 182.7 L 535.6 182.8 535.3 185.5 532.3 187.3 531.3 189.2 520.0 191.8 520.0 191.8 518.6 190.1 518.6 184.2 517.8 181.2 518.7 177.4 518.6 170.5 521.4 167.4 522.1 165.1 520.8 163.4 521.0 159.5 521.6 155.5 523.8 154.6 531.4 177.1 531.9 179.4 535.2 182.7 Z" vector-effect="non-scaling-stroke" stroke="#606060" stroke-width="1" class=" highcharts-name-new-hampshire highcharts-key-us-nh"></path><path fill="rgb(200, 200, 200)" fill-opacity=" 0.2" d="M 358.2 303.5 L 358.1 302.8 358.9 303.5 358.2 303.5 M 359.7 303.4 L 362.5 300.0 362.5 296.7 361.8 295.7 364.5 293.3 369.2 294.9 369.1 290.4 372.7 289.2 372.0 287.0 373.1 284.7 374.6 282.9 377.8 283.6 379.5 282.2 382.4 283.3 385.9 280.9 386.8 282.1 391.4 278.4 394.1 280.4 396.1 275.9 399.8 272.0 399.2 269.6 402.1 269.7 405.8 267.9 405.2 263.8 409.1 263.2 412.3 266.8 415.8 267.0 417.6 268.4 419.3 267.2 421.9 268.3 426.0 265.8 427.0 267.8 429.8 269.7 429.8 269.7 429.8 269.7 429.9 273.3 434.4 278.9 438.2 280.4 434.6 284.5 431.8 286.5 429.7 290.5 427.2 292.8 421.8 295.5 421.2 295.9 390.6 298.6 376.8 300.1 374.2 299.7 374.7 302.2 359.7 303.4 M 429.8 269.7 L 429.8 269.7 429.8 269.7 429.8 269.7 429.8 269.7 429.8 269.7 Z" vector-effect="non-scaling-stroke" stroke="#606060" stroke-width="1" class=" highcharts-name-kentucky highcharts-key-us-ky"></path><path fill="rgb(200, 200, 200)" fill-opacity=" 0.2" d="M 401.1 229.0 L 406.1 228.2 414.5 226.7 420.7 228.6 420.0 229.3 424.7 229.9 429.2 227.6 432.9 226.9 435.7 223.6 443.3 218.8 446.4 236.6 444.9 237.7 446.3 241.6 444.8 248.8 445.1 250.8 441.9 254.4 439.4 254.8 436.5 259.7 436.1 262.5 434.2 261.1 433.1 264.2 433.7 266.5 432.4 269.0 429.8 269.7 429.8 269.7 427.0 267.8 426.0 265.8 421.9 268.3 419.3 267.2 417.6 268.4 415.8 267.0 412.3 266.8 409.1 263.2 405.2 263.8 401.8 234.4 401.1 229.0 Z" vector-effect="non-scaling-stroke" stroke="#606060" stroke-width="1" class=" highcharts-name-ohio highcharts-key-us-oh"></path><path fill="rgb(200, 200, 200)" fill-opacity=" 0.2" d="M 356.9 310.4 L 357.0 307.1 358.2 303.5 358.9 303.5 359.1 304.1 359.7 303.4 374.7 302.2 374.2 299.7 376.8 300.1 390.6 298.6 421.2 295.9 421.8 295.5 440.3 292.9 443.4 292.2 442.9 295.4 439.9 299.8 438.5 299.2 434.7 302.3 434.0 301.2 431.2 303.2 429.7 305.5 425.5 309.1 422.6 309.7 420.2 311.8 419.5 314.1 417.7 314.4 417.5 318.1 411.5 318.9 403.4 319.8 374.8 322.4 374.9 322.5 370.1 323.0 351.4 324.3 353.5 322.4 353.3 318.9 355.2 316.6 354.8 314.1 357.1 312.6 356.9 310.4 Z" vector-effect="non-scaling-stroke" stroke="#606060" stroke-width="1" class=" highcharts-name-tennessee highcharts-key-us-tn"></path><path fill="rgb(200, 200, 200)" fill-opacity=" 0.2" d="M 429.8 269.7 L 429.8 269.7 432.4 269.0 433.7 266.5 433.1 264.2 434.2 261.1 436.1 262.5 436.5 259.7 439.4 254.8 441.9 254.4 445.1 250.8 444.8 248.8 446.3 241.6 444.9 237.7 446.4 236.6 448.5 248.9 459.2 247.0 460.3 253.8 464.0 249.4 465.1 249.6 466.5 246.8 470.0 247.5 470.1 246.3 473.0 244.6 476.2 245.3 478.0 248.7 477.5 251.4 471.7 248.3 471.5 252.3 467.6 258.2 466.4 257.7 464.2 263.9 460.3 262.3 459.4 266.7 455.6 275.5 455.9 277.9 449.5 281.9 446.7 283.0 445.2 282.1 443.3 284.0 440.2 283.5 438.2 280.4 434.4 278.9 429.9 273.3 429.8 269.7 429.8 269.7 429.8 269.7 429.8 269.7 429.8 269.7 Z" vector-effect="non-scaling-stroke" stroke="#606060" stroke-width="1" class=" highcharts-name-west-virginia highcharts-key-us-wv"></path><path fill="rgb(200, 200, 200)" fill-opacity=" 0.2" d="M 486.8 254.1 L 486.8 253.5 486.1 252.9 485.8 252.9 485.5 252.6 487.7 252.7 486.8 254.1 Z" vector-effect="non-scaling-stroke" stroke="#606060" stroke-width="1" class=" highcharts-name-district-of columbia highcharts-key-us-dc"></path><path fill="rgb(200, 200, 200)" fill-opacity=" 0.2" d="M 364.7 388.7 L 359.4 388.0 356.3 386.6 354.0 390.0 358.8 391.2 360.5 389.4 363.4 389.4 361.5 392.3 363.8 393.0 365.6 390.2 367.3 392.3 362.8 396.3 365.2 399.3 369.3 399.8 371.5 401.5 370.3 403.9 367.4 403.5 366.0 401.7 362.0 400.8 362.7 399.7 358.7 398.4 359.2 402.4 357.3 404.3 356.5 402.3 353.9 401.5 352.3 403.8 349.4 404.1 344.0 402.2 344.6 399.4 341.4 399.1 339.4 396.2 337.5 395.2 334.1 396.6 334.5 398.2 339.1 398.5 337.8 399.9 334.2 398.6 332.5 399.4 327.6 398.7 321.5 396.6 314.0 397.8 314.2 393.9 315.2 392.6 314.9 386.0 317.2 379.4 313.4 372.1 313.5 370.4 310.7 366.6 310.5 352.9 341.1 351.8 343.2 351.6 344.5 359.2 346.6 360.6 344.8 365.1 342.1 367.4 340.1 372.3 340.1 375.3 338.9 375.5 339.0 379.2 361.4 377.9 360.4 382.3 364.7 388.7 Z" vector-effect="non-scaling-stroke" stroke="#606060" stroke-width="1" class=" highcharts-name-louisiana highcharts-key-us-la"></path><path fill="rgb(200, 200, 200)" fill-opacity=" 0.2" d="M 389.1 382.7 L 389.1 380.5 386.2 377.6 386.4 375.9 416.5 372.6 418.6 376.2 449.5 374.1 450.6 376.7 452.1 376.3 451.5 371.4 452.8 370.1 457.8 370.7 458.5 370.8 459.9 376.1 462.9 383.4 468.1 391.7 474.2 399.0 473.6 400.1 475.2 405.1 478.0 409.0 483.2 418.3 484.4 423.9 484.9 433.0 483.4 438.9 484.0 443.5 475.1 445.5 471.4 438.0 466.6 435.4 465.3 435.9 462.9 429.5 459.7 429.8 459.4 423.7 456.2 424.4 450.8 417.2 453.3 411.7 452.8 410.1 450.6 411.0 450.6 413.5 448.1 412.4 447.9 407.5 448.8 403.4 448.3 397.6 445.7 393.8 443.0 394.2 437.8 390.0 433.9 385.2 429.5 383.2 425.4 384.8 423.4 388.3 419.2 391.3 414.7 391.0 415.0 389.3 410.1 385.4 405.3 383.4 399.8 382.6 388.1 385.6 389.1 382.7 Z" vector-effect="non-scaling-stroke" stroke="#606060" stroke-width="1" class=" highcharts-name-florida highcharts-key-us-fl"></path><path fill="rgb(200, 200, 200)" fill-opacity=" 0.2" d="M 277.1 136.8 L 295.6 136.8 295.7 131.7 298.7 132.7 299.8 139.3 304.2 141.4 307.4 141.5 308.6 143.1 313.0 141.4 318.6 142.5 321.2 146.6 324.3 145.1 327.6 148.2 330.0 148.9 334.6 146.0 335.9 147.7 341.4 147.2 343.3 148.5 346.5 148.4 342.6 151.3 338.5 152.9 334.2 156.1 329.9 161.4 324.5 166.4 322.9 168.0 323.2 175.9 319.4 178.3 317.8 181.1 317.9 183.0 320.0 184.6 319.3 186.7 318.9 194.1 321.2 196.0 326.0 198.1 330.5 202.8 334.2 204.8 334.9 210.4 318.9 211.0 283.7 211.6 283.8 187.2 281.6 185.7 279.9 183.1 282.1 180.9 282.9 178.5 282.5 173.3 280.7 168.9 280.3 157.4 277.8 148.0 277.6 143.1 278.2 141.5 277.1 136.8 Z" vector-effect="non-scaling-stroke" stroke="#606060" stroke-width="1" class=" highcharts-name-minnesota highcharts-key-us-mn"></path><path fill="rgb(200, 200, 200)" fill-opacity=" 0.2" d="M 108.7 117.0 L 139.7 123.3 215.6 133.6 212.2 172.5 212.0 175.1 210.9 187.9 210.7 187.9 144.0 179.3 142.8 186.0 140.9 182.5 138.7 184.2 135.8 184.4 131.7 183.1 130.3 184.2 127.3 183.2 125.4 184.6 124.2 183.2 123.3 178.3 121.9 178.2 121.4 175.2 119.6 170.7 119.6 166.8 118.3 165.0 114.3 167.1 112.5 165.6 113.1 162.7 114.8 161.5 115.2 156.4 117.3 151.2 115.2 151.2 109.9 141.4 107.0 138.4 107.8 134.9 105.7 130.2 108.7 117.0 Z" vector-effect="non-scaling-stroke" stroke="#606060" stroke-width="1" class=" highcharts-name-montana highcharts-key-us-mt"></path><path fill="rgb(200, 200, 200)" fill-opacity=" 0.2" d="M 212.0 175.1 L 212.2 172.5 215.6 133.6 232.2 134.9 277.1 136.8 278.2 141.5 277.6 143.1 277.8 148.0 280.3 157.4 280.7 168.9 282.5 173.3 282.9 178.5 271.8 178.4 212.0 175.1 Z" vector-effect="non-scaling-stroke" stroke="#606060" stroke-width="1" class=" highcharts-name-north-dakota highcharts-key-us-nd"></path><path fill="rgb(200, 200, 200)" fill-opacity=" 0.2" d="M 147.6 289.2 L 129.2 286.3 94.4 279.9 100.2 251.1 107.7 213.9 124.3 217.1 137.3 219.4 135.1 232.7 155.3 235.8 154.1 244.2 147.6 289.2 Z" vector-effect="non-scaling-stroke" stroke="#606060" stroke-width="1" class=" highcharts-name-utah highcharts-key-us-ut"></path><path fill="rgb(200, 200, 200)" fill-opacity=" 0.2" d="M 201.1 460.5 L 201.3 460.7 201.6 460.6 202.0 460.6 203.1 461.0 204.0 461.5 205.7 462.6 206.3 463.1 206.6 463.5 206.6 464.5 206.6 465.0 206.9 465.0 207.3 464.8 207.6 465.0 207.7 465.2 207.7 465.7 207.8 466.0 208.0 466.2 208.5 466.7 209.1 466.9 209.3 467.1 209.4 467.4 209.4 467.7 208.8 468.4 208.3 468.6 207.7 469.2 207.2 469.3 207.2 469.5 206.9 469.6 206.5 469.8 205.4 470.1 205.0 470.0 204.7 470.0 204.5 470.1 203.9 470.5 203.7 470.7 203.3 470.8 203.0 471.1 202.4 471.4 202.3 471.5 201.8 471.9 201.7 472.1 201.8 472.5 201.2 473.0 201.1 473.5 200.9 473.6 200.5 474.0 200.4 474.0 200.4 473.7 200.2 473.5 199.8 473.3 199.0 472.8 198.4 472.7 198.2 472.3 198.1 472.2 198.0 471.9 197.9 471.5 198.0 470.9 198.3 469.3 198.2 469.0 198.1 468.8 197.7 467.7 197.5 467.4 197.5 467.1 197.4 466.9 197.2 466.3 197.1 466.1 196.9 465.9 196.7 465.7 196.4 465.0 196.6 464.4 197.2 464.0 197.2 463.8 197.4 463.6 197.8 463.5 198.1 463.0 198.4 462.6 198.6 462.3 198.7 462.3 198.9 461.8 198.8 461.6 198.6 461.4 198.3 460.9 198.1 460.4 198.1 459.7 198.3 459.3 198.4 459.2 198.8 459.2 199.8 459.4 199.9 459.6 200.0 459.9 200.4 460.0 200.7 460.2 200.9 460.4 201.1 460.5 M 191.5 456.2 L 191.4 456.4 191.1 456.4 190.8 456.4 190.3 456.5 190.0 456.5 189.7 456.3 189.9 456.2 190.1 456.0 190.7 455.6 191.0 455.5 191.2 455.5 191.4 455.8 191.3 456.1 191.5 456.2 M 187.5 454.0 L 187.0 454.1 186.8 453.8 186.8 453.5 186.7 453.0 186.7 452.8 186.5 452.7 186.1 452.5 186.0 452.3 186.0 452.1 186.3 452.0 186.7 451.9 187.7 452.1 188.2 452.5 188.5 452.9 188.7 453.2 188.6 453.4 188.4 453.7 187.9 453.9 187.5 454.0 M 190.9 450.8 L 191.0 450.9 191.4 451.1 191.4 451.2 191.5 451.3 191.6 451.5 191.7 451.7 192.0 452.2 192.2 452.2 192.3 452.0 192.5 452.0 193.1 452.0 193.4 451.7 193.6 451.7 193.9 451.6 194.5 451.8 194.6 451.9 194.7 452.0 194.9 452.3 195.3 452.5 195.3 452.6 195.5 452.6 195.6 452.7 195.8 452.9 196.1 453.0 196.5 453.1 197.0 453.3 197.2 453.8 197.2 454.2 197.0 454.5 196.7 454.6 196.5 454.9 196.2 454.9 195.7 455.2 195.1 455.2 194.9 455.2 194.4 455.4 193.9 455.7 193.3 455.6 193.2 455.6 192.8 455.6 192.5 455.4 192.3 455.1 192.4 455.0 192.4 454.8 192.3 454.1 192.2 453.9 192.2 453.7 192.2 453.5 192.0 453.3 191.6 453.4 191.6 453.6 191.5 453.6 191.2 453.4 190.9 453.4 190.7 453.2 190.6 453.2 190.2 452.8 189.9 452.4 189.9 452.2 189.8 452.1 189.9 451.5 190.0 451.3 190.1 451.1 190.2 451.1 190.4 450.8 190.6 450.9 190.8 450.8 190.9 450.8 M 184.0 448.7 L 184.4 448.7 184.6 448.8 184.7 448.9 184.8 448.9 186.3 449.1 186.7 449.1 186.9 448.8 187.0 448.8 187.1 449.0 187.2 449.2 187.7 449.3 188.2 449.3 188.4 449.3 188.7 449.2 189.0 449.2 189.2 449.3 189.3 449.2 189.4 449.4 189.7 449.4 189.5 449.8 189.2 450.1 188.8 450.3 188.4 450.5 188.0 450.6 187.6 450.5 187.2 450.4 186.4 450.2 185.9 450.0 184.7 450.1 184.3 450.2 183.8 450.2 183.6 450.1 183.5 449.9 183.5 449.7 183.7 449.4 183.8 449.4 184.0 449.2 184.1 449.0 183.9 448.7 184.0 448.7 M 177.4 444.6 L 177.4 444.8 177.5 444.8 177.6 445.0 177.8 445.1 178.0 445.3 178.0 445.5 177.8 445.6 177.9 446.1 178.1 446.2 178.3 446.4 178.5 446.5 178.6 446.6 178.7 446.4 178.6 446.3 178.6 446.2 178.7 446.1 179.0 446.2 179.1 446.1 179.1 446.2 179.0 446.4 179.0 446.7 179.1 446.8 179.3 447.0 179.3 447.2 179.4 447.5 179.8 447.7 179.9 447.8 179.4 448.3 179.3 448.3 179.3 448.1 179.2 448.1 178.7 448.1 178.4 448.3 178.1 448.3 178.0 448.1 177.5 447.9 177.3 447.6 177.3 447.5 177.1 447.7 177.2 447.8 176.8 447.8 176.9 447.7 176.8 447.7 176.6 447.7 176.6 447.3 176.9 447.2 177.0 447.1 176.7 446.9 176.6 447.1 176.3 446.9 176.4 447.2 176.4 447.2 176.0 446.9 176.1 447.1 176.5 447.5 176.5 447.6 176.3 447.7 175.3 447.9 175.1 447.8 175.0 447.4 174.9 447.1 174.6 446.8 174.4 446.7 174.4 446.4 174.3 446.3 174.0 446.0 173.9 445.8 173.9 445.3 173.8 445.2 173.4 444.8 173.8 444.7 174.3 444.7 175.0 444.7 175.1 444.5 175.3 444.4 175.6 444.2 175.6 444.1 175.7 443.8 176.1 443.5 176.5 443.4 176.7 443.4 177.0 443.7 177.1 444.1 177.1 444.3 177.4 444.6 M 153.5 442.4 L 153.4 442.4 153.2 442.3 153.0 441.9 153.1 441.6 153.2 441.4 153.6 441.0 153.9 440.7 154.3 440.5 154.5 440.2 154.4 440.0 154.6 440.0 154.8 440.0 155.0 440.0 155.1 440.2 154.9 440.5 154.8 440.7 154.9 441.0 154.7 441.2 154.4 441.4 154.2 441.4 153.8 441.7 153.7 441.8 153.5 442.4 M 162.0 437.6 L 162.1 437.7 162.3 437.7 162.5 437.8 162.6 438.0 162.8 438.1 162.9 438.5 162.9 438.5 162.9 439.0 162.8 439.1 162.7 439.5 162.5 439.6 162.5 439.9 162.5 440.3 162.5 440.6 162.2 440.6 162.4 440.8 162.2 440.9 162.0 441.0 161.9 441.1 161.5 441.4 161.4 441.5 161.0 441.4 160.5 441.4 159.9 441.3 159.8 441.2 159.7 441.3 159.6 441.2 159.4 441.0 159.2 440.7 159.1 440.7 159.0 440.6 158.8 440.5 158.5 440.4 158.1 440.3 158.0 440.0 157.8 439.9 157.8 439.4 157.9 439.3 158.4 438.8 158.4 438.6 158.6 438.4 159.1 438.2 159.4 438.1 159.6 437.9 159.8 437.8 159.9 437.7 160.3 437.6 160.4 437.7 160.8 437.8 160.8 437.7 161.0 437.6 161.4 437.6 161.6 437.7 161.8 437.6 162.0 437.6 Z" vector-effect="non-scaling-stroke" stroke="#606060" stroke-width="1" class=" highcharts-name-hawaii highcharts-key-us-hi"></path><path fill="rgb(200, 200, 200)" fill-opacity=" 0.2" d="M 68.6 391.4 L 68.6 391.2 69.5 390.5 70.6 391.0 72.3 391.1 73.9 390.3 74.9 389.2 76.7 390.3 76.6 390.9 75.7 391.2 75.8 392.0 76.4 392.0 77.4 390.7 78.2 391.6 78.0 392.4 78.9 392.8 79.3 392.3 80.4 392.4 82.1 393.2 81.2 394.4 82.8 394.7 82.2 395.2 83.6 395.4 85.9 395.3 87.4 395.6 88.5 396.7 88.9 396.5 89.5 397.1 90.7 397.6 92.8 397.7 93.9 398.6 95.1 398.8 96.1 398.2 97.5 398.1 98.7 398.6 99.3 399.5 100.2 399.6 100.9 400.5 101.6 400.5 103.3 449.4 104.5 449.9 104.8 449.5 105.9 450.0 106.8 449.2 108.2 449.1 108.1 450.5 109.4 451.4 109.7 452.1 112.5 454.6 113.2 456.2 114.7 454.8 115.3 454.8 115.8 452.4 117.9 451.1 119.3 452.3 119.2 453.0 121.3 454.6 121.9 455.7 122.9 456.1 124.5 457.6 128.7 463.4 128.4 464.0 129.4 464.2 129.3 465.1 130.1 465.3 130.4 466.4 131.0 466.2 135.7 468.0 136.2 469.0 135.9 469.9 136.9 472.2 136.2 474.3 135.4 475.2 134.6 475.2 133.9 473.2 134.3 472.4 133.9 470.4 132.7 469.2 132.0 469.2 131.2 470.0 130.9 472.1 129.8 470.9 130.4 470.5 130.5 468.3 128.4 466.6 128.2 465.8 125.9 463.9 125.0 464.0 125.4 462.7 124.5 462.0 124.4 460.1 124.1 460.9 122.9 459.6 122.8 457.8 122.3 458.9 122.0 458.8 122.3 459.1 121.2 458.9 121.1 458.5 121.7 458.6 120.7 458.2 118.6 453.8 118.7 455.6 120.0 458.5 119.8 459.2 118.8 458.5 117.6 458.6 117.7 457.8 116.8 456.1 116.6 456.8 114.2 455.3 114.4 456.2 115.5 456.3 117.1 458.0 117.1 458.9 115.8 458.9 115.6 459.6 114.9 458.8 114.3 458.8 112.6 457.8 110.8 455.6 108.3 454.5 106.5 453.4 107.4 452.4 107.0 451.5 105.2 452.6 104.4 452.6 102.2 451.8 102.7 451.0 101.4 451.4 98.6 450.6 95.6 451.2 94.8 450.4 93.0 449.5 93.6 447.6 92.8 448.4 92.6 449.5 91.4 448.7 90.4 448.7 91.3 447.5 89.7 447.6 88.6 447.0 89.1 446.7 88.5 445.9 87.2 446.2 86.1 445.8 85.5 446.5 84.9 446.2 86.1 444.1 85.1 445.4 85.0 444.9 84.1 447.4 84.7 446.6 85.3 448.1 85.0 449.2 84.5 449.0 84.5 450.5 84.2 449.8 83.8 450.8 82.7 450.9 81.8 450.4 80.6 450.9 80.2 452.1 79.8 451.8 78.3 453.1 79.0 451.7 77.5 453.6 76.7 454.0 75.5 453.7 74.4 454.1 74.0 453.2 75.5 452.6 77.0 451.2 75.6 451.7 74.6 450.8 76.0 448.9 76.7 447.1 76.5 446.1 77.4 445.8 79.1 444.8 80.1 445.5 80.7 445.2 82.4 445.8 80.2 444.2 80.4 443.8 79.3 443.6 79.1 442.9 77.4 444.4 76.3 444.6 73.9 447.0 74.1 447.5 73.0 448.2 73.1 448.9 71.5 450.8 69.7 450.9 69.5 451.8 68.4 452.0 67.9 453.8 69.2 453.8 70.2 455.2 67.7 456.7 67.9 457.3 66.8 457.8 66.0 458.9 64.7 458.7 63.4 460.0 62.9 459.6 62.3 460.8 61.5 460.5 59.8 461.6 60.4 461.7 59.5 463.3 58.8 462.8 57.4 464.0 56.9 463.4 56.5 464.5 55.7 464.1 53.1 465.4 54.0 465.9 52.2 467.2 50.2 467.4 49.6 467.7 48.7 467.0 45.7 468.4 45.1 467.9 43.8 468.5 43.2 468.1 43.8 467.3 43.2 466.9 41.5 469.1 40.3 469.6 39.9 467.7 38.8 469.4 38.3 468.4 37.9 469.2 37.0 469.6 37.4 468.1 38.9 467.5 40.3 467.4 40.3 466.9 43.0 465.3 45.9 465.5 46.0 466.1 47.5 466.8 46.7 465.8 47.7 464.5 49.9 463.3 52.5 462.5 53.3 463.1 53.5 461.8 54.8 460.5 56.9 459.6 57.7 456.8 58.3 456.3 58.4 455.0 59.9 454.0 60.0 453.1 56.8 453.9 56.0 452.6 56.6 451.3 55.0 452.6 55.1 454.0 54.2 454.3 53.3 451.4 52.3 451.9 51.6 451.3 51.5 450.1 50.0 450.8 48.7 450.8 48.3 451.5 46.1 450.9 47.5 450.7 47.6 449.3 47.4 447.8 48.6 446.9 47.9 443.3 48.1 441.8 47.3 443.7 45.6 444.0 44.1 443.8 42.9 443.2 43.2 442.4 42.6 441.7 42.3 440.4 41.6 439.9 40.9 438.5 43.3 437.8 44.1 438.3 44.3 439.0 44.9 438.6 45.4 439.8 46.2 439.1 45.1 438.2 43.5 437.7 43.5 437.3 42.3 436.9 42.9 436.5 42.2 435.2 42.0 435.9 41.2 433.8 41.8 433.3 40.9 432.5 42.1 432.5 41.6 431.5 42.8 431.8 43.0 430.4 45.1 428.9 45.7 429.0 46.3 427.4 47.5 426.2 48.7 425.9 49.5 426.4 50.1 427.7 50.7 427.8 52.2 427.0 53.3 426.0 52.7 425.6 53.2 425.3 53.9 426.4 53.5 426.5 55.8 426.8 57.1 425.8 57.4 423.2 56.7 421.9 58.4 421.3 58.4 420.4 58.0 419.5 57.2 420.2 55.7 420.0 54.2 420.7 52.9 420.8 52.3 419.8 50.4 419.1 48.8 419.2 46.6 417.6 46.3 416.7 46.8 415.9 46.1 414.2 46.9 414.6 48.1 414.2 45.7 412.6 44.7 411.1 45.4 410.4 46.9 410.2 47.4 410.5 48.3 409.8 51.8 409.1 53.8 409.0 55.4 409.4 54.3 411.3 54.6 412.1 56.5 412.6 57.6 413.1 58.1 413.8 59.2 412.6 60.3 413.0 59.5 411.9 58.5 412.0 58.9 411.3 58.1 408.7 58.7 408.6 59.1 409.7 58.8 410.2 59.4 411.6 60.4 411.4 61.0 412.5 62.1 412.6 62.3 412.0 61.2 410.9 59.8 411.2 59.3 410.1 59.9 408.9 59.9 408.4 58.6 408.3 56.4 407.0 56.5 405.7 56.4 404.1 54.7 400.9 54.0 400.2 53.3 398.7 54.2 397.9 54.8 396.4 55.8 396.8 58.3 397.4 60.0 396.9 61.3 395.8 61.7 394.5 62.3 393.6 63.5 392.6 63.8 392.9 65.0 391.8 65.2 392.3 66.8 392.3 68.4 391.3 68.6 391.4 M 68.6 391.4 L 68.7 391.6 68.7 391.6 68.7 391.6 68.0 392.8 68.8 392.0 68.7 391.6 68.7 391.6 68.7 391.6 68.7 391.5 68.6 391.4 M 4.8 472.2 L 4.0 472.0 4.9 471.6 5.2 472.0 4.8 472.2 M 13.5 472.5 L 14.2 472.7 14.0 473.2 13.7 472.8 13.5 472.5 M 18.4 473.7 L 18.0 473.3 16.3 473.7 18.5 472.0 18.9 472.4 19.5 471.3 20.8 471.2 21.0 472.3 19.3 472.6 18.4 473.7 M 29.1 470.8 L 28.1 471.1 27.5 470.4 28.1 470.1 29.1 470.8 M 37.9 472.2 L 38.0 471.6 38.6 472.0 38.8 472.5 37.9 472.2 M 36.1 467.9 L 36.6 468.1 36.8 469.8 35.8 470.3 34.3 469.8 33.2 470.5 31.9 470.1 31.8 469.2 32.7 469.0 33.5 468.1 34.5 468.3 36.1 467.9 M 48.8 471.4 L 48.9 471.6 48.2 471.2 48.7 470.9 48.8 471.4 M 129.1 475.8 L 128.9 476.7 127.5 474.8 127.7 473.9 128.4 475.4 129.1 475.8 M 133.4 474.0 L 133.3 475.1 132.3 474.4 132.3 473.0 133.4 474.0 M 47.7 470.2 L 47.6 470.9 46.3 471.5 47.3 470.7 47.7 470.2 M 46.7 469.0 L 46.5 469.8 46.0 469.1 45.7 470.2 44.9 470.1 45.1 468.9 46.7 469.0 M 131.4 472.5 L 132.0 473.0 131.8 473.8 131.3 472.7 131.4 472.5 M 126.1 472.9 L 126.2 473.0 126.7 472.7 126.2 474.2 126.1 472.9 M 126.7 471.1 L 126.2 471.7 125.7 471.5 125.7 471.1 126.7 471.1 M 132.7 469.4 L 133.6 470.5 133.9 472.2 133.4 473.3 131.4 472.2 131.8 471.7 131.5 470.2 132.7 469.4 M 125.1 470.9 L 125.4 469.9 126.5 469.3 126.6 470.0 125.1 470.9 M 128.8 468.7 L 130.0 469.0 129.5 470.1 128.2 469.2 128.6 467.9 128.8 468.7 M 128.1 467.5 L 128.2 468.4 127.0 468.2 127.3 467.6 128.1 467.5 M 129.6 467.7 L 130.4 468.5 130.1 468.9 129.1 468.3 128.9 467.1 129.6 467.7 M 65.0 466.3 L 64.9 466.7 64.1 467.3 64.3 466.6 65.0 466.3 M 66.2 466.8 L 66.4 467.1 65.3 466.8 65.6 466.4 66.2 466.8 M 127.1 465.8 L 128.3 466.6 127.7 467.3 127.2 467.3 127.1 465.8 M 69.2 463.9 L 69.8 464.0 68.6 464.8 68.5 464.4 69.2 463.9 M 119.2 464.5 L 119.2 465.7 118.6 465.9 118.8 464.9 119.2 464.5 M 116.6 460.7 L 116.4 461.5 116.0 460.7 116.2 460.2 116.6 460.7 M 69.8 459.1 L 70.6 459.8 70.2 459.7 69.2 459.2 69.8 459.1 M 71.1 458.3 L 71.6 457.3 72.3 458.1 73.0 458.0 73.3 458.8 72.9 459.3 70.9 459.8 69.9 459.1 70.2 458.2 71.1 458.3 M 72.1 457.4 L 71.6 457.0 72.5 456.6 72.5 457.1 72.1 457.4 M 49.7 451.9 L 48.9 452.2 49.1 451.5 50.3 451.2 49.7 451.9 M 85.3 450.4 L 85.2 450.8 84.5 451.0 85.1 449.9 85.3 450.4 M 87.4 449.0 L 87.9 449.3 86.3 451.2 85.1 451.8 85.7 450.8 87.1 449.6 87.4 449.0 M 38.9 438.7 L 39.8 439.5 39.2 440.7 39.5 441.5 37.7 441.5 36.6 440.9 35.5 439.5 35.2 438.4 36.6 438.9 37.0 438.5 38.9 438.7 M 88.9 448.5 L 89.9 448.7 88.7 449.7 89.0 449.1 88.9 448.5 M 85.9 448.1 L 86.1 448.5 85.7 449.4 85.5 448.8 85.9 448.1 M 23.1 431.9 L 22.9 432.2 22.3 430.9 22.5 430.5 23.1 431.9 M 90.1 448.5 L 89.6 448.6 89.6 448.3 91.0 448.0 90.1 448.5 M 27.0 471.2 L 25.4 472.0 27.1 471.9 26.3 472.5 22.0 473.1 20.8 472.7 23.2 472.6 24.5 470.3 25.8 470.6 25.5 471.4 26.6 470.7 27.0 471.2 M 127.4 473.9 L 127.8 471.8 126.6 472.0 126.9 470.6 126.5 469.2 125.6 469.2 125.4 468.4 126.7 468.3 127.2 469.7 128.2 469.9 130.7 473.3 131.5 475.8 131.0 476.4 129.6 474.4 128.6 474.9 128.6 473.7 127.4 473.9 M 119.0 463.8 L 119.6 462.8 121.0 463.8 122.3 466.8 122.5 469.7 120.7 467.3 120.8 466.4 120.0 466.5 120.5 465.4 119.9 465.2 119.9 464.4 119.0 463.8 M 70.7 460.0 L 70.3 460.9 71.7 460.1 71.9 461.0 71.6 462.0 72.4 462.0 71.7 462.9 70.0 462.2 70.9 463.0 70.7 463.5 69.4 463.2 67.6 464.6 66.3 466.1 66.2 465.5 67.4 463.8 66.5 463.8 66.0 464.9 65.2 464.3 65.3 463.3 64.7 462.7 65.0 461.9 66.6 460.9 67.2 461.2 67.4 462.4 67.8 461.1 67.6 460.3 68.4 460.0 68.6 461.0 69.0 459.6 70.0 460.5 69.6 459.5 70.7 460.0 M 118.3 461.9 L 119.1 463.4 118.3 463.7 117.9 462.6 116.5 461.6 116.7 460.8 117.9 459.2 120.5 460.1 120.7 461.3 119.4 461.4 119.9 461.9 120.8 461.5 121.2 463.0 120.5 463.1 118.3 461.9 M 122.3 463.7 L 121.6 462.3 120.8 459.7 120.2 458.3 121.1 459.3 122.5 459.4 123.6 461.0 123.4 461.5 122.4 459.7 122.6 460.9 123.6 461.9 123.8 463.5 122.1 465.3 121.9 464.2 122.3 463.7 M 33.8 417.8 L 34.3 418.2 35.1 418.0 35.9 418.3 35.9 419.5 36.8 420.6 38.6 421.7 38.1 422.3 37.0 421.7 35.5 422.4 35.6 421.4 34.4 419.3 33.5 418.7 32.6 418.9 32.1 418.4 32.2 417.5 33.1 416.3 33.1 417.4 33.8 417.8 M 124.8 466.3 L 124.3 468.5 124.7 469.2 123.9 470.1 123.5 468.6 124.1 467.9 123.3 467.5 122.8 466.1 123.6 465.9 124.4 466.6 124.8 466.3 124.7 466.1 123.8 464.8 124.4 464.7 126.8 465.1 127.0 466.8 125.8 465.8 126.8 467.2 126.7 467.6 125.2 467.8 124.8 466.3 Z" vector-effect="non-scaling-stroke" stroke="#606060" stroke-width="1" class=" highcharts-name-alaska highcharts-key-us-ak"></path></g></g><g class="highcharts-markers highcharts-tracker" visibility="visible"  transform="translate(10,47) scale(1 1)" style="" clip-path="none"></g><g class="highcharts-series" visibility="visible"  transform="translate(10,47) scale(1 1)" clip-path="url(#highcharts-2)"><g transform="translate(0,0) scale(1 1)"><path fill="none" d="M 15.1 344.0 L 241.7 460.3 M 142.7 479.3 L 142.7 416.2" vector-effect="non-scaling-stroke" stroke="#101010" stroke-width="1"></path></g></g><g class="highcharts-markers" visibility="visible"  transform="translate(10,47) scale(1 1)" clip-path="none"></g><g class="highcharts-series highcharts-tracker" visibility="visible"  transform="translate(10,47) scale(1 1)" style="" clip-path="url(#highcharts-2)"><circle cx="399.5" cy="355.7" r="15.5" stroke="#7cb5ec" stroke-width="1" fill="rgb(124,181,236)" fill-opacity="0.5"></circle><circle cx="121.8" cy="458.5" r="8" stroke="#7cb5ec" stroke-width="1" fill="rgb(124,181,236)" fill-opacity="0.5"></circle><circle cx="106.8" cy="331.1" r="34" stroke="#7cb5ec" stroke-width="1" fill="rgb(124,181,236)" fill-opacity="0.5"></circle><circle cx="329.7" cy="328.8" r="15" stroke="#7cb5ec" stroke-width="1" fill="rgb(124,181,236)" fill-opacity="0.5"></circle><circle cx="22.0" cy="240.4" r="21" stroke="#7cb5ec" stroke-width="1" fill="rgb(124,181,236)" fill-opacity="0.5"></circle><circle cx="194.7" cy="257.7" r="23.5" stroke="#7cb5ec" stroke-width="1" fill="rgb(124,181,236)" fill-opacity="0.5"></circle><circle cx="521.3" cy="205.0" r="13" stroke="#7cb5ec" stroke-width="1" fill="rgb(124,181,236)" fill-opacity="0.5"></circle><circle cx="501.2" cy="246.1" r="8.5" stroke="#7cb5ec" stroke-width="1" fill="rgb(124,181,236)" fill-opacity="0.5"></circle><circle cx="425.9" cy="379.1" r="14.5" stroke="#7cb5ec" stroke-width="1" fill="rgb(124,181,236)" fill-opacity="0.5"></circle><circle cx="418.9" cy="334.8" r="20" stroke="#7cb5ec" stroke-width="1" fill="rgb(124,181,236)" fill-opacity="0.5"></circle><circle cx="177.7" cy="447.8" r="18.5" stroke="#7cb5ec" stroke-width="1" fill="rgb(124,181,236)" fill-opacity="0.5"></circle><circle cx="91.3" cy="188.2" r="15.5" stroke="#7cb5ec" stroke-width="1" fill="rgb(124,181,236)" fill-opacity="0.5"></circle><circle cx="354.2" cy="259.2" r="12.5" stroke="#7cb5ec" stroke-width="1" fill="rgb(124,181,236)" fill-opacity="0.5"></circle><circle cx="390.4" cy="256.4" r="26.5" stroke="#7cb5ec" stroke-width="1" fill="rgb(124,181,236)" fill-opacity="0.5"></circle><circle cx="312.3" cy="237.1" r="15.5" stroke="#7cb5ec" stroke-width="1" fill="rgb(124,181,236)" fill-opacity="0.5"></circle><circle cx="291.6" cy="271.7" r="13" stroke="#7cb5ec" stroke-width="1" fill="rgb(124,181,236)" fill-opacity="0.5"></circle><circle cx="406.1" cy="275.9" r="7.5" stroke="#7cb5ec" stroke-width="1" fill="rgb(124,181,236)" fill-opacity="0.5"></circle><circle cx="344.9" cy="386.5" r="16" stroke="#7cb5ec" stroke-width="1" fill="rgb(124,181,236)" fill-opacity="0.5"></circle><circle cx="539.7" cy="164.0" r="7" stroke="#7cb5ec" stroke-width="1" fill="rgb(124,181,236)" fill-opacity="0.5"></circle><circle cx="491.8" cy="250.7" r="8.5" stroke="#7cb5ec" stroke-width="1" fill="rgb(124,181,236)" fill-opacity="0.5"></circle><circle cx="534.9" cy="193.0" r="23.5" stroke="#7cb5ec" stroke-width="1" fill="rgb(124,181,236)" fill-opacity="0.5"></circle><circle cx="401.9" cy="214.8" r="12.5" stroke="#7cb5ec" stroke-width="1" fill="rgb(124,181,236)" fill-opacity="0.5"></circle><circle cx="316.1" cy="191.6" r="17.5" stroke="#7cb5ec" stroke-width="1" fill="rgb(124,181,236)" fill-opacity="0.5"></circle><circle cx="355.1" cy="360.6" r="14.5" stroke="#7cb5ec" stroke-width="1" fill="rgb(124,181,236)" fill-opacity="0.5"></circle><circle cx="328.6" cy="277.2" r="9" stroke="#7cb5ec" stroke-width="1" fill="rgb(124,181,236)" fill-opacity="0.5"></circle><circle cx="138.6" cy="156.5" r="8" stroke="#7cb5ec" stroke-width="1" fill="rgb(124,181,236)" fill-opacity="0.5"></circle><circle cx="280.9" cy="247.8" r="16.5" stroke="#7cb5ec" stroke-width="1" fill="rgb(124,181,236)" fill-opacity="0.5"></circle><circle cx="41.7" cy="237.7" r="9.5" stroke="#7cb5ec" stroke-width="1" fill="rgb(124,181,236)" fill-opacity="0.5"></circle><circle cx="527.2" cy="183.2" r="9" stroke="#7cb5ec" stroke-width="1" fill="rgb(124,181,236)" fill-opacity="0.5"></circle><circle cx="505.7" cy="230.4" r="11" stroke="#7cb5ec" stroke-width="1" fill="rgb(124,181,236)" fill-opacity="0.5"></circle><circle cx="179.0" cy="310.9" r="10.5" stroke="#7cb5ec" stroke-width="1" fill="rgb(124,181,236)" fill-opacity="0.5"></circle><circle cx="507.8" cy="196.1" r="11.5" stroke="#7cb5ec" stroke-width="1" fill="rgb(124,181,236)" fill-opacity="0.5"></circle><circle cx="477.8" cy="297.5" r="20" stroke="#7cb5ec" stroke-width="1" fill="rgb(124,181,236)" fill-opacity="0.5"></circle><circle cx="243.5" cy="165.6" r="10" stroke="#7cb5ec" stroke-width="1" fill="rgb(124,181,236)" fill-opacity="0.5"></circle><circle cx="422.5" cy="249.7" r="26" stroke="#7cb5ec" stroke-width="1" fill="rgb(124,181,236)" fill-opacity="0.5"></circle><circle cx="271.4" cy="319.7" r="23" stroke="#7cb5ec" stroke-width="1" fill="rgb(124,181,236)" fill-opacity="0.5"></circle><circle cx="31.5" cy="153.7" r="14" stroke="#7cb5ec" stroke-width="1" fill="rgb(124,181,236)" fill-opacity="0.5"></circle><circle cx="484.2" cy="234.6" r="9.5" stroke="#7cb5ec" stroke-width="1" fill="rgb(124,181,236)" fill-opacity="0.5"></circle><circle cx="533.4" cy="200.9" r="14.5" stroke="#7cb5ec" stroke-width="1" fill="rgb(124,181,236)" fill-opacity="0.5"></circle><circle cx="455.7" cy="326.0" r="13" stroke="#7cb5ec" stroke-width="1" fill="rgb(124,181,236)" fill-opacity="0.5"></circle><circle cx="245.9" cy="198.8" r="6" stroke="#7cb5ec" stroke-width="1" fill="rgb(124,181,236)" fill-opacity="0.5"></circle><circle cx="388.8" cy="305.4" r="23.5" stroke="#7cb5ec" stroke-width="1" fill="rgb(124,181,236)" fill-opacity="0.5"></circle><circle cx="267.6" cy="390.2" r="26.5" stroke="#7cb5ec" stroke-width="1" fill="rgb(124,181,236)" fill-opacity="0.5"></circle><circle cx="126.1" cy="234.4" r="15" stroke="#7cb5ec" stroke-width="1" fill="rgb(124,181,236)" fill-opacity="0.5"></circle><circle cx="513.6" cy="172.1" r="4" stroke="#7cb5ec" stroke-width="1" fill="rgb(124,181,236)" fill-opacity="0.5"></circle><circle cx="486.0" cy="271.7" r="15.5" stroke="#7cb5ec" stroke-width="1" fill="rgb(124,181,236)" fill-opacity="0.5"></circle><circle cx="41.2" cy="126.8" r="9" stroke="#7cb5ec" stroke-width="1" fill="rgb(124,181,236)" fill-opacity="0.5"></circle><circle cx="439.9" cy="269.1" r="9.5" stroke="#7cb5ec" stroke-width="1" fill="rgb(124,181,236)" fill-opacity="0.5"></circle><circle cx="353.6" cy="215.0" r="16" stroke="#7cb5ec" stroke-width="1" fill="rgb(124,181,236)" fill-opacity="0.5"></circle><circle cx="198.3" cy="239.2" r="10" stroke="#7cb5ec" stroke-width="1" fill="rgb(124,181,236)" fill-opacity="0.5"></circle></g><g class="highcharts-markers" visibility="visible"  transform="translate(10,47) scale(1 1)"></g></g><text x="292" text-anchor="middle" class="highcharts-title"  style="color:#333333;font-size:18px;fill:#333333;width:520px;" y="24"><tspan>Highmaps lat/lon demo</tspan></text><g class="highcharts-button" style="cursor:default;text-align:center;"  transform="translate(10,10)"><title>Zoom in</title><path fill="url(#highcharts-1)" d="M 1.5 -0.5 L 25.5 -0.5 C 26.5 -0.5 27.5 0.5 27.5 1.5 L 27.5 27.5 C 27.5 27.5 27.5 27.5 27.5 27.5 L -0.5 27.5 C -0.5 27.5 -0.5 27.5 -0.5 27.5 L -0.5 1.5 C -0.5 0.5 0.5 -0.5 1.5 -0.5 Z" stroke="#CCCCCC" stroke-width="1"></path><text x="8"  style="font-size:15px;font-weight:bold;color:black;fill:black;" transform="translate(0,19)">+</text></g><g class="highcharts-button" style="cursor:default;text-align:center;"  transform="translate(10,38)"><title>Zoom out</title><path fill="url(#highcharts-1)" d="M -0.5 -0.5 L 27.5 -0.5 C 27.5 -0.5 27.5 -0.5 27.5 -0.5 L 27.5 25.5 C 27.5 26.5 26.5 27.5 25.5 27.5 L 1.5 27.5 C 0.5 27.5 -0.5 26.5 -0.5 25.5 L -0.5 -0.5 C -0.5 -0.5 -0.5 -0.5 -0.5 -0.5 Z" stroke="#CCCCCC" stroke-width="1"></path><text x="11"  style="font-size:15px;font-weight:bold;color:black;fill:black;" transform="translate(0,19)">-</text></g><g class="highcharts-data-labels highcharts-tracker" visibility="visible"  transform="translate(10,47) scale(1 1)" style=""><g  style="" transform="translate(358,344)"><text x="5"  style="font-size: 11px; font-weight: bold; color: rgb(0, 0, 0); fill: #000000; text-shadow: rgb(255, 255, 255) 0px 0px 6px, rgb(255, 255, 255) 0px 0px 3px; " transform="translate(0,16)"><tspan>Montgomery</tspan></text></g><g  style="" transform="translate(96,447)"><text x="5"  style="font-size: 11px; font-weight: bold; color: rgb(0, 0, 0); fill: #000000; text-shadow: rgb(255, 255, 255) 0px 0px 6px, rgb(255, 255, 255) 0px 0px 3px; " transform="translate(0,16)"><tspan>Juneau</tspan></text></g><g  style="" transform="translate(79,320)"><text x="5"  style="font-size: 11px; font-weight: bold; color: rgb(0, 0, 0); fill: #000000; text-shadow: rgb(255, 255, 255) 0px 0px 6px, rgb(255, 255, 255) 0px 0px 3px; " transform="translate(0,16)"><tspan>Phoenix</tspan></text></g><g  style="" transform="translate(295,317)"><text x="5"  style="font-size: 11px; font-weight: bold; color: rgb(0, 0, 0); fill: #000000; text-shadow: rgb(255, 255, 255) 0px 0px 6px, rgb(255, 255, 255) 0px 0px 3px; " transform="translate(0,16)"><tspan>Little Rock</tspan></text></g><g  style="" transform="translate(-5,229)"><text x="5"  style="font-size: 11px; font-weight: bold; color: rgb(0, 0, 0); fill: #000000; text-shadow: rgb(255, 255, 255) 0px 0px 6px, rgb(255, 255, 255) 0px 0px 3px; " transform="translate(0,16)"><tspan>Sacramento</tspan></text></g><g  style="" transform="translate(169,246)"><text x="5"  style="font-size: 11px; font-weight: bold; color: rgb(0, 0, 0); fill: #000000; text-shadow: rgb(255, 255, 255) 0px 0px 6px, rgb(255, 255, 255) 0px 0px 3px; " transform="translate(0,16)"><tspan>Denver</tspan></text></g><g  style="" transform="translate(492,194)"><text x="5"  style="font-size: 11px; font-weight: bold; color: rgb(0, 0, 0); fill: #000000; text-shadow: rgb(255, 255, 255) 0px 0px 6px, rgb(255, 255, 255) 0px 0px 3px; " transform="translate(0,16)"><tspan>Hartford</tspan></text></g><g  style="" transform="translate(479,235)"><text x="5"  style="font-size: 11px; font-weight: bold; color: rgb(0, 0, 0); fill: #000000; text-shadow: rgb(255, 255, 255) 0px 0px 6px, rgb(255, 255, 255) 0px 0px 3px; " transform="translate(0,16)"><tspan>Dover</tspan></text></g><g  style="" transform="translate(387,368)"><text x="5"  style="font-size: 11px; font-weight: bold; color: rgb(0, 0, 0); fill: #000000; text-shadow: rgb(255, 255, 255) 0px 0px 6px, rgb(255, 255, 255) 0px 0px 3px; " transform="translate(0,16)"><tspan>Tallahassee</tspan></text></g><g  style="" transform="translate(393,323)" opacity="0"><text x="5"  style="font-size: 11px; font-weight: bold; color: rgb(0, 0, 0); fill: #000000; text-shadow: rgb(255, 255, 255) 0px 0px 6px, rgb(255, 255, 255) 0px 0px 3px; " transform="translate(0,16)"><tspan>Atlanta</tspan></text></g><g  style="" transform="translate(148,436)"><text x="5"  style="font-size: 11px; font-weight: bold; color: rgb(0, 0, 0); fill: #000000; text-shadow: rgb(255, 255, 255) 0px 0px 6px, rgb(255, 255, 255) 0px 0px 3px; " transform="translate(0,16)"><tspan>Honolulu</tspan></text></g><g  style="" transform="translate(71,177)"><text x="5"  style="font-size: 11px; font-weight: bold; color: rgb(0, 0, 0); fill: #000000; text-shadow: rgb(255, 255, 255) 0px 0px 6px, rgb(255, 255, 255) 0px 0px 3px; " transform="translate(0,16)"><tspan>Boise</tspan></text></g><g  style="" transform="translate(319,248)"><text x="5"  style="font-size: 11px; font-weight: bold; color: rgb(0, 0, 0); fill: #000000; text-shadow: rgb(255, 255, 255) 0px 0px 6px, rgb(255, 255, 255) 0px 0px 3px; " transform="translate(0,16)"><tspan>Springfield</tspan></text></g><g  style="" transform="translate(351,245)" opacity="0"><text x="5"  style="font-size: 11px; font-weight: bold; color: rgb(0, 0, 0); fill: #000000; text-shadow: rgb(255, 255, 255) 0px 0px 6px, rgb(255, 255, 255) 0px 0px 3px; " transform="translate(0,16)"><tspan>Indianapolis</tspan></text></g><g  style="" transform="translate(275,226)" opacity="0"><text x="5"  style="font-size: 11px; font-weight: bold; color: rgb(0, 0, 0); fill: #000000; text-shadow: rgb(255, 255, 255) 0px 0px 6px, rgb(255, 255, 255) 0px 0px 3px; " transform="translate(0,16)"><tspan>Des Moines</tspan></text></g><g  style="" transform="translate(266,260)"><text x="5"  style="font-size: 11px; font-weight: bold; color: rgb(0, 0, 0); fill: #000000; text-shadow: rgb(255, 255, 255) 0px 0px 6px, rgb(255, 255, 255) 0px 0px 3px; " transform="translate(0,16)"><tspan>Topeka</tspan></text></g><g  style="" transform="translate(375,264)" opacity="0"><text x="5"  style="font-size: 11px; font-weight: bold; color: rgb(0, 0, 0); fill: #000000; text-shadow: rgb(255, 255, 255) 0px 0px 6px, rgb(255, 255, 255) 0px 0px 3px; " transform="translate(0,16)"><tspan>Frankfort</tspan></text></g><g  style="" transform="translate(304,375)"><text x="5"  style="font-size: 11px; font-weight: bold; color: rgb(0, 0, 0); fill: #000000; text-shadow: rgb(255, 255, 255) 0px 0px 6px, rgb(255, 255, 255) 0px 0px 3px; " transform="translate(0,16)"><tspan>Baton Rouge</tspan></text></g><g  style="" transform="translate(511,153)"><text x="5"  style="font-size: 11px; font-weight: bold; color: rgb(0, 0, 0); fill: #000000; text-shadow: rgb(255, 255, 255) 0px 0px 6px, rgb(255, 255, 255) 0px 0px 3px; " transform="translate(0,16)"><tspan>Augusta</tspan></text></g><g  style="" transform="translate(459,239)" opacity="0"><text x="5"  style="font-size: 11px; font-weight: bold; color: rgb(0, 0, 0); fill: #000000; text-shadow: rgb(255, 255, 255) 0px 0px 6px, rgb(255, 255, 255) 0px 0px 3px; " transform="translate(0,16)"><tspan>Annapolis</tspan></text></g><g  style="" transform="translate(510,182)" opacity="0"><text x="5"  style="font-size: 11px; font-weight: bold; color: rgb(0, 0, 0); fill: #000000; text-shadow: rgb(255, 255, 255) 0px 0px 6px, rgb(255, 255, 255) 0px 0px 3px; " transform="translate(0,16)"><tspan>Boston</tspan></text></g><g  style="" transform="translate(375,203)"><text x="5"  style="font-size: 11px; font-weight: bold; color: rgb(0, 0, 0); fill: #000000; text-shadow: rgb(255, 255, 255) 0px 0px 6px, rgb(255, 255, 255) 0px 0px 3px; " transform="translate(0,16)"><tspan>Lansing</tspan></text></g><g  style="" transform="translate(283,180)"><text x="5"  style="font-size: 11px; font-weight: bold; color: rgb(0, 0, 0); fill: #000000; text-shadow: rgb(255, 255, 255) 0px 0px 6px, rgb(255, 255, 255) 0px 0px 3px; " transform="translate(0,16)"><tspan>Saint Paul</tspan></text></g><g  style="" transform="translate(327,349)" opacity="0"><text x="5"  style="font-size: 11px; font-weight: bold; color: rgb(0, 0, 0); fill: #000000; text-shadow: rgb(255, 255, 255) 0px 0px 6px, rgb(255, 255, 255) 0px 0px 3px; " transform="translate(0,16)"><tspan>Jackson</tspan></text></g><g  style="" transform="translate(285,266)" opacity="0"><text x="5"  style="font-size: 11px; font-weight: bold; color: rgb(0, 0, 0); fill: #000000; text-shadow: rgb(255, 255, 255) 0px 0px 6px, rgb(255, 255, 255) 0px 0px 3px; " transform="translate(0,16)"><tspan>Jefferson City</tspan></text></g><g  style="" transform="translate(114,145)"><text x="5"  style="font-size: 11px; font-weight: bold; color: rgb(0, 0, 0); fill: #000000; text-shadow: rgb(255, 255, 255) 0px 0px 6px, rgb(255, 255, 255) 0px 0px 3px; " transform="translate(0,16)"><tspan>Helana</tspan></text></g><g  style="" transform="translate(256,236)"><text x="5"  style="font-size: 11px; font-weight: bold; color: rgb(0, 0, 0); fill: #000000; text-shadow: rgb(255, 255, 255) 0px 0px 6px, rgb(255, 255, 255) 0px 0px 3px; " transform="translate(0,16)"><tspan>Lincoln</tspan></text></g><g  style="" transform="translate(5,226)" opacity="0"><text x="5"  style="font-size: 11px; font-weight: bold; color: rgb(0, 0, 0); fill: #000000; text-shadow: rgb(255, 255, 255) 0px 0px 6px, rgb(255, 255, 255) 0px 0px 3px; " transform="translate(0,16)"><tspan>Carson City</tspan></text></g><g  style="" transform="translate(499,172)" opacity="0"><text x="5"  style="font-size: 11px; font-weight: bold; color: rgb(0, 0, 0); fill: #000000; text-shadow: rgb(255, 255, 255) 0px 0px 6px, rgb(255, 255, 255) 0px 0px 3px; " transform="translate(0,16)"><tspan>Concord</tspan></text></g><g  style="" transform="translate(478,219)" opacity="0"><text x="5"  style="font-size: 11px; font-weight: bold; color: rgb(0, 0, 0); fill: #000000; text-shadow: rgb(255, 255, 255) 0px 0px 6px, rgb(255, 255, 255) 0px 0px 3px; " transform="translate(0,16)"><tspan>Trenton</tspan></text></g><g  style="" transform="translate(150,299)"><text x="5"  style="font-size: 11px; font-weight: bold; color: rgb(0, 0, 0); fill: #000000; text-shadow: rgb(255, 255, 255) 0px 0px 6px, rgb(255, 255, 255) 0px 0px 3px; " transform="translate(0,16)"><tspan>Santa Fe</tspan></text></g><g  style="" transform="translate(483,185)" opacity="0"><text x="5"  style="font-size: 11px; font-weight: bold; color: rgb(0, 0, 0); fill: #000000; text-shadow: rgb(255, 255, 255) 0px 0px 6px, rgb(255, 255, 255) 0px 0px 3px; " transform="translate(0,16)"><tspan>Albany</tspan></text></g><g  style="" transform="translate(452,286)"><text x="5"  style="font-size: 11px; font-weight: bold; color: rgb(0, 0, 0); fill: #000000; text-shadow: rgb(255, 255, 255) 0px 0px 6px, rgb(255, 255, 255) 0px 0px 3px; " transform="translate(0,16)"><tspan>Raleigh</tspan></text></g><g  style="" transform="translate(213,154)"><text x="5"  style="font-size: 11px; font-weight: bold; color: rgb(0, 0, 0); fill: #000000; text-shadow: rgb(255, 255, 255) 0px 0px 6px, rgb(255, 255, 255) 0px 0px 3px; " transform="translate(0,16)"><tspan>Bismarck</tspan></text></g><g  style="" transform="translate(390,238)"><text x="5"  style="font-size: 11px; font-weight: bold; color: rgb(0, 0, 0); fill: #000000; text-shadow: rgb(255, 255, 255) 0px 0px 6px, rgb(255, 255, 255) 0px 0px 3px; " transform="translate(0,16)"><tspan>Columbus</tspan></text></g><g  style="" transform="translate(225,308)" opacity="0"><text x="5"  style="font-size: 11px; font-weight: bold; color: rgb(0, 0, 0); fill: #000000; text-shadow: rgb(255, 255, 255) 0px 0px 6px, rgb(255, 255, 255) 0px 0px 3px; " transform="translate(0,16)"><tspan>Oklahoma City</tspan></text></g><g  style="" transform="translate(9,142)"><text x="5"  style="font-size: 11px; font-weight: bold; color: rgb(0, 0, 0); fill: #000000; text-shadow: rgb(255, 255, 255) 0px 0px 6px, rgb(255, 255, 255) 0px 0px 3px; " transform="translate(0,16)"><tspan>Salem</tspan></text></g><g  style="" transform="translate(449,223)" opacity="0"><text x="5"  style="font-size: 11px; font-weight: bold; color: rgb(0, 0, 0); fill: #000000; text-shadow: rgb(255, 255, 255) 0px 0px 6px, rgb(255, 255, 255) 0px 0px 3px; " transform="translate(0,16)"><tspan>Harrisburg</tspan></text></g><g  style="" transform="translate(496,189)" opacity="0"><text x="5"  style="font-size: 11px; font-weight: bold; color: rgb(0, 0, 0); fill: #000000; text-shadow: rgb(255, 255, 255) 0px 0px 6px, rgb(255, 255, 255) 0px 0px 3px; " transform="translate(0,16)"><tspan>Providence</tspan></text></g><g  style="" transform="translate(425,315)"><text x="5"  style="font-size: 11px; font-weight: bold; color: rgb(0, 0, 0); fill: #000000; text-shadow: rgb(255, 255, 255) 0px 0px 6px, rgb(255, 255, 255) 0px 0px 3px; " transform="translate(0,16)"><tspan>Columbia</tspan></text></g><g  style="" transform="translate(224,187)"><text x="5"  style="font-size: 11px; font-weight: bold; color: rgb(0, 0, 0); fill: #000000; text-shadow: rgb(255, 255, 255) 0px 0px 6px, rgb(255, 255, 255) 0px 0px 3px; " transform="translate(0,16)"><tspan>Pierre</tspan></text></g><g  style="" transform="translate(359,294)" opacity="0"><text x="5"  style="font-size: 11px; font-weight: bold; color: rgb(0, 0, 0); fill: #000000; text-shadow: rgb(255, 255, 255) 0px 0px 6px, rgb(255, 255, 255) 0px 0px 3px; " transform="translate(0,16)"><tspan>Nashville</tspan></text></g><g  style="" transform="translate(245,379)"><text x="5"  style="font-size: 11px; font-weight: bold; color: rgb(0, 0, 0); fill: #000000; text-shadow: rgb(255, 255, 255) 0px 0px 6px, rgb(255, 255, 255) 0px 0px 3px; " transform="translate(0,16)"><tspan>Austin</tspan></text></g><g  style="" transform="translate(83,223)" opacity="0"><text x="5"  style="font-size: 11px; font-weight: bold; color: rgb(0, 0, 0); fill: #000000; text-shadow: rgb(255, 255, 255) 0px 0px 6px, rgb(255, 255, 255) 0px 0px 3px; " transform="translate(0,16)"><tspan>Salt Lake City</tspan></text></g><g  style="" transform="translate(478,161)" opacity="0"><text x="5"  style="font-size: 11px; font-weight: bold; color: rgb(0, 0, 0); fill: #000000; text-shadow: rgb(255, 255, 255) 0px 0px 6px, rgb(255, 255, 255) 0px 0px 3px; " transform="translate(0,16)"><tspan>Montpelier</tspan></text></g><g  style="" transform="translate(453,260)" opacity="0"><text x="5"  style="font-size: 11px; font-weight: bold; color: rgb(0, 0, 0); fill: #000000; text-shadow: rgb(255, 255, 255) 0px 0px 6px, rgb(255, 255, 255) 0px 0px 3px; " transform="translate(0,16)"><tspan>Richmond</tspan></text></g><g  style="" transform="translate(13,115)"><text x="5"  style="font-size: 11px; font-weight: bold; color: rgb(0, 0, 0); fill: #000000; text-shadow: rgb(255, 255, 255) 0px 0px 6px, rgb(255, 255, 255) 0px 0px 3px; " transform="translate(0,16)"><tspan>Olympia</tspan></text></g><g  style="" transform="translate(404,258)" opacity="0"><text x="5"  style="font-size: 11px; font-weight: bold; color: rgb(0, 0, 0); fill: #000000; text-shadow: rgb(255, 255, 255) 0px 0px 6px, rgb(255, 255, 255) 0px 0px 3px; " transform="translate(0,16)"><tspan>Charleston</tspan></text></g><g  style="" transform="translate(325,204)" opacity="0"><text x="5"  style="font-size: 11px; font-weight: bold; color: rgb(0, 0, 0); fill: #000000; text-shadow: rgb(255, 255, 255) 0px 0px 6px, rgb(255, 255, 255) 0px 0px 3px; " transform="translate(0,16)"><tspan>Madison</tspan></text></g><g  style="" transform="translate(165,228)" opacity="0"><text x="5"  style="font-size: 11px; font-weight: bold; color: rgb(0, 0, 0); fill: #000000; text-shadow: rgb(255, 255, 255) 0px 0px 6px, rgb(255, 255, 255) 0px 0px 3px; " transform="translate(0,16)"><tspan>Cheyenne</tspan></text></g></g><g class="highcharts-legend"  transform="translate(203,640)"><g ><g><g class="highcharts-legend-item"  transform="translate(8,3)"><path fill="none" d="M 0 11 L 16 11" stroke="#101010" stroke-width="1"></path><text x="21" style="color:#333333;font-size:12px;font-weight:bold;cursor:pointer;fill:#333333;" text-anchor="start"  y="15">Separators</text></g><g class="highcharts-legend-item"  transform="translate(116,3)"><text x="21" y="15" style="color:#333333;font-size:12px;font-weight:bold;cursor:pointer;fill:#333333;" text-anchor="start" >Cities</text><circle cx="6" cy="9" r="6"  fill="rgb(124,181,236)" fill-opacity="0.5" stroke="#7cb5ec" stroke-width="1"></circle></g></g></g></g><g class="highcharts-axis-labels highcharts-xaxis-labels" ></g><g class="highcharts-axis-labels highcharts-yaxis-labels" ></g><g class="highcharts-tooltip"  style="cursor:default;padding:0;white-space:nowrap;" transform="translate(0,-9999)"><path fill="none" d="M 3 0 L 13 0 C 16 0 16 0 16 3 L 16 13 C 16 16 16 16 13 16 L 3 16 C 0 16 0 16 0 13 L 0 3 C 0 0 0 0 3 0"  stroke="black" stroke-opacity="0.0" stroke-width="5" transform="translate(1, 1)"></path><path fill="none" d="M 3 0 L 13 0 C 16 0 16 0 16 3 L 16 13 C 16 16 16 16 13 16 L 3 16 C 0 16 0 16 0 13 L 0 3 C 0 0 0 0 3 0"  stroke="black" stroke-opacity="0.0" stroke-width="3" transform="translate(1, 1)"></path><path fill="none" d="M 3 0 L 13 0 C 16 0 16 0 16 3 L 16 13 C 16 16 16 16 13 16 L 3 16 C 0 16 0 16 0 13 L 0 3 C 0 0 0 0 3 0"  stroke="black" stroke-opacity="0.1" stroke-width="1" transform="translate(1, 1)"></path><path fill="rgb(249, 249, 249)" fill-opacity=" .85" d="M 3 0 L 13 0 C 16 0 16 0 16 3 L 16 13 C 16 16 16 16 13 16 L 3 16 C 0 16 0 16 0 13 L 0 3 C 0 0 0 0 3 0"></path><text x="8"  style="font-size:12px;color:#333333;fill:#333333;" transform="translate(0,20)"></text></g></svg>