<svg version="1.1" style="font-family:&quot;lucida grande&quot;, &quot;lucida sans unicode&quot;, arial, helvetica, sans-serif;font-size:12px;" xmlns="http://www.w3.org/2000/svg" width="584" height="500" viewBox="0 0 584 500"><desc>Created with Highmaps 1.1.4</desc><defs><linearGradient x1="0" y1="0" x2="0" y2="1" id="highcharts-1"><stop offset="0" stop-color="#FEFEFE" stop-opacity="1"></stop><stop offset="1" stop-color="#F6F6F6" stop-opacity="1"></stop></linearGradient><linearGradient x1="0" y1="0" x2="0" y2="1" id="highcharts-2"><stop offset="0" stop-color="#E6E7E8" stop-opacity="1"></stop><stop offset="1" stop-color="#005645" stop-opacity="1"></stop></linearGradient><clipPath id="highcharts-3"><rect x="0" y="0" width="486" height="438"></rect></clipPath></defs><rect x="0" y="0" width="584" height="500" strokeWidth="0" fill="#FFFFFF" class=" highcharts-background" stroke="transparent"></rect><g class="highcharts-grid" ></g><g class="highcharts-grid" ></g><g class="highcharts-axis" ></g><g class="highcharts-axis" ></g><g class="highcharts-series-group" ><g class="highcharts-series highcharts-tracker" visibility="visible"  transform="translate(10,47) scale(1 1)" style="" clip-path="url(#highcharts-3)"><g transform="translate(0,0) scale(1 1)"><path fill="rgb(230,231,232)" d="M 467.1 145.2 L 469.2 145.7 467.4 146.3 466.5 147.2 467.1 145.2 M 461.9 144.1 L 461.8 143.5 461.4 143.8 459.2 140.7 455.8 141.7 447.7 143.6 441.6 144.9 441.2 144.7 441.4 136.7 444.3 135.9 448.1 135.1 448.1 135.1 457.8 132.8 458.7 131.2 461.3 129.7 462.1 131.4 463.8 131.9 461.8 133.7 461.2 136.6 464.2 136.9 467.0 140.9 469.5 141.4 471.3 139.9 472.4 141.1 470.4 141.8 466.6 144.5 466.2 142.3 463.0 145.7 462.5 144.1 461.9 144.1 Z" vector-effect="non-scaling-stroke" stroke="silver" stroke-width="1" class="highcharts-drilldown-point" style="cursor:pointer;"></path><path fill="rgb(226,229,229)" d="M 41.2 59.8 L 42.2 61.1 40.6 61.5 40.8 63.6 38.6 61.8 41.2 59.8 M 42.4 64.6 L 40.9 66.0 41.7 66.6 42.8 70.0 41.2 69.1 40.7 65.7 42.4 64.5 42.0 64.2 42.0 62.4 43.3 64.1 44.3 60.8 43.2 60.2 43.3 57.3 86.2 68.9 79.1 98.8 79.4 103.4 62.5 99.3 61.6 99.7 57.6 99.0 52.0 99.7 48.9 98.9 44.2 98.8 43.7 97.7 39.6 96.4 35.4 97.0 32.0 94.8 32.6 91.2 32.2 89.5 30.3 88.0 28.7 87.8 28.3 86.2 25.2 85.6 24.1 83.9 26.1 82.2 26.7 79.9 25.3 79.5 25.5 77.8 28.2 77.7 25.7 75.9 25.7 72.0 26.3 67.5 25.3 65.1 25.5 61.9 27.5 60.1 30.7 63.5 36.5 66.1 37.5 65.6 38.2 67.6 40.2 66.9 40.4 70.1 41.2 70.1 39.7 73.5 40.7 76.4 37.2 75.3 34.8 77.8 37.7 78.6 39.1 76.7 41.0 76.4 41.7 71.9 43.9 69.9 43.0 66.6 43.6 65.8 42.4 64.6 Z" vector-effect="non-scaling-stroke" stroke="silver" stroke-width="1" class="highcharts-drilldown-point" style="cursor:pointer;"></path><path fill="rgb(222,226,227)" d="M 7.4 131.9 L 42.5 142.3 33.4 175.9 46.1 194.9 56.4 210.6 71.3 232.7 72.5 239.3 74.3 241.9 71.5 243.2 69.7 245.0 69.6 247.5 67.5 250.6 66.6 250.6 66.0 254.4 67.9 256.0 66.7 258.7 64.9 258.6 41.3 255.5 40.4 253.3 40.9 248.5 39.8 245.6 34.7 239.2 32.3 238.8 32.0 235.2 29.4 235.0 26.0 232.3 25.8 231.0 23.0 228.3 18.4 226.4 15.2 225.8 14.0 223.8 15.7 217.6 13.7 215.7 14.6 214.9 12.4 210.7 11.5 210.0 9.2 202.9 8.0 201.3 8.1 198.1 10.6 196.0 9.8 193.7 7.9 193.1 6.4 190.1 6.5 186.0 7.4 183.2 8.4 183.2 8.1 185.7 10.5 188.1 9.0 183.7 9.4 181.1 11.6 181.3 8.6 179.6 7.4 182.8 4.7 179.4 4.3 174.2 0.7 167.3 1.4 166.2 1.3 162.3 2.5 160.3 2.8 156.9 1.5 153.1 0 150.7 0.2 148.6 4.8 142.8 6.7 138.5 6.9 135.0 6.2 134.2 7.4 131.9 Z" vector-effect="non-scaling-stroke" stroke="silver" stroke-width="1" class="highcharts-drilldown-point" style="cursor:pointer;"></path><path fill="rgb(219,224,224)" d="M 42.5 142.3 L 7.4 131.9 6.8 127.7 8.1 124.0 7.7 121.7 10.8 116.6 12.7 114.7 14.6 111.2 18.1 103.1 18.6 101.0 22.6 93.2 22.6 90.6 24.1 85.8 28.6 87.9 30.3 88.0 32.2 89.5 32.6 91.2 32.0 94.8 35.4 97.0 39.6 96.4 43.7 97.7 44.2 98.8 48.9 98.9 52.0 99.7 57.6 99.0 61.6 99.7 62.5 99.3 79.4 103.4 79.9 105.5 81.5 106.9 81.6 109.0 79.5 111.3 76.9 115.8 72.6 120.1 72.2 122.2 74.4 124.1 72.3 128.4 67.5 148.6 42.5 142.3 Z" vector-effect="non-scaling-stroke" stroke="silver" stroke-width="1" class="highcharts-drilldown-point" style="cursor:pointer;"></path><path fill="rgb(215,221,221)" d="M 322.7 126.9 L 322.3 129.6 320.6 133.3 319.5 132.2 320.7 129.1 322.7 126.9 M 294.4 162.3 L 293.8 160.7 290.8 159.8 289.5 155.0 290.1 153.6 288.6 151.1 288.0 146.3 284.8 144.6 280.9 140.5 276.8 138.7 274.8 137.0 275.1 130.7 275.7 128.9 273.9 127.5 273.9 125.8 275.2 123.5 278.5 121.3 278.2 114.6 279.6 113.2 282.2 113.9 288.8 110.7 290.6 110.9 290.2 112.6 291.4 114.1 293.5 114.6 296.0 117.4 304.3 119.1 306.7 120.2 312.0 120.7 313.1 122.6 315.5 123.6 315.3 127.4 317.0 127.4 316.6 129.4 317.8 130.2 316.1 132.2 314.7 136.8 315.6 136.8 317.9 133.3 320.3 133.5 319.0 139.4 319.5 140.4 318.0 144.0 318.4 146.5 317.1 151.8 317.4 154.6 318.6 157.0 318.8 160.7 303.6 161.8 295.8 162.2 294.4 162.3 Z" vector-effect="non-scaling-stroke" stroke="silver" stroke-width="1" class="highcharts-drilldown-point" style="cursor:pointer;"></path><path fill="rgb(211,219,218)" d="M 475.7 107.7 L 476.6 106.1 477.6 106.8 476.5 109.3 475.7 107.7 M 457.9 122.4 L 451.4 103.1 453.0 103.3 453.7 99.2 455.4 96.8 455.8 93.9 455.0 92.7 455.0 89.2 455.7 88.2 455.3 84.9 458.5 74.9 460.0 74.5 460.9 76.5 462.1 76.9 467.0 73.5 471.1 76.0 476.1 91.1 479.1 91.0 479.9 94.7 481.3 95.7 482.7 95.1 486 98.2 484.5 101.1 479.5 103.9 478.7 106.8 477.8 105.2 475.2 105.9 474.3 108.6 475.4 111.3 472.6 108.2 472.6 106.2 471.0 108.0 471.5 112.4 468.7 115.9 467.2 116.5 466.6 118.2 465.2 116.8 463.3 119.2 464.0 120.6 461.9 124.7 461.2 127.2 458.4 124.4 457.9 122.4 Z" vector-effect="non-scaling-stroke" stroke="silver" stroke-width="1" class="highcharts-drilldown-point" style="cursor:pointer;"></path><path fill="rgb(207,217,216)" d="M 349.4 115.1 L 349.6 116.8 347.7 116.9 348.1 114.9 349.4 115.1 M 307.3 95.0 L 306.0 97.0 302.7 99.4 302.6 97.8 307.3 95.0 M 357.2 165.2 L 350.0 166.5 345.6 167.1 345.5 166.4 327.9 168.4 329.8 166.1 331.3 162.2 332.1 156.8 331.8 153.9 328.2 146.5 328.9 144.6 327.9 141.2 329.6 137.6 329.2 133.9 330.5 133.1 330.5 131.1 332.4 130.5 333.7 127.6 334.5 129.0 334.1 131.5 334.9 132.2 335.9 130.4 335.7 126.9 337.3 124.9 338.9 124.7 337.7 121.9 340.0 119.6 342.4 120.7 341.5 119.2 343.4 119.3 342.7 120.8 344.7 120.9 346.0 122.3 350.9 123.4 353.1 126.5 352.0 127.5 353.9 130.7 353.9 135.1 352.5 136.0 352.3 138.5 350.2 139.6 350.4 143.2 352.3 143.8 353.8 142.5 355.4 138.9 357.9 137.6 360.1 139.0 362.6 146.3 364.0 149.1 363.8 153.5 361.2 153.8 361.0 156.8 359.2 158.6 358.6 162.6 357.2 165.2 M 307.8 107.1 L 309.0 108.9 309.0 111.1 310.7 109.2 314.2 109.4 315.6 110.1 318.2 113.6 321.2 113.0 322.1 113.9 324.4 113.6 327.7 110.6 332.7 110.1 337.1 108.3 336.7 111.4 340.7 112.2 341.8 111.0 344.3 110.5 344.5 113.9 346.8 116.2 345.8 116.9 341.7 117.1 340.6 116.5 340.2 118.9 337.7 117.2 333.3 116.9 332.5 118.3 327.8 119.2 327.0 121.0 324.4 122.9 325.3 120.2 323.6 120.7 322.1 122.6 321.7 120.4 317.8 130.2 316.6 129.4 317.0 127.4 315.3 127.4 315.5 123.6 313.1 122.6 312.0 120.7 306.7 120.2 304.3 119.1 296.0 117.4 293.5 114.6 296.6 113.2 298.3 111.5 301.4 110.9 304.7 108.8 307.2 106.0 307.5 106.7 308.7 104.3 311.6 102.8 314.2 103.1 310.4 106.3 309.1 108.8 309.0 107.2 307.8 107.1 Z" vector-effect="non-scaling-stroke" stroke="silver" stroke-width="1" class="highcharts-drilldown-point" style="cursor:pointer;"></path><path fill="rgb(203,214,213)" d="M 42.5 142.3 L 67.5 148.6 84.9 152.5 92.8 154.1 86.3 186.2 81.3 211.0 79.5 219.9 78.4 221.8 74.7 219.7 73.0 220.1 72.1 226.8 72.2 230.6 71.3 232.7 56.4 210.6 46.1 194.9 33.4 175.9 42.5 142.3 Z" vector-effect="non-scaling-stroke" stroke="silver" stroke-width="1" class="highcharts-drilldown-point" style="cursor:pointer;"></path><path fill="rgb(199,212,210)" d="M 127.2 219.0 L 183.2 225.2 182.8 229.5 182.7 231.0 182.3 231.2 178.0 283.1 142.4 279.7 143.6 282.6 126.7 280.3 126.0 285.6 117.7 284.4 122.5 251.6 127.2 219.0 Z" vector-effect="non-scaling-stroke" stroke="silver" stroke-width="1" class="highcharts-drilldown-point" style="cursor:pointer;"></path><path fill="rgb(196,209,208)" d="M 183.2 225.2 L 127.2 219.0 132.8 180.2 133.8 173.0 177.5 178.1 195.1 179.5 194.3 191.0 193.8 198.7 192.1 225.8 183.2 225.2 Z" vector-effect="non-scaling-stroke" stroke="silver" stroke-width="1" class="highcharts-drilldown-point" style="cursor:pointer;"></path><path fill="rgb(192,207,205)" d="M 177.5 178.1 L 133.8 173.0 116.4 170.3 118.3 158.8 119.8 149.9 123.1 130.1 124.1 124.3 181.6 131.7 179.9 150.6 179.5 154.9 179.2 159.3 177.5 178.1 Z" vector-effect="non-scaling-stroke" stroke="silver" stroke-width="1" class="highcharts-drilldown-point" style="cursor:pointer;"></path><path fill="rgb(188,204,202)" d="M 194.3 191.0 L 254.4 192.8 258.3 194.9 256.4 198.3 258.9 201.9 260.8 203.0 261.2 227.6 192.1 225.8 193.8 198.7 194.3 191.0 Z" vector-effect="non-scaling-stroke" stroke="silver" stroke-width="1" class="highcharts-drilldown-point" style="cursor:pointer;"></path><path fill="rgb(184,202,199)" d="M 254.4 192.8 L 194.3 191.0 195.1 179.5 177.5 178.1 179.2 159.3 179.5 154.9 227.0 157.7 230.5 160.0 232.6 159.3 237.2 159.2 242.2 161.7 244.2 163.6 244.9 163.8 245.3 167.2 247.7 172.0 247.6 174.8 249.4 177.7 249.8 183.7 250.3 185.4 250.4 185.7 250.4 185.9 250.4 185.9 250.3 185.9 250.3 185.9 251.6 188.8 254.4 192.8 Z" vector-effect="non-scaling-stroke" stroke="silver" stroke-width="1" class="highcharts-drilldown-point" style="cursor:pointer;"></path><path fill="rgb(180,200,197)" d="M 192.1 225.8 L 261.2 227.6 261.2 229.1 261.3 233.4 263.2 246.3 263.1 266.6 259.3 265.4 255.9 263.0 254.6 264.1 252.2 263.1 248.9 263.8 245.1 266.1 242.0 263.5 239.4 263.1 237.5 265.7 236.5 263.6 235.0 264.5 232.0 262.6 229.3 263.6 228.0 260.7 224.2 261.4 217.4 259.4 216.8 257.2 212.8 257.2 209.8 255.1 210.7 232.7 182.7 231.0 182.8 229.5 183.2 225.2 192.1 225.8 Z" vector-effect="non-scaling-stroke" stroke="silver" stroke-width="1" class="highcharts-drilldown-point" style="cursor:pointer;"></path><path fill="rgb(176,197,194)" d="M 261.3 233.4 L 261.2 229.1 261.2 227.6 260.8 203.0 258.9 201.9 256.4 198.3 258.3 194.9 254.4 192.8 251.6 188.8 250.3 185.9 250.3 185.9 250.4 185.9 261.8 186.1 274.0 185.7 286.1 184.8 288.8 187.4 288.8 187.4 288.8 187.4 288.2 189.8 289.9 195.2 295.0 199.4 296.3 203.1 297.4 204.4 298.8 203.3 301.6 204.7 299.7 211.0 302.3 214.2 304.1 214.8 307.8 217.5 308.9 220.4 308.3 222.4 309.8 224.4 312.3 225.5 312.4 228.4 309.9 231.3 309.5 231.9 309.3 231.3 308.5 230.7 308.7 231.4 307.6 234.4 307.5 237.3 301.4 237.9 304.0 234.1 303.0 231.8 261.3 233.4 Z" vector-effect="non-scaling-stroke" stroke="silver" stroke-width="1" class="highcharts-drilldown-point" style="cursor:pointer;"></path><path fill="rgb(173,195,191)" d="M 318.8 160.7 L 318.9 163.2 322.1 169.3 324.5 196.7 323.6 199.6 325.4 203.6 321.3 211.7 321.5 215.1 320.6 217.2 321.1 219.0 318.0 220.1 318.2 224.0 314.1 222.6 311.8 224.6 312.3 225.5 309.8 224.4 308.3 222.4 308.9 220.4 307.8 217.5 304.1 214.8 302.3 214.2 299.7 211.0 301.6 204.7 298.8 203.3 297.4 204.4 296.3 203.1 295.0 199.4 289.9 195.2 288.2 189.8 288.8 187.4 288.8 187.4 288.8 187.4 289.2 184.9 290.9 184.1 292.6 180.7 291.5 177.9 292.1 175.0 294.6 174.7 297.6 172.7 298.7 170.2 298.8 166.6 296.7 165.3 294.4 162.3 294.4 162.3 295.8 162.2 306.6 161.6 318.8 160.7 Z" vector-effect="non-scaling-stroke" stroke="silver" stroke-width="1" class="highcharts-drilldown-point" style="cursor:pointer;"></path><path fill="rgb(169,192,189)" d="M 322.1 169.3 L 324.2 170.3 327.9 168.4 345.5 166.4 345.6 167.1 346.2 171.8 349.2 197.1 349.6 200.7 346.5 202.2 344.0 202.1 344.5 204.2 341.3 207.5 339.6 211.4 337.2 209.7 333.3 212.9 332.5 211.9 329.5 213.9 327.0 213.0 325.5 214.2 322.8 213.6 321.5 215.1 321.3 211.7 325.4 203.6 323.6 199.6 324.5 196.7 322.1 169.3 Z" vector-effect="non-scaling-stroke" stroke="silver" stroke-width="1" class="highcharts-drilldown-point" style="cursor:pointer;"></path><path fill="rgb(165,190,186)" d="M 444.3 135.9 L 441.4 136.7 439.2 127.5 437.6 127.4 437.6 125.6 436.2 122.2 436.1 117.2 435.3 116.2 434.2 111.3 439.4 109.9 448.9 107.3 448.7 110.6 449.8 112.1 449.3 114.0 446.8 116.7 447.0 122.7 446.2 125.9 446.9 128.6 446.9 133.6 448.1 135.1 448.1 135.1 444.3 135.9 Z" vector-effect="non-scaling-stroke" stroke="silver" stroke-width="1" class="highcharts-drilldown-point" style="cursor:pointer;"></path><path fill="rgb(161,188,183)" d="M 69.6 247.5 L 69.7 245.0 71.5 243.2 74.3 241.9 72.5 239.3 71.3 232.7 72.2 230.6 72.1 226.8 73.0 220.1 74.7 219.7 78.4 221.8 79.5 219.9 81.3 211.0 111.3 216.5 127.2 219.0 122.5 251.6 117.7 284.4 98.3 281.3 63.4 260.9 64.9 258.6 66.7 258.7 67.9 256.0 66.0 254.4 66.6 250.6 69.6 247.5 Z" vector-effect="non-scaling-stroke" stroke="silver" stroke-width="1" class="highcharts-drilldown-point" style="cursor:pointer;"></path><path fill="rgb(157,185,180)" d="M 267.5 273.9 L 267.4 267.6 264.6 267.6 263.1 266.6 263.2 246.3 261.3 233.4 303.0 231.8 304.0 234.1 301.4 237.9 307.5 237.3 307.7 239.2 305.7 240.5 306.1 242.6 304.4 244.6 304.6 247.7 302.8 249.2 300.3 253.6 300.4 256.1 297.1 259.4 297.6 260.8 295.9 261.3 296.4 263.4 294.8 265.0 295.9 267.4 296.3 271.2 295.8 272.8 293.9 272.9 267.5 273.9 Z" vector-effect="non-scaling-stroke" stroke="silver" stroke-width="1" class="highcharts-drilldown-point" style="cursor:pointer;"></path><path fill="rgb(153,183,178)" d="M 263.1 266.6 L 264.6 267.6 267.4 267.6 267.5 273.9 267.8 285.7 270.1 289.0 270.0 290.5 273.4 296.8 271.3 302.4 271.6 308.1 270.8 309.2 268.2 312.8 262.1 315.7 261.1 314.9 261.6 312.2 258.7 313.1 258.3 314.7 261.4 317.1 252.4 323.9 248.8 324.8 248.2 325.8 244.1 328.2 237.7 334.1 239.1 331.3 237.6 330.3 235.6 331.9 237.6 332.3 235.6 334.9 233.8 334.7 235.0 336.6 233.4 340.6 232.6 339.8 230.2 341.4 233.1 341.3 231.8 344.4 234.3 355.0 236.1 356.9 233.0 358.2 229.0 355.6 224.5 355.3 222.9 353.9 220.1 353.2 218.4 351.7 215.4 351.1 214.7 347.4 211.6 343.3 211.4 337.2 209.4 336.1 205.7 330.1 203.6 328.3 202.6 324.8 200.4 320.8 200.1 318.5 196.7 315.1 193.0 310.3 185.8 309.6 183.7 308.3 182.7 309.7 179.9 309.8 177.2 315.1 174.4 318.3 172.8 318.0 168.1 314.4 165.4 313.4 160.9 309.1 159.7 305.8 159.9 302.8 157.2 296.9 153.9 294.5 148.1 287.4 146.6 286.7 145.0 283.3 143.6 282.6 142.4 279.7 178.0 283.1 182.3 231.2 182.7 231.0 210.7 232.7 209.8 255.1 212.8 257.2 216.8 257.2 217.4 259.4 224.2 261.4 228.0 260.7 229.3 263.6 232.0 262.6 235.0 264.5 236.5 263.6 237.5 265.7 239.4 263.1 242.0 263.5 245.1 266.1 248.9 263.8 252.2 263.1 254.6 264.1 255.9 263.0 259.3 265.4 263.1 266.6 M 235.9 336.9 L 233.7 342.1 233.7 345.4 234.8 350.9 233.5 346.6 233.8 340.5 235.9 336.9 Z" vector-effect="non-scaling-stroke" stroke="silver" stroke-width="1" class="highcharts-drilldown-point" style="cursor:pointer;"></path><path fill="rgb(150,180,175)" d="M 463.0 145.7 L 462.4 146.0 461.9 144.1 462.5 144.1 463.0 145.7 M 455.8 141.7 L 459.2 140.7 461.4 143.8 462.2 146.3 460.3 148.2 457.5 149.7 457.3 147.2 455.8 141.7 Z" vector-effect="non-scaling-stroke" stroke="silver" stroke-width="1" class="highcharts-drilldown-point" style="cursor:pointer;"></path><path fill="rgb(146,178,172)" d="M 335.3 299.6 L 333.2 302.5 328.5 302.6 325.4 301.5 323.1 284.1 324.0 248.9 323.1 247.8 323.0 247.6 347.6 245.4 354.3 268.6 358.2 276.0 356.9 277.8 356.4 281.5 357.8 284.8 357.5 287.9 358.9 290.9 333.0 293.7 332.8 295.2 335.3 297.7 335.3 299.6 Z" vector-effect="non-scaling-stroke" stroke="silver" stroke-width="1" class="highcharts-drilldown-point" style="cursor:pointer;"></path><path fill="rgb(142,175,170)" d="M 378.1 253.4 L 385.1 258.1 387.4 261.5 390.0 262.4 391.8 267.1 394.1 268.4 396.1 272.7 398.0 273.1 398.6 273.3 394.6 279.4 395.7 282.4 394.0 283.7 394.8 286.7 394.4 289.3 390.2 288.7 389.0 289.9 389.6 294.1 388.3 294.4 387.3 292.1 360.7 294.0 358.9 290.9 357.5 287.9 357.8 284.8 356.4 281.5 356.9 277.8 358.2 276.0 354.3 268.6 347.6 245.4 354.6 244.6 359.8 243.9 367.7 242.8 371.2 242.2 369.4 245.9 372.7 247.9 374.6 248.1 378.1 253.4 Z" vector-effect="non-scaling-stroke" stroke="silver" stroke-width="1" class="highcharts-drilldown-point" style="cursor:pointer;"></path><path fill="rgb(138,173,167)" d="M 325.4 301.5 L 320.8 301.7 316.1 303.3 314.2 304.7 310.6 299.2 311.4 295.4 292.1 296.6 292.0 293.4 293.1 293.2 293.1 290.7 294.8 286.4 297.1 284.4 298.7 280.5 296.8 279.3 295.8 272.8 296.3 271.2 295.9 267.4 294.8 265.0 296.4 263.4 295.9 261.3 297.6 260.8 297.1 259.4 300.4 256.1 300.3 253.6 302.8 249.2 318.9 248.1 323.1 247.8 324.0 248.9 323.1 284.1 325.4 301.5 Z" vector-effect="non-scaling-stroke" stroke="silver" stroke-width="1" class="highcharts-drilldown-point" style="cursor:pointer;"></path><path fill="rgb(134,171,164)" d="M 385.1 258.1 L 381.7 255.4 378.1 253.4 374.6 248.1 372.7 247.9 369.4 245.9 371.2 242.2 378.7 238.7 390.2 237.4 393.3 239.2 393.7 240.8 404.3 239.2 416.6 247.8 413.6 251.2 412.2 254.1 412.3 256.9 405.5 264.8 402.5 266.9 399.1 267.2 401.7 268.0 398.0 273.1 396.1 272.7 394.1 268.4 391.8 267.1 390.0 262.4 387.4 261.5 385.1 258.1 Z" vector-effect="non-scaling-stroke" stroke="silver" stroke-width="1" class="highcharts-drilldown-point" style="cursor:pointer;"></path><path fill="rgb(130,168,161)" d="M 435.1 212.2 L 435.3 212.8 434.1 212.4 434.1 212.4 434.6 212.3 434.6 212.4 434.8 212.3 434.9 212.2 435.1 212.2 M 435.6 212.1 L 436.9 215.0 441.2 220.7 438.1 217.4 435.4 212.1 435.5 212.1 435.6 212.1 M 396.7 220.0 L 434.0 212.5 437.4 217.2 433.0 215.6 434.7 216.8 429.1 220.7 437.1 218.5 438.6 220.0 438.7 223.0 437.6 222.5 436.6 225.8 434.8 226.6 431.6 225.5 431.6 226.7 427.7 226.3 432.8 227.5 431.5 229.4 432.6 229.7 429.5 232.1 433.3 231.9 433.8 230.1 435.3 231.8 433.0 234.8 428.3 235.9 424.0 240.4 422.9 242.6 422.4 247.0 419.5 246.7 416.6 247.8 404.3 239.2 393.7 240.8 393.3 239.2 390.2 237.4 378.7 238.7 371.2 242.2 367.7 242.8 359.8 243.9 359.9 240.8 361.5 240.5 362.1 238.5 364.1 236.7 366.7 236.2 370.3 233.1 371.6 231.0 374.0 229.4 374.6 230.3 377.8 227.6 379.0 228.1 381.7 224.3 382.1 221.6 386.2 221.5 396.7 220.0 Z" vector-effect="non-scaling-stroke" stroke="silver" stroke-width="1" class="highcharts-drilldown-point" style="cursor:pointer;"></path><path fill="rgb(127,166,159)" d="M 434.8 212.3 L 435.0 211.9 435.1 212.2 434.9 212.2 434.8 212.3 M 435.4 212.1 L 434.2 210.5 434.6 212.3 434.1 212.4 434.1 212.4 433.8 212.0 434.0 212.5 396.7 220.0 386.2 221.5 382.1 221.6 379.4 222.2 363.4 224.5 368.1 222.1 370.3 220.1 372.1 216.7 374.5 215.0 377.6 211.4 379.3 214.1 382.0 214.6 383.6 212.9 384.9 213.7 387.3 212.7 392.9 209.3 392.6 207.2 395.9 199.6 396.6 195.8 400.0 197.2 401.9 191.9 402.9 192.3 406.3 187.2 406.4 183.8 411.5 186.4 411.9 184.1 414.5 184.6 414.3 185.8 418.3 187.5 418.6 187.8 418.9 187.8 419.3 189.3 419.5 189.9 419.0 190.2 418.0 190.9 417.5 193.9 418.6 194.6 420.3 193.5 422.3 195.7 424.7 195.4 425.7 196.7 428.6 197.5 428.7 200.9 422.3 198.0 426.9 201.3 429.8 202.7 428.2 203.9 430.4 207.7 429.3 208.4 426.6 205.9 423.2 206.0 426.2 207.0 429.0 209.3 430.8 208.2 433.5 208.2 435.6 212.1 435.5 212.1 435.4 212.1 M 437.3 194.1 L 436.9 195.8 437.1 194.2 437.3 194.1 M 433.9 195.6 L 434.0 195.3 436.1 194.5 433.2 203.0 434.2 204.7 433.4 206.2 432.2 203.7 432.2 200.6 433.9 195.6 Z" vector-effect="non-scaling-stroke" stroke="silver" stroke-width="1" class="highcharts-drilldown-point" style="cursor:pointer;"></path><path fill="rgb(123,163,156)" d="M 294.4 162.3 L 296.7 165.3 298.8 166.6 298.7 170.2 297.6 172.7 294.6 174.7 292.1 175.0 291.5 177.9 292.6 180.7 290.9 184.1 289.2 184.9 288.8 187.4 288.8 187.4 288.8 187.4 286.1 184.8 274.0 185.7 261.8 186.1 250.4 185.9 250.3 185.9 250.3 185.4 249.4 177.7 247.6 174.8 247.7 172.0 245.3 167.2 244.9 163.8 244.2 163.6 242.8 160.9 244.4 156.6 243.5 155.3 243.3 152.2 244.4 152.1 274.8 151.7 288.6 151.1 290.1 153.6 289.5 155.0 290.8 159.8 293.8 160.7 294.5 162.1 294.4 162.3 294.4 162.3 Z" vector-effect="non-scaling-stroke" stroke="silver" stroke-width="1" class="highcharts-drilldown-point" style="cursor:pointer;"></path><path fill="rgb(119,161,153)" d="M 437.1 194.2 L 437.5 193.1 437.3 194.1 437.1 194.2 M 437.9 188.8 L 437.9 190.2 437.8 188.9 437.8 188.9 437.9 188.8 M 436.1 194.5 L 434.0 195.3 433.9 195.6 432.0 196.4 432.2 193.7 429.6 193.3 426.6 191.2 429.1 189.6 425.9 187.9 427.4 186.2 426.0 185.7 425.3 183.4 426.8 180.2 427.1 177.7 424.0 182.5 422.4 182.7 424.1 184.4 423.6 186.9 424.7 191.0 426.0 193.1 423.7 191.8 427.4 195.0 427.6 196.1 425.0 194.8 422.4 194.7 420.1 192.5 418.9 194.1 418.0 192.8 419.0 190.2 419.3 189.3 419.5 188.8 420.3 187.6 418.3 187.5 414.3 185.8 414.5 184.6 411.9 184.1 410.3 181.1 407.6 180.6 405.1 182.0 405.0 183.1 402.0 182.5 400.8 184.9 399.8 184.7 396.6 188.5 395.6 182.7 410.9 179.7 428.1 176.0 432.2 190.1 437.6 188.9 437.5 191.5 436.1 194.5 Z" vector-effect="non-scaling-stroke" stroke="silver" stroke-width="1" class="highcharts-drilldown-point" style="cursor:pointer;"></path><path fill="rgb(115,159,151)" d="M 437.8 188.9 L 437.6 188.8 437.6 188.9 432.2 190.1 428.1 176.0 429.4 174.3 431.0 174.3 430.0 176.8 430.9 178.2 431.0 178.3 432.2 179.9 433.3 182.8 436.0 185.3 436.7 185.1 437.9 188.8 437.8 188.9 437.8 188.9 Z" vector-effect="non-scaling-stroke" stroke="silver" stroke-width="1" class="highcharts-drilldown-point" style="cursor:pointer;"></path><path fill="rgb(111,156,148)" d="M 430.6 163.1 L 431.3 161.3 430.4 160.5 433.2 155.3 437.0 156.6 440.9 157.8 440.7 161.2 439.1 164.2 442.2 165.4 442.7 172.5 441.2 174.8 441.1 177.3 439.4 179.6 438.2 182.9 437.5 180.7 435.1 180.8 431.0 178.3 430.9 178.3 430.9 178.2 431.0 174.7 433.3 173.0 434.0 171.2 436.1 168.9 432.0 165.2 430.6 163.1 Z" vector-effect="non-scaling-stroke" stroke="silver" stroke-width="1" class="highcharts-drilldown-point" style="cursor:pointer;"></path><path fill="rgb(107,154,145)" d="M 430.4 160.5 L 430.6 163.1 432.0 165.2 436.1 168.9 434.0 171.2 433.2 172.7 431.0 174.3 429.4 174.3 428.1 176.0 410.9 179.7 395.6 182.7 386.5 184.3 384.6 173.7 384.6 173.7 382.0 158.4 383.2 157.7 387.9 154.0 388.4 157.0 426.1 149.3 428.7 150.8 429.4 153.1 433.2 155.3 433.2 155.3 430.4 160.5 Z" vector-effect="non-scaling-stroke" stroke="silver" stroke-width="1" class="highcharts-drilldown-point" style="cursor:pointer;"></path><path fill="rgb(103,151,142)" d="M 433.2 155.3 L 429.4 153.1 428.7 150.8 426.1 149.3 388.4 157.0 387.9 154.0 392.4 149.4 394.2 146.0 392.0 143.3 391.7 141.3 394.6 139.8 399.4 138.5 404.4 139.1 409.0 137.8 411.1 136.7 413.1 133.9 414.9 132.9 413.9 129.9 412.1 127.0 413.3 124.8 415.6 123.3 416.3 120.7 419.1 116.7 421.9 114.2 434.2 111.3 435.3 116.2 436.1 117.2 436.2 122.2 437.6 125.6 437.6 127.4 439.2 127.5 441.4 136.7 441.2 144.7 441.6 144.9 443.2 153.6 443.9 154.4 442.2 156.2 443.2 157.1 442.5 159.3 444.7 157.4 452.0 155.0 453.8 152.7 455.8 152.7 458.2 152.3 454.1 156.0 451.5 157.3 449.3 159.5 445.0 161.8 441.4 162.7 439.4 164.1 441.4 160.2 440.8 160.7 440.9 157.8 437.0 156.6 434.2 155.7 433.2 155.3 433.2 155.3 Z" vector-effect="non-scaling-stroke" stroke="silver" stroke-width="1" class="highcharts-drilldown-point" style="cursor:pointer;"></path><path fill="rgb(100,149,140)" d="M 86.2 68.9 L 93.7 70.6 91.1 82.0 92.9 86.1 92.2 89.1 94.7 91.6 99.3 100.1 101.0 100.1 99.3 104.6 98.9 109.0 97.4 110.0 97.0 112.5 98.4 113.8 101.9 112.0 103.1 113.6 103.1 116.9 104.6 120.8 105.0 123.4 106.2 123.5 107.0 127.7 108.1 128.9 109.7 127.7 112.2 128.6 113.5 127.6 117.0 128.7 119.5 128.6 121.4 127.0 123.1 130.1 119.8 149.9 118.3 158.8 107.1 156.9 92.8 154.1 84.9 152.5 67.5 148.6 72.3 128.4 74.4 124.1 72.2 122.2 72.6 120.1 76.9 115.8 79.5 111.3 81.6 109.0 81.5 106.9 79.9 105.5 79.4 103.4 79.1 98.8 86.2 68.9 Z" vector-effect="non-scaling-stroke" stroke="silver" stroke-width="1" class="highcharts-drilldown-point" style="cursor:pointer;"></path><path fill="rgb(96,146,137)" d="M 179.5 154.9 L 179.9 150.6 181.6 131.7 181.7 131.7 182.7 120.7 234.2 123.5 243.8 123.6 243.1 125.7 241.2 127.6 242.6 129.9 244.6 131.2 244.4 152.1 243.3 152.2 243.5 155.3 244.4 156.6 242.8 160.9 244.2 163.6 242.2 161.7 237.2 159.2 232.6 159.3 230.5 160.0 227.0 157.7 179.5 154.9 Z" vector-effect="non-scaling-stroke" stroke="silver" stroke-width="1" class="highcharts-drilldown-point" style="cursor:pointer;"></path><path fill="rgb(92,144,134)" d="M 457.5 149.7 L 457.0 149.4 452.1 151.8 448.9 152.7 443.2 157.1 442.2 156.2 443.9 154.4 443.2 153.6 441.6 144.9 447.7 143.6 455.8 141.7 457.3 147.2 457.5 149.7 Z" vector-effect="non-scaling-stroke" stroke="silver" stroke-width="1" class="highcharts-drilldown-point" style="cursor:pointer;"></path><path fill="rgb(88,142,131)" d="M 461.2 127.2 L 461.5 127.3 461.3 129.7 458.7 131.2 457.8 132.8 448.1 135.1 448.1 135.1 446.9 133.6 446.9 128.6 446.2 125.9 447.0 122.7 446.8 116.7 449.3 114.0 449.8 112.1 448.7 110.6 448.9 107.3 449.4 103.8 451.4 103.1 457.9 122.4 458.4 124.4 461.2 127.2 Z" vector-effect="non-scaling-stroke" stroke="silver" stroke-width="1" class="highcharts-drilldown-point" style="cursor:pointer;"></path><path fill="rgb(84,139,129)" d="M 308.7 231.4 L 308.5 230.7 309.3 231.3 308.7 231.4 M 309.9 231.3 L 312.4 228.4 312.3 225.5 311.8 224.6 314.1 222.6 318.2 224.0 318.0 220.1 321.1 219.0 320.6 217.2 321.5 215.1 322.8 213.6 325.5 214.2 327.0 213.0 329.5 213.9 332.5 211.9 333.3 212.9 337.2 209.7 339.6 211.4 341.3 207.5 344.5 204.2 344.0 202.1 346.5 202.2 349.6 200.7 349.2 197.1 352.6 196.6 355.2 199.7 358.3 199.9 359.9 201.1 361.3 200.1 363.6 201.0 367.1 198.8 367.9 200.6 370.3 202.2 370.3 202.2 370.3 202.2 370.4 205.3 374.3 210.2 377.6 211.4 374.5 215.0 372.1 216.7 370.3 220.1 368.1 222.1 363.4 224.5 362.9 224.8 336.6 227.1 324.7 228.4 322.4 228.0 322.9 230.2 309.9 231.3 M 370.3 202.2 L 370.4 202.2 370.3 202.2 370.3 202.2 370.3 202.2 370.3 202.2 Z" vector-effect="non-scaling-stroke" stroke="silver" stroke-width="1" class="highcharts-drilldown-point" style="cursor:pointer;"></path><path fill="rgb(81,137,126)" d="M 345.6 167.1 L 350.0 166.5 357.2 165.2 362.5 166.8 361.9 167.4 366.0 167.9 369.8 166.0 373.0 165.3 375.4 162.5 382.0 158.4 384.6 173.7 383.4 174.6 384.5 178.0 383.2 184.2 383.5 185.9 380.8 189.0 378.6 189.4 376.1 193.6 375.8 196.0 374.1 194.8 373.2 197.4 373.7 199.4 372.6 201.6 370.4 202.2 370.3 202.2 367.9 200.6 367.1 198.8 363.6 201.0 361.3 200.1 359.9 201.1 358.3 199.9 355.2 199.7 352.6 196.6 349.2 197.1 346.2 171.8 345.6 167.1 Z" vector-effect="non-scaling-stroke" stroke="silver" stroke-width="1" class="highcharts-drilldown-point" style="cursor:pointer;"></path><path fill="rgb(77,134,123)" d="M 307.5 237.3 L 307.6 234.4 308.7 231.4 309.3 231.3 309.5 231.9 309.9 231.3 322.9 230.2 322.4 228.0 324.7 228.4 336.6 227.1 362.9 224.8 363.4 224.5 379.4 222.2 382.1 221.6 381.7 224.3 379.0 228.1 377.8 227.6 374.6 230.3 374.0 229.4 371.6 231.0 370.3 233.1 366.7 236.2 364.1 236.7 362.1 238.5 361.5 240.5 359.9 240.8 359.8 243.9 354.6 244.6 347.6 245.4 323.0 247.6 323.1 247.8 318.9 248.1 302.8 249.2 304.6 247.7 304.4 244.6 306.1 242.6 305.7 240.5 307.7 239.2 307.5 237.3 Z" vector-effect="non-scaling-stroke" stroke="silver" stroke-width="1" class="highcharts-drilldown-point" style="cursor:pointer;"></path><path fill="rgb(73,132,121)" d="M 370.3 202.2 L 370.4 202.2 372.6 201.6 373.7 199.4 373.2 197.4 374.1 194.8 375.8 196.0 376.1 193.6 378.6 189.4 380.8 189.0 383.5 185.9 383.2 184.2 384.5 178.0 383.4 174.6 384.6 173.7 386.5 184.3 395.6 182.7 396.6 188.5 399.8 184.7 400.8 184.9 402.0 182.5 405.0 183.1 405.1 182.0 407.6 180.6 410.3 181.1 411.9 184.1 411.5 186.4 406.4 183.8 406.3 187.2 402.9 192.3 401.9 191.9 400.0 197.2 396.6 195.8 395.9 199.6 392.6 207.2 392.9 209.3 387.3 212.7 384.9 213.7 383.6 212.9 382.0 214.6 379.3 214.1 377.6 211.4 374.3 210.2 370.4 205.3 370.3 202.2 370.3 202.2 370.3 202.2 370.3 202.2 370.3 202.2 Z" vector-effect="non-scaling-stroke" stroke="silver" stroke-width="1" class="highcharts-drilldown-point" style="cursor:pointer;"></path><path fill="rgb(69,130,118)" d="M 419.5 188.8 L 419.4 188.2 418.9 187.8 418.6 187.8 418.3 187.5 420.3 187.6 419.5 188.8 Z" vector-effect="non-scaling-stroke" stroke="silver" stroke-width="1" class="highcharts-drilldown-point" style="cursor:pointer;"></path><path fill="rgb(65,127,115)" d="M 314.2 304.7 L 309.6 304.2 307.0 302.9 305.0 305.9 309.2 306.9 310.6 305.4 313.1 305.4 311.5 307.8 313.5 308.4 315.0 306.1 316.5 307.8 312.6 311.3 314.7 313.9 318.2 314.3 320.1 315.8 319.1 317.9 316.6 317.5 315.3 316.0 311.9 315.2 312.6 314.3 309.1 313.1 309.6 316.6 307.9 318.2 307.2 316.5 305.0 315.7 303.6 317.8 301.1 318.0 296.4 316.4 296.9 314.0 294.1 313.7 292.5 311.2 290.8 310.3 287.9 311.6 288.2 312.9 292.2 313.2 291.1 314.4 288.0 313.3 286.5 314.0 282.3 313.4 277.0 311.5 270.5 312.6 270.8 309.2 271.6 308.1 271.3 302.4 273.4 296.8 270.0 290.5 270.1 289.0 267.8 285.7 267.5 273.9 293.9 272.9 295.8 272.8 296.8 279.3 298.7 280.5 297.1 284.4 294.8 286.4 293.1 290.7 293.1 293.2 292.0 293.4 292.1 296.6 311.4 295.4 310.6 299.2 314.2 304.7 Z" vector-effect="non-scaling-stroke" stroke="silver" stroke-width="1" class="highcharts-drilldown-point" style="cursor:pointer;"></path><path fill="rgb(61,125,112)" d="M 335.3 299.6 L 335.3 297.7 332.8 295.2 333.0 293.7 358.9 290.9 360.7 294.0 387.3 292.1 388.3 294.4 389.6 294.1 389.0 289.9 390.2 288.7 394.4 289.3 395.1 289.3 396.3 293.9 398.9 300.2 403.4 307.4 408.6 313.6 408.1 314.5 409.5 318.9 411.9 322.3 416.3 330.3 417.4 335.1 417.9 342.9 416.6 348.0 417.1 352.0 409.4 353.7 406.2 347.2 402.1 345.0 400.9 345.4 398.9 339.9 396.1 340.2 395.8 334.9 393.1 335.5 388.5 329.3 390.6 324.6 390.1 323.2 388.3 323.9 388.3 326.1 386.1 325.2 385.9 320.9 386.7 317.4 386.3 312.4 384.0 309.2 381.8 309.5 377.3 305.9 373.9 301.7 370.1 300.0 366.6 301.4 364.9 304.4 361.2 307.0 357.3 306.7 357.6 305.3 353.4 301.9 349.2 300.2 344.5 299.5 334.4 302.0 335.3 299.6 Z" vector-effect="non-scaling-stroke" stroke="silver" stroke-width="1" class="highcharts-drilldown-point" style="cursor:pointer;"></path><path fill="rgb(58,122,110)" d="M 238.8 87.7 L 254.7 87.7 254.8 83.3 257.4 84.1 258.4 89.9 262.1 91.6 264.9 91.7 265.9 93.1 269.7 91.7 274.6 92.6 276.8 96.1 279.4 94.8 282.3 97.5 284.4 98.1 288.3 95.6 289.4 97.1 294.2 96.6 295.9 97.7 298.6 97.7 295.2 100.2 291.7 101.5 288.0 104.3 284.3 108.9 279.6 113.2 278.2 114.6 278.5 121.3 275.2 123.5 273.9 125.8 273.9 127.5 275.7 128.9 275.1 130.7 274.8 137.0 276.8 138.7 280.9 140.5 284.8 144.6 288.0 146.3 288.6 151.1 274.8 151.7 244.4 152.1 244.6 131.2 242.6 129.9 241.2 127.6 243.1 125.7 243.8 123.6 243.4 119.1 241.9 115.4 241.5 105.4 239.4 97.4 239.2 93.1 239.7 91.7 238.8 87.7 Z" vector-effect="non-scaling-stroke" stroke="silver" stroke-width="1" class="highcharts-drilldown-point" style="cursor:pointer;"></path><path fill="rgb(54,120,107)" d="M 93.7 70.6 L 120.4 76.1 185.8 85.0 182.8 118.5 182.7 120.7 181.7 131.7 181.6 131.7 124.1 124.3 123.1 130.1 121.4 127.0 119.5 128.6 117.0 128.7 113.5 127.6 112.2 128.6 109.7 127.7 108.1 128.9 107.0 127.7 106.2 123.5 105.0 123.4 104.6 120.8 103.1 116.9 103.1 113.6 101.9 112.0 98.4 113.8 97.0 112.5 97.4 110.0 98.9 109.0 99.3 104.6 101.0 100.1 99.3 100.1 94.7 91.6 92.2 89.1 92.9 86.1 91.1 82.0 93.7 70.6 Z" vector-effect="non-scaling-stroke" stroke="silver" stroke-width="1" class="highcharts-drilldown-point" style="cursor:pointer;"></path><path fill="rgb(50,117,104)" d="M 182.7 120.7 L 182.8 118.5 185.8 85.0 200.0 86.1 238.8 87.7 239.7 91.7 239.2 93.1 239.4 97.4 241.5 105.4 241.9 115.4 243.4 119.1 243.8 123.6 234.2 123.5 182.7 120.7 Z" vector-effect="non-scaling-stroke" stroke="silver" stroke-width="1" class="highcharts-drilldown-point" style="cursor:pointer;"></path><path fill="rgb(46,115,102)" d="M 127.2 219.0 L 111.3 216.5 81.3 211.0 86.3 186.2 92.8 154.1 107.1 156.9 118.3 158.8 116.4 170.3 133.8 173.0 132.8 180.2 127.2 219.0 Z" vector-effect="non-scaling-stroke" stroke="silver" stroke-width="1" class="highcharts-drilldown-point" style="cursor:pointer;"></path><path fill="rgb(42,113,99)" d="M 173.3 366.6 L 173.5 366.8 173.7 366.7 174.0 366.7 175.0 367.1 175.8 367.5 177.3 368.4 177.7 368.9 178.0 369.2 178.0 370.1 178.0 370.5 178.3 370.5 178.6 370.3 178.9 370.5 179.0 370.7 179.0 371.1 179.1 371.3 179.2 371.6 179.7 372.0 180.2 372.2 180.4 372.3 180.5 372.5 180.4 372.8 179.9 373.4 179.5 373.6 179.0 374.1 178.6 374.2 178.6 374.4 178.2 374.4 178.0 374.6 177.0 374.9 176.6 374.8 176.4 374.8 176.2 374.9 175.7 375.2 175.5 375.4 175.2 375.5 174.9 375.8 174.4 376.0 174.3 376.1 173.9 376.4 173.8 376.6 173.8 376.9 173.4 377.4 173.3 377.8 173.1 377.9 172.8 378.3 172.7 378.2 172.7 378.0 172.5 377.9 172.1 377.7 171.5 377.3 170.9 377.1 170.8 376.8 170.7 376.7 170.6 376.5 170.5 376.1 170.6 375.6 170.8 374.2 170.8 374.0 170.7 373.8 170.4 372.8 170.2 372.5 170.2 372.3 170.1 372.1 170.0 371.7 169.8 371.4 169.7 371.3 169.5 371.1 169.2 370.5 169.4 370.0 169.9 369.6 169.9 369.4 170.1 369.3 170.4 369.2 170.7 368.8 170.9 368.4 171.1 368.2 171.3 368.2 171.4 367.8 171.3 367.6 171.1 367.4 170.8 367.0 170.7 366.5 170.7 365.9 170.8 365.6 171.0 365.5 171.3 365.5 172.1 365.6 172.2 365.9 172.4 366.1 172.7 366.2 172.9 366.4 173.1 366.5 173.3 366.6 M 165.0 363.0 L 164.9 363.1 164.6 363.1 164.4 363.1 164.0 363.2 163.7 363.2 163.5 363.0 163.6 362.9 163.8 362.7 164.3 362.4 164.5 362.3 164.7 362.3 165.0 362.6 164.8 362.9 165.0 363.0 M 161.6 361.1 L 161.1 361.1 161.0 360.8 160.9 360.6 160.9 360.2 160.9 360.0 160.7 359.9 160.3 359.8 160.2 359.6 160.3 359.4 160.5 359.3 160.9 359.2 161.8 359.4 162.2 359.7 162.4 360.0 162.6 360.3 162.5 360.5 162.3 360.8 161.9 361.0 161.6 361.1 M 164.5 358.3 L 164.5 358.4 164.9 358.5 164.9 358.6 165.0 358.7 165.1 358.9 165.2 359.0 165.4 359.5 165.6 359.4 165.7 359.3 165.9 359.3 166.4 359.3 166.6 359.1 166.8 359.0 167.1 359.0 167.6 359.1 167.7 359.2 167.8 359.3 168.0 359.5 168.3 359.8 168.3 359.8 168.5 359.8 168.6 359.9 168.7 360.1 169.0 360.1 169.3 360.3 169.7 360.4 169.9 360.8 169.9 361.2 169.7 361.5 169.5 361.6 169.3 361.8 169.1 361.8 168.6 362.1 168.1 362.1 167.9 362.1 167.5 362.3 167.0 362.5 166.6 362.4 166.5 362.4 166.1 362.4 165.9 362.2 165.7 362.0 165.8 361.9 165.8 361.7 165.7 361.1 165.6 361.0 165.7 360.8 165.6 360.6 165.4 360.5 165.1 360.5 165.1 360.7 165.0 360.7 164.7 360.5 164.5 360.5 164.3 360.4 164.2 360.4 163.9 360.0 163.6 359.7 163.6 359.5 163.5 359.3 163.6 358.9 163.7 358.7 163.8 358.5 163.9 358.5 164.1 358.3 164.2 358.3 164.4 358.2 164.5 358.3 M 158.6 356.5 L 158.9 356.5 159.0 356.5 159.1 356.6 159.3 356.6 160.5 356.8 160.9 356.8 161.0 356.6 161.1 356.5 161.2 356.7 161.3 356.9 161.7 357.0 162.2 357.0 162.4 357.0 162.6 356.9 162.8 356.9 163.0 356.9 163.1 356.9 163.2 357.0 163.4 357.1 163.3 357.4 163.0 357.7 162.7 357.8 162.3 358.0 162.0 358.1 161.6 358.0 161.3 358.0 160.6 357.8 160.2 357.6 159.1 357.7 158.8 357.7 158.4 357.7 158.2 357.7 158.1 357.5 158.1 357.4 158.3 357.1 158.4 357.0 158.6 356.9 158.6 356.7 158.5 356.5 158.6 356.5 M 152.8 352.9 L 152.9 353.1 153.0 353.1 153.0 353.3 153.2 353.3 153.3 353.5 153.3 353.7 153.2 353.8 153.3 354.2 153.5 354.3 153.6 354.5 153.8 354.6 153.9 354.7 154.0 354.5 153.9 354.4 153.9 354.3 154.0 354.2 154.2 354.3 154.3 354.2 154.4 354.3 154.2 354.4 154.2 354.7 154.4 354.8 154.5 355.0 154.5 355.1 154.6 355.4 155.0 355.6 155.0 355.7 154.6 356.1 154.5 356.1 154.5 356.0 154.4 355.9 154.0 356.0 153.7 356.1 153.5 356.1 153.4 355.9 152.9 355.7 152.8 355.5 152.8 355.4 152.6 355.6 152.7 355.7 152.3 355.7 152.4 355.6 152.3 355.6 152.2 355.6 152.2 355.3 152.4 355.1 152.5 355.0 152.2 354.9 152.2 355.0 152.0 354.9 152.0 355.1 152.0 355.2 151.7 354.9 151.8 355.1 152.1 355.4 152.0 355.5 151.9 355.6 151.0 355.8 150.8 355.7 150.8 355.3 150.7 355.1 150.5 354.8 150.3 354.7 150.3 354.5 150.2 354.4 150.0 354.2 149.8 354.0 149.8 353.5 149.8 353.4 149.4 353.1 149.8 353.0 150.2 353.0 150.8 353.0 150.9 352.9 151.0 352.8 151.3 352.6 151.3 352.5 151.4 352.2 151.8 351.9 152.0 351.9 152.2 351.9 152.5 352.2 152.6 352.5 152.6 352.6 152.8 352.9 M 132.3 351.0 L 132.2 351.0 132.0 350.9 131.9 350.6 131.9 350.4 132.0 350.2 132.3 349.8 132.6 349.6 133.0 349.4 133.1 349.2 133.1 349.0 133.2 348.9 133.4 348.9 133.6 349.0 133.6 349.2 133.4 349.4 133.4 349.6 133.4 349.8 133.3 350.0 133.0 350.1 132.9 350.2 132.5 350.4 132.5 350.6 132.3 351.0 M 139.6 346.9 L 139.7 347.0 139.8 347.0 140.0 347.1 140.1 347.2 140.2 347.3 140.3 347.7 140.4 347.7 140.4 348.1 140.3 348.2 140.2 348.5 140.0 348.6 140.0 348.9 140.1 349.2 140.0 349.5 139.8 349.5 139.9 349.7 139.7 349.7 139.6 349.8 139.5 350.0 139.2 350.2 139.1 350.3 138.7 350.1 138.3 350.1 137.8 350.0 137.7 350.0 137.6 350.1 137.6 350.0 137.3 349.9 137.2 349.6 137.1 349.6 137.0 349.5 136.8 349.4 136.5 349.3 136.2 349.2 136.1 349.0 136.0 348.8 136.0 348.4 136.1 348.4 136.5 348.0 136.5 347.7 136.6 347.6 137.1 347.5 137.3 347.3 137.5 347.2 137.7 347.1 137.8 347.0 138.1 346.9 138.2 347.0 138.6 347.1 138.6 347.0 138.7 346.9 139.1 346.9 139.3 347.0 139.5 346.9 139.6 346.9 Z" vector-effect="non-scaling-stroke" stroke="silver" stroke-width="1" class="highcharts-drilldown-point" style="cursor:pointer;"></path><path fill="rgb(38,110,96)" d="M 59.1 307.1 L 59.1 306.9 59.9 306.3 60.8 306.7 62.3 306.8 63.7 306.1 64.5 305.2 66.1 306.1 66.0 306.7 65.3 306.9 65.3 307.6 65.8 307.6 66.6 306.5 67.4 307.2 67.2 308.0 67.9 308.3 68.3 307.9 69.2 307.9 70.8 308.7 70.0 309.7 71.3 309.9 70.9 310.4 72.1 310.6 74.0 310.5 75.3 310.7 76.2 311.6 76.6 311.4 77.1 312.0 78.1 312.4 80.0 312.5 80.9 313.3 82.0 313.4 82.8 313.0 84.0 312.8 85.1 313.3 85.6 314.0 86.3 314.2 86.9 314.9 87.6 314.9 89.0 357.1 90.1 357.5 90.3 357.2 91.2 357.6 92.0 356.9 93.3 356.8 93.1 358.0 94.3 358.8 94.6 359.4 97.0 361.5 97.6 363.0 98.8 361.7 99.3 361.7 99.7 359.6 101.6 358.5 102.8 359.6 102.7 360.1 104.5 361.6 105.0 362.5 105.9 362.8 107.3 364.1 110.9 369.1 110.7 369.7 111.5 369.8 111.4 370.6 112.1 370.8 112.4 371.7 112.9 371.6 116.9 373.1 117.4 373.9 117.1 374.7 118.0 376.7 117.4 378.5 116.6 379.3 116.0 379.3 115.3 377.6 115.7 376.8 115.3 375.2 114.4 374.2 113.8 374.1 113.1 374.8 112.8 376.6 111.8 375.6 112.3 375.3 112.5 373.4 110.7 371.9 110.5 371.2 108.5 369.6 107.7 369.7 108.0 368.6 107.3 367.9 107.2 366.3 107.0 367.0 105.9 365.9 105.8 364.3 105.4 365.3 105.1 365.2 105.3 365.4 104.5 365.2 104.3 364.9 104.9 365.0 104.0 364.6 102.2 360.9 102.3 362.4 103.4 364.9 103.2 365.5 102.4 364.9 101.3 365.0 101.4 364.3 100.6 362.8 100.5 363.4 98.4 362.2 98.5 363.0 99.5 363.0 100.9 364.4 100.9 365.2 99.7 365.3 99.6 365.9 99.0 365.2 98.4 365.2 97.1 364.3 95.5 362.4 93.3 361.4 91.7 360.5 92.6 359.6 92.2 358.9 90.6 359.8 89.9 359.8 88.1 359.2 88.5 358.5 87.4 358.7 85.0 358.1 82.4 358.6 81.7 357.9 80.2 357.2 80.6 355.5 80.0 356.2 79.8 357.1 78.8 356.5 77.9 356.4 78.7 355.4 77.3 355.5 76.3 355.0 76.8 354.7 76.3 354.0 75.1 354.3 74.2 354.0 73.6 354.6 73.2 354.3 74.2 352.5 73.4 353.6 73.2 353.1 72.5 355.3 73.0 354.7 73.5 356.0 73.3 356.9 72.8 356.7 72.8 358.0 72.5 357.4 72.2 358.3 71.2 358.3 70.5 357.9 69.4 358.4 69.1 359.4 68.8 359.1 67.5 360.2 68.0 359.1 66.8 360.7 66.1 361.0 65.1 360.8 64.1 361.1 63.8 360.4 65.1 359.8 66.3 358.6 65.2 359.1 64.3 358.3 65.5 356.6 66.1 355.1 65.9 354.2 66.7 354.0 68.2 353.1 69.0 353.7 69.5 353.5 71.0 354.0 69.1 352.6 69.3 352.2 68.3 352.1 68.2 351.5 66.6 352.7 65.7 352.9 63.7 355.0 63.9 355.4 62.9 356.1 63.0 356.6 61.6 358.3 60.1 358.3 59.9 359.1 58.9 359.3 58.5 360.9 59.7 360.9 60.5 362.1 58.4 363.3 58.5 363.9 57.6 364.3 56.8 365.2 55.7 365.1 54.6 366.2 54.2 365.8 53.7 366.9 53.0 366.6 51.5 367.6 52.0 367.6 51.2 369.0 50.7 368.6 49.5 369.6 49.0 369.1 48.7 370.1 48.0 369.7 45.8 370.8 46.5 371.3 45.0 372.4 43.3 372.5 42.7 372.8 42.0 372.2 39.4 373.4 38.9 373.0 37.8 373.5 37.2 373.2 37.8 372.5 37.2 372.1 35.7 374.0 34.7 374.4 34.4 372.8 33.4 374.3 33.0 373.4 32.7 374.1 31.9 374.4 32.2 373.2 33.5 372.6 34.7 372.6 34.7 372.1 37.0 370.8 39.5 370.9 39.6 371.5 40.9 372.1 40.3 371.2 41.1 370.0 43.0 369.1 45.2 368.4 45.9 368.9 46.1 367.7 47.3 366.6 49.0 365.8 49.7 363.5 50.2 363.0 50.3 361.9 51.6 361.0 51.7 360.2 49.0 360.9 48.2 359.8 48.7 358.7 47.4 359.8 47.4 361.0 46.7 361.3 46.0 358.8 45.1 359.2 44.4 358.7 44.4 357.6 43.0 358.3 41.9 358.3 41.6 358.8 39.7 358.3 40.9 358.2 41.0 357.0 40.8 355.7 41.9 354.9 41.3 351.8 41.5 350.6 40.7 352.2 39.3 352.4 38.0 352.3 37.0 351.8 37.2 351.0 36.7 350.4 36.5 349.3 35.8 348.9 35.2 347.6 37.3 347.1 38.0 347.5 38.2 348.1 38.7 347.7 39.1 348.8 39.8 348.2 38.8 347.4 37.5 347.0 37.5 346.6 36.4 346.3 36.9 346.0 36.4 344.8 36.1 345.4 35.5 343.6 36.0 343.2 35.2 342.5 36.2 342.5 35.8 341.6 36.9 341.9 37.1 340.7 38.9 339.4 39.4 339.4 39.9 338.1 40.9 337.1 42.0 336.8 42.6 337.2 43.2 338.4 43.7 338.4 45.0 337.7 46.0 336.9 45.4 336.6 45.8 336.3 46.4 337.2 46.1 337.3 48.1 337.6 49.2 336.8 49.4 334.5 48.8 333.4 50.3 332.8 50.3 332.1 49.9 331.3 49.3 331.9 48.0 331.7 46.7 332.4 45.6 332.5 45.1 331.6 43.4 331.0 42.1 331.1 40.2 329.7 39.9 328.9 40.3 328.2 39.7 326.7 40.4 327.1 41.4 326.7 39.4 325.3 38.5 324.0 39.1 323.5 40.4 323.3 40.8 323.5 41.7 323.0 44.6 322.3 46.3 322.2 47.7 322.6 46.8 324.2 47.0 324.9 48.7 325.3 49.7 325.8 50.0 326.4 51.0 325.3 52.0 325.7 51.3 324.7 50.4 324.8 50.7 324.2 50.0 322.0 50.6 321.9 50.9 322.9 50.7 323.3 51.2 324.5 52.0 324.3 52.5 325.2 53.5 325.4 53.7 324.8 52.7 323.9 51.5 324.2 51.1 323.2 51.6 322.2 51.6 321.7 50.5 321.7 48.6 320.5 48.7 319.4 48.6 318.0 47.2 315.3 46.5 314.7 45.9 313.4 46.7 312.7 47.3 311.4 48.1 311.8 50.3 312.3 51.7 311.8 52.9 310.9 53.2 309.7 53.7 309.0 54.7 308.1 55.0 308.4 56.0 307.4 56.2 307.9 57.6 307.9 58.9 307.0 59.1 307.1 M 59.1 307.1 L 59.2 307.2 59.2 307.2 59.2 307.2 58.6 308.3 59.3 307.6 59.2 307.2 59.2 307.2 59.2 307.2 59.2 307.1 59.1 307.1 M 4.2 376.7 L 3.4 376.6 4.2 376.2 4.5 376.6 4.2 376.7 M 11.6 377.0 L 12.3 377.1 12.0 377.6 11.8 377.2 11.6 377.0 M 15.8 378.0 L 15.5 377.7 14.1 378.0 15.9 376.5 16.3 376.8 16.8 375.9 18.0 375.9 18.0 376.8 16.7 377.0 15.8 378.0 M 25.0 375.5 L 24.2 375.8 23.7 375.2 24.2 374.9 25.0 375.5 M 32.7 376.7 L 32.7 376.2 33.3 376.6 33.4 377.0 32.7 376.7 M 31.1 373.0 L 31.6 373.2 31.7 374.6 30.9 375.1 29.6 374.6 28.6 375.2 27.5 374.9 27.4 374.1 28.2 373.9 28.8 373.2 29.7 373.4 31.1 373.0 M 42.1 376.0 L 42.1 376.2 41.6 375.9 41.9 375.6 42.1 376.0 M 111.2 379.8 L 111.1 380.6 109.9 378.9 110.0 378.2 110.7 379.5 111.2 379.8 M 114.9 378.2 L 114.9 379.2 114.0 378.6 114.0 377.4 114.9 378.2 M 41.1 375.0 L 41.0 375.5 39.9 376.1 40.8 375.4 41.1 375.0 M 40.2 373.9 L 40.0 374.6 39.6 374.0 39.4 375.0 38.7 374.9 38.8 373.9 40.2 373.9 M 113.2 376.9 L 113.8 377.4 113.6 378.1 113.1 377.2 113.2 376.9 M 108.6 377.3 L 108.7 377.4 109.2 377.2 108.8 378.4 108.6 377.3 M 109.2 375.7 L 108.8 376.3 108.3 376.1 108.3 375.8 109.2 375.7 M 114.4 374.3 L 115.2 375.3 115.4 376.7 115.0 377.7 113.2 376.7 113.5 376.3 113.3 375.0 114.4 374.3 M 107.8 375.5 L 108.0 374.7 109.0 374.2 109.1 374.8 107.8 375.5 M 111.0 373.7 L 112.0 373.9 111.6 374.9 110.5 374.2 110.8 373.0 111.0 373.7 M 110.4 372.7 L 110.5 373.4 109.4 373.3 109.7 372.7 110.4 372.7 M 111.7 372.9 L 112.3 373.5 112.1 373.9 111.2 373.3 111.1 372.3 111.7 372.9 M 56.0 371.6 L 55.9 372.0 55.2 372.5 55.4 371.9 56.0 371.6 M 57.1 372.1 L 57.2 372.3 56.3 372.1 56.5 371.7 57.1 372.1 M 109.6 371.2 L 110.5 371.9 110.0 372.5 109.6 372.5 109.6 371.2 M 59.6 369.6 L 60.2 369.7 59.1 370.3 59.0 369.9 59.6 369.6 M 102.7 370.0 L 102.7 371.1 102.2 371.2 102.4 370.4 102.7 370.0 M 100.5 366.8 L 100.3 367.5 100.0 366.8 100.1 366.4 100.5 366.8 M 60.2 365.4 L 60.8 366.0 60.5 366.0 59.6 365.5 60.2 365.4 M 61.3 364.7 L 61.7 363.9 62.3 364.6 62.9 364.4 63.2 365.2 62.8 365.6 61.0 366.0 60.2 365.4 60.5 364.7 61.3 364.7 M 62.1 363.9 L 61.7 363.6 62.5 363.3 62.4 363.7 62.1 363.9 M 42.8 359.2 L 42.1 359.5 42.3 358.8 43.3 358.6 42.8 359.2 M 73.5 357.9 L 73.4 358.3 72.8 358.4 73.3 357.5 73.5 357.9 M 75.3 356.7 L 75.7 357.0 74.4 358.6 73.3 359.2 73.9 358.3 75.1 357.2 75.3 356.7 M 33.5 347.8 L 34.3 348.5 33.8 349.5 34.0 350.2 32.5 350.2 31.5 349.7 30.6 348.5 30.3 347.6 31.6 348.0 31.9 347.7 33.5 347.8 M 76.6 356.3 L 77.5 356.5 76.4 357.3 76.7 356.8 76.6 356.3 M 74.0 356.0 L 74.2 356.3 73.9 357.1 73.6 356.6 74.0 356.0 M 19.9 342.0 L 19.7 342.3 19.2 341.1 19.3 340.7 19.9 342.0 M 77.6 356.3 L 77.2 356.4 77.2 356.1 78.4 355.8 77.6 356.3 M 23.3 375.8 L 21.9 376.6 23.4 376.4 22.7 376.9 19.0 377.5 18.0 377.2 20.0 377.1 21.1 375.1 22.3 375.3 22.0 376.0 22.9 375.5 23.3 375.8 M 109.7 378.1 L 110.1 376.4 109.1 376.6 109.3 375.4 109.0 374.2 108.3 374.2 108.0 373.4 109.2 373.4 109.6 374.6 110.5 374.7 112.6 377.7 113.3 379.8 112.9 380.3 111.7 378.6 110.8 379.0 110.8 378.0 109.7 378.1 M 102.6 369.5 L 103.0 368.6 104.3 369.5 105.3 372.1 105.5 374.6 104.0 372.5 104.0 371.7 103.4 371.8 103.8 370.8 103.3 370.7 103.3 369.9 102.6 369.5 M 60.9 366.2 L 60.6 367.0 61.8 366.3 62.0 367.1 61.7 367.9 62.4 367.9 61.8 368.7 60.3 368.1 61.1 368.7 61.0 369.2 59.8 369.0 58.3 370.1 57.2 371.5 57.0 371.0 58.0 369.5 57.3 369.5 56.8 370.4 56.2 369.9 56.3 369.1 55.8 368.5 56.0 367.8 57.4 366.9 57.9 367.2 58.0 368.3 58.4 367.2 58.2 366.5 58.9 366.2 59.1 367.1 59.4 365.9 60.3 366.6 59.9 365.8 60.9 366.2 M 101.9 367.8 L 102.7 369.1 101.9 369.4 101.6 368.4 100.4 367.6 100.6 366.9 101.6 365.5 103.9 366.3 104.0 367.3 102.9 367.4 103.3 367.8 104.0 367.5 104.4 368.7 103.8 368.9 101.9 367.8 M 105.4 369.4 L 104.8 368.2 104.1 365.9 103.6 364.7 104.3 365.6 105.5 365.6 106.5 367.0 106.3 367.5 105.5 366.0 105.7 366.9 106.5 367.8 106.6 369.2 105.2 370.8 105.0 369.8 105.4 369.4 M 29.2 329.9 L 29.5 330.2 30.3 330.0 30.9 330.3 30.9 331.3 31.7 332.3 33.2 333.2 32.8 333.7 31.9 333.2 30.6 333.8 30.7 332.9 29.6 331.2 28.9 330.6 28.1 330.8 27.6 330.3 27.7 329.6 28.5 328.6 28.5 329.5 29.2 329.9 M 107.5 371.6 L 107.1 373.5 107.4 374.1 106.7 374.9 106.4 373.6 106.9 373.0 106.2 372.7 105.8 371.5 106.5 371.3 107.2 371.9 107.5 371.6 107.5 371.4 106.6 370.3 107.2 370.2 109.2 370.6 109.4 372.1 108.4 371.2 109.2 372.4 109.2 372.8 107.9 372.9 107.5 371.6 Z" vector-effect="non-scaling-stroke" stroke="silver" stroke-width="1" class="highcharts-drilldown-point" style="cursor:pointer;"></path></g></g><g class="highcharts-markers highcharts-tracker" visibility="visible"  transform="translate(10,47) scale(1 1)" style="" clip-path="none"></g></g><text x="292" text-anchor="middle" class="highcharts-title"  style="color:#333333;font-size:18px;fill:#333333;width:520px;" y="24"><tspan>Highcharts Map Drilldown</tspan></text><text x="574" text-anchor="end" class="highcharts-subtitle"  style="color:#555555;font-size:16px;fill:#555555;width:520px;" y="60">USA</text><g class="highcharts-button" style="cursor:default;text-align:center;"  transform="translate(10,429)"><title>Zoom in</title><path fill="url(#highcharts-1)" d="M 1.5 -0.5 L 25.5 -0.5 C 26.5 -0.5 27.5 0.5 27.5 1.5 L 27.5 27.5 C 27.5 27.5 27.5 27.5 27.5 27.5 L -0.5 27.5 C -0.5 27.5 -0.5 27.5 -0.5 27.5 L -0.5 1.5 C -0.5 0.5 0.5 -0.5 1.5 -0.5 Z" stroke="#CCCCCC" stroke-width="1"></path><text x="8"  style="font-size:15px;font-weight:bold;color:black;fill:black;" transform="translate(0,19)">+</text></g><g class="highcharts-button" style="cursor:default;text-align:center;"  transform="translate(10,457)"><title>Zoom out</title><path fill="url(#highcharts-1)" d="M -0.5 -0.5 L 27.5 -0.5 C 27.5 -0.5 27.5 -0.5 27.5 -0.5 L 27.5 25.5 C 27.5 26.5 26.5 27.5 25.5 27.5 L 1.5 27.5 C 0.5 27.5 -0.5 26.5 -0.5 25.5 L -0.5 -0.5 C -0.5 -0.5 -0.5 -0.5 -0.5 -0.5 Z" stroke="#CCCCCC" stroke-width="1"></path><text x="11"  style="font-size:15px;font-weight:bold;color:black;fill:black;" transform="translate(0,19)">-</text></g><g class="highcharts-data-labels highcharts-tracker" visibility="visible"  transform="translate(10,47) scale(1 1)" clip-path="url(#highcharts-3)" style=""><g  style="cursor:pointer;" transform="translate(453,132)" class="highcharts-drilldown-data-label"><text x="0"  style="font-size:11px;font-weight:bold;color:#ffffff;text-shadow:0 0 3px #000000;fill:#ffffff;text-decoration:none;" transform="translate(0,11)"><tspan>MA</tspan></text></g><g  style="cursor:pointer;" transform="translate(51,75)" class="highcharts-drilldown-data-label"><text x="0"  style="font-size:11px;font-weight:bold;color:#ffffff;text-shadow:0 0 3px #000000;fill:#ffffff;text-decoration:none;" transform="translate(0,11)"><tspan>WA</tspan></text></g><g  style="cursor:pointer;" transform="translate(33,216)" class="highcharts-drilldown-data-label"><text x="0"  style="font-size:11px;font-weight:bold;color:#ffffff;text-shadow:0 0 3px #000000;fill:#ffffff;text-decoration:none;" transform="translate(0,11)"><tspan>CA</tspan></text></g><g  style="cursor:pointer;" transform="translate(34,113)" class="highcharts-drilldown-data-label"><text x="0"  style="font-size:11px;font-weight:bold;color:#ffffff;text-shadow:0 0 3px #000000;fill:#ffffff;text-decoration:none;" transform="translate(0,11)"><tspan>OR</tspan></text></g><g  style="cursor:pointer;" transform="translate(285,123)" class="highcharts-drilldown-data-label"><text x="0"  style="font-size:11px;font-weight:bold;color:#ffffff;text-shadow:0 0 3px #000000;fill:#ffffff;text-decoration:none;" transform="translate(0,11)"><tspan>WI</tspan></text></g><g  style="cursor:pointer;" transform="translate(459,87)" class="highcharts-drilldown-data-label"><text x="0"  style="font-size:11px;font-weight:bold;color:#ffffff;text-shadow:0 0 3px #000000;fill:#ffffff;text-decoration:none;" transform="translate(0,11)"><tspan>ME</tspan></text></g><g  style="cursor:pointer;" transform="translate(336,139)" class="highcharts-drilldown-data-label"><text x="0"  style="font-size:11px;font-weight:bold;color:#ffffff;text-shadow:0 0 3px #000000;fill:#ffffff;text-decoration:none;" transform="translate(0,11)"><tspan>MI</tspan></text></g><g  style="cursor:pointer;" transform="translate(54,169)" class="highcharts-drilldown-data-label"><text x="0"  style="font-size:11px;font-weight:bold;color:#ffffff;text-shadow:0 0 3px #000000;fill:#ffffff;text-decoration:none;" transform="translate(0,11)"><tspan>NV</tspan></text></g><g  style="cursor:pointer;" transform="translate(143,246)" class="highcharts-drilldown-data-label"><text x="0"  style="font-size:11px;font-weight:bold;color:#ffffff;text-shadow:0 0 3px #000000;fill:#ffffff;text-decoration:none;" transform="translate(0,11)"><tspan>NM</tspan></text></g><g  style="cursor:pointer;" transform="translate(154,193)" class="highcharts-drilldown-data-label"><text x="0"  style="font-size:11px;font-weight:bold;color:#ffffff;text-shadow:0 0 3px #000000;fill:#ffffff;text-decoration:none;" transform="translate(0,11)"><tspan>CO</tspan></text></g><g  style="cursor:pointer;" transform="translate(141,145)" class="highcharts-drilldown-data-label"><text x="0"  style="font-size:11px;font-weight:bold;color:#ffffff;text-shadow:0 0 3px #000000;fill:#ffffff;text-decoration:none;" transform="translate(0,11)"><tspan>WY</tspan></text></g><g  style="cursor:pointer;" transform="translate(204,203)" class="highcharts-drilldown-data-label"><text x="0"  style="font-size:11px;font-weight:bold;color:#ffffff;text-shadow:0 0 3px #000000;fill:#ffffff;text-decoration:none;" transform="translate(0,11)"><tspan>KS</tspan></text></g><g  style="cursor:pointer;" transform="translate(206,168)" class="highcharts-drilldown-data-label"><text x="0"  style="font-size:11px;font-weight:bold;color:#ffffff;text-shadow:0 0 3px #000000;fill:#ffffff;text-decoration:none;" transform="translate(0,11)"><tspan>NE</tspan></text></g><g  style="cursor:pointer;" transform="translate(236,240)" class="highcharts-drilldown-data-label"><text x="0"  style="font-size:11px;font-weight:bold;color:#ffffff;text-shadow:0 0 3px #000000;fill:#ffffff;text-decoration:none;" transform="translate(0,11)"><tspan>OK</tspan></text></g><g  style="cursor:pointer;" transform="translate(271,206)" class="highcharts-drilldown-data-label"><text x="0"  style="font-size:11px;font-weight:bold;color:#ffffff;text-shadow:0 0 3px #000000;fill:#ffffff;text-decoration:none;" transform="translate(0,11)"><tspan>MO</tspan></text></g><g  style="cursor:pointer;" transform="translate(304,185)" class="highcharts-drilldown-data-label"><text x="0"  style="font-size:11px;font-weight:bold;color:#ffffff;text-shadow:0 0 3px #000000;fill:#ffffff;text-decoration:none;" transform="translate(0,11)"><tspan>IL</tspan></text></g><g  style="cursor:pointer;" transform="translate(330,184)" class="highcharts-drilldown-data-label"><text x="0"  style="font-size:11px;font-weight:bold;color:#ffffff;text-shadow:0 0 3px #000000;fill:#ffffff;text-decoration:none;" transform="translate(0,11)"><tspan>IN</tspan></text></g><g  style="cursor:pointer;" transform="translate(435,107)" class="highcharts-drilldown-data-label"><text x="0"  style="font-size:11px;font-weight:bold;color:#ffffff;text-shadow:0 0 3px #000000;fill:#ffffff;text-decoration:none;" transform="translate(0,11)"><tspan>VT</tspan></text></g><g  style="cursor:pointer;" transform="translate(91,239)" class="highcharts-drilldown-data-label"><text x="0"  style="font-size:11px;font-weight:bold;color:#ffffff;text-shadow:0 0 3px #000000;fill:#ffffff;text-decoration:none;" transform="translate(0,11)"><tspan>AZ</tspan></text></g><g  style="cursor:pointer;" transform="translate(272,247)" class="highcharts-drilldown-data-label"><text x="0"  style="font-size:11px;font-weight:bold;color:#ffffff;text-shadow:0 0 3px #000000;fill:#ffffff;text-decoration:none;" transform="translate(0,11)"><tspan>AR</tspan></text></g><g  style="cursor:pointer;" transform="translate(223,290)" class="highcharts-drilldown-data-label"><text x="0"  style="font-size:11px;font-weight:bold;color:#ffffff;text-shadow:0 0 3px #000000;fill:#ffffff;text-decoration:none;" transform="translate(0,11)"><tspan>TX</tspan></text></g><g  style="cursor:pointer;" transform="translate(453,142)" class="highcharts-drilldown-data-label" opacity="0"><text x="0"  style="font-size:11px;font-weight:bold;color:#ffffff;text-shadow:0 0 3px #000000;fill:#ffffff;text-decoration:none;" transform="translate(0,11)"><tspan>RI</tspan></text></g><g  style="cursor:pointer;" transform="translate(333,267)" class="highcharts-drilldown-data-label"><text x="0"  style="font-size:11px;font-weight:bold;color:#ffffff;text-shadow:0 0 3px #000000;fill:#ffffff;text-decoration:none;" transform="translate(0,11)"><tspan>AL</tspan></text></g><g  style="cursor:pointer;" transform="translate(364,263)" class="highcharts-drilldown-data-label"><text x="0"  style="font-size:11px;font-weight:bold;color:#ffffff;text-shadow:0 0 3px #000000;fill:#ffffff;text-decoration:none;" transform="translate(0,11)"><tspan>GA</tspan></text></g><g  style="cursor:pointer;" transform="translate(302,266)" class="highcharts-drilldown-data-label"><text x="0"  style="font-size:11px;font-weight:bold;color:#ffffff;text-shadow:0 0 3px #000000;fill:#ffffff;text-decoration:none;" transform="translate(0,11)"><tspan>MS</tspan></text></g><g  style="cursor:pointer;" transform="translate(389,244)" class="highcharts-drilldown-data-label"><text x="0"  style="font-size:11px;font-weight:bold;color:#ffffff;text-shadow:0 0 3px #000000;fill:#ffffff;text-decoration:none;" transform="translate(0,11)"><tspan>SC</tspan></text></g><g  style="cursor:pointer;" transform="translate(402,224)" class="highcharts-drilldown-data-label"><text x="0"  style="font-size:11px;font-weight:bold;color:#ffffff;text-shadow:0 0 3px #000000;fill:#ffffff;text-decoration:none;" transform="translate(0,11)"><tspan>NC</tspan></text></g><g  style="cursor:pointer;" transform="translate(403,197)" class="highcharts-drilldown-data-label"><text x="0"  style="font-size:11px;font-weight:bold;color:#ffffff;text-shadow:0 0 3px #000000;fill:#ffffff;text-decoration:none;" transform="translate(0,11)"><tspan>VA</tspan></text></g><g  style="cursor:pointer;" transform="translate(255,160)" class="highcharts-drilldown-data-label"><text x="0"  style="font-size:11px;font-weight:bold;color:#ffffff;text-shadow:0 0 3px #000000;fill:#ffffff;text-decoration:none;" transform="translate(0,11)"><tspan>IA</tspan></text></g><g  style="cursor:pointer;" transform="translate(426,189)" class="highcharts-drilldown-data-label"><text x="0"  style="font-size:11px;font-weight:bold;color:#ffffff;text-shadow:0 0 3px #000000;fill:#ffffff;text-decoration:none;" transform="translate(0,11)"><tspan>MD</tspan></text></g><g  style="cursor:pointer;" transform="translate(427,179)" class="highcharts-drilldown-data-label" opacity="0"><text x="0"  style="font-size:11px;font-weight:bold;color:#ffffff;text-shadow:0 0 3px #000000;fill:#ffffff;text-decoration:none;" transform="translate(0,11)"><tspan>DE</tspan></text></g><g  style="cursor:pointer;" transform="translate(434,170)" class="highcharts-drilldown-data-label"><text x="0"  style="font-size:11px;font-weight:bold;color:#ffffff;text-shadow:0 0 3px #000000;fill:#ffffff;text-decoration:none;" transform="translate(0,11)"><tspan>NJ</tspan></text></g><g  style="cursor:pointer;" transform="translate(402,161)" class="highcharts-drilldown-data-label"><text x="0"  style="font-size:11px;font-weight:bold;color:#ffffff;text-shadow:0 0 3px #000000;fill:#ffffff;text-decoration:none;" transform="translate(0,11)"><tspan>PA</tspan></text></g><g  style="cursor:pointer;" transform="translate(416,133)" class="highcharts-drilldown-data-label"><text x="0"  style="font-size:11px;font-weight:bold;color:#ffffff;text-shadow:0 0 3px #000000;fill:#ffffff;text-decoration:none;" transform="translate(0,11)"><tspan>NY</tspan></text></g><g  style="cursor:pointer;" transform="translate(90,127)" class="highcharts-drilldown-data-label"><text x="0"  style="font-size:11px;font-weight:bold;color:#ffffff;text-shadow:0 0 3px #000000;fill:#ffffff;text-decoration:none;" transform="translate(0,11)"><tspan>ID</tspan></text></g><g  style="cursor:pointer;" transform="translate(205,134)" class="highcharts-drilldown-data-label"><text x="0"  style="font-size:11px;font-weight:bold;color:#ffffff;text-shadow:0 0 3px #000000;fill:#ffffff;text-decoration:none;" transform="translate(0,11)"><tspan>SD</tspan></text></g><g  style="cursor:pointer;" transform="translate(442,143)" class="highcharts-drilldown-data-label" opacity="0"><text x="0"  style="font-size:11px;font-weight:bold;color:#ffffff;text-shadow:0 0 3px #000000;fill:#ffffff;text-decoration:none;" transform="translate(0,11)"><tspan>CT</tspan></text></g><g  style="cursor:pointer;" transform="translate(446,119)" class="highcharts-drilldown-data-label" opacity="0"><text x="0"  style="font-size:11px;font-weight:bold;color:#ffffff;text-shadow:0 0 3px #000000;fill:#ffffff;text-decoration:none;" transform="translate(0,11)"><tspan>NH</tspan></text></g><g  style="cursor:pointer;" transform="translate(345,208)" class="highcharts-drilldown-data-label"><text x="0"  style="font-size:11px;font-weight:bold;color:#ffffff;text-shadow:0 0 3px #000000;fill:#ffffff;text-decoration:none;" transform="translate(0,11)"><tspan>KY</tspan></text></g><g  style="cursor:pointer;" transform="translate(355,175)" class="highcharts-drilldown-data-label"><text x="0"  style="font-size:11px;font-weight:bold;color:#ffffff;text-shadow:0 0 3px #000000;fill:#ffffff;text-decoration:none;" transform="translate(0,11)"><tspan>OH</tspan></text></g><g  style="cursor:pointer;" transform="translate(329,231)" class="highcharts-drilldown-data-label"><text x="0"  style="font-size:11px;font-weight:bold;color:#ffffff;text-shadow:0 0 3px #000000;fill:#ffffff;text-decoration:none;" transform="translate(0,11)"><tspan>TN</tspan></text></g><g  style="cursor:pointer;" transform="translate(376,190)" class="highcharts-drilldown-data-label"><text x="0"  style="font-size:11px;font-weight:bold;color:#ffffff;text-shadow:0 0 3px #000000;fill:#ffffff;text-decoration:none;" transform="translate(0,11)"><tspan>WV</tspan></text></g><g  style="cursor:pointer;" transform="translate(412,182)" class="highcharts-drilldown-data-label" opacity="0"><text x="0"  style="font-size:11px;font-weight:bold;color:#ffffff;text-shadow:0 0 3px #000000;fill:#ffffff;text-decoration:none;" transform="translate(0,11)"><tspan>DC</tspan></text></g><g  style="cursor:pointer;" transform="translate(277,291)" class="highcharts-drilldown-data-label"><text x="0"  style="font-size:11px;font-weight:bold;color:#ffffff;text-shadow:0 0 3px #000000;fill:#ffffff;text-decoration:none;" transform="translate(0,11)"><tspan>LA</tspan></text></g><g  style="cursor:pointer;" transform="translate(393,317)" class="highcharts-drilldown-data-label"><text x="0"  style="font-size:11px;font-weight:bold;color:#ffffff;text-shadow:0 0 3px #000000;fill:#ffffff;text-decoration:none;" transform="translate(0,11)"><tspan>FL</tspan></text></g><g  style="cursor:pointer;" transform="translate(251,117)" class="highcharts-drilldown-data-label"><text x="0"  style="font-size:11px;font-weight:bold;color:#ffffff;text-shadow:0 0 3px #000000;fill:#ffffff;text-decoration:none;" transform="translate(0,11)"><tspan>MN</tspan></text></g><g  style="cursor:pointer;" transform="translate(135,97)" class="highcharts-drilldown-data-label"><text x="0"  style="font-size:11px;font-weight:bold;color:#ffffff;text-shadow:0 0 3px #000000;fill:#ffffff;text-decoration:none;" transform="translate(0,11)"><tspan>MT</tspan></text></g><g  style="cursor:pointer;" transform="translate(207,98)" class="highcharts-drilldown-data-label"><text x="0"  style="font-size:11px;font-weight:bold;color:#ffffff;text-shadow:0 0 3px #000000;fill:#ffffff;text-decoration:none;" transform="translate(0,11)"><tspan>ND</tspan></text></g><g  style="cursor:pointer;" transform="translate(101,186)" class="highcharts-drilldown-data-label"><text x="0"  style="font-size:11px;font-weight:bold;color:#ffffff;text-shadow:0 0 3px #000000;fill:#ffffff;text-decoration:none;" transform="translate(0,11)"><tspan>UT</tspan></text></g><g  style="cursor:pointer;" transform="translate(168,366)" class="highcharts-drilldown-data-label"><text x="0"  style="font-size:11px;font-weight:bold;color:#ffffff;text-shadow:0 0 3px #000000;fill:#ffffff;text-decoration:none;" transform="translate(0,11)"><tspan>HI</tspan></text></g><g  style="cursor:pointer;" transform="translate(57,324)" class="highcharts-drilldown-data-label"><text x="0"  style="font-size:11px;font-weight:bold;color:#ffffff;text-shadow:0 0 3px #000000;fill:#ffffff;text-decoration:none;" transform="translate(0,11)"><tspan>AK</tspan></text></g></g><g class="highcharts-legend"  transform="translate(508,138)"><g ><g><g class="highcharts-legend-item"  transform="translate(8,3)"><rect x="0" y="4" width="12" height="200"  fill="url(#highcharts-2)"></rect><g class="highcharts-grid" ><path fill="none" d="M 0 3.5 L 12 3.5" stroke="#D8D8D8" stroke-width="1"  opacity="1"></path><path fill="none" d="M 0 71.5 L 12 71.5" stroke="#D8D8D8" stroke-width="1"  opacity="1"></path><path fill="none" d="M 0 137.5 L 12 137.5" stroke="#D8D8D8" stroke-width="1"  opacity="1"></path><path fill="none" d="M 0 204.5 L 12 204.5" stroke="#D8D8D8" stroke-width="1"  opacity="1"></path></g><text x="21" style="color:#333333;font-size:12px;font-weight:bold;cursor:pointer;fill:#333333;" text-anchor="start"  y="15"></text><g class="highcharts-axis" ></g><g class="highcharts-axis-labels highcharts-coloraxis-labels" ><text x="27" style="color:#606060;cursor:default;font-size:11px;fill:#606060;width:183px;text-overflow:clip;" text-anchor="start" transform="translate(0,0)" y="9" opacity="1">0</text><text x="27" style="color:#606060;cursor:default;font-size:11px;fill:#606060;width:183px;text-overflow:clip;" text-anchor="start" transform="translate(0,0)" y="75" opacity="1">20</text><text x="27" style="color:#606060;cursor:default;font-size:11px;fill:#606060;width:183px;text-overflow:clip;" text-anchor="start" transform="translate(0,0)" y="142" opacity="1">40</text><text x="27" style="color:#606060;cursor:default;font-size:11px;fill:#606060;width:183px;text-overflow:clip;" text-anchor="start" transform="translate(0,0)" y="209" opacity="1">60</text></g></g></g></g></g><g class="highcharts-axis-labels highcharts-xaxis-labels" ></g><g class="highcharts-axis-labels highcharts-yaxis-labels" ></g><g class="highcharts-tooltip"  style="cursor:default;padding:0;white-space:nowrap;" transform="translate(0,-9999)"><path fill="none" d="M 3 0 L 13 0 C 16 0 16 0 16 3 L 16 13 C 16 16 16 16 13 16 L 3 16 C 0 16 0 16 0 13 L 0 3 C 0 0 0 0 3 0"  stroke="black" stroke-opacity="0.0" stroke-width="5" transform="translate(1, 1)"></path><path fill="none" d="M 3 0 L 13 0 C 16 0 16 0 16 3 L 16 13 C 16 16 16 16 13 16 L 3 16 C 0 16 0 16 0 13 L 0 3 C 0 0 0 0 3 0"  stroke="black" stroke-opacity="0.0" stroke-width="3" transform="translate(1, 1)"></path><path fill="none" d="M 3 0 L 13 0 C 16 0 16 0 16 3 L 16 13 C 16 16 16 16 13 16 L 3 16 C 0 16 0 16 0 13 L 0 3 C 0 0 0 0 3 0"  stroke="black" stroke-opacity="0.1" stroke-width="1" transform="translate(1, 1)"></path><path fill="rgb(249, 249, 249)" fill-opacity=" .85" d="M 3 0 L 13 0 C 16 0 16 0 16 3 L 16 13 C 16 16 16 16 13 16 L 3 16 C 0 16 0 16 0 13 L 0 3 C 0 0 0 0 3 0"></path><text x="8"  style="font-size:12px;color:#333333;fill:#333333;" transform="translate(0,20)"></text></g></svg>