<svg version="1.1" style="font-family:&quot;lucida grande&quot;, &quot;lucida sans unicode&quot;, arial, helvetica, sans-serif;font-size:12px;" xmlns="http://www.w3.org/2000/svg" width="400" height="360" viewBox="0 0 400 360"><desc>Created with Highmaps 1.1.4</desc><defs><linearGradient x1="0" y1="0" x2="1" y2="0" id="highcharts-1"><stop offset="0" stop-color="#EFEFFF" stop-opacity="1"></stop><stop offset="1" stop-color="#003875" stop-opacity="1"></stop></linearGradient><clipPath id="highcharts-2"><rect x="0" y="0" width="380" height="225"></rect></clipPath></defs><rect x="0" y="0" width="400" height="360" strokeWidth="0" fill="#FFFFFF" class=" highcharts-background" stroke="transparent"></rect><g class="highcharts-grid" ></g><g class="highcharts-grid" ></g><g class="highcharts-axis" ></g><g class="highcharts-axis" ></g><g class="highcharts-series-group" ><g class="highcharts-series highcharts-tracker" visibility="visible"  transform="translate(10,61) scale(1 1)" style="" clip-path="url(#highcharts-2)"><g transform="translate(0,0) scale(1 1)"><path fill="rgb(221,225,245)" d="M 136.8 43.8 L 136.9 42.2 138.9 19.1 148.8 19.8 175.6 20.9 176.2 23.7 175.9 24.7 176.0 27.6 177.4 33.2 177.7 40.1 178.7 42.6 179.0 45.7 172.4 45.7 136.8 43.8 Z" vector-effect="non-scaling-stroke" stroke="silver" stroke-width="1" class=" highcharts-name-north-dakota highcharts-key-us-nd"></path><path fill="rgb(200,209,233)" d="M 342.6 33.5 L 369.4 33.5 369.4 49.9 342.6 49.9 342.6 33.5 M 317.6 54.3 L 315.6 54.8 314.1 48.5 313.0 48.4 313.0 47.1 312.0 44.8 312.0 41.3 311.4 40.6 310.6 37.3 314.2 36.3 320.8 34.5 320.7 36.8 321.4 37.8 321.1 39.1 319.4 41.0 319.5 45.1 318.9 47.4 319.4 49.2 319.4 52.7 320.2 53.7 320.2 53.7 317.6 54.3 Z" vector-effect="non-scaling-stroke" stroke="silver" stroke-width="1" class=" highcharts-name-vermont highcharts-key-us-vt"></path><path fill="rgb(191,202,227)" d="M 186.4 93.6 L 144.8 92.4 145.3 84.4 133.2 83.4 134.3 70.4 134.6 67.4 167.4 69.3 169.8 70.9 171.2 70.5 174.4 70.4 177.9 72.1 179.3 73.4 179.8 73.5 180.0 75.9 181.7 79.2 181.6 81.2 182.9 83.1 183.2 87.3 183.5 88.4 183.6 88.7 183.6 88.8 183.6 88.8 183.5 88.8 183.5 88.8 184.4 90.9 186.4 93.6 Z" vector-effect="non-scaling-stroke" stroke="silver" stroke-width="1" class=" highcharts-name-nebraska highcharts-key-us-ne"></path><path fill="rgb(188,200,226)" d="M 133.2 83.4 L 103.0 79.9 90.9 78.0 92.3 70.1 93.3 63.9 95.6 50.3 96.3 46.3 136.0 51.3 134.9 64.4 134.6 67.4 134.3 70.4 133.2 83.4 Z" vector-effect="non-scaling-stroke" stroke="silver" stroke-width="1" class=" highcharts-name-wyoming highcharts-key-us-wy"></path><path fill="rgb(185,198,224)" d="M 134.6 67.4 L 134.9 64.4 136.0 51.3 136.1 51.3 136.8 43.8 172.4 45.7 179.0 45.7 178.5 47.2 177.2 48.5 178.2 50.1 179.5 51.0 179.5 65.5 178.6 65.5 178.8 67.7 179.5 68.5 178.3 71.5 179.3 73.4 177.9 72.1 174.4 70.4 171.2 70.5 169.8 70.9 167.4 69.3 134.6 67.4 Z" vector-effect="non-scaling-stroke" stroke="silver" stroke-width="1" class=" highcharts-name-south-dakota highcharts-key-us-sd"></path><path fill="rgb(185,198,224)" d="M 98.4 111.7 L 87.5 110.0 66.7 106.2 70.2 89.0 74.6 66.9 84.5 68.7 92.3 70.1 90.9 78.0 103.0 79.9 102.3 84.9 98.4 111.7 Z" vector-effect="non-scaling-stroke" stroke="silver" stroke-width="1" class=" highcharts-name-utah highcharts-key-us-ut"></path><path fill="rgb(170,186,215)" d="M 214.0 72.5 L 215.6 74.6 217.0 75.5 217.0 77.9 216.2 79.7 214.1 81.0 212.4 81.3 212.0 83.3 212.8 85.2 211.6 87.6 210.4 88.1 210.1 89.9 210.1 89.9 210.1 89.9 208.2 88.0 199.9 88.7 191.4 88.9 183.6 88.8 183.5 88.8 183.5 88.4 182.9 83.1 181.6 81.2 181.7 79.2 180.0 75.9 179.8 73.5 179.3 73.4 178.3 71.5 179.5 68.5 178.8 67.7 178.6 65.5 179.5 65.5 200.4 65.2 210.0 64.8 211.0 66.5 210.6 67.5 211.5 70.8 213.6 71.4 214.1 72.3 214.0 72.5 214.0 72.5 Z" vector-effect="non-scaling-stroke" stroke="silver" stroke-width="1" class=" highcharts-name-iowa highcharts-key-us-ia"></path><path fill="rgb(167,184,214)" d="M 130.3 213.7 L 130.4 213.8 130.6 213.8 130.8 213.8 131.4 214.1 132.0 214.3 133.0 215.0 133.3 215.3 133.5 215.5 133.5 216.1 133.5 216.4 133.7 216.4 134.0 216.3 134.1 216.4 134.2 216.5 134.2 216.8 134.3 217.0 134.4 217.1 134.7 217.4 135.0 217.6 135.2 217.7 135.2 217.8 135.2 218.0 134.9 218.4 134.6 218.5 134.2 218.9 133.9 219.0 133.9 219.1 133.7 219.1 133.5 219.3 132.8 219.5 132.6 219.4 132.4 219.4 132.3 219.5 131.9 219.7 131.8 219.8 131.6 219.9 131.4 220.1 131.1 220.2 131.0 220.3 130.7 220.5 130.7 220.6 130.7 220.9 130.4 221.2 130.3 221.5 130.2 221.6 129.9 221.8 129.9 221.7 129.9 221.6 129.7 221.5 129.5 221.4 129.0 221.1 128.6 221.0 128.6 220.7 128.5 220.7 128.4 220.5 128.4 220.3 128.4 219.9 128.6 219.0 128.6 218.8 128.5 218.7 128.3 218.0 128.1 217.8 128.2 217.7 128.1 217.5 128.0 217.2 127.9 217.1 127.8 217.0 127.6 216.8 127.5 216.4 127.6 216.1 127.9 215.8 128.0 215.7 128.1 215.6 128.3 215.5 128.5 215.2 128.6 215.0 128.8 214.8 128.9 214.8 128.9 214.5 128.9 214.4 128.8 214.3 128.6 214.0 128.5 213.7 128.5 213.2 128.6 213.0 128.7 212.9 128.9 212.9 129.5 213.1 129.5 213.2 129.6 213.4 129.9 213.5 130.0 213.5 130.1 213.7 130.3 213.7 M 124.5 211.2 L 124.5 211.3 124.3 211.3 124.1 211.3 123.8 211.4 123.6 211.4 123.5 211.2 123.6 211.2 123.7 211.0 124.1 210.8 124.2 210.8 124.4 210.8 124.5 210.9 124.4 211.1 124.5 211.2 M 122.2 209.9 L 121.9 209.9 121.8 209.7 121.7 209.6 121.7 209.3 121.7 209.2 121.6 209.1 121.3 209.0 121.3 208.9 121.3 208.7 121.5 208.7 121.7 208.6 122.3 208.7 122.6 209.0 122.8 209.2 122.9 209.4 122.8 209.5 122.7 209.7 122.4 209.8 122.2 209.9 M 124.2 208.0 L 124.2 208.0 124.5 208.1 124.5 208.2 124.6 208.2 124.6 208.4 124.7 208.5 124.9 208.8 125.0 208.8 125.0 208.7 125.1 208.7 125.5 208.6 125.7 208.5 125.8 208.5 126.0 208.5 126.3 208.5 126.4 208.6 126.5 208.7 126.6 208.8 126.8 209.0 126.8 209.0 126.9 209.0 127.0 209.1 127.1 209.2 127.3 209.2 127.5 209.3 127.8 209.4 128.0 209.7 127.9 210.0 127.8 210.2 127.7 210.2 127.5 210.4 127.4 210.4 127.0 210.6 126.7 210.6 126.6 210.6 126.3 210.7 126.0 210.9 125.7 210.8 125.6 210.8 125.3 210.8 125.1 210.7 125.0 210.5 125.1 210.5 125.1 210.4 125.0 209.9 125.0 209.8 125.0 209.7 125.0 209.6 124.8 209.5 124.6 209.5 124.6 209.6 124.5 209.6 124.4 209.5 124.2 209.5 124.1 209.4 124.0 209.4 123.8 209.2 123.6 208.9 123.6 208.8 123.5 208.7 123.6 208.4 123.6 208.2 123.7 208.1 123.8 208.1 123.9 208.0 124.0 208.0 124.1 207.9 124.2 208.0 M 120.1 206.7 L 120.4 206.7 120.4 206.7 120.5 206.8 120.6 206.8 121.5 207.0 121.7 207.0 121.8 206.8 121.9 206.8 121.9 206.9 122.0 207.0 122.3 207.1 122.6 207.1 122.7 207.1 122.9 207.0 123.0 207.0 123.2 207.0 123.3 207.0 123.3 207.1 123.5 207.1 123.3 207.4 123.2 207.5 122.9 207.7 122.7 207.8 122.5 207.8 122.2 207.8 122.0 207.7 121.5 207.6 121.2 207.5 120.5 207.6 120.3 207.6 120.0 207.6 119.8 207.5 119.8 207.4 119.8 207.3 119.9 207.1 120.0 207.1 120.1 207.0 120.1 206.9 120.0 206.7 120.1 206.7 M 116.1 204.3 L 116.2 204.4 116.2 204.4 116.3 204.5 116.4 204.5 116.5 204.7 116.5 204.8 116.4 204.9 116.5 205.2 116.6 205.2 116.7 205.4 116.8 205.4 116.9 205.5 117.0 205.3 116.9 205.3 116.9 205.2 116.9 205.2 117.1 205.2 117.2 205.2 117.2 205.2 117.1 205.3 117.1 205.5 117.2 205.6 117.3 205.7 117.3 205.8 117.4 206.0 117.6 206.1 117.7 206.2 117.4 206.4 117.3 206.5 117.3 206.4 117.2 206.3 116.9 206.4 116.7 206.5 116.6 206.5 116.5 206.4 116.2 206.2 116.1 206.1 116.1 206.0 116.0 206.1 116.1 206.2 115.8 206.2 115.8 206.1 115.8 206.1 115.7 206.1 115.7 205.9 115.9 205.8 115.9 205.7 115.7 205.6 115.7 205.7 115.5 205.6 115.6 205.8 115.5 205.8 115.4 205.7 115.4 205.8 115.6 206.0 115.6 206.1 115.5 206.1 114.9 206.2 114.8 206.2 114.7 205.9 114.6 205.8 114.5 205.6 114.4 205.5 114.4 205.3 114.3 205.3 114.2 205.1 114.1 205.0 114.1 204.7 114.0 204.6 113.8 204.4 114.0 204.3 114.3 204.3 114.7 204.3 114.8 204.2 114.9 204.2 115.1 204.0 115.1 204.0 115.2 203.8 115.4 203.6 115.6 203.5 115.7 203.6 115.9 203.7 116.0 204.0 116.0 204.1 116.1 204.3 M 102.0 202.9 L 101.9 203.0 101.7 202.9 101.6 202.7 101.7 202.5 101.7 202.4 102.0 202.1 102.2 202.0 102.4 201.8 102.5 201.7 102.5 201.5 102.6 201.5 102.7 201.5 102.8 201.6 102.9 201.7 102.7 201.8 102.7 202.0 102.7 202.1 102.7 202.2 102.5 202.3 102.3 202.4 102.1 202.5 102.1 202.6 102.0 202.9 M 107.0 200.1 L 107.1 200.2 107.2 200.2 107.3 200.2 107.3 200.3 107.4 200.4 107.5 200.6 107.5 200.7 107.5 200.9 107.5 201.0 107.4 201.2 107.3 201.3 107.3 201.5 107.3 201.7 107.3 201.9 107.1 201.9 107.2 202.0 107.1 202.0 107.0 202.1 106.9 202.2 106.7 202.4 106.6 202.4 106.4 202.3 106.1 202.3 105.8 202.3 105.7 202.2 105.6 202.3 105.6 202.2 105.4 202.1 105.3 202.0 105.3 202.0 105.2 201.9 105.1 201.9 104.9 201.8 104.7 201.7 104.6 201.5 104.5 201.4 104.5 201.1 104.6 201.1 104.8 200.8 104.8 200.7 104.9 200.6 105.2 200.5 105.4 200.4 105.5 200.3 105.7 200.2 105.7 200.2 106.0 200.1 106.0 200.2 106.3 200.2 106.3 200.1 106.4 200.1 106.6 200.1 106.8 200.2 106.9 200.1 107.0 200.1 Z" vector-effect="non-scaling-stroke" stroke="silver" stroke-width="1" class=" highcharts-name-hawaii highcharts-key-us-hi"></path><path fill="rgb(167,184,214)" d="M 342.6 50.8 L 369.4 50.8 369.4 67.1 342.6 67.1 342.6 50.8 M 329.3 48.3 L 329.5 48.3 329.3 50.0 327.5 51.0 326.9 52.1 320.2 53.7 320.2 53.7 319.4 52.7 319.4 49.2 318.9 47.4 319.5 45.1 319.4 41.0 321.1 39.1 321.4 37.8 320.7 36.8 320.8 34.5 321.2 32.1 322.5 31.6 327.0 44.9 327.3 46.3 329.3 48.3 Z" vector-effect="non-scaling-stroke" stroke="silver" stroke-width="1" class=" highcharts-name-new-hampshire highcharts-key-us-nh"></path><path fill="rgb(164,182,212)" d="M 227.7 171.0 L 224.5 170.6 222.7 169.7 221.3 171.8 224.2 172.4 225.2 171.4 226.9 171.4 225.8 173.1 227.2 173.5 228.2 171.9 229.2 173.1 226.6 175.5 228.0 177.3 230.5 177.6 231.7 178.6 231.0 180.0 229.3 179.8 228.5 178.7 226.1 178.2 226.5 177.5 224.1 176.7 224.5 179.1 223.3 180.2 222.8 179.1 221.3 178.6 220.4 180.0 218.6 180.1 215.4 179.0 215.7 177.4 213.8 177.1 212.7 175.4 211.5 174.8 209.5 175.7 209.7 176.6 212.5 176.8 211.7 177.6 209.5 176.9 208.6 177.4 205.6 176.9 202.0 175.7 197.5 176.4 197.7 174.0 198.2 173.3 198.0 169.3 199.5 165.4 197.2 161.1 197.2 160.1 195.6 157.8 195.4 149.7 213.6 149.0 214.9 148.9 215.7 153.4 216.9 154.2 215.9 156.9 214.3 158.3 213.1 161.2 213.1 163.0 212.4 163.1 212.4 165.3 225.8 164.5 225.2 167.1 227.7 171.0 Z" vector-effect="non-scaling-stroke" stroke="silver" stroke-width="1" class=" highcharts-name-louisiana highcharts-key-us-la"></path><path fill="rgb(161,180,210)" d="M 143.3 116.4 L 191.0 117.6 191.0 118.7 191.1 121.7 192.4 130.6 192.3 144.6 189.7 143.7 187.3 142.1 186.5 142.9 184.8 142.2 182.6 142.7 179.9 144.2 177.8 142.5 176.0 142.2 174.7 144.0 174.0 142.5 172.9 143.1 170.8 141.8 169.0 142.5 168.1 140.5 165.5 141.0 160.8 139.6 160.4 138.1 157.6 138.1 155.5 136.6 156.2 121.2 136.8 120.0 136.9 119.0 137.1 116.0 143.3 116.4 Z" vector-effect="non-scaling-stroke" stroke="silver" stroke-width="1" class=" highcharts-name-oklahoma highcharts-key-us-ok"></path><path fill="rgb(158,177,208)" d="M 175.6 20.9 L 186.5 20.9 186.6 17.9 188.4 18.5 189.1 22.4 191.7 23.7 193.6 23.7 194.3 24.7 196.9 23.7 200.3 24.3 201.8 26.8 203.6 25.9 205.6 27.7 207.1 28.1 209.8 26.4 210.5 27.4 213.9 27.1 215.0 27.9 216.9 27.8 214.5 29.5 212.1 30.5 209.6 32.4 207.0 35.6 203.8 38.6 202.8 39.5 203.0 44.2 200.8 45.6 199.8 47.3 199.8 48.4 201.1 49.4 200.7 50.6 200.4 55.0 201.8 56.2 204.7 57.4 207.4 60.3 209.5 61.4 210.0 64.8 200.4 65.2 179.5 65.5 179.5 51.0 178.2 50.1 177.2 48.5 178.5 47.2 179.0 45.7 178.7 42.6 177.7 40.1 177.4 33.2 176.0 27.6 175.9 24.7 176.2 23.7 175.6 20.9 Z" vector-effect="non-scaling-stroke" stroke="silver" stroke-width="1" class=" highcharts-name-minnesota highcharts-key-us-mn"></path><path fill="rgb(155,175,207)" d="M 144.8 92.4 L 186.4 93.6 189.1 95.0 187.7 97.4 189.4 99.9 190.8 100.6 191.0 117.6 143.3 116.4 144.5 97.6 144.8 92.4 Z" vector-effect="non-scaling-stroke" stroke="silver" stroke-width="1" class=" highcharts-name-kansas highcharts-key-us-ks"></path><path fill="rgb(155,175,207)" d="M 75.2 9.1 L 93.7 12.9 138.9 19.1 136.9 42.2 136.8 43.8 136.1 51.3 136.0 51.3 96.3 46.3 95.6 50.3 94.4 48.1 93.1 49.2 91.4 49.3 89.0 48.5 88.1 49.2 86.3 48.6 85.2 49.4 84.5 48.6 83.9 45.6 83.1 45.6 82.8 43.8 81.7 41.1 81.7 38.8 81.0 37.8 78.5 39.0 77.5 38.1 77.8 36.4 78.9 35.6 79.1 32.6 80.3 29.5 79.1 29.5 76.0 23.7 74.2 21.9 74.7 19.8 73.5 17.0 75.2 9.1 Z" vector-effect="non-scaling-stroke" stroke="silver" stroke-width="1" class=" highcharts-name-montana highcharts-key-us-mt"></path><path fill="rgb(152,173,205)" d="M 311.0 107.0 L 311.2 106.8 311.3 107.0 311.1 107.0 311.0 107.0 M 311.4 107.0 L 310.6 105.8 310.9 107.1 310.6 107.1 310.6 107.1 310.3 106.9 310.5 107.2 284.7 112.4 277.4 113.4 274.6 113.5 272.7 113.9 261.7 115.5 265.0 113.8 266.4 112.5 267.7 110.1 269.4 108.9 271.5 106.5 272.7 108.3 274.5 108.6 275.7 107.5 276.6 108.0 278.2 107.4 282.1 105.0 281.9 103.5 284.1 98.3 284.7 95.7 287.0 96.6 288.3 92.9 289.0 93.3 291.3 89.7 291.4 87.4 294.9 89.2 295.2 87.6 297.0 87.9 296.9 88.7 299.6 89.9 299.8 90.1 300.0 90.1 300.3 91.2 300.5 91.6 300.1 91.8 299.4 92.2 299.1 94.4 299.8 94.8 301.0 94.0 302.4 95.6 304.1 95.4 304.8 96.3 306.8 96.9 306.8 99.2 302.4 97.2 305.6 99.5 307.6 100.4 306.5 101.3 308.0 103.9 307.2 104.4 305.4 102.7 303.0 102.7 305.1 103.4 307.0 105.0 308.3 104.3 310.1 104.3 311.6 106.9 311.5 106.9 311.4 107.0 M 312.8 94.5 L 312.5 95.7 312.7 94.5 312.8 94.5 M 310.4 95.5 L 310.5 95.3 312.0 94.8 310.0 100.6 310.6 101.8 310.1 102.8 309.3 101.1 309.3 99.0 310.4 95.5 Z" vector-effect="non-scaling-stroke" stroke="silver" stroke-width="1" class=" highcharts-name-virginia highcharts-key-us-va"></path><path fill="rgb(149,170,203)" d="M 70.1 7.9 L 75.2 9.1 73.5 17.0 74.7 19.8 74.2 21.9 76.0 23.7 79.1 29.5 80.3 29.5 79.1 32.6 78.9 35.6 77.8 36.4 77.5 38.1 78.5 39.0 81.0 37.8 81.7 38.8 81.7 41.1 82.8 43.8 83.1 45.6 83.9 45.6 84.5 48.6 85.2 49.4 86.3 48.6 88.1 49.2 89.0 48.5 91.4 49.3 93.1 49.2 94.4 48.1 95.6 50.3 93.3 63.9 92.3 70.1 84.5 68.7 74.6 66.9 69.2 65.7 57.2 63.1 60.5 49.1 61.9 46.1 60.4 44.8 60.7 43.3 63.6 40.4 65.4 37.3 66.9 35.6 66.8 34.2 65.7 33.3 65.4 31.8 65.1 28.6 70.1 7.9 Z" vector-effect="non-scaling-stroke" stroke="silver" stroke-width="1" class=" highcharts-name-idaho highcharts-key-us-id"></path><path fill="rgb(143,166,200)" d="M 192.3 144.6 L 193.4 145.3 195.3 145.3 195.4 149.7 195.6 157.8 197.2 160.1 197.2 161.1 199.5 165.4 198.0 169.3 198.2 173.3 197.7 174.0 195.9 176.6 191.7 178.5 191.0 177.9 191.3 176.1 189.3 176.7 189.1 177.8 191.2 179.5 185.0 184.2 182.5 184.8 182.1 185.5 179.2 187.2 174.8 191.3 175.8 189.3 174.7 188.7 173.3 189.7 174.7 190.0 173.4 191.8 172.1 191.7 173.0 193.0 171.8 195.8 171.3 195.2 169.6 196.3 171.6 196.2 170.8 198.4 172.4 205.7 173.7 207.0 171.5 207.9 168.8 206.1 165.6 205.9 164.6 204.9 162.6 204.5 161.5 203.4 159.4 203.0 158.9 200.5 156.8 197.6 156.6 193.4 155.2 192.6 152.7 188.5 151.2 187.3 150.5 184.8 149.0 182.0 148.8 180.5 146.4 178.1 143.9 174.8 138.9 174.3 137.5 173.4 136.8 174.4 134.8 174.5 133.0 178.1 131.1 180.4 130.0 180.1 126.7 177.6 124.8 177.0 121.7 174.0 120.9 171.7 121.1 169.7 119.2 165.5 116.8 163.9 112.9 159.0 111.8 158.5 110.7 156.2 109.8 155.6 108.9 153.6 133.5 156.0 136.5 120.1 136.8 120.0 156.2 121.2 155.5 136.6 157.6 138.1 160.4 138.1 160.8 139.6 165.5 141.0 168.1 140.5 169.0 142.5 170.8 141.8 172.9 143.1 174.0 142.5 174.7 144.0 176.0 142.2 177.8 142.5 179.9 144.2 182.6 142.7 184.8 142.2 186.5 142.9 187.3 142.1 189.7 143.7 192.3 144.6 M 173.6 193.2 L 172.1 196.8 172.0 199.1 172.8 202.9 171.9 199.9 172.1 195.7 173.6 193.2 Z" vector-effect="non-scaling-stroke" stroke="silver" stroke-width="1" class=" highcharts-name-texas highcharts-key-us-tx"></path><path fill="rgb(140,164,198)" d="M 276.7 138.7 L 274.3 136.8 271.9 135.4 269.4 131.8 268.1 131.7 265.8 130.3 267.1 127.7 272.3 125.3 280.2 124.4 282.3 125.7 282.6 126.7 290.0 125.7 298.4 131.6 296.4 134.0 295.4 136.0 295.5 137.9 290.8 143.4 288.7 144.8 286.4 145.0 288.2 145.5 285.6 149.1 284.3 148.8 282.9 145.8 281.3 144.9 280.0 141.7 278.3 141.1 276.7 138.7 Z" vector-effect="non-scaling-stroke" stroke="silver" stroke-width="1" class=" highcharts-name-south-carolina highcharts-key-us-sc"></path><path fill="rgb(134,159,195)" d="M 342.6 154.5 L 369.4 154.5 369.4 170.8 342.6 170.8 342.6 154.5 M 312.7 94.5 L 312.9 93.8 312.8 94.5 312.7 94.5 M 313.2 90.9 L 313.2 91.8 313.1 90.9 313.1 90.9 313.2 90.9 M 312.0 94.8 L 310.5 95.3 310.4 95.5 309.1 96.1 309.2 94.2 307.4 94.0 305.3 92.5 307.1 91.3 304.9 90.2 305.9 89.0 304.9 88.7 304.4 87.1 305.5 84.9 305.7 83.1 303.6 86.5 302.5 86.6 303.7 87.8 303.3 89.5 304.0 92.3 305.0 93.8 303.4 92.9 305.9 95.1 306.1 95.9 304.3 95.0 302.5 94.9 300.9 93.4 300.1 94.5 299.5 93.6 300.1 91.8 300.3 91.2 300.5 90.8 301.0 90.0 299.6 89.9 296.9 88.7 297.0 87.9 295.2 87.6 294.1 85.5 292.2 85.2 290.5 86.1 290.4 86.9 288.4 86.5 287.5 88.1 286.9 88.0 284.7 90.6 284.0 86.6 294.5 84.5 306.4 82.0 309.2 91.7 313.0 90.9 312.9 92.7 312.0 94.8 Z" vector-effect="non-scaling-stroke" stroke="silver" stroke-width="1" class=" highcharts-name-maryland highcharts-key-us-md"></path><path fill="rgb(128,154,191)" d="M 233.1 77.4 L 234.6 78.0 237.2 76.7 249.3 75.3 249.4 75.8 249.8 79.1 251.8 96.6 252.2 99.0 250.0 100.1 248.3 100.0 248.6 101.5 246.4 103.8 245.2 106.5 243.6 105.3 240.9 107.4 240.4 106.8 238.3 108.2 236.5 107.5 235.5 108.3 233.6 107.9 232.7 109.0 232.6 106.7 235.4 101.1 234.2 98.3 234.8 96.3 233.1 77.4 Z" vector-effect="non-scaling-stroke" stroke="silver" stroke-width="1" class=" highcharts-name-indiana highcharts-key-us-in"></path><path fill="rgb(128,154,191)" d="M 339.3 34.8 L 340.0 33.6 340.6 34.1 339.9 35.9 339.3 34.8 M 327.0 44.9 L 322.5 31.6 323.6 31.7 324.1 28.9 325.3 27.2 325.5 25.2 325.0 24.4 325.0 22.0 325.5 21.3 325.2 19.0 327.4 12.1 328.5 11.8 329.1 13.2 329.9 13.4 333.3 11.1 336.1 12.8 339.6 23.3 341.6 23.2 342.3 25.8 343.2 26.5 344.1 26.0 346.4 28.2 345.4 30.2 341.9 32.2 341.4 34.1 340.8 33.0 339.0 33.5 338.3 35.4 339.1 37.2 337.2 35.1 337.1 33.7 336.1 35.0 336.4 38.0 334.5 40.4 333.5 40.8 333.1 42.0 332.0 41.0 330.8 42.7 331.3 43.7 329.8 46.5 329.3 48.3 327.3 46.3 327.0 44.9 Z" vector-effect="non-scaling-stroke" stroke="silver" stroke-width="1" class=" highcharts-name-maine highcharts-key-us-me"></path><path fill="rgb(128,154,191)" d="M 249.4 75.8 L 252.4 75.4 257.4 74.5 261.1 75.6 260.7 76.0 263.5 76.4 266.1 75.0 268.3 74.6 270.0 72.6 274.5 69.8 276.4 80.4 275.5 81.0 276.3 83.3 275.4 87.7 275.6 88.8 273.7 91.0 272.2 91.2 270.5 94.1 270.2 95.8 269.1 94.9 268.4 96.8 268.8 98.2 268.1 99.6 266.5 100.1 266.5 100.1 264.8 99.0 264.3 97.8 261.8 99.3 260.3 98.6 259.2 99.3 258.2 98.5 256.1 98.4 254.2 96.2 251.8 96.6 249.8 79.1 249.4 75.8 Z" vector-effect="non-scaling-stroke" stroke="silver" stroke-width="1" class=" highcharts-name-ohio highcharts-key-us-oh"></path><path fill="rgb(128,154,191)" d="M 308.0 71.2 L 308.1 73.1 309.1 74.5 312.0 77.0 310.5 78.6 309.9 79.7 308.4 80.8 307.3 80.8 306.4 82.0 294.5 84.5 284.0 86.6 277.6 87.7 276.4 80.4 276.4 80.4 274.5 69.8 275.3 69.3 278.6 66.8 279.0 68.9 305.0 63.5 306.8 64.5 307.3 66.2 309.9 67.7 309.9 67.7 308.0 71.2 Z" vector-effect="non-scaling-stroke" stroke="silver" stroke-width="1" class=" highcharts-name-pennsylvania highcharts-key-us-pa"></path><path fill="rgb(125,152,189)" d="M 342.6 137.2 L 369.4 137.2 369.4 153.5 342.6 153.5 342.6 137.2 M 313.1 90.9 L 313.0 90.9 313.0 90.9 309.2 91.7 306.4 82.0 307.3 80.8 308.4 80.8 307.7 82.6 308.4 83.5 308.4 83.6 309.3 84.7 310.0 86.6 311.8 88.4 312.3 88.3 313.2 90.9 313.1 90.9 313.1 90.9 Z" vector-effect="non-scaling-stroke" stroke="silver" stroke-width="1" class=" highcharts-name-delaware highcharts-key-us-de"></path><path fill="rgb(125,152,189)" d="M 233.5 48.1 L 233.3 49.9 232.1 52.4 231.4 51.7 232.2 49.6 233.5 48.1 M 214.0 72.5 L 213.6 71.4 211.5 70.8 210.6 67.5 211.0 66.5 210.0 64.8 209.5 61.4 207.4 60.3 204.7 57.4 201.8 56.2 200.4 55.0 200.7 50.6 201.1 49.4 199.8 48.4 199.8 47.3 200.8 45.6 203.0 44.2 202.8 39.5 203.8 38.6 205.6 39.0 210.1 36.8 211.3 36.9 211.1 38.2 211.9 39.2 213.4 39.6 215.1 41.5 220.8 42.6 222.5 43.4 226.2 43.7 226.9 45.1 228.6 45.7 228.5 48.4 229.6 48.4 229.4 49.8 230.1 50.3 229.0 51.7 228.0 54.8 228.7 54.9 230.2 52.4 231.9 52.6 231.0 56.7 231.4 57.4 230.3 59.9 230.6 61.6 229.7 65.2 229.9 67.2 230.8 68.8 230.9 71.4 220.4 72.2 215.0 72.5 214.0 72.5 Z" vector-effect="non-scaling-stroke" stroke="silver" stroke-width="1" class=" highcharts-name-wisconsin highcharts-key-us-wi"></path><path fill="rgb(120,148,186)" d="M 137.1 116.0 L 98.4 111.7 102.3 84.9 103.0 79.9 133.2 83.4 145.3 84.4 144.8 92.4 144.5 97.6 143.3 116.4 137.1 116.0 Z" vector-effect="non-scaling-stroke" stroke="silver" stroke-width="1" class=" highcharts-name-colorado highcharts-key-us-co"></path><path fill="rgb(120,148,186)" d="M 342.6 68.1 L 369.4 68.1 369.4 84.4 342.6 84.4 342.6 68.1 M 333.4 60.7 L 334.8 61.0 333.6 61.5 333.0 62.1 333.4 60.7 M 329.8 59.9 L 329.7 59.5 329.5 59.7 327.9 57.6 325.5 58.3 320.0 59.6 315.7 60.5 315.5 60.3 315.6 54.8 317.6 54.3 320.2 53.7 320.2 53.7 326.9 52.1 327.5 51.0 329.3 50.0 329.9 51.2 331.1 51.5 329.7 52.7 329.3 54.8 331.4 55.0 333.3 57.7 335.0 58.1 336.3 57.0 337.0 57.8 335.7 58.3 333.1 60.2 332.8 58.7 330.5 61.0 330.2 59.9 329.8 59.9 Z" vector-effect="non-scaling-stroke" stroke="silver" stroke-width="1" class=" highcharts-name-massachusetts highcharts-key-us-ma"></path><path fill="rgb(120,148,186)" d="M 266.5 100.1 L 266.5 100.1 268.1 99.6 268.8 98.2 268.4 96.8 269.1 94.9 270.2 95.8 270.5 94.1 272.2 91.2 273.7 91.0 275.6 88.8 275.4 87.7 276.3 83.3 275.5 81.0 276.4 80.4 277.6 87.7 284.0 86.6 284.7 90.6 286.9 88.0 287.5 88.1 288.4 86.5 290.4 86.9 290.5 86.1 292.2 85.2 294.1 85.5 295.2 87.6 294.9 89.2 291.4 87.4 291.3 89.7 289.0 93.3 288.3 92.9 287.0 96.6 284.7 95.7 284.1 98.3 281.9 103.5 282.1 105.0 278.2 107.4 276.6 108.0 275.7 107.5 274.5 108.6 272.7 108.3 271.5 106.5 269.2 105.6 266.5 102.2 266.5 100.1 266.5 100.1 266.5 100.1 266.5 100.1 266.5 100.1 Z" vector-effect="non-scaling-stroke" stroke="silver" stroke-width="1" class=" highcharts-name-west-virginia highcharts-key-us-wv"></path><path fill="rgb(117,145,184)" d="M 39.0 1.6 L 39.7 2.5 38.6 2.9 38.7 4.3 37.2 3.0 39.0 1.6 M 39.8 5.0 L 38.8 5.9 39.4 6.3 40.1 8.7 39.0 8.1 38.6 5.7 39.8 4.9 39.5 4.7 39.5 3.5 40.4 4.6 41.1 2.3 40.4 1.9 40.4 0 70.1 7.9 65.1 28.6 65.4 31.8 53.7 29.0 53.1 29.2 50.3 28.7 46.4 29.2 44.3 28.7 41.1 28.6 40.7 27.8 37.9 26.9 35.0 27.4 32.6 25.9 33.0 23.3 32.7 22.1 31.5 21.1 30.3 21.0 30.1 19.9 27.9 19.5 27.2 18.3 28.5 17.1 29.0 15.6 28.0 15.2 28.1 14.1 30.0 14.0 28.3 12.8 28.3 10.1 28.7 7.0 28.0 5.3 28.1 3.1 29.5 1.8 31.7 4.2 35.7 6.0 36.4 5.7 36.9 7.0 38.3 6.6 38.5 8.7 39.0 8.8 37.9 11.1 38.6 13.1 36.2 12.4 34.5 14.1 36.5 14.7 37.6 13.4 38.9 13.1 39.4 10.0 40.8 8.7 40.2 6.4 40.7 5.8 39.8 5.0 Z" vector-effect="non-scaling-stroke" stroke="silver" stroke-width="1" class=" highcharts-name-washington highcharts-key-us-wa"></path><path fill="rgb(114,143,183)" d="M 242.2 167.4 L 242.2 166.1 240.5 164.4 240.7 163.3 258.6 161.4 259.8 163.5 278.2 162.3 278.9 163.8 279.8 163.6 279.4 160.7 280.2 159.9 283.1 160.3 283.6 160.3 284.4 163.5 286.2 167.8 289.3 172.8 293.0 177.1 292.6 177.7 293.5 180.7 295.2 183.1 298.3 188.6 299.0 191.9 299.3 197.3 298.4 200.9 298.8 203.6 293.5 204.8 291.3 200.3 288.4 198.8 287.6 199.1 286.2 195.3 284.3 195.5 284.1 191.8 282.2 192.3 279.0 188.0 280.5 184.7 280.2 183.7 278.9 184.2 278.9 185.7 277.4 185.1 277.3 182.2 277.8 179.7 277.5 176.2 276.0 174.0 274.4 174.2 271.3 171.8 268.9 168.9 266.3 167.7 263.9 168.6 262.7 170.7 260.2 172.5 257.5 172.3 257.7 171.3 254.8 169.0 251.9 167.8 248.7 167.4 241.7 169.1 242.2 167.4 Z" vector-effect="non-scaling-stroke" stroke="silver" stroke-width="1" class=" highcharts-name-florida highcharts-key-us-fl"></path><path fill="rgb(114,143,183)" d="M 311.3 107.0 L 311.4 107.4 310.6 107.1 310.6 107.1 310.9 107.1 310.9 107.1 311.0 107.0 311.1 107.0 311.3 107.0 M 311.6 106.9 L 312.5 108.9 315.5 112.9 313.3 110.6 311.4 107.0 311.5 106.9 311.6 106.9 M 284.7 112.4 L 310.5 107.2 312.9 110.5 309.8 109.3 311.0 110.2 307.1 112.9 312.6 111.4 313.7 112.4 313.8 114.4 313.0 114.1 312.3 116.4 311.0 116.9 308.8 116.2 308.8 117.0 306.1 116.8 309.6 117.5 308.8 118.9 309.6 119.1 307.4 120.8 310.0 120.6 310.3 119.3 311.4 120.5 309.8 122.6 306.6 123.4 303.6 126.5 302.8 128.0 302.5 131.1 300.5 130.8 298.4 131.6 290.0 125.7 282.6 126.7 282.3 125.7 280.2 124.4 272.3 125.3 267.1 127.7 264.6 128.1 259.2 128.9 259.3 126.7 260.4 126.6 260.8 125.2 262.2 123.9 263.9 123.5 266.5 121.4 267.4 120.0 269.0 118.9 269.4 119.5 271.7 117.6 272.5 118.0 274.3 115.4 274.6 113.5 277.4 113.4 284.7 112.4 Z" vector-effect="non-scaling-stroke" stroke="silver" stroke-width="1" class=" highcharts-name-north-carolina highcharts-key-us-nc"></path><path fill="rgb(111,141,181)" d="M 223.1 124.3 L 223.1 122.3 223.9 120.2 224.3 120.2 224.4 120.6 224.7 120.2 233.7 119.5 233.4 117.9 234.9 118.2 243.1 117.3 261.3 115.7 261.7 115.5 272.7 113.9 274.6 113.5 274.3 115.4 272.5 118.0 271.7 117.6 269.4 119.5 269.0 118.9 267.4 120.0 266.5 121.4 263.9 123.5 262.2 123.9 260.8 125.2 260.4 126.6 259.3 126.7 259.2 128.9 255.6 129.4 250.8 130.0 233.8 131.5 233.8 131.6 230.9 131.8 219.8 132.6 221.0 131.5 220.9 129.4 222.1 128.0 221.8 126.5 223.2 125.7 223.1 124.3 Z" vector-effect="non-scaling-stroke" stroke="silver" stroke-width="1" class=" highcharts-name-tennessee highcharts-key-us-tn"></path><path fill="rgb(108,138,179)" d="M 51.4 172.6 L 51.3 172.4 51.9 172.1 52.5 172.3 53.5 172.4 54.5 171.9 55.1 171.3 56.2 171.9 56.1 172.3 55.6 172.5 55.7 173.0 56.0 173.0 56.6 172.2 57.1 172.7 57.0 173.2 57.5 173.4 57.7 173.1 58.4 173.2 59.4 173.7 58.9 174.4 59.8 174.5 59.5 174.9 60.3 175.0 61.7 174.9 62.6 175.1 63.2 175.7 63.4 175.6 63.8 176.0 64.5 176.3 65.8 176.3 66.4 176.9 67.2 177.0 67.7 176.6 68.5 176.6 69.3 176.9 69.7 177.4 70.2 177.5 70.6 178.0 71.0 178.0 72.0 207.1 72.8 207.4 72.9 207.2 73.6 207.5 74.1 207.0 75.0 206.9 74.9 207.8 75.7 208.3 75.9 208.7 77.5 210.2 77.9 211.2 78.8 210.4 79.2 210.3 79.4 208.9 80.7 208.1 81.6 208.8 81.5 209.3 82.7 210.2 83.1 210.9 83.7 211.1 84.6 212.0 87.1 215.5 87.0 215.8 87.6 215.9 87.5 216.5 88.0 216.6 88.2 217.2 88.5 217.1 91.3 218.2 91.6 218.8 91.5 219.3 92.0 220.7 91.6 222.0 91.1 222.5 90.7 222.5 90.2 221.3 90.5 220.8 90.2 219.7 89.5 218.9 89.1 218.9 88.6 219.4 88.5 220.6 87.8 219.9 88.1 219.7 88.2 218.4 87.0 217.4 86.8 216.9 85.5 215.8 84.9 215.8 85.2 215.1 84.6 214.6 84.6 213.5 84.4 214.0 83.7 213.2 83.6 212.1 83.3 212.8 83.1 212.7 83.3 212.9 82.7 212.8 82.6 212.6 83.0 212.6 82.4 212.3 81.1 209.7 81.2 210.8 82.0 212.5 81.9 213.0 81.3 212.5 80.5 212.6 80.6 212.1 80.1 211.1 79.9 211.5 78.5 210.6 78.6 211.2 79.3 211.3 80.2 212.2 80.3 212.8 79.4 212.8 79.3 213.2 79.0 212.8 78.5 212.8 77.6 212.1 76.5 210.8 75.0 210.2 73.9 209.5 74.5 208.9 74.2 208.4 73.1 209.0 72.7 209.0 71.4 208.6 71.6 208.1 70.9 208.3 69.2 207.9 67.5 208.2 67.0 207.7 65.9 207.2 66.2 206.1 65.8 206.5 65.6 207.2 65.0 206.7 64.4 206.7 64.9 206.0 63.9 206.0 63.3 205.7 63.6 205.5 63.2 205.0 62.4 205.2 61.8 205.0 61.4 205.4 61.1 205.2 61.8 204.0 61.2 204.7 61.1 204.4 60.6 205.9 60.9 205.5 61.3 206.4 61.1 207.0 60.8 206.9 60.8 207.8 60.6 207.4 60.4 208.0 59.7 208.0 59.2 207.7 58.5 208.0 58.3 208.7 58.0 208.5 57.2 209.3 57.5 208.5 56.7 209.7 56.2 209.9 55.5 209.7 54.8 209.9 54.6 209.4 55.5 209.0 56.3 208.2 55.5 208.5 55.0 208.0 55.8 206.8 56.2 205.8 56.0 205.2 56.6 205.0 57.6 204.4 58.2 204.8 58.5 204.6 59.6 205.0 58.2 204.0 58.4 203.8 57.7 203.7 57.6 203.3 56.6 204.1 55.9 204.3 54.5 205.7 54.6 206.0 54.0 206.4 54.0 206.8 53.1 208.0 52.0 208.0 51.9 208.5 51.2 208.7 51.0 209.7 51.7 209.7 52.3 210.6 50.8 211.5 50.9 211.8 50.3 212.1 49.8 212.8 49.0 212.7 48.3 213.5 48.0 213.2 47.6 213.9 47.2 213.7 46.1 214.4 46.4 214.4 45.9 215.4 45.5 215.1 44.7 215.8 44.4 215.4 44.2 216.1 43.7 215.9 42.1 216.7 42.6 217.0 41.6 217.7 40.4 217.8 40.0 218.0 39.5 217.6 37.7 218.4 37.4 218.2 36.6 218.5 36.2 218.3 36.6 217.8 36.2 217.6 35.2 218.9 34.5 219.1 34.3 218.0 33.6 219.0 33.3 218.4 33.1 218.9 32.5 219.1 32.8 218.3 33.7 217.9 34.5 217.9 34.5 217.6 36.1 216.6 37.8 216.7 37.9 217.1 38.8 217.5 38.3 216.9 38.9 216.1 40.2 215.4 41.8 214.9 42.2 215.3 42.4 214.5 43.2 213.7 44.4 213.2 44.9 211.5 45.2 211.3 45.3 210.5 46.2 209.8 46.2 209.3 44.3 209.8 43.8 209.0 44.2 208.3 43.3 209.0 43.3 209.8 42.8 210.0 42.3 208.3 41.6 208.6 41.2 208.3 41.2 207.5 40.2 208.0 39.5 208.0 39.3 208.4 37.9 208.0 38.8 207.9 38.9 207.1 38.7 206.2 39.4 205.6 39.0 203.5 39.2 202.6 38.6 203.7 37.6 203.9 36.8 203.8 36.1 203.5 36.2 202.9 35.9 202.5 35.7 201.8 35.3 201.5 34.8 200.6 36.3 200.2 36.8 200.5 36.9 201.0 37.2 200.7 37.5 201.4 38.0 201.0 37.3 200.4 36.4 200.1 36.4 199.9 35.7 199.7 36.0 199.5 35.6 198.7 35.5 199.1 35.0 197.8 35.4 197.5 34.9 197.1 35.5 197.1 35.3 196.5 36.0 196.7 36.1 195.8 37.4 194.9 37.7 194.9 38.1 194.1 38.8 193.3 39.5 193.1 40.0 193.4 40.3 194.2 40.7 194.2 41.6 193.8 42.3 193.2 41.9 193.0 42.2 192.7 42.6 193.4 42.4 193.5 43.7 193.7 44.5 193.1 44.7 191.5 44.2 190.8 45.3 190.4 45.3 189.8 45.0 189.3 44.6 189.7 43.7 189.6 42.8 190.1 42.0 190.1 41.6 189.5 40.5 189.1 39.6 189.2 38.3 188.2 38.1 187.6 38.4 187.2 38.0 186.2 38.5 186.4 39.1 186.2 37.7 185.2 37.1 184.3 37.6 183.9 38.5 183.8 38.7 184.0 39.3 183.6 41.3 183.1 42.5 183.1 43.5 183.3 42.9 184.4 43.0 184.9 44.2 185.2 44.8 185.5 45.1 185.9 45.7 185.2 46.4 185.5 45.9 184.8 45.4 184.8 45.6 184.4 45.1 182.9 45.5 182.8 45.7 183.5 45.5 183.8 45.9 184.6 46.4 184.5 46.8 185.1 47.5 185.2 47.6 184.9 46.9 184.2 46.1 184.4 45.8 183.7 46.2 183.0 46.2 182.7 45.4 182.7 44.1 181.9 44.2 181.1 44.1 180.1 43.1 178.3 42.6 177.8 42.2 176.9 42.8 176.4 43.2 175.5 43.7 175.8 45.2 176.2 46.2 175.8 47.0 175.2 47.2 174.4 47.6 173.9 48.3 173.3 48.5 173.5 49.2 172.8 49.3 173.1 50.3 173.1 51.2 172.5 51.4 172.6 M 51.4 172.6 L 51.4 172.7 51.4 172.7 51.4 172.7 51.0 173.4 51.5 173.0 51.4 172.7 51.4 172.7 51.4 172.7 51.4 172.6 51.4 172.6 M 13.4 220.7 L 12.8 220.6 13.4 220.3 13.6 220.6 13.4 220.7 M 18.5 220.9 L 19.0 221.0 18.8 221.3 18.7 221.1 18.5 220.9 M 21.4 221.6 L 21.2 221.4 20.2 221.6 21.5 220.6 21.8 220.8 22.1 220.2 22.9 220.1 23.0 220.8 22.0 220.9 21.4 221.6 M 27.8 219.9 L 27.2 220.1 26.9 219.7 27.2 219.4 27.8 219.9 M 33.1 220.7 L 33.1 220.3 33.5 220.6 33.6 220.9 33.1 220.7 M 32.0 218.1 L 32.3 218.3 32.4 219.3 31.8 219.6 30.9 219.3 30.3 219.7 29.5 219.5 29.4 218.9 30.0 218.8 30.4 218.3 31.0 218.4 32.0 218.1 M 39.6 220.2 L 39.6 220.3 39.2 220.1 39.5 219.9 39.6 220.2 M 87.4 222.9 L 87.3 223.4 86.4 222.2 86.5 221.7 87.0 222.6 87.4 222.9 M 89.9 221.8 L 89.9 222.4 89.3 222.0 89.3 221.2 89.9 221.8 M 38.9 219.5 L 38.8 219.9 38.1 220.3 38.7 219.8 38.9 219.5 M 38.3 218.8 L 38.2 219.3 37.9 218.9 37.7 219.5 37.2 219.4 37.3 218.8 38.3 218.8 M 88.8 220.9 L 89.1 221.2 89.0 221.7 88.7 221.0 88.8 220.9 M 85.6 221.1 L 85.6 221.2 85.9 221.0 85.7 221.9 85.6 221.1 M 85.9 220.0 L 85.7 220.4 85.4 220.3 85.4 220.1 85.9 220.0 M 89.5 219.0 L 90.1 219.7 90.3 220.7 90.0 221.4 88.7 220.7 89.0 220.4 88.8 219.5 89.5 219.0 M 85.0 219.9 L 85.2 219.3 85.8 219.0 85.9 219.4 85.0 219.9 M 87.2 218.6 L 87.9 218.8 87.7 219.4 86.8 218.9 87.1 218.2 87.2 218.6 M 86.8 217.9 L 86.9 218.4 86.1 218.3 86.3 218.0 86.8 217.9 M 87.7 218.0 L 88.1 218.5 88.0 218.8 87.4 218.4 87.3 217.7 87.7 218.0 M 49.2 217.2 L 49.2 217.5 48.7 217.8 48.8 217.4 49.2 217.2 M 49.9 217.5 L 50.0 217.6 49.4 217.5 49.5 217.3 49.9 217.5 M 86.2 216.9 L 86.9 217.4 86.5 217.8 86.3 217.8 86.2 216.9 M 51.7 215.8 L 52.1 215.8 51.3 216.3 51.3 216.0 51.7 215.8 M 81.5 216.1 L 81.5 216.8 81.1 216.9 81.3 216.3 81.5 216.1 M 80.0 213.8 L 79.8 214.4 79.6 213.9 79.7 213.6 80.0 213.8 M 52.1 212.9 L 52.5 213.3 52.3 213.3 51.7 213.0 52.1 212.9 M 52.9 212.4 L 53.2 211.9 53.6 212.3 54.0 212.2 54.2 212.8 53.9 213.0 52.7 213.3 52.1 212.9 52.3 212.4 52.9 212.4 M 53.4 211.9 L 53.2 211.6 53.7 211.4 53.7 211.7 53.4 211.9 M 40.1 208.6 L 39.6 208.8 39.8 208.4 40.4 208.2 40.1 208.6 M 61.3 207.7 L 61.2 208.0 60.8 208.1 61.2 207.4 61.3 207.7 M 62.5 206.9 L 62.8 207.1 61.9 208.2 61.2 208.6 61.6 208.0 62.4 207.2 62.5 206.9 M 33.7 200.7 L 34.2 201.2 33.9 201.9 34.0 202.4 33.0 202.4 32.3 202.1 31.6 201.2 31.5 200.6 32.3 200.9 32.5 200.6 33.7 200.7 M 63.4 206.6 L 64.1 206.7 63.3 207.3 63.5 206.9 63.4 206.6 M 61.7 206.4 L 61.8 206.6 61.6 207.1 61.4 206.8 61.7 206.4 M 24.3 196.7 L 24.1 196.9 23.7 196.1 23.9 195.8 24.3 196.7 M 64.2 206.6 L 63.8 206.7 63.8 206.5 64.7 206.3 64.2 206.6 M 26.6 220.1 L 25.6 220.6 26.7 220.5 26.2 220.9 23.6 221.2 22.9 221.0 24.3 221.0 25.1 219.6 25.9 219.7 25.7 220.2 26.3 219.8 26.6 220.1 M 86.4 221.7 L 86.6 220.5 85.9 220.6 86.1 219.8 85.8 218.9 85.3 218.9 85.2 218.4 85.9 218.4 86.3 219.2 86.8 219.3 88.3 221.4 88.8 222.8 88.5 223.2 87.7 222.0 87.1 222.3 87.1 221.6 86.4 221.7 M 81.4 215.7 L 81.7 215.1 82.6 215.7 83.3 217.5 83.4 219.2 82.4 217.8 82.4 217.3 82.0 217.3 82.3 216.7 81.9 216.5 81.9 216.0 81.4 215.7 M 52.6 213.5 L 52.4 214.0 53.2 213.5 53.3 214.1 53.2 214.6 53.6 214.6 53.2 215.2 52.2 214.8 52.7 215.2 52.6 215.5 51.8 215.4 50.8 216.2 50.0 217.1 49.9 216.7 50.6 215.7 50.1 215.7 49.8 216.3 49.3 216.0 49.4 215.4 49.0 215.0 49.2 214.6 50.2 214.0 50.5 214.1 50.6 214.9 50.9 214.1 50.7 213.6 51.2 213.4 51.3 214.1 51.6 213.2 52.2 213.7 51.9 213.2 52.6 213.5 M 80.9 214.5 L 81.5 215.4 81.0 215.7 80.7 215.0 79.9 214.4 80.0 213.9 80.7 212.9 82.3 213.5 82.4 214.2 81.6 214.3 81.9 214.6 82.4 214.4 82.7 215.2 82.3 215.3 80.9 214.5 M 83.3 215.7 L 82.9 214.8 82.5 213.2 82.1 212.4 82.6 213.0 83.4 213.1 84.1 214.0 84.0 214.4 83.4 213.3 83.5 214.0 84.1 214.6 84.2 215.5 83.2 216.6 83.1 215.9 83.3 215.7 M 30.7 188.3 L 30.9 188.6 31.4 188.4 31.9 188.6 31.9 189.3 32.4 190.0 33.5 190.6 33.2 191.0 32.5 190.6 31.6 191.0 31.7 190.5 31.0 189.2 30.5 188.8 29.9 189.0 29.6 188.6 29.7 188.1 30.2 187.4 30.2 188.0 30.7 188.3 M 84.8 217.2 L 84.6 218.5 84.7 218.9 84.3 219.5 84.0 218.6 84.4 218.1 83.9 217.9 83.6 217.1 84.1 217.0 84.6 217.4 84.8 217.2 84.8 217.1 84.2 216.3 84.6 216.2 86.0 216.5 86.1 217.5 85.4 216.9 86.0 217.7 85.9 218.0 85.1 218.1 84.8 217.2 Z" vector-effect="non-scaling-stroke" stroke="silver" stroke-width="1" class=" highcharts-name-alaska highcharts-key-us-ak"></path><path fill="rgb(102,134,176)" d="M 195.4 149.7 L 195.3 145.3 193.4 145.3 192.3 144.6 192.4 130.6 191.1 121.7 220.0 120.5 220.7 122.2 218.8 124.7 223.1 124.3 223.2 125.7 221.8 126.5 222.1 128.0 220.9 129.4 221.0 131.5 219.8 132.6 218.1 135.6 218.2 137.3 215.9 139.6 216.2 140.6 215.1 141.0 215.4 142.4 214.3 143.5 215.0 145.1 215.3 147.8 214.9 148.9 213.6 149.0 195.4 149.7 Z" vector-effect="non-scaling-stroke" stroke="silver" stroke-width="1" class=" highcharts-name-arkansas highcharts-key-us-ar"></path><path fill="rgb(102,134,176)" d="M 191.1 121.7 L 191.0 118.7 191.0 117.6 190.8 100.6 189.4 99.9 187.7 97.4 189.1 95.0 186.4 93.6 184.4 90.9 183.5 88.8 183.5 88.8 183.6 88.8 191.4 88.9 199.9 88.7 208.2 88.0 210.1 89.9 210.1 89.9 210.1 89.9 209.7 91.5 210.9 95.2 214.4 98.2 215.3 100.7 216.1 101.6 217.0 100.9 219.0 101.8 217.6 106.2 219.5 108.3 220.7 108.8 223.2 110.6 224.0 112.7 223.6 114.1 224.6 115.4 226.4 116.2 226.4 118.2 224.7 120.2 224.4 120.6 224.3 120.2 223.8 119.8 223.9 120.2 223.1 122.3 223.1 124.3 218.8 124.7 220.7 122.2 220.0 120.5 191.1 121.7 Z" vector-effect="non-scaling-stroke" stroke="silver" stroke-width="1" class=" highcharts-name-missouri highcharts-key-us-mo"></path><path fill="rgb(99,131,174)" d="M 309.9 67.7 L 307.3 66.2 306.8 64.5 305.0 63.5 279.0 68.9 278.6 66.8 281.8 63.6 283.0 61.2 281.5 59.4 281.3 58.0 283.3 57.0 286.6 56.0 290.0 56.5 293.2 55.6 294.7 54.8 296.0 52.9 297.3 52.2 296.6 50.1 295.3 48.1 296.2 46.6 297.8 45.5 298.3 43.7 300.2 41.0 302.2 39.3 310.6 37.3 311.4 40.6 312.0 41.3 312.0 44.8 313.0 47.1 313.0 48.4 314.1 48.5 315.6 54.8 315.5 60.3 315.7 60.5 316.8 66.5 317.3 67.0 316.2 68.3 316.8 68.9 316.4 70.4 317.9 69.1 323.0 67.4 324.2 65.9 325.5 65.9 327.2 65.6 324.4 68.1 322.6 69.1 321.0 70.6 318.1 72.2 315.6 72.8 314.2 73.7 315.6 71.1 315.2 71.4 315.3 69.4 312.6 68.6 310.6 67.9 309.9 67.7 309.9 67.7 Z" vector-effect="non-scaling-stroke" stroke="silver" stroke-width="1" class=" highcharts-name-new-york highcharts-key-us-ny"></path><path fill="rgb(96,129,172)" d="M 98.4 111.7 L 137.1 116.0 136.9 119.0 136.8 120.0 136.5 120.1 133.5 156.0 108.9 153.6 109.8 155.6 98.1 154.1 97.6 157.7 91.9 156.9 95.1 134.2 98.4 111.7 Z" vector-effect="non-scaling-stroke" stroke="silver" stroke-width="1" class=" highcharts-name-new-mexico highcharts-key-us-nm"></path><path fill="rgb(93,127,170)" d="M 242.2 167.4 L 240.8 169.4 237.6 169.5 235.4 168.8 233.9 156.7 234.5 132.4 233.8 131.6 233.8 131.5 250.8 130.0 255.4 146.0 258.1 151.1 257.2 152.3 256.8 154.9 257.8 157.1 257.6 159.3 258.6 161.4 240.7 163.3 240.5 164.4 242.2 166.1 242.2 167.4 Z" vector-effect="non-scaling-stroke" stroke="silver" stroke-width="1" class=" highcharts-name-alabama highcharts-key-us-al"></path><path fill="rgb(93,127,170)" d="M 58.6 131.4 L 58.7 129.7 59.9 128.4 61.8 127.5 60.6 125.7 59.8 121.2 60.4 119.7 60.3 117.1 60.9 112.5 62.1 112.2 64.7 113.6 65.5 112.3 66.7 106.2 87.5 110.0 98.4 111.7 95.1 134.2 91.9 156.9 78.4 154.8 54.3 140.6 55.4 139.1 56.6 139.2 57.5 137.3 56.1 136.2 56.5 133.6 58.6 131.4 Z" vector-effect="non-scaling-stroke" stroke="silver" stroke-width="1" class=" highcharts-name-arizona highcharts-key-us-az"></path><path fill="rgb(93,127,170)" d="M 342.6 102.7 L 369.4 102.7 369.4 119.0 342.6 119.0 342.6 102.7 M 326.7 63.8 L 326.4 63.6 323.0 65.2 320.8 65.9 316.8 68.9 316.2 68.3 317.3 67.0 316.8 66.5 315.7 60.5 320.0 59.6 325.5 58.3 326.6 62.1 326.7 63.8 Z" vector-effect="non-scaling-stroke" stroke="silver" stroke-width="1" class=" highcharts-name-connecticut highcharts-key-us-ct"></path><path fill="rgb(93,127,170)" d="M 342.6 119.9 L 369.4 119.9 369.4 136.2 342.6 136.2 342.6 119.9 M 308.1 73.1 L 308.7 71.8 308.0 71.2 309.9 67.7 312.6 68.6 315.3 69.4 315.1 71.8 314.0 73.8 316.2 74.7 316.5 79.5 315.5 81.2 315.4 82.9 314.2 84.4 313.4 86.8 312.9 85.2 311.3 85.3 308.4 83.6 308.4 83.5 308.4 83.5 308.4 81.1 310.0 79.9 310.5 78.6 312.0 77.0 309.1 74.5 308.1 73.1 Z" vector-effect="non-scaling-stroke" stroke="silver" stroke-width="1" class=" highcharts-name-new-jersey highcharts-key-us-nj"></path><path fill="rgb(93,127,170)" d="M 39.8 58.7 L 15.6 51.5 15.2 48.6 16.1 46.1 15.8 44.4 18.0 40.9 19.3 39.6 20.6 37.2 23.0 31.6 23.4 30.1 26.1 24.7 26.1 23.0 27.2 19.6 30.3 21.1 31.5 21.1 32.7 22.1 33.0 23.3 32.6 25.9 35.0 27.4 37.9 26.9 40.7 27.8 41.1 28.6 44.3 28.7 46.4 29.2 50.3 28.7 53.1 29.2 53.7 29.0 65.4 31.8 65.7 33.3 66.8 34.2 66.9 35.6 65.4 37.3 63.6 40.4 60.7 43.3 60.4 44.8 61.9 46.1 60.5 49.1 57.2 63.1 39.8 58.7 Z" vector-effect="non-scaling-stroke" stroke="silver" stroke-width="1" class=" highcharts-name-oregon highcharts-key-us-or"></path><path fill="rgb(90,125,169)" d="M 271.9 135.4 L 276.7 138.7 278.3 141.1 280.0 141.7 281.3 144.9 282.9 145.8 284.3 148.8 285.6 149.1 286.0 149.2 283.2 153.5 284.0 155.5 282.8 156.4 283.4 158.5 283.1 160.3 280.2 159.9 279.4 160.7 279.8 163.6 278.9 163.8 278.2 162.3 259.8 163.5 258.6 161.4 257.6 159.3 257.8 157.1 256.8 154.9 257.2 152.3 258.1 151.1 255.4 146.0 250.8 130.0 255.6 129.4 259.2 128.9 264.6 128.1 267.1 127.7 265.8 130.3 268.1 131.7 269.4 131.8 271.9 135.4 Z" vector-effect="non-scaling-stroke" stroke="silver" stroke-width="1" class=" highcharts-name-georgia highcharts-key-us-ga"></path><path fill="rgb(78,115,162)" d="M 252.0 39.9 L 252.2 41.1 250.8 41.1 251.1 39.8 252.0 39.9 M 222.9 26.0 L 222.0 27.4 219.7 29.0 219.7 27.9 222.9 26.0 M 257.4 74.5 L 252.4 75.4 249.4 75.8 249.3 75.3 237.2 76.7 238.4 75.1 239.5 72.5 240.1 68.7 239.8 66.7 237.4 61.6 237.8 60.3 237.1 57.9 238.3 55.4 238.1 52.9 239.0 52.3 239.0 50.9 240.3 50.5 241.2 48.5 241.7 49.5 241.4 51.2 242.0 51.7 242.7 50.4 242.6 48.0 243.7 46.7 244.7 46.5 243.9 44.6 245.5 43.0 247.2 43.8 246.6 42.7 247.9 42.8 247.4 43.8 248.8 43.9 249.6 44.9 253.1 45.6 254.5 47.8 253.8 48.4 255.1 50.7 255.1 53.7 254.2 54.4 254.0 56.0 252.6 56.8 252.7 59.3 254.0 59.7 255.0 58.8 256.2 56.3 257.9 55.4 259.4 56.4 261.1 61.4 262.1 63.4 262.0 66.4 260.2 66.6 260.0 68.7 258.8 70.0 258.4 72.7 257.4 74.5 M 223.3 34.3 L 224.1 35.6 224.1 37.1 225.2 35.8 227.7 35.9 228.7 36.4 230.5 38.8 232.6 38.4 233.1 39.0 234.7 38.8 237.0 36.7 240.5 36.4 243.5 35.2 243.2 37.3 246.0 37.8 246.8 37.0 248.5 36.7 248.6 39.0 250.2 40.7 249.6 41.1 246.7 41.3 245.9 40.9 245.7 42.5 243.9 41.3 240.9 41.1 240.4 42.1 237.1 42.7 236.5 44.0 234.7 45.2 235.3 43.4 234.2 43.7 233.1 45.0 232.9 43.5 230.1 50.3 229.4 49.8 229.6 48.4 228.5 48.4 228.6 45.7 226.9 45.1 226.2 43.7 222.5 43.4 220.8 42.6 215.1 41.5 213.4 39.6 215.5 38.6 216.7 37.4 218.8 36.9 221.1 35.5 222.8 33.6 223.1 34.0 223.9 32.4 225.9 31.3 227.7 31.6 225.0 33.8 224.2 35.5 224.1 34.4 223.3 34.3 Z" vector-effect="non-scaling-stroke" stroke="silver" stroke-width="1" class=" highcharts-name-michigan highcharts-key-us-mi"></path><path fill="rgb(75,113,160)" d="M 342.6 171.8 L 369.4 171.8 369.4 188.1 342.6 188.1 342.6 171.8 M 300.5 90.8 L 300.4 90.4 300.0 90.1 299.8 90.1 299.6 89.9 301.0 90.0 300.5 90.8 Z" vector-effect="non-scaling-stroke" stroke="silver" stroke-width="1" class=" highcharts-name-district-of columbia highcharts-key-us-dc"></path><path fill="rgb(75,113,160)" d="M 235.4 168.8 L 232.2 168.8 229.0 170.0 227.7 171.0 225.2 167.1 225.8 164.5 212.4 165.3 212.4 163.1 213.1 163.0 213.1 161.2 214.3 158.3 215.9 156.9 216.9 154.2 215.7 153.4 214.9 148.9 215.3 147.8 215.0 145.1 214.3 143.5 215.4 142.4 215.1 141.0 216.2 140.6 215.9 139.6 218.2 137.3 218.1 135.6 219.8 132.6 230.9 131.8 233.8 131.6 234.5 132.4 233.9 156.7 235.4 168.8 Z" vector-effect="non-scaling-stroke" stroke="silver" stroke-width="1" class=" highcharts-name-mississippi highcharts-key-us-ms"></path><path fill="rgb(69,109,157)" d="M 223.9 120.2 L 223.8 119.8 224.3 120.2 223.9 120.2 M 224.7 120.2 L 226.4 118.2 226.4 116.2 226.0 115.6 227.6 114.2 230.4 115.1 230.3 112.4 232.5 111.7 232.1 110.4 232.7 109.0 233.6 107.9 235.5 108.3 236.5 107.5 238.3 108.2 240.4 106.8 240.9 107.4 243.6 105.3 245.2 106.5 246.4 103.8 248.6 101.5 248.3 100.0 250.0 100.1 252.2 99.0 251.8 96.6 254.2 96.2 256.1 98.4 258.2 98.5 259.2 99.3 260.3 98.6 261.8 99.3 264.3 97.8 264.8 99.0 266.5 100.1 266.5 100.1 266.5 100.1 266.5 102.2 269.2 105.6 271.5 106.5 269.4 108.9 267.7 110.1 266.4 112.5 265.0 113.8 261.7 115.5 261.3 115.7 243.1 117.3 234.9 118.2 233.4 117.9 233.7 119.5 224.7 120.2 M 266.5 100.1 L 266.5 100.1 266.5 100.1 266.5 100.1 266.5 100.1 266.5 100.1 Z" vector-effect="non-scaling-stroke" stroke="silver" stroke-width="1" class=" highcharts-name-kentucky highcharts-key-us-ky"></path><path fill="rgb(66,106,155)" d="M 15.6 51.5 L 39.8 58.7 33.6 81.9 42.4 95.1 49.5 105.9 59.8 121.2 60.6 125.7 61.8 127.5 59.9 128.4 58.7 129.7 58.6 131.4 57.2 133.5 56.5 133.6 56.1 136.2 57.5 137.3 56.6 139.2 55.4 139.1 39.0 137.0 38.5 135.4 38.8 132.1 38.0 130.1 34.5 125.6 32.8 125.4 32.6 122.9 30.8 122.7 28.5 120.9 28.3 120.0 26.4 118.1 23.2 116.8 21.0 116.4 20.2 115.0 21.4 110.7 20.0 109.4 20.6 108.9 19.1 105.9 18.4 105.5 16.8 100.6 16.0 99.5 16.1 97.2 17.8 95.8 17.3 94.2 16.0 93.8 14.9 91.7 15.0 88.9 15.6 87.0 16.3 86.9 16.1 88.7 17.7 90.4 16.7 87.3 17.0 85.5 18.5 85.7 16.4 84.4 15.6 86.7 13.8 84.3 13.4 80.7 11.0 76.0 11.5 75.2 11.4 72.5 12.2 71.1 12.4 68.7 11.5 66.2 10.5 64.5 10.6 63.1 13.8 59.0 15.1 56.1 15.3 53.6 14.8 53.1 15.6 51.5 Z" vector-effect="non-scaling-stroke" stroke="silver" stroke-width="1" class=" highcharts-name-california highcharts-key-us-ca"></path><path fill="rgb(63,104,153)" d="M 230.9 71.4 L 230.9 73.1 233.1 77.4 234.8 96.3 234.2 98.3 235.4 101.1 232.6 106.7 232.7 109.0 232.1 110.4 232.5 111.7 230.3 112.4 230.4 115.1 227.6 114.2 226.0 115.6 226.4 116.2 224.6 115.4 223.6 114.1 224.0 112.7 223.2 110.6 220.7 108.8 219.5 108.3 217.6 106.2 219.0 101.8 217.0 100.9 216.1 101.6 215.3 100.7 214.4 98.2 210.9 95.2 209.7 91.5 210.1 89.9 210.1 89.9 210.1 89.9 210.4 88.1 211.6 87.6 212.8 85.2 212.0 83.3 212.4 81.3 214.1 81.0 216.2 79.7 217.0 77.9 217.0 75.5 215.6 74.6 214.0 72.5 214.0 72.5 215.0 72.5 222.5 72.0 230.9 71.4 Z" vector-effect="non-scaling-stroke" stroke="silver" stroke-width="1" class=" highcharts-name-illinois highcharts-key-us-il"></path><path fill="rgb(60,102,152)" d="M 39.8 58.7 L 57.2 63.1 69.2 65.7 74.6 66.9 70.2 89.0 66.7 106.2 65.5 112.3 64.7 113.6 62.1 112.2 60.9 112.5 60.3 117.1 60.4 119.7 59.8 121.2 49.5 105.9 42.4 95.1 33.6 81.9 39.8 58.7 Z" vector-effect="non-scaling-stroke" stroke="silver" stroke-width="1" class=" highcharts-name-nevada highcharts-key-us-nv"></path><path fill="rgb(51,95,146)" d="M 342.6 85.4 L 369.4 85.4 369.4 101.7 342.6 101.7 342.6 85.4 M 330.5 61.0 L 330.1 61.3 329.8 59.9 330.2 59.9 330.5 61.0 M 325.5 58.3 L 327.9 57.6 329.5 59.7 330.0 61.4 328.7 62.8 326.7 63.8 326.6 62.1 325.5 58.3 Z" vector-effect="non-scaling-stroke" stroke="silver" stroke-width="1" class=" highcharts-name-rhode-island highcharts-key-us-ri"></path></g></g><g class="highcharts-markers highcharts-tracker" visibility="visible"  transform="translate(10,61) scale(1 1)" style="" clip-path="none"></g><g class="highcharts-series highcharts-tracker" visibility="visible"  transform="translate(10,61) scale(1 1)" style="" clip-path="url(#highcharts-2)"><g transform="translate(0,0) scale(1 1)"><path fill="none" d="M 19.5 144.3 L 154.4 213.6 M 95.5 225 L 95.5 187.3" vector-effect="non-scaling-stroke" stroke="silver" stroke-width="1"></path><path fill="none" d="M 316.8 43.1 L 342.2 41.6" vector-effect="non-scaling-stroke" stroke="silver" stroke-width="1"></path><path fill="none" d="M 326.4 48.7 L 334.9 58.9 342.2 58.9" vector-effect="non-scaling-stroke" stroke="silver" stroke-width="1"></path><path fill="none" d="M 331.2 57.5 L 335.4 76.2 342.2 76.2" vector-effect="non-scaling-stroke" stroke="silver" stroke-width="1"></path><path fill="none" d="M 328.2 61.4 L 334.9 93.5 342.2 93.5" vector-effect="non-scaling-stroke" stroke="silver" stroke-width="1"></path><path fill="none" d="M 321.8 64.1 L 333.0 110.7 342.2 110.7" vector-effect="non-scaling-stroke" stroke="silver" stroke-width="1"></path><path fill="none" d="M 314.0 81.5 L 331.0 128.0 342.2 128.0" vector-effect="non-scaling-stroke" stroke="silver" stroke-width="1"></path><path fill="none" d="M 311.3 89.0 L 329.1 145.3 342.2 145.3" vector-effect="non-scaling-stroke" stroke="silver" stroke-width="1"></path><path fill="none" d="M 309.5 93.3 L 327.2 162.6 342.2 162.6" vector-effect="non-scaling-stroke" stroke="silver" stroke-width="1"></path><path fill="none" d="M 300.3 90.2 L 325.3 179.8 342.2 179.8" vector-effect="non-scaling-stroke" stroke="silver" stroke-width="1"></path></g></g><g class="highcharts-markers highcharts-tracker" visibility="visible"  transform="translate(10,61) scale(1 1)" style="" clip-path="none"></g></g><text x="200" text-anchor="middle" class="highcharts-title"  style="color:#333333;font-size:18px;fill:#333333;width:336px;" y="24"><tspan>US unemployment rate 2014</tspan></text><text x="200" text-anchor="middle" class="highcharts-subtitle"  style="color:#555555;fill:#555555;width:336px;" y="46"><tspan>Small US map with data labels</tspan></text><g class="highcharts-data-labels highcharts-tracker" visibility="visible"  transform="translate(10,61) scale(1 1)" clip-path="url(#highcharts-2)" style=""><g  style="" transform="translate(151,26)"><text x="0"  style="font-size: 10px; font-weight: bold; color: rgb(0, 0, 0); fill: #000000; text-shadow: rgb(255, 255, 255) 0px 0px 6px, rgb(255, 255, 255) 0px 0px 3px; " transform="translate(0,10)"><tspan>ND</tspan></text></g><g  style="" transform="translate(349,36)"><text x="0"  style="font-size: 10px; font-weight: bold; color: rgb(0, 0, 0); fill: #000000; text-shadow: rgb(255, 255, 255) 0px 0px 6px, rgb(255, 255, 255) 0px 0px 3px; " transform="translate(0,10)"><tspan>VT</tspan></text></g><g  style="" transform="translate(151,75)"><text x="0"  style="font-size: 10px; font-weight: bold; color: rgb(0, 0, 0); fill: #000000; text-shadow: rgb(255, 255, 255) 0px 0px 6px, rgb(255, 255, 255) 0px 0px 3px; " transform="translate(0,10)"><tspan>NE</tspan></text></g><g  style="" transform="translate(105,59)"><text x="0"  style="font-size: 10px; font-weight: bold; color: rgb(0, 0, 0); fill: #000000; text-shadow: rgb(255, 255, 255) 0px 0px 6px, rgb(255, 255, 255) 0px 0px 3px; " transform="translate(0,10)"><tspan>WY</tspan></text></g><g  style="" transform="translate(151,51)"><text x="0"  style="font-size: 10px; font-weight: bold; color: rgb(0, 0, 0); fill: #000000; text-shadow: rgb(255, 255, 255) 0px 0px 6px, rgb(255, 255, 255) 0px 0px 3px; " transform="translate(0,10)"><tspan>SD</tspan></text></g><g  style="" transform="translate(79,87)"><text x="0"  style="font-size: 10px; font-weight: bold; color: rgb(0, 0, 0); fill: #000000; text-shadow: rgb(255, 255, 255) 0px 0px 6px, rgb(255, 255, 255) 0px 0px 3px; " transform="translate(0,10)"><tspan>UT</tspan></text></g><g  style="" transform="translate(185,69)"><text x="0"  style="font-size: 10px; font-weight: bold; color: rgb(0, 0, 0); fill: #000000; text-shadow: rgb(255, 255, 255) 0px 0px 6px, rgb(255, 255, 255) 0px 0px 3px; " transform="translate(0,10)"><tspan>IA</tspan></text></g><g  style="" transform="translate(125,211)"><text x="0"  style="font-size: 10px; font-weight: bold; color: rgb(0, 0, 0); fill: #000000; text-shadow: rgb(255, 255, 255) 0px 0px 6px, rgb(255, 255, 255) 0px 0px 3px; " transform="translate(0,10)"><tspan>HI</tspan></text></g><g  style="" transform="translate(349,53)"><text x="0"  style="font-size: 10px; font-weight: bold; color: rgb(0, 0, 0); fill: #000000; text-shadow: rgb(255, 255, 255) 0px 0px 6px, rgb(255, 255, 255) 0px 0px 3px; " transform="translate(0,10)"><tspan>NH</tspan></text></g><g  style="" transform="translate(200,160)"><text x="0"  style="font-size: 10px; font-weight: bold; color: rgb(0, 0, 0); fill: #000000; text-shadow: rgb(255, 255, 255) 0px 0px 6px, rgb(255, 255, 255) 0px 0px 3px; " transform="translate(0,10)"><tspan>LA</tspan></text></g><g  style="" transform="translate(172,125)"><text x="0"  style="font-size: 10px; font-weight: bold; color: rgb(0, 0, 0); fill: #000000; text-shadow: rgb(255, 255, 255) 0px 0px 6px, rgb(255, 255, 255) 0px 0px 3px; " transform="translate(0,10)"><tspan>OK</tspan></text></g><g  style="" transform="translate(182,40)"><text x="0"  style="font-size: 10px; font-weight: bold; color: rgb(0, 0, 0); fill: #000000; text-shadow: rgb(255, 255, 255) 0px 0px 6px, rgb(255, 255, 255) 0px 0px 3px; " transform="translate(0,10)"><tspan>MN</tspan></text></g><g  style="" transform="translate(150,99)"><text x="0"  style="font-size: 10px; font-weight: bold; color: rgb(0, 0, 0); fill: #000000; text-shadow: rgb(255, 255, 255) 0px 0px 6px, rgb(255, 255, 255) 0px 0px 3px; " transform="translate(0,10)"><tspan>KS</tspan></text></g><g  style="" transform="translate(102,26)"><text x="0"  style="font-size: 10px; font-weight: bold; color: rgb(0, 0, 0); fill: #000000; text-shadow: rgb(255, 255, 255) 0px 0px 6px, rgb(255, 255, 255) 0px 0px 3px; " transform="translate(0,10)"><tspan>MT</tspan></text></g><g  style="" transform="translate(287,95)"><text x="0"  style="font-size: 10px; font-weight: bold; color: rgb(0, 0, 0); fill: #000000; text-shadow: rgb(255, 255, 255) 0px 0px 6px, rgb(255, 255, 255) 0px 0px 3px; " transform="translate(0,10)"><tspan>VA</tspan></text></g><g  style="" transform="translate(71,46)"><text x="0"  style="font-size: 10px; font-weight: bold; color: rgb(0, 0, 0); fill: #000000; text-shadow: rgb(255, 255, 255) 0px 0px 6px, rgb(255, 255, 255) 0px 0px 3px; " transform="translate(0,10)"><tspan>ID</tspan></text></g><g  style="" transform="translate(163,159)"><text x="0"  style="font-size: 10px; font-weight: bold; color: rgb(0, 0, 0); fill: #000000; text-shadow: rgb(255, 255, 255) 0px 0px 6px, rgb(255, 255, 255) 0px 0px 3px; " transform="translate(0,10)"><tspan>TX</tspan></text></g><g  style="" transform="translate(278,127)"><text x="0"  style="font-size: 10px; font-weight: bold; color: rgb(0, 0, 0); fill: #000000; text-shadow: rgb(255, 255, 255) 0px 0px 6px, rgb(255, 255, 255) 0px 0px 3px; " transform="translate(0,10)"><tspan>SC</tspan></text></g><g  style="" transform="translate(348,157)"><text x="0"  style="font-size: 10px; font-weight: bold; color: rgb(0, 0, 0); fill: #000000; text-shadow: rgb(255, 255, 255) 0px 0px 6px, rgb(255, 255, 255) 0px 0px 3px; " transform="translate(0,10)"><tspan>MD</tspan></text></g><g  style="" transform="translate(236,86)"><text x="0"  style="font-size: 10px; font-weight: bold; color: rgb(0, 0, 0); fill: #000000; text-shadow: rgb(255, 255, 255) 0px 0px 6px, rgb(255, 255, 255) 0px 0px 3px; " transform="translate(0,10)"><tspan>IN</tspan></text></g><g  style="" transform="translate(326,19)"><text x="0"  style="font-size: 10px; font-weight: bold; color: rgb(0, 0, 0); fill: #000000; text-shadow: rgb(255, 255, 255) 0px 0px 6px, rgb(255, 255, 255) 0px 0px 3px; " transform="translate(0,10)"><tspan>ME</tspan></text></g><g  style="" transform="translate(254,80)"><text x="0"  style="font-size: 10px; font-weight: bold; color: rgb(0, 0, 0); fill: #000000; text-shadow: rgb(255, 255, 255) 0px 0px 6px, rgb(255, 255, 255) 0px 0px 3px; " transform="translate(0,10)"><tspan>OH</tspan></text></g><g  style="" transform="translate(286,69)"><text x="0"  style="font-size: 10px; font-weight: bold; color: rgb(0, 0, 0); fill: #000000; text-shadow: rgb(255, 255, 255) 0px 0px 6px, rgb(255, 255, 255) 0px 0px 3px; " transform="translate(0,10)"><tspan>PA</tspan></text></g><g  style="" transform="translate(349,139)"><text x="0"  style="font-size: 10px; font-weight: bold; color: rgb(0, 0, 0); fill: #000000; text-shadow: rgb(255, 255, 255) 0px 0px 6px, rgb(255, 255, 255) 0px 0px 3px; " transform="translate(0,10)"><tspan>DE</tspan></text></g><g  style="" transform="translate(206,44)"><text x="0"  style="font-size: 10px; font-weight: bold; color: rgb(0, 0, 0); fill: #000000; text-shadow: rgb(255, 255, 255) 0px 0px 6px, rgb(255, 255, 255) 0px 0px 3px; " transform="translate(0,10)"><tspan>WI</tspan></text></g><g  style="" transform="translate(115,92)"><text x="0"  style="font-size: 10px; font-weight: bold; color: rgb(0, 0, 0); fill: #000000; text-shadow: rgb(255, 255, 255) 0px 0px 6px, rgb(255, 255, 255) 0px 0px 3px; " transform="translate(0,10)"><tspan>CO</tspan></text></g><g  style="" transform="translate(348,70)"><text x="0"  style="font-size: 10px; font-weight: bold; color: rgb(0, 0, 0); fill: #000000; text-shadow: rgb(255, 255, 255) 0px 0px 6px, rgb(255, 255, 255) 0px 0px 3px; " transform="translate(0,10)"><tspan>MA</tspan></text></g><g  style="" transform="translate(268,90)" opacity="0"><text x="0"  style="font-size: 10px; font-weight: bold; color: rgb(0, 0, 0); fill: #000000; text-shadow: rgb(255, 255, 255) 0px 0px 6px, rgb(255, 255, 255) 0px 0px 3px; " transform="translate(0,10)"><tspan>WV</tspan></text></g><g  style="" transform="translate(44,11)"><text x="0"  style="font-size: 10px; font-weight: bold; color: rgb(0, 0, 0); fill: #000000; text-shadow: rgb(255, 255, 255) 0px 0px 6px, rgb(255, 255, 255) 0px 0px 3px; " transform="translate(0,10)"><tspan>WA</tspan></text></g><g  style="" transform="translate(280,177)"><text x="0"  style="font-size: 10px; font-weight: bold; color: rgb(0, 0, 0); fill: #000000; text-shadow: rgb(255, 255, 255) 0px 0px 6px, rgb(255, 255, 255) 0px 0px 3px; " transform="translate(0,10)"><tspan>FL</tspan></text></g><g  style="" transform="translate(287,113)"><text x="0"  style="font-size: 10px; font-weight: bold; color: rgb(0, 0, 0); fill: #000000; text-shadow: rgb(255, 255, 255) 0px 0px 6px, rgb(255, 255, 255) 0px 0px 3px; " transform="translate(0,10)"><tspan>NC</tspan></text></g><g  style="" transform="translate(236,118)"><text x="0"  style="font-size: 10px; font-weight: bold; color: rgb(0, 0, 0); fill: #000000; text-shadow: rgb(255, 255, 255) 0px 0px 6px, rgb(255, 255, 255) 0px 0px 3px; " transform="translate(0,10)"><tspan>TN</tspan></text></g><g  style="" transform="translate(47,183)"><text x="0"  style="font-size: 10px; font-weight: bold; color: rgb(0, 0, 0); fill: #000000; text-shadow: rgb(255, 255, 255) 0px 0px 6px, rgb(255, 255, 255) 0px 0px 3px; " transform="translate(0,10)"><tspan>AK</tspan></text></g><g  style="" transform="translate(197,129)"><text x="0"  style="font-size: 10px; font-weight: bold; color: rgb(0, 0, 0); fill: #000000; text-shadow: rgb(255, 255, 255) 0px 0px 6px, rgb(255, 255, 255) 0px 0px 3px; " transform="translate(0,10)"><tspan>AR</tspan></text></g><g  style="" transform="translate(196,101)"><text x="0"  style="font-size: 10px; font-weight: bold; color: rgb(0, 0, 0); fill: #000000; text-shadow: rgb(255, 255, 255) 0px 0px 6px, rgb(255, 255, 255) 0px 0px 3px; " transform="translate(0,10)"><tspan>MO</tspan></text></g><g  style="" transform="translate(296,50)"><text x="0"  style="font-size: 10px; font-weight: bold; color: rgb(0, 0, 0); fill: #000000; text-shadow: rgb(255, 255, 255) 0px 0px 6px, rgb(255, 255, 255) 0px 0px 3px; " transform="translate(0,10)"><tspan>NY</tspan></text></g><g  style="" transform="translate(107,129)"><text x="0"  style="font-size: 10px; font-weight: bold; color: rgb(0, 0, 0); fill: #000000; text-shadow: rgb(255, 255, 255) 0px 0px 6px, rgb(255, 255, 255) 0px 0px 3px; " transform="translate(0,10)"><tspan>NM</tspan></text></g><g  style="" transform="translate(238,143)"><text x="0"  style="font-size: 10px; font-weight: bold; color: rgb(0, 0, 0); fill: #000000; text-shadow: rgb(255, 255, 255) 0px 0px 6px, rgb(255, 255, 255) 0px 0px 3px; " transform="translate(0,10)"><tspan>AL</tspan></text></g><g  style="" transform="translate(72,124)"><text x="0"  style="font-size: 10px; font-weight: bold; color: rgb(0, 0, 0); fill: #000000; text-shadow: rgb(255, 255, 255) 0px 0px 6px, rgb(255, 255, 255) 0px 0px 3px; " transform="translate(0,10)"><tspan>AZ</tspan></text></g><g  style="" transform="translate(349,105)"><text x="0"  style="font-size: 10px; font-weight: bold; color: rgb(0, 0, 0); fill: #000000; text-shadow: rgb(255, 255, 255) 0px 0px 6px, rgb(255, 255, 255) 0px 0px 3px; " transform="translate(0,10)"><tspan>CT</tspan></text></g><g  style="" transform="translate(350,122)"><text x="0"  style="font-size: 10px; font-weight: bold; color: rgb(0, 0, 0); fill: #000000; text-shadow: rgb(255, 255, 255) 0px 0px 6px, rgb(255, 255, 255) 0px 0px 3px; " transform="translate(0,10)"><tspan>NJ</tspan></text></g><g  style="" transform="translate(32,36)"><text x="0"  style="font-size: 10px; font-weight: bold; color: rgb(0, 0, 0); fill: #000000; text-shadow: rgb(255, 255, 255) 0px 0px 6px, rgb(255, 255, 255) 0px 0px 3px; " transform="translate(0,10)"><tspan>OR</tspan></text></g><g  style="" transform="translate(260,140)"><text x="0"  style="font-size: 10px; font-weight: bold; color: rgb(255, 255, 255); fill: #ffffff; text-shadow: rgb(0, 0, 0) 0px 0px 6px, rgb(0, 0, 0) 0px 0px 3px; " transform="translate(0,10)"><tspan>GA</tspan></text></g><g  style="" transform="translate(241,55)"><text x="0"  style="font-size: 10px; font-weight: bold; color: rgb(255, 255, 255); fill: #ffffff; text-shadow: rgb(0, 0, 0) 0px 0px 6px, rgb(0, 0, 0) 0px 0px 3px; " transform="translate(0,10)"><tspan>MI</tspan></text></g><g  style="" transform="translate(349,174)"><text x="0"  style="font-size: 10px; font-weight: bold; color: rgb(255, 255, 255); fill: #ffffff; text-shadow: rgb(0, 0, 0) 0px 0px 6px, rgb(0, 0, 0) 0px 0px 3px; " transform="translate(0,10)"><tspan>DC</tspan></text></g><g  style="" transform="translate(217,142)"><text x="0"  style="font-size: 10px; font-weight: bold; color: rgb(255, 255, 255); fill: #ffffff; text-shadow: rgb(0, 0, 0) 0px 0px 6px, rgb(0, 0, 0) 0px 0px 3px; " transform="translate(0,10)"><tspan>MS</tspan></text></g><g  style="" transform="translate(247,103)"><text x="0"  style="font-size: 10px; font-weight: bold; color: rgb(255, 255, 255); fill: #ffffff; text-shadow: rgb(0, 0, 0) 0px 0px 6px, rgb(0, 0, 0) 0px 0px 3px; " transform="translate(0,10)"><tspan>KY</tspan></text></g><g  style="" transform="translate(31,108)"><text x="0"  style="font-size: 10px; font-weight: bold; color: rgb(255, 255, 255); fill: #ffffff; text-shadow: rgb(0, 0, 0) 0px 0px 6px, rgb(0, 0, 0) 0px 0px 3px; " transform="translate(0,10)"><tspan>CA</tspan></text></g><g  style="" transform="translate(219,86)"><text x="0"  style="font-size: 10px; font-weight: bold; color: rgb(255, 255, 255); fill: #ffffff; text-shadow: rgb(0, 0, 0) 0px 0px 6px, rgb(0, 0, 0) 0px 0px 3px; " transform="translate(0,10)"><tspan>IL</tspan></text></g><g  style="" transform="translate(46,75)"><text x="0"  style="font-size: 10px; font-weight: bold; color: rgb(255, 255, 255); fill: #ffffff; text-shadow: rgb(0, 0, 0) 0px 0px 6px, rgb(0, 0, 0) 0px 0px 3px; " transform="translate(0,10)"><tspan>NV</tspan></text></g><g  style="" transform="translate(350,88)"><text x="0"  style="font-size: 10px; font-weight: bold; color: rgb(255, 255, 255); fill: #ffffff; text-shadow: rgb(0, 0, 0) 0px 0px 6px, rgb(0, 0, 0) 0px 0px 3px; " transform="translate(0,10)"><tspan>RI</tspan></text></g></g><g class="highcharts-legend"  transform="translate(93,298)"><g ><g><g class="highcharts-legend-item"  transform="translate(8,3)"><rect x="0" y="4" width="200" height="12"  fill="url(#highcharts-1)"></rect><g class="highcharts-grid" ><path fill="none" d="M -0.5 4 L -0.5 16" stroke="#D8D8D8" stroke-width="1"  opacity="1"></path><path fill="none" d="M 49.5 4 L 49.5 16" stroke="#D8D8D8" stroke-width="1"  opacity="1"></path><path fill="none" d="M 99.5 4 L 99.5 16" stroke="#D8D8D8" stroke-width="1"  opacity="1"></path><path fill="none" d="M 149.5 4 L 149.5 16" stroke="#D8D8D8" stroke-width="1"  opacity="1"></path><path fill="none" d="M 200.5 4 L 200.5 16" stroke="#D8D8D8" stroke-width="1"  opacity="1"></path></g><text x="21" style="color:#333333;font-size:12px;font-weight:bold;cursor:pointer;fill:#333333;" text-anchor="start"  y="15"></text><g class="highcharts-axis" ><path fill="none" d="M -0.5 16 L -0.5 21" stroke="#C0D0E0" stroke-width="1" opacity="1"></path><path fill="none" d="M 49.5 16 L 49.5 21" stroke="#C0D0E0" stroke-width="1" opacity="1"></path><path fill="none" d="M 99.5 16 L 99.5 21" stroke="#C0D0E0" stroke-width="1" opacity="1"></path><path fill="none" d="M 149.5 16 L 149.5 21" stroke="#C0D0E0" stroke-width="1" opacity="1"></path><path fill="none" d="M 200.5 16 L 200.5 21" stroke="#C0D0E0" stroke-width="1" opacity="1"></path></g><g class="highcharts-axis-labels highcharts-coloraxis-labels" ><text x="0" style="color:#606060;cursor:default;font-size:11px;fill:#606060;" text-anchor="start" transform="translate(0,0)" y="35" opacity="1">2</text><text x="50" style="color:#606060;cursor:default;font-size:11px;fill:#606060;" text-anchor="middle" transform="translate(0,0)" y="35" opacity="1">4</text><text x="100" style="color:#606060;cursor:default;font-size:11px;fill:#606060;" text-anchor="middle" transform="translate(0,0)" y="35" opacity="1">6</text><text x="150" style="color:#606060;cursor:default;font-size:11px;fill:#606060;" text-anchor="middle" transform="translate(0,0)" y="35" opacity="1">8</text><text x="200" style="color:#606060;cursor:default;font-size:11px;fill:#606060;" text-anchor="end" transform="translate(0,0)" y="35" opacity="1">10</text></g></g></g></g></g><g class="highcharts-axis-labels highcharts-xaxis-labels" ></g><g class="highcharts-axis-labels highcharts-yaxis-labels" ></g><g class="highcharts-tooltip"  style="cursor:default;padding:0;white-space:nowrap;" transform="translate(0,-9999)"><path fill="none" d="M 3 0 L 13 0 C 16 0 16 0 16 3 L 16 13 C 16 16 16 16 13 16 L 3 16 C 0 16 0 16 0 13 L 0 3 C 0 0 0 0 3 0"  stroke="black" stroke-opacity="0.0" stroke-width="5" transform="translate(1, 1)"></path><path fill="none" d="M 3 0 L 13 0 C 16 0 16 0 16 3 L 16 13 C 16 16 16 16 13 16 L 3 16 C 0 16 0 16 0 13 L 0 3 C 0 0 0 0 3 0"  stroke="black" stroke-opacity="0.0" stroke-width="3" transform="translate(1, 1)"></path><path fill="none" d="M 3 0 L 13 0 C 16 0 16 0 16 3 L 16 13 C 16 16 16 16 13 16 L 3 16 C 0 16 0 16 0 13 L 0 3 C 0 0 0 0 3 0"  stroke="black" stroke-opacity="0.1" stroke-width="1" transform="translate(1, 1)"></path><path fill="rgb(249, 249, 249)" fill-opacity=" .85" d="M 3 0 L 13 0 C 16 0 16 0 16 3 L 16 13 C 16 16 16 16 13 16 L 3 16 C 0 16 0 16 0 13 L 0 3 C 0 0 0 0 3 0"></path><text x="8"  style="font-size:12px;color:#333333;fill:#333333;" transform="translate(0,20)"></text></g></svg>