<svg version="1.1" style="font-family: signika, serif; font-size: 12px; background-image: url(http://www.highcharts.com/samples/graphics/sand.png); background-attachment: initial; background-origin: initial; background-clip: initial; background-color: initial; background-position: initial initial; background-repeat: initial initial; " xmlns="http://www.w3.org/2000/svg" width="584" height="400" viewBox="0 0 584 400" xmlns:xlink="http://www.w3.org/1999/xlink"><style type="text/css"><![CDATA[@import url(http://fonts.googleapis.com/css?family=Signika:700);]]></style><desc>Created with Highstock 2.1.4</desc><defs><clipPath id="highcharts-1"><rect x="0" y="0" width="564" height="206"></rect></clipPath><clipPath id="highcharts-2"><rect x="-99" y="-79" width="663" height="400"></rect></clipPath><clipPath id="highcharts-3"><rect x="0" y="0" width="564" height="206"></rect></clipPath></defs><g class="highcharts-scrollbar" transform="translate(10,372)"><rect x="0" y="-0.5" fill="#eeeeee" stroke="#C0C0C8" stroke-width="1" rx="0" ry="0" height="14" width="564"></rect><rect y="-0.5" height="14" fill="#bfc8d1" stroke="#bfc8d1" stroke-width="1" rx="0" ry="0" x="284.5" width="265"></rect><path fill="none" stroke="#666" stroke-width="1" visibility="visible" d="M 413.5 3.5 L 413.5 9.3 M 416.5 3.5 L 416.5 9.3 M 419.5 3.5 L 419.5 9.3"></path><g><rect x="-0.5" y="-0.5" width="14" height="14" strokeWidth="1" stroke="#bbb" stroke-width="1" fill="#ebe7e8"></rect><path fill="#666" d="M 8 4 L 8 10 5 7"></path></g><g transform="translate(550,0)"><rect x="-0.5" y="-0.5" width="14" height="14" strokeWidth="1" stroke="#bbb" stroke-width="1" fill="#ebe7e8"></rect><path fill="#666" d="M 6 4 L 6 10 9 7"></path></g></g><g class="highcharts-range-selector-buttons"><text x="10" y="59" style="color:#666;fill:#666;">Zoom</text><g class="highcharts-button"  states="[object Object]" style="cursor:pointer;text-align:center;" transform="translate(46,44)"><rect x="0.5" y="0.5" width="32" height="22" strokeWidth="1" fill="white" stroke="#C0C0C8" stroke-width="1" rx="0" ry="0"></rect><text x="7.5"  style="font-weight:normal;color:#444;fill:#444;" transform="translate(0,14)">1m</text></g><g class="highcharts-button"  states="[object Object]" style="cursor:pointer;text-align:center;" transform="translate(83,44)"><rect x="0.5" y="0.5" width="32" height="22" strokeWidth="1" fill="white" stroke="#C0C0C8" stroke-width="1" rx="0" ry="0"></rect><text x="7.5"  style="font-weight:normal;color:#444;fill:#444;" transform="translate(0,14)">3m</text></g><g class="highcharts-button"  states="[object Object]" style="cursor:pointer;text-align:center;" transform="translate(120,44)"><rect x="0.5" y="0.5" width="32" height="22" strokeWidth="1" fill="#D0D0D8" stroke="#68A" stroke-width="1" rx="0" ry="0"></rect><text x="7.5"  style="font-weight:bold;color:black;fill:black;" transform="translate(0,14)">6m</text></g><g class="highcharts-button"  states="[object Object]" style="cursor:pointer;text-align:center;" transform="translate(157,44)"><rect x="0.5" y="0.5" width="32" height="22" strokeWidth="1" fill="white" stroke="#C0C0C8" stroke-width="1" rx="0" ry="0"></rect><text x="4"  style="font-weight:normal;color:#ccc;fill:#ccc;" transform="translate(0,14)">YTD</text></g><g class="highcharts-button"  states="[object Object]" style="cursor:pointer;text-align:center;" transform="translate(194,44)"><rect x="0.5" y="0.5" width="32" height="22" strokeWidth="1" fill="white" stroke="#C0C0C8" stroke-width="1" rx="0" ry="0"></rect><text x="9.5"  style="font-weight:normal;color:#ccc;fill:#ccc;" transform="translate(0,14)">1y</text></g><g class="highcharts-button"  states="[object Object]" style="cursor:pointer;text-align:center;" transform="translate(231,44)"><rect x="0.5" y="0.5" width="32" height="22" strokeWidth="1" fill="white" stroke="#C0C0C8" stroke-width="1" rx="0" ry="0"></rect><text x="10"  style="font-weight:normal;color:#444;fill:#444;" transform="translate(0,14)">All</text></g></g><g class="highcharts-input-group" transform="translate(316,44)" visibility="visible"><g style="fill:#666;" transform="translate(0,0)"><text x="2"  style="font-size:12px;font-family:signika, serif;color:#666;fill:#666;" transform="translate(0,14)">From</text></g><g style="text-align:center;" transform="translate(36,0)"><rect x="0.5" y="0.5" width="94" height="21" strokeWidth="1" fill="none" stroke="silver" stroke-width="1"></rect><text x="16.5"  style="font-size:12px;font-family:signika, serif;color:#444;fill:#444;" transform="translate(0,14)"><tspan>Jul 4, 2009</tspan></text></g><g style="fill:#666;" transform="translate(140,0)"><text x="2"  style="font-size:12px;font-family:signika, serif;color:#666;fill:#666;" transform="translate(0,14)">To</text></g><g style="text-align:center;" transform="translate(164,0)"><rect x="0.5" y="0.5" width="94" height="21" strokeWidth="1" fill="none" stroke="silver" stroke-width="1"></rect><text x="9.5"  style="font-size:12px;font-family:signika, serif;color:#444;fill:#444;" transform="translate(0,14)"><tspan>Dec 31, 2009</tspan></text></g></g><g class="highcharts-grid" ></g><g class="highcharts-grid" ><path fill="none" d="M 199.5 331 L 199.5 371" stroke="#D0D0D8" stroke-width="1"  opacity="1"></path><path fill="none" d="M 380.5 331 L 380.5 371" stroke="#D0D0D8" stroke-width="1"  opacity="1"></path></g><g class="highcharts-grid" ><path fill="none" d="M 10 285.5 L 574 285.5" stroke="#D8D8D8" stroke-width="1"  opacity="1"></path><path fill="none" d="M 10 216.5 L 574 216.5" stroke="#D8D8D8" stroke-width="1"  opacity="1"></path><path fill="none" d="M 10 148.5 L 574 148.5" stroke="#D8D8D8" stroke-width="1"  opacity="1"></path><path fill="none" d="M 10 78.5 L 574 78.5" stroke="#D8D8D8" stroke-width="1"  opacity="1"></path></g><g class="highcharts-grid" ></g><g class="highcharts-axis" ><path fill="none" d="M 97.5 285 L 97.5 295" stroke="#C0D0E0" stroke-width="1" opacity="1"></path><path fill="none" d="M 194.5 285 L 194.5 295" stroke="#C0D0E0" stroke-width="1" opacity="1"></path><path fill="none" d="M 288.5 285 L 288.5 295" stroke="#C0D0E0" stroke-width="1" opacity="1"></path><path fill="none" d="M 385.5 285 L 385.5 295" stroke="#C0D0E0" stroke-width="1" opacity="1"></path><path fill="none" d="M 479.5 285 L 479.5 295" stroke="#C0D0E0" stroke-width="1" opacity="1"></path><path fill="none" d="M 10 285.5 L 574 285.5" stroke="#C0D0E0" stroke-width="1"  visibility="visible"></path></g><g class="highcharts-axis" ></g><g class="highcharts-axis" ></g><g class="highcharts-axis" ></g><g class="highcharts-series-group" ><g class="highcharts-series" visibility="visible"  transform="translate(10,79) scale(1 1)" clip-path="url(#highcharts-3)"><path fill="rgb(244,91,91)" fill-opacity="0.7" d="M -0.1 79.9 L 3.0 80.6 L 6.1 76.2 L 9.2 90.9 L 12.4 101.2 L 15.5 105.7 L 18.6 97.5 L 21.8 100.5 L 24.9 99.5 L 28.0 97.5 L 31.2 96.8 L 34.3 94.0 L 37.4 90.6 L 40.6 98.1 L 43.7 92.0 L 46.8 88.5 L 50.0 92.3 L 53.1 95.4 L 56.2 96.1 L 59.4 96.1 L 62.5 93.7 L 65.6 94.7 L 68.8 94.0 L 71.9 96.4 L 75.0 99.5 L 78.2 100.2 L 81.3 96.8 L 84.4 100.2 L 87.6 106.4 L 90.7 99.5 L 93.8 94.0 L 97.0 87.5 L 100.1 96.4 L 103.2 82.4 L 106.4 89.9 L 109.5 90.2 L 112.6 90.6 L 115.8 101.2 L 118.9 93.3 L 122.0 96.4 L 125.2 99.9 L 128.3 107.1 L 131.4 112.2 L 134.6 100.5 L 137.7 95.1 L 140.9 103.3 L 144.0 110.8 L 147.1 93.7 L 150.3 93.3 L 153.4 100.9 L 156.5 98.5 L 159.7 98.5 L 159.7 89.9 L 156.5 73.8 L 153.4 76.5 L 150.3 67.6 L 147.1 46.3 L 144.0 82.4 L 140.9 74.1 L 137.7 77.2 L 134.6 89.2 L 131.4 90.6 L 128.3 79.6 L 125.2 81.0 L 122.0 74.1 L 118.9 74.1 L 115.8 60.7 L 112.6 61.4 L 109.5 63.5 L 106.4 52.1 L 103.2 63.5 L 100.1 54.9 L 97.0 59.3 L 93.8 60.0 L 90.7 67.9 L 87.6 69.0 L 84.4 82.0 L 81.3 73.8 L 78.2 76.2 L 75.0 71.0 L 71.9 67.9 L 68.8 69.0 L 65.6 70.7 L 62.5 74.5 L 59.4 78.6 L 56.2 65.9 L 53.1 84.1 L 50.0 78.6 L 46.8 63.1 L 43.7 51.5 L 40.6 59.7 L 37.4 70.0 L 34.3 60.4 L 31.2 66.2 L 28.0 55.9 L 24.9 57.3 L 21.8 55.9 L 18.6 62.4 L 15.5 55.6 L 12.4 63.8 L 9.2 52.1 L 6.1 49.0 L 3.0 51.5 L -0.1 31.9 M 165.9 103 L 169.1 104.3 L 172.2 93.7 L 175.3 99.2 L 178.5 96.4 L 181.6 100.2 L 184.7 97.8 L 187.9 103 L 191.0 105.4 L 194.1 99.2 L 197.3 101.6 L 197.3 96.8 L 194.1 75.5 L 191.0 79.6 L 187.9 90.2 L 184.7 86.5 L 181.6 94.0 L 178.5 84.8 L 175.3 78.6 L 172.2 89.9 L 169.1 80.6 L 165.9 85.4 M 203.5 100.2 L 206.7 106.4 L 209.8 98.1 L 212.9 104.0 L 216.1 101.6 L 219.2 103 L 222.3 108.8 L 225.5 116.3 L 228.6 118.4 L 231.7 108.1 L 234.9 107.1 L 238.0 105.0 L 241.1 114.3 L 244.3 105.4 L 247.4 108.4 L 250.5 104.7 L 253.7 110.8 L 256.8 112.9 L 259.9 103 L 263.1 89.6 L 266.2 109.8 L 269.3 122.2 L 272.5 121.1 L 272.5 113.6 L 269.3 106.7 L 266.2 85.4 L 263.1 82.4 L 259.9 83.0 L 256.8 96.4 L 253.7 99.2 L 250.5 85.1 L 247.4 85.8 L 244.3 86.1 L 241.1 78.6 L 238.0 83.7 L 234.9 93.3 L 231.7 90.6 L 228.6 87.8 L 225.5 83.4 L 222.3 77.2 L 219.2 90.6 L 216.1 89.2 L 212.9 83.7 L 209.8 80.3 L 206.7 92.3 L 203.5 86.8 M 281.9 124.9 L 285.0 127.0 L 288.2 127.7 L 291.3 132.1 L 294.4 135.6 L 297.6 126.0 L 300.7 125.6 L 303.8 134.9 L 307.0 145.9 L 310.1 135.9 L 313.2 136.6 L 316.4 145.9 L 319.5 147.9 L 322.6 129.4 L 325.8 122.2 L 328.9 136.6 L 332.0 141.4 L 335.2 127.7 L 338.3 140.0 L 341.4 133.9 L 344.6 132.8 L 347.7 127.3 L 350.8 121.1 L 354.0 126.0 L 357.1 137.3 L 360.2 137.3 L 363.4 141.1 L 366.5 141.7 L 369.6 136.3 L 372.8 139.7 L 375.9 121.8 L 379.0 137.3 L 382.2 137.3 L 385.3 137.3 L 388.4 144.8 L 391.6 146.2 L 394.7 143.1 L 397.8 137.3 L 401.0 143.8 L 404.1 146.2 L 407.2 146.2 L 410.4 152.4 L 413.5 155.1 L 413.5 136.6 L 410.4 143.1 L 407.2 133.2 L 404.1 138.0 L 401.0 134.5 L 397.8 119.4 L 394.7 101.9 L 391.6 131.4 L 388.4 119.4 L 385.3 114.3 L 382.2 137.3 L 379.0 122.2 L 375.9 112.2 L 372.8 120.5 L 369.6 122.5 L 366.5 121.8 L 363.4 118.7 L 360.2 130.4 L 357.1 112.9 L 354.0 100.2 L 350.8 106.4 L 347.7 98.1 L 344.6 122.9 L 341.4 104.0 L 338.3 112.6 L 335.2 115.3 L 332.0 112.6 L 328.9 110.5 L 325.8 100.2 L 322.6 108.1 L 319.5 118.7 L 316.4 119.1 L 313.2 104.3 L 310.1 108.1 L 307.0 116.0 L 303.8 114.3 L 300.7 119.1 L 297.6 106.0 L 294.4 117.4 L 291.3 111.5 L 288.2 106.4 L 285.0 113.9 L 281.9 124.9 M 419.8 132.8 L 422.9 137.6 L 426.1 131.4 L 429.2 121.8 L 432.3 120.8 L 435.5 120.5 L 438.6 129.0 L 441.7 129.0 L 444.9 130.8 L 448.0 127.3 L 451.1 127.3 L 454.3 123.9 L 457.4 134.5 L 460.5 137.3 L 463.7 132.1 L 466.8 150.3 L 469.9 148.6 L 473.1 146.9 L 476.2 146.6 L 479.3 139.7 L 482.5 136.3 L 485.6 127.3 L 488.7 137.3 L 491.9 135.2 L 495.0 136.9 L 498.1 127.7 L 501.3 141.4 L 504.4 151.0 L 507.5 139.7 L 510.7 135.6 L 513.8 140.7 L 516.9 164.1 L 520.1 178.1 L 523.2 183.6 L 526.3 164.1 L 529.5 175.7 L 532.6 182.3 L 535.7 182.6 L 538.9 174.7 L 542.0 166.1 L 545.1 158.2 L 548.3 146.2 L 551.4 147.2 L 554.5 146.6 L 557.7 174.4 L 560.8 175.4 L 564 179.2 L 564 159.6 L 560.8 164.8 L 557.7 141.7 L 554.5 134.9 L 551.4 134.9 L 548.3 141.4 L 545.1 141.4 L 542.0 142.4 L 538.9 163.7 L 535.7 155.1 L 532.6 162.0 L 529.5 139.3 L 526.3 143.1 L 523.2 164.4 L 520.1 164.4 L 516.9 140.7 L 513.8 132.1 L 510.7 131.8 L 507.5 134.9 L 504.4 138.7 L 501.3 129.7 L 498.1 123.9 L 495.0 119.8 L 491.9 127.7 L 488.7 113.9 L 485.6 103.6 L 482.5 116.3 L 479.3 122.9 L 476.2 124.2 L 473.1 139.7 L 469.9 131.4 L 466.8 132.1 L 463.7 125.6 L 460.5 120.8 L 457.4 117.7 L 454.3 111.2 L 451.1 120.5 L 448.0 117.7 L 444.9 119.4 L 441.7 121.5 L 438.6 107.8 L 435.5 101.6 L 432.3 117.0 L 429.2 115.7 L 426.1 117.0 L 422.9 123.9 L 419.8 106.7" ></path><path fill="none" d="M -0.1 79.9 L 3.0 80.6 L 6.1 76.2 L 9.2 90.9 L 12.4 101.2 L 15.5 105.7 L 18.6 97.5 L 21.8 100.5 L 24.9 99.5 L 28.0 97.5 L 31.2 96.8 L 34.3 94.0 L 37.4 90.6 L 40.6 98.1 L 43.7 92.0 L 46.8 88.5 L 50.0 92.3 L 53.1 95.4 L 56.2 96.1 L 59.4 96.1 L 62.5 93.7 L 65.6 94.7 L 68.8 94.0 L 71.9 96.4 L 75.0 99.5 L 78.2 100.2 L 81.3 96.8 L 84.4 100.2 L 87.6 106.4 L 90.7 99.5 L 93.8 94.0 L 97.0 87.5 L 100.1 96.4 L 103.2 82.4 L 106.4 89.9 L 109.5 90.2 L 112.6 90.6 L 115.8 101.2 L 118.9 93.3 L 122.0 96.4 L 125.2 99.9 L 128.3 107.1 L 131.4 112.2 L 134.6 100.5 L 137.7 95.1 L 140.9 103.3 L 144.0 110.8 L 147.1 93.7 L 150.3 93.3 L 153.4 100.9 L 156.5 98.5 L 159.7 98.5 M 159.7 89.9 L 156.5 73.8 L 153.4 76.5 L 150.3 67.6 L 147.1 46.3 L 144.0 82.4 L 140.9 74.1 L 137.7 77.2 L 134.6 89.2 L 131.4 90.6 L 128.3 79.6 L 125.2 81.0 L 122.0 74.1 L 118.9 74.1 L 115.8 60.7 L 112.6 61.4 L 109.5 63.5 L 106.4 52.1 L 103.2 63.5 L 100.1 54.9 L 97.0 59.3 L 93.8 60.0 L 90.7 67.9 L 87.6 69.0 L 84.4 82.0 L 81.3 73.8 L 78.2 76.2 L 75.0 71.0 L 71.9 67.9 L 68.8 69.0 L 65.6 70.7 L 62.5 74.5 L 59.4 78.6 L 56.2 65.9 L 53.1 84.1 L 50.0 78.6 L 46.8 63.1 L 43.7 51.5 L 40.6 59.7 L 37.4 70.0 L 34.3 60.4 L 31.2 66.2 L 28.0 55.9 L 24.9 57.3 L 21.8 55.9 L 18.6 62.4 L 15.5 55.6 L 12.4 63.8 L 9.2 52.1 L 6.1 49.0 L 3.0 51.5 L -0.1 31.9 M 165.9 103 L 169.1 104.3 L 172.2 93.7 L 175.3 99.2 L 178.5 96.4 L 181.6 100.2 L 184.7 97.8 L 187.9 103 L 191.0 105.4 L 194.1 99.2 L 197.3 101.6 M 197.3 96.8 L 194.1 75.5 L 191.0 79.6 L 187.9 90.2 L 184.7 86.5 L 181.6 94.0 L 178.5 84.8 L 175.3 78.6 L 172.2 89.9 L 169.1 80.6 L 165.9 85.4 M 203.5 100.2 L 206.7 106.4 L 209.8 98.1 L 212.9 104.0 L 216.1 101.6 L 219.2 103 L 222.3 108.8 L 225.5 116.3 L 228.6 118.4 L 231.7 108.1 L 234.9 107.1 L 238.0 105.0 L 241.1 114.3 L 244.3 105.4 L 247.4 108.4 L 250.5 104.7 L 253.7 110.8 L 256.8 112.9 L 259.9 103 L 263.1 89.6 L 266.2 109.8 L 269.3 122.2 L 272.5 121.1 M 272.5 113.6 L 269.3 106.7 L 266.2 85.4 L 263.1 82.4 L 259.9 83.0 L 256.8 96.4 L 253.7 99.2 L 250.5 85.1 L 247.4 85.8 L 244.3 86.1 L 241.1 78.6 L 238.0 83.7 L 234.9 93.3 L 231.7 90.6 L 228.6 87.8 L 225.5 83.4 L 222.3 77.2 L 219.2 90.6 L 216.1 89.2 L 212.9 83.7 L 209.8 80.3 L 206.7 92.3 L 203.5 86.8 M 281.9 124.9 L 285.0 127.0 L 288.2 127.7 L 291.3 132.1 L 294.4 135.6 L 297.6 126.0 L 300.7 125.6 L 303.8 134.9 L 307.0 145.9 L 310.1 135.9 L 313.2 136.6 L 316.4 145.9 L 319.5 147.9 L 322.6 129.4 L 325.8 122.2 L 328.9 136.6 L 332.0 141.4 L 335.2 127.7 L 338.3 140.0 L 341.4 133.9 L 344.6 132.8 L 347.7 127.3 L 350.8 121.1 L 354.0 126.0 L 357.1 137.3 L 360.2 137.3 L 363.4 141.1 L 366.5 141.7 L 369.6 136.3 L 372.8 139.7 L 375.9 121.8 L 379.0 137.3 L 382.2 137.3 L 385.3 137.3 L 388.4 144.8 L 391.6 146.2 L 394.7 143.1 L 397.8 137.3 L 401.0 143.8 L 404.1 146.2 L 407.2 146.2 L 410.4 152.4 L 413.5 155.1 M 413.5 136.6 L 410.4 143.1 L 407.2 133.2 L 404.1 138.0 L 401.0 134.5 L 397.8 119.4 L 394.7 101.9 L 391.6 131.4 L 388.4 119.4 L 385.3 114.3 L 382.2 137.3 L 379.0 122.2 L 375.9 112.2 L 372.8 120.5 L 369.6 122.5 L 366.5 121.8 L 363.4 118.7 L 360.2 130.4 L 357.1 112.9 L 354.0 100.2 L 350.8 106.4 L 347.7 98.1 L 344.6 122.9 L 341.4 104.0 L 338.3 112.6 L 335.2 115.3 L 332.0 112.6 L 328.9 110.5 L 325.8 100.2 L 322.6 108.1 L 319.5 118.7 L 316.4 119.1 L 313.2 104.3 L 310.1 108.1 L 307.0 116.0 L 303.8 114.3 L 300.7 119.1 L 297.6 106.0 L 294.4 117.4 L 291.3 111.5 L 288.2 106.4 L 285.0 113.9 L 281.9 124.9 M 419.8 132.8 L 422.9 137.6 L 426.1 131.4 L 429.2 121.8 L 432.3 120.8 L 435.5 120.5 L 438.6 129.0 L 441.7 129.0 L 444.9 130.8 L 448.0 127.3 L 451.1 127.3 L 454.3 123.9 L 457.4 134.5 L 460.5 137.3 L 463.7 132.1 L 466.8 150.3 L 469.9 148.6 L 473.1 146.9 L 476.2 146.6 L 479.3 139.7 L 482.5 136.3 L 485.6 127.3 L 488.7 137.3 L 491.9 135.2 L 495.0 136.9 L 498.1 127.7 L 501.3 141.4 L 504.4 151.0 L 507.5 139.7 L 510.7 135.6 L 513.8 140.7 L 516.9 164.1 L 520.1 178.1 L 523.2 183.6 L 526.3 164.1 L 529.5 175.7 L 532.6 182.3 L 535.7 182.6 L 538.9 174.7 L 542.0 166.1 L 545.1 158.2 L 548.3 146.2 L 551.4 147.2 L 554.5 146.6 L 557.7 174.4 L 560.8 175.4 L 564 179.2 M 564 159.6 L 560.8 164.8 L 557.7 141.7 L 554.5 134.9 L 551.4 134.9 L 548.3 141.4 L 545.1 141.4 L 542.0 142.4 L 538.9 163.7 L 535.7 155.1 L 532.6 162.0 L 529.5 139.3 L 526.3 143.1 L 523.2 164.4 L 520.1 164.4 L 516.9 140.7 L 513.8 132.1 L 510.7 131.8 L 507.5 134.9 L 504.4 138.7 L 501.3 129.7 L 498.1 123.9 L 495.0 119.8 L 491.9 127.7 L 488.7 113.9 L 485.6 103.6 L 482.5 116.3 L 479.3 122.9 L 476.2 124.2 L 473.1 139.7 L 469.9 131.4 L 466.8 132.1 L 463.7 125.6 L 460.5 120.8 L 457.4 117.7 L 454.3 111.2 L 451.1 120.5 L 448.0 117.7 L 444.9 119.4 L 441.7 121.5 L 438.6 107.8 L 435.5 101.6 L 432.3 117.0 L 429.2 115.7 L 426.1 117.0 L 422.9 123.9 L 419.8 106.7" stroke="black" stroke-width="5"  stroke-linejoin="round" stroke-linecap="round"  stroke-opacity="0.0" transform="translate(1, 1)"></path><path fill="none" d="M -0.1 79.9 L 3.0 80.6 L 6.1 76.2 L 9.2 90.9 L 12.4 101.2 L 15.5 105.7 L 18.6 97.5 L 21.8 100.5 L 24.9 99.5 L 28.0 97.5 L 31.2 96.8 L 34.3 94.0 L 37.4 90.6 L 40.6 98.1 L 43.7 92.0 L 46.8 88.5 L 50.0 92.3 L 53.1 95.4 L 56.2 96.1 L 59.4 96.1 L 62.5 93.7 L 65.6 94.7 L 68.8 94.0 L 71.9 96.4 L 75.0 99.5 L 78.2 100.2 L 81.3 96.8 L 84.4 100.2 L 87.6 106.4 L 90.7 99.5 L 93.8 94.0 L 97.0 87.5 L 100.1 96.4 L 103.2 82.4 L 106.4 89.9 L 109.5 90.2 L 112.6 90.6 L 115.8 101.2 L 118.9 93.3 L 122.0 96.4 L 125.2 99.9 L 128.3 107.1 L 131.4 112.2 L 134.6 100.5 L 137.7 95.1 L 140.9 103.3 L 144.0 110.8 L 147.1 93.7 L 150.3 93.3 L 153.4 100.9 L 156.5 98.5 L 159.7 98.5 M 159.7 89.9 L 156.5 73.8 L 153.4 76.5 L 150.3 67.6 L 147.1 46.3 L 144.0 82.4 L 140.9 74.1 L 137.7 77.2 L 134.6 89.2 L 131.4 90.6 L 128.3 79.6 L 125.2 81.0 L 122.0 74.1 L 118.9 74.1 L 115.8 60.7 L 112.6 61.4 L 109.5 63.5 L 106.4 52.1 L 103.2 63.5 L 100.1 54.9 L 97.0 59.3 L 93.8 60.0 L 90.7 67.9 L 87.6 69.0 L 84.4 82.0 L 81.3 73.8 L 78.2 76.2 L 75.0 71.0 L 71.9 67.9 L 68.8 69.0 L 65.6 70.7 L 62.5 74.5 L 59.4 78.6 L 56.2 65.9 L 53.1 84.1 L 50.0 78.6 L 46.8 63.1 L 43.7 51.5 L 40.6 59.7 L 37.4 70.0 L 34.3 60.4 L 31.2 66.2 L 28.0 55.9 L 24.9 57.3 L 21.8 55.9 L 18.6 62.4 L 15.5 55.6 L 12.4 63.8 L 9.2 52.1 L 6.1 49.0 L 3.0 51.5 L -0.1 31.9 M 165.9 103 L 169.1 104.3 L 172.2 93.7 L 175.3 99.2 L 178.5 96.4 L 181.6 100.2 L 184.7 97.8 L 187.9 103 L 191.0 105.4 L 194.1 99.2 L 197.3 101.6 M 197.3 96.8 L 194.1 75.5 L 191.0 79.6 L 187.9 90.2 L 184.7 86.5 L 181.6 94.0 L 178.5 84.8 L 175.3 78.6 L 172.2 89.9 L 169.1 80.6 L 165.9 85.4 M 203.5 100.2 L 206.7 106.4 L 209.8 98.1 L 212.9 104.0 L 216.1 101.6 L 219.2 103 L 222.3 108.8 L 225.5 116.3 L 228.6 118.4 L 231.7 108.1 L 234.9 107.1 L 238.0 105.0 L 241.1 114.3 L 244.3 105.4 L 247.4 108.4 L 250.5 104.7 L 253.7 110.8 L 256.8 112.9 L 259.9 103 L 263.1 89.6 L 266.2 109.8 L 269.3 122.2 L 272.5 121.1 M 272.5 113.6 L 269.3 106.7 L 266.2 85.4 L 263.1 82.4 L 259.9 83.0 L 256.8 96.4 L 253.7 99.2 L 250.5 85.1 L 247.4 85.8 L 244.3 86.1 L 241.1 78.6 L 238.0 83.7 L 234.9 93.3 L 231.7 90.6 L 228.6 87.8 L 225.5 83.4 L 222.3 77.2 L 219.2 90.6 L 216.1 89.2 L 212.9 83.7 L 209.8 80.3 L 206.7 92.3 L 203.5 86.8 M 281.9 124.9 L 285.0 127.0 L 288.2 127.7 L 291.3 132.1 L 294.4 135.6 L 297.6 126.0 L 300.7 125.6 L 303.8 134.9 L 307.0 145.9 L 310.1 135.9 L 313.2 136.6 L 316.4 145.9 L 319.5 147.9 L 322.6 129.4 L 325.8 122.2 L 328.9 136.6 L 332.0 141.4 L 335.2 127.7 L 338.3 140.0 L 341.4 133.9 L 344.6 132.8 L 347.7 127.3 L 350.8 121.1 L 354.0 126.0 L 357.1 137.3 L 360.2 137.3 L 363.4 141.1 L 366.5 141.7 L 369.6 136.3 L 372.8 139.7 L 375.9 121.8 L 379.0 137.3 L 382.2 137.3 L 385.3 137.3 L 388.4 144.8 L 391.6 146.2 L 394.7 143.1 L 397.8 137.3 L 401.0 143.8 L 404.1 146.2 L 407.2 146.2 L 410.4 152.4 L 413.5 155.1 M 413.5 136.6 L 410.4 143.1 L 407.2 133.2 L 404.1 138.0 L 401.0 134.5 L 397.8 119.4 L 394.7 101.9 L 391.6 131.4 L 388.4 119.4 L 385.3 114.3 L 382.2 137.3 L 379.0 122.2 L 375.9 112.2 L 372.8 120.5 L 369.6 122.5 L 366.5 121.8 L 363.4 118.7 L 360.2 130.4 L 357.1 112.9 L 354.0 100.2 L 350.8 106.4 L 347.7 98.1 L 344.6 122.9 L 341.4 104.0 L 338.3 112.6 L 335.2 115.3 L 332.0 112.6 L 328.9 110.5 L 325.8 100.2 L 322.6 108.1 L 319.5 118.7 L 316.4 119.1 L 313.2 104.3 L 310.1 108.1 L 307.0 116.0 L 303.8 114.3 L 300.7 119.1 L 297.6 106.0 L 294.4 117.4 L 291.3 111.5 L 288.2 106.4 L 285.0 113.9 L 281.9 124.9 M 419.8 132.8 L 422.9 137.6 L 426.1 131.4 L 429.2 121.8 L 432.3 120.8 L 435.5 120.5 L 438.6 129.0 L 441.7 129.0 L 444.9 130.8 L 448.0 127.3 L 451.1 127.3 L 454.3 123.9 L 457.4 134.5 L 460.5 137.3 L 463.7 132.1 L 466.8 150.3 L 469.9 148.6 L 473.1 146.9 L 476.2 146.6 L 479.3 139.7 L 482.5 136.3 L 485.6 127.3 L 488.7 137.3 L 491.9 135.2 L 495.0 136.9 L 498.1 127.7 L 501.3 141.4 L 504.4 151.0 L 507.5 139.7 L 510.7 135.6 L 513.8 140.7 L 516.9 164.1 L 520.1 178.1 L 523.2 183.6 L 526.3 164.1 L 529.5 175.7 L 532.6 182.3 L 535.7 182.6 L 538.9 174.7 L 542.0 166.1 L 545.1 158.2 L 548.3 146.2 L 551.4 147.2 L 554.5 146.6 L 557.7 174.4 L 560.8 175.4 L 564 179.2 M 564 159.6 L 560.8 164.8 L 557.7 141.7 L 554.5 134.9 L 551.4 134.9 L 548.3 141.4 L 545.1 141.4 L 542.0 142.4 L 538.9 163.7 L 535.7 155.1 L 532.6 162.0 L 529.5 139.3 L 526.3 143.1 L 523.2 164.4 L 520.1 164.4 L 516.9 140.7 L 513.8 132.1 L 510.7 131.8 L 507.5 134.9 L 504.4 138.7 L 501.3 129.7 L 498.1 123.9 L 495.0 119.8 L 491.9 127.7 L 488.7 113.9 L 485.6 103.6 L 482.5 116.3 L 479.3 122.9 L 476.2 124.2 L 473.1 139.7 L 469.9 131.4 L 466.8 132.1 L 463.7 125.6 L 460.5 120.8 L 457.4 117.7 L 454.3 111.2 L 451.1 120.5 L 448.0 117.7 L 444.9 119.4 L 441.7 121.5 L 438.6 107.8 L 435.5 101.6 L 432.3 117.0 L 429.2 115.7 L 426.1 117.0 L 422.9 123.9 L 419.8 106.7" stroke="black" stroke-width="3"  stroke-linejoin="round" stroke-linecap="round"  stroke-opacity="0.0" transform="translate(1, 1)"></path><path fill="none" d="M -0.1 79.9 L 3.0 80.6 L 6.1 76.2 L 9.2 90.9 L 12.4 101.2 L 15.5 105.7 L 18.6 97.5 L 21.8 100.5 L 24.9 99.5 L 28.0 97.5 L 31.2 96.8 L 34.3 94.0 L 37.4 90.6 L 40.6 98.1 L 43.7 92.0 L 46.8 88.5 L 50.0 92.3 L 53.1 95.4 L 56.2 96.1 L 59.4 96.1 L 62.5 93.7 L 65.6 94.7 L 68.8 94.0 L 71.9 96.4 L 75.0 99.5 L 78.2 100.2 L 81.3 96.8 L 84.4 100.2 L 87.6 106.4 L 90.7 99.5 L 93.8 94.0 L 97.0 87.5 L 100.1 96.4 L 103.2 82.4 L 106.4 89.9 L 109.5 90.2 L 112.6 90.6 L 115.8 101.2 L 118.9 93.3 L 122.0 96.4 L 125.2 99.9 L 128.3 107.1 L 131.4 112.2 L 134.6 100.5 L 137.7 95.1 L 140.9 103.3 L 144.0 110.8 L 147.1 93.7 L 150.3 93.3 L 153.4 100.9 L 156.5 98.5 L 159.7 98.5 M 159.7 89.9 L 156.5 73.8 L 153.4 76.5 L 150.3 67.6 L 147.1 46.3 L 144.0 82.4 L 140.9 74.1 L 137.7 77.2 L 134.6 89.2 L 131.4 90.6 L 128.3 79.6 L 125.2 81.0 L 122.0 74.1 L 118.9 74.1 L 115.8 60.7 L 112.6 61.4 L 109.5 63.5 L 106.4 52.1 L 103.2 63.5 L 100.1 54.9 L 97.0 59.3 L 93.8 60.0 L 90.7 67.9 L 87.6 69.0 L 84.4 82.0 L 81.3 73.8 L 78.2 76.2 L 75.0 71.0 L 71.9 67.9 L 68.8 69.0 L 65.6 70.7 L 62.5 74.5 L 59.4 78.6 L 56.2 65.9 L 53.1 84.1 L 50.0 78.6 L 46.8 63.1 L 43.7 51.5 L 40.6 59.7 L 37.4 70.0 L 34.3 60.4 L 31.2 66.2 L 28.0 55.9 L 24.9 57.3 L 21.8 55.9 L 18.6 62.4 L 15.5 55.6 L 12.4 63.8 L 9.2 52.1 L 6.1 49.0 L 3.0 51.5 L -0.1 31.9 M 165.9 103 L 169.1 104.3 L 172.2 93.7 L 175.3 99.2 L 178.5 96.4 L 181.6 100.2 L 184.7 97.8 L 187.9 103 L 191.0 105.4 L 194.1 99.2 L 197.3 101.6 M 197.3 96.8 L 194.1 75.5 L 191.0 79.6 L 187.9 90.2 L 184.7 86.5 L 181.6 94.0 L 178.5 84.8 L 175.3 78.6 L 172.2 89.9 L 169.1 80.6 L 165.9 85.4 M 203.5 100.2 L 206.7 106.4 L 209.8 98.1 L 212.9 104.0 L 216.1 101.6 L 219.2 103 L 222.3 108.8 L 225.5 116.3 L 228.6 118.4 L 231.7 108.1 L 234.9 107.1 L 238.0 105.0 L 241.1 114.3 L 244.3 105.4 L 247.4 108.4 L 250.5 104.7 L 253.7 110.8 L 256.8 112.9 L 259.9 103 L 263.1 89.6 L 266.2 109.8 L 269.3 122.2 L 272.5 121.1 M 272.5 113.6 L 269.3 106.7 L 266.2 85.4 L 263.1 82.4 L 259.9 83.0 L 256.8 96.4 L 253.7 99.2 L 250.5 85.1 L 247.4 85.8 L 244.3 86.1 L 241.1 78.6 L 238.0 83.7 L 234.9 93.3 L 231.7 90.6 L 228.6 87.8 L 225.5 83.4 L 222.3 77.2 L 219.2 90.6 L 216.1 89.2 L 212.9 83.7 L 209.8 80.3 L 206.7 92.3 L 203.5 86.8 M 281.9 124.9 L 285.0 127.0 L 288.2 127.7 L 291.3 132.1 L 294.4 135.6 L 297.6 126.0 L 300.7 125.6 L 303.8 134.9 L 307.0 145.9 L 310.1 135.9 L 313.2 136.6 L 316.4 145.9 L 319.5 147.9 L 322.6 129.4 L 325.8 122.2 L 328.9 136.6 L 332.0 141.4 L 335.2 127.7 L 338.3 140.0 L 341.4 133.9 L 344.6 132.8 L 347.7 127.3 L 350.8 121.1 L 354.0 126.0 L 357.1 137.3 L 360.2 137.3 L 363.4 141.1 L 366.5 141.7 L 369.6 136.3 L 372.8 139.7 L 375.9 121.8 L 379.0 137.3 L 382.2 137.3 L 385.3 137.3 L 388.4 144.8 L 391.6 146.2 L 394.7 143.1 L 397.8 137.3 L 401.0 143.8 L 404.1 146.2 L 407.2 146.2 L 410.4 152.4 L 413.5 155.1 M 413.5 136.6 L 410.4 143.1 L 407.2 133.2 L 404.1 138.0 L 401.0 134.5 L 397.8 119.4 L 394.7 101.9 L 391.6 131.4 L 388.4 119.4 L 385.3 114.3 L 382.2 137.3 L 379.0 122.2 L 375.9 112.2 L 372.8 120.5 L 369.6 122.5 L 366.5 121.8 L 363.4 118.7 L 360.2 130.4 L 357.1 112.9 L 354.0 100.2 L 350.8 106.4 L 347.7 98.1 L 344.6 122.9 L 341.4 104.0 L 338.3 112.6 L 335.2 115.3 L 332.0 112.6 L 328.9 110.5 L 325.8 100.2 L 322.6 108.1 L 319.5 118.7 L 316.4 119.1 L 313.2 104.3 L 310.1 108.1 L 307.0 116.0 L 303.8 114.3 L 300.7 119.1 L 297.6 106.0 L 294.4 117.4 L 291.3 111.5 L 288.2 106.4 L 285.0 113.9 L 281.9 124.9 M 419.8 132.8 L 422.9 137.6 L 426.1 131.4 L 429.2 121.8 L 432.3 120.8 L 435.5 120.5 L 438.6 129.0 L 441.7 129.0 L 444.9 130.8 L 448.0 127.3 L 451.1 127.3 L 454.3 123.9 L 457.4 134.5 L 460.5 137.3 L 463.7 132.1 L 466.8 150.3 L 469.9 148.6 L 473.1 146.9 L 476.2 146.6 L 479.3 139.7 L 482.5 136.3 L 485.6 127.3 L 488.7 137.3 L 491.9 135.2 L 495.0 136.9 L 498.1 127.7 L 501.3 141.4 L 504.4 151.0 L 507.5 139.7 L 510.7 135.6 L 513.8 140.7 L 516.9 164.1 L 520.1 178.1 L 523.2 183.6 L 526.3 164.1 L 529.5 175.7 L 532.6 182.3 L 535.7 182.6 L 538.9 174.7 L 542.0 166.1 L 545.1 158.2 L 548.3 146.2 L 551.4 147.2 L 554.5 146.6 L 557.7 174.4 L 560.8 175.4 L 564 179.2 M 564 159.6 L 560.8 164.8 L 557.7 141.7 L 554.5 134.9 L 551.4 134.9 L 548.3 141.4 L 545.1 141.4 L 542.0 142.4 L 538.9 163.7 L 535.7 155.1 L 532.6 162.0 L 529.5 139.3 L 526.3 143.1 L 523.2 164.4 L 520.1 164.4 L 516.9 140.7 L 513.8 132.1 L 510.7 131.8 L 507.5 134.9 L 504.4 138.7 L 501.3 129.7 L 498.1 123.9 L 495.0 119.8 L 491.9 127.7 L 488.7 113.9 L 485.6 103.6 L 482.5 116.3 L 479.3 122.9 L 476.2 124.2 L 473.1 139.7 L 469.9 131.4 L 466.8 132.1 L 463.7 125.6 L 460.5 120.8 L 457.4 117.7 L 454.3 111.2 L 451.1 120.5 L 448.0 117.7 L 444.9 119.4 L 441.7 121.5 L 438.6 107.8 L 435.5 101.6 L 432.3 117.0 L 429.2 115.7 L 426.1 117.0 L 422.9 123.9 L 419.8 106.7" stroke="black" stroke-width="1"  stroke-linejoin="round" stroke-linecap="round"  stroke-opacity="0.1" transform="translate(1, 1)"></path><path fill="none" d="M -0.1 79.9 L 3.0 80.6 L 6.1 76.2 L 9.2 90.9 L 12.4 101.2 L 15.5 105.7 L 18.6 97.5 L 21.8 100.5 L 24.9 99.5 L 28.0 97.5 L 31.2 96.8 L 34.3 94.0 L 37.4 90.6 L 40.6 98.1 L 43.7 92.0 L 46.8 88.5 L 50.0 92.3 L 53.1 95.4 L 56.2 96.1 L 59.4 96.1 L 62.5 93.7 L 65.6 94.7 L 68.8 94.0 L 71.9 96.4 L 75.0 99.5 L 78.2 100.2 L 81.3 96.8 L 84.4 100.2 L 87.6 106.4 L 90.7 99.5 L 93.8 94.0 L 97.0 87.5 L 100.1 96.4 L 103.2 82.4 L 106.4 89.9 L 109.5 90.2 L 112.6 90.6 L 115.8 101.2 L 118.9 93.3 L 122.0 96.4 L 125.2 99.9 L 128.3 107.1 L 131.4 112.2 L 134.6 100.5 L 137.7 95.1 L 140.9 103.3 L 144.0 110.8 L 147.1 93.7 L 150.3 93.3 L 153.4 100.9 L 156.5 98.5 L 159.7 98.5 M 159.7 89.9 L 156.5 73.8 L 153.4 76.5 L 150.3 67.6 L 147.1 46.3 L 144.0 82.4 L 140.9 74.1 L 137.7 77.2 L 134.6 89.2 L 131.4 90.6 L 128.3 79.6 L 125.2 81.0 L 122.0 74.1 L 118.9 74.1 L 115.8 60.7 L 112.6 61.4 L 109.5 63.5 L 106.4 52.1 L 103.2 63.5 L 100.1 54.9 L 97.0 59.3 L 93.8 60.0 L 90.7 67.9 L 87.6 69.0 L 84.4 82.0 L 81.3 73.8 L 78.2 76.2 L 75.0 71.0 L 71.9 67.9 L 68.8 69.0 L 65.6 70.7 L 62.5 74.5 L 59.4 78.6 L 56.2 65.9 L 53.1 84.1 L 50.0 78.6 L 46.8 63.1 L 43.7 51.5 L 40.6 59.7 L 37.4 70.0 L 34.3 60.4 L 31.2 66.2 L 28.0 55.9 L 24.9 57.3 L 21.8 55.9 L 18.6 62.4 L 15.5 55.6 L 12.4 63.8 L 9.2 52.1 L 6.1 49.0 L 3.0 51.5 L -0.1 31.9 M 165.9 103 L 169.1 104.3 L 172.2 93.7 L 175.3 99.2 L 178.5 96.4 L 181.6 100.2 L 184.7 97.8 L 187.9 103 L 191.0 105.4 L 194.1 99.2 L 197.3 101.6 M 197.3 96.8 L 194.1 75.5 L 191.0 79.6 L 187.9 90.2 L 184.7 86.5 L 181.6 94.0 L 178.5 84.8 L 175.3 78.6 L 172.2 89.9 L 169.1 80.6 L 165.9 85.4 M 203.5 100.2 L 206.7 106.4 L 209.8 98.1 L 212.9 104.0 L 216.1 101.6 L 219.2 103 L 222.3 108.8 L 225.5 116.3 L 228.6 118.4 L 231.7 108.1 L 234.9 107.1 L 238.0 105.0 L 241.1 114.3 L 244.3 105.4 L 247.4 108.4 L 250.5 104.7 L 253.7 110.8 L 256.8 112.9 L 259.9 103 L 263.1 89.6 L 266.2 109.8 L 269.3 122.2 L 272.5 121.1 M 272.5 113.6 L 269.3 106.7 L 266.2 85.4 L 263.1 82.4 L 259.9 83.0 L 256.8 96.4 L 253.7 99.2 L 250.5 85.1 L 247.4 85.8 L 244.3 86.1 L 241.1 78.6 L 238.0 83.7 L 234.9 93.3 L 231.7 90.6 L 228.6 87.8 L 225.5 83.4 L 222.3 77.2 L 219.2 90.6 L 216.1 89.2 L 212.9 83.7 L 209.8 80.3 L 206.7 92.3 L 203.5 86.8 M 281.9 124.9 L 285.0 127.0 L 288.2 127.7 L 291.3 132.1 L 294.4 135.6 L 297.6 126.0 L 300.7 125.6 L 303.8 134.9 L 307.0 145.9 L 310.1 135.9 L 313.2 136.6 L 316.4 145.9 L 319.5 147.9 L 322.6 129.4 L 325.8 122.2 L 328.9 136.6 L 332.0 141.4 L 335.2 127.7 L 338.3 140.0 L 341.4 133.9 L 344.6 132.8 L 347.7 127.3 L 350.8 121.1 L 354.0 126.0 L 357.1 137.3 L 360.2 137.3 L 363.4 141.1 L 366.5 141.7 L 369.6 136.3 L 372.8 139.7 L 375.9 121.8 L 379.0 137.3 L 382.2 137.3 L 385.3 137.3 L 388.4 144.8 L 391.6 146.2 L 394.7 143.1 L 397.8 137.3 L 401.0 143.8 L 404.1 146.2 L 407.2 146.2 L 410.4 152.4 L 413.5 155.1 M 413.5 136.6 L 410.4 143.1 L 407.2 133.2 L 404.1 138.0 L 401.0 134.5 L 397.8 119.4 L 394.7 101.9 L 391.6 131.4 L 388.4 119.4 L 385.3 114.3 L 382.2 137.3 L 379.0 122.2 L 375.9 112.2 L 372.8 120.5 L 369.6 122.5 L 366.5 121.8 L 363.4 118.7 L 360.2 130.4 L 357.1 112.9 L 354.0 100.2 L 350.8 106.4 L 347.7 98.1 L 344.6 122.9 L 341.4 104.0 L 338.3 112.6 L 335.2 115.3 L 332.0 112.6 L 328.9 110.5 L 325.8 100.2 L 322.6 108.1 L 319.5 118.7 L 316.4 119.1 L 313.2 104.3 L 310.1 108.1 L 307.0 116.0 L 303.8 114.3 L 300.7 119.1 L 297.6 106.0 L 294.4 117.4 L 291.3 111.5 L 288.2 106.4 L 285.0 113.9 L 281.9 124.9 M 419.8 132.8 L 422.9 137.6 L 426.1 131.4 L 429.2 121.8 L 432.3 120.8 L 435.5 120.5 L 438.6 129.0 L 441.7 129.0 L 444.9 130.8 L 448.0 127.3 L 451.1 127.3 L 454.3 123.9 L 457.4 134.5 L 460.5 137.3 L 463.7 132.1 L 466.8 150.3 L 469.9 148.6 L 473.1 146.9 L 476.2 146.6 L 479.3 139.7 L 482.5 136.3 L 485.6 127.3 L 488.7 137.3 L 491.9 135.2 L 495.0 136.9 L 498.1 127.7 L 501.3 141.4 L 504.4 151.0 L 507.5 139.7 L 510.7 135.6 L 513.8 140.7 L 516.9 164.1 L 520.1 178.1 L 523.2 183.6 L 526.3 164.1 L 529.5 175.7 L 532.6 182.3 L 535.7 182.6 L 538.9 174.7 L 542.0 166.1 L 545.1 158.2 L 548.3 146.2 L 551.4 147.2 L 554.5 146.6 L 557.7 174.4 L 560.8 175.4 L 564 179.2 M 564 159.6 L 560.8 164.8 L 557.7 141.7 L 554.5 134.9 L 551.4 134.9 L 548.3 141.4 L 545.1 141.4 L 542.0 142.4 L 538.9 163.7 L 535.7 155.1 L 532.6 162.0 L 529.5 139.3 L 526.3 143.1 L 523.2 164.4 L 520.1 164.4 L 516.9 140.7 L 513.8 132.1 L 510.7 131.8 L 507.5 134.9 L 504.4 138.7 L 501.3 129.7 L 498.1 123.9 L 495.0 119.8 L 491.9 127.7 L 488.7 113.9 L 485.6 103.6 L 482.5 116.3 L 479.3 122.9 L 476.2 124.2 L 473.1 139.7 L 469.9 131.4 L 466.8 132.1 L 463.7 125.6 L 460.5 120.8 L 457.4 117.7 L 454.3 111.2 L 451.1 120.5 L 448.0 117.7 L 444.9 119.4 L 441.7 121.5 L 438.6 107.8 L 435.5 101.6 L 432.3 117.0 L 429.2 115.7 L 426.1 117.0 L 422.9 123.9 L 419.8 106.7" stroke="#f45b5b" stroke-width="1"  stroke-linejoin="round" stroke-linecap="round"></path><path fill="rgb(192,192,192)" fill-opacity="0.0" d="M -0.1 79.9 L 3.0 80.6 L 6.1 76.2 L 9.2 90.9 L 12.4 101.2 L 15.5 105.7 L 18.6 97.5 L 21.8 100.5 L 24.9 99.5 L 28.0 97.5 L 31.2 96.8 L 34.3 94.0 L 37.4 90.6 L 40.6 98.1 L 43.7 92.0 L 46.8 88.5 L 50.0 92.3 L 53.1 95.4 L 56.2 96.1 L 59.4 96.1 L 62.5 93.7 L 65.6 94.7 L 68.8 94.0 L 71.9 96.4 L 75.0 99.5 L 78.2 100.2 L 81.3 96.8 L 84.4 100.2 L 87.6 106.4 L 90.7 99.5 L 93.8 94.0 L 97.0 87.5 L 100.1 96.4 L 103.2 82.4 L 106.4 89.9 L 109.5 90.2 L 112.6 90.6 L 115.8 101.2 L 118.9 93.3 L 122.0 96.4 L 125.2 99.9 L 128.3 107.1 L 131.4 112.2 L 134.6 100.5 L 137.7 95.1 L 140.9 103.3 L 144.0 110.8 L 147.1 93.7 L 150.3 93.3 L 153.4 100.9 L 156.5 98.5 L 159.7 98.5 L 159.7 89.9 L 156.5 73.8 L 153.4 76.5 L 150.3 67.6 L 147.1 46.3 L 144.0 82.4 L 140.9 74.1 L 137.7 77.2 L 134.6 89.2 L 131.4 90.6 L 128.3 79.6 L 125.2 81.0 L 122.0 74.1 L 118.9 74.1 L 115.8 60.7 L 112.6 61.4 L 109.5 63.5 L 106.4 52.1 L 103.2 63.5 L 100.1 54.9 L 97.0 59.3 L 93.8 60.0 L 90.7 67.9 L 87.6 69.0 L 84.4 82.0 L 81.3 73.8 L 78.2 76.2 L 75.0 71.0 L 71.9 67.9 L 68.8 69.0 L 65.6 70.7 L 62.5 74.5 L 59.4 78.6 L 56.2 65.9 L 53.1 84.1 L 50.0 78.6 L 46.8 63.1 L 43.7 51.5 L 40.6 59.7 L 37.4 70.0 L 34.3 60.4 L 31.2 66.2 L 28.0 55.9 L 24.9 57.3 L 21.8 55.9 L 18.6 62.4 L 15.5 55.6 L 12.4 63.8 L 9.2 52.1 L 6.1 49.0 L 3.0 51.5 L -0.1 31.9 M 165.9 103 L 169.1 104.3 L 172.2 93.7 L 175.3 99.2 L 178.5 96.4 L 181.6 100.2 L 184.7 97.8 L 187.9 103 L 191.0 105.4 L 194.1 99.2 L 197.3 101.6 L 197.3 96.8 L 194.1 75.5 L 191.0 79.6 L 187.9 90.2 L 184.7 86.5 L 181.6 94.0 L 178.5 84.8 L 175.3 78.6 L 172.2 89.9 L 169.1 80.6 L 165.9 85.4 M 203.5 100.2 L 206.7 106.4 L 209.8 98.1 L 212.9 104.0 L 216.1 101.6 L 219.2 103 L 222.3 108.8 L 225.5 116.3 L 228.6 118.4 L 231.7 108.1 L 234.9 107.1 L 238.0 105.0 L 241.1 114.3 L 244.3 105.4 L 247.4 108.4 L 250.5 104.7 L 253.7 110.8 L 256.8 112.9 L 259.9 103 L 263.1 89.6 L 266.2 109.8 L 269.3 122.2 L 272.5 121.1 L 272.5 113.6 L 269.3 106.7 L 266.2 85.4 L 263.1 82.4 L 259.9 83.0 L 256.8 96.4 L 253.7 99.2 L 250.5 85.1 L 247.4 85.8 L 244.3 86.1 L 241.1 78.6 L 238.0 83.7 L 234.9 93.3 L 231.7 90.6 L 228.6 87.8 L 225.5 83.4 L 222.3 77.2 L 219.2 90.6 L 216.1 89.2 L 212.9 83.7 L 209.8 80.3 L 206.7 92.3 L 203.5 86.8 M 281.9 124.9 L 285.0 127.0 L 288.2 127.7 L 291.3 132.1 L 294.4 135.6 L 297.6 126.0 L 300.7 125.6 L 303.8 134.9 L 307.0 145.9 L 310.1 135.9 L 313.2 136.6 L 316.4 145.9 L 319.5 147.9 L 322.6 129.4 L 325.8 122.2 L 328.9 136.6 L 332.0 141.4 L 335.2 127.7 L 338.3 140.0 L 341.4 133.9 L 344.6 132.8 L 347.7 127.3 L 350.8 121.1 L 354.0 126.0 L 357.1 137.3 L 360.2 137.3 L 363.4 141.1 L 366.5 141.7 L 369.6 136.3 L 372.8 139.7 L 375.9 121.8 L 379.0 137.3 L 382.2 137.3 L 385.3 137.3 L 388.4 144.8 L 391.6 146.2 L 394.7 143.1 L 397.8 137.3 L 401.0 143.8 L 404.1 146.2 L 407.2 146.2 L 410.4 152.4 L 413.5 155.1 L 413.5 136.6 L 410.4 143.1 L 407.2 133.2 L 404.1 138.0 L 401.0 134.5 L 397.8 119.4 L 394.7 101.9 L 391.6 131.4 L 388.4 119.4 L 385.3 114.3 L 382.2 137.3 L 379.0 122.2 L 375.9 112.2 L 372.8 120.5 L 369.6 122.5 L 366.5 121.8 L 363.4 118.7 L 360.2 130.4 L 357.1 112.9 L 354.0 100.2 L 350.8 106.4 L 347.7 98.1 L 344.6 122.9 L 341.4 104.0 L 338.3 112.6 L 335.2 115.3 L 332.0 112.6 L 328.9 110.5 L 325.8 100.2 L 322.6 108.1 L 319.5 118.7 L 316.4 119.1 L 313.2 104.3 L 310.1 108.1 L 307.0 116.0 L 303.8 114.3 L 300.7 119.1 L 297.6 106.0 L 294.4 117.4 L 291.3 111.5 L 288.2 106.4 L 285.0 113.9 L 281.9 124.9 M 419.8 132.8 L 422.9 137.6 L 426.1 131.4 L 429.2 121.8 L 432.3 120.8 L 435.5 120.5 L 438.6 129.0 L 441.7 129.0 L 444.9 130.8 L 448.0 127.3 L 451.1 127.3 L 454.3 123.9 L 457.4 134.5 L 460.5 137.3 L 463.7 132.1 L 466.8 150.3 L 469.9 148.6 L 473.1 146.9 L 476.2 146.6 L 479.3 139.7 L 482.5 136.3 L 485.6 127.3 L 488.7 137.3 L 491.9 135.2 L 495.0 136.9 L 498.1 127.7 L 501.3 141.4 L 504.4 151.0 L 507.5 139.7 L 510.7 135.6 L 513.8 140.7 L 516.9 164.1 L 520.1 178.1 L 523.2 183.6 L 526.3 164.1 L 529.5 175.7 L 532.6 182.3 L 535.7 182.6 L 538.9 174.7 L 542.0 166.1 L 545.1 158.2 L 548.3 146.2 L 551.4 147.2 L 554.5 146.6 L 557.7 174.4 L 560.8 175.4 L 564 179.2 L 564 159.6 L 560.8 164.8 L 557.7 141.7 L 554.5 134.9 L 551.4 134.9 L 548.3 141.4 L 545.1 141.4 L 542.0 142.4 L 538.9 163.7 L 535.7 155.1 L 532.6 162.0 L 529.5 139.3 L 526.3 143.1 L 523.2 164.4 L 520.1 164.4 L 516.9 140.7 L 513.8 132.1 L 510.7 131.8 L 507.5 134.9 L 504.4 138.7 L 501.3 129.7 L 498.1 123.9 L 495.0 119.8 L 491.9 127.7 L 488.7 113.9 L 485.6 103.6 L 482.5 116.3 L 479.3 122.9 L 476.2 124.2 L 473.1 139.7 L 469.9 131.4 L 466.8 132.1 L 463.7 125.6 L 460.5 120.8 L 457.4 117.7 L 454.3 111.2 L 451.1 120.5 L 448.0 117.7 L 444.9 119.4 L 441.7 121.5 L 438.6 107.8 L 435.5 101.6 L 432.3 117.0 L 429.2 115.7 L 426.1 117.0 L 422.9 123.9 L 419.8 106.7" stroke-linejoin="round" visibility="visible" stroke="rgb(192,192,192)" stroke-opacity="0.0" stroke-width="1"  class=" highcharts-tracker" style=""></path></g><g class="highcharts-markers highcharts-tracker" visibility="visible"  transform="translate(10,79) scale(1 1)" clip-path="url(#highcharts-2)" style=""></g><g class="highcharts-series" visibility="visible"  transform="translate(24,331) scale(1 1)" clip-path="url(#highcharts-3)"><path fill="rgb(69,114,167)" fill-opacity="0.0" d="M 0 28.4 C 0 28.4 0.8 27.7 1.4 26.6 C 2.0 25.5 2.3 22.8 2.9 22.8 C 3.5 22.8 3.8 30.9 4.4 31.7 C 5.0 32.6 5.3 32.6 5.8 32.6 C 6.4 32.6 6.7 25.9 7.3 25.9 C 7.9 25.9 8.2 26.4 8.8 26.4 C 9.4 26.4 9.7 26.4 10.3 24.8 C 10.8 23.2 11.1 18.2 11.7 18.2 C 12.3 18.2 12.6 18.2 13.2 18.9 C 13.8 19.7 14.1 22.2 14.7 22.2 C 15.3 22.2 15.6 16.3 16.1 16.3 C 16.7 16.3 17.0 16.4 17.6 18.4 C 18.2 20.4 18.5 24.0 19.1 26.1 C 19.7 28.1 20.0 28.6 20.6 28.6 C 21.2 28.6 21.4 27.9 22.0 26.3 C 22.6 24.7 22.9 20.6 23.5 20.6 C 24.1 20.6 24.4 21.7 25.0 22.2 C 25.6 22.8 25.9 23.4 26.5 23.4 C 27.0 23.4 27.3 21.7 27.9 21.7 C 28.5 21.7 28.8 22.0 29.4 22.2 C 30.0 22.5 30.3 22.9 30.9 22.9 C 31.5 22.9 31.8 21.4 32.3 21.4 C 32.9 21.4 33.2 21.4 33.8 21.6 C 34.4 21.8 34.7 26.0 35.3 26.4 C 35.9 26.8 36.2 26.4 36.8 26.8 C 37.4 27.2 37.6 28.7 38.2 28.7 C 38.8 28.7 39.1 22.6 39.7 22.6 C 40.3 22.6 40.6 24.5 41.2 25.3 C 41.8 26.1 42.1 26.2 42.7 26.5 C 43.2 26.8 43.5 26.7 44.1 26.9 C 44.7 27.1 45.0 27.4 45.6 27.6 C 46.2 27.7 46.5 27.6 47.1 27.8 C 47.7 28.0 48.0 28.9 48.5 28.9 C 49.1 28.9 49.4 28.9 50.0 28.0 C 50.6 27.1 50.9 24.5 51.5 24.5 C 52.1 24.5 52.4 26.4 53.0 27.1 C 53.6 27.8 53.8 27.1 54.4 28.0 C 55.0 28.8 55.3 31.5 55.9 31.5 C 56.5 31.5 56.8 27.8 57.4 27.8 C 58.0 27.8 58.3 31.4 58.9 31.4 C 59.4 31.4 59.7 31.4 60.3 31.3 C 60.9 31.2 61.2 27.4 61.8 27.4 C 62.4 27.4 62.7 30.8 63.3 31.1 C 63.9 31.4 64.2 31.4 64.7 31.4 C 65.3 31.4 65.6 27.3 66.2 25.6 C 66.8 24.0 67.1 23.7 67.7 23.0 C 68.3 22.3 68.6 22.0 69.2 22.0 C 69.7 22.0 70.0 22.2 70.6 22.2 C 71.2 22.2 71.5 21.1 72.1 21.0 C 72.7 20.9 73.0 20.9 73.6 20.9 C 74.2 20.9 74.5 21.2 75.0 21.2 C 75.6 21.2 75.9 21.1 76.5 21.1 C 77.1 21.1 77.4 21.1 78.0 21.2 C 78.6 21.2 78.9 21.3 79.5 21.3 C 80.1 21.3 80.4 20.6 80.9 20.6 C 81.5 20.6 81.8 20.6 82.4 21.7 C 83.0 22.8 83.3 26.9 83.9 27.5 C 84.5 28.0 84.8 28.0 85.4 28.0 C 85.9 28.0 86.2 25.6 86.8 24.3 C 87.4 22.9 87.7 22.0 88.3 21.3 C 88.9 20.5 89.2 20.4 89.8 20.4 C 90.4 20.4 90.7 22.2 91.2 22.2 C 91.8 22.2 92.1 19.6 92.7 19.6 C 93.3 19.6 93.6 19.8 94.2 20.0 C 94.8 20.2 95.1 20.3 95.7 20.6 C 96.3 21.0 96.5 21.6 97.1 21.6 C 97.7 21.6 98.0 20.2 98.6 20.2 C 99.2 20.2 99.5 20.2 100.1 20.3 C 100.7 20.4 101.0 21.6 101.6 22.0 C 102.1 22.5 102.4 22.6 103.0 22.6 C 103.6 22.6 103.9 20.5 104.5 20.5 C 105.1 20.5 105.4 21.9 106.0 22.7 C 106.6 23.4 106.9 24.4 107.4 24.4 C 108.0 24.4 108.3 19.9 108.9 19.9 C 109.5 19.9 109.8 22.2 110.4 22.2 C 111.0 22.2 111.3 21.4 111.9 21.4 C 112.5 21.4 112.7 23.7 113.3 24.1 C 113.9 24.4 114.2 24.4 114.8 24.4 C 115.4 24.4 115.7 23.3 116.3 22.6 C 116.9 21.8 117.2 20.4 117.8 20.4 C 118.3 20.4 118.6 22.0 119.2 23.1 C 119.8 24.2 120.1 26.0 120.7 26.0 C 121.3 26.0 121.6 25.6 122.2 25.0 C 122.8 24.4 123.1 23.0 123.6 23.0 C 124.2 23.0 124.5 25.1 125.1 25.2 C 125.7 25.3 126.0 25.3 126.6 25.3 C 127.2 25.3 127.5 22.1 128.1 21.9 C 128.6 21.7 128.9 21.9 129.5 21.7 C 130.1 21.5 130.4 20.5 131.0 20.5 C 131.6 20.5 131.9 23.7 132.5 23.7 C 133.1 23.7 133.4 19.9 134 19.3 C 134.5 18.6 134.8 18.6 135.4 18.6 C 136.0 18.6 136.3 21.6 136.9 21.6 C 137.5 21.6 137.8 16.4 138.4 16.4 C 139.0 16.4 139.3 17.7 139.8 18.7 C 140.4 19.8 140.7 21.6 141.3 21.6 C 141.9 21.6 142.2 20.3 142.8 19.0 C 143.4 17.8 143.7 15.2 144.3 15.2 C 144.8 15.2 145.1 16.3 145.7 16.3 C 146.3 16.3 146.6 16.3 147.2 16.3 C 147.8 16.3 148.1 16.8 148.7 17.9 C 149.3 19.0 149.6 21.8 150.1 21.8 C 150.7 21.8 151.0 21.8 151.6 21.7 C 152.2 21.6 152.5 19.4 153.1 18.2 C 153.7 17.0 154.0 15.8 154.6 15.8 C 155.2 15.8 155.4 17.0 156.0 18.1 C 156.6 19.2 156.9 21.4 157.5 21.4 C 158.1 21.4 158.4 20.5 159.0 19.2 C 159.6 17.8 159.9 14.7 160.5 14.7 C 161.0 14.7 161.3 19.7 161.9 19.7 C 162.5 19.7 162.8 17.2 163.4 17.2 C 164.0 17.2 164.3 20.1 164.9 20.1 C 165.5 20.1 165.8 12.1 166.3 12.1 C 166.9 12.1 167.2 18.6 167.8 18.6 C 168.4 18.6 168.7 15.1 169.3 15.1 C 169.9 15.1 170.2 17.0 170.8 17.0 C 171.4 17.0 171.6 13.3 172.2 13.3 C 172.8 13.3 173.1 17.9 173.7 17.9 C 174.3 17.9 174.6 16.2 175.2 15.2 C 175.8 14.2 176.1 13.5 176.7 13.0 C 177.2 12.4 177.5 12.4 178.1 12.4 C 178.7 12.4 179.0 13.7 179.6 15.6 C 180.2 17.6 180.5 22.2 181.1 22.2 C 181.7 22.2 182.0 17.4 182.5 17.4 C 183.1 17.4 183.4 18.7 184.0 18.8 C 184.6 18.9 184.9 18.9 185.5 18.9 C 186.1 18.9 186.4 15.4 187.0 15.4 C 187.6 15.4 187.8 16.7 188.4 16.9 C 189.0 17.1 189.3 16.9 189.9 17.1 C 190.5 17.3 190.8 18.5 191.4 18.5 C 192.0 18.5 192.3 17.4 192.9 17.4 C 193.4 17.4 193.7 20.1 194.3 20.1 C 194.9 20.1 195.2 17.9 195.8 17.7 C 196.4 17.4 196.7 17.7 197.3 17.4 C 197.9 17.2 198.2 13.7 198.7 13.7 C 199.3 13.7 199.6 14.4 200.2 14.4 C 200.8 14.4 201.1 13.3 201.7 13.3 C 202.3 13.3 202.6 13.4 203.2 13.4 C 203.7 13.4 204.0 13.4 204.6 13.4 C 205.2 13.4 205.5 15.1 206.1 15.1 C 206.7 15.1 207.0 14.1 207.6 14.1 C 208.2 14.1 208.5 15.2 209.0 15.2 C 209.6 15.2 209.9 13.2 210.5 13.0 C 211.1 12.8 211.4 12.8 212.0 12.8 C 212.6 12.8 212.9 12.8 213.5 13.3 C 214.1 13.8 214.4 15.3 214.9 16.0 C 215.5 16.7 215.8 16.8 216.4 16.8 C 217.0 16.8 217.3 13.4 217.9 13.4 C 218.5 13.4 218.8 15.6 219.4 15.6 C 219.9 15.6 220.2 13.9 220.8 13.9 C 221.4 13.9 221.7 14.5 222.3 14.5 C 222.9 14.5 223.2 13.0 223.8 13.0 C 224.4 13.0 224.7 13.4 225.2 14.5 C 225.8 15.5 226.1 18.1 226.7 18.1 C 227.3 18.1 227.6 15.4 228.2 15.4 C 228.8 15.4 229.1 19.2 229.7 19.2 C 230.3 19.2 230.5 18.9 231.1 18.1 C 231.7 17.3 232.0 16.2 232.6 15.3 C 233.2 14.4 233.5 13.7 234.1 13.7 C 234.7 13.7 235.0 13.9 235.6 13.9 C 236.1 13.9 236.4 13.1 237.0 13.1 C 237.6 13.1 237.9 13.5 238.5 13.5 C 239.1 13.5 239.4 12.1 240.0 12.1 C 240.6 12.1 240.9 16.2 241.4 16.2 C 242.0 16.2 242.3 14.8 242.9 14.8 C 243.5 14.8 243.8 16.9 244.4 17.7 C 245.0 18.4 245.3 18.4 245.9 18.4 C 246.5 18.4 246.7 10.7 247.3 10.7 C 247.9 10.7 248.2 13.1 248.8 13.1 C 249.4 13.1 249.7 10.8 250.3 10.8 C 250.9 10.8 251.2 11.9 251.8 11.9 C 252.3 11.9 252.6 11.9 253.2 11.8 C 253.8 11.7 254.1 8.6 254.7 8.6 C 255.3 8.6 255.6 13.1 256.2 13.1 C 256.8 13.1 257.1 11.7 257.6 10.6 C 258.2 9.6 258.5 7.9 259.1 7.9 C 259.7 7.9 260.0 8.9 260.6 8.9 C 261.2 8.9 261.5 7.8 262.1 7.3 C 262.6 6.8 262.9 7.0 263.5 6.4 C 264.1 5.8 264.4 4.2 265.0 4.2 C 265.6 4.2 265.9 7.0 266.5 7.0 C 267.1 7.0 267.4 7.0 268 6.8 C 268.5 6.6 268.8 6.2 269.4 5.7 C 270.0 5.3 270.3 4.5 270.9 4.5 C 271.5 4.5 271.8 4.7 272.4 4.7 C 273.0 4.7 273.3 3.3 273.8 3.3 C 274.4 3.3 274.7 6.3 275.3 7.9 C 275.9 9.4 276.2 10.1 276.8 11.1 C 277.4 12.0 277.7 12.4 278.3 12.4 C 278.8 12.4 279.1 9.9 279.7 9.9 C 280.3 9.9 280.6 10.8 281.2 10.8 C 281.8 10.8 282.1 10.7 282.7 10.5 C 283.3 10.3 283.6 10.1 284.1 9.9 C 284.7 9.7 285.0 9.9 285.6 9.7 C 286.2 9.5 286.5 9.2 287.1 8.8 C 287.7 8.4 288.0 7.8 288.6 7.8 C 289.2 7.8 289.4 10.1 290.0 10.1 C 290.6 10.1 290.9 8.8 291.5 8.2 C 292.1 7.6 292.4 7.1 293.0 7.1 C 293.6 7.1 293.9 7.9 294.5 8.3 C 295.0 8.7 295.3 9.0 295.9 9.2 C 296.5 9.5 296.8 9.5 297.4 9.5 C 298.0 9.5 298.3 9.5 298.9 9.5 C 299.5 9.5 299.8 8.7 300.3 8.7 C 300.9 8.7 301.2 9.0 301.8 9.0 C 302.4 9.0 302.7 8.8 303.3 8.8 C 303.9 8.8 304.2 9.2 304.8 9.6 C 305.4 9.9 305.6 10.3 306.2 10.5 C 306.8 10.7 307.1 10.7 307.7 10.7 C 308.3 10.7 308.6 9.7 309.2 9.7 C 309.8 9.7 310.1 10.1 310.7 10.7 C 311.2 11.3 311.5 12.7 312.1 12.7 C 312.7 12.7 313.0 11.3 313.6 10.5 C 314.2 9.8 314.5 9.6 315.1 8.8 C 315.7 8.1 316.0 6.8 316.5 6.8 C 317.1 6.8 317.4 9.6 318.0 9.6 C 318.6 9.6 318.9 5.2 319.5 5.2 C 320.1 5.2 320.4 7.4 321.0 7.5 C 321.6 7.6 321.8 7.6 322.4 7.6 C 323.0 7.7 323.3 7.6 323.9 7.8 C 324.5 7.9 324.8 11.1 325.4 11.1 C 326.0 11.1 326.3 8.6 326.9 8.6 C 327.4 8.6 327.7 9.2 328.3 9.6 C 328.9 10.0 329.2 10.0 329.8 10.6 C 330.4 11.3 330.7 12.1 331.3 12.9 C 331.9 13.6 332.2 14.5 332.7 14.5 C 333.3 14.5 333.6 11.9 334.2 10.8 C 334.8 9.8 335.1 9.1 335.7 9.1 C 336.3 9.1 336.6 10.7 337.2 11.7 C 337.7 12.7 338.0 14.0 338.6 14.0 C 339.2 14.0 339.5 8.8 340.1 8.7 C 340.7 8.6 341.0 8.6 341.6 8.6 C 342.2 8.6 342.5 11.0 343.0 11.0 C 343.6 11.0 343.9 10.2 344.5 10.2 C 345.1 10.2 346.0 10.2 346.0 10.2 L 346.0 40 L 0 40 M 348.9 11.6 C 348.9 11.6 349.8 12.0 350.4 12.0 C 351.0 12.0 351.3 8.7 351.9 8.7 C 352.5 8.7 352.8 10.4 353.4 10.4 C 353.9 10.4 354.2 9.6 354.8 9.6 C 355.4 9.6 355.7 10.7 356.3 10.7 C 356.9 10.7 357.2 10.0 357.8 10.0 C 358.4 10.0 358.7 11.1 359.2 11.6 C 359.8 12.1 360.1 12.3 360.7 12.3 C 361.3 12.3 361.6 10.4 362.2 10.4 C 362.8 10.4 363.7 11.2 363.7 11.2 L 363.7 40 L 348.9 40 M 366.6 10.7 C 366.6 10.7 367.5 12.7 368.1 12.7 C 368.7 12.7 369.0 10.1 369.6 10.1 C 370.1 10.1 370.4 11.9 371.0 11.9 C 371.6 11.9 371.9 11.2 372.5 11.2 C 373.1 11.2 373.4 11.2 374.0 11.6 C 374.6 12.0 374.9 12.6 375.4 13.4 C 376.0 14.2 376.3 15.1 376.9 15.7 C 377.5 16.3 377.8 16.4 378.4 16.4 C 379.0 16.4 379.3 13.5 379.9 13.2 C 380.5 12.9 380.7 13.1 381.3 12.9 C 381.9 12.7 382.2 12.2 382.8 12.2 C 383.4 12.2 383.7 15.1 384.3 15.1 C 384.9 15.1 385.2 12.3 385.8 12.3 C 386.3 12.3 386.6 13.3 387.2 13.3 C 387.8 13.3 388.1 12.1 388.7 12.1 C 389.3 12.1 389.6 13.5 390.2 14.0 C 390.8 14.6 391.1 14.7 391.6 14.7 C 392.2 14.7 392.5 13.0 393.1 11.6 C 393.7 10.1 394.0 7.4 394.6 7.4 C 395.2 7.4 395.5 11.7 396.1 13.7 C 396.6 15.7 396.9 17.6 397.5 17.6 C 398.1 17.6 399.0 17.2 399.0 17.2 L 399.0 40 L 366.6 40 M 403.4 18.4 C 403.4 18.4 404.3 18.9 404.9 19.0 C 405.5 19.2 405.8 19.0 406.4 19.3 C 407.0 19.5 407.3 20.2 407.8 20.6 C 408.4 21.1 408.7 21.7 409.3 21.7 C 409.9 21.7 410.2 18.8 410.8 18.7 C 411.4 18.6 411.7 18.6 412.3 18.6 C 412.8 18.6 413.1 20.2 413.7 21.5 C 414.3 22.8 414.6 24.9 415.2 24.9 C 415.8 24.9 416.1 21.8 416.7 21.8 C 417.3 21.8 417.6 21.8 418.1 22.0 C 418.7 22.2 419.0 24.3 419.6 24.9 C 420.2 25.5 420.5 25.5 421.1 25.5 C 421.7 25.5 422.0 21.4 422.6 19.8 C 423.2 18.2 423.4 17.6 424.0 17.6 C 424.6 17.6 424.9 20.8 425.5 22.0 C 426.1 23.2 426.4 23.5 427.0 23.5 C 427.6 23.5 427.9 19.3 428.5 19.3 C 429.0 19.3 429.3 23.1 429.9 23.1 C 430.5 23.1 430.8 21.5 431.4 21.2 C 432.0 20.9 432.3 21.2 432.9 20.9 C 433.5 20.5 433.8 19.9 434.3 19.2 C 434.9 18.4 435.2 17.2 435.8 17.2 C 436.4 17.2 436.7 17.7 437.3 18.7 C 437.9 19.7 438.2 22.2 438.8 22.2 C 439.4 22.2 439.6 22.2 440.2 22.2 C 440.8 22.2 441.1 23.2 441.7 23.4 C 442.3 23.6 442.6 23.6 443.2 23.6 C 443.8 23.6 444.1 21.9 444.7 21.9 C 445.2 21.9 445.5 23.0 446.1 23.0 C 446.7 23.0 447.0 17.4 447.6 17.4 C 448.2 17.4 448.5 22.2 449.1 22.2 C 449.7 22.2 450.0 22.2 450.5 22.2 C 451.1 22.2 451.4 22.2 452.0 22.2 C 452.6 22.2 452.9 24.2 453.5 24.6 C 454.1 25.0 454.4 25.0 455.0 25.0 C 455.6 25.0 455.8 24.6 456.4 24.1 C 457.0 23.5 457.3 22.2 457.9 22.2 C 458.5 22.2 458.8 23.7 459.4 24.3 C 460.0 24.8 460.3 25.0 460.9 25.0 C 461.4 25.0 461.7 25.0 462.3 25.0 C 462.9 25.0 463.2 26.4 463.8 26.9 C 464.4 27.5 465.3 27.8 465.3 27.8 L 465.3 40 L 403.4 40 M 468.2 20.9 C 468.2 20.9 469.1 22.3 469.7 22.3 C 470.3 22.3 470.6 21.4 471.2 20.4 C 471.7 19.4 472.0 17.8 472.6 17.4 C 473.2 17.1 473.5 17.2 474.1 17.1 C 474.7 17.0 475.0 17.0 475.6 17.0 C 476.2 17.0 476.5 19.7 477.0 19.7 C 477.6 19.7 477.9 19.7 478.5 19.7 C 479.1 19.7 479.4 20.2 480.0 20.2 C 480.6 20.2 480.9 19.2 481.5 19.2 C 482.1 19.2 482.4 19.2 482.9 19.2 C 483.5 19.2 483.8 18.1 484.4 18.1 C 485.0 18.1 485.3 20.6 485.9 21.4 C 486.5 22.2 486.8 22.2 487.4 22.2 C 487.9 22.2 488.2 20.6 488.8 20.6 C 489.4 20.6 489.7 26.3 490.3 26.3 C 490.9 26.3 491.2 26.0 491.8 25.8 C 492.4 25.5 492.7 25.3 493.2 25.2 C 493.8 25.1 494.1 25.2 494.7 25.1 C 495.3 25.0 495.6 23.6 496.2 23.0 C 496.8 22.3 497.1 22.7 497.7 21.9 C 498.3 21.2 498.5 19.2 499.1 19.2 C 499.7 19.2 500.0 22.2 500.6 22.2 C 501.2 22.2 501.5 21.6 502.1 21.6 C 502.7 21.6 503.0 22.1 503.6 22.1 C 504.1 22.1 504.4 19.3 505.0 19.3 C 505.6 19.3 505.9 22.1 506.5 23.5 C 507.1 25.0 507.4 26.5 508.0 26.5 C 508.6 26.5 508.9 23.9 509.4 23.0 C 510.0 22.0 510.3 21.7 510.9 21.7 C 511.5 21.7 511.8 21.7 512.4 23.3 C 513.0 24.9 513.3 28.2 513.9 30.5 C 514.5 32.9 514.7 33.7 515.3 34.9 C 515.9 36.1 516.2 36.6 516.8 36.6 C 517.4 36.6 517.7 30.5 518.3 30.5 C 518.9 30.5 519.2 33.0 519.8 34.2 C 520.3 35.3 520.6 36.1 521.2 36.2 C 521.8 36.3 522.1 36.3 522.7 36.3 C 523.3 36.3 523.6 34.9 524.2 33.8 C 524.8 32.8 525.1 32.2 525.6 31.2 C 526.2 30.2 526.5 30.0 527.1 28.7 C 527.7 27.5 528.0 25.0 528.6 25.0 C 529.2 25.0 529.5 25.3 530.1 25.3 C 530.6 25.3 530.9 25.1 531.5 25.1 C 532.1 25.1 532.4 33.4 533.0 33.7 C 533.6 34.1 533.9 33.8 534.5 34.1 C 535.1 34.4 536 35.2 536 35.2 L 536 40 L 468.2 40" ></path><path fill="none" d="M 0 28.4 C 0 28.4 0.8 27.7 1.4 26.6 C 2.0 25.5 2.3 22.8 2.9 22.8 C 3.5 22.8 3.8 30.9 4.4 31.7 C 5.0 32.6 5.3 32.6 5.8 32.6 C 6.4 32.6 6.7 25.9 7.3 25.9 C 7.9 25.9 8.2 26.4 8.8 26.4 C 9.4 26.4 9.7 26.4 10.3 24.8 C 10.8 23.2 11.1 18.2 11.7 18.2 C 12.3 18.2 12.6 18.2 13.2 18.9 C 13.8 19.7 14.1 22.2 14.7 22.2 C 15.3 22.2 15.6 16.3 16.1 16.3 C 16.7 16.3 17.0 16.4 17.6 18.4 C 18.2 20.4 18.5 24.0 19.1 26.1 C 19.7 28.1 20.0 28.6 20.6 28.6 C 21.2 28.6 21.4 27.9 22.0 26.3 C 22.6 24.7 22.9 20.6 23.5 20.6 C 24.1 20.6 24.4 21.7 25.0 22.2 C 25.6 22.8 25.9 23.4 26.5 23.4 C 27.0 23.4 27.3 21.7 27.9 21.7 C 28.5 21.7 28.8 22.0 29.4 22.2 C 30.0 22.5 30.3 22.9 30.9 22.9 C 31.5 22.9 31.8 21.4 32.3 21.4 C 32.9 21.4 33.2 21.4 33.8 21.6 C 34.4 21.8 34.7 26.0 35.3 26.4 C 35.9 26.8 36.2 26.4 36.8 26.8 C 37.4 27.2 37.6 28.7 38.2 28.7 C 38.8 28.7 39.1 22.6 39.7 22.6 C 40.3 22.6 40.6 24.5 41.2 25.3 C 41.8 26.1 42.1 26.2 42.7 26.5 C 43.2 26.8 43.5 26.7 44.1 26.9 C 44.7 27.1 45.0 27.4 45.6 27.6 C 46.2 27.7 46.5 27.6 47.1 27.8 C 47.7 28.0 48.0 28.9 48.5 28.9 C 49.1 28.9 49.4 28.9 50.0 28.0 C 50.6 27.1 50.9 24.5 51.5 24.5 C 52.1 24.5 52.4 26.4 53.0 27.1 C 53.6 27.8 53.8 27.1 54.4 28.0 C 55.0 28.8 55.3 31.5 55.9 31.5 C 56.5 31.5 56.8 27.8 57.4 27.8 C 58.0 27.8 58.3 31.4 58.9 31.4 C 59.4 31.4 59.7 31.4 60.3 31.3 C 60.9 31.2 61.2 27.4 61.8 27.4 C 62.4 27.4 62.7 30.8 63.3 31.1 C 63.9 31.4 64.2 31.4 64.7 31.4 C 65.3 31.4 65.6 27.3 66.2 25.6 C 66.8 24.0 67.1 23.7 67.7 23.0 C 68.3 22.3 68.6 22.0 69.2 22.0 C 69.7 22.0 70.0 22.2 70.6 22.2 C 71.2 22.2 71.5 21.1 72.1 21.0 C 72.7 20.9 73.0 20.9 73.6 20.9 C 74.2 20.9 74.5 21.2 75.0 21.2 C 75.6 21.2 75.9 21.1 76.5 21.1 C 77.1 21.1 77.4 21.1 78.0 21.2 C 78.6 21.2 78.9 21.3 79.5 21.3 C 80.1 21.3 80.4 20.6 80.9 20.6 C 81.5 20.6 81.8 20.6 82.4 21.7 C 83.0 22.8 83.3 26.9 83.9 27.5 C 84.5 28.0 84.8 28.0 85.4 28.0 C 85.9 28.0 86.2 25.6 86.8 24.3 C 87.4 22.9 87.7 22.0 88.3 21.3 C 88.9 20.5 89.2 20.4 89.8 20.4 C 90.4 20.4 90.7 22.2 91.2 22.2 C 91.8 22.2 92.1 19.6 92.7 19.6 C 93.3 19.6 93.6 19.8 94.2 20.0 C 94.8 20.2 95.1 20.3 95.7 20.6 C 96.3 21.0 96.5 21.6 97.1 21.6 C 97.7 21.6 98.0 20.2 98.6 20.2 C 99.2 20.2 99.5 20.2 100.1 20.3 C 100.7 20.4 101.0 21.6 101.6 22.0 C 102.1 22.5 102.4 22.6 103.0 22.6 C 103.6 22.6 103.9 20.5 104.5 20.5 C 105.1 20.5 105.4 21.9 106.0 22.7 C 106.6 23.4 106.9 24.4 107.4 24.4 C 108.0 24.4 108.3 19.9 108.9 19.9 C 109.5 19.9 109.8 22.2 110.4 22.2 C 111.0 22.2 111.3 21.4 111.9 21.4 C 112.5 21.4 112.7 23.7 113.3 24.1 C 113.9 24.4 114.2 24.4 114.8 24.4 C 115.4 24.4 115.7 23.3 116.3 22.6 C 116.9 21.8 117.2 20.4 117.8 20.4 C 118.3 20.4 118.6 22.0 119.2 23.1 C 119.8 24.2 120.1 26.0 120.7 26.0 C 121.3 26.0 121.6 25.6 122.2 25.0 C 122.8 24.4 123.1 23.0 123.6 23.0 C 124.2 23.0 124.5 25.1 125.1 25.2 C 125.7 25.3 126.0 25.3 126.6 25.3 C 127.2 25.3 127.5 22.1 128.1 21.9 C 128.6 21.7 128.9 21.9 129.5 21.7 C 130.1 21.5 130.4 20.5 131.0 20.5 C 131.6 20.5 131.9 23.7 132.5 23.7 C 133.1 23.7 133.4 19.9 134 19.3 C 134.5 18.6 134.8 18.6 135.4 18.6 C 136.0 18.6 136.3 21.6 136.9 21.6 C 137.5 21.6 137.8 16.4 138.4 16.4 C 139.0 16.4 139.3 17.7 139.8 18.7 C 140.4 19.8 140.7 21.6 141.3 21.6 C 141.9 21.6 142.2 20.3 142.8 19.0 C 143.4 17.8 143.7 15.2 144.3 15.2 C 144.8 15.2 145.1 16.3 145.7 16.3 C 146.3 16.3 146.6 16.3 147.2 16.3 C 147.8 16.3 148.1 16.8 148.7 17.9 C 149.3 19.0 149.6 21.8 150.1 21.8 C 150.7 21.8 151.0 21.8 151.6 21.7 C 152.2 21.6 152.5 19.4 153.1 18.2 C 153.7 17.0 154.0 15.8 154.6 15.8 C 155.2 15.8 155.4 17.0 156.0 18.1 C 156.6 19.2 156.9 21.4 157.5 21.4 C 158.1 21.4 158.4 20.5 159.0 19.2 C 159.6 17.8 159.9 14.7 160.5 14.7 C 161.0 14.7 161.3 19.7 161.9 19.7 C 162.5 19.7 162.8 17.2 163.4 17.2 C 164.0 17.2 164.3 20.1 164.9 20.1 C 165.5 20.1 165.8 12.1 166.3 12.1 C 166.9 12.1 167.2 18.6 167.8 18.6 C 168.4 18.6 168.7 15.1 169.3 15.1 C 169.9 15.1 170.2 17.0 170.8 17.0 C 171.4 17.0 171.6 13.3 172.2 13.3 C 172.8 13.3 173.1 17.9 173.7 17.9 C 174.3 17.9 174.6 16.2 175.2 15.2 C 175.8 14.2 176.1 13.5 176.7 13.0 C 177.2 12.4 177.5 12.4 178.1 12.4 C 178.7 12.4 179.0 13.7 179.6 15.6 C 180.2 17.6 180.5 22.2 181.1 22.2 C 181.7 22.2 182.0 17.4 182.5 17.4 C 183.1 17.4 183.4 18.7 184.0 18.8 C 184.6 18.9 184.9 18.9 185.5 18.9 C 186.1 18.9 186.4 15.4 187.0 15.4 C 187.6 15.4 187.8 16.7 188.4 16.9 C 189.0 17.1 189.3 16.9 189.9 17.1 C 190.5 17.3 190.8 18.5 191.4 18.5 C 192.0 18.5 192.3 17.4 192.9 17.4 C 193.4 17.4 193.7 20.1 194.3 20.1 C 194.9 20.1 195.2 17.9 195.8 17.7 C 196.4 17.4 196.7 17.7 197.3 17.4 C 197.9 17.2 198.2 13.7 198.7 13.7 C 199.3 13.7 199.6 14.4 200.2 14.4 C 200.8 14.4 201.1 13.3 201.7 13.3 C 202.3 13.3 202.6 13.4 203.2 13.4 C 203.7 13.4 204.0 13.4 204.6 13.4 C 205.2 13.4 205.5 15.1 206.1 15.1 C 206.7 15.1 207.0 14.1 207.6 14.1 C 208.2 14.1 208.5 15.2 209.0 15.2 C 209.6 15.2 209.9 13.2 210.5 13.0 C 211.1 12.8 211.4 12.8 212.0 12.8 C 212.6 12.8 212.9 12.8 213.5 13.3 C 214.1 13.8 214.4 15.3 214.9 16.0 C 215.5 16.7 215.8 16.8 216.4 16.8 C 217.0 16.8 217.3 13.4 217.9 13.4 C 218.5 13.4 218.8 15.6 219.4 15.6 C 219.9 15.6 220.2 13.9 220.8 13.9 C 221.4 13.9 221.7 14.5 222.3 14.5 C 222.9 14.5 223.2 13.0 223.8 13.0 C 224.4 13.0 224.7 13.4 225.2 14.5 C 225.8 15.5 226.1 18.1 226.7 18.1 C 227.3 18.1 227.6 15.4 228.2 15.4 C 228.8 15.4 229.1 19.2 229.7 19.2 C 230.3 19.2 230.5 18.9 231.1 18.1 C 231.7 17.3 232.0 16.2 232.6 15.3 C 233.2 14.4 233.5 13.7 234.1 13.7 C 234.7 13.7 235.0 13.9 235.6 13.9 C 236.1 13.9 236.4 13.1 237.0 13.1 C 237.6 13.1 237.9 13.5 238.5 13.5 C 239.1 13.5 239.4 12.1 240.0 12.1 C 240.6 12.1 240.9 16.2 241.4 16.2 C 242.0 16.2 242.3 14.8 242.9 14.8 C 243.5 14.8 243.8 16.9 244.4 17.7 C 245.0 18.4 245.3 18.4 245.9 18.4 C 246.5 18.4 246.7 10.7 247.3 10.7 C 247.9 10.7 248.2 13.1 248.8 13.1 C 249.4 13.1 249.7 10.8 250.3 10.8 C 250.9 10.8 251.2 11.9 251.8 11.9 C 252.3 11.9 252.6 11.9 253.2 11.8 C 253.8 11.7 254.1 8.6 254.7 8.6 C 255.3 8.6 255.6 13.1 256.2 13.1 C 256.8 13.1 257.1 11.7 257.6 10.6 C 258.2 9.6 258.5 7.9 259.1 7.9 C 259.7 7.9 260.0 8.9 260.6 8.9 C 261.2 8.9 261.5 7.8 262.1 7.3 C 262.6 6.8 262.9 7.0 263.5 6.4 C 264.1 5.8 264.4 4.2 265.0 4.2 C 265.6 4.2 265.9 7.0 266.5 7.0 C 267.1 7.0 267.4 7.0 268 6.8 C 268.5 6.6 268.8 6.2 269.4 5.7 C 270.0 5.3 270.3 4.5 270.9 4.5 C 271.5 4.5 271.8 4.7 272.4 4.7 C 273.0 4.7 273.3 3.3 273.8 3.3 C 274.4 3.3 274.7 6.3 275.3 7.9 C 275.9 9.4 276.2 10.1 276.8 11.1 C 277.4 12.0 277.7 12.4 278.3 12.4 C 278.8 12.4 279.1 9.9 279.7 9.9 C 280.3 9.9 280.6 10.8 281.2 10.8 C 281.8 10.8 282.1 10.7 282.7 10.5 C 283.3 10.3 283.6 10.1 284.1 9.9 C 284.7 9.7 285.0 9.9 285.6 9.7 C 286.2 9.5 286.5 9.2 287.1 8.8 C 287.7 8.4 288.0 7.8 288.6 7.8 C 289.2 7.8 289.4 10.1 290.0 10.1 C 290.6 10.1 290.9 8.8 291.5 8.2 C 292.1 7.6 292.4 7.1 293.0 7.1 C 293.6 7.1 293.9 7.9 294.5 8.3 C 295.0 8.7 295.3 9.0 295.9 9.2 C 296.5 9.5 296.8 9.5 297.4 9.5 C 298.0 9.5 298.3 9.5 298.9 9.5 C 299.5 9.5 299.8 8.7 300.3 8.7 C 300.9 8.7 301.2 9.0 301.8 9.0 C 302.4 9.0 302.7 8.8 303.3 8.8 C 303.9 8.8 304.2 9.2 304.8 9.6 C 305.4 9.9 305.6 10.3 306.2 10.5 C 306.8 10.7 307.1 10.7 307.7 10.7 C 308.3 10.7 308.6 9.7 309.2 9.7 C 309.8 9.7 310.1 10.1 310.7 10.7 C 311.2 11.3 311.5 12.7 312.1 12.7 C 312.7 12.7 313.0 11.3 313.6 10.5 C 314.2 9.8 314.5 9.6 315.1 8.8 C 315.7 8.1 316.0 6.8 316.5 6.8 C 317.1 6.8 317.4 9.6 318.0 9.6 C 318.6 9.6 318.9 5.2 319.5 5.2 C 320.1 5.2 320.4 7.4 321.0 7.5 C 321.6 7.6 321.8 7.6 322.4 7.6 C 323.0 7.7 323.3 7.6 323.9 7.8 C 324.5 7.9 324.8 11.1 325.4 11.1 C 326.0 11.1 326.3 8.6 326.9 8.6 C 327.4 8.6 327.7 9.2 328.3 9.6 C 328.9 10.0 329.2 10.0 329.8 10.6 C 330.4 11.3 330.7 12.1 331.3 12.9 C 331.9 13.6 332.2 14.5 332.7 14.5 C 333.3 14.5 333.6 11.9 334.2 10.8 C 334.8 9.8 335.1 9.1 335.7 9.1 C 336.3 9.1 336.6 10.7 337.2 11.7 C 337.7 12.7 338.0 14.0 338.6 14.0 C 339.2 14.0 339.5 8.8 340.1 8.7 C 340.7 8.6 341.0 8.6 341.6 8.6 C 342.2 8.6 342.5 11.0 343.0 11.0 C 343.6 11.0 343.9 10.2 344.5 10.2 C 345.1 10.2 346.0 10.2 346.0 10.2 M 348.9 11.6 C 348.9 11.6 349.8 12.0 350.4 12.0 C 351.0 12.0 351.3 8.7 351.9 8.7 C 352.5 8.7 352.8 10.4 353.4 10.4 C 353.9 10.4 354.2 9.6 354.8 9.6 C 355.4 9.6 355.7 10.7 356.3 10.7 C 356.9 10.7 357.2 10.0 357.8 10.0 C 358.4 10.0 358.7 11.1 359.2 11.6 C 359.8 12.1 360.1 12.3 360.7 12.3 C 361.3 12.3 361.6 10.4 362.2 10.4 C 362.8 10.4 363.7 11.2 363.7 11.2 M 366.6 10.7 C 366.6 10.7 367.5 12.7 368.1 12.7 C 368.7 12.7 369.0 10.1 369.6 10.1 C 370.1 10.1 370.4 11.9 371.0 11.9 C 371.6 11.9 371.9 11.2 372.5 11.2 C 373.1 11.2 373.4 11.2 374.0 11.6 C 374.6 12.0 374.9 12.6 375.4 13.4 C 376.0 14.2 376.3 15.1 376.9 15.7 C 377.5 16.3 377.8 16.4 378.4 16.4 C 379.0 16.4 379.3 13.5 379.9 13.2 C 380.5 12.9 380.7 13.1 381.3 12.9 C 381.9 12.7 382.2 12.2 382.8 12.2 C 383.4 12.2 383.7 15.1 384.3 15.1 C 384.9 15.1 385.2 12.3 385.8 12.3 C 386.3 12.3 386.6 13.3 387.2 13.3 C 387.8 13.3 388.1 12.1 388.7 12.1 C 389.3 12.1 389.6 13.5 390.2 14.0 C 390.8 14.6 391.1 14.7 391.6 14.7 C 392.2 14.7 392.5 13.0 393.1 11.6 C 393.7 10.1 394.0 7.4 394.6 7.4 C 395.2 7.4 395.5 11.7 396.1 13.7 C 396.6 15.7 396.9 17.6 397.5 17.6 C 398.1 17.6 399.0 17.2 399.0 17.2 M 403.4 18.4 C 403.4 18.4 404.3 18.9 404.9 19.0 C 405.5 19.2 405.8 19.0 406.4 19.3 C 407.0 19.5 407.3 20.2 407.8 20.6 C 408.4 21.1 408.7 21.7 409.3 21.7 C 409.9 21.7 410.2 18.8 410.8 18.7 C 411.4 18.6 411.7 18.6 412.3 18.6 C 412.8 18.6 413.1 20.2 413.7 21.5 C 414.3 22.8 414.6 24.9 415.2 24.9 C 415.8 24.9 416.1 21.8 416.7 21.8 C 417.3 21.8 417.6 21.8 418.1 22.0 C 418.7 22.2 419.0 24.3 419.6 24.9 C 420.2 25.5 420.5 25.5 421.1 25.5 C 421.7 25.5 422.0 21.4 422.6 19.8 C 423.2 18.2 423.4 17.6 424.0 17.6 C 424.6 17.6 424.9 20.8 425.5 22.0 C 426.1 23.2 426.4 23.5 427.0 23.5 C 427.6 23.5 427.9 19.3 428.5 19.3 C 429.0 19.3 429.3 23.1 429.9 23.1 C 430.5 23.1 430.8 21.5 431.4 21.2 C 432.0 20.9 432.3 21.2 432.9 20.9 C 433.5 20.5 433.8 19.9 434.3 19.2 C 434.9 18.4 435.2 17.2 435.8 17.2 C 436.4 17.2 436.7 17.7 437.3 18.7 C 437.9 19.7 438.2 22.2 438.8 22.2 C 439.4 22.2 439.6 22.2 440.2 22.2 C 440.8 22.2 441.1 23.2 441.7 23.4 C 442.3 23.6 442.6 23.6 443.2 23.6 C 443.8 23.6 444.1 21.9 444.7 21.9 C 445.2 21.9 445.5 23.0 446.1 23.0 C 446.7 23.0 447.0 17.4 447.6 17.4 C 448.2 17.4 448.5 22.2 449.1 22.2 C 449.7 22.2 450.0 22.2 450.5 22.2 C 451.1 22.2 451.4 22.2 452.0 22.2 C 452.6 22.2 452.9 24.2 453.5 24.6 C 454.1 25.0 454.4 25.0 455.0 25.0 C 455.6 25.0 455.8 24.6 456.4 24.1 C 457.0 23.5 457.3 22.2 457.9 22.2 C 458.5 22.2 458.8 23.7 459.4 24.3 C 460.0 24.8 460.3 25.0 460.9 25.0 C 461.4 25.0 461.7 25.0 462.3 25.0 C 462.9 25.0 463.2 26.4 463.8 26.9 C 464.4 27.5 465.3 27.8 465.3 27.8 M 468.2 20.9 C 468.2 20.9 469.1 22.3 469.7 22.3 C 470.3 22.3 470.6 21.4 471.2 20.4 C 471.7 19.4 472.0 17.8 472.6 17.4 C 473.2 17.1 473.5 17.2 474.1 17.1 C 474.7 17.0 475.0 17.0 475.6 17.0 C 476.2 17.0 476.5 19.7 477.0 19.7 C 477.6 19.7 477.9 19.7 478.5 19.7 C 479.1 19.7 479.4 20.2 480.0 20.2 C 480.6 20.2 480.9 19.2 481.5 19.2 C 482.1 19.2 482.4 19.2 482.9 19.2 C 483.5 19.2 483.8 18.1 484.4 18.1 C 485.0 18.1 485.3 20.6 485.9 21.4 C 486.5 22.2 486.8 22.2 487.4 22.2 C 487.9 22.2 488.2 20.6 488.8 20.6 C 489.4 20.6 489.7 26.3 490.3 26.3 C 490.9 26.3 491.2 26.0 491.8 25.8 C 492.4 25.5 492.7 25.3 493.2 25.2 C 493.8 25.1 494.1 25.2 494.7 25.1 C 495.3 25.0 495.6 23.6 496.2 23.0 C 496.8 22.3 497.1 22.7 497.7 21.9 C 498.3 21.2 498.5 19.2 499.1 19.2 C 499.7 19.2 500.0 22.2 500.6 22.2 C 501.2 22.2 501.5 21.6 502.1 21.6 C 502.7 21.6 503.0 22.1 503.6 22.1 C 504.1 22.1 504.4 19.3 505.0 19.3 C 505.6 19.3 505.9 22.1 506.5 23.5 C 507.1 25.0 507.4 26.5 508.0 26.5 C 508.6 26.5 508.9 23.9 509.4 23.0 C 510.0 22.0 510.3 21.7 510.9 21.7 C 511.5 21.7 511.8 21.7 512.4 23.3 C 513.0 24.9 513.3 28.2 513.9 30.5 C 514.5 32.9 514.7 33.7 515.3 34.9 C 515.9 36.1 516.2 36.6 516.8 36.6 C 517.4 36.6 517.7 30.5 518.3 30.5 C 518.9 30.5 519.2 33.0 519.8 34.2 C 520.3 35.3 520.6 36.1 521.2 36.2 C 521.8 36.3 522.1 36.3 522.7 36.3 C 523.3 36.3 523.6 34.9 524.2 33.8 C 524.8 32.8 525.1 32.2 525.6 31.2 C 526.2 30.2 526.5 30.0 527.1 28.7 C 527.7 27.5 528.0 25.0 528.6 25.0 C 529.2 25.0 529.5 25.3 530.1 25.3 C 530.6 25.3 530.9 25.1 531.5 25.1 C 532.1 25.1 532.4 33.4 533.0 33.7 C 533.6 34.1 533.9 33.8 534.5 34.1 C 535.1 34.4 536 35.2 536 35.2" stroke="#4572A7" stroke-width="1"  stroke-linejoin="round" stroke-linecap="round"></path></g><g class="highcharts-markers" visibility="visible"  transform="translate(24,331) scale(1 1)" clip-path="url(#highcharts-2)"></g></g><g class="highcharts-navigator" ><rect fill="rgb(128,179,236)" fill-opacity="0.3" style="cursor:ew-resize ;" x="294" y="331" width="266" height="40"></rect><path fill="none" stroke="#b2b1b6" stroke-width="1" d="M 10 331.5 L 293.5 331.5 293.5 385.5 L 559.5 385.5 L 559.5 331.5 574 331.5 M 294.5 331.5 L 559.5 331.5"></path></g><g class="highcharts-navigator-handle-right" style="cursor:ew-resize;"  transform="translate(560,343)"><rect x="-4.5" y="0.5" width="8" height="15" strokeWidth="1" fill="#ebe7e8" stroke="#b2b1b6" stroke-width="1"></rect><path fill="#ebe7e8" d="M -1.5 4 L -1.5 12 M 0.5 4 L 0.5 12" stroke="#b2b1b6" stroke-width="1"></path></g><text x="292" text-anchor="middle" class="highcharts-title"  style="color:black;font-size:16px;font-weight:bold;fill:black;width:520px;" y="22"><tspan>Temperature variation by day</tspan></text><g class="highcharts-navigator-handle-left" style="cursor:ew-resize;"  transform="translate(294,343)"><rect x="-4.5" y="0.5" width="8" height="15" strokeWidth="1" fill="#ebe7e8" stroke="#b2b1b6" stroke-width="1"></rect><path fill="#ebe7e8" d="M -1.5 4 L -1.5 12 M 0.5 4 L 0.5 12" stroke="#b2b1b6" stroke-width="1"></path></g><g class="highcharts-axis-labels highcharts-xaxis-labels" ><text x="97.6" style="color:#6e6e70;cursor:default;font-size:11px;fill:#6e6e70;width:103px;text-overflow:clip;" text-anchor="middle" transform="translate(0,0)" y="304" opacity="1"><tspan>Aug '09</tspan></text><text x="194.7" style="color:#6e6e70;cursor:default;font-size:11px;fill:#6e6e70;width:103px;text-overflow:clip;" text-anchor="middle" transform="translate(0,0)" y="304" opacity="1"><tspan>Sep '09</tspan></text><text x="288.8" style="color:#6e6e70;cursor:default;font-size:11px;fill:#6e6e70;width:103px;text-overflow:clip;" text-anchor="middle" transform="translate(0,0)" y="304" opacity="1"><tspan>Oct '09</tspan></text><text x="385.8" style="color:#6e6e70;cursor:default;font-size:11px;fill:#6e6e70;width:103px;text-overflow:clip;" text-anchor="middle" transform="translate(0,0)" y="304" opacity="1"><tspan>Nov '09</tspan></text><text x="479.8" style="color:#6e6e70;cursor:default;font-size:11px;fill:#6e6e70;width:103px;text-overflow:clip;" text-anchor="middle" transform="translate(0,0)" y="304" opacity="1"><tspan>Dec '09</tspan></text></g><g class="highcharts-axis-labels highcharts-xaxis-labels" ><text x="202.7" style="color:#888;cursor:default;font-size:11px;fill:#888;width:272px;text-overflow:clip;" text-anchor="start" transform="translate(0,0)" y="367" opacity="1"><tspan>May '09</tspan></text><text x="383.8" style="color:#888;cursor:default;font-size:11px;fill:#888;width:272px;text-overflow:clip;" text-anchor="start" transform="translate(0,0)" y="367" opacity="1"><tspan>Sep '09</tspan></text></g><g class="highcharts-axis-labels highcharts-yaxis-labels" ><text x="574" style="color:#6e6e70;cursor:default;font-size:11px;fill:#6e6e70;width:183px;text-overflow:clip;" text-anchor="end" transform="translate(0,0)" y="283" opacity="1">-20</text><text x="574" style="color:#6e6e70;cursor:default;font-size:11px;fill:#6e6e70;width:183px;text-overflow:clip;" text-anchor="end" transform="translate(0,0)" y="214" opacity="1">0</text><text x="574" style="color:#6e6e70;cursor:default;font-size:11px;fill:#6e6e70;width:183px;text-overflow:clip;" text-anchor="end" transform="translate(0,0)" y="146" opacity="1">20</text><text x="0" style="color:#6e6e70;cursor:default;font-size:11px;fill:#6e6e70;width:183px;text-overflow:clip;" text-anchor="end" transform="translate(0,0)" y="-9999">40</text></g><g class="highcharts-axis-labels highcharts-yaxis-labels" ></g><g class="highcharts-tooltip"  style="cursor:default;padding:0;white-space:nowrap;" transform="translate(0,-9999)"><path fill="none" d="M 3 0 L 13 0 C 16 0 16 0 16 3 L 16 13 C 16 16 16 16 13 16 L 3 16 C 0 16 0 16 0 13 L 0 3 C 0 0 0 0 3 0"  stroke="black" stroke-opacity="0.0" stroke-width="5" transform="translate(1, 1)"></path><path fill="none" d="M 3 0 L 13 0 C 16 0 16 0 16 3 L 16 13 C 16 16 16 16 13 16 L 3 16 C 0 16 0 16 0 13 L 0 3 C 0 0 0 0 3 0"  stroke="black" stroke-opacity="0.0" stroke-width="3" transform="translate(1, 1)"></path><path fill="none" d="M 3 0 L 13 0 C 16 0 16 0 16 3 L 16 13 C 16 16 16 16 13 16 L 3 16 C 0 16 0 16 0 13 L 0 3 C 0 0 0 0 3 0"  stroke="black" stroke-opacity="0.1" stroke-width="1" transform="translate(1, 1)"></path><path fill="rgb(249, 249, 249)" fill-opacity=" .85" d="M 3 0 L 13 0 C 16 0 16 0 16 3 L 16 13 C 16 16 16 16 13 16 L 3 16 C 0 16 0 16 0 13 L 0 3 C 0 0 0 0 3 0"></path><text x="8"  style="font-size:12px;color:#333333;fill:#333333;" transform="translate(0,20)"></text></g></svg>