<svg version="1.1" style="font-family: signika, serif; font-size: 12px; background-image: url(http://www.highcharts.com/samples/graphics/sand.png); background-attachment: initial; background-origin: initial; background-clip: initial; background-color: initial; background-position: initial initial; background-repeat: initial initial; " xmlns="http://www.w3.org/2000/svg" width="584" height="400" viewBox="0 0 584 400" xmlns:xlink="http://www.w3.org/1999/xlink"><style type="text/css"><![CDATA[@import url(http://fonts.googleapis.com/css?family=Signika:700);]]></style><desc>Created with Highstock 2.1.4</desc><defs><clipPath id="highcharts-1"><rect x="0" y="0" width="564" height="206"></rect></clipPath><clipPath id="highcharts-3"><rect x="-99" y="-79" width="663" height="400"></rect></clipPath><clipPath id="highcharts-4"><rect x="0" y="0" width="564" height="40"></rect></clipPath></defs><g class="highcharts-scrollbar" transform="translate(10,372)"><rect x="0" y="-0.5" fill="#eeeeee" stroke="#C0C0C8" stroke-width="1" rx="0" ry="0" height="14" width="564"></rect><rect y="-0.5" height="14" fill="#bfc8d1" stroke="#bfc8d1" stroke-width="1" rx="0" ry="0" x="531.5" width="18"></rect><path fill="none" stroke="#666" stroke-width="1" visibility="visible" d="M 537 3.5 L 537 9.3 M 540 3.5 L 540 9.3 M 543 3.5 L 543 9.3"></path><g><rect x="-0.5" y="-0.5" width="14" height="14" strokeWidth="1" stroke="#bbb" stroke-width="1" fill="#ebe7e8"></rect><path fill="#666" d="M 8 4 L 8 10 5 7"></path></g><g transform="translate(550,0)"><rect x="-0.5" y="-0.5" width="14" height="14" strokeWidth="1" stroke="#bbb" stroke-width="1" fill="#ebe7e8"></rect><path fill="#666" d="M 6 4 L 6 10 9 7"></path></g></g><g class="highcharts-range-selector-buttons"><text x="10" y="59" style="color:#666;fill:#666;">Zoom</text><g class="highcharts-button"  states="[object Object]" style="cursor:pointer;text-align:center;" transform="translate(46,44)"><rect x="0.5" y="0.5" width="32" height="22" strokeWidth="1" fill="white" stroke="#C0C0C8" stroke-width="1" rx="0" ry="0"></rect><text x="7.5"  style="font-weight:normal;color:#444;fill:#444;" transform="translate(0,14)">1m</text></g><g class="highcharts-button"  states="[object Object]" style="cursor:pointer;text-align:center;" transform="translate(83,44)"><rect x="0.5" y="0.5" width="32" height="22" strokeWidth="1" fill="#D0D0D8" stroke="#68A" stroke-width="1" rx="0" ry="0"></rect><text x="7.5"  style="font-weight:bold;color:black;fill:black;" transform="translate(0,14)">3m</text></g><g class="highcharts-button"  states="[object Object]" style="cursor:pointer;text-align:center;" transform="translate(120,44)"><rect x="0.5" y="0.5" width="32" height="22" strokeWidth="1" fill="white" stroke="#C0C0C8" stroke-width="1" rx="0" ry="0"></rect><text x="7.5"  style="font-weight:normal;color:#444;fill:#444;" transform="translate(0,14)">6m</text></g><g class="highcharts-button"  states="[object Object]" style="cursor:pointer;text-align:center;" transform="translate(157,44)"><rect x="0.5" y="0.5" width="32" height="22" strokeWidth="1" fill="white" stroke="#C0C0C8" stroke-width="1" rx="0" ry="0"></rect><text x="4"  style="font-weight:normal;color:#444;fill:#444;" transform="translate(0,14)">YTD</text></g><g class="highcharts-button"  states="[object Object]" style="cursor:pointer;text-align:center;" transform="translate(194,44)"><rect x="0.5" y="0.5" width="32" height="22" strokeWidth="1" fill="white" stroke="#C0C0C8" stroke-width="1" rx="0" ry="0"></rect><text x="9.5"  style="font-weight:normal;color:#444;fill:#444;" transform="translate(0,14)">1y</text></g><g class="highcharts-button"  states="[object Object]" style="cursor:pointer;text-align:center;" transform="translate(231,44)"><rect x="0.5" y="0.5" width="32" height="22" strokeWidth="1" fill="white" stroke="#C0C0C8" stroke-width="1" rx="0" ry="0"></rect><text x="10"  style="font-weight:normal;color:#444;fill:#444;" transform="translate(0,14)">All</text></g></g><g class="highcharts-input-group" transform="translate(316,44)" visibility="visible"><g style="fill:#666;" transform="translate(0,0)"><text x="2"  style="font-size:12px;font-family:signika, serif;color:#666;fill:#666;" transform="translate(0,14)">From</text></g><g style="text-align:center;" transform="translate(36,0)"><rect x="0.5" y="0.5" width="94" height="21" strokeWidth="1" fill="none" stroke="silver" stroke-width="1"></rect><text x="13.5"  style="font-size:12px;font-family:signika, serif;color:#444;fill:#444;" transform="translate(0,14)"><tspan>Feb 9, 2013</tspan></text></g><g style="fill:#666;" transform="translate(140,0)"><text x="2"  style="font-size:12px;font-family:signika, serif;color:#666;fill:#666;" transform="translate(0,14)">To</text></g><g style="text-align:center;" transform="translate(164,0)"><rect x="0.5" y="0.5" width="94" height="21" strokeWidth="1" fill="none" stroke="silver" stroke-width="1"></rect><text x="9.5"  style="font-size:12px;font-family:signika, serif;color:#444;fill:#444;" transform="translate(0,14)"><tspan>May 10, 2013</tspan></text></g></g><g class="highcharts-grid" ></g><g class="highcharts-grid" ><path fill="none" d="M 148.5 331 L 148.5 371" stroke="#D0D0D8" stroke-width="1"  opacity="1"></path><path fill="none" d="M 301.5 331 L 301.5 371" stroke="#D0D0D8" stroke-width="1"  opacity="1"></path><path fill="none" d="M 455.5 331 L 455.5 371" stroke="#D0D0D8" stroke-width="1"  opacity="1"></path></g><g class="highcharts-grid" ><path fill="none" d="M 10 285.5 L 574 285.5" stroke="#D8D8D8" stroke-width="1"  opacity="1"></path><path fill="none" d="M 10 244.5 L 574 244.5" stroke="#D8D8D8" stroke-width="1"  opacity="1"></path><path fill="none" d="M 10 203.5 L 574 203.5" stroke="#D8D8D8" stroke-width="1"  opacity="1"></path><path fill="none" d="M 10 161.5 L 574 161.5" stroke="#D8D8D8" stroke-width="1"  opacity="1"></path><path fill="none" d="M 10 120.5 L 574 120.5" stroke="#D8D8D8" stroke-width="1"  opacity="1"></path><path fill="none" d="M 10 78.5 L 574 78.5" stroke="#D8D8D8" stroke-width="1"  opacity="1"></path></g><g class="highcharts-grid" ></g><g class="highcharts-axis" ><path fill="none" d="M 82.5 285 L 82.5 295" stroke="#C0D0E0" stroke-width="1" opacity="1"></path><path fill="none" d="M 163.5 285 L 163.5 295" stroke="#C0D0E0" stroke-width="1" opacity="1"></path><path fill="none" d="M 244.5 285 L 244.5 295" stroke="#C0D0E0" stroke-width="1" opacity="1"></path><path fill="none" d="M 326.5 285 L 326.5 295" stroke="#C0D0E0" stroke-width="1" opacity="1"></path><path fill="none" d="M 407.5 285 L 407.5 295" stroke="#C0D0E0" stroke-width="1" opacity="1"></path><path fill="none" d="M 489.5 285 L 489.5 295" stroke="#C0D0E0" stroke-width="1" opacity="1"></path><path fill="none" d="M 570.5 285 L 570.5 295" stroke="#C0D0E0" stroke-width="1" opacity="1"></path><path fill="none" d="M 10 285.5 L 574 285.5" stroke="#C0D0E0" stroke-width="1"  visibility="visible"></path></g><g class="highcharts-axis" ></g><g class="highcharts-axis" ></g><g class="highcharts-axis" ></g><g class="highcharts-series-group" ><g class="highcharts-series highcharts-tracker" visibility="visible"  transform="translate(10,79) scale(1 1)" style="" clip-path="url(#highcharts-1)"><path fill="none" d="M 21.5 66.5 L 21.5 39.5 L 41.5 39.5 L 41.5 66.5 Z M 31.5 39.5 L 31.5 25 M 31.5 66.5 L 31.5 66" stroke="black" stroke-width="5"  stroke-opacity="0.0" transform="translate(1, 1)"></path><path fill="none" d="M 21.5 66.5 L 21.5 39.5 L 41.5 39.5 L 41.5 66.5 Z M 31.5 39.5 L 31.5 25 M 31.5 66.5 L 31.5 66" stroke="black" stroke-width="3"  stroke-opacity="0.0" transform="translate(1, 1)"></path><path fill="none" d="M 21.5 66.5 L 21.5 39.5 L 41.5 39.5 L 41.5 66.5 Z M 31.5 39.5 L 31.5 25 M 31.5 66.5 L 31.5 66" stroke="black" stroke-width="1"  stroke-opacity="0.1" transform="translate(1, 1)"></path><path fill="#f45b5b" d="M 21.5 66.5 L 21.5 39.5 L 41.5 39.5 L 41.5 66.5 Z M 31.5 39.5 L 31.5 25 M 31.5 66.5 L 31.5 66" stroke="#404048" stroke-width="1"></path><path fill="none" d="M 62.5 81.5 L 62.5 64.5 L 82.5 64.5 L 82.5 81.5 Z M 72.5 64.5 L 72.5 61 M 72.5 81.5 L 72.5 94" stroke="black" stroke-width="5"  stroke-opacity="0.0" transform="translate(1, 1)"></path><path fill="none" d="M 62.5 81.5 L 62.5 64.5 L 82.5 64.5 L 82.5 81.5 Z M 72.5 64.5 L 72.5 61 M 72.5 81.5 L 72.5 94" stroke="black" stroke-width="3"  stroke-opacity="0.0" transform="translate(1, 1)"></path><path fill="none" d="M 62.5 81.5 L 62.5 64.5 L 82.5 64.5 L 82.5 81.5 Z M 72.5 64.5 L 72.5 61 M 72.5 81.5 L 72.5 94" stroke="black" stroke-width="1"  stroke-opacity="0.1" transform="translate(1, 1)"></path><path fill="#f45b5b" d="M 62.5 81.5 L 62.5 64.5 L 82.5 64.5 L 82.5 81.5 Z M 72.5 64.5 L 72.5 61 M 72.5 81.5 L 72.5 94" stroke="#404048" stroke-width="1"></path><path fill="none" d="M 102.5 115.5 L 102.5 76.5 L 122.5 76.5 L 122.5 115.5 Z M 112.5 76.5 L 112.5 74 M 112.5 115.5 L 112.5 115" stroke="black" stroke-width="5"  stroke-opacity="0.0" transform="translate(1, 1)"></path><path fill="none" d="M 102.5 115.5 L 102.5 76.5 L 122.5 76.5 L 122.5 115.5 Z M 112.5 76.5 L 112.5 74 M 112.5 115.5 L 112.5 115" stroke="black" stroke-width="3"  stroke-opacity="0.0" transform="translate(1, 1)"></path><path fill="none" d="M 102.5 115.5 L 102.5 76.5 L 122.5 76.5 L 122.5 115.5 Z M 112.5 76.5 L 112.5 74 M 112.5 115.5 L 112.5 115" stroke="black" stroke-width="1"  stroke-opacity="0.1" transform="translate(1, 1)"></path><path fill="#f45b5b" d="M 102.5 115.5 L 102.5 76.5 L 122.5 76.5 L 122.5 115.5 Z M 112.5 76.5 L 112.5 74 M 112.5 115.5 L 112.5 115" stroke="#404048" stroke-width="1"></path><path fill="none" d="M 143.5 119.5 L 143.5 113.5 L 163.5 113.5 L 163.5 119.5 Z M 153.5 113.5 L 153.5 106 M 153.5 119.5 L 153.5 133" stroke="black" stroke-width="5"  stroke-opacity="0.0" transform="translate(1, 1)"></path><path fill="none" d="M 143.5 119.5 L 143.5 113.5 L 163.5 113.5 L 163.5 119.5 Z M 153.5 113.5 L 153.5 106 M 153.5 119.5 L 153.5 133" stroke="black" stroke-width="3"  stroke-opacity="0.0" transform="translate(1, 1)"></path><path fill="none" d="M 143.5 119.5 L 143.5 113.5 L 163.5 113.5 L 163.5 119.5 Z M 153.5 113.5 L 153.5 106 M 153.5 119.5 L 153.5 133" stroke="black" stroke-width="1"  stroke-opacity="0.1" transform="translate(1, 1)"></path><path fill="white" d="M 143.5 119.5 L 143.5 113.5 L 163.5 113.5 L 163.5 119.5 Z M 153.5 113.5 L 153.5 106 M 153.5 119.5 L 153.5 133" stroke="#404048" stroke-width="1"></path><path fill="none" d="M 184.5 116.5 L 184.5 93.5 L 204.5 93.5 L 204.5 116.5 Z M 194.5 93.5 L 194.5 92 M 194.5 116.5 L 194.5 123" stroke="black" stroke-width="5"  stroke-opacity="0.0" transform="translate(1, 1)"></path><path fill="none" d="M 184.5 116.5 L 184.5 93.5 L 204.5 93.5 L 204.5 116.5 Z M 194.5 93.5 L 194.5 92 M 194.5 116.5 L 194.5 123" stroke="black" stroke-width="3"  stroke-opacity="0.0" transform="translate(1, 1)"></path><path fill="none" d="M 184.5 116.5 L 184.5 93.5 L 204.5 93.5 L 204.5 116.5 Z M 194.5 93.5 L 194.5 92 M 194.5 116.5 L 194.5 123" stroke="black" stroke-width="1"  stroke-opacity="0.1" transform="translate(1, 1)"></path><path fill="white" d="M 184.5 116.5 L 184.5 93.5 L 204.5 93.5 L 204.5 116.5 Z M 194.5 93.5 L 194.5 92 M 194.5 116.5 L 194.5 123" stroke="#404048" stroke-width="1"></path><path fill="none" d="M 224.5 96.5 L 224.5 63.5 L 244.5 63.5 L 244.5 96.5 Z M 234.5 63.5 L 234.5 62 M 234.5 96.5 L 234.5 97" stroke="black" stroke-width="5"  stroke-opacity="0.0" transform="translate(1, 1)"></path><path fill="none" d="M 224.5 96.5 L 224.5 63.5 L 244.5 63.5 L 244.5 96.5 Z M 234.5 63.5 L 234.5 62 M 234.5 96.5 L 234.5 97" stroke="black" stroke-width="3"  stroke-opacity="0.0" transform="translate(1, 1)"></path><path fill="none" d="M 224.5 96.5 L 224.5 63.5 L 244.5 63.5 L 244.5 96.5 Z M 234.5 63.5 L 234.5 62 M 234.5 96.5 L 234.5 97" stroke="black" stroke-width="1"  stroke-opacity="0.1" transform="translate(1, 1)"></path><path fill="white" d="M 224.5 96.5 L 224.5 63.5 L 244.5 63.5 L 244.5 96.5 Z M 234.5 63.5 L 234.5 62 M 234.5 96.5 L 234.5 97" stroke="#404048" stroke-width="1"></path><path fill="none" d="M 265.5 94.5 L 265.5 58.5 L 285.5 58.5 L 285.5 94.5 Z M 275.5 58.5 L 275.5 50 M 275.5 94.5 L 275.5 96" stroke="black" stroke-width="5"  stroke-opacity="0.0" transform="translate(1, 1)"></path><path fill="none" d="M 265.5 94.5 L 265.5 58.5 L 285.5 58.5 L 285.5 94.5 Z M 275.5 58.5 L 275.5 50 M 275.5 94.5 L 275.5 96" stroke="black" stroke-width="3"  stroke-opacity="0.0" transform="translate(1, 1)"></path><path fill="none" d="M 265.5 94.5 L 265.5 58.5 L 285.5 58.5 L 285.5 94.5 Z M 275.5 58.5 L 275.5 50 M 275.5 94.5 L 275.5 96" stroke="black" stroke-width="1"  stroke-opacity="0.1" transform="translate(1, 1)"></path><path fill="#f45b5b" d="M 265.5 94.5 L 265.5 58.5 L 285.5 58.5 L 285.5 94.5 Z M 275.5 58.5 L 275.5 50 M 275.5 94.5 L 275.5 96" stroke="#404048" stroke-width="1"></path><path fill="none" d="M 306.5 127.5 L 306.5 96.5 L 326.5 96.5 L 326.5 127.5 Z M 316.5 96.5 L 316.5 93 M 316.5 127.5 L 316.5 132" stroke="black" stroke-width="5"  stroke-opacity="0.0" transform="translate(1, 1)"></path><path fill="none" d="M 306.5 127.5 L 306.5 96.5 L 326.5 96.5 L 326.5 127.5 Z M 316.5 96.5 L 316.5 93 M 316.5 127.5 L 316.5 132" stroke="black" stroke-width="3"  stroke-opacity="0.0" transform="translate(1, 1)"></path><path fill="none" d="M 306.5 127.5 L 306.5 96.5 L 326.5 96.5 L 326.5 127.5 Z M 316.5 96.5 L 316.5 93 M 316.5 127.5 L 316.5 132" stroke="black" stroke-width="1"  stroke-opacity="0.1" transform="translate(1, 1)"></path><path fill="#f45b5b" d="M 306.5 127.5 L 306.5 96.5 L 326.5 96.5 L 326.5 127.5 Z M 316.5 96.5 L 316.5 93 M 316.5 127.5 L 316.5 132" stroke="#404048" stroke-width="1"></path><path fill="none" d="M 347.5 124.5 L 347.5 116.5 L 367.5 116.5 L 367.5 124.5 Z M 357.5 116.5 L 357.5 102 M 357.5 124.5 L 357.5 128" stroke="black" stroke-width="5"  stroke-opacity="0.0" transform="translate(1, 1)"></path><path fill="none" d="M 347.5 124.5 L 347.5 116.5 L 367.5 116.5 L 367.5 124.5 Z M 357.5 116.5 L 357.5 102 M 357.5 124.5 L 357.5 128" stroke="black" stroke-width="3"  stroke-opacity="0.0" transform="translate(1, 1)"></path><path fill="none" d="M 347.5 124.5 L 347.5 116.5 L 367.5 116.5 L 367.5 124.5 Z M 357.5 116.5 L 357.5 102 M 357.5 124.5 L 357.5 128" stroke="black" stroke-width="1"  stroke-opacity="0.1" transform="translate(1, 1)"></path><path fill="white" d="M 347.5 124.5 L 347.5 116.5 L 367.5 116.5 L 367.5 124.5 Z M 357.5 116.5 L 357.5 102 M 357.5 124.5 L 357.5 128" stroke="#404048" stroke-width="1"></path><path fill="none" d="M 387.5 180.5 L 387.5 120.5 L 407.5 120.5 L 407.5 180.5 Z M 397.5 120.5 L 397.5 119 M 397.5 180.5 L 397.5 189" stroke="black" stroke-width="5"  stroke-opacity="0.0" transform="translate(1, 1)"></path><path fill="none" d="M 387.5 180.5 L 387.5 120.5 L 407.5 120.5 L 407.5 180.5 Z M 397.5 120.5 L 397.5 119 M 397.5 180.5 L 397.5 189" stroke="black" stroke-width="3"  stroke-opacity="0.0" transform="translate(1, 1)"></path><path fill="none" d="M 387.5 180.5 L 387.5 120.5 L 407.5 120.5 L 407.5 180.5 Z M 397.5 120.5 L 397.5 119 M 397.5 180.5 L 397.5 189" stroke="black" stroke-width="1"  stroke-opacity="0.1" transform="translate(1, 1)"></path><path fill="#f45b5b" d="M 387.5 180.5 L 387.5 120.5 L 407.5 120.5 L 407.5 180.5 Z M 397.5 120.5 L 397.5 119 M 397.5 180.5 L 397.5 189" stroke="#404048" stroke-width="1"></path><path fill="none" d="M 428.5 177.5 L 428.5 136.5 L 448.5 136.5 L 448.5 177.5 Z M 438.5 136.5 L 438.5 134 M 438.5 177.5 L 438.5 179" stroke="black" stroke-width="5"  stroke-opacity="0.0" transform="translate(1, 1)"></path><path fill="none" d="M 428.5 177.5 L 428.5 136.5 L 448.5 136.5 L 448.5 177.5 Z M 438.5 136.5 L 438.5 134 M 438.5 177.5 L 438.5 179" stroke="black" stroke-width="3"  stroke-opacity="0.0" transform="translate(1, 1)"></path><path fill="none" d="M 428.5 177.5 L 428.5 136.5 L 448.5 136.5 L 448.5 177.5 Z M 438.5 136.5 L 438.5 134 M 438.5 177.5 L 438.5 179" stroke="black" stroke-width="1"  stroke-opacity="0.1" transform="translate(1, 1)"></path><path fill="white" d="M 428.5 177.5 L 428.5 136.5 L 448.5 136.5 L 448.5 177.5 Z M 438.5 136.5 L 438.5 134 M 438.5 177.5 L 438.5 179" stroke="#404048" stroke-width="1"></path><path fill="none" d="M 469.5 131.5 L 469.5 82.5 L 489.5 82.5 L 489.5 131.5 Z M 479.5 82.5 L 479.5 77 M 479.5 131.5 L 479.5 132" stroke="black" stroke-width="5"  stroke-opacity="0.0" transform="translate(1, 1)"></path><path fill="none" d="M 469.5 131.5 L 469.5 82.5 L 489.5 82.5 L 489.5 131.5 Z M 479.5 82.5 L 479.5 77 M 479.5 131.5 L 479.5 132" stroke="black" stroke-width="3"  stroke-opacity="0.0" transform="translate(1, 1)"></path><path fill="none" d="M 469.5 131.5 L 469.5 82.5 L 489.5 82.5 L 489.5 131.5 Z M 479.5 82.5 L 479.5 77 M 479.5 131.5 L 479.5 132" stroke="black" stroke-width="1"  stroke-opacity="0.1" transform="translate(1, 1)"></path><path fill="white" d="M 469.5 131.5 L 469.5 82.5 L 489.5 82.5 L 489.5 131.5 Z M 479.5 82.5 L 479.5 77 M 479.5 131.5 L 479.5 132" stroke="#404048" stroke-width="1"></path><path fill="none" d="M 509.5 78.5 L 509.5 73.5 L 529.5 73.5 L 529.5 78.5 Z M 519.5 73.5 L 519.5 56 M 519.5 78.5 L 519.5 82" stroke="black" stroke-width="5"  stroke-opacity="0.0" transform="translate(1, 1)"></path><path fill="none" d="M 509.5 78.5 L 509.5 73.5 L 529.5 73.5 L 529.5 78.5 Z M 519.5 73.5 L 519.5 56 M 519.5 78.5 L 519.5 82" stroke="black" stroke-width="3"  stroke-opacity="0.0" transform="translate(1, 1)"></path><path fill="none" d="M 509.5 78.5 L 509.5 73.5 L 529.5 73.5 L 529.5 78.5 Z M 519.5 73.5 L 519.5 56 M 519.5 78.5 L 519.5 82" stroke="black" stroke-width="1"  stroke-opacity="0.1" transform="translate(1, 1)"></path><path fill="#f45b5b" d="M 509.5 78.5 L 509.5 73.5 L 529.5 73.5 L 529.5 78.5 Z M 519.5 73.5 L 519.5 56 M 519.5 78.5 L 519.5 82" stroke="#404048" stroke-width="1"></path></g><g class="highcharts-markers" visibility="visible"  transform="translate(10,79) scale(1 1)" clip-path="none"></g><g class="highcharts-series" visibility="visible"  transform="translate(24,331) scale(1 1)" clip-path="url(#highcharts-4)"><path fill="rgb(69,114,167)" fill-opacity="0.0" d="M 0 36.0 C 0 36.0 0.8 36.1 1.4 36.1 C 2.0 36.1 2.3 36.2 2.9 36.2 C 3.5 36.3 3.8 36.3 4.4 36.3 C 5.0 36.3 5.3 36.4 5.8 36.4 C 6.4 36.4 6.7 36.4 7.3 36.4 C 7.9 36.4 8.2 36.4 8.8 36.4 C 9.4 36.4 9.7 36.4 10.3 36.5 C 10.8 36.5 11.1 36.6 11.7 36.6 C 12.3 36.6 12.6 36.6 13.2 36.5 C 13.8 36.4 14.1 36.3 14.7 36.2 C 15.3 36.1 15.6 35.9 16.1 35.9 C 16.7 35.9 17.0 36.0 17.6 36.0 C 18.2 36.0 18.5 36.0 19.1 36.0 C 19.7 36.0 20.0 35.9 20.6 35.9 C 21.2 35.9 21.4 35.9 22.0 35.9 C 22.6 35.9 22.9 35.8 23.5 35.7 C 24.1 35.7 24.4 35.7 25.0 35.6 C 25.6 35.6 25.9 35.6 26.5 35.6 C 27.0 35.5 27.3 35.5 27.9 35.5 C 28.5 35.5 28.8 35.5 29.4 35.6 C 30.0 35.6 30.3 35.6 30.9 35.6 C 31.5 35.6 31.8 35.5 32.3 35.5 C 32.9 35.4 33.2 35.2 33.8 35.2 C 34.4 35.2 34.7 35.3 35.3 35.3 C 35.9 35.3 36.2 35.3 36.8 35.2 C 37.4 35.2 37.6 35.1 38.2 35.0 C 38.8 35.0 39.1 35.0 39.7 34.9 C 40.3 34.8 40.6 34.7 41.2 34.7 C 41.8 34.7 42.1 34.7 42.7 34.7 C 43.2 34.8 43.5 34.8 44.1 34.8 C 44.7 34.9 45.0 34.9 45.6 35.0 C 46.2 35.1 46.5 35.2 47.1 35.2 C 47.7 35.2 48.0 35.1 48.5 35.0 C 49.1 34.9 49.4 34.8 50.0 34.7 C 50.6 34.6 50.9 34.6 51.5 34.6 C 52.1 34.6 52.4 34.8 53.0 34.9 C 53.6 35.0 53.8 35.0 54.4 35.0 C 55.0 35.0 55.3 35.0 55.9 35.0 C 56.5 35.0 56.8 35.0 57.4 35.0 C 58.0 35.0 58.3 34.9 58.9 34.9 C 59.4 34.9 59.7 35.0 60.3 35.0 C 60.9 35.0 61.2 34.9 61.8 34.9 C 62.4 34.8 62.7 34.9 63.3 34.8 C 63.9 34.8 64.2 34.7 64.7 34.7 C 65.3 34.6 65.6 34.5 66.2 34.5 C 66.8 34.5 67.1 34.5 67.7 34.5 C 68.3 34.6 68.6 34.6 69.2 34.6 C 69.7 34.6 70.0 34.7 70.6 34.7 C 71.2 34.7 71.5 34.6 72.1 34.5 C 72.7 34.4 73.0 34.3 73.6 34.2 C 74.2 34.1 74.5 34.1 75.0 34.0 C 75.6 33.9 75.9 33.9 76.5 33.8 C 77.1 33.7 77.4 33.7 78.0 33.6 C 78.6 33.5 78.9 33.5 79.5 33.3 C 80.1 33.2 80.4 33.1 80.9 33.1 C 81.5 33.1 81.8 33.2 82.4 33.2 C 83.0 33.2 83.3 33.0 83.9 33.0 C 84.5 33.0 84.8 33.1 85.4 33.1 C 85.9 33.1 86.2 33.0 86.8 32.9 C 87.4 32.8 87.7 32.7 88.3 32.6 C 88.9 32.4 89.2 32.3 89.8 32.2 C 90.4 32.1 90.7 32.1 91.2 32.1 C 91.8 32.1 92.1 32.1 92.7 32.3 C 93.3 32.4 93.6 32.5 94.2 32.6 C 94.8 32.8 95.1 33.0 95.7 33.0 C 96.3 33.0 96.5 32.9 97.1 32.8 C 97.7 32.7 98.0 32.6 98.6 32.5 C 99.2 32.4 99.5 32.3 100.1 32.3 C 100.7 32.3 101.0 32.3 101.6 32.3 C 102.1 32.3 102.4 32.3 103.0 32.2 C 103.6 32.0 103.9 31.8 104.5 31.6 C 105.1 31.4 105.4 31.5 106.0 31.3 C 106.6 31.1 106.9 30.9 107.4 30.8 C 108.0 30.7 108.3 30.8 108.9 30.6 C 109.5 30.4 109.8 30.1 110.4 30.0 C 111.0 29.8 111.3 29.7 111.9 29.7 C 112.5 29.7 112.7 29.7 113.3 29.9 C 113.9 30.1 114.2 30.8 114.8 30.8 C 115.4 30.8 115.7 30.8 116.3 30.8 C 116.9 30.8 117.2 30.4 117.8 30.2 C 118.3 30.0 118.6 30.1 119.2 29.9 C 119.8 29.8 120.1 29.5 120.7 29.5 C 121.3 29.5 121.6 29.8 122.2 29.8 C 122.8 29.8 123.1 29.2 123.6 29.2 C 124.2 29.2 124.5 29.2 125.1 29.3 C 125.7 29.4 126.0 30.0 126.6 30.3 C 127.2 30.5 127.5 30.3 128.1 30.7 C 128.6 31.1 128.9 31.8 129.5 32.1 C 130.1 32.5 130.4 32.5 131.0 32.6 C 131.6 32.8 131.9 32.8 132.5 32.8 C 133.1 32.8 133.4 32.8 134 32.8 C 134.5 32.8 134.8 32.9 135.4 33.0 C 136.0 33.1 136.3 33.1 136.9 33.1 C 137.5 33.1 137.8 33.1 138.4 33.1 C 139.0 33.0 139.3 33.0 139.8 32.9 C 140.4 32.9 140.7 32.9 141.3 32.8 C 141.9 32.6 142.2 32.4 142.8 32.2 C 143.4 32.0 143.7 31.9 144.3 31.8 C 144.8 31.7 145.1 31.5 145.7 31.5 C 146.3 31.5 146.6 31.6 147.2 31.6 C 147.8 31.6 148.1 31.1 148.7 30.8 C 149.3 30.6 149.6 30.6 150.1 30.4 C 150.7 30.2 151.0 30.1 151.6 29.9 C 152.2 29.8 152.5 29.7 153.1 29.7 C 153.7 29.7 154.0 30.0 154.6 30.0 C 155.2 30.0 155.4 29.8 156.0 29.8 C 156.6 29.8 156.9 29.8 157.5 29.8 C 158.1 29.8 158.4 30.0 159.0 30.1 C 159.6 30.2 159.9 30.2 160.5 30.2 C 161.0 30.3 161.3 30.4 161.9 30.5 C 162.5 30.6 162.8 30.6 163.4 30.6 C 164.0 30.6 164.3 30.3 164.9 30.3 C 165.5 30.3 165.8 30.3 166.3 30.5 C 166.9 30.6 167.2 31.0 167.8 31.1 C 168.4 31.2 168.7 31.2 169.3 31.2 C 169.9 31.2 170.2 31.2 170.8 31.2 C 171.4 31.1 171.6 30.3 172.2 30.3 C 172.8 30.3 173.1 30.4 173.7 30.4 C 174.3 30.4 174.6 30.4 175.2 30.4 C 175.8 30.5 176.1 30.6 176.7 30.8 C 177.2 31.0 177.5 31.1 178.1 31.4 C 178.7 31.7 179.0 32.1 179.6 32.3 C 180.2 32.6 180.5 32.4 181.1 32.7 C 181.7 32.9 182.0 33.3 182.5 33.7 C 183.1 34.1 183.4 34.7 184.0 34.7 C 184.6 34.7 184.9 34.0 185.5 34.0 C 186.1 34.0 186.4 34.4 187.0 34.4 C 187.6 34.4 187.8 34.3 188.4 34.2 C 189.0 34.1 189.3 34.0 189.9 34.0 C 190.5 34.0 190.8 34.4 191.4 34.5 C 192.0 34.7 192.3 34.9 192.9 34.9 C 193.4 34.9 193.7 34.7 194.3 34.7 C 194.9 34.7 195.2 34.7 195.8 34.7 C 196.4 34.7 196.7 34.4 197.3 34.4 C 197.9 34.4 198.2 34.6 198.7 34.7 C 199.3 34.8 199.6 34.8 200.2 34.9 C 200.8 34.9 201.1 34.9 201.7 34.9 C 202.3 34.9 202.6 34.6 203.2 34.6 C 203.7 34.6 204.0 34.9 204.6 35.0 C 205.2 35.1 205.5 35.1 206.1 35.1 C 206.7 35.1 207.0 34.8 207.6 34.7 C 208.2 34.6 208.5 34.7 209.0 34.6 C 209.6 34.5 209.9 34.3 210.5 34.3 C 211.1 34.3 211.4 34.5 212.0 34.6 C 212.6 34.7 212.9 34.7 213.5 34.8 C 214.1 34.8 214.4 34.8 214.9 34.8 C 215.5 34.8 215.8 34.8 216.4 34.8 C 217.0 34.8 217.3 34.5 217.9 34.3 C 218.5 34.1 218.8 34.0 219.4 33.9 C 219.9 33.9 220.2 33.9 220.8 33.9 C 221.4 33.8 221.7 33.5 222.3 33.4 C 222.9 33.3 223.2 33.3 223.8 33.2 C 224.4 33.2 224.7 33.1 225.2 33.1 C 225.8 33.0 226.1 33.1 226.7 33.0 C 227.3 32.9 227.6 32.7 228.2 32.7 C 228.8 32.7 229.1 33.0 229.7 33.0 C 230.3 33.0 230.5 33.0 231.1 32.9 C 231.7 32.9 232.0 32.8 232.6 32.6 C 233.2 32.5 233.5 32.3 234.1 32.2 C 234.7 32.1 235.0 32.1 235.6 32.1 C 236.1 32.1 236.4 32.4 237.0 32.4 C 237.6 32.4 237.9 32.4 238.5 32.3 C 239.1 32.3 239.4 32.0 240.0 32.0 C 240.6 32.0 240.9 32.3 241.4 32.3 C 242.0 32.3 242.3 32.2 242.9 32.0 C 243.5 31.8 243.8 31.5 244.4 31.4 C 245.0 31.2 245.3 31.2 245.9 31.1 C 246.5 31.0 246.7 30.9 247.3 30.9 C 247.9 30.9 248.2 30.9 248.8 30.9 C 249.4 30.9 249.7 30.9 250.3 30.9 C 250.9 30.9 251.2 30.6 251.8 30.6 C 252.3 30.6 252.6 30.8 253.2 30.8 C 253.8 30.8 254.1 30.6 254.7 30.5 C 255.3 30.4 255.6 30.3 256.2 30.2 C 256.8 30.1 257.1 29.9 257.6 29.9 C 258.2 29.9 258.5 29.9 259.1 29.9 C 259.7 29.9 260.0 29.7 260.6 29.7 C 261.2 29.6 261.5 29.7 262.1 29.6 C 262.6 29.5 262.9 29.1 263.5 29.1 C 264.1 29.1 264.4 29.1 265.0 29.2 C 265.6 29.2 265.9 29.6 266.5 29.6 C 267.1 29.6 267.4 29.1 268 29.0 C 268.5 28.9 268.8 28.9 269.4 28.9 C 270.0 28.9 270.3 28.9 270.9 28.9 C 271.5 29.0 271.8 29.0 272.4 29.1 C 273.0 29.2 273.3 29.4 273.8 29.4 C 274.4 29.4 274.7 29.4 275.3 29.4 C 275.9 29.3 276.2 29.3 276.8 29.1 C 277.4 28.9 277.7 28.6 278.3 28.5 C 278.8 28.4 279.1 28.4 279.7 28.4 C 280.3 28.4 280.6 28.6 281.2 28.6 C 281.8 28.6 282.1 28.5 282.7 28.5 C 283.3 28.5 283.6 28.7 284.1 28.9 C 284.7 29.0 285.0 29.4 285.6 29.4 C 286.2 29.4 286.5 29.4 287.1 29.3 C 287.7 29.2 288.0 29.0 288.6 29.0 C 289.2 29.0 289.4 29.1 290.0 29.1 C 290.6 29.1 290.9 28.8 291.5 28.6 C 292.1 28.4 292.4 28.0 293.0 27.9 C 293.6 27.8 293.9 27.9 294.5 27.8 C 295.0 27.8 295.3 27.8 295.9 27.7 C 296.5 27.6 296.8 27.4 297.4 27.3 C 298.0 27.1 298.3 27.2 298.9 27.1 C 299.5 27.0 299.8 27.0 300.3 26.8 C 300.9 26.6 301.2 26.4 301.8 26.2 C 302.4 26.0 302.7 25.6 303.3 25.6 C 303.9 25.6 304.2 26.2 304.8 26.2 C 305.4 26.2 305.6 26.2 306.2 26.2 C 306.8 26.2 307.1 26.7 307.7 26.7 C 308.3 26.7 308.6 26.7 309.2 26.5 C 309.8 26.4 310.1 25.9 310.7 25.9 C 311.2 25.9 311.5 26.4 312.1 26.4 C 312.7 26.4 313.0 26.1 313.6 25.8 C 314.2 25.6 314.5 25.3 315.1 25.3 C 315.7 25.3 316.0 25.9 316.5 26.1 C 317.1 26.2 317.4 26.2 318.0 26.2 C 318.6 26.3 318.9 26.3 319.5 26.3 C 320.1 26.3 320.4 26.3 321.0 26.3 C 321.6 26.2 321.8 26.0 322.4 26.0 C 323.0 25.9 323.3 25.9 323.9 25.9 C 324.5 25.9 324.8 26.1 325.4 26.3 C 326.0 26.4 326.3 26.4 326.9 26.5 C 327.4 26.6 327.7 26.8 328.3 26.8 C 328.9 26.8 329.2 26.8 329.8 26.7 C 330.4 26.5 330.7 26.2 331.3 25.9 C 331.9 25.7 332.2 25.7 332.7 25.5 C 333.3 25.3 333.6 25.0 334.2 24.7 C 334.8 24.5 335.1 24.5 335.7 24.5 C 336.3 24.5 336.6 24.6 337.2 24.6 C 337.7 24.6 338.0 24.2 338.6 23.9 C 339.2 23.7 339.5 23.4 340.1 23.4 C 340.7 23.4 341.0 23.6 341.6 23.6 C 342.2 23.6 342.5 23.5 343.0 23.4 C 343.6 23.3 343.9 23.0 344.5 23.0 C 345.1 23.0 345.4 23.6 346.0 23.6 C 346.6 23.6 346.9 23.5 347.5 23.4 C 348.1 23.3 348.4 23.2 348.9 23.1 C 349.5 23.0 349.8 22.9 350.4 22.9 C 351.0 22.8 351.3 22.8 351.9 22.8 C 352.5 22.8 352.8 22.7 353.4 22.7 C 353.9 22.7 354.2 22.7 354.8 22.7 C 355.4 22.6 355.7 22.5 356.3 22.3 C 356.9 22.1 357.2 21.7 357.8 21.7 C 358.4 21.7 358.7 22.0 359.2 22.0 C 359.8 22.0 360.1 22.0 360.7 21.9 C 361.3 21.9 361.6 21.9 362.2 21.8 C 362.8 21.6 363.1 21.3 363.7 21.2 C 364.3 21.0 364.5 20.9 365.1 20.9 C 365.7 20.9 366.0 21.7 366.6 21.7 C 367.2 21.7 367.5 21.1 368.1 21.1 C 368.7 21.1 369.0 21.1 369.6 21.2 C 370.1 21.3 370.4 21.7 371.0 21.8 C 371.6 21.8 371.9 21.8 372.5 21.8 C 373.1 21.8 373.4 21.4 374.0 21.4 C 374.6 21.4 374.9 21.7 375.4 21.9 C 376.0 22.0 376.3 22.2 376.9 22.2 C 377.5 22.2 377.8 22.1 378.4 21.9 C 379.0 21.7 379.3 21.4 379.9 21.4 C 380.5 21.4 380.7 21.4 381.3 21.4 C 381.9 21.4 382.2 21.4 382.8 21.5 C 383.4 21.5 383.7 21.8 384.3 22.0 C 384.9 22.1 385.2 22.2 385.8 22.2 C 386.3 22.2 386.6 21.6 387.2 21.6 C 387.8 21.6 388.1 21.9 388.7 22.1 C 389.3 22.2 389.6 22.3 390.2 22.5 C 390.8 22.6 391.1 22.8 391.6 22.8 C 392.2 22.8 392.5 22.5 393.1 22.2 C 393.7 21.9 394.0 21.6 394.6 21.4 C 395.2 21.1 395.5 21.3 396.1 20.9 C 396.6 20.6 396.9 20.0 397.5 19.7 C 398.1 19.3 398.4 19.1 399.0 19.1 C 399.6 19.1 399.9 19.1 400.5 19.3 C 401.1 19.4 401.4 20.4 402 20.4 C 402.5 20.4 402.8 20.0 403.4 20.0 C 404.0 20.0 404.3 20.5 404.9 20.5 C 405.5 20.5 405.8 19.5 406.4 19.5 C 407.0 19.5 407.3 19.8 407.8 19.8 C 408.4 19.8 408.7 19.8 409.3 19.5 C 409.9 19.2 410.2 18.4 410.8 18.4 C 411.4 18.4 411.7 18.5 412.3 18.8 C 412.8 19.1 413.1 20.1 413.7 20.1 C 414.3 20.1 414.6 19.1 415.2 18.8 C 415.8 18.4 416.1 18.3 416.7 18.3 C 417.3 18.3 417.6 18.5 418.1 18.6 C 418.7 18.7 419.0 18.7 419.6 18.8 C 420.2 18.8 420.5 18.8 421.1 18.9 C 421.7 19.1 422.0 19.4 422.6 19.6 C 423.2 19.9 423.4 20.3 424.0 20.3 C 424.6 20.3 424.9 20.0 425.5 19.8 C 426.1 19.6 426.4 19.2 427.0 19.2 C 427.6 19.2 427.9 19.4 428.5 19.4 C 429.0 19.4 429.3 19.3 429.9 19.1 C 430.5 19.0 430.8 18.8 431.4 18.6 C 432.0 18.3 432.3 18.3 432.9 18.1 C 433.5 17.9 433.8 17.7 434.3 17.6 C 434.9 17.4 435.2 17.5 435.8 17.4 C 436.4 17.2 436.7 17.0 437.3 16.8 C 437.9 16.5 438.2 16.3 438.8 16.0 C 439.4 15.6 439.6 15.5 440.2 15.0 C 440.8 14.5 441.1 13.9 441.7 13.5 C 442.3 13.1 442.6 13.3 443.2 12.9 C 443.8 12.6 444.1 11.7 444.7 11.7 C 445.2 11.7 445.5 11.7 446.1 11.7 C 446.7 11.7 447.0 10.5 447.6 9.8 C 448.2 9.2 448.5 8.8 449.1 8.5 C 449.7 8.1 450.0 8.2 450.5 8.0 C 451.1 7.8 451.4 7.6 452.0 7.4 C 452.6 7.2 452.9 6.9 453.5 6.9 C 454.1 6.9 454.4 8.2 455.0 8.5 C 455.6 8.8 455.8 8.6 456.4 8.8 C 457.0 8.9 457.3 8.9 457.9 9.2 C 458.5 9.4 458.8 9.8 459.4 10.2 C 460.0 10.5 460.3 11.0 460.9 11.0 C 461.4 11.0 461.7 10.7 462.3 10.5 C 462.9 10.3 463.2 9.9 463.8 9.9 C 464.4 9.9 464.7 10.1 465.3 10.1 C 465.9 10.1 466.2 9.8 466.7 9.7 C 467.3 9.6 467.6 9.4 468.2 9.4 C 468.8 9.4 469.1 9.8 469.7 9.8 C 470.3 9.8 470.6 8.9 471.2 8.6 C 471.7 8.3 472.0 8.2 472.6 8.1 C 473.2 8.0 473.5 8.0 474.1 8.0 C 474.7 8.0 475.0 9.2 475.6 9.2 C 476.2 9.2 476.5 8.5 477.0 8.2 C 477.6 7.8 477.9 7.7 478.5 7.5 C 479.1 7.2 479.4 7.2 480.0 6.8 C 480.6 6.4 480.9 5.8 481.5 5.3 C 482.1 4.9 482.4 4.7 482.9 4.7 C 483.5 4.7 483.8 4.7 484.4 4.7 C 485.0 4.7 485.3 4.7 485.9 4.5 C 486.5 4.4 486.8 3.3 487.4 3.3 C 487.9 3.3 488.2 4.1 488.8 4.5 C 489.4 4.8 489.7 4.6 490.3 5.0 C 490.9 5.4 491.2 6.2 491.8 6.4 C 492.4 6.5 492.7 6.4 493.2 6.5 C 493.8 6.7 494.1 7.1 494.7 7.5 C 495.3 7.9 495.6 8.1 496.2 8.6 C 496.8 9.1 497.1 9.4 497.7 10.0 C 498.3 10.6 498.5 11.5 499.1 11.5 C 499.7 11.5 500.0 10.9 500.6 10.5 C 501.2 10.0 501.5 9.3 502.1 9.3 C 502.7 9.3 503.0 9.7 503.6 10.2 C 504.1 10.8 504.4 11.5 505.0 12.0 C 505.6 12.4 505.9 12.3 506.5 12.5 C 507.1 12.7 507.4 12.8 508.0 12.8 C 508.6 12.8 508.9 11.7 509.4 11.7 C 510.0 11.7 510.3 12.0 510.9 12.3 C 511.5 12.7 511.8 13.1 512.4 13.6 C 513.0 14.0 513.3 14.1 513.9 14.6 C 514.5 15.1 514.7 16.0 515.3 16.0 C 515.9 16.0 516.2 15.9 516.8 15.8 C 517.4 15.6 517.7 15.1 518.3 15.1 C 518.9 15.1 519.2 15.7 519.8 16.0 C 520.3 16.3 520.6 16.2 521.2 16.4 C 521.8 16.7 522.1 17.3 522.7 17.3 C 523.3 17.3 523.6 17.3 524.2 17.1 C 524.8 16.8 525.1 16.3 525.6 16.1 C 526.2 15.8 526.5 15.7 527.1 15.7 C 527.7 15.7 528.0 17.0 528.6 17.1 C 529.2 17.3 529.5 17.1 530.1 17.3 C 530.6 17.4 530.9 17.9 531.5 18.1 C 532.1 18.4 532.4 18.7 533.0 18.7 C 533.6 18.7 533.9 17.4 534.5 16.8 C 535.1 16.2 536 15.7 536 15.7 L 536 40 L 0 40" ></path><path fill="none" d="M 0 36.0 C 0 36.0 0.8 36.1 1.4 36.1 C 2.0 36.1 2.3 36.2 2.9 36.2 C 3.5 36.3 3.8 36.3 4.4 36.3 C 5.0 36.3 5.3 36.4 5.8 36.4 C 6.4 36.4 6.7 36.4 7.3 36.4 C 7.9 36.4 8.2 36.4 8.8 36.4 C 9.4 36.4 9.7 36.4 10.3 36.5 C 10.8 36.5 11.1 36.6 11.7 36.6 C 12.3 36.6 12.6 36.6 13.2 36.5 C 13.8 36.4 14.1 36.3 14.7 36.2 C 15.3 36.1 15.6 35.9 16.1 35.9 C 16.7 35.9 17.0 36.0 17.6 36.0 C 18.2 36.0 18.5 36.0 19.1 36.0 C 19.7 36.0 20.0 35.9 20.6 35.9 C 21.2 35.9 21.4 35.9 22.0 35.9 C 22.6 35.9 22.9 35.8 23.5 35.7 C 24.1 35.7 24.4 35.7 25.0 35.6 C 25.6 35.6 25.9 35.6 26.5 35.6 C 27.0 35.5 27.3 35.5 27.9 35.5 C 28.5 35.5 28.8 35.5 29.4 35.6 C 30.0 35.6 30.3 35.6 30.9 35.6 C 31.5 35.6 31.8 35.5 32.3 35.5 C 32.9 35.4 33.2 35.2 33.8 35.2 C 34.4 35.2 34.7 35.3 35.3 35.3 C 35.9 35.3 36.2 35.3 36.8 35.2 C 37.4 35.2 37.6 35.1 38.2 35.0 C 38.8 35.0 39.1 35.0 39.7 34.9 C 40.3 34.8 40.6 34.7 41.2 34.7 C 41.8 34.7 42.1 34.7 42.7 34.7 C 43.2 34.8 43.5 34.8 44.1 34.8 C 44.7 34.9 45.0 34.9 45.6 35.0 C 46.2 35.1 46.5 35.2 47.1 35.2 C 47.7 35.2 48.0 35.1 48.5 35.0 C 49.1 34.9 49.4 34.8 50.0 34.7 C 50.6 34.6 50.9 34.6 51.5 34.6 C 52.1 34.6 52.4 34.8 53.0 34.9 C 53.6 35.0 53.8 35.0 54.4 35.0 C 55.0 35.0 55.3 35.0 55.9 35.0 C 56.5 35.0 56.8 35.0 57.4 35.0 C 58.0 35.0 58.3 34.9 58.9 34.9 C 59.4 34.9 59.7 35.0 60.3 35.0 C 60.9 35.0 61.2 34.9 61.8 34.9 C 62.4 34.8 62.7 34.9 63.3 34.8 C 63.9 34.8 64.2 34.7 64.7 34.7 C 65.3 34.6 65.6 34.5 66.2 34.5 C 66.8 34.5 67.1 34.5 67.7 34.5 C 68.3 34.6 68.6 34.6 69.2 34.6 C 69.7 34.6 70.0 34.7 70.6 34.7 C 71.2 34.7 71.5 34.6 72.1 34.5 C 72.7 34.4 73.0 34.3 73.6 34.2 C 74.2 34.1 74.5 34.1 75.0 34.0 C 75.6 33.9 75.9 33.9 76.5 33.8 C 77.1 33.7 77.4 33.7 78.0 33.6 C 78.6 33.5 78.9 33.5 79.5 33.3 C 80.1 33.2 80.4 33.1 80.9 33.1 C 81.5 33.1 81.8 33.2 82.4 33.2 C 83.0 33.2 83.3 33.0 83.9 33.0 C 84.5 33.0 84.8 33.1 85.4 33.1 C 85.9 33.1 86.2 33.0 86.8 32.9 C 87.4 32.8 87.7 32.7 88.3 32.6 C 88.9 32.4 89.2 32.3 89.8 32.2 C 90.4 32.1 90.7 32.1 91.2 32.1 C 91.8 32.1 92.1 32.1 92.7 32.3 C 93.3 32.4 93.6 32.5 94.2 32.6 C 94.8 32.8 95.1 33.0 95.7 33.0 C 96.3 33.0 96.5 32.9 97.1 32.8 C 97.7 32.7 98.0 32.6 98.6 32.5 C 99.2 32.4 99.5 32.3 100.1 32.3 C 100.7 32.3 101.0 32.3 101.6 32.3 C 102.1 32.3 102.4 32.3 103.0 32.2 C 103.6 32.0 103.9 31.8 104.5 31.6 C 105.1 31.4 105.4 31.5 106.0 31.3 C 106.6 31.1 106.9 30.9 107.4 30.8 C 108.0 30.7 108.3 30.8 108.9 30.6 C 109.5 30.4 109.8 30.1 110.4 30.0 C 111.0 29.8 111.3 29.7 111.9 29.7 C 112.5 29.7 112.7 29.7 113.3 29.9 C 113.9 30.1 114.2 30.8 114.8 30.8 C 115.4 30.8 115.7 30.8 116.3 30.8 C 116.9 30.8 117.2 30.4 117.8 30.2 C 118.3 30.0 118.6 30.1 119.2 29.9 C 119.8 29.8 120.1 29.5 120.7 29.5 C 121.3 29.5 121.6 29.8 122.2 29.8 C 122.8 29.8 123.1 29.2 123.6 29.2 C 124.2 29.2 124.5 29.2 125.1 29.3 C 125.7 29.4 126.0 30.0 126.6 30.3 C 127.2 30.5 127.5 30.3 128.1 30.7 C 128.6 31.1 128.9 31.8 129.5 32.1 C 130.1 32.5 130.4 32.5 131.0 32.6 C 131.6 32.8 131.9 32.8 132.5 32.8 C 133.1 32.8 133.4 32.8 134 32.8 C 134.5 32.8 134.8 32.9 135.4 33.0 C 136.0 33.1 136.3 33.1 136.9 33.1 C 137.5 33.1 137.8 33.1 138.4 33.1 C 139.0 33.0 139.3 33.0 139.8 32.9 C 140.4 32.9 140.7 32.9 141.3 32.8 C 141.9 32.6 142.2 32.4 142.8 32.2 C 143.4 32.0 143.7 31.9 144.3 31.8 C 144.8 31.7 145.1 31.5 145.7 31.5 C 146.3 31.5 146.6 31.6 147.2 31.6 C 147.8 31.6 148.1 31.1 148.7 30.8 C 149.3 30.6 149.6 30.6 150.1 30.4 C 150.7 30.2 151.0 30.1 151.6 29.9 C 152.2 29.8 152.5 29.7 153.1 29.7 C 153.7 29.7 154.0 30.0 154.6 30.0 C 155.2 30.0 155.4 29.8 156.0 29.8 C 156.6 29.8 156.9 29.8 157.5 29.8 C 158.1 29.8 158.4 30.0 159.0 30.1 C 159.6 30.2 159.9 30.2 160.5 30.2 C 161.0 30.3 161.3 30.4 161.9 30.5 C 162.5 30.6 162.8 30.6 163.4 30.6 C 164.0 30.6 164.3 30.3 164.9 30.3 C 165.5 30.3 165.8 30.3 166.3 30.5 C 166.9 30.6 167.2 31.0 167.8 31.1 C 168.4 31.2 168.7 31.2 169.3 31.2 C 169.9 31.2 170.2 31.2 170.8 31.2 C 171.4 31.1 171.6 30.3 172.2 30.3 C 172.8 30.3 173.1 30.4 173.7 30.4 C 174.3 30.4 174.6 30.4 175.2 30.4 C 175.8 30.5 176.1 30.6 176.7 30.8 C 177.2 31.0 177.5 31.1 178.1 31.4 C 178.7 31.7 179.0 32.1 179.6 32.3 C 180.2 32.6 180.5 32.4 181.1 32.7 C 181.7 32.9 182.0 33.3 182.5 33.7 C 183.1 34.1 183.4 34.7 184.0 34.7 C 184.6 34.7 184.9 34.0 185.5 34.0 C 186.1 34.0 186.4 34.4 187.0 34.4 C 187.6 34.4 187.8 34.3 188.4 34.2 C 189.0 34.1 189.3 34.0 189.9 34.0 C 190.5 34.0 190.8 34.4 191.4 34.5 C 192.0 34.7 192.3 34.9 192.9 34.9 C 193.4 34.9 193.7 34.7 194.3 34.7 C 194.9 34.7 195.2 34.7 195.8 34.7 C 196.4 34.7 196.7 34.4 197.3 34.4 C 197.9 34.4 198.2 34.6 198.7 34.7 C 199.3 34.8 199.6 34.8 200.2 34.9 C 200.8 34.9 201.1 34.9 201.7 34.9 C 202.3 34.9 202.6 34.6 203.2 34.6 C 203.7 34.6 204.0 34.9 204.6 35.0 C 205.2 35.1 205.5 35.1 206.1 35.1 C 206.7 35.1 207.0 34.8 207.6 34.7 C 208.2 34.6 208.5 34.7 209.0 34.6 C 209.6 34.5 209.9 34.3 210.5 34.3 C 211.1 34.3 211.4 34.5 212.0 34.6 C 212.6 34.7 212.9 34.7 213.5 34.8 C 214.1 34.8 214.4 34.8 214.9 34.8 C 215.5 34.8 215.8 34.8 216.4 34.8 C 217.0 34.8 217.3 34.5 217.9 34.3 C 218.5 34.1 218.8 34.0 219.4 33.9 C 219.9 33.9 220.2 33.9 220.8 33.9 C 221.4 33.8 221.7 33.5 222.3 33.4 C 222.9 33.3 223.2 33.3 223.8 33.2 C 224.4 33.2 224.7 33.1 225.2 33.1 C 225.8 33.0 226.1 33.1 226.7 33.0 C 227.3 32.9 227.6 32.7 228.2 32.7 C 228.8 32.7 229.1 33.0 229.7 33.0 C 230.3 33.0 230.5 33.0 231.1 32.9 C 231.7 32.9 232.0 32.8 232.6 32.6 C 233.2 32.5 233.5 32.3 234.1 32.2 C 234.7 32.1 235.0 32.1 235.6 32.1 C 236.1 32.1 236.4 32.4 237.0 32.4 C 237.6 32.4 237.9 32.4 238.5 32.3 C 239.1 32.3 239.4 32.0 240.0 32.0 C 240.6 32.0 240.9 32.3 241.4 32.3 C 242.0 32.3 242.3 32.2 242.9 32.0 C 243.5 31.8 243.8 31.5 244.4 31.4 C 245.0 31.2 245.3 31.2 245.9 31.1 C 246.5 31.0 246.7 30.9 247.3 30.9 C 247.9 30.9 248.2 30.9 248.8 30.9 C 249.4 30.9 249.7 30.9 250.3 30.9 C 250.9 30.9 251.2 30.6 251.8 30.6 C 252.3 30.6 252.6 30.8 253.2 30.8 C 253.8 30.8 254.1 30.6 254.7 30.5 C 255.3 30.4 255.6 30.3 256.2 30.2 C 256.8 30.1 257.1 29.9 257.6 29.9 C 258.2 29.9 258.5 29.9 259.1 29.9 C 259.7 29.9 260.0 29.7 260.6 29.7 C 261.2 29.6 261.5 29.7 262.1 29.6 C 262.6 29.5 262.9 29.1 263.5 29.1 C 264.1 29.1 264.4 29.1 265.0 29.2 C 265.6 29.2 265.9 29.6 266.5 29.6 C 267.1 29.6 267.4 29.1 268 29.0 C 268.5 28.9 268.8 28.9 269.4 28.9 C 270.0 28.9 270.3 28.9 270.9 28.9 C 271.5 29.0 271.8 29.0 272.4 29.1 C 273.0 29.2 273.3 29.4 273.8 29.4 C 274.4 29.4 274.7 29.4 275.3 29.4 C 275.9 29.3 276.2 29.3 276.8 29.1 C 277.4 28.9 277.7 28.6 278.3 28.5 C 278.8 28.4 279.1 28.4 279.7 28.4 C 280.3 28.4 280.6 28.6 281.2 28.6 C 281.8 28.6 282.1 28.5 282.7 28.5 C 283.3 28.5 283.6 28.7 284.1 28.9 C 284.7 29.0 285.0 29.4 285.6 29.4 C 286.2 29.4 286.5 29.4 287.1 29.3 C 287.7 29.2 288.0 29.0 288.6 29.0 C 289.2 29.0 289.4 29.1 290.0 29.1 C 290.6 29.1 290.9 28.8 291.5 28.6 C 292.1 28.4 292.4 28.0 293.0 27.9 C 293.6 27.8 293.9 27.9 294.5 27.8 C 295.0 27.8 295.3 27.8 295.9 27.7 C 296.5 27.6 296.8 27.4 297.4 27.3 C 298.0 27.1 298.3 27.2 298.9 27.1 C 299.5 27.0 299.8 27.0 300.3 26.8 C 300.9 26.6 301.2 26.4 301.8 26.2 C 302.4 26.0 302.7 25.6 303.3 25.6 C 303.9 25.6 304.2 26.2 304.8 26.2 C 305.4 26.2 305.6 26.2 306.2 26.2 C 306.8 26.2 307.1 26.7 307.7 26.7 C 308.3 26.7 308.6 26.7 309.2 26.5 C 309.8 26.4 310.1 25.9 310.7 25.9 C 311.2 25.9 311.5 26.4 312.1 26.4 C 312.7 26.4 313.0 26.1 313.6 25.8 C 314.2 25.6 314.5 25.3 315.1 25.3 C 315.7 25.3 316.0 25.9 316.5 26.1 C 317.1 26.2 317.4 26.2 318.0 26.2 C 318.6 26.3 318.9 26.3 319.5 26.3 C 320.1 26.3 320.4 26.3 321.0 26.3 C 321.6 26.2 321.8 26.0 322.4 26.0 C 323.0 25.9 323.3 25.9 323.9 25.9 C 324.5 25.9 324.8 26.1 325.4 26.3 C 326.0 26.4 326.3 26.4 326.9 26.5 C 327.4 26.6 327.7 26.8 328.3 26.8 C 328.9 26.8 329.2 26.8 329.8 26.7 C 330.4 26.5 330.7 26.2 331.3 25.9 C 331.9 25.7 332.2 25.7 332.7 25.5 C 333.3 25.3 333.6 25.0 334.2 24.7 C 334.8 24.5 335.1 24.5 335.7 24.5 C 336.3 24.5 336.6 24.6 337.2 24.6 C 337.7 24.6 338.0 24.2 338.6 23.9 C 339.2 23.7 339.5 23.4 340.1 23.4 C 340.7 23.4 341.0 23.6 341.6 23.6 C 342.2 23.6 342.5 23.5 343.0 23.4 C 343.6 23.3 343.9 23.0 344.5 23.0 C 345.1 23.0 345.4 23.6 346.0 23.6 C 346.6 23.6 346.9 23.5 347.5 23.4 C 348.1 23.3 348.4 23.2 348.9 23.1 C 349.5 23.0 349.8 22.9 350.4 22.9 C 351.0 22.8 351.3 22.8 351.9 22.8 C 352.5 22.8 352.8 22.7 353.4 22.7 C 353.9 22.7 354.2 22.7 354.8 22.7 C 355.4 22.6 355.7 22.5 356.3 22.3 C 356.9 22.1 357.2 21.7 357.8 21.7 C 358.4 21.7 358.7 22.0 359.2 22.0 C 359.8 22.0 360.1 22.0 360.7 21.9 C 361.3 21.9 361.6 21.9 362.2 21.8 C 362.8 21.6 363.1 21.3 363.7 21.2 C 364.3 21.0 364.5 20.9 365.1 20.9 C 365.7 20.9 366.0 21.7 366.6 21.7 C 367.2 21.7 367.5 21.1 368.1 21.1 C 368.7 21.1 369.0 21.1 369.6 21.2 C 370.1 21.3 370.4 21.7 371.0 21.8 C 371.6 21.8 371.9 21.8 372.5 21.8 C 373.1 21.8 373.4 21.4 374.0 21.4 C 374.6 21.4 374.9 21.7 375.4 21.9 C 376.0 22.0 376.3 22.2 376.9 22.2 C 377.5 22.2 377.8 22.1 378.4 21.9 C 379.0 21.7 379.3 21.4 379.9 21.4 C 380.5 21.4 380.7 21.4 381.3 21.4 C 381.9 21.4 382.2 21.4 382.8 21.5 C 383.4 21.5 383.7 21.8 384.3 22.0 C 384.9 22.1 385.2 22.2 385.8 22.2 C 386.3 22.2 386.6 21.6 387.2 21.6 C 387.8 21.6 388.1 21.9 388.7 22.1 C 389.3 22.2 389.6 22.3 390.2 22.5 C 390.8 22.6 391.1 22.8 391.6 22.8 C 392.2 22.8 392.5 22.5 393.1 22.2 C 393.7 21.9 394.0 21.6 394.6 21.4 C 395.2 21.1 395.5 21.3 396.1 20.9 C 396.6 20.6 396.9 20.0 397.5 19.7 C 398.1 19.3 398.4 19.1 399.0 19.1 C 399.6 19.1 399.9 19.1 400.5 19.3 C 401.1 19.4 401.4 20.4 402 20.4 C 402.5 20.4 402.8 20.0 403.4 20.0 C 404.0 20.0 404.3 20.5 404.9 20.5 C 405.5 20.5 405.8 19.5 406.4 19.5 C 407.0 19.5 407.3 19.8 407.8 19.8 C 408.4 19.8 408.7 19.8 409.3 19.5 C 409.9 19.2 410.2 18.4 410.8 18.4 C 411.4 18.4 411.7 18.5 412.3 18.8 C 412.8 19.1 413.1 20.1 413.7 20.1 C 414.3 20.1 414.6 19.1 415.2 18.8 C 415.8 18.4 416.1 18.3 416.7 18.3 C 417.3 18.3 417.6 18.5 418.1 18.6 C 418.7 18.7 419.0 18.7 419.6 18.8 C 420.2 18.8 420.5 18.8 421.1 18.9 C 421.7 19.1 422.0 19.4 422.6 19.6 C 423.2 19.9 423.4 20.3 424.0 20.3 C 424.6 20.3 424.9 20.0 425.5 19.8 C 426.1 19.6 426.4 19.2 427.0 19.2 C 427.6 19.2 427.9 19.4 428.5 19.4 C 429.0 19.4 429.3 19.3 429.9 19.1 C 430.5 19.0 430.8 18.8 431.4 18.6 C 432.0 18.3 432.3 18.3 432.9 18.1 C 433.5 17.9 433.8 17.7 434.3 17.6 C 434.9 17.4 435.2 17.5 435.8 17.4 C 436.4 17.2 436.7 17.0 437.3 16.8 C 437.9 16.5 438.2 16.3 438.8 16.0 C 439.4 15.6 439.6 15.5 440.2 15.0 C 440.8 14.5 441.1 13.9 441.7 13.5 C 442.3 13.1 442.6 13.3 443.2 12.9 C 443.8 12.6 444.1 11.7 444.7 11.7 C 445.2 11.7 445.5 11.7 446.1 11.7 C 446.7 11.7 447.0 10.5 447.6 9.8 C 448.2 9.2 448.5 8.8 449.1 8.5 C 449.7 8.1 450.0 8.2 450.5 8.0 C 451.1 7.8 451.4 7.6 452.0 7.4 C 452.6 7.2 452.9 6.9 453.5 6.9 C 454.1 6.9 454.4 8.2 455.0 8.5 C 455.6 8.8 455.8 8.6 456.4 8.8 C 457.0 8.9 457.3 8.9 457.9 9.2 C 458.5 9.4 458.8 9.8 459.4 10.2 C 460.0 10.5 460.3 11.0 460.9 11.0 C 461.4 11.0 461.7 10.7 462.3 10.5 C 462.9 10.3 463.2 9.9 463.8 9.9 C 464.4 9.9 464.7 10.1 465.3 10.1 C 465.9 10.1 466.2 9.8 466.7 9.7 C 467.3 9.6 467.6 9.4 468.2 9.4 C 468.8 9.4 469.1 9.8 469.7 9.8 C 470.3 9.8 470.6 8.9 471.2 8.6 C 471.7 8.3 472.0 8.2 472.6 8.1 C 473.2 8.0 473.5 8.0 474.1 8.0 C 474.7 8.0 475.0 9.2 475.6 9.2 C 476.2 9.2 476.5 8.5 477.0 8.2 C 477.6 7.8 477.9 7.7 478.5 7.5 C 479.1 7.2 479.4 7.2 480.0 6.8 C 480.6 6.4 480.9 5.8 481.5 5.3 C 482.1 4.9 482.4 4.7 482.9 4.7 C 483.5 4.7 483.8 4.7 484.4 4.7 C 485.0 4.7 485.3 4.7 485.9 4.5 C 486.5 4.4 486.8 3.3 487.4 3.3 C 487.9 3.3 488.2 4.1 488.8 4.5 C 489.4 4.8 489.7 4.6 490.3 5.0 C 490.9 5.4 491.2 6.2 491.8 6.4 C 492.4 6.5 492.7 6.4 493.2 6.5 C 493.8 6.7 494.1 7.1 494.7 7.5 C 495.3 7.9 495.6 8.1 496.2 8.6 C 496.8 9.1 497.1 9.4 497.7 10.0 C 498.3 10.6 498.5 11.5 499.1 11.5 C 499.7 11.5 500.0 10.9 500.6 10.5 C 501.2 10.0 501.5 9.3 502.1 9.3 C 502.7 9.3 503.0 9.7 503.6 10.2 C 504.1 10.8 504.4 11.5 505.0 12.0 C 505.6 12.4 505.9 12.3 506.5 12.5 C 507.1 12.7 507.4 12.8 508.0 12.8 C 508.6 12.8 508.9 11.7 509.4 11.7 C 510.0 11.7 510.3 12.0 510.9 12.3 C 511.5 12.7 511.8 13.1 512.4 13.6 C 513.0 14.0 513.3 14.1 513.9 14.6 C 514.5 15.1 514.7 16.0 515.3 16.0 C 515.9 16.0 516.2 15.9 516.8 15.8 C 517.4 15.6 517.7 15.1 518.3 15.1 C 518.9 15.1 519.2 15.7 519.8 16.0 C 520.3 16.3 520.6 16.2 521.2 16.4 C 521.8 16.7 522.1 17.3 522.7 17.3 C 523.3 17.3 523.6 17.3 524.2 17.1 C 524.8 16.8 525.1 16.3 525.6 16.1 C 526.2 15.8 526.5 15.7 527.1 15.7 C 527.7 15.7 528.0 17.0 528.6 17.1 C 529.2 17.3 529.5 17.1 530.1 17.3 C 530.6 17.4 530.9 17.9 531.5 18.1 C 532.1 18.4 532.4 18.7 533.0 18.7 C 533.6 18.7 533.9 17.4 534.5 16.8 C 535.1 16.2 536 15.7 536 15.7" stroke="#4572A7" stroke-width="1"  stroke-linejoin="round" stroke-linecap="round"></path></g><g class="highcharts-markers" visibility="visible"  transform="translate(24,331) scale(1 1)" clip-path="url(#highcharts-3)"></g></g><g class="highcharts-navigator" ><rect fill="rgb(128,179,236)" fill-opacity="0.3" style="cursor:ew-resize ;" x="541" y="331" width="19" height="40"></rect><path fill="none" stroke="#b2b1b6" stroke-width="1" d="M 10 331.5 L 540.5 331.5 540.5 385.5 L 559.5 385.5 L 559.5 331.5 574 331.5 M 541.5 331.5 L 559.5 331.5"></path></g><g class="highcharts-navigator-handle-right" style="cursor:ew-resize;"  transform="translate(560,343)"><rect x="-4.5" y="0.5" width="8" height="15" strokeWidth="1" fill="#ebe7e8" stroke="#b2b1b6" stroke-width="1"></rect><path fill="#ebe7e8" d="M -1.5 4 L -1.5 12 M 0.5 4 L 0.5 12" stroke="#b2b1b6" stroke-width="1"></path></g><text x="292" text-anchor="middle" class="highcharts-title"  style="color:black;font-size:16px;font-weight:bold;fill:black;width:520px;" y="22"><tspan>AAPL Stock Price</tspan></text><g class="highcharts-navigator-handle-left" style="cursor:ew-resize;"  transform="translate(541,343)"><rect x="-4.5" y="0.5" width="8" height="15" strokeWidth="1" fill="#ebe7e8" stroke="#b2b1b6" stroke-width="1"></rect><path fill="#ebe7e8" d="M -1.5 4 L -1.5 12 M 0.5 4 L 0.5 12" stroke="#b2b1b6" stroke-width="1"></path></g><g class="highcharts-axis-labels highcharts-xaxis-labels" ><text x="82.6" style="color:#6e6e70;cursor:default;font-size:11px;fill:#6e6e70;width:71px;text-overflow:clip;" text-anchor="middle" transform="translate(0,0)" y="304" opacity="1"><tspan>18. Feb</tspan></text><text x="164.0" style="color:#6e6e70;cursor:default;font-size:11px;fill:#6e6e70;width:71px;text-overflow:clip;" text-anchor="middle" transform="translate(0,0)" y="304" opacity="1"><tspan>4. Mar</tspan></text><text x="245.4" style="color:#6e6e70;cursor:default;font-size:11px;fill:#6e6e70;width:71px;text-overflow:clip;" text-anchor="middle" transform="translate(0,0)" y="304" opacity="1"><tspan>18. Mar</tspan></text><text x="326.8" style="color:#6e6e70;cursor:default;font-size:11px;fill:#6e6e70;width:71px;text-overflow:clip;" text-anchor="middle" transform="translate(0,0)" y="304" opacity="1"><tspan>1. Apr</tspan></text><text x="408.2" style="color:#6e6e70;cursor:default;font-size:11px;fill:#6e6e70;width:71px;text-overflow:clip;" text-anchor="middle" transform="translate(0,0)" y="304" opacity="1"><tspan>15. Apr</tspan></text><text x="489.6" style="color:#6e6e70;cursor:default;font-size:11px;fill:#6e6e70;width:71px;text-overflow:clip;" text-anchor="middle" transform="translate(0,0)" y="304" opacity="1"><tspan>29. Apr</tspan></text><text x="574" style="color:#6e6e70;cursor:default;font-size:11px;fill:#6e6e70;width:71px;text-overflow:clip;" text-anchor="end" transform="translate(0,0)" y="304" opacity="1"><tspan>13. May</tspan></text></g><g class="highcharts-axis-labels highcharts-xaxis-labels" ><text x="151.7" style="color:#888;cursor:default;font-size:11px;fill:#888;width:178px;text-overflow:clip;" text-anchor="start" transform="translate(0,0)" y="367" opacity="1">2008</text><text x="305.4" style="color:#888;cursor:default;font-size:11px;fill:#888;width:178px;text-overflow:clip;" text-anchor="start" transform="translate(0,0)" y="367" opacity="1">2010</text><text x="459.0" style="color:#888;cursor:default;font-size:11px;fill:#888;width:178px;text-overflow:clip;" text-anchor="start" transform="translate(0,0)" y="367" opacity="1">2012</text></g><g class="highcharts-axis-labels highcharts-yaxis-labels" ><text x="574" style="color:#6e6e70;cursor:default;font-size:11px;fill:#6e6e70;width:183px;text-overflow:clip;" text-anchor="end" transform="translate(0,0)" y="283" opacity="1">375</text><text x="574" style="color:#6e6e70;cursor:default;font-size:11px;fill:#6e6e70;width:183px;text-overflow:clip;" text-anchor="end" transform="translate(0,0)" y="242" opacity="1">400</text><text x="574" style="color:#6e6e70;cursor:default;font-size:11px;fill:#6e6e70;width:183px;text-overflow:clip;" text-anchor="end" transform="translate(0,0)" y="201" opacity="1">425</text><text x="574" style="color:#6e6e70;cursor:default;font-size:11px;fill:#6e6e70;width:183px;text-overflow:clip;" text-anchor="end" transform="translate(0,0)" y="159" opacity="1">450</text><text x="574" style="color:#6e6e70;cursor:default;font-size:11px;fill:#6e6e70;width:183px;text-overflow:clip;" text-anchor="end" transform="translate(0,0)" y="118" opacity="1">475</text><text x="0" style="color:#6e6e70;cursor:default;font-size:11px;fill:#6e6e70;width:183px;text-overflow:clip;" text-anchor="end" transform="translate(0,0)" y="-9999">500</text></g><g class="highcharts-axis-labels highcharts-yaxis-labels" ></g><g class="highcharts-tooltip"  style="cursor:default;padding:0;white-space:nowrap;" transform="translate(0,-9999)"><path fill="none" d="M 3 0 L 13 0 C 16 0 16 0 16 3 L 16 13 C 16 16 16 16 13 16 L 3 16 C 0 16 0 16 0 13 L 0 3 C 0 0 0 0 3 0"  stroke="black" stroke-opacity="0.0" stroke-width="5" transform="translate(1, 1)"></path><path fill="none" d="M 3 0 L 13 0 C 16 0 16 0 16 3 L 16 13 C 16 16 16 16 13 16 L 3 16 C 0 16 0 16 0 13 L 0 3 C 0 0 0 0 3 0"  stroke="black" stroke-opacity="0.0" stroke-width="3" transform="translate(1, 1)"></path><path fill="none" d="M 3 0 L 13 0 C 16 0 16 0 16 3 L 16 13 C 16 16 16 16 13 16 L 3 16 C 0 16 0 16 0 13 L 0 3 C 0 0 0 0 3 0"  stroke="black" stroke-opacity="0.1" stroke-width="1" transform="translate(1, 1)"></path><path fill="rgb(249, 249, 249)" fill-opacity=" .85" d="M 3 0 L 13 0 C 16 0 16 0 16 3 L 16 13 C 16 16 16 16 13 16 L 3 16 C 0 16 0 16 0 13 L 0 3 C 0 0 0 0 3 0"></path><text x="8"  style="font-size:12px;color:#333333;fill:#333333;" transform="translate(0,20)"></text></g></svg>