<svg version="1.1" style="font-family: signika, serif; font-size: 12px; background-image: url(http://www.highcharts.com/samples/graphics/sand.png); background-attachment: initial; background-origin: initial; background-clip: initial; background-color: initial; background-position: initial initial; background-repeat: initial initial; " xmlns="http://www.w3.org/2000/svg" width="584" height="400" viewBox="0 0 584 400" xmlns:xlink="http://www.w3.org/1999/xlink"><style type="text/css"><![CDATA[@import url(http://fonts.googleapis.com/css?family=Signika:700);]]></style><desc>Created with Highstock 2.1.4</desc><defs><clipPath id="highcharts-1"><rect x="0" y="0" width="539" height="206"></rect></clipPath><clipPath id="highcharts-3"><rect x="-99" y="-79" width="639" height="400"></rect></clipPath><clipPath id="highcharts-4"><rect x="0" y="0" width="540" height="40"></rect></clipPath></defs><g class="highcharts-scrollbar" transform="translate(10,372)"><rect x="0" y="-0.5" fill="#eeeeee" stroke="#C0C0C8" stroke-width="1" rx="0" ry="0" height="14" width="540"></rect><rect y="-0.5" height="14" fill="#bfc8d1" stroke="#bfc8d1" stroke-width="1" rx="0" ry="0" x="508.5" width="17"></rect><path fill="none" stroke="#666" stroke-width="1" visibility="visible" d="M 513.5 3.5 L 513.5 9.3 M 516.5 3.5 L 516.5 9.3 M 519.5 3.5 L 519.5 9.3"></path><g><rect x="-0.5" y="-0.5" width="14" height="14" strokeWidth="1" stroke="#bbb" stroke-width="1" fill="#ebe7e8"></rect><path fill="#666" d="M 8 4 L 8 10 5 7"></path></g><g transform="translate(526,0)"><rect x="-0.5" y="-0.5" width="14" height="14" strokeWidth="1" stroke="#bbb" stroke-width="1" fill="#ebe7e8"></rect><path fill="#666" d="M 6 4 L 6 10 9 7"></path></g></g><g class="highcharts-range-selector-buttons"><text x="10" y="59" style="color:#666;fill:#666;">Zoom</text><g class="highcharts-button"  states="[object Object]" style="cursor:pointer;text-align:center;" transform="translate(46,44)"><rect x="0.5" y="0.5" width="32" height="22" strokeWidth="1" fill="white" stroke="#C0C0C8" stroke-width="1" rx="0" ry="0"></rect><text x="7.5"  style="font-weight:normal;color:#444;fill:#444;" transform="translate(0,14)">1m</text></g><g class="highcharts-button"  states="[object Object]" style="cursor:pointer;text-align:center;" transform="translate(83,44)"><rect x="0.5" y="0.5" width="32" height="22" strokeWidth="1" fill="#D0D0D8" stroke="#68A" stroke-width="1" rx="0" ry="0"></rect><text x="7.5"  style="font-weight:bold;color:black;fill:black;" transform="translate(0,14)">3m</text></g><g class="highcharts-button"  states="[object Object]" style="cursor:pointer;text-align:center;" transform="translate(120,44)"><rect x="0.5" y="0.5" width="32" height="22" strokeWidth="1" fill="white" stroke="#C0C0C8" stroke-width="1" rx="0" ry="0"></rect><text x="7.5"  style="font-weight:normal;color:#444;fill:#444;" transform="translate(0,14)">6m</text></g><g class="highcharts-button"  states="[object Object]" style="cursor:pointer;text-align:center;" transform="translate(157,44)"><rect x="0.5" y="0.5" width="32" height="22" strokeWidth="1" fill="white" stroke="#C0C0C8" stroke-width="1" rx="0" ry="0"></rect><text x="4"  style="font-weight:normal;color:#444;fill:#444;" transform="translate(0,14)">YTD</text></g><g class="highcharts-button"  states="[object Object]" style="cursor:pointer;text-align:center;" transform="translate(194,44)"><rect x="0.5" y="0.5" width="32" height="22" strokeWidth="1" fill="white" stroke="#C0C0C8" stroke-width="1" rx="0" ry="0"></rect><text x="9.5"  style="font-weight:normal;color:#444;fill:#444;" transform="translate(0,14)">1y</text></g><g class="highcharts-button"  states="[object Object]" style="cursor:pointer;text-align:center;" transform="translate(231,44)"><rect x="0.5" y="0.5" width="32" height="22" strokeWidth="1" fill="white" stroke="#C0C0C8" stroke-width="1" rx="0" ry="0"></rect><text x="10"  style="font-weight:normal;color:#444;fill:#444;" transform="translate(0,14)">All</text></g></g><g class="highcharts-input-group" transform="translate(316,44)" visibility="visible"><g style="fill:#666;" transform="translate(0,0)"><text x="2"  style="font-size:12px;font-family:signika, serif;color:#666;fill:#666;" transform="translate(0,14)">From</text></g><g style="text-align:center;" transform="translate(36,0)"><rect x="0.5" y="0.5" width="94" height="21" strokeWidth="1" fill="none" stroke="silver" stroke-width="1"></rect><text x="13.5"  style="font-size:12px;font-family:signika, serif;color:#444;fill:#444;" transform="translate(0,14)"><tspan>Feb 9, 2013</tspan></text></g><g style="fill:#666;" transform="translate(140,0)"><text x="2"  style="font-size:12px;font-family:signika, serif;color:#666;fill:#666;" transform="translate(0,14)">To</text></g><g style="text-align:center;" transform="translate(164,0)"><rect x="0.5" y="0.5" width="94" height="21" strokeWidth="1" fill="none" stroke="silver" stroke-width="1"></rect><text x="9.5"  style="font-size:12px;font-family:signika, serif;color:#444;fill:#444;" transform="translate(0,14)"><tspan>May 10, 2013</tspan></text></g></g><g class="highcharts-grid" ></g><g class="highcharts-grid" ><path fill="none" d="M 142.5 331 L 142.5 371" stroke="#D0D0D8" stroke-width="1"  opacity="1"></path><path fill="none" d="M 289.5 331 L 289.5 371" stroke="#D0D0D8" stroke-width="1"  opacity="1"></path><path fill="none" d="M 436.5 331 L 436.5 371" stroke="#D0D0D8" stroke-width="1"  opacity="1"></path></g><g class="highcharts-grid" ><path fill="none" d="M 10 203.5 L 550 203.5" stroke="#D8D8D8" stroke-width="1"  opacity="1"></path><path fill="none" d="M 10 161.5 L 550 161.5" stroke="#D8D8D8" stroke-width="1"  opacity="1"></path><path fill="none" d="M 10 120.5 L 550 120.5" stroke="#D8D8D8" stroke-width="1"  opacity="1"></path><path fill="none" d="M 10 78.5 L 550 78.5" stroke="#D8D8D8" stroke-width="1"  opacity="1"></path></g><g class="highcharts-grid" ><path fill="none" d="M 10 285.5 L 550 285.5" stroke="#D8D8D8" stroke-width="1"  opacity="1"></path><path fill="none" d="M 10 249.5 L 550 249.5" stroke="#D8D8D8" stroke-width="1"  opacity="1"></path><path fill="none" d="M 10 212.5 L 550 212.5" stroke="#D8D8D8" stroke-width="1"  opacity="1"></path></g><g class="highcharts-grid" ></g><g class="highcharts-axis" ><path fill="none" d="M 79.5 285 L 79.5 295" stroke="#C0D0E0" stroke-width="1" opacity="1"></path><path fill="none" d="M 157.5 285 L 157.5 295" stroke="#C0D0E0" stroke-width="1" opacity="1"></path><path fill="none" d="M 234.5 285 L 234.5 295" stroke="#C0D0E0" stroke-width="1" opacity="1"></path><path fill="none" d="M 312.5 285 L 312.5 295" stroke="#C0D0E0" stroke-width="1" opacity="1"></path><path fill="none" d="M 390.5 285 L 390.5 295" stroke="#C0D0E0" stroke-width="1" opacity="1"></path><path fill="none" d="M 468.5 285 L 468.5 295" stroke="#C0D0E0" stroke-width="1" opacity="1"></path><path fill="none" d="M 546.5 285 L 546.5 295" stroke="#C0D0E0" stroke-width="1" opacity="1"></path><path fill="none" d="M 10 285.5 L 550 285.5" stroke="#C0D0E0" stroke-width="1"  visibility="visible"></path></g><g class="highcharts-axis" ></g><g class="highcharts-axis" ><text x="560"  text-anchor="middle" transform="translate(0,0) rotate(90 560 140.8)" class=" highcharts-yaxis-title" style="color:#707070;fill:#707070;" visibility="visible" y="140.8">OHLC</text><path fill="none" d="M 550 79 L 550 202.6" stroke="#C0D0E0" stroke-width="2"  visibility="visible"></path></g><g class="highcharts-axis" ><text x="560"  text-anchor="middle" transform="translate(0,0) rotate(90 560 248.9)" class=" highcharts-yaxis-title" style="color:#707070;fill:#707070;" visibility="visible" y="248.9">Volume</text><path fill="none" d="M 550 212.9 L 550 285" stroke="#C0D0E0" stroke-width="2"  visibility="visible"></path></g><g class="highcharts-axis" ></g><g class="highcharts-series-group" ><g class="highcharts-series highcharts-tracker" visibility="visible"  transform="translate(10,79) scale(1 1)" style="" clip-path="url(#highcharts-1)"><path fill="none" d="M 20.5 33.5 L 20.5 19.5 L 40.5 19.5 L 40.5 33.5 Z M 30.5 19.5 L 30.5 12 M 30.5 33.5 L 30.5 33" stroke="black" stroke-width="5"  stroke-opacity="0.0" transform="translate(1, 1)"></path><path fill="none" d="M 20.5 33.5 L 20.5 19.5 L 40.5 19.5 L 40.5 33.5 Z M 30.5 19.5 L 30.5 12 M 30.5 33.5 L 30.5 33" stroke="black" stroke-width="3"  stroke-opacity="0.0" transform="translate(1, 1)"></path><path fill="none" d="M 20.5 33.5 L 20.5 19.5 L 40.5 19.5 L 40.5 33.5 Z M 30.5 19.5 L 30.5 12 M 30.5 33.5 L 30.5 33" stroke="black" stroke-width="1"  stroke-opacity="0.1" transform="translate(1, 1)"></path><path fill="#f45b5b" d="M 20.5 33.5 L 20.5 19.5 L 40.5 19.5 L 40.5 33.5 Z M 30.5 19.5 L 30.5 12 M 30.5 33.5 L 30.5 33" stroke="#404048" stroke-width="1"></path><path fill="none" d="M 59.5 41.5 L 59.5 32.5 L 79.5 32.5 L 79.5 41.5 Z M 69.5 32.5 L 69.5 31 M 69.5 41.5 L 69.5 47" stroke="black" stroke-width="5"  stroke-opacity="0.0" transform="translate(1, 1)"></path><path fill="none" d="M 59.5 41.5 L 59.5 32.5 L 79.5 32.5 L 79.5 41.5 Z M 69.5 32.5 L 69.5 31 M 69.5 41.5 L 69.5 47" stroke="black" stroke-width="3"  stroke-opacity="0.0" transform="translate(1, 1)"></path><path fill="none" d="M 59.5 41.5 L 59.5 32.5 L 79.5 32.5 L 79.5 41.5 Z M 69.5 32.5 L 69.5 31 M 69.5 41.5 L 69.5 47" stroke="black" stroke-width="1"  stroke-opacity="0.1" transform="translate(1, 1)"></path><path fill="#f45b5b" d="M 59.5 41.5 L 59.5 32.5 L 79.5 32.5 L 79.5 41.5 Z M 69.5 32.5 L 69.5 31 M 69.5 41.5 L 69.5 47" stroke="#404048" stroke-width="1"></path><path fill="none" d="M 98.5 57.5 L 98.5 38.5 L 118.5 38.5 L 118.5 57.5 Z M 108.5 38.5 L 108.5 37 M 108.5 57.5 L 108.5 58" stroke="black" stroke-width="5"  stroke-opacity="0.0" transform="translate(1, 1)"></path><path fill="none" d="M 98.5 57.5 L 98.5 38.5 L 118.5 38.5 L 118.5 57.5 Z M 108.5 38.5 L 108.5 37 M 108.5 57.5 L 108.5 58" stroke="black" stroke-width="3"  stroke-opacity="0.0" transform="translate(1, 1)"></path><path fill="none" d="M 98.5 57.5 L 98.5 38.5 L 118.5 38.5 L 118.5 57.5 Z M 108.5 38.5 L 108.5 37 M 108.5 57.5 L 108.5 58" stroke="black" stroke-width="1"  stroke-opacity="0.1" transform="translate(1, 1)"></path><path fill="#f45b5b" d="M 98.5 57.5 L 98.5 38.5 L 118.5 38.5 L 118.5 57.5 Z M 108.5 38.5 L 108.5 37 M 108.5 57.5 L 108.5 58" stroke="#404048" stroke-width="1"></path><path fill="none" d="M 137.5 59.5 L 137.5 56.5 L 157.5 56.5 L 157.5 59.5 Z M 147.5 56.5 L 147.5 53 M 147.5 59.5 L 147.5 67" stroke="black" stroke-width="5"  stroke-opacity="0.0" transform="translate(1, 1)"></path><path fill="none" d="M 137.5 59.5 L 137.5 56.5 L 157.5 56.5 L 157.5 59.5 Z M 147.5 56.5 L 147.5 53 M 147.5 59.5 L 147.5 67" stroke="black" stroke-width="3"  stroke-opacity="0.0" transform="translate(1, 1)"></path><path fill="none" d="M 137.5 59.5 L 137.5 56.5 L 157.5 56.5 L 157.5 59.5 Z M 147.5 56.5 L 147.5 53 M 147.5 59.5 L 147.5 67" stroke="black" stroke-width="1"  stroke-opacity="0.1" transform="translate(1, 1)"></path><path fill="white" d="M 137.5 59.5 L 137.5 56.5 L 157.5 56.5 L 157.5 59.5 Z M 147.5 56.5 L 147.5 53 M 147.5 59.5 L 147.5 67" stroke="#404048" stroke-width="1"></path><path fill="none" d="M 175.5 58.5 L 175.5 46.5 L 195.5 46.5 L 195.5 58.5 Z M 185.5 46.5 L 185.5 46.5 M 185.5 58.5 L 185.5 62" stroke="black" stroke-width="5"  stroke-opacity="0.0" transform="translate(1, 1)"></path><path fill="none" d="M 175.5 58.5 L 175.5 46.5 L 195.5 46.5 L 195.5 58.5 Z M 185.5 46.5 L 185.5 46.5 M 185.5 58.5 L 185.5 62" stroke="black" stroke-width="3"  stroke-opacity="0.0" transform="translate(1, 1)"></path><path fill="none" d="M 175.5 58.5 L 175.5 46.5 L 195.5 46.5 L 195.5 58.5 Z M 185.5 46.5 L 185.5 46.5 M 185.5 58.5 L 185.5 62" stroke="black" stroke-width="1"  stroke-opacity="0.1" transform="translate(1, 1)"></path><path fill="white" d="M 175.5 58.5 L 175.5 46.5 L 195.5 46.5 L 195.5 58.5 Z M 185.5 46.5 L 185.5 46.5 M 185.5 58.5 L 185.5 62" stroke="#404048" stroke-width="1"></path><path fill="none" d="M 214.5 48.5 L 214.5 31.5 L 234.5 31.5 L 234.5 48.5 Z M 224.5 31.5 L 224.5 31.5 M 224.5 48.5 L 224.5 48" stroke="black" stroke-width="5"  stroke-opacity="0.0" transform="translate(1, 1)"></path><path fill="none" d="M 214.5 48.5 L 214.5 31.5 L 234.5 31.5 L 234.5 48.5 Z M 224.5 31.5 L 224.5 31.5 M 224.5 48.5 L 224.5 48" stroke="black" stroke-width="3"  stroke-opacity="0.0" transform="translate(1, 1)"></path><path fill="none" d="M 214.5 48.5 L 214.5 31.5 L 234.5 31.5 L 234.5 48.5 Z M 224.5 31.5 L 224.5 31.5 M 224.5 48.5 L 224.5 48" stroke="black" stroke-width="1"  stroke-opacity="0.1" transform="translate(1, 1)"></path><path fill="white" d="M 214.5 48.5 L 214.5 31.5 L 234.5 31.5 L 234.5 48.5 Z M 224.5 31.5 L 224.5 31.5 M 224.5 48.5 L 224.5 48" stroke="#404048" stroke-width="1"></path><path fill="none" d="M 253.5 47.5 L 253.5 29.5 L 273.5 29.5 L 273.5 47.5 Z M 263.5 29.5 L 263.5 25 M 263.5 47.5 L 263.5 48" stroke="black" stroke-width="5"  stroke-opacity="0.0" transform="translate(1, 1)"></path><path fill="none" d="M 253.5 47.5 L 253.5 29.5 L 273.5 29.5 L 273.5 47.5 Z M 263.5 29.5 L 263.5 25 M 263.5 47.5 L 263.5 48" stroke="black" stroke-width="3"  stroke-opacity="0.0" transform="translate(1, 1)"></path><path fill="none" d="M 253.5 47.5 L 253.5 29.5 L 273.5 29.5 L 273.5 47.5 Z M 263.5 29.5 L 263.5 25 M 263.5 47.5 L 263.5 48" stroke="black" stroke-width="1"  stroke-opacity="0.1" transform="translate(1, 1)"></path><path fill="#f45b5b" d="M 253.5 47.5 L 253.5 29.5 L 273.5 29.5 L 273.5 47.5 Z M 263.5 29.5 L 263.5 25 M 263.5 47.5 L 263.5 48" stroke="#404048" stroke-width="1"></path><path fill="none" d="M 292.5 63.5 L 292.5 48.5 L 312.5 48.5 L 312.5 63.5 Z M 302.5 48.5 L 302.5 46 M 302.5 63.5 L 302.5 66" stroke="black" stroke-width="5"  stroke-opacity="0.0" transform="translate(1, 1)"></path><path fill="none" d="M 292.5 63.5 L 292.5 48.5 L 312.5 48.5 L 312.5 63.5 Z M 302.5 48.5 L 302.5 46 M 302.5 63.5 L 302.5 66" stroke="black" stroke-width="3"  stroke-opacity="0.0" transform="translate(1, 1)"></path><path fill="none" d="M 292.5 63.5 L 292.5 48.5 L 312.5 48.5 L 312.5 63.5 Z M 302.5 48.5 L 302.5 46 M 302.5 63.5 L 302.5 66" stroke="black" stroke-width="1"  stroke-opacity="0.1" transform="translate(1, 1)"></path><path fill="#f45b5b" d="M 292.5 63.5 L 292.5 48.5 L 312.5 48.5 L 312.5 63.5 Z M 302.5 48.5 L 302.5 46 M 302.5 63.5 L 302.5 66" stroke="#404048" stroke-width="1"></path><path fill="none" d="M 331.5 62.5 L 331.5 58.5 L 351.5 58.5 L 351.5 62.5 Z M 341.5 58.5 L 341.5 51 M 341.5 62.5 L 341.5 64" stroke="black" stroke-width="5"  stroke-opacity="0.0" transform="translate(1, 1)"></path><path fill="none" d="M 331.5 62.5 L 331.5 58.5 L 351.5 58.5 L 351.5 62.5 Z M 341.5 58.5 L 341.5 51 M 341.5 62.5 L 341.5 64" stroke="black" stroke-width="3"  stroke-opacity="0.0" transform="translate(1, 1)"></path><path fill="none" d="M 331.5 62.5 L 331.5 58.5 L 351.5 58.5 L 351.5 62.5 Z M 341.5 58.5 L 341.5 51 M 341.5 62.5 L 341.5 64" stroke="black" stroke-width="1"  stroke-opacity="0.1" transform="translate(1, 1)"></path><path fill="white" d="M 331.5 62.5 L 331.5 58.5 L 351.5 58.5 L 351.5 62.5 Z M 341.5 58.5 L 341.5 51 M 341.5 62.5 L 341.5 64" stroke="#404048" stroke-width="1"></path><path fill="none" d="M 370.5 90.5 L 370.5 60.5 L 390.5 60.5 L 390.5 90.5 Z M 380.5 60.5 L 380.5 59 M 380.5 90.5 L 380.5 95" stroke="black" stroke-width="5"  stroke-opacity="0.0" transform="translate(1, 1)"></path><path fill="none" d="M 370.5 90.5 L 370.5 60.5 L 390.5 60.5 L 390.5 90.5 Z M 380.5 60.5 L 380.5 59 M 380.5 90.5 L 380.5 95" stroke="black" stroke-width="3"  stroke-opacity="0.0" transform="translate(1, 1)"></path><path fill="none" d="M 370.5 90.5 L 370.5 60.5 L 390.5 60.5 L 390.5 90.5 Z M 380.5 60.5 L 380.5 59 M 380.5 90.5 L 380.5 95" stroke="black" stroke-width="1"  stroke-opacity="0.1" transform="translate(1, 1)"></path><path fill="#f45b5b" d="M 370.5 90.5 L 370.5 60.5 L 390.5 60.5 L 390.5 90.5 Z M 380.5 60.5 L 380.5 59 M 380.5 90.5 L 380.5 95" stroke="#404048" stroke-width="1"></path><path fill="none" d="M 409.5 88.5 L 409.5 68.5 L 429.5 68.5 L 429.5 88.5 Z M 419.5 68.5 L 419.5 67 M 419.5 88.5 L 419.5 90" stroke="black" stroke-width="5"  stroke-opacity="0.0" transform="translate(1, 1)"></path><path fill="none" d="M 409.5 88.5 L 409.5 68.5 L 429.5 68.5 L 429.5 88.5 Z M 419.5 68.5 L 419.5 67 M 419.5 88.5 L 419.5 90" stroke="black" stroke-width="3"  stroke-opacity="0.0" transform="translate(1, 1)"></path><path fill="none" d="M 409.5 88.5 L 409.5 68.5 L 429.5 68.5 L 429.5 88.5 Z M 419.5 68.5 L 419.5 67 M 419.5 88.5 L 419.5 90" stroke="black" stroke-width="1"  stroke-opacity="0.1" transform="translate(1, 1)"></path><path fill="white" d="M 409.5 88.5 L 409.5 68.5 L 429.5 68.5 L 429.5 88.5 Z M 419.5 68.5 L 419.5 67 M 419.5 88.5 L 419.5 90" stroke="#404048" stroke-width="1"></path><path fill="none" d="M 448.5 66.5 L 448.5 41.5 L 468.5 41.5 L 468.5 66.5 Z M 458.5 41.5 L 458.5 39 M 458.5 66.5 L 458.5 66" stroke="black" stroke-width="5"  stroke-opacity="0.0" transform="translate(1, 1)"></path><path fill="none" d="M 448.5 66.5 L 448.5 41.5 L 468.5 41.5 L 468.5 66.5 Z M 458.5 41.5 L 458.5 39 M 458.5 66.5 L 458.5 66" stroke="black" stroke-width="3"  stroke-opacity="0.0" transform="translate(1, 1)"></path><path fill="none" d="M 448.5 66.5 L 448.5 41.5 L 468.5 41.5 L 468.5 66.5 Z M 458.5 41.5 L 458.5 39 M 458.5 66.5 L 458.5 66" stroke="black" stroke-width="1"  stroke-opacity="0.1" transform="translate(1, 1)"></path><path fill="white" d="M 448.5 66.5 L 448.5 41.5 L 468.5 41.5 L 468.5 66.5 Z M 458.5 41.5 L 458.5 39 M 458.5 66.5 L 458.5 66" stroke="#404048" stroke-width="1"></path><path fill="none" d="M 487.5 39.5 L 487.5 36.5 L 507.5 36.5 L 507.5 39.5 Z M 497.5 36.5 L 497.5 28 M 497.5 39.5 L 497.5 41" stroke="black" stroke-width="5"  stroke-opacity="0.0" transform="translate(1, 1)"></path><path fill="none" d="M 487.5 39.5 L 487.5 36.5 L 507.5 36.5 L 507.5 39.5 Z M 497.5 36.5 L 497.5 28 M 497.5 39.5 L 497.5 41" stroke="black" stroke-width="3"  stroke-opacity="0.0" transform="translate(1, 1)"></path><path fill="none" d="M 487.5 39.5 L 487.5 36.5 L 507.5 36.5 L 507.5 39.5 Z M 497.5 36.5 L 497.5 28 M 497.5 39.5 L 497.5 41" stroke="black" stroke-width="1"  stroke-opacity="0.1" transform="translate(1, 1)"></path><path fill="#f45b5b" d="M 487.5 39.5 L 487.5 36.5 L 507.5 36.5 L 507.5 39.5 Z M 497.5 36.5 L 497.5 28 M 497.5 39.5 L 497.5 41" stroke="#404048" stroke-width="1"></path></g><g class="highcharts-markers" visibility="visible"  transform="translate(10,79) scale(1 1)" clip-path="none"></g><g class="highcharts-series highcharts-tracker" visibility="visible"  transform="translate(10,212.9) scale(1 1)" style="" clip-path="url(#highcharts-1)"><rect x="21" y="43" width="19" height="30" fill="none" rx="0" ry="0"  stroke="black" stroke-opacity="0.0" stroke-width="5" transform="translate(1, 1)"></rect><rect x="21" y="43" width="19" height="30" fill="none" rx="0" ry="0"  stroke="black" stroke-opacity="0.0" stroke-width="3" transform="translate(1, 1)"></rect><rect x="21" y="43" width="19" height="30" fill="none" rx="0" ry="0"  stroke="black" stroke-opacity="0.1" stroke-width="1" transform="translate(1, 1)"></rect><rect x="21" y="43" width="19" height="30" fill="#8085e9" rx="0" ry="0"></rect><rect x="60" y="51" width="19" height="22" fill="none" rx="0" ry="0"  stroke="black" stroke-opacity="0.0" stroke-width="5" transform="translate(1, 1)"></rect><rect x="60" y="51" width="19" height="22" fill="none" rx="0" ry="0"  stroke="black" stroke-opacity="0.0" stroke-width="3" transform="translate(1, 1)"></rect><rect x="60" y="51" width="19" height="22" fill="none" rx="0" ry="0"  stroke="black" stroke-opacity="0.1" stroke-width="1" transform="translate(1, 1)"></rect><rect x="60" y="51" width="19" height="22" fill="#8085e9" rx="0" ry="0"></rect><rect x="99" y="43" width="19" height="30" fill="none" rx="0" ry="0"  stroke="black" stroke-opacity="0.0" stroke-width="5" transform="translate(1, 1)"></rect><rect x="99" y="43" width="19" height="30" fill="none" rx="0" ry="0"  stroke="black" stroke-opacity="0.0" stroke-width="3" transform="translate(1, 1)"></rect><rect x="99" y="43" width="19" height="30" fill="none" rx="0" ry="0"  stroke="black" stroke-opacity="0.1" stroke-width="1" transform="translate(1, 1)"></rect><rect x="99" y="43" width="19" height="30" fill="#8085e9" rx="0" ry="0"></rect><rect x="138" y="40" width="19" height="33" fill="none" rx="0" ry="0"  stroke="black" stroke-opacity="0.0" stroke-width="5" transform="translate(1, 1)"></rect><rect x="138" y="40" width="19" height="33" fill="none" rx="0" ry="0"  stroke="black" stroke-opacity="0.0" stroke-width="3" transform="translate(1, 1)"></rect><rect x="138" y="40" width="19" height="33" fill="none" rx="0" ry="0"  stroke="black" stroke-opacity="0.1" stroke-width="1" transform="translate(1, 1)"></rect><rect x="138" y="40" width="19" height="33" fill="#8085e9" rx="0" ry="0"></rect><rect x="177" y="44" width="19" height="29" fill="none" rx="0" ry="0"  stroke="black" stroke-opacity="0.0" stroke-width="5" transform="translate(1, 1)"></rect><rect x="177" y="44" width="19" height="29" fill="none" rx="0" ry="0"  stroke="black" stroke-opacity="0.0" stroke-width="3" transform="translate(1, 1)"></rect><rect x="177" y="44" width="19" height="29" fill="none" rx="0" ry="0"  stroke="black" stroke-opacity="0.1" stroke-width="1" transform="translate(1, 1)"></rect><rect x="177" y="44" width="19" height="29" fill="#8085e9" rx="0" ry="0"></rect><rect x="216" y="45" width="19" height="28" fill="none" rx="0" ry="0"  stroke="black" stroke-opacity="0.0" stroke-width="5" transform="translate(1, 1)"></rect><rect x="216" y="45" width="19" height="28" fill="none" rx="0" ry="0"  stroke="black" stroke-opacity="0.0" stroke-width="3" transform="translate(1, 1)"></rect><rect x="216" y="45" width="19" height="28" fill="none" rx="0" ry="0"  stroke="black" stroke-opacity="0.1" stroke-width="1" transform="translate(1, 1)"></rect><rect x="216" y="45" width="19" height="28" fill="#8085e9" rx="0" ry="0"></rect><rect x="255" y="53" width="19" height="20" fill="none" rx="0" ry="0"  stroke="black" stroke-opacity="0.0" stroke-width="5" transform="translate(1, 1)"></rect><rect x="255" y="53" width="19" height="20" fill="none" rx="0" ry="0"  stroke="black" stroke-opacity="0.0" stroke-width="3" transform="translate(1, 1)"></rect><rect x="255" y="53" width="19" height="20" fill="none" rx="0" ry="0"  stroke="black" stroke-opacity="0.1" stroke-width="1" transform="translate(1, 1)"></rect><rect x="255" y="53" width="19" height="20" fill="#8085e9" rx="0" ry="0"></rect><rect x="294" y="47" width="19" height="26" fill="none" rx="0" ry="0"  stroke="black" stroke-opacity="0.0" stroke-width="5" transform="translate(1, 1)"></rect><rect x="294" y="47" width="19" height="26" fill="none" rx="0" ry="0"  stroke="black" stroke-opacity="0.0" stroke-width="3" transform="translate(1, 1)"></rect><rect x="294" y="47" width="19" height="26" fill="none" rx="0" ry="0"  stroke="black" stroke-opacity="0.1" stroke-width="1" transform="translate(1, 1)"></rect><rect x="294" y="47" width="19" height="26" fill="#8085e9" rx="0" ry="0"></rect><rect x="333" y="53" width="19" height="20" fill="none" rx="0" ry="0"  stroke="black" stroke-opacity="0.0" stroke-width="5" transform="translate(1, 1)"></rect><rect x="333" y="53" width="19" height="20" fill="none" rx="0" ry="0"  stroke="black" stroke-opacity="0.0" stroke-width="3" transform="translate(1, 1)"></rect><rect x="333" y="53" width="19" height="20" fill="none" rx="0" ry="0"  stroke="black" stroke-opacity="0.1" stroke-width="1" transform="translate(1, 1)"></rect><rect x="333" y="53" width="19" height="20" fill="#8085e9" rx="0" ry="0"></rect><rect x="372" y="36" width="19" height="37" fill="none" rx="0" ry="0"  stroke="black" stroke-opacity="0.0" stroke-width="5" transform="translate(1, 1)"></rect><rect x="372" y="36" width="19" height="37" fill="none" rx="0" ry="0"  stroke="black" stroke-opacity="0.0" stroke-width="3" transform="translate(1, 1)"></rect><rect x="372" y="36" width="19" height="37" fill="none" rx="0" ry="0"  stroke="black" stroke-opacity="0.1" stroke-width="1" transform="translate(1, 1)"></rect><rect x="372" y="36" width="19" height="37" fill="#8085e9" rx="0" ry="0"></rect><rect x="411" y="32" width="19" height="41" fill="none" rx="0" ry="0"  stroke="black" stroke-opacity="0.0" stroke-width="5" transform="translate(1, 1)"></rect><rect x="411" y="32" width="19" height="41" fill="none" rx="0" ry="0"  stroke="black" stroke-opacity="0.0" stroke-width="3" transform="translate(1, 1)"></rect><rect x="411" y="32" width="19" height="41" fill="none" rx="0" ry="0"  stroke="black" stroke-opacity="0.1" stroke-width="1" transform="translate(1, 1)"></rect><rect x="411" y="32" width="19" height="41" fill="#8085e9" rx="0" ry="0"></rect><rect x="450" y="39" width="19" height="34" fill="none" rx="0" ry="0"  stroke="black" stroke-opacity="0.0" stroke-width="5" transform="translate(1, 1)"></rect><rect x="450" y="39" width="19" height="34" fill="none" rx="0" ry="0"  stroke="black" stroke-opacity="0.0" stroke-width="3" transform="translate(1, 1)"></rect><rect x="450" y="39" width="19" height="34" fill="none" rx="0" ry="0"  stroke="black" stroke-opacity="0.1" stroke-width="1" transform="translate(1, 1)"></rect><rect x="450" y="39" width="19" height="34" fill="#8085e9" rx="0" ry="0"></rect><rect x="489" y="45" width="19" height="28" fill="none" rx="0" ry="0"  stroke="black" stroke-opacity="0.0" stroke-width="5" transform="translate(1, 1)"></rect><rect x="489" y="45" width="19" height="28" fill="none" rx="0" ry="0"  stroke="black" stroke-opacity="0.0" stroke-width="3" transform="translate(1, 1)"></rect><rect x="489" y="45" width="19" height="28" fill="none" rx="0" ry="0"  stroke="black" stroke-opacity="0.1" stroke-width="1" transform="translate(1, 1)"></rect><rect x="489" y="45" width="19" height="28" fill="#8085e9" rx="0" ry="0"></rect></g><g class="highcharts-markers" visibility="visible"  transform="translate(10,212.9) scale(1 1)"></g><g class="highcharts-series" visibility="visible"  transform="translate(24,331) scale(1 1)" clip-path="url(#highcharts-4)"><path fill="rgb(69,114,167)" fill-opacity="0.0" d="M 0 36.0 C 0 36.0 0.8 36.1 1.4 36.1 C 1.9 36.1 2.2 36.2 2.8 36.2 C 3.3 36.3 3.6 36.3 4.2 36.3 C 4.7 36.3 5.0 36.4 5.6 36.4 C 6.1 36.4 6.4 36.4 7.0 36.4 C 7.5 36.4 7.8 36.4 8.4 36.4 C 9.0 36.4 9.2 36.4 9.8 36.5 C 10.4 36.5 10.6 36.6 11.2 36.6 C 11.8 36.6 12.0 36.6 12.6 36.5 C 13.2 36.4 13.5 36.3 14.0 36.2 C 14.6 36.1 14.9 35.9 15.4 35.9 C 16.0 35.9 16.3 36.0 16.8 36.0 C 17.4 36.0 17.7 36.0 18.2 36.0 C 18.8 36.0 19.1 35.9 19.6 35.9 C 20.2 35.9 20.5 35.9 21.0 35.9 C 21.6 35.9 21.9 35.8 22.5 35.7 C 23.0 35.7 23.3 35.7 23.9 35.6 C 24.4 35.6 24.7 35.6 25.3 35.6 C 25.8 35.5 26.1 35.5 26.7 35.5 C 27.2 35.5 27.5 35.5 28.1 35.6 C 28.6 35.6 28.9 35.6 29.5 35.6 C 30.1 35.6 30.3 35.5 30.9 35.5 C 31.5 35.4 31.7 35.2 32.3 35.2 C 32.9 35.2 33.1 35.3 33.7 35.3 C 34.3 35.3 34.6 35.3 35.1 35.2 C 35.7 35.2 36.0 35.1 36.5 35.0 C 37.1 35.0 37.4 35.0 37.9 34.9 C 38.5 34.8 38.8 34.7 39.3 34.7 C 39.9 34.7 40.2 34.7 40.7 34.7 C 41.3 34.8 41.6 34.8 42.1 34.8 C 42.7 34.9 43.0 34.9 43.6 35.0 C 44.1 35.1 44.4 35.2 45.0 35.2 C 45.5 35.2 45.8 35.1 46.4 35.0 C 46.9 34.9 47.2 34.8 47.8 34.7 C 48.3 34.6 48.6 34.6 49.2 34.6 C 49.7 34.6 50.0 34.8 50.6 34.9 C 51.2 35.0 51.4 35.0 52.0 35.0 C 52.6 35.0 52.8 35.0 53.4 35.0 C 54.0 35.0 54.2 35.0 54.8 35.0 C 55.4 35.0 55.7 34.9 56.2 34.9 C 56.8 34.9 57.1 35.0 57.6 35.0 C 58.2 35.0 58.5 34.9 59.0 34.9 C 59.6 34.8 59.9 34.9 60.4 34.8 C 61.0 34.8 61.3 34.7 61.8 34.7 C 62.4 34.6 62.7 34.5 63.2 34.5 C 63.8 34.5 64.1 34.5 64.7 34.5 C 65.2 34.6 65.5 34.6 66.1 34.6 C 66.6 34.6 66.9 34.7 67.5 34.7 C 68.0 34.7 68.3 34.6 68.9 34.5 C 69.4 34.4 69.7 34.3 70.3 34.2 C 70.8 34.1 71.1 34.1 71.7 34.0 C 72.2 33.9 72.5 33.9 73.1 33.8 C 73.7 33.7 73.9 33.7 74.5 33.6 C 75.1 33.5 75.3 33.5 75.9 33.3 C 76.5 33.2 76.8 33.1 77.3 33.1 C 77.9 33.1 78.2 33.2 78.7 33.2 C 79.3 33.2 79.6 33.0 80.1 33.0 C 80.7 33.0 81.0 33.1 81.5 33.1 C 82.1 33.1 82.4 33.0 82.9 32.9 C 83.5 32.8 83.8 32.7 84.3 32.6 C 84.9 32.4 85.2 32.3 85.8 32.2 C 86.3 32.1 86.6 32.1 87.2 32.1 C 87.7 32.1 88.0 32.1 88.6 32.3 C 89.1 32.4 89.4 32.5 90.0 32.6 C 90.5 32.8 90.8 33.0 91.4 33.0 C 91.9 33.0 92.2 32.9 92.8 32.8 C 93.3 32.7 93.6 32.6 94.2 32.5 C 94.8 32.4 95.0 32.3 95.6 32.3 C 96.2 32.3 96.4 32.3 97.0 32.3 C 97.6 32.3 97.8 32.3 98.4 32.2 C 99.0 32.0 99.3 31.8 99.8 31.6 C 100.4 31.4 100.7 31.5 101.2 31.3 C 101.8 31.1 102.1 30.9 102.6 30.8 C 103.2 30.7 103.5 30.8 104.0 30.6 C 104.6 30.4 104.9 30.1 105.4 30.0 C 106.0 29.8 106.3 29.7 106.9 29.7 C 107.4 29.7 107.7 29.7 108.3 29.9 C 108.8 30.1 109.1 30.8 109.7 30.8 C 110.2 30.8 110.5 30.8 111.1 30.8 C 111.6 30.8 111.9 30.4 112.5 30.2 C 113.0 30.0 113.3 30.1 113.9 29.9 C 114.4 29.8 114.7 29.5 115.3 29.5 C 115.9 29.5 116.1 29.8 116.7 29.8 C 117.3 29.8 117.5 29.2 118.1 29.2 C 118.7 29.2 118.9 29.2 119.5 29.3 C 120.1 29.4 120.4 30.0 120.9 30.3 C 121.5 30.5 121.8 30.3 122.3 30.7 C 122.9 31.1 123.2 31.8 123.7 32.1 C 124.3 32.5 124.6 32.5 125.1 32.6 C 125.7 32.8 126.0 32.8 126.5 32.8 C 127.1 32.8 127.4 32.8 127.9 32.8 C 128.5 32.8 128.8 32.9 129.4 33.0 C 129.9 33.1 130.2 33.1 130.8 33.1 C 131.3 33.1 131.6 33.1 132.2 33.1 C 132.7 33.0 133.0 33.0 133.6 32.9 C 134.1 32.9 134.4 32.9 135.0 32.8 C 135.5 32.6 135.8 32.4 136.4 32.2 C 137.0 32.0 137.2 31.9 137.8 31.8 C 138.4 31.7 138.6 31.5 139.2 31.5 C 139.8 31.5 140.0 31.6 140.6 31.6 C 141.2 31.6 141.5 31.1 142.0 30.8 C 142.6 30.6 142.9 30.6 143.4 30.4 C 144.0 30.2 144.3 30.1 144.8 29.9 C 145.4 29.8 145.7 29.7 146.2 29.7 C 146.8 29.7 147.1 30.0 147.6 30.0 C 148.2 30.0 148.5 29.8 149.0 29.8 C 149.6 29.8 149.9 29.8 150.5 29.8 C 151.0 29.8 151.3 30.0 151.9 30.1 C 152.4 30.2 152.7 30.2 153.3 30.2 C 153.8 30.3 154.1 30.4 154.7 30.5 C 155.2 30.6 155.5 30.6 156.1 30.6 C 156.6 30.6 156.9 30.3 157.5 30.3 C 158.1 30.3 158.3 30.3 158.9 30.5 C 159.5 30.6 159.7 31.0 160.3 31.1 C 160.9 31.2 161.1 31.2 161.7 31.2 C 162.3 31.2 162.6 31.2 163.1 31.2 C 163.7 31.1 164.0 30.3 164.5 30.3 C 165.1 30.3 165.4 30.4 165.9 30.4 C 166.5 30.4 166.8 30.4 167.3 30.4 C 167.9 30.5 168.2 30.6 168.7 30.8 C 169.3 31.0 169.6 31.1 170.1 31.4 C 170.7 31.7 171.0 32.1 171.6 32.3 C 172.1 32.6 172.4 32.4 173.0 32.7 C 173.5 32.9 173.8 33.3 174.4 33.7 C 174.9 34.1 175.2 34.7 175.8 34.7 C 176.3 34.7 176.6 34.0 177.2 34.0 C 177.7 34.0 178.0 34.4 178.6 34.4 C 179.2 34.4 179.4 34.3 180.0 34.2 C 180.6 34.1 180.8 34.0 181.4 34.0 C 182.0 34.0 182.2 34.4 182.8 34.5 C 183.4 34.7 183.7 34.9 184.2 34.9 C 184.8 34.9 185.1 34.7 185.6 34.7 C 186.2 34.7 186.5 34.7 187.0 34.7 C 187.6 34.7 187.9 34.4 188.4 34.4 C 189.0 34.4 189.3 34.6 189.8 34.7 C 190.4 34.8 190.7 34.8 191.2 34.9 C 191.8 34.9 192.1 34.9 192.7 34.9 C 193.2 34.9 193.5 34.6 194.1 34.6 C 194.6 34.6 194.9 34.9 195.5 35.0 C 196.0 35.1 196.3 35.1 196.9 35.1 C 197.4 35.1 197.7 34.8 198.3 34.7 C 198.8 34.6 199.1 34.7 199.7 34.6 C 200.2 34.5 200.5 34.3 201.1 34.3 C 201.7 34.3 201.9 34.5 202.5 34.6 C 203.1 34.7 203.3 34.7 203.9 34.8 C 204.5 34.8 204.8 34.8 205.3 34.8 C 205.9 34.8 206.2 34.8 206.7 34.8 C 207.3 34.8 207.6 34.5 208.1 34.3 C 208.7 34.1 209.0 34.0 209.5 33.9 C 210.1 33.9 210.4 33.9 210.9 33.9 C 211.5 33.8 211.8 33.5 212.3 33.4 C 212.9 33.3 213.2 33.3 213.8 33.2 C 214.3 33.2 214.6 33.1 215.2 33.1 C 215.7 33.0 216.0 33.1 216.6 33.0 C 217.1 32.9 217.4 32.7 218.0 32.7 C 218.5 32.7 218.8 33.0 219.4 33.0 C 219.9 33.0 220.2 33.0 220.8 32.9 C 221.3 32.9 221.6 32.8 222.2 32.6 C 222.8 32.5 223.0 32.3 223.6 32.2 C 224.2 32.1 224.4 32.1 225.0 32.1 C 225.6 32.1 225.8 32.4 226.4 32.4 C 227.0 32.4 227.3 32.4 227.8 32.3 C 228.4 32.3 228.7 32.0 229.2 32.0 C 229.8 32.0 230.1 32.3 230.6 32.3 C 231.2 32.3 231.5 32.2 232.0 32.0 C 232.6 31.8 232.9 31.5 233.4 31.4 C 234.0 31.2 234.3 31.2 234.9 31.1 C 235.4 31.0 235.7 30.9 236.3 30.9 C 236.8 30.9 237.1 30.9 237.7 30.9 C 238.2 30.9 238.5 30.9 239.1 30.9 C 239.6 30.9 239.9 30.6 240.5 30.6 C 241.0 30.6 241.3 30.8 241.9 30.8 C 242.4 30.8 242.7 30.6 243.3 30.5 C 243.9 30.4 244.1 30.3 244.7 30.2 C 245.3 30.1 245.5 29.9 246.1 29.9 C 246.7 29.9 246.9 29.9 247.5 29.9 C 248.1 29.9 248.4 29.7 248.9 29.7 C 249.5 29.6 249.8 29.7 250.3 29.6 C 250.9 29.5 251.2 29.1 251.7 29.1 C 252.3 29.1 252.6 29.1 253.1 29.2 C 253.7 29.2 254.0 29.6 254.5 29.6 C 255.1 29.6 255.4 29.1 255.9 29.0 C 256.5 28.9 256.8 28.9 257.4 28.9 C 257.9 28.9 258.2 28.9 258.8 28.9 C 259.3 29.0 259.6 29.0 260.2 29.1 C 260.7 29.2 261.0 29.4 261.6 29.4 C 262.1 29.4 262.4 29.4 263.0 29.4 C 263.5 29.3 263.8 29.3 264.4 29.1 C 265.0 28.9 265.2 28.6 265.8 28.5 C 266.4 28.4 266.6 28.4 267.2 28.4 C 267.8 28.4 268.0 28.6 268.6 28.6 C 269.2 28.6 269.5 28.5 270.0 28.5 C 270.6 28.5 270.9 28.7 271.4 28.9 C 272.0 29.0 272.3 29.4 272.8 29.4 C 273.4 29.4 273.7 29.4 274.2 29.3 C 274.8 29.2 275.1 29.0 275.6 29.0 C 276.2 29.0 276.5 29.1 277.0 29.1 C 277.6 29.1 277.9 28.8 278.5 28.6 C 279.0 28.4 279.3 28.0 279.9 27.9 C 280.4 27.8 280.7 27.9 281.3 27.8 C 281.8 27.8 282.1 27.8 282.7 27.7 C 283.2 27.6 283.5 27.4 284.1 27.3 C 284.6 27.1 284.9 27.2 285.5 27.1 C 286.1 27.0 286.3 27.0 286.9 26.8 C 287.5 26.6 287.7 26.4 288.3 26.2 C 288.9 26.0 289.1 25.6 289.7 25.6 C 290.3 25.6 290.6 26.2 291.1 26.2 C 291.7 26.2 292.0 26.2 292.5 26.2 C 293.1 26.2 293.4 26.7 293.9 26.7 C 294.5 26.7 294.8 26.7 295.3 26.5 C 295.9 26.4 296.2 25.9 296.7 25.9 C 297.3 25.9 297.6 26.4 298.1 26.4 C 298.7 26.4 299.0 26.1 299.6 25.8 C 300.1 25.6 300.4 25.3 301.0 25.3 C 301.5 25.3 301.8 25.9 302.4 26.1 C 302.9 26.2 303.2 26.2 303.8 26.2 C 304.3 26.3 304.6 26.3 305.2 26.3 C 305.7 26.3 306.0 26.3 306.6 26.3 C 307.2 26.2 307.4 26.0 308.0 26.0 C 308.6 25.9 308.8 25.9 309.4 25.9 C 310.0 25.9 310.2 26.1 310.8 26.3 C 311.4 26.4 311.7 26.4 312.2 26.5 C 312.8 26.6 313.1 26.8 313.6 26.8 C 314.2 26.8 314.5 26.8 315.0 26.7 C 315.6 26.5 315.9 26.2 316.4 25.9 C 317.0 25.7 317.3 25.7 317.8 25.5 C 318.4 25.3 318.7 25.0 319.2 24.7 C 319.8 24.5 320.1 24.5 320.7 24.5 C 321.2 24.5 321.5 24.6 322.1 24.6 C 322.6 24.6 322.9 24.2 323.5 23.9 C 324.0 23.7 324.3 23.4 324.9 23.4 C 325.4 23.4 325.7 23.6 326.3 23.6 C 326.8 23.6 327.1 23.5 327.7 23.4 C 328.2 23.3 328.5 23.0 329.1 23.0 C 329.7 23.0 329.9 23.6 330.5 23.6 C 331.1 23.6 331.3 23.5 331.9 23.4 C 332.5 23.3 332.8 23.2 333.3 23.1 C 333.9 23.0 334.2 22.9 334.7 22.9 C 335.3 22.8 335.6 22.8 336.1 22.8 C 336.7 22.8 337.0 22.7 337.5 22.7 C 338.1 22.7 338.4 22.7 338.9 22.7 C 339.5 22.6 339.8 22.5 340.3 22.3 C 340.9 22.1 341.2 21.7 341.8 21.7 C 342.3 21.7 342.6 22.0 343.2 22.0 C 343.7 22.0 344.0 22.0 344.6 21.9 C 345.1 21.9 345.4 21.9 346.0 21.8 C 346.5 21.6 346.8 21.3 347.4 21.2 C 347.9 21.0 348.2 20.9 348.8 20.9 C 349.3 20.9 349.6 21.7 350.2 21.7 C 350.8 21.7 351.0 21.1 351.6 21.1 C 352.2 21.1 352.4 21.1 353.0 21.2 C 353.6 21.3 353.8 21.7 354.4 21.8 C 355.0 21.8 355.3 21.8 355.8 21.8 C 356.4 21.8 356.7 21.4 357.2 21.4 C 357.8 21.4 358.1 21.7 358.6 21.9 C 359.2 22.0 359.5 22.2 360.0 22.2 C 360.6 22.2 360.9 22.1 361.4 21.9 C 362.0 21.7 362.3 21.4 362.9 21.4 C 363.4 21.4 363.7 21.4 364.3 21.4 C 364.8 21.4 365.1 21.4 365.7 21.5 C 366.2 21.5 366.5 21.8 367.1 22.0 C 367.6 22.1 367.9 22.2 368.5 22.2 C 369.0 22.2 369.3 21.6 369.9 21.6 C 370.4 21.6 370.7 21.9 371.3 22.1 C 371.9 22.2 372.1 22.3 372.7 22.5 C 373.3 22.6 373.5 22.8 374.1 22.8 C 374.7 22.8 374.9 22.5 375.5 22.2 C 376.1 21.9 376.4 21.6 376.9 21.4 C 377.5 21.1 377.8 21.3 378.3 20.9 C 378.9 20.6 379.2 20.0 379.7 19.7 C 380.3 19.3 380.6 19.1 381.1 19.1 C 381.7 19.1 382.0 19.1 382.5 19.3 C 383.1 19.4 383.4 20.4 384 20.4 C 384.5 20.4 384.8 20.0 385.4 20.0 C 385.9 20.0 386.2 20.5 386.8 20.5 C 387.3 20.5 387.6 19.5 388.2 19.5 C 388.7 19.5 389.0 19.8 389.6 19.8 C 390.1 19.8 390.4 19.8 391.0 19.5 C 391.5 19.2 391.8 18.4 392.4 18.4 C 393.0 18.4 393.2 18.5 393.8 18.8 C 394.4 19.1 394.6 20.1 395.2 20.1 C 395.8 20.1 396.0 19.1 396.6 18.8 C 397.2 18.4 397.5 18.3 398.0 18.3 C 398.6 18.3 398.9 18.5 399.4 18.6 C 400.0 18.7 400.3 18.7 400.8 18.8 C 401.4 18.8 401.7 18.8 402.2 18.9 C 402.8 19.1 403.1 19.4 403.6 19.6 C 404.2 19.9 404.5 20.3 405.0 20.3 C 405.6 20.3 405.9 20.0 406.5 19.8 C 407.0 19.6 407.3 19.2 407.9 19.2 C 408.4 19.2 408.7 19.4 409.3 19.4 C 409.8 19.4 410.1 19.3 410.7 19.1 C 411.2 19.0 411.5 18.8 412.1 18.6 C 412.6 18.3 412.9 18.3 413.5 18.1 C 414.1 17.9 414.3 17.7 414.9 17.6 C 415.5 17.4 415.7 17.5 416.3 17.4 C 416.9 17.2 417.1 17.0 417.7 16.8 C 418.3 16.5 418.6 16.3 419.1 16.0 C 419.7 15.6 420.0 15.5 420.5 15.0 C 421.1 14.5 421.4 13.9 421.9 13.5 C 422.5 13.1 422.8 13.3 423.3 12.9 C 423.9 12.6 424.2 11.7 424.7 11.7 C 425.3 11.7 425.6 11.7 426.1 11.7 C 426.7 11.7 427.0 10.5 427.6 9.8 C 428.1 9.2 428.4 8.8 429.0 8.5 C 429.5 8.1 429.8 8.2 430.4 8.0 C 430.9 7.8 431.2 7.6 431.8 7.4 C 432.3 7.2 432.6 6.9 433.2 6.9 C 433.7 6.9 434.0 8.2 434.6 8.5 C 435.2 8.8 435.4 8.6 436.0 8.8 C 436.6 8.9 436.8 8.9 437.4 9.2 C 438.0 9.4 438.2 9.8 438.8 10.2 C 439.4 10.5 439.7 11.0 440.2 11.0 C 440.8 11.0 441.1 10.7 441.6 10.5 C 442.2 10.3 442.5 9.9 443.0 9.9 C 443.6 9.9 443.9 10.1 444.4 10.1 C 445.0 10.1 445.3 9.8 445.8 9.7 C 446.4 9.6 446.7 9.4 447.2 9.4 C 447.8 9.4 448.1 9.8 448.7 9.8 C 449.2 9.8 449.5 8.9 450.1 8.6 C 450.6 8.3 450.9 8.2 451.5 8.1 C 452.0 8.0 452.3 8.0 452.9 8.0 C 453.4 8.0 453.7 9.2 454.3 9.2 C 454.8 9.2 455.1 8.5 455.7 8.2 C 456.2 7.8 456.5 7.7 457.1 7.5 C 457.7 7.2 457.9 7.2 458.5 6.8 C 459.1 6.4 459.3 5.8 459.9 5.3 C 460.5 4.9 460.8 4.7 461.3 4.7 C 461.9 4.7 462.2 4.7 462.7 4.7 C 463.3 4.7 463.6 4.7 464.1 4.5 C 464.7 4.4 465.0 3.3 465.5 3.3 C 466.1 3.3 466.4 4.1 466.9 4.5 C 467.5 4.8 467.8 4.6 468.3 5.0 C 468.9 5.4 469.2 6.2 469.8 6.4 C 470.3 6.5 470.6 6.4 471.2 6.5 C 471.7 6.7 472.0 7.1 472.6 7.5 C 473.1 7.9 473.4 8.1 474.0 8.6 C 474.5 9.1 474.8 9.4 475.4 10.0 C 475.9 10.6 476.2 11.5 476.8 11.5 C 477.3 11.5 477.6 10.9 478.2 10.5 C 478.8 10.0 479.0 9.3 479.6 9.3 C 480.2 9.3 480.4 9.7 481.0 10.2 C 481.6 10.8 481.8 11.5 482.4 12.0 C 483.0 12.4 483.3 12.3 483.8 12.5 C 484.4 12.7 484.7 12.8 485.2 12.8 C 485.8 12.8 486.1 11.7 486.6 11.7 C 487.2 11.7 487.5 12.0 488.0 12.3 C 488.6 12.7 488.9 13.1 489.4 13.6 C 490.0 14.0 490.3 14.1 490.9 14.6 C 491.4 15.1 491.7 16.0 492.3 16.0 C 492.8 16.0 493.1 15.9 493.7 15.8 C 494.2 15.6 494.5 15.1 495.1 15.1 C 495.6 15.1 495.9 15.7 496.5 16.0 C 497.0 16.3 497.3 16.2 497.9 16.4 C 498.4 16.7 498.7 17.3 499.3 17.3 C 499.9 17.3 500.1 17.3 500.7 17.1 C 501.3 16.8 501.5 16.3 502.1 16.1 C 502.7 15.8 502.9 15.7 503.5 15.7 C 504.1 15.7 504.4 17.0 504.9 17.1 C 505.5 17.3 505.8 17.1 506.3 17.3 C 506.9 17.4 507.2 17.9 507.7 18.1 C 508.3 18.4 508.6 18.7 509.1 18.7 C 509.7 18.7 510.0 17.4 510.5 16.8 C 511.1 16.2 511.9 15.7 511.9 15.7 L 511.9 40 L 0 40" ></path><path fill="none" d="M 0 36.0 C 0 36.0 0.8 36.1 1.4 36.1 C 1.9 36.1 2.2 36.2 2.8 36.2 C 3.3 36.3 3.6 36.3 4.2 36.3 C 4.7 36.3 5.0 36.4 5.6 36.4 C 6.1 36.4 6.4 36.4 7.0 36.4 C 7.5 36.4 7.8 36.4 8.4 36.4 C 9.0 36.4 9.2 36.4 9.8 36.5 C 10.4 36.5 10.6 36.6 11.2 36.6 C 11.8 36.6 12.0 36.6 12.6 36.5 C 13.2 36.4 13.5 36.3 14.0 36.2 C 14.6 36.1 14.9 35.9 15.4 35.9 C 16.0 35.9 16.3 36.0 16.8 36.0 C 17.4 36.0 17.7 36.0 18.2 36.0 C 18.8 36.0 19.1 35.9 19.6 35.9 C 20.2 35.9 20.5 35.9 21.0 35.9 C 21.6 35.9 21.9 35.8 22.5 35.7 C 23.0 35.7 23.3 35.7 23.9 35.6 C 24.4 35.6 24.7 35.6 25.3 35.6 C 25.8 35.5 26.1 35.5 26.7 35.5 C 27.2 35.5 27.5 35.5 28.1 35.6 C 28.6 35.6 28.9 35.6 29.5 35.6 C 30.1 35.6 30.3 35.5 30.9 35.5 C 31.5 35.4 31.7 35.2 32.3 35.2 C 32.9 35.2 33.1 35.3 33.7 35.3 C 34.3 35.3 34.6 35.3 35.1 35.2 C 35.7 35.2 36.0 35.1 36.5 35.0 C 37.1 35.0 37.4 35.0 37.9 34.9 C 38.5 34.8 38.8 34.7 39.3 34.7 C 39.9 34.7 40.2 34.7 40.7 34.7 C 41.3 34.8 41.6 34.8 42.1 34.8 C 42.7 34.9 43.0 34.9 43.6 35.0 C 44.1 35.1 44.4 35.2 45.0 35.2 C 45.5 35.2 45.8 35.1 46.4 35.0 C 46.9 34.9 47.2 34.8 47.8 34.7 C 48.3 34.6 48.6 34.6 49.2 34.6 C 49.7 34.6 50.0 34.8 50.6 34.9 C 51.2 35.0 51.4 35.0 52.0 35.0 C 52.6 35.0 52.8 35.0 53.4 35.0 C 54.0 35.0 54.2 35.0 54.8 35.0 C 55.4 35.0 55.7 34.9 56.2 34.9 C 56.8 34.9 57.1 35.0 57.6 35.0 C 58.2 35.0 58.5 34.9 59.0 34.9 C 59.6 34.8 59.9 34.9 60.4 34.8 C 61.0 34.8 61.3 34.7 61.8 34.7 C 62.4 34.6 62.7 34.5 63.2 34.5 C 63.8 34.5 64.1 34.5 64.7 34.5 C 65.2 34.6 65.5 34.6 66.1 34.6 C 66.6 34.6 66.9 34.7 67.5 34.7 C 68.0 34.7 68.3 34.6 68.9 34.5 C 69.4 34.4 69.7 34.3 70.3 34.2 C 70.8 34.1 71.1 34.1 71.7 34.0 C 72.2 33.9 72.5 33.9 73.1 33.8 C 73.7 33.7 73.9 33.7 74.5 33.6 C 75.1 33.5 75.3 33.5 75.9 33.3 C 76.5 33.2 76.8 33.1 77.3 33.1 C 77.9 33.1 78.2 33.2 78.7 33.2 C 79.3 33.2 79.6 33.0 80.1 33.0 C 80.7 33.0 81.0 33.1 81.5 33.1 C 82.1 33.1 82.4 33.0 82.9 32.9 C 83.5 32.8 83.8 32.7 84.3 32.6 C 84.9 32.4 85.2 32.3 85.8 32.2 C 86.3 32.1 86.6 32.1 87.2 32.1 C 87.7 32.1 88.0 32.1 88.6 32.3 C 89.1 32.4 89.4 32.5 90.0 32.6 C 90.5 32.8 90.8 33.0 91.4 33.0 C 91.9 33.0 92.2 32.9 92.8 32.8 C 93.3 32.7 93.6 32.6 94.2 32.5 C 94.8 32.4 95.0 32.3 95.6 32.3 C 96.2 32.3 96.4 32.3 97.0 32.3 C 97.6 32.3 97.8 32.3 98.4 32.2 C 99.0 32.0 99.3 31.8 99.8 31.6 C 100.4 31.4 100.7 31.5 101.2 31.3 C 101.8 31.1 102.1 30.9 102.6 30.8 C 103.2 30.7 103.5 30.8 104.0 30.6 C 104.6 30.4 104.9 30.1 105.4 30.0 C 106.0 29.8 106.3 29.7 106.9 29.7 C 107.4 29.7 107.7 29.7 108.3 29.9 C 108.8 30.1 109.1 30.8 109.7 30.8 C 110.2 30.8 110.5 30.8 111.1 30.8 C 111.6 30.8 111.9 30.4 112.5 30.2 C 113.0 30.0 113.3 30.1 113.9 29.9 C 114.4 29.8 114.7 29.5 115.3 29.5 C 115.9 29.5 116.1 29.8 116.7 29.8 C 117.3 29.8 117.5 29.2 118.1 29.2 C 118.7 29.2 118.9 29.2 119.5 29.3 C 120.1 29.4 120.4 30.0 120.9 30.3 C 121.5 30.5 121.8 30.3 122.3 30.7 C 122.9 31.1 123.2 31.8 123.7 32.1 C 124.3 32.5 124.6 32.5 125.1 32.6 C 125.7 32.8 126.0 32.8 126.5 32.8 C 127.1 32.8 127.4 32.8 127.9 32.8 C 128.5 32.8 128.8 32.9 129.4 33.0 C 129.9 33.1 130.2 33.1 130.8 33.1 C 131.3 33.1 131.6 33.1 132.2 33.1 C 132.7 33.0 133.0 33.0 133.6 32.9 C 134.1 32.9 134.4 32.9 135.0 32.8 C 135.5 32.6 135.8 32.4 136.4 32.2 C 137.0 32.0 137.2 31.9 137.8 31.8 C 138.4 31.7 138.6 31.5 139.2 31.5 C 139.8 31.5 140.0 31.6 140.6 31.6 C 141.2 31.6 141.5 31.1 142.0 30.8 C 142.6 30.6 142.9 30.6 143.4 30.4 C 144.0 30.2 144.3 30.1 144.8 29.9 C 145.4 29.8 145.7 29.7 146.2 29.7 C 146.8 29.7 147.1 30.0 147.6 30.0 C 148.2 30.0 148.5 29.8 149.0 29.8 C 149.6 29.8 149.9 29.8 150.5 29.8 C 151.0 29.8 151.3 30.0 151.9 30.1 C 152.4 30.2 152.7 30.2 153.3 30.2 C 153.8 30.3 154.1 30.4 154.7 30.5 C 155.2 30.6 155.5 30.6 156.1 30.6 C 156.6 30.6 156.9 30.3 157.5 30.3 C 158.1 30.3 158.3 30.3 158.9 30.5 C 159.5 30.6 159.7 31.0 160.3 31.1 C 160.9 31.2 161.1 31.2 161.7 31.2 C 162.3 31.2 162.6 31.2 163.1 31.2 C 163.7 31.1 164.0 30.3 164.5 30.3 C 165.1 30.3 165.4 30.4 165.9 30.4 C 166.5 30.4 166.8 30.4 167.3 30.4 C 167.9 30.5 168.2 30.6 168.7 30.8 C 169.3 31.0 169.6 31.1 170.1 31.4 C 170.7 31.7 171.0 32.1 171.6 32.3 C 172.1 32.6 172.4 32.4 173.0 32.7 C 173.5 32.9 173.8 33.3 174.4 33.7 C 174.9 34.1 175.2 34.7 175.8 34.7 C 176.3 34.7 176.6 34.0 177.2 34.0 C 177.7 34.0 178.0 34.4 178.6 34.4 C 179.2 34.4 179.4 34.3 180.0 34.2 C 180.6 34.1 180.8 34.0 181.4 34.0 C 182.0 34.0 182.2 34.4 182.8 34.5 C 183.4 34.7 183.7 34.9 184.2 34.9 C 184.8 34.9 185.1 34.7 185.6 34.7 C 186.2 34.7 186.5 34.7 187.0 34.7 C 187.6 34.7 187.9 34.4 188.4 34.4 C 189.0 34.4 189.3 34.6 189.8 34.7 C 190.4 34.8 190.7 34.8 191.2 34.9 C 191.8 34.9 192.1 34.9 192.7 34.9 C 193.2 34.9 193.5 34.6 194.1 34.6 C 194.6 34.6 194.9 34.9 195.5 35.0 C 196.0 35.1 196.3 35.1 196.9 35.1 C 197.4 35.1 197.7 34.8 198.3 34.7 C 198.8 34.6 199.1 34.7 199.7 34.6 C 200.2 34.5 200.5 34.3 201.1 34.3 C 201.7 34.3 201.9 34.5 202.5 34.6 C 203.1 34.7 203.3 34.7 203.9 34.8 C 204.5 34.8 204.8 34.8 205.3 34.8 C 205.9 34.8 206.2 34.8 206.7 34.8 C 207.3 34.8 207.6 34.5 208.1 34.3 C 208.7 34.1 209.0 34.0 209.5 33.9 C 210.1 33.9 210.4 33.9 210.9 33.9 C 211.5 33.8 211.8 33.5 212.3 33.4 C 212.9 33.3 213.2 33.3 213.8 33.2 C 214.3 33.2 214.6 33.1 215.2 33.1 C 215.7 33.0 216.0 33.1 216.6 33.0 C 217.1 32.9 217.4 32.7 218.0 32.7 C 218.5 32.7 218.8 33.0 219.4 33.0 C 219.9 33.0 220.2 33.0 220.8 32.9 C 221.3 32.9 221.6 32.8 222.2 32.6 C 222.8 32.5 223.0 32.3 223.6 32.2 C 224.2 32.1 224.4 32.1 225.0 32.1 C 225.6 32.1 225.8 32.4 226.4 32.4 C 227.0 32.4 227.3 32.4 227.8 32.3 C 228.4 32.3 228.7 32.0 229.2 32.0 C 229.8 32.0 230.1 32.3 230.6 32.3 C 231.2 32.3 231.5 32.2 232.0 32.0 C 232.6 31.8 232.9 31.5 233.4 31.4 C 234.0 31.2 234.3 31.2 234.9 31.1 C 235.4 31.0 235.7 30.9 236.3 30.9 C 236.8 30.9 237.1 30.9 237.7 30.9 C 238.2 30.9 238.5 30.9 239.1 30.9 C 239.6 30.9 239.9 30.6 240.5 30.6 C 241.0 30.6 241.3 30.8 241.9 30.8 C 242.4 30.8 242.7 30.6 243.3 30.5 C 243.9 30.4 244.1 30.3 244.7 30.2 C 245.3 30.1 245.5 29.9 246.1 29.9 C 246.7 29.9 246.9 29.9 247.5 29.9 C 248.1 29.9 248.4 29.7 248.9 29.7 C 249.5 29.6 249.8 29.7 250.3 29.6 C 250.9 29.5 251.2 29.1 251.7 29.1 C 252.3 29.1 252.6 29.1 253.1 29.2 C 253.7 29.2 254.0 29.6 254.5 29.6 C 255.1 29.6 255.4 29.1 255.9 29.0 C 256.5 28.9 256.8 28.9 257.4 28.9 C 257.9 28.9 258.2 28.9 258.8 28.9 C 259.3 29.0 259.6 29.0 260.2 29.1 C 260.7 29.2 261.0 29.4 261.6 29.4 C 262.1 29.4 262.4 29.4 263.0 29.4 C 263.5 29.3 263.8 29.3 264.4 29.1 C 265.0 28.9 265.2 28.6 265.8 28.5 C 266.4 28.4 266.6 28.4 267.2 28.4 C 267.8 28.4 268.0 28.6 268.6 28.6 C 269.2 28.6 269.5 28.5 270.0 28.5 C 270.6 28.5 270.9 28.7 271.4 28.9 C 272.0 29.0 272.3 29.4 272.8 29.4 C 273.4 29.4 273.7 29.4 274.2 29.3 C 274.8 29.2 275.1 29.0 275.6 29.0 C 276.2 29.0 276.5 29.1 277.0 29.1 C 277.6 29.1 277.9 28.8 278.5 28.6 C 279.0 28.4 279.3 28.0 279.9 27.9 C 280.4 27.8 280.7 27.9 281.3 27.8 C 281.8 27.8 282.1 27.8 282.7 27.7 C 283.2 27.6 283.5 27.4 284.1 27.3 C 284.6 27.1 284.9 27.2 285.5 27.1 C 286.1 27.0 286.3 27.0 286.9 26.8 C 287.5 26.6 287.7 26.4 288.3 26.2 C 288.9 26.0 289.1 25.6 289.7 25.6 C 290.3 25.6 290.6 26.2 291.1 26.2 C 291.7 26.2 292.0 26.2 292.5 26.2 C 293.1 26.2 293.4 26.7 293.9 26.7 C 294.5 26.7 294.8 26.7 295.3 26.5 C 295.9 26.4 296.2 25.9 296.7 25.9 C 297.3 25.9 297.6 26.4 298.1 26.4 C 298.7 26.4 299.0 26.1 299.6 25.8 C 300.1 25.6 300.4 25.3 301.0 25.3 C 301.5 25.3 301.8 25.9 302.4 26.1 C 302.9 26.2 303.2 26.2 303.8 26.2 C 304.3 26.3 304.6 26.3 305.2 26.3 C 305.7 26.3 306.0 26.3 306.6 26.3 C 307.2 26.2 307.4 26.0 308.0 26.0 C 308.6 25.9 308.8 25.9 309.4 25.9 C 310.0 25.9 310.2 26.1 310.8 26.3 C 311.4 26.4 311.7 26.4 312.2 26.5 C 312.8 26.6 313.1 26.8 313.6 26.8 C 314.2 26.8 314.5 26.8 315.0 26.7 C 315.6 26.5 315.9 26.2 316.4 25.9 C 317.0 25.7 317.3 25.7 317.8 25.5 C 318.4 25.3 318.7 25.0 319.2 24.7 C 319.8 24.5 320.1 24.5 320.7 24.5 C 321.2 24.5 321.5 24.6 322.1 24.6 C 322.6 24.6 322.9 24.2 323.5 23.9 C 324.0 23.7 324.3 23.4 324.9 23.4 C 325.4 23.4 325.7 23.6 326.3 23.6 C 326.8 23.6 327.1 23.5 327.7 23.4 C 328.2 23.3 328.5 23.0 329.1 23.0 C 329.7 23.0 329.9 23.6 330.5 23.6 C 331.1 23.6 331.3 23.5 331.9 23.4 C 332.5 23.3 332.8 23.2 333.3 23.1 C 333.9 23.0 334.2 22.9 334.7 22.9 C 335.3 22.8 335.6 22.8 336.1 22.8 C 336.7 22.8 337.0 22.7 337.5 22.7 C 338.1 22.7 338.4 22.7 338.9 22.7 C 339.5 22.6 339.8 22.5 340.3 22.3 C 340.9 22.1 341.2 21.7 341.8 21.7 C 342.3 21.7 342.6 22.0 343.2 22.0 C 343.7 22.0 344.0 22.0 344.6 21.9 C 345.1 21.9 345.4 21.9 346.0 21.8 C 346.5 21.6 346.8 21.3 347.4 21.2 C 347.9 21.0 348.2 20.9 348.8 20.9 C 349.3 20.9 349.6 21.7 350.2 21.7 C 350.8 21.7 351.0 21.1 351.6 21.1 C 352.2 21.1 352.4 21.1 353.0 21.2 C 353.6 21.3 353.8 21.7 354.4 21.8 C 355.0 21.8 355.3 21.8 355.8 21.8 C 356.4 21.8 356.7 21.4 357.2 21.4 C 357.8 21.4 358.1 21.7 358.6 21.9 C 359.2 22.0 359.5 22.2 360.0 22.2 C 360.6 22.2 360.9 22.1 361.4 21.9 C 362.0 21.7 362.3 21.4 362.9 21.4 C 363.4 21.4 363.7 21.4 364.3 21.4 C 364.8 21.4 365.1 21.4 365.7 21.5 C 366.2 21.5 366.5 21.8 367.1 22.0 C 367.6 22.1 367.9 22.2 368.5 22.2 C 369.0 22.2 369.3 21.6 369.9 21.6 C 370.4 21.6 370.7 21.9 371.3 22.1 C 371.9 22.2 372.1 22.3 372.7 22.5 C 373.3 22.6 373.5 22.8 374.1 22.8 C 374.7 22.8 374.9 22.5 375.5 22.2 C 376.1 21.9 376.4 21.6 376.9 21.4 C 377.5 21.1 377.8 21.3 378.3 20.9 C 378.9 20.6 379.2 20.0 379.7 19.7 C 380.3 19.3 380.6 19.1 381.1 19.1 C 381.7 19.1 382.0 19.1 382.5 19.3 C 383.1 19.4 383.4 20.4 384 20.4 C 384.5 20.4 384.8 20.0 385.4 20.0 C 385.9 20.0 386.2 20.5 386.8 20.5 C 387.3 20.5 387.6 19.5 388.2 19.5 C 388.7 19.5 389.0 19.8 389.6 19.8 C 390.1 19.8 390.4 19.8 391.0 19.5 C 391.5 19.2 391.8 18.4 392.4 18.4 C 393.0 18.4 393.2 18.5 393.8 18.8 C 394.4 19.1 394.6 20.1 395.2 20.1 C 395.8 20.1 396.0 19.1 396.6 18.8 C 397.2 18.4 397.5 18.3 398.0 18.3 C 398.6 18.3 398.9 18.5 399.4 18.6 C 400.0 18.7 400.3 18.7 400.8 18.8 C 401.4 18.8 401.7 18.8 402.2 18.9 C 402.8 19.1 403.1 19.4 403.6 19.6 C 404.2 19.9 404.5 20.3 405.0 20.3 C 405.6 20.3 405.9 20.0 406.5 19.8 C 407.0 19.6 407.3 19.2 407.9 19.2 C 408.4 19.2 408.7 19.4 409.3 19.4 C 409.8 19.4 410.1 19.3 410.7 19.1 C 411.2 19.0 411.5 18.8 412.1 18.6 C 412.6 18.3 412.9 18.3 413.5 18.1 C 414.1 17.9 414.3 17.7 414.9 17.6 C 415.5 17.4 415.7 17.5 416.3 17.4 C 416.9 17.2 417.1 17.0 417.7 16.8 C 418.3 16.5 418.6 16.3 419.1 16.0 C 419.7 15.6 420.0 15.5 420.5 15.0 C 421.1 14.5 421.4 13.9 421.9 13.5 C 422.5 13.1 422.8 13.3 423.3 12.9 C 423.9 12.6 424.2 11.7 424.7 11.7 C 425.3 11.7 425.6 11.7 426.1 11.7 C 426.7 11.7 427.0 10.5 427.6 9.8 C 428.1 9.2 428.4 8.8 429.0 8.5 C 429.5 8.1 429.8 8.2 430.4 8.0 C 430.9 7.8 431.2 7.6 431.8 7.4 C 432.3 7.2 432.6 6.9 433.2 6.9 C 433.7 6.9 434.0 8.2 434.6 8.5 C 435.2 8.8 435.4 8.6 436.0 8.8 C 436.6 8.9 436.8 8.9 437.4 9.2 C 438.0 9.4 438.2 9.8 438.8 10.2 C 439.4 10.5 439.7 11.0 440.2 11.0 C 440.8 11.0 441.1 10.7 441.6 10.5 C 442.2 10.3 442.5 9.9 443.0 9.9 C 443.6 9.9 443.9 10.1 444.4 10.1 C 445.0 10.1 445.3 9.8 445.8 9.7 C 446.4 9.6 446.7 9.4 447.2 9.4 C 447.8 9.4 448.1 9.8 448.7 9.8 C 449.2 9.8 449.5 8.9 450.1 8.6 C 450.6 8.3 450.9 8.2 451.5 8.1 C 452.0 8.0 452.3 8.0 452.9 8.0 C 453.4 8.0 453.7 9.2 454.3 9.2 C 454.8 9.2 455.1 8.5 455.7 8.2 C 456.2 7.8 456.5 7.7 457.1 7.5 C 457.7 7.2 457.9 7.2 458.5 6.8 C 459.1 6.4 459.3 5.8 459.9 5.3 C 460.5 4.9 460.8 4.7 461.3 4.7 C 461.9 4.7 462.2 4.7 462.7 4.7 C 463.3 4.7 463.6 4.7 464.1 4.5 C 464.7 4.4 465.0 3.3 465.5 3.3 C 466.1 3.3 466.4 4.1 466.9 4.5 C 467.5 4.8 467.8 4.6 468.3 5.0 C 468.9 5.4 469.2 6.2 469.8 6.4 C 470.3 6.5 470.6 6.4 471.2 6.5 C 471.7 6.7 472.0 7.1 472.6 7.5 C 473.1 7.9 473.4 8.1 474.0 8.6 C 474.5 9.1 474.8 9.4 475.4 10.0 C 475.9 10.6 476.2 11.5 476.8 11.5 C 477.3 11.5 477.6 10.9 478.2 10.5 C 478.8 10.0 479.0 9.3 479.6 9.3 C 480.2 9.3 480.4 9.7 481.0 10.2 C 481.6 10.8 481.8 11.5 482.4 12.0 C 483.0 12.4 483.3 12.3 483.8 12.5 C 484.4 12.7 484.7 12.8 485.2 12.8 C 485.8 12.8 486.1 11.7 486.6 11.7 C 487.2 11.7 487.5 12.0 488.0 12.3 C 488.6 12.7 488.9 13.1 489.4 13.6 C 490.0 14.0 490.3 14.1 490.9 14.6 C 491.4 15.1 491.7 16.0 492.3 16.0 C 492.8 16.0 493.1 15.9 493.7 15.8 C 494.2 15.6 494.5 15.1 495.1 15.1 C 495.6 15.1 495.9 15.7 496.5 16.0 C 497.0 16.3 497.3 16.2 497.9 16.4 C 498.4 16.7 498.7 17.3 499.3 17.3 C 499.9 17.3 500.1 17.3 500.7 17.1 C 501.3 16.8 501.5 16.3 502.1 16.1 C 502.7 15.8 502.9 15.7 503.5 15.7 C 504.1 15.7 504.4 17.0 504.9 17.1 C 505.5 17.3 505.8 17.1 506.3 17.3 C 506.9 17.4 507.2 17.9 507.7 18.1 C 508.3 18.4 508.6 18.7 509.1 18.7 C 509.7 18.7 510.0 17.4 510.5 16.8 C 511.1 16.2 511.9 15.7 511.9 15.7" stroke="#4572A7" stroke-width="1"  stroke-linejoin="round" stroke-linecap="round"></path></g><g class="highcharts-markers" visibility="visible"  transform="translate(24,331) scale(1 1)" clip-path="url(#highcharts-3)"></g></g><g class="highcharts-navigator" ><rect fill="rgb(128,179,236)" fill-opacity="0.3" style="cursor:ew-resize ;" x="518" y="331" width="18" height="40"></rect><path fill="none" stroke="#b2b1b6" stroke-width="1" d="M 10 331.5 L 517.5 331.5 517.5 385.5 L 535.5 385.5 L 535.5 331.5 550 331.5 M 518.5 331.5 L 535.5 331.5"></path></g><g class="highcharts-navigator-handle-right" style="cursor:ew-resize;"  transform="translate(536,343)"><rect x="-4.5" y="0.5" width="8" height="15" strokeWidth="1" fill="#ebe7e8" stroke="#b2b1b6" stroke-width="1"></rect><path fill="#ebe7e8" d="M -1.5 4 L -1.5 12 M 0.5 4 L 0.5 12" stroke="#b2b1b6" stroke-width="1"></path></g><text x="292" text-anchor="middle" class="highcharts-title"  style="color:black;font-size:16px;font-weight:bold;fill:black;width:520px;" y="22"><tspan>AAPL Historical</tspan></text><g class="highcharts-navigator-handle-left" style="cursor:ew-resize;"  transform="translate(518,343)"><rect x="-4.5" y="0.5" width="8" height="15" strokeWidth="1" fill="#ebe7e8" stroke="#b2b1b6" stroke-width="1"></rect><path fill="#ebe7e8" d="M -1.5 4 L -1.5 12 M 0.5 4 L 0.5 12" stroke="#b2b1b6" stroke-width="1"></path></g><g class="highcharts-axis-labels highcharts-xaxis-labels" ><text x="79.5" style="color:#6e6e70;cursor:default;font-size:11px;fill:#6e6e70;width:71px;text-overflow:clip;" text-anchor="middle" transform="translate(0,0)" y="304" opacity="1"><tspan>18. Feb</tspan></text><text x="157.5" style="color:#6e6e70;cursor:default;font-size:11px;fill:#6e6e70;width:71px;text-overflow:clip;" text-anchor="middle" transform="translate(0,0)" y="304" opacity="1"><tspan>4. Mar</tspan></text><text x="235.4" style="color:#6e6e70;cursor:default;font-size:11px;fill:#6e6e70;width:71px;text-overflow:clip;" text-anchor="middle" transform="translate(0,0)" y="304" opacity="1"><tspan>18. Mar</tspan></text><text x="313.4" style="color:#6e6e70;cursor:default;font-size:11px;fill:#6e6e70;width:71px;text-overflow:clip;" text-anchor="middle" transform="translate(0,0)" y="304" opacity="1"><tspan>1. Apr</tspan></text><text x="391.3" style="color:#6e6e70;cursor:default;font-size:11px;fill:#6e6e70;width:71px;text-overflow:clip;" text-anchor="middle" transform="translate(0,0)" y="304" opacity="1"><tspan>15. Apr</tspan></text><text x="469.2" style="color:#6e6e70;cursor:default;font-size:11px;fill:#6e6e70;width:71px;text-overflow:clip;" text-anchor="middle" transform="translate(0,0)" y="304" opacity="1"><tspan>29. Apr</tspan></text><text x="547.2" style="color:#6e6e70;cursor:default;font-size:11px;fill:#6e6e70;width:71px;text-overflow:clip;" text-anchor="middle" transform="translate(0,0)" y="304" opacity="1"><tspan>13. May</tspan></text></g><g class="highcharts-axis-labels highcharts-xaxis-labels" ><text x="146.1" style="color:#888;cursor:default;font-size:11px;fill:#888;width:178px;text-overflow:clip;" text-anchor="start" transform="translate(0,0)" y="367" opacity="1">2008</text><text x="293.0" style="color:#888;cursor:default;font-size:11px;fill:#888;width:178px;text-overflow:clip;" text-anchor="start" transform="translate(0,0)" y="367" opacity="1">2010</text><text x="439.7" style="color:#888;cursor:default;font-size:11px;fill:#888;width:178px;text-overflow:clip;" text-anchor="start" transform="translate(0,0)" y="367" opacity="1">2012</text></g><g class="highcharts-axis-labels highcharts-yaxis-labels" ><text x="547" style="color:#6e6e70;cursor:default;font-size:11px;fill:#6e6e70;width:183px;text-overflow:clip;" text-anchor="end" transform="translate(0,0)" y="201" opacity="1">350</text><text x="547" style="color:#6e6e70;cursor:default;font-size:11px;fill:#6e6e70;width:183px;text-overflow:clip;" text-anchor="end" transform="translate(0,0)" y="159" opacity="1">400</text><text x="547" style="color:#6e6e70;cursor:default;font-size:11px;fill:#6e6e70;width:183px;text-overflow:clip;" text-anchor="end" transform="translate(0,0)" y="118" opacity="1">450</text><text x="0" style="color:#6e6e70;cursor:default;font-size:11px;fill:#6e6e70;width:183px;text-overflow:clip;" text-anchor="end" transform="translate(0,0)" y="-9999">500</text></g><g class="highcharts-axis-labels highcharts-yaxis-labels" ><text x="547" style="color:#6e6e70;cursor:default;font-size:11px;fill:#6e6e70;width:183px;text-overflow:clip;" text-anchor="end" transform="translate(0,0)" y="283" opacity="1">0M</text><text x="547" style="color:#6e6e70;cursor:default;font-size:11px;fill:#6e6e70;width:183px;text-overflow:clip;" text-anchor="end" transform="translate(0,0)" y="247" opacity="1">100M</text><text x="0" style="color:#6e6e70;cursor:default;font-size:11px;fill:#6e6e70;width:183px;text-overflow:clip;" text-anchor="end" transform="translate(0,0)" y="-9999">200M</text></g><g class="highcharts-axis-labels highcharts-yaxis-labels" ></g><g class="highcharts-tooltip"  style="cursor:default;padding:0;white-space:nowrap;" transform="translate(0,-9999)"><path fill="none" d="M 3 0 L 13 0 C 16 0 16 0 16 3 L 16 13 C 16 16 16 16 13 16 L 3 16 C 0 16 0 16 0 13 L 0 3 C 0 0 0 0 3 0"  stroke="black" stroke-opacity="0.0" stroke-width="5" transform="translate(1, 1)"></path><path fill="none" d="M 3 0 L 13 0 C 16 0 16 0 16 3 L 16 13 C 16 16 16 16 13 16 L 3 16 C 0 16 0 16 0 13 L 0 3 C 0 0 0 0 3 0"  stroke="black" stroke-opacity="0.0" stroke-width="3" transform="translate(1, 1)"></path><path fill="none" d="M 3 0 L 13 0 C 16 0 16 0 16 3 L 16 13 C 16 16 16 16 13 16 L 3 16 C 0 16 0 16 0 13 L 0 3 C 0 0 0 0 3 0"  stroke="black" stroke-opacity="0.1" stroke-width="1" transform="translate(1, 1)"></path><path fill="rgb(249, 249, 249)" fill-opacity=" .85" d="M 3 0 L 13 0 C 16 0 16 0 16 3 L 16 13 C 16 16 16 16 13 16 L 3 16 C 0 16 0 16 0 13 L 0 3 C 0 0 0 0 3 0"></path><text x="8"  style="font-size:12px;color:#333333;fill:#333333;" transform="translate(0,20)"></text></g></svg>