<svg version="1.1" style="font-family: signika, serif; font-size: 12px; background-image: url(http://www.highcharts.com/samples/graphics/sand.png); background-attachment: initial; background-origin: initial; background-clip: initial; background-color: initial; background-position: initial initial; background-repeat: initial initial; " xmlns="http://www.w3.org/2000/svg" width="584" height="400" viewBox="0 0 584 400" xmlns:xlink="http://www.w3.org/1999/xlink"><style type="text/css"><![CDATA[@import url(http://fonts.googleapis.com/css?family=Signika:700);]]></style><desc>Created with Highstock 2.1.4</desc><defs><clipPath id="highcharts-1"><rect x="0" y="0" width="564" height="206"></rect></clipPath><clipPath id="highcharts-2"><rect x="-99" y="-79" width="663" height="400"></rect></clipPath><clipPath id="highcharts-3"><rect x="0" y="0" width="564" height="40"></rect></clipPath></defs><g class="highcharts-scrollbar" transform="translate(10,372)"><rect x="0" y="-0.5" fill="#eeeeee" stroke="#C0C0C8" stroke-width="1" rx="0" ry="0" height="14" width="564"></rect><rect y="-0.5" height="14" fill="#bfc8d1" stroke="#bfc8d1" stroke-width="1" rx="0" ry="0" x="531.5" width="18"></rect><path fill="none" stroke="#666" stroke-width="1" visibility="visible" d="M 537 3.5 L 537 9.3 M 540 3.5 L 540 9.3 M 543 3.5 L 543 9.3"></path><g><rect x="-0.5" y="-0.5" width="14" height="14" strokeWidth="1" stroke="#bbb" stroke-width="1" fill="#ebe7e8"></rect><path fill="#666" d="M 8 4 L 8 10 5 7"></path></g><g transform="translate(550,0)"><rect x="-0.5" y="-0.5" width="14" height="14" strokeWidth="1" stroke="#bbb" stroke-width="1" fill="#ebe7e8"></rect><path fill="#666" d="M 6 4 L 6 10 9 7"></path></g></g><g class="highcharts-range-selector-buttons"><text x="10" y="59" style="color:#666;fill:#666;">Zoom</text><g class="highcharts-button"  states="[object Object]" style="cursor:pointer;text-align:center;" transform="translate(46,44)"><rect x="0.5" y="0.5" width="32" height="22" strokeWidth="1" fill="white" stroke="#C0C0C8" stroke-width="1" rx="0" ry="0"></rect><text x="7.5"  style="font-weight:normal;color:#444;fill:#444;" transform="translate(0,14)">1m</text></g><g class="highcharts-button"  states="[object Object]" style="cursor:pointer;text-align:center;" transform="translate(83,44)"><rect x="0.5" y="0.5" width="32" height="22" strokeWidth="1" fill="#D0D0D8" stroke="#68A" stroke-width="1" rx="0" ry="0"></rect><text x="7.5"  style="font-weight:bold;color:black;fill:black;" transform="translate(0,14)">3m</text></g><g class="highcharts-button"  states="[object Object]" style="cursor:pointer;text-align:center;" transform="translate(120,44)"><rect x="0.5" y="0.5" width="32" height="22" strokeWidth="1" fill="white" stroke="#C0C0C8" stroke-width="1" rx="0" ry="0"></rect><text x="7.5"  style="font-weight:normal;color:#444;fill:#444;" transform="translate(0,14)">6m</text></g><g class="highcharts-button"  states="[object Object]" style="cursor:pointer;text-align:center;" transform="translate(157,44)"><rect x="0.5" y="0.5" width="32" height="22" strokeWidth="1" fill="white" stroke="#C0C0C8" stroke-width="1" rx="0" ry="0"></rect><text x="4"  style="font-weight:normal;color:#444;fill:#444;" transform="translate(0,14)">YTD</text></g><g class="highcharts-button"  states="[object Object]" style="cursor:pointer;text-align:center;" transform="translate(194,44)"><rect x="0.5" y="0.5" width="32" height="22" strokeWidth="1" fill="white" stroke="#C0C0C8" stroke-width="1" rx="0" ry="0"></rect><text x="9.5"  style="font-weight:normal;color:#444;fill:#444;" transform="translate(0,14)">1y</text></g><g class="highcharts-button"  states="[object Object]" style="cursor:pointer;text-align:center;" transform="translate(231,44)"><rect x="0.5" y="0.5" width="32" height="22" strokeWidth="1" fill="white" stroke="#C0C0C8" stroke-width="1" rx="0" ry="0"></rect><text x="10"  style="font-weight:normal;color:#444;fill:#444;" transform="translate(0,14)">All</text></g></g><g class="highcharts-input-group" transform="translate(316,44)" visibility="visible"><g style="fill:#666;" transform="translate(0,0)"><text x="2"  style="font-size:12px;font-family:signika, serif;color:#666;fill:#666;" transform="translate(0,14)">From</text></g><g style="text-align:center;" transform="translate(36,0)"><rect x="0.5" y="0.5" width="94" height="21" strokeWidth="1" fill="none" stroke="silver" stroke-width="1"></rect><text x="13.5"  style="font-size:12px;font-family:signika, serif;color:#444;fill:#444;" transform="translate(0,14)"><tspan>Feb 9, 2013</tspan></text></g><g style="fill:#666;" transform="translate(140,0)"><text x="2"  style="font-size:12px;font-family:signika, serif;color:#666;fill:#666;" transform="translate(0,14)">To</text></g><g style="text-align:center;" transform="translate(164,0)"><rect x="0.5" y="0.5" width="94" height="21" strokeWidth="1" fill="none" stroke="silver" stroke-width="1"></rect><text x="9.5"  style="font-size:12px;font-family:signika, serif;color:#444;fill:#444;" transform="translate(0,14)"><tspan>May 10, 2013</tspan></text></g></g><g class="highcharts-grid" ></g><g class="highcharts-grid" ><path fill="none" d="M 148.5 331 L 148.5 371" stroke="#D0D0D8" stroke-width="1"  opacity="1"></path><path fill="none" d="M 301.5 331 L 301.5 371" stroke="#D0D0D8" stroke-width="1"  opacity="1"></path><path fill="none" d="M 455.5 331 L 455.5 371" stroke="#D0D0D8" stroke-width="1"  opacity="1"></path></g><g class="highcharts-grid" ><path fill="none" d="M 10 285.5 L 574 285.5" stroke="#D8D8D8" stroke-width="1"  opacity="1"></path><path fill="none" d="M 10 216.5 L 574 216.5" stroke="#D8D8D8" stroke-width="1"  opacity="1"></path><path fill="none" d="M 10 148.5 L 574 148.5" stroke="#D8D8D8" stroke-width="1"  opacity="1"></path><path fill="none" d="M 10 78.5 L 574 78.5" stroke="#D8D8D8" stroke-width="1"  opacity="1"></path></g><g class="highcharts-grid" ></g><g class="highcharts-axis" ><path fill="none" d="M 82.5 285 L 82.5 295" stroke="#C0D0E0" stroke-width="1" opacity="1"></path><path fill="none" d="M 163.5 285 L 163.5 295" stroke="#C0D0E0" stroke-width="1" opacity="1"></path><path fill="none" d="M 244.5 285 L 244.5 295" stroke="#C0D0E0" stroke-width="1" opacity="1"></path><path fill="none" d="M 326.5 285 L 326.5 295" stroke="#C0D0E0" stroke-width="1" opacity="1"></path><path fill="none" d="M 407.5 285 L 407.5 295" stroke="#C0D0E0" stroke-width="1" opacity="1"></path><path fill="none" d="M 489.5 285 L 489.5 295" stroke="#C0D0E0" stroke-width="1" opacity="1"></path><path fill="none" d="M 570.5 285 L 570.5 295" stroke="#C0D0E0" stroke-width="1" opacity="1"></path><path fill="none" d="M 10 285.5 L 574 285.5" stroke="#C0D0E0" stroke-width="1"  visibility="visible"></path></g><g class="highcharts-axis" ></g><g class="highcharts-axis" ></g><g class="highcharts-axis" ></g><g class="highcharts-series-group" ><g class="highcharts-series highcharts-tracker" visibility="visible"  transform="translate(10,79) scale(1 1)" style="" clip-path="url(#highcharts-1)"><rect x="22" y="92" width="20" height="115" fill="none" rx="0" ry="0"  stroke="black" stroke-opacity="0.0" stroke-width="5" transform="translate(1, 1)"></rect><rect x="22" y="92" width="20" height="115" fill="none" rx="0" ry="0"  stroke="black" stroke-opacity="0.0" stroke-width="3" transform="translate(1, 1)"></rect><rect x="22" y="92" width="20" height="115" fill="none" rx="0" ry="0"  stroke="black" stroke-opacity="0.1" stroke-width="1" transform="translate(1, 1)"></rect><rect x="22" y="92" width="20" height="115" fill="#f45b5b" rx="0" ry="0"></rect><rect x="63" y="124" width="20" height="83" fill="none" rx="0" ry="0"  stroke="black" stroke-opacity="0.0" stroke-width="5" transform="translate(1, 1)"></rect><rect x="63" y="124" width="20" height="83" fill="none" rx="0" ry="0"  stroke="black" stroke-opacity="0.0" stroke-width="3" transform="translate(1, 1)"></rect><rect x="63" y="124" width="20" height="83" fill="none" rx="0" ry="0"  stroke="black" stroke-opacity="0.1" stroke-width="1" transform="translate(1, 1)"></rect><rect x="63" y="124" width="20" height="83" fill="#f45b5b" rx="0" ry="0"></rect><rect x="104" y="92" width="20" height="115" fill="none" rx="0" ry="0"  stroke="black" stroke-opacity="0.0" stroke-width="5" transform="translate(1, 1)"></rect><rect x="104" y="92" width="20" height="115" fill="none" rx="0" ry="0"  stroke="black" stroke-opacity="0.0" stroke-width="3" transform="translate(1, 1)"></rect><rect x="104" y="92" width="20" height="115" fill="none" rx="0" ry="0"  stroke="black" stroke-opacity="0.1" stroke-width="1" transform="translate(1, 1)"></rect><rect x="104" y="92" width="20" height="115" fill="#f45b5b" rx="0" ry="0"></rect><rect x="144" y="82" width="20" height="125" fill="none" rx="0" ry="0"  stroke="black" stroke-opacity="0.0" stroke-width="5" transform="translate(1, 1)"></rect><rect x="144" y="82" width="20" height="125" fill="none" rx="0" ry="0"  stroke="black" stroke-opacity="0.0" stroke-width="3" transform="translate(1, 1)"></rect><rect x="144" y="82" width="20" height="125" fill="none" rx="0" ry="0"  stroke="black" stroke-opacity="0.1" stroke-width="1" transform="translate(1, 1)"></rect><rect x="144" y="82" width="20" height="125" fill="#f45b5b" rx="0" ry="0"></rect><rect x="185" y="94" width="20" height="113" fill="none" rx="0" ry="0"  stroke="black" stroke-opacity="0.0" stroke-width="5" transform="translate(1, 1)"></rect><rect x="185" y="94" width="20" height="113" fill="none" rx="0" ry="0"  stroke="black" stroke-opacity="0.0" stroke-width="3" transform="translate(1, 1)"></rect><rect x="185" y="94" width="20" height="113" fill="none" rx="0" ry="0"  stroke="black" stroke-opacity="0.1" stroke-width="1" transform="translate(1, 1)"></rect><rect x="185" y="94" width="20" height="113" fill="#f45b5b" rx="0" ry="0"></rect><rect x="226" y="98" width="20" height="109" fill="none" rx="0" ry="0"  stroke="black" stroke-opacity="0.0" stroke-width="5" transform="translate(1, 1)"></rect><rect x="226" y="98" width="20" height="109" fill="none" rx="0" ry="0"  stroke="black" stroke-opacity="0.0" stroke-width="3" transform="translate(1, 1)"></rect><rect x="226" y="98" width="20" height="109" fill="none" rx="0" ry="0"  stroke="black" stroke-opacity="0.1" stroke-width="1" transform="translate(1, 1)"></rect><rect x="226" y="98" width="20" height="109" fill="#f45b5b" rx="0" ry="0"></rect><rect x="266" y="130" width="20" height="77" fill="none" rx="0" ry="0"  stroke="black" stroke-opacity="0.0" stroke-width="5" transform="translate(1, 1)"></rect><rect x="266" y="130" width="20" height="77" fill="none" rx="0" ry="0"  stroke="black" stroke-opacity="0.0" stroke-width="3" transform="translate(1, 1)"></rect><rect x="266" y="130" width="20" height="77" fill="none" rx="0" ry="0"  stroke="black" stroke-opacity="0.1" stroke-width="1" transform="translate(1, 1)"></rect><rect x="266" y="130" width="20" height="77" fill="#f45b5b" rx="0" ry="0"></rect><rect x="307" y="108" width="20" height="99" fill="none" rx="0" ry="0"  stroke="black" stroke-opacity="0.0" stroke-width="5" transform="translate(1, 1)"></rect><rect x="307" y="108" width="20" height="99" fill="none" rx="0" ry="0"  stroke="black" stroke-opacity="0.0" stroke-width="3" transform="translate(1, 1)"></rect><rect x="307" y="108" width="20" height="99" fill="none" rx="0" ry="0"  stroke="black" stroke-opacity="0.1" stroke-width="1" transform="translate(1, 1)"></rect><rect x="307" y="108" width="20" height="99" fill="#f45b5b" rx="0" ry="0"></rect><rect x="348" y="131" width="20" height="76" fill="none" rx="0" ry="0"  stroke="black" stroke-opacity="0.0" stroke-width="5" transform="translate(1, 1)"></rect><rect x="348" y="131" width="20" height="76" fill="none" rx="0" ry="0"  stroke="black" stroke-opacity="0.0" stroke-width="3" transform="translate(1, 1)"></rect><rect x="348" y="131" width="20" height="76" fill="none" rx="0" ry="0"  stroke="black" stroke-opacity="0.1" stroke-width="1" transform="translate(1, 1)"></rect><rect x="348" y="131" width="20" height="76" fill="#f45b5b" rx="0" ry="0"></rect><rect x="389" y="68" width="20" height="139" fill="none" rx="0" ry="0"  stroke="black" stroke-opacity="0.0" stroke-width="5" transform="translate(1, 1)"></rect><rect x="389" y="68" width="20" height="139" fill="none" rx="0" ry="0"  stroke="black" stroke-opacity="0.0" stroke-width="3" transform="translate(1, 1)"></rect><rect x="389" y="68" width="20" height="139" fill="none" rx="0" ry="0"  stroke="black" stroke-opacity="0.1" stroke-width="1" transform="translate(1, 1)"></rect><rect x="389" y="68" width="20" height="139" fill="#f45b5b" rx="0" ry="0"></rect><rect x="429" y="49" width="20" height="158" fill="none" rx="0" ry="0"  stroke="black" stroke-opacity="0.0" stroke-width="5" transform="translate(1, 1)"></rect><rect x="429" y="49" width="20" height="158" fill="none" rx="0" ry="0"  stroke="black" stroke-opacity="0.0" stroke-width="3" transform="translate(1, 1)"></rect><rect x="429" y="49" width="20" height="158" fill="none" rx="0" ry="0"  stroke="black" stroke-opacity="0.1" stroke-width="1" transform="translate(1, 1)"></rect><rect x="429" y="49" width="20" height="158" fill="#f45b5b" rx="0" ry="0"></rect><rect x="470" y="78" width="20" height="129" fill="none" rx="0" ry="0"  stroke="black" stroke-opacity="0.0" stroke-width="5" transform="translate(1, 1)"></rect><rect x="470" y="78" width="20" height="129" fill="none" rx="0" ry="0"  stroke="black" stroke-opacity="0.0" stroke-width="3" transform="translate(1, 1)"></rect><rect x="470" y="78" width="20" height="129" fill="none" rx="0" ry="0"  stroke="black" stroke-opacity="0.1" stroke-width="1" transform="translate(1, 1)"></rect><rect x="470" y="78" width="20" height="129" fill="#f45b5b" rx="0" ry="0"></rect><rect x="511" y="100" width="20" height="107" fill="none" rx="0" ry="0"  stroke="black" stroke-opacity="0.0" stroke-width="5" transform="translate(1, 1)"></rect><rect x="511" y="100" width="20" height="107" fill="none" rx="0" ry="0"  stroke="black" stroke-opacity="0.0" stroke-width="3" transform="translate(1, 1)"></rect><rect x="511" y="100" width="20" height="107" fill="none" rx="0" ry="0"  stroke="black" stroke-opacity="0.1" stroke-width="1" transform="translate(1, 1)"></rect><rect x="511" y="100" width="20" height="107" fill="#f45b5b" rx="0" ry="0"></rect></g><g class="highcharts-markers" visibility="visible"  transform="translate(10,79) scale(1 1)"></g><g class="highcharts-series" visibility="visible"  transform="translate(24,331) scale(1 1)" clip-path="url(#highcharts-3)"><path fill="rgb(69,114,167)" fill-opacity="0.0" d="M 0 27.6 C 0 27.6 0.8 29.5 1.4 29.5 C 2.0 29.5 2.3 26.1 2.9 26.1 C 3.5 26.1 3.8 26.4 4.4 26.4 C 5.0 26.4 5.3 25.0 5.8 25.0 C 6.4 25.0 6.7 26.7 7.3 27.5 C 7.9 28.3 8.2 28.0 8.8 28.7 C 9.4 29.5 9.7 31.2 10.3 31.2 C 10.8 31.2 11.1 27.8 11.7 25.5 C 12.3 23.3 12.6 20.0 13.2 20.0 C 13.8 20.0 14.1 28.3 14.7 28.3 C 15.3 28.3 15.6 24.5 16.1 24.5 C 16.7 24.5 17.0 24.5 17.6 25.0 C 18.2 25.5 18.5 27.6 19.1 28.8 C 19.7 29.9 20.0 30.7 20.6 30.7 C 21.2 30.7 21.4 30.6 22.0 29.2 C 22.6 27.7 22.9 24.6 23.5 23.5 C 24.1 22.3 24.4 22.3 25.0 22.3 C 25.6 22.3 25.9 28.1 26.5 28.1 C 27.0 28.1 27.3 27.4 27.9 27.4 C 28.5 27.4 28.8 28.0 29.4 28.7 C 30.0 29.4 30.3 30.8 30.9 30.8 C 31.5 30.8 31.8 26.2 32.3 26.2 C 32.9 26.2 33.2 29.9 33.8 30.8 C 34.4 31.8 34.7 31.8 35.3 31.8 C 35.9 31.8 36.2 30.4 36.8 30.4 C 37.4 30.4 37.6 30.7 38.2 30.7 C 38.8 30.7 39.1 30.7 39.7 30.3 C 40.3 29.9 40.6 24.2 41.2 24.2 C 41.8 24.2 42.1 27.8 42.7 27.8 C 43.2 27.8 43.5 27.3 44.1 27.3 C 44.7 27.3 45.0 28.0 45.6 28.0 C 46.2 28.0 46.5 21.5 47.1 21.5 C 47.7 21.5 48.0 24.4 48.5 24.4 C 49.1 24.4 49.4 9.0 50.0 9.0 C 50.6 9.0 50.9 11.1 51.5 13.8 C 52.1 16.5 52.4 19.6 53.0 22.5 C 53.6 25.5 53.8 28.3 54.4 28.3 C 55.0 28.3 55.3 27.0 55.9 27.0 C 56.5 27.0 56.8 31.5 57.4 31.5 C 58.0 31.5 58.3 28.9 58.9 27.4 C 59.4 25.9 59.7 24.2 60.3 24.2 C 60.9 24.2 61.2 29.8 61.8 29.8 C 62.4 29.8 62.7 28.6 63.3 28.6 C 63.9 28.6 64.2 30.5 64.7 30.5 C 65.3 30.5 65.6 26.9 66.2 26.9 C 66.8 26.9 67.1 32.1 67.7 32.1 C 68.3 32.1 68.6 31.4 69.2 31.2 C 69.7 30.9 70.0 31.2 70.6 30.9 C 71.2 30.7 71.5 22.5 72.1 22.5 C 72.7 22.5 73.0 31.4 73.6 31.4 C 74.2 31.4 74.5 26.5 75.0 26.5 C 75.6 26.5 75.9 26.5 76.5 26.9 C 77.1 27.2 77.4 28.2 78.0 28.2 C 78.6 28.2 78.9 24.3 79.5 22.8 C 80.1 21.3 80.4 21.6 80.9 20.7 C 81.5 19.8 81.8 18.4 82.4 18.4 C 83.0 18.4 83.3 26.3 83.9 26.3 C 84.5 26.3 84.8 24.1 85.4 23.2 C 85.9 22.4 86.2 22.2 86.8 22.2 C 87.4 22.2 87.7 24.2 88.3 25.0 C 88.9 25.8 89.2 26.2 89.8 26.2 C 90.4 26.2 90.7 15.3 91.2 15.3 C 91.8 15.3 92.1 18.8 92.7 20.5 C 93.3 22.1 93.6 23.4 94.2 23.4 C 94.8 23.4 95.1 22.4 95.7 22.4 C 96.3 22.4 96.5 24.2 97.1 24.2 C 97.7 24.2 98.0 24.2 98.6 22.9 C 99.2 21.6 99.5 12.5 100.1 12.5 C 100.7 12.5 101.0 24.7 101.6 24.8 C 102.1 24.9 102.4 24.8 103.0 24.9 C 103.6 25.0 103.9 25.1 104.5 25.6 C 105.1 26.1 105.4 27.4 106.0 27.4 C 106.6 27.4 106.9 23.8 107.4 23.3 C 108.0 22.8 108.3 23.3 108.9 22.8 C 109.5 22.4 109.8 19.7 110.4 19.7 C 111.0 19.7 111.3 26.8 111.9 26.8 C 112.5 26.8 112.7 22.7 113.3 20.4 C 113.9 18.1 114.2 15.3 114.8 15.3 C 115.4 15.3 115.7 22.6 116.3 22.6 C 116.9 22.6 117.2 20.9 117.8 20.9 C 118.3 20.9 118.6 25.3 119.2 25.3 C 119.8 25.3 120.1 25.3 120.7 25.3 C 121.3 25.3 121.6 24.5 122.2 24.5 C 122.8 24.5 123.1 29.2 123.6 29.2 C 124.2 29.2 124.5 27.3 125.1 24.4 C 125.7 21.4 126.0 17.0 126.6 14.4 C 127.2 11.7 127.5 13.4 128.1 11.2 C 128.6 9.0 128.9 3.3 129.5 3.3 C 130.1 3.3 130.4 20.4 131.0 20.4 C 131.6 20.4 131.9 17.7 132.5 17.7 C 133.1 17.7 133.4 23.3 134 23.3 C 134.5 23.3 134.8 23.3 135.4 22.4 C 136.0 21.4 136.3 18.1 136.9 17.5 C 137.5 16.9 137.8 16.9 138.4 16.9 C 139.0 16.9 139.3 20.8 139.8 22.1 C 140.4 23.3 140.7 22.9 141.3 23.3 C 141.9 23.7 142.2 23.7 142.8 24.0 C 143.4 24.3 143.7 24.8 144.3 24.8 C 144.8 24.8 145.1 23.4 145.7 23.4 C 146.3 23.4 146.6 26.9 147.2 26.9 C 147.8 26.9 148.1 18.9 148.7 18.9 C 149.3 18.9 149.6 24.0 150.1 24.8 C 150.7 25.6 151.0 25.2 151.6 25.6 C 152.2 25.9 152.5 26.5 153.1 26.5 C 153.7 26.5 154.0 23.5 154.6 23.5 C 155.2 23.5 155.4 28.7 156.0 28.7 C 156.6 28.7 156.9 28.7 157.5 27.5 C 158.1 26.3 158.4 19.0 159.0 19.0 C 159.6 19.0 159.9 24.0 160.5 25.8 C 161.0 27.5 161.3 27.7 161.9 27.7 C 162.5 27.7 162.8 27.7 163.4 27.3 C 164.0 27.0 164.3 26.0 164.9 26.0 C 165.5 26.0 165.8 26.2 166.3 26.2 C 166.9 26.2 167.2 21.7 167.8 21.7 C 168.4 21.7 168.7 29.1 169.3 29.1 C 169.9 29.1 170.2 29.1 170.8 28.8 C 171.4 28.6 171.6 27.2 172.2 27.2 C 172.8 27.2 173.1 30.6 173.7 31.3 C 174.3 32.0 174.6 32.0 175.2 32.0 C 175.8 32.0 176.1 29.3 176.7 27.7 C 177.2 26.1 177.5 25.6 178.1 24.0 C 178.7 22.3 179.0 19.6 179.6 19.6 C 180.2 19.6 180.5 23.1 181.1 23.1 C 181.7 23.1 182.0 12.1 182.5 10.3 C 183.1 8.5 183.4 8.5 184.0 8.5 C 184.6 8.5 184.9 12.1 185.5 12.1 C 186.1 12.1 186.4 10.9 187.0 10.9 C 187.6 10.9 187.8 12.5 188.4 14.5 C 189.0 16.4 189.3 20.6 189.9 20.6 C 190.5 20.6 190.8 18.6 191.4 18.5 C 192.0 18.4 192.3 18.4 192.9 18.4 C 193.4 18.4 193.7 27.5 194.3 27.5 C 194.9 27.5 195.2 22.4 195.8 22.4 C 196.4 22.4 196.7 22.4 197.3 22.8 C 197.9 23.1 198.2 22.8 198.7 24.1 C 199.3 25.4 199.6 33.1 200.2 33.1 C 200.8 33.1 201.1 31.7 201.7 30.2 C 202.3 28.7 202.6 27.2 203.2 25.7 C 203.7 24.3 204.0 22.9 204.6 22.9 C 205.2 22.9 205.5 22.9 206.1 23.3 C 206.7 23.7 207.0 28.8 207.6 28.9 C 208.2 29.0 208.5 29.0 209.0 29.0 C 209.6 29.0 209.9 28.4 210.5 28.2 C 211.1 27.9 211.4 27.8 212.0 27.8 C 212.6 27.8 212.9 27.9 213.5 27.9 C 214.1 27.9 214.4 27.3 214.9 27.3 C 215.5 27.3 215.8 27.7 216.4 27.9 C 217.0 28.1 217.3 28.0 217.9 28.5 C 218.5 28.9 218.8 30.0 219.4 30.0 C 219.9 30.0 220.2 29.9 220.8 29.9 C 221.4 29.9 221.7 32.8 222.3 32.8 C 222.9 32.8 223.2 32.8 223.8 32.3 C 224.4 31.7 224.7 29.1 225.2 29.1 C 225.8 29.1 226.1 32.4 226.7 32.4 C 227.3 32.4 227.6 31.8 228.2 31.8 C 228.8 31.8 229.1 31.8 229.7 32.0 C 230.3 32.2 230.5 33.6 231.1 33.6 C 231.7 33.6 232.0 30.9 232.6 30.9 C 233.2 30.9 233.5 31.3 234.1 31.3 C 234.7 31.3 235.0 29.0 235.6 29.0 C 236.1 29.0 236.4 30.9 237.0 30.9 C 237.6 30.9 237.9 30.7 238.5 30.7 C 239.1 30.7 239.4 34.0 240.0 34.0 C 240.6 34.0 240.9 32.3 241.4 32.3 C 242.0 32.3 242.3 32.4 242.9 32.4 C 243.5 32.4 243.8 28.9 244.4 28.9 C 245.0 28.9 245.3 32.7 245.9 33.1 C 246.5 33.5 246.7 33.4 247.3 33.5 C 247.9 33.7 248.2 33.8 248.8 33.8 C 249.4 33.8 249.7 32.9 250.3 32.9 C 250.9 32.9 251.2 33.3 251.8 33.5 C 252.3 33.7 252.6 33.9 253.2 33.9 C 253.8 33.9 254.1 32.6 254.7 31.9 C 255.3 31.2 255.6 30.5 256.2 30.5 C 256.8 30.5 257.1 31.9 257.6 32.1 C 258.2 32.4 258.5 32.3 259.1 32.4 C 259.7 32.5 260.0 32.4 260.6 32.6 C 261.2 32.9 261.5 33.9 262.1 33.9 C 262.6 33.9 262.9 25.6 263.5 25.6 C 264.1 25.6 264.4 27.9 265.0 29.2 C 265.6 30.5 265.9 31.4 266.5 32.2 C 267.1 33.0 267.4 33.1 268 33.1 C 268.5 33.1 268.8 32.7 269.4 32.7 C 270.0 32.7 270.3 35.3 270.9 35.3 C 271.5 35.3 271.8 31.0 272.4 30.6 C 273.0 30.2 273.3 30.2 273.8 30.2 C 274.4 30.2 274.7 31.8 275.3 32.5 C 275.9 33.3 276.2 33.9 276.8 33.9 C 277.4 33.9 277.7 33.9 278.3 33.8 C 278.8 33.6 279.1 31.9 279.7 31.6 C 280.3 31.2 280.6 31.4 281.2 31.2 C 281.8 31.0 282.1 31.2 282.7 30.8 C 283.3 30.3 283.6 17.6 284.1 17.6 C 284.7 17.6 285.0 25.4 285.6 28.2 C 286.2 30.9 286.5 30.1 287.1 31.2 C 287.7 32.4 288.0 33.9 288.6 33.9 C 289.2 33.9 289.4 32.0 290.0 31.5 C 290.6 31.0 290.9 31.0 291.5 31.0 C 292.1 31.0 292.4 31.0 293.0 31.0 C 293.6 31.0 293.9 32.4 294.5 32.4 C 295.0 32.4 295.3 30.7 295.9 30.7 C 296.5 30.7 296.8 33.0 297.4 33.0 C 298.0 33.0 298.3 31.3 298.9 31.3 C 299.5 31.3 299.8 32.8 300.3 32.8 C 300.9 32.8 301.2 27.5 301.8 27.5 C 302.4 27.5 302.7 30.1 303.3 30.1 C 303.9 30.1 304.2 24.0 304.8 24.0 C 305.4 24.0 305.6 27.6 306.2 27.6 C 306.8 27.6 307.1 23.8 307.7 23.8 C 308.3 23.8 308.6 25.4 309.2 26.7 C 309.8 28.0 310.1 30.3 310.7 30.3 C 311.2 30.3 311.5 26.9 312.1 26.9 C 312.7 26.9 313.0 28.0 313.6 28.3 C 314.2 28.6 314.5 28.6 315.1 28.6 C 315.7 28.6 316.0 26.6 316.5 26.6 C 317.1 26.6 317.4 32.0 318.0 32.0 C 318.6 32.0 318.9 25.9 319.5 25.8 C 320.1 25.7 320.4 25.7 321.0 25.7 C 321.6 25.7 321.8 29.9 322.4 31.4 C 323.0 33.0 323.3 33.3 323.9 33.3 C 324.5 33.3 324.8 32.5 325.4 32.5 C 326.0 32.5 326.3 33.7 326.9 33.7 C 327.4 33.7 327.7 31.4 328.3 31.4 C 328.9 31.4 329.2 31.4 329.8 32.0 C 330.4 32.6 330.7 34.3 331.3 34.3 C 331.9 34.3 332.2 32.8 332.7 31.7 C 333.3 30.7 333.6 29.2 334.2 29.2 C 334.8 29.2 335.1 29.5 335.7 29.9 C 336.3 30.3 336.6 31.2 337.2 31.2 C 337.7 31.2 338.0 31.1 338.6 30.3 C 339.2 29.5 339.5 27.2 340.1 27.2 C 340.7 27.2 341.0 32.8 341.6 32.8 C 342.2 32.8 342.5 32.2 343.0 32.2 C 343.6 32.2 343.9 32.7 344.5 32.7 C 345.1 32.7 345.4 32.0 346.0 32.0 C 346.6 32.0 346.9 33.5 347.5 33.5 C 348.1 33.5 348.4 32.7 348.9 32.7 C 349.5 32.7 349.8 34.2 350.4 34.2 C 351.0 34.2 351.3 33.6 351.9 33.6 C 352.5 33.6 352.8 34.5 353.4 35.1 C 353.9 35.8 354.2 36.6 354.8 36.6 C 355.4 36.6 355.7 35.0 356.3 34.5 C 356.9 34.0 357.2 34.5 357.8 33.9 C 358.4 33.4 358.7 22.0 359.2 22.0 C 359.8 22.0 360.1 29.5 360.7 31.8 C 361.3 34.0 361.6 34.0 362.2 34.0 C 362.8 34.0 363.1 31.3 363.7 31.3 C 364.3 31.3 364.5 32.0 365.1 32.0 C 365.7 32.0 366.0 30.1 366.6 30.1 C 367.2 30.1 367.5 31.8 368.1 32.1 C 368.7 32.3 369.0 32.3 369.6 32.3 C 370.1 32.3 370.4 28.0 371.0 28.0 C 371.6 28.0 371.9 32.6 372.5 33.5 C 373.1 34.3 373.4 34.3 374.0 34.3 C 374.6 34.3 374.9 33.0 375.4 33.0 C 376.0 33.0 376.3 33.6 376.9 33.6 C 377.5 33.6 377.8 29.9 378.4 29.9 C 379.0 29.9 379.3 31.5 379.9 32.3 C 380.5 33.2 380.7 33.5 381.3 34.1 C 381.9 34.6 382.2 35.0 382.8 35.0 C 383.4 35.0 383.7 33.8 384.3 33.8 C 384.9 33.8 385.2 35.1 385.8 35.1 C 386.3 35.1 386.6 33.3 387.2 33.2 C 387.8 33.2 388.1 33.2 388.7 33.2 C 389.3 33.2 389.6 33.1 390.2 32.7 C 390.8 32.4 391.1 31.7 391.6 31.7 C 392.2 31.7 392.5 34.1 393.1 34.1 C 393.7 34.1 394.0 33.3 394.6 33.0 C 395.2 32.7 395.5 33.0 396.1 32.7 C 396.6 32.4 396.9 29.1 397.5 29.1 C 398.1 29.1 398.4 30.4 399.0 30.4 C 399.6 30.4 399.9 25.8 400.5 25.8 C 401.1 25.8 401.4 25.8 402 26.0 C 402.5 26.1 402.8 30.2 403.4 30.2 C 404.0 30.2 404.3 29.2 404.9 29.2 C 405.5 29.2 405.8 32.9 406.4 32.9 C 407.0 32.9 407.3 32.7 407.8 32.4 C 408.4 32.1 408.7 32.4 409.3 31.6 C 409.9 30.8 410.2 28.0 410.8 28.0 C 411.4 28.0 411.7 30.0 412.3 30.0 C 412.8 30.0 413.1 27.0 413.7 27.0 C 414.3 27.0 414.6 31.3 415.2 31.3 C 415.8 31.3 416.1 27.6 416.7 27.6 C 417.3 27.6 417.6 32.0 418.1 32.7 C 418.7 33.4 419.0 33.4 419.6 33.4 C 420.2 33.4 420.5 31.4 421.1 31.4 C 421.7 31.4 422.0 32.7 422.6 33.1 C 423.2 33.6 423.4 33.5 424.0 33.6 C 424.6 33.7 424.9 33.6 425.5 33.7 C 426.1 33.8 426.4 34.5 427.0 34.5 C 427.6 34.5 427.9 34.2 428.5 34.2 C 429.0 34.2 429.3 35.1 429.9 35.5 C 430.5 35.9 430.8 36.1 431.4 36.1 C 432.0 36.1 432.3 35.1 432.9 35.1 C 433.5 35.1 433.8 35.5 434.3 35.5 C 434.9 35.5 435.2 35.5 435.8 34.9 C 436.4 34.3 436.7 32.0 437.3 32.0 C 437.9 32.0 438.2 34.8 438.8 34.8 C 439.4 34.8 439.6 33.3 440.2 31.8 C 440.8 30.3 441.1 27.3 441.7 27.3 C 442.3 27.3 442.6 31.5 443.2 31.5 C 443.8 31.5 444.1 30.0 444.7 29.6 C 445.2 29.1 445.5 29.6 446.1 29.1 C 446.7 28.7 447.0 25.6 447.6 25.6 C 448.2 25.6 448.5 28.3 449.1 29.0 C 449.7 29.6 450.0 29.6 450.5 29.6 C 451.1 29.6 451.4 29.6 452.0 29.3 C 452.6 29.0 452.9 29.2 453.5 28.2 C 454.1 27.2 454.4 24.4 455.0 24.4 C 455.6 24.4 455.8 26.0 456.4 27.5 C 457.0 29.0 457.3 31.0 457.9 31.9 C 458.5 32.8 458.8 32.8 459.4 32.8 C 460.0 32.8 460.3 30.7 460.9 30.7 C 461.4 30.7 461.7 30.8 462.3 31.1 C 462.9 31.3 463.2 31.7 463.8 32.1 C 464.4 32.5 464.7 32.9 465.3 33.1 C 465.9 33.3 466.2 33.1 466.7 33.3 C 467.3 33.5 467.6 33.7 468.2 34.0 C 468.8 34.4 469.1 34.9 469.7 34.9 C 470.3 34.9 470.6 33.9 471.2 33.5 C 471.7 33.2 472.0 33.0 472.6 33.0 C 473.2 33.0 473.5 34.3 474.1 34.3 C 474.7 34.3 475.0 31.0 475.6 31.0 C 476.2 31.0 476.5 32.7 477.0 33.6 C 477.6 34.6 477.9 35.6 478.5 35.6 C 479.1 35.6 479.4 35.6 480.0 34.7 C 480.6 33.7 480.9 30.7 481.5 30.7 C 482.1 30.7 482.4 34.8 482.9 34.8 C 483.5 34.8 483.8 34.8 484.4 34.0 C 485.0 33.3 485.3 30.5 485.9 30.5 C 486.5 30.5 486.8 33.3 487.4 33.3 C 487.9 33.3 488.2 30.7 488.8 30.7 C 489.4 30.7 489.7 31.6 490.3 31.6 C 490.9 31.6 491.2 30.3 491.8 30.3 C 492.4 30.3 492.7 31.5 493.2 31.5 C 493.8 31.5 494.1 28.7 494.7 28.7 C 495.3 28.7 495.6 31.9 496.2 31.9 C 496.8 31.9 497.1 28.1 497.7 28.1 C 498.3 28.1 498.5 28.1 499.1 28.4 C 499.7 28.8 500.0 31.2 500.6 31.4 C 501.2 31.5 501.5 31.5 502.1 31.5 C 502.7 31.5 503.0 27.4 503.6 27.4 C 504.1 27.4 504.4 28.5 505.0 29.2 C 505.6 29.8 505.9 29.4 506.5 30.5 C 507.1 31.6 507.4 34.5 508.0 34.5 C 508.6 34.5 508.9 31.1 509.4 31.1 C 510.0 31.1 510.3 32.4 510.9 32.4 C 511.5 32.4 511.8 31.2 512.4 29.5 C 513.0 27.9 513.3 24.1 513.9 24.1 C 514.5 24.1 514.7 31.4 515.3 31.4 C 515.9 31.4 516.2 30.3 516.8 30.3 C 517.4 30.3 517.7 31.7 518.3 32.3 C 518.9 32.8 519.2 33.0 519.8 33.0 C 520.3 33.0 520.6 32.6 521.2 32.3 C 521.8 32.0 522.1 31.7 522.7 31.7 C 523.3 31.7 523.6 32.2 524.2 32.4 C 524.8 32.6 525.1 32.5 525.6 32.7 C 526.2 32.9 526.5 33.5 527.1 33.5 C 527.7 33.5 528.0 33.3 528.6 33.3 C 529.2 33.3 529.5 34.7 530.1 34.7 C 530.6 34.7 530.9 31.8 531.5 30.7 C 532.1 29.7 532.4 29.6 533.0 29.6 C 533.6 29.6 533.9 30.8 534.5 31.4 C 535.1 32.0 536 32.8 536 32.8 L 536 40 L 0 40" ></path><path fill="none" d="M 0 27.6 C 0 27.6 0.8 29.5 1.4 29.5 C 2.0 29.5 2.3 26.1 2.9 26.1 C 3.5 26.1 3.8 26.4 4.4 26.4 C 5.0 26.4 5.3 25.0 5.8 25.0 C 6.4 25.0 6.7 26.7 7.3 27.5 C 7.9 28.3 8.2 28.0 8.8 28.7 C 9.4 29.5 9.7 31.2 10.3 31.2 C 10.8 31.2 11.1 27.8 11.7 25.5 C 12.3 23.3 12.6 20.0 13.2 20.0 C 13.8 20.0 14.1 28.3 14.7 28.3 C 15.3 28.3 15.6 24.5 16.1 24.5 C 16.7 24.5 17.0 24.5 17.6 25.0 C 18.2 25.5 18.5 27.6 19.1 28.8 C 19.7 29.9 20.0 30.7 20.6 30.7 C 21.2 30.7 21.4 30.6 22.0 29.2 C 22.6 27.7 22.9 24.6 23.5 23.5 C 24.1 22.3 24.4 22.3 25.0 22.3 C 25.6 22.3 25.9 28.1 26.5 28.1 C 27.0 28.1 27.3 27.4 27.9 27.4 C 28.5 27.4 28.8 28.0 29.4 28.7 C 30.0 29.4 30.3 30.8 30.9 30.8 C 31.5 30.8 31.8 26.2 32.3 26.2 C 32.9 26.2 33.2 29.9 33.8 30.8 C 34.4 31.8 34.7 31.8 35.3 31.8 C 35.9 31.8 36.2 30.4 36.8 30.4 C 37.4 30.4 37.6 30.7 38.2 30.7 C 38.8 30.7 39.1 30.7 39.7 30.3 C 40.3 29.9 40.6 24.2 41.2 24.2 C 41.8 24.2 42.1 27.8 42.7 27.8 C 43.2 27.8 43.5 27.3 44.1 27.3 C 44.7 27.3 45.0 28.0 45.6 28.0 C 46.2 28.0 46.5 21.5 47.1 21.5 C 47.7 21.5 48.0 24.4 48.5 24.4 C 49.1 24.4 49.4 9.0 50.0 9.0 C 50.6 9.0 50.9 11.1 51.5 13.8 C 52.1 16.5 52.4 19.6 53.0 22.5 C 53.6 25.5 53.8 28.3 54.4 28.3 C 55.0 28.3 55.3 27.0 55.9 27.0 C 56.5 27.0 56.8 31.5 57.4 31.5 C 58.0 31.5 58.3 28.9 58.9 27.4 C 59.4 25.9 59.7 24.2 60.3 24.2 C 60.9 24.2 61.2 29.8 61.8 29.8 C 62.4 29.8 62.7 28.6 63.3 28.6 C 63.9 28.6 64.2 30.5 64.7 30.5 C 65.3 30.5 65.6 26.9 66.2 26.9 C 66.8 26.9 67.1 32.1 67.7 32.1 C 68.3 32.1 68.6 31.4 69.2 31.2 C 69.7 30.9 70.0 31.2 70.6 30.9 C 71.2 30.7 71.5 22.5 72.1 22.5 C 72.7 22.5 73.0 31.4 73.6 31.4 C 74.2 31.4 74.5 26.5 75.0 26.5 C 75.6 26.5 75.9 26.5 76.5 26.9 C 77.1 27.2 77.4 28.2 78.0 28.2 C 78.6 28.2 78.9 24.3 79.5 22.8 C 80.1 21.3 80.4 21.6 80.9 20.7 C 81.5 19.8 81.8 18.4 82.4 18.4 C 83.0 18.4 83.3 26.3 83.9 26.3 C 84.5 26.3 84.8 24.1 85.4 23.2 C 85.9 22.4 86.2 22.2 86.8 22.2 C 87.4 22.2 87.7 24.2 88.3 25.0 C 88.9 25.8 89.2 26.2 89.8 26.2 C 90.4 26.2 90.7 15.3 91.2 15.3 C 91.8 15.3 92.1 18.8 92.7 20.5 C 93.3 22.1 93.6 23.4 94.2 23.4 C 94.8 23.4 95.1 22.4 95.7 22.4 C 96.3 22.4 96.5 24.2 97.1 24.2 C 97.7 24.2 98.0 24.2 98.6 22.9 C 99.2 21.6 99.5 12.5 100.1 12.5 C 100.7 12.5 101.0 24.7 101.6 24.8 C 102.1 24.9 102.4 24.8 103.0 24.9 C 103.6 25.0 103.9 25.1 104.5 25.6 C 105.1 26.1 105.4 27.4 106.0 27.4 C 106.6 27.4 106.9 23.8 107.4 23.3 C 108.0 22.8 108.3 23.3 108.9 22.8 C 109.5 22.4 109.8 19.7 110.4 19.7 C 111.0 19.7 111.3 26.8 111.9 26.8 C 112.5 26.8 112.7 22.7 113.3 20.4 C 113.9 18.1 114.2 15.3 114.8 15.3 C 115.4 15.3 115.7 22.6 116.3 22.6 C 116.9 22.6 117.2 20.9 117.8 20.9 C 118.3 20.9 118.6 25.3 119.2 25.3 C 119.8 25.3 120.1 25.3 120.7 25.3 C 121.3 25.3 121.6 24.5 122.2 24.5 C 122.8 24.5 123.1 29.2 123.6 29.2 C 124.2 29.2 124.5 27.3 125.1 24.4 C 125.7 21.4 126.0 17.0 126.6 14.4 C 127.2 11.7 127.5 13.4 128.1 11.2 C 128.6 9.0 128.9 3.3 129.5 3.3 C 130.1 3.3 130.4 20.4 131.0 20.4 C 131.6 20.4 131.9 17.7 132.5 17.7 C 133.1 17.7 133.4 23.3 134 23.3 C 134.5 23.3 134.8 23.3 135.4 22.4 C 136.0 21.4 136.3 18.1 136.9 17.5 C 137.5 16.9 137.8 16.9 138.4 16.9 C 139.0 16.9 139.3 20.8 139.8 22.1 C 140.4 23.3 140.7 22.9 141.3 23.3 C 141.9 23.7 142.2 23.7 142.8 24.0 C 143.4 24.3 143.7 24.8 144.3 24.8 C 144.8 24.8 145.1 23.4 145.7 23.4 C 146.3 23.4 146.6 26.9 147.2 26.9 C 147.8 26.9 148.1 18.9 148.7 18.9 C 149.3 18.9 149.6 24.0 150.1 24.8 C 150.7 25.6 151.0 25.2 151.6 25.6 C 152.2 25.9 152.5 26.5 153.1 26.5 C 153.7 26.5 154.0 23.5 154.6 23.5 C 155.2 23.5 155.4 28.7 156.0 28.7 C 156.6 28.7 156.9 28.7 157.5 27.5 C 158.1 26.3 158.4 19.0 159.0 19.0 C 159.6 19.0 159.9 24.0 160.5 25.8 C 161.0 27.5 161.3 27.7 161.9 27.7 C 162.5 27.7 162.8 27.7 163.4 27.3 C 164.0 27.0 164.3 26.0 164.9 26.0 C 165.5 26.0 165.8 26.2 166.3 26.2 C 166.9 26.2 167.2 21.7 167.8 21.7 C 168.4 21.7 168.7 29.1 169.3 29.1 C 169.9 29.1 170.2 29.1 170.8 28.8 C 171.4 28.6 171.6 27.2 172.2 27.2 C 172.8 27.2 173.1 30.6 173.7 31.3 C 174.3 32.0 174.6 32.0 175.2 32.0 C 175.8 32.0 176.1 29.3 176.7 27.7 C 177.2 26.1 177.5 25.6 178.1 24.0 C 178.7 22.3 179.0 19.6 179.6 19.6 C 180.2 19.6 180.5 23.1 181.1 23.1 C 181.7 23.1 182.0 12.1 182.5 10.3 C 183.1 8.5 183.4 8.5 184.0 8.5 C 184.6 8.5 184.9 12.1 185.5 12.1 C 186.1 12.1 186.4 10.9 187.0 10.9 C 187.6 10.9 187.8 12.5 188.4 14.5 C 189.0 16.4 189.3 20.6 189.9 20.6 C 190.5 20.6 190.8 18.6 191.4 18.5 C 192.0 18.4 192.3 18.4 192.9 18.4 C 193.4 18.4 193.7 27.5 194.3 27.5 C 194.9 27.5 195.2 22.4 195.8 22.4 C 196.4 22.4 196.7 22.4 197.3 22.8 C 197.9 23.1 198.2 22.8 198.7 24.1 C 199.3 25.4 199.6 33.1 200.2 33.1 C 200.8 33.1 201.1 31.7 201.7 30.2 C 202.3 28.7 202.6 27.2 203.2 25.7 C 203.7 24.3 204.0 22.9 204.6 22.9 C 205.2 22.9 205.5 22.9 206.1 23.3 C 206.7 23.7 207.0 28.8 207.6 28.9 C 208.2 29.0 208.5 29.0 209.0 29.0 C 209.6 29.0 209.9 28.4 210.5 28.2 C 211.1 27.9 211.4 27.8 212.0 27.8 C 212.6 27.8 212.9 27.9 213.5 27.9 C 214.1 27.9 214.4 27.3 214.9 27.3 C 215.5 27.3 215.8 27.7 216.4 27.9 C 217.0 28.1 217.3 28.0 217.9 28.5 C 218.5 28.9 218.8 30.0 219.4 30.0 C 219.9 30.0 220.2 29.9 220.8 29.9 C 221.4 29.9 221.7 32.8 222.3 32.8 C 222.9 32.8 223.2 32.8 223.8 32.3 C 224.4 31.7 224.7 29.1 225.2 29.1 C 225.8 29.1 226.1 32.4 226.7 32.4 C 227.3 32.4 227.6 31.8 228.2 31.8 C 228.8 31.8 229.1 31.8 229.7 32.0 C 230.3 32.2 230.5 33.6 231.1 33.6 C 231.7 33.6 232.0 30.9 232.6 30.9 C 233.2 30.9 233.5 31.3 234.1 31.3 C 234.7 31.3 235.0 29.0 235.6 29.0 C 236.1 29.0 236.4 30.9 237.0 30.9 C 237.6 30.9 237.9 30.7 238.5 30.7 C 239.1 30.7 239.4 34.0 240.0 34.0 C 240.6 34.0 240.9 32.3 241.4 32.3 C 242.0 32.3 242.3 32.4 242.9 32.4 C 243.5 32.4 243.8 28.9 244.4 28.9 C 245.0 28.9 245.3 32.7 245.9 33.1 C 246.5 33.5 246.7 33.4 247.3 33.5 C 247.9 33.7 248.2 33.8 248.8 33.8 C 249.4 33.8 249.7 32.9 250.3 32.9 C 250.9 32.9 251.2 33.3 251.8 33.5 C 252.3 33.7 252.6 33.9 253.2 33.9 C 253.8 33.9 254.1 32.6 254.7 31.9 C 255.3 31.2 255.6 30.5 256.2 30.5 C 256.8 30.5 257.1 31.9 257.6 32.1 C 258.2 32.4 258.5 32.3 259.1 32.4 C 259.7 32.5 260.0 32.4 260.6 32.6 C 261.2 32.9 261.5 33.9 262.1 33.9 C 262.6 33.9 262.9 25.6 263.5 25.6 C 264.1 25.6 264.4 27.9 265.0 29.2 C 265.6 30.5 265.9 31.4 266.5 32.2 C 267.1 33.0 267.4 33.1 268 33.1 C 268.5 33.1 268.8 32.7 269.4 32.7 C 270.0 32.7 270.3 35.3 270.9 35.3 C 271.5 35.3 271.8 31.0 272.4 30.6 C 273.0 30.2 273.3 30.2 273.8 30.2 C 274.4 30.2 274.7 31.8 275.3 32.5 C 275.9 33.3 276.2 33.9 276.8 33.9 C 277.4 33.9 277.7 33.9 278.3 33.8 C 278.8 33.6 279.1 31.9 279.7 31.6 C 280.3 31.2 280.6 31.4 281.2 31.2 C 281.8 31.0 282.1 31.2 282.7 30.8 C 283.3 30.3 283.6 17.6 284.1 17.6 C 284.7 17.6 285.0 25.4 285.6 28.2 C 286.2 30.9 286.5 30.1 287.1 31.2 C 287.7 32.4 288.0 33.9 288.6 33.9 C 289.2 33.9 289.4 32.0 290.0 31.5 C 290.6 31.0 290.9 31.0 291.5 31.0 C 292.1 31.0 292.4 31.0 293.0 31.0 C 293.6 31.0 293.9 32.4 294.5 32.4 C 295.0 32.4 295.3 30.7 295.9 30.7 C 296.5 30.7 296.8 33.0 297.4 33.0 C 298.0 33.0 298.3 31.3 298.9 31.3 C 299.5 31.3 299.8 32.8 300.3 32.8 C 300.9 32.8 301.2 27.5 301.8 27.5 C 302.4 27.5 302.7 30.1 303.3 30.1 C 303.9 30.1 304.2 24.0 304.8 24.0 C 305.4 24.0 305.6 27.6 306.2 27.6 C 306.8 27.6 307.1 23.8 307.7 23.8 C 308.3 23.8 308.6 25.4 309.2 26.7 C 309.8 28.0 310.1 30.3 310.7 30.3 C 311.2 30.3 311.5 26.9 312.1 26.9 C 312.7 26.9 313.0 28.0 313.6 28.3 C 314.2 28.6 314.5 28.6 315.1 28.6 C 315.7 28.6 316.0 26.6 316.5 26.6 C 317.1 26.6 317.4 32.0 318.0 32.0 C 318.6 32.0 318.9 25.9 319.5 25.8 C 320.1 25.7 320.4 25.7 321.0 25.7 C 321.6 25.7 321.8 29.9 322.4 31.4 C 323.0 33.0 323.3 33.3 323.9 33.3 C 324.5 33.3 324.8 32.5 325.4 32.5 C 326.0 32.5 326.3 33.7 326.9 33.7 C 327.4 33.7 327.7 31.4 328.3 31.4 C 328.9 31.4 329.2 31.4 329.8 32.0 C 330.4 32.6 330.7 34.3 331.3 34.3 C 331.9 34.3 332.2 32.8 332.7 31.7 C 333.3 30.7 333.6 29.2 334.2 29.2 C 334.8 29.2 335.1 29.5 335.7 29.9 C 336.3 30.3 336.6 31.2 337.2 31.2 C 337.7 31.2 338.0 31.1 338.6 30.3 C 339.2 29.5 339.5 27.2 340.1 27.2 C 340.7 27.2 341.0 32.8 341.6 32.8 C 342.2 32.8 342.5 32.2 343.0 32.2 C 343.6 32.2 343.9 32.7 344.5 32.7 C 345.1 32.7 345.4 32.0 346.0 32.0 C 346.6 32.0 346.9 33.5 347.5 33.5 C 348.1 33.5 348.4 32.7 348.9 32.7 C 349.5 32.7 349.8 34.2 350.4 34.2 C 351.0 34.2 351.3 33.6 351.9 33.6 C 352.5 33.6 352.8 34.5 353.4 35.1 C 353.9 35.8 354.2 36.6 354.8 36.6 C 355.4 36.6 355.7 35.0 356.3 34.5 C 356.9 34.0 357.2 34.5 357.8 33.9 C 358.4 33.4 358.7 22.0 359.2 22.0 C 359.8 22.0 360.1 29.5 360.7 31.8 C 361.3 34.0 361.6 34.0 362.2 34.0 C 362.8 34.0 363.1 31.3 363.7 31.3 C 364.3 31.3 364.5 32.0 365.1 32.0 C 365.7 32.0 366.0 30.1 366.6 30.1 C 367.2 30.1 367.5 31.8 368.1 32.1 C 368.7 32.3 369.0 32.3 369.6 32.3 C 370.1 32.3 370.4 28.0 371.0 28.0 C 371.6 28.0 371.9 32.6 372.5 33.5 C 373.1 34.3 373.4 34.3 374.0 34.3 C 374.6 34.3 374.9 33.0 375.4 33.0 C 376.0 33.0 376.3 33.6 376.9 33.6 C 377.5 33.6 377.8 29.9 378.4 29.9 C 379.0 29.9 379.3 31.5 379.9 32.3 C 380.5 33.2 380.7 33.5 381.3 34.1 C 381.9 34.6 382.2 35.0 382.8 35.0 C 383.4 35.0 383.7 33.8 384.3 33.8 C 384.9 33.8 385.2 35.1 385.8 35.1 C 386.3 35.1 386.6 33.3 387.2 33.2 C 387.8 33.2 388.1 33.2 388.7 33.2 C 389.3 33.2 389.6 33.1 390.2 32.7 C 390.8 32.4 391.1 31.7 391.6 31.7 C 392.2 31.7 392.5 34.1 393.1 34.1 C 393.7 34.1 394.0 33.3 394.6 33.0 C 395.2 32.7 395.5 33.0 396.1 32.7 C 396.6 32.4 396.9 29.1 397.5 29.1 C 398.1 29.1 398.4 30.4 399.0 30.4 C 399.6 30.4 399.9 25.8 400.5 25.8 C 401.1 25.8 401.4 25.8 402 26.0 C 402.5 26.1 402.8 30.2 403.4 30.2 C 404.0 30.2 404.3 29.2 404.9 29.2 C 405.5 29.2 405.8 32.9 406.4 32.9 C 407.0 32.9 407.3 32.7 407.8 32.4 C 408.4 32.1 408.7 32.4 409.3 31.6 C 409.9 30.8 410.2 28.0 410.8 28.0 C 411.4 28.0 411.7 30.0 412.3 30.0 C 412.8 30.0 413.1 27.0 413.7 27.0 C 414.3 27.0 414.6 31.3 415.2 31.3 C 415.8 31.3 416.1 27.6 416.7 27.6 C 417.3 27.6 417.6 32.0 418.1 32.7 C 418.7 33.4 419.0 33.4 419.6 33.4 C 420.2 33.4 420.5 31.4 421.1 31.4 C 421.7 31.4 422.0 32.7 422.6 33.1 C 423.2 33.6 423.4 33.5 424.0 33.6 C 424.6 33.7 424.9 33.6 425.5 33.7 C 426.1 33.8 426.4 34.5 427.0 34.5 C 427.6 34.5 427.9 34.2 428.5 34.2 C 429.0 34.2 429.3 35.1 429.9 35.5 C 430.5 35.9 430.8 36.1 431.4 36.1 C 432.0 36.1 432.3 35.1 432.9 35.1 C 433.5 35.1 433.8 35.5 434.3 35.5 C 434.9 35.5 435.2 35.5 435.8 34.9 C 436.4 34.3 436.7 32.0 437.3 32.0 C 437.9 32.0 438.2 34.8 438.8 34.8 C 439.4 34.8 439.6 33.3 440.2 31.8 C 440.8 30.3 441.1 27.3 441.7 27.3 C 442.3 27.3 442.6 31.5 443.2 31.5 C 443.8 31.5 444.1 30.0 444.7 29.6 C 445.2 29.1 445.5 29.6 446.1 29.1 C 446.7 28.7 447.0 25.6 447.6 25.6 C 448.2 25.6 448.5 28.3 449.1 29.0 C 449.7 29.6 450.0 29.6 450.5 29.6 C 451.1 29.6 451.4 29.6 452.0 29.3 C 452.6 29.0 452.9 29.2 453.5 28.2 C 454.1 27.2 454.4 24.4 455.0 24.4 C 455.6 24.4 455.8 26.0 456.4 27.5 C 457.0 29.0 457.3 31.0 457.9 31.9 C 458.5 32.8 458.8 32.8 459.4 32.8 C 460.0 32.8 460.3 30.7 460.9 30.7 C 461.4 30.7 461.7 30.8 462.3 31.1 C 462.9 31.3 463.2 31.7 463.8 32.1 C 464.4 32.5 464.7 32.9 465.3 33.1 C 465.9 33.3 466.2 33.1 466.7 33.3 C 467.3 33.5 467.6 33.7 468.2 34.0 C 468.8 34.4 469.1 34.9 469.7 34.9 C 470.3 34.9 470.6 33.9 471.2 33.5 C 471.7 33.2 472.0 33.0 472.6 33.0 C 473.2 33.0 473.5 34.3 474.1 34.3 C 474.7 34.3 475.0 31.0 475.6 31.0 C 476.2 31.0 476.5 32.7 477.0 33.6 C 477.6 34.6 477.9 35.6 478.5 35.6 C 479.1 35.6 479.4 35.6 480.0 34.7 C 480.6 33.7 480.9 30.7 481.5 30.7 C 482.1 30.7 482.4 34.8 482.9 34.8 C 483.5 34.8 483.8 34.8 484.4 34.0 C 485.0 33.3 485.3 30.5 485.9 30.5 C 486.5 30.5 486.8 33.3 487.4 33.3 C 487.9 33.3 488.2 30.7 488.8 30.7 C 489.4 30.7 489.7 31.6 490.3 31.6 C 490.9 31.6 491.2 30.3 491.8 30.3 C 492.4 30.3 492.7 31.5 493.2 31.5 C 493.8 31.5 494.1 28.7 494.7 28.7 C 495.3 28.7 495.6 31.9 496.2 31.9 C 496.8 31.9 497.1 28.1 497.7 28.1 C 498.3 28.1 498.5 28.1 499.1 28.4 C 499.7 28.8 500.0 31.2 500.6 31.4 C 501.2 31.5 501.5 31.5 502.1 31.5 C 502.7 31.5 503.0 27.4 503.6 27.4 C 504.1 27.4 504.4 28.5 505.0 29.2 C 505.6 29.8 505.9 29.4 506.5 30.5 C 507.1 31.6 507.4 34.5 508.0 34.5 C 508.6 34.5 508.9 31.1 509.4 31.1 C 510.0 31.1 510.3 32.4 510.9 32.4 C 511.5 32.4 511.8 31.2 512.4 29.5 C 513.0 27.9 513.3 24.1 513.9 24.1 C 514.5 24.1 514.7 31.4 515.3 31.4 C 515.9 31.4 516.2 30.3 516.8 30.3 C 517.4 30.3 517.7 31.7 518.3 32.3 C 518.9 32.8 519.2 33.0 519.8 33.0 C 520.3 33.0 520.6 32.6 521.2 32.3 C 521.8 32.0 522.1 31.7 522.7 31.7 C 523.3 31.7 523.6 32.2 524.2 32.4 C 524.8 32.6 525.1 32.5 525.6 32.7 C 526.2 32.9 526.5 33.5 527.1 33.5 C 527.7 33.5 528.0 33.3 528.6 33.3 C 529.2 33.3 529.5 34.7 530.1 34.7 C 530.6 34.7 530.9 31.8 531.5 30.7 C 532.1 29.7 532.4 29.6 533.0 29.6 C 533.6 29.6 533.9 30.8 534.5 31.4 C 535.1 32.0 536 32.8 536 32.8" stroke="#4572A7" stroke-width="1"  stroke-linejoin="round" stroke-linecap="round"></path></g><g class="highcharts-markers" visibility="visible"  transform="translate(24,331) scale(1 1)" clip-path="url(#highcharts-2)"></g></g><g class="highcharts-navigator" ><rect fill="rgb(128,179,236)" fill-opacity="0.3" style="cursor:ew-resize ;" x="541" y="331" width="19" height="40"></rect><path fill="none" stroke="#b2b1b6" stroke-width="1" d="M 10 331.5 L 540.5 331.5 540.5 385.5 L 559.5 385.5 L 559.5 331.5 574 331.5 M 541.5 331.5 L 559.5 331.5"></path></g><g class="highcharts-navigator-handle-right" style="cursor:ew-resize;"  transform="translate(560,343)"><rect x="-4.5" y="0.5" width="8" height="15" strokeWidth="1" fill="#ebe7e8" stroke="#b2b1b6" stroke-width="1"></rect><path fill="#ebe7e8" d="M -1.5 4 L -1.5 12 M 0.5 4 L 0.5 12" stroke="#b2b1b6" stroke-width="1"></path></g><text x="292" text-anchor="middle" class="highcharts-title"  style="color:black;font-size:16px;font-weight:bold;fill:black;width:520px;" y="22"><tspan>AAPL Stock Volume</tspan></text><g class="highcharts-navigator-handle-left" style="cursor:ew-resize;"  transform="translate(541,343)"><rect x="-4.5" y="0.5" width="8" height="15" strokeWidth="1" fill="#ebe7e8" stroke="#b2b1b6" stroke-width="1"></rect><path fill="#ebe7e8" d="M -1.5 4 L -1.5 12 M 0.5 4 L 0.5 12" stroke="#b2b1b6" stroke-width="1"></path></g><g class="highcharts-axis-labels highcharts-xaxis-labels" ><text x="82.6" style="color:#6e6e70;cursor:default;font-size:11px;fill:#6e6e70;width:71px;text-overflow:clip;" text-anchor="middle" transform="translate(0,0)" y="304" opacity="1"><tspan>18. Feb</tspan></text><text x="164.0" style="color:#6e6e70;cursor:default;font-size:11px;fill:#6e6e70;width:71px;text-overflow:clip;" text-anchor="middle" transform="translate(0,0)" y="304" opacity="1"><tspan>4. Mar</tspan></text><text x="245.4" style="color:#6e6e70;cursor:default;font-size:11px;fill:#6e6e70;width:71px;text-overflow:clip;" text-anchor="middle" transform="translate(0,0)" y="304" opacity="1"><tspan>18. Mar</tspan></text><text x="326.8" style="color:#6e6e70;cursor:default;font-size:11px;fill:#6e6e70;width:71px;text-overflow:clip;" text-anchor="middle" transform="translate(0,0)" y="304" opacity="1"><tspan>1. Apr</tspan></text><text x="408.2" style="color:#6e6e70;cursor:default;font-size:11px;fill:#6e6e70;width:71px;text-overflow:clip;" text-anchor="middle" transform="translate(0,0)" y="304" opacity="1"><tspan>15. Apr</tspan></text><text x="489.6" style="color:#6e6e70;cursor:default;font-size:11px;fill:#6e6e70;width:71px;text-overflow:clip;" text-anchor="middle" transform="translate(0,0)" y="304" opacity="1"><tspan>29. Apr</tspan></text><text x="574" style="color:#6e6e70;cursor:default;font-size:11px;fill:#6e6e70;width:71px;text-overflow:clip;" text-anchor="end" transform="translate(0,0)" y="304" opacity="1"><tspan>13. May</tspan></text></g><g class="highcharts-axis-labels highcharts-xaxis-labels" ><text x="151.7" style="color:#888;cursor:default;font-size:11px;fill:#888;width:178px;text-overflow:clip;" text-anchor="start" transform="translate(0,0)" y="367" opacity="1">2008</text><text x="305.4" style="color:#888;cursor:default;font-size:11px;fill:#888;width:178px;text-overflow:clip;" text-anchor="start" transform="translate(0,0)" y="367" opacity="1">2010</text><text x="459.0" style="color:#888;cursor:default;font-size:11px;fill:#888;width:178px;text-overflow:clip;" text-anchor="start" transform="translate(0,0)" y="367" opacity="1">2012</text></g><g class="highcharts-axis-labels highcharts-yaxis-labels" ><text x="574" style="color:#6e6e70;cursor:default;font-size:11px;fill:#6e6e70;width:183px;text-overflow:clip;" text-anchor="end" transform="translate(0,0)" y="283" opacity="1">0M</text><text x="574" style="color:#6e6e70;cursor:default;font-size:11px;fill:#6e6e70;width:183px;text-overflow:clip;" text-anchor="end" transform="translate(0,0)" y="214" opacity="1">50M</text><text x="574" style="color:#6e6e70;cursor:default;font-size:11px;fill:#6e6e70;width:183px;text-overflow:clip;" text-anchor="end" transform="translate(0,0)" y="146" opacity="1">100M</text><text x="0" style="color:#6e6e70;cursor:default;font-size:11px;fill:#6e6e70;width:183px;text-overflow:clip;" text-anchor="end" transform="translate(0,0)" y="-9999">150M</text></g><g class="highcharts-axis-labels highcharts-yaxis-labels" ></g><g class="highcharts-tooltip"  style="cursor:default;padding:0;white-space:nowrap;" transform="translate(0,-9999)"><path fill="none" d="M 3 0 L 13 0 C 16 0 16 0 16 3 L 16 13 C 16 16 16 16 13 16 L 3 16 C 0 16 0 16 0 13 L 0 3 C 0 0 0 0 3 0"  stroke="black" stroke-opacity="0.0" stroke-width="5" transform="translate(1, 1)"></path><path fill="none" d="M 3 0 L 13 0 C 16 0 16 0 16 3 L 16 13 C 16 16 16 16 13 16 L 3 16 C 0 16 0 16 0 13 L 0 3 C 0 0 0 0 3 0"  stroke="black" stroke-opacity="0.0" stroke-width="3" transform="translate(1, 1)"></path><path fill="none" d="M 3 0 L 13 0 C 16 0 16 0 16 3 L 16 13 C 16 16 16 16 13 16 L 3 16 C 0 16 0 16 0 13 L 0 3 C 0 0 0 0 3 0"  stroke="black" stroke-opacity="0.1" stroke-width="1" transform="translate(1, 1)"></path><path fill="rgb(249, 249, 249)" fill-opacity=" .85" d="M 3 0 L 13 0 C 16 0 16 0 16 3 L 16 13 C 16 16 16 16 13 16 L 3 16 C 0 16 0 16 0 13 L 0 3 C 0 0 0 0 3 0"></path><text x="8"  style="font-size:12px;color:#333333;fill:#333333;" transform="translate(0,20)"></text></g></svg>