<svg version="1.1" style="font-family: signika, serif; font-size: 12px; background-image: url(http://www.highcharts.com/samples/graphics/sand.png); background-attachment: initial; background-origin: initial; background-clip: initial; background-color: initial; background-position: initial initial; background-repeat: initial initial; " xmlns="http://www.w3.org/2000/svg" width="584" height="400" viewBox="0 0 584 400" xmlns:xlink="http://www.w3.org/1999/xlink"><style type="text/css"><![CDATA[@import url(http://fonts.googleapis.com/css?family=Signika:700);]]></style><desc>Created with Highstock 2.1.4</desc><defs><clipPath id="highcharts-1"><rect x="0" y="0" width="564" height="240"></rect></clipPath><clipPath id="highcharts-2"><rect x="-99" y="-45" width="663" height="400"></rect></clipPath><clipPath id="highcharts-3"><rect x="0" y="0" width="564" height="240"></rect></clipPath><clipPath id="highcharts-4"><rect x="-99" y="-45" width="663" height="400"></rect></clipPath><clipPath id="highcharts-5"><rect x="0" y="0" width="564" height="40"></rect></clipPath></defs><path fill="none" d="M 10 165 L 574 165" stroke="silver" stroke-width="2"></path><g class="highcharts-scrollbar" transform="translate(10,372)"><rect x="0" y="-0.5" fill="#eeeeee" stroke="#C0C0C8" stroke-width="1" rx="0" ry="0" height="14" width="564"></rect><rect y="-0.5" height="14" fill="#bfc8d1" stroke="#bfc8d1" stroke-width="1" rx="0" ry="0" x="473.5" width="76"></rect><path fill="none" stroke="#666" stroke-width="1" visibility="visible" d="M 508 3.5 L 508 9.3 M 511 3.5 L 511 9.3 M 514 3.5 L 514 9.3"></path><g><rect x="-0.5" y="-0.5" width="14" height="14" strokeWidth="1" stroke="#bbb" stroke-width="1" fill="#ebe7e8"></rect><path fill="#666" d="M 8 4 L 8 10 5 7"></path></g><g transform="translate(550,0)"><rect x="-0.5" y="-0.5" width="14" height="14" strokeWidth="1" stroke="#bbb" stroke-width="1" fill="#ebe7e8"></rect><path fill="#666" d="M 6 4 L 6 10 9 7"></path></g></g><g class="highcharts-range-selector-buttons"><text x="10" y="25" style="color:#666;fill:#666;">Zoom</text><g class="highcharts-button"  states="[object Object]" style="cursor:pointer;text-align:center;" transform="translate(46,10)"><rect x="0.5" y="0.5" width="32" height="22" strokeWidth="1" fill="white" stroke="#C0C0C8" stroke-width="1" rx="0" ry="0"></rect><text x="7.5"  style="font-weight:normal;color:#444;fill:#444;" transform="translate(0,14)">1m</text></g><g class="highcharts-button"  states="[object Object]" style="cursor:pointer;text-align:center;" transform="translate(83,10)"><rect x="0.5" y="0.5" width="32" height="22" strokeWidth="1" fill="white" stroke="#C0C0C8" stroke-width="1" rx="0" ry="0"></rect><text x="7.5"  style="font-weight:normal;color:#444;fill:#444;" transform="translate(0,14)">3m</text></g><g class="highcharts-button"  states="[object Object]" style="cursor:pointer;text-align:center;" transform="translate(120,10)"><rect x="0.5" y="0.5" width="32" height="22" strokeWidth="1" fill="white" stroke="#C0C0C8" stroke-width="1" rx="0" ry="0"></rect><text x="7.5"  style="font-weight:normal;color:#444;fill:#444;" transform="translate(0,14)">6m</text></g><g class="highcharts-button"  states="[object Object]" style="cursor:pointer;text-align:center;" transform="translate(157,10)"><rect x="0.5" y="0.5" width="32" height="22" strokeWidth="1" fill="white" stroke="#C0C0C8" stroke-width="1" rx="0" ry="0"></rect><text x="4"  style="font-weight:normal;color:#444;fill:#444;" transform="translate(0,14)">YTD</text></g><g class="highcharts-button"  states="[object Object]" style="cursor:pointer;text-align:center;" transform="translate(194,10)"><rect x="0.5" y="0.5" width="32" height="22" strokeWidth="1" fill="#D0D0D8" stroke="#68A" stroke-width="1" rx="0" ry="0"></rect><text x="9.5"  style="font-weight:bold;color:black;fill:black;" transform="translate(0,14)">1y</text></g><g class="highcharts-button"  states="[object Object]" style="cursor:pointer;text-align:center;" transform="translate(231,10)"><rect x="0.5" y="0.5" width="32" height="22" strokeWidth="1" fill="white" stroke="#C0C0C8" stroke-width="1" rx="0" ry="0"></rect><text x="10"  style="font-weight:normal;color:#444;fill:#444;" transform="translate(0,14)">All</text></g></g><g class="highcharts-input-group" transform="translate(276,10)" visibility="visible"><g style="fill:#666;" transform="translate(0,0)"><text x="2"  style="font-size:12px;font-family:signika, serif;color:#666;fill:#666;" transform="translate(0,14)">From</text></g><g style="text-align:center;" transform="translate(36,0)"><rect x="0.5" y="0.5" width="94" height="21" strokeWidth="1" fill="none" stroke="silver" stroke-width="1"></rect><text x="9.5"  style="font-size:12px;font-family:signika, serif;color:#444;fill:#444;" transform="translate(0,14)"><tspan>May 10, 2012</tspan></text></g><g style="fill:#666;" transform="translate(140,0)"><text x="2"  style="font-size:12px;font-family:signika, serif;color:#666;fill:#666;" transform="translate(0,14)">To</text></g><g style="text-align:center;" transform="translate(164,0)"><rect x="0.5" y="0.5" width="94" height="21" strokeWidth="1" fill="none" stroke="silver" stroke-width="1"></rect><text x="9.5"  style="font-size:12px;font-family:signika, serif;color:#444;fill:#444;" transform="translate(0,14)"><tspan>May 10, 2013</tspan></text></g></g><g class="highcharts-grid" ></g><g class="highcharts-grid" ><path fill="none" d="M 148.5 331 L 148.5 371" stroke="#D0D0D8" stroke-width="1"  opacity="1"></path><path fill="none" d="M 301.5 331 L 301.5 371" stroke="#D0D0D8" stroke-width="1"  opacity="1"></path><path fill="none" d="M 455.5 331 L 455.5 371" stroke="#D0D0D8" stroke-width="1"  opacity="1"></path></g><g class="highcharts-grid" ><path fill="none" d="M 10 285.5 L 574 285.5" stroke="#D8D8D8" stroke-width="1"  opacity="1"></path><path fill="none" d="M 10 225.5 L 574 225.5" stroke="#D8D8D8" stroke-width="1"  opacity="1"></path><path fill="none" d="M 10 165.5 L 574 165.5" stroke="#D8D8D8" stroke-width="1"  opacity="1"></path><path fill="none" d="M 10 105.5 L 574 105.5" stroke="#D8D8D8" stroke-width="1"  opacity="1"></path><path fill="none" d="M 10 44.5 L 574 44.5" stroke="#D8D8D8" stroke-width="1"  opacity="1"></path></g><g class="highcharts-grid" ></g><g class="highcharts-axis" ><path fill="none" d="M 89.5 285 L 89.5 295" stroke="#C0D0E0" stroke-width="1" opacity="1"></path><path fill="none" d="M 188.5 285 L 188.5 295" stroke="#C0D0E0" stroke-width="1" opacity="1"></path><path fill="none" d="M 280.5 285 L 280.5 295" stroke="#C0D0E0" stroke-width="1" opacity="1"></path><path fill="none" d="M 371.5 285 L 371.5 295" stroke="#C0D0E0" stroke-width="1" opacity="1"></path><path fill="none" d="M 462.5 285 L 462.5 295" stroke="#C0D0E0" stroke-width="1" opacity="1"></path><path fill="none" d="M 557.5 285 L 557.5 295" stroke="#C0D0E0" stroke-width="1" opacity="1"></path><path fill="none" d="M 10 285.5 L 574 285.5" stroke="#C0D0E0" stroke-width="1"  visibility="visible"></path></g><g class="highcharts-axis" ></g><g class="highcharts-axis" ></g><g class="highcharts-axis" ></g><g class="highcharts-series-group" ><g class="highcharts-series" visibility="visible"  transform="translate(10,45) scale(1 1)" clip-path="url(#highcharts-3)"><path fill="none" d="M -2.2 119.8 L 0 120 L 2.2 116.7 L 4.5 120.4 L 6.7 124.1 L 9.0 126.5 L 11.2 127.9 L 13.5 131.4 L 15.7 127.7 L 18.0 127.6 L 20.3 132.7 L 22.5 133.0 L 24.8 133.1 L 27.0 129.2 L 29.3 130.9 L 31.5 132.1 L 33.8 137.8 L 36.0 137.0 L 38.3 137.4 L 40.6 130.8 L 42.8 131.7 L 45.1 128.5 L 47.3 134.3 L 49.6 131.3 L 51.8 132.5 L 54.1 130.9 L 56.4 125.6 L 58.6 127.0 L 60.9 120.3 L 63.1 118.5 L 65.4 124.6 L 67.6 120.3 L 69.9 126.8 L 72.1 125.6 L 74.4 124.4 L 76.7 126.4 L 78.9 121.1 L 81.2 121.4 L 83.4 119.8 L 85.7 120.3 L 87.9 124.3 L 90.2 125.7 L 92.4 127.8 L 94.7 131.2 L 97.0 136.4 L 99.2 130.5 L 101.5 130.1 L 103.7 128.4 L 106.0 122.2 L 108.2 120.6 L 110.5 124.8 L 112.8 131.3 L 115.0 132.4 L 117.3 134.9 L 119.5 132.3 L 121.8 127.6 L 124.0 128.5 L 126.3 129.9 L 128.5 130.3 L 130.8 132.1 L 133.1 127.7 L 135.3 126.1 L 137.6 123.7 L 139.8 123.2 L 142.1 121.8 L 144.3 122.4 L 146.6 122.7 L 148.8 124.7 L 151.1 124.2 L 153.4 119.6 L 155.6 118.7 L 157.9 120 L 160.1 119.5 L 162.4 121.5 L 164.6 123.7 L 166.9 121.4 L 169.2 120.3 L 171.4 120.8 L 173.7 120.7 L 175.9 123.2 L 178.2 119.3 L 180.4 122.8 L 182.7 122.7 L 184.9 115.3 L 187.2 118.3 L 189.5 120.1 L 191.7 119.6 L 194.0 119.6 L 196.2 118.4 L 198.5 116.3 L 200.7 116.3 L 203.0 116.5 L 205.2 117.5 L 207.5 114.4 L 209.8 116.4 L 212.0 119.6 L 214.3 122.7 L 216.5 124.5 L 218.8 124.5 L 221.0 127.6 L 223.3 129.7 L 225.6 128.4 L 227.8 126.8 L 230.1 125.5 L 232.3 126.9 L 234.6 127.4 L 236.8 131.3 L 239.1 133.7 L 241.3 133.9 L 243.6 132.0 L 245.9 129.6 L 248.1 129.7 L 250.4 128.9 L 252.6 129.6 L 254.9 136.3 L 257.1 141.3 L 259.4 141.0 L 261.6 142.1 L 263.9 142.3 L 266.2 139.7 L 268.4 137.1 L 270.7 129.5 L 272.9 129.6 L 275.2 128.6 L 277.4 126.8 L 279.7 132.9 L 282 135.0 L 284.2 134.9 L 286.5 139.6 L 288.7 148.4 L 291.0 150.4 L 293.2 151.8 L 295.5 152.9 L 297.7 151.3 L 300.0 151.4 L 302.3 149.5 L 304.5 143.7 L 306.8 146.2 L 309.0 148.5 L 311.3 146.3 L 313.5 149.5 L 315.8 152.1 L 318.0 153.6 L 320.3 154.1 L 322.6 151.7 L 324.8 151.3 L 327.1 153.4 L 329.3 149.6 L 331.6 146.7 L 333.8 147.3 L 336.1 148.3 L 338.4 150.6 L 340.6 148.4 L 342.9 144.8 L 345.1 146.7 L 347.4 143.8 L 349.6 145.6 L 351.9 148.7 L 354.1 150.2 L 356.4 149.5 L 358.7 152.7 L 360.9 151.4 L 363.2 144.3 L 365.4 147.2 L 367.7 151.2 L 369.9 151.6 L 372.2 152.7 L 374.4 151.5 L 376.7 153.4 L 379.0 150.5 L 381.2 150.0 L 383.5 147.5 L 385.7 148.8 L 388.0 147.2 L 390.2 147.2 L 392.5 148.0 L 394.8 144.4 L 397.0 144.2 L 399.3 142.3 L 401.5 142.0 L 403.8 141.3 L 406.0 142.5 L 408.3 145.6 L 410.5 141.9 L 412.8 145.7 L 415.1 145.2 L 417.3 146.5 L 419.6 147.0 L 421.8 144.9 L 424.1 142.4 L 426.3 142.3 L 428.6 141.1 L 430.8 141.0 L 433.1 141.3 L 435.4 141.0 L 437.6 142.4 L 439.9 145.3 L 442.1 143.2 L 444.4 146.3 L 446.6 146.3 L 448.9 142.8 L 451.2 142.9 L 453.4 141.7 L 455.7 140.2 L 457.9 138.6 L 460.2 140.6 L 462.4 140.2 L 464.7 141.3 L 466.9 142.4 L 469.2 142.0 L 471.5 142.0 L 473.7 140.2 L 476.0 141.0 L 478.2 140.6 L 480.5 139.9 L 482.7 138.8 L 485.0 140.5 L 487.2 139.4 L 489.5 140.1 L 491.8 140.1 L 494.0 138.5 L 496.3 136.7 L 498.5 136.6 L 500.8 135.1 L 503.0 137.0 L 505.3 136.7 L 507.5 135.9 L 509.8 136.7 L 512.1 128.8 L 514.3 123.5 L 516.6 134.0 L 518.8 135.2 L 521.1 136.0 L 523.3 133.8 L 525.6 134.9 L 527.9 135.2 L 530.1 127.6 L 532.4 119.2 L 534.6 121.0 L 536.9 112.0 L 539.1 110.6 L 541.4 111.8 L 543.6 105.4 L 545.9 101.5 L 548.2 104.5 L 550.4 101.1 L 552.7 98.5 L 554.9 96.4 L 557.2 99.9 L 559.4 102.4 L 561.7 105.0 L 564 104.7" stroke="black" stroke-width="5"  stroke-linejoin="round" stroke-linecap="round"  stroke-opacity="0.0" transform="translate(1, 1)"></path><path fill="none" d="M -2.2 119.8 L 0 120 L 2.2 116.7 L 4.5 120.4 L 6.7 124.1 L 9.0 126.5 L 11.2 127.9 L 13.5 131.4 L 15.7 127.7 L 18.0 127.6 L 20.3 132.7 L 22.5 133.0 L 24.8 133.1 L 27.0 129.2 L 29.3 130.9 L 31.5 132.1 L 33.8 137.8 L 36.0 137.0 L 38.3 137.4 L 40.6 130.8 L 42.8 131.7 L 45.1 128.5 L 47.3 134.3 L 49.6 131.3 L 51.8 132.5 L 54.1 130.9 L 56.4 125.6 L 58.6 127.0 L 60.9 120.3 L 63.1 118.5 L 65.4 124.6 L 67.6 120.3 L 69.9 126.8 L 72.1 125.6 L 74.4 124.4 L 76.7 126.4 L 78.9 121.1 L 81.2 121.4 L 83.4 119.8 L 85.7 120.3 L 87.9 124.3 L 90.2 125.7 L 92.4 127.8 L 94.7 131.2 L 97.0 136.4 L 99.2 130.5 L 101.5 130.1 L 103.7 128.4 L 106.0 122.2 L 108.2 120.6 L 110.5 124.8 L 112.8 131.3 L 115.0 132.4 L 117.3 134.9 L 119.5 132.3 L 121.8 127.6 L 124.0 128.5 L 126.3 129.9 L 128.5 130.3 L 130.8 132.1 L 133.1 127.7 L 135.3 126.1 L 137.6 123.7 L 139.8 123.2 L 142.1 121.8 L 144.3 122.4 L 146.6 122.7 L 148.8 124.7 L 151.1 124.2 L 153.4 119.6 L 155.6 118.7 L 157.9 120 L 160.1 119.5 L 162.4 121.5 L 164.6 123.7 L 166.9 121.4 L 169.2 120.3 L 171.4 120.8 L 173.7 120.7 L 175.9 123.2 L 178.2 119.3 L 180.4 122.8 L 182.7 122.7 L 184.9 115.3 L 187.2 118.3 L 189.5 120.1 L 191.7 119.6 L 194.0 119.6 L 196.2 118.4 L 198.5 116.3 L 200.7 116.3 L 203.0 116.5 L 205.2 117.5 L 207.5 114.4 L 209.8 116.4 L 212.0 119.6 L 214.3 122.7 L 216.5 124.5 L 218.8 124.5 L 221.0 127.6 L 223.3 129.7 L 225.6 128.4 L 227.8 126.8 L 230.1 125.5 L 232.3 126.9 L 234.6 127.4 L 236.8 131.3 L 239.1 133.7 L 241.3 133.9 L 243.6 132.0 L 245.9 129.6 L 248.1 129.7 L 250.4 128.9 L 252.6 129.6 L 254.9 136.3 L 257.1 141.3 L 259.4 141.0 L 261.6 142.1 L 263.9 142.3 L 266.2 139.7 L 268.4 137.1 L 270.7 129.5 L 272.9 129.6 L 275.2 128.6 L 277.4 126.8 L 279.7 132.9 L 282 135.0 L 284.2 134.9 L 286.5 139.6 L 288.7 148.4 L 291.0 150.4 L 293.2 151.8 L 295.5 152.9 L 297.7 151.3 L 300.0 151.4 L 302.3 149.5 L 304.5 143.7 L 306.8 146.2 L 309.0 148.5 L 311.3 146.3 L 313.5 149.5 L 315.8 152.1 L 318.0 153.6 L 320.3 154.1 L 322.6 151.7 L 324.8 151.3 L 327.1 153.4 L 329.3 149.6 L 331.6 146.7 L 333.8 147.3 L 336.1 148.3 L 338.4 150.6 L 340.6 148.4 L 342.9 144.8 L 345.1 146.7 L 347.4 143.8 L 349.6 145.6 L 351.9 148.7 L 354.1 150.2 L 356.4 149.5 L 358.7 152.7 L 360.9 151.4 L 363.2 144.3 L 365.4 147.2 L 367.7 151.2 L 369.9 151.6 L 372.2 152.7 L 374.4 151.5 L 376.7 153.4 L 379.0 150.5 L 381.2 150.0 L 383.5 147.5 L 385.7 148.8 L 388.0 147.2 L 390.2 147.2 L 392.5 148.0 L 394.8 144.4 L 397.0 144.2 L 399.3 142.3 L 401.5 142.0 L 403.8 141.3 L 406.0 142.5 L 408.3 145.6 L 410.5 141.9 L 412.8 145.7 L 415.1 145.2 L 417.3 146.5 L 419.6 147.0 L 421.8 144.9 L 424.1 142.4 L 426.3 142.3 L 428.6 141.1 L 430.8 141.0 L 433.1 141.3 L 435.4 141.0 L 437.6 142.4 L 439.9 145.3 L 442.1 143.2 L 444.4 146.3 L 446.6 146.3 L 448.9 142.8 L 451.2 142.9 L 453.4 141.7 L 455.7 140.2 L 457.9 138.6 L 460.2 140.6 L 462.4 140.2 L 464.7 141.3 L 466.9 142.4 L 469.2 142.0 L 471.5 142.0 L 473.7 140.2 L 476.0 141.0 L 478.2 140.6 L 480.5 139.9 L 482.7 138.8 L 485.0 140.5 L 487.2 139.4 L 489.5 140.1 L 491.8 140.1 L 494.0 138.5 L 496.3 136.7 L 498.5 136.6 L 500.8 135.1 L 503.0 137.0 L 505.3 136.7 L 507.5 135.9 L 509.8 136.7 L 512.1 128.8 L 514.3 123.5 L 516.6 134.0 L 518.8 135.2 L 521.1 136.0 L 523.3 133.8 L 525.6 134.9 L 527.9 135.2 L 530.1 127.6 L 532.4 119.2 L 534.6 121.0 L 536.9 112.0 L 539.1 110.6 L 541.4 111.8 L 543.6 105.4 L 545.9 101.5 L 548.2 104.5 L 550.4 101.1 L 552.7 98.5 L 554.9 96.4 L 557.2 99.9 L 559.4 102.4 L 561.7 105.0 L 564 104.7" stroke="black" stroke-width="3"  stroke-linejoin="round" stroke-linecap="round"  stroke-opacity="0.0" transform="translate(1, 1)"></path><path fill="none" d="M -2.2 119.8 L 0 120 L 2.2 116.7 L 4.5 120.4 L 6.7 124.1 L 9.0 126.5 L 11.2 127.9 L 13.5 131.4 L 15.7 127.7 L 18.0 127.6 L 20.3 132.7 L 22.5 133.0 L 24.8 133.1 L 27.0 129.2 L 29.3 130.9 L 31.5 132.1 L 33.8 137.8 L 36.0 137.0 L 38.3 137.4 L 40.6 130.8 L 42.8 131.7 L 45.1 128.5 L 47.3 134.3 L 49.6 131.3 L 51.8 132.5 L 54.1 130.9 L 56.4 125.6 L 58.6 127.0 L 60.9 120.3 L 63.1 118.5 L 65.4 124.6 L 67.6 120.3 L 69.9 126.8 L 72.1 125.6 L 74.4 124.4 L 76.7 126.4 L 78.9 121.1 L 81.2 121.4 L 83.4 119.8 L 85.7 120.3 L 87.9 124.3 L 90.2 125.7 L 92.4 127.8 L 94.7 131.2 L 97.0 136.4 L 99.2 130.5 L 101.5 130.1 L 103.7 128.4 L 106.0 122.2 L 108.2 120.6 L 110.5 124.8 L 112.8 131.3 L 115.0 132.4 L 117.3 134.9 L 119.5 132.3 L 121.8 127.6 L 124.0 128.5 L 126.3 129.9 L 128.5 130.3 L 130.8 132.1 L 133.1 127.7 L 135.3 126.1 L 137.6 123.7 L 139.8 123.2 L 142.1 121.8 L 144.3 122.4 L 146.6 122.7 L 148.8 124.7 L 151.1 124.2 L 153.4 119.6 L 155.6 118.7 L 157.9 120 L 160.1 119.5 L 162.4 121.5 L 164.6 123.7 L 166.9 121.4 L 169.2 120.3 L 171.4 120.8 L 173.7 120.7 L 175.9 123.2 L 178.2 119.3 L 180.4 122.8 L 182.7 122.7 L 184.9 115.3 L 187.2 118.3 L 189.5 120.1 L 191.7 119.6 L 194.0 119.6 L 196.2 118.4 L 198.5 116.3 L 200.7 116.3 L 203.0 116.5 L 205.2 117.5 L 207.5 114.4 L 209.8 116.4 L 212.0 119.6 L 214.3 122.7 L 216.5 124.5 L 218.8 124.5 L 221.0 127.6 L 223.3 129.7 L 225.6 128.4 L 227.8 126.8 L 230.1 125.5 L 232.3 126.9 L 234.6 127.4 L 236.8 131.3 L 239.1 133.7 L 241.3 133.9 L 243.6 132.0 L 245.9 129.6 L 248.1 129.7 L 250.4 128.9 L 252.6 129.6 L 254.9 136.3 L 257.1 141.3 L 259.4 141.0 L 261.6 142.1 L 263.9 142.3 L 266.2 139.7 L 268.4 137.1 L 270.7 129.5 L 272.9 129.6 L 275.2 128.6 L 277.4 126.8 L 279.7 132.9 L 282 135.0 L 284.2 134.9 L 286.5 139.6 L 288.7 148.4 L 291.0 150.4 L 293.2 151.8 L 295.5 152.9 L 297.7 151.3 L 300.0 151.4 L 302.3 149.5 L 304.5 143.7 L 306.8 146.2 L 309.0 148.5 L 311.3 146.3 L 313.5 149.5 L 315.8 152.1 L 318.0 153.6 L 320.3 154.1 L 322.6 151.7 L 324.8 151.3 L 327.1 153.4 L 329.3 149.6 L 331.6 146.7 L 333.8 147.3 L 336.1 148.3 L 338.4 150.6 L 340.6 148.4 L 342.9 144.8 L 345.1 146.7 L 347.4 143.8 L 349.6 145.6 L 351.9 148.7 L 354.1 150.2 L 356.4 149.5 L 358.7 152.7 L 360.9 151.4 L 363.2 144.3 L 365.4 147.2 L 367.7 151.2 L 369.9 151.6 L 372.2 152.7 L 374.4 151.5 L 376.7 153.4 L 379.0 150.5 L 381.2 150.0 L 383.5 147.5 L 385.7 148.8 L 388.0 147.2 L 390.2 147.2 L 392.5 148.0 L 394.8 144.4 L 397.0 144.2 L 399.3 142.3 L 401.5 142.0 L 403.8 141.3 L 406.0 142.5 L 408.3 145.6 L 410.5 141.9 L 412.8 145.7 L 415.1 145.2 L 417.3 146.5 L 419.6 147.0 L 421.8 144.9 L 424.1 142.4 L 426.3 142.3 L 428.6 141.1 L 430.8 141.0 L 433.1 141.3 L 435.4 141.0 L 437.6 142.4 L 439.9 145.3 L 442.1 143.2 L 444.4 146.3 L 446.6 146.3 L 448.9 142.8 L 451.2 142.9 L 453.4 141.7 L 455.7 140.2 L 457.9 138.6 L 460.2 140.6 L 462.4 140.2 L 464.7 141.3 L 466.9 142.4 L 469.2 142.0 L 471.5 142.0 L 473.7 140.2 L 476.0 141.0 L 478.2 140.6 L 480.5 139.9 L 482.7 138.8 L 485.0 140.5 L 487.2 139.4 L 489.5 140.1 L 491.8 140.1 L 494.0 138.5 L 496.3 136.7 L 498.5 136.6 L 500.8 135.1 L 503.0 137.0 L 505.3 136.7 L 507.5 135.9 L 509.8 136.7 L 512.1 128.8 L 514.3 123.5 L 516.6 134.0 L 518.8 135.2 L 521.1 136.0 L 523.3 133.8 L 525.6 134.9 L 527.9 135.2 L 530.1 127.6 L 532.4 119.2 L 534.6 121.0 L 536.9 112.0 L 539.1 110.6 L 541.4 111.8 L 543.6 105.4 L 545.9 101.5 L 548.2 104.5 L 550.4 101.1 L 552.7 98.5 L 554.9 96.4 L 557.2 99.9 L 559.4 102.4 L 561.7 105.0 L 564 104.7" stroke="black" stroke-width="1"  stroke-linejoin="round" stroke-linecap="round"  stroke-opacity="0.1" transform="translate(1, 1)"></path><path fill="none" d="M -2.2 119.8 L 0 120 L 2.2 116.7 L 4.5 120.4 L 6.7 124.1 L 9.0 126.5 L 11.2 127.9 L 13.5 131.4 L 15.7 127.7 L 18.0 127.6 L 20.3 132.7 L 22.5 133.0 L 24.8 133.1 L 27.0 129.2 L 29.3 130.9 L 31.5 132.1 L 33.8 137.8 L 36.0 137.0 L 38.3 137.4 L 40.6 130.8 L 42.8 131.7 L 45.1 128.5 L 47.3 134.3 L 49.6 131.3 L 51.8 132.5 L 54.1 130.9 L 56.4 125.6 L 58.6 127.0 L 60.9 120.3 L 63.1 118.5 L 65.4 124.6 L 67.6 120.3 L 69.9 126.8 L 72.1 125.6 L 74.4 124.4 L 76.7 126.4 L 78.9 121.1 L 81.2 121.4 L 83.4 119.8 L 85.7 120.3 L 87.9 124.3 L 90.2 125.7 L 92.4 127.8 L 94.7 131.2 L 97.0 136.4 L 99.2 130.5 L 101.5 130.1 L 103.7 128.4 L 106.0 122.2 L 108.2 120.6 L 110.5 124.8 L 112.8 131.3 L 115.0 132.4 L 117.3 134.9 L 119.5 132.3 L 121.8 127.6 L 124.0 128.5 L 126.3 129.9 L 128.5 130.3 L 130.8 132.1 L 133.1 127.7 L 135.3 126.1 L 137.6 123.7 L 139.8 123.2 L 142.1 121.8 L 144.3 122.4 L 146.6 122.7 L 148.8 124.7 L 151.1 124.2 L 153.4 119.6 L 155.6 118.7 L 157.9 120 L 160.1 119.5 L 162.4 121.5 L 164.6 123.7 L 166.9 121.4 L 169.2 120.3 L 171.4 120.8 L 173.7 120.7 L 175.9 123.2 L 178.2 119.3 L 180.4 122.8 L 182.7 122.7 L 184.9 115.3 L 187.2 118.3 L 189.5 120.1 L 191.7 119.6 L 194.0 119.6 L 196.2 118.4 L 198.5 116.3 L 200.7 116.3 L 203.0 116.5 L 205.2 117.5 L 207.5 114.4 L 209.8 116.4 L 212.0 119.6 L 214.3 122.7 L 216.5 124.5 L 218.8 124.5 L 221.0 127.6 L 223.3 129.7 L 225.6 128.4 L 227.8 126.8 L 230.1 125.5 L 232.3 126.9 L 234.6 127.4 L 236.8 131.3 L 239.1 133.7 L 241.3 133.9 L 243.6 132.0 L 245.9 129.6 L 248.1 129.7 L 250.4 128.9 L 252.6 129.6 L 254.9 136.3 L 257.1 141.3 L 259.4 141.0 L 261.6 142.1 L 263.9 142.3 L 266.2 139.7 L 268.4 137.1 L 270.7 129.5 L 272.9 129.6 L 275.2 128.6 L 277.4 126.8 L 279.7 132.9 L 282 135.0 L 284.2 134.9 L 286.5 139.6 L 288.7 148.4 L 291.0 150.4 L 293.2 151.8 L 295.5 152.9 L 297.7 151.3 L 300.0 151.4 L 302.3 149.5 L 304.5 143.7 L 306.8 146.2 L 309.0 148.5 L 311.3 146.3 L 313.5 149.5 L 315.8 152.1 L 318.0 153.6 L 320.3 154.1 L 322.6 151.7 L 324.8 151.3 L 327.1 153.4 L 329.3 149.6 L 331.6 146.7 L 333.8 147.3 L 336.1 148.3 L 338.4 150.6 L 340.6 148.4 L 342.9 144.8 L 345.1 146.7 L 347.4 143.8 L 349.6 145.6 L 351.9 148.7 L 354.1 150.2 L 356.4 149.5 L 358.7 152.7 L 360.9 151.4 L 363.2 144.3 L 365.4 147.2 L 367.7 151.2 L 369.9 151.6 L 372.2 152.7 L 374.4 151.5 L 376.7 153.4 L 379.0 150.5 L 381.2 150.0 L 383.5 147.5 L 385.7 148.8 L 388.0 147.2 L 390.2 147.2 L 392.5 148.0 L 394.8 144.4 L 397.0 144.2 L 399.3 142.3 L 401.5 142.0 L 403.8 141.3 L 406.0 142.5 L 408.3 145.6 L 410.5 141.9 L 412.8 145.7 L 415.1 145.2 L 417.3 146.5 L 419.6 147.0 L 421.8 144.9 L 424.1 142.4 L 426.3 142.3 L 428.6 141.1 L 430.8 141.0 L 433.1 141.3 L 435.4 141.0 L 437.6 142.4 L 439.9 145.3 L 442.1 143.2 L 444.4 146.3 L 446.6 146.3 L 448.9 142.8 L 451.2 142.9 L 453.4 141.7 L 455.7 140.2 L 457.9 138.6 L 460.2 140.6 L 462.4 140.2 L 464.7 141.3 L 466.9 142.4 L 469.2 142.0 L 471.5 142.0 L 473.7 140.2 L 476.0 141.0 L 478.2 140.6 L 480.5 139.9 L 482.7 138.8 L 485.0 140.5 L 487.2 139.4 L 489.5 140.1 L 491.8 140.1 L 494.0 138.5 L 496.3 136.7 L 498.5 136.6 L 500.8 135.1 L 503.0 137.0 L 505.3 136.7 L 507.5 135.9 L 509.8 136.7 L 512.1 128.8 L 514.3 123.5 L 516.6 134.0 L 518.8 135.2 L 521.1 136.0 L 523.3 133.8 L 525.6 134.9 L 527.9 135.2 L 530.1 127.6 L 532.4 119.2 L 534.6 121.0 L 536.9 112.0 L 539.1 110.6 L 541.4 111.8 L 543.6 105.4 L 545.9 101.5 L 548.2 104.5 L 550.4 101.1 L 552.7 98.5 L 554.9 96.4 L 557.2 99.9 L 559.4 102.4 L 561.7 105.0 L 564 104.7" stroke="#f45b5b" stroke-width="2"  stroke-linejoin="round" stroke-linecap="round"></path><path fill="none" d="M -12.2 119.8 L -2.2 119.8 L 0 120 L 2.2 116.7 L 4.5 120.4 L 6.7 124.1 L 9.0 126.5 L 11.2 127.9 L 13.5 131.4 L 15.7 127.7 L 18.0 127.6 L 20.3 132.7 L 22.5 133.0 L 24.8 133.1 L 27.0 129.2 L 29.3 130.9 L 31.5 132.1 L 33.8 137.8 L 36.0 137.0 L 38.3 137.4 L 40.6 130.8 L 42.8 131.7 L 45.1 128.5 L 47.3 134.3 L 49.6 131.3 L 51.8 132.5 L 54.1 130.9 L 56.4 125.6 L 58.6 127.0 L 60.9 120.3 L 63.1 118.5 L 65.4 124.6 L 67.6 120.3 L 69.9 126.8 L 72.1 125.6 L 74.4 124.4 L 76.7 126.4 L 78.9 121.1 L 81.2 121.4 L 83.4 119.8 L 85.7 120.3 L 87.9 124.3 L 90.2 125.7 L 92.4 127.8 L 94.7 131.2 L 97.0 136.4 L 99.2 130.5 L 101.5 130.1 L 103.7 128.4 L 106.0 122.2 L 108.2 120.6 L 110.5 124.8 L 112.8 131.3 L 115.0 132.4 L 117.3 134.9 L 119.5 132.3 L 121.8 127.6 L 124.0 128.5 L 126.3 129.9 L 128.5 130.3 L 130.8 132.1 L 133.1 127.7 L 135.3 126.1 L 137.6 123.7 L 139.8 123.2 L 142.1 121.8 L 144.3 122.4 L 146.6 122.7 L 148.8 124.7 L 151.1 124.2 L 153.4 119.6 L 155.6 118.7 L 157.9 120 L 160.1 119.5 L 162.4 121.5 L 164.6 123.7 L 166.9 121.4 L 169.2 120.3 L 171.4 120.8 L 173.7 120.7 L 175.9 123.2 L 178.2 119.3 L 180.4 122.8 L 182.7 122.7 L 184.9 115.3 L 187.2 118.3 L 189.5 120.1 L 191.7 119.6 L 194.0 119.6 L 196.2 118.4 L 198.5 116.3 L 200.7 116.3 L 203.0 116.5 L 205.2 117.5 L 207.5 114.4 L 209.8 116.4 L 212.0 119.6 L 214.3 122.7 L 216.5 124.5 L 218.8 124.5 L 221.0 127.6 L 223.3 129.7 L 225.6 128.4 L 227.8 126.8 L 230.1 125.5 L 232.3 126.9 L 234.6 127.4 L 236.8 131.3 L 239.1 133.7 L 241.3 133.9 L 243.6 132.0 L 245.9 129.6 L 248.1 129.7 L 250.4 128.9 L 252.6 129.6 L 254.9 136.3 L 257.1 141.3 L 259.4 141.0 L 261.6 142.1 L 263.9 142.3 L 266.2 139.7 L 268.4 137.1 L 270.7 129.5 L 272.9 129.6 L 275.2 128.6 L 277.4 126.8 L 279.7 132.9 L 282 135.0 L 284.2 134.9 L 286.5 139.6 L 288.7 148.4 L 291.0 150.4 L 293.2 151.8 L 295.5 152.9 L 297.7 151.3 L 300.0 151.4 L 302.3 149.5 L 304.5 143.7 L 306.8 146.2 L 309.0 148.5 L 311.3 146.3 L 313.5 149.5 L 315.8 152.1 L 318.0 153.6 L 320.3 154.1 L 322.6 151.7 L 324.8 151.3 L 327.1 153.4 L 329.3 149.6 L 331.6 146.7 L 333.8 147.3 L 336.1 148.3 L 338.4 150.6 L 340.6 148.4 L 342.9 144.8 L 345.1 146.7 L 347.4 143.8 L 349.6 145.6 L 351.9 148.7 L 354.1 150.2 L 356.4 149.5 L 358.7 152.7 L 360.9 151.4 L 363.2 144.3 L 365.4 147.2 L 367.7 151.2 L 369.9 151.6 L 372.2 152.7 L 374.4 151.5 L 376.7 153.4 L 379.0 150.5 L 381.2 150.0 L 383.5 147.5 L 385.7 148.8 L 388.0 147.2 L 390.2 147.2 L 392.5 148.0 L 394.8 144.4 L 397.0 144.2 L 399.3 142.3 L 401.5 142.0 L 403.8 141.3 L 406.0 142.5 L 408.3 145.6 L 410.5 141.9 L 412.8 145.7 L 415.1 145.2 L 417.3 146.5 L 419.6 147.0 L 421.8 144.9 L 424.1 142.4 L 426.3 142.3 L 428.6 141.1 L 430.8 141.0 L 433.1 141.3 L 435.4 141.0 L 437.6 142.4 L 439.9 145.3 L 442.1 143.2 L 444.4 146.3 L 446.6 146.3 L 448.9 142.8 L 451.2 142.9 L 453.4 141.7 L 455.7 140.2 L 457.9 138.6 L 460.2 140.6 L 462.4 140.2 L 464.7 141.3 L 466.9 142.4 L 469.2 142.0 L 471.5 142.0 L 473.7 140.2 L 476.0 141.0 L 478.2 140.6 L 480.5 139.9 L 482.7 138.8 L 485.0 140.5 L 487.2 139.4 L 489.5 140.1 L 491.8 140.1 L 494.0 138.5 L 496.3 136.7 L 498.5 136.6 L 500.8 135.1 L 503.0 137.0 L 505.3 136.7 L 507.5 135.9 L 509.8 136.7 L 512.1 128.8 L 514.3 123.5 L 516.6 134.0 L 518.8 135.2 L 521.1 136.0 L 523.3 133.8 L 525.6 134.9 L 527.9 135.2 L 530.1 127.6 L 532.4 119.2 L 534.6 121.0 L 536.9 112.0 L 539.1 110.6 L 541.4 111.8 L 543.6 105.4 L 545.9 101.5 L 548.2 104.5 L 550.4 101.1 L 552.7 98.5 L 554.9 96.4 L 557.2 99.9 L 559.4 102.4 L 561.7 105.0 L 564 104.7 L 574 104.7" stroke-linejoin="round" visibility="visible" stroke="rgb(192,192,192)" stroke-opacity="0.0" stroke-width="22"  class=" highcharts-tracker" style=""></path></g><g class="highcharts-markers highcharts-tracker" visibility="visible"  transform="translate(10,45) scale(1 1)" clip-path="url(#highcharts-2)" style=""></g><g class="highcharts-series" visibility="visible"  transform="translate(10,45) scale(1 1)" clip-path="url(#highcharts-3)"><path fill="none" d="M -2.2 120.5 L 0 120 L 2.2 121.6 L 4.5 125.1 L 6.7 127.2 L 9.0 130.2 L 11.2 136.9 L 13.5 136.8 L 15.7 123.8 L 18.0 125.7 L 20.3 119.9 L 22.5 122.1 L 24.8 123.4 L 27.0 119.2 L 29.3 116.3 L 31.5 116.9 L 33.8 124.0 L 36.0 122.6 L 38.3 123.2 L 40.6 119.6 L 42.8 119.4 L 45.1 115.8 L 47.3 119.7 L 49.6 117.6 L 51.8 119.3 L 54.1 119.5 L 56.4 118.4 L 58.6 113.5 L 60.9 112.8 L 63.1 113.5 L 65.4 116.9 L 67.6 115.1 L 69.9 119.8 L 72.1 119.3 L 74.4 118.3 L 76.7 120.6 L 78.9 114.3 L 81.2 110.7 L 83.4 107.8 L 85.7 103.4 L 87.9 105.1 L 90.2 101.7 L 92.4 104.1 L 94.7 105.7 L 97.0 108.0 L 99.2 105.5 L 101.5 104.6 L 103.7 104.6 L 106.0 104.9 L 108.2 101.5 L 110.5 105.7 L 112.8 105.9 L 115.0 107.2 L 117.3 118.1 L 119.5 118.1 L 121.8 113.8 L 124.0 109.6 L 126.3 103.0 L 128.5 104.7 L 130.8 104.3 L 133.1 100.9 L 135.3 98.1 L 137.6 98.8 L 139.8 99.2 L 142.1 98.8 L 144.3 98.4 L 146.6 94.9 L 148.8 94.2 L 151.1 94.6 L 153.4 92.3 L 155.6 87.3 L 157.9 80.1 L 160.1 84.0 L 162.4 78.6 L 164.6 81.2 L 166.9 81.0 L 169.2 75.7 L 171.4 76.1 L 173.7 76.6 L 175.9 80.7 L 178.2 80.1 L 180.4 76.0 L 182.7 78.0 L 184.9 75.5 L 187.2 73.7 L 189.5 81.2 L 191.7 82.1 L 194.0 78.2 L 196.2 72.6 L 198.5 69.2 L 200.7 65.6 L 203.0 64.7 L 205.2 64.6 L 207.5 66.0 L 209.8 65.4 L 212.0 69.4 L 214.3 76.6 L 216.5 80.1 L 218.8 73.3 L 221.0 79.3 L 223.3 82.6 L 225.6 81.8 L 227.8 77.5 L 230.1 79.4 L 232.3 85.4 L 234.6 91.5 L 236.8 92.5 L 239.1 90.3 L 241.3 95.7 L 243.6 95.1 L 245.9 92.9 L 248.1 86.6 L 250.4 88.8 L 252.6 93.8 L 254.9 103.4 L 257.1 93.2 L 259.4 101.9 L 261.6 100.5 L 263.9 103.5 L 266.2 105.9 L 268.4 109.5 L 270.7 109.0 L 272.9 117.3 L 275.2 114.0 L 277.4 114.8 L 279.7 125.2 L 282 133.7 L 284.2 129.8 L 286.5 131.6 L 288.7 131.6 L 291.0 134.1 L 293.2 138.8 L 295.5 138.0 L 297.7 122.0 L 300.0 124.0 L 302.3 123.7 L 304.5 119.5 L 306.8 112.0 L 309.0 114.0 L 311.3 114.7 L 313.5 112.0 L 315.8 113.7 L 318.0 113.4 L 320.3 117.7 L 322.6 133.3 L 324.8 129.7 L 327.1 135.6 L 329.3 137.1 L 331.6 132.2 L 333.8 133.2 L 336.1 137.1 L 338.4 145.5 L 340.6 141.7 L 342.9 135.4 L 345.1 138.5 L 347.4 140.5 L 349.6 141.5 L 351.9 141.1 L 354.1 144.1 L 356.4 143.3 L 358.7 145.6 L 360.9 136.1 L 363.2 129.0 L 365.4 131.9 L 367.7 138.3 L 369.9 139.6 L 372.2 139.0 L 374.4 142.4 L 376.7 139.7 L 379.0 141.1 L 381.2 148.9 L 383.5 155.5 L 385.7 147.1 L 388.0 148.5 L 390.2 149.6 L 392.5 147.6 L 394.8 143.7 L 397.0 170.4 L 399.3 174.9 L 401.5 170.7 L 403.8 167.2 L 406.0 167.8 L 408.3 168.3 L 410.5 169.1 L 412.8 173.9 L 415.1 167.4 L 417.3 167.6 L 419.6 163.0 L 421.8 160.1 L 424.1 158.1 L 426.3 163.1 L 428.6 163.5 L 430.8 163.7 L 433.1 166.4 L 435.4 166.4 L 437.6 171.1 L 439.9 172.3 L 442.1 170.3 L 444.4 173.7 L 446.6 171.1 L 448.9 172.9 L 451.2 174.3 L 453.4 178.9 L 455.7 183.2 L 457.9 178.6 L 460.2 180.9 L 462.4 178.8 L 464.7 178.3 L 466.9 175.8 L 469.2 179.7 L 471.5 179.8 L 473.7 178.0 L 476.0 173.3 L 478.2 168.2 L 480.5 168.8 L 482.7 169.8 L 485.0 169.5 L 487.2 165.6 L 489.5 164.9 L 491.8 166.0 L 494.0 169.8 L 496.3 173.7 L 498.5 179.5 L 500.8 179.2 L 503.0 178.2 L 505.3 180.0 L 507.5 181.9 L 509.8 180.7 L 512.1 180.3 L 514.3 176.7 L 516.6 177.2 L 518.8 179.1 L 521.1 183.3 L 523.3 180.6 L 525.6 190.5 L 527.9 195.0 L 530.1 195.7 L 532.4 192.2 L 534.6 189.1 L 536.9 189.4 L 539.1 188.2 L 541.4 184.4 L 543.6 179.0 L 545.9 173.7 L 548.2 175.2 L 550.4 172.5 L 552.7 170.7 L 554.9 166.1 L 557.2 167.0 L 559.4 164.8 L 561.7 167.8 L 564 169.4" stroke="black" stroke-width="5"  stroke-linejoin="round" stroke-linecap="round"  stroke-opacity="0.0" transform="translate(1, 1)"></path><path fill="none" d="M -2.2 120.5 L 0 120 L 2.2 121.6 L 4.5 125.1 L 6.7 127.2 L 9.0 130.2 L 11.2 136.9 L 13.5 136.8 L 15.7 123.8 L 18.0 125.7 L 20.3 119.9 L 22.5 122.1 L 24.8 123.4 L 27.0 119.2 L 29.3 116.3 L 31.5 116.9 L 33.8 124.0 L 36.0 122.6 L 38.3 123.2 L 40.6 119.6 L 42.8 119.4 L 45.1 115.8 L 47.3 119.7 L 49.6 117.6 L 51.8 119.3 L 54.1 119.5 L 56.4 118.4 L 58.6 113.5 L 60.9 112.8 L 63.1 113.5 L 65.4 116.9 L 67.6 115.1 L 69.9 119.8 L 72.1 119.3 L 74.4 118.3 L 76.7 120.6 L 78.9 114.3 L 81.2 110.7 L 83.4 107.8 L 85.7 103.4 L 87.9 105.1 L 90.2 101.7 L 92.4 104.1 L 94.7 105.7 L 97.0 108.0 L 99.2 105.5 L 101.5 104.6 L 103.7 104.6 L 106.0 104.9 L 108.2 101.5 L 110.5 105.7 L 112.8 105.9 L 115.0 107.2 L 117.3 118.1 L 119.5 118.1 L 121.8 113.8 L 124.0 109.6 L 126.3 103.0 L 128.5 104.7 L 130.8 104.3 L 133.1 100.9 L 135.3 98.1 L 137.6 98.8 L 139.8 99.2 L 142.1 98.8 L 144.3 98.4 L 146.6 94.9 L 148.8 94.2 L 151.1 94.6 L 153.4 92.3 L 155.6 87.3 L 157.9 80.1 L 160.1 84.0 L 162.4 78.6 L 164.6 81.2 L 166.9 81.0 L 169.2 75.7 L 171.4 76.1 L 173.7 76.6 L 175.9 80.7 L 178.2 80.1 L 180.4 76.0 L 182.7 78.0 L 184.9 75.5 L 187.2 73.7 L 189.5 81.2 L 191.7 82.1 L 194.0 78.2 L 196.2 72.6 L 198.5 69.2 L 200.7 65.6 L 203.0 64.7 L 205.2 64.6 L 207.5 66.0 L 209.8 65.4 L 212.0 69.4 L 214.3 76.6 L 216.5 80.1 L 218.8 73.3 L 221.0 79.3 L 223.3 82.6 L 225.6 81.8 L 227.8 77.5 L 230.1 79.4 L 232.3 85.4 L 234.6 91.5 L 236.8 92.5 L 239.1 90.3 L 241.3 95.7 L 243.6 95.1 L 245.9 92.9 L 248.1 86.6 L 250.4 88.8 L 252.6 93.8 L 254.9 103.4 L 257.1 93.2 L 259.4 101.9 L 261.6 100.5 L 263.9 103.5 L 266.2 105.9 L 268.4 109.5 L 270.7 109.0 L 272.9 117.3 L 275.2 114.0 L 277.4 114.8 L 279.7 125.2 L 282 133.7 L 284.2 129.8 L 286.5 131.6 L 288.7 131.6 L 291.0 134.1 L 293.2 138.8 L 295.5 138.0 L 297.7 122.0 L 300.0 124.0 L 302.3 123.7 L 304.5 119.5 L 306.8 112.0 L 309.0 114.0 L 311.3 114.7 L 313.5 112.0 L 315.8 113.7 L 318.0 113.4 L 320.3 117.7 L 322.6 133.3 L 324.8 129.7 L 327.1 135.6 L 329.3 137.1 L 331.6 132.2 L 333.8 133.2 L 336.1 137.1 L 338.4 145.5 L 340.6 141.7 L 342.9 135.4 L 345.1 138.5 L 347.4 140.5 L 349.6 141.5 L 351.9 141.1 L 354.1 144.1 L 356.4 143.3 L 358.7 145.6 L 360.9 136.1 L 363.2 129.0 L 365.4 131.9 L 367.7 138.3 L 369.9 139.6 L 372.2 139.0 L 374.4 142.4 L 376.7 139.7 L 379.0 141.1 L 381.2 148.9 L 383.5 155.5 L 385.7 147.1 L 388.0 148.5 L 390.2 149.6 L 392.5 147.6 L 394.8 143.7 L 397.0 170.4 L 399.3 174.9 L 401.5 170.7 L 403.8 167.2 L 406.0 167.8 L 408.3 168.3 L 410.5 169.1 L 412.8 173.9 L 415.1 167.4 L 417.3 167.6 L 419.6 163.0 L 421.8 160.1 L 424.1 158.1 L 426.3 163.1 L 428.6 163.5 L 430.8 163.7 L 433.1 166.4 L 435.4 166.4 L 437.6 171.1 L 439.9 172.3 L 442.1 170.3 L 444.4 173.7 L 446.6 171.1 L 448.9 172.9 L 451.2 174.3 L 453.4 178.9 L 455.7 183.2 L 457.9 178.6 L 460.2 180.9 L 462.4 178.8 L 464.7 178.3 L 466.9 175.8 L 469.2 179.7 L 471.5 179.8 L 473.7 178.0 L 476.0 173.3 L 478.2 168.2 L 480.5 168.8 L 482.7 169.8 L 485.0 169.5 L 487.2 165.6 L 489.5 164.9 L 491.8 166.0 L 494.0 169.8 L 496.3 173.7 L 498.5 179.5 L 500.8 179.2 L 503.0 178.2 L 505.3 180.0 L 507.5 181.9 L 509.8 180.7 L 512.1 180.3 L 514.3 176.7 L 516.6 177.2 L 518.8 179.1 L 521.1 183.3 L 523.3 180.6 L 525.6 190.5 L 527.9 195.0 L 530.1 195.7 L 532.4 192.2 L 534.6 189.1 L 536.9 189.4 L 539.1 188.2 L 541.4 184.4 L 543.6 179.0 L 545.9 173.7 L 548.2 175.2 L 550.4 172.5 L 552.7 170.7 L 554.9 166.1 L 557.2 167.0 L 559.4 164.8 L 561.7 167.8 L 564 169.4" stroke="black" stroke-width="3"  stroke-linejoin="round" stroke-linecap="round"  stroke-opacity="0.0" transform="translate(1, 1)"></path><path fill="none" d="M -2.2 120.5 L 0 120 L 2.2 121.6 L 4.5 125.1 L 6.7 127.2 L 9.0 130.2 L 11.2 136.9 L 13.5 136.8 L 15.7 123.8 L 18.0 125.7 L 20.3 119.9 L 22.5 122.1 L 24.8 123.4 L 27.0 119.2 L 29.3 116.3 L 31.5 116.9 L 33.8 124.0 L 36.0 122.6 L 38.3 123.2 L 40.6 119.6 L 42.8 119.4 L 45.1 115.8 L 47.3 119.7 L 49.6 117.6 L 51.8 119.3 L 54.1 119.5 L 56.4 118.4 L 58.6 113.5 L 60.9 112.8 L 63.1 113.5 L 65.4 116.9 L 67.6 115.1 L 69.9 119.8 L 72.1 119.3 L 74.4 118.3 L 76.7 120.6 L 78.9 114.3 L 81.2 110.7 L 83.4 107.8 L 85.7 103.4 L 87.9 105.1 L 90.2 101.7 L 92.4 104.1 L 94.7 105.7 L 97.0 108.0 L 99.2 105.5 L 101.5 104.6 L 103.7 104.6 L 106.0 104.9 L 108.2 101.5 L 110.5 105.7 L 112.8 105.9 L 115.0 107.2 L 117.3 118.1 L 119.5 118.1 L 121.8 113.8 L 124.0 109.6 L 126.3 103.0 L 128.5 104.7 L 130.8 104.3 L 133.1 100.9 L 135.3 98.1 L 137.6 98.8 L 139.8 99.2 L 142.1 98.8 L 144.3 98.4 L 146.6 94.9 L 148.8 94.2 L 151.1 94.6 L 153.4 92.3 L 155.6 87.3 L 157.9 80.1 L 160.1 84.0 L 162.4 78.6 L 164.6 81.2 L 166.9 81.0 L 169.2 75.7 L 171.4 76.1 L 173.7 76.6 L 175.9 80.7 L 178.2 80.1 L 180.4 76.0 L 182.7 78.0 L 184.9 75.5 L 187.2 73.7 L 189.5 81.2 L 191.7 82.1 L 194.0 78.2 L 196.2 72.6 L 198.5 69.2 L 200.7 65.6 L 203.0 64.7 L 205.2 64.6 L 207.5 66.0 L 209.8 65.4 L 212.0 69.4 L 214.3 76.6 L 216.5 80.1 L 218.8 73.3 L 221.0 79.3 L 223.3 82.6 L 225.6 81.8 L 227.8 77.5 L 230.1 79.4 L 232.3 85.4 L 234.6 91.5 L 236.8 92.5 L 239.1 90.3 L 241.3 95.7 L 243.6 95.1 L 245.9 92.9 L 248.1 86.6 L 250.4 88.8 L 252.6 93.8 L 254.9 103.4 L 257.1 93.2 L 259.4 101.9 L 261.6 100.5 L 263.9 103.5 L 266.2 105.9 L 268.4 109.5 L 270.7 109.0 L 272.9 117.3 L 275.2 114.0 L 277.4 114.8 L 279.7 125.2 L 282 133.7 L 284.2 129.8 L 286.5 131.6 L 288.7 131.6 L 291.0 134.1 L 293.2 138.8 L 295.5 138.0 L 297.7 122.0 L 300.0 124.0 L 302.3 123.7 L 304.5 119.5 L 306.8 112.0 L 309.0 114.0 L 311.3 114.7 L 313.5 112.0 L 315.8 113.7 L 318.0 113.4 L 320.3 117.7 L 322.6 133.3 L 324.8 129.7 L 327.1 135.6 L 329.3 137.1 L 331.6 132.2 L 333.8 133.2 L 336.1 137.1 L 338.4 145.5 L 340.6 141.7 L 342.9 135.4 L 345.1 138.5 L 347.4 140.5 L 349.6 141.5 L 351.9 141.1 L 354.1 144.1 L 356.4 143.3 L 358.7 145.6 L 360.9 136.1 L 363.2 129.0 L 365.4 131.9 L 367.7 138.3 L 369.9 139.6 L 372.2 139.0 L 374.4 142.4 L 376.7 139.7 L 379.0 141.1 L 381.2 148.9 L 383.5 155.5 L 385.7 147.1 L 388.0 148.5 L 390.2 149.6 L 392.5 147.6 L 394.8 143.7 L 397.0 170.4 L 399.3 174.9 L 401.5 170.7 L 403.8 167.2 L 406.0 167.8 L 408.3 168.3 L 410.5 169.1 L 412.8 173.9 L 415.1 167.4 L 417.3 167.6 L 419.6 163.0 L 421.8 160.1 L 424.1 158.1 L 426.3 163.1 L 428.6 163.5 L 430.8 163.7 L 433.1 166.4 L 435.4 166.4 L 437.6 171.1 L 439.9 172.3 L 442.1 170.3 L 444.4 173.7 L 446.6 171.1 L 448.9 172.9 L 451.2 174.3 L 453.4 178.9 L 455.7 183.2 L 457.9 178.6 L 460.2 180.9 L 462.4 178.8 L 464.7 178.3 L 466.9 175.8 L 469.2 179.7 L 471.5 179.8 L 473.7 178.0 L 476.0 173.3 L 478.2 168.2 L 480.5 168.8 L 482.7 169.8 L 485.0 169.5 L 487.2 165.6 L 489.5 164.9 L 491.8 166.0 L 494.0 169.8 L 496.3 173.7 L 498.5 179.5 L 500.8 179.2 L 503.0 178.2 L 505.3 180.0 L 507.5 181.9 L 509.8 180.7 L 512.1 180.3 L 514.3 176.7 L 516.6 177.2 L 518.8 179.1 L 521.1 183.3 L 523.3 180.6 L 525.6 190.5 L 527.9 195.0 L 530.1 195.7 L 532.4 192.2 L 534.6 189.1 L 536.9 189.4 L 539.1 188.2 L 541.4 184.4 L 543.6 179.0 L 545.9 173.7 L 548.2 175.2 L 550.4 172.5 L 552.7 170.7 L 554.9 166.1 L 557.2 167.0 L 559.4 164.8 L 561.7 167.8 L 564 169.4" stroke="black" stroke-width="1"  stroke-linejoin="round" stroke-linecap="round"  stroke-opacity="0.1" transform="translate(1, 1)"></path><path fill="none" d="M -2.2 120.5 L 0 120 L 2.2 121.6 L 4.5 125.1 L 6.7 127.2 L 9.0 130.2 L 11.2 136.9 L 13.5 136.8 L 15.7 123.8 L 18.0 125.7 L 20.3 119.9 L 22.5 122.1 L 24.8 123.4 L 27.0 119.2 L 29.3 116.3 L 31.5 116.9 L 33.8 124.0 L 36.0 122.6 L 38.3 123.2 L 40.6 119.6 L 42.8 119.4 L 45.1 115.8 L 47.3 119.7 L 49.6 117.6 L 51.8 119.3 L 54.1 119.5 L 56.4 118.4 L 58.6 113.5 L 60.9 112.8 L 63.1 113.5 L 65.4 116.9 L 67.6 115.1 L 69.9 119.8 L 72.1 119.3 L 74.4 118.3 L 76.7 120.6 L 78.9 114.3 L 81.2 110.7 L 83.4 107.8 L 85.7 103.4 L 87.9 105.1 L 90.2 101.7 L 92.4 104.1 L 94.7 105.7 L 97.0 108.0 L 99.2 105.5 L 101.5 104.6 L 103.7 104.6 L 106.0 104.9 L 108.2 101.5 L 110.5 105.7 L 112.8 105.9 L 115.0 107.2 L 117.3 118.1 L 119.5 118.1 L 121.8 113.8 L 124.0 109.6 L 126.3 103.0 L 128.5 104.7 L 130.8 104.3 L 133.1 100.9 L 135.3 98.1 L 137.6 98.8 L 139.8 99.2 L 142.1 98.8 L 144.3 98.4 L 146.6 94.9 L 148.8 94.2 L 151.1 94.6 L 153.4 92.3 L 155.6 87.3 L 157.9 80.1 L 160.1 84.0 L 162.4 78.6 L 164.6 81.2 L 166.9 81.0 L 169.2 75.7 L 171.4 76.1 L 173.7 76.6 L 175.9 80.7 L 178.2 80.1 L 180.4 76.0 L 182.7 78.0 L 184.9 75.5 L 187.2 73.7 L 189.5 81.2 L 191.7 82.1 L 194.0 78.2 L 196.2 72.6 L 198.5 69.2 L 200.7 65.6 L 203.0 64.7 L 205.2 64.6 L 207.5 66.0 L 209.8 65.4 L 212.0 69.4 L 214.3 76.6 L 216.5 80.1 L 218.8 73.3 L 221.0 79.3 L 223.3 82.6 L 225.6 81.8 L 227.8 77.5 L 230.1 79.4 L 232.3 85.4 L 234.6 91.5 L 236.8 92.5 L 239.1 90.3 L 241.3 95.7 L 243.6 95.1 L 245.9 92.9 L 248.1 86.6 L 250.4 88.8 L 252.6 93.8 L 254.9 103.4 L 257.1 93.2 L 259.4 101.9 L 261.6 100.5 L 263.9 103.5 L 266.2 105.9 L 268.4 109.5 L 270.7 109.0 L 272.9 117.3 L 275.2 114.0 L 277.4 114.8 L 279.7 125.2 L 282 133.7 L 284.2 129.8 L 286.5 131.6 L 288.7 131.6 L 291.0 134.1 L 293.2 138.8 L 295.5 138.0 L 297.7 122.0 L 300.0 124.0 L 302.3 123.7 L 304.5 119.5 L 306.8 112.0 L 309.0 114.0 L 311.3 114.7 L 313.5 112.0 L 315.8 113.7 L 318.0 113.4 L 320.3 117.7 L 322.6 133.3 L 324.8 129.7 L 327.1 135.6 L 329.3 137.1 L 331.6 132.2 L 333.8 133.2 L 336.1 137.1 L 338.4 145.5 L 340.6 141.7 L 342.9 135.4 L 345.1 138.5 L 347.4 140.5 L 349.6 141.5 L 351.9 141.1 L 354.1 144.1 L 356.4 143.3 L 358.7 145.6 L 360.9 136.1 L 363.2 129.0 L 365.4 131.9 L 367.7 138.3 L 369.9 139.6 L 372.2 139.0 L 374.4 142.4 L 376.7 139.7 L 379.0 141.1 L 381.2 148.9 L 383.5 155.5 L 385.7 147.1 L 388.0 148.5 L 390.2 149.6 L 392.5 147.6 L 394.8 143.7 L 397.0 170.4 L 399.3 174.9 L 401.5 170.7 L 403.8 167.2 L 406.0 167.8 L 408.3 168.3 L 410.5 169.1 L 412.8 173.9 L 415.1 167.4 L 417.3 167.6 L 419.6 163.0 L 421.8 160.1 L 424.1 158.1 L 426.3 163.1 L 428.6 163.5 L 430.8 163.7 L 433.1 166.4 L 435.4 166.4 L 437.6 171.1 L 439.9 172.3 L 442.1 170.3 L 444.4 173.7 L 446.6 171.1 L 448.9 172.9 L 451.2 174.3 L 453.4 178.9 L 455.7 183.2 L 457.9 178.6 L 460.2 180.9 L 462.4 178.8 L 464.7 178.3 L 466.9 175.8 L 469.2 179.7 L 471.5 179.8 L 473.7 178.0 L 476.0 173.3 L 478.2 168.2 L 480.5 168.8 L 482.7 169.8 L 485.0 169.5 L 487.2 165.6 L 489.5 164.9 L 491.8 166.0 L 494.0 169.8 L 496.3 173.7 L 498.5 179.5 L 500.8 179.2 L 503.0 178.2 L 505.3 180.0 L 507.5 181.9 L 509.8 180.7 L 512.1 180.3 L 514.3 176.7 L 516.6 177.2 L 518.8 179.1 L 521.1 183.3 L 523.3 180.6 L 525.6 190.5 L 527.9 195.0 L 530.1 195.7 L 532.4 192.2 L 534.6 189.1 L 536.9 189.4 L 539.1 188.2 L 541.4 184.4 L 543.6 179.0 L 545.9 173.7 L 548.2 175.2 L 550.4 172.5 L 552.7 170.7 L 554.9 166.1 L 557.2 167.0 L 559.4 164.8 L 561.7 167.8 L 564 169.4" stroke="#8085e9" stroke-width="2"  stroke-linejoin="round" stroke-linecap="round"></path><path fill="none" d="M -12.2 120.5 L -2.2 120.5 L 0 120 L 2.2 121.6 L 4.5 125.1 L 6.7 127.2 L 9.0 130.2 L 11.2 136.9 L 13.5 136.8 L 15.7 123.8 L 18.0 125.7 L 20.3 119.9 L 22.5 122.1 L 24.8 123.4 L 27.0 119.2 L 29.3 116.3 L 31.5 116.9 L 33.8 124.0 L 36.0 122.6 L 38.3 123.2 L 40.6 119.6 L 42.8 119.4 L 45.1 115.8 L 47.3 119.7 L 49.6 117.6 L 51.8 119.3 L 54.1 119.5 L 56.4 118.4 L 58.6 113.5 L 60.9 112.8 L 63.1 113.5 L 65.4 116.9 L 67.6 115.1 L 69.9 119.8 L 72.1 119.3 L 74.4 118.3 L 76.7 120.6 L 78.9 114.3 L 81.2 110.7 L 83.4 107.8 L 85.7 103.4 L 87.9 105.1 L 90.2 101.7 L 92.4 104.1 L 94.7 105.7 L 97.0 108.0 L 99.2 105.5 L 101.5 104.6 L 103.7 104.6 L 106.0 104.9 L 108.2 101.5 L 110.5 105.7 L 112.8 105.9 L 115.0 107.2 L 117.3 118.1 L 119.5 118.1 L 121.8 113.8 L 124.0 109.6 L 126.3 103.0 L 128.5 104.7 L 130.8 104.3 L 133.1 100.9 L 135.3 98.1 L 137.6 98.8 L 139.8 99.2 L 142.1 98.8 L 144.3 98.4 L 146.6 94.9 L 148.8 94.2 L 151.1 94.6 L 153.4 92.3 L 155.6 87.3 L 157.9 80.1 L 160.1 84.0 L 162.4 78.6 L 164.6 81.2 L 166.9 81.0 L 169.2 75.7 L 171.4 76.1 L 173.7 76.6 L 175.9 80.7 L 178.2 80.1 L 180.4 76.0 L 182.7 78.0 L 184.9 75.5 L 187.2 73.7 L 189.5 81.2 L 191.7 82.1 L 194.0 78.2 L 196.2 72.6 L 198.5 69.2 L 200.7 65.6 L 203.0 64.7 L 205.2 64.6 L 207.5 66.0 L 209.8 65.4 L 212.0 69.4 L 214.3 76.6 L 216.5 80.1 L 218.8 73.3 L 221.0 79.3 L 223.3 82.6 L 225.6 81.8 L 227.8 77.5 L 230.1 79.4 L 232.3 85.4 L 234.6 91.5 L 236.8 92.5 L 239.1 90.3 L 241.3 95.7 L 243.6 95.1 L 245.9 92.9 L 248.1 86.6 L 250.4 88.8 L 252.6 93.8 L 254.9 103.4 L 257.1 93.2 L 259.4 101.9 L 261.6 100.5 L 263.9 103.5 L 266.2 105.9 L 268.4 109.5 L 270.7 109.0 L 272.9 117.3 L 275.2 114.0 L 277.4 114.8 L 279.7 125.2 L 282 133.7 L 284.2 129.8 L 286.5 131.6 L 288.7 131.6 L 291.0 134.1 L 293.2 138.8 L 295.5 138.0 L 297.7 122.0 L 300.0 124.0 L 302.3 123.7 L 304.5 119.5 L 306.8 112.0 L 309.0 114.0 L 311.3 114.7 L 313.5 112.0 L 315.8 113.7 L 318.0 113.4 L 320.3 117.7 L 322.6 133.3 L 324.8 129.7 L 327.1 135.6 L 329.3 137.1 L 331.6 132.2 L 333.8 133.2 L 336.1 137.1 L 338.4 145.5 L 340.6 141.7 L 342.9 135.4 L 345.1 138.5 L 347.4 140.5 L 349.6 141.5 L 351.9 141.1 L 354.1 144.1 L 356.4 143.3 L 358.7 145.6 L 360.9 136.1 L 363.2 129.0 L 365.4 131.9 L 367.7 138.3 L 369.9 139.6 L 372.2 139.0 L 374.4 142.4 L 376.7 139.7 L 379.0 141.1 L 381.2 148.9 L 383.5 155.5 L 385.7 147.1 L 388.0 148.5 L 390.2 149.6 L 392.5 147.6 L 394.8 143.7 L 397.0 170.4 L 399.3 174.9 L 401.5 170.7 L 403.8 167.2 L 406.0 167.8 L 408.3 168.3 L 410.5 169.1 L 412.8 173.9 L 415.1 167.4 L 417.3 167.6 L 419.6 163.0 L 421.8 160.1 L 424.1 158.1 L 426.3 163.1 L 428.6 163.5 L 430.8 163.7 L 433.1 166.4 L 435.4 166.4 L 437.6 171.1 L 439.9 172.3 L 442.1 170.3 L 444.4 173.7 L 446.6 171.1 L 448.9 172.9 L 451.2 174.3 L 453.4 178.9 L 455.7 183.2 L 457.9 178.6 L 460.2 180.9 L 462.4 178.8 L 464.7 178.3 L 466.9 175.8 L 469.2 179.7 L 471.5 179.8 L 473.7 178.0 L 476.0 173.3 L 478.2 168.2 L 480.5 168.8 L 482.7 169.8 L 485.0 169.5 L 487.2 165.6 L 489.5 164.9 L 491.8 166.0 L 494.0 169.8 L 496.3 173.7 L 498.5 179.5 L 500.8 179.2 L 503.0 178.2 L 505.3 180.0 L 507.5 181.9 L 509.8 180.7 L 512.1 180.3 L 514.3 176.7 L 516.6 177.2 L 518.8 179.1 L 521.1 183.3 L 523.3 180.6 L 525.6 190.5 L 527.9 195.0 L 530.1 195.7 L 532.4 192.2 L 534.6 189.1 L 536.9 189.4 L 539.1 188.2 L 541.4 184.4 L 543.6 179.0 L 545.9 173.7 L 548.2 175.2 L 550.4 172.5 L 552.7 170.7 L 554.9 166.1 L 557.2 167.0 L 559.4 164.8 L 561.7 167.8 L 564 169.4 L 574 169.4" stroke-linejoin="round" visibility="visible" stroke="rgb(192,192,192)" stroke-opacity="0.0" stroke-width="22"  class=" highcharts-tracker" style=""></path></g><g class="highcharts-markers highcharts-tracker" visibility="visible"  transform="translate(10,45) scale(1 1)" clip-path="url(#highcharts-2)" style=""></g><g class="highcharts-series" visibility="visible"  transform="translate(10,45) scale(1 1)" clip-path="url(#highcharts-3)"><path fill="none" d="M -2.2 121.7 L 0 120 L 2.2 123.2 L 4.5 123.7 L 6.7 120.9 L 9.0 114.0 L 11.2 116.3 L 13.5 125.1 L 15.7 119.8 L 18.0 125.0 L 20.3 121.6 L 22.5 123.9 L 24.8 128.6 L 27.0 127.5 L 29.3 129.9 L 31.5 132.8 L 33.8 136.6 L 36.0 133.7 L 38.3 136.9 L 40.6 132.9 L 42.8 133.8 L 45.1 132.9 L 47.3 137.6 L 49.6 138.9 L 51.8 140.5 L 54.1 141.3 L 56.4 139.2 L 58.6 136.7 L 60.9 132.5 L 63.1 134.1 L 65.4 138.9 L 67.6 136.4 L 69.9 140.7 L 72.1 139.1 L 74.4 137.3 L 76.7 139.3 L 78.9 133.1 L 81.2 132.9 L 83.4 130.1 L 85.7 126.9 L 87.9 130.8 L 90.2 130.8 L 92.4 132.4 L 94.7 136.6 L 97.0 136.8 L 99.2 134.5 L 101.5 135.1 L 103.7 134.4 L 106.0 132.8 L 108.2 128.0 L 110.5 121.1 L 112.8 119.2 L 115.0 122.3 L 117.3 122.2 L 119.5 120.1 L 121.8 111.6 L 124.0 112.7 L 126.3 112.4 L 128.5 112.5 L 130.8 114.0 L 133.1 109.1 L 135.3 108.5 L 137.6 109.4 L 139.8 108.8 L 142.1 108.7 L 144.3 108.9 L 146.6 101.8 L 148.8 98.4 L 151.1 98.9 L 153.4 96.8 L 155.6 95.1 L 157.9 95.7 L 160.1 98.1 L 162.4 95.1 L 164.6 95.3 L 166.9 94.5 L 169.2 98.2 L 171.4 95.1 L 173.7 90.9 L 175.9 93.3 L 178.2 92.0 L 180.4 93.6 L 182.7 93.7 L 184.9 86.4 L 187.2 83.8 L 189.5 85.9 L 191.7 89.2 L 194.0 89.7 L 196.2 83.8 L 198.5 82.4 L 200.7 82.3 L 203.0 79.0 L 205.2 75.4 L 207.5 75.2 L 209.8 72.9 L 212.0 66.9 L 214.3 67.0 L 216.5 65.3 L 218.8 64.1 L 221.0 64.9 L 223.3 62.0 L 225.6 63.9 L 227.8 61.7 L 230.1 59.6 L 232.3 59.7 L 234.6 63.6 L 236.8 68.9 L 239.1 68.8 L 241.3 66.0 L 243.6 68.7 L 245.9 70.2 L 248.1 68.7 L 250.4 64.5 L 252.6 88.1 L 254.9 93.3 L 257.1 94.5 L 259.4 93.9 L 261.6 95.1 L 263.9 94.9 L 266.2 95.9 L 268.4 93.9 L 270.7 91.0 L 272.9 90.9 L 275.2 92.8 L 277.4 93.3 L 279.7 99.0 L 282 104.8 L 284.2 100.6 L 286.5 99.5 L 288.7 102.2 L 291.0 104.7 L 293.2 106.8 L 295.5 106.8 L 297.7 98.6 L 300.0 97.9 L 302.3 99.5 L 304.5 98.7 L 306.8 101.4 L 309.0 97.6 L 311.3 92.6 L 313.5 89.4 L 315.8 86.8 L 318.0 88.0 L 320.3 89.7 L 322.6 90.9 L 324.8 89.7 L 327.1 92.4 L 329.3 91.9 L 331.6 87.4 L 333.8 87.1 L 336.1 85.1 L 338.4 85.4 L 340.6 78.1 L 342.9 77.9 L 345.1 78.3 L 347.4 77.4 L 349.6 80.1 L 351.9 82.5 L 354.1 82.7 L 356.4 83.7 L 358.7 86.2 L 360.9 83.3 L 363.2 77.1 L 365.4 76.9 L 367.7 71.3 L 369.9 72.6 L 372.2 73.2 L 374.4 71.3 L 376.7 70.0 L 379.0 70.5 L 381.2 77.1 L 383.5 76.4 L 385.7 80.2 L 388.0 81.8 L 390.2 84.4 L 392.5 85.1 L 394.8 70.0 L 397.0 65.1 L 399.3 65.2 L 401.5 66.3 L 403.8 65.2 L 406.0 65.1 L 408.3 64.4 L 410.5 56.6 L 412.8 63.1 L 415.1 60.5 L 417.3 58.7 L 419.6 57.3 L 421.8 52.8 L 424.1 53.9 L 426.3 54.6 L 428.6 53.8 L 430.8 51.8 L 433.1 49.9 L 435.4 44.4 L 437.6 50.0 L 439.9 48.8 L 442.1 47.2 L 444.4 50.7 L 446.6 50.9 L 448.9 47.2 L 451.2 46.6 L 453.4 44.7 L 455.7 38.7 L 457.9 32.0 L 460.2 34.8 L 462.4 34.3 L 464.7 34.7 L 466.9 33.5 L 469.2 36.3 L 471.5 37.2 L 473.7 38.6 L 476.0 41.5 L 478.2 44.0 L 480.5 42.6 L 482.7 41.3 L 485.0 42.7 L 487.2 43.0 L 489.5 43.3 L 491.8 42.2 L 494.0 46.0 L 496.3 49.3 L 498.5 46.6 L 500.8 42.0 L 503.0 44.6 L 505.3 49.0 L 507.5 53.7 L 509.8 56.9 L 512.1 55.8 L 514.3 50.9 L 516.6 50.8 L 518.8 51.0 L 521.1 54.1 L 523.3 49.7 L 525.6 53.9 L 527.9 60.4 L 530.1 47.1 L 532.4 47.0 L 534.6 44.0 L 536.9 41.8 L 539.1 43.5 L 541.4 46.5 L 543.6 39.6 L 545.9 37.5 L 548.2 39.1 L 550.4 35.5 L 552.7 29.2 L 554.9 23.0 L 557.2 24.7 L 559.4 18.3 L 561.7 19.1 L 564 15.7" stroke="black" stroke-width="5"  stroke-linejoin="round" stroke-linecap="round"  stroke-opacity="0.0" transform="translate(1, 1)"></path><path fill="none" d="M -2.2 121.7 L 0 120 L 2.2 123.2 L 4.5 123.7 L 6.7 120.9 L 9.0 114.0 L 11.2 116.3 L 13.5 125.1 L 15.7 119.8 L 18.0 125.0 L 20.3 121.6 L 22.5 123.9 L 24.8 128.6 L 27.0 127.5 L 29.3 129.9 L 31.5 132.8 L 33.8 136.6 L 36.0 133.7 L 38.3 136.9 L 40.6 132.9 L 42.8 133.8 L 45.1 132.9 L 47.3 137.6 L 49.6 138.9 L 51.8 140.5 L 54.1 141.3 L 56.4 139.2 L 58.6 136.7 L 60.9 132.5 L 63.1 134.1 L 65.4 138.9 L 67.6 136.4 L 69.9 140.7 L 72.1 139.1 L 74.4 137.3 L 76.7 139.3 L 78.9 133.1 L 81.2 132.9 L 83.4 130.1 L 85.7 126.9 L 87.9 130.8 L 90.2 130.8 L 92.4 132.4 L 94.7 136.6 L 97.0 136.8 L 99.2 134.5 L 101.5 135.1 L 103.7 134.4 L 106.0 132.8 L 108.2 128.0 L 110.5 121.1 L 112.8 119.2 L 115.0 122.3 L 117.3 122.2 L 119.5 120.1 L 121.8 111.6 L 124.0 112.7 L 126.3 112.4 L 128.5 112.5 L 130.8 114.0 L 133.1 109.1 L 135.3 108.5 L 137.6 109.4 L 139.8 108.8 L 142.1 108.7 L 144.3 108.9 L 146.6 101.8 L 148.8 98.4 L 151.1 98.9 L 153.4 96.8 L 155.6 95.1 L 157.9 95.7 L 160.1 98.1 L 162.4 95.1 L 164.6 95.3 L 166.9 94.5 L 169.2 98.2 L 171.4 95.1 L 173.7 90.9 L 175.9 93.3 L 178.2 92.0 L 180.4 93.6 L 182.7 93.7 L 184.9 86.4 L 187.2 83.8 L 189.5 85.9 L 191.7 89.2 L 194.0 89.7 L 196.2 83.8 L 198.5 82.4 L 200.7 82.3 L 203.0 79.0 L 205.2 75.4 L 207.5 75.2 L 209.8 72.9 L 212.0 66.9 L 214.3 67.0 L 216.5 65.3 L 218.8 64.1 L 221.0 64.9 L 223.3 62.0 L 225.6 63.9 L 227.8 61.7 L 230.1 59.6 L 232.3 59.7 L 234.6 63.6 L 236.8 68.9 L 239.1 68.8 L 241.3 66.0 L 243.6 68.7 L 245.9 70.2 L 248.1 68.7 L 250.4 64.5 L 252.6 88.1 L 254.9 93.3 L 257.1 94.5 L 259.4 93.9 L 261.6 95.1 L 263.9 94.9 L 266.2 95.9 L 268.4 93.9 L 270.7 91.0 L 272.9 90.9 L 275.2 92.8 L 277.4 93.3 L 279.7 99.0 L 282 104.8 L 284.2 100.6 L 286.5 99.5 L 288.7 102.2 L 291.0 104.7 L 293.2 106.8 L 295.5 106.8 L 297.7 98.6 L 300.0 97.9 L 302.3 99.5 L 304.5 98.7 L 306.8 101.4 L 309.0 97.6 L 311.3 92.6 L 313.5 89.4 L 315.8 86.8 L 318.0 88.0 L 320.3 89.7 L 322.6 90.9 L 324.8 89.7 L 327.1 92.4 L 329.3 91.9 L 331.6 87.4 L 333.8 87.1 L 336.1 85.1 L 338.4 85.4 L 340.6 78.1 L 342.9 77.9 L 345.1 78.3 L 347.4 77.4 L 349.6 80.1 L 351.9 82.5 L 354.1 82.7 L 356.4 83.7 L 358.7 86.2 L 360.9 83.3 L 363.2 77.1 L 365.4 76.9 L 367.7 71.3 L 369.9 72.6 L 372.2 73.2 L 374.4 71.3 L 376.7 70.0 L 379.0 70.5 L 381.2 77.1 L 383.5 76.4 L 385.7 80.2 L 388.0 81.8 L 390.2 84.4 L 392.5 85.1 L 394.8 70.0 L 397.0 65.1 L 399.3 65.2 L 401.5 66.3 L 403.8 65.2 L 406.0 65.1 L 408.3 64.4 L 410.5 56.6 L 412.8 63.1 L 415.1 60.5 L 417.3 58.7 L 419.6 57.3 L 421.8 52.8 L 424.1 53.9 L 426.3 54.6 L 428.6 53.8 L 430.8 51.8 L 433.1 49.9 L 435.4 44.4 L 437.6 50.0 L 439.9 48.8 L 442.1 47.2 L 444.4 50.7 L 446.6 50.9 L 448.9 47.2 L 451.2 46.6 L 453.4 44.7 L 455.7 38.7 L 457.9 32.0 L 460.2 34.8 L 462.4 34.3 L 464.7 34.7 L 466.9 33.5 L 469.2 36.3 L 471.5 37.2 L 473.7 38.6 L 476.0 41.5 L 478.2 44.0 L 480.5 42.6 L 482.7 41.3 L 485.0 42.7 L 487.2 43.0 L 489.5 43.3 L 491.8 42.2 L 494.0 46.0 L 496.3 49.3 L 498.5 46.6 L 500.8 42.0 L 503.0 44.6 L 505.3 49.0 L 507.5 53.7 L 509.8 56.9 L 512.1 55.8 L 514.3 50.9 L 516.6 50.8 L 518.8 51.0 L 521.1 54.1 L 523.3 49.7 L 525.6 53.9 L 527.9 60.4 L 530.1 47.1 L 532.4 47.0 L 534.6 44.0 L 536.9 41.8 L 539.1 43.5 L 541.4 46.5 L 543.6 39.6 L 545.9 37.5 L 548.2 39.1 L 550.4 35.5 L 552.7 29.2 L 554.9 23.0 L 557.2 24.7 L 559.4 18.3 L 561.7 19.1 L 564 15.7" stroke="black" stroke-width="3"  stroke-linejoin="round" stroke-linecap="round"  stroke-opacity="0.0" transform="translate(1, 1)"></path><path fill="none" d="M -2.2 121.7 L 0 120 L 2.2 123.2 L 4.5 123.7 L 6.7 120.9 L 9.0 114.0 L 11.2 116.3 L 13.5 125.1 L 15.7 119.8 L 18.0 125.0 L 20.3 121.6 L 22.5 123.9 L 24.8 128.6 L 27.0 127.5 L 29.3 129.9 L 31.5 132.8 L 33.8 136.6 L 36.0 133.7 L 38.3 136.9 L 40.6 132.9 L 42.8 133.8 L 45.1 132.9 L 47.3 137.6 L 49.6 138.9 L 51.8 140.5 L 54.1 141.3 L 56.4 139.2 L 58.6 136.7 L 60.9 132.5 L 63.1 134.1 L 65.4 138.9 L 67.6 136.4 L 69.9 140.7 L 72.1 139.1 L 74.4 137.3 L 76.7 139.3 L 78.9 133.1 L 81.2 132.9 L 83.4 130.1 L 85.7 126.9 L 87.9 130.8 L 90.2 130.8 L 92.4 132.4 L 94.7 136.6 L 97.0 136.8 L 99.2 134.5 L 101.5 135.1 L 103.7 134.4 L 106.0 132.8 L 108.2 128.0 L 110.5 121.1 L 112.8 119.2 L 115.0 122.3 L 117.3 122.2 L 119.5 120.1 L 121.8 111.6 L 124.0 112.7 L 126.3 112.4 L 128.5 112.5 L 130.8 114.0 L 133.1 109.1 L 135.3 108.5 L 137.6 109.4 L 139.8 108.8 L 142.1 108.7 L 144.3 108.9 L 146.6 101.8 L 148.8 98.4 L 151.1 98.9 L 153.4 96.8 L 155.6 95.1 L 157.9 95.7 L 160.1 98.1 L 162.4 95.1 L 164.6 95.3 L 166.9 94.5 L 169.2 98.2 L 171.4 95.1 L 173.7 90.9 L 175.9 93.3 L 178.2 92.0 L 180.4 93.6 L 182.7 93.7 L 184.9 86.4 L 187.2 83.8 L 189.5 85.9 L 191.7 89.2 L 194.0 89.7 L 196.2 83.8 L 198.5 82.4 L 200.7 82.3 L 203.0 79.0 L 205.2 75.4 L 207.5 75.2 L 209.8 72.9 L 212.0 66.9 L 214.3 67.0 L 216.5 65.3 L 218.8 64.1 L 221.0 64.9 L 223.3 62.0 L 225.6 63.9 L 227.8 61.7 L 230.1 59.6 L 232.3 59.7 L 234.6 63.6 L 236.8 68.9 L 239.1 68.8 L 241.3 66.0 L 243.6 68.7 L 245.9 70.2 L 248.1 68.7 L 250.4 64.5 L 252.6 88.1 L 254.9 93.3 L 257.1 94.5 L 259.4 93.9 L 261.6 95.1 L 263.9 94.9 L 266.2 95.9 L 268.4 93.9 L 270.7 91.0 L 272.9 90.9 L 275.2 92.8 L 277.4 93.3 L 279.7 99.0 L 282 104.8 L 284.2 100.6 L 286.5 99.5 L 288.7 102.2 L 291.0 104.7 L 293.2 106.8 L 295.5 106.8 L 297.7 98.6 L 300.0 97.9 L 302.3 99.5 L 304.5 98.7 L 306.8 101.4 L 309.0 97.6 L 311.3 92.6 L 313.5 89.4 L 315.8 86.8 L 318.0 88.0 L 320.3 89.7 L 322.6 90.9 L 324.8 89.7 L 327.1 92.4 L 329.3 91.9 L 331.6 87.4 L 333.8 87.1 L 336.1 85.1 L 338.4 85.4 L 340.6 78.1 L 342.9 77.9 L 345.1 78.3 L 347.4 77.4 L 349.6 80.1 L 351.9 82.5 L 354.1 82.7 L 356.4 83.7 L 358.7 86.2 L 360.9 83.3 L 363.2 77.1 L 365.4 76.9 L 367.7 71.3 L 369.9 72.6 L 372.2 73.2 L 374.4 71.3 L 376.7 70.0 L 379.0 70.5 L 381.2 77.1 L 383.5 76.4 L 385.7 80.2 L 388.0 81.8 L 390.2 84.4 L 392.5 85.1 L 394.8 70.0 L 397.0 65.1 L 399.3 65.2 L 401.5 66.3 L 403.8 65.2 L 406.0 65.1 L 408.3 64.4 L 410.5 56.6 L 412.8 63.1 L 415.1 60.5 L 417.3 58.7 L 419.6 57.3 L 421.8 52.8 L 424.1 53.9 L 426.3 54.6 L 428.6 53.8 L 430.8 51.8 L 433.1 49.9 L 435.4 44.4 L 437.6 50.0 L 439.9 48.8 L 442.1 47.2 L 444.4 50.7 L 446.6 50.9 L 448.9 47.2 L 451.2 46.6 L 453.4 44.7 L 455.7 38.7 L 457.9 32.0 L 460.2 34.8 L 462.4 34.3 L 464.7 34.7 L 466.9 33.5 L 469.2 36.3 L 471.5 37.2 L 473.7 38.6 L 476.0 41.5 L 478.2 44.0 L 480.5 42.6 L 482.7 41.3 L 485.0 42.7 L 487.2 43.0 L 489.5 43.3 L 491.8 42.2 L 494.0 46.0 L 496.3 49.3 L 498.5 46.6 L 500.8 42.0 L 503.0 44.6 L 505.3 49.0 L 507.5 53.7 L 509.8 56.9 L 512.1 55.8 L 514.3 50.9 L 516.6 50.8 L 518.8 51.0 L 521.1 54.1 L 523.3 49.7 L 525.6 53.9 L 527.9 60.4 L 530.1 47.1 L 532.4 47.0 L 534.6 44.0 L 536.9 41.8 L 539.1 43.5 L 541.4 46.5 L 543.6 39.6 L 545.9 37.5 L 548.2 39.1 L 550.4 35.5 L 552.7 29.2 L 554.9 23.0 L 557.2 24.7 L 559.4 18.3 L 561.7 19.1 L 564 15.7" stroke="black" stroke-width="1"  stroke-linejoin="round" stroke-linecap="round"  stroke-opacity="0.1" transform="translate(1, 1)"></path><path fill="none" d="M -2.2 121.7 L 0 120 L 2.2 123.2 L 4.5 123.7 L 6.7 120.9 L 9.0 114.0 L 11.2 116.3 L 13.5 125.1 L 15.7 119.8 L 18.0 125.0 L 20.3 121.6 L 22.5 123.9 L 24.8 128.6 L 27.0 127.5 L 29.3 129.9 L 31.5 132.8 L 33.8 136.6 L 36.0 133.7 L 38.3 136.9 L 40.6 132.9 L 42.8 133.8 L 45.1 132.9 L 47.3 137.6 L 49.6 138.9 L 51.8 140.5 L 54.1 141.3 L 56.4 139.2 L 58.6 136.7 L 60.9 132.5 L 63.1 134.1 L 65.4 138.9 L 67.6 136.4 L 69.9 140.7 L 72.1 139.1 L 74.4 137.3 L 76.7 139.3 L 78.9 133.1 L 81.2 132.9 L 83.4 130.1 L 85.7 126.9 L 87.9 130.8 L 90.2 130.8 L 92.4 132.4 L 94.7 136.6 L 97.0 136.8 L 99.2 134.5 L 101.5 135.1 L 103.7 134.4 L 106.0 132.8 L 108.2 128.0 L 110.5 121.1 L 112.8 119.2 L 115.0 122.3 L 117.3 122.2 L 119.5 120.1 L 121.8 111.6 L 124.0 112.7 L 126.3 112.4 L 128.5 112.5 L 130.8 114.0 L 133.1 109.1 L 135.3 108.5 L 137.6 109.4 L 139.8 108.8 L 142.1 108.7 L 144.3 108.9 L 146.6 101.8 L 148.8 98.4 L 151.1 98.9 L 153.4 96.8 L 155.6 95.1 L 157.9 95.7 L 160.1 98.1 L 162.4 95.1 L 164.6 95.3 L 166.9 94.5 L 169.2 98.2 L 171.4 95.1 L 173.7 90.9 L 175.9 93.3 L 178.2 92.0 L 180.4 93.6 L 182.7 93.7 L 184.9 86.4 L 187.2 83.8 L 189.5 85.9 L 191.7 89.2 L 194.0 89.7 L 196.2 83.8 L 198.5 82.4 L 200.7 82.3 L 203.0 79.0 L 205.2 75.4 L 207.5 75.2 L 209.8 72.9 L 212.0 66.9 L 214.3 67.0 L 216.5 65.3 L 218.8 64.1 L 221.0 64.9 L 223.3 62.0 L 225.6 63.9 L 227.8 61.7 L 230.1 59.6 L 232.3 59.7 L 234.6 63.6 L 236.8 68.9 L 239.1 68.8 L 241.3 66.0 L 243.6 68.7 L 245.9 70.2 L 248.1 68.7 L 250.4 64.5 L 252.6 88.1 L 254.9 93.3 L 257.1 94.5 L 259.4 93.9 L 261.6 95.1 L 263.9 94.9 L 266.2 95.9 L 268.4 93.9 L 270.7 91.0 L 272.9 90.9 L 275.2 92.8 L 277.4 93.3 L 279.7 99.0 L 282 104.8 L 284.2 100.6 L 286.5 99.5 L 288.7 102.2 L 291.0 104.7 L 293.2 106.8 L 295.5 106.8 L 297.7 98.6 L 300.0 97.9 L 302.3 99.5 L 304.5 98.7 L 306.8 101.4 L 309.0 97.6 L 311.3 92.6 L 313.5 89.4 L 315.8 86.8 L 318.0 88.0 L 320.3 89.7 L 322.6 90.9 L 324.8 89.7 L 327.1 92.4 L 329.3 91.9 L 331.6 87.4 L 333.8 87.1 L 336.1 85.1 L 338.4 85.4 L 340.6 78.1 L 342.9 77.9 L 345.1 78.3 L 347.4 77.4 L 349.6 80.1 L 351.9 82.5 L 354.1 82.7 L 356.4 83.7 L 358.7 86.2 L 360.9 83.3 L 363.2 77.1 L 365.4 76.9 L 367.7 71.3 L 369.9 72.6 L 372.2 73.2 L 374.4 71.3 L 376.7 70.0 L 379.0 70.5 L 381.2 77.1 L 383.5 76.4 L 385.7 80.2 L 388.0 81.8 L 390.2 84.4 L 392.5 85.1 L 394.8 70.0 L 397.0 65.1 L 399.3 65.2 L 401.5 66.3 L 403.8 65.2 L 406.0 65.1 L 408.3 64.4 L 410.5 56.6 L 412.8 63.1 L 415.1 60.5 L 417.3 58.7 L 419.6 57.3 L 421.8 52.8 L 424.1 53.9 L 426.3 54.6 L 428.6 53.8 L 430.8 51.8 L 433.1 49.9 L 435.4 44.4 L 437.6 50.0 L 439.9 48.8 L 442.1 47.2 L 444.4 50.7 L 446.6 50.9 L 448.9 47.2 L 451.2 46.6 L 453.4 44.7 L 455.7 38.7 L 457.9 32.0 L 460.2 34.8 L 462.4 34.3 L 464.7 34.7 L 466.9 33.5 L 469.2 36.3 L 471.5 37.2 L 473.7 38.6 L 476.0 41.5 L 478.2 44.0 L 480.5 42.6 L 482.7 41.3 L 485.0 42.7 L 487.2 43.0 L 489.5 43.3 L 491.8 42.2 L 494.0 46.0 L 496.3 49.3 L 498.5 46.6 L 500.8 42.0 L 503.0 44.6 L 505.3 49.0 L 507.5 53.7 L 509.8 56.9 L 512.1 55.8 L 514.3 50.9 L 516.6 50.8 L 518.8 51.0 L 521.1 54.1 L 523.3 49.7 L 525.6 53.9 L 527.9 60.4 L 530.1 47.1 L 532.4 47.0 L 534.6 44.0 L 536.9 41.8 L 539.1 43.5 L 541.4 46.5 L 543.6 39.6 L 545.9 37.5 L 548.2 39.1 L 550.4 35.5 L 552.7 29.2 L 554.9 23.0 L 557.2 24.7 L 559.4 18.3 L 561.7 19.1 L 564 15.7" stroke="#8d4654" stroke-width="2"  stroke-linejoin="round" stroke-linecap="round"></path><path fill="none" d="M -12.2 121.7 L -2.2 121.7 L 0 120 L 2.2 123.2 L 4.5 123.7 L 6.7 120.9 L 9.0 114.0 L 11.2 116.3 L 13.5 125.1 L 15.7 119.8 L 18.0 125.0 L 20.3 121.6 L 22.5 123.9 L 24.8 128.6 L 27.0 127.5 L 29.3 129.9 L 31.5 132.8 L 33.8 136.6 L 36.0 133.7 L 38.3 136.9 L 40.6 132.9 L 42.8 133.8 L 45.1 132.9 L 47.3 137.6 L 49.6 138.9 L 51.8 140.5 L 54.1 141.3 L 56.4 139.2 L 58.6 136.7 L 60.9 132.5 L 63.1 134.1 L 65.4 138.9 L 67.6 136.4 L 69.9 140.7 L 72.1 139.1 L 74.4 137.3 L 76.7 139.3 L 78.9 133.1 L 81.2 132.9 L 83.4 130.1 L 85.7 126.9 L 87.9 130.8 L 90.2 130.8 L 92.4 132.4 L 94.7 136.6 L 97.0 136.8 L 99.2 134.5 L 101.5 135.1 L 103.7 134.4 L 106.0 132.8 L 108.2 128.0 L 110.5 121.1 L 112.8 119.2 L 115.0 122.3 L 117.3 122.2 L 119.5 120.1 L 121.8 111.6 L 124.0 112.7 L 126.3 112.4 L 128.5 112.5 L 130.8 114.0 L 133.1 109.1 L 135.3 108.5 L 137.6 109.4 L 139.8 108.8 L 142.1 108.7 L 144.3 108.9 L 146.6 101.8 L 148.8 98.4 L 151.1 98.9 L 153.4 96.8 L 155.6 95.1 L 157.9 95.7 L 160.1 98.1 L 162.4 95.1 L 164.6 95.3 L 166.9 94.5 L 169.2 98.2 L 171.4 95.1 L 173.7 90.9 L 175.9 93.3 L 178.2 92.0 L 180.4 93.6 L 182.7 93.7 L 184.9 86.4 L 187.2 83.8 L 189.5 85.9 L 191.7 89.2 L 194.0 89.7 L 196.2 83.8 L 198.5 82.4 L 200.7 82.3 L 203.0 79.0 L 205.2 75.4 L 207.5 75.2 L 209.8 72.9 L 212.0 66.9 L 214.3 67.0 L 216.5 65.3 L 218.8 64.1 L 221.0 64.9 L 223.3 62.0 L 225.6 63.9 L 227.8 61.7 L 230.1 59.6 L 232.3 59.7 L 234.6 63.6 L 236.8 68.9 L 239.1 68.8 L 241.3 66.0 L 243.6 68.7 L 245.9 70.2 L 248.1 68.7 L 250.4 64.5 L 252.6 88.1 L 254.9 93.3 L 257.1 94.5 L 259.4 93.9 L 261.6 95.1 L 263.9 94.9 L 266.2 95.9 L 268.4 93.9 L 270.7 91.0 L 272.9 90.9 L 275.2 92.8 L 277.4 93.3 L 279.7 99.0 L 282 104.8 L 284.2 100.6 L 286.5 99.5 L 288.7 102.2 L 291.0 104.7 L 293.2 106.8 L 295.5 106.8 L 297.7 98.6 L 300.0 97.9 L 302.3 99.5 L 304.5 98.7 L 306.8 101.4 L 309.0 97.6 L 311.3 92.6 L 313.5 89.4 L 315.8 86.8 L 318.0 88.0 L 320.3 89.7 L 322.6 90.9 L 324.8 89.7 L 327.1 92.4 L 329.3 91.9 L 331.6 87.4 L 333.8 87.1 L 336.1 85.1 L 338.4 85.4 L 340.6 78.1 L 342.9 77.9 L 345.1 78.3 L 347.4 77.4 L 349.6 80.1 L 351.9 82.5 L 354.1 82.7 L 356.4 83.7 L 358.7 86.2 L 360.9 83.3 L 363.2 77.1 L 365.4 76.9 L 367.7 71.3 L 369.9 72.6 L 372.2 73.2 L 374.4 71.3 L 376.7 70.0 L 379.0 70.5 L 381.2 77.1 L 383.5 76.4 L 385.7 80.2 L 388.0 81.8 L 390.2 84.4 L 392.5 85.1 L 394.8 70.0 L 397.0 65.1 L 399.3 65.2 L 401.5 66.3 L 403.8 65.2 L 406.0 65.1 L 408.3 64.4 L 410.5 56.6 L 412.8 63.1 L 415.1 60.5 L 417.3 58.7 L 419.6 57.3 L 421.8 52.8 L 424.1 53.9 L 426.3 54.6 L 428.6 53.8 L 430.8 51.8 L 433.1 49.9 L 435.4 44.4 L 437.6 50.0 L 439.9 48.8 L 442.1 47.2 L 444.4 50.7 L 446.6 50.9 L 448.9 47.2 L 451.2 46.6 L 453.4 44.7 L 455.7 38.7 L 457.9 32.0 L 460.2 34.8 L 462.4 34.3 L 464.7 34.7 L 466.9 33.5 L 469.2 36.3 L 471.5 37.2 L 473.7 38.6 L 476.0 41.5 L 478.2 44.0 L 480.5 42.6 L 482.7 41.3 L 485.0 42.7 L 487.2 43.0 L 489.5 43.3 L 491.8 42.2 L 494.0 46.0 L 496.3 49.3 L 498.5 46.6 L 500.8 42.0 L 503.0 44.6 L 505.3 49.0 L 507.5 53.7 L 509.8 56.9 L 512.1 55.8 L 514.3 50.9 L 516.6 50.8 L 518.8 51.0 L 521.1 54.1 L 523.3 49.7 L 525.6 53.9 L 527.9 60.4 L 530.1 47.1 L 532.4 47.0 L 534.6 44.0 L 536.9 41.8 L 539.1 43.5 L 541.4 46.5 L 543.6 39.6 L 545.9 37.5 L 548.2 39.1 L 550.4 35.5 L 552.7 29.2 L 554.9 23.0 L 557.2 24.7 L 559.4 18.3 L 561.7 19.1 L 564 15.7 L 574 15.7" stroke-linejoin="round" visibility="visible" stroke="rgb(192,192,192)" stroke-opacity="0.0" stroke-width="22"  class=" highcharts-tracker" style=""></path></g><g class="highcharts-markers highcharts-tracker" visibility="visible"  transform="translate(10,45) scale(1 1)" clip-path="url(#highcharts-2)" style=""></g><g class="highcharts-series" visibility="visible"  transform="translate(24,331) scale(1 1)" clip-path="url(#highcharts-5)"><path fill="rgb(69,114,167)" fill-opacity="0.0" d="M 0 25.0 C 0 25.0 0.8 24.3 1.4 24.3 C 2.0 24.3 2.3 24.6 2.9 25.0 C 3.5 25.4 3.8 25.9 4.4 26.2 C 5.0 26.5 5.3 26.6 5.8 26.6 C 6.4 26.6 6.7 25.7 7.3 25.2 C 7.9 24.8 8.2 24.8 8.8 24.6 C 9.4 24.3 9.7 24.0 10.3 24.0 C 10.8 24.0 11.1 25.2 11.7 25.2 C 12.3 25.2 12.6 25.1 13.2 24.7 C 13.8 24.2 14.1 23.0 14.7 22.9 C 15.3 22.9 15.6 22.9 16.1 22.9 C 16.7 22.8 17.0 22.8 17.6 22.6 C 18.2 22.3 18.5 22.2 19.1 21.8 C 19.7 21.3 20.0 20.3 20.6 20.3 C 21.2 20.2 21.4 20.2 22.0 20.2 C 22.6 20.2 22.9 20.6 23.5 20.6 C 24.1 20.6 24.4 20.0 25.0 19.6 C 25.6 19.2 25.9 18.9 26.5 18.5 C 27.0 18.2 27.3 18.2 27.9 17.9 C 28.5 17.6 28.8 17.4 29.4 17.2 C 30.0 17.0 30.3 17.1 30.9 16.9 C 31.5 16.6 31.8 16.0 32.3 16.0 C 32.9 16.0 33.2 16.2 33.8 16.2 C 34.4 16.2 34.7 15.8 35.3 15.6 C 35.9 15.3 36.2 15.2 36.8 15.0 C 37.4 14.8 37.6 14.9 38.2 14.6 C 38.8 14.3 39.1 13.7 39.7 13.7 C 40.3 13.7 40.6 14.2 41.2 14.5 C 41.8 14.7 42.1 14.9 42.7 14.9 C 43.2 14.9 43.5 14.1 44.1 13.9 C 44.7 13.6 45.0 13.7 45.6 13.6 C 46.2 13.5 46.5 13.5 47.1 13.5 C 47.7 13.5 48.0 13.9 48.5 13.9 C 49.1 13.9 49.4 13.4 50.0 13.0 C 50.6 12.6 50.9 11.7 51.5 11.7 C 52.1 11.7 52.4 12.1 53.0 12.3 C 53.6 12.5 53.8 12.3 54.4 12.6 C 55.0 13.0 55.3 14.2 55.9 14.5 C 56.5 14.9 56.8 14.9 57.4 14.9 C 58.0 14.9 58.3 14.9 58.9 14.9 C 59.4 14.9 59.7 15.9 60.3 16.4 C 60.9 16.9 61.2 17.2 61.8 17.5 C 62.4 17.8 62.7 17.9 63.3 17.9 C 63.9 17.9 64.2 16.6 64.7 16.6 C 65.3 16.6 65.6 17.0 66.2 17.0 C 66.8 17.0 67.1 16.6 67.7 16.4 C 68.3 16.3 68.6 16.2 69.2 16.0 C 69.7 15.8 70.0 15.7 70.6 15.5 C 71.2 15.2 71.5 15.4 72.1 14.8 C 72.7 14.3 73.0 13.1 73.6 12.7 C 74.2 12.3 74.5 12.4 75.0 12.3 C 75.6 12.1 75.9 12.0 76.5 12.0 C 77.1 12.0 77.4 12.5 78.0 12.5 C 78.6 12.5 78.9 12.2 79.5 12.2 C 80.1 12.2 80.4 13.1 80.9 13.1 C 81.5 13.1 81.8 13.1 82.4 13.1 C 83.0 13.1 83.3 13.1 83.9 13.3 C 84.5 13.4 84.8 14.1 85.4 14.1 C 85.9 14.1 86.2 13.6 86.8 13.6 C 87.4 13.6 87.7 13.9 88.3 13.9 C 88.9 13.9 89.2 12.1 89.8 12.1 C 90.4 12.1 90.7 12.3 91.2 12.8 C 91.8 13.3 92.1 14.7 92.7 14.7 C 93.3 14.7 93.6 14.4 94.2 14.4 C 94.8 14.4 95.1 16.4 95.7 16.4 C 96.3 16.4 96.5 16.2 97.1 16.2 C 97.7 16.1 98.0 16.1 98.6 16.0 C 99.2 15.9 99.5 15.8 100.1 15.6 C 100.7 15.5 101.0 15.2 101.6 15.2 C 102.1 15.2 102.4 15.6 103.0 15.6 C 103.6 15.6 103.9 14.8 104.5 14.4 C 105.1 14.1 105.4 14.2 106.0 14.0 C 106.6 13.8 106.9 13.7 107.4 13.4 C 108.0 13.1 108.3 13.2 108.9 12.6 C 109.5 12.0 109.8 12.2 110.4 10.4 C 111.0 8.5 111.3 3.5 111.9 3.5 C 112.5 3.5 112.7 4.0 113.3 4.7 C 113.9 5.5 114.2 7.2 114.8 7.2 C 115.4 7.2 115.7 6.7 116.3 6.7 C 116.9 6.7 117.2 8.0 117.8 8.0 C 118.3 8.0 118.6 7.8 119.2 7.4 C 119.8 6.9 120.1 6.2 120.7 5.8 C 121.3 5.4 121.6 5.8 122.2 5.3 C 122.8 4.8 123.1 3.3 123.6 3.3 C 124.2 3.3 124.5 4.5 125.1 5.2 C 125.7 5.9 126.0 6.3 126.6 6.8 C 127.2 7.3 127.5 7.2 128.1 7.8 C 128.6 8.3 128.9 8.9 129.5 9.4 C 130.1 9.9 130.4 9.4 131.0 10.1 C 131.6 10.7 131.9 14.6 132.5 15.3 C 133.1 15.9 133.4 15.7 134 15.9 C 134.5 16.2 134.8 16.5 135.4 16.6 C 136.0 16.8 136.3 16.7 136.9 16.8 C 137.5 17.0 137.8 17.3 138.4 17.3 C 139.0 17.3 139.3 16.3 139.8 15.9 C 140.4 15.5 140.7 15.3 141.3 15.3 C 141.9 15.3 142.2 15.8 142.8 15.8 C 143.4 15.8 143.7 15.0 144.3 15.0 C 144.8 15.0 145.1 15.4 145.7 15.4 C 146.3 15.4 146.6 15.4 147.2 15.3 C 147.8 15.2 148.1 12.3 148.7 12.3 C 149.3 12.3 149.6 15.2 150.1 15.2 C 150.7 15.2 151.0 14.9 151.6 14.6 C 152.2 14.2 152.5 13.4 153.1 13.4 C 153.7 13.4 154.0 15.3 154.6 15.7 C 155.2 16.2 155.4 15.9 156.0 16.2 C 156.6 16.5 156.9 17.2 157.5 17.2 C 158.1 17.2 158.4 17.0 159.0 16.7 C 159.6 16.4 159.9 15.6 160.5 15.6 C 161.0 15.6 161.3 16.2 161.9 16.9 C 162.5 17.6 162.8 18.3 163.4 19.0 C 164.0 19.8 164.3 20.6 164.9 20.6 C 165.5 20.6 165.8 19.3 166.3 19.3 C 166.9 19.3 167.2 20.0 167.8 20.1 C 168.4 20.3 168.7 20.3 169.3 20.3 C 169.9 20.3 170.2 19.3 170.8 18.6 C 171.4 18.0 171.6 16.8 172.2 16.8 C 172.8 16.8 173.1 17.6 173.7 17.6 C 174.3 17.6 174.6 17.4 175.2 17.4 C 175.8 17.4 176.1 19.1 176.7 19.1 C 177.2 19.1 177.5 18.8 178.1 18.8 C 178.7 18.8 179.0 20.7 179.6 20.7 C 180.2 20.7 180.5 19.8 181.1 19.8 C 181.7 19.7 182.0 19.7 182.5 19.7 C 183.1 19.7 183.4 24.8 184.0 24.8 C 184.6 24.8 184.9 23.0 185.5 23.0 C 186.1 23.0 186.4 24.6 187.0 25.1 C 187.6 25.7 187.8 25.5 188.4 25.7 C 189.0 25.9 189.3 25.7 189.9 26.2 C 190.5 26.7 190.8 27.3 191.4 28.3 C 192.0 29.3 192.3 31.4 192.9 31.4 C 193.4 31.4 193.7 29.0 194.3 29.0 C 194.9 29.0 195.2 30.7 195.8 30.7 C 196.4 30.7 196.7 29.3 197.3 29.3 C 197.9 29.3 198.2 30.2 198.7 30.5 C 199.3 30.8 199.6 30.9 200.2 30.9 C 200.8 30.9 201.1 30.7 201.7 30.4 C 202.3 30.1 202.6 29.5 203.2 29.5 C 203.7 29.5 204.0 29.8 204.6 30.5 C 205.2 31.1 205.5 32.2 206.1 32.8 C 206.7 33.4 207.0 33.5 207.6 33.5 C 208.2 33.5 208.5 32.2 209.0 31.7 C 209.6 31.2 209.9 31.0 210.5 31.0 C 211.1 31.0 211.4 32.0 212.0 32.8 C 212.6 33.6 212.9 34.1 213.5 34.8 C 214.1 35.6 214.4 36.6 214.9 36.6 C 215.5 36.6 215.8 35.7 216.4 35.3 C 217.0 34.9 217.3 35.3 217.9 34.7 C 218.5 34.1 218.8 33.1 219.4 32.5 C 219.9 31.9 220.2 32.1 220.8 31.8 C 221.4 31.5 221.7 31.1 222.3 30.9 C 222.9 30.7 223.2 30.7 223.8 30.7 C 224.4 30.7 224.7 30.9 225.2 30.9 C 225.8 30.9 226.1 29.3 226.7 29.3 C 227.3 29.3 227.6 30.1 228.2 30.1 C 228.8 30.1 229.1 30.0 229.7 29.9 C 230.3 29.7 230.5 29.5 231.1 29.3 C 231.7 29.2 232.0 29.3 232.6 28.9 C 233.2 28.4 233.5 27.6 234.1 26.9 C 234.7 26.2 235.0 26.1 235.6 25.5 C 236.1 24.9 236.4 23.8 237.0 23.8 C 237.6 23.8 237.9 24.1 238.5 24.1 C 239.1 24.1 239.4 23.7 240.0 23.7 C 240.6 23.7 240.9 25.4 241.4 25.4 C 242.0 25.4 242.3 24.1 242.9 23.4 C 243.5 22.8 243.8 22.1 244.4 22.1 C 245.0 22.1 245.3 23.9 245.9 23.9 C 246.5 23.9 246.7 23.7 247.3 23.7 C 247.9 23.7 248.2 24.0 248.8 24.0 C 249.4 24.0 249.7 24.0 250.3 23.6 C 250.9 23.3 251.2 22.1 251.8 22.1 C 252.3 22.1 252.6 22.8 253.2 22.8 C 253.8 22.8 254.1 22.1 254.7 21.8 C 255.3 21.5 255.6 21.5 256.2 21.2 C 256.8 21.0 257.1 20.5 257.6 20.5 C 258.2 20.5 258.5 20.7 259.1 20.9 C 259.7 21.0 260.0 21.2 260.6 21.2 C 261.2 21.2 261.5 20.2 262.1 19.7 C 262.6 19.2 262.9 19.4 263.5 18.7 C 264.1 18.0 264.4 16.3 265.0 16.3 C 265.6 16.3 265.9 16.6 266.5 16.6 C 267.1 16.6 267.4 15.3 268 14.7 C 268.5 14.2 268.8 13.8 269.4 13.8 C 270.0 13.8 270.3 13.9 270.9 13.9 C 271.5 13.9 271.8 13.8 272.4 13.8 C 273.0 13.8 273.3 13.9 273.8 13.9 C 274.4 13.9 274.7 13.8 275.3 13.4 C 275.9 13.1 276.2 12.2 276.8 12.1 C 277.4 12.0 277.7 12.0 278.3 12.0 C 278.8 12.0 279.1 12.1 279.7 12.3 C 280.3 12.4 280.6 12.5 281.2 12.7 C 281.8 12.8 282.1 12.7 282.7 13.0 C 283.3 13.3 283.6 14.2 284.1 14.8 C 284.7 15.5 285.0 15.9 285.6 16.3 C 286.2 16.7 286.5 16.8 287.1 16.8 C 287.7 16.8 288.0 16.0 288.6 15.9 C 289.2 15.8 289.4 15.8 290.0 15.8 C 290.6 15.7 290.9 15.8 291.5 15.7 C 292.1 15.6 292.4 15.4 293.0 15.1 C 293.6 14.9 293.9 14.5 294.5 14.3 C 295.0 14.0 295.3 13.9 295.9 13.9 C 296.5 13.9 296.8 14.5 297.4 14.5 C 298.0 14.5 298.3 14.5 298.9 14.1 C 299.5 13.7 299.8 13.0 300.3 12.5 C 300.9 12.0 301.2 11.5 301.8 11.5 C 302.4 11.5 302.7 11.5 303.3 12.1 C 303.9 12.6 304.2 13.5 304.8 14.1 C 305.4 14.7 305.6 14.4 306.2 15.0 C 306.8 15.5 307.1 15.7 307.7 16.8 C 308.3 17.9 308.6 20.2 309.2 20.2 C 309.8 20.2 310.1 19.7 310.7 19.7 C 311.2 19.7 311.5 21.3 312.1 21.3 C 312.7 21.3 313.0 19.5 313.6 19.5 C 314.2 19.5 314.5 20.1 315.1 21.1 C 315.7 22.0 316.0 24.1 316.5 24.1 C 317.1 24.1 317.4 23.7 318.0 23.1 C 318.6 22.6 318.9 21.8 319.5 21.3 C 320.1 20.8 320.4 21.0 321.0 20.8 C 321.6 20.5 321.8 19.9 322.4 19.9 C 323.0 19.9 323.3 19.9 323.9 20.2 C 324.5 20.5 324.8 21.3 325.4 21.7 C 326.0 22.2 326.3 22.0 326.9 22.3 C 327.4 22.6 327.7 22.9 328.3 23.1 C 328.9 23.3 329.2 23.4 329.8 23.4 C 330.4 23.4 330.7 23.4 331.3 23.2 C 331.9 22.9 332.2 21.3 332.7 21.3 C 333.3 21.3 333.6 21.6 334.2 21.7 C 334.8 21.9 335.1 22.1 335.7 22.3 C 336.3 22.4 336.6 22.6 337.2 22.6 C 337.7 22.6 338.0 21.7 338.6 21.4 C 339.2 21.0 339.5 21.2 340.1 20.9 C 340.7 20.6 341.0 20.5 341.6 19.9 C 342.2 19.4 342.5 18.2 343.0 18.2 C 343.6 18.2 343.9 18.4 344.5 18.8 C 345.1 19.2 345.4 19.8 346.0 20.2 C 346.6 20.7 346.9 21.0 347.5 21.0 C 348.1 21.0 348.4 20.3 348.9 19.8 C 349.5 19.2 349.8 18.7 350.4 18.2 C 351.0 17.7 351.3 17.5 351.9 17.2 C 352.5 16.8 352.8 16.6 353.4 16.6 C 353.9 16.6 354.2 16.8 354.8 16.8 C 355.4 16.8 355.7 16.2 356.3 16.2 C 356.9 16.2 357.2 16.3 357.8 16.3 C 358.4 16.3 358.7 16.2 359.2 16.1 C 359.8 16.1 360.1 16.0 360.7 16.0 C 361.3 16.0 361.6 17.0 362.2 17.0 C 362.8 17.0 363.1 17.0 363.7 17.0 C 364.3 17.0 364.5 17.8 365.1 18.2 C 365.7 18.6 366.0 18.6 366.6 18.9 C 367.2 19.2 367.5 19.3 368.1 19.6 C 368.7 19.9 369.0 20.0 369.6 20.4 C 370.1 20.7 370.4 21.4 371.0 21.4 C 371.6 21.4 371.9 20.7 372.5 20.7 C 373.1 20.7 373.4 20.8 374.0 20.8 C 374.6 20.8 374.9 20.0 375.4 20.0 C 376.0 20.0 376.3 20.4 376.9 20.6 C 377.5 20.8 377.8 20.9 378.4 20.9 C 379.0 20.9 379.3 19.7 379.9 19.7 C 380.5 19.7 380.7 20.0 381.3 20.2 C 381.9 20.4 382.2 20.4 382.8 20.8 C 383.4 21.2 383.7 21.9 384.3 22.2 C 384.9 22.5 385.2 22.5 385.8 22.5 C 386.3 22.5 386.6 22.5 387.2 22.5 C 387.8 22.5 388.1 23.3 388.7 23.3 C 389.3 23.3 389.6 23.3 390.2 23.1 C 390.8 22.9 391.1 22.8 391.6 22.3 C 392.2 21.7 392.5 21.0 393.1 20.4 C 393.7 19.7 394.0 19.3 394.6 19.1 C 395.2 19.0 395.5 19.1 396.1 19.0 C 396.6 18.8 396.9 18.4 397.5 18.1 C 398.1 17.7 398.4 17.2 399.0 17.2 C 399.6 17.2 399.9 18.3 400.5 19.1 C 401.1 20.0 401.4 21.7 402 21.7 C 402.5 21.7 402.8 21.6 403.4 21.6 C 404.0 21.6 404.3 22.1 404.9 22.1 C 405.5 22.1 405.8 19.7 406.4 19.7 C 407.0 19.7 407.3 20.2 407.8 20.2 C 408.4 20.2 408.7 19.1 409.3 19.1 C 409.9 19.1 410.2 19.5 410.8 19.8 C 411.4 20.2 411.7 20.9 412.3 20.9 C 412.8 20.9 413.1 20.9 413.7 20.5 C 414.3 20.0 414.6 18.3 415.2 18.2 C 415.8 18.1 416.1 18.1 416.7 18.1 C 417.3 18.1 417.6 18.1 418.1 18.4 C 418.7 18.6 419.0 19.5 419.6 19.5 C 420.2 19.5 420.5 18.9 421.1 18.9 C 421.7 18.9 422.0 19.2 422.6 19.8 C 423.2 20.5 423.4 22.1 424.0 22.1 C 424.6 22.1 424.9 21.6 425.5 21.3 C 426.1 21.0 426.4 20.7 427.0 20.6 C 427.6 20.5 427.9 20.5 428.5 20.5 C 429.0 20.4 429.3 20.3 429.9 20.2 C 430.5 20.1 430.8 20.2 431.4 20.0 C 432.0 19.8 432.3 18.2 432.9 17.5 C 433.5 16.9 433.8 17.2 434.3 16.9 C 434.9 16.5 435.2 16.3 435.8 15.8 C 436.4 15.3 436.7 14.7 437.3 14.3 C 437.9 13.9 438.2 14.1 438.8 13.7 C 439.4 13.4 439.6 13.0 440.2 12.7 C 440.8 12.4 441.1 12.7 441.7 12.4 C 442.3 12.1 442.6 11.6 443.2 11.2 C 443.8 10.9 444.1 10.5 444.7 10.5 C 445.2 10.5 445.5 10.5 446.1 10.5 C 446.7 10.5 447.0 9.3 447.6 9.3 C 448.2 9.3 448.5 10.2 449.1 10.2 C 449.7 10.2 450.0 9.7 450.5 9.7 C 451.1 9.7 451.4 10.2 452.0 10.7 C 452.6 11.2 452.9 12.3 453.5 12.3 C 454.1 12.3 454.4 11.6 455.0 11.2 C 455.6 10.8 455.8 10.1 456.4 10.1 C 457.0 10.1 457.3 10.3 457.9 10.7 C 458.5 11.1 458.8 11.7 459.4 12.3 C 460.0 12.8 460.3 13.1 460.9 13.6 C 461.4 14.0 461.7 14.3 462.3 14.5 C 462.9 14.8 463.2 14.8 463.8 14.9 C 464.4 15.0 464.7 15.0 465.3 15.0 C 465.9 15.0 466.2 15.0 466.7 14.6 C 467.3 14.1 467.6 12.7 468.2 12.7 C 468.8 12.7 469.1 13.3 469.7 13.3 C 470.3 13.3 470.6 12.6 471.2 12.6 C 471.7 12.6 472.0 14.4 472.6 14.4 C 473.2 14.4 473.5 13.4 474.1 13.4 C 474.7 13.4 475.0 14.7 475.6 14.7 C 476.2 14.7 476.5 14.6 477.0 14.3 C 477.6 14.0 477.9 13.3 478.5 13.0 C 479.1 12.7 479.4 12.8 480.0 12.7 C 480.6 12.6 480.9 12.6 481.5 12.5 C 482.1 12.5 482.4 12.5 482.9 12.5 C 483.5 12.4 483.8 12.3 484.4 12.2 C 485.0 12.2 485.3 12.2 485.9 12.1 C 486.5 11.9 486.8 11.5 487.4 11.5 C 487.9 11.5 488.2 12.6 488.8 13.1 C 489.4 13.5 489.7 13.5 490.3 13.8 C 490.9 14.2 491.2 14.7 491.8 14.7 C 492.4 14.7 492.7 14.5 493.2 14.5 C 493.8 14.5 494.1 16.7 494.7 16.7 C 495.3 16.7 495.6 14.9 496.2 14.8 C 496.8 14.7 497.1 14.7 497.7 14.7 C 498.3 14.7 498.5 18.1 499.1 18.2 C 499.7 18.3 500.0 18.3 500.6 18.3 C 501.2 18.3 501.5 18.2 502.1 18.2 C 502.7 18.2 503.0 19.1 503.6 19.1 C 504.1 19.1 504.4 18.5 505.0 18.2 C 505.6 17.9 505.9 17.6 506.5 17.6 C 507.1 17.6 507.4 18.6 508.0 18.6 C 508.6 18.6 508.9 18.2 509.4 18.2 C 510.0 18.2 510.3 18.9 510.9 18.9 C 511.5 18.9 511.8 18.4 512.4 18.1 C 513.0 17.8 513.3 17.6 513.9 17.4 C 514.5 17.2 514.7 17.0 515.3 17.0 C 515.9 17.0 516.2 17.6 516.8 17.6 C 517.4 17.6 517.7 16.8 518.3 16.8 C 518.9 16.8 519.2 17.0 519.8 17.1 C 520.3 17.1 520.6 17.3 521.2 17.3 C 521.8 17.3 522.1 16.5 522.7 16.5 C 523.3 16.5 523.6 16.8 524.2 16.8 C 524.8 16.8 525.1 16.5 525.6 16.4 C 526.2 16.3 526.5 16.3 527.1 16.2 C 527.7 16.0 528.0 16.0 528.6 15.7 C 529.2 15.4 529.5 14.7 530.1 14.7 C 530.6 14.7 530.9 15.1 531.5 15.1 C 532.1 15.1 532.4 12.5 533.0 11.3 C 533.6 10.0 533.9 8.7 534.5 8.6 C 535.1 8.5 536 8.5 536 8.5 L 536 40 L 0 40" ></path><path fill="none" d="M 0 25.0 C 0 25.0 0.8 24.3 1.4 24.3 C 2.0 24.3 2.3 24.6 2.9 25.0 C 3.5 25.4 3.8 25.9 4.4 26.2 C 5.0 26.5 5.3 26.6 5.8 26.6 C 6.4 26.6 6.7 25.7 7.3 25.2 C 7.9 24.8 8.2 24.8 8.8 24.6 C 9.4 24.3 9.7 24.0 10.3 24.0 C 10.8 24.0 11.1 25.2 11.7 25.2 C 12.3 25.2 12.6 25.1 13.2 24.7 C 13.8 24.2 14.1 23.0 14.7 22.9 C 15.3 22.9 15.6 22.9 16.1 22.9 C 16.7 22.8 17.0 22.8 17.6 22.6 C 18.2 22.3 18.5 22.2 19.1 21.8 C 19.7 21.3 20.0 20.3 20.6 20.3 C 21.2 20.2 21.4 20.2 22.0 20.2 C 22.6 20.2 22.9 20.6 23.5 20.6 C 24.1 20.6 24.4 20.0 25.0 19.6 C 25.6 19.2 25.9 18.9 26.5 18.5 C 27.0 18.2 27.3 18.2 27.9 17.9 C 28.5 17.6 28.8 17.4 29.4 17.2 C 30.0 17.0 30.3 17.1 30.9 16.9 C 31.5 16.6 31.8 16.0 32.3 16.0 C 32.9 16.0 33.2 16.2 33.8 16.2 C 34.4 16.2 34.7 15.8 35.3 15.6 C 35.9 15.3 36.2 15.2 36.8 15.0 C 37.4 14.8 37.6 14.9 38.2 14.6 C 38.8 14.3 39.1 13.7 39.7 13.7 C 40.3 13.7 40.6 14.2 41.2 14.5 C 41.8 14.7 42.1 14.9 42.7 14.9 C 43.2 14.9 43.5 14.1 44.1 13.9 C 44.7 13.6 45.0 13.7 45.6 13.6 C 46.2 13.5 46.5 13.5 47.1 13.5 C 47.7 13.5 48.0 13.9 48.5 13.9 C 49.1 13.9 49.4 13.4 50.0 13.0 C 50.6 12.6 50.9 11.7 51.5 11.7 C 52.1 11.7 52.4 12.1 53.0 12.3 C 53.6 12.5 53.8 12.3 54.4 12.6 C 55.0 13.0 55.3 14.2 55.9 14.5 C 56.5 14.9 56.8 14.9 57.4 14.9 C 58.0 14.9 58.3 14.9 58.9 14.9 C 59.4 14.9 59.7 15.9 60.3 16.4 C 60.9 16.9 61.2 17.2 61.8 17.5 C 62.4 17.8 62.7 17.9 63.3 17.9 C 63.9 17.9 64.2 16.6 64.7 16.6 C 65.3 16.6 65.6 17.0 66.2 17.0 C 66.8 17.0 67.1 16.6 67.7 16.4 C 68.3 16.3 68.6 16.2 69.2 16.0 C 69.7 15.8 70.0 15.7 70.6 15.5 C 71.2 15.2 71.5 15.4 72.1 14.8 C 72.7 14.3 73.0 13.1 73.6 12.7 C 74.2 12.3 74.5 12.4 75.0 12.3 C 75.6 12.1 75.9 12.0 76.5 12.0 C 77.1 12.0 77.4 12.5 78.0 12.5 C 78.6 12.5 78.9 12.2 79.5 12.2 C 80.1 12.2 80.4 13.1 80.9 13.1 C 81.5 13.1 81.8 13.1 82.4 13.1 C 83.0 13.1 83.3 13.1 83.9 13.3 C 84.5 13.4 84.8 14.1 85.4 14.1 C 85.9 14.1 86.2 13.6 86.8 13.6 C 87.4 13.6 87.7 13.9 88.3 13.9 C 88.9 13.9 89.2 12.1 89.8 12.1 C 90.4 12.1 90.7 12.3 91.2 12.8 C 91.8 13.3 92.1 14.7 92.7 14.7 C 93.3 14.7 93.6 14.4 94.2 14.4 C 94.8 14.4 95.1 16.4 95.7 16.4 C 96.3 16.4 96.5 16.2 97.1 16.2 C 97.7 16.1 98.0 16.1 98.6 16.0 C 99.2 15.9 99.5 15.8 100.1 15.6 C 100.7 15.5 101.0 15.2 101.6 15.2 C 102.1 15.2 102.4 15.6 103.0 15.6 C 103.6 15.6 103.9 14.8 104.5 14.4 C 105.1 14.1 105.4 14.2 106.0 14.0 C 106.6 13.8 106.9 13.7 107.4 13.4 C 108.0 13.1 108.3 13.2 108.9 12.6 C 109.5 12.0 109.8 12.2 110.4 10.4 C 111.0 8.5 111.3 3.5 111.9 3.5 C 112.5 3.5 112.7 4.0 113.3 4.7 C 113.9 5.5 114.2 7.2 114.8 7.2 C 115.4 7.2 115.7 6.7 116.3 6.7 C 116.9 6.7 117.2 8.0 117.8 8.0 C 118.3 8.0 118.6 7.8 119.2 7.4 C 119.8 6.9 120.1 6.2 120.7 5.8 C 121.3 5.4 121.6 5.8 122.2 5.3 C 122.8 4.8 123.1 3.3 123.6 3.3 C 124.2 3.3 124.5 4.5 125.1 5.2 C 125.7 5.9 126.0 6.3 126.6 6.8 C 127.2 7.3 127.5 7.2 128.1 7.8 C 128.6 8.3 128.9 8.9 129.5 9.4 C 130.1 9.9 130.4 9.4 131.0 10.1 C 131.6 10.7 131.9 14.6 132.5 15.3 C 133.1 15.9 133.4 15.7 134 15.9 C 134.5 16.2 134.8 16.5 135.4 16.6 C 136.0 16.8 136.3 16.7 136.9 16.8 C 137.5 17.0 137.8 17.3 138.4 17.3 C 139.0 17.3 139.3 16.3 139.8 15.9 C 140.4 15.5 140.7 15.3 141.3 15.3 C 141.9 15.3 142.2 15.8 142.8 15.8 C 143.4 15.8 143.7 15.0 144.3 15.0 C 144.8 15.0 145.1 15.4 145.7 15.4 C 146.3 15.4 146.6 15.4 147.2 15.3 C 147.8 15.2 148.1 12.3 148.7 12.3 C 149.3 12.3 149.6 15.2 150.1 15.2 C 150.7 15.2 151.0 14.9 151.6 14.6 C 152.2 14.2 152.5 13.4 153.1 13.4 C 153.7 13.4 154.0 15.3 154.6 15.7 C 155.2 16.2 155.4 15.9 156.0 16.2 C 156.6 16.5 156.9 17.2 157.5 17.2 C 158.1 17.2 158.4 17.0 159.0 16.7 C 159.6 16.4 159.9 15.6 160.5 15.6 C 161.0 15.6 161.3 16.2 161.9 16.9 C 162.5 17.6 162.8 18.3 163.4 19.0 C 164.0 19.8 164.3 20.6 164.9 20.6 C 165.5 20.6 165.8 19.3 166.3 19.3 C 166.9 19.3 167.2 20.0 167.8 20.1 C 168.4 20.3 168.7 20.3 169.3 20.3 C 169.9 20.3 170.2 19.3 170.8 18.6 C 171.4 18.0 171.6 16.8 172.2 16.8 C 172.8 16.8 173.1 17.6 173.7 17.6 C 174.3 17.6 174.6 17.4 175.2 17.4 C 175.8 17.4 176.1 19.1 176.7 19.1 C 177.2 19.1 177.5 18.8 178.1 18.8 C 178.7 18.8 179.0 20.7 179.6 20.7 C 180.2 20.7 180.5 19.8 181.1 19.8 C 181.7 19.7 182.0 19.7 182.5 19.7 C 183.1 19.7 183.4 24.8 184.0 24.8 C 184.6 24.8 184.9 23.0 185.5 23.0 C 186.1 23.0 186.4 24.6 187.0 25.1 C 187.6 25.7 187.8 25.5 188.4 25.7 C 189.0 25.9 189.3 25.7 189.9 26.2 C 190.5 26.7 190.8 27.3 191.4 28.3 C 192.0 29.3 192.3 31.4 192.9 31.4 C 193.4 31.4 193.7 29.0 194.3 29.0 C 194.9 29.0 195.2 30.7 195.8 30.7 C 196.4 30.7 196.7 29.3 197.3 29.3 C 197.9 29.3 198.2 30.2 198.7 30.5 C 199.3 30.8 199.6 30.9 200.2 30.9 C 200.8 30.9 201.1 30.7 201.7 30.4 C 202.3 30.1 202.6 29.5 203.2 29.5 C 203.7 29.5 204.0 29.8 204.6 30.5 C 205.2 31.1 205.5 32.2 206.1 32.8 C 206.7 33.4 207.0 33.5 207.6 33.5 C 208.2 33.5 208.5 32.2 209.0 31.7 C 209.6 31.2 209.9 31.0 210.5 31.0 C 211.1 31.0 211.4 32.0 212.0 32.8 C 212.6 33.6 212.9 34.1 213.5 34.8 C 214.1 35.6 214.4 36.6 214.9 36.6 C 215.5 36.6 215.8 35.7 216.4 35.3 C 217.0 34.9 217.3 35.3 217.9 34.7 C 218.5 34.1 218.8 33.1 219.4 32.5 C 219.9 31.9 220.2 32.1 220.8 31.8 C 221.4 31.5 221.7 31.1 222.3 30.9 C 222.9 30.7 223.2 30.7 223.8 30.7 C 224.4 30.7 224.7 30.9 225.2 30.9 C 225.8 30.9 226.1 29.3 226.7 29.3 C 227.3 29.3 227.6 30.1 228.2 30.1 C 228.8 30.1 229.1 30.0 229.7 29.9 C 230.3 29.7 230.5 29.5 231.1 29.3 C 231.7 29.2 232.0 29.3 232.6 28.9 C 233.2 28.4 233.5 27.6 234.1 26.9 C 234.7 26.2 235.0 26.1 235.6 25.5 C 236.1 24.9 236.4 23.8 237.0 23.8 C 237.6 23.8 237.9 24.1 238.5 24.1 C 239.1 24.1 239.4 23.7 240.0 23.7 C 240.6 23.7 240.9 25.4 241.4 25.4 C 242.0 25.4 242.3 24.1 242.9 23.4 C 243.5 22.8 243.8 22.1 244.4 22.1 C 245.0 22.1 245.3 23.9 245.9 23.9 C 246.5 23.9 246.7 23.7 247.3 23.7 C 247.9 23.7 248.2 24.0 248.8 24.0 C 249.4 24.0 249.7 24.0 250.3 23.6 C 250.9 23.3 251.2 22.1 251.8 22.1 C 252.3 22.1 252.6 22.8 253.2 22.8 C 253.8 22.8 254.1 22.1 254.7 21.8 C 255.3 21.5 255.6 21.5 256.2 21.2 C 256.8 21.0 257.1 20.5 257.6 20.5 C 258.2 20.5 258.5 20.7 259.1 20.9 C 259.7 21.0 260.0 21.2 260.6 21.2 C 261.2 21.2 261.5 20.2 262.1 19.7 C 262.6 19.2 262.9 19.4 263.5 18.7 C 264.1 18.0 264.4 16.3 265.0 16.3 C 265.6 16.3 265.9 16.6 266.5 16.6 C 267.1 16.6 267.4 15.3 268 14.7 C 268.5 14.2 268.8 13.8 269.4 13.8 C 270.0 13.8 270.3 13.9 270.9 13.9 C 271.5 13.9 271.8 13.8 272.4 13.8 C 273.0 13.8 273.3 13.9 273.8 13.9 C 274.4 13.9 274.7 13.8 275.3 13.4 C 275.9 13.1 276.2 12.2 276.8 12.1 C 277.4 12.0 277.7 12.0 278.3 12.0 C 278.8 12.0 279.1 12.1 279.7 12.3 C 280.3 12.4 280.6 12.5 281.2 12.7 C 281.8 12.8 282.1 12.7 282.7 13.0 C 283.3 13.3 283.6 14.2 284.1 14.8 C 284.7 15.5 285.0 15.9 285.6 16.3 C 286.2 16.7 286.5 16.8 287.1 16.8 C 287.7 16.8 288.0 16.0 288.6 15.9 C 289.2 15.8 289.4 15.8 290.0 15.8 C 290.6 15.7 290.9 15.8 291.5 15.7 C 292.1 15.6 292.4 15.4 293.0 15.1 C 293.6 14.9 293.9 14.5 294.5 14.3 C 295.0 14.0 295.3 13.9 295.9 13.9 C 296.5 13.9 296.8 14.5 297.4 14.5 C 298.0 14.5 298.3 14.5 298.9 14.1 C 299.5 13.7 299.8 13.0 300.3 12.5 C 300.9 12.0 301.2 11.5 301.8 11.5 C 302.4 11.5 302.7 11.5 303.3 12.1 C 303.9 12.6 304.2 13.5 304.8 14.1 C 305.4 14.7 305.6 14.4 306.2 15.0 C 306.8 15.5 307.1 15.7 307.7 16.8 C 308.3 17.9 308.6 20.2 309.2 20.2 C 309.8 20.2 310.1 19.7 310.7 19.7 C 311.2 19.7 311.5 21.3 312.1 21.3 C 312.7 21.3 313.0 19.5 313.6 19.5 C 314.2 19.5 314.5 20.1 315.1 21.1 C 315.7 22.0 316.0 24.1 316.5 24.1 C 317.1 24.1 317.4 23.7 318.0 23.1 C 318.6 22.6 318.9 21.8 319.5 21.3 C 320.1 20.8 320.4 21.0 321.0 20.8 C 321.6 20.5 321.8 19.9 322.4 19.9 C 323.0 19.9 323.3 19.9 323.9 20.2 C 324.5 20.5 324.8 21.3 325.4 21.7 C 326.0 22.2 326.3 22.0 326.9 22.3 C 327.4 22.6 327.7 22.9 328.3 23.1 C 328.9 23.3 329.2 23.4 329.8 23.4 C 330.4 23.4 330.7 23.4 331.3 23.2 C 331.9 22.9 332.2 21.3 332.7 21.3 C 333.3 21.3 333.6 21.6 334.2 21.7 C 334.8 21.9 335.1 22.1 335.7 22.3 C 336.3 22.4 336.6 22.6 337.2 22.6 C 337.7 22.6 338.0 21.7 338.6 21.4 C 339.2 21.0 339.5 21.2 340.1 20.9 C 340.7 20.6 341.0 20.5 341.6 19.9 C 342.2 19.4 342.5 18.2 343.0 18.2 C 343.6 18.2 343.9 18.4 344.5 18.8 C 345.1 19.2 345.4 19.8 346.0 20.2 C 346.6 20.7 346.9 21.0 347.5 21.0 C 348.1 21.0 348.4 20.3 348.9 19.8 C 349.5 19.2 349.8 18.7 350.4 18.2 C 351.0 17.7 351.3 17.5 351.9 17.2 C 352.5 16.8 352.8 16.6 353.4 16.6 C 353.9 16.6 354.2 16.8 354.8 16.8 C 355.4 16.8 355.7 16.2 356.3 16.2 C 356.9 16.2 357.2 16.3 357.8 16.3 C 358.4 16.3 358.7 16.2 359.2 16.1 C 359.8 16.1 360.1 16.0 360.7 16.0 C 361.3 16.0 361.6 17.0 362.2 17.0 C 362.8 17.0 363.1 17.0 363.7 17.0 C 364.3 17.0 364.5 17.8 365.1 18.2 C 365.7 18.6 366.0 18.6 366.6 18.9 C 367.2 19.2 367.5 19.3 368.1 19.6 C 368.7 19.9 369.0 20.0 369.6 20.4 C 370.1 20.7 370.4 21.4 371.0 21.4 C 371.6 21.4 371.9 20.7 372.5 20.7 C 373.1 20.7 373.4 20.8 374.0 20.8 C 374.6 20.8 374.9 20.0 375.4 20.0 C 376.0 20.0 376.3 20.4 376.9 20.6 C 377.5 20.8 377.8 20.9 378.4 20.9 C 379.0 20.9 379.3 19.7 379.9 19.7 C 380.5 19.7 380.7 20.0 381.3 20.2 C 381.9 20.4 382.2 20.4 382.8 20.8 C 383.4 21.2 383.7 21.9 384.3 22.2 C 384.9 22.5 385.2 22.5 385.8 22.5 C 386.3 22.5 386.6 22.5 387.2 22.5 C 387.8 22.5 388.1 23.3 388.7 23.3 C 389.3 23.3 389.6 23.3 390.2 23.1 C 390.8 22.9 391.1 22.8 391.6 22.3 C 392.2 21.7 392.5 21.0 393.1 20.4 C 393.7 19.7 394.0 19.3 394.6 19.1 C 395.2 19.0 395.5 19.1 396.1 19.0 C 396.6 18.8 396.9 18.4 397.5 18.1 C 398.1 17.7 398.4 17.2 399.0 17.2 C 399.6 17.2 399.9 18.3 400.5 19.1 C 401.1 20.0 401.4 21.7 402 21.7 C 402.5 21.7 402.8 21.6 403.4 21.6 C 404.0 21.6 404.3 22.1 404.9 22.1 C 405.5 22.1 405.8 19.7 406.4 19.7 C 407.0 19.7 407.3 20.2 407.8 20.2 C 408.4 20.2 408.7 19.1 409.3 19.1 C 409.9 19.1 410.2 19.5 410.8 19.8 C 411.4 20.2 411.7 20.9 412.3 20.9 C 412.8 20.9 413.1 20.9 413.7 20.5 C 414.3 20.0 414.6 18.3 415.2 18.2 C 415.8 18.1 416.1 18.1 416.7 18.1 C 417.3 18.1 417.6 18.1 418.1 18.4 C 418.7 18.6 419.0 19.5 419.6 19.5 C 420.2 19.5 420.5 18.9 421.1 18.9 C 421.7 18.9 422.0 19.2 422.6 19.8 C 423.2 20.5 423.4 22.1 424.0 22.1 C 424.6 22.1 424.9 21.6 425.5 21.3 C 426.1 21.0 426.4 20.7 427.0 20.6 C 427.6 20.5 427.9 20.5 428.5 20.5 C 429.0 20.4 429.3 20.3 429.9 20.2 C 430.5 20.1 430.8 20.2 431.4 20.0 C 432.0 19.8 432.3 18.2 432.9 17.5 C 433.5 16.9 433.8 17.2 434.3 16.9 C 434.9 16.5 435.2 16.3 435.8 15.8 C 436.4 15.3 436.7 14.7 437.3 14.3 C 437.9 13.9 438.2 14.1 438.8 13.7 C 439.4 13.4 439.6 13.0 440.2 12.7 C 440.8 12.4 441.1 12.7 441.7 12.4 C 442.3 12.1 442.6 11.6 443.2 11.2 C 443.8 10.9 444.1 10.5 444.7 10.5 C 445.2 10.5 445.5 10.5 446.1 10.5 C 446.7 10.5 447.0 9.3 447.6 9.3 C 448.2 9.3 448.5 10.2 449.1 10.2 C 449.7 10.2 450.0 9.7 450.5 9.7 C 451.1 9.7 451.4 10.2 452.0 10.7 C 452.6 11.2 452.9 12.3 453.5 12.3 C 454.1 12.3 454.4 11.6 455.0 11.2 C 455.6 10.8 455.8 10.1 456.4 10.1 C 457.0 10.1 457.3 10.3 457.9 10.7 C 458.5 11.1 458.8 11.7 459.4 12.3 C 460.0 12.8 460.3 13.1 460.9 13.6 C 461.4 14.0 461.7 14.3 462.3 14.5 C 462.9 14.8 463.2 14.8 463.8 14.9 C 464.4 15.0 464.7 15.0 465.3 15.0 C 465.9 15.0 466.2 15.0 466.7 14.6 C 467.3 14.1 467.6 12.7 468.2 12.7 C 468.8 12.7 469.1 13.3 469.7 13.3 C 470.3 13.3 470.6 12.6 471.2 12.6 C 471.7 12.6 472.0 14.4 472.6 14.4 C 473.2 14.4 473.5 13.4 474.1 13.4 C 474.7 13.4 475.0 14.7 475.6 14.7 C 476.2 14.7 476.5 14.6 477.0 14.3 C 477.6 14.0 477.9 13.3 478.5 13.0 C 479.1 12.7 479.4 12.8 480.0 12.7 C 480.6 12.6 480.9 12.6 481.5 12.5 C 482.1 12.5 482.4 12.5 482.9 12.5 C 483.5 12.4 483.8 12.3 484.4 12.2 C 485.0 12.2 485.3 12.2 485.9 12.1 C 486.5 11.9 486.8 11.5 487.4 11.5 C 487.9 11.5 488.2 12.6 488.8 13.1 C 489.4 13.5 489.7 13.5 490.3 13.8 C 490.9 14.2 491.2 14.7 491.8 14.7 C 492.4 14.7 492.7 14.5 493.2 14.5 C 493.8 14.5 494.1 16.7 494.7 16.7 C 495.3 16.7 495.6 14.9 496.2 14.8 C 496.8 14.7 497.1 14.7 497.7 14.7 C 498.3 14.7 498.5 18.1 499.1 18.2 C 499.7 18.3 500.0 18.3 500.6 18.3 C 501.2 18.3 501.5 18.2 502.1 18.2 C 502.7 18.2 503.0 19.1 503.6 19.1 C 504.1 19.1 504.4 18.5 505.0 18.2 C 505.6 17.9 505.9 17.6 506.5 17.6 C 507.1 17.6 507.4 18.6 508.0 18.6 C 508.6 18.6 508.9 18.2 509.4 18.2 C 510.0 18.2 510.3 18.9 510.9 18.9 C 511.5 18.9 511.8 18.4 512.4 18.1 C 513.0 17.8 513.3 17.6 513.9 17.4 C 514.5 17.2 514.7 17.0 515.3 17.0 C 515.9 17.0 516.2 17.6 516.8 17.6 C 517.4 17.6 517.7 16.8 518.3 16.8 C 518.9 16.8 519.2 17.0 519.8 17.1 C 520.3 17.1 520.6 17.3 521.2 17.3 C 521.8 17.3 522.1 16.5 522.7 16.5 C 523.3 16.5 523.6 16.8 524.2 16.8 C 524.8 16.8 525.1 16.5 525.6 16.4 C 526.2 16.3 526.5 16.3 527.1 16.2 C 527.7 16.0 528.0 16.0 528.6 15.7 C 529.2 15.4 529.5 14.7 530.1 14.7 C 530.6 14.7 530.9 15.1 531.5 15.1 C 532.1 15.1 532.4 12.5 533.0 11.3 C 533.6 10.0 533.9 8.7 534.5 8.6 C 535.1 8.5 536 8.5 536 8.5" stroke="#4572A7" stroke-width="1"  stroke-linejoin="round" stroke-linecap="round"></path></g><g class="highcharts-markers" visibility="visible"  transform="translate(24,331) scale(1 1)" clip-path="url(#highcharts-4)"></g></g><g class="highcharts-navigator" ><rect fill="rgb(128,179,236)" fill-opacity="0.3" style="cursor:ew-resize ;" x="483" y="331" width="77" height="40"></rect><path fill="none" stroke="#b2b1b6" stroke-width="1" d="M 10 331.5 L 482.5 331.5 482.5 385.5 L 559.5 385.5 L 559.5 331.5 574 331.5 M 483.5 331.5 L 559.5 331.5"></path></g><g class="highcharts-navigator-handle-right" style="cursor:ew-resize;"  transform="translate(560,343)"><rect x="-4.5" y="0.5" width="8" height="15" strokeWidth="1" fill="#ebe7e8" stroke="#b2b1b6" stroke-width="1"></rect><path fill="#ebe7e8" d="M -1.5 4 L -1.5 12 M 0.5 4 L 0.5 12" stroke="#b2b1b6" stroke-width="1"></path></g><g class="highcharts-navigator-handle-left" style="cursor:ew-resize;"  transform="translate(483,343)"><rect x="-4.5" y="0.5" width="8" height="15" strokeWidth="1" fill="#ebe7e8" stroke="#b2b1b6" stroke-width="1"></rect><path fill="#ebe7e8" d="M -1.5 4 L -1.5 12 M 0.5 4 L 0.5 12" stroke="#b2b1b6" stroke-width="1"></path></g><g class="highcharts-axis-labels highcharts-xaxis-labels" ><text x="90.4" style="color:#6e6e70;cursor:default;font-size:11px;fill:#6e6e70;" text-anchor="middle" transform="translate(0,0)" y="304" opacity="1"><tspan>Jul '12</tspan></text><text x="188.7" style="color:#6e6e70;cursor:default;font-size:11px;fill:#6e6e70;" text-anchor="middle" transform="translate(0,0)" y="304" opacity="1"><tspan>Sep '12</tspan></text><text x="280.7" style="color:#6e6e70;cursor:default;font-size:11px;fill:#6e6e70;" text-anchor="middle" transform="translate(0,0)" y="304" opacity="1"><tspan>Nov '12</tspan></text><text x="372.0" style="color:#6e6e70;cursor:default;font-size:11px;fill:#6e6e70;" text-anchor="middle" transform="translate(0,0)" y="304" opacity="1"><tspan>Jan '13</tspan></text><text x="463.4" style="color:#6e6e70;cursor:default;font-size:11px;fill:#6e6e70;" text-anchor="middle" transform="translate(0,0)" y="304" opacity="1"><tspan>Mar '13</tspan></text><text x="574" style="color:#6e6e70;cursor:default;font-size:11px;fill:#6e6e70;" text-anchor="end" transform="translate(0,0)" y="304" opacity="1"><tspan>May '13</tspan></text></g><g class="highcharts-axis-labels highcharts-xaxis-labels" ><text x="151.7" style="color:#888;cursor:default;font-size:11px;fill:#888;width:178px;text-overflow:clip;" text-anchor="start" transform="translate(0,0)" y="367" opacity="1">2008</text><text x="305.4" style="color:#888;cursor:default;font-size:11px;fill:#888;width:178px;text-overflow:clip;" text-anchor="start" transform="translate(0,0)" y="367" opacity="1">2010</text><text x="459.0" style="color:#888;cursor:default;font-size:11px;fill:#888;width:178px;text-overflow:clip;" text-anchor="start" transform="translate(0,0)" y="367" opacity="1">2012</text></g><g class="highcharts-axis-labels highcharts-yaxis-labels" ><text x="574" style="color:#6e6e70;cursor:default;font-size:11px;fill:#6e6e70;width:183px;text-overflow:clip;" text-anchor="end" transform="translate(0,0)" y="283" opacity="1">-50%</text><text x="574" style="color:#6e6e70;cursor:default;font-size:11px;fill:#6e6e70;width:183px;text-overflow:clip;" text-anchor="end" transform="translate(0,0)" y="223" opacity="1">-25%</text><text x="574" style="color:#6e6e70;cursor:default;font-size:11px;fill:#6e6e70;width:183px;text-overflow:clip;" text-anchor="end" transform="translate(0,0)" y="163" opacity="1">0%</text><text x="574" style="color:#6e6e70;cursor:default;font-size:11px;fill:#6e6e70;width:183px;text-overflow:clip;" text-anchor="end" transform="translate(0,0)" y="103" opacity="1"><tspan> + 25%</tspan></text><text x="0" style="color:#6e6e70;cursor:default;font-size:11px;fill:#6e6e70;width:183px;text-overflow:clip;" text-anchor="end" transform="translate(0,0)" y="-9999"><tspan> + 50%</tspan></text></g><g class="highcharts-axis-labels highcharts-yaxis-labels" ></g><g class="highcharts-tooltip"  style="cursor:default;padding:0;white-space:nowrap;" transform="translate(0,-9999)"><path fill="none" d="M 3 0 L 13 0 C 16 0 16 0 16 3 L 16 13 C 16 16 16 16 13 16 L 3 16 C 0 16 0 16 0 13 L 0 3 C 0 0 0 0 3 0"  stroke="black" stroke-opacity="0.0" stroke-width="5" transform="translate(1, 1)"></path><path fill="none" d="M 3 0 L 13 0 C 16 0 16 0 16 3 L 16 13 C 16 16 16 16 13 16 L 3 16 C 0 16 0 16 0 13 L 0 3 C 0 0 0 0 3 0"  stroke="black" stroke-opacity="0.0" stroke-width="3" transform="translate(1, 1)"></path><path fill="none" d="M 3 0 L 13 0 C 16 0 16 0 16 3 L 16 13 C 16 16 16 16 13 16 L 3 16 C 0 16 0 16 0 13 L 0 3 C 0 0 0 0 3 0"  stroke="black" stroke-opacity="0.1" stroke-width="1" transform="translate(1, 1)"></path><path fill="rgb(249, 249, 249)" fill-opacity=" .85" d="M 3 0 L 13 0 C 16 0 16 0 16 3 L 16 13 C 16 16 16 16 13 16 L 3 16 C 0 16 0 16 0 13 L 0 3 C 0 0 0 0 3 0"></path><text x="8"  style="font-size:12px;color:#333333;fill:#333333;" transform="translate(0,20)"></text></g></svg>