<svg version="1.1" style="font-family: signika, serif; font-size: 12px; background-image: url(http://www.highcharts.com/samples/graphics/sand.png); background-attachment: initial; background-origin: initial; background-clip: initial; background-color: initial; background-position: initial initial; background-repeat: initial initial; " xmlns="http://www.w3.org/2000/svg" width="584" height="400" viewBox="0 0 584 400" xmlns:xlink="http://www.w3.org/1999/xlink"><style type="text/css"><![CDATA[@import url(http://fonts.googleapis.com/css?family=Signika:700);]]></style><desc>Created with Highstock 2.1.4</desc><defs><clipPath id="highcharts-1"><rect x="0" y="0" width="540" height="192"></rect></clipPath><clipPath id="highcharts-2"><rect x="-99" y="-93" width="639" height="400"></rect></clipPath><clipPath id="highcharts-3"><rect x="0" y="0" width="540" height="192"></rect></clipPath><clipPath id="highcharts-4"><rect x="-99" y="-93" width="639" height="400"></rect></clipPath><clipPath id="highcharts-5"><rect x="0" y="0" width="540" height="40"></rect></clipPath></defs><g class="highcharts-scrollbar" transform="translate(10,372)"><rect x="0" y="-0.5" fill="#eeeeee" stroke="#C0C0C8" stroke-width="1" rx="0" ry="0" height="14" width="540"></rect><rect y="-0.5" height="14" fill="#bfc8d1" stroke="#bfc8d1" stroke-width="1" rx="0" ry="0" x="484.5" width="41"></rect><path fill="none" stroke="#666" stroke-width="1" visibility="visible" d="M 501.5 3.5 L 501.5 9.3 M 504.5 3.5 L 504.5 9.3 M 507.5 3.5 L 507.5 9.3"></path><g><rect x="-0.5" y="-0.5" width="14" height="14" strokeWidth="1" stroke="#bbb" stroke-width="1" fill="#ebe7e8"></rect><path fill="#666" d="M 8 4 L 8 10 5 7"></path></g><g transform="translate(526,0)"><rect x="-0.5" y="-0.5" width="14" height="14" strokeWidth="1" stroke="#bbb" stroke-width="1" fill="#ebe7e8"></rect><path fill="#666" d="M 6 4 L 6 10 9 7"></path></g></g><g class="highcharts-range-selector-buttons"><text x="10" y="73" style="color:#666;fill:#666;">Zoom</text><g class="highcharts-button"  states="[object Object]" style="cursor:pointer;text-align:center;" transform="translate(46,58)"><rect x="0.5" y="0.5" width="32" height="22" strokeWidth="1" fill="white" stroke="#C0C0C8" stroke-width="1" rx="0" ry="0"></rect><text x="9"  style="font-weight:normal;color:#444;fill:#444;" transform="translate(0,14)">3d</text></g><g class="highcharts-button"  states="[object Object]" style="cursor:pointer;text-align:center;" transform="translate(83,58)"><rect x="0.5" y="0.5" width="32" height="22" strokeWidth="1" fill="white" stroke="#C0C0C8" stroke-width="1" rx="0" ry="0"></rect><text x="7.5"  style="font-weight:normal;color:#444;fill:#444;" transform="translate(0,14)">1w</text></g><g class="highcharts-button"  states="[object Object]" style="cursor:pointer;text-align:center;" transform="translate(120,58)"><rect x="0.5" y="0.5" width="32" height="22" strokeWidth="1" fill="white" stroke="#C0C0C8" stroke-width="1" rx="0" ry="0"></rect><text x="7.5"  style="font-weight:normal;color:#444;fill:#444;" transform="translate(0,14)">1m</text></g><g class="highcharts-button"  states="[object Object]" style="cursor:pointer;text-align:center;" transform="translate(157,58)"><rect x="0.5" y="0.5" width="32" height="22" strokeWidth="1" fill="#D0D0D8" stroke="#68A" stroke-width="1" rx="0" ry="0"></rect><text x="7.5"  style="font-weight:bold;color:black;fill:black;" transform="translate(0,14)">6m</text></g><g class="highcharts-button"  states="[object Object]" style="cursor:pointer;text-align:center;" transform="translate(194,58)"><rect x="0.5" y="0.5" width="32" height="22" strokeWidth="1" fill="white" stroke="#C0C0C8" stroke-width="1" rx="0" ry="0"></rect><text x="9.5"  style="font-weight:normal;color:#444;fill:#444;" transform="translate(0,14)">1y</text></g><g class="highcharts-button"  states="[object Object]" style="cursor:pointer;text-align:center;" transform="translate(231,58)"><rect x="0.5" y="0.5" width="32" height="22" strokeWidth="1" fill="white" stroke="#C0C0C8" stroke-width="1" rx="0" ry="0"></rect><text x="10"  style="font-weight:normal;color:#444;fill:#444;" transform="translate(0,14)">All</text></g></g><g class="highcharts-input-group" transform="translate(316,58)" visibility="visible"><g style="fill:#666;" transform="translate(0,0)"><text x="2"  style="font-size:12px;font-family:signika, serif;color:#666;fill:#666;" transform="translate(0,14)">From</text></g><g style="text-align:center;" transform="translate(36,0)"><rect x="0.5" y="0.5" width="94" height="21" strokeWidth="1" fill="none" stroke="silver" stroke-width="1"></rect><text x="13.5"  style="font-size:12px;font-family:signika, serif;color:#444;fill:#444;" transform="translate(0,14)"><tspan>Oct 2, 2009</tspan></text></g><g style="fill:#666;" transform="translate(140,0)"><text x="2"  style="font-size:12px;font-family:signika, serif;color:#666;fill:#666;" transform="translate(0,14)">To</text></g><g style="text-align:center;" transform="translate(164,0)"><rect x="0.5" y="0.5" width="94" height="21" strokeWidth="1" fill="none" stroke="silver" stroke-width="1"></rect><text x="10.5"  style="font-size:12px;font-family:signika, serif;color:#444;fill:#444;" transform="translate(0,14)"><tspan>Mar 31, 2010</tspan></text></g></g><g class="highcharts-grid" ></g><g class="highcharts-grid" ><path fill="none" d="M 172.5 331 L 172.5 371" stroke="#D0D0D8" stroke-width="1"  opacity="1"></path><path fill="none" d="M 343.5 331 L 343.5 371" stroke="#D0D0D8" stroke-width="1"  opacity="1"></path><path fill="none" d="M 514.5 331 L 514.5 371" stroke="#D0D0D8" stroke-width="1"  opacity="1"></path></g><g class="highcharts-grid" ><path fill="none" d="M 10 285.5 L 550 285.5" stroke="#D8D8D8" stroke-width="1"  opacity="1"></path><path fill="none" d="M 10 221.5 L 550 221.5" stroke="#D8D8D8" stroke-width="1"  opacity="1"></path><path fill="none" d="M 10 157.5 L 550 157.5" stroke="#D8D8D8" stroke-width="1"  opacity="1"></path><path fill="none" d="M 10 92.5 L 550 92.5" stroke="#D8D8D8" stroke-width="1"  opacity="1"></path></g><g class="highcharts-grid" ></g><g class="highcharts-axis" ><path fill="none" d="M 97.5 285 L 97.5 295" stroke="#C0D0E0" stroke-width="1" opacity="1"></path><path fill="none" d="M 187.5 285 L 187.5 295" stroke="#C0D0E0" stroke-width="1" opacity="1"></path><path fill="none" d="M 280.5 285 L 280.5 295" stroke="#C0D0E0" stroke-width="1" opacity="1"></path><path fill="none" d="M 373.5 285 L 373.5 295" stroke="#C0D0E0" stroke-width="1" opacity="1"></path><path fill="none" d="M 457.5 285 L 457.5 295" stroke="#C0D0E0" stroke-width="1" opacity="1"></path><path fill="none" d="M 10 285.5 L 550 285.5" stroke="#C0D0E0" stroke-width="1"  visibility="visible"></path></g><g class="highcharts-axis" ></g><g class="highcharts-axis" ><text x="560"  text-anchor="middle" transform="translate(0,0) rotate(90 560 189)" class=" highcharts-yaxis-title" style="color:#707070;fill:#707070;" visibility="visible" y="189"><tspan>Temperature (°C)</tspan></text></g><g class="highcharts-axis" ></g><g class="highcharts-series-group" ><g class="highcharts-series" visibility="visible"  transform="translate(10,93) scale(1 1)" clip-path="url(#highcharts-3)"><path fill="none" d="M -0.6 42.7 L 0.8 36 L 2.3 33.5 L 3.8 23.8 L 5.3 15.6 L 6.8 25.9 L 8.3 47.5 L 9.8 40.4 L 11.3 36.6 L 12.8 11.7 L 14.3 31.6 L 15.8 36.3 L 17.3 32.6 L 18.8 41.5 L 20.3 54.1 L 21.8 58.5 L 23.3 51.1 L 24.8 33.4 L 26.3 37.4 L 27.8 35.5 L 29.3 52.3 L 30.8 61.6 L 32.3 65.0 L 33.8 64.7 L 35.3 47.8 L 36.8 26.9 L 38.3 25.3 L 39.8 11.8 L 41.3 16.2 L 42.8 31.6 L 44.3 54.1 L 45.8 54.2 L 47.3 39.0 L 48.8 35.8 L 50.3 43.1 L 51.8 44.9 L 53.3 45.2 L 54.8 34.2 L 56.3 41.2 L 57.8 54.2 L 59.3 43.3 L 60.8 20.7 L 62.3 20.6 L 63.8 20.2 L 65.3 29.8 L 66.8 9.1 L 68.3 29.2 L 69.8 25.0 L 71.3 58.0 L 72.8 64 L 74.3 61.9 L 75.8 52.4 L 77.3 66.8 L 78.8 55.6 L 80.3 47.6 L 81.8 50.1 L 83.3 59.7 L 84.8 53.4 L 86.3 36 L 87.8 27.8 L 89.3 37.7 L 90.8 64 L 92.3 64 L 93.8 64 L 95.3 64 L 96.8 43.8 L 98.3 41.3 L 99.8 38.0 L 101.3 74.3 L 102.8 65.3 L 104.3 68.7 L 105.8 34.2 L 107.3 32.7 L 108.8 51.8 L 110.3 64 L 111.8 63.1 L 113.3 74.6 L 114.8 74.3 L 116.3 77.3 L 117.8 70.6 L 119.3 75.9 L 120.8 85.5 L 122.3 91.3 L 123.8 85.3 L 125.3 64 L 126.8 64 L 128.3 64 L 129.8 30.6 L 131.3 48 L 132.8 52.3 L 134.3 51.3 L 135.8 32.0 L 137.3 31.8 L 138.8 30.8 M 141.8 29.0 L 143.3 31.7 L 144.8 24.3 L 146.3 9.7 L 147.8 14.1 L 149.3 38.5 L 150.8 38.5 L 152.3 40.2 L 153.8 39.3 L 155.3 43.6 L 156.8 33.3 L 158.3 40.9 L 159.8 35.4 L 161.3 39.1 L 162.8 24.6 L 164.3 37.6 L 165.8 39.0 L 167.3 42.6 L 168.8 46.0 L 170.3 49.1 L 171.8 45.3 L 173.3 51.3 L 174.8 81.3 L 176.3 73.2 L 177.8 59.5 L 179.3 78.2 L 180.8 76.6 L 182.3 79.1 L 183.8 57.2 L 185.3 49.2 L 186.8 52 L 188.3 62.6 L 189.8 38.0 L 191.3 40.5 L 192.8 14.9 L 194.3 17.9 L 195.8 40.0 L 197.3 54.8 L 198.8 49.7 L 200.3 59.5 L 201.8 40.8 L 203.3 39.3 L 204.8 42.2 L 206.3 47.6 L 207.8 66.1 L 209.3 70.2 L 210.8 81.3 L 212.3 68.1 L 213.8 62.6 L 215.3 60.3 L 216.8 57.7 L 218.3 56.0 L 219.8 56.3 L 221.3 71.3 L 222.8 87.1 L 224.3 111.7 L 225.8 122.0 L 227.3 139.0 L 228.8 145.2 L 230.3 115.7 L 231.8 103.2 L 233.3 78.2 L 234.8 86.6 L 236.3 131.0 L 237.8 118.9 L 239.3 140.3 L 240.8 115.3 L 242.3 129.0 L 243.8 126.9 L 245.3 116.0 L 246.8 81.4 L 248.3 98.3 L 249.8 94.6 L 251.3 73.1 L 252.8 74.6 L 254.3 79.7 L 255.8 72.7 L 257.3 63.5 L 258.8 68.8 L 260.3 73.9 L 261.8 97.4 L 263.3 129.2 L 264.8 125.9 L 266.3 129.1 L 267.8 128.8 L 269.3 121.6 L 270.8 108.5 L 272.3 130.2 L 273.8 146.0 L 275.3 139.8 L 276.8 106.5 L 278.3 99.0 L 279.8 85.5 L 281.3 93.6 L 282.8 102.7 L 284.3 143.3 L 285.8 155.6 L 287.3 154.0 L 288.8 164.3 L 290.3 169.0 L 291.8 170.1 L 293.3 167.5 L 294.8 157.4 L 296.3 148.6 L 297.8 144.9 L 299.3 137.9 L 300.8 131.5 L 302.3 126.8 L 303.8 117.3 L 305.3 107.0 L 306.8 102.4 L 308.3 104.8 L 309.8 101.1 L 311.3 99.3 L 312.8 103.0 L 314.3 97.2 L 315.8 94.5 M 318.8 61.3 L 320.3 75.7 L 321.8 91.8 M 324.8 70.7 L 326.3 92.8 L 327.8 87.7 L 329.3 87.4 L 330.8 100.4 L 332.3 94.1 L 333.8 97.3 L 335.3 95.1 L 336.8 81.1 L 338.3 81.6 L 339.8 73.8 L 341.3 77.0 L 342.8 87.5 L 344.3 103.7 L 345.8 81.3 L 347.3 74.0 L 348.8 55.6 L 350.3 48.0 L 351.8 54.6 L 353.3 70.7 L 354.8 93.1 L 356.3 103.7 L 357.8 86.2 L 359.3 88.2 L 360.8 127.5 L 362.3 149.6 L 363.8 126.2 L 365.3 112.0 L 366.8 126.8 L 368.3 132.5 L 369.8 128 L 371.3 126.6 L 372.8 121.4 L 374.3 92.1 L 375.8 79.6 L 377.3 77.6 L 378.8 60.5 L 380.3 78.2 L 381.8 103.1 L 383.3 86.9 L 384.8 73.7 L 386.3 73.7 L 387.8 72.8 L 389.3 113.3 L 390.8 108.3 L 392.3 93.7 L 393.8 79.5 L 395.3 95.6 L 396.8 86.2 L 398.3 102.9 L 399.8 104.2 L 401.3 104.4 L 402.8 91.7 L 404.3 71.5 L 405.8 72.2 L 407.3 75.9 L 408.8 66.8 L 410.3 82.0 L 411.8 90.7 L 413.3 96.4 L 414.8 88.9 L 416.3 88.6 L 417.8 97.7 L 419.3 129.8 L 420.8 114.5 L 422.3 119.7 L 423.8 125.7 L 425.3 135.5 L 426.8 112.2 L 428.3 98.2 L 429.8 80.3 L 431.3 110.6 L 432.8 78.5 L 434.3 99.5 L 435.8 85.0 L 437.3 81.6 L 438.8 84.1 L 440.3 93.4 L 441.8 71.4 L 443.3 102.6 L 444.8 97.0 L 446.3 114.0 L 447.8 108.6 L 449.3 101.4 L 450.8 96 L 452.3 79.6 L 453.8 75.1 L 455.3 99.1 L 456.8 88.2 L 458.3 93.2 L 459.8 64.6 L 461.3 86.1 L 462.8 64.7 L 464.3 67.8 L 465.8 51.7 L 467.3 56 L 468.8 40.5 L 470.3 33.9 L 471.8 37.1 L 473.3 47.6 L 474.8 35.7 L 476.3 41.8 L 477.8 36.4 L 479.3 37.8 L 480.8 35.7 L 482.3 51.5 L 483.8 45.3 L 485.3 51.8 L 486.8 48.9 L 488.3 55.1 L 489.8 51.4 L 491.3 56.9 L 492.8 45.2 L 494.3 51.7 L 495.8 36.5 L 497.3 44.0 L 498.8 36.5 L 500.3 26.9 L 501.8 27.6 L 503.3 29.4 L 504.8 27.6 L 506.3 35.3 L 507.8 29.5 L 509.3 38.9 L 510.8 35.4 L 512.3 44 L 513.8 42.8 L 515.3 43.0 L 516.8 37.5 L 518.3 42.3 L 519.8 39.3 L 521.3 52.1 L 522.8 44.8 L 524.3 36.1 L 525.8 28.8 L 527.3 28.4 L 528.8 23.3 L 530.3 38.4 L 531.8 29.8 L 533.3 40.1 L 534.8 45.2 L 536.3 52.5 L 537.8 27.3 L 539.3 26.5" stroke="black" stroke-width="5"  stroke-linejoin="round" stroke-linecap="round"  stroke-opacity="0.0" transform="translate(1, 1)"></path><path fill="none" d="M -0.6 42.7 L 0.8 36 L 2.3 33.5 L 3.8 23.8 L 5.3 15.6 L 6.8 25.9 L 8.3 47.5 L 9.8 40.4 L 11.3 36.6 L 12.8 11.7 L 14.3 31.6 L 15.8 36.3 L 17.3 32.6 L 18.8 41.5 L 20.3 54.1 L 21.8 58.5 L 23.3 51.1 L 24.8 33.4 L 26.3 37.4 L 27.8 35.5 L 29.3 52.3 L 30.8 61.6 L 32.3 65.0 L 33.8 64.7 L 35.3 47.8 L 36.8 26.9 L 38.3 25.3 L 39.8 11.8 L 41.3 16.2 L 42.8 31.6 L 44.3 54.1 L 45.8 54.2 L 47.3 39.0 L 48.8 35.8 L 50.3 43.1 L 51.8 44.9 L 53.3 45.2 L 54.8 34.2 L 56.3 41.2 L 57.8 54.2 L 59.3 43.3 L 60.8 20.7 L 62.3 20.6 L 63.8 20.2 L 65.3 29.8 L 66.8 9.1 L 68.3 29.2 L 69.8 25.0 L 71.3 58.0 L 72.8 64 L 74.3 61.9 L 75.8 52.4 L 77.3 66.8 L 78.8 55.6 L 80.3 47.6 L 81.8 50.1 L 83.3 59.7 L 84.8 53.4 L 86.3 36 L 87.8 27.8 L 89.3 37.7 L 90.8 64 L 92.3 64 L 93.8 64 L 95.3 64 L 96.8 43.8 L 98.3 41.3 L 99.8 38.0 L 101.3 74.3 L 102.8 65.3 L 104.3 68.7 L 105.8 34.2 L 107.3 32.7 L 108.8 51.8 L 110.3 64 L 111.8 63.1 L 113.3 74.6 L 114.8 74.3 L 116.3 77.3 L 117.8 70.6 L 119.3 75.9 L 120.8 85.5 L 122.3 91.3 L 123.8 85.3 L 125.3 64 L 126.8 64 L 128.3 64 L 129.8 30.6 L 131.3 48 L 132.8 52.3 L 134.3 51.3 L 135.8 32.0 L 137.3 31.8 L 138.8 30.8 M 141.8 29.0 L 143.3 31.7 L 144.8 24.3 L 146.3 9.7 L 147.8 14.1 L 149.3 38.5 L 150.8 38.5 L 152.3 40.2 L 153.8 39.3 L 155.3 43.6 L 156.8 33.3 L 158.3 40.9 L 159.8 35.4 L 161.3 39.1 L 162.8 24.6 L 164.3 37.6 L 165.8 39.0 L 167.3 42.6 L 168.8 46.0 L 170.3 49.1 L 171.8 45.3 L 173.3 51.3 L 174.8 81.3 L 176.3 73.2 L 177.8 59.5 L 179.3 78.2 L 180.8 76.6 L 182.3 79.1 L 183.8 57.2 L 185.3 49.2 L 186.8 52 L 188.3 62.6 L 189.8 38.0 L 191.3 40.5 L 192.8 14.9 L 194.3 17.9 L 195.8 40.0 L 197.3 54.8 L 198.8 49.7 L 200.3 59.5 L 201.8 40.8 L 203.3 39.3 L 204.8 42.2 L 206.3 47.6 L 207.8 66.1 L 209.3 70.2 L 210.8 81.3 L 212.3 68.1 L 213.8 62.6 L 215.3 60.3 L 216.8 57.7 L 218.3 56.0 L 219.8 56.3 L 221.3 71.3 L 222.8 87.1 L 224.3 111.7 L 225.8 122.0 L 227.3 139.0 L 228.8 145.2 L 230.3 115.7 L 231.8 103.2 L 233.3 78.2 L 234.8 86.6 L 236.3 131.0 L 237.8 118.9 L 239.3 140.3 L 240.8 115.3 L 242.3 129.0 L 243.8 126.9 L 245.3 116.0 L 246.8 81.4 L 248.3 98.3 L 249.8 94.6 L 251.3 73.1 L 252.8 74.6 L 254.3 79.7 L 255.8 72.7 L 257.3 63.5 L 258.8 68.8 L 260.3 73.9 L 261.8 97.4 L 263.3 129.2 L 264.8 125.9 L 266.3 129.1 L 267.8 128.8 L 269.3 121.6 L 270.8 108.5 L 272.3 130.2 L 273.8 146.0 L 275.3 139.8 L 276.8 106.5 L 278.3 99.0 L 279.8 85.5 L 281.3 93.6 L 282.8 102.7 L 284.3 143.3 L 285.8 155.6 L 287.3 154.0 L 288.8 164.3 L 290.3 169.0 L 291.8 170.1 L 293.3 167.5 L 294.8 157.4 L 296.3 148.6 L 297.8 144.9 L 299.3 137.9 L 300.8 131.5 L 302.3 126.8 L 303.8 117.3 L 305.3 107.0 L 306.8 102.4 L 308.3 104.8 L 309.8 101.1 L 311.3 99.3 L 312.8 103.0 L 314.3 97.2 L 315.8 94.5 M 318.8 61.3 L 320.3 75.7 L 321.8 91.8 M 324.8 70.7 L 326.3 92.8 L 327.8 87.7 L 329.3 87.4 L 330.8 100.4 L 332.3 94.1 L 333.8 97.3 L 335.3 95.1 L 336.8 81.1 L 338.3 81.6 L 339.8 73.8 L 341.3 77.0 L 342.8 87.5 L 344.3 103.7 L 345.8 81.3 L 347.3 74.0 L 348.8 55.6 L 350.3 48.0 L 351.8 54.6 L 353.3 70.7 L 354.8 93.1 L 356.3 103.7 L 357.8 86.2 L 359.3 88.2 L 360.8 127.5 L 362.3 149.6 L 363.8 126.2 L 365.3 112.0 L 366.8 126.8 L 368.3 132.5 L 369.8 128 L 371.3 126.6 L 372.8 121.4 L 374.3 92.1 L 375.8 79.6 L 377.3 77.6 L 378.8 60.5 L 380.3 78.2 L 381.8 103.1 L 383.3 86.9 L 384.8 73.7 L 386.3 73.7 L 387.8 72.8 L 389.3 113.3 L 390.8 108.3 L 392.3 93.7 L 393.8 79.5 L 395.3 95.6 L 396.8 86.2 L 398.3 102.9 L 399.8 104.2 L 401.3 104.4 L 402.8 91.7 L 404.3 71.5 L 405.8 72.2 L 407.3 75.9 L 408.8 66.8 L 410.3 82.0 L 411.8 90.7 L 413.3 96.4 L 414.8 88.9 L 416.3 88.6 L 417.8 97.7 L 419.3 129.8 L 420.8 114.5 L 422.3 119.7 L 423.8 125.7 L 425.3 135.5 L 426.8 112.2 L 428.3 98.2 L 429.8 80.3 L 431.3 110.6 L 432.8 78.5 L 434.3 99.5 L 435.8 85.0 L 437.3 81.6 L 438.8 84.1 L 440.3 93.4 L 441.8 71.4 L 443.3 102.6 L 444.8 97.0 L 446.3 114.0 L 447.8 108.6 L 449.3 101.4 L 450.8 96 L 452.3 79.6 L 453.8 75.1 L 455.3 99.1 L 456.8 88.2 L 458.3 93.2 L 459.8 64.6 L 461.3 86.1 L 462.8 64.7 L 464.3 67.8 L 465.8 51.7 L 467.3 56 L 468.8 40.5 L 470.3 33.9 L 471.8 37.1 L 473.3 47.6 L 474.8 35.7 L 476.3 41.8 L 477.8 36.4 L 479.3 37.8 L 480.8 35.7 L 482.3 51.5 L 483.8 45.3 L 485.3 51.8 L 486.8 48.9 L 488.3 55.1 L 489.8 51.4 L 491.3 56.9 L 492.8 45.2 L 494.3 51.7 L 495.8 36.5 L 497.3 44.0 L 498.8 36.5 L 500.3 26.9 L 501.8 27.6 L 503.3 29.4 L 504.8 27.6 L 506.3 35.3 L 507.8 29.5 L 509.3 38.9 L 510.8 35.4 L 512.3 44 L 513.8 42.8 L 515.3 43.0 L 516.8 37.5 L 518.3 42.3 L 519.8 39.3 L 521.3 52.1 L 522.8 44.8 L 524.3 36.1 L 525.8 28.8 L 527.3 28.4 L 528.8 23.3 L 530.3 38.4 L 531.8 29.8 L 533.3 40.1 L 534.8 45.2 L 536.3 52.5 L 537.8 27.3 L 539.3 26.5" stroke="black" stroke-width="3"  stroke-linejoin="round" stroke-linecap="round"  stroke-opacity="0.0" transform="translate(1, 1)"></path><path fill="none" d="M -0.6 42.7 L 0.8 36 L 2.3 33.5 L 3.8 23.8 L 5.3 15.6 L 6.8 25.9 L 8.3 47.5 L 9.8 40.4 L 11.3 36.6 L 12.8 11.7 L 14.3 31.6 L 15.8 36.3 L 17.3 32.6 L 18.8 41.5 L 20.3 54.1 L 21.8 58.5 L 23.3 51.1 L 24.8 33.4 L 26.3 37.4 L 27.8 35.5 L 29.3 52.3 L 30.8 61.6 L 32.3 65.0 L 33.8 64.7 L 35.3 47.8 L 36.8 26.9 L 38.3 25.3 L 39.8 11.8 L 41.3 16.2 L 42.8 31.6 L 44.3 54.1 L 45.8 54.2 L 47.3 39.0 L 48.8 35.8 L 50.3 43.1 L 51.8 44.9 L 53.3 45.2 L 54.8 34.2 L 56.3 41.2 L 57.8 54.2 L 59.3 43.3 L 60.8 20.7 L 62.3 20.6 L 63.8 20.2 L 65.3 29.8 L 66.8 9.1 L 68.3 29.2 L 69.8 25.0 L 71.3 58.0 L 72.8 64 L 74.3 61.9 L 75.8 52.4 L 77.3 66.8 L 78.8 55.6 L 80.3 47.6 L 81.8 50.1 L 83.3 59.7 L 84.8 53.4 L 86.3 36 L 87.8 27.8 L 89.3 37.7 L 90.8 64 L 92.3 64 L 93.8 64 L 95.3 64 L 96.8 43.8 L 98.3 41.3 L 99.8 38.0 L 101.3 74.3 L 102.8 65.3 L 104.3 68.7 L 105.8 34.2 L 107.3 32.7 L 108.8 51.8 L 110.3 64 L 111.8 63.1 L 113.3 74.6 L 114.8 74.3 L 116.3 77.3 L 117.8 70.6 L 119.3 75.9 L 120.8 85.5 L 122.3 91.3 L 123.8 85.3 L 125.3 64 L 126.8 64 L 128.3 64 L 129.8 30.6 L 131.3 48 L 132.8 52.3 L 134.3 51.3 L 135.8 32.0 L 137.3 31.8 L 138.8 30.8 M 141.8 29.0 L 143.3 31.7 L 144.8 24.3 L 146.3 9.7 L 147.8 14.1 L 149.3 38.5 L 150.8 38.5 L 152.3 40.2 L 153.8 39.3 L 155.3 43.6 L 156.8 33.3 L 158.3 40.9 L 159.8 35.4 L 161.3 39.1 L 162.8 24.6 L 164.3 37.6 L 165.8 39.0 L 167.3 42.6 L 168.8 46.0 L 170.3 49.1 L 171.8 45.3 L 173.3 51.3 L 174.8 81.3 L 176.3 73.2 L 177.8 59.5 L 179.3 78.2 L 180.8 76.6 L 182.3 79.1 L 183.8 57.2 L 185.3 49.2 L 186.8 52 L 188.3 62.6 L 189.8 38.0 L 191.3 40.5 L 192.8 14.9 L 194.3 17.9 L 195.8 40.0 L 197.3 54.8 L 198.8 49.7 L 200.3 59.5 L 201.8 40.8 L 203.3 39.3 L 204.8 42.2 L 206.3 47.6 L 207.8 66.1 L 209.3 70.2 L 210.8 81.3 L 212.3 68.1 L 213.8 62.6 L 215.3 60.3 L 216.8 57.7 L 218.3 56.0 L 219.8 56.3 L 221.3 71.3 L 222.8 87.1 L 224.3 111.7 L 225.8 122.0 L 227.3 139.0 L 228.8 145.2 L 230.3 115.7 L 231.8 103.2 L 233.3 78.2 L 234.8 86.6 L 236.3 131.0 L 237.8 118.9 L 239.3 140.3 L 240.8 115.3 L 242.3 129.0 L 243.8 126.9 L 245.3 116.0 L 246.8 81.4 L 248.3 98.3 L 249.8 94.6 L 251.3 73.1 L 252.8 74.6 L 254.3 79.7 L 255.8 72.7 L 257.3 63.5 L 258.8 68.8 L 260.3 73.9 L 261.8 97.4 L 263.3 129.2 L 264.8 125.9 L 266.3 129.1 L 267.8 128.8 L 269.3 121.6 L 270.8 108.5 L 272.3 130.2 L 273.8 146.0 L 275.3 139.8 L 276.8 106.5 L 278.3 99.0 L 279.8 85.5 L 281.3 93.6 L 282.8 102.7 L 284.3 143.3 L 285.8 155.6 L 287.3 154.0 L 288.8 164.3 L 290.3 169.0 L 291.8 170.1 L 293.3 167.5 L 294.8 157.4 L 296.3 148.6 L 297.8 144.9 L 299.3 137.9 L 300.8 131.5 L 302.3 126.8 L 303.8 117.3 L 305.3 107.0 L 306.8 102.4 L 308.3 104.8 L 309.8 101.1 L 311.3 99.3 L 312.8 103.0 L 314.3 97.2 L 315.8 94.5 M 318.8 61.3 L 320.3 75.7 L 321.8 91.8 M 324.8 70.7 L 326.3 92.8 L 327.8 87.7 L 329.3 87.4 L 330.8 100.4 L 332.3 94.1 L 333.8 97.3 L 335.3 95.1 L 336.8 81.1 L 338.3 81.6 L 339.8 73.8 L 341.3 77.0 L 342.8 87.5 L 344.3 103.7 L 345.8 81.3 L 347.3 74.0 L 348.8 55.6 L 350.3 48.0 L 351.8 54.6 L 353.3 70.7 L 354.8 93.1 L 356.3 103.7 L 357.8 86.2 L 359.3 88.2 L 360.8 127.5 L 362.3 149.6 L 363.8 126.2 L 365.3 112.0 L 366.8 126.8 L 368.3 132.5 L 369.8 128 L 371.3 126.6 L 372.8 121.4 L 374.3 92.1 L 375.8 79.6 L 377.3 77.6 L 378.8 60.5 L 380.3 78.2 L 381.8 103.1 L 383.3 86.9 L 384.8 73.7 L 386.3 73.7 L 387.8 72.8 L 389.3 113.3 L 390.8 108.3 L 392.3 93.7 L 393.8 79.5 L 395.3 95.6 L 396.8 86.2 L 398.3 102.9 L 399.8 104.2 L 401.3 104.4 L 402.8 91.7 L 404.3 71.5 L 405.8 72.2 L 407.3 75.9 L 408.8 66.8 L 410.3 82.0 L 411.8 90.7 L 413.3 96.4 L 414.8 88.9 L 416.3 88.6 L 417.8 97.7 L 419.3 129.8 L 420.8 114.5 L 422.3 119.7 L 423.8 125.7 L 425.3 135.5 L 426.8 112.2 L 428.3 98.2 L 429.8 80.3 L 431.3 110.6 L 432.8 78.5 L 434.3 99.5 L 435.8 85.0 L 437.3 81.6 L 438.8 84.1 L 440.3 93.4 L 441.8 71.4 L 443.3 102.6 L 444.8 97.0 L 446.3 114.0 L 447.8 108.6 L 449.3 101.4 L 450.8 96 L 452.3 79.6 L 453.8 75.1 L 455.3 99.1 L 456.8 88.2 L 458.3 93.2 L 459.8 64.6 L 461.3 86.1 L 462.8 64.7 L 464.3 67.8 L 465.8 51.7 L 467.3 56 L 468.8 40.5 L 470.3 33.9 L 471.8 37.1 L 473.3 47.6 L 474.8 35.7 L 476.3 41.8 L 477.8 36.4 L 479.3 37.8 L 480.8 35.7 L 482.3 51.5 L 483.8 45.3 L 485.3 51.8 L 486.8 48.9 L 488.3 55.1 L 489.8 51.4 L 491.3 56.9 L 492.8 45.2 L 494.3 51.7 L 495.8 36.5 L 497.3 44.0 L 498.8 36.5 L 500.3 26.9 L 501.8 27.6 L 503.3 29.4 L 504.8 27.6 L 506.3 35.3 L 507.8 29.5 L 509.3 38.9 L 510.8 35.4 L 512.3 44 L 513.8 42.8 L 515.3 43.0 L 516.8 37.5 L 518.3 42.3 L 519.8 39.3 L 521.3 52.1 L 522.8 44.8 L 524.3 36.1 L 525.8 28.8 L 527.3 28.4 L 528.8 23.3 L 530.3 38.4 L 531.8 29.8 L 533.3 40.1 L 534.8 45.2 L 536.3 52.5 L 537.8 27.3 L 539.3 26.5" stroke="black" stroke-width="1"  stroke-linejoin="round" stroke-linecap="round"  stroke-opacity="0.1" transform="translate(1, 1)"></path><path fill="none" d="M -0.6 42.7 L 0.8 36 L 2.3 33.5 L 3.8 23.8 L 5.3 15.6 L 6.8 25.9 L 8.3 47.5 L 9.8 40.4 L 11.3 36.6 L 12.8 11.7 L 14.3 31.6 L 15.8 36.3 L 17.3 32.6 L 18.8 41.5 L 20.3 54.1 L 21.8 58.5 L 23.3 51.1 L 24.8 33.4 L 26.3 37.4 L 27.8 35.5 L 29.3 52.3 L 30.8 61.6 L 32.3 65.0 L 33.8 64.7 L 35.3 47.8 L 36.8 26.9 L 38.3 25.3 L 39.8 11.8 L 41.3 16.2 L 42.8 31.6 L 44.3 54.1 L 45.8 54.2 L 47.3 39.0 L 48.8 35.8 L 50.3 43.1 L 51.8 44.9 L 53.3 45.2 L 54.8 34.2 L 56.3 41.2 L 57.8 54.2 L 59.3 43.3 L 60.8 20.7 L 62.3 20.6 L 63.8 20.2 L 65.3 29.8 L 66.8 9.1 L 68.3 29.2 L 69.8 25.0 L 71.3 58.0 L 72.8 64 L 74.3 61.9 L 75.8 52.4 L 77.3 66.8 L 78.8 55.6 L 80.3 47.6 L 81.8 50.1 L 83.3 59.7 L 84.8 53.4 L 86.3 36 L 87.8 27.8 L 89.3 37.7 L 90.8 64 L 92.3 64 L 93.8 64 L 95.3 64 L 96.8 43.8 L 98.3 41.3 L 99.8 38.0 L 101.3 74.3 L 102.8 65.3 L 104.3 68.7 L 105.8 34.2 L 107.3 32.7 L 108.8 51.8 L 110.3 64 L 111.8 63.1 L 113.3 74.6 L 114.8 74.3 L 116.3 77.3 L 117.8 70.6 L 119.3 75.9 L 120.8 85.5 L 122.3 91.3 L 123.8 85.3 L 125.3 64 L 126.8 64 L 128.3 64 L 129.8 30.6 L 131.3 48 L 132.8 52.3 L 134.3 51.3 L 135.8 32.0 L 137.3 31.8 L 138.8 30.8 M 141.8 29.0 L 143.3 31.7 L 144.8 24.3 L 146.3 9.7 L 147.8 14.1 L 149.3 38.5 L 150.8 38.5 L 152.3 40.2 L 153.8 39.3 L 155.3 43.6 L 156.8 33.3 L 158.3 40.9 L 159.8 35.4 L 161.3 39.1 L 162.8 24.6 L 164.3 37.6 L 165.8 39.0 L 167.3 42.6 L 168.8 46.0 L 170.3 49.1 L 171.8 45.3 L 173.3 51.3 L 174.8 81.3 L 176.3 73.2 L 177.8 59.5 L 179.3 78.2 L 180.8 76.6 L 182.3 79.1 L 183.8 57.2 L 185.3 49.2 L 186.8 52 L 188.3 62.6 L 189.8 38.0 L 191.3 40.5 L 192.8 14.9 L 194.3 17.9 L 195.8 40.0 L 197.3 54.8 L 198.8 49.7 L 200.3 59.5 L 201.8 40.8 L 203.3 39.3 L 204.8 42.2 L 206.3 47.6 L 207.8 66.1 L 209.3 70.2 L 210.8 81.3 L 212.3 68.1 L 213.8 62.6 L 215.3 60.3 L 216.8 57.7 L 218.3 56.0 L 219.8 56.3 L 221.3 71.3 L 222.8 87.1 L 224.3 111.7 L 225.8 122.0 L 227.3 139.0 L 228.8 145.2 L 230.3 115.7 L 231.8 103.2 L 233.3 78.2 L 234.8 86.6 L 236.3 131.0 L 237.8 118.9 L 239.3 140.3 L 240.8 115.3 L 242.3 129.0 L 243.8 126.9 L 245.3 116.0 L 246.8 81.4 L 248.3 98.3 L 249.8 94.6 L 251.3 73.1 L 252.8 74.6 L 254.3 79.7 L 255.8 72.7 L 257.3 63.5 L 258.8 68.8 L 260.3 73.9 L 261.8 97.4 L 263.3 129.2 L 264.8 125.9 L 266.3 129.1 L 267.8 128.8 L 269.3 121.6 L 270.8 108.5 L 272.3 130.2 L 273.8 146.0 L 275.3 139.8 L 276.8 106.5 L 278.3 99.0 L 279.8 85.5 L 281.3 93.6 L 282.8 102.7 L 284.3 143.3 L 285.8 155.6 L 287.3 154.0 L 288.8 164.3 L 290.3 169.0 L 291.8 170.1 L 293.3 167.5 L 294.8 157.4 L 296.3 148.6 L 297.8 144.9 L 299.3 137.9 L 300.8 131.5 L 302.3 126.8 L 303.8 117.3 L 305.3 107.0 L 306.8 102.4 L 308.3 104.8 L 309.8 101.1 L 311.3 99.3 L 312.8 103.0 L 314.3 97.2 L 315.8 94.5 M 318.8 61.3 L 320.3 75.7 L 321.8 91.8 M 324.8 70.7 L 326.3 92.8 L 327.8 87.7 L 329.3 87.4 L 330.8 100.4 L 332.3 94.1 L 333.8 97.3 L 335.3 95.1 L 336.8 81.1 L 338.3 81.6 L 339.8 73.8 L 341.3 77.0 L 342.8 87.5 L 344.3 103.7 L 345.8 81.3 L 347.3 74.0 L 348.8 55.6 L 350.3 48.0 L 351.8 54.6 L 353.3 70.7 L 354.8 93.1 L 356.3 103.7 L 357.8 86.2 L 359.3 88.2 L 360.8 127.5 L 362.3 149.6 L 363.8 126.2 L 365.3 112.0 L 366.8 126.8 L 368.3 132.5 L 369.8 128 L 371.3 126.6 L 372.8 121.4 L 374.3 92.1 L 375.8 79.6 L 377.3 77.6 L 378.8 60.5 L 380.3 78.2 L 381.8 103.1 L 383.3 86.9 L 384.8 73.7 L 386.3 73.7 L 387.8 72.8 L 389.3 113.3 L 390.8 108.3 L 392.3 93.7 L 393.8 79.5 L 395.3 95.6 L 396.8 86.2 L 398.3 102.9 L 399.8 104.2 L 401.3 104.4 L 402.8 91.7 L 404.3 71.5 L 405.8 72.2 L 407.3 75.9 L 408.8 66.8 L 410.3 82.0 L 411.8 90.7 L 413.3 96.4 L 414.8 88.9 L 416.3 88.6 L 417.8 97.7 L 419.3 129.8 L 420.8 114.5 L 422.3 119.7 L 423.8 125.7 L 425.3 135.5 L 426.8 112.2 L 428.3 98.2 L 429.8 80.3 L 431.3 110.6 L 432.8 78.5 L 434.3 99.5 L 435.8 85.0 L 437.3 81.6 L 438.8 84.1 L 440.3 93.4 L 441.8 71.4 L 443.3 102.6 L 444.8 97.0 L 446.3 114.0 L 447.8 108.6 L 449.3 101.4 L 450.8 96 L 452.3 79.6 L 453.8 75.1 L 455.3 99.1 L 456.8 88.2 L 458.3 93.2 L 459.8 64.6 L 461.3 86.1 L 462.8 64.7 L 464.3 67.8 L 465.8 51.7 L 467.3 56 L 468.8 40.5 L 470.3 33.9 L 471.8 37.1 L 473.3 47.6 L 474.8 35.7 L 476.3 41.8 L 477.8 36.4 L 479.3 37.8 L 480.8 35.7 L 482.3 51.5 L 483.8 45.3 L 485.3 51.8 L 486.8 48.9 L 488.3 55.1 L 489.8 51.4 L 491.3 56.9 L 492.8 45.2 L 494.3 51.7 L 495.8 36.5 L 497.3 44.0 L 498.8 36.5 L 500.3 26.9 L 501.8 27.6 L 503.3 29.4 L 504.8 27.6 L 506.3 35.3 L 507.8 29.5 L 509.3 38.9 L 510.8 35.4 L 512.3 44 L 513.8 42.8 L 515.3 43.0 L 516.8 37.5 L 518.3 42.3 L 519.8 39.3 L 521.3 52.1 L 522.8 44.8 L 524.3 36.1 L 525.8 28.8 L 527.3 28.4 L 528.8 23.3 L 530.3 38.4 L 531.8 29.8 L 533.3 40.1 L 534.8 45.2 L 536.3 52.5 L 537.8 27.3 L 539.3 26.5" stroke="#f45b5b" stroke-width="2"  stroke-linejoin="round" stroke-linecap="round"></path><path fill="none" d="M -10.6 42.7 L -0.6 42.7 L 0.8 36 L 2.3 33.5 L 3.8 23.8 L 5.3 15.6 L 6.8 25.9 L 8.3 47.5 L 9.8 40.4 L 11.3 36.6 L 12.8 11.7 L 14.3 31.6 L 15.8 36.3 L 17.3 32.6 L 18.8 41.5 L 20.3 54.1 L 21.8 58.5 L 23.3 51.1 L 24.8 33.4 L 26.3 37.4 L 27.8 35.5 L 29.3 52.3 L 30.8 61.6 L 32.3 65.0 L 33.8 64.7 L 35.3 47.8 L 36.8 26.9 L 38.3 25.3 L 39.8 11.8 L 41.3 16.2 L 42.8 31.6 L 44.3 54.1 L 45.8 54.2 L 47.3 39.0 L 48.8 35.8 L 50.3 43.1 L 51.8 44.9 L 53.3 45.2 L 54.8 34.2 L 56.3 41.2 L 57.8 54.2 L 59.3 43.3 L 60.8 20.7 L 62.3 20.6 L 63.8 20.2 L 65.3 29.8 L 66.8 9.1 L 68.3 29.2 L 69.8 25.0 L 71.3 58.0 L 72.8 64 L 74.3 61.9 L 75.8 52.4 L 77.3 66.8 L 78.8 55.6 L 80.3 47.6 L 81.8 50.1 L 83.3 59.7 L 84.8 53.4 L 86.3 36 L 87.8 27.8 L 89.3 37.7 L 90.8 64 L 92.3 64 L 93.8 64 L 95.3 64 L 96.8 43.8 L 98.3 41.3 L 99.8 38.0 L 101.3 74.3 L 102.8 65.3 L 104.3 68.7 L 105.8 34.2 L 107.3 32.7 L 108.8 51.8 L 110.3 64 L 111.8 63.1 L 113.3 74.6 L 114.8 74.3 L 116.3 77.3 L 117.8 70.6 L 119.3 75.9 L 120.8 85.5 L 122.3 91.3 L 123.8 85.3 L 125.3 64 L 126.8 64 L 128.3 64 L 129.8 30.6 L 131.3 48 L 132.8 52.3 L 134.3 51.3 L 135.8 32.0 L 137.3 31.8 L 138.8 30.8 L 148.8 30.8 M 131.8 29.0 L 141.8 29.0 L 143.3 31.7 L 144.8 24.3 L 146.3 9.7 L 147.8 14.1 L 149.3 38.5 L 150.8 38.5 L 152.3 40.2 L 153.8 39.3 L 155.3 43.6 L 156.8 33.3 L 158.3 40.9 L 159.8 35.4 L 161.3 39.1 L 162.8 24.6 L 164.3 37.6 L 165.8 39.0 L 167.3 42.6 L 168.8 46.0 L 170.3 49.1 L 171.8 45.3 L 173.3 51.3 L 174.8 81.3 L 176.3 73.2 L 177.8 59.5 L 179.3 78.2 L 180.8 76.6 L 182.3 79.1 L 183.8 57.2 L 185.3 49.2 L 186.8 52 L 188.3 62.6 L 189.8 38.0 L 191.3 40.5 L 192.8 14.9 L 194.3 17.9 L 195.8 40.0 L 197.3 54.8 L 198.8 49.7 L 200.3 59.5 L 201.8 40.8 L 203.3 39.3 L 204.8 42.2 L 206.3 47.6 L 207.8 66.1 L 209.3 70.2 L 210.8 81.3 L 212.3 68.1 L 213.8 62.6 L 215.3 60.3 L 216.8 57.7 L 218.3 56.0 L 219.8 56.3 L 221.3 71.3 L 222.8 87.1 L 224.3 111.7 L 225.8 122.0 L 227.3 139.0 L 228.8 145.2 L 230.3 115.7 L 231.8 103.2 L 233.3 78.2 L 234.8 86.6 L 236.3 131.0 L 237.8 118.9 L 239.3 140.3 L 240.8 115.3 L 242.3 129.0 L 243.8 126.9 L 245.3 116.0 L 246.8 81.4 L 248.3 98.3 L 249.8 94.6 L 251.3 73.1 L 252.8 74.6 L 254.3 79.7 L 255.8 72.7 L 257.3 63.5 L 258.8 68.8 L 260.3 73.9 L 261.8 97.4 L 263.3 129.2 L 264.8 125.9 L 266.3 129.1 L 267.8 128.8 L 269.3 121.6 L 270.8 108.5 L 272.3 130.2 L 273.8 146.0 L 275.3 139.8 L 276.8 106.5 L 278.3 99.0 L 279.8 85.5 L 281.3 93.6 L 282.8 102.7 L 284.3 143.3 L 285.8 155.6 L 287.3 154.0 L 288.8 164.3 L 290.3 169.0 L 291.8 170.1 L 293.3 167.5 L 294.8 157.4 L 296.3 148.6 L 297.8 144.9 L 299.3 137.9 L 300.8 131.5 L 302.3 126.8 L 303.8 117.3 L 305.3 107.0 L 306.8 102.4 L 308.3 104.8 L 309.8 101.1 L 311.3 99.3 L 312.8 103.0 L 314.3 97.2 L 315.8 94.5 L 325.8 94.5 M 308.8 61.3 L 318.8 61.3 L 320.3 75.7 L 321.8 91.8 L 331.8 91.8 M 314.8 70.7 L 324.8 70.7 L 326.3 92.8 L 327.8 87.7 L 329.3 87.4 L 330.8 100.4 L 332.3 94.1 L 333.8 97.3 L 335.3 95.1 L 336.8 81.1 L 338.3 81.6 L 339.8 73.8 L 341.3 77.0 L 342.8 87.5 L 344.3 103.7 L 345.8 81.3 L 347.3 74.0 L 348.8 55.6 L 350.3 48.0 L 351.8 54.6 L 353.3 70.7 L 354.8 93.1 L 356.3 103.7 L 357.8 86.2 L 359.3 88.2 L 360.8 127.5 L 362.3 149.6 L 363.8 126.2 L 365.3 112.0 L 366.8 126.8 L 368.3 132.5 L 369.8 128 L 371.3 126.6 L 372.8 121.4 L 374.3 92.1 L 375.8 79.6 L 377.3 77.6 L 378.8 60.5 L 380.3 78.2 L 381.8 103.1 L 383.3 86.9 L 384.8 73.7 L 386.3 73.7 L 387.8 72.8 L 389.3 113.3 L 390.8 108.3 L 392.3 93.7 L 393.8 79.5 L 395.3 95.6 L 396.8 86.2 L 398.3 102.9 L 399.8 104.2 L 401.3 104.4 L 402.8 91.7 L 404.3 71.5 L 405.8 72.2 L 407.3 75.9 L 408.8 66.8 L 410.3 82.0 L 411.8 90.7 L 413.3 96.4 L 414.8 88.9 L 416.3 88.6 L 417.8 97.7 L 419.3 129.8 L 420.8 114.5 L 422.3 119.7 L 423.8 125.7 L 425.3 135.5 L 426.8 112.2 L 428.3 98.2 L 429.8 80.3 L 431.3 110.6 L 432.8 78.5 L 434.3 99.5 L 435.8 85.0 L 437.3 81.6 L 438.8 84.1 L 440.3 93.4 L 441.8 71.4 L 443.3 102.6 L 444.8 97.0 L 446.3 114.0 L 447.8 108.6 L 449.3 101.4 L 450.8 96 L 452.3 79.6 L 453.8 75.1 L 455.3 99.1 L 456.8 88.2 L 458.3 93.2 L 459.8 64.6 L 461.3 86.1 L 462.8 64.7 L 464.3 67.8 L 465.8 51.7 L 467.3 56 L 468.8 40.5 L 470.3 33.9 L 471.8 37.1 L 473.3 47.6 L 474.8 35.7 L 476.3 41.8 L 477.8 36.4 L 479.3 37.8 L 480.8 35.7 L 482.3 51.5 L 483.8 45.3 L 485.3 51.8 L 486.8 48.9 L 488.3 55.1 L 489.8 51.4 L 491.3 56.9 L 492.8 45.2 L 494.3 51.7 L 495.8 36.5 L 497.3 44.0 L 498.8 36.5 L 500.3 26.9 L 501.8 27.6 L 503.3 29.4 L 504.8 27.6 L 506.3 35.3 L 507.8 29.5 L 509.3 38.9 L 510.8 35.4 L 512.3 44 L 513.8 42.8 L 515.3 43.0 L 516.8 37.5 L 518.3 42.3 L 519.8 39.3 L 521.3 52.1 L 522.8 44.8 L 524.3 36.1 L 525.8 28.8 L 527.3 28.4 L 528.8 23.3 L 530.3 38.4 L 531.8 29.8 L 533.3 40.1 L 534.8 45.2 L 536.3 52.5 L 537.8 27.3 L 539.3 26.5 L 549.3 26.5" stroke-linejoin="round" visibility="visible" stroke="rgb(192,192,192)" stroke-opacity="0.0" stroke-width="22"  class=" highcharts-tracker" style=""></path></g><g class="highcharts-markers highcharts-tracker" visibility="visible"  transform="translate(10,93) scale(1 1)" clip-path="url(#highcharts-2)" style=""></g><g class="highcharts-series" visibility="visible"  transform="translate(24,331) scale(1 1)" clip-path="url(#highcharts-5)"><path fill="rgb(69,114,167)" fill-opacity="0.0" d="M 0 20.9 C 0 20.9 0.9 20.3 1.6 19.6 C 2.2 18.9 2.6 18.1 3.2 17.3 C 3.9 16.5 4.2 16.1 4.9 15.5 C 5.5 14.9 5.8 15.0 6.5 14.4 C 7.1 13.9 7.5 12.6 8.1 12.6 C 8.8 12.6 9.1 14.7 9.8 15.6 C 10.4 16.6 10.7 17.3 11.4 17.3 C 12.1 17.3 12.4 14.9 13.0 13.5 C 13.7 12.2 14.0 10.4 14.7 10.4 C 15.3 10.4 15.7 10.7 16.3 11.3 C 17.0 11.9 17.3 13.3 17.9 13.3 C 18.6 13.3 18.9 10.3 19.6 10.3 C 20.2 10.3 20.6 11.1 21.2 11.1 C 21.9 11.1 22.2 9.7 22.9 9.7 C 23.5 9.7 23.8 11.6 24.5 11.6 C 25.1 11.6 25.5 10.5 26.1 9.9 C 26.8 9.3 27.1 9.4 27.8 8.5 C 28.4 7.6 28.7 5.4 29.4 5.4 C 30.0 5.4 30.4 5.4 31.0 6.0 C 31.7 6.6 32.0 9.0 32.7 10.3 C 33.3 11.6 33.6 12.5 34.3 12.5 C 35.0 12.5 35.3 11.5 35.9 11.5 C 36.6 11.5 36.9 12.9 37.6 13.6 C 38.2 14.3 38.6 14.8 39.2 14.8 C 39.9 14.8 40.2 14.6 40.8 14.6 C 41.5 14.6 41.8 16.3 42.5 16.9 C 43.1 17.5 43.5 17.2 44.1 17.7 C 44.8 18.2 45.1 19.5 45.8 19.5 C 46.4 19.5 46.7 18.2 47.4 18.2 C 48.0 18.2 48.4 19.8 49.0 20.3 C 49.7 20.9 50.0 21.1 50.7 21.1 C 51.3 21.1 51.6 20.7 52.3 20.7 C 52.9 20.7 53.3 23.6 53.9 24.2 C 54.6 24.8 54.9 24.8 55.6 24.8 C 56.2 24.8 56.5 21.8 57.2 21.1 C 57.9 20.3 58.2 20.3 58.8 20.3 C 59.5 20.3 59.8 20.3 60.5 21.2 C 61.1 22.1 61.5 27.8 62.1 27.8 C 62.8 27.8 63.1 23.3 63.7 22.6 C 64.4 22.0 64.7 22.3 65.4 22.0 C 66.0 21.7 66.4 21.1 67.0 21.1 C 67.7 21.1 68.0 22.7 68.7 23.5 C 69.3 24.4 69.6 25.3 70.3 25.3 C 70.9 25.3 71.3 21.0 71.9 21.0 C 72.6 21.0 72.9 21.9 73.6 23.0 C 74.2 24.1 74.5 25.4 75.2 26.6 C 75.9 27.8 76.2 28.8 76.8 28.8 C 77.5 28.8 77.8 28.6 78.5 27.5 C 79.1 26.3 79.4 23.1 80.1 23.1 C 80.8 23.1 81.1 23.9 81.7 23.9 C 82.4 23.9 82.7 19.9 83.4 19.9 C 84.0 19.9 84.4 20.2 85.0 20.3 C 85.7 20.4 86.0 20.4 86.6 20.4 C 87.3 20.4 87.6 19.0 88.3 18.5 C 88.9 18.1 89.3 18.5 89.9 18.1 C 90.6 17.7 90.9 16.2 91.6 16.2 C 92.2 16.2 92.5 16.8 93.2 16.8 C 93.8 16.8 94.2 16.2 94.8 16.2 C 95.5 16.2 95.8 16.6 96.5 16.6 C 97.1 16.6 97.4 14.9 98.1 14.3 C 98.8 13.6 99.1 13.4 99.7 13.4 C 100.4 13.4 100.7 14.7 101.4 14.7 C 102.0 14.7 102.3 10.9 103.0 10.9 C 103.7 10.9 104.0 11.5 104.6 11.5 C 105.3 11.5 105.6 10.4 106.3 9.5 C 106.9 8.6 107.3 7.0 107.9 7.0 C 108.6 7.0 108.9 8.8 109.5 8.8 C 110.2 8.8 110.5 6.8 111.2 6.8 C 111.8 6.8 112.2 7.2 112.8 8.0 C 113.5 8.7 113.8 10.6 114.5 10.6 C 115.1 10.6 115.4 9.6 116.1 9.6 C 116.7 9.6 117.1 10.2 117.7 10.7 C 118.4 11.2 118.7 11.9 119.4 12.3 C 120.0 12.7 120.3 12.5 121.0 12.8 C 121.7 13.1 122.0 13.3 122.6 13.8 C 123.3 14.2 123.6 15.2 124.3 15.2 C 124.9 15.2 125.9 12.5 125.9 12.5 L 125.9 40 L 0 40 M 134.1 13.5 C 134.1 13.5 135.1 15.1 135.7 16.0 C 136.4 17.0 136.7 17.1 137.4 18.4 C 138.0 19.7 138.3 21.9 139.0 22.6 C 139.6 23.3 140.0 22.7 140.6 23.3 C 141.3 24.0 141.6 25.9 142.3 25.9 C 142.9 25.9 143.2 24.4 143.9 23.6 C 144.6 22.8 144.9 22.0 145.5 22.0 C 146.2 22.0 146.5 22.4 147.2 23.9 C 147.8 25.4 148.2 29.4 148.8 29.4 C 149.5 29.4 149.8 29.4 150.4 28.2 C 151.1 26.9 151.4 21.3 152.1 21.3 C 152.7 21.3 153.1 25.0 153.7 25.7 C 154.4 26.3 154.7 26.3 155.3 26.3 C 156.0 26.3 156.3 22.8 157.0 22.8 C 157.6 22.8 158.0 25.5 158.6 25.5 C 159.3 25.5 159.6 24.6 160.3 24.6 C 160.9 24.6 161.2 24.6 161.9 25.1 C 162.5 25.7 162.9 27.6 163.5 28.5 C 164.2 29.4 164.5 29.5 165.2 29.5 C 165.8 29.5 166.1 25.7 166.8 25.4 C 167.5 25.1 167.8 25.4 168.4 25.1 C 169.1 24.8 169.4 21.5 170.1 21.5 C 170.7 21.5 171.1 21.6 171.7 21.6 C 172.4 21.6 172.7 19.7 173.3 19.6 C 174.0 19.6 174.3 19.6 175.0 19.6 C 175.6 19.6 176.0 18.6 176.6 17.0 C 177.3 15.5 177.6 11.9 178.3 11.9 C 178.9 11.9 179.2 13.9 179.9 14.4 C 180.5 14.9 180.9 14.7 181.5 14.9 C 182.2 15.2 182.5 15.7 183.2 15.7 C 183.8 15.7 184.1 15.7 184.8 14.7 C 185.4 13.8 185.8 11.7 186.4 10.5 C 187.1 9.4 187.4 8.9 188.1 8.9 C 188.7 8.9 189.0 11.8 189.7 11.8 C 190.4 11.8 190.7 9.2 191.3 8.2 C 192.0 7.2 192.3 6.8 193.0 6.8 C 193.6 6.8 194.0 10.4 194.6 10.4 C 195.3 10.4 195.6 7.8 196.2 6.7 C 196.9 5.6 197.2 4.8 197.9 4.8 C 198.5 4.8 198.9 5.5 199.5 6.2 C 200.2 6.8 200.5 7.8 201.2 8.0 C 201.8 8.2 202.1 8.2 202.8 8.2 C 203.4 8.2 203.8 8.1 204.4 8.1 C 205.1 8.1 205.4 9.9 206.1 10.8 C 206.7 11.6 207.0 12.3 207.7 12.3 C 208.3 12.3 208.7 12.0 209.3 11.8 C 210.0 11.6 210.3 11.3 211.0 11.3 C 211.6 11.3 211.9 11.7 212.6 12.4 C 213.3 13.2 213.6 14.4 214.2 15.1 C 214.9 15.8 215.2 15.4 215.9 15.9 C 216.5 16.3 216.9 16.4 217.5 17.3 C 218.2 18.1 218.5 19.2 219.1 20.1 C 219.8 20.9 220.1 21.4 220.8 21.4 C 221.4 21.4 221.8 20.3 222.4 20.3 C 223.1 20.3 223.4 20.9 224.1 20.9 C 224.7 20.9 225.0 20.1 225.7 19.7 C 226.3 19.2 226.7 18.8 227.3 18.8 C 228.0 18.8 228.3 19.1 229.0 19.5 C 229.6 19.8 229.9 20.5 230.6 20.5 C 231.2 20.5 231.6 19.6 232.2 19.6 C 232.9 19.6 233.2 20.8 233.9 21.2 C 234.5 21.6 234.8 21.4 235.5 21.7 C 236.2 22.0 236.5 22.2 237.1 22.6 C 237.8 23.1 238.1 23.3 238.8 24.2 C 239.4 25.0 239.8 26.9 240.4 26.9 C 241.1 26.9 241.4 21.5 242.0 21.5 C 242.7 21.5 243.0 32.2 243.7 32.2 C 244.3 32.2 244.7 24.1 245.3 24.1 C 246.0 24.1 246.3 26.2 247.0 26.2 C 247.6 26.2 247.9 23.3 248.6 22.1 C 249.2 20.9 249.6 20.5 250.2 20.2 C 250.9 19.8 251.2 19.8 251.9 19.8 C 252.5 19.8 252.8 21.0 253.5 21.0 C 254.2 21.0 254.5 20.1 255.1 20.1 C 255.8 20.1 256.1 20.9 256.8 20.9 C 257.4 20.9 257.7 17.8 258.4 17.8 C 259.1 17.8 259.4 20.0 260.0 20.0 C 260.7 20.0 261.0 17.0 261.7 15.8 C 262.3 14.7 262.7 14.4 263.3 14.4 C 264.0 14.4 264.3 16.9 264.9 16.9 C 265.6 16.9 265.9 16.9 266.6 16.5 C 267.2 16.2 267.6 16.4 268.2 15.0 C 268.9 13.6 269.2 11.5 269.9 9.7 C 270.5 7.9 270.8 6.0 271.5 6.0 C 272.1 6.0 272.5 9.7 273.1 9.7 C 273.8 9.7 274.1 8.2 274.8 8.2 C 275.4 8.2 275.7 8.6 276.4 8.6 C 277.1 8.6 277.4 6.9 278.0 6.9 C 278.7 6.9 279.0 10.5 279.7 10.5 C 280.3 10.5 280.7 9.0 281.3 9.0 C 282.0 9.0 282.3 9.3 282.9 9.9 C 283.6 10.5 283.9 12.0 284.6 12.0 C 285.2 12.0 285.6 7.6 286.2 7.6 C 286.9 7.6 287.2 10.9 287.8 10.9 C 288.5 10.9 288.8 10.7 289.5 10.7 C 290.1 10.7 290.5 15.0 291.1 15.0 C 291.8 15.0 292.1 13.8 292.8 13.8 C 293.4 13.8 293.7 14.9 294.4 15.5 C 295.0 16.0 295.4 16.6 296.0 16.6 C 296.7 16.6 297.0 16.1 297.7 16.1 C 298.3 16.1 298.6 16.3 299.3 16.8 C 300.0 17.2 300.3 18.4 300.9 18.4 C 301.6 18.4 301.9 18.4 302.6 18.2 C 303.2 18.1 303.6 17.3 304.2 17.3 C 304.9 17.3 305.2 19.8 305.8 20.7 C 306.5 21.6 306.8 21.3 307.5 22.0 C 308.1 22.6 308.5 24.1 309.1 24.1 C 309.8 24.1 310.1 24.0 310.7 23.9 C 311.4 23.8 311.7 23.7 312.4 23.7 C 313.0 23.7 313.4 23.8 314.0 24.5 C 314.7 25.2 315.0 26.3 315.7 27.1 C 316.3 27.8 316.6 28.4 317.3 28.4 C 317.9 28.4 318.3 21.5 318.9 21.5 C 319.6 21.5 319.9 26.0 320.6 26.0 C 321.2 26.0 321.5 23.9 322.2 23.2 C 322.9 22.4 323.2 22.2 323.8 22.2 C 324.5 22.2 324.8 22.6 325.5 22.9 C 326.1 23.3 326.5 23.7 327.1 23.7 C 327.8 23.7 328.1 22.2 328.7 22.2 C 329.4 22.2 329.7 25.0 330.4 25.0 C 331.0 25.0 331.4 20.0 332.0 20.0 C 332.7 20.0 333.0 21.3 333.6 21.9 C 334.3 22.5 334.6 23.1 335.3 23.1 C 335.9 23.1 336.3 20.6 336.9 20.6 C 337.6 20.6 337.9 23.9 338.6 24.5 C 339.2 25.1 339.5 25.1 340.2 25.1 C 340.8 25.1 341.2 18.9 341.8 18.9 C 342.5 18.9 342.8 19.4 343.5 19.6 C 344.1 19.7 344.4 19.8 345.1 19.8 C 345.8 19.8 346.1 18.4 346.7 17.2 C 347.4 16.0 347.7 14.8 348.4 13.8 C 349.0 12.8 349.4 12.4 350.0 12.4 C 350.7 12.4 351.0 14.4 351.6 14.8 C 352.3 15.2 352.6 15.2 353.3 15.2 C 353.9 15.2 354.3 10.9 354.9 9.2 C 355.6 7.5 355.9 6.8 356.6 6.8 C 357.2 6.8 357.5 12.9 358.2 12.9 C 358.8 12.9 359.2 12.3 359.8 12.1 C 360.5 11.9 360.8 12.1 361.5 11.8 C 362.1 11.5 362.4 5.5 363.1 5.5 C 363.7 5.5 364.1 6.8 364.7 8.0 C 365.4 9.1 365.7 11.3 366.4 11.3 C 367.0 11.3 367.3 7.0 368.0 5.5 C 368.7 4.0 369.0 3.7 369.6 3.7 C 370.3 3.7 370.6 7.1 371.3 8.6 C 371.9 10.1 372.3 11.1 372.9 11.1 C 373.6 11.1 373.9 9.3 374.5 9.3 C 375.2 9.3 375.5 10.5 376.2 11.2 C 376.8 11.9 377.2 12.9 377.8 13.0 C 378.5 13.1 378.8 13.0 379.5 13.1 C 380.1 13.2 380.4 14.7 381.1 14.7 C 381.7 14.7 382.1 14.3 382.7 14.3 C 383.4 14.3 383.7 17.8 384.4 17.8 C 385.0 17.8 385.3 15.7 386.0 15.7 C 386.6 15.7 387.0 17.9 387.6 17.9 C 388.3 17.9 388.6 17.9 389.3 17.9 C 389.9 17.9 390.2 24.8 390.9 24.8 C 391.6 24.8 391.9 21.0 392.5 21.0 C 393.2 21.0 393.5 22.5 394.2 23.2 C 394.8 23.8 395.2 24.3 395.8 24.3 C 396.5 24.3 396.8 23.0 397.4 23.0 C 398.1 23.0 398.4 26.5 399.1 26.5 C 399.7 26.5 400.1 26.5 400.7 26.3 C 401.4 26.0 401.7 22.7 402.4 22.7 C 403.0 22.7 403.3 23.7 404.0 24.3 C 404.6 24.9 405.0 25.7 405.6 25.7 C 406.3 25.7 406.6 23.5 407.3 23.0 C 407.9 22.6 408.2 22.6 408.9 22.6 C 409.6 22.6 409.9 22.6 410.5 23.4 C 411.2 24.2 411.5 25.7 412.2 26.6 C 412.8 27.5 413.1 27.9 413.8 27.9 C 414.5 27.9 414.8 27.9 415.4 27.7 C 416.1 27.5 416.4 22.6 417.1 22.6 C 417.7 22.6 418.1 23.3 418.7 23.3 C 419.4 23.3 419.7 21.0 420.3 21.0 C 421.0 21.0 421.3 21.0 422.0 21.2 C 422.6 21.3 423.0 21.4 423.6 21.7 C 424.3 22.1 424.6 22.8 425.3 22.8 C 425.9 22.8 426.2 21.0 426.9 20.0 C 427.5 18.9 427.9 18.2 428.5 17.5 C 429.2 16.9 429.5 17.4 430.2 16.9 C 430.8 16.4 431.1 15.7 431.8 15.0 C 432.5 14.3 432.8 13.5 433.4 13.5 C 434.1 13.5 434.4 16.8 435.1 16.8 C 435.7 16.8 436.0 14.3 436.7 13.4 C 437.4 12.6 437.7 12.4 438.3 12.4 C 439.0 12.4 439.3 13.0 440.0 13.0 C 440.6 13.0 441.0 13.0 441.6 12.9 C 442.3 12.8 442.6 12.8 443.2 12.6 C 443.9 12.5 444.2 12.6 444.9 12.1 C 445.5 11.6 445.9 10.7 446.5 8.9 C 447.2 7.2 447.5 3.3 448.2 3.3 C 448.8 3.3 449.1 9.7 449.8 9.7 C 450.4 9.7 450.8 7.9 451.4 7.9 C 452.1 7.9 452.4 9.5 453.1 10.2 C 453.7 10.9 454.0 11.4 454.7 11.4 C 455.4 11.4 455.7 7.5 456.3 7.5 C 457.0 7.5 457.3 11.5 458.0 11.5 C 458.6 11.5 459.0 10.4 459.6 10.4 C 460.3 10.4 460.6 11.4 461.2 11.8 C 461.9 12.3 462.2 12.2 462.9 12.4 C 463.5 12.7 463.9 12.8 464.5 13.1 C 465.2 13.4 465.5 13.3 466.1 14.0 C 466.8 14.8 467.1 15.6 467.8 17.0 C 468.4 18.4 468.8 21.0 469.4 21.0 C 470.1 21.0 470.4 20.8 471.1 20.8 C 471.7 20.8 472.0 21.3 472.7 21.3 C 473.3 21.3 473.7 20.0 474.3 20.0 C 475.0 20.0 475.3 21.8 476.0 22.5 C 476.6 23.1 476.9 22.7 477.6 23.3 C 478.3 23.9 478.6 25.5 479.2 25.5 C 479.9 25.5 480.2 19.9 480.9 19.9 C 481.5 19.9 481.9 20.4 482.5 21.1 C 483.2 21.8 483.5 23.2 484.1 23.3 C 484.8 23.5 485.1 23.3 485.8 23.5 C 486.4 23.6 486.8 29.5 487.4 29.7 C 488.1 30.0 488.4 29.7 489.0 30.0 C 489.7 30.2 490.0 31.1 490.7 32.4 C 491.3 33.7 491.7 36.6 492.3 36.6 C 493.0 36.6 493.3 32.2 494.0 30.6 C 494.6 28.9 494.9 28.2 495.6 28.2 C 496.2 28.2 496.6 28.2 497.2 28.2 C 497.9 28.2 498.2 30.7 498.9 30.7 C 499.5 30.7 499.8 28.8 500.5 28.8 C 501.2 28.8 501.5 30.0 502.1 30.0 C 502.8 30.0 503.1 29.7 503.8 29.2 C 504.4 28.6 504.8 28.8 505.4 27.3 C 506.1 25.7 506.4 22.1 507.0 21.5 C 507.7 20.8 508.0 20.8 508.7 20.8 C 509.3 20.8 509.7 20.8 510.3 20.8 C 511.0 20.8 511.9 20.7 511.9 20.7 L 511.9 40 L 134.1 40" ></path><path fill="none" d="M 0 20.9 C 0 20.9 0.9 20.3 1.6 19.6 C 2.2 18.9 2.6 18.1 3.2 17.3 C 3.9 16.5 4.2 16.1 4.9 15.5 C 5.5 14.9 5.8 15.0 6.5 14.4 C 7.1 13.9 7.5 12.6 8.1 12.6 C 8.8 12.6 9.1 14.7 9.8 15.6 C 10.4 16.6 10.7 17.3 11.4 17.3 C 12.1 17.3 12.4 14.9 13.0 13.5 C 13.7 12.2 14.0 10.4 14.7 10.4 C 15.3 10.4 15.7 10.7 16.3 11.3 C 17.0 11.9 17.3 13.3 17.9 13.3 C 18.6 13.3 18.9 10.3 19.6 10.3 C 20.2 10.3 20.6 11.1 21.2 11.1 C 21.9 11.1 22.2 9.7 22.9 9.7 C 23.5 9.7 23.8 11.6 24.5 11.6 C 25.1 11.6 25.5 10.5 26.1 9.9 C 26.8 9.3 27.1 9.4 27.8 8.5 C 28.4 7.6 28.7 5.4 29.4 5.4 C 30.0 5.4 30.4 5.4 31.0 6.0 C 31.7 6.6 32.0 9.0 32.7 10.3 C 33.3 11.6 33.6 12.5 34.3 12.5 C 35.0 12.5 35.3 11.5 35.9 11.5 C 36.6 11.5 36.9 12.9 37.6 13.6 C 38.2 14.3 38.6 14.8 39.2 14.8 C 39.9 14.8 40.2 14.6 40.8 14.6 C 41.5 14.6 41.8 16.3 42.5 16.9 C 43.1 17.5 43.5 17.2 44.1 17.7 C 44.8 18.2 45.1 19.5 45.8 19.5 C 46.4 19.5 46.7 18.2 47.4 18.2 C 48.0 18.2 48.4 19.8 49.0 20.3 C 49.7 20.9 50.0 21.1 50.7 21.1 C 51.3 21.1 51.6 20.7 52.3 20.7 C 52.9 20.7 53.3 23.6 53.9 24.2 C 54.6 24.8 54.9 24.8 55.6 24.8 C 56.2 24.8 56.5 21.8 57.2 21.1 C 57.9 20.3 58.2 20.3 58.8 20.3 C 59.5 20.3 59.8 20.3 60.5 21.2 C 61.1 22.1 61.5 27.8 62.1 27.8 C 62.8 27.8 63.1 23.3 63.7 22.6 C 64.4 22.0 64.7 22.3 65.4 22.0 C 66.0 21.7 66.4 21.1 67.0 21.1 C 67.7 21.1 68.0 22.7 68.7 23.5 C 69.3 24.4 69.6 25.3 70.3 25.3 C 70.9 25.3 71.3 21.0 71.9 21.0 C 72.6 21.0 72.9 21.9 73.6 23.0 C 74.2 24.1 74.5 25.4 75.2 26.6 C 75.9 27.8 76.2 28.8 76.8 28.8 C 77.5 28.8 77.8 28.6 78.5 27.5 C 79.1 26.3 79.4 23.1 80.1 23.1 C 80.8 23.1 81.1 23.9 81.7 23.9 C 82.4 23.9 82.7 19.9 83.4 19.9 C 84.0 19.9 84.4 20.2 85.0 20.3 C 85.7 20.4 86.0 20.4 86.6 20.4 C 87.3 20.4 87.6 19.0 88.3 18.5 C 88.9 18.1 89.3 18.5 89.9 18.1 C 90.6 17.7 90.9 16.2 91.6 16.2 C 92.2 16.2 92.5 16.8 93.2 16.8 C 93.8 16.8 94.2 16.2 94.8 16.2 C 95.5 16.2 95.8 16.6 96.5 16.6 C 97.1 16.6 97.4 14.9 98.1 14.3 C 98.8 13.6 99.1 13.4 99.7 13.4 C 100.4 13.4 100.7 14.7 101.4 14.7 C 102.0 14.7 102.3 10.9 103.0 10.9 C 103.7 10.9 104.0 11.5 104.6 11.5 C 105.3 11.5 105.6 10.4 106.3 9.5 C 106.9 8.6 107.3 7.0 107.9 7.0 C 108.6 7.0 108.9 8.8 109.5 8.8 C 110.2 8.8 110.5 6.8 111.2 6.8 C 111.8 6.8 112.2 7.2 112.8 8.0 C 113.5 8.7 113.8 10.6 114.5 10.6 C 115.1 10.6 115.4 9.6 116.1 9.6 C 116.7 9.6 117.1 10.2 117.7 10.7 C 118.4 11.2 118.7 11.9 119.4 12.3 C 120.0 12.7 120.3 12.5 121.0 12.8 C 121.7 13.1 122.0 13.3 122.6 13.8 C 123.3 14.2 123.6 15.2 124.3 15.2 C 124.9 15.2 125.9 12.5 125.9 12.5 M 134.1 13.5 C 134.1 13.5 135.1 15.1 135.7 16.0 C 136.4 17.0 136.7 17.1 137.4 18.4 C 138.0 19.7 138.3 21.9 139.0 22.6 C 139.6 23.3 140.0 22.7 140.6 23.3 C 141.3 24.0 141.6 25.9 142.3 25.9 C 142.9 25.9 143.2 24.4 143.9 23.6 C 144.6 22.8 144.9 22.0 145.5 22.0 C 146.2 22.0 146.5 22.4 147.2 23.9 C 147.8 25.4 148.2 29.4 148.8 29.4 C 149.5 29.4 149.8 29.4 150.4 28.2 C 151.1 26.9 151.4 21.3 152.1 21.3 C 152.7 21.3 153.1 25.0 153.7 25.7 C 154.4 26.3 154.7 26.3 155.3 26.3 C 156.0 26.3 156.3 22.8 157.0 22.8 C 157.6 22.8 158.0 25.5 158.6 25.5 C 159.3 25.5 159.6 24.6 160.3 24.6 C 160.9 24.6 161.2 24.6 161.9 25.1 C 162.5 25.7 162.9 27.6 163.5 28.5 C 164.2 29.4 164.5 29.5 165.2 29.5 C 165.8 29.5 166.1 25.7 166.8 25.4 C 167.5 25.1 167.8 25.4 168.4 25.1 C 169.1 24.8 169.4 21.5 170.1 21.5 C 170.7 21.5 171.1 21.6 171.7 21.6 C 172.4 21.6 172.7 19.7 173.3 19.6 C 174.0 19.6 174.3 19.6 175.0 19.6 C 175.6 19.6 176.0 18.6 176.6 17.0 C 177.3 15.5 177.6 11.9 178.3 11.9 C 178.9 11.9 179.2 13.9 179.9 14.4 C 180.5 14.9 180.9 14.7 181.5 14.9 C 182.2 15.2 182.5 15.7 183.2 15.7 C 183.8 15.7 184.1 15.7 184.8 14.7 C 185.4 13.8 185.8 11.7 186.4 10.5 C 187.1 9.4 187.4 8.9 188.1 8.9 C 188.7 8.9 189.0 11.8 189.7 11.8 C 190.4 11.8 190.7 9.2 191.3 8.2 C 192.0 7.2 192.3 6.8 193.0 6.8 C 193.6 6.8 194.0 10.4 194.6 10.4 C 195.3 10.4 195.6 7.8 196.2 6.7 C 196.9 5.6 197.2 4.8 197.9 4.8 C 198.5 4.8 198.9 5.5 199.5 6.2 C 200.2 6.8 200.5 7.8 201.2 8.0 C 201.8 8.2 202.1 8.2 202.8 8.2 C 203.4 8.2 203.8 8.1 204.4 8.1 C 205.1 8.1 205.4 9.9 206.1 10.8 C 206.7 11.6 207.0 12.3 207.7 12.3 C 208.3 12.3 208.7 12.0 209.3 11.8 C 210.0 11.6 210.3 11.3 211.0 11.3 C 211.6 11.3 211.9 11.7 212.6 12.4 C 213.3 13.2 213.6 14.4 214.2 15.1 C 214.9 15.8 215.2 15.4 215.9 15.9 C 216.5 16.3 216.9 16.4 217.5 17.3 C 218.2 18.1 218.5 19.2 219.1 20.1 C 219.8 20.9 220.1 21.4 220.8 21.4 C 221.4 21.4 221.8 20.3 222.4 20.3 C 223.1 20.3 223.4 20.9 224.1 20.9 C 224.7 20.9 225.0 20.1 225.7 19.7 C 226.3 19.2 226.7 18.8 227.3 18.8 C 228.0 18.8 228.3 19.1 229.0 19.5 C 229.6 19.8 229.9 20.5 230.6 20.5 C 231.2 20.5 231.6 19.6 232.2 19.6 C 232.9 19.6 233.2 20.8 233.9 21.2 C 234.5 21.6 234.8 21.4 235.5 21.7 C 236.2 22.0 236.5 22.2 237.1 22.6 C 237.8 23.1 238.1 23.3 238.8 24.2 C 239.4 25.0 239.8 26.9 240.4 26.9 C 241.1 26.9 241.4 21.5 242.0 21.5 C 242.7 21.5 243.0 32.2 243.7 32.2 C 244.3 32.2 244.7 24.1 245.3 24.1 C 246.0 24.1 246.3 26.2 247.0 26.2 C 247.6 26.2 247.9 23.3 248.6 22.1 C 249.2 20.9 249.6 20.5 250.2 20.2 C 250.9 19.8 251.2 19.8 251.9 19.8 C 252.5 19.8 252.8 21.0 253.5 21.0 C 254.2 21.0 254.5 20.1 255.1 20.1 C 255.8 20.1 256.1 20.9 256.8 20.9 C 257.4 20.9 257.7 17.8 258.4 17.8 C 259.1 17.8 259.4 20.0 260.0 20.0 C 260.7 20.0 261.0 17.0 261.7 15.8 C 262.3 14.7 262.7 14.4 263.3 14.4 C 264.0 14.4 264.3 16.9 264.9 16.9 C 265.6 16.9 265.9 16.9 266.6 16.5 C 267.2 16.2 267.6 16.4 268.2 15.0 C 268.9 13.6 269.2 11.5 269.9 9.7 C 270.5 7.9 270.8 6.0 271.5 6.0 C 272.1 6.0 272.5 9.7 273.1 9.7 C 273.8 9.7 274.1 8.2 274.8 8.2 C 275.4 8.2 275.7 8.6 276.4 8.6 C 277.1 8.6 277.4 6.9 278.0 6.9 C 278.7 6.9 279.0 10.5 279.7 10.5 C 280.3 10.5 280.7 9.0 281.3 9.0 C 282.0 9.0 282.3 9.3 282.9 9.9 C 283.6 10.5 283.9 12.0 284.6 12.0 C 285.2 12.0 285.6 7.6 286.2 7.6 C 286.9 7.6 287.2 10.9 287.8 10.9 C 288.5 10.9 288.8 10.7 289.5 10.7 C 290.1 10.7 290.5 15.0 291.1 15.0 C 291.8 15.0 292.1 13.8 292.8 13.8 C 293.4 13.8 293.7 14.9 294.4 15.5 C 295.0 16.0 295.4 16.6 296.0 16.6 C 296.7 16.6 297.0 16.1 297.7 16.1 C 298.3 16.1 298.6 16.3 299.3 16.8 C 300.0 17.2 300.3 18.4 300.9 18.4 C 301.6 18.4 301.9 18.4 302.6 18.2 C 303.2 18.1 303.6 17.3 304.2 17.3 C 304.9 17.3 305.2 19.8 305.8 20.7 C 306.5 21.6 306.8 21.3 307.5 22.0 C 308.1 22.6 308.5 24.1 309.1 24.1 C 309.8 24.1 310.1 24.0 310.7 23.9 C 311.4 23.8 311.7 23.7 312.4 23.7 C 313.0 23.7 313.4 23.8 314.0 24.5 C 314.7 25.2 315.0 26.3 315.7 27.1 C 316.3 27.8 316.6 28.4 317.3 28.4 C 317.9 28.4 318.3 21.5 318.9 21.5 C 319.6 21.5 319.9 26.0 320.6 26.0 C 321.2 26.0 321.5 23.9 322.2 23.2 C 322.9 22.4 323.2 22.2 323.8 22.2 C 324.5 22.2 324.8 22.6 325.5 22.9 C 326.1 23.3 326.5 23.7 327.1 23.7 C 327.8 23.7 328.1 22.2 328.7 22.2 C 329.4 22.2 329.7 25.0 330.4 25.0 C 331.0 25.0 331.4 20.0 332.0 20.0 C 332.7 20.0 333.0 21.3 333.6 21.9 C 334.3 22.5 334.6 23.1 335.3 23.1 C 335.9 23.1 336.3 20.6 336.9 20.6 C 337.6 20.6 337.9 23.9 338.6 24.5 C 339.2 25.1 339.5 25.1 340.2 25.1 C 340.8 25.1 341.2 18.9 341.8 18.9 C 342.5 18.9 342.8 19.4 343.5 19.6 C 344.1 19.7 344.4 19.8 345.1 19.8 C 345.8 19.8 346.1 18.4 346.7 17.2 C 347.4 16.0 347.7 14.8 348.4 13.8 C 349.0 12.8 349.4 12.4 350.0 12.4 C 350.7 12.4 351.0 14.4 351.6 14.8 C 352.3 15.2 352.6 15.2 353.3 15.2 C 353.9 15.2 354.3 10.9 354.9 9.2 C 355.6 7.5 355.9 6.8 356.6 6.8 C 357.2 6.8 357.5 12.9 358.2 12.9 C 358.8 12.9 359.2 12.3 359.8 12.1 C 360.5 11.9 360.8 12.1 361.5 11.8 C 362.1 11.5 362.4 5.5 363.1 5.5 C 363.7 5.5 364.1 6.8 364.7 8.0 C 365.4 9.1 365.7 11.3 366.4 11.3 C 367.0 11.3 367.3 7.0 368.0 5.5 C 368.7 4.0 369.0 3.7 369.6 3.7 C 370.3 3.7 370.6 7.1 371.3 8.6 C 371.9 10.1 372.3 11.1 372.9 11.1 C 373.6 11.1 373.9 9.3 374.5 9.3 C 375.2 9.3 375.5 10.5 376.2 11.2 C 376.8 11.9 377.2 12.9 377.8 13.0 C 378.5 13.1 378.8 13.0 379.5 13.1 C 380.1 13.2 380.4 14.7 381.1 14.7 C 381.7 14.7 382.1 14.3 382.7 14.3 C 383.4 14.3 383.7 17.8 384.4 17.8 C 385.0 17.8 385.3 15.7 386.0 15.7 C 386.6 15.7 387.0 17.9 387.6 17.9 C 388.3 17.9 388.6 17.9 389.3 17.9 C 389.9 17.9 390.2 24.8 390.9 24.8 C 391.6 24.8 391.9 21.0 392.5 21.0 C 393.2 21.0 393.5 22.5 394.2 23.2 C 394.8 23.8 395.2 24.3 395.8 24.3 C 396.5 24.3 396.8 23.0 397.4 23.0 C 398.1 23.0 398.4 26.5 399.1 26.5 C 399.7 26.5 400.1 26.5 400.7 26.3 C 401.4 26.0 401.7 22.7 402.4 22.7 C 403.0 22.7 403.3 23.7 404.0 24.3 C 404.6 24.9 405.0 25.7 405.6 25.7 C 406.3 25.7 406.6 23.5 407.3 23.0 C 407.9 22.6 408.2 22.6 408.9 22.6 C 409.6 22.6 409.9 22.6 410.5 23.4 C 411.2 24.2 411.5 25.7 412.2 26.6 C 412.8 27.5 413.1 27.9 413.8 27.9 C 414.5 27.9 414.8 27.9 415.4 27.7 C 416.1 27.5 416.4 22.6 417.1 22.6 C 417.7 22.6 418.1 23.3 418.7 23.3 C 419.4 23.3 419.7 21.0 420.3 21.0 C 421.0 21.0 421.3 21.0 422.0 21.2 C 422.6 21.3 423.0 21.4 423.6 21.7 C 424.3 22.1 424.6 22.8 425.3 22.8 C 425.9 22.8 426.2 21.0 426.9 20.0 C 427.5 18.9 427.9 18.2 428.5 17.5 C 429.2 16.9 429.5 17.4 430.2 16.9 C 430.8 16.4 431.1 15.7 431.8 15.0 C 432.5 14.3 432.8 13.5 433.4 13.5 C 434.1 13.5 434.4 16.8 435.1 16.8 C 435.7 16.8 436.0 14.3 436.7 13.4 C 437.4 12.6 437.7 12.4 438.3 12.4 C 439.0 12.4 439.3 13.0 440.0 13.0 C 440.6 13.0 441.0 13.0 441.6 12.9 C 442.3 12.8 442.6 12.8 443.2 12.6 C 443.9 12.5 444.2 12.6 444.9 12.1 C 445.5 11.6 445.9 10.7 446.5 8.9 C 447.2 7.2 447.5 3.3 448.2 3.3 C 448.8 3.3 449.1 9.7 449.8 9.7 C 450.4 9.7 450.8 7.9 451.4 7.9 C 452.1 7.9 452.4 9.5 453.1 10.2 C 453.7 10.9 454.0 11.4 454.7 11.4 C 455.4 11.4 455.7 7.5 456.3 7.5 C 457.0 7.5 457.3 11.5 458.0 11.5 C 458.6 11.5 459.0 10.4 459.6 10.4 C 460.3 10.4 460.6 11.4 461.2 11.8 C 461.9 12.3 462.2 12.2 462.9 12.4 C 463.5 12.7 463.9 12.8 464.5 13.1 C 465.2 13.4 465.5 13.3 466.1 14.0 C 466.8 14.8 467.1 15.6 467.8 17.0 C 468.4 18.4 468.8 21.0 469.4 21.0 C 470.1 21.0 470.4 20.8 471.1 20.8 C 471.7 20.8 472.0 21.3 472.7 21.3 C 473.3 21.3 473.7 20.0 474.3 20.0 C 475.0 20.0 475.3 21.8 476.0 22.5 C 476.6 23.1 476.9 22.7 477.6 23.3 C 478.3 23.9 478.6 25.5 479.2 25.5 C 479.9 25.5 480.2 19.9 480.9 19.9 C 481.5 19.9 481.9 20.4 482.5 21.1 C 483.2 21.8 483.5 23.2 484.1 23.3 C 484.8 23.5 485.1 23.3 485.8 23.5 C 486.4 23.6 486.8 29.5 487.4 29.7 C 488.1 30.0 488.4 29.7 489.0 30.0 C 489.7 30.2 490.0 31.1 490.7 32.4 C 491.3 33.7 491.7 36.6 492.3 36.6 C 493.0 36.6 493.3 32.2 494.0 30.6 C 494.6 28.9 494.9 28.2 495.6 28.2 C 496.2 28.2 496.6 28.2 497.2 28.2 C 497.9 28.2 498.2 30.7 498.9 30.7 C 499.5 30.7 499.8 28.8 500.5 28.8 C 501.2 28.8 501.5 30.0 502.1 30.0 C 502.8 30.0 503.1 29.7 503.8 29.2 C 504.4 28.6 504.8 28.8 505.4 27.3 C 506.1 25.7 506.4 22.1 507.0 21.5 C 507.7 20.8 508.0 20.8 508.7 20.8 C 509.3 20.8 509.7 20.8 510.3 20.8 C 511.0 20.8 511.9 20.7 511.9 20.7" stroke="#4572A7" stroke-width="1"  stroke-linejoin="round" stroke-linecap="round"></path></g><g class="highcharts-markers" visibility="visible"  transform="translate(24,331) scale(1 1)" clip-path="url(#highcharts-4)"></g></g><g class="highcharts-navigator" ><rect fill="rgb(128,179,236)" fill-opacity="0.3" style="cursor:ew-resize ;" x="494" y="331" width="42" height="40"></rect><path fill="none" stroke="#b2b1b6" stroke-width="1" d="M 10 331.5 L 493.5 331.5 493.5 385.5 L 535.5 385.5 L 535.5 331.5 550 331.5 M 494.5 331.5 L 535.5 331.5"></path></g><g class="highcharts-navigator-handle-right" style="cursor:ew-resize;"  transform="translate(536,343)"><rect x="-4.5" y="0.5" width="8" height="15" strokeWidth="1" fill="#ebe7e8" stroke="#b2b1b6" stroke-width="1"></rect><path fill="#ebe7e8" d="M -1.5 4 L -1.5 12 M 0.5 4 L 0.5 12" stroke="#b2b1b6" stroke-width="1"></path></g><text x="292" text-anchor="middle" class="highcharts-title"  style="color:black;font-size:16px;font-weight:bold;fill:black;width:520px;" y="22"><tspan>Hourly temperatures in Vik i Sogn, Norway, 2004-2010</tspan></text><g class="highcharts-navigator-handle-left" style="cursor:ew-resize;"  transform="translate(494,343)"><rect x="-4.5" y="0.5" width="8" height="15" strokeWidth="1" fill="#ebe7e8" stroke="#b2b1b6" stroke-width="1"></rect><path fill="#ebe7e8" d="M -1.5 4 L -1.5 12 M 0.5 4 L 0.5 12" stroke="#b2b1b6" stroke-width="1"></path></g><text x="292" text-anchor="middle" class="highcharts-subtitle"  style="color:black;fill:black;width:520px;" y="43"><tspan>Built chart in 212ms</tspan></text><g class="highcharts-axis-labels highcharts-xaxis-labels" ><text x="97.8" style="color:#6e6e70;cursor:default;font-size:11px;fill:#6e6e70;width:103px;text-overflow:clip;" text-anchor="middle" transform="translate(0,0)" y="304" opacity="1"><tspan>Nov '09</tspan></text><text x="187.8" style="color:#6e6e70;cursor:default;font-size:11px;fill:#6e6e70;width:103px;text-overflow:clip;" text-anchor="middle" transform="translate(0,0)" y="304" opacity="1"><tspan>Dec '09</tspan></text><text x="280.8" style="color:#6e6e70;cursor:default;font-size:11px;fill:#6e6e70;width:103px;text-overflow:clip;" text-anchor="middle" transform="translate(0,0)" y="304" opacity="1"><tspan>Jan '10</tspan></text><text x="373.8" style="color:#6e6e70;cursor:default;font-size:11px;fill:#6e6e70;width:103px;text-overflow:clip;" text-anchor="middle" transform="translate(0,0)" y="304" opacity="1"><tspan>Feb '10</tspan></text><text x="457.8" style="color:#6e6e70;cursor:default;font-size:11px;fill:#6e6e70;width:103px;text-overflow:clip;" text-anchor="middle" transform="translate(0,0)" y="304" opacity="1"><tspan>Mar '10</tspan></text></g><g class="highcharts-axis-labels highcharts-xaxis-labels" ><text x="176.3" style="color:#888;cursor:default;font-size:11px;fill:#888;width:178px;text-overflow:clip;" text-anchor="start" transform="translate(0,0)" y="367" opacity="1">2006</text><text x="346.9" style="color:#888;cursor:default;font-size:11px;fill:#888;width:178px;text-overflow:clip;" text-anchor="start" transform="translate(0,0)" y="367" opacity="1">2008</text><text x="517.7" style="color:#888;cursor:default;font-size:11px;fill:#888;width:178px;text-overflow:clip;" text-anchor="start" transform="translate(0,0)" y="367" opacity="1">2010</text></g><g class="highcharts-axis-labels highcharts-yaxis-labels" ><text x="550" style="color:#6e6e70;cursor:default;font-size:11px;fill:#6e6e70;width:183px;text-overflow:clip;" text-anchor="end" transform="translate(0,0)" y="283" opacity="1">-20</text><text x="550" style="color:#6e6e70;cursor:default;font-size:11px;fill:#6e6e70;width:183px;text-overflow:clip;" text-anchor="end" transform="translate(0,0)" y="219" opacity="1">-10</text><text x="550" style="color:#6e6e70;cursor:default;font-size:11px;fill:#6e6e70;width:183px;text-overflow:clip;" text-anchor="end" transform="translate(0,0)" y="155" opacity="1">0</text><text x="0" style="color:#6e6e70;cursor:default;font-size:11px;fill:#6e6e70;width:183px;text-overflow:clip;" text-anchor="end" transform="translate(0,0)" y="-9999">10</text></g><g class="highcharts-axis-labels highcharts-yaxis-labels" ></g><g class="highcharts-tooltip"  style="cursor:default;padding:0;white-space:nowrap;" transform="translate(0,-9999)"><path fill="none" d="M 3 0 L 13 0 C 16 0 16 0 16 3 L 16 13 C 16 16 16 16 13 16 L 3 16 C 0 16 0 16 0 13 L 0 3 C 0 0 0 0 3 0"  stroke="black" stroke-opacity="0.0" stroke-width="5" transform="translate(1, 1)"></path><path fill="none" d="M 3 0 L 13 0 C 16 0 16 0 16 3 L 16 13 C 16 16 16 16 13 16 L 3 16 C 0 16 0 16 0 13 L 0 3 C 0 0 0 0 3 0"  stroke="black" stroke-opacity="0.0" stroke-width="3" transform="translate(1, 1)"></path><path fill="none" d="M 3 0 L 13 0 C 16 0 16 0 16 3 L 16 13 C 16 16 16 16 13 16 L 3 16 C 0 16 0 16 0 13 L 0 3 C 0 0 0 0 3 0"  stroke="black" stroke-opacity="0.1" stroke-width="1" transform="translate(1, 1)"></path><path fill="rgb(249, 249, 249)" fill-opacity=" .85" d="M 3 0 L 13 0 C 16 0 16 0 16 3 L 16 13 C 16 16 16 16 13 16 L 3 16 C 0 16 0 16 0 13 L 0 3 C 0 0 0 0 3 0"></path><text x="8"  style="font-size:12px;color:#333333;fill:#333333;" transform="translate(0,20)"></text></g></svg>