<svg version="1.1" style="font-family: signika, serif; font-size: 12px; background-image: url(http://www.highcharts.com/samples/graphics/sand.png); background-attachment: initial; background-origin: initial; background-clip: initial; background-color: initial; background-position: initial initial; background-repeat: initial initial; " xmlns="http://www.w3.org/2000/svg" width="584" height="400" viewBox="0 0 584 400" xmlns:xlink="http://www.w3.org/1999/xlink"><style type="text/css"><![CDATA[@import url(http://fonts.googleapis.com/css?family=Signika:700);]]></style><desc>Created with Highstock 2.1.4</desc><defs><clipPath id="highcharts-1"><rect x="0" y="0" width="564" height="206"></rect></clipPath><clipPath id="highcharts-2"><rect x="-99" y="-79" width="663" height="400"></rect></clipPath><clipPath id="highcharts-3"><rect x="0" y="0" width="564" height="206"></rect></clipPath><clipPath id="highcharts-4"><rect x="-99" y="-79" width="663" height="400"></rect></clipPath><clipPath id="highcharts-5"><rect x="0" y="0" width="564" height="40"></rect></clipPath></defs><g class="highcharts-scrollbar" transform="translate(10,372)"><rect x="0" y="-0.5" fill="#eeeeee" stroke="#C0C0C8" stroke-width="1" rx="0" ry="0" height="14" width="564"></rect><rect y="-0.5" height="14" fill="#bfc8d1" stroke="#bfc8d1" stroke-width="1" rx="0" ry="0" x="517.5" width="32"></rect><path fill="none" stroke="#666" stroke-width="1" visibility="visible" d="M 530 3.5 L 530 9.3 M 533 3.5 L 533 9.3 M 536 3.5 L 536 9.3"></path><g><rect x="-0.5" y="-0.5" width="14" height="14" strokeWidth="1" stroke="#bbb" stroke-width="1" fill="#ebe7e8"></rect><path fill="#666" d="M 8 4 L 8 10 5 7"></path></g><g transform="translate(550,0)"><rect x="-0.5" y="-0.5" width="14" height="14" strokeWidth="1" stroke="#bbb" stroke-width="1" fill="#ebe7e8"></rect><path fill="#666" d="M 6 4 L 6 10 9 7"></path></g></g><g class="highcharts-range-selector-buttons"><text x="10" y="59" style="color:#666;fill:#666;">Zoom</text><g class="highcharts-button"  states="[object Object]" style="cursor:pointer;text-align:center;" transform="translate(46,44)"><rect x="0.5" y="0.5" width="32" height="22" strokeWidth="1" fill="#D0D0D8" stroke="#68A" stroke-width="1" rx="0" ry="0"></rect><text x="8"  style="font-weight:bold;color:black;fill:black;" transform="translate(0,14)">1M</text></g><g class="highcharts-button"  states="[object Object]" style="cursor:pointer;text-align:center;" transform="translate(83,44)"><rect x="0.5" y="0.5" width="32" height="22" strokeWidth="1" fill="white" stroke="#C0C0C8" stroke-width="1" rx="0" ry="0"></rect><text x="8"  style="font-weight:normal;color:#444;fill:#444;" transform="translate(0,14)">5M</text></g><g class="highcharts-button"  states="[object Object]" style="cursor:pointer;text-align:center;" transform="translate(120,44)"><rect x="0.5" y="0.5" width="32" height="22" strokeWidth="1" fill="white" stroke="#C0C0C8" stroke-width="1" rx="0" ry="0"></rect><text x="10"  style="font-weight:normal;color:#444;fill:#444;" transform="translate(0,14)">All</text></g></g><g class="highcharts-grid" ></g><g class="highcharts-grid" ><path fill="none" d="M 76.5 331 L 76.5 371" stroke="#D0D0D8" stroke-width="1"  opacity="1"></path><path fill="none" d="M 236.5 331 L 236.5 371" stroke="#D0D0D8" stroke-width="1"  opacity="1"></path><path fill="none" d="M 397.5 331 L 397.5 371" stroke="#D0D0D8" stroke-width="1"  opacity="1"></path><path fill="none" d="M 558.5 331 L 558.5 371" stroke="#D0D0D8" stroke-width="1"  opacity="1"></path></g><g class="highcharts-grid" ><path fill="none" d="M 10 285.5 L 574 285.5" stroke="#D8D8D8" stroke-width="1"  opacity="1"></path><path fill="none" d="M 10 251.5 L 574 251.5" stroke="#D8D8D8" stroke-width="1"  opacity="1"></path><path fill="none" d="M 10 216.5 L 574 216.5" stroke="#D8D8D8" stroke-width="1"  opacity="1"></path><path fill="none" d="M 10 182.5 L 574 182.5" stroke="#D8D8D8" stroke-width="1"  opacity="1"></path><path fill="none" d="M 10 148.5 L 574 148.5" stroke="#D8D8D8" stroke-width="1"  opacity="1"></path><path fill="none" d="M 10 113.5 L 574 113.5" stroke="#D8D8D8" stroke-width="1"  opacity="1"></path><path fill="none" d="M 10 78.5 L 574 78.5" stroke="#D8D8D8" stroke-width="1"  opacity="1"></path></g><g class="highcharts-grid" ></g><g class="highcharts-axis" ><path fill="none" d="M 94.5 285 L 94.5 295" stroke="#C0D0E0" stroke-width="1" opacity="1"></path><path fill="none" d="M 188.5 285 L 188.5 295" stroke="#C0D0E0" stroke-width="1" opacity="1"></path><path fill="none" d="M 282.5 285 L 282.5 295" stroke="#C0D0E0" stroke-width="1" opacity="1"></path><path fill="none" d="M 376.5 285 L 376.5 295" stroke="#C0D0E0" stroke-width="1" opacity="1"></path><path fill="none" d="M 470.5 285 L 470.5 295" stroke="#C0D0E0" stroke-width="1" opacity="1"></path><path fill="none" d="M 564.5 285 L 564.5 295" stroke="#C0D0E0" stroke-width="1" opacity="1"></path><path fill="none" d="M 10 285.5 L 574 285.5" stroke="#C0D0E0" stroke-width="1"  visibility="visible"></path></g><g class="highcharts-axis" ></g><g class="highcharts-axis" ></g><g class="highcharts-axis" ></g><g class="highcharts-series-group" ><g class="highcharts-series" visibility="visible"  transform="translate(10,79) scale(1 1)" clip-path="url(#highcharts-3)"><path fill="none" d="M -9.4 45.3 L 0 104.3 L 9.4 39.8 L 18.8 157.9 L 28.2 111.2 L 37.6 166.1 L 47 85.1 L 56.4 92.0 L 65.8 63.1 L 75.2 140.0 L 84.6 168.9 L 94 122.2 L 103.4 71.4 L 112.8 170.2 L 122.2 149.6 L 131.6 101.6 L 141 135.9 L 150.4 142.8 L 159.8 142.8 L 169.2 142.8 L 178.6 166.1 L 188 127.7 L 197.4 41.2 L 206.8 37.0 L 216.2 107.1 L 225.6 120.8 L 235 160.6 L 244.4 141.4 L 253.8 120.8 L 263.2 163.4 L 272.6 71.4 L 282 140.0 L 291.4 171.6 L 300.8 48.0 L 310.2 54.9 L 319.6 42.5 L 329 113.9 L 338.4 163.4 L 347.8 45.3 L 357.2 87.8 L 366.6 35.7 L 376 126.3 L 385.4 164.8 L 394.8 54.9 L 404.2 92.0 L 413.6 37.0 L 423 97.5 L 432.4 45.3 L 441.8 81.0 L 451.2 61.8 L 460.6 43.9 L 470 48.0 L 479.4 50.8 L 488.8 70.0 L 498.2 108.4 L 507.6 65.9 L 517 159.3 L 526.4 53.5 L 535.8 157.9 L 545.2 115.3 L 554.6 74.1 L 564 138.7" stroke="black" stroke-width="5"  stroke-linejoin="round" stroke-linecap="round"  stroke-opacity="0.0" transform="translate(1, 1)"></path><path fill="none" d="M -9.4 45.3 L 0 104.3 L 9.4 39.8 L 18.8 157.9 L 28.2 111.2 L 37.6 166.1 L 47 85.1 L 56.4 92.0 L 65.8 63.1 L 75.2 140.0 L 84.6 168.9 L 94 122.2 L 103.4 71.4 L 112.8 170.2 L 122.2 149.6 L 131.6 101.6 L 141 135.9 L 150.4 142.8 L 159.8 142.8 L 169.2 142.8 L 178.6 166.1 L 188 127.7 L 197.4 41.2 L 206.8 37.0 L 216.2 107.1 L 225.6 120.8 L 235 160.6 L 244.4 141.4 L 253.8 120.8 L 263.2 163.4 L 272.6 71.4 L 282 140.0 L 291.4 171.6 L 300.8 48.0 L 310.2 54.9 L 319.6 42.5 L 329 113.9 L 338.4 163.4 L 347.8 45.3 L 357.2 87.8 L 366.6 35.7 L 376 126.3 L 385.4 164.8 L 394.8 54.9 L 404.2 92.0 L 413.6 37.0 L 423 97.5 L 432.4 45.3 L 441.8 81.0 L 451.2 61.8 L 460.6 43.9 L 470 48.0 L 479.4 50.8 L 488.8 70.0 L 498.2 108.4 L 507.6 65.9 L 517 159.3 L 526.4 53.5 L 535.8 157.9 L 545.2 115.3 L 554.6 74.1 L 564 138.7" stroke="black" stroke-width="3"  stroke-linejoin="round" stroke-linecap="round"  stroke-opacity="0.0" transform="translate(1, 1)"></path><path fill="none" d="M -9.4 45.3 L 0 104.3 L 9.4 39.8 L 18.8 157.9 L 28.2 111.2 L 37.6 166.1 L 47 85.1 L 56.4 92.0 L 65.8 63.1 L 75.2 140.0 L 84.6 168.9 L 94 122.2 L 103.4 71.4 L 112.8 170.2 L 122.2 149.6 L 131.6 101.6 L 141 135.9 L 150.4 142.8 L 159.8 142.8 L 169.2 142.8 L 178.6 166.1 L 188 127.7 L 197.4 41.2 L 206.8 37.0 L 216.2 107.1 L 225.6 120.8 L 235 160.6 L 244.4 141.4 L 253.8 120.8 L 263.2 163.4 L 272.6 71.4 L 282 140.0 L 291.4 171.6 L 300.8 48.0 L 310.2 54.9 L 319.6 42.5 L 329 113.9 L 338.4 163.4 L 347.8 45.3 L 357.2 87.8 L 366.6 35.7 L 376 126.3 L 385.4 164.8 L 394.8 54.9 L 404.2 92.0 L 413.6 37.0 L 423 97.5 L 432.4 45.3 L 441.8 81.0 L 451.2 61.8 L 460.6 43.9 L 470 48.0 L 479.4 50.8 L 488.8 70.0 L 498.2 108.4 L 507.6 65.9 L 517 159.3 L 526.4 53.5 L 535.8 157.9 L 545.2 115.3 L 554.6 74.1 L 564 138.7" stroke="black" stroke-width="1"  stroke-linejoin="round" stroke-linecap="round"  stroke-opacity="0.1" transform="translate(1, 1)"></path><path fill="none" d="M -9.4 45.3 L 0 104.3 L 9.4 39.8 L 18.8 157.9 L 28.2 111.2 L 37.6 166.1 L 47 85.1 L 56.4 92.0 L 65.8 63.1 L 75.2 140.0 L 84.6 168.9 L 94 122.2 L 103.4 71.4 L 112.8 170.2 L 122.2 149.6 L 131.6 101.6 L 141 135.9 L 150.4 142.8 L 159.8 142.8 L 169.2 142.8 L 178.6 166.1 L 188 127.7 L 197.4 41.2 L 206.8 37.0 L 216.2 107.1 L 225.6 120.8 L 235 160.6 L 244.4 141.4 L 253.8 120.8 L 263.2 163.4 L 272.6 71.4 L 282 140.0 L 291.4 171.6 L 300.8 48.0 L 310.2 54.9 L 319.6 42.5 L 329 113.9 L 338.4 163.4 L 347.8 45.3 L 357.2 87.8 L 366.6 35.7 L 376 126.3 L 385.4 164.8 L 394.8 54.9 L 404.2 92.0 L 413.6 37.0 L 423 97.5 L 432.4 45.3 L 441.8 81.0 L 451.2 61.8 L 460.6 43.9 L 470 48.0 L 479.4 50.8 L 488.8 70.0 L 498.2 108.4 L 507.6 65.9 L 517 159.3 L 526.4 53.5 L 535.8 157.9 L 545.2 115.3 L 554.6 74.1 L 564 138.7" stroke="#f45b5b" stroke-width="2"  stroke-linejoin="round" stroke-linecap="round"></path><path fill="none" d="M -19.4 45.3 L -9.4 45.3 L 0 104.3 L 9.4 39.8 L 18.8 157.9 L 28.2 111.2 L 37.6 166.1 L 47 85.1 L 56.4 92.0 L 65.8 63.1 L 75.2 140.0 L 84.6 168.9 L 94 122.2 L 103.4 71.4 L 112.8 170.2 L 122.2 149.6 L 131.6 101.6 L 141 135.9 L 150.4 142.8 L 159.8 142.8 L 169.2 142.8 L 178.6 166.1 L 188 127.7 L 197.4 41.2 L 206.8 37.0 L 216.2 107.1 L 225.6 120.8 L 235 160.6 L 244.4 141.4 L 253.8 120.8 L 263.2 163.4 L 272.6 71.4 L 282 140.0 L 291.4 171.6 L 300.8 48.0 L 310.2 54.9 L 319.6 42.5 L 329 113.9 L 338.4 163.4 L 347.8 45.3 L 357.2 87.8 L 366.6 35.7 L 376 126.3 L 385.4 164.8 L 394.8 54.9 L 404.2 92.0 L 413.6 37.0 L 423 97.5 L 432.4 45.3 L 441.8 81.0 L 451.2 61.8 L 460.6 43.9 L 470 48.0 L 479.4 50.8 L 488.8 70.0 L 498.2 108.4 L 507.6 65.9 L 517 159.3 L 526.4 53.5 L 535.8 157.9 L 545.2 115.3 L 554.6 74.1 L 564 138.7 L 574 138.7" stroke-linejoin="round" visibility="visible" stroke="rgb(192,192,192)" stroke-opacity="0.0" stroke-width="22"  class=" highcharts-tracker" style=""></path></g><g class="highcharts-markers highcharts-tracker" visibility="visible"  transform="translate(10,79) scale(1 1)" clip-path="url(#highcharts-2)" style=""></g><g class="highcharts-series" visibility="visible"  transform="translate(24,331) scale(1 1)" clip-path="url(#highcharts-5)"><path fill="rgb(69,114,167)" fill-opacity="0.0" d="M 0 22.7 C 0 22.7 1.6 16.2 2.6 13.9 C 3.7 11.6 4.2 11.0 5.3 11.0 C 6.4 11.0 6.9 20.9 8.0 20.9 C 9.1 20.9 9.6 14.1 10.7 14.1 C 11.7 14.1 12.3 22.9 13.4 22.9 C 14.4 22.9 15.0 17.7 16.0 17.7 C 17.1 17.7 17.6 24.9 18.7 24.9 C 19.8 24.9 20.3 9.6 21.4 9.6 C 22.5 9.6 23.0 16.4 24.1 16.4 C 25.1 16.4 25.7 15.9 26.8 15.9 C 27.8 15.9 28.4 19.2 29.4 19.2 C 30.5 19.2 31.0 4.8 32.1 4.8 C 33.2 4.8 33.7 8.7 34.8 10.4 C 35.9 12.1 36.4 10.4 37.5 13.4 C 38.5 16.4 39.1 25.5 40.2 25.5 C 41.2 25.5 41.8 17.1 42.8 14.2 C 43.9 11.4 44.4 11.3 45.5 11.3 C 46.6 11.3 47.1 32.2 48.2 32.2 C 49.3 32.2 49.8 22.1 50.9 19.8 C 51.9 17.5 52.5 17.5 53.6 17.5 C 54.6 17.5 55.2 32.7 56.2 32.7 C 57.3 32.7 57.8 21.3 58.9 21.3 C 60.0 21.3 60.5 24.7 61.6 24.7 C 62.7 24.7 63.2 19.3 64.3 19.3 C 65.3 19.3 65.9 19.4 67 20.6 C 68.0 21.8 68.6 25.3 69.6 25.3 C 70.7 25.3 71.2 25.3 72.3 23.4 C 73.4 21.6 73.9 5.8 75.0 5.8 C 76.1 5.8 76.6 14.6 77.7 18.0 C 78.7 21.4 79.3 23.0 80.4 23.0 C 81.4 23.0 82.0 18.3 83.0 18.3 C 84.1 18.3 84.6 28.6 85.7 28.6 C 86.8 28.6 87.3 26.3 88.4 23.3 C 89.5 20.4 90.0 13.8 91.1 13.8 C 92.1 13.8 92.7 22.8 93.8 22.8 C 94.8 22.8 95.4 21.9 96.4 18.8 C 97.5 15.7 98.0 7.4 99.1 7.4 C 100.2 7.4 100.7 17.2 101.8 17.2 C 102.9 17.2 103.4 17.0 104.5 17.0 C 105.5 17.0 106.1 17.0 107.2 17.2 C 108.2 17.5 108.8 26.0 109.8 26.0 C 110.9 26.0 111.4 22.7 112.5 20.7 C 113.6 18.6 114.1 15.7 115.2 15.7 C 116.3 15.7 116.8 18.1 117.9 18.1 C 118.9 18.1 119.5 18.0 120.6 18.0 C 121.6 18.0 122.2 18.8 123.2 18.8 C 124.3 18.8 124.8 4.5 125.9 4.5 C 127.0 4.5 127.5 23.2 128.6 23.2 C 129.7 23.2 130.2 16.9 131.3 14.8 C 132.3 12.7 132.9 12.6 134 12.6 C 135.0 12.6 135.6 14.5 136.6 16.5 C 137.7 18.4 138.2 22.4 139.3 22.4 C 140.4 22.4 140.9 18.3 142.0 16.7 C 143.1 15.1 143.6 15.7 144.7 14.6 C 145.7 13.4 146.3 11.0 147.4 11.0 C 148.4 11.0 149.0 16.4 150.0 19.8 C 151.1 23.2 151.6 28.1 152.7 28.1 C 153.8 28.1 154.3 8.2 155.4 8.2 C 156.5 8.2 157.0 29.3 158.1 29.3 C 159.1 29.3 159.7 13.9 160.8 13.9 C 161.8 13.9 162.4 13.9 163.4 14.5 C 164.5 15.0 165.0 25.8 166.1 25.8 C 167.2 25.8 167.7 16.1 168.8 16.1 C 169.9 16.1 170.4 26.6 171.5 26.6 C 172.5 26.6 173.1 19.8 174.2 19.8 C 175.2 19.8 175.8 19.8 176.8 21.0 C 177.9 22.2 178.4 28.4 179.5 28.4 C 180.6 28.4 181.1 12.3 182.2 12.3 C 183.3 12.3 183.8 14.4 184.9 15.2 C 185.9 16.0 186.5 15.2 187.6 16.2 C 188.6 17.2 189.2 23.8 190.2 23.8 C 191.3 23.8 191.8 8.7 192.9 8.7 C 194.0 8.7 194.5 22.7 195.6 22.7 C 196.7 22.7 197.2 15.8 198.3 15.8 C 199.3 15.8 199.9 17.4 201 19.0 C 202.0 20.6 202.6 24.0 203.6 24.0 C 204.7 24.0 205.2 22.0 206.3 21.8 C 207.4 21.6 207.9 21.8 209.0 21.6 C 210.1 21.3 210.6 9.9 211.7 9.9 C 212.7 9.9 213.3 14.6 214.4 14.6 C 215.4 14.6 216.0 14.0 217.0 14.0 C 218.1 14.0 218.6 26.3 219.7 26.3 C 220.8 26.3 221.3 25.7 222.4 24.1 C 223.5 22.6 224.0 18.6 225.1 18.6 C 226.1 18.6 226.7 20.6 227.8 20.6 C 228.8 20.6 229.4 10.9 230.4 10.9 C 231.5 10.9 232.0 12.1 233.1 13.4 C 234.2 14.6 234.7 17.2 235.8 17.2 C 236.9 17.2 237.4 16.2 238.5 14.6 C 239.5 12.9 240.1 8.9 241.2 8.9 C 242.2 8.9 242.8 8.9 243.8 10.5 C 244.9 12.0 245.4 23.7 246.5 23.7 C 247.6 23.7 248.1 7.8 249.2 7.8 C 250.3 7.8 250.8 16.9 251.9 16.9 C 252.9 16.9 253.5 14.6 254.6 14.6 C 255.6 14.6 256.2 22.2 257.2 22.2 C 258.3 22.2 258.8 13.7 259.9 13.7 C 261.0 13.7 261.5 20.2 262.6 20.2 C 263.7 20.2 264.2 16.8 265.3 13.6 C 266.3 10.3 266.9 3.9 268 3.9 C 269.0 3.9 269.6 17.9 270.6 24.3 C 271.7 30.7 272.2 36.1 273.3 36.1 C 274.4 36.1 274.9 27.2 276.0 22.6 C 277.1 17.9 277.6 16.5 278.7 12.8 C 279.7 9.1 280.3 3.9 281.4 3.9 C 282.4 3.9 283.0 5.3 284.0 5.6 C 285.1 5.9 285.6 5.6 286.7 5.9 C 287.8 6.3 288.3 20.1 289.4 26.0 C 290.5 31.8 291.0 35.2 292.1 35.2 C 293.1 35.2 293.7 32.3 294.8 29.8 C 295.8 27.2 296.4 22.9 297.4 22.2 C 298.5 21.6 299.0 22.2 300.1 21.6 C 301.2 20.9 301.7 5.3 302.8 5.3 C 303.9 5.3 304.4 21.1 305.5 21.1 C 306.5 21.1 307.1 21.1 308.2 21.1 C 309.2 21.1 309.8 25.3 310.8 25.3 C 311.9 25.3 312.4 21.5 313.5 19.5 C 314.6 17.4 315.1 16.8 316.2 15.0 C 317.3 13.2 317.8 10.4 318.9 10.4 C 319.9 10.4 320.5 36.6 321.6 36.6 C 322.6 36.6 323.2 13.5 324.2 11.6 C 325.3 9.7 325.8 9.7 326.9 9.7 C 328.0 9.7 328.5 15.5 329.6 15.5 C 330.7 15.5 331.2 15.2 332.3 15.2 C 333.3 15.2 333.9 24.7 335 24.7 C 336.0 24.7 336.6 24.7 337.6 24.7 C 338.7 24.7 339.2 8.9 340.3 8.9 C 341.4 8.9 341.9 13.6 343.0 16.9 C 344.1 20.2 344.6 25.4 345.7 25.4 C 346.7 25.4 347.3 13.1 348.4 13.1 C 349.4 13.1 350.0 30.4 351.0 30.4 C 352.1 30.4 352.6 27.2 353.7 25.4 C 354.8 23.7 355.3 24.3 356.4 21.7 C 357.5 19.0 358.0 12.0 359.1 12.0 C 360.1 12.0 360.7 19.7 361.8 19.7 C 362.8 19.7 363.4 15.5 364.4 15.5 C 365.5 15.5 366.0 18.1 367.1 18.1 C 368.2 18.1 368.7 14.1 369.8 14.1 C 370.9 14.1 371.4 15.1 372.5 17.3 C 373.5 19.6 374.1 22.7 375.2 25.4 C 376.2 28.2 376.8 31.1 377.8 31.1 C 378.9 31.1 379.4 15.9 380.5 15.5 C 381.6 15.0 382.1 15.2 383.2 15.0 C 384.3 14.8 384.8 14.6 385.9 14.6 C 386.9 14.6 387.5 15.4 388.6 15.4 C 389.6 15.4 390.2 14.1 391.2 14.1 C 392.3 14.1 392.8 14.1 393.9 15.8 C 395.0 17.5 395.5 28.4 396.6 28.4 C 397.7 28.4 398.2 15.2 399.3 15.2 C 400.3 15.2 400.9 30.3 402 30.3 C 403.0 30.3 403.6 20.0 404.6 17.0 C 405.7 14.0 406.2 14.0 407.3 14.0 C 408.4 14.0 408.9 26.8 410.0 26.8 C 411.1 26.8 411.6 17.4 412.7 12.7 C 413.7 8.0 414.3 3.3 415.4 3.3 C 416.4 3.3 417.0 12.2 418.0 15.6 C 419.1 18.9 419.6 17.4 420.7 20.1 C 421.8 22.8 422.3 29.2 423.4 29.2 C 424.5 29.2 425.0 10.4 426.1 10.4 C 427.1 10.4 427.7 22.0 428.8 22.0 C 429.8 22.0 430.4 15.8 431.4 13.5 C 432.5 11.1 433.0 10.3 434.1 10.3 C 435.2 10.3 435.7 28.4 436.8 28.4 C 437.9 28.4 438.4 10.4 439.5 10.4 C 440.5 10.4 441.1 17.2 442.2 17.2 C 443.2 17.2 443.8 13.4 444.8 13.4 C 445.9 13.4 446.4 23.5 447.5 23.5 C 448.6 23.5 449.1 4.8 450.2 4.8 C 451.3 4.8 451.8 26.1 452.9 26.1 C 453.9 26.1 454.5 25.0 455.6 21.9 C 456.6 18.8 457.2 10.5 458.2 10.5 C 459.3 10.5 459.8 31.3 460.9 31.3 C 462.0 31.3 462.5 20.9 463.6 17.3 C 464.7 13.8 465.2 13.7 466.3 13.7 C 467.3 13.7 467.9 13.7 469 13.7 C 470.0 13.7 470.6 20.7 471.6 20.7 C 472.7 20.7 473.2 8.9 474.3 8.9 C 475.4 8.9 475.9 10.0 477.0 12.1 C 478.1 14.3 478.6 16.8 479.7 19.7 C 480.7 22.6 481.3 26.6 482.4 26.6 C 483.4 26.6 484.0 9.9 485.0 9.9 C 486.1 9.9 486.6 26.0 487.7 26.0 C 488.8 26.0 489.3 22.4 490.4 22.4 C 491.5 22.4 492.0 33.5 493.1 33.5 C 494.1 33.5 494.7 25.1 495.8 20.0 C 496.8 14.9 497.4 8.2 498.4 7.8 C 499.5 7.5 500.0 7.5 501.1 7.5 C 502.2 7.5 502.7 24.4 503.8 24.4 C 504.9 24.4 505.4 22.0 506.5 22.0 C 507.5 22.0 508.1 24.4 509.2 27.3 C 510.2 30.2 510.8 36.6 511.8 36.6 C 512.9 36.6 513.4 12.7 514.5 12.7 C 515.6 12.7 516.1 30.7 517.2 30.7 C 518.3 30.7 518.8 15.5 519.9 14.6 C 520.9 13.7 521.5 13.7 522.6 13.7 C 523.6 13.7 524.2 16.0 525.2 16.0 C 526.3 16.0 526.8 4.3 527.9 4.3 C 529.0 4.3 529.5 4.3 530.6 5.4 C 531.7 6.5 532.2 17.2 533.3 22.9 C 534.3 28.5 536 33.6 536 33.6 L 536 40 L 0 40" ></path><path fill="none" d="M 0 22.7 C 0 22.7 1.6 16.2 2.6 13.9 C 3.7 11.6 4.2 11.0 5.3 11.0 C 6.4 11.0 6.9 20.9 8.0 20.9 C 9.1 20.9 9.6 14.1 10.7 14.1 C 11.7 14.1 12.3 22.9 13.4 22.9 C 14.4 22.9 15.0 17.7 16.0 17.7 C 17.1 17.7 17.6 24.9 18.7 24.9 C 19.8 24.9 20.3 9.6 21.4 9.6 C 22.5 9.6 23.0 16.4 24.1 16.4 C 25.1 16.4 25.7 15.9 26.8 15.9 C 27.8 15.9 28.4 19.2 29.4 19.2 C 30.5 19.2 31.0 4.8 32.1 4.8 C 33.2 4.8 33.7 8.7 34.8 10.4 C 35.9 12.1 36.4 10.4 37.5 13.4 C 38.5 16.4 39.1 25.5 40.2 25.5 C 41.2 25.5 41.8 17.1 42.8 14.2 C 43.9 11.4 44.4 11.3 45.5 11.3 C 46.6 11.3 47.1 32.2 48.2 32.2 C 49.3 32.2 49.8 22.1 50.9 19.8 C 51.9 17.5 52.5 17.5 53.6 17.5 C 54.6 17.5 55.2 32.7 56.2 32.7 C 57.3 32.7 57.8 21.3 58.9 21.3 C 60.0 21.3 60.5 24.7 61.6 24.7 C 62.7 24.7 63.2 19.3 64.3 19.3 C 65.3 19.3 65.9 19.4 67 20.6 C 68.0 21.8 68.6 25.3 69.6 25.3 C 70.7 25.3 71.2 25.3 72.3 23.4 C 73.4 21.6 73.9 5.8 75.0 5.8 C 76.1 5.8 76.6 14.6 77.7 18.0 C 78.7 21.4 79.3 23.0 80.4 23.0 C 81.4 23.0 82.0 18.3 83.0 18.3 C 84.1 18.3 84.6 28.6 85.7 28.6 C 86.8 28.6 87.3 26.3 88.4 23.3 C 89.5 20.4 90.0 13.8 91.1 13.8 C 92.1 13.8 92.7 22.8 93.8 22.8 C 94.8 22.8 95.4 21.9 96.4 18.8 C 97.5 15.7 98.0 7.4 99.1 7.4 C 100.2 7.4 100.7 17.2 101.8 17.2 C 102.9 17.2 103.4 17.0 104.5 17.0 C 105.5 17.0 106.1 17.0 107.2 17.2 C 108.2 17.5 108.8 26.0 109.8 26.0 C 110.9 26.0 111.4 22.7 112.5 20.7 C 113.6 18.6 114.1 15.7 115.2 15.7 C 116.3 15.7 116.8 18.1 117.9 18.1 C 118.9 18.1 119.5 18.0 120.6 18.0 C 121.6 18.0 122.2 18.8 123.2 18.8 C 124.3 18.8 124.8 4.5 125.9 4.5 C 127.0 4.5 127.5 23.2 128.6 23.2 C 129.7 23.2 130.2 16.9 131.3 14.8 C 132.3 12.7 132.9 12.6 134 12.6 C 135.0 12.6 135.6 14.5 136.6 16.5 C 137.7 18.4 138.2 22.4 139.3 22.4 C 140.4 22.4 140.9 18.3 142.0 16.7 C 143.1 15.1 143.6 15.7 144.7 14.6 C 145.7 13.4 146.3 11.0 147.4 11.0 C 148.4 11.0 149.0 16.4 150.0 19.8 C 151.1 23.2 151.6 28.1 152.7 28.1 C 153.8 28.1 154.3 8.2 155.4 8.2 C 156.5 8.2 157.0 29.3 158.1 29.3 C 159.1 29.3 159.7 13.9 160.8 13.9 C 161.8 13.9 162.4 13.9 163.4 14.5 C 164.5 15.0 165.0 25.8 166.1 25.8 C 167.2 25.8 167.7 16.1 168.8 16.1 C 169.9 16.1 170.4 26.6 171.5 26.6 C 172.5 26.6 173.1 19.8 174.2 19.8 C 175.2 19.8 175.8 19.8 176.8 21.0 C 177.9 22.2 178.4 28.4 179.5 28.4 C 180.6 28.4 181.1 12.3 182.2 12.3 C 183.3 12.3 183.8 14.4 184.9 15.2 C 185.9 16.0 186.5 15.2 187.6 16.2 C 188.6 17.2 189.2 23.8 190.2 23.8 C 191.3 23.8 191.8 8.7 192.9 8.7 C 194.0 8.7 194.5 22.7 195.6 22.7 C 196.7 22.7 197.2 15.8 198.3 15.8 C 199.3 15.8 199.9 17.4 201 19.0 C 202.0 20.6 202.6 24.0 203.6 24.0 C 204.7 24.0 205.2 22.0 206.3 21.8 C 207.4 21.6 207.9 21.8 209.0 21.6 C 210.1 21.3 210.6 9.9 211.7 9.9 C 212.7 9.9 213.3 14.6 214.4 14.6 C 215.4 14.6 216.0 14.0 217.0 14.0 C 218.1 14.0 218.6 26.3 219.7 26.3 C 220.8 26.3 221.3 25.7 222.4 24.1 C 223.5 22.6 224.0 18.6 225.1 18.6 C 226.1 18.6 226.7 20.6 227.8 20.6 C 228.8 20.6 229.4 10.9 230.4 10.9 C 231.5 10.9 232.0 12.1 233.1 13.4 C 234.2 14.6 234.7 17.2 235.8 17.2 C 236.9 17.2 237.4 16.2 238.5 14.6 C 239.5 12.9 240.1 8.9 241.2 8.9 C 242.2 8.9 242.8 8.9 243.8 10.5 C 244.9 12.0 245.4 23.7 246.5 23.7 C 247.6 23.7 248.1 7.8 249.2 7.8 C 250.3 7.8 250.8 16.9 251.9 16.9 C 252.9 16.9 253.5 14.6 254.6 14.6 C 255.6 14.6 256.2 22.2 257.2 22.2 C 258.3 22.2 258.8 13.7 259.9 13.7 C 261.0 13.7 261.5 20.2 262.6 20.2 C 263.7 20.2 264.2 16.8 265.3 13.6 C 266.3 10.3 266.9 3.9 268 3.9 C 269.0 3.9 269.6 17.9 270.6 24.3 C 271.7 30.7 272.2 36.1 273.3 36.1 C 274.4 36.1 274.9 27.2 276.0 22.6 C 277.1 17.9 277.6 16.5 278.7 12.8 C 279.7 9.1 280.3 3.9 281.4 3.9 C 282.4 3.9 283.0 5.3 284.0 5.6 C 285.1 5.9 285.6 5.6 286.7 5.9 C 287.8 6.3 288.3 20.1 289.4 26.0 C 290.5 31.8 291.0 35.2 292.1 35.2 C 293.1 35.2 293.7 32.3 294.8 29.8 C 295.8 27.2 296.4 22.9 297.4 22.2 C 298.5 21.6 299.0 22.2 300.1 21.6 C 301.2 20.9 301.7 5.3 302.8 5.3 C 303.9 5.3 304.4 21.1 305.5 21.1 C 306.5 21.1 307.1 21.1 308.2 21.1 C 309.2 21.1 309.8 25.3 310.8 25.3 C 311.9 25.3 312.4 21.5 313.5 19.5 C 314.6 17.4 315.1 16.8 316.2 15.0 C 317.3 13.2 317.8 10.4 318.9 10.4 C 319.9 10.4 320.5 36.6 321.6 36.6 C 322.6 36.6 323.2 13.5 324.2 11.6 C 325.3 9.7 325.8 9.7 326.9 9.7 C 328.0 9.7 328.5 15.5 329.6 15.5 C 330.7 15.5 331.2 15.2 332.3 15.2 C 333.3 15.2 333.9 24.7 335 24.7 C 336.0 24.7 336.6 24.7 337.6 24.7 C 338.7 24.7 339.2 8.9 340.3 8.9 C 341.4 8.9 341.9 13.6 343.0 16.9 C 344.1 20.2 344.6 25.4 345.7 25.4 C 346.7 25.4 347.3 13.1 348.4 13.1 C 349.4 13.1 350.0 30.4 351.0 30.4 C 352.1 30.4 352.6 27.2 353.7 25.4 C 354.8 23.7 355.3 24.3 356.4 21.7 C 357.5 19.0 358.0 12.0 359.1 12.0 C 360.1 12.0 360.7 19.7 361.8 19.7 C 362.8 19.7 363.4 15.5 364.4 15.5 C 365.5 15.5 366.0 18.1 367.1 18.1 C 368.2 18.1 368.7 14.1 369.8 14.1 C 370.9 14.1 371.4 15.1 372.5 17.3 C 373.5 19.6 374.1 22.7 375.2 25.4 C 376.2 28.2 376.8 31.1 377.8 31.1 C 378.9 31.1 379.4 15.9 380.5 15.5 C 381.6 15.0 382.1 15.2 383.2 15.0 C 384.3 14.8 384.8 14.6 385.9 14.6 C 386.9 14.6 387.5 15.4 388.6 15.4 C 389.6 15.4 390.2 14.1 391.2 14.1 C 392.3 14.1 392.8 14.1 393.9 15.8 C 395.0 17.5 395.5 28.4 396.6 28.4 C 397.7 28.4 398.2 15.2 399.3 15.2 C 400.3 15.2 400.9 30.3 402 30.3 C 403.0 30.3 403.6 20.0 404.6 17.0 C 405.7 14.0 406.2 14.0 407.3 14.0 C 408.4 14.0 408.9 26.8 410.0 26.8 C 411.1 26.8 411.6 17.4 412.7 12.7 C 413.7 8.0 414.3 3.3 415.4 3.3 C 416.4 3.3 417.0 12.2 418.0 15.6 C 419.1 18.9 419.6 17.4 420.7 20.1 C 421.8 22.8 422.3 29.2 423.4 29.2 C 424.5 29.2 425.0 10.4 426.1 10.4 C 427.1 10.4 427.7 22.0 428.8 22.0 C 429.8 22.0 430.4 15.8 431.4 13.5 C 432.5 11.1 433.0 10.3 434.1 10.3 C 435.2 10.3 435.7 28.4 436.8 28.4 C 437.9 28.4 438.4 10.4 439.5 10.4 C 440.5 10.4 441.1 17.2 442.2 17.2 C 443.2 17.2 443.8 13.4 444.8 13.4 C 445.9 13.4 446.4 23.5 447.5 23.5 C 448.6 23.5 449.1 4.8 450.2 4.8 C 451.3 4.8 451.8 26.1 452.9 26.1 C 453.9 26.1 454.5 25.0 455.6 21.9 C 456.6 18.8 457.2 10.5 458.2 10.5 C 459.3 10.5 459.8 31.3 460.9 31.3 C 462.0 31.3 462.5 20.9 463.6 17.3 C 464.7 13.8 465.2 13.7 466.3 13.7 C 467.3 13.7 467.9 13.7 469 13.7 C 470.0 13.7 470.6 20.7 471.6 20.7 C 472.7 20.7 473.2 8.9 474.3 8.9 C 475.4 8.9 475.9 10.0 477.0 12.1 C 478.1 14.3 478.6 16.8 479.7 19.7 C 480.7 22.6 481.3 26.6 482.4 26.6 C 483.4 26.6 484.0 9.9 485.0 9.9 C 486.1 9.9 486.6 26.0 487.7 26.0 C 488.8 26.0 489.3 22.4 490.4 22.4 C 491.5 22.4 492.0 33.5 493.1 33.5 C 494.1 33.5 494.7 25.1 495.8 20.0 C 496.8 14.9 497.4 8.2 498.4 7.8 C 499.5 7.5 500.0 7.5 501.1 7.5 C 502.2 7.5 502.7 24.4 503.8 24.4 C 504.9 24.4 505.4 22.0 506.5 22.0 C 507.5 22.0 508.1 24.4 509.2 27.3 C 510.2 30.2 510.8 36.6 511.8 36.6 C 512.9 36.6 513.4 12.7 514.5 12.7 C 515.6 12.7 516.1 30.7 517.2 30.7 C 518.3 30.7 518.8 15.5 519.9 14.6 C 520.9 13.7 521.5 13.7 522.6 13.7 C 523.6 13.7 524.2 16.0 525.2 16.0 C 526.3 16.0 526.8 4.3 527.9 4.3 C 529.0 4.3 529.5 4.3 530.6 5.4 C 531.7 6.5 532.2 17.2 533.3 22.9 C 534.3 28.5 536 33.6 536 33.6" stroke="#4572A7" stroke-width="1"  stroke-linejoin="round" stroke-linecap="round"></path></g><g class="highcharts-markers" visibility="visible"  transform="translate(24,331) scale(1 1)" clip-path="url(#highcharts-4)"></g></g><g class="highcharts-navigator" ><rect fill="rgb(128,179,236)" fill-opacity="0.3" style="cursor:ew-resize ;" x="527" y="331" width="33" height="40"></rect><path fill="none" stroke="#b2b1b6" stroke-width="1" d="M 10 331.5 L 526.5 331.5 526.5 385.5 L 559.5 385.5 L 559.5 331.5 574 331.5 M 527.5 331.5 L 559.5 331.5"></path></g><g class="highcharts-navigator-handle-right" style="cursor:ew-resize;"  transform="translate(560,343)"><rect x="-4.5" y="0.5" width="8" height="15" strokeWidth="1" fill="#ebe7e8" stroke="#b2b1b6" stroke-width="1"></rect><path fill="#ebe7e8" d="M -1.5 4 L -1.5 12 M 0.5 4 L 0.5 12" stroke="#b2b1b6" stroke-width="1"></path></g><text x="292" text-anchor="middle" class="highcharts-title"  style="color:black;font-size:16px;font-weight:bold;fill:black;width:520px;" y="22"><tspan>Live random data</tspan></text><g class="highcharts-navigator-handle-left" style="cursor:ew-resize;"  transform="translate(527,343)"><rect x="-4.5" y="0.5" width="8" height="15" strokeWidth="1" fill="#ebe7e8" stroke="#b2b1b6" stroke-width="1"></rect><path fill="#ebe7e8" d="M -1.5 4 L -1.5 12 M 0.5 4 L 0.5 12" stroke="#b2b1b6" stroke-width="1"></path></g><g class="highcharts-axis-labels highcharts-xaxis-labels" ><text x="94.7" style="color:#6e6e70;cursor:default;font-size:11px;fill:#6e6e70;width:84px;text-overflow:clip;" text-anchor="middle" transform="translate(0,0)" y="304" opacity="1">13:49:10</text><text x="188.7" style="color:#6e6e70;cursor:default;font-size:11px;fill:#6e6e70;width:84px;text-overflow:clip;" text-anchor="middle" transform="translate(0,0)" y="304" opacity="1">13:49:20</text><text x="282.7" style="color:#6e6e70;cursor:default;font-size:11px;fill:#6e6e70;width:84px;text-overflow:clip;" text-anchor="middle" transform="translate(0,0)" y="304" opacity="1">13:49:30</text><text x="376.7" style="color:#6e6e70;cursor:default;font-size:11px;fill:#6e6e70;width:84px;text-overflow:clip;" text-anchor="middle" transform="translate(0,0)" y="304" opacity="1">13:49:40</text><text x="470.7" style="color:#6e6e70;cursor:default;font-size:11px;fill:#6e6e70;width:84px;text-overflow:clip;" text-anchor="middle" transform="translate(0,0)" y="304" opacity="1">13:49:50</text><text x="574" style="color:#6e6e70;cursor:default;font-size:11px;fill:#6e6e70;width:84px;text-overflow:clip;" text-anchor="end" transform="translate(0,0)" y="304" opacity="1">13:50:00</text></g><g class="highcharts-axis-labels highcharts-xaxis-labels" ><text x="79.6" style="color:#888;cursor:default;font-size:11px;fill:#888;width:131px;text-overflow:clip;" text-anchor="start" transform="translate(0,0)" y="367" opacity="1">13:35</text><text x="240.4" style="color:#888;cursor:default;font-size:11px;fill:#888;width:131px;text-overflow:clip;" text-anchor="start" transform="translate(0,0)" y="367" opacity="1">13:40</text><text x="401.2" style="color:#888;cursor:default;font-size:11px;fill:#888;width:131px;text-overflow:clip;" text-anchor="start" transform="translate(0,0)" y="367" opacity="1">13:45</text><text x="562.3" style="color:#888;cursor:default;font-size:11px;fill:#888;width:131px;text-overflow:clip;" text-anchor="start" transform="translate(0,0)" y="367" opacity="1">13:50</text></g><g class="highcharts-axis-labels highcharts-yaxis-labels" ><text x="574" style="color:#6e6e70;cursor:default;font-size:11px;fill:#6e6e70;width:183px;text-overflow:clip;" text-anchor="end" transform="translate(0,0)" y="283" opacity="1">-25</text><text x="574" style="color:#6e6e70;cursor:default;font-size:11px;fill:#6e6e70;width:183px;text-overflow:clip;" text-anchor="end" transform="translate(0,0)" y="249" opacity="1">0</text><text x="574" style="color:#6e6e70;cursor:default;font-size:11px;fill:#6e6e70;width:183px;text-overflow:clip;" text-anchor="end" transform="translate(0,0)" y="214" opacity="1">25</text><text x="574" style="color:#6e6e70;cursor:default;font-size:11px;fill:#6e6e70;width:183px;text-overflow:clip;" text-anchor="end" transform="translate(0,0)" y="180" opacity="1">50</text><text x="574" style="color:#6e6e70;cursor:default;font-size:11px;fill:#6e6e70;width:183px;text-overflow:clip;" text-anchor="end" transform="translate(0,0)" y="146" opacity="1">75</text><text x="574" style="color:#6e6e70;cursor:default;font-size:11px;fill:#6e6e70;width:183px;text-overflow:clip;" text-anchor="end" transform="translate(0,0)" y="111" opacity="1">100</text><text x="0" style="color:#6e6e70;cursor:default;font-size:11px;fill:#6e6e70;width:183px;text-overflow:clip;" text-anchor="end" transform="translate(0,0)" y="-9999">125</text></g><g class="highcharts-axis-labels highcharts-yaxis-labels" ></g><g class="highcharts-tooltip"  style="cursor:default;padding:0;white-space:nowrap;" transform="translate(0,-9999)"><path fill="none" d="M 3 0 L 13 0 C 16 0 16 0 16 3 L 16 13 C 16 16 16 16 13 16 L 3 16 C 0 16 0 16 0 13 L 0 3 C 0 0 0 0 3 0"  stroke="black" stroke-opacity="0.0" stroke-width="5" transform="translate(1, 1)"></path><path fill="none" d="M 3 0 L 13 0 C 16 0 16 0 16 3 L 16 13 C 16 16 16 16 13 16 L 3 16 C 0 16 0 16 0 13 L 0 3 C 0 0 0 0 3 0"  stroke="black" stroke-opacity="0.0" stroke-width="3" transform="translate(1, 1)"></path><path fill="none" d="M 3 0 L 13 0 C 16 0 16 0 16 3 L 16 13 C 16 16 16 16 13 16 L 3 16 C 0 16 0 16 0 13 L 0 3 C 0 0 0 0 3 0"  stroke="black" stroke-opacity="0.1" stroke-width="1" transform="translate(1, 1)"></path><path fill="rgb(249, 249, 249)" fill-opacity=" .85" d="M 3 0 L 13 0 C 16 0 16 0 16 3 L 16 13 C 16 16 16 16 13 16 L 3 16 C 0 16 0 16 0 13 L 0 3 C 0 0 0 0 3 0"></path><text x="8"  style="font-size:12px;color:#333333;fill:#333333;" transform="translate(0,20)"></text></g></svg>