<svg version="1.1" style="font-family: signika, serif; font-size: 12px; background-image: url(http://www.highcharts.com/samples/graphics/sand.png); background-attachment: initial; background-origin: initial; background-clip: initial; background-color: initial; background-position: initial initial; background-repeat: initial initial; " xmlns="http://www.w3.org/2000/svg" width="584" height="400" viewBox="0 0 584 400" xmlns:xlink="http://www.w3.org/1999/xlink"><style type="text/css"><![CDATA[@import url(http://fonts.googleapis.com/css?family=Signika:700);]]></style><desc>Created with Highstock 2.1.4</desc><defs><clipPath id="highcharts-1"><rect x="0" y="0" width="564" height="192"></rect></clipPath><clipPath id="highcharts-2"><rect x="-99" y="-93" width="663" height="400"></rect></clipPath><clipPath id="highcharts-3"><rect x="0" y="0" width="564" height="192"></rect></clipPath><linearGradient x1="0" y1="0" x2="0" y2="1" id="highcharts-4"><stop offset="0" stop-color="#f45b5b" stop-opacity="1"></stop><stop offset="1" stop-color="rgb(244,91,91)" stop-opacity="0"></stop></linearGradient><clipPath id="highcharts-5"><rect x="-99" y="-93" width="663" height="400"></rect></clipPath><clipPath id="highcharts-6"><rect x="0" y="0" width="564" height="40"></rect></clipPath></defs><g class="highcharts-scrollbar" transform="translate(10,372)"><rect x="0" y="-0.5" fill="#eeeeee" stroke="#C0C0C8" stroke-width="1" rx="0" ry="0" height="14" width="564"></rect><rect y="-0.5" height="14" fill="#bfc8d1" stroke="#bfc8d1" stroke-width="1" rx="0" ry="0" x="473.5" width="76"></rect><path fill="none" stroke="#666" stroke-width="1" visibility="visible" d="M 508 3.5 L 508 9.3 M 511 3.5 L 511 9.3 M 514 3.5 L 514 9.3"></path><g><rect x="-0.5" y="-0.5" width="14" height="14" strokeWidth="1" stroke="#bbb" stroke-width="1" fill="#ebe7e8"></rect><path fill="#666" d="M 8 4 L 8 10 5 7"></path></g><g transform="translate(550,0)"><rect x="-0.5" y="-0.5" width="14" height="14" strokeWidth="1" stroke="#bbb" stroke-width="1" fill="#ebe7e8"></rect><path fill="#666" d="M 6 4 L 6 10 9 7"></path></g></g><g class="highcharts-range-selector-buttons"><text x="10" y="73" style="color:#666;fill:#666;">Zoom</text><g class="highcharts-button"  states="[object Object]" style="cursor:pointer;text-align:center;" transform="translate(46,58)"><rect x="0.5" y="0.5" width="32" height="22" strokeWidth="1" fill="white" stroke="#C0C0C8" stroke-width="1" rx="0" ry="0"></rect><text x="9"  style="font-weight:normal;color:#444;fill:#444;" transform="translate(0,14)">1h</text></g><g class="highcharts-button"  states="[object Object]" style="cursor:pointer;text-align:center;" transform="translate(83,58)"><rect x="0.5" y="0.5" width="32" height="22" strokeWidth="1" fill="#D0D0D8" stroke="#68A" stroke-width="1" rx="0" ry="0"></rect><text x="8.5"  style="font-weight:bold;color:black;fill:black;" transform="translate(0,14)">1D</text></g><g class="highcharts-button"  states="[object Object]" style="cursor:pointer;text-align:center;" transform="translate(120,58)"><rect x="0.5" y="0.5" width="32" height="22" strokeWidth="1" fill="white" stroke="#C0C0C8" stroke-width="1" rx="0" ry="0"></rect><text x="10"  style="font-weight:normal;color:#444;fill:#444;" transform="translate(0,14)">All</text></g></g><g class="highcharts-grid" ></g><g class="highcharts-grid" ><path fill="none" d="M 253.5 331 L 253.5 371" stroke="#D0D0D8" stroke-width="1"  opacity="1"></path><path fill="none" d="M 483.5 331 L 483.5 371" stroke="#D0D0D8" stroke-width="1"  opacity="1"></path></g><g class="highcharts-grid" ><path fill="none" d="M 10 285.5 L 574 285.5" stroke="#D8D8D8" stroke-width="1"  opacity="1"></path><path fill="none" d="M 10 237.5 L 574 237.5" stroke="#D8D8D8" stroke-width="1"  opacity="1"></path><path fill="none" d="M 10 189.5 L 574 189.5" stroke="#D8D8D8" stroke-width="1"  opacity="1"></path><path fill="none" d="M 10 141.5 L 574 141.5" stroke="#D8D8D8" stroke-width="1"  opacity="1"></path><path fill="none" d="M 10 92.5 L 574 92.5" stroke="#D8D8D8" stroke-width="1"  opacity="1"></path></g><g class="highcharts-grid" ></g><g class="highcharts-axis" ><path fill="none" d="M 11.5 285 L 11.5 295" stroke="#C0D0E0" stroke-width="1" opacity="1"></path><path fill="none" d="M 82.5 285 L 82.5 295" stroke="#C0D0E0" stroke-width="1" opacity="1"></path><path fill="none" d="M 152.5 285 L 152.5 295" stroke="#C0D0E0" stroke-width="1" opacity="1"></path><path fill="none" d="M 223.5 285 L 223.5 295" stroke="#C0D0E0" stroke-width="1" opacity="1"></path><path fill="none" d="M 293.5 285 L 293.5 295" stroke="#C0D0E0" stroke-width="1" opacity="1"></path><path fill="none" d="M 364.5 285 L 364.5 295" stroke="#C0D0E0" stroke-width="1" opacity="1"></path><path fill="none" d="M 434.5 285 L 434.5 295" stroke="#C0D0E0" stroke-width="1" opacity="1"></path><path fill="none" d="M 505.5 285 L 505.5 295" stroke="#C0D0E0" stroke-width="1" opacity="1"></path><path fill="none" d="M 10 285.5 L 574 285.5" stroke="#C0D0E0" stroke-width="1"  visibility="visible"></path></g><g class="highcharts-axis" ></g><g class="highcharts-axis" ></g><g class="highcharts-axis" ></g><g class="highcharts-series-group" ><g class="highcharts-series" visibility="visible"  transform="translate(10,93) scale(1 1)" clip-path="url(#highcharts-3)"><path fill="url(#highcharts-4)" d="M -0.0 162.0 L -0.0 162.0 L -0.0 192 L -0.0 192 M 2.3 87.6 L 4.6 85.9 L 7.0 79.1 L 9.3 70.3 L 11.7 70.4 L 14.0 72.5 L 16.4 74.2 L 18.7 73.1 L 21.1 75.0 L 23.4 74.7 L 25.8 76.5 L 28.1 74.4 L 30.5 76.1 L 32.8 75.7 L 35.2 74.7 L 37.5 74.4 L 39.9 76.8 L 42.2 77.4 L 44.6 74.2 L 46.9 72.4 L 49.3 71.5 L 51.6 72.5 L 54.0 72.9 L 56.3 75.2 L 58.7 76.2 L 61.0 74.6 L 63.4 70.4 L 65.7 68.9 L 68.1 65.1 L 70.4 67.0 L 72.8 67.3 L 75.1 67.0 L 77.5 66.9 L 79.8 65.5 L 82.2 66.8 L 84.5 68.2 L 86.9 67.4 L 89.2 68.6 L 91.6 68.6 L 93.9 69.0 L 96.3 67.5 L 98.6 69.5 L 101.0 69.3 L 103.3 70.7 L 105.7 74.9 L 108.0 79.5 L 110.4 73.4 L 112.7 61.4 L 115.1 65.1 L 117.4 73.3 L 119.8 74.4 L 122.1 85.7 L 124.5 81.2 L 126.8 80.2 L 129.2 78.1 L 131.5 79.2 L 133.9 80.5 L 136.2 84.4 L 138.6 84.0 L 140.9 81.2 L 143.3 86.3 L 145.6 87.0 L 148.0 86.4 L 150.3 84.4 L 152.7 79.6 L 155.0 80.3 L 157.4 79.7 L 159.7 76.1 L 162.1 79.3 L 164.4 78.2 L 166.8 77.0 L 169.1 78.5 L 171.5 79.2 L 173.8 83.0 L 176.2 82.6 L 178.5 81.1 L 180.9 79.1 L 183.2 78.1 L 185.6 79.5 L 187.9 80.5 L 190.3 81.1 L 192.6 81.9 L 195.0 79.1 L 197.3 76.6 L 199.7 78.3 L 202.0 77.1 L 204.4 78.0 L 206.7 79.4 L 209.1 77.2 L 211.4 77.4 L 213.8 78.8 L 216.1 78.8 L 218.5 77.0 L 220.8 76.8 L 223.2 78.8 L 225.5 75.8 L 227.9 77.8 L 230.2 80.9 L 232.6 79.7 L 234.9 79.2 L 237.3 78.5 L 239.6 81.3 L 242.0 85.9 L 244.3 83.6 L 246.7 86.7 L 249.0 87.2 L 251.4 87.7 L 253.7 87.6 L 256.1 89.6 L 258.4 87.9 L 260.8 87.5 L 263.1 87.2 L 265.5 87.5 L 267.8 86.3 L 270.2 84.1 L 272.5 85.1 L 274.9 84.6 L 277.2 83.8 L 279.6 83.0 L 281.9 84.1 L 284.3 84.6 L 286.6 85.4 L 289.0 85.9 L 291.3 86.5 L 293.7 85.1 L 296.0 83.7 L 298.4 82.8 L 300.7 84.3 L 303.1 85.1 L 305.4 84.2 L 307.8 83.4 L 310.1 81.3 L 312.5 79.9 L 314.8 80.2 L 317.2 81.4 L 319.5 81.1 L 321.9 77.7 L 324.2 76.8 L 326.6 75.7 L 328.9 75.2 L 331.3 73.2 L 333.6 72.8 L 336.0 73.2 L 338.3 72.6 L 340.7 73.8 L 343.0 73.8 L 345.4 75.7 L 347.7 74.7 L 350.1 76.6 L 352.4 77.3 L 354.8 75.1 L 357.1 74.0 L 359.5 72.9 L 361.8 71.4 L 364.2 69.7 L 366.5 68.9 L 368.9 69.5 L 371.2 68.4 L 373.6 67.0 L 375.9 66.5 L 378.3 67.8 L 380.6 67.5 L 383.0 67.6 L 385.3 67.8 L 387.7 69.0 L 390.0 70.2 L 392.4 68.8 L 394.7 67.9 L 397.1 68.2 L 399.4 68.8 L 401.8 69.3 L 404.1 68.5 L 406.5 66.8 L 408.8 64.5 L 411.2 63.0 L 413.5 64.0 L 415.9 64.0 L 418.2 62.7 L 420.6 59.1 L 422.9 56.2 L 425.3 57.1 L 427.6 55.1 L 430.0 55.8 L 432.3 54.0 L 434.7 52.7 L 437.0 53.7 L 439.4 56.1 L 441.7 57.4 L 444.1 58.3 L 446.4 54.7 L 448.8 53.4 L 451.1 51.7 L 453.5 51.1 L 455.8 52.1 L 458.2 52.0 L 460.5 52.7 L 462.9 53.7 L 465.2 54.1 L 467.6 52.4 L 469.9 52.1 L 472.3 51.6 L 474.6 50.2 L 477.0 50.6 L 479.3 50.4 L 481.7 49.5 L 484.0 48.9 L 486.4 48.8 L 488.7 49.2 L 491.1 49.0 L 493.4 46.7 L 495.8 46.9 L 498.1 51.0 L 500.5 54.0 L 502.8 51.1 L 505.2 51.2 L 507.5 55.1 L 509.9 55.6 L 512.2 54.3 L 514.6 56.8 L 516.9 57.2 L 519.3 54.1 L 521.6 53.1 L 524.0 53.0 L 526.3 51.5 L 528.7 48.1 L 531.0 45.3 L 533.4 43.7 L 535.7 42.1 L 538.1 43.9 L 540.4 44.5 L 542.8 47.3 L 545.1 46.9 L 547.5 46.7 L 549.8 45.6 L 552.2 44.8 L 554.5 47.1 L 556.9 45.8 L 559.2 43.7 L 561.6 35.8 L 564 30.5 L 564 192 L 2.3 192" ></path><path fill="none" d="M 2.3 87.6 L 4.6 85.9 L 7.0 79.1 L 9.3 70.3 L 11.7 70.4 L 14.0 72.5 L 16.4 74.2 L 18.7 73.1 L 21.1 75.0 L 23.4 74.7 L 25.8 76.5 L 28.1 74.4 L 30.5 76.1 L 32.8 75.7 L 35.2 74.7 L 37.5 74.4 L 39.9 76.8 L 42.2 77.4 L 44.6 74.2 L 46.9 72.4 L 49.3 71.5 L 51.6 72.5 L 54.0 72.9 L 56.3 75.2 L 58.7 76.2 L 61.0 74.6 L 63.4 70.4 L 65.7 68.9 L 68.1 65.1 L 70.4 67.0 L 72.8 67.3 L 75.1 67.0 L 77.5 66.9 L 79.8 65.5 L 82.2 66.8 L 84.5 68.2 L 86.9 67.4 L 89.2 68.6 L 91.6 68.6 L 93.9 69.0 L 96.3 67.5 L 98.6 69.5 L 101.0 69.3 L 103.3 70.7 L 105.7 74.9 L 108.0 79.5 L 110.4 73.4 L 112.7 61.4 L 115.1 65.1 L 117.4 73.3 L 119.8 74.4 L 122.1 85.7 L 124.5 81.2 L 126.8 80.2 L 129.2 78.1 L 131.5 79.2 L 133.9 80.5 L 136.2 84.4 L 138.6 84.0 L 140.9 81.2 L 143.3 86.3 L 145.6 87.0 L 148.0 86.4 L 150.3 84.4 L 152.7 79.6 L 155.0 80.3 L 157.4 79.7 L 159.7 76.1 L 162.1 79.3 L 164.4 78.2 L 166.8 77.0 L 169.1 78.5 L 171.5 79.2 L 173.8 83.0 L 176.2 82.6 L 178.5 81.1 L 180.9 79.1 L 183.2 78.1 L 185.6 79.5 L 187.9 80.5 L 190.3 81.1 L 192.6 81.9 L 195.0 79.1 L 197.3 76.6 L 199.7 78.3 L 202.0 77.1 L 204.4 78.0 L 206.7 79.4 L 209.1 77.2 L 211.4 77.4 L 213.8 78.8 L 216.1 78.8 L 218.5 77.0 L 220.8 76.8 L 223.2 78.8 L 225.5 75.8 L 227.9 77.8 L 230.2 80.9 L 232.6 79.7 L 234.9 79.2 L 237.3 78.5 L 239.6 81.3 L 242.0 85.9 L 244.3 83.6 L 246.7 86.7 L 249.0 87.2 L 251.4 87.7 L 253.7 87.6 L 256.1 89.6 L 258.4 87.9 L 260.8 87.5 L 263.1 87.2 L 265.5 87.5 L 267.8 86.3 L 270.2 84.1 L 272.5 85.1 L 274.9 84.6 L 277.2 83.8 L 279.6 83.0 L 281.9 84.1 L 284.3 84.6 L 286.6 85.4 L 289.0 85.9 L 291.3 86.5 L 293.7 85.1 L 296.0 83.7 L 298.4 82.8 L 300.7 84.3 L 303.1 85.1 L 305.4 84.2 L 307.8 83.4 L 310.1 81.3 L 312.5 79.9 L 314.8 80.2 L 317.2 81.4 L 319.5 81.1 L 321.9 77.7 L 324.2 76.8 L 326.6 75.7 L 328.9 75.2 L 331.3 73.2 L 333.6 72.8 L 336.0 73.2 L 338.3 72.6 L 340.7 73.8 L 343.0 73.8 L 345.4 75.7 L 347.7 74.7 L 350.1 76.6 L 352.4 77.3 L 354.8 75.1 L 357.1 74.0 L 359.5 72.9 L 361.8 71.4 L 364.2 69.7 L 366.5 68.9 L 368.9 69.5 L 371.2 68.4 L 373.6 67.0 L 375.9 66.5 L 378.3 67.8 L 380.6 67.5 L 383.0 67.6 L 385.3 67.8 L 387.7 69.0 L 390.0 70.2 L 392.4 68.8 L 394.7 67.9 L 397.1 68.2 L 399.4 68.8 L 401.8 69.3 L 404.1 68.5 L 406.5 66.8 L 408.8 64.5 L 411.2 63.0 L 413.5 64.0 L 415.9 64.0 L 418.2 62.7 L 420.6 59.1 L 422.9 56.2 L 425.3 57.1 L 427.6 55.1 L 430.0 55.8 L 432.3 54.0 L 434.7 52.7 L 437.0 53.7 L 439.4 56.1 L 441.7 57.4 L 444.1 58.3 L 446.4 54.7 L 448.8 53.4 L 451.1 51.7 L 453.5 51.1 L 455.8 52.1 L 458.2 52.0 L 460.5 52.7 L 462.9 53.7 L 465.2 54.1 L 467.6 52.4 L 469.9 52.1 L 472.3 51.6 L 474.6 50.2 L 477.0 50.6 L 479.3 50.4 L 481.7 49.5 L 484.0 48.9 L 486.4 48.8 L 488.7 49.2 L 491.1 49.0 L 493.4 46.7 L 495.8 46.9 L 498.1 51.0 L 500.5 54.0 L 502.8 51.1 L 505.2 51.2 L 507.5 55.1 L 509.9 55.6 L 512.2 54.3 L 514.6 56.8 L 516.9 57.2 L 519.3 54.1 L 521.6 53.1 L 524.0 53.0 L 526.3 51.5 L 528.7 48.1 L 531.0 45.3 L 533.4 43.7 L 535.7 42.1 L 538.1 43.9 L 540.4 44.5 L 542.8 47.3 L 545.1 46.9 L 547.5 46.7 L 549.8 45.6 L 552.2 44.8 L 554.5 47.1 L 556.9 45.8 L 559.2 43.7 L 561.6 35.8 L 564 30.5" stroke="black" stroke-width="5"  stroke-linejoin="round" stroke-linecap="round"  stroke-opacity="0.0" transform="translate(1, 1)"></path><path fill="none" d="M 2.3 87.6 L 4.6 85.9 L 7.0 79.1 L 9.3 70.3 L 11.7 70.4 L 14.0 72.5 L 16.4 74.2 L 18.7 73.1 L 21.1 75.0 L 23.4 74.7 L 25.8 76.5 L 28.1 74.4 L 30.5 76.1 L 32.8 75.7 L 35.2 74.7 L 37.5 74.4 L 39.9 76.8 L 42.2 77.4 L 44.6 74.2 L 46.9 72.4 L 49.3 71.5 L 51.6 72.5 L 54.0 72.9 L 56.3 75.2 L 58.7 76.2 L 61.0 74.6 L 63.4 70.4 L 65.7 68.9 L 68.1 65.1 L 70.4 67.0 L 72.8 67.3 L 75.1 67.0 L 77.5 66.9 L 79.8 65.5 L 82.2 66.8 L 84.5 68.2 L 86.9 67.4 L 89.2 68.6 L 91.6 68.6 L 93.9 69.0 L 96.3 67.5 L 98.6 69.5 L 101.0 69.3 L 103.3 70.7 L 105.7 74.9 L 108.0 79.5 L 110.4 73.4 L 112.7 61.4 L 115.1 65.1 L 117.4 73.3 L 119.8 74.4 L 122.1 85.7 L 124.5 81.2 L 126.8 80.2 L 129.2 78.1 L 131.5 79.2 L 133.9 80.5 L 136.2 84.4 L 138.6 84.0 L 140.9 81.2 L 143.3 86.3 L 145.6 87.0 L 148.0 86.4 L 150.3 84.4 L 152.7 79.6 L 155.0 80.3 L 157.4 79.7 L 159.7 76.1 L 162.1 79.3 L 164.4 78.2 L 166.8 77.0 L 169.1 78.5 L 171.5 79.2 L 173.8 83.0 L 176.2 82.6 L 178.5 81.1 L 180.9 79.1 L 183.2 78.1 L 185.6 79.5 L 187.9 80.5 L 190.3 81.1 L 192.6 81.9 L 195.0 79.1 L 197.3 76.6 L 199.7 78.3 L 202.0 77.1 L 204.4 78.0 L 206.7 79.4 L 209.1 77.2 L 211.4 77.4 L 213.8 78.8 L 216.1 78.8 L 218.5 77.0 L 220.8 76.8 L 223.2 78.8 L 225.5 75.8 L 227.9 77.8 L 230.2 80.9 L 232.6 79.7 L 234.9 79.2 L 237.3 78.5 L 239.6 81.3 L 242.0 85.9 L 244.3 83.6 L 246.7 86.7 L 249.0 87.2 L 251.4 87.7 L 253.7 87.6 L 256.1 89.6 L 258.4 87.9 L 260.8 87.5 L 263.1 87.2 L 265.5 87.5 L 267.8 86.3 L 270.2 84.1 L 272.5 85.1 L 274.9 84.6 L 277.2 83.8 L 279.6 83.0 L 281.9 84.1 L 284.3 84.6 L 286.6 85.4 L 289.0 85.9 L 291.3 86.5 L 293.7 85.1 L 296.0 83.7 L 298.4 82.8 L 300.7 84.3 L 303.1 85.1 L 305.4 84.2 L 307.8 83.4 L 310.1 81.3 L 312.5 79.9 L 314.8 80.2 L 317.2 81.4 L 319.5 81.1 L 321.9 77.7 L 324.2 76.8 L 326.6 75.7 L 328.9 75.2 L 331.3 73.2 L 333.6 72.8 L 336.0 73.2 L 338.3 72.6 L 340.7 73.8 L 343.0 73.8 L 345.4 75.7 L 347.7 74.7 L 350.1 76.6 L 352.4 77.3 L 354.8 75.1 L 357.1 74.0 L 359.5 72.9 L 361.8 71.4 L 364.2 69.7 L 366.5 68.9 L 368.9 69.5 L 371.2 68.4 L 373.6 67.0 L 375.9 66.5 L 378.3 67.8 L 380.6 67.5 L 383.0 67.6 L 385.3 67.8 L 387.7 69.0 L 390.0 70.2 L 392.4 68.8 L 394.7 67.9 L 397.1 68.2 L 399.4 68.8 L 401.8 69.3 L 404.1 68.5 L 406.5 66.8 L 408.8 64.5 L 411.2 63.0 L 413.5 64.0 L 415.9 64.0 L 418.2 62.7 L 420.6 59.1 L 422.9 56.2 L 425.3 57.1 L 427.6 55.1 L 430.0 55.8 L 432.3 54.0 L 434.7 52.7 L 437.0 53.7 L 439.4 56.1 L 441.7 57.4 L 444.1 58.3 L 446.4 54.7 L 448.8 53.4 L 451.1 51.7 L 453.5 51.1 L 455.8 52.1 L 458.2 52.0 L 460.5 52.7 L 462.9 53.7 L 465.2 54.1 L 467.6 52.4 L 469.9 52.1 L 472.3 51.6 L 474.6 50.2 L 477.0 50.6 L 479.3 50.4 L 481.7 49.5 L 484.0 48.9 L 486.4 48.8 L 488.7 49.2 L 491.1 49.0 L 493.4 46.7 L 495.8 46.9 L 498.1 51.0 L 500.5 54.0 L 502.8 51.1 L 505.2 51.2 L 507.5 55.1 L 509.9 55.6 L 512.2 54.3 L 514.6 56.8 L 516.9 57.2 L 519.3 54.1 L 521.6 53.1 L 524.0 53.0 L 526.3 51.5 L 528.7 48.1 L 531.0 45.3 L 533.4 43.7 L 535.7 42.1 L 538.1 43.9 L 540.4 44.5 L 542.8 47.3 L 545.1 46.9 L 547.5 46.7 L 549.8 45.6 L 552.2 44.8 L 554.5 47.1 L 556.9 45.8 L 559.2 43.7 L 561.6 35.8 L 564 30.5" stroke="black" stroke-width="3"  stroke-linejoin="round" stroke-linecap="round"  stroke-opacity="0.0" transform="translate(1, 1)"></path><path fill="none" d="M 2.3 87.6 L 4.6 85.9 L 7.0 79.1 L 9.3 70.3 L 11.7 70.4 L 14.0 72.5 L 16.4 74.2 L 18.7 73.1 L 21.1 75.0 L 23.4 74.7 L 25.8 76.5 L 28.1 74.4 L 30.5 76.1 L 32.8 75.7 L 35.2 74.7 L 37.5 74.4 L 39.9 76.8 L 42.2 77.4 L 44.6 74.2 L 46.9 72.4 L 49.3 71.5 L 51.6 72.5 L 54.0 72.9 L 56.3 75.2 L 58.7 76.2 L 61.0 74.6 L 63.4 70.4 L 65.7 68.9 L 68.1 65.1 L 70.4 67.0 L 72.8 67.3 L 75.1 67.0 L 77.5 66.9 L 79.8 65.5 L 82.2 66.8 L 84.5 68.2 L 86.9 67.4 L 89.2 68.6 L 91.6 68.6 L 93.9 69.0 L 96.3 67.5 L 98.6 69.5 L 101.0 69.3 L 103.3 70.7 L 105.7 74.9 L 108.0 79.5 L 110.4 73.4 L 112.7 61.4 L 115.1 65.1 L 117.4 73.3 L 119.8 74.4 L 122.1 85.7 L 124.5 81.2 L 126.8 80.2 L 129.2 78.1 L 131.5 79.2 L 133.9 80.5 L 136.2 84.4 L 138.6 84.0 L 140.9 81.2 L 143.3 86.3 L 145.6 87.0 L 148.0 86.4 L 150.3 84.4 L 152.7 79.6 L 155.0 80.3 L 157.4 79.7 L 159.7 76.1 L 162.1 79.3 L 164.4 78.2 L 166.8 77.0 L 169.1 78.5 L 171.5 79.2 L 173.8 83.0 L 176.2 82.6 L 178.5 81.1 L 180.9 79.1 L 183.2 78.1 L 185.6 79.5 L 187.9 80.5 L 190.3 81.1 L 192.6 81.9 L 195.0 79.1 L 197.3 76.6 L 199.7 78.3 L 202.0 77.1 L 204.4 78.0 L 206.7 79.4 L 209.1 77.2 L 211.4 77.4 L 213.8 78.8 L 216.1 78.8 L 218.5 77.0 L 220.8 76.8 L 223.2 78.8 L 225.5 75.8 L 227.9 77.8 L 230.2 80.9 L 232.6 79.7 L 234.9 79.2 L 237.3 78.5 L 239.6 81.3 L 242.0 85.9 L 244.3 83.6 L 246.7 86.7 L 249.0 87.2 L 251.4 87.7 L 253.7 87.6 L 256.1 89.6 L 258.4 87.9 L 260.8 87.5 L 263.1 87.2 L 265.5 87.5 L 267.8 86.3 L 270.2 84.1 L 272.5 85.1 L 274.9 84.6 L 277.2 83.8 L 279.6 83.0 L 281.9 84.1 L 284.3 84.6 L 286.6 85.4 L 289.0 85.9 L 291.3 86.5 L 293.7 85.1 L 296.0 83.7 L 298.4 82.8 L 300.7 84.3 L 303.1 85.1 L 305.4 84.2 L 307.8 83.4 L 310.1 81.3 L 312.5 79.9 L 314.8 80.2 L 317.2 81.4 L 319.5 81.1 L 321.9 77.7 L 324.2 76.8 L 326.6 75.7 L 328.9 75.2 L 331.3 73.2 L 333.6 72.8 L 336.0 73.2 L 338.3 72.6 L 340.7 73.8 L 343.0 73.8 L 345.4 75.7 L 347.7 74.7 L 350.1 76.6 L 352.4 77.3 L 354.8 75.1 L 357.1 74.0 L 359.5 72.9 L 361.8 71.4 L 364.2 69.7 L 366.5 68.9 L 368.9 69.5 L 371.2 68.4 L 373.6 67.0 L 375.9 66.5 L 378.3 67.8 L 380.6 67.5 L 383.0 67.6 L 385.3 67.8 L 387.7 69.0 L 390.0 70.2 L 392.4 68.8 L 394.7 67.9 L 397.1 68.2 L 399.4 68.8 L 401.8 69.3 L 404.1 68.5 L 406.5 66.8 L 408.8 64.5 L 411.2 63.0 L 413.5 64.0 L 415.9 64.0 L 418.2 62.7 L 420.6 59.1 L 422.9 56.2 L 425.3 57.1 L 427.6 55.1 L 430.0 55.8 L 432.3 54.0 L 434.7 52.7 L 437.0 53.7 L 439.4 56.1 L 441.7 57.4 L 444.1 58.3 L 446.4 54.7 L 448.8 53.4 L 451.1 51.7 L 453.5 51.1 L 455.8 52.1 L 458.2 52.0 L 460.5 52.7 L 462.9 53.7 L 465.2 54.1 L 467.6 52.4 L 469.9 52.1 L 472.3 51.6 L 474.6 50.2 L 477.0 50.6 L 479.3 50.4 L 481.7 49.5 L 484.0 48.9 L 486.4 48.8 L 488.7 49.2 L 491.1 49.0 L 493.4 46.7 L 495.8 46.9 L 498.1 51.0 L 500.5 54.0 L 502.8 51.1 L 505.2 51.2 L 507.5 55.1 L 509.9 55.6 L 512.2 54.3 L 514.6 56.8 L 516.9 57.2 L 519.3 54.1 L 521.6 53.1 L 524.0 53.0 L 526.3 51.5 L 528.7 48.1 L 531.0 45.3 L 533.4 43.7 L 535.7 42.1 L 538.1 43.9 L 540.4 44.5 L 542.8 47.3 L 545.1 46.9 L 547.5 46.7 L 549.8 45.6 L 552.2 44.8 L 554.5 47.1 L 556.9 45.8 L 559.2 43.7 L 561.6 35.8 L 564 30.5" stroke="black" stroke-width="1"  stroke-linejoin="round" stroke-linecap="round"  stroke-opacity="0.1" transform="translate(1, 1)"></path><path fill="none" d="M 2.3 87.6 L 4.6 85.9 L 7.0 79.1 L 9.3 70.3 L 11.7 70.4 L 14.0 72.5 L 16.4 74.2 L 18.7 73.1 L 21.1 75.0 L 23.4 74.7 L 25.8 76.5 L 28.1 74.4 L 30.5 76.1 L 32.8 75.7 L 35.2 74.7 L 37.5 74.4 L 39.9 76.8 L 42.2 77.4 L 44.6 74.2 L 46.9 72.4 L 49.3 71.5 L 51.6 72.5 L 54.0 72.9 L 56.3 75.2 L 58.7 76.2 L 61.0 74.6 L 63.4 70.4 L 65.7 68.9 L 68.1 65.1 L 70.4 67.0 L 72.8 67.3 L 75.1 67.0 L 77.5 66.9 L 79.8 65.5 L 82.2 66.8 L 84.5 68.2 L 86.9 67.4 L 89.2 68.6 L 91.6 68.6 L 93.9 69.0 L 96.3 67.5 L 98.6 69.5 L 101.0 69.3 L 103.3 70.7 L 105.7 74.9 L 108.0 79.5 L 110.4 73.4 L 112.7 61.4 L 115.1 65.1 L 117.4 73.3 L 119.8 74.4 L 122.1 85.7 L 124.5 81.2 L 126.8 80.2 L 129.2 78.1 L 131.5 79.2 L 133.9 80.5 L 136.2 84.4 L 138.6 84.0 L 140.9 81.2 L 143.3 86.3 L 145.6 87.0 L 148.0 86.4 L 150.3 84.4 L 152.7 79.6 L 155.0 80.3 L 157.4 79.7 L 159.7 76.1 L 162.1 79.3 L 164.4 78.2 L 166.8 77.0 L 169.1 78.5 L 171.5 79.2 L 173.8 83.0 L 176.2 82.6 L 178.5 81.1 L 180.9 79.1 L 183.2 78.1 L 185.6 79.5 L 187.9 80.5 L 190.3 81.1 L 192.6 81.9 L 195.0 79.1 L 197.3 76.6 L 199.7 78.3 L 202.0 77.1 L 204.4 78.0 L 206.7 79.4 L 209.1 77.2 L 211.4 77.4 L 213.8 78.8 L 216.1 78.8 L 218.5 77.0 L 220.8 76.8 L 223.2 78.8 L 225.5 75.8 L 227.9 77.8 L 230.2 80.9 L 232.6 79.7 L 234.9 79.2 L 237.3 78.5 L 239.6 81.3 L 242.0 85.9 L 244.3 83.6 L 246.7 86.7 L 249.0 87.2 L 251.4 87.7 L 253.7 87.6 L 256.1 89.6 L 258.4 87.9 L 260.8 87.5 L 263.1 87.2 L 265.5 87.5 L 267.8 86.3 L 270.2 84.1 L 272.5 85.1 L 274.9 84.6 L 277.2 83.8 L 279.6 83.0 L 281.9 84.1 L 284.3 84.6 L 286.6 85.4 L 289.0 85.9 L 291.3 86.5 L 293.7 85.1 L 296.0 83.7 L 298.4 82.8 L 300.7 84.3 L 303.1 85.1 L 305.4 84.2 L 307.8 83.4 L 310.1 81.3 L 312.5 79.9 L 314.8 80.2 L 317.2 81.4 L 319.5 81.1 L 321.9 77.7 L 324.2 76.8 L 326.6 75.7 L 328.9 75.2 L 331.3 73.2 L 333.6 72.8 L 336.0 73.2 L 338.3 72.6 L 340.7 73.8 L 343.0 73.8 L 345.4 75.7 L 347.7 74.7 L 350.1 76.6 L 352.4 77.3 L 354.8 75.1 L 357.1 74.0 L 359.5 72.9 L 361.8 71.4 L 364.2 69.7 L 366.5 68.9 L 368.9 69.5 L 371.2 68.4 L 373.6 67.0 L 375.9 66.5 L 378.3 67.8 L 380.6 67.5 L 383.0 67.6 L 385.3 67.8 L 387.7 69.0 L 390.0 70.2 L 392.4 68.8 L 394.7 67.9 L 397.1 68.2 L 399.4 68.8 L 401.8 69.3 L 404.1 68.5 L 406.5 66.8 L 408.8 64.5 L 411.2 63.0 L 413.5 64.0 L 415.9 64.0 L 418.2 62.7 L 420.6 59.1 L 422.9 56.2 L 425.3 57.1 L 427.6 55.1 L 430.0 55.8 L 432.3 54.0 L 434.7 52.7 L 437.0 53.7 L 439.4 56.1 L 441.7 57.4 L 444.1 58.3 L 446.4 54.7 L 448.8 53.4 L 451.1 51.7 L 453.5 51.1 L 455.8 52.1 L 458.2 52.0 L 460.5 52.7 L 462.9 53.7 L 465.2 54.1 L 467.6 52.4 L 469.9 52.1 L 472.3 51.6 L 474.6 50.2 L 477.0 50.6 L 479.3 50.4 L 481.7 49.5 L 484.0 48.9 L 486.4 48.8 L 488.7 49.2 L 491.1 49.0 L 493.4 46.7 L 495.8 46.9 L 498.1 51.0 L 500.5 54.0 L 502.8 51.1 L 505.2 51.2 L 507.5 55.1 L 509.9 55.6 L 512.2 54.3 L 514.6 56.8 L 516.9 57.2 L 519.3 54.1 L 521.6 53.1 L 524.0 53.0 L 526.3 51.5 L 528.7 48.1 L 531.0 45.3 L 533.4 43.7 L 535.7 42.1 L 538.1 43.9 L 540.4 44.5 L 542.8 47.3 L 545.1 46.9 L 547.5 46.7 L 549.8 45.6 L 552.2 44.8 L 554.5 47.1 L 556.9 45.8 L 559.2 43.7 L 561.6 35.8 L 564 30.5" stroke="#f45b5b" stroke-width="2"  stroke-linejoin="round" stroke-linecap="round"></path><path fill="none" d="M -7.6 87.6 L 2.3 87.6 L 4.6 85.9 L 7.0 79.1 L 9.3 70.3 L 11.7 70.4 L 14.0 72.5 L 16.4 74.2 L 18.7 73.1 L 21.1 75.0 L 23.4 74.7 L 25.8 76.5 L 28.1 74.4 L 30.5 76.1 L 32.8 75.7 L 35.2 74.7 L 37.5 74.4 L 39.9 76.8 L 42.2 77.4 L 44.6 74.2 L 46.9 72.4 L 49.3 71.5 L 51.6 72.5 L 54.0 72.9 L 56.3 75.2 L 58.7 76.2 L 61.0 74.6 L 63.4 70.4 L 65.7 68.9 L 68.1 65.1 L 70.4 67.0 L 72.8 67.3 L 75.1 67.0 L 77.5 66.9 L 79.8 65.5 L 82.2 66.8 L 84.5 68.2 L 86.9 67.4 L 89.2 68.6 L 91.6 68.6 L 93.9 69.0 L 96.3 67.5 L 98.6 69.5 L 101.0 69.3 L 103.3 70.7 L 105.7 74.9 L 108.0 79.5 L 110.4 73.4 L 112.7 61.4 L 115.1 65.1 L 117.4 73.3 L 119.8 74.4 L 122.1 85.7 L 124.5 81.2 L 126.8 80.2 L 129.2 78.1 L 131.5 79.2 L 133.9 80.5 L 136.2 84.4 L 138.6 84.0 L 140.9 81.2 L 143.3 86.3 L 145.6 87.0 L 148.0 86.4 L 150.3 84.4 L 152.7 79.6 L 155.0 80.3 L 157.4 79.7 L 159.7 76.1 L 162.1 79.3 L 164.4 78.2 L 166.8 77.0 L 169.1 78.5 L 171.5 79.2 L 173.8 83.0 L 176.2 82.6 L 178.5 81.1 L 180.9 79.1 L 183.2 78.1 L 185.6 79.5 L 187.9 80.5 L 190.3 81.1 L 192.6 81.9 L 195.0 79.1 L 197.3 76.6 L 199.7 78.3 L 202.0 77.1 L 204.4 78.0 L 206.7 79.4 L 209.1 77.2 L 211.4 77.4 L 213.8 78.8 L 216.1 78.8 L 218.5 77.0 L 220.8 76.8 L 223.2 78.8 L 225.5 75.8 L 227.9 77.8 L 230.2 80.9 L 232.6 79.7 L 234.9 79.2 L 237.3 78.5 L 239.6 81.3 L 242.0 85.9 L 244.3 83.6 L 246.7 86.7 L 249.0 87.2 L 251.4 87.7 L 253.7 87.6 L 256.1 89.6 L 258.4 87.9 L 260.8 87.5 L 263.1 87.2 L 265.5 87.5 L 267.8 86.3 L 270.2 84.1 L 272.5 85.1 L 274.9 84.6 L 277.2 83.8 L 279.6 83.0 L 281.9 84.1 L 284.3 84.6 L 286.6 85.4 L 289.0 85.9 L 291.3 86.5 L 293.7 85.1 L 296.0 83.7 L 298.4 82.8 L 300.7 84.3 L 303.1 85.1 L 305.4 84.2 L 307.8 83.4 L 310.1 81.3 L 312.5 79.9 L 314.8 80.2 L 317.2 81.4 L 319.5 81.1 L 321.9 77.7 L 324.2 76.8 L 326.6 75.7 L 328.9 75.2 L 331.3 73.2 L 333.6 72.8 L 336.0 73.2 L 338.3 72.6 L 340.7 73.8 L 343.0 73.8 L 345.4 75.7 L 347.7 74.7 L 350.1 76.6 L 352.4 77.3 L 354.8 75.1 L 357.1 74.0 L 359.5 72.9 L 361.8 71.4 L 364.2 69.7 L 366.5 68.9 L 368.9 69.5 L 371.2 68.4 L 373.6 67.0 L 375.9 66.5 L 378.3 67.8 L 380.6 67.5 L 383.0 67.6 L 385.3 67.8 L 387.7 69.0 L 390.0 70.2 L 392.4 68.8 L 394.7 67.9 L 397.1 68.2 L 399.4 68.8 L 401.8 69.3 L 404.1 68.5 L 406.5 66.8 L 408.8 64.5 L 411.2 63.0 L 413.5 64.0 L 415.9 64.0 L 418.2 62.7 L 420.6 59.1 L 422.9 56.2 L 425.3 57.1 L 427.6 55.1 L 430.0 55.8 L 432.3 54.0 L 434.7 52.7 L 437.0 53.7 L 439.4 56.1 L 441.7 57.4 L 444.1 58.3 L 446.4 54.7 L 448.8 53.4 L 451.1 51.7 L 453.5 51.1 L 455.8 52.1 L 458.2 52.0 L 460.5 52.7 L 462.9 53.7 L 465.2 54.1 L 467.6 52.4 L 469.9 52.1 L 472.3 51.6 L 474.6 50.2 L 477.0 50.6 L 479.3 50.4 L 481.7 49.5 L 484.0 48.9 L 486.4 48.8 L 488.7 49.2 L 491.1 49.0 L 493.4 46.7 L 495.8 46.9 L 498.1 51.0 L 500.5 54.0 L 502.8 51.1 L 505.2 51.2 L 507.5 55.1 L 509.9 55.6 L 512.2 54.3 L 514.6 56.8 L 516.9 57.2 L 519.3 54.1 L 521.6 53.1 L 524.0 53.0 L 526.3 51.5 L 528.7 48.1 L 531.0 45.3 L 533.4 43.7 L 535.7 42.1 L 538.1 43.9 L 540.4 44.5 L 542.8 47.3 L 545.1 46.9 L 547.5 46.7 L 549.8 45.6 L 552.2 44.8 L 554.5 47.1 L 556.9 45.8 L 559.2 43.7 L 561.6 35.8 L 564 30.5 L 574 30.5 M -10.0 162.0 L 9.9 162.0" stroke-linejoin="round" visibility="visible" stroke="rgb(192,192,192)" stroke-opacity="0.0" stroke-width="22"  class=" highcharts-tracker" style=""></path></g><g class="highcharts-markers highcharts-tracker" visibility="visible"  transform="translate(10,93) scale(1 1)" clip-path="url(#highcharts-2)" style=""></g><g class="highcharts-series" visibility="visible"  transform="translate(24,331) scale(1 1)" clip-path="url(#highcharts-6)"><path fill="url(#highcharts-4)" d="M 0 35.0 C 0 35.0 0.9 33.6 1.6 33.5 C 2.2 33.4 2.5 33.4 3.1 33.4 C 3.8 33.4 4.1 33.4 4.8 33.3 C 5.4 33.1 5.7 32.2 6.4 32.2 C 7.0 32.2 7.3 32.5 7.9 32.5 C 8.6 32.5 8.9 32.3 9.6 32.3 C 10.2 32.3 10.5 32.9 11.1 33.1 C 11.8 33.3 12.1 33.3 12.7 33.3 C 13.4 33.3 13.7 33.0 14.4 32.7 C 15.0 32.5 15.3 32.1 15.9 32.1 C 16.6 32.1 16.9 32.6 17.5 32.6 C 18.2 32.6 18.5 32.2 19.2 31.8 C 19.8 31.5 20.1 31.4 20.7 30.8 C 21.4 30.3 21.7 29.7 22.4 29.1 C 23.0 28.4 23.3 27.7 24.0 27.7 C 24.6 27.7 24.9 27.7 25.5 27.7 C 26.2 27.7 26.5 28.3 27.2 28.5 C 27.8 28.7 28.1 28.8 28.8 28.8 C 29.4 28.8 29.7 27.8 30.3 27.8 C 31.0 27.8 31.3 28.5 32.0 28.5 C 32.6 28.5 32.9 28.1 33.5 28.1 C 34.2 28.1 34.5 28.1 35.1 28.2 C 35.8 28.4 36.1 28.8 36.8 28.8 C 37.4 28.8 37.7 28.8 38.3 28.8 C 39.0 28.8 39.3 28.8 39.9 28.7 C 40.6 28.6 40.9 28.3 41.6 28.3 C 42.2 28.3 42.5 28.3 43.1 28.4 C 43.8 28.6 44.1 29.2 44.8 29.8 C 45.4 30.4 45.7 30.9 46.4 31.4 C 47.0 31.8 47.3 32.0 47.9 32.0 C 48.6 32.0 48.9 31.6 49.6 31.6 C 50.2 31.6 50.5 32.0 51.2 32.4 C 51.8 32.8 52.1 33.0 52.7 33.5 C 53.4 33.9 53.7 34.6 54.4 34.6 C 55.0 34.6 55.3 33.9 55.9 33.5 C 56.6 33.2 56.9 33.3 57.5 33.0 C 58.2 32.7 58.5 32.1 59.2 32.0 C 59.8 32.0 60.1 32.0 60.7 32.0 C 61.4 32.0 61.7 32.5 62.3 32.8 C 63.0 33.1 63.3 33.4 64.0 33.4 C 64.6 33.4 64.9 33.4 65.5 33.3 C 66.2 33.1 66.5 32.5 67.2 32.5 C 67.8 32.5 68.1 32.5 68.8 32.5 C 69.4 32.5 69.7 33.2 70.3 33.2 C 71.0 33.2 71.3 33.0 72.0 32.8 C 72.6 32.5 72.9 32.2 73.6 32.1 C 74.2 32.0 75.1 32.0 75.1 32.0 L 75.1 40 L 0 40 M 76.8 32.6 C 76.8 32.6 77.7 32.6 78.3 32.6 C 79.0 32.6 79.3 32.6 79.9 32.4 C 80.6 32.3 80.9 31.6 81.6 31.3 C 82.2 31.0 82.5 30.9 83.1 30.9 C 83.8 30.9 84.1 31.1 84.7 31.2 C 85.4 31.3 85.7 31.4 86.4 31.5 C 87.0 31.6 87.3 31.7 87.9 31.8 C 88.6 32.0 88.9 31.9 89.6 32.1 C 90.2 32.4 90.5 32.8 91.2 33.0 C 91.8 33.2 92.1 33.2 92.7 33.2 C 93.4 33.2 93.7 32.1 94.4 32.1 C 95.0 32.1 95.3 32.6 96.0 32.6 C 96.6 32.6 96.9 32.6 97.5 32.6 C 98.2 32.6 98.5 32.7 99.2 32.7 C 99.8 32.8 100.1 32.8 100.7 33.0 C 101.4 33.2 101.7 33.5 102.3 33.8 C 103.0 34.1 103.3 34.1 104.0 34.3 C 104.6 34.5 104.9 34.5 105.5 34.8 C 106.2 35.0 106.5 35.4 107.1 35.6 C 107.8 35.9 108.1 35.8 108.8 36.0 C 109.4 36.2 109.7 36.5 110.3 36.5 C 111.0 36.5 111.3 36.5 112.0 36.5 C 112.6 36.4 112.9 36.4 113.6 36.4 C 114.2 36.4 114.5 36.4 115.1 36.4 C 115.8 36.4 116.1 36.0 116.8 36.0 C 117.4 36.0 117.7 36.6 118.3 36.6 C 119.0 36.6 119.3 36.1 119.9 36.1 C 120.6 36.1 120.9 36.3 121.6 36.3 C 122.2 36.4 122.5 36.3 123.1 36.4 C 123.8 36.4 124.1 36.4 124.7 36.4 C 125.4 36.4 125.7 36.3 126.4 36.2 C 127.0 36.2 127.3 36.0 127.9 36.0 C 128.6 36.0 128.9 36.1 129.6 36.2 C 130.2 36.2 130.5 36.4 131.2 36.4 C 131.8 36.4 132.1 36.2 132.7 35.9 C 133.4 35.6 133.7 35.1 134.4 35.1 C 135.0 35.1 135.3 35.4 136.0 35.4 C 136.6 35.4 136.9 34.9 137.5 34.9 C 138.2 34.9 138.5 35.4 139.2 35.6 C 139.8 35.8 140.1 35.9 140.7 35.9 C 141.4 35.9 141.7 35.9 142.3 35.8 C 143.0 35.8 143.3 35.7 144.0 35.6 C 144.6 35.5 144.9 35.6 145.5 35.4 C 146.2 35.2 146.5 35.0 147.1 34.8 C 147.8 34.6 148.1 34.6 148.8 34.6 C 149.4 34.6 149.7 34.7 150.3 35.1 C 151.0 35.4 152.0 36.4 152.0 36.4 L 152.0 40 L 76.8 40 M 153.6 33.3 C 153.6 33.3 154.5 33.7 155.1 33.7 C 155.8 33.7 156.1 33.7 156.8 33.5 C 157.4 33.3 157.7 32.6 158.4 32.2 C 159.0 31.8 159.3 31.9 159.9 31.6 C 160.6 31.3 160.9 31.0 161.6 30.9 C 162.2 30.7 162.5 30.7 163.1 30.7 C 163.8 30.6 164.1 30.6 164.7 30.6 C 165.4 30.6 165.7 30.6 166.4 30.5 C 167.0 30.4 167.3 30.3 167.9 30.3 C 168.6 30.3 168.9 30.4 169.5 30.4 C 170.2 30.4 170.5 30.3 171.2 29.9 C 171.8 29.5 172.1 29.0 172.7 28.5 C 173.4 28.0 173.7 27.5 174.4 27.5 C 175.0 27.5 175.3 27.5 176.0 27.5 C 176.6 27.6 176.9 27.6 177.5 27.6 C 178.2 27.7 178.5 27.8 179.2 27.9 C 179.8 28.0 180.1 28.2 180.8 28.2 C 181.4 28.2 181.7 28.2 182.3 28.2 C 183.0 28.2 183.3 28.3 184.0 28.3 C 184.6 28.3 184.9 28.1 185.5 28.0 C 186.2 27.8 186.5 27.7 187.1 27.6 C 187.8 27.5 188.1 27.4 188.8 27.3 C 189.4 27.3 189.7 27.3 190.3 27.2 C 191.0 27.2 191.3 26.9 191.9 26.9 C 192.6 26.9 192.9 27.0 193.6 27.1 C 194.2 27.1 194.5 27.1 195.1 27.1 C 195.8 27.1 196.1 27.0 196.8 27.0 C 197.4 27.0 197.7 27.0 198.4 27.0 C 199.0 27.1 199.3 27.2 199.9 27.3 C 200.6 27.4 200.9 27.4 201.6 27.4 C 202.2 27.4 202.5 27.4 203.2 27.4 C 203.8 27.4 204.1 27.0 204.7 27.0 C 205.4 27.0 205.7 27.1 206.4 27.1 C 207.0 27.1 207.3 27.1 207.9 27.1 C 208.6 27.1 208.9 27.1 209.5 27.1 C 210.2 27.2 210.5 27.1 211.2 27.2 C 211.8 27.2 212.1 27.4 212.7 27.4 C 213.4 27.4 213.7 27.3 214.3 27.1 C 215.0 26.9 215.3 26.4 216.0 26.4 C 216.6 26.4 216.9 26.5 217.5 26.6 C 218.2 26.6 218.5 26.6 219.2 26.7 C 219.8 26.7 220.1 27.1 220.8 27.1 C 221.4 27.1 221.7 27.0 222.3 27.0 C 223.0 27.0 223.3 27.1 224.0 27.1 C 224.6 27.1 224.9 27.1 225.5 26.8 C 226.2 26.6 226.5 26.5 227.1 26.1 C 227.8 25.7 228.8 24.9 228.8 24.9 L 228.8 40 L 153.6 40 M 230.3 23.1 C 230.3 23.1 231.3 22.1 231.9 22.0 C 232.6 21.9 232.9 21.9 233.6 21.9 C 234.2 21.9 234.5 22.0 235.1 22.1 C 235.8 22.3 236.1 22.4 236.8 22.5 C 237.4 22.5 237.7 22.5 238.4 22.5 C 239.0 22.5 239.3 22.5 239.9 22.6 C 240.6 22.6 240.9 22.6 241.6 22.6 C 242.2 22.6 242.5 22.6 243.2 22.5 C 243.8 22.5 244.1 21.9 244.7 21.2 C 245.4 20.6 245.7 19.9 246.4 19.4 C 247.0 18.8 247.3 18.6 247.9 18.6 C 248.6 18.6 248.9 19.0 249.5 19.0 C 250.2 19.0 250.5 18.2 251.2 17.9 C 251.8 17.6 252.1 17.5 252.7 17.4 C 253.4 17.3 253.7 17.4 254.3 17.2 C 255.0 17.1 255.3 16.7 256.0 16.7 C 256.6 16.7 256.9 17.1 257.5 17.2 C 258.2 17.3 258.5 17.3 259.2 17.4 C 259.8 17.5 260.1 17.5 260.8 17.6 C 261.4 17.7 261.7 17.8 262.3 17.8 C 263.0 17.8 263.3 17.4 264.0 17.3 C 264.6 17.2 264.9 17.1 265.6 17.0 C 266.2 16.9 266.5 16.8 267.1 16.8 C 267.8 16.8 268.1 17.0 268.8 17.0 C 269.4 17.0 269.7 16.7 270.3 16.7 C 271.0 16.7 271.3 16.8 271.9 16.8 C 272.6 16.9 272.9 16.9 273.6 17.1 C 274.2 17.3 274.5 17.7 275.1 17.9 C 275.8 18.1 276.1 18.2 276.7 18.2 C 277.4 18.2 277.7 18.1 278.4 18.1 C 279.0 18.1 279.3 18.3 279.9 18.3 C 280.6 18.3 280.9 18.3 281.6 18.1 C 282.2 17.9 282.5 17.5 283.2 17.5 C 283.8 17.5 284.1 17.5 284.7 17.5 C 285.4 17.5 285.7 17.4 286.4 17.3 C 287.0 17.1 287.3 16.9 288.0 16.9 C 288.6 16.9 288.9 16.9 289.5 16.9 C 290.2 16.9 290.5 17.1 291.2 17.1 C 291.8 17.1 292.1 17.0 292.7 17.0 C 293.4 17.0 293.7 17.2 294.3 17.2 C 295.0 17.2 295.3 16.9 296.0 16.6 C 296.6 16.3 296.9 15.8 297.5 15.6 C 298.2 15.3 298.5 15.1 299.1 15.1 C 299.8 15.1 300.1 16.0 300.8 16.3 C 301.4 16.7 301.7 16.8 302.3 16.8 C 303.0 16.8 303.3 16.6 304.0 16.5 C 304.6 16.5 305.6 16.5 305.6 16.5 L 305.6 40 L 230.3 40 M 307.1 14.6 C 307.1 14.6 308.1 14.3 308.8 14.2 C 309.4 14.1 309.7 14.0 310.4 13.9 C 311.0 13.8 311.3 13.9 311.9 13.8 C 312.6 13.7 312.9 13.5 313.6 13.3 C 314.2 13.0 314.5 12.7 315.1 12.4 C 315.8 12.2 316.1 12.2 316.7 12.0 C 317.4 11.9 317.7 11.7 318.4 11.7 C 319.0 11.7 319.3 12.1 319.9 12.1 C 320.6 12.1 320.9 11.4 321.5 11.4 C 322.2 11.4 322.5 11.5 323.2 11.5 C 323.8 11.5 324.1 11.5 324.7 11.6 C 325.4 11.7 325.7 11.8 326.4 11.8 C 327.0 11.8 327.3 11.7 328.0 11.7 C 328.6 11.7 328.9 12.9 329.5 12.9 C 330.2 12.9 330.5 12.6 331.2 12.5 C 331.8 12.3 332.1 12.3 332.7 12.3 C 333.4 12.3 333.7 12.3 334.3 12.4 C 335.0 12.4 335.3 12.5 336.0 12.5 C 336.6 12.5 336.9 12.1 337.5 12.0 C 338.2 11.9 338.5 12.0 339.1 11.9 C 339.8 11.8 340.1 11.6 340.8 11.6 C 341.4 11.6 341.7 11.6 342.3 11.7 C 343.0 11.8 343.3 11.8 344.0 12.0 C 344.6 12.1 344.9 12.2 345.6 12.4 C 346.2 12.6 346.5 12.9 347.1 12.9 C 347.8 12.9 348.1 12.6 348.8 12.6 C 349.4 12.6 349.7 12.6 350.4 12.7 C 351.0 12.8 351.3 13.0 351.9 13.0 C 352.6 13.0 352.9 12.9 353.6 12.7 C 354.2 12.6 354.5 12.4 355.1 12.4 C 355.8 12.4 356.1 12.5 356.7 12.5 C 357.4 12.5 357.7 12.2 358.4 12.2 C 359.0 12.2 359.3 12.2 359.9 12.2 C 360.6 12.2 360.9 12.2 361.5 12.2 C 362.2 12.3 362.5 12.8 363.2 12.8 C 363.8 12.8 364.1 12.7 364.7 12.7 C 365.4 12.7 365.7 12.8 366.4 13.0 C 367.0 13.2 367.3 13.7 368.0 13.7 C 368.6 13.7 368.9 13.6 369.5 13.6 C 370.2 13.6 370.5 14.2 371.2 14.6 C 371.8 15.0 372.1 15.3 372.8 15.6 C 373.4 15.9 373.7 16.0 374.3 16.0 C 375.0 16.0 375.3 15.6 376.0 15.4 C 376.6 15.2 376.9 15.1 377.5 14.9 C 378.2 14.8 378.5 14.5 379.1 14.5 C 379.8 14.5 380.1 14.8 380.8 14.9 C 381.4 15.1 382.3 15.3 382.3 15.3 L 382.3 40 L 307.1 40 M 383.9 16.0 C 383.9 16.0 384.9 16.1 385.6 16.1 C 386.2 16.1 386.5 15.3 387.1 14.9 C 387.8 14.5 388.1 14.3 388.8 14.1 C 389.4 13.8 389.7 13.5 390.4 13.5 C 391.0 13.5 391.3 13.6 391.9 13.6 C 392.6 13.6 392.9 13.6 393.6 13.5 C 394.2 13.5 394.5 13.4 395.2 13.4 C 395.8 13.4 396.1 13.5 396.7 13.6 C 397.4 13.8 397.7 14.0 398.4 14.1 C 399.0 14.2 399.3 14.2 399.9 14.2 C 400.6 14.2 400.9 14.2 401.5 14.1 C 402.2 14.1 402.5 13.8 403.2 13.6 C 403.8 13.4 404.1 13.2 404.7 13.1 C 405.4 12.9 405.7 13.0 406.3 12.9 C 407.0 12.9 407.3 12.7 408.0 12.7 C 408.6 12.7 408.9 12.9 409.5 13.1 C 410.2 13.3 410.5 13.6 411.2 13.6 C 411.8 13.6 412.1 13.6 412.8 13.6 C 413.4 13.6 413.7 13.3 414.3 13.2 C 415.0 13.1 415.3 13.2 416.0 13.1 C 416.6 13.0 416.9 12.8 417.6 12.7 C 418.2 12.5 418.5 12.6 419.1 12.5 C 419.8 12.4 420.1 12.2 420.8 12.2 C 421.4 12.2 421.7 12.3 422.3 12.3 C 423.0 12.4 423.3 12.4 423.9 12.5 C 424.6 12.6 424.9 12.7 425.6 12.8 C 426.2 12.8 426.5 12.8 427.1 12.8 C 427.8 12.8 428.1 12.6 428.7 12.6 C 429.4 12.6 429.7 12.6 430.4 12.6 C 431.0 12.6 431.3 13.1 431.9 13.1 C 432.6 13.1 432.9 13.0 433.6 13.0 C 434.2 13.0 434.5 13.5 435.2 13.5 C 435.8 13.5 436.1 13.2 436.7 13.1 C 437.4 13.1 437.7 13.1 438.4 13.1 C 439.0 13.1 439.3 13.1 439.9 13.2 C 440.6 13.2 440.9 13.3 441.5 13.4 C 442.2 13.4 442.5 13.5 443.2 13.5 C 443.8 13.5 444.1 13.4 444.7 13.3 C 445.4 13.3 445.7 13.3 446.3 13.2 C 447.0 13.1 447.3 13.2 448.0 13.0 C 448.6 12.9 448.9 12.6 449.5 12.4 C 450.2 12.2 450.5 12.2 451.2 12.1 C 451.8 11.9 452.1 11.8 452.8 11.8 C 453.4 11.8 453.7 11.9 454.3 12.0 C 455.0 12.1 455.3 12.4 456.0 12.4 C 456.6 12.4 456.9 12.3 457.6 12.2 C 458.2 12.1 459.1 11.8 459.1 11.8 L 459.1 40 L 383.9 40 M 460.8 5.9 C 460.8 5.9 461.7 5.6 462.3 5.6 C 463.0 5.6 463.3 5.7 463.9 5.7 C 464.6 5.7 464.9 5.7 465.6 5.6 C 466.2 5.6 466.5 5.6 467.1 5.5 C 467.8 5.5 468.1 5.3 468.7 5.2 C 469.4 5.1 469.7 5.1 470.4 5.1 C 471.0 5.1 471.3 5.1 471.9 5.2 C 472.6 5.2 472.9 5.3 473.6 5.3 C 474.2 5.3 474.5 5.3 475.2 5.3 C 475.8 5.3 476.1 5.8 476.7 6.0 C 477.4 6.1 477.7 6.0 478.4 6.1 C 479.0 6.2 479.3 6.3 480.0 6.3 C 480.6 6.3 480.9 5.9 481.5 5.9 C 482.2 5.9 482.5 6.0 483.2 6.0 C 483.8 6.0 484.1 6.0 484.7 6.0 C 485.4 5.9 485.7 6.0 486.3 5.9 C 487.0 5.9 487.3 5.8 488.0 5.8 C 488.6 5.8 488.9 5.8 489.5 5.8 C 490.2 5.9 490.5 5.8 491.1 5.9 C 491.8 5.9 492.1 6.1 492.8 6.2 C 493.4 6.3 493.7 6.5 494.3 6.5 C 495.0 6.5 495.3 6.5 496.0 6.4 C 496.6 6.4 496.9 6.3 497.6 6.3 C 498.2 6.3 498.5 6.4 499.1 6.4 C 499.8 6.4 500.1 6.3 500.8 6.2 C 501.4 6.2 501.7 6.2 502.4 6.1 C 503.0 6.0 503.3 5.9 503.9 5.8 C 504.6 5.7 504.9 5.5 505.6 5.5 C 506.2 5.5 506.5 5.7 507.1 5.7 C 507.8 5.7 508.1 5.6 508.7 5.5 C 509.4 5.4 509.7 5.2 510.4 5.2 C 511.0 5.2 511.3 5.2 511.9 5.2 C 512.6 5.2 512.9 5.2 513.5 5.2 C 514.2 5.2 514.5 5.2 515.2 5.0 C 515.8 4.9 516.1 4.8 516.7 4.7 C 517.4 4.5 517.7 4.3 518.4 4.3 C 519.0 4.3 519.3 4.3 520.0 4.3 C 520.6 4.3 520.9 4.1 521.5 4.1 C 522.2 4.1 522.5 4.1 523.2 4.1 C 523.8 4.1 524.1 4.0 524.8 4.0 C 525.4 3.9 525.7 3.8 526.3 3.8 C 527.0 3.8 527.3 3.9 528.0 4.0 C 528.6 4.1 528.9 4.3 529.5 4.3 C 530.2 4.3 530.5 4.2 531.1 4.1 C 531.8 3.9 532.1 3.5 532.8 3.5 C 533.4 3.5 533.7 3.7 534.3 3.7 C 535.0 3.7 536 3.3 536 3.3 L 536 40 L 460.8 40" ></path><path fill="none" d="M 0 35.0 C 0 35.0 0.9 33.6 1.6 33.5 C 2.2 33.4 2.5 33.4 3.1 33.4 C 3.8 33.4 4.1 33.4 4.8 33.3 C 5.4 33.1 5.7 32.2 6.4 32.2 C 7.0 32.2 7.3 32.5 7.9 32.5 C 8.6 32.5 8.9 32.3 9.6 32.3 C 10.2 32.3 10.5 32.9 11.1 33.1 C 11.8 33.3 12.1 33.3 12.7 33.3 C 13.4 33.3 13.7 33.0 14.4 32.7 C 15.0 32.5 15.3 32.1 15.9 32.1 C 16.6 32.1 16.9 32.6 17.5 32.6 C 18.2 32.6 18.5 32.2 19.2 31.8 C 19.8 31.5 20.1 31.4 20.7 30.8 C 21.4 30.3 21.7 29.7 22.4 29.1 C 23.0 28.4 23.3 27.7 24.0 27.7 C 24.6 27.7 24.9 27.7 25.5 27.7 C 26.2 27.7 26.5 28.3 27.2 28.5 C 27.8 28.7 28.1 28.8 28.8 28.8 C 29.4 28.8 29.7 27.8 30.3 27.8 C 31.0 27.8 31.3 28.5 32.0 28.5 C 32.6 28.5 32.9 28.1 33.5 28.1 C 34.2 28.1 34.5 28.1 35.1 28.2 C 35.8 28.4 36.1 28.8 36.8 28.8 C 37.4 28.8 37.7 28.8 38.3 28.8 C 39.0 28.8 39.3 28.8 39.9 28.7 C 40.6 28.6 40.9 28.3 41.6 28.3 C 42.2 28.3 42.5 28.3 43.1 28.4 C 43.8 28.6 44.1 29.2 44.8 29.8 C 45.4 30.4 45.7 30.9 46.4 31.4 C 47.0 31.8 47.3 32.0 47.9 32.0 C 48.6 32.0 48.9 31.6 49.6 31.6 C 50.2 31.6 50.5 32.0 51.2 32.4 C 51.8 32.8 52.1 33.0 52.7 33.5 C 53.4 33.9 53.7 34.6 54.4 34.6 C 55.0 34.6 55.3 33.9 55.9 33.5 C 56.6 33.2 56.9 33.3 57.5 33.0 C 58.2 32.7 58.5 32.1 59.2 32.0 C 59.8 32.0 60.1 32.0 60.7 32.0 C 61.4 32.0 61.7 32.5 62.3 32.8 C 63.0 33.1 63.3 33.4 64.0 33.4 C 64.6 33.4 64.9 33.4 65.5 33.3 C 66.2 33.1 66.5 32.5 67.2 32.5 C 67.8 32.5 68.1 32.5 68.8 32.5 C 69.4 32.5 69.7 33.2 70.3 33.2 C 71.0 33.2 71.3 33.0 72.0 32.8 C 72.6 32.5 72.9 32.2 73.6 32.1 C 74.2 32.0 75.1 32.0 75.1 32.0 M 76.8 32.6 C 76.8 32.6 77.7 32.6 78.3 32.6 C 79.0 32.6 79.3 32.6 79.9 32.4 C 80.6 32.3 80.9 31.6 81.6 31.3 C 82.2 31.0 82.5 30.9 83.1 30.9 C 83.8 30.9 84.1 31.1 84.7 31.2 C 85.4 31.3 85.7 31.4 86.4 31.5 C 87.0 31.6 87.3 31.7 87.9 31.8 C 88.6 32.0 88.9 31.9 89.6 32.1 C 90.2 32.4 90.5 32.8 91.2 33.0 C 91.8 33.2 92.1 33.2 92.7 33.2 C 93.4 33.2 93.7 32.1 94.4 32.1 C 95.0 32.1 95.3 32.6 96.0 32.6 C 96.6 32.6 96.9 32.6 97.5 32.6 C 98.2 32.6 98.5 32.7 99.2 32.7 C 99.8 32.8 100.1 32.8 100.7 33.0 C 101.4 33.2 101.7 33.5 102.3 33.8 C 103.0 34.1 103.3 34.1 104.0 34.3 C 104.6 34.5 104.9 34.5 105.5 34.8 C 106.2 35.0 106.5 35.4 107.1 35.6 C 107.8 35.9 108.1 35.8 108.8 36.0 C 109.4 36.2 109.7 36.5 110.3 36.5 C 111.0 36.5 111.3 36.5 112.0 36.5 C 112.6 36.4 112.9 36.4 113.6 36.4 C 114.2 36.4 114.5 36.4 115.1 36.4 C 115.8 36.4 116.1 36.0 116.8 36.0 C 117.4 36.0 117.7 36.6 118.3 36.6 C 119.0 36.6 119.3 36.1 119.9 36.1 C 120.6 36.1 120.9 36.3 121.6 36.3 C 122.2 36.4 122.5 36.3 123.1 36.4 C 123.8 36.4 124.1 36.4 124.7 36.4 C 125.4 36.4 125.7 36.3 126.4 36.2 C 127.0 36.2 127.3 36.0 127.9 36.0 C 128.6 36.0 128.9 36.1 129.6 36.2 C 130.2 36.2 130.5 36.4 131.2 36.4 C 131.8 36.4 132.1 36.2 132.7 35.9 C 133.4 35.6 133.7 35.1 134.4 35.1 C 135.0 35.1 135.3 35.4 136.0 35.4 C 136.6 35.4 136.9 34.9 137.5 34.9 C 138.2 34.9 138.5 35.4 139.2 35.6 C 139.8 35.8 140.1 35.9 140.7 35.9 C 141.4 35.9 141.7 35.9 142.3 35.8 C 143.0 35.8 143.3 35.7 144.0 35.6 C 144.6 35.5 144.9 35.6 145.5 35.4 C 146.2 35.2 146.5 35.0 147.1 34.8 C 147.8 34.6 148.1 34.6 148.8 34.6 C 149.4 34.6 149.7 34.7 150.3 35.1 C 151.0 35.4 152.0 36.4 152.0 36.4 M 153.6 33.3 C 153.6 33.3 154.5 33.7 155.1 33.7 C 155.8 33.7 156.1 33.7 156.8 33.5 C 157.4 33.3 157.7 32.6 158.4 32.2 C 159.0 31.8 159.3 31.9 159.9 31.6 C 160.6 31.3 160.9 31.0 161.6 30.9 C 162.2 30.7 162.5 30.7 163.1 30.7 C 163.8 30.6 164.1 30.6 164.7 30.6 C 165.4 30.6 165.7 30.6 166.4 30.5 C 167.0 30.4 167.3 30.3 167.9 30.3 C 168.6 30.3 168.9 30.4 169.5 30.4 C 170.2 30.4 170.5 30.3 171.2 29.9 C 171.8 29.5 172.1 29.0 172.7 28.5 C 173.4 28.0 173.7 27.5 174.4 27.5 C 175.0 27.5 175.3 27.5 176.0 27.5 C 176.6 27.6 176.9 27.6 177.5 27.6 C 178.2 27.7 178.5 27.8 179.2 27.9 C 179.8 28.0 180.1 28.2 180.8 28.2 C 181.4 28.2 181.7 28.2 182.3 28.2 C 183.0 28.2 183.3 28.3 184.0 28.3 C 184.6 28.3 184.9 28.1 185.5 28.0 C 186.2 27.8 186.5 27.7 187.1 27.6 C 187.8 27.5 188.1 27.4 188.8 27.3 C 189.4 27.3 189.7 27.3 190.3 27.2 C 191.0 27.2 191.3 26.9 191.9 26.9 C 192.6 26.9 192.9 27.0 193.6 27.1 C 194.2 27.1 194.5 27.1 195.1 27.1 C 195.8 27.1 196.1 27.0 196.8 27.0 C 197.4 27.0 197.7 27.0 198.4 27.0 C 199.0 27.1 199.3 27.2 199.9 27.3 C 200.6 27.4 200.9 27.4 201.6 27.4 C 202.2 27.4 202.5 27.4 203.2 27.4 C 203.8 27.4 204.1 27.0 204.7 27.0 C 205.4 27.0 205.7 27.1 206.4 27.1 C 207.0 27.1 207.3 27.1 207.9 27.1 C 208.6 27.1 208.9 27.1 209.5 27.1 C 210.2 27.2 210.5 27.1 211.2 27.2 C 211.8 27.2 212.1 27.4 212.7 27.4 C 213.4 27.4 213.7 27.3 214.3 27.1 C 215.0 26.9 215.3 26.4 216.0 26.4 C 216.6 26.4 216.9 26.5 217.5 26.6 C 218.2 26.6 218.5 26.6 219.2 26.7 C 219.8 26.7 220.1 27.1 220.8 27.1 C 221.4 27.1 221.7 27.0 222.3 27.0 C 223.0 27.0 223.3 27.1 224.0 27.1 C 224.6 27.1 224.9 27.1 225.5 26.8 C 226.2 26.6 226.5 26.5 227.1 26.1 C 227.8 25.7 228.8 24.9 228.8 24.9 M 230.3 23.1 C 230.3 23.1 231.3 22.1 231.9 22.0 C 232.6 21.9 232.9 21.9 233.6 21.9 C 234.2 21.9 234.5 22.0 235.1 22.1 C 235.8 22.3 236.1 22.4 236.8 22.5 C 237.4 22.5 237.7 22.5 238.4 22.5 C 239.0 22.5 239.3 22.5 239.9 22.6 C 240.6 22.6 240.9 22.6 241.6 22.6 C 242.2 22.6 242.5 22.6 243.2 22.5 C 243.8 22.5 244.1 21.9 244.7 21.2 C 245.4 20.6 245.7 19.9 246.4 19.4 C 247.0 18.8 247.3 18.6 247.9 18.6 C 248.6 18.6 248.9 19.0 249.5 19.0 C 250.2 19.0 250.5 18.2 251.2 17.9 C 251.8 17.6 252.1 17.5 252.7 17.4 C 253.4 17.3 253.7 17.4 254.3 17.2 C 255.0 17.1 255.3 16.7 256.0 16.7 C 256.6 16.7 256.9 17.1 257.5 17.2 C 258.2 17.3 258.5 17.3 259.2 17.4 C 259.8 17.5 260.1 17.5 260.8 17.6 C 261.4 17.7 261.7 17.8 262.3 17.8 C 263.0 17.8 263.3 17.4 264.0 17.3 C 264.6 17.2 264.9 17.1 265.6 17.0 C 266.2 16.9 266.5 16.8 267.1 16.8 C 267.8 16.8 268.1 17.0 268.8 17.0 C 269.4 17.0 269.7 16.7 270.3 16.7 C 271.0 16.7 271.3 16.8 271.9 16.8 C 272.6 16.9 272.9 16.9 273.6 17.1 C 274.2 17.3 274.5 17.7 275.1 17.9 C 275.8 18.1 276.1 18.2 276.7 18.2 C 277.4 18.2 277.7 18.1 278.4 18.1 C 279.0 18.1 279.3 18.3 279.9 18.3 C 280.6 18.3 280.9 18.3 281.6 18.1 C 282.2 17.9 282.5 17.5 283.2 17.5 C 283.8 17.5 284.1 17.5 284.7 17.5 C 285.4 17.5 285.7 17.4 286.4 17.3 C 287.0 17.1 287.3 16.9 288.0 16.9 C 288.6 16.9 288.9 16.9 289.5 16.9 C 290.2 16.9 290.5 17.1 291.2 17.1 C 291.8 17.1 292.1 17.0 292.7 17.0 C 293.4 17.0 293.7 17.2 294.3 17.2 C 295.0 17.2 295.3 16.9 296.0 16.6 C 296.6 16.3 296.9 15.8 297.5 15.6 C 298.2 15.3 298.5 15.1 299.1 15.1 C 299.8 15.1 300.1 16.0 300.8 16.3 C 301.4 16.7 301.7 16.8 302.3 16.8 C 303.0 16.8 303.3 16.6 304.0 16.5 C 304.6 16.5 305.6 16.5 305.6 16.5 M 307.1 14.6 C 307.1 14.6 308.1 14.3 308.8 14.2 C 309.4 14.1 309.7 14.0 310.4 13.9 C 311.0 13.8 311.3 13.9 311.9 13.8 C 312.6 13.7 312.9 13.5 313.6 13.3 C 314.2 13.0 314.5 12.7 315.1 12.4 C 315.8 12.2 316.1 12.2 316.7 12.0 C 317.4 11.9 317.7 11.7 318.4 11.7 C 319.0 11.7 319.3 12.1 319.9 12.1 C 320.6 12.1 320.9 11.4 321.5 11.4 C 322.2 11.4 322.5 11.5 323.2 11.5 C 323.8 11.5 324.1 11.5 324.7 11.6 C 325.4 11.7 325.7 11.8 326.4 11.8 C 327.0 11.8 327.3 11.7 328.0 11.7 C 328.6 11.7 328.9 12.9 329.5 12.9 C 330.2 12.9 330.5 12.6 331.2 12.5 C 331.8 12.3 332.1 12.3 332.7 12.3 C 333.4 12.3 333.7 12.3 334.3 12.4 C 335.0 12.4 335.3 12.5 336.0 12.5 C 336.6 12.5 336.9 12.1 337.5 12.0 C 338.2 11.9 338.5 12.0 339.1 11.9 C 339.8 11.8 340.1 11.6 340.8 11.6 C 341.4 11.6 341.7 11.6 342.3 11.7 C 343.0 11.8 343.3 11.8 344.0 12.0 C 344.6 12.1 344.9 12.2 345.6 12.4 C 346.2 12.6 346.5 12.9 347.1 12.9 C 347.8 12.9 348.1 12.6 348.8 12.6 C 349.4 12.6 349.7 12.6 350.4 12.7 C 351.0 12.8 351.3 13.0 351.9 13.0 C 352.6 13.0 352.9 12.9 353.6 12.7 C 354.2 12.6 354.5 12.4 355.1 12.4 C 355.8 12.4 356.1 12.5 356.7 12.5 C 357.4 12.5 357.7 12.2 358.4 12.2 C 359.0 12.2 359.3 12.2 359.9 12.2 C 360.6 12.2 360.9 12.2 361.5 12.2 C 362.2 12.3 362.5 12.8 363.2 12.8 C 363.8 12.8 364.1 12.7 364.7 12.7 C 365.4 12.7 365.7 12.8 366.4 13.0 C 367.0 13.2 367.3 13.7 368.0 13.7 C 368.6 13.7 368.9 13.6 369.5 13.6 C 370.2 13.6 370.5 14.2 371.2 14.6 C 371.8 15.0 372.1 15.3 372.8 15.6 C 373.4 15.9 373.7 16.0 374.3 16.0 C 375.0 16.0 375.3 15.6 376.0 15.4 C 376.6 15.2 376.9 15.1 377.5 14.9 C 378.2 14.8 378.5 14.5 379.1 14.5 C 379.8 14.5 380.1 14.8 380.8 14.9 C 381.4 15.1 382.3 15.3 382.3 15.3 M 383.9 16.0 C 383.9 16.0 384.9 16.1 385.6 16.1 C 386.2 16.1 386.5 15.3 387.1 14.9 C 387.8 14.5 388.1 14.3 388.8 14.1 C 389.4 13.8 389.7 13.5 390.4 13.5 C 391.0 13.5 391.3 13.6 391.9 13.6 C 392.6 13.6 392.9 13.6 393.6 13.5 C 394.2 13.5 394.5 13.4 395.2 13.4 C 395.8 13.4 396.1 13.5 396.7 13.6 C 397.4 13.8 397.7 14.0 398.4 14.1 C 399.0 14.2 399.3 14.2 399.9 14.2 C 400.6 14.2 400.9 14.2 401.5 14.1 C 402.2 14.1 402.5 13.8 403.2 13.6 C 403.8 13.4 404.1 13.2 404.7 13.1 C 405.4 12.9 405.7 13.0 406.3 12.9 C 407.0 12.9 407.3 12.7 408.0 12.7 C 408.6 12.7 408.9 12.9 409.5 13.1 C 410.2 13.3 410.5 13.6 411.2 13.6 C 411.8 13.6 412.1 13.6 412.8 13.6 C 413.4 13.6 413.7 13.3 414.3 13.2 C 415.0 13.1 415.3 13.2 416.0 13.1 C 416.6 13.0 416.9 12.8 417.6 12.7 C 418.2 12.5 418.5 12.6 419.1 12.5 C 419.8 12.4 420.1 12.2 420.8 12.2 C 421.4 12.2 421.7 12.3 422.3 12.3 C 423.0 12.4 423.3 12.4 423.9 12.5 C 424.6 12.6 424.9 12.7 425.6 12.8 C 426.2 12.8 426.5 12.8 427.1 12.8 C 427.8 12.8 428.1 12.6 428.7 12.6 C 429.4 12.6 429.7 12.6 430.4 12.6 C 431.0 12.6 431.3 13.1 431.9 13.1 C 432.6 13.1 432.9 13.0 433.6 13.0 C 434.2 13.0 434.5 13.5 435.2 13.5 C 435.8 13.5 436.1 13.2 436.7 13.1 C 437.4 13.1 437.7 13.1 438.4 13.1 C 439.0 13.1 439.3 13.1 439.9 13.2 C 440.6 13.2 440.9 13.3 441.5 13.4 C 442.2 13.4 442.5 13.5 443.2 13.5 C 443.8 13.5 444.1 13.4 444.7 13.3 C 445.4 13.3 445.7 13.3 446.3 13.2 C 447.0 13.1 447.3 13.2 448.0 13.0 C 448.6 12.9 448.9 12.6 449.5 12.4 C 450.2 12.2 450.5 12.2 451.2 12.1 C 451.8 11.9 452.1 11.8 452.8 11.8 C 453.4 11.8 453.7 11.9 454.3 12.0 C 455.0 12.1 455.3 12.4 456.0 12.4 C 456.6 12.4 456.9 12.3 457.6 12.2 C 458.2 12.1 459.1 11.8 459.1 11.8 M 460.8 5.9 C 460.8 5.9 461.7 5.6 462.3 5.6 C 463.0 5.6 463.3 5.7 463.9 5.7 C 464.6 5.7 464.9 5.7 465.6 5.6 C 466.2 5.6 466.5 5.6 467.1 5.5 C 467.8 5.5 468.1 5.3 468.7 5.2 C 469.4 5.1 469.7 5.1 470.4 5.1 C 471.0 5.1 471.3 5.1 471.9 5.2 C 472.6 5.2 472.9 5.3 473.6 5.3 C 474.2 5.3 474.5 5.3 475.2 5.3 C 475.8 5.3 476.1 5.8 476.7 6.0 C 477.4 6.1 477.7 6.0 478.4 6.1 C 479.0 6.2 479.3 6.3 480.0 6.3 C 480.6 6.3 480.9 5.9 481.5 5.9 C 482.2 5.9 482.5 6.0 483.2 6.0 C 483.8 6.0 484.1 6.0 484.7 6.0 C 485.4 5.9 485.7 6.0 486.3 5.9 C 487.0 5.9 487.3 5.8 488.0 5.8 C 488.6 5.8 488.9 5.8 489.5 5.8 C 490.2 5.9 490.5 5.8 491.1 5.9 C 491.8 5.9 492.1 6.1 492.8 6.2 C 493.4 6.3 493.7 6.5 494.3 6.5 C 495.0 6.5 495.3 6.5 496.0 6.4 C 496.6 6.4 496.9 6.3 497.6 6.3 C 498.2 6.3 498.5 6.4 499.1 6.4 C 499.8 6.4 500.1 6.3 500.8 6.2 C 501.4 6.2 501.7 6.2 502.4 6.1 C 503.0 6.0 503.3 5.9 503.9 5.8 C 504.6 5.7 504.9 5.5 505.6 5.5 C 506.2 5.5 506.5 5.7 507.1 5.7 C 507.8 5.7 508.1 5.6 508.7 5.5 C 509.4 5.4 509.7 5.2 510.4 5.2 C 511.0 5.2 511.3 5.2 511.9 5.2 C 512.6 5.2 512.9 5.2 513.5 5.2 C 514.2 5.2 514.5 5.2 515.2 5.0 C 515.8 4.9 516.1 4.8 516.7 4.7 C 517.4 4.5 517.7 4.3 518.4 4.3 C 519.0 4.3 519.3 4.3 520.0 4.3 C 520.6 4.3 520.9 4.1 521.5 4.1 C 522.2 4.1 522.5 4.1 523.2 4.1 C 523.8 4.1 524.1 4.0 524.8 4.0 C 525.4 3.9 525.7 3.8 526.3 3.8 C 527.0 3.8 527.3 3.9 528.0 4.0 C 528.6 4.1 528.9 4.3 529.5 4.3 C 530.2 4.3 530.5 4.2 531.1 4.1 C 531.8 3.9 532.1 3.5 532.8 3.5 C 533.4 3.5 533.7 3.7 534.3 3.7 C 535.0 3.7 536 3.3 536 3.3" stroke="#4572A7" stroke-width="1"  stroke-linejoin="round" stroke-linecap="round"></path></g><g class="highcharts-markers" visibility="visible"  transform="translate(24,331) scale(1 1)" clip-path="url(#highcharts-5)"></g></g><g class="highcharts-navigator" ><rect fill="rgb(128,179,236)" fill-opacity="0.3" style="cursor:ew-resize ;" x="483" y="331" width="77" height="40"></rect><path fill="none" stroke="#b2b1b6" stroke-width="1" d="M 10 331.5 L 482.5 331.5 482.5 385.5 L 559.5 385.5 L 559.5 331.5 574 331.5 M 483.5 331.5 L 559.5 331.5"></path></g><g class="highcharts-navigator-handle-right" style="cursor:ew-resize;"  transform="translate(560,343)"><rect x="-4.5" y="0.5" width="8" height="15" strokeWidth="1" fill="#ebe7e8" stroke="#b2b1b6" stroke-width="1"></rect><path fill="#ebe7e8" d="M -1.5 4 L -1.5 12 M 0.5 4 L 0.5 12" stroke="#b2b1b6" stroke-width="1"></path></g><text x="292" text-anchor="middle" class="highcharts-title"  style="color:black;font-size:16px;font-weight:bold;fill:black;width:520px;" y="22"><tspan>AAPL stock price by minute</tspan></text><text x="292" text-anchor="middle" class="highcharts-subtitle"  style="color:black;fill:black;width:520px;" y="43"><tspan>Using ordinal X axis</tspan></text><g class="highcharts-navigator-handle-left" style="cursor:ew-resize;"  transform="translate(483,343)"><rect x="-4.5" y="0.5" width="8" height="15" strokeWidth="1" fill="#ebe7e8" stroke="#b2b1b6" stroke-width="1"></rect><path fill="#ebe7e8" d="M -1.5 4 L -1.5 12 M 0.5 4 L 0.5 12" stroke="#b2b1b6" stroke-width="1"></path></g><g class="highcharts-axis-labels highcharts-xaxis-labels" ><text x="10" style="color:#6e6e70;cursor:default;font-size:11px;fill:#6e6e70;" text-anchor="start" transform="translate(0,0)" y="304" opacity="1"><tspan>14. Oct</tspan></text><text x="82.8" style="color:#6e6e70;cursor:default;font-size:11px;fill:#6e6e70;" text-anchor="middle" transform="translate(0,0)" y="304" opacity="1">09:00</text><text x="153.3" style="color:#6e6e70;cursor:default;font-size:11px;fill:#6e6e70;" text-anchor="middle" transform="translate(0,0)" y="304" opacity="1">10:00</text><text x="223.8" style="color:#6e6e70;cursor:default;font-size:11px;fill:#6e6e70;" text-anchor="middle" transform="translate(0,0)" y="304" opacity="1">11:00</text><text x="294.3" style="color:#6e6e70;cursor:default;font-size:11px;fill:#6e6e70;" text-anchor="middle" transform="translate(0,0)" y="304" opacity="1">12:00</text><text x="364.8" style="color:#6e6e70;cursor:default;font-size:11px;fill:#6e6e70;" text-anchor="middle" transform="translate(0,0)" y="304" opacity="1">13:00</text><text x="435.3" style="color:#6e6e70;cursor:default;font-size:11px;fill:#6e6e70;" text-anchor="middle" transform="translate(0,0)" y="304" opacity="1">14:00</text><text x="505.8" style="color:#6e6e70;cursor:default;font-size:11px;fill:#6e6e70;" text-anchor="middle" transform="translate(0,0)" y="304" opacity="1">15:00</text></g><g class="highcharts-axis-labels highcharts-xaxis-labels" ><text x="256.5" style="color:#888;cursor:default;font-size:11px;fill:#888;" text-anchor="start" transform="translate(0,0)" y="367" opacity="1"><tspan>11. Oct</tspan></text><text x="486.9" style="color:#888;cursor:default;font-size:11px;fill:#888;" text-anchor="start" transform="translate(0,0)" y="367" opacity="1"><tspan>14. Oct</tspan></text></g><g class="highcharts-axis-labels highcharts-yaxis-labels" ><text x="574" style="color:#6e6e70;cursor:default;font-size:11px;fill:#6e6e70;width:183px;text-overflow:clip;" text-anchor="end" transform="translate(0,0)" y="283" opacity="1">405</text><text x="574" style="color:#6e6e70;cursor:default;font-size:11px;fill:#6e6e70;width:183px;text-overflow:clip;" text-anchor="end" transform="translate(0,0)" y="235" opacity="1">410</text><text x="574" style="color:#6e6e70;cursor:default;font-size:11px;fill:#6e6e70;width:183px;text-overflow:clip;" text-anchor="end" transform="translate(0,0)" y="187" opacity="1">415</text><text x="574" style="color:#6e6e70;cursor:default;font-size:11px;fill:#6e6e70;width:183px;text-overflow:clip;" text-anchor="end" transform="translate(0,0)" y="139" opacity="1">420</text><text x="0" style="color:#6e6e70;cursor:default;font-size:11px;fill:#6e6e70;width:183px;text-overflow:clip;" text-anchor="end" transform="translate(0,0)" y="-9999">425</text></g><g class="highcharts-axis-labels highcharts-yaxis-labels" ></g><g class="highcharts-tooltip"  style="cursor:default;padding:0;white-space:nowrap;" transform="translate(0,-9999)"><path fill="none" d="M 3 0 L 13 0 C 16 0 16 0 16 3 L 16 13 C 16 16 16 16 13 16 L 3 16 C 0 16 0 16 0 13 L 0 3 C 0 0 0 0 3 0"  stroke="black" stroke-opacity="0.0" stroke-width="5" transform="translate(1, 1)"></path><path fill="none" d="M 3 0 L 13 0 C 16 0 16 0 16 3 L 16 13 C 16 16 16 16 13 16 L 3 16 C 0 16 0 16 0 13 L 0 3 C 0 0 0 0 3 0"  stroke="black" stroke-opacity="0.0" stroke-width="3" transform="translate(1, 1)"></path><path fill="none" d="M 3 0 L 13 0 C 16 0 16 0 16 3 L 16 13 C 16 16 16 16 13 16 L 3 16 C 0 16 0 16 0 13 L 0 3 C 0 0 0 0 3 0"  stroke="black" stroke-opacity="0.1" stroke-width="1" transform="translate(1, 1)"></path><path fill="rgb(249, 249, 249)" fill-opacity=" .85" d="M 3 0 L 13 0 C 16 0 16 0 16 3 L 16 13 C 16 16 16 16 13 16 L 3 16 C 0 16 0 16 0 13 L 0 3 C 0 0 0 0 3 0"></path><text x="8"  style="font-size:12px;color:#333333;fill:#333333;" transform="translate(0,20)"></text></g></svg>