<svg version="1.1" style="font-family: signika, serif; font-size: 12px; background-image: url(http://www.highcharts.com/samples/graphics/sand.png); background-attachment: initial; background-origin: initial; background-clip: initial; background-color: initial; background-position: initial initial; background-repeat: initial initial; " xmlns="http://www.w3.org/2000/svg" width="584" height="400" viewBox="0 0 584 400" xmlns:xlink="http://www.w3.org/1999/xlink"><style type="text/css"><![CDATA[@import url(http://fonts.googleapis.com/css?family=Signika:700);]]></style><desc>Created with Highstock 2.1.4</desc><defs><clipPath id="highcharts-1"><rect x="0" y="0" width="564" height="206"></rect></clipPath><clipPath id="highcharts-2"><rect x="-99" y="-79" width="663" height="400"></rect></clipPath><clipPath id="highcharts-3"><rect x="0" y="0" width="564" height="206"></rect></clipPath><clipPath id="highcharts-4"><rect x="-99" y="-79" width="663" height="400"></rect></clipPath><clipPath id="highcharts-5"><rect x="0" y="0" width="564" height="40"></rect></clipPath></defs><g class="highcharts-scrollbar" transform="translate(10,372)"><rect x="0" y="-0.5" fill="#eeeeee" stroke="#C0C0C8" stroke-width="1" rx="0" ry="0" height="14" width="564"></rect><rect y="-0.5" height="14" fill="#bfc8d1" stroke="#bfc8d1" stroke-width="1" rx="0" ry="0" x="512.5" width="37"></rect><path fill="none" stroke="#666" stroke-width="1" visibility="visible" d="M 527.5 3.5 L 527.5 9.3 M 530.5 3.5 L 530.5 9.3 M 533.5 3.5 L 533.5 9.3"></path><g><rect x="-0.5" y="-0.5" width="14" height="14" strokeWidth="1" stroke="#bbb" stroke-width="1" fill="#ebe7e8"></rect><path fill="#666" d="M 8 4 L 8 10 5 7"></path></g><g transform="translate(550,0)"><rect x="-0.5" y="-0.5" width="14" height="14" strokeWidth="1" stroke="#bbb" stroke-width="1" fill="#ebe7e8"></rect><path fill="#666" d="M 6 4 L 6 10 9 7"></path></g></g><g class="highcharts-range-selector-buttons"><text x="10" y="59" style="color:#666;fill:#666;">Zoom</text><g class="highcharts-button"  states="[object Object]" style="cursor:pointer;text-align:center;" transform="translate(46,44)"><rect x="0.5" y="0.5" width="32" height="22" strokeWidth="1" fill="white" stroke="#C0C0C8" stroke-width="1" rx="0" ry="0"></rect><text x="7.5"  style="font-weight:normal;color:#444;fill:#444;" transform="translate(0,14)">1m</text></g><g class="highcharts-button"  states="[object Object]" style="cursor:pointer;text-align:center;" transform="translate(83,44)"><rect x="0.5" y="0.5" width="32" height="22" strokeWidth="1" fill="white" stroke="#C0C0C8" stroke-width="1" rx="0" ry="0"></rect><text x="7.5"  style="font-weight:normal;color:#444;fill:#444;" transform="translate(0,14)">3m</text></g><g class="highcharts-button"  states="[object Object]" style="cursor:pointer;text-align:center;" transform="translate(120,44)"><rect x="0.5" y="0.5" width="32" height="22" strokeWidth="1" fill="#D0D0D8" stroke="#68A" stroke-width="1" rx="0" ry="0"></rect><text x="7.5"  style="font-weight:bold;color:black;fill:black;" transform="translate(0,14)">6m</text></g><g class="highcharts-button"  states="[object Object]" style="cursor:pointer;text-align:center;" transform="translate(157,44)"><rect x="0.5" y="0.5" width="32" height="22" strokeWidth="1" fill="white" stroke="#C0C0C8" stroke-width="1" rx="0" ry="0"></rect><text x="4"  style="font-weight:normal;color:#444;fill:#444;" transform="translate(0,14)">YTD</text></g><g class="highcharts-button"  states="[object Object]" style="cursor:pointer;text-align:center;" transform="translate(194,44)"><rect x="0.5" y="0.5" width="32" height="22" strokeWidth="1" fill="white" stroke="#C0C0C8" stroke-width="1" rx="0" ry="0"></rect><text x="9.5"  style="font-weight:normal;color:#444;fill:#444;" transform="translate(0,14)">1y</text></g><g class="highcharts-button"  states="[object Object]" style="cursor:pointer;text-align:center;" transform="translate(231,44)"><rect x="0.5" y="0.5" width="32" height="22" strokeWidth="1" fill="white" stroke="#C0C0C8" stroke-width="1" rx="0" ry="0"></rect><text x="10"  style="font-weight:normal;color:#444;fill:#444;" transform="translate(0,14)">All</text></g></g><g class="highcharts-input-group" transform="translate(316,44)" visibility="visible"><g style="fill:#666;" transform="translate(0,0)"><text x="2"  style="font-size:12px;font-family:signika, serif;color:#666;fill:#666;" transform="translate(0,14)">From</text></g><g style="text-align:center;" transform="translate(36,0)"><rect x="0.5" y="0.5" width="94" height="21" strokeWidth="1" fill="none" stroke="silver" stroke-width="1"></rect><text x="9.5"  style="font-size:12px;font-family:signika, serif;color:#444;fill:#444;" transform="translate(0,14)"><tspan>Nov 11, 2012</tspan></text></g><g style="fill:#666;" transform="translate(140,0)"><text x="2"  style="font-size:12px;font-family:signika, serif;color:#666;fill:#666;" transform="translate(0,14)">To</text></g><g style="text-align:center;" transform="translate(164,0)"><rect x="0.5" y="0.5" width="94" height="21" strokeWidth="1" fill="none" stroke="silver" stroke-width="1"></rect><text x="9.5"  style="font-size:12px;font-family:signika, serif;color:#444;fill:#444;" transform="translate(0,14)"><tspan>May 10, 2013</tspan></text></g></g><g class="highcharts-grid" ></g><g class="highcharts-grid" ><path fill="none" d="M 148.5 331 L 148.5 371" stroke="#D0D0D8" stroke-width="1"  opacity="1"></path><path fill="none" d="M 301.5 331 L 301.5 371" stroke="#D0D0D8" stroke-width="1"  opacity="1"></path><path fill="none" d="M 455.5 331 L 455.5 371" stroke="#D0D0D8" stroke-width="1"  opacity="1"></path></g><g class="highcharts-grid" ><path fill="none" d="M 10 285.5 L 574 285.5" stroke="#D8D8D8" stroke-width="1"  opacity="1"></path><path fill="none" d="M 10 244.5 L 574 244.5" stroke="#D8D8D8" stroke-width="1"  opacity="1"></path><path fill="none" d="M 10 203.5 L 574 203.5" stroke="#D8D8D8" stroke-width="1"  opacity="1"></path><path fill="none" d="M 10 161.5 L 574 161.5" stroke="#D8D8D8" stroke-width="1"  opacity="1"></path><path fill="none" d="M 10 120.5 L 574 120.5" stroke="#D8D8D8" stroke-width="1"  opacity="1"></path><path fill="none" d="M 10 78.5 L 574 78.5" stroke="#D8D8D8" stroke-width="1"  opacity="1"></path></g><g class="highcharts-grid" ></g><g class="highcharts-axis" ><path fill="none" d="M 71.5 285 L 71.5 295" stroke="#C0D0E0" stroke-width="1" opacity="1"></path><path fill="none" d="M 164.5 285 L 164.5 295" stroke="#C0D0E0" stroke-width="1" opacity="1"></path><path fill="none" d="M 262.5 285 L 262.5 295" stroke="#C0D0E0" stroke-width="1" opacity="1"></path><path fill="none" d="M 349.5 285 L 349.5 295" stroke="#C0D0E0" stroke-width="1" opacity="1"></path><path fill="none" d="M 440.5 285 L 440.5 295" stroke="#C0D0E0" stroke-width="1" opacity="1"></path><path fill="none" d="M 541.5 285 L 541.5 295" stroke="#C0D0E0" stroke-width="1" opacity="1"></path><path fill="none" d="M 10 285.5 L 574 285.5" stroke="#C0D0E0" stroke-width="1"  visibility="visible"></path></g><g class="highcharts-axis" ></g><g class="highcharts-axis" ></g><g class="highcharts-axis" ></g><g class="highcharts-series-group" ><g class="highcharts-series" visibility="visible"  transform="translate(10,79) scale(1 1)" clip-path="url(#highcharts-3)"><path fill="none" d="M -3.0 43.6 L 1.5 47.1 L 6.0 47.0 L 10.6 52.0 L 15.2 61.2 L 19.8 59.5 L 24.3 28.2 L 28.9 32.2 L 33.5 31.5 L 38.1 23.4 L 42.6 8.6 L 47.2 12.5 L 51.8 14.0 L 56.4 8.7 L 60.9 12.1 L 65.5 11.3 L 70.1 19.8 L 74.6 50.4 L 79.2 43.4 L 83.8 55.0 L 88.4 57.8 L 92.9 48.2 L 97.5 50.2 L 102.1 57.9 L 106.7 74.3 L 111.2 66.8 L 115.8 54.4 L 120.4 60.7 L 124.9 64.4 L 129.5 66.4 L 134.1 65.7 L 138.7 71.6 L 143.2 69.9 L 147.8 74.4 L 152.4 55.8 L 157.0 41.9 L 161.5 47.7 L 166.1 60.1 L 170.7 62.7 L 175.2 61.5 L 179.8 68.3 L 184.4 63.0 L 189.0 65.6 L 193.5 80.9 L 198.1 94.0 L 202.7 77.3 L 207.3 80.1 L 211.8 82.4 L 216.4 78.4 L 221.0 70.8 L 225.6 123.1 L 230.1 131.9 L 234.7 123.7 L 239.3 116.7 L 243.8 117.9 L 248.4 119.0 L 253.0 120.6 L 257.6 129.9 L 262.1 117.1 L 266.7 117.5 L 271.3 108.5 L 275.9 103.0 L 280.4 98.9 L 285.0 108.8 L 289.6 109.5 L 294.1 109.9 L 298.7 115.2 L 303.3 115.3 L 307.9 124.5 L 312.4 126.8 L 317.0 122.9 L 321.6 129.5 L 326.2 124.4 L 330.7 128.0 L 335.3 130.6 L 339.9 139.6 L 344.4 148.2 L 349.0 139.1 L 353.6 143.6 L 358.2 139.6 L 362.7 138.6 L 367.3 133.5 L 371.9 141.3 L 376.5 141.4 L 381.0 138.0 L 385.6 128.8 L 390.2 118.8 L 394.8 119.9 L 399.3 121.8 L 403.9 121.3 L 408.5 113.7 L 413.0 112.4 L 417.6 114.4 L 422.2 121.8 L 426.8 129.6 L 431.3 140.9 L 435.9 140.2 L 440.5 138.4 L 445.1 141.9 L 449.6 145.6 L 454.2 143.2 L 458.8 142.5 L 463.3 135.3 L 467.9 136.5 L 472.5 140.2 L 477.1 148.4 L 481.6 143.1 L 486.2 162.4 L 490.8 171.3 L 495.4 172.6 L 499.9 165.8 L 504.5 159.7 L 509.1 160.3 L 513.6 157.8 L 518.2 150.6 L 522.8 139.9 L 527.4 129.5 L 531.9 132.4 L 536.5 127.2 L 541.1 123.6 L 545.7 114.7 L 550.2 116.4 L 554.8 112.1 L 559.4 118.0 L 564 121.1"  stroke-linejoin="round" stroke-linecap="round"  stroke="black" stroke-opacity="0.0" stroke-width="5" transform="translate(1, 1)"></path><path fill="none" d="M -3.0 43.6 L 1.5 47.1 L 6.0 47.0 L 10.6 52.0 L 15.2 61.2 L 19.8 59.5 L 24.3 28.2 L 28.9 32.2 L 33.5 31.5 L 38.1 23.4 L 42.6 8.6 L 47.2 12.5 L 51.8 14.0 L 56.4 8.7 L 60.9 12.1 L 65.5 11.3 L 70.1 19.8 L 74.6 50.4 L 79.2 43.4 L 83.8 55.0 L 88.4 57.8 L 92.9 48.2 L 97.5 50.2 L 102.1 57.9 L 106.7 74.3 L 111.2 66.8 L 115.8 54.4 L 120.4 60.7 L 124.9 64.4 L 129.5 66.4 L 134.1 65.7 L 138.7 71.6 L 143.2 69.9 L 147.8 74.4 L 152.4 55.8 L 157.0 41.9 L 161.5 47.7 L 166.1 60.1 L 170.7 62.7 L 175.2 61.5 L 179.8 68.3 L 184.4 63.0 L 189.0 65.6 L 193.5 80.9 L 198.1 94.0 L 202.7 77.3 L 207.3 80.1 L 211.8 82.4 L 216.4 78.4 L 221.0 70.8 L 225.6 123.1 L 230.1 131.9 L 234.7 123.7 L 239.3 116.7 L 243.8 117.9 L 248.4 119.0 L 253.0 120.6 L 257.6 129.9 L 262.1 117.1 L 266.7 117.5 L 271.3 108.5 L 275.9 103.0 L 280.4 98.9 L 285.0 108.8 L 289.6 109.5 L 294.1 109.9 L 298.7 115.2 L 303.3 115.3 L 307.9 124.5 L 312.4 126.8 L 317.0 122.9 L 321.6 129.5 L 326.2 124.4 L 330.7 128.0 L 335.3 130.6 L 339.9 139.6 L 344.4 148.2 L 349.0 139.1 L 353.6 143.6 L 358.2 139.6 L 362.7 138.6 L 367.3 133.5 L 371.9 141.3 L 376.5 141.4 L 381.0 138.0 L 385.6 128.8 L 390.2 118.8 L 394.8 119.9 L 399.3 121.8 L 403.9 121.3 L 408.5 113.7 L 413.0 112.4 L 417.6 114.4 L 422.2 121.8 L 426.8 129.6 L 431.3 140.9 L 435.9 140.2 L 440.5 138.4 L 445.1 141.9 L 449.6 145.6 L 454.2 143.2 L 458.8 142.5 L 463.3 135.3 L 467.9 136.5 L 472.5 140.2 L 477.1 148.4 L 481.6 143.1 L 486.2 162.4 L 490.8 171.3 L 495.4 172.6 L 499.9 165.8 L 504.5 159.7 L 509.1 160.3 L 513.6 157.8 L 518.2 150.6 L 522.8 139.9 L 527.4 129.5 L 531.9 132.4 L 536.5 127.2 L 541.1 123.6 L 545.7 114.7 L 550.2 116.4 L 554.8 112.1 L 559.4 118.0 L 564 121.1"  stroke-linejoin="round" stroke-linecap="round"  stroke="black" stroke-opacity="0.0" stroke-width="3" transform="translate(1, 1)"></path><path fill="none" d="M -3.0 43.6 L 1.5 47.1 L 6.0 47.0 L 10.6 52.0 L 15.2 61.2 L 19.8 59.5 L 24.3 28.2 L 28.9 32.2 L 33.5 31.5 L 38.1 23.4 L 42.6 8.6 L 47.2 12.5 L 51.8 14.0 L 56.4 8.7 L 60.9 12.1 L 65.5 11.3 L 70.1 19.8 L 74.6 50.4 L 79.2 43.4 L 83.8 55.0 L 88.4 57.8 L 92.9 48.2 L 97.5 50.2 L 102.1 57.9 L 106.7 74.3 L 111.2 66.8 L 115.8 54.4 L 120.4 60.7 L 124.9 64.4 L 129.5 66.4 L 134.1 65.7 L 138.7 71.6 L 143.2 69.9 L 147.8 74.4 L 152.4 55.8 L 157.0 41.9 L 161.5 47.7 L 166.1 60.1 L 170.7 62.7 L 175.2 61.5 L 179.8 68.3 L 184.4 63.0 L 189.0 65.6 L 193.5 80.9 L 198.1 94.0 L 202.7 77.3 L 207.3 80.1 L 211.8 82.4 L 216.4 78.4 L 221.0 70.8 L 225.6 123.1 L 230.1 131.9 L 234.7 123.7 L 239.3 116.7 L 243.8 117.9 L 248.4 119.0 L 253.0 120.6 L 257.6 129.9 L 262.1 117.1 L 266.7 117.5 L 271.3 108.5 L 275.9 103.0 L 280.4 98.9 L 285.0 108.8 L 289.6 109.5 L 294.1 109.9 L 298.7 115.2 L 303.3 115.3 L 307.9 124.5 L 312.4 126.8 L 317.0 122.9 L 321.6 129.5 L 326.2 124.4 L 330.7 128.0 L 335.3 130.6 L 339.9 139.6 L 344.4 148.2 L 349.0 139.1 L 353.6 143.6 L 358.2 139.6 L 362.7 138.6 L 367.3 133.5 L 371.9 141.3 L 376.5 141.4 L 381.0 138.0 L 385.6 128.8 L 390.2 118.8 L 394.8 119.9 L 399.3 121.8 L 403.9 121.3 L 408.5 113.7 L 413.0 112.4 L 417.6 114.4 L 422.2 121.8 L 426.8 129.6 L 431.3 140.9 L 435.9 140.2 L 440.5 138.4 L 445.1 141.9 L 449.6 145.6 L 454.2 143.2 L 458.8 142.5 L 463.3 135.3 L 467.9 136.5 L 472.5 140.2 L 477.1 148.4 L 481.6 143.1 L 486.2 162.4 L 490.8 171.3 L 495.4 172.6 L 499.9 165.8 L 504.5 159.7 L 509.1 160.3 L 513.6 157.8 L 518.2 150.6 L 522.8 139.9 L 527.4 129.5 L 531.9 132.4 L 536.5 127.2 L 541.1 123.6 L 545.7 114.7 L 550.2 116.4 L 554.8 112.1 L 559.4 118.0 L 564 121.1"  stroke-linejoin="round" stroke-linecap="round"  stroke="black" stroke-opacity="0.1" stroke-width="1" transform="translate(1, 1)"></path><path fill="none" d="M -3.0 43.6 L 1.5 47.1 L 6.0 47.0 L 10.6 52.0 L 15.2 61.2 L 19.8 59.5 L 24.3 28.2 L 28.9 32.2 L 33.5 31.5 L 38.1 23.4 L 42.6 8.6 L 47.2 12.5 L 51.8 14.0 L 56.4 8.7 L 60.9 12.1 L 65.5 11.3 L 70.1 19.8 L 74.6 50.4 L 79.2 43.4 L 83.8 55.0 L 88.4 57.8 L 92.9 48.2 L 97.5 50.2 L 102.1 57.9 L 106.7 74.3 L 111.2 66.8 L 115.8 54.4 L 120.4 60.7 L 124.9 64.4 L 129.5 66.4 L 134.1 65.7 L 138.7 71.6 L 143.2 69.9 L 147.8 74.4 L 152.4 55.8 L 157.0 41.9 L 161.5 47.7 L 166.1 60.1 L 170.7 62.7 L 175.2 61.5 L 179.8 68.3 L 184.4 63.0 L 189.0 65.6 L 193.5 80.9 L 198.1 94.0 L 202.7 77.3 L 207.3 80.1 L 211.8 82.4 L 216.4 78.4 L 221.0 70.8 L 225.6 123.1 L 230.1 131.9 L 234.7 123.7 L 239.3 116.7 L 243.8 117.9 L 248.4 119.0 L 253.0 120.6 L 257.6 129.9 L 262.1 117.1 L 266.7 117.5 L 271.3 108.5 L 275.9 103.0 L 280.4 98.9 L 285.0 108.8 L 289.6 109.5 L 294.1 109.9 L 298.7 115.2 L 303.3 115.3 L 307.9 124.5 L 312.4 126.8 L 317.0 122.9 L 321.6 129.5 L 326.2 124.4 L 330.7 128.0 L 335.3 130.6 L 339.9 139.6 L 344.4 148.2 L 349.0 139.1 L 353.6 143.6 L 358.2 139.6 L 362.7 138.6 L 367.3 133.5 L 371.9 141.3 L 376.5 141.4 L 381.0 138.0 L 385.6 128.8 L 390.2 118.8 L 394.8 119.9 L 399.3 121.8 L 403.9 121.3 L 408.5 113.7 L 413.0 112.4 L 417.6 114.4 L 422.2 121.8 L 426.8 129.6 L 431.3 140.9 L 435.9 140.2 L 440.5 138.4 L 445.1 141.9 L 449.6 145.6 L 454.2 143.2 L 458.8 142.5 L 463.3 135.3 L 467.9 136.5 L 472.5 140.2 L 477.1 148.4 L 481.6 143.1 L 486.2 162.4 L 490.8 171.3 L 495.4 172.6 L 499.9 165.8 L 504.5 159.7 L 509.1 160.3 L 513.6 157.8 L 518.2 150.6 L 522.8 139.9 L 527.4 129.5 L 531.9 132.4 L 536.5 127.2 L 541.1 123.6 L 545.7 114.7 L 550.2 116.4 L 554.8 112.1 L 559.4 118.0 L 564 121.1"  stroke-linejoin="round" stroke-linecap="round"></path><path fill="none" d="M -13.0 43.6 L -3.0 43.6 L 1.5 47.1 L 6.0 47.0 L 10.6 52.0 L 15.2 61.2 L 19.8 59.5 L 24.3 28.2 L 28.9 32.2 L 33.5 31.5 L 38.1 23.4 L 42.6 8.6 L 47.2 12.5 L 51.8 14.0 L 56.4 8.7 L 60.9 12.1 L 65.5 11.3 L 70.1 19.8 L 74.6 50.4 L 79.2 43.4 L 83.8 55.0 L 88.4 57.8 L 92.9 48.2 L 97.5 50.2 L 102.1 57.9 L 106.7 74.3 L 111.2 66.8 L 115.8 54.4 L 120.4 60.7 L 124.9 64.4 L 129.5 66.4 L 134.1 65.7 L 138.7 71.6 L 143.2 69.9 L 147.8 74.4 L 152.4 55.8 L 157.0 41.9 L 161.5 47.7 L 166.1 60.1 L 170.7 62.7 L 175.2 61.5 L 179.8 68.3 L 184.4 63.0 L 189.0 65.6 L 193.5 80.9 L 198.1 94.0 L 202.7 77.3 L 207.3 80.1 L 211.8 82.4 L 216.4 78.4 L 221.0 70.8 L 225.6 123.1 L 230.1 131.9 L 234.7 123.7 L 239.3 116.7 L 243.8 117.9 L 248.4 119.0 L 253.0 120.6 L 257.6 129.9 L 262.1 117.1 L 266.7 117.5 L 271.3 108.5 L 275.9 103.0 L 280.4 98.9 L 285.0 108.8 L 289.6 109.5 L 294.1 109.9 L 298.7 115.2 L 303.3 115.3 L 307.9 124.5 L 312.4 126.8 L 317.0 122.9 L 321.6 129.5 L 326.2 124.4 L 330.7 128.0 L 335.3 130.6 L 339.9 139.6 L 344.4 148.2 L 349.0 139.1 L 353.6 143.6 L 358.2 139.6 L 362.7 138.6 L 367.3 133.5 L 371.9 141.3 L 376.5 141.4 L 381.0 138.0 L 385.6 128.8 L 390.2 118.8 L 394.8 119.9 L 399.3 121.8 L 403.9 121.3 L 408.5 113.7 L 413.0 112.4 L 417.6 114.4 L 422.2 121.8 L 426.8 129.6 L 431.3 140.9 L 435.9 140.2 L 440.5 138.4 L 445.1 141.9 L 449.6 145.6 L 454.2 143.2 L 458.8 142.5 L 463.3 135.3 L 467.9 136.5 L 472.5 140.2 L 477.1 148.4 L 481.6 143.1 L 486.2 162.4 L 490.8 171.3 L 495.4 172.6 L 499.9 165.8 L 504.5 159.7 L 509.1 160.3 L 513.6 157.8 L 518.2 150.6 L 522.8 139.9 L 527.4 129.5 L 531.9 132.4 L 536.5 127.2 L 541.1 123.6 L 545.7 114.7 L 550.2 116.4 L 554.8 112.1 L 559.4 118.0 L 564 121.1 L 574 121.1" stroke-linejoin="round" visibility="visible" stroke="rgb(192,192,192)" stroke-opacity="0.0" stroke-width="20"  class=" highcharts-tracker" style=""></path></g><g class="highcharts-markers highcharts-tracker" visibility="visible"  transform="translate(10,79) scale(1 1)" clip-path="url(#highcharts-2)" style=""><path fill="#f45b5b" d="M 564 119.1 C 566.6 119.1 566.6 123.1 564 123.1 C 561.3 123.1 561.3 119.1 564 119.1 Z"></path><path fill="#f45b5b" d="M 559 116.0 C 561.6 116.0 561.6 120.0 559 120.0 C 556.3 120.0 556.3 116.0 559 116.0 Z"></path><path fill="#f45b5b" d="M 554 110.1 C 556.6 110.1 556.6 114.1 554 114.1 C 551.3 114.1 551.3 110.1 554 110.1 Z"></path><path fill="#f45b5b" d="M 550 114.4 C 552.6 114.4 552.6 118.4 550 118.4 C 547.3 118.4 547.3 114.4 550 114.4 Z"></path><path fill="#f45b5b" d="M 545 112.7 C 547.6 112.7 547.6 116.7 545 116.7 C 542.3 116.7 542.3 112.7 545 112.7 Z"></path><path fill="#f45b5b" d="M 541 121.6 C 543.6 121.6 543.6 125.6 541 125.6 C 538.3 125.6 538.3 121.6 541 121.6 Z"></path><path fill="#f45b5b" d="M 536 125.2 C 538.6 125.2 538.6 129.2 536 129.2 C 533.3 129.2 533.3 125.2 536 125.2 Z"></path><path fill="#f45b5b" d="M 531 130.4 C 533.6 130.4 533.6 134.4 531 134.4 C 528.3 134.4 528.3 130.4 531 130.4 Z"></path><path fill="#f45b5b" d="M 527 127.5 C 529.6 127.5 529.6 131.5 527 131.5 C 524.3 131.5 524.3 127.5 527 127.5 Z"></path><path fill="#f45b5b" d="M 522 137.9 C 524.6 137.9 524.6 141.9 522 141.9 C 519.3 141.9 519.3 137.9 522 137.9 Z"></path><path fill="#f45b5b" d="M 518 148.6 C 520.6 148.6 520.6 152.6 518 152.6 C 515.3 152.6 515.3 148.6 518 148.6 Z"></path><path fill="#f45b5b" d="M 513 155.8 C 515.6 155.8 515.6 159.8 513 159.8 C 510.3 159.8 510.3 155.8 513 155.8 Z"></path><path fill="#f45b5b" d="M 509 158.3 C 511.6 158.3 511.6 162.3 509 162.3 C 506.3 162.3 506.3 158.3 509 158.3 Z"></path><path fill="#f45b5b" d="M 504 157.7 C 506.6 157.7 506.6 161.7 504 161.7 C 501.3 161.7 501.3 157.7 504 157.7 Z"></path><path fill="#f45b5b" d="M 499 163.8 C 501.6 163.8 501.6 167.8 499 167.8 C 496.3 167.8 496.3 163.8 499 163.8 Z"></path><path fill="#f45b5b" d="M 495 170.6 C 497.6 170.6 497.6 174.6 495 174.6 C 492.3 174.6 492.3 170.6 495 170.6 Z"></path><path fill="#f45b5b" d="M 490 169.3 C 492.6 169.3 492.6 173.3 490 173.3 C 487.3 173.3 487.3 169.3 490 169.3 Z"></path><path fill="#f45b5b" d="M 486 160.4 C 488.6 160.4 488.6 164.4 486 164.4 C 483.3 164.4 483.3 160.4 486 160.4 Z"></path><path fill="#f45b5b" d="M 481 141.1 C 483.6 141.1 483.6 145.1 481 145.1 C 478.3 145.1 478.3 141.1 481 141.1 Z"></path><path fill="#f45b5b" d="M 477 146.4 C 479.6 146.4 479.6 150.4 477 150.4 C 474.3 150.4 474.3 146.4 477 146.4 Z"></path><path fill="#f45b5b" d="M 472 138.2 C 474.6 138.2 474.6 142.2 472 142.2 C 469.3 142.2 469.3 138.2 472 138.2 Z"></path><path fill="#f45b5b" d="M 467 134.5 C 469.6 134.5 469.6 138.5 467 138.5 C 464.3 138.5 464.3 134.5 467 134.5 Z"></path><path fill="#f45b5b" d="M 463 133.3 C 465.6 133.3 465.6 137.3 463 137.3 C 460.3 137.3 460.3 133.3 463 133.3 Z"></path><path fill="#f45b5b" d="M 458 140.5 C 460.6 140.5 460.6 144.5 458 144.5 C 455.3 144.5 455.3 140.5 458 140.5 Z"></path><path fill="#f45b5b" d="M 454 141.2 C 456.6 141.2 456.6 145.2 454 145.2 C 451.3 145.2 451.3 141.2 454 141.2 Z"></path><path fill="#f45b5b" d="M 449 143.6 C 451.6 143.6 451.6 147.6 449 147.6 C 446.3 147.6 446.3 143.6 449 143.6 Z"></path><path fill="#f45b5b" d="M 445 139.9 C 447.6 139.9 447.6 143.9 445 143.9 C 442.3 143.9 442.3 139.9 445 139.9 Z"></path><path fill="#f45b5b" d="M 440 136.4 C 442.6 136.4 442.6 140.4 440 140.4 C 437.3 140.4 437.3 136.4 440 136.4 Z"></path><path fill="#f45b5b" d="M 435 138.2 C 437.6 138.2 437.6 142.2 435 142.2 C 432.3 142.2 432.3 138.2 435 138.2 Z"></path><path fill="#f45b5b" d="M 431 138.9 C 433.6 138.9 433.6 142.9 431 142.9 C 428.3 142.9 428.3 138.9 431 138.9 Z"></path><path fill="#f45b5b" d="M 426 127.6 C 428.6 127.6 428.6 131.6 426 131.6 C 423.3 131.6 423.3 127.6 426 127.6 Z"></path><path fill="#f45b5b" d="M 422 119.8 C 424.6 119.8 424.6 123.8 422 123.8 C 419.3 123.8 419.3 119.8 422 119.8 Z"></path><path fill="#f45b5b" d="M 417 112.4 C 419.6 112.4 419.6 116.4 417 116.4 C 414.3 116.4 414.3 112.4 417 112.4 Z"></path><path fill="#f45b5b" d="M 413 110.4 C 415.6 110.4 415.6 114.4 413 114.4 C 410.3 114.4 410.3 110.4 413 110.4 Z"></path><path fill="#f45b5b" d="M 408 111.7 C 410.6 111.7 410.6 115.7 408 115.7 C 405.3 115.7 405.3 111.7 408 111.7 Z"></path><path fill="#f45b5b" d="M 403 119.3 C 405.6 119.3 405.6 123.3 403 123.3 C 400.3 123.3 400.3 119.3 403 119.3 Z"></path><path fill="#f45b5b" d="M 399 119.8 C 401.6 119.8 401.6 123.8 399 123.8 C 396.3 123.8 396.3 119.8 399 119.8 Z"></path><path fill="#f45b5b" d="M 394 117.9 C 396.6 117.9 396.6 121.9 394 121.9 C 391.3 121.9 391.3 117.9 394 117.9 Z"></path><path fill="#f45b5b" d="M 390 116.8 C 392.6 116.8 392.6 120.8 390 120.8 C 387.3 120.8 387.3 116.8 390 116.8 Z"></path><path fill="#f45b5b" d="M 385 126.8 C 387.6 126.8 387.6 130.8 385 130.8 C 382.3 130.8 382.3 126.8 385 126.8 Z"></path><path fill="#f45b5b" d="M 381 136.0 C 383.6 136.0 383.6 140.0 381 140.0 C 378.3 140.0 378.3 136.0 381 136.0 Z"></path><path fill="#f45b5b" d="M 376 139.4 C 378.6 139.4 378.6 143.4 376 143.4 C 373.3 143.4 373.3 139.4 376 139.4 Z"></path><path fill="#f45b5b" d="M 371 139.3 C 373.6 139.3 373.6 143.3 371 143.3 C 368.3 143.3 368.3 139.3 371 139.3 Z"></path><path fill="#f45b5b" d="M 367 131.5 C 369.6 131.5 369.6 135.5 367 135.5 C 364.3 135.5 364.3 131.5 367 131.5 Z"></path><path fill="#f45b5b" d="M 362 136.6 C 364.6 136.6 364.6 140.6 362 140.6 C 359.3 140.6 359.3 136.6 362 136.6 Z"></path><path fill="#f45b5b" d="M 358 137.6 C 360.6 137.6 360.6 141.6 358 141.6 C 355.3 141.6 355.3 137.6 358 137.6 Z"></path><path fill="#f45b5b" d="M 353 141.6 C 355.6 141.6 355.6 145.6 353 145.6 C 350.3 145.6 350.3 141.6 353 141.6 Z"></path><path fill="#f45b5b" d="M 349 137.1 C 351.6 137.1 351.6 141.1 349 141.1 C 346.3 141.1 346.3 137.1 349 137.1 Z"></path><path fill="#f45b5b" d="M 344 146.2 C 346.6 146.2 346.6 150.2 344 150.2 C 341.3 150.2 341.3 146.2 344 146.2 Z"></path><path fill="#f45b5b" d="M 339 137.6 C 341.6 137.6 341.6 141.6 339 141.6 C 336.3 141.6 336.3 137.6 339 137.6 Z"></path><path fill="#f45b5b" d="M 335 128.6 C 337.6 128.6 337.6 132.6 335 132.6 C 332.3 132.6 332.3 128.6 335 128.6 Z"></path><path fill="#f45b5b" d="M 330 126.0 C 332.6 126.0 332.6 130.0 330 130.0 C 327.3 130.0 327.3 126.0 330 126.0 Z"></path><path fill="#f45b5b" d="M 326 122.4 C 328.6 122.4 328.6 126.4 326 126.4 C 323.3 126.4 323.3 122.4 326 122.4 Z"></path><path fill="#f45b5b" d="M 321 127.5 C 323.6 127.5 323.6 131.5 321 131.5 C 318.3 131.5 318.3 127.5 321 127.5 Z"></path><path fill="#f45b5b" d="M 317 120.9 C 319.6 120.9 319.6 124.9 317 124.9 C 314.3 124.9 314.3 120.9 317 120.9 Z"></path><path fill="#f45b5b" d="M 312 124.8 C 314.6 124.8 314.6 128.8 312 128.8 C 309.3 128.8 309.3 124.8 312 124.8 Z"></path><path fill="#f45b5b" d="M 307 122.5 C 309.6 122.5 309.6 126.5 307 126.5 C 304.3 126.5 304.3 122.5 307 122.5 Z"></path><path fill="#f45b5b" d="M 303 113.3 C 305.6 113.3 305.6 117.3 303 117.3 C 300.3 117.3 300.3 113.3 303 113.3 Z"></path><path fill="#f45b5b" d="M 298 113.2 C 300.6 113.2 300.6 117.2 298 117.2 C 295.3 117.2 295.3 113.2 298 113.2 Z"></path><path fill="#f45b5b" d="M 294 107.9 C 296.6 107.9 296.6 111.9 294 111.9 C 291.3 111.9 291.3 107.9 294 107.9 Z"></path><path fill="#f45b5b" d="M 289 107.5 C 291.6 107.5 291.6 111.5 289 111.5 C 286.3 111.5 286.3 107.5 289 107.5 Z"></path><path fill="#f45b5b" d="M 285 106.8 C 287.6 106.8 287.6 110.8 285 110.8 C 282.3 110.8 282.3 106.8 285 106.8 Z"></path><path fill="#f45b5b" d="M 280 96.9 C 282.6 96.9 282.6 100.9 280 100.9 C 277.3 100.9 277.3 96.9 280 96.9 Z"></path><path fill="#f45b5b" d="M 275 101.0 C 277.6 101.0 277.6 105.0 275 105.0 C 272.3 105.0 272.3 101.0 275 101.0 Z"></path><path fill="#f45b5b" d="M 271 106.5 C 273.6 106.5 273.6 110.5 271 110.5 C 268.3 110.5 268.3 106.5 271 106.5 Z"></path><path fill="#f45b5b" d="M 266 115.5 C 268.6 115.5 268.6 119.5 266 119.5 C 263.3 119.5 263.3 115.5 266 115.5 Z"></path><path fill="#f45b5b" d="M 262 115.1 C 264.6 115.1 264.6 119.1 262 119.1 C 259.3 119.1 259.3 115.1 262 115.1 Z"></path><path fill="#f45b5b" d="M 257 127.9 C 259.6 127.9 259.6 131.9 257 131.9 C 254.3 131.9 254.3 127.9 257 127.9 Z"></path><path fill="#f45b5b" d="M 253 118.6 C 255.6 118.6 255.6 122.6 253 122.6 C 250.3 122.6 250.3 118.6 253 118.6 Z"></path><path fill="#f45b5b" d="M 248 117.0 C 250.6 117.0 250.6 121.0 248 121.0 C 245.3 121.0 245.3 117.0 248 117.0 Z"></path><path fill="#f45b5b" d="M 243 115.9 C 245.6 115.9 245.6 119.9 243 119.9 C 240.3 119.9 240.3 115.9 243 115.9 Z"></path><path fill="#f45b5b" d="M 239 114.7 C 241.6 114.7 241.6 118.7 239 118.7 C 236.3 118.7 236.3 114.7 239 114.7 Z"></path><path fill="#f45b5b" d="M 234 121.7 C 236.6 121.7 236.6 125.7 234 125.7 C 231.3 125.7 231.3 121.7 234 121.7 Z"></path><path fill="#f45b5b" d="M 230 129.9 C 232.6 129.9 232.6 133.9 230 133.9 C 227.3 133.9 227.3 129.9 230 129.9 Z"></path><path fill="#f45b5b" d="M 225 121.1 C 227.6 121.1 227.6 125.1 225 125.1 C 222.3 125.1 222.3 121.1 225 121.1 Z"></path><path fill="#f45b5b" d="M 221 68.8 C 223.6 68.8 223.6 72.8 221 72.8 C 218.3 72.8 218.3 68.8 221 68.8 Z"></path><path fill="#f45b5b" d="M 216 76.4 C 218.6 76.4 218.6 80.4 216 80.4 C 213.3 80.4 213.3 76.4 216 76.4 Z"></path><path fill="#f45b5b" d="M 211 80.4 C 213.6 80.4 213.6 84.4 211 84.4 C 208.3 84.4 208.3 80.4 211 80.4 Z"></path><path fill="#f45b5b" d="M 207 78.1 C 209.6 78.1 209.6 82.1 207 82.1 C 204.3 82.1 204.3 78.1 207 78.1 Z"></path><path fill="#f45b5b" d="M 202 75.3 C 204.6 75.3 204.6 79.3 202 79.3 C 199.3 79.3 199.3 75.3 202 75.3 Z"></path><path fill="#f45b5b" d="M 198 92.0 C 200.6 92.0 200.6 96.0 198 96.0 C 195.3 96.0 195.3 92.0 198 92.0 Z"></path><path fill="#f45b5b" d="M 193 78.9 C 195.6 78.9 195.6 82.9 193 82.9 C 190.3 82.9 190.3 78.9 193 78.9 Z"></path><path fill="#f45b5b" d="M 189 63.6 C 191.6 63.6 191.6 67.6 189 67.6 C 186.3 67.6 186.3 63.6 189 63.6 Z"></path><path fill="#f45b5b" d="M 184 61.0 C 186.6 61.0 186.6 65.0 184 65.0 C 181.3 65.0 181.3 61.0 184 61.0 Z"></path><path fill="#f45b5b" d="M 179 66.3 C 181.6 66.3 181.6 70.3 179 70.3 C 176.3 70.3 176.3 66.3 179 66.3 Z"></path><path fill="#f45b5b" d="M 175 59.5 C 177.6 59.5 177.6 63.5 175 63.5 C 172.3 63.5 172.3 59.5 175 59.5 Z"></path><path fill="#f45b5b" d="M 170 60.7 C 172.6 60.7 172.6 64.7 170 64.7 C 167.3 64.7 167.3 60.7 170 60.7 Z"></path><path fill="#f45b5b" d="M 166 58.1 C 168.6 58.1 168.6 62.1 166 62.1 C 163.3 62.1 163.3 58.1 166 58.1 Z"></path><path fill="#f45b5b" d="M 161 45.7 C 163.6 45.7 163.6 49.7 161 49.7 C 158.3 49.7 158.3 45.7 161 45.7 Z"></path><path fill="#f45b5b" d="M 157 39.9 C 159.6 39.9 159.6 43.9 157 43.9 C 154.3 43.9 154.3 39.9 157 39.9 Z"></path><path fill="#f45b5b" d="M 152 53.8 C 154.6 53.8 154.6 57.8 152 57.8 C 149.3 57.8 149.3 53.8 152 53.8 Z"></path><path fill="#f45b5b" d="M 147 72.4 C 149.6 72.4 149.6 76.4 147 76.4 C 144.3 76.4 144.3 72.4 147 72.4 Z"></path><path fill="#f45b5b" d="M 143 67.9 C 145.6 67.9 145.6 71.9 143 71.9 C 140.3 71.9 140.3 67.9 143 67.9 Z"></path><path fill="#f45b5b" d="M 138 69.6 C 140.6 69.6 140.6 73.6 138 73.6 C 135.3 73.6 135.3 69.6 138 69.6 Z"></path><path fill="#f45b5b" d="M 134 63.7 C 136.6 63.7 136.6 67.7 134 67.7 C 131.3 67.7 131.3 63.7 134 63.7 Z"></path><path fill="#f45b5b" d="M 129 64.4 C 131.6 64.4 131.6 68.4 129 68.4 C 126.3 68.4 126.3 64.4 129 64.4 Z"></path><path fill="#f45b5b" d="M 124 62.4 C 126.6 62.4 126.6 66.4 124 66.4 C 121.3 66.4 121.3 62.4 124 62.4 Z"></path><path fill="#f45b5b" d="M 120 58.7 C 122.6 58.7 122.6 62.7 120 62.7 C 117.3 62.7 117.3 58.7 120 58.7 Z"></path><path fill="#f45b5b" d="M 115 52.4 C 117.6 52.4 117.6 56.4 115 56.4 C 112.3 56.4 112.3 52.4 115 52.4 Z"></path><path fill="#f45b5b" d="M 111 64.8 C 113.6 64.8 113.6 68.8 111 68.8 C 108.3 68.8 108.3 64.8 111 64.8 Z"></path><path fill="#f45b5b" d="M 106 72.3 C 108.6 72.3 108.6 76.3 106 76.3 C 103.3 76.3 103.3 72.3 106 72.3 Z"></path><path fill="#f45b5b" d="M 102 55.9 C 104.6 55.9 104.6 59.9 102 59.9 C 99.3 59.9 99.3 55.9 102 55.9 Z"></path><path fill="#f45b5b" d="M 97 48.2 C 99.6 48.2 99.6 52.2 97 52.2 C 94.3 52.2 94.3 48.2 97 48.2 Z"></path><path fill="#f45b5b" d="M 92 46.2 C 94.6 46.2 94.6 50.2 92 50.2 C 89.3 50.2 89.3 46.2 92 46.2 Z"></path><path fill="#f45b5b" d="M 88 55.8 C 90.6 55.8 90.6 59.8 88 59.8 C 85.3 59.8 85.3 55.8 88 55.8 Z"></path><path fill="#f45b5b" d="M 83 53.0 C 85.6 53.0 85.6 57.0 83 57.0 C 80.3 57.0 80.3 53.0 83 53.0 Z"></path><path fill="#f45b5b" d="M 79 41.4 C 81.6 41.4 81.6 45.4 79 45.4 C 76.3 45.4 76.3 41.4 79 41.4 Z"></path><path fill="#f45b5b" d="M 74 48.4 C 76.6 48.4 76.6 52.4 74 52.4 C 71.3 52.4 71.3 48.4 74 48.4 Z"></path><path fill="#f45b5b" d="M 70 17.8 C 72.6 17.8 72.6 21.8 70 21.8 C 67.3 21.8 67.3 17.8 70 17.8 Z"></path><path fill="#f45b5b" d="M 65 9.3 C 67.6 9.3 67.6 13.3 65 13.3 C 62.3 13.3 62.3 9.3 65 9.3 Z"></path><path fill="#f45b5b" d="M 60 10.1 C 62.6 10.1 62.6 14.1 60 14.1 C 57.3 14.1 57.3 10.1 60 10.1 Z"></path><path fill="#f45b5b" d="M 56 6.7 C 58.6 6.7 58.6 10.7 56 10.7 C 53.3 10.7 53.3 6.7 56 6.7 Z"></path><path fill="#f45b5b" d="M 51 12.0 C 53.6 12.0 53.6 16.0 51 16.0 C 48.3 16.0 48.3 12.0 51 12.0 Z"></path><path fill="#f45b5b" d="M 47 10.5 C 49.6 10.5 49.6 14.5 47 14.5 C 44.3 14.5 44.3 10.5 47 10.5 Z"></path><path fill="#f45b5b" d="M 42 6.6 C 44.6 6.6 44.6 10.6 42 10.6 C 39.3 10.6 39.3 6.6 42 6.6 Z"></path><path fill="#f45b5b" d="M 38 21.4 C 40.6 21.4 40.6 25.4 38 25.4 C 35.3 25.4 35.3 21.4 38 21.4 Z"></path><path fill="#f45b5b" d="M 33 29.5 C 35.6 29.5 35.6 33.5 33 33.5 C 30.3 33.5 30.3 29.5 33 29.5 Z"></path><path fill="#f45b5b" d="M 28 30.2 C 30.6 30.2 30.6 34.2 28 34.2 C 25.3 34.2 25.3 30.2 28 30.2 Z"></path><path fill="#f45b5b" d="M 24 26.2 C 26.6 26.2 26.6 30.2 24 30.2 C 21.3 30.2 21.3 26.2 24 26.2 Z"></path><path fill="#f45b5b" d="M 19 57.5 C 21.6 57.5 21.6 61.5 19 61.5 C 16.3 61.5 16.3 57.5 19 57.5 Z"></path><path fill="#f45b5b" d="M 15 59.2 C 17.6 59.2 17.6 63.2 15 63.2 C 12.3 63.2 12.3 59.2 15 59.2 Z"></path><path fill="#f45b5b" d="M 10 50.0 C 12.6 50.0 12.6 54.0 10 54.0 C 7.3 54.0 7.3 50.0 10 50.0 Z"></path><path fill="#f45b5b" d="M 6 45.0 C 8.6 45.0 8.6 49.0 6 49.0 C 3.3 49.0 3.3 45.0 6 45.0 Z"></path><path fill="#f45b5b" d="M 1 45.1 C 3.6 45.1 3.6 49.1 1 49.1 C -1.6 49.1 -1.6 45.1 1 45.1 Z"></path></g><g class="highcharts-series" visibility="visible"  transform="translate(24,331) scale(1 1)" clip-path="url(#highcharts-5)"><path fill="rgb(69,114,167)" fill-opacity="0.0" d="M 0 36.0 C 0 36.0 0.8 36.0 1.4 36.1 C 2.0 36.1 2.3 36.2 2.9 36.2 C 3.5 36.2 3.8 36.3 4.4 36.3 C 5.0 36.3 5.3 36.4 5.8 36.4 C 6.4 36.4 6.7 36.4 7.3 36.4 C 7.9 36.4 8.2 36.4 8.8 36.4 C 9.4 36.4 9.7 36.4 10.3 36.5 C 10.8 36.5 11.1 36.6 11.7 36.6 C 12.3 36.6 12.6 36.6 13.2 36.5 C 13.8 36.4 14.1 36.2 14.7 36.1 C 15.3 36.0 15.6 35.8 16.1 35.8 C 16.7 35.8 17.0 36.0 17.6 36.0 C 18.2 36.0 18.5 36.0 19.1 35.9 C 19.7 35.9 20.0 35.9 20.6 35.9 C 21.2 35.9 21.4 35.9 22.0 35.9 C 22.6 35.9 22.9 35.7 23.5 35.7 C 24.1 35.6 24.4 35.6 25.0 35.6 C 25.6 35.6 25.9 35.6 26.5 35.5 C 27.0 35.5 27.3 35.4 27.9 35.4 C 28.5 35.4 28.8 35.5 29.4 35.5 C 30.0 35.5 30.3 35.5 30.9 35.5 C 31.5 35.5 31.8 35.5 32.3 35.4 C 32.9 35.3 33.2 35.2 33.8 35.2 C 34.4 35.2 34.7 35.3 35.3 35.3 C 35.9 35.3 36.2 35.2 36.8 35.1 C 37.4 35.1 37.6 35.1 38.2 35.0 C 38.8 34.9 39.1 34.8 39.7 34.8 C 40.3 34.7 40.6 34.7 41.2 34.7 C 41.8 34.7 42.1 34.7 42.7 34.8 C 43.2 34.8 43.5 34.8 44.1 34.8 C 44.7 34.9 45.0 35.0 45.6 35.0 C 46.2 35.1 46.5 35.1 47.1 35.1 C 47.7 35.1 48.0 35.1 48.5 35.0 C 49.1 34.9 49.4 34.6 50.0 34.6 C 50.6 34.6 50.9 34.6 51.5 34.6 C 52.1 34.6 52.4 34.9 53.0 34.9 C 53.6 35.0 53.8 35.0 54.4 35.0 C 55.0 35.0 55.3 35.0 55.9 35.0 C 56.5 35.0 56.8 35.0 57.4 35.0 C 58.0 35.0 58.3 34.8 58.9 34.8 C 59.4 34.8 59.7 34.9 60.3 34.9 C 60.9 34.9 61.2 34.9 61.8 34.8 C 62.4 34.8 62.7 34.8 63.3 34.8 C 63.9 34.7 64.2 34.6 64.7 34.6 C 65.3 34.5 65.6 34.5 66.2 34.5 C 66.8 34.5 67.1 34.5 67.7 34.5 C 68.3 34.5 68.6 34.6 69.2 34.6 C 69.7 34.6 70.0 34.7 70.6 34.7 C 71.2 34.7 71.5 34.5 72.1 34.4 C 72.7 34.3 73.0 34.3 73.6 34.2 C 74.2 34.1 74.5 34.0 75.0 33.9 C 75.6 33.8 75.9 33.8 76.5 33.8 C 77.1 33.7 77.4 33.7 78.0 33.6 C 78.6 33.5 78.9 33.4 79.5 33.3 C 80.1 33.2 80.4 33.0 80.9 33.0 C 81.5 33.0 81.8 33.2 82.4 33.2 C 83.0 33.2 83.3 33.0 83.9 33.0 C 84.5 33.0 84.8 33.1 85.4 33.1 C 85.9 33.1 86.2 32.9 86.8 32.8 C 87.4 32.6 87.7 32.6 88.3 32.5 C 88.9 32.4 89.2 32.2 89.8 32.2 C 90.4 32.1 90.7 32.1 91.2 32.1 C 91.8 32.1 92.1 32.3 92.7 32.4 C 93.3 32.5 93.6 32.5 94.2 32.6 C 94.8 32.7 95.1 33.1 95.7 33.1 C 96.3 33.1 96.5 32.8 97.1 32.7 C 97.7 32.6 98.0 32.6 98.6 32.5 C 99.2 32.4 99.5 32.3 100.1 32.3 C 100.7 32.3 101.0 32.3 101.6 32.3 C 102.1 32.3 102.4 32.3 103.0 32.1 C 103.6 31.9 103.9 31.7 104.5 31.5 C 105.1 31.3 105.4 31.4 106.0 31.2 C 106.6 31.1 106.9 30.9 107.4 30.8 C 108.0 30.7 108.3 30.7 108.9 30.6 C 109.5 30.4 109.8 30.1 110.4 29.9 C 111.0 29.8 111.3 29.7 111.9 29.7 C 112.5 29.7 112.7 29.8 113.3 30.0 C 113.9 30.3 114.2 30.9 114.8 30.9 C 115.4 30.9 115.7 30.9 116.3 30.7 C 116.9 30.5 117.2 30.3 117.8 30.2 C 118.3 30.0 118.6 29.9 119.2 29.8 C 119.8 29.7 120.1 29.5 120.7 29.5 C 121.3 29.5 121.6 29.8 122.2 29.8 C 122.8 29.8 123.1 29.1 123.6 29.1 C 124.2 29.1 124.5 29.2 125.1 29.5 C 125.7 29.7 126.0 30.0 126.6 30.3 C 127.2 30.6 127.5 30.4 128.1 30.8 C 128.6 31.2 128.9 31.8 129.5 32.1 C 130.1 32.5 130.4 32.4 131.0 32.5 C 131.6 32.7 131.9 32.9 132.5 32.9 C 133.1 32.9 133.4 32.8 134 32.8 C 134.5 32.8 134.8 33.1 135.4 33.1 C 136.0 33.1 136.3 33.0 136.9 33.0 C 137.5 33.0 137.8 33.0 138.4 33.0 C 139.0 33.0 139.3 33.0 139.8 32.9 C 140.4 32.8 140.7 32.8 141.3 32.6 C 141.9 32.5 142.2 32.3 142.8 32.1 C 143.4 31.9 143.7 31.8 144.3 31.7 C 144.8 31.6 145.1 31.6 145.7 31.5 C 146.3 31.5 146.6 31.5 147.2 31.5 C 147.8 31.4 148.1 31.1 148.7 30.8 C 149.3 30.6 149.6 30.5 150.1 30.3 C 150.7 30.1 151.0 30.0 151.6 29.9 C 152.2 29.7 152.5 29.7 153.1 29.7 C 153.7 29.7 154.0 30.0 154.6 30.0 C 155.2 30.0 155.4 29.7 156.0 29.7 C 156.6 29.7 156.9 29.7 157.5 29.8 C 158.1 29.8 158.4 30.2 159.0 30.2 C 159.6 30.2 159.9 30.2 160.5 30.2 C 161.0 30.2 161.3 30.4 161.9 30.5 C 162.5 30.6 162.8 30.6 163.4 30.6 C 164.0 30.6 164.3 30.3 164.9 30.3 C 165.5 30.3 165.8 30.4 166.3 30.6 C 166.9 30.7 167.2 30.8 167.8 31.0 C 168.4 31.1 168.7 31.3 169.3 31.3 C 169.9 31.3 170.2 31.2 170.8 31.0 C 171.4 30.8 171.6 30.2 172.2 30.2 C 172.8 30.2 173.1 30.3 173.7 30.3 C 174.3 30.4 174.6 30.3 175.2 30.5 C 175.8 30.6 176.1 30.7 176.7 30.9 C 177.2 31.1 177.5 31.2 178.1 31.5 C 178.7 31.8 179.0 32.1 179.6 32.3 C 180.2 32.6 180.5 32.4 181.1 32.7 C 181.7 33.0 182.0 33.6 182.5 34.0 C 183.1 34.3 183.4 34.6 184.0 34.6 C 184.6 34.6 184.9 34.1 185.5 34.1 C 186.1 34.1 186.4 34.4 187.0 34.4 C 187.6 34.4 187.8 34.1 188.4 34.1 C 189.0 34.0 189.3 34.0 189.9 34.0 C 190.5 34.0 190.8 34.4 191.4 34.5 C 192.0 34.7 192.3 35.0 192.9 35.0 C 193.4 35.0 193.7 34.6 194.3 34.6 C 194.9 34.6 195.2 34.6 195.8 34.6 C 196.4 34.6 196.7 34.3 197.3 34.3 C 197.9 34.3 198.2 34.5 198.7 34.6 C 199.3 34.8 199.6 35.0 200.2 35.0 C 200.8 35.0 201.1 35.0 201.7 34.9 C 202.3 34.8 202.6 34.6 203.2 34.6 C 203.7 34.6 204.0 34.9 204.6 35.0 C 205.2 35.0 205.5 35.0 206.1 35.0 C 206.7 35.0 207.0 34.8 207.6 34.6 C 208.2 34.5 208.5 34.6 209.0 34.5 C 209.6 34.4 209.9 34.3 210.5 34.3 C 211.1 34.3 211.4 34.5 212.0 34.6 C 212.6 34.7 212.9 34.7 213.5 34.8 C 214.1 34.8 214.4 34.8 214.9 34.8 C 215.5 34.8 215.8 34.8 216.4 34.7 C 217.0 34.5 217.3 34.4 217.9 34.2 C 218.5 34.0 218.8 33.9 219.4 33.8 C 219.9 33.7 220.2 33.8 220.8 33.7 C 221.4 33.6 221.7 33.4 222.3 33.3 C 222.9 33.2 223.2 33.2 223.8 33.2 C 224.4 33.1 224.7 33.1 225.2 33.0 C 225.8 33.0 226.1 33.0 226.7 32.9 C 227.3 32.8 227.6 32.6 228.2 32.6 C 228.8 32.6 229.1 33.0 229.7 33.0 C 230.3 33.0 230.5 33.0 231.1 32.9 C 231.7 32.8 232.0 32.6 232.6 32.5 C 233.2 32.3 233.5 32.1 234.1 32.1 C 234.7 32.1 235.0 32.1 235.6 32.1 C 236.1 32.2 236.4 32.3 237.0 32.3 C 237.6 32.3 237.9 32.3 238.5 32.3 C 239.1 32.2 239.4 32.1 240.0 32.1 C 240.6 32.1 240.9 32.3 241.4 32.3 C 242.0 32.3 242.3 32.0 242.9 31.8 C 243.5 31.6 243.8 31.5 244.4 31.3 C 245.0 31.2 245.3 31.2 245.9 31.1 C 246.5 31.0 246.7 30.9 247.3 30.8 C 247.9 30.8 248.2 30.8 248.8 30.8 C 249.4 30.8 249.7 30.9 250.3 30.9 C 250.9 30.9 251.2 30.7 251.8 30.7 C 252.3 30.7 252.6 30.8 253.2 30.8 C 253.8 30.8 254.1 30.6 254.7 30.5 C 255.3 30.4 255.6 30.2 256.2 30.1 C 256.8 30.0 257.1 29.9 257.6 29.9 C 258.2 29.9 258.5 29.9 259.1 29.9 C 259.7 29.8 260.0 29.7 260.6 29.6 C 261.2 29.6 261.5 29.6 262.1 29.6 C 262.6 29.5 262.9 29.0 263.5 29.0 C 264.1 29.0 264.4 29.2 265.0 29.3 C 265.6 29.4 265.9 29.5 266.5 29.5 C 267.1 29.5 267.4 29.0 268 28.9 C 268.5 28.9 268.8 28.9 269.4 28.9 C 270.0 28.9 270.3 28.9 270.9 28.9 C 271.5 28.9 271.8 29.1 272.4 29.2 C 273.0 29.3 273.3 29.4 273.8 29.4 C 274.4 29.4 274.7 29.4 275.3 29.3 C 275.9 29.3 276.2 29.0 276.8 28.9 C 277.4 28.7 277.7 28.6 278.3 28.5 C 278.8 28.4 279.1 28.4 279.7 28.4 C 280.3 28.4 280.6 28.6 281.2 28.6 C 281.8 28.7 282.1 28.6 282.7 28.7 C 283.3 28.7 283.6 28.9 284.1 29.0 C 284.7 29.1 285.0 29.3 285.6 29.3 C 286.2 29.3 286.5 29.3 287.1 29.2 C 287.7 29.2 288.0 28.9 288.6 28.9 C 289.2 28.9 289.4 29.0 290.0 29.0 C 290.6 29.0 290.9 28.7 291.5 28.5 C 292.1 28.2 292.4 27.8 293.0 27.8 C 293.6 27.8 293.9 27.8 294.5 27.8 C 295.0 27.8 295.3 27.7 295.9 27.6 C 296.5 27.5 296.8 27.4 297.4 27.3 C 298.0 27.1 298.3 27.1 298.9 27.0 C 299.5 26.9 299.8 26.9 300.3 26.7 C 300.9 26.5 301.2 26.3 301.8 26.1 C 302.4 25.9 302.7 25.7 303.3 25.7 C 303.9 25.7 304.2 26.4 304.8 26.4 C 305.4 26.4 305.6 26.1 306.2 26.1 C 306.8 26.1 307.1 26.6 307.7 26.6 C 308.3 26.6 308.6 26.6 309.2 26.5 C 309.8 26.4 310.1 26.0 310.7 26.0 C 311.2 26.0 311.5 26.5 312.1 26.5 C 312.7 26.5 313.0 25.9 313.6 25.7 C 314.2 25.5 314.5 25.4 315.1 25.4 C 315.7 25.4 316.0 26.3 316.5 26.3 C 317.1 26.3 317.4 26.3 318.0 26.3 C 318.6 26.3 318.9 26.4 319.5 26.4 C 320.1 26.4 320.4 26.3 321.0 26.3 C 321.6 26.2 321.8 26.1 322.4 26.0 C 323.0 25.9 323.3 25.9 323.9 25.9 C 324.5 25.9 324.8 26.1 325.4 26.3 C 326.0 26.4 326.3 26.3 326.9 26.5 C 327.4 26.6 327.7 26.9 328.3 26.9 C 328.9 26.9 329.2 26.7 329.8 26.5 C 330.4 26.3 330.7 26.1 331.3 25.9 C 331.9 25.7 332.2 25.6 332.7 25.4 C 333.3 25.1 333.6 24.6 334.2 24.6 C 334.8 24.6 335.1 24.6 335.7 24.6 C 336.3 24.6 336.6 24.6 337.2 24.5 C 337.7 24.4 338.0 24.0 338.6 23.8 C 339.2 23.6 339.5 23.3 340.1 23.3 C 340.7 23.3 341.0 23.6 341.6 23.6 C 342.2 23.6 342.5 23.4 343.0 23.3 C 343.6 23.2 343.9 23.1 344.5 23.1 C 345.1 23.1 345.4 23.7 346.0 23.7 C 346.6 23.7 346.9 23.4 347.5 23.2 C 348.1 23.1 348.4 23.2 348.9 23.1 C 349.5 23.0 349.8 22.9 350.4 22.9 C 351.0 22.8 351.3 22.9 351.9 22.8 C 352.5 22.8 352.8 22.7 353.4 22.7 C 353.9 22.7 354.2 22.7 354.8 22.7 C 355.4 22.6 355.7 22.4 356.3 22.2 C 356.9 22.0 357.2 21.6 357.8 21.6 C 358.4 21.6 358.7 22.1 359.2 22.1 C 359.8 22.1 360.1 21.9 360.7 21.8 C 361.3 21.7 361.6 21.8 362.2 21.7 C 362.8 21.5 363.1 21.2 363.7 21.1 C 364.3 20.9 364.5 20.9 365.1 20.9 C 365.7 20.9 366.0 21.7 366.6 21.7 C 367.2 21.7 367.5 21.1 368.1 21.1 C 368.7 21.1 369.0 21.1 369.6 21.2 C 370.1 21.3 370.4 21.9 371.0 21.9 C 371.6 21.9 371.9 21.8 372.5 21.7 C 373.1 21.6 373.4 21.4 374.0 21.4 C 374.6 21.4 374.9 21.8 375.4 21.9 C 376.0 22.1 376.3 22.3 376.9 22.3 C 377.5 22.3 377.8 22.0 378.4 21.8 C 379.0 21.6 379.3 21.3 379.9 21.3 C 380.5 21.3 380.7 21.4 381.3 21.5 C 381.9 21.5 382.2 21.5 382.8 21.5 C 383.4 21.6 383.7 21.9 384.3 22.0 C 384.9 22.1 385.2 22.1 385.8 22.1 C 386.3 22.1 386.6 21.6 387.2 21.6 C 387.8 21.6 388.1 22.1 388.7 22.3 C 389.3 22.5 389.6 22.5 390.2 22.6 C 390.8 22.6 391.1 22.7 391.6 22.7 C 392.2 22.7 392.5 22.4 393.1 22.1 C 393.7 21.7 394.0 21.3 394.6 21.1 C 395.2 20.9 395.5 21.1 396.1 20.9 C 396.6 20.8 396.9 20.0 397.5 19.6 C 398.1 19.2 398.4 19.0 399.0 19.0 C 399.6 19.0 399.9 19.2 400.5 19.5 C 401.1 19.8 401.4 20.4 402 20.4 C 402.5 20.4 402.8 20.1 403.4 20.1 C 404.0 20.1 404.3 20.2 404.9 20.2 C 405.5 20.2 405.8 19.6 406.4 19.6 C 407.0 19.6 407.3 19.7 407.8 19.7 C 408.4 19.7 408.7 19.6 409.3 19.3 C 409.9 19.0 410.2 18.3 410.8 18.3 C 411.4 18.3 411.7 18.7 412.3 19.1 C 412.8 19.4 413.1 20.1 413.7 20.1 C 414.3 20.1 414.6 18.6 415.2 18.5 C 415.8 18.5 416.1 18.5 416.7 18.5 C 417.3 18.5 417.6 18.6 418.1 18.6 C 418.7 18.7 419.0 18.7 419.6 18.7 C 420.2 18.8 420.5 18.9 421.1 19.1 C 421.7 19.3 422.0 19.5 422.6 19.7 C 423.2 20.0 423.4 20.4 424.0 20.4 C 424.6 20.4 424.9 19.9 425.5 19.7 C 426.1 19.5 426.4 19.2 427.0 19.2 C 427.6 19.2 427.9 19.6 428.5 19.6 C 429.0 19.6 429.3 19.2 429.9 19.0 C 430.5 18.8 430.8 18.7 431.4 18.5 C 432.0 18.3 432.3 18.1 432.9 17.9 C 433.5 17.7 433.8 17.7 434.3 17.6 C 434.9 17.5 435.2 17.6 435.8 17.4 C 436.4 17.3 436.7 17.2 437.3 16.8 C 437.9 16.5 438.2 16.3 438.8 15.9 C 439.4 15.4 439.6 15.2 440.2 14.7 C 440.8 14.2 441.1 13.9 441.7 13.5 C 442.3 13.1 442.6 13.1 443.2 12.8 C 443.8 12.4 444.1 11.6 444.7 11.6 C 445.2 11.6 445.5 11.7 446.1 11.7 C 446.7 11.7 447.0 10.4 447.6 9.7 C 448.2 9.0 448.5 8.8 449.1 8.4 C 449.7 8.1 450.0 8.2 450.5 8.0 C 451.1 7.7 451.4 7.1 452.0 7.1 C 452.6 7.1 452.9 7.1 453.5 7.2 C 454.1 7.4 454.4 8.8 455.0 8.9 C 455.6 8.9 455.8 8.9 456.4 8.9 C 457.0 9.0 457.3 9.3 457.9 9.5 C 458.5 9.7 458.8 9.7 459.4 10.1 C 460.0 10.4 460.3 11.4 460.9 11.4 C 461.4 11.4 461.7 10.6 462.3 10.4 C 462.9 10.1 463.2 9.9 463.8 9.9 C 464.4 9.9 464.7 10.0 465.3 10.0 C 465.9 10.0 466.2 10.0 466.7 9.8 C 467.3 9.7 467.6 9.3 468.2 9.3 C 468.8 9.3 469.1 9.8 469.7 9.8 C 470.3 9.8 470.6 8.6 471.2 8.4 C 471.7 8.1 472.0 8.2 472.6 8.1 C 473.2 8.1 473.5 8.1 474.1 8.1 C 474.7 8.1 475.0 9.1 475.6 9.1 C 476.2 9.1 476.5 8.4 477.0 8.1 C 477.6 7.7 477.9 7.7 478.5 7.4 C 479.1 7.1 479.4 7.1 480.0 6.6 C 480.6 6.2 480.9 5.6 481.5 5.2 C 482.1 4.8 482.4 5.0 482.9 4.8 C 483.5 4.7 483.8 4.6 484.4 4.6 C 485.0 4.6 485.3 4.7 485.9 4.7 C 486.5 4.7 486.8 3.3 487.4 3.3 C 487.9 3.3 488.2 4.2 488.8 4.6 C 489.4 5.0 489.7 4.8 490.3 5.3 C 490.9 5.7 491.2 6.7 491.8 6.7 C 492.4 6.7 492.7 6.7 493.2 6.7 C 493.8 6.7 494.1 7.2 494.7 7.7 C 495.3 8.1 495.6 8.4 496.2 9.0 C 496.8 9.5 497.1 9.9 497.7 10.4 C 498.3 11.0 498.5 11.8 499.1 11.8 C 499.7 11.8 500.0 10.8 500.6 10.3 C 501.2 9.7 501.5 9.2 502.1 9.2 C 502.7 9.2 503.0 10.1 503.6 10.7 C 504.1 11.3 504.4 11.8 505.0 12.1 C 505.6 12.4 505.9 12.2 506.5 12.4 C 507.1 12.5 507.4 12.9 508.0 12.9 C 508.6 12.9 508.9 11.7 509.4 11.7 C 510.0 11.7 510.3 12.1 510.9 12.5 C 511.5 12.9 511.8 13.2 512.4 13.6 C 513.0 14.1 513.3 14.3 513.9 14.8 C 514.5 15.2 514.7 15.9 515.3 15.9 C 515.9 15.9 516.2 15.8 516.8 15.7 C 517.4 15.5 517.7 15.2 518.3 15.2 C 518.9 15.2 519.2 15.8 519.8 16.1 C 520.3 16.4 520.6 16.4 521.2 16.6 C 521.8 16.9 522.1 17.3 522.7 17.3 C 523.3 17.3 523.6 17.3 524.2 17.0 C 524.8 16.7 525.1 15.9 525.6 15.9 C 526.2 15.9 526.5 15.9 527.1 15.9 C 527.7 16.0 528.0 17.3 528.6 17.3 C 529.2 17.3 529.5 17.2 530.1 17.2 C 530.6 17.2 530.9 18.4 531.5 18.4 C 532.1 18.4 532.4 18.4 533.0 18.4 C 533.6 18.3 533.9 17.2 534.5 16.6 C 535.1 16.1 536 15.7 536 15.7 L 536 40 L 0 40" ></path><path fill="none" d="M 0 36.0 C 0 36.0 0.8 36.0 1.4 36.1 C 2.0 36.1 2.3 36.2 2.9 36.2 C 3.5 36.2 3.8 36.3 4.4 36.3 C 5.0 36.3 5.3 36.4 5.8 36.4 C 6.4 36.4 6.7 36.4 7.3 36.4 C 7.9 36.4 8.2 36.4 8.8 36.4 C 9.4 36.4 9.7 36.4 10.3 36.5 C 10.8 36.5 11.1 36.6 11.7 36.6 C 12.3 36.6 12.6 36.6 13.2 36.5 C 13.8 36.4 14.1 36.2 14.7 36.1 C 15.3 36.0 15.6 35.8 16.1 35.8 C 16.7 35.8 17.0 36.0 17.6 36.0 C 18.2 36.0 18.5 36.0 19.1 35.9 C 19.7 35.9 20.0 35.9 20.6 35.9 C 21.2 35.9 21.4 35.9 22.0 35.9 C 22.6 35.9 22.9 35.7 23.5 35.7 C 24.1 35.6 24.4 35.6 25.0 35.6 C 25.6 35.6 25.9 35.6 26.5 35.5 C 27.0 35.5 27.3 35.4 27.9 35.4 C 28.5 35.4 28.8 35.5 29.4 35.5 C 30.0 35.5 30.3 35.5 30.9 35.5 C 31.5 35.5 31.8 35.5 32.3 35.4 C 32.9 35.3 33.2 35.2 33.8 35.2 C 34.4 35.2 34.7 35.3 35.3 35.3 C 35.9 35.3 36.2 35.2 36.8 35.1 C 37.4 35.1 37.6 35.1 38.2 35.0 C 38.8 34.9 39.1 34.8 39.7 34.8 C 40.3 34.7 40.6 34.7 41.2 34.7 C 41.8 34.7 42.1 34.7 42.7 34.8 C 43.2 34.8 43.5 34.8 44.1 34.8 C 44.7 34.9 45.0 35.0 45.6 35.0 C 46.2 35.1 46.5 35.1 47.1 35.1 C 47.7 35.1 48.0 35.1 48.5 35.0 C 49.1 34.9 49.4 34.6 50.0 34.6 C 50.6 34.6 50.9 34.6 51.5 34.6 C 52.1 34.6 52.4 34.9 53.0 34.9 C 53.6 35.0 53.8 35.0 54.4 35.0 C 55.0 35.0 55.3 35.0 55.9 35.0 C 56.5 35.0 56.8 35.0 57.4 35.0 C 58.0 35.0 58.3 34.8 58.9 34.8 C 59.4 34.8 59.7 34.9 60.3 34.9 C 60.9 34.9 61.2 34.9 61.8 34.8 C 62.4 34.8 62.7 34.8 63.3 34.8 C 63.9 34.7 64.2 34.6 64.7 34.6 C 65.3 34.5 65.6 34.5 66.2 34.5 C 66.8 34.5 67.1 34.5 67.7 34.5 C 68.3 34.5 68.6 34.6 69.2 34.6 C 69.7 34.6 70.0 34.7 70.6 34.7 C 71.2 34.7 71.5 34.5 72.1 34.4 C 72.7 34.3 73.0 34.3 73.6 34.2 C 74.2 34.1 74.5 34.0 75.0 33.9 C 75.6 33.8 75.9 33.8 76.5 33.8 C 77.1 33.7 77.4 33.7 78.0 33.6 C 78.6 33.5 78.9 33.4 79.5 33.3 C 80.1 33.2 80.4 33.0 80.9 33.0 C 81.5 33.0 81.8 33.2 82.4 33.2 C 83.0 33.2 83.3 33.0 83.9 33.0 C 84.5 33.0 84.8 33.1 85.4 33.1 C 85.9 33.1 86.2 32.9 86.8 32.8 C 87.4 32.6 87.7 32.6 88.3 32.5 C 88.9 32.4 89.2 32.2 89.8 32.2 C 90.4 32.1 90.7 32.1 91.2 32.1 C 91.8 32.1 92.1 32.3 92.7 32.4 C 93.3 32.5 93.6 32.5 94.2 32.6 C 94.8 32.7 95.1 33.1 95.7 33.1 C 96.3 33.1 96.5 32.8 97.1 32.7 C 97.7 32.6 98.0 32.6 98.6 32.5 C 99.2 32.4 99.5 32.3 100.1 32.3 C 100.7 32.3 101.0 32.3 101.6 32.3 C 102.1 32.3 102.4 32.3 103.0 32.1 C 103.6 31.9 103.9 31.7 104.5 31.5 C 105.1 31.3 105.4 31.4 106.0 31.2 C 106.6 31.1 106.9 30.9 107.4 30.8 C 108.0 30.7 108.3 30.7 108.9 30.6 C 109.5 30.4 109.8 30.1 110.4 29.9 C 111.0 29.8 111.3 29.7 111.9 29.7 C 112.5 29.7 112.7 29.8 113.3 30.0 C 113.9 30.3 114.2 30.9 114.8 30.9 C 115.4 30.9 115.7 30.9 116.3 30.7 C 116.9 30.5 117.2 30.3 117.8 30.2 C 118.3 30.0 118.6 29.9 119.2 29.8 C 119.8 29.7 120.1 29.5 120.7 29.5 C 121.3 29.5 121.6 29.8 122.2 29.8 C 122.8 29.8 123.1 29.1 123.6 29.1 C 124.2 29.1 124.5 29.2 125.1 29.5 C 125.7 29.7 126.0 30.0 126.6 30.3 C 127.2 30.6 127.5 30.4 128.1 30.8 C 128.6 31.2 128.9 31.8 129.5 32.1 C 130.1 32.5 130.4 32.4 131.0 32.5 C 131.6 32.7 131.9 32.9 132.5 32.9 C 133.1 32.9 133.4 32.8 134 32.8 C 134.5 32.8 134.8 33.1 135.4 33.1 C 136.0 33.1 136.3 33.0 136.9 33.0 C 137.5 33.0 137.8 33.0 138.4 33.0 C 139.0 33.0 139.3 33.0 139.8 32.9 C 140.4 32.8 140.7 32.8 141.3 32.6 C 141.9 32.5 142.2 32.3 142.8 32.1 C 143.4 31.9 143.7 31.8 144.3 31.7 C 144.8 31.6 145.1 31.6 145.7 31.5 C 146.3 31.5 146.6 31.5 147.2 31.5 C 147.8 31.4 148.1 31.1 148.7 30.8 C 149.3 30.6 149.6 30.5 150.1 30.3 C 150.7 30.1 151.0 30.0 151.6 29.9 C 152.2 29.7 152.5 29.7 153.1 29.7 C 153.7 29.7 154.0 30.0 154.6 30.0 C 155.2 30.0 155.4 29.7 156.0 29.7 C 156.6 29.7 156.9 29.7 157.5 29.8 C 158.1 29.8 158.4 30.2 159.0 30.2 C 159.6 30.2 159.9 30.2 160.5 30.2 C 161.0 30.2 161.3 30.4 161.9 30.5 C 162.5 30.6 162.8 30.6 163.4 30.6 C 164.0 30.6 164.3 30.3 164.9 30.3 C 165.5 30.3 165.8 30.4 166.3 30.6 C 166.9 30.7 167.2 30.8 167.8 31.0 C 168.4 31.1 168.7 31.3 169.3 31.3 C 169.9 31.3 170.2 31.2 170.8 31.0 C 171.4 30.8 171.6 30.2 172.2 30.2 C 172.8 30.2 173.1 30.3 173.7 30.3 C 174.3 30.4 174.6 30.3 175.2 30.5 C 175.8 30.6 176.1 30.7 176.7 30.9 C 177.2 31.1 177.5 31.2 178.1 31.5 C 178.7 31.8 179.0 32.1 179.6 32.3 C 180.2 32.6 180.5 32.4 181.1 32.7 C 181.7 33.0 182.0 33.6 182.5 34.0 C 183.1 34.3 183.4 34.6 184.0 34.6 C 184.6 34.6 184.9 34.1 185.5 34.1 C 186.1 34.1 186.4 34.4 187.0 34.4 C 187.6 34.4 187.8 34.1 188.4 34.1 C 189.0 34.0 189.3 34.0 189.9 34.0 C 190.5 34.0 190.8 34.4 191.4 34.5 C 192.0 34.7 192.3 35.0 192.9 35.0 C 193.4 35.0 193.7 34.6 194.3 34.6 C 194.9 34.6 195.2 34.6 195.8 34.6 C 196.4 34.6 196.7 34.3 197.3 34.3 C 197.9 34.3 198.2 34.5 198.7 34.6 C 199.3 34.8 199.6 35.0 200.2 35.0 C 200.8 35.0 201.1 35.0 201.7 34.9 C 202.3 34.8 202.6 34.6 203.2 34.6 C 203.7 34.6 204.0 34.9 204.6 35.0 C 205.2 35.0 205.5 35.0 206.1 35.0 C 206.7 35.0 207.0 34.8 207.6 34.6 C 208.2 34.5 208.5 34.6 209.0 34.5 C 209.6 34.4 209.9 34.3 210.5 34.3 C 211.1 34.3 211.4 34.5 212.0 34.6 C 212.6 34.7 212.9 34.7 213.5 34.8 C 214.1 34.8 214.4 34.8 214.9 34.8 C 215.5 34.8 215.8 34.8 216.4 34.7 C 217.0 34.5 217.3 34.4 217.9 34.2 C 218.5 34.0 218.8 33.9 219.4 33.8 C 219.9 33.7 220.2 33.8 220.8 33.7 C 221.4 33.6 221.7 33.4 222.3 33.3 C 222.9 33.2 223.2 33.2 223.8 33.2 C 224.4 33.1 224.7 33.1 225.2 33.0 C 225.8 33.0 226.1 33.0 226.7 32.9 C 227.3 32.8 227.6 32.6 228.2 32.6 C 228.8 32.6 229.1 33.0 229.7 33.0 C 230.3 33.0 230.5 33.0 231.1 32.9 C 231.7 32.8 232.0 32.6 232.6 32.5 C 233.2 32.3 233.5 32.1 234.1 32.1 C 234.7 32.1 235.0 32.1 235.6 32.1 C 236.1 32.2 236.4 32.3 237.0 32.3 C 237.6 32.3 237.9 32.3 238.5 32.3 C 239.1 32.2 239.4 32.1 240.0 32.1 C 240.6 32.1 240.9 32.3 241.4 32.3 C 242.0 32.3 242.3 32.0 242.9 31.8 C 243.5 31.6 243.8 31.5 244.4 31.3 C 245.0 31.2 245.3 31.2 245.9 31.1 C 246.5 31.0 246.7 30.9 247.3 30.8 C 247.9 30.8 248.2 30.8 248.8 30.8 C 249.4 30.8 249.7 30.9 250.3 30.9 C 250.9 30.9 251.2 30.7 251.8 30.7 C 252.3 30.7 252.6 30.8 253.2 30.8 C 253.8 30.8 254.1 30.6 254.7 30.5 C 255.3 30.4 255.6 30.2 256.2 30.1 C 256.8 30.0 257.1 29.9 257.6 29.9 C 258.2 29.9 258.5 29.9 259.1 29.9 C 259.7 29.8 260.0 29.7 260.6 29.6 C 261.2 29.6 261.5 29.6 262.1 29.6 C 262.6 29.5 262.9 29.0 263.5 29.0 C 264.1 29.0 264.4 29.2 265.0 29.3 C 265.6 29.4 265.9 29.5 266.5 29.5 C 267.1 29.5 267.4 29.0 268 28.9 C 268.5 28.9 268.8 28.9 269.4 28.9 C 270.0 28.9 270.3 28.9 270.9 28.9 C 271.5 28.9 271.8 29.1 272.4 29.2 C 273.0 29.3 273.3 29.4 273.8 29.4 C 274.4 29.4 274.7 29.4 275.3 29.3 C 275.9 29.3 276.2 29.0 276.8 28.9 C 277.4 28.7 277.7 28.6 278.3 28.5 C 278.8 28.4 279.1 28.4 279.7 28.4 C 280.3 28.4 280.6 28.6 281.2 28.6 C 281.8 28.7 282.1 28.6 282.7 28.7 C 283.3 28.7 283.6 28.9 284.1 29.0 C 284.7 29.1 285.0 29.3 285.6 29.3 C 286.2 29.3 286.5 29.3 287.1 29.2 C 287.7 29.2 288.0 28.9 288.6 28.9 C 289.2 28.9 289.4 29.0 290.0 29.0 C 290.6 29.0 290.9 28.7 291.5 28.5 C 292.1 28.2 292.4 27.8 293.0 27.8 C 293.6 27.8 293.9 27.8 294.5 27.8 C 295.0 27.8 295.3 27.7 295.9 27.6 C 296.5 27.5 296.8 27.4 297.4 27.3 C 298.0 27.1 298.3 27.1 298.9 27.0 C 299.5 26.9 299.8 26.9 300.3 26.7 C 300.9 26.5 301.2 26.3 301.8 26.1 C 302.4 25.9 302.7 25.7 303.3 25.7 C 303.9 25.7 304.2 26.4 304.8 26.4 C 305.4 26.4 305.6 26.1 306.2 26.1 C 306.8 26.1 307.1 26.6 307.7 26.6 C 308.3 26.6 308.6 26.6 309.2 26.5 C 309.8 26.4 310.1 26.0 310.7 26.0 C 311.2 26.0 311.5 26.5 312.1 26.5 C 312.7 26.5 313.0 25.9 313.6 25.7 C 314.2 25.5 314.5 25.4 315.1 25.4 C 315.7 25.4 316.0 26.3 316.5 26.3 C 317.1 26.3 317.4 26.3 318.0 26.3 C 318.6 26.3 318.9 26.4 319.5 26.4 C 320.1 26.4 320.4 26.3 321.0 26.3 C 321.6 26.2 321.8 26.1 322.4 26.0 C 323.0 25.9 323.3 25.9 323.9 25.9 C 324.5 25.9 324.8 26.1 325.4 26.3 C 326.0 26.4 326.3 26.3 326.9 26.5 C 327.4 26.6 327.7 26.9 328.3 26.9 C 328.9 26.9 329.2 26.7 329.8 26.5 C 330.4 26.3 330.7 26.1 331.3 25.9 C 331.9 25.7 332.2 25.6 332.7 25.4 C 333.3 25.1 333.6 24.6 334.2 24.6 C 334.8 24.6 335.1 24.6 335.7 24.6 C 336.3 24.6 336.6 24.6 337.2 24.5 C 337.7 24.4 338.0 24.0 338.6 23.8 C 339.2 23.6 339.5 23.3 340.1 23.3 C 340.7 23.3 341.0 23.6 341.6 23.6 C 342.2 23.6 342.5 23.4 343.0 23.3 C 343.6 23.2 343.9 23.1 344.5 23.1 C 345.1 23.1 345.4 23.7 346.0 23.7 C 346.6 23.7 346.9 23.4 347.5 23.2 C 348.1 23.1 348.4 23.2 348.9 23.1 C 349.5 23.0 349.8 22.9 350.4 22.9 C 351.0 22.8 351.3 22.9 351.9 22.8 C 352.5 22.8 352.8 22.7 353.4 22.7 C 353.9 22.7 354.2 22.7 354.8 22.7 C 355.4 22.6 355.7 22.4 356.3 22.2 C 356.9 22.0 357.2 21.6 357.8 21.6 C 358.4 21.6 358.7 22.1 359.2 22.1 C 359.8 22.1 360.1 21.9 360.7 21.8 C 361.3 21.7 361.6 21.8 362.2 21.7 C 362.8 21.5 363.1 21.2 363.7 21.1 C 364.3 20.9 364.5 20.9 365.1 20.9 C 365.7 20.9 366.0 21.7 366.6 21.7 C 367.2 21.7 367.5 21.1 368.1 21.1 C 368.7 21.1 369.0 21.1 369.6 21.2 C 370.1 21.3 370.4 21.9 371.0 21.9 C 371.6 21.9 371.9 21.8 372.5 21.7 C 373.1 21.6 373.4 21.4 374.0 21.4 C 374.6 21.4 374.9 21.8 375.4 21.9 C 376.0 22.1 376.3 22.3 376.9 22.3 C 377.5 22.3 377.8 22.0 378.4 21.8 C 379.0 21.6 379.3 21.3 379.9 21.3 C 380.5 21.3 380.7 21.4 381.3 21.5 C 381.9 21.5 382.2 21.5 382.8 21.5 C 383.4 21.6 383.7 21.9 384.3 22.0 C 384.9 22.1 385.2 22.1 385.8 22.1 C 386.3 22.1 386.6 21.6 387.2 21.6 C 387.8 21.6 388.1 22.1 388.7 22.3 C 389.3 22.5 389.6 22.5 390.2 22.6 C 390.8 22.6 391.1 22.7 391.6 22.7 C 392.2 22.7 392.5 22.4 393.1 22.1 C 393.7 21.7 394.0 21.3 394.6 21.1 C 395.2 20.9 395.5 21.1 396.1 20.9 C 396.6 20.8 396.9 20.0 397.5 19.6 C 398.1 19.2 398.4 19.0 399.0 19.0 C 399.6 19.0 399.9 19.2 400.5 19.5 C 401.1 19.8 401.4 20.4 402 20.4 C 402.5 20.4 402.8 20.1 403.4 20.1 C 404.0 20.1 404.3 20.2 404.9 20.2 C 405.5 20.2 405.8 19.6 406.4 19.6 C 407.0 19.6 407.3 19.7 407.8 19.7 C 408.4 19.7 408.7 19.6 409.3 19.3 C 409.9 19.0 410.2 18.3 410.8 18.3 C 411.4 18.3 411.7 18.7 412.3 19.1 C 412.8 19.4 413.1 20.1 413.7 20.1 C 414.3 20.1 414.6 18.6 415.2 18.5 C 415.8 18.5 416.1 18.5 416.7 18.5 C 417.3 18.5 417.6 18.6 418.1 18.6 C 418.7 18.7 419.0 18.7 419.6 18.7 C 420.2 18.8 420.5 18.9 421.1 19.1 C 421.7 19.3 422.0 19.5 422.6 19.7 C 423.2 20.0 423.4 20.4 424.0 20.4 C 424.6 20.4 424.9 19.9 425.5 19.7 C 426.1 19.5 426.4 19.2 427.0 19.2 C 427.6 19.2 427.9 19.6 428.5 19.6 C 429.0 19.6 429.3 19.2 429.9 19.0 C 430.5 18.8 430.8 18.7 431.4 18.5 C 432.0 18.3 432.3 18.1 432.9 17.9 C 433.5 17.7 433.8 17.7 434.3 17.6 C 434.9 17.5 435.2 17.6 435.8 17.4 C 436.4 17.3 436.7 17.2 437.3 16.8 C 437.9 16.5 438.2 16.3 438.8 15.9 C 439.4 15.4 439.6 15.2 440.2 14.7 C 440.8 14.2 441.1 13.9 441.7 13.5 C 442.3 13.1 442.6 13.1 443.2 12.8 C 443.8 12.4 444.1 11.6 444.7 11.6 C 445.2 11.6 445.5 11.7 446.1 11.7 C 446.7 11.7 447.0 10.4 447.6 9.7 C 448.2 9.0 448.5 8.8 449.1 8.4 C 449.7 8.1 450.0 8.2 450.5 8.0 C 451.1 7.7 451.4 7.1 452.0 7.1 C 452.6 7.1 452.9 7.1 453.5 7.2 C 454.1 7.4 454.4 8.8 455.0 8.9 C 455.6 8.9 455.8 8.9 456.4 8.9 C 457.0 9.0 457.3 9.3 457.9 9.5 C 458.5 9.7 458.8 9.7 459.4 10.1 C 460.0 10.4 460.3 11.4 460.9 11.4 C 461.4 11.4 461.7 10.6 462.3 10.4 C 462.9 10.1 463.2 9.9 463.8 9.9 C 464.4 9.9 464.7 10.0 465.3 10.0 C 465.9 10.0 466.2 10.0 466.7 9.8 C 467.3 9.7 467.6 9.3 468.2 9.3 C 468.8 9.3 469.1 9.8 469.7 9.8 C 470.3 9.8 470.6 8.6 471.2 8.4 C 471.7 8.1 472.0 8.2 472.6 8.1 C 473.2 8.1 473.5 8.1 474.1 8.1 C 474.7 8.1 475.0 9.1 475.6 9.1 C 476.2 9.1 476.5 8.4 477.0 8.1 C 477.6 7.7 477.9 7.7 478.5 7.4 C 479.1 7.1 479.4 7.1 480.0 6.6 C 480.6 6.2 480.9 5.6 481.5 5.2 C 482.1 4.8 482.4 5.0 482.9 4.8 C 483.5 4.7 483.8 4.6 484.4 4.6 C 485.0 4.6 485.3 4.7 485.9 4.7 C 486.5 4.7 486.8 3.3 487.4 3.3 C 487.9 3.3 488.2 4.2 488.8 4.6 C 489.4 5.0 489.7 4.8 490.3 5.3 C 490.9 5.7 491.2 6.7 491.8 6.7 C 492.4 6.7 492.7 6.7 493.2 6.7 C 493.8 6.7 494.1 7.2 494.7 7.7 C 495.3 8.1 495.6 8.4 496.2 9.0 C 496.8 9.5 497.1 9.9 497.7 10.4 C 498.3 11.0 498.5 11.8 499.1 11.8 C 499.7 11.8 500.0 10.8 500.6 10.3 C 501.2 9.7 501.5 9.2 502.1 9.2 C 502.7 9.2 503.0 10.1 503.6 10.7 C 504.1 11.3 504.4 11.8 505.0 12.1 C 505.6 12.4 505.9 12.2 506.5 12.4 C 507.1 12.5 507.4 12.9 508.0 12.9 C 508.6 12.9 508.9 11.7 509.4 11.7 C 510.0 11.7 510.3 12.1 510.9 12.5 C 511.5 12.9 511.8 13.2 512.4 13.6 C 513.0 14.1 513.3 14.3 513.9 14.8 C 514.5 15.2 514.7 15.9 515.3 15.9 C 515.9 15.9 516.2 15.8 516.8 15.7 C 517.4 15.5 517.7 15.2 518.3 15.2 C 518.9 15.2 519.2 15.8 519.8 16.1 C 520.3 16.4 520.6 16.4 521.2 16.6 C 521.8 16.9 522.1 17.3 522.7 17.3 C 523.3 17.3 523.6 17.3 524.2 17.0 C 524.8 16.7 525.1 15.9 525.6 15.9 C 526.2 15.9 526.5 15.9 527.1 15.9 C 527.7 16.0 528.0 17.3 528.6 17.3 C 529.2 17.3 529.5 17.2 530.1 17.2 C 530.6 17.2 530.9 18.4 531.5 18.4 C 532.1 18.4 532.4 18.4 533.0 18.4 C 533.6 18.3 533.9 17.2 534.5 16.6 C 535.1 16.1 536 15.7 536 15.7" stroke="#4572A7" stroke-width="1"  stroke-linejoin="round" stroke-linecap="round"></path></g><g class="highcharts-markers" visibility="visible"  transform="translate(24,331) scale(1 1)" clip-path="url(#highcharts-4)"></g></g><g class="highcharts-navigator" ><rect fill="rgb(128,179,236)" fill-opacity="0.3" style="cursor:ew-resize ;" x="522" y="331" width="38" height="40"></rect><path fill="none" stroke="#b2b1b6" stroke-width="1" d="M 10 331.5 L 521.5 331.5 521.5 385.5 L 559.5 385.5 L 559.5 331.5 574 331.5 M 522.5 331.5 L 559.5 331.5"></path></g><g class="highcharts-navigator-handle-right" style="cursor:ew-resize;"  transform="translate(560,343)"><rect x="-4.5" y="0.5" width="8" height="15" strokeWidth="1" fill="#ebe7e8" stroke="#b2b1b6" stroke-width="1"></rect><path fill="#ebe7e8" d="M -1.5 4 L -1.5 12 M 0.5 4 L 0.5 12" stroke="#b2b1b6" stroke-width="1"></path></g><text x="292" text-anchor="middle" class="highcharts-title"  style="color:black;font-size:16px;font-weight:bold;fill:black;width:520px;" y="22"><tspan>AAPL Stock Price</tspan></text><g class="highcharts-navigator-handle-left" style="cursor:ew-resize;"  transform="translate(522,343)"><rect x="-4.5" y="0.5" width="8" height="15" strokeWidth="1" fill="#ebe7e8" stroke="#b2b1b6" stroke-width="1"></rect><path fill="#ebe7e8" d="M -1.5 4 L -1.5 12 M 0.5 4 L 0.5 12" stroke="#b2b1b6" stroke-width="1"></path></g><g class="highcharts-axis-labels highcharts-xaxis-labels" ><text x="72.4" style="color:#6e6e70;cursor:default;font-size:11px;fill:#6e6e70;" text-anchor="middle" transform="translate(0,0)" y="304" opacity="1"><tspan>Dec '12</tspan></text><text x="164.7" style="color:#6e6e70;cursor:default;font-size:11px;fill:#6e6e70;" text-anchor="middle" transform="translate(0,0)" y="304" opacity="1"><tspan>Jan '13</tspan></text><text x="263.0" style="color:#6e6e70;cursor:default;font-size:11px;fill:#6e6e70;" text-anchor="middle" transform="translate(0,0)" y="304" opacity="1"><tspan>Feb '13</tspan></text><text x="349.9" style="color:#6e6e70;cursor:default;font-size:11px;fill:#6e6e70;" text-anchor="middle" transform="translate(0,0)" y="304" opacity="1"><tspan>Mar '13</tspan></text><text x="441.3" style="color:#6e6e70;cursor:default;font-size:11px;fill:#6e6e70;" text-anchor="middle" transform="translate(0,0)" y="304" opacity="1"><tspan>Apr '13</tspan></text><text x="541.9" style="color:#6e6e70;cursor:default;font-size:11px;fill:#6e6e70;" text-anchor="middle" transform="translate(0,0)" y="304" opacity="1"><tspan>May '13</tspan></text></g><g class="highcharts-axis-labels highcharts-xaxis-labels" ><text x="151.7" style="color:#888;cursor:default;font-size:11px;fill:#888;width:178px;text-overflow:clip;" text-anchor="start" transform="translate(0,0)" y="367" opacity="1">2008</text><text x="305.4" style="color:#888;cursor:default;font-size:11px;fill:#888;width:178px;text-overflow:clip;" text-anchor="start" transform="translate(0,0)" y="367" opacity="1">2010</text><text x="459.0" style="color:#888;cursor:default;font-size:11px;fill:#888;width:178px;text-overflow:clip;" text-anchor="start" transform="translate(0,0)" y="367" opacity="1">2012</text></g><g class="highcharts-axis-labels highcharts-yaxis-labels" ><text x="574" style="color:#6e6e70;cursor:default;font-size:11px;fill:#6e6e70;width:183px;text-overflow:clip;" text-anchor="end" transform="translate(0,0)" y="283" opacity="1">350</text><text x="574" style="color:#6e6e70;cursor:default;font-size:11px;fill:#6e6e70;width:183px;text-overflow:clip;" text-anchor="end" transform="translate(0,0)" y="242" opacity="1">400</text><text x="574" style="color:#6e6e70;cursor:default;font-size:11px;fill:#6e6e70;width:183px;text-overflow:clip;" text-anchor="end" transform="translate(0,0)" y="201" opacity="1">450</text><text x="574" style="color:#6e6e70;cursor:default;font-size:11px;fill:#6e6e70;width:183px;text-overflow:clip;" text-anchor="end" transform="translate(0,0)" y="159" opacity="1">500</text><text x="574" style="color:#6e6e70;cursor:default;font-size:11px;fill:#6e6e70;width:183px;text-overflow:clip;" text-anchor="end" transform="translate(0,0)" y="118" opacity="1">550</text><text x="0" style="color:#6e6e70;cursor:default;font-size:11px;fill:#6e6e70;width:183px;text-overflow:clip;" text-anchor="end" transform="translate(0,0)" y="-9999">600</text></g><g class="highcharts-axis-labels highcharts-yaxis-labels" ></g><g class="highcharts-tooltip"  style="cursor:default;padding:0;white-space:nowrap;" transform="translate(0,-9999)"><path fill="none" d="M 3 0 L 13 0 C 16 0 16 0 16 3 L 16 13 C 16 16 16 16 13 16 L 3 16 C 0 16 0 16 0 13 L 0 3 C 0 0 0 0 3 0"  stroke="black" stroke-opacity="0.0" stroke-width="5" transform="translate(1, 1)"></path><path fill="none" d="M 3 0 L 13 0 C 16 0 16 0 16 3 L 16 13 C 16 16 16 16 13 16 L 3 16 C 0 16 0 16 0 13 L 0 3 C 0 0 0 0 3 0"  stroke="black" stroke-opacity="0.0" stroke-width="3" transform="translate(1, 1)"></path><path fill="none" d="M 3 0 L 13 0 C 16 0 16 0 16 3 L 16 13 C 16 16 16 16 13 16 L 3 16 C 0 16 0 16 0 13 L 0 3 C 0 0 0 0 3 0"  stroke="black" stroke-opacity="0.1" stroke-width="1" transform="translate(1, 1)"></path><path fill="rgb(249, 249, 249)" fill-opacity=" .85" d="M 3 0 L 13 0 C 16 0 16 0 16 3 L 16 13 C 16 16 16 16 13 16 L 3 16 C 0 16 0 16 0 13 L 0 3 C 0 0 0 0 3 0"></path><text x="8"  style="font-size:12px;color:#333333;fill:#333333;" transform="translate(0,20)"></text></g></svg>