<svg version="1.1" style="font-family: signika, serif; font-size: 12px; background-image: url(http://www.highcharts.com/samples/graphics/sand.png); background-attachment: initial; background-origin: initial; background-clip: initial; background-color: initial; background-position: initial initial; background-repeat: initial initial; " xmlns="http://www.w3.org/2000/svg" width="584" height="400" viewBox="0 0 584 400" xmlns:xlink="http://www.w3.org/1999/xlink"><style type="text/css"><![CDATA[@import url(http://fonts.googleapis.com/css?family=Signika:700);]]></style><desc>Created with Highstock 2.1.4</desc><defs><clipPath id="highcharts-1"><rect x="0" y="0" width="564" height="220"></rect></clipPath><clipPath id="highcharts-2"><rect x="-99" y="-79" width="663" height="400"></rect></clipPath><clipPath id="highcharts-3"><rect x="0" y="0" width="564" height="220"></rect></clipPath><clipPath id="highcharts-4"><rect x="-99" y="-79" width="663" height="400"></rect></clipPath><clipPath id="highcharts-5"><rect x="0" y="0" width="564" height="40"></rect></clipPath></defs><g class="highcharts-range-selector-buttons"><text x="10" y="59" style="color:#666;fill:#666;">Zoom</text><g class="highcharts-button"  states="[object Object]" style="cursor:pointer;text-align:center;" transform="translate(46,44)"><rect x="0.5" y="0.5" width="32" height="22" strokeWidth="1" fill="white" stroke="#C0C0C8" stroke-width="1" rx="0" ry="0"></rect><text x="7.5"  style="font-weight:normal;color:#444;fill:#444;" transform="translate(0,14)">1m</text></g><g class="highcharts-button"  states="[object Object]" style="cursor:pointer;text-align:center;" transform="translate(83,44)"><rect x="0.5" y="0.5" width="32" height="22" strokeWidth="1" fill="#D0D0D8" stroke="#68A" stroke-width="1" rx="0" ry="0"></rect><text x="7.5"  style="font-weight:bold;color:black;fill:black;" transform="translate(0,14)">3m</text></g><g class="highcharts-button"  states="[object Object]" style="cursor:pointer;text-align:center;" transform="translate(120,44)"><rect x="0.5" y="0.5" width="32" height="22" strokeWidth="1" fill="white" stroke="#C0C0C8" stroke-width="1" rx="0" ry="0"></rect><text x="7.5"  style="font-weight:normal;color:#444;fill:#444;" transform="translate(0,14)">6m</text></g><g class="highcharts-button"  states="[object Object]" style="cursor:pointer;text-align:center;" transform="translate(157,44)"><rect x="0.5" y="0.5" width="32" height="22" strokeWidth="1" fill="white" stroke="#C0C0C8" stroke-width="1" rx="0" ry="0"></rect><text x="4"  style="font-weight:normal;color:#444;fill:#444;" transform="translate(0,14)">YTD</text></g><g class="highcharts-button"  states="[object Object]" style="cursor:pointer;text-align:center;" transform="translate(194,44)"><rect x="0.5" y="0.5" width="32" height="22" strokeWidth="1" fill="white" stroke="#C0C0C8" stroke-width="1" rx="0" ry="0"></rect><text x="9.5"  style="font-weight:normal;color:#444;fill:#444;" transform="translate(0,14)">1y</text></g><g class="highcharts-button"  states="[object Object]" style="cursor:pointer;text-align:center;" transform="translate(231,44)"><rect x="0.5" y="0.5" width="32" height="22" strokeWidth="1" fill="white" stroke="#C0C0C8" stroke-width="1" rx="0" ry="0"></rect><text x="10"  style="font-weight:normal;color:#444;fill:#444;" transform="translate(0,14)">All</text></g></g><g class="highcharts-input-group" transform="translate(316,44)" visibility="visible"><g style="fill:#666;" transform="translate(0,0)"><text x="2"  style="font-size:12px;font-family:signika, serif;color:#666;fill:#666;" transform="translate(0,14)">From</text></g><g style="text-align:center;" transform="translate(36,0)"><rect x="0.5" y="0.5" width="94" height="21" strokeWidth="1" fill="none" stroke="silver" stroke-width="1"></rect><text x="13.5"  style="font-size:12px;font-family:signika, serif;color:#444;fill:#444;" transform="translate(0,14)"><tspan>Feb 9, 2013</tspan></text></g><g style="fill:#666;" transform="translate(140,0)"><text x="2"  style="font-size:12px;font-family:signika, serif;color:#666;fill:#666;" transform="translate(0,14)">To</text></g><g style="text-align:center;" transform="translate(164,0)"><rect x="0.5" y="0.5" width="94" height="21" strokeWidth="1" fill="none" stroke="silver" stroke-width="1"></rect><text x="9.5"  style="font-size:12px;font-family:signika, serif;color:#444;fill:#444;" transform="translate(0,14)"><tspan>May 10, 2013</tspan></text></g></g><g class="highcharts-grid" ></g><g class="highcharts-grid" ><path fill="none" d="M 140.5 345 L 140.5 385" stroke="#D0D0D8" stroke-width="1"  opacity="1"></path><path fill="none" d="M 302.5 345 L 302.5 385" stroke="#D0D0D8" stroke-width="1"  opacity="1"></path><path fill="none" d="M 464.5 345 L 464.5 385" stroke="#D0D0D8" stroke-width="1"  opacity="1"></path></g><g class="highcharts-grid" ><path fill="none" d="M 10 299.5 L 574 299.5" stroke="#D8D8D8" stroke-width="1"  opacity="1"></path><path fill="none" d="M 10 255.5 L 574 255.5" stroke="#D8D8D8" stroke-width="1"  opacity="1"></path><path fill="none" d="M 10 211.5 L 574 211.5" stroke="#D8D8D8" stroke-width="1"  opacity="1"></path><path fill="none" d="M 10 167.5 L 574 167.5" stroke="#D8D8D8" stroke-width="1"  opacity="1"></path><path fill="none" d="M 10 123.5 L 574 123.5" stroke="#D8D8D8" stroke-width="1"  opacity="1"></path><path fill="none" d="M 10 78.5 L 574 78.5" stroke="#D8D8D8" stroke-width="1"  opacity="1"></path></g><g class="highcharts-grid" ></g><g class="highcharts-axis" ><path fill="none" d="M 58.5 299 L 58.5 309" stroke="#C0D0E0" stroke-width="1" opacity="1"></path><path fill="none" d="M 141.5 299 L 141.5 309" stroke="#C0D0E0" stroke-width="1" opacity="1"></path><path fill="none" d="M 231.5 299 L 231.5 309" stroke="#C0D0E0" stroke-width="1" opacity="1"></path><path fill="none" d="M 312.5 299 L 312.5 309" stroke="#C0D0E0" stroke-width="1" opacity="1"></path><path fill="none" d="M 402.5 299 L 402.5 309" stroke="#C0D0E0" stroke-width="1" opacity="1"></path><path fill="none" d="M 492.5 299 L 492.5 309" stroke="#C0D0E0" stroke-width="1" opacity="1"></path><path fill="none" d="M 10 299.5 L 574 299.5" stroke="#C0D0E0" stroke-width="1"  visibility="visible"></path></g><g class="highcharts-axis" ></g><g class="highcharts-axis" ></g><g class="highcharts-axis" ></g><g class="highcharts-series-group" ><g class="highcharts-series" visibility="visible"  transform="translate(10,79) scale(1 1)" clip-path="url(#highcharts-3)"><path fill="none" d="M -3.0 44.0 L 6.0 35.3 L 14.9 56.4 L 23.9 58.0 L 33.0 58.8 L 41.9 70.1 L 50.9 70.4 L 60.0 90.0 L 68.9 94.9 L 77.9 86.5 L 87.0 100.6 L 95.9 89.8 L 104.9 97.5 L 114.0 103.1 L 123.0 122.3 L 131.9 140.7 L 141 121.1 L 150.0 130.8 L 158.9 122.1 L 167.9 120.1 L 177.0 109.3 L 185.9 125.9 L 194.9 126.1 L 204.0 118.8 L 212.9 99.1 L 221.9 77.9 L 231.0 80.0 L 239.9 84.3 L 248.9 83.1 L 258.0 67.0 L 266.9 64.0 L 275.9 68.3 L 285.0 84.3 L 293.9 100.9 L 302.9 125.1 L 312.0 123.5 L 321.0 119.6 L 329.9 127.2 L 339.0 135.1 L 348.0 129.8 L 356.9 128.5 L 365.9 113.1 L 375.0 115.5 L 383.9 123.5 L 392.9 141.0 L 402.0 129.8 L 410.9 171.0 L 419.9 189.9 L 429.0 192.6 L 437.9 178.3 L 446.9 165.2 L 456.0 166.3 L 464.9 161.2 L 473.9 145.7 L 483.0 122.9 L 491.9 100.7 L 500.9 106.8 L 510.0 95.8 L 518.9 88.0 L 527.9 69.1 L 537.0 72.7 L 546.0 63.6 L 554.9 76.0 L 564 82.7" stroke="black" stroke-width="5"  stroke-linejoin="round" stroke-linecap="round"  stroke-opacity="0.0" transform="translate(1, 1)"></path><path fill="none" d="M -3.0 44.0 L 6.0 35.3 L 14.9 56.4 L 23.9 58.0 L 33.0 58.8 L 41.9 70.1 L 50.9 70.4 L 60.0 90.0 L 68.9 94.9 L 77.9 86.5 L 87.0 100.6 L 95.9 89.8 L 104.9 97.5 L 114.0 103.1 L 123.0 122.3 L 131.9 140.7 L 141 121.1 L 150.0 130.8 L 158.9 122.1 L 167.9 120.1 L 177.0 109.3 L 185.9 125.9 L 194.9 126.1 L 204.0 118.8 L 212.9 99.1 L 221.9 77.9 L 231.0 80.0 L 239.9 84.3 L 248.9 83.1 L 258.0 67.0 L 266.9 64.0 L 275.9 68.3 L 285.0 84.3 L 293.9 100.9 L 302.9 125.1 L 312.0 123.5 L 321.0 119.6 L 329.9 127.2 L 339.0 135.1 L 348.0 129.8 L 356.9 128.5 L 365.9 113.1 L 375.0 115.5 L 383.9 123.5 L 392.9 141.0 L 402.0 129.8 L 410.9 171.0 L 419.9 189.9 L 429.0 192.6 L 437.9 178.3 L 446.9 165.2 L 456.0 166.3 L 464.9 161.2 L 473.9 145.7 L 483.0 122.9 L 491.9 100.7 L 500.9 106.8 L 510.0 95.8 L 518.9 88.0 L 527.9 69.1 L 537.0 72.7 L 546.0 63.6 L 554.9 76.0 L 564 82.7" stroke="black" stroke-width="3"  stroke-linejoin="round" stroke-linecap="round"  stroke-opacity="0.0" transform="translate(1, 1)"></path><path fill="none" d="M -3.0 44.0 L 6.0 35.3 L 14.9 56.4 L 23.9 58.0 L 33.0 58.8 L 41.9 70.1 L 50.9 70.4 L 60.0 90.0 L 68.9 94.9 L 77.9 86.5 L 87.0 100.6 L 95.9 89.8 L 104.9 97.5 L 114.0 103.1 L 123.0 122.3 L 131.9 140.7 L 141 121.1 L 150.0 130.8 L 158.9 122.1 L 167.9 120.1 L 177.0 109.3 L 185.9 125.9 L 194.9 126.1 L 204.0 118.8 L 212.9 99.1 L 221.9 77.9 L 231.0 80.0 L 239.9 84.3 L 248.9 83.1 L 258.0 67.0 L 266.9 64.0 L 275.9 68.3 L 285.0 84.3 L 293.9 100.9 L 302.9 125.1 L 312.0 123.5 L 321.0 119.6 L 329.9 127.2 L 339.0 135.1 L 348.0 129.8 L 356.9 128.5 L 365.9 113.1 L 375.0 115.5 L 383.9 123.5 L 392.9 141.0 L 402.0 129.8 L 410.9 171.0 L 419.9 189.9 L 429.0 192.6 L 437.9 178.3 L 446.9 165.2 L 456.0 166.3 L 464.9 161.2 L 473.9 145.7 L 483.0 122.9 L 491.9 100.7 L 500.9 106.8 L 510.0 95.8 L 518.9 88.0 L 527.9 69.1 L 537.0 72.7 L 546.0 63.6 L 554.9 76.0 L 564 82.7" stroke="black" stroke-width="1"  stroke-linejoin="round" stroke-linecap="round"  stroke-opacity="0.1" transform="translate(1, 1)"></path><path fill="none" d="M -3.0 44.0 L 6.0 35.3 L 14.9 56.4 L 23.9 58.0 L 33.0 58.8 L 41.9 70.1 L 50.9 70.4 L 60.0 90.0 L 68.9 94.9 L 77.9 86.5 L 87.0 100.6 L 95.9 89.8 L 104.9 97.5 L 114.0 103.1 L 123.0 122.3 L 131.9 140.7 L 141 121.1 L 150.0 130.8 L 158.9 122.1 L 167.9 120.1 L 177.0 109.3 L 185.9 125.9 L 194.9 126.1 L 204.0 118.8 L 212.9 99.1 L 221.9 77.9 L 231.0 80.0 L 239.9 84.3 L 248.9 83.1 L 258.0 67.0 L 266.9 64.0 L 275.9 68.3 L 285.0 84.3 L 293.9 100.9 L 302.9 125.1 L 312.0 123.5 L 321.0 119.6 L 329.9 127.2 L 339.0 135.1 L 348.0 129.8 L 356.9 128.5 L 365.9 113.1 L 375.0 115.5 L 383.9 123.5 L 392.9 141.0 L 402.0 129.8 L 410.9 171.0 L 419.9 189.9 L 429.0 192.6 L 437.9 178.3 L 446.9 165.2 L 456.0 166.3 L 464.9 161.2 L 473.9 145.7 L 483.0 122.9 L 491.9 100.7 L 500.9 106.8 L 510.0 95.8 L 518.9 88.0 L 527.9 69.1 L 537.0 72.7 L 546.0 63.6 L 554.9 76.0 L 564 82.7" stroke="#f45b5b" stroke-width="2"  stroke-linejoin="round" stroke-linecap="round"></path><path fill="none" d="M -13.0 44.0 L -3.0 44.0 L 6.0 35.3 L 14.9 56.4 L 23.9 58.0 L 33.0 58.8 L 41.9 70.1 L 50.9 70.4 L 60.0 90.0 L 68.9 94.9 L 77.9 86.5 L 87.0 100.6 L 95.9 89.8 L 104.9 97.5 L 114.0 103.1 L 123.0 122.3 L 131.9 140.7 L 141 121.1 L 150.0 130.8 L 158.9 122.1 L 167.9 120.1 L 177.0 109.3 L 185.9 125.9 L 194.9 126.1 L 204.0 118.8 L 212.9 99.1 L 221.9 77.9 L 231.0 80.0 L 239.9 84.3 L 248.9 83.1 L 258.0 67.0 L 266.9 64.0 L 275.9 68.3 L 285.0 84.3 L 293.9 100.9 L 302.9 125.1 L 312.0 123.5 L 321.0 119.6 L 329.9 127.2 L 339.0 135.1 L 348.0 129.8 L 356.9 128.5 L 365.9 113.1 L 375.0 115.5 L 383.9 123.5 L 392.9 141.0 L 402.0 129.8 L 410.9 171.0 L 419.9 189.9 L 429.0 192.6 L 437.9 178.3 L 446.9 165.2 L 456.0 166.3 L 464.9 161.2 L 473.9 145.7 L 483.0 122.9 L 491.9 100.7 L 500.9 106.8 L 510.0 95.8 L 518.9 88.0 L 527.9 69.1 L 537.0 72.7 L 546.0 63.6 L 554.9 76.0 L 564 82.7 L 574 82.7" stroke-linejoin="round" visibility="visible" stroke="rgb(192,192,192)" stroke-opacity="0.0" stroke-width="22"  class=" highcharts-tracker" style=""></path></g><g class="highcharts-markers highcharts-tracker" visibility="visible"  transform="translate(10,79) scale(1 1)" clip-path="url(#highcharts-2)" style=""></g><g class="highcharts-series" visibility="visible"  transform="translate(10,345) scale(1 1)" clip-path="url(#highcharts-5)"><path fill="rgb(69,114,167)" fill-opacity="0.0" d="M 0 36.0 C 0 36.0 0.9 36.0 1.5 36.1 C 2.1 36.1 2.4 36.2 3.0 36.2 C 3.7 36.2 4.0 36.3 4.6 36.3 C 5.2 36.3 5.5 36.4 6.1 36.4 C 6.8 36.4 7.1 36.4 7.7 36.4 C 8.3 36.4 8.6 36.4 9.2 36.4 C 9.9 36.4 10.2 36.4 10.8 36.5 C 11.4 36.5 11.7 36.6 12.3 36.6 C 13.0 36.6 13.3 36.6 13.9 36.5 C 14.5 36.4 14.8 36.2 15.4 36.1 C 16.1 36.0 16.4 35.8 17.0 35.8 C 17.6 35.8 17.9 36.0 18.5 36.0 C 19.2 36.0 19.5 36.0 20.1 35.9 C 20.7 35.9 21.0 35.9 21.6 35.9 C 22.3 35.9 22.6 35.9 23.2 35.9 C 23.8 35.9 24.1 35.7 24.7 35.7 C 25.4 35.6 25.7 35.6 26.3 35.6 C 26.9 35.6 27.2 35.6 27.8 35.5 C 28.5 35.5 28.8 35.4 29.4 35.4 C 30.0 35.4 30.3 35.5 30.9 35.5 C 31.6 35.5 31.9 35.5 32.5 35.5 C 33.1 35.5 33.4 35.5 34.0 35.4 C 34.7 35.3 35.0 35.2 35.6 35.2 C 36.2 35.2 36.5 35.3 37.1 35.3 C 37.8 35.3 38.1 35.2 38.7 35.1 C 39.3 35.1 39.6 35.1 40.2 35.0 C 40.9 34.9 41.2 34.8 41.8 34.8 C 42.4 34.7 42.7 34.7 43.3 34.7 C 44.0 34.7 44.3 34.7 44.9 34.8 C 45.5 34.8 45.8 34.8 46.4 34.8 C 47.1 34.9 47.4 35.0 48.0 35.0 C 48.6 35.1 48.9 35.1 49.5 35.1 C 50.2 35.1 50.5 35.1 51.1 35.0 C 51.7 34.9 52.0 34.6 52.6 34.6 C 53.3 34.6 53.6 34.6 54.2 34.6 C 54.8 34.6 55.1 34.9 55.7 34.9 C 56.4 35.0 56.7 35.0 57.3 35.0 C 57.9 35.0 58.2 35.0 58.8 35.0 C 59.4 35.0 59.8 35.0 60.4 35.0 C 61.0 35.0 61.3 34.8 61.9 34.8 C 62.5 34.8 62.9 34.9 63.5 34.9 C 64.1 34.9 64.4 34.9 65.0 34.8 C 65.6 34.8 66.0 34.8 66.6 34.8 C 67.2 34.7 67.5 34.6 68.1 34.6 C 68.7 34.5 69.1 34.5 69.7 34.5 C 70.3 34.5 70.6 34.5 71.2 34.5 C 71.8 34.5 72.2 34.6 72.8 34.6 C 73.4 34.6 73.7 34.7 74.3 34.7 C 74.9 34.7 75.3 34.5 75.9 34.4 C 76.5 34.3 76.8 34.3 77.4 34.2 C 78.0 34.1 78.4 34.0 79.0 33.9 C 79.6 33.8 79.9 33.8 80.5 33.8 C 81.1 33.7 81.5 33.7 82.1 33.6 C 82.7 33.5 83.0 33.4 83.6 33.3 C 84.2 33.2 84.6 33.0 85.2 33.0 C 85.8 33.0 86.1 33.2 86.7 33.2 C 87.3 33.2 87.6 33.0 88.3 33.0 C 88.9 33.0 89.2 33.1 89.8 33.1 C 90.4 33.1 90.7 32.9 91.4 32.8 C 92.0 32.6 92.3 32.6 92.9 32.5 C 93.5 32.4 93.8 32.2 94.5 32.2 C 95.1 32.1 95.4 32.1 96.0 32.1 C 96.6 32.1 96.9 32.3 97.6 32.4 C 98.2 32.5 98.5 32.5 99.1 32.6 C 99.7 32.7 100.0 33.1 100.7 33.1 C 101.3 33.1 101.6 32.8 102.2 32.7 C 102.8 32.6 103.1 32.6 103.8 32.5 C 104.4 32.4 104.7 32.3 105.3 32.3 C 105.9 32.3 106.2 32.3 106.9 32.3 C 107.5 32.3 107.8 32.3 108.4 32.1 C 109.0 31.9 109.3 31.7 110.0 31.5 C 110.6 31.3 110.9 31.4 111.5 31.2 C 112.1 31.1 112.4 30.9 113.1 30.8 C 113.7 30.7 114.0 30.7 114.6 30.6 C 115.2 30.4 115.5 30.1 116.2 29.9 C 116.8 29.8 117.1 29.7 117.7 29.7 C 118.3 29.7 118.6 29.8 119.3 30.0 C 119.9 30.3 120.2 30.9 120.8 30.9 C 121.4 30.9 121.7 30.9 122.4 30.7 C 123.0 30.5 123.3 30.3 123.9 30.2 C 124.5 30.0 124.8 29.9 125.5 29.8 C 126.1 29.7 126.4 29.5 127.0 29.5 C 127.6 29.5 127.9 29.8 128.6 29.8 C 129.2 29.8 129.5 29.1 130.1 29.1 C 130.7 29.1 131.0 29.2 131.7 29.5 C 132.3 29.7 132.6 30.0 133.2 30.3 C 133.8 30.6 134.1 30.4 134.8 30.8 C 135.4 31.2 135.7 31.8 136.3 32.1 C 136.9 32.5 137.2 32.4 137.9 32.5 C 138.5 32.7 138.8 32.9 139.4 32.9 C 140.0 32.9 140.3 32.8 141 32.8 C 141.6 32.8 141.9 33.1 142.5 33.1 C 143.1 33.1 143.4 33.0 144.0 33.0 C 144.7 33.0 145.0 33.0 145.6 33.0 C 146.2 33.0 146.5 33.0 147.1 32.9 C 147.8 32.8 148.1 32.8 148.7 32.6 C 149.3 32.5 149.6 32.3 150.2 32.1 C 150.9 31.9 151.2 31.8 151.8 31.7 C 152.4 31.6 152.7 31.6 153.3 31.5 C 154.0 31.5 154.3 31.5 154.9 31.5 C 155.5 31.4 155.8 31.1 156.4 30.8 C 157.1 30.6 157.4 30.5 158.0 30.3 C 158.6 30.1 158.9 30.0 159.5 29.9 C 160.2 29.7 160.5 29.7 161.1 29.7 C 161.7 29.7 162.0 30.0 162.6 30.0 C 163.3 30.0 163.6 29.7 164.2 29.7 C 164.8 29.7 165.1 29.7 165.7 29.8 C 166.4 29.8 166.7 30.2 167.3 30.2 C 167.9 30.2 168.2 30.2 168.8 30.2 C 169.5 30.2 169.8 30.4 170.4 30.5 C 171.0 30.6 171.3 30.6 171.9 30.6 C 172.6 30.6 172.9 30.3 173.5 30.3 C 174.1 30.3 174.4 30.4 175.0 30.6 C 175.7 30.7 176.0 30.8 176.6 31.0 C 177.2 31.1 177.5 31.3 178.1 31.3 C 178.8 31.3 179.1 31.2 179.7 31.0 C 180.3 30.8 180.6 30.2 181.2 30.2 C 181.9 30.2 182.2 30.3 182.8 30.3 C 183.4 30.4 183.7 30.3 184.3 30.5 C 185.0 30.6 185.3 30.7 185.9 30.9 C 186.5 31.1 186.8 31.2 187.4 31.5 C 188.1 31.8 188.4 32.1 189.0 32.3 C 189.6 32.6 189.9 32.4 190.5 32.7 C 191.2 33.0 191.5 33.6 192.1 34.0 C 192.7 34.3 193.0 34.6 193.6 34.6 C 194.3 34.6 194.6 34.1 195.2 34.1 C 195.8 34.1 196.1 34.4 196.7 34.4 C 197.4 34.4 197.7 34.1 198.3 34.1 C 198.9 34.0 199.2 34.0 199.8 34.0 C 200.4 34.0 200.8 34.4 201.4 34.5 C 202.0 34.7 202.3 35.0 202.9 35.0 C 203.5 35.0 203.9 34.6 204.5 34.6 C 205.1 34.6 205.4 34.6 206.0 34.6 C 206.6 34.6 207.0 34.3 207.6 34.3 C 208.2 34.3 208.5 34.5 209.1 34.6 C 209.7 34.8 210.1 35.0 210.7 35.0 C 211.3 35.0 211.6 35.0 212.2 34.9 C 212.8 34.8 213.2 34.6 213.8 34.6 C 214.4 34.6 214.7 34.9 215.3 35.0 C 215.9 35.0 216.3 35.0 216.9 35.0 C 217.5 35.0 217.8 34.8 218.4 34.6 C 219.0 34.5 219.4 34.6 220.0 34.5 C 220.6 34.4 220.9 34.3 221.5 34.3 C 222.1 34.3 222.5 34.5 223.1 34.6 C 223.7 34.7 224.0 34.7 224.6 34.8 C 225.2 34.8 225.6 34.8 226.2 34.8 C 226.8 34.8 227.1 34.8 227.7 34.7 C 228.3 34.5 228.6 34.4 229.3 34.2 C 229.9 34.0 230.2 33.9 230.8 33.8 C 231.4 33.7 231.7 33.8 232.4 33.7 C 233.0 33.6 233.3 33.4 233.9 33.3 C 234.5 33.2 234.8 33.2 235.5 33.2 C 236.1 33.1 236.4 33.1 237.0 33.0 C 237.6 33.0 237.9 33.0 238.6 32.9 C 239.2 32.8 239.5 32.6 240.1 32.6 C 240.7 32.6 241.0 33.0 241.7 33.0 C 242.3 33.0 242.6 33.0 243.2 32.9 C 243.8 32.8 244.1 32.6 244.8 32.5 C 245.4 32.3 245.7 32.1 246.3 32.1 C 246.9 32.1 247.2 32.1 247.9 32.1 C 248.5 32.2 248.8 32.3 249.4 32.3 C 250.0 32.3 250.3 32.3 251.0 32.3 C 251.6 32.2 251.9 32.1 252.5 32.1 C 253.1 32.1 253.4 32.3 254.1 32.3 C 254.7 32.3 255.0 32.0 255.6 31.8 C 256.2 31.6 256.5 31.5 257.2 31.3 C 257.8 31.2 258.1 31.2 258.7 31.1 C 259.3 31.0 259.6 30.9 260.3 30.8 C 260.9 30.8 261.2 30.8 261.8 30.8 C 262.4 30.8 262.7 30.9 263.4 30.9 C 264.0 30.9 264.3 30.7 264.9 30.7 C 265.5 30.7 265.8 30.8 266.5 30.8 C 267.1 30.8 267.4 30.6 268.0 30.5 C 268.6 30.4 268.9 30.2 269.6 30.1 C 270.2 30.0 270.5 29.9 271.1 29.9 C 271.7 29.9 272.0 29.9 272.7 29.9 C 273.3 29.8 273.6 29.7 274.2 29.6 C 274.8 29.6 275.1 29.6 275.8 29.6 C 276.4 29.5 276.7 29.0 277.3 29.0 C 277.9 29.0 278.2 29.2 278.9 29.3 C 279.5 29.4 279.8 29.5 280.4 29.5 C 281.0 29.5 281.3 29.0 282 28.9 C 282.6 28.9 282.9 28.9 283.5 28.9 C 284.1 28.9 284.4 28.9 285.0 28.9 C 285.7 28.9 286.0 29.1 286.6 29.2 C 287.2 29.3 287.5 29.4 288.1 29.4 C 288.8 29.4 289.1 29.4 289.7 29.3 C 290.3 29.3 290.6 29.0 291.2 28.9 C 291.9 28.7 292.2 28.6 292.8 28.5 C 293.4 28.4 293.7 28.4 294.3 28.4 C 295.0 28.4 295.3 28.6 295.9 28.6 C 296.5 28.7 296.8 28.6 297.4 28.7 C 298.1 28.7 298.4 28.9 299.0 29.0 C 299.6 29.1 299.9 29.3 300.5 29.3 C 301.2 29.3 301.5 29.3 302.1 29.2 C 302.7 29.2 303.0 28.9 303.6 28.9 C 304.3 28.9 304.6 29.0 305.2 29.0 C 305.8 29.0 306.1 28.7 306.7 28.5 C 307.4 28.2 307.7 27.8 308.3 27.8 C 308.9 27.8 309.2 27.8 309.8 27.8 C 310.5 27.8 310.8 27.7 311.4 27.6 C 312.0 27.5 312.3 27.4 312.9 27.3 C 313.6 27.1 313.9 27.1 314.5 27.0 C 315.1 26.9 315.4 26.9 316.0 26.7 C 316.7 26.5 317.0 26.3 317.6 26.1 C 318.2 25.9 318.5 25.7 319.1 25.7 C 319.8 25.7 320.1 26.4 320.7 26.4 C 321.3 26.4 321.6 26.1 322.2 26.1 C 322.9 26.1 323.2 26.6 323.8 26.6 C 324.4 26.6 324.7 26.6 325.3 26.5 C 326.0 26.4 326.3 26.0 326.9 26.0 C 327.5 26.0 327.8 26.5 328.4 26.5 C 329.1 26.5 329.4 25.9 330.0 25.7 C 330.6 25.5 330.9 25.4 331.5 25.4 C 332.2 25.4 332.5 26.3 333.1 26.3 C 333.7 26.3 334.0 26.3 334.6 26.3 C 335.3 26.3 335.6 26.4 336.2 26.4 C 336.8 26.4 337.1 26.3 337.7 26.3 C 338.4 26.2 338.7 26.1 339.3 26.0 C 339.9 25.9 340.2 25.9 340.8 25.9 C 341.4 25.9 341.8 26.1 342.4 26.3 C 343.0 26.4 343.3 26.3 343.9 26.5 C 344.5 26.6 344.9 26.9 345.5 26.9 C 346.1 26.9 346.4 26.7 347.0 26.5 C 347.6 26.3 348.0 26.1 348.6 25.9 C 349.2 25.7 349.5 25.6 350.1 25.4 C 350.7 25.1 351.1 24.6 351.7 24.6 C 352.3 24.6 352.6 24.6 353.2 24.6 C 353.8 24.6 354.2 24.6 354.8 24.5 C 355.4 24.4 355.7 24.0 356.3 23.8 C 356.9 23.6 357.3 23.3 357.9 23.3 C 358.5 23.3 358.8 23.6 359.4 23.6 C 360.0 23.6 360.4 23.4 361.0 23.3 C 361.6 23.2 361.9 23.1 362.5 23.1 C 363.1 23.1 363.5 23.7 364.1 23.7 C 364.7 23.7 365.0 23.4 365.6 23.2 C 366.2 23.1 366.6 23.2 367.2 23.1 C 367.8 23.0 368.1 22.9 368.7 22.9 C 369.3 22.8 369.6 22.9 370.3 22.8 C 370.9 22.8 371.2 22.7 371.8 22.7 C 372.4 22.7 372.7 22.7 373.4 22.7 C 374.0 22.6 374.3 22.4 374.9 22.2 C 375.5 22.0 375.8 21.6 376.5 21.6 C 377.1 21.6 377.4 22.1 378.0 22.1 C 378.6 22.1 378.9 21.9 379.6 21.8 C 380.2 21.7 380.5 21.8 381.1 21.7 C 381.7 21.5 382.0 21.2 382.7 21.1 C 383.3 20.9 383.6 20.9 384.2 20.9 C 384.8 20.9 385.1 21.7 385.8 21.7 C 386.4 21.7 386.7 21.1 387.3 21.1 C 387.9 21.1 388.2 21.1 388.9 21.2 C 389.5 21.3 389.8 21.9 390.4 21.9 C 391.0 21.9 391.3 21.8 392.0 21.7 C 392.6 21.6 392.9 21.4 393.5 21.4 C 394.1 21.4 394.4 21.8 395.1 21.9 C 395.7 22.1 396.0 22.3 396.6 22.3 C 397.2 22.3 397.5 22.0 398.2 21.8 C 398.8 21.6 399.1 21.3 399.7 21.3 C 400.3 21.3 400.6 21.4 401.3 21.5 C 401.9 21.5 402.2 21.5 402.8 21.5 C 403.4 21.6 403.7 21.9 404.4 22.0 C 405.0 22.1 405.3 22.1 405.9 22.1 C 406.5 22.1 406.8 21.6 407.5 21.6 C 408.1 21.6 408.4 22.1 409.0 22.3 C 409.6 22.5 409.9 22.5 410.6 22.6 C 411.2 22.6 411.5 22.7 412.1 22.7 C 412.7 22.7 413.0 22.4 413.7 22.1 C 414.3 21.7 414.6 21.3 415.2 21.1 C 415.8 20.9 416.1 21.1 416.8 20.9 C 417.4 20.8 417.7 20.0 418.3 19.6 C 418.9 19.2 419.2 19.0 419.9 19.0 C 420.5 19.0 420.8 19.2 421.4 19.5 C 422.0 19.8 422.3 20.4 423 20.4 C 423.6 20.4 423.9 20.1 424.5 20.1 C 425.1 20.1 425.4 20.2 426.0 20.2 C 426.7 20.2 427.0 19.6 427.6 19.6 C 428.2 19.6 428.5 19.7 429.1 19.7 C 429.8 19.7 430.1 19.6 430.7 19.3 C 431.3 19.0 431.6 18.3 432.2 18.3 C 432.9 18.3 433.2 18.7 433.8 19.1 C 434.4 19.4 434.7 20.1 435.3 20.1 C 436.0 20.1 436.3 18.6 436.9 18.5 C 437.5 18.5 437.8 18.5 438.4 18.5 C 439.1 18.5 439.4 18.6 440.0 18.6 C 440.6 18.7 440.9 18.7 441.5 18.7 C 442.2 18.8 442.5 18.9 443.1 19.1 C 443.7 19.3 444.0 19.5 444.6 19.7 C 445.3 20.0 445.6 20.4 446.2 20.4 C 446.8 20.4 447.1 19.9 447.7 19.7 C 448.4 19.5 448.7 19.2 449.3 19.2 C 449.9 19.2 450.2 19.6 450.8 19.6 C 451.5 19.6 451.8 19.2 452.4 19.0 C 453.0 18.8 453.3 18.7 453.9 18.5 C 454.6 18.3 454.9 18.1 455.5 17.9 C 456.1 17.7 456.4 17.7 457.0 17.6 C 457.7 17.5 458.0 17.6 458.6 17.4 C 459.2 17.3 459.5 17.2 460.1 16.8 C 460.8 16.5 461.1 16.3 461.7 15.9 C 462.3 15.4 462.6 15.2 463.2 14.7 C 463.9 14.2 464.2 13.9 464.8 13.5 C 465.4 13.1 465.7 13.1 466.3 12.8 C 467.0 12.4 467.3 11.6 467.9 11.6 C 468.5 11.6 468.8 11.7 469.4 11.7 C 470.1 11.7 470.4 10.4 471.0 9.7 C 471.6 9.0 471.9 8.8 472.5 8.4 C 473.2 8.1 473.5 8.2 474.1 8.0 C 474.7 7.7 475.0 7.1 475.6 7.1 C 476.3 7.1 476.6 7.1 477.2 7.2 C 477.8 7.4 478.1 8.8 478.7 8.9 C 479.4 8.9 479.7 8.9 480.3 8.9 C 480.9 9.0 481.2 9.3 481.8 9.5 C 482.4 9.7 482.8 9.7 483.4 10.1 C 484.0 10.4 484.3 11.4 484.9 11.4 C 485.5 11.4 485.9 10.6 486.5 10.4 C 487.1 10.1 487.4 9.9 488.0 9.9 C 488.6 9.9 489.0 10.0 489.6 10.0 C 490.2 10.0 490.5 10.0 491.1 9.8 C 491.7 9.7 492.1 9.3 492.7 9.3 C 493.3 9.3 493.6 9.8 494.2 9.8 C 494.8 9.8 495.2 8.6 495.8 8.4 C 496.4 8.1 496.7 8.2 497.3 8.1 C 497.9 8.1 498.3 8.1 498.9 8.1 C 499.5 8.1 499.8 9.1 500.4 9.1 C 501.0 9.1 501.4 8.4 502.0 8.1 C 502.6 7.7 502.9 7.7 503.5 7.4 C 504.1 7.1 504.5 7.1 505.1 6.6 C 505.7 6.2 506.0 5.6 506.6 5.2 C 507.2 4.8 507.6 5.0 508.2 4.8 C 508.8 4.7 509.1 4.6 509.7 4.6 C 510.3 4.6 510.6 4.7 511.3 4.7 C 511.9 4.7 512.2 3.3 512.8 3.3 C 513.4 3.3 513.7 4.2 514.4 4.6 C 515.0 5.0 515.3 4.8 515.9 5.3 C 516.5 5.7 516.8 6.7 517.5 6.7 C 518.1 6.7 518.4 6.7 519.0 6.7 C 519.6 6.7 519.9 7.2 520.6 7.7 C 521.2 8.1 521.5 8.4 522.1 9.0 C 522.7 9.5 523.0 9.9 523.7 10.4 C 524.3 11.0 524.6 11.8 525.2 11.8 C 525.8 11.8 526.1 10.8 526.8 10.3 C 527.4 9.7 527.7 9.2 528.3 9.2 C 528.9 9.2 529.2 10.1 529.9 10.7 C 530.5 11.3 530.8 11.8 531.4 12.1 C 532.0 12.4 532.3 12.2 533.0 12.4 C 533.6 12.5 533.9 12.9 534.5 12.9 C 535.1 12.9 535.4 11.7 536.1 11.7 C 536.7 11.7 537.0 12.1 537.6 12.5 C 538.2 12.9 538.5 13.2 539.2 13.6 C 539.8 14.1 540.1 14.3 540.7 14.8 C 541.3 15.2 541.6 15.9 542.3 15.9 C 542.9 15.9 543.2 15.8 543.8 15.7 C 544.4 15.5 544.7 15.2 545.4 15.2 C 546.0 15.2 546.3 15.8 546.9 16.1 C 547.5 16.4 547.8 16.4 548.5 16.6 C 549.1 16.9 549.4 17.3 550.0 17.3 C 550.6 17.3 550.9 17.3 551.6 17.0 C 552.2 16.7 552.5 15.9 553.1 15.9 C 553.7 15.9 554.0 15.9 554.7 15.9 C 555.3 16.0 555.6 17.3 556.2 17.3 C 556.8 17.3 557.1 17.2 557.8 17.2 C 558.4 17.2 558.7 18.4 559.3 18.4 C 559.9 18.4 560.2 18.4 560.9 18.4 C 561.5 18.3 561.8 17.2 562.4 16.6 C 563.0 16.1 564 15.7 564 15.7 L 564 40 L 0 40" ></path><path fill="none" d="M 0 36.0 C 0 36.0 0.9 36.0 1.5 36.1 C 2.1 36.1 2.4 36.2 3.0 36.2 C 3.7 36.2 4.0 36.3 4.6 36.3 C 5.2 36.3 5.5 36.4 6.1 36.4 C 6.8 36.4 7.1 36.4 7.7 36.4 C 8.3 36.4 8.6 36.4 9.2 36.4 C 9.9 36.4 10.2 36.4 10.8 36.5 C 11.4 36.5 11.7 36.6 12.3 36.6 C 13.0 36.6 13.3 36.6 13.9 36.5 C 14.5 36.4 14.8 36.2 15.4 36.1 C 16.1 36.0 16.4 35.8 17.0 35.8 C 17.6 35.8 17.9 36.0 18.5 36.0 C 19.2 36.0 19.5 36.0 20.1 35.9 C 20.7 35.9 21.0 35.9 21.6 35.9 C 22.3 35.9 22.6 35.9 23.2 35.9 C 23.8 35.9 24.1 35.7 24.7 35.7 C 25.4 35.6 25.7 35.6 26.3 35.6 C 26.9 35.6 27.2 35.6 27.8 35.5 C 28.5 35.5 28.8 35.4 29.4 35.4 C 30.0 35.4 30.3 35.5 30.9 35.5 C 31.6 35.5 31.9 35.5 32.5 35.5 C 33.1 35.5 33.4 35.5 34.0 35.4 C 34.7 35.3 35.0 35.2 35.6 35.2 C 36.2 35.2 36.5 35.3 37.1 35.3 C 37.8 35.3 38.1 35.2 38.7 35.1 C 39.3 35.1 39.6 35.1 40.2 35.0 C 40.9 34.9 41.2 34.8 41.8 34.8 C 42.4 34.7 42.7 34.7 43.3 34.7 C 44.0 34.7 44.3 34.7 44.9 34.8 C 45.5 34.8 45.8 34.8 46.4 34.8 C 47.1 34.9 47.4 35.0 48.0 35.0 C 48.6 35.1 48.9 35.1 49.5 35.1 C 50.2 35.1 50.5 35.1 51.1 35.0 C 51.7 34.9 52.0 34.6 52.6 34.6 C 53.3 34.6 53.6 34.6 54.2 34.6 C 54.8 34.6 55.1 34.9 55.7 34.9 C 56.4 35.0 56.7 35.0 57.3 35.0 C 57.9 35.0 58.2 35.0 58.8 35.0 C 59.4 35.0 59.8 35.0 60.4 35.0 C 61.0 35.0 61.3 34.8 61.9 34.8 C 62.5 34.8 62.9 34.9 63.5 34.9 C 64.1 34.9 64.4 34.9 65.0 34.8 C 65.6 34.8 66.0 34.8 66.6 34.8 C 67.2 34.7 67.5 34.6 68.1 34.6 C 68.7 34.5 69.1 34.5 69.7 34.5 C 70.3 34.5 70.6 34.5 71.2 34.5 C 71.8 34.5 72.2 34.6 72.8 34.6 C 73.4 34.6 73.7 34.7 74.3 34.7 C 74.9 34.7 75.3 34.5 75.9 34.4 C 76.5 34.3 76.8 34.3 77.4 34.2 C 78.0 34.1 78.4 34.0 79.0 33.9 C 79.6 33.8 79.9 33.8 80.5 33.8 C 81.1 33.7 81.5 33.7 82.1 33.6 C 82.7 33.5 83.0 33.4 83.6 33.3 C 84.2 33.2 84.6 33.0 85.2 33.0 C 85.8 33.0 86.1 33.2 86.7 33.2 C 87.3 33.2 87.6 33.0 88.3 33.0 C 88.9 33.0 89.2 33.1 89.8 33.1 C 90.4 33.1 90.7 32.9 91.4 32.8 C 92.0 32.6 92.3 32.6 92.9 32.5 C 93.5 32.4 93.8 32.2 94.5 32.2 C 95.1 32.1 95.4 32.1 96.0 32.1 C 96.6 32.1 96.9 32.3 97.6 32.4 C 98.2 32.5 98.5 32.5 99.1 32.6 C 99.7 32.7 100.0 33.1 100.7 33.1 C 101.3 33.1 101.6 32.8 102.2 32.7 C 102.8 32.6 103.1 32.6 103.8 32.5 C 104.4 32.4 104.7 32.3 105.3 32.3 C 105.9 32.3 106.2 32.3 106.9 32.3 C 107.5 32.3 107.8 32.3 108.4 32.1 C 109.0 31.9 109.3 31.7 110.0 31.5 C 110.6 31.3 110.9 31.4 111.5 31.2 C 112.1 31.1 112.4 30.9 113.1 30.8 C 113.7 30.7 114.0 30.7 114.6 30.6 C 115.2 30.4 115.5 30.1 116.2 29.9 C 116.8 29.8 117.1 29.7 117.7 29.7 C 118.3 29.7 118.6 29.8 119.3 30.0 C 119.9 30.3 120.2 30.9 120.8 30.9 C 121.4 30.9 121.7 30.9 122.4 30.7 C 123.0 30.5 123.3 30.3 123.9 30.2 C 124.5 30.0 124.8 29.9 125.5 29.8 C 126.1 29.7 126.4 29.5 127.0 29.5 C 127.6 29.5 127.9 29.8 128.6 29.8 C 129.2 29.8 129.5 29.1 130.1 29.1 C 130.7 29.1 131.0 29.2 131.7 29.5 C 132.3 29.7 132.6 30.0 133.2 30.3 C 133.8 30.6 134.1 30.4 134.8 30.8 C 135.4 31.2 135.7 31.8 136.3 32.1 C 136.9 32.5 137.2 32.4 137.9 32.5 C 138.5 32.7 138.8 32.9 139.4 32.9 C 140.0 32.9 140.3 32.8 141 32.8 C 141.6 32.8 141.9 33.1 142.5 33.1 C 143.1 33.1 143.4 33.0 144.0 33.0 C 144.7 33.0 145.0 33.0 145.6 33.0 C 146.2 33.0 146.5 33.0 147.1 32.9 C 147.8 32.8 148.1 32.8 148.7 32.6 C 149.3 32.5 149.6 32.3 150.2 32.1 C 150.9 31.9 151.2 31.8 151.8 31.7 C 152.4 31.6 152.7 31.6 153.3 31.5 C 154.0 31.5 154.3 31.5 154.9 31.5 C 155.5 31.4 155.8 31.1 156.4 30.8 C 157.1 30.6 157.4 30.5 158.0 30.3 C 158.6 30.1 158.9 30.0 159.5 29.9 C 160.2 29.7 160.5 29.7 161.1 29.7 C 161.7 29.7 162.0 30.0 162.6 30.0 C 163.3 30.0 163.6 29.7 164.2 29.7 C 164.8 29.7 165.1 29.7 165.7 29.8 C 166.4 29.8 166.7 30.2 167.3 30.2 C 167.9 30.2 168.2 30.2 168.8 30.2 C 169.5 30.2 169.8 30.4 170.4 30.5 C 171.0 30.6 171.3 30.6 171.9 30.6 C 172.6 30.6 172.9 30.3 173.5 30.3 C 174.1 30.3 174.4 30.4 175.0 30.6 C 175.7 30.7 176.0 30.8 176.6 31.0 C 177.2 31.1 177.5 31.3 178.1 31.3 C 178.8 31.3 179.1 31.2 179.7 31.0 C 180.3 30.8 180.6 30.2 181.2 30.2 C 181.9 30.2 182.2 30.3 182.8 30.3 C 183.4 30.4 183.7 30.3 184.3 30.5 C 185.0 30.6 185.3 30.7 185.9 30.9 C 186.5 31.1 186.8 31.2 187.4 31.5 C 188.1 31.8 188.4 32.1 189.0 32.3 C 189.6 32.6 189.9 32.4 190.5 32.7 C 191.2 33.0 191.5 33.6 192.1 34.0 C 192.7 34.3 193.0 34.6 193.6 34.6 C 194.3 34.6 194.6 34.1 195.2 34.1 C 195.8 34.1 196.1 34.4 196.7 34.4 C 197.4 34.4 197.7 34.1 198.3 34.1 C 198.9 34.0 199.2 34.0 199.8 34.0 C 200.4 34.0 200.8 34.4 201.4 34.5 C 202.0 34.7 202.3 35.0 202.9 35.0 C 203.5 35.0 203.9 34.6 204.5 34.6 C 205.1 34.6 205.4 34.6 206.0 34.6 C 206.6 34.6 207.0 34.3 207.6 34.3 C 208.2 34.3 208.5 34.5 209.1 34.6 C 209.7 34.8 210.1 35.0 210.7 35.0 C 211.3 35.0 211.6 35.0 212.2 34.9 C 212.8 34.8 213.2 34.6 213.8 34.6 C 214.4 34.6 214.7 34.9 215.3 35.0 C 215.9 35.0 216.3 35.0 216.9 35.0 C 217.5 35.0 217.8 34.8 218.4 34.6 C 219.0 34.5 219.4 34.6 220.0 34.5 C 220.6 34.4 220.9 34.3 221.5 34.3 C 222.1 34.3 222.5 34.5 223.1 34.6 C 223.7 34.7 224.0 34.7 224.6 34.8 C 225.2 34.8 225.6 34.8 226.2 34.8 C 226.8 34.8 227.1 34.8 227.7 34.7 C 228.3 34.5 228.6 34.4 229.3 34.2 C 229.9 34.0 230.2 33.9 230.8 33.8 C 231.4 33.7 231.7 33.8 232.4 33.7 C 233.0 33.6 233.3 33.4 233.9 33.3 C 234.5 33.2 234.8 33.2 235.5 33.2 C 236.1 33.1 236.4 33.1 237.0 33.0 C 237.6 33.0 237.9 33.0 238.6 32.9 C 239.2 32.8 239.5 32.6 240.1 32.6 C 240.7 32.6 241.0 33.0 241.7 33.0 C 242.3 33.0 242.6 33.0 243.2 32.9 C 243.8 32.8 244.1 32.6 244.8 32.5 C 245.4 32.3 245.7 32.1 246.3 32.1 C 246.9 32.1 247.2 32.1 247.9 32.1 C 248.5 32.2 248.8 32.3 249.4 32.3 C 250.0 32.3 250.3 32.3 251.0 32.3 C 251.6 32.2 251.9 32.1 252.5 32.1 C 253.1 32.1 253.4 32.3 254.1 32.3 C 254.7 32.3 255.0 32.0 255.6 31.8 C 256.2 31.6 256.5 31.5 257.2 31.3 C 257.8 31.2 258.1 31.2 258.7 31.1 C 259.3 31.0 259.6 30.9 260.3 30.8 C 260.9 30.8 261.2 30.8 261.8 30.8 C 262.4 30.8 262.7 30.9 263.4 30.9 C 264.0 30.9 264.3 30.7 264.9 30.7 C 265.5 30.7 265.8 30.8 266.5 30.8 C 267.1 30.8 267.4 30.6 268.0 30.5 C 268.6 30.4 268.9 30.2 269.6 30.1 C 270.2 30.0 270.5 29.9 271.1 29.9 C 271.7 29.9 272.0 29.9 272.7 29.9 C 273.3 29.8 273.6 29.7 274.2 29.6 C 274.8 29.6 275.1 29.6 275.8 29.6 C 276.4 29.5 276.7 29.0 277.3 29.0 C 277.9 29.0 278.2 29.2 278.9 29.3 C 279.5 29.4 279.8 29.5 280.4 29.5 C 281.0 29.5 281.3 29.0 282 28.9 C 282.6 28.9 282.9 28.9 283.5 28.9 C 284.1 28.9 284.4 28.9 285.0 28.9 C 285.7 28.9 286.0 29.1 286.6 29.2 C 287.2 29.3 287.5 29.4 288.1 29.4 C 288.8 29.4 289.1 29.4 289.7 29.3 C 290.3 29.3 290.6 29.0 291.2 28.9 C 291.9 28.7 292.2 28.6 292.8 28.5 C 293.4 28.4 293.7 28.4 294.3 28.4 C 295.0 28.4 295.3 28.6 295.9 28.6 C 296.5 28.7 296.8 28.6 297.4 28.7 C 298.1 28.7 298.4 28.9 299.0 29.0 C 299.6 29.1 299.9 29.3 300.5 29.3 C 301.2 29.3 301.5 29.3 302.1 29.2 C 302.7 29.2 303.0 28.9 303.6 28.9 C 304.3 28.9 304.6 29.0 305.2 29.0 C 305.8 29.0 306.1 28.7 306.7 28.5 C 307.4 28.2 307.7 27.8 308.3 27.8 C 308.9 27.8 309.2 27.8 309.8 27.8 C 310.5 27.8 310.8 27.7 311.4 27.6 C 312.0 27.5 312.3 27.4 312.9 27.3 C 313.6 27.1 313.9 27.1 314.5 27.0 C 315.1 26.9 315.4 26.9 316.0 26.7 C 316.7 26.5 317.0 26.3 317.6 26.1 C 318.2 25.9 318.5 25.7 319.1 25.7 C 319.8 25.7 320.1 26.4 320.7 26.4 C 321.3 26.4 321.6 26.1 322.2 26.1 C 322.9 26.1 323.2 26.6 323.8 26.6 C 324.4 26.6 324.7 26.6 325.3 26.5 C 326.0 26.4 326.3 26.0 326.9 26.0 C 327.5 26.0 327.8 26.5 328.4 26.5 C 329.1 26.5 329.4 25.9 330.0 25.7 C 330.6 25.5 330.9 25.4 331.5 25.4 C 332.2 25.4 332.5 26.3 333.1 26.3 C 333.7 26.3 334.0 26.3 334.6 26.3 C 335.3 26.3 335.6 26.4 336.2 26.4 C 336.8 26.4 337.1 26.3 337.7 26.3 C 338.4 26.2 338.7 26.1 339.3 26.0 C 339.9 25.9 340.2 25.9 340.8 25.9 C 341.4 25.9 341.8 26.1 342.4 26.3 C 343.0 26.4 343.3 26.3 343.9 26.5 C 344.5 26.6 344.9 26.9 345.5 26.9 C 346.1 26.9 346.4 26.7 347.0 26.5 C 347.6 26.3 348.0 26.1 348.6 25.9 C 349.2 25.7 349.5 25.6 350.1 25.4 C 350.7 25.1 351.1 24.6 351.7 24.6 C 352.3 24.6 352.6 24.6 353.2 24.6 C 353.8 24.6 354.2 24.6 354.8 24.5 C 355.4 24.4 355.7 24.0 356.3 23.8 C 356.9 23.6 357.3 23.3 357.9 23.3 C 358.5 23.3 358.8 23.6 359.4 23.6 C 360.0 23.6 360.4 23.4 361.0 23.3 C 361.6 23.2 361.9 23.1 362.5 23.1 C 363.1 23.1 363.5 23.7 364.1 23.7 C 364.7 23.7 365.0 23.4 365.6 23.2 C 366.2 23.1 366.6 23.2 367.2 23.1 C 367.8 23.0 368.1 22.9 368.7 22.9 C 369.3 22.8 369.6 22.9 370.3 22.8 C 370.9 22.8 371.2 22.7 371.8 22.7 C 372.4 22.7 372.7 22.7 373.4 22.7 C 374.0 22.6 374.3 22.4 374.9 22.2 C 375.5 22.0 375.8 21.6 376.5 21.6 C 377.1 21.6 377.4 22.1 378.0 22.1 C 378.6 22.1 378.9 21.9 379.6 21.8 C 380.2 21.7 380.5 21.8 381.1 21.7 C 381.7 21.5 382.0 21.2 382.7 21.1 C 383.3 20.9 383.6 20.9 384.2 20.9 C 384.8 20.9 385.1 21.7 385.8 21.7 C 386.4 21.7 386.7 21.1 387.3 21.1 C 387.9 21.1 388.2 21.1 388.9 21.2 C 389.5 21.3 389.8 21.9 390.4 21.9 C 391.0 21.9 391.3 21.8 392.0 21.7 C 392.6 21.6 392.9 21.4 393.5 21.4 C 394.1 21.4 394.4 21.8 395.1 21.9 C 395.7 22.1 396.0 22.3 396.6 22.3 C 397.2 22.3 397.5 22.0 398.2 21.8 C 398.8 21.6 399.1 21.3 399.7 21.3 C 400.3 21.3 400.6 21.4 401.3 21.5 C 401.9 21.5 402.2 21.5 402.8 21.5 C 403.4 21.6 403.7 21.9 404.4 22.0 C 405.0 22.1 405.3 22.1 405.9 22.1 C 406.5 22.1 406.8 21.6 407.5 21.6 C 408.1 21.6 408.4 22.1 409.0 22.3 C 409.6 22.5 409.9 22.5 410.6 22.6 C 411.2 22.6 411.5 22.7 412.1 22.7 C 412.7 22.7 413.0 22.4 413.7 22.1 C 414.3 21.7 414.6 21.3 415.2 21.1 C 415.8 20.9 416.1 21.1 416.8 20.9 C 417.4 20.8 417.7 20.0 418.3 19.6 C 418.9 19.2 419.2 19.0 419.9 19.0 C 420.5 19.0 420.8 19.2 421.4 19.5 C 422.0 19.8 422.3 20.4 423 20.4 C 423.6 20.4 423.9 20.1 424.5 20.1 C 425.1 20.1 425.4 20.2 426.0 20.2 C 426.7 20.2 427.0 19.6 427.6 19.6 C 428.2 19.6 428.5 19.7 429.1 19.7 C 429.8 19.7 430.1 19.6 430.7 19.3 C 431.3 19.0 431.6 18.3 432.2 18.3 C 432.9 18.3 433.2 18.7 433.8 19.1 C 434.4 19.4 434.7 20.1 435.3 20.1 C 436.0 20.1 436.3 18.6 436.9 18.5 C 437.5 18.5 437.8 18.5 438.4 18.5 C 439.1 18.5 439.4 18.6 440.0 18.6 C 440.6 18.7 440.9 18.7 441.5 18.7 C 442.2 18.8 442.5 18.9 443.1 19.1 C 443.7 19.3 444.0 19.5 444.6 19.7 C 445.3 20.0 445.6 20.4 446.2 20.4 C 446.8 20.4 447.1 19.9 447.7 19.7 C 448.4 19.5 448.7 19.2 449.3 19.2 C 449.9 19.2 450.2 19.6 450.8 19.6 C 451.5 19.6 451.8 19.2 452.4 19.0 C 453.0 18.8 453.3 18.7 453.9 18.5 C 454.6 18.3 454.9 18.1 455.5 17.9 C 456.1 17.7 456.4 17.7 457.0 17.6 C 457.7 17.5 458.0 17.6 458.6 17.4 C 459.2 17.3 459.5 17.2 460.1 16.8 C 460.8 16.5 461.1 16.3 461.7 15.9 C 462.3 15.4 462.6 15.2 463.2 14.7 C 463.9 14.2 464.2 13.9 464.8 13.5 C 465.4 13.1 465.7 13.1 466.3 12.8 C 467.0 12.4 467.3 11.6 467.9 11.6 C 468.5 11.6 468.8 11.7 469.4 11.7 C 470.1 11.7 470.4 10.4 471.0 9.7 C 471.6 9.0 471.9 8.8 472.5 8.4 C 473.2 8.1 473.5 8.2 474.1 8.0 C 474.7 7.7 475.0 7.1 475.6 7.1 C 476.3 7.1 476.6 7.1 477.2 7.2 C 477.8 7.4 478.1 8.8 478.7 8.9 C 479.4 8.9 479.7 8.9 480.3 8.9 C 480.9 9.0 481.2 9.3 481.8 9.5 C 482.4 9.7 482.8 9.7 483.4 10.1 C 484.0 10.4 484.3 11.4 484.9 11.4 C 485.5 11.4 485.9 10.6 486.5 10.4 C 487.1 10.1 487.4 9.9 488.0 9.9 C 488.6 9.9 489.0 10.0 489.6 10.0 C 490.2 10.0 490.5 10.0 491.1 9.8 C 491.7 9.7 492.1 9.3 492.7 9.3 C 493.3 9.3 493.6 9.8 494.2 9.8 C 494.8 9.8 495.2 8.6 495.8 8.4 C 496.4 8.1 496.7 8.2 497.3 8.1 C 497.9 8.1 498.3 8.1 498.9 8.1 C 499.5 8.1 499.8 9.1 500.4 9.1 C 501.0 9.1 501.4 8.4 502.0 8.1 C 502.6 7.7 502.9 7.7 503.5 7.4 C 504.1 7.1 504.5 7.1 505.1 6.6 C 505.7 6.2 506.0 5.6 506.6 5.2 C 507.2 4.8 507.6 5.0 508.2 4.8 C 508.8 4.7 509.1 4.6 509.7 4.6 C 510.3 4.6 510.6 4.7 511.3 4.7 C 511.9 4.7 512.2 3.3 512.8 3.3 C 513.4 3.3 513.7 4.2 514.4 4.6 C 515.0 5.0 515.3 4.8 515.9 5.3 C 516.5 5.7 516.8 6.7 517.5 6.7 C 518.1 6.7 518.4 6.7 519.0 6.7 C 519.6 6.7 519.9 7.2 520.6 7.7 C 521.2 8.1 521.5 8.4 522.1 9.0 C 522.7 9.5 523.0 9.9 523.7 10.4 C 524.3 11.0 524.6 11.8 525.2 11.8 C 525.8 11.8 526.1 10.8 526.8 10.3 C 527.4 9.7 527.7 9.2 528.3 9.2 C 528.9 9.2 529.2 10.1 529.9 10.7 C 530.5 11.3 530.8 11.8 531.4 12.1 C 532.0 12.4 532.3 12.2 533.0 12.4 C 533.6 12.5 533.9 12.9 534.5 12.9 C 535.1 12.9 535.4 11.7 536.1 11.7 C 536.7 11.7 537.0 12.1 537.6 12.5 C 538.2 12.9 538.5 13.2 539.2 13.6 C 539.8 14.1 540.1 14.3 540.7 14.8 C 541.3 15.2 541.6 15.9 542.3 15.9 C 542.9 15.9 543.2 15.8 543.8 15.7 C 544.4 15.5 544.7 15.2 545.4 15.2 C 546.0 15.2 546.3 15.8 546.9 16.1 C 547.5 16.4 547.8 16.4 548.5 16.6 C 549.1 16.9 549.4 17.3 550.0 17.3 C 550.6 17.3 550.9 17.3 551.6 17.0 C 552.2 16.7 552.5 15.9 553.1 15.9 C 553.7 15.9 554.0 15.9 554.7 15.9 C 555.3 16.0 555.6 17.3 556.2 17.3 C 556.8 17.3 557.1 17.2 557.8 17.2 C 558.4 17.2 558.7 18.4 559.3 18.4 C 559.9 18.4 560.2 18.4 560.9 18.4 C 561.5 18.3 561.8 17.2 562.4 16.6 C 563.0 16.1 564 15.7 564 15.7" stroke="#4572A7" stroke-width="1"  stroke-linejoin="round" stroke-linecap="round"></path></g><g class="highcharts-markers" visibility="visible"  transform="translate(10,345) scale(1 1)" clip-path="url(#highcharts-4)"></g></g><g class="highcharts-navigator" ><rect fill="rgb(128,179,236)" fill-opacity="0.3" style="cursor:ew-resize ;" x="554" y="345" width="20" height="40"></rect><path fill="none" stroke="#b2b1b6" stroke-width="1" d="M 10 345.5 L 553.5 345.5 553.5 385.5 L 573.5 385.5 L 573.5 345.5 574 345.5 M 554.5 345.5 L 573.5 345.5"></path></g><g class="highcharts-navigator-handle-right" style="cursor:ew-resize;"  transform="translate(574,357)"><rect x="-4.5" y="0.5" width="8" height="15" strokeWidth="1" fill="#ebe7e8" stroke="#b2b1b6" stroke-width="1"></rect><path fill="#ebe7e8" d="M -1.5 4 L -1.5 12 M 0.5 4 L 0.5 12" stroke="#b2b1b6" stroke-width="1"></path></g><text x="292" text-anchor="middle" class="highcharts-title"  style="color:black;font-size:16px;font-weight:bold;fill:black;width:520px;" y="22"><tspan>AAPL Stock Price</tspan></text><g class="highcharts-navigator-handle-left" style="cursor:ew-resize;"  transform="translate(554,357)"><rect x="-4.5" y="0.5" width="8" height="15" strokeWidth="1" fill="#ebe7e8" stroke="#b2b1b6" stroke-width="1"></rect><path fill="#ebe7e8" d="M -1.5 4 L -1.5 12 M 0.5 4 L 0.5 12" stroke="#b2b1b6" stroke-width="1"></path></g><g class="highcharts-axis-labels highcharts-xaxis-labels" ><text x="58.7" style="color:#6e6e70;cursor:default;font-size:11px;fill:#6e6e70;" text-anchor="middle" transform="translate(0,0)" y="318" opacity="1"><tspan>18. Feb</tspan></text><text x="141.9" style="color:#6e6e70;cursor:default;font-size:11px;fill:#6e6e70;" text-anchor="middle" transform="translate(0,0)" y="318" opacity="1"><tspan>4. Mar</tspan></text><text x="231.9" style="color:#6e6e70;cursor:default;font-size:11px;fill:#6e6e70;" text-anchor="middle" transform="translate(0,0)" y="318" opacity="1"><tspan>18. Mar</tspan></text><text x="312.9" style="color:#6e6e70;cursor:default;font-size:11px;fill:#6e6e70;" text-anchor="middle" transform="translate(0,0)" y="318" opacity="1"><tspan>1. Apr</tspan></text><text x="402.9" style="color:#6e6e70;cursor:default;font-size:11px;fill:#6e6e70;" text-anchor="middle" transform="translate(0,0)" y="318" opacity="1"><tspan>15. Apr</tspan></text><text x="493.0" style="color:#6e6e70;cursor:default;font-size:11px;fill:#6e6e70;" text-anchor="middle" transform="translate(0,0)" y="318" opacity="1"><tspan>29. Apr</tspan></text></g><g class="highcharts-axis-labels highcharts-xaxis-labels" ><text x="144.2" style="color:#888;cursor:default;font-size:11px;fill:#888;width:178px;text-overflow:clip;" text-anchor="start" transform="translate(0,0)" y="381" opacity="1">2008</text><text x="306.0" style="color:#888;cursor:default;font-size:11px;fill:#888;width:178px;text-overflow:clip;" text-anchor="start" transform="translate(0,0)" y="381" opacity="1">2010</text><text x="467.6" style="color:#888;cursor:default;font-size:11px;fill:#888;width:178px;text-overflow:clip;" text-anchor="start" transform="translate(0,0)" y="381" opacity="1">2012</text></g><g class="highcharts-axis-labels highcharts-yaxis-labels" ><text x="574" style="color:#6e6e70;cursor:default;font-size:11px;fill:#6e6e70;width:183px;text-overflow:clip;" text-anchor="end" transform="translate(0,0)" y="297" opacity="1">375</text><text x="574" style="color:#6e6e70;cursor:default;font-size:11px;fill:#6e6e70;width:183px;text-overflow:clip;" text-anchor="end" transform="translate(0,0)" y="253" opacity="1">400</text><text x="574" style="color:#6e6e70;cursor:default;font-size:11px;fill:#6e6e70;width:183px;text-overflow:clip;" text-anchor="end" transform="translate(0,0)" y="209" opacity="1">425</text><text x="574" style="color:#6e6e70;cursor:default;font-size:11px;fill:#6e6e70;width:183px;text-overflow:clip;" text-anchor="end" transform="translate(0,0)" y="165" opacity="1">450</text><text x="574" style="color:#6e6e70;cursor:default;font-size:11px;fill:#6e6e70;width:183px;text-overflow:clip;" text-anchor="end" transform="translate(0,0)" y="121" opacity="1">475</text><text x="0" style="color:#6e6e70;cursor:default;font-size:11px;fill:#6e6e70;width:183px;text-overflow:clip;" text-anchor="end" transform="translate(0,0)" y="-9999">500</text></g><g class="highcharts-axis-labels highcharts-yaxis-labels" ></g><g class="highcharts-tooltip"  style="cursor:default;padding:0;white-space:nowrap;" transform="translate(0,-9999)"><path fill="none" d="M 3 0 L 13 0 C 16 0 16 0 16 3 L 16 13 C 16 16 16 16 13 16 L 3 16 C 0 16 0 16 0 13 L 0 3 C 0 0 0 0 3 0"  stroke="black" stroke-opacity="0.0" stroke-width="5" transform="translate(1, 1)"></path><path fill="none" d="M 3 0 L 13 0 C 16 0 16 0 16 3 L 16 13 C 16 16 16 16 13 16 L 3 16 C 0 16 0 16 0 13 L 0 3 C 0 0 0 0 3 0"  stroke="black" stroke-opacity="0.0" stroke-width="3" transform="translate(1, 1)"></path><path fill="none" d="M 3 0 L 13 0 C 16 0 16 0 16 3 L 16 13 C 16 16 16 16 13 16 L 3 16 C 0 16 0 16 0 13 L 0 3 C 0 0 0 0 3 0"  stroke="black" stroke-opacity="0.1" stroke-width="1" transform="translate(1, 1)"></path><path fill="rgb(249, 249, 249)" fill-opacity=" .85" d="M 3 0 L 13 0 C 16 0 16 0 16 3 L 16 13 C 16 16 16 16 13 16 L 3 16 C 0 16 0 16 0 13 L 0 3 C 0 0 0 0 3 0"></path><text x="8"  style="font-size:12px;color:#333333;fill:#333333;" transform="translate(0,20)"></text></g></svg>