<svg version="1.1" style="font-family:&quot;lucida grande&quot;, &quot;lucida sans unicode&quot;, arial, helvetica, sans-serif;font-size:12px;" xmlns="http://www.w3.org/2000/svg" width="584" height="400" viewBox="0 0 584 400"><desc>Created with Highcharts 4.1.4</desc><defs><linearGradient x1="0" y1="0" x2="0" y2="1" id="highcharts-1"><stop offset="0" stop-color="#FFFFFF" stop-opacity="1"></stop><stop offset="1" stop-color="#7cb5ec" stop-opacity="1"></stop></linearGradient><clipPath id="highcharts-2"><rect x="0" y="0" width="426" height="280"></rect></clipPath></defs><rect x="0" y="0" width="584" height="400" strokeWidth="0" fill="#FFFFFF" class=" highcharts-background" stroke="transparent"></rect><g class="highcharts-grid" ></g><g class="highcharts-grid" ><path fill="none" d="M 82 264.5 L 508 264.5" stroke="#D8D8D8" stroke-width="1"  opacity="1"></path><path fill="none" d="M 82 208.5 L 508 208.5" stroke="#D8D8D8" stroke-width="1"  opacity="1"></path><path fill="none" d="M 82 152.5 L 508 152.5" stroke="#D8D8D8" stroke-width="1"  opacity="1"></path><path fill="none" d="M 82 96.5 L 508 96.5" stroke="#D8D8D8" stroke-width="1"  opacity="1"></path><path fill="none" d="M 82 39.5 L 508 39.5" stroke="#D8D8D8" stroke-width="1"  opacity="1"></path><path fill="none" d="M 82 320.5 L 508 320.5" stroke="#D8D8D8" stroke-width="1"  opacity="1"></path></g><g class="highcharts-axis" ><path fill="none" d="M 124.5 320 L 124.5 330" stroke="#C0D0E0" stroke-width="1" opacity="1"></path><path fill="none" d="M 166.5 320 L 166.5 330" stroke="#C0D0E0" stroke-width="1" opacity="1"></path><path fill="none" d="M 209.5 320 L 209.5 330" stroke="#C0D0E0" stroke-width="1" opacity="1"></path><path fill="none" d="M 251.5 320 L 251.5 330" stroke="#C0D0E0" stroke-width="1" opacity="1"></path><path fill="none" d="M 294.5 320 L 294.5 330" stroke="#C0D0E0" stroke-width="1" opacity="1"></path><path fill="none" d="M 337.5 320 L 337.5 330" stroke="#C0D0E0" stroke-width="1" opacity="1"></path><path fill="none" d="M 379.5 320 L 379.5 330" stroke="#C0D0E0" stroke-width="1" opacity="1"></path><path fill="none" d="M 422.5 320 L 422.5 330" stroke="#C0D0E0" stroke-width="1" opacity="1"></path><path fill="none" d="M 464.5 320 L 464.5 330" stroke="#C0D0E0" stroke-width="1" opacity="1"></path><path fill="none" d="M 508.5 320 L 508.5 330" stroke="#C0D0E0" stroke-width="1" opacity="1"></path><path fill="none" d="M 81.5 320 L 81.5 330" stroke="#C0D0E0" stroke-width="1" opacity="1"></path><path fill="none" d="M 82 320.5 L 508 320.5" stroke="#C0D0E0" stroke-width="1"  visibility="visible"></path></g><g class="highcharts-axis" ></g><g class="highcharts-series-group" ><g class="highcharts-series highcharts-tracker" visibility="visible"  transform="translate(82,40) scale(1 1)" style="" clip-path="url(#highcharts-2)"><rect x="0" y="224" width="43" height="56" stroke="#7cb5ec" stroke-width="1" fill="rgb(246,250,254)"></rect><rect x="0" y="168" width="43" height="56" stroke="#7cb5ec" stroke-width="1" fill="rgb(238,246,253)"></rect><rect x="0" y="112" width="43" height="56" stroke="#7cb5ec" stroke-width="1" fill="rgb(248,251,254)"></rect><rect x="0" y="56" width="43" height="56" stroke="#7cb5ec" stroke-width="1" fill="rgb(234,243,252)"></rect><rect x="0" y="0" width="43" height="56" stroke="#7cb5ec" stroke-width="1" fill="rgb(196,222,247)"></rect><rect x="43" y="224" width="42" height="56" stroke="#7cb5ec" stroke-width="1" fill="rgb(175,210,243)"></rect><rect x="43" y="168" width="42" height="56" stroke="#7cb5ec" stroke-width="1" fill="rgb(204,226,248)"></rect><rect x="43" y="112" width="42" height="56" stroke="#7cb5ec" stroke-width="1" fill="rgb(187,217,245)"></rect><rect x="43" y="56" width="42" height="56" stroke="#7cb5ec" stroke-width="1" fill="rgb(153,197,240)"></rect><rect x="43" y="0" width="42" height="56" stroke="#7cb5ec" stroke-width="1" fill="rgb(213,231,249)"></rect><rect x="85" y="224" width="43" height="56" stroke="#7cb5ec" stroke-width="1" fill="rgb(224,238,251)"></rect><rect x="85" y="168" width="43" height="56" stroke="#7cb5ec" stroke-width="1" fill="rgb(242,248,253)"></rect><rect x="85" y="112" width="43" height="56" stroke="#7cb5ec" stroke-width="1" fill="rgb(148,194,239)"></rect><rect x="85" y="56" width="43" height="56" stroke="#7cb5ec" stroke-width="1" fill="rgb(199,223,247)"></rect><rect x="85" y="0" width="43" height="56" stroke="#7cb5ec" stroke-width="1" fill="rgb(210,229,248)"></rect><rect x="128" y="224" width="42" height="56" stroke="#7cb5ec" stroke-width="1" fill="rgb(192,219,246)"></rect><rect x="128" y="168" width="42" height="56" stroke="#7cb5ec" stroke-width="1" fill="rgb(140,190,238)"></rect><rect x="128" y="112" width="42" height="56" stroke="#7cb5ec" stroke-width="1" fill="rgb(155,199,241)"></rect><rect x="128" y="56" width="42" height="56" stroke="#7cb5ec" stroke-width="1" fill="rgb(238,246,253)"></rect><rect x="128" y="0" width="42" height="56" stroke="#7cb5ec" stroke-width="1" fill="rgb(241,247,253)"></rect><rect x="170" y="224" width="43" height="56" stroke="#7cb5ec" stroke-width="1" fill="rgb(222,236,250)"></rect><rect x="170" y="168" width="43" height="56" stroke="#7cb5ec" stroke-width="1" fill="rgb(251,253,254)"></rect><rect x="170" y="112" width="43" height="56" stroke="#7cb5ec" stroke-width="1" fill="rgb(248,251,254)"></rect><rect x="170" y="56" width="43" height="56" stroke="#7cb5ec" stroke-width="1" fill="rgb(153,197,240)"></rect><rect x="170" y="0" width="43" height="56" stroke="#7cb5ec" stroke-width="1" fill="rgb(155,198,240)"></rect><rect x="213" y="224" width="43" height="56" stroke="#7cb5ec" stroke-width="1" fill="rgb(178,212,244)"></rect><rect x="213" y="168" width="43" height="56" stroke="#7cb5ec" stroke-width="1" fill="rgb(227,239,251)"></rect><rect x="213" y="112" width="43" height="56" stroke="#7cb5ec" stroke-width="1" fill="rgb(245,249,253)"></rect><rect x="213" y="56" width="43" height="56" stroke="#7cb5ec" stroke-width="1" fill="rgb(250,252,254)"></rect><rect x="213" y="0" width="43" height="56" stroke="#7cb5ec" stroke-width="1" fill="rgb(150,196,240)"></rect><rect x="256" y="224" width="42" height="56" stroke="#7cb5ec" stroke-width="1" fill="rgb(244,249,253)"></rect><rect x="256" y="168" width="42" height="56" stroke="#7cb5ec" stroke-width="1" fill="rgb(217,233,249)"></rect><rect x="256" y="112" width="42" height="56" stroke="#7cb5ec" stroke-width="1" fill="rgb(178,212,244)"></rect><rect x="256" y="56" width="42" height="56" stroke="#7cb5ec" stroke-width="1" fill="rgb(169,207,243)"></rect><rect x="256" y="0" width="42" height="56" stroke="#7cb5ec" stroke-width="1" fill="rgb(171,208,243)"></rect><rect x="298" y="224" width="43" height="56" stroke="#7cb5ec" stroke-width="1" fill="rgb(228,240,251)"></rect><rect x="298" y="168" width="43" height="56" stroke="#7cb5ec" stroke-width="1" fill="rgb(254,255,255)"></rect><rect x="298" y="112" width="43" height="56" stroke="#7cb5ec" stroke-width="1" fill="rgb(183,215,245)"></rect><rect x="298" y="56" width="43" height="56" stroke="#7cb5ec" stroke-width="1" fill="rgb(227,239,251)"></rect><rect x="298" y="0" width="43" height="56" stroke="#7cb5ec" stroke-width="1" fill="rgb(229,240,251)"></rect><rect x="341" y="224" width="42" height="56" stroke="#7cb5ec" stroke-width="1" fill="rgb(181,213,244)"></rect><rect x="341" y="168" width="42" height="56" stroke="#7cb5ec" stroke-width="1" fill="rgb(170,207,243)"></rect><rect x="341" y="112" width="42" height="56" stroke="#7cb5ec" stroke-width="1" fill="rgb(148,194,239)"></rect><rect x="341" y="56" width="42" height="56" stroke="#7cb5ec" stroke-width="1" fill="rgb(199,223,247)"></rect><rect x="341" y="0" width="42" height="56" stroke="#7cb5ec" stroke-width="1" fill="rgb(182,214,244)"></rect><rect x="383" y="224" width="43" height="56" stroke="#7cb5ec" stroke-width="1" fill="rgb(214,232,249)"></rect><rect x="383" y="168" width="43" height="56" stroke="#7cb5ec" stroke-width="1" fill="rgb(155,199,241)"></rect><rect x="383" y="112" width="43" height="56" stroke="#7cb5ec" stroke-width="1" fill="rgb(228,240,251)"></rect><rect x="383" y="56" width="43" height="56" stroke="#7cb5ec" stroke-width="1" fill="rgb(213,231,249)"></rect><rect x="383" y="0" width="43" height="56" stroke="#7cb5ec" stroke-width="1" fill="rgb(176,210,243)"></rect></g><g class="highcharts-markers highcharts-tracker" visibility="visible"  transform="translate(82,40) scale(1 1)" style="" clip-path="none"></g></g><text x="292" text-anchor="middle" class="highcharts-title"  style="color:#333333;font-size:18px;fill:#333333;width:520px;" y="24"><tspan>Sales per employee per weekday</tspan></text><g class="highcharts-data-labels highcharts-tracker" visibility="visible"  transform="translate(82,40) scale(1 1)" style=""><g  style="" transform="translate(16,246)"><text x="0"  style="font-size: 11px; font-weight: bold; color: rgb(0, 0, 0); fill: #000000; text-shadow: rgb(255, 255, 255) 0px 0px 6px, rgb(255, 255, 255) 0px 0px 3px; " transform="translate(0,11)"><tspan>10</tspan></text></g><g  style="" transform="translate(16,190)"><text x="0"  style="font-size: 11px; font-weight: bold; color: rgb(0, 0, 0); fill: #000000; text-shadow: rgb(255, 255, 255) 0px 0px 6px, rgb(255, 255, 255) 0px 0px 3px; " transform="translate(0,11)"><tspan>19</tspan></text></g><g  style="" transform="translate(19,134)"><text x="0"  style="font-size: 11px; font-weight: bold; color: rgb(0, 0, 0); fill: #000000; text-shadow: rgb(255, 255, 255) 0px 0px 6px, rgb(255, 255, 255) 0px 0px 3px; " transform="translate(0,11)"><tspan>8</tspan></text></g><g  style="" transform="translate(16,78)"><text x="0"  style="font-size: 11px; font-weight: bold; color: rgb(0, 0, 0); fill: #000000; text-shadow: rgb(255, 255, 255) 0px 0px 6px, rgb(255, 255, 255) 0px 0px 3px; " transform="translate(0,11)"><tspan>24</tspan></text></g><g  style="" transform="translate(16,22)"><text x="0"  style="font-size: 11px; font-weight: bold; color: rgb(0, 0, 0); fill: #000000; text-shadow: rgb(255, 255, 255) 0px 0px 6px, rgb(255, 255, 255) 0px 0px 3px; " transform="translate(0,11)"><tspan>67</tspan></text></g><g  style="" transform="translate(58,246)"><text x="0"  style="font-size: 11px; font-weight: bold; color: rgb(0, 0, 0); fill: #000000; text-shadow: rgb(255, 255, 255) 0px 0px 6px, rgb(255, 255, 255) 0px 0px 3px; " transform="translate(0,11)"><tspan>92</tspan></text></g><g  style="" transform="translate(58,190)"><text x="0"  style="font-size: 11px; font-weight: bold; color: rgb(0, 0, 0); fill: #000000; text-shadow: rgb(255, 255, 255) 0px 0px 6px, rgb(255, 255, 255) 0px 0px 3px; " transform="translate(0,11)"><tspan>58</tspan></text></g><g  style="" transform="translate(58,134)"><text x="0"  style="font-size: 11px; font-weight: bold; color: rgb(0, 0, 0); fill: #000000; text-shadow: rgb(255, 255, 255) 0px 0px 6px, rgb(255, 255, 255) 0px 0px 3px; " transform="translate(0,11)"><tspan>78</tspan></text></g><g  style="" transform="translate(55,78)"><text x="0"  style="font-size: 11px; font-weight: bold; color: rgb(0, 0, 0); fill: #000000; text-shadow: rgb(255, 255, 255) 0px 0px 6px, rgb(255, 255, 255) 0px 0px 3px; " transform="translate(0,11)"><tspan>117</tspan></text></g><g  style="" transform="translate(58,22)"><text x="0"  style="font-size: 11px; font-weight: bold; color: rgb(0, 0, 0); fill: #000000; text-shadow: rgb(255, 255, 255) 0px 0px 6px, rgb(255, 255, 255) 0px 0px 3px; " transform="translate(0,11)"><tspan>48</tspan></text></g><g  style="" transform="translate(101,246)"><text x="0"  style="font-size: 11px; font-weight: bold; color: rgb(0, 0, 0); fill: #000000; text-shadow: rgb(255, 255, 255) 0px 0px 6px, rgb(255, 255, 255) 0px 0px 3px; " transform="translate(0,11)"><tspan>35</tspan></text></g><g  style="" transform="translate(101,190)"><text x="0"  style="font-size: 11px; font-weight: bold; color: rgb(0, 0, 0); fill: #000000; text-shadow: rgb(255, 255, 255) 0px 0px 6px, rgb(255, 255, 255) 0px 0px 3px; " transform="translate(0,11)"><tspan>15</tspan></text></g><g  style="" transform="translate(98,134)"><text x="0"  style="font-size: 11px; font-weight: bold; color: rgb(0, 0, 0); fill: #000000; text-shadow: rgb(255, 255, 255) 0px 0px 6px, rgb(255, 255, 255) 0px 0px 3px; " transform="translate(0,11)"><tspan>123</tspan></text></g><g  style="" transform="translate(101,78)"><text x="0"  style="font-size: 11px; font-weight: bold; color: rgb(0, 0, 0); fill: #000000; text-shadow: rgb(255, 255, 255) 0px 0px 6px, rgb(255, 255, 255) 0px 0px 3px; " transform="translate(0,11)"><tspan>64</tspan></text></g><g  style="" transform="translate(101,22)"><text x="0"  style="font-size: 11px; font-weight: bold; color: rgb(0, 0, 0); fill: #000000; text-shadow: rgb(255, 255, 255) 0px 0px 6px, rgb(255, 255, 255) 0px 0px 3px; " transform="translate(0,11)"><tspan>52</tspan></text></g><g  style="" transform="translate(143,246)"><text x="0"  style="font-size: 11px; font-weight: bold; color: rgb(0, 0, 0); fill: #000000; text-shadow: rgb(255, 255, 255) 0px 0px 6px, rgb(255, 255, 255) 0px 0px 3px; " transform="translate(0,11)"><tspan>72</tspan></text></g><g  style="" transform="translate(140,190)"><text x="0"  style="font-size: 11px; font-weight: bold; color: rgb(0, 0, 0); fill: #000000; text-shadow: rgb(255, 255, 255) 0px 0px 6px, rgb(255, 255, 255) 0px 0px 3px; " transform="translate(0,11)"><tspan>132</tspan></text></g><g  style="" transform="translate(140,134)"><text x="0"  style="font-size: 11px; font-weight: bold; color: rgb(0, 0, 0); fill: #000000; text-shadow: rgb(255, 255, 255) 0px 0px 6px, rgb(255, 255, 255) 0px 0px 3px; " transform="translate(0,11)"><tspan>114</tspan></text></g><g  style="" transform="translate(143,78)"><text x="0"  style="font-size: 11px; font-weight: bold; color: rgb(0, 0, 0); fill: #000000; text-shadow: rgb(255, 255, 255) 0px 0px 6px, rgb(255, 255, 255) 0px 0px 3px; " transform="translate(0,11)"><tspan>19</tspan></text></g><g  style="" transform="translate(143,22)"><text x="0"  style="font-size: 11px; font-weight: bold; color: rgb(0, 0, 0); fill: #000000; text-shadow: rgb(255, 255, 255) 0px 0px 6px, rgb(255, 255, 255) 0px 0px 3px; " transform="translate(0,11)"><tspan>16</tspan></text></g><g  style="" transform="translate(186,246)"><text x="0"  style="font-size: 11px; font-weight: bold; color: rgb(0, 0, 0); fill: #000000; text-shadow: rgb(255, 255, 255) 0px 0px 6px, rgb(255, 255, 255) 0px 0px 3px; " transform="translate(0,11)"><tspan>38</tspan></text></g><g  style="" transform="translate(189,190)"><text x="0"  style="font-size: 11px; font-weight: bold; color: rgb(0, 0, 0); fill: #000000; text-shadow: rgb(255, 255, 255) 0px 0px 6px, rgb(255, 255, 255) 0px 0px 3px; " transform="translate(0,11)"><tspan>5</tspan></text></g><g  style="" transform="translate(189,134)"><text x="0"  style="font-size: 11px; font-weight: bold; color: rgb(0, 0, 0); fill: #000000; text-shadow: rgb(255, 255, 255) 0px 0px 6px, rgb(255, 255, 255) 0px 0px 3px; " transform="translate(0,11)"><tspan>8</tspan></text></g><g  style="" transform="translate(183,78)"><text x="0"  style="font-size: 11px; font-weight: bold; color: rgb(0, 0, 0); fill: #000000; text-shadow: rgb(255, 255, 255) 0px 0px 6px, rgb(255, 255, 255) 0px 0px 3px; " transform="translate(0,11)"><tspan>117</tspan></text></g><g  style="" transform="translate(183,22)"><text x="0"  style="font-size: 11px; font-weight: bold; color: rgb(0, 0, 0); fill: #000000; text-shadow: rgb(255, 255, 255) 0px 0px 6px, rgb(255, 255, 255) 0px 0px 3px; " transform="translate(0,11)"><tspan>115</tspan></text></g><g  style="" transform="translate(229,246)"><text x="0"  style="font-size: 11px; font-weight: bold; color: rgb(0, 0, 0); fill: #000000; text-shadow: rgb(255, 255, 255) 0px 0px 6px, rgb(255, 255, 255) 0px 0px 3px; " transform="translate(0,11)"><tspan>88</tspan></text></g><g  style="" transform="translate(229,190)"><text x="0"  style="font-size: 11px; font-weight: bold; color: rgb(0, 0, 0); fill: #000000; text-shadow: rgb(255, 255, 255) 0px 0px 6px, rgb(255, 255, 255) 0px 0px 3px; " transform="translate(0,11)"><tspan>32</tspan></text></g><g  style="" transform="translate(229,134)"><text x="0"  style="font-size: 11px; font-weight: bold; color: rgb(0, 0, 0); fill: #000000; text-shadow: rgb(255, 255, 255) 0px 0px 6px, rgb(255, 255, 255) 0px 0px 3px; " transform="translate(0,11)"><tspan>12</tspan></text></g><g  style="" transform="translate(232,78)"><text x="0"  style="font-size: 11px; font-weight: bold; color: rgb(0, 0, 0); fill: #000000; text-shadow: rgb(255, 255, 255) 0px 0px 6px, rgb(255, 255, 255) 0px 0px 3px; " transform="translate(0,11)"><tspan>6</tspan></text></g><g  style="" transform="translate(226,22)"><text x="0"  style="font-size: 11px; font-weight: bold; color: rgb(0, 0, 0); fill: #000000; text-shadow: rgb(255, 255, 255) 0px 0px 6px, rgb(255, 255, 255) 0px 0px 3px; " transform="translate(0,11)"><tspan>120</tspan></text></g><g  style="" transform="translate(271,246)"><text x="0"  style="font-size: 11px; font-weight: bold; color: rgb(0, 0, 0); fill: #000000; text-shadow: rgb(255, 255, 255) 0px 0px 6px, rgb(255, 255, 255) 0px 0px 3px; " transform="translate(0,11)"><tspan>13</tspan></text></g><g  style="" transform="translate(271,190)"><text x="0"  style="font-size: 11px; font-weight: bold; color: rgb(0, 0, 0); fill: #000000; text-shadow: rgb(255, 255, 255) 0px 0px 6px, rgb(255, 255, 255) 0px 0px 3px; " transform="translate(0,11)"><tspan>44</tspan></text></g><g  style="" transform="translate(271,134)"><text x="0"  style="font-size: 11px; font-weight: bold; color: rgb(0, 0, 0); fill: #000000; text-shadow: rgb(255, 255, 255) 0px 0px 6px, rgb(255, 255, 255) 0px 0px 3px; " transform="translate(0,11)"><tspan>88</tspan></text></g><g  style="" transform="translate(271,78)"><text x="0"  style="font-size: 11px; font-weight: bold; color: rgb(0, 0, 0); fill: #000000; text-shadow: rgb(255, 255, 255) 0px 0px 6px, rgb(255, 255, 255) 0px 0px 3px; " transform="translate(0,11)"><tspan>98</tspan></text></g><g  style="" transform="translate(271,22)"><text x="0"  style="font-size: 11px; font-weight: bold; color: rgb(0, 0, 0); fill: #000000; text-shadow: rgb(255, 255, 255) 0px 0px 6px, rgb(255, 255, 255) 0px 0px 3px; " transform="translate(0,11)"><tspan>96</tspan></text></g><g  style="" transform="translate(314,246)"><text x="0"  style="font-size: 11px; font-weight: bold; color: rgb(0, 0, 0); fill: #000000; text-shadow: rgb(255, 255, 255) 0px 0px 6px, rgb(255, 255, 255) 0px 0px 3px; " transform="translate(0,11)"><tspan>31</tspan></text></g><g  style="" transform="translate(317,190)"><text x="0"  style="font-size: 11px; font-weight: bold; color: rgb(0, 0, 0); fill: #000000; text-shadow: rgb(255, 255, 255) 0px 0px 6px, rgb(255, 255, 255) 0px 0px 3px; " transform="translate(0,11)"><tspan>1</tspan></text></g><g  style="" transform="translate(314,134)"><text x="0"  style="font-size: 11px; font-weight: bold; color: rgb(0, 0, 0); fill: #000000; text-shadow: rgb(255, 255, 255) 0px 0px 6px, rgb(255, 255, 255) 0px 0px 3px; " transform="translate(0,11)"><tspan>82</tspan></text></g><g  style="" transform="translate(314,78)"><text x="0"  style="font-size: 11px; font-weight: bold; color: rgb(0, 0, 0); fill: #000000; text-shadow: rgb(255, 255, 255) 0px 0px 6px, rgb(255, 255, 255) 0px 0px 3px; " transform="translate(0,11)"><tspan>32</tspan></text></g><g  style="" transform="translate(314,22)"><text x="0"  style="font-size: 11px; font-weight: bold; color: rgb(0, 0, 0); fill: #000000; text-shadow: rgb(255, 255, 255) 0px 0px 6px, rgb(255, 255, 255) 0px 0px 3px; " transform="translate(0,11)"><tspan>30</tspan></text></g><g  style="" transform="translate(356,246)"><text x="0"  style="font-size: 11px; font-weight: bold; color: rgb(0, 0, 0); fill: #000000; text-shadow: rgb(255, 255, 255) 0px 0px 6px, rgb(255, 255, 255) 0px 0px 3px; " transform="translate(0,11)"><tspan>85</tspan></text></g><g  style="" transform="translate(356,190)"><text x="0"  style="font-size: 11px; font-weight: bold; color: rgb(0, 0, 0); fill: #000000; text-shadow: rgb(255, 255, 255) 0px 0px 6px, rgb(255, 255, 255) 0px 0px 3px; " transform="translate(0,11)"><tspan>97</tspan></text></g><g  style="" transform="translate(353,134)"><text x="0"  style="font-size: 11px; font-weight: bold; color: rgb(0, 0, 0); fill: #000000; text-shadow: rgb(255, 255, 255) 0px 0px 6px, rgb(255, 255, 255) 0px 0px 3px; " transform="translate(0,11)"><tspan>123</tspan></text></g><g  style="" transform="translate(356,78)"><text x="0"  style="font-size: 11px; font-weight: bold; color: rgb(0, 0, 0); fill: #000000; text-shadow: rgb(255, 255, 255) 0px 0px 6px, rgb(255, 255, 255) 0px 0px 3px; " transform="translate(0,11)"><tspan>64</tspan></text></g><g  style="" transform="translate(356,22)"><text x="0"  style="font-size: 11px; font-weight: bold; color: rgb(0, 0, 0); fill: #000000; text-shadow: rgb(255, 255, 255) 0px 0px 6px, rgb(255, 255, 255) 0px 0px 3px; " transform="translate(0,11)"><tspan>84</tspan></text></g><g  style="" transform="translate(399,246)"><text x="0"  style="font-size: 11px; font-weight: bold; color: rgb(0, 0, 0); fill: #000000; text-shadow: rgb(255, 255, 255) 0px 0px 6px, rgb(255, 255, 255) 0px 0px 3px; " transform="translate(0,11)"><tspan>47</tspan></text></g><g  style="" transform="translate(396,190)"><text x="0"  style="font-size: 11px; font-weight: bold; color: rgb(0, 0, 0); fill: #000000; text-shadow: rgb(255, 255, 255) 0px 0px 6px, rgb(255, 255, 255) 0px 0px 3px; " transform="translate(0,11)"><tspan>114</tspan></text></g><g  style="" transform="translate(399,134)"><text x="0"  style="font-size: 11px; font-weight: bold; color: rgb(0, 0, 0); fill: #000000; text-shadow: rgb(255, 255, 255) 0px 0px 6px, rgb(255, 255, 255) 0px 0px 3px; " transform="translate(0,11)"><tspan>31</tspan></text></g><g  style="" transform="translate(399,78)"><text x="0"  style="font-size: 11px; font-weight: bold; color: rgb(0, 0, 0); fill: #000000; text-shadow: rgb(255, 255, 255) 0px 0px 6px, rgb(255, 255, 255) 0px 0px 3px; " transform="translate(0,11)"><tspan>48</tspan></text></g><g  style="" transform="translate(399,22)"><text x="0"  style="font-size: 11px; font-weight: bold; color: rgb(0, 0, 0); fill: #000000; text-shadow: rgb(255, 255, 255) 0px 0px 6px, rgb(255, 255, 255) 0px 0px 3px; " transform="translate(0,11)"><tspan>91</tspan></text></g></g><g class="highcharts-legend"  transform="translate(508,35)"><g ><g><g class="highcharts-legend-item"  transform="translate(8,3)"><rect x="0" y="4" width="12" height="280"  fill="url(#highcharts-1)"></rect><g class="highcharts-grid" ><path fill="none" d="M 0 5.5 L 12 5.5" stroke="#D8D8D8" stroke-width="1"  opacity="1"></path><path fill="none" d="M 0 51.5 L 12 51.5" stroke="#D8D8D8" stroke-width="1"  opacity="1"></path><path fill="none" d="M 0 98.5 L 12 98.5" stroke="#D8D8D8" stroke-width="1"  opacity="1"></path><path fill="none" d="M 0 144.5 L 12 144.5" stroke="#D8D8D8" stroke-width="1"  opacity="1"></path><path fill="none" d="M 0 190.5 L 12 190.5" stroke="#D8D8D8" stroke-width="1"  opacity="1"></path><path fill="none" d="M 0 237.5 L 12 237.5" stroke="#D8D8D8" stroke-width="1"  opacity="1"></path><path fill="none" d="M 0 283.5 L 12 283.5" stroke="#D8D8D8" stroke-width="1"  opacity="1"></path></g><text x="21" style="color:#333333;font-size:12px;font-weight:bold;cursor:pointer;fill:#333333;" text-anchor="start"  y="15"></text><g class="highcharts-axis" ></g><g class="highcharts-axis-labels highcharts-coloraxis-labels" ><text x="27" style="color:#606060;cursor:default;font-size:11px;fill:#606060;width:183px;text-overflow:clip;" text-anchor="start" transform="translate(0,0)" y="9" opacity="1">0</text><text x="27" style="color:#606060;cursor:default;font-size:11px;fill:#606060;width:183px;text-overflow:clip;" text-anchor="start" transform="translate(0,0)" y="56" opacity="1">25</text><text x="27" style="color:#606060;cursor:default;font-size:11px;fill:#606060;width:183px;text-overflow:clip;" text-anchor="start" transform="translate(0,0)" y="102" opacity="1">50</text><text x="27" style="color:#606060;cursor:default;font-size:11px;fill:#606060;width:183px;text-overflow:clip;" text-anchor="start" transform="translate(0,0)" y="149" opacity="1">75</text><text x="27" style="color:#606060;cursor:default;font-size:11px;fill:#606060;width:183px;text-overflow:clip;" text-anchor="start" transform="translate(0,0)" y="195" opacity="1">100</text><text x="27" style="color:#606060;cursor:default;font-size:11px;fill:#606060;width:183px;text-overflow:clip;" text-anchor="start" transform="translate(0,0)" y="241" opacity="1">125</text><text x="27" style="color:#606060;cursor:default;font-size:11px;fill:#606060;width:183px;text-overflow:clip;" text-anchor="start" transform="translate(0,0)" y="288" opacity="1">150</text></g></g></g></g></g><g class="highcharts-axis-labels highcharts-xaxis-labels" ><text x="105.8" style="color:#606060;cursor:default;font-size:11px;fill:#606060;width:400px;text-overflow:ellipsis;" text-anchor="end" transform="translate(0,0) rotate(-45 105.8 336)" y="336" opacity="1"><tspan>Alexander</tspan></text><text x="148.4" style="color:#606060;cursor:default;font-size:11px;fill:#606060;width:400px;text-overflow:ellipsis;" text-anchor="end" transform="translate(0,0) rotate(-45 148.4 336)" y="336" opacity="1"><tspan>Marie</tspan></text><text x="191.0" style="color:#606060;cursor:default;font-size:11px;fill:#606060;width:400px;text-overflow:ellipsis;" text-anchor="end" transform="translate(0,0) rotate(-45 191.0 336)" y="336" opacity="1"><tspan>Maximilian</tspan></text><text x="233.6" style="color:#606060;cursor:default;font-size:11px;fill:#606060;width:400px;text-overflow:ellipsis;" text-anchor="end" transform="translate(0,0) rotate(-45 233.6 336)" y="336" opacity="1"><tspan>Sophia</tspan></text><text x="276.2" style="color:#606060;cursor:default;font-size:11px;fill:#606060;width:400px;text-overflow:ellipsis;" text-anchor="end" transform="translate(0,0) rotate(-45 276.2 336)" y="336" opacity="1"><tspan>Lukas</tspan></text><text x="318.8" style="color:#606060;cursor:default;font-size:11px;fill:#606060;width:400px;text-overflow:ellipsis;" text-anchor="end" transform="translate(0,0) rotate(-45 318.8 336)" y="336" opacity="1"><tspan>Maria</tspan></text><text x="361.4" style="color:#606060;cursor:default;font-size:11px;fill:#606060;width:400px;text-overflow:ellipsis;" text-anchor="end" transform="translate(0,0) rotate(-45 361.4 336)" y="336" opacity="1"><tspan>Leon</tspan></text><text x="404.0" style="color:#606060;cursor:default;font-size:11px;fill:#606060;width:400px;text-overflow:ellipsis;" text-anchor="end" transform="translate(0,0) rotate(-45 404.0 336)" y="336" opacity="1"><tspan>Anna</tspan></text><text x="446.6" style="color:#606060;cursor:default;font-size:11px;fill:#606060;width:400px;text-overflow:ellipsis;" text-anchor="end" transform="translate(0,0) rotate(-45 446.6 336)" y="336" opacity="1"><tspan>Tim</tspan></text><text x="489.2" style="color:#606060;cursor:default;font-size:11px;fill:#606060;width:400px;text-overflow:ellipsis;" text-anchor="end" transform="translate(0,0) rotate(-45 489.2 336)" y="336" opacity="1"><tspan>Laura</tspan></text></g><g class="highcharts-axis-labels highcharts-yaxis-labels" ><text x="67" style="color:#606060;cursor:default;font-size:11px;fill:#606060;width:183px;text-overflow:clip;" text-anchor="end" transform="translate(0,0)" y="297" opacity="1">Monday</text><text x="67" style="color:#606060;cursor:default;font-size:11px;fill:#606060;width:183px;text-overflow:clip;" text-anchor="end" transform="translate(0,0)" y="241" opacity="1">Tuesday</text><text x="67" style="color:#606060;cursor:default;font-size:11px;fill:#606060;width:183px;text-overflow:clip;" text-anchor="end" transform="translate(0,0)" y="185" opacity="1">Wednesday</text><text x="67" style="color:#606060;cursor:default;font-size:11px;fill:#606060;width:183px;text-overflow:clip;" text-anchor="end" transform="translate(0,0)" y="129" opacity="1">Thursday</text><text x="67" style="color:#606060;cursor:default;font-size:11px;fill:#606060;width:183px;text-overflow:clip;" text-anchor="end" transform="translate(0,0)" y="73" opacity="1">Friday</text></g><g class="highcharts-tooltip"  style="cursor:default;padding:0;white-space:nowrap;" transform="translate(0,-9999)"><path fill="none" d="M 3 0 L 13 0 C 16 0 16 0 16 3 L 16 13 C 16 16 16 16 13 16 L 3 16 C 0 16 0 16 0 13 L 0 3 C 0 0 0 0 3 0"  stroke="black" stroke-opacity="0.0" stroke-width="5" transform="translate(1, 1)"></path><path fill="none" d="M 3 0 L 13 0 C 16 0 16 0 16 3 L 16 13 C 16 16 16 16 13 16 L 3 16 C 0 16 0 16 0 13 L 0 3 C 0 0 0 0 3 0"  stroke="black" stroke-opacity="0.0" stroke-width="3" transform="translate(1, 1)"></path><path fill="none" d="M 3 0 L 13 0 C 16 0 16 0 16 3 L 16 13 C 16 16 16 16 13 16 L 3 16 C 0 16 0 16 0 13 L 0 3 C 0 0 0 0 3 0"  stroke="black" stroke-opacity="0.1" stroke-width="1" transform="translate(1, 1)"></path><path fill="rgb(249, 249, 249)" fill-opacity=" .85" d="M 3 0 L 13 0 C 16 0 16 0 16 3 L 16 13 C 16 16 16 16 13 16 L 3 16 C 0 16 0 16 0 13 L 0 3 C 0 0 0 0 3 0"></path><text x="8"  style="font-size:12px;color:#333333;fill:#333333;" transform="translate(0,20)"></text></g></svg>