<svg version="1.1" style="font-family:&quot;lucida grande&quot;, &quot;lucida sans unicode&quot;, arial, helvetica, sans-serif;font-size:12px;" xmlns="http://www.w3.org/2000/svg" width="584" height="400" viewBox="0 0 584 400"><desc>Created with Highcharts 4.1.4</desc><defs><clipPath id="highcharts-1"><rect x="0" y="0" width="564" height="324"></rect></clipPath><clipPath id="highcharts-2"><rect x="-99" y="-61" width="663" height="400"></rect></clipPath><clipPath id="highcharts-3"><rect x="0" y="0" width="564" height="324"></rect></clipPath></defs><rect x="0" y="0" width="584" height="400" strokeWidth="0" fill="#FFFFFF" class=" highcharts-background"></rect><g class="highcharts-grid" ><path fill="none" d="M 51.5 61 L 51.5 385" stroke="#D8D8D8" stroke-width="1"  opacity="1"></path><path fill="none" d="M 180.5 61 L 180.5 385" stroke="#D8D8D8" stroke-width="1"  opacity="1"></path><path fill="none" d="M 309.5 61 L 309.5 385" stroke="#D8D8D8" stroke-width="1"  opacity="1"></path><path fill="none" d="M 438.5 61 L 438.5 385" stroke="#D8D8D8" stroke-width="1"  opacity="1"></path><path fill="none" d="M 567.5 61 L 567.5 385" stroke="#D8D8D8" stroke-width="1"  opacity="1"></path></g><g class="highcharts-grid" ><path fill="none" d="M 10 385.5 L 574 385.5" stroke="#D8D8D8" stroke-width="1"  opacity="1"></path><path fill="none" d="M 10 320.5 L 574 320.5" stroke="#D8D8D8" stroke-width="1"  opacity="1"></path><path fill="none" d="M 10 255.5 L 574 255.5" stroke="#D8D8D8" stroke-width="1"  opacity="1"></path><path fill="none" d="M 10 191.5 L 574 191.5" stroke="#D8D8D8" stroke-width="1"  opacity="1"></path><path fill="none" d="M 10 126.5 L 574 126.5" stroke="#D8D8D8" stroke-width="1"  opacity="1"></path><path fill="none" d="M 10 60.5 L 574 60.5" stroke="#D8D8D8" stroke-width="1"  opacity="1"></path></g><g class="highcharts-grid" ></g><g class="highcharts-axis" ><path fill="none" d="M 10 385.5 L 574 385.5" stroke="#C0D0E0" stroke-width="1"  visibility="visible"></path></g><g class="highcharts-axis" ></g><g class="highcharts-axis" ></g><g class="highcharts-series-group" ><g class="highcharts-series" visibility="visible"  transform="translate(10,61) scale(1 1)" clip-path="url(#highcharts-3)"><path fill="none" d="M 5.5 250.2 L 23.9 253.9 L 42.3 122.1 L 60.8 113.9 L 79.2 111.1 L 97.6 110.3 L 116.1 133.0 L 134.5 248.3 L 152.9 252.1 L 171.4 122.3 L 189.8 78.5 L 208.2 104.0 L 226.7 96.1 L 245.1 97.0 L 263.5 238.4 L 282 244.1 L 300.4 99.1 L 318.8 95.1 L 337.2 104.7 L 355.7 117.1 L 374.1 168.1 L 392.5 248.3 L 411.0 261.8 L 429.4 155.0 L 447.8 103.9 L 466.3 102.3 L 484.7 120.5 L 503.1 137.6 L 521.6 247.6 L 540.0 236.1 L 558.4 115.7" stroke="#7cb5ec" stroke-width="4"  stroke-linejoin="round" stroke-linecap="round"></path><path fill="none" d="M -4.4 250.2 L 5.5 250.2 L 23.9 253.9 L 42.3 122.1 L 60.8 113.9 L 79.2 111.1 L 97.6 110.3 L 116.1 133.0 L 134.5 248.3 L 152.9 252.1 L 171.4 122.3 L 189.8 78.5 L 208.2 104.0 L 226.7 96.1 L 245.1 97.0 L 263.5 238.4 L 282 244.1 L 300.4 99.1 L 318.8 95.1 L 337.2 104.7 L 355.7 117.1 L 374.1 168.1 L 392.5 248.3 L 411.0 261.8 L 429.4 155.0 L 447.8 103.9 L 466.3 102.3 L 484.7 120.5 L 503.1 137.6 L 521.6 247.6 L 540.0 236.1 L 558.4 115.7 L 568.4 115.7" stroke-linejoin="round" visibility="visible" stroke="rgb(192,192,192)" stroke-opacity="0.0" stroke-width="24"  class=" highcharts-tracker" style="cursor:pointer;"></path></g><g class="highcharts-markers highcharts-tracker" visibility="visible"  transform="translate(10,61) scale(1 1)" clip-path="url(#highcharts-2)" style="cursor:pointer;"><path fill="#7cb5ec" d="M 558 111.7 C 563.3 111.7 563.3 119.7 558 119.7 C 552.6 119.7 552.6 111.7 558 111.7 Z" stroke="#FFFFFF" stroke-width="1"></path><path fill="#7cb5ec" d="M 540 232.1 C 545.3 232.1 545.3 240.1 540 240.1 C 534.6 240.1 534.6 232.1 540 232.1 Z" stroke="#FFFFFF" stroke-width="1"></path><path fill="#7cb5ec" d="M 521 243.6 C 526.3 243.6 526.3 251.6 521 251.6 C 515.6 251.6 515.6 243.6 521 243.6 Z" stroke="#FFFFFF" stroke-width="1"></path><path fill="#7cb5ec" d="M 503 133.6 C 508.3 133.6 508.3 141.6 503 141.6 C 497.6 141.6 497.6 133.6 503 133.6 Z" stroke="#FFFFFF" stroke-width="1"></path><path fill="#7cb5ec" d="M 484 116.5 C 489.3 116.5 489.3 124.5 484 124.5 C 478.6 124.5 478.6 116.5 484 116.5 Z" stroke="#FFFFFF" stroke-width="1"></path><path fill="#7cb5ec" d="M 466 98.3 C 471.3 98.3 471.3 106.3 466 106.3 C 460.6 106.3 460.6 98.3 466 98.3 Z" stroke="#FFFFFF" stroke-width="1"></path><path fill="#7cb5ec" d="M 447 99.9 C 452.3 99.9 452.3 107.9 447 107.9 C 441.6 107.9 441.6 99.9 447 99.9 Z" stroke="#FFFFFF" stroke-width="1"></path><path fill="#7cb5ec" d="M 429 151.0 C 434.3 151.0 434.3 159.0 429 159.0 C 423.6 159.0 423.6 151.0 429 151.0 Z" stroke="#FFFFFF" stroke-width="1"></path><path fill="#7cb5ec" d="M 411 257.8 C 416.3 257.8 416.3 265.8 411 265.8 C 405.6 265.8 405.6 257.8 411 257.8 Z" stroke="#FFFFFF" stroke-width="1"></path><path fill="#7cb5ec" d="M 392 244.3 C 397.3 244.3 397.3 252.3 392 252.3 C 386.6 252.3 386.6 244.3 392 244.3 Z" stroke="#FFFFFF" stroke-width="1"></path><path fill="#7cb5ec" d="M 374 164.1 C 379.3 164.1 379.3 172.1 374 172.1 C 368.6 172.1 368.6 164.1 374 164.1 Z" stroke="#FFFFFF" stroke-width="1"></path><path fill="#7cb5ec" d="M 355 113.1 C 360.3 113.1 360.3 121.1 355 121.1 C 349.6 121.1 349.6 113.1 355 113.1 Z" stroke="#FFFFFF" stroke-width="1"></path><path fill="#7cb5ec" d="M 337 100.7 C 342.3 100.7 342.3 108.7 337 108.7 C 331.6 108.7 331.6 100.7 337 100.7 Z" stroke="#FFFFFF" stroke-width="1"></path><path fill="#7cb5ec" d="M 318 91.1 C 323.3 91.1 323.3 99.1 318 99.1 C 312.6 99.1 312.6 91.1 318 91.1 Z" stroke="#FFFFFF" stroke-width="1"></path><path fill="#7cb5ec" d="M 300 95.1 C 305.3 95.1 305.3 103.1 300 103.1 C 294.6 103.1 294.6 95.1 300 95.1 Z" stroke="#FFFFFF" stroke-width="1"></path><path fill="#7cb5ec" d="M 282 240.1 C 287.3 240.1 287.3 248.1 282 248.1 C 276.6 248.1 276.6 240.1 282 240.1 Z" stroke="#FFFFFF" stroke-width="1"></path><path fill="#7cb5ec" d="M 263 234.4 C 268.3 234.4 268.3 242.4 263 242.4 C 257.6 242.4 257.6 234.4 263 234.4 Z" stroke="#FFFFFF" stroke-width="1"></path><path fill="#7cb5ec" d="M 245 93.0 C 250.3 93.0 250.3 101.0 245 101.0 C 239.6 101.0 239.6 93.0 245 93.0 Z" stroke="#FFFFFF" stroke-width="1"></path><path fill="#7cb5ec" d="M 226 92.1 C 231.3 92.1 231.3 100.1 226 100.1 C 220.6 100.1 220.6 92.1 226 92.1 Z" stroke="#FFFFFF" stroke-width="1"></path><path fill="#7cb5ec" d="M 208 100.0 C 213.3 100.0 213.3 108.0 208 108.0 C 202.6 108.0 202.6 100.0 208 100.0 Z" stroke="#FFFFFF" stroke-width="1"></path><path fill="#7cb5ec" d="M 189 74.5 C 194.3 74.5 194.3 82.5 189 82.5 C 183.6 82.5 183.6 74.5 189 74.5 Z" stroke="#FFFFFF" stroke-width="1"></path><path fill="#7cb5ec" d="M 171 118.3 C 176.3 118.3 176.3 126.3 171 126.3 C 165.6 126.3 165.6 118.3 171 118.3 Z" stroke="#FFFFFF" stroke-width="1"></path><path fill="#7cb5ec" d="M 152 248.1 C 157.3 248.1 157.3 256.1 152 256.1 C 146.6 256.1 146.6 248.1 152 248.1 Z" stroke="#FFFFFF" stroke-width="1"></path><path fill="#7cb5ec" d="M 134 244.3 C 139.3 244.3 139.3 252.3 134 252.3 C 128.6 252.3 128.6 244.3 134 244.3 Z" stroke="#FFFFFF" stroke-width="1"></path><path fill="#7cb5ec" d="M 116 129.0 C 121.3 129.0 121.3 137.0 116 137.0 C 110.6 137.0 110.6 129.0 116 129.0 Z" stroke="#FFFFFF" stroke-width="1"></path><path fill="#7cb5ec" d="M 97 106.3 C 102.3 106.3 102.3 114.3 97 114.3 C 91.6 114.3 91.6 106.3 97 106.3 Z" stroke="#FFFFFF" stroke-width="1"></path><path fill="#7cb5ec" d="M 79 107.1 C 84.3 107.1 84.3 115.1 79 115.1 C 73.6 115.1 73.6 107.1 79 107.1 Z" stroke="#FFFFFF" stroke-width="1"></path><path fill="#7cb5ec" d="M 60 109.9 C 65.3 109.9 65.3 117.9 60 117.9 C 54.6 117.9 54.6 109.9 60 109.9 Z" stroke="#FFFFFF" stroke-width="1"></path><path fill="#7cb5ec" d="M 42 118.1 C 47.3 118.1 47.3 126.1 42 126.1 C 36.6 126.1 36.6 118.1 42 118.1 Z" stroke="#FFFFFF" stroke-width="1"></path><path fill="#7cb5ec" d="M 23 249.9 C 28.3 249.9 28.3 257.9 23 257.9 C 17.6 257.9 17.6 249.9 23 249.9 Z" stroke="#FFFFFF" stroke-width="1"></path><path fill="#7cb5ec" d="M 5 246.2 C 10.3 246.2 10.3 254.2 5 254.2 C -0.3 254.2 -0.3 246.2 5 246.2 Z" stroke="#FFFFFF" stroke-width="1"></path></g><g class="highcharts-series" visibility="visible"  transform="translate(10,61) scale(1 1)" clip-path="url(#highcharts-3)"><path fill="none" d="M 5.5 267.6 L 23.9 270.7 L 42.3 176.8 L 60.8 170.0 L 79.2 168.9 L 97.6 167.3 L 116.1 182.5 L 134.5 265.5 L 152.9 269.5 L 171.4 174.6 L 189.8 136.9 L 208.2 160.7 L 226.7 154.3 L 245.1 152.4 L 263.5 256.4 L 282 261.7 L 300.4 160.1 L 318.8 158.5 L 337.2 163.4 L 355.7 172.5 L 374.1 208.7 L 392.5 265.5 L 411.0 276.5 L 429.4 200.8 L 447.8 159.8 L 466.3 160.2 L 484.7 176.3 L 503.1 187.5 L 521.6 265.4 L 540.0 257.7 L 558.4 173.6" stroke="#434348" stroke-width="2"  stroke-linejoin="round" stroke-linecap="round"></path><path fill="none" d="M -4.4 267.6 L 5.5 267.6 L 23.9 270.7 L 42.3 176.8 L 60.8 170.0 L 79.2 168.9 L 97.6 167.3 L 116.1 182.5 L 134.5 265.5 L 152.9 269.5 L 171.4 174.6 L 189.8 136.9 L 208.2 160.7 L 226.7 154.3 L 245.1 152.4 L 263.5 256.4 L 282 261.7 L 300.4 160.1 L 318.8 158.5 L 337.2 163.4 L 355.7 172.5 L 374.1 208.7 L 392.5 265.5 L 411.0 276.5 L 429.4 200.8 L 447.8 159.8 L 466.3 160.2 L 484.7 176.3 L 503.1 187.5 L 521.6 265.4 L 540.0 257.7 L 558.4 173.6 L 568.4 173.6" stroke-linejoin="round" visibility="visible" stroke="rgb(192,192,192)" stroke-opacity="0.0" stroke-width="22"  class=" highcharts-tracker" style="cursor:pointer;"></path></g><g class="highcharts-markers highcharts-tracker" visibility="visible"  transform="translate(10,61) scale(1 1)" clip-path="url(#highcharts-2)" style="cursor:pointer;"><path fill="#434348" d="M 558 169.6 L 562 173.6 558 177.6 554 173.6 Z" stroke="#FFFFFF" stroke-width="1"></path><path fill="#434348" d="M 540 253.7 L 544 257.7 540 261.7 536 257.7 Z" stroke="#FFFFFF" stroke-width="1"></path><path fill="#434348" d="M 521 261.4 L 525 265.4 521 269.4 517 265.4 Z" stroke="#FFFFFF" stroke-width="1"></path><path fill="#434348" d="M 503 183.5 L 507 187.5 503 191.5 499 187.5 Z" stroke="#FFFFFF" stroke-width="1"></path><path fill="#434348" d="M 484 172.3 L 488 176.3 484 180.3 480 176.3 Z" stroke="#FFFFFF" stroke-width="1"></path><path fill="#434348" d="M 466 156.2 L 470 160.2 466 164.2 462 160.2 Z" stroke="#FFFFFF" stroke-width="1"></path><path fill="#434348" d="M 447 155.8 L 451 159.8 447 163.8 443 159.8 Z" stroke="#FFFFFF" stroke-width="1"></path><path fill="#434348" d="M 429 196.8 L 433 200.8 429 204.8 425 200.8 Z" stroke="#FFFFFF" stroke-width="1"></path><path fill="#434348" d="M 411 272.5 L 415 276.5 411 280.5 407 276.5 Z" stroke="#FFFFFF" stroke-width="1"></path><path fill="#434348" d="M 392 261.5 L 396 265.5 392 269.5 388 265.5 Z" stroke="#FFFFFF" stroke-width="1"></path><path fill="#434348" d="M 374 204.7 L 378 208.7 374 212.7 370 208.7 Z" stroke="#FFFFFF" stroke-width="1"></path><path fill="#434348" d="M 355 168.5 L 359 172.5 355 176.5 351 172.5 Z" stroke="#FFFFFF" stroke-width="1"></path><path fill="#434348" d="M 337 159.4 L 341 163.4 337 167.4 333 163.4 Z" stroke="#FFFFFF" stroke-width="1"></path><path fill="#434348" d="M 318 154.5 L 322 158.5 318 162.5 314 158.5 Z" stroke="#FFFFFF" stroke-width="1"></path><path fill="#434348" d="M 300 156.1 L 304 160.1 300 164.1 296 160.1 Z" stroke="#FFFFFF" stroke-width="1"></path><path fill="#434348" d="M 282 257.7 L 286 261.7 282 265.7 278 261.7 Z" stroke="#FFFFFF" stroke-width="1"></path><path fill="#434348" d="M 263 252.4 L 267 256.4 263 260.4 259 256.4 Z" stroke="#FFFFFF" stroke-width="1"></path><path fill="#434348" d="M 245 148.4 L 249 152.4 245 156.4 241 152.4 Z" stroke="#FFFFFF" stroke-width="1"></path><path fill="#434348" d="M 226 150.3 L 230 154.3 226 158.3 222 154.3 Z" stroke="#FFFFFF" stroke-width="1"></path><path fill="#434348" d="M 208 156.7 L 212 160.7 208 164.7 204 160.7 Z" stroke="#FFFFFF" stroke-width="1"></path><path fill="#434348" d="M 189 132.9 L 193 136.9 189 140.9 185 136.9 Z" stroke="#FFFFFF" stroke-width="1"></path><path fill="#434348" d="M 171 170.6 L 175 174.6 171 178.6 167 174.6 Z" stroke="#FFFFFF" stroke-width="1"></path><path fill="#434348" d="M 152 265.5 L 156 269.5 152 273.5 148 269.5 Z" stroke="#FFFFFF" stroke-width="1"></path><path fill="#434348" d="M 134 261.5 L 138 265.5 134 269.5 130 265.5 Z" stroke="#FFFFFF" stroke-width="1"></path><path fill="#434348" d="M 116 178.5 L 120 182.5 116 186.5 112 182.5 Z" stroke="#FFFFFF" stroke-width="1"></path><path fill="#434348" d="M 97 163.3 L 101 167.3 97 171.3 93 167.3 Z" stroke="#FFFFFF" stroke-width="1"></path><path fill="#434348" d="M 79 164.9 L 83 168.9 79 172.9 75 168.9 Z" stroke="#FFFFFF" stroke-width="1"></path><path fill="#434348" d="M 60 166.0 L 64 170.0 60 174.0 56 170.0 Z" stroke="#FFFFFF" stroke-width="1"></path><path fill="#434348" d="M 42 172.8 L 46 176.8 42 180.8 38 176.8 Z" stroke="#FFFFFF" stroke-width="1"></path><path fill="#434348" d="M 23 266.7 L 27 270.7 23 274.7 19 270.7 Z" stroke="#FFFFFF" stroke-width="1"></path><path fill="#434348" d="M 5 263.6 L 9 267.6 5 271.6 1 267.6 Z" stroke="#FFFFFF" stroke-width="1"></path></g></g><text x="292" text-anchor="middle" class="highcharts-title"  style="color:#333333;font-size:18px;fill:#333333;width:520px;" y="24"><tspan>Daily visits at www.highcharts.com</tspan></text><text x="292" text-anchor="middle" class="highcharts-subtitle"  style="color:#555555;fill:#555555;width:520px;" y="46"><tspan>Source: Google Analytics</tspan></text><g class="highcharts-legend"  transform="translate(10,30)"><g ><g><g class="highcharts-legend-item"  transform="translate(8,3)"><path fill="none" d="M 0 11 L 16 11" stroke="#7cb5ec" stroke-width="4"></path><path fill="#7cb5ec" d="M 8 7 C 13.3 7 13.3 15 8 15 C 2.6 15 2.6 7 8 7 Z" stroke="#FFFFFF" stroke-width="1"></path><text x="21" style="color:#333333;font-size:12px;font-weight:bold;cursor:pointer;fill:#333333;" text-anchor="start"  y="15">Visits</text></g><g class="highcharts-legend-item"  transform="translate(81,3)"><path fill="none" d="M 0 11 L 16 11" stroke="#434348" stroke-width="2"></path><path fill="#434348" d="M 8 7 L 12 11 8 15 4 11 Z" stroke="#FFFFFF" stroke-width="1"></path><text x="21" y="15" style="color:#333333;font-size:12px;font-weight:bold;cursor:pointer;fill:#333333;" text-anchor="start" ><tspan>Unique Visitors</tspan></text></g></g></g></g><g class="highcharts-axis-labels highcharts-xaxis-labels" ><text x="55.3" style="color:#606060;cursor:default;font-size:11px;fill:#606060;width:103px;text-overflow:clip;" text-anchor="start" transform="translate(0,0)" y="382" opacity="1"><tspan>11. Mar</tspan></text><text x="184.4" style="color:#606060;cursor:default;font-size:11px;fill:#606060;width:103px;text-overflow:clip;" text-anchor="start" transform="translate(0,0)" y="382" opacity="1"><tspan>18. Mar</tspan></text><text x="313.4" style="color:#606060;cursor:default;font-size:11px;fill:#606060;width:103px;text-overflow:clip;" text-anchor="start" transform="translate(0,0)" y="382" opacity="1"><tspan>25. Mar</tspan></text><text x="442.4" style="color:#606060;cursor:default;font-size:11px;fill:#606060;width:103px;text-overflow:clip;" text-anchor="start" transform="translate(0,0)" y="382" opacity="1"><tspan>1. Apr</tspan></text><text x="571.4" style="color:#606060;cursor:default;font-size:11px;fill:#606060;width:103px;text-overflow:clip;" text-anchor="start" transform="translate(0,0)" y="382" opacity="1"><tspan>8. Apr</tspan></text></g><g class="highcharts-axis-labels highcharts-yaxis-labels" ><text x="0" style="color:#606060;cursor:default;font-size:11px;fill:#606060;width:183px;text-overflow:clip;" text-anchor="start" transform="translate(0,0)" y="-9999">0</text><text x="13" style="color:#606060;cursor:default;font-size:11px;fill:#606060;width:183px;text-overflow:clip;" text-anchor="start" transform="translate(0,0)" y="336" opacity="1"><tspan>5 000</tspan></text><text x="13" style="color:#606060;cursor:default;font-size:11px;fill:#606060;width:183px;text-overflow:clip;" text-anchor="start" transform="translate(0,0)" y="271" opacity="1"><tspan>10 000</tspan></text><text x="13" style="color:#606060;cursor:default;font-size:11px;fill:#606060;width:183px;text-overflow:clip;" text-anchor="start" transform="translate(0,0)" y="207" opacity="1"><tspan>15 000</tspan></text><text x="13" style="color:#606060;cursor:default;font-size:11px;fill:#606060;width:183px;text-overflow:clip;" text-anchor="start" transform="translate(0,0)" y="142" opacity="1"><tspan>20 000</tspan></text><text x="13" style="color:#606060;cursor:default;font-size:11px;fill:#606060;width:183px;text-overflow:clip;" text-anchor="start" transform="translate(0,0)" y="77" opacity="1"><tspan>25 000</tspan></text></g><g class="highcharts-axis-labels highcharts-yaxis-labels" ><text x="0" style="color:#606060;cursor:default;font-size:11px;fill:#606060;width:183px;text-overflow:clip;" text-anchor="end" transform="translate(0,0)" y="-9999">0</text><text x="571" style="color:#606060;cursor:default;font-size:11px;fill:#606060;width:183px;text-overflow:clip;" text-anchor="end" transform="translate(0,0)" y="336" opacity="1"><tspan>5 000</tspan></text><text x="571" style="color:#606060;cursor:default;font-size:11px;fill:#606060;width:183px;text-overflow:clip;" text-anchor="end" transform="translate(0,0)" y="271" opacity="1"><tspan>10 000</tspan></text><text x="571" style="color:#606060;cursor:default;font-size:11px;fill:#606060;width:183px;text-overflow:clip;" text-anchor="end" transform="translate(0,0)" y="207" opacity="1"><tspan>15 000</tspan></text><text x="571" style="color:#606060;cursor:default;font-size:11px;fill:#606060;width:183px;text-overflow:clip;" text-anchor="end" transform="translate(0,0)" y="142" opacity="1"><tspan>20 000</tspan></text><text x="571" style="color:#606060;cursor:default;font-size:11px;fill:#606060;width:183px;text-overflow:clip;" text-anchor="end" transform="translate(0,0)" y="77" opacity="1"><tspan>25 000</tspan></text></g><g class="highcharts-tooltip"  style="cursor:default;padding:0;white-space:nowrap;" transform="translate(0,-9999)"><path fill="none" d="M 3 0 L 13 0 C 16 0 16 0 16 3 L 16 13 C 16 16 16 16 13 16 L 3 16 C 0 16 0 16 0 13 L 0 3 C 0 0 0 0 3 0"  stroke="black" stroke-opacity="0.0" stroke-width="5" transform="translate(1, 1)"></path><path fill="none" d="M 3 0 L 13 0 C 16 0 16 0 16 3 L 16 13 C 16 16 16 16 13 16 L 3 16 C 0 16 0 16 0 13 L 0 3 C 0 0 0 0 3 0"  stroke="black" stroke-opacity="0.0" stroke-width="3" transform="translate(1, 1)"></path><path fill="none" d="M 3 0 L 13 0 C 16 0 16 0 16 3 L 16 13 C 16 16 16 16 13 16 L 3 16 C 0 16 0 16 0 13 L 0 3 C 0 0 0 0 3 0"  stroke="black" stroke-opacity="0.1" stroke-width="1" transform="translate(1, 1)"></path><path fill="rgb(249, 249, 249)" fill-opacity=" .85" d="M 3 0 L 13 0 C 16 0 16 0 16 3 L 16 13 C 16 16 16 16 13 16 L 3 16 C 0 16 0 16 0 13 L 0 3 C 0 0 0 0 3 0"></path><text x="8"  style="font-size:12px;color:#333333;fill:#333333;" transform="translate(0,20)"></text></g></svg>